<?xml version="1.0" encoding="UTF-8" standalone="no"?>
<!DOCTYPE svg PUBLIC "-//W3C//DTD SVG 1.1//EN"
 "http://www.w3.org/Graphics/SVG/1.1/DTD/svg11.dtd">
<!-- Generated by graphviz version 2.43.0 (0)
 -->
<!-- Title: %3 Pages: 1 -->
<svg width="582pt" height="764pt"
 viewBox="0.00 0.00 581.50 764.00" xmlns="http://www.w3.org/2000/svg" xmlns:xlink="http://www.w3.org/1999/xlink">
<g id="graph0" class="graph" transform="scale(1 1) rotate(0) translate(4 760)">
<title>%3</title>
<polygon fill="white" stroke="transparent" points="-4,4 -4,-760 577.5,-760 577.5,4 -4,4"/>
<!-- ast.Module object at 0x7f1571192a10 -->
<g id="node1" class="node">
<title>ast.Module object at 0x7f1571192a10</title>
<path fill="#66cdaa" stroke="black" d="M456.5,-756C456.5,-756 421.5,-756 421.5,-756 415.5,-756 409.5,-750 409.5,-744 409.5,-744 409.5,-732 409.5,-732 409.5,-726 415.5,-720 421.5,-720 421.5,-720 456.5,-720 456.5,-720 462.5,-720 468.5,-726 468.5,-732 468.5,-732 468.5,-744 468.5,-744 468.5,-750 462.5,-756 456.5,-756"/>
<text text-anchor="middle" x="439" y="-734.3" font-family="Times,serif" font-size="14.00">Module</text>
</g>
<!-- ast.FunctionDef object at 0x7f1571193760 -->
<g id="node2" class="node">
<title>ast.FunctionDef object at 0x7f1571193760</title>
<path fill="#66cdaa" stroke="black" d="M469.5,-684C469.5,-684 408.5,-684 408.5,-684 402.5,-684 396.5,-678 396.5,-672 396.5,-672 396.5,-660 396.5,-660 396.5,-654 402.5,-648 408.5,-648 408.5,-648 469.5,-648 469.5,-648 475.5,-648 481.5,-654 481.5,-660 481.5,-660 481.5,-672 481.5,-672 481.5,-678 475.5,-684 469.5,-684"/>
<text text-anchor="middle" x="439" y="-662.3" font-family="Times,serif" font-size="14.00">FunctionDef</text>
</g>
<!-- ast.Module object at 0x7f1571192a10&#45;&gt;ast.FunctionDef object at 0x7f1571193760 -->
<g id="edge1" class="edge">
<title>ast.Module object at 0x7f1571192a10&#45;&gt;ast.FunctionDef object at 0x7f1571193760</title>
<path fill="none" stroke="black" d="M439,-719.7C439,-711.98 439,-702.71 439,-694.11"/>
<polygon fill="black" stroke="black" points="442.5,-694.1 439,-684.1 435.5,-694.1 442.5,-694.1"/>
</g>
<!-- ast.arguments object at 0x7f1571193460 -->
<g id="node3" class="node">
<title>ast.arguments object at 0x7f1571193460</title>
<path fill="#66cdaa" stroke="black" d="M423,-612C423,-612 373,-612 373,-612 367,-612 361,-606 361,-600 361,-600 361,-588 361,-588 361,-582 367,-576 373,-576 373,-576 423,-576 423,-576 429,-576 435,-582 435,-588 435,-588 435,-600 435,-600 435,-606 429,-612 423,-612"/>
<text text-anchor="middle" x="398" y="-590.3" font-family="Times,serif" font-size="14.00">arguments</text>
</g>
<!-- ast.FunctionDef object at 0x7f1571193760&#45;&gt;ast.arguments object at 0x7f1571193460 -->
<g id="edge2" class="edge">
<title>ast.FunctionDef object at 0x7f1571193760&#45;&gt;ast.arguments object at 0x7f1571193460</title>
<path fill="none" stroke="black" d="M428.87,-647.7C424.15,-639.64 418.44,-629.89 413.22,-620.98"/>
<polygon fill="black" stroke="black" points="416.09,-618.96 408.02,-612.1 410.05,-622.5 416.09,-618.96"/>
</g>
<!-- ast.Return object at 0x7f1571193340 -->
<g id="node5" class="node">
<title>ast.Return object at 0x7f1571193340</title>
<path fill="#66cdaa" stroke="black" d="M495,-612C495,-612 465,-612 465,-612 459,-612 453,-606 453,-600 453,-600 453,-588 453,-588 453,-582 459,-576 465,-576 465,-576 495,-576 495,-576 501,-576 507,-582 507,-588 507,-588 507,-600 507,-600 507,-606 501,-612 495,-612"/>
<text text-anchor="middle" x="480" y="-590.3" font-family="Times,serif" font-size="14.00">Return</text>
</g>
<!-- ast.FunctionDef object at 0x7f1571193760&#45;&gt;ast.Return object at 0x7f1571193340 -->
<g id="edge4" class="edge">
<title>ast.FunctionDef object at 0x7f1571193760&#45;&gt;ast.Return object at 0x7f1571193340</title>
<path fill="none" stroke="black" d="M449.13,-647.7C453.85,-639.64 459.56,-629.89 464.78,-620.98"/>
<polygon fill="black" stroke="black" points="467.95,-622.5 469.98,-612.1 461.91,-618.96 467.95,-622.5"/>
</g>
<!-- ast.arg object at 0x7f1571193d60 -->
<g id="node4" class="node">
<title>ast.arg object at 0x7f1571193d60</title>
<path fill="#66cdaa" stroke="black" d="M413,-540C413,-540 383,-540 383,-540 377,-540 371,-534 371,-528 371,-528 371,-516 371,-516 371,-510 377,-504 383,-504 383,-504 413,-504 413,-504 419,-504 425,-510 425,-516 425,-516 425,-528 425,-528 425,-534 419,-540 413,-540"/>
<text text-anchor="middle" x="398" y="-518.3" font-family="Times,serif" font-size="14.00">arg</text>
</g>
<!-- ast.arguments object at 0x7f1571193460&#45;&gt;ast.arg object at 0x7f1571193d60 -->
<g id="edge3" class="edge">
<title>ast.arguments object at 0x7f1571193460&#45;&gt;ast.arg object at 0x7f1571193d60</title>
<path fill="none" stroke="black" d="M398,-575.7C398,-567.98 398,-558.71 398,-550.11"/>
<polygon fill="black" stroke="black" points="401.5,-550.1 398,-540.1 394.5,-550.1 401.5,-550.1"/>
</g>
<!-- ast.Subscript object at 0x7f1571193b80 -->
<g id="node6" class="node">
<title>ast.Subscript object at 0x7f1571193b80</title>
<path fill="#66cdaa" stroke="black" d="M502,-540C502,-540 458,-540 458,-540 452,-540 446,-534 446,-528 446,-528 446,-516 446,-516 446,-510 452,-504 458,-504 458,-504 502,-504 502,-504 508,-504 514,-510 514,-516 514,-516 514,-528 514,-528 514,-534 508,-540 502,-540"/>
<text text-anchor="middle" x="480" y="-518.3" font-family="Times,serif" font-size="14.00">Subscript</text>
</g>
<!-- ast.Return object at 0x7f1571193340&#45;&gt;ast.Subscript object at 0x7f1571193b80 -->
<g id="edge5" class="edge">
<title>ast.Return object at 0x7f1571193340&#45;&gt;ast.Subscript object at 0x7f1571193b80</title>
<path fill="none" stroke="black" d="M480,-575.7C480,-567.98 480,-558.71 480,-550.11"/>
<polygon fill="black" stroke="black" points="483.5,-550.1 480,-540.1 476.5,-550.1 483.5,-550.1"/>
</g>
<!-- ast.Call object at 0x7f1571193100 -->
<g id="node7" class="node">
<title>ast.Call object at 0x7f1571193100</title>
<path fill="#66cdaa" stroke="black" d="M242,-468C242,-468 212,-468 212,-468 206,-468 200,-462 200,-456 200,-456 200,-444 200,-444 200,-438 206,-432 212,-432 212,-432 242,-432 242,-432 248,-432 254,-438 254,-444 254,-444 254,-456 254,-456 254,-462 248,-468 242,-468"/>
<text text-anchor="middle" x="227" y="-446.3" font-family="Times,serif" font-size="14.00">Call</text>
</g>
<!-- ast.Subscript object at 0x7f1571193b80&#45;&gt;ast.Call object at 0x7f1571193100 -->
<g id="edge6" class="edge">
<title>ast.Subscript object at 0x7f1571193b80&#45;&gt;ast.Call object at 0x7f1571193100</title>
<path fill="none" stroke="black" d="M445.97,-507.98C441.96,-506.57 437.9,-505.22 434,-504 375.23,-485.67 305.68,-468.84 264.01,-459.26"/>
<polygon fill="black" stroke="black" points="264.57,-455.8 254.04,-456.98 263.02,-462.62 264.57,-455.8"/>
</g>
<!-- ast.Load object at 0x7f15b98f1f60 -->
<g id="node9" class="node">
<title>ast.Load object at 0x7f15b98f1f60</title>
<path fill="#66cdaa" stroke="black" d="M224,-36C224,-36 194,-36 194,-36 188,-36 182,-30 182,-24 182,-24 182,-12 182,-12 182,-6 188,0 194,0 194,0 224,0 224,0 230,0 236,-6 236,-12 236,-12 236,-24 236,-24 236,-30 230,-36 224,-36"/>
<text text-anchor="middle" x="209" y="-14.3" font-family="Times,serif" font-size="14.00">Load</text>
</g>
<!-- ast.Subscript object at 0x7f1571193b80&#45;&gt;ast.Load object at 0x7f15b98f1f60 -->
<g id="edge30" class="edge">
<title>ast.Subscript object at 0x7f1571193b80&#45;&gt;ast.Load object at 0x7f15b98f1f60</title>
<path fill="none" stroke="black" d="M480,-503.95C480,-477.29 480,-424.11 480,-379 480,-379 480,-379 480,-161 480,-120.55 489.64,-100.56 461,-72 431.22,-42.31 309.13,-27.64 246.48,-21.94"/>
<polygon fill="black" stroke="black" points="246.5,-18.43 236.23,-21.04 245.89,-25.4 246.5,-18.43"/>
</g>
<!-- ast.Slice object at 0x7f1592a4afe0 -->
<g id="node24" class="node">
<title>ast.Slice object at 0x7f1592a4afe0</title>
<path fill="#66cdaa" stroke="black" d="M553,-468C553,-468 523,-468 523,-468 517,-468 511,-462 511,-456 511,-456 511,-444 511,-444 511,-438 517,-432 523,-432 523,-432 553,-432 553,-432 559,-432 565,-438 565,-444 565,-444 565,-456 565,-456 565,-462 559,-468 553,-468"/>
<text text-anchor="middle" x="538" y="-446.3" font-family="Times,serif" font-size="14.00">Slice</text>
</g>
<!-- ast.Subscript object at 0x7f1571193b80&#45;&gt;ast.Slice object at 0x7f1592a4afe0 -->
<g id="edge28" class="edge">
<title>ast.Subscript object at 0x7f1571193b80&#45;&gt;ast.Slice object at 0x7f1592a4afe0</title>
<path fill="none" stroke="black" d="M494.34,-503.7C501.29,-495.3 509.77,-485.07 517.4,-475.86"/>
<polygon fill="black" stroke="black" points="520.14,-478.04 523.83,-468.1 514.75,-473.57 520.14,-478.04"/>
</g>
<!-- ast.Name object at 0x7f1571193ca0 -->
<g id="node8" class="node">
<title>ast.Name object at 0x7f1571193ca0</title>
<path fill="#66cdaa" stroke="black" d="M42,-252C42,-252 12,-252 12,-252 6,-252 0,-246 0,-240 0,-240 0,-228 0,-228 0,-222 6,-216 12,-216 12,-216 42,-216 42,-216 48,-216 54,-222 54,-228 54,-228 54,-240 54,-240 54,-246 48,-252 42,-252"/>
<text text-anchor="middle" x="27" y="-230.3" font-family="Times,serif" font-size="14.00">Name</text>
</g>
<!-- ast.Call object at 0x7f1571193100&#45;&gt;ast.Name object at 0x7f1571193ca0 -->
<g id="edge7" class="edge">
<title>ast.Call object at 0x7f1571193100&#45;&gt;ast.Name object at 0x7f1571193ca0</title>
<path fill="none" stroke="black" d="M206.38,-431.85C179.09,-408.69 130.09,-365.52 93,-324 74.94,-303.78 56.76,-278.85 44.07,-260.52"/>
<polygon fill="black" stroke="black" points="46.84,-258.38 38.3,-252.11 41.07,-262.33 46.84,-258.38"/>
</g>
<!-- ast.Call object at 0x7f1571190fa0 -->
<g id="node10" class="node">
<title>ast.Call object at 0x7f1571190fa0</title>
<path fill="#66cdaa" stroke="black" d="M242,-396C242,-396 212,-396 212,-396 206,-396 200,-390 200,-384 200,-384 200,-372 200,-372 200,-366 206,-360 212,-360 212,-360 242,-360 242,-360 248,-360 254,-366 254,-372 254,-372 254,-384 254,-384 254,-390 248,-396 242,-396"/>
<text text-anchor="middle" x="227" y="-374.3" font-family="Times,serif" font-size="14.00">Call</text>
</g>
<!-- ast.Call object at 0x7f1571193100&#45;&gt;ast.Call object at 0x7f1571190fa0 -->
<g id="edge9" class="edge">
<title>ast.Call object at 0x7f1571193100&#45;&gt;ast.Call object at 0x7f1571190fa0</title>
<path fill="none" stroke="black" d="M227,-431.7C227,-423.98 227,-414.71 227,-406.11"/>
<polygon fill="black" stroke="black" points="230.5,-406.1 227,-396.1 223.5,-406.1 230.5,-406.1"/>
</g>
<!-- ast.Name object at 0x7f1571193ca0&#45;&gt;ast.Load object at 0x7f15b98f1f60 -->
<g id="edge8" class="edge">
<title>ast.Name object at 0x7f1571193ca0&#45;&gt;ast.Load object at 0x7f15b98f1f60</title>
<path fill="none" stroke="black" d="M26.48,-215.58C26.47,-183.19 31.06,-113.26 68,-72 94.76,-42.11 140.08,-29.01 172.1,-23.31"/>
<polygon fill="black" stroke="black" points="172.68,-26.77 181.99,-21.71 171.56,-19.86 172.68,-26.77"/>
</g>
<!-- ast.Name object at 0x7f1571193d90 -->
<g id="node11" class="node">
<title>ast.Name object at 0x7f1571193d90</title>
<path fill="#66cdaa" stroke="black" d="M144,-324C144,-324 114,-324 114,-324 108,-324 102,-318 102,-312 102,-312 102,-300 102,-300 102,-294 108,-288 114,-288 114,-288 144,-288 144,-288 150,-288 156,-294 156,-300 156,-300 156,-312 156,-312 156,-318 150,-324 144,-324"/>
<text text-anchor="middle" x="129" y="-302.3" font-family="Times,serif" font-size="14.00">Name</text>
</g>
<!-- ast.Call object at 0x7f1571190fa0&#45;&gt;ast.Name object at 0x7f1571193d90 -->
<g id="edge10" class="edge">
<title>ast.Call object at 0x7f1571190fa0&#45;&gt;ast.Name object at 0x7f1571193d90</title>
<path fill="none" stroke="black" d="M203.03,-359.88C190.45,-350.89 174.87,-339.76 161.25,-330.03"/>
<polygon fill="black" stroke="black" points="163.24,-327.15 153.07,-324.19 159.17,-332.85 163.24,-327.15"/>
</g>
<!-- ast.Call object at 0x7f1571192230 -->
<g id="node12" class="node">
<title>ast.Call object at 0x7f1571192230</title>
<path fill="#66cdaa" stroke="black" d="M209,-180C209,-180 179,-180 179,-180 173,-180 167,-174 167,-168 167,-168 167,-156 167,-156 167,-150 173,-144 179,-144 179,-144 209,-144 209,-144 215,-144 221,-150 221,-156 221,-156 221,-168 221,-168 221,-174 215,-180 209,-180"/>
<text text-anchor="middle" x="194" y="-158.3" font-family="Times,serif" font-size="14.00">Call</text>
</g>
<!-- ast.Call object at 0x7f1571190fa0&#45;&gt;ast.Call object at 0x7f1571192230 -->
<g id="edge12" class="edge">
<title>ast.Call object at 0x7f1571190fa0&#45;&gt;ast.Call object at 0x7f1571192230</title>
<path fill="none" stroke="black" d="M224.36,-359.85C218.65,-322.83 205.13,-235.18 198.22,-190.39"/>
<polygon fill="black" stroke="black" points="201.64,-189.58 196.66,-180.23 194.72,-190.65 201.64,-189.58"/>
</g>
<!-- ast.keyword object at 0x7f1571193a60 -->
<g id="node15" class="node">
<title>ast.keyword object at 0x7f1571193a60</title>
<path fill="#66cdaa" stroke="black" d="M282,-324C282,-324 242,-324 242,-324 236,-324 230,-318 230,-312 230,-312 230,-300 230,-300 230,-294 236,-288 242,-288 242,-288 282,-288 282,-288 288,-288 294,-294 294,-300 294,-300 294,-312 294,-312 294,-318 288,-324 282,-324"/>
<text text-anchor="middle" x="262" y="-302.3" font-family="Times,serif" font-size="14.00">keyword</text>
</g>
<!-- ast.Call object at 0x7f1571190fa0&#45;&gt;ast.keyword object at 0x7f1571193a60 -->
<g id="edge17" class="edge">
<title>ast.Call object at 0x7f1571190fa0&#45;&gt;ast.keyword object at 0x7f1571193a60</title>
<path fill="none" stroke="black" d="M235.65,-359.7C239.64,-351.73 244.45,-342.1 248.87,-333.26"/>
<polygon fill="black" stroke="black" points="252.11,-334.61 253.45,-324.1 245.85,-331.48 252.11,-334.61"/>
</g>
<!-- ast.keyword object at 0x7f1592a4a380 -->
<g id="node22" class="node">
<title>ast.keyword object at 0x7f1592a4a380</title>
<path fill="#66cdaa" stroke="black" d="M366,-324C366,-324 326,-324 326,-324 320,-324 314,-318 314,-312 314,-312 314,-300 314,-300 314,-294 320,-288 326,-288 326,-288 366,-288 366,-288 372,-288 378,-294 378,-300 378,-300 378,-312 378,-312 378,-318 372,-324 366,-324"/>
<text text-anchor="middle" x="346" y="-302.3" font-family="Times,serif" font-size="14.00">keyword</text>
</g>
<!-- ast.Call object at 0x7f1571190fa0&#45;&gt;ast.keyword object at 0x7f1592a4a380 -->
<g id="edge26" class="edge">
<title>ast.Call object at 0x7f1571190fa0&#45;&gt;ast.keyword object at 0x7f1592a4a380</title>
<path fill="none" stroke="black" d="M254,-361.12C270,-351.7 290.53,-339.63 308.13,-329.28"/>
<polygon fill="black" stroke="black" points="310.18,-332.13 317.02,-324.04 306.63,-326.1 310.18,-332.13"/>
</g>
<!-- ast.Name object at 0x7f1571193d90&#45;&gt;ast.Load object at 0x7f15b98f1f60 -->
<g id="edge11" class="edge">
<title>ast.Name object at 0x7f1571193d90&#45;&gt;ast.Load object at 0x7f15b98f1f60</title>
<path fill="none" stroke="black" d="M120.13,-287.9C100.28,-247.06 57.36,-142.02 101,-72 116.44,-47.23 147.2,-33.71 171.96,-26.54"/>
<polygon fill="black" stroke="black" points="173.03,-29.87 181.8,-23.92 171.23,-23.11 173.03,-29.87"/>
</g>
<!-- ast.Name object at 0x7f15711926b0 -->
<g id="node13" class="node">
<title>ast.Name object at 0x7f15711926b0</title>
<path fill="#66cdaa" stroke="black" d="M152,-108C152,-108 122,-108 122,-108 116,-108 110,-102 110,-96 110,-96 110,-84 110,-84 110,-78 116,-72 122,-72 122,-72 152,-72 152,-72 158,-72 164,-78 164,-84 164,-84 164,-96 164,-96 164,-102 158,-108 152,-108"/>
<text text-anchor="middle" x="137" y="-86.3" font-family="Times,serif" font-size="14.00">Name</text>
</g>
<!-- ast.Call object at 0x7f1571192230&#45;&gt;ast.Name object at 0x7f15711926b0 -->
<g id="edge13" class="edge">
<title>ast.Call object at 0x7f1571192230&#45;&gt;ast.Name object at 0x7f15711926b0</title>
<path fill="none" stroke="black" d="M179.91,-143.7C173.08,-135.3 164.74,-125.07 157.24,-115.86"/>
<polygon fill="black" stroke="black" points="159.96,-113.65 150.93,-108.1 154.53,-118.07 159.96,-113.65"/>
</g>
<!-- ast.Name object at 0x7f1571192440 -->
<g id="node14" class="node">
<title>ast.Name object at 0x7f1571192440</title>
<path fill="#66cdaa" stroke="black" d="M224,-108C224,-108 194,-108 194,-108 188,-108 182,-102 182,-96 182,-96 182,-84 182,-84 182,-78 188,-72 194,-72 194,-72 224,-72 224,-72 230,-72 236,-78 236,-84 236,-84 236,-96 236,-96 236,-102 230,-108 224,-108"/>
<text text-anchor="middle" x="209" y="-86.3" font-family="Times,serif" font-size="14.00">Name</text>
</g>
<!-- ast.Call object at 0x7f1571192230&#45;&gt;ast.Name object at 0x7f1571192440 -->
<g id="edge15" class="edge">
<title>ast.Call object at 0x7f1571192230&#45;&gt;ast.Name object at 0x7f1571192440</title>
<path fill="none" stroke="black" d="M197.71,-143.7C199.36,-135.98 201.35,-126.71 203.19,-118.11"/>
<polygon fill="black" stroke="black" points="206.66,-118.62 205.33,-108.1 199.82,-117.15 206.66,-118.62"/>
</g>
<!-- ast.Name object at 0x7f15711926b0&#45;&gt;ast.Load object at 0x7f15b98f1f60 -->
<g id="edge14" class="edge">
<title>ast.Name object at 0x7f15711926b0&#45;&gt;ast.Load object at 0x7f15b98f1f60</title>
<path fill="none" stroke="black" d="M154.8,-71.7C163.6,-63.14 174.38,-52.66 184,-43.3"/>
<polygon fill="black" stroke="black" points="186.68,-45.58 191.41,-36.1 181.8,-40.57 186.68,-45.58"/>
</g>
<!-- ast.Name object at 0x7f1571192440&#45;&gt;ast.Load object at 0x7f15b98f1f60 -->
<g id="edge16" class="edge">
<title>ast.Name object at 0x7f1571192440&#45;&gt;ast.Load object at 0x7f15b98f1f60</title>
<path fill="none" stroke="black" d="M209,-71.7C209,-63.98 209,-54.71 209,-46.11"/>
<polygon fill="black" stroke="black" points="212.5,-46.1 209,-36.1 205.5,-46.1 212.5,-46.1"/>
</g>
<!-- ast.Lambda object at 0x7f15711925f0 -->
<g id="node16" class="node">
<title>ast.Lambda object at 0x7f15711925f0</title>
<path fill="#66cdaa" stroke="black" d="M284,-252C284,-252 246,-252 246,-252 240,-252 234,-246 234,-240 234,-240 234,-228 234,-228 234,-222 240,-216 246,-216 246,-216 284,-216 284,-216 290,-216 296,-222 296,-228 296,-228 296,-240 296,-240 296,-246 290,-252 284,-252"/>
<text text-anchor="middle" x="265" y="-230.3" font-family="Times,serif" font-size="14.00">Lambda</text>
</g>
<!-- ast.keyword object at 0x7f1571193a60&#45;&gt;ast.Lambda object at 0x7f15711925f0 -->
<g id="edge18" class="edge">
<title>ast.keyword object at 0x7f1571193a60&#45;&gt;ast.Lambda object at 0x7f15711925f0</title>
<path fill="none" stroke="black" d="M262.74,-287.7C263.07,-279.98 263.47,-270.71 263.84,-262.11"/>
<polygon fill="black" stroke="black" points="267.34,-262.25 264.27,-252.1 260.34,-261.95 267.34,-262.25"/>
</g>
<!-- ast.arguments object at 0x7f1571190bb0 -->
<g id="node17" class="node">
<title>ast.arguments object at 0x7f1571190bb0</title>
<path fill="#66cdaa" stroke="black" d="M301,-180C301,-180 251,-180 251,-180 245,-180 239,-174 239,-168 239,-168 239,-156 239,-156 239,-150 245,-144 251,-144 251,-144 301,-144 301,-144 307,-144 313,-150 313,-156 313,-156 313,-168 313,-168 313,-174 307,-180 301,-180"/>
<text text-anchor="middle" x="276" y="-158.3" font-family="Times,serif" font-size="14.00">arguments</text>
</g>
<!-- ast.Lambda object at 0x7f15711925f0&#45;&gt;ast.arguments object at 0x7f1571190bb0 -->
<g id="edge19" class="edge">
<title>ast.Lambda object at 0x7f15711925f0&#45;&gt;ast.arguments object at 0x7f1571190bb0</title>
<path fill="none" stroke="black" d="M267.72,-215.7C268.93,-207.98 270.39,-198.71 271.74,-190.11"/>
<polygon fill="black" stroke="black" points="275.22,-190.53 273.31,-180.1 268.3,-189.44 275.22,-190.53"/>
</g>
<!-- ast.Call object at 0x7f1571191ba0 -->
<g id="node19" class="node">
<title>ast.Call object at 0x7f1571191ba0</title>
<path fill="#66cdaa" stroke="black" d="M373,-180C373,-180 343,-180 343,-180 337,-180 331,-174 331,-168 331,-168 331,-156 331,-156 331,-150 337,-144 343,-144 343,-144 373,-144 373,-144 379,-144 385,-150 385,-156 385,-156 385,-168 385,-168 385,-174 379,-180 373,-180"/>
<text text-anchor="middle" x="358" y="-158.3" font-family="Times,serif" font-size="14.00">Call</text>
</g>
<!-- ast.Lambda object at 0x7f15711925f0&#45;&gt;ast.Call object at 0x7f1571191ba0 -->
<g id="edge21" class="edge">
<title>ast.Lambda object at 0x7f15711925f0&#45;&gt;ast.Call object at 0x7f1571191ba0</title>
<path fill="none" stroke="black" d="M287.99,-215.7C299.81,-206.8 314.39,-195.82 327.18,-186.2"/>
<polygon fill="black" stroke="black" points="329.39,-188.91 335.28,-180.1 325.18,-183.32 329.39,-188.91"/>
</g>
<!-- ast.arg object at 0x7f1571191c90 -->
<g id="node18" class="node">
<title>ast.arg object at 0x7f1571191c90</title>
<path fill="#66cdaa" stroke="black" d="M296,-108C296,-108 266,-108 266,-108 260,-108 254,-102 254,-96 254,-96 254,-84 254,-84 254,-78 260,-72 266,-72 266,-72 296,-72 296,-72 302,-72 308,-78 308,-84 308,-84 308,-96 308,-96 308,-102 302,-108 296,-108"/>
<text text-anchor="middle" x="281" y="-86.3" font-family="Times,serif" font-size="14.00">arg</text>
</g>
<!-- ast.arguments object at 0x7f1571190bb0&#45;&gt;ast.arg object at 0x7f1571191c90 -->
<g id="edge20" class="edge">
<title>ast.arguments object at 0x7f1571190bb0&#45;&gt;ast.arg object at 0x7f1571191c90</title>
<path fill="none" stroke="black" d="M277.24,-143.7C277.79,-135.98 278.45,-126.71 279.06,-118.11"/>
<polygon fill="black" stroke="black" points="282.56,-118.33 279.78,-108.1 275.57,-117.83 282.56,-118.33"/>
</g>
<!-- ast.Name object at 0x7f1571192e00 -->
<g id="node20" class="node">
<title>ast.Name object at 0x7f1571192e00</title>
<path fill="#66cdaa" stroke="black" d="M368,-108C368,-108 338,-108 338,-108 332,-108 326,-102 326,-96 326,-96 326,-84 326,-84 326,-78 332,-72 338,-72 338,-72 368,-72 368,-72 374,-72 380,-78 380,-84 380,-84 380,-96 380,-96 380,-102 374,-108 368,-108"/>
<text text-anchor="middle" x="353" y="-86.3" font-family="Times,serif" font-size="14.00">Name</text>
</g>
<!-- ast.Call object at 0x7f1571191ba0&#45;&gt;ast.Name object at 0x7f1571192e00 -->
<g id="edge22" class="edge">
<title>ast.Call object at 0x7f1571191ba0&#45;&gt;ast.Name object at 0x7f1571192e00</title>
<path fill="none" stroke="black" d="M356.76,-143.7C356.21,-135.98 355.55,-126.71 354.94,-118.11"/>
<polygon fill="black" stroke="black" points="358.43,-117.83 354.22,-108.1 351.44,-118.33 358.43,-117.83"/>
</g>
<!-- ast.Name object at 0x7f15711918d0 -->
<g id="node21" class="node">
<title>ast.Name object at 0x7f15711918d0</title>
<path fill="#66cdaa" stroke="black" d="M440,-108C440,-108 410,-108 410,-108 404,-108 398,-102 398,-96 398,-96 398,-84 398,-84 398,-78 404,-72 410,-72 410,-72 440,-72 440,-72 446,-72 452,-78 452,-84 452,-84 452,-96 452,-96 452,-102 446,-108 440,-108"/>
<text text-anchor="middle" x="425" y="-86.3" font-family="Times,serif" font-size="14.00">Name</text>
</g>
<!-- ast.Call object at 0x7f1571191ba0&#45;&gt;ast.Name object at 0x7f15711918d0 -->
<g id="edge24" class="edge">
<title>ast.Call object at 0x7f1571191ba0&#45;&gt;ast.Name object at 0x7f15711918d0</title>
<path fill="none" stroke="black" d="M374.56,-143.7C382.68,-135.22 392.59,-124.86 401.47,-115.58"/>
<polygon fill="black" stroke="black" points="404.24,-117.75 408.63,-108.1 399.19,-112.91 404.24,-117.75"/>
</g>
<!-- ast.Name object at 0x7f1571192e00&#45;&gt;ast.Load object at 0x7f15b98f1f60 -->
<g id="edge23" class="edge">
<title>ast.Name object at 0x7f1571192e00&#45;&gt;ast.Load object at 0x7f15b98f1f60</title>
<path fill="none" stroke="black" d="M325.91,-75.83C303.23,-64.81 270.64,-48.97 245.63,-36.81"/>
<polygon fill="black" stroke="black" points="246.98,-33.57 236.45,-32.35 243.92,-39.87 246.98,-33.57"/>
</g>
<!-- ast.Name object at 0x7f15711918d0&#45;&gt;ast.Load object at 0x7f15b98f1f60 -->
<g id="edge25" class="edge">
<title>ast.Name object at 0x7f15711918d0&#45;&gt;ast.Load object at 0x7f15b98f1f60</title>
<path fill="none" stroke="black" d="M397.67,-75.56C394.77,-74.29 391.84,-73.08 389,-72 340.58,-53.57 282.85,-37.58 246.06,-28.12"/>
<polygon fill="black" stroke="black" points="246.82,-24.7 236.27,-25.62 245.1,-31.48 246.82,-24.7"/>
</g>
<!-- ast.Constant object at 0x7f1592a49b40 -->
<g id="node23" class="node">
<title>ast.Constant object at 0x7f1592a49b40</title>
<path fill="#66cdaa" stroke="black" d="M367.5,-252C367.5,-252 326.5,-252 326.5,-252 320.5,-252 314.5,-246 314.5,-240 314.5,-240 314.5,-228 314.5,-228 314.5,-222 320.5,-216 326.5,-216 326.5,-216 367.5,-216 367.5,-216 373.5,-216 379.5,-222 379.5,-228 379.5,-228 379.5,-240 379.5,-240 379.5,-246 373.5,-252 367.5,-252"/>
<text text-anchor="middle" x="347" y="-230.3" font-family="Times,serif" font-size="14.00">Constant</text>
</g>
<!-- ast.keyword object at 0x7f1592a4a380&#45;&gt;ast.Constant object at 0x7f1592a49b40 -->
<g id="edge27" class="edge">
<title>ast.keyword object at 0x7f1592a4a380&#45;&gt;ast.Constant object at 0x7f1592a49b40</title>
<path fill="none" stroke="black" d="M346.25,-287.7C346.36,-279.98 346.49,-270.71 346.61,-262.11"/>
<polygon fill="black" stroke="black" points="350.11,-262.15 346.76,-252.1 343.11,-262.05 350.11,-262.15"/>
</g>
<!-- ast.Constant object at 0x7f1592a4b010 -->
<g id="node25" class="node">
<title>ast.Constant object at 0x7f1592a4b010</title>
<path fill="#66cdaa" stroke="black" d="M561.5,-396C561.5,-396 520.5,-396 520.5,-396 514.5,-396 508.5,-390 508.5,-384 508.5,-384 508.5,-372 508.5,-372 508.5,-366 514.5,-360 520.5,-360 520.5,-360 561.5,-360 561.5,-360 567.5,-360 573.5,-366 573.5,-372 573.5,-372 573.5,-384 573.5,-384 573.5,-390 567.5,-396 561.5,-396"/>
<text text-anchor="middle" x="541" y="-374.3" font-family="Times,serif" font-size="14.00">Constant</text>
</g>
<!-- ast.Slice object at 0x7f1592a4afe0&#45;&gt;ast.Constant object at 0x7f1592a4b010 -->
<g id="edge29" class="edge">
<title>ast.Slice object at 0x7f1592a4afe0&#45;&gt;ast.Constant object at 0x7f1592a4b010</title>
<path fill="none" stroke="black" d="M538.74,-431.7C539.07,-423.98 539.47,-414.71 539.84,-406.11"/>
<polygon fill="black" stroke="black" points="543.34,-406.25 540.27,-396.1 536.34,-405.95 543.34,-406.25"/>
</g>
</g>
</svg>
