<?xml version="1.0" encoding="UTF-8" standalone="no"?>
<!DOCTYPE svg PUBLIC "-//W3C//DTD SVG 1.1//EN"
 "http://www.w3.org/Graphics/SVG/1.1/DTD/svg11.dtd">
<!-- Generated by graphviz version 2.43.0 (0)
 -->
<!-- Title: %3 Pages: 1 -->
<svg width="1335pt" height="692pt"
 viewBox="0.00 0.00 1335.03 692.00" xmlns="http://www.w3.org/2000/svg" xmlns:xlink="http://www.w3.org/1999/xlink">
<g id="graph0" class="graph" transform="scale(1 1) rotate(0) translate(4 688)">
<title>%3</title>
<polygon fill="white" stroke="transparent" points="-4,4 -4,-688 1331.03,-688 1331.03,4 -4,4"/>
<!-- ast.Module object at 0x7fe39fbc8e20 -->
<g id="node1" class="node">
<title>ast.Module object at 0x7fe39fbc8e20</title>
<path fill="#66cdaa" stroke="black" d="M515.42,-684C515.42,-684 480.42,-684 480.42,-684 474.42,-684 468.42,-678 468.42,-672 468.42,-672 468.42,-660 468.42,-660 468.42,-654 474.42,-648 480.42,-648 480.42,-648 515.42,-648 515.42,-648 521.42,-648 527.42,-654 527.42,-660 527.42,-660 527.42,-672 527.42,-672 527.42,-678 521.42,-684 515.42,-684"/>
<text text-anchor="middle" x="497.92" y="-662.3" font-family="Times,serif" font-size="14.00">Module</text>
</g>
<!-- ast.FunctionDef object at 0x7fe39fbcba00 -->
<g id="node2" class="node">
<title>ast.FunctionDef object at 0x7fe39fbcba00</title>
<path fill="#66cdaa" stroke="black" d="M528.42,-612C528.42,-612 467.42,-612 467.42,-612 461.42,-612 455.42,-606 455.42,-600 455.42,-600 455.42,-588 455.42,-588 455.42,-582 461.42,-576 467.42,-576 467.42,-576 528.42,-576 528.42,-576 534.42,-576 540.42,-582 540.42,-588 540.42,-588 540.42,-600 540.42,-600 540.42,-606 534.42,-612 528.42,-612"/>
<text text-anchor="middle" x="497.92" y="-590.3" font-family="Times,serif" font-size="14.00">FunctionDef</text>
</g>
<!-- ast.Module object at 0x7fe39fbc8e20&#45;&gt;ast.FunctionDef object at 0x7fe39fbcba00 -->
<g id="edge1" class="edge">
<title>ast.Module object at 0x7fe39fbc8e20&#45;&gt;ast.FunctionDef object at 0x7fe39fbcba00</title>
<path fill="none" stroke="black" d="M497.92,-647.7C497.92,-639.98 497.92,-630.71 497.92,-622.11"/>
<polygon fill="black" stroke="black" points="501.42,-622.1 497.92,-612.1 494.42,-622.1 501.42,-622.1"/>
</g>
<!-- ast.arguments object at 0x7fe39fbc8160 -->
<g id="node3" class="node">
<title>ast.arguments object at 0x7fe39fbc8160</title>
<path fill="#66cdaa" stroke="black" d="M142.92,-540C142.92,-540 92.92,-540 92.92,-540 86.92,-540 80.92,-534 80.92,-528 80.92,-528 80.92,-516 80.92,-516 80.92,-510 86.92,-504 92.92,-504 92.92,-504 142.92,-504 142.92,-504 148.92,-504 154.92,-510 154.92,-516 154.92,-516 154.92,-528 154.92,-528 154.92,-534 148.92,-540 142.92,-540"/>
<text text-anchor="middle" x="117.92" y="-518.3" font-family="Times,serif" font-size="14.00">arguments</text>
</g>
<!-- ast.FunctionDef object at 0x7fe39fbcba00&#45;&gt;ast.arguments object at 0x7fe39fbc8160 -->
<g id="edge2" class="edge">
<title>ast.FunctionDef object at 0x7fe39fbcba00&#45;&gt;ast.arguments object at 0x7fe39fbc8160</title>
<path fill="none" stroke="black" d="M455.16,-586.13C396.38,-576.55 287.39,-558.28 194.92,-540 185.26,-538.09 174.94,-535.91 165.1,-533.76"/>
<polygon fill="black" stroke="black" points="165.58,-530.28 155.06,-531.55 164.07,-537.12 165.58,-530.28"/>
</g>
<!-- ast.Assign object at 0x7fe39fbc9150 -->
<g id="node5" class="node">
<title>ast.Assign object at 0x7fe39fbc9150</title>
<path fill="#66cdaa" stroke="black" d="M245.92,-540C245.92,-540 215.92,-540 215.92,-540 209.92,-540 203.92,-534 203.92,-528 203.92,-528 203.92,-516 203.92,-516 203.92,-510 209.92,-504 215.92,-504 215.92,-504 245.92,-504 245.92,-504 251.92,-504 257.92,-510 257.92,-516 257.92,-516 257.92,-528 257.92,-528 257.92,-534 251.92,-540 245.92,-540"/>
<text text-anchor="middle" x="230.92" y="-518.3" font-family="Times,serif" font-size="14.00">Assign</text>
</g>
<!-- ast.FunctionDef object at 0x7fe39fbcba00&#45;&gt;ast.Assign object at 0x7fe39fbc9150 -->
<g id="edge4" class="edge">
<title>ast.FunctionDef object at 0x7fe39fbcba00&#45;&gt;ast.Assign object at 0x7fe39fbc9150</title>
<path fill="none" stroke="black" d="M455.32,-581.83C403.64,-568.28 317.35,-545.66 268.19,-532.77"/>
<polygon fill="black" stroke="black" points="268.85,-529.33 258.29,-530.18 267.08,-536.1 268.85,-529.33"/>
</g>
<!-- ast.Assign object at 0x7fe39fbcb220 -->
<g id="node15" class="node">
<title>ast.Assign object at 0x7fe39fbcb220</title>
<path fill="#66cdaa" stroke="black" d="M395.92,-540C395.92,-540 365.92,-540 365.92,-540 359.92,-540 353.92,-534 353.92,-528 353.92,-528 353.92,-516 353.92,-516 353.92,-510 359.92,-504 365.92,-504 365.92,-504 395.92,-504 395.92,-504 401.92,-504 407.92,-510 407.92,-516 407.92,-516 407.92,-528 407.92,-528 407.92,-534 401.92,-540 395.92,-540"/>
<text text-anchor="middle" x="380.92" y="-518.3" font-family="Times,serif" font-size="14.00">Assign</text>
</g>
<!-- ast.FunctionDef object at 0x7fe39fbcba00&#45;&gt;ast.Assign object at 0x7fe39fbcb220 -->
<g id="edge14" class="edge">
<title>ast.FunctionDef object at 0x7fe39fbcba00&#45;&gt;ast.Assign object at 0x7fe39fbcb220</title>
<path fill="none" stroke="black" d="M469.3,-575.88C453.55,-566.45 433.84,-554.66 417.04,-544.61"/>
<polygon fill="black" stroke="black" points="418.42,-541.36 408.04,-539.23 414.83,-547.36 418.42,-541.36"/>
</g>
<!-- ast.Assign object at 0x7fe39fbcb970 -->
<g id="node18" class="node">
<title>ast.Assign object at 0x7fe39fbcb970</title>
<path fill="#66cdaa" stroke="black" d="M512.92,-540C512.92,-540 482.92,-540 482.92,-540 476.92,-540 470.92,-534 470.92,-528 470.92,-528 470.92,-516 470.92,-516 470.92,-510 476.92,-504 482.92,-504 482.92,-504 512.92,-504 512.92,-504 518.92,-504 524.92,-510 524.92,-516 524.92,-516 524.92,-528 524.92,-528 524.92,-534 518.92,-540 512.92,-540"/>
<text text-anchor="middle" x="497.92" y="-518.3" font-family="Times,serif" font-size="14.00">Assign</text>
</g>
<!-- ast.FunctionDef object at 0x7fe39fbcba00&#45;&gt;ast.Assign object at 0x7fe39fbcb970 -->
<g id="edge18" class="edge">
<title>ast.FunctionDef object at 0x7fe39fbcba00&#45;&gt;ast.Assign object at 0x7fe39fbcb970</title>
<path fill="none" stroke="black" d="M497.92,-575.7C497.92,-567.98 497.92,-558.71 497.92,-550.11"/>
<polygon fill="black" stroke="black" points="501.42,-550.1 497.92,-540.1 494.42,-550.1 501.42,-550.1"/>
</g>
<!-- ast.Assign object at 0x7fe39fbcb550 -->
<g id="node21" class="node">
<title>ast.Assign object at 0x7fe39fbcb550</title>
<path fill="#66cdaa" stroke="black" d="M629.92,-540C629.92,-540 599.92,-540 599.92,-540 593.92,-540 587.92,-534 587.92,-528 587.92,-528 587.92,-516 587.92,-516 587.92,-510 593.92,-504 599.92,-504 599.92,-504 629.92,-504 629.92,-504 635.92,-504 641.92,-510 641.92,-516 641.92,-516 641.92,-528 641.92,-528 641.92,-534 635.92,-540 629.92,-540"/>
<text text-anchor="middle" x="614.92" y="-518.3" font-family="Times,serif" font-size="14.00">Assign</text>
</g>
<!-- ast.FunctionDef object at 0x7fe39fbcba00&#45;&gt;ast.Assign object at 0x7fe39fbcb550 -->
<g id="edge22" class="edge">
<title>ast.FunctionDef object at 0x7fe39fbcba00&#45;&gt;ast.Assign object at 0x7fe39fbcb550</title>
<path fill="none" stroke="black" d="M526.55,-575.88C542.3,-566.45 562.01,-554.66 578.81,-544.61"/>
<polygon fill="black" stroke="black" points="581.02,-547.36 587.8,-539.23 577.43,-541.36 581.02,-547.36"/>
</g>
<!-- ast.For object at 0x7fe39fbcb6d0 -->
<g id="node24" class="node">
<title>ast.For object at 0x7fe39fbcb6d0</title>
<path fill="#66cdaa" stroke="black" d="M766.92,-540C766.92,-540 736.92,-540 736.92,-540 730.92,-540 724.92,-534 724.92,-528 724.92,-528 724.92,-516 724.92,-516 724.92,-510 730.92,-504 736.92,-504 736.92,-504 766.92,-504 766.92,-504 772.92,-504 778.92,-510 778.92,-516 778.92,-516 778.92,-528 778.92,-528 778.92,-534 772.92,-540 766.92,-540"/>
<text text-anchor="middle" x="751.92" y="-518.3" font-family="Times,serif" font-size="14.00">For</text>
</g>
<!-- ast.FunctionDef object at 0x7fe39fbcba00&#45;&gt;ast.For object at 0x7fe39fbcb6d0 -->
<g id="edge27" class="edge">
<title>ast.FunctionDef object at 0x7fe39fbcba00&#45;&gt;ast.For object at 0x7fe39fbcb6d0</title>
<path fill="none" stroke="black" d="M540.44,-581.28C589.28,-567.82 668.63,-545.95 714.99,-533.18"/>
<polygon fill="black" stroke="black" points="716.21,-536.47 724.92,-530.44 714.35,-529.73 716.21,-536.47"/>
</g>
<!-- ast.Return object at 0x7fe39fbcb370 -->
<g id="node52" class="node">
<title>ast.Return object at 0x7fe39fbcb370</title>
<path fill="#66cdaa" stroke="black" d="M1009.92,-540C1009.92,-540 979.92,-540 979.92,-540 973.92,-540 967.92,-534 967.92,-528 967.92,-528 967.92,-516 967.92,-516 967.92,-510 973.92,-504 979.92,-504 979.92,-504 1009.92,-504 1009.92,-504 1015.92,-504 1021.92,-510 1021.92,-516 1021.92,-516 1021.92,-528 1021.92,-528 1021.92,-534 1015.92,-540 1009.92,-540"/>
<text text-anchor="middle" x="994.92" y="-518.3" font-family="Times,serif" font-size="14.00">Return</text>
</g>
<!-- ast.FunctionDef object at 0x7fe39fbcba00&#45;&gt;ast.Return object at 0x7fe39fbcb370 -->
<g id="edge69" class="edge">
<title>ast.FunctionDef object at 0x7fe39fbcba00&#45;&gt;ast.Return object at 0x7fe39fbcb370</title>
<path fill="none" stroke="black" d="M540.73,-586.97C636.65,-573.46 867.46,-540.95 957.79,-528.23"/>
<polygon fill="black" stroke="black" points="958.43,-531.67 967.84,-526.81 957.45,-524.74 958.43,-531.67"/>
</g>
<!-- ast.arg object at 0x7fe39fbcbf70 -->
<g id="node4" class="node">
<title>ast.arg object at 0x7fe39fbcbf70</title>
<path fill="#66cdaa" stroke="black" d="M101.92,-468C101.92,-468 71.92,-468 71.92,-468 65.92,-468 59.92,-462 59.92,-456 59.92,-456 59.92,-444 59.92,-444 59.92,-438 65.92,-432 71.92,-432 71.92,-432 101.92,-432 101.92,-432 107.92,-432 113.92,-438 113.92,-444 113.92,-444 113.92,-456 113.92,-456 113.92,-462 107.92,-468 101.92,-468"/>
<text text-anchor="middle" x="86.92" y="-446.3" font-family="Times,serif" font-size="14.00">arg</text>
</g>
<!-- ast.arguments object at 0x7fe39fbc8160&#45;&gt;ast.arg object at 0x7fe39fbcbf70 -->
<g id="edge3" class="edge">
<title>ast.arguments object at 0x7fe39fbc8160&#45;&gt;ast.arg object at 0x7fe39fbcbf70</title>
<path fill="none" stroke="black" d="M110.26,-503.7C106.73,-495.73 102.47,-486.1 98.56,-477.26"/>
<polygon fill="black" stroke="black" points="101.75,-475.83 94.5,-468.1 95.35,-478.67 101.75,-475.83"/>
</g>
<!-- ast.Name object at 0x7fe39fbc9060 -->
<g id="node6" class="node">
<title>ast.Name object at 0x7fe39fbc9060</title>
<path fill="#66cdaa" stroke="black" d="M245.92,-468C245.92,-468 215.92,-468 215.92,-468 209.92,-468 203.92,-462 203.92,-456 203.92,-456 203.92,-444 203.92,-444 203.92,-438 209.92,-432 215.92,-432 215.92,-432 245.92,-432 245.92,-432 251.92,-432 257.92,-438 257.92,-444 257.92,-444 257.92,-456 257.92,-456 257.92,-462 251.92,-468 245.92,-468"/>
<text text-anchor="middle" x="230.92" y="-446.3" font-family="Times,serif" font-size="14.00">Name</text>
</g>
<!-- ast.Assign object at 0x7fe39fbc9150&#45;&gt;ast.Name object at 0x7fe39fbc9060 -->
<g id="edge5" class="edge">
<title>ast.Assign object at 0x7fe39fbc9150&#45;&gt;ast.Name object at 0x7fe39fbc9060</title>
<path fill="none" stroke="black" d="M230.92,-503.7C230.92,-495.98 230.92,-486.71 230.92,-478.11"/>
<polygon fill="black" stroke="black" points="234.42,-478.1 230.92,-468.1 227.42,-478.1 234.42,-478.1"/>
</g>
<!-- ast.List object at 0x7fe39fbc9780 -->
<g id="node8" class="node">
<title>ast.List object at 0x7fe39fbc9780</title>
<path fill="#66cdaa" stroke="black" d="M173.92,-468C173.92,-468 143.92,-468 143.92,-468 137.92,-468 131.92,-462 131.92,-456 131.92,-456 131.92,-444 131.92,-444 131.92,-438 137.92,-432 143.92,-432 143.92,-432 173.92,-432 173.92,-432 179.92,-432 185.92,-438 185.92,-444 185.92,-444 185.92,-456 185.92,-456 185.92,-462 179.92,-468 173.92,-468"/>
<text text-anchor="middle" x="158.92" y="-446.3" font-family="Times,serif" font-size="14.00">List</text>
</g>
<!-- ast.Assign object at 0x7fe39fbc9150&#45;&gt;ast.List object at 0x7fe39fbc9780 -->
<g id="edge7" class="edge">
<title>ast.Assign object at 0x7fe39fbc9150&#45;&gt;ast.List object at 0x7fe39fbc9780</title>
<path fill="none" stroke="black" d="M213.13,-503.7C204.32,-495.14 193.54,-484.66 183.92,-475.3"/>
<polygon fill="black" stroke="black" points="186.13,-472.57 176.52,-468.1 181.25,-477.58 186.13,-472.57"/>
</g>
<!-- ast.Store object at 0x7fe3a55ee050 -->
<g id="node7" class="node">
<title>ast.Store object at 0x7fe3a55ee050</title>
<path fill="#66cdaa" stroke="black" d="M487.92,-396C487.92,-396 457.92,-396 457.92,-396 451.92,-396 445.92,-390 445.92,-384 445.92,-384 445.92,-372 445.92,-372 445.92,-366 451.92,-360 457.92,-360 457.92,-360 487.92,-360 487.92,-360 493.92,-360 499.92,-366 499.92,-372 499.92,-372 499.92,-384 499.92,-384 499.92,-390 493.92,-396 487.92,-396"/>
<text text-anchor="middle" x="472.92" y="-374.3" font-family="Times,serif" font-size="14.00">Store</text>
</g>
<!-- ast.Name object at 0x7fe39fbc9060&#45;&gt;ast.Store object at 0x7fe3a55ee050 -->
<g id="edge6" class="edge">
<title>ast.Name object at 0x7fe39fbc9060&#45;&gt;ast.Store object at 0x7fe3a55ee050</title>
<path fill="none" stroke="black" d="M258.17,-435.33C261.09,-434.11 264.04,-432.97 266.92,-432 339.69,-407.44 363.03,-420.18 435.92,-396 436.03,-395.97 436.13,-395.93 436.23,-395.9"/>
<polygon fill="black" stroke="black" points="437.6,-399.12 445.72,-392.32 435.13,-392.57 437.6,-399.12"/>
</g>
<!-- ast.Constant object at 0x7fe39fbc8400 -->
<g id="node9" class="node">
<title>ast.Constant object at 0x7fe39fbc8400</title>
<path fill="#66cdaa" stroke="black" d="M83.42,-396C83.42,-396 42.42,-396 42.42,-396 36.42,-396 30.42,-390 30.42,-384 30.42,-384 30.42,-372 30.42,-372 30.42,-366 36.42,-360 42.42,-360 42.42,-360 83.42,-360 83.42,-360 89.42,-360 95.42,-366 95.42,-372 95.42,-372 95.42,-384 95.42,-384 95.42,-390 89.42,-396 83.42,-396"/>
<text text-anchor="middle" x="62.92" y="-374.3" font-family="Times,serif" font-size="14.00">Constant</text>
</g>
<!-- ast.List object at 0x7fe39fbc9780&#45;&gt;ast.Constant object at 0x7fe39fbc8400 -->
<g id="edge8" class="edge">
<title>ast.List object at 0x7fe39fbc9780&#45;&gt;ast.Constant object at 0x7fe39fbc8400</title>
<path fill="none" stroke="black" d="M135.19,-431.7C122.99,-422.8 107.94,-411.82 94.74,-402.2"/>
<polygon fill="black" stroke="black" points="96.52,-399.17 86.38,-396.1 92.4,-404.82 96.52,-399.17"/>
</g>
<!-- ast.Constant object at 0x7fe39fbcb1f0 -->
<g id="node10" class="node">
<title>ast.Constant object at 0x7fe39fbcb1f0</title>
<path fill="#66cdaa" stroke="black" d="M166.42,-396C166.42,-396 125.42,-396 125.42,-396 119.42,-396 113.42,-390 113.42,-384 113.42,-384 113.42,-372 113.42,-372 113.42,-366 119.42,-360 125.42,-360 125.42,-360 166.42,-360 166.42,-360 172.42,-360 178.42,-366 178.42,-372 178.42,-372 178.42,-384 178.42,-384 178.42,-390 172.42,-396 166.42,-396"/>
<text text-anchor="middle" x="145.92" y="-374.3" font-family="Times,serif" font-size="14.00">Constant</text>
</g>
<!-- ast.List object at 0x7fe39fbc9780&#45;&gt;ast.Constant object at 0x7fe39fbcb1f0 -->
<g id="edge9" class="edge">
<title>ast.List object at 0x7fe39fbc9780&#45;&gt;ast.Constant object at 0x7fe39fbcb1f0</title>
<path fill="none" stroke="black" d="M155.71,-431.7C154.28,-423.98 152.56,-414.71 150.96,-406.11"/>
<polygon fill="black" stroke="black" points="154.37,-405.3 149.1,-396.1 147.49,-406.58 154.37,-405.3"/>
</g>
<!-- ast.Constant object at 0x7fe39fbcb700 -->
<g id="node11" class="node">
<title>ast.Constant object at 0x7fe39fbcb700</title>
<path fill="#66cdaa" stroke="black" d="M249.42,-396C249.42,-396 208.42,-396 208.42,-396 202.42,-396 196.42,-390 196.42,-384 196.42,-384 196.42,-372 196.42,-372 196.42,-366 202.42,-360 208.42,-360 208.42,-360 249.42,-360 249.42,-360 255.42,-360 261.42,-366 261.42,-372 261.42,-372 261.42,-384 261.42,-384 261.42,-390 255.42,-396 249.42,-396"/>
<text text-anchor="middle" x="228.92" y="-374.3" font-family="Times,serif" font-size="14.00">Constant</text>
</g>
<!-- ast.List object at 0x7fe39fbc9780&#45;&gt;ast.Constant object at 0x7fe39fbcb700 -->
<g id="edge10" class="edge">
<title>ast.List object at 0x7fe39fbc9780&#45;&gt;ast.Constant object at 0x7fe39fbcb700</title>
<path fill="none" stroke="black" d="M176.23,-431.7C184.79,-423.14 195.27,-412.66 204.62,-403.3"/>
<polygon fill="black" stroke="black" points="207.22,-405.65 211.82,-396.1 202.27,-400.7 207.22,-405.65"/>
</g>
<!-- ast.Constant object at 0x7fe39fbc8550 -->
<g id="node12" class="node">
<title>ast.Constant object at 0x7fe39fbc8550</title>
<path fill="#66cdaa" stroke="black" d="M332.42,-396C332.42,-396 291.42,-396 291.42,-396 285.42,-396 279.42,-390 279.42,-384 279.42,-384 279.42,-372 279.42,-372 279.42,-366 285.42,-360 291.42,-360 291.42,-360 332.42,-360 332.42,-360 338.42,-360 344.42,-366 344.42,-372 344.42,-372 344.42,-384 344.42,-384 344.42,-390 338.42,-396 332.42,-396"/>
<text text-anchor="middle" x="311.92" y="-374.3" font-family="Times,serif" font-size="14.00">Constant</text>
</g>
<!-- ast.List object at 0x7fe39fbc9780&#45;&gt;ast.Constant object at 0x7fe39fbc8550 -->
<g id="edge11" class="edge">
<title>ast.List object at 0x7fe39fbc9780&#45;&gt;ast.Constant object at 0x7fe39fbc8550</title>
<path fill="none" stroke="black" d="M186.03,-436.14C189.03,-434.74 192.04,-433.33 194.92,-432 219.72,-420.53 247.57,-407.9 269.88,-397.85"/>
<polygon fill="black" stroke="black" points="271.4,-401.01 279.08,-393.71 268.52,-394.62 271.4,-401.01"/>
</g>
<!-- ast.Constant object at 0x7fe39fbc8eb0 -->
<g id="node13" class="node">
<title>ast.Constant object at 0x7fe39fbc8eb0</title>
<path fill="#66cdaa" stroke="black" d="M415.42,-396C415.42,-396 374.42,-396 374.42,-396 368.42,-396 362.42,-390 362.42,-384 362.42,-384 362.42,-372 362.42,-372 362.42,-366 368.42,-360 374.42,-360 374.42,-360 415.42,-360 415.42,-360 421.42,-360 427.42,-366 427.42,-372 427.42,-372 427.42,-384 427.42,-384 427.42,-390 421.42,-396 415.42,-396"/>
<text text-anchor="middle" x="394.92" y="-374.3" font-family="Times,serif" font-size="14.00">Constant</text>
</g>
<!-- ast.List object at 0x7fe39fbc9780&#45;&gt;ast.Constant object at 0x7fe39fbc8eb0 -->
<g id="edge12" class="edge">
<title>ast.List object at 0x7fe39fbc9780&#45;&gt;ast.Constant object at 0x7fe39fbc8eb0</title>
<path fill="none" stroke="black" d="M186.19,-435.38C189.1,-434.15 192.05,-432.99 194.92,-432 260.07,-409.5 282.3,-416.86 352.36,-395.87"/>
<polygon fill="black" stroke="black" points="353.57,-399.16 362.09,-392.87 351.5,-392.47 353.57,-399.16"/>
</g>
<!-- ast.Load object at 0x7fe3a55edff0 -->
<g id="node14" class="node">
<title>ast.Load object at 0x7fe3a55edff0</title>
<path fill="#66cdaa" stroke="black" d="M951.92,-36C951.92,-36 921.92,-36 921.92,-36 915.92,-36 909.92,-30 909.92,-24 909.92,-24 909.92,-12 909.92,-12 909.92,-6 915.92,0 921.92,0 921.92,0 951.92,0 951.92,0 957.92,0 963.92,-6 963.92,-12 963.92,-12 963.92,-24 963.92,-24 963.92,-30 957.92,-36 951.92,-36"/>
<text text-anchor="middle" x="936.92" y="-14.3" font-family="Times,serif" font-size="14.00">Load</text>
</g>
<!-- ast.List object at 0x7fe39fbc9780&#45;&gt;ast.Load object at 0x7fe3a55edff0 -->
<g id="edge13" class="edge">
<title>ast.List object at 0x7fe39fbc9780&#45;&gt;ast.Load object at 0x7fe3a55edff0</title>
<path fill="none" stroke="black" d="M131.54,-435.71C128.65,-434.42 125.74,-433.16 122.92,-432 78.46,-413.71 52.66,-432.11 20.92,-396 -5.77,-365.62 1.92,-347.45 1.92,-307 1.92,-307 1.92,-307 1.92,-161 1.92,-68.58 725.22,-28.88 899.49,-20.66"/>
<polygon fill="black" stroke="black" points="899.87,-24.15 909.7,-20.19 899.55,-17.16 899.87,-24.15"/>
</g>
<!-- ast.Name object at 0x7fe39fbcbfd0 -->
<g id="node16" class="node">
<title>ast.Name object at 0x7fe39fbcbfd0</title>
<path fill="#66cdaa" stroke="black" d="M317.92,-468C317.92,-468 287.92,-468 287.92,-468 281.92,-468 275.92,-462 275.92,-456 275.92,-456 275.92,-444 275.92,-444 275.92,-438 281.92,-432 287.92,-432 287.92,-432 317.92,-432 317.92,-432 323.92,-432 329.92,-438 329.92,-444 329.92,-444 329.92,-456 329.92,-456 329.92,-462 323.92,-468 317.92,-468"/>
<text text-anchor="middle" x="302.92" y="-446.3" font-family="Times,serif" font-size="14.00">Name</text>
</g>
<!-- ast.Assign object at 0x7fe39fbcb220&#45;&gt;ast.Name object at 0x7fe39fbcbfd0 -->
<g id="edge15" class="edge">
<title>ast.Assign object at 0x7fe39fbcb220&#45;&gt;ast.Name object at 0x7fe39fbcbfd0</title>
<path fill="none" stroke="black" d="M361.64,-503.7C352.01,-495.05 340.2,-484.45 329.7,-475.03"/>
<polygon fill="black" stroke="black" points="331.76,-472.18 321.98,-468.1 327.09,-477.39 331.76,-472.18"/>
</g>
<!-- ast.Constant object at 0x7fe39fbc8250 -->
<g id="node17" class="node">
<title>ast.Constant object at 0x7fe39fbc8250</title>
<path fill="#66cdaa" stroke="black" d="M401.42,-468C401.42,-468 360.42,-468 360.42,-468 354.42,-468 348.42,-462 348.42,-456 348.42,-456 348.42,-444 348.42,-444 348.42,-438 354.42,-432 360.42,-432 360.42,-432 401.42,-432 401.42,-432 407.42,-432 413.42,-438 413.42,-444 413.42,-444 413.42,-456 413.42,-456 413.42,-462 407.42,-468 401.42,-468"/>
<text text-anchor="middle" x="380.92" y="-446.3" font-family="Times,serif" font-size="14.00">Constant</text>
</g>
<!-- ast.Assign object at 0x7fe39fbcb220&#45;&gt;ast.Constant object at 0x7fe39fbc8250 -->
<g id="edge17" class="edge">
<title>ast.Assign object at 0x7fe39fbcb220&#45;&gt;ast.Constant object at 0x7fe39fbc8250</title>
<path fill="none" stroke="black" d="M380.92,-503.7C380.92,-495.98 380.92,-486.71 380.92,-478.11"/>
<polygon fill="black" stroke="black" points="384.42,-478.1 380.92,-468.1 377.42,-478.1 384.42,-478.1"/>
</g>
<!-- ast.Name object at 0x7fe39fbcbfd0&#45;&gt;ast.Store object at 0x7fe3a55ee050 -->
<g id="edge16" class="edge">
<title>ast.Name object at 0x7fe39fbcbfd0&#45;&gt;ast.Store object at 0x7fe3a55ee050</title>
<path fill="none" stroke="black" d="M329.94,-435.94C332.95,-434.57 335.99,-433.23 338.92,-432 381.31,-414.17 393.45,-413.61 435.92,-396 436.02,-395.96 436.12,-395.92 436.22,-395.88"/>
<polygon fill="black" stroke="black" points="437.75,-399.03 445.55,-391.86 434.98,-392.6 437.75,-399.03"/>
</g>
<!-- ast.Name object at 0x7fe39fbcb340 -->
<g id="node19" class="node">
<title>ast.Name object at 0x7fe39fbcb340</title>
<path fill="#66cdaa" stroke="black" d="M473.92,-468C473.92,-468 443.92,-468 443.92,-468 437.92,-468 431.92,-462 431.92,-456 431.92,-456 431.92,-444 431.92,-444 431.92,-438 437.92,-432 443.92,-432 443.92,-432 473.92,-432 473.92,-432 479.92,-432 485.92,-438 485.92,-444 485.92,-444 485.92,-456 485.92,-456 485.92,-462 479.92,-468 473.92,-468"/>
<text text-anchor="middle" x="458.92" y="-446.3" font-family="Times,serif" font-size="14.00">Name</text>
</g>
<!-- ast.Assign object at 0x7fe39fbcb970&#45;&gt;ast.Name object at 0x7fe39fbcb340 -->
<g id="edge19" class="edge">
<title>ast.Assign object at 0x7fe39fbcb970&#45;&gt;ast.Name object at 0x7fe39fbcb340</title>
<path fill="none" stroke="black" d="M488.28,-503.7C483.8,-495.64 478.37,-485.89 473.4,-476.98"/>
<polygon fill="black" stroke="black" points="476.38,-475.14 468.45,-468.1 470.26,-478.54 476.38,-475.14"/>
</g>
<!-- ast.Constant object at 0x7fe39fbcb310 -->
<g id="node20" class="node">
<title>ast.Constant object at 0x7fe39fbcb310</title>
<path fill="#66cdaa" stroke="black" d="M557.42,-468C557.42,-468 516.42,-468 516.42,-468 510.42,-468 504.42,-462 504.42,-456 504.42,-456 504.42,-444 504.42,-444 504.42,-438 510.42,-432 516.42,-432 516.42,-432 557.42,-432 557.42,-432 563.42,-432 569.42,-438 569.42,-444 569.42,-444 569.42,-456 569.42,-456 569.42,-462 563.42,-468 557.42,-468"/>
<text text-anchor="middle" x="536.92" y="-446.3" font-family="Times,serif" font-size="14.00">Constant</text>
</g>
<!-- ast.Assign object at 0x7fe39fbcb970&#45;&gt;ast.Constant object at 0x7fe39fbcb310 -->
<g id="edge21" class="edge">
<title>ast.Assign object at 0x7fe39fbcb970&#45;&gt;ast.Constant object at 0x7fe39fbcb310</title>
<path fill="none" stroke="black" d="M507.56,-503.7C512.05,-495.64 517.48,-485.89 522.45,-476.98"/>
<polygon fill="black" stroke="black" points="525.59,-478.54 527.39,-468.1 519.47,-475.14 525.59,-478.54"/>
</g>
<!-- ast.Name object at 0x7fe39fbcb340&#45;&gt;ast.Store object at 0x7fe3a55ee050 -->
<g id="edge20" class="edge">
<title>ast.Name object at 0x7fe39fbcb340&#45;&gt;ast.Store object at 0x7fe3a55ee050</title>
<path fill="none" stroke="black" d="M462.39,-431.7C463.93,-423.98 465.78,-414.71 467.5,-406.11"/>
<polygon fill="black" stroke="black" points="470.97,-406.6 469.5,-396.1 464.11,-405.22 470.97,-406.6"/>
</g>
<!-- ast.Name object at 0x7fe39fbc83d0 -->
<g id="node22" class="node">
<title>ast.Name object at 0x7fe39fbc83d0</title>
<path fill="#66cdaa" stroke="black" d="M629.92,-468C629.92,-468 599.92,-468 599.92,-468 593.92,-468 587.92,-462 587.92,-456 587.92,-456 587.92,-444 587.92,-444 587.92,-438 593.92,-432 599.92,-432 599.92,-432 629.92,-432 629.92,-432 635.92,-432 641.92,-438 641.92,-444 641.92,-444 641.92,-456 641.92,-456 641.92,-462 635.92,-468 629.92,-468"/>
<text text-anchor="middle" x="614.92" y="-446.3" font-family="Times,serif" font-size="14.00">Name</text>
</g>
<!-- ast.Assign object at 0x7fe39fbcb550&#45;&gt;ast.Name object at 0x7fe39fbc83d0 -->
<g id="edge23" class="edge">
<title>ast.Assign object at 0x7fe39fbcb550&#45;&gt;ast.Name object at 0x7fe39fbc83d0</title>
<path fill="none" stroke="black" d="M614.92,-503.7C614.92,-495.98 614.92,-486.71 614.92,-478.11"/>
<polygon fill="black" stroke="black" points="618.42,-478.1 614.92,-468.1 611.42,-478.1 618.42,-478.1"/>
</g>
<!-- ast.List object at 0x7fe39fbc8490 -->
<g id="node23" class="node">
<title>ast.List object at 0x7fe39fbc8490</title>
<path fill="#66cdaa" stroke="black" d="M625.92,-324C625.92,-324 595.92,-324 595.92,-324 589.92,-324 583.92,-318 583.92,-312 583.92,-312 583.92,-300 583.92,-300 583.92,-294 589.92,-288 595.92,-288 595.92,-288 625.92,-288 625.92,-288 631.92,-288 637.92,-294 637.92,-300 637.92,-300 637.92,-312 637.92,-312 637.92,-318 631.92,-324 625.92,-324"/>
<text text-anchor="middle" x="610.92" y="-302.3" font-family="Times,serif" font-size="14.00">List</text>
</g>
<!-- ast.Assign object at 0x7fe39fbcb550&#45;&gt;ast.List object at 0x7fe39fbc8490 -->
<g id="edge25" class="edge">
<title>ast.Assign object at 0x7fe39fbcb550&#45;&gt;ast.List object at 0x7fe39fbc8490</title>
<path fill="none" stroke="black" d="M630.53,-503.77C638.3,-494.03 646.87,-481.18 650.92,-468 665.35,-421.1 642.86,-365.31 626.2,-333.24"/>
<polygon fill="black" stroke="black" points="629.09,-331.23 621.26,-324.09 622.93,-334.55 629.09,-331.23"/>
</g>
<!-- ast.Name object at 0x7fe39fbc83d0&#45;&gt;ast.Store object at 0x7fe3a55ee050 -->
<g id="edge24" class="edge">
<title>ast.Name object at 0x7fe39fbc83d0&#45;&gt;ast.Store object at 0x7fe3a55ee050</title>
<path fill="none" stroke="black" d="M587.88,-435.67C565.62,-424.69 533.85,-409.03 509.35,-396.96"/>
<polygon fill="black" stroke="black" points="510.87,-393.8 500.35,-392.52 507.77,-400.08 510.87,-393.8"/>
</g>
<!-- ast.List object at 0x7fe39fbc8490&#45;&gt;ast.Load object at 0x7fe3a55edff0 -->
<g id="edge26" class="edge">
<title>ast.List object at 0x7fe39fbc8490&#45;&gt;ast.Load object at 0x7fe3a55edff0</title>
<path fill="none" stroke="black" d="M603.54,-287.84C586.6,-245.47 550.33,-134.8 603.92,-72 641.58,-27.88 820.5,-20.31 899.4,-19.14"/>
<polygon fill="black" stroke="black" points="899.88,-22.63 909.84,-19.01 899.8,-15.63 899.88,-22.63"/>
</g>
<!-- ast.Name object at 0x7fe39fbc8e80 -->
<g id="node25" class="node">
<title>ast.Name object at 0x7fe39fbc8e80</title>
<path fill="#66cdaa" stroke="black" d="M739.92,-468C739.92,-468 709.92,-468 709.92,-468 703.92,-468 697.92,-462 697.92,-456 697.92,-456 697.92,-444 697.92,-444 697.92,-438 703.92,-432 709.92,-432 709.92,-432 739.92,-432 739.92,-432 745.92,-432 751.92,-438 751.92,-444 751.92,-444 751.92,-456 751.92,-456 751.92,-462 745.92,-468 739.92,-468"/>
<text text-anchor="middle" x="724.92" y="-446.3" font-family="Times,serif" font-size="14.00">Name</text>
</g>
<!-- ast.For object at 0x7fe39fbcb6d0&#45;&gt;ast.Name object at 0x7fe39fbc8e80 -->
<g id="edge28" class="edge">
<title>ast.For object at 0x7fe39fbcb6d0&#45;&gt;ast.Name object at 0x7fe39fbc8e80</title>
<path fill="none" stroke="black" d="M745.25,-503.7C742.21,-495.81 738.54,-486.3 735.16,-477.55"/>
<polygon fill="black" stroke="black" points="738.39,-476.17 731.52,-468.1 731.86,-478.69 738.39,-476.17"/>
</g>
<!-- ast.Subscript object at 0x7fe39fbc9090 -->
<g id="node26" class="node">
<title>ast.Subscript object at 0x7fe39fbc9090</title>
<path fill="#66cdaa" stroke="black" d="M704.92,-252C704.92,-252 660.92,-252 660.92,-252 654.92,-252 648.92,-246 648.92,-240 648.92,-240 648.92,-228 648.92,-228 648.92,-222 654.92,-216 660.92,-216 660.92,-216 704.92,-216 704.92,-216 710.92,-216 716.92,-222 716.92,-228 716.92,-228 716.92,-240 716.92,-240 716.92,-246 710.92,-252 704.92,-252"/>
<text text-anchor="middle" x="682.92" y="-230.3" font-family="Times,serif" font-size="14.00">Subscript</text>
</g>
<!-- ast.For object at 0x7fe39fbcb6d0&#45;&gt;ast.Subscript object at 0x7fe39fbc9090 -->
<g id="edge30" class="edge">
<title>ast.For object at 0x7fe39fbcb6d0&#45;&gt;ast.Subscript object at 0x7fe39fbc9090</title>
<path fill="none" stroke="black" d="M756.58,-503.81C760.78,-485.79 765.64,-456.71 760.92,-432 748.71,-367.98 716.05,-298.22 697.08,-261.33"/>
<polygon fill="black" stroke="black" points="700.08,-259.5 692.35,-252.25 693.87,-262.74 700.08,-259.5"/>
</g>
<!-- ast.If object at 0x7fe39fbcb2b0 -->
<g id="node31" class="node">
<title>ast.If object at 0x7fe39fbcb2b0</title>
<path fill="#66cdaa" stroke="black" d="M971.92,-468C971.92,-468 941.92,-468 941.92,-468 935.92,-468 929.92,-462 929.92,-456 929.92,-456 929.92,-444 929.92,-444 929.92,-438 935.92,-432 941.92,-432 941.92,-432 971.92,-432 971.92,-432 977.92,-432 983.92,-438 983.92,-444 983.92,-444 983.92,-456 983.92,-456 983.92,-462 977.92,-468 971.92,-468"/>
<text text-anchor="middle" x="956.92" y="-446.3" font-family="Times,serif" font-size="14.00">If</text>
</g>
<!-- ast.For object at 0x7fe39fbcb6d0&#45;&gt;ast.If object at 0x7fe39fbcb2b0 -->
<g id="edge39" class="edge">
<title>ast.For object at 0x7fe39fbcb6d0&#45;&gt;ast.If object at 0x7fe39fbcb2b0</title>
<path fill="none" stroke="black" d="M779.15,-511.7C815.47,-499.3 879.9,-477.3 920.41,-463.47"/>
<polygon fill="black" stroke="black" points="921.58,-466.77 929.92,-460.22 919.32,-460.14 921.58,-466.77"/>
</g>
<!-- ast.Name object at 0x7fe39fbc8e80&#45;&gt;ast.Store object at 0x7fe3a55ee050 -->
<g id="edge29" class="edge">
<title>ast.Name object at 0x7fe39fbc8e80&#45;&gt;ast.Store object at 0x7fe3a55ee050</title>
<path fill="none" stroke="black" d="M697.48,-441.38C651.91,-428.72 560.63,-403.36 509.6,-389.19"/>
<polygon fill="black" stroke="black" points="510.53,-385.81 499.96,-386.51 508.66,-392.56 510.53,-385.81"/>
</g>
<!-- ast.Subscript object at 0x7fe39fbc9090&#45;&gt;ast.Load object at 0x7fe3a55edff0 -->
<g id="edge38" class="edge">
<title>ast.Subscript object at 0x7fe39fbc9090&#45;&gt;ast.Load object at 0x7fe3a55edff0</title>
<path fill="none" stroke="black" d="M665.87,-215.84C636.46,-184.2 582.78,-115.87 619.92,-72 655.44,-30.06 823.99,-21.28 899.81,-19.46"/>
<polygon fill="black" stroke="black" points="899.95,-22.96 909.87,-19.25 899.8,-15.96 899.95,-22.96"/>
</g>
<!-- ast.Name object at 0x7fe39fbc8430 -->
<g id="node27" class="node">
<title>ast.Name object at 0x7fe39fbc8430</title>
<path fill="#66cdaa" stroke="black" d="M670.92,-108C670.92,-108 640.92,-108 640.92,-108 634.92,-108 628.92,-102 628.92,-96 628.92,-96 628.92,-84 628.92,-84 628.92,-78 634.92,-72 640.92,-72 640.92,-72 670.92,-72 670.92,-72 676.92,-72 682.92,-78 682.92,-84 682.92,-84 682.92,-96 682.92,-96 682.92,-102 676.92,-108 670.92,-108"/>
<text text-anchor="middle" x="655.92" y="-86.3" font-family="Times,serif" font-size="14.00">Name</text>
</g>
<!-- ast.Subscript object at 0x7fe39fbc9090&#45;&gt;ast.Name object at 0x7fe39fbc8430 -->
<g id="edge31" class="edge">
<title>ast.Subscript object at 0x7fe39fbc9090&#45;&gt;ast.Name object at 0x7fe39fbc8430</title>
<path fill="none" stroke="black" d="M679.67,-215.87C675.07,-191.67 666.61,-147.21 661.13,-118.39"/>
<polygon fill="black" stroke="black" points="664.5,-117.36 659.19,-108.19 657.62,-118.67 664.5,-117.36"/>
</g>
<!-- ast.Slice object at 0x7fe39fbc83a0 -->
<g id="node28" class="node">
<title>ast.Slice object at 0x7fe39fbc83a0</title>
<path fill="#66cdaa" stroke="black" d="M742.92,-180C742.92,-180 712.92,-180 712.92,-180 706.92,-180 700.92,-174 700.92,-168 700.92,-168 700.92,-156 700.92,-156 700.92,-150 706.92,-144 712.92,-144 712.92,-144 742.92,-144 742.92,-144 748.92,-144 754.92,-150 754.92,-156 754.92,-156 754.92,-168 754.92,-168 754.92,-174 748.92,-180 742.92,-180"/>
<text text-anchor="middle" x="727.92" y="-158.3" font-family="Times,serif" font-size="14.00">Slice</text>
</g>
<!-- ast.Subscript object at 0x7fe39fbc9090&#45;&gt;ast.Slice object at 0x7fe39fbc83a0 -->
<g id="edge33" class="edge">
<title>ast.Subscript object at 0x7fe39fbc9090&#45;&gt;ast.Slice object at 0x7fe39fbc83a0</title>
<path fill="none" stroke="black" d="M694.05,-215.7C699.28,-207.56 705.62,-197.69 711.4,-188.7"/>
<polygon fill="black" stroke="black" points="714.47,-190.41 716.93,-180.1 708.58,-186.62 714.47,-190.41"/>
</g>
<!-- ast.Name object at 0x7fe39fbc8430&#45;&gt;ast.Load object at 0x7fe3a55edff0 -->
<g id="edge32" class="edge">
<title>ast.Name object at 0x7fe39fbc8430&#45;&gt;ast.Load object at 0x7fe3a55edff0</title>
<path fill="none" stroke="black" d="M683.17,-75.34C686.09,-74.12 689.04,-72.98 691.92,-72 763.72,-47.64 851.26,-31.89 899.87,-24.31"/>
<polygon fill="black" stroke="black" points="900.56,-27.75 909.92,-22.78 899.5,-20.83 900.56,-27.75"/>
</g>
<!-- ast.Name object at 0x7fe39fbcb280 -->
<g id="node29" class="node">
<title>ast.Name object at 0x7fe39fbcb280</title>
<path fill="#66cdaa" stroke="black" d="M742.92,-108C742.92,-108 712.92,-108 712.92,-108 706.92,-108 700.92,-102 700.92,-96 700.92,-96 700.92,-84 700.92,-84 700.92,-78 706.92,-72 712.92,-72 712.92,-72 742.92,-72 742.92,-72 748.92,-72 754.92,-78 754.92,-84 754.92,-84 754.92,-96 754.92,-96 754.92,-102 748.92,-108 742.92,-108"/>
<text text-anchor="middle" x="727.92" y="-86.3" font-family="Times,serif" font-size="14.00">Name</text>
</g>
<!-- ast.Slice object at 0x7fe39fbc83a0&#45;&gt;ast.Name object at 0x7fe39fbcb280 -->
<g id="edge34" class="edge">
<title>ast.Slice object at 0x7fe39fbc83a0&#45;&gt;ast.Name object at 0x7fe39fbcb280</title>
<path fill="none" stroke="black" d="M727.92,-143.7C727.92,-135.98 727.92,-126.71 727.92,-118.11"/>
<polygon fill="black" stroke="black" points="731.42,-118.1 727.92,-108.1 724.42,-118.1 731.42,-118.1"/>
</g>
<!-- ast.Name object at 0x7fe39fbc9030 -->
<g id="node30" class="node">
<title>ast.Name object at 0x7fe39fbc9030</title>
<path fill="#66cdaa" stroke="black" d="M814.92,-108C814.92,-108 784.92,-108 784.92,-108 778.92,-108 772.92,-102 772.92,-96 772.92,-96 772.92,-84 772.92,-84 772.92,-78 778.92,-72 784.92,-72 784.92,-72 814.92,-72 814.92,-72 820.92,-72 826.92,-78 826.92,-84 826.92,-84 826.92,-96 826.92,-96 826.92,-102 820.92,-108 814.92,-108"/>
<text text-anchor="middle" x="799.92" y="-86.3" font-family="Times,serif" font-size="14.00">Name</text>
</g>
<!-- ast.Slice object at 0x7fe39fbc83a0&#45;&gt;ast.Name object at 0x7fe39fbc9030 -->
<g id="edge36" class="edge">
<title>ast.Slice object at 0x7fe39fbc83a0&#45;&gt;ast.Name object at 0x7fe39fbc9030</title>
<path fill="none" stroke="black" d="M745.72,-143.7C754.53,-135.14 765.31,-124.66 774.93,-115.3"/>
<polygon fill="black" stroke="black" points="777.6,-117.58 782.33,-108.1 772.72,-112.57 777.6,-117.58"/>
</g>
<!-- ast.Name object at 0x7fe39fbcb280&#45;&gt;ast.Load object at 0x7fe3a55edff0 -->
<g id="edge35" class="edge">
<title>ast.Name object at 0x7fe39fbcb280&#45;&gt;ast.Load object at 0x7fe3a55edff0</title>
<path fill="none" stroke="black" d="M755.26,-75.59C758.16,-74.32 761.09,-73.1 763.92,-72 809.92,-54.2 864.57,-38.3 899.95,-28.66"/>
<polygon fill="black" stroke="black" points="901.1,-31.98 909.84,-26 899.28,-25.22 901.1,-31.98"/>
</g>
<!-- ast.Name object at 0x7fe39fbc9030&#45;&gt;ast.Load object at 0x7fe3a55edff0 -->
<g id="edge37" class="edge">
<title>ast.Name object at 0x7fe39fbc9030&#45;&gt;ast.Load object at 0x7fe3a55edff0</title>
<path fill="none" stroke="black" d="M826.99,-75.17C848.1,-64.38 877.62,-49.3 900.75,-37.48"/>
<polygon fill="black" stroke="black" points="902.6,-40.47 909.91,-32.8 899.42,-34.23 902.6,-40.47"/>
</g>
<!-- ast.BoolOp object at 0x7fe39fbcba30 -->
<g id="node32" class="node">
<title>ast.BoolOp object at 0x7fe39fbcba30</title>
<path fill="#66cdaa" stroke="black" d="M974.42,-396C974.42,-396 939.42,-396 939.42,-396 933.42,-396 927.42,-390 927.42,-384 927.42,-384 927.42,-372 927.42,-372 927.42,-366 933.42,-360 939.42,-360 939.42,-360 974.42,-360 974.42,-360 980.42,-360 986.42,-366 986.42,-372 986.42,-372 986.42,-384 986.42,-384 986.42,-390 980.42,-396 974.42,-396"/>
<text text-anchor="middle" x="956.92" y="-374.3" font-family="Times,serif" font-size="14.00">BoolOp</text>
</g>
<!-- ast.If object at 0x7fe39fbcb2b0&#45;&gt;ast.BoolOp object at 0x7fe39fbcba30 -->
<g id="edge40" class="edge">
<title>ast.If object at 0x7fe39fbcb2b0&#45;&gt;ast.BoolOp object at 0x7fe39fbcba30</title>
<path fill="none" stroke="black" d="M956.92,-431.7C956.92,-423.98 956.92,-414.71 956.92,-406.11"/>
<polygon fill="black" stroke="black" points="960.42,-406.1 956.92,-396.1 953.42,-406.1 960.42,-406.1"/>
</g>
<!-- ast.Expr object at 0x7fe39fbc84c0 -->
<g id="node47" class="node">
<title>ast.Expr object at 0x7fe39fbc84c0</title>
<path fill="#66cdaa" stroke="black" d="M1186.92,-324C1186.92,-324 1156.92,-324 1156.92,-324 1150.92,-324 1144.92,-318 1144.92,-312 1144.92,-312 1144.92,-300 1144.92,-300 1144.92,-294 1150.92,-288 1156.92,-288 1156.92,-288 1186.92,-288 1186.92,-288 1192.92,-288 1198.92,-294 1198.92,-300 1198.92,-300 1198.92,-312 1198.92,-312 1198.92,-318 1192.92,-324 1186.92,-324"/>
<text text-anchor="middle" x="1171.92" y="-302.3" font-family="Times,serif" font-size="14.00">Expr</text>
</g>
<!-- ast.If object at 0x7fe39fbcb2b0&#45;&gt;ast.Expr object at 0x7fe39fbc84c0 -->
<g id="edge61" class="edge">
<title>ast.If object at 0x7fe39fbcb2b0&#45;&gt;ast.Expr object at 0x7fe39fbc84c0</title>
<path fill="none" stroke="black" d="M982.86,-431.87C1021.52,-406.34 1094.32,-358.25 1137.43,-329.78"/>
<polygon fill="black" stroke="black" points="1139.48,-332.62 1145.9,-324.19 1135.63,-326.78 1139.48,-332.62"/>
</g>
<!-- ast.And object at 0x7fe3a55ee140 -->
<g id="node33" class="node">
<title>ast.And object at 0x7fe3a55ee140</title>
<path fill="#66cdaa" stroke="black" d="M935.92,-324C935.92,-324 905.92,-324 905.92,-324 899.92,-324 893.92,-318 893.92,-312 893.92,-312 893.92,-300 893.92,-300 893.92,-294 899.92,-288 905.92,-288 905.92,-288 935.92,-288 935.92,-288 941.92,-288 947.92,-294 947.92,-300 947.92,-300 947.92,-312 947.92,-312 947.92,-318 941.92,-324 935.92,-324"/>
<text text-anchor="middle" x="920.92" y="-302.3" font-family="Times,serif" font-size="14.00">And</text>
</g>
<!-- ast.BoolOp object at 0x7fe39fbcba30&#45;&gt;ast.And object at 0x7fe3a55ee140 -->
<g id="edge41" class="edge">
<title>ast.BoolOp object at 0x7fe39fbcba30&#45;&gt;ast.And object at 0x7fe3a55ee140</title>
<path fill="none" stroke="black" d="M948.03,-359.7C943.93,-351.73 938.98,-342.1 934.43,-333.26"/>
<polygon fill="black" stroke="black" points="937.41,-331.4 929.72,-324.1 931.18,-334.6 937.41,-331.4"/>
</g>
<!-- ast.Call object at 0x7fe39fbc8fd0 -->
<g id="node34" class="node">
<title>ast.Call object at 0x7fe39fbc8fd0</title>
<path fill="#66cdaa" stroke="black" d="M1007.92,-324C1007.92,-324 977.92,-324 977.92,-324 971.92,-324 965.92,-318 965.92,-312 965.92,-312 965.92,-300 965.92,-300 965.92,-294 971.92,-288 977.92,-288 977.92,-288 1007.92,-288 1007.92,-288 1013.92,-288 1019.92,-294 1019.92,-300 1019.92,-300 1019.92,-312 1019.92,-312 1019.92,-318 1013.92,-324 1007.92,-324"/>
<text text-anchor="middle" x="992.92" y="-302.3" font-family="Times,serif" font-size="14.00">Call</text>
</g>
<!-- ast.BoolOp object at 0x7fe39fbcba30&#45;&gt;ast.Call object at 0x7fe39fbc8fd0 -->
<g id="edge42" class="edge">
<title>ast.BoolOp object at 0x7fe39fbcba30&#45;&gt;ast.Call object at 0x7fe39fbc8fd0</title>
<path fill="none" stroke="black" d="M965.82,-359.7C969.92,-351.73 974.87,-342.1 979.42,-333.26"/>
<polygon fill="black" stroke="black" points="982.67,-334.6 984.13,-324.1 976.44,-331.4 982.67,-334.6"/>
</g>
<!-- ast.Compare object at 0x7fe39fbc9000 -->
<g id="node37" class="node">
<title>ast.Compare object at 0x7fe39fbc9000</title>
<path fill="#66cdaa" stroke="black" d="M1096.42,-324C1096.42,-324 1053.42,-324 1053.42,-324 1047.42,-324 1041.42,-318 1041.42,-312 1041.42,-312 1041.42,-300 1041.42,-300 1041.42,-294 1047.42,-288 1053.42,-288 1053.42,-288 1096.42,-288 1096.42,-288 1102.42,-288 1108.42,-294 1108.42,-300 1108.42,-300 1108.42,-312 1108.42,-312 1108.42,-318 1102.42,-324 1096.42,-324"/>
<text text-anchor="middle" x="1074.92" y="-302.3" font-family="Times,serif" font-size="14.00">Compare</text>
</g>
<!-- ast.BoolOp object at 0x7fe39fbcba30&#45;&gt;ast.Compare object at 0x7fe39fbc9000 -->
<g id="edge47" class="edge">
<title>ast.BoolOp object at 0x7fe39fbcba30&#45;&gt;ast.Compare object at 0x7fe39fbc9000</title>
<path fill="none" stroke="black" d="M985.79,-359.88C1001.22,-350.72 1020.41,-339.34 1037.02,-329.48"/>
<polygon fill="black" stroke="black" points="1039.13,-332.3 1045.95,-324.19 1035.56,-326.28 1039.13,-332.3"/>
</g>
<!-- ast.Compare object at 0x7fe39fbc8370 -->
<g id="node43" class="node">
<title>ast.Compare object at 0x7fe39fbc8370</title>
<path fill="#66cdaa" stroke="black" d="M863.42,-324C863.42,-324 820.42,-324 820.42,-324 814.42,-324 808.42,-318 808.42,-312 808.42,-312 808.42,-300 808.42,-300 808.42,-294 814.42,-288 820.42,-288 820.42,-288 863.42,-288 863.42,-288 869.42,-288 875.42,-294 875.42,-300 875.42,-300 875.42,-312 875.42,-312 875.42,-318 869.42,-324 863.42,-324"/>
<text text-anchor="middle" x="841.92" y="-302.3" font-family="Times,serif" font-size="14.00">Compare</text>
</g>
<!-- ast.BoolOp object at 0x7fe39fbcba30&#45;&gt;ast.Compare object at 0x7fe39fbc8370 -->
<g id="edge56" class="edge">
<title>ast.BoolOp object at 0x7fe39fbcba30&#45;&gt;ast.Compare object at 0x7fe39fbc8370</title>
<path fill="none" stroke="black" d="M928.79,-359.88C913.76,-350.72 895.06,-339.34 878.86,-329.48"/>
<polygon fill="black" stroke="black" points="880.53,-326.4 870.16,-324.19 876.89,-332.38 880.53,-326.4"/>
</g>
<!-- ast.Attribute object at 0x7fe39fbc84f0 -->
<g id="node35" class="node">
<title>ast.Attribute object at 0x7fe39fbc84f0</title>
<path fill="#66cdaa" stroke="black" d="M970.42,-180C970.42,-180 929.42,-180 929.42,-180 923.42,-180 917.42,-174 917.42,-168 917.42,-168 917.42,-156 917.42,-156 917.42,-150 923.42,-144 929.42,-144 929.42,-144 970.42,-144 970.42,-144 976.42,-144 982.42,-150 982.42,-156 982.42,-156 982.42,-168 982.42,-168 982.42,-174 976.42,-180 970.42,-180"/>
<text text-anchor="middle" x="949.92" y="-158.3" font-family="Times,serif" font-size="14.00">Attribute</text>
</g>
<!-- ast.Call object at 0x7fe39fbc8fd0&#45;&gt;ast.Attribute object at 0x7fe39fbc84f0 -->
<g id="edge43" class="edge">
<title>ast.Call object at 0x7fe39fbc8fd0&#45;&gt;ast.Attribute object at 0x7fe39fbc84f0</title>
<path fill="none" stroke="black" d="M983.95,-287.71C978.96,-277.53 972.96,-264.28 968.92,-252 962.23,-231.65 957.3,-207.88 954.14,-190.03"/>
<polygon fill="black" stroke="black" points="957.56,-189.29 952.44,-180.02 950.66,-190.46 957.56,-189.29"/>
</g>
<!-- ast.Attribute object at 0x7fe39fbc84f0&#45;&gt;ast.Load object at 0x7fe3a55edff0 -->
<g id="edge46" class="edge">
<title>ast.Attribute object at 0x7fe39fbc84f0&#45;&gt;ast.Load object at 0x7fe3a55edff0</title>
<path fill="none" stroke="black" d="M949.78,-143.89C949.48,-125.94 948.59,-96.91 945.92,-72 945.02,-63.52 943.61,-54.34 942.18,-46.03"/>
<polygon fill="black" stroke="black" points="945.61,-45.33 940.38,-36.11 938.72,-46.57 945.61,-45.33"/>
</g>
<!-- ast.Name object at 0x7fe39fbcb400 -->
<g id="node36" class="node">
<title>ast.Name object at 0x7fe39fbcb400</title>
<path fill="#66cdaa" stroke="black" d="M924.92,-108C924.92,-108 894.92,-108 894.92,-108 888.92,-108 882.92,-102 882.92,-96 882.92,-96 882.92,-84 882.92,-84 882.92,-78 888.92,-72 894.92,-72 894.92,-72 924.92,-72 924.92,-72 930.92,-72 936.92,-78 936.92,-84 936.92,-84 936.92,-96 936.92,-96 936.92,-102 930.92,-108 924.92,-108"/>
<text text-anchor="middle" x="909.92" y="-86.3" font-family="Times,serif" font-size="14.00">Name</text>
</g>
<!-- ast.Attribute object at 0x7fe39fbc84f0&#45;&gt;ast.Name object at 0x7fe39fbcb400 -->
<g id="edge44" class="edge">
<title>ast.Attribute object at 0x7fe39fbc84f0&#45;&gt;ast.Name object at 0x7fe39fbcb400</title>
<path fill="none" stroke="black" d="M940.04,-143.7C935.44,-135.64 929.86,-125.89 924.77,-116.98"/>
<polygon fill="black" stroke="black" points="927.7,-115.05 919.7,-108.1 921.62,-118.52 927.7,-115.05"/>
</g>
<!-- ast.Name object at 0x7fe39fbcb400&#45;&gt;ast.Load object at 0x7fe3a55edff0 -->
<g id="edge45" class="edge">
<title>ast.Name object at 0x7fe39fbcb400&#45;&gt;ast.Load object at 0x7fe3a55edff0</title>
<path fill="none" stroke="black" d="M916.6,-71.7C919.64,-63.81 923.31,-54.3 926.69,-45.55"/>
<polygon fill="black" stroke="black" points="929.99,-46.69 930.33,-36.1 923.46,-44.17 929.99,-46.69"/>
</g>
<!-- ast.Call object at 0x7fe39fbc91e0 -->
<g id="node38" class="node">
<title>ast.Call object at 0x7fe39fbc91e0</title>
<path fill="#66cdaa" stroke="black" d="M1091.92,-252C1091.92,-252 1061.92,-252 1061.92,-252 1055.92,-252 1049.92,-246 1049.92,-240 1049.92,-240 1049.92,-228 1049.92,-228 1049.92,-222 1055.92,-216 1061.92,-216 1061.92,-216 1091.92,-216 1091.92,-216 1097.92,-216 1103.92,-222 1103.92,-228 1103.92,-228 1103.92,-240 1103.92,-240 1103.92,-246 1097.92,-252 1091.92,-252"/>
<text text-anchor="middle" x="1076.92" y="-230.3" font-family="Times,serif" font-size="14.00">Call</text>
</g>
<!-- ast.Compare object at 0x7fe39fbc9000&#45;&gt;ast.Call object at 0x7fe39fbc91e0 -->
<g id="edge48" class="edge">
<title>ast.Compare object at 0x7fe39fbc9000&#45;&gt;ast.Call object at 0x7fe39fbc91e0</title>
<path fill="none" stroke="black" d="M1075.42,-287.7C1075.64,-279.98 1075.9,-270.71 1076.15,-262.11"/>
<polygon fill="black" stroke="black" points="1079.65,-262.2 1076.44,-252.1 1072.65,-262 1079.65,-262.2"/>
</g>
<!-- ast.In object at 0x7fe3a55eec20 -->
<g id="node41" class="node">
<title>ast.In object at 0x7fe3a55eec20</title>
<path fill="#66cdaa" stroke="black" d="M1019.92,-252C1019.92,-252 989.92,-252 989.92,-252 983.92,-252 977.92,-246 977.92,-240 977.92,-240 977.92,-228 977.92,-228 977.92,-222 983.92,-216 989.92,-216 989.92,-216 1019.92,-216 1019.92,-216 1025.92,-216 1031.92,-222 1031.92,-228 1031.92,-228 1031.92,-240 1031.92,-240 1031.92,-246 1025.92,-252 1019.92,-252"/>
<text text-anchor="middle" x="1004.92" y="-230.3" font-family="Times,serif" font-size="14.00">In</text>
</g>
<!-- ast.Compare object at 0x7fe39fbc9000&#45;&gt;ast.In object at 0x7fe3a55eec20 -->
<g id="edge53" class="edge">
<title>ast.Compare object at 0x7fe39fbc9000&#45;&gt;ast.In object at 0x7fe3a55eec20</title>
<path fill="none" stroke="black" d="M1057.62,-287.7C1049.06,-279.14 1038.58,-268.66 1029.23,-259.3"/>
<polygon fill="black" stroke="black" points="1031.57,-256.7 1022.03,-252.1 1026.63,-261.65 1031.57,-256.7"/>
</g>
<!-- ast.Name object at 0x7fe39fbc8520 -->
<g id="node42" class="node">
<title>ast.Name object at 0x7fe39fbc8520</title>
<path fill="#66cdaa" stroke="black" d="M1144.92,-108C1144.92,-108 1114.92,-108 1114.92,-108 1108.92,-108 1102.92,-102 1102.92,-96 1102.92,-96 1102.92,-84 1102.92,-84 1102.92,-78 1108.92,-72 1114.92,-72 1114.92,-72 1144.92,-72 1144.92,-72 1150.92,-72 1156.92,-78 1156.92,-84 1156.92,-84 1156.92,-96 1156.92,-96 1156.92,-102 1150.92,-108 1144.92,-108"/>
<text text-anchor="middle" x="1129.92" y="-86.3" font-family="Times,serif" font-size="14.00">Name</text>
</g>
<!-- ast.Compare object at 0x7fe39fbc9000&#45;&gt;ast.Name object at 0x7fe39fbc8520 -->
<g id="edge54" class="edge">
<title>ast.Compare object at 0x7fe39fbc9000&#45;&gt;ast.Name object at 0x7fe39fbc8520</title>
<path fill="none" stroke="black" d="M1090.83,-287.72C1098.86,-277.97 1107.93,-265.12 1112.92,-252 1129.9,-207.39 1131.83,-151.13 1131.21,-118.29"/>
<polygon fill="black" stroke="black" points="1134.71,-118.01 1130.92,-108.11 1127.71,-118.2 1134.71,-118.01"/>
</g>
<!-- ast.Attribute object at 0x7fe39fbc8280 -->
<g id="node39" class="node">
<title>ast.Attribute object at 0x7fe39fbc8280</title>
<path fill="#66cdaa" stroke="black" d="M1078.42,-180C1078.42,-180 1037.42,-180 1037.42,-180 1031.42,-180 1025.42,-174 1025.42,-168 1025.42,-168 1025.42,-156 1025.42,-156 1025.42,-150 1031.42,-144 1037.42,-144 1037.42,-144 1078.42,-144 1078.42,-144 1084.42,-144 1090.42,-150 1090.42,-156 1090.42,-156 1090.42,-168 1090.42,-168 1090.42,-174 1084.42,-180 1078.42,-180"/>
<text text-anchor="middle" x="1057.92" y="-158.3" font-family="Times,serif" font-size="14.00">Attribute</text>
</g>
<!-- ast.Call object at 0x7fe39fbc91e0&#45;&gt;ast.Attribute object at 0x7fe39fbc8280 -->
<g id="edge49" class="edge">
<title>ast.Call object at 0x7fe39fbc91e0&#45;&gt;ast.Attribute object at 0x7fe39fbc8280</title>
<path fill="none" stroke="black" d="M1072.23,-215.7C1070.11,-207.9 1067.56,-198.51 1065.21,-189.83"/>
<polygon fill="black" stroke="black" points="1068.56,-188.84 1062.57,-180.1 1061.81,-190.67 1068.56,-188.84"/>
</g>
<!-- ast.Attribute object at 0x7fe39fbc8280&#45;&gt;ast.Load object at 0x7fe3a55edff0 -->
<g id="edge52" class="edge">
<title>ast.Attribute object at 0x7fe39fbc8280&#45;&gt;ast.Load object at 0x7fe3a55edff0</title>
<path fill="none" stroke="black" d="M1043.33,-143.87C1022.16,-119.03 982.81,-72.85 958.35,-44.14"/>
<polygon fill="black" stroke="black" points="960.72,-41.53 951.57,-36.19 955.39,-46.07 960.72,-41.53"/>
</g>
<!-- ast.Name object at 0x7fe39fbc81c0 -->
<g id="node40" class="node">
<title>ast.Name object at 0x7fe39fbc81c0</title>
<path fill="#66cdaa" stroke="black" d="M1072.92,-108C1072.92,-108 1042.92,-108 1042.92,-108 1036.92,-108 1030.92,-102 1030.92,-96 1030.92,-96 1030.92,-84 1030.92,-84 1030.92,-78 1036.92,-72 1042.92,-72 1042.92,-72 1072.92,-72 1072.92,-72 1078.92,-72 1084.92,-78 1084.92,-84 1084.92,-84 1084.92,-96 1084.92,-96 1084.92,-102 1078.92,-108 1072.92,-108"/>
<text text-anchor="middle" x="1057.92" y="-86.3" font-family="Times,serif" font-size="14.00">Name</text>
</g>
<!-- ast.Attribute object at 0x7fe39fbc8280&#45;&gt;ast.Name object at 0x7fe39fbc81c0 -->
<g id="edge50" class="edge">
<title>ast.Attribute object at 0x7fe39fbc8280&#45;&gt;ast.Name object at 0x7fe39fbc81c0</title>
<path fill="none" stroke="black" d="M1057.92,-143.7C1057.92,-135.98 1057.92,-126.71 1057.92,-118.11"/>
<polygon fill="black" stroke="black" points="1061.42,-118.1 1057.92,-108.1 1054.42,-118.1 1061.42,-118.1"/>
</g>
<!-- ast.Name object at 0x7fe39fbc81c0&#45;&gt;ast.Load object at 0x7fe3a55edff0 -->
<g id="edge51" class="edge">
<title>ast.Name object at 0x7fe39fbc81c0&#45;&gt;ast.Load object at 0x7fe3a55edff0</title>
<path fill="none" stroke="black" d="M1030.77,-73.29C1013.64,-63.38 991.34,-50.48 972.77,-39.73"/>
<polygon fill="black" stroke="black" points="974.4,-36.63 963.99,-34.66 970.89,-42.69 974.4,-36.63"/>
</g>
<!-- ast.Name object at 0x7fe39fbc8520&#45;&gt;ast.Load object at 0x7fe3a55edff0 -->
<g id="edge55" class="edge">
<title>ast.Name object at 0x7fe39fbc8520&#45;&gt;ast.Load object at 0x7fe3a55edff0</title>
<path fill="none" stroke="black" d="M1102.55,-75.67C1099.66,-74.39 1096.74,-73.14 1093.92,-72 1053.48,-55.69 1005.88,-40.11 973.78,-30.12"/>
<polygon fill="black" stroke="black" points="974.52,-26.68 963.94,-27.07 972.46,-33.37 974.52,-26.68"/>
</g>
<!-- ast.Name object at 0x7fe39fbc81f0 -->
<g id="node44" class="node">
<title>ast.Name object at 0x7fe39fbc81f0</title>
<path fill="#66cdaa" stroke="black" d="M861.92,-180C861.92,-180 831.92,-180 831.92,-180 825.92,-180 819.92,-174 819.92,-168 819.92,-168 819.92,-156 819.92,-156 819.92,-150 825.92,-144 831.92,-144 831.92,-144 861.92,-144 861.92,-144 867.92,-144 873.92,-150 873.92,-156 873.92,-156 873.92,-168 873.92,-168 873.92,-174 867.92,-180 861.92,-180"/>
<text text-anchor="middle" x="846.92" y="-158.3" font-family="Times,serif" font-size="14.00">Name</text>
</g>
<!-- ast.Compare object at 0x7fe39fbc8370&#45;&gt;ast.Name object at 0x7fe39fbc81f0 -->
<g id="edge57" class="edge">
<title>ast.Compare object at 0x7fe39fbc8370&#45;&gt;ast.Name object at 0x7fe39fbc81f0</title>
<path fill="none" stroke="black" d="M842.53,-287.87C843.38,-263.67 844.95,-219.21 845.96,-190.39"/>
<polygon fill="black" stroke="black" points="849.47,-190.31 846.32,-180.19 842.47,-190.06 849.47,-190.31"/>
</g>
<!-- ast.Lt object at 0x7fe3a55ee9e0 -->
<g id="node45" class="node">
<title>ast.Lt object at 0x7fe3a55ee9e0</title>
<path fill="#66cdaa" stroke="black" d="M909.92,-252C909.92,-252 879.92,-252 879.92,-252 873.92,-252 867.92,-246 867.92,-240 867.92,-240 867.92,-228 867.92,-228 867.92,-222 873.92,-216 879.92,-216 879.92,-216 909.92,-216 909.92,-216 915.92,-216 921.92,-222 921.92,-228 921.92,-228 921.92,-240 921.92,-240 921.92,-246 915.92,-252 909.92,-252"/>
<text text-anchor="middle" x="894.92" y="-230.3" font-family="Times,serif" font-size="14.00">Lt</text>
</g>
<!-- ast.Compare object at 0x7fe39fbc8370&#45;&gt;ast.Lt object at 0x7fe3a55ee9e0 -->
<g id="edge59" class="edge">
<title>ast.Compare object at 0x7fe39fbc8370&#45;&gt;ast.Lt object at 0x7fe3a55ee9e0</title>
<path fill="none" stroke="black" d="M855.03,-287.7C861.32,-279.39 868.97,-269.28 875.89,-260.14"/>
<polygon fill="black" stroke="black" points="878.73,-262.19 881.97,-252.1 873.15,-257.96 878.73,-262.19"/>
</g>
<!-- ast.Constant object at 0x7fe39fbc8220 -->
<g id="node46" class="node">
<title>ast.Constant object at 0x7fe39fbc8220</title>
<path fill="#66cdaa" stroke="black" d="M799.42,-252C799.42,-252 758.42,-252 758.42,-252 752.42,-252 746.42,-246 746.42,-240 746.42,-240 746.42,-228 746.42,-228 746.42,-222 752.42,-216 758.42,-216 758.42,-216 799.42,-216 799.42,-216 805.42,-216 811.42,-222 811.42,-228 811.42,-228 811.42,-240 811.42,-240 811.42,-246 805.42,-252 799.42,-252"/>
<text text-anchor="middle" x="778.92" y="-230.3" font-family="Times,serif" font-size="14.00">Constant</text>
</g>
<!-- ast.Compare object at 0x7fe39fbc8370&#45;&gt;ast.Constant object at 0x7fe39fbc8220 -->
<g id="edge60" class="edge">
<title>ast.Compare object at 0x7fe39fbc8370&#45;&gt;ast.Constant object at 0x7fe39fbc8220</title>
<path fill="none" stroke="black" d="M826.35,-287.7C818.72,-279.22 809.4,-268.86 801.05,-259.58"/>
<polygon fill="black" stroke="black" points="803.61,-257.2 794.32,-252.1 798.41,-261.88 803.61,-257.2"/>
</g>
<!-- ast.Name object at 0x7fe39fbc81f0&#45;&gt;ast.Load object at 0x7fe3a55edff0 -->
<g id="edge58" class="edge">
<title>ast.Name object at 0x7fe39fbc81f0&#45;&gt;ast.Load object at 0x7fe3a55edff0</title>
<path fill="none" stroke="black" d="M849.17,-143.69C852.28,-124.78 859.26,-94.24 873.92,-72 881.31,-60.8 891.76,-50.68 902.02,-42.36"/>
<polygon fill="black" stroke="black" points="904.37,-44.97 910.15,-36.09 900.1,-39.43 904.37,-44.97"/>
</g>
<!-- ast.Call object at 0x7fe39fbc90f0 -->
<g id="node48" class="node">
<title>ast.Call object at 0x7fe39fbc90f0</title>
<path fill="#66cdaa" stroke="black" d="M1211.92,-252C1211.92,-252 1181.92,-252 1181.92,-252 1175.92,-252 1169.92,-246 1169.92,-240 1169.92,-240 1169.92,-228 1169.92,-228 1169.92,-222 1175.92,-216 1181.92,-216 1181.92,-216 1211.92,-216 1211.92,-216 1217.92,-216 1223.92,-222 1223.92,-228 1223.92,-228 1223.92,-240 1223.92,-240 1223.92,-246 1217.92,-252 1211.92,-252"/>
<text text-anchor="middle" x="1196.92" y="-230.3" font-family="Times,serif" font-size="14.00">Call</text>
</g>
<!-- ast.Expr object at 0x7fe39fbc84c0&#45;&gt;ast.Call object at 0x7fe39fbc90f0 -->
<g id="edge62" class="edge">
<title>ast.Expr object at 0x7fe39fbc84c0&#45;&gt;ast.Call object at 0x7fe39fbc90f0</title>
<path fill="none" stroke="black" d="M1178.1,-287.7C1180.92,-279.81 1184.32,-270.3 1187.44,-261.55"/>
<polygon fill="black" stroke="black" points="1190.75,-262.7 1190.82,-252.1 1184.16,-260.34 1190.75,-262.7"/>
</g>
<!-- ast.Attribute object at 0x7fe39fbc80a0 -->
<g id="node49" class="node">
<title>ast.Attribute object at 0x7fe39fbc80a0</title>
<path fill="#66cdaa" stroke="black" d="M1217.42,-180C1217.42,-180 1176.42,-180 1176.42,-180 1170.42,-180 1164.42,-174 1164.42,-168 1164.42,-168 1164.42,-156 1164.42,-156 1164.42,-150 1170.42,-144 1176.42,-144 1176.42,-144 1217.42,-144 1217.42,-144 1223.42,-144 1229.42,-150 1229.42,-156 1229.42,-156 1229.42,-168 1229.42,-168 1229.42,-174 1223.42,-180 1217.42,-180"/>
<text text-anchor="middle" x="1196.92" y="-158.3" font-family="Times,serif" font-size="14.00">Attribute</text>
</g>
<!-- ast.Call object at 0x7fe39fbc90f0&#45;&gt;ast.Attribute object at 0x7fe39fbc80a0 -->
<g id="edge63" class="edge">
<title>ast.Call object at 0x7fe39fbc90f0&#45;&gt;ast.Attribute object at 0x7fe39fbc80a0</title>
<path fill="none" stroke="black" d="M1196.92,-215.7C1196.92,-207.98 1196.92,-198.71 1196.92,-190.11"/>
<polygon fill="black" stroke="black" points="1200.42,-190.1 1196.92,-180.1 1193.42,-190.1 1200.42,-190.1"/>
</g>
<!-- ast.Name object at 0x7fe39fbc97b0 -->
<g id="node51" class="node">
<title>ast.Name object at 0x7fe39fbc97b0</title>
<path fill="#66cdaa" stroke="black" d="M1291.92,-180C1291.92,-180 1261.92,-180 1261.92,-180 1255.92,-180 1249.92,-174 1249.92,-168 1249.92,-168 1249.92,-156 1249.92,-156 1249.92,-150 1255.92,-144 1261.92,-144 1261.92,-144 1291.92,-144 1291.92,-144 1297.92,-144 1303.92,-150 1303.92,-156 1303.92,-156 1303.92,-168 1303.92,-168 1303.92,-174 1297.92,-180 1291.92,-180"/>
<text text-anchor="middle" x="1276.92" y="-158.3" font-family="Times,serif" font-size="14.00">Name</text>
</g>
<!-- ast.Call object at 0x7fe39fbc90f0&#45;&gt;ast.Name object at 0x7fe39fbc97b0 -->
<g id="edge67" class="edge">
<title>ast.Call object at 0x7fe39fbc90f0&#45;&gt;ast.Name object at 0x7fe39fbc97b0</title>
<path fill="none" stroke="black" d="M1216.7,-215.7C1226.68,-206.97 1238.94,-196.24 1249.78,-186.75"/>
<polygon fill="black" stroke="black" points="1252.16,-189.32 1257.38,-180.1 1247.55,-184.06 1252.16,-189.32"/>
</g>
<!-- ast.Attribute object at 0x7fe39fbc80a0&#45;&gt;ast.Load object at 0x7fe3a55edff0 -->
<g id="edge66" class="edge">
<title>ast.Attribute object at 0x7fe39fbc80a0&#45;&gt;ast.Load object at 0x7fe3a55edff0</title>
<path fill="none" stroke="black" d="M1195.79,-143.91C1193.5,-123.73 1186.62,-90.58 1165.92,-72 1137.98,-46.91 1031.86,-30.51 974.41,-23.26"/>
<polygon fill="black" stroke="black" points="974.63,-19.76 964.28,-22.02 973.77,-26.71 974.63,-19.76"/>
</g>
<!-- ast.Name object at 0x7fe39fbcba60 -->
<g id="node50" class="node">
<title>ast.Name object at 0x7fe39fbcba60</title>
<path fill="#66cdaa" stroke="black" d="M1254.92,-108C1254.92,-108 1224.92,-108 1224.92,-108 1218.92,-108 1212.92,-102 1212.92,-96 1212.92,-96 1212.92,-84 1212.92,-84 1212.92,-78 1218.92,-72 1224.92,-72 1224.92,-72 1254.92,-72 1254.92,-72 1260.92,-72 1266.92,-78 1266.92,-84 1266.92,-84 1266.92,-96 1266.92,-96 1266.92,-102 1260.92,-108 1254.92,-108"/>
<text text-anchor="middle" x="1239.92" y="-86.3" font-family="Times,serif" font-size="14.00">Name</text>
</g>
<!-- ast.Attribute object at 0x7fe39fbc80a0&#45;&gt;ast.Name object at 0x7fe39fbcba60 -->
<g id="edge64" class="edge">
<title>ast.Attribute object at 0x7fe39fbc80a0&#45;&gt;ast.Name object at 0x7fe39fbcba60</title>
<path fill="none" stroke="black" d="M1207.55,-143.7C1212.55,-135.56 1218.62,-125.69 1224.14,-116.7"/>
<polygon fill="black" stroke="black" points="1227.17,-118.46 1229.42,-108.1 1221.2,-114.79 1227.17,-118.46"/>
</g>
<!-- ast.Name object at 0x7fe39fbcba60&#45;&gt;ast.Load object at 0x7fe3a55edff0 -->
<g id="edge65" class="edge">
<title>ast.Name object at 0x7fe39fbcba60&#45;&gt;ast.Load object at 0x7fe3a55edff0</title>
<path fill="none" stroke="black" d="M1212.85,-76.91C1208.25,-75.11 1203.49,-73.4 1198.92,-72 1120.44,-48.04 1025.39,-31.89 974.09,-24.2"/>
<polygon fill="black" stroke="black" points="974.54,-20.73 964.13,-22.73 973.51,-27.65 974.54,-20.73"/>
</g>
<!-- ast.Name object at 0x7fe39fbc97b0&#45;&gt;ast.Load object at 0x7fe3a55edff0 -->
<g id="edge68" class="edge">
<title>ast.Name object at 0x7fe39fbc97b0&#45;&gt;ast.Load object at 0x7fe3a55edff0</title>
<path fill="none" stroke="black" d="M1282.58,-143.99C1287.98,-124.21 1293.02,-91.75 1275.92,-72 1237.12,-27.17 1053.69,-20.01 974.01,-19.05"/>
<polygon fill="black" stroke="black" points="973.97,-15.55 963.93,-18.95 973.9,-22.55 973.97,-15.55"/>
</g>
<!-- ast.Name object at 0x7fe39fab00a0 -->
<g id="node53" class="node">
<title>ast.Name object at 0x7fe39fab00a0</title>
<path fill="#66cdaa" stroke="black" d="M1298.92,-324C1298.92,-324 1268.92,-324 1268.92,-324 1262.92,-324 1256.92,-318 1256.92,-312 1256.92,-312 1256.92,-300 1256.92,-300 1256.92,-294 1262.92,-288 1268.92,-288 1268.92,-288 1298.92,-288 1298.92,-288 1304.92,-288 1310.92,-294 1310.92,-300 1310.92,-300 1310.92,-312 1310.92,-312 1310.92,-318 1304.92,-324 1298.92,-324"/>
<text text-anchor="middle" x="1283.92" y="-302.3" font-family="Times,serif" font-size="14.00">Name</text>
</g>
<!-- ast.Return object at 0x7fe39fbcb370&#45;&gt;ast.Name object at 0x7fe39fab00a0 -->
<g id="edge70" class="edge">
<title>ast.Return object at 0x7fe39fbcb370&#45;&gt;ast.Name object at 0x7fe39fab00a0</title>
<path fill="none" stroke="black" d="M1018.09,-503.85C1069.66,-465.66 1194.02,-373.57 1252.52,-330.26"/>
<polygon fill="black" stroke="black" points="1254.7,-333 1260.65,-324.23 1250.53,-327.37 1254.7,-333"/>
</g>
<!-- ast.Name object at 0x7fe39fab00a0&#45;&gt;ast.Load object at 0x7fe3a55edff0 -->
<g id="edge71" class="edge">
<title>ast.Name object at 0x7fe39fab00a0&#45;&gt;ast.Load object at 0x7fe3a55edff0</title>
<path fill="none" stroke="black" d="M1292.3,-287.95C1312.38,-244.35 1357.24,-128.3 1295.92,-72 1249.52,-29.39 1056.54,-21.01 974.3,-19.38"/>
<polygon fill="black" stroke="black" points="974.21,-15.88 964.15,-19.2 974.09,-22.88 974.21,-15.88"/>
</g>
</g>
</svg>
