<?xml version="1.0" encoding="UTF-8" standalone="no"?>
<!DOCTYPE svg PUBLIC "-//W3C//DTD SVG 1.1//EN"
 "http://www.w3.org/Graphics/SVG/1.1/DTD/svg11.dtd">
<!-- Generated by graphviz version 2.43.0 (0)
 -->
<!-- Title: %3 Pages: 1 -->
<svg width="793pt" height="836pt"
 viewBox="0.00 0.00 792.50 836.00" xmlns="http://www.w3.org/2000/svg" xmlns:xlink="http://www.w3.org/1999/xlink">
<g id="graph0" class="graph" transform="scale(1 1) rotate(0) translate(4 832)">
<title>%3</title>
<polygon fill="white" stroke="transparent" points="-4,4 -4,-832 788.5,-832 788.5,4 -4,4"/>
<!-- ast.Module object at 0x7f8524fbb4c0 -->
<g id="node1" class="node">
<title>ast.Module object at 0x7f8524fbb4c0</title>
<path fill="#66cdaa" stroke="black" d="M95.5,-828C95.5,-828 60.5,-828 60.5,-828 54.5,-828 48.5,-822 48.5,-816 48.5,-816 48.5,-804 48.5,-804 48.5,-798 54.5,-792 60.5,-792 60.5,-792 95.5,-792 95.5,-792 101.5,-792 107.5,-798 107.5,-804 107.5,-804 107.5,-816 107.5,-816 107.5,-822 101.5,-828 95.5,-828"/>
<text text-anchor="middle" x="78" y="-806.3" font-family="Times,serif" font-size="14.00">Module</text>
</g>
<!-- ast.FunctionDef object at 0x7f8524fb9a50 -->
<g id="node2" class="node">
<title>ast.FunctionDef object at 0x7f8524fb9a50</title>
<path fill="#66cdaa" stroke="black" d="M108.5,-756C108.5,-756 47.5,-756 47.5,-756 41.5,-756 35.5,-750 35.5,-744 35.5,-744 35.5,-732 35.5,-732 35.5,-726 41.5,-720 47.5,-720 47.5,-720 108.5,-720 108.5,-720 114.5,-720 120.5,-726 120.5,-732 120.5,-732 120.5,-744 120.5,-744 120.5,-750 114.5,-756 108.5,-756"/>
<text text-anchor="middle" x="78" y="-734.3" font-family="Times,serif" font-size="14.00">FunctionDef</text>
</g>
<!-- ast.Module object at 0x7f8524fbb4c0&#45;&gt;ast.FunctionDef object at 0x7f8524fb9a50 -->
<g id="edge1" class="edge">
<title>ast.Module object at 0x7f8524fbb4c0&#45;&gt;ast.FunctionDef object at 0x7f8524fb9a50</title>
<path fill="none" stroke="black" d="M78,-791.7C78,-783.98 78,-774.71 78,-766.11"/>
<polygon fill="black" stroke="black" points="81.5,-766.1 78,-756.1 74.5,-766.1 81.5,-766.1"/>
</g>
<!-- ast.arguments object at 0x7f8524fbbdf0 -->
<g id="node3" class="node">
<title>ast.arguments object at 0x7f8524fbbdf0</title>
<path fill="#66cdaa" stroke="black" d="M62,-684C62,-684 12,-684 12,-684 6,-684 0,-678 0,-672 0,-672 0,-660 0,-660 0,-654 6,-648 12,-648 12,-648 62,-648 62,-648 68,-648 74,-654 74,-660 74,-660 74,-672 74,-672 74,-678 68,-684 62,-684"/>
<text text-anchor="middle" x="37" y="-662.3" font-family="Times,serif" font-size="14.00">arguments</text>
</g>
<!-- ast.FunctionDef object at 0x7f8524fb9a50&#45;&gt;ast.arguments object at 0x7f8524fbbdf0 -->
<g id="edge2" class="edge">
<title>ast.FunctionDef object at 0x7f8524fb9a50&#45;&gt;ast.arguments object at 0x7f8524fbbdf0</title>
<path fill="none" stroke="black" d="M67.87,-719.7C63.15,-711.64 57.44,-701.89 52.22,-692.98"/>
<polygon fill="black" stroke="black" points="55.09,-690.96 47.02,-684.1 49.05,-694.5 55.09,-690.96"/>
</g>
<!-- ast.Return object at 0x7f8524fbb220 -->
<g id="node5" class="node">
<title>ast.Return object at 0x7f8524fbb220</title>
<path fill="#66cdaa" stroke="black" d="M134,-684C134,-684 104,-684 104,-684 98,-684 92,-678 92,-672 92,-672 92,-660 92,-660 92,-654 98,-648 104,-648 104,-648 134,-648 134,-648 140,-648 146,-654 146,-660 146,-660 146,-672 146,-672 146,-678 140,-684 134,-684"/>
<text text-anchor="middle" x="119" y="-662.3" font-family="Times,serif" font-size="14.00">Return</text>
</g>
<!-- ast.FunctionDef object at 0x7f8524fb9a50&#45;&gt;ast.Return object at 0x7f8524fbb220 -->
<g id="edge4" class="edge">
<title>ast.FunctionDef object at 0x7f8524fb9a50&#45;&gt;ast.Return object at 0x7f8524fbb220</title>
<path fill="none" stroke="black" d="M88.13,-719.7C92.85,-711.64 98.56,-701.89 103.78,-692.98"/>
<polygon fill="black" stroke="black" points="106.95,-694.5 108.98,-684.1 100.91,-690.96 106.95,-694.5"/>
</g>
<!-- ast.arg object at 0x7f8524fbb100 -->
<g id="node4" class="node">
<title>ast.arg object at 0x7f8524fbb100</title>
<path fill="#66cdaa" stroke="black" d="M52,-612C52,-612 22,-612 22,-612 16,-612 10,-606 10,-600 10,-600 10,-588 10,-588 10,-582 16,-576 22,-576 22,-576 52,-576 52,-576 58,-576 64,-582 64,-588 64,-588 64,-600 64,-600 64,-606 58,-612 52,-612"/>
<text text-anchor="middle" x="37" y="-590.3" font-family="Times,serif" font-size="14.00">arg</text>
</g>
<!-- ast.arguments object at 0x7f8524fbbdf0&#45;&gt;ast.arg object at 0x7f8524fbb100 -->
<g id="edge3" class="edge">
<title>ast.arguments object at 0x7f8524fbbdf0&#45;&gt;ast.arg object at 0x7f8524fbb100</title>
<path fill="none" stroke="black" d="M37,-647.7C37,-639.98 37,-630.71 37,-622.11"/>
<polygon fill="black" stroke="black" points="40.5,-622.1 37,-612.1 33.5,-622.1 40.5,-622.1"/>
</g>
<!-- ast.Call object at 0x7f8524fbb130 -->
<g id="node6" class="node">
<title>ast.Call object at 0x7f8524fbb130</title>
<path fill="#66cdaa" stroke="black" d="M134,-612C134,-612 104,-612 104,-612 98,-612 92,-606 92,-600 92,-600 92,-588 92,-588 92,-582 98,-576 104,-576 104,-576 134,-576 134,-576 140,-576 146,-582 146,-588 146,-588 146,-600 146,-600 146,-606 140,-612 134,-612"/>
<text text-anchor="middle" x="119" y="-590.3" font-family="Times,serif" font-size="14.00">Call</text>
</g>
<!-- ast.Return object at 0x7f8524fbb220&#45;&gt;ast.Call object at 0x7f8524fbb130 -->
<g id="edge5" class="edge">
<title>ast.Return object at 0x7f8524fbb220&#45;&gt;ast.Call object at 0x7f8524fbb130</title>
<path fill="none" stroke="black" d="M119,-647.7C119,-639.98 119,-630.71 119,-622.11"/>
<polygon fill="black" stroke="black" points="122.5,-622.1 119,-612.1 115.5,-622.1 122.5,-622.1"/>
</g>
<!-- ast.Name object at 0x7f8524fb9000 -->
<g id="node7" class="node">
<title>ast.Name object at 0x7f8524fb9000</title>
<path fill="#66cdaa" stroke="black" d="M86,-468C86,-468 56,-468 56,-468 50,-468 44,-462 44,-456 44,-456 44,-444 44,-444 44,-438 50,-432 56,-432 56,-432 86,-432 86,-432 92,-432 98,-438 98,-444 98,-444 98,-456 98,-456 98,-462 92,-468 86,-468"/>
<text text-anchor="middle" x="71" y="-446.3" font-family="Times,serif" font-size="14.00">Name</text>
</g>
<!-- ast.Call object at 0x7f8524fbb130&#45;&gt;ast.Name object at 0x7f8524fb9000 -->
<g id="edge6" class="edge">
<title>ast.Call object at 0x7f8524fbb130&#45;&gt;ast.Name object at 0x7f8524fb9000</title>
<path fill="none" stroke="black" d="M113.21,-575.87C104.99,-551.56 89.87,-506.82 80.13,-478.01"/>
<polygon fill="black" stroke="black" points="83.33,-476.54 76.81,-468.19 76.7,-478.78 83.33,-476.54"/>
</g>
<!-- ast.GeneratorExp object at 0x7f8524fb89a0 -->
<g id="node9" class="node">
<title>ast.GeneratorExp object at 0x7f8524fb89a0</title>
<path fill="#66cdaa" stroke="black" d="M193,-540C193,-540 125,-540 125,-540 119,-540 113,-534 113,-528 113,-528 113,-516 113,-516 113,-510 119,-504 125,-504 125,-504 193,-504 193,-504 199,-504 205,-510 205,-516 205,-516 205,-528 205,-528 205,-534 199,-540 193,-540"/>
<text text-anchor="middle" x="159" y="-518.3" font-family="Times,serif" font-size="14.00">GeneratorExp</text>
</g>
<!-- ast.Call object at 0x7f8524fbb130&#45;&gt;ast.GeneratorExp object at 0x7f8524fb89a0 -->
<g id="edge8" class="edge">
<title>ast.Call object at 0x7f8524fbb130&#45;&gt;ast.GeneratorExp object at 0x7f8524fb89a0</title>
<path fill="none" stroke="black" d="M128.89,-575.7C133.49,-567.64 139.06,-557.89 144.15,-548.98"/>
<polygon fill="black" stroke="black" points="147.3,-550.52 149.23,-540.1 141.23,-547.05 147.3,-550.52"/>
</g>
<!-- ast.Load object at 0x7f85cf315540 -->
<g id="node8" class="node">
<title>ast.Load object at 0x7f85cf315540</title>
<path fill="#66cdaa" stroke="black" d="M339,-36C339,-36 309,-36 309,-36 303,-36 297,-30 297,-24 297,-24 297,-12 297,-12 297,-6 303,0 309,0 309,0 339,0 339,0 345,0 351,-6 351,-12 351,-12 351,-24 351,-24 351,-30 345,-36 339,-36"/>
<text text-anchor="middle" x="324" y="-14.3" font-family="Times,serif" font-size="14.00">Load</text>
</g>
<!-- ast.Name object at 0x7f8524fb9000&#45;&gt;ast.Load object at 0x7f85cf315540 -->
<g id="edge7" class="edge">
<title>ast.Name object at 0x7f8524fb9000&#45;&gt;ast.Load object at 0x7f85cf315540</title>
<path fill="none" stroke="black" d="M70.01,-431.96C68.56,-405.31 66,-352.14 66,-307 66,-307 66,-307 66,-161 66,-116.27 77.81,-99.62 113,-72 163.99,-31.97 241.45,-21.79 286.97,-19.43"/>
<polygon fill="black" stroke="black" points="287.15,-22.93 297,-19.01 286.86,-15.93 287.15,-22.93"/>
</g>
<!-- ast.Subscript object at 0x7f8524fbb190 -->
<g id="node10" class="node">
<title>ast.Subscript object at 0x7f8524fbb190</title>
<path fill="#66cdaa" stroke="black" d="M181,-180C181,-180 137,-180 137,-180 131,-180 125,-174 125,-168 125,-168 125,-156 125,-156 125,-150 131,-144 137,-144 137,-144 181,-144 181,-144 187,-144 193,-150 193,-156 193,-156 193,-168 193,-168 193,-174 187,-180 181,-180"/>
<text text-anchor="middle" x="159" y="-158.3" font-family="Times,serif" font-size="14.00">Subscript</text>
</g>
<!-- ast.GeneratorExp object at 0x7f8524fb89a0&#45;&gt;ast.Subscript object at 0x7f8524fbb190 -->
<g id="edge9" class="edge">
<title>ast.GeneratorExp object at 0x7f8524fb89a0&#45;&gt;ast.Subscript object at 0x7f8524fbb190</title>
<path fill="none" stroke="black" d="M159,-503.95C159,-477.29 159,-424.11 159,-379 159,-379 159,-379 159,-305 159,-265 159,-218.65 159,-190.08"/>
<polygon fill="black" stroke="black" points="162.5,-190.05 159,-180.05 155.5,-190.05 162.5,-190.05"/>
</g>
<!-- ast.comprehension object at 0x7f8524fbb730 -->
<g id="node13" class="node">
<title>ast.comprehension object at 0x7f8524fbb730</title>
<path fill="#66cdaa" stroke="black" d="M310,-468C310,-468 234,-468 234,-468 228,-468 222,-462 222,-456 222,-456 222,-444 222,-444 222,-438 228,-432 234,-432 234,-432 310,-432 310,-432 316,-432 322,-438 322,-444 322,-444 322,-456 322,-456 322,-462 316,-468 310,-468"/>
<text text-anchor="middle" x="272" y="-446.3" font-family="Times,serif" font-size="14.00">comprehension</text>
</g>
<!-- ast.GeneratorExp object at 0x7f8524fb89a0&#45;&gt;ast.comprehension object at 0x7f8524fbb730 -->
<g id="edge15" class="edge">
<title>ast.GeneratorExp object at 0x7f8524fb89a0&#45;&gt;ast.comprehension object at 0x7f8524fbb730</title>
<path fill="none" stroke="black" d="M186.64,-503.88C201.42,-494.72 219.79,-483.34 235.7,-473.48"/>
<polygon fill="black" stroke="black" points="237.59,-476.43 244.25,-468.19 233.91,-470.48 237.59,-476.43"/>
</g>
<!-- ast.Subscript object at 0x7f8524fbb190&#45;&gt;ast.Load object at 0x7f85cf315540 -->
<g id="edge14" class="edge">
<title>ast.Subscript object at 0x7f8524fbb190&#45;&gt;ast.Load object at 0x7f85cf315540</title>
<path fill="none" stroke="black" d="M142.52,-143.86C126.26,-124.83 106.11,-93.92 123,-72 142.88,-46.2 234.62,-30.44 287.02,-23.38"/>
<polygon fill="black" stroke="black" points="287.48,-26.85 296.95,-22.09 286.58,-19.91 287.48,-26.85"/>
</g>
<!-- ast.Name object at 0x7f8524fb8790 -->
<g id="node11" class="node">
<title>ast.Name object at 0x7f8524fb8790</title>
<path fill="#66cdaa" stroke="black" d="M174,-108C174,-108 144,-108 144,-108 138,-108 132,-102 132,-96 132,-96 132,-84 132,-84 132,-78 138,-72 144,-72 144,-72 174,-72 174,-72 180,-72 186,-78 186,-84 186,-84 186,-96 186,-96 186,-102 180,-108 174,-108"/>
<text text-anchor="middle" x="159" y="-86.3" font-family="Times,serif" font-size="14.00">Name</text>
</g>
<!-- ast.Subscript object at 0x7f8524fbb190&#45;&gt;ast.Name object at 0x7f8524fb8790 -->
<g id="edge10" class="edge">
<title>ast.Subscript object at 0x7f8524fbb190&#45;&gt;ast.Name object at 0x7f8524fb8790</title>
<path fill="none" stroke="black" d="M159,-143.7C159,-135.98 159,-126.71 159,-118.11"/>
<polygon fill="black" stroke="black" points="162.5,-118.1 159,-108.1 155.5,-118.1 162.5,-118.1"/>
</g>
<!-- ast.Name object at 0x7f8524fbbbe0 -->
<g id="node12" class="node">
<title>ast.Name object at 0x7f8524fbbbe0</title>
<path fill="#66cdaa" stroke="black" d="M246,-108C246,-108 216,-108 216,-108 210,-108 204,-102 204,-96 204,-96 204,-84 204,-84 204,-78 210,-72 216,-72 216,-72 246,-72 246,-72 252,-72 258,-78 258,-84 258,-84 258,-96 258,-96 258,-102 252,-108 246,-108"/>
<text text-anchor="middle" x="231" y="-86.3" font-family="Times,serif" font-size="14.00">Name</text>
</g>
<!-- ast.Subscript object at 0x7f8524fbb190&#45;&gt;ast.Name object at 0x7f8524fbbbe0 -->
<g id="edge12" class="edge">
<title>ast.Subscript object at 0x7f8524fbb190&#45;&gt;ast.Name object at 0x7f8524fbbbe0</title>
<path fill="none" stroke="black" d="M176.8,-143.7C185.6,-135.14 196.38,-124.66 206,-115.3"/>
<polygon fill="black" stroke="black" points="208.68,-117.58 213.41,-108.1 203.8,-112.57 208.68,-117.58"/>
</g>
<!-- ast.Name object at 0x7f8524fb8790&#45;&gt;ast.Load object at 0x7f85cf315540 -->
<g id="edge11" class="edge">
<title>ast.Name object at 0x7f8524fb8790&#45;&gt;ast.Load object at 0x7f85cf315540</title>
<path fill="none" stroke="black" d="M186.06,-76.04C189.07,-74.65 192.09,-73.28 195,-72 225.84,-58.39 261.29,-43.91 287.21,-33.53"/>
<polygon fill="black" stroke="black" points="288.66,-36.72 296.65,-29.76 286.06,-30.22 288.66,-36.72"/>
</g>
<!-- ast.Name object at 0x7f8524fbbbe0&#45;&gt;ast.Load object at 0x7f85cf315540 -->
<g id="edge13" class="edge">
<title>ast.Name object at 0x7f8524fbbbe0&#45;&gt;ast.Load object at 0x7f85cf315540</title>
<path fill="none" stroke="black" d="M253.99,-71.7C265.81,-62.8 280.39,-51.82 293.18,-42.2"/>
<polygon fill="black" stroke="black" points="295.39,-44.91 301.28,-36.1 291.18,-39.32 295.39,-44.91"/>
</g>
<!-- ast.Name object at 0x7f8524fbbc70 -->
<g id="node14" class="node">
<title>ast.Name object at 0x7f8524fbbc70</title>
<path fill="#66cdaa" stroke="black" d="M251,-396C251,-396 221,-396 221,-396 215,-396 209,-390 209,-384 209,-384 209,-372 209,-372 209,-366 215,-360 221,-360 221,-360 251,-360 251,-360 257,-360 263,-366 263,-372 263,-372 263,-384 263,-384 263,-390 257,-396 251,-396"/>
<text text-anchor="middle" x="236" y="-374.3" font-family="Times,serif" font-size="14.00">Name</text>
</g>
<!-- ast.comprehension object at 0x7f8524fbb730&#45;&gt;ast.Name object at 0x7f8524fbbc70 -->
<g id="edge16" class="edge">
<title>ast.comprehension object at 0x7f8524fbb730&#45;&gt;ast.Name object at 0x7f8524fbbc70</title>
<path fill="none" stroke="black" d="M263.1,-431.7C259,-423.73 254.05,-414.1 249.51,-405.26"/>
<polygon fill="black" stroke="black" points="252.48,-403.4 244.8,-396.1 246.26,-406.6 252.48,-403.4"/>
</g>
<!-- ast.Call object at 0x7f8524fb90f0 -->
<g id="node16" class="node">
<title>ast.Call object at 0x7f8524fb90f0</title>
<path fill="#66cdaa" stroke="black" d="M340,-396C340,-396 310,-396 310,-396 304,-396 298,-390 298,-384 298,-384 298,-372 298,-372 298,-366 304,-360 310,-360 310,-360 340,-360 340,-360 346,-360 352,-366 352,-372 352,-372 352,-384 352,-384 352,-390 346,-396 340,-396"/>
<text text-anchor="middle" x="325" y="-374.3" font-family="Times,serif" font-size="14.00">Call</text>
</g>
<!-- ast.comprehension object at 0x7f8524fbb730&#45;&gt;ast.Call object at 0x7f8524fb90f0 -->
<g id="edge18" class="edge">
<title>ast.comprehension object at 0x7f8524fbb730&#45;&gt;ast.Call object at 0x7f8524fb90f0</title>
<path fill="none" stroke="black" d="M285.1,-431.7C291.39,-423.39 299.05,-413.28 305.96,-404.14"/>
<polygon fill="black" stroke="black" points="308.8,-406.19 312.05,-396.1 303.22,-401.96 308.8,-406.19"/>
</g>
<!-- ast.BoolOp object at 0x7f8524fbb9d0 -->
<g id="node20" class="node">
<title>ast.BoolOp object at 0x7f8524fbb9d0</title>
<path fill="#66cdaa" stroke="black" d="M552.5,-396C552.5,-396 517.5,-396 517.5,-396 511.5,-396 505.5,-390 505.5,-384 505.5,-384 505.5,-372 505.5,-372 505.5,-366 511.5,-360 517.5,-360 517.5,-360 552.5,-360 552.5,-360 558.5,-360 564.5,-366 564.5,-372 564.5,-372 564.5,-384 564.5,-384 564.5,-390 558.5,-396 552.5,-396"/>
<text text-anchor="middle" x="535" y="-374.3" font-family="Times,serif" font-size="14.00">BoolOp</text>
</g>
<!-- ast.comprehension object at 0x7f8524fbb730&#45;&gt;ast.BoolOp object at 0x7f8524fbb9d0 -->
<g id="edge23" class="edge">
<title>ast.comprehension object at 0x7f8524fbb730&#45;&gt;ast.BoolOp object at 0x7f8524fbb9d0</title>
<path fill="none" stroke="black" d="M322.09,-435.67C372.49,-422.25 449.2,-401.84 495.47,-389.52"/>
<polygon fill="black" stroke="black" points="496.38,-392.9 505.15,-386.95 494.58,-386.14 496.38,-392.9"/>
</g>
<!-- ast.Store object at 0x7f85cf3155a0 -->
<g id="node15" class="node">
<title>ast.Store object at 0x7f85cf3155a0</title>
<path fill="#66cdaa" stroke="black" d="M234,-324C234,-324 204,-324 204,-324 198,-324 192,-318 192,-312 192,-312 192,-300 192,-300 192,-294 198,-288 204,-288 204,-288 234,-288 234,-288 240,-288 246,-294 246,-300 246,-300 246,-312 246,-312 246,-318 240,-324 234,-324"/>
<text text-anchor="middle" x="219" y="-302.3" font-family="Times,serif" font-size="14.00">Store</text>
</g>
<!-- ast.Name object at 0x7f8524fbbc70&#45;&gt;ast.Store object at 0x7f85cf3155a0 -->
<g id="edge17" class="edge">
<title>ast.Name object at 0x7f8524fbbc70&#45;&gt;ast.Store object at 0x7f85cf3155a0</title>
<path fill="none" stroke="black" d="M231.8,-359.7C229.9,-351.9 227.62,-342.51 225.52,-333.83"/>
<polygon fill="black" stroke="black" points="228.92,-333 223.15,-324.1 222.11,-334.65 228.92,-333"/>
</g>
<!-- ast.Name object at 0x7f8524fb9b10 -->
<g id="node17" class="node">
<title>ast.Name object at 0x7f8524fb9b10</title>
<path fill="#66cdaa" stroke="black" d="M295,-252C295,-252 265,-252 265,-252 259,-252 253,-246 253,-240 253,-240 253,-228 253,-228 253,-222 259,-216 265,-216 265,-216 295,-216 295,-216 301,-216 307,-222 307,-228 307,-228 307,-240 307,-240 307,-246 301,-252 295,-252"/>
<text text-anchor="middle" x="280" y="-230.3" font-family="Times,serif" font-size="14.00">Name</text>
</g>
<!-- ast.Call object at 0x7f8524fb90f0&#45;&gt;ast.Name object at 0x7f8524fb9b10 -->
<g id="edge19" class="edge">
<title>ast.Call object at 0x7f8524fb90f0&#45;&gt;ast.Name object at 0x7f8524fb9b10</title>
<path fill="none" stroke="black" d="M312.16,-359.74C305.39,-349.79 297.57,-336.75 293,-324 285.86,-304.06 282.63,-280.27 281.18,-262.31"/>
<polygon fill="black" stroke="black" points="284.67,-261.96 280.5,-252.22 277.68,-262.43 284.67,-261.96"/>
</g>
<!-- ast.Constant object at 0x7f8524fbaf80 -->
<g id="node18" class="node">
<title>ast.Constant object at 0x7f8524fbaf80</title>
<path fill="#66cdaa" stroke="black" d="M355.5,-324C355.5,-324 314.5,-324 314.5,-324 308.5,-324 302.5,-318 302.5,-312 302.5,-312 302.5,-300 302.5,-300 302.5,-294 308.5,-288 314.5,-288 314.5,-288 355.5,-288 355.5,-288 361.5,-288 367.5,-294 367.5,-300 367.5,-300 367.5,-312 367.5,-312 367.5,-318 361.5,-324 355.5,-324"/>
<text text-anchor="middle" x="335" y="-302.3" font-family="Times,serif" font-size="14.00">Constant</text>
</g>
<!-- ast.Call object at 0x7f8524fb90f0&#45;&gt;ast.Constant object at 0x7f8524fbaf80 -->
<g id="edge21" class="edge">
<title>ast.Call object at 0x7f8524fb90f0&#45;&gt;ast.Constant object at 0x7f8524fbaf80</title>
<path fill="none" stroke="black" d="M327.47,-359.7C328.57,-351.98 329.9,-342.71 331.13,-334.11"/>
<polygon fill="black" stroke="black" points="334.61,-334.5 332.56,-324.1 327.68,-333.51 334.61,-334.5"/>
</g>
<!-- ast.Constant object at 0x7f8524fb9330 -->
<g id="node19" class="node">
<title>ast.Constant object at 0x7f8524fb9330</title>
<path fill="#66cdaa" stroke="black" d="M438.5,-324C438.5,-324 397.5,-324 397.5,-324 391.5,-324 385.5,-318 385.5,-312 385.5,-312 385.5,-300 385.5,-300 385.5,-294 391.5,-288 397.5,-288 397.5,-288 438.5,-288 438.5,-288 444.5,-288 450.5,-294 450.5,-300 450.5,-300 450.5,-312 450.5,-312 450.5,-318 444.5,-324 438.5,-324"/>
<text text-anchor="middle" x="418" y="-302.3" font-family="Times,serif" font-size="14.00">Constant</text>
</g>
<!-- ast.Call object at 0x7f8524fb90f0&#45;&gt;ast.Constant object at 0x7f8524fb9330 -->
<g id="edge22" class="edge">
<title>ast.Call object at 0x7f8524fb90f0&#45;&gt;ast.Constant object at 0x7f8524fb9330</title>
<path fill="none" stroke="black" d="M347.99,-359.7C359.81,-350.8 374.39,-339.82 387.18,-330.2"/>
<polygon fill="black" stroke="black" points="389.39,-332.91 395.28,-324.1 385.18,-327.32 389.39,-332.91"/>
</g>
<!-- ast.Name object at 0x7f8524fb9b10&#45;&gt;ast.Load object at 0x7f85cf315540 -->
<g id="edge20" class="edge">
<title>ast.Name object at 0x7f8524fb9b10&#45;&gt;ast.Load object at 0x7f85cf315540</title>
<path fill="none" stroke="black" d="M283.53,-215.85C291.15,-178.75 309.24,-90.81 318.43,-46.1"/>
<polygon fill="black" stroke="black" points="321.87,-46.73 320.46,-36.23 315.01,-45.32 321.87,-46.73"/>
</g>
<!-- ast.Or object at 0x7f85cf3156f0 -->
<g id="node21" class="node">
<title>ast.Or object at 0x7f85cf3156f0</title>
<path fill="#66cdaa" stroke="black" d="M511,-324C511,-324 481,-324 481,-324 475,-324 469,-318 469,-312 469,-312 469,-300 469,-300 469,-294 475,-288 481,-288 481,-288 511,-288 511,-288 517,-288 523,-294 523,-300 523,-300 523,-312 523,-312 523,-318 517,-324 511,-324"/>
<text text-anchor="middle" x="496" y="-302.3" font-family="Times,serif" font-size="14.00">Or</text>
</g>
<!-- ast.BoolOp object at 0x7f8524fbb9d0&#45;&gt;ast.Or object at 0x7f85cf3156f0 -->
<g id="edge24" class="edge">
<title>ast.BoolOp object at 0x7f8524fbb9d0&#45;&gt;ast.Or object at 0x7f85cf3156f0</title>
<path fill="none" stroke="black" d="M525.36,-359.7C520.87,-351.64 515.44,-341.89 510.48,-332.98"/>
<polygon fill="black" stroke="black" points="513.45,-331.14 505.53,-324.1 507.34,-334.54 513.45,-331.14"/>
</g>
<!-- ast.Compare object at 0x7f8524fb8250 -->
<g id="node22" class="node">
<title>ast.Compare object at 0x7f8524fb8250</title>
<path fill="#66cdaa" stroke="black" d="M596.5,-324C596.5,-324 553.5,-324 553.5,-324 547.5,-324 541.5,-318 541.5,-312 541.5,-312 541.5,-300 541.5,-300 541.5,-294 547.5,-288 553.5,-288 553.5,-288 596.5,-288 596.5,-288 602.5,-288 608.5,-294 608.5,-300 608.5,-300 608.5,-312 608.5,-312 608.5,-318 602.5,-324 596.5,-324"/>
<text text-anchor="middle" x="575" y="-302.3" font-family="Times,serif" font-size="14.00">Compare</text>
</g>
<!-- ast.BoolOp object at 0x7f8524fbb9d0&#45;&gt;ast.Compare object at 0x7f8524fb8250 -->
<g id="edge25" class="edge">
<title>ast.BoolOp object at 0x7f8524fbb9d0&#45;&gt;ast.Compare object at 0x7f8524fb8250</title>
<path fill="none" stroke="black" d="M544.89,-359.7C549.49,-351.64 555.06,-341.89 560.15,-332.98"/>
<polygon fill="black" stroke="black" points="563.3,-334.52 565.23,-324.1 557.23,-331.05 563.3,-334.52"/>
</g>
<!-- ast.Compare object at 0x7f8524fb95a0 -->
<g id="node31" class="node">
<title>ast.Compare object at 0x7f8524fb95a0</title>
<path fill="#66cdaa" stroke="black" d="M692.5,-324C692.5,-324 649.5,-324 649.5,-324 643.5,-324 637.5,-318 637.5,-312 637.5,-312 637.5,-300 637.5,-300 637.5,-294 643.5,-288 649.5,-288 649.5,-288 692.5,-288 692.5,-288 698.5,-288 704.5,-294 704.5,-300 704.5,-300 704.5,-312 704.5,-312 704.5,-318 698.5,-324 692.5,-324"/>
<text text-anchor="middle" x="671" y="-302.3" font-family="Times,serif" font-size="14.00">Compare</text>
</g>
<!-- ast.BoolOp object at 0x7f8524fbb9d0&#45;&gt;ast.Compare object at 0x7f8524fb95a0 -->
<g id="edge37" class="edge">
<title>ast.BoolOp object at 0x7f8524fbb9d0&#45;&gt;ast.Compare object at 0x7f8524fb95a0</title>
<path fill="none" stroke="black" d="M564.51,-361.81C583.29,-352.14 607.92,-339.47 628.75,-328.74"/>
<polygon fill="black" stroke="black" points="630.44,-331.82 637.73,-324.13 627.23,-325.59 630.44,-331.82"/>
</g>
<!-- ast.BinOp object at 0x7f8524fbbe80 -->
<g id="node23" class="node">
<title>ast.BinOp object at 0x7f8524fbbe80</title>
<path fill="#66cdaa" stroke="black" d="M461,-252C461,-252 431,-252 431,-252 425,-252 419,-246 419,-240 419,-240 419,-228 419,-228 419,-222 425,-216 431,-216 431,-216 461,-216 461,-216 467,-216 473,-222 473,-228 473,-228 473,-240 473,-240 473,-246 467,-252 461,-252"/>
<text text-anchor="middle" x="446" y="-230.3" font-family="Times,serif" font-size="14.00">BinOp</text>
</g>
<!-- ast.Compare object at 0x7f8524fb8250&#45;&gt;ast.BinOp object at 0x7f8524fbbe80 -->
<g id="edge26" class="edge">
<title>ast.Compare object at 0x7f8524fb8250&#45;&gt;ast.BinOp object at 0x7f8524fbbe80</title>
<path fill="none" stroke="black" d="M543.44,-287.88C524.9,-277.81 501.39,-265.05 482.1,-254.59"/>
<polygon fill="black" stroke="black" points="483.76,-251.51 473.3,-249.81 480.42,-257.66 483.76,-251.51"/>
</g>
<!-- ast.Eq object at 0x7f85cf315e70 -->
<g id="node29" class="node">
<title>ast.Eq object at 0x7f85cf315e70</title>
<path fill="#66cdaa" stroke="black" d="M617,-252C617,-252 587,-252 587,-252 581,-252 575,-246 575,-240 575,-240 575,-228 575,-228 575,-222 581,-216 587,-216 587,-216 617,-216 617,-216 623,-216 629,-222 629,-228 629,-228 629,-240 629,-240 629,-246 623,-252 617,-252"/>
<text text-anchor="middle" x="602" y="-230.3" font-family="Times,serif" font-size="14.00">Eq</text>
</g>
<!-- ast.Compare object at 0x7f8524fb8250&#45;&gt;ast.Eq object at 0x7f85cf315e70 -->
<g id="edge35" class="edge">
<title>ast.Compare object at 0x7f8524fb8250&#45;&gt;ast.Eq object at 0x7f85cf315e70</title>
<path fill="none" stroke="black" d="M581.67,-287.7C584.71,-279.81 588.38,-270.3 591.76,-261.55"/>
<polygon fill="black" stroke="black" points="595.07,-262.69 595.4,-252.1 588.54,-260.17 595.07,-262.69"/>
</g>
<!-- ast.Constant object at 0x7f8524fb9270 -->
<g id="node30" class="node">
<title>ast.Constant object at 0x7f8524fb9270</title>
<path fill="#66cdaa" stroke="black" d="M544.5,-252C544.5,-252 503.5,-252 503.5,-252 497.5,-252 491.5,-246 491.5,-240 491.5,-240 491.5,-228 491.5,-228 491.5,-222 497.5,-216 503.5,-216 503.5,-216 544.5,-216 544.5,-216 550.5,-216 556.5,-222 556.5,-228 556.5,-228 556.5,-240 556.5,-240 556.5,-246 550.5,-252 544.5,-252"/>
<text text-anchor="middle" x="524" y="-230.3" font-family="Times,serif" font-size="14.00">Constant</text>
</g>
<!-- ast.Compare object at 0x7f8524fb8250&#45;&gt;ast.Constant object at 0x7f8524fb9270 -->
<g id="edge36" class="edge">
<title>ast.Compare object at 0x7f8524fb8250&#45;&gt;ast.Constant object at 0x7f8524fb9270</title>
<path fill="none" stroke="black" d="M562.39,-287.7C556.4,-279.47 549.12,-269.48 542.52,-260.42"/>
<polygon fill="black" stroke="black" points="545.18,-258.13 536.46,-252.1 539.52,-262.25 545.18,-258.13"/>
</g>
<!-- ast.Subscript object at 0x7f8524fb8280 -->
<g id="node24" class="node">
<title>ast.Subscript object at 0x7f8524fb8280</title>
<path fill="#66cdaa" stroke="black" d="M386,-180C386,-180 342,-180 342,-180 336,-180 330,-174 330,-168 330,-168 330,-156 330,-156 330,-150 336,-144 342,-144 342,-144 386,-144 386,-144 392,-144 398,-150 398,-156 398,-156 398,-168 398,-168 398,-174 392,-180 386,-180"/>
<text text-anchor="middle" x="364" y="-158.3" font-family="Times,serif" font-size="14.00">Subscript</text>
</g>
<!-- ast.BinOp object at 0x7f8524fbbe80&#45;&gt;ast.Subscript object at 0x7f8524fb8280 -->
<g id="edge27" class="edge">
<title>ast.BinOp object at 0x7f8524fbbe80&#45;&gt;ast.Subscript object at 0x7f8524fb8280</title>
<path fill="none" stroke="black" d="M425.73,-215.7C415.5,-206.97 402.94,-196.24 391.82,-186.75"/>
<polygon fill="black" stroke="black" points="393.91,-183.94 384.04,-180.1 389.37,-189.26 393.91,-183.94"/>
</g>
<!-- ast.Mod object at 0x7f85cf315960 -->
<g id="node27" class="node">
<title>ast.Mod object at 0x7f85cf315960</title>
<path fill="#66cdaa" stroke="black" d="M542,-180C542,-180 512,-180 512,-180 506,-180 500,-174 500,-168 500,-168 500,-156 500,-156 500,-150 506,-144 512,-144 512,-144 542,-144 542,-144 548,-144 554,-150 554,-156 554,-156 554,-168 554,-168 554,-174 548,-180 542,-180"/>
<text text-anchor="middle" x="527" y="-158.3" font-family="Times,serif" font-size="14.00">Mod</text>
</g>
<!-- ast.BinOp object at 0x7f8524fbbe80&#45;&gt;ast.Mod object at 0x7f85cf315960 -->
<g id="edge33" class="edge">
<title>ast.BinOp object at 0x7f8524fbbe80&#45;&gt;ast.Mod object at 0x7f85cf315960</title>
<path fill="none" stroke="black" d="M466.02,-215.7C476.13,-206.97 488.54,-196.24 499.52,-186.75"/>
<polygon fill="black" stroke="black" points="501.93,-189.29 507.21,-180.1 497.35,-183.99 501.93,-189.29"/>
</g>
<!-- ast.Constant object at 0x7f8524fb82e0 -->
<g id="node28" class="node">
<title>ast.Constant object at 0x7f8524fb82e0</title>
<path fill="#66cdaa" stroke="black" d="M469.5,-180C469.5,-180 428.5,-180 428.5,-180 422.5,-180 416.5,-174 416.5,-168 416.5,-168 416.5,-156 416.5,-156 416.5,-150 422.5,-144 428.5,-144 428.5,-144 469.5,-144 469.5,-144 475.5,-144 481.5,-150 481.5,-156 481.5,-156 481.5,-168 481.5,-168 481.5,-174 475.5,-180 469.5,-180"/>
<text text-anchor="middle" x="449" y="-158.3" font-family="Times,serif" font-size="14.00">Constant</text>
</g>
<!-- ast.BinOp object at 0x7f8524fbbe80&#45;&gt;ast.Constant object at 0x7f8524fb82e0 -->
<g id="edge34" class="edge">
<title>ast.BinOp object at 0x7f8524fbbe80&#45;&gt;ast.Constant object at 0x7f8524fb82e0</title>
<path fill="none" stroke="black" d="M446.74,-215.7C447.07,-207.98 447.47,-198.71 447.84,-190.11"/>
<polygon fill="black" stroke="black" points="451.34,-190.25 448.27,-180.1 444.34,-189.95 451.34,-190.25"/>
</g>
<!-- ast.Subscript object at 0x7f8524fb8280&#45;&gt;ast.Load object at 0x7f85cf315540 -->
<g id="edge32" class="edge">
<title>ast.Subscript object at 0x7f8524fb8280&#45;&gt;ast.Load object at 0x7f85cf315540</title>
<path fill="none" stroke="black" d="M356.25,-143.59C351.92,-133.38 346.67,-120.13 343,-108 336.83,-87.62 331.89,-64.02 328.6,-46.25"/>
<polygon fill="black" stroke="black" points="332.02,-45.5 326.81,-36.28 325.13,-46.74 332.02,-45.5"/>
</g>
<!-- ast.Name object at 0x7f8524fb8d30 -->
<g id="node25" class="node">
<title>ast.Name object at 0x7f8524fb8d30</title>
<path fill="#66cdaa" stroke="black" d="M394,-108C394,-108 364,-108 364,-108 358,-108 352,-102 352,-96 352,-96 352,-84 352,-84 352,-78 358,-72 364,-72 364,-72 394,-72 394,-72 400,-72 406,-78 406,-84 406,-84 406,-96 406,-96 406,-102 400,-108 394,-108"/>
<text text-anchor="middle" x="379" y="-86.3" font-family="Times,serif" font-size="14.00">Name</text>
</g>
<!-- ast.Subscript object at 0x7f8524fb8280&#45;&gt;ast.Name object at 0x7f8524fb8d30 -->
<g id="edge28" class="edge">
<title>ast.Subscript object at 0x7f8524fb8280&#45;&gt;ast.Name object at 0x7f8524fb8d30</title>
<path fill="none" stroke="black" d="M367.71,-143.7C369.36,-135.98 371.35,-126.71 373.19,-118.11"/>
<polygon fill="black" stroke="black" points="376.66,-118.62 375.33,-108.1 369.82,-117.15 376.66,-118.62"/>
</g>
<!-- ast.Name object at 0x7f8524fb86a0 -->
<g id="node26" class="node">
<title>ast.Name object at 0x7f8524fb86a0</title>
<path fill="#66cdaa" stroke="black" d="M466,-108C466,-108 436,-108 436,-108 430,-108 424,-102 424,-96 424,-96 424,-84 424,-84 424,-78 430,-72 436,-72 436,-72 466,-72 466,-72 472,-72 478,-78 478,-84 478,-84 478,-96 478,-96 478,-102 472,-108 466,-108"/>
<text text-anchor="middle" x="451" y="-86.3" font-family="Times,serif" font-size="14.00">Name</text>
</g>
<!-- ast.Subscript object at 0x7f8524fb8280&#45;&gt;ast.Name object at 0x7f8524fb86a0 -->
<g id="edge30" class="edge">
<title>ast.Subscript object at 0x7f8524fb8280&#45;&gt;ast.Name object at 0x7f8524fb86a0</title>
<path fill="none" stroke="black" d="M385.51,-143.7C396.46,-134.88 409.95,-124.03 421.82,-114.47"/>
<polygon fill="black" stroke="black" points="424.14,-117.1 429.74,-108.1 419.76,-111.65 424.14,-117.1"/>
</g>
<!-- ast.Name object at 0x7f8524fb8d30&#45;&gt;ast.Load object at 0x7f85cf315540 -->
<g id="edge29" class="edge">
<title>ast.Name object at 0x7f8524fb8d30&#45;&gt;ast.Load object at 0x7f85cf315540</title>
<path fill="none" stroke="black" d="M365.4,-71.7C358.88,-63.39 350.93,-53.28 343.75,-44.14"/>
<polygon fill="black" stroke="black" points="346.37,-41.81 337.44,-36.1 340.87,-46.13 346.37,-41.81"/>
</g>
<!-- ast.Name object at 0x7f8524fb86a0&#45;&gt;ast.Load object at 0x7f85cf315540 -->
<g id="edge31" class="edge">
<title>ast.Name object at 0x7f8524fb86a0&#45;&gt;ast.Load object at 0x7f85cf315540</title>
<path fill="none" stroke="black" d="M423.76,-73.98C405.17,-63.74 380.36,-50.07 360.13,-38.92"/>
<polygon fill="black" stroke="black" points="361.65,-35.75 351.2,-33.99 358.27,-41.88 361.65,-35.75"/>
</g>
<!-- ast.Compare object at 0x7f8524fb95a0&#45;&gt;ast.Eq object at 0x7f85cf315e70 -->
<g id="edge47" class="edge">
<title>ast.Compare object at 0x7f8524fb95a0&#45;&gt;ast.Eq object at 0x7f85cf315e70</title>
<path fill="none" stroke="black" d="M653.94,-287.7C645.5,-279.14 635.18,-268.66 625.96,-259.3"/>
<polygon fill="black" stroke="black" points="628.37,-256.77 618.86,-252.1 623.39,-261.68 628.37,-256.77"/>
</g>
<!-- ast.BinOp object at 0x7f8524fb9c30 -->
<g id="node32" class="node">
<title>ast.BinOp object at 0x7f8524fb9c30</title>
<path fill="#66cdaa" stroke="black" d="M689,-252C689,-252 659,-252 659,-252 653,-252 647,-246 647,-240 647,-240 647,-228 647,-228 647,-222 653,-216 659,-216 659,-216 689,-216 689,-216 695,-216 701,-222 701,-228 701,-228 701,-240 701,-240 701,-246 695,-252 689,-252"/>
<text text-anchor="middle" x="674" y="-230.3" font-family="Times,serif" font-size="14.00">BinOp</text>
</g>
<!-- ast.Compare object at 0x7f8524fb95a0&#45;&gt;ast.BinOp object at 0x7f8524fb9c30 -->
<g id="edge38" class="edge">
<title>ast.Compare object at 0x7f8524fb95a0&#45;&gt;ast.BinOp object at 0x7f8524fb9c30</title>
<path fill="none" stroke="black" d="M671.74,-287.7C672.07,-279.98 672.47,-270.71 672.84,-262.11"/>
<polygon fill="black" stroke="black" points="676.34,-262.25 673.27,-252.1 669.34,-261.95 676.34,-262.25"/>
</g>
<!-- ast.Constant object at 0x7f8524fb8760 -->
<g id="node37" class="node">
<title>ast.Constant object at 0x7f8524fb8760</title>
<path fill="#66cdaa" stroke="black" d="M772.5,-252C772.5,-252 731.5,-252 731.5,-252 725.5,-252 719.5,-246 719.5,-240 719.5,-240 719.5,-228 719.5,-228 719.5,-222 725.5,-216 731.5,-216 731.5,-216 772.5,-216 772.5,-216 778.5,-216 784.5,-222 784.5,-228 784.5,-228 784.5,-240 784.5,-240 784.5,-246 778.5,-252 772.5,-252"/>
<text text-anchor="middle" x="752" y="-230.3" font-family="Times,serif" font-size="14.00">Constant</text>
</g>
<!-- ast.Compare object at 0x7f8524fb95a0&#45;&gt;ast.Constant object at 0x7f8524fb8760 -->
<g id="edge48" class="edge">
<title>ast.Compare object at 0x7f8524fb95a0&#45;&gt;ast.Constant object at 0x7f8524fb8760</title>
<path fill="none" stroke="black" d="M691.02,-287.7C701.13,-278.97 713.54,-268.24 724.52,-258.75"/>
<polygon fill="black" stroke="black" points="726.93,-261.29 732.21,-252.1 722.35,-255.99 726.93,-261.29"/>
</g>
<!-- ast.BinOp object at 0x7f8524fb9c30&#45;&gt;ast.Mod object at 0x7f85cf315960 -->
<g id="edge45" class="edge">
<title>ast.BinOp object at 0x7f8524fb9c30&#45;&gt;ast.Mod object at 0x7f85cf315960</title>
<path fill="none" stroke="black" d="M646.69,-220C623.18,-208.8 589.05,-192.55 563.25,-180.26"/>
<polygon fill="black" stroke="black" points="564.69,-177.07 554.16,-175.93 561.68,-183.39 564.69,-177.07"/>
</g>
<!-- ast.Subscript object at 0x7f8524fb9a20 -->
<g id="node33" class="node">
<title>ast.Subscript object at 0x7f8524fb9a20</title>
<path fill="#66cdaa" stroke="black" d="M628,-180C628,-180 584,-180 584,-180 578,-180 572,-174 572,-168 572,-168 572,-156 572,-156 572,-150 578,-144 584,-144 584,-144 628,-144 628,-144 634,-144 640,-150 640,-156 640,-156 640,-168 640,-168 640,-174 634,-180 628,-180"/>
<text text-anchor="middle" x="606" y="-158.3" font-family="Times,serif" font-size="14.00">Subscript</text>
</g>
<!-- ast.BinOp object at 0x7f8524fb9c30&#45;&gt;ast.Subscript object at 0x7f8524fb9a20 -->
<g id="edge39" class="edge">
<title>ast.BinOp object at 0x7f8524fb9c30&#45;&gt;ast.Subscript object at 0x7f8524fb9a20</title>
<path fill="none" stroke="black" d="M657.19,-215.7C648.87,-207.14 638.69,-196.66 629.61,-187.3"/>
<polygon fill="black" stroke="black" points="632.09,-184.84 622.62,-180.1 627.07,-189.72 632.09,-184.84"/>
</g>
<!-- ast.Constant object at 0x7f8524fb84c0 -->
<g id="node36" class="node">
<title>ast.Constant object at 0x7f8524fb84c0</title>
<path fill="#66cdaa" stroke="black" d="M711.5,-180C711.5,-180 670.5,-180 670.5,-180 664.5,-180 658.5,-174 658.5,-168 658.5,-168 658.5,-156 658.5,-156 658.5,-150 664.5,-144 670.5,-144 670.5,-144 711.5,-144 711.5,-144 717.5,-144 723.5,-150 723.5,-156 723.5,-156 723.5,-168 723.5,-168 723.5,-174 717.5,-180 711.5,-180"/>
<text text-anchor="middle" x="691" y="-158.3" font-family="Times,serif" font-size="14.00">Constant</text>
</g>
<!-- ast.BinOp object at 0x7f8524fb9c30&#45;&gt;ast.Constant object at 0x7f8524fb84c0 -->
<g id="edge46" class="edge">
<title>ast.BinOp object at 0x7f8524fb9c30&#45;&gt;ast.Constant object at 0x7f8524fb84c0</title>
<path fill="none" stroke="black" d="M678.2,-215.7C680.1,-207.9 682.38,-198.51 684.48,-189.83"/>
<polygon fill="black" stroke="black" points="687.89,-190.65 686.85,-180.1 681.08,-189 687.89,-190.65"/>
</g>
<!-- ast.Subscript object at 0x7f8524fb9a20&#45;&gt;ast.Load object at 0x7f85cf315540 -->
<g id="edge44" class="edge">
<title>ast.Subscript object at 0x7f8524fb9a20&#45;&gt;ast.Load object at 0x7f85cf315540</title>
<path fill="none" stroke="black" d="M577.02,-143.8C561.18,-133.97 541.48,-121.03 525,-108 506.75,-93.57 507,-83.89 487,-72 447.25,-48.37 395.68,-33.89 361.3,-26.17"/>
<polygon fill="black" stroke="black" points="361.73,-22.68 351.22,-23.99 360.25,-29.52 361.73,-22.68"/>
</g>
<!-- ast.Name object at 0x7f8524fbafb0 -->
<g id="node34" class="node">
<title>ast.Name object at 0x7f8524fbafb0</title>
<path fill="#66cdaa" stroke="black" d="M576,-108C576,-108 546,-108 546,-108 540,-108 534,-102 534,-96 534,-96 534,-84 534,-84 534,-78 540,-72 546,-72 546,-72 576,-72 576,-72 582,-72 588,-78 588,-84 588,-84 588,-96 588,-96 588,-102 582,-108 576,-108"/>
<text text-anchor="middle" x="561" y="-86.3" font-family="Times,serif" font-size="14.00">Name</text>
</g>
<!-- ast.Subscript object at 0x7f8524fb9a20&#45;&gt;ast.Name object at 0x7f8524fbafb0 -->
<g id="edge40" class="edge">
<title>ast.Subscript object at 0x7f8524fb9a20&#45;&gt;ast.Name object at 0x7f8524fbafb0</title>
<path fill="none" stroke="black" d="M594.88,-143.7C589.64,-135.56 583.3,-125.69 577.52,-116.7"/>
<polygon fill="black" stroke="black" points="580.35,-114.62 572,-108.1 574.46,-118.41 580.35,-114.62"/>
</g>
<!-- ast.Name object at 0x7f8524fb8610 -->
<g id="node35" class="node">
<title>ast.Name object at 0x7f8524fb8610</title>
<path fill="#66cdaa" stroke="black" d="M648,-108C648,-108 618,-108 618,-108 612,-108 606,-102 606,-96 606,-96 606,-84 606,-84 606,-78 612,-72 618,-72 618,-72 648,-72 648,-72 654,-72 660,-78 660,-84 660,-84 660,-96 660,-96 660,-102 654,-108 648,-108"/>
<text text-anchor="middle" x="633" y="-86.3" font-family="Times,serif" font-size="14.00">Name</text>
</g>
<!-- ast.Subscript object at 0x7f8524fb9a20&#45;&gt;ast.Name object at 0x7f8524fb8610 -->
<g id="edge42" class="edge">
<title>ast.Subscript object at 0x7f8524fb9a20&#45;&gt;ast.Name object at 0x7f8524fb8610</title>
<path fill="none" stroke="black" d="M612.67,-143.7C615.71,-135.81 619.38,-126.3 622.76,-117.55"/>
<polygon fill="black" stroke="black" points="626.07,-118.69 626.4,-108.1 619.54,-116.17 626.07,-118.69"/>
</g>
<!-- ast.Name object at 0x7f8524fbafb0&#45;&gt;ast.Load object at 0x7f85cf315540 -->
<g id="edge41" class="edge">
<title>ast.Name object at 0x7f8524fbafb0&#45;&gt;ast.Load object at 0x7f85cf315540</title>
<path fill="none" stroke="black" d="M533.84,-77.16C529.26,-75.33 524.52,-73.54 520,-72 465.52,-53.43 400.8,-36.98 361.07,-27.51"/>
<polygon fill="black" stroke="black" points="361.82,-24.09 351.28,-25.2 360.21,-30.9 361.82,-24.09"/>
</g>
<!-- ast.Name object at 0x7f8524fb8610&#45;&gt;ast.Load object at 0x7f85cf315540 -->
<g id="edge43" class="edge">
<title>ast.Name object at 0x7f8524fb8610&#45;&gt;ast.Load object at 0x7f85cf315540</title>
<path fill="none" stroke="black" d="M605.77,-75.28C602.85,-74.07 599.89,-72.95 597,-72 515.06,-45.17 414.58,-29.98 361.31,-23.25"/>
<polygon fill="black" stroke="black" points="361.66,-19.76 351.3,-22.01 360.8,-26.71 361.66,-19.76"/>
</g>
</g>
</svg>
