<?xml version="1.0" encoding="UTF-8" standalone="no"?>
<!DOCTYPE svg PUBLIC "-//W3C//DTD SVG 1.1//EN"
 "http://www.w3.org/Graphics/SVG/1.1/DTD/svg11.dtd">
<!-- Generated by graphviz version 2.43.0 (0)
 -->
<!-- Title: %3 Pages: 1 -->
<svg width="796pt" height="620pt"
 viewBox="0.00 0.00 796.00 620.00" xmlns="http://www.w3.org/2000/svg" xmlns:xlink="http://www.w3.org/1999/xlink">
<g id="graph0" class="graph" transform="scale(1 1) rotate(0) translate(4 616)">
<title>%3</title>
<polygon fill="white" stroke="transparent" points="-4,4 -4,-616 792,-616 792,4 -4,4"/>
<!-- ast.Module object at 0x7f33858c5540 -->
<g id="node1" class="node">
<title>ast.Module object at 0x7f33858c5540</title>
<path fill="#66cdaa" stroke="black" d="M190.5,-612C190.5,-612 155.5,-612 155.5,-612 149.5,-612 143.5,-606 143.5,-600 143.5,-600 143.5,-588 143.5,-588 143.5,-582 149.5,-576 155.5,-576 155.5,-576 190.5,-576 190.5,-576 196.5,-576 202.5,-582 202.5,-588 202.5,-588 202.5,-600 202.5,-600 202.5,-606 196.5,-612 190.5,-612"/>
<text text-anchor="middle" x="173" y="-590.3" font-family="Times,serif" font-size="14.00">Module</text>
</g>
<!-- ast.FunctionDef object at 0x7f33aea1c6a0 -->
<g id="node2" class="node">
<title>ast.FunctionDef object at 0x7f33aea1c6a0</title>
<path fill="#66cdaa" stroke="black" d="M203.5,-540C203.5,-540 142.5,-540 142.5,-540 136.5,-540 130.5,-534 130.5,-528 130.5,-528 130.5,-516 130.5,-516 130.5,-510 136.5,-504 142.5,-504 142.5,-504 203.5,-504 203.5,-504 209.5,-504 215.5,-510 215.5,-516 215.5,-516 215.5,-528 215.5,-528 215.5,-534 209.5,-540 203.5,-540"/>
<text text-anchor="middle" x="173" y="-518.3" font-family="Times,serif" font-size="14.00">FunctionDef</text>
</g>
<!-- ast.Module object at 0x7f33858c5540&#45;&gt;ast.FunctionDef object at 0x7f33aea1c6a0 -->
<g id="edge1" class="edge">
<title>ast.Module object at 0x7f33858c5540&#45;&gt;ast.FunctionDef object at 0x7f33aea1c6a0</title>
<path fill="none" stroke="black" d="M173,-575.7C173,-567.98 173,-558.71 173,-550.11"/>
<polygon fill="black" stroke="black" points="176.5,-550.1 173,-540.1 169.5,-550.1 176.5,-550.1"/>
</g>
<!-- ast.arguments object at 0x7f33aea1e950 -->
<g id="node3" class="node">
<title>ast.arguments object at 0x7f33aea1e950</title>
<path fill="#66cdaa" stroke="black" d="M66,-468C66,-468 16,-468 16,-468 10,-468 4,-462 4,-456 4,-456 4,-444 4,-444 4,-438 10,-432 16,-432 16,-432 66,-432 66,-432 72,-432 78,-438 78,-444 78,-444 78,-456 78,-456 78,-462 72,-468 66,-468"/>
<text text-anchor="middle" x="41" y="-446.3" font-family="Times,serif" font-size="14.00">arguments</text>
</g>
<!-- ast.FunctionDef object at 0x7f33aea1c6a0&#45;&gt;ast.arguments object at 0x7f33aea1e950 -->
<g id="edge2" class="edge">
<title>ast.FunctionDef object at 0x7f33aea1c6a0&#45;&gt;ast.arguments object at 0x7f33aea1e950</title>
<path fill="none" stroke="black" d="M140.71,-503.88C123.13,-494.55 101.19,-482.92 82.37,-472.94"/>
<polygon fill="black" stroke="black" points="83.89,-469.78 73.41,-468.19 80.61,-475.97 83.89,-469.78"/>
</g>
<!-- ast.Assign object at 0x7f33aea1ea70 -->
<g id="node5" class="node">
<title>ast.Assign object at 0x7f33aea1ea70</title>
<path fill="#66cdaa" stroke="black" d="M152,-468C152,-468 122,-468 122,-468 116,-468 110,-462 110,-456 110,-456 110,-444 110,-444 110,-438 116,-432 122,-432 122,-432 152,-432 152,-432 158,-432 164,-438 164,-444 164,-444 164,-456 164,-456 164,-462 158,-468 152,-468"/>
<text text-anchor="middle" x="137" y="-446.3" font-family="Times,serif" font-size="14.00">Assign</text>
</g>
<!-- ast.FunctionDef object at 0x7f33aea1c6a0&#45;&gt;ast.Assign object at 0x7f33aea1ea70 -->
<g id="edge4" class="edge">
<title>ast.FunctionDef object at 0x7f33aea1c6a0&#45;&gt;ast.Assign object at 0x7f33aea1ea70</title>
<path fill="none" stroke="black" d="M164.1,-503.7C160,-495.73 155.05,-486.1 150.51,-477.26"/>
<polygon fill="black" stroke="black" points="153.48,-475.4 145.8,-468.1 147.26,-478.6 153.48,-475.4"/>
</g>
<!-- ast.For object at 0x7f33aea1ebf0 -->
<g id="node10" class="node">
<title>ast.For object at 0x7f33aea1ebf0</title>
<path fill="#66cdaa" stroke="black" d="M267,-468C267,-468 237,-468 237,-468 231,-468 225,-462 225,-456 225,-456 225,-444 225,-444 225,-438 231,-432 237,-432 237,-432 267,-432 267,-432 273,-432 279,-438 279,-444 279,-444 279,-456 279,-456 279,-462 273,-468 267,-468"/>
<text text-anchor="middle" x="252" y="-446.3" font-family="Times,serif" font-size="14.00">For</text>
</g>
<!-- ast.FunctionDef object at 0x7f33aea1c6a0&#45;&gt;ast.For object at 0x7f33aea1ebf0 -->
<g id="edge9" class="edge">
<title>ast.FunctionDef object at 0x7f33aea1c6a0&#45;&gt;ast.For object at 0x7f33aea1ebf0</title>
<path fill="none" stroke="black" d="M192.53,-503.7C202.38,-494.97 214.49,-484.24 225.2,-474.75"/>
<polygon fill="black" stroke="black" points="227.53,-477.36 232.7,-468.1 222.89,-472.12 227.53,-477.36"/>
</g>
<!-- ast.Return object at 0x7f33aea1cfa0 -->
<g id="node33" class="node">
<title>ast.Return object at 0x7f33aea1cfa0</title>
<path fill="#66cdaa" stroke="black" d="M554,-468C554,-468 524,-468 524,-468 518,-468 512,-462 512,-456 512,-456 512,-444 512,-444 512,-438 518,-432 524,-432 524,-432 554,-432 554,-432 560,-432 566,-438 566,-444 566,-444 566,-456 566,-456 566,-462 560,-468 554,-468"/>
<text text-anchor="middle" x="539" y="-446.3" font-family="Times,serif" font-size="14.00">Return</text>
</g>
<!-- ast.FunctionDef object at 0x7f33aea1c6a0&#45;&gt;ast.Return object at 0x7f33aea1cfa0 -->
<g id="edge42" class="edge">
<title>ast.FunctionDef object at 0x7f33aea1c6a0&#45;&gt;ast.Return object at 0x7f33aea1cfa0</title>
<path fill="none" stroke="black" d="M215.7,-512.83C287.98,-499.01 433.25,-471.23 501.7,-458.13"/>
<polygon fill="black" stroke="black" points="502.45,-461.55 511.61,-456.24 501.13,-454.68 502.45,-461.55"/>
</g>
<!-- ast.arg object at 0x7f33aea1df30 -->
<g id="node4" class="node">
<title>ast.arg object at 0x7f33aea1df30</title>
<path fill="#66cdaa" stroke="black" d="M42,-396C42,-396 12,-396 12,-396 6,-396 0,-390 0,-384 0,-384 0,-372 0,-372 0,-366 6,-360 12,-360 12,-360 42,-360 42,-360 48,-360 54,-366 54,-372 54,-372 54,-384 54,-384 54,-390 48,-396 42,-396"/>
<text text-anchor="middle" x="27" y="-374.3" font-family="Times,serif" font-size="14.00">arg</text>
</g>
<!-- ast.arguments object at 0x7f33aea1e950&#45;&gt;ast.arg object at 0x7f33aea1df30 -->
<g id="edge3" class="edge">
<title>ast.arguments object at 0x7f33aea1e950&#45;&gt;ast.arg object at 0x7f33aea1df30</title>
<path fill="none" stroke="black" d="M37.54,-431.7C36,-423.98 34.14,-414.71 32.42,-406.11"/>
<polygon fill="black" stroke="black" points="35.81,-405.22 30.42,-396.1 28.95,-406.6 35.81,-405.22"/>
</g>
<!-- ast.Name object at 0x7f33aea1d030 -->
<g id="node6" class="node">
<title>ast.Name object at 0x7f33aea1d030</title>
<path fill="#66cdaa" stroke="black" d="M152,-396C152,-396 122,-396 122,-396 116,-396 110,-390 110,-384 110,-384 110,-372 110,-372 110,-366 116,-360 122,-360 122,-360 152,-360 152,-360 158,-360 164,-366 164,-372 164,-372 164,-384 164,-384 164,-390 158,-396 152,-396"/>
<text text-anchor="middle" x="137" y="-374.3" font-family="Times,serif" font-size="14.00">Name</text>
</g>
<!-- ast.Assign object at 0x7f33aea1ea70&#45;&gt;ast.Name object at 0x7f33aea1d030 -->
<g id="edge5" class="edge">
<title>ast.Assign object at 0x7f33aea1ea70&#45;&gt;ast.Name object at 0x7f33aea1d030</title>
<path fill="none" stroke="black" d="M137,-431.7C137,-423.98 137,-414.71 137,-406.11"/>
<polygon fill="black" stroke="black" points="140.5,-406.1 137,-396.1 133.5,-406.1 140.5,-406.1"/>
</g>
<!-- ast.List object at 0x7f33aea1e9b0 -->
<g id="node8" class="node">
<title>ast.List object at 0x7f33aea1e9b0</title>
<path fill="#66cdaa" stroke="black" d="M108,-252C108,-252 78,-252 78,-252 72,-252 66,-246 66,-240 66,-240 66,-228 66,-228 66,-222 72,-216 78,-216 78,-216 108,-216 108,-216 114,-216 120,-222 120,-228 120,-228 120,-240 120,-240 120,-246 114,-252 108,-252"/>
<text text-anchor="middle" x="93" y="-230.3" font-family="Times,serif" font-size="14.00">List</text>
</g>
<!-- ast.Assign object at 0x7f33aea1ea70&#45;&gt;ast.List object at 0x7f33aea1e9b0 -->
<g id="edge7" class="edge">
<title>ast.Assign object at 0x7f33aea1ea70&#45;&gt;ast.List object at 0x7f33aea1e9b0</title>
<path fill="none" stroke="black" d="M121.65,-431.69C113.96,-421.92 105.38,-409.08 101,-396 85.91,-350.94 87.32,-294.82 89.98,-262.14"/>
<polygon fill="black" stroke="black" points="93.48,-262.28 90.91,-252.01 86.51,-261.64 93.48,-262.28"/>
</g>
<!-- ast.Store object at 0x7f33d66edff0 -->
<g id="node7" class="node">
<title>ast.Store object at 0x7f33d66edff0</title>
<path fill="#66cdaa" stroke="black" d="M152,-324C152,-324 122,-324 122,-324 116,-324 110,-318 110,-312 110,-312 110,-300 110,-300 110,-294 116,-288 122,-288 122,-288 152,-288 152,-288 158,-288 164,-294 164,-300 164,-300 164,-312 164,-312 164,-318 158,-324 152,-324"/>
<text text-anchor="middle" x="137" y="-302.3" font-family="Times,serif" font-size="14.00">Store</text>
</g>
<!-- ast.Name object at 0x7f33aea1d030&#45;&gt;ast.Store object at 0x7f33d66edff0 -->
<g id="edge6" class="edge">
<title>ast.Name object at 0x7f33aea1d030&#45;&gt;ast.Store object at 0x7f33d66edff0</title>
<path fill="none" stroke="black" d="M137,-359.7C137,-351.98 137,-342.71 137,-334.11"/>
<polygon fill="black" stroke="black" points="140.5,-334.1 137,-324.1 133.5,-334.1 140.5,-334.1"/>
</g>
<!-- ast.Load object at 0x7f33d66edf90 -->
<g id="node9" class="node">
<title>ast.Load object at 0x7f33d66edf90</title>
<path fill="#66cdaa" stroke="black" d="M422,-36C422,-36 392,-36 392,-36 386,-36 380,-30 380,-24 380,-24 380,-12 380,-12 380,-6 386,0 392,0 392,0 422,0 422,0 428,0 434,-6 434,-12 434,-12 434,-24 434,-24 434,-30 428,-36 422,-36"/>
<text text-anchor="middle" x="407" y="-14.3" font-family="Times,serif" font-size="14.00">Load</text>
</g>
<!-- ast.List object at 0x7f33aea1e9b0&#45;&gt;ast.Load object at 0x7f33d66edf90 -->
<g id="edge8" class="edge">
<title>ast.List object at 0x7f33aea1e9b0&#45;&gt;ast.Load object at 0x7f33d66edf90</title>
<path fill="none" stroke="black" d="M93.31,-215.92C94.89,-182.83 103.33,-109.92 146,-72 178.74,-42.9 305.96,-27.85 369.9,-21.98"/>
<polygon fill="black" stroke="black" points="370.31,-25.46 379.96,-21.09 369.69,-18.49 370.31,-25.46"/>
</g>
<!-- ast.Name object at 0x7f33aea1e7d0 -->
<g id="node11" class="node">
<title>ast.Name object at 0x7f33aea1e7d0</title>
<path fill="#66cdaa" stroke="black" d="M230,-396C230,-396 200,-396 200,-396 194,-396 188,-390 188,-384 188,-384 188,-372 188,-372 188,-366 194,-360 200,-360 200,-360 230,-360 230,-360 236,-360 242,-366 242,-372 242,-372 242,-384 242,-384 242,-390 236,-396 230,-396"/>
<text text-anchor="middle" x="215" y="-374.3" font-family="Times,serif" font-size="14.00">Name</text>
</g>
<!-- ast.For object at 0x7f33aea1ebf0&#45;&gt;ast.Name object at 0x7f33aea1e7d0 -->
<g id="edge10" class="edge">
<title>ast.For object at 0x7f33aea1ebf0&#45;&gt;ast.Name object at 0x7f33aea1e7d0</title>
<path fill="none" stroke="black" d="M242.85,-431.7C238.6,-423.64 233.44,-413.89 228.73,-404.98"/>
<polygon fill="black" stroke="black" points="231.81,-403.31 224.04,-396.1 225.62,-406.58 231.81,-403.31"/>
</g>
<!-- ast.Call object at 0x7f33aea1dff0 -->
<g id="node12" class="node">
<title>ast.Call object at 0x7f33aea1dff0</title>
<path fill="#66cdaa" stroke="black" d="M305,-396C305,-396 275,-396 275,-396 269,-396 263,-390 263,-384 263,-384 263,-372 263,-372 263,-366 269,-360 275,-360 275,-360 305,-360 305,-360 311,-360 317,-366 317,-372 317,-372 317,-384 317,-384 317,-390 311,-396 305,-396"/>
<text text-anchor="middle" x="290" y="-374.3" font-family="Times,serif" font-size="14.00">Call</text>
</g>
<!-- ast.For object at 0x7f33aea1ebf0&#45;&gt;ast.Call object at 0x7f33aea1dff0 -->
<g id="edge12" class="edge">
<title>ast.For object at 0x7f33aea1ebf0&#45;&gt;ast.Call object at 0x7f33aea1dff0</title>
<path fill="none" stroke="black" d="M261.39,-431.7C265.76,-423.64 271.06,-413.89 275.9,-404.98"/>
<polygon fill="black" stroke="black" points="279.02,-406.56 280.71,-396.1 272.87,-403.22 279.02,-406.56"/>
</g>
<!-- ast.If object at 0x7f33aea1e020 -->
<g id="node16" class="node">
<title>ast.If object at 0x7f33aea1e020</title>
<path fill="#66cdaa" stroke="black" d="M464,-396C464,-396 434,-396 434,-396 428,-396 422,-390 422,-384 422,-384 422,-372 422,-372 422,-366 428,-360 434,-360 434,-360 464,-360 464,-360 470,-360 476,-366 476,-372 476,-372 476,-384 476,-384 476,-390 470,-396 464,-396"/>
<text text-anchor="middle" x="449" y="-374.3" font-family="Times,serif" font-size="14.00">If</text>
</g>
<!-- ast.For object at 0x7f33aea1ebf0&#45;&gt;ast.If object at 0x7f33aea1e020 -->
<g id="edge17" class="edge">
<title>ast.For object at 0x7f33aea1ebf0&#45;&gt;ast.If object at 0x7f33aea1e020</title>
<path fill="none" stroke="black" d="M279.39,-439.27C313.94,-426.99 373.48,-405.83 412.04,-392.13"/>
<polygon fill="black" stroke="black" points="413.59,-395.3 421.84,-388.65 411.25,-388.7 413.59,-395.3"/>
</g>
<!-- ast.Name object at 0x7f33aea1e7d0&#45;&gt;ast.Store object at 0x7f33d66edff0 -->
<g id="edge11" class="edge">
<title>ast.Name object at 0x7f33aea1e7d0&#45;&gt;ast.Store object at 0x7f33d66edff0</title>
<path fill="none" stroke="black" d="M195.72,-359.7C186.08,-351.05 174.27,-340.45 163.77,-331.03"/>
<polygon fill="black" stroke="black" points="165.84,-328.18 156.06,-324.1 161.16,-333.39 165.84,-328.18"/>
</g>
<!-- ast.Name object at 0x7f33aea1d450 -->
<g id="node13" class="node">
<title>ast.Name object at 0x7f33aea1d450</title>
<path fill="#66cdaa" stroke="black" d="M308,-324C308,-324 278,-324 278,-324 272,-324 266,-318 266,-312 266,-312 266,-300 266,-300 266,-294 272,-288 278,-288 278,-288 308,-288 308,-288 314,-288 320,-294 320,-300 320,-300 320,-312 320,-312 320,-318 314,-324 308,-324"/>
<text text-anchor="middle" x="293" y="-302.3" font-family="Times,serif" font-size="14.00">Name</text>
</g>
<!-- ast.Call object at 0x7f33aea1dff0&#45;&gt;ast.Name object at 0x7f33aea1d450 -->
<g id="edge13" class="edge">
<title>ast.Call object at 0x7f33aea1dff0&#45;&gt;ast.Name object at 0x7f33aea1d450</title>
<path fill="none" stroke="black" d="M290.74,-359.7C291.07,-351.98 291.47,-342.71 291.84,-334.11"/>
<polygon fill="black" stroke="black" points="295.34,-334.25 292.27,-324.1 288.34,-333.95 295.34,-334.25"/>
</g>
<!-- ast.Constant object at 0x7f33aea1e9e0 -->
<g id="node14" class="node">
<title>ast.Constant object at 0x7f33aea1e9e0</title>
<path fill="#66cdaa" stroke="black" d="M391.5,-324C391.5,-324 350.5,-324 350.5,-324 344.5,-324 338.5,-318 338.5,-312 338.5,-312 338.5,-300 338.5,-300 338.5,-294 344.5,-288 350.5,-288 350.5,-288 391.5,-288 391.5,-288 397.5,-288 403.5,-294 403.5,-300 403.5,-300 403.5,-312 403.5,-312 403.5,-318 397.5,-324 391.5,-324"/>
<text text-anchor="middle" x="371" y="-302.3" font-family="Times,serif" font-size="14.00">Constant</text>
</g>
<!-- ast.Call object at 0x7f33aea1dff0&#45;&gt;ast.Constant object at 0x7f33aea1e9e0 -->
<g id="edge15" class="edge">
<title>ast.Call object at 0x7f33aea1dff0&#45;&gt;ast.Constant object at 0x7f33aea1e9e0</title>
<path fill="none" stroke="black" d="M310.02,-359.7C320.13,-350.97 332.54,-340.24 343.52,-330.75"/>
<polygon fill="black" stroke="black" points="345.93,-333.29 351.21,-324.1 341.35,-327.99 345.93,-333.29"/>
</g>
<!-- ast.Constant object at 0x7f33aea1cca0 -->
<g id="node15" class="node">
<title>ast.Constant object at 0x7f33aea1cca0</title>
<path fill="#66cdaa" stroke="black" d="M235.5,-324C235.5,-324 194.5,-324 194.5,-324 188.5,-324 182.5,-318 182.5,-312 182.5,-312 182.5,-300 182.5,-300 182.5,-294 188.5,-288 194.5,-288 194.5,-288 235.5,-288 235.5,-288 241.5,-288 247.5,-294 247.5,-300 247.5,-300 247.5,-312 247.5,-312 247.5,-318 241.5,-324 235.5,-324"/>
<text text-anchor="middle" x="215" y="-302.3" font-family="Times,serif" font-size="14.00">Constant</text>
</g>
<!-- ast.Call object at 0x7f33aea1dff0&#45;&gt;ast.Constant object at 0x7f33aea1cca0 -->
<g id="edge16" class="edge">
<title>ast.Call object at 0x7f33aea1dff0&#45;&gt;ast.Constant object at 0x7f33aea1cca0</title>
<path fill="none" stroke="black" d="M271.46,-359.7C262.2,-351.05 250.84,-340.45 240.74,-331.03"/>
<polygon fill="black" stroke="black" points="243.02,-328.37 233.33,-324.1 238.25,-333.49 243.02,-328.37"/>
</g>
<!-- ast.Name object at 0x7f33aea1d450&#45;&gt;ast.Load object at 0x7f33d66edf90 -->
<g id="edge14" class="edge">
<title>ast.Name object at 0x7f33aea1d450&#45;&gt;ast.Load object at 0x7f33d66edf90</title>
<path fill="none" stroke="black" d="M276.32,-287.79C238.55,-246.71 153.75,-141.2 207,-72 226.67,-46.43 317.2,-30.65 369.47,-23.51"/>
<polygon fill="black" stroke="black" points="370.24,-26.94 379.69,-22.16 369.32,-20 370.24,-26.94"/>
</g>
<!-- ast.Compare object at 0x7f33aea1d5a0 -->
<g id="node17" class="node">
<title>ast.Compare object at 0x7f33aea1d5a0</title>
<path fill="#66cdaa" stroke="black" d="M549.5,-324C549.5,-324 506.5,-324 506.5,-324 500.5,-324 494.5,-318 494.5,-312 494.5,-312 494.5,-300 494.5,-300 494.5,-294 500.5,-288 506.5,-288 506.5,-288 549.5,-288 549.5,-288 555.5,-288 561.5,-294 561.5,-300 561.5,-300 561.5,-312 561.5,-312 561.5,-318 555.5,-324 549.5,-324"/>
<text text-anchor="middle" x="528" y="-302.3" font-family="Times,serif" font-size="14.00">Compare</text>
</g>
<!-- ast.If object at 0x7f33aea1e020&#45;&gt;ast.Compare object at 0x7f33aea1d5a0 -->
<g id="edge18" class="edge">
<title>ast.If object at 0x7f33aea1e020&#45;&gt;ast.Compare object at 0x7f33aea1d5a0</title>
<path fill="none" stroke="black" d="M468.53,-359.7C478.38,-350.97 490.49,-340.24 501.2,-330.75"/>
<polygon fill="black" stroke="black" points="503.53,-333.36 508.7,-324.1 498.89,-328.12 503.53,-333.36"/>
</g>
<!-- ast.Expr object at 0x7f33aea1f970 -->
<g id="node26" class="node">
<title>ast.Expr object at 0x7f33aea1f970</title>
<path fill="#66cdaa" stroke="black" d="M464,-324C464,-324 434,-324 434,-324 428,-324 422,-318 422,-312 422,-312 422,-300 422,-300 422,-294 428,-288 434,-288 434,-288 464,-288 464,-288 470,-288 476,-294 476,-300 476,-300 476,-312 476,-312 476,-318 470,-324 464,-324"/>
<text text-anchor="middle" x="449" y="-302.3" font-family="Times,serif" font-size="14.00">Expr</text>
</g>
<!-- ast.If object at 0x7f33aea1e020&#45;&gt;ast.Expr object at 0x7f33aea1f970 -->
<g id="edge30" class="edge">
<title>ast.If object at 0x7f33aea1e020&#45;&gt;ast.Expr object at 0x7f33aea1f970</title>
<path fill="none" stroke="black" d="M449,-359.7C449,-351.98 449,-342.71 449,-334.11"/>
<polygon fill="black" stroke="black" points="452.5,-334.1 449,-324.1 445.5,-334.1 452.5,-334.1"/>
</g>
<!-- ast.BinOp object at 0x7f33aea1ca30 -->
<g id="node18" class="node">
<title>ast.BinOp object at 0x7f33aea1ca30</title>
<path fill="#66cdaa" stroke="black" d="M621,-252C621,-252 591,-252 591,-252 585,-252 579,-246 579,-240 579,-240 579,-228 579,-228 579,-222 585,-216 591,-216 591,-216 621,-216 621,-216 627,-216 633,-222 633,-228 633,-228 633,-240 633,-240 633,-246 627,-252 621,-252"/>
<text text-anchor="middle" x="606" y="-230.3" font-family="Times,serif" font-size="14.00">BinOp</text>
</g>
<!-- ast.Compare object at 0x7f33aea1d5a0&#45;&gt;ast.BinOp object at 0x7f33aea1ca30 -->
<g id="edge19" class="edge">
<title>ast.Compare object at 0x7f33aea1d5a0&#45;&gt;ast.BinOp object at 0x7f33aea1ca30</title>
<path fill="none" stroke="black" d="M547.28,-287.7C556.92,-279.05 568.73,-268.45 579.23,-259.03"/>
<polygon fill="black" stroke="black" points="581.84,-261.39 586.94,-252.1 577.16,-256.18 581.84,-261.39"/>
</g>
<!-- ast.Eq object at 0x7f33d66ee8c0 -->
<g id="node24" class="node">
<title>ast.Eq object at 0x7f33d66ee8c0</title>
<path fill="#66cdaa" stroke="black" d="M465,-252C465,-252 435,-252 435,-252 429,-252 423,-246 423,-240 423,-240 423,-228 423,-228 423,-222 429,-216 435,-216 435,-216 465,-216 465,-216 471,-216 477,-222 477,-228 477,-228 477,-240 477,-240 477,-246 471,-252 465,-252"/>
<text text-anchor="middle" x="450" y="-230.3" font-family="Times,serif" font-size="14.00">Eq</text>
</g>
<!-- ast.Compare object at 0x7f33aea1d5a0&#45;&gt;ast.Eq object at 0x7f33d66ee8c0 -->
<g id="edge28" class="edge">
<title>ast.Compare object at 0x7f33aea1d5a0&#45;&gt;ast.Eq object at 0x7f33d66ee8c0</title>
<path fill="none" stroke="black" d="M508.72,-287.7C499.08,-279.05 487.27,-268.45 476.77,-259.03"/>
<polygon fill="black" stroke="black" points="478.84,-256.18 469.06,-252.1 474.16,-261.39 478.84,-256.18"/>
</g>
<!-- ast.Constant object at 0x7f33aea1d330 -->
<g id="node25" class="node">
<title>ast.Constant object at 0x7f33aea1d330</title>
<path fill="#66cdaa" stroke="black" d="M548.5,-252C548.5,-252 507.5,-252 507.5,-252 501.5,-252 495.5,-246 495.5,-240 495.5,-240 495.5,-228 495.5,-228 495.5,-222 501.5,-216 507.5,-216 507.5,-216 548.5,-216 548.5,-216 554.5,-216 560.5,-222 560.5,-228 560.5,-228 560.5,-240 560.5,-240 560.5,-246 554.5,-252 548.5,-252"/>
<text text-anchor="middle" x="528" y="-230.3" font-family="Times,serif" font-size="14.00">Constant</text>
</g>
<!-- ast.Compare object at 0x7f33aea1d5a0&#45;&gt;ast.Constant object at 0x7f33aea1d330 -->
<g id="edge29" class="edge">
<title>ast.Compare object at 0x7f33aea1d5a0&#45;&gt;ast.Constant object at 0x7f33aea1d330</title>
<path fill="none" stroke="black" d="M528,-287.7C528,-279.98 528,-270.71 528,-262.11"/>
<polygon fill="black" stroke="black" points="531.5,-262.1 528,-252.1 524.5,-262.1 531.5,-262.1"/>
</g>
<!-- ast.Subscript object at 0x7f33aea1d0f0 -->
<g id="node19" class="node">
<title>ast.Subscript object at 0x7f33aea1d0f0</title>
<path fill="#66cdaa" stroke="black" d="M548,-180C548,-180 504,-180 504,-180 498,-180 492,-174 492,-168 492,-168 492,-156 492,-156 492,-150 498,-144 504,-144 504,-144 548,-144 548,-144 554,-144 560,-150 560,-156 560,-156 560,-168 560,-168 560,-174 554,-180 548,-180"/>
<text text-anchor="middle" x="526" y="-158.3" font-family="Times,serif" font-size="14.00">Subscript</text>
</g>
<!-- ast.BinOp object at 0x7f33aea1ca30&#45;&gt;ast.Subscript object at 0x7f33aea1d0f0 -->
<g id="edge20" class="edge">
<title>ast.BinOp object at 0x7f33aea1ca30&#45;&gt;ast.Subscript object at 0x7f33aea1d0f0</title>
<path fill="none" stroke="black" d="M586.22,-215.7C576.25,-206.97 563.99,-196.24 553.14,-186.75"/>
<polygon fill="black" stroke="black" points="555.38,-184.06 545.55,-180.1 550.77,-189.32 555.38,-184.06"/>
</g>
<!-- ast.Mod object at 0x7f33d66ee3b0 -->
<g id="node22" class="node">
<title>ast.Mod object at 0x7f33d66ee3b0</title>
<path fill="#66cdaa" stroke="black" d="M620,-180C620,-180 590,-180 590,-180 584,-180 578,-174 578,-168 578,-168 578,-156 578,-156 578,-150 584,-144 590,-144 590,-144 620,-144 620,-144 626,-144 632,-150 632,-156 632,-156 632,-168 632,-168 632,-174 626,-180 620,-180"/>
<text text-anchor="middle" x="605" y="-158.3" font-family="Times,serif" font-size="14.00">Mod</text>
</g>
<!-- ast.BinOp object at 0x7f33aea1ca30&#45;&gt;ast.Mod object at 0x7f33d66ee3b0 -->
<g id="edge26" class="edge">
<title>ast.BinOp object at 0x7f33aea1ca30&#45;&gt;ast.Mod object at 0x7f33d66ee3b0</title>
<path fill="none" stroke="black" d="M605.75,-215.7C605.64,-207.98 605.51,-198.71 605.39,-190.11"/>
<polygon fill="black" stroke="black" points="608.89,-190.05 605.24,-180.1 601.89,-190.15 608.89,-190.05"/>
</g>
<!-- ast.Constant object at 0x7f33aea1e230 -->
<g id="node23" class="node">
<title>ast.Constant object at 0x7f33aea1e230</title>
<path fill="#66cdaa" stroke="black" d="M703.5,-180C703.5,-180 662.5,-180 662.5,-180 656.5,-180 650.5,-174 650.5,-168 650.5,-168 650.5,-156 650.5,-156 650.5,-150 656.5,-144 662.5,-144 662.5,-144 703.5,-144 703.5,-144 709.5,-144 715.5,-150 715.5,-156 715.5,-156 715.5,-168 715.5,-168 715.5,-174 709.5,-180 703.5,-180"/>
<text text-anchor="middle" x="683" y="-158.3" font-family="Times,serif" font-size="14.00">Constant</text>
</g>
<!-- ast.BinOp object at 0x7f33aea1ca30&#45;&gt;ast.Constant object at 0x7f33aea1e230 -->
<g id="edge27" class="edge">
<title>ast.BinOp object at 0x7f33aea1ca30&#45;&gt;ast.Constant object at 0x7f33aea1e230</title>
<path fill="none" stroke="black" d="M625.03,-215.7C634.54,-207.05 646.21,-196.45 656.57,-187.03"/>
<polygon fill="black" stroke="black" points="659.14,-189.42 664.19,-180.1 654.43,-184.24 659.14,-189.42"/>
</g>
<!-- ast.Subscript object at 0x7f33aea1d0f0&#45;&gt;ast.Load object at 0x7f33d66edf90 -->
<g id="edge25" class="edge">
<title>ast.Subscript object at 0x7f33aea1d0f0&#45;&gt;ast.Load object at 0x7f33d66edf90</title>
<path fill="none" stroke="black" d="M536.29,-143.73C546.21,-124.58 557.74,-93.56 543,-72 521,-39.81 476.32,-27.17 444.17,-22.21"/>
<polygon fill="black" stroke="black" points="444.6,-18.73 434.22,-20.85 443.65,-25.67 444.6,-18.73"/>
</g>
<!-- ast.Name object at 0x7f33aea1dfc0 -->
<g id="node20" class="node">
<title>ast.Name object at 0x7f33aea1dfc0</title>
<path fill="#66cdaa" stroke="black" d="M632,-108C632,-108 602,-108 602,-108 596,-108 590,-102 590,-96 590,-96 590,-84 590,-84 590,-78 596,-72 602,-72 602,-72 632,-72 632,-72 638,-72 644,-78 644,-84 644,-84 644,-96 644,-96 644,-102 638,-108 632,-108"/>
<text text-anchor="middle" x="617" y="-86.3" font-family="Times,serif" font-size="14.00">Name</text>
</g>
<!-- ast.Subscript object at 0x7f33aea1d0f0&#45;&gt;ast.Name object at 0x7f33aea1dfc0 -->
<g id="edge21" class="edge">
<title>ast.Subscript object at 0x7f33aea1d0f0&#45;&gt;ast.Name object at 0x7f33aea1dfc0</title>
<path fill="none" stroke="black" d="M548.49,-143.7C559.96,-134.88 574.06,-124.03 586.48,-114.47"/>
<polygon fill="black" stroke="black" points="588.97,-116.98 594.76,-108.1 584.7,-111.43 588.97,-116.98"/>
</g>
<!-- ast.Name object at 0x7f33aea1f2e0 -->
<g id="node21" class="node">
<title>ast.Name object at 0x7f33aea1f2e0</title>
<path fill="#66cdaa" stroke="black" d="M522,-108C522,-108 492,-108 492,-108 486,-108 480,-102 480,-96 480,-96 480,-84 480,-84 480,-78 486,-72 492,-72 492,-72 522,-72 522,-72 528,-72 534,-78 534,-84 534,-84 534,-96 534,-96 534,-102 528,-108 522,-108"/>
<text text-anchor="middle" x="507" y="-86.3" font-family="Times,serif" font-size="14.00">Name</text>
</g>
<!-- ast.Subscript object at 0x7f33aea1d0f0&#45;&gt;ast.Name object at 0x7f33aea1f2e0 -->
<g id="edge23" class="edge">
<title>ast.Subscript object at 0x7f33aea1d0f0&#45;&gt;ast.Name object at 0x7f33aea1f2e0</title>
<path fill="none" stroke="black" d="M521.3,-143.7C519.19,-135.9 516.64,-126.51 514.28,-117.83"/>
<polygon fill="black" stroke="black" points="517.64,-116.84 511.64,-108.1 510.88,-118.67 517.64,-116.84"/>
</g>
<!-- ast.Name object at 0x7f33aea1dfc0&#45;&gt;ast.Load object at 0x7f33d66edf90 -->
<g id="edge22" class="edge">
<title>ast.Name object at 0x7f33aea1dfc0&#45;&gt;ast.Load object at 0x7f33d66edf90</title>
<path fill="none" stroke="black" d="M589.79,-77.32C585.21,-75.47 580.49,-73.63 576,-72 531.02,-55.66 478.27,-39.6 443.82,-29.52"/>
<polygon fill="black" stroke="black" points="444.76,-26.14 434.18,-26.71 442.8,-32.86 444.76,-26.14"/>
</g>
<!-- ast.Name object at 0x7f33aea1f2e0&#45;&gt;ast.Load object at 0x7f33d66edf90 -->
<g id="edge24" class="edge">
<title>ast.Name object at 0x7f33aea1f2e0&#45;&gt;ast.Load object at 0x7f33d66edf90</title>
<path fill="none" stroke="black" d="M482.54,-71.88C469.7,-62.89 453.8,-51.76 439.91,-42.03"/>
<polygon fill="black" stroke="black" points="441.76,-39.06 431.56,-36.19 437.74,-44.79 441.76,-39.06"/>
</g>
<!-- ast.Call object at 0x7f33aea1edd0 -->
<g id="node27" class="node">
<title>ast.Call object at 0x7f33aea1edd0</title>
<path fill="#66cdaa" stroke="black" d="M393,-252C393,-252 363,-252 363,-252 357,-252 351,-246 351,-240 351,-240 351,-228 351,-228 351,-222 357,-216 363,-216 363,-216 393,-216 393,-216 399,-216 405,-222 405,-228 405,-228 405,-240 405,-240 405,-246 399,-252 393,-252"/>
<text text-anchor="middle" x="378" y="-230.3" font-family="Times,serif" font-size="14.00">Call</text>
</g>
<!-- ast.Expr object at 0x7f33aea1f970&#45;&gt;ast.Call object at 0x7f33aea1edd0 -->
<g id="edge31" class="edge">
<title>ast.Expr object at 0x7f33aea1f970&#45;&gt;ast.Call object at 0x7f33aea1edd0</title>
<path fill="none" stroke="black" d="M431.45,-287.7C422.77,-279.14 412.14,-268.66 402.65,-259.3"/>
<polygon fill="black" stroke="black" points="404.93,-256.63 395.35,-252.1 400.01,-261.62 404.93,-256.63"/>
</g>
<!-- ast.Attribute object at 0x7f33aea1e140 -->
<g id="node28" class="node">
<title>ast.Attribute object at 0x7f33aea1e140</title>
<path fill="#66cdaa" stroke="black" d="M273.5,-180C273.5,-180 232.5,-180 232.5,-180 226.5,-180 220.5,-174 220.5,-168 220.5,-168 220.5,-156 220.5,-156 220.5,-150 226.5,-144 232.5,-144 232.5,-144 273.5,-144 273.5,-144 279.5,-144 285.5,-150 285.5,-156 285.5,-156 285.5,-168 285.5,-168 285.5,-174 279.5,-180 273.5,-180"/>
<text text-anchor="middle" x="253" y="-158.3" font-family="Times,serif" font-size="14.00">Attribute</text>
</g>
<!-- ast.Call object at 0x7f33aea1edd0&#45;&gt;ast.Attribute object at 0x7f33aea1e140 -->
<g id="edge32" class="edge">
<title>ast.Call object at 0x7f33aea1edd0&#45;&gt;ast.Attribute object at 0x7f33aea1e140</title>
<path fill="none" stroke="black" d="M350.88,-217.81C333.77,-208.23 311.39,-195.7 292.34,-185.03"/>
<polygon fill="black" stroke="black" points="294.02,-181.96 283.58,-180.13 290.6,-188.07 294.02,-181.96"/>
</g>
<!-- ast.Subscript object at 0x7f33aea1efe0 -->
<g id="node30" class="node">
<title>ast.Subscript object at 0x7f33aea1efe0</title>
<path fill="#66cdaa" stroke="black" d="M401,-180C401,-180 357,-180 357,-180 351,-180 345,-174 345,-168 345,-168 345,-156 345,-156 345,-150 351,-144 357,-144 357,-144 401,-144 401,-144 407,-144 413,-150 413,-156 413,-156 413,-168 413,-168 413,-174 407,-180 401,-180"/>
<text text-anchor="middle" x="379" y="-158.3" font-family="Times,serif" font-size="14.00">Subscript</text>
</g>
<!-- ast.Call object at 0x7f33aea1edd0&#45;&gt;ast.Subscript object at 0x7f33aea1efe0 -->
<g id="edge36" class="edge">
<title>ast.Call object at 0x7f33aea1edd0&#45;&gt;ast.Subscript object at 0x7f33aea1efe0</title>
<path fill="none" stroke="black" d="M378.25,-215.7C378.36,-207.98 378.49,-198.71 378.61,-190.11"/>
<polygon fill="black" stroke="black" points="382.11,-190.15 378.76,-180.1 375.11,-190.05 382.11,-190.15"/>
</g>
<!-- ast.Attribute object at 0x7f33aea1e140&#45;&gt;ast.Load object at 0x7f33d66edf90 -->
<g id="edge35" class="edge">
<title>ast.Attribute object at 0x7f33aea1e140&#45;&gt;ast.Load object at 0x7f33d66edf90</title>
<path fill="none" stroke="black" d="M236.58,-143.91C220.37,-124.92 200.27,-94.04 217,-72 235.41,-47.75 319.95,-31.61 369.84,-24.02"/>
<polygon fill="black" stroke="black" points="370.54,-27.46 379.92,-22.53 369.52,-20.53 370.54,-27.46"/>
</g>
<!-- ast.Name object at 0x7f33aea1c730 -->
<g id="node29" class="node">
<title>ast.Name object at 0x7f33aea1c730</title>
<path fill="#66cdaa" stroke="black" d="M268,-108C268,-108 238,-108 238,-108 232,-108 226,-102 226,-96 226,-96 226,-84 226,-84 226,-78 232,-72 238,-72 238,-72 268,-72 268,-72 274,-72 280,-78 280,-84 280,-84 280,-96 280,-96 280,-102 274,-108 268,-108"/>
<text text-anchor="middle" x="253" y="-86.3" font-family="Times,serif" font-size="14.00">Name</text>
</g>
<!-- ast.Attribute object at 0x7f33aea1e140&#45;&gt;ast.Name object at 0x7f33aea1c730 -->
<g id="edge33" class="edge">
<title>ast.Attribute object at 0x7f33aea1e140&#45;&gt;ast.Name object at 0x7f33aea1c730</title>
<path fill="none" stroke="black" d="M253,-143.7C253,-135.98 253,-126.71 253,-118.11"/>
<polygon fill="black" stroke="black" points="256.5,-118.1 253,-108.1 249.5,-118.1 256.5,-118.1"/>
</g>
<!-- ast.Name object at 0x7f33aea1c730&#45;&gt;ast.Load object at 0x7f33d66edf90 -->
<g id="edge34" class="edge">
<title>ast.Name object at 0x7f33aea1c730&#45;&gt;ast.Load object at 0x7f33d66edf90</title>
<path fill="none" stroke="black" d="M280.1,-76.13C283.1,-74.73 286.11,-73.33 289,-72 316.25,-59.45 347.19,-45.56 370.56,-35.15"/>
<polygon fill="black" stroke="black" points="372.04,-38.33 379.75,-31.06 369.19,-31.93 372.04,-38.33"/>
</g>
<!-- ast.Subscript object at 0x7f33aea1efe0&#45;&gt;ast.Load object at 0x7f33d66edf90 -->
<g id="edge41" class="edge">
<title>ast.Subscript object at 0x7f33aea1efe0&#45;&gt;ast.Load object at 0x7f33d66edf90</title>
<path fill="none" stroke="black" d="M382.38,-143.87C387.17,-119.56 395.99,-74.82 401.67,-46.01"/>
<polygon fill="black" stroke="black" points="405.11,-46.68 403.61,-36.19 398.24,-45.32 405.11,-46.68"/>
</g>
<!-- ast.Name object at 0x7f33aea1d240 -->
<g id="node31" class="node">
<title>ast.Name object at 0x7f33aea1d240</title>
<path fill="#66cdaa" stroke="black" d="M450,-108C450,-108 420,-108 420,-108 414,-108 408,-102 408,-96 408,-96 408,-84 408,-84 408,-78 414,-72 420,-72 420,-72 450,-72 450,-72 456,-72 462,-78 462,-84 462,-84 462,-96 462,-96 462,-102 456,-108 450,-108"/>
<text text-anchor="middle" x="435" y="-86.3" font-family="Times,serif" font-size="14.00">Name</text>
</g>
<!-- ast.Subscript object at 0x7f33aea1efe0&#45;&gt;ast.Name object at 0x7f33aea1d240 -->
<g id="edge37" class="edge">
<title>ast.Subscript object at 0x7f33aea1efe0&#45;&gt;ast.Name object at 0x7f33aea1d240</title>
<path fill="none" stroke="black" d="M392.84,-143.7C399.49,-135.39 407.58,-125.28 414.89,-116.14"/>
<polygon fill="black" stroke="black" points="417.8,-118.1 421.32,-108.1 412.34,-113.73 417.8,-118.1"/>
</g>
<!-- ast.Name object at 0x7f33aea1ee30 -->
<g id="node32" class="node">
<title>ast.Name object at 0x7f33aea1ee30</title>
<path fill="#66cdaa" stroke="black" d="M340,-108C340,-108 310,-108 310,-108 304,-108 298,-102 298,-96 298,-96 298,-84 298,-84 298,-78 304,-72 310,-72 310,-72 340,-72 340,-72 346,-72 352,-78 352,-84 352,-84 352,-96 352,-96 352,-102 346,-108 340,-108"/>
<text text-anchor="middle" x="325" y="-86.3" font-family="Times,serif" font-size="14.00">Name</text>
</g>
<!-- ast.Subscript object at 0x7f33aea1efe0&#45;&gt;ast.Name object at 0x7f33aea1ee30 -->
<g id="edge39" class="edge">
<title>ast.Subscript object at 0x7f33aea1efe0&#45;&gt;ast.Name object at 0x7f33aea1ee30</title>
<path fill="none" stroke="black" d="M365.65,-143.7C359.24,-135.39 351.44,-125.28 344.39,-116.14"/>
<polygon fill="black" stroke="black" points="347.07,-113.88 338.19,-108.1 341.53,-118.16 347.07,-113.88"/>
</g>
<!-- ast.Name object at 0x7f33aea1d240&#45;&gt;ast.Load object at 0x7f33d66edf90 -->
<g id="edge38" class="edge">
<title>ast.Name object at 0x7f33aea1d240&#45;&gt;ast.Load object at 0x7f33d66edf90</title>
<path fill="none" stroke="black" d="M428.08,-71.7C424.93,-63.81 421.12,-54.3 417.62,-45.55"/>
<polygon fill="black" stroke="black" points="420.81,-44.09 413.84,-36.1 414.31,-46.69 420.81,-44.09"/>
</g>
<!-- ast.Name object at 0x7f33aea1ee30&#45;&gt;ast.Load object at 0x7f33d66edf90 -->
<g id="edge40" class="edge">
<title>ast.Name object at 0x7f33aea1ee30&#45;&gt;ast.Load object at 0x7f33d66edf90</title>
<path fill="none" stroke="black" d="M345.27,-71.7C355.5,-62.97 368.06,-52.24 379.18,-42.75"/>
<polygon fill="black" stroke="black" points="381.63,-45.26 386.96,-36.1 377.09,-39.94 381.63,-45.26"/>
</g>
<!-- ast.Call object at 0x7f33aea1d180 -->
<g id="node34" class="node">
<title>ast.Call object at 0x7f33aea1d180</title>
<path fill="#66cdaa" stroke="black" d="M776,-180C776,-180 746,-180 746,-180 740,-180 734,-174 734,-168 734,-168 734,-156 734,-156 734,-150 740,-144 746,-144 746,-144 776,-144 776,-144 782,-144 788,-150 788,-156 788,-156 788,-168 788,-168 788,-174 782,-180 776,-180"/>
<text text-anchor="middle" x="761" y="-158.3" font-family="Times,serif" font-size="14.00">Call</text>
</g>
<!-- ast.Return object at 0x7f33aea1cfa0&#45;&gt;ast.Call object at 0x7f33aea1d180 -->
<g id="edge43" class="edge">
<title>ast.Return object at 0x7f33aea1cfa0&#45;&gt;ast.Call object at 0x7f33aea1d180</title>
<path fill="none" stroke="black" d="M552.22,-431.97C589.69,-383.7 696.73,-245.8 741.23,-188.47"/>
<polygon fill="black" stroke="black" points="744.2,-190.35 747.57,-180.31 738.67,-186.06 744.2,-190.35"/>
</g>
<!-- ast.Name object at 0x7f33aea1c7f0 -->
<g id="node35" class="node">
<title>ast.Name object at 0x7f33aea1c7f0</title>
<path fill="#66cdaa" stroke="black" d="M704,-108C704,-108 674,-108 674,-108 668,-108 662,-102 662,-96 662,-96 662,-84 662,-84 662,-78 668,-72 674,-72 674,-72 704,-72 704,-72 710,-72 716,-78 716,-84 716,-84 716,-96 716,-96 716,-102 710,-108 704,-108"/>
<text text-anchor="middle" x="689" y="-86.3" font-family="Times,serif" font-size="14.00">Name</text>
</g>
<!-- ast.Call object at 0x7f33aea1d180&#45;&gt;ast.Name object at 0x7f33aea1c7f0 -->
<g id="edge44" class="edge">
<title>ast.Call object at 0x7f33aea1d180&#45;&gt;ast.Name object at 0x7f33aea1c7f0</title>
<path fill="none" stroke="black" d="M743.2,-143.7C734.4,-135.14 723.62,-124.66 714,-115.3"/>
<polygon fill="black" stroke="black" points="716.2,-112.57 706.59,-108.1 711.32,-117.58 716.2,-112.57"/>
</g>
<!-- ast.Name object at 0x7f33aea1d060 -->
<g id="node36" class="node">
<title>ast.Name object at 0x7f33aea1d060</title>
<path fill="#66cdaa" stroke="black" d="M776,-108C776,-108 746,-108 746,-108 740,-108 734,-102 734,-96 734,-96 734,-84 734,-84 734,-78 740,-72 746,-72 746,-72 776,-72 776,-72 782,-72 788,-78 788,-84 788,-84 788,-96 788,-96 788,-102 782,-108 776,-108"/>
<text text-anchor="middle" x="761" y="-86.3" font-family="Times,serif" font-size="14.00">Name</text>
</g>
<!-- ast.Call object at 0x7f33aea1d180&#45;&gt;ast.Name object at 0x7f33aea1d060 -->
<g id="edge46" class="edge">
<title>ast.Call object at 0x7f33aea1d180&#45;&gt;ast.Name object at 0x7f33aea1d060</title>
<path fill="none" stroke="black" d="M761,-143.7C761,-135.98 761,-126.71 761,-118.11"/>
<polygon fill="black" stroke="black" points="764.5,-118.1 761,-108.1 757.5,-118.1 764.5,-118.1"/>
</g>
<!-- ast.Name object at 0x7f33aea1c7f0&#45;&gt;ast.Load object at 0x7f33d66edf90 -->
<g id="edge45" class="edge">
<title>ast.Name object at 0x7f33aea1c7f0&#45;&gt;ast.Load object at 0x7f33d66edf90</title>
<path fill="none" stroke="black" d="M661.75,-75.34C658.83,-74.12 655.88,-72.98 653,-72 580.91,-47.57 493.01,-31.85 444.21,-24.29"/>
<polygon fill="black" stroke="black" points="444.53,-20.8 434.12,-22.76 443.48,-27.72 444.53,-20.8"/>
</g>
<!-- ast.Name object at 0x7f33aea1d060&#45;&gt;ast.Load object at 0x7f33d66edf90 -->
<g id="edge47" class="edge">
<title>ast.Name object at 0x7f33aea1d060&#45;&gt;ast.Load object at 0x7f33d66edf90</title>
<path fill="none" stroke="black" d="M733.8,-75.2C730.87,-74.01 727.9,-72.91 725,-72 626.48,-41.18 504.87,-27.26 444.57,-21.89"/>
<polygon fill="black" stroke="black" points="444.65,-18.38 434.39,-21.01 444.05,-25.35 444.65,-18.38"/>
</g>
</g>
</svg>
