<?xml version="1.0" encoding="UTF-8" standalone="no"?>
<!DOCTYPE svg PUBLIC "-//W3C//DTD SVG 1.1//EN"
 "http://www.w3.org/Graphics/SVG/1.1/DTD/svg11.dtd">
<!-- Generated by graphviz version 2.43.0 (0)
 -->
<!-- Title: %3 Pages: 1 -->
<svg width="994pt" height="476pt"
 viewBox="0.00 0.00 993.50 476.00" xmlns="http://www.w3.org/2000/svg" xmlns:xlink="http://www.w3.org/1999/xlink">
<g id="graph0" class="graph" transform="scale(1 1) rotate(0) translate(4 472)">
<title>%3</title>
<polygon fill="white" stroke="transparent" points="-4,4 -4,-472 989.5,-472 989.5,4 -4,4"/>
<!-- ast.Module object at 0x7f330daeb9d0 -->
<g id="node1" class="node">
<title>ast.Module object at 0x7f330daeb9d0</title>
<path fill="#66cdaa" stroke="black" d="M382,-468C382,-468 347,-468 347,-468 341,-468 335,-462 335,-456 335,-456 335,-444 335,-444 335,-438 341,-432 347,-432 347,-432 382,-432 382,-432 388,-432 394,-438 394,-444 394,-444 394,-456 394,-456 394,-462 388,-468 382,-468"/>
<text text-anchor="middle" x="364.5" y="-446.3" font-family="Times,serif" font-size="14.00">Module</text>
</g>
<!-- ast.FunctionDef object at 0x7f330dae8430 -->
<g id="node2" class="node">
<title>ast.FunctionDef object at 0x7f330dae8430</title>
<path fill="#66cdaa" stroke="black" d="M395,-396C395,-396 334,-396 334,-396 328,-396 322,-390 322,-384 322,-384 322,-372 322,-372 322,-366 328,-360 334,-360 334,-360 395,-360 395,-360 401,-360 407,-366 407,-372 407,-372 407,-384 407,-384 407,-390 401,-396 395,-396"/>
<text text-anchor="middle" x="364.5" y="-374.3" font-family="Times,serif" font-size="14.00">FunctionDef</text>
</g>
<!-- ast.Module object at 0x7f330daeb9d0&#45;&gt;ast.FunctionDef object at 0x7f330dae8430 -->
<g id="edge1" class="edge">
<title>ast.Module object at 0x7f330daeb9d0&#45;&gt;ast.FunctionDef object at 0x7f330dae8430</title>
<path fill="none" stroke="black" d="M364.5,-431.7C364.5,-423.98 364.5,-414.71 364.5,-406.11"/>
<polygon fill="black" stroke="black" points="368,-406.1 364.5,-396.1 361,-406.1 368,-406.1"/>
</g>
<!-- ast.arguments object at 0x7f330dae92d0 -->
<g id="node3" class="node">
<title>ast.arguments object at 0x7f330dae92d0</title>
<path fill="#66cdaa" stroke="black" d="M230.5,-324C230.5,-324 180.5,-324 180.5,-324 174.5,-324 168.5,-318 168.5,-312 168.5,-312 168.5,-300 168.5,-300 168.5,-294 174.5,-288 180.5,-288 180.5,-288 230.5,-288 230.5,-288 236.5,-288 242.5,-294 242.5,-300 242.5,-300 242.5,-312 242.5,-312 242.5,-318 236.5,-324 230.5,-324"/>
<text text-anchor="middle" x="205.5" y="-302.3" font-family="Times,serif" font-size="14.00">arguments</text>
</g>
<!-- ast.FunctionDef object at 0x7f330dae8430&#45;&gt;ast.arguments object at 0x7f330dae92d0 -->
<g id="edge2" class="edge">
<title>ast.FunctionDef object at 0x7f330dae8430&#45;&gt;ast.arguments object at 0x7f330dae92d0</title>
<path fill="none" stroke="black" d="M325.6,-359.88C303.38,-350.09 275.38,-337.76 252,-327.47"/>
<polygon fill="black" stroke="black" points="253.19,-324.17 242.63,-323.35 250.37,-330.58 253.19,-324.17"/>
</g>
<!-- ast.Assign object at 0x7f330dae8370 -->
<g id="node5" class="node">
<title>ast.Assign object at 0x7f330dae8370</title>
<path fill="#66cdaa" stroke="black" d="M324.5,-252C324.5,-252 294.5,-252 294.5,-252 288.5,-252 282.5,-246 282.5,-240 282.5,-240 282.5,-228 282.5,-228 282.5,-222 288.5,-216 294.5,-216 294.5,-216 324.5,-216 324.5,-216 330.5,-216 336.5,-222 336.5,-228 336.5,-228 336.5,-240 336.5,-240 336.5,-246 330.5,-252 324.5,-252"/>
<text text-anchor="middle" x="309.5" y="-230.3" font-family="Times,serif" font-size="14.00">Assign</text>
</g>
<!-- ast.FunctionDef object at 0x7f330dae8430&#45;&gt;ast.Assign object at 0x7f330dae8370 -->
<g id="edge4" class="edge">
<title>ast.FunctionDef object at 0x7f330dae8430&#45;&gt;ast.Assign object at 0x7f330dae8370</title>
<path fill="none" stroke="black" d="M350.34,-359.85C342.81,-349.93 334,-336.89 328.5,-324 320.09,-304.29 315.26,-280.49 312.57,-262.46"/>
<polygon fill="black" stroke="black" points="316.01,-261.76 311.2,-252.33 309.07,-262.71 316.01,-261.76"/>
</g>
<!-- ast.Assign object at 0x7f330dae8070 -->
<g id="node14" class="node">
<title>ast.Assign object at 0x7f330dae8070</title>
<path fill="#66cdaa" stroke="black" d="M379.5,-324C379.5,-324 349.5,-324 349.5,-324 343.5,-324 337.5,-318 337.5,-312 337.5,-312 337.5,-300 337.5,-300 337.5,-294 343.5,-288 349.5,-288 349.5,-288 379.5,-288 379.5,-288 385.5,-288 391.5,-294 391.5,-300 391.5,-300 391.5,-312 391.5,-312 391.5,-318 385.5,-324 379.5,-324"/>
<text text-anchor="middle" x="364.5" y="-302.3" font-family="Times,serif" font-size="14.00">Assign</text>
</g>
<!-- ast.FunctionDef object at 0x7f330dae8430&#45;&gt;ast.Assign object at 0x7f330dae8070 -->
<g id="edge14" class="edge">
<title>ast.FunctionDef object at 0x7f330dae8430&#45;&gt;ast.Assign object at 0x7f330dae8070</title>
<path fill="none" stroke="black" d="M364.5,-359.7C364.5,-351.98 364.5,-342.71 364.5,-334.11"/>
<polygon fill="black" stroke="black" points="368,-334.1 364.5,-324.1 361,-334.1 368,-334.1"/>
</g>
<!-- ast.Assign object at 0x7f330dae87f0 -->
<g id="node23" class="node">
<title>ast.Assign object at 0x7f330dae87f0</title>
<path fill="#66cdaa" stroke="black" d="M451.5,-324C451.5,-324 421.5,-324 421.5,-324 415.5,-324 409.5,-318 409.5,-312 409.5,-312 409.5,-300 409.5,-300 409.5,-294 415.5,-288 421.5,-288 421.5,-288 451.5,-288 451.5,-288 457.5,-288 463.5,-294 463.5,-300 463.5,-300 463.5,-312 463.5,-312 463.5,-318 457.5,-324 451.5,-324"/>
<text text-anchor="middle" x="436.5" y="-302.3" font-family="Times,serif" font-size="14.00">Assign</text>
</g>
<!-- ast.FunctionDef object at 0x7f330dae8430&#45;&gt;ast.Assign object at 0x7f330dae87f0 -->
<g id="edge28" class="edge">
<title>ast.FunctionDef object at 0x7f330dae8430&#45;&gt;ast.Assign object at 0x7f330dae87f0</title>
<path fill="none" stroke="black" d="M382.3,-359.7C391.1,-351.14 401.88,-340.66 411.5,-331.3"/>
<polygon fill="black" stroke="black" points="414.18,-333.58 418.91,-324.1 409.3,-328.57 414.18,-333.58"/>
</g>
<!-- ast.Return object at 0x7f330dae8af0 -->
<g id="node30" class="node">
<title>ast.Return object at 0x7f330dae8af0</title>
<path fill="#66cdaa" stroke="black" d="M617.5,-324C617.5,-324 587.5,-324 587.5,-324 581.5,-324 575.5,-318 575.5,-312 575.5,-312 575.5,-300 575.5,-300 575.5,-294 581.5,-288 587.5,-288 587.5,-288 617.5,-288 617.5,-288 623.5,-288 629.5,-294 629.5,-300 629.5,-300 629.5,-312 629.5,-312 629.5,-318 623.5,-324 617.5,-324"/>
<text text-anchor="middle" x="602.5" y="-302.3" font-family="Times,serif" font-size="14.00">Return</text>
</g>
<!-- ast.FunctionDef object at 0x7f330dae8430&#45;&gt;ast.Return object at 0x7f330dae8af0 -->
<g id="edge39" class="edge">
<title>ast.FunctionDef object at 0x7f330dae8430&#45;&gt;ast.Return object at 0x7f330dae8af0</title>
<path fill="none" stroke="black" d="M407.05,-364.49C452.23,-351.2 522.91,-330.41 565.75,-317.81"/>
<polygon fill="black" stroke="black" points="566.88,-321.12 575.49,-314.95 564.9,-314.41 566.88,-321.12"/>
</g>
<!-- ast.arg object at 0x7f330dae8490 -->
<g id="node4" class="node">
<title>ast.arg object at 0x7f330dae8490</title>
<path fill="#66cdaa" stroke="black" d="M180.5,-252C180.5,-252 150.5,-252 150.5,-252 144.5,-252 138.5,-246 138.5,-240 138.5,-240 138.5,-228 138.5,-228 138.5,-222 144.5,-216 150.5,-216 150.5,-216 180.5,-216 180.5,-216 186.5,-216 192.5,-222 192.5,-228 192.5,-228 192.5,-240 192.5,-240 192.5,-246 186.5,-252 180.5,-252"/>
<text text-anchor="middle" x="165.5" y="-230.3" font-family="Times,serif" font-size="14.00">arg</text>
</g>
<!-- ast.arguments object at 0x7f330dae92d0&#45;&gt;ast.arg object at 0x7f330dae8490 -->
<g id="edge3" class="edge">
<title>ast.arguments object at 0x7f330dae92d0&#45;&gt;ast.arg object at 0x7f330dae8490</title>
<path fill="none" stroke="black" d="M195.61,-287.7C191.01,-279.64 185.44,-269.89 180.35,-260.98"/>
<polygon fill="black" stroke="black" points="183.27,-259.05 175.27,-252.1 177.2,-262.52 183.27,-259.05"/>
</g>
<!-- ast.Name object at 0x7f330dae9cc0 -->
<g id="node6" class="node">
<title>ast.Name object at 0x7f330dae9cc0</title>
<path fill="#66cdaa" stroke="black" d="M216.5,-180C216.5,-180 186.5,-180 186.5,-180 180.5,-180 174.5,-174 174.5,-168 174.5,-168 174.5,-156 174.5,-156 174.5,-150 180.5,-144 186.5,-144 186.5,-144 216.5,-144 216.5,-144 222.5,-144 228.5,-150 228.5,-156 228.5,-156 228.5,-168 228.5,-168 228.5,-174 222.5,-180 216.5,-180"/>
<text text-anchor="middle" x="201.5" y="-158.3" font-family="Times,serif" font-size="14.00">Name</text>
</g>
<!-- ast.Assign object at 0x7f330dae8370&#45;&gt;ast.Name object at 0x7f330dae9cc0 -->
<g id="edge5" class="edge">
<title>ast.Assign object at 0x7f330dae8370&#45;&gt;ast.Name object at 0x7f330dae9cc0</title>
<path fill="none" stroke="black" d="M283.08,-215.88C269.09,-206.81 251.72,-195.55 236.61,-185.76"/>
<polygon fill="black" stroke="black" points="238.32,-182.69 228.02,-180.19 234.51,-188.57 238.32,-182.69"/>
</g>
<!-- ast.Subscript object at 0x7f330daeb040 -->
<g id="node8" class="node">
<title>ast.Subscript object at 0x7f330daeb040</title>
<path fill="#66cdaa" stroke="black" d="M340.5,-180C340.5,-180 296.5,-180 296.5,-180 290.5,-180 284.5,-174 284.5,-168 284.5,-168 284.5,-156 284.5,-156 284.5,-150 290.5,-144 296.5,-144 296.5,-144 340.5,-144 340.5,-144 346.5,-144 352.5,-150 352.5,-156 352.5,-156 352.5,-168 352.5,-168 352.5,-174 346.5,-180 340.5,-180"/>
<text text-anchor="middle" x="318.5" y="-158.3" font-family="Times,serif" font-size="14.00">Subscript</text>
</g>
<!-- ast.Assign object at 0x7f330dae8370&#45;&gt;ast.Subscript object at 0x7f330daeb040 -->
<g id="edge7" class="edge">
<title>ast.Assign object at 0x7f330dae8370&#45;&gt;ast.Subscript object at 0x7f330daeb040</title>
<path fill="none" stroke="black" d="M311.72,-215.7C312.72,-207.98 313.91,-198.71 315.01,-190.11"/>
<polygon fill="black" stroke="black" points="318.5,-190.47 316.3,-180.1 311.55,-189.58 318.5,-190.47"/>
</g>
<!-- ast.Store object at 0x7f33230edff0 -->
<g id="node7" class="node">
<title>ast.Store object at 0x7f33230edff0</title>
<path fill="#66cdaa" stroke="black" d="M243.5,-36C243.5,-36 213.5,-36 213.5,-36 207.5,-36 201.5,-30 201.5,-24 201.5,-24 201.5,-12 201.5,-12 201.5,-6 207.5,0 213.5,0 213.5,0 243.5,0 243.5,0 249.5,0 255.5,-6 255.5,-12 255.5,-12 255.5,-24 255.5,-24 255.5,-30 249.5,-36 243.5,-36"/>
<text text-anchor="middle" x="228.5" y="-14.3" font-family="Times,serif" font-size="14.00">Store</text>
</g>
<!-- ast.Name object at 0x7f330dae9cc0&#45;&gt;ast.Store object at 0x7f33230edff0 -->
<g id="edge6" class="edge">
<title>ast.Name object at 0x7f330dae9cc0&#45;&gt;ast.Store object at 0x7f33230edff0</title>
<path fill="none" stroke="black" d="M204.76,-143.87C209.36,-119.67 217.81,-75.21 223.29,-46.39"/>
<polygon fill="black" stroke="black" points="226.8,-46.67 225.23,-36.19 219.93,-45.36 226.8,-46.67"/>
</g>
<!-- ast.Name object at 0x7f330dae8580 -->
<g id="node9" class="node">
<title>ast.Name object at 0x7f330dae8580</title>
<path fill="#66cdaa" stroke="black" d="M321.5,-108C321.5,-108 291.5,-108 291.5,-108 285.5,-108 279.5,-102 279.5,-96 279.5,-96 279.5,-84 279.5,-84 279.5,-78 285.5,-72 291.5,-72 291.5,-72 321.5,-72 321.5,-72 327.5,-72 333.5,-78 333.5,-84 333.5,-84 333.5,-96 333.5,-96 333.5,-102 327.5,-108 321.5,-108"/>
<text text-anchor="middle" x="306.5" y="-86.3" font-family="Times,serif" font-size="14.00">Name</text>
</g>
<!-- ast.Subscript object at 0x7f330daeb040&#45;&gt;ast.Name object at 0x7f330dae8580 -->
<g id="edge8" class="edge">
<title>ast.Subscript object at 0x7f330daeb040&#45;&gt;ast.Name object at 0x7f330dae8580</title>
<path fill="none" stroke="black" d="M315.53,-143.7C314.21,-135.98 312.62,-126.71 311.15,-118.11"/>
<polygon fill="black" stroke="black" points="314.57,-117.37 309.43,-108.1 307.67,-118.55 314.57,-117.37"/>
</g>
<!-- ast.Load object at 0x7f33230edf90 -->
<g id="node10" class="node">
<title>ast.Load object at 0x7f33230edf90</title>
<path fill="#66cdaa" stroke="black" d="M674.5,-36C674.5,-36 644.5,-36 644.5,-36 638.5,-36 632.5,-30 632.5,-24 632.5,-24 632.5,-12 632.5,-12 632.5,-6 638.5,0 644.5,0 644.5,0 674.5,0 674.5,0 680.5,0 686.5,-6 686.5,-12 686.5,-12 686.5,-24 686.5,-24 686.5,-30 680.5,-36 674.5,-36"/>
<text text-anchor="middle" x="659.5" y="-14.3" font-family="Times,serif" font-size="14.00">Load</text>
</g>
<!-- ast.Subscript object at 0x7f330daeb040&#45;&gt;ast.Load object at 0x7f33230edf90 -->
<g id="edge13" class="edge">
<title>ast.Subscript object at 0x7f330daeb040&#45;&gt;ast.Load object at 0x7f33230edf90</title>
<path fill="none" stroke="black" d="M352.65,-144.83C371.58,-135.22 395.14,-122.16 414.5,-108 433.28,-94.27 432.13,-83.25 452.5,-72 507.1,-41.85 579.27,-28.44 622.38,-22.79"/>
<polygon fill="black" stroke="black" points="622.93,-26.25 632.43,-21.54 622.07,-19.3 622.93,-26.25"/>
</g>
<!-- ast.Slice object at 0x7f330dae8910 -->
<g id="node11" class="node">
<title>ast.Slice object at 0x7f330dae8910</title>
<path fill="#66cdaa" stroke="black" d="M106.5,-108C106.5,-108 76.5,-108 76.5,-108 70.5,-108 64.5,-102 64.5,-96 64.5,-96 64.5,-84 64.5,-84 64.5,-78 70.5,-72 76.5,-72 76.5,-72 106.5,-72 106.5,-72 112.5,-72 118.5,-78 118.5,-84 118.5,-84 118.5,-96 118.5,-96 118.5,-102 112.5,-108 106.5,-108"/>
<text text-anchor="middle" x="91.5" y="-86.3" font-family="Times,serif" font-size="14.00">Slice</text>
</g>
<!-- ast.Subscript object at 0x7f330daeb040&#45;&gt;ast.Slice object at 0x7f330dae8910 -->
<g id="edge10" class="edge">
<title>ast.Subscript object at 0x7f330daeb040&#45;&gt;ast.Slice object at 0x7f330dae8910</title>
<path fill="none" stroke="black" d="M284.02,-150.37C242.11,-137.44 171.66,-115.72 128.6,-102.44"/>
<polygon fill="black" stroke="black" points="129.39,-99.02 118.8,-99.42 127.33,-105.71 129.39,-99.02"/>
</g>
<!-- ast.Name object at 0x7f330dae8580&#45;&gt;ast.Load object at 0x7f33230edf90 -->
<g id="edge9" class="edge">
<title>ast.Name object at 0x7f330dae8580&#45;&gt;ast.Load object at 0x7f33230edf90</title>
<path fill="none" stroke="black" d="M333.7,-75.2C336.63,-74.01 339.6,-72.91 342.5,-72 440.71,-41.25 561.94,-27.3 622.05,-21.9"/>
<polygon fill="black" stroke="black" points="622.54,-25.37 632.2,-21.02 621.93,-18.4 622.54,-25.37"/>
</g>
<!-- ast.Constant object at 0x7f330daeaf20 -->
<g id="node12" class="node">
<title>ast.Constant object at 0x7f330daeaf20</title>
<path fill="#66cdaa" stroke="black" d="M53,-36C53,-36 12,-36 12,-36 6,-36 0,-30 0,-24 0,-24 0,-12 0,-12 0,-6 6,0 12,0 12,0 53,0 53,0 59,0 65,-6 65,-12 65,-12 65,-24 65,-24 65,-30 59,-36 53,-36"/>
<text text-anchor="middle" x="32.5" y="-14.3" font-family="Times,serif" font-size="14.00">Constant</text>
</g>
<!-- ast.Slice object at 0x7f330dae8910&#45;&gt;ast.Constant object at 0x7f330daeaf20 -->
<g id="edge11" class="edge">
<title>ast.Slice object at 0x7f330dae8910&#45;&gt;ast.Constant object at 0x7f330daeaf20</title>
<path fill="none" stroke="black" d="M76.92,-71.7C69.84,-63.3 61.22,-53.07 53.45,-43.86"/>
<polygon fill="black" stroke="black" points="56.04,-41.49 46.92,-36.1 50.69,-46.01 56.04,-41.49"/>
</g>
<!-- ast.Constant object at 0x7f330dae9780 -->
<g id="node13" class="node">
<title>ast.Constant object at 0x7f330dae9780</title>
<path fill="#66cdaa" stroke="black" d="M136,-36C136,-36 95,-36 95,-36 89,-36 83,-30 83,-24 83,-24 83,-12 83,-12 83,-6 89,0 95,0 95,0 136,0 136,0 142,0 148,-6 148,-12 148,-12 148,-24 148,-24 148,-30 142,-36 136,-36"/>
<text text-anchor="middle" x="115.5" y="-14.3" font-family="Times,serif" font-size="14.00">Constant</text>
</g>
<!-- ast.Slice object at 0x7f330dae8910&#45;&gt;ast.Constant object at 0x7f330dae9780 -->
<g id="edge12" class="edge">
<title>ast.Slice object at 0x7f330dae8910&#45;&gt;ast.Constant object at 0x7f330dae9780</title>
<path fill="none" stroke="black" d="M97.43,-71.7C100.11,-63.9 103.33,-54.51 106.3,-45.83"/>
<polygon fill="black" stroke="black" points="109.7,-46.7 109.64,-36.1 103.08,-44.43 109.7,-46.7"/>
</g>
<!-- ast.Name object at 0x7f330dae9960 -->
<g id="node15" class="node">
<title>ast.Name object at 0x7f330dae9960</title>
<path fill="#66cdaa" stroke="black" d="M252.5,-252C252.5,-252 222.5,-252 222.5,-252 216.5,-252 210.5,-246 210.5,-240 210.5,-240 210.5,-228 210.5,-228 210.5,-222 216.5,-216 222.5,-216 222.5,-216 252.5,-216 252.5,-216 258.5,-216 264.5,-222 264.5,-228 264.5,-228 264.5,-240 264.5,-240 264.5,-246 258.5,-252 252.5,-252"/>
<text text-anchor="middle" x="237.5" y="-230.3" font-family="Times,serif" font-size="14.00">Name</text>
</g>
<!-- ast.Assign object at 0x7f330dae8070&#45;&gt;ast.Name object at 0x7f330dae9960 -->
<g id="edge15" class="edge">
<title>ast.Assign object at 0x7f330dae8070&#45;&gt;ast.Name object at 0x7f330dae9960</title>
<path fill="none" stroke="black" d="M337.26,-289.98C318.67,-279.74 293.86,-266.07 273.63,-254.92"/>
<polygon fill="black" stroke="black" points="275.15,-251.75 264.7,-249.99 271.77,-257.88 275.15,-251.75"/>
</g>
<!-- ast.ListComp object at 0x7f330daeaad0 -->
<g id="node16" class="node">
<title>ast.ListComp object at 0x7f330daeaad0</title>
<path fill="#66cdaa" stroke="black" d="M486,-252C486,-252 439,-252 439,-252 433,-252 427,-246 427,-240 427,-240 427,-228 427,-228 427,-222 433,-216 439,-216 439,-216 486,-216 486,-216 492,-216 498,-222 498,-228 498,-228 498,-240 498,-240 498,-246 492,-252 486,-252"/>
<text text-anchor="middle" x="462.5" y="-230.3" font-family="Times,serif" font-size="14.00">ListComp</text>
</g>
<!-- ast.Assign object at 0x7f330dae8070&#45;&gt;ast.ListComp object at 0x7f330daeaad0 -->
<g id="edge17" class="edge">
<title>ast.Assign object at 0x7f330dae8070&#45;&gt;ast.ListComp object at 0x7f330daeaad0</title>
<path fill="none" stroke="black" d="M388.47,-287.88C401.05,-278.89 416.63,-267.76 430.25,-258.03"/>
<polygon fill="black" stroke="black" points="432.33,-260.85 438.43,-252.19 428.26,-255.15 432.33,-260.85"/>
</g>
<!-- ast.Name object at 0x7f330dae9960&#45;&gt;ast.Store object at 0x7f33230edff0 -->
<g id="edge16" class="edge">
<title>ast.Name object at 0x7f330dae9960&#45;&gt;ast.Store object at 0x7f33230edff0</title>
<path fill="none" stroke="black" d="M210.42,-221.01C194.17,-212.21 174.88,-198.56 165.5,-180 142.13,-133.77 178.9,-76.71 205.34,-44.42"/>
<polygon fill="black" stroke="black" points="208.35,-46.28 212.14,-36.38 203.01,-41.76 208.35,-46.28"/>
</g>
<!-- ast.Call object at 0x7f330dae97b0 -->
<g id="node17" class="node">
<title>ast.Call object at 0x7f330dae97b0</title>
<path fill="#66cdaa" stroke="black" d="M563.5,-180C563.5,-180 533.5,-180 533.5,-180 527.5,-180 521.5,-174 521.5,-168 521.5,-168 521.5,-156 521.5,-156 521.5,-150 527.5,-144 533.5,-144 533.5,-144 563.5,-144 563.5,-144 569.5,-144 575.5,-150 575.5,-156 575.5,-156 575.5,-168 575.5,-168 575.5,-174 569.5,-180 563.5,-180"/>
<text text-anchor="middle" x="548.5" y="-158.3" font-family="Times,serif" font-size="14.00">Call</text>
</g>
<!-- ast.ListComp object at 0x7f330daeaad0&#45;&gt;ast.Call object at 0x7f330dae97b0 -->
<g id="edge18" class="edge">
<title>ast.ListComp object at 0x7f330daeaad0&#45;&gt;ast.Call object at 0x7f330dae97b0</title>
<path fill="none" stroke="black" d="M483.76,-215.7C494.59,-206.88 507.92,-196.03 519.66,-186.47"/>
<polygon fill="black" stroke="black" points="521.94,-189.13 527.49,-180.1 517.52,-183.7 521.94,-189.13"/>
</g>
<!-- ast.comprehension object at 0x7f330dae9b10 -->
<g id="node20" class="node">
<title>ast.comprehension object at 0x7f330dae9b10</title>
<path fill="#66cdaa" stroke="black" d="M491.5,-180C491.5,-180 415.5,-180 415.5,-180 409.5,-180 403.5,-174 403.5,-168 403.5,-168 403.5,-156 403.5,-156 403.5,-150 409.5,-144 415.5,-144 415.5,-144 491.5,-144 491.5,-144 497.5,-144 503.5,-150 503.5,-156 503.5,-156 503.5,-168 503.5,-168 503.5,-174 497.5,-180 491.5,-180"/>
<text text-anchor="middle" x="453.5" y="-158.3" font-family="Times,serif" font-size="14.00">comprehension</text>
</g>
<!-- ast.ListComp object at 0x7f330daeaad0&#45;&gt;ast.comprehension object at 0x7f330dae9b10 -->
<g id="edge23" class="edge">
<title>ast.ListComp object at 0x7f330daeaad0&#45;&gt;ast.comprehension object at 0x7f330dae9b10</title>
<path fill="none" stroke="black" d="M460.28,-215.7C459.28,-207.98 458.09,-198.71 456.99,-190.11"/>
<polygon fill="black" stroke="black" points="460.45,-189.58 455.7,-180.1 453.5,-190.47 460.45,-189.58"/>
</g>
<!-- ast.Name object at 0x7f330daebf10 -->
<g id="node18" class="node">
<title>ast.Name object at 0x7f330daebf10</title>
<path fill="#66cdaa" stroke="black" d="M647.5,-108C647.5,-108 617.5,-108 617.5,-108 611.5,-108 605.5,-102 605.5,-96 605.5,-96 605.5,-84 605.5,-84 605.5,-78 611.5,-72 617.5,-72 617.5,-72 647.5,-72 647.5,-72 653.5,-72 659.5,-78 659.5,-84 659.5,-84 659.5,-96 659.5,-96 659.5,-102 653.5,-108 647.5,-108"/>
<text text-anchor="middle" x="632.5" y="-86.3" font-family="Times,serif" font-size="14.00">Name</text>
</g>
<!-- ast.Call object at 0x7f330dae97b0&#45;&gt;ast.Name object at 0x7f330daebf10 -->
<g id="edge19" class="edge">
<title>ast.Call object at 0x7f330dae97b0&#45;&gt;ast.Name object at 0x7f330daebf10</title>
<path fill="none" stroke="black" d="M569.26,-143.7C579.74,-134.97 592.61,-124.24 604,-114.75"/>
<polygon fill="black" stroke="black" points="606.53,-117.19 611.97,-108.1 602.05,-111.82 606.53,-117.19"/>
</g>
<!-- ast.Name object at 0x7f330daeb5e0 -->
<g id="node19" class="node">
<title>ast.Name object at 0x7f330daeb5e0</title>
<path fill="#66cdaa" stroke="black" d="M575.5,-108C575.5,-108 545.5,-108 545.5,-108 539.5,-108 533.5,-102 533.5,-96 533.5,-96 533.5,-84 533.5,-84 533.5,-78 539.5,-72 545.5,-72 545.5,-72 575.5,-72 575.5,-72 581.5,-72 587.5,-78 587.5,-84 587.5,-84 587.5,-96 587.5,-96 587.5,-102 581.5,-108 575.5,-108"/>
<text text-anchor="middle" x="560.5" y="-86.3" font-family="Times,serif" font-size="14.00">Name</text>
</g>
<!-- ast.Call object at 0x7f330dae97b0&#45;&gt;ast.Name object at 0x7f330daeb5e0 -->
<g id="edge21" class="edge">
<title>ast.Call object at 0x7f330dae97b0&#45;&gt;ast.Name object at 0x7f330daeb5e0</title>
<path fill="none" stroke="black" d="M551.47,-143.7C552.79,-135.98 554.38,-126.71 555.85,-118.11"/>
<polygon fill="black" stroke="black" points="559.33,-118.55 557.57,-108.1 552.43,-117.37 559.33,-118.55"/>
</g>
<!-- ast.Name object at 0x7f330daebf10&#45;&gt;ast.Load object at 0x7f33230edf90 -->
<g id="edge20" class="edge">
<title>ast.Name object at 0x7f330daebf10&#45;&gt;ast.Load object at 0x7f33230edf90</title>
<path fill="none" stroke="black" d="M639.17,-71.7C642.21,-63.81 645.88,-54.3 649.26,-45.55"/>
<polygon fill="black" stroke="black" points="652.57,-46.69 652.9,-36.1 646.04,-44.17 652.57,-46.69"/>
</g>
<!-- ast.Name object at 0x7f330daeb5e0&#45;&gt;ast.Load object at 0x7f33230edf90 -->
<g id="edge22" class="edge">
<title>ast.Name object at 0x7f330daeb5e0&#45;&gt;ast.Load object at 0x7f33230edf90</title>
<path fill="none" stroke="black" d="M584.72,-71.88C597.42,-62.89 613.16,-51.76 626.92,-42.03"/>
<polygon fill="black" stroke="black" points="629.04,-44.82 635.19,-36.19 625,-39.11 629.04,-44.82"/>
</g>
<!-- ast.Name object at 0x7f330dae9ff0 -->
<g id="node21" class="node">
<title>ast.Name object at 0x7f330dae9ff0</title>
<path fill="#66cdaa" stroke="black" d="M393.5,-108C393.5,-108 363.5,-108 363.5,-108 357.5,-108 351.5,-102 351.5,-96 351.5,-96 351.5,-84 351.5,-84 351.5,-78 357.5,-72 363.5,-72 363.5,-72 393.5,-72 393.5,-72 399.5,-72 405.5,-78 405.5,-84 405.5,-84 405.5,-96 405.5,-96 405.5,-102 399.5,-108 393.5,-108"/>
<text text-anchor="middle" x="378.5" y="-86.3" font-family="Times,serif" font-size="14.00">Name</text>
</g>
<!-- ast.comprehension object at 0x7f330dae9b10&#45;&gt;ast.Name object at 0x7f330dae9ff0 -->
<g id="edge24" class="edge">
<title>ast.comprehension object at 0x7f330dae9b10&#45;&gt;ast.Name object at 0x7f330dae9ff0</title>
<path fill="none" stroke="black" d="M434.96,-143.7C425.7,-135.05 414.34,-124.45 404.24,-115.03"/>
<polygon fill="black" stroke="black" points="406.52,-112.37 396.83,-108.1 401.75,-117.49 406.52,-112.37"/>
</g>
<!-- ast.Name object at 0x7f330dae8940 -->
<g id="node22" class="node">
<title>ast.Name object at 0x7f330dae8940</title>
<path fill="#66cdaa" stroke="black" d="M503.5,-108C503.5,-108 473.5,-108 473.5,-108 467.5,-108 461.5,-102 461.5,-96 461.5,-96 461.5,-84 461.5,-84 461.5,-78 467.5,-72 473.5,-72 473.5,-72 503.5,-72 503.5,-72 509.5,-72 515.5,-78 515.5,-84 515.5,-84 515.5,-96 515.5,-96 515.5,-102 509.5,-108 503.5,-108"/>
<text text-anchor="middle" x="488.5" y="-86.3" font-family="Times,serif" font-size="14.00">Name</text>
</g>
<!-- ast.comprehension object at 0x7f330dae9b10&#45;&gt;ast.Name object at 0x7f330dae8940 -->
<g id="edge26" class="edge">
<title>ast.comprehension object at 0x7f330dae9b10&#45;&gt;ast.Name object at 0x7f330dae8940</title>
<path fill="none" stroke="black" d="M462.15,-143.7C466.14,-135.73 470.95,-126.1 475.37,-117.26"/>
<polygon fill="black" stroke="black" points="478.61,-118.61 479.95,-108.1 472.35,-115.48 478.61,-118.61"/>
</g>
<!-- ast.Name object at 0x7f330dae9ff0&#45;&gt;ast.Store object at 0x7f33230edff0 -->
<g id="edge25" class="edge">
<title>ast.Name object at 0x7f330dae9ff0&#45;&gt;ast.Store object at 0x7f33230edff0</title>
<path fill="none" stroke="black" d="M351.38,-76.17C348.39,-74.76 345.38,-73.35 342.5,-72 316.56,-59.85 287.25,-46.22 264.85,-35.83"/>
<polygon fill="black" stroke="black" points="266.25,-32.62 255.7,-31.59 263.3,-38.97 266.25,-32.62"/>
</g>
<!-- ast.Name object at 0x7f330dae8940&#45;&gt;ast.Load object at 0x7f33230edf90 -->
<g id="edge27" class="edge">
<title>ast.Name object at 0x7f330dae8940&#45;&gt;ast.Load object at 0x7f33230edf90</title>
<path fill="none" stroke="black" d="M515.54,-75.99C518.55,-74.62 521.58,-73.26 524.5,-72 557.44,-57.78 595.54,-42.96 622.85,-32.63"/>
<polygon fill="black" stroke="black" points="624.27,-35.83 632.39,-29.03 621.8,-29.28 624.27,-35.83"/>
</g>
<!-- ast.Name object at 0x7f330dae81f0 -->
<g id="node24" class="node">
<title>ast.Name object at 0x7f330dae81f0</title>
<path fill="#66cdaa" stroke="black" d="M396.5,-252C396.5,-252 366.5,-252 366.5,-252 360.5,-252 354.5,-246 354.5,-240 354.5,-240 354.5,-228 354.5,-228 354.5,-222 360.5,-216 366.5,-216 366.5,-216 396.5,-216 396.5,-216 402.5,-216 408.5,-222 408.5,-228 408.5,-228 408.5,-240 408.5,-240 408.5,-246 402.5,-252 396.5,-252"/>
<text text-anchor="middle" x="381.5" y="-230.3" font-family="Times,serif" font-size="14.00">Name</text>
</g>
<!-- ast.Assign object at 0x7f330dae87f0&#45;&gt;ast.Name object at 0x7f330dae81f0 -->
<g id="edge29" class="edge">
<title>ast.Assign object at 0x7f330dae87f0&#45;&gt;ast.Name object at 0x7f330dae81f0</title>
<path fill="none" stroke="black" d="M422.9,-287.7C416.38,-279.39 408.43,-269.28 401.25,-260.14"/>
<polygon fill="black" stroke="black" points="403.87,-257.81 394.94,-252.1 398.37,-262.13 403.87,-257.81"/>
</g>
<!-- ast.Subscript object at 0x7f330daeafb0 -->
<g id="node25" class="node">
<title>ast.Subscript object at 0x7f330daeafb0</title>
<path fill="#66cdaa" stroke="black" d="M678.5,-252C678.5,-252 634.5,-252 634.5,-252 628.5,-252 622.5,-246 622.5,-240 622.5,-240 622.5,-228 622.5,-228 622.5,-222 628.5,-216 634.5,-216 634.5,-216 678.5,-216 678.5,-216 684.5,-216 690.5,-222 690.5,-228 690.5,-228 690.5,-240 690.5,-240 690.5,-246 684.5,-252 678.5,-252"/>
<text text-anchor="middle" x="656.5" y="-230.3" font-family="Times,serif" font-size="14.00">Subscript</text>
</g>
<!-- ast.Assign object at 0x7f330dae87f0&#45;&gt;ast.Subscript object at 0x7f330daeafb0 -->
<g id="edge31" class="edge">
<title>ast.Assign object at 0x7f330dae87f0&#45;&gt;ast.Subscript object at 0x7f330daeafb0</title>
<path fill="none" stroke="black" d="M463.92,-296.28C501.18,-284.42 568.25,-263.08 612.58,-248.98"/>
<polygon fill="black" stroke="black" points="613.75,-252.27 622.22,-245.91 611.63,-245.6 613.75,-252.27"/>
</g>
<!-- ast.Name object at 0x7f330dae81f0&#45;&gt;ast.Store object at 0x7f33230edff0 -->
<g id="edge30" class="edge">
<title>ast.Name object at 0x7f330dae81f0&#45;&gt;ast.Store object at 0x7f33230edff0</title>
<path fill="none" stroke="black" d="M354.33,-220.08C323.86,-205.5 278.29,-183.35 275.5,-180 243.17,-141.27 233.07,-81.23 229.92,-46.45"/>
<polygon fill="black" stroke="black" points="233.39,-45.81 229.13,-36.11 226.41,-46.35 233.39,-45.81"/>
</g>
<!-- ast.Subscript object at 0x7f330daeafb0&#45;&gt;ast.Load object at 0x7f33230edf90 -->
<g id="edge38" class="edge">
<title>ast.Subscript object at 0x7f330daeafb0&#45;&gt;ast.Load object at 0x7f33230edf90</title>
<path fill="none" stroke="black" d="M660.9,-215.95C663.35,-205.62 666.17,-192.14 667.5,-180 672.73,-132.28 672.53,-119.83 668.5,-72 667.78,-63.5 666.43,-54.31 664.99,-46.01"/>
<polygon fill="black" stroke="black" points="668.41,-45.29 663.15,-36.09 661.53,-46.56 668.41,-45.29"/>
</g>
<!-- ast.Call object at 0x7f330daea050 -->
<g id="node26" class="node">
<title>ast.Call object at 0x7f330daea050</title>
<path fill="#66cdaa" stroke="black" d="M757.5,-180C757.5,-180 727.5,-180 727.5,-180 721.5,-180 715.5,-174 715.5,-168 715.5,-168 715.5,-156 715.5,-156 715.5,-150 721.5,-144 727.5,-144 727.5,-144 757.5,-144 757.5,-144 763.5,-144 769.5,-150 769.5,-156 769.5,-156 769.5,-168 769.5,-168 769.5,-174 763.5,-180 757.5,-180"/>
<text text-anchor="middle" x="742.5" y="-158.3" font-family="Times,serif" font-size="14.00">Call</text>
</g>
<!-- ast.Subscript object at 0x7f330daeafb0&#45;&gt;ast.Call object at 0x7f330daea050 -->
<g id="edge32" class="edge">
<title>ast.Subscript object at 0x7f330daeafb0&#45;&gt;ast.Call object at 0x7f330daea050</title>
<path fill="none" stroke="black" d="M677.76,-215.7C688.59,-206.88 701.92,-196.03 713.66,-186.47"/>
<polygon fill="black" stroke="black" points="715.94,-189.13 721.49,-180.1 711.52,-183.7 715.94,-189.13"/>
</g>
<!-- ast.Constant object at 0x7f330daebf40 -->
<g id="node29" class="node">
<title>ast.Constant object at 0x7f330daebf40</title>
<path fill="#66cdaa" stroke="black" d="M647,-180C647,-180 606,-180 606,-180 600,-180 594,-174 594,-168 594,-168 594,-156 594,-156 594,-150 600,-144 606,-144 606,-144 647,-144 647,-144 653,-144 659,-150 659,-156 659,-156 659,-168 659,-168 659,-174 653,-180 647,-180"/>
<text text-anchor="middle" x="626.5" y="-158.3" font-family="Times,serif" font-size="14.00">Constant</text>
</g>
<!-- ast.Subscript object at 0x7f330daeafb0&#45;&gt;ast.Constant object at 0x7f330daebf40 -->
<g id="edge37" class="edge">
<title>ast.Subscript object at 0x7f330daeafb0&#45;&gt;ast.Constant object at 0x7f330daebf40</title>
<path fill="none" stroke="black" d="M649.08,-215.7C645.71,-207.81 641.63,-198.3 637.88,-189.55"/>
<polygon fill="black" stroke="black" points="640.99,-187.92 633.83,-180.1 634.55,-190.67 640.99,-187.92"/>
</g>
<!-- ast.Name object at 0x7f330daeb250 -->
<g id="node27" class="node">
<title>ast.Name object at 0x7f330daeb250</title>
<path fill="#66cdaa" stroke="black" d="M829.5,-108C829.5,-108 799.5,-108 799.5,-108 793.5,-108 787.5,-102 787.5,-96 787.5,-96 787.5,-84 787.5,-84 787.5,-78 793.5,-72 799.5,-72 799.5,-72 829.5,-72 829.5,-72 835.5,-72 841.5,-78 841.5,-84 841.5,-84 841.5,-96 841.5,-96 841.5,-102 835.5,-108 829.5,-108"/>
<text text-anchor="middle" x="814.5" y="-86.3" font-family="Times,serif" font-size="14.00">Name</text>
</g>
<!-- ast.Call object at 0x7f330daea050&#45;&gt;ast.Name object at 0x7f330daeb250 -->
<g id="edge33" class="edge">
<title>ast.Call object at 0x7f330daea050&#45;&gt;ast.Name object at 0x7f330daeb250</title>
<path fill="none" stroke="black" d="M760.3,-143.7C769.1,-135.14 779.88,-124.66 789.5,-115.3"/>
<polygon fill="black" stroke="black" points="792.18,-117.58 796.91,-108.1 787.3,-112.57 792.18,-117.58"/>
</g>
<!-- ast.Name object at 0x7f330dae90c0 -->
<g id="node28" class="node">
<title>ast.Name object at 0x7f330dae90c0</title>
<path fill="#66cdaa" stroke="black" d="M757.5,-108C757.5,-108 727.5,-108 727.5,-108 721.5,-108 715.5,-102 715.5,-96 715.5,-96 715.5,-84 715.5,-84 715.5,-78 721.5,-72 727.5,-72 727.5,-72 757.5,-72 757.5,-72 763.5,-72 769.5,-78 769.5,-84 769.5,-84 769.5,-96 769.5,-96 769.5,-102 763.5,-108 757.5,-108"/>
<text text-anchor="middle" x="742.5" y="-86.3" font-family="Times,serif" font-size="14.00">Name</text>
</g>
<!-- ast.Call object at 0x7f330daea050&#45;&gt;ast.Name object at 0x7f330dae90c0 -->
<g id="edge35" class="edge">
<title>ast.Call object at 0x7f330daea050&#45;&gt;ast.Name object at 0x7f330dae90c0</title>
<path fill="none" stroke="black" d="M742.5,-143.7C742.5,-135.98 742.5,-126.71 742.5,-118.11"/>
<polygon fill="black" stroke="black" points="746,-118.1 742.5,-108.1 739,-118.1 746,-118.1"/>
</g>
<!-- ast.Name object at 0x7f330daeb250&#45;&gt;ast.Load object at 0x7f33230edf90 -->
<g id="edge34" class="edge">
<title>ast.Name object at 0x7f330daeb250&#45;&gt;ast.Load object at 0x7f33230edf90</title>
<path fill="none" stroke="black" d="M787.4,-76.13C784.4,-74.72 781.39,-73.33 778.5,-72 750.86,-59.32 719.42,-45.34 695.8,-34.92"/>
<polygon fill="black" stroke="black" points="697.08,-31.66 686.52,-30.83 694.26,-38.06 697.08,-31.66"/>
</g>
<!-- ast.Name object at 0x7f330dae90c0&#45;&gt;ast.Load object at 0x7f33230edf90 -->
<g id="edge36" class="edge">
<title>ast.Name object at 0x7f330dae90c0&#45;&gt;ast.Load object at 0x7f33230edf90</title>
<path fill="none" stroke="black" d="M721.98,-71.7C711.63,-62.97 698.91,-52.24 687.66,-42.75"/>
<polygon fill="black" stroke="black" points="689.68,-39.88 679.78,-36.1 685.17,-45.23 689.68,-39.88"/>
</g>
<!-- ast.Call object at 0x7f330dae8a00 -->
<g id="node31" class="node">
<title>ast.Call object at 0x7f330dae8a00</title>
<path fill="#66cdaa" stroke="black" d="M901.5,-180C901.5,-180 871.5,-180 871.5,-180 865.5,-180 859.5,-174 859.5,-168 859.5,-168 859.5,-156 859.5,-156 859.5,-150 865.5,-144 871.5,-144 871.5,-144 901.5,-144 901.5,-144 907.5,-144 913.5,-150 913.5,-156 913.5,-156 913.5,-168 913.5,-168 913.5,-174 907.5,-180 901.5,-180"/>
<text text-anchor="middle" x="886.5" y="-158.3" font-family="Times,serif" font-size="14.00">Call</text>
</g>
<!-- ast.Return object at 0x7f330dae8af0&#45;&gt;ast.Call object at 0x7f330dae8a00 -->
<g id="edge40" class="edge">
<title>ast.Return object at 0x7f330dae8af0&#45;&gt;ast.Call object at 0x7f330dae8a00</title>
<path fill="none" stroke="black" d="M629.73,-291.38C681.15,-265.67 792.55,-209.98 850.24,-181.13"/>
<polygon fill="black" stroke="black" points="851.97,-184.18 859.35,-176.57 848.84,-177.92 851.97,-184.18"/>
</g>
<!-- ast.Name object at 0x7f330dae9030 -->
<g id="node32" class="node">
<title>ast.Name object at 0x7f330dae9030</title>
<path fill="#66cdaa" stroke="black" d="M901.5,-108C901.5,-108 871.5,-108 871.5,-108 865.5,-108 859.5,-102 859.5,-96 859.5,-96 859.5,-84 859.5,-84 859.5,-78 865.5,-72 871.5,-72 871.5,-72 901.5,-72 901.5,-72 907.5,-72 913.5,-78 913.5,-84 913.5,-84 913.5,-96 913.5,-96 913.5,-102 907.5,-108 901.5,-108"/>
<text text-anchor="middle" x="886.5" y="-86.3" font-family="Times,serif" font-size="14.00">Name</text>
</g>
<!-- ast.Call object at 0x7f330dae8a00&#45;&gt;ast.Name object at 0x7f330dae9030 -->
<g id="edge41" class="edge">
<title>ast.Call object at 0x7f330dae8a00&#45;&gt;ast.Name object at 0x7f330dae9030</title>
<path fill="none" stroke="black" d="M886.5,-143.7C886.5,-135.98 886.5,-126.71 886.5,-118.11"/>
<polygon fill="black" stroke="black" points="890,-118.1 886.5,-108.1 883,-118.1 890,-118.1"/>
</g>
<!-- ast.Name object at 0x7f330daeace0 -->
<g id="node33" class="node">
<title>ast.Name object at 0x7f330daeace0</title>
<path fill="#66cdaa" stroke="black" d="M973.5,-108C973.5,-108 943.5,-108 943.5,-108 937.5,-108 931.5,-102 931.5,-96 931.5,-96 931.5,-84 931.5,-84 931.5,-78 937.5,-72 943.5,-72 943.5,-72 973.5,-72 973.5,-72 979.5,-72 985.5,-78 985.5,-84 985.5,-84 985.5,-96 985.5,-96 985.5,-102 979.5,-108 973.5,-108"/>
<text text-anchor="middle" x="958.5" y="-86.3" font-family="Times,serif" font-size="14.00">Name</text>
</g>
<!-- ast.Call object at 0x7f330dae8a00&#45;&gt;ast.Name object at 0x7f330daeace0 -->
<g id="edge43" class="edge">
<title>ast.Call object at 0x7f330dae8a00&#45;&gt;ast.Name object at 0x7f330daeace0</title>
<path fill="none" stroke="black" d="M904.3,-143.7C913.1,-135.14 923.88,-124.66 933.5,-115.3"/>
<polygon fill="black" stroke="black" points="936.18,-117.58 940.91,-108.1 931.3,-112.57 936.18,-117.58"/>
</g>
<!-- ast.Name object at 0x7f330dae9030&#45;&gt;ast.Load object at 0x7f33230edf90 -->
<g id="edge42" class="edge">
<title>ast.Name object at 0x7f330dae9030&#45;&gt;ast.Load object at 0x7f33230edf90</title>
<path fill="none" stroke="black" d="M859.19,-75.51C856.28,-74.26 853.35,-73.06 850.5,-72 798.09,-52.52 735.27,-36.41 696.36,-27.25"/>
<polygon fill="black" stroke="black" points="697.06,-23.82 686.53,-24.96 695.48,-30.64 697.06,-23.82"/>
</g>
<!-- ast.Name object at 0x7f330daeace0&#45;&gt;ast.Load object at 0x7f33230edf90 -->
<g id="edge44" class="edge">
<title>ast.Name object at 0x7f330daeace0&#45;&gt;ast.Load object at 0x7f33230edf90</title>
<path fill="none" stroke="black" d="M931.26,-75.3C928.34,-74.09 925.39,-72.96 922.5,-72 844.12,-46.02 748.17,-30.61 696.57,-23.58"/>
<polygon fill="black" stroke="black" points="696.93,-20.1 686.56,-22.25 696.01,-27.04 696.93,-20.1"/>
</g>
</g>
</svg>
