<?xml version="1.0" encoding="UTF-8" standalone="no"?>
<!DOCTYPE svg PUBLIC "-//W3C//DTD SVG 1.1//EN"
 "http://www.w3.org/Graphics/SVG/1.1/DTD/svg11.dtd">
<!-- Generated by graphviz version 2.43.0 (0)
 -->
<!-- Title: %3 Pages: 1 -->
<svg width="734pt" height="548pt"
 viewBox="0.00 0.00 733.50 548.00" xmlns="http://www.w3.org/2000/svg" xmlns:xlink="http://www.w3.org/1999/xlink">
<g id="graph0" class="graph" transform="scale(1 1) rotate(0) translate(4 544)">
<title>%3</title>
<polygon fill="white" stroke="transparent" points="-4,4 -4,-544 729.5,-544 729.5,4 -4,4"/>
<!-- ast.Module object at 0x7f5a14a622c0 -->
<g id="node1" class="node">
<title>ast.Module object at 0x7f5a14a622c0</title>
<path fill="#66cdaa" stroke="black" d="M299,-540C299,-540 264,-540 264,-540 258,-540 252,-534 252,-528 252,-528 252,-516 252,-516 252,-510 258,-504 264,-504 264,-504 299,-504 299,-504 305,-504 311,-510 311,-516 311,-516 311,-528 311,-528 311,-534 305,-540 299,-540"/>
<text text-anchor="middle" x="281.5" y="-518.3" font-family="Times,serif" font-size="14.00">Module</text>
</g>
<!-- ast.FunctionDef object at 0x7f5a14a63b80 -->
<g id="node2" class="node">
<title>ast.FunctionDef object at 0x7f5a14a63b80</title>
<path fill="#66cdaa" stroke="black" d="M312,-468C312,-468 251,-468 251,-468 245,-468 239,-462 239,-456 239,-456 239,-444 239,-444 239,-438 245,-432 251,-432 251,-432 312,-432 312,-432 318,-432 324,-438 324,-444 324,-444 324,-456 324,-456 324,-462 318,-468 312,-468"/>
<text text-anchor="middle" x="281.5" y="-446.3" font-family="Times,serif" font-size="14.00">FunctionDef</text>
</g>
<!-- ast.Module object at 0x7f5a14a622c0&#45;&gt;ast.FunctionDef object at 0x7f5a14a63b80 -->
<g id="edge1" class="edge">
<title>ast.Module object at 0x7f5a14a622c0&#45;&gt;ast.FunctionDef object at 0x7f5a14a63b80</title>
<path fill="none" stroke="black" d="M281.5,-503.7C281.5,-495.98 281.5,-486.71 281.5,-478.11"/>
<polygon fill="black" stroke="black" points="285,-478.1 281.5,-468.1 278,-478.1 285,-478.1"/>
</g>
<!-- ast.arguments object at 0x7f5a14a63d60 -->
<g id="node3" class="node">
<title>ast.arguments object at 0x7f5a14a63d60</title>
<path fill="#66cdaa" stroke="black" d="M219.5,-396C219.5,-396 169.5,-396 169.5,-396 163.5,-396 157.5,-390 157.5,-384 157.5,-384 157.5,-372 157.5,-372 157.5,-366 163.5,-360 169.5,-360 169.5,-360 219.5,-360 219.5,-360 225.5,-360 231.5,-366 231.5,-372 231.5,-372 231.5,-384 231.5,-384 231.5,-390 225.5,-396 219.5,-396"/>
<text text-anchor="middle" x="194.5" y="-374.3" font-family="Times,serif" font-size="14.00">arguments</text>
</g>
<!-- ast.FunctionDef object at 0x7f5a14a63b80&#45;&gt;ast.arguments object at 0x7f5a14a63d60 -->
<g id="edge2" class="edge">
<title>ast.FunctionDef object at 0x7f5a14a63b80&#45;&gt;ast.arguments object at 0x7f5a14a63d60</title>
<path fill="none" stroke="black" d="M259.99,-431.7C249.04,-422.88 235.55,-412.03 223.68,-402.47"/>
<polygon fill="black" stroke="black" points="225.74,-399.65 215.76,-396.1 221.36,-405.1 225.74,-399.65"/>
</g>
<!-- ast.Assign object at 0x7f5a14a63e80 -->
<g id="node5" class="node">
<title>ast.Assign object at 0x7f5a14a63e80</title>
<path fill="#66cdaa" stroke="black" d="M269.5,-324C269.5,-324 239.5,-324 239.5,-324 233.5,-324 227.5,-318 227.5,-312 227.5,-312 227.5,-300 227.5,-300 227.5,-294 233.5,-288 239.5,-288 239.5,-288 269.5,-288 269.5,-288 275.5,-288 281.5,-294 281.5,-300 281.5,-300 281.5,-312 281.5,-312 281.5,-318 275.5,-324 269.5,-324"/>
<text text-anchor="middle" x="254.5" y="-302.3" font-family="Times,serif" font-size="14.00">Assign</text>
</g>
<!-- ast.FunctionDef object at 0x7f5a14a63b80&#45;&gt;ast.Assign object at 0x7f5a14a63e80 -->
<g id="edge4" class="edge">
<title>ast.FunctionDef object at 0x7f5a14a63b80&#45;&gt;ast.Assign object at 0x7f5a14a63e80</title>
<path fill="none" stroke="black" d="M278.24,-431.87C273.64,-407.67 265.19,-363.21 259.71,-334.39"/>
<polygon fill="black" stroke="black" points="263.07,-333.36 257.77,-324.19 256.2,-334.67 263.07,-333.36"/>
</g>
<!-- ast.Assign object at 0x7f5a14a635e0 -->
<g id="node13" class="node">
<title>ast.Assign object at 0x7f5a14a635e0</title>
<path fill="#66cdaa" stroke="black" d="M341.5,-324C341.5,-324 311.5,-324 311.5,-324 305.5,-324 299.5,-318 299.5,-312 299.5,-312 299.5,-300 299.5,-300 299.5,-294 305.5,-288 311.5,-288 311.5,-288 341.5,-288 341.5,-288 347.5,-288 353.5,-294 353.5,-300 353.5,-300 353.5,-312 353.5,-312 353.5,-318 347.5,-324 341.5,-324"/>
<text text-anchor="middle" x="326.5" y="-302.3" font-family="Times,serif" font-size="14.00">Assign</text>
</g>
<!-- ast.FunctionDef object at 0x7f5a14a63b80&#45;&gt;ast.Assign object at 0x7f5a14a635e0 -->
<g id="edge13" class="edge">
<title>ast.FunctionDef object at 0x7f5a14a63b80&#45;&gt;ast.Assign object at 0x7f5a14a635e0</title>
<path fill="none" stroke="black" d="M286.93,-431.87C294.63,-407.56 308.81,-362.82 317.94,-334.01"/>
<polygon fill="black" stroke="black" points="321.37,-334.78 321.05,-324.19 314.7,-332.66 321.37,-334.78"/>
</g>
<!-- ast.Return object at 0x7f5a14a638b0 -->
<g id="node24" class="node">
<title>ast.Return object at 0x7f5a14a638b0</title>
<path fill="#66cdaa" stroke="black" d="M407.5,-396C407.5,-396 377.5,-396 377.5,-396 371.5,-396 365.5,-390 365.5,-384 365.5,-384 365.5,-372 365.5,-372 365.5,-366 371.5,-360 377.5,-360 377.5,-360 407.5,-360 407.5,-360 413.5,-360 419.5,-366 419.5,-372 419.5,-372 419.5,-384 419.5,-384 419.5,-390 413.5,-396 407.5,-396"/>
<text text-anchor="middle" x="392.5" y="-374.3" font-family="Times,serif" font-size="14.00">Return</text>
</g>
<!-- ast.FunctionDef object at 0x7f5a14a63b80&#45;&gt;ast.Return object at 0x7f5a14a638b0 -->
<g id="edge26" class="edge">
<title>ast.FunctionDef object at 0x7f5a14a63b80&#45;&gt;ast.Return object at 0x7f5a14a638b0</title>
<path fill="none" stroke="black" d="M308.65,-431.88C323.03,-422.81 340.88,-411.55 356.41,-401.76"/>
<polygon fill="black" stroke="black" points="358.65,-404.48 365.24,-396.19 354.92,-398.56 358.65,-404.48"/>
</g>
<!-- ast.arg object at 0x7f5a14a62350 -->
<g id="node4" class="node">
<title>ast.arg object at 0x7f5a14a62350</title>
<path fill="#66cdaa" stroke="black" d="M197.5,-324C197.5,-324 167.5,-324 167.5,-324 161.5,-324 155.5,-318 155.5,-312 155.5,-312 155.5,-300 155.5,-300 155.5,-294 161.5,-288 167.5,-288 167.5,-288 197.5,-288 197.5,-288 203.5,-288 209.5,-294 209.5,-300 209.5,-300 209.5,-312 209.5,-312 209.5,-318 203.5,-324 197.5,-324"/>
<text text-anchor="middle" x="182.5" y="-302.3" font-family="Times,serif" font-size="14.00">arg</text>
</g>
<!-- ast.arguments object at 0x7f5a14a63d60&#45;&gt;ast.arg object at 0x7f5a14a62350 -->
<g id="edge3" class="edge">
<title>ast.arguments object at 0x7f5a14a63d60&#45;&gt;ast.arg object at 0x7f5a14a62350</title>
<path fill="none" stroke="black" d="M191.53,-359.7C190.21,-351.98 188.62,-342.71 187.15,-334.11"/>
<polygon fill="black" stroke="black" points="190.57,-333.37 185.43,-324.1 183.67,-334.55 190.57,-333.37"/>
</g>
<!-- ast.Name object at 0x7f5a14a63b50 -->
<g id="node6" class="node">
<title>ast.Name object at 0x7f5a14a63b50</title>
<path fill="#66cdaa" stroke="black" d="M269.5,-252C269.5,-252 239.5,-252 239.5,-252 233.5,-252 227.5,-246 227.5,-240 227.5,-240 227.5,-228 227.5,-228 227.5,-222 233.5,-216 239.5,-216 239.5,-216 269.5,-216 269.5,-216 275.5,-216 281.5,-222 281.5,-228 281.5,-228 281.5,-240 281.5,-240 281.5,-246 275.5,-252 269.5,-252"/>
<text text-anchor="middle" x="254.5" y="-230.3" font-family="Times,serif" font-size="14.00">Name</text>
</g>
<!-- ast.Assign object at 0x7f5a14a63e80&#45;&gt;ast.Name object at 0x7f5a14a63b50 -->
<g id="edge5" class="edge">
<title>ast.Assign object at 0x7f5a14a63e80&#45;&gt;ast.Name object at 0x7f5a14a63b50</title>
<path fill="none" stroke="black" d="M254.5,-287.7C254.5,-279.98 254.5,-270.71 254.5,-262.11"/>
<polygon fill="black" stroke="black" points="258,-262.1 254.5,-252.1 251,-262.1 258,-262.1"/>
</g>
<!-- ast.Call object at 0x7f5a14a63c10 -->
<g id="node8" class="node">
<title>ast.Call object at 0x7f5a14a63c10</title>
<path fill="#66cdaa" stroke="black" d="M161.5,-252C161.5,-252 131.5,-252 131.5,-252 125.5,-252 119.5,-246 119.5,-240 119.5,-240 119.5,-228 119.5,-228 119.5,-222 125.5,-216 131.5,-216 131.5,-216 161.5,-216 161.5,-216 167.5,-216 173.5,-222 173.5,-228 173.5,-228 173.5,-240 173.5,-240 173.5,-246 167.5,-252 161.5,-252"/>
<text text-anchor="middle" x="146.5" y="-230.3" font-family="Times,serif" font-size="14.00">Call</text>
</g>
<!-- ast.Assign object at 0x7f5a14a63e80&#45;&gt;ast.Call object at 0x7f5a14a63c10 -->
<g id="edge7" class="edge">
<title>ast.Assign object at 0x7f5a14a63e80&#45;&gt;ast.Call object at 0x7f5a14a63c10</title>
<path fill="none" stroke="black" d="M228.08,-287.88C214.09,-278.81 196.72,-267.55 181.61,-257.76"/>
<polygon fill="black" stroke="black" points="183.32,-254.69 173.02,-252.19 179.51,-260.57 183.32,-254.69"/>
</g>
<!-- ast.Store object at 0x7f5a18fee020 -->
<g id="node7" class="node">
<title>ast.Store object at 0x7f5a18fee020</title>
<path fill="#66cdaa" stroke="black" d="M269.5,-180C269.5,-180 239.5,-180 239.5,-180 233.5,-180 227.5,-174 227.5,-168 227.5,-168 227.5,-156 227.5,-156 227.5,-150 233.5,-144 239.5,-144 239.5,-144 269.5,-144 269.5,-144 275.5,-144 281.5,-150 281.5,-156 281.5,-156 281.5,-168 281.5,-168 281.5,-174 275.5,-180 269.5,-180"/>
<text text-anchor="middle" x="254.5" y="-158.3" font-family="Times,serif" font-size="14.00">Store</text>
</g>
<!-- ast.Name object at 0x7f5a14a63b50&#45;&gt;ast.Store object at 0x7f5a18fee020 -->
<g id="edge6" class="edge">
<title>ast.Name object at 0x7f5a14a63b50&#45;&gt;ast.Store object at 0x7f5a18fee020</title>
<path fill="none" stroke="black" d="M254.5,-215.7C254.5,-207.98 254.5,-198.71 254.5,-190.11"/>
<polygon fill="black" stroke="black" points="258,-190.1 254.5,-180.1 251,-190.1 258,-190.1"/>
</g>
<!-- ast.Name object at 0x7f5a14a63c70 -->
<g id="node9" class="node">
<title>ast.Name object at 0x7f5a14a63c70</title>
<path fill="#66cdaa" stroke="black" d="M125.5,-180C125.5,-180 95.5,-180 95.5,-180 89.5,-180 83.5,-174 83.5,-168 83.5,-168 83.5,-156 83.5,-156 83.5,-150 89.5,-144 95.5,-144 95.5,-144 125.5,-144 125.5,-144 131.5,-144 137.5,-150 137.5,-156 137.5,-156 137.5,-168 137.5,-168 137.5,-174 131.5,-180 125.5,-180"/>
<text text-anchor="middle" x="110.5" y="-158.3" font-family="Times,serif" font-size="14.00">Name</text>
</g>
<!-- ast.Call object at 0x7f5a14a63c10&#45;&gt;ast.Name object at 0x7f5a14a63c70 -->
<g id="edge8" class="edge">
<title>ast.Call object at 0x7f5a14a63c10&#45;&gt;ast.Name object at 0x7f5a14a63c70</title>
<path fill="none" stroke="black" d="M137.6,-215.7C133.5,-207.73 128.55,-198.1 124.01,-189.26"/>
<polygon fill="black" stroke="black" points="126.98,-187.4 119.3,-180.1 120.76,-190.6 126.98,-187.4"/>
</g>
<!-- ast.Name object at 0x7f5a14a63760 -->
<g id="node11" class="node">
<title>ast.Name object at 0x7f5a14a63760</title>
<path fill="#66cdaa" stroke="black" d="M197.5,-180C197.5,-180 167.5,-180 167.5,-180 161.5,-180 155.5,-174 155.5,-168 155.5,-168 155.5,-156 155.5,-156 155.5,-150 161.5,-144 167.5,-144 167.5,-144 197.5,-144 197.5,-144 203.5,-144 209.5,-150 209.5,-156 209.5,-156 209.5,-168 209.5,-168 209.5,-174 203.5,-180 197.5,-180"/>
<text text-anchor="middle" x="182.5" y="-158.3" font-family="Times,serif" font-size="14.00">Name</text>
</g>
<!-- ast.Call object at 0x7f5a14a63c10&#45;&gt;ast.Name object at 0x7f5a14a63760 -->
<g id="edge10" class="edge">
<title>ast.Call object at 0x7f5a14a63c10&#45;&gt;ast.Name object at 0x7f5a14a63760</title>
<path fill="none" stroke="black" d="M155.4,-215.7C159.5,-207.73 164.45,-198.1 168.99,-189.26"/>
<polygon fill="black" stroke="black" points="172.24,-190.6 173.7,-180.1 166.02,-187.4 172.24,-190.6"/>
</g>
<!-- ast.Constant object at 0x7f5a14a63ee0 -->
<g id="node12" class="node">
<title>ast.Constant object at 0x7f5a14a63ee0</title>
<path fill="#66cdaa" stroke="black" d="M53,-180C53,-180 12,-180 12,-180 6,-180 0,-174 0,-168 0,-168 0,-156 0,-156 0,-150 6,-144 12,-144 12,-144 53,-144 53,-144 59,-144 65,-150 65,-156 65,-156 65,-168 65,-168 65,-174 59,-180 53,-180"/>
<text text-anchor="middle" x="32.5" y="-158.3" font-family="Times,serif" font-size="14.00">Constant</text>
</g>
<!-- ast.Call object at 0x7f5a14a63c10&#45;&gt;ast.Constant object at 0x7f5a14a63ee0 -->
<g id="edge12" class="edge">
<title>ast.Call object at 0x7f5a14a63c10&#45;&gt;ast.Constant object at 0x7f5a14a63ee0</title>
<path fill="none" stroke="black" d="M119.48,-216.41C104.48,-207.2 85.61,-195.61 69.28,-185.59"/>
<polygon fill="black" stroke="black" points="70.87,-182.45 60.51,-180.2 67.2,-188.42 70.87,-182.45"/>
</g>
<!-- ast.Load object at 0x7f5a18fedfc0 -->
<g id="node10" class="node">
<title>ast.Load object at 0x7f5a18fedfc0</title>
<path fill="#66cdaa" stroke="black" d="M269.5,-108C269.5,-108 239.5,-108 239.5,-108 233.5,-108 227.5,-102 227.5,-96 227.5,-96 227.5,-84 227.5,-84 227.5,-78 233.5,-72 239.5,-72 239.5,-72 269.5,-72 269.5,-72 275.5,-72 281.5,-78 281.5,-84 281.5,-84 281.5,-96 281.5,-96 281.5,-102 275.5,-108 269.5,-108"/>
<text text-anchor="middle" x="254.5" y="-86.3" font-family="Times,serif" font-size="14.00">Load</text>
</g>
<!-- ast.Name object at 0x7f5a14a63c70&#45;&gt;ast.Load object at 0x7f5a18fedfc0 -->
<g id="edge9" class="edge">
<title>ast.Name object at 0x7f5a14a63c70&#45;&gt;ast.Load object at 0x7f5a18fedfc0</title>
<path fill="none" stroke="black" d="M137.59,-147.83C160.27,-136.81 192.86,-120.97 217.87,-108.81"/>
<polygon fill="black" stroke="black" points="219.58,-111.87 227.05,-104.35 216.52,-105.57 219.58,-111.87"/>
</g>
<!-- ast.Name object at 0x7f5a14a63760&#45;&gt;ast.Load object at 0x7f5a18fedfc0 -->
<g id="edge11" class="edge">
<title>ast.Name object at 0x7f5a14a63760&#45;&gt;ast.Load object at 0x7f5a18fedfc0</title>
<path fill="none" stroke="black" d="M200.3,-143.7C209.1,-135.14 219.88,-124.66 229.5,-115.3"/>
<polygon fill="black" stroke="black" points="232.18,-117.58 236.91,-108.1 227.3,-112.57 232.18,-117.58"/>
</g>
<!-- ast.Name object at 0x7f5a14a63be0 -->
<g id="node14" class="node">
<title>ast.Name object at 0x7f5a14a63be0</title>
<path fill="#66cdaa" stroke="black" d="M341.5,-252C341.5,-252 311.5,-252 311.5,-252 305.5,-252 299.5,-246 299.5,-240 299.5,-240 299.5,-228 299.5,-228 299.5,-222 305.5,-216 311.5,-216 311.5,-216 341.5,-216 341.5,-216 347.5,-216 353.5,-222 353.5,-228 353.5,-228 353.5,-240 353.5,-240 353.5,-246 347.5,-252 341.5,-252"/>
<text text-anchor="middle" x="326.5" y="-230.3" font-family="Times,serif" font-size="14.00">Name</text>
</g>
<!-- ast.Assign object at 0x7f5a14a635e0&#45;&gt;ast.Name object at 0x7f5a14a63be0 -->
<g id="edge14" class="edge">
<title>ast.Assign object at 0x7f5a14a635e0&#45;&gt;ast.Name object at 0x7f5a14a63be0</title>
<path fill="none" stroke="black" d="M326.5,-287.7C326.5,-279.98 326.5,-270.71 326.5,-262.11"/>
<polygon fill="black" stroke="black" points="330,-262.1 326.5,-252.1 323,-262.1 330,-262.1"/>
</g>
<!-- ast.BinOp object at 0x7f5a14a63ca0 -->
<g id="node15" class="node">
<title>ast.BinOp object at 0x7f5a14a63ca0</title>
<path fill="#66cdaa" stroke="black" d="M485.5,-252C485.5,-252 455.5,-252 455.5,-252 449.5,-252 443.5,-246 443.5,-240 443.5,-240 443.5,-228 443.5,-228 443.5,-222 449.5,-216 455.5,-216 455.5,-216 485.5,-216 485.5,-216 491.5,-216 497.5,-222 497.5,-228 497.5,-228 497.5,-240 497.5,-240 497.5,-246 491.5,-252 485.5,-252"/>
<text text-anchor="middle" x="470.5" y="-230.3" font-family="Times,serif" font-size="14.00">BinOp</text>
</g>
<!-- ast.Assign object at 0x7f5a14a635e0&#45;&gt;ast.BinOp object at 0x7f5a14a63ca0 -->
<g id="edge16" class="edge">
<title>ast.Assign object at 0x7f5a14a635e0&#45;&gt;ast.BinOp object at 0x7f5a14a63ca0</title>
<path fill="none" stroke="black" d="M353.59,-291.83C376.27,-280.81 408.86,-264.97 433.87,-252.81"/>
<polygon fill="black" stroke="black" points="435.58,-255.87 443.05,-248.35 432.52,-249.57 435.58,-255.87"/>
</g>
<!-- ast.Name object at 0x7f5a14a63be0&#45;&gt;ast.Store object at 0x7f5a18fee020 -->
<g id="edge15" class="edge">
<title>ast.Name object at 0x7f5a14a63be0&#45;&gt;ast.Store object at 0x7f5a18fee020</title>
<path fill="none" stroke="black" d="M308.7,-215.7C299.9,-207.14 289.12,-196.66 279.5,-187.3"/>
<polygon fill="black" stroke="black" points="281.7,-184.57 272.09,-180.1 276.82,-189.58 281.7,-184.57"/>
</g>
<!-- ast.BinOp object at 0x7f5a14a63a00 -->
<g id="node16" class="node">
<title>ast.BinOp object at 0x7f5a14a63a00</title>
<path fill="#66cdaa" stroke="black" d="M641.5,-180C641.5,-180 611.5,-180 611.5,-180 605.5,-180 599.5,-174 599.5,-168 599.5,-168 599.5,-156 599.5,-156 599.5,-150 605.5,-144 611.5,-144 611.5,-144 641.5,-144 641.5,-144 647.5,-144 653.5,-150 653.5,-156 653.5,-156 653.5,-168 653.5,-168 653.5,-174 647.5,-180 641.5,-180"/>
<text text-anchor="middle" x="626.5" y="-158.3" font-family="Times,serif" font-size="14.00">BinOp</text>
</g>
<!-- ast.BinOp object at 0x7f5a14a63ca0&#45;&gt;ast.BinOp object at 0x7f5a14a63a00 -->
<g id="edge17" class="edge">
<title>ast.BinOp object at 0x7f5a14a63ca0&#45;&gt;ast.BinOp object at 0x7f5a14a63a00</title>
<path fill="none" stroke="black" d="M497.55,-220.49C500.89,-218.97 504.27,-217.44 507.5,-216 541.49,-200.82 552.29,-197.11 589.84,-180.23"/>
<polygon fill="black" stroke="black" points="591.74,-183.21 599.42,-175.9 588.86,-176.83 591.74,-183.21"/>
</g>
<!-- ast.Mod object at 0x7f5a18fee3e0 -->
<g id="node22" class="node">
<title>ast.Mod object at 0x7f5a18fee3e0</title>
<path fill="#66cdaa" stroke="black" d="M485.5,-180C485.5,-180 455.5,-180 455.5,-180 449.5,-180 443.5,-174 443.5,-168 443.5,-168 443.5,-156 443.5,-156 443.5,-150 449.5,-144 455.5,-144 455.5,-144 485.5,-144 485.5,-144 491.5,-144 497.5,-150 497.5,-156 497.5,-156 497.5,-168 497.5,-168 497.5,-174 491.5,-180 485.5,-180"/>
<text text-anchor="middle" x="470.5" y="-158.3" font-family="Times,serif" font-size="14.00">Mod</text>
</g>
<!-- ast.BinOp object at 0x7f5a14a63ca0&#45;&gt;ast.Mod object at 0x7f5a18fee3e0 -->
<g id="edge24" class="edge">
<title>ast.BinOp object at 0x7f5a14a63ca0&#45;&gt;ast.Mod object at 0x7f5a18fee3e0</title>
<path fill="none" stroke="black" d="M470.5,-215.7C470.5,-207.98 470.5,-198.71 470.5,-190.11"/>
<polygon fill="black" stroke="black" points="474,-190.1 470.5,-180.1 467,-190.1 474,-190.1"/>
</g>
<!-- ast.Constant object at 0x7f5a14a63550 -->
<g id="node23" class="node">
<title>ast.Constant object at 0x7f5a14a63550</title>
<path fill="#66cdaa" stroke="black" d="M569,-180C569,-180 528,-180 528,-180 522,-180 516,-174 516,-168 516,-168 516,-156 516,-156 516,-150 522,-144 528,-144 528,-144 569,-144 569,-144 575,-144 581,-150 581,-156 581,-156 581,-168 581,-168 581,-174 575,-180 569,-180"/>
<text text-anchor="middle" x="548.5" y="-158.3" font-family="Times,serif" font-size="14.00">Constant</text>
</g>
<!-- ast.BinOp object at 0x7f5a14a63ca0&#45;&gt;ast.Constant object at 0x7f5a14a63550 -->
<g id="edge25" class="edge">
<title>ast.BinOp object at 0x7f5a14a63ca0&#45;&gt;ast.Constant object at 0x7f5a14a63550</title>
<path fill="none" stroke="black" d="M489.78,-215.7C499.42,-207.05 511.23,-196.45 521.73,-187.03"/>
<polygon fill="black" stroke="black" points="524.34,-189.39 529.44,-180.1 519.66,-184.18 524.34,-189.39"/>
</g>
<!-- ast.BinOp object at 0x7f5a14a63370 -->
<g id="node17" class="node">
<title>ast.BinOp object at 0x7f5a14a63370</title>
<path fill="#66cdaa" stroke="black" d="M641.5,-108C641.5,-108 611.5,-108 611.5,-108 605.5,-108 599.5,-102 599.5,-96 599.5,-96 599.5,-84 599.5,-84 599.5,-78 605.5,-72 611.5,-72 611.5,-72 641.5,-72 641.5,-72 647.5,-72 653.5,-78 653.5,-84 653.5,-84 653.5,-96 653.5,-96 653.5,-102 647.5,-108 641.5,-108"/>
<text text-anchor="middle" x="626.5" y="-86.3" font-family="Times,serif" font-size="14.00">BinOp</text>
</g>
<!-- ast.BinOp object at 0x7f5a14a63a00&#45;&gt;ast.BinOp object at 0x7f5a14a63370 -->
<g id="edge18" class="edge">
<title>ast.BinOp object at 0x7f5a14a63a00&#45;&gt;ast.BinOp object at 0x7f5a14a63370</title>
<path fill="none" stroke="black" d="M626.5,-143.7C626.5,-135.98 626.5,-126.71 626.5,-118.11"/>
<polygon fill="black" stroke="black" points="630,-118.1 626.5,-108.1 623,-118.1 630,-118.1"/>
</g>
<!-- ast.Mult object at 0x7f5a18fee2c0 -->
<g id="node19" class="node">
<title>ast.Mult object at 0x7f5a18fee2c0</title>
<path fill="#66cdaa" stroke="black" d="M713.5,-36C713.5,-36 683.5,-36 683.5,-36 677.5,-36 671.5,-30 671.5,-24 671.5,-24 671.5,-12 671.5,-12 671.5,-6 677.5,0 683.5,0 683.5,0 713.5,0 713.5,0 719.5,0 725.5,-6 725.5,-12 725.5,-12 725.5,-24 725.5,-24 725.5,-30 719.5,-36 713.5,-36"/>
<text text-anchor="middle" x="698.5" y="-14.3" font-family="Times,serif" font-size="14.00">Mult</text>
</g>
<!-- ast.BinOp object at 0x7f5a14a63a00&#45;&gt;ast.Mult object at 0x7f5a18fee2c0 -->
<g id="edge22" class="edge">
<title>ast.BinOp object at 0x7f5a14a63a00&#45;&gt;ast.Mult object at 0x7f5a18fee2c0</title>
<path fill="none" stroke="black" d="M639.47,-143.92C646.79,-133.81 655.79,-120.56 662.5,-108 673.25,-87.87 682.8,-63.82 689.35,-45.8"/>
<polygon fill="black" stroke="black" points="692.71,-46.81 692.77,-36.21 686.11,-44.46 692.71,-46.81"/>
</g>
<!-- ast.Constant object at 0x7f5a14a63a90 -->
<g id="node21" class="node">
<title>ast.Constant object at 0x7f5a14a63a90</title>
<path fill="#66cdaa" stroke="black" d="M569,-108C569,-108 528,-108 528,-108 522,-108 516,-102 516,-96 516,-96 516,-84 516,-84 516,-78 522,-72 528,-72 528,-72 569,-72 569,-72 575,-72 581,-78 581,-84 581,-84 581,-96 581,-96 581,-102 575,-108 569,-108"/>
<text text-anchor="middle" x="548.5" y="-86.3" font-family="Times,serif" font-size="14.00">Constant</text>
</g>
<!-- ast.BinOp object at 0x7f5a14a63a00&#45;&gt;ast.Constant object at 0x7f5a14a63a90 -->
<g id="edge23" class="edge">
<title>ast.BinOp object at 0x7f5a14a63a00&#45;&gt;ast.Constant object at 0x7f5a14a63a90</title>
<path fill="none" stroke="black" d="M607.22,-143.7C597.58,-135.05 585.77,-124.45 575.27,-115.03"/>
<polygon fill="black" stroke="black" points="577.34,-112.18 567.56,-108.1 572.66,-117.39 577.34,-112.18"/>
</g>
<!-- ast.Constant object at 0x7f5a14a63d00 -->
<g id="node18" class="node">
<title>ast.Constant object at 0x7f5a14a63d00</title>
<path fill="#66cdaa" stroke="black" d="M558,-36C558,-36 517,-36 517,-36 511,-36 505,-30 505,-24 505,-24 505,-12 505,-12 505,-6 511,0 517,0 517,0 558,0 558,0 564,0 570,-6 570,-12 570,-12 570,-24 570,-24 570,-30 564,-36 558,-36"/>
<text text-anchor="middle" x="537.5" y="-14.3" font-family="Times,serif" font-size="14.00">Constant</text>
</g>
<!-- ast.BinOp object at 0x7f5a14a63370&#45;&gt;ast.Constant object at 0x7f5a14a63d00 -->
<g id="edge19" class="edge">
<title>ast.BinOp object at 0x7f5a14a63370&#45;&gt;ast.Constant object at 0x7f5a14a63d00</title>
<path fill="none" stroke="black" d="M604.5,-71.7C593.29,-62.88 579.5,-52.03 567.35,-42.47"/>
<polygon fill="black" stroke="black" points="569.27,-39.54 559.25,-36.1 564.94,-45.04 569.27,-39.54"/>
</g>
<!-- ast.BinOp object at 0x7f5a14a63370&#45;&gt;ast.Mult object at 0x7f5a18fee2c0 -->
<g id="edge20" class="edge">
<title>ast.BinOp object at 0x7f5a14a63370&#45;&gt;ast.Mult object at 0x7f5a18fee2c0</title>
<path fill="none" stroke="black" d="M644.3,-71.7C653.1,-63.14 663.88,-52.66 673.5,-43.3"/>
<polygon fill="black" stroke="black" points="676.18,-45.58 680.91,-36.1 671.3,-40.57 676.18,-45.58"/>
</g>
<!-- ast.Constant object at 0x7f5a14a63490 -->
<g id="node20" class="node">
<title>ast.Constant object at 0x7f5a14a63490</title>
<path fill="#66cdaa" stroke="black" d="M641,-36C641,-36 600,-36 600,-36 594,-36 588,-30 588,-24 588,-24 588,-12 588,-12 588,-6 594,0 600,0 600,0 641,0 641,0 647,0 653,-6 653,-12 653,-12 653,-24 653,-24 653,-30 647,-36 641,-36"/>
<text text-anchor="middle" x="620.5" y="-14.3" font-family="Times,serif" font-size="14.00">Constant</text>
</g>
<!-- ast.BinOp object at 0x7f5a14a63370&#45;&gt;ast.Constant object at 0x7f5a14a63490 -->
<g id="edge21" class="edge">
<title>ast.BinOp object at 0x7f5a14a63370&#45;&gt;ast.Constant object at 0x7f5a14a63490</title>
<path fill="none" stroke="black" d="M625.02,-71.7C624.36,-63.98 623.56,-54.71 622.82,-46.11"/>
<polygon fill="black" stroke="black" points="626.31,-45.77 621.97,-36.1 619.33,-46.37 626.31,-45.77"/>
</g>
<!-- ast.Compare object at 0x7f5a14a63220 -->
<g id="node25" class="node">
<title>ast.Compare object at 0x7f5a14a63220</title>
<path fill="#66cdaa" stroke="black" d="M498,-324C498,-324 455,-324 455,-324 449,-324 443,-318 443,-312 443,-312 443,-300 443,-300 443,-294 449,-288 455,-288 455,-288 498,-288 498,-288 504,-288 510,-294 510,-300 510,-300 510,-312 510,-312 510,-318 504,-324 498,-324"/>
<text text-anchor="middle" x="476.5" y="-302.3" font-family="Times,serif" font-size="14.00">Compare</text>
</g>
<!-- ast.Return object at 0x7f5a14a638b0&#45;&gt;ast.Compare object at 0x7f5a14a63220 -->
<g id="edge27" class="edge">
<title>ast.Return object at 0x7f5a14a638b0&#45;&gt;ast.Compare object at 0x7f5a14a63220</title>
<path fill="none" stroke="black" d="M413.26,-359.7C423.74,-350.97 436.61,-340.24 448,-330.75"/>
<polygon fill="black" stroke="black" points="450.53,-333.19 455.97,-324.1 446.05,-327.82 450.53,-333.19"/>
</g>
<!-- ast.BinOp object at 0x7f5a14a63bb0 -->
<g id="node26" class="node">
<title>ast.BinOp object at 0x7f5a14a63bb0</title>
<path fill="#66cdaa" stroke="black" d="M413.5,-252C413.5,-252 383.5,-252 383.5,-252 377.5,-252 371.5,-246 371.5,-240 371.5,-240 371.5,-228 371.5,-228 371.5,-222 377.5,-216 383.5,-216 383.5,-216 413.5,-216 413.5,-216 419.5,-216 425.5,-222 425.5,-228 425.5,-228 425.5,-240 425.5,-240 425.5,-246 419.5,-252 413.5,-252"/>
<text text-anchor="middle" x="398.5" y="-230.3" font-family="Times,serif" font-size="14.00">BinOp</text>
</g>
<!-- ast.Compare object at 0x7f5a14a63220&#45;&gt;ast.BinOp object at 0x7f5a14a63bb0 -->
<g id="edge28" class="edge">
<title>ast.Compare object at 0x7f5a14a63220&#45;&gt;ast.BinOp object at 0x7f5a14a63bb0</title>
<path fill="none" stroke="black" d="M457.22,-287.7C447.58,-279.05 435.77,-268.45 425.27,-259.03"/>
<polygon fill="black" stroke="black" points="427.34,-256.18 417.56,-252.1 422.66,-261.39 427.34,-256.18"/>
</g>
<!-- ast.Eq object at 0x7f5a18fee8f0 -->
<g id="node29" class="node">
<title>ast.Eq object at 0x7f5a18fee8f0</title>
<path fill="#66cdaa" stroke="black" d="M641.5,-252C641.5,-252 611.5,-252 611.5,-252 605.5,-252 599.5,-246 599.5,-240 599.5,-240 599.5,-228 599.5,-228 599.5,-222 605.5,-216 611.5,-216 611.5,-216 641.5,-216 641.5,-216 647.5,-216 653.5,-222 653.5,-228 653.5,-228 653.5,-240 653.5,-240 653.5,-246 647.5,-252 641.5,-252"/>
<text text-anchor="middle" x="626.5" y="-230.3" font-family="Times,serif" font-size="14.00">Eq</text>
</g>
<!-- ast.Compare object at 0x7f5a14a63220&#45;&gt;ast.Eq object at 0x7f5a18fee8f0 -->
<g id="edge34" class="edge">
<title>ast.Compare object at 0x7f5a14a63220&#45;&gt;ast.Eq object at 0x7f5a18fee8f0</title>
<path fill="none" stroke="black" d="M510.45,-289.28C531.18,-279.67 558.44,-267 590.28,-252.09"/>
<polygon fill="black" stroke="black" points="591.81,-255.24 599.38,-247.83 588.84,-248.9 591.81,-255.24"/>
</g>
<!-- ast.Constant object at 0x7f5a14a63940 -->
<g id="node30" class="node">
<title>ast.Constant object at 0x7f5a14a63940</title>
<path fill="#66cdaa" stroke="black" d="M569,-252C569,-252 528,-252 528,-252 522,-252 516,-246 516,-240 516,-240 516,-228 516,-228 516,-222 522,-216 528,-216 528,-216 569,-216 569,-216 575,-216 581,-222 581,-228 581,-228 581,-240 581,-240 581,-246 575,-252 569,-252"/>
<text text-anchor="middle" x="548.5" y="-230.3" font-family="Times,serif" font-size="14.00">Constant</text>
</g>
<!-- ast.Compare object at 0x7f5a14a63220&#45;&gt;ast.Constant object at 0x7f5a14a63940 -->
<g id="edge35" class="edge">
<title>ast.Compare object at 0x7f5a14a63220&#45;&gt;ast.Constant object at 0x7f5a14a63940</title>
<path fill="none" stroke="black" d="M494.3,-287.7C503.1,-279.14 513.88,-268.66 523.5,-259.3"/>
<polygon fill="black" stroke="black" points="526.18,-261.58 530.91,-252.1 521.3,-256.57 526.18,-261.58"/>
</g>
<!-- ast.BinOp object at 0x7f5a14a63bb0&#45;&gt;ast.Mod object at 0x7f5a18fee3e0 -->
<g id="edge31" class="edge">
<title>ast.BinOp object at 0x7f5a14a63bb0&#45;&gt;ast.Mod object at 0x7f5a18fee3e0</title>
<path fill="none" stroke="black" d="M416.3,-215.7C425.1,-207.14 435.88,-196.66 445.5,-187.3"/>
<polygon fill="black" stroke="black" points="448.18,-189.58 452.91,-180.1 443.3,-184.57 448.18,-189.58"/>
</g>
<!-- ast.Name object at 0x7f5a14a637f0 -->
<g id="node27" class="node">
<title>ast.Name object at 0x7f5a14a637f0</title>
<path fill="#66cdaa" stroke="black" d="M413.5,-180C413.5,-180 383.5,-180 383.5,-180 377.5,-180 371.5,-174 371.5,-168 371.5,-168 371.5,-156 371.5,-156 371.5,-150 377.5,-144 383.5,-144 383.5,-144 413.5,-144 413.5,-144 419.5,-144 425.5,-150 425.5,-156 425.5,-156 425.5,-168 425.5,-168 425.5,-174 419.5,-180 413.5,-180"/>
<text text-anchor="middle" x="398.5" y="-158.3" font-family="Times,serif" font-size="14.00">Name</text>
</g>
<!-- ast.BinOp object at 0x7f5a14a63bb0&#45;&gt;ast.Name object at 0x7f5a14a637f0 -->
<g id="edge29" class="edge">
<title>ast.BinOp object at 0x7f5a14a63bb0&#45;&gt;ast.Name object at 0x7f5a14a637f0</title>
<path fill="none" stroke="black" d="M398.5,-215.7C398.5,-207.98 398.5,-198.71 398.5,-190.11"/>
<polygon fill="black" stroke="black" points="402,-190.1 398.5,-180.1 395,-190.1 402,-190.1"/>
</g>
<!-- ast.Name object at 0x7f5a14a63340 -->
<g id="node28" class="node">
<title>ast.Name object at 0x7f5a14a63340</title>
<path fill="#66cdaa" stroke="black" d="M341.5,-180C341.5,-180 311.5,-180 311.5,-180 305.5,-180 299.5,-174 299.5,-168 299.5,-168 299.5,-156 299.5,-156 299.5,-150 305.5,-144 311.5,-144 311.5,-144 341.5,-144 341.5,-144 347.5,-144 353.5,-150 353.5,-156 353.5,-156 353.5,-168 353.5,-168 353.5,-174 347.5,-180 341.5,-180"/>
<text text-anchor="middle" x="326.5" y="-158.3" font-family="Times,serif" font-size="14.00">Name</text>
</g>
<!-- ast.BinOp object at 0x7f5a14a63bb0&#45;&gt;ast.Name object at 0x7f5a14a63340 -->
<g id="edge32" class="edge">
<title>ast.BinOp object at 0x7f5a14a63bb0&#45;&gt;ast.Name object at 0x7f5a14a63340</title>
<path fill="none" stroke="black" d="M380.7,-215.7C371.9,-207.14 361.12,-196.66 351.5,-187.3"/>
<polygon fill="black" stroke="black" points="353.7,-184.57 344.09,-180.1 348.82,-189.58 353.7,-184.57"/>
</g>
<!-- ast.Name object at 0x7f5a14a637f0&#45;&gt;ast.Load object at 0x7f5a18fedfc0 -->
<g id="edge30" class="edge">
<title>ast.Name object at 0x7f5a14a637f0&#45;&gt;ast.Load object at 0x7f5a18fedfc0</title>
<path fill="none" stroke="black" d="M371.41,-147.83C348.73,-136.81 316.14,-120.97 291.13,-108.81"/>
<polygon fill="black" stroke="black" points="292.48,-105.57 281.95,-104.35 289.42,-111.87 292.48,-105.57"/>
</g>
<!-- ast.Name object at 0x7f5a14a63340&#45;&gt;ast.Load object at 0x7f5a18fedfc0 -->
<g id="edge33" class="edge">
<title>ast.Name object at 0x7f5a14a63340&#45;&gt;ast.Load object at 0x7f5a18fedfc0</title>
<path fill="none" stroke="black" d="M308.7,-143.7C299.9,-135.14 289.12,-124.66 279.5,-115.3"/>
<polygon fill="black" stroke="black" points="281.7,-112.57 272.09,-108.1 276.82,-117.58 281.7,-112.57"/>
</g>
</g>
</svg>
