<?xml version="1.0" encoding="UTF-8" standalone="no"?>
<!DOCTYPE svg PUBLIC "-//W3C//DTD SVG 1.1//EN"
 "http://www.w3.org/Graphics/SVG/1.1/DTD/svg11.dtd">
<!-- Generated by graphviz version 2.43.0 (0)
 -->
<!-- Title: %3 Pages: 1 -->
<svg width="549pt" height="476pt"
 viewBox="0.00 0.00 549.00 476.00" xmlns="http://www.w3.org/2000/svg" xmlns:xlink="http://www.w3.org/1999/xlink">
<g id="graph0" class="graph" transform="scale(1 1) rotate(0) translate(4 472)">
<title>%3</title>
<polygon fill="white" stroke="transparent" points="-4,4 -4,-472 545,-472 545,4 -4,4"/>
<!-- ast.Module object at 0x7fde9fa60100 -->
<g id="node1" class="node">
<title>ast.Module object at 0x7fde9fa60100</title>
<path fill="#66cdaa" stroke="black" d="M258.5,-468C258.5,-468 223.5,-468 223.5,-468 217.5,-468 211.5,-462 211.5,-456 211.5,-456 211.5,-444 211.5,-444 211.5,-438 217.5,-432 223.5,-432 223.5,-432 258.5,-432 258.5,-432 264.5,-432 270.5,-438 270.5,-444 270.5,-444 270.5,-456 270.5,-456 270.5,-462 264.5,-468 258.5,-468"/>
<text text-anchor="middle" x="241" y="-446.3" font-family="Times,serif" font-size="14.00">Module</text>
</g>
<!-- ast.FunctionDef object at 0x7fde9fa60430 -->
<g id="node2" class="node">
<title>ast.FunctionDef object at 0x7fde9fa60430</title>
<path fill="#66cdaa" stroke="black" d="M271.5,-396C271.5,-396 210.5,-396 210.5,-396 204.5,-396 198.5,-390 198.5,-384 198.5,-384 198.5,-372 198.5,-372 198.5,-366 204.5,-360 210.5,-360 210.5,-360 271.5,-360 271.5,-360 277.5,-360 283.5,-366 283.5,-372 283.5,-372 283.5,-384 283.5,-384 283.5,-390 277.5,-396 271.5,-396"/>
<text text-anchor="middle" x="241" y="-374.3" font-family="Times,serif" font-size="14.00">FunctionDef</text>
</g>
<!-- ast.Module object at 0x7fde9fa60100&#45;&gt;ast.FunctionDef object at 0x7fde9fa60430 -->
<g id="edge1" class="edge">
<title>ast.Module object at 0x7fde9fa60100&#45;&gt;ast.FunctionDef object at 0x7fde9fa60430</title>
<path fill="none" stroke="black" d="M241,-431.7C241,-423.98 241,-414.71 241,-406.11"/>
<polygon fill="black" stroke="black" points="244.5,-406.1 241,-396.1 237.5,-406.1 244.5,-406.1"/>
</g>
<!-- ast.arguments object at 0x7fde9fa618d0 -->
<g id="node3" class="node">
<title>ast.arguments object at 0x7fde9fa618d0</title>
<path fill="#66cdaa" stroke="black" d="M117,-324C117,-324 67,-324 67,-324 61,-324 55,-318 55,-312 55,-312 55,-300 55,-300 55,-294 61,-288 67,-288 67,-288 117,-288 117,-288 123,-288 129,-294 129,-300 129,-300 129,-312 129,-312 129,-318 123,-324 117,-324"/>
<text text-anchor="middle" x="92" y="-302.3" font-family="Times,serif" font-size="14.00">arguments</text>
</g>
<!-- ast.FunctionDef object at 0x7fde9fa60430&#45;&gt;ast.arguments object at 0x7fde9fa618d0 -->
<g id="edge2" class="edge">
<title>ast.FunctionDef object at 0x7fde9fa60430&#45;&gt;ast.arguments object at 0x7fde9fa618d0</title>
<path fill="none" stroke="black" d="M204.55,-359.88C184.36,-350.39 159.08,-338.51 137.59,-328.42"/>
<polygon fill="black" stroke="black" points="138.87,-325.15 128.33,-324.07 135.89,-331.49 138.87,-325.15"/>
</g>
<!-- ast.Assign object at 0x7fde9fa05900 -->
<g id="node5" class="node">
<title>ast.Assign object at 0x7fde9fa05900</title>
<path fill="#66cdaa" stroke="black" d="M220,-324C220,-324 190,-324 190,-324 184,-324 178,-318 178,-312 178,-312 178,-300 178,-300 178,-294 184,-288 190,-288 190,-288 220,-288 220,-288 226,-288 232,-294 232,-300 232,-300 232,-312 232,-312 232,-318 226,-324 220,-324"/>
<text text-anchor="middle" x="205" y="-302.3" font-family="Times,serif" font-size="14.00">Assign</text>
</g>
<!-- ast.FunctionDef object at 0x7fde9fa60430&#45;&gt;ast.Assign object at 0x7fde9fa05900 -->
<g id="edge4" class="edge">
<title>ast.FunctionDef object at 0x7fde9fa60430&#45;&gt;ast.Assign object at 0x7fde9fa05900</title>
<path fill="none" stroke="black" d="M232.1,-359.7C228,-351.73 223.05,-342.1 218.51,-333.26"/>
<polygon fill="black" stroke="black" points="221.48,-331.4 213.8,-324.1 215.26,-334.6 221.48,-331.4"/>
</g>
<!-- ast.Expr object at 0x7fde9fa049d0 -->
<g id="node12" class="node">
<title>ast.Expr object at 0x7fde9fa049d0</title>
<path fill="#66cdaa" stroke="black" d="M336,-324C336,-324 306,-324 306,-324 300,-324 294,-318 294,-312 294,-312 294,-300 294,-300 294,-294 300,-288 306,-288 306,-288 336,-288 336,-288 342,-288 348,-294 348,-300 348,-300 348,-312 348,-312 348,-318 342,-324 336,-324"/>
<text text-anchor="middle" x="321" y="-302.3" font-family="Times,serif" font-size="14.00">Expr</text>
</g>
<!-- ast.FunctionDef object at 0x7fde9fa60430&#45;&gt;ast.Expr object at 0x7fde9fa049d0 -->
<g id="edge11" class="edge">
<title>ast.FunctionDef object at 0x7fde9fa60430&#45;&gt;ast.Expr object at 0x7fde9fa049d0</title>
<path fill="none" stroke="black" d="M260.78,-359.7C270.75,-350.97 283.01,-340.24 293.86,-330.75"/>
<polygon fill="black" stroke="black" points="296.23,-333.32 301.45,-324.1 291.62,-328.06 296.23,-333.32"/>
</g>
<!-- ast.Return object at 0x7fde9fa057e0 -->
<g id="node19" class="node">
<title>ast.Return object at 0x7fde9fa057e0</title>
<path fill="#66cdaa" stroke="black" d="M486,-324C486,-324 456,-324 456,-324 450,-324 444,-318 444,-312 444,-312 444,-300 444,-300 444,-294 450,-288 456,-288 456,-288 486,-288 486,-288 492,-288 498,-294 498,-300 498,-300 498,-312 498,-312 498,-318 492,-324 486,-324"/>
<text text-anchor="middle" x="471" y="-302.3" font-family="Times,serif" font-size="14.00">Return</text>
</g>
<!-- ast.FunctionDef object at 0x7fde9fa60430&#45;&gt;ast.Return object at 0x7fde9fa057e0 -->
<g id="edge20" class="edge">
<title>ast.FunctionDef object at 0x7fde9fa60430&#45;&gt;ast.Return object at 0x7fde9fa057e0</title>
<path fill="none" stroke="black" d="M283.72,-364C327.05,-350.81 393.39,-330.62 434.38,-318.14"/>
<polygon fill="black" stroke="black" points="435.43,-321.48 443.98,-315.22 433.39,-314.79 435.43,-321.48"/>
</g>
<!-- ast.arg object at 0x7fde9fa05c00 -->
<g id="node4" class="node">
<title>ast.arg object at 0x7fde9fa05c00</title>
<path fill="#66cdaa" stroke="black" d="M76,-252C76,-252 46,-252 46,-252 40,-252 34,-246 34,-240 34,-240 34,-228 34,-228 34,-222 40,-216 46,-216 46,-216 76,-216 76,-216 82,-216 88,-222 88,-228 88,-228 88,-240 88,-240 88,-246 82,-252 76,-252"/>
<text text-anchor="middle" x="61" y="-230.3" font-family="Times,serif" font-size="14.00">arg</text>
</g>
<!-- ast.arguments object at 0x7fde9fa618d0&#45;&gt;ast.arg object at 0x7fde9fa05c00 -->
<g id="edge3" class="edge">
<title>ast.arguments object at 0x7fde9fa618d0&#45;&gt;ast.arg object at 0x7fde9fa05c00</title>
<path fill="none" stroke="black" d="M84.34,-287.7C80.81,-279.73 76.54,-270.1 72.63,-261.26"/>
<polygon fill="black" stroke="black" points="75.82,-259.83 68.57,-252.1 69.42,-262.67 75.82,-259.83"/>
</g>
<!-- ast.Name object at 0x7fde9fa06920 -->
<g id="node6" class="node">
<title>ast.Name object at 0x7fde9fa06920</title>
<path fill="#66cdaa" stroke="black" d="M148,-252C148,-252 118,-252 118,-252 112,-252 106,-246 106,-240 106,-240 106,-228 106,-228 106,-222 112,-216 118,-216 118,-216 148,-216 148,-216 154,-216 160,-222 160,-228 160,-228 160,-240 160,-240 160,-246 154,-252 148,-252"/>
<text text-anchor="middle" x="133" y="-230.3" font-family="Times,serif" font-size="14.00">Name</text>
</g>
<!-- ast.Assign object at 0x7fde9fa05900&#45;&gt;ast.Name object at 0x7fde9fa06920 -->
<g id="edge5" class="edge">
<title>ast.Assign object at 0x7fde9fa05900&#45;&gt;ast.Name object at 0x7fde9fa06920</title>
<path fill="none" stroke="black" d="M187.2,-287.7C178.4,-279.14 167.62,-268.66 158,-259.3"/>
<polygon fill="black" stroke="black" points="160.2,-256.57 150.59,-252.1 155.32,-261.58 160.2,-256.57"/>
</g>
<!-- ast.BinOp object at 0x7fde9fa04520 -->
<g id="node8" class="node">
<title>ast.BinOp object at 0x7fde9fa04520</title>
<path fill="#66cdaa" stroke="black" d="M220,-252C220,-252 190,-252 190,-252 184,-252 178,-246 178,-240 178,-240 178,-228 178,-228 178,-222 184,-216 190,-216 190,-216 220,-216 220,-216 226,-216 232,-222 232,-228 232,-228 232,-240 232,-240 232,-246 226,-252 220,-252"/>
<text text-anchor="middle" x="205" y="-230.3" font-family="Times,serif" font-size="14.00">BinOp</text>
</g>
<!-- ast.Assign object at 0x7fde9fa05900&#45;&gt;ast.BinOp object at 0x7fde9fa04520 -->
<g id="edge7" class="edge">
<title>ast.Assign object at 0x7fde9fa05900&#45;&gt;ast.BinOp object at 0x7fde9fa04520</title>
<path fill="none" stroke="black" d="M205,-287.7C205,-279.98 205,-270.71 205,-262.11"/>
<polygon fill="black" stroke="black" points="208.5,-262.1 205,-252.1 201.5,-262.1 208.5,-262.1"/>
</g>
<!-- ast.Store object at 0x7fdea37edfc0 -->
<g id="node7" class="node">
<title>ast.Store object at 0x7fdea37edfc0</title>
<path fill="#66cdaa" stroke="black" d="M42,-180C42,-180 12,-180 12,-180 6,-180 0,-174 0,-168 0,-168 0,-156 0,-156 0,-150 6,-144 12,-144 12,-144 42,-144 42,-144 48,-144 54,-150 54,-156 54,-156 54,-168 54,-168 54,-174 48,-180 42,-180"/>
<text text-anchor="middle" x="27" y="-158.3" font-family="Times,serif" font-size="14.00">Store</text>
</g>
<!-- ast.Name object at 0x7fde9fa06920&#45;&gt;ast.Store object at 0x7fdea37edfc0 -->
<g id="edge6" class="edge">
<title>ast.Name object at 0x7fde9fa06920&#45;&gt;ast.Store object at 0x7fdea37edfc0</title>
<path fill="none" stroke="black" d="M107.07,-215.88C93.34,-206.81 76.29,-195.55 61.46,-185.76"/>
<polygon fill="black" stroke="black" points="63.3,-182.78 53.03,-180.19 59.45,-188.62 63.3,-182.78"/>
</g>
<!-- ast.Constant object at 0x7fde9fa05660 -->
<g id="node9" class="node">
<title>ast.Constant object at 0x7fde9fa05660</title>
<path fill="#66cdaa" stroke="black" d="M125.5,-180C125.5,-180 84.5,-180 84.5,-180 78.5,-180 72.5,-174 72.5,-168 72.5,-168 72.5,-156 72.5,-156 72.5,-150 78.5,-144 84.5,-144 84.5,-144 125.5,-144 125.5,-144 131.5,-144 137.5,-150 137.5,-156 137.5,-156 137.5,-168 137.5,-168 137.5,-174 131.5,-180 125.5,-180"/>
<text text-anchor="middle" x="105" y="-158.3" font-family="Times,serif" font-size="14.00">Constant</text>
</g>
<!-- ast.BinOp object at 0x7fde9fa04520&#45;&gt;ast.Constant object at 0x7fde9fa05660 -->
<g id="edge8" class="edge">
<title>ast.BinOp object at 0x7fde9fa04520&#45;&gt;ast.Constant object at 0x7fde9fa05660</title>
<path fill="none" stroke="black" d="M180.54,-215.88C167.7,-206.89 151.8,-195.76 137.91,-186.03"/>
<polygon fill="black" stroke="black" points="139.76,-183.06 129.56,-180.19 135.74,-188.79 139.76,-183.06"/>
</g>
<!-- ast.Add object at 0x7fdea37ee1a0 -->
<g id="node10" class="node">
<title>ast.Add object at 0x7fdea37ee1a0</title>
<path fill="#66cdaa" stroke="black" d="M198,-180C198,-180 168,-180 168,-180 162,-180 156,-174 156,-168 156,-168 156,-156 156,-156 156,-150 162,-144 168,-144 168,-144 198,-144 198,-144 204,-144 210,-150 210,-156 210,-156 210,-168 210,-168 210,-174 204,-180 198,-180"/>
<text text-anchor="middle" x="183" y="-158.3" font-family="Times,serif" font-size="14.00">Add</text>
</g>
<!-- ast.BinOp object at 0x7fde9fa04520&#45;&gt;ast.Add object at 0x7fdea37ee1a0 -->
<g id="edge9" class="edge">
<title>ast.BinOp object at 0x7fde9fa04520&#45;&gt;ast.Add object at 0x7fdea37ee1a0</title>
<path fill="none" stroke="black" d="M199.56,-215.7C197.11,-207.9 194.16,-198.51 191.43,-189.83"/>
<polygon fill="black" stroke="black" points="194.71,-188.59 188.38,-180.1 188.04,-190.69 194.71,-188.59"/>
</g>
<!-- ast.Constant object at 0x7fde9fa05300 -->
<g id="node11" class="node">
<title>ast.Constant object at 0x7fde9fa05300</title>
<path fill="#66cdaa" stroke="black" d="M281.5,-180C281.5,-180 240.5,-180 240.5,-180 234.5,-180 228.5,-174 228.5,-168 228.5,-168 228.5,-156 228.5,-156 228.5,-150 234.5,-144 240.5,-144 240.5,-144 281.5,-144 281.5,-144 287.5,-144 293.5,-150 293.5,-156 293.5,-156 293.5,-168 293.5,-168 293.5,-174 287.5,-180 281.5,-180"/>
<text text-anchor="middle" x="261" y="-158.3" font-family="Times,serif" font-size="14.00">Constant</text>
</g>
<!-- ast.BinOp object at 0x7fde9fa04520&#45;&gt;ast.Constant object at 0x7fde9fa05300 -->
<g id="edge10" class="edge">
<title>ast.BinOp object at 0x7fde9fa04520&#45;&gt;ast.Constant object at 0x7fde9fa05300</title>
<path fill="none" stroke="black" d="M218.84,-215.7C225.49,-207.39 233.58,-197.28 240.89,-188.14"/>
<polygon fill="black" stroke="black" points="243.8,-190.1 247.32,-180.1 238.34,-185.73 243.8,-190.1"/>
</g>
<!-- ast.Call object at 0x7fde9fa06470 -->
<g id="node13" class="node">
<title>ast.Call object at 0x7fde9fa06470</title>
<path fill="#66cdaa" stroke="black" d="M389,-252C389,-252 359,-252 359,-252 353,-252 347,-246 347,-240 347,-240 347,-228 347,-228 347,-222 353,-216 359,-216 359,-216 389,-216 389,-216 395,-216 401,-222 401,-228 401,-228 401,-240 401,-240 401,-246 395,-252 389,-252"/>
<text text-anchor="middle" x="374" y="-230.3" font-family="Times,serif" font-size="14.00">Call</text>
</g>
<!-- ast.Expr object at 0x7fde9fa049d0&#45;&gt;ast.Call object at 0x7fde9fa06470 -->
<g id="edge12" class="edge">
<title>ast.Expr object at 0x7fde9fa049d0&#45;&gt;ast.Call object at 0x7fde9fa06470</title>
<path fill="none" stroke="black" d="M334.1,-287.7C340.39,-279.39 348.05,-269.28 354.96,-260.14"/>
<polygon fill="black" stroke="black" points="357.8,-262.19 361.05,-252.1 352.22,-257.96 357.8,-262.19"/>
</g>
<!-- ast.Attribute object at 0x7fde9fa05810 -->
<g id="node14" class="node">
<title>ast.Attribute object at 0x7fde9fa05810</title>
<path fill="#66cdaa" stroke="black" d="M364.5,-180C364.5,-180 323.5,-180 323.5,-180 317.5,-180 311.5,-174 311.5,-168 311.5,-168 311.5,-156 311.5,-156 311.5,-150 317.5,-144 323.5,-144 323.5,-144 364.5,-144 364.5,-144 370.5,-144 376.5,-150 376.5,-156 376.5,-156 376.5,-168 376.5,-168 376.5,-174 370.5,-180 364.5,-180"/>
<text text-anchor="middle" x="344" y="-158.3" font-family="Times,serif" font-size="14.00">Attribute</text>
</g>
<!-- ast.Call object at 0x7fde9fa06470&#45;&gt;ast.Attribute object at 0x7fde9fa05810 -->
<g id="edge13" class="edge">
<title>ast.Call object at 0x7fde9fa06470&#45;&gt;ast.Attribute object at 0x7fde9fa05810</title>
<path fill="none" stroke="black" d="M366.58,-215.7C363.21,-207.81 359.13,-198.3 355.38,-189.55"/>
<polygon fill="black" stroke="black" points="358.49,-187.92 351.33,-180.1 352.05,-190.67 358.49,-187.92"/>
</g>
<!-- ast.Name object at 0x7fde9fa076d0 -->
<g id="node17" class="node">
<title>ast.Name object at 0x7fde9fa076d0</title>
<path fill="#66cdaa" stroke="black" d="M432,-108C432,-108 402,-108 402,-108 396,-108 390,-102 390,-96 390,-96 390,-84 390,-84 390,-78 396,-72 402,-72 402,-72 432,-72 432,-72 438,-72 444,-78 444,-84 444,-84 444,-96 444,-96 444,-102 438,-108 432,-108"/>
<text text-anchor="middle" x="417" y="-86.3" font-family="Times,serif" font-size="14.00">Name</text>
</g>
<!-- ast.Call object at 0x7fde9fa06470&#45;&gt;ast.Name object at 0x7fde9fa076d0 -->
<g id="edge17" class="edge">
<title>ast.Call object at 0x7fde9fa06470&#45;&gt;ast.Name object at 0x7fde9fa076d0</title>
<path fill="none" stroke="black" d="M379.19,-215.87C386.55,-191.56 400.1,-146.82 408.82,-118.01"/>
<polygon fill="black" stroke="black" points="412.25,-118.77 411.79,-108.19 405.55,-116.75 412.25,-118.77"/>
</g>
<!-- ast.Constant object at 0x7fde9fa04b50 -->
<g id="node18" class="node">
<title>ast.Constant object at 0x7fde9fa04b50</title>
<path fill="#66cdaa" stroke="black" d="M486.5,-180C486.5,-180 445.5,-180 445.5,-180 439.5,-180 433.5,-174 433.5,-168 433.5,-168 433.5,-156 433.5,-156 433.5,-150 439.5,-144 445.5,-144 445.5,-144 486.5,-144 486.5,-144 492.5,-144 498.5,-150 498.5,-156 498.5,-156 498.5,-168 498.5,-168 498.5,-174 492.5,-180 486.5,-180"/>
<text text-anchor="middle" x="466" y="-158.3" font-family="Times,serif" font-size="14.00">Constant</text>
</g>
<!-- ast.Call object at 0x7fde9fa06470&#45;&gt;ast.Constant object at 0x7fde9fa04b50 -->
<g id="edge19" class="edge">
<title>ast.Call object at 0x7fde9fa06470&#45;&gt;ast.Constant object at 0x7fde9fa04b50</title>
<path fill="none" stroke="black" d="M396.74,-215.7C408.44,-206.8 422.86,-195.82 435.51,-186.2"/>
<polygon fill="black" stroke="black" points="437.68,-188.94 443.52,-180.1 433.44,-183.37 437.68,-188.94"/>
</g>
<!-- ast.Name object at 0x7fde9fa07580 -->
<g id="node15" class="node">
<title>ast.Name object at 0x7fde9fa07580</title>
<path fill="#66cdaa" stroke="black" d="M322,-108C322,-108 292,-108 292,-108 286,-108 280,-102 280,-96 280,-96 280,-84 280,-84 280,-78 286,-72 292,-72 292,-72 322,-72 322,-72 328,-72 334,-78 334,-84 334,-84 334,-96 334,-96 334,-102 328,-108 322,-108"/>
<text text-anchor="middle" x="307" y="-86.3" font-family="Times,serif" font-size="14.00">Name</text>
</g>
<!-- ast.Attribute object at 0x7fde9fa05810&#45;&gt;ast.Name object at 0x7fde9fa07580 -->
<g id="edge14" class="edge">
<title>ast.Attribute object at 0x7fde9fa05810&#45;&gt;ast.Name object at 0x7fde9fa07580</title>
<path fill="none" stroke="black" d="M334.85,-143.7C330.6,-135.64 325.44,-125.89 320.73,-116.98"/>
<polygon fill="black" stroke="black" points="323.81,-115.31 316.04,-108.1 317.62,-118.58 323.81,-115.31"/>
</g>
<!-- ast.Load object at 0x7fdea37edf60 -->
<g id="node16" class="node">
<title>ast.Load object at 0x7fdea37edf60</title>
<path fill="#66cdaa" stroke="black" d="M404,-36C404,-36 374,-36 374,-36 368,-36 362,-30 362,-24 362,-24 362,-12 362,-12 362,-6 368,0 374,0 374,0 404,0 404,0 410,0 416,-6 416,-12 416,-12 416,-24 416,-24 416,-30 410,-36 404,-36"/>
<text text-anchor="middle" x="389" y="-14.3" font-family="Times,serif" font-size="14.00">Load</text>
</g>
<!-- ast.Attribute object at 0x7fde9fa05810&#45;&gt;ast.Load object at 0x7fdea37edf60 -->
<g id="edge16" class="edge">
<title>ast.Attribute object at 0x7fde9fa05810&#45;&gt;ast.Load object at 0x7fdea37edf60</title>
<path fill="none" stroke="black" d="M349.43,-143.87C357.13,-119.56 371.31,-74.82 380.44,-46.01"/>
<polygon fill="black" stroke="black" points="383.87,-46.78 383.55,-36.19 377.2,-44.66 383.87,-46.78"/>
</g>
<!-- ast.Name object at 0x7fde9fa07580&#45;&gt;ast.Load object at 0x7fdea37edf60 -->
<g id="edge15" class="edge">
<title>ast.Name object at 0x7fde9fa07580&#45;&gt;ast.Load object at 0x7fdea37edf60</title>
<path fill="none" stroke="black" d="M327.27,-71.7C337.5,-62.97 350.06,-52.24 361.18,-42.75"/>
<polygon fill="black" stroke="black" points="363.63,-45.26 368.96,-36.1 359.09,-39.94 363.63,-45.26"/>
</g>
<!-- ast.Name object at 0x7fde9fa076d0&#45;&gt;ast.Load object at 0x7fdea37edf60 -->
<g id="edge18" class="edge">
<title>ast.Name object at 0x7fde9fa076d0&#45;&gt;ast.Load object at 0x7fdea37edf60</title>
<path fill="none" stroke="black" d="M410.08,-71.7C406.93,-63.81 403.12,-54.3 399.62,-45.55"/>
<polygon fill="black" stroke="black" points="402.81,-44.09 395.84,-36.1 396.31,-46.69 402.81,-44.09"/>
</g>
<!-- ast.Name object at 0x7fde9fa04700 -->
<g id="node20" class="node">
<title>ast.Name object at 0x7fde9fa04700</title>
<path fill="#66cdaa" stroke="black" d="M529,-108C529,-108 499,-108 499,-108 493,-108 487,-102 487,-96 487,-96 487,-84 487,-84 487,-78 493,-72 499,-72 499,-72 529,-72 529,-72 535,-72 541,-78 541,-84 541,-84 541,-96 541,-96 541,-102 535,-108 529,-108"/>
<text text-anchor="middle" x="514" y="-86.3" font-family="Times,serif" font-size="14.00">Name</text>
</g>
<!-- ast.Return object at 0x7fde9fa057e0&#45;&gt;ast.Name object at 0x7fde9fa04700 -->
<g id="edge21" class="edge">
<title>ast.Return object at 0x7fde9fa057e0&#45;&gt;ast.Name object at 0x7fde9fa04700</title>
<path fill="none" stroke="black" d="M477.13,-287.87C485.39,-264.03 499.87,-219.33 507,-180 510.71,-159.54 512.46,-136.08 513.27,-118.39"/>
<polygon fill="black" stroke="black" points="516.78,-118.32 513.67,-108.19 509.79,-118.05 516.78,-118.32"/>
</g>
<!-- ast.Name object at 0x7fde9fa04700&#45;&gt;ast.Load object at 0x7fdea37edf60 -->
<g id="edge22" class="edge">
<title>ast.Name object at 0x7fde9fa04700&#45;&gt;ast.Load object at 0x7fdea37edf60</title>
<path fill="none" stroke="black" d="M486.88,-73.81C468.69,-63.63 444.56,-50.11 424.8,-39.05"/>
<polygon fill="black" stroke="black" points="426.51,-35.99 416.07,-34.16 423.09,-42.1 426.51,-35.99"/>
</g>
</g>
</svg>
