<?xml version="1.0" encoding="UTF-8" standalone="no"?>
<!DOCTYPE svg PUBLIC "-//W3C//DTD SVG 1.1//EN"
 "http://www.w3.org/Graphics/SVG/1.1/DTD/svg11.dtd">
<!-- Generated by graphviz version 2.43.0 (0)
 -->
<!-- Title: %3 Pages: 1 -->
<svg width="869pt" height="620pt"
 viewBox="0.00 0.00 868.91 620.00" xmlns="http://www.w3.org/2000/svg" xmlns:xlink="http://www.w3.org/1999/xlink">
<g id="graph0" class="graph" transform="scale(1 1) rotate(0) translate(4 616)">
<title>%3</title>
<polygon fill="white" stroke="transparent" points="-4,4 -4,-616 864.91,-616 864.91,4 -4,4"/>
<!-- ast.Module object at 0x7f3344867100 -->
<g id="node1" class="node">
<title>ast.Module object at 0x7f3344867100</title>
<path fill="#66cdaa" stroke="black" d="M347.91,-612C347.91,-612 312.91,-612 312.91,-612 306.91,-612 300.91,-606 300.91,-600 300.91,-600 300.91,-588 300.91,-588 300.91,-582 306.91,-576 312.91,-576 312.91,-576 347.91,-576 347.91,-576 353.91,-576 359.91,-582 359.91,-588 359.91,-588 359.91,-600 359.91,-600 359.91,-606 353.91,-612 347.91,-612"/>
<text text-anchor="middle" x="330.41" y="-590.3" font-family="Times,serif" font-size="14.00">Module</text>
</g>
<!-- ast.FunctionDef object at 0x7f33448656f0 -->
<g id="node2" class="node">
<title>ast.FunctionDef object at 0x7f33448656f0</title>
<path fill="#66cdaa" stroke="black" d="M360.91,-540C360.91,-540 299.91,-540 299.91,-540 293.91,-540 287.91,-534 287.91,-528 287.91,-528 287.91,-516 287.91,-516 287.91,-510 293.91,-504 299.91,-504 299.91,-504 360.91,-504 360.91,-504 366.91,-504 372.91,-510 372.91,-516 372.91,-516 372.91,-528 372.91,-528 372.91,-534 366.91,-540 360.91,-540"/>
<text text-anchor="middle" x="330.41" y="-518.3" font-family="Times,serif" font-size="14.00">FunctionDef</text>
</g>
<!-- ast.Module object at 0x7f3344867100&#45;&gt;ast.FunctionDef object at 0x7f33448656f0 -->
<g id="edge1" class="edge">
<title>ast.Module object at 0x7f3344867100&#45;&gt;ast.FunctionDef object at 0x7f33448656f0</title>
<path fill="none" stroke="black" d="M330.41,-575.7C330.41,-567.98 330.41,-558.71 330.41,-550.11"/>
<polygon fill="black" stroke="black" points="333.91,-550.1 330.41,-540.1 326.91,-550.1 333.91,-550.1"/>
</g>
<!-- ast.arguments object at 0x7f3344867f10 -->
<g id="node3" class="node">
<title>ast.arguments object at 0x7f3344867f10</title>
<path fill="#66cdaa" stroke="black" d="M115.41,-468C115.41,-468 65.41,-468 65.41,-468 59.41,-468 53.41,-462 53.41,-456 53.41,-456 53.41,-444 53.41,-444 53.41,-438 59.41,-432 65.41,-432 65.41,-432 115.41,-432 115.41,-432 121.41,-432 127.41,-438 127.41,-444 127.41,-444 127.41,-456 127.41,-456 127.41,-462 121.41,-468 115.41,-468"/>
<text text-anchor="middle" x="90.41" y="-446.3" font-family="Times,serif" font-size="14.00">arguments</text>
</g>
<!-- ast.FunctionDef object at 0x7f33448656f0&#45;&gt;ast.arguments object at 0x7f3344867f10 -->
<g id="edge2" class="edge">
<title>ast.FunctionDef object at 0x7f33448656f0&#45;&gt;ast.arguments object at 0x7f3344867f10</title>
<path fill="none" stroke="black" d="M287.78,-508.57C245.54,-496.25 181.01,-477.42 137.33,-464.69"/>
<polygon fill="black" stroke="black" points="138.11,-461.27 127.53,-461.83 136.15,-467.99 138.11,-461.27"/>
</g>
<!-- ast.Assign object at 0x7f3344867700 -->
<g id="node5" class="node">
<title>ast.Assign object at 0x7f3344867700</title>
<path fill="#66cdaa" stroke="black" d="M201.41,-468C201.41,-468 171.41,-468 171.41,-468 165.41,-468 159.41,-462 159.41,-456 159.41,-456 159.41,-444 159.41,-444 159.41,-438 165.41,-432 171.41,-432 171.41,-432 201.41,-432 201.41,-432 207.41,-432 213.41,-438 213.41,-444 213.41,-444 213.41,-456 213.41,-456 213.41,-462 207.41,-468 201.41,-468"/>
<text text-anchor="middle" x="186.41" y="-446.3" font-family="Times,serif" font-size="14.00">Assign</text>
</g>
<!-- ast.FunctionDef object at 0x7f33448656f0&#45;&gt;ast.Assign object at 0x7f3344867700 -->
<g id="edge4" class="edge">
<title>ast.FunctionDef object at 0x7f33448656f0&#45;&gt;ast.Assign object at 0x7f3344867700</title>
<path fill="none" stroke="black" d="M295.18,-503.88C273.18,-493.18 244.92,-479.44 222.71,-468.65"/>
<polygon fill="black" stroke="black" points="224.13,-465.44 213.6,-464.22 221.07,-471.74 224.13,-465.44"/>
</g>
<!-- ast.For object at 0x7f3344866770 -->
<g id="node10" class="node">
<title>ast.For object at 0x7f3344866770</title>
<path fill="#66cdaa" stroke="black" d="M345.41,-468C345.41,-468 315.41,-468 315.41,-468 309.41,-468 303.41,-462 303.41,-456 303.41,-456 303.41,-444 303.41,-444 303.41,-438 309.41,-432 315.41,-432 315.41,-432 345.41,-432 345.41,-432 351.41,-432 357.41,-438 357.41,-444 357.41,-444 357.41,-456 357.41,-456 357.41,-462 351.41,-468 345.41,-468"/>
<text text-anchor="middle" x="330.41" y="-446.3" font-family="Times,serif" font-size="14.00">For</text>
</g>
<!-- ast.FunctionDef object at 0x7f33448656f0&#45;&gt;ast.For object at 0x7f3344866770 -->
<g id="edge9" class="edge">
<title>ast.FunctionDef object at 0x7f33448656f0&#45;&gt;ast.For object at 0x7f3344866770</title>
<path fill="none" stroke="black" d="M330.41,-503.7C330.41,-495.98 330.41,-486.71 330.41,-478.11"/>
<polygon fill="black" stroke="black" points="333.91,-478.1 330.41,-468.1 326.91,-478.1 333.91,-478.1"/>
</g>
<!-- ast.Expr object at 0x7f3344864be0 -->
<g id="node23" class="node">
<title>ast.Expr object at 0x7f3344864be0</title>
<path fill="#66cdaa" stroke="black" d="M479.41,-468C479.41,-468 449.41,-468 449.41,-468 443.41,-468 437.41,-462 437.41,-456 437.41,-456 437.41,-444 437.41,-444 437.41,-438 443.41,-432 449.41,-432 449.41,-432 479.41,-432 479.41,-432 485.41,-432 491.41,-438 491.41,-444 491.41,-444 491.41,-456 491.41,-456 491.41,-462 485.41,-468 479.41,-468"/>
<text text-anchor="middle" x="464.41" y="-446.3" font-family="Times,serif" font-size="14.00">Expr</text>
</g>
<!-- ast.FunctionDef object at 0x7f33448656f0&#45;&gt;ast.Expr object at 0x7f3344864be0 -->
<g id="edge29" class="edge">
<title>ast.FunctionDef object at 0x7f33448656f0&#45;&gt;ast.Expr object at 0x7f3344864be0</title>
<path fill="none" stroke="black" d="M363.19,-503.88C382.94,-493.56 408.12,-480.4 428.43,-469.8"/>
<polygon fill="black" stroke="black" points="430.13,-472.86 437.37,-465.12 426.89,-466.65 430.13,-472.86"/>
</g>
<!-- ast.Return object at 0x7f33448645e0 -->
<g id="node31" class="node">
<title>ast.Return object at 0x7f33448645e0</title>
<path fill="#66cdaa" stroke="black" d="M620.41,-324C620.41,-324 590.41,-324 590.41,-324 584.41,-324 578.41,-318 578.41,-312 578.41,-312 578.41,-300 578.41,-300 578.41,-294 584.41,-288 590.41,-288 590.41,-288 620.41,-288 620.41,-288 626.41,-288 632.41,-294 632.41,-300 632.41,-300 632.41,-312 632.41,-312 632.41,-318 626.41,-324 620.41,-324"/>
<text text-anchor="middle" x="605.41" y="-302.3" font-family="Times,serif" font-size="14.00">Return</text>
</g>
<!-- ast.FunctionDef object at 0x7f33448656f0&#45;&gt;ast.Return object at 0x7f33448645e0 -->
<g id="edge40" class="edge">
<title>ast.FunctionDef object at 0x7f33448656f0&#45;&gt;ast.Return object at 0x7f33448645e0</title>
<path fill="none" stroke="black" d="M373.23,-515.9C410.03,-509.72 462.93,-496.35 500.41,-468 547.48,-432.4 579.63,-369.14 595.01,-333.43"/>
<polygon fill="black" stroke="black" points="598.27,-334.71 598.9,-324.14 591.81,-332.01 598.27,-334.71"/>
</g>
<!-- ast.arg object at 0x7f33448660b0 -->
<g id="node4" class="node">
<title>ast.arg object at 0x7f33448660b0</title>
<path fill="#66cdaa" stroke="black" d="M91.41,-396C91.41,-396 61.41,-396 61.41,-396 55.41,-396 49.41,-390 49.41,-384 49.41,-384 49.41,-372 49.41,-372 49.41,-366 55.41,-360 61.41,-360 61.41,-360 91.41,-360 91.41,-360 97.41,-360 103.41,-366 103.41,-372 103.41,-372 103.41,-384 103.41,-384 103.41,-390 97.41,-396 91.41,-396"/>
<text text-anchor="middle" x="76.41" y="-374.3" font-family="Times,serif" font-size="14.00">arg</text>
</g>
<!-- ast.arguments object at 0x7f3344867f10&#45;&gt;ast.arg object at 0x7f33448660b0 -->
<g id="edge3" class="edge">
<title>ast.arguments object at 0x7f3344867f10&#45;&gt;ast.arg object at 0x7f33448660b0</title>
<path fill="none" stroke="black" d="M86.95,-431.7C85.41,-423.98 83.55,-414.71 81.83,-406.11"/>
<polygon fill="black" stroke="black" points="85.22,-405.22 79.83,-396.1 78.36,-406.6 85.22,-405.22"/>
</g>
<!-- ast.Name object at 0x7f3344865420 -->
<g id="node6" class="node">
<title>ast.Name object at 0x7f3344865420</title>
<path fill="#66cdaa" stroke="black" d="M201.41,-396C201.41,-396 171.41,-396 171.41,-396 165.41,-396 159.41,-390 159.41,-384 159.41,-384 159.41,-372 159.41,-372 159.41,-366 165.41,-360 171.41,-360 171.41,-360 201.41,-360 201.41,-360 207.41,-360 213.41,-366 213.41,-372 213.41,-372 213.41,-384 213.41,-384 213.41,-390 207.41,-396 201.41,-396"/>
<text text-anchor="middle" x="186.41" y="-374.3" font-family="Times,serif" font-size="14.00">Name</text>
</g>
<!-- ast.Assign object at 0x7f3344867700&#45;&gt;ast.Name object at 0x7f3344865420 -->
<g id="edge5" class="edge">
<title>ast.Assign object at 0x7f3344867700&#45;&gt;ast.Name object at 0x7f3344865420</title>
<path fill="none" stroke="black" d="M186.41,-431.7C186.41,-423.98 186.41,-414.71 186.41,-406.11"/>
<polygon fill="black" stroke="black" points="189.91,-406.1 186.41,-396.1 182.91,-406.1 189.91,-406.1"/>
</g>
<!-- ast.List object at 0x7f3344864820 -->
<g id="node8" class="node">
<title>ast.List object at 0x7f3344864820</title>
<path fill="#66cdaa" stroke="black" d="M72.41,-252C72.41,-252 42.41,-252 42.41,-252 36.41,-252 30.41,-246 30.41,-240 30.41,-240 30.41,-228 30.41,-228 30.41,-222 36.41,-216 42.41,-216 42.41,-216 72.41,-216 72.41,-216 78.41,-216 84.41,-222 84.41,-228 84.41,-228 84.41,-240 84.41,-240 84.41,-246 78.41,-252 72.41,-252"/>
<text text-anchor="middle" x="57.41" y="-230.3" font-family="Times,serif" font-size="14.00">List</text>
</g>
<!-- ast.Assign object at 0x7f3344867700&#45;&gt;ast.List object at 0x7f3344864820 -->
<g id="edge7" class="edge">
<title>ast.Assign object at 0x7f3344867700&#45;&gt;ast.List object at 0x7f3344864820</title>
<path fill="none" stroke="black" d="M174.08,-431.55C166.98,-421.31 157.98,-408.06 150.41,-396 121.06,-349.21 89.4,-293.04 71.62,-260.93"/>
<polygon fill="black" stroke="black" points="74.68,-259.23 66.78,-252.16 68.55,-262.61 74.68,-259.23"/>
</g>
<!-- ast.Store object at 0x7f33a65ee080 -->
<g id="node7" class="node">
<title>ast.Store object at 0x7f33a65ee080</title>
<path fill="#66cdaa" stroke="black" d="M218.41,-324C218.41,-324 188.41,-324 188.41,-324 182.41,-324 176.41,-318 176.41,-312 176.41,-312 176.41,-300 176.41,-300 176.41,-294 182.41,-288 188.41,-288 188.41,-288 218.41,-288 218.41,-288 224.41,-288 230.41,-294 230.41,-300 230.41,-300 230.41,-312 230.41,-312 230.41,-318 224.41,-324 218.41,-324"/>
<text text-anchor="middle" x="203.41" y="-302.3" font-family="Times,serif" font-size="14.00">Store</text>
</g>
<!-- ast.Name object at 0x7f3344865420&#45;&gt;ast.Store object at 0x7f33a65ee080 -->
<g id="edge6" class="edge">
<title>ast.Name object at 0x7f3344865420&#45;&gt;ast.Store object at 0x7f33a65ee080</title>
<path fill="none" stroke="black" d="M190.61,-359.7C192.51,-351.9 194.79,-342.51 196.89,-333.83"/>
<polygon fill="black" stroke="black" points="200.3,-334.65 199.26,-324.1 193.49,-333 200.3,-334.65"/>
</g>
<!-- ast.Load object at 0x7f33a65ee020 -->
<g id="node9" class="node">
<title>ast.Load object at 0x7f33a65ee020</title>
<path fill="#66cdaa" stroke="black" d="M393.41,-36C393.41,-36 363.41,-36 363.41,-36 357.41,-36 351.41,-30 351.41,-24 351.41,-24 351.41,-12 351.41,-12 351.41,-6 357.41,0 363.41,0 363.41,0 393.41,0 393.41,0 399.41,0 405.41,-6 405.41,-12 405.41,-12 405.41,-24 405.41,-24 405.41,-30 399.41,-36 393.41,-36"/>
<text text-anchor="middle" x="378.41" y="-14.3" font-family="Times,serif" font-size="14.00">Load</text>
</g>
<!-- ast.List object at 0x7f3344864820&#45;&gt;ast.Load object at 0x7f33a65ee020 -->
<g id="edge8" class="edge">
<title>ast.List object at 0x7f3344864820&#45;&gt;ast.Load object at 0x7f33a65ee020</title>
<path fill="none" stroke="black" d="M43.88,-215.72C20.43,-183.57 -21.93,-114.01 14.41,-72 56.43,-23.42 257.14,-18.46 341.22,-18.57"/>
<polygon fill="black" stroke="black" points="341.34,-22.07 351.35,-18.6 341.36,-15.07 341.34,-22.07"/>
</g>
<!-- ast.Name object at 0x7f33448649d0 -->
<g id="node11" class="node">
<title>ast.Name object at 0x7f33448649d0</title>
<path fill="#66cdaa" stroke="black" d="M273.41,-396C273.41,-396 243.41,-396 243.41,-396 237.41,-396 231.41,-390 231.41,-384 231.41,-384 231.41,-372 231.41,-372 231.41,-366 237.41,-360 243.41,-360 243.41,-360 273.41,-360 273.41,-360 279.41,-360 285.41,-366 285.41,-372 285.41,-372 285.41,-384 285.41,-384 285.41,-390 279.41,-396 273.41,-396"/>
<text text-anchor="middle" x="258.41" y="-374.3" font-family="Times,serif" font-size="14.00">Name</text>
</g>
<!-- ast.For object at 0x7f3344866770&#45;&gt;ast.Name object at 0x7f33448649d0 -->
<g id="edge10" class="edge">
<title>ast.For object at 0x7f3344866770&#45;&gt;ast.Name object at 0x7f33448649d0</title>
<path fill="none" stroke="black" d="M312.61,-431.7C303.81,-423.14 293.03,-412.66 283.41,-403.3"/>
<polygon fill="black" stroke="black" points="285.61,-400.57 276,-396.1 280.73,-405.58 285.61,-400.57"/>
</g>
<!-- ast.Name object at 0x7f3344867880 -->
<g id="node12" class="node">
<title>ast.Name object at 0x7f3344867880</title>
<path fill="#66cdaa" stroke="black" d="M412.41,-324C412.41,-324 382.41,-324 382.41,-324 376.41,-324 370.41,-318 370.41,-312 370.41,-312 370.41,-300 370.41,-300 370.41,-294 376.41,-288 382.41,-288 382.41,-288 412.41,-288 412.41,-288 418.41,-288 424.41,-294 424.41,-300 424.41,-300 424.41,-312 424.41,-312 424.41,-318 418.41,-324 412.41,-324"/>
<text text-anchor="middle" x="397.41" y="-302.3" font-family="Times,serif" font-size="14.00">Name</text>
</g>
<!-- ast.For object at 0x7f3344866770&#45;&gt;ast.Name object at 0x7f3344867880 -->
<g id="edge12" class="edge">
<title>ast.For object at 0x7f3344866770&#45;&gt;ast.Name object at 0x7f3344867880</title>
<path fill="none" stroke="black" d="M343.96,-431.57C351.29,-421.56 360.11,-408.52 366.41,-396 376.47,-375.99 384.64,-351.93 390.06,-333.87"/>
<polygon fill="black" stroke="black" points="393.42,-334.85 392.85,-324.27 386.7,-332.89 393.42,-334.85"/>
</g>
<!-- ast.If object at 0x7f3344867ee0 -->
<g id="node13" class="node">
<title>ast.If object at 0x7f3344867ee0</title>
<path fill="#66cdaa" stroke="black" d="M345.41,-396C345.41,-396 315.41,-396 315.41,-396 309.41,-396 303.41,-390 303.41,-384 303.41,-384 303.41,-372 303.41,-372 303.41,-366 309.41,-360 315.41,-360 315.41,-360 345.41,-360 345.41,-360 351.41,-360 357.41,-366 357.41,-372 357.41,-372 357.41,-384 357.41,-384 357.41,-390 351.41,-396 345.41,-396"/>
<text text-anchor="middle" x="330.41" y="-374.3" font-family="Times,serif" font-size="14.00">If</text>
</g>
<!-- ast.For object at 0x7f3344866770&#45;&gt;ast.If object at 0x7f3344867ee0 -->
<g id="edge14" class="edge">
<title>ast.For object at 0x7f3344866770&#45;&gt;ast.If object at 0x7f3344867ee0</title>
<path fill="none" stroke="black" d="M330.41,-431.7C330.41,-423.98 330.41,-414.71 330.41,-406.11"/>
<polygon fill="black" stroke="black" points="333.91,-406.1 330.41,-396.1 326.91,-406.1 333.91,-406.1"/>
</g>
<!-- ast.Name object at 0x7f33448649d0&#45;&gt;ast.Store object at 0x7f33a65ee080 -->
<g id="edge11" class="edge">
<title>ast.Name object at 0x7f33448649d0&#45;&gt;ast.Store object at 0x7f33a65ee080</title>
<path fill="none" stroke="black" d="M244.81,-359.7C238.29,-351.39 230.34,-341.28 223.16,-332.14"/>
<polygon fill="black" stroke="black" points="225.78,-329.81 216.85,-324.1 220.28,-334.13 225.78,-329.81"/>
</g>
<!-- ast.Name object at 0x7f3344867880&#45;&gt;ast.Load object at 0x7f33a65ee020 -->
<g id="edge13" class="edge">
<title>ast.Name object at 0x7f3344867880&#45;&gt;ast.Load object at 0x7f33a65ee020</title>
<path fill="none" stroke="black" d="M396.28,-287.97C393.11,-240.29 384.14,-105.18 380.25,-46.63"/>
<polygon fill="black" stroke="black" points="383.71,-46.05 379.56,-36.31 376.73,-46.52 383.71,-46.05"/>
</g>
<!-- ast.Compare object at 0x7f3344867fa0 -->
<g id="node14" class="node">
<title>ast.Compare object at 0x7f3344867fa0</title>
<path fill="#66cdaa" stroke="black" d="M172.91,-180C172.91,-180 129.91,-180 129.91,-180 123.91,-180 117.91,-174 117.91,-168 117.91,-168 117.91,-156 117.91,-156 117.91,-150 123.91,-144 129.91,-144 129.91,-144 172.91,-144 172.91,-144 178.91,-144 184.91,-150 184.91,-156 184.91,-156 184.91,-168 184.91,-168 184.91,-174 178.91,-180 172.91,-180"/>
<text text-anchor="middle" x="151.41" y="-158.3" font-family="Times,serif" font-size="14.00">Compare</text>
</g>
<!-- ast.If object at 0x7f3344867ee0&#45;&gt;ast.Compare object at 0x7f3344867fa0 -->
<g id="edge15" class="edge">
<title>ast.If object at 0x7f3344867ee0&#45;&gt;ast.Compare object at 0x7f3344867fa0</title>
<path fill="none" stroke="black" d="M316.06,-359.85C284.58,-322.21 209.29,-232.2 172.45,-188.15"/>
<polygon fill="black" stroke="black" points="174.92,-185.66 165.82,-180.23 169.56,-190.15 174.92,-185.66"/>
</g>
<!-- ast.Expr object at 0x7f3344865fc0 -->
<g id="node18" class="node">
<title>ast.Expr object at 0x7f3344865fc0</title>
<path fill="#66cdaa" stroke="black" d="M340.41,-324C340.41,-324 310.41,-324 310.41,-324 304.41,-324 298.41,-318 298.41,-312 298.41,-312 298.41,-300 298.41,-300 298.41,-294 304.41,-288 310.41,-288 310.41,-288 340.41,-288 340.41,-288 346.41,-288 352.41,-294 352.41,-300 352.41,-300 352.41,-312 352.41,-312 352.41,-318 346.41,-324 340.41,-324"/>
<text text-anchor="middle" x="325.41" y="-302.3" font-family="Times,serif" font-size="14.00">Expr</text>
</g>
<!-- ast.If object at 0x7f3344867ee0&#45;&gt;ast.Expr object at 0x7f3344865fc0 -->
<g id="edge21" class="edge">
<title>ast.If object at 0x7f3344867ee0&#45;&gt;ast.Expr object at 0x7f3344865fc0</title>
<path fill="none" stroke="black" d="M329.17,-359.7C328.62,-351.98 327.96,-342.71 327.35,-334.11"/>
<polygon fill="black" stroke="black" points="330.84,-333.83 326.63,-324.1 323.85,-334.33 330.84,-333.83"/>
</g>
<!-- ast.Name object at 0x7f3344866fb0 -->
<g id="node15" class="node">
<title>ast.Name object at 0x7f3344866fb0</title>
<path fill="#66cdaa" stroke="black" d="M137.41,-108C137.41,-108 107.41,-108 107.41,-108 101.41,-108 95.41,-102 95.41,-96 95.41,-96 95.41,-84 95.41,-84 95.41,-78 101.41,-72 107.41,-72 107.41,-72 137.41,-72 137.41,-72 143.41,-72 149.41,-78 149.41,-84 149.41,-84 149.41,-96 149.41,-96 149.41,-102 143.41,-108 137.41,-108"/>
<text text-anchor="middle" x="122.41" y="-86.3" font-family="Times,serif" font-size="14.00">Name</text>
</g>
<!-- ast.Compare object at 0x7f3344867fa0&#45;&gt;ast.Name object at 0x7f3344866fb0 -->
<g id="edge16" class="edge">
<title>ast.Compare object at 0x7f3344867fa0&#45;&gt;ast.Name object at 0x7f3344866fb0</title>
<path fill="none" stroke="black" d="M144.24,-143.7C140.98,-135.81 137.04,-126.3 133.41,-117.55"/>
<polygon fill="black" stroke="black" points="136.56,-116 129.5,-108.1 130.09,-118.68 136.56,-116"/>
</g>
<!-- ast.NotIn object at 0x7f33a65eecb0 -->
<g id="node16" class="node">
<title>ast.NotIn object at 0x7f33a65eecb0</title>
<path fill="#66cdaa" stroke="black" d="M209.41,-108C209.41,-108 179.41,-108 179.41,-108 173.41,-108 167.41,-102 167.41,-96 167.41,-96 167.41,-84 167.41,-84 167.41,-78 173.41,-72 179.41,-72 179.41,-72 209.41,-72 209.41,-72 215.41,-72 221.41,-78 221.41,-84 221.41,-84 221.41,-96 221.41,-96 221.41,-102 215.41,-108 209.41,-108"/>
<text text-anchor="middle" x="194.41" y="-86.3" font-family="Times,serif" font-size="14.00">NotIn</text>
</g>
<!-- ast.Compare object at 0x7f3344867fa0&#45;&gt;ast.NotIn object at 0x7f33a65eecb0 -->
<g id="edge18" class="edge">
<title>ast.Compare object at 0x7f3344867fa0&#45;&gt;ast.NotIn object at 0x7f33a65eecb0</title>
<path fill="none" stroke="black" d="M162.04,-143.7C167.04,-135.56 173.1,-125.69 178.62,-116.7"/>
<polygon fill="black" stroke="black" points="181.65,-118.46 183.9,-108.1 175.69,-114.79 181.65,-118.46"/>
</g>
<!-- ast.Name object at 0x7f33448652a0 -->
<g id="node17" class="node">
<title>ast.Name object at 0x7f33448652a0</title>
<path fill="#66cdaa" stroke="black" d="M65.41,-108C65.41,-108 35.41,-108 35.41,-108 29.41,-108 23.41,-102 23.41,-96 23.41,-96 23.41,-84 23.41,-84 23.41,-78 29.41,-72 35.41,-72 35.41,-72 65.41,-72 65.41,-72 71.41,-72 77.41,-78 77.41,-84 77.41,-84 77.41,-96 77.41,-96 77.41,-102 71.41,-108 65.41,-108"/>
<text text-anchor="middle" x="50.41" y="-86.3" font-family="Times,serif" font-size="14.00">Name</text>
</g>
<!-- ast.Compare object at 0x7f3344867fa0&#45;&gt;ast.Name object at 0x7f33448652a0 -->
<g id="edge19" class="edge">
<title>ast.Compare object at 0x7f3344867fa0&#45;&gt;ast.Name object at 0x7f33448652a0</title>
<path fill="none" stroke="black" d="M126.7,-143.88C113.74,-134.89 97.68,-123.76 83.64,-114.03"/>
<polygon fill="black" stroke="black" points="85.43,-111.01 75.21,-108.19 81.44,-116.76 85.43,-111.01"/>
</g>
<!-- ast.Name object at 0x7f3344866fb0&#45;&gt;ast.Load object at 0x7f33a65ee020 -->
<g id="edge17" class="edge">
<title>ast.Name object at 0x7f3344866fb0&#45;&gt;ast.Load object at 0x7f33a65ee020</title>
<path fill="none" stroke="black" d="M149.68,-75.41C152.6,-74.18 155.54,-73.01 158.41,-72 221.01,-49.94 296.81,-33.91 341.12,-25.56"/>
<polygon fill="black" stroke="black" points="341.95,-28.97 351.14,-23.71 340.67,-22.09 341.95,-28.97"/>
</g>
<!-- ast.Name object at 0x7f33448652a0&#45;&gt;ast.Load object at 0x7f33a65ee020 -->
<g id="edge20" class="edge">
<title>ast.Name object at 0x7f33448652a0&#45;&gt;ast.Load object at 0x7f33a65ee020</title>
<path fill="none" stroke="black" d="M77.63,-75.24C80.55,-74.04 83.51,-72.93 86.41,-72 175.36,-43.47 284.79,-28.77 341.07,-22.62"/>
<polygon fill="black" stroke="black" points="341.69,-26.07 351.26,-21.53 340.95,-19.11 341.69,-26.07"/>
</g>
<!-- ast.Call object at 0x7f3344867a30 -->
<g id="node19" class="node">
<title>ast.Call object at 0x7f3344867a30</title>
<path fill="#66cdaa" stroke="black" d="M340.41,-252C340.41,-252 310.41,-252 310.41,-252 304.41,-252 298.41,-246 298.41,-240 298.41,-240 298.41,-228 298.41,-228 298.41,-222 304.41,-216 310.41,-216 310.41,-216 340.41,-216 340.41,-216 346.41,-216 352.41,-222 352.41,-228 352.41,-228 352.41,-240 352.41,-240 352.41,-246 346.41,-252 340.41,-252"/>
<text text-anchor="middle" x="325.41" y="-230.3" font-family="Times,serif" font-size="14.00">Call</text>
</g>
<!-- ast.Expr object at 0x7f3344865fc0&#45;&gt;ast.Call object at 0x7f3344867a30 -->
<g id="edge22" class="edge">
<title>ast.Expr object at 0x7f3344865fc0&#45;&gt;ast.Call object at 0x7f3344867a30</title>
<path fill="none" stroke="black" d="M325.41,-287.7C325.41,-279.98 325.41,-270.71 325.41,-262.11"/>
<polygon fill="black" stroke="black" points="328.91,-262.1 325.41,-252.1 321.91,-262.1 328.91,-262.1"/>
</g>
<!-- ast.Attribute object at 0x7f3344867fd0 -->
<g id="node20" class="node">
<title>ast.Attribute object at 0x7f3344867fd0</title>
<path fill="#66cdaa" stroke="black" d="M284.91,-180C284.91,-180 243.91,-180 243.91,-180 237.91,-180 231.91,-174 231.91,-168 231.91,-168 231.91,-156 231.91,-156 231.91,-150 237.91,-144 243.91,-144 243.91,-144 284.91,-144 284.91,-144 290.91,-144 296.91,-150 296.91,-156 296.91,-156 296.91,-168 296.91,-168 296.91,-174 290.91,-180 284.91,-180"/>
<text text-anchor="middle" x="264.41" y="-158.3" font-family="Times,serif" font-size="14.00">Attribute</text>
</g>
<!-- ast.Call object at 0x7f3344867a30&#45;&gt;ast.Attribute object at 0x7f3344867fd0 -->
<g id="edge23" class="edge">
<title>ast.Call object at 0x7f3344867a30&#45;&gt;ast.Attribute object at 0x7f3344867fd0</title>
<path fill="none" stroke="black" d="M310.33,-215.7C303.02,-207.3 294.1,-197.07 286.07,-187.86"/>
<polygon fill="black" stroke="black" points="288.52,-185.34 279.32,-180.1 283.25,-189.94 288.52,-185.34"/>
</g>
<!-- ast.Name object at 0x7f3344867520 -->
<g id="node22" class="node">
<title>ast.Name object at 0x7f3344867520</title>
<path fill="#66cdaa" stroke="black" d="M357.41,-180C357.41,-180 327.41,-180 327.41,-180 321.41,-180 315.41,-174 315.41,-168 315.41,-168 315.41,-156 315.41,-156 315.41,-150 321.41,-144 327.41,-144 327.41,-144 357.41,-144 357.41,-144 363.41,-144 369.41,-150 369.41,-156 369.41,-156 369.41,-168 369.41,-168 369.41,-174 363.41,-180 357.41,-180"/>
<text text-anchor="middle" x="342.41" y="-158.3" font-family="Times,serif" font-size="14.00">Name</text>
</g>
<!-- ast.Call object at 0x7f3344867a30&#45;&gt;ast.Name object at 0x7f3344867520 -->
<g id="edge27" class="edge">
<title>ast.Call object at 0x7f3344867a30&#45;&gt;ast.Name object at 0x7f3344867520</title>
<path fill="none" stroke="black" d="M329.61,-215.7C331.51,-207.9 333.79,-198.51 335.89,-189.83"/>
<polygon fill="black" stroke="black" points="339.3,-190.65 338.26,-180.1 332.49,-189 339.3,-190.65"/>
</g>
<!-- ast.Attribute object at 0x7f3344867fd0&#45;&gt;ast.Load object at 0x7f33a65ee020 -->
<g id="edge26" class="edge">
<title>ast.Attribute object at 0x7f3344867fd0&#45;&gt;ast.Load object at 0x7f33a65ee020</title>
<path fill="none" stroke="black" d="M260.3,-143.68C256.78,-124.49 254.27,-93.43 268.41,-72 284.73,-47.28 316.01,-33.75 341.05,-26.57"/>
<polygon fill="black" stroke="black" points="342.22,-29.88 351,-23.94 340.43,-23.11 342.22,-29.88"/>
</g>
<!-- ast.Name object at 0x7f3344865210 -->
<g id="node21" class="node">
<title>ast.Name object at 0x7f3344865210</title>
<path fill="#66cdaa" stroke="black" d="M319.41,-108C319.41,-108 289.41,-108 289.41,-108 283.41,-108 277.41,-102 277.41,-96 277.41,-96 277.41,-84 277.41,-84 277.41,-78 283.41,-72 289.41,-72 289.41,-72 319.41,-72 319.41,-72 325.41,-72 331.41,-78 331.41,-84 331.41,-84 331.41,-96 331.41,-96 331.41,-102 325.41,-108 319.41,-108"/>
<text text-anchor="middle" x="304.41" y="-86.3" font-family="Times,serif" font-size="14.00">Name</text>
</g>
<!-- ast.Attribute object at 0x7f3344867fd0&#45;&gt;ast.Name object at 0x7f3344865210 -->
<g id="edge24" class="edge">
<title>ast.Attribute object at 0x7f3344867fd0&#45;&gt;ast.Name object at 0x7f3344865210</title>
<path fill="none" stroke="black" d="M274.3,-143.7C278.9,-135.64 284.47,-125.89 289.56,-116.98"/>
<polygon fill="black" stroke="black" points="292.71,-118.52 294.64,-108.1 286.64,-115.05 292.71,-118.52"/>
</g>
<!-- ast.Name object at 0x7f3344865210&#45;&gt;ast.Load object at 0x7f33a65ee020 -->
<g id="edge25" class="edge">
<title>ast.Name object at 0x7f3344865210&#45;&gt;ast.Load object at 0x7f33a65ee020</title>
<path fill="none" stroke="black" d="M322.7,-71.7C331.84,-63.05 343.05,-52.45 353.01,-43.03"/>
<polygon fill="black" stroke="black" points="355.47,-45.52 360.33,-36.1 350.66,-40.43 355.47,-45.52"/>
</g>
<!-- ast.Name object at 0x7f3344867520&#45;&gt;ast.Load object at 0x7f33a65ee020 -->
<g id="edge28" class="edge">
<title>ast.Name object at 0x7f3344867520&#45;&gt;ast.Load object at 0x7f33a65ee020</title>
<path fill="none" stroke="black" d="M346.75,-143.87C352.91,-119.56 364.26,-74.82 371.56,-46.01"/>
<polygon fill="black" stroke="black" points="374.99,-46.74 374.05,-36.19 368.2,-45.02 374.99,-46.74"/>
</g>
<!-- ast.Call object at 0x7f3344866a10 -->
<g id="node24" class="node">
<title>ast.Call object at 0x7f3344866a10</title>
<path fill="#66cdaa" stroke="black" d="M531.41,-252C531.41,-252 501.41,-252 501.41,-252 495.41,-252 489.41,-246 489.41,-240 489.41,-240 489.41,-228 489.41,-228 489.41,-222 495.41,-216 501.41,-216 501.41,-216 531.41,-216 531.41,-216 537.41,-216 543.41,-222 543.41,-228 543.41,-228 543.41,-240 543.41,-240 543.41,-246 537.41,-252 531.41,-252"/>
<text text-anchor="middle" x="516.41" y="-230.3" font-family="Times,serif" font-size="14.00">Call</text>
</g>
<!-- ast.Expr object at 0x7f3344864be0&#45;&gt;ast.Call object at 0x7f3344866a10 -->
<g id="edge30" class="edge">
<title>ast.Expr object at 0x7f3344864be0&#45;&gt;ast.Call object at 0x7f3344866a10</title>
<path fill="none" stroke="black" d="M468.58,-431.85C477.59,-394.75 498.96,-306.81 509.82,-262.1"/>
<polygon fill="black" stroke="black" points="513.26,-262.78 512.22,-252.23 506.46,-261.12 513.26,-262.78"/>
</g>
<!-- ast.Attribute object at 0x7f3344867460 -->
<g id="node25" class="node">
<title>ast.Attribute object at 0x7f3344867460</title>
<path fill="#66cdaa" stroke="black" d="M495.91,-180C495.91,-180 454.91,-180 454.91,-180 448.91,-180 442.91,-174 442.91,-168 442.91,-168 442.91,-156 442.91,-156 442.91,-150 448.91,-144 454.91,-144 454.91,-144 495.91,-144 495.91,-144 501.91,-144 507.91,-150 507.91,-156 507.91,-156 507.91,-168 507.91,-168 507.91,-174 501.91,-180 495.91,-180"/>
<text text-anchor="middle" x="475.41" y="-158.3" font-family="Times,serif" font-size="14.00">Attribute</text>
</g>
<!-- ast.Call object at 0x7f3344866a10&#45;&gt;ast.Attribute object at 0x7f3344867460 -->
<g id="edge31" class="edge">
<title>ast.Call object at 0x7f3344866a10&#45;&gt;ast.Attribute object at 0x7f3344867460</title>
<path fill="none" stroke="black" d="M506.28,-215.7C501.56,-207.64 495.85,-197.89 490.63,-188.98"/>
<polygon fill="black" stroke="black" points="493.5,-186.96 485.43,-180.1 487.46,-190.5 493.5,-186.96"/>
</g>
<!-- ast.keyword object at 0x7f3344865e10 -->
<g id="node27" class="node">
<title>ast.keyword object at 0x7f3344865e10</title>
<path fill="#66cdaa" stroke="black" d="M578.41,-180C578.41,-180 538.41,-180 538.41,-180 532.41,-180 526.41,-174 526.41,-168 526.41,-168 526.41,-156 526.41,-156 526.41,-150 532.41,-144 538.41,-144 538.41,-144 578.41,-144 578.41,-144 584.41,-144 590.41,-150 590.41,-156 590.41,-156 590.41,-168 590.41,-168 590.41,-174 584.41,-180 578.41,-180"/>
<text text-anchor="middle" x="558.41" y="-158.3" font-family="Times,serif" font-size="14.00">keyword</text>
</g>
<!-- ast.Call object at 0x7f3344866a10&#45;&gt;ast.keyword object at 0x7f3344865e10 -->
<g id="edge35" class="edge">
<title>ast.Call object at 0x7f3344866a10&#45;&gt;ast.keyword object at 0x7f3344865e10</title>
<path fill="none" stroke="black" d="M526.79,-215.7C531.67,-207.56 537.6,-197.69 542.99,-188.7"/>
<polygon fill="black" stroke="black" points="546,-190.48 548.15,-180.1 540,-186.88 546,-190.48"/>
</g>
<!-- ast.keyword object at 0x7f3344865030 -->
<g id="node29" class="node">
<title>ast.keyword object at 0x7f3344865030</title>
<path fill="#66cdaa" stroke="black" d="M660.41,-180C660.41,-180 620.41,-180 620.41,-180 614.41,-180 608.41,-174 608.41,-168 608.41,-168 608.41,-156 608.41,-156 608.41,-150 614.41,-144 620.41,-144 620.41,-144 660.41,-144 660.41,-144 666.41,-144 672.41,-150 672.41,-156 672.41,-156 672.41,-168 672.41,-168 672.41,-174 666.41,-180 660.41,-180"/>
<text text-anchor="middle" x="640.41" y="-158.3" font-family="Times,serif" font-size="14.00">keyword</text>
</g>
<!-- ast.Call object at 0x7f3344866a10&#45;&gt;ast.keyword object at 0x7f3344865030 -->
<g id="edge38" class="edge">
<title>ast.Call object at 0x7f3344866a10&#45;&gt;ast.keyword object at 0x7f3344865030</title>
<path fill="none" stroke="black" d="M543.62,-217.64C560.53,-208.09 582.55,-195.67 601.31,-185.07"/>
<polygon fill="black" stroke="black" points="603.23,-188.01 610.22,-180.04 599.79,-181.91 603.23,-188.01"/>
</g>
<!-- ast.Attribute object at 0x7f3344867460&#45;&gt;ast.Load object at 0x7f33a65ee020 -->
<g id="edge34" class="edge">
<title>ast.Attribute object at 0x7f3344867460&#45;&gt;ast.Load object at 0x7f33a65ee020</title>
<path fill="none" stroke="black" d="M484.21,-143.87C492.64,-124.86 502.2,-93.95 488.41,-72 472.48,-46.65 440.64,-33.13 415.3,-26.12"/>
<polygon fill="black" stroke="black" points="416.16,-22.72 405.6,-23.65 414.43,-29.51 416.16,-22.72"/>
</g>
<!-- ast.Name object at 0x7f3344867340 -->
<g id="node26" class="node">
<title>ast.Name object at 0x7f3344867340</title>
<path fill="#66cdaa" stroke="black" d="M467.41,-108C467.41,-108 437.41,-108 437.41,-108 431.41,-108 425.41,-102 425.41,-96 425.41,-96 425.41,-84 425.41,-84 425.41,-78 431.41,-72 437.41,-72 437.41,-72 467.41,-72 467.41,-72 473.41,-72 479.41,-78 479.41,-84 479.41,-84 479.41,-96 479.41,-96 479.41,-102 473.41,-108 467.41,-108"/>
<text text-anchor="middle" x="452.41" y="-86.3" font-family="Times,serif" font-size="14.00">Name</text>
</g>
<!-- ast.Attribute object at 0x7f3344867460&#45;&gt;ast.Name object at 0x7f3344867340 -->
<g id="edge32" class="edge">
<title>ast.Attribute object at 0x7f3344867460&#45;&gt;ast.Name object at 0x7f3344867340</title>
<path fill="none" stroke="black" d="M469.72,-143.7C467.16,-135.9 464.08,-126.51 461.23,-117.83"/>
<polygon fill="black" stroke="black" points="464.48,-116.51 458.03,-108.1 457.83,-118.7 464.48,-116.51"/>
</g>
<!-- ast.Name object at 0x7f3344867340&#45;&gt;ast.Load object at 0x7f33a65ee020 -->
<g id="edge33" class="edge">
<title>ast.Name object at 0x7f3344867340&#45;&gt;ast.Load object at 0x7f33a65ee020</title>
<path fill="none" stroke="black" d="M434.12,-71.7C424.98,-63.05 413.77,-52.45 403.81,-43.03"/>
<polygon fill="black" stroke="black" points="406.16,-40.43 396.49,-36.1 401.35,-45.52 406.16,-40.43"/>
</g>
<!-- ast.Name object at 0x7f3344866a70 -->
<g id="node28" class="node">
<title>ast.Name object at 0x7f3344866a70</title>
<path fill="#66cdaa" stroke="black" d="M577.41,-108C577.41,-108 547.41,-108 547.41,-108 541.41,-108 535.41,-102 535.41,-96 535.41,-96 535.41,-84 535.41,-84 535.41,-78 541.41,-72 547.41,-72 547.41,-72 577.41,-72 577.41,-72 583.41,-72 589.41,-78 589.41,-84 589.41,-84 589.41,-96 589.41,-96 589.41,-102 583.41,-108 577.41,-108"/>
<text text-anchor="middle" x="562.41" y="-86.3" font-family="Times,serif" font-size="14.00">Name</text>
</g>
<!-- ast.keyword object at 0x7f3344865e10&#45;&gt;ast.Name object at 0x7f3344866a70 -->
<g id="edge36" class="edge">
<title>ast.keyword object at 0x7f3344865e10&#45;&gt;ast.Name object at 0x7f3344866a70</title>
<path fill="none" stroke="black" d="M559.4,-143.7C559.84,-135.98 560.37,-126.71 560.86,-118.11"/>
<polygon fill="black" stroke="black" points="564.36,-118.29 561.43,-108.1 557.37,-117.89 564.36,-118.29"/>
</g>
<!-- ast.Name object at 0x7f3344866a70&#45;&gt;ast.Load object at 0x7f33a65ee020 -->
<g id="edge37" class="edge">
<title>ast.Name object at 0x7f3344866a70&#45;&gt;ast.Load object at 0x7f33a65ee020</title>
<path fill="none" stroke="black" d="M535.12,-77.52C530.56,-75.64 525.86,-73.75 521.41,-72 485.58,-57.94 444.34,-42.76 415.38,-32.26"/>
<polygon fill="black" stroke="black" points="416.27,-28.86 405.67,-28.76 413.89,-35.45 416.27,-28.86"/>
</g>
<!-- ast.Constant object at 0x7f3344864970 -->
<g id="node30" class="node">
<title>ast.Constant object at 0x7f3344864970</title>
<path fill="#66cdaa" stroke="black" d="M660.91,-108C660.91,-108 619.91,-108 619.91,-108 613.91,-108 607.91,-102 607.91,-96 607.91,-96 607.91,-84 607.91,-84 607.91,-78 613.91,-72 619.91,-72 619.91,-72 660.91,-72 660.91,-72 666.91,-72 672.91,-78 672.91,-84 672.91,-84 672.91,-96 672.91,-96 672.91,-102 666.91,-108 660.91,-108"/>
<text text-anchor="middle" x="640.41" y="-86.3" font-family="Times,serif" font-size="14.00">Constant</text>
</g>
<!-- ast.keyword object at 0x7f3344865030&#45;&gt;ast.Constant object at 0x7f3344864970 -->
<g id="edge39" class="edge">
<title>ast.keyword object at 0x7f3344865030&#45;&gt;ast.Constant object at 0x7f3344864970</title>
<path fill="none" stroke="black" d="M640.41,-143.7C640.41,-135.98 640.41,-126.71 640.41,-118.11"/>
<polygon fill="black" stroke="black" points="643.91,-118.1 640.41,-108.1 636.91,-118.1 643.91,-118.1"/>
</g>
<!-- ast.Subscript object at 0x7f33448673a0 -->
<g id="node32" class="node">
<title>ast.Subscript object at 0x7f33448673a0</title>
<path fill="#66cdaa" stroke="black" d="M762.41,-180C762.41,-180 718.41,-180 718.41,-180 712.41,-180 706.41,-174 706.41,-168 706.41,-168 706.41,-156 706.41,-156 706.41,-150 712.41,-144 718.41,-144 718.41,-144 762.41,-144 762.41,-144 768.41,-144 774.41,-150 774.41,-156 774.41,-156 774.41,-168 774.41,-168 774.41,-174 768.41,-180 762.41,-180"/>
<text text-anchor="middle" x="740.41" y="-158.3" font-family="Times,serif" font-size="14.00">Subscript</text>
</g>
<!-- ast.Return object at 0x7f33448645e0&#45;&gt;ast.Subscript object at 0x7f33448673a0 -->
<g id="edge41" class="edge">
<title>ast.Return object at 0x7f33448645e0&#45;&gt;ast.Subscript object at 0x7f33448673a0</title>
<path fill="none" stroke="black" d="M621.69,-287.87C645.41,-262.92 689.6,-216.45 716.86,-187.77"/>
<polygon fill="black" stroke="black" points="719.71,-189.85 724.07,-180.19 714.64,-185.03 719.71,-189.85"/>
</g>
<!-- ast.Subscript object at 0x7f33448673a0&#45;&gt;ast.Load object at 0x7f33a65ee020 -->
<g id="edge46" class="edge">
<title>ast.Subscript object at 0x7f33448673a0&#45;&gt;ast.Load object at 0x7f33a65ee020</title>
<path fill="none" stroke="black" d="M734.18,-143.82C725.77,-123.24 708.74,-89.36 682.41,-72 639.12,-43.46 487.5,-27.78 416.11,-21.83"/>
<polygon fill="black" stroke="black" points="416.03,-18.31 405.78,-20.99 415.46,-25.29 416.03,-18.31"/>
</g>
<!-- ast.Name object at 0x7f3344866c80 -->
<g id="node33" class="node">
<title>ast.Name object at 0x7f3344866c80</title>
<path fill="#66cdaa" stroke="black" d="M771.41,-108C771.41,-108 741.41,-108 741.41,-108 735.41,-108 729.41,-102 729.41,-96 729.41,-96 729.41,-84 729.41,-84 729.41,-78 735.41,-72 741.41,-72 741.41,-72 771.41,-72 771.41,-72 777.41,-72 783.41,-78 783.41,-84 783.41,-84 783.41,-96 783.41,-96 783.41,-102 777.41,-108 771.41,-108"/>
<text text-anchor="middle" x="756.41" y="-86.3" font-family="Times,serif" font-size="14.00">Name</text>
</g>
<!-- ast.Subscript object at 0x7f33448673a0&#45;&gt;ast.Name object at 0x7f3344866c80 -->
<g id="edge42" class="edge">
<title>ast.Subscript object at 0x7f33448673a0&#45;&gt;ast.Name object at 0x7f3344866c80</title>
<path fill="none" stroke="black" d="M744.36,-143.7C746.13,-135.98 748.25,-126.71 750.21,-118.11"/>
<polygon fill="black" stroke="black" points="753.68,-118.63 752.5,-108.1 746.86,-117.07 753.68,-118.63"/>
</g>
<!-- ast.Slice object at 0x7f33448668c0 -->
<g id="node34" class="node">
<title>ast.Slice object at 0x7f33448668c0</title>
<path fill="#66cdaa" stroke="black" d="M843.41,-108C843.41,-108 813.41,-108 813.41,-108 807.41,-108 801.41,-102 801.41,-96 801.41,-96 801.41,-84 801.41,-84 801.41,-78 807.41,-72 813.41,-72 813.41,-72 843.41,-72 843.41,-72 849.41,-72 855.41,-78 855.41,-84 855.41,-84 855.41,-96 855.41,-96 855.41,-102 849.41,-108 843.41,-108"/>
<text text-anchor="middle" x="828.41" y="-86.3" font-family="Times,serif" font-size="14.00">Slice</text>
</g>
<!-- ast.Subscript object at 0x7f33448673a0&#45;&gt;ast.Slice object at 0x7f33448668c0 -->
<g id="edge44" class="edge">
<title>ast.Subscript object at 0x7f33448673a0&#45;&gt;ast.Slice object at 0x7f33448668c0</title>
<path fill="none" stroke="black" d="M762.16,-143.7C773.25,-134.88 786.88,-124.03 798.9,-114.47"/>
<polygon fill="black" stroke="black" points="801.26,-117.07 806.91,-108.1 796.9,-111.59 801.26,-117.07"/>
</g>
<!-- ast.Name object at 0x7f3344866c80&#45;&gt;ast.Load object at 0x7f33a65ee020 -->
<g id="edge43" class="edge">
<title>ast.Name object at 0x7f3344866c80&#45;&gt;ast.Load object at 0x7f33a65ee020</title>
<path fill="none" stroke="black" d="M729.38,-76.74C724.78,-74.96 720.01,-73.3 715.41,-72 608.98,-42.02 478.55,-27.58 415.73,-21.96"/>
<polygon fill="black" stroke="black" points="415.79,-18.45 405.52,-21.07 415.18,-25.42 415.79,-18.45"/>
</g>
<!-- ast.Constant object at 0x7f3344867610 -->
<g id="node35" class="node">
<title>ast.Constant object at 0x7f3344867610</title>
<path fill="#66cdaa" stroke="black" d="M848.91,-36C848.91,-36 807.91,-36 807.91,-36 801.91,-36 795.91,-30 795.91,-24 795.91,-24 795.91,-12 795.91,-12 795.91,-6 801.91,0 807.91,0 807.91,0 848.91,0 848.91,0 854.91,0 860.91,-6 860.91,-12 860.91,-12 860.91,-24 860.91,-24 860.91,-30 854.91,-36 848.91,-36"/>
<text text-anchor="middle" x="828.41" y="-14.3" font-family="Times,serif" font-size="14.00">Constant</text>
</g>
<!-- ast.Slice object at 0x7f33448668c0&#45;&gt;ast.Constant object at 0x7f3344867610 -->
<g id="edge45" class="edge">
<title>ast.Slice object at 0x7f33448668c0&#45;&gt;ast.Constant object at 0x7f3344867610</title>
<path fill="none" stroke="black" d="M828.41,-71.7C828.41,-63.98 828.41,-54.71 828.41,-46.11"/>
<polygon fill="black" stroke="black" points="831.91,-46.1 828.41,-36.1 824.91,-46.1 831.91,-46.1"/>
</g>
</g>
</svg>
