<?xml version="1.0" encoding="UTF-8" standalone="no"?>
<!DOCTYPE svg PUBLIC "-//W3C//DTD SVG 1.1//EN"
 "http://www.w3.org/Graphics/SVG/1.1/DTD/svg11.dtd">
<!-- Generated by graphviz version 2.43.0 (0)
 -->
<!-- Title: %3 Pages: 1 -->
<svg width="624pt" height="620pt"
 viewBox="0.00 0.00 623.50 620.00" xmlns="http://www.w3.org/2000/svg" xmlns:xlink="http://www.w3.org/1999/xlink">
<g id="graph0" class="graph" transform="scale(1 1) rotate(0) translate(4 616)">
<title>%3</title>
<polygon fill="white" stroke="transparent" points="-4,4 -4,-616 619.5,-616 619.5,4 -4,4"/>
<!-- ast.Module object at 0x7f6446d282b0 -->
<g id="node1" class="node">
<title>ast.Module object at 0x7f6446d282b0</title>
<path fill="#66cdaa" stroke="black" d="M211,-612C211,-612 176,-612 176,-612 170,-612 164,-606 164,-600 164,-600 164,-588 164,-588 164,-582 170,-576 176,-576 176,-576 211,-576 211,-576 217,-576 223,-582 223,-588 223,-588 223,-600 223,-600 223,-606 217,-612 211,-612"/>
<text text-anchor="middle" x="193.5" y="-590.3" font-family="Times,serif" font-size="14.00">Module</text>
</g>
<!-- ast.FunctionDef object at 0x7f6446d290c0 -->
<g id="node2" class="node">
<title>ast.FunctionDef object at 0x7f6446d290c0</title>
<path fill="#66cdaa" stroke="black" d="M224,-540C224,-540 163,-540 163,-540 157,-540 151,-534 151,-528 151,-528 151,-516 151,-516 151,-510 157,-504 163,-504 163,-504 224,-504 224,-504 230,-504 236,-510 236,-516 236,-516 236,-528 236,-528 236,-534 230,-540 224,-540"/>
<text text-anchor="middle" x="193.5" y="-518.3" font-family="Times,serif" font-size="14.00">FunctionDef</text>
</g>
<!-- ast.Module object at 0x7f6446d282b0&#45;&gt;ast.FunctionDef object at 0x7f6446d290c0 -->
<g id="edge1" class="edge">
<title>ast.Module object at 0x7f6446d282b0&#45;&gt;ast.FunctionDef object at 0x7f6446d290c0</title>
<path fill="none" stroke="black" d="M193.5,-575.7C193.5,-567.98 193.5,-558.71 193.5,-550.11"/>
<polygon fill="black" stroke="black" points="197,-550.1 193.5,-540.1 190,-550.1 197,-550.1"/>
</g>
<!-- ast.arguments object at 0x7f6446d28670 -->
<g id="node3" class="node">
<title>ast.arguments object at 0x7f6446d28670</title>
<path fill="#66cdaa" stroke="black" d="M136.5,-468C136.5,-468 86.5,-468 86.5,-468 80.5,-468 74.5,-462 74.5,-456 74.5,-456 74.5,-444 74.5,-444 74.5,-438 80.5,-432 86.5,-432 86.5,-432 136.5,-432 136.5,-432 142.5,-432 148.5,-438 148.5,-444 148.5,-444 148.5,-456 148.5,-456 148.5,-462 142.5,-468 136.5,-468"/>
<text text-anchor="middle" x="111.5" y="-446.3" font-family="Times,serif" font-size="14.00">arguments</text>
</g>
<!-- ast.FunctionDef object at 0x7f6446d290c0&#45;&gt;ast.arguments object at 0x7f6446d28670 -->
<g id="edge2" class="edge">
<title>ast.FunctionDef object at 0x7f6446d290c0&#45;&gt;ast.arguments object at 0x7f6446d28670</title>
<path fill="none" stroke="black" d="M173.23,-503.7C163,-494.97 150.44,-484.24 139.32,-474.75"/>
<polygon fill="black" stroke="black" points="141.41,-471.94 131.54,-468.1 136.87,-477.26 141.41,-471.94"/>
</g>
<!-- ast.Assign object at 0x7f6446d2b5b0 -->
<g id="node5" class="node">
<title>ast.Assign object at 0x7f6446d2b5b0</title>
<path fill="#66cdaa" stroke="black" d="M376.5,-468C376.5,-468 346.5,-468 346.5,-468 340.5,-468 334.5,-462 334.5,-456 334.5,-456 334.5,-444 334.5,-444 334.5,-438 340.5,-432 346.5,-432 346.5,-432 376.5,-432 376.5,-432 382.5,-432 388.5,-438 388.5,-444 388.5,-444 388.5,-456 388.5,-456 388.5,-462 382.5,-468 376.5,-468"/>
<text text-anchor="middle" x="361.5" y="-446.3" font-family="Times,serif" font-size="14.00">Assign</text>
</g>
<!-- ast.FunctionDef object at 0x7f6446d290c0&#45;&gt;ast.Assign object at 0x7f6446d2b5b0 -->
<g id="edge4" class="edge">
<title>ast.FunctionDef object at 0x7f6446d290c0&#45;&gt;ast.Assign object at 0x7f6446d2b5b0</title>
<path fill="none" stroke="black" d="M234.6,-503.88C262.28,-492.34 298.47,-477.26 325.11,-466.16"/>
<polygon fill="black" stroke="black" points="326.58,-469.34 334.46,-462.27 323.88,-462.88 326.58,-469.34"/>
</g>
<!-- ast.Return object at 0x7f6446d28f10 -->
<g id="node23" class="node">
<title>ast.Return object at 0x7f6446d28f10</title>
<path fill="#66cdaa" stroke="black" d="M208.5,-468C208.5,-468 178.5,-468 178.5,-468 172.5,-468 166.5,-462 166.5,-456 166.5,-456 166.5,-444 166.5,-444 166.5,-438 172.5,-432 178.5,-432 178.5,-432 208.5,-432 208.5,-432 214.5,-432 220.5,-438 220.5,-444 220.5,-444 220.5,-456 220.5,-456 220.5,-462 214.5,-468 208.5,-468"/>
<text text-anchor="middle" x="193.5" y="-446.3" font-family="Times,serif" font-size="14.00">Return</text>
</g>
<!-- ast.FunctionDef object at 0x7f6446d290c0&#45;&gt;ast.Return object at 0x7f6446d28f10 -->
<g id="edge27" class="edge">
<title>ast.FunctionDef object at 0x7f6446d290c0&#45;&gt;ast.Return object at 0x7f6446d28f10</title>
<path fill="none" stroke="black" d="M193.5,-503.7C193.5,-495.98 193.5,-486.71 193.5,-478.11"/>
<polygon fill="black" stroke="black" points="197,-478.1 193.5,-468.1 190,-478.1 197,-478.1"/>
</g>
<!-- ast.arg object at 0x7f6446d29120 -->
<g id="node4" class="node">
<title>ast.arg object at 0x7f6446d29120</title>
<path fill="#66cdaa" stroke="black" d="M126.5,-396C126.5,-396 96.5,-396 96.5,-396 90.5,-396 84.5,-390 84.5,-384 84.5,-384 84.5,-372 84.5,-372 84.5,-366 90.5,-360 96.5,-360 96.5,-360 126.5,-360 126.5,-360 132.5,-360 138.5,-366 138.5,-372 138.5,-372 138.5,-384 138.5,-384 138.5,-390 132.5,-396 126.5,-396"/>
<text text-anchor="middle" x="111.5" y="-374.3" font-family="Times,serif" font-size="14.00">arg</text>
</g>
<!-- ast.arguments object at 0x7f6446d28670&#45;&gt;ast.arg object at 0x7f6446d29120 -->
<g id="edge3" class="edge">
<title>ast.arguments object at 0x7f6446d28670&#45;&gt;ast.arg object at 0x7f6446d29120</title>
<path fill="none" stroke="black" d="M111.5,-431.7C111.5,-423.98 111.5,-414.71 111.5,-406.11"/>
<polygon fill="black" stroke="black" points="115,-406.1 111.5,-396.1 108,-406.1 115,-406.1"/>
</g>
<!-- ast.Name object at 0x7f6446d2be50 -->
<g id="node6" class="node">
<title>ast.Name object at 0x7f6446d2be50</title>
<path fill="#66cdaa" stroke="black" d="M376.5,-396C376.5,-396 346.5,-396 346.5,-396 340.5,-396 334.5,-390 334.5,-384 334.5,-384 334.5,-372 334.5,-372 334.5,-366 340.5,-360 346.5,-360 346.5,-360 376.5,-360 376.5,-360 382.5,-360 388.5,-366 388.5,-372 388.5,-372 388.5,-384 388.5,-384 388.5,-390 382.5,-396 376.5,-396"/>
<text text-anchor="middle" x="361.5" y="-374.3" font-family="Times,serif" font-size="14.00">Name</text>
</g>
<!-- ast.Assign object at 0x7f6446d2b5b0&#45;&gt;ast.Name object at 0x7f6446d2be50 -->
<g id="edge5" class="edge">
<title>ast.Assign object at 0x7f6446d2b5b0&#45;&gt;ast.Name object at 0x7f6446d2be50</title>
<path fill="none" stroke="black" d="M361.5,-431.7C361.5,-423.98 361.5,-414.71 361.5,-406.11"/>
<polygon fill="black" stroke="black" points="365,-406.1 361.5,-396.1 358,-406.1 365,-406.1"/>
</g>
<!-- ast.Call object at 0x7f6446d2b610 -->
<g id="node8" class="node">
<title>ast.Call object at 0x7f6446d2b610</title>
<path fill="#66cdaa" stroke="black" d="M485.5,-396C485.5,-396 455.5,-396 455.5,-396 449.5,-396 443.5,-390 443.5,-384 443.5,-384 443.5,-372 443.5,-372 443.5,-366 449.5,-360 455.5,-360 455.5,-360 485.5,-360 485.5,-360 491.5,-360 497.5,-366 497.5,-372 497.5,-372 497.5,-384 497.5,-384 497.5,-390 491.5,-396 485.5,-396"/>
<text text-anchor="middle" x="470.5" y="-374.3" font-family="Times,serif" font-size="14.00">Call</text>
</g>
<!-- ast.Assign object at 0x7f6446d2b5b0&#45;&gt;ast.Call object at 0x7f6446d2b610 -->
<g id="edge7" class="edge">
<title>ast.Assign object at 0x7f6446d2b5b0&#45;&gt;ast.Call object at 0x7f6446d2b610</title>
<path fill="none" stroke="black" d="M388.16,-431.88C402.28,-422.81 419.81,-411.55 435.06,-401.76"/>
<polygon fill="black" stroke="black" points="437.21,-404.54 443.73,-396.19 433.43,-398.65 437.21,-404.54"/>
</g>
<!-- ast.Store object at 0x7f64909edfc0 -->
<g id="node7" class="node">
<title>ast.Store object at 0x7f64909edfc0</title>
<path fill="#66cdaa" stroke="black" d="M445.5,-108C445.5,-108 415.5,-108 415.5,-108 409.5,-108 403.5,-102 403.5,-96 403.5,-96 403.5,-84 403.5,-84 403.5,-78 409.5,-72 415.5,-72 415.5,-72 445.5,-72 445.5,-72 451.5,-72 457.5,-78 457.5,-84 457.5,-84 457.5,-96 457.5,-96 457.5,-102 451.5,-108 445.5,-108"/>
<text text-anchor="middle" x="430.5" y="-86.3" font-family="Times,serif" font-size="14.00">Store</text>
</g>
<!-- ast.Name object at 0x7f6446d2be50&#45;&gt;ast.Store object at 0x7f64909edfc0 -->
<g id="edge6" class="edge">
<title>ast.Name object at 0x7f6446d2be50&#45;&gt;ast.Store object at 0x7f64909edfc0</title>
<path fill="none" stroke="black" d="M359.19,-359.97C354.57,-320.16 347.24,-218.71 380.5,-144 385.27,-133.29 393.13,-123.4 401.23,-115.12"/>
<polygon fill="black" stroke="black" points="403.85,-117.45 408.64,-108.01 399.01,-112.4 403.85,-117.45"/>
</g>
<!-- ast.Name object at 0x7f6446d2a890 -->
<g id="node9" class="node">
<title>ast.Name object at 0x7f6446d2a890</title>
<path fill="#66cdaa" stroke="black" d="M603.5,-324C603.5,-324 573.5,-324 573.5,-324 567.5,-324 561.5,-318 561.5,-312 561.5,-312 561.5,-300 561.5,-300 561.5,-294 567.5,-288 573.5,-288 573.5,-288 603.5,-288 603.5,-288 609.5,-288 615.5,-294 615.5,-300 615.5,-300 615.5,-312 615.5,-312 615.5,-318 609.5,-324 603.5,-324"/>
<text text-anchor="middle" x="588.5" y="-302.3" font-family="Times,serif" font-size="14.00">Name</text>
</g>
<!-- ast.Call object at 0x7f6446d2b610&#45;&gt;ast.Name object at 0x7f6446d2a890 -->
<g id="edge8" class="edge">
<title>ast.Call object at 0x7f6446d2b610&#45;&gt;ast.Name object at 0x7f6446d2a890</title>
<path fill="none" stroke="black" d="M497.57,-360.94C513.8,-351.32 534.63,-338.96 552.26,-328.5"/>
<polygon fill="black" stroke="black" points="554.33,-331.34 561.15,-323.23 550.76,-325.32 554.33,-331.34"/>
</g>
<!-- ast.ListComp object at 0x7f6446d2b670 -->
<g id="node11" class="node">
<title>ast.ListComp object at 0x7f6446d2b670</title>
<path fill="#66cdaa" stroke="black" d="M531,-324C531,-324 484,-324 484,-324 478,-324 472,-318 472,-312 472,-312 472,-300 472,-300 472,-294 478,-288 484,-288 484,-288 531,-288 531,-288 537,-288 543,-294 543,-300 543,-300 543,-312 543,-312 543,-318 537,-324 531,-324"/>
<text text-anchor="middle" x="507.5" y="-302.3" font-family="Times,serif" font-size="14.00">ListComp</text>
</g>
<!-- ast.Call object at 0x7f6446d2b610&#45;&gt;ast.ListComp object at 0x7f6446d2b670 -->
<g id="edge10" class="edge">
<title>ast.Call object at 0x7f6446d2b610&#45;&gt;ast.ListComp object at 0x7f6446d2b670</title>
<path fill="none" stroke="black" d="M479.65,-359.7C483.9,-351.64 489.06,-341.89 493.77,-332.98"/>
<polygon fill="black" stroke="black" points="496.88,-334.58 498.46,-324.1 490.69,-331.31 496.88,-334.58"/>
</g>
<!-- ast.keyword object at 0x7f6446d29b40 -->
<g id="node16" class="node">
<title>ast.keyword object at 0x7f6446d29b40</title>
<path fill="#66cdaa" stroke="black" d="M441.5,-324C441.5,-324 401.5,-324 401.5,-324 395.5,-324 389.5,-318 389.5,-312 389.5,-312 389.5,-300 389.5,-300 389.5,-294 395.5,-288 401.5,-288 401.5,-288 441.5,-288 441.5,-288 447.5,-288 453.5,-294 453.5,-300 453.5,-300 453.5,-312 453.5,-312 453.5,-318 447.5,-324 441.5,-324"/>
<text text-anchor="middle" x="421.5" y="-302.3" font-family="Times,serif" font-size="14.00">keyword</text>
</g>
<!-- ast.Call object at 0x7f6446d2b610&#45;&gt;ast.keyword object at 0x7f6446d29b40 -->
<g id="edge18" class="edge">
<title>ast.Call object at 0x7f6446d2b610&#45;&gt;ast.keyword object at 0x7f6446d29b40</title>
<path fill="none" stroke="black" d="M458.39,-359.7C452.63,-351.47 445.64,-341.48 439.29,-332.42"/>
<polygon fill="black" stroke="black" points="442.08,-330.29 433.47,-324.1 436.34,-334.3 442.08,-330.29"/>
</g>
<!-- ast.Load object at 0x7f64909edf60 -->
<g id="node10" class="node">
<title>ast.Load object at 0x7f64909edf60</title>
<path fill="#66cdaa" stroke="black" d="M301.5,-36C301.5,-36 271.5,-36 271.5,-36 265.5,-36 259.5,-30 259.5,-24 259.5,-24 259.5,-12 259.5,-12 259.5,-6 265.5,0 271.5,0 271.5,0 301.5,0 301.5,0 307.5,0 313.5,-6 313.5,-12 313.5,-12 313.5,-24 313.5,-24 313.5,-30 307.5,-36 301.5,-36"/>
<text text-anchor="middle" x="286.5" y="-14.3" font-family="Times,serif" font-size="14.00">Load</text>
</g>
<!-- ast.Name object at 0x7f6446d2a890&#45;&gt;ast.Load object at 0x7f64909edf60 -->
<g id="edge9" class="edge">
<title>ast.Name object at 0x7f6446d2a890&#45;&gt;ast.Load object at 0x7f64909edf60</title>
<path fill="none" stroke="black" d="M588.87,-287.94C588.79,-244.33 582.03,-128.23 515.5,-72 486.82,-47.76 381.02,-30.98 323.81,-23.46"/>
<polygon fill="black" stroke="black" points="324.08,-19.97 313.72,-22.17 323.19,-26.91 324.08,-19.97"/>
</g>
<!-- ast.Name object at 0x7f6446d2aa70 -->
<g id="node12" class="node">
<title>ast.Name object at 0x7f6446d2aa70</title>
<path fill="#66cdaa" stroke="black" d="M549.5,-252C549.5,-252 519.5,-252 519.5,-252 513.5,-252 507.5,-246 507.5,-240 507.5,-240 507.5,-228 507.5,-228 507.5,-222 513.5,-216 519.5,-216 519.5,-216 549.5,-216 549.5,-216 555.5,-216 561.5,-222 561.5,-228 561.5,-228 561.5,-240 561.5,-240 561.5,-246 555.5,-252 549.5,-252"/>
<text text-anchor="middle" x="534.5" y="-230.3" font-family="Times,serif" font-size="14.00">Name</text>
</g>
<!-- ast.ListComp object at 0x7f6446d2b670&#45;&gt;ast.Name object at 0x7f6446d2aa70 -->
<g id="edge11" class="edge">
<title>ast.ListComp object at 0x7f6446d2b670&#45;&gt;ast.Name object at 0x7f6446d2aa70</title>
<path fill="none" stroke="black" d="M514.17,-287.7C517.21,-279.81 520.88,-270.3 524.26,-261.55"/>
<polygon fill="black" stroke="black" points="527.57,-262.69 527.9,-252.1 521.04,-260.17 527.57,-262.69"/>
</g>
<!-- ast.comprehension object at 0x7f6446d29cf0 -->
<g id="node13" class="node">
<title>ast.comprehension object at 0x7f6446d29cf0</title>
<path fill="#66cdaa" stroke="black" d="M477.5,-252C477.5,-252 401.5,-252 401.5,-252 395.5,-252 389.5,-246 389.5,-240 389.5,-240 389.5,-228 389.5,-228 389.5,-222 395.5,-216 401.5,-216 401.5,-216 477.5,-216 477.5,-216 483.5,-216 489.5,-222 489.5,-228 489.5,-228 489.5,-240 489.5,-240 489.5,-246 483.5,-252 477.5,-252"/>
<text text-anchor="middle" x="439.5" y="-230.3" font-family="Times,serif" font-size="14.00">comprehension</text>
</g>
<!-- ast.ListComp object at 0x7f6446d2b670&#45;&gt;ast.comprehension object at 0x7f6446d29cf0 -->
<g id="edge13" class="edge">
<title>ast.ListComp object at 0x7f6446d2b670&#45;&gt;ast.comprehension object at 0x7f6446d29cf0</title>
<path fill="none" stroke="black" d="M490.69,-287.7C482.37,-279.14 472.19,-268.66 463.11,-259.3"/>
<polygon fill="black" stroke="black" points="465.59,-256.84 456.12,-252.1 460.57,-261.72 465.59,-256.84"/>
</g>
<!-- ast.Name object at 0x7f6446d2aa70&#45;&gt;ast.Load object at 0x7f64909edf60 -->
<g id="edge12" class="edge">
<title>ast.Name object at 0x7f6446d2aa70&#45;&gt;ast.Load object at 0x7f64909edf60</title>
<path fill="none" stroke="black" d="M535.41,-215.76C536.14,-182.06 532.4,-107.63 488.5,-72 440.91,-33.37 368.08,-22.65 324.1,-19.82"/>
<polygon fill="black" stroke="black" points="324.02,-16.31 313.84,-19.27 323.64,-23.3 324.02,-16.31"/>
</g>
<!-- ast.Name object at 0x7f6446d29810 -->
<g id="node14" class="node">
<title>ast.Name object at 0x7f6446d29810</title>
<path fill="#66cdaa" stroke="black" d="M431.5,-180C431.5,-180 401.5,-180 401.5,-180 395.5,-180 389.5,-174 389.5,-168 389.5,-168 389.5,-156 389.5,-156 389.5,-150 395.5,-144 401.5,-144 401.5,-144 431.5,-144 431.5,-144 437.5,-144 443.5,-150 443.5,-156 443.5,-156 443.5,-168 443.5,-168 443.5,-174 437.5,-180 431.5,-180"/>
<text text-anchor="middle" x="416.5" y="-158.3" font-family="Times,serif" font-size="14.00">Name</text>
</g>
<!-- ast.comprehension object at 0x7f6446d29cf0&#45;&gt;ast.Name object at 0x7f6446d29810 -->
<g id="edge14" class="edge">
<title>ast.comprehension object at 0x7f6446d29cf0&#45;&gt;ast.Name object at 0x7f6446d29810</title>
<path fill="none" stroke="black" d="M433.81,-215.7C431.25,-207.9 428.17,-198.51 425.32,-189.83"/>
<polygon fill="black" stroke="black" points="428.57,-188.51 422.12,-180.1 421.92,-190.7 428.57,-188.51"/>
</g>
<!-- ast.Name object at 0x7f6446d2b730 -->
<g id="node15" class="node">
<title>ast.Name object at 0x7f6446d2b730</title>
<path fill="#66cdaa" stroke="black" d="M503.5,-180C503.5,-180 473.5,-180 473.5,-180 467.5,-180 461.5,-174 461.5,-168 461.5,-168 461.5,-156 461.5,-156 461.5,-150 467.5,-144 473.5,-144 473.5,-144 503.5,-144 503.5,-144 509.5,-144 515.5,-150 515.5,-156 515.5,-156 515.5,-168 515.5,-168 515.5,-174 509.5,-180 503.5,-180"/>
<text text-anchor="middle" x="488.5" y="-158.3" font-family="Times,serif" font-size="14.00">Name</text>
</g>
<!-- ast.comprehension object at 0x7f6446d29cf0&#45;&gt;ast.Name object at 0x7f6446d2b730 -->
<g id="edge16" class="edge">
<title>ast.comprehension object at 0x7f6446d29cf0&#45;&gt;ast.Name object at 0x7f6446d2b730</title>
<path fill="none" stroke="black" d="M451.61,-215.7C457.37,-207.47 464.36,-197.48 470.71,-188.42"/>
<polygon fill="black" stroke="black" points="473.66,-190.3 476.53,-180.1 467.92,-186.29 473.66,-190.3"/>
</g>
<!-- ast.Name object at 0x7f6446d29810&#45;&gt;ast.Store object at 0x7f64909edfc0 -->
<g id="edge15" class="edge">
<title>ast.Name object at 0x7f6446d29810&#45;&gt;ast.Store object at 0x7f64909edfc0</title>
<path fill="none" stroke="black" d="M419.96,-143.7C421.5,-135.98 423.36,-126.71 425.08,-118.11"/>
<polygon fill="black" stroke="black" points="428.55,-118.6 427.08,-108.1 421.69,-117.22 428.55,-118.6"/>
</g>
<!-- ast.Name object at 0x7f6446d2b730&#45;&gt;ast.Load object at 0x7f64909edf60 -->
<g id="edge17" class="edge">
<title>ast.Name object at 0x7f6446d2b730&#45;&gt;ast.Load object at 0x7f64909edf60</title>
<path fill="none" stroke="black" d="M489.05,-143.88C488.73,-124 485.1,-91.43 466.5,-72 429.1,-32.92 364.49,-22.24 323.7,-19.56"/>
<polygon fill="black" stroke="black" points="323.8,-16.06 313.63,-19.03 323.43,-23.05 323.8,-16.06"/>
</g>
<!-- ast.Lambda object at 0x7f6446d2b6a0 -->
<g id="node17" class="node">
<title>ast.Lambda object at 0x7f6446d2b6a0</title>
<path fill="#66cdaa" stroke="black" d="M315.5,-252C315.5,-252 277.5,-252 277.5,-252 271.5,-252 265.5,-246 265.5,-240 265.5,-240 265.5,-228 265.5,-228 265.5,-222 271.5,-216 277.5,-216 277.5,-216 315.5,-216 315.5,-216 321.5,-216 327.5,-222 327.5,-228 327.5,-228 327.5,-240 327.5,-240 327.5,-246 321.5,-252 315.5,-252"/>
<text text-anchor="middle" x="296.5" y="-230.3" font-family="Times,serif" font-size="14.00">Lambda</text>
</g>
<!-- ast.keyword object at 0x7f6446d29b40&#45;&gt;ast.Lambda object at 0x7f6446d2b6a0 -->
<g id="edge19" class="edge">
<title>ast.keyword object at 0x7f6446d29b40&#45;&gt;ast.Lambda object at 0x7f6446d2b6a0</title>
<path fill="none" stroke="black" d="M390.92,-287.88C374.43,-278.64 353.88,-267.13 336.16,-257.21"/>
<polygon fill="black" stroke="black" points="337.63,-254.02 327.2,-252.19 334.21,-260.13 337.63,-254.02"/>
</g>
<!-- ast.arguments object at 0x7f6446d2be20 -->
<g id="node18" class="node">
<title>ast.arguments object at 0x7f6446d2be20</title>
<path fill="#66cdaa" stroke="black" d="M321.5,-180C321.5,-180 271.5,-180 271.5,-180 265.5,-180 259.5,-174 259.5,-168 259.5,-168 259.5,-156 259.5,-156 259.5,-150 265.5,-144 271.5,-144 271.5,-144 321.5,-144 321.5,-144 327.5,-144 333.5,-150 333.5,-156 333.5,-156 333.5,-168 333.5,-168 333.5,-174 327.5,-180 321.5,-180"/>
<text text-anchor="middle" x="296.5" y="-158.3" font-family="Times,serif" font-size="14.00">arguments</text>
</g>
<!-- ast.Lambda object at 0x7f6446d2b6a0&#45;&gt;ast.arguments object at 0x7f6446d2be20 -->
<g id="edge20" class="edge">
<title>ast.Lambda object at 0x7f6446d2b6a0&#45;&gt;ast.arguments object at 0x7f6446d2be20</title>
<path fill="none" stroke="black" d="M296.5,-215.7C296.5,-207.98 296.5,-198.71 296.5,-190.11"/>
<polygon fill="black" stroke="black" points="300,-190.1 296.5,-180.1 293,-190.1 300,-190.1"/>
</g>
<!-- ast.Call object at 0x7f6446d28250 -->
<g id="node20" class="node">
<title>ast.Call object at 0x7f6446d28250</title>
<path fill="#66cdaa" stroke="black" d="M229.5,-180C229.5,-180 199.5,-180 199.5,-180 193.5,-180 187.5,-174 187.5,-168 187.5,-168 187.5,-156 187.5,-156 187.5,-150 193.5,-144 199.5,-144 199.5,-144 229.5,-144 229.5,-144 235.5,-144 241.5,-150 241.5,-156 241.5,-156 241.5,-168 241.5,-168 241.5,-174 235.5,-180 229.5,-180"/>
<text text-anchor="middle" x="214.5" y="-158.3" font-family="Times,serif" font-size="14.00">Call</text>
</g>
<!-- ast.Lambda object at 0x7f6446d2b6a0&#45;&gt;ast.Call object at 0x7f6446d28250 -->
<g id="edge22" class="edge">
<title>ast.Lambda object at 0x7f6446d2b6a0&#45;&gt;ast.Call object at 0x7f6446d28250</title>
<path fill="none" stroke="black" d="M276.23,-215.7C266,-206.97 253.44,-196.24 242.32,-186.75"/>
<polygon fill="black" stroke="black" points="244.41,-183.94 234.54,-180.1 239.87,-189.26 244.41,-183.94"/>
</g>
<!-- ast.arg object at 0x7f6446d2aec0 -->
<g id="node19" class="node">
<title>ast.arg object at 0x7f6446d2aec0</title>
<path fill="#66cdaa" stroke="black" d="M373.5,-108C373.5,-108 343.5,-108 343.5,-108 337.5,-108 331.5,-102 331.5,-96 331.5,-96 331.5,-84 331.5,-84 331.5,-78 337.5,-72 343.5,-72 343.5,-72 373.5,-72 373.5,-72 379.5,-72 385.5,-78 385.5,-84 385.5,-84 385.5,-96 385.5,-96 385.5,-102 379.5,-108 373.5,-108"/>
<text text-anchor="middle" x="358.5" y="-86.3" font-family="Times,serif" font-size="14.00">arg</text>
</g>
<!-- ast.arguments object at 0x7f6446d2be20&#45;&gt;ast.arg object at 0x7f6446d2aec0 -->
<g id="edge21" class="edge">
<title>ast.arguments object at 0x7f6446d2be20&#45;&gt;ast.arg object at 0x7f6446d2aec0</title>
<path fill="none" stroke="black" d="M311.83,-143.7C319.26,-135.3 328.32,-125.07 336.48,-115.86"/>
<polygon fill="black" stroke="black" points="339.34,-117.91 343.35,-108.1 334.1,-113.27 339.34,-117.91"/>
</g>
<!-- ast.Name object at 0x7f6446d2bee0 -->
<g id="node21" class="node">
<title>ast.Name object at 0x7f6446d2bee0</title>
<path fill="#66cdaa" stroke="black" d="M229.5,-108C229.5,-108 199.5,-108 199.5,-108 193.5,-108 187.5,-102 187.5,-96 187.5,-96 187.5,-84 187.5,-84 187.5,-78 193.5,-72 199.5,-72 199.5,-72 229.5,-72 229.5,-72 235.5,-72 241.5,-78 241.5,-84 241.5,-84 241.5,-96 241.5,-96 241.5,-102 235.5,-108 229.5,-108"/>
<text text-anchor="middle" x="214.5" y="-86.3" font-family="Times,serif" font-size="14.00">Name</text>
</g>
<!-- ast.Call object at 0x7f6446d28250&#45;&gt;ast.Name object at 0x7f6446d2bee0 -->
<g id="edge23" class="edge">
<title>ast.Call object at 0x7f6446d28250&#45;&gt;ast.Name object at 0x7f6446d2bee0</title>
<path fill="none" stroke="black" d="M214.5,-143.7C214.5,-135.98 214.5,-126.71 214.5,-118.11"/>
<polygon fill="black" stroke="black" points="218,-118.1 214.5,-108.1 211,-118.1 218,-118.1"/>
</g>
<!-- ast.Name object at 0x7f6446d2b700 -->
<g id="node22" class="node">
<title>ast.Name object at 0x7f6446d2b700</title>
<path fill="#66cdaa" stroke="black" d="M301.5,-108C301.5,-108 271.5,-108 271.5,-108 265.5,-108 259.5,-102 259.5,-96 259.5,-96 259.5,-84 259.5,-84 259.5,-78 265.5,-72 271.5,-72 271.5,-72 301.5,-72 301.5,-72 307.5,-72 313.5,-78 313.5,-84 313.5,-84 313.5,-96 313.5,-96 313.5,-102 307.5,-108 301.5,-108"/>
<text text-anchor="middle" x="286.5" y="-86.3" font-family="Times,serif" font-size="14.00">Name</text>
</g>
<!-- ast.Call object at 0x7f6446d28250&#45;&gt;ast.Name object at 0x7f6446d2b700 -->
<g id="edge25" class="edge">
<title>ast.Call object at 0x7f6446d28250&#45;&gt;ast.Name object at 0x7f6446d2b700</title>
<path fill="none" stroke="black" d="M232.3,-143.7C241.1,-135.14 251.88,-124.66 261.5,-115.3"/>
<polygon fill="black" stroke="black" points="264.18,-117.58 268.91,-108.1 259.3,-112.57 264.18,-117.58"/>
</g>
<!-- ast.Name object at 0x7f6446d2bee0&#45;&gt;ast.Load object at 0x7f64909edf60 -->
<g id="edge24" class="edge">
<title>ast.Name object at 0x7f6446d2bee0&#45;&gt;ast.Load object at 0x7f64909edf60</title>
<path fill="none" stroke="black" d="M232.3,-71.7C241.1,-63.14 251.88,-52.66 261.5,-43.3"/>
<polygon fill="black" stroke="black" points="264.18,-45.58 268.91,-36.1 259.3,-40.57 264.18,-45.58"/>
</g>
<!-- ast.Name object at 0x7f6446d2b700&#45;&gt;ast.Load object at 0x7f64909edf60 -->
<g id="edge26" class="edge">
<title>ast.Name object at 0x7f6446d2b700&#45;&gt;ast.Load object at 0x7f64909edf60</title>
<path fill="none" stroke="black" d="M286.5,-71.7C286.5,-63.98 286.5,-54.71 286.5,-46.11"/>
<polygon fill="black" stroke="black" points="290,-46.1 286.5,-36.1 283,-46.1 290,-46.1"/>
</g>
<!-- ast.Subscript object at 0x7f6446d2bfa0 -->
<g id="node24" class="node">
<title>ast.Subscript object at 0x7f6446d2bfa0</title>
<path fill="#66cdaa" stroke="black" d="M142.5,-180C142.5,-180 98.5,-180 98.5,-180 92.5,-180 86.5,-174 86.5,-168 86.5,-168 86.5,-156 86.5,-156 86.5,-150 92.5,-144 98.5,-144 98.5,-144 142.5,-144 142.5,-144 148.5,-144 154.5,-150 154.5,-156 154.5,-156 154.5,-168 154.5,-168 154.5,-174 148.5,-180 142.5,-180"/>
<text text-anchor="middle" x="120.5" y="-158.3" font-family="Times,serif" font-size="14.00">Subscript</text>
</g>
<!-- ast.Return object at 0x7f6446d28f10&#45;&gt;ast.Subscript object at 0x7f6446d2bfa0 -->
<g id="edge28" class="edge">
<title>ast.Return object at 0x7f6446d28f10&#45;&gt;ast.Subscript object at 0x7f6446d2bfa0</title>
<path fill="none" stroke="black" d="M189.15,-431.97C176.96,-384.19 142.35,-248.62 127.46,-190.27"/>
<polygon fill="black" stroke="black" points="130.78,-189.13 124.92,-180.31 124,-190.86 130.78,-189.13"/>
</g>
<!-- ast.Subscript object at 0x7f6446d2bfa0&#45;&gt;ast.Load object at 0x7f64909edf60 -->
<g id="edge33" class="edge">
<title>ast.Subscript object at 0x7f6446d2bfa0&#45;&gt;ast.Load object at 0x7f64909edf60</title>
<path fill="none" stroke="black" d="M128.13,-143.96C137.57,-124.45 155.3,-92.54 178.5,-72 199.2,-53.67 227.38,-40.12 249.76,-31.31"/>
<polygon fill="black" stroke="black" points="251.16,-34.53 259.28,-27.71 248.69,-27.98 251.16,-34.53"/>
</g>
<!-- ast.Name object at 0x7f6446d2a020 -->
<g id="node25" class="node">
<title>ast.Name object at 0x7f6446d2a020</title>
<path fill="#66cdaa" stroke="black" d="M119.5,-108C119.5,-108 89.5,-108 89.5,-108 83.5,-108 77.5,-102 77.5,-96 77.5,-96 77.5,-84 77.5,-84 77.5,-78 83.5,-72 89.5,-72 89.5,-72 119.5,-72 119.5,-72 125.5,-72 131.5,-78 131.5,-84 131.5,-84 131.5,-96 131.5,-96 131.5,-102 125.5,-108 119.5,-108"/>
<text text-anchor="middle" x="104.5" y="-86.3" font-family="Times,serif" font-size="14.00">Name</text>
</g>
<!-- ast.Subscript object at 0x7f6446d2bfa0&#45;&gt;ast.Name object at 0x7f6446d2a020 -->
<g id="edge29" class="edge">
<title>ast.Subscript object at 0x7f6446d2bfa0&#45;&gt;ast.Name object at 0x7f6446d2a020</title>
<path fill="none" stroke="black" d="M116.54,-143.7C114.78,-135.98 112.66,-126.71 110.7,-118.11"/>
<polygon fill="black" stroke="black" points="114.05,-117.07 108.41,-108.1 107.23,-118.63 114.05,-117.07"/>
</g>
<!-- ast.Slice object at 0x7f6446d2b5e0 -->
<g id="node26" class="node">
<title>ast.Slice object at 0x7f6446d2b5e0</title>
<path fill="#66cdaa" stroke="black" d="M47.5,-108C47.5,-108 17.5,-108 17.5,-108 11.5,-108 5.5,-102 5.5,-96 5.5,-96 5.5,-84 5.5,-84 5.5,-78 11.5,-72 17.5,-72 17.5,-72 47.5,-72 47.5,-72 53.5,-72 59.5,-78 59.5,-84 59.5,-84 59.5,-96 59.5,-96 59.5,-102 53.5,-108 47.5,-108"/>
<text text-anchor="middle" x="32.5" y="-86.3" font-family="Times,serif" font-size="14.00">Slice</text>
</g>
<!-- ast.Subscript object at 0x7f6446d2bfa0&#45;&gt;ast.Slice object at 0x7f6446d2b5e0 -->
<g id="edge31" class="edge">
<title>ast.Subscript object at 0x7f6446d2bfa0&#45;&gt;ast.Slice object at 0x7f6446d2b5e0</title>
<path fill="none" stroke="black" d="M98.75,-143.7C87.66,-134.88 74.03,-124.03 62.01,-114.47"/>
<polygon fill="black" stroke="black" points="64.01,-111.59 54,-108.1 59.65,-117.07 64.01,-111.59"/>
</g>
<!-- ast.Name object at 0x7f6446d2a020&#45;&gt;ast.Load object at 0x7f64909edf60 -->
<g id="edge30" class="edge">
<title>ast.Name object at 0x7f6446d2a020&#45;&gt;ast.Load object at 0x7f64909edf60</title>
<path fill="none" stroke="black" d="M131.8,-77.53C136.36,-75.66 141.06,-73.76 145.5,-72 180.75,-58.07 221.27,-42.93 249.8,-32.41"/>
<polygon fill="black" stroke="black" points="251.19,-35.63 259.37,-28.89 248.77,-29.06 251.19,-35.63"/>
</g>
<!-- ast.Constant object at 0x7f6446d2a500 -->
<g id="node27" class="node">
<title>ast.Constant object at 0x7f6446d2a500</title>
<path fill="#66cdaa" stroke="black" d="M53,-36C53,-36 12,-36 12,-36 6,-36 0,-30 0,-24 0,-24 0,-12 0,-12 0,-6 6,0 12,0 12,0 53,0 53,0 59,0 65,-6 65,-12 65,-12 65,-24 65,-24 65,-30 59,-36 53,-36"/>
<text text-anchor="middle" x="32.5" y="-14.3" font-family="Times,serif" font-size="14.00">Constant</text>
</g>
<!-- ast.Slice object at 0x7f6446d2b5e0&#45;&gt;ast.Constant object at 0x7f6446d2a500 -->
<g id="edge32" class="edge">
<title>ast.Slice object at 0x7f6446d2b5e0&#45;&gt;ast.Constant object at 0x7f6446d2a500</title>
<path fill="none" stroke="black" d="M32.5,-71.7C32.5,-63.98 32.5,-54.71 32.5,-46.11"/>
<polygon fill="black" stroke="black" points="36,-46.1 32.5,-36.1 29,-46.1 36,-46.1"/>
</g>
</g>
</svg>
