<?xml version="1.0" encoding="UTF-8" standalone="no"?>
<!DOCTYPE svg PUBLIC "-//W3C//DTD SVG 1.1//EN"
 "http://www.w3.org/Graphics/SVG/1.1/DTD/svg11.dtd">
<!-- Generated by graphviz version 2.43.0 (0)
 -->
<!-- Title: %3 Pages: 1 -->
<svg width="740pt" height="476pt"
 viewBox="0.00 0.00 739.50 476.00" xmlns="http://www.w3.org/2000/svg" xmlns:xlink="http://www.w3.org/1999/xlink">
<g id="graph0" class="graph" transform="scale(1 1) rotate(0) translate(4 472)">
<title>%3</title>
<polygon fill="white" stroke="transparent" points="-4,4 -4,-472 735.5,-472 735.5,4 -4,4"/>
<!-- ast.Module object at 0x7f59a65677c0 -->
<g id="node1" class="node">
<title>ast.Module object at 0x7f59a65677c0</title>
<path fill="#66cdaa" stroke="black" d="M299,-468C299,-468 264,-468 264,-468 258,-468 252,-462 252,-456 252,-456 252,-444 252,-444 252,-438 258,-432 264,-432 264,-432 299,-432 299,-432 305,-432 311,-438 311,-444 311,-444 311,-456 311,-456 311,-462 305,-468 299,-468"/>
<text text-anchor="middle" x="281.5" y="-446.3" font-family="Times,serif" font-size="14.00">Module</text>
</g>
<!-- ast.FunctionDef object at 0x7f59a6567910 -->
<g id="node2" class="node">
<title>ast.FunctionDef object at 0x7f59a6567910</title>
<path fill="#66cdaa" stroke="black" d="M312,-396C312,-396 251,-396 251,-396 245,-396 239,-390 239,-384 239,-384 239,-372 239,-372 239,-366 245,-360 251,-360 251,-360 312,-360 312,-360 318,-360 324,-366 324,-372 324,-372 324,-384 324,-384 324,-390 318,-396 312,-396"/>
<text text-anchor="middle" x="281.5" y="-374.3" font-family="Times,serif" font-size="14.00">FunctionDef</text>
</g>
<!-- ast.Module object at 0x7f59a65677c0&#45;&gt;ast.FunctionDef object at 0x7f59a6567910 -->
<g id="edge1" class="edge">
<title>ast.Module object at 0x7f59a65677c0&#45;&gt;ast.FunctionDef object at 0x7f59a6567910</title>
<path fill="none" stroke="black" d="M281.5,-431.7C281.5,-423.98 281.5,-414.71 281.5,-406.11"/>
<polygon fill="black" stroke="black" points="285,-406.1 281.5,-396.1 278,-406.1 285,-406.1"/>
</g>
<!-- ast.arguments object at 0x7f59a6564940 -->
<g id="node3" class="node">
<title>ast.arguments object at 0x7f59a6564940</title>
<path fill="#66cdaa" stroke="black" d="M219.5,-324C219.5,-324 169.5,-324 169.5,-324 163.5,-324 157.5,-318 157.5,-312 157.5,-312 157.5,-300 157.5,-300 157.5,-294 163.5,-288 169.5,-288 169.5,-288 219.5,-288 219.5,-288 225.5,-288 231.5,-294 231.5,-300 231.5,-300 231.5,-312 231.5,-312 231.5,-318 225.5,-324 219.5,-324"/>
<text text-anchor="middle" x="194.5" y="-302.3" font-family="Times,serif" font-size="14.00">arguments</text>
</g>
<!-- ast.FunctionDef object at 0x7f59a6567910&#45;&gt;ast.arguments object at 0x7f59a6564940 -->
<g id="edge2" class="edge">
<title>ast.FunctionDef object at 0x7f59a6567910&#45;&gt;ast.arguments object at 0x7f59a6564940</title>
<path fill="none" stroke="black" d="M259.99,-359.7C249.04,-350.88 235.55,-340.03 223.68,-330.47"/>
<polygon fill="black" stroke="black" points="225.74,-327.65 215.76,-324.1 221.36,-333.1 225.74,-327.65"/>
</g>
<!-- ast.Assign object at 0x7f59a6567850 -->
<g id="node5" class="node">
<title>ast.Assign object at 0x7f59a6567850</title>
<path fill="#66cdaa" stroke="black" d="M269.5,-252C269.5,-252 239.5,-252 239.5,-252 233.5,-252 227.5,-246 227.5,-240 227.5,-240 227.5,-228 227.5,-228 227.5,-222 233.5,-216 239.5,-216 239.5,-216 269.5,-216 269.5,-216 275.5,-216 281.5,-222 281.5,-228 281.5,-228 281.5,-240 281.5,-240 281.5,-246 275.5,-252 269.5,-252"/>
<text text-anchor="middle" x="254.5" y="-230.3" font-family="Times,serif" font-size="14.00">Assign</text>
</g>
<!-- ast.FunctionDef object at 0x7f59a6567910&#45;&gt;ast.Assign object at 0x7f59a6567850 -->
<g id="edge4" class="edge">
<title>ast.FunctionDef object at 0x7f59a6567910&#45;&gt;ast.Assign object at 0x7f59a6567850</title>
<path fill="none" stroke="black" d="M278.24,-359.87C273.64,-335.67 265.19,-291.21 259.71,-262.39"/>
<polygon fill="black" stroke="black" points="263.07,-261.36 257.77,-252.19 256.2,-262.67 263.07,-261.36"/>
</g>
<!-- ast.Assign object at 0x7f59a6567820 -->
<g id="node13" class="node">
<title>ast.Assign object at 0x7f59a6567820</title>
<path fill="#66cdaa" stroke="black" d="M341.5,-252C341.5,-252 311.5,-252 311.5,-252 305.5,-252 299.5,-246 299.5,-240 299.5,-240 299.5,-228 299.5,-228 299.5,-222 305.5,-216 311.5,-216 311.5,-216 341.5,-216 341.5,-216 347.5,-216 353.5,-222 353.5,-228 353.5,-228 353.5,-240 353.5,-240 353.5,-246 347.5,-252 341.5,-252"/>
<text text-anchor="middle" x="326.5" y="-230.3" font-family="Times,serif" font-size="14.00">Assign</text>
</g>
<!-- ast.FunctionDef object at 0x7f59a6567910&#45;&gt;ast.Assign object at 0x7f59a6567820 -->
<g id="edge13" class="edge">
<title>ast.FunctionDef object at 0x7f59a6567910&#45;&gt;ast.Assign object at 0x7f59a6567820</title>
<path fill="none" stroke="black" d="M286.93,-359.87C294.63,-335.56 308.81,-290.82 317.94,-262.01"/>
<polygon fill="black" stroke="black" points="321.37,-262.78 321.05,-252.19 314.7,-260.66 321.37,-262.78"/>
</g>
<!-- ast.Return object at 0x7f59a6567670 -->
<g id="node22" class="node">
<title>ast.Return object at 0x7f59a6567670</title>
<path fill="#66cdaa" stroke="black" d="M407.5,-324C407.5,-324 377.5,-324 377.5,-324 371.5,-324 365.5,-318 365.5,-312 365.5,-312 365.5,-300 365.5,-300 365.5,-294 371.5,-288 377.5,-288 377.5,-288 407.5,-288 407.5,-288 413.5,-288 419.5,-294 419.5,-300 419.5,-300 419.5,-312 419.5,-312 419.5,-318 413.5,-324 407.5,-324"/>
<text text-anchor="middle" x="392.5" y="-302.3" font-family="Times,serif" font-size="14.00">Return</text>
</g>
<!-- ast.FunctionDef object at 0x7f59a6567910&#45;&gt;ast.Return object at 0x7f59a6567670 -->
<g id="edge23" class="edge">
<title>ast.FunctionDef object at 0x7f59a6567910&#45;&gt;ast.Return object at 0x7f59a6567670</title>
<path fill="none" stroke="black" d="M308.65,-359.88C323.03,-350.81 340.88,-339.55 356.41,-329.76"/>
<polygon fill="black" stroke="black" points="358.65,-332.48 365.24,-324.19 354.92,-326.56 358.65,-332.48"/>
</g>
<!-- ast.arg object at 0x7f59a65679d0 -->
<g id="node4" class="node">
<title>ast.arg object at 0x7f59a65679d0</title>
<path fill="#66cdaa" stroke="black" d="M197.5,-252C197.5,-252 167.5,-252 167.5,-252 161.5,-252 155.5,-246 155.5,-240 155.5,-240 155.5,-228 155.5,-228 155.5,-222 161.5,-216 167.5,-216 167.5,-216 197.5,-216 197.5,-216 203.5,-216 209.5,-222 209.5,-228 209.5,-228 209.5,-240 209.5,-240 209.5,-246 203.5,-252 197.5,-252"/>
<text text-anchor="middle" x="182.5" y="-230.3" font-family="Times,serif" font-size="14.00">arg</text>
</g>
<!-- ast.arguments object at 0x7f59a6564940&#45;&gt;ast.arg object at 0x7f59a65679d0 -->
<g id="edge3" class="edge">
<title>ast.arguments object at 0x7f59a6564940&#45;&gt;ast.arg object at 0x7f59a65679d0</title>
<path fill="none" stroke="black" d="M191.53,-287.7C190.21,-279.98 188.62,-270.71 187.15,-262.11"/>
<polygon fill="black" stroke="black" points="190.57,-261.37 185.43,-252.1 183.67,-262.55 190.57,-261.37"/>
</g>
<!-- ast.Name object at 0x7f59a65678e0 -->
<g id="node6" class="node">
<title>ast.Name object at 0x7f59a65678e0</title>
<path fill="#66cdaa" stroke="black" d="M269.5,-180C269.5,-180 239.5,-180 239.5,-180 233.5,-180 227.5,-174 227.5,-168 227.5,-168 227.5,-156 227.5,-156 227.5,-150 233.5,-144 239.5,-144 239.5,-144 269.5,-144 269.5,-144 275.5,-144 281.5,-150 281.5,-156 281.5,-156 281.5,-168 281.5,-168 281.5,-174 275.5,-180 269.5,-180"/>
<text text-anchor="middle" x="254.5" y="-158.3" font-family="Times,serif" font-size="14.00">Name</text>
</g>
<!-- ast.Assign object at 0x7f59a6567850&#45;&gt;ast.Name object at 0x7f59a65678e0 -->
<g id="edge5" class="edge">
<title>ast.Assign object at 0x7f59a6567850&#45;&gt;ast.Name object at 0x7f59a65678e0</title>
<path fill="none" stroke="black" d="M254.5,-215.7C254.5,-207.98 254.5,-198.71 254.5,-190.11"/>
<polygon fill="black" stroke="black" points="258,-190.1 254.5,-180.1 251,-190.1 258,-190.1"/>
</g>
<!-- ast.Call object at 0x7f59a65679a0 -->
<g id="node8" class="node">
<title>ast.Call object at 0x7f59a65679a0</title>
<path fill="#66cdaa" stroke="black" d="M161.5,-180C161.5,-180 131.5,-180 131.5,-180 125.5,-180 119.5,-174 119.5,-168 119.5,-168 119.5,-156 119.5,-156 119.5,-150 125.5,-144 131.5,-144 131.5,-144 161.5,-144 161.5,-144 167.5,-144 173.5,-150 173.5,-156 173.5,-156 173.5,-168 173.5,-168 173.5,-174 167.5,-180 161.5,-180"/>
<text text-anchor="middle" x="146.5" y="-158.3" font-family="Times,serif" font-size="14.00">Call</text>
</g>
<!-- ast.Assign object at 0x7f59a6567850&#45;&gt;ast.Call object at 0x7f59a65679a0 -->
<g id="edge7" class="edge">
<title>ast.Assign object at 0x7f59a6567850&#45;&gt;ast.Call object at 0x7f59a65679a0</title>
<path fill="none" stroke="black" d="M228.08,-215.88C214.09,-206.81 196.72,-195.55 181.61,-185.76"/>
<polygon fill="black" stroke="black" points="183.32,-182.69 173.02,-180.19 179.51,-188.57 183.32,-182.69"/>
</g>
<!-- ast.Store object at 0x7f5a18fee020 -->
<g id="node7" class="node">
<title>ast.Store object at 0x7f5a18fee020</title>
<path fill="#66cdaa" stroke="black" d="M269.5,-108C269.5,-108 239.5,-108 239.5,-108 233.5,-108 227.5,-102 227.5,-96 227.5,-96 227.5,-84 227.5,-84 227.5,-78 233.5,-72 239.5,-72 239.5,-72 269.5,-72 269.5,-72 275.5,-72 281.5,-78 281.5,-84 281.5,-84 281.5,-96 281.5,-96 281.5,-102 275.5,-108 269.5,-108"/>
<text text-anchor="middle" x="254.5" y="-86.3" font-family="Times,serif" font-size="14.00">Store</text>
</g>
<!-- ast.Name object at 0x7f59a65678e0&#45;&gt;ast.Store object at 0x7f5a18fee020 -->
<g id="edge6" class="edge">
<title>ast.Name object at 0x7f59a65678e0&#45;&gt;ast.Store object at 0x7f5a18fee020</title>
<path fill="none" stroke="black" d="M254.5,-143.7C254.5,-135.98 254.5,-126.71 254.5,-118.11"/>
<polygon fill="black" stroke="black" points="258,-118.1 254.5,-108.1 251,-118.1 258,-118.1"/>
</g>
<!-- ast.Name object at 0x7f59a6564880 -->
<g id="node9" class="node">
<title>ast.Name object at 0x7f59a6564880</title>
<path fill="#66cdaa" stroke="black" d="M125.5,-108C125.5,-108 95.5,-108 95.5,-108 89.5,-108 83.5,-102 83.5,-96 83.5,-96 83.5,-84 83.5,-84 83.5,-78 89.5,-72 95.5,-72 95.5,-72 125.5,-72 125.5,-72 131.5,-72 137.5,-78 137.5,-84 137.5,-84 137.5,-96 137.5,-96 137.5,-102 131.5,-108 125.5,-108"/>
<text text-anchor="middle" x="110.5" y="-86.3" font-family="Times,serif" font-size="14.00">Name</text>
</g>
<!-- ast.Call object at 0x7f59a65679a0&#45;&gt;ast.Name object at 0x7f59a6564880 -->
<g id="edge8" class="edge">
<title>ast.Call object at 0x7f59a65679a0&#45;&gt;ast.Name object at 0x7f59a6564880</title>
<path fill="none" stroke="black" d="M137.6,-143.7C133.5,-135.73 128.55,-126.1 124.01,-117.26"/>
<polygon fill="black" stroke="black" points="126.98,-115.4 119.3,-108.1 120.76,-118.6 126.98,-115.4"/>
</g>
<!-- ast.Name object at 0x7f59a6567880 -->
<g id="node11" class="node">
<title>ast.Name object at 0x7f59a6567880</title>
<path fill="#66cdaa" stroke="black" d="M197.5,-108C197.5,-108 167.5,-108 167.5,-108 161.5,-108 155.5,-102 155.5,-96 155.5,-96 155.5,-84 155.5,-84 155.5,-78 161.5,-72 167.5,-72 167.5,-72 197.5,-72 197.5,-72 203.5,-72 209.5,-78 209.5,-84 209.5,-84 209.5,-96 209.5,-96 209.5,-102 203.5,-108 197.5,-108"/>
<text text-anchor="middle" x="182.5" y="-86.3" font-family="Times,serif" font-size="14.00">Name</text>
</g>
<!-- ast.Call object at 0x7f59a65679a0&#45;&gt;ast.Name object at 0x7f59a6567880 -->
<g id="edge10" class="edge">
<title>ast.Call object at 0x7f59a65679a0&#45;&gt;ast.Name object at 0x7f59a6567880</title>
<path fill="none" stroke="black" d="M155.4,-143.7C159.5,-135.73 164.45,-126.1 168.99,-117.26"/>
<polygon fill="black" stroke="black" points="172.24,-118.6 173.7,-108.1 166.02,-115.4 172.24,-118.6"/>
</g>
<!-- ast.Constant object at 0x7f59a6564580 -->
<g id="node12" class="node">
<title>ast.Constant object at 0x7f59a6564580</title>
<path fill="#66cdaa" stroke="black" d="M53,-108C53,-108 12,-108 12,-108 6,-108 0,-102 0,-96 0,-96 0,-84 0,-84 0,-78 6,-72 12,-72 12,-72 53,-72 53,-72 59,-72 65,-78 65,-84 65,-84 65,-96 65,-96 65,-102 59,-108 53,-108"/>
<text text-anchor="middle" x="32.5" y="-86.3" font-family="Times,serif" font-size="14.00">Constant</text>
</g>
<!-- ast.Call object at 0x7f59a65679a0&#45;&gt;ast.Constant object at 0x7f59a6564580 -->
<g id="edge12" class="edge">
<title>ast.Call object at 0x7f59a65679a0&#45;&gt;ast.Constant object at 0x7f59a6564580</title>
<path fill="none" stroke="black" d="M119.48,-144.41C104.48,-135.2 85.61,-123.61 69.28,-113.59"/>
<polygon fill="black" stroke="black" points="70.87,-110.45 60.51,-108.2 67.2,-116.42 70.87,-110.45"/>
</g>
<!-- ast.Load object at 0x7f5a18fedfc0 -->
<g id="node10" class="node">
<title>ast.Load object at 0x7f5a18fedfc0</title>
<path fill="#66cdaa" stroke="black" d="M269.5,-36C269.5,-36 239.5,-36 239.5,-36 233.5,-36 227.5,-30 227.5,-24 227.5,-24 227.5,-12 227.5,-12 227.5,-6 233.5,0 239.5,0 239.5,0 269.5,0 269.5,0 275.5,0 281.5,-6 281.5,-12 281.5,-12 281.5,-24 281.5,-24 281.5,-30 275.5,-36 269.5,-36"/>
<text text-anchor="middle" x="254.5" y="-14.3" font-family="Times,serif" font-size="14.00">Load</text>
</g>
<!-- ast.Name object at 0x7f59a6564880&#45;&gt;ast.Load object at 0x7f5a18fedfc0 -->
<g id="edge9" class="edge">
<title>ast.Name object at 0x7f59a6564880&#45;&gt;ast.Load object at 0x7f5a18fedfc0</title>
<path fill="none" stroke="black" d="M137.59,-75.83C160.27,-64.81 192.86,-48.97 217.87,-36.81"/>
<polygon fill="black" stroke="black" points="219.58,-39.87 227.05,-32.35 216.52,-33.57 219.58,-39.87"/>
</g>
<!-- ast.Name object at 0x7f59a6567880&#45;&gt;ast.Load object at 0x7f5a18fedfc0 -->
<g id="edge11" class="edge">
<title>ast.Name object at 0x7f59a6567880&#45;&gt;ast.Load object at 0x7f5a18fedfc0</title>
<path fill="none" stroke="black" d="M200.3,-71.7C209.1,-63.14 219.88,-52.66 229.5,-43.3"/>
<polygon fill="black" stroke="black" points="232.18,-45.58 236.91,-36.1 227.3,-40.57 232.18,-45.58"/>
</g>
<!-- ast.Name object at 0x7f59a6567490 -->
<g id="node14" class="node">
<title>ast.Name object at 0x7f59a6567490</title>
<path fill="#66cdaa" stroke="black" d="M341.5,-180C341.5,-180 311.5,-180 311.5,-180 305.5,-180 299.5,-174 299.5,-168 299.5,-168 299.5,-156 299.5,-156 299.5,-150 305.5,-144 311.5,-144 311.5,-144 341.5,-144 341.5,-144 347.5,-144 353.5,-150 353.5,-156 353.5,-156 353.5,-168 353.5,-168 353.5,-174 347.5,-180 341.5,-180"/>
<text text-anchor="middle" x="326.5" y="-158.3" font-family="Times,serif" font-size="14.00">Name</text>
</g>
<!-- ast.Assign object at 0x7f59a6567820&#45;&gt;ast.Name object at 0x7f59a6567490 -->
<g id="edge14" class="edge">
<title>ast.Assign object at 0x7f59a6567820&#45;&gt;ast.Name object at 0x7f59a6567490</title>
<path fill="none" stroke="black" d="M326.5,-215.7C326.5,-207.98 326.5,-198.71 326.5,-190.11"/>
<polygon fill="black" stroke="black" points="330,-190.1 326.5,-180.1 323,-190.1 330,-190.1"/>
</g>
<!-- ast.BinOp object at 0x7f59a6567460 -->
<g id="node15" class="node">
<title>ast.BinOp object at 0x7f59a6567460</title>
<path fill="#66cdaa" stroke="black" d="M485.5,-180C485.5,-180 455.5,-180 455.5,-180 449.5,-180 443.5,-174 443.5,-168 443.5,-168 443.5,-156 443.5,-156 443.5,-150 449.5,-144 455.5,-144 455.5,-144 485.5,-144 485.5,-144 491.5,-144 497.5,-150 497.5,-156 497.5,-156 497.5,-168 497.5,-168 497.5,-174 491.5,-180 485.5,-180"/>
<text text-anchor="middle" x="470.5" y="-158.3" font-family="Times,serif" font-size="14.00">BinOp</text>
</g>
<!-- ast.Assign object at 0x7f59a6567820&#45;&gt;ast.BinOp object at 0x7f59a6567460 -->
<g id="edge16" class="edge">
<title>ast.Assign object at 0x7f59a6567820&#45;&gt;ast.BinOp object at 0x7f59a6567460</title>
<path fill="none" stroke="black" d="M353.59,-219.83C376.27,-208.81 408.86,-192.97 433.87,-180.81"/>
<polygon fill="black" stroke="black" points="435.58,-183.87 443.05,-176.35 432.52,-177.57 435.58,-183.87"/>
</g>
<!-- ast.Name object at 0x7f59a6567490&#45;&gt;ast.Store object at 0x7f5a18fee020 -->
<g id="edge15" class="edge">
<title>ast.Name object at 0x7f59a6567490&#45;&gt;ast.Store object at 0x7f5a18fee020</title>
<path fill="none" stroke="black" d="M308.7,-143.7C299.9,-135.14 289.12,-124.66 279.5,-115.3"/>
<polygon fill="black" stroke="black" points="281.7,-112.57 272.09,-108.1 276.82,-117.58 281.7,-112.57"/>
</g>
<!-- ast.BinOp object at 0x7f59a6564910 -->
<g id="node16" class="node">
<title>ast.BinOp object at 0x7f59a6564910</title>
<path fill="#66cdaa" stroke="black" d="M641.5,-108C641.5,-108 611.5,-108 611.5,-108 605.5,-108 599.5,-102 599.5,-96 599.5,-96 599.5,-84 599.5,-84 599.5,-78 605.5,-72 611.5,-72 611.5,-72 641.5,-72 641.5,-72 647.5,-72 653.5,-78 653.5,-84 653.5,-84 653.5,-96 653.5,-96 653.5,-102 647.5,-108 641.5,-108"/>
<text text-anchor="middle" x="626.5" y="-86.3" font-family="Times,serif" font-size="14.00">BinOp</text>
</g>
<!-- ast.BinOp object at 0x7f59a6567460&#45;&gt;ast.BinOp object at 0x7f59a6564910 -->
<g id="edge17" class="edge">
<title>ast.BinOp object at 0x7f59a6567460&#45;&gt;ast.BinOp object at 0x7f59a6564910</title>
<path fill="none" stroke="black" d="M497.55,-148.49C500.89,-146.97 504.27,-145.44 507.5,-144 541.49,-128.82 552.29,-125.11 589.84,-108.23"/>
<polygon fill="black" stroke="black" points="591.74,-111.21 599.42,-103.9 588.86,-104.83 591.74,-111.21"/>
</g>
<!-- ast.Mod object at 0x7f5a18fee3e0 -->
<g id="node20" class="node">
<title>ast.Mod object at 0x7f5a18fee3e0</title>
<path fill="#66cdaa" stroke="black" d="M485.5,-108C485.5,-108 455.5,-108 455.5,-108 449.5,-108 443.5,-102 443.5,-96 443.5,-96 443.5,-84 443.5,-84 443.5,-78 449.5,-72 455.5,-72 455.5,-72 485.5,-72 485.5,-72 491.5,-72 497.5,-78 497.5,-84 497.5,-84 497.5,-96 497.5,-96 497.5,-102 491.5,-108 485.5,-108"/>
<text text-anchor="middle" x="470.5" y="-86.3" font-family="Times,serif" font-size="14.00">Mod</text>
</g>
<!-- ast.BinOp object at 0x7f59a6567460&#45;&gt;ast.Mod object at 0x7f5a18fee3e0 -->
<g id="edge21" class="edge">
<title>ast.BinOp object at 0x7f59a6567460&#45;&gt;ast.Mod object at 0x7f5a18fee3e0</title>
<path fill="none" stroke="black" d="M470.5,-143.7C470.5,-135.98 470.5,-126.71 470.5,-118.11"/>
<polygon fill="black" stroke="black" points="474,-118.1 470.5,-108.1 467,-118.1 474,-118.1"/>
</g>
<!-- ast.Constant object at 0x7f59a65677f0 -->
<g id="node21" class="node">
<title>ast.Constant object at 0x7f59a65677f0</title>
<path fill="#66cdaa" stroke="black" d="M569,-108C569,-108 528,-108 528,-108 522,-108 516,-102 516,-96 516,-96 516,-84 516,-84 516,-78 522,-72 528,-72 528,-72 569,-72 569,-72 575,-72 581,-78 581,-84 581,-84 581,-96 581,-96 581,-102 575,-108 569,-108"/>
<text text-anchor="middle" x="548.5" y="-86.3" font-family="Times,serif" font-size="14.00">Constant</text>
</g>
<!-- ast.BinOp object at 0x7f59a6567460&#45;&gt;ast.Constant object at 0x7f59a65677f0 -->
<g id="edge22" class="edge">
<title>ast.BinOp object at 0x7f59a6567460&#45;&gt;ast.Constant object at 0x7f59a65677f0</title>
<path fill="none" stroke="black" d="M489.78,-143.7C499.42,-135.05 511.23,-124.45 521.73,-115.03"/>
<polygon fill="black" stroke="black" points="524.34,-117.39 529.44,-108.1 519.66,-112.18 524.34,-117.39"/>
</g>
<!-- ast.Constant object at 0x7f59a65676a0 -->
<g id="node17" class="node">
<title>ast.Constant object at 0x7f59a65676a0</title>
<path fill="#66cdaa" stroke="black" d="M647,-36C647,-36 606,-36 606,-36 600,-36 594,-30 594,-24 594,-24 594,-12 594,-12 594,-6 600,0 606,0 606,0 647,0 647,0 653,0 659,-6 659,-12 659,-12 659,-24 659,-24 659,-30 653,-36 647,-36"/>
<text text-anchor="middle" x="626.5" y="-14.3" font-family="Times,serif" font-size="14.00">Constant</text>
</g>
<!-- ast.BinOp object at 0x7f59a6564910&#45;&gt;ast.Constant object at 0x7f59a65676a0 -->
<g id="edge18" class="edge">
<title>ast.BinOp object at 0x7f59a6564910&#45;&gt;ast.Constant object at 0x7f59a65676a0</title>
<path fill="none" stroke="black" d="M626.5,-71.7C626.5,-63.98 626.5,-54.71 626.5,-46.11"/>
<polygon fill="black" stroke="black" points="630,-46.1 626.5,-36.1 623,-46.1 630,-46.1"/>
</g>
<!-- ast.Mult object at 0x7f5a18fee2c0 -->
<g id="node18" class="node">
<title>ast.Mult object at 0x7f5a18fee2c0</title>
<path fill="#66cdaa" stroke="black" d="M719.5,-36C719.5,-36 689.5,-36 689.5,-36 683.5,-36 677.5,-30 677.5,-24 677.5,-24 677.5,-12 677.5,-12 677.5,-6 683.5,0 689.5,0 689.5,0 719.5,0 719.5,0 725.5,0 731.5,-6 731.5,-12 731.5,-12 731.5,-24 731.5,-24 731.5,-30 725.5,-36 719.5,-36"/>
<text text-anchor="middle" x="704.5" y="-14.3" font-family="Times,serif" font-size="14.00">Mult</text>
</g>
<!-- ast.BinOp object at 0x7f59a6564910&#45;&gt;ast.Mult object at 0x7f5a18fee2c0 -->
<g id="edge19" class="edge">
<title>ast.BinOp object at 0x7f59a6564910&#45;&gt;ast.Mult object at 0x7f5a18fee2c0</title>
<path fill="none" stroke="black" d="M645.78,-71.7C655.42,-63.05 667.23,-52.45 677.73,-43.03"/>
<polygon fill="black" stroke="black" points="680.34,-45.39 685.44,-36.1 675.66,-40.18 680.34,-45.39"/>
</g>
<!-- ast.Constant object at 0x7f59a6567a00 -->
<g id="node19" class="node">
<title>ast.Constant object at 0x7f59a6567a00</title>
<path fill="#66cdaa" stroke="black" d="M564,-36C564,-36 523,-36 523,-36 517,-36 511,-30 511,-24 511,-24 511,-12 511,-12 511,-6 517,0 523,0 523,0 564,0 564,0 570,0 576,-6 576,-12 576,-12 576,-24 576,-24 576,-30 570,-36 564,-36"/>
<text text-anchor="middle" x="543.5" y="-14.3" font-family="Times,serif" font-size="14.00">Constant</text>
</g>
<!-- ast.BinOp object at 0x7f59a6564910&#45;&gt;ast.Constant object at 0x7f59a6567a00 -->
<g id="edge20" class="edge">
<title>ast.BinOp object at 0x7f59a6564910&#45;&gt;ast.Constant object at 0x7f59a6567a00</title>
<path fill="none" stroke="black" d="M605.98,-71.7C595.63,-62.97 582.91,-52.24 571.66,-42.75"/>
<polygon fill="black" stroke="black" points="573.68,-39.88 563.78,-36.1 569.17,-45.23 573.68,-39.88"/>
</g>
<!-- ast.Compare object at 0x7f59a65678b0 -->
<g id="node23" class="node">
<title>ast.Compare object at 0x7f59a65678b0</title>
<path fill="#66cdaa" stroke="black" d="M498,-252C498,-252 455,-252 455,-252 449,-252 443,-246 443,-240 443,-240 443,-228 443,-228 443,-222 449,-216 455,-216 455,-216 498,-216 498,-216 504,-216 510,-222 510,-228 510,-228 510,-240 510,-240 510,-246 504,-252 498,-252"/>
<text text-anchor="middle" x="476.5" y="-230.3" font-family="Times,serif" font-size="14.00">Compare</text>
</g>
<!-- ast.Return object at 0x7f59a6567670&#45;&gt;ast.Compare object at 0x7f59a65678b0 -->
<g id="edge24" class="edge">
<title>ast.Return object at 0x7f59a6567670&#45;&gt;ast.Compare object at 0x7f59a65678b0</title>
<path fill="none" stroke="black" d="M413.26,-287.7C423.74,-278.97 436.61,-268.24 448,-258.75"/>
<polygon fill="black" stroke="black" points="450.53,-261.19 455.97,-252.1 446.05,-255.82 450.53,-261.19"/>
</g>
<!-- ast.BinOp object at 0x7f59a6567a30 -->
<g id="node24" class="node">
<title>ast.BinOp object at 0x7f59a6567a30</title>
<path fill="#66cdaa" stroke="black" d="M413.5,-180C413.5,-180 383.5,-180 383.5,-180 377.5,-180 371.5,-174 371.5,-168 371.5,-168 371.5,-156 371.5,-156 371.5,-150 377.5,-144 383.5,-144 383.5,-144 413.5,-144 413.5,-144 419.5,-144 425.5,-150 425.5,-156 425.5,-156 425.5,-168 425.5,-168 425.5,-174 419.5,-180 413.5,-180"/>
<text text-anchor="middle" x="398.5" y="-158.3" font-family="Times,serif" font-size="14.00">BinOp</text>
</g>
<!-- ast.Compare object at 0x7f59a65678b0&#45;&gt;ast.BinOp object at 0x7f59a6567a30 -->
<g id="edge25" class="edge">
<title>ast.Compare object at 0x7f59a65678b0&#45;&gt;ast.BinOp object at 0x7f59a6567a30</title>
<path fill="none" stroke="black" d="M457.22,-215.7C447.58,-207.05 435.77,-196.45 425.27,-187.03"/>
<polygon fill="black" stroke="black" points="427.34,-184.18 417.56,-180.1 422.66,-189.39 427.34,-184.18"/>
</g>
<!-- ast.Eq object at 0x7f5a18fee8f0 -->
<g id="node27" class="node">
<title>ast.Eq object at 0x7f5a18fee8f0</title>
<path fill="#66cdaa" stroke="black" d="M641.5,-180C641.5,-180 611.5,-180 611.5,-180 605.5,-180 599.5,-174 599.5,-168 599.5,-168 599.5,-156 599.5,-156 599.5,-150 605.5,-144 611.5,-144 611.5,-144 641.5,-144 641.5,-144 647.5,-144 653.5,-150 653.5,-156 653.5,-156 653.5,-168 653.5,-168 653.5,-174 647.5,-180 641.5,-180"/>
<text text-anchor="middle" x="626.5" y="-158.3" font-family="Times,serif" font-size="14.00">Eq</text>
</g>
<!-- ast.Compare object at 0x7f59a65678b0&#45;&gt;ast.Eq object at 0x7f5a18fee8f0 -->
<g id="edge31" class="edge">
<title>ast.Compare object at 0x7f59a65678b0&#45;&gt;ast.Eq object at 0x7f5a18fee8f0</title>
<path fill="none" stroke="black" d="M510.45,-217.28C531.18,-207.67 558.44,-195 590.28,-180.09"/>
<polygon fill="black" stroke="black" points="591.81,-183.24 599.38,-175.83 588.84,-176.9 591.81,-183.24"/>
</g>
<!-- ast.Constant object at 0x7f59a6567970 -->
<g id="node28" class="node">
<title>ast.Constant object at 0x7f59a6567970</title>
<path fill="#66cdaa" stroke="black" d="M569,-180C569,-180 528,-180 528,-180 522,-180 516,-174 516,-168 516,-168 516,-156 516,-156 516,-150 522,-144 528,-144 528,-144 569,-144 569,-144 575,-144 581,-150 581,-156 581,-156 581,-168 581,-168 581,-174 575,-180 569,-180"/>
<text text-anchor="middle" x="548.5" y="-158.3" font-family="Times,serif" font-size="14.00">Constant</text>
</g>
<!-- ast.Compare object at 0x7f59a65678b0&#45;&gt;ast.Constant object at 0x7f59a6567970 -->
<g id="edge32" class="edge">
<title>ast.Compare object at 0x7f59a65678b0&#45;&gt;ast.Constant object at 0x7f59a6567970</title>
<path fill="none" stroke="black" d="M494.3,-215.7C503.1,-207.14 513.88,-196.66 523.5,-187.3"/>
<polygon fill="black" stroke="black" points="526.18,-189.58 530.91,-180.1 521.3,-184.57 526.18,-189.58"/>
</g>
<!-- ast.BinOp object at 0x7f59a6567a30&#45;&gt;ast.Mod object at 0x7f5a18fee3e0 -->
<g id="edge28" class="edge">
<title>ast.BinOp object at 0x7f59a6567a30&#45;&gt;ast.Mod object at 0x7f5a18fee3e0</title>
<path fill="none" stroke="black" d="M416.3,-143.7C425.1,-135.14 435.88,-124.66 445.5,-115.3"/>
<polygon fill="black" stroke="black" points="448.18,-117.58 452.91,-108.1 443.3,-112.57 448.18,-117.58"/>
</g>
<!-- ast.Name object at 0x7f59a65648e0 -->
<g id="node25" class="node">
<title>ast.Name object at 0x7f59a65648e0</title>
<path fill="#66cdaa" stroke="black" d="M413.5,-108C413.5,-108 383.5,-108 383.5,-108 377.5,-108 371.5,-102 371.5,-96 371.5,-96 371.5,-84 371.5,-84 371.5,-78 377.5,-72 383.5,-72 383.5,-72 413.5,-72 413.5,-72 419.5,-72 425.5,-78 425.5,-84 425.5,-84 425.5,-96 425.5,-96 425.5,-102 419.5,-108 413.5,-108"/>
<text text-anchor="middle" x="398.5" y="-86.3" font-family="Times,serif" font-size="14.00">Name</text>
</g>
<!-- ast.BinOp object at 0x7f59a6567a30&#45;&gt;ast.Name object at 0x7f59a65648e0 -->
<g id="edge26" class="edge">
<title>ast.BinOp object at 0x7f59a6567a30&#45;&gt;ast.Name object at 0x7f59a65648e0</title>
<path fill="none" stroke="black" d="M398.5,-143.7C398.5,-135.98 398.5,-126.71 398.5,-118.11"/>
<polygon fill="black" stroke="black" points="402,-118.1 398.5,-108.1 395,-118.1 402,-118.1"/>
</g>
<!-- ast.Name object at 0x7f59a65676d0 -->
<g id="node26" class="node">
<title>ast.Name object at 0x7f59a65676d0</title>
<path fill="#66cdaa" stroke="black" d="M341.5,-108C341.5,-108 311.5,-108 311.5,-108 305.5,-108 299.5,-102 299.5,-96 299.5,-96 299.5,-84 299.5,-84 299.5,-78 305.5,-72 311.5,-72 311.5,-72 341.5,-72 341.5,-72 347.5,-72 353.5,-78 353.5,-84 353.5,-84 353.5,-96 353.5,-96 353.5,-102 347.5,-108 341.5,-108"/>
<text text-anchor="middle" x="326.5" y="-86.3" font-family="Times,serif" font-size="14.00">Name</text>
</g>
<!-- ast.BinOp object at 0x7f59a6567a30&#45;&gt;ast.Name object at 0x7f59a65676d0 -->
<g id="edge29" class="edge">
<title>ast.BinOp object at 0x7f59a6567a30&#45;&gt;ast.Name object at 0x7f59a65676d0</title>
<path fill="none" stroke="black" d="M380.7,-143.7C371.9,-135.14 361.12,-124.66 351.5,-115.3"/>
<polygon fill="black" stroke="black" points="353.7,-112.57 344.09,-108.1 348.82,-117.58 353.7,-112.57"/>
</g>
<!-- ast.Name object at 0x7f59a65648e0&#45;&gt;ast.Load object at 0x7f5a18fedfc0 -->
<g id="edge27" class="edge">
<title>ast.Name object at 0x7f59a65648e0&#45;&gt;ast.Load object at 0x7f5a18fedfc0</title>
<path fill="none" stroke="black" d="M371.41,-75.83C348.73,-64.81 316.14,-48.97 291.13,-36.81"/>
<polygon fill="black" stroke="black" points="292.48,-33.57 281.95,-32.35 289.42,-39.87 292.48,-33.57"/>
</g>
<!-- ast.Name object at 0x7f59a65676d0&#45;&gt;ast.Load object at 0x7f5a18fedfc0 -->
<g id="edge30" class="edge">
<title>ast.Name object at 0x7f59a65676d0&#45;&gt;ast.Load object at 0x7f5a18fedfc0</title>
<path fill="none" stroke="black" d="M308.7,-71.7C299.9,-63.14 289.12,-52.66 279.5,-43.3"/>
<polygon fill="black" stroke="black" points="281.7,-40.57 272.09,-36.1 276.82,-45.58 281.7,-40.57"/>
</g>
</g>
</svg>
