<?xml version="1.0" encoding="UTF-8" standalone="no"?>
<!DOCTYPE svg PUBLIC "-//W3C//DTD SVG 1.1//EN"
 "http://www.w3.org/Graphics/SVG/1.1/DTD/svg11.dtd">
<!-- Generated by graphviz version 2.43.0 (0)
 -->
<!-- Title: %3 Pages: 1 -->
<svg width="1514pt" height="764pt"
 viewBox="0.00 0.00 1513.92 764.00" xmlns="http://www.w3.org/2000/svg" xmlns:xlink="http://www.w3.org/1999/xlink">
<g id="graph0" class="graph" transform="scale(1 1) rotate(0) translate(4 760)">
<title>%3</title>
<polygon fill="white" stroke="transparent" points="-4,4 -4,-760 1509.92,-760 1509.92,4 -4,4"/>
<!-- ast.Module object at 0x7fe39ff348b0 -->
<g id="node1" class="node">
<title>ast.Module object at 0x7fe39ff348b0</title>
<path fill="#66cdaa" stroke="black" d="M515.42,-756C515.42,-756 480.42,-756 480.42,-756 474.42,-756 468.42,-750 468.42,-744 468.42,-744 468.42,-732 468.42,-732 468.42,-726 474.42,-720 480.42,-720 480.42,-720 515.42,-720 515.42,-720 521.42,-720 527.42,-726 527.42,-732 527.42,-732 527.42,-744 527.42,-744 527.42,-750 521.42,-756 515.42,-756"/>
<text text-anchor="middle" x="497.92" y="-734.3" font-family="Times,serif" font-size="14.00">Module</text>
</g>
<!-- ast.FunctionDef object at 0x7fe39ff37fa0 -->
<g id="node2" class="node">
<title>ast.FunctionDef object at 0x7fe39ff37fa0</title>
<path fill="#66cdaa" stroke="black" d="M528.42,-684C528.42,-684 467.42,-684 467.42,-684 461.42,-684 455.42,-678 455.42,-672 455.42,-672 455.42,-660 455.42,-660 455.42,-654 461.42,-648 467.42,-648 467.42,-648 528.42,-648 528.42,-648 534.42,-648 540.42,-654 540.42,-660 540.42,-660 540.42,-672 540.42,-672 540.42,-678 534.42,-684 528.42,-684"/>
<text text-anchor="middle" x="497.92" y="-662.3" font-family="Times,serif" font-size="14.00">FunctionDef</text>
</g>
<!-- ast.Module object at 0x7fe39ff348b0&#45;&gt;ast.FunctionDef object at 0x7fe39ff37fa0 -->
<g id="edge1" class="edge">
<title>ast.Module object at 0x7fe39ff348b0&#45;&gt;ast.FunctionDef object at 0x7fe39ff37fa0</title>
<path fill="none" stroke="black" d="M497.92,-719.7C497.92,-711.98 497.92,-702.71 497.92,-694.11"/>
<polygon fill="black" stroke="black" points="501.42,-694.1 497.92,-684.1 494.42,-694.1 501.42,-694.1"/>
</g>
<!-- ast.arguments object at 0x7fe39ff34d60 -->
<g id="node3" class="node">
<title>ast.arguments object at 0x7fe39ff34d60</title>
<path fill="#66cdaa" stroke="black" d="M142.92,-612C142.92,-612 92.92,-612 92.92,-612 86.92,-612 80.92,-606 80.92,-600 80.92,-600 80.92,-588 80.92,-588 80.92,-582 86.92,-576 92.92,-576 92.92,-576 142.92,-576 142.92,-576 148.92,-576 154.92,-582 154.92,-588 154.92,-588 154.92,-600 154.92,-600 154.92,-606 148.92,-612 142.92,-612"/>
<text text-anchor="middle" x="117.92" y="-590.3" font-family="Times,serif" font-size="14.00">arguments</text>
</g>
<!-- ast.FunctionDef object at 0x7fe39ff37fa0&#45;&gt;ast.arguments object at 0x7fe39ff34d60 -->
<g id="edge2" class="edge">
<title>ast.FunctionDef object at 0x7fe39ff37fa0&#45;&gt;ast.arguments object at 0x7fe39ff34d60</title>
<path fill="none" stroke="black" d="M455.16,-658.13C396.38,-648.55 287.39,-630.28 194.92,-612 185.26,-610.09 174.94,-607.91 165.1,-605.76"/>
<polygon fill="black" stroke="black" points="165.58,-602.28 155.06,-603.55 164.07,-609.12 165.58,-602.28"/>
</g>
<!-- ast.Assign object at 0x7fe39ff35630 -->
<g id="node5" class="node">
<title>ast.Assign object at 0x7fe39ff35630</title>
<path fill="#66cdaa" stroke="black" d="M245.92,-612C245.92,-612 215.92,-612 215.92,-612 209.92,-612 203.92,-606 203.92,-600 203.92,-600 203.92,-588 203.92,-588 203.92,-582 209.92,-576 215.92,-576 215.92,-576 245.92,-576 245.92,-576 251.92,-576 257.92,-582 257.92,-588 257.92,-588 257.92,-600 257.92,-600 257.92,-606 251.92,-612 245.92,-612"/>
<text text-anchor="middle" x="230.92" y="-590.3" font-family="Times,serif" font-size="14.00">Assign</text>
</g>
<!-- ast.FunctionDef object at 0x7fe39ff37fa0&#45;&gt;ast.Assign object at 0x7fe39ff35630 -->
<g id="edge4" class="edge">
<title>ast.FunctionDef object at 0x7fe39ff37fa0&#45;&gt;ast.Assign object at 0x7fe39ff35630</title>
<path fill="none" stroke="black" d="M455.32,-653.83C403.64,-640.28 317.35,-617.66 268.19,-604.77"/>
<polygon fill="black" stroke="black" points="268.85,-601.33 258.29,-602.18 267.08,-608.1 268.85,-601.33"/>
</g>
<!-- ast.Assign object at 0x7fe39ff37c40 -->
<g id="node15" class="node">
<title>ast.Assign object at 0x7fe39ff37c40</title>
<path fill="#66cdaa" stroke="black" d="M395.92,-612C395.92,-612 365.92,-612 365.92,-612 359.92,-612 353.92,-606 353.92,-600 353.92,-600 353.92,-588 353.92,-588 353.92,-582 359.92,-576 365.92,-576 365.92,-576 395.92,-576 395.92,-576 401.92,-576 407.92,-582 407.92,-588 407.92,-588 407.92,-600 407.92,-600 407.92,-606 401.92,-612 395.92,-612"/>
<text text-anchor="middle" x="380.92" y="-590.3" font-family="Times,serif" font-size="14.00">Assign</text>
</g>
<!-- ast.FunctionDef object at 0x7fe39ff37fa0&#45;&gt;ast.Assign object at 0x7fe39ff37c40 -->
<g id="edge14" class="edge">
<title>ast.FunctionDef object at 0x7fe39ff37fa0&#45;&gt;ast.Assign object at 0x7fe39ff37c40</title>
<path fill="none" stroke="black" d="M469.3,-647.88C453.55,-638.45 433.84,-626.66 417.04,-616.61"/>
<polygon fill="black" stroke="black" points="418.42,-613.36 408.04,-611.23 414.83,-619.36 418.42,-613.36"/>
</g>
<!-- ast.Assign object at 0x7fe39ff37e50 -->
<g id="node18" class="node">
<title>ast.Assign object at 0x7fe39ff37e50</title>
<path fill="#66cdaa" stroke="black" d="M512.92,-612C512.92,-612 482.92,-612 482.92,-612 476.92,-612 470.92,-606 470.92,-600 470.92,-600 470.92,-588 470.92,-588 470.92,-582 476.92,-576 482.92,-576 482.92,-576 512.92,-576 512.92,-576 518.92,-576 524.92,-582 524.92,-588 524.92,-588 524.92,-600 524.92,-600 524.92,-606 518.92,-612 512.92,-612"/>
<text text-anchor="middle" x="497.92" y="-590.3" font-family="Times,serif" font-size="14.00">Assign</text>
</g>
<!-- ast.FunctionDef object at 0x7fe39ff37fa0&#45;&gt;ast.Assign object at 0x7fe39ff37e50 -->
<g id="edge18" class="edge">
<title>ast.FunctionDef object at 0x7fe39ff37fa0&#45;&gt;ast.Assign object at 0x7fe39ff37e50</title>
<path fill="none" stroke="black" d="M497.92,-647.7C497.92,-639.98 497.92,-630.71 497.92,-622.11"/>
<polygon fill="black" stroke="black" points="501.42,-622.1 497.92,-612.1 494.42,-622.1 501.42,-622.1"/>
</g>
<!-- ast.Assign object at 0x7fe39ff34070 -->
<g id="node21" class="node">
<title>ast.Assign object at 0x7fe39ff34070</title>
<path fill="#66cdaa" stroke="black" d="M629.92,-612C629.92,-612 599.92,-612 599.92,-612 593.92,-612 587.92,-606 587.92,-600 587.92,-600 587.92,-588 587.92,-588 587.92,-582 593.92,-576 599.92,-576 599.92,-576 629.92,-576 629.92,-576 635.92,-576 641.92,-582 641.92,-588 641.92,-588 641.92,-600 641.92,-600 641.92,-606 635.92,-612 629.92,-612"/>
<text text-anchor="middle" x="614.92" y="-590.3" font-family="Times,serif" font-size="14.00">Assign</text>
</g>
<!-- ast.FunctionDef object at 0x7fe39ff37fa0&#45;&gt;ast.Assign object at 0x7fe39ff34070 -->
<g id="edge22" class="edge">
<title>ast.FunctionDef object at 0x7fe39ff37fa0&#45;&gt;ast.Assign object at 0x7fe39ff34070</title>
<path fill="none" stroke="black" d="M526.55,-647.88C542.3,-638.45 562.01,-626.66 578.81,-616.61"/>
<polygon fill="black" stroke="black" points="581.02,-619.36 587.8,-611.23 577.43,-613.36 581.02,-619.36"/>
</g>
<!-- ast.For object at 0x7fe39ff357b0 -->
<g id="node24" class="node">
<title>ast.For object at 0x7fe39ff357b0</title>
<path fill="#66cdaa" stroke="black" d="M766.92,-612C766.92,-612 736.92,-612 736.92,-612 730.92,-612 724.92,-606 724.92,-600 724.92,-600 724.92,-588 724.92,-588 724.92,-582 730.92,-576 736.92,-576 736.92,-576 766.92,-576 766.92,-576 772.92,-576 778.92,-582 778.92,-588 778.92,-588 778.92,-600 778.92,-600 778.92,-606 772.92,-612 766.92,-612"/>
<text text-anchor="middle" x="751.92" y="-590.3" font-family="Times,serif" font-size="14.00">For</text>
</g>
<!-- ast.FunctionDef object at 0x7fe39ff37fa0&#45;&gt;ast.For object at 0x7fe39ff357b0 -->
<g id="edge27" class="edge">
<title>ast.FunctionDef object at 0x7fe39ff37fa0&#45;&gt;ast.For object at 0x7fe39ff357b0</title>
<path fill="none" stroke="black" d="M540.44,-653.28C589.28,-639.82 668.63,-617.95 714.99,-605.18"/>
<polygon fill="black" stroke="black" points="716.21,-608.47 724.92,-602.44 714.35,-601.73 716.21,-608.47"/>
</g>
<!-- ast.Return object at 0x7fe39ff34520 -->
<g id="node57" class="node">
<title>ast.Return object at 0x7fe39ff34520</title>
<path fill="#66cdaa" stroke="black" d="M971.92,-612C971.92,-612 941.92,-612 941.92,-612 935.92,-612 929.92,-606 929.92,-600 929.92,-600 929.92,-588 929.92,-588 929.92,-582 935.92,-576 941.92,-576 941.92,-576 971.92,-576 971.92,-576 977.92,-576 983.92,-582 983.92,-588 983.92,-588 983.92,-600 983.92,-600 983.92,-606 977.92,-612 971.92,-612"/>
<text text-anchor="middle" x="956.92" y="-590.3" font-family="Times,serif" font-size="14.00">Return</text>
</g>
<!-- ast.FunctionDef object at 0x7fe39ff37fa0&#45;&gt;ast.Return object at 0x7fe39ff34520 -->
<g id="edge75" class="edge">
<title>ast.FunctionDef object at 0x7fe39ff37fa0&#45;&gt;ast.Return object at 0x7fe39ff34520</title>
<path fill="none" stroke="black" d="M540.69,-658.48C630.1,-644.84 835.47,-613.52 919.77,-600.67"/>
<polygon fill="black" stroke="black" points="920.31,-604.12 929.67,-599.16 919.26,-597.2 920.31,-604.12"/>
</g>
<!-- ast.arg object at 0x7fe39ff35ab0 -->
<g id="node4" class="node">
<title>ast.arg object at 0x7fe39ff35ab0</title>
<path fill="#66cdaa" stroke="black" d="M101.92,-540C101.92,-540 71.92,-540 71.92,-540 65.92,-540 59.92,-534 59.92,-528 59.92,-528 59.92,-516 59.92,-516 59.92,-510 65.92,-504 71.92,-504 71.92,-504 101.92,-504 101.92,-504 107.92,-504 113.92,-510 113.92,-516 113.92,-516 113.92,-528 113.92,-528 113.92,-534 107.92,-540 101.92,-540"/>
<text text-anchor="middle" x="86.92" y="-518.3" font-family="Times,serif" font-size="14.00">arg</text>
</g>
<!-- ast.arguments object at 0x7fe39ff34d60&#45;&gt;ast.arg object at 0x7fe39ff35ab0 -->
<g id="edge3" class="edge">
<title>ast.arguments object at 0x7fe39ff34d60&#45;&gt;ast.arg object at 0x7fe39ff35ab0</title>
<path fill="none" stroke="black" d="M110.26,-575.7C106.73,-567.73 102.47,-558.1 98.56,-549.26"/>
<polygon fill="black" stroke="black" points="101.75,-547.83 94.5,-540.1 95.35,-550.67 101.75,-547.83"/>
</g>
<!-- ast.Name object at 0x7fe39ff341f0 -->
<g id="node6" class="node">
<title>ast.Name object at 0x7fe39ff341f0</title>
<path fill="#66cdaa" stroke="black" d="M245.92,-540C245.92,-540 215.92,-540 215.92,-540 209.92,-540 203.92,-534 203.92,-528 203.92,-528 203.92,-516 203.92,-516 203.92,-510 209.92,-504 215.92,-504 215.92,-504 245.92,-504 245.92,-504 251.92,-504 257.92,-510 257.92,-516 257.92,-516 257.92,-528 257.92,-528 257.92,-534 251.92,-540 245.92,-540"/>
<text text-anchor="middle" x="230.92" y="-518.3" font-family="Times,serif" font-size="14.00">Name</text>
</g>
<!-- ast.Assign object at 0x7fe39ff35630&#45;&gt;ast.Name object at 0x7fe39ff341f0 -->
<g id="edge5" class="edge">
<title>ast.Assign object at 0x7fe39ff35630&#45;&gt;ast.Name object at 0x7fe39ff341f0</title>
<path fill="none" stroke="black" d="M230.92,-575.7C230.92,-567.98 230.92,-558.71 230.92,-550.11"/>
<polygon fill="black" stroke="black" points="234.42,-550.1 230.92,-540.1 227.42,-550.1 234.42,-550.1"/>
</g>
<!-- ast.List object at 0x7fe39ff34dc0 -->
<g id="node8" class="node">
<title>ast.List object at 0x7fe39ff34dc0</title>
<path fill="#66cdaa" stroke="black" d="M173.92,-540C173.92,-540 143.92,-540 143.92,-540 137.92,-540 131.92,-534 131.92,-528 131.92,-528 131.92,-516 131.92,-516 131.92,-510 137.92,-504 143.92,-504 143.92,-504 173.92,-504 173.92,-504 179.92,-504 185.92,-510 185.92,-516 185.92,-516 185.92,-528 185.92,-528 185.92,-534 179.92,-540 173.92,-540"/>
<text text-anchor="middle" x="158.92" y="-518.3" font-family="Times,serif" font-size="14.00">List</text>
</g>
<!-- ast.Assign object at 0x7fe39ff35630&#45;&gt;ast.List object at 0x7fe39ff34dc0 -->
<g id="edge7" class="edge">
<title>ast.Assign object at 0x7fe39ff35630&#45;&gt;ast.List object at 0x7fe39ff34dc0</title>
<path fill="none" stroke="black" d="M213.13,-575.7C204.32,-567.14 193.54,-556.66 183.92,-547.3"/>
<polygon fill="black" stroke="black" points="186.13,-544.57 176.52,-540.1 181.25,-549.58 186.13,-544.57"/>
</g>
<!-- ast.Store object at 0x7fe3a55ee050 -->
<g id="node7" class="node">
<title>ast.Store object at 0x7fe3a55ee050</title>
<path fill="#66cdaa" stroke="black" d="M487.92,-468C487.92,-468 457.92,-468 457.92,-468 451.92,-468 445.92,-462 445.92,-456 445.92,-456 445.92,-444 445.92,-444 445.92,-438 451.92,-432 457.92,-432 457.92,-432 487.92,-432 487.92,-432 493.92,-432 499.92,-438 499.92,-444 499.92,-444 499.92,-456 499.92,-456 499.92,-462 493.92,-468 487.92,-468"/>
<text text-anchor="middle" x="472.92" y="-446.3" font-family="Times,serif" font-size="14.00">Store</text>
</g>
<!-- ast.Name object at 0x7fe39ff341f0&#45;&gt;ast.Store object at 0x7fe3a55ee050 -->
<g id="edge6" class="edge">
<title>ast.Name object at 0x7fe39ff341f0&#45;&gt;ast.Store object at 0x7fe3a55ee050</title>
<path fill="none" stroke="black" d="M258.17,-507.33C261.09,-506.11 264.04,-504.97 266.92,-504 339.69,-479.44 363.03,-492.18 435.92,-468 436.03,-467.97 436.13,-467.93 436.23,-467.9"/>
<polygon fill="black" stroke="black" points="437.6,-471.12 445.72,-464.32 435.13,-464.57 437.6,-471.12"/>
</g>
<!-- ast.Constant object at 0x7fe39ff365f0 -->
<g id="node9" class="node">
<title>ast.Constant object at 0x7fe39ff365f0</title>
<path fill="#66cdaa" stroke="black" d="M83.42,-468C83.42,-468 42.42,-468 42.42,-468 36.42,-468 30.42,-462 30.42,-456 30.42,-456 30.42,-444 30.42,-444 30.42,-438 36.42,-432 42.42,-432 42.42,-432 83.42,-432 83.42,-432 89.42,-432 95.42,-438 95.42,-444 95.42,-444 95.42,-456 95.42,-456 95.42,-462 89.42,-468 83.42,-468"/>
<text text-anchor="middle" x="62.92" y="-446.3" font-family="Times,serif" font-size="14.00">Constant</text>
</g>
<!-- ast.List object at 0x7fe39ff34dc0&#45;&gt;ast.Constant object at 0x7fe39ff365f0 -->
<g id="edge8" class="edge">
<title>ast.List object at 0x7fe39ff34dc0&#45;&gt;ast.Constant object at 0x7fe39ff365f0</title>
<path fill="none" stroke="black" d="M135.19,-503.7C122.99,-494.8 107.94,-483.82 94.74,-474.2"/>
<polygon fill="black" stroke="black" points="96.52,-471.17 86.38,-468.1 92.4,-476.82 96.52,-471.17"/>
</g>
<!-- ast.Constant object at 0x7fe39ff35930 -->
<g id="node10" class="node">
<title>ast.Constant object at 0x7fe39ff35930</title>
<path fill="#66cdaa" stroke="black" d="M166.42,-468C166.42,-468 125.42,-468 125.42,-468 119.42,-468 113.42,-462 113.42,-456 113.42,-456 113.42,-444 113.42,-444 113.42,-438 119.42,-432 125.42,-432 125.42,-432 166.42,-432 166.42,-432 172.42,-432 178.42,-438 178.42,-444 178.42,-444 178.42,-456 178.42,-456 178.42,-462 172.42,-468 166.42,-468"/>
<text text-anchor="middle" x="145.92" y="-446.3" font-family="Times,serif" font-size="14.00">Constant</text>
</g>
<!-- ast.List object at 0x7fe39ff34dc0&#45;&gt;ast.Constant object at 0x7fe39ff35930 -->
<g id="edge9" class="edge">
<title>ast.List object at 0x7fe39ff34dc0&#45;&gt;ast.Constant object at 0x7fe39ff35930</title>
<path fill="none" stroke="black" d="M155.71,-503.7C154.28,-495.98 152.56,-486.71 150.96,-478.11"/>
<polygon fill="black" stroke="black" points="154.37,-477.3 149.1,-468.1 147.49,-478.58 154.37,-477.3"/>
</g>
<!-- ast.Constant object at 0x7fe39ff36980 -->
<g id="node11" class="node">
<title>ast.Constant object at 0x7fe39ff36980</title>
<path fill="#66cdaa" stroke="black" d="M249.42,-468C249.42,-468 208.42,-468 208.42,-468 202.42,-468 196.42,-462 196.42,-456 196.42,-456 196.42,-444 196.42,-444 196.42,-438 202.42,-432 208.42,-432 208.42,-432 249.42,-432 249.42,-432 255.42,-432 261.42,-438 261.42,-444 261.42,-444 261.42,-456 261.42,-456 261.42,-462 255.42,-468 249.42,-468"/>
<text text-anchor="middle" x="228.92" y="-446.3" font-family="Times,serif" font-size="14.00">Constant</text>
</g>
<!-- ast.List object at 0x7fe39ff34dc0&#45;&gt;ast.Constant object at 0x7fe39ff36980 -->
<g id="edge10" class="edge">
<title>ast.List object at 0x7fe39ff34dc0&#45;&gt;ast.Constant object at 0x7fe39ff36980</title>
<path fill="none" stroke="black" d="M176.23,-503.7C184.79,-495.14 195.27,-484.66 204.62,-475.3"/>
<polygon fill="black" stroke="black" points="207.22,-477.65 211.82,-468.1 202.27,-472.7 207.22,-477.65"/>
</g>
<!-- ast.Constant object at 0x7fe39ff353c0 -->
<g id="node12" class="node">
<title>ast.Constant object at 0x7fe39ff353c0</title>
<path fill="#66cdaa" stroke="black" d="M332.42,-468C332.42,-468 291.42,-468 291.42,-468 285.42,-468 279.42,-462 279.42,-456 279.42,-456 279.42,-444 279.42,-444 279.42,-438 285.42,-432 291.42,-432 291.42,-432 332.42,-432 332.42,-432 338.42,-432 344.42,-438 344.42,-444 344.42,-444 344.42,-456 344.42,-456 344.42,-462 338.42,-468 332.42,-468"/>
<text text-anchor="middle" x="311.92" y="-446.3" font-family="Times,serif" font-size="14.00">Constant</text>
</g>
<!-- ast.List object at 0x7fe39ff34dc0&#45;&gt;ast.Constant object at 0x7fe39ff353c0 -->
<g id="edge11" class="edge">
<title>ast.List object at 0x7fe39ff34dc0&#45;&gt;ast.Constant object at 0x7fe39ff353c0</title>
<path fill="none" stroke="black" d="M186.03,-508.14C189.03,-506.74 192.04,-505.33 194.92,-504 219.72,-492.53 247.57,-479.9 269.88,-469.85"/>
<polygon fill="black" stroke="black" points="271.4,-473.01 279.08,-465.71 268.52,-466.62 271.4,-473.01"/>
</g>
<!-- ast.Constant object at 0x7fe39ff35f00 -->
<g id="node13" class="node">
<title>ast.Constant object at 0x7fe39ff35f00</title>
<path fill="#66cdaa" stroke="black" d="M415.42,-468C415.42,-468 374.42,-468 374.42,-468 368.42,-468 362.42,-462 362.42,-456 362.42,-456 362.42,-444 362.42,-444 362.42,-438 368.42,-432 374.42,-432 374.42,-432 415.42,-432 415.42,-432 421.42,-432 427.42,-438 427.42,-444 427.42,-444 427.42,-456 427.42,-456 427.42,-462 421.42,-468 415.42,-468"/>
<text text-anchor="middle" x="394.92" y="-446.3" font-family="Times,serif" font-size="14.00">Constant</text>
</g>
<!-- ast.List object at 0x7fe39ff34dc0&#45;&gt;ast.Constant object at 0x7fe39ff35f00 -->
<g id="edge12" class="edge">
<title>ast.List object at 0x7fe39ff34dc0&#45;&gt;ast.Constant object at 0x7fe39ff35f00</title>
<path fill="none" stroke="black" d="M186.19,-507.38C189.1,-506.15 192.05,-504.99 194.92,-504 260.07,-481.5 282.3,-488.86 352.36,-467.87"/>
<polygon fill="black" stroke="black" points="353.57,-471.16 362.09,-464.87 351.5,-464.47 353.57,-471.16"/>
</g>
<!-- ast.Load object at 0x7fe3a55edff0 -->
<g id="node14" class="node">
<title>ast.Load object at 0x7fe3a55edff0</title>
<path fill="#66cdaa" stroke="black" d="M962.92,-36C962.92,-36 932.92,-36 932.92,-36 926.92,-36 920.92,-30 920.92,-24 920.92,-24 920.92,-12 920.92,-12 920.92,-6 926.92,0 932.92,0 932.92,0 962.92,0 962.92,0 968.92,0 974.92,-6 974.92,-12 974.92,-12 974.92,-24 974.92,-24 974.92,-30 968.92,-36 962.92,-36"/>
<text text-anchor="middle" x="947.92" y="-14.3" font-family="Times,serif" font-size="14.00">Load</text>
</g>
<!-- ast.List object at 0x7fe39ff34dc0&#45;&gt;ast.Load object at 0x7fe3a55edff0 -->
<g id="edge13" class="edge">
<title>ast.List object at 0x7fe39ff34dc0&#45;&gt;ast.Load object at 0x7fe3a55edff0</title>
<path fill="none" stroke="black" d="M131.54,-507.71C128.65,-506.42 125.74,-505.16 122.92,-504 78.46,-485.71 52.66,-504.11 20.92,-468 -5.77,-437.62 1.92,-419.45 1.92,-379 1.92,-379 1.92,-379 1.92,-161 1.92,-67.42 735.26,-28.55 910.6,-20.59"/>
<polygon fill="black" stroke="black" points="910.8,-24.09 920.63,-20.14 910.49,-17.09 910.8,-24.09"/>
</g>
<!-- ast.Name object at 0x7fe39ff37c70 -->
<g id="node16" class="node">
<title>ast.Name object at 0x7fe39ff37c70</title>
<path fill="#66cdaa" stroke="black" d="M317.92,-540C317.92,-540 287.92,-540 287.92,-540 281.92,-540 275.92,-534 275.92,-528 275.92,-528 275.92,-516 275.92,-516 275.92,-510 281.92,-504 287.92,-504 287.92,-504 317.92,-504 317.92,-504 323.92,-504 329.92,-510 329.92,-516 329.92,-516 329.92,-528 329.92,-528 329.92,-534 323.92,-540 317.92,-540"/>
<text text-anchor="middle" x="302.92" y="-518.3" font-family="Times,serif" font-size="14.00">Name</text>
</g>
<!-- ast.Assign object at 0x7fe39ff37c40&#45;&gt;ast.Name object at 0x7fe39ff37c70 -->
<g id="edge15" class="edge">
<title>ast.Assign object at 0x7fe39ff37c40&#45;&gt;ast.Name object at 0x7fe39ff37c70</title>
<path fill="none" stroke="black" d="M361.64,-575.7C352.01,-567.05 340.2,-556.45 329.7,-547.03"/>
<polygon fill="black" stroke="black" points="331.76,-544.18 321.98,-540.1 327.09,-549.39 331.76,-544.18"/>
</g>
<!-- ast.Constant object at 0x7fe39ff37910 -->
<g id="node17" class="node">
<title>ast.Constant object at 0x7fe39ff37910</title>
<path fill="#66cdaa" stroke="black" d="M401.42,-540C401.42,-540 360.42,-540 360.42,-540 354.42,-540 348.42,-534 348.42,-528 348.42,-528 348.42,-516 348.42,-516 348.42,-510 354.42,-504 360.42,-504 360.42,-504 401.42,-504 401.42,-504 407.42,-504 413.42,-510 413.42,-516 413.42,-516 413.42,-528 413.42,-528 413.42,-534 407.42,-540 401.42,-540"/>
<text text-anchor="middle" x="380.92" y="-518.3" font-family="Times,serif" font-size="14.00">Constant</text>
</g>
<!-- ast.Assign object at 0x7fe39ff37c40&#45;&gt;ast.Constant object at 0x7fe39ff37910 -->
<g id="edge17" class="edge">
<title>ast.Assign object at 0x7fe39ff37c40&#45;&gt;ast.Constant object at 0x7fe39ff37910</title>
<path fill="none" stroke="black" d="M380.92,-575.7C380.92,-567.98 380.92,-558.71 380.92,-550.11"/>
<polygon fill="black" stroke="black" points="384.42,-550.1 380.92,-540.1 377.42,-550.1 384.42,-550.1"/>
</g>
<!-- ast.Name object at 0x7fe39ff37c70&#45;&gt;ast.Store object at 0x7fe3a55ee050 -->
<g id="edge16" class="edge">
<title>ast.Name object at 0x7fe39ff37c70&#45;&gt;ast.Store object at 0x7fe3a55ee050</title>
<path fill="none" stroke="black" d="M329.94,-507.94C332.95,-506.57 335.99,-505.23 338.92,-504 381.31,-486.17 393.45,-485.61 435.92,-468 436.02,-467.96 436.12,-467.92 436.22,-467.88"/>
<polygon fill="black" stroke="black" points="437.75,-471.03 445.55,-463.86 434.98,-464.6 437.75,-471.03"/>
</g>
<!-- ast.Name object at 0x7fe39ff35390 -->
<g id="node19" class="node">
<title>ast.Name object at 0x7fe39ff35390</title>
<path fill="#66cdaa" stroke="black" d="M473.92,-540C473.92,-540 443.92,-540 443.92,-540 437.92,-540 431.92,-534 431.92,-528 431.92,-528 431.92,-516 431.92,-516 431.92,-510 437.92,-504 443.92,-504 443.92,-504 473.92,-504 473.92,-504 479.92,-504 485.92,-510 485.92,-516 485.92,-516 485.92,-528 485.92,-528 485.92,-534 479.92,-540 473.92,-540"/>
<text text-anchor="middle" x="458.92" y="-518.3" font-family="Times,serif" font-size="14.00">Name</text>
</g>
<!-- ast.Assign object at 0x7fe39ff37e50&#45;&gt;ast.Name object at 0x7fe39ff35390 -->
<g id="edge19" class="edge">
<title>ast.Assign object at 0x7fe39ff37e50&#45;&gt;ast.Name object at 0x7fe39ff35390</title>
<path fill="none" stroke="black" d="M488.28,-575.7C483.8,-567.64 478.37,-557.89 473.4,-548.98"/>
<polygon fill="black" stroke="black" points="476.38,-547.14 468.45,-540.1 470.26,-550.54 476.38,-547.14"/>
</g>
<!-- ast.Constant object at 0x7fe39ff34b80 -->
<g id="node20" class="node">
<title>ast.Constant object at 0x7fe39ff34b80</title>
<path fill="#66cdaa" stroke="black" d="M557.42,-540C557.42,-540 516.42,-540 516.42,-540 510.42,-540 504.42,-534 504.42,-528 504.42,-528 504.42,-516 504.42,-516 504.42,-510 510.42,-504 516.42,-504 516.42,-504 557.42,-504 557.42,-504 563.42,-504 569.42,-510 569.42,-516 569.42,-516 569.42,-528 569.42,-528 569.42,-534 563.42,-540 557.42,-540"/>
<text text-anchor="middle" x="536.92" y="-518.3" font-family="Times,serif" font-size="14.00">Constant</text>
</g>
<!-- ast.Assign object at 0x7fe39ff37e50&#45;&gt;ast.Constant object at 0x7fe39ff34b80 -->
<g id="edge21" class="edge">
<title>ast.Assign object at 0x7fe39ff37e50&#45;&gt;ast.Constant object at 0x7fe39ff34b80</title>
<path fill="none" stroke="black" d="M507.56,-575.7C512.05,-567.64 517.48,-557.89 522.45,-548.98"/>
<polygon fill="black" stroke="black" points="525.59,-550.54 527.39,-540.1 519.47,-547.14 525.59,-550.54"/>
</g>
<!-- ast.Name object at 0x7fe39ff35390&#45;&gt;ast.Store object at 0x7fe3a55ee050 -->
<g id="edge20" class="edge">
<title>ast.Name object at 0x7fe39ff35390&#45;&gt;ast.Store object at 0x7fe3a55ee050</title>
<path fill="none" stroke="black" d="M462.39,-503.7C463.93,-495.98 465.78,-486.71 467.5,-478.11"/>
<polygon fill="black" stroke="black" points="470.97,-478.6 469.5,-468.1 464.11,-477.22 470.97,-478.6"/>
</g>
<!-- ast.Name object at 0x7fe39ff355a0 -->
<g id="node22" class="node">
<title>ast.Name object at 0x7fe39ff355a0</title>
<path fill="#66cdaa" stroke="black" d="M629.92,-540C629.92,-540 599.92,-540 599.92,-540 593.92,-540 587.92,-534 587.92,-528 587.92,-528 587.92,-516 587.92,-516 587.92,-510 593.92,-504 599.92,-504 599.92,-504 629.92,-504 629.92,-504 635.92,-504 641.92,-510 641.92,-516 641.92,-516 641.92,-528 641.92,-528 641.92,-534 635.92,-540 629.92,-540"/>
<text text-anchor="middle" x="614.92" y="-518.3" font-family="Times,serif" font-size="14.00">Name</text>
</g>
<!-- ast.Assign object at 0x7fe39ff34070&#45;&gt;ast.Name object at 0x7fe39ff355a0 -->
<g id="edge23" class="edge">
<title>ast.Assign object at 0x7fe39ff34070&#45;&gt;ast.Name object at 0x7fe39ff355a0</title>
<path fill="none" stroke="black" d="M614.92,-575.7C614.92,-567.98 614.92,-558.71 614.92,-550.11"/>
<polygon fill="black" stroke="black" points="618.42,-550.1 614.92,-540.1 611.42,-550.1 618.42,-550.1"/>
</g>
<!-- ast.List object at 0x7fe39ff35a20 -->
<g id="node23" class="node">
<title>ast.List object at 0x7fe39ff35a20</title>
<path fill="#66cdaa" stroke="black" d="M639.92,-396C639.92,-396 609.92,-396 609.92,-396 603.92,-396 597.92,-390 597.92,-384 597.92,-384 597.92,-372 597.92,-372 597.92,-366 603.92,-360 609.92,-360 609.92,-360 639.92,-360 639.92,-360 645.92,-360 651.92,-366 651.92,-372 651.92,-372 651.92,-384 651.92,-384 651.92,-390 645.92,-396 639.92,-396"/>
<text text-anchor="middle" x="624.92" y="-374.3" font-family="Times,serif" font-size="14.00">List</text>
</g>
<!-- ast.Assign object at 0x7fe39ff34070&#45;&gt;ast.List object at 0x7fe39ff35a20 -->
<g id="edge25" class="edge">
<title>ast.Assign object at 0x7fe39ff34070&#45;&gt;ast.List object at 0x7fe39ff35a20</title>
<path fill="none" stroke="black" d="M630.53,-575.77C638.3,-566.03 646.87,-553.18 650.92,-540 665.04,-494.09 649.03,-438.33 636.62,-405.93"/>
<polygon fill="black" stroke="black" points="639.73,-404.26 632.76,-396.27 633.23,-406.86 639.73,-404.26"/>
</g>
<!-- ast.Name object at 0x7fe39ff355a0&#45;&gt;ast.Store object at 0x7fe3a55ee050 -->
<g id="edge24" class="edge">
<title>ast.Name object at 0x7fe39ff355a0&#45;&gt;ast.Store object at 0x7fe3a55ee050</title>
<path fill="none" stroke="black" d="M587.88,-507.67C565.62,-496.69 533.85,-481.03 509.35,-468.96"/>
<polygon fill="black" stroke="black" points="510.87,-465.8 500.35,-464.52 507.77,-472.08 510.87,-465.8"/>
</g>
<!-- ast.List object at 0x7fe39ff35a20&#45;&gt;ast.Load object at 0x7fe3a55edff0 -->
<g id="edge26" class="edge">
<title>ast.List object at 0x7fe39ff35a20&#45;&gt;ast.Load object at 0x7fe3a55edff0</title>
<path fill="none" stroke="black" d="M615.6,-359.63C602.42,-333.41 579.92,-281.81 579.92,-235 579.92,-235 579.92,-235 579.92,-161 579.92,-120.55 569.48,-99.74 598.92,-72 643.38,-30.12 830.14,-21.33 910.69,-19.49"/>
<polygon fill="black" stroke="black" points="910.95,-22.98 920.88,-19.28 910.81,-15.98 910.95,-22.98"/>
</g>
<!-- ast.Name object at 0x7fe39ff35030 -->
<g id="node25" class="node">
<title>ast.Name object at 0x7fe39ff35030</title>
<path fill="#66cdaa" stroke="black" d="M739.92,-540C739.92,-540 709.92,-540 709.92,-540 703.92,-540 697.92,-534 697.92,-528 697.92,-528 697.92,-516 697.92,-516 697.92,-510 703.92,-504 709.92,-504 709.92,-504 739.92,-504 739.92,-504 745.92,-504 751.92,-510 751.92,-516 751.92,-516 751.92,-528 751.92,-528 751.92,-534 745.92,-540 739.92,-540"/>
<text text-anchor="middle" x="724.92" y="-518.3" font-family="Times,serif" font-size="14.00">Name</text>
</g>
<!-- ast.For object at 0x7fe39ff357b0&#45;&gt;ast.Name object at 0x7fe39ff35030 -->
<g id="edge28" class="edge">
<title>ast.For object at 0x7fe39ff357b0&#45;&gt;ast.Name object at 0x7fe39ff35030</title>
<path fill="none" stroke="black" d="M745.25,-575.7C742.21,-567.81 738.54,-558.3 735.16,-549.55"/>
<polygon fill="black" stroke="black" points="738.39,-548.17 731.52,-540.1 731.86,-550.69 738.39,-548.17"/>
</g>
<!-- ast.Subscript object at 0x7fe39ff36ad0 -->
<g id="node26" class="node">
<title>ast.Subscript object at 0x7fe39ff36ad0</title>
<path fill="#66cdaa" stroke="black" d="M775.92,-252C775.92,-252 731.92,-252 731.92,-252 725.92,-252 719.92,-246 719.92,-240 719.92,-240 719.92,-228 719.92,-228 719.92,-222 725.92,-216 731.92,-216 731.92,-216 775.92,-216 775.92,-216 781.92,-216 787.92,-222 787.92,-228 787.92,-228 787.92,-240 787.92,-240 787.92,-246 781.92,-252 775.92,-252"/>
<text text-anchor="middle" x="753.92" y="-230.3" font-family="Times,serif" font-size="14.00">Subscript</text>
</g>
<!-- ast.For object at 0x7fe39ff357b0&#45;&gt;ast.Subscript object at 0x7fe39ff36ad0 -->
<g id="edge30" class="edge">
<title>ast.For object at 0x7fe39ff357b0&#45;&gt;ast.Subscript object at 0x7fe39ff36ad0</title>
<path fill="none" stroke="black" d="M757.59,-575.73C765.77,-549.21 779.92,-496.73 779.92,-451 779.92,-451 779.92,-451 779.92,-377 779.92,-336.55 769.59,-290.67 761.95,-262.28"/>
<polygon fill="black" stroke="black" points="765.23,-261 759.19,-252.3 758.49,-262.87 765.23,-261"/>
</g>
<!-- ast.If object at 0x7fe39ff34220 -->
<g id="node31" class="node">
<title>ast.If object at 0x7fe39ff34220</title>
<path fill="#66cdaa" stroke="black" d="M849.92,-540C849.92,-540 819.92,-540 819.92,-540 813.92,-540 807.92,-534 807.92,-528 807.92,-528 807.92,-516 807.92,-516 807.92,-510 813.92,-504 819.92,-504 819.92,-504 849.92,-504 849.92,-504 855.92,-504 861.92,-510 861.92,-516 861.92,-516 861.92,-528 861.92,-528 861.92,-534 855.92,-540 849.92,-540"/>
<text text-anchor="middle" x="834.92" y="-518.3" font-family="Times,serif" font-size="14.00">If</text>
</g>
<!-- ast.For object at 0x7fe39ff357b0&#45;&gt;ast.If object at 0x7fe39ff34220 -->
<g id="edge39" class="edge">
<title>ast.For object at 0x7fe39ff357b0&#45;&gt;ast.If object at 0x7fe39ff34220</title>
<path fill="none" stroke="black" d="M772.44,-575.7C782.79,-566.97 795.51,-556.24 806.76,-546.75"/>
<polygon fill="black" stroke="black" points="809.26,-549.23 814.64,-540.1 804.74,-543.88 809.26,-549.23"/>
</g>
<!-- ast.Name object at 0x7fe39ff35030&#45;&gt;ast.Store object at 0x7fe3a55ee050 -->
<g id="edge29" class="edge">
<title>ast.Name object at 0x7fe39ff35030&#45;&gt;ast.Store object at 0x7fe3a55ee050</title>
<path fill="none" stroke="black" d="M697.48,-513.38C651.91,-500.72 560.63,-475.36 509.6,-461.19"/>
<polygon fill="black" stroke="black" points="510.53,-457.81 499.96,-458.51 508.66,-464.56 510.53,-457.81"/>
</g>
<!-- ast.Subscript object at 0x7fe39ff36ad0&#45;&gt;ast.Load object at 0x7fe3a55edff0 -->
<g id="edge38" class="edge">
<title>ast.Subscript object at 0x7fe39ff36ad0&#45;&gt;ast.Load object at 0x7fe3a55edff0</title>
<path fill="none" stroke="black" d="M753.19,-215.95C752.99,-197.53 754.42,-167.66 763.92,-144 778.94,-106.64 786.97,-96.5 818.92,-72 846.56,-50.81 883.87,-36.7 911.25,-28.4"/>
<polygon fill="black" stroke="black" points="912.23,-31.76 920.85,-25.61 910.27,-25.04 912.23,-31.76"/>
</g>
<!-- ast.Name object at 0x7fe39ff374f0 -->
<g id="node27" class="node">
<title>ast.Name object at 0x7fe39ff374f0</title>
<path fill="#66cdaa" stroke="black" d="M814.92,-180C814.92,-180 784.92,-180 784.92,-180 778.92,-180 772.92,-174 772.92,-168 772.92,-168 772.92,-156 772.92,-156 772.92,-150 778.92,-144 784.92,-144 784.92,-144 814.92,-144 814.92,-144 820.92,-144 826.92,-150 826.92,-156 826.92,-156 826.92,-168 826.92,-168 826.92,-174 820.92,-180 814.92,-180"/>
<text text-anchor="middle" x="799.92" y="-158.3" font-family="Times,serif" font-size="14.00">Name</text>
</g>
<!-- ast.Subscript object at 0x7fe39ff36ad0&#45;&gt;ast.Name object at 0x7fe39ff374f0 -->
<g id="edge31" class="edge">
<title>ast.Subscript object at 0x7fe39ff36ad0&#45;&gt;ast.Name object at 0x7fe39ff374f0</title>
<path fill="none" stroke="black" d="M765.3,-215.7C770.64,-207.56 777.13,-197.69 783.04,-188.7"/>
<polygon fill="black" stroke="black" points="786.12,-190.38 788.68,-180.1 780.27,-186.54 786.12,-190.38"/>
</g>
<!-- ast.Slice object at 0x7fe39ff35600 -->
<g id="node28" class="node">
<title>ast.Slice object at 0x7fe39ff35600</title>
<path fill="#66cdaa" stroke="black" d="M704.92,-180C704.92,-180 674.92,-180 674.92,-180 668.92,-180 662.92,-174 662.92,-168 662.92,-168 662.92,-156 662.92,-156 662.92,-150 668.92,-144 674.92,-144 674.92,-144 704.92,-144 704.92,-144 710.92,-144 716.92,-150 716.92,-156 716.92,-156 716.92,-168 716.92,-168 716.92,-174 710.92,-180 704.92,-180"/>
<text text-anchor="middle" x="689.92" y="-158.3" font-family="Times,serif" font-size="14.00">Slice</text>
</g>
<!-- ast.Subscript object at 0x7fe39ff36ad0&#45;&gt;ast.Slice object at 0x7fe39ff35600 -->
<g id="edge33" class="edge">
<title>ast.Subscript object at 0x7fe39ff36ad0&#45;&gt;ast.Slice object at 0x7fe39ff35600</title>
<path fill="none" stroke="black" d="M738.1,-215.7C730.35,-207.22 720.89,-196.86 712.4,-187.58"/>
<polygon fill="black" stroke="black" points="714.89,-185.12 705.56,-180.1 709.73,-189.85 714.89,-185.12"/>
</g>
<!-- ast.Name object at 0x7fe39ff374f0&#45;&gt;ast.Load object at 0x7fe3a55edff0 -->
<g id="edge32" class="edge">
<title>ast.Name object at 0x7fe39ff374f0&#45;&gt;ast.Load object at 0x7fe3a55edff0</title>
<path fill="none" stroke="black" d="M805.75,-143.7C813.03,-124.24 827.12,-92.66 847.92,-72 865.74,-54.31 890.68,-41.08 911.2,-32.26"/>
<polygon fill="black" stroke="black" points="912.65,-35.44 920.57,-28.4 909.99,-28.97 912.65,-35.44"/>
</g>
<!-- ast.Name object at 0x7fe39ff34df0 -->
<g id="node29" class="node">
<title>ast.Name object at 0x7fe39ff34df0</title>
<path fill="#66cdaa" stroke="black" d="M649.92,-108C649.92,-108 619.92,-108 619.92,-108 613.92,-108 607.92,-102 607.92,-96 607.92,-96 607.92,-84 607.92,-84 607.92,-78 613.92,-72 619.92,-72 619.92,-72 649.92,-72 649.92,-72 655.92,-72 661.92,-78 661.92,-84 661.92,-84 661.92,-96 661.92,-96 661.92,-102 655.92,-108 649.92,-108"/>
<text text-anchor="middle" x="634.92" y="-86.3" font-family="Times,serif" font-size="14.00">Name</text>
</g>
<!-- ast.Slice object at 0x7fe39ff35600&#45;&gt;ast.Name object at 0x7fe39ff34df0 -->
<g id="edge34" class="edge">
<title>ast.Slice object at 0x7fe39ff35600&#45;&gt;ast.Name object at 0x7fe39ff34df0</title>
<path fill="none" stroke="black" d="M676.33,-143.7C669.8,-135.39 661.86,-125.28 654.68,-116.14"/>
<polygon fill="black" stroke="black" points="657.29,-113.81 648.36,-108.1 651.79,-118.13 657.29,-113.81"/>
</g>
<!-- ast.Name object at 0x7fe39ff37100 -->
<g id="node30" class="node">
<title>ast.Name object at 0x7fe39ff37100</title>
<path fill="#66cdaa" stroke="black" d="M721.92,-108C721.92,-108 691.92,-108 691.92,-108 685.92,-108 679.92,-102 679.92,-96 679.92,-96 679.92,-84 679.92,-84 679.92,-78 685.92,-72 691.92,-72 691.92,-72 721.92,-72 721.92,-72 727.92,-72 733.92,-78 733.92,-84 733.92,-84 733.92,-96 733.92,-96 733.92,-102 727.92,-108 721.92,-108"/>
<text text-anchor="middle" x="706.92" y="-86.3" font-family="Times,serif" font-size="14.00">Name</text>
</g>
<!-- ast.Slice object at 0x7fe39ff35600&#45;&gt;ast.Name object at 0x7fe39ff37100 -->
<g id="edge36" class="edge">
<title>ast.Slice object at 0x7fe39ff35600&#45;&gt;ast.Name object at 0x7fe39ff37100</title>
<path fill="none" stroke="black" d="M694.13,-143.7C696.02,-135.9 698.3,-126.51 700.41,-117.83"/>
<polygon fill="black" stroke="black" points="703.81,-118.65 702.77,-108.1 697.01,-117 703.81,-118.65"/>
</g>
<!-- ast.Name object at 0x7fe39ff34df0&#45;&gt;ast.Load object at 0x7fe3a55edff0 -->
<g id="edge35" class="edge">
<title>ast.Name object at 0x7fe39ff34df0&#45;&gt;ast.Load object at 0x7fe3a55edff0</title>
<path fill="none" stroke="black" d="M662.15,-75.27C665.07,-74.06 668.03,-72.94 670.92,-72 754.28,-44.83 856.55,-29.74 910.49,-23.12"/>
<polygon fill="black" stroke="black" points="911.1,-26.57 920.62,-21.91 910.27,-19.62 911.1,-26.57"/>
</g>
<!-- ast.Name object at 0x7fe39ff37100&#45;&gt;ast.Load object at 0x7fe3a55edff0 -->
<g id="edge37" class="edge">
<title>ast.Name object at 0x7fe39ff37100&#45;&gt;ast.Load object at 0x7fe3a55edff0</title>
<path fill="none" stroke="black" d="M734.08,-77.14C738.66,-75.32 743.4,-73.53 747.92,-72 803.8,-53.11 870.28,-36.65 910.77,-27.27"/>
<polygon fill="black" stroke="black" points="911.77,-30.63 920.73,-24.98 910.2,-23.81 911.77,-30.63"/>
</g>
<!-- ast.Call object at 0x7fe39ff34670 -->
<g id="node32" class="node">
<title>ast.Call object at 0x7fe39ff34670</title>
<path fill="#66cdaa" stroke="black" d="M849.92,-396C849.92,-396 819.92,-396 819.92,-396 813.92,-396 807.92,-390 807.92,-384 807.92,-384 807.92,-372 807.92,-372 807.92,-366 813.92,-360 819.92,-360 819.92,-360 849.92,-360 849.92,-360 855.92,-360 861.92,-366 861.92,-372 861.92,-372 861.92,-384 861.92,-384 861.92,-390 855.92,-396 849.92,-396"/>
<text text-anchor="middle" x="834.92" y="-374.3" font-family="Times,serif" font-size="14.00">Call</text>
</g>
<!-- ast.If object at 0x7fe39ff34220&#45;&gt;ast.Call object at 0x7fe39ff34670 -->
<g id="edge40" class="edge">
<title>ast.If object at 0x7fe39ff34220&#45;&gt;ast.Call object at 0x7fe39ff34670</title>
<path fill="none" stroke="black" d="M834.92,-503.87C834.92,-479.67 834.92,-435.21 834.92,-406.39"/>
<polygon fill="black" stroke="black" points="838.42,-406.19 834.92,-396.19 831.42,-406.19 838.42,-406.19"/>
</g>
<!-- ast.If object at 0x7fe39ff37b80 -->
<g id="node35" class="node">
<title>ast.If object at 0x7fe39ff37b80</title>
<path fill="#66cdaa" stroke="black" d="M1066.92,-468C1066.92,-468 1036.92,-468 1036.92,-468 1030.92,-468 1024.92,-462 1024.92,-456 1024.92,-456 1024.92,-444 1024.92,-444 1024.92,-438 1030.92,-432 1036.92,-432 1036.92,-432 1066.92,-432 1066.92,-432 1072.92,-432 1078.92,-438 1078.92,-444 1078.92,-444 1078.92,-456 1078.92,-456 1078.92,-462 1072.92,-468 1066.92,-468"/>
<text text-anchor="middle" x="1051.92" y="-446.3" font-family="Times,serif" font-size="14.00">If</text>
</g>
<!-- ast.If object at 0x7fe39ff34220&#45;&gt;ast.If object at 0x7fe39ff37b80 -->
<g id="edge45" class="edge">
<title>ast.If object at 0x7fe39ff34220&#45;&gt;ast.If object at 0x7fe39ff37b80</title>
<path fill="none" stroke="black" d="M861.97,-512.28C900.65,-499.8 971.89,-476.82 1015.28,-462.82"/>
<polygon fill="black" stroke="black" points="1016.44,-466.12 1024.88,-459.72 1014.29,-459.46 1016.44,-466.12"/>
</g>
<!-- ast.Attribute object at 0x7fe39ff36590 -->
<g id="node33" class="node">
<title>ast.Attribute object at 0x7fe39ff36590</title>
<path fill="#66cdaa" stroke="black" d="M898.42,-180C898.42,-180 857.42,-180 857.42,-180 851.42,-180 845.42,-174 845.42,-168 845.42,-168 845.42,-156 845.42,-156 845.42,-150 851.42,-144 857.42,-144 857.42,-144 898.42,-144 898.42,-144 904.42,-144 910.42,-150 910.42,-156 910.42,-156 910.42,-168 910.42,-168 910.42,-174 904.42,-180 898.42,-180"/>
<text text-anchor="middle" x="877.92" y="-158.3" font-family="Times,serif" font-size="14.00">Attribute</text>
</g>
<!-- ast.Call object at 0x7fe39ff34670&#45;&gt;ast.Attribute object at 0x7fe39ff36590 -->
<g id="edge41" class="edge">
<title>ast.Call object at 0x7fe39ff34670&#45;&gt;ast.Attribute object at 0x7fe39ff36590</title>
<path fill="none" stroke="black" d="M833.27,-359.57C831.01,-329.47 828.89,-266.15 844.92,-216 847.98,-206.45 853.14,-196.88 858.48,-188.55"/>
<polygon fill="black" stroke="black" points="861.52,-190.29 864.26,-180.06 855.74,-186.36 861.52,-190.29"/>
</g>
<!-- ast.Attribute object at 0x7fe39ff36590&#45;&gt;ast.Load object at 0x7fe3a55edff0 -->
<g id="edge44" class="edge">
<title>ast.Attribute object at 0x7fe39ff36590&#45;&gt;ast.Load object at 0x7fe3a55edff0</title>
<path fill="none" stroke="black" d="M866.9,-143.87C856.37,-125.12 843.87,-94.71 856.92,-72 868.59,-51.7 891.35,-38.45 911.19,-30.27"/>
<polygon fill="black" stroke="black" points="912.55,-33.5 920.64,-26.66 910.05,-26.97 912.55,-33.5"/>
</g>
<!-- ast.Name object at 0x7fe39ff35270 -->
<g id="node34" class="node">
<title>ast.Name object at 0x7fe39ff35270</title>
<path fill="#66cdaa" stroke="black" d="M907.92,-108C907.92,-108 877.92,-108 877.92,-108 871.92,-108 865.92,-102 865.92,-96 865.92,-96 865.92,-84 865.92,-84 865.92,-78 871.92,-72 877.92,-72 877.92,-72 907.92,-72 907.92,-72 913.92,-72 919.92,-78 919.92,-84 919.92,-84 919.92,-96 919.92,-96 919.92,-102 913.92,-108 907.92,-108"/>
<text text-anchor="middle" x="892.92" y="-86.3" font-family="Times,serif" font-size="14.00">Name</text>
</g>
<!-- ast.Attribute object at 0x7fe39ff36590&#45;&gt;ast.Name object at 0x7fe39ff35270 -->
<g id="edge42" class="edge">
<title>ast.Attribute object at 0x7fe39ff36590&#45;&gt;ast.Name object at 0x7fe39ff35270</title>
<path fill="none" stroke="black" d="M881.63,-143.7C883.29,-135.98 885.27,-126.71 887.11,-118.11"/>
<polygon fill="black" stroke="black" points="890.59,-118.62 889.26,-108.1 883.74,-117.15 890.59,-118.62"/>
</g>
<!-- ast.Name object at 0x7fe39ff35270&#45;&gt;ast.Load object at 0x7fe3a55edff0 -->
<g id="edge43" class="edge">
<title>ast.Name object at 0x7fe39ff35270&#45;&gt;ast.Load object at 0x7fe3a55edff0</title>
<path fill="none" stroke="black" d="M906.52,-71.7C913.05,-63.39 920.99,-53.28 928.17,-44.14"/>
<polygon fill="black" stroke="black" points="931.06,-46.13 934.49,-36.1 925.55,-41.81 931.06,-46.13"/>
</g>
<!-- ast.BoolOp object at 0x7fe39ff37790 -->
<g id="node36" class="node">
<title>ast.BoolOp object at 0x7fe39ff37790</title>
<path fill="#66cdaa" stroke="black" d="M1069.42,-396C1069.42,-396 1034.42,-396 1034.42,-396 1028.42,-396 1022.42,-390 1022.42,-384 1022.42,-384 1022.42,-372 1022.42,-372 1022.42,-366 1028.42,-360 1034.42,-360 1034.42,-360 1069.42,-360 1069.42,-360 1075.42,-360 1081.42,-366 1081.42,-372 1081.42,-372 1081.42,-384 1081.42,-384 1081.42,-390 1075.42,-396 1069.42,-396"/>
<text text-anchor="middle" x="1051.92" y="-374.3" font-family="Times,serif" font-size="14.00">BoolOp</text>
</g>
<!-- ast.If object at 0x7fe39ff37b80&#45;&gt;ast.BoolOp object at 0x7fe39ff37790 -->
<g id="edge46" class="edge">
<title>ast.If object at 0x7fe39ff37b80&#45;&gt;ast.BoolOp object at 0x7fe39ff37790</title>
<path fill="none" stroke="black" d="M1051.92,-431.7C1051.92,-423.98 1051.92,-414.71 1051.92,-406.11"/>
<polygon fill="black" stroke="black" points="1055.42,-406.1 1051.92,-396.1 1048.42,-406.1 1055.42,-406.1"/>
</g>
<!-- ast.Expr object at 0x7fe39ff37010 -->
<g id="node52" class="node">
<title>ast.Expr object at 0x7fe39ff37010</title>
<path fill="#66cdaa" stroke="black" d="M1316.92,-396C1316.92,-396 1286.92,-396 1286.92,-396 1280.92,-396 1274.92,-390 1274.92,-384 1274.92,-384 1274.92,-372 1274.92,-372 1274.92,-366 1280.92,-360 1286.92,-360 1286.92,-360 1316.92,-360 1316.92,-360 1322.92,-360 1328.92,-366 1328.92,-372 1328.92,-372 1328.92,-384 1328.92,-384 1328.92,-390 1322.92,-396 1316.92,-396"/>
<text text-anchor="middle" x="1301.92" y="-374.3" font-family="Times,serif" font-size="14.00">Expr</text>
</g>
<!-- ast.If object at 0x7fe39ff37b80&#45;&gt;ast.Expr object at 0x7fe39ff37010 -->
<g id="edge67" class="edge">
<title>ast.If object at 0x7fe39ff37b80&#45;&gt;ast.Expr object at 0x7fe39ff37010</title>
<path fill="none" stroke="black" d="M1079.15,-441.38C1124.14,-428.78 1214.06,-403.6 1264.82,-389.39"/>
<polygon fill="black" stroke="black" points="1266.04,-392.68 1274.73,-386.62 1264.15,-385.94 1266.04,-392.68"/>
</g>
<!-- ast.And object at 0x7fe3a55ee140 -->
<g id="node37" class="node">
<title>ast.And object at 0x7fe3a55ee140</title>
<path fill="#66cdaa" stroke="black" d="M943.92,-324C943.92,-324 913.92,-324 913.92,-324 907.92,-324 901.92,-318 901.92,-312 901.92,-312 901.92,-300 901.92,-300 901.92,-294 907.92,-288 913.92,-288 913.92,-288 943.92,-288 943.92,-288 949.92,-288 955.92,-294 955.92,-300 955.92,-300 955.92,-312 955.92,-312 955.92,-318 949.92,-324 943.92,-324"/>
<text text-anchor="middle" x="928.92" y="-302.3" font-family="Times,serif" font-size="14.00">And</text>
</g>
<!-- ast.BoolOp object at 0x7fe39ff37790&#45;&gt;ast.And object at 0x7fe3a55ee140 -->
<g id="edge47" class="edge">
<title>ast.BoolOp object at 0x7fe39ff37790&#45;&gt;ast.And object at 0x7fe3a55ee140</title>
<path fill="none" stroke="black" d="M1022.15,-360.05C1005.08,-350.34 983.51,-338.07 965.42,-327.77"/>
<polygon fill="black" stroke="black" points="966.74,-324.5 956.32,-322.59 963.28,-330.58 966.74,-324.5"/>
</g>
<!-- ast.Compare object at 0x7fe39ff34eb0 -->
<g id="node38" class="node">
<title>ast.Compare object at 0x7fe39ff34eb0</title>
<path fill="#66cdaa" stroke="black" d="M1029.42,-324C1029.42,-324 986.42,-324 986.42,-324 980.42,-324 974.42,-318 974.42,-312 974.42,-312 974.42,-300 974.42,-300 974.42,-294 980.42,-288 986.42,-288 986.42,-288 1029.42,-288 1029.42,-288 1035.42,-288 1041.42,-294 1041.42,-300 1041.42,-300 1041.42,-312 1041.42,-312 1041.42,-318 1035.42,-324 1029.42,-324"/>
<text text-anchor="middle" x="1007.92" y="-302.3" font-family="Times,serif" font-size="14.00">Compare</text>
</g>
<!-- ast.BoolOp object at 0x7fe39ff37790&#45;&gt;ast.Compare object at 0x7fe39ff34eb0 -->
<g id="edge48" class="edge">
<title>ast.BoolOp object at 0x7fe39ff37790&#45;&gt;ast.Compare object at 0x7fe39ff34eb0</title>
<path fill="none" stroke="black" d="M1041.05,-359.7C1035.93,-351.56 1029.73,-341.69 1024.08,-332.7"/>
<polygon fill="black" stroke="black" points="1026.96,-330.71 1018.68,-324.1 1021.03,-334.43 1026.96,-330.71"/>
</g>
<!-- ast.Compare object at 0x7fe39ff379a0 -->
<g id="node44" class="node">
<title>ast.Compare object at 0x7fe39ff379a0</title>
<path fill="#66cdaa" stroke="black" d="M1133.42,-324C1133.42,-324 1090.42,-324 1090.42,-324 1084.42,-324 1078.42,-318 1078.42,-312 1078.42,-312 1078.42,-300 1078.42,-300 1078.42,-294 1084.42,-288 1090.42,-288 1090.42,-288 1133.42,-288 1133.42,-288 1139.42,-288 1145.42,-294 1145.42,-300 1145.42,-300 1145.42,-312 1145.42,-312 1145.42,-318 1139.42,-324 1133.42,-324"/>
<text text-anchor="middle" x="1111.92" y="-302.3" font-family="Times,serif" font-size="14.00">Compare</text>
</g>
<!-- ast.BoolOp object at 0x7fe39ff37790&#45;&gt;ast.Compare object at 0x7fe39ff379a0 -->
<g id="edge57" class="edge">
<title>ast.BoolOp object at 0x7fe39ff37790&#45;&gt;ast.Compare object at 0x7fe39ff379a0</title>
<path fill="none" stroke="black" d="M1066.76,-359.7C1073.95,-351.3 1082.72,-341.07 1090.61,-331.86"/>
<polygon fill="black" stroke="black" points="1093.41,-333.97 1097.26,-324.1 1088.1,-329.42 1093.41,-333.97"/>
</g>
<!-- ast.Compare object at 0x7fe39ff349d0 -->
<g id="node48" class="node">
<title>ast.Compare object at 0x7fe39ff349d0</title>
<path fill="#66cdaa" stroke="black" d="M1315.42,-324C1315.42,-324 1272.42,-324 1272.42,-324 1266.42,-324 1260.42,-318 1260.42,-312 1260.42,-312 1260.42,-300 1260.42,-300 1260.42,-294 1266.42,-288 1272.42,-288 1272.42,-288 1315.42,-288 1315.42,-288 1321.42,-288 1327.42,-294 1327.42,-300 1327.42,-300 1327.42,-312 1327.42,-312 1327.42,-318 1321.42,-324 1315.42,-324"/>
<text text-anchor="middle" x="1293.92" y="-302.3" font-family="Times,serif" font-size="14.00">Compare</text>
</g>
<!-- ast.BoolOp object at 0x7fe39ff37790&#45;&gt;ast.Compare object at 0x7fe39ff349d0 -->
<g id="edge62" class="edge">
<title>ast.BoolOp object at 0x7fe39ff37790&#45;&gt;ast.Compare object at 0x7fe39ff349d0</title>
<path fill="none" stroke="black" d="M1081.6,-368.42C1123.87,-356.19 1201.7,-333.68 1250.47,-319.57"/>
<polygon fill="black" stroke="black" points="1251.48,-322.92 1260.12,-316.78 1249.54,-316.2 1251.48,-322.92"/>
</g>
<!-- ast.Call object at 0x7fe39ff37400 -->
<g id="node39" class="node">
<title>ast.Call object at 0x7fe39ff37400</title>
<path fill="#66cdaa" stroke="black" d="M967.92,-252C967.92,-252 937.92,-252 937.92,-252 931.92,-252 925.92,-246 925.92,-240 925.92,-240 925.92,-228 925.92,-228 925.92,-222 931.92,-216 937.92,-216 937.92,-216 967.92,-216 967.92,-216 973.92,-216 979.92,-222 979.92,-228 979.92,-228 979.92,-240 979.92,-240 979.92,-246 973.92,-252 967.92,-252"/>
<text text-anchor="middle" x="952.92" y="-230.3" font-family="Times,serif" font-size="14.00">Call</text>
</g>
<!-- ast.Compare object at 0x7fe39ff34eb0&#45;&gt;ast.Call object at 0x7fe39ff37400 -->
<g id="edge49" class="edge">
<title>ast.Compare object at 0x7fe39ff34eb0&#45;&gt;ast.Call object at 0x7fe39ff37400</title>
<path fill="none" stroke="black" d="M994.33,-287.7C987.8,-279.39 979.86,-269.28 972.68,-260.14"/>
<polygon fill="black" stroke="black" points="975.29,-257.81 966.36,-252.1 969.79,-262.13 975.29,-257.81"/>
</g>
<!-- ast.In object at 0x7fe3a55eec20 -->
<g id="node42" class="node">
<title>ast.In object at 0x7fe3a55eec20</title>
<path fill="#66cdaa" stroke="black" d="M895.92,-252C895.92,-252 865.92,-252 865.92,-252 859.92,-252 853.92,-246 853.92,-240 853.92,-240 853.92,-228 853.92,-228 853.92,-222 859.92,-216 865.92,-216 865.92,-216 895.92,-216 895.92,-216 901.92,-216 907.92,-222 907.92,-228 907.92,-228 907.92,-240 907.92,-240 907.92,-246 901.92,-252 895.92,-252"/>
<text text-anchor="middle" x="880.92" y="-230.3" font-family="Times,serif" font-size="14.00">In</text>
</g>
<!-- ast.Compare object at 0x7fe39ff34eb0&#45;&gt;ast.In object at 0x7fe3a55eec20 -->
<g id="edge54" class="edge">
<title>ast.Compare object at 0x7fe39ff34eb0&#45;&gt;ast.In object at 0x7fe3a55eec20</title>
<path fill="none" stroke="black" d="M976.86,-287.88C958.81,-277.93 935.98,-265.35 917.12,-254.95"/>
<polygon fill="black" stroke="black" points="918.67,-251.81 908.22,-250.05 915.29,-257.94 918.67,-251.81"/>
</g>
<!-- ast.Name object at 0x7fe39ff37490 -->
<g id="node43" class="node">
<title>ast.Name object at 0x7fe39ff37490</title>
<path fill="#66cdaa" stroke="black" d="M1089.92,-108C1089.92,-108 1059.92,-108 1059.92,-108 1053.92,-108 1047.92,-102 1047.92,-96 1047.92,-96 1047.92,-84 1047.92,-84 1047.92,-78 1053.92,-72 1059.92,-72 1059.92,-72 1089.92,-72 1089.92,-72 1095.92,-72 1101.92,-78 1101.92,-84 1101.92,-84 1101.92,-96 1101.92,-96 1101.92,-102 1095.92,-108 1089.92,-108"/>
<text text-anchor="middle" x="1074.92" y="-86.3" font-family="Times,serif" font-size="14.00">Name</text>
</g>
<!-- ast.Compare object at 0x7fe39ff34eb0&#45;&gt;ast.Name object at 0x7fe39ff37490 -->
<g id="edge55" class="edge">
<title>ast.Compare object at 0x7fe39ff34eb0&#45;&gt;ast.Name object at 0x7fe39ff37490</title>
<path fill="none" stroke="black" d="M1010.78,-287.74C1013.97,-269.66 1019.64,-240.54 1026.92,-216 1037.21,-181.33 1052.72,-142.64 1063.31,-117.61"/>
<polygon fill="black" stroke="black" points="1066.66,-118.67 1067.38,-108.1 1060.23,-115.91 1066.66,-118.67"/>
</g>
<!-- ast.Attribute object at 0x7fe39ff35c90 -->
<g id="node40" class="node">
<title>ast.Attribute object at 0x7fe39ff35c90</title>
<path fill="#66cdaa" stroke="black" d="M981.42,-180C981.42,-180 940.42,-180 940.42,-180 934.42,-180 928.42,-174 928.42,-168 928.42,-168 928.42,-156 928.42,-156 928.42,-150 934.42,-144 940.42,-144 940.42,-144 981.42,-144 981.42,-144 987.42,-144 993.42,-150 993.42,-156 993.42,-156 993.42,-168 993.42,-168 993.42,-174 987.42,-180 981.42,-180"/>
<text text-anchor="middle" x="960.92" y="-158.3" font-family="Times,serif" font-size="14.00">Attribute</text>
</g>
<!-- ast.Call object at 0x7fe39ff37400&#45;&gt;ast.Attribute object at 0x7fe39ff35c90 -->
<g id="edge50" class="edge">
<title>ast.Call object at 0x7fe39ff37400&#45;&gt;ast.Attribute object at 0x7fe39ff35c90</title>
<path fill="none" stroke="black" d="M954.9,-215.7C955.78,-207.98 956.84,-198.71 957.83,-190.11"/>
<polygon fill="black" stroke="black" points="961.31,-190.44 958.97,-180.1 954.36,-189.64 961.31,-190.44"/>
</g>
<!-- ast.Attribute object at 0x7fe39ff35c90&#45;&gt;ast.Load object at 0x7fe3a55edff0 -->
<g id="edge53" class="edge">
<title>ast.Attribute object at 0x7fe39ff35c90&#45;&gt;ast.Load object at 0x7fe3a55edff0</title>
<path fill="none" stroke="black" d="M959.36,-143.87C957.14,-119.67 953.07,-75.21 950.43,-46.39"/>
<polygon fill="black" stroke="black" points="953.9,-45.83 949.5,-36.19 946.92,-46.47 953.9,-45.83"/>
</g>
<!-- ast.Name object at 0x7fe39ff36320 -->
<g id="node41" class="node">
<title>ast.Name object at 0x7fe39ff36320</title>
<path fill="#66cdaa" stroke="black" d="M1017.92,-108C1017.92,-108 987.92,-108 987.92,-108 981.92,-108 975.92,-102 975.92,-96 975.92,-96 975.92,-84 975.92,-84 975.92,-78 981.92,-72 987.92,-72 987.92,-72 1017.92,-72 1017.92,-72 1023.92,-72 1029.92,-78 1029.92,-84 1029.92,-84 1029.92,-96 1029.92,-96 1029.92,-102 1023.92,-108 1017.92,-108"/>
<text text-anchor="middle" x="1002.92" y="-86.3" font-family="Times,serif" font-size="14.00">Name</text>
</g>
<!-- ast.Attribute object at 0x7fe39ff35c90&#45;&gt;ast.Name object at 0x7fe39ff36320 -->
<g id="edge51" class="edge">
<title>ast.Attribute object at 0x7fe39ff35c90&#45;&gt;ast.Name object at 0x7fe39ff36320</title>
<path fill="none" stroke="black" d="M971.31,-143.7C976.19,-135.56 982.11,-125.69 987.5,-116.7"/>
<polygon fill="black" stroke="black" points="990.52,-118.48 992.66,-108.1 984.52,-114.88 990.52,-118.48"/>
</g>
<!-- ast.Name object at 0x7fe39ff36320&#45;&gt;ast.Load object at 0x7fe3a55edff0 -->
<g id="edge52" class="edge">
<title>ast.Name object at 0x7fe39ff36320&#45;&gt;ast.Load object at 0x7fe3a55edff0</title>
<path fill="none" stroke="black" d="M989.33,-71.7C982.8,-63.39 974.86,-53.28 967.68,-44.14"/>
<polygon fill="black" stroke="black" points="970.29,-41.81 961.36,-36.1 964.79,-46.13 970.29,-41.81"/>
</g>
<!-- ast.Name object at 0x7fe39ff37490&#45;&gt;ast.Load object at 0x7fe3a55edff0 -->
<g id="edge56" class="edge">
<title>ast.Name object at 0x7fe39ff37490&#45;&gt;ast.Load object at 0x7fe3a55edff0</title>
<path fill="none" stroke="black" d="M1047.68,-73.98C1029.1,-63.74 1004.29,-50.07 984.06,-38.92"/>
<polygon fill="black" stroke="black" points="985.57,-35.75 975.12,-33.99 982.19,-41.88 985.57,-35.75"/>
</g>
<!-- ast.Name object at 0x7fe39ff356f0 -->
<g id="node45" class="node">
<title>ast.Name object at 0x7fe39ff356f0</title>
<path fill="#66cdaa" stroke="black" d="M1144.92,-180C1144.92,-180 1114.92,-180 1114.92,-180 1108.92,-180 1102.92,-174 1102.92,-168 1102.92,-168 1102.92,-156 1102.92,-156 1102.92,-150 1108.92,-144 1114.92,-144 1114.92,-144 1144.92,-144 1144.92,-144 1150.92,-144 1156.92,-150 1156.92,-156 1156.92,-156 1156.92,-168 1156.92,-168 1156.92,-174 1150.92,-180 1144.92,-180"/>
<text text-anchor="middle" x="1129.92" y="-158.3" font-family="Times,serif" font-size="14.00">Name</text>
</g>
<!-- ast.Compare object at 0x7fe39ff379a0&#45;&gt;ast.Name object at 0x7fe39ff356f0 -->
<g id="edge58" class="edge">
<title>ast.Compare object at 0x7fe39ff379a0&#45;&gt;ast.Name object at 0x7fe39ff356f0</title>
<path fill="none" stroke="black" d="M1114.1,-287.87C1117.16,-263.67 1122.8,-219.21 1126.45,-190.39"/>
<polygon fill="black" stroke="black" points="1129.96,-190.55 1127.75,-180.19 1123.02,-189.67 1129.96,-190.55"/>
</g>
<!-- ast.Gt object at 0x7fe3a55eeaa0 -->
<g id="node46" class="node">
<title>ast.Gt object at 0x7fe3a55eeaa0</title>
<path fill="#66cdaa" stroke="black" d="M1199.92,-252C1199.92,-252 1169.92,-252 1169.92,-252 1163.92,-252 1157.92,-246 1157.92,-240 1157.92,-240 1157.92,-228 1157.92,-228 1157.92,-222 1163.92,-216 1169.92,-216 1169.92,-216 1199.92,-216 1199.92,-216 1205.92,-216 1211.92,-222 1211.92,-228 1211.92,-228 1211.92,-240 1211.92,-240 1211.92,-246 1205.92,-252 1199.92,-252"/>
<text text-anchor="middle" x="1184.92" y="-230.3" font-family="Times,serif" font-size="14.00">Gt</text>
</g>
<!-- ast.Compare object at 0x7fe39ff379a0&#45;&gt;ast.Gt object at 0x7fe3a55eeaa0 -->
<g id="edge60" class="edge">
<title>ast.Compare object at 0x7fe39ff379a0&#45;&gt;ast.Gt object at 0x7fe3a55eeaa0</title>
<path fill="none" stroke="black" d="M1129.97,-287.7C1138.99,-279.05 1150.04,-268.45 1159.87,-259.03"/>
<polygon fill="black" stroke="black" points="1162.29,-261.55 1167.09,-252.1 1157.45,-256.5 1162.29,-261.55"/>
</g>
<!-- ast.Constant object at 0x7fe39ff35090 -->
<g id="node47" class="node">
<title>ast.Constant object at 0x7fe39ff35090</title>
<path fill="#66cdaa" stroke="black" d="M1089.42,-252C1089.42,-252 1048.42,-252 1048.42,-252 1042.42,-252 1036.42,-246 1036.42,-240 1036.42,-240 1036.42,-228 1036.42,-228 1036.42,-222 1042.42,-216 1048.42,-216 1048.42,-216 1089.42,-216 1089.42,-216 1095.42,-216 1101.42,-222 1101.42,-228 1101.42,-228 1101.42,-240 1101.42,-240 1101.42,-246 1095.42,-252 1089.42,-252"/>
<text text-anchor="middle" x="1068.92" y="-230.3" font-family="Times,serif" font-size="14.00">Constant</text>
</g>
<!-- ast.Compare object at 0x7fe39ff379a0&#45;&gt;ast.Constant object at 0x7fe39ff35090 -->
<g id="edge61" class="edge">
<title>ast.Compare object at 0x7fe39ff379a0&#45;&gt;ast.Constant object at 0x7fe39ff35090</title>
<path fill="none" stroke="black" d="M1101.3,-287.7C1096.3,-279.56 1090.23,-269.69 1084.71,-260.7"/>
<polygon fill="black" stroke="black" points="1087.65,-258.79 1079.43,-252.1 1081.68,-262.46 1087.65,-258.79"/>
</g>
<!-- ast.Name object at 0x7fe39ff356f0&#45;&gt;ast.Load object at 0x7fe3a55edff0 -->
<g id="edge59" class="edge">
<title>ast.Name object at 0x7fe39ff356f0&#45;&gt;ast.Load object at 0x7fe3a55edff0</title>
<path fill="none" stroke="black" d="M1131.03,-143.67C1131.32,-123.89 1128.69,-91.72 1110.92,-72 1078.79,-36.33 1022.42,-24.57 985.13,-20.75"/>
<polygon fill="black" stroke="black" points="985.42,-17.26 975.15,-19.87 984.8,-24.24 985.42,-17.26"/>
</g>
<!-- ast.Name object at 0x7fe39ff36b00 -->
<g id="node49" class="node">
<title>ast.Name object at 0x7fe39ff36b00</title>
<path fill="#66cdaa" stroke="black" d="M1209.92,-108C1209.92,-108 1179.92,-108 1179.92,-108 1173.92,-108 1167.92,-102 1167.92,-96 1167.92,-96 1167.92,-84 1167.92,-84 1167.92,-78 1173.92,-72 1179.92,-72 1179.92,-72 1209.92,-72 1209.92,-72 1215.92,-72 1221.92,-78 1221.92,-84 1221.92,-84 1221.92,-96 1221.92,-96 1221.92,-102 1215.92,-108 1209.92,-108"/>
<text text-anchor="middle" x="1194.92" y="-86.3" font-family="Times,serif" font-size="14.00">Name</text>
</g>
<!-- ast.Compare object at 0x7fe39ff349d0&#45;&gt;ast.Name object at 0x7fe39ff36b00 -->
<g id="edge63" class="edge">
<title>ast.Compare object at 0x7fe39ff349d0&#45;&gt;ast.Name object at 0x7fe39ff36b00</title>
<path fill="none" stroke="black" d="M1300.77,-287.7C1306.97,-269.33 1313.88,-239.74 1304.92,-216 1289.2,-174.33 1252.56,-137.54 1225.88,-114.85"/>
<polygon fill="black" stroke="black" points="1227.88,-111.97 1217.95,-108.28 1223.41,-117.36 1227.88,-111.97"/>
</g>
<!-- ast.LtE object at 0x7fe3a55eea40 -->
<g id="node50" class="node">
<title>ast.LtE object at 0x7fe3a55eea40</title>
<path fill="#66cdaa" stroke="black" d="M1393.92,-252C1393.92,-252 1363.92,-252 1363.92,-252 1357.92,-252 1351.92,-246 1351.92,-240 1351.92,-240 1351.92,-228 1351.92,-228 1351.92,-222 1357.92,-216 1363.92,-216 1363.92,-216 1393.92,-216 1393.92,-216 1399.92,-216 1405.92,-222 1405.92,-228 1405.92,-228 1405.92,-240 1405.92,-240 1405.92,-246 1399.92,-252 1393.92,-252"/>
<text text-anchor="middle" x="1378.92" y="-230.3" font-family="Times,serif" font-size="14.00">LtE</text>
</g>
<!-- ast.Compare object at 0x7fe39ff349d0&#45;&gt;ast.LtE object at 0x7fe3a55eea40 -->
<g id="edge65" class="edge">
<title>ast.Compare object at 0x7fe39ff349d0&#45;&gt;ast.LtE object at 0x7fe3a55eea40</title>
<path fill="none" stroke="black" d="M1314.94,-287.7C1325.64,-278.88 1338.81,-268.03 1350.42,-258.47"/>
<polygon fill="black" stroke="black" points="1352.66,-261.16 1358.15,-252.1 1348.21,-255.76 1352.66,-261.16"/>
</g>
<!-- ast.Constant object at 0x7fe39ff351e0 -->
<g id="node51" class="node">
<title>ast.Constant object at 0x7fe39ff351e0</title>
<path fill="#66cdaa" stroke="black" d="M1283.42,-252C1283.42,-252 1242.42,-252 1242.42,-252 1236.42,-252 1230.42,-246 1230.42,-240 1230.42,-240 1230.42,-228 1230.42,-228 1230.42,-222 1236.42,-216 1242.42,-216 1242.42,-216 1283.42,-216 1283.42,-216 1289.42,-216 1295.42,-222 1295.42,-228 1295.42,-228 1295.42,-240 1295.42,-240 1295.42,-246 1289.42,-252 1283.42,-252"/>
<text text-anchor="middle" x="1262.92" y="-230.3" font-family="Times,serif" font-size="14.00">Constant</text>
</g>
<!-- ast.Compare object at 0x7fe39ff349d0&#45;&gt;ast.Constant object at 0x7fe39ff351e0 -->
<g id="edge66" class="edge">
<title>ast.Compare object at 0x7fe39ff349d0&#45;&gt;ast.Constant object at 0x7fe39ff351e0</title>
<path fill="none" stroke="black" d="M1286.26,-287.7C1282.73,-279.73 1278.47,-270.1 1274.56,-261.26"/>
<polygon fill="black" stroke="black" points="1277.75,-259.83 1270.5,-252.1 1271.35,-262.67 1277.75,-259.83"/>
</g>
<!-- ast.Name object at 0x7fe39ff36b00&#45;&gt;ast.Load object at 0x7fe3a55edff0 -->
<g id="edge64" class="edge">
<title>ast.Name object at 0x7fe39ff36b00&#45;&gt;ast.Load object at 0x7fe3a55edff0</title>
<path fill="none" stroke="black" d="M1167.76,-79.62C1160.08,-77.06 1151.7,-74.34 1143.92,-72 1088.82,-55.38 1024.27,-38.4 984.74,-28.28"/>
<polygon fill="black" stroke="black" points="985.57,-24.88 975.01,-25.8 983.84,-31.66 985.57,-24.88"/>
</g>
<!-- ast.Call object at 0x7fe39ff37af0 -->
<g id="node53" class="node">
<title>ast.Call object at 0x7fe39ff37af0</title>
<path fill="#66cdaa" stroke="black" d="M1465.92,-252C1465.92,-252 1435.92,-252 1435.92,-252 1429.92,-252 1423.92,-246 1423.92,-240 1423.92,-240 1423.92,-228 1423.92,-228 1423.92,-222 1429.92,-216 1435.92,-216 1435.92,-216 1465.92,-216 1465.92,-216 1471.92,-216 1477.92,-222 1477.92,-228 1477.92,-228 1477.92,-240 1477.92,-240 1477.92,-246 1471.92,-252 1465.92,-252"/>
<text text-anchor="middle" x="1450.92" y="-230.3" font-family="Times,serif" font-size="14.00">Call</text>
</g>
<!-- ast.Expr object at 0x7fe39ff37010&#45;&gt;ast.Call object at 0x7fe39ff37af0 -->
<g id="edge68" class="edge">
<title>ast.Expr object at 0x7fe39ff37010&#45;&gt;ast.Call object at 0x7fe39ff37af0</title>
<path fill="none" stroke="black" d="M1319.9,-359.87C1346.19,-334.82 1395.26,-288.05 1425.32,-259.41"/>
<polygon fill="black" stroke="black" points="1428.06,-261.62 1432.89,-252.19 1423.23,-256.55 1428.06,-261.62"/>
</g>
<!-- ast.Attribute object at 0x7fe39ff34100 -->
<g id="node54" class="node">
<title>ast.Attribute object at 0x7fe39ff34100</title>
<path fill="#66cdaa" stroke="black" d="M1393.42,-180C1393.42,-180 1352.42,-180 1352.42,-180 1346.42,-180 1340.42,-174 1340.42,-168 1340.42,-168 1340.42,-156 1340.42,-156 1340.42,-150 1346.42,-144 1352.42,-144 1352.42,-144 1393.42,-144 1393.42,-144 1399.42,-144 1405.42,-150 1405.42,-156 1405.42,-156 1405.42,-168 1405.42,-168 1405.42,-174 1399.42,-180 1393.42,-180"/>
<text text-anchor="middle" x="1372.92" y="-158.3" font-family="Times,serif" font-size="14.00">Attribute</text>
</g>
<!-- ast.Call object at 0x7fe39ff37af0&#45;&gt;ast.Attribute object at 0x7fe39ff34100 -->
<g id="edge69" class="edge">
<title>ast.Call object at 0x7fe39ff37af0&#45;&gt;ast.Attribute object at 0x7fe39ff34100</title>
<path fill="none" stroke="black" d="M1431.64,-215.7C1422.01,-207.05 1410.2,-196.45 1399.7,-187.03"/>
<polygon fill="black" stroke="black" points="1401.76,-184.18 1391.98,-180.1 1397.09,-189.39 1401.76,-184.18"/>
</g>
<!-- ast.Name object at 0x7fe39ff34400 -->
<g id="node56" class="node">
<title>ast.Name object at 0x7fe39ff34400</title>
<path fill="#66cdaa" stroke="black" d="M1465.92,-180C1465.92,-180 1435.92,-180 1435.92,-180 1429.92,-180 1423.92,-174 1423.92,-168 1423.92,-168 1423.92,-156 1423.92,-156 1423.92,-150 1429.92,-144 1435.92,-144 1435.92,-144 1465.92,-144 1465.92,-144 1471.92,-144 1477.92,-150 1477.92,-156 1477.92,-156 1477.92,-168 1477.92,-168 1477.92,-174 1471.92,-180 1465.92,-180"/>
<text text-anchor="middle" x="1450.92" y="-158.3" font-family="Times,serif" font-size="14.00">Name</text>
</g>
<!-- ast.Call object at 0x7fe39ff37af0&#45;&gt;ast.Name object at 0x7fe39ff34400 -->
<g id="edge73" class="edge">
<title>ast.Call object at 0x7fe39ff37af0&#45;&gt;ast.Name object at 0x7fe39ff34400</title>
<path fill="none" stroke="black" d="M1450.92,-215.7C1450.92,-207.98 1450.92,-198.71 1450.92,-190.11"/>
<polygon fill="black" stroke="black" points="1454.42,-190.1 1450.92,-180.1 1447.42,-190.1 1454.42,-190.1"/>
</g>
<!-- ast.Attribute object at 0x7fe39ff34100&#45;&gt;ast.Load object at 0x7fe3a55edff0 -->
<g id="edge72" class="edge">
<title>ast.Attribute object at 0x7fe39ff34100&#45;&gt;ast.Load object at 0x7fe3a55edff0</title>
<path fill="none" stroke="black" d="M1351.21,-143.71C1324.5,-123.34 1276.99,-90 1230.92,-72 1146.73,-39.1 1040.26,-26.23 985.01,-21.52"/>
<polygon fill="black" stroke="black" points="985.23,-18.02 974.98,-20.7 984.66,-25 985.23,-18.02"/>
</g>
<!-- ast.Name object at 0x7fe39ff359c0 -->
<g id="node55" class="node">
<title>ast.Name object at 0x7fe39ff359c0</title>
<path fill="#66cdaa" stroke="black" d="M1377.92,-108C1377.92,-108 1347.92,-108 1347.92,-108 1341.92,-108 1335.92,-102 1335.92,-96 1335.92,-96 1335.92,-84 1335.92,-84 1335.92,-78 1341.92,-72 1347.92,-72 1347.92,-72 1377.92,-72 1377.92,-72 1383.92,-72 1389.92,-78 1389.92,-84 1389.92,-84 1389.92,-96 1389.92,-96 1389.92,-102 1383.92,-108 1377.92,-108"/>
<text text-anchor="middle" x="1362.92" y="-86.3" font-family="Times,serif" font-size="14.00">Name</text>
</g>
<!-- ast.Attribute object at 0x7fe39ff34100&#45;&gt;ast.Name object at 0x7fe39ff359c0 -->
<g id="edge70" class="edge">
<title>ast.Attribute object at 0x7fe39ff34100&#45;&gt;ast.Name object at 0x7fe39ff359c0</title>
<path fill="none" stroke="black" d="M1370.45,-143.7C1369.35,-135.98 1368.03,-126.71 1366.8,-118.11"/>
<polygon fill="black" stroke="black" points="1370.25,-117.51 1365.37,-108.1 1363.32,-118.5 1370.25,-117.51"/>
</g>
<!-- ast.Name object at 0x7fe39ff359c0&#45;&gt;ast.Load object at 0x7fe3a55edff0 -->
<g id="edge71" class="edge">
<title>ast.Name object at 0x7fe39ff359c0&#45;&gt;ast.Load object at 0x7fe3a55edff0</title>
<path fill="none" stroke="black" d="M1335.63,-80.47C1325.44,-77.5 1313.72,-74.33 1302.92,-72 1188.38,-47.33 1050.58,-30.31 985.49,-23.01"/>
<polygon fill="black" stroke="black" points="985.63,-19.5 975.31,-21.88 984.86,-26.46 985.63,-19.5"/>
</g>
<!-- ast.Name object at 0x7fe39ff34400&#45;&gt;ast.Load object at 0x7fe3a55edff0 -->
<g id="edge74" class="edge">
<title>ast.Name object at 0x7fe39ff34400&#45;&gt;ast.Load object at 0x7fe3a55edff0</title>
<path fill="none" stroke="black" d="M1446.12,-143.99C1439.3,-123.24 1424.68,-88.86 1398.92,-72 1330.97,-27.53 1080.29,-20.31 985,-19.19"/>
<polygon fill="black" stroke="black" points="985,-15.69 974.96,-19.08 984.93,-22.69 985,-15.69"/>
</g>
<!-- ast.Name object at 0x7fe39ff37cd0 -->
<g id="node58" class="node">
<title>ast.Name object at 0x7fe39ff37cd0</title>
<path fill="#66cdaa" stroke="black" d="M1476.92,-396C1476.92,-396 1446.92,-396 1446.92,-396 1440.92,-396 1434.92,-390 1434.92,-384 1434.92,-384 1434.92,-372 1434.92,-372 1434.92,-366 1440.92,-360 1446.92,-360 1446.92,-360 1476.92,-360 1476.92,-360 1482.92,-360 1488.92,-366 1488.92,-372 1488.92,-372 1488.92,-384 1488.92,-384 1488.92,-390 1482.92,-396 1476.92,-396"/>
<text text-anchor="middle" x="1461.92" y="-374.3" font-family="Times,serif" font-size="14.00">Name</text>
</g>
<!-- ast.Return object at 0x7fe39ff34520&#45;&gt;ast.Name object at 0x7fe39ff37cd0 -->
<g id="edge76" class="edge">
<title>ast.Return object at 0x7fe39ff34520&#45;&gt;ast.Name object at 0x7fe39ff37cd0</title>
<path fill="none" stroke="black" d="M984.08,-581.49C1068.85,-545.57 1328.71,-435.45 1425.28,-394.53"/>
<polygon fill="black" stroke="black" points="1426.8,-397.69 1434.64,-390.56 1424.07,-391.24 1426.8,-397.69"/>
</g>
<!-- ast.Name object at 0x7fe39ff37cd0&#45;&gt;ast.Load object at 0x7fe3a55edff0 -->
<g id="edge77" class="edge">
<title>ast.Name object at 0x7fe39ff37cd0&#45;&gt;ast.Load object at 0x7fe3a55edff0</title>
<path fill="none" stroke="black" d="M1471.04,-359.61C1483.93,-333.36 1505.92,-281.71 1505.92,-235 1505.92,-235 1505.92,-235 1505.92,-161 1505.92,-108.4 1474.56,-96.31 1427.92,-72 1350.9,-31.85 1084.12,-21.97 985.2,-19.67"/>
<polygon fill="black" stroke="black" points="985.15,-16.16 975.08,-19.44 985,-23.16 985.15,-16.16"/>
</g>
</g>
</svg>
