<?xml version="1.0" encoding="UTF-8" standalone="no"?>
<!DOCTYPE svg PUBLIC "-//W3C//DTD SVG 1.1//EN"
 "http://www.w3.org/Graphics/SVG/1.1/DTD/svg11.dtd">
<!-- Generated by graphviz version 2.43.0 (0)
 -->
<!-- Title: %3 Pages: 1 -->
<svg width="1111pt" height="548pt"
 viewBox="0.00 0.00 1111.00 548.00" xmlns="http://www.w3.org/2000/svg" xmlns:xlink="http://www.w3.org/1999/xlink">
<g id="graph0" class="graph" transform="scale(1 1) rotate(0) translate(4 544)">
<title>%3</title>
<polygon fill="white" stroke="transparent" points="-4,4 -4,-544 1107,-544 1107,4 -4,4"/>
<!-- ast.Module object at 0x7f77c1292860 -->
<g id="node1" class="node">
<title>ast.Module object at 0x7f77c1292860</title>
<path fill="#66cdaa" stroke="black" d="M551.5,-540C551.5,-540 516.5,-540 516.5,-540 510.5,-540 504.5,-534 504.5,-528 504.5,-528 504.5,-516 504.5,-516 504.5,-510 510.5,-504 516.5,-504 516.5,-504 551.5,-504 551.5,-504 557.5,-504 563.5,-510 563.5,-516 563.5,-516 563.5,-528 563.5,-528 563.5,-534 557.5,-540 551.5,-540"/>
<text text-anchor="middle" x="534" y="-518.3" font-family="Times,serif" font-size="14.00">Module</text>
</g>
<!-- ast.FunctionDef object at 0x7f77c1290ee0 -->
<g id="node2" class="node">
<title>ast.FunctionDef object at 0x7f77c1290ee0</title>
<path fill="#66cdaa" stroke="black" d="M564.5,-468C564.5,-468 503.5,-468 503.5,-468 497.5,-468 491.5,-462 491.5,-456 491.5,-456 491.5,-444 491.5,-444 491.5,-438 497.5,-432 503.5,-432 503.5,-432 564.5,-432 564.5,-432 570.5,-432 576.5,-438 576.5,-444 576.5,-444 576.5,-456 576.5,-456 576.5,-462 570.5,-468 564.5,-468"/>
<text text-anchor="middle" x="534" y="-446.3" font-family="Times,serif" font-size="14.00">FunctionDef</text>
</g>
<!-- ast.Module object at 0x7f77c1292860&#45;&gt;ast.FunctionDef object at 0x7f77c1290ee0 -->
<g id="edge1" class="edge">
<title>ast.Module object at 0x7f77c1292860&#45;&gt;ast.FunctionDef object at 0x7f77c1290ee0</title>
<path fill="none" stroke="black" d="M534,-503.7C534,-495.98 534,-486.71 534,-478.11"/>
<polygon fill="black" stroke="black" points="537.5,-478.1 534,-468.1 530.5,-478.1 537.5,-478.1"/>
</g>
<!-- ast.arguments object at 0x7f77c1293fa0 -->
<g id="node3" class="node">
<title>ast.arguments object at 0x7f77c1293fa0</title>
<path fill="#66cdaa" stroke="black" d="M367,-396C367,-396 317,-396 317,-396 311,-396 305,-390 305,-384 305,-384 305,-372 305,-372 305,-366 311,-360 317,-360 317,-360 367,-360 367,-360 373,-360 379,-366 379,-372 379,-372 379,-384 379,-384 379,-390 373,-396 367,-396"/>
<text text-anchor="middle" x="342" y="-374.3" font-family="Times,serif" font-size="14.00">arguments</text>
</g>
<!-- ast.FunctionDef object at 0x7f77c1290ee0&#45;&gt;ast.arguments object at 0x7f77c1293fa0 -->
<g id="edge2" class="edge">
<title>ast.FunctionDef object at 0x7f77c1290ee0&#45;&gt;ast.arguments object at 0x7f77c1293fa0</title>
<path fill="none" stroke="black" d="M491.39,-433.46C461.08,-422.42 420.37,-407.57 389.1,-396.17"/>
<polygon fill="black" stroke="black" points="389.9,-392.74 379.3,-392.6 387.5,-399.31 389.9,-392.74"/>
</g>
<!-- ast.If object at 0x7f77c1290460 -->
<g id="node5" class="node">
<title>ast.If object at 0x7f77c1290460</title>
<path fill="#66cdaa" stroke="black" d="M477,-396C477,-396 447,-396 447,-396 441,-396 435,-390 435,-384 435,-384 435,-372 435,-372 435,-366 441,-360 447,-360 447,-360 477,-360 477,-360 483,-360 489,-366 489,-372 489,-372 489,-384 489,-384 489,-390 483,-396 477,-396"/>
<text text-anchor="middle" x="462" y="-374.3" font-family="Times,serif" font-size="14.00">If</text>
</g>
<!-- ast.FunctionDef object at 0x7f77c1290ee0&#45;&gt;ast.If object at 0x7f77c1290460 -->
<g id="edge4" class="edge">
<title>ast.FunctionDef object at 0x7f77c1290ee0&#45;&gt;ast.If object at 0x7f77c1290460</title>
<path fill="none" stroke="black" d="M516.2,-431.7C507.4,-423.14 496.62,-412.66 487,-403.3"/>
<polygon fill="black" stroke="black" points="489.2,-400.57 479.59,-396.1 484.32,-405.58 489.2,-400.57"/>
</g>
<!-- ast.Assign object at 0x7f77c1291f60 -->
<g id="node23" class="node">
<title>ast.Assign object at 0x7f77c1291f60</title>
<path fill="#66cdaa" stroke="black" d="M1005,-396C1005,-396 975,-396 975,-396 969,-396 963,-390 963,-384 963,-384 963,-372 963,-372 963,-366 969,-360 975,-360 975,-360 1005,-360 1005,-360 1011,-360 1017,-366 1017,-372 1017,-372 1017,-384 1017,-384 1017,-390 1011,-396 1005,-396"/>
<text text-anchor="middle" x="990" y="-374.3" font-family="Times,serif" font-size="14.00">Assign</text>
</g>
<!-- ast.FunctionDef object at 0x7f77c1290ee0&#45;&gt;ast.Assign object at 0x7f77c1291f60 -->
<g id="edge26" class="edge">
<title>ast.FunctionDef object at 0x7f77c1290ee0&#45;&gt;ast.Assign object at 0x7f77c1291f60</title>
<path fill="none" stroke="black" d="M576.9,-442.41C665.88,-428.76 869.19,-397.55 952.92,-384.69"/>
<polygon fill="black" stroke="black" points="953.63,-388.12 962.99,-383.15 952.57,-381.2 953.63,-388.12"/>
</g>
<!-- ast.For object at 0x7f77c1291510 -->
<g id="node27" class="node">
<title>ast.For object at 0x7f77c1291510</title>
<path fill="#66cdaa" stroke="black" d="M778,-396C778,-396 748,-396 748,-396 742,-396 736,-390 736,-384 736,-384 736,-372 736,-372 736,-366 742,-360 748,-360 748,-360 778,-360 778,-360 784,-360 790,-366 790,-372 790,-372 790,-384 790,-384 790,-390 784,-396 778,-396"/>
<text text-anchor="middle" x="763" y="-374.3" font-family="Times,serif" font-size="14.00">For</text>
</g>
<!-- ast.FunctionDef object at 0x7f77c1290ee0&#45;&gt;ast.For object at 0x7f77c1291510 -->
<g id="edge30" class="edge">
<title>ast.FunctionDef object at 0x7f77c1290ee0&#45;&gt;ast.For object at 0x7f77c1291510</title>
<path fill="none" stroke="black" d="M576.54,-436C619.55,-422.85 685.36,-402.73 726.2,-390.25"/>
<polygon fill="black" stroke="black" points="727.23,-393.59 735.77,-387.32 725.18,-386.9 727.23,-393.59"/>
</g>
<!-- ast.Return object at 0x7f77c1290250 -->
<g id="node45" class="node">
<title>ast.Return object at 0x7f77c1290250</title>
<path fill="#66cdaa" stroke="black" d="M549,-396C549,-396 519,-396 519,-396 513,-396 507,-390 507,-384 507,-384 507,-372 507,-372 507,-366 513,-360 519,-360 519,-360 549,-360 549,-360 555,-360 561,-366 561,-372 561,-372 561,-384 561,-384 561,-390 555,-396 549,-396"/>
<text text-anchor="middle" x="534" y="-374.3" font-family="Times,serif" font-size="14.00">Return</text>
</g>
<!-- ast.FunctionDef object at 0x7f77c1290ee0&#45;&gt;ast.Return object at 0x7f77c1290250 -->
<g id="edge54" class="edge">
<title>ast.FunctionDef object at 0x7f77c1290ee0&#45;&gt;ast.Return object at 0x7f77c1290250</title>
<path fill="none" stroke="black" d="M534,-431.7C534,-423.98 534,-414.71 534,-406.11"/>
<polygon fill="black" stroke="black" points="537.5,-406.1 534,-396.1 530.5,-406.1 537.5,-406.1"/>
</g>
<!-- ast.arg object at 0x7f77c1290cd0 -->
<g id="node4" class="node">
<title>ast.arg object at 0x7f77c1290cd0</title>
<path fill="#66cdaa" stroke="black" d="M319,-324C319,-324 289,-324 289,-324 283,-324 277,-318 277,-312 277,-312 277,-300 277,-300 277,-294 283,-288 289,-288 289,-288 319,-288 319,-288 325,-288 331,-294 331,-300 331,-300 331,-312 331,-312 331,-318 325,-324 319,-324"/>
<text text-anchor="middle" x="304" y="-302.3" font-family="Times,serif" font-size="14.00">arg</text>
</g>
<!-- ast.arguments object at 0x7f77c1293fa0&#45;&gt;ast.arg object at 0x7f77c1290cd0 -->
<g id="edge3" class="edge">
<title>ast.arguments object at 0x7f77c1293fa0&#45;&gt;ast.arg object at 0x7f77c1290cd0</title>
<path fill="none" stroke="black" d="M332.61,-359.7C328.24,-351.64 322.94,-341.89 318.1,-332.98"/>
<polygon fill="black" stroke="black" points="321.13,-331.22 313.29,-324.1 314.98,-334.56 321.13,-331.22"/>
</g>
<!-- ast.UnaryOp object at 0x7f77c12910f0 -->
<g id="node6" class="node">
<title>ast.UnaryOp object at 0x7f77c12910f0</title>
<path fill="#66cdaa" stroke="black" d="M404.5,-324C404.5,-324 361.5,-324 361.5,-324 355.5,-324 349.5,-318 349.5,-312 349.5,-312 349.5,-300 349.5,-300 349.5,-294 355.5,-288 361.5,-288 361.5,-288 404.5,-288 404.5,-288 410.5,-288 416.5,-294 416.5,-300 416.5,-300 416.5,-312 416.5,-312 416.5,-318 410.5,-324 404.5,-324"/>
<text text-anchor="middle" x="383" y="-302.3" font-family="Times,serif" font-size="14.00">UnaryOp</text>
</g>
<!-- ast.If object at 0x7f77c1290460&#45;&gt;ast.UnaryOp object at 0x7f77c12910f0 -->
<g id="edge5" class="edge">
<title>ast.If object at 0x7f77c1290460&#45;&gt;ast.UnaryOp object at 0x7f77c12910f0</title>
<path fill="none" stroke="black" d="M442.47,-359.7C432.62,-350.97 420.51,-340.24 409.8,-330.75"/>
<polygon fill="black" stroke="black" points="412.11,-328.12 402.3,-324.1 407.47,-333.36 412.11,-328.12"/>
</g>
<!-- ast.Raise object at 0x7f77c1292dd0 -->
<g id="node19" class="node">
<title>ast.Raise object at 0x7f77c1292dd0</title>
<path fill="#66cdaa" stroke="black" d="M477,-324C477,-324 447,-324 447,-324 441,-324 435,-318 435,-312 435,-312 435,-300 435,-300 435,-294 441,-288 447,-288 447,-288 477,-288 477,-288 483,-288 489,-294 489,-300 489,-300 489,-312 489,-312 489,-318 483,-324 477,-324"/>
<text text-anchor="middle" x="462" y="-302.3" font-family="Times,serif" font-size="14.00">Raise</text>
</g>
<!-- ast.If object at 0x7f77c1290460&#45;&gt;ast.Raise object at 0x7f77c1292dd0 -->
<g id="edge21" class="edge">
<title>ast.If object at 0x7f77c1290460&#45;&gt;ast.Raise object at 0x7f77c1292dd0</title>
<path fill="none" stroke="black" d="M462,-359.7C462,-351.98 462,-342.71 462,-334.11"/>
<polygon fill="black" stroke="black" points="465.5,-334.1 462,-324.1 458.5,-334.1 465.5,-334.1"/>
</g>
<!-- ast.Not object at 0x7f77c6af27d0 -->
<g id="node7" class="node">
<title>ast.Not object at 0x7f77c6af27d0</title>
<path fill="#66cdaa" stroke="black" d="M398,-252C398,-252 368,-252 368,-252 362,-252 356,-246 356,-240 356,-240 356,-228 356,-228 356,-222 362,-216 368,-216 368,-216 398,-216 398,-216 404,-216 410,-222 410,-228 410,-228 410,-240 410,-240 410,-246 404,-252 398,-252"/>
<text text-anchor="middle" x="383" y="-230.3" font-family="Times,serif" font-size="14.00">Not</text>
</g>
<!-- ast.UnaryOp object at 0x7f77c12910f0&#45;&gt;ast.Not object at 0x7f77c6af27d0 -->
<g id="edge6" class="edge">
<title>ast.UnaryOp object at 0x7f77c12910f0&#45;&gt;ast.Not object at 0x7f77c6af27d0</title>
<path fill="none" stroke="black" d="M383,-287.7C383,-279.98 383,-270.71 383,-262.11"/>
<polygon fill="black" stroke="black" points="386.5,-262.1 383,-252.1 379.5,-262.1 386.5,-262.1"/>
</g>
<!-- ast.BoolOp object at 0x7f77c1292920 -->
<g id="node8" class="node">
<title>ast.BoolOp object at 0x7f77c1292920</title>
<path fill="#66cdaa" stroke="black" d="M306.5,-252C306.5,-252 271.5,-252 271.5,-252 265.5,-252 259.5,-246 259.5,-240 259.5,-240 259.5,-228 259.5,-228 259.5,-222 265.5,-216 271.5,-216 271.5,-216 306.5,-216 306.5,-216 312.5,-216 318.5,-222 318.5,-228 318.5,-228 318.5,-240 318.5,-240 318.5,-246 312.5,-252 306.5,-252"/>
<text text-anchor="middle" x="289" y="-230.3" font-family="Times,serif" font-size="14.00">BoolOp</text>
</g>
<!-- ast.UnaryOp object at 0x7f77c12910f0&#45;&gt;ast.BoolOp object at 0x7f77c1292920 -->
<g id="edge7" class="edge">
<title>ast.UnaryOp object at 0x7f77c12910f0&#45;&gt;ast.BoolOp object at 0x7f77c1292920</title>
<path fill="none" stroke="black" d="M359.76,-287.7C347.81,-278.8 333.08,-267.82 320.15,-258.2"/>
<polygon fill="black" stroke="black" points="322.08,-255.27 311.97,-252.1 317.9,-260.88 322.08,-255.27"/>
</g>
<!-- ast.And object at 0x7f77c6af2140 -->
<g id="node9" class="node">
<title>ast.And object at 0x7f77c6af2140</title>
<path fill="#66cdaa" stroke="black" d="M119,-180C119,-180 89,-180 89,-180 83,-180 77,-174 77,-168 77,-168 77,-156 77,-156 77,-150 83,-144 89,-144 89,-144 119,-144 119,-144 125,-144 131,-150 131,-156 131,-156 131,-168 131,-168 131,-174 125,-180 119,-180"/>
<text text-anchor="middle" x="104" y="-158.3" font-family="Times,serif" font-size="14.00">And</text>
</g>
<!-- ast.BoolOp object at 0x7f77c1292920&#45;&gt;ast.And object at 0x7f77c6af2140 -->
<g id="edge8" class="edge">
<title>ast.BoolOp object at 0x7f77c1292920&#45;&gt;ast.And object at 0x7f77c6af2140</title>
<path fill="none" stroke="black" d="M259.27,-223.4C230.91,-214.02 186.88,-198.92 140.91,-180.2"/>
<polygon fill="black" stroke="black" points="141.97,-176.85 131.39,-176.28 139.31,-183.32 141.97,-176.85"/>
</g>
<!-- ast.Call object at 0x7f77c1291390 -->
<g id="node10" class="node">
<title>ast.Call object at 0x7f77c1291390</title>
<path fill="#66cdaa" stroke="black" d="M327,-180C327,-180 297,-180 297,-180 291,-180 285,-174 285,-168 285,-168 285,-156 285,-156 285,-150 291,-144 297,-144 297,-144 327,-144 327,-144 333,-144 339,-150 339,-156 339,-156 339,-168 339,-168 339,-174 333,-180 327,-180"/>
<text text-anchor="middle" x="312" y="-158.3" font-family="Times,serif" font-size="14.00">Call</text>
</g>
<!-- ast.BoolOp object at 0x7f77c1292920&#45;&gt;ast.Call object at 0x7f77c1291390 -->
<g id="edge9" class="edge">
<title>ast.BoolOp object at 0x7f77c1292920&#45;&gt;ast.Call object at 0x7f77c1291390</title>
<path fill="none" stroke="black" d="M294.69,-215.7C297.25,-207.9 300.33,-198.51 303.18,-189.83"/>
<polygon fill="black" stroke="black" points="306.58,-190.7 306.38,-180.1 299.93,-188.51 306.58,-190.7"/>
</g>
<!-- ast.Compare object at 0x7f77c12907c0 -->
<g id="node15" class="node">
<title>ast.Compare object at 0x7f77c12907c0</title>
<path fill="#66cdaa" stroke="black" d="M204.5,-180C204.5,-180 161.5,-180 161.5,-180 155.5,-180 149.5,-174 149.5,-168 149.5,-168 149.5,-156 149.5,-156 149.5,-150 155.5,-144 161.5,-144 161.5,-144 204.5,-144 204.5,-144 210.5,-144 216.5,-150 216.5,-156 216.5,-156 216.5,-168 216.5,-168 216.5,-174 210.5,-180 204.5,-180"/>
<text text-anchor="middle" x="183" y="-158.3" font-family="Times,serif" font-size="14.00">Compare</text>
</g>
<!-- ast.BoolOp object at 0x7f77c1292920&#45;&gt;ast.Compare object at 0x7f77c12907c0 -->
<g id="edge16" class="edge">
<title>ast.BoolOp object at 0x7f77c1292920&#45;&gt;ast.Compare object at 0x7f77c12907c0</title>
<path fill="none" stroke="black" d="M263.07,-215.88C249.34,-206.81 232.29,-195.55 217.46,-185.76"/>
<polygon fill="black" stroke="black" points="219.3,-182.78 209.03,-180.19 215.45,-188.62 219.3,-182.78"/>
</g>
<!-- ast.Name object at 0x7f77c1292fe0 -->
<g id="node11" class="node">
<title>ast.Name object at 0x7f77c1292fe0</title>
<path fill="#66cdaa" stroke="black" d="M342,-108C342,-108 312,-108 312,-108 306,-108 300,-102 300,-96 300,-96 300,-84 300,-84 300,-78 306,-72 312,-72 312,-72 342,-72 342,-72 348,-72 354,-78 354,-84 354,-84 354,-96 354,-96 354,-102 348,-108 342,-108"/>
<text text-anchor="middle" x="327" y="-86.3" font-family="Times,serif" font-size="14.00">Name</text>
</g>
<!-- ast.Call object at 0x7f77c1291390&#45;&gt;ast.Name object at 0x7f77c1292fe0 -->
<g id="edge10" class="edge">
<title>ast.Call object at 0x7f77c1291390&#45;&gt;ast.Name object at 0x7f77c1292fe0</title>
<path fill="none" stroke="black" d="M315.71,-143.7C317.36,-135.98 319.35,-126.71 321.19,-118.11"/>
<polygon fill="black" stroke="black" points="324.66,-118.62 323.33,-108.1 317.82,-117.15 324.66,-118.62"/>
</g>
<!-- ast.Name object at 0x7f77c12903a0 -->
<g id="node13" class="node">
<title>ast.Name object at 0x7f77c12903a0</title>
<path fill="#66cdaa" stroke="black" d="M414,-108C414,-108 384,-108 384,-108 378,-108 372,-102 372,-96 372,-96 372,-84 372,-84 372,-78 378,-72 384,-72 384,-72 414,-72 414,-72 420,-72 426,-78 426,-84 426,-84 426,-96 426,-96 426,-102 420,-108 414,-108"/>
<text text-anchor="middle" x="399" y="-86.3" font-family="Times,serif" font-size="14.00">Name</text>
</g>
<!-- ast.Call object at 0x7f77c1291390&#45;&gt;ast.Name object at 0x7f77c12903a0 -->
<g id="edge12" class="edge">
<title>ast.Call object at 0x7f77c1291390&#45;&gt;ast.Name object at 0x7f77c12903a0</title>
<path fill="none" stroke="black" d="M333.51,-143.7C344.46,-134.88 357.95,-124.03 369.82,-114.47"/>
<polygon fill="black" stroke="black" points="372.14,-117.1 377.74,-108.1 367.76,-111.65 372.14,-117.1"/>
</g>
<!-- ast.Name object at 0x7f77c1290760 -->
<g id="node14" class="node">
<title>ast.Name object at 0x7f77c1290760</title>
<path fill="#66cdaa" stroke="black" d="M270,-108C270,-108 240,-108 240,-108 234,-108 228,-102 228,-96 228,-96 228,-84 228,-84 228,-78 234,-72 240,-72 240,-72 270,-72 270,-72 276,-72 282,-78 282,-84 282,-84 282,-96 282,-96 282,-102 276,-108 270,-108"/>
<text text-anchor="middle" x="255" y="-86.3" font-family="Times,serif" font-size="14.00">Name</text>
</g>
<!-- ast.Call object at 0x7f77c1291390&#45;&gt;ast.Name object at 0x7f77c1290760 -->
<g id="edge14" class="edge">
<title>ast.Call object at 0x7f77c1291390&#45;&gt;ast.Name object at 0x7f77c1290760</title>
<path fill="none" stroke="black" d="M297.91,-143.7C291.08,-135.3 282.74,-125.07 275.24,-115.86"/>
<polygon fill="black" stroke="black" points="277.96,-113.65 268.93,-108.1 272.53,-118.07 277.96,-113.65"/>
</g>
<!-- ast.Load object at 0x7f77c6af1ff0 -->
<g id="node12" class="node">
<title>ast.Load object at 0x7f77c6af1ff0</title>
<path fill="#66cdaa" stroke="black" d="M513,-36C513,-36 483,-36 483,-36 477,-36 471,-30 471,-24 471,-24 471,-12 471,-12 471,-6 477,0 483,0 483,0 513,0 513,0 519,0 525,-6 525,-12 525,-12 525,-24 525,-24 525,-30 519,-36 513,-36"/>
<text text-anchor="middle" x="498" y="-14.3" font-family="Times,serif" font-size="14.00">Load</text>
</g>
<!-- ast.Name object at 0x7f77c1292fe0&#45;&gt;ast.Load object at 0x7f77c6af1ff0 -->
<g id="edge11" class="edge">
<title>ast.Name object at 0x7f77c1292fe0&#45;&gt;ast.Load object at 0x7f77c6af1ff0</title>
<path fill="none" stroke="black" d="M354.04,-75.99C357.05,-74.62 360.08,-73.26 363,-72 395.94,-57.78 434.04,-42.96 461.35,-32.63"/>
<polygon fill="black" stroke="black" points="462.77,-35.83 470.89,-29.03 460.3,-29.28 462.77,-35.83"/>
</g>
<!-- ast.Name object at 0x7f77c12903a0&#45;&gt;ast.Load object at 0x7f77c6af1ff0 -->
<g id="edge13" class="edge">
<title>ast.Name object at 0x7f77c12903a0&#45;&gt;ast.Load object at 0x7f77c6af1ff0</title>
<path fill="none" stroke="black" d="M423.22,-71.88C435.92,-62.89 451.66,-51.76 465.42,-42.03"/>
<polygon fill="black" stroke="black" points="467.54,-44.82 473.69,-36.19 463.5,-39.11 467.54,-44.82"/>
</g>
<!-- ast.Name object at 0x7f77c1290760&#45;&gt;ast.Load object at 0x7f77c6af1ff0 -->
<g id="edge15" class="edge">
<title>ast.Name object at 0x7f77c1290760&#45;&gt;ast.Load object at 0x7f77c6af1ff0</title>
<path fill="none" stroke="black" d="M282.29,-75.46C285.2,-74.21 288.14,-73.03 291,-72 348.91,-51.13 418.72,-35.05 460.67,-26.31"/>
<polygon fill="black" stroke="black" points="461.62,-29.69 470.71,-24.25 460.21,-22.84 461.62,-29.69"/>
</g>
<!-- ast.Name object at 0x7f77c1292080 -->
<g id="node16" class="node">
<title>ast.Name object at 0x7f77c1292080</title>
<path fill="#66cdaa" stroke="black" d="M42,-108C42,-108 12,-108 12,-108 6,-108 0,-102 0,-96 0,-96 0,-84 0,-84 0,-78 6,-72 12,-72 12,-72 42,-72 42,-72 48,-72 54,-78 54,-84 54,-84 54,-96 54,-96 54,-102 48,-108 42,-108"/>
<text text-anchor="middle" x="27" y="-86.3" font-family="Times,serif" font-size="14.00">Name</text>
</g>
<!-- ast.Compare object at 0x7f77c12907c0&#45;&gt;ast.Name object at 0x7f77c1292080 -->
<g id="edge17" class="edge">
<title>ast.Compare object at 0x7f77c12907c0&#45;&gt;ast.Name object at 0x7f77c1292080</title>
<path fill="none" stroke="black" d="M149.28,-146.38C127.15,-136.72 97.38,-123.62 63.32,-108.1"/>
<polygon fill="black" stroke="black" points="64.64,-104.86 54.09,-103.88 61.73,-111.22 64.64,-104.86"/>
</g>
<!-- ast.Gt object at 0x7f77c6af2aa0 -->
<g id="node17" class="node">
<title>ast.Gt object at 0x7f77c6af2aa0</title>
<path fill="#66cdaa" stroke="black" d="M198,-108C198,-108 168,-108 168,-108 162,-108 156,-102 156,-96 156,-96 156,-84 156,-84 156,-78 162,-72 168,-72 168,-72 198,-72 198,-72 204,-72 210,-78 210,-84 210,-84 210,-96 210,-96 210,-102 204,-108 198,-108"/>
<text text-anchor="middle" x="183" y="-86.3" font-family="Times,serif" font-size="14.00">Gt</text>
</g>
<!-- ast.Compare object at 0x7f77c12907c0&#45;&gt;ast.Gt object at 0x7f77c6af2aa0 -->
<g id="edge19" class="edge">
<title>ast.Compare object at 0x7f77c12907c0&#45;&gt;ast.Gt object at 0x7f77c6af2aa0</title>
<path fill="none" stroke="black" d="M183,-143.7C183,-135.98 183,-126.71 183,-118.11"/>
<polygon fill="black" stroke="black" points="186.5,-118.1 183,-108.1 179.5,-118.1 186.5,-118.1"/>
</g>
<!-- ast.Constant object at 0x7f77c12914e0 -->
<g id="node18" class="node">
<title>ast.Constant object at 0x7f77c12914e0</title>
<path fill="#66cdaa" stroke="black" d="M125.5,-108C125.5,-108 84.5,-108 84.5,-108 78.5,-108 72.5,-102 72.5,-96 72.5,-96 72.5,-84 72.5,-84 72.5,-78 78.5,-72 84.5,-72 84.5,-72 125.5,-72 125.5,-72 131.5,-72 137.5,-78 137.5,-84 137.5,-84 137.5,-96 137.5,-96 137.5,-102 131.5,-108 125.5,-108"/>
<text text-anchor="middle" x="105" y="-86.3" font-family="Times,serif" font-size="14.00">Constant</text>
</g>
<!-- ast.Compare object at 0x7f77c12907c0&#45;&gt;ast.Constant object at 0x7f77c12914e0 -->
<g id="edge20" class="edge">
<title>ast.Compare object at 0x7f77c12907c0&#45;&gt;ast.Constant object at 0x7f77c12914e0</title>
<path fill="none" stroke="black" d="M163.72,-143.7C154.08,-135.05 142.27,-124.45 131.77,-115.03"/>
<polygon fill="black" stroke="black" points="133.84,-112.18 124.06,-108.1 129.16,-117.39 133.84,-112.18"/>
</g>
<!-- ast.Name object at 0x7f77c1292080&#45;&gt;ast.Load object at 0x7f77c6af1ff0 -->
<g id="edge18" class="edge">
<title>ast.Name object at 0x7f77c1292080&#45;&gt;ast.Load object at 0x7f77c6af1ff0</title>
<path fill="none" stroke="black" d="M54.16,-75.07C57.1,-73.9 60.08,-72.84 63,-72 206.11,-30.66 384.76,-21.55 460.88,-19.56"/>
<polygon fill="black" stroke="black" points="461.01,-23.05 470.93,-19.32 460.85,-16.06 461.01,-23.05"/>
</g>
<!-- ast.Call object at 0x7f77c12929b0 -->
<g id="node20" class="node">
<title>ast.Call object at 0x7f77c12929b0</title>
<path fill="#66cdaa" stroke="black" d="M477,-252C477,-252 447,-252 447,-252 441,-252 435,-246 435,-240 435,-240 435,-228 435,-228 435,-222 441,-216 447,-216 447,-216 477,-216 477,-216 483,-216 489,-222 489,-228 489,-228 489,-240 489,-240 489,-246 483,-252 477,-252"/>
<text text-anchor="middle" x="462" y="-230.3" font-family="Times,serif" font-size="14.00">Call</text>
</g>
<!-- ast.Raise object at 0x7f77c1292dd0&#45;&gt;ast.Call object at 0x7f77c12929b0 -->
<g id="edge22" class="edge">
<title>ast.Raise object at 0x7f77c1292dd0&#45;&gt;ast.Call object at 0x7f77c12929b0</title>
<path fill="none" stroke="black" d="M462,-287.7C462,-279.98 462,-270.71 462,-262.11"/>
<polygon fill="black" stroke="black" points="465.5,-262.1 462,-252.1 458.5,-262.1 465.5,-262.1"/>
</g>
<!-- ast.Name object at 0x7f77c1293e80 -->
<g id="node21" class="node">
<title>ast.Name object at 0x7f77c1293e80</title>
<path fill="#66cdaa" stroke="black" d="M486,-108C486,-108 456,-108 456,-108 450,-108 444,-102 444,-96 444,-96 444,-84 444,-84 444,-78 450,-72 456,-72 456,-72 486,-72 486,-72 492,-72 498,-78 498,-84 498,-84 498,-96 498,-96 498,-102 492,-108 486,-108"/>
<text text-anchor="middle" x="471" y="-86.3" font-family="Times,serif" font-size="14.00">Name</text>
</g>
<!-- ast.Call object at 0x7f77c12929b0&#45;&gt;ast.Name object at 0x7f77c1293e80 -->
<g id="edge23" class="edge">
<title>ast.Call object at 0x7f77c12929b0&#45;&gt;ast.Name object at 0x7f77c1293e80</title>
<path fill="none" stroke="black" d="M463.09,-215.87C464.62,-191.67 467.44,-147.21 469.26,-118.39"/>
<polygon fill="black" stroke="black" points="472.77,-118.39 469.91,-108.19 465.78,-117.95 472.77,-118.39"/>
</g>
<!-- ast.Constant object at 0x7f77c1291fc0 -->
<g id="node22" class="node">
<title>ast.Constant object at 0x7f77c1291fc0</title>
<path fill="#66cdaa" stroke="black" d="M430.5,-180C430.5,-180 389.5,-180 389.5,-180 383.5,-180 377.5,-174 377.5,-168 377.5,-168 377.5,-156 377.5,-156 377.5,-150 383.5,-144 389.5,-144 389.5,-144 430.5,-144 430.5,-144 436.5,-144 442.5,-150 442.5,-156 442.5,-156 442.5,-168 442.5,-168 442.5,-174 436.5,-180 430.5,-180"/>
<text text-anchor="middle" x="410" y="-158.3" font-family="Times,serif" font-size="14.00">Constant</text>
</g>
<!-- ast.Call object at 0x7f77c12929b0&#45;&gt;ast.Constant object at 0x7f77c1291fc0 -->
<g id="edge25" class="edge">
<title>ast.Call object at 0x7f77c12929b0&#45;&gt;ast.Constant object at 0x7f77c1291fc0</title>
<path fill="none" stroke="black" d="M449.15,-215.7C442.97,-207.39 435.46,-197.28 428.68,-188.14"/>
<polygon fill="black" stroke="black" points="431.48,-186.04 422.71,-180.1 425.86,-190.22 431.48,-186.04"/>
</g>
<!-- ast.Name object at 0x7f77c1293e80&#45;&gt;ast.Load object at 0x7f77c6af1ff0 -->
<g id="edge24" class="edge">
<title>ast.Name object at 0x7f77c1293e80&#45;&gt;ast.Load object at 0x7f77c6af1ff0</title>
<path fill="none" stroke="black" d="M477.67,-71.7C480.71,-63.81 484.38,-54.3 487.76,-45.55"/>
<polygon fill="black" stroke="black" points="491.07,-46.69 491.4,-36.1 484.54,-44.17 491.07,-46.69"/>
</g>
<!-- ast.Name object at 0x7f77c12907f0 -->
<g id="node24" class="node">
<title>ast.Name object at 0x7f77c12907f0</title>
<path fill="#66cdaa" stroke="black" d="M1091,-324C1091,-324 1061,-324 1061,-324 1055,-324 1049,-318 1049,-312 1049,-312 1049,-300 1049,-300 1049,-294 1055,-288 1061,-288 1061,-288 1091,-288 1091,-288 1097,-288 1103,-294 1103,-300 1103,-300 1103,-312 1103,-312 1103,-318 1097,-324 1091,-324"/>
<text text-anchor="middle" x="1076" y="-302.3" font-family="Times,serif" font-size="14.00">Name</text>
</g>
<!-- ast.Assign object at 0x7f77c1291f60&#45;&gt;ast.Name object at 0x7f77c12907f0 -->
<g id="edge27" class="edge">
<title>ast.Assign object at 0x7f77c1291f60&#45;&gt;ast.Name object at 0x7f77c12907f0</title>
<path fill="none" stroke="black" d="M1011.26,-359.7C1022.09,-350.88 1035.42,-340.03 1047.16,-330.47"/>
<polygon fill="black" stroke="black" points="1049.44,-333.13 1054.99,-324.1 1045.02,-327.7 1049.44,-333.13"/>
</g>
<!-- ast.Constant object at 0x7f77c1293f70 -->
<g id="node26" class="node">
<title>ast.Constant object at 0x7f77c1293f70</title>
<path fill="#66cdaa" stroke="black" d="M1010.5,-324C1010.5,-324 969.5,-324 969.5,-324 963.5,-324 957.5,-318 957.5,-312 957.5,-312 957.5,-300 957.5,-300 957.5,-294 963.5,-288 969.5,-288 969.5,-288 1010.5,-288 1010.5,-288 1016.5,-288 1022.5,-294 1022.5,-300 1022.5,-300 1022.5,-312 1022.5,-312 1022.5,-318 1016.5,-324 1010.5,-324"/>
<text text-anchor="middle" x="990" y="-302.3" font-family="Times,serif" font-size="14.00">Constant</text>
</g>
<!-- ast.Assign object at 0x7f77c1291f60&#45;&gt;ast.Constant object at 0x7f77c1293f70 -->
<g id="edge29" class="edge">
<title>ast.Assign object at 0x7f77c1291f60&#45;&gt;ast.Constant object at 0x7f77c1293f70</title>
<path fill="none" stroke="black" d="M990,-359.7C990,-351.98 990,-342.71 990,-334.11"/>
<polygon fill="black" stroke="black" points="993.5,-334.1 990,-324.1 986.5,-334.1 993.5,-334.1"/>
</g>
<!-- ast.Store object at 0x7f77c6af2050 -->
<g id="node25" class="node">
<title>ast.Store object at 0x7f77c6af2050</title>
<path fill="#66cdaa" stroke="black" d="M1086,-108C1086,-108 1056,-108 1056,-108 1050,-108 1044,-102 1044,-96 1044,-96 1044,-84 1044,-84 1044,-78 1050,-72 1056,-72 1056,-72 1086,-72 1086,-72 1092,-72 1098,-78 1098,-84 1098,-84 1098,-96 1098,-96 1098,-102 1092,-108 1086,-108"/>
<text text-anchor="middle" x="1071" y="-86.3" font-family="Times,serif" font-size="14.00">Store</text>
</g>
<!-- ast.Name object at 0x7f77c12907f0&#45;&gt;ast.Store object at 0x7f77c6af2050 -->
<g id="edge28" class="edge">
<title>ast.Name object at 0x7f77c12907f0&#45;&gt;ast.Store object at 0x7f77c6af2050</title>
<path fill="none" stroke="black" d="M1076.41,-287.82C1076.63,-277.44 1076.89,-263.96 1077,-252 1077.15,-236 1077.38,-232 1077,-216 1076.2,-182.51 1074.18,-144.02 1072.71,-118.7"/>
<polygon fill="black" stroke="black" points="1076.19,-118.16 1072.1,-108.38 1069.2,-118.57 1076.19,-118.16"/>
</g>
<!-- ast.Name object at 0x7f77c1292fb0 -->
<g id="node28" class="node">
<title>ast.Name object at 0x7f77c1292fb0</title>
<path fill="#66cdaa" stroke="black" d="M1056,-252C1056,-252 1026,-252 1026,-252 1020,-252 1014,-246 1014,-240 1014,-240 1014,-228 1014,-228 1014,-222 1020,-216 1026,-216 1026,-216 1056,-216 1056,-216 1062,-216 1068,-222 1068,-228 1068,-228 1068,-240 1068,-240 1068,-246 1062,-252 1056,-252"/>
<text text-anchor="middle" x="1041" y="-230.3" font-family="Times,serif" font-size="14.00">Name</text>
</g>
<!-- ast.For object at 0x7f77c1291510&#45;&gt;ast.Name object at 0x7f77c1292fb0 -->
<g id="edge31" class="edge">
<title>ast.For object at 0x7f77c1291510&#45;&gt;ast.Name object at 0x7f77c1292fb0</title>
<path fill="none" stroke="black" d="M790.16,-363.13C840.51,-337.41 948.31,-282.34 1004.79,-253.5"/>
<polygon fill="black" stroke="black" points="1006.41,-256.6 1013.73,-248.93 1003.23,-250.36 1006.41,-256.6"/>
</g>
<!-- ast.Call object at 0x7f77c1293370 -->
<g id="node29" class="node">
<title>ast.Call object at 0x7f77c1293370</title>
<path fill="#66cdaa" stroke="black" d="M715,-324C715,-324 685,-324 685,-324 679,-324 673,-318 673,-312 673,-312 673,-300 673,-300 673,-294 679,-288 685,-288 685,-288 715,-288 715,-288 721,-288 727,-294 727,-300 727,-300 727,-312 727,-312 727,-318 721,-324 715,-324"/>
<text text-anchor="middle" x="700" y="-302.3" font-family="Times,serif" font-size="14.00">Call</text>
</g>
<!-- ast.For object at 0x7f77c1291510&#45;&gt;ast.Call object at 0x7f77c1293370 -->
<g id="edge33" class="edge">
<title>ast.For object at 0x7f77c1291510&#45;&gt;ast.Call object at 0x7f77c1293370</title>
<path fill="none" stroke="black" d="M747.43,-359.7C739.8,-351.22 730.48,-340.86 722.12,-331.58"/>
<polygon fill="black" stroke="black" points="724.69,-329.2 715.39,-324.1 719.48,-333.88 724.69,-329.2"/>
</g>
<!-- ast.If object at 0x7f77c1293c40 -->
<g id="node33" class="node">
<title>ast.If object at 0x7f77c1293c40</title>
<path fill="#66cdaa" stroke="black" d="M841,-324C841,-324 811,-324 811,-324 805,-324 799,-318 799,-312 799,-312 799,-300 799,-300 799,-294 805,-288 811,-288 811,-288 841,-288 841,-288 847,-288 853,-294 853,-300 853,-300 853,-312 853,-312 853,-318 847,-324 841,-324"/>
<text text-anchor="middle" x="826" y="-302.3" font-family="Times,serif" font-size="14.00">If</text>
</g>
<!-- ast.For object at 0x7f77c1291510&#45;&gt;ast.If object at 0x7f77c1293c40 -->
<g id="edge38" class="edge">
<title>ast.For object at 0x7f77c1291510&#45;&gt;ast.If object at 0x7f77c1293c40</title>
<path fill="none" stroke="black" d="M778.57,-359.7C786.2,-351.22 795.52,-340.86 803.88,-331.58"/>
<polygon fill="black" stroke="black" points="806.52,-333.88 810.61,-324.1 801.31,-329.2 806.52,-333.88"/>
</g>
<!-- ast.Name object at 0x7f77c1292fb0&#45;&gt;ast.Store object at 0x7f77c6af2050 -->
<g id="edge32" class="edge">
<title>ast.Name object at 0x7f77c1292fb0&#45;&gt;ast.Store object at 0x7f77c6af2050</title>
<path fill="none" stroke="black" d="M1044.62,-215.87C1049.75,-191.56 1059.21,-146.82 1065.29,-118.01"/>
<polygon fill="black" stroke="black" points="1068.73,-118.7 1067.37,-108.19 1061.88,-117.25 1068.73,-118.7"/>
</g>
<!-- ast.Name object at 0x7f77c1290940 -->
<g id="node30" class="node">
<title>ast.Name object at 0x7f77c1290940</title>
<path fill="#66cdaa" stroke="black" d="M596,-252C596,-252 566,-252 566,-252 560,-252 554,-246 554,-240 554,-240 554,-228 554,-228 554,-222 560,-216 566,-216 566,-216 596,-216 596,-216 602,-216 608,-222 608,-228 608,-228 608,-240 608,-240 608,-246 602,-252 596,-252"/>
<text text-anchor="middle" x="581" y="-230.3" font-family="Times,serif" font-size="14.00">Name</text>
</g>
<!-- ast.Call object at 0x7f77c1293370&#45;&gt;ast.Name object at 0x7f77c1290940 -->
<g id="edge34" class="edge">
<title>ast.Call object at 0x7f77c1293370&#45;&gt;ast.Name object at 0x7f77c1290940</title>
<path fill="none" stroke="black" d="M673,-289.12C656.53,-279.43 635.27,-266.92 617.34,-256.38"/>
<polygon fill="black" stroke="black" points="618.7,-253.12 608.31,-251.06 615.15,-259.15 618.7,-253.12"/>
</g>
<!-- ast.Constant object at 0x7f77c1292e90 -->
<g id="node31" class="node">
<title>ast.Constant object at 0x7f77c1292e90</title>
<path fill="#66cdaa" stroke="black" d="M679.5,-252C679.5,-252 638.5,-252 638.5,-252 632.5,-252 626.5,-246 626.5,-240 626.5,-240 626.5,-228 626.5,-228 626.5,-222 632.5,-216 638.5,-216 638.5,-216 679.5,-216 679.5,-216 685.5,-216 691.5,-222 691.5,-228 691.5,-228 691.5,-240 691.5,-240 691.5,-246 685.5,-252 679.5,-252"/>
<text text-anchor="middle" x="659" y="-230.3" font-family="Times,serif" font-size="14.00">Constant</text>
</g>
<!-- ast.Call object at 0x7f77c1293370&#45;&gt;ast.Constant object at 0x7f77c1292e90 -->
<g id="edge36" class="edge">
<title>ast.Call object at 0x7f77c1293370&#45;&gt;ast.Constant object at 0x7f77c1292e90</title>
<path fill="none" stroke="black" d="M689.87,-287.7C685.15,-279.64 679.44,-269.89 674.22,-260.98"/>
<polygon fill="black" stroke="black" points="677.09,-258.96 669.02,-252.1 671.05,-262.5 677.09,-258.96"/>
</g>
<!-- ast.Constant object at 0x7f77c1291bd0 -->
<g id="node32" class="node">
<title>ast.Constant object at 0x7f77c1291bd0</title>
<path fill="#66cdaa" stroke="black" d="M762.5,-252C762.5,-252 721.5,-252 721.5,-252 715.5,-252 709.5,-246 709.5,-240 709.5,-240 709.5,-228 709.5,-228 709.5,-222 715.5,-216 721.5,-216 721.5,-216 762.5,-216 762.5,-216 768.5,-216 774.5,-222 774.5,-228 774.5,-228 774.5,-240 774.5,-240 774.5,-246 768.5,-252 762.5,-252"/>
<text text-anchor="middle" x="742" y="-230.3" font-family="Times,serif" font-size="14.00">Constant</text>
</g>
<!-- ast.Call object at 0x7f77c1293370&#45;&gt;ast.Constant object at 0x7f77c1291bd0 -->
<g id="edge37" class="edge">
<title>ast.Call object at 0x7f77c1293370&#45;&gt;ast.Constant object at 0x7f77c1291bd0</title>
<path fill="none" stroke="black" d="M710.38,-287.7C715.26,-279.56 721.19,-269.69 726.58,-260.7"/>
<polygon fill="black" stroke="black" points="729.59,-262.48 731.74,-252.1 723.59,-258.88 729.59,-262.48"/>
</g>
<!-- ast.Name object at 0x7f77c1290940&#45;&gt;ast.Load object at 0x7f77c6af1ff0 -->
<g id="edge35" class="edge">
<title>ast.Name object at 0x7f77c1290940&#45;&gt;ast.Load object at 0x7f77c6af1ff0</title>
<path fill="none" stroke="black" d="M579.02,-215.73C575.01,-185.33 564.19,-120.85 540,-72 535.16,-62.22 528.29,-52.55 521.51,-44.2"/>
<polygon fill="black" stroke="black" points="523.97,-41.69 514.83,-36.34 518.64,-46.22 523.97,-41.69"/>
</g>
<!-- ast.Compare object at 0x7f77c1293c70 -->
<g id="node34" class="node">
<title>ast.Compare object at 0x7f77c1293c70</title>
<path fill="#66cdaa" stroke="black" d="M847.5,-252C847.5,-252 804.5,-252 804.5,-252 798.5,-252 792.5,-246 792.5,-240 792.5,-240 792.5,-228 792.5,-228 792.5,-222 798.5,-216 804.5,-216 804.5,-216 847.5,-216 847.5,-216 853.5,-216 859.5,-222 859.5,-228 859.5,-228 859.5,-240 859.5,-240 859.5,-246 853.5,-252 847.5,-252"/>
<text text-anchor="middle" x="826" y="-230.3" font-family="Times,serif" font-size="14.00">Compare</text>
</g>
<!-- ast.If object at 0x7f77c1293c40&#45;&gt;ast.Compare object at 0x7f77c1293c70 -->
<g id="edge39" class="edge">
<title>ast.If object at 0x7f77c1293c40&#45;&gt;ast.Compare object at 0x7f77c1293c70</title>
<path fill="none" stroke="black" d="M826,-287.7C826,-279.98 826,-270.71 826,-262.11"/>
<polygon fill="black" stroke="black" points="829.5,-262.1 826,-252.1 822.5,-262.1 829.5,-262.1"/>
</g>
<!-- ast.AugAssign object at 0x7f77c1293b80 -->
<g id="node41" class="node">
<title>ast.AugAssign object at 0x7f77c1293b80</title>
<path fill="#66cdaa" stroke="black" d="M969.5,-252C969.5,-252 916.5,-252 916.5,-252 910.5,-252 904.5,-246 904.5,-240 904.5,-240 904.5,-228 904.5,-228 904.5,-222 910.5,-216 916.5,-216 916.5,-216 969.5,-216 969.5,-216 975.5,-216 981.5,-222 981.5,-228 981.5,-228 981.5,-240 981.5,-240 981.5,-246 975.5,-252 969.5,-252"/>
<text text-anchor="middle" x="943" y="-230.3" font-family="Times,serif" font-size="14.00">AugAssign</text>
</g>
<!-- ast.If object at 0x7f77c1293c40&#45;&gt;ast.AugAssign object at 0x7f77c1293b80 -->
<g id="edge48" class="edge">
<title>ast.If object at 0x7f77c1293c40&#45;&gt;ast.AugAssign object at 0x7f77c1293b80</title>
<path fill="none" stroke="black" d="M853.14,-288.76C868.77,-279.41 888.65,-267.52 905.74,-257.29"/>
<polygon fill="black" stroke="black" points="907.59,-260.26 914.38,-252.12 904,-254.25 907.59,-260.26"/>
</g>
<!-- ast.BinOp object at 0x7f77c1293190 -->
<g id="node35" class="node">
<title>ast.BinOp object at 0x7f77c1293190</title>
<path fill="#66cdaa" stroke="black" d="M659,-180C659,-180 629,-180 629,-180 623,-180 617,-174 617,-168 617,-168 617,-156 617,-156 617,-150 623,-144 629,-144 629,-144 659,-144 659,-144 665,-144 671,-150 671,-156 671,-156 671,-168 671,-168 671,-174 665,-180 659,-180"/>
<text text-anchor="middle" x="644" y="-158.3" font-family="Times,serif" font-size="14.00">BinOp</text>
</g>
<!-- ast.Compare object at 0x7f77c1293c70&#45;&gt;ast.BinOp object at 0x7f77c1293190 -->
<g id="edge40" class="edge">
<title>ast.Compare object at 0x7f77c1293c70&#45;&gt;ast.BinOp object at 0x7f77c1293190</title>
<path fill="none" stroke="black" d="M792.13,-219.13C789.39,-218.05 786.65,-217 784,-216 738.62,-198.9 725.97,-198.14 681,-180 680.9,-179.96 680.8,-179.92 680.7,-179.88"/>
<polygon fill="black" stroke="black" points="681.93,-176.6 671.35,-175.92 679.19,-183.04 681.93,-176.6"/>
</g>
<!-- ast.Eq object at 0x7f77c6af2920 -->
<g id="node39" class="node">
<title>ast.Eq object at 0x7f77c6af2920</title>
<path fill="#66cdaa" stroke="black" d="M815,-180C815,-180 785,-180 785,-180 779,-180 773,-174 773,-168 773,-168 773,-156 773,-156 773,-150 779,-144 785,-144 785,-144 815,-144 815,-144 821,-144 827,-150 827,-156 827,-156 827,-168 827,-168 827,-174 821,-180 815,-180"/>
<text text-anchor="middle" x="800" y="-158.3" font-family="Times,serif" font-size="14.00">Eq</text>
</g>
<!-- ast.Compare object at 0x7f77c1293c70&#45;&gt;ast.Eq object at 0x7f77c6af2920 -->
<g id="edge46" class="edge">
<title>ast.Compare object at 0x7f77c1293c70&#45;&gt;ast.Eq object at 0x7f77c6af2920</title>
<path fill="none" stroke="black" d="M819.57,-215.7C816.64,-207.81 813.11,-198.3 809.86,-189.55"/>
<polygon fill="black" stroke="black" points="813.12,-188.26 806.35,-180.1 806.55,-190.7 813.12,-188.26"/>
</g>
<!-- ast.Constant object at 0x7f77c1293460 -->
<g id="node40" class="node">
<title>ast.Constant object at 0x7f77c1293460</title>
<path fill="#66cdaa" stroke="black" d="M742.5,-180C742.5,-180 701.5,-180 701.5,-180 695.5,-180 689.5,-174 689.5,-168 689.5,-168 689.5,-156 689.5,-156 689.5,-150 695.5,-144 701.5,-144 701.5,-144 742.5,-144 742.5,-144 748.5,-144 754.5,-150 754.5,-156 754.5,-156 754.5,-168 754.5,-168 754.5,-174 748.5,-180 742.5,-180"/>
<text text-anchor="middle" x="722" y="-158.3" font-family="Times,serif" font-size="14.00">Constant</text>
</g>
<!-- ast.Compare object at 0x7f77c1293c70&#45;&gt;ast.Constant object at 0x7f77c1293460 -->
<g id="edge47" class="edge">
<title>ast.Compare object at 0x7f77c1293c70&#45;&gt;ast.Constant object at 0x7f77c1293460</title>
<path fill="none" stroke="black" d="M800.56,-215.88C787.21,-206.89 770.68,-195.76 756.22,-186.03"/>
<polygon fill="black" stroke="black" points="757.79,-182.87 747.54,-180.19 753.88,-188.68 757.79,-182.87"/>
</g>
<!-- ast.Name object at 0x7f77c1292e00 -->
<g id="node36" class="node">
<title>ast.Name object at 0x7f77c1292e00</title>
<path fill="#66cdaa" stroke="black" d="M634,-108C634,-108 604,-108 604,-108 598,-108 592,-102 592,-96 592,-96 592,-84 592,-84 592,-78 598,-72 604,-72 604,-72 634,-72 634,-72 640,-72 646,-78 646,-84 646,-84 646,-96 646,-96 646,-102 640,-108 634,-108"/>
<text text-anchor="middle" x="619" y="-86.3" font-family="Times,serif" font-size="14.00">Name</text>
</g>
<!-- ast.BinOp object at 0x7f77c1293190&#45;&gt;ast.Name object at 0x7f77c1292e00 -->
<g id="edge41" class="edge">
<title>ast.BinOp object at 0x7f77c1293190&#45;&gt;ast.Name object at 0x7f77c1292e00</title>
<path fill="none" stroke="black" d="M637.82,-143.7C635,-135.81 631.61,-126.3 628.48,-117.55"/>
<polygon fill="black" stroke="black" points="631.77,-116.34 625.11,-108.1 625.18,-118.7 631.77,-116.34"/>
</g>
<!-- ast.Mod object at 0x7f77c6af2410 -->
<g id="node37" class="node">
<title>ast.Mod object at 0x7f77c6af2410</title>
<path fill="#66cdaa" stroke="black" d="M778,-108C778,-108 748,-108 748,-108 742,-108 736,-102 736,-96 736,-96 736,-84 736,-84 736,-78 742,-72 748,-72 748,-72 778,-72 778,-72 784,-72 790,-78 790,-84 790,-84 790,-96 790,-96 790,-102 784,-108 778,-108"/>
<text text-anchor="middle" x="763" y="-86.3" font-family="Times,serif" font-size="14.00">Mod</text>
</g>
<!-- ast.BinOp object at 0x7f77c1293190&#45;&gt;ast.Mod object at 0x7f77c6af2410 -->
<g id="edge43" class="edge">
<title>ast.BinOp object at 0x7f77c1293190&#45;&gt;ast.Mod object at 0x7f77c6af2410</title>
<path fill="none" stroke="black" d="M671,-145.12C687.47,-135.43 708.73,-122.92 726.66,-112.38"/>
<polygon fill="black" stroke="black" points="728.85,-115.15 735.69,-107.06 725.3,-109.12 728.85,-115.15"/>
</g>
<!-- ast.Name object at 0x7f77c1290880 -->
<g id="node38" class="node">
<title>ast.Name object at 0x7f77c1290880</title>
<path fill="#66cdaa" stroke="black" d="M706,-108C706,-108 676,-108 676,-108 670,-108 664,-102 664,-96 664,-96 664,-84 664,-84 664,-78 670,-72 676,-72 676,-72 706,-72 706,-72 712,-72 718,-78 718,-84 718,-84 718,-96 718,-96 718,-102 712,-108 706,-108"/>
<text text-anchor="middle" x="691" y="-86.3" font-family="Times,serif" font-size="14.00">Name</text>
</g>
<!-- ast.BinOp object at 0x7f77c1293190&#45;&gt;ast.Name object at 0x7f77c1290880 -->
<g id="edge44" class="edge">
<title>ast.BinOp object at 0x7f77c1293190&#45;&gt;ast.Name object at 0x7f77c1290880</title>
<path fill="none" stroke="black" d="M655.62,-143.7C661.14,-135.47 667.85,-125.48 673.93,-116.42"/>
<polygon fill="black" stroke="black" points="676.85,-118.36 679.52,-108.1 671.04,-114.46 676.85,-118.36"/>
</g>
<!-- ast.Name object at 0x7f77c1292e00&#45;&gt;ast.Load object at 0x7f77c6af1ff0 -->
<g id="edge42" class="edge">
<title>ast.Name object at 0x7f77c1292e00&#45;&gt;ast.Load object at 0x7f77c6af1ff0</title>
<path fill="none" stroke="black" d="M591.85,-73.29C574.72,-63.38 552.41,-50.48 533.84,-39.73"/>
<polygon fill="black" stroke="black" points="535.47,-36.63 525.06,-34.66 531.97,-42.69 535.47,-36.63"/>
</g>
<!-- ast.Name object at 0x7f77c1290880&#45;&gt;ast.Load object at 0x7f77c6af1ff0 -->
<g id="edge45" class="edge">
<title>ast.Name object at 0x7f77c1290880&#45;&gt;ast.Load object at 0x7f77c6af1ff0</title>
<path fill="none" stroke="black" d="M663.63,-75.67C660.73,-74.39 657.82,-73.14 655,-72 614.56,-55.69 566.96,-40.11 534.86,-30.12"/>
<polygon fill="black" stroke="black" points="535.6,-26.68 525.01,-27.07 533.53,-33.37 535.6,-26.68"/>
</g>
<!-- ast.Name object at 0x7f77c12920e0 -->
<g id="node42" class="node">
<title>ast.Name object at 0x7f77c12920e0</title>
<path fill="#66cdaa" stroke="black" d="M1031,-180C1031,-180 1001,-180 1001,-180 995,-180 989,-174 989,-168 989,-168 989,-156 989,-156 989,-150 995,-144 1001,-144 1001,-144 1031,-144 1031,-144 1037,-144 1043,-150 1043,-156 1043,-156 1043,-168 1043,-168 1043,-174 1037,-180 1031,-180"/>
<text text-anchor="middle" x="1016" y="-158.3" font-family="Times,serif" font-size="14.00">Name</text>
</g>
<!-- ast.AugAssign object at 0x7f77c1293b80&#45;&gt;ast.Name object at 0x7f77c12920e0 -->
<g id="edge49" class="edge">
<title>ast.AugAssign object at 0x7f77c1293b80&#45;&gt;ast.Name object at 0x7f77c12920e0</title>
<path fill="none" stroke="black" d="M961.04,-215.7C970.06,-207.05 981.12,-196.45 990.94,-187.03"/>
<polygon fill="black" stroke="black" points="993.37,-189.55 998.16,-180.1 988.52,-184.5 993.37,-189.55"/>
</g>
<!-- ast.Add object at 0x7f77c6af2230 -->
<g id="node43" class="node">
<title>ast.Add object at 0x7f77c6af2230</title>
<path fill="#66cdaa" stroke="black" d="M959,-180C959,-180 929,-180 929,-180 923,-180 917,-174 917,-168 917,-168 917,-156 917,-156 917,-150 923,-144 929,-144 929,-144 959,-144 959,-144 965,-144 971,-150 971,-156 971,-156 971,-168 971,-168 971,-174 965,-180 959,-180"/>
<text text-anchor="middle" x="944" y="-158.3" font-family="Times,serif" font-size="14.00">Add</text>
</g>
<!-- ast.AugAssign object at 0x7f77c1293b80&#45;&gt;ast.Add object at 0x7f77c6af2230 -->
<g id="edge51" class="edge">
<title>ast.AugAssign object at 0x7f77c1293b80&#45;&gt;ast.Add object at 0x7f77c6af2230</title>
<path fill="none" stroke="black" d="M943.25,-215.7C943.36,-207.98 943.49,-198.71 943.61,-190.11"/>
<polygon fill="black" stroke="black" points="947.11,-190.15 943.76,-180.1 940.11,-190.05 947.11,-190.15"/>
</g>
<!-- ast.Name object at 0x7f77c12930d0 -->
<g id="node44" class="node">
<title>ast.Name object at 0x7f77c12930d0</title>
<path fill="#66cdaa" stroke="black" d="M887,-180C887,-180 857,-180 857,-180 851,-180 845,-174 845,-168 845,-168 845,-156 845,-156 845,-150 851,-144 857,-144 857,-144 887,-144 887,-144 893,-144 899,-150 899,-156 899,-156 899,-168 899,-168 899,-174 893,-180 887,-180"/>
<text text-anchor="middle" x="872" y="-158.3" font-family="Times,serif" font-size="14.00">Name</text>
</g>
<!-- ast.AugAssign object at 0x7f77c1293b80&#45;&gt;ast.Name object at 0x7f77c12930d0 -->
<g id="edge52" class="edge">
<title>ast.AugAssign object at 0x7f77c1293b80&#45;&gt;ast.Name object at 0x7f77c12930d0</title>
<path fill="none" stroke="black" d="M925.45,-215.7C916.77,-207.14 906.14,-196.66 896.65,-187.3"/>
<polygon fill="black" stroke="black" points="898.93,-184.63 889.35,-180.1 894.01,-189.62 898.93,-184.63"/>
</g>
<!-- ast.Name object at 0x7f77c12920e0&#45;&gt;ast.Store object at 0x7f77c6af2050 -->
<g id="edge50" class="edge">
<title>ast.Name object at 0x7f77c12920e0&#45;&gt;ast.Store object at 0x7f77c6af2050</title>
<path fill="none" stroke="black" d="M1029.6,-143.7C1036.12,-135.39 1044.07,-125.28 1051.25,-116.14"/>
<polygon fill="black" stroke="black" points="1054.13,-118.13 1057.56,-108.1 1048.63,-113.81 1054.13,-118.13"/>
</g>
<!-- ast.Name object at 0x7f77c12930d0&#45;&gt;ast.Load object at 0x7f77c6af1ff0 -->
<g id="edge53" class="edge">
<title>ast.Name object at 0x7f77c12930d0&#45;&gt;ast.Load object at 0x7f77c6af1ff0</title>
<path fill="none" stroke="black" d="M862.96,-143.78C851.16,-123.16 828.5,-89.25 799,-72 754.78,-46.14 606.03,-29.14 535.59,-22.34"/>
<polygon fill="black" stroke="black" points="535.67,-18.84 525.38,-21.38 535.01,-25.81 535.67,-18.84"/>
</g>
<!-- ast.Name object at 0x7f77c12902b0 -->
<g id="node46" class="node">
<title>ast.Name object at 0x7f77c12902b0</title>
<path fill="#66cdaa" stroke="black" d="M549,-324C549,-324 519,-324 519,-324 513,-324 507,-318 507,-312 507,-312 507,-300 507,-300 507,-294 513,-288 519,-288 519,-288 549,-288 549,-288 555,-288 561,-294 561,-300 561,-300 561,-312 561,-312 561,-318 555,-324 549,-324"/>
<text text-anchor="middle" x="534" y="-302.3" font-family="Times,serif" font-size="14.00">Name</text>
</g>
<!-- ast.Return object at 0x7f77c1290250&#45;&gt;ast.Name object at 0x7f77c12902b0 -->
<g id="edge55" class="edge">
<title>ast.Return object at 0x7f77c1290250&#45;&gt;ast.Name object at 0x7f77c12902b0</title>
<path fill="none" stroke="black" d="M534,-359.7C534,-351.98 534,-342.71 534,-334.11"/>
<polygon fill="black" stroke="black" points="537.5,-334.1 534,-324.1 530.5,-334.1 537.5,-334.1"/>
</g>
<!-- ast.Name object at 0x7f77c12902b0&#45;&gt;ast.Load object at 0x7f77c6af1ff0 -->
<g id="edge56" class="edge">
<title>ast.Name object at 0x7f77c12902b0&#45;&gt;ast.Load object at 0x7f77c6af1ff0</title>
<path fill="none" stroke="black" d="M532.31,-287.71C528.46,-249 518.48,-152.43 507,-72 505.79,-63.55 504.3,-54.38 502.88,-46.08"/>
<polygon fill="black" stroke="black" points="506.32,-45.4 501.15,-36.15 499.42,-46.6 506.32,-45.4"/>
</g>
</g>
</svg>
