<?xml version="1.0" encoding="UTF-8" standalone="no"?>
<!DOCTYPE svg PUBLIC "-//W3C//DTD SVG 1.1//EN"
 "http://www.w3.org/Graphics/SVG/1.1/DTD/svg11.dtd">
<!-- Generated by graphviz version 2.43.0 (0)
 -->
<!-- Title: %3 Pages: 1 -->
<svg width="849pt" height="620pt"
 viewBox="0.00 0.00 848.50 620.00" xmlns="http://www.w3.org/2000/svg" xmlns:xlink="http://www.w3.org/1999/xlink">
<g id="graph0" class="graph" transform="scale(1 1) rotate(0) translate(4 616)">
<title>%3</title>
<polygon fill="white" stroke="transparent" points="-4,4 -4,-616 844.5,-616 844.5,4 -4,4"/>
<!-- ast.Module object at 0x7fb06daa8220 -->
<g id="node1" class="node">
<title>ast.Module object at 0x7fb06daa8220</title>
<path fill="#66cdaa" stroke="black" d="M393,-612C393,-612 358,-612 358,-612 352,-612 346,-606 346,-600 346,-600 346,-588 346,-588 346,-582 352,-576 358,-576 358,-576 393,-576 393,-576 399,-576 405,-582 405,-588 405,-588 405,-600 405,-600 405,-606 399,-612 393,-612"/>
<text text-anchor="middle" x="375.5" y="-590.3" font-family="Times,serif" font-size="14.00">Module</text>
</g>
<!-- ast.FunctionDef object at 0x7fb06daa86a0 -->
<g id="node2" class="node">
<title>ast.FunctionDef object at 0x7fb06daa86a0</title>
<path fill="#66cdaa" stroke="black" d="M406,-540C406,-540 345,-540 345,-540 339,-540 333,-534 333,-528 333,-528 333,-516 333,-516 333,-510 339,-504 345,-504 345,-504 406,-504 406,-504 412,-504 418,-510 418,-516 418,-516 418,-528 418,-528 418,-534 412,-540 406,-540"/>
<text text-anchor="middle" x="375.5" y="-518.3" font-family="Times,serif" font-size="14.00">FunctionDef</text>
</g>
<!-- ast.Module object at 0x7fb06daa8220&#45;&gt;ast.FunctionDef object at 0x7fb06daa86a0 -->
<g id="edge1" class="edge">
<title>ast.Module object at 0x7fb06daa8220&#45;&gt;ast.FunctionDef object at 0x7fb06daa86a0</title>
<path fill="none" stroke="black" d="M375.5,-575.7C375.5,-567.98 375.5,-558.71 375.5,-550.11"/>
<polygon fill="black" stroke="black" points="379,-550.1 375.5,-540.1 372,-550.1 379,-550.1"/>
</g>
<!-- ast.arguments object at 0x7fb06daa9240 -->
<g id="node3" class="node">
<title>ast.arguments object at 0x7fb06daa9240</title>
<path fill="#66cdaa" stroke="black" d="M213.5,-468C213.5,-468 163.5,-468 163.5,-468 157.5,-468 151.5,-462 151.5,-456 151.5,-456 151.5,-444 151.5,-444 151.5,-438 157.5,-432 163.5,-432 163.5,-432 213.5,-432 213.5,-432 219.5,-432 225.5,-438 225.5,-444 225.5,-444 225.5,-456 225.5,-456 225.5,-462 219.5,-468 213.5,-468"/>
<text text-anchor="middle" x="188.5" y="-446.3" font-family="Times,serif" font-size="14.00">arguments</text>
</g>
<!-- ast.FunctionDef object at 0x7fb06daa86a0&#45;&gt;ast.arguments object at 0x7fb06daa9240 -->
<g id="edge2" class="edge">
<title>ast.FunctionDef object at 0x7fb06daa86a0&#45;&gt;ast.arguments object at 0x7fb06daa9240</title>
<path fill="none" stroke="black" d="M332.6,-504.94C303.41,-494.01 264.8,-479.56 234.9,-468.37"/>
<polygon fill="black" stroke="black" points="236.11,-465.09 225.52,-464.86 233.66,-471.64 236.11,-465.09"/>
</g>
<!-- ast.Assign object at 0x7fb06daa8310 -->
<g id="node5" class="node">
<title>ast.Assign object at 0x7fb06daa8310</title>
<path fill="#66cdaa" stroke="black" d="M299.5,-468C299.5,-468 269.5,-468 269.5,-468 263.5,-468 257.5,-462 257.5,-456 257.5,-456 257.5,-444 257.5,-444 257.5,-438 263.5,-432 269.5,-432 269.5,-432 299.5,-432 299.5,-432 305.5,-432 311.5,-438 311.5,-444 311.5,-444 311.5,-456 311.5,-456 311.5,-462 305.5,-468 299.5,-468"/>
<text text-anchor="middle" x="284.5" y="-446.3" font-family="Times,serif" font-size="14.00">Assign</text>
</g>
<!-- ast.FunctionDef object at 0x7fb06daa86a0&#45;&gt;ast.Assign object at 0x7fb06daa8310 -->
<g id="edge4" class="edge">
<title>ast.FunctionDef object at 0x7fb06daa86a0&#45;&gt;ast.Assign object at 0x7fb06daa8310</title>
<path fill="none" stroke="black" d="M353.01,-503.7C341.54,-494.88 327.44,-484.03 315.02,-474.47"/>
<polygon fill="black" stroke="black" points="316.8,-471.43 306.74,-468.1 312.53,-476.98 316.8,-471.43"/>
</g>
<!-- ast.Assign object at 0x7fb06daa8370 -->
<g id="node14" class="node">
<title>ast.Assign object at 0x7fb06daa8370</title>
<path fill="#66cdaa" stroke="black" d="M390.5,-468C390.5,-468 360.5,-468 360.5,-468 354.5,-468 348.5,-462 348.5,-456 348.5,-456 348.5,-444 348.5,-444 348.5,-438 354.5,-432 360.5,-432 360.5,-432 390.5,-432 390.5,-432 396.5,-432 402.5,-438 402.5,-444 402.5,-444 402.5,-456 402.5,-456 402.5,-462 396.5,-468 390.5,-468"/>
<text text-anchor="middle" x="375.5" y="-446.3" font-family="Times,serif" font-size="14.00">Assign</text>
</g>
<!-- ast.FunctionDef object at 0x7fb06daa86a0&#45;&gt;ast.Assign object at 0x7fb06daa8370 -->
<g id="edge14" class="edge">
<title>ast.FunctionDef object at 0x7fb06daa86a0&#45;&gt;ast.Assign object at 0x7fb06daa8370</title>
<path fill="none" stroke="black" d="M375.5,-503.7C375.5,-495.98 375.5,-486.71 375.5,-478.11"/>
<polygon fill="black" stroke="black" points="379,-478.1 375.5,-468.1 372,-478.1 379,-478.1"/>
</g>
<!-- ast.Assign object at 0x7fb06daa8f10 -->
<g id="node19" class="node">
<title>ast.Assign object at 0x7fb06daa8f10</title>
<path fill="#66cdaa" stroke="black" d="M481.5,-468C481.5,-468 451.5,-468 451.5,-468 445.5,-468 439.5,-462 439.5,-456 439.5,-456 439.5,-444 439.5,-444 439.5,-438 445.5,-432 451.5,-432 451.5,-432 481.5,-432 481.5,-432 487.5,-432 493.5,-438 493.5,-444 493.5,-444 493.5,-456 493.5,-456 493.5,-462 487.5,-468 481.5,-468"/>
<text text-anchor="middle" x="466.5" y="-446.3" font-family="Times,serif" font-size="14.00">Assign</text>
</g>
<!-- ast.FunctionDef object at 0x7fb06daa86a0&#45;&gt;ast.Assign object at 0x7fb06daa8f10 -->
<g id="edge22" class="edge">
<title>ast.FunctionDef object at 0x7fb06daa86a0&#45;&gt;ast.Assign object at 0x7fb06daa8f10</title>
<path fill="none" stroke="black" d="M397.99,-503.7C409.46,-494.88 423.56,-484.03 435.98,-474.47"/>
<polygon fill="black" stroke="black" points="438.47,-476.98 444.26,-468.1 434.2,-471.43 438.47,-476.98"/>
</g>
<!-- ast.Return object at 0x7fb06daa8fd0 -->
<g id="node31" class="node">
<title>ast.Return object at 0x7fb06daa8fd0</title>
<path fill="#66cdaa" stroke="black" d="M732.5,-324C732.5,-324 702.5,-324 702.5,-324 696.5,-324 690.5,-318 690.5,-312 690.5,-312 690.5,-300 690.5,-300 690.5,-294 696.5,-288 702.5,-288 702.5,-288 732.5,-288 732.5,-288 738.5,-288 744.5,-294 744.5,-300 744.5,-300 744.5,-312 744.5,-312 744.5,-318 738.5,-324 732.5,-324"/>
<text text-anchor="middle" x="717.5" y="-302.3" font-family="Times,serif" font-size="14.00">Return</text>
</g>
<!-- ast.FunctionDef object at 0x7fb06daa86a0&#45;&gt;ast.Return object at 0x7fb06daa8fd0 -->
<g id="edge39" class="edge">
<title>ast.FunctionDef object at 0x7fb06daa86a0&#45;&gt;ast.Return object at 0x7fb06daa8fd0</title>
<path fill="none" stroke="black" d="M418.2,-506.21C443.45,-496.73 475.64,-483.35 502.5,-468 574.89,-426.64 651.03,-364.53 690.38,-330.82"/>
<polygon fill="black" stroke="black" points="692.91,-333.26 698.2,-324.07 688.34,-327.95 692.91,-333.26"/>
</g>
<!-- ast.arg object at 0x7fb06daa84f0 -->
<g id="node4" class="node">
<title>ast.arg object at 0x7fb06daa84f0</title>
<path fill="#66cdaa" stroke="black" d="M189.5,-396C189.5,-396 159.5,-396 159.5,-396 153.5,-396 147.5,-390 147.5,-384 147.5,-384 147.5,-372 147.5,-372 147.5,-366 153.5,-360 159.5,-360 159.5,-360 189.5,-360 189.5,-360 195.5,-360 201.5,-366 201.5,-372 201.5,-372 201.5,-384 201.5,-384 201.5,-390 195.5,-396 189.5,-396"/>
<text text-anchor="middle" x="174.5" y="-374.3" font-family="Times,serif" font-size="14.00">arg</text>
</g>
<!-- ast.arguments object at 0x7fb06daa9240&#45;&gt;ast.arg object at 0x7fb06daa84f0 -->
<g id="edge3" class="edge">
<title>ast.arguments object at 0x7fb06daa9240&#45;&gt;ast.arg object at 0x7fb06daa84f0</title>
<path fill="none" stroke="black" d="M185.04,-431.7C183.5,-423.98 181.64,-414.71 179.92,-406.11"/>
<polygon fill="black" stroke="black" points="183.31,-405.22 177.92,-396.1 176.45,-406.6 183.31,-405.22"/>
</g>
<!-- ast.Name object at 0x7fb06daa8e80 -->
<g id="node6" class="node">
<title>ast.Name object at 0x7fb06daa8e80</title>
<path fill="#66cdaa" stroke="black" d="M299.5,-396C299.5,-396 269.5,-396 269.5,-396 263.5,-396 257.5,-390 257.5,-384 257.5,-384 257.5,-372 257.5,-372 257.5,-366 263.5,-360 269.5,-360 269.5,-360 299.5,-360 299.5,-360 305.5,-360 311.5,-366 311.5,-372 311.5,-372 311.5,-384 311.5,-384 311.5,-390 305.5,-396 299.5,-396"/>
<text text-anchor="middle" x="284.5" y="-374.3" font-family="Times,serif" font-size="14.00">Name</text>
</g>
<!-- ast.Assign object at 0x7fb06daa8310&#45;&gt;ast.Name object at 0x7fb06daa8e80 -->
<g id="edge5" class="edge">
<title>ast.Assign object at 0x7fb06daa8310&#45;&gt;ast.Name object at 0x7fb06daa8e80</title>
<path fill="none" stroke="black" d="M284.5,-431.7C284.5,-423.98 284.5,-414.71 284.5,-406.11"/>
<polygon fill="black" stroke="black" points="288,-406.1 284.5,-396.1 281,-406.1 288,-406.1"/>
</g>
<!-- ast.Subscript object at 0x7fb06daa92a0 -->
<g id="node8" class="node">
<title>ast.Subscript object at 0x7fb06daa92a0</title>
<path fill="#66cdaa" stroke="black" d="M178.5,-180C178.5,-180 134.5,-180 134.5,-180 128.5,-180 122.5,-174 122.5,-168 122.5,-168 122.5,-156 122.5,-156 122.5,-150 128.5,-144 134.5,-144 134.5,-144 178.5,-144 178.5,-144 184.5,-144 190.5,-150 190.5,-156 190.5,-156 190.5,-168 190.5,-168 190.5,-174 184.5,-180 178.5,-180"/>
<text text-anchor="middle" x="156.5" y="-158.3" font-family="Times,serif" font-size="14.00">Subscript</text>
</g>
<!-- ast.Assign object at 0x7fb06daa8310&#45;&gt;ast.Subscript object at 0x7fb06daa92a0 -->
<g id="edge7" class="edge">
<title>ast.Assign object at 0x7fb06daa8310&#45;&gt;ast.Subscript object at 0x7fb06daa92a0</title>
<path fill="none" stroke="black" d="M271.49,-431.94C264.15,-421.84 255.15,-408.59 248.5,-396 210.77,-324.63 179.39,-234.26 164.98,-189.97"/>
<polygon fill="black" stroke="black" points="168.25,-188.68 161.85,-180.24 161.58,-190.83 168.25,-188.68"/>
</g>
<!-- ast.Store object at 0x7fb086bedfc0 -->
<g id="node7" class="node">
<title>ast.Store object at 0x7fb086bedfc0</title>
<path fill="#66cdaa" stroke="black" d="M409.5,-324C409.5,-324 379.5,-324 379.5,-324 373.5,-324 367.5,-318 367.5,-312 367.5,-312 367.5,-300 367.5,-300 367.5,-294 373.5,-288 379.5,-288 379.5,-288 409.5,-288 409.5,-288 415.5,-288 421.5,-294 421.5,-300 421.5,-300 421.5,-312 421.5,-312 421.5,-318 415.5,-324 409.5,-324"/>
<text text-anchor="middle" x="394.5" y="-302.3" font-family="Times,serif" font-size="14.00">Store</text>
</g>
<!-- ast.Name object at 0x7fb06daa8e80&#45;&gt;ast.Store object at 0x7fb086bedfc0 -->
<g id="edge6" class="edge">
<title>ast.Name object at 0x7fb06daa8e80&#45;&gt;ast.Store object at 0x7fb086bedfc0</title>
<path fill="none" stroke="black" d="M311.41,-359.88C325.66,-350.81 343.35,-339.55 358.74,-329.76"/>
<polygon fill="black" stroke="black" points="360.93,-332.51 367.49,-324.19 357.17,-326.61 360.93,-332.51"/>
</g>
<!-- ast.Name object at 0x7fb06daa90f0 -->
<g id="node9" class="node">
<title>ast.Name object at 0x7fb06daa90f0</title>
<path fill="#66cdaa" stroke="black" d="M198.5,-108C198.5,-108 168.5,-108 168.5,-108 162.5,-108 156.5,-102 156.5,-96 156.5,-96 156.5,-84 156.5,-84 156.5,-78 162.5,-72 168.5,-72 168.5,-72 198.5,-72 198.5,-72 204.5,-72 210.5,-78 210.5,-84 210.5,-84 210.5,-96 210.5,-96 210.5,-102 204.5,-108 198.5,-108"/>
<text text-anchor="middle" x="183.5" y="-86.3" font-family="Times,serif" font-size="14.00">Name</text>
</g>
<!-- ast.Subscript object at 0x7fb06daa92a0&#45;&gt;ast.Name object at 0x7fb06daa90f0 -->
<g id="edge8" class="edge">
<title>ast.Subscript object at 0x7fb06daa92a0&#45;&gt;ast.Name object at 0x7fb06daa90f0</title>
<path fill="none" stroke="black" d="M163.17,-143.7C166.21,-135.81 169.88,-126.3 173.26,-117.55"/>
<polygon fill="black" stroke="black" points="176.57,-118.69 176.9,-108.1 170.04,-116.17 176.57,-118.69"/>
</g>
<!-- ast.Load object at 0x7fb086bedf60 -->
<g id="node10" class="node">
<title>ast.Load object at 0x7fb086bedf60</title>
<path fill="#66cdaa" stroke="black" d="M522.5,-36C522.5,-36 492.5,-36 492.5,-36 486.5,-36 480.5,-30 480.5,-24 480.5,-24 480.5,-12 480.5,-12 480.5,-6 486.5,0 492.5,0 492.5,0 522.5,0 522.5,0 528.5,0 534.5,-6 534.5,-12 534.5,-12 534.5,-24 534.5,-24 534.5,-30 528.5,-36 522.5,-36"/>
<text text-anchor="middle" x="507.5" y="-14.3" font-family="Times,serif" font-size="14.00">Load</text>
</g>
<!-- ast.Subscript object at 0x7fb06daa92a0&#45;&gt;ast.Load object at 0x7fb086bedf60 -->
<g id="edge13" class="edge">
<title>ast.Subscript object at 0x7fb06daa92a0&#45;&gt;ast.Load object at 0x7fb086bedf60</title>
<path fill="none" stroke="black" d="M148,-143.68C139.65,-123.91 130.45,-91.75 147.5,-72 188.98,-23.97 387.08,-18.68 470.42,-18.63"/>
<polygon fill="black" stroke="black" points="470.46,-22.13 480.46,-18.65 470.47,-15.13 470.46,-22.13"/>
</g>
<!-- ast.Slice object at 0x7fb06daa8d90 -->
<g id="node11" class="node">
<title>ast.Slice object at 0x7fb06daa8d90</title>
<path fill="#66cdaa" stroke="black" d="M88.5,-108C88.5,-108 58.5,-108 58.5,-108 52.5,-108 46.5,-102 46.5,-96 46.5,-96 46.5,-84 46.5,-84 46.5,-78 52.5,-72 58.5,-72 58.5,-72 88.5,-72 88.5,-72 94.5,-72 100.5,-78 100.5,-84 100.5,-84 100.5,-96 100.5,-96 100.5,-102 94.5,-108 88.5,-108"/>
<text text-anchor="middle" x="73.5" y="-86.3" font-family="Times,serif" font-size="14.00">Slice</text>
</g>
<!-- ast.Subscript object at 0x7fb06daa92a0&#45;&gt;ast.Slice object at 0x7fb06daa8d90 -->
<g id="edge10" class="edge">
<title>ast.Subscript object at 0x7fb06daa92a0&#45;&gt;ast.Slice object at 0x7fb06daa8d90</title>
<path fill="none" stroke="black" d="M135.98,-143.7C125.63,-134.97 112.91,-124.24 101.66,-114.75"/>
<polygon fill="black" stroke="black" points="103.68,-111.88 93.78,-108.1 99.17,-117.23 103.68,-111.88"/>
</g>
<!-- ast.Name object at 0x7fb06daa90f0&#45;&gt;ast.Load object at 0x7fb086bedf60 -->
<g id="edge9" class="edge">
<title>ast.Name object at 0x7fb06daa90f0&#45;&gt;ast.Load object at 0x7fb086bedf60</title>
<path fill="none" stroke="black" d="M210.72,-75.25C213.64,-74.05 216.61,-72.93 219.5,-72 307.01,-43.81 414.61,-29 470.24,-22.73"/>
<polygon fill="black" stroke="black" points="470.77,-26.2 480.33,-21.63 470,-19.24 470.77,-26.2"/>
</g>
<!-- ast.Constant object at 0x7fb06daa8100 -->
<g id="node12" class="node">
<title>ast.Constant object at 0x7fb06daa8100</title>
<path fill="#66cdaa" stroke="black" d="M136,-36C136,-36 95,-36 95,-36 89,-36 83,-30 83,-24 83,-24 83,-12 83,-12 83,-6 89,0 95,0 95,0 136,0 136,0 142,0 148,-6 148,-12 148,-12 148,-24 148,-24 148,-30 142,-36 136,-36"/>
<text text-anchor="middle" x="115.5" y="-14.3" font-family="Times,serif" font-size="14.00">Constant</text>
</g>
<!-- ast.Slice object at 0x7fb06daa8d90&#45;&gt;ast.Constant object at 0x7fb06daa8100 -->
<g id="edge11" class="edge">
<title>ast.Slice object at 0x7fb06daa8d90&#45;&gt;ast.Constant object at 0x7fb06daa8100</title>
<path fill="none" stroke="black" d="M83.88,-71.7C88.76,-63.56 94.69,-53.69 100.08,-44.7"/>
<polygon fill="black" stroke="black" points="103.09,-46.48 105.24,-36.1 97.09,-42.88 103.09,-46.48"/>
</g>
<!-- ast.Constant object at 0x7fb06daa93c0 -->
<g id="node13" class="node">
<title>ast.Constant object at 0x7fb06daa93c0</title>
<path fill="#66cdaa" stroke="black" d="M53,-36C53,-36 12,-36 12,-36 6,-36 0,-30 0,-24 0,-24 0,-12 0,-12 0,-6 6,0 12,0 12,0 53,0 53,0 59,0 65,-6 65,-12 65,-12 65,-24 65,-24 65,-30 59,-36 53,-36"/>
<text text-anchor="middle" x="32.5" y="-14.3" font-family="Times,serif" font-size="14.00">Constant</text>
</g>
<!-- ast.Slice object at 0x7fb06daa8d90&#45;&gt;ast.Constant object at 0x7fb06daa93c0 -->
<g id="edge12" class="edge">
<title>ast.Slice object at 0x7fb06daa8d90&#45;&gt;ast.Constant object at 0x7fb06daa93c0</title>
<path fill="none" stroke="black" d="M63.37,-71.7C58.65,-63.64 52.94,-53.89 47.72,-44.98"/>
<polygon fill="black" stroke="black" points="50.59,-42.96 42.52,-36.1 44.55,-46.5 50.59,-42.96"/>
</g>
<!-- ast.Name object at 0x7fb06daa8520 -->
<g id="node15" class="node">
<title>ast.Name object at 0x7fb06daa8520</title>
<path fill="#66cdaa" stroke="black" d="M409.5,-396C409.5,-396 379.5,-396 379.5,-396 373.5,-396 367.5,-390 367.5,-384 367.5,-384 367.5,-372 367.5,-372 367.5,-366 373.5,-360 379.5,-360 379.5,-360 409.5,-360 409.5,-360 415.5,-360 421.5,-366 421.5,-372 421.5,-372 421.5,-384 421.5,-384 421.5,-390 415.5,-396 409.5,-396"/>
<text text-anchor="middle" x="394.5" y="-374.3" font-family="Times,serif" font-size="14.00">Name</text>
</g>
<!-- ast.Assign object at 0x7fb06daa8370&#45;&gt;ast.Name object at 0x7fb06daa8520 -->
<g id="edge15" class="edge">
<title>ast.Assign object at 0x7fb06daa8370&#45;&gt;ast.Name object at 0x7fb06daa8520</title>
<path fill="none" stroke="black" d="M380.2,-431.7C382.31,-423.9 384.86,-414.51 387.22,-405.83"/>
<polygon fill="black" stroke="black" points="390.62,-406.67 389.86,-396.1 383.86,-404.84 390.62,-406.67"/>
</g>
<!-- ast.Call object at 0x7fb06daa9000 -->
<g id="node16" class="node">
<title>ast.Call object at 0x7fb06daa9000</title>
<path fill="#66cdaa" stroke="black" d="M342.5,-180C342.5,-180 312.5,-180 312.5,-180 306.5,-180 300.5,-174 300.5,-168 300.5,-168 300.5,-156 300.5,-156 300.5,-150 306.5,-144 312.5,-144 312.5,-144 342.5,-144 342.5,-144 348.5,-144 354.5,-150 354.5,-156 354.5,-156 354.5,-168 354.5,-168 354.5,-174 348.5,-180 342.5,-180"/>
<text text-anchor="middle" x="327.5" y="-158.3" font-family="Times,serif" font-size="14.00">Call</text>
</g>
<!-- ast.Assign object at 0x7fb06daa8370&#45;&gt;ast.Call object at 0x7fb06daa9000 -->
<g id="edge17" class="edge">
<title>ast.Assign object at 0x7fb06daa8370&#45;&gt;ast.Call object at 0x7fb06daa9000</title>
<path fill="none" stroke="black" d="M369.04,-431.55C365.47,-421.32 361.22,-408.07 358.5,-396 341.98,-322.6 333.18,-234.07 329.54,-190.27"/>
<polygon fill="black" stroke="black" points="333.02,-189.83 328.73,-180.14 326.04,-190.39 333.02,-189.83"/>
</g>
<!-- ast.Name object at 0x7fb06daa8520&#45;&gt;ast.Store object at 0x7fb086bedfc0 -->
<g id="edge16" class="edge">
<title>ast.Name object at 0x7fb06daa8520&#45;&gt;ast.Store object at 0x7fb086bedfc0</title>
<path fill="none" stroke="black" d="M394.5,-359.7C394.5,-351.98 394.5,-342.71 394.5,-334.11"/>
<polygon fill="black" stroke="black" points="398,-334.1 394.5,-324.1 391,-334.1 398,-334.1"/>
</g>
<!-- ast.Name object at 0x7fb06daa9420 -->
<g id="node17" class="node">
<title>ast.Name object at 0x7fb06daa9420</title>
<path fill="#66cdaa" stroke="black" d="M270.5,-108C270.5,-108 240.5,-108 240.5,-108 234.5,-108 228.5,-102 228.5,-96 228.5,-96 228.5,-84 228.5,-84 228.5,-78 234.5,-72 240.5,-72 240.5,-72 270.5,-72 270.5,-72 276.5,-72 282.5,-78 282.5,-84 282.5,-84 282.5,-96 282.5,-96 282.5,-102 276.5,-108 270.5,-108"/>
<text text-anchor="middle" x="255.5" y="-86.3" font-family="Times,serif" font-size="14.00">Name</text>
</g>
<!-- ast.Call object at 0x7fb06daa9000&#45;&gt;ast.Name object at 0x7fb06daa9420 -->
<g id="edge18" class="edge">
<title>ast.Call object at 0x7fb06daa9000&#45;&gt;ast.Name object at 0x7fb06daa9420</title>
<path fill="none" stroke="black" d="M309.7,-143.7C300.9,-135.14 290.12,-124.66 280.5,-115.3"/>
<polygon fill="black" stroke="black" points="282.7,-112.57 273.09,-108.1 277.82,-117.58 282.7,-112.57"/>
</g>
<!-- ast.Name object at 0x7fb06daa9270 -->
<g id="node18" class="node">
<title>ast.Name object at 0x7fb06daa9270</title>
<path fill="#66cdaa" stroke="black" d="M342.5,-108C342.5,-108 312.5,-108 312.5,-108 306.5,-108 300.5,-102 300.5,-96 300.5,-96 300.5,-84 300.5,-84 300.5,-78 306.5,-72 312.5,-72 312.5,-72 342.5,-72 342.5,-72 348.5,-72 354.5,-78 354.5,-84 354.5,-84 354.5,-96 354.5,-96 354.5,-102 348.5,-108 342.5,-108"/>
<text text-anchor="middle" x="327.5" y="-86.3" font-family="Times,serif" font-size="14.00">Name</text>
</g>
<!-- ast.Call object at 0x7fb06daa9000&#45;&gt;ast.Name object at 0x7fb06daa9270 -->
<g id="edge20" class="edge">
<title>ast.Call object at 0x7fb06daa9000&#45;&gt;ast.Name object at 0x7fb06daa9270</title>
<path fill="none" stroke="black" d="M327.5,-143.7C327.5,-135.98 327.5,-126.71 327.5,-118.11"/>
<polygon fill="black" stroke="black" points="331,-118.1 327.5,-108.1 324,-118.1 331,-118.1"/>
</g>
<!-- ast.Name object at 0x7fb06daa9420&#45;&gt;ast.Load object at 0x7fb086bedf60 -->
<g id="edge19" class="edge">
<title>ast.Name object at 0x7fb06daa9420&#45;&gt;ast.Load object at 0x7fb086bedf60</title>
<path fill="none" stroke="black" d="M282.78,-75.43C285.69,-74.19 288.63,-73.02 291.5,-72 352.82,-50.25 426.99,-34.17 470.53,-25.72"/>
<polygon fill="black" stroke="black" points="471.23,-29.15 480.39,-23.84 469.91,-22.28 471.23,-29.15"/>
</g>
<!-- ast.Name object at 0x7fb06daa9270&#45;&gt;ast.Load object at 0x7fb086bedf60 -->
<g id="edge21" class="edge">
<title>ast.Name object at 0x7fb06daa9270&#45;&gt;ast.Load object at 0x7fb086bedf60</title>
<path fill="none" stroke="black" d="M354.51,-75.93C357.53,-74.57 360.57,-73.23 363.5,-72 399.43,-56.94 441.31,-41.79 470.61,-31.57"/>
<polygon fill="black" stroke="black" points="472.12,-34.75 480.42,-28.16 469.82,-28.13 472.12,-34.75"/>
</g>
<!-- ast.Name object at 0x7fb06daa8eb0 -->
<g id="node20" class="node">
<title>ast.Name object at 0x7fb06daa8eb0</title>
<path fill="#66cdaa" stroke="black" d="M481.5,-396C481.5,-396 451.5,-396 451.5,-396 445.5,-396 439.5,-390 439.5,-384 439.5,-384 439.5,-372 439.5,-372 439.5,-366 445.5,-360 451.5,-360 451.5,-360 481.5,-360 481.5,-360 487.5,-360 493.5,-366 493.5,-372 493.5,-372 493.5,-384 493.5,-384 493.5,-390 487.5,-396 481.5,-396"/>
<text text-anchor="middle" x="466.5" y="-374.3" font-family="Times,serif" font-size="14.00">Name</text>
</g>
<!-- ast.Assign object at 0x7fb06daa8f10&#45;&gt;ast.Name object at 0x7fb06daa8eb0 -->
<g id="edge23" class="edge">
<title>ast.Assign object at 0x7fb06daa8f10&#45;&gt;ast.Name object at 0x7fb06daa8eb0</title>
<path fill="none" stroke="black" d="M466.5,-431.7C466.5,-423.98 466.5,-414.71 466.5,-406.11"/>
<polygon fill="black" stroke="black" points="470,-406.1 466.5,-396.1 463,-406.1 470,-406.1"/>
</g>
<!-- ast.Call object at 0x7fb06daa9540 -->
<g id="node21" class="node">
<title>ast.Call object at 0x7fb06daa9540</title>
<path fill="#66cdaa" stroke="black" d="M571.5,-396C571.5,-396 541.5,-396 541.5,-396 535.5,-396 529.5,-390 529.5,-384 529.5,-384 529.5,-372 529.5,-372 529.5,-366 535.5,-360 541.5,-360 541.5,-360 571.5,-360 571.5,-360 577.5,-360 583.5,-366 583.5,-372 583.5,-372 583.5,-384 583.5,-384 583.5,-390 577.5,-396 571.5,-396"/>
<text text-anchor="middle" x="556.5" y="-374.3" font-family="Times,serif" font-size="14.00">Call</text>
</g>
<!-- ast.Assign object at 0x7fb06daa8f10&#45;&gt;ast.Call object at 0x7fb06daa9540 -->
<g id="edge25" class="edge">
<title>ast.Assign object at 0x7fb06daa8f10&#45;&gt;ast.Call object at 0x7fb06daa9540</title>
<path fill="none" stroke="black" d="M488.75,-431.7C500.08,-422.88 514.03,-412.03 526.32,-402.47"/>
<polygon fill="black" stroke="black" points="528.76,-405.01 534.51,-396.1 524.47,-399.48 528.76,-405.01"/>
</g>
<!-- ast.Name object at 0x7fb06daa8eb0&#45;&gt;ast.Store object at 0x7fb086bedfc0 -->
<g id="edge24" class="edge">
<title>ast.Name object at 0x7fb06daa8eb0&#45;&gt;ast.Store object at 0x7fb086bedfc0</title>
<path fill="none" stroke="black" d="M448.7,-359.7C439.9,-351.14 429.12,-340.66 419.5,-331.3"/>
<polygon fill="black" stroke="black" points="421.7,-328.57 412.09,-324.1 416.82,-333.58 421.7,-328.57"/>
</g>
<!-- ast.Name object at 0x7fb06daa8b20 -->
<g id="node22" class="node">
<title>ast.Name object at 0x7fb06daa8b20</title>
<path fill="#66cdaa" stroke="black" d="M593.5,-252C593.5,-252 563.5,-252 563.5,-252 557.5,-252 551.5,-246 551.5,-240 551.5,-240 551.5,-228 551.5,-228 551.5,-222 557.5,-216 563.5,-216 563.5,-216 593.5,-216 593.5,-216 599.5,-216 605.5,-222 605.5,-228 605.5,-228 605.5,-240 605.5,-240 605.5,-246 599.5,-252 593.5,-252"/>
<text text-anchor="middle" x="578.5" y="-230.3" font-family="Times,serif" font-size="14.00">Name</text>
</g>
<!-- ast.Call object at 0x7fb06daa9540&#45;&gt;ast.Name object at 0x7fb06daa8b20 -->
<g id="edge26" class="edge">
<title>ast.Call object at 0x7fb06daa9540&#45;&gt;ast.Name object at 0x7fb06daa8b20</title>
<path fill="none" stroke="black" d="M559.15,-359.87C562.9,-335.67 569.79,-291.21 574.26,-262.39"/>
<polygon fill="black" stroke="black" points="577.76,-262.61 575.84,-252.19 570.85,-261.54 577.76,-262.61"/>
</g>
<!-- ast.Name object at 0x7fb06daa8e50 -->
<g id="node23" class="node">
<title>ast.Name object at 0x7fb06daa8e50</title>
<path fill="#66cdaa" stroke="black" d="M646.5,-324C646.5,-324 616.5,-324 616.5,-324 610.5,-324 604.5,-318 604.5,-312 604.5,-312 604.5,-300 604.5,-300 604.5,-294 610.5,-288 616.5,-288 616.5,-288 646.5,-288 646.5,-288 652.5,-288 658.5,-294 658.5,-300 658.5,-300 658.5,-312 658.5,-312 658.5,-318 652.5,-324 646.5,-324"/>
<text text-anchor="middle" x="631.5" y="-302.3" font-family="Times,serif" font-size="14.00">Name</text>
</g>
<!-- ast.Call object at 0x7fb06daa9540&#45;&gt;ast.Name object at 0x7fb06daa8e50 -->
<g id="edge28" class="edge">
<title>ast.Call object at 0x7fb06daa9540&#45;&gt;ast.Name object at 0x7fb06daa8e50</title>
<path fill="none" stroke="black" d="M575.04,-359.7C584.3,-351.05 595.66,-340.45 605.76,-331.03"/>
<polygon fill="black" stroke="black" points="608.25,-333.49 613.17,-324.1 603.48,-328.37 608.25,-333.49"/>
</g>
<!-- ast.keyword object at 0x7fb06daa9180 -->
<g id="node24" class="node">
<title>ast.keyword object at 0x7fb06daa9180</title>
<path fill="#66cdaa" stroke="black" d="M524.5,-324C524.5,-324 484.5,-324 484.5,-324 478.5,-324 472.5,-318 472.5,-312 472.5,-312 472.5,-300 472.5,-300 472.5,-294 478.5,-288 484.5,-288 484.5,-288 524.5,-288 524.5,-288 530.5,-288 536.5,-294 536.5,-300 536.5,-300 536.5,-312 536.5,-312 536.5,-318 530.5,-324 524.5,-324"/>
<text text-anchor="middle" x="504.5" y="-302.3" font-family="Times,serif" font-size="14.00">keyword</text>
</g>
<!-- ast.Call object at 0x7fb06daa9540&#45;&gt;ast.keyword object at 0x7fb06daa9180 -->
<g id="edge30" class="edge">
<title>ast.Call object at 0x7fb06daa9540&#45;&gt;ast.keyword object at 0x7fb06daa9180</title>
<path fill="none" stroke="black" d="M543.65,-359.7C537.47,-351.39 529.96,-341.28 523.18,-332.14"/>
<polygon fill="black" stroke="black" points="525.98,-330.04 517.21,-324.1 520.36,-334.22 525.98,-330.04"/>
</g>
<!-- ast.Name object at 0x7fb06daa8b20&#45;&gt;ast.Load object at 0x7fb086bedf60 -->
<g id="edge27" class="edge">
<title>ast.Name object at 0x7fb06daa8b20&#45;&gt;ast.Load object at 0x7fb086bedf60</title>
<path fill="none" stroke="black" d="M583.44,-215.86C591.31,-185.12 603.46,-119.4 579.5,-72 571.8,-56.77 557.44,-44.85 543.56,-36.2"/>
<polygon fill="black" stroke="black" points="544.98,-32.98 534.58,-30.99 541.47,-39.04 544.98,-32.98"/>
</g>
<!-- ast.Name object at 0x7fb06daa8e50&#45;&gt;ast.Load object at 0x7fb086bedf60 -->
<g id="edge29" class="edge">
<title>ast.Name object at 0x7fb06daa8e50&#45;&gt;ast.Load object at 0x7fb086bedf60</title>
<path fill="none" stroke="black" d="M633.94,-287.71C638.82,-246.46 645.66,-140.6 599.5,-72 586.41,-52.55 563.62,-39.34 544,-30.98"/>
<polygon fill="black" stroke="black" points="545.26,-27.71 534.67,-27.25 542.66,-34.21 545.26,-27.71"/>
</g>
<!-- ast.Lambda object at 0x7fb06daa95a0 -->
<g id="node25" class="node">
<title>ast.Lambda object at 0x7fb06daa95a0</title>
<path fill="#66cdaa" stroke="black" d="M519.5,-252C519.5,-252 481.5,-252 481.5,-252 475.5,-252 469.5,-246 469.5,-240 469.5,-240 469.5,-228 469.5,-228 469.5,-222 475.5,-216 481.5,-216 481.5,-216 519.5,-216 519.5,-216 525.5,-216 531.5,-222 531.5,-228 531.5,-228 531.5,-240 531.5,-240 531.5,-246 525.5,-252 519.5,-252"/>
<text text-anchor="middle" x="500.5" y="-230.3" font-family="Times,serif" font-size="14.00">Lambda</text>
</g>
<!-- ast.keyword object at 0x7fb06daa9180&#45;&gt;ast.Lambda object at 0x7fb06daa95a0 -->
<g id="edge31" class="edge">
<title>ast.keyword object at 0x7fb06daa9180&#45;&gt;ast.Lambda object at 0x7fb06daa95a0</title>
<path fill="none" stroke="black" d="M503.51,-287.7C503.07,-279.98 502.54,-270.71 502.05,-262.11"/>
<polygon fill="black" stroke="black" points="505.54,-261.89 501.48,-252.1 498.55,-262.29 505.54,-261.89"/>
</g>
<!-- ast.arguments object at 0x7fb06daa93f0 -->
<g id="node26" class="node">
<title>ast.arguments object at 0x7fb06daa93f0</title>
<path fill="#66cdaa" stroke="black" d="M436.5,-180C436.5,-180 386.5,-180 386.5,-180 380.5,-180 374.5,-174 374.5,-168 374.5,-168 374.5,-156 374.5,-156 374.5,-150 380.5,-144 386.5,-144 386.5,-144 436.5,-144 436.5,-144 442.5,-144 448.5,-150 448.5,-156 448.5,-156 448.5,-168 448.5,-168 448.5,-174 442.5,-180 436.5,-180"/>
<text text-anchor="middle" x="411.5" y="-158.3" font-family="Times,serif" font-size="14.00">arguments</text>
</g>
<!-- ast.Lambda object at 0x7fb06daa95a0&#45;&gt;ast.arguments object at 0x7fb06daa93f0 -->
<g id="edge32" class="edge">
<title>ast.Lambda object at 0x7fb06daa95a0&#45;&gt;ast.arguments object at 0x7fb06daa93f0</title>
<path fill="none" stroke="black" d="M478.5,-215.7C467.29,-206.88 453.5,-196.03 441.35,-186.47"/>
<polygon fill="black" stroke="black" points="443.27,-183.54 433.25,-180.1 438.94,-189.04 443.27,-183.54"/>
</g>
<!-- ast.Call object at 0x7fb06daa9030 -->
<g id="node28" class="node">
<title>ast.Call object at 0x7fb06daa9030</title>
<path fill="#66cdaa" stroke="black" d="M515.5,-180C515.5,-180 485.5,-180 485.5,-180 479.5,-180 473.5,-174 473.5,-168 473.5,-168 473.5,-156 473.5,-156 473.5,-150 479.5,-144 485.5,-144 485.5,-144 515.5,-144 515.5,-144 521.5,-144 527.5,-150 527.5,-156 527.5,-156 527.5,-168 527.5,-168 527.5,-174 521.5,-180 515.5,-180"/>
<text text-anchor="middle" x="500.5" y="-158.3" font-family="Times,serif" font-size="14.00">Call</text>
</g>
<!-- ast.Lambda object at 0x7fb06daa95a0&#45;&gt;ast.Call object at 0x7fb06daa9030 -->
<g id="edge34" class="edge">
<title>ast.Lambda object at 0x7fb06daa95a0&#45;&gt;ast.Call object at 0x7fb06daa9030</title>
<path fill="none" stroke="black" d="M500.5,-215.7C500.5,-207.98 500.5,-198.71 500.5,-190.11"/>
<polygon fill="black" stroke="black" points="504,-190.1 500.5,-180.1 497,-190.1 504,-190.1"/>
</g>
<!-- ast.arg object at 0x7fb06daa9090 -->
<g id="node27" class="node">
<title>ast.arg object at 0x7fb06daa9090</title>
<path fill="#66cdaa" stroke="black" d="M414.5,-108C414.5,-108 384.5,-108 384.5,-108 378.5,-108 372.5,-102 372.5,-96 372.5,-96 372.5,-84 372.5,-84 372.5,-78 378.5,-72 384.5,-72 384.5,-72 414.5,-72 414.5,-72 420.5,-72 426.5,-78 426.5,-84 426.5,-84 426.5,-96 426.5,-96 426.5,-102 420.5,-108 414.5,-108"/>
<text text-anchor="middle" x="399.5" y="-86.3" font-family="Times,serif" font-size="14.00">arg</text>
</g>
<!-- ast.arguments object at 0x7fb06daa93f0&#45;&gt;ast.arg object at 0x7fb06daa9090 -->
<g id="edge33" class="edge">
<title>ast.arguments object at 0x7fb06daa93f0&#45;&gt;ast.arg object at 0x7fb06daa9090</title>
<path fill="none" stroke="black" d="M408.53,-143.7C407.21,-135.98 405.62,-126.71 404.15,-118.11"/>
<polygon fill="black" stroke="black" points="407.57,-117.37 402.43,-108.1 400.67,-118.55 407.57,-117.37"/>
</g>
<!-- ast.Name object at 0x7fb06daa96c0 -->
<g id="node29" class="node">
<title>ast.Name object at 0x7fb06daa96c0</title>
<path fill="#66cdaa" stroke="black" d="M486.5,-108C486.5,-108 456.5,-108 456.5,-108 450.5,-108 444.5,-102 444.5,-96 444.5,-96 444.5,-84 444.5,-84 444.5,-78 450.5,-72 456.5,-72 456.5,-72 486.5,-72 486.5,-72 492.5,-72 498.5,-78 498.5,-84 498.5,-84 498.5,-96 498.5,-96 498.5,-102 492.5,-108 486.5,-108"/>
<text text-anchor="middle" x="471.5" y="-86.3" font-family="Times,serif" font-size="14.00">Name</text>
</g>
<!-- ast.Call object at 0x7fb06daa9030&#45;&gt;ast.Name object at 0x7fb06daa96c0 -->
<g id="edge35" class="edge">
<title>ast.Call object at 0x7fb06daa9030&#45;&gt;ast.Name object at 0x7fb06daa96c0</title>
<path fill="none" stroke="black" d="M493.33,-143.7C490.07,-135.81 486.13,-126.3 482.5,-117.55"/>
<polygon fill="black" stroke="black" points="485.65,-116 478.59,-108.1 479.18,-118.68 485.65,-116"/>
</g>
<!-- ast.Name object at 0x7fb06daa8790 -->
<g id="node30" class="node">
<title>ast.Name object at 0x7fb06daa8790</title>
<path fill="#66cdaa" stroke="black" d="M558.5,-108C558.5,-108 528.5,-108 528.5,-108 522.5,-108 516.5,-102 516.5,-96 516.5,-96 516.5,-84 516.5,-84 516.5,-78 522.5,-72 528.5,-72 528.5,-72 558.5,-72 558.5,-72 564.5,-72 570.5,-78 570.5,-84 570.5,-84 570.5,-96 570.5,-96 570.5,-102 564.5,-108 558.5,-108"/>
<text text-anchor="middle" x="543.5" y="-86.3" font-family="Times,serif" font-size="14.00">Name</text>
</g>
<!-- ast.Call object at 0x7fb06daa9030&#45;&gt;ast.Name object at 0x7fb06daa8790 -->
<g id="edge37" class="edge">
<title>ast.Call object at 0x7fb06daa9030&#45;&gt;ast.Name object at 0x7fb06daa8790</title>
<path fill="none" stroke="black" d="M511.13,-143.7C516.13,-135.56 522.19,-125.69 527.71,-116.7"/>
<polygon fill="black" stroke="black" points="530.74,-118.46 532.99,-108.1 524.78,-114.79 530.74,-118.46"/>
</g>
<!-- ast.Name object at 0x7fb06daa96c0&#45;&gt;ast.Load object at 0x7fb086bedf60 -->
<g id="edge36" class="edge">
<title>ast.Name object at 0x7fb06daa96c0&#45;&gt;ast.Load object at 0x7fb086bedf60</title>
<path fill="none" stroke="black" d="M480.4,-71.7C484.5,-63.73 489.45,-54.1 493.99,-45.26"/>
<polygon fill="black" stroke="black" points="497.24,-46.6 498.7,-36.1 491.02,-43.4 497.24,-46.6"/>
</g>
<!-- ast.Name object at 0x7fb06daa8790&#45;&gt;ast.Load object at 0x7fb086bedf60 -->
<g id="edge38" class="edge">
<title>ast.Name object at 0x7fb06daa8790&#45;&gt;ast.Load object at 0x7fb086bedf60</title>
<path fill="none" stroke="black" d="M534.6,-71.7C530.5,-63.73 525.55,-54.1 521.01,-45.26"/>
<polygon fill="black" stroke="black" points="523.98,-43.4 516.3,-36.1 517.76,-46.6 523.98,-43.4"/>
</g>
<!-- ast.Subscript object at 0x7fb06daa9300 -->
<g id="node32" class="node">
<title>ast.Subscript object at 0x7fb06daa9300</title>
<path fill="#66cdaa" stroke="black" d="M750.5,-180C750.5,-180 706.5,-180 706.5,-180 700.5,-180 694.5,-174 694.5,-168 694.5,-168 694.5,-156 694.5,-156 694.5,-150 700.5,-144 706.5,-144 706.5,-144 750.5,-144 750.5,-144 756.5,-144 762.5,-150 762.5,-156 762.5,-156 762.5,-168 762.5,-168 762.5,-174 756.5,-180 750.5,-180"/>
<text text-anchor="middle" x="728.5" y="-158.3" font-family="Times,serif" font-size="14.00">Subscript</text>
</g>
<!-- ast.Return object at 0x7fb06daa8fd0&#45;&gt;ast.Subscript object at 0x7fb06daa9300 -->
<g id="edge40" class="edge">
<title>ast.Return object at 0x7fb06daa8fd0&#45;&gt;ast.Subscript object at 0x7fb06daa9300</title>
<path fill="none" stroke="black" d="M718.83,-287.87C720.7,-263.67 724.15,-219.21 726.38,-190.39"/>
<polygon fill="black" stroke="black" points="729.89,-190.43 727.17,-180.19 722.91,-189.89 729.89,-190.43"/>
</g>
<!-- ast.Subscript object at 0x7fb06daa9300&#45;&gt;ast.Load object at 0x7fb086bedf60 -->
<g id="edge44" class="edge">
<title>ast.Subscript object at 0x7fb06daa9300&#45;&gt;ast.Load object at 0x7fb086bedf60</title>
<path fill="none" stroke="black" d="M737,-143.92C745.38,-124.38 754.78,-92.43 738.5,-72 714.68,-42.09 603.71,-27.68 544.67,-22.02"/>
<polygon fill="black" stroke="black" points="544.91,-18.53 534.63,-21.1 544.27,-25.5 544.91,-18.53"/>
</g>
<!-- ast.Name object at 0x7fb06daa9720 -->
<g id="node33" class="node">
<title>ast.Name object at 0x7fb06daa9720</title>
<path fill="#66cdaa" stroke="black" d="M828.5,-108C828.5,-108 798.5,-108 798.5,-108 792.5,-108 786.5,-102 786.5,-96 786.5,-96 786.5,-84 786.5,-84 786.5,-78 792.5,-72 798.5,-72 798.5,-72 828.5,-72 828.5,-72 834.5,-72 840.5,-78 840.5,-84 840.5,-84 840.5,-96 840.5,-96 840.5,-102 834.5,-108 828.5,-108"/>
<text text-anchor="middle" x="813.5" y="-86.3" font-family="Times,serif" font-size="14.00">Name</text>
</g>
<!-- ast.Subscript object at 0x7fb06daa9300&#45;&gt;ast.Name object at 0x7fb06daa9720 -->
<g id="edge41" class="edge">
<title>ast.Subscript object at 0x7fb06daa9300&#45;&gt;ast.Name object at 0x7fb06daa9720</title>
<path fill="none" stroke="black" d="M749.51,-143.7C760.22,-134.88 773.39,-124.03 785,-114.47"/>
<polygon fill="black" stroke="black" points="787.24,-117.16 792.73,-108.1 782.79,-111.76 787.24,-117.16"/>
</g>
<!-- ast.Constant object at 0x7fb06daa9570 -->
<g id="node34" class="node">
<title>ast.Constant object at 0x7fb06daa9570</title>
<path fill="#66cdaa" stroke="black" d="M718,-108C718,-108 677,-108 677,-108 671,-108 665,-102 665,-96 665,-96 665,-84 665,-84 665,-78 671,-72 677,-72 677,-72 718,-72 718,-72 724,-72 730,-78 730,-84 730,-84 730,-96 730,-96 730,-102 724,-108 718,-108"/>
<text text-anchor="middle" x="697.5" y="-86.3" font-family="Times,serif" font-size="14.00">Constant</text>
</g>
<!-- ast.Subscript object at 0x7fb06daa9300&#45;&gt;ast.Constant object at 0x7fb06daa9570 -->
<g id="edge43" class="edge">
<title>ast.Subscript object at 0x7fb06daa9300&#45;&gt;ast.Constant object at 0x7fb06daa9570</title>
<path fill="none" stroke="black" d="M720.84,-143.7C717.31,-135.73 713.04,-126.1 709.13,-117.26"/>
<polygon fill="black" stroke="black" points="712.32,-115.83 705.07,-108.1 705.92,-118.67 712.32,-115.83"/>
</g>
<!-- ast.Name object at 0x7fb06daa9720&#45;&gt;ast.Load object at 0x7fb086bedf60 -->
<g id="edge42" class="edge">
<title>ast.Name object at 0x7fb06daa9720&#45;&gt;ast.Load object at 0x7fb086bedf60</title>
<path fill="none" stroke="black" d="M786.42,-76.9C781.83,-75.1 777.07,-73.39 772.5,-72 692.92,-47.8 596.47,-31.7 544.68,-24.09"/>
<polygon fill="black" stroke="black" points="545.03,-20.6 534.64,-22.63 544.03,-27.53 545.03,-20.6"/>
</g>
</g>
</svg>
