<?xml version="1.0" encoding="UTF-8" standalone="no"?>
<!DOCTYPE svg PUBLIC "-//W3C//DTD SVG 1.1//EN"
 "http://www.w3.org/Graphics/SVG/1.1/DTD/svg11.dtd">
<!-- Generated by graphviz version 2.43.0 (0)
 -->
<!-- Title: %3 Pages: 1 -->
<svg width="758pt" height="692pt"
 viewBox="0.00 0.00 758.00 692.00" xmlns="http://www.w3.org/2000/svg" xmlns:xlink="http://www.w3.org/1999/xlink">
<g id="graph0" class="graph" transform="scale(1 1) rotate(0) translate(4 688)">
<title>%3</title>
<polygon fill="white" stroke="transparent" points="-4,4 -4,-688 754,-688 754,4 -4,4"/>
<!-- ast.Module object at 0x7efe760a3af0 -->
<g id="node1" class="node">
<title>ast.Module object at 0x7efe760a3af0</title>
<path fill="#66cdaa" stroke="black" d="M277.5,-684C277.5,-684 242.5,-684 242.5,-684 236.5,-684 230.5,-678 230.5,-672 230.5,-672 230.5,-660 230.5,-660 230.5,-654 236.5,-648 242.5,-648 242.5,-648 277.5,-648 277.5,-648 283.5,-648 289.5,-654 289.5,-660 289.5,-660 289.5,-672 289.5,-672 289.5,-678 283.5,-684 277.5,-684"/>
<text text-anchor="middle" x="260" y="-662.3" font-family="Times,serif" font-size="14.00">Module</text>
</g>
<!-- ast.FunctionDef object at 0x7efe760a3e20 -->
<g id="node2" class="node">
<title>ast.FunctionDef object at 0x7efe760a3e20</title>
<path fill="#66cdaa" stroke="black" d="M290.5,-612C290.5,-612 229.5,-612 229.5,-612 223.5,-612 217.5,-606 217.5,-600 217.5,-600 217.5,-588 217.5,-588 217.5,-582 223.5,-576 229.5,-576 229.5,-576 290.5,-576 290.5,-576 296.5,-576 302.5,-582 302.5,-588 302.5,-588 302.5,-600 302.5,-600 302.5,-606 296.5,-612 290.5,-612"/>
<text text-anchor="middle" x="260" y="-590.3" font-family="Times,serif" font-size="14.00">FunctionDef</text>
</g>
<!-- ast.Module object at 0x7efe760a3af0&#45;&gt;ast.FunctionDef object at 0x7efe760a3e20 -->
<g id="edge1" class="edge">
<title>ast.Module object at 0x7efe760a3af0&#45;&gt;ast.FunctionDef object at 0x7efe760a3e20</title>
<path fill="none" stroke="black" d="M260,-647.7C260,-639.98 260,-630.71 260,-622.11"/>
<polygon fill="black" stroke="black" points="263.5,-622.1 260,-612.1 256.5,-622.1 263.5,-622.1"/>
</g>
<!-- ast.arguments object at 0x7efe760a31c0 -->
<g id="node3" class="node">
<title>ast.arguments object at 0x7efe760a31c0</title>
<path fill="#66cdaa" stroke="black" d="M139,-540C139,-540 89,-540 89,-540 83,-540 77,-534 77,-528 77,-528 77,-516 77,-516 77,-510 83,-504 89,-504 89,-504 139,-504 139,-504 145,-504 151,-510 151,-516 151,-516 151,-528 151,-528 151,-534 145,-540 139,-540"/>
<text text-anchor="middle" x="114" y="-518.3" font-family="Times,serif" font-size="14.00">arguments</text>
</g>
<!-- ast.FunctionDef object at 0x7efe760a3e20&#45;&gt;ast.arguments object at 0x7efe760a31c0 -->
<g id="edge2" class="edge">
<title>ast.FunctionDef object at 0x7efe760a3e20&#45;&gt;ast.arguments object at 0x7efe760a31c0</title>
<path fill="none" stroke="black" d="M224.28,-575.88C204.5,-566.39 179.73,-554.51 158.67,-544.42"/>
<polygon fill="black" stroke="black" points="160.13,-541.24 149.6,-540.07 157.1,-547.55 160.13,-541.24"/>
</g>
<!-- ast.Assign object at 0x7efe760a2a70 -->
<g id="node5" class="node">
<title>ast.Assign object at 0x7efe760a2a70</title>
<path fill="#66cdaa" stroke="black" d="M239,-540C239,-540 209,-540 209,-540 203,-540 197,-534 197,-528 197,-528 197,-516 197,-516 197,-510 203,-504 209,-504 209,-504 239,-504 239,-504 245,-504 251,-510 251,-516 251,-516 251,-528 251,-528 251,-534 245,-540 239,-540"/>
<text text-anchor="middle" x="224" y="-518.3" font-family="Times,serif" font-size="14.00">Assign</text>
</g>
<!-- ast.FunctionDef object at 0x7efe760a3e20&#45;&gt;ast.Assign object at 0x7efe760a2a70 -->
<g id="edge4" class="edge">
<title>ast.FunctionDef object at 0x7efe760a3e20&#45;&gt;ast.Assign object at 0x7efe760a2a70</title>
<path fill="none" stroke="black" d="M251.1,-575.7C247,-567.73 242.05,-558.1 237.51,-549.26"/>
<polygon fill="black" stroke="black" points="240.48,-547.4 232.8,-540.1 234.26,-550.6 240.48,-547.4"/>
</g>
<!-- ast.For object at 0x7efe760a3c10 -->
<g id="node9" class="node">
<title>ast.For object at 0x7efe760a3c10</title>
<path fill="#66cdaa" stroke="black" d="M338,-540C338,-540 308,-540 308,-540 302,-540 296,-534 296,-528 296,-528 296,-516 296,-516 296,-510 302,-504 308,-504 308,-504 338,-504 338,-504 344,-504 350,-510 350,-516 350,-516 350,-528 350,-528 350,-534 344,-540 338,-540"/>
<text text-anchor="middle" x="323" y="-518.3" font-family="Times,serif" font-size="14.00">For</text>
</g>
<!-- ast.FunctionDef object at 0x7efe760a3e20&#45;&gt;ast.For object at 0x7efe760a3c10 -->
<g id="edge8" class="edge">
<title>ast.FunctionDef object at 0x7efe760a3e20&#45;&gt;ast.For object at 0x7efe760a3c10</title>
<path fill="none" stroke="black" d="M275.57,-575.7C283.2,-567.22 292.52,-556.86 300.88,-547.58"/>
<polygon fill="black" stroke="black" points="303.52,-549.88 307.61,-540.1 298.31,-545.2 303.52,-549.88"/>
</g>
<!-- ast.Return object at 0x7efe769ea530 -->
<g id="node45" class="node">
<title>ast.Return object at 0x7efe769ea530</title>
<path fill="#66cdaa" stroke="black" d="M493,-540C493,-540 463,-540 463,-540 457,-540 451,-534 451,-528 451,-528 451,-516 451,-516 451,-510 457,-504 463,-504 463,-504 493,-504 493,-504 499,-504 505,-510 505,-516 505,-516 505,-528 505,-528 505,-534 499,-540 493,-540"/>
<text text-anchor="middle" x="478" y="-518.3" font-family="Times,serif" font-size="14.00">Return</text>
</g>
<!-- ast.FunctionDef object at 0x7efe760a3e20&#45;&gt;ast.Return object at 0x7efe769ea530 -->
<g id="edge58" class="edge">
<title>ast.FunctionDef object at 0x7efe760a3e20&#45;&gt;ast.Return object at 0x7efe769ea530</title>
<path fill="none" stroke="black" d="M302.55,-579.34C342.82,-566.41 402.65,-547.2 440.99,-534.89"/>
<polygon fill="black" stroke="black" points="442.27,-538.15 450.72,-531.76 440.13,-531.48 442.27,-538.15"/>
</g>
<!-- ast.arg object at 0x7efe760a3430 -->
<g id="node4" class="node">
<title>ast.arg object at 0x7efe760a3430</title>
<path fill="#66cdaa" stroke="black" d="M100,-468C100,-468 70,-468 70,-468 64,-468 58,-462 58,-456 58,-456 58,-444 58,-444 58,-438 64,-432 70,-432 70,-432 100,-432 100,-432 106,-432 112,-438 112,-444 112,-444 112,-456 112,-456 112,-462 106,-468 100,-468"/>
<text text-anchor="middle" x="85" y="-446.3" font-family="Times,serif" font-size="14.00">arg</text>
</g>
<!-- ast.arguments object at 0x7efe760a31c0&#45;&gt;ast.arg object at 0x7efe760a3430 -->
<g id="edge3" class="edge">
<title>ast.arguments object at 0x7efe760a31c0&#45;&gt;ast.arg object at 0x7efe760a3430</title>
<path fill="none" stroke="black" d="M106.83,-503.7C103.57,-495.81 99.63,-486.3 96,-477.55"/>
<polygon fill="black" stroke="black" points="99.15,-476 92.09,-468.1 92.68,-478.68 99.15,-476"/>
</g>
<!-- ast.Name object at 0x7efe760a2c20 -->
<g id="node6" class="node">
<title>ast.Name object at 0x7efe760a2c20</title>
<path fill="#66cdaa" stroke="black" d="M42,-396C42,-396 12,-396 12,-396 6,-396 0,-390 0,-384 0,-384 0,-372 0,-372 0,-366 6,-360 12,-360 12,-360 42,-360 42,-360 48,-360 54,-366 54,-372 54,-372 54,-384 54,-384 54,-390 48,-396 42,-396"/>
<text text-anchor="middle" x="27" y="-374.3" font-family="Times,serif" font-size="14.00">Name</text>
</g>
<!-- ast.Assign object at 0x7efe760a2a70&#45;&gt;ast.Name object at 0x7efe760a2c20 -->
<g id="edge5" class="edge">
<title>ast.Assign object at 0x7efe760a2a70&#45;&gt;ast.Name object at 0x7efe760a2c20</title>
<path fill="none" stroke="black" d="M225.07,-503.83C225.33,-483.89 222.56,-451.28 204,-432 160.63,-386.96 127.23,-416.02 68,-396 66.59,-395.52 65.15,-395.02 63.71,-394.5"/>
<polygon fill="black" stroke="black" points="64.74,-391.15 54.15,-390.86 62.25,-397.69 64.74,-391.15"/>
</g>
<!-- ast.Constant object at 0x7efe760a3cd0 -->
<g id="node8" class="node">
<title>ast.Constant object at 0x7efe760a3cd0</title>
<path fill="#66cdaa" stroke="black" d="M183.5,-468C183.5,-468 142.5,-468 142.5,-468 136.5,-468 130.5,-462 130.5,-456 130.5,-456 130.5,-444 130.5,-444 130.5,-438 136.5,-432 142.5,-432 142.5,-432 183.5,-432 183.5,-432 189.5,-432 195.5,-438 195.5,-444 195.5,-444 195.5,-456 195.5,-456 195.5,-462 189.5,-468 183.5,-468"/>
<text text-anchor="middle" x="163" y="-446.3" font-family="Times,serif" font-size="14.00">Constant</text>
</g>
<!-- ast.Assign object at 0x7efe760a2a70&#45;&gt;ast.Constant object at 0x7efe760a3cd0 -->
<g id="edge7" class="edge">
<title>ast.Assign object at 0x7efe760a2a70&#45;&gt;ast.Constant object at 0x7efe760a3cd0</title>
<path fill="none" stroke="black" d="M208.92,-503.7C201.61,-495.3 192.69,-485.07 184.66,-475.86"/>
<polygon fill="black" stroke="black" points="187.11,-473.34 177.91,-468.1 181.84,-477.94 187.11,-473.34"/>
</g>
<!-- ast.Store object at 0x7efea98f1ff0 -->
<g id="node7" class="node">
<title>ast.Store object at 0x7efea98f1ff0</title>
<path fill="#66cdaa" stroke="black" d="M82,-252C82,-252 52,-252 52,-252 46,-252 40,-246 40,-240 40,-240 40,-228 40,-228 40,-222 46,-216 52,-216 52,-216 82,-216 82,-216 88,-216 94,-222 94,-228 94,-228 94,-240 94,-240 94,-246 88,-252 82,-252"/>
<text text-anchor="middle" x="67" y="-230.3" font-family="Times,serif" font-size="14.00">Store</text>
</g>
<!-- ast.Name object at 0x7efe760a2c20&#45;&gt;ast.Store object at 0x7efea98f1ff0 -->
<g id="edge6" class="edge">
<title>ast.Name object at 0x7efe760a2c20&#45;&gt;ast.Store object at 0x7efea98f1ff0</title>
<path fill="none" stroke="black" d="M31.82,-359.87C38.67,-335.56 51.28,-290.82 59.39,-262.01"/>
<polygon fill="black" stroke="black" points="62.82,-262.76 62.16,-252.19 56.08,-260.87 62.82,-262.76"/>
</g>
<!-- ast.Name object at 0x7efe760a28f0 -->
<g id="node10" class="node">
<title>ast.Name object at 0x7efe760a28f0</title>
<path fill="#66cdaa" stroke="black" d="M294,-468C294,-468 264,-468 264,-468 258,-468 252,-462 252,-456 252,-456 252,-444 252,-444 252,-438 258,-432 264,-432 264,-432 294,-432 294,-432 300,-432 306,-438 306,-444 306,-444 306,-456 306,-456 306,-462 300,-468 294,-468"/>
<text text-anchor="middle" x="279" y="-446.3" font-family="Times,serif" font-size="14.00">Name</text>
</g>
<!-- ast.For object at 0x7efe760a3c10&#45;&gt;ast.Name object at 0x7efe760a28f0 -->
<g id="edge9" class="edge">
<title>ast.For object at 0x7efe760a3c10&#45;&gt;ast.Name object at 0x7efe760a28f0</title>
<path fill="none" stroke="black" d="M312.12,-503.7C307.01,-495.56 300.8,-485.69 295.16,-476.7"/>
<polygon fill="black" stroke="black" points="298.04,-474.71 289.75,-468.1 292.11,-478.43 298.04,-474.71"/>
</g>
<!-- ast.Call object at 0x7efe760a3d00 -->
<g id="node11" class="node">
<title>ast.Call object at 0x7efe760a3d00</title>
<path fill="#66cdaa" stroke="black" d="M544,-468C544,-468 514,-468 514,-468 508,-468 502,-462 502,-456 502,-456 502,-444 502,-444 502,-438 508,-432 514,-432 514,-432 544,-432 544,-432 550,-432 556,-438 556,-444 556,-444 556,-456 556,-456 556,-462 550,-468 544,-468"/>
<text text-anchor="middle" x="529" y="-446.3" font-family="Times,serif" font-size="14.00">Call</text>
</g>
<!-- ast.For object at 0x7efe760a3c10&#45;&gt;ast.Call object at 0x7efe760a3d00 -->
<g id="edge11" class="edge">
<title>ast.For object at 0x7efe760a3c10&#45;&gt;ast.Call object at 0x7efe760a3d00</title>
<path fill="none" stroke="black" d="M350.36,-511.7C386.86,-499.3 451.6,-477.3 492.31,-463.47"/>
<polygon fill="black" stroke="black" points="493.52,-466.75 501.86,-460.22 491.27,-460.13 493.52,-466.75"/>
</g>
<!-- ast.If object at 0x7efe769ea0e0 -->
<g id="node19" class="node">
<title>ast.If object at 0x7efe769ea0e0</title>
<path fill="#66cdaa" stroke="black" d="M366,-468C366,-468 336,-468 336,-468 330,-468 324,-462 324,-456 324,-456 324,-444 324,-444 324,-438 330,-432 336,-432 336,-432 366,-432 366,-432 372,-432 378,-438 378,-444 378,-444 378,-456 378,-456 378,-462 372,-468 366,-468"/>
<text text-anchor="middle" x="351" y="-446.3" font-family="Times,serif" font-size="14.00">If</text>
</g>
<!-- ast.For object at 0x7efe760a3c10&#45;&gt;ast.If object at 0x7efe769ea0e0 -->
<g id="edge19" class="edge">
<title>ast.For object at 0x7efe760a3c10&#45;&gt;ast.If object at 0x7efe769ea0e0</title>
<path fill="none" stroke="black" d="M329.92,-503.7C333.07,-495.81 336.88,-486.3 340.38,-477.55"/>
<polygon fill="black" stroke="black" points="343.69,-478.69 344.16,-468.1 337.19,-476.09 343.69,-478.69"/>
</g>
<!-- ast.Name object at 0x7efe760a28f0&#45;&gt;ast.Store object at 0x7efea98f1ff0 -->
<g id="edge10" class="edge">
<title>ast.Name object at 0x7efe760a28f0&#45;&gt;ast.Store object at 0x7efea98f1ff0</title>
<path fill="none" stroke="black" d="M251.97,-436.51C213.41,-417.41 142.65,-377.47 101,-324 86.76,-305.72 77.93,-280.8 72.84,-261.98"/>
<polygon fill="black" stroke="black" points="76.23,-261.08 70.4,-252.23 69.44,-262.79 76.23,-261.08"/>
</g>
<!-- ast.Name object at 0x7efe760a3c70 -->
<g id="node12" class="node">
<title>ast.Name object at 0x7efe760a3c70</title>
<path fill="#66cdaa" stroke="black" d="M683,-396C683,-396 653,-396 653,-396 647,-396 641,-390 641,-384 641,-384 641,-372 641,-372 641,-366 647,-360 653,-360 653,-360 683,-360 683,-360 689,-360 695,-366 695,-372 695,-372 695,-384 695,-384 695,-390 689,-396 683,-396"/>
<text text-anchor="middle" x="668" y="-374.3" font-family="Times,serif" font-size="14.00">Name</text>
</g>
<!-- ast.Call object at 0x7efe760a3d00&#45;&gt;ast.Name object at 0x7efe760a3c70 -->
<g id="edge12" class="edge">
<title>ast.Call object at 0x7efe760a3d00&#45;&gt;ast.Name object at 0x7efe760a3c70</title>
<path fill="none" stroke="black" d="M556.13,-435.34C577.75,-424.45 608.22,-409.1 631.9,-397.18"/>
<polygon fill="black" stroke="black" points="633.58,-400.25 640.94,-392.63 630.43,-394 633.58,-400.25"/>
</g>
<!-- ast.Constant object at 0x7efe760a2c50 -->
<g id="node14" class="node">
<title>ast.Constant object at 0x7efe760a2c50</title>
<path fill="#66cdaa" stroke="black" d="M510.5,-396C510.5,-396 469.5,-396 469.5,-396 463.5,-396 457.5,-390 457.5,-384 457.5,-384 457.5,-372 457.5,-372 457.5,-366 463.5,-360 469.5,-360 469.5,-360 510.5,-360 510.5,-360 516.5,-360 522.5,-366 522.5,-372 522.5,-372 522.5,-384 522.5,-384 522.5,-390 516.5,-396 510.5,-396"/>
<text text-anchor="middle" x="490" y="-374.3" font-family="Times,serif" font-size="14.00">Constant</text>
</g>
<!-- ast.Call object at 0x7efe760a3d00&#45;&gt;ast.Constant object at 0x7efe760a2c50 -->
<g id="edge14" class="edge">
<title>ast.Call object at 0x7efe760a3d00&#45;&gt;ast.Constant object at 0x7efe760a2c50</title>
<path fill="none" stroke="black" d="M519.36,-431.7C514.87,-423.64 509.44,-413.89 504.48,-404.98"/>
<polygon fill="black" stroke="black" points="507.45,-403.14 499.53,-396.1 501.34,-406.54 507.45,-403.14"/>
</g>
<!-- ast.BinOp object at 0x7efe75ff8070 -->
<g id="node15" class="node">
<title>ast.BinOp object at 0x7efe75ff8070</title>
<path fill="#66cdaa" stroke="black" d="M583,-396C583,-396 553,-396 553,-396 547,-396 541,-390 541,-384 541,-384 541,-372 541,-372 541,-366 547,-360 553,-360 553,-360 583,-360 583,-360 589,-360 595,-366 595,-372 595,-372 595,-384 595,-384 595,-390 589,-396 583,-396"/>
<text text-anchor="middle" x="568" y="-374.3" font-family="Times,serif" font-size="14.00">BinOp</text>
</g>
<!-- ast.Call object at 0x7efe760a3d00&#45;&gt;ast.BinOp object at 0x7efe75ff8070 -->
<g id="edge15" class="edge">
<title>ast.Call object at 0x7efe760a3d00&#45;&gt;ast.BinOp object at 0x7efe75ff8070</title>
<path fill="none" stroke="black" d="M538.64,-431.7C543.13,-423.64 548.56,-413.89 553.52,-404.98"/>
<polygon fill="black" stroke="black" points="556.66,-406.54 558.47,-396.1 550.55,-403.14 556.66,-406.54"/>
</g>
<!-- ast.Load object at 0x7efea98f1f90 -->
<g id="node13" class="node">
<title>ast.Load object at 0x7efea98f1f90</title>
<path fill="#66cdaa" stroke="black" d="M351,-36C351,-36 321,-36 321,-36 315,-36 309,-30 309,-24 309,-24 309,-12 309,-12 309,-6 315,0 321,0 321,0 351,0 351,0 357,0 363,-6 363,-12 363,-12 363,-24 363,-24 363,-30 357,-36 351,-36"/>
<text text-anchor="middle" x="336" y="-14.3" font-family="Times,serif" font-size="14.00">Load</text>
</g>
<!-- ast.Name object at 0x7efe760a3c70&#45;&gt;ast.Load object at 0x7efea98f1f90 -->
<g id="edge13" class="edge">
<title>ast.Name object at 0x7efe760a3c70&#45;&gt;ast.Load object at 0x7efea98f1f90</title>
<path fill="none" stroke="black" d="M677.38,-359.75C682.59,-349.59 688.84,-336.34 693,-324 705.94,-285.68 712,-275.45 712,-235 712,-235 712,-235 712,-161 712,-120.55 722.49,-99.69 693,-72 647.33,-29.11 455.15,-20.89 373.24,-19.34"/>
<polygon fill="black" stroke="black" points="373.18,-15.84 363.12,-19.17 373.06,-22.84 373.18,-15.84"/>
</g>
<!-- ast.Constant object at 0x7efe769ea9b0 -->
<g id="node16" class="node">
<title>ast.Constant object at 0x7efe769ea9b0</title>
<path fill="#66cdaa" stroke="black" d="M588.5,-324C588.5,-324 547.5,-324 547.5,-324 541.5,-324 535.5,-318 535.5,-312 535.5,-312 535.5,-300 535.5,-300 535.5,-294 541.5,-288 547.5,-288 547.5,-288 588.5,-288 588.5,-288 594.5,-288 600.5,-294 600.5,-300 600.5,-300 600.5,-312 600.5,-312 600.5,-318 594.5,-324 588.5,-324"/>
<text text-anchor="middle" x="568" y="-302.3" font-family="Times,serif" font-size="14.00">Constant</text>
</g>
<!-- ast.BinOp object at 0x7efe75ff8070&#45;&gt;ast.Constant object at 0x7efe769ea9b0 -->
<g id="edge16" class="edge">
<title>ast.BinOp object at 0x7efe75ff8070&#45;&gt;ast.Constant object at 0x7efe769ea9b0</title>
<path fill="none" stroke="black" d="M568,-359.7C568,-351.98 568,-342.71 568,-334.11"/>
<polygon fill="black" stroke="black" points="571.5,-334.1 568,-324.1 564.5,-334.1 571.5,-334.1"/>
</g>
<!-- ast.Add object at 0x7efea98f21d0 -->
<g id="node17" class="node">
<title>ast.Add object at 0x7efea98f21d0</title>
<path fill="#66cdaa" stroke="black" d="M505,-324C505,-324 475,-324 475,-324 469,-324 463,-318 463,-312 463,-312 463,-300 463,-300 463,-294 469,-288 475,-288 475,-288 505,-288 505,-288 511,-288 517,-294 517,-300 517,-300 517,-312 517,-312 517,-318 511,-324 505,-324"/>
<text text-anchor="middle" x="490" y="-302.3" font-family="Times,serif" font-size="14.00">Add</text>
</g>
<!-- ast.BinOp object at 0x7efe75ff8070&#45;&gt;ast.Add object at 0x7efea98f21d0 -->
<g id="edge17" class="edge">
<title>ast.BinOp object at 0x7efe75ff8070&#45;&gt;ast.Add object at 0x7efea98f21d0</title>
<path fill="none" stroke="black" d="M548.72,-359.7C539.08,-351.05 527.27,-340.45 516.77,-331.03"/>
<polygon fill="black" stroke="black" points="518.84,-328.18 509.06,-324.1 514.16,-333.39 518.84,-328.18"/>
</g>
<!-- ast.Constant object at 0x7efe769e9060 -->
<g id="node18" class="node">
<title>ast.Constant object at 0x7efe769e9060</title>
<path fill="#66cdaa" stroke="black" d="M671.5,-324C671.5,-324 630.5,-324 630.5,-324 624.5,-324 618.5,-318 618.5,-312 618.5,-312 618.5,-300 618.5,-300 618.5,-294 624.5,-288 630.5,-288 630.5,-288 671.5,-288 671.5,-288 677.5,-288 683.5,-294 683.5,-300 683.5,-300 683.5,-312 683.5,-312 683.5,-318 677.5,-324 671.5,-324"/>
<text text-anchor="middle" x="651" y="-302.3" font-family="Times,serif" font-size="14.00">Constant</text>
</g>
<!-- ast.BinOp object at 0x7efe75ff8070&#45;&gt;ast.Constant object at 0x7efe769e9060 -->
<g id="edge18" class="edge">
<title>ast.BinOp object at 0x7efe75ff8070&#45;&gt;ast.Constant object at 0x7efe769e9060</title>
<path fill="none" stroke="black" d="M588.52,-359.7C598.87,-350.97 611.59,-340.24 622.84,-330.75"/>
<polygon fill="black" stroke="black" points="625.33,-333.23 630.72,-324.1 620.82,-327.88 625.33,-333.23"/>
</g>
<!-- ast.BoolOp object at 0x7efe769ea2c0 -->
<g id="node20" class="node">
<title>ast.BoolOp object at 0x7efe769ea2c0</title>
<path fill="#66cdaa" stroke="black" d="M312.5,-396C312.5,-396 277.5,-396 277.5,-396 271.5,-396 265.5,-390 265.5,-384 265.5,-384 265.5,-372 265.5,-372 265.5,-366 271.5,-360 277.5,-360 277.5,-360 312.5,-360 312.5,-360 318.5,-360 324.5,-366 324.5,-372 324.5,-372 324.5,-384 324.5,-384 324.5,-390 318.5,-396 312.5,-396"/>
<text text-anchor="middle" x="295" y="-374.3" font-family="Times,serif" font-size="14.00">BoolOp</text>
</g>
<!-- ast.If object at 0x7efe769ea0e0&#45;&gt;ast.BoolOp object at 0x7efe769ea2c0 -->
<g id="edge20" class="edge">
<title>ast.If object at 0x7efe769ea0e0&#45;&gt;ast.BoolOp object at 0x7efe769ea2c0</title>
<path fill="none" stroke="black" d="M337.16,-431.7C330.51,-423.39 322.42,-413.28 315.11,-404.14"/>
<polygon fill="black" stroke="black" points="317.66,-401.73 308.68,-396.1 312.2,-406.1 317.66,-401.73"/>
</g>
<!-- ast.AugAssign object at 0x7efe769e9f00 -->
<g id="node40" class="node">
<title>ast.AugAssign object at 0x7efe769e9f00</title>
<path fill="#66cdaa" stroke="black" d="M420.5,-396C420.5,-396 367.5,-396 367.5,-396 361.5,-396 355.5,-390 355.5,-384 355.5,-384 355.5,-372 355.5,-372 355.5,-366 361.5,-360 367.5,-360 367.5,-360 420.5,-360 420.5,-360 426.5,-360 432.5,-366 432.5,-372 432.5,-372 432.5,-384 432.5,-384 432.5,-390 426.5,-396 420.5,-396"/>
<text text-anchor="middle" x="394" y="-374.3" font-family="Times,serif" font-size="14.00">AugAssign</text>
</g>
<!-- ast.If object at 0x7efe769ea0e0&#45;&gt;ast.AugAssign object at 0x7efe769e9f00 -->
<g id="edge48" class="edge">
<title>ast.If object at 0x7efe769ea0e0&#45;&gt;ast.AugAssign object at 0x7efe769e9f00</title>
<path fill="none" stroke="black" d="M361.63,-431.7C366.63,-423.56 372.69,-413.69 378.21,-404.7"/>
<polygon fill="black" stroke="black" points="381.24,-406.46 383.49,-396.1 375.28,-402.79 381.24,-406.46"/>
</g>
<!-- ast.Or object at 0x7efea98f2140 -->
<g id="node21" class="node">
<title>ast.Or object at 0x7efea98f2140</title>
<path fill="#66cdaa" stroke="black" d="M152,-324C152,-324 122,-324 122,-324 116,-324 110,-318 110,-312 110,-312 110,-300 110,-300 110,-294 116,-288 122,-288 122,-288 152,-288 152,-288 158,-288 164,-294 164,-300 164,-300 164,-312 164,-312 164,-318 158,-324 152,-324"/>
<text text-anchor="middle" x="137" y="-302.3" font-family="Times,serif" font-size="14.00">Or</text>
</g>
<!-- ast.BoolOp object at 0x7efe769ea2c0&#45;&gt;ast.Or object at 0x7efea98f2140 -->
<g id="edge21" class="edge">
<title>ast.BoolOp object at 0x7efe769ea2c0&#45;&gt;ast.Or object at 0x7efea98f2140</title>
<path fill="none" stroke="black" d="M265.3,-364.41C242.46,-354.65 209.92,-340.61 173.44,-324.14"/>
<polygon fill="black" stroke="black" points="174.64,-320.84 164.08,-319.9 171.75,-327.22 174.64,-320.84"/>
</g>
<!-- ast.Compare object at 0x7efe769eae30 -->
<g id="node22" class="node">
<title>ast.Compare object at 0x7efe769eae30</title>
<path fill="#66cdaa" stroke="black" d="M309.5,-324C309.5,-324 266.5,-324 266.5,-324 260.5,-324 254.5,-318 254.5,-312 254.5,-312 254.5,-300 254.5,-300 254.5,-294 260.5,-288 266.5,-288 266.5,-288 309.5,-288 309.5,-288 315.5,-288 321.5,-294 321.5,-300 321.5,-300 321.5,-312 321.5,-312 321.5,-318 315.5,-324 309.5,-324"/>
<text text-anchor="middle" x="288" y="-302.3" font-family="Times,serif" font-size="14.00">Compare</text>
</g>
<!-- ast.BoolOp object at 0x7efe769ea2c0&#45;&gt;ast.Compare object at 0x7efe769eae30 -->
<g id="edge22" class="edge">
<title>ast.BoolOp object at 0x7efe769ea2c0&#45;&gt;ast.Compare object at 0x7efe769eae30</title>
<path fill="none" stroke="black" d="M293.27,-359.7C292.5,-351.98 291.57,-342.71 290.71,-334.11"/>
<polygon fill="black" stroke="black" points="294.19,-333.71 289.71,-324.1 287.22,-334.4 294.19,-333.71"/>
</g>
<!-- ast.Compare object at 0x7efe769eb5e0 -->
<g id="node31" class="node">
<title>ast.Compare object at 0x7efe769eb5e0</title>
<path fill="#66cdaa" stroke="black" d="M394.5,-324C394.5,-324 351.5,-324 351.5,-324 345.5,-324 339.5,-318 339.5,-312 339.5,-312 339.5,-300 339.5,-300 339.5,-294 345.5,-288 351.5,-288 351.5,-288 394.5,-288 394.5,-288 400.5,-288 406.5,-294 406.5,-300 406.5,-300 406.5,-312 406.5,-312 406.5,-318 400.5,-324 394.5,-324"/>
<text text-anchor="middle" x="373" y="-302.3" font-family="Times,serif" font-size="14.00">Compare</text>
</g>
<!-- ast.BoolOp object at 0x7efe769ea2c0&#45;&gt;ast.Compare object at 0x7efe769eb5e0 -->
<g id="edge34" class="edge">
<title>ast.BoolOp object at 0x7efe769ea2c0&#45;&gt;ast.Compare object at 0x7efe769eb5e0</title>
<path fill="none" stroke="black" d="M314.28,-359.7C323.92,-351.05 335.73,-340.45 346.23,-331.03"/>
<polygon fill="black" stroke="black" points="348.84,-333.39 353.94,-324.1 344.16,-328.18 348.84,-333.39"/>
</g>
<!-- ast.BinOp object at 0x7efe769e8e80 -->
<g id="node23" class="node">
<title>ast.BinOp object at 0x7efe769e8e80</title>
<path fill="#66cdaa" stroke="black" d="M154,-252C154,-252 124,-252 124,-252 118,-252 112,-246 112,-240 112,-240 112,-228 112,-228 112,-222 118,-216 124,-216 124,-216 154,-216 154,-216 160,-216 166,-222 166,-228 166,-228 166,-240 166,-240 166,-246 160,-252 154,-252"/>
<text text-anchor="middle" x="139" y="-230.3" font-family="Times,serif" font-size="14.00">BinOp</text>
</g>
<!-- ast.Compare object at 0x7efe769eae30&#45;&gt;ast.BinOp object at 0x7efe769e8e80 -->
<g id="edge23" class="edge">
<title>ast.Compare object at 0x7efe769eae30&#45;&gt;ast.BinOp object at 0x7efe769e8e80</title>
<path fill="none" stroke="black" d="M254.37,-289.25C233.91,-279.67 207.03,-267.07 175.57,-252.26"/>
<polygon fill="black" stroke="black" points="176.66,-248.91 166.12,-247.82 173.68,-255.24 176.66,-248.91"/>
</g>
<!-- ast.Eq object at 0x7efea98f28c0 -->
<g id="node29" class="node">
<title>ast.Eq object at 0x7efea98f28c0</title>
<path fill="#66cdaa" stroke="black" d="M310,-252C310,-252 280,-252 280,-252 274,-252 268,-246 268,-240 268,-240 268,-228 268,-228 268,-222 274,-216 280,-216 280,-216 310,-216 310,-216 316,-216 322,-222 322,-228 322,-228 322,-240 322,-240 322,-246 316,-252 310,-252"/>
<text text-anchor="middle" x="295" y="-230.3" font-family="Times,serif" font-size="14.00">Eq</text>
</g>
<!-- ast.Compare object at 0x7efe769eae30&#45;&gt;ast.Eq object at 0x7efea98f28c0 -->
<g id="edge32" class="edge">
<title>ast.Compare object at 0x7efe769eae30&#45;&gt;ast.Eq object at 0x7efea98f28c0</title>
<path fill="none" stroke="black" d="M289.73,-287.7C290.5,-279.98 291.43,-270.71 292.29,-262.11"/>
<polygon fill="black" stroke="black" points="295.78,-262.4 293.29,-252.1 288.81,-261.71 295.78,-262.4"/>
</g>
<!-- ast.Constant object at 0x7efe769e8d30 -->
<g id="node30" class="node">
<title>ast.Constant object at 0x7efe769e8d30</title>
<path fill="#66cdaa" stroke="black" d="M237.5,-252C237.5,-252 196.5,-252 196.5,-252 190.5,-252 184.5,-246 184.5,-240 184.5,-240 184.5,-228 184.5,-228 184.5,-222 190.5,-216 196.5,-216 196.5,-216 237.5,-216 237.5,-216 243.5,-216 249.5,-222 249.5,-228 249.5,-228 249.5,-240 249.5,-240 249.5,-246 243.5,-252 237.5,-252"/>
<text text-anchor="middle" x="217" y="-230.3" font-family="Times,serif" font-size="14.00">Constant</text>
</g>
<!-- ast.Compare object at 0x7efe769eae30&#45;&gt;ast.Constant object at 0x7efe769e8d30 -->
<g id="edge33" class="edge">
<title>ast.Compare object at 0x7efe769eae30&#45;&gt;ast.Constant object at 0x7efe769e8d30</title>
<path fill="none" stroke="black" d="M270.45,-287.7C261.77,-279.14 251.14,-268.66 241.65,-259.3"/>
<polygon fill="black" stroke="black" points="243.93,-256.63 234.35,-252.1 239.01,-261.62 243.93,-256.63"/>
</g>
<!-- ast.Subscript object at 0x7efe769ea950 -->
<g id="node24" class="node">
<title>ast.Subscript object at 0x7efe769ea950</title>
<path fill="#66cdaa" stroke="black" d="M94,-180C94,-180 50,-180 50,-180 44,-180 38,-174 38,-168 38,-168 38,-156 38,-156 38,-150 44,-144 50,-144 50,-144 94,-144 94,-144 100,-144 106,-150 106,-156 106,-156 106,-168 106,-168 106,-174 100,-180 94,-180"/>
<text text-anchor="middle" x="72" y="-158.3" font-family="Times,serif" font-size="14.00">Subscript</text>
</g>
<!-- ast.BinOp object at 0x7efe769e8e80&#45;&gt;ast.Subscript object at 0x7efe769ea950 -->
<g id="edge24" class="edge">
<title>ast.BinOp object at 0x7efe769e8e80&#45;&gt;ast.Subscript object at 0x7efe769ea950</title>
<path fill="none" stroke="black" d="M122.44,-215.7C114.32,-207.22 104.41,-196.86 95.53,-187.58"/>
<polygon fill="black" stroke="black" points="97.81,-184.91 88.37,-180.1 92.76,-189.75 97.81,-184.91"/>
</g>
<!-- ast.Mod object at 0x7efea98f23b0 -->
<g id="node27" class="node">
<title>ast.Mod object at 0x7efea98f23b0</title>
<path fill="#66cdaa" stroke="black" d="M250,-180C250,-180 220,-180 220,-180 214,-180 208,-174 208,-168 208,-168 208,-156 208,-156 208,-150 214,-144 220,-144 220,-144 250,-144 250,-144 256,-144 262,-150 262,-156 262,-156 262,-168 262,-168 262,-174 256,-180 250,-180"/>
<text text-anchor="middle" x="235" y="-158.3" font-family="Times,serif" font-size="14.00">Mod</text>
</g>
<!-- ast.BinOp object at 0x7efe769e8e80&#45;&gt;ast.Mod object at 0x7efea98f23b0 -->
<g id="edge30" class="edge">
<title>ast.BinOp object at 0x7efe769e8e80&#45;&gt;ast.Mod object at 0x7efea98f23b0</title>
<path fill="none" stroke="black" d="M162.73,-215.7C174.94,-206.8 189.99,-195.82 203.18,-186.2"/>
<polygon fill="black" stroke="black" points="205.52,-188.82 211.54,-180.1 201.4,-183.17 205.52,-188.82"/>
</g>
<!-- ast.Constant object at 0x7efe769e9e40 -->
<g id="node28" class="node">
<title>ast.Constant object at 0x7efe769e9e40</title>
<path fill="#66cdaa" stroke="black" d="M177.5,-180C177.5,-180 136.5,-180 136.5,-180 130.5,-180 124.5,-174 124.5,-168 124.5,-168 124.5,-156 124.5,-156 124.5,-150 130.5,-144 136.5,-144 136.5,-144 177.5,-144 177.5,-144 183.5,-144 189.5,-150 189.5,-156 189.5,-156 189.5,-168 189.5,-168 189.5,-174 183.5,-180 177.5,-180"/>
<text text-anchor="middle" x="157" y="-158.3" font-family="Times,serif" font-size="14.00">Constant</text>
</g>
<!-- ast.BinOp object at 0x7efe769e8e80&#45;&gt;ast.Constant object at 0x7efe769e9e40 -->
<g id="edge31" class="edge">
<title>ast.BinOp object at 0x7efe769e8e80&#45;&gt;ast.Constant object at 0x7efe769e9e40</title>
<path fill="none" stroke="black" d="M143.45,-215.7C145.45,-207.9 147.87,-198.51 150.1,-189.83"/>
<polygon fill="black" stroke="black" points="153.5,-190.66 152.6,-180.1 146.72,-188.92 153.5,-190.66"/>
</g>
<!-- ast.Subscript object at 0x7efe769ea950&#45;&gt;ast.Load object at 0x7efea98f1f90 -->
<g id="edge29" class="edge">
<title>ast.Subscript object at 0x7efe769ea950&#45;&gt;ast.Load object at 0x7efea98f1f90</title>
<path fill="none" stroke="black" d="M72.7,-143.91C74.49,-123.75 80.58,-90.6 101,-72 129.66,-45.9 240.03,-29.81 298.75,-22.92"/>
<polygon fill="black" stroke="black" points="299.2,-26.39 308.74,-21.77 298.41,-19.43 299.2,-26.39"/>
</g>
<!-- ast.Name object at 0x7efe769ea7d0 -->
<g id="node25" class="node">
<title>ast.Name object at 0x7efe769ea7d0</title>
<path fill="#66cdaa" stroke="black" d="M152,-108C152,-108 122,-108 122,-108 116,-108 110,-102 110,-96 110,-96 110,-84 110,-84 110,-78 116,-72 122,-72 122,-72 152,-72 152,-72 158,-72 164,-78 164,-84 164,-84 164,-96 164,-96 164,-102 158,-108 152,-108"/>
<text text-anchor="middle" x="137" y="-86.3" font-family="Times,serif" font-size="14.00">Name</text>
</g>
<!-- ast.Subscript object at 0x7efe769ea950&#45;&gt;ast.Name object at 0x7efe769ea7d0 -->
<g id="edge25" class="edge">
<title>ast.Subscript object at 0x7efe769ea950&#45;&gt;ast.Name object at 0x7efe769ea7d0</title>
<path fill="none" stroke="black" d="M88.07,-143.7C95.94,-135.22 105.56,-124.86 114.17,-115.58"/>
<polygon fill="black" stroke="black" points="116.88,-117.81 121.12,-108.1 111.75,-113.05 116.88,-117.81"/>
</g>
<!-- ast.Name object at 0x7efe769e8880 -->
<g id="node26" class="node">
<title>ast.Name object at 0x7efe769e8880</title>
<path fill="#66cdaa" stroke="black" d="M42,-108C42,-108 12,-108 12,-108 6,-108 0,-102 0,-96 0,-96 0,-84 0,-84 0,-78 6,-72 12,-72 12,-72 42,-72 42,-72 48,-72 54,-78 54,-84 54,-84 54,-96 54,-96 54,-102 48,-108 42,-108"/>
<text text-anchor="middle" x="27" y="-86.3" font-family="Times,serif" font-size="14.00">Name</text>
</g>
<!-- ast.Subscript object at 0x7efe769ea950&#45;&gt;ast.Name object at 0x7efe769e8880 -->
<g id="edge27" class="edge">
<title>ast.Subscript object at 0x7efe769ea950&#45;&gt;ast.Name object at 0x7efe769e8880</title>
<path fill="none" stroke="black" d="M60.88,-143.7C55.64,-135.56 49.3,-125.69 43.52,-116.7"/>
<polygon fill="black" stroke="black" points="46.35,-114.62 38,-108.1 40.46,-118.41 46.35,-114.62"/>
</g>
<!-- ast.Name object at 0x7efe769ea7d0&#45;&gt;ast.Load object at 0x7efea98f1f90 -->
<g id="edge26" class="edge">
<title>ast.Name object at 0x7efe769ea7d0&#45;&gt;ast.Load object at 0x7efea98f1f90</title>
<path fill="none" stroke="black" d="M164.36,-75.64C167.25,-74.36 170.17,-73.12 173,-72 215.49,-55.14 265.67,-39.43 299.02,-29.56"/>
<polygon fill="black" stroke="black" points="300.19,-32.87 308.8,-26.69 298.22,-26.15 300.19,-32.87"/>
</g>
<!-- ast.Name object at 0x7efe769e8880&#45;&gt;ast.Load object at 0x7efea98f1f90 -->
<g id="edge28" class="edge">
<title>ast.Name object at 0x7efe769e8880&#45;&gt;ast.Load object at 0x7efea98f1f90</title>
<path fill="none" stroke="black" d="M54.07,-76.89C58.67,-75.1 63.43,-73.39 68,-72 148.69,-47.56 246.53,-31.51 298.81,-23.98"/>
<polygon fill="black" stroke="black" points="299.53,-27.41 308.94,-22.54 298.55,-20.48 299.53,-27.41"/>
</g>
<!-- ast.Compare object at 0x7efe769eb5e0&#45;&gt;ast.Eq object at 0x7efea98f28c0 -->
<g id="edge46" class="edge">
<title>ast.Compare object at 0x7efe769eb5e0&#45;&gt;ast.Eq object at 0x7efea98f28c0</title>
<path fill="none" stroke="black" d="M353.72,-287.7C344.08,-279.05 332.27,-268.45 321.77,-259.03"/>
<polygon fill="black" stroke="black" points="323.84,-256.18 314.06,-252.1 319.16,-261.39 323.84,-256.18"/>
</g>
<!-- ast.BinOp object at 0x7efe769e85e0 -->
<g id="node32" class="node">
<title>ast.BinOp object at 0x7efe769e85e0</title>
<path fill="#66cdaa" stroke="black" d="M382,-252C382,-252 352,-252 352,-252 346,-252 340,-246 340,-240 340,-240 340,-228 340,-228 340,-222 346,-216 352,-216 352,-216 382,-216 382,-216 388,-216 394,-222 394,-228 394,-228 394,-240 394,-240 394,-246 388,-252 382,-252"/>
<text text-anchor="middle" x="367" y="-230.3" font-family="Times,serif" font-size="14.00">BinOp</text>
</g>
<!-- ast.Compare object at 0x7efe769eb5e0&#45;&gt;ast.BinOp object at 0x7efe769e85e0 -->
<g id="edge35" class="edge">
<title>ast.Compare object at 0x7efe769eb5e0&#45;&gt;ast.BinOp object at 0x7efe769e85e0</title>
<path fill="none" stroke="black" d="M371.52,-287.7C370.86,-279.98 370.06,-270.71 369.32,-262.11"/>
<polygon fill="black" stroke="black" points="372.81,-261.77 368.47,-252.1 365.83,-262.37 372.81,-261.77"/>
</g>
<!-- ast.Constant object at 0x7efe769ebd90 -->
<g id="node39" class="node">
<title>ast.Constant object at 0x7efe769ebd90</title>
<path fill="#66cdaa" stroke="black" d="M465.5,-252C465.5,-252 424.5,-252 424.5,-252 418.5,-252 412.5,-246 412.5,-240 412.5,-240 412.5,-228 412.5,-228 412.5,-222 418.5,-216 424.5,-216 424.5,-216 465.5,-216 465.5,-216 471.5,-216 477.5,-222 477.5,-228 477.5,-228 477.5,-240 477.5,-240 477.5,-246 471.5,-252 465.5,-252"/>
<text text-anchor="middle" x="445" y="-230.3" font-family="Times,serif" font-size="14.00">Constant</text>
</g>
<!-- ast.Compare object at 0x7efe769eb5e0&#45;&gt;ast.Constant object at 0x7efe769ebd90 -->
<g id="edge47" class="edge">
<title>ast.Compare object at 0x7efe769eb5e0&#45;&gt;ast.Constant object at 0x7efe769ebd90</title>
<path fill="none" stroke="black" d="M390.8,-287.7C399.6,-279.14 410.38,-268.66 420,-259.3"/>
<polygon fill="black" stroke="black" points="422.68,-261.58 427.41,-252.1 417.8,-256.57 422.68,-261.58"/>
</g>
<!-- ast.BinOp object at 0x7efe769e85e0&#45;&gt;ast.Mod object at 0x7efea98f23b0 -->
<g id="edge42" class="edge">
<title>ast.BinOp object at 0x7efe769e85e0&#45;&gt;ast.Mod object at 0x7efea98f23b0</title>
<path fill="none" stroke="black" d="M339.97,-218.67C320.17,-208.17 293.08,-193.8 271.38,-182.29"/>
<polygon fill="black" stroke="black" points="272.92,-179.15 262.45,-177.56 269.64,-185.33 272.92,-179.15"/>
</g>
<!-- ast.Subscript object at 0x7efe769e8820 -->
<g id="node33" class="node">
<title>ast.Subscript object at 0x7efe769e8820</title>
<path fill="#66cdaa" stroke="black" d="M336,-180C336,-180 292,-180 292,-180 286,-180 280,-174 280,-168 280,-168 280,-156 280,-156 280,-150 286,-144 292,-144 292,-144 336,-144 336,-144 342,-144 348,-150 348,-156 348,-156 348,-168 348,-168 348,-174 342,-180 336,-180"/>
<text text-anchor="middle" x="314" y="-158.3" font-family="Times,serif" font-size="14.00">Subscript</text>
</g>
<!-- ast.BinOp object at 0x7efe769e85e0&#45;&gt;ast.Subscript object at 0x7efe769e8820 -->
<g id="edge36" class="edge">
<title>ast.BinOp object at 0x7efe769e85e0&#45;&gt;ast.Subscript object at 0x7efe769e8820</title>
<path fill="none" stroke="black" d="M353.9,-215.7C347.61,-207.39 339.95,-197.28 333.04,-188.14"/>
<polygon fill="black" stroke="black" points="335.78,-185.96 326.95,-180.1 330.2,-190.19 335.78,-185.96"/>
</g>
<!-- ast.UnaryOp object at 0x7efe769ebeb0 -->
<g id="node36" class="node">
<title>ast.UnaryOp object at 0x7efe769ebeb0</title>
<path fill="#66cdaa" stroke="black" d="M421.5,-180C421.5,-180 378.5,-180 378.5,-180 372.5,-180 366.5,-174 366.5,-168 366.5,-168 366.5,-156 366.5,-156 366.5,-150 372.5,-144 378.5,-144 378.5,-144 421.5,-144 421.5,-144 427.5,-144 433.5,-150 433.5,-156 433.5,-156 433.5,-168 433.5,-168 433.5,-174 427.5,-180 421.5,-180"/>
<text text-anchor="middle" x="400" y="-158.3" font-family="Times,serif" font-size="14.00">UnaryOp</text>
</g>
<!-- ast.BinOp object at 0x7efe769e85e0&#45;&gt;ast.UnaryOp object at 0x7efe769ebeb0 -->
<g id="edge43" class="edge">
<title>ast.BinOp object at 0x7efe769e85e0&#45;&gt;ast.UnaryOp object at 0x7efe769ebeb0</title>
<path fill="none" stroke="black" d="M375.16,-215.7C378.91,-207.73 383.45,-198.1 387.62,-189.26"/>
<polygon fill="black" stroke="black" points="390.84,-190.64 391.94,-180.1 384.51,-187.66 390.84,-190.64"/>
</g>
<!-- ast.Subscript object at 0x7efe769e8820&#45;&gt;ast.Load object at 0x7efea98f1f90 -->
<g id="edge41" class="edge">
<title>ast.Subscript object at 0x7efe769e8820&#45;&gt;ast.Load object at 0x7efea98f1f90</title>
<path fill="none" stroke="black" d="M316.65,-143.87C320.4,-119.67 327.29,-75.21 331.76,-46.39"/>
<polygon fill="black" stroke="black" points="335.26,-46.61 333.34,-36.19 328.35,-45.54 335.26,-46.61"/>
</g>
<!-- ast.Name object at 0x7efe769e96f0 -->
<g id="node34" class="node">
<title>ast.Name object at 0x7efe769e96f0</title>
<path fill="#66cdaa" stroke="black" d="M224,-108C224,-108 194,-108 194,-108 188,-108 182,-102 182,-96 182,-96 182,-84 182,-84 182,-78 188,-72 194,-72 194,-72 224,-72 224,-72 230,-72 236,-78 236,-84 236,-84 236,-96 236,-96 236,-102 230,-108 224,-108"/>
<text text-anchor="middle" x="209" y="-86.3" font-family="Times,serif" font-size="14.00">Name</text>
</g>
<!-- ast.Subscript object at 0x7efe769e8820&#45;&gt;ast.Name object at 0x7efe769e96f0 -->
<g id="edge37" class="edge">
<title>ast.Subscript object at 0x7efe769e8820&#45;&gt;ast.Name object at 0x7efe769e96f0</title>
<path fill="none" stroke="black" d="M288.31,-143.88C274.71,-134.81 257.83,-123.55 243.14,-113.76"/>
<polygon fill="black" stroke="black" points="245.05,-110.82 234.78,-108.19 241.16,-116.65 245.05,-110.82"/>
</g>
<!-- ast.Name object at 0x7efe769ea590 -->
<g id="node35" class="node">
<title>ast.Name object at 0x7efe769ea590</title>
<path fill="#66cdaa" stroke="black" d="M296,-108C296,-108 266,-108 266,-108 260,-108 254,-102 254,-96 254,-96 254,-84 254,-84 254,-78 260,-72 266,-72 266,-72 296,-72 296,-72 302,-72 308,-78 308,-84 308,-84 308,-96 308,-96 308,-102 302,-108 296,-108"/>
<text text-anchor="middle" x="281" y="-86.3" font-family="Times,serif" font-size="14.00">Name</text>
</g>
<!-- ast.Subscript object at 0x7efe769e8820&#45;&gt;ast.Name object at 0x7efe769ea590 -->
<g id="edge39" class="edge">
<title>ast.Subscript object at 0x7efe769e8820&#45;&gt;ast.Name object at 0x7efe769ea590</title>
<path fill="none" stroke="black" d="M305.84,-143.7C302.09,-135.73 297.55,-126.1 293.38,-117.26"/>
<polygon fill="black" stroke="black" points="296.49,-115.66 289.06,-108.1 290.16,-118.64 296.49,-115.66"/>
</g>
<!-- ast.Name object at 0x7efe769e96f0&#45;&gt;ast.Load object at 0x7efea98f1f90 -->
<g id="edge38" class="edge">
<title>ast.Name object at 0x7efe769e96f0&#45;&gt;ast.Load object at 0x7efea98f1f90</title>
<path fill="none" stroke="black" d="M236.24,-73.98C254.83,-63.74 279.64,-50.07 299.87,-38.92"/>
<polygon fill="black" stroke="black" points="301.73,-41.88 308.8,-33.99 298.35,-35.75 301.73,-41.88"/>
</g>
<!-- ast.Name object at 0x7efe769ea590&#45;&gt;ast.Load object at 0x7efea98f1f90 -->
<g id="edge40" class="edge">
<title>ast.Name object at 0x7efe769ea590&#45;&gt;ast.Load object at 0x7efea98f1f90</title>
<path fill="none" stroke="black" d="M294.6,-71.7C301.12,-63.39 309.07,-53.28 316.25,-44.14"/>
<polygon fill="black" stroke="black" points="319.13,-46.13 322.56,-36.1 313.63,-41.81 319.13,-46.13"/>
</g>
<!-- ast.USub object at 0x7efea98f2830 -->
<g id="node37" class="node">
<title>ast.USub object at 0x7efea98f2830</title>
<path fill="#66cdaa" stroke="black" d="M406,-108C406,-108 376,-108 376,-108 370,-108 364,-102 364,-96 364,-96 364,-84 364,-84 364,-78 370,-72 376,-72 376,-72 406,-72 406,-72 412,-72 418,-78 418,-84 418,-84 418,-96 418,-96 418,-102 412,-108 406,-108"/>
<text text-anchor="middle" x="391" y="-86.3" font-family="Times,serif" font-size="14.00">USub</text>
</g>
<!-- ast.UnaryOp object at 0x7efe769ebeb0&#45;&gt;ast.USub object at 0x7efea98f2830 -->
<g id="edge44" class="edge">
<title>ast.UnaryOp object at 0x7efe769ebeb0&#45;&gt;ast.USub object at 0x7efea98f2830</title>
<path fill="none" stroke="black" d="M397.78,-143.7C396.78,-135.98 395.59,-126.71 394.49,-118.11"/>
<polygon fill="black" stroke="black" points="397.95,-117.58 393.2,-108.1 391,-118.47 397.95,-117.58"/>
</g>
<!-- ast.Constant object at 0x7efe769e8490 -->
<g id="node38" class="node">
<title>ast.Constant object at 0x7efe769e8490</title>
<path fill="#66cdaa" stroke="black" d="M489.5,-108C489.5,-108 448.5,-108 448.5,-108 442.5,-108 436.5,-102 436.5,-96 436.5,-96 436.5,-84 436.5,-84 436.5,-78 442.5,-72 448.5,-72 448.5,-72 489.5,-72 489.5,-72 495.5,-72 501.5,-78 501.5,-84 501.5,-84 501.5,-96 501.5,-96 501.5,-102 495.5,-108 489.5,-108"/>
<text text-anchor="middle" x="469" y="-86.3" font-family="Times,serif" font-size="14.00">Constant</text>
</g>
<!-- ast.UnaryOp object at 0x7efe769ebeb0&#45;&gt;ast.Constant object at 0x7efe769e8490 -->
<g id="edge45" class="edge">
<title>ast.UnaryOp object at 0x7efe769ebeb0&#45;&gt;ast.Constant object at 0x7efe769e8490</title>
<path fill="none" stroke="black" d="M417.06,-143.7C425.5,-135.14 435.82,-124.66 445.04,-115.3"/>
<polygon fill="black" stroke="black" points="447.61,-117.68 452.14,-108.1 442.63,-112.77 447.61,-117.68"/>
</g>
<!-- ast.AugAssign object at 0x7efe769e9f00&#45;&gt;ast.Add object at 0x7efea98f21d0 -->
<g id="edge51" class="edge">
<title>ast.AugAssign object at 0x7efe769e9f00&#45;&gt;ast.Add object at 0x7efea98f21d0</title>
<path fill="none" stroke="black" d="M417.73,-359.7C429.94,-350.8 444.99,-339.82 458.18,-330.2"/>
<polygon fill="black" stroke="black" points="460.52,-332.82 466.54,-324.1 456.4,-327.17 460.52,-332.82"/>
</g>
<!-- ast.Name object at 0x7efe769ea3e0 -->
<g id="node41" class="node">
<title>ast.Name object at 0x7efe769ea3e0</title>
<path fill="#66cdaa" stroke="black" d="M224,-324C224,-324 194,-324 194,-324 188,-324 182,-318 182,-312 182,-312 182,-300 182,-300 182,-294 188,-288 194,-288 194,-288 224,-288 224,-288 230,-288 236,-294 236,-300 236,-300 236,-312 236,-312 236,-318 230,-324 224,-324"/>
<text text-anchor="middle" x="209" y="-302.3" font-family="Times,serif" font-size="14.00">Name</text>
</g>
<!-- ast.AugAssign object at 0x7efe769e9f00&#45;&gt;ast.Name object at 0x7efe769ea3e0 -->
<g id="edge49" class="edge">
<title>ast.AugAssign object at 0x7efe769e9f00&#45;&gt;ast.Name object at 0x7efe769ea3e0</title>
<path fill="none" stroke="black" d="M355.32,-364.42C327.08,-354.97 287.76,-341.27 245.69,-324.11"/>
<polygon fill="black" stroke="black" points="246.97,-320.85 236.39,-320.28 244.3,-327.33 246.97,-320.85"/>
</g>
<!-- ast.Subscript object at 0x7efe769e8eb0 -->
<g id="node42" class="node">
<title>ast.Subscript object at 0x7efe769e8eb0</title>
<path fill="#66cdaa" stroke="black" d="M580,-180C580,-180 536,-180 536,-180 530,-180 524,-174 524,-168 524,-168 524,-156 524,-156 524,-150 530,-144 536,-144 536,-144 580,-144 580,-144 586,-144 592,-150 592,-156 592,-156 592,-168 592,-168 592,-174 586,-180 580,-180"/>
<text text-anchor="middle" x="558" y="-158.3" font-family="Times,serif" font-size="14.00">Subscript</text>
</g>
<!-- ast.AugAssign object at 0x7efe769e9f00&#45;&gt;ast.Subscript object at 0x7efe769e8eb0 -->
<g id="edge52" class="edge">
<title>ast.AugAssign object at 0x7efe769e9f00&#45;&gt;ast.Subscript object at 0x7efe769e8eb0</title>
<path fill="none" stroke="black" d="M404.63,-359.8C416.15,-341.52 435.38,-312 454,-288 467.12,-271.09 472.15,-268.33 486,-252 503.9,-230.9 523.62,-206.43 537.89,-188.49"/>
<polygon fill="black" stroke="black" points="540.96,-190.26 544.43,-180.25 535.47,-185.91 540.96,-190.26"/>
</g>
<!-- ast.Name object at 0x7efe769ea3e0&#45;&gt;ast.Store object at 0x7efea98f1ff0 -->
<g id="edge50" class="edge">
<title>ast.Name object at 0x7efe769ea3e0&#45;&gt;ast.Store object at 0x7efea98f1ff0</title>
<path fill="none" stroke="black" d="M181.96,-291.67C159.69,-280.69 127.93,-265.03 103.43,-252.96"/>
<polygon fill="black" stroke="black" points="104.94,-249.8 94.43,-248.52 101.85,-256.08 104.94,-249.8"/>
</g>
<!-- ast.Subscript object at 0x7efe769e8eb0&#45;&gt;ast.Load object at 0x7efea98f1f90 -->
<g id="edge57" class="edge">
<title>ast.Subscript object at 0x7efe769e8eb0&#45;&gt;ast.Load object at 0x7efea98f1f90</title>
<path fill="none" stroke="black" d="M553.09,-143.66C546.52,-123.56 532.96,-90.79 510,-72 470.46,-39.64 411.4,-27.01 373.29,-22.1"/>
<polygon fill="black" stroke="black" points="373.47,-18.6 363.13,-20.91 372.65,-25.55 373.47,-18.6"/>
</g>
<!-- ast.Name object at 0x7efe769e8580 -->
<g id="node43" class="node">
<title>ast.Name object at 0x7efe769e8580</title>
<path fill="#66cdaa" stroke="black" d="M600,-108C600,-108 570,-108 570,-108 564,-108 558,-102 558,-96 558,-96 558,-84 558,-84 558,-78 564,-72 570,-72 570,-72 600,-72 600,-72 606,-72 612,-78 612,-84 612,-84 612,-96 612,-96 612,-102 606,-108 600,-108"/>
<text text-anchor="middle" x="585" y="-86.3" font-family="Times,serif" font-size="14.00">Name</text>
</g>
<!-- ast.Subscript object at 0x7efe769e8eb0&#45;&gt;ast.Name object at 0x7efe769e8580 -->
<g id="edge53" class="edge">
<title>ast.Subscript object at 0x7efe769e8eb0&#45;&gt;ast.Name object at 0x7efe769e8580</title>
<path fill="none" stroke="black" d="M564.67,-143.7C567.71,-135.81 571.38,-126.3 574.76,-117.55"/>
<polygon fill="black" stroke="black" points="578.07,-118.69 578.4,-108.1 571.54,-116.17 578.07,-118.69"/>
</g>
<!-- ast.Name object at 0x7efe769ea740 -->
<g id="node44" class="node">
<title>ast.Name object at 0x7efe769ea740</title>
<path fill="#66cdaa" stroke="black" d="M672,-108C672,-108 642,-108 642,-108 636,-108 630,-102 630,-96 630,-96 630,-84 630,-84 630,-78 636,-72 642,-72 642,-72 672,-72 672,-72 678,-72 684,-78 684,-84 684,-84 684,-96 684,-96 684,-102 678,-108 672,-108"/>
<text text-anchor="middle" x="657" y="-86.3" font-family="Times,serif" font-size="14.00">Name</text>
</g>
<!-- ast.Subscript object at 0x7efe769e8eb0&#45;&gt;ast.Name object at 0x7efe769ea740 -->
<g id="edge55" class="edge">
<title>ast.Subscript object at 0x7efe769e8eb0&#45;&gt;ast.Name object at 0x7efe769ea740</title>
<path fill="none" stroke="black" d="M582.22,-143.88C594.92,-134.89 610.66,-123.76 624.42,-114.03"/>
<polygon fill="black" stroke="black" points="626.54,-116.82 632.69,-108.19 622.5,-111.11 626.54,-116.82"/>
</g>
<!-- ast.Name object at 0x7efe769e8580&#45;&gt;ast.Load object at 0x7efea98f1f90 -->
<g id="edge54" class="edge">
<title>ast.Name object at 0x7efe769e8580&#45;&gt;ast.Load object at 0x7efea98f1f90</title>
<path fill="none" stroke="black" d="M557.86,-77.11C553.28,-75.28 548.53,-73.51 544,-72 485.2,-52.43 415.03,-35.92 373.07,-26.76"/>
<polygon fill="black" stroke="black" points="373.8,-23.33 363.28,-24.64 372.32,-30.17 373.8,-23.33"/>
</g>
<!-- ast.Name object at 0x7efe769ea740&#45;&gt;ast.Load object at 0x7efea98f1f90 -->
<g id="edge56" class="edge">
<title>ast.Name object at 0x7efe769ea740&#45;&gt;ast.Load object at 0x7efea98f1f90</title>
<path fill="none" stroke="black" d="M629.78,-75.26C626.86,-74.05 623.89,-72.94 621,-72 534.62,-44.09 428.48,-29.2 373.3,-22.84"/>
<polygon fill="black" stroke="black" points="373.62,-19.35 363.29,-21.71 372.84,-26.31 373.62,-19.35"/>
</g>
<!-- ast.Name object at 0x7efe769e8460 -->
<g id="node46" class="node">
<title>ast.Name object at 0x7efe769e8460</title>
<path fill="#66cdaa" stroke="black" d="M710,-468C710,-468 680,-468 680,-468 674,-468 668,-462 668,-456 668,-456 668,-444 668,-444 668,-438 674,-432 680,-432 680,-432 710,-432 710,-432 716,-432 722,-438 722,-444 722,-444 722,-456 722,-456 722,-462 716,-468 710,-468"/>
<text text-anchor="middle" x="695" y="-446.3" font-family="Times,serif" font-size="14.00">Name</text>
</g>
<!-- ast.Return object at 0x7efe769ea530&#45;&gt;ast.Name object at 0x7efe769e8460 -->
<g id="edge59" class="edge">
<title>ast.Return object at 0x7efe769ea530&#45;&gt;ast.Name object at 0x7efe769e8460</title>
<path fill="none" stroke="black" d="M505.04,-512.28C543.73,-499.8 614.96,-476.82 658.35,-462.82"/>
<polygon fill="black" stroke="black" points="659.51,-466.12 667.96,-459.72 657.36,-459.46 659.51,-466.12"/>
</g>
<!-- ast.Name object at 0x7efe769e8460&#45;&gt;ast.Load object at 0x7efea98f1f90 -->
<g id="edge60" class="edge">
<title>ast.Name object at 0x7efe769e8460&#45;&gt;ast.Load object at 0x7efea98f1f90</title>
<path fill="none" stroke="black" d="M706.4,-431.9C722.51,-406.02 750,-354.85 750,-307 750,-307 750,-307 750,-161 750,-118.81 749.88,-98.43 717,-72 664.53,-29.83 458.44,-21.21 373.2,-19.45"/>
<polygon fill="black" stroke="black" points="373.25,-15.95 363.19,-19.26 373.12,-22.95 373.25,-15.95"/>
</g>
</g>
</svg>
