<?xml version="1.0" encoding="UTF-8" standalone="no"?>
<!DOCTYPE svg PUBLIC "-//W3C//DTD SVG 1.1//EN"
 "http://www.w3.org/Graphics/SVG/1.1/DTD/svg11.dtd">
<!-- Generated by graphviz version 2.43.0 (0)
 -->
<!-- Title: %3 Pages: 1 -->
<svg width="901pt" height="620pt"
 viewBox="0.00 0.00 900.50 620.00" xmlns="http://www.w3.org/2000/svg" xmlns:xlink="http://www.w3.org/1999/xlink">
<g id="graph0" class="graph" transform="scale(1 1) rotate(0) translate(4 616)">
<title>%3</title>
<polygon fill="white" stroke="transparent" points="-4,4 -4,-616 896.5,-616 896.5,4 -4,4"/>
<!-- ast.Module object at 0x7f765cd95840 -->
<g id="node1" class="node">
<title>ast.Module object at 0x7f765cd95840</title>
<path fill="#66cdaa" stroke="black" d="M248.5,-612C248.5,-612 213.5,-612 213.5,-612 207.5,-612 201.5,-606 201.5,-600 201.5,-600 201.5,-588 201.5,-588 201.5,-582 207.5,-576 213.5,-576 213.5,-576 248.5,-576 248.5,-576 254.5,-576 260.5,-582 260.5,-588 260.5,-588 260.5,-600 260.5,-600 260.5,-606 254.5,-612 248.5,-612"/>
<text text-anchor="middle" x="231" y="-590.3" font-family="Times,serif" font-size="14.00">Module</text>
</g>
<!-- ast.FunctionDef object at 0x7f765cd956c0 -->
<g id="node2" class="node">
<title>ast.FunctionDef object at 0x7f765cd956c0</title>
<path fill="#66cdaa" stroke="black" d="M261.5,-540C261.5,-540 200.5,-540 200.5,-540 194.5,-540 188.5,-534 188.5,-528 188.5,-528 188.5,-516 188.5,-516 188.5,-510 194.5,-504 200.5,-504 200.5,-504 261.5,-504 261.5,-504 267.5,-504 273.5,-510 273.5,-516 273.5,-516 273.5,-528 273.5,-528 273.5,-534 267.5,-540 261.5,-540"/>
<text text-anchor="middle" x="231" y="-518.3" font-family="Times,serif" font-size="14.00">FunctionDef</text>
</g>
<!-- ast.Module object at 0x7f765cd95840&#45;&gt;ast.FunctionDef object at 0x7f765cd956c0 -->
<g id="edge1" class="edge">
<title>ast.Module object at 0x7f765cd95840&#45;&gt;ast.FunctionDef object at 0x7f765cd956c0</title>
<path fill="none" stroke="black" d="M231,-575.7C231,-567.98 231,-558.71 231,-550.11"/>
<polygon fill="black" stroke="black" points="234.5,-550.1 231,-540.1 227.5,-550.1 234.5,-550.1"/>
</g>
<!-- ast.arguments object at 0x7f765cd958d0 -->
<g id="node3" class="node">
<title>ast.arguments object at 0x7f765cd958d0</title>
<path fill="#66cdaa" stroke="black" d="M123,-468C123,-468 73,-468 73,-468 67,-468 61,-462 61,-456 61,-456 61,-444 61,-444 61,-438 67,-432 73,-432 73,-432 123,-432 123,-432 129,-432 135,-438 135,-444 135,-444 135,-456 135,-456 135,-462 129,-468 123,-468"/>
<text text-anchor="middle" x="98" y="-446.3" font-family="Times,serif" font-size="14.00">arguments</text>
</g>
<!-- ast.FunctionDef object at 0x7f765cd956c0&#45;&gt;ast.arguments object at 0x7f765cd958d0 -->
<g id="edge2" class="edge">
<title>ast.FunctionDef object at 0x7f765cd956c0&#45;&gt;ast.arguments object at 0x7f765cd958d0</title>
<path fill="none" stroke="black" d="M198.46,-503.88C180.75,-494.55 158.65,-482.92 139.68,-472.94"/>
<polygon fill="black" stroke="black" points="141.14,-469.75 130.66,-468.19 137.88,-475.94 141.14,-469.75"/>
</g>
<!-- ast.FunctionDef object at 0x7f765cd955a0 -->
<g id="node5" class="node">
<title>ast.FunctionDef object at 0x7f765cd955a0</title>
<path fill="#66cdaa" stroke="black" d="M261.5,-468C261.5,-468 200.5,-468 200.5,-468 194.5,-468 188.5,-462 188.5,-456 188.5,-456 188.5,-444 188.5,-444 188.5,-438 194.5,-432 200.5,-432 200.5,-432 261.5,-432 261.5,-432 267.5,-432 273.5,-438 273.5,-444 273.5,-444 273.5,-456 273.5,-456 273.5,-462 267.5,-468 261.5,-468"/>
<text text-anchor="middle" x="231" y="-446.3" font-family="Times,serif" font-size="14.00">FunctionDef</text>
</g>
<!-- ast.FunctionDef object at 0x7f765cd956c0&#45;&gt;ast.FunctionDef object at 0x7f765cd955a0 -->
<g id="edge4" class="edge">
<title>ast.FunctionDef object at 0x7f765cd956c0&#45;&gt;ast.FunctionDef object at 0x7f765cd955a0</title>
<path fill="none" stroke="black" d="M231,-503.7C231,-495.98 231,-486.71 231,-478.11"/>
<polygon fill="black" stroke="black" points="234.5,-478.1 231,-468.1 227.5,-478.1 234.5,-478.1"/>
</g>
<!-- ast.Return object at 0x7f765cd03a90 -->
<g id="node25" class="node">
<title>ast.Return object at 0x7f765cd03a90</title>
<path fill="#66cdaa" stroke="black" d="M401,-468C401,-468 371,-468 371,-468 365,-468 359,-462 359,-456 359,-456 359,-444 359,-444 359,-438 365,-432 371,-432 371,-432 401,-432 401,-432 407,-432 413,-438 413,-444 413,-444 413,-456 413,-456 413,-462 407,-468 401,-468"/>
<text text-anchor="middle" x="386" y="-446.3" font-family="Times,serif" font-size="14.00">Return</text>
</g>
<!-- ast.FunctionDef object at 0x7f765cd956c0&#45;&gt;ast.Return object at 0x7f765cd03a90 -->
<g id="edge29" class="edge">
<title>ast.FunctionDef object at 0x7f765cd956c0&#45;&gt;ast.Return object at 0x7f765cd03a90</title>
<path fill="none" stroke="black" d="M268.92,-503.88C293.44,-492.8 325.2,-478.46 349.45,-467.5"/>
<polygon fill="black" stroke="black" points="351.01,-470.64 358.68,-463.34 348.13,-464.26 351.01,-470.64"/>
</g>
<!-- ast.arg object at 0x7f765cd94be0 -->
<g id="node4" class="node">
<title>ast.arg object at 0x7f765cd94be0</title>
<path fill="#66cdaa" stroke="black" d="M42,-396C42,-396 12,-396 12,-396 6,-396 0,-390 0,-384 0,-384 0,-372 0,-372 0,-366 6,-360 12,-360 12,-360 42,-360 42,-360 48,-360 54,-366 54,-372 54,-372 54,-384 54,-384 54,-390 48,-396 42,-396"/>
<text text-anchor="middle" x="27" y="-374.3" font-family="Times,serif" font-size="14.00">arg</text>
</g>
<!-- ast.arguments object at 0x7f765cd958d0&#45;&gt;ast.arg object at 0x7f765cd94be0 -->
<g id="edge3" class="edge">
<title>ast.arguments object at 0x7f765cd958d0&#45;&gt;ast.arg object at 0x7f765cd94be0</title>
<path fill="none" stroke="black" d="M80.45,-431.7C71.77,-423.14 61.14,-412.66 51.65,-403.3"/>
<polygon fill="black" stroke="black" points="53.93,-400.63 44.35,-396.1 49.01,-405.62 53.93,-400.63"/>
</g>
<!-- ast.arguments object at 0x7f765cd951b0 -->
<g id="node6" class="node">
<title>ast.arguments object at 0x7f765cd951b0</title>
<path fill="#66cdaa" stroke="black" d="M134,-396C134,-396 84,-396 84,-396 78,-396 72,-390 72,-384 72,-384 72,-372 72,-372 72,-366 78,-360 84,-360 84,-360 134,-360 134,-360 140,-360 146,-366 146,-372 146,-372 146,-384 146,-384 146,-390 140,-396 134,-396"/>
<text text-anchor="middle" x="109" y="-374.3" font-family="Times,serif" font-size="14.00">arguments</text>
</g>
<!-- ast.FunctionDef object at 0x7f765cd955a0&#45;&gt;ast.arguments object at 0x7f765cd951b0 -->
<g id="edge5" class="edge">
<title>ast.FunctionDef object at 0x7f765cd955a0&#45;&gt;ast.arguments object at 0x7f765cd951b0</title>
<path fill="none" stroke="black" d="M201.16,-431.88C185.06,-422.64 165,-411.13 147.71,-401.21"/>
<polygon fill="black" stroke="black" points="149.37,-398.13 138.96,-396.19 145.89,-404.2 149.37,-398.13"/>
</g>
<!-- ast.If object at 0x7f765cd95240 -->
<g id="node9" class="node">
<title>ast.If object at 0x7f765cd95240</title>
<path fill="#66cdaa" stroke="black" d="M255,-396C255,-396 225,-396 225,-396 219,-396 213,-390 213,-384 213,-384 213,-372 213,-372 213,-366 219,-360 225,-360 225,-360 255,-360 255,-360 261,-360 267,-366 267,-372 267,-372 267,-384 267,-384 267,-390 261,-396 255,-396"/>
<text text-anchor="middle" x="240" y="-374.3" font-family="Times,serif" font-size="14.00">If</text>
</g>
<!-- ast.FunctionDef object at 0x7f765cd955a0&#45;&gt;ast.If object at 0x7f765cd95240 -->
<g id="edge8" class="edge">
<title>ast.FunctionDef object at 0x7f765cd955a0&#45;&gt;ast.If object at 0x7f765cd95240</title>
<path fill="none" stroke="black" d="M233.22,-431.7C234.22,-423.98 235.41,-414.71 236.51,-406.11"/>
<polygon fill="black" stroke="black" points="240,-406.47 237.8,-396.1 233.05,-405.58 240,-406.47"/>
</g>
<!-- ast.arg object at 0x7f765cd94040 -->
<g id="node7" class="node">
<title>ast.arg object at 0x7f765cd94040</title>
<path fill="#66cdaa" stroke="black" d="M43,-324C43,-324 13,-324 13,-324 7,-324 1,-318 1,-312 1,-312 1,-300 1,-300 1,-294 7,-288 13,-288 13,-288 43,-288 43,-288 49,-288 55,-294 55,-300 55,-300 55,-312 55,-312 55,-318 49,-324 43,-324"/>
<text text-anchor="middle" x="28" y="-302.3" font-family="Times,serif" font-size="14.00">arg</text>
</g>
<!-- ast.arguments object at 0x7f765cd951b0&#45;&gt;ast.arg object at 0x7f765cd94040 -->
<g id="edge6" class="edge">
<title>ast.arguments object at 0x7f765cd951b0&#45;&gt;ast.arg object at 0x7f765cd94040</title>
<path fill="none" stroke="black" d="M88.98,-359.7C78.87,-350.97 66.46,-340.24 55.48,-330.75"/>
<polygon fill="black" stroke="black" points="57.65,-327.99 47.79,-324.1 53.07,-333.29 57.65,-327.99"/>
</g>
<!-- ast.arg object at 0x7f765cd955d0 -->
<g id="node8" class="node">
<title>ast.arg object at 0x7f765cd955d0</title>
<path fill="#66cdaa" stroke="black" d="M115,-324C115,-324 85,-324 85,-324 79,-324 73,-318 73,-312 73,-312 73,-300 73,-300 73,-294 79,-288 85,-288 85,-288 115,-288 115,-288 121,-288 127,-294 127,-300 127,-300 127,-312 127,-312 127,-318 121,-324 115,-324"/>
<text text-anchor="middle" x="100" y="-302.3" font-family="Times,serif" font-size="14.00">arg</text>
</g>
<!-- ast.arguments object at 0x7f765cd951b0&#45;&gt;ast.arg object at 0x7f765cd955d0 -->
<g id="edge7" class="edge">
<title>ast.arguments object at 0x7f765cd951b0&#45;&gt;ast.arg object at 0x7f765cd955d0</title>
<path fill="none" stroke="black" d="M106.78,-359.7C105.78,-351.98 104.59,-342.71 103.49,-334.11"/>
<polygon fill="black" stroke="black" points="106.95,-333.58 102.2,-324.1 100,-334.47 106.95,-333.58"/>
</g>
<!-- ast.Compare object at 0x7f765cd94e50 -->
<g id="node10" class="node">
<title>ast.Compare object at 0x7f765cd94e50</title>
<path fill="#66cdaa" stroke="black" d="M200.5,-324C200.5,-324 157.5,-324 157.5,-324 151.5,-324 145.5,-318 145.5,-312 145.5,-312 145.5,-300 145.5,-300 145.5,-294 151.5,-288 157.5,-288 157.5,-288 200.5,-288 200.5,-288 206.5,-288 212.5,-294 212.5,-300 212.5,-300 212.5,-312 212.5,-312 212.5,-318 206.5,-324 200.5,-324"/>
<text text-anchor="middle" x="179" y="-302.3" font-family="Times,serif" font-size="14.00">Compare</text>
</g>
<!-- ast.If object at 0x7f765cd95240&#45;&gt;ast.Compare object at 0x7f765cd94e50 -->
<g id="edge9" class="edge">
<title>ast.If object at 0x7f765cd95240&#45;&gt;ast.Compare object at 0x7f765cd94e50</title>
<path fill="none" stroke="black" d="M224.92,-359.7C217.61,-351.3 208.69,-341.07 200.66,-331.86"/>
<polygon fill="black" stroke="black" points="203.11,-329.34 193.91,-324.1 197.84,-333.94 203.11,-329.34"/>
</g>
<!-- ast.Return object at 0x7f765cd95960 -->
<g id="node15" class="node">
<title>ast.Return object at 0x7f765cd95960</title>
<path fill="#66cdaa" stroke="black" d="M273,-324C273,-324 243,-324 243,-324 237,-324 231,-318 231,-312 231,-312 231,-300 231,-300 231,-294 237,-288 243,-288 243,-288 273,-288 273,-288 279,-288 285,-294 285,-300 285,-300 285,-312 285,-312 285,-318 279,-324 273,-324"/>
<text text-anchor="middle" x="258" y="-302.3" font-family="Times,serif" font-size="14.00">Return</text>
</g>
<!-- ast.If object at 0x7f765cd95240&#45;&gt;ast.Return object at 0x7f765cd95960 -->
<g id="edge14" class="edge">
<title>ast.If object at 0x7f765cd95240&#45;&gt;ast.Return object at 0x7f765cd95960</title>
<path fill="none" stroke="black" d="M244.45,-359.7C246.45,-351.9 248.87,-342.51 251.1,-333.83"/>
<polygon fill="black" stroke="black" points="254.5,-334.66 253.6,-324.1 247.72,-332.92 254.5,-334.66"/>
</g>
<!-- ast.Return object at 0x7f765cd959c0 -->
<g id="node17" class="node">
<title>ast.Return object at 0x7f765cd959c0</title>
<path fill="#66cdaa" stroke="black" d="M345,-324C345,-324 315,-324 315,-324 309,-324 303,-318 303,-312 303,-312 303,-300 303,-300 303,-294 309,-288 315,-288 315,-288 345,-288 345,-288 351,-288 357,-294 357,-300 357,-300 357,-312 357,-312 357,-318 351,-324 345,-324"/>
<text text-anchor="middle" x="330" y="-302.3" font-family="Times,serif" font-size="14.00">Return</text>
</g>
<!-- ast.If object at 0x7f765cd95240&#45;&gt;ast.Return object at 0x7f765cd959c0 -->
<g id="edge17" class="edge">
<title>ast.If object at 0x7f765cd95240&#45;&gt;ast.Return object at 0x7f765cd959c0</title>
<path fill="none" stroke="black" d="M262.25,-359.7C273.58,-350.88 287.53,-340.03 299.82,-330.47"/>
<polygon fill="black" stroke="black" points="302.26,-333.01 308.01,-324.1 297.97,-327.48 302.26,-333.01"/>
</g>
<!-- ast.Name object at 0x7f765cd95a50 -->
<g id="node11" class="node">
<title>ast.Name object at 0x7f765cd95a50</title>
<path fill="#66cdaa" stroke="black" d="M45,-252C45,-252 15,-252 15,-252 9,-252 3,-246 3,-240 3,-240 3,-228 3,-228 3,-222 9,-216 15,-216 15,-216 45,-216 45,-216 51,-216 57,-222 57,-228 57,-228 57,-240 57,-240 57,-246 51,-252 45,-252"/>
<text text-anchor="middle" x="30" y="-230.3" font-family="Times,serif" font-size="14.00">Name</text>
</g>
<!-- ast.Compare object at 0x7f765cd94e50&#45;&gt;ast.Name object at 0x7f765cd95a50 -->
<g id="edge10" class="edge">
<title>ast.Compare object at 0x7f765cd94e50&#45;&gt;ast.Name object at 0x7f765cd95a50</title>
<path fill="none" stroke="black" d="M145.37,-289.25C124.91,-279.67 98.03,-267.07 66.57,-252.26"/>
<polygon fill="black" stroke="black" points="67.66,-248.91 57.12,-247.82 64.68,-255.24 67.66,-248.91"/>
</g>
<!-- ast.Eq object at 0x7f76a4cf2920 -->
<g id="node13" class="node">
<title>ast.Eq object at 0x7f76a4cf2920</title>
<path fill="#66cdaa" stroke="black" d="M117,-252C117,-252 87,-252 87,-252 81,-252 75,-246 75,-240 75,-240 75,-228 75,-228 75,-222 81,-216 87,-216 87,-216 117,-216 117,-216 123,-216 129,-222 129,-228 129,-228 129,-240 129,-240 129,-246 123,-252 117,-252"/>
<text text-anchor="middle" x="102" y="-230.3" font-family="Times,serif" font-size="14.00">Eq</text>
</g>
<!-- ast.Compare object at 0x7f765cd94e50&#45;&gt;ast.Eq object at 0x7f76a4cf2920 -->
<g id="edge12" class="edge">
<title>ast.Compare object at 0x7f765cd94e50&#45;&gt;ast.Eq object at 0x7f76a4cf2920</title>
<path fill="none" stroke="black" d="M159.97,-287.7C150.46,-279.05 138.79,-268.45 128.43,-259.03"/>
<polygon fill="black" stroke="black" points="130.57,-256.24 120.81,-252.1 125.86,-261.42 130.57,-256.24"/>
</g>
<!-- ast.Constant object at 0x7f765cd94520 -->
<g id="node14" class="node">
<title>ast.Constant object at 0x7f765cd94520</title>
<path fill="#66cdaa" stroke="black" d="M200.5,-252C200.5,-252 159.5,-252 159.5,-252 153.5,-252 147.5,-246 147.5,-240 147.5,-240 147.5,-228 147.5,-228 147.5,-222 153.5,-216 159.5,-216 159.5,-216 200.5,-216 200.5,-216 206.5,-216 212.5,-222 212.5,-228 212.5,-228 212.5,-240 212.5,-240 212.5,-246 206.5,-252 200.5,-252"/>
<text text-anchor="middle" x="180" y="-230.3" font-family="Times,serif" font-size="14.00">Constant</text>
</g>
<!-- ast.Compare object at 0x7f765cd94e50&#45;&gt;ast.Constant object at 0x7f765cd94520 -->
<g id="edge13" class="edge">
<title>ast.Compare object at 0x7f765cd94e50&#45;&gt;ast.Constant object at 0x7f765cd94520</title>
<path fill="none" stroke="black" d="M179.25,-287.7C179.36,-279.98 179.49,-270.71 179.61,-262.11"/>
<polygon fill="black" stroke="black" points="183.11,-262.15 179.76,-252.1 176.11,-262.05 183.11,-262.15"/>
</g>
<!-- ast.Load object at 0x7f76a4cf1ff0 -->
<g id="node12" class="node">
<title>ast.Load object at 0x7f76a4cf1ff0</title>
<path fill="#66cdaa" stroke="black" d="M455,-36C455,-36 425,-36 425,-36 419,-36 413,-30 413,-24 413,-24 413,-12 413,-12 413,-6 419,0 425,0 425,0 455,0 455,0 461,0 467,-6 467,-12 467,-12 467,-24 467,-24 467,-30 461,-36 455,-36"/>
<text text-anchor="middle" x="440" y="-14.3" font-family="Times,serif" font-size="14.00">Load</text>
</g>
<!-- ast.Name object at 0x7f765cd95a50&#45;&gt;ast.Load object at 0x7f76a4cf1ff0 -->
<g id="edge11" class="edge">
<title>ast.Name object at 0x7f765cd95a50&#45;&gt;ast.Load object at 0x7f76a4cf1ff0</title>
<path fill="none" stroke="black" d="M41.2,-215.91C64.09,-182.48 119.69,-108.52 186,-72 255.95,-33.47 350.83,-22.89 402.57,-20.02"/>
<polygon fill="black" stroke="black" points="402.8,-23.52 412.62,-19.53 402.46,-16.52 402.8,-23.52"/>
</g>
<!-- ast.Name object at 0x7f765cd95a20 -->
<g id="node16" class="node">
<title>ast.Name object at 0x7f765cd95a20</title>
<path fill="#66cdaa" stroke="black" d="M273,-252C273,-252 243,-252 243,-252 237,-252 231,-246 231,-240 231,-240 231,-228 231,-228 231,-222 237,-216 243,-216 243,-216 273,-216 273,-216 279,-216 285,-222 285,-228 285,-228 285,-240 285,-240 285,-246 279,-252 273,-252"/>
<text text-anchor="middle" x="258" y="-230.3" font-family="Times,serif" font-size="14.00">Name</text>
</g>
<!-- ast.Return object at 0x7f765cd95960&#45;&gt;ast.Name object at 0x7f765cd95a20 -->
<g id="edge15" class="edge">
<title>ast.Return object at 0x7f765cd95960&#45;&gt;ast.Name object at 0x7f765cd95a20</title>
<path fill="none" stroke="black" d="M258,-287.7C258,-279.98 258,-270.71 258,-262.11"/>
<polygon fill="black" stroke="black" points="261.5,-262.1 258,-252.1 254.5,-262.1 261.5,-262.1"/>
</g>
<!-- ast.Name object at 0x7f765cd95a20&#45;&gt;ast.Load object at 0x7f76a4cf1ff0 -->
<g id="edge16" class="edge">
<title>ast.Name object at 0x7f765cd95a20&#45;&gt;ast.Load object at 0x7f76a4cf1ff0</title>
<path fill="none" stroke="black" d="M230.93,-221.3C214.38,-212.55 194.6,-198.84 185,-180 161.68,-134.26 185.06,-102.99 226,-72 278.38,-32.35 356.71,-22.04 402.66,-19.56"/>
<polygon fill="black" stroke="black" points="402.94,-23.05 412.78,-19.11 402.63,-16.05 402.94,-23.05"/>
</g>
<!-- ast.Call object at 0x7f765cd94d00 -->
<g id="node18" class="node">
<title>ast.Call object at 0x7f765cd94d00</title>
<path fill="#66cdaa" stroke="black" d="M345,-252C345,-252 315,-252 315,-252 309,-252 303,-246 303,-240 303,-240 303,-228 303,-228 303,-222 309,-216 315,-216 315,-216 345,-216 345,-216 351,-216 357,-222 357,-228 357,-228 357,-240 357,-240 357,-246 351,-252 345,-252"/>
<text text-anchor="middle" x="330" y="-230.3" font-family="Times,serif" font-size="14.00">Call</text>
</g>
<!-- ast.Return object at 0x7f765cd959c0&#45;&gt;ast.Call object at 0x7f765cd94d00 -->
<g id="edge18" class="edge">
<title>ast.Return object at 0x7f765cd959c0&#45;&gt;ast.Call object at 0x7f765cd94d00</title>
<path fill="none" stroke="black" d="M330,-287.7C330,-279.98 330,-270.71 330,-262.11"/>
<polygon fill="black" stroke="black" points="333.5,-262.1 330,-252.1 326.5,-262.1 333.5,-262.1"/>
</g>
<!-- ast.Name object at 0x7f765cd94bb0 -->
<g id="node19" class="node">
<title>ast.Name object at 0x7f765cd94bb0</title>
<path fill="#66cdaa" stroke="black" d="M236,-180C236,-180 206,-180 206,-180 200,-180 194,-174 194,-168 194,-168 194,-156 194,-156 194,-150 200,-144 206,-144 206,-144 236,-144 236,-144 242,-144 248,-150 248,-156 248,-156 248,-168 248,-168 248,-174 242,-180 236,-180"/>
<text text-anchor="middle" x="221" y="-158.3" font-family="Times,serif" font-size="14.00">Name</text>
</g>
<!-- ast.Call object at 0x7f765cd94d00&#45;&gt;ast.Name object at 0x7f765cd94bb0 -->
<g id="edge19" class="edge">
<title>ast.Call object at 0x7f765cd94d00&#45;&gt;ast.Name object at 0x7f765cd94bb0</title>
<path fill="none" stroke="black" d="M303.34,-215.88C289.22,-206.81 271.69,-195.55 256.44,-185.76"/>
<polygon fill="black" stroke="black" points="258.07,-182.65 247.77,-180.19 254.29,-188.54 258.07,-182.65"/>
</g>
<!-- ast.Name object at 0x7f765cd94e20 -->
<g id="node20" class="node">
<title>ast.Name object at 0x7f765cd94e20</title>
<path fill="#66cdaa" stroke="black" d="M309,-180C309,-180 279,-180 279,-180 273,-180 267,-174 267,-168 267,-168 267,-156 267,-156 267,-150 273,-144 279,-144 279,-144 309,-144 309,-144 315,-144 321,-150 321,-156 321,-156 321,-168 321,-168 321,-174 315,-180 309,-180"/>
<text text-anchor="middle" x="294" y="-158.3" font-family="Times,serif" font-size="14.00">Name</text>
</g>
<!-- ast.Call object at 0x7f765cd94d00&#45;&gt;ast.Name object at 0x7f765cd94e20 -->
<g id="edge21" class="edge">
<title>ast.Call object at 0x7f765cd94d00&#45;&gt;ast.Name object at 0x7f765cd94e20</title>
<path fill="none" stroke="black" d="M321.1,-215.7C317,-207.73 312.05,-198.1 307.51,-189.26"/>
<polygon fill="black" stroke="black" points="310.48,-187.4 302.8,-180.1 304.26,-190.6 310.48,-187.4"/>
</g>
<!-- ast.BinOp object at 0x7f765cd95030 -->
<g id="node21" class="node">
<title>ast.BinOp object at 0x7f765cd95030</title>
<path fill="#66cdaa" stroke="black" d="M381,-180C381,-180 351,-180 351,-180 345,-180 339,-174 339,-168 339,-168 339,-156 339,-156 339,-150 345,-144 351,-144 351,-144 381,-144 381,-144 387,-144 393,-150 393,-156 393,-156 393,-168 393,-168 393,-174 387,-180 381,-180"/>
<text text-anchor="middle" x="366" y="-158.3" font-family="Times,serif" font-size="14.00">BinOp</text>
</g>
<!-- ast.Call object at 0x7f765cd94d00&#45;&gt;ast.BinOp object at 0x7f765cd95030 -->
<g id="edge23" class="edge">
<title>ast.Call object at 0x7f765cd94d00&#45;&gt;ast.BinOp object at 0x7f765cd95030</title>
<path fill="none" stroke="black" d="M338.9,-215.7C343,-207.73 347.95,-198.1 352.49,-189.26"/>
<polygon fill="black" stroke="black" points="355.74,-190.6 357.2,-180.1 349.52,-187.4 355.74,-190.6"/>
</g>
<!-- ast.Name object at 0x7f765cd94bb0&#45;&gt;ast.Load object at 0x7f76a4cf1ff0 -->
<g id="edge20" class="edge">
<title>ast.Name object at 0x7f765cd94bb0&#45;&gt;ast.Load object at 0x7f76a4cf1ff0</title>
<path fill="none" stroke="black" d="M221.9,-143.73C223.88,-123.7 230.17,-91 250,-72 291.49,-32.25 360.21,-21.84 402.64,-19.38"/>
<polygon fill="black" stroke="black" points="403,-22.87 412.83,-18.92 402.68,-15.88 403,-22.87"/>
</g>
<!-- ast.Name object at 0x7f765cd94e20&#45;&gt;ast.Load object at 0x7f76a4cf1ff0 -->
<g id="edge22" class="edge">
<title>ast.Name object at 0x7f765cd94e20&#45;&gt;ast.Load object at 0x7f76a4cf1ff0</title>
<path fill="none" stroke="black" d="M278.25,-143.89C262.73,-124.88 243.55,-93.99 260,-72 277.13,-49.09 355.47,-32.67 402.97,-24.62"/>
<polygon fill="black" stroke="black" points="403.6,-28.06 412.89,-22.98 402.46,-21.16 403.6,-28.06"/>
</g>
<!-- ast.Name object at 0x7f769dd32500 -->
<g id="node22" class="node">
<title>ast.Name object at 0x7f769dd32500</title>
<path fill="#66cdaa" stroke="black" d="M311,-108C311,-108 281,-108 281,-108 275,-108 269,-102 269,-96 269,-96 269,-84 269,-84 269,-78 275,-72 281,-72 281,-72 311,-72 311,-72 317,-72 323,-78 323,-84 323,-84 323,-96 323,-96 323,-102 317,-108 311,-108"/>
<text text-anchor="middle" x="296" y="-86.3" font-family="Times,serif" font-size="14.00">Name</text>
</g>
<!-- ast.BinOp object at 0x7f765cd95030&#45;&gt;ast.Name object at 0x7f769dd32500 -->
<g id="edge24" class="edge">
<title>ast.BinOp object at 0x7f765cd95030&#45;&gt;ast.Name object at 0x7f769dd32500</title>
<path fill="none" stroke="black" d="M348.7,-143.7C340.14,-135.14 329.66,-124.66 320.3,-115.3"/>
<polygon fill="black" stroke="black" points="322.65,-112.7 313.1,-108.1 317.7,-117.65 322.65,-112.7"/>
</g>
<!-- ast.Mod object at 0x7f76a4cf2410 -->
<g id="node23" class="node">
<title>ast.Mod object at 0x7f76a4cf2410</title>
<path fill="#66cdaa" stroke="black" d="M383,-108C383,-108 353,-108 353,-108 347,-108 341,-102 341,-96 341,-96 341,-84 341,-84 341,-78 347,-72 353,-72 353,-72 383,-72 383,-72 389,-72 395,-78 395,-84 395,-84 395,-96 395,-96 395,-102 389,-108 383,-108"/>
<text text-anchor="middle" x="368" y="-86.3" font-family="Times,serif" font-size="14.00">Mod</text>
</g>
<!-- ast.BinOp object at 0x7f765cd95030&#45;&gt;ast.Mod object at 0x7f76a4cf2410 -->
<g id="edge26" class="edge">
<title>ast.BinOp object at 0x7f765cd95030&#45;&gt;ast.Mod object at 0x7f76a4cf2410</title>
<path fill="none" stroke="black" d="M366.49,-143.7C366.71,-135.98 366.98,-126.71 367.23,-118.11"/>
<polygon fill="black" stroke="black" points="370.72,-118.2 367.51,-108.1 363.73,-118 370.72,-118.2"/>
</g>
<!-- ast.Name object at 0x7f765cd01450 -->
<g id="node24" class="node">
<title>ast.Name object at 0x7f765cd01450</title>
<path fill="#66cdaa" stroke="black" d="M455,-108C455,-108 425,-108 425,-108 419,-108 413,-102 413,-96 413,-96 413,-84 413,-84 413,-78 419,-72 425,-72 425,-72 455,-72 455,-72 461,-72 467,-78 467,-84 467,-84 467,-96 467,-96 467,-102 461,-108 455,-108"/>
<text text-anchor="middle" x="440" y="-86.3" font-family="Times,serif" font-size="14.00">Name</text>
</g>
<!-- ast.BinOp object at 0x7f765cd95030&#45;&gt;ast.Name object at 0x7f765cd01450 -->
<g id="edge27" class="edge">
<title>ast.BinOp object at 0x7f765cd95030&#45;&gt;ast.Name object at 0x7f765cd01450</title>
<path fill="none" stroke="black" d="M384.29,-143.7C393.43,-135.05 404.64,-124.45 414.6,-115.03"/>
<polygon fill="black" stroke="black" points="417.06,-117.52 421.92,-108.1 412.25,-112.43 417.06,-117.52"/>
</g>
<!-- ast.Name object at 0x7f769dd32500&#45;&gt;ast.Load object at 0x7f76a4cf1ff0 -->
<g id="edge25" class="edge">
<title>ast.Name object at 0x7f769dd32500&#45;&gt;ast.Load object at 0x7f76a4cf1ff0</title>
<path fill="none" stroke="black" d="M323.09,-75.83C345.77,-64.81 378.36,-48.97 403.37,-36.81"/>
<polygon fill="black" stroke="black" points="405.08,-39.87 412.55,-32.35 402.02,-33.57 405.08,-39.87"/>
</g>
<!-- ast.Name object at 0x7f765cd01450&#45;&gt;ast.Load object at 0x7f76a4cf1ff0 -->
<g id="edge28" class="edge">
<title>ast.Name object at 0x7f765cd01450&#45;&gt;ast.Load object at 0x7f76a4cf1ff0</title>
<path fill="none" stroke="black" d="M440,-71.7C440,-63.98 440,-54.71 440,-46.11"/>
<polygon fill="black" stroke="black" points="443.5,-46.1 440,-36.1 436.5,-46.1 443.5,-46.1"/>
</g>
<!-- ast.Call object at 0x7f765cdc5240 -->
<g id="node26" class="node">
<title>ast.Call object at 0x7f765cdc5240</title>
<path fill="#66cdaa" stroke="black" d="M559,-252C559,-252 529,-252 529,-252 523,-252 517,-246 517,-240 517,-240 517,-228 517,-228 517,-222 523,-216 529,-216 529,-216 559,-216 559,-216 565,-216 571,-222 571,-228 571,-228 571,-240 571,-240 571,-246 565,-252 559,-252"/>
<text text-anchor="middle" x="544" y="-230.3" font-family="Times,serif" font-size="14.00">Call</text>
</g>
<!-- ast.Return object at 0x7f765cd03a90&#45;&gt;ast.Call object at 0x7f765cdc5240 -->
<g id="edge30" class="edge">
<title>ast.Return object at 0x7f765cd03a90&#45;&gt;ast.Call object at 0x7f765cdc5240</title>
<path fill="none" stroke="black" d="M398.66,-431.85C426.4,-394.28 492.63,-304.58 525.23,-260.43"/>
<polygon fill="black" stroke="black" points="528.15,-262.36 531.28,-252.23 522.52,-258.2 528.15,-262.36"/>
</g>
<!-- ast.Name object at 0x7f765cdc5ff0 -->
<g id="node27" class="node">
<title>ast.Name object at 0x7f765cdc5ff0</title>
<path fill="#66cdaa" stroke="black" d="M513,-180C513,-180 483,-180 483,-180 477,-180 471,-174 471,-168 471,-168 471,-156 471,-156 471,-150 477,-144 483,-144 483,-144 513,-144 513,-144 519,-144 525,-150 525,-156 525,-156 525,-168 525,-168 525,-174 519,-180 513,-180"/>
<text text-anchor="middle" x="498" y="-158.3" font-family="Times,serif" font-size="14.00">Name</text>
</g>
<!-- ast.Call object at 0x7f765cdc5240&#45;&gt;ast.Name object at 0x7f765cdc5ff0 -->
<g id="edge31" class="edge">
<title>ast.Call object at 0x7f765cdc5240&#45;&gt;ast.Name object at 0x7f765cdc5ff0</title>
<path fill="none" stroke="black" d="M532.63,-215.7C527.28,-207.56 520.8,-197.69 514.89,-188.7"/>
<polygon fill="black" stroke="black" points="517.66,-186.54 509.24,-180.1 511.81,-190.38 517.66,-186.54"/>
</g>
<!-- ast.Subscript object at 0x7f765cdc7eb0 -->
<g id="node28" class="node">
<title>ast.Subscript object at 0x7f765cdc7eb0</title>
<path fill="#66cdaa" stroke="black" d="M603,-180C603,-180 559,-180 559,-180 553,-180 547,-174 547,-168 547,-168 547,-156 547,-156 547,-150 553,-144 559,-144 559,-144 603,-144 603,-144 609,-144 615,-150 615,-156 615,-156 615,-168 615,-168 615,-174 609,-180 603,-180"/>
<text text-anchor="middle" x="581" y="-158.3" font-family="Times,serif" font-size="14.00">Subscript</text>
</g>
<!-- ast.Call object at 0x7f765cdc5240&#45;&gt;ast.Subscript object at 0x7f765cdc7eb0 -->
<g id="edge33" class="edge">
<title>ast.Call object at 0x7f765cdc5240&#45;&gt;ast.Subscript object at 0x7f765cdc7eb0</title>
<path fill="none" stroke="black" d="M553.15,-215.7C557.4,-207.64 562.56,-197.89 567.27,-188.98"/>
<polygon fill="black" stroke="black" points="570.38,-190.58 571.96,-180.1 564.19,-187.31 570.38,-190.58"/>
</g>
<!-- ast.Subscript object at 0x7f765cdc6800 -->
<g id="node31" class="node">
<title>ast.Subscript object at 0x7f765cdc6800</title>
<path fill="#66cdaa" stroke="black" d="M776,-180C776,-180 732,-180 732,-180 726,-180 720,-174 720,-168 720,-168 720,-156 720,-156 720,-150 726,-144 732,-144 732,-144 776,-144 776,-144 782,-144 788,-150 788,-156 788,-156 788,-168 788,-168 788,-174 782,-180 776,-180"/>
<text text-anchor="middle" x="754" y="-158.3" font-family="Times,serif" font-size="14.00">Subscript</text>
</g>
<!-- ast.Call object at 0x7f765cdc5240&#45;&gt;ast.Subscript object at 0x7f765cdc6800 -->
<g id="edge38" class="edge">
<title>ast.Call object at 0x7f765cdc5240&#45;&gt;ast.Subscript object at 0x7f765cdc6800</title>
<path fill="none" stroke="black" d="M571.02,-223.99C606.2,-212.27 668.13,-191.62 710.09,-177.64"/>
<polygon fill="black" stroke="black" points="711.39,-180.89 719.77,-174.41 709.18,-174.25 711.39,-180.89"/>
</g>
<!-- ast.Name object at 0x7f765cdc5ff0&#45;&gt;ast.Load object at 0x7f76a4cf1ff0 -->
<g id="edge32" class="edge">
<title>ast.Name object at 0x7f765cdc5ff0&#45;&gt;ast.Load object at 0x7f76a4cf1ff0</title>
<path fill="none" stroke="black" d="M495.58,-143.68C492.6,-125.3 486.57,-95.69 476,-72 471.76,-62.5 465.82,-52.87 459.98,-44.47"/>
<polygon fill="black" stroke="black" points="462.7,-42.27 454.01,-36.22 457.03,-46.37 462.7,-42.27"/>
</g>
<!-- ast.Subscript object at 0x7f765cdc7eb0&#45;&gt;ast.Load object at 0x7f76a4cf1ff0 -->
<g id="edge37" class="edge">
<title>ast.Subscript object at 0x7f765cdc7eb0&#45;&gt;ast.Load object at 0x7f76a4cf1ff0</title>
<path fill="none" stroke="black" d="M565.53,-143.96C548.91,-125.81 521.58,-96.4 497,-72 487.24,-62.31 476.23,-51.95 466.5,-42.98"/>
<polygon fill="black" stroke="black" points="468.77,-40.3 459.03,-36.12 464.04,-45.46 468.77,-40.3"/>
</g>
<!-- ast.Name object at 0x7f765cdc7c70 -->
<g id="node29" class="node">
<title>ast.Name object at 0x7f765cdc7c70</title>
<path fill="#66cdaa" stroke="black" d="M603,-108C603,-108 573,-108 573,-108 567,-108 561,-102 561,-96 561,-96 561,-84 561,-84 561,-78 567,-72 573,-72 573,-72 603,-72 603,-72 609,-72 615,-78 615,-84 615,-84 615,-96 615,-96 615,-102 609,-108 603,-108"/>
<text text-anchor="middle" x="588" y="-86.3" font-family="Times,serif" font-size="14.00">Name</text>
</g>
<!-- ast.Subscript object at 0x7f765cdc7eb0&#45;&gt;ast.Name object at 0x7f765cdc7c70 -->
<g id="edge34" class="edge">
<title>ast.Subscript object at 0x7f765cdc7eb0&#45;&gt;ast.Name object at 0x7f765cdc7c70</title>
<path fill="none" stroke="black" d="M582.73,-143.7C583.5,-135.98 584.43,-126.71 585.29,-118.11"/>
<polygon fill="black" stroke="black" points="588.78,-118.4 586.29,-108.1 581.81,-117.71 588.78,-118.4"/>
</g>
<!-- ast.Constant object at 0x7f765cdc7760 -->
<g id="node30" class="node">
<title>ast.Constant object at 0x7f765cdc7760</title>
<path fill="#66cdaa" stroke="black" d="M686.5,-108C686.5,-108 645.5,-108 645.5,-108 639.5,-108 633.5,-102 633.5,-96 633.5,-96 633.5,-84 633.5,-84 633.5,-78 639.5,-72 645.5,-72 645.5,-72 686.5,-72 686.5,-72 692.5,-72 698.5,-78 698.5,-84 698.5,-84 698.5,-96 698.5,-96 698.5,-102 692.5,-108 686.5,-108"/>
<text text-anchor="middle" x="666" y="-86.3" font-family="Times,serif" font-size="14.00">Constant</text>
</g>
<!-- ast.Subscript object at 0x7f765cdc7eb0&#45;&gt;ast.Constant object at 0x7f765cdc7760 -->
<g id="edge36" class="edge">
<title>ast.Subscript object at 0x7f765cdc7eb0&#45;&gt;ast.Constant object at 0x7f765cdc7760</title>
<path fill="none" stroke="black" d="M602.01,-143.7C612.72,-134.88 625.89,-124.03 637.5,-114.47"/>
<polygon fill="black" stroke="black" points="639.74,-117.16 645.23,-108.1 635.29,-111.76 639.74,-117.16"/>
</g>
<!-- ast.Name object at 0x7f765cdc7c70&#45;&gt;ast.Load object at 0x7f76a4cf1ff0 -->
<g id="edge35" class="edge">
<title>ast.Name object at 0x7f765cdc7c70&#45;&gt;ast.Load object at 0x7f76a4cf1ff0</title>
<path fill="none" stroke="black" d="M560.85,-76.16C537.15,-64.95 502.54,-48.58 476.42,-36.23"/>
<polygon fill="black" stroke="black" points="477.76,-32.99 467.22,-31.88 474.77,-39.32 477.76,-32.99"/>
</g>
<!-- ast.Subscript object at 0x7f765cdc6800&#45;&gt;ast.Load object at 0x7f76a4cf1ff0 -->
<g id="edge42" class="edge">
<title>ast.Subscript object at 0x7f765cdc6800&#45;&gt;ast.Load object at 0x7f76a4cf1ff0</title>
<path fill="none" stroke="black" d="M749.82,-143.99C743.88,-123.57 730.96,-89.85 707,-72 671.1,-45.25 542.11,-29.07 477.47,-22.46"/>
<polygon fill="black" stroke="black" points="477.6,-18.95 467.3,-21.44 476.9,-25.92 477.6,-18.95"/>
</g>
<!-- ast.Name object at 0x7f765cdc4550 -->
<g id="node32" class="node">
<title>ast.Name object at 0x7f765cdc4550</title>
<path fill="#66cdaa" stroke="black" d="M797,-108C797,-108 767,-108 767,-108 761,-108 755,-102 755,-96 755,-96 755,-84 755,-84 755,-78 761,-72 767,-72 767,-72 797,-72 797,-72 803,-72 809,-78 809,-84 809,-84 809,-96 809,-96 809,-102 803,-108 797,-108"/>
<text text-anchor="middle" x="782" y="-86.3" font-family="Times,serif" font-size="14.00">Name</text>
</g>
<!-- ast.Subscript object at 0x7f765cdc6800&#45;&gt;ast.Name object at 0x7f765cdc4550 -->
<g id="edge39" class="edge">
<title>ast.Subscript object at 0x7f765cdc6800&#45;&gt;ast.Name object at 0x7f765cdc4550</title>
<path fill="none" stroke="black" d="M760.92,-143.7C764.07,-135.81 767.88,-126.3 771.38,-117.55"/>
<polygon fill="black" stroke="black" points="774.69,-118.69 775.16,-108.1 768.19,-116.09 774.69,-118.69"/>
</g>
<!-- ast.Constant object at 0x7f765cdc7f70 -->
<g id="node33" class="node">
<title>ast.Constant object at 0x7f765cdc7f70</title>
<path fill="#66cdaa" stroke="black" d="M880.5,-108C880.5,-108 839.5,-108 839.5,-108 833.5,-108 827.5,-102 827.5,-96 827.5,-96 827.5,-84 827.5,-84 827.5,-78 833.5,-72 839.5,-72 839.5,-72 880.5,-72 880.5,-72 886.5,-72 892.5,-78 892.5,-84 892.5,-84 892.5,-96 892.5,-96 892.5,-102 886.5,-108 880.5,-108"/>
<text text-anchor="middle" x="860" y="-86.3" font-family="Times,serif" font-size="14.00">Constant</text>
</g>
<!-- ast.Subscript object at 0x7f765cdc6800&#45;&gt;ast.Constant object at 0x7f765cdc7f70 -->
<g id="edge41" class="edge">
<title>ast.Subscript object at 0x7f765cdc6800&#45;&gt;ast.Constant object at 0x7f765cdc7f70</title>
<path fill="none" stroke="black" d="M779.93,-143.88C793.66,-134.81 810.71,-123.55 825.54,-113.76"/>
<polygon fill="black" stroke="black" points="827.55,-116.62 833.97,-108.19 823.7,-110.78 827.55,-116.62"/>
</g>
<!-- ast.Name object at 0x7f765cdc4550&#45;&gt;ast.Load object at 0x7f76a4cf1ff0 -->
<g id="edge40" class="edge">
<title>ast.Name object at 0x7f765cdc4550&#45;&gt;ast.Load object at 0x7f76a4cf1ff0</title>
<path fill="none" stroke="black" d="M754.95,-76.81C750.36,-75.02 745.59,-73.34 741,-72 647.97,-44.88 534.48,-29.48 477.07,-22.88"/>
<polygon fill="black" stroke="black" points="477.35,-19.39 467.02,-21.75 476.57,-26.35 477.35,-19.39"/>
</g>
</g>
</svg>
