<?xml version="1.0" encoding="UTF-8" standalone="no"?>
<!DOCTYPE svg PUBLIC "-//W3C//DTD SVG 1.1//EN"
 "http://www.w3.org/Graphics/SVG/1.1/DTD/svg11.dtd">
<!-- Generated by graphviz version 2.43.0 (0)
 -->
<!-- Title: %3 Pages: 1 -->
<svg width="787pt" height="692pt"
 viewBox="0.00 0.00 786.59 692.00" xmlns="http://www.w3.org/2000/svg" xmlns:xlink="http://www.w3.org/1999/xlink">
<g id="graph0" class="graph" transform="scale(1 1) rotate(0) translate(4 688)">
<title>%3</title>
<polygon fill="white" stroke="transparent" points="-4,4 -4,-688 782.59,-688 782.59,4 -4,4"/>
<!-- ast.Module object at 0x7fca85907ca0 -->
<g id="node1" class="node">
<title>ast.Module object at 0x7fca85907ca0</title>
<path fill="#66cdaa" stroke="black" d="M401.09,-684C401.09,-684 366.09,-684 366.09,-684 360.09,-684 354.09,-678 354.09,-672 354.09,-672 354.09,-660 354.09,-660 354.09,-654 360.09,-648 366.09,-648 366.09,-648 401.09,-648 401.09,-648 407.09,-648 413.09,-654 413.09,-660 413.09,-660 413.09,-672 413.09,-672 413.09,-678 407.09,-684 401.09,-684"/>
<text text-anchor="middle" x="383.59" y="-662.3" font-family="Times,serif" font-size="14.00">Module</text>
</g>
<!-- ast.FunctionDef object at 0x7fca85907430 -->
<g id="node2" class="node">
<title>ast.FunctionDef object at 0x7fca85907430</title>
<path fill="#66cdaa" stroke="black" d="M414.09,-612C414.09,-612 353.09,-612 353.09,-612 347.09,-612 341.09,-606 341.09,-600 341.09,-600 341.09,-588 341.09,-588 341.09,-582 347.09,-576 353.09,-576 353.09,-576 414.09,-576 414.09,-576 420.09,-576 426.09,-582 426.09,-588 426.09,-588 426.09,-600 426.09,-600 426.09,-606 420.09,-612 414.09,-612"/>
<text text-anchor="middle" x="383.59" y="-590.3" font-family="Times,serif" font-size="14.00">FunctionDef</text>
</g>
<!-- ast.Module object at 0x7fca85907ca0&#45;&gt;ast.FunctionDef object at 0x7fca85907430 -->
<g id="edge1" class="edge">
<title>ast.Module object at 0x7fca85907ca0&#45;&gt;ast.FunctionDef object at 0x7fca85907430</title>
<path fill="none" stroke="black" d="M383.59,-647.7C383.59,-639.98 383.59,-630.71 383.59,-622.11"/>
<polygon fill="black" stroke="black" points="387.09,-622.1 383.59,-612.1 380.09,-622.1 387.09,-622.1"/>
</g>
<!-- ast.arguments object at 0x7fca85906c80 -->
<g id="node3" class="node">
<title>ast.arguments object at 0x7fca85906c80</title>
<path fill="#66cdaa" stroke="black" d="M276.59,-540C276.59,-540 226.59,-540 226.59,-540 220.59,-540 214.59,-534 214.59,-528 214.59,-528 214.59,-516 214.59,-516 214.59,-510 220.59,-504 226.59,-504 226.59,-504 276.59,-504 276.59,-504 282.59,-504 288.59,-510 288.59,-516 288.59,-516 288.59,-528 288.59,-528 288.59,-534 282.59,-540 276.59,-540"/>
<text text-anchor="middle" x="251.59" y="-518.3" font-family="Times,serif" font-size="14.00">arguments</text>
</g>
<!-- ast.FunctionDef object at 0x7fca85907430&#45;&gt;ast.arguments object at 0x7fca85906c80 -->
<g id="edge2" class="edge">
<title>ast.FunctionDef object at 0x7fca85907430&#45;&gt;ast.arguments object at 0x7fca85906c80</title>
<path fill="none" stroke="black" d="M351.3,-575.88C333.72,-566.55 311.78,-554.92 292.96,-544.94"/>
<polygon fill="black" stroke="black" points="294.48,-541.78 284.01,-540.19 291.2,-547.97 294.48,-541.78"/>
</g>
<!-- ast.Assign object at 0x7fca85907730 -->
<g id="node5" class="node">
<title>ast.Assign object at 0x7fca85907730</title>
<path fill="#66cdaa" stroke="black" d="M362.59,-540C362.59,-540 332.59,-540 332.59,-540 326.59,-540 320.59,-534 320.59,-528 320.59,-528 320.59,-516 320.59,-516 320.59,-510 326.59,-504 332.59,-504 332.59,-504 362.59,-504 362.59,-504 368.59,-504 374.59,-510 374.59,-516 374.59,-516 374.59,-528 374.59,-528 374.59,-534 368.59,-540 362.59,-540"/>
<text text-anchor="middle" x="347.59" y="-518.3" font-family="Times,serif" font-size="14.00">Assign</text>
</g>
<!-- ast.FunctionDef object at 0x7fca85907430&#45;&gt;ast.Assign object at 0x7fca85907730 -->
<g id="edge4" class="edge">
<title>ast.FunctionDef object at 0x7fca85907430&#45;&gt;ast.Assign object at 0x7fca85907730</title>
<path fill="none" stroke="black" d="M374.69,-575.7C370.6,-567.73 365.64,-558.1 361.1,-549.26"/>
<polygon fill="black" stroke="black" points="364.08,-547.4 356.39,-540.1 357.85,-550.6 364.08,-547.4"/>
</g>
<!-- ast.For object at 0x7fca85907ac0 -->
<g id="node10" class="node">
<title>ast.For object at 0x7fca85907ac0</title>
<path fill="#66cdaa" stroke="black" d="M470.59,-540C470.59,-540 440.59,-540 440.59,-540 434.59,-540 428.59,-534 428.59,-528 428.59,-528 428.59,-516 428.59,-516 428.59,-510 434.59,-504 440.59,-504 440.59,-504 470.59,-504 470.59,-504 476.59,-504 482.59,-510 482.59,-516 482.59,-516 482.59,-528 482.59,-528 482.59,-534 476.59,-540 470.59,-540"/>
<text text-anchor="middle" x="455.59" y="-518.3" font-family="Times,serif" font-size="14.00">For</text>
</g>
<!-- ast.FunctionDef object at 0x7fca85907430&#45;&gt;ast.For object at 0x7fca85907ac0 -->
<g id="edge9" class="edge">
<title>ast.FunctionDef object at 0x7fca85907430&#45;&gt;ast.For object at 0x7fca85907ac0</title>
<path fill="none" stroke="black" d="M401.39,-575.7C410.2,-567.14 420.98,-556.66 430.59,-547.3"/>
<polygon fill="black" stroke="black" points="433.27,-549.58 438,-540.1 428.39,-544.57 433.27,-549.58"/>
</g>
<!-- ast.Return object at 0x7fca85907310 -->
<g id="node41" class="node">
<title>ast.Return object at 0x7fca85907310</title>
<path fill="#66cdaa" stroke="black" d="M670.59,-540C670.59,-540 640.59,-540 640.59,-540 634.59,-540 628.59,-534 628.59,-528 628.59,-528 628.59,-516 628.59,-516 628.59,-510 634.59,-504 640.59,-504 640.59,-504 670.59,-504 670.59,-504 676.59,-504 682.59,-510 682.59,-516 682.59,-516 682.59,-528 682.59,-528 682.59,-534 676.59,-540 670.59,-540"/>
<text text-anchor="middle" x="655.59" y="-518.3" font-family="Times,serif" font-size="14.00">Return</text>
</g>
<!-- ast.FunctionDef object at 0x7fca85907430&#45;&gt;ast.Return object at 0x7fca85907310 -->
<g id="edge55" class="edge">
<title>ast.FunctionDef object at 0x7fca85907430&#45;&gt;ast.Return object at 0x7fca85907310</title>
<path fill="none" stroke="black" d="M426.39,-581.99C479.3,-568.37 568.46,-545.42 618.56,-532.53"/>
<polygon fill="black" stroke="black" points="619.52,-535.9 628.33,-530.02 617.78,-529.12 619.52,-535.9"/>
</g>
<!-- ast.arg object at 0x7fca85907880 -->
<g id="node4" class="node">
<title>ast.arg object at 0x7fca85907880</title>
<path fill="#66cdaa" stroke="black" d="M252.59,-468C252.59,-468 222.59,-468 222.59,-468 216.59,-468 210.59,-462 210.59,-456 210.59,-456 210.59,-444 210.59,-444 210.59,-438 216.59,-432 222.59,-432 222.59,-432 252.59,-432 252.59,-432 258.59,-432 264.59,-438 264.59,-444 264.59,-444 264.59,-456 264.59,-456 264.59,-462 258.59,-468 252.59,-468"/>
<text text-anchor="middle" x="237.59" y="-446.3" font-family="Times,serif" font-size="14.00">arg</text>
</g>
<!-- ast.arguments object at 0x7fca85906c80&#45;&gt;ast.arg object at 0x7fca85907880 -->
<g id="edge3" class="edge">
<title>ast.arguments object at 0x7fca85906c80&#45;&gt;ast.arg object at 0x7fca85907880</title>
<path fill="none" stroke="black" d="M248.13,-503.7C246.59,-495.98 244.74,-486.71 243.02,-478.11"/>
<polygon fill="black" stroke="black" points="246.41,-477.22 241.01,-468.1 239.54,-478.6 246.41,-477.22"/>
</g>
<!-- ast.Name object at 0x7fca85907010 -->
<g id="node6" class="node">
<title>ast.Name object at 0x7fca85907010</title>
<path fill="#66cdaa" stroke="black" d="M362.59,-468C362.59,-468 332.59,-468 332.59,-468 326.59,-468 320.59,-462 320.59,-456 320.59,-456 320.59,-444 320.59,-444 320.59,-438 326.59,-432 332.59,-432 332.59,-432 362.59,-432 362.59,-432 368.59,-432 374.59,-438 374.59,-444 374.59,-444 374.59,-456 374.59,-456 374.59,-462 368.59,-468 362.59,-468"/>
<text text-anchor="middle" x="347.59" y="-446.3" font-family="Times,serif" font-size="14.00">Name</text>
</g>
<!-- ast.Assign object at 0x7fca85907730&#45;&gt;ast.Name object at 0x7fca85907010 -->
<g id="edge5" class="edge">
<title>ast.Assign object at 0x7fca85907730&#45;&gt;ast.Name object at 0x7fca85907010</title>
<path fill="none" stroke="black" d="M347.59,-503.7C347.59,-495.98 347.59,-486.71 347.59,-478.11"/>
<polygon fill="black" stroke="black" points="351.09,-478.1 347.59,-468.1 344.09,-478.1 351.09,-478.1"/>
</g>
<!-- ast.List object at 0x7fca85907a90 -->
<g id="node8" class="node">
<title>ast.List object at 0x7fca85907a90</title>
<path fill="#66cdaa" stroke="black" d="M155.59,-396C155.59,-396 125.59,-396 125.59,-396 119.59,-396 113.59,-390 113.59,-384 113.59,-384 113.59,-372 113.59,-372 113.59,-366 119.59,-360 125.59,-360 125.59,-360 155.59,-360 155.59,-360 161.59,-360 167.59,-366 167.59,-372 167.59,-372 167.59,-384 167.59,-384 167.59,-390 161.59,-396 155.59,-396"/>
<text text-anchor="middle" x="140.59" y="-374.3" font-family="Times,serif" font-size="14.00">List</text>
</g>
<!-- ast.Assign object at 0x7fca85907730&#45;&gt;ast.List object at 0x7fca85907a90 -->
<g id="edge7" class="edge">
<title>ast.Assign object at 0x7fca85907730&#45;&gt;ast.List object at 0x7fca85907a90</title>
<path fill="none" stroke="black" d="M337.06,-503.71C324.24,-483.97 300.91,-451.84 273.59,-432 244.49,-410.86 205.78,-396.68 177.64,-388.35"/>
<polygon fill="black" stroke="black" points="178.36,-384.92 167.78,-385.55 176.44,-391.65 178.36,-384.92"/>
</g>
<!-- ast.Store object at 0x7fca9b8f1ff0 -->
<g id="node7" class="node">
<title>ast.Store object at 0x7fca9b8f1ff0</title>
<path fill="#66cdaa" stroke="black" d="M362.59,-396C362.59,-396 332.59,-396 332.59,-396 326.59,-396 320.59,-390 320.59,-384 320.59,-384 320.59,-372 320.59,-372 320.59,-366 326.59,-360 332.59,-360 332.59,-360 362.59,-360 362.59,-360 368.59,-360 374.59,-366 374.59,-372 374.59,-372 374.59,-384 374.59,-384 374.59,-390 368.59,-396 362.59,-396"/>
<text text-anchor="middle" x="347.59" y="-374.3" font-family="Times,serif" font-size="14.00">Store</text>
</g>
<!-- ast.Name object at 0x7fca85907010&#45;&gt;ast.Store object at 0x7fca9b8f1ff0 -->
<g id="edge6" class="edge">
<title>ast.Name object at 0x7fca85907010&#45;&gt;ast.Store object at 0x7fca9b8f1ff0</title>
<path fill="none" stroke="black" d="M347.59,-431.7C347.59,-423.98 347.59,-414.71 347.59,-406.11"/>
<polygon fill="black" stroke="black" points="351.09,-406.1 347.59,-396.1 344.09,-406.1 351.09,-406.1"/>
</g>
<!-- ast.Load object at 0x7fca9b8f1f90 -->
<g id="node9" class="node">
<title>ast.Load object at 0x7fca9b8f1f90</title>
<path fill="#66cdaa" stroke="black" d="M374.59,-36C374.59,-36 344.59,-36 344.59,-36 338.59,-36 332.59,-30 332.59,-24 332.59,-24 332.59,-12 332.59,-12 332.59,-6 338.59,0 344.59,0 344.59,0 374.59,0 374.59,0 380.59,0 386.59,-6 386.59,-12 386.59,-12 386.59,-24 386.59,-24 386.59,-30 380.59,-36 374.59,-36"/>
<text text-anchor="middle" x="359.59" y="-14.3" font-family="Times,serif" font-size="14.00">Load</text>
</g>
<!-- ast.List object at 0x7fca85907a90&#45;&gt;ast.Load object at 0x7fca9b8f1f90 -->
<g id="edge8" class="edge">
<title>ast.List object at 0x7fca85907a90&#45;&gt;ast.Load object at 0x7fca9b8f1f90</title>
<path fill="none" stroke="black" d="M113.33,-364.29C73.11,-343.44 2.59,-297.91 2.59,-235 2.59,-235 2.59,-235 2.59,-161 2.59,-120.55 -7.78,-99.81 21.59,-72 64.28,-31.59 243.03,-21.98 321.91,-19.71"/>
<polygon fill="black" stroke="black" points="322.45,-23.19 332.35,-19.43 322.26,-16.2 322.45,-23.19"/>
</g>
<!-- ast.Name object at 0x7fca859079d0 -->
<g id="node11" class="node">
<title>ast.Name object at 0x7fca859079d0</title>
<path fill="#66cdaa" stroke="black" d="M434.59,-468C434.59,-468 404.59,-468 404.59,-468 398.59,-468 392.59,-462 392.59,-456 392.59,-456 392.59,-444 392.59,-444 392.59,-438 398.59,-432 404.59,-432 404.59,-432 434.59,-432 434.59,-432 440.59,-432 446.59,-438 446.59,-444 446.59,-444 446.59,-456 446.59,-456 446.59,-462 440.59,-468 434.59,-468"/>
<text text-anchor="middle" x="419.59" y="-446.3" font-family="Times,serif" font-size="14.00">Name</text>
</g>
<!-- ast.For object at 0x7fca85907ac0&#45;&gt;ast.Name object at 0x7fca859079d0 -->
<g id="edge10" class="edge">
<title>ast.For object at 0x7fca85907ac0&#45;&gt;ast.Name object at 0x7fca859079d0</title>
<path fill="none" stroke="black" d="M446.69,-503.7C442.6,-495.73 437.64,-486.1 433.1,-477.26"/>
<polygon fill="black" stroke="black" points="436.08,-475.4 428.39,-468.1 429.85,-478.6 436.08,-475.4"/>
</g>
<!-- ast.Call object at 0x7fca85907940 -->
<g id="node12" class="node">
<title>ast.Call object at 0x7fca85907940</title>
<path fill="#66cdaa" stroke="black" d="M612.59,-468C612.59,-468 582.59,-468 582.59,-468 576.59,-468 570.59,-462 570.59,-456 570.59,-456 570.59,-444 570.59,-444 570.59,-438 576.59,-432 582.59,-432 582.59,-432 612.59,-432 612.59,-432 618.59,-432 624.59,-438 624.59,-444 624.59,-444 624.59,-456 624.59,-456 624.59,-462 618.59,-468 612.59,-468"/>
<text text-anchor="middle" x="597.59" y="-446.3" font-family="Times,serif" font-size="14.00">Call</text>
</g>
<!-- ast.For object at 0x7fca85907ac0&#45;&gt;ast.Call object at 0x7fca85907940 -->
<g id="edge12" class="edge">
<title>ast.For object at 0x7fca85907ac0&#45;&gt;ast.Call object at 0x7fca85907940</title>
<path fill="none" stroke="black" d="M482.64,-507.67C504.9,-496.69 536.67,-481.03 561.17,-468.96"/>
<polygon fill="black" stroke="black" points="562.75,-472.08 570.17,-464.52 559.65,-465.8 562.75,-472.08"/>
</g>
<!-- ast.If object at 0x7fca85906e30 -->
<g id="node15" class="node">
<title>ast.If object at 0x7fca85906e30</title>
<path fill="#66cdaa" stroke="black" d="M506.59,-468C506.59,-468 476.59,-468 476.59,-468 470.59,-468 464.59,-462 464.59,-456 464.59,-456 464.59,-444 464.59,-444 464.59,-438 470.59,-432 476.59,-432 476.59,-432 506.59,-432 506.59,-432 512.59,-432 518.59,-438 518.59,-444 518.59,-444 518.59,-456 518.59,-456 518.59,-462 512.59,-468 506.59,-468"/>
<text text-anchor="middle" x="491.59" y="-446.3" font-family="Times,serif" font-size="14.00">If</text>
</g>
<!-- ast.For object at 0x7fca85907ac0&#45;&gt;ast.If object at 0x7fca85906e30 -->
<g id="edge16" class="edge">
<title>ast.For object at 0x7fca85907ac0&#45;&gt;ast.If object at 0x7fca85906e30</title>
<path fill="none" stroke="black" d="M464.49,-503.7C468.59,-495.73 473.54,-486.1 478.09,-477.26"/>
<polygon fill="black" stroke="black" points="481.34,-478.6 482.8,-468.1 475.11,-475.4 481.34,-478.6"/>
</g>
<!-- ast.Name object at 0x7fca859079d0&#45;&gt;ast.Store object at 0x7fca9b8f1ff0 -->
<g id="edge11" class="edge">
<title>ast.Name object at 0x7fca859079d0&#45;&gt;ast.Store object at 0x7fca9b8f1ff0</title>
<path fill="none" stroke="black" d="M401.8,-431.7C392.99,-423.14 382.21,-412.66 372.59,-403.3"/>
<polygon fill="black" stroke="black" points="374.8,-400.57 365.19,-396.1 369.92,-405.58 374.8,-400.57"/>
</g>
<!-- ast.Name object at 0x7fca859076a0 -->
<g id="node13" class="node">
<title>ast.Name object at 0x7fca859076a0</title>
<path fill="#66cdaa" stroke="black" d="M701.59,-396C701.59,-396 671.59,-396 671.59,-396 665.59,-396 659.59,-390 659.59,-384 659.59,-384 659.59,-372 659.59,-372 659.59,-366 665.59,-360 671.59,-360 671.59,-360 701.59,-360 701.59,-360 707.59,-360 713.59,-366 713.59,-372 713.59,-372 713.59,-384 713.59,-384 713.59,-390 707.59,-396 701.59,-396"/>
<text text-anchor="middle" x="686.59" y="-374.3" font-family="Times,serif" font-size="14.00">Name</text>
</g>
<!-- ast.Call object at 0x7fca85907940&#45;&gt;ast.Name object at 0x7fca859076a0 -->
<g id="edge13" class="edge">
<title>ast.Call object at 0x7fca85907940&#45;&gt;ast.Name object at 0x7fca859076a0</title>
<path fill="none" stroke="black" d="M619.59,-431.7C630.8,-422.88 644.6,-412.03 656.75,-402.47"/>
<polygon fill="black" stroke="black" points="659.15,-405.04 664.85,-396.1 654.82,-399.54 659.15,-405.04"/>
</g>
<!-- ast.Constant object at 0x7fca85907820 -->
<g id="node14" class="node">
<title>ast.Constant object at 0x7fca85907820</title>
<path fill="#66cdaa" stroke="black" d="M618.09,-396C618.09,-396 577.09,-396 577.09,-396 571.09,-396 565.09,-390 565.09,-384 565.09,-384 565.09,-372 565.09,-372 565.09,-366 571.09,-360 577.09,-360 577.09,-360 618.09,-360 618.09,-360 624.09,-360 630.09,-366 630.09,-372 630.09,-372 630.09,-384 630.09,-384 630.09,-390 624.09,-396 618.09,-396"/>
<text text-anchor="middle" x="597.59" y="-374.3" font-family="Times,serif" font-size="14.00">Constant</text>
</g>
<!-- ast.Call object at 0x7fca85907940&#45;&gt;ast.Constant object at 0x7fca85907820 -->
<g id="edge15" class="edge">
<title>ast.Call object at 0x7fca85907940&#45;&gt;ast.Constant object at 0x7fca85907820</title>
<path fill="none" stroke="black" d="M597.59,-431.7C597.59,-423.98 597.59,-414.71 597.59,-406.11"/>
<polygon fill="black" stroke="black" points="601.09,-406.1 597.59,-396.1 594.09,-406.1 601.09,-406.1"/>
</g>
<!-- ast.Name object at 0x7fca859076a0&#45;&gt;ast.Load object at 0x7fca9b8f1f90 -->
<g id="edge14" class="edge">
<title>ast.Name object at 0x7fca859076a0&#45;&gt;ast.Load object at 0x7fca9b8f1f90</title>
<path fill="none" stroke="black" d="M688.57,-359.98C691.48,-333.36 696.59,-280.23 696.59,-235 696.59,-235 696.59,-235 696.59,-161 696.59,-120.55 706.83,-99.95 677.59,-72 637.92,-34.08 472.42,-23.16 397.15,-20.12"/>
<polygon fill="black" stroke="black" points="396.85,-16.61 386.73,-19.73 396.59,-23.6 396.85,-16.61"/>
</g>
<!-- ast.BoolOp object at 0x7fca859078b0 -->
<g id="node16" class="node">
<title>ast.BoolOp object at 0x7fca859078b0</title>
<path fill="#66cdaa" stroke="black" d="M512.09,-396C512.09,-396 477.09,-396 477.09,-396 471.09,-396 465.09,-390 465.09,-384 465.09,-384 465.09,-372 465.09,-372 465.09,-366 471.09,-360 477.09,-360 477.09,-360 512.09,-360 512.09,-360 518.09,-360 524.09,-366 524.09,-372 524.09,-372 524.09,-384 524.09,-384 524.09,-390 518.09,-396 512.09,-396"/>
<text text-anchor="middle" x="494.59" y="-374.3" font-family="Times,serif" font-size="14.00">BoolOp</text>
</g>
<!-- ast.If object at 0x7fca85906e30&#45;&gt;ast.BoolOp object at 0x7fca859078b0 -->
<g id="edge17" class="edge">
<title>ast.If object at 0x7fca85906e30&#45;&gt;ast.BoolOp object at 0x7fca859078b0</title>
<path fill="none" stroke="black" d="M492.33,-431.7C492.67,-423.98 493.06,-414.71 493.43,-406.11"/>
<polygon fill="black" stroke="black" points="496.93,-406.25 493.86,-396.1 489.94,-405.95 496.93,-406.25"/>
</g>
<!-- ast.Expr object at 0x7fca859072e0 -->
<g id="node34" class="node">
<title>ast.Expr object at 0x7fca859072e0</title>
<path fill="#66cdaa" stroke="black" d="M434.59,-396C434.59,-396 404.59,-396 404.59,-396 398.59,-396 392.59,-390 392.59,-384 392.59,-384 392.59,-372 392.59,-372 392.59,-366 398.59,-360 404.59,-360 404.59,-360 434.59,-360 434.59,-360 440.59,-360 446.59,-366 446.59,-372 446.59,-372 446.59,-384 446.59,-384 446.59,-390 440.59,-396 434.59,-396"/>
<text text-anchor="middle" x="419.59" y="-374.3" font-family="Times,serif" font-size="14.00">Expr</text>
</g>
<!-- ast.If object at 0x7fca85906e30&#45;&gt;ast.Expr object at 0x7fca859072e0 -->
<g id="edge43" class="edge">
<title>ast.If object at 0x7fca85906e30&#45;&gt;ast.Expr object at 0x7fca859072e0</title>
<path fill="none" stroke="black" d="M473.8,-431.7C464.99,-423.14 454.21,-412.66 444.59,-403.3"/>
<polygon fill="black" stroke="black" points="446.8,-400.57 437.19,-396.1 441.92,-405.58 446.8,-400.57"/>
</g>
<!-- ast.And object at 0x7fca9b8f20e0 -->
<g id="node17" class="node">
<title>ast.And object at 0x7fca9b8f20e0</title>
<path fill="#66cdaa" stroke="black" d="M588.59,-324C588.59,-324 558.59,-324 558.59,-324 552.59,-324 546.59,-318 546.59,-312 546.59,-312 546.59,-300 546.59,-300 546.59,-294 552.59,-288 558.59,-288 558.59,-288 588.59,-288 588.59,-288 594.59,-288 600.59,-294 600.59,-300 600.59,-300 600.59,-312 600.59,-312 600.59,-318 594.59,-324 588.59,-324"/>
<text text-anchor="middle" x="573.59" y="-302.3" font-family="Times,serif" font-size="14.00">And</text>
</g>
<!-- ast.BoolOp object at 0x7fca859078b0&#45;&gt;ast.And object at 0x7fca9b8f20e0 -->
<g id="edge18" class="edge">
<title>ast.BoolOp object at 0x7fca859078b0&#45;&gt;ast.And object at 0x7fca9b8f20e0</title>
<path fill="none" stroke="black" d="M514.12,-359.7C523.98,-350.97 536.08,-340.24 546.79,-330.75"/>
<polygon fill="black" stroke="black" points="549.13,-333.36 554.29,-324.1 544.48,-328.12 549.13,-333.36"/>
</g>
<!-- ast.Compare object at 0x7fca859078e0 -->
<g id="node18" class="node">
<title>ast.Compare object at 0x7fca859078e0</title>
<path fill="#66cdaa" stroke="black" d="M428.09,-324C428.09,-324 385.09,-324 385.09,-324 379.09,-324 373.09,-318 373.09,-312 373.09,-312 373.09,-300 373.09,-300 373.09,-294 379.09,-288 385.09,-288 385.09,-288 428.09,-288 428.09,-288 434.09,-288 440.09,-294 440.09,-300 440.09,-300 440.09,-312 440.09,-312 440.09,-318 434.09,-324 428.09,-324"/>
<text text-anchor="middle" x="406.59" y="-302.3" font-family="Times,serif" font-size="14.00">Compare</text>
</g>
<!-- ast.BoolOp object at 0x7fca859078b0&#45;&gt;ast.Compare object at 0x7fca859078e0 -->
<g id="edge19" class="edge">
<title>ast.BoolOp object at 0x7fca859078b0&#45;&gt;ast.Compare object at 0x7fca859078e0</title>
<path fill="none" stroke="black" d="M472.84,-359.7C461.76,-350.88 448.12,-340.03 436.1,-330.47"/>
<polygon fill="black" stroke="black" points="438.1,-327.59 428.1,-324.1 433.74,-333.07 438.1,-327.59"/>
</g>
<!-- ast.Compare object at 0x7fca85906c50 -->
<g id="node27" class="node">
<title>ast.Compare object at 0x7fca85906c50</title>
<path fill="#66cdaa" stroke="black" d="M516.09,-324C516.09,-324 473.09,-324 473.09,-324 467.09,-324 461.09,-318 461.09,-312 461.09,-312 461.09,-300 461.09,-300 461.09,-294 467.09,-288 473.09,-288 473.09,-288 516.09,-288 516.09,-288 522.09,-288 528.09,-294 528.09,-300 528.09,-300 528.09,-312 528.09,-312 528.09,-318 522.09,-324 516.09,-324"/>
<text text-anchor="middle" x="494.59" y="-302.3" font-family="Times,serif" font-size="14.00">Compare</text>
</g>
<!-- ast.BoolOp object at 0x7fca859078b0&#45;&gt;ast.Compare object at 0x7fca85906c50 -->
<g id="edge31" class="edge">
<title>ast.BoolOp object at 0x7fca859078b0&#45;&gt;ast.Compare object at 0x7fca85906c50</title>
<path fill="none" stroke="black" d="M494.59,-359.7C494.59,-351.98 494.59,-342.71 494.59,-334.11"/>
<polygon fill="black" stroke="black" points="498.09,-334.1 494.59,-324.1 491.09,-334.1 498.09,-334.1"/>
</g>
<!-- ast.BinOp object at 0x7fca85906cb0 -->
<g id="node19" class="node">
<title>ast.BinOp object at 0x7fca85906cb0</title>
<path fill="#66cdaa" stroke="black" d="M340.59,-252C340.59,-252 310.59,-252 310.59,-252 304.59,-252 298.59,-246 298.59,-240 298.59,-240 298.59,-228 298.59,-228 298.59,-222 304.59,-216 310.59,-216 310.59,-216 340.59,-216 340.59,-216 346.59,-216 352.59,-222 352.59,-228 352.59,-228 352.59,-240 352.59,-240 352.59,-246 346.59,-252 340.59,-252"/>
<text text-anchor="middle" x="325.59" y="-230.3" font-family="Times,serif" font-size="14.00">BinOp</text>
</g>
<!-- ast.Compare object at 0x7fca859078e0&#45;&gt;ast.BinOp object at 0x7fca85906cb0 -->
<g id="edge20" class="edge">
<title>ast.Compare object at 0x7fca859078e0&#45;&gt;ast.BinOp object at 0x7fca85906cb0</title>
<path fill="none" stroke="black" d="M386.57,-287.7C376.47,-278.97 364.06,-268.24 353.08,-258.75"/>
<polygon fill="black" stroke="black" points="355.24,-255.99 345.39,-252.1 350.66,-261.29 355.24,-255.99"/>
</g>
<!-- ast.Eq object at 0x7fca9b8f28c0 -->
<g id="node25" class="node">
<title>ast.Eq object at 0x7fca9b8f28c0</title>
<path fill="#66cdaa" stroke="black" d="M496.59,-252C496.59,-252 466.59,-252 466.59,-252 460.59,-252 454.59,-246 454.59,-240 454.59,-240 454.59,-228 454.59,-228 454.59,-222 460.59,-216 466.59,-216 466.59,-216 496.59,-216 496.59,-216 502.59,-216 508.59,-222 508.59,-228 508.59,-228 508.59,-240 508.59,-240 508.59,-246 502.59,-252 496.59,-252"/>
<text text-anchor="middle" x="481.59" y="-230.3" font-family="Times,serif" font-size="14.00">Eq</text>
</g>
<!-- ast.Compare object at 0x7fca859078e0&#45;&gt;ast.Eq object at 0x7fca9b8f28c0 -->
<g id="edge29" class="edge">
<title>ast.Compare object at 0x7fca859078e0&#45;&gt;ast.Eq object at 0x7fca9b8f28c0</title>
<path fill="none" stroke="black" d="M425.13,-287.7C434.4,-279.05 445.76,-268.45 455.85,-259.03"/>
<polygon fill="black" stroke="black" points="458.34,-261.49 463.27,-252.1 453.57,-256.37 458.34,-261.49"/>
</g>
<!-- ast.Constant object at 0x7fca85907f70 -->
<g id="node26" class="node">
<title>ast.Constant object at 0x7fca85907f70</title>
<path fill="#66cdaa" stroke="black" d="M424.09,-252C424.09,-252 383.09,-252 383.09,-252 377.09,-252 371.09,-246 371.09,-240 371.09,-240 371.09,-228 371.09,-228 371.09,-222 377.09,-216 383.09,-216 383.09,-216 424.09,-216 424.09,-216 430.09,-216 436.09,-222 436.09,-228 436.09,-228 436.09,-240 436.09,-240 436.09,-246 430.09,-252 424.09,-252"/>
<text text-anchor="middle" x="403.59" y="-230.3" font-family="Times,serif" font-size="14.00">Constant</text>
</g>
<!-- ast.Compare object at 0x7fca859078e0&#45;&gt;ast.Constant object at 0x7fca85907f70 -->
<g id="edge30" class="edge">
<title>ast.Compare object at 0x7fca859078e0&#45;&gt;ast.Constant object at 0x7fca85907f70</title>
<path fill="none" stroke="black" d="M405.85,-287.7C405.52,-279.98 405.12,-270.71 404.76,-262.11"/>
<polygon fill="black" stroke="black" points="408.25,-261.95 404.33,-252.1 401.26,-262.25 408.25,-261.95"/>
</g>
<!-- ast.Subscript object at 0x7fca85907df0 -->
<g id="node20" class="node">
<title>ast.Subscript object at 0x7fca85907df0</title>
<path fill="#66cdaa" stroke="black" d="M330.59,-180C330.59,-180 286.59,-180 286.59,-180 280.59,-180 274.59,-174 274.59,-168 274.59,-168 274.59,-156 274.59,-156 274.59,-150 280.59,-144 286.59,-144 286.59,-144 330.59,-144 330.59,-144 336.59,-144 342.59,-150 342.59,-156 342.59,-156 342.59,-168 342.59,-168 342.59,-174 336.59,-180 330.59,-180"/>
<text text-anchor="middle" x="308.59" y="-158.3" font-family="Times,serif" font-size="14.00">Subscript</text>
</g>
<!-- ast.BinOp object at 0x7fca85906cb0&#45;&gt;ast.Subscript object at 0x7fca85907df0 -->
<g id="edge21" class="edge">
<title>ast.BinOp object at 0x7fca85906cb0&#45;&gt;ast.Subscript object at 0x7fca85907df0</title>
<path fill="none" stroke="black" d="M321.39,-215.7C319.5,-207.9 317.22,-198.51 315.11,-189.83"/>
<polygon fill="black" stroke="black" points="318.51,-189 312.75,-180.1 311.71,-190.65 318.51,-189"/>
</g>
<!-- ast.Mod object at 0x7fca9b8f23b0 -->
<g id="node23" class="node">
<title>ast.Mod object at 0x7fca9b8f23b0</title>
<path fill="#66cdaa" stroke="black" d="M486.59,-180C486.59,-180 456.59,-180 456.59,-180 450.59,-180 444.59,-174 444.59,-168 444.59,-168 444.59,-156 444.59,-156 444.59,-150 450.59,-144 456.59,-144 456.59,-144 486.59,-144 486.59,-144 492.59,-144 498.59,-150 498.59,-156 498.59,-156 498.59,-168 498.59,-168 498.59,-174 492.59,-180 486.59,-180"/>
<text text-anchor="middle" x="471.59" y="-158.3" font-family="Times,serif" font-size="14.00">Mod</text>
</g>
<!-- ast.BinOp object at 0x7fca85906cb0&#45;&gt;ast.Mod object at 0x7fca9b8f23b0 -->
<g id="edge27" class="edge">
<title>ast.BinOp object at 0x7fca85906cb0&#45;&gt;ast.Mod object at 0x7fca9b8f23b0</title>
<path fill="none" stroke="black" d="M352.71,-220C375.92,-208.87 409.54,-192.75 435.1,-180.5"/>
<polygon fill="black" stroke="black" points="436.62,-183.65 444.12,-176.17 433.59,-177.34 436.62,-183.65"/>
</g>
<!-- ast.Constant object at 0x7fca85907640 -->
<g id="node24" class="node">
<title>ast.Constant object at 0x7fca85907640</title>
<path fill="#66cdaa" stroke="black" d="M414.09,-180C414.09,-180 373.09,-180 373.09,-180 367.09,-180 361.09,-174 361.09,-168 361.09,-168 361.09,-156 361.09,-156 361.09,-150 367.09,-144 373.09,-144 373.09,-144 414.09,-144 414.09,-144 420.09,-144 426.09,-150 426.09,-156 426.09,-156 426.09,-168 426.09,-168 426.09,-174 420.09,-180 414.09,-180"/>
<text text-anchor="middle" x="393.59" y="-158.3" font-family="Times,serif" font-size="14.00">Constant</text>
</g>
<!-- ast.BinOp object at 0x7fca85906cb0&#45;&gt;ast.Constant object at 0x7fca85907640 -->
<g id="edge28" class="edge">
<title>ast.BinOp object at 0x7fca85906cb0&#45;&gt;ast.Constant object at 0x7fca85907640</title>
<path fill="none" stroke="black" d="M342.4,-215.7C350.72,-207.14 360.9,-196.66 369.98,-187.3"/>
<polygon fill="black" stroke="black" points="372.52,-189.72 376.98,-180.1 367.5,-184.84 372.52,-189.72"/>
</g>
<!-- ast.Subscript object at 0x7fca85907df0&#45;&gt;ast.Load object at 0x7fca9b8f1f90 -->
<g id="edge26" class="edge">
<title>ast.Subscript object at 0x7fca85907df0&#45;&gt;ast.Load object at 0x7fca9b8f1f90</title>
<path fill="none" stroke="black" d="M314.75,-143.87C323.51,-119.46 339.69,-74.43 350.03,-45.64"/>
<polygon fill="black" stroke="black" points="353.33,-46.78 353.42,-36.19 346.75,-44.42 353.33,-46.78"/>
</g>
<!-- ast.Name object at 0x7fca85907760 -->
<g id="node21" class="node">
<title>ast.Name object at 0x7fca85907760</title>
<path fill="#66cdaa" stroke="black" d="M402.59,-108C402.59,-108 372.59,-108 372.59,-108 366.59,-108 360.59,-102 360.59,-96 360.59,-96 360.59,-84 360.59,-84 360.59,-78 366.59,-72 372.59,-72 372.59,-72 402.59,-72 402.59,-72 408.59,-72 414.59,-78 414.59,-84 414.59,-84 414.59,-96 414.59,-96 414.59,-102 408.59,-108 402.59,-108"/>
<text text-anchor="middle" x="387.59" y="-86.3" font-family="Times,serif" font-size="14.00">Name</text>
</g>
<!-- ast.Subscript object at 0x7fca85907df0&#45;&gt;ast.Name object at 0x7fca85907760 -->
<g id="edge22" class="edge">
<title>ast.Subscript object at 0x7fca85907df0&#45;&gt;ast.Name object at 0x7fca85907760</title>
<path fill="none" stroke="black" d="M328.12,-143.7C337.98,-134.97 350.08,-124.24 360.79,-114.75"/>
<polygon fill="black" stroke="black" points="363.13,-117.36 368.29,-108.1 358.48,-112.12 363.13,-117.36"/>
</g>
<!-- ast.Name object at 0x7fca859074c0 -->
<g id="node22" class="node">
<title>ast.Name object at 0x7fca859074c0</title>
<path fill="#66cdaa" stroke="black" d="M474.59,-108C474.59,-108 444.59,-108 444.59,-108 438.59,-108 432.59,-102 432.59,-96 432.59,-96 432.59,-84 432.59,-84 432.59,-78 438.59,-72 444.59,-72 444.59,-72 474.59,-72 474.59,-72 480.59,-72 486.59,-78 486.59,-84 486.59,-84 486.59,-96 486.59,-96 486.59,-102 480.59,-108 474.59,-108"/>
<text text-anchor="middle" x="459.59" y="-86.3" font-family="Times,serif" font-size="14.00">Name</text>
</g>
<!-- ast.Subscript object at 0x7fca85907df0&#45;&gt;ast.Name object at 0x7fca859074c0 -->
<g id="edge24" class="edge">
<title>ast.Subscript object at 0x7fca85907df0&#45;&gt;ast.Name object at 0x7fca859074c0</title>
<path fill="none" stroke="black" d="M342.6,-145.43C363.54,-135.82 391.15,-123.1 423.29,-108.12"/>
<polygon fill="black" stroke="black" points="424.9,-111.24 432.48,-103.84 421.94,-104.89 424.9,-111.24"/>
</g>
<!-- ast.Name object at 0x7fca85907760&#45;&gt;ast.Load object at 0x7fca9b8f1f90 -->
<g id="edge23" class="edge">
<title>ast.Name object at 0x7fca85907760&#45;&gt;ast.Load object at 0x7fca9b8f1f90</title>
<path fill="none" stroke="black" d="M380.67,-71.7C377.52,-63.81 373.71,-54.3 370.21,-45.55"/>
<polygon fill="black" stroke="black" points="373.4,-44.09 366.43,-36.1 366.9,-46.69 373.4,-44.09"/>
</g>
<!-- ast.Name object at 0x7fca859074c0&#45;&gt;ast.Load object at 0x7fca9b8f1f90 -->
<g id="edge25" class="edge">
<title>ast.Name object at 0x7fca859074c0&#45;&gt;ast.Load object at 0x7fca9b8f1f90</title>
<path fill="none" stroke="black" d="M435.13,-71.88C422.3,-62.89 406.4,-51.76 392.5,-42.03"/>
<polygon fill="black" stroke="black" points="394.35,-39.06 384.15,-36.19 390.34,-44.79 394.35,-39.06"/>
</g>
<!-- ast.Compare object at 0x7fca85906c50&#45;&gt;ast.Eq object at 0x7fca9b8f28c0 -->
<g id="edge41" class="edge">
<title>ast.Compare object at 0x7fca85906c50&#45;&gt;ast.Eq object at 0x7fca9b8f28c0</title>
<path fill="none" stroke="black" d="M491.38,-287.7C489.95,-279.98 488.23,-270.71 486.63,-262.11"/>
<polygon fill="black" stroke="black" points="490.04,-261.3 484.77,-252.1 483.15,-262.58 490.04,-261.3"/>
</g>
<!-- ast.BinOp object at 0x7fca859076d0 -->
<g id="node28" class="node">
<title>ast.BinOp object at 0x7fca859076d0</title>
<path fill="#66cdaa" stroke="black" d="M568.59,-252C568.59,-252 538.59,-252 538.59,-252 532.59,-252 526.59,-246 526.59,-240 526.59,-240 526.59,-228 526.59,-228 526.59,-222 532.59,-216 538.59,-216 538.59,-216 568.59,-216 568.59,-216 574.59,-216 580.59,-222 580.59,-228 580.59,-228 580.59,-240 580.59,-240 580.59,-246 574.59,-252 568.59,-252"/>
<text text-anchor="middle" x="553.59" y="-230.3" font-family="Times,serif" font-size="14.00">BinOp</text>
</g>
<!-- ast.Compare object at 0x7fca85906c50&#45;&gt;ast.BinOp object at 0x7fca859076d0 -->
<g id="edge32" class="edge">
<title>ast.Compare object at 0x7fca85906c50&#45;&gt;ast.BinOp object at 0x7fca859076d0</title>
<path fill="none" stroke="black" d="M509.18,-287.7C516.25,-279.3 524.88,-269.07 532.64,-259.86"/>
<polygon fill="black" stroke="black" points="535.41,-262.01 539.18,-252.1 530.06,-257.49 535.41,-262.01"/>
</g>
<!-- ast.Constant object at 0x7fca85907580 -->
<g id="node33" class="node">
<title>ast.Constant object at 0x7fca85907580</title>
<path fill="#66cdaa" stroke="black" d="M652.09,-252C652.09,-252 611.09,-252 611.09,-252 605.09,-252 599.09,-246 599.09,-240 599.09,-240 599.09,-228 599.09,-228 599.09,-222 605.09,-216 611.09,-216 611.09,-216 652.09,-216 652.09,-216 658.09,-216 664.09,-222 664.09,-228 664.09,-228 664.09,-240 664.09,-240 664.09,-246 658.09,-252 652.09,-252"/>
<text text-anchor="middle" x="631.59" y="-230.3" font-family="Times,serif" font-size="14.00">Constant</text>
</g>
<!-- ast.Compare object at 0x7fca85906c50&#45;&gt;ast.Constant object at 0x7fca85907580 -->
<g id="edge42" class="edge">
<title>ast.Compare object at 0x7fca85906c50&#45;&gt;ast.Constant object at 0x7fca85907580</title>
<path fill="none" stroke="black" d="M528.11,-287.88C546.71,-278.37 570.01,-266.46 589.8,-256.36"/>
<polygon fill="black" stroke="black" points="591.59,-259.37 598.9,-251.71 588.4,-253.14 591.59,-259.37"/>
</g>
<!-- ast.BinOp object at 0x7fca859076d0&#45;&gt;ast.Mod object at 0x7fca9b8f23b0 -->
<g id="edge39" class="edge">
<title>ast.BinOp object at 0x7fca859076d0&#45;&gt;ast.Mod object at 0x7fca9b8f23b0</title>
<path fill="none" stroke="black" d="M533.32,-215.7C523.1,-206.97 510.53,-196.24 499.41,-186.75"/>
<polygon fill="black" stroke="black" points="501.51,-183.94 491.63,-180.1 496.96,-189.26 501.51,-183.94"/>
</g>
<!-- ast.Subscript object at 0x7fca859077c0 -->
<g id="node29" class="node">
<title>ast.Subscript object at 0x7fca859077c0</title>
<path fill="#66cdaa" stroke="black" d="M656.59,-180C656.59,-180 612.59,-180 612.59,-180 606.59,-180 600.59,-174 600.59,-168 600.59,-168 600.59,-156 600.59,-156 600.59,-150 606.59,-144 612.59,-144 612.59,-144 656.59,-144 656.59,-144 662.59,-144 668.59,-150 668.59,-156 668.59,-156 668.59,-168 668.59,-168 668.59,-174 662.59,-180 656.59,-180"/>
<text text-anchor="middle" x="634.59" y="-158.3" font-family="Times,serif" font-size="14.00">Subscript</text>
</g>
<!-- ast.BinOp object at 0x7fca859076d0&#45;&gt;ast.Subscript object at 0x7fca859077c0 -->
<g id="edge33" class="edge">
<title>ast.BinOp object at 0x7fca859076d0&#45;&gt;ast.Subscript object at 0x7fca859077c0</title>
<path fill="none" stroke="black" d="M573.62,-215.7C583.72,-206.97 596.13,-196.24 607.11,-186.75"/>
<polygon fill="black" stroke="black" points="609.52,-189.29 614.8,-180.1 604.95,-183.99 609.52,-189.29"/>
</g>
<!-- ast.Constant object at 0x7fca85907dc0 -->
<g id="node32" class="node">
<title>ast.Constant object at 0x7fca85907dc0</title>
<path fill="#66cdaa" stroke="black" d="M570.09,-180C570.09,-180 529.09,-180 529.09,-180 523.09,-180 517.09,-174 517.09,-168 517.09,-168 517.09,-156 517.09,-156 517.09,-150 523.09,-144 529.09,-144 529.09,-144 570.09,-144 570.09,-144 576.09,-144 582.09,-150 582.09,-156 582.09,-156 582.09,-168 582.09,-168 582.09,-174 576.09,-180 570.09,-180"/>
<text text-anchor="middle" x="549.59" y="-158.3" font-family="Times,serif" font-size="14.00">Constant</text>
</g>
<!-- ast.BinOp object at 0x7fca859076d0&#45;&gt;ast.Constant object at 0x7fca85907dc0 -->
<g id="edge40" class="edge">
<title>ast.BinOp object at 0x7fca859076d0&#45;&gt;ast.Constant object at 0x7fca85907dc0</title>
<path fill="none" stroke="black" d="M552.6,-215.7C552.16,-207.98 551.63,-198.71 551.14,-190.11"/>
<polygon fill="black" stroke="black" points="554.64,-189.89 550.57,-180.1 547.65,-190.29 554.64,-189.89"/>
</g>
<!-- ast.Subscript object at 0x7fca859077c0&#45;&gt;ast.Load object at 0x7fca9b8f1f90 -->
<g id="edge38" class="edge">
<title>ast.Subscript object at 0x7fca859077c0&#45;&gt;ast.Load object at 0x7fca9b8f1f90</title>
<path fill="none" stroke="black" d="M600.49,-146C580.25,-136.41 554.53,-122.97 533.59,-108 514.67,-94.47 515.24,-84.46 495.59,-72 464.62,-52.36 425.2,-37.99 396.78,-29.21"/>
<polygon fill="black" stroke="black" points="397.43,-25.75 386.85,-26.22 395.42,-32.45 397.43,-25.75"/>
</g>
<!-- ast.Name object at 0x7fca85907700 -->
<g id="node30" class="node">
<title>ast.Name object at 0x7fca85907700</title>
<path fill="#66cdaa" stroke="black" d="M584.59,-108C584.59,-108 554.59,-108 554.59,-108 548.59,-108 542.59,-102 542.59,-96 542.59,-96 542.59,-84 542.59,-84 542.59,-78 548.59,-72 554.59,-72 554.59,-72 584.59,-72 584.59,-72 590.59,-72 596.59,-78 596.59,-84 596.59,-84 596.59,-96 596.59,-96 596.59,-102 590.59,-108 584.59,-108"/>
<text text-anchor="middle" x="569.59" y="-86.3" font-family="Times,serif" font-size="14.00">Name</text>
</g>
<!-- ast.Subscript object at 0x7fca859077c0&#45;&gt;ast.Name object at 0x7fca85907700 -->
<g id="edge34" class="edge">
<title>ast.Subscript object at 0x7fca859077c0&#45;&gt;ast.Name object at 0x7fca85907700</title>
<path fill="none" stroke="black" d="M618.53,-143.7C610.65,-135.22 601.04,-124.86 592.42,-115.58"/>
<polygon fill="black" stroke="black" points="594.85,-113.05 585.48,-108.1 589.72,-117.81 594.85,-113.05"/>
</g>
<!-- ast.Name object at 0x7fca85907cd0 -->
<g id="node31" class="node">
<title>ast.Name object at 0x7fca85907cd0</title>
<path fill="#66cdaa" stroke="black" d="M656.59,-108C656.59,-108 626.59,-108 626.59,-108 620.59,-108 614.59,-102 614.59,-96 614.59,-96 614.59,-84 614.59,-84 614.59,-78 620.59,-72 626.59,-72 626.59,-72 656.59,-72 656.59,-72 662.59,-72 668.59,-78 668.59,-84 668.59,-84 668.59,-96 668.59,-96 668.59,-102 662.59,-108 656.59,-108"/>
<text text-anchor="middle" x="641.59" y="-86.3" font-family="Times,serif" font-size="14.00">Name</text>
</g>
<!-- ast.Subscript object at 0x7fca859077c0&#45;&gt;ast.Name object at 0x7fca85907cd0 -->
<g id="edge36" class="edge">
<title>ast.Subscript object at 0x7fca859077c0&#45;&gt;ast.Name object at 0x7fca85907cd0</title>
<path fill="none" stroke="black" d="M636.32,-143.7C637.09,-135.98 638.02,-126.71 638.88,-118.11"/>
<polygon fill="black" stroke="black" points="642.37,-118.4 639.88,-108.1 635.41,-117.71 642.37,-118.4"/>
</g>
<!-- ast.Name object at 0x7fca85907700&#45;&gt;ast.Load object at 0x7fca9b8f1f90 -->
<g id="edge35" class="edge">
<title>ast.Name object at 0x7fca85907700&#45;&gt;ast.Load object at 0x7fca9b8f1f90</title>
<path fill="none" stroke="black" d="M542.38,-77.32C537.8,-75.47 533.08,-73.63 528.59,-72 483.61,-55.66 430.86,-39.6 396.41,-29.52"/>
<polygon fill="black" stroke="black" points="397.35,-26.14 386.77,-26.71 395.39,-32.86 397.35,-26.14"/>
</g>
<!-- ast.Name object at 0x7fca85907cd0&#45;&gt;ast.Load object at 0x7fca9b8f1f90 -->
<g id="edge37" class="edge">
<title>ast.Name object at 0x7fca85907cd0&#45;&gt;ast.Load object at 0x7fca9b8f1f90</title>
<path fill="none" stroke="black" d="M614.34,-75.34C611.43,-74.12 608.47,-72.98 605.59,-72 533.51,-47.57 445.61,-31.85 396.8,-24.29"/>
<polygon fill="black" stroke="black" points="397.12,-20.8 386.71,-22.76 396.07,-27.72 397.12,-20.8"/>
</g>
<!-- ast.Call object at 0x7fca85907460 -->
<g id="node35" class="node">
<title>ast.Call object at 0x7fca85907460</title>
<path fill="#66cdaa" stroke="black" d="M220.59,-252C220.59,-252 190.59,-252 190.59,-252 184.59,-252 178.59,-246 178.59,-240 178.59,-240 178.59,-228 178.59,-228 178.59,-222 184.59,-216 190.59,-216 190.59,-216 220.59,-216 220.59,-216 226.59,-216 232.59,-222 232.59,-228 232.59,-228 232.59,-240 232.59,-240 232.59,-246 226.59,-252 220.59,-252"/>
<text text-anchor="middle" x="205.59" y="-230.3" font-family="Times,serif" font-size="14.00">Call</text>
</g>
<!-- ast.Expr object at 0x7fca859072e0&#45;&gt;ast.Call object at 0x7fca85907460 -->
<g id="edge44" class="edge">
<title>ast.Expr object at 0x7fca859072e0&#45;&gt;ast.Call object at 0x7fca85907460</title>
<path fill="none" stroke="black" d="M393.78,-359.87C355.3,-334.34 282.83,-286.25 239.92,-257.78"/>
<polygon fill="black" stroke="black" points="241.77,-254.8 231.5,-252.19 237.9,-260.63 241.77,-254.8"/>
</g>
<!-- ast.Attribute object at 0x7fca85907d60 -->
<g id="node36" class="node">
<title>ast.Attribute object at 0x7fca85907d60</title>
<path fill="#66cdaa" stroke="black" d="M133.09,-180C133.09,-180 92.09,-180 92.09,-180 86.09,-180 80.09,-174 80.09,-168 80.09,-168 80.09,-156 80.09,-156 80.09,-150 86.09,-144 92.09,-144 92.09,-144 133.09,-144 133.09,-144 139.09,-144 145.09,-150 145.09,-156 145.09,-156 145.09,-168 145.09,-168 145.09,-174 139.09,-180 133.09,-180"/>
<text text-anchor="middle" x="112.59" y="-158.3" font-family="Times,serif" font-size="14.00">Attribute</text>
</g>
<!-- ast.Call object at 0x7fca85907460&#45;&gt;ast.Attribute object at 0x7fca85907d60 -->
<g id="edge45" class="edge">
<title>ast.Call object at 0x7fca85907460&#45;&gt;ast.Attribute object at 0x7fca85907d60</title>
<path fill="none" stroke="black" d="M182.6,-215.7C170.78,-206.8 156.2,-195.82 143.41,-186.2"/>
<polygon fill="black" stroke="black" points="145.41,-183.32 135.32,-180.1 141.2,-188.91 145.41,-183.32"/>
</g>
<!-- ast.Subscript object at 0x7fca85907100 -->
<g id="node38" class="node">
<title>ast.Subscript object at 0x7fca85907100</title>
<path fill="#66cdaa" stroke="black" d="M227.59,-180C227.59,-180 183.59,-180 183.59,-180 177.59,-180 171.59,-174 171.59,-168 171.59,-168 171.59,-156 171.59,-156 171.59,-150 177.59,-144 183.59,-144 183.59,-144 227.59,-144 227.59,-144 233.59,-144 239.59,-150 239.59,-156 239.59,-156 239.59,-168 239.59,-168 239.59,-174 233.59,-180 227.59,-180"/>
<text text-anchor="middle" x="205.59" y="-158.3" font-family="Times,serif" font-size="14.00">Subscript</text>
</g>
<!-- ast.Call object at 0x7fca85907460&#45;&gt;ast.Subscript object at 0x7fca85907100 -->
<g id="edge49" class="edge">
<title>ast.Call object at 0x7fca85907460&#45;&gt;ast.Subscript object at 0x7fca85907100</title>
<path fill="none" stroke="black" d="M205.59,-215.7C205.59,-207.98 205.59,-198.71 205.59,-190.11"/>
<polygon fill="black" stroke="black" points="209.09,-190.1 205.59,-180.1 202.09,-190.1 209.09,-190.1"/>
</g>
<!-- ast.Attribute object at 0x7fca85907d60&#45;&gt;ast.Load object at 0x7fca9b8f1f90 -->
<g id="edge48" class="edge">
<title>ast.Attribute object at 0x7fca85907d60&#45;&gt;ast.Load object at 0x7fca9b8f1f90</title>
<path fill="none" stroke="black" d="M117.07,-143.88C123.25,-123.67 136.35,-90.49 159.59,-72 206.99,-34.3 278.7,-23.27 322.15,-20.13"/>
<polygon fill="black" stroke="black" points="322.52,-23.61 332.29,-19.51 322.09,-16.63 322.52,-23.61"/>
</g>
<!-- ast.Name object at 0x7fca85905e40 -->
<g id="node37" class="node">
<title>ast.Name object at 0x7fca85905e40</title>
<path fill="#66cdaa" stroke="black" d="M72.59,-108C72.59,-108 42.59,-108 42.59,-108 36.59,-108 30.59,-102 30.59,-96 30.59,-96 30.59,-84 30.59,-84 30.59,-78 36.59,-72 42.59,-72 42.59,-72 72.59,-72 72.59,-72 78.59,-72 84.59,-78 84.59,-84 84.59,-84 84.59,-96 84.59,-96 84.59,-102 78.59,-108 72.59,-108"/>
<text text-anchor="middle" x="57.59" y="-86.3" font-family="Times,serif" font-size="14.00">Name</text>
</g>
<!-- ast.Attribute object at 0x7fca85907d60&#45;&gt;ast.Name object at 0x7fca85905e40 -->
<g id="edge46" class="edge">
<title>ast.Attribute object at 0x7fca85907d60&#45;&gt;ast.Name object at 0x7fca85905e40</title>
<path fill="none" stroke="black" d="M99,-143.7C92.47,-135.39 84.53,-125.28 77.35,-116.14"/>
<polygon fill="black" stroke="black" points="79.96,-113.81 71.03,-108.1 74.46,-118.13 79.96,-113.81"/>
</g>
<!-- ast.Name object at 0x7fca85905e40&#45;&gt;ast.Load object at 0x7fca9b8f1f90 -->
<g id="edge47" class="edge">
<title>ast.Name object at 0x7fca85905e40&#45;&gt;ast.Load object at 0x7fca9b8f1f90</title>
<path fill="none" stroke="black" d="M84.67,-76.91C89.26,-75.11 94.02,-73.4 98.59,-72 176.78,-48.1 271.47,-31.93 322.57,-24.21"/>
<polygon fill="black" stroke="black" points="323.11,-27.67 332.49,-22.74 322.09,-20.75 323.11,-27.67"/>
</g>
<!-- ast.Subscript object at 0x7fca85907100&#45;&gt;ast.Load object at 0x7fca9b8f1f90 -->
<g id="edge54" class="edge">
<title>ast.Subscript object at 0x7fca85907100&#45;&gt;ast.Load object at 0x7fca9b8f1f90</title>
<path fill="none" stroke="black" d="M189.17,-143.91C172.97,-124.92 152.86,-94.04 169.59,-72 188.01,-47.75 272.54,-31.61 322.43,-24.02"/>
<polygon fill="black" stroke="black" points="323.14,-27.46 332.52,-22.53 322.11,-20.53 323.14,-27.46"/>
</g>
<!-- ast.Name object at 0x7fca85907280 -->
<g id="node39" class="node">
<title>ast.Name object at 0x7fca85907280</title>
<path fill="#66cdaa" stroke="black" d="M220.59,-108C220.59,-108 190.59,-108 190.59,-108 184.59,-108 178.59,-102 178.59,-96 178.59,-96 178.59,-84 178.59,-84 178.59,-78 184.59,-72 190.59,-72 190.59,-72 220.59,-72 220.59,-72 226.59,-72 232.59,-78 232.59,-84 232.59,-84 232.59,-96 232.59,-96 232.59,-102 226.59,-108 220.59,-108"/>
<text text-anchor="middle" x="205.59" y="-86.3" font-family="Times,serif" font-size="14.00">Name</text>
</g>
<!-- ast.Subscript object at 0x7fca85907100&#45;&gt;ast.Name object at 0x7fca85907280 -->
<g id="edge50" class="edge">
<title>ast.Subscript object at 0x7fca85907100&#45;&gt;ast.Name object at 0x7fca85907280</title>
<path fill="none" stroke="black" d="M205.59,-143.7C205.59,-135.98 205.59,-126.71 205.59,-118.11"/>
<polygon fill="black" stroke="black" points="209.09,-118.1 205.59,-108.1 202.09,-118.1 209.09,-118.1"/>
</g>
<!-- ast.Name object at 0x7fca85907b80 -->
<g id="node40" class="node">
<title>ast.Name object at 0x7fca85907b80</title>
<path fill="#66cdaa" stroke="black" d="M292.59,-108C292.59,-108 262.59,-108 262.59,-108 256.59,-108 250.59,-102 250.59,-96 250.59,-96 250.59,-84 250.59,-84 250.59,-78 256.59,-72 262.59,-72 262.59,-72 292.59,-72 292.59,-72 298.59,-72 304.59,-78 304.59,-84 304.59,-84 304.59,-96 304.59,-96 304.59,-102 298.59,-108 292.59,-108"/>
<text text-anchor="middle" x="277.59" y="-86.3" font-family="Times,serif" font-size="14.00">Name</text>
</g>
<!-- ast.Subscript object at 0x7fca85907100&#45;&gt;ast.Name object at 0x7fca85907b80 -->
<g id="edge52" class="edge">
<title>ast.Subscript object at 0x7fca85907100&#45;&gt;ast.Name object at 0x7fca85907b80</title>
<path fill="none" stroke="black" d="M223.39,-143.7C232.2,-135.14 242.98,-124.66 252.59,-115.3"/>
<polygon fill="black" stroke="black" points="255.27,-117.58 260,-108.1 250.39,-112.57 255.27,-117.58"/>
</g>
<!-- ast.Name object at 0x7fca85907280&#45;&gt;ast.Load object at 0x7fca9b8f1f90 -->
<g id="edge51" class="edge">
<title>ast.Name object at 0x7fca85907280&#45;&gt;ast.Load object at 0x7fca9b8f1f90</title>
<path fill="none" stroke="black" d="M232.69,-76.13C235.69,-74.73 238.71,-73.33 241.59,-72 268.84,-59.45 299.79,-45.56 323.15,-35.15"/>
<polygon fill="black" stroke="black" points="324.63,-38.33 332.34,-31.06 321.78,-31.93 324.63,-38.33"/>
</g>
<!-- ast.Name object at 0x7fca85907b80&#45;&gt;ast.Load object at 0x7fca9b8f1f90 -->
<g id="edge53" class="edge">
<title>ast.Name object at 0x7fca85907b80&#45;&gt;ast.Load object at 0x7fca9b8f1f90</title>
<path fill="none" stroke="black" d="M297.86,-71.7C308.09,-62.97 320.65,-52.24 331.77,-42.75"/>
<polygon fill="black" stroke="black" points="334.22,-45.26 339.56,-36.1 329.68,-39.94 334.22,-45.26"/>
</g>
<!-- ast.Name object at 0x7fca85907e50 -->
<g id="node42" class="node">
<title>ast.Name object at 0x7fca85907e50</title>
<path fill="#66cdaa" stroke="black" d="M766.59,-324C766.59,-324 736.59,-324 736.59,-324 730.59,-324 724.59,-318 724.59,-312 724.59,-312 724.59,-300 724.59,-300 724.59,-294 730.59,-288 736.59,-288 736.59,-288 766.59,-288 766.59,-288 772.59,-288 778.59,-294 778.59,-300 778.59,-300 778.59,-312 778.59,-312 778.59,-318 772.59,-324 766.59,-324"/>
<text text-anchor="middle" x="751.59" y="-302.3" font-family="Times,serif" font-size="14.00">Name</text>
</g>
<!-- ast.Return object at 0x7fca85907310&#45;&gt;ast.Name object at 0x7fca85907e50 -->
<g id="edge56" class="edge">
<title>ast.Return object at 0x7fca85907310&#45;&gt;ast.Name object at 0x7fca85907e50</title>
<path fill="none" stroke="black" d="M666.15,-503.68C680.29,-479.99 705.58,-435.85 722.59,-396 731.29,-375.64 738.94,-351.74 744.2,-333.83"/>
<polygon fill="black" stroke="black" points="747.61,-334.64 747.01,-324.06 740.88,-332.7 747.61,-334.64"/>
</g>
<!-- ast.Name object at 0x7fca85907e50&#45;&gt;ast.Load object at 0x7fca9b8f1f90 -->
<g id="edge57" class="edge">
<title>ast.Name object at 0x7fca85907e50&#45;&gt;ast.Load object at 0x7fca9b8f1f90</title>
<path fill="none" stroke="black" d="M754.53,-287.94C760.89,-244.84 770.85,-130.81 710.59,-72 666.59,-29.05 477.93,-20.86 396.86,-19.33"/>
<polygon fill="black" stroke="black" points="396.67,-15.83 386.61,-19.16 396.55,-22.83 396.67,-15.83"/>
</g>
</g>
</svg>
