<?xml version="1.0" encoding="UTF-8" standalone="no"?>
<!DOCTYPE svg PUBLIC "-//W3C//DTD SVG 1.1//EN"
 "http://www.w3.org/Graphics/SVG/1.1/DTD/svg11.dtd">
<!-- Generated by graphviz version 2.43.0 (0)
 -->
<!-- Title: %3 Pages: 1 -->
<svg width="1242pt" height="764pt"
 viewBox="0.00 0.00 1241.81 764.00" xmlns="http://www.w3.org/2000/svg" xmlns:xlink="http://www.w3.org/1999/xlink">
<g id="graph0" class="graph" transform="scale(1 1) rotate(0) translate(4 760)">
<title>%3</title>
<polygon fill="white" stroke="transparent" points="-4,4 -4,-760 1237.81,-760 1237.81,4 -4,4"/>
<!-- ast.Module object at 0x7fc75e0f78e0 -->
<g id="node1" class="node">
<title>ast.Module object at 0x7fc75e0f78e0</title>
<path fill="#66cdaa" stroke="black" d="M235.31,-756C235.31,-756 200.31,-756 200.31,-756 194.31,-756 188.31,-750 188.31,-744 188.31,-744 188.31,-732 188.31,-732 188.31,-726 194.31,-720 200.31,-720 200.31,-720 235.31,-720 235.31,-720 241.31,-720 247.31,-726 247.31,-732 247.31,-732 247.31,-744 247.31,-744 247.31,-750 241.31,-756 235.31,-756"/>
<text text-anchor="middle" x="217.81" y="-734.3" font-family="Times,serif" font-size="14.00">Module</text>
</g>
<!-- ast.FunctionDef object at 0x7fc75e0f48e0 -->
<g id="node2" class="node">
<title>ast.FunctionDef object at 0x7fc75e0f48e0</title>
<path fill="#66cdaa" stroke="black" d="M248.31,-684C248.31,-684 187.31,-684 187.31,-684 181.31,-684 175.31,-678 175.31,-672 175.31,-672 175.31,-660 175.31,-660 175.31,-654 181.31,-648 187.31,-648 187.31,-648 248.31,-648 248.31,-648 254.31,-648 260.31,-654 260.31,-660 260.31,-660 260.31,-672 260.31,-672 260.31,-678 254.31,-684 248.31,-684"/>
<text text-anchor="middle" x="217.81" y="-662.3" font-family="Times,serif" font-size="14.00">FunctionDef</text>
</g>
<!-- ast.Module object at 0x7fc75e0f78e0&#45;&gt;ast.FunctionDef object at 0x7fc75e0f48e0 -->
<g id="edge1" class="edge">
<title>ast.Module object at 0x7fc75e0f78e0&#45;&gt;ast.FunctionDef object at 0x7fc75e0f48e0</title>
<path fill="none" stroke="black" d="M217.81,-719.7C217.81,-711.98 217.81,-702.71 217.81,-694.11"/>
<polygon fill="black" stroke="black" points="221.31,-694.1 217.81,-684.1 214.31,-694.1 221.31,-694.1"/>
</g>
<!-- ast.arguments object at 0x7fc75e0f7340 -->
<g id="node3" class="node">
<title>ast.arguments object at 0x7fc75e0f7340</title>
<path fill="#66cdaa" stroke="black" d="M150.81,-612C150.81,-612 100.81,-612 100.81,-612 94.81,-612 88.81,-606 88.81,-600 88.81,-600 88.81,-588 88.81,-588 88.81,-582 94.81,-576 100.81,-576 100.81,-576 150.81,-576 150.81,-576 156.81,-576 162.81,-582 162.81,-588 162.81,-588 162.81,-600 162.81,-600 162.81,-606 156.81,-612 150.81,-612"/>
<text text-anchor="middle" x="125.81" y="-590.3" font-family="Times,serif" font-size="14.00">arguments</text>
</g>
<!-- ast.FunctionDef object at 0x7fc75e0f48e0&#45;&gt;ast.arguments object at 0x7fc75e0f7340 -->
<g id="edge2" class="edge">
<title>ast.FunctionDef object at 0x7fc75e0f48e0&#45;&gt;ast.arguments object at 0x7fc75e0f7340</title>
<path fill="none" stroke="black" d="M195.07,-647.7C183.37,-638.8 168.95,-627.82 156.3,-618.2"/>
<polygon fill="black" stroke="black" points="158.37,-615.37 148.29,-612.1 154.13,-620.94 158.37,-615.37"/>
</g>
<!-- ast.Assign object at 0x7fc75e0f6bc0 -->
<g id="node5" class="node">
<title>ast.Assign object at 0x7fc75e0f6bc0</title>
<path fill="#66cdaa" stroke="black" d="M184.81,-468C184.81,-468 154.81,-468 154.81,-468 148.81,-468 142.81,-462 142.81,-456 142.81,-456 142.81,-444 142.81,-444 142.81,-438 148.81,-432 154.81,-432 154.81,-432 184.81,-432 184.81,-432 190.81,-432 196.81,-438 196.81,-444 196.81,-444 196.81,-456 196.81,-456 196.81,-462 190.81,-468 184.81,-468"/>
<text text-anchor="middle" x="169.81" y="-446.3" font-family="Times,serif" font-size="14.00">Assign</text>
</g>
<!-- ast.FunctionDef object at 0x7fc75e0f48e0&#45;&gt;ast.Assign object at 0x7fc75e0f6bc0 -->
<g id="edge4" class="edge">
<title>ast.FunctionDef object at 0x7fc75e0f48e0&#45;&gt;ast.Assign object at 0x7fc75e0f6bc0</title>
<path fill="none" stroke="black" d="M213.97,-647.85C205.65,-610.75 185.92,-522.81 175.89,-478.1"/>
<polygon fill="black" stroke="black" points="179.28,-477.22 173.68,-468.23 172.45,-478.76 179.28,-477.22"/>
</g>
<!-- ast.For object at 0x7fc75e0f6b30 -->
<g id="node10" class="node">
<title>ast.For object at 0x7fc75e0f6b30</title>
<path fill="#66cdaa" stroke="black" d="M287.81,-612C287.81,-612 257.81,-612 257.81,-612 251.81,-612 245.81,-606 245.81,-600 245.81,-600 245.81,-588 245.81,-588 245.81,-582 251.81,-576 257.81,-576 257.81,-576 287.81,-576 287.81,-576 293.81,-576 299.81,-582 299.81,-588 299.81,-588 299.81,-600 299.81,-600 299.81,-606 293.81,-612 287.81,-612"/>
<text text-anchor="middle" x="272.81" y="-590.3" font-family="Times,serif" font-size="14.00">For</text>
</g>
<!-- ast.FunctionDef object at 0x7fc75e0f48e0&#45;&gt;ast.For object at 0x7fc75e0f6b30 -->
<g id="edge9" class="edge">
<title>ast.FunctionDef object at 0x7fc75e0f48e0&#45;&gt;ast.For object at 0x7fc75e0f6b30</title>
<path fill="none" stroke="black" d="M231.41,-647.7C237.94,-639.39 245.88,-629.28 253.06,-620.14"/>
<polygon fill="black" stroke="black" points="255.95,-622.13 259.38,-612.1 250.44,-617.81 255.95,-622.13"/>
</g>
<!-- ast.Return object at 0x7fc72d3b92a0 -->
<g id="node58" class="node">
<title>ast.Return object at 0x7fc72d3b92a0</title>
<path fill="#66cdaa" stroke="black" d="M450.81,-612C450.81,-612 420.81,-612 420.81,-612 414.81,-612 408.81,-606 408.81,-600 408.81,-600 408.81,-588 408.81,-588 408.81,-582 414.81,-576 420.81,-576 420.81,-576 450.81,-576 450.81,-576 456.81,-576 462.81,-582 462.81,-588 462.81,-588 462.81,-600 462.81,-600 462.81,-606 456.81,-612 450.81,-612"/>
<text text-anchor="middle" x="435.81" y="-590.3" font-family="Times,serif" font-size="14.00">Return</text>
</g>
<!-- ast.FunctionDef object at 0x7fc75e0f48e0&#45;&gt;ast.Return object at 0x7fc72d3b92a0 -->
<g id="edge81" class="edge">
<title>ast.FunctionDef object at 0x7fc75e0f48e0&#45;&gt;ast.Return object at 0x7fc72d3b92a0</title>
<path fill="none" stroke="black" d="M260.36,-651.34C300.63,-638.41 360.46,-619.2 398.8,-606.89"/>
<polygon fill="black" stroke="black" points="400.08,-610.15 408.53,-603.76 397.94,-603.48 400.08,-610.15"/>
</g>
<!-- ast.arg object at 0x7fc75e0f4130 -->
<g id="node4" class="node">
<title>ast.arg object at 0x7fc75e0f4130</title>
<path fill="#66cdaa" stroke="black" d="M140.81,-540C140.81,-540 110.81,-540 110.81,-540 104.81,-540 98.81,-534 98.81,-528 98.81,-528 98.81,-516 98.81,-516 98.81,-510 104.81,-504 110.81,-504 110.81,-504 140.81,-504 140.81,-504 146.81,-504 152.81,-510 152.81,-516 152.81,-516 152.81,-528 152.81,-528 152.81,-534 146.81,-540 140.81,-540"/>
<text text-anchor="middle" x="125.81" y="-518.3" font-family="Times,serif" font-size="14.00">arg</text>
</g>
<!-- ast.arguments object at 0x7fc75e0f7340&#45;&gt;ast.arg object at 0x7fc75e0f4130 -->
<g id="edge3" class="edge">
<title>ast.arguments object at 0x7fc75e0f7340&#45;&gt;ast.arg object at 0x7fc75e0f4130</title>
<path fill="none" stroke="black" d="M125.81,-575.7C125.81,-567.98 125.81,-558.71 125.81,-550.11"/>
<polygon fill="black" stroke="black" points="129.31,-550.1 125.81,-540.1 122.31,-550.1 129.31,-550.1"/>
</g>
<!-- ast.Name object at 0x7fc75e0f5390 -->
<g id="node6" class="node">
<title>ast.Name object at 0x7fc75e0f5390</title>
<path fill="#66cdaa" stroke="black" d="M184.81,-396C184.81,-396 154.81,-396 154.81,-396 148.81,-396 142.81,-390 142.81,-384 142.81,-384 142.81,-372 142.81,-372 142.81,-366 148.81,-360 154.81,-360 154.81,-360 184.81,-360 184.81,-360 190.81,-360 196.81,-366 196.81,-372 196.81,-372 196.81,-384 196.81,-384 196.81,-390 190.81,-396 184.81,-396"/>
<text text-anchor="middle" x="169.81" y="-374.3" font-family="Times,serif" font-size="14.00">Name</text>
</g>
<!-- ast.Assign object at 0x7fc75e0f6bc0&#45;&gt;ast.Name object at 0x7fc75e0f5390 -->
<g id="edge5" class="edge">
<title>ast.Assign object at 0x7fc75e0f6bc0&#45;&gt;ast.Name object at 0x7fc75e0f5390</title>
<path fill="none" stroke="black" d="M169.81,-431.7C169.81,-423.98 169.81,-414.71 169.81,-406.11"/>
<polygon fill="black" stroke="black" points="173.31,-406.1 169.81,-396.1 166.31,-406.1 173.31,-406.1"/>
</g>
<!-- ast.List object at 0x7fc75e0f44f0 -->
<g id="node8" class="node">
<title>ast.List object at 0x7fc75e0f44f0</title>
<path fill="#66cdaa" stroke="black" d="M46.81,-396C46.81,-396 16.81,-396 16.81,-396 10.81,-396 4.81,-390 4.81,-384 4.81,-384 4.81,-372 4.81,-372 4.81,-366 10.81,-360 16.81,-360 16.81,-360 46.81,-360 46.81,-360 52.81,-360 58.81,-366 58.81,-372 58.81,-372 58.81,-384 58.81,-384 58.81,-390 52.81,-396 46.81,-396"/>
<text text-anchor="middle" x="31.81" y="-374.3" font-family="Times,serif" font-size="14.00">List</text>
</g>
<!-- ast.Assign object at 0x7fc75e0f6bc0&#45;&gt;ast.List object at 0x7fc75e0f44f0 -->
<g id="edge7" class="edge">
<title>ast.Assign object at 0x7fc75e0f6bc0&#45;&gt;ast.List object at 0x7fc75e0f44f0</title>
<path fill="none" stroke="black" d="M142.55,-435.17C121.29,-424.38 91.55,-409.3 68.25,-397.48"/>
<polygon fill="black" stroke="black" points="69.52,-394.2 59.02,-392.8 66.36,-400.45 69.52,-394.2"/>
</g>
<!-- ast.Store object at 0x7fc763fedfc0 -->
<g id="node7" class="node">
<title>ast.Store object at 0x7fc763fedfc0</title>
<path fill="#66cdaa" stroke="black" d="M249.81,-324C249.81,-324 219.81,-324 219.81,-324 213.81,-324 207.81,-318 207.81,-312 207.81,-312 207.81,-300 207.81,-300 207.81,-294 213.81,-288 219.81,-288 219.81,-288 249.81,-288 249.81,-288 255.81,-288 261.81,-294 261.81,-300 261.81,-300 261.81,-312 261.81,-312 261.81,-318 255.81,-324 249.81,-324"/>
<text text-anchor="middle" x="234.81" y="-302.3" font-family="Times,serif" font-size="14.00">Store</text>
</g>
<!-- ast.Name object at 0x7fc75e0f5390&#45;&gt;ast.Store object at 0x7fc763fedfc0 -->
<g id="edge6" class="edge">
<title>ast.Name object at 0x7fc75e0f5390&#45;&gt;ast.Store object at 0x7fc763fedfc0</title>
<path fill="none" stroke="black" d="M185.88,-359.7C193.75,-351.22 203.37,-340.86 211.99,-331.58"/>
<polygon fill="black" stroke="black" points="214.69,-333.81 218.93,-324.1 209.56,-329.05 214.69,-333.81"/>
</g>
<!-- ast.Load object at 0x7fc763fedf60 -->
<g id="node9" class="node">
<title>ast.Load object at 0x7fc763fedf60</title>
<path fill="#66cdaa" stroke="black" d="M618.81,-36C618.81,-36 588.81,-36 588.81,-36 582.81,-36 576.81,-30 576.81,-24 576.81,-24 576.81,-12 576.81,-12 576.81,-6 582.81,0 588.81,0 588.81,0 618.81,0 618.81,0 624.81,0 630.81,-6 630.81,-12 630.81,-12 630.81,-24 630.81,-24 630.81,-30 624.81,-36 618.81,-36"/>
<text text-anchor="middle" x="603.81" y="-14.3" font-family="Times,serif" font-size="14.00">Load</text>
</g>
<!-- ast.List object at 0x7fc75e0f44f0&#45;&gt;ast.Load object at 0x7fc763fedf60 -->
<g id="edge8" class="edge">
<title>ast.List object at 0x7fc75e0f44f0&#45;&gt;ast.Load object at 0x7fc763fedf60</title>
<path fill="none" stroke="black" d="M25.95,-359.74C17.47,-333.25 2.81,-280.79 2.81,-235 2.81,-235 2.81,-235 2.81,-161 2.81,-120.55 -8.44,-98.84 21.81,-72 62.52,-35.89 443.7,-23.08 566.14,-19.88"/>
<polygon fill="black" stroke="black" points="566.6,-23.37 576.5,-19.62 566.42,-16.37 566.6,-23.37"/>
</g>
<!-- ast.Name object at 0x7fc75e0f4c10 -->
<g id="node11" class="node">
<title>ast.Name object at 0x7fc75e0f4c10</title>
<path fill="#66cdaa" stroke="black" d="M260.81,-540C260.81,-540 230.81,-540 230.81,-540 224.81,-540 218.81,-534 218.81,-528 218.81,-528 218.81,-516 218.81,-516 218.81,-510 224.81,-504 230.81,-504 230.81,-504 260.81,-504 260.81,-504 266.81,-504 272.81,-510 272.81,-516 272.81,-516 272.81,-528 272.81,-528 272.81,-534 266.81,-540 260.81,-540"/>
<text text-anchor="middle" x="245.81" y="-518.3" font-family="Times,serif" font-size="14.00">Name</text>
</g>
<!-- ast.For object at 0x7fc75e0f6b30&#45;&gt;ast.Name object at 0x7fc75e0f4c10 -->
<g id="edge10" class="edge">
<title>ast.For object at 0x7fc75e0f6b30&#45;&gt;ast.Name object at 0x7fc75e0f4c10</title>
<path fill="none" stroke="black" d="M266.14,-575.7C263.1,-567.81 259.43,-558.3 256.05,-549.55"/>
<polygon fill="black" stroke="black" points="259.28,-548.17 252.41,-540.1 252.74,-550.69 259.28,-548.17"/>
</g>
<!-- ast.Call object at 0x7fc75e0f5b70 -->
<g id="node12" class="node">
<title>ast.Call object at 0x7fc75e0f5b70</title>
<path fill="#66cdaa" stroke="black" d="M181.81,-252C181.81,-252 151.81,-252 151.81,-252 145.81,-252 139.81,-246 139.81,-240 139.81,-240 139.81,-228 139.81,-228 139.81,-222 145.81,-216 151.81,-216 151.81,-216 181.81,-216 181.81,-216 187.81,-216 193.81,-222 193.81,-228 193.81,-228 193.81,-240 193.81,-240 193.81,-246 187.81,-252 181.81,-252"/>
<text text-anchor="middle" x="166.81" y="-230.3" font-family="Times,serif" font-size="14.00">Call</text>
</g>
<!-- ast.For object at 0x7fc75e0f6b30&#45;&gt;ast.Call object at 0x7fc75e0f5b70 -->
<g id="edge12" class="edge">
<title>ast.For object at 0x7fc75e0f6b30&#45;&gt;ast.Call object at 0x7fc75e0f5b70</title>
<path fill="none" stroke="black" d="M278.48,-575.73C286.66,-549.21 300.81,-496.73 300.81,-451 300.81,-451 300.81,-451 300.81,-377 300.81,-335.26 298.1,-319.59 270.81,-288 253.16,-267.56 225.7,-254.04 203.43,-245.77"/>
<polygon fill="black" stroke="black" points="204.53,-242.44 193.93,-242.44 202.21,-249.05 204.53,-242.44"/>
</g>
<!-- ast.For object at 0x7fc75e0f5ff0 -->
<g id="node17" class="node">
<title>ast.For object at 0x7fc75e0f5ff0</title>
<path fill="#66cdaa" stroke="black" d="M442.81,-540C442.81,-540 412.81,-540 412.81,-540 406.81,-540 400.81,-534 400.81,-528 400.81,-528 400.81,-516 400.81,-516 400.81,-510 406.81,-504 412.81,-504 412.81,-504 442.81,-504 442.81,-504 448.81,-504 454.81,-510 454.81,-516 454.81,-516 454.81,-528 454.81,-528 454.81,-534 448.81,-540 442.81,-540"/>
<text text-anchor="middle" x="427.81" y="-518.3" font-family="Times,serif" font-size="14.00">For</text>
</g>
<!-- ast.For object at 0x7fc75e0f6b30&#45;&gt;ast.For object at 0x7fc75e0f5ff0 -->
<g id="edge20" class="edge">
<title>ast.For object at 0x7fc75e0f6b30&#45;&gt;ast.For object at 0x7fc75e0f5ff0</title>
<path fill="none" stroke="black" d="M300.17,-580.65C325.51,-569.2 363.4,-552.09 391.31,-539.49"/>
<polygon fill="black" stroke="black" points="393.06,-542.54 400.73,-535.23 390.18,-536.16 393.06,-542.54"/>
</g>
<!-- ast.Name object at 0x7fc75e0f4c10&#45;&gt;ast.Store object at 0x7fc763fedfc0 -->
<g id="edge11" class="edge">
<title>ast.Name object at 0x7fc75e0f4c10&#45;&gt;ast.Store object at 0x7fc763fedfc0</title>
<path fill="none" stroke="black" d="M244.93,-503.85C243.03,-466.83 238.52,-379.18 236.22,-334.39"/>
<polygon fill="black" stroke="black" points="239.71,-334.04 235.7,-324.23 232.72,-334.4 239.71,-334.04"/>
</g>
<!-- ast.Name object at 0x7fc75e0f68f0 -->
<g id="node13" class="node">
<title>ast.Name object at 0x7fc75e0f68f0</title>
<path fill="#66cdaa" stroke="black" d="M72.81,-108C72.81,-108 42.81,-108 42.81,-108 36.81,-108 30.81,-102 30.81,-96 30.81,-96 30.81,-84 30.81,-84 30.81,-78 36.81,-72 42.81,-72 42.81,-72 72.81,-72 72.81,-72 78.81,-72 84.81,-78 84.81,-84 84.81,-84 84.81,-96 84.81,-96 84.81,-102 78.81,-108 72.81,-108"/>
<text text-anchor="middle" x="57.81" y="-86.3" font-family="Times,serif" font-size="14.00">Name</text>
</g>
<!-- ast.Call object at 0x7fc75e0f5b70&#45;&gt;ast.Name object at 0x7fc75e0f68f0 -->
<g id="edge13" class="edge">
<title>ast.Call object at 0x7fc75e0f5b70&#45;&gt;ast.Name object at 0x7fc75e0f68f0</title>
<path fill="none" stroke="black" d="M153.67,-215.87C134.6,-191.03 99.15,-144.85 77.11,-116.14"/>
<polygon fill="black" stroke="black" points="79.87,-113.99 71.01,-108.19 74.32,-118.25 79.87,-113.99"/>
</g>
<!-- ast.Call object at 0x7fc75e0f5360 -->
<g id="node14" class="node">
<title>ast.Call object at 0x7fc75e0f5360</title>
<path fill="#66cdaa" stroke="black" d="M181.81,-180C181.81,-180 151.81,-180 151.81,-180 145.81,-180 139.81,-174 139.81,-168 139.81,-168 139.81,-156 139.81,-156 139.81,-150 145.81,-144 151.81,-144 151.81,-144 181.81,-144 181.81,-144 187.81,-144 193.81,-150 193.81,-156 193.81,-156 193.81,-168 193.81,-168 193.81,-174 187.81,-180 181.81,-180"/>
<text text-anchor="middle" x="166.81" y="-158.3" font-family="Times,serif" font-size="14.00">Call</text>
</g>
<!-- ast.Call object at 0x7fc75e0f5b70&#45;&gt;ast.Call object at 0x7fc75e0f5360 -->
<g id="edge15" class="edge">
<title>ast.Call object at 0x7fc75e0f5b70&#45;&gt;ast.Call object at 0x7fc75e0f5360</title>
<path fill="none" stroke="black" d="M166.81,-215.7C166.81,-207.98 166.81,-198.71 166.81,-190.11"/>
<polygon fill="black" stroke="black" points="170.31,-190.1 166.81,-180.1 163.31,-190.1 170.31,-190.1"/>
</g>
<!-- ast.Name object at 0x7fc75e0f68f0&#45;&gt;ast.Load object at 0x7fc763fedf60 -->
<g id="edge14" class="edge">
<title>ast.Name object at 0x7fc75e0f68f0&#45;&gt;ast.Load object at 0x7fc763fedf60</title>
<path fill="none" stroke="black" d="M84.96,-75.02C87.9,-73.86 90.89,-72.82 93.81,-72 265.66,-24 481.03,-18.67 566.44,-18.62"/>
<polygon fill="black" stroke="black" points="566.67,-22.12 576.67,-18.64 566.68,-15.12 566.67,-22.12"/>
</g>
<!-- ast.Name object at 0x7fc75e0f66e0 -->
<g id="node15" class="node">
<title>ast.Name object at 0x7fc75e0f66e0</title>
<path fill="#66cdaa" stroke="black" d="M216.81,-108C216.81,-108 186.81,-108 186.81,-108 180.81,-108 174.81,-102 174.81,-96 174.81,-96 174.81,-84 174.81,-84 174.81,-78 180.81,-72 186.81,-72 186.81,-72 216.81,-72 216.81,-72 222.81,-72 228.81,-78 228.81,-84 228.81,-84 228.81,-96 228.81,-96 228.81,-102 222.81,-108 216.81,-108"/>
<text text-anchor="middle" x="201.81" y="-86.3" font-family="Times,serif" font-size="14.00">Name</text>
</g>
<!-- ast.Call object at 0x7fc75e0f5360&#45;&gt;ast.Name object at 0x7fc75e0f66e0 -->
<g id="edge16" class="edge">
<title>ast.Call object at 0x7fc75e0f5360&#45;&gt;ast.Name object at 0x7fc75e0f66e0</title>
<path fill="none" stroke="black" d="M175.47,-143.7C179.45,-135.73 184.26,-126.1 188.68,-117.26"/>
<polygon fill="black" stroke="black" points="191.92,-118.61 193.26,-108.1 185.66,-115.48 191.92,-118.61"/>
</g>
<!-- ast.Name object at 0x7fc75e0f5060 -->
<g id="node16" class="node">
<title>ast.Name object at 0x7fc75e0f5060</title>
<path fill="#66cdaa" stroke="black" d="M144.81,-108C144.81,-108 114.81,-108 114.81,-108 108.81,-108 102.81,-102 102.81,-96 102.81,-96 102.81,-84 102.81,-84 102.81,-78 108.81,-72 114.81,-72 114.81,-72 144.81,-72 144.81,-72 150.81,-72 156.81,-78 156.81,-84 156.81,-84 156.81,-96 156.81,-96 156.81,-102 150.81,-108 144.81,-108"/>
<text text-anchor="middle" x="129.81" y="-86.3" font-family="Times,serif" font-size="14.00">Name</text>
</g>
<!-- ast.Call object at 0x7fc75e0f5360&#45;&gt;ast.Name object at 0x7fc75e0f5060 -->
<g id="edge18" class="edge">
<title>ast.Call object at 0x7fc75e0f5360&#45;&gt;ast.Name object at 0x7fc75e0f5060</title>
<path fill="none" stroke="black" d="M157.67,-143.7C153.41,-135.64 148.26,-125.89 143.55,-116.98"/>
<polygon fill="black" stroke="black" points="146.62,-115.31 138.86,-108.1 140.43,-118.58 146.62,-115.31"/>
</g>
<!-- ast.Name object at 0x7fc75e0f66e0&#45;&gt;ast.Load object at 0x7fc763fedf60 -->
<g id="edge17" class="edge">
<title>ast.Name object at 0x7fc75e0f66e0&#45;&gt;ast.Load object at 0x7fc763fedf60</title>
<path fill="none" stroke="black" d="M228.83,-76.7C233.43,-74.92 238.21,-73.27 242.81,-72 358.21,-40.14 499.96,-26.43 566.27,-21.44"/>
<polygon fill="black" stroke="black" points="566.9,-24.91 576.62,-20.69 566.4,-17.93 566.9,-24.91"/>
</g>
<!-- ast.Name object at 0x7fc75e0f5060&#45;&gt;ast.Load object at 0x7fc763fedf60 -->
<g id="edge19" class="edge">
<title>ast.Name object at 0x7fc75e0f5060&#45;&gt;ast.Load object at 0x7fc763fedf60</title>
<path fill="none" stroke="black" d="M156.98,-75.07C159.91,-73.9 162.89,-72.84 165.81,-72 310.09,-30.39 490.23,-21.43 566.72,-19.51"/>
<polygon fill="black" stroke="black" points="566.89,-23.01 576.81,-19.29 566.73,-16.01 566.89,-23.01"/>
</g>
<!-- ast.Name object at 0x7fc75e0f45b0 -->
<g id="node18" class="node">
<title>ast.Name object at 0x7fc75e0f45b0</title>
<path fill="#66cdaa" stroke="black" d="M370.81,-468C370.81,-468 340.81,-468 340.81,-468 334.81,-468 328.81,-462 328.81,-456 328.81,-456 328.81,-444 328.81,-444 328.81,-438 334.81,-432 340.81,-432 340.81,-432 370.81,-432 370.81,-432 376.81,-432 382.81,-438 382.81,-444 382.81,-444 382.81,-456 382.81,-456 382.81,-462 376.81,-468 370.81,-468"/>
<text text-anchor="middle" x="355.81" y="-446.3" font-family="Times,serif" font-size="14.00">Name</text>
</g>
<!-- ast.For object at 0x7fc75e0f5ff0&#45;&gt;ast.Name object at 0x7fc75e0f45b0 -->
<g id="edge21" class="edge">
<title>ast.For object at 0x7fc75e0f5ff0&#45;&gt;ast.Name object at 0x7fc75e0f45b0</title>
<path fill="none" stroke="black" d="M410.02,-503.7C401.21,-495.14 390.43,-484.66 380.81,-475.3"/>
<polygon fill="black" stroke="black" points="383.02,-472.57 373.41,-468.1 378.14,-477.58 383.02,-472.57"/>
</g>
<!-- ast.Call object at 0x7fc75e0f5120 -->
<g id="node19" class="node">
<title>ast.Call object at 0x7fc75e0f5120</title>
<path fill="#66cdaa" stroke="black" d="M499.81,-324C499.81,-324 469.81,-324 469.81,-324 463.81,-324 457.81,-318 457.81,-312 457.81,-312 457.81,-300 457.81,-300 457.81,-294 463.81,-288 469.81,-288 469.81,-288 499.81,-288 499.81,-288 505.81,-288 511.81,-294 511.81,-300 511.81,-300 511.81,-312 511.81,-312 511.81,-318 505.81,-324 499.81,-324"/>
<text text-anchor="middle" x="484.81" y="-302.3" font-family="Times,serif" font-size="14.00">Call</text>
</g>
<!-- ast.For object at 0x7fc75e0f5ff0&#45;&gt;ast.Call object at 0x7fc75e0f5120 -->
<g id="edge23" class="edge">
<title>ast.For object at 0x7fc75e0f5ff0&#45;&gt;ast.Call object at 0x7fc75e0f5120</title>
<path fill="none" stroke="black" d="M442.75,-503.54C450.31,-493.73 458.91,-480.89 463.81,-468 480.82,-423.26 484.5,-367.04 485.06,-334.25"/>
<polygon fill="black" stroke="black" points="488.56,-334.11 485.14,-324.08 481.56,-334.05 488.56,-334.11"/>
</g>
<!-- ast.Assign object at 0x7fc75e0f57e0 -->
<g id="node30" class="node">
<title>ast.Assign object at 0x7fc75e0f57e0</title>
<path fill="#66cdaa" stroke="black" d="M442.81,-468C442.81,-468 412.81,-468 412.81,-468 406.81,-468 400.81,-462 400.81,-456 400.81,-456 400.81,-444 400.81,-444 400.81,-438 406.81,-432 412.81,-432 412.81,-432 442.81,-432 442.81,-432 448.81,-432 454.81,-438 454.81,-444 454.81,-444 454.81,-456 454.81,-456 454.81,-462 448.81,-468 442.81,-468"/>
<text text-anchor="middle" x="427.81" y="-446.3" font-family="Times,serif" font-size="14.00">Assign</text>
</g>
<!-- ast.For object at 0x7fc75e0f5ff0&#45;&gt;ast.Assign object at 0x7fc75e0f57e0 -->
<g id="edge39" class="edge">
<title>ast.For object at 0x7fc75e0f5ff0&#45;&gt;ast.Assign object at 0x7fc75e0f57e0</title>
<path fill="none" stroke="black" d="M427.81,-503.7C427.81,-495.98 427.81,-486.71 427.81,-478.11"/>
<polygon fill="black" stroke="black" points="431.31,-478.1 427.81,-468.1 424.31,-478.1 431.31,-478.1"/>
</g>
<!-- ast.If object at 0x7fc72d3b9270 -->
<g id="node37" class="node">
<title>ast.If object at 0x7fc72d3b9270</title>
<path fill="#66cdaa" stroke="black" d="M843.81,-468C843.81,-468 813.81,-468 813.81,-468 807.81,-468 801.81,-462 801.81,-456 801.81,-456 801.81,-444 801.81,-444 801.81,-438 807.81,-432 813.81,-432 813.81,-432 843.81,-432 843.81,-432 849.81,-432 855.81,-438 855.81,-444 855.81,-444 855.81,-456 855.81,-456 855.81,-462 849.81,-468 843.81,-468"/>
<text text-anchor="middle" x="828.81" y="-446.3" font-family="Times,serif" font-size="14.00">If</text>
</g>
<!-- ast.For object at 0x7fc75e0f5ff0&#45;&gt;ast.If object at 0x7fc72d3b9270 -->
<g id="edge51" class="edge">
<title>ast.For object at 0x7fc75e0f5ff0&#45;&gt;ast.If object at 0x7fc72d3b9270</title>
<path fill="none" stroke="black" d="M455.06,-516.24C525.16,-504.01 711.82,-471.42 791.7,-457.48"/>
<polygon fill="black" stroke="black" points="792.54,-460.88 801.79,-455.72 791.34,-453.99 792.54,-460.88"/>
</g>
<!-- ast.Name object at 0x7fc75e0f45b0&#45;&gt;ast.Store object at 0x7fc763fedfc0 -->
<g id="edge22" class="edge">
<title>ast.Name object at 0x7fc75e0f45b0&#45;&gt;ast.Store object at 0x7fc763fedfc0</title>
<path fill="none" stroke="black" d="M341.22,-431.87C320.05,-407.03 280.7,-360.85 256.24,-332.14"/>
<polygon fill="black" stroke="black" points="258.61,-329.53 249.46,-324.19 253.28,-334.07 258.61,-329.53"/>
</g>
<!-- ast.Name object at 0x7fc75e0f4400 -->
<g id="node20" class="node">
<title>ast.Name object at 0x7fc75e0f4400</title>
<path fill="#66cdaa" stroke="black" d="M443.81,-252C443.81,-252 413.81,-252 413.81,-252 407.81,-252 401.81,-246 401.81,-240 401.81,-240 401.81,-228 401.81,-228 401.81,-222 407.81,-216 413.81,-216 413.81,-216 443.81,-216 443.81,-216 449.81,-216 455.81,-222 455.81,-228 455.81,-228 455.81,-240 455.81,-240 455.81,-246 449.81,-252 443.81,-252"/>
<text text-anchor="middle" x="428.81" y="-230.3" font-family="Times,serif" font-size="14.00">Name</text>
</g>
<!-- ast.Call object at 0x7fc75e0f5120&#45;&gt;ast.Name object at 0x7fc75e0f4400 -->
<g id="edge24" class="edge">
<title>ast.Call object at 0x7fc75e0f5120&#45;&gt;ast.Name object at 0x7fc75e0f4400</title>
<path fill="none" stroke="black" d="M470.97,-287.7C464.33,-279.39 456.24,-269.28 448.93,-260.14"/>
<polygon fill="black" stroke="black" points="451.48,-257.73 442.5,-252.1 446.01,-262.1 451.48,-257.73"/>
</g>
<!-- ast.BinOp object at 0x7fc75e0f6aa0 -->
<g id="node21" class="node">
<title>ast.BinOp object at 0x7fc75e0f6aa0</title>
<path fill="#66cdaa" stroke="black" d="M528.81,-252C528.81,-252 498.81,-252 498.81,-252 492.81,-252 486.81,-246 486.81,-240 486.81,-240 486.81,-228 486.81,-228 486.81,-222 492.81,-216 498.81,-216 498.81,-216 528.81,-216 528.81,-216 534.81,-216 540.81,-222 540.81,-228 540.81,-228 540.81,-240 540.81,-240 540.81,-246 534.81,-252 528.81,-252"/>
<text text-anchor="middle" x="513.81" y="-230.3" font-family="Times,serif" font-size="14.00">BinOp</text>
</g>
<!-- ast.Call object at 0x7fc75e0f5120&#45;&gt;ast.BinOp object at 0x7fc75e0f6aa0 -->
<g id="edge26" class="edge">
<title>ast.Call object at 0x7fc75e0f5120&#45;&gt;ast.BinOp object at 0x7fc75e0f6aa0</title>
<path fill="none" stroke="black" d="M491.98,-287.7C495.25,-279.81 499.19,-270.3 502.82,-261.55"/>
<polygon fill="black" stroke="black" points="506.13,-262.68 506.73,-252.1 499.67,-260 506.13,-262.68"/>
</g>
<!-- ast.BinOp object at 0x7fc75e0f7a90 -->
<g id="node25" class="node">
<title>ast.BinOp object at 0x7fc75e0f7a90</title>
<path fill="#66cdaa" stroke="black" d="M649.81,-252C649.81,-252 619.81,-252 619.81,-252 613.81,-252 607.81,-246 607.81,-240 607.81,-240 607.81,-228 607.81,-228 607.81,-222 613.81,-216 619.81,-216 619.81,-216 649.81,-216 649.81,-216 655.81,-216 661.81,-222 661.81,-228 661.81,-228 661.81,-240 661.81,-240 661.81,-246 655.81,-252 649.81,-252"/>
<text text-anchor="middle" x="634.81" y="-230.3" font-family="Times,serif" font-size="14.00">BinOp</text>
</g>
<!-- ast.Call object at 0x7fc75e0f5120&#45;&gt;ast.BinOp object at 0x7fc75e0f7a90 -->
<g id="edge31" class="edge">
<title>ast.Call object at 0x7fc75e0f5120&#45;&gt;ast.BinOp object at 0x7fc75e0f7a90</title>
<path fill="none" stroke="black" d="M511.98,-292.32C536.11,-281.06 571.6,-264.5 598.23,-252.07"/>
<polygon fill="black" stroke="black" points="600.02,-255.1 607.6,-247.7 597.06,-248.76 600.02,-255.1"/>
</g>
<!-- ast.Name object at 0x7fc75e0f4400&#45;&gt;ast.Load object at 0x7fc763fedf60 -->
<g id="edge25" class="edge">
<title>ast.Name object at 0x7fc75e0f4400&#45;&gt;ast.Load object at 0x7fc763fedf60</title>
<path fill="none" stroke="black" d="M431.82,-215.79C438.22,-183.74 456,-114.35 495.81,-72 515.09,-51.49 544,-37.89 567.05,-29.61"/>
<polygon fill="black" stroke="black" points="568.2,-32.91 576.53,-26.38 565.94,-26.29 568.2,-32.91"/>
</g>
<!-- ast.Name object at 0x7fc75e0f5bd0 -->
<g id="node22" class="node">
<title>ast.Name object at 0x7fc75e0f5bd0</title>
<path fill="#66cdaa" stroke="black" d="M546.81,-108C546.81,-108 516.81,-108 516.81,-108 510.81,-108 504.81,-102 504.81,-96 504.81,-96 504.81,-84 504.81,-84 504.81,-78 510.81,-72 516.81,-72 516.81,-72 546.81,-72 546.81,-72 552.81,-72 558.81,-78 558.81,-84 558.81,-84 558.81,-96 558.81,-96 558.81,-102 552.81,-108 546.81,-108"/>
<text text-anchor="middle" x="531.81" y="-86.3" font-family="Times,serif" font-size="14.00">Name</text>
</g>
<!-- ast.BinOp object at 0x7fc75e0f6aa0&#45;&gt;ast.Name object at 0x7fc75e0f5bd0 -->
<g id="edge27" class="edge">
<title>ast.BinOp object at 0x7fc75e0f6aa0&#45;&gt;ast.Name object at 0x7fc75e0f5bd0</title>
<path fill="none" stroke="black" d="M498.63,-215.7C491.08,-205.94 482.75,-193.1 478.81,-180 474.21,-164.68 472.69,-158.78 478.81,-144 483.36,-133.03 491.4,-123.14 499.87,-114.96"/>
<polygon fill="black" stroke="black" points="502.25,-117.53 507.34,-108.23 497.57,-112.33 502.25,-117.53"/>
</g>
<!-- ast.Add object at 0x7fc763fee1a0 -->
<g id="node23" class="node">
<title>ast.Add object at 0x7fc763fee1a0</title>
<path fill="#66cdaa" stroke="black" d="M613.81,-180C613.81,-180 583.81,-180 583.81,-180 577.81,-180 571.81,-174 571.81,-168 571.81,-168 571.81,-156 571.81,-156 571.81,-150 577.81,-144 583.81,-144 583.81,-144 613.81,-144 613.81,-144 619.81,-144 625.81,-150 625.81,-156 625.81,-156 625.81,-168 625.81,-168 625.81,-174 619.81,-180 613.81,-180"/>
<text text-anchor="middle" x="598.81" y="-158.3" font-family="Times,serif" font-size="14.00">Add</text>
</g>
<!-- ast.BinOp object at 0x7fc75e0f6aa0&#45;&gt;ast.Add object at 0x7fc763fee1a0 -->
<g id="edge29" class="edge">
<title>ast.BinOp object at 0x7fc75e0f6aa0&#45;&gt;ast.Add object at 0x7fc763fee1a0</title>
<path fill="none" stroke="black" d="M534.83,-215.7C545.53,-206.88 558.7,-196.03 570.31,-186.47"/>
<polygon fill="black" stroke="black" points="572.55,-189.16 578.04,-180.1 568.1,-183.76 572.55,-189.16"/>
</g>
<!-- ast.Constant object at 0x7fc75e0f5e40 -->
<g id="node24" class="node">
<title>ast.Constant object at 0x7fc75e0f5e40</title>
<path fill="#66cdaa" stroke="black" d="M541.31,-180C541.31,-180 500.31,-180 500.31,-180 494.31,-180 488.31,-174 488.31,-168 488.31,-168 488.31,-156 488.31,-156 488.31,-150 494.31,-144 500.31,-144 500.31,-144 541.31,-144 541.31,-144 547.31,-144 553.31,-150 553.31,-156 553.31,-156 553.31,-168 553.31,-168 553.31,-174 547.31,-180 541.31,-180"/>
<text text-anchor="middle" x="520.81" y="-158.3" font-family="Times,serif" font-size="14.00">Constant</text>
</g>
<!-- ast.BinOp object at 0x7fc75e0f6aa0&#45;&gt;ast.Constant object at 0x7fc75e0f5e40 -->
<g id="edge30" class="edge">
<title>ast.BinOp object at 0x7fc75e0f6aa0&#45;&gt;ast.Constant object at 0x7fc75e0f5e40</title>
<path fill="none" stroke="black" d="M515.54,-215.7C516.32,-207.98 517.24,-198.71 518.1,-190.11"/>
<polygon fill="black" stroke="black" points="521.59,-190.4 519.1,-180.1 514.63,-189.71 521.59,-190.4"/>
</g>
<!-- ast.Name object at 0x7fc75e0f5bd0&#45;&gt;ast.Load object at 0x7fc763fedf60 -->
<g id="edge28" class="edge">
<title>ast.Name object at 0x7fc75e0f5bd0&#45;&gt;ast.Load object at 0x7fc763fedf60</title>
<path fill="none" stroke="black" d="M549.61,-71.7C558.42,-63.14 569.2,-52.66 578.82,-43.3"/>
<polygon fill="black" stroke="black" points="581.49,-45.58 586.22,-36.1 576.61,-40.57 581.49,-45.58"/>
</g>
<!-- ast.BinOp object at 0x7fc75e0f7a90&#45;&gt;ast.Add object at 0x7fc763fee1a0 -->
<g id="edge37" class="edge">
<title>ast.BinOp object at 0x7fc75e0f7a90&#45;&gt;ast.Add object at 0x7fc763fee1a0</title>
<path fill="none" stroke="black" d="M625.92,-215.7C621.82,-207.73 616.87,-198.1 612.32,-189.26"/>
<polygon fill="black" stroke="black" points="615.3,-187.4 607.61,-180.1 609.07,-190.6 615.3,-187.4"/>
</g>
<!-- ast.Call object at 0x7fc75e0f7490 -->
<g id="node26" class="node">
<title>ast.Call object at 0x7fc75e0f7490</title>
<path fill="#66cdaa" stroke="black" d="M685.81,-180C685.81,-180 655.81,-180 655.81,-180 649.81,-180 643.81,-174 643.81,-168 643.81,-168 643.81,-156 643.81,-156 643.81,-150 649.81,-144 655.81,-144 655.81,-144 685.81,-144 685.81,-144 691.81,-144 697.81,-150 697.81,-156 697.81,-156 697.81,-168 697.81,-168 697.81,-174 691.81,-180 685.81,-180"/>
<text text-anchor="middle" x="670.81" y="-158.3" font-family="Times,serif" font-size="14.00">Call</text>
</g>
<!-- ast.BinOp object at 0x7fc75e0f7a90&#45;&gt;ast.Call object at 0x7fc75e0f7490 -->
<g id="edge32" class="edge">
<title>ast.BinOp object at 0x7fc75e0f7a90&#45;&gt;ast.Call object at 0x7fc75e0f7490</title>
<path fill="none" stroke="black" d="M643.71,-215.7C647.81,-207.73 652.76,-198.1 657.31,-189.26"/>
<polygon fill="black" stroke="black" points="660.56,-190.6 662.02,-180.1 654.33,-187.4 660.56,-190.6"/>
</g>
<!-- ast.Constant object at 0x7fc75e0f56f0 -->
<g id="node29" class="node">
<title>ast.Constant object at 0x7fc75e0f56f0</title>
<path fill="#66cdaa" stroke="black" d="M769.31,-180C769.31,-180 728.31,-180 728.31,-180 722.31,-180 716.31,-174 716.31,-168 716.31,-168 716.31,-156 716.31,-156 716.31,-150 722.31,-144 728.31,-144 728.31,-144 769.31,-144 769.31,-144 775.31,-144 781.31,-150 781.31,-156 781.31,-156 781.31,-168 781.31,-168 781.31,-174 775.31,-180 769.31,-180"/>
<text text-anchor="middle" x="748.81" y="-158.3" font-family="Times,serif" font-size="14.00">Constant</text>
</g>
<!-- ast.BinOp object at 0x7fc75e0f7a90&#45;&gt;ast.Constant object at 0x7fc75e0f56f0 -->
<g id="edge38" class="edge">
<title>ast.BinOp object at 0x7fc75e0f7a90&#45;&gt;ast.Constant object at 0x7fc75e0f56f0</title>
<path fill="none" stroke="black" d="M661.83,-216.41C676.83,-207.2 695.7,-195.61 712.03,-185.59"/>
<polygon fill="black" stroke="black" points="714.11,-188.42 720.8,-180.2 710.45,-182.45 714.11,-188.42"/>
</g>
<!-- ast.Name object at 0x7fc75e0f7100 -->
<g id="node27" class="node">
<title>ast.Name object at 0x7fc75e0f7100</title>
<path fill="#66cdaa" stroke="black" d="M690.81,-108C690.81,-108 660.81,-108 660.81,-108 654.81,-108 648.81,-102 648.81,-96 648.81,-96 648.81,-84 648.81,-84 648.81,-78 654.81,-72 660.81,-72 660.81,-72 690.81,-72 690.81,-72 696.81,-72 702.81,-78 702.81,-84 702.81,-84 702.81,-96 702.81,-96 702.81,-102 696.81,-108 690.81,-108"/>
<text text-anchor="middle" x="675.81" y="-86.3" font-family="Times,serif" font-size="14.00">Name</text>
</g>
<!-- ast.Call object at 0x7fc75e0f7490&#45;&gt;ast.Name object at 0x7fc75e0f7100 -->
<g id="edge33" class="edge">
<title>ast.Call object at 0x7fc75e0f7490&#45;&gt;ast.Name object at 0x7fc75e0f7100</title>
<path fill="none" stroke="black" d="M672.05,-143.7C672.6,-135.98 673.26,-126.71 673.88,-118.11"/>
<polygon fill="black" stroke="black" points="677.37,-118.33 674.59,-108.1 670.39,-117.83 677.37,-118.33"/>
</g>
<!-- ast.Name object at 0x7fc75e0f70a0 -->
<g id="node28" class="node">
<title>ast.Name object at 0x7fc75e0f70a0</title>
<path fill="#66cdaa" stroke="black" d="M618.81,-108C618.81,-108 588.81,-108 588.81,-108 582.81,-108 576.81,-102 576.81,-96 576.81,-96 576.81,-84 576.81,-84 576.81,-78 582.81,-72 588.81,-72 588.81,-72 618.81,-72 618.81,-72 624.81,-72 630.81,-78 630.81,-84 630.81,-84 630.81,-96 630.81,-96 630.81,-102 624.81,-108 618.81,-108"/>
<text text-anchor="middle" x="603.81" y="-86.3" font-family="Times,serif" font-size="14.00">Name</text>
</g>
<!-- ast.Call object at 0x7fc75e0f7490&#45;&gt;ast.Name object at 0x7fc75e0f70a0 -->
<g id="edge35" class="edge">
<title>ast.Call object at 0x7fc75e0f7490&#45;&gt;ast.Name object at 0x7fc75e0f70a0</title>
<path fill="none" stroke="black" d="M654.25,-143.7C646.14,-135.22 636.23,-124.86 627.34,-115.58"/>
<polygon fill="black" stroke="black" points="629.63,-112.91 620.19,-108.1 624.57,-117.75 629.63,-112.91"/>
</g>
<!-- ast.Name object at 0x7fc75e0f7100&#45;&gt;ast.Load object at 0x7fc763fedf60 -->
<g id="edge34" class="edge">
<title>ast.Name object at 0x7fc75e0f7100&#45;&gt;ast.Load object at 0x7fc763fedf60</title>
<path fill="none" stroke="black" d="M658.02,-71.7C649.21,-63.14 638.43,-52.66 628.81,-43.3"/>
<polygon fill="black" stroke="black" points="631.02,-40.57 621.41,-36.1 626.14,-45.58 631.02,-40.57"/>
</g>
<!-- ast.Name object at 0x7fc75e0f70a0&#45;&gt;ast.Load object at 0x7fc763fedf60 -->
<g id="edge36" class="edge">
<title>ast.Name object at 0x7fc75e0f70a0&#45;&gt;ast.Load object at 0x7fc763fedf60</title>
<path fill="none" stroke="black" d="M603.81,-71.7C603.81,-63.98 603.81,-54.71 603.81,-46.11"/>
<polygon fill="black" stroke="black" points="607.31,-46.1 603.81,-36.1 600.31,-46.1 607.31,-46.1"/>
</g>
<!-- ast.Name object at 0x7fc75e0f6f20 -->
<g id="node31" class="node">
<title>ast.Name object at 0x7fc75e0f6f20</title>
<path fill="#66cdaa" stroke="black" d="M377.81,-396C377.81,-396 347.81,-396 347.81,-396 341.81,-396 335.81,-390 335.81,-384 335.81,-384 335.81,-372 335.81,-372 335.81,-366 341.81,-360 347.81,-360 347.81,-360 377.81,-360 377.81,-360 383.81,-360 389.81,-366 389.81,-372 389.81,-372 389.81,-384 389.81,-384 389.81,-390 383.81,-396 377.81,-396"/>
<text text-anchor="middle" x="362.81" y="-374.3" font-family="Times,serif" font-size="14.00">Name</text>
</g>
<!-- ast.Assign object at 0x7fc75e0f57e0&#45;&gt;ast.Name object at 0x7fc75e0f6f20 -->
<g id="edge40" class="edge">
<title>ast.Assign object at 0x7fc75e0f57e0&#45;&gt;ast.Name object at 0x7fc75e0f6f20</title>
<path fill="none" stroke="black" d="M411.75,-431.7C403.88,-423.22 394.26,-412.86 385.64,-403.58"/>
<polygon fill="black" stroke="black" points="388.07,-401.05 378.7,-396.1 382.94,-405.81 388.07,-401.05"/>
</g>
<!-- ast.Subscript object at 0x7fc75e0f7520 -->
<g id="node32" class="node">
<title>ast.Subscript object at 0x7fc75e0f7520</title>
<path fill="#66cdaa" stroke="black" d="M343.81,-252C343.81,-252 299.81,-252 299.81,-252 293.81,-252 287.81,-246 287.81,-240 287.81,-240 287.81,-228 287.81,-228 287.81,-222 293.81,-216 299.81,-216 299.81,-216 343.81,-216 343.81,-216 349.81,-216 355.81,-222 355.81,-228 355.81,-228 355.81,-240 355.81,-240 355.81,-246 349.81,-252 343.81,-252"/>
<text text-anchor="middle" x="321.81" y="-230.3" font-family="Times,serif" font-size="14.00">Subscript</text>
</g>
<!-- ast.Assign object at 0x7fc75e0f57e0&#45;&gt;ast.Subscript object at 0x7fc75e0f7520 -->
<g id="edge42" class="edge">
<title>ast.Assign object at 0x7fc75e0f57e0&#45;&gt;ast.Subscript object at 0x7fc75e0f7520</title>
<path fill="none" stroke="black" d="M423.52,-431.81C418.66,-413.55 409.94,-384.04 398.81,-360 382.03,-323.74 356.93,-285.02 339.99,-260.45"/>
<polygon fill="black" stroke="black" points="342.74,-258.27 334.15,-252.07 337,-262.27 342.74,-258.27"/>
</g>
<!-- ast.Name object at 0x7fc75e0f6f20&#45;&gt;ast.Store object at 0x7fc763fedfc0 -->
<g id="edge41" class="edge">
<title>ast.Name object at 0x7fc75e0f6f20&#45;&gt;ast.Store object at 0x7fc763fedfc0</title>
<path fill="none" stroke="black" d="M335.67,-362.15C316.75,-351.81 291.31,-337.89 270.71,-326.63"/>
<polygon fill="black" stroke="black" points="272.37,-323.55 261.92,-321.82 269.02,-329.69 272.37,-323.55"/>
</g>
<!-- ast.Subscript object at 0x7fc75e0f7520&#45;&gt;ast.Load object at 0x7fc763fedf60 -->
<g id="edge50" class="edge">
<title>ast.Subscript object at 0x7fc75e0f7520&#45;&gt;ast.Load object at 0x7fc763fedf60</title>
<path fill="none" stroke="black" d="M291.51,-215.8C278.94,-206.9 265.69,-194.77 258.81,-180 237.58,-134.38 252.73,-102.42 292.81,-72 335.33,-39.73 493.39,-25.88 566.4,-21.1"/>
<polygon fill="black" stroke="black" points="566.78,-24.58 576.54,-20.46 566.34,-17.6 566.78,-24.58"/>
</g>
<!-- ast.Name object at 0x7fc75e0f5d20 -->
<g id="node33" class="node">
<title>ast.Name object at 0x7fc75e0f5d20</title>
<path fill="#66cdaa" stroke="black" d="M309.81,-180C309.81,-180 279.81,-180 279.81,-180 273.81,-180 267.81,-174 267.81,-168 267.81,-168 267.81,-156 267.81,-156 267.81,-150 273.81,-144 279.81,-144 279.81,-144 309.81,-144 309.81,-144 315.81,-144 321.81,-150 321.81,-156 321.81,-156 321.81,-168 321.81,-168 321.81,-174 315.81,-180 309.81,-180"/>
<text text-anchor="middle" x="294.81" y="-158.3" font-family="Times,serif" font-size="14.00">Name</text>
</g>
<!-- ast.Subscript object at 0x7fc75e0f7520&#45;&gt;ast.Name object at 0x7fc75e0f5d20 -->
<g id="edge43" class="edge">
<title>ast.Subscript object at 0x7fc75e0f7520&#45;&gt;ast.Name object at 0x7fc75e0f5d20</title>
<path fill="none" stroke="black" d="M315.14,-215.7C312.1,-207.81 308.43,-198.3 305.05,-189.55"/>
<polygon fill="black" stroke="black" points="308.28,-188.17 301.41,-180.1 301.74,-190.69 308.28,-188.17"/>
</g>
<!-- ast.Slice object at 0x7fc75e0f5750 -->
<g id="node34" class="node">
<title>ast.Slice object at 0x7fc75e0f5750</title>
<path fill="#66cdaa" stroke="black" d="M381.81,-180C381.81,-180 351.81,-180 351.81,-180 345.81,-180 339.81,-174 339.81,-168 339.81,-168 339.81,-156 339.81,-156 339.81,-150 345.81,-144 351.81,-144 351.81,-144 381.81,-144 381.81,-144 387.81,-144 393.81,-150 393.81,-156 393.81,-156 393.81,-168 393.81,-168 393.81,-174 387.81,-180 381.81,-180"/>
<text text-anchor="middle" x="366.81" y="-158.3" font-family="Times,serif" font-size="14.00">Slice</text>
</g>
<!-- ast.Subscript object at 0x7fc75e0f7520&#45;&gt;ast.Slice object at 0x7fc75e0f5750 -->
<g id="edge45" class="edge">
<title>ast.Subscript object at 0x7fc75e0f7520&#45;&gt;ast.Slice object at 0x7fc75e0f5750</title>
<path fill="none" stroke="black" d="M332.94,-215.7C338.17,-207.56 344.51,-197.69 350.29,-188.7"/>
<polygon fill="black" stroke="black" points="353.36,-190.41 355.82,-180.1 347.47,-186.62 353.36,-190.41"/>
</g>
<!-- ast.Name object at 0x7fc75e0f5d20&#45;&gt;ast.Load object at 0x7fc763fedf60 -->
<g id="edge44" class="edge">
<title>ast.Name object at 0x7fc75e0f5d20&#45;&gt;ast.Load object at 0x7fc763fedf60</title>
<path fill="none" stroke="black" d="M293.28,-143.95C292.49,-123.82 294.54,-90.71 313.81,-72 349.27,-37.58 496.22,-24.93 566.3,-20.79"/>
<polygon fill="black" stroke="black" points="566.68,-24.28 576.46,-20.22 566.28,-17.29 566.68,-24.28"/>
</g>
<!-- ast.Name object at 0x7fc72d3bada0 -->
<g id="node35" class="node">
<title>ast.Name object at 0x7fc72d3bada0</title>
<path fill="#66cdaa" stroke="black" d="M436.81,-108C436.81,-108 406.81,-108 406.81,-108 400.81,-108 394.81,-102 394.81,-96 394.81,-96 394.81,-84 394.81,-84 394.81,-78 400.81,-72 406.81,-72 406.81,-72 436.81,-72 436.81,-72 442.81,-72 448.81,-78 448.81,-84 448.81,-84 448.81,-96 448.81,-96 448.81,-102 442.81,-108 436.81,-108"/>
<text text-anchor="middle" x="421.81" y="-86.3" font-family="Times,serif" font-size="14.00">Name</text>
</g>
<!-- ast.Slice object at 0x7fc75e0f5750&#45;&gt;ast.Name object at 0x7fc72d3bada0 -->
<g id="edge46" class="edge">
<title>ast.Slice object at 0x7fc75e0f5750&#45;&gt;ast.Name object at 0x7fc72d3bada0</title>
<path fill="none" stroke="black" d="M380.41,-143.7C386.94,-135.39 394.88,-125.28 402.06,-116.14"/>
<polygon fill="black" stroke="black" points="404.95,-118.13 408.38,-108.1 399.44,-113.81 404.95,-118.13"/>
</g>
<!-- ast.Name object at 0x7fc72d3b87f0 -->
<g id="node36" class="node">
<title>ast.Name object at 0x7fc72d3b87f0</title>
<path fill="#66cdaa" stroke="black" d="M364.81,-108C364.81,-108 334.81,-108 334.81,-108 328.81,-108 322.81,-102 322.81,-96 322.81,-96 322.81,-84 322.81,-84 322.81,-78 328.81,-72 334.81,-72 334.81,-72 364.81,-72 364.81,-72 370.81,-72 376.81,-78 376.81,-84 376.81,-84 376.81,-96 376.81,-96 376.81,-102 370.81,-108 364.81,-108"/>
<text text-anchor="middle" x="349.81" y="-86.3" font-family="Times,serif" font-size="14.00">Name</text>
</g>
<!-- ast.Slice object at 0x7fc75e0f5750&#45;&gt;ast.Name object at 0x7fc72d3b87f0 -->
<g id="edge48" class="edge">
<title>ast.Slice object at 0x7fc75e0f5750&#45;&gt;ast.Name object at 0x7fc72d3b87f0</title>
<path fill="none" stroke="black" d="M362.61,-143.7C360.72,-135.9 358.44,-126.51 356.33,-117.83"/>
<polygon fill="black" stroke="black" points="359.73,-117 353.97,-108.1 352.93,-118.65 359.73,-117"/>
</g>
<!-- ast.Name object at 0x7fc72d3bada0&#45;&gt;ast.Load object at 0x7fc763fedf60 -->
<g id="edge47" class="edge">
<title>ast.Name object at 0x7fc72d3bada0&#45;&gt;ast.Load object at 0x7fc763fedf60</title>
<path fill="none" stroke="black" d="M449.11,-77.53C453.68,-75.66 458.37,-73.76 462.81,-72 498.06,-58.07 538.58,-42.93 567.12,-32.41"/>
<polygon fill="black" stroke="black" points="568.5,-35.63 576.68,-28.89 566.09,-29.06 568.5,-35.63"/>
</g>
<!-- ast.Name object at 0x7fc72d3b87f0&#45;&gt;ast.Load object at 0x7fc763fedf60 -->
<g id="edge49" class="edge">
<title>ast.Name object at 0x7fc72d3b87f0&#45;&gt;ast.Load object at 0x7fc763fedf60</title>
<path fill="none" stroke="black" d="M377.09,-75.42C380,-74.18 382.95,-73.01 385.81,-72 447.86,-50.06 522.96,-34 566.86,-25.61"/>
<polygon fill="black" stroke="black" points="567.62,-29.03 576.8,-23.74 566.32,-22.15 567.62,-29.03"/>
</g>
<!-- ast.BoolOp object at 0x7fc72d3bb8e0 -->
<g id="node38" class="node">
<title>ast.BoolOp object at 0x7fc72d3bb8e0</title>
<path fill="#66cdaa" stroke="black" d="M1011.31,-396C1011.31,-396 976.31,-396 976.31,-396 970.31,-396 964.31,-390 964.31,-384 964.31,-384 964.31,-372 964.31,-372 964.31,-366 970.31,-360 976.31,-360 976.31,-360 1011.31,-360 1011.31,-360 1017.31,-360 1023.31,-366 1023.31,-372 1023.31,-372 1023.31,-384 1023.31,-384 1023.31,-390 1017.31,-396 1011.31,-396"/>
<text text-anchor="middle" x="993.81" y="-374.3" font-family="Times,serif" font-size="14.00">BoolOp</text>
</g>
<!-- ast.If object at 0x7fc72d3b9270&#45;&gt;ast.BoolOp object at 0x7fc72d3bb8e0 -->
<g id="edge52" class="edge">
<title>ast.If object at 0x7fc72d3b9270&#45;&gt;ast.BoolOp object at 0x7fc72d3bb8e0</title>
<path fill="none" stroke="black" d="M856.06,-437.44C882.99,-426.02 924.44,-408.43 954.85,-395.53"/>
<polygon fill="black" stroke="black" points="956.46,-398.65 964.3,-391.52 953.72,-392.21 956.46,-398.65"/>
</g>
<!-- ast.Expr object at 0x7fc72d3ba140 -->
<g id="node53" class="node">
<title>ast.Expr object at 0x7fc72d3ba140</title>
<path fill="#66cdaa" stroke="black" d="M843.81,-396C843.81,-396 813.81,-396 813.81,-396 807.81,-396 801.81,-390 801.81,-384 801.81,-384 801.81,-372 801.81,-372 801.81,-366 807.81,-360 813.81,-360 813.81,-360 843.81,-360 843.81,-360 849.81,-360 855.81,-366 855.81,-372 855.81,-372 855.81,-384 855.81,-384 855.81,-390 849.81,-396 843.81,-396"/>
<text text-anchor="middle" x="828.81" y="-374.3" font-family="Times,serif" font-size="14.00">Expr</text>
</g>
<!-- ast.If object at 0x7fc72d3b9270&#45;&gt;ast.Expr object at 0x7fc72d3ba140 -->
<g id="edge73" class="edge">
<title>ast.If object at 0x7fc72d3b9270&#45;&gt;ast.Expr object at 0x7fc72d3ba140</title>
<path fill="none" stroke="black" d="M828.81,-431.7C828.81,-423.98 828.81,-414.71 828.81,-406.11"/>
<polygon fill="black" stroke="black" points="832.31,-406.1 828.81,-396.1 825.31,-406.1 832.31,-406.1"/>
</g>
<!-- ast.And object at 0x7fc763fee0b0 -->
<g id="node39" class="node">
<title>ast.And object at 0x7fc763fee0b0</title>
<path fill="#66cdaa" stroke="black" d="M1047.81,-324C1047.81,-324 1017.81,-324 1017.81,-324 1011.81,-324 1005.81,-318 1005.81,-312 1005.81,-312 1005.81,-300 1005.81,-300 1005.81,-294 1011.81,-288 1017.81,-288 1017.81,-288 1047.81,-288 1047.81,-288 1053.81,-288 1059.81,-294 1059.81,-300 1059.81,-300 1059.81,-312 1059.81,-312 1059.81,-318 1053.81,-324 1047.81,-324"/>
<text text-anchor="middle" x="1032.81" y="-302.3" font-family="Times,serif" font-size="14.00">And</text>
</g>
<!-- ast.BoolOp object at 0x7fc72d3bb8e0&#45;&gt;ast.And object at 0x7fc763fee0b0 -->
<g id="edge53" class="edge">
<title>ast.BoolOp object at 0x7fc72d3bb8e0&#45;&gt;ast.And object at 0x7fc763fee0b0</title>
<path fill="none" stroke="black" d="M1003.45,-359.7C1007.94,-351.64 1013.37,-341.89 1018.34,-332.98"/>
<polygon fill="black" stroke="black" points="1021.48,-334.54 1023.28,-324.1 1015.36,-331.14 1021.48,-334.54"/>
</g>
<!-- ast.Compare object at 0x7fc72d3bb8b0 -->
<g id="node40" class="node">
<title>ast.Compare object at 0x7fc72d3bb8b0</title>
<path fill="#66cdaa" stroke="black" d="M1133.31,-324C1133.31,-324 1090.31,-324 1090.31,-324 1084.31,-324 1078.31,-318 1078.31,-312 1078.31,-312 1078.31,-300 1078.31,-300 1078.31,-294 1084.31,-288 1090.31,-288 1090.31,-288 1133.31,-288 1133.31,-288 1139.31,-288 1145.31,-294 1145.31,-300 1145.31,-300 1145.31,-312 1145.31,-312 1145.31,-318 1139.31,-324 1133.31,-324"/>
<text text-anchor="middle" x="1111.81" y="-302.3" font-family="Times,serif" font-size="14.00">Compare</text>
</g>
<!-- ast.BoolOp object at 0x7fc72d3bb8e0&#45;&gt;ast.Compare object at 0x7fc72d3bb8b0 -->
<g id="edge54" class="edge">
<title>ast.BoolOp object at 0x7fc72d3bb8e0&#45;&gt;ast.Compare object at 0x7fc72d3bb8b0</title>
<path fill="none" stroke="black" d="M1022.68,-359.88C1038.11,-350.72 1057.3,-339.34 1073.91,-329.48"/>
<polygon fill="black" stroke="black" points="1076.02,-332.3 1082.84,-324.19 1072.45,-326.28 1076.02,-332.3"/>
</g>
<!-- ast.Compare object at 0x7fc72d3b9540 -->
<g id="node46" class="node">
<title>ast.Compare object at 0x7fc72d3b9540</title>
<path fill="#66cdaa" stroke="black" d="M975.31,-324C975.31,-324 932.31,-324 932.31,-324 926.31,-324 920.31,-318 920.31,-312 920.31,-312 920.31,-300 920.31,-300 920.31,-294 926.31,-288 932.31,-288 932.31,-288 975.31,-288 975.31,-288 981.31,-288 987.31,-294 987.31,-300 987.31,-300 987.31,-312 987.31,-312 987.31,-318 981.31,-324 975.31,-324"/>
<text text-anchor="middle" x="953.81" y="-302.3" font-family="Times,serif" font-size="14.00">Compare</text>
</g>
<!-- ast.BoolOp object at 0x7fc72d3bb8e0&#45;&gt;ast.Compare object at 0x7fc72d3b9540 -->
<g id="edge62" class="edge">
<title>ast.BoolOp object at 0x7fc72d3bb8e0&#45;&gt;ast.Compare object at 0x7fc72d3b9540</title>
<path fill="none" stroke="black" d="M983.93,-359.7C979.32,-351.64 973.75,-341.89 968.66,-332.98"/>
<polygon fill="black" stroke="black" points="971.59,-331.05 963.59,-324.1 965.51,-334.52 971.59,-331.05"/>
</g>
<!-- ast.Call object at 0x7fc72d3bb670 -->
<g id="node41" class="node">
<title>ast.Call object at 0x7fc72d3bb670</title>
<path fill="#66cdaa" stroke="black" d="M1140.81,-180C1140.81,-180 1110.81,-180 1110.81,-180 1104.81,-180 1098.81,-174 1098.81,-168 1098.81,-168 1098.81,-156 1098.81,-156 1098.81,-150 1104.81,-144 1110.81,-144 1110.81,-144 1140.81,-144 1140.81,-144 1146.81,-144 1152.81,-150 1152.81,-156 1152.81,-156 1152.81,-168 1152.81,-168 1152.81,-174 1146.81,-180 1140.81,-180"/>
<text text-anchor="middle" x="1125.81" y="-158.3" font-family="Times,serif" font-size="14.00">Call</text>
</g>
<!-- ast.Compare object at 0x7fc72d3bb8b0&#45;&gt;ast.Call object at 0x7fc72d3bb670 -->
<g id="edge55" class="edge">
<title>ast.Compare object at 0x7fc72d3bb8b0&#45;&gt;ast.Call object at 0x7fc72d3bb670</title>
<path fill="none" stroke="black" d="M1113.5,-287.87C1115.89,-263.67 1120.27,-219.21 1123.11,-190.39"/>
<polygon fill="black" stroke="black" points="1126.62,-190.48 1124.12,-180.19 1119.66,-189.8 1126.62,-190.48"/>
</g>
<!-- ast.Eq object at 0x7fc763fee890 -->
<g id="node44" class="node">
<title>ast.Eq object at 0x7fc763fee890</title>
<path fill="#66cdaa" stroke="black" d="M1071.81,-252C1071.81,-252 1041.81,-252 1041.81,-252 1035.81,-252 1029.81,-246 1029.81,-240 1029.81,-240 1029.81,-228 1029.81,-228 1029.81,-222 1035.81,-216 1041.81,-216 1041.81,-216 1071.81,-216 1071.81,-216 1077.81,-216 1083.81,-222 1083.81,-228 1083.81,-228 1083.81,-240 1083.81,-240 1083.81,-246 1077.81,-252 1071.81,-252"/>
<text text-anchor="middle" x="1056.81" y="-230.3" font-family="Times,serif" font-size="14.00">Eq</text>
</g>
<!-- ast.Compare object at 0x7fc72d3bb8b0&#45;&gt;ast.Eq object at 0x7fc763fee890 -->
<g id="edge60" class="edge">
<title>ast.Compare object at 0x7fc72d3bb8b0&#45;&gt;ast.Eq object at 0x7fc763fee890</title>
<path fill="none" stroke="black" d="M1098.22,-287.7C1091.69,-279.39 1083.75,-269.28 1076.57,-260.14"/>
<polygon fill="black" stroke="black" points="1079.18,-257.81 1070.25,-252.1 1073.68,-262.13 1079.18,-257.81"/>
</g>
<!-- ast.Constant object at 0x7fc72d3b9630 -->
<g id="node45" class="node">
<title>ast.Constant object at 0x7fc72d3b9630</title>
<path fill="#66cdaa" stroke="black" d="M1193.31,-252C1193.31,-252 1152.31,-252 1152.31,-252 1146.31,-252 1140.31,-246 1140.31,-240 1140.31,-240 1140.31,-228 1140.31,-228 1140.31,-222 1146.31,-216 1152.31,-216 1152.31,-216 1193.31,-216 1193.31,-216 1199.31,-216 1205.31,-222 1205.31,-228 1205.31,-228 1205.31,-240 1205.31,-240 1205.31,-246 1199.31,-252 1193.31,-252"/>
<text text-anchor="middle" x="1172.81" y="-230.3" font-family="Times,serif" font-size="14.00">Constant</text>
</g>
<!-- ast.Compare object at 0x7fc72d3bb8b0&#45;&gt;ast.Constant object at 0x7fc72d3b9630 -->
<g id="edge61" class="edge">
<title>ast.Compare object at 0x7fc72d3bb8b0&#45;&gt;ast.Constant object at 0x7fc72d3b9630</title>
<path fill="none" stroke="black" d="M1126.89,-287.7C1134.21,-279.3 1143.12,-269.07 1151.15,-259.86"/>
<polygon fill="black" stroke="black" points="1153.98,-261.94 1157.91,-252.1 1148.7,-257.34 1153.98,-261.94"/>
</g>
<!-- ast.Name object at 0x7fc72d3b8220 -->
<g id="node42" class="node">
<title>ast.Name object at 0x7fc72d3b8220</title>
<path fill="#66cdaa" stroke="black" d="M1092.81,-108C1092.81,-108 1062.81,-108 1062.81,-108 1056.81,-108 1050.81,-102 1050.81,-96 1050.81,-96 1050.81,-84 1050.81,-84 1050.81,-78 1056.81,-72 1062.81,-72 1062.81,-72 1092.81,-72 1092.81,-72 1098.81,-72 1104.81,-78 1104.81,-84 1104.81,-84 1104.81,-96 1104.81,-96 1104.81,-102 1098.81,-108 1092.81,-108"/>
<text text-anchor="middle" x="1077.81" y="-86.3" font-family="Times,serif" font-size="14.00">Name</text>
</g>
<!-- ast.Call object at 0x7fc72d3bb670&#45;&gt;ast.Name object at 0x7fc72d3b8220 -->
<g id="edge56" class="edge">
<title>ast.Call object at 0x7fc72d3bb670&#45;&gt;ast.Name object at 0x7fc72d3b8220</title>
<path fill="none" stroke="black" d="M1113.95,-143.7C1108.31,-135.47 1101.46,-125.48 1095.25,-116.42"/>
<polygon fill="black" stroke="black" points="1098.08,-114.37 1089.54,-108.1 1092.31,-118.33 1098.08,-114.37"/>
</g>
<!-- ast.Name object at 0x7fc72d3bbb20 -->
<g id="node43" class="node">
<title>ast.Name object at 0x7fc72d3bbb20</title>
<path fill="#66cdaa" stroke="black" d="M1164.81,-108C1164.81,-108 1134.81,-108 1134.81,-108 1128.81,-108 1122.81,-102 1122.81,-96 1122.81,-96 1122.81,-84 1122.81,-84 1122.81,-78 1128.81,-72 1134.81,-72 1134.81,-72 1164.81,-72 1164.81,-72 1170.81,-72 1176.81,-78 1176.81,-84 1176.81,-84 1176.81,-96 1176.81,-96 1176.81,-102 1170.81,-108 1164.81,-108"/>
<text text-anchor="middle" x="1149.81" y="-86.3" font-family="Times,serif" font-size="14.00">Name</text>
</g>
<!-- ast.Call object at 0x7fc72d3bb670&#45;&gt;ast.Name object at 0x7fc72d3bbb20 -->
<g id="edge58" class="edge">
<title>ast.Call object at 0x7fc72d3bb670&#45;&gt;ast.Name object at 0x7fc72d3bbb20</title>
<path fill="none" stroke="black" d="M1131.75,-143.7C1134.42,-135.9 1137.64,-126.51 1140.62,-117.83"/>
<polygon fill="black" stroke="black" points="1144.02,-118.7 1143.95,-108.1 1137.4,-116.43 1144.02,-118.7"/>
</g>
<!-- ast.Name object at 0x7fc72d3b8220&#45;&gt;ast.Load object at 0x7fc763fedf60 -->
<g id="edge57" class="edge">
<title>ast.Name object at 0x7fc72d3b8220&#45;&gt;ast.Load object at 0x7fc763fedf60</title>
<path fill="none" stroke="black" d="M1050.38,-76.43C1045.91,-74.74 1041.29,-73.18 1036.81,-72 893.89,-34.37 717.24,-23.31 641.35,-20.18"/>
<polygon fill="black" stroke="black" points="641.03,-16.67 630.9,-19.78 640.75,-23.66 641.03,-16.67"/>
</g>
<!-- ast.Name object at 0x7fc72d3bbb20&#45;&gt;ast.Load object at 0x7fc763fedf60 -->
<g id="edge59" class="edge">
<title>ast.Name object at 0x7fc72d3bbb20&#45;&gt;ast.Load object at 0x7fc763fedf60</title>
<path fill="none" stroke="black" d="M1122.67,-75.02C1119.73,-73.86 1116.74,-72.82 1113.81,-72 941.97,-24 726.6,-18.67 641.19,-18.62"/>
<polygon fill="black" stroke="black" points="640.95,-15.12 630.95,-18.64 640.96,-22.12 640.95,-15.12"/>
</g>
<!-- ast.Compare object at 0x7fc72d3b9540&#45;&gt;ast.Eq object at 0x7fc763fee890 -->
<g id="edge71" class="edge">
<title>ast.Compare object at 0x7fc72d3b9540&#45;&gt;ast.Eq object at 0x7fc763fee890</title>
<path fill="none" stroke="black" d="M979.01,-287.88C992.23,-278.89 1008.61,-267.76 1022.92,-258.03"/>
<polygon fill="black" stroke="black" points="1025.22,-260.71 1031.52,-252.19 1021.28,-254.92 1025.22,-260.71"/>
</g>
<!-- ast.Call object at 0x7fc72d3b9810 -->
<g id="node47" class="node">
<title>ast.Call object at 0x7fc72d3b9810</title>
<path fill="#66cdaa" stroke="black" d="M999.81,-252C999.81,-252 969.81,-252 969.81,-252 963.81,-252 957.81,-246 957.81,-240 957.81,-240 957.81,-228 957.81,-228 957.81,-222 963.81,-216 969.81,-216 969.81,-216 999.81,-216 999.81,-216 1005.81,-216 1011.81,-222 1011.81,-228 1011.81,-228 1011.81,-240 1011.81,-240 1011.81,-246 1005.81,-252 999.81,-252"/>
<text text-anchor="middle" x="984.81" y="-230.3" font-family="Times,serif" font-size="14.00">Call</text>
</g>
<!-- ast.Compare object at 0x7fc72d3b9540&#45;&gt;ast.Call object at 0x7fc72d3b9810 -->
<g id="edge63" class="edge">
<title>ast.Compare object at 0x7fc72d3b9540&#45;&gt;ast.Call object at 0x7fc72d3b9810</title>
<path fill="none" stroke="black" d="M961.48,-287.7C965.01,-279.73 969.27,-270.1 973.18,-261.26"/>
<polygon fill="black" stroke="black" points="976.39,-262.67 977.24,-252.1 969.99,-259.83 976.39,-262.67"/>
</g>
<!-- ast.Constant object at 0x7fc72d3bbd00 -->
<g id="node52" class="node">
<title>ast.Constant object at 0x7fc72d3bbd00</title>
<path fill="#66cdaa" stroke="black" d="M927.31,-252C927.31,-252 886.31,-252 886.31,-252 880.31,-252 874.31,-246 874.31,-240 874.31,-240 874.31,-228 874.31,-228 874.31,-222 880.31,-216 886.31,-216 886.31,-216 927.31,-216 927.31,-216 933.31,-216 939.31,-222 939.31,-228 939.31,-228 939.31,-240 939.31,-240 939.31,-246 933.31,-252 927.31,-252"/>
<text text-anchor="middle" x="906.81" y="-230.3" font-family="Times,serif" font-size="14.00">Constant</text>
</g>
<!-- ast.Compare object at 0x7fc72d3b9540&#45;&gt;ast.Constant object at 0x7fc72d3bbd00 -->
<g id="edge72" class="edge">
<title>ast.Compare object at 0x7fc72d3b9540&#45;&gt;ast.Constant object at 0x7fc72d3bbd00</title>
<path fill="none" stroke="black" d="M942.2,-287.7C936.68,-279.47 929.97,-269.48 923.88,-260.42"/>
<polygon fill="black" stroke="black" points="926.78,-258.46 918.3,-252.1 920.97,-262.36 926.78,-258.46"/>
</g>
<!-- ast.Name object at 0x7fc72d3b8a60 -->
<g id="node48" class="node">
<title>ast.Name object at 0x7fc72d3b8a60</title>
<path fill="#66cdaa" stroke="black" d="M1068.81,-180C1068.81,-180 1038.81,-180 1038.81,-180 1032.81,-180 1026.81,-174 1026.81,-168 1026.81,-168 1026.81,-156 1026.81,-156 1026.81,-150 1032.81,-144 1038.81,-144 1038.81,-144 1068.81,-144 1068.81,-144 1074.81,-144 1080.81,-150 1080.81,-156 1080.81,-156 1080.81,-168 1080.81,-168 1080.81,-174 1074.81,-180 1068.81,-180"/>
<text text-anchor="middle" x="1053.81" y="-158.3" font-family="Times,serif" font-size="14.00">Name</text>
</g>
<!-- ast.Call object at 0x7fc72d3b9810&#45;&gt;ast.Name object at 0x7fc72d3b8a60 -->
<g id="edge64" class="edge">
<title>ast.Call object at 0x7fc72d3b9810&#45;&gt;ast.Name object at 0x7fc72d3b8a60</title>
<path fill="none" stroke="black" d="M1001.87,-215.7C1010.31,-207.14 1020.64,-196.66 1029.86,-187.3"/>
<polygon fill="black" stroke="black" points="1032.43,-189.68 1036.95,-180.1 1027.44,-184.77 1032.43,-189.68"/>
</g>
<!-- ast.Call object at 0x7fc72d3bb790 -->
<g id="node49" class="node">
<title>ast.Call object at 0x7fc72d3bb790</title>
<path fill="#66cdaa" stroke="black" d="M996.81,-180C996.81,-180 966.81,-180 966.81,-180 960.81,-180 954.81,-174 954.81,-168 954.81,-168 954.81,-156 954.81,-156 954.81,-150 960.81,-144 966.81,-144 966.81,-144 996.81,-144 996.81,-144 1002.81,-144 1008.81,-150 1008.81,-156 1008.81,-156 1008.81,-168 1008.81,-168 1008.81,-174 1002.81,-180 996.81,-180"/>
<text text-anchor="middle" x="981.81" y="-158.3" font-family="Times,serif" font-size="14.00">Call</text>
</g>
<!-- ast.Call object at 0x7fc72d3b9810&#45;&gt;ast.Call object at 0x7fc72d3bb790 -->
<g id="edge66" class="edge">
<title>ast.Call object at 0x7fc72d3b9810&#45;&gt;ast.Call object at 0x7fc72d3bb790</title>
<path fill="none" stroke="black" d="M984.07,-215.7C983.74,-207.98 983.34,-198.71 982.98,-190.11"/>
<polygon fill="black" stroke="black" points="986.47,-189.95 982.55,-180.1 979.48,-190.25 986.47,-189.95"/>
</g>
<!-- ast.Name object at 0x7fc72d3b8a60&#45;&gt;ast.Load object at 0x7fc763fedf60 -->
<g id="edge65" class="edge">
<title>ast.Name object at 0x7fc72d3b8a60&#45;&gt;ast.Load object at 0x7fc763fedf60</title>
<path fill="none" stroke="black" d="M1049.24,-143.7C1042.79,-123 1028.91,-89 1003.81,-72 945.01,-32.17 728.44,-22.19 640.89,-19.76"/>
<polygon fill="black" stroke="black" points="640.96,-16.26 630.88,-19.5 640.78,-23.25 640.96,-16.26"/>
</g>
<!-- ast.Name object at 0x7fc72d3b9a20 -->
<g id="node50" class="node">
<title>ast.Name object at 0x7fc72d3b9a20</title>
<path fill="#66cdaa" stroke="black" d="M982.81,-108C982.81,-108 952.81,-108 952.81,-108 946.81,-108 940.81,-102 940.81,-96 940.81,-96 940.81,-84 940.81,-84 940.81,-78 946.81,-72 952.81,-72 952.81,-72 982.81,-72 982.81,-72 988.81,-72 994.81,-78 994.81,-84 994.81,-84 994.81,-96 994.81,-96 994.81,-102 988.81,-108 982.81,-108"/>
<text text-anchor="middle" x="967.81" y="-86.3" font-family="Times,serif" font-size="14.00">Name</text>
</g>
<!-- ast.Call object at 0x7fc72d3bb790&#45;&gt;ast.Name object at 0x7fc72d3b9a20 -->
<g id="edge67" class="edge">
<title>ast.Call object at 0x7fc72d3bb790&#45;&gt;ast.Name object at 0x7fc72d3b9a20</title>
<path fill="none" stroke="black" d="M978.35,-143.7C976.81,-135.98 974.96,-126.71 973.24,-118.11"/>
<polygon fill="black" stroke="black" points="976.63,-117.22 971.24,-108.1 969.76,-118.6 976.63,-117.22"/>
</g>
<!-- ast.Name object at 0x7fc72d3b8400 -->
<g id="node51" class="node">
<title>ast.Name object at 0x7fc72d3b8400</title>
<path fill="#66cdaa" stroke="black" d="M910.81,-108C910.81,-108 880.81,-108 880.81,-108 874.81,-108 868.81,-102 868.81,-96 868.81,-96 868.81,-84 868.81,-84 868.81,-78 874.81,-72 880.81,-72 880.81,-72 910.81,-72 910.81,-72 916.81,-72 922.81,-78 922.81,-84 922.81,-84 922.81,-96 922.81,-96 922.81,-102 916.81,-108 910.81,-108"/>
<text text-anchor="middle" x="895.81" y="-86.3" font-family="Times,serif" font-size="14.00">Name</text>
</g>
<!-- ast.Call object at 0x7fc72d3bb790&#45;&gt;ast.Name object at 0x7fc72d3b8400 -->
<g id="edge69" class="edge">
<title>ast.Call object at 0x7fc72d3bb790&#45;&gt;ast.Name object at 0x7fc72d3b8400</title>
<path fill="none" stroke="black" d="M960.56,-143.7C949.72,-134.88 936.4,-124.03 924.65,-114.47"/>
<polygon fill="black" stroke="black" points="926.79,-111.7 916.83,-108.1 922.37,-117.13 926.79,-111.7"/>
</g>
<!-- ast.Name object at 0x7fc72d3b9a20&#45;&gt;ast.Load object at 0x7fc763fedf60 -->
<g id="edge68" class="edge">
<title>ast.Name object at 0x7fc72d3b9a20&#45;&gt;ast.Load object at 0x7fc763fedf60</title>
<path fill="none" stroke="black" d="M940.62,-75.19C937.69,-73.99 934.72,-72.9 931.81,-72 829.47,-40.26 702.96,-26.68 641.23,-21.61"/>
<polygon fill="black" stroke="black" points="641.43,-18.12 631.19,-20.82 640.88,-25.1 641.43,-18.12"/>
</g>
<!-- ast.Name object at 0x7fc72d3b8400&#45;&gt;ast.Load object at 0x7fc763fedf60 -->
<g id="edge70" class="edge">
<title>ast.Name object at 0x7fc72d3b8400&#45;&gt;ast.Load object at 0x7fc763fedf60</title>
<path fill="none" stroke="black" d="M868.73,-76.95C864.14,-75.14 859.38,-73.41 854.81,-72 780.35,-48.92 690.36,-32.62 640.9,-24.62"/>
<polygon fill="black" stroke="black" points="641.4,-21.16 630.98,-23.04 640.3,-28.07 641.4,-21.16"/>
</g>
<!-- ast.Call object at 0x7fc72d3b9ff0 -->
<g id="node54" class="node">
<title>ast.Call object at 0x7fc72d3b9ff0</title>
<path fill="#66cdaa" stroke="black" d="M843.81,-252C843.81,-252 813.81,-252 813.81,-252 807.81,-252 801.81,-246 801.81,-240 801.81,-240 801.81,-228 801.81,-228 801.81,-222 807.81,-216 813.81,-216 813.81,-216 843.81,-216 843.81,-216 849.81,-216 855.81,-222 855.81,-228 855.81,-228 855.81,-240 855.81,-240 855.81,-246 849.81,-252 843.81,-252"/>
<text text-anchor="middle" x="828.81" y="-230.3" font-family="Times,serif" font-size="14.00">Call</text>
</g>
<!-- ast.Expr object at 0x7fc72d3ba140&#45;&gt;ast.Call object at 0x7fc72d3b9ff0 -->
<g id="edge74" class="edge">
<title>ast.Expr object at 0x7fc72d3ba140&#45;&gt;ast.Call object at 0x7fc72d3b9ff0</title>
<path fill="none" stroke="black" d="M828.81,-359.87C828.81,-335.67 828.81,-291.21 828.81,-262.39"/>
<polygon fill="black" stroke="black" points="832.31,-262.19 828.81,-252.19 825.31,-262.19 832.31,-262.19"/>
</g>
<!-- ast.Attribute object at 0x7fc72d3bbfa0 -->
<g id="node55" class="node">
<title>ast.Attribute object at 0x7fc72d3bbfa0</title>
<path fill="#66cdaa" stroke="black" d="M852.31,-180C852.31,-180 811.31,-180 811.31,-180 805.31,-180 799.31,-174 799.31,-168 799.31,-168 799.31,-156 799.31,-156 799.31,-150 805.31,-144 811.31,-144 811.31,-144 852.31,-144 852.31,-144 858.31,-144 864.31,-150 864.31,-156 864.31,-156 864.31,-168 864.31,-168 864.31,-174 858.31,-180 852.31,-180"/>
<text text-anchor="middle" x="831.81" y="-158.3" font-family="Times,serif" font-size="14.00">Attribute</text>
</g>
<!-- ast.Call object at 0x7fc72d3b9ff0&#45;&gt;ast.Attribute object at 0x7fc72d3bbfa0 -->
<g id="edge75" class="edge">
<title>ast.Call object at 0x7fc72d3b9ff0&#45;&gt;ast.Attribute object at 0x7fc72d3bbfa0</title>
<path fill="none" stroke="black" d="M829.56,-215.7C829.89,-207.98 830.28,-198.71 830.65,-190.11"/>
<polygon fill="black" stroke="black" points="834.15,-190.25 831.08,-180.1 827.16,-189.95 834.15,-190.25"/>
</g>
<!-- ast.Name object at 0x7fc72d3b93c0 -->
<g id="node57" class="node">
<title>ast.Name object at 0x7fc72d3b93c0</title>
<path fill="#66cdaa" stroke="black" d="M924.81,-180C924.81,-180 894.81,-180 894.81,-180 888.81,-180 882.81,-174 882.81,-168 882.81,-168 882.81,-156 882.81,-156 882.81,-150 888.81,-144 894.81,-144 894.81,-144 924.81,-144 924.81,-144 930.81,-144 936.81,-150 936.81,-156 936.81,-156 936.81,-168 936.81,-168 936.81,-174 930.81,-180 924.81,-180"/>
<text text-anchor="middle" x="909.81" y="-158.3" font-family="Times,serif" font-size="14.00">Name</text>
</g>
<!-- ast.Call object at 0x7fc72d3b9ff0&#45;&gt;ast.Name object at 0x7fc72d3b93c0 -->
<g id="edge79" class="edge">
<title>ast.Call object at 0x7fc72d3b9ff0&#45;&gt;ast.Name object at 0x7fc72d3b93c0</title>
<path fill="none" stroke="black" d="M848.84,-215.7C858.94,-206.97 871.35,-196.24 882.33,-186.75"/>
<polygon fill="black" stroke="black" points="884.74,-189.29 890.02,-180.1 880.17,-183.99 884.74,-189.29"/>
</g>
<!-- ast.Attribute object at 0x7fc72d3bbfa0&#45;&gt;ast.Load object at 0x7fc763fedf60 -->
<g id="edge78" class="edge">
<title>ast.Attribute object at 0x7fc72d3bbfa0&#45;&gt;ast.Load object at 0x7fc763fedf60</title>
<path fill="none" stroke="black" d="M802.46,-143.85C786.41,-134.04 766.47,-121.09 749.81,-108 731.52,-93.62 730.92,-85.28 711.81,-72 689.55,-56.53 662.1,-43.12 640.45,-33.66"/>
<polygon fill="black" stroke="black" points="641.82,-30.44 631.25,-29.73 639.07,-36.88 641.82,-30.44"/>
</g>
<!-- ast.Name object at 0x7fc72d3bae30 -->
<g id="node56" class="node">
<title>ast.Name object at 0x7fc72d3bae30</title>
<path fill="#66cdaa" stroke="black" d="M800.81,-108C800.81,-108 770.81,-108 770.81,-108 764.81,-108 758.81,-102 758.81,-96 758.81,-96 758.81,-84 758.81,-84 758.81,-78 764.81,-72 770.81,-72 770.81,-72 800.81,-72 800.81,-72 806.81,-72 812.81,-78 812.81,-84 812.81,-84 812.81,-96 812.81,-96 812.81,-102 806.81,-108 800.81,-108"/>
<text text-anchor="middle" x="785.81" y="-86.3" font-family="Times,serif" font-size="14.00">Name</text>
</g>
<!-- ast.Attribute object at 0x7fc72d3bbfa0&#45;&gt;ast.Name object at 0x7fc72d3bae30 -->
<g id="edge76" class="edge">
<title>ast.Attribute object at 0x7fc72d3bbfa0&#45;&gt;ast.Name object at 0x7fc72d3bae30</title>
<path fill="none" stroke="black" d="M820.44,-143.7C815.1,-135.56 808.61,-125.69 802.7,-116.7"/>
<polygon fill="black" stroke="black" points="805.47,-114.54 797.05,-108.1 799.62,-118.38 805.47,-114.54"/>
</g>
<!-- ast.Name object at 0x7fc72d3bae30&#45;&gt;ast.Load object at 0x7fc763fedf60 -->
<g id="edge77" class="edge">
<title>ast.Name object at 0x7fc72d3bae30&#45;&gt;ast.Load object at 0x7fc763fedf60</title>
<path fill="none" stroke="black" d="M758.52,-77.53C753.95,-75.66 749.26,-73.76 744.81,-72 709.57,-58.07 669.04,-42.93 640.51,-32.41"/>
<polygon fill="black" stroke="black" points="641.54,-29.06 630.95,-28.89 639.12,-35.63 641.54,-29.06"/>
</g>
<!-- ast.Name object at 0x7fc72d3b93c0&#45;&gt;ast.Load object at 0x7fc763fedf60 -->
<g id="edge80" class="edge">
<title>ast.Name object at 0x7fc72d3b93c0&#45;&gt;ast.Load object at 0x7fc763fedf60</title>
<path fill="none" stroke="black" d="M893.78,-143.81C870.82,-119.33 830.37,-76.84 821.81,-72 763.94,-39.27 686.32,-26.62 641.02,-21.83"/>
<polygon fill="black" stroke="black" points="641.34,-18.34 631.04,-20.85 640.65,-25.31 641.34,-18.34"/>
</g>
<!-- ast.Name object at 0x7fc72d3ba6b0 -->
<g id="node59" class="node">
<title>ast.Name object at 0x7fc72d3ba6b0</title>
<path fill="#66cdaa" stroke="black" d="M861.81,-540C861.81,-540 831.81,-540 831.81,-540 825.81,-540 819.81,-534 819.81,-528 819.81,-528 819.81,-516 819.81,-516 819.81,-510 825.81,-504 831.81,-504 831.81,-504 861.81,-504 861.81,-504 867.81,-504 873.81,-510 873.81,-516 873.81,-516 873.81,-528 873.81,-528 873.81,-534 867.81,-540 861.81,-540"/>
<text text-anchor="middle" x="846.81" y="-518.3" font-family="Times,serif" font-size="14.00">Name</text>
</g>
<!-- ast.Return object at 0x7fc72d3b92a0&#45;&gt;ast.Name object at 0x7fc72d3ba6b0 -->
<g id="edge82" class="edge">
<title>ast.Return object at 0x7fc72d3b92a0&#45;&gt;ast.Name object at 0x7fc72d3ba6b0</title>
<path fill="none" stroke="black" d="M463.1,-588.35C534.65,-576.17 727.79,-543.27 809.5,-529.36"/>
<polygon fill="black" stroke="black" points="810.54,-532.73 819.81,-527.6 809.36,-525.83 810.54,-532.73"/>
</g>
<!-- ast.Name object at 0x7fc72d3ba6b0&#45;&gt;ast.Load object at 0x7fc763fedf60 -->
<g id="edge83" class="edge">
<title>ast.Name object at 0x7fc72d3ba6b0&#45;&gt;ast.Load object at 0x7fc763fedf60</title>
<path fill="none" stroke="black" d="M874.03,-517.07C962.12,-503.58 1233.81,-455.76 1233.81,-379 1233.81,-379 1233.81,-379 1233.81,-161 1233.81,-116.06 1223.32,-96.76 1185.81,-72 1140.4,-42.02 762.4,-25.07 641.12,-20.36"/>
<polygon fill="black" stroke="black" points="640.98,-16.85 630.85,-19.97 640.71,-23.85 640.98,-16.85"/>
</g>
</g>
</svg>
