<?xml version="1.0" encoding="UTF-8" standalone="no"?>
<!DOCTYPE svg PUBLIC "-//W3C//DTD SVG 1.1//EN"
 "http://www.w3.org/Graphics/SVG/1.1/DTD/svg11.dtd">
<!-- Generated by graphviz version 2.43.0 (0)
 -->
<!-- Title: %3 Pages: 1 -->
<svg width="226pt" height="404pt"
 viewBox="0.00 0.00 226.00 404.00" xmlns="http://www.w3.org/2000/svg" xmlns:xlink="http://www.w3.org/1999/xlink">
<g id="graph0" class="graph" transform="scale(1 1) rotate(0) translate(4 400)">
<title>%3</title>
<polygon fill="white" stroke="transparent" points="-4,4 -4,-400 222,-400 222,4 -4,4"/>
<!-- ast.Module object at 0x7f7f85692a40 -->
<g id="node1" class="node">
<title>ast.Module object at 0x7f7f85692a40</title>
<path fill="#66cdaa" stroke="black" d="M95.5,-396C95.5,-396 60.5,-396 60.5,-396 54.5,-396 48.5,-390 48.5,-384 48.5,-384 48.5,-372 48.5,-372 48.5,-366 54.5,-360 60.5,-360 60.5,-360 95.5,-360 95.5,-360 101.5,-360 107.5,-366 107.5,-372 107.5,-372 107.5,-384 107.5,-384 107.5,-390 101.5,-396 95.5,-396"/>
<text text-anchor="middle" x="78" y="-374.3" font-family="Times,serif" font-size="14.00">Module</text>
</g>
<!-- ast.FunctionDef object at 0x7f7f85691f00 -->
<g id="node2" class="node">
<title>ast.FunctionDef object at 0x7f7f85691f00</title>
<path fill="#66cdaa" stroke="black" d="M108.5,-324C108.5,-324 47.5,-324 47.5,-324 41.5,-324 35.5,-318 35.5,-312 35.5,-312 35.5,-300 35.5,-300 35.5,-294 41.5,-288 47.5,-288 47.5,-288 108.5,-288 108.5,-288 114.5,-288 120.5,-294 120.5,-300 120.5,-300 120.5,-312 120.5,-312 120.5,-318 114.5,-324 108.5,-324"/>
<text text-anchor="middle" x="78" y="-302.3" font-family="Times,serif" font-size="14.00">FunctionDef</text>
</g>
<!-- ast.Module object at 0x7f7f85692a40&#45;&gt;ast.FunctionDef object at 0x7f7f85691f00 -->
<g id="edge1" class="edge">
<title>ast.Module object at 0x7f7f85692a40&#45;&gt;ast.FunctionDef object at 0x7f7f85691f00</title>
<path fill="none" stroke="black" d="M78,-359.7C78,-351.98 78,-342.71 78,-334.11"/>
<polygon fill="black" stroke="black" points="81.5,-334.1 78,-324.1 74.5,-334.1 81.5,-334.1"/>
</g>
<!-- ast.arguments object at 0x7f7f855c4eb0 -->
<g id="node3" class="node">
<title>ast.arguments object at 0x7f7f855c4eb0</title>
<path fill="#66cdaa" stroke="black" d="M62,-252C62,-252 12,-252 12,-252 6,-252 0,-246 0,-240 0,-240 0,-228 0,-228 0,-222 6,-216 12,-216 12,-216 62,-216 62,-216 68,-216 74,-222 74,-228 74,-228 74,-240 74,-240 74,-246 68,-252 62,-252"/>
<text text-anchor="middle" x="37" y="-230.3" font-family="Times,serif" font-size="14.00">arguments</text>
</g>
<!-- ast.FunctionDef object at 0x7f7f85691f00&#45;&gt;ast.arguments object at 0x7f7f855c4eb0 -->
<g id="edge2" class="edge">
<title>ast.FunctionDef object at 0x7f7f85691f00&#45;&gt;ast.arguments object at 0x7f7f855c4eb0</title>
<path fill="none" stroke="black" d="M67.87,-287.7C63.15,-279.64 57.44,-269.89 52.22,-260.98"/>
<polygon fill="black" stroke="black" points="55.09,-258.96 47.02,-252.1 49.05,-262.5 55.09,-258.96"/>
</g>
<!-- ast.Return object at 0x7f7f855c4f10 -->
<g id="node5" class="node">
<title>ast.Return object at 0x7f7f855c4f10</title>
<path fill="#66cdaa" stroke="black" d="M134,-252C134,-252 104,-252 104,-252 98,-252 92,-246 92,-240 92,-240 92,-228 92,-228 92,-222 98,-216 104,-216 104,-216 134,-216 134,-216 140,-216 146,-222 146,-228 146,-228 146,-240 146,-240 146,-246 140,-252 134,-252"/>
<text text-anchor="middle" x="119" y="-230.3" font-family="Times,serif" font-size="14.00">Return</text>
</g>
<!-- ast.FunctionDef object at 0x7f7f85691f00&#45;&gt;ast.Return object at 0x7f7f855c4f10 -->
<g id="edge4" class="edge">
<title>ast.FunctionDef object at 0x7f7f85691f00&#45;&gt;ast.Return object at 0x7f7f855c4f10</title>
<path fill="none" stroke="black" d="M88.13,-287.7C92.85,-279.64 98.56,-269.89 103.78,-260.98"/>
<polygon fill="black" stroke="black" points="106.95,-262.5 108.98,-252.1 100.91,-258.96 106.95,-262.5"/>
</g>
<!-- ast.arg object at 0x7f7f855c4ee0 -->
<g id="node4" class="node">
<title>ast.arg object at 0x7f7f855c4ee0</title>
<path fill="#66cdaa" stroke="black" d="M52,-180C52,-180 22,-180 22,-180 16,-180 10,-174 10,-168 10,-168 10,-156 10,-156 10,-150 16,-144 22,-144 22,-144 52,-144 52,-144 58,-144 64,-150 64,-156 64,-156 64,-168 64,-168 64,-174 58,-180 52,-180"/>
<text text-anchor="middle" x="37" y="-158.3" font-family="Times,serif" font-size="14.00">arg</text>
</g>
<!-- ast.arguments object at 0x7f7f855c4eb0&#45;&gt;ast.arg object at 0x7f7f855c4ee0 -->
<g id="edge3" class="edge">
<title>ast.arguments object at 0x7f7f855c4eb0&#45;&gt;ast.arg object at 0x7f7f855c4ee0</title>
<path fill="none" stroke="black" d="M37,-215.7C37,-207.98 37,-198.71 37,-190.11"/>
<polygon fill="black" stroke="black" points="40.5,-190.1 37,-180.1 33.5,-190.1 40.5,-190.1"/>
</g>
<!-- ast.BinOp object at 0x7f7f855c4f40 -->
<g id="node6" class="node">
<title>ast.BinOp object at 0x7f7f855c4f40</title>
<path fill="#66cdaa" stroke="black" d="M134,-180C134,-180 104,-180 104,-180 98,-180 92,-174 92,-168 92,-168 92,-156 92,-156 92,-150 98,-144 104,-144 104,-144 134,-144 134,-144 140,-144 146,-150 146,-156 146,-156 146,-168 146,-168 146,-174 140,-180 134,-180"/>
<text text-anchor="middle" x="119" y="-158.3" font-family="Times,serif" font-size="14.00">BinOp</text>
</g>
<!-- ast.Return object at 0x7f7f855c4f10&#45;&gt;ast.BinOp object at 0x7f7f855c4f40 -->
<g id="edge5" class="edge">
<title>ast.Return object at 0x7f7f855c4f10&#45;&gt;ast.BinOp object at 0x7f7f855c4f40</title>
<path fill="none" stroke="black" d="M119,-215.7C119,-207.98 119,-198.71 119,-190.11"/>
<polygon fill="black" stroke="black" points="122.5,-190.1 119,-180.1 115.5,-190.1 122.5,-190.1"/>
</g>
<!-- ast.List object at 0x7f7f855c4f70 -->
<g id="node7" class="node">
<title>ast.List object at 0x7f7f855c4f70</title>
<path fill="#66cdaa" stroke="black" d="M62,-108C62,-108 32,-108 32,-108 26,-108 20,-102 20,-96 20,-96 20,-84 20,-84 20,-78 26,-72 32,-72 32,-72 62,-72 62,-72 68,-72 74,-78 74,-84 74,-84 74,-96 74,-96 74,-102 68,-108 62,-108"/>
<text text-anchor="middle" x="47" y="-86.3" font-family="Times,serif" font-size="14.00">List</text>
</g>
<!-- ast.BinOp object at 0x7f7f855c4f40&#45;&gt;ast.List object at 0x7f7f855c4f70 -->
<g id="edge6" class="edge">
<title>ast.BinOp object at 0x7f7f855c4f40&#45;&gt;ast.List object at 0x7f7f855c4f70</title>
<path fill="none" stroke="black" d="M101.2,-143.7C92.4,-135.14 81.62,-124.66 72,-115.3"/>
<polygon fill="black" stroke="black" points="74.2,-112.57 64.59,-108.1 69.32,-117.58 74.2,-112.57"/>
</g>
<!-- ast.Add object at 0x7f7f895ee1a0 -->
<g id="node10" class="node">
<title>ast.Add object at 0x7f7f895ee1a0</title>
<path fill="#66cdaa" stroke="black" d="M134,-108C134,-108 104,-108 104,-108 98,-108 92,-102 92,-96 92,-96 92,-84 92,-84 92,-78 98,-72 104,-72 104,-72 134,-72 134,-72 140,-72 146,-78 146,-84 146,-84 146,-96 146,-96 146,-102 140,-108 134,-108"/>
<text text-anchor="middle" x="119" y="-86.3" font-family="Times,serif" font-size="14.00">Add</text>
</g>
<!-- ast.BinOp object at 0x7f7f855c4f40&#45;&gt;ast.Add object at 0x7f7f895ee1a0 -->
<g id="edge9" class="edge">
<title>ast.BinOp object at 0x7f7f855c4f40&#45;&gt;ast.Add object at 0x7f7f895ee1a0</title>
<path fill="none" stroke="black" d="M119,-143.7C119,-135.98 119,-126.71 119,-118.11"/>
<polygon fill="black" stroke="black" points="122.5,-118.1 119,-108.1 115.5,-118.1 122.5,-118.1"/>
</g>
<!-- ast.Name object at 0x7f7f855c4fd0 -->
<g id="node11" class="node">
<title>ast.Name object at 0x7f7f855c4fd0</title>
<path fill="#66cdaa" stroke="black" d="M206,-108C206,-108 176,-108 176,-108 170,-108 164,-102 164,-96 164,-96 164,-84 164,-84 164,-78 170,-72 176,-72 176,-72 206,-72 206,-72 212,-72 218,-78 218,-84 218,-84 218,-96 218,-96 218,-102 212,-108 206,-108"/>
<text text-anchor="middle" x="191" y="-86.3" font-family="Times,serif" font-size="14.00">Name</text>
</g>
<!-- ast.BinOp object at 0x7f7f855c4f40&#45;&gt;ast.Name object at 0x7f7f855c4fd0 -->
<g id="edge10" class="edge">
<title>ast.BinOp object at 0x7f7f855c4f40&#45;&gt;ast.Name object at 0x7f7f855c4fd0</title>
<path fill="none" stroke="black" d="M136.8,-143.7C145.6,-135.14 156.38,-124.66 166,-115.3"/>
<polygon fill="black" stroke="black" points="168.68,-117.58 173.41,-108.1 163.8,-112.57 168.68,-117.58"/>
</g>
<!-- ast.Constant object at 0x7f7f855c4fa0 -->
<g id="node8" class="node">
<title>ast.Constant object at 0x7f7f855c4fa0</title>
<path fill="#66cdaa" stroke="black" d="M67.5,-36C67.5,-36 26.5,-36 26.5,-36 20.5,-36 14.5,-30 14.5,-24 14.5,-24 14.5,-12 14.5,-12 14.5,-6 20.5,0 26.5,0 26.5,0 67.5,0 67.5,0 73.5,0 79.5,-6 79.5,-12 79.5,-12 79.5,-24 79.5,-24 79.5,-30 73.5,-36 67.5,-36"/>
<text text-anchor="middle" x="47" y="-14.3" font-family="Times,serif" font-size="14.00">Constant</text>
</g>
<!-- ast.List object at 0x7f7f855c4f70&#45;&gt;ast.Constant object at 0x7f7f855c4fa0 -->
<g id="edge7" class="edge">
<title>ast.List object at 0x7f7f855c4f70&#45;&gt;ast.Constant object at 0x7f7f855c4fa0</title>
<path fill="none" stroke="black" d="M47,-71.7C47,-63.98 47,-54.71 47,-46.11"/>
<polygon fill="black" stroke="black" points="50.5,-46.1 47,-36.1 43.5,-46.1 50.5,-46.1"/>
</g>
<!-- ast.Load object at 0x7f7f895edf60 -->
<g id="node9" class="node">
<title>ast.Load object at 0x7f7f895edf60</title>
<path fill="#66cdaa" stroke="black" d="M173,-36C173,-36 143,-36 143,-36 137,-36 131,-30 131,-24 131,-24 131,-12 131,-12 131,-6 137,0 143,0 143,0 173,0 173,0 179,0 185,-6 185,-12 185,-12 185,-24 185,-24 185,-30 179,-36 173,-36"/>
<text text-anchor="middle" x="158" y="-14.3" font-family="Times,serif" font-size="14.00">Load</text>
</g>
<!-- ast.List object at 0x7f7f855c4f70&#45;&gt;ast.Load object at 0x7f7f895edf60 -->
<g id="edge8" class="edge">
<title>ast.List object at 0x7f7f855c4f70&#45;&gt;ast.Load object at 0x7f7f895edf60</title>
<path fill="none" stroke="black" d="M74.15,-71.88C88.53,-62.81 106.38,-51.55 121.91,-41.76"/>
<polygon fill="black" stroke="black" points="124.15,-44.48 130.74,-36.19 120.42,-38.56 124.15,-44.48"/>
</g>
<!-- ast.Name object at 0x7f7f855c4fd0&#45;&gt;ast.Load object at 0x7f7f895edf60 -->
<g id="edge11" class="edge">
<title>ast.Name object at 0x7f7f855c4fd0&#45;&gt;ast.Load object at 0x7f7f895edf60</title>
<path fill="none" stroke="black" d="M182.84,-71.7C179.09,-63.73 174.55,-54.1 170.38,-45.26"/>
<polygon fill="black" stroke="black" points="173.49,-43.66 166.06,-36.1 167.16,-46.64 173.49,-43.66"/>
</g>
</g>
</svg>
