<?xml version="1.0" encoding="UTF-8" standalone="no"?>
<!DOCTYPE svg PUBLIC "-//W3C//DTD SVG 1.1//EN"
 "http://www.w3.org/Graphics/SVG/1.1/DTD/svg11.dtd">
<!-- Generated by graphviz version 2.43.0 (0)
 -->
<!-- Title: %3 Pages: 1 -->
<svg width="889pt" height="548pt"
 viewBox="0.00 0.00 888.50 548.00" xmlns="http://www.w3.org/2000/svg" xmlns:xlink="http://www.w3.org/1999/xlink">
<g id="graph0" class="graph" transform="scale(1 1) rotate(0) translate(4 544)">
<title>%3</title>
<polygon fill="white" stroke="transparent" points="-4,4 -4,-544 884.5,-544 884.5,4 -4,4"/>
<!-- ast.Module object at 0x7f62fb441090 -->
<g id="node1" class="node">
<title>ast.Module object at 0x7f62fb441090</title>
<path fill="#66cdaa" stroke="black" d="M337,-540C337,-540 291,-540 291,-540 285,-540 279,-534 279,-528 279,-528 279,-516 279,-516 279,-510 285,-504 291,-504 291,-504 337,-504 337,-504 343,-504 349,-510 349,-516 349,-516 349,-528 349,-528 349,-534 343,-540 337,-540"/>
<text text-anchor="middle" x="314" y="-518.3" font-family="Times,serif" font-size="14.00">Module</text>
</g>
<!-- ast.FunctionDef object at 0x7f62f8be8ac0 -->
<g id="node2" class="node">
<title>ast.FunctionDef object at 0x7f62f8be8ac0</title>
<path fill="#66cdaa" stroke="black" d="M354,-468C354,-468 274,-468 274,-468 268,-468 262,-462 262,-456 262,-456 262,-444 262,-444 262,-438 268,-432 274,-432 274,-432 354,-432 354,-432 360,-432 366,-438 366,-444 366,-444 366,-456 366,-456 366,-462 360,-468 354,-468"/>
<text text-anchor="middle" x="314" y="-446.3" font-family="Times,serif" font-size="14.00">FunctionDef</text>
</g>
<!-- ast.Module object at 0x7f62fb441090&#45;&gt;ast.FunctionDef object at 0x7f62f8be8ac0 -->
<g id="edge1" class="edge">
<title>ast.Module object at 0x7f62fb441090&#45;&gt;ast.FunctionDef object at 0x7f62f8be8ac0</title>
<path fill="none" stroke="black" d="M314,-503.7C314,-495.98 314,-486.71 314,-478.11"/>
<polygon fill="black" stroke="black" points="317.5,-478.1 314,-468.1 310.5,-478.1 317.5,-478.1"/>
</g>
<!-- ast.arguments object at 0x7f62fbc60cd0 -->
<g id="node3" class="node">
<title>ast.arguments object at 0x7f62fbc60cd0</title>
<path fill="#66cdaa" stroke="black" d="M245,-396C245,-396 175,-396 175,-396 169,-396 163,-390 163,-384 163,-384 163,-372 163,-372 163,-366 169,-360 175,-360 175,-360 245,-360 245,-360 251,-360 257,-366 257,-372 257,-372 257,-384 257,-384 257,-390 251,-396 245,-396"/>
<text text-anchor="middle" x="210" y="-374.3" font-family="Times,serif" font-size="14.00">arguments</text>
</g>
<!-- ast.FunctionDef object at 0x7f62f8be8ac0&#45;&gt;ast.arguments object at 0x7f62fbc60cd0 -->
<g id="edge2" class="edge">
<title>ast.FunctionDef object at 0x7f62f8be8ac0&#45;&gt;ast.arguments object at 0x7f62fbc60cd0</title>
<path fill="none" stroke="black" d="M288.56,-431.88C275.21,-422.89 258.68,-411.76 244.22,-402.03"/>
<polygon fill="black" stroke="black" points="245.79,-398.87 235.54,-396.19 241.88,-404.68 245.79,-398.87"/>
</g>
<!-- ast.Assign object at 0x7f62fbc62f50 -->
<g id="node5" class="node">
<title>ast.Assign object at 0x7f62fbc62f50</title>
<path fill="#66cdaa" stroke="black" d="M81,-252C81,-252 41,-252 41,-252 35,-252 29,-246 29,-240 29,-240 29,-228 29,-228 29,-222 35,-216 41,-216 41,-216 81,-216 81,-216 87,-216 93,-222 93,-228 93,-228 93,-240 93,-240 93,-246 87,-252 81,-252"/>
<text text-anchor="middle" x="61" y="-230.3" font-family="Times,serif" font-size="14.00">Assign</text>
</g>
<!-- ast.FunctionDef object at 0x7f62f8be8ac0&#45;&gt;ast.Assign object at 0x7f62fbc62f50 -->
<g id="edge4" class="edge">
<title>ast.FunctionDef object at 0x7f62f8be8ac0&#45;&gt;ast.Assign object at 0x7f62fbc62f50</title>
<path fill="none" stroke="black" d="M311.68,-431.86C306.31,-399 289.94,-326.94 246,-288 224.86,-269.27 150.93,-252.16 103.18,-242.7"/>
<polygon fill="black" stroke="black" points="103.6,-239.22 93.12,-240.74 102.27,-246.09 103.6,-239.22"/>
</g>
<!-- ast.For object at 0x7f62fbc61a50 -->
<g id="node10" class="node">
<title>ast.For object at 0x7f62fbc61a50</title>
<path fill="#66cdaa" stroke="black" d="M395,-396C395,-396 365,-396 365,-396 359,-396 353,-390 353,-384 353,-384 353,-372 353,-372 353,-366 359,-360 365,-360 365,-360 395,-360 395,-360 401,-360 407,-366 407,-372 407,-372 407,-384 407,-384 407,-390 401,-396 395,-396"/>
<text text-anchor="middle" x="380" y="-374.3" font-family="Times,serif" font-size="14.00">For</text>
</g>
<!-- ast.FunctionDef object at 0x7f62f8be8ac0&#45;&gt;ast.For object at 0x7f62fbc61a50 -->
<g id="edge9" class="edge">
<title>ast.FunctionDef object at 0x7f62f8be8ac0&#45;&gt;ast.For object at 0x7f62fbc61a50</title>
<path fill="none" stroke="black" d="M330.31,-431.7C338.31,-423.22 348.07,-412.86 356.82,-403.58"/>
<polygon fill="black" stroke="black" points="359.56,-405.78 363.87,-396.1 354.47,-400.98 359.56,-405.78"/>
</g>
<!-- ast.Return object at 0x7f62f5969d20 -->
<g id="node31" class="node">
<title>ast.Return object at 0x7f62f5969d20</title>
<path fill="#66cdaa" stroke="black" d="M620,-396C620,-396 578,-396 578,-396 572,-396 566,-390 566,-384 566,-384 566,-372 566,-372 566,-366 572,-360 578,-360 578,-360 620,-360 620,-360 626,-360 632,-366 632,-372 632,-372 632,-384 632,-384 632,-390 626,-396 620,-396"/>
<text text-anchor="middle" x="599" y="-374.3" font-family="Times,serif" font-size="14.00">Return</text>
</g>
<!-- ast.FunctionDef object at 0x7f62f8be8ac0&#45;&gt;ast.Return object at 0x7f62f5969d20 -->
<g id="edge38" class="edge">
<title>ast.FunctionDef object at 0x7f62f8be8ac0&#45;&gt;ast.Return object at 0x7f62f5969d20</title>
<path fill="none" stroke="black" d="M366.27,-436.16C420.7,-422.79 504.95,-402.1 555.75,-389.62"/>
<polygon fill="black" stroke="black" points="556.88,-392.95 565.76,-387.16 555.21,-386.15 556.88,-392.95"/>
</g>
<!-- ast.arg object at 0x7f62fbc60d90 -->
<g id="node4" class="node">
<title>ast.arg object at 0x7f62fbc60d90</title>
<path fill="#66cdaa" stroke="black" d="M225,-324C225,-324 195,-324 195,-324 189,-324 183,-318 183,-312 183,-312 183,-300 183,-300 183,-294 189,-288 195,-288 195,-288 225,-288 225,-288 231,-288 237,-294 237,-300 237,-300 237,-312 237,-312 237,-318 231,-324 225,-324"/>
<text text-anchor="middle" x="210" y="-302.3" font-family="Times,serif" font-size="14.00">arg</text>
</g>
<!-- ast.arguments object at 0x7f62fbc60cd0&#45;&gt;ast.arg object at 0x7f62fbc60d90 -->
<g id="edge3" class="edge">
<title>ast.arguments object at 0x7f62fbc60cd0&#45;&gt;ast.arg object at 0x7f62fbc60d90</title>
<path fill="none" stroke="black" d="M210,-359.7C210,-351.98 210,-342.71 210,-334.11"/>
<polygon fill="black" stroke="black" points="213.5,-334.1 210,-324.1 206.5,-334.1 213.5,-334.1"/>
</g>
<!-- ast.Name object at 0x7f62fbc63460 -->
<g id="node6" class="node">
<title>ast.Name object at 0x7f62fbc63460</title>
<path fill="#66cdaa" stroke="black" d="M80.5,-180C80.5,-180 45.5,-180 45.5,-180 39.5,-180 33.5,-174 33.5,-168 33.5,-168 33.5,-156 33.5,-156 33.5,-150 39.5,-144 45.5,-144 45.5,-144 80.5,-144 80.5,-144 86.5,-144 92.5,-150 92.5,-156 92.5,-156 92.5,-168 92.5,-168 92.5,-174 86.5,-180 80.5,-180"/>
<text text-anchor="middle" x="63" y="-158.3" font-family="Times,serif" font-size="14.00">Name</text>
</g>
<!-- ast.Assign object at 0x7f62fbc62f50&#45;&gt;ast.Name object at 0x7f62fbc63460 -->
<g id="edge5" class="edge">
<title>ast.Assign object at 0x7f62fbc62f50&#45;&gt;ast.Name object at 0x7f62fbc63460</title>
<path fill="none" stroke="black" d="M61.49,-215.7C61.71,-207.98 61.98,-198.71 62.23,-190.11"/>
<polygon fill="black" stroke="black" points="65.72,-190.2 62.51,-180.1 58.73,-190 65.72,-190.2"/>
</g>
<!-- ast.List object at 0x7f62fbc62890 -->
<g id="node8" class="node">
<title>ast.List object at 0x7f62fbc62890</title>
<path fill="#66cdaa" stroke="black" d="M42,-108C42,-108 12,-108 12,-108 6,-108 0,-102 0,-96 0,-96 0,-84 0,-84 0,-78 6,-72 12,-72 12,-72 42,-72 42,-72 48,-72 54,-78 54,-84 54,-84 54,-96 54,-96 54,-102 48,-108 42,-108"/>
<text text-anchor="middle" x="27" y="-86.3" font-family="Times,serif" font-size="14.00">List</text>
</g>
<!-- ast.Assign object at 0x7f62fbc62f50&#45;&gt;ast.List object at 0x7f62fbc62890 -->
<g id="edge7" class="edge">
<title>ast.Assign object at 0x7f62fbc62f50&#45;&gt;ast.List object at 0x7f62fbc62890</title>
<path fill="none" stroke="black" d="M44.96,-215.85C36.99,-206.12 28.17,-193.27 24,-180 17.71,-160 18.93,-136.21 21.46,-118.26"/>
<polygon fill="black" stroke="black" points="24.95,-118.62 23.11,-108.19 18.04,-117.49 24.95,-118.62"/>
</g>
<!-- ast.Store object at 0x7f63026f5780 -->
<g id="node7" class="node">
<title>ast.Store object at 0x7f63026f5780</title>
<path fill="#66cdaa" stroke="black" d="M137,-108C137,-108 105,-108 105,-108 99,-108 93,-102 93,-96 93,-96 93,-84 93,-84 93,-78 99,-72 105,-72 105,-72 137,-72 137,-72 143,-72 149,-78 149,-84 149,-84 149,-96 149,-96 149,-102 143,-108 137,-108"/>
<text text-anchor="middle" x="121" y="-86.3" font-family="Times,serif" font-size="14.00">Store</text>
</g>
<!-- ast.Name object at 0x7f62fbc63460&#45;&gt;ast.Store object at 0x7f63026f5780 -->
<g id="edge6" class="edge">
<title>ast.Name object at 0x7f62fbc63460&#45;&gt;ast.Store object at 0x7f63026f5780</title>
<path fill="none" stroke="black" d="M77.34,-143.7C84.29,-135.3 92.77,-125.07 100.4,-115.86"/>
<polygon fill="black" stroke="black" points="103.14,-118.04 106.83,-108.1 97.75,-113.57 103.14,-118.04"/>
</g>
<!-- ast.Load object at 0x7f63026f5720 -->
<g id="node9" class="node">
<title>ast.Load object at 0x7f63026f5720</title>
<path fill="#66cdaa" stroke="black" d="M547,-36C547,-36 517,-36 517,-36 511,-36 505,-30 505,-24 505,-24 505,-12 505,-12 505,-6 511,0 517,0 517,0 547,0 547,0 553,0 559,-6 559,-12 559,-12 559,-24 559,-24 559,-30 553,-36 547,-36"/>
<text text-anchor="middle" x="532" y="-14.3" font-family="Times,serif" font-size="14.00">Load</text>
</g>
<!-- ast.List object at 0x7f62fbc62890&#45;&gt;ast.Load object at 0x7f63026f5720 -->
<g id="edge8" class="edge">
<title>ast.List object at 0x7f62fbc62890&#45;&gt;ast.Load object at 0x7f63026f5720</title>
<path fill="none" stroke="black" d="M54.01,-79.91C63.41,-77.02 74.09,-74.05 84,-72 234.54,-40.89 417.58,-26.33 494.8,-21.23"/>
<polygon fill="black" stroke="black" points="495.22,-24.71 504.98,-20.57 494.77,-17.72 495.22,-24.71"/>
</g>
<!-- ast.Name object at 0x7f62fe48ccd0 -->
<g id="node11" class="node">
<title>ast.Name object at 0x7f62fe48ccd0</title>
<path fill="#66cdaa" stroke="black" d="M360.5,-324C360.5,-324 325.5,-324 325.5,-324 319.5,-324 313.5,-318 313.5,-312 313.5,-312 313.5,-300 313.5,-300 313.5,-294 319.5,-288 325.5,-288 325.5,-288 360.5,-288 360.5,-288 366.5,-288 372.5,-294 372.5,-300 372.5,-300 372.5,-312 372.5,-312 372.5,-318 366.5,-324 360.5,-324"/>
<text text-anchor="middle" x="343" y="-302.3" font-family="Times,serif" font-size="14.00">Name</text>
</g>
<!-- ast.For object at 0x7f62fbc61a50&#45;&gt;ast.Name object at 0x7f62fe48ccd0 -->
<g id="edge10" class="edge">
<title>ast.For object at 0x7f62fbc61a50&#45;&gt;ast.Name object at 0x7f62fe48ccd0</title>
<path fill="none" stroke="black" d="M370.85,-359.7C366.6,-351.64 361.44,-341.89 356.73,-332.98"/>
<polygon fill="black" stroke="black" points="359.81,-331.31 352.04,-324.1 353.62,-334.58 359.81,-331.31"/>
</g>
<!-- ast.Call object at 0x7f62fc79bdc0 -->
<g id="node12" class="node">
<title>ast.Call object at 0x7f62fc79bdc0</title>
<path fill="#66cdaa" stroke="black" d="M721,-324C721,-324 691,-324 691,-324 685,-324 679,-318 679,-312 679,-312 679,-300 679,-300 679,-294 685,-288 691,-288 691,-288 721,-288 721,-288 727,-288 733,-294 733,-300 733,-300 733,-312 733,-312 733,-318 727,-324 721,-324"/>
<text text-anchor="middle" x="706" y="-302.3" font-family="Times,serif" font-size="14.00">Call</text>
</g>
<!-- ast.For object at 0x7f62fbc61a50&#45;&gt;ast.Call object at 0x7f62fc79bdc0 -->
<g id="edge12" class="edge">
<title>ast.For object at 0x7f62fbc61a50&#45;&gt;ast.Call object at 0x7f62fc79bdc0</title>
<path fill="none" stroke="black" d="M407.23,-371.15C465.48,-358.64 602.25,-329.28 668.59,-315.03"/>
<polygon fill="black" stroke="black" points="669.57,-318.4 678.61,-312.88 668.1,-311.56 669.57,-318.4"/>
</g>
<!-- ast.If object at 0x7f62fc79bd90 -->
<g id="node19" class="node">
<title>ast.If object at 0x7f62fc79bd90</title>
<path fill="#66cdaa" stroke="black" d="M433,-324C433,-324 403,-324 403,-324 397,-324 391,-318 391,-312 391,-312 391,-300 391,-300 391,-294 397,-288 403,-288 403,-288 433,-288 433,-288 439,-288 445,-294 445,-300 445,-300 445,-312 445,-312 445,-318 439,-324 433,-324"/>
<text text-anchor="middle" x="418" y="-302.3" font-family="Times,serif" font-size="14.00">If</text>
</g>
<!-- ast.For object at 0x7f62fbc61a50&#45;&gt;ast.If object at 0x7f62fc79bd90 -->
<g id="edge20" class="edge">
<title>ast.For object at 0x7f62fbc61a50&#45;&gt;ast.If object at 0x7f62fc79bd90</title>
<path fill="none" stroke="black" d="M389.39,-359.7C393.76,-351.64 399.06,-341.89 403.9,-332.98"/>
<polygon fill="black" stroke="black" points="407.02,-334.56 408.71,-324.1 400.87,-331.22 407.02,-334.56"/>
</g>
<!-- ast.Name object at 0x7f62fe48ccd0&#45;&gt;ast.Store object at 0x7f63026f5780 -->
<g id="edge11" class="edge">
<title>ast.Name object at 0x7f62fe48ccd0&#45;&gt;ast.Store object at 0x7f63026f5780</title>
<path fill="none" stroke="black" d="M313.47,-290.65C262.64,-265.37 161.96,-212.49 140,-180 127.66,-161.75 123.13,-136.98 121.56,-118.21"/>
<polygon fill="black" stroke="black" points="125.05,-117.98 120.95,-108.21 118.06,-118.4 125.05,-117.98"/>
</g>
<!-- ast.Name object at 0x7f62fc79a1a0 -->
<g id="node13" class="node">
<title>ast.Name object at 0x7f62fc79a1a0</title>
<path fill="#66cdaa" stroke="black" d="M747.5,-108C747.5,-108 712.5,-108 712.5,-108 706.5,-108 700.5,-102 700.5,-96 700.5,-96 700.5,-84 700.5,-84 700.5,-78 706.5,-72 712.5,-72 712.5,-72 747.5,-72 747.5,-72 753.5,-72 759.5,-78 759.5,-84 759.5,-84 759.5,-96 759.5,-96 759.5,-102 753.5,-108 747.5,-108"/>
<text text-anchor="middle" x="730" y="-86.3" font-family="Times,serif" font-size="14.00">Name</text>
</g>
<!-- ast.Call object at 0x7f62fc79bdc0&#45;&gt;ast.Name object at 0x7f62fc79a1a0 -->
<g id="edge13" class="edge">
<title>ast.Call object at 0x7f62fc79bdc0&#45;&gt;ast.Name object at 0x7f62fc79a1a0</title>
<path fill="none" stroke="black" d="M713.74,-287.87C722.9,-268.85 739.53,-237.94 760,-216 778.93,-195.71 798.24,-204.63 811,-180 818.36,-165.79 818.61,-158.07 811,-144 801.91,-127.19 784.92,-114.86 768.84,-106.35"/>
<polygon fill="black" stroke="black" points="770.06,-103.04 759.54,-101.77 766.97,-109.32 770.06,-103.04"/>
</g>
<!-- ast.Constant object at 0x7f62fc799900 -->
<g id="node14" class="node">
<title>ast.Constant object at 0x7f62fc799900</title>
<path fill="#66cdaa" stroke="black" d="M837.5,-252C837.5,-252 780.5,-252 780.5,-252 774.5,-252 768.5,-246 768.5,-240 768.5,-240 768.5,-228 768.5,-228 768.5,-222 774.5,-216 780.5,-216 780.5,-216 837.5,-216 837.5,-216 843.5,-216 849.5,-222 849.5,-228 849.5,-228 849.5,-240 849.5,-240 849.5,-246 843.5,-252 837.5,-252"/>
<text text-anchor="middle" x="809" y="-230.3" font-family="Times,serif" font-size="14.00">Constant</text>
</g>
<!-- ast.Call object at 0x7f62fc79bdc0&#45;&gt;ast.Constant object at 0x7f62fc799900 -->
<g id="edge15" class="edge">
<title>ast.Call object at 0x7f62fc79bdc0&#45;&gt;ast.Constant object at 0x7f62fc799900</title>
<path fill="none" stroke="black" d="M731.2,-287.88C744.41,-278.89 760.79,-267.76 775.11,-258.03"/>
<polygon fill="black" stroke="black" points="777.4,-260.71 783.71,-252.19 773.47,-254.92 777.4,-260.71"/>
</g>
<!-- ast.BinOp object at 0x7f62fc79ac50 -->
<g id="node15" class="node">
<title>ast.BinOp object at 0x7f62fc79ac50</title>
<path fill="#66cdaa" stroke="black" d="M689.5,-252C689.5,-252 652.5,-252 652.5,-252 646.5,-252 640.5,-246 640.5,-240 640.5,-240 640.5,-228 640.5,-228 640.5,-222 646.5,-216 652.5,-216 652.5,-216 689.5,-216 689.5,-216 695.5,-216 701.5,-222 701.5,-228 701.5,-228 701.5,-240 701.5,-240 701.5,-246 695.5,-252 689.5,-252"/>
<text text-anchor="middle" x="671" y="-230.3" font-family="Times,serif" font-size="14.00">BinOp</text>
</g>
<!-- ast.Call object at 0x7f62fc79bdc0&#45;&gt;ast.BinOp object at 0x7f62fc79ac50 -->
<g id="edge16" class="edge">
<title>ast.Call object at 0x7f62fc79bdc0&#45;&gt;ast.BinOp object at 0x7f62fc79ac50</title>
<path fill="none" stroke="black" d="M697.35,-287.7C693.36,-279.73 688.55,-270.1 684.13,-261.26"/>
<polygon fill="black" stroke="black" points="687.15,-259.48 679.55,-252.1 680.89,-262.61 687.15,-259.48"/>
</g>
<!-- ast.Name object at 0x7f62fc79a1a0&#45;&gt;ast.Load object at 0x7f63026f5720 -->
<g id="edge14" class="edge">
<title>ast.Name object at 0x7f62fc79a1a0&#45;&gt;ast.Load object at 0x7f63026f5720</title>
<path fill="none" stroke="black" d="M700.36,-78.52C665.3,-66.13 606.92,-45.49 568.95,-32.06"/>
<polygon fill="black" stroke="black" points="569.89,-28.68 559.29,-28.65 567.55,-35.28 569.89,-28.68"/>
</g>
<!-- ast.Constant object at 0x7f62fc79bbe0 -->
<g id="node16" class="node">
<title>ast.Constant object at 0x7f62fc79bbe0</title>
<path fill="#66cdaa" stroke="black" d="M690.5,-180C690.5,-180 633.5,-180 633.5,-180 627.5,-180 621.5,-174 621.5,-168 621.5,-168 621.5,-156 621.5,-156 621.5,-150 627.5,-144 633.5,-144 633.5,-144 690.5,-144 690.5,-144 696.5,-144 702.5,-150 702.5,-156 702.5,-156 702.5,-168 702.5,-168 702.5,-174 696.5,-180 690.5,-180"/>
<text text-anchor="middle" x="662" y="-158.3" font-family="Times,serif" font-size="14.00">Constant</text>
</g>
<!-- ast.BinOp object at 0x7f62fc79ac50&#45;&gt;ast.Constant object at 0x7f62fc79bbe0 -->
<g id="edge17" class="edge">
<title>ast.BinOp object at 0x7f62fc79ac50&#45;&gt;ast.Constant object at 0x7f62fc79bbe0</title>
<path fill="none" stroke="black" d="M668.78,-215.7C667.78,-207.98 666.59,-198.71 665.49,-190.11"/>
<polygon fill="black" stroke="black" points="668.95,-189.58 664.2,-180.1 662,-190.47 668.95,-189.58"/>
</g>
<!-- ast.Add object at 0x7f63026f5960 -->
<g id="node17" class="node">
<title>ast.Add object at 0x7f63026f5960</title>
<path fill="#66cdaa" stroke="black" d="M591,-180C591,-180 561,-180 561,-180 555,-180 549,-174 549,-168 549,-168 549,-156 549,-156 549,-150 555,-144 561,-144 561,-144 591,-144 591,-144 597,-144 603,-150 603,-156 603,-156 603,-168 603,-168 603,-174 597,-180 591,-180"/>
<text text-anchor="middle" x="576" y="-158.3" font-family="Times,serif" font-size="14.00">Add</text>
</g>
<!-- ast.BinOp object at 0x7f62fc79ac50&#45;&gt;ast.Add object at 0x7f63026f5960 -->
<g id="edge18" class="edge">
<title>ast.BinOp object at 0x7f62fc79ac50&#45;&gt;ast.Add object at 0x7f63026f5960</title>
<path fill="none" stroke="black" d="M647.52,-215.7C635.44,-206.8 620.55,-195.82 607.48,-186.2"/>
<polygon fill="black" stroke="black" points="609.34,-183.22 599.21,-180.1 605.19,-188.85 609.34,-183.22"/>
</g>
<!-- ast.Constant object at 0x7f62fc79beb0 -->
<g id="node18" class="node">
<title>ast.Constant object at 0x7f62fc79beb0</title>
<path fill="#66cdaa" stroke="black" d="M789.5,-180C789.5,-180 732.5,-180 732.5,-180 726.5,-180 720.5,-174 720.5,-168 720.5,-168 720.5,-156 720.5,-156 720.5,-150 726.5,-144 732.5,-144 732.5,-144 789.5,-144 789.5,-144 795.5,-144 801.5,-150 801.5,-156 801.5,-156 801.5,-168 801.5,-168 801.5,-174 795.5,-180 789.5,-180"/>
<text text-anchor="middle" x="761" y="-158.3" font-family="Times,serif" font-size="14.00">Constant</text>
</g>
<!-- ast.BinOp object at 0x7f62fc79ac50&#45;&gt;ast.Constant object at 0x7f62fc79beb0 -->
<g id="edge19" class="edge">
<title>ast.BinOp object at 0x7f62fc79ac50&#45;&gt;ast.Constant object at 0x7f62fc79beb0</title>
<path fill="none" stroke="black" d="M693.25,-215.7C704.58,-206.88 718.53,-196.03 730.82,-186.47"/>
<polygon fill="black" stroke="black" points="733.26,-189.01 739.01,-180.1 728.97,-183.48 733.26,-189.01"/>
</g>
<!-- ast.Compare object at 0x7f62fc79a9b0 -->
<g id="node20" class="node">
<title>ast.Compare object at 0x7f62fc79a9b0</title>
<path fill="#66cdaa" stroke="black" d="M325.5,-252C325.5,-252 268.5,-252 268.5,-252 262.5,-252 256.5,-246 256.5,-240 256.5,-240 256.5,-228 256.5,-228 256.5,-222 262.5,-216 268.5,-216 268.5,-216 325.5,-216 325.5,-216 331.5,-216 337.5,-222 337.5,-228 337.5,-228 337.5,-240 337.5,-240 337.5,-246 331.5,-252 325.5,-252"/>
<text text-anchor="middle" x="297" y="-230.3" font-family="Times,serif" font-size="14.00">Compare</text>
</g>
<!-- ast.If object at 0x7f62fc79bd90&#45;&gt;ast.Compare object at 0x7f62fc79a9b0 -->
<g id="edge21" class="edge">
<title>ast.If object at 0x7f62fc79bd90&#45;&gt;ast.Compare object at 0x7f62fc79a9b0</title>
<path fill="none" stroke="black" d="M390.85,-289.29C374.59,-279.89 353.66,-267.78 335.69,-257.38"/>
<polygon fill="black" stroke="black" points="337.01,-254.11 326.61,-252.13 333.51,-260.16 337.01,-254.11"/>
</g>
<!-- ast.AugAssign object at 0x7f62f596b340 -->
<g id="node27" class="node">
<title>ast.AugAssign object at 0x7f62f596b340</title>
<path fill="#66cdaa" stroke="black" d="M504,-252C504,-252 436,-252 436,-252 430,-252 424,-246 424,-240 424,-240 424,-228 424,-228 424,-222 430,-216 436,-216 436,-216 504,-216 504,-216 510,-216 516,-222 516,-228 516,-228 516,-240 516,-240 516,-246 510,-252 504,-252"/>
<text text-anchor="middle" x="470" y="-230.3" font-family="Times,serif" font-size="14.00">AugAssign</text>
</g>
<!-- ast.If object at 0x7f62fc79bd90&#45;&gt;ast.AugAssign object at 0x7f62f596b340 -->
<g id="edge30" class="edge">
<title>ast.If object at 0x7f62fc79bd90&#45;&gt;ast.AugAssign object at 0x7f62f596b340</title>
<path fill="none" stroke="black" d="M430.85,-287.7C437.03,-279.39 444.54,-269.28 451.32,-260.14"/>
<polygon fill="black" stroke="black" points="454.14,-262.22 457.29,-252.1 448.52,-258.04 454.14,-262.22"/>
</g>
<!-- ast.BinOp object at 0x7f62f5969450 -->
<g id="node21" class="node">
<title>ast.BinOp object at 0x7f62f5969450</title>
<path fill="#66cdaa" stroke="black" d="M446.5,-180C446.5,-180 409.5,-180 409.5,-180 403.5,-180 397.5,-174 397.5,-168 397.5,-168 397.5,-156 397.5,-156 397.5,-150 403.5,-144 409.5,-144 409.5,-144 446.5,-144 446.5,-144 452.5,-144 458.5,-150 458.5,-156 458.5,-156 458.5,-168 458.5,-168 458.5,-174 452.5,-180 446.5,-180"/>
<text text-anchor="middle" x="428" y="-158.3" font-family="Times,serif" font-size="14.00">BinOp</text>
</g>
<!-- ast.Compare object at 0x7f62fc79a9b0&#45;&gt;ast.BinOp object at 0x7f62f5969450 -->
<g id="edge22" class="edge">
<title>ast.Compare object at 0x7f62fc79a9b0&#45;&gt;ast.BinOp object at 0x7f62f5969450</title>
<path fill="none" stroke="black" d="M329.05,-215.88C346.88,-206.35 369.24,-194.4 388.19,-184.27"/>
<polygon fill="black" stroke="black" points="390.02,-187.26 397.19,-179.47 386.72,-181.09 390.02,-187.26"/>
</g>
<!-- ast.Eq object at 0x7f63026f6050 -->
<g id="node25" class="node">
<title>ast.Eq object at 0x7f63026f6050</title>
<path fill="#66cdaa" stroke="black" d="M191,-180C191,-180 161,-180 161,-180 155,-180 149,-174 149,-168 149,-168 149,-156 149,-156 149,-150 155,-144 161,-144 161,-144 191,-144 191,-144 197,-144 203,-150 203,-156 203,-156 203,-168 203,-168 203,-174 197,-180 191,-180"/>
<text text-anchor="middle" x="176" y="-158.3" font-family="Times,serif" font-size="14.00">Eq</text>
</g>
<!-- ast.Compare object at 0x7f62fc79a9b0&#45;&gt;ast.Eq object at 0x7f63026f6050 -->
<g id="edge28" class="edge">
<title>ast.Compare object at 0x7f62fc79a9b0&#45;&gt;ast.Eq object at 0x7f63026f6050</title>
<path fill="none" stroke="black" d="M267.4,-215.88C250.72,-206.23 229.75,-194.1 212.11,-183.89"/>
<polygon fill="black" stroke="black" points="213.63,-180.73 203.23,-178.75 210.13,-186.79 213.63,-180.73"/>
</g>
<!-- ast.Constant object at 0x7f62f596b2e0 -->
<g id="node26" class="node">
<title>ast.Constant object at 0x7f62f596b2e0</title>
<path fill="#66cdaa" stroke="black" d="M290.5,-180C290.5,-180 233.5,-180 233.5,-180 227.5,-180 221.5,-174 221.5,-168 221.5,-168 221.5,-156 221.5,-156 221.5,-150 227.5,-144 233.5,-144 233.5,-144 290.5,-144 290.5,-144 296.5,-144 302.5,-150 302.5,-156 302.5,-156 302.5,-168 302.5,-168 302.5,-174 296.5,-180 290.5,-180"/>
<text text-anchor="middle" x="262" y="-158.3" font-family="Times,serif" font-size="14.00">Constant</text>
</g>
<!-- ast.Compare object at 0x7f62fc79a9b0&#45;&gt;ast.Constant object at 0x7f62f596b2e0 -->
<g id="edge29" class="edge">
<title>ast.Compare object at 0x7f62fc79a9b0&#45;&gt;ast.Constant object at 0x7f62f596b2e0</title>
<path fill="none" stroke="black" d="M288.35,-215.7C284.36,-207.73 279.55,-198.1 275.13,-189.26"/>
<polygon fill="black" stroke="black" points="278.15,-187.48 270.55,-180.1 271.89,-190.61 278.15,-187.48"/>
</g>
<!-- ast.Name object at 0x7f62f596b970 -->
<g id="node22" class="node">
<title>ast.Name object at 0x7f62f596b970</title>
<path fill="#66cdaa" stroke="black" d="M491.5,-108C491.5,-108 456.5,-108 456.5,-108 450.5,-108 444.5,-102 444.5,-96 444.5,-96 444.5,-84 444.5,-84 444.5,-78 450.5,-72 456.5,-72 456.5,-72 491.5,-72 491.5,-72 497.5,-72 503.5,-78 503.5,-84 503.5,-84 503.5,-96 503.5,-96 503.5,-102 497.5,-108 491.5,-108"/>
<text text-anchor="middle" x="474" y="-86.3" font-family="Times,serif" font-size="14.00">Name</text>
</g>
<!-- ast.BinOp object at 0x7f62f5969450&#45;&gt;ast.Name object at 0x7f62f596b970 -->
<g id="edge23" class="edge">
<title>ast.BinOp object at 0x7f62f5969450&#45;&gt;ast.Name object at 0x7f62f596b970</title>
<path fill="none" stroke="black" d="M439.37,-143.7C444.72,-135.56 451.2,-125.69 457.11,-116.7"/>
<polygon fill="black" stroke="black" points="460.19,-118.38 462.76,-108.1 454.34,-114.54 460.19,-118.38"/>
</g>
<!-- ast.Mod object at 0x7f63026f5b40 -->
<g id="node23" class="node">
<title>ast.Mod object at 0x7f63026f5b40</title>
<path fill="#66cdaa" stroke="black" d="M414,-108C414,-108 384,-108 384,-108 378,-108 372,-102 372,-96 372,-96 372,-84 372,-84 372,-78 378,-72 384,-72 384,-72 414,-72 414,-72 420,-72 426,-78 426,-84 426,-84 426,-96 426,-96 426,-102 420,-108 414,-108"/>
<text text-anchor="middle" x="399" y="-86.3" font-family="Times,serif" font-size="14.00">Mod</text>
</g>
<!-- ast.BinOp object at 0x7f62f5969450&#45;&gt;ast.Mod object at 0x7f63026f5b40 -->
<g id="edge25" class="edge">
<title>ast.BinOp object at 0x7f62f5969450&#45;&gt;ast.Mod object at 0x7f63026f5b40</title>
<path fill="none" stroke="black" d="M420.83,-143.7C417.57,-135.81 413.63,-126.3 410,-117.55"/>
<polygon fill="black" stroke="black" points="413.15,-116 406.09,-108.1 406.68,-118.68 413.15,-116"/>
</g>
<!-- ast.Name object at 0x7f62f5968820 -->
<g id="node24" class="node">
<title>ast.Name object at 0x7f62f5968820</title>
<path fill="#66cdaa" stroke="black" d="M341.5,-108C341.5,-108 306.5,-108 306.5,-108 300.5,-108 294.5,-102 294.5,-96 294.5,-96 294.5,-84 294.5,-84 294.5,-78 300.5,-72 306.5,-72 306.5,-72 341.5,-72 341.5,-72 347.5,-72 353.5,-78 353.5,-84 353.5,-84 353.5,-96 353.5,-96 353.5,-102 347.5,-108 341.5,-108"/>
<text text-anchor="middle" x="324" y="-86.3" font-family="Times,serif" font-size="14.00">Name</text>
</g>
<!-- ast.BinOp object at 0x7f62f5969450&#45;&gt;ast.Name object at 0x7f62f5968820 -->
<g id="edge26" class="edge">
<title>ast.BinOp object at 0x7f62f5969450&#45;&gt;ast.Name object at 0x7f62f5968820</title>
<path fill="none" stroke="black" d="M402.56,-143.88C389.21,-134.89 372.68,-123.76 358.22,-114.03"/>
<polygon fill="black" stroke="black" points="359.79,-110.87 349.54,-108.19 355.88,-116.68 359.79,-110.87"/>
</g>
<!-- ast.Name object at 0x7f62f596b970&#45;&gt;ast.Load object at 0x7f63026f5720 -->
<g id="edge24" class="edge">
<title>ast.Name object at 0x7f62f596b970&#45;&gt;ast.Load object at 0x7f63026f5720</title>
<path fill="none" stroke="black" d="M488.34,-71.7C495.29,-63.3 503.77,-53.07 511.4,-43.86"/>
<polygon fill="black" stroke="black" points="514.14,-46.04 517.83,-36.1 508.75,-41.57 514.14,-46.04"/>
</g>
<!-- ast.Name object at 0x7f62f5968820&#45;&gt;ast.Load object at 0x7f63026f5720 -->
<g id="edge27" class="edge">
<title>ast.Name object at 0x7f62f5968820&#45;&gt;ast.Load object at 0x7f63026f5720</title>
<path fill="none" stroke="black" d="M353.68,-75.67C356.81,-74.39 359.96,-73.14 363,-72 407.83,-55.25 460.62,-39.28 495.11,-29.33"/>
<polygon fill="black" stroke="black" points="496.12,-32.68 504.77,-26.56 494.19,-25.95 496.12,-32.68"/>
</g>
<!-- ast.AugAssign object at 0x7f62f596b340&#45;&gt;ast.Add object at 0x7f63026f5960 -->
<g id="edge33" class="edge">
<title>ast.AugAssign object at 0x7f62f596b340&#45;&gt;ast.Add object at 0x7f63026f5960</title>
<path fill="none" stroke="black" d="M495.93,-215.88C509.66,-206.81 526.71,-195.55 541.54,-185.76"/>
<polygon fill="black" stroke="black" points="543.55,-188.62 549.97,-180.19 539.7,-182.78 543.55,-188.62"/>
</g>
<!-- ast.Name object at 0x7f62f5968a90 -->
<g id="node28" class="node">
<title>ast.Name object at 0x7f62f5968a90</title>
<path fill="#66cdaa" stroke="black" d="M367.5,-180C367.5,-180 332.5,-180 332.5,-180 326.5,-180 320.5,-174 320.5,-168 320.5,-168 320.5,-156 320.5,-156 320.5,-150 326.5,-144 332.5,-144 332.5,-144 367.5,-144 367.5,-144 373.5,-144 379.5,-150 379.5,-156 379.5,-156 379.5,-168 379.5,-168 379.5,-174 373.5,-180 367.5,-180"/>
<text text-anchor="middle" x="350" y="-158.3" font-family="Times,serif" font-size="14.00">Name</text>
</g>
<!-- ast.AugAssign object at 0x7f62f596b340&#45;&gt;ast.Name object at 0x7f62f5968a90 -->
<g id="edge31" class="edge">
<title>ast.AugAssign object at 0x7f62f596b340&#45;&gt;ast.Name object at 0x7f62f5968a90</title>
<path fill="none" stroke="black" d="M440.64,-215.88C424.95,-206.72 405.44,-195.34 388.55,-185.48"/>
<polygon fill="black" stroke="black" points="389.87,-182.21 379.47,-180.19 386.34,-188.25 389.87,-182.21"/>
</g>
<!-- ast.List object at 0x7f62f596a920 -->
<g id="node29" class="node">
<title>ast.List object at 0x7f62f596a920</title>
<path fill="#66cdaa" stroke="black" d="M519,-180C519,-180 489,-180 489,-180 483,-180 477,-174 477,-168 477,-168 477,-156 477,-156 477,-150 483,-144 489,-144 489,-144 519,-144 519,-144 525,-144 531,-150 531,-156 531,-156 531,-168 531,-168 531,-174 525,-180 519,-180"/>
<text text-anchor="middle" x="504" y="-158.3" font-family="Times,serif" font-size="14.00">List</text>
</g>
<!-- ast.AugAssign object at 0x7f62f596b340&#45;&gt;ast.List object at 0x7f62f596a920 -->
<g id="edge34" class="edge">
<title>ast.AugAssign object at 0x7f62f596b340&#45;&gt;ast.List object at 0x7f62f596a920</title>
<path fill="none" stroke="black" d="M478.4,-215.7C482.27,-207.73 486.95,-198.1 491.24,-189.26"/>
<polygon fill="black" stroke="black" points="494.47,-190.63 495.69,-180.1 488.17,-187.57 494.47,-190.63"/>
</g>
<!-- ast.Name object at 0x7f62f5968a90&#45;&gt;ast.Store object at 0x7f63026f5780 -->
<g id="edge32" class="edge">
<title>ast.Name object at 0x7f62f5968a90&#45;&gt;ast.Store object at 0x7f63026f5780</title>
<path fill="none" stroke="black" d="M320.36,-147.57C317.22,-146.31 314.06,-145.09 311,-144 259.16,-125.57 197.57,-109.4 158.87,-99.91"/>
<polygon fill="black" stroke="black" points="159.61,-96.49 149.07,-97.53 157.96,-103.29 159.61,-96.49"/>
</g>
<!-- ast.List object at 0x7f62f596a920&#45;&gt;ast.Load object at 0x7f63026f5720 -->
<g id="edge37" class="edge">
<title>ast.List object at 0x7f62f596a920&#45;&gt;ast.Load object at 0x7f63026f5720</title>
<path fill="none" stroke="black" d="M507.38,-143.87C512.17,-119.56 520.99,-74.82 526.67,-46.01"/>
<polygon fill="black" stroke="black" points="530.11,-46.68 528.61,-36.19 523.24,-45.32 530.11,-46.68"/>
</g>
<!-- ast.Name object at 0x7f62f596bc70 -->
<g id="node30" class="node">
<title>ast.Name object at 0x7f62f596bc70</title>
<path fill="#66cdaa" stroke="black" d="M607.5,-108C607.5,-108 572.5,-108 572.5,-108 566.5,-108 560.5,-102 560.5,-96 560.5,-96 560.5,-84 560.5,-84 560.5,-78 566.5,-72 572.5,-72 572.5,-72 607.5,-72 607.5,-72 613.5,-72 619.5,-78 619.5,-84 619.5,-84 619.5,-96 619.5,-96 619.5,-102 613.5,-108 607.5,-108"/>
<text text-anchor="middle" x="590" y="-86.3" font-family="Times,serif" font-size="14.00">Name</text>
</g>
<!-- ast.List object at 0x7f62f596a920&#45;&gt;ast.Name object at 0x7f62f596bc70 -->
<g id="edge35" class="edge">
<title>ast.List object at 0x7f62f596a920&#45;&gt;ast.Name object at 0x7f62f596bc70</title>
<path fill="none" stroke="black" d="M525.26,-143.7C536.09,-134.88 549.42,-124.03 561.16,-114.47"/>
<polygon fill="black" stroke="black" points="563.44,-117.13 568.99,-108.1 559.02,-111.7 563.44,-117.13"/>
</g>
<!-- ast.Name object at 0x7f62f596bc70&#45;&gt;ast.Load object at 0x7f63026f5720 -->
<g id="edge36" class="edge">
<title>ast.Name object at 0x7f62f596bc70&#45;&gt;ast.Load object at 0x7f63026f5720</title>
<path fill="none" stroke="black" d="M575.66,-71.7C568.71,-63.3 560.23,-53.07 552.6,-43.86"/>
<polygon fill="black" stroke="black" points="555.25,-41.57 546.17,-36.1 549.86,-46.04 555.25,-41.57"/>
</g>
<!-- ast.Name object at 0x7f62f596bfd0 -->
<g id="node32" class="node">
<title>ast.Name object at 0x7f62f596bfd0</title>
<path fill="#66cdaa" stroke="black" d="M868.5,-324C868.5,-324 833.5,-324 833.5,-324 827.5,-324 821.5,-318 821.5,-312 821.5,-312 821.5,-300 821.5,-300 821.5,-294 827.5,-288 833.5,-288 833.5,-288 868.5,-288 868.5,-288 874.5,-288 880.5,-294 880.5,-300 880.5,-300 880.5,-312 880.5,-312 880.5,-318 874.5,-324 868.5,-324"/>
<text text-anchor="middle" x="851" y="-302.3" font-family="Times,serif" font-size="14.00">Name</text>
</g>
<!-- ast.Return object at 0x7f62f5969d20&#45;&gt;ast.Name object at 0x7f62f596bfd0 -->
<g id="edge39" class="edge">
<title>ast.Return object at 0x7f62f5969d20&#45;&gt;ast.Name object at 0x7f62f596bfd0</title>
<path fill="none" stroke="black" d="M632.2,-367.78C678.47,-354.93 762.18,-331.67 811.56,-317.95"/>
<polygon fill="black" stroke="black" points="812.56,-321.31 821.26,-315.26 810.69,-314.57 812.56,-321.31"/>
</g>
<!-- ast.Name object at 0x7f62f596bfd0&#45;&gt;ast.Load object at 0x7f63026f5720 -->
<g id="edge40" class="edge">
<title>ast.Name object at 0x7f62f596bfd0&#45;&gt;ast.Load object at 0x7f63026f5720</title>
<path fill="none" stroke="black" d="M855.55,-287.76C859.63,-269.69 864.22,-240.58 859,-216 843.33,-142.17 833.09,-111.86 769,-72 706.29,-33 618.45,-22.56 569.22,-19.85"/>
<polygon fill="black" stroke="black" points="569.19,-16.35 559.03,-19.37 568.86,-23.34 569.19,-16.35"/>
</g>
</g>
</svg>
