<?xml version="1.0" encoding="UTF-8" standalone="no"?>
<!DOCTYPE svg PUBLIC "-//W3C//DTD SVG 1.1//EN"
 "http://www.w3.org/Graphics/SVG/1.1/DTD/svg11.dtd">
<!-- Generated by graphviz version 2.43.0 (0)
 -->
<!-- Title: %3 Pages: 1 -->
<svg width="992pt" height="692pt"
 viewBox="0.00 0.00 992.00 692.00" xmlns="http://www.w3.org/2000/svg" xmlns:xlink="http://www.w3.org/1999/xlink">
<g id="graph0" class="graph" transform="scale(1 1) rotate(0) translate(4 688)">
<title>%3</title>
<polygon fill="white" stroke="transparent" points="-4,4 -4,-688 988,-688 988,4 -4,4"/>
<!-- ast.Module object at 0x7fb082f7ba90 -->
<g id="node1" class="node">
<title>ast.Module object at 0x7fb082f7ba90</title>
<path fill="#66cdaa" stroke="black" d="M475.5,-684C475.5,-684 440.5,-684 440.5,-684 434.5,-684 428.5,-678 428.5,-672 428.5,-672 428.5,-660 428.5,-660 428.5,-654 434.5,-648 440.5,-648 440.5,-648 475.5,-648 475.5,-648 481.5,-648 487.5,-654 487.5,-660 487.5,-660 487.5,-672 487.5,-672 487.5,-678 481.5,-684 475.5,-684"/>
<text text-anchor="middle" x="458" y="-662.3" font-family="Times,serif" font-size="14.00">Module</text>
</g>
<!-- ast.FunctionDef object at 0x7fb082f78820 -->
<g id="node2" class="node">
<title>ast.FunctionDef object at 0x7fb082f78820</title>
<path fill="#66cdaa" stroke="black" d="M488.5,-612C488.5,-612 427.5,-612 427.5,-612 421.5,-612 415.5,-606 415.5,-600 415.5,-600 415.5,-588 415.5,-588 415.5,-582 421.5,-576 427.5,-576 427.5,-576 488.5,-576 488.5,-576 494.5,-576 500.5,-582 500.5,-588 500.5,-588 500.5,-600 500.5,-600 500.5,-606 494.5,-612 488.5,-612"/>
<text text-anchor="middle" x="458" y="-590.3" font-family="Times,serif" font-size="14.00">FunctionDef</text>
</g>
<!-- ast.Module object at 0x7fb082f7ba90&#45;&gt;ast.FunctionDef object at 0x7fb082f78820 -->
<g id="edge1" class="edge">
<title>ast.Module object at 0x7fb082f7ba90&#45;&gt;ast.FunctionDef object at 0x7fb082f78820</title>
<path fill="none" stroke="black" d="M458,-647.7C458,-639.98 458,-630.71 458,-622.11"/>
<polygon fill="black" stroke="black" points="461.5,-622.1 458,-612.1 454.5,-622.1 461.5,-622.1"/>
</g>
<!-- ast.arguments object at 0x7fb082f781c0 -->
<g id="node3" class="node">
<title>ast.arguments object at 0x7fb082f781c0</title>
<path fill="#66cdaa" stroke="black" d="M243,-540C243,-540 193,-540 193,-540 187,-540 181,-534 181,-528 181,-528 181,-516 181,-516 181,-510 187,-504 193,-504 193,-504 243,-504 243,-504 249,-504 255,-510 255,-516 255,-516 255,-528 255,-528 255,-534 249,-540 243,-540"/>
<text text-anchor="middle" x="218" y="-518.3" font-family="Times,serif" font-size="14.00">arguments</text>
</g>
<!-- ast.FunctionDef object at 0x7fb082f78820&#45;&gt;ast.arguments object at 0x7fb082f781c0 -->
<g id="edge2" class="edge">
<title>ast.FunctionDef object at 0x7fb082f78820&#45;&gt;ast.arguments object at 0x7fb082f781c0</title>
<path fill="none" stroke="black" d="M415.37,-580.57C373.13,-568.25 308.6,-549.42 264.92,-536.69"/>
<polygon fill="black" stroke="black" points="265.7,-533.27 255.12,-533.83 263.74,-539.99 265.7,-533.27"/>
</g>
<!-- ast.Assign object at 0x7fb082f7a8c0 -->
<g id="node5" class="node">
<title>ast.Assign object at 0x7fb082f7a8c0</title>
<path fill="#66cdaa" stroke="black" d="M329,-540C329,-540 299,-540 299,-540 293,-540 287,-534 287,-528 287,-528 287,-516 287,-516 287,-510 293,-504 299,-504 299,-504 329,-504 329,-504 335,-504 341,-510 341,-516 341,-516 341,-528 341,-528 341,-534 335,-540 329,-540"/>
<text text-anchor="middle" x="314" y="-518.3" font-family="Times,serif" font-size="14.00">Assign</text>
</g>
<!-- ast.FunctionDef object at 0x7fb082f78820&#45;&gt;ast.Assign object at 0x7fb082f7a8c0 -->
<g id="edge4" class="edge">
<title>ast.FunctionDef object at 0x7fb082f78820&#45;&gt;ast.Assign object at 0x7fb082f7a8c0</title>
<path fill="none" stroke="black" d="M422.77,-575.88C400.77,-565.18 372.51,-551.44 350.3,-540.65"/>
<polygon fill="black" stroke="black" points="351.72,-537.44 341.2,-536.22 348.66,-543.74 351.72,-537.44"/>
</g>
<!-- ast.For object at 0x7fb082f7bb20 -->
<g id="node10" class="node">
<title>ast.For object at 0x7fb082f7bb20</title>
<path fill="#66cdaa" stroke="black" d="M473,-540C473,-540 443,-540 443,-540 437,-540 431,-534 431,-528 431,-528 431,-516 431,-516 431,-510 437,-504 443,-504 443,-504 473,-504 473,-504 479,-504 485,-510 485,-516 485,-516 485,-528 485,-528 485,-534 479,-540 473,-540"/>
<text text-anchor="middle" x="458" y="-518.3" font-family="Times,serif" font-size="14.00">For</text>
</g>
<!-- ast.FunctionDef object at 0x7fb082f78820&#45;&gt;ast.For object at 0x7fb082f7bb20 -->
<g id="edge9" class="edge">
<title>ast.FunctionDef object at 0x7fb082f78820&#45;&gt;ast.For object at 0x7fb082f7bb20</title>
<path fill="none" stroke="black" d="M458,-575.7C458,-567.98 458,-558.71 458,-550.11"/>
<polygon fill="black" stroke="black" points="461.5,-550.1 458,-540.1 454.5,-550.1 461.5,-550.1"/>
</g>
<!-- ast.Expr object at 0x7fb071045d20 -->
<g id="node35" class="node">
<title>ast.Expr object at 0x7fb071045d20</title>
<path fill="#66cdaa" stroke="black" d="M687,-540C687,-540 657,-540 657,-540 651,-540 645,-534 645,-528 645,-528 645,-516 645,-516 645,-510 651,-504 657,-504 657,-504 687,-504 687,-504 693,-504 699,-510 699,-516 699,-516 699,-528 699,-528 699,-534 693,-540 687,-540"/>
<text text-anchor="middle" x="672" y="-518.3" font-family="Times,serif" font-size="14.00">Expr</text>
</g>
<!-- ast.FunctionDef object at 0x7fb082f78820&#45;&gt;ast.Expr object at 0x7fb071045d20 -->
<g id="edge46" class="edge">
<title>ast.FunctionDef object at 0x7fb082f78820&#45;&gt;ast.Expr object at 0x7fb071045d20</title>
<path fill="none" stroke="black" d="M500.54,-579.09C539.92,-566.2 597.89,-547.24 635.29,-535.01"/>
<polygon fill="black" stroke="black" points="636.39,-538.33 644.8,-531.9 634.21,-531.68 636.39,-538.33"/>
</g>
<!-- ast.Return object at 0x7fb071044f10 -->
<g id="node39" class="node">
<title>ast.Return object at 0x7fb071044f10</title>
<path fill="#66cdaa" stroke="black" d="M847,-540C847,-540 817,-540 817,-540 811,-540 805,-534 805,-528 805,-528 805,-516 805,-516 805,-510 811,-504 817,-504 817,-504 847,-504 847,-504 853,-504 859,-510 859,-516 859,-516 859,-528 859,-528 859,-534 853,-540 847,-540"/>
<text text-anchor="middle" x="832" y="-518.3" font-family="Times,serif" font-size="14.00">Return</text>
</g>
<!-- ast.FunctionDef object at 0x7fb082f78820&#45;&gt;ast.Return object at 0x7fb071044f10 -->
<g id="edge52" class="edge">
<title>ast.FunctionDef object at 0x7fb082f78820&#45;&gt;ast.Return object at 0x7fb071044f10</title>
<path fill="none" stroke="black" d="M500.54,-585.04C574.29,-571.23 724.7,-543.08 794.66,-529.99"/>
<polygon fill="black" stroke="black" points="795.6,-533.37 804.78,-528.09 794.31,-526.49 795.6,-533.37"/>
</g>
<!-- ast.arg object at 0x7fb082f7bac0 -->
<g id="node4" class="node">
<title>ast.arg object at 0x7fb082f7bac0</title>
<path fill="#66cdaa" stroke="black" d="M219,-468C219,-468 189,-468 189,-468 183,-468 177,-462 177,-456 177,-456 177,-444 177,-444 177,-438 183,-432 189,-432 189,-432 219,-432 219,-432 225,-432 231,-438 231,-444 231,-444 231,-456 231,-456 231,-462 225,-468 219,-468"/>
<text text-anchor="middle" x="204" y="-446.3" font-family="Times,serif" font-size="14.00">arg</text>
</g>
<!-- ast.arguments object at 0x7fb082f781c0&#45;&gt;ast.arg object at 0x7fb082f7bac0 -->
<g id="edge3" class="edge">
<title>ast.arguments object at 0x7fb082f781c0&#45;&gt;ast.arg object at 0x7fb082f7bac0</title>
<path fill="none" stroke="black" d="M214.54,-503.7C213,-495.98 211.14,-486.71 209.42,-478.11"/>
<polygon fill="black" stroke="black" points="212.81,-477.22 207.42,-468.1 205.95,-478.6 212.81,-477.22"/>
</g>
<!-- ast.Name object at 0x7fb082f7ba30 -->
<g id="node6" class="node">
<title>ast.Name object at 0x7fb082f7ba30</title>
<path fill="#66cdaa" stroke="black" d="M329,-468C329,-468 299,-468 299,-468 293,-468 287,-462 287,-456 287,-456 287,-444 287,-444 287,-438 293,-432 299,-432 299,-432 329,-432 329,-432 335,-432 341,-438 341,-444 341,-444 341,-456 341,-456 341,-462 335,-468 329,-468"/>
<text text-anchor="middle" x="314" y="-446.3" font-family="Times,serif" font-size="14.00">Name</text>
</g>
<!-- ast.Assign object at 0x7fb082f7a8c0&#45;&gt;ast.Name object at 0x7fb082f7ba30 -->
<g id="edge5" class="edge">
<title>ast.Assign object at 0x7fb082f7a8c0&#45;&gt;ast.Name object at 0x7fb082f7ba30</title>
<path fill="none" stroke="black" d="M314,-503.7C314,-495.98 314,-486.71 314,-478.11"/>
<polygon fill="black" stroke="black" points="317.5,-478.1 314,-468.1 310.5,-478.1 317.5,-478.1"/>
</g>
<!-- ast.List object at 0x7fb082f7baf0 -->
<g id="node8" class="node">
<title>ast.List object at 0x7fb082f7baf0</title>
<path fill="#66cdaa" stroke="black" d="M42,-252C42,-252 12,-252 12,-252 6,-252 0,-246 0,-240 0,-240 0,-228 0,-228 0,-222 6,-216 12,-216 12,-216 42,-216 42,-216 48,-216 54,-222 54,-228 54,-228 54,-240 54,-240 54,-246 48,-252 42,-252"/>
<text text-anchor="middle" x="27" y="-230.3" font-family="Times,serif" font-size="14.00">List</text>
</g>
<!-- ast.Assign object at 0x7fb082f7a8c0&#45;&gt;ast.List object at 0x7fb082f7baf0 -->
<g id="edge7" class="edge">
<title>ast.Assign object at 0x7fb082f7a8c0&#45;&gt;ast.List object at 0x7fb082f7baf0</title>
<path fill="none" stroke="black" d="M300.72,-503.71C286.38,-485.35 262.54,-455.76 240,-432 177.28,-365.88 96.81,-294.81 55.02,-258.82"/>
<polygon fill="black" stroke="black" points="57.06,-255.96 47.19,-252.11 52.5,-261.27 57.06,-255.96"/>
</g>
<!-- ast.Store object at 0x7fb086bedfc0 -->
<g id="node7" class="node">
<title>ast.Store object at 0x7fb086bedfc0</title>
<path fill="#66cdaa" stroke="black" d="M346,-396C346,-396 316,-396 316,-396 310,-396 304,-390 304,-384 304,-384 304,-372 304,-372 304,-366 310,-360 316,-360 316,-360 346,-360 346,-360 352,-360 358,-366 358,-372 358,-372 358,-384 358,-384 358,-390 352,-396 346,-396"/>
<text text-anchor="middle" x="331" y="-374.3" font-family="Times,serif" font-size="14.00">Store</text>
</g>
<!-- ast.Name object at 0x7fb082f7ba30&#45;&gt;ast.Store object at 0x7fb086bedfc0 -->
<g id="edge6" class="edge">
<title>ast.Name object at 0x7fb082f7ba30&#45;&gt;ast.Store object at 0x7fb086bedfc0</title>
<path fill="none" stroke="black" d="M318.2,-431.7C320.1,-423.9 322.38,-414.51 324.48,-405.83"/>
<polygon fill="black" stroke="black" points="327.89,-406.65 326.85,-396.1 321.08,-405 327.89,-406.65"/>
</g>
<!-- ast.Load object at 0x7fb086bedf60 -->
<g id="node9" class="node">
<title>ast.Load object at 0x7fb086bedf60</title>
<path fill="#66cdaa" stroke="black" d="M473,-36C473,-36 443,-36 443,-36 437,-36 431,-30 431,-24 431,-24 431,-12 431,-12 431,-6 437,0 443,0 443,0 473,0 473,0 479,0 485,-6 485,-12 485,-12 485,-24 485,-24 485,-30 479,-36 473,-36"/>
<text text-anchor="middle" x="458" y="-14.3" font-family="Times,serif" font-size="14.00">Load</text>
</g>
<!-- ast.List object at 0x7fb082f7baf0&#45;&gt;ast.Load object at 0x7fb086bedf60 -->
<g id="edge8" class="edge">
<title>ast.List object at 0x7fb082f7baf0&#45;&gt;ast.Load object at 0x7fb086bedf60</title>
<path fill="none" stroke="black" d="M19.43,-215.89C6.35,-183.4 -15.82,-112.41 20,-72 46.47,-42.14 320.04,-25.77 420.91,-20.72"/>
<polygon fill="black" stroke="black" points="421.14,-24.21 430.95,-20.23 420.79,-17.22 421.14,-24.21"/>
</g>
<!-- ast.Name object at 0x7fb082f78790 -->
<g id="node11" class="node">
<title>ast.Name object at 0x7fb082f78790</title>
<path fill="#66cdaa" stroke="black" d="M401,-468C401,-468 371,-468 371,-468 365,-468 359,-462 359,-456 359,-456 359,-444 359,-444 359,-438 365,-432 371,-432 371,-432 401,-432 401,-432 407,-432 413,-438 413,-444 413,-444 413,-456 413,-456 413,-462 407,-468 401,-468"/>
<text text-anchor="middle" x="386" y="-446.3" font-family="Times,serif" font-size="14.00">Name</text>
</g>
<!-- ast.For object at 0x7fb082f7bb20&#45;&gt;ast.Name object at 0x7fb082f78790 -->
<g id="edge10" class="edge">
<title>ast.For object at 0x7fb082f7bb20&#45;&gt;ast.Name object at 0x7fb082f78790</title>
<path fill="none" stroke="black" d="M440.2,-503.7C431.4,-495.14 420.62,-484.66 411,-475.3"/>
<polygon fill="black" stroke="black" points="413.2,-472.57 403.59,-468.1 408.32,-477.58 413.2,-472.57"/>
</g>
<!-- ast.Call object at 0x7fb083545ff0 -->
<g id="node12" class="node">
<title>ast.Call object at 0x7fb083545ff0</title>
<path fill="#66cdaa" stroke="black" d="M607,-468C607,-468 577,-468 577,-468 571,-468 565,-462 565,-456 565,-456 565,-444 565,-444 565,-438 571,-432 577,-432 577,-432 607,-432 607,-432 613,-432 619,-438 619,-444 619,-444 619,-456 619,-456 619,-462 613,-468 607,-468"/>
<text text-anchor="middle" x="592" y="-446.3" font-family="Times,serif" font-size="14.00">Call</text>
</g>
<!-- ast.For object at 0x7fb082f7bb20&#45;&gt;ast.Call object at 0x7fb083545ff0 -->
<g id="edge12" class="edge">
<title>ast.For object at 0x7fb082f7bb20&#45;&gt;ast.Call object at 0x7fb083545ff0</title>
<path fill="none" stroke="black" d="M485.12,-506.83C505.46,-496.21 533.51,-481.55 555.78,-469.92"/>
<polygon fill="black" stroke="black" points="557.68,-472.88 564.92,-465.14 554.44,-466.67 557.68,-472.88"/>
</g>
<!-- ast.If object at 0x7fb0835479d0 -->
<g id="node19" class="node">
<title>ast.If object at 0x7fb0835479d0</title>
<path fill="#66cdaa" stroke="black" d="M473,-468C473,-468 443,-468 443,-468 437,-468 431,-462 431,-456 431,-456 431,-444 431,-444 431,-438 437,-432 443,-432 443,-432 473,-432 473,-432 479,-432 485,-438 485,-444 485,-444 485,-456 485,-456 485,-462 479,-468 473,-468"/>
<text text-anchor="middle" x="458" y="-446.3" font-family="Times,serif" font-size="14.00">If</text>
</g>
<!-- ast.For object at 0x7fb082f7bb20&#45;&gt;ast.If object at 0x7fb0835479d0 -->
<g id="edge20" class="edge">
<title>ast.For object at 0x7fb082f7bb20&#45;&gt;ast.If object at 0x7fb0835479d0</title>
<path fill="none" stroke="black" d="M458,-503.7C458,-495.98 458,-486.71 458,-478.11"/>
<polygon fill="black" stroke="black" points="461.5,-478.1 458,-468.1 454.5,-478.1 461.5,-478.1"/>
</g>
<!-- ast.Name object at 0x7fb082f78790&#45;&gt;ast.Store object at 0x7fb086bedfc0 -->
<g id="edge11" class="edge">
<title>ast.Name object at 0x7fb082f78790&#45;&gt;ast.Store object at 0x7fb086bedfc0</title>
<path fill="none" stroke="black" d="M372.4,-431.7C365.88,-423.39 357.93,-413.28 350.75,-404.14"/>
<polygon fill="black" stroke="black" points="353.37,-401.81 344.44,-396.1 347.87,-406.13 353.37,-401.81"/>
</g>
<!-- ast.Name object at 0x7fb083545ae0 -->
<g id="node13" class="node">
<title>ast.Name object at 0x7fb083545ae0</title>
<path fill="#66cdaa" stroke="black" d="M568,-396C568,-396 538,-396 538,-396 532,-396 526,-390 526,-384 526,-384 526,-372 526,-372 526,-366 532,-360 538,-360 538,-360 568,-360 568,-360 574,-360 580,-366 580,-372 580,-372 580,-384 580,-384 580,-390 574,-396 568,-396"/>
<text text-anchor="middle" x="553" y="-374.3" font-family="Times,serif" font-size="14.00">Name</text>
</g>
<!-- ast.Call object at 0x7fb083545ff0&#45;&gt;ast.Name object at 0x7fb083545ae0 -->
<g id="edge13" class="edge">
<title>ast.Call object at 0x7fb083545ff0&#45;&gt;ast.Name object at 0x7fb083545ae0</title>
<path fill="none" stroke="black" d="M582.36,-431.7C577.87,-423.64 572.44,-413.89 567.48,-404.98"/>
<polygon fill="black" stroke="black" points="570.45,-403.14 562.53,-396.1 564.34,-406.54 570.45,-403.14"/>
</g>
<!-- ast.Constant object at 0x7fb083545240 -->
<g id="node14" class="node">
<title>ast.Constant object at 0x7fb083545240</title>
<path fill="#66cdaa" stroke="black" d="M651.5,-396C651.5,-396 610.5,-396 610.5,-396 604.5,-396 598.5,-390 598.5,-384 598.5,-384 598.5,-372 598.5,-372 598.5,-366 604.5,-360 610.5,-360 610.5,-360 651.5,-360 651.5,-360 657.5,-360 663.5,-366 663.5,-372 663.5,-372 663.5,-384 663.5,-384 663.5,-390 657.5,-396 651.5,-396"/>
<text text-anchor="middle" x="631" y="-374.3" font-family="Times,serif" font-size="14.00">Constant</text>
</g>
<!-- ast.Call object at 0x7fb083545ff0&#45;&gt;ast.Constant object at 0x7fb083545240 -->
<g id="edge15" class="edge">
<title>ast.Call object at 0x7fb083545ff0&#45;&gt;ast.Constant object at 0x7fb083545240</title>
<path fill="none" stroke="black" d="M601.64,-431.7C606.13,-423.64 611.56,-413.89 616.52,-404.98"/>
<polygon fill="black" stroke="black" points="619.66,-406.54 621.47,-396.1 613.55,-403.14 619.66,-406.54"/>
</g>
<!-- ast.BinOp object at 0x7fb083546350 -->
<g id="node15" class="node">
<title>ast.BinOp object at 0x7fb083546350</title>
<path fill="#66cdaa" stroke="black" d="M724,-396C724,-396 694,-396 694,-396 688,-396 682,-390 682,-384 682,-384 682,-372 682,-372 682,-366 688,-360 694,-360 694,-360 724,-360 724,-360 730,-360 736,-366 736,-372 736,-372 736,-384 736,-384 736,-390 730,-396 724,-396"/>
<text text-anchor="middle" x="709" y="-374.3" font-family="Times,serif" font-size="14.00">BinOp</text>
</g>
<!-- ast.Call object at 0x7fb083545ff0&#45;&gt;ast.BinOp object at 0x7fb083546350 -->
<g id="edge16" class="edge">
<title>ast.Call object at 0x7fb083545ff0&#45;&gt;ast.BinOp object at 0x7fb083546350</title>
<path fill="none" stroke="black" d="M619.14,-432.76C635.12,-423.2 655.53,-410.99 672.86,-400.62"/>
<polygon fill="black" stroke="black" points="674.82,-403.53 681.61,-395.39 671.23,-397.52 674.82,-403.53"/>
</g>
<!-- ast.Name object at 0x7fb083545ae0&#45;&gt;ast.Load object at 0x7fb086bedf60 -->
<g id="edge14" class="edge">
<title>ast.Name object at 0x7fb083545ae0&#45;&gt;ast.Load object at 0x7fb086bedf60</title>
<path fill="none" stroke="black" d="M559.05,-359.67C578.64,-302.27 637.12,-119.26 604,-72 579.6,-37.18 529.86,-25.15 495.26,-21.04"/>
<polygon fill="black" stroke="black" points="495.36,-17.53 485.05,-20 494.65,-24.5 495.36,-17.53"/>
</g>
<!-- ast.Constant object at 0x7fb083547430 -->
<g id="node16" class="node">
<title>ast.Constant object at 0x7fb083547430</title>
<path fill="#66cdaa" stroke="black" d="M651.5,-324C651.5,-324 610.5,-324 610.5,-324 604.5,-324 598.5,-318 598.5,-312 598.5,-312 598.5,-300 598.5,-300 598.5,-294 604.5,-288 610.5,-288 610.5,-288 651.5,-288 651.5,-288 657.5,-288 663.5,-294 663.5,-300 663.5,-300 663.5,-312 663.5,-312 663.5,-318 657.5,-324 651.5,-324"/>
<text text-anchor="middle" x="631" y="-302.3" font-family="Times,serif" font-size="14.00">Constant</text>
</g>
<!-- ast.BinOp object at 0x7fb083546350&#45;&gt;ast.Constant object at 0x7fb083547430 -->
<g id="edge17" class="edge">
<title>ast.BinOp object at 0x7fb083546350&#45;&gt;ast.Constant object at 0x7fb083547430</title>
<path fill="none" stroke="black" d="M689.72,-359.7C680.08,-351.05 668.27,-340.45 657.77,-331.03"/>
<polygon fill="black" stroke="black" points="659.84,-328.18 650.06,-324.1 655.16,-333.39 659.84,-328.18"/>
</g>
<!-- ast.Add object at 0x7fb086bee1a0 -->
<g id="node17" class="node">
<title>ast.Add object at 0x7fb086bee1a0</title>
<path fill="#66cdaa" stroke="black" d="M724,-324C724,-324 694,-324 694,-324 688,-324 682,-318 682,-312 682,-312 682,-300 682,-300 682,-294 688,-288 694,-288 694,-288 724,-288 724,-288 730,-288 736,-294 736,-300 736,-300 736,-312 736,-312 736,-318 730,-324 724,-324"/>
<text text-anchor="middle" x="709" y="-302.3" font-family="Times,serif" font-size="14.00">Add</text>
</g>
<!-- ast.BinOp object at 0x7fb083546350&#45;&gt;ast.Add object at 0x7fb086bee1a0 -->
<g id="edge18" class="edge">
<title>ast.BinOp object at 0x7fb083546350&#45;&gt;ast.Add object at 0x7fb086bee1a0</title>
<path fill="none" stroke="black" d="M709,-359.7C709,-351.98 709,-342.71 709,-334.11"/>
<polygon fill="black" stroke="black" points="712.5,-334.1 709,-324.1 705.5,-334.1 712.5,-334.1"/>
</g>
<!-- ast.Constant object at 0x7fb0835467d0 -->
<g id="node18" class="node">
<title>ast.Constant object at 0x7fb0835467d0</title>
<path fill="#66cdaa" stroke="black" d="M807.5,-324C807.5,-324 766.5,-324 766.5,-324 760.5,-324 754.5,-318 754.5,-312 754.5,-312 754.5,-300 754.5,-300 754.5,-294 760.5,-288 766.5,-288 766.5,-288 807.5,-288 807.5,-288 813.5,-288 819.5,-294 819.5,-300 819.5,-300 819.5,-312 819.5,-312 819.5,-318 813.5,-324 807.5,-324"/>
<text text-anchor="middle" x="787" y="-302.3" font-family="Times,serif" font-size="14.00">Constant</text>
</g>
<!-- ast.BinOp object at 0x7fb083546350&#45;&gt;ast.Constant object at 0x7fb0835467d0 -->
<g id="edge19" class="edge">
<title>ast.BinOp object at 0x7fb083546350&#45;&gt;ast.Constant object at 0x7fb0835467d0</title>
<path fill="none" stroke="black" d="M728.28,-359.7C737.92,-351.05 749.73,-340.45 760.23,-331.03"/>
<polygon fill="black" stroke="black" points="762.84,-333.39 767.94,-324.1 758.16,-328.18 762.84,-333.39"/>
</g>
<!-- ast.Compare object at 0x7fb083547ca0 -->
<g id="node20" class="node">
<title>ast.Compare object at 0x7fb083547ca0</title>
<path fill="#66cdaa" stroke="black" d="M178.5,-252C178.5,-252 135.5,-252 135.5,-252 129.5,-252 123.5,-246 123.5,-240 123.5,-240 123.5,-228 123.5,-228 123.5,-222 129.5,-216 135.5,-216 135.5,-216 178.5,-216 178.5,-216 184.5,-216 190.5,-222 190.5,-228 190.5,-228 190.5,-240 190.5,-240 190.5,-246 184.5,-252 178.5,-252"/>
<text text-anchor="middle" x="157" y="-230.3" font-family="Times,serif" font-size="14.00">Compare</text>
</g>
<!-- ast.If object at 0x7fb0835479d0&#45;&gt;ast.Compare object at 0x7fb083547ca0 -->
<g id="edge21" class="edge">
<title>ast.If object at 0x7fb0835479d0&#45;&gt;ast.Compare object at 0x7fb083547ca0</title>
<path fill="none" stroke="black" d="M442.23,-431.74C412.1,-399.62 343.07,-330.11 273,-288 249.75,-274.03 222.19,-261.29 199.77,-251.81"/>
<polygon fill="black" stroke="black" points="201.08,-248.56 190.5,-247.95 198.39,-255.03 201.08,-248.56"/>
</g>
<!-- ast.Expr object at 0x7fb071044e50 -->
<g id="node26" class="node">
<title>ast.Expr object at 0x7fb071044e50</title>
<path fill="#66cdaa" stroke="black" d="M468,-396C468,-396 438,-396 438,-396 432,-396 426,-390 426,-384 426,-384 426,-372 426,-372 426,-366 432,-360 438,-360 438,-360 468,-360 468,-360 474,-360 480,-366 480,-372 480,-372 480,-384 480,-384 480,-390 474,-396 468,-396"/>
<text text-anchor="middle" x="453" y="-374.3" font-family="Times,serif" font-size="14.00">Expr</text>
</g>
<!-- ast.If object at 0x7fb0835479d0&#45;&gt;ast.Expr object at 0x7fb071044e50 -->
<g id="edge31" class="edge">
<title>ast.If object at 0x7fb0835479d0&#45;&gt;ast.Expr object at 0x7fb071044e50</title>
<path fill="none" stroke="black" d="M456.76,-431.7C456.21,-423.98 455.55,-414.71 454.94,-406.11"/>
<polygon fill="black" stroke="black" points="458.43,-405.83 454.22,-396.1 451.44,-406.33 458.43,-405.83"/>
</g>
<!-- ast.Subscript object at 0x7fb083547d00 -->
<g id="node21" class="node">
<title>ast.Subscript object at 0x7fb083547d00</title>
<path fill="#66cdaa" stroke="black" d="M205,-180C205,-180 161,-180 161,-180 155,-180 149,-174 149,-168 149,-168 149,-156 149,-156 149,-150 155,-144 161,-144 161,-144 205,-144 205,-144 211,-144 217,-150 217,-156 217,-156 217,-168 217,-168 217,-174 211,-180 205,-180"/>
<text text-anchor="middle" x="183" y="-158.3" font-family="Times,serif" font-size="14.00">Subscript</text>
</g>
<!-- ast.Compare object at 0x7fb083547ca0&#45;&gt;ast.Subscript object at 0x7fb083547d00 -->
<g id="edge22" class="edge">
<title>ast.Compare object at 0x7fb083547ca0&#45;&gt;ast.Subscript object at 0x7fb083547d00</title>
<path fill="none" stroke="black" d="M163.43,-215.7C166.36,-207.81 169.89,-198.3 173.14,-189.55"/>
<polygon fill="black" stroke="black" points="176.45,-190.7 176.65,-180.1 169.88,-188.26 176.45,-190.7"/>
</g>
<!-- ast.NotIn object at 0x7fb086beebf0 -->
<g id="node24" class="node">
<title>ast.NotIn object at 0x7fb086beebf0</title>
<path fill="#66cdaa" stroke="black" d="M81,-180C81,-180 51,-180 51,-180 45,-180 39,-174 39,-168 39,-168 39,-156 39,-156 39,-150 45,-144 51,-144 51,-144 81,-144 81,-144 87,-144 93,-150 93,-156 93,-156 93,-168 93,-168 93,-174 87,-180 81,-180"/>
<text text-anchor="middle" x="66" y="-158.3" font-family="Times,serif" font-size="14.00">NotIn</text>
</g>
<!-- ast.Compare object at 0x7fb083547ca0&#45;&gt;ast.NotIn object at 0x7fb086beebf0 -->
<g id="edge28" class="edge">
<title>ast.Compare object at 0x7fb083547ca0&#45;&gt;ast.NotIn object at 0x7fb086beebf0</title>
<path fill="none" stroke="black" d="M134.51,-215.7C123.04,-206.88 108.94,-196.03 96.52,-186.47"/>
<polygon fill="black" stroke="black" points="98.3,-183.43 88.24,-180.1 94.03,-188.98 98.3,-183.43"/>
</g>
<!-- ast.Name object at 0x7fb071bd89d0 -->
<g id="node25" class="node">
<title>ast.Name object at 0x7fb071bd89d0</title>
<path fill="#66cdaa" stroke="black" d="M71,-108C71,-108 41,-108 41,-108 35,-108 29,-102 29,-96 29,-96 29,-84 29,-84 29,-78 35,-72 41,-72 41,-72 71,-72 71,-72 77,-72 83,-78 83,-84 83,-84 83,-96 83,-96 83,-102 77,-108 71,-108"/>
<text text-anchor="middle" x="56" y="-86.3" font-family="Times,serif" font-size="14.00">Name</text>
</g>
<!-- ast.Compare object at 0x7fb083547ca0&#45;&gt;ast.Name object at 0x7fb071bd89d0 -->
<g id="edge29" class="edge">
<title>ast.Compare object at 0x7fb083547ca0&#45;&gt;ast.Name object at 0x7fb071bd89d0</title>
<path fill="none" stroke="black" d="M147.44,-215.74C137.04,-197.41 119.54,-167.85 102,-144 94.93,-134.38 86.53,-124.36 78.85,-115.65"/>
<polygon fill="black" stroke="black" points="81.35,-113.19 72.07,-108.08 76.13,-117.86 81.35,-113.19"/>
</g>
<!-- ast.Subscript object at 0x7fb083547d00&#45;&gt;ast.Load object at 0x7fb086bedf60 -->
<g id="edge27" class="edge">
<title>ast.Subscript object at 0x7fb083547d00&#45;&gt;ast.Load object at 0x7fb086bedf60</title>
<path fill="none" stroke="black" d="M181.53,-143.67C180.85,-123.58 183.06,-90.82 202,-72 232.42,-41.77 357.43,-27.29 420.8,-21.78"/>
<polygon fill="black" stroke="black" points="421.12,-25.27 430.79,-20.94 420.53,-18.29 421.12,-25.27"/>
</g>
<!-- ast.Name object at 0x7fb071bd8a60 -->
<g id="node22" class="node">
<title>ast.Name object at 0x7fb071bd8a60</title>
<path fill="#66cdaa" stroke="black" d="M253,-108C253,-108 223,-108 223,-108 217,-108 211,-102 211,-96 211,-96 211,-84 211,-84 211,-78 217,-72 223,-72 223,-72 253,-72 253,-72 259,-72 265,-78 265,-84 265,-84 265,-96 265,-96 265,-102 259,-108 253,-108"/>
<text text-anchor="middle" x="238" y="-86.3" font-family="Times,serif" font-size="14.00">Name</text>
</g>
<!-- ast.Subscript object at 0x7fb083547d00&#45;&gt;ast.Name object at 0x7fb071bd8a60 -->
<g id="edge23" class="edge">
<title>ast.Subscript object at 0x7fb083547d00&#45;&gt;ast.Name object at 0x7fb071bd8a60</title>
<path fill="none" stroke="black" d="M196.6,-143.7C203.12,-135.39 211.07,-125.28 218.25,-116.14"/>
<polygon fill="black" stroke="black" points="221.13,-118.13 224.56,-108.1 215.63,-113.81 221.13,-118.13"/>
</g>
<!-- ast.Name object at 0x7fb071bd8400 -->
<g id="node23" class="node">
<title>ast.Name object at 0x7fb071bd8400</title>
<path fill="#66cdaa" stroke="black" d="M143,-108C143,-108 113,-108 113,-108 107,-108 101,-102 101,-96 101,-96 101,-84 101,-84 101,-78 107,-72 113,-72 113,-72 143,-72 143,-72 149,-72 155,-78 155,-84 155,-84 155,-96 155,-96 155,-102 149,-108 143,-108"/>
<text text-anchor="middle" x="128" y="-86.3" font-family="Times,serif" font-size="14.00">Name</text>
</g>
<!-- ast.Subscript object at 0x7fb083547d00&#45;&gt;ast.Name object at 0x7fb071bd8400 -->
<g id="edge25" class="edge">
<title>ast.Subscript object at 0x7fb083547d00&#45;&gt;ast.Name object at 0x7fb071bd8400</title>
<path fill="none" stroke="black" d="M169.4,-143.7C162.88,-135.39 154.93,-125.28 147.75,-116.14"/>
<polygon fill="black" stroke="black" points="150.37,-113.81 141.44,-108.1 144.87,-118.13 150.37,-113.81"/>
</g>
<!-- ast.Name object at 0x7fb071bd8a60&#45;&gt;ast.Load object at 0x7fb086bedf60 -->
<g id="edge24" class="edge">
<title>ast.Name object at 0x7fb071bd8a60&#45;&gt;ast.Load object at 0x7fb086bedf60</title>
<path fill="none" stroke="black" d="M265.32,-75.54C268.22,-74.28 271.15,-73.07 274,-72 323.75,-53.23 383.17,-37.22 420.75,-27.85"/>
<polygon fill="black" stroke="black" points="421.87,-31.18 430.74,-25.39 420.19,-24.39 421.87,-31.18"/>
</g>
<!-- ast.Name object at 0x7fb071bd8400&#45;&gt;ast.Load object at 0x7fb086bedf60 -->
<g id="edge26" class="edge">
<title>ast.Name object at 0x7fb071bd8400&#45;&gt;ast.Load object at 0x7fb086bedf60</title>
<path fill="none" stroke="black" d="M155.06,-76.84C159.65,-75.05 164.42,-73.35 169,-72 257.47,-45.87 365.17,-30.21 420.78,-23.26"/>
<polygon fill="black" stroke="black" points="421.36,-26.72 430.86,-22.03 420.51,-19.77 421.36,-26.72"/>
</g>
<!-- ast.Name object at 0x7fb071bd89d0&#45;&gt;ast.Load object at 0x7fb086bedf60 -->
<g id="edge30" class="edge">
<title>ast.Name object at 0x7fb071bd89d0&#45;&gt;ast.Load object at 0x7fb086bedf60</title>
<path fill="none" stroke="black" d="M83.18,-75.14C86.11,-73.95 89.09,-72.88 92,-72 208.71,-36.85 353.6,-24.69 420.69,-20.75"/>
<polygon fill="black" stroke="black" points="420.98,-24.24 430.77,-20.18 420.59,-17.25 420.98,-24.24"/>
</g>
<!-- ast.Call object at 0x7fb071046e90 -->
<g id="node27" class="node">
<title>ast.Call object at 0x7fb071046e90</title>
<path fill="#66cdaa" stroke="black" d="M466,-324C466,-324 436,-324 436,-324 430,-324 424,-318 424,-312 424,-312 424,-300 424,-300 424,-294 430,-288 436,-288 436,-288 466,-288 466,-288 472,-288 478,-294 478,-300 478,-300 478,-312 478,-312 478,-318 472,-324 466,-324"/>
<text text-anchor="middle" x="451" y="-302.3" font-family="Times,serif" font-size="14.00">Call</text>
</g>
<!-- ast.Expr object at 0x7fb071044e50&#45;&gt;ast.Call object at 0x7fb071046e90 -->
<g id="edge32" class="edge">
<title>ast.Expr object at 0x7fb071044e50&#45;&gt;ast.Call object at 0x7fb071046e90</title>
<path fill="none" stroke="black" d="M452.51,-359.7C452.29,-351.98 452.02,-342.71 451.77,-334.11"/>
<polygon fill="black" stroke="black" points="455.27,-334 451.49,-324.1 448.28,-334.2 455.27,-334"/>
</g>
<!-- ast.Attribute object at 0x7fb0710456f0 -->
<g id="node28" class="node">
<title>ast.Attribute object at 0x7fb0710456f0</title>
<path fill="#66cdaa" stroke="black" d="M376.5,-180C376.5,-180 335.5,-180 335.5,-180 329.5,-180 323.5,-174 323.5,-168 323.5,-168 323.5,-156 323.5,-156 323.5,-150 329.5,-144 335.5,-144 335.5,-144 376.5,-144 376.5,-144 382.5,-144 388.5,-150 388.5,-156 388.5,-156 388.5,-168 388.5,-168 388.5,-174 382.5,-180 376.5,-180"/>
<text text-anchor="middle" x="356" y="-158.3" font-family="Times,serif" font-size="14.00">Attribute</text>
</g>
<!-- ast.Call object at 0x7fb071046e90&#45;&gt;ast.Attribute object at 0x7fb0710456f0 -->
<g id="edge33" class="edge">
<title>ast.Call object at 0x7fb071046e90&#45;&gt;ast.Attribute object at 0x7fb0710456f0</title>
<path fill="none" stroke="black" d="M439.28,-287.85C432.22,-277.49 423.06,-264.01 415,-252 400.75,-230.76 384.72,-206.57 372.98,-188.77"/>
<polygon fill="black" stroke="black" points="375.68,-186.52 367.25,-180.1 369.84,-190.37 375.68,-186.52"/>
</g>
<!-- ast.Call object at 0x7fb071044400 -->
<g id="node30" class="node">
<title>ast.Call object at 0x7fb071044400</title>
<path fill="#66cdaa" stroke="black" d="M466,-252C466,-252 436,-252 436,-252 430,-252 424,-246 424,-240 424,-240 424,-228 424,-228 424,-222 430,-216 436,-216 436,-216 466,-216 466,-216 472,-216 478,-222 478,-228 478,-228 478,-240 478,-240 478,-246 472,-252 466,-252"/>
<text text-anchor="middle" x="451" y="-230.3" font-family="Times,serif" font-size="14.00">Call</text>
</g>
<!-- ast.Call object at 0x7fb071046e90&#45;&gt;ast.Call object at 0x7fb071044400 -->
<g id="edge37" class="edge">
<title>ast.Call object at 0x7fb071046e90&#45;&gt;ast.Call object at 0x7fb071044400</title>
<path fill="none" stroke="black" d="M451,-287.7C451,-279.98 451,-270.71 451,-262.11"/>
<polygon fill="black" stroke="black" points="454.5,-262.1 451,-252.1 447.5,-262.1 454.5,-262.1"/>
</g>
<!-- ast.Attribute object at 0x7fb0710456f0&#45;&gt;ast.Load object at 0x7fb086bedf60 -->
<g id="edge36" class="edge">
<title>ast.Attribute object at 0x7fb0710456f0&#45;&gt;ast.Load object at 0x7fb086bedf60</title>
<path fill="none" stroke="black" d="M366.62,-143.94C378.08,-125.78 397.11,-96.35 415,-72 421.8,-62.74 429.63,-52.88 436.72,-44.22"/>
<polygon fill="black" stroke="black" points="439.56,-46.27 443.23,-36.33 434.17,-41.81 439.56,-46.27"/>
</g>
<!-- ast.Name object at 0x7fb071047a90 -->
<g id="node29" class="node">
<title>ast.Name object at 0x7fb071047a90</title>
<path fill="#66cdaa" stroke="black" d="M325,-108C325,-108 295,-108 295,-108 289,-108 283,-102 283,-96 283,-96 283,-84 283,-84 283,-78 289,-72 295,-72 295,-72 325,-72 325,-72 331,-72 337,-78 337,-84 337,-84 337,-96 337,-96 337,-102 331,-108 325,-108"/>
<text text-anchor="middle" x="310" y="-86.3" font-family="Times,serif" font-size="14.00">Name</text>
</g>
<!-- ast.Attribute object at 0x7fb0710456f0&#45;&gt;ast.Name object at 0x7fb071047a90 -->
<g id="edge34" class="edge">
<title>ast.Attribute object at 0x7fb0710456f0&#45;&gt;ast.Name object at 0x7fb071047a90</title>
<path fill="none" stroke="black" d="M344.63,-143.7C339.28,-135.56 332.8,-125.69 326.89,-116.7"/>
<polygon fill="black" stroke="black" points="329.66,-114.54 321.24,-108.1 323.81,-118.38 329.66,-114.54"/>
</g>
<!-- ast.Name object at 0x7fb071047a90&#45;&gt;ast.Load object at 0x7fb086bedf60 -->
<g id="edge35" class="edge">
<title>ast.Name object at 0x7fb071047a90&#45;&gt;ast.Load object at 0x7fb086bedf60</title>
<path fill="none" stroke="black" d="M337.15,-76.16C360.85,-64.95 395.46,-48.58 421.58,-36.23"/>
<polygon fill="black" stroke="black" points="423.23,-39.32 430.78,-31.88 420.24,-32.99 423.23,-39.32"/>
</g>
<!-- ast.Name object at 0x7fb071046dd0 -->
<g id="node31" class="node">
<title>ast.Name object at 0x7fb071046dd0</title>
<path fill="#66cdaa" stroke="black" d="M449,-180C449,-180 419,-180 419,-180 413,-180 407,-174 407,-168 407,-168 407,-156 407,-156 407,-150 413,-144 419,-144 419,-144 449,-144 449,-144 455,-144 461,-150 461,-156 461,-156 461,-168 461,-168 461,-174 455,-180 449,-180"/>
<text text-anchor="middle" x="434" y="-158.3" font-family="Times,serif" font-size="14.00">Name</text>
</g>
<!-- ast.Call object at 0x7fb071044400&#45;&gt;ast.Name object at 0x7fb071046dd0 -->
<g id="edge38" class="edge">
<title>ast.Call object at 0x7fb071044400&#45;&gt;ast.Name object at 0x7fb071046dd0</title>
<path fill="none" stroke="black" d="M446.8,-215.7C444.9,-207.9 442.62,-198.51 440.52,-189.83"/>
<polygon fill="black" stroke="black" points="443.92,-189 438.15,-180.1 437.11,-190.65 443.92,-189"/>
</g>
<!-- ast.Subscript object at 0x7fb0710468f0 -->
<g id="node32" class="node">
<title>ast.Subscript object at 0x7fb0710468f0</title>
<path fill="#66cdaa" stroke="black" d="M535,-180C535,-180 491,-180 491,-180 485,-180 479,-174 479,-168 479,-168 479,-156 479,-156 479,-150 485,-144 491,-144 491,-144 535,-144 535,-144 541,-144 547,-150 547,-156 547,-156 547,-168 547,-168 547,-174 541,-180 535,-180"/>
<text text-anchor="middle" x="513" y="-158.3" font-family="Times,serif" font-size="14.00">Subscript</text>
</g>
<!-- ast.Call object at 0x7fb071044400&#45;&gt;ast.Subscript object at 0x7fb0710468f0 -->
<g id="edge40" class="edge">
<title>ast.Call object at 0x7fb071044400&#45;&gt;ast.Subscript object at 0x7fb0710468f0</title>
<path fill="none" stroke="black" d="M466.33,-215.7C473.76,-207.3 482.82,-197.07 490.98,-187.86"/>
<polygon fill="black" stroke="black" points="493.84,-189.91 497.85,-180.1 488.6,-185.27 493.84,-189.91"/>
</g>
<!-- ast.Name object at 0x7fb071046dd0&#45;&gt;ast.Load object at 0x7fb086bedf60 -->
<g id="edge39" class="edge">
<title>ast.Name object at 0x7fb071046dd0&#45;&gt;ast.Load object at 0x7fb086bedf60</title>
<path fill="none" stroke="black" d="M427.44,-143.91C421.44,-125.73 414.53,-96.29 422,-72 425.01,-62.22 430.51,-52.62 436.32,-44.33"/>
<polygon fill="black" stroke="black" points="439.19,-46.33 442.39,-36.23 433.59,-42.13 439.19,-46.33"/>
</g>
<!-- ast.Subscript object at 0x7fb0710468f0&#45;&gt;ast.Load object at 0x7fb086bedf60 -->
<g id="edge45" class="edge">
<title>ast.Subscript object at 0x7fb0710468f0&#45;&gt;ast.Load object at 0x7fb086bedf60</title>
<path fill="none" stroke="black" d="M511.3,-143.67C509.05,-125.29 504.11,-95.69 494,-72 489.92,-62.43 484.01,-52.78 478.16,-44.39"/>
<polygon fill="black" stroke="black" points="480.88,-42.17 472.16,-36.15 475.22,-46.29 480.88,-42.17"/>
</g>
<!-- ast.Name object at 0x7fb0710471c0 -->
<g id="node33" class="node">
<title>ast.Name object at 0x7fb0710471c0</title>
<path fill="#66cdaa" stroke="black" d="M583,-108C583,-108 553,-108 553,-108 547,-108 541,-102 541,-96 541,-96 541,-84 541,-84 541,-78 547,-72 553,-72 553,-72 583,-72 583,-72 589,-72 595,-78 595,-84 595,-84 595,-96 595,-96 595,-102 589,-108 583,-108"/>
<text text-anchor="middle" x="568" y="-86.3" font-family="Times,serif" font-size="14.00">Name</text>
</g>
<!-- ast.Subscript object at 0x7fb0710468f0&#45;&gt;ast.Name object at 0x7fb0710471c0 -->
<g id="edge41" class="edge">
<title>ast.Subscript object at 0x7fb0710468f0&#45;&gt;ast.Name object at 0x7fb0710471c0</title>
<path fill="none" stroke="black" d="M526.6,-143.7C533.12,-135.39 541.07,-125.28 548.25,-116.14"/>
<polygon fill="black" stroke="black" points="551.13,-118.13 554.56,-108.1 545.63,-113.81 551.13,-118.13"/>
</g>
<!-- ast.Name object at 0x7fb071047df0 -->
<g id="node34" class="node">
<title>ast.Name object at 0x7fb071047df0</title>
<path fill="#66cdaa" stroke="black" d="M473,-108C473,-108 443,-108 443,-108 437,-108 431,-102 431,-96 431,-96 431,-84 431,-84 431,-78 437,-72 443,-72 443,-72 473,-72 473,-72 479,-72 485,-78 485,-84 485,-84 485,-96 485,-96 485,-102 479,-108 473,-108"/>
<text text-anchor="middle" x="458" y="-86.3" font-family="Times,serif" font-size="14.00">Name</text>
</g>
<!-- ast.Subscript object at 0x7fb0710468f0&#45;&gt;ast.Name object at 0x7fb071047df0 -->
<g id="edge43" class="edge">
<title>ast.Subscript object at 0x7fb0710468f0&#45;&gt;ast.Name object at 0x7fb071047df0</title>
<path fill="none" stroke="black" d="M499.4,-143.7C492.88,-135.39 484.93,-125.28 477.75,-116.14"/>
<polygon fill="black" stroke="black" points="480.37,-113.81 471.44,-108.1 474.87,-118.13 480.37,-113.81"/>
</g>
<!-- ast.Name object at 0x7fb0710471c0&#45;&gt;ast.Load object at 0x7fb086bedf60 -->
<g id="edge42" class="edge">
<title>ast.Name object at 0x7fb0710471c0&#45;&gt;ast.Load object at 0x7fb086bedf60</title>
<path fill="none" stroke="black" d="M541.09,-71.88C526.84,-62.81 509.15,-51.55 493.76,-41.76"/>
<polygon fill="black" stroke="black" points="495.33,-38.61 485.01,-36.19 491.57,-44.51 495.33,-38.61"/>
</g>
<!-- ast.Name object at 0x7fb071047df0&#45;&gt;ast.Load object at 0x7fb086bedf60 -->
<g id="edge44" class="edge">
<title>ast.Name object at 0x7fb071047df0&#45;&gt;ast.Load object at 0x7fb086bedf60</title>
<path fill="none" stroke="black" d="M458,-71.7C458,-63.98 458,-54.71 458,-46.11"/>
<polygon fill="black" stroke="black" points="461.5,-46.1 458,-36.1 454.5,-46.1 461.5,-46.1"/>
</g>
<!-- ast.Call object at 0x7fb0710464d0 -->
<g id="node36" class="node">
<title>ast.Call object at 0x7fb0710464d0</title>
<path fill="#66cdaa" stroke="black" d="M880,-324C880,-324 850,-324 850,-324 844,-324 838,-318 838,-312 838,-312 838,-300 838,-300 838,-294 844,-288 850,-288 850,-288 880,-288 880,-288 886,-288 892,-294 892,-300 892,-300 892,-312 892,-312 892,-318 886,-324 880,-324"/>
<text text-anchor="middle" x="865" y="-302.3" font-family="Times,serif" font-size="14.00">Call</text>
</g>
<!-- ast.Expr object at 0x7fb071045d20&#45;&gt;ast.Call object at 0x7fb0710464d0 -->
<g id="edge47" class="edge">
<title>ast.Expr object at 0x7fb071045d20&#45;&gt;ast.Call object at 0x7fb0710464d0</title>
<path fill="none" stroke="black" d="M687.47,-503.85C721.49,-466.13 802.93,-375.83 842.56,-331.88"/>
<polygon fill="black" stroke="black" points="845.36,-334 849.46,-324.23 840.16,-329.31 845.36,-334"/>
</g>
<!-- ast.Attribute object at 0x7fb071047ca0 -->
<g id="node37" class="node">
<title>ast.Attribute object at 0x7fb071047ca0</title>
<path fill="#66cdaa" stroke="black" d="M736.5,-180C736.5,-180 695.5,-180 695.5,-180 689.5,-180 683.5,-174 683.5,-168 683.5,-168 683.5,-156 683.5,-156 683.5,-150 689.5,-144 695.5,-144 695.5,-144 736.5,-144 736.5,-144 742.5,-144 748.5,-150 748.5,-156 748.5,-156 748.5,-168 748.5,-168 748.5,-174 742.5,-180 736.5,-180"/>
<text text-anchor="middle" x="716" y="-158.3" font-family="Times,serif" font-size="14.00">Attribute</text>
</g>
<!-- ast.Call object at 0x7fb0710464d0&#45;&gt;ast.Attribute object at 0x7fb071047ca0 -->
<g id="edge48" class="edge">
<title>ast.Call object at 0x7fb0710464d0&#45;&gt;ast.Attribute object at 0x7fb071047ca0</title>
<path fill="none" stroke="black" d="M847.03,-287.87C820.74,-262.82 771.67,-216.05 741.61,-187.41"/>
<polygon fill="black" stroke="black" points="743.69,-184.55 734.04,-180.19 738.86,-189.62 743.69,-184.55"/>
</g>
<!-- ast.Attribute object at 0x7fb071047ca0&#45;&gt;ast.Load object at 0x7fb086bedf60 -->
<g id="edge51" class="edge">
<title>ast.Attribute object at 0x7fb071047ca0&#45;&gt;ast.Load object at 0x7fb086bedf60</title>
<path fill="none" stroke="black" d="M705.28,-144C691.75,-123.91 666.64,-90.85 637,-72 592.88,-43.94 533.28,-30.2 495.23,-23.87"/>
<polygon fill="black" stroke="black" points="495.52,-20.38 485.1,-22.28 494.43,-27.29 495.52,-20.38"/>
</g>
<!-- ast.Name object at 0x7fb071047130 -->
<g id="node38" class="node">
<title>ast.Name object at 0x7fb071047130</title>
<path fill="#66cdaa" stroke="black" d="M731,-108C731,-108 701,-108 701,-108 695,-108 689,-102 689,-96 689,-96 689,-84 689,-84 689,-78 695,-72 701,-72 701,-72 731,-72 731,-72 737,-72 743,-78 743,-84 743,-84 743,-96 743,-96 743,-102 737,-108 731,-108"/>
<text text-anchor="middle" x="716" y="-86.3" font-family="Times,serif" font-size="14.00">Name</text>
</g>
<!-- ast.Attribute object at 0x7fb071047ca0&#45;&gt;ast.Name object at 0x7fb071047130 -->
<g id="edge49" class="edge">
<title>ast.Attribute object at 0x7fb071047ca0&#45;&gt;ast.Name object at 0x7fb071047130</title>
<path fill="none" stroke="black" d="M716,-143.7C716,-135.98 716,-126.71 716,-118.11"/>
<polygon fill="black" stroke="black" points="719.5,-118.1 716,-108.1 712.5,-118.1 719.5,-118.1"/>
</g>
<!-- ast.Name object at 0x7fb071047130&#45;&gt;ast.Load object at 0x7fb086bedf60 -->
<g id="edge50" class="edge">
<title>ast.Name object at 0x7fb071047130&#45;&gt;ast.Load object at 0x7fb086bedf60</title>
<path fill="none" stroke="black" d="M688.87,-77.07C684.29,-75.25 679.54,-73.49 675,-72 612.9,-51.67 538.54,-35.15 494.96,-26.22"/>
<polygon fill="black" stroke="black" points="495.59,-22.78 485.1,-24.22 494.2,-29.64 495.59,-22.78"/>
</g>
<!-- ast.Call object at 0x7fb071046080 -->
<g id="node40" class="node">
<title>ast.Call object at 0x7fb071046080</title>
<path fill="#66cdaa" stroke="black" d="M935,-252C935,-252 905,-252 905,-252 899,-252 893,-246 893,-240 893,-240 893,-228 893,-228 893,-222 899,-216 905,-216 905,-216 935,-216 935,-216 941,-216 947,-222 947,-228 947,-228 947,-240 947,-240 947,-246 941,-252 935,-252"/>
<text text-anchor="middle" x="920" y="-230.3" font-family="Times,serif" font-size="14.00">Call</text>
</g>
<!-- ast.Return object at 0x7fb071044f10&#45;&gt;ast.Call object at 0x7fb071046080 -->
<g id="edge53" class="edge">
<title>ast.Return object at 0x7fb071044f10&#45;&gt;ast.Call object at 0x7fb071046080</title>
<path fill="none" stroke="black" d="M838.84,-503.84C852.17,-469.92 882,-391.69 901,-324 906.73,-303.59 911.67,-280.13 915.08,-262.42"/>
<polygon fill="black" stroke="black" points="918.59,-262.69 916.99,-252.22 911.71,-261.4 918.59,-262.69"/>
</g>
<!-- ast.Name object at 0x7fb0710453f0 -->
<g id="node41" class="node">
<title>ast.Name object at 0x7fb0710453f0</title>
<path fill="#66cdaa" stroke="black" d="M972,-180C972,-180 942,-180 942,-180 936,-180 930,-174 930,-168 930,-168 930,-156 930,-156 930,-150 936,-144 942,-144 942,-144 972,-144 972,-144 978,-144 984,-150 984,-156 984,-156 984,-168 984,-168 984,-174 978,-180 972,-180"/>
<text text-anchor="middle" x="957" y="-158.3" font-family="Times,serif" font-size="14.00">Name</text>
</g>
<!-- ast.Call object at 0x7fb071046080&#45;&gt;ast.Name object at 0x7fb0710453f0 -->
<g id="edge54" class="edge">
<title>ast.Call object at 0x7fb071046080&#45;&gt;ast.Name object at 0x7fb0710453f0</title>
<path fill="none" stroke="black" d="M929.15,-215.7C933.4,-207.64 938.56,-197.89 943.27,-188.98"/>
<polygon fill="black" stroke="black" points="946.38,-190.58 947.96,-180.1 940.19,-187.31 946.38,-190.58"/>
</g>
<!-- ast.Subscript object at 0x7fb071046bc0 -->
<g id="node42" class="node">
<title>ast.Subscript object at 0x7fb071046bc0</title>
<path fill="#66cdaa" stroke="black" d="M885,-180C885,-180 841,-180 841,-180 835,-180 829,-174 829,-168 829,-168 829,-156 829,-156 829,-150 835,-144 841,-144 841,-144 885,-144 885,-144 891,-144 897,-150 897,-156 897,-156 897,-168 897,-168 897,-174 891,-180 885,-180"/>
<text text-anchor="middle" x="863" y="-158.3" font-family="Times,serif" font-size="14.00">Subscript</text>
</g>
<!-- ast.Call object at 0x7fb071046080&#45;&gt;ast.Subscript object at 0x7fb071046bc0 -->
<g id="edge56" class="edge">
<title>ast.Call object at 0x7fb071046080&#45;&gt;ast.Subscript object at 0x7fb071046bc0</title>
<path fill="none" stroke="black" d="M905.91,-215.7C899.08,-207.3 890.74,-197.07 883.24,-187.86"/>
<polygon fill="black" stroke="black" points="885.96,-185.65 876.93,-180.1 880.53,-190.07 885.96,-185.65"/>
</g>
<!-- ast.Name object at 0x7fb0710453f0&#45;&gt;ast.Load object at 0x7fb086bedf60 -->
<g id="edge55" class="edge">
<title>ast.Name object at 0x7fb0710453f0&#45;&gt;ast.Load object at 0x7fb086bedf60</title>
<path fill="none" stroke="black" d="M960.49,-143.91C963.52,-123.73 964.85,-90.58 946,-72 914.02,-40.49 604.01,-24.94 495.38,-20.43"/>
<polygon fill="black" stroke="black" points="495.35,-16.93 485.21,-20.02 495.06,-23.92 495.35,-16.93"/>
</g>
<!-- ast.Subscript object at 0x7fb071046bc0&#45;&gt;ast.Load object at 0x7fb086bedf60 -->
<g id="edge60" class="edge">
<title>ast.Subscript object at 0x7fb071046bc0&#45;&gt;ast.Load object at 0x7fb086bedf60</title>
<path fill="none" stroke="black" d="M862.97,-143.66C861.92,-123.24 856.86,-89.85 836,-72 785.3,-28.62 580.44,-20.69 495.35,-19.28"/>
<polygon fill="black" stroke="black" points="495.16,-15.78 485.11,-19.14 495.06,-22.78 495.16,-15.78"/>
</g>
<!-- ast.Name object at 0x7fb0710453c0 -->
<g id="node43" class="node">
<title>ast.Name object at 0x7fb0710453c0</title>
<path fill="#66cdaa" stroke="black" d="M925,-108C925,-108 895,-108 895,-108 889,-108 883,-102 883,-96 883,-96 883,-84 883,-84 883,-78 889,-72 895,-72 895,-72 925,-72 925,-72 931,-72 937,-78 937,-84 937,-84 937,-96 937,-96 937,-102 931,-108 925,-108"/>
<text text-anchor="middle" x="910" y="-86.3" font-family="Times,serif" font-size="14.00">Name</text>
</g>
<!-- ast.Subscript object at 0x7fb071046bc0&#45;&gt;ast.Name object at 0x7fb0710453c0 -->
<g id="edge57" class="edge">
<title>ast.Subscript object at 0x7fb071046bc0&#45;&gt;ast.Name object at 0x7fb0710453c0</title>
<path fill="none" stroke="black" d="M874.62,-143.7C880.14,-135.47 886.85,-125.48 892.93,-116.42"/>
<polygon fill="black" stroke="black" points="895.85,-118.36 898.52,-108.1 890.04,-114.46 895.85,-118.36"/>
</g>
<!-- ast.Constant object at 0x7fb071045750 -->
<g id="node44" class="node">
<title>ast.Constant object at 0x7fb071045750</title>
<path fill="#66cdaa" stroke="black" d="M814.5,-108C814.5,-108 773.5,-108 773.5,-108 767.5,-108 761.5,-102 761.5,-96 761.5,-96 761.5,-84 761.5,-84 761.5,-78 767.5,-72 773.5,-72 773.5,-72 814.5,-72 814.5,-72 820.5,-72 826.5,-78 826.5,-84 826.5,-84 826.5,-96 826.5,-96 826.5,-102 820.5,-108 814.5,-108"/>
<text text-anchor="middle" x="794" y="-86.3" font-family="Times,serif" font-size="14.00">Constant</text>
</g>
<!-- ast.Subscript object at 0x7fb071046bc0&#45;&gt;ast.Constant object at 0x7fb071045750 -->
<g id="edge59" class="edge">
<title>ast.Subscript object at 0x7fb071046bc0&#45;&gt;ast.Constant object at 0x7fb071045750</title>
<path fill="none" stroke="black" d="M845.94,-143.7C837.5,-135.14 827.18,-124.66 817.96,-115.3"/>
<polygon fill="black" stroke="black" points="820.37,-112.77 810.86,-108.1 815.39,-117.68 820.37,-112.77"/>
</g>
<!-- ast.Name object at 0x7fb0710453c0&#45;&gt;ast.Load object at 0x7fb086bedf60 -->
<g id="edge58" class="edge">
<title>ast.Name object at 0x7fb0710453c0&#45;&gt;ast.Load object at 0x7fb086bedf60</title>
<path fill="none" stroke="black" d="M882.56,-76.46C878.09,-74.76 873.47,-73.19 869,-72 734.5,-36.13 568.53,-24.2 495.5,-20.52"/>
<polygon fill="black" stroke="black" points="495.57,-17.02 485.41,-20.03 495.23,-24.01 495.57,-17.02"/>
</g>
</g>
</svg>
