<?xml version="1.0" encoding="UTF-8" standalone="no"?>
<!DOCTYPE svg PUBLIC "-//W3C//DTD SVG 1.1//EN"
 "http://www.w3.org/Graphics/SVG/1.1/DTD/svg11.dtd">
<!-- Generated by graphviz version 2.43.0 (0)
 -->
<!-- Title: %3 Pages: 1 -->
<svg width="872pt" height="908pt"
 viewBox="0.00 0.00 872.00 908.00" xmlns="http://www.w3.org/2000/svg" xmlns:xlink="http://www.w3.org/1999/xlink">
<g id="graph0" class="graph" transform="scale(1 1) rotate(0) translate(4 904)">
<title>%3</title>
<polygon fill="white" stroke="transparent" points="-4,4 -4,-904 868,-904 868,4 -4,4"/>
<!-- ast.Module object at 0x7f27d0613610 -->
<g id="node1" class="node">
<title>ast.Module object at 0x7f27d0613610</title>
<path fill="#66cdaa" stroke="black" d="M390.5,-900C390.5,-900 355.5,-900 355.5,-900 349.5,-900 343.5,-894 343.5,-888 343.5,-888 343.5,-876 343.5,-876 343.5,-870 349.5,-864 355.5,-864 355.5,-864 390.5,-864 390.5,-864 396.5,-864 402.5,-870 402.5,-876 402.5,-876 402.5,-888 402.5,-888 402.5,-894 396.5,-900 390.5,-900"/>
<text text-anchor="middle" x="373" y="-878.3" font-family="Times,serif" font-size="14.00">Module</text>
</g>
<!-- ast.FunctionDef object at 0x7f27d06123e0 -->
<g id="node2" class="node">
<title>ast.FunctionDef object at 0x7f27d06123e0</title>
<path fill="#66cdaa" stroke="black" d="M403.5,-828C403.5,-828 342.5,-828 342.5,-828 336.5,-828 330.5,-822 330.5,-816 330.5,-816 330.5,-804 330.5,-804 330.5,-798 336.5,-792 342.5,-792 342.5,-792 403.5,-792 403.5,-792 409.5,-792 415.5,-798 415.5,-804 415.5,-804 415.5,-816 415.5,-816 415.5,-822 409.5,-828 403.5,-828"/>
<text text-anchor="middle" x="373" y="-806.3" font-family="Times,serif" font-size="14.00">FunctionDef</text>
</g>
<!-- ast.Module object at 0x7f27d0613610&#45;&gt;ast.FunctionDef object at 0x7f27d06123e0 -->
<g id="edge1" class="edge">
<title>ast.Module object at 0x7f27d0613610&#45;&gt;ast.FunctionDef object at 0x7f27d06123e0</title>
<path fill="none" stroke="black" d="M373,-863.7C373,-855.98 373,-846.71 373,-838.11"/>
<polygon fill="black" stroke="black" points="376.5,-838.1 373,-828.1 369.5,-838.1 376.5,-838.1"/>
</g>
<!-- ast.arguments object at 0x7f27d0611630 -->
<g id="node3" class="node">
<title>ast.arguments object at 0x7f27d0611630</title>
<path fill="#66cdaa" stroke="black" d="M304,-756C304,-756 254,-756 254,-756 248,-756 242,-750 242,-744 242,-744 242,-732 242,-732 242,-726 248,-720 254,-720 254,-720 304,-720 304,-720 310,-720 316,-726 316,-732 316,-732 316,-744 316,-744 316,-750 310,-756 304,-756"/>
<text text-anchor="middle" x="279" y="-734.3" font-family="Times,serif" font-size="14.00">arguments</text>
</g>
<!-- ast.FunctionDef object at 0x7f27d06123e0&#45;&gt;ast.arguments object at 0x7f27d0611630 -->
<g id="edge2" class="edge">
<title>ast.FunctionDef object at 0x7f27d06123e0&#45;&gt;ast.arguments object at 0x7f27d0611630</title>
<path fill="none" stroke="black" d="M349.76,-791.7C337.81,-782.8 323.08,-771.82 310.15,-762.2"/>
<polygon fill="black" stroke="black" points="312.08,-759.27 301.97,-756.1 307.9,-764.88 312.08,-759.27"/>
</g>
<!-- ast.Return object at 0x7f27d0612bf0 -->
<g id="node11" class="node">
<title>ast.Return object at 0x7f27d0612bf0</title>
<path fill="#66cdaa" stroke="black" d="M482,-756C482,-756 452,-756 452,-756 446,-756 440,-750 440,-744 440,-744 440,-732 440,-732 440,-726 446,-720 452,-720 452,-720 482,-720 482,-720 488,-720 494,-726 494,-732 494,-732 494,-744 494,-744 494,-750 488,-756 482,-756"/>
<text text-anchor="middle" x="467" y="-734.3" font-family="Times,serif" font-size="14.00">Return</text>
</g>
<!-- ast.FunctionDef object at 0x7f27d06123e0&#45;&gt;ast.Return object at 0x7f27d0612bf0 -->
<g id="edge10" class="edge">
<title>ast.FunctionDef object at 0x7f27d06123e0&#45;&gt;ast.Return object at 0x7f27d0612bf0</title>
<path fill="none" stroke="black" d="M396.24,-791.7C408.19,-782.8 422.92,-771.82 435.85,-762.2"/>
<polygon fill="black" stroke="black" points="438.1,-764.88 444.03,-756.1 433.92,-759.27 438.1,-764.88"/>
</g>
<!-- ast.arg object at 0x7f27d0611a50 -->
<g id="node4" class="node">
<title>ast.arg object at 0x7f27d0611a50</title>
<path fill="#66cdaa" stroke="black" d="M474,-684C474,-684 444,-684 444,-684 438,-684 432,-678 432,-672 432,-672 432,-660 432,-660 432,-654 438,-648 444,-648 444,-648 474,-648 474,-648 480,-648 486,-654 486,-660 486,-660 486,-672 486,-672 486,-678 480,-684 474,-684"/>
<text text-anchor="middle" x="459" y="-662.3" font-family="Times,serif" font-size="14.00">arg</text>
</g>
<!-- ast.arguments object at 0x7f27d0611630&#45;&gt;ast.arg object at 0x7f27d0611a50 -->
<g id="edge3" class="edge">
<title>ast.arguments object at 0x7f27d0611630&#45;&gt;ast.arg object at 0x7f27d0611a50</title>
<path fill="none" stroke="black" d="M316.04,-724.38C343.28,-714.88 381.31,-701.14 422.58,-684.01"/>
<polygon fill="black" stroke="black" points="424.12,-687.16 431.99,-680.07 421.41,-680.7 424.12,-687.16"/>
</g>
<!-- ast.arg object at 0x7f27d0611600 -->
<g id="node5" class="node">
<title>ast.arg object at 0x7f27d0611600</title>
<path fill="#66cdaa" stroke="black" d="M42,-684C42,-684 12,-684 12,-684 6,-684 0,-678 0,-672 0,-672 0,-660 0,-660 0,-654 6,-648 12,-648 12,-648 42,-648 42,-648 48,-648 54,-654 54,-660 54,-660 54,-672 54,-672 54,-678 48,-684 42,-684"/>
<text text-anchor="middle" x="27" y="-662.3" font-family="Times,serif" font-size="14.00">arg</text>
</g>
<!-- ast.arguments object at 0x7f27d0611630&#45;&gt;ast.arg object at 0x7f27d0611600 -->
<g id="edge4" class="edge">
<title>ast.arguments object at 0x7f27d0611630&#45;&gt;ast.arg object at 0x7f27d0611600</title>
<path fill="none" stroke="black" d="M241.65,-730.21C200.01,-722.12 130.72,-707.11 63.71,-683.9"/>
<polygon fill="black" stroke="black" points="64.87,-680.6 54.28,-680.57 62.54,-687.2 64.87,-680.6"/>
</g>
<!-- ast.arg object at 0x7f27d0611720 -->
<g id="node6" class="node">
<title>ast.arg object at 0x7f27d0611720</title>
<path fill="#66cdaa" stroke="black" d="M114,-684C114,-684 84,-684 84,-684 78,-684 72,-678 72,-672 72,-672 72,-660 72,-660 72,-654 78,-648 84,-648 84,-648 114,-648 114,-648 120,-648 126,-654 126,-660 126,-660 126,-672 126,-672 126,-678 120,-684 114,-684"/>
<text text-anchor="middle" x="99" y="-662.3" font-family="Times,serif" font-size="14.00">arg</text>
</g>
<!-- ast.arguments object at 0x7f27d0611630&#45;&gt;ast.arg object at 0x7f27d0611720 -->
<g id="edge5" class="edge">
<title>ast.arguments object at 0x7f27d0611630&#45;&gt;ast.arg object at 0x7f27d0611720</title>
<path fill="none" stroke="black" d="M241.96,-724.38C214.72,-714.88 176.69,-701.14 135.42,-684.01"/>
<polygon fill="black" stroke="black" points="136.59,-680.7 126.01,-680.07 133.88,-687.16 136.59,-680.7"/>
</g>
<!-- ast.arg object at 0x7f27d0613910 -->
<g id="node7" class="node">
<title>ast.arg object at 0x7f27d0613910</title>
<path fill="#66cdaa" stroke="black" d="M186,-684C186,-684 156,-684 156,-684 150,-684 144,-678 144,-672 144,-672 144,-660 144,-660 144,-654 150,-648 156,-648 156,-648 186,-648 186,-648 192,-648 198,-654 198,-660 198,-660 198,-672 198,-672 198,-678 192,-684 186,-684"/>
<text text-anchor="middle" x="171" y="-662.3" font-family="Times,serif" font-size="14.00">arg</text>
</g>
<!-- ast.arguments object at 0x7f27d0611630&#45;&gt;ast.arg object at 0x7f27d0613910 -->
<g id="edge6" class="edge">
<title>ast.arguments object at 0x7f27d0611630&#45;&gt;ast.arg object at 0x7f27d0613910</title>
<path fill="none" stroke="black" d="M252.58,-719.88C238.59,-710.81 221.22,-699.55 206.11,-689.76"/>
<polygon fill="black" stroke="black" points="207.82,-686.69 197.52,-684.19 204.01,-692.57 207.82,-686.69"/>
</g>
<!-- ast.arg object at 0x7f27d0612620 -->
<g id="node8" class="node">
<title>ast.arg object at 0x7f27d0612620</title>
<path fill="#66cdaa" stroke="black" d="M258,-684C258,-684 228,-684 228,-684 222,-684 216,-678 216,-672 216,-672 216,-660 216,-660 216,-654 222,-648 228,-648 228,-648 258,-648 258,-648 264,-648 270,-654 270,-660 270,-660 270,-672 270,-672 270,-678 264,-684 258,-684"/>
<text text-anchor="middle" x="243" y="-662.3" font-family="Times,serif" font-size="14.00">arg</text>
</g>
<!-- ast.arguments object at 0x7f27d0611630&#45;&gt;ast.arg object at 0x7f27d0612620 -->
<g id="edge7" class="edge">
<title>ast.arguments object at 0x7f27d0611630&#45;&gt;ast.arg object at 0x7f27d0612620</title>
<path fill="none" stroke="black" d="M270.1,-719.7C266,-711.73 261.05,-702.1 256.51,-693.26"/>
<polygon fill="black" stroke="black" points="259.48,-691.4 251.8,-684.1 253.26,-694.6 259.48,-691.4"/>
</g>
<!-- ast.arg object at 0x7f27d0612650 -->
<g id="node9" class="node">
<title>ast.arg object at 0x7f27d0612650</title>
<path fill="#66cdaa" stroke="black" d="M330,-684C330,-684 300,-684 300,-684 294,-684 288,-678 288,-672 288,-672 288,-660 288,-660 288,-654 294,-648 300,-648 300,-648 330,-648 330,-648 336,-648 342,-654 342,-660 342,-660 342,-672 342,-672 342,-678 336,-684 330,-684"/>
<text text-anchor="middle" x="315" y="-662.3" font-family="Times,serif" font-size="14.00">arg</text>
</g>
<!-- ast.arguments object at 0x7f27d0611630&#45;&gt;ast.arg object at 0x7f27d0612650 -->
<g id="edge8" class="edge">
<title>ast.arguments object at 0x7f27d0611630&#45;&gt;ast.arg object at 0x7f27d0612650</title>
<path fill="none" stroke="black" d="M287.9,-719.7C292,-711.73 296.95,-702.1 301.49,-693.26"/>
<polygon fill="black" stroke="black" points="304.74,-694.6 306.2,-684.1 298.52,-691.4 304.74,-694.6"/>
</g>
<!-- ast.arg object at 0x7f27d0613f70 -->
<g id="node10" class="node">
<title>ast.arg object at 0x7f27d0613f70</title>
<path fill="#66cdaa" stroke="black" d="M402,-684C402,-684 372,-684 372,-684 366,-684 360,-678 360,-672 360,-672 360,-660 360,-660 360,-654 366,-648 372,-648 372,-648 402,-648 402,-648 408,-648 414,-654 414,-660 414,-660 414,-672 414,-672 414,-678 408,-684 402,-684"/>
<text text-anchor="middle" x="387" y="-662.3" font-family="Times,serif" font-size="14.00">arg</text>
</g>
<!-- ast.arguments object at 0x7f27d0611630&#45;&gt;ast.arg object at 0x7f27d0613f70 -->
<g id="edge9" class="edge">
<title>ast.arguments object at 0x7f27d0611630&#45;&gt;ast.arg object at 0x7f27d0613f70</title>
<path fill="none" stroke="black" d="M305.42,-719.88C319.41,-710.81 336.78,-699.55 351.89,-689.76"/>
<polygon fill="black" stroke="black" points="353.99,-692.57 360.48,-684.19 350.18,-686.69 353.99,-692.57"/>
</g>
<!-- ast.SetComp object at 0x7f27d06115d0 -->
<g id="node12" class="node">
<title>ast.SetComp object at 0x7f27d06115d0</title>
<path fill="#66cdaa" stroke="black" d="M560,-684C560,-684 516,-684 516,-684 510,-684 504,-678 504,-672 504,-672 504,-660 504,-660 504,-654 510,-648 516,-648 516,-648 560,-648 560,-648 566,-648 572,-654 572,-660 572,-660 572,-672 572,-672 572,-678 566,-684 560,-684"/>
<text text-anchor="middle" x="538" y="-662.3" font-family="Times,serif" font-size="14.00">SetComp</text>
</g>
<!-- ast.Return object at 0x7f27d0612bf0&#45;&gt;ast.SetComp object at 0x7f27d06115d0 -->
<g id="edge11" class="edge">
<title>ast.Return object at 0x7f27d0612bf0&#45;&gt;ast.SetComp object at 0x7f27d06115d0</title>
<path fill="none" stroke="black" d="M484.55,-719.7C493.23,-711.14 503.86,-700.66 513.35,-691.3"/>
<polygon fill="black" stroke="black" points="515.99,-693.62 520.65,-684.1 511.07,-688.63 515.99,-693.62"/>
</g>
<!-- ast.Name object at 0x7f27d0612080 -->
<g id="node13" class="node">
<title>ast.Name object at 0x7f27d0612080</title>
<path fill="#66cdaa" stroke="black" d="M418,-612C418,-612 388,-612 388,-612 382,-612 376,-606 376,-600 376,-600 376,-588 376,-588 376,-582 382,-576 388,-576 388,-576 418,-576 418,-576 424,-576 430,-582 430,-588 430,-588 430,-600 430,-600 430,-606 424,-612 418,-612"/>
<text text-anchor="middle" x="403" y="-590.3" font-family="Times,serif" font-size="14.00">Name</text>
</g>
<!-- ast.SetComp object at 0x7f27d06115d0&#45;&gt;ast.Name object at 0x7f27d0612080 -->
<g id="edge12" class="edge">
<title>ast.SetComp object at 0x7f27d06115d0&#45;&gt;ast.Name object at 0x7f27d0612080</title>
<path fill="none" stroke="black" d="M504.98,-647.88C485.07,-637.56 459.71,-624.4 439.25,-613.8"/>
<polygon fill="black" stroke="black" points="440.73,-610.62 430.24,-609.12 437.5,-616.83 440.73,-610.62"/>
</g>
<!-- ast.comprehension object at 0x7f27d0612170 -->
<g id="node15" class="node">
<title>ast.comprehension object at 0x7f27d0612170</title>
<path fill="#66cdaa" stroke="black" d="M710,-612C710,-612 634,-612 634,-612 628,-612 622,-606 622,-600 622,-600 622,-588 622,-588 622,-582 628,-576 634,-576 634,-576 710,-576 710,-576 716,-576 722,-582 722,-588 722,-588 722,-600 722,-600 722,-606 716,-612 710,-612"/>
<text text-anchor="middle" x="672" y="-590.3" font-family="Times,serif" font-size="14.00">comprehension</text>
</g>
<!-- ast.SetComp object at 0x7f27d06115d0&#45;&gt;ast.comprehension object at 0x7f27d0612170 -->
<g id="edge14" class="edge">
<title>ast.SetComp object at 0x7f27d06115d0&#45;&gt;ast.comprehension object at 0x7f27d0612170</title>
<path fill="none" stroke="black" d="M570.78,-647.88C588.63,-638.55 610.9,-626.92 630,-616.94"/>
<polygon fill="black" stroke="black" points="631.85,-619.92 639.09,-612.19 628.61,-613.72 631.85,-619.92"/>
</g>
<!-- ast.Load object at 0x7f27e72f1f60 -->
<g id="node14" class="node">
<title>ast.Load object at 0x7f27e72f1f60</title>
<path fill="#66cdaa" stroke="black" d="M384,-36C384,-36 354,-36 354,-36 348,-36 342,-30 342,-24 342,-24 342,-12 342,-12 342,-6 348,0 354,0 354,0 384,0 384,0 390,0 396,-6 396,-12 396,-12 396,-24 396,-24 396,-30 390,-36 384,-36"/>
<text text-anchor="middle" x="369" y="-14.3" font-family="Times,serif" font-size="14.00">Load</text>
</g>
<!-- ast.Name object at 0x7f27d0612080&#45;&gt;ast.Load object at 0x7f27e72f1f60 -->
<g id="edge13" class="edge">
<title>ast.Name object at 0x7f27d0612080&#45;&gt;ast.Load object at 0x7f27e72f1f60</title>
<path fill="none" stroke="black" d="M375.66,-584.9C326.44,-568.44 228,-526.12 228,-451 228,-451 228,-451 228,-161 228,-116.06 244.6,-104.15 276,-72 292,-55.62 314.13,-42.74 332.8,-33.77"/>
<polygon fill="black" stroke="black" points="334.3,-36.93 341.91,-29.57 331.36,-30.58 334.3,-36.93"/>
</g>
<!-- ast.Name object at 0x7f27d0612a70 -->
<g id="node16" class="node">
<title>ast.Name object at 0x7f27d0612a70</title>
<path fill="#66cdaa" stroke="black" d="M805,-540C805,-540 775,-540 775,-540 769,-540 763,-534 763,-528 763,-528 763,-516 763,-516 763,-510 769,-504 775,-504 775,-504 805,-504 805,-504 811,-504 817,-510 817,-516 817,-516 817,-528 817,-528 817,-534 811,-540 805,-540"/>
<text text-anchor="middle" x="790" y="-518.3" font-family="Times,serif" font-size="14.00">Name</text>
</g>
<!-- ast.comprehension object at 0x7f27d0612170&#45;&gt;ast.Name object at 0x7f27d0612a70 -->
<g id="edge15" class="edge">
<title>ast.comprehension object at 0x7f27d0612170&#45;&gt;ast.Name object at 0x7f27d0612a70</title>
<path fill="none" stroke="black" d="M700.87,-575.88C716.76,-566.45 736.63,-554.66 753.58,-544.61"/>
<polygon fill="black" stroke="black" points="755.83,-547.34 762.65,-539.23 752.26,-541.32 755.83,-547.34"/>
</g>
<!-- ast.BinOp object at 0x7f27d0611e40 -->
<g id="node18" class="node">
<title>ast.BinOp object at 0x7f27d0611e40</title>
<path fill="#66cdaa" stroke="black" d="M687,-540C687,-540 657,-540 657,-540 651,-540 645,-534 645,-528 645,-528 645,-516 645,-516 645,-510 651,-504 657,-504 657,-504 687,-504 687,-504 693,-504 699,-510 699,-516 699,-516 699,-528 699,-528 699,-534 693,-540 687,-540"/>
<text text-anchor="middle" x="672" y="-518.3" font-family="Times,serif" font-size="14.00">BinOp</text>
</g>
<!-- ast.comprehension object at 0x7f27d0612170&#45;&gt;ast.BinOp object at 0x7f27d0611e40 -->
<g id="edge17" class="edge">
<title>ast.comprehension object at 0x7f27d0612170&#45;&gt;ast.BinOp object at 0x7f27d0611e40</title>
<path fill="none" stroke="black" d="M672,-575.7C672,-567.98 672,-558.71 672,-550.11"/>
<polygon fill="black" stroke="black" points="675.5,-550.1 672,-540.1 668.5,-550.1 675.5,-550.1"/>
</g>
<!-- ast.Store object at 0x7f27e72f1fc0 -->
<g id="node17" class="node">
<title>ast.Store object at 0x7f27e72f1fc0</title>
<path fill="#66cdaa" stroke="black" d="M852,-468C852,-468 822,-468 822,-468 816,-468 810,-462 810,-456 810,-456 810,-444 810,-444 810,-438 816,-432 822,-432 822,-432 852,-432 852,-432 858,-432 864,-438 864,-444 864,-444 864,-456 864,-456 864,-462 858,-468 852,-468"/>
<text text-anchor="middle" x="837" y="-446.3" font-family="Times,serif" font-size="14.00">Store</text>
</g>
<!-- ast.Name object at 0x7f27d0612a70&#45;&gt;ast.Store object at 0x7f27e72f1fc0 -->
<g id="edge16" class="edge">
<title>ast.Name object at 0x7f27d0612a70&#45;&gt;ast.Store object at 0x7f27e72f1fc0</title>
<path fill="none" stroke="black" d="M801.62,-503.7C807.14,-495.47 813.85,-485.48 819.93,-476.42"/>
<polygon fill="black" stroke="black" points="822.85,-478.36 825.52,-468.1 817.04,-474.46 822.85,-478.36"/>
</g>
<!-- ast.BinOp object at 0x7f27d0610e20 -->
<g id="node19" class="node">
<title>ast.BinOp object at 0x7f27d0610e20</title>
<path fill="#66cdaa" stroke="black" d="M687,-468C687,-468 657,-468 657,-468 651,-468 645,-462 645,-456 645,-456 645,-444 645,-444 645,-438 651,-432 657,-432 657,-432 687,-432 687,-432 693,-432 699,-438 699,-444 699,-444 699,-456 699,-456 699,-462 693,-468 687,-468"/>
<text text-anchor="middle" x="672" y="-446.3" font-family="Times,serif" font-size="14.00">BinOp</text>
</g>
<!-- ast.BinOp object at 0x7f27d0611e40&#45;&gt;ast.BinOp object at 0x7f27d0610e20 -->
<g id="edge18" class="edge">
<title>ast.BinOp object at 0x7f27d0611e40&#45;&gt;ast.BinOp object at 0x7f27d0610e20</title>
<path fill="none" stroke="black" d="M672,-503.7C672,-495.98 672,-486.71 672,-478.11"/>
<polygon fill="black" stroke="black" points="675.5,-478.1 672,-468.1 668.5,-478.1 675.5,-478.1"/>
</g>
<!-- ast.BitOr object at 0x7f27e72f2500 -->
<g id="node25" class="node">
<title>ast.BitOr object at 0x7f27e72f2500</title>
<path fill="#66cdaa" stroke="black" d="M630,-108C630,-108 600,-108 600,-108 594,-108 588,-102 588,-96 588,-96 588,-84 588,-84 588,-78 594,-72 600,-72 600,-72 630,-72 630,-72 636,-72 642,-78 642,-84 642,-84 642,-96 642,-96 642,-102 636,-108 630,-108"/>
<text text-anchor="middle" x="615" y="-86.3" font-family="Times,serif" font-size="14.00">BitOr</text>
</g>
<!-- ast.BinOp object at 0x7f27d0611e40&#45;&gt;ast.BitOr object at 0x7f27e72f2500 -->
<g id="edge40" class="edge">
<title>ast.BinOp object at 0x7f27d0611e40&#45;&gt;ast.BitOr object at 0x7f27e72f2500</title>
<path fill="none" stroke="black" d="M697.79,-503.94C730.3,-480.16 782,-433.73 782,-379 782,-379 782,-379 782,-233 782,-165.03 700.72,-122.79 651.57,-103.45"/>
<polygon fill="black" stroke="black" points="652.79,-100.17 642.2,-99.89 650.31,-106.72 652.79,-100.17"/>
</g>
<!-- ast.Name object at 0x7f27d067b580 -->
<g id="node31" class="node">
<title>ast.Name object at 0x7f27d067b580</title>
<path fill="#66cdaa" stroke="black" d="M410,-396C410,-396 380,-396 380,-396 374,-396 368,-390 368,-384 368,-384 368,-372 368,-372 368,-366 374,-360 380,-360 380,-360 410,-360 410,-360 416,-360 422,-366 422,-372 422,-372 422,-384 422,-384 422,-390 416,-396 410,-396"/>
<text text-anchor="middle" x="395" y="-374.3" font-family="Times,serif" font-size="14.00">Name</text>
</g>
<!-- ast.BinOp object at 0x7f27d0611e40&#45;&gt;ast.Name object at 0x7f27d067b580 -->
<g id="edge41" class="edge">
<title>ast.BinOp object at 0x7f27d0611e40&#45;&gt;ast.Name object at 0x7f27d067b580</title>
<path fill="none" stroke="black" d="M644.94,-507.13C594.77,-481.41 487.36,-426.34 431.08,-397.5"/>
<polygon fill="black" stroke="black" points="432.67,-394.38 422.17,-392.93 429.48,-400.61 432.67,-394.38"/>
</g>
<!-- ast.BinOp object at 0x7f27d06132b0 -->
<g id="node20" class="node">
<title>ast.BinOp object at 0x7f27d06132b0</title>
<path fill="#66cdaa" stroke="black" d="M613,-396C613,-396 583,-396 583,-396 577,-396 571,-390 571,-384 571,-384 571,-372 571,-372 571,-366 577,-360 583,-360 583,-360 613,-360 613,-360 619,-360 625,-366 625,-372 625,-372 625,-384 625,-384 625,-390 619,-396 613,-396"/>
<text text-anchor="middle" x="598" y="-374.3" font-family="Times,serif" font-size="14.00">BinOp</text>
</g>
<!-- ast.BinOp object at 0x7f27d0610e20&#45;&gt;ast.BinOp object at 0x7f27d06132b0 -->
<g id="edge19" class="edge">
<title>ast.BinOp object at 0x7f27d0610e20&#45;&gt;ast.BinOp object at 0x7f27d06132b0</title>
<path fill="none" stroke="black" d="M653.71,-431.7C644.57,-423.05 633.36,-412.45 623.4,-403.03"/>
<polygon fill="black" stroke="black" points="625.75,-400.43 616.08,-396.1 620.94,-405.52 625.75,-400.43"/>
</g>
<!-- ast.BinOp object at 0x7f27d0610e20&#45;&gt;ast.BitOr object at 0x7f27e72f2500 -->
<g id="edge37" class="edge">
<title>ast.BinOp object at 0x7f27d0610e20&#45;&gt;ast.BitOr object at 0x7f27e72f2500</title>
<path fill="none" stroke="black" d="M672,-431.95C672,-405.29 672,-352.11 672,-307 672,-307 672,-307 672,-233 672,-189.8 649,-144.19 632.22,-116.66"/>
<polygon fill="black" stroke="black" points="635.09,-114.65 626.81,-108.04 629.17,-118.37 635.09,-114.65"/>
</g>
<!-- ast.Name object at 0x7f27d0612980 -->
<g id="node30" class="node">
<title>ast.Name object at 0x7f27d0612980</title>
<path fill="#66cdaa" stroke="black" d="M742,-324C742,-324 712,-324 712,-324 706,-324 700,-318 700,-312 700,-312 700,-300 700,-300 700,-294 706,-288 712,-288 712,-288 742,-288 742,-288 748,-288 754,-294 754,-300 754,-300 754,-312 754,-312 754,-318 748,-324 742,-324"/>
<text text-anchor="middle" x="727" y="-302.3" font-family="Times,serif" font-size="14.00">Name</text>
</g>
<!-- ast.BinOp object at 0x7f27d0610e20&#45;&gt;ast.Name object at 0x7f27d0612980 -->
<g id="edge38" class="edge">
<title>ast.BinOp object at 0x7f27d0610e20&#45;&gt;ast.Name object at 0x7f27d0612980</title>
<path fill="none" stroke="black" d="M678.63,-431.87C688.09,-407.46 705.53,-362.43 716.68,-333.64"/>
<polygon fill="black" stroke="black" points="719.99,-334.78 720.34,-324.19 713.47,-332.25 719.99,-334.78"/>
</g>
<!-- ast.BinOp object at 0x7f27d0613580 -->
<g id="node21" class="node">
<title>ast.BinOp object at 0x7f27d0613580</title>
<path fill="#66cdaa" stroke="black" d="M568,-324C568,-324 538,-324 538,-324 532,-324 526,-318 526,-312 526,-312 526,-300 526,-300 526,-294 532,-288 538,-288 538,-288 568,-288 568,-288 574,-288 580,-294 580,-300 580,-300 580,-312 580,-312 580,-318 574,-324 568,-324"/>
<text text-anchor="middle" x="553" y="-302.3" font-family="Times,serif" font-size="14.00">BinOp</text>
</g>
<!-- ast.BinOp object at 0x7f27d06132b0&#45;&gt;ast.BinOp object at 0x7f27d0613580 -->
<g id="edge20" class="edge">
<title>ast.BinOp object at 0x7f27d06132b0&#45;&gt;ast.BinOp object at 0x7f27d0613580</title>
<path fill="none" stroke="black" d="M586.88,-359.7C581.64,-351.56 575.3,-341.69 569.52,-332.7"/>
<polygon fill="black" stroke="black" points="572.35,-330.62 564,-324.1 566.46,-334.41 572.35,-330.62"/>
</g>
<!-- ast.BinOp object at 0x7f27d06132b0&#45;&gt;ast.BitOr object at 0x7f27e72f2500 -->
<g id="edge34" class="edge">
<title>ast.BinOp object at 0x7f27d06132b0&#45;&gt;ast.BitOr object at 0x7f27e72f2500</title>
<path fill="none" stroke="black" d="M599.01,-359.97C601.85,-312.29 609.88,-177.18 613.36,-118.63"/>
<polygon fill="black" stroke="black" points="616.87,-118.5 613.97,-108.31 609.88,-118.08 616.87,-118.5"/>
</g>
<!-- ast.Name object at 0x7f27d0612710 -->
<g id="node29" class="node">
<title>ast.Name object at 0x7f27d0612710</title>
<path fill="#66cdaa" stroke="black" d="M391,-252C391,-252 361,-252 361,-252 355,-252 349,-246 349,-240 349,-240 349,-228 349,-228 349,-222 355,-216 361,-216 361,-216 391,-216 391,-216 397,-216 403,-222 403,-228 403,-228 403,-240 403,-240 403,-246 397,-252 391,-252"/>
<text text-anchor="middle" x="376" y="-230.3" font-family="Times,serif" font-size="14.00">Name</text>
</g>
<!-- ast.BinOp object at 0x7f27d06132b0&#45;&gt;ast.Name object at 0x7f27d0612710 -->
<g id="edge35" class="edge">
<title>ast.BinOp object at 0x7f27d06132b0&#45;&gt;ast.Name object at 0x7f27d0612710</title>
<path fill="none" stroke="black" d="M571.22,-359.87C531.22,-334.28 455.81,-286.05 411.34,-257.6"/>
<polygon fill="black" stroke="black" points="413.18,-254.63 402.87,-252.19 409.41,-260.53 413.18,-254.63"/>
</g>
<!-- ast.BinOp object at 0x7f27d0612e00 -->
<g id="node22" class="node">
<title>ast.BinOp object at 0x7f27d0612e00</title>
<path fill="#66cdaa" stroke="black" d="M542,-252C542,-252 512,-252 512,-252 506,-252 500,-246 500,-240 500,-240 500,-228 500,-228 500,-222 506,-216 512,-216 512,-216 542,-216 542,-216 548,-216 554,-222 554,-228 554,-228 554,-240 554,-240 554,-246 548,-252 542,-252"/>
<text text-anchor="middle" x="527" y="-230.3" font-family="Times,serif" font-size="14.00">BinOp</text>
</g>
<!-- ast.BinOp object at 0x7f27d0613580&#45;&gt;ast.BinOp object at 0x7f27d0612e00 -->
<g id="edge21" class="edge">
<title>ast.BinOp object at 0x7f27d0613580&#45;&gt;ast.BinOp object at 0x7f27d0612e00</title>
<path fill="none" stroke="black" d="M546.57,-287.7C543.64,-279.81 540.11,-270.3 536.86,-261.55"/>
<polygon fill="black" stroke="black" points="540.12,-260.26 533.35,-252.1 533.55,-262.7 540.12,-260.26"/>
</g>
<!-- ast.BinOp object at 0x7f27d0613580&#45;&gt;ast.BitOr object at 0x7f27e72f2500 -->
<g id="edge31" class="edge">
<title>ast.BinOp object at 0x7f27d0613580&#45;&gt;ast.BitOr object at 0x7f27e72f2500</title>
<path fill="none" stroke="black" d="M557.97,-287.85C568.72,-250.75 594.2,-162.81 607.15,-118.1"/>
<polygon fill="black" stroke="black" points="610.59,-118.81 610.01,-108.23 603.86,-116.86 610.59,-118.81"/>
</g>
<!-- ast.Name object at 0x7f27d0613fd0 -->
<g id="node28" class="node">
<title>ast.Name object at 0x7f27d0613fd0</title>
<path fill="#66cdaa" stroke="black" d="M374,-180C374,-180 344,-180 344,-180 338,-180 332,-174 332,-168 332,-168 332,-156 332,-156 332,-150 338,-144 344,-144 344,-144 374,-144 374,-144 380,-144 386,-150 386,-156 386,-156 386,-168 386,-168 386,-174 380,-180 374,-180"/>
<text text-anchor="middle" x="359" y="-158.3" font-family="Times,serif" font-size="14.00">Name</text>
</g>
<!-- ast.BinOp object at 0x7f27d0613580&#45;&gt;ast.Name object at 0x7f27d0613fd0 -->
<g id="edge32" class="edge">
<title>ast.BinOp object at 0x7f27d0613580&#45;&gt;ast.Name object at 0x7f27d0613fd0</title>
<path fill="none" stroke="black" d="M529.6,-287.87C494.93,-262.5 429.84,-214.85 390.86,-186.32"/>
<polygon fill="black" stroke="black" points="392.62,-183.27 382.48,-180.19 388.49,-188.92 392.62,-183.27"/>
</g>
<!-- ast.BinOp object at 0x7f27d0613460 -->
<g id="node23" class="node">
<title>ast.BinOp object at 0x7f27d0613460</title>
<path fill="#66cdaa" stroke="black" d="M446,-180C446,-180 416,-180 416,-180 410,-180 404,-174 404,-168 404,-168 404,-156 404,-156 404,-150 410,-144 416,-144 416,-144 446,-144 446,-144 452,-144 458,-150 458,-156 458,-156 458,-168 458,-168 458,-174 452,-180 446,-180"/>
<text text-anchor="middle" x="431" y="-158.3" font-family="Times,serif" font-size="14.00">BinOp</text>
</g>
<!-- ast.BinOp object at 0x7f27d0612e00&#45;&gt;ast.BinOp object at 0x7f27d0613460 -->
<g id="edge22" class="edge">
<title>ast.BinOp object at 0x7f27d0612e00&#45;&gt;ast.BinOp object at 0x7f27d0613460</title>
<path fill="none" stroke="black" d="M503.27,-215.7C491.06,-206.8 476.01,-195.82 462.82,-186.2"/>
<polygon fill="black" stroke="black" points="464.6,-183.17 454.46,-180.1 460.48,-188.82 464.6,-183.17"/>
</g>
<!-- ast.BinOp object at 0x7f27d0612e00&#45;&gt;ast.BitOr object at 0x7f27e72f2500 -->
<g id="edge28" class="edge">
<title>ast.BinOp object at 0x7f27d0612e00&#45;&gt;ast.BitOr object at 0x7f27e72f2500</title>
<path fill="none" stroke="black" d="M537.53,-215.93C548.58,-198 566.49,-169.01 582,-144 587.51,-135.11 593.56,-125.4 598.95,-116.74"/>
<polygon fill="black" stroke="black" points="601.97,-118.51 604.28,-108.18 596.03,-114.81 601.97,-118.51"/>
</g>
<!-- ast.Name object at 0x7f27d0613760 -->
<g id="node27" class="node">
<title>ast.Name object at 0x7f27d0613760</title>
<path fill="#66cdaa" stroke="black" d="M518,-180C518,-180 488,-180 488,-180 482,-180 476,-174 476,-168 476,-168 476,-156 476,-156 476,-150 482,-144 488,-144 488,-144 518,-144 518,-144 524,-144 530,-150 530,-156 530,-156 530,-168 530,-168 530,-174 524,-180 518,-180"/>
<text text-anchor="middle" x="503" y="-158.3" font-family="Times,serif" font-size="14.00">Name</text>
</g>
<!-- ast.BinOp object at 0x7f27d0612e00&#45;&gt;ast.Name object at 0x7f27d0613760 -->
<g id="edge29" class="edge">
<title>ast.BinOp object at 0x7f27d0612e00&#45;&gt;ast.Name object at 0x7f27d0613760</title>
<path fill="none" stroke="black" d="M521.07,-215.7C518.39,-207.9 515.17,-198.51 512.2,-189.83"/>
<polygon fill="black" stroke="black" points="515.42,-188.43 508.86,-180.1 508.8,-190.7 515.42,-188.43"/>
</g>
<!-- ast.Name object at 0x7f27d0612d70 -->
<g id="node24" class="node">
<title>ast.Name object at 0x7f27d0612d70</title>
<path fill="#66cdaa" stroke="black" d="M484,-108C484,-108 454,-108 454,-108 448,-108 442,-102 442,-96 442,-96 442,-84 442,-84 442,-78 448,-72 454,-72 454,-72 484,-72 484,-72 490,-72 496,-78 496,-84 496,-84 496,-96 496,-96 496,-102 490,-108 484,-108"/>
<text text-anchor="middle" x="469" y="-86.3" font-family="Times,serif" font-size="14.00">Name</text>
</g>
<!-- ast.BinOp object at 0x7f27d0613460&#45;&gt;ast.Name object at 0x7f27d0612d70 -->
<g id="edge23" class="edge">
<title>ast.BinOp object at 0x7f27d0613460&#45;&gt;ast.Name object at 0x7f27d0612d70</title>
<path fill="none" stroke="black" d="M440.39,-143.7C444.76,-135.64 450.06,-125.89 454.9,-116.98"/>
<polygon fill="black" stroke="black" points="458.02,-118.56 459.71,-108.1 451.87,-115.22 458.02,-118.56"/>
</g>
<!-- ast.BinOp object at 0x7f27d0613460&#45;&gt;ast.BitOr object at 0x7f27e72f2500 -->
<g id="edge25" class="edge">
<title>ast.BinOp object at 0x7f27d0613460&#45;&gt;ast.BitOr object at 0x7f27e72f2500</title>
<path fill="none" stroke="black" d="M458,-147.9C461.02,-146.54 464.06,-145.22 467,-144 504.38,-128.52 548.1,-113.2 578.28,-103.04"/>
<polygon fill="black" stroke="black" points="579.59,-106.29 587.96,-99.8 577.37,-99.65 579.59,-106.29"/>
</g>
<!-- ast.Name object at 0x7f27d0612530 -->
<g id="node26" class="node">
<title>ast.Name object at 0x7f27d0612530</title>
<path fill="#66cdaa" stroke="black" d="M412,-108C412,-108 382,-108 382,-108 376,-108 370,-102 370,-96 370,-96 370,-84 370,-84 370,-78 376,-72 382,-72 382,-72 412,-72 412,-72 418,-72 424,-78 424,-84 424,-84 424,-96 424,-96 424,-102 418,-108 412,-108"/>
<text text-anchor="middle" x="397" y="-86.3" font-family="Times,serif" font-size="14.00">Name</text>
</g>
<!-- ast.BinOp object at 0x7f27d0613460&#45;&gt;ast.Name object at 0x7f27d0612530 -->
<g id="edge26" class="edge">
<title>ast.BinOp object at 0x7f27d0613460&#45;&gt;ast.Name object at 0x7f27d0612530</title>
<path fill="none" stroke="black" d="M422.6,-143.7C418.73,-135.73 414.05,-126.1 409.76,-117.26"/>
<polygon fill="black" stroke="black" points="412.83,-115.57 405.31,-108.1 406.53,-118.63 412.83,-115.57"/>
</g>
<!-- ast.Name object at 0x7f27d0612d70&#45;&gt;ast.Load object at 0x7f27e72f1f60 -->
<g id="edge24" class="edge">
<title>ast.Name object at 0x7f27d0612d70&#45;&gt;ast.Load object at 0x7f27e72f1f60</title>
<path fill="none" stroke="black" d="M444.54,-71.88C431.7,-62.89 415.8,-51.76 401.91,-42.03"/>
<polygon fill="black" stroke="black" points="403.76,-39.06 393.56,-36.19 399.74,-44.79 403.76,-39.06"/>
</g>
<!-- ast.Name object at 0x7f27d0612530&#45;&gt;ast.Load object at 0x7f27e72f1f60 -->
<g id="edge27" class="edge">
<title>ast.Name object at 0x7f27d0612530&#45;&gt;ast.Load object at 0x7f27e72f1f60</title>
<path fill="none" stroke="black" d="M390.08,-71.7C386.93,-63.81 383.12,-54.3 379.62,-45.55"/>
<polygon fill="black" stroke="black" points="382.81,-44.09 375.84,-36.1 376.31,-46.69 382.81,-44.09"/>
</g>
<!-- ast.Name object at 0x7f27d0613760&#45;&gt;ast.Load object at 0x7f27e72f1f60 -->
<g id="edge30" class="edge">
<title>ast.Name object at 0x7f27d0613760&#45;&gt;ast.Load object at 0x7f27e72f1f60</title>
<path fill="none" stroke="black" d="M508.84,-143.93C514.28,-124.69 519.57,-93.31 505,-72 483,-39.81 438.32,-27.17 406.17,-22.21"/>
<polygon fill="black" stroke="black" points="406.6,-18.73 396.22,-20.85 405.65,-25.67 406.6,-18.73"/>
</g>
<!-- ast.Name object at 0x7f27d0613fd0&#45;&gt;ast.Load object at 0x7f27e72f1f60 -->
<g id="edge33" class="edge">
<title>ast.Name object at 0x7f27d0613fd0&#45;&gt;ast.Load object at 0x7f27e72f1f60</title>
<path fill="none" stroke="black" d="M358.74,-143.9C358.62,-125.96 358.85,-96.94 361,-72 361.73,-63.53 362.96,-54.35 364.24,-46.05"/>
<polygon fill="black" stroke="black" points="367.7,-46.55 365.85,-36.12 360.79,-45.43 367.7,-46.55"/>
</g>
<!-- ast.Name object at 0x7f27d0612710&#45;&gt;ast.Load object at 0x7f27e72f1f60 -->
<g id="edge36" class="edge">
<title>ast.Name object at 0x7f27d0612710&#45;&gt;ast.Load object at 0x7f27e72f1f60</title>
<path fill="none" stroke="black" d="M351.52,-215.77C340.6,-206.56 328.88,-194.19 323,-180 303.88,-133.85 331.16,-77.11 351.16,-44.79"/>
<polygon fill="black" stroke="black" points="354.12,-46.67 356.56,-36.36 348.22,-42.89 354.12,-46.67"/>
</g>
<!-- ast.Name object at 0x7f27d0612980&#45;&gt;ast.Load object at 0x7f27e72f1f60 -->
<g id="edge39" class="edge">
<title>ast.Name object at 0x7f27d0612980&#45;&gt;ast.Load object at 0x7f27e72f1f60</title>
<path fill="none" stroke="black" d="M727.41,-287.89C727.43,-243.65 720.67,-125.19 651,-72 613.04,-43.02 473.74,-27.72 406.21,-21.86"/>
<polygon fill="black" stroke="black" points="406.27,-18.36 396.01,-21 405.68,-25.33 406.27,-18.36"/>
</g>
<!-- ast.Name object at 0x7f27d067b580&#45;&gt;ast.Load object at 0x7f27e72f1f60 -->
<g id="edge42" class="edge">
<title>ast.Name object at 0x7f27d067b580&#45;&gt;ast.Load object at 0x7f27e72f1f60</title>
<path fill="none" stroke="black" d="M367.96,-362.92C330.13,-341.05 266,-295.12 266,-235 266,-235 266,-235 266,-161 266,-111.66 307.26,-67.89 337.55,-42.41"/>
<polygon fill="black" stroke="black" points="339.84,-45.06 345.37,-36.03 335.41,-39.64 339.84,-45.06"/>
</g>
</g>
</svg>
