<?xml version="1.0" encoding="UTF-8" standalone="no"?>
<!DOCTYPE svg PUBLIC "-//W3C//DTD SVG 1.1//EN"
 "http://www.w3.org/Graphics/SVG/1.1/DTD/svg11.dtd">
<!-- Generated by graphviz version 2.43.0 (0)
 -->
<!-- Title: %3 Pages: 1 -->
<svg width="841pt" height="692pt"
 viewBox="0.00 0.00 841.00 692.00" xmlns="http://www.w3.org/2000/svg" xmlns:xlink="http://www.w3.org/1999/xlink">
<g id="graph0" class="graph" transform="scale(1 1) rotate(0) translate(4 688)">
<title>%3</title>
<polygon fill="white" stroke="transparent" points="-4,4 -4,-688 837,-688 837,4 -4,4"/>
<!-- ast.Module object at 0x7f7d89a060b0 -->
<g id="node1" class="node">
<title>ast.Module object at 0x7f7d89a060b0</title>
<path fill="#66cdaa" stroke="black" d="M190.5,-684C190.5,-684 155.5,-684 155.5,-684 149.5,-684 143.5,-678 143.5,-672 143.5,-672 143.5,-660 143.5,-660 143.5,-654 149.5,-648 155.5,-648 155.5,-648 190.5,-648 190.5,-648 196.5,-648 202.5,-654 202.5,-660 202.5,-660 202.5,-672 202.5,-672 202.5,-678 196.5,-684 190.5,-684"/>
<text text-anchor="middle" x="173" y="-662.3" font-family="Times,serif" font-size="14.00">Module</text>
</g>
<!-- ast.FunctionDef object at 0x7f7d89a05660 -->
<g id="node2" class="node">
<title>ast.FunctionDef object at 0x7f7d89a05660</title>
<path fill="#66cdaa" stroke="black" d="M203.5,-612C203.5,-612 142.5,-612 142.5,-612 136.5,-612 130.5,-606 130.5,-600 130.5,-600 130.5,-588 130.5,-588 130.5,-582 136.5,-576 142.5,-576 142.5,-576 203.5,-576 203.5,-576 209.5,-576 215.5,-582 215.5,-588 215.5,-588 215.5,-600 215.5,-600 215.5,-606 209.5,-612 203.5,-612"/>
<text text-anchor="middle" x="173" y="-590.3" font-family="Times,serif" font-size="14.00">FunctionDef</text>
</g>
<!-- ast.Module object at 0x7f7d89a060b0&#45;&gt;ast.FunctionDef object at 0x7f7d89a05660 -->
<g id="edge1" class="edge">
<title>ast.Module object at 0x7f7d89a060b0&#45;&gt;ast.FunctionDef object at 0x7f7d89a05660</title>
<path fill="none" stroke="black" d="M173,-647.7C173,-639.98 173,-630.71 173,-622.11"/>
<polygon fill="black" stroke="black" points="176.5,-622.1 173,-612.1 169.5,-622.1 176.5,-622.1"/>
</g>
<!-- ast.arguments object at 0x7f7d89a04940 -->
<g id="node3" class="node">
<title>ast.arguments object at 0x7f7d89a04940</title>
<path fill="#66cdaa" stroke="black" d="M66,-540C66,-540 16,-540 16,-540 10,-540 4,-534 4,-528 4,-528 4,-516 4,-516 4,-510 10,-504 16,-504 16,-504 66,-504 66,-504 72,-504 78,-510 78,-516 78,-516 78,-528 78,-528 78,-534 72,-540 66,-540"/>
<text text-anchor="middle" x="41" y="-518.3" font-family="Times,serif" font-size="14.00">arguments</text>
</g>
<!-- ast.FunctionDef object at 0x7f7d89a05660&#45;&gt;ast.arguments object at 0x7f7d89a04940 -->
<g id="edge2" class="edge">
<title>ast.FunctionDef object at 0x7f7d89a05660&#45;&gt;ast.arguments object at 0x7f7d89a04940</title>
<path fill="none" stroke="black" d="M140.71,-575.88C123.13,-566.55 101.19,-554.92 82.37,-544.94"/>
<polygon fill="black" stroke="black" points="83.89,-541.78 73.41,-540.19 80.61,-547.97 83.89,-541.78"/>
</g>
<!-- ast.Assign object at 0x7f7d89a07700 -->
<g id="node5" class="node">
<title>ast.Assign object at 0x7f7d89a07700</title>
<path fill="#66cdaa" stroke="black" d="M152,-540C152,-540 122,-540 122,-540 116,-540 110,-534 110,-528 110,-528 110,-516 110,-516 110,-510 116,-504 122,-504 122,-504 152,-504 152,-504 158,-504 164,-510 164,-516 164,-516 164,-528 164,-528 164,-534 158,-540 152,-540"/>
<text text-anchor="middle" x="137" y="-518.3" font-family="Times,serif" font-size="14.00">Assign</text>
</g>
<!-- ast.FunctionDef object at 0x7f7d89a05660&#45;&gt;ast.Assign object at 0x7f7d89a07700 -->
<g id="edge4" class="edge">
<title>ast.FunctionDef object at 0x7f7d89a05660&#45;&gt;ast.Assign object at 0x7f7d89a07700</title>
<path fill="none" stroke="black" d="M164.1,-575.7C160,-567.73 155.05,-558.1 150.51,-549.26"/>
<polygon fill="black" stroke="black" points="153.48,-547.4 145.8,-540.1 147.26,-550.6 153.48,-547.4"/>
</g>
<!-- ast.For object at 0x7f7d89a05f60 -->
<g id="node10" class="node">
<title>ast.For object at 0x7f7d89a05f60</title>
<path fill="#66cdaa" stroke="black" d="M260,-540C260,-540 230,-540 230,-540 224,-540 218,-534 218,-528 218,-528 218,-516 218,-516 218,-510 224,-504 230,-504 230,-504 260,-504 260,-504 266,-504 272,-510 272,-516 272,-516 272,-528 272,-528 272,-534 266,-540 260,-540"/>
<text text-anchor="middle" x="245" y="-518.3" font-family="Times,serif" font-size="14.00">For</text>
</g>
<!-- ast.FunctionDef object at 0x7f7d89a05660&#45;&gt;ast.For object at 0x7f7d89a05f60 -->
<g id="edge9" class="edge">
<title>ast.FunctionDef object at 0x7f7d89a05660&#45;&gt;ast.For object at 0x7f7d89a05f60</title>
<path fill="none" stroke="black" d="M190.8,-575.7C199.6,-567.14 210.38,-556.66 220,-547.3"/>
<polygon fill="black" stroke="black" points="222.68,-549.58 227.41,-540.1 217.8,-544.57 222.68,-549.58"/>
</g>
<!-- ast.Return object at 0x7f7da248ec50 -->
<g id="node42" class="node">
<title>ast.Return object at 0x7f7da248ec50</title>
<path fill="#66cdaa" stroke="black" d="M426,-540C426,-540 396,-540 396,-540 390,-540 384,-534 384,-528 384,-528 384,-516 384,-516 384,-510 390,-504 396,-504 396,-504 426,-504 426,-504 432,-504 438,-510 438,-516 438,-516 438,-528 438,-528 438,-534 432,-540 426,-540"/>
<text text-anchor="middle" x="411" y="-518.3" font-family="Times,serif" font-size="14.00">Return</text>
</g>
<!-- ast.FunctionDef object at 0x7f7d89a05660&#45;&gt;ast.Return object at 0x7f7da248ec50 -->
<g id="edge56" class="edge">
<title>ast.FunctionDef object at 0x7f7d89a05660&#45;&gt;ast.Return object at 0x7f7da248ec50</title>
<path fill="none" stroke="black" d="M215.55,-580.49C260.73,-567.2 331.41,-546.41 374.25,-533.81"/>
<polygon fill="black" stroke="black" points="375.38,-537.12 383.99,-530.95 373.4,-530.41 375.38,-537.12"/>
</g>
<!-- ast.arg object at 0x7f7d89a06620 -->
<g id="node4" class="node">
<title>ast.arg object at 0x7f7d89a06620</title>
<path fill="#66cdaa" stroke="black" d="M42,-468C42,-468 12,-468 12,-468 6,-468 0,-462 0,-456 0,-456 0,-444 0,-444 0,-438 6,-432 12,-432 12,-432 42,-432 42,-432 48,-432 54,-438 54,-444 54,-444 54,-456 54,-456 54,-462 48,-468 42,-468"/>
<text text-anchor="middle" x="27" y="-446.3" font-family="Times,serif" font-size="14.00">arg</text>
</g>
<!-- ast.arguments object at 0x7f7d89a04940&#45;&gt;ast.arg object at 0x7f7d89a06620 -->
<g id="edge3" class="edge">
<title>ast.arguments object at 0x7f7d89a04940&#45;&gt;ast.arg object at 0x7f7d89a06620</title>
<path fill="none" stroke="black" d="M37.54,-503.7C36,-495.98 34.14,-486.71 32.42,-478.11"/>
<polygon fill="black" stroke="black" points="35.81,-477.22 30.42,-468.1 28.95,-478.6 35.81,-477.22"/>
</g>
<!-- ast.Name object at 0x7f7d89a07d60 -->
<g id="node6" class="node">
<title>ast.Name object at 0x7f7d89a07d60</title>
<path fill="#66cdaa" stroke="black" d="M152,-468C152,-468 122,-468 122,-468 116,-468 110,-462 110,-456 110,-456 110,-444 110,-444 110,-438 116,-432 122,-432 122,-432 152,-432 152,-432 158,-432 164,-438 164,-444 164,-444 164,-456 164,-456 164,-462 158,-468 152,-468"/>
<text text-anchor="middle" x="137" y="-446.3" font-family="Times,serif" font-size="14.00">Name</text>
</g>
<!-- ast.Assign object at 0x7f7d89a07700&#45;&gt;ast.Name object at 0x7f7d89a07d60 -->
<g id="edge5" class="edge">
<title>ast.Assign object at 0x7f7d89a07700&#45;&gt;ast.Name object at 0x7f7d89a07d60</title>
<path fill="none" stroke="black" d="M137,-503.7C137,-495.98 137,-486.71 137,-478.11"/>
<polygon fill="black" stroke="black" points="140.5,-478.1 137,-468.1 133.5,-478.1 140.5,-478.1"/>
</g>
<!-- ast.List object at 0x7f7d89a05960 -->
<g id="node8" class="node">
<title>ast.List object at 0x7f7d89a05960</title>
<path fill="#66cdaa" stroke="black" d="M97,-324C97,-324 67,-324 67,-324 61,-324 55,-318 55,-312 55,-312 55,-300 55,-300 55,-294 61,-288 67,-288 67,-288 97,-288 97,-288 103,-288 109,-294 109,-300 109,-300 109,-312 109,-312 109,-318 103,-324 97,-324"/>
<text text-anchor="middle" x="82" y="-302.3" font-family="Times,serif" font-size="14.00">List</text>
</g>
<!-- ast.Assign object at 0x7f7d89a07700&#45;&gt;ast.List object at 0x7f7d89a05960 -->
<g id="edge7" class="edge">
<title>ast.Assign object at 0x7f7d89a07700&#45;&gt;ast.List object at 0x7f7d89a05960</title>
<path fill="none" stroke="black" d="M122,-503.57C114.42,-493.76 105.82,-480.92 101,-468 84.3,-423.22 81.39,-367.01 81.33,-334.24"/>
<polygon fill="black" stroke="black" points="84.83,-334.09 81.4,-324.07 77.83,-334.04 84.83,-334.09"/>
</g>
<!-- ast.Store object at 0x7f7da82f5fc0 -->
<g id="node7" class="node">
<title>ast.Store object at 0x7f7da82f5fc0</title>
<path fill="#66cdaa" stroke="black" d="M152,-396C152,-396 122,-396 122,-396 116,-396 110,-390 110,-384 110,-384 110,-372 110,-372 110,-366 116,-360 122,-360 122,-360 152,-360 152,-360 158,-360 164,-366 164,-372 164,-372 164,-384 164,-384 164,-390 158,-396 152,-396"/>
<text text-anchor="middle" x="137" y="-374.3" font-family="Times,serif" font-size="14.00">Store</text>
</g>
<!-- ast.Name object at 0x7f7d89a07d60&#45;&gt;ast.Store object at 0x7f7da82f5fc0 -->
<g id="edge6" class="edge">
<title>ast.Name object at 0x7f7d89a07d60&#45;&gt;ast.Store object at 0x7f7da82f5fc0</title>
<path fill="none" stroke="black" d="M137,-431.7C137,-423.98 137,-414.71 137,-406.11"/>
<polygon fill="black" stroke="black" points="140.5,-406.1 137,-396.1 133.5,-406.1 140.5,-406.1"/>
</g>
<!-- ast.Load object at 0x7f7da82f5f60 -->
<g id="node9" class="node">
<title>ast.Load object at 0x7f7da82f5f60</title>
<path fill="#66cdaa" stroke="black" d="M446,-36C446,-36 416,-36 416,-36 410,-36 404,-30 404,-24 404,-24 404,-12 404,-12 404,-6 410,0 416,0 416,0 446,0 446,0 452,0 458,-6 458,-12 458,-12 458,-24 458,-24 458,-30 452,-36 446,-36"/>
<text text-anchor="middle" x="431" y="-14.3" font-family="Times,serif" font-size="14.00">Load</text>
</g>
<!-- ast.List object at 0x7f7d89a05960&#45;&gt;ast.Load object at 0x7f7da82f5f60 -->
<g id="edge8" class="edge">
<title>ast.List object at 0x7f7d89a05960&#45;&gt;ast.Load object at 0x7f7da82f5f60</title>
<path fill="none" stroke="black" d="M78.74,-287.73C71.69,-244.64 60.09,-131.55 119,-72 156.8,-33.79 319.02,-23.03 393.44,-20.08"/>
<polygon fill="black" stroke="black" points="393.89,-23.56 403.75,-19.7 393.63,-16.57 393.89,-23.56"/>
</g>
<!-- ast.Name object at 0x7f7d89a064d0 -->
<g id="node11" class="node">
<title>ast.Name object at 0x7f7d89a064d0</title>
<path fill="#66cdaa" stroke="black" d="M224,-468C224,-468 194,-468 194,-468 188,-468 182,-462 182,-456 182,-456 182,-444 182,-444 182,-438 188,-432 194,-432 194,-432 224,-432 224,-432 230,-432 236,-438 236,-444 236,-444 236,-456 236,-456 236,-462 230,-468 224,-468"/>
<text text-anchor="middle" x="209" y="-446.3" font-family="Times,serif" font-size="14.00">Name</text>
</g>
<!-- ast.For object at 0x7f7d89a05f60&#45;&gt;ast.Name object at 0x7f7d89a064d0 -->
<g id="edge10" class="edge">
<title>ast.For object at 0x7f7d89a05f60&#45;&gt;ast.Name object at 0x7f7d89a064d0</title>
<path fill="none" stroke="black" d="M236.1,-503.7C232,-495.73 227.05,-486.1 222.51,-477.26"/>
<polygon fill="black" stroke="black" points="225.48,-475.4 217.8,-468.1 219.26,-478.6 225.48,-475.4"/>
</g>
<!-- ast.Call object at 0x7f7d89a05240 -->
<g id="node12" class="node">
<title>ast.Call object at 0x7f7d89a05240</title>
<path fill="#66cdaa" stroke="black" d="M296,-468C296,-468 266,-468 266,-468 260,-468 254,-462 254,-456 254,-456 254,-444 254,-444 254,-438 260,-432 266,-432 266,-432 296,-432 296,-432 302,-432 308,-438 308,-444 308,-444 308,-456 308,-456 308,-462 302,-468 296,-468"/>
<text text-anchor="middle" x="281" y="-446.3" font-family="Times,serif" font-size="14.00">Call</text>
</g>
<!-- ast.For object at 0x7f7d89a05f60&#45;&gt;ast.Call object at 0x7f7d89a05240 -->
<g id="edge12" class="edge">
<title>ast.For object at 0x7f7d89a05f60&#45;&gt;ast.Call object at 0x7f7d89a05240</title>
<path fill="none" stroke="black" d="M253.9,-503.7C258,-495.73 262.95,-486.1 267.49,-477.26"/>
<polygon fill="black" stroke="black" points="270.74,-478.6 272.2,-468.1 264.52,-475.4 270.74,-478.6"/>
</g>
<!-- ast.If object at 0x7f7d89a056c0 -->
<g id="node16" class="node">
<title>ast.If object at 0x7f7d89a056c0</title>
<path fill="#66cdaa" stroke="black" d="M430,-468C430,-468 400,-468 400,-468 394,-468 388,-462 388,-456 388,-456 388,-444 388,-444 388,-438 394,-432 400,-432 400,-432 430,-432 430,-432 436,-432 442,-438 442,-444 442,-444 442,-456 442,-456 442,-462 436,-468 430,-468"/>
<text text-anchor="middle" x="415" y="-446.3" font-family="Times,serif" font-size="14.00">If</text>
</g>
<!-- ast.For object at 0x7f7d89a05f60&#45;&gt;ast.If object at 0x7f7d89a056c0 -->
<g id="edge17" class="edge">
<title>ast.For object at 0x7f7d89a05f60&#45;&gt;ast.If object at 0x7f7d89a056c0</title>
<path fill="none" stroke="black" d="M272.31,-509.75C301.06,-497.92 346.48,-479.21 378.34,-466.1"/>
<polygon fill="black" stroke="black" points="379.84,-469.26 387.75,-462.22 377.17,-462.79 379.84,-469.26"/>
</g>
<!-- ast.Name object at 0x7f7d89a064d0&#45;&gt;ast.Store object at 0x7f7da82f5fc0 -->
<g id="edge11" class="edge">
<title>ast.Name object at 0x7f7d89a064d0&#45;&gt;ast.Store object at 0x7f7da82f5fc0</title>
<path fill="none" stroke="black" d="M191.2,-431.7C182.4,-423.14 171.62,-412.66 162,-403.3"/>
<polygon fill="black" stroke="black" points="164.2,-400.57 154.59,-396.1 159.32,-405.58 164.2,-400.57"/>
</g>
<!-- ast.Name object at 0x7f7d89a06b30 -->
<g id="node13" class="node">
<title>ast.Name object at 0x7f7d89a06b30</title>
<path fill="#66cdaa" stroke="black" d="M230,-324C230,-324 200,-324 200,-324 194,-324 188,-318 188,-312 188,-312 188,-300 188,-300 188,-294 194,-288 200,-288 200,-288 230,-288 230,-288 236,-288 242,-294 242,-300 242,-300 242,-312 242,-312 242,-318 236,-324 230,-324"/>
<text text-anchor="middle" x="215" y="-302.3" font-family="Times,serif" font-size="14.00">Name</text>
</g>
<!-- ast.Call object at 0x7f7d89a05240&#45;&gt;ast.Name object at 0x7f7d89a06b30 -->
<g id="edge13" class="edge">
<title>ast.Call object at 0x7f7d89a05240&#45;&gt;ast.Name object at 0x7f7d89a06b30</title>
<path fill="none" stroke="black" d="M278.22,-431.89C274.76,-413.43 267.83,-383.51 256,-360 251.14,-350.34 244.4,-340.7 237.78,-332.34"/>
<polygon fill="black" stroke="black" points="240.35,-329.95 231.29,-324.46 234.95,-334.41 240.35,-329.95"/>
</g>
<!-- ast.Constant object at 0x7f7d89a05c90 -->
<g id="node14" class="node">
<title>ast.Constant object at 0x7f7d89a05c90</title>
<path fill="#66cdaa" stroke="black" d="M357.5,-396C357.5,-396 316.5,-396 316.5,-396 310.5,-396 304.5,-390 304.5,-384 304.5,-384 304.5,-372 304.5,-372 304.5,-366 310.5,-360 316.5,-360 316.5,-360 357.5,-360 357.5,-360 363.5,-360 369.5,-366 369.5,-372 369.5,-372 369.5,-384 369.5,-384 369.5,-390 363.5,-396 357.5,-396"/>
<text text-anchor="middle" x="337" y="-374.3" font-family="Times,serif" font-size="14.00">Constant</text>
</g>
<!-- ast.Call object at 0x7f7d89a05240&#45;&gt;ast.Constant object at 0x7f7d89a05c90 -->
<g id="edge15" class="edge">
<title>ast.Call object at 0x7f7d89a05240&#45;&gt;ast.Constant object at 0x7f7d89a05c90</title>
<path fill="none" stroke="black" d="M294.84,-431.7C301.49,-423.39 309.58,-413.28 316.89,-404.14"/>
<polygon fill="black" stroke="black" points="319.8,-406.1 323.32,-396.1 314.34,-401.73 319.8,-406.1"/>
</g>
<!-- ast.Constant object at 0x7f7d89a063b0 -->
<g id="node15" class="node">
<title>ast.Constant object at 0x7f7d89a063b0</title>
<path fill="#66cdaa" stroke="black" d="M235.5,-396C235.5,-396 194.5,-396 194.5,-396 188.5,-396 182.5,-390 182.5,-384 182.5,-384 182.5,-372 182.5,-372 182.5,-366 188.5,-360 194.5,-360 194.5,-360 235.5,-360 235.5,-360 241.5,-360 247.5,-366 247.5,-372 247.5,-372 247.5,-384 247.5,-384 247.5,-390 241.5,-396 235.5,-396"/>
<text text-anchor="middle" x="215" y="-374.3" font-family="Times,serif" font-size="14.00">Constant</text>
</g>
<!-- ast.Call object at 0x7f7d89a05240&#45;&gt;ast.Constant object at 0x7f7d89a063b0 -->
<g id="edge16" class="edge">
<title>ast.Call object at 0x7f7d89a05240&#45;&gt;ast.Constant object at 0x7f7d89a063b0</title>
<path fill="none" stroke="black" d="M264.69,-431.7C256.69,-423.22 246.93,-412.86 238.18,-403.58"/>
<polygon fill="black" stroke="black" points="240.53,-400.98 231.13,-396.1 235.44,-405.78 240.53,-400.98"/>
</g>
<!-- ast.Name object at 0x7f7d89a06b30&#45;&gt;ast.Load object at 0x7f7da82f5f60 -->
<g id="edge14" class="edge">
<title>ast.Name object at 0x7f7d89a06b30&#45;&gt;ast.Load object at 0x7f7da82f5f60</title>
<path fill="none" stroke="black" d="M199.46,-287.7C163.87,-245.96 83.65,-138.31 139,-72 171.03,-33.63 322.26,-22.98 393.59,-20.07"/>
<polygon fill="black" stroke="black" points="394.06,-23.55 403.92,-19.68 393.79,-16.56 394.06,-23.55"/>
</g>
<!-- ast.BoolOp object at 0x7f7d89a06110 -->
<g id="node17" class="node">
<title>ast.BoolOp object at 0x7f7d89a06110</title>
<path fill="#66cdaa" stroke="black" d="M578.5,-396C578.5,-396 543.5,-396 543.5,-396 537.5,-396 531.5,-390 531.5,-384 531.5,-384 531.5,-372 531.5,-372 531.5,-366 537.5,-360 543.5,-360 543.5,-360 578.5,-360 578.5,-360 584.5,-360 590.5,-366 590.5,-372 590.5,-372 590.5,-384 590.5,-384 590.5,-390 584.5,-396 578.5,-396"/>
<text text-anchor="middle" x="561" y="-374.3" font-family="Times,serif" font-size="14.00">BoolOp</text>
</g>
<!-- ast.If object at 0x7f7d89a056c0&#45;&gt;ast.BoolOp object at 0x7f7d89a06110 -->
<g id="edge18" class="edge">
<title>ast.If object at 0x7f7d89a056c0&#45;&gt;ast.BoolOp object at 0x7f7d89a06110</title>
<path fill="none" stroke="black" d="M442.12,-436C464.57,-425.23 496.75,-409.8 521.97,-397.71"/>
<polygon fill="black" stroke="black" points="523.76,-400.74 531.26,-393.26 520.73,-394.42 523.76,-400.74"/>
</g>
<!-- ast.Expr object at 0x7f7d89a062f0 -->
<g id="node35" class="node">
<title>ast.Expr object at 0x7f7d89a062f0</title>
<path fill="#66cdaa" stroke="black" d="M430,-396C430,-396 400,-396 400,-396 394,-396 388,-390 388,-384 388,-384 388,-372 388,-372 388,-366 394,-360 400,-360 400,-360 430,-360 430,-360 436,-360 442,-366 442,-372 442,-372 442,-384 442,-384 442,-390 436,-396 430,-396"/>
<text text-anchor="middle" x="415" y="-374.3" font-family="Times,serif" font-size="14.00">Expr</text>
</g>
<!-- ast.If object at 0x7f7d89a056c0&#45;&gt;ast.Expr object at 0x7f7d89a062f0 -->
<g id="edge44" class="edge">
<title>ast.If object at 0x7f7d89a056c0&#45;&gt;ast.Expr object at 0x7f7d89a062f0</title>
<path fill="none" stroke="black" d="M415,-431.7C415,-423.98 415,-414.71 415,-406.11"/>
<polygon fill="black" stroke="black" points="418.5,-406.1 415,-396.1 411.5,-406.1 418.5,-406.1"/>
</g>
<!-- ast.And object at 0x7f7da82f60b0 -->
<g id="node18" class="node">
<title>ast.And object at 0x7f7da82f60b0</title>
<path fill="#66cdaa" stroke="black" d="M615,-324C615,-324 585,-324 585,-324 579,-324 573,-318 573,-312 573,-312 573,-300 573,-300 573,-294 579,-288 585,-288 585,-288 615,-288 615,-288 621,-288 627,-294 627,-300 627,-300 627,-312 627,-312 627,-318 621,-324 615,-324"/>
<text text-anchor="middle" x="600" y="-302.3" font-family="Times,serif" font-size="14.00">And</text>
</g>
<!-- ast.BoolOp object at 0x7f7d89a06110&#45;&gt;ast.And object at 0x7f7da82f60b0 -->
<g id="edge19" class="edge">
<title>ast.BoolOp object at 0x7f7d89a06110&#45;&gt;ast.And object at 0x7f7da82f60b0</title>
<path fill="none" stroke="black" d="M570.64,-359.7C575.13,-351.64 580.56,-341.89 585.52,-332.98"/>
<polygon fill="black" stroke="black" points="588.66,-334.54 590.47,-324.1 582.55,-331.14 588.66,-334.54"/>
</g>
<!-- ast.Compare object at 0x7f7d89a06230 -->
<g id="node19" class="node">
<title>ast.Compare object at 0x7f7d89a06230</title>
<path fill="#66cdaa" stroke="black" d="M700.5,-324C700.5,-324 657.5,-324 657.5,-324 651.5,-324 645.5,-318 645.5,-312 645.5,-312 645.5,-300 645.5,-300 645.5,-294 651.5,-288 657.5,-288 657.5,-288 700.5,-288 700.5,-288 706.5,-288 712.5,-294 712.5,-300 712.5,-300 712.5,-312 712.5,-312 712.5,-318 706.5,-324 700.5,-324"/>
<text text-anchor="middle" x="679" y="-302.3" font-family="Times,serif" font-size="14.00">Compare</text>
</g>
<!-- ast.BoolOp object at 0x7f7d89a06110&#45;&gt;ast.Compare object at 0x7f7d89a06230 -->
<g id="edge20" class="edge">
<title>ast.BoolOp object at 0x7f7d89a06110&#45;&gt;ast.Compare object at 0x7f7d89a06230</title>
<path fill="none" stroke="black" d="M589.87,-359.88C605.29,-350.72 624.48,-339.34 641.1,-329.48"/>
<polygon fill="black" stroke="black" points="643.21,-332.3 650.02,-324.19 639.64,-326.28 643.21,-332.3"/>
</g>
<!-- ast.Compare object at 0x7f7d89a04e80 -->
<g id="node28" class="node">
<title>ast.Compare object at 0x7f7d89a04e80</title>
<path fill="#66cdaa" stroke="black" d="M542.5,-324C542.5,-324 499.5,-324 499.5,-324 493.5,-324 487.5,-318 487.5,-312 487.5,-312 487.5,-300 487.5,-300 487.5,-294 493.5,-288 499.5,-288 499.5,-288 542.5,-288 542.5,-288 548.5,-288 554.5,-294 554.5,-300 554.5,-300 554.5,-312 554.5,-312 554.5,-318 548.5,-324 542.5,-324"/>
<text text-anchor="middle" x="521" y="-302.3" font-family="Times,serif" font-size="14.00">Compare</text>
</g>
<!-- ast.BoolOp object at 0x7f7d89a06110&#45;&gt;ast.Compare object at 0x7f7d89a04e80 -->
<g id="edge32" class="edge">
<title>ast.BoolOp object at 0x7f7d89a06110&#45;&gt;ast.Compare object at 0x7f7d89a04e80</title>
<path fill="none" stroke="black" d="M551.11,-359.7C546.51,-351.64 540.94,-341.89 535.85,-332.98"/>
<polygon fill="black" stroke="black" points="538.77,-331.05 530.77,-324.1 532.7,-334.52 538.77,-331.05"/>
</g>
<!-- ast.BinOp object at 0x7f7d89a05330 -->
<g id="node20" class="node">
<title>ast.BinOp object at 0x7f7d89a05330</title>
<path fill="#66cdaa" stroke="black" d="M772,-252C772,-252 742,-252 742,-252 736,-252 730,-246 730,-240 730,-240 730,-228 730,-228 730,-222 736,-216 742,-216 742,-216 772,-216 772,-216 778,-216 784,-222 784,-228 784,-228 784,-240 784,-240 784,-246 778,-252 772,-252"/>
<text text-anchor="middle" x="757" y="-230.3" font-family="Times,serif" font-size="14.00">BinOp</text>
</g>
<!-- ast.Compare object at 0x7f7d89a06230&#45;&gt;ast.BinOp object at 0x7f7d89a05330 -->
<g id="edge21" class="edge">
<title>ast.Compare object at 0x7f7d89a06230&#45;&gt;ast.BinOp object at 0x7f7d89a05330</title>
<path fill="none" stroke="black" d="M698.28,-287.7C707.92,-279.05 719.73,-268.45 730.23,-259.03"/>
<polygon fill="black" stroke="black" points="732.84,-261.39 737.94,-252.1 728.16,-256.18 732.84,-261.39"/>
</g>
<!-- ast.Eq object at 0x7f7da82f6890 -->
<g id="node26" class="node">
<title>ast.Eq object at 0x7f7da82f6890</title>
<path fill="#66cdaa" stroke="black" d="M616,-252C616,-252 586,-252 586,-252 580,-252 574,-246 574,-240 574,-240 574,-228 574,-228 574,-222 580,-216 586,-216 586,-216 616,-216 616,-216 622,-216 628,-222 628,-228 628,-228 628,-240 628,-240 628,-246 622,-252 616,-252"/>
<text text-anchor="middle" x="601" y="-230.3" font-family="Times,serif" font-size="14.00">Eq</text>
</g>
<!-- ast.Compare object at 0x7f7d89a06230&#45;&gt;ast.Eq object at 0x7f7da82f6890 -->
<g id="edge30" class="edge">
<title>ast.Compare object at 0x7f7d89a06230&#45;&gt;ast.Eq object at 0x7f7da82f6890</title>
<path fill="none" stroke="black" d="M659.72,-287.7C650.08,-279.05 638.27,-268.45 627.77,-259.03"/>
<polygon fill="black" stroke="black" points="629.84,-256.18 620.06,-252.1 625.16,-261.39 629.84,-256.18"/>
</g>
<!-- ast.Constant object at 0x7f7d89a05f00 -->
<g id="node27" class="node">
<title>ast.Constant object at 0x7f7d89a05f00</title>
<path fill="#66cdaa" stroke="black" d="M699.5,-252C699.5,-252 658.5,-252 658.5,-252 652.5,-252 646.5,-246 646.5,-240 646.5,-240 646.5,-228 646.5,-228 646.5,-222 652.5,-216 658.5,-216 658.5,-216 699.5,-216 699.5,-216 705.5,-216 711.5,-222 711.5,-228 711.5,-228 711.5,-240 711.5,-240 711.5,-246 705.5,-252 699.5,-252"/>
<text text-anchor="middle" x="679" y="-230.3" font-family="Times,serif" font-size="14.00">Constant</text>
</g>
<!-- ast.Compare object at 0x7f7d89a06230&#45;&gt;ast.Constant object at 0x7f7d89a05f00 -->
<g id="edge31" class="edge">
<title>ast.Compare object at 0x7f7d89a06230&#45;&gt;ast.Constant object at 0x7f7d89a05f00</title>
<path fill="none" stroke="black" d="M679,-287.7C679,-279.98 679,-270.71 679,-262.11"/>
<polygon fill="black" stroke="black" points="682.5,-262.1 679,-252.1 675.5,-262.1 682.5,-262.1"/>
</g>
<!-- ast.Subscript object at 0x7f7d89a055a0 -->
<g id="node21" class="node">
<title>ast.Subscript object at 0x7f7d89a055a0</title>
<path fill="#66cdaa" stroke="black" d="M709,-180C709,-180 665,-180 665,-180 659,-180 653,-174 653,-168 653,-168 653,-156 653,-156 653,-150 659,-144 665,-144 665,-144 709,-144 709,-144 715,-144 721,-150 721,-156 721,-156 721,-168 721,-168 721,-174 715,-180 709,-180"/>
<text text-anchor="middle" x="687" y="-158.3" font-family="Times,serif" font-size="14.00">Subscript</text>
</g>
<!-- ast.BinOp object at 0x7f7d89a05330&#45;&gt;ast.Subscript object at 0x7f7d89a055a0 -->
<g id="edge22" class="edge">
<title>ast.BinOp object at 0x7f7d89a05330&#45;&gt;ast.Subscript object at 0x7f7d89a055a0</title>
<path fill="none" stroke="black" d="M739.7,-215.7C731.14,-207.14 720.66,-196.66 711.3,-187.3"/>
<polygon fill="black" stroke="black" points="713.65,-184.7 704.1,-180.1 708.7,-189.65 713.65,-184.7"/>
</g>
<!-- ast.Mod object at 0x7f7da82f6380 -->
<g id="node24" class="node">
<title>ast.Mod object at 0x7f7da82f6380</title>
<path fill="#66cdaa" stroke="black" d="M623,-180C623,-180 593,-180 593,-180 587,-180 581,-174 581,-168 581,-168 581,-156 581,-156 581,-150 587,-144 593,-144 593,-144 623,-144 623,-144 629,-144 635,-150 635,-156 635,-156 635,-168 635,-168 635,-174 629,-180 623,-180"/>
<text text-anchor="middle" x="608" y="-158.3" font-family="Times,serif" font-size="14.00">Mod</text>
</g>
<!-- ast.BinOp object at 0x7f7d89a05330&#45;&gt;ast.Mod object at 0x7f7da82f6380 -->
<g id="edge28" class="edge">
<title>ast.BinOp object at 0x7f7d89a05330&#45;&gt;ast.Mod object at 0x7f7da82f6380</title>
<path fill="none" stroke="black" d="M729.88,-220.18C726.88,-218.77 723.88,-217.35 721,-216 689.48,-201.19 679.69,-196.74 644.61,-180.28"/>
<polygon fill="black" stroke="black" points="645.66,-176.9 635.12,-175.82 642.68,-183.24 645.66,-176.9"/>
</g>
<!-- ast.Constant object at 0x7f7d89a04fd0 -->
<g id="node25" class="node">
<title>ast.Constant object at 0x7f7d89a04fd0</title>
<path fill="#66cdaa" stroke="black" d="M792.5,-180C792.5,-180 751.5,-180 751.5,-180 745.5,-180 739.5,-174 739.5,-168 739.5,-168 739.5,-156 739.5,-156 739.5,-150 745.5,-144 751.5,-144 751.5,-144 792.5,-144 792.5,-144 798.5,-144 804.5,-150 804.5,-156 804.5,-156 804.5,-168 804.5,-168 804.5,-174 798.5,-180 792.5,-180"/>
<text text-anchor="middle" x="772" y="-158.3" font-family="Times,serif" font-size="14.00">Constant</text>
</g>
<!-- ast.BinOp object at 0x7f7d89a05330&#45;&gt;ast.Constant object at 0x7f7d89a04fd0 -->
<g id="edge29" class="edge">
<title>ast.BinOp object at 0x7f7d89a05330&#45;&gt;ast.Constant object at 0x7f7d89a04fd0</title>
<path fill="none" stroke="black" d="M760.71,-215.7C762.36,-207.98 764.35,-198.71 766.19,-190.11"/>
<polygon fill="black" stroke="black" points="769.66,-190.62 768.33,-180.1 762.82,-189.15 769.66,-190.62"/>
</g>
<!-- ast.Subscript object at 0x7f7d89a055a0&#45;&gt;ast.Load object at 0x7f7da82f5f60 -->
<g id="edge27" class="edge">
<title>ast.Subscript object at 0x7f7d89a055a0&#45;&gt;ast.Load object at 0x7f7da82f5f60</title>
<path fill="none" stroke="black" d="M674.74,-143.98C657.89,-121 627.96,-81.81 613,-72 568.35,-42.73 507.19,-29.27 468.38,-23.34"/>
<polygon fill="black" stroke="black" points="468.46,-19.82 458.06,-21.86 467.47,-26.74 468.46,-19.82"/>
</g>
<!-- ast.Name object at 0x7f7d89a07430 -->
<g id="node22" class="node">
<title>ast.Name object at 0x7f7d89a07430</title>
<path fill="#66cdaa" stroke="black" d="M702,-108C702,-108 672,-108 672,-108 666,-108 660,-102 660,-96 660,-96 660,-84 660,-84 660,-78 666,-72 672,-72 672,-72 702,-72 702,-72 708,-72 714,-78 714,-84 714,-84 714,-96 714,-96 714,-102 708,-108 702,-108"/>
<text text-anchor="middle" x="687" y="-86.3" font-family="Times,serif" font-size="14.00">Name</text>
</g>
<!-- ast.Subscript object at 0x7f7d89a055a0&#45;&gt;ast.Name object at 0x7f7d89a07430 -->
<g id="edge23" class="edge">
<title>ast.Subscript object at 0x7f7d89a055a0&#45;&gt;ast.Name object at 0x7f7d89a07430</title>
<path fill="none" stroke="black" d="M687,-143.7C687,-135.98 687,-126.71 687,-118.11"/>
<polygon fill="black" stroke="black" points="690.5,-118.1 687,-108.1 683.5,-118.1 690.5,-118.1"/>
</g>
<!-- ast.Name object at 0x7f7d89a06d40 -->
<g id="node23" class="node">
<title>ast.Name object at 0x7f7d89a06d40</title>
<path fill="#66cdaa" stroke="black" d="M774,-108C774,-108 744,-108 744,-108 738,-108 732,-102 732,-96 732,-96 732,-84 732,-84 732,-78 738,-72 744,-72 744,-72 774,-72 774,-72 780,-72 786,-78 786,-84 786,-84 786,-96 786,-96 786,-102 780,-108 774,-108"/>
<text text-anchor="middle" x="759" y="-86.3" font-family="Times,serif" font-size="14.00">Name</text>
</g>
<!-- ast.Subscript object at 0x7f7d89a055a0&#45;&gt;ast.Name object at 0x7f7d89a06d40 -->
<g id="edge25" class="edge">
<title>ast.Subscript object at 0x7f7d89a055a0&#45;&gt;ast.Name object at 0x7f7d89a06d40</title>
<path fill="none" stroke="black" d="M704.8,-143.7C713.6,-135.14 724.38,-124.66 734,-115.3"/>
<polygon fill="black" stroke="black" points="736.68,-117.58 741.41,-108.1 731.8,-112.57 736.68,-117.58"/>
</g>
<!-- ast.Name object at 0x7f7d89a07430&#45;&gt;ast.Load object at 0x7f7da82f5f60 -->
<g id="edge24" class="edge">
<title>ast.Name object at 0x7f7d89a07430&#45;&gt;ast.Load object at 0x7f7da82f5f60</title>
<path fill="none" stroke="black" d="M659.87,-77.08C655.28,-75.26 650.54,-73.49 646,-72 584.76,-51.88 511.51,-35.38 468.25,-26.39"/>
<polygon fill="black" stroke="black" points="468.68,-22.91 458.18,-24.32 467.28,-29.76 468.68,-22.91"/>
</g>
<!-- ast.Name object at 0x7f7d89a06d40&#45;&gt;ast.Load object at 0x7f7da82f5f60 -->
<g id="edge26" class="edge">
<title>ast.Name object at 0x7f7d89a06d40&#45;&gt;ast.Load object at 0x7f7da82f5f60</title>
<path fill="none" stroke="black" d="M731.78,-75.24C728.86,-74.04 725.9,-72.93 723,-72 634.05,-43.47 524.62,-28.77 468.34,-22.62"/>
<polygon fill="black" stroke="black" points="468.46,-19.11 458.15,-21.53 467.72,-26.07 468.46,-19.11"/>
</g>
<!-- ast.Compare object at 0x7f7d89a04e80&#45;&gt;ast.Eq object at 0x7f7da82f6890 -->
<g id="edge42" class="edge">
<title>ast.Compare object at 0x7f7d89a04e80&#45;&gt;ast.Eq object at 0x7f7da82f6890</title>
<path fill="none" stroke="black" d="M540.78,-287.7C550.75,-278.97 563.01,-268.24 573.86,-258.75"/>
<polygon fill="black" stroke="black" points="576.23,-261.32 581.45,-252.1 571.62,-256.06 576.23,-261.32"/>
</g>
<!-- ast.BinOp object at 0x7f7d89a07b50 -->
<g id="node29" class="node">
<title>ast.BinOp object at 0x7f7d89a07b50</title>
<path fill="#66cdaa" stroke="black" d="M460,-252C460,-252 430,-252 430,-252 424,-252 418,-246 418,-240 418,-240 418,-228 418,-228 418,-222 424,-216 430,-216 430,-216 460,-216 460,-216 466,-216 472,-222 472,-228 472,-228 472,-240 472,-240 472,-246 466,-252 460,-252"/>
<text text-anchor="middle" x="445" y="-230.3" font-family="Times,serif" font-size="14.00">BinOp</text>
</g>
<!-- ast.Compare object at 0x7f7d89a04e80&#45;&gt;ast.BinOp object at 0x7f7d89a07b50 -->
<g id="edge33" class="edge">
<title>ast.Compare object at 0x7f7d89a04e80&#45;&gt;ast.BinOp object at 0x7f7d89a07b50</title>
<path fill="none" stroke="black" d="M502.21,-287.7C492.83,-279.05 481.32,-268.45 471.09,-259.03"/>
<polygon fill="black" stroke="black" points="473.3,-256.3 463.57,-252.1 468.55,-261.45 473.3,-256.3"/>
</g>
<!-- ast.Constant object at 0x7f7d89a05a20 -->
<g id="node34" class="node">
<title>ast.Constant object at 0x7f7d89a05a20</title>
<path fill="#66cdaa" stroke="black" d="M543.5,-252C543.5,-252 502.5,-252 502.5,-252 496.5,-252 490.5,-246 490.5,-240 490.5,-240 490.5,-228 490.5,-228 490.5,-222 496.5,-216 502.5,-216 502.5,-216 543.5,-216 543.5,-216 549.5,-216 555.5,-222 555.5,-228 555.5,-228 555.5,-240 555.5,-240 555.5,-246 549.5,-252 543.5,-252"/>
<text text-anchor="middle" x="523" y="-230.3" font-family="Times,serif" font-size="14.00">Constant</text>
</g>
<!-- ast.Compare object at 0x7f7d89a04e80&#45;&gt;ast.Constant object at 0x7f7d89a05a20 -->
<g id="edge43" class="edge">
<title>ast.Compare object at 0x7f7d89a04e80&#45;&gt;ast.Constant object at 0x7f7d89a05a20</title>
<path fill="none" stroke="black" d="M521.49,-287.7C521.71,-279.98 521.98,-270.71 522.23,-262.11"/>
<polygon fill="black" stroke="black" points="525.72,-262.2 522.51,-252.1 518.73,-262 525.72,-262.2"/>
</g>
<!-- ast.BinOp object at 0x7f7d89a07b50&#45;&gt;ast.Mod object at 0x7f7da82f6380 -->
<g id="edge40" class="edge">
<title>ast.BinOp object at 0x7f7d89a07b50&#45;&gt;ast.Mod object at 0x7f7da82f6380</title>
<path fill="none" stroke="black" d="M472.04,-220C475.05,-218.62 478.08,-217.26 481,-216 518.26,-199.85 530.48,-197.55 571.7,-179.99"/>
<polygon fill="black" stroke="black" points="573.16,-183.17 580.96,-176 570.39,-176.74 573.16,-183.17"/>
</g>
<!-- ast.Subscript object at 0x7f7d89a06cb0 -->
<g id="node30" class="node">
<title>ast.Subscript object at 0x7f7d89a06cb0</title>
<path fill="#66cdaa" stroke="black" d="M467,-180C467,-180 423,-180 423,-180 417,-180 411,-174 411,-168 411,-168 411,-156 411,-156 411,-150 417,-144 423,-144 423,-144 467,-144 467,-144 473,-144 479,-150 479,-156 479,-156 479,-168 479,-168 479,-174 473,-180 467,-180"/>
<text text-anchor="middle" x="445" y="-158.3" font-family="Times,serif" font-size="14.00">Subscript</text>
</g>
<!-- ast.BinOp object at 0x7f7d89a07b50&#45;&gt;ast.Subscript object at 0x7f7d89a06cb0 -->
<g id="edge34" class="edge">
<title>ast.BinOp object at 0x7f7d89a07b50&#45;&gt;ast.Subscript object at 0x7f7d89a06cb0</title>
<path fill="none" stroke="black" d="M445,-215.7C445,-207.98 445,-198.71 445,-190.11"/>
<polygon fill="black" stroke="black" points="448.5,-190.1 445,-180.1 441.5,-190.1 448.5,-190.1"/>
</g>
<!-- ast.Constant object at 0x7f7d89a05030 -->
<g id="node33" class="node">
<title>ast.Constant object at 0x7f7d89a05030</title>
<path fill="#66cdaa" stroke="black" d="M550.5,-180C550.5,-180 509.5,-180 509.5,-180 503.5,-180 497.5,-174 497.5,-168 497.5,-168 497.5,-156 497.5,-156 497.5,-150 503.5,-144 509.5,-144 509.5,-144 550.5,-144 550.5,-144 556.5,-144 562.5,-150 562.5,-156 562.5,-156 562.5,-168 562.5,-168 562.5,-174 556.5,-180 550.5,-180"/>
<text text-anchor="middle" x="530" y="-158.3" font-family="Times,serif" font-size="14.00">Constant</text>
</g>
<!-- ast.BinOp object at 0x7f7d89a07b50&#45;&gt;ast.Constant object at 0x7f7d89a05030 -->
<g id="edge41" class="edge">
<title>ast.BinOp object at 0x7f7d89a07b50&#45;&gt;ast.Constant object at 0x7f7d89a05030</title>
<path fill="none" stroke="black" d="M466.01,-215.7C476.72,-206.88 489.89,-196.03 501.5,-186.47"/>
<polygon fill="black" stroke="black" points="503.74,-189.16 509.23,-180.1 499.29,-183.76 503.74,-189.16"/>
</g>
<!-- ast.Subscript object at 0x7f7d89a06cb0&#45;&gt;ast.Load object at 0x7f7da82f5f60 -->
<g id="edge39" class="edge">
<title>ast.Subscript object at 0x7f7d89a06cb0&#45;&gt;ast.Load object at 0x7f7da82f5f60</title>
<path fill="none" stroke="black" d="M443.31,-143.87C440.93,-119.67 436.54,-75.21 433.7,-46.39"/>
<polygon fill="black" stroke="black" points="437.16,-45.8 432.69,-36.19 430.19,-46.48 437.16,-45.8"/>
</g>
<!-- ast.Name object at 0x7f7d89a05c00 -->
<g id="node31" class="node">
<title>ast.Name object at 0x7f7d89a05c00</title>
<path fill="#66cdaa" stroke="black" d="M520,-108C520,-108 490,-108 490,-108 484,-108 478,-102 478,-96 478,-96 478,-84 478,-84 478,-78 484,-72 490,-72 490,-72 520,-72 520,-72 526,-72 532,-78 532,-84 532,-84 532,-96 532,-96 532,-102 526,-108 520,-108"/>
<text text-anchor="middle" x="505" y="-86.3" font-family="Times,serif" font-size="14.00">Name</text>
</g>
<!-- ast.Subscript object at 0x7f7d89a06cb0&#45;&gt;ast.Name object at 0x7f7d89a05c00 -->
<g id="edge35" class="edge">
<title>ast.Subscript object at 0x7f7d89a06cb0&#45;&gt;ast.Name object at 0x7f7d89a05c00</title>
<path fill="none" stroke="black" d="M459.83,-143.7C467.02,-135.3 475.8,-125.07 483.69,-115.86"/>
<polygon fill="black" stroke="black" points="486.49,-117.97 490.34,-108.1 481.17,-113.42 486.49,-117.97"/>
</g>
<!-- ast.Name object at 0x7f7d89a07670 -->
<g id="node32" class="node">
<title>ast.Name object at 0x7f7d89a07670</title>
<path fill="#66cdaa" stroke="black" d="M592,-108C592,-108 562,-108 562,-108 556,-108 550,-102 550,-96 550,-96 550,-84 550,-84 550,-78 556,-72 562,-72 562,-72 592,-72 592,-72 598,-72 604,-78 604,-84 604,-84 604,-96 604,-96 604,-102 598,-108 592,-108"/>
<text text-anchor="middle" x="577" y="-86.3" font-family="Times,serif" font-size="14.00">Name</text>
</g>
<!-- ast.Subscript object at 0x7f7d89a06cb0&#45;&gt;ast.Name object at 0x7f7d89a07670 -->
<g id="edge37" class="edge">
<title>ast.Subscript object at 0x7f7d89a06cb0&#45;&gt;ast.Name object at 0x7f7d89a07670</title>
<path fill="none" stroke="black" d="M477.29,-143.88C496.53,-133.67 520.99,-120.7 540.88,-110.16"/>
<polygon fill="black" stroke="black" points="542.74,-113.13 549.94,-105.35 539.46,-106.94 542.74,-113.13"/>
</g>
<!-- ast.Name object at 0x7f7d89a05c00&#45;&gt;ast.Load object at 0x7f7da82f5f60 -->
<g id="edge36" class="edge">
<title>ast.Name object at 0x7f7d89a05c00&#45;&gt;ast.Load object at 0x7f7da82f5f60</title>
<path fill="none" stroke="black" d="M486.71,-71.7C477.57,-63.05 466.36,-52.45 456.4,-43.03"/>
<polygon fill="black" stroke="black" points="458.75,-40.43 449.08,-36.1 453.94,-45.52 458.75,-40.43"/>
</g>
<!-- ast.Name object at 0x7f7d89a07670&#45;&gt;ast.Load object at 0x7f7da82f5f60 -->
<g id="edge38" class="edge">
<title>ast.Name object at 0x7f7d89a07670&#45;&gt;ast.Load object at 0x7f7da82f5f60</title>
<path fill="none" stroke="black" d="M549.88,-76C526.67,-64.87 493.06,-48.75 467.49,-36.5"/>
<polygon fill="black" stroke="black" points="469,-33.34 458.47,-32.17 465.97,-39.65 469,-33.34"/>
</g>
<!-- ast.Call object at 0x7f7d89a06ad0 -->
<g id="node36" class="node">
<title>ast.Call object at 0x7f7d89a06ad0</title>
<path fill="#66cdaa" stroke="black" d="M373,-252C373,-252 343,-252 343,-252 337,-252 331,-246 331,-240 331,-240 331,-228 331,-228 331,-222 337,-216 343,-216 343,-216 373,-216 373,-216 379,-216 385,-222 385,-228 385,-228 385,-240 385,-240 385,-246 379,-252 373,-252"/>
<text text-anchor="middle" x="358" y="-230.3" font-family="Times,serif" font-size="14.00">Call</text>
</g>
<!-- ast.Expr object at 0x7f7d89a062f0&#45;&gt;ast.Call object at 0x7f7d89a06ad0 -->
<g id="edge45" class="edge">
<title>ast.Expr object at 0x7f7d89a062f0&#45;&gt;ast.Call object at 0x7f7d89a06ad0</title>
<path fill="none" stroke="black" d="M408.12,-359.87C398.32,-335.46 380.25,-290.43 368.69,-261.64"/>
<polygon fill="black" stroke="black" points="371.87,-260.17 364.9,-252.19 365.38,-262.77 371.87,-260.17"/>
</g>
<!-- ast.Attribute object at 0x7f7d89a04970 -->
<g id="node37" class="node">
<title>ast.Attribute object at 0x7f7d89a04970</title>
<path fill="#66cdaa" stroke="black" d="M378.5,-180C378.5,-180 337.5,-180 337.5,-180 331.5,-180 325.5,-174 325.5,-168 325.5,-168 325.5,-156 325.5,-156 325.5,-150 331.5,-144 337.5,-144 337.5,-144 378.5,-144 378.5,-144 384.5,-144 390.5,-150 390.5,-156 390.5,-156 390.5,-168 390.5,-168 390.5,-174 384.5,-180 378.5,-180"/>
<text text-anchor="middle" x="358" y="-158.3" font-family="Times,serif" font-size="14.00">Attribute</text>
</g>
<!-- ast.Call object at 0x7f7d89a06ad0&#45;&gt;ast.Attribute object at 0x7f7d89a04970 -->
<g id="edge46" class="edge">
<title>ast.Call object at 0x7f7d89a06ad0&#45;&gt;ast.Attribute object at 0x7f7d89a04970</title>
<path fill="none" stroke="black" d="M358,-215.7C358,-207.98 358,-198.71 358,-190.11"/>
<polygon fill="black" stroke="black" points="361.5,-190.1 358,-180.1 354.5,-190.1 361.5,-190.1"/>
</g>
<!-- ast.Subscript object at 0x7f7d89a06860 -->
<g id="node39" class="node">
<title>ast.Subscript object at 0x7f7d89a06860</title>
<path fill="#66cdaa" stroke="black" d="M283,-180C283,-180 239,-180 239,-180 233,-180 227,-174 227,-168 227,-168 227,-156 227,-156 227,-150 233,-144 239,-144 239,-144 283,-144 283,-144 289,-144 295,-150 295,-156 295,-156 295,-168 295,-168 295,-174 289,-180 283,-180"/>
<text text-anchor="middle" x="261" y="-158.3" font-family="Times,serif" font-size="14.00">Subscript</text>
</g>
<!-- ast.Call object at 0x7f7d89a06ad0&#45;&gt;ast.Subscript object at 0x7f7d89a06860 -->
<g id="edge50" class="edge">
<title>ast.Call object at 0x7f7d89a06ad0&#45;&gt;ast.Subscript object at 0x7f7d89a06860</title>
<path fill="none" stroke="black" d="M334.02,-215.7C321.69,-206.8 306.48,-195.82 293.15,-186.2"/>
<polygon fill="black" stroke="black" points="294.86,-183.12 284.7,-180.1 290.76,-188.79 294.86,-183.12"/>
</g>
<!-- ast.Attribute object at 0x7f7d89a04970&#45;&gt;ast.Load object at 0x7f7da82f5f60 -->
<g id="edge49" class="edge">
<title>ast.Attribute object at 0x7f7d89a04970&#45;&gt;ast.Load object at 0x7f7da82f5f60</title>
<path fill="none" stroke="black" d="M370.48,-143.82C377.56,-133.68 386.31,-120.43 393,-108 403.9,-87.75 414.01,-63.7 421.05,-45.72"/>
<polygon fill="black" stroke="black" points="424.41,-46.74 424.74,-36.15 417.88,-44.23 424.41,-46.74"/>
</g>
<!-- ast.Name object at 0x7f7d89a07e80 -->
<g id="node38" class="node">
<title>ast.Name object at 0x7f7d89a07e80</title>
<path fill="#66cdaa" stroke="black" d="M372,-108C372,-108 342,-108 342,-108 336,-108 330,-102 330,-96 330,-96 330,-84 330,-84 330,-78 336,-72 342,-72 342,-72 372,-72 372,-72 378,-72 384,-78 384,-84 384,-84 384,-96 384,-96 384,-102 378,-108 372,-108"/>
<text text-anchor="middle" x="357" y="-86.3" font-family="Times,serif" font-size="14.00">Name</text>
</g>
<!-- ast.Attribute object at 0x7f7d89a04970&#45;&gt;ast.Name object at 0x7f7d89a07e80 -->
<g id="edge47" class="edge">
<title>ast.Attribute object at 0x7f7d89a04970&#45;&gt;ast.Name object at 0x7f7d89a07e80</title>
<path fill="none" stroke="black" d="M357.75,-143.7C357.64,-135.98 357.51,-126.71 357.39,-118.11"/>
<polygon fill="black" stroke="black" points="360.89,-118.05 357.24,-108.1 353.89,-118.15 360.89,-118.05"/>
</g>
<!-- ast.Name object at 0x7f7d89a07e80&#45;&gt;ast.Load object at 0x7f7da82f5f60 -->
<g id="edge48" class="edge">
<title>ast.Name object at 0x7f7d89a07e80&#45;&gt;ast.Load object at 0x7f7da82f5f60</title>
<path fill="none" stroke="black" d="M375.29,-71.7C384.43,-63.05 395.64,-52.45 405.6,-43.03"/>
<polygon fill="black" stroke="black" points="408.06,-45.52 412.92,-36.1 403.25,-40.43 408.06,-45.52"/>
</g>
<!-- ast.Subscript object at 0x7f7d89a06860&#45;&gt;ast.Load object at 0x7f7da82f5f60 -->
<g id="edge55" class="edge">
<title>ast.Subscript object at 0x7f7d89a06860&#45;&gt;ast.Load object at 0x7f7da82f5f60</title>
<path fill="none" stroke="black" d="M269,-143.94C278.88,-124.41 297.33,-92.49 321,-72 342.46,-53.43 371.56,-39.79 394.44,-31"/>
<polygon fill="black" stroke="black" points="395.65,-34.28 403.82,-27.53 393.23,-27.71 395.65,-34.28"/>
</g>
<!-- ast.Name object at 0x7f7da248d3f0 -->
<g id="node40" class="node">
<title>ast.Name object at 0x7f7da248d3f0</title>
<path fill="#66cdaa" stroke="black" d="M190,-108C190,-108 160,-108 160,-108 154,-108 148,-102 148,-96 148,-96 148,-84 148,-84 148,-78 154,-72 160,-72 160,-72 190,-72 190,-72 196,-72 202,-78 202,-84 202,-84 202,-96 202,-96 202,-102 196,-108 190,-108"/>
<text text-anchor="middle" x="175" y="-86.3" font-family="Times,serif" font-size="14.00">Name</text>
</g>
<!-- ast.Subscript object at 0x7f7d89a06860&#45;&gt;ast.Name object at 0x7f7da248d3f0 -->
<g id="edge51" class="edge">
<title>ast.Subscript object at 0x7f7d89a06860&#45;&gt;ast.Name object at 0x7f7da248d3f0</title>
<path fill="none" stroke="black" d="M239.74,-143.7C228.91,-134.88 215.58,-124.03 203.84,-114.47"/>
<polygon fill="black" stroke="black" points="205.98,-111.7 196.01,-108.1 201.56,-117.13 205.98,-111.7"/>
</g>
<!-- ast.Name object at 0x7f7da248f550 -->
<g id="node41" class="node">
<title>ast.Name object at 0x7f7da248f550</title>
<path fill="#66cdaa" stroke="black" d="M262,-108C262,-108 232,-108 232,-108 226,-108 220,-102 220,-96 220,-96 220,-84 220,-84 220,-78 226,-72 232,-72 232,-72 262,-72 262,-72 268,-72 274,-78 274,-84 274,-84 274,-96 274,-96 274,-102 268,-108 262,-108"/>
<text text-anchor="middle" x="247" y="-86.3" font-family="Times,serif" font-size="14.00">Name</text>
</g>
<!-- ast.Subscript object at 0x7f7d89a06860&#45;&gt;ast.Name object at 0x7f7da248f550 -->
<g id="edge53" class="edge">
<title>ast.Subscript object at 0x7f7d89a06860&#45;&gt;ast.Name object at 0x7f7da248f550</title>
<path fill="none" stroke="black" d="M257.54,-143.7C256,-135.98 254.14,-126.71 252.42,-118.11"/>
<polygon fill="black" stroke="black" points="255.81,-117.22 250.42,-108.1 248.95,-118.6 255.81,-117.22"/>
</g>
<!-- ast.Name object at 0x7f7da248d3f0&#45;&gt;ast.Load object at 0x7f7da82f5f60 -->
<g id="edge52" class="edge">
<title>ast.Name object at 0x7f7da248d3f0&#45;&gt;ast.Load object at 0x7f7da82f5f60</title>
<path fill="none" stroke="black" d="M202.27,-75.41C205.19,-74.18 208.13,-73.01 211,-72 273.6,-49.94 349.4,-33.91 393.71,-25.56"/>
<polygon fill="black" stroke="black" points="394.54,-28.97 403.73,-23.71 393.26,-22.09 394.54,-28.97"/>
</g>
<!-- ast.Name object at 0x7f7da248f550&#45;&gt;ast.Load object at 0x7f7da82f5f60 -->
<g id="edge54" class="edge">
<title>ast.Name object at 0x7f7da248f550&#45;&gt;ast.Load object at 0x7f7da82f5f60</title>
<path fill="none" stroke="black" d="M274.29,-77.52C278.85,-75.64 283.55,-73.75 288,-72 323.83,-57.94 365.07,-42.76 394.03,-32.26"/>
<polygon fill="black" stroke="black" points="395.52,-35.45 403.73,-28.76 393.14,-28.86 395.52,-35.45"/>
</g>
<!-- ast.Name object at 0x7f7da248ec80 -->
<g id="node43" class="node">
<title>ast.Name object at 0x7f7da248ec80</title>
<path fill="#66cdaa" stroke="black" d="M757,-396C757,-396 727,-396 727,-396 721,-396 715,-390 715,-384 715,-384 715,-372 715,-372 715,-366 721,-360 727,-360 727,-360 757,-360 757,-360 763,-360 769,-366 769,-372 769,-372 769,-384 769,-384 769,-390 763,-396 757,-396"/>
<text text-anchor="middle" x="742" y="-374.3" font-family="Times,serif" font-size="14.00">Name</text>
</g>
<!-- ast.Return object at 0x7f7da248ec50&#45;&gt;ast.Name object at 0x7f7da248ec80 -->
<g id="edge57" class="edge">
<title>ast.Return object at 0x7f7da248ec50&#45;&gt;ast.Name object at 0x7f7da248ec80</title>
<path fill="none" stroke="black" d="M438.09,-509.38C497.25,-484 638.06,-423.59 705.19,-394.79"/>
<polygon fill="black" stroke="black" points="706.73,-397.94 714.54,-390.78 703.97,-391.51 706.73,-397.94"/>
</g>
<!-- ast.Name object at 0x7f7da248ec80&#45;&gt;ast.Load object at 0x7f7da82f5f60 -->
<g id="edge58" class="edge">
<title>ast.Name object at 0x7f7da248ec80&#45;&gt;ast.Load object at 0x7f7da82f5f60</title>
<path fill="none" stroke="black" d="M762.65,-359.58C789.5,-334.87 833,-286.83 833,-235 833,-235 833,-235 833,-161 833,-117.99 829.08,-98.23 795,-72 744.4,-33.05 550.72,-22.61 468.39,-19.91"/>
<polygon fill="black" stroke="black" points="468.33,-16.4 458.22,-19.6 468.11,-23.4 468.33,-16.4"/>
</g>
</g>
</svg>
