<?xml version="1.0" encoding="UTF-8" standalone="no"?>
<!DOCTYPE svg PUBLIC "-//W3C//DTD SVG 1.1//EN"
 "http://www.w3.org/Graphics/SVG/1.1/DTD/svg11.dtd">
<!-- Generated by graphviz version 2.43.0 (0)
 -->
<!-- Title: %3 Pages: 1 -->
<svg width="811pt" height="620pt"
 viewBox="0.00 0.00 810.50 620.00" xmlns="http://www.w3.org/2000/svg" xmlns:xlink="http://www.w3.org/1999/xlink">
<g id="graph0" class="graph" transform="scale(1 1) rotate(0) translate(4 616)">
<title>%3</title>
<polygon fill="white" stroke="transparent" points="-4,4 -4,-616 806.5,-616 806.5,4 -4,4"/>
<!-- ast.Module object at 0x7f21ce7e3370 -->
<g id="node1" class="node">
<title>ast.Module object at 0x7f21ce7e3370</title>
<path fill="#66cdaa" stroke="black" d="M612,-612C612,-612 577,-612 577,-612 571,-612 565,-606 565,-600 565,-600 565,-588 565,-588 565,-582 571,-576 577,-576 577,-576 612,-576 612,-576 618,-576 624,-582 624,-588 624,-588 624,-600 624,-600 624,-606 618,-612 612,-612"/>
<text text-anchor="middle" x="594.5" y="-590.3" font-family="Times,serif" font-size="14.00">Module</text>
</g>
<!-- ast.FunctionDef object at 0x7f21ce7e0910 -->
<g id="node2" class="node">
<title>ast.FunctionDef object at 0x7f21ce7e0910</title>
<path fill="#66cdaa" stroke="black" d="M625,-540C625,-540 564,-540 564,-540 558,-540 552,-534 552,-528 552,-528 552,-516 552,-516 552,-510 558,-504 564,-504 564,-504 625,-504 625,-504 631,-504 637,-510 637,-516 637,-516 637,-528 637,-528 637,-534 631,-540 625,-540"/>
<text text-anchor="middle" x="594.5" y="-518.3" font-family="Times,serif" font-size="14.00">FunctionDef</text>
</g>
<!-- ast.Module object at 0x7f21ce7e3370&#45;&gt;ast.FunctionDef object at 0x7f21ce7e0910 -->
<g id="edge1" class="edge">
<title>ast.Module object at 0x7f21ce7e3370&#45;&gt;ast.FunctionDef object at 0x7f21ce7e0910</title>
<path fill="none" stroke="black" d="M594.5,-575.7C594.5,-567.98 594.5,-558.71 594.5,-550.11"/>
<polygon fill="black" stroke="black" points="598,-550.1 594.5,-540.1 591,-550.1 598,-550.1"/>
</g>
<!-- ast.arguments object at 0x7f21ce7e05b0 -->
<g id="node3" class="node">
<title>ast.arguments object at 0x7f21ce7e05b0</title>
<path fill="#66cdaa" stroke="black" d="M412.5,-468C412.5,-468 362.5,-468 362.5,-468 356.5,-468 350.5,-462 350.5,-456 350.5,-456 350.5,-444 350.5,-444 350.5,-438 356.5,-432 362.5,-432 362.5,-432 412.5,-432 412.5,-432 418.5,-432 424.5,-438 424.5,-444 424.5,-444 424.5,-456 424.5,-456 424.5,-462 418.5,-468 412.5,-468"/>
<text text-anchor="middle" x="387.5" y="-446.3" font-family="Times,serif" font-size="14.00">arguments</text>
</g>
<!-- ast.FunctionDef object at 0x7f21ce7e0910&#45;&gt;ast.arguments object at 0x7f21ce7e05b0 -->
<g id="edge2" class="edge">
<title>ast.FunctionDef object at 0x7f21ce7e0910&#45;&gt;ast.arguments object at 0x7f21ce7e05b0</title>
<path fill="none" stroke="black" d="M551.86,-506.58C517.57,-494.98 469.45,-478.71 434.14,-466.77"/>
<polygon fill="black" stroke="black" points="435.13,-463.41 424.54,-463.52 432.89,-470.04 435.13,-463.41"/>
</g>
<!-- ast.Assign object at 0x7f21ce7e3400 -->
<g id="node5" class="node">
<title>ast.Assign object at 0x7f21ce7e3400</title>
<path fill="#66cdaa" stroke="black" d="M645.5,-468C645.5,-468 615.5,-468 615.5,-468 609.5,-468 603.5,-462 603.5,-456 603.5,-456 603.5,-444 603.5,-444 603.5,-438 609.5,-432 615.5,-432 615.5,-432 645.5,-432 645.5,-432 651.5,-432 657.5,-438 657.5,-444 657.5,-444 657.5,-456 657.5,-456 657.5,-462 651.5,-468 645.5,-468"/>
<text text-anchor="middle" x="630.5" y="-446.3" font-family="Times,serif" font-size="14.00">Assign</text>
</g>
<!-- ast.FunctionDef object at 0x7f21ce7e0910&#45;&gt;ast.Assign object at 0x7f21ce7e3400 -->
<g id="edge4" class="edge">
<title>ast.FunctionDef object at 0x7f21ce7e0910&#45;&gt;ast.Assign object at 0x7f21ce7e3400</title>
<path fill="none" stroke="black" d="M603.4,-503.7C607.5,-495.73 612.45,-486.1 616.99,-477.26"/>
<polygon fill="black" stroke="black" points="620.24,-478.6 621.7,-468.1 614.02,-475.4 620.24,-478.6"/>
</g>
<!-- ast.For object at 0x7f21ce7e0f10 -->
<g id="node10" class="node">
<title>ast.For object at 0x7f21ce7e0f10</title>
<path fill="#66cdaa" stroke="black" d="M537.5,-468C537.5,-468 507.5,-468 507.5,-468 501.5,-468 495.5,-462 495.5,-456 495.5,-456 495.5,-444 495.5,-444 495.5,-438 501.5,-432 507.5,-432 507.5,-432 537.5,-432 537.5,-432 543.5,-432 549.5,-438 549.5,-444 549.5,-444 549.5,-456 549.5,-456 549.5,-462 543.5,-468 537.5,-468"/>
<text text-anchor="middle" x="522.5" y="-446.3" font-family="Times,serif" font-size="14.00">For</text>
</g>
<!-- ast.FunctionDef object at 0x7f21ce7e0910&#45;&gt;ast.For object at 0x7f21ce7e0f10 -->
<g id="edge9" class="edge">
<title>ast.FunctionDef object at 0x7f21ce7e0910&#45;&gt;ast.For object at 0x7f21ce7e0f10</title>
<path fill="none" stroke="black" d="M576.7,-503.7C567.9,-495.14 557.12,-484.66 547.5,-475.3"/>
<polygon fill="black" stroke="black" points="549.7,-472.57 540.09,-468.1 544.82,-477.58 549.7,-472.57"/>
</g>
<!-- ast.Return object at 0x7f21ce7e0640 -->
<g id="node33" class="node">
<title>ast.Return object at 0x7f21ce7e0640</title>
<path fill="#66cdaa" stroke="black" d="M736.5,-468C736.5,-468 706.5,-468 706.5,-468 700.5,-468 694.5,-462 694.5,-456 694.5,-456 694.5,-444 694.5,-444 694.5,-438 700.5,-432 706.5,-432 706.5,-432 736.5,-432 736.5,-432 742.5,-432 748.5,-438 748.5,-444 748.5,-444 748.5,-456 748.5,-456 748.5,-462 742.5,-468 736.5,-468"/>
<text text-anchor="middle" x="721.5" y="-446.3" font-family="Times,serif" font-size="14.00">Return</text>
</g>
<!-- ast.FunctionDef object at 0x7f21ce7e0910&#45;&gt;ast.Return object at 0x7f21ce7e0640 -->
<g id="edge41" class="edge">
<title>ast.FunctionDef object at 0x7f21ce7e0910&#45;&gt;ast.Return object at 0x7f21ce7e0640</title>
<path fill="none" stroke="black" d="M625.57,-503.88C643.62,-493.93 666.44,-481.35 685.3,-470.95"/>
<polygon fill="black" stroke="black" points="687.13,-473.94 694.2,-466.05 683.76,-467.81 687.13,-473.94"/>
</g>
<!-- ast.arg object at 0x7f21ce7e0040 -->
<g id="node4" class="node">
<title>ast.arg object at 0x7f21ce7e0040</title>
<path fill="#66cdaa" stroke="black" d="M345.5,-396C345.5,-396 315.5,-396 315.5,-396 309.5,-396 303.5,-390 303.5,-384 303.5,-384 303.5,-372 303.5,-372 303.5,-366 309.5,-360 315.5,-360 315.5,-360 345.5,-360 345.5,-360 351.5,-360 357.5,-366 357.5,-372 357.5,-372 357.5,-384 357.5,-384 357.5,-390 351.5,-396 345.5,-396"/>
<text text-anchor="middle" x="330.5" y="-374.3" font-family="Times,serif" font-size="14.00">arg</text>
</g>
<!-- ast.arguments object at 0x7f21ce7e05b0&#45;&gt;ast.arg object at 0x7f21ce7e0040 -->
<g id="edge3" class="edge">
<title>ast.arguments object at 0x7f21ce7e05b0&#45;&gt;ast.arg object at 0x7f21ce7e0040</title>
<path fill="none" stroke="black" d="M373.41,-431.7C366.58,-423.3 358.24,-413.07 350.74,-403.86"/>
<polygon fill="black" stroke="black" points="353.46,-401.65 344.43,-396.1 348.03,-406.07 353.46,-401.65"/>
</g>
<!-- ast.Name object at 0x7f21ce7e3280 -->
<g id="node6" class="node">
<title>ast.Name object at 0x7f21ce7e3280</title>
<path fill="#66cdaa" stroke="black" d="M645.5,-396C645.5,-396 615.5,-396 615.5,-396 609.5,-396 603.5,-390 603.5,-384 603.5,-384 603.5,-372 603.5,-372 603.5,-366 609.5,-360 615.5,-360 615.5,-360 645.5,-360 645.5,-360 651.5,-360 657.5,-366 657.5,-372 657.5,-372 657.5,-384 657.5,-384 657.5,-390 651.5,-396 645.5,-396"/>
<text text-anchor="middle" x="630.5" y="-374.3" font-family="Times,serif" font-size="14.00">Name</text>
</g>
<!-- ast.Assign object at 0x7f21ce7e3400&#45;&gt;ast.Name object at 0x7f21ce7e3280 -->
<g id="edge5" class="edge">
<title>ast.Assign object at 0x7f21ce7e3400&#45;&gt;ast.Name object at 0x7f21ce7e3280</title>
<path fill="none" stroke="black" d="M630.5,-431.7C630.5,-423.98 630.5,-414.71 630.5,-406.11"/>
<polygon fill="black" stroke="black" points="634,-406.1 630.5,-396.1 627,-406.1 634,-406.1"/>
</g>
<!-- ast.List object at 0x7f21ce7e1030 -->
<g id="node8" class="node">
<title>ast.List object at 0x7f21ce7e1030</title>
<path fill="#66cdaa" stroke="black" d="M717.5,-324C717.5,-324 687.5,-324 687.5,-324 681.5,-324 675.5,-318 675.5,-312 675.5,-312 675.5,-300 675.5,-300 675.5,-294 681.5,-288 687.5,-288 687.5,-288 717.5,-288 717.5,-288 723.5,-288 729.5,-294 729.5,-300 729.5,-300 729.5,-312 729.5,-312 729.5,-318 723.5,-324 717.5,-324"/>
<text text-anchor="middle" x="702.5" y="-302.3" font-family="Times,serif" font-size="14.00">List</text>
</g>
<!-- ast.Assign object at 0x7f21ce7e3400&#45;&gt;ast.List object at 0x7f21ce7e1030 -->
<g id="edge7" class="edge">
<title>ast.Assign object at 0x7f21ce7e3400&#45;&gt;ast.List object at 0x7f21ce7e1030</title>
<path fill="none" stroke="black" d="M643.47,-431.92C650.79,-421.81 659.79,-408.56 666.5,-396 677.25,-375.87 686.8,-351.82 693.35,-333.8"/>
<polygon fill="black" stroke="black" points="696.71,-334.81 696.77,-324.21 690.11,-332.46 696.71,-334.81"/>
</g>
<!-- ast.Store object at 0x7f220e8f1fc0 -->
<g id="node7" class="node">
<title>ast.Store object at 0x7f220e8f1fc0</title>
<path fill="#66cdaa" stroke="black" d="M604.5,-324C604.5,-324 574.5,-324 574.5,-324 568.5,-324 562.5,-318 562.5,-312 562.5,-312 562.5,-300 562.5,-300 562.5,-294 568.5,-288 574.5,-288 574.5,-288 604.5,-288 604.5,-288 610.5,-288 616.5,-294 616.5,-300 616.5,-300 616.5,-312 616.5,-312 616.5,-318 610.5,-324 604.5,-324"/>
<text text-anchor="middle" x="589.5" y="-302.3" font-family="Times,serif" font-size="14.00">Store</text>
</g>
<!-- ast.Name object at 0x7f21ce7e3280&#45;&gt;ast.Store object at 0x7f220e8f1fc0 -->
<g id="edge6" class="edge">
<title>ast.Name object at 0x7f21ce7e3280&#45;&gt;ast.Store object at 0x7f220e8f1fc0</title>
<path fill="none" stroke="black" d="M620.37,-359.7C615.65,-351.64 609.94,-341.89 604.72,-332.98"/>
<polygon fill="black" stroke="black" points="607.59,-330.96 599.52,-324.1 601.55,-334.5 607.59,-330.96"/>
</g>
<!-- ast.Load object at 0x7f220e8f1f60 -->
<g id="node9" class="node">
<title>ast.Load object at 0x7f220e8f1f60</title>
<path fill="#66cdaa" stroke="black" d="M483.5,-36C483.5,-36 453.5,-36 453.5,-36 447.5,-36 441.5,-30 441.5,-24 441.5,-24 441.5,-12 441.5,-12 441.5,-6 447.5,0 453.5,0 453.5,0 483.5,0 483.5,0 489.5,0 495.5,-6 495.5,-12 495.5,-12 495.5,-24 495.5,-24 495.5,-30 489.5,-36 483.5,-36"/>
<text text-anchor="middle" x="468.5" y="-14.3" font-family="Times,serif" font-size="14.00">Load</text>
</g>
<!-- ast.List object at 0x7f21ce7e1030&#45;&gt;ast.Load object at 0x7f220e8f1f60 -->
<g id="edge8" class="edge">
<title>ast.List object at 0x7f21ce7e1030&#45;&gt;ast.Load object at 0x7f220e8f1f60</title>
<path fill="none" stroke="black" d="M708.89,-287.73C723.25,-245.58 752.99,-136.23 701.5,-72 677.39,-41.92 565.5,-27.58 505.98,-21.98"/>
<polygon fill="black" stroke="black" points="506.13,-18.48 495.85,-21.07 505.49,-25.45 506.13,-18.48"/>
</g>
<!-- ast.Name object at 0x7f21ce7e2140 -->
<g id="node11" class="node">
<title>ast.Name object at 0x7f21ce7e2140</title>
<path fill="#66cdaa" stroke="black" d="M573.5,-396C573.5,-396 543.5,-396 543.5,-396 537.5,-396 531.5,-390 531.5,-384 531.5,-384 531.5,-372 531.5,-372 531.5,-366 537.5,-360 543.5,-360 543.5,-360 573.5,-360 573.5,-360 579.5,-360 585.5,-366 585.5,-372 585.5,-372 585.5,-384 585.5,-384 585.5,-390 579.5,-396 573.5,-396"/>
<text text-anchor="middle" x="558.5" y="-374.3" font-family="Times,serif" font-size="14.00">Name</text>
</g>
<!-- ast.For object at 0x7f21ce7e0f10&#45;&gt;ast.Name object at 0x7f21ce7e2140 -->
<g id="edge10" class="edge">
<title>ast.For object at 0x7f21ce7e0f10&#45;&gt;ast.Name object at 0x7f21ce7e2140</title>
<path fill="none" stroke="black" d="M531.4,-431.7C535.5,-423.73 540.45,-414.1 544.99,-405.26"/>
<polygon fill="black" stroke="black" points="548.24,-406.6 549.7,-396.1 542.02,-403.4 548.24,-406.6"/>
</g>
<!-- ast.Subscript object at 0x7f21ce7e29b0 -->
<g id="node12" class="node">
<title>ast.Subscript object at 0x7f21ce7e29b0</title>
<path fill="#66cdaa" stroke="black" d="M153.5,-180C153.5,-180 109.5,-180 109.5,-180 103.5,-180 97.5,-174 97.5,-168 97.5,-168 97.5,-156 97.5,-156 97.5,-150 103.5,-144 109.5,-144 109.5,-144 153.5,-144 153.5,-144 159.5,-144 165.5,-150 165.5,-156 165.5,-156 165.5,-168 165.5,-168 165.5,-174 159.5,-180 153.5,-180"/>
<text text-anchor="middle" x="131.5" y="-158.3" font-family="Times,serif" font-size="14.00">Subscript</text>
</g>
<!-- ast.For object at 0x7f21ce7e0f10&#45;&gt;ast.Subscript object at 0x7f21ce7e29b0 -->
<g id="edge12" class="edge">
<title>ast.For object at 0x7f21ce7e0f10&#45;&gt;ast.Subscript object at 0x7f21ce7e29b0</title>
<path fill="none" stroke="black" d="M499.21,-431.97C432.41,-383.1 240.04,-242.39 163.48,-186.39"/>
<polygon fill="black" stroke="black" points="165.3,-183.39 155.16,-180.31 161.17,-189.04 165.3,-183.39"/>
</g>
<!-- ast.If object at 0x7f21ce7e0490 -->
<g id="node17" class="node">
<title>ast.If object at 0x7f21ce7e0490</title>
<path fill="#66cdaa" stroke="black" d="M501.5,-396C501.5,-396 471.5,-396 471.5,-396 465.5,-396 459.5,-390 459.5,-384 459.5,-384 459.5,-372 459.5,-372 459.5,-366 465.5,-360 471.5,-360 471.5,-360 501.5,-360 501.5,-360 507.5,-360 513.5,-366 513.5,-372 513.5,-372 513.5,-384 513.5,-384 513.5,-390 507.5,-396 501.5,-396"/>
<text text-anchor="middle" x="486.5" y="-374.3" font-family="Times,serif" font-size="14.00">If</text>
</g>
<!-- ast.For object at 0x7f21ce7e0f10&#45;&gt;ast.If object at 0x7f21ce7e0490 -->
<g id="edge19" class="edge">
<title>ast.For object at 0x7f21ce7e0f10&#45;&gt;ast.If object at 0x7f21ce7e0490</title>
<path fill="none" stroke="black" d="M513.6,-431.7C509.5,-423.73 504.55,-414.1 500.01,-405.26"/>
<polygon fill="black" stroke="black" points="502.98,-403.4 495.3,-396.1 496.76,-406.6 502.98,-403.4"/>
</g>
<!-- ast.Name object at 0x7f21ce7e2140&#45;&gt;ast.Store object at 0x7f220e8f1fc0 -->
<g id="edge11" class="edge">
<title>ast.Name object at 0x7f21ce7e2140&#45;&gt;ast.Store object at 0x7f220e8f1fc0</title>
<path fill="none" stroke="black" d="M566.16,-359.7C569.69,-351.73 573.96,-342.1 577.87,-333.26"/>
<polygon fill="black" stroke="black" points="581.08,-334.67 581.93,-324.1 574.68,-331.83 581.08,-334.67"/>
</g>
<!-- ast.Subscript object at 0x7f21ce7e29b0&#45;&gt;ast.Load object at 0x7f220e8f1f60 -->
<g id="edge18" class="edge">
<title>ast.Subscript object at 0x7f21ce7e29b0&#45;&gt;ast.Load object at 0x7f220e8f1f60</title>
<path fill="none" stroke="black" d="M129.27,-143.96C127.68,-123.84 128.49,-90.74 147.5,-72 187.07,-32.99 355.42,-22.64 431.23,-19.93"/>
<polygon fill="black" stroke="black" points="431.41,-23.43 441.29,-19.6 431.18,-16.43 431.41,-23.43"/>
</g>
<!-- ast.Name object at 0x7f21ce7e20e0 -->
<g id="node13" class="node">
<title>ast.Name object at 0x7f21ce7e20e0</title>
<path fill="#66cdaa" stroke="black" d="M198.5,-108C198.5,-108 168.5,-108 168.5,-108 162.5,-108 156.5,-102 156.5,-96 156.5,-96 156.5,-84 156.5,-84 156.5,-78 162.5,-72 168.5,-72 168.5,-72 198.5,-72 198.5,-72 204.5,-72 210.5,-78 210.5,-84 210.5,-84 210.5,-96 210.5,-96 210.5,-102 204.5,-108 198.5,-108"/>
<text text-anchor="middle" x="183.5" y="-86.3" font-family="Times,serif" font-size="14.00">Name</text>
</g>
<!-- ast.Subscript object at 0x7f21ce7e29b0&#45;&gt;ast.Name object at 0x7f21ce7e20e0 -->
<g id="edge13" class="edge">
<title>ast.Subscript object at 0x7f21ce7e29b0&#45;&gt;ast.Name object at 0x7f21ce7e20e0</title>
<path fill="none" stroke="black" d="M144.35,-143.7C150.53,-135.39 158.04,-125.28 164.82,-116.14"/>
<polygon fill="black" stroke="black" points="167.64,-118.22 170.79,-108.1 162.02,-114.04 167.64,-118.22"/>
</g>
<!-- ast.Slice object at 0x7f21ce7e38b0 -->
<g id="node14" class="node">
<title>ast.Slice object at 0x7f21ce7e38b0</title>
<path fill="#66cdaa" stroke="black" d="M88.5,-108C88.5,-108 58.5,-108 58.5,-108 52.5,-108 46.5,-102 46.5,-96 46.5,-96 46.5,-84 46.5,-84 46.5,-78 52.5,-72 58.5,-72 58.5,-72 88.5,-72 88.5,-72 94.5,-72 100.5,-78 100.5,-84 100.5,-84 100.5,-96 100.5,-96 100.5,-102 94.5,-108 88.5,-108"/>
<text text-anchor="middle" x="73.5" y="-86.3" font-family="Times,serif" font-size="14.00">Slice</text>
</g>
<!-- ast.Subscript object at 0x7f21ce7e29b0&#45;&gt;ast.Slice object at 0x7f21ce7e38b0 -->
<g id="edge15" class="edge">
<title>ast.Subscript object at 0x7f21ce7e29b0&#45;&gt;ast.Slice object at 0x7f21ce7e38b0</title>
<path fill="none" stroke="black" d="M117.16,-143.7C110.21,-135.3 101.73,-125.07 94.1,-115.86"/>
<polygon fill="black" stroke="black" points="96.75,-113.57 87.67,-108.1 91.36,-118.04 96.75,-113.57"/>
</g>
<!-- ast.Name object at 0x7f21ce7e20e0&#45;&gt;ast.Load object at 0x7f220e8f1f60 -->
<g id="edge14" class="edge">
<title>ast.Name object at 0x7f21ce7e20e0&#45;&gt;ast.Load object at 0x7f220e8f1f60</title>
<path fill="none" stroke="black" d="M210.75,-75.33C213.66,-74.11 216.62,-72.97 219.5,-72 292.65,-47.31 381.91,-31.64 431.23,-24.17"/>
<polygon fill="black" stroke="black" points="432.04,-27.59 441.42,-22.66 431.02,-20.67 432.04,-27.59"/>
</g>
<!-- ast.Constant object at 0x7f21ce7e1420 -->
<g id="node15" class="node">
<title>ast.Constant object at 0x7f21ce7e1420</title>
<path fill="#66cdaa" stroke="black" d="M53,-36C53,-36 12,-36 12,-36 6,-36 0,-30 0,-24 0,-24 0,-12 0,-12 0,-6 6,0 12,0 12,0 53,0 53,0 59,0 65,-6 65,-12 65,-12 65,-24 65,-24 65,-30 59,-36 53,-36"/>
<text text-anchor="middle" x="32.5" y="-14.3" font-family="Times,serif" font-size="14.00">Constant</text>
</g>
<!-- ast.Slice object at 0x7f21ce7e38b0&#45;&gt;ast.Constant object at 0x7f21ce7e1420 -->
<g id="edge16" class="edge">
<title>ast.Slice object at 0x7f21ce7e38b0&#45;&gt;ast.Constant object at 0x7f21ce7e1420</title>
<path fill="none" stroke="black" d="M63.37,-71.7C58.65,-63.64 52.94,-53.89 47.72,-44.98"/>
<polygon fill="black" stroke="black" points="50.59,-42.96 42.52,-36.1 44.55,-46.5 50.59,-42.96"/>
</g>
<!-- ast.Constant object at 0x7f21ce7e1120 -->
<g id="node16" class="node">
<title>ast.Constant object at 0x7f21ce7e1120</title>
<path fill="#66cdaa" stroke="black" d="M136,-36C136,-36 95,-36 95,-36 89,-36 83,-30 83,-24 83,-24 83,-12 83,-12 83,-6 89,0 95,0 95,0 136,0 136,0 142,0 148,-6 148,-12 148,-12 148,-24 148,-24 148,-30 142,-36 136,-36"/>
<text text-anchor="middle" x="115.5" y="-14.3" font-family="Times,serif" font-size="14.00">Constant</text>
</g>
<!-- ast.Slice object at 0x7f21ce7e38b0&#45;&gt;ast.Constant object at 0x7f21ce7e1120 -->
<g id="edge17" class="edge">
<title>ast.Slice object at 0x7f21ce7e38b0&#45;&gt;ast.Constant object at 0x7f21ce7e1120</title>
<path fill="none" stroke="black" d="M83.88,-71.7C88.76,-63.56 94.69,-53.69 100.08,-44.7"/>
<polygon fill="black" stroke="black" points="103.09,-46.48 105.24,-36.1 97.09,-42.88 103.09,-46.48"/>
</g>
<!-- ast.Compare object at 0x7f21ce7e0be0 -->
<g id="node18" class="node">
<title>ast.Compare object at 0x7f21ce7e0be0</title>
<path fill="#66cdaa" stroke="black" d="M469,-252C469,-252 426,-252 426,-252 420,-252 414,-246 414,-240 414,-240 414,-228 414,-228 414,-222 420,-216 426,-216 426,-216 469,-216 469,-216 475,-216 481,-222 481,-228 481,-228 481,-240 481,-240 481,-246 475,-252 469,-252"/>
<text text-anchor="middle" x="447.5" y="-230.3" font-family="Times,serif" font-size="14.00">Compare</text>
</g>
<!-- ast.If object at 0x7f21ce7e0490&#45;&gt;ast.Compare object at 0x7f21ce7e0be0 -->
<g id="edge20" class="edge">
<title>ast.If object at 0x7f21ce7e0490&#45;&gt;ast.Compare object at 0x7f21ce7e0be0</title>
<path fill="none" stroke="black" d="M481.8,-359.87C475.12,-335.56 462.83,-290.82 454.92,-262.01"/>
<polygon fill="black" stroke="black" points="458.24,-260.91 452.22,-252.19 451.49,-262.76 458.24,-260.91"/>
</g>
<!-- ast.Expr object at 0x7f21ce7e0a00 -->
<g id="node28" class="node">
<title>ast.Expr object at 0x7f21ce7e0a00</title>
<path fill="#66cdaa" stroke="black" d="M532.5,-324C532.5,-324 502.5,-324 502.5,-324 496.5,-324 490.5,-318 490.5,-312 490.5,-312 490.5,-300 490.5,-300 490.5,-294 496.5,-288 502.5,-288 502.5,-288 532.5,-288 532.5,-288 538.5,-288 544.5,-294 544.5,-300 544.5,-300 544.5,-312 544.5,-312 544.5,-318 538.5,-324 532.5,-324"/>
<text text-anchor="middle" x="517.5" y="-302.3" font-family="Times,serif" font-size="14.00">Expr</text>
</g>
<!-- ast.If object at 0x7f21ce7e0490&#45;&gt;ast.Expr object at 0x7f21ce7e0a00 -->
<g id="edge33" class="edge">
<title>ast.If object at 0x7f21ce7e0490&#45;&gt;ast.Expr object at 0x7f21ce7e0a00</title>
<path fill="none" stroke="black" d="M494.16,-359.7C497.69,-351.73 501.96,-342.1 505.87,-333.26"/>
<polygon fill="black" stroke="black" points="509.08,-334.67 509.93,-324.1 502.68,-331.83 509.08,-334.67"/>
</g>
<!-- ast.Constant object at 0x7f21ce7e3fa0 -->
<g id="node19" class="node">
<title>ast.Constant object at 0x7f21ce7e3fa0</title>
<path fill="#66cdaa" stroke="black" d="M318,-180C318,-180 277,-180 277,-180 271,-180 265,-174 265,-168 265,-168 265,-156 265,-156 265,-150 271,-144 277,-144 277,-144 318,-144 318,-144 324,-144 330,-150 330,-156 330,-156 330,-168 330,-168 330,-174 324,-180 318,-180"/>
<text text-anchor="middle" x="297.5" y="-158.3" font-family="Times,serif" font-size="14.00">Constant</text>
</g>
<!-- ast.Compare object at 0x7f21ce7e0be0&#45;&gt;ast.Constant object at 0x7f21ce7e3fa0 -->
<g id="edge21" class="edge">
<title>ast.Compare object at 0x7f21ce7e0be0&#45;&gt;ast.Constant object at 0x7f21ce7e3fa0</title>
<path fill="none" stroke="black" d="M413.84,-217.29C391.82,-207.02 362.89,-193.52 339.39,-182.55"/>
<polygon fill="black" stroke="black" points="340.56,-179.23 330.02,-178.18 337.6,-185.58 340.56,-179.23"/>
</g>
<!-- ast.Lt object at 0x7f220e8f2950 -->
<g id="node20" class="node">
<title>ast.Lt object at 0x7f220e8f2950</title>
<path fill="#66cdaa" stroke="black" d="M390.5,-180C390.5,-180 360.5,-180 360.5,-180 354.5,-180 348.5,-174 348.5,-168 348.5,-168 348.5,-156 348.5,-156 348.5,-150 354.5,-144 360.5,-144 360.5,-144 390.5,-144 390.5,-144 396.5,-144 402.5,-150 402.5,-156 402.5,-156 402.5,-168 402.5,-168 402.5,-174 396.5,-180 390.5,-180"/>
<text text-anchor="middle" x="375.5" y="-158.3" font-family="Times,serif" font-size="14.00">Lt</text>
</g>
<!-- ast.Compare object at 0x7f21ce7e0be0&#45;&gt;ast.Lt object at 0x7f220e8f2950 -->
<g id="edge22" class="edge">
<title>ast.Compare object at 0x7f21ce7e0be0&#45;&gt;ast.Lt object at 0x7f220e8f2950</title>
<path fill="none" stroke="black" d="M429.7,-215.7C420.9,-207.14 410.12,-196.66 400.5,-187.3"/>
<polygon fill="black" stroke="black" points="402.7,-184.57 393.09,-180.1 397.82,-189.58 402.7,-184.57"/>
</g>
<!-- ast.LtE object at 0x7f220e8f29b0 -->
<g id="node21" class="node">
<title>ast.LtE object at 0x7f220e8f29b0</title>
<path fill="#66cdaa" stroke="black" d="M462.5,-180C462.5,-180 432.5,-180 432.5,-180 426.5,-180 420.5,-174 420.5,-168 420.5,-168 420.5,-156 420.5,-156 420.5,-150 426.5,-144 432.5,-144 432.5,-144 462.5,-144 462.5,-144 468.5,-144 474.5,-150 474.5,-156 474.5,-156 474.5,-168 474.5,-168 474.5,-174 468.5,-180 462.5,-180"/>
<text text-anchor="middle" x="447.5" y="-158.3" font-family="Times,serif" font-size="14.00">LtE</text>
</g>
<!-- ast.Compare object at 0x7f21ce7e0be0&#45;&gt;ast.LtE object at 0x7f220e8f29b0 -->
<g id="edge23" class="edge">
<title>ast.Compare object at 0x7f21ce7e0be0&#45;&gt;ast.LtE object at 0x7f220e8f29b0</title>
<path fill="none" stroke="black" d="M447.5,-215.7C447.5,-207.98 447.5,-198.71 447.5,-190.11"/>
<polygon fill="black" stroke="black" points="451,-190.1 447.5,-180.1 444,-190.1 451,-190.1"/>
</g>
<!-- ast.Call object at 0x7f21ce7e0520 -->
<g id="node22" class="node">
<title>ast.Call object at 0x7f21ce7e0520</title>
<path fill="#66cdaa" stroke="black" d="M234.5,-180C234.5,-180 204.5,-180 204.5,-180 198.5,-180 192.5,-174 192.5,-168 192.5,-168 192.5,-156 192.5,-156 192.5,-150 198.5,-144 204.5,-144 204.5,-144 234.5,-144 234.5,-144 240.5,-144 246.5,-150 246.5,-156 246.5,-156 246.5,-168 246.5,-168 246.5,-174 240.5,-180 234.5,-180"/>
<text text-anchor="middle" x="219.5" y="-158.3" font-family="Times,serif" font-size="14.00">Call</text>
</g>
<!-- ast.Compare object at 0x7f21ce7e0be0&#45;&gt;ast.Call object at 0x7f21ce7e0520 -->
<g id="edge24" class="edge">
<title>ast.Compare object at 0x7f21ce7e0be0&#45;&gt;ast.Call object at 0x7f21ce7e0520</title>
<path fill="none" stroke="black" d="M413.8,-220.61C409.03,-218.99 404.16,-217.4 399.5,-216 339.3,-197.86 319.48,-201.75 256.41,-179.97"/>
<polygon fill="black" stroke="black" points="257.38,-176.6 246.78,-176.56 255.04,-183.2 257.38,-176.6"/>
</g>
<!-- ast.Call object at 0x7f21ce7e0610 -->
<g id="node25" class="node">
<title>ast.Call object at 0x7f21ce7e0610</title>
<path fill="#66cdaa" stroke="black" d="M534.5,-180C534.5,-180 504.5,-180 504.5,-180 498.5,-180 492.5,-174 492.5,-168 492.5,-168 492.5,-156 492.5,-156 492.5,-150 498.5,-144 504.5,-144 504.5,-144 534.5,-144 534.5,-144 540.5,-144 546.5,-150 546.5,-156 546.5,-156 546.5,-168 546.5,-168 546.5,-174 540.5,-180 534.5,-180"/>
<text text-anchor="middle" x="519.5" y="-158.3" font-family="Times,serif" font-size="14.00">Call</text>
</g>
<!-- ast.Compare object at 0x7f21ce7e0be0&#45;&gt;ast.Call object at 0x7f21ce7e0610 -->
<g id="edge29" class="edge">
<title>ast.Compare object at 0x7f21ce7e0be0&#45;&gt;ast.Call object at 0x7f21ce7e0610</title>
<path fill="none" stroke="black" d="M465.3,-215.7C474.1,-207.14 484.88,-196.66 494.5,-187.3"/>
<polygon fill="black" stroke="black" points="497.18,-189.58 501.91,-180.1 492.3,-184.57 497.18,-189.58"/>
</g>
<!-- ast.Name object at 0x7f21ce7e01f0 -->
<g id="node23" class="node">
<title>ast.Name object at 0x7f21ce7e01f0</title>
<path fill="#66cdaa" stroke="black" d="M270.5,-108C270.5,-108 240.5,-108 240.5,-108 234.5,-108 228.5,-102 228.5,-96 228.5,-96 228.5,-84 228.5,-84 228.5,-78 234.5,-72 240.5,-72 240.5,-72 270.5,-72 270.5,-72 276.5,-72 282.5,-78 282.5,-84 282.5,-84 282.5,-96 282.5,-96 282.5,-102 276.5,-108 270.5,-108"/>
<text text-anchor="middle" x="255.5" y="-86.3" font-family="Times,serif" font-size="14.00">Name</text>
</g>
<!-- ast.Call object at 0x7f21ce7e0520&#45;&gt;ast.Name object at 0x7f21ce7e01f0 -->
<g id="edge25" class="edge">
<title>ast.Call object at 0x7f21ce7e0520&#45;&gt;ast.Name object at 0x7f21ce7e01f0</title>
<path fill="none" stroke="black" d="M228.4,-143.7C232.5,-135.73 237.45,-126.1 241.99,-117.26"/>
<polygon fill="black" stroke="black" points="245.24,-118.6 246.7,-108.1 239.02,-115.4 245.24,-118.6"/>
</g>
<!-- ast.Name object at 0x7f21ce7e25c0 -->
<g id="node24" class="node">
<title>ast.Name object at 0x7f21ce7e25c0</title>
<path fill="#66cdaa" stroke="black" d="M342.5,-108C342.5,-108 312.5,-108 312.5,-108 306.5,-108 300.5,-102 300.5,-96 300.5,-96 300.5,-84 300.5,-84 300.5,-78 306.5,-72 312.5,-72 312.5,-72 342.5,-72 342.5,-72 348.5,-72 354.5,-78 354.5,-84 354.5,-84 354.5,-96 354.5,-96 354.5,-102 348.5,-108 342.5,-108"/>
<text text-anchor="middle" x="327.5" y="-86.3" font-family="Times,serif" font-size="14.00">Name</text>
</g>
<!-- ast.Call object at 0x7f21ce7e0520&#45;&gt;ast.Name object at 0x7f21ce7e25c0 -->
<g id="edge27" class="edge">
<title>ast.Call object at 0x7f21ce7e0520&#45;&gt;ast.Name object at 0x7f21ce7e25c0</title>
<path fill="none" stroke="black" d="M245.92,-143.88C259.91,-134.81 277.28,-123.55 292.39,-113.76"/>
<polygon fill="black" stroke="black" points="294.49,-116.57 300.98,-108.19 290.68,-110.69 294.49,-116.57"/>
</g>
<!-- ast.Name object at 0x7f21ce7e01f0&#45;&gt;ast.Load object at 0x7f220e8f1f60 -->
<g id="edge26" class="edge">
<title>ast.Name object at 0x7f21ce7e01f0&#45;&gt;ast.Load object at 0x7f220e8f1f60</title>
<path fill="none" stroke="black" d="M282.83,-75.57C285.73,-74.31 288.66,-73.09 291.5,-72 338.8,-53.87 395.09,-37.94 431.29,-28.39"/>
<polygon fill="black" stroke="black" points="432.6,-31.67 441.39,-25.76 430.83,-24.9 432.6,-31.67"/>
</g>
<!-- ast.Name object at 0x7f21ce7e25c0&#45;&gt;ast.Load object at 0x7f220e8f1f60 -->
<g id="edge28" class="edge">
<title>ast.Name object at 0x7f21ce7e25c0&#45;&gt;ast.Load object at 0x7f220e8f1f60</title>
<path fill="none" stroke="black" d="M354.69,-75.5C376.73,-64.56 407.99,-49.04 432.18,-37.03"/>
<polygon fill="black" stroke="black" points="434,-40.04 441.4,-32.46 430.88,-33.77 434,-40.04"/>
</g>
<!-- ast.Name object at 0x7f21ce7e1e40 -->
<g id="node26" class="node">
<title>ast.Name object at 0x7f21ce7e1e40</title>
<path fill="#66cdaa" stroke="black" d="M414.5,-108C414.5,-108 384.5,-108 384.5,-108 378.5,-108 372.5,-102 372.5,-96 372.5,-96 372.5,-84 372.5,-84 372.5,-78 378.5,-72 384.5,-72 384.5,-72 414.5,-72 414.5,-72 420.5,-72 426.5,-78 426.5,-84 426.5,-84 426.5,-96 426.5,-96 426.5,-102 420.5,-108 414.5,-108"/>
<text text-anchor="middle" x="399.5" y="-86.3" font-family="Times,serif" font-size="14.00">Name</text>
</g>
<!-- ast.Call object at 0x7f21ce7e0610&#45;&gt;ast.Name object at 0x7f21ce7e1e40 -->
<g id="edge30" class="edge">
<title>ast.Call object at 0x7f21ce7e0610&#45;&gt;ast.Name object at 0x7f21ce7e1e40</title>
<path fill="none" stroke="black" d="M492.27,-145.12C475.39,-135.27 453.53,-122.52 435.26,-111.86"/>
<polygon fill="black" stroke="black" points="437.02,-108.84 426.62,-106.82 433.5,-114.88 437.02,-108.84"/>
</g>
<!-- ast.Constant object at 0x7f21ce7e1180 -->
<g id="node27" class="node">
<title>ast.Constant object at 0x7f21ce7e1180</title>
<path fill="#66cdaa" stroke="black" d="M498,-108C498,-108 457,-108 457,-108 451,-108 445,-102 445,-96 445,-96 445,-84 445,-84 445,-78 451,-72 457,-72 457,-72 498,-72 498,-72 504,-72 510,-78 510,-84 510,-84 510,-96 510,-96 510,-102 504,-108 498,-108"/>
<text text-anchor="middle" x="477.5" y="-86.3" font-family="Times,serif" font-size="14.00">Constant</text>
</g>
<!-- ast.Call object at 0x7f21ce7e0610&#45;&gt;ast.Constant object at 0x7f21ce7e1180 -->
<g id="edge32" class="edge">
<title>ast.Call object at 0x7f21ce7e0610&#45;&gt;ast.Constant object at 0x7f21ce7e1180</title>
<path fill="none" stroke="black" d="M509.12,-143.7C504.24,-135.56 498.31,-125.69 492.92,-116.7"/>
<polygon fill="black" stroke="black" points="495.91,-114.88 487.76,-108.1 489.91,-118.48 495.91,-114.88"/>
</g>
<!-- ast.Name object at 0x7f21ce7e1e40&#45;&gt;ast.Load object at 0x7f220e8f1f60 -->
<g id="edge31" class="edge">
<title>ast.Name object at 0x7f21ce7e1e40&#45;&gt;ast.Load object at 0x7f220e8f1f60</title>
<path fill="none" stroke="black" d="M416.56,-71.7C425,-63.14 435.32,-52.66 444.54,-43.3"/>
<polygon fill="black" stroke="black" points="447.11,-45.68 451.64,-36.1 442.13,-40.77 447.11,-45.68"/>
</g>
<!-- ast.Call object at 0x7f21ce7e0ca0 -->
<g id="node29" class="node">
<title>ast.Call object at 0x7f21ce7e0ca0</title>
<path fill="#66cdaa" stroke="black" d="M612.5,-252C612.5,-252 582.5,-252 582.5,-252 576.5,-252 570.5,-246 570.5,-240 570.5,-240 570.5,-228 570.5,-228 570.5,-222 576.5,-216 582.5,-216 582.5,-216 612.5,-216 612.5,-216 618.5,-216 624.5,-222 624.5,-228 624.5,-228 624.5,-240 624.5,-240 624.5,-246 618.5,-252 612.5,-252"/>
<text text-anchor="middle" x="597.5" y="-230.3" font-family="Times,serif" font-size="14.00">Call</text>
</g>
<!-- ast.Expr object at 0x7f21ce7e0a00&#45;&gt;ast.Call object at 0x7f21ce7e0ca0 -->
<g id="edge34" class="edge">
<title>ast.Expr object at 0x7f21ce7e0a00&#45;&gt;ast.Call object at 0x7f21ce7e0ca0</title>
<path fill="none" stroke="black" d="M537.28,-287.7C547.25,-278.97 559.51,-268.24 570.36,-258.75"/>
<polygon fill="black" stroke="black" points="572.73,-261.32 577.95,-252.1 568.12,-256.06 572.73,-261.32"/>
</g>
<!-- ast.Attribute object at 0x7f21ce7e3070 -->
<g id="node30" class="node">
<title>ast.Attribute object at 0x7f21ce7e3070</title>
<path fill="#66cdaa" stroke="black" d="M618,-180C618,-180 577,-180 577,-180 571,-180 565,-174 565,-168 565,-168 565,-156 565,-156 565,-150 571,-144 577,-144 577,-144 618,-144 618,-144 624,-144 630,-150 630,-156 630,-156 630,-168 630,-168 630,-174 624,-180 618,-180"/>
<text text-anchor="middle" x="597.5" y="-158.3" font-family="Times,serif" font-size="14.00">Attribute</text>
</g>
<!-- ast.Call object at 0x7f21ce7e0ca0&#45;&gt;ast.Attribute object at 0x7f21ce7e3070 -->
<g id="edge35" class="edge">
<title>ast.Call object at 0x7f21ce7e0ca0&#45;&gt;ast.Attribute object at 0x7f21ce7e3070</title>
<path fill="none" stroke="black" d="M597.5,-215.7C597.5,-207.98 597.5,-198.71 597.5,-190.11"/>
<polygon fill="black" stroke="black" points="601,-190.1 597.5,-180.1 594,-190.1 601,-190.1"/>
</g>
<!-- ast.Name object at 0x7f21ce7e3310 -->
<g id="node32" class="node">
<title>ast.Name object at 0x7f21ce7e3310</title>
<path fill="#66cdaa" stroke="black" d="M680.5,-108C680.5,-108 650.5,-108 650.5,-108 644.5,-108 638.5,-102 638.5,-96 638.5,-96 638.5,-84 638.5,-84 638.5,-78 644.5,-72 650.5,-72 650.5,-72 680.5,-72 680.5,-72 686.5,-72 692.5,-78 692.5,-84 692.5,-84 692.5,-96 692.5,-96 692.5,-102 686.5,-108 680.5,-108"/>
<text text-anchor="middle" x="665.5" y="-86.3" font-family="Times,serif" font-size="14.00">Name</text>
</g>
<!-- ast.Call object at 0x7f21ce7e0ca0&#45;&gt;ast.Name object at 0x7f21ce7e3310 -->
<g id="edge39" class="edge">
<title>ast.Call object at 0x7f21ce7e0ca0&#45;&gt;ast.Name object at 0x7f21ce7e3310</title>
<path fill="none" stroke="black" d="M614.15,-215.57C622.75,-205.77 632.81,-192.93 639.5,-180 649.64,-160.4 656.37,-136.27 660.44,-118.08"/>
<polygon fill="black" stroke="black" points="663.9,-118.64 662.54,-108.14 657.05,-117.2 663.9,-118.64"/>
</g>
<!-- ast.Attribute object at 0x7f21ce7e3070&#45;&gt;ast.Load object at 0x7f220e8f1f60 -->
<g id="edge38" class="edge">
<title>ast.Attribute object at 0x7f21ce7e3070&#45;&gt;ast.Load object at 0x7f220e8f1f60</title>
<path fill="none" stroke="black" d="M582.78,-143.73C567.27,-125.64 542.01,-96.51 519.5,-72 510.95,-62.69 501.38,-52.65 492.87,-43.85"/>
<polygon fill="black" stroke="black" points="495.19,-41.21 485.71,-36.47 490.16,-46.08 495.19,-41.21"/>
</g>
<!-- ast.Name object at 0x7f21ce7e3cd0 -->
<g id="node31" class="node">
<title>ast.Name object at 0x7f21ce7e3cd0</title>
<path fill="#66cdaa" stroke="black" d="M608.5,-108C608.5,-108 578.5,-108 578.5,-108 572.5,-108 566.5,-102 566.5,-96 566.5,-96 566.5,-84 566.5,-84 566.5,-78 572.5,-72 578.5,-72 578.5,-72 608.5,-72 608.5,-72 614.5,-72 620.5,-78 620.5,-84 620.5,-84 620.5,-96 620.5,-96 620.5,-102 614.5,-108 608.5,-108"/>
<text text-anchor="middle" x="593.5" y="-86.3" font-family="Times,serif" font-size="14.00">Name</text>
</g>
<!-- ast.Attribute object at 0x7f21ce7e3070&#45;&gt;ast.Name object at 0x7f21ce7e3cd0 -->
<g id="edge36" class="edge">
<title>ast.Attribute object at 0x7f21ce7e3070&#45;&gt;ast.Name object at 0x7f21ce7e3cd0</title>
<path fill="none" stroke="black" d="M596.51,-143.7C596.07,-135.98 595.54,-126.71 595.05,-118.11"/>
<polygon fill="black" stroke="black" points="598.54,-117.89 594.48,-108.1 591.55,-118.29 598.54,-117.89"/>
</g>
<!-- ast.Name object at 0x7f21ce7e3cd0&#45;&gt;ast.Load object at 0x7f220e8f1f60 -->
<g id="edge37" class="edge">
<title>ast.Name object at 0x7f21ce7e3cd0&#45;&gt;ast.Load object at 0x7f220e8f1f60</title>
<path fill="none" stroke="black" d="M566.38,-73.81C548.19,-63.63 524.06,-50.11 504.3,-39.05"/>
<polygon fill="black" stroke="black" points="506.01,-35.99 495.57,-34.16 502.59,-42.1 506.01,-35.99"/>
</g>
<!-- ast.Name object at 0x7f21ce7e3310&#45;&gt;ast.Load object at 0x7f220e8f1f60 -->
<g id="edge40" class="edge">
<title>ast.Name object at 0x7f21ce7e3310&#45;&gt;ast.Load object at 0x7f220e8f1f60</title>
<path fill="none" stroke="black" d="M638.14,-75.65C635.24,-74.37 632.32,-73.13 629.5,-72 587.64,-55.3 538.24,-39.61 505.31,-29.7"/>
<polygon fill="black" stroke="black" points="506.22,-26.32 495.64,-26.82 504.22,-33.03 506.22,-26.32"/>
</g>
<!-- ast.Name object at 0x7f21ce7e3040 -->
<g id="node34" class="node">
<title>ast.Name object at 0x7f21ce7e3040</title>
<path fill="#66cdaa" stroke="black" d="M790.5,-252C790.5,-252 760.5,-252 760.5,-252 754.5,-252 748.5,-246 748.5,-240 748.5,-240 748.5,-228 748.5,-228 748.5,-222 754.5,-216 760.5,-216 760.5,-216 790.5,-216 790.5,-216 796.5,-216 802.5,-222 802.5,-228 802.5,-228 802.5,-240 802.5,-240 802.5,-246 796.5,-252 790.5,-252"/>
<text text-anchor="middle" x="775.5" y="-230.3" font-family="Times,serif" font-size="14.00">Name</text>
</g>
<!-- ast.Return object at 0x7f21ce7e0640&#45;&gt;ast.Name object at 0x7f21ce7e3040 -->
<g id="edge42" class="edge">
<title>ast.Return object at 0x7f21ce7e0640&#45;&gt;ast.Name object at 0x7f21ce7e3040</title>
<path fill="none" stroke="black" d="M725.83,-431.85C735.19,-394.75 757.38,-306.81 768.66,-262.1"/>
<polygon fill="black" stroke="black" points="772.1,-262.78 771.15,-252.23 765.31,-261.07 772.1,-262.78"/>
</g>
<!-- ast.Name object at 0x7f21ce7e3040&#45;&gt;ast.Load object at 0x7f220e8f1f60 -->
<g id="edge43" class="edge">
<title>ast.Name object at 0x7f21ce7e3040&#45;&gt;ast.Load object at 0x7f220e8f1f60</title>
<path fill="none" stroke="black" d="M776.6,-215.77C777.7,-182.74 774.99,-110.41 734.5,-72 702.06,-41.22 571.34,-26.94 506.03,-21.62"/>
<polygon fill="black" stroke="black" points="506,-18.11 495.76,-20.81 505.45,-25.08 506,-18.11"/>
</g>
</g>
</svg>
