<?xml version="1.0" encoding="UTF-8" standalone="no"?>
<!DOCTYPE svg PUBLIC "-//W3C//DTD SVG 1.1//EN"
 "http://www.w3.org/Graphics/SVG/1.1/DTD/svg11.dtd">
<!-- Generated by graphviz version 2.43.0 (0)
 -->
<!-- Title: %3 Pages: 1 -->
<svg width="1058pt" height="548pt"
 viewBox="0.00 0.00 1057.50 548.00" xmlns="http://www.w3.org/2000/svg" xmlns:xlink="http://www.w3.org/1999/xlink">
<g id="graph0" class="graph" transform="scale(1 1) rotate(0) translate(4 544)">
<title>%3</title>
<polygon fill="white" stroke="transparent" points="-4,4 -4,-544 1053.5,-544 1053.5,4 -4,4"/>
<!-- ast.Module object at 0x7fb070aeeec0 -->
<g id="node1" class="node">
<title>ast.Module object at 0x7fb070aeeec0</title>
<path fill="#66cdaa" stroke="black" d="M360,-540C360,-540 325,-540 325,-540 319,-540 313,-534 313,-528 313,-528 313,-516 313,-516 313,-510 319,-504 325,-504 325,-504 360,-504 360,-504 366,-504 372,-510 372,-516 372,-516 372,-528 372,-528 372,-534 366,-540 360,-540"/>
<text text-anchor="middle" x="342.5" y="-518.3" font-family="Times,serif" font-size="14.00">Module</text>
</g>
<!-- ast.FunctionDef object at 0x7fb070aeca00 -->
<g id="node2" class="node">
<title>ast.FunctionDef object at 0x7fb070aeca00</title>
<path fill="#66cdaa" stroke="black" d="M373,-468C373,-468 312,-468 312,-468 306,-468 300,-462 300,-456 300,-456 300,-444 300,-444 300,-438 306,-432 312,-432 312,-432 373,-432 373,-432 379,-432 385,-438 385,-444 385,-444 385,-456 385,-456 385,-462 379,-468 373,-468"/>
<text text-anchor="middle" x="342.5" y="-446.3" font-family="Times,serif" font-size="14.00">FunctionDef</text>
</g>
<!-- ast.Module object at 0x7fb070aeeec0&#45;&gt;ast.FunctionDef object at 0x7fb070aeca00 -->
<g id="edge1" class="edge">
<title>ast.Module object at 0x7fb070aeeec0&#45;&gt;ast.FunctionDef object at 0x7fb070aeca00</title>
<path fill="none" stroke="black" d="M342.5,-503.7C342.5,-495.98 342.5,-486.71 342.5,-478.11"/>
<polygon fill="black" stroke="black" points="346,-478.1 342.5,-468.1 339,-478.1 346,-478.1"/>
</g>
<!-- ast.arguments object at 0x7fb070aed2a0 -->
<g id="node3" class="node">
<title>ast.arguments object at 0x7fb070aed2a0</title>
<path fill="#66cdaa" stroke="black" d="M224.5,-396C224.5,-396 174.5,-396 174.5,-396 168.5,-396 162.5,-390 162.5,-384 162.5,-384 162.5,-372 162.5,-372 162.5,-366 168.5,-360 174.5,-360 174.5,-360 224.5,-360 224.5,-360 230.5,-360 236.5,-366 236.5,-372 236.5,-372 236.5,-384 236.5,-384 236.5,-390 230.5,-396 224.5,-396"/>
<text text-anchor="middle" x="199.5" y="-374.3" font-family="Times,serif" font-size="14.00">arguments</text>
</g>
<!-- ast.FunctionDef object at 0x7fb070aeca00&#45;&gt;ast.arguments object at 0x7fb070aed2a0 -->
<g id="edge2" class="edge">
<title>ast.FunctionDef object at 0x7fb070aeca00&#45;&gt;ast.arguments object at 0x7fb070aed2a0</title>
<path fill="none" stroke="black" d="M307.52,-431.88C288.3,-422.47 264.27,-410.71 243.76,-400.67"/>
<polygon fill="black" stroke="black" points="245.14,-397.44 234.62,-396.19 242.06,-403.73 245.14,-397.44"/>
</g>
<!-- ast.Assign object at 0x7fb070aec1c0 -->
<g id="node5" class="node">
<title>ast.Assign object at 0x7fb070aec1c0</title>
<path fill="#66cdaa" stroke="black" d="M210.5,-252C210.5,-252 180.5,-252 180.5,-252 174.5,-252 168.5,-246 168.5,-240 168.5,-240 168.5,-228 168.5,-228 168.5,-222 174.5,-216 180.5,-216 180.5,-216 210.5,-216 210.5,-216 216.5,-216 222.5,-222 222.5,-228 222.5,-228 222.5,-240 222.5,-240 222.5,-246 216.5,-252 210.5,-252"/>
<text text-anchor="middle" x="195.5" y="-230.3" font-family="Times,serif" font-size="14.00">Assign</text>
</g>
<!-- ast.FunctionDef object at 0x7fb070aeca00&#45;&gt;ast.Assign object at 0x7fb070aec1c0 -->
<g id="edge4" class="edge">
<title>ast.FunctionDef object at 0x7fb070aeca00&#45;&gt;ast.Assign object at 0x7fb070aec1c0</title>
<path fill="none" stroke="black" d="M330.76,-431.86C323.69,-421.5 314.53,-408.02 306.5,-396 274.58,-348.24 268.6,-334.95 235.5,-288 229.12,-278.95 221.9,-269.24 215.37,-260.63"/>
<polygon fill="black" stroke="black" points="217.98,-258.28 209.12,-252.45 212.41,-262.53 217.98,-258.28"/>
</g>
<!-- ast.Assign object at 0x7fb070aef490 -->
<g id="node14" class="node">
<title>ast.Assign object at 0x7fb070aef490</title>
<path fill="#66cdaa" stroke="black" d="M357.5,-396C357.5,-396 327.5,-396 327.5,-396 321.5,-396 315.5,-390 315.5,-384 315.5,-384 315.5,-372 315.5,-372 315.5,-366 321.5,-360 327.5,-360 327.5,-360 357.5,-360 357.5,-360 363.5,-360 369.5,-366 369.5,-372 369.5,-372 369.5,-384 369.5,-384 369.5,-390 363.5,-396 357.5,-396"/>
<text text-anchor="middle" x="342.5" y="-374.3" font-family="Times,serif" font-size="14.00">Assign</text>
</g>
<!-- ast.FunctionDef object at 0x7fb070aeca00&#45;&gt;ast.Assign object at 0x7fb070aef490 -->
<g id="edge14" class="edge">
<title>ast.FunctionDef object at 0x7fb070aeca00&#45;&gt;ast.Assign object at 0x7fb070aef490</title>
<path fill="none" stroke="black" d="M342.5,-431.7C342.5,-423.98 342.5,-414.71 342.5,-406.11"/>
<polygon fill="black" stroke="black" points="346,-406.1 342.5,-396.1 339,-406.1 346,-406.1"/>
</g>
<!-- ast.Assign object at 0x7fb070aee860 -->
<g id="node23" class="node">
<title>ast.Assign object at 0x7fb070aee860</title>
<path fill="#66cdaa" stroke="black" d="M510.5,-324C510.5,-324 480.5,-324 480.5,-324 474.5,-324 468.5,-318 468.5,-312 468.5,-312 468.5,-300 468.5,-300 468.5,-294 474.5,-288 480.5,-288 480.5,-288 510.5,-288 510.5,-288 516.5,-288 522.5,-294 522.5,-300 522.5,-300 522.5,-312 522.5,-312 522.5,-318 516.5,-324 510.5,-324"/>
<text text-anchor="middle" x="495.5" y="-302.3" font-family="Times,serif" font-size="14.00">Assign</text>
</g>
<!-- ast.FunctionDef object at 0x7fb070aeca00&#45;&gt;ast.Assign object at 0x7fb070aee860 -->
<g id="edge28" class="edge">
<title>ast.FunctionDef object at 0x7fb070aeca00&#45;&gt;ast.Assign object at 0x7fb070aee860</title>
<path fill="none" stroke="black" d="M360.96,-431.87C388.07,-406.71 438.77,-359.65 469.6,-331.04"/>
<polygon fill="black" stroke="black" points="472.03,-333.56 476.98,-324.19 467.27,-328.43 472.03,-333.56"/>
</g>
<!-- ast.For object at 0x7fb06dc2e920 -->
<g id="node30" class="node">
<title>ast.For object at 0x7fb06dc2e920</title>
<path fill="#66cdaa" stroke="black" d="M747.5,-396C747.5,-396 717.5,-396 717.5,-396 711.5,-396 705.5,-390 705.5,-384 705.5,-384 705.5,-372 705.5,-372 705.5,-366 711.5,-360 717.5,-360 717.5,-360 747.5,-360 747.5,-360 753.5,-360 759.5,-366 759.5,-372 759.5,-372 759.5,-384 759.5,-384 759.5,-390 753.5,-396 747.5,-396"/>
<text text-anchor="middle" x="732.5" y="-374.3" font-family="Times,serif" font-size="14.00">For</text>
</g>
<!-- ast.FunctionDef object at 0x7fb070aeca00&#45;&gt;ast.For object at 0x7fb06dc2e920 -->
<g id="edge39" class="edge">
<title>ast.FunctionDef object at 0x7fb070aeca00&#45;&gt;ast.For object at 0x7fb06dc2e920</title>
<path fill="none" stroke="black" d="M385.35,-441.31C462.3,-427.5 622.62,-398.72 695.28,-385.68"/>
<polygon fill="black" stroke="black" points="696.12,-389.09 705.34,-383.87 694.88,-382.2 696.12,-389.09"/>
</g>
<!-- ast.arg object at 0x7fb070aed690 -->
<g id="node4" class="node">
<title>ast.arg object at 0x7fb070aed690</title>
<path fill="#66cdaa" stroke="black" d="M214.5,-324C214.5,-324 184.5,-324 184.5,-324 178.5,-324 172.5,-318 172.5,-312 172.5,-312 172.5,-300 172.5,-300 172.5,-294 178.5,-288 184.5,-288 184.5,-288 214.5,-288 214.5,-288 220.5,-288 226.5,-294 226.5,-300 226.5,-300 226.5,-312 226.5,-312 226.5,-318 220.5,-324 214.5,-324"/>
<text text-anchor="middle" x="199.5" y="-302.3" font-family="Times,serif" font-size="14.00">arg</text>
</g>
<!-- ast.arguments object at 0x7fb070aed2a0&#45;&gt;ast.arg object at 0x7fb070aed690 -->
<g id="edge3" class="edge">
<title>ast.arguments object at 0x7fb070aed2a0&#45;&gt;ast.arg object at 0x7fb070aed690</title>
<path fill="none" stroke="black" d="M199.5,-359.7C199.5,-351.98 199.5,-342.71 199.5,-334.11"/>
<polygon fill="black" stroke="black" points="203,-334.1 199.5,-324.1 196,-334.1 203,-334.1"/>
</g>
<!-- ast.Name object at 0x7fb070aedd50 -->
<g id="node6" class="node">
<title>ast.Name object at 0x7fb070aedd50</title>
<path fill="#66cdaa" stroke="black" d="M221.5,-180C221.5,-180 191.5,-180 191.5,-180 185.5,-180 179.5,-174 179.5,-168 179.5,-168 179.5,-156 179.5,-156 179.5,-150 185.5,-144 191.5,-144 191.5,-144 221.5,-144 221.5,-144 227.5,-144 233.5,-150 233.5,-156 233.5,-156 233.5,-168 233.5,-168 233.5,-174 227.5,-180 221.5,-180"/>
<text text-anchor="middle" x="206.5" y="-158.3" font-family="Times,serif" font-size="14.00">Name</text>
</g>
<!-- ast.Assign object at 0x7fb070aec1c0&#45;&gt;ast.Name object at 0x7fb070aedd50 -->
<g id="edge5" class="edge">
<title>ast.Assign object at 0x7fb070aec1c0&#45;&gt;ast.Name object at 0x7fb070aedd50</title>
<path fill="none" stroke="black" d="M198.22,-215.7C199.43,-207.98 200.89,-198.71 202.24,-190.11"/>
<polygon fill="black" stroke="black" points="205.72,-190.53 203.81,-180.1 198.8,-189.44 205.72,-190.53"/>
</g>
<!-- ast.Subscript object at 0x7fb070aed270 -->
<g id="node8" class="node">
<title>ast.Subscript object at 0x7fb070aed270</title>
<path fill="#66cdaa" stroke="black" d="M149.5,-180C149.5,-180 105.5,-180 105.5,-180 99.5,-180 93.5,-174 93.5,-168 93.5,-168 93.5,-156 93.5,-156 93.5,-150 99.5,-144 105.5,-144 105.5,-144 149.5,-144 149.5,-144 155.5,-144 161.5,-150 161.5,-156 161.5,-156 161.5,-168 161.5,-168 161.5,-174 155.5,-180 149.5,-180"/>
<text text-anchor="middle" x="127.5" y="-158.3" font-family="Times,serif" font-size="14.00">Subscript</text>
</g>
<!-- ast.Assign object at 0x7fb070aec1c0&#45;&gt;ast.Subscript object at 0x7fb070aed270 -->
<g id="edge7" class="edge">
<title>ast.Assign object at 0x7fb070aec1c0&#45;&gt;ast.Subscript object at 0x7fb070aed270</title>
<path fill="none" stroke="black" d="M178.69,-215.7C170.37,-207.14 160.19,-196.66 151.11,-187.3"/>
<polygon fill="black" stroke="black" points="153.59,-184.84 144.12,-180.1 148.57,-189.72 153.59,-184.84"/>
</g>
<!-- ast.Store object at 0x7fb086bedfc0 -->
<g id="node7" class="node">
<title>ast.Store object at 0x7fb086bedfc0</title>
<path fill="#66cdaa" stroke="black" d="M270.5,-108C270.5,-108 240.5,-108 240.5,-108 234.5,-108 228.5,-102 228.5,-96 228.5,-96 228.5,-84 228.5,-84 228.5,-78 234.5,-72 240.5,-72 240.5,-72 270.5,-72 270.5,-72 276.5,-72 282.5,-78 282.5,-84 282.5,-84 282.5,-96 282.5,-96 282.5,-102 276.5,-108 270.5,-108"/>
<text text-anchor="middle" x="255.5" y="-86.3" font-family="Times,serif" font-size="14.00">Store</text>
</g>
<!-- ast.Name object at 0x7fb070aedd50&#45;&gt;ast.Store object at 0x7fb086bedfc0 -->
<g id="edge6" class="edge">
<title>ast.Name object at 0x7fb070aedd50&#45;&gt;ast.Store object at 0x7fb086bedfc0</title>
<path fill="none" stroke="black" d="M218.61,-143.7C224.37,-135.47 231.36,-125.48 237.71,-116.42"/>
<polygon fill="black" stroke="black" points="240.66,-118.3 243.53,-108.1 234.92,-114.29 240.66,-118.3"/>
</g>
<!-- ast.Name object at 0x7fb070aecbb0 -->
<g id="node9" class="node">
<title>ast.Name object at 0x7fb070aecbb0</title>
<path fill="#66cdaa" stroke="black" d="M160.5,-108C160.5,-108 130.5,-108 130.5,-108 124.5,-108 118.5,-102 118.5,-96 118.5,-96 118.5,-84 118.5,-84 118.5,-78 124.5,-72 130.5,-72 130.5,-72 160.5,-72 160.5,-72 166.5,-72 172.5,-78 172.5,-84 172.5,-84 172.5,-96 172.5,-96 172.5,-102 166.5,-108 160.5,-108"/>
<text text-anchor="middle" x="145.5" y="-86.3" font-family="Times,serif" font-size="14.00">Name</text>
</g>
<!-- ast.Subscript object at 0x7fb070aed270&#45;&gt;ast.Name object at 0x7fb070aecbb0 -->
<g id="edge8" class="edge">
<title>ast.Subscript object at 0x7fb070aed270&#45;&gt;ast.Name object at 0x7fb070aecbb0</title>
<path fill="none" stroke="black" d="M131.95,-143.7C133.95,-135.9 136.37,-126.51 138.6,-117.83"/>
<polygon fill="black" stroke="black" points="142,-118.66 141.1,-108.1 135.22,-116.92 142,-118.66"/>
</g>
<!-- ast.Load object at 0x7fb086bedf60 -->
<g id="node10" class="node">
<title>ast.Load object at 0x7fb086bedf60</title>
<path fill="#66cdaa" stroke="black" d="M596.5,-36C596.5,-36 566.5,-36 566.5,-36 560.5,-36 554.5,-30 554.5,-24 554.5,-24 554.5,-12 554.5,-12 554.5,-6 560.5,0 566.5,0 566.5,0 596.5,0 596.5,0 602.5,0 608.5,-6 608.5,-12 608.5,-12 608.5,-24 608.5,-24 608.5,-30 602.5,-36 596.5,-36"/>
<text text-anchor="middle" x="581.5" y="-14.3" font-family="Times,serif" font-size="14.00">Load</text>
</g>
<!-- ast.Subscript object at 0x7fb070aed270&#45;&gt;ast.Load object at 0x7fb086bedf60 -->
<g id="edge13" class="edge">
<title>ast.Subscript object at 0x7fb070aed270&#45;&gt;ast.Load object at 0x7fb086bedf60</title>
<path fill="none" stroke="black" d="M145.12,-143.69C171.19,-118.12 217.22,-73.12 219.5,-72 276.23,-44.1 463.62,-27.54 544.16,-21.56"/>
<polygon fill="black" stroke="black" points="544.63,-25.03 554.34,-20.82 544.12,-18.05 544.63,-25.03"/>
</g>
<!-- ast.Slice object at 0x7fb070aeff40 -->
<g id="node11" class="node">
<title>ast.Slice object at 0x7fb070aeff40</title>
<path fill="#66cdaa" stroke="black" d="M88.5,-108C88.5,-108 58.5,-108 58.5,-108 52.5,-108 46.5,-102 46.5,-96 46.5,-96 46.5,-84 46.5,-84 46.5,-78 52.5,-72 58.5,-72 58.5,-72 88.5,-72 88.5,-72 94.5,-72 100.5,-78 100.5,-84 100.5,-84 100.5,-96 100.5,-96 100.5,-102 94.5,-108 88.5,-108"/>
<text text-anchor="middle" x="73.5" y="-86.3" font-family="Times,serif" font-size="14.00">Slice</text>
</g>
<!-- ast.Subscript object at 0x7fb070aed270&#45;&gt;ast.Slice object at 0x7fb070aeff40 -->
<g id="edge10" class="edge">
<title>ast.Subscript object at 0x7fb070aed270&#45;&gt;ast.Slice object at 0x7fb070aeff40</title>
<path fill="none" stroke="black" d="M114.15,-143.7C107.74,-135.39 99.94,-125.28 92.89,-116.14"/>
<polygon fill="black" stroke="black" points="95.57,-113.88 86.69,-108.1 90.03,-118.16 95.57,-113.88"/>
</g>
<!-- ast.Name object at 0x7fb070aecbb0&#45;&gt;ast.Load object at 0x7fb086bedf60 -->
<g id="edge9" class="edge">
<title>ast.Name object at 0x7fb070aecbb0&#45;&gt;ast.Load object at 0x7fb086bedf60</title>
<path fill="none" stroke="black" d="M172.5,-76.65C177.1,-74.88 181.89,-73.24 186.5,-72 314.86,-37.41 473.05,-24.89 543.98,-20.79"/>
<polygon fill="black" stroke="black" points="544.41,-24.27 554.2,-20.23 544.02,-17.28 544.41,-24.27"/>
</g>
<!-- ast.Constant object at 0x7fb070aed660 -->
<g id="node12" class="node">
<title>ast.Constant object at 0x7fb070aed660</title>
<path fill="#66cdaa" stroke="black" d="M53,-36C53,-36 12,-36 12,-36 6,-36 0,-30 0,-24 0,-24 0,-12 0,-12 0,-6 6,0 12,0 12,0 53,0 53,0 59,0 65,-6 65,-12 65,-12 65,-24 65,-24 65,-30 59,-36 53,-36"/>
<text text-anchor="middle" x="32.5" y="-14.3" font-family="Times,serif" font-size="14.00">Constant</text>
</g>
<!-- ast.Slice object at 0x7fb070aeff40&#45;&gt;ast.Constant object at 0x7fb070aed660 -->
<g id="edge11" class="edge">
<title>ast.Slice object at 0x7fb070aeff40&#45;&gt;ast.Constant object at 0x7fb070aed660</title>
<path fill="none" stroke="black" d="M63.37,-71.7C58.65,-63.64 52.94,-53.89 47.72,-44.98"/>
<polygon fill="black" stroke="black" points="50.59,-42.96 42.52,-36.1 44.55,-46.5 50.59,-42.96"/>
</g>
<!-- ast.Constant object at 0x7fb070aeef20 -->
<g id="node13" class="node">
<title>ast.Constant object at 0x7fb070aeef20</title>
<path fill="#66cdaa" stroke="black" d="M136,-36C136,-36 95,-36 95,-36 89,-36 83,-30 83,-24 83,-24 83,-12 83,-12 83,-6 89,0 95,0 95,0 136,0 136,0 142,0 148,-6 148,-12 148,-12 148,-24 148,-24 148,-30 142,-36 136,-36"/>
<text text-anchor="middle" x="115.5" y="-14.3" font-family="Times,serif" font-size="14.00">Constant</text>
</g>
<!-- ast.Slice object at 0x7fb070aeff40&#45;&gt;ast.Constant object at 0x7fb070aeef20 -->
<g id="edge12" class="edge">
<title>ast.Slice object at 0x7fb070aeff40&#45;&gt;ast.Constant object at 0x7fb070aeef20</title>
<path fill="none" stroke="black" d="M83.88,-71.7C88.76,-63.56 94.69,-53.69 100.08,-44.7"/>
<polygon fill="black" stroke="black" points="103.09,-46.48 105.24,-36.1 97.09,-42.88 103.09,-46.48"/>
</g>
<!-- ast.Name object at 0x7fb070aedff0 -->
<g id="node15" class="node">
<title>ast.Name object at 0x7fb070aedff0</title>
<path fill="#66cdaa" stroke="black" d="M282.5,-252C282.5,-252 252.5,-252 252.5,-252 246.5,-252 240.5,-246 240.5,-240 240.5,-240 240.5,-228 240.5,-228 240.5,-222 246.5,-216 252.5,-216 252.5,-216 282.5,-216 282.5,-216 288.5,-216 294.5,-222 294.5,-228 294.5,-228 294.5,-240 294.5,-240 294.5,-246 288.5,-252 282.5,-252"/>
<text text-anchor="middle" x="267.5" y="-230.3" font-family="Times,serif" font-size="14.00">Name</text>
</g>
<!-- ast.Assign object at 0x7fb070aef490&#45;&gt;ast.Name object at 0x7fb070aedff0 -->
<g id="edge15" class="edge">
<title>ast.Assign object at 0x7fb070aef490&#45;&gt;ast.Name object at 0x7fb070aedff0</title>
<path fill="none" stroke="black" d="M333.45,-359.87C320.5,-335.35 296.57,-290.03 281.37,-261.26"/>
<polygon fill="black" stroke="black" points="284.34,-259.4 276.58,-252.19 278.15,-262.67 284.34,-259.4"/>
</g>
<!-- ast.ListComp object at 0x7fb070aef1f0 -->
<g id="node16" class="node">
<title>ast.ListComp object at 0x7fb070aef1f0</title>
<path fill="#66cdaa" stroke="black" d="M390,-324C390,-324 343,-324 343,-324 337,-324 331,-318 331,-312 331,-312 331,-300 331,-300 331,-294 337,-288 343,-288 343,-288 390,-288 390,-288 396,-288 402,-294 402,-300 402,-300 402,-312 402,-312 402,-318 396,-324 390,-324"/>
<text text-anchor="middle" x="366.5" y="-302.3" font-family="Times,serif" font-size="14.00">ListComp</text>
</g>
<!-- ast.Assign object at 0x7fb070aef490&#45;&gt;ast.ListComp object at 0x7fb070aef1f0 -->
<g id="edge17" class="edge">
<title>ast.Assign object at 0x7fb070aef490&#45;&gt;ast.ListComp object at 0x7fb070aef1f0</title>
<path fill="none" stroke="black" d="M348.43,-359.7C351.11,-351.9 354.33,-342.51 357.3,-333.83"/>
<polygon fill="black" stroke="black" points="360.7,-334.7 360.64,-324.1 354.08,-332.43 360.7,-334.7"/>
</g>
<!-- ast.Name object at 0x7fb070aedff0&#45;&gt;ast.Store object at 0x7fb086bedfc0 -->
<g id="edge16" class="edge">
<title>ast.Name object at 0x7fb070aedff0&#45;&gt;ast.Store object at 0x7fb086bedfc0</title>
<path fill="none" stroke="black" d="M266.05,-215.87C264.01,-191.67 260.25,-147.21 257.81,-118.39"/>
<polygon fill="black" stroke="black" points="261.28,-117.86 256.95,-108.19 254.31,-118.45 261.28,-117.86"/>
</g>
<!-- ast.Call object at 0x7fb070aee230 -->
<g id="node17" class="node">
<title>ast.Call object at 0x7fb070aee230</title>
<path fill="#66cdaa" stroke="black" d="M403.5,-180C403.5,-180 373.5,-180 373.5,-180 367.5,-180 361.5,-174 361.5,-168 361.5,-168 361.5,-156 361.5,-156 361.5,-150 367.5,-144 373.5,-144 373.5,-144 403.5,-144 403.5,-144 409.5,-144 415.5,-150 415.5,-156 415.5,-156 415.5,-168 415.5,-168 415.5,-174 409.5,-180 403.5,-180"/>
<text text-anchor="middle" x="388.5" y="-158.3" font-family="Times,serif" font-size="14.00">Call</text>
</g>
<!-- ast.ListComp object at 0x7fb070aef1f0&#45;&gt;ast.Call object at 0x7fb070aee230 -->
<g id="edge18" class="edge">
<title>ast.ListComp object at 0x7fb070aef1f0&#45;&gt;ast.Call object at 0x7fb070aee230</title>
<path fill="none" stroke="black" d="M355.32,-287.98C344.89,-269.85 332.22,-240.46 341.5,-216 345.47,-205.54 352.55,-195.83 360.03,-187.65"/>
<polygon fill="black" stroke="black" points="362.73,-189.89 367.23,-180.3 357.73,-184.99 362.73,-189.89"/>
</g>
<!-- ast.comprehension object at 0x7fb070aedf90 -->
<g id="node20" class="node">
<title>ast.comprehension object at 0x7fb070aedf90</title>
<path fill="#66cdaa" stroke="black" d="M438.5,-252C438.5,-252 362.5,-252 362.5,-252 356.5,-252 350.5,-246 350.5,-240 350.5,-240 350.5,-228 350.5,-228 350.5,-222 356.5,-216 362.5,-216 362.5,-216 438.5,-216 438.5,-216 444.5,-216 450.5,-222 450.5,-228 450.5,-228 450.5,-240 450.5,-240 450.5,-246 444.5,-252 438.5,-252"/>
<text text-anchor="middle" x="400.5" y="-230.3" font-family="Times,serif" font-size="14.00">comprehension</text>
</g>
<!-- ast.ListComp object at 0x7fb070aef1f0&#45;&gt;ast.comprehension object at 0x7fb070aedf90 -->
<g id="edge23" class="edge">
<title>ast.ListComp object at 0x7fb070aef1f0&#45;&gt;ast.comprehension object at 0x7fb070aedf90</title>
<path fill="none" stroke="black" d="M374.9,-287.7C378.77,-279.73 383.45,-270.1 387.74,-261.26"/>
<polygon fill="black" stroke="black" points="390.97,-262.63 392.19,-252.1 384.67,-259.57 390.97,-262.63"/>
</g>
<!-- ast.Name object at 0x7fb070aee740 -->
<g id="node18" class="node">
<title>ast.Name object at 0x7fb070aee740</title>
<path fill="#66cdaa" stroke="black" d="M342.5,-108C342.5,-108 312.5,-108 312.5,-108 306.5,-108 300.5,-102 300.5,-96 300.5,-96 300.5,-84 300.5,-84 300.5,-78 306.5,-72 312.5,-72 312.5,-72 342.5,-72 342.5,-72 348.5,-72 354.5,-78 354.5,-84 354.5,-84 354.5,-96 354.5,-96 354.5,-102 348.5,-108 342.5,-108"/>
<text text-anchor="middle" x="327.5" y="-86.3" font-family="Times,serif" font-size="14.00">Name</text>
</g>
<!-- ast.Call object at 0x7fb070aee230&#45;&gt;ast.Name object at 0x7fb070aee740 -->
<g id="edge19" class="edge">
<title>ast.Call object at 0x7fb070aee230&#45;&gt;ast.Name object at 0x7fb070aee740</title>
<path fill="none" stroke="black" d="M373.42,-143.7C366.11,-135.3 357.19,-125.07 349.16,-115.86"/>
<polygon fill="black" stroke="black" points="351.61,-113.34 342.41,-108.1 346.34,-117.94 351.61,-113.34"/>
</g>
<!-- ast.Name object at 0x7fb070aee2c0 -->
<g id="node19" class="node">
<title>ast.Name object at 0x7fb070aee2c0</title>
<path fill="#66cdaa" stroke="black" d="M414.5,-108C414.5,-108 384.5,-108 384.5,-108 378.5,-108 372.5,-102 372.5,-96 372.5,-96 372.5,-84 372.5,-84 372.5,-78 378.5,-72 384.5,-72 384.5,-72 414.5,-72 414.5,-72 420.5,-72 426.5,-78 426.5,-84 426.5,-84 426.5,-96 426.5,-96 426.5,-102 420.5,-108 414.5,-108"/>
<text text-anchor="middle" x="399.5" y="-86.3" font-family="Times,serif" font-size="14.00">Name</text>
</g>
<!-- ast.Call object at 0x7fb070aee230&#45;&gt;ast.Name object at 0x7fb070aee2c0 -->
<g id="edge21" class="edge">
<title>ast.Call object at 0x7fb070aee230&#45;&gt;ast.Name object at 0x7fb070aee2c0</title>
<path fill="none" stroke="black" d="M391.22,-143.7C392.43,-135.98 393.89,-126.71 395.24,-118.11"/>
<polygon fill="black" stroke="black" points="398.72,-118.53 396.81,-108.1 391.8,-117.44 398.72,-118.53"/>
</g>
<!-- ast.Name object at 0x7fb070aee740&#45;&gt;ast.Load object at 0x7fb086bedf60 -->
<g id="edge20" class="edge">
<title>ast.Name object at 0x7fb070aee740&#45;&gt;ast.Load object at 0x7fb086bedf60</title>
<path fill="none" stroke="black" d="M354.78,-75.42C357.69,-74.18 360.63,-73.01 363.5,-72 425.54,-50.06 500.65,-34 544.55,-25.61"/>
<polygon fill="black" stroke="black" points="545.3,-29.03 554.48,-23.74 544.01,-22.15 545.3,-29.03"/>
</g>
<!-- ast.Name object at 0x7fb070aee2c0&#45;&gt;ast.Load object at 0x7fb086bedf60 -->
<g id="edge22" class="edge">
<title>ast.Name object at 0x7fb070aee2c0&#45;&gt;ast.Load object at 0x7fb086bedf60</title>
<path fill="none" stroke="black" d="M426.51,-75.92C429.52,-74.55 432.57,-73.22 435.5,-72 472.18,-56.72 515,-41.47 544.74,-31.28"/>
<polygon fill="black" stroke="black" points="545.96,-34.56 554.3,-28.03 543.71,-27.94 545.96,-34.56"/>
</g>
<!-- ast.Name object at 0x7fb070aed360 -->
<g id="node21" class="node">
<title>ast.Name object at 0x7fb070aed360</title>
<path fill="#66cdaa" stroke="black" d="M331.5,-180C331.5,-180 301.5,-180 301.5,-180 295.5,-180 289.5,-174 289.5,-168 289.5,-168 289.5,-156 289.5,-156 289.5,-150 295.5,-144 301.5,-144 301.5,-144 331.5,-144 331.5,-144 337.5,-144 343.5,-150 343.5,-156 343.5,-156 343.5,-168 343.5,-168 343.5,-174 337.5,-180 331.5,-180"/>
<text text-anchor="middle" x="316.5" y="-158.3" font-family="Times,serif" font-size="14.00">Name</text>
</g>
<!-- ast.comprehension object at 0x7fb070aedf90&#45;&gt;ast.Name object at 0x7fb070aed360 -->
<g id="edge24" class="edge">
<title>ast.comprehension object at 0x7fb070aedf90&#45;&gt;ast.Name object at 0x7fb070aed360</title>
<path fill="none" stroke="black" d="M379.74,-215.7C369.26,-206.97 356.39,-196.24 345,-186.75"/>
<polygon fill="black" stroke="black" points="346.95,-183.82 337.03,-180.1 342.47,-189.19 346.95,-183.82"/>
</g>
<!-- ast.Name object at 0x7fb070aee7d0 -->
<g id="node22" class="node">
<title>ast.Name object at 0x7fb070aee7d0</title>
<path fill="#66cdaa" stroke="black" d="M486.5,-108C486.5,-108 456.5,-108 456.5,-108 450.5,-108 444.5,-102 444.5,-96 444.5,-96 444.5,-84 444.5,-84 444.5,-78 450.5,-72 456.5,-72 456.5,-72 486.5,-72 486.5,-72 492.5,-72 498.5,-78 498.5,-84 498.5,-84 498.5,-96 498.5,-96 498.5,-102 492.5,-108 486.5,-108"/>
<text text-anchor="middle" x="471.5" y="-86.3" font-family="Times,serif" font-size="14.00">Name</text>
</g>
<!-- ast.comprehension object at 0x7fb070aedf90&#45;&gt;ast.Name object at 0x7fb070aee7d0 -->
<g id="edge26" class="edge">
<title>ast.comprehension object at 0x7fb070aedf90&#45;&gt;ast.Name object at 0x7fb070aee7d0</title>
<path fill="none" stroke="black" d="M409.06,-215.87C421.32,-191.35 443.98,-146.03 458.37,-117.26"/>
<polygon fill="black" stroke="black" points="461.56,-118.7 462.91,-108.19 455.3,-115.57 461.56,-118.7"/>
</g>
<!-- ast.Name object at 0x7fb070aed360&#45;&gt;ast.Store object at 0x7fb086bedfc0 -->
<g id="edge25" class="edge">
<title>ast.Name object at 0x7fb070aed360&#45;&gt;ast.Store object at 0x7fb086bedfc0</title>
<path fill="none" stroke="black" d="M301.42,-143.7C294.11,-135.3 285.19,-125.07 277.16,-115.86"/>
<polygon fill="black" stroke="black" points="279.61,-113.34 270.41,-108.1 274.34,-117.94 279.61,-113.34"/>
</g>
<!-- ast.Name object at 0x7fb070aee7d0&#45;&gt;ast.Load object at 0x7fb086bedf60 -->
<g id="edge27" class="edge">
<title>ast.Name object at 0x7fb070aee7d0&#45;&gt;ast.Load object at 0x7fb086bedf60</title>
<path fill="none" stroke="black" d="M498.41,-71.88C512.66,-62.81 530.35,-51.55 545.74,-41.76"/>
<polygon fill="black" stroke="black" points="547.93,-44.51 554.49,-36.19 544.17,-38.61 547.93,-44.51"/>
</g>
<!-- ast.Name object at 0x7fb070aef9d0 -->
<g id="node24" class="node">
<title>ast.Name object at 0x7fb070aef9d0</title>
<path fill="#66cdaa" stroke="black" d="M510.5,-252C510.5,-252 480.5,-252 480.5,-252 474.5,-252 468.5,-246 468.5,-240 468.5,-240 468.5,-228 468.5,-228 468.5,-222 474.5,-216 480.5,-216 480.5,-216 510.5,-216 510.5,-216 516.5,-216 522.5,-222 522.5,-228 522.5,-228 522.5,-240 522.5,-240 522.5,-246 516.5,-252 510.5,-252"/>
<text text-anchor="middle" x="495.5" y="-230.3" font-family="Times,serif" font-size="14.00">Name</text>
</g>
<!-- ast.Assign object at 0x7fb070aee860&#45;&gt;ast.Name object at 0x7fb070aef9d0 -->
<g id="edge29" class="edge">
<title>ast.Assign object at 0x7fb070aee860&#45;&gt;ast.Name object at 0x7fb070aef9d0</title>
<path fill="none" stroke="black" d="M495.5,-287.7C495.5,-279.98 495.5,-270.71 495.5,-262.11"/>
<polygon fill="black" stroke="black" points="499,-262.1 495.5,-252.1 492,-262.1 499,-262.1"/>
</g>
<!-- ast.Subscript object at 0x7fb070aef940 -->
<g id="node25" class="node">
<title>ast.Subscript object at 0x7fb070aef940</title>
<path fill="#66cdaa" stroke="black" d="M596.5,-252C596.5,-252 552.5,-252 552.5,-252 546.5,-252 540.5,-246 540.5,-240 540.5,-240 540.5,-228 540.5,-228 540.5,-222 546.5,-216 552.5,-216 552.5,-216 596.5,-216 596.5,-216 602.5,-216 608.5,-222 608.5,-228 608.5,-228 608.5,-240 608.5,-240 608.5,-246 602.5,-252 596.5,-252"/>
<text text-anchor="middle" x="574.5" y="-230.3" font-family="Times,serif" font-size="14.00">Subscript</text>
</g>
<!-- ast.Assign object at 0x7fb070aee860&#45;&gt;ast.Subscript object at 0x7fb070aef940 -->
<g id="edge31" class="edge">
<title>ast.Assign object at 0x7fb070aee860&#45;&gt;ast.Subscript object at 0x7fb070aef940</title>
<path fill="none" stroke="black" d="M515.03,-287.7C524.88,-278.97 536.99,-268.24 547.7,-258.75"/>
<polygon fill="black" stroke="black" points="550.03,-261.36 555.2,-252.1 545.39,-256.12 550.03,-261.36"/>
</g>
<!-- ast.Name object at 0x7fb070aef9d0&#45;&gt;ast.Store object at 0x7fb086bedfc0 -->
<g id="edge30" class="edge">
<title>ast.Name object at 0x7fb070aef9d0&#45;&gt;ast.Store object at 0x7fb086bedfc0</title>
<path fill="none" stroke="black" d="M486.36,-215.86C474.68,-195.64 452.59,-162.44 424.5,-144 375.91,-112.1 351.51,-127.39 292.57,-107.94"/>
<polygon fill="black" stroke="black" points="293.4,-104.52 282.8,-104.5 291.08,-111.12 293.4,-104.52"/>
</g>
<!-- ast.Subscript object at 0x7fb070aef940&#45;&gt;ast.Load object at 0x7fb086bedf60 -->
<g id="edge38" class="edge">
<title>ast.Subscript object at 0x7fb070aef940&#45;&gt;ast.Load object at 0x7fb086bedf60</title>
<path fill="none" stroke="black" d="M558.89,-215.77C551.13,-206.03 542.55,-193.18 538.5,-180 531.95,-158.69 543.22,-78.32 545.5,-72 548.98,-62.37 554.61,-52.82 560.39,-44.53"/>
<polygon fill="black" stroke="black" points="563.27,-46.52 566.4,-36.4 557.64,-42.36 563.27,-46.52"/>
</g>
<!-- ast.Call object at 0x7fb06dc2c820 -->
<g id="node26" class="node">
<title>ast.Call object at 0x7fb06dc2c820</title>
<path fill="#66cdaa" stroke="black" d="M589.5,-180C589.5,-180 559.5,-180 559.5,-180 553.5,-180 547.5,-174 547.5,-168 547.5,-168 547.5,-156 547.5,-156 547.5,-150 553.5,-144 559.5,-144 559.5,-144 589.5,-144 589.5,-144 595.5,-144 601.5,-150 601.5,-156 601.5,-156 601.5,-168 601.5,-168 601.5,-174 595.5,-180 589.5,-180"/>
<text text-anchor="middle" x="574.5" y="-158.3" font-family="Times,serif" font-size="14.00">Call</text>
</g>
<!-- ast.Subscript object at 0x7fb070aef940&#45;&gt;ast.Call object at 0x7fb06dc2c820 -->
<g id="edge32" class="edge">
<title>ast.Subscript object at 0x7fb070aef940&#45;&gt;ast.Call object at 0x7fb06dc2c820</title>
<path fill="none" stroke="black" d="M574.5,-215.7C574.5,-207.98 574.5,-198.71 574.5,-190.11"/>
<polygon fill="black" stroke="black" points="578,-190.1 574.5,-180.1 571,-190.1 578,-190.1"/>
</g>
<!-- ast.Constant object at 0x7fb06dc2eb60 -->
<g id="node29" class="node">
<title>ast.Constant object at 0x7fb06dc2eb60</title>
<path fill="#66cdaa" stroke="black" d="M673,-180C673,-180 632,-180 632,-180 626,-180 620,-174 620,-168 620,-168 620,-156 620,-156 620,-150 626,-144 632,-144 632,-144 673,-144 673,-144 679,-144 685,-150 685,-156 685,-156 685,-168 685,-168 685,-174 679,-180 673,-180"/>
<text text-anchor="middle" x="652.5" y="-158.3" font-family="Times,serif" font-size="14.00">Constant</text>
</g>
<!-- ast.Subscript object at 0x7fb070aef940&#45;&gt;ast.Constant object at 0x7fb06dc2eb60 -->
<g id="edge37" class="edge">
<title>ast.Subscript object at 0x7fb070aef940&#45;&gt;ast.Constant object at 0x7fb06dc2eb60</title>
<path fill="none" stroke="black" d="M593.78,-215.7C603.42,-207.05 615.23,-196.45 625.73,-187.03"/>
<polygon fill="black" stroke="black" points="628.34,-189.39 633.44,-180.1 623.66,-184.18 628.34,-189.39"/>
</g>
<!-- ast.Name object at 0x7fb06dc2c2e0 -->
<g id="node27" class="node">
<title>ast.Name object at 0x7fb06dc2c2e0</title>
<path fill="#66cdaa" stroke="black" d="M596.5,-108C596.5,-108 566.5,-108 566.5,-108 560.5,-108 554.5,-102 554.5,-96 554.5,-96 554.5,-84 554.5,-84 554.5,-78 560.5,-72 566.5,-72 566.5,-72 596.5,-72 596.5,-72 602.5,-72 608.5,-78 608.5,-84 608.5,-84 608.5,-96 608.5,-96 608.5,-102 602.5,-108 596.5,-108"/>
<text text-anchor="middle" x="581.5" y="-86.3" font-family="Times,serif" font-size="14.00">Name</text>
</g>
<!-- ast.Call object at 0x7fb06dc2c820&#45;&gt;ast.Name object at 0x7fb06dc2c2e0 -->
<g id="edge33" class="edge">
<title>ast.Call object at 0x7fb06dc2c820&#45;&gt;ast.Name object at 0x7fb06dc2c2e0</title>
<path fill="none" stroke="black" d="M576.23,-143.7C577,-135.98 577.93,-126.71 578.79,-118.11"/>
<polygon fill="black" stroke="black" points="582.28,-118.4 579.79,-108.1 575.31,-117.71 582.28,-118.4"/>
</g>
<!-- ast.Name object at 0x7fb06dc2dd80 -->
<g id="node28" class="node">
<title>ast.Name object at 0x7fb06dc2dd80</title>
<path fill="#66cdaa" stroke="black" d="M668.5,-108C668.5,-108 638.5,-108 638.5,-108 632.5,-108 626.5,-102 626.5,-96 626.5,-96 626.5,-84 626.5,-84 626.5,-78 632.5,-72 638.5,-72 638.5,-72 668.5,-72 668.5,-72 674.5,-72 680.5,-78 680.5,-84 680.5,-84 680.5,-96 680.5,-96 680.5,-102 674.5,-108 668.5,-108"/>
<text text-anchor="middle" x="653.5" y="-86.3" font-family="Times,serif" font-size="14.00">Name</text>
</g>
<!-- ast.Call object at 0x7fb06dc2c820&#45;&gt;ast.Name object at 0x7fb06dc2dd80 -->
<g id="edge35" class="edge">
<title>ast.Call object at 0x7fb06dc2c820&#45;&gt;ast.Name object at 0x7fb06dc2dd80</title>
<path fill="none" stroke="black" d="M594.03,-143.7C603.88,-134.97 615.99,-124.24 626.7,-114.75"/>
<polygon fill="black" stroke="black" points="629.03,-117.36 634.2,-108.1 624.39,-112.12 629.03,-117.36"/>
</g>
<!-- ast.Name object at 0x7fb06dc2c2e0&#45;&gt;ast.Load object at 0x7fb086bedf60 -->
<g id="edge34" class="edge">
<title>ast.Name object at 0x7fb06dc2c2e0&#45;&gt;ast.Load object at 0x7fb086bedf60</title>
<path fill="none" stroke="black" d="M581.5,-71.7C581.5,-63.98 581.5,-54.71 581.5,-46.11"/>
<polygon fill="black" stroke="black" points="585,-46.1 581.5,-36.1 578,-46.1 585,-46.1"/>
</g>
<!-- ast.Name object at 0x7fb06dc2dd80&#45;&gt;ast.Load object at 0x7fb086bedf60 -->
<g id="edge36" class="edge">
<title>ast.Name object at 0x7fb06dc2dd80&#45;&gt;ast.Load object at 0x7fb086bedf60</title>
<path fill="none" stroke="black" d="M635.7,-71.7C626.9,-63.14 616.12,-52.66 606.5,-43.3"/>
<polygon fill="black" stroke="black" points="608.7,-40.57 599.09,-36.1 603.82,-45.58 608.7,-40.57"/>
</g>
<!-- ast.Name object at 0x7fb06dc2f520 -->
<g id="node31" class="node">
<title>ast.Name object at 0x7fb06dc2f520</title>
<path fill="#66cdaa" stroke="black" d="M711.5,-324C711.5,-324 681.5,-324 681.5,-324 675.5,-324 669.5,-318 669.5,-312 669.5,-312 669.5,-300 669.5,-300 669.5,-294 675.5,-288 681.5,-288 681.5,-288 711.5,-288 711.5,-288 717.5,-288 723.5,-294 723.5,-300 723.5,-300 723.5,-312 723.5,-312 723.5,-318 717.5,-324 711.5,-324"/>
<text text-anchor="middle" x="696.5" y="-302.3" font-family="Times,serif" font-size="14.00">Name</text>
</g>
<!-- ast.For object at 0x7fb06dc2e920&#45;&gt;ast.Name object at 0x7fb06dc2f520 -->
<g id="edge40" class="edge">
<title>ast.For object at 0x7fb06dc2e920&#45;&gt;ast.Name object at 0x7fb06dc2f520</title>
<path fill="none" stroke="black" d="M723.6,-359.7C719.5,-351.73 714.55,-342.1 710.01,-333.26"/>
<polygon fill="black" stroke="black" points="712.98,-331.4 705.3,-324.1 706.76,-334.6 712.98,-331.4"/>
</g>
<!-- ast.Name object at 0x7fb06c918d00 -->
<g id="node32" class="node">
<title>ast.Name object at 0x7fb06c918d00</title>
<path fill="#66cdaa" stroke="black" d="M783.5,-324C783.5,-324 753.5,-324 753.5,-324 747.5,-324 741.5,-318 741.5,-312 741.5,-312 741.5,-300 741.5,-300 741.5,-294 747.5,-288 753.5,-288 753.5,-288 783.5,-288 783.5,-288 789.5,-288 795.5,-294 795.5,-300 795.5,-300 795.5,-312 795.5,-312 795.5,-318 789.5,-324 783.5,-324"/>
<text text-anchor="middle" x="768.5" y="-302.3" font-family="Times,serif" font-size="14.00">Name</text>
</g>
<!-- ast.For object at 0x7fb06dc2e920&#45;&gt;ast.Name object at 0x7fb06c918d00 -->
<g id="edge42" class="edge">
<title>ast.For object at 0x7fb06dc2e920&#45;&gt;ast.Name object at 0x7fb06c918d00</title>
<path fill="none" stroke="black" d="M741.4,-359.7C745.5,-351.73 750.45,-342.1 754.99,-333.26"/>
<polygon fill="black" stroke="black" points="758.24,-334.6 759.7,-324.1 752.02,-331.4 758.24,-334.6"/>
</g>
<!-- ast.If object at 0x7fb06cfd60b0 -->
<g id="node33" class="node">
<title>ast.If object at 0x7fb06cfd60b0</title>
<path fill="#66cdaa" stroke="black" d="M893.5,-324C893.5,-324 863.5,-324 863.5,-324 857.5,-324 851.5,-318 851.5,-312 851.5,-312 851.5,-300 851.5,-300 851.5,-294 857.5,-288 863.5,-288 863.5,-288 893.5,-288 893.5,-288 899.5,-288 905.5,-294 905.5,-300 905.5,-300 905.5,-312 905.5,-312 905.5,-318 899.5,-324 893.5,-324"/>
<text text-anchor="middle" x="878.5" y="-302.3" font-family="Times,serif" font-size="14.00">If</text>
</g>
<!-- ast.For object at 0x7fb06dc2e920&#45;&gt;ast.If object at 0x7fb06cfd60b0 -->
<g id="edge44" class="edge">
<title>ast.For object at 0x7fb06dc2e920&#45;&gt;ast.If object at 0x7fb06cfd60b0</title>
<path fill="none" stroke="black" d="M759.62,-364C782.83,-352.87 816.44,-336.75 842.01,-324.5"/>
<polygon fill="black" stroke="black" points="843.53,-327.65 851.03,-320.17 840.5,-321.34 843.53,-327.65"/>
</g>
<!-- ast.Name object at 0x7fb06dc2f520&#45;&gt;ast.Store object at 0x7fb086bedfc0 -->
<g id="edge41" class="edge">
<title>ast.Name object at 0x7fb06dc2f520&#45;&gt;ast.Store object at 0x7fb086bedfc0</title>
<path fill="none" stroke="black" d="M702.64,-287.97C713.22,-255.31 730.38,-183.58 693.5,-144 634.39,-80.56 394.73,-128.11 292.65,-107.41"/>
<polygon fill="black" stroke="black" points="293.18,-103.93 282.64,-105.03 291.56,-110.74 293.18,-103.93"/>
</g>
<!-- ast.Name object at 0x7fb06c918d00&#45;&gt;ast.Load object at 0x7fb086bedf60 -->
<g id="edge43" class="edge">
<title>ast.Name object at 0x7fb06c918d00&#45;&gt;ast.Load object at 0x7fb086bedf60</title>
<path fill="none" stroke="black" d="M767.31,-287.7C763.53,-245.49 748.29,-136.03 689.5,-72 670.47,-51.27 641.55,-37.68 618.42,-29.45"/>
<polygon fill="black" stroke="black" points="619.51,-26.13 608.91,-26.25 617.27,-32.76 619.51,-26.13"/>
</g>
<!-- ast.Compare object at 0x7fb06cfd70a0 -->
<g id="node34" class="node">
<title>ast.Compare object at 0x7fb06cfd70a0</title>
<path fill="#66cdaa" stroke="black" d="M900,-252C900,-252 857,-252 857,-252 851,-252 845,-246 845,-240 845,-240 845,-228 845,-228 845,-222 851,-216 857,-216 857,-216 900,-216 900,-216 906,-216 912,-222 912,-228 912,-228 912,-240 912,-240 912,-246 906,-252 900,-252"/>
<text text-anchor="middle" x="878.5" y="-230.3" font-family="Times,serif" font-size="14.00">Compare</text>
</g>
<!-- ast.If object at 0x7fb06cfd60b0&#45;&gt;ast.Compare object at 0x7fb06cfd70a0 -->
<g id="edge45" class="edge">
<title>ast.If object at 0x7fb06cfd60b0&#45;&gt;ast.Compare object at 0x7fb06cfd70a0</title>
<path fill="none" stroke="black" d="M878.5,-287.7C878.5,-279.98 878.5,-270.71 878.5,-262.11"/>
<polygon fill="black" stroke="black" points="882,-262.1 878.5,-252.1 875,-262.1 882,-262.1"/>
</g>
<!-- ast.Return object at 0x7fb06cfd5ea0 -->
<g id="node40" class="node">
<title>ast.Return object at 0x7fb06cfd5ea0</title>
<path fill="#66cdaa" stroke="black" d="M1004.5,-252C1004.5,-252 974.5,-252 974.5,-252 968.5,-252 962.5,-246 962.5,-240 962.5,-240 962.5,-228 962.5,-228 962.5,-222 968.5,-216 974.5,-216 974.5,-216 1004.5,-216 1004.5,-216 1010.5,-216 1016.5,-222 1016.5,-228 1016.5,-228 1016.5,-240 1016.5,-240 1016.5,-246 1010.5,-252 1004.5,-252"/>
<text text-anchor="middle" x="989.5" y="-230.3" font-family="Times,serif" font-size="14.00">Return</text>
</g>
<!-- ast.If object at 0x7fb06cfd60b0&#45;&gt;ast.Return object at 0x7fb06cfd5ea0 -->
<g id="edge54" class="edge">
<title>ast.If object at 0x7fb06cfd60b0&#45;&gt;ast.Return object at 0x7fb06cfd5ea0</title>
<path fill="none" stroke="black" d="M905.65,-287.88C920.03,-278.81 937.88,-267.55 953.41,-257.76"/>
<polygon fill="black" stroke="black" points="955.65,-260.48 962.24,-252.19 951.92,-254.56 955.65,-260.48"/>
</g>
<!-- ast.Call object at 0x7fb06cfd63b0 -->
<g id="node35" class="node">
<title>ast.Call object at 0x7fb06cfd63b0</title>
<path fill="#66cdaa" stroke="black" d="M821.5,-180C821.5,-180 791.5,-180 791.5,-180 785.5,-180 779.5,-174 779.5,-168 779.5,-168 779.5,-156 779.5,-156 779.5,-150 785.5,-144 791.5,-144 791.5,-144 821.5,-144 821.5,-144 827.5,-144 833.5,-150 833.5,-156 833.5,-156 833.5,-168 833.5,-168 833.5,-174 827.5,-180 821.5,-180"/>
<text text-anchor="middle" x="806.5" y="-158.3" font-family="Times,serif" font-size="14.00">Call</text>
</g>
<!-- ast.Compare object at 0x7fb06cfd70a0&#45;&gt;ast.Call object at 0x7fb06cfd63b0 -->
<g id="edge46" class="edge">
<title>ast.Compare object at 0x7fb06cfd70a0&#45;&gt;ast.Call object at 0x7fb06cfd63b0</title>
<path fill="none" stroke="black" d="M860.7,-215.7C851.9,-207.14 841.12,-196.66 831.5,-187.3"/>
<polygon fill="black" stroke="black" points="833.7,-184.57 824.09,-180.1 828.82,-189.58 833.7,-184.57"/>
</g>
<!-- ast.Eq object at 0x7fb086bee890 -->
<g id="node38" class="node">
<title>ast.Eq object at 0x7fb086bee890</title>
<path fill="#66cdaa" stroke="black" d="M893.5,-180C893.5,-180 863.5,-180 863.5,-180 857.5,-180 851.5,-174 851.5,-168 851.5,-168 851.5,-156 851.5,-156 851.5,-150 857.5,-144 863.5,-144 863.5,-144 893.5,-144 893.5,-144 899.5,-144 905.5,-150 905.5,-156 905.5,-156 905.5,-168 905.5,-168 905.5,-174 899.5,-180 893.5,-180"/>
<text text-anchor="middle" x="878.5" y="-158.3" font-family="Times,serif" font-size="14.00">Eq</text>
</g>
<!-- ast.Compare object at 0x7fb06cfd70a0&#45;&gt;ast.Eq object at 0x7fb086bee890 -->
<g id="edge51" class="edge">
<title>ast.Compare object at 0x7fb06cfd70a0&#45;&gt;ast.Eq object at 0x7fb086bee890</title>
<path fill="none" stroke="black" d="M878.5,-215.7C878.5,-207.98 878.5,-198.71 878.5,-190.11"/>
<polygon fill="black" stroke="black" points="882,-190.1 878.5,-180.1 875,-190.1 882,-190.1"/>
</g>
<!-- ast.Name object at 0x7fb06cfd4fd0 -->
<g id="node39" class="node">
<title>ast.Name object at 0x7fb06cfd4fd0</title>
<path fill="#66cdaa" stroke="black" d="M965.5,-180C965.5,-180 935.5,-180 935.5,-180 929.5,-180 923.5,-174 923.5,-168 923.5,-168 923.5,-156 923.5,-156 923.5,-150 929.5,-144 935.5,-144 935.5,-144 965.5,-144 965.5,-144 971.5,-144 977.5,-150 977.5,-156 977.5,-156 977.5,-168 977.5,-168 977.5,-174 971.5,-180 965.5,-180"/>
<text text-anchor="middle" x="950.5" y="-158.3" font-family="Times,serif" font-size="14.00">Name</text>
</g>
<!-- ast.Compare object at 0x7fb06cfd70a0&#45;&gt;ast.Name object at 0x7fb06cfd4fd0 -->
<g id="edge52" class="edge">
<title>ast.Compare object at 0x7fb06cfd70a0&#45;&gt;ast.Name object at 0x7fb06cfd4fd0</title>
<path fill="none" stroke="black" d="M896.3,-215.7C905.1,-207.14 915.88,-196.66 925.5,-187.3"/>
<polygon fill="black" stroke="black" points="928.18,-189.58 932.91,-180.1 923.3,-184.57 928.18,-189.58"/>
</g>
<!-- ast.Name object at 0x7fb06cfd7100 -->
<g id="node36" class="node">
<title>ast.Name object at 0x7fb06cfd7100</title>
<path fill="#66cdaa" stroke="black" d="M821.5,-108C821.5,-108 791.5,-108 791.5,-108 785.5,-108 779.5,-102 779.5,-96 779.5,-96 779.5,-84 779.5,-84 779.5,-78 785.5,-72 791.5,-72 791.5,-72 821.5,-72 821.5,-72 827.5,-72 833.5,-78 833.5,-84 833.5,-84 833.5,-96 833.5,-96 833.5,-102 827.5,-108 821.5,-108"/>
<text text-anchor="middle" x="806.5" y="-86.3" font-family="Times,serif" font-size="14.00">Name</text>
</g>
<!-- ast.Call object at 0x7fb06cfd63b0&#45;&gt;ast.Name object at 0x7fb06cfd7100 -->
<g id="edge47" class="edge">
<title>ast.Call object at 0x7fb06cfd63b0&#45;&gt;ast.Name object at 0x7fb06cfd7100</title>
<path fill="none" stroke="black" d="M806.5,-143.7C806.5,-135.98 806.5,-126.71 806.5,-118.11"/>
<polygon fill="black" stroke="black" points="810,-118.1 806.5,-108.1 803,-118.1 810,-118.1"/>
</g>
<!-- ast.Name object at 0x7fb06cfd4af0 -->
<g id="node37" class="node">
<title>ast.Name object at 0x7fb06cfd4af0</title>
<path fill="#66cdaa" stroke="black" d="M893.5,-108C893.5,-108 863.5,-108 863.5,-108 857.5,-108 851.5,-102 851.5,-96 851.5,-96 851.5,-84 851.5,-84 851.5,-78 857.5,-72 863.5,-72 863.5,-72 893.5,-72 893.5,-72 899.5,-72 905.5,-78 905.5,-84 905.5,-84 905.5,-96 905.5,-96 905.5,-102 899.5,-108 893.5,-108"/>
<text text-anchor="middle" x="878.5" y="-86.3" font-family="Times,serif" font-size="14.00">Name</text>
</g>
<!-- ast.Call object at 0x7fb06cfd63b0&#45;&gt;ast.Name object at 0x7fb06cfd4af0 -->
<g id="edge49" class="edge">
<title>ast.Call object at 0x7fb06cfd63b0&#45;&gt;ast.Name object at 0x7fb06cfd4af0</title>
<path fill="none" stroke="black" d="M824.3,-143.7C833.1,-135.14 843.88,-124.66 853.5,-115.3"/>
<polygon fill="black" stroke="black" points="856.18,-117.58 860.91,-108.1 851.3,-112.57 856.18,-117.58"/>
</g>
<!-- ast.Name object at 0x7fb06cfd7100&#45;&gt;ast.Load object at 0x7fb086bedf60 -->
<g id="edge48" class="edge">
<title>ast.Name object at 0x7fb06cfd7100&#45;&gt;ast.Load object at 0x7fb086bedf60</title>
<path fill="none" stroke="black" d="M779.32,-77.23C774.74,-75.39 770.01,-73.58 765.5,-72 715.31,-54.43 656,-38.12 618.57,-28.36"/>
<polygon fill="black" stroke="black" points="619.17,-24.9 608.61,-25.79 617.42,-31.68 619.17,-24.9"/>
</g>
<!-- ast.Name object at 0x7fb06cfd4af0&#45;&gt;ast.Load object at 0x7fb086bedf60 -->
<g id="edge50" class="edge">
<title>ast.Name object at 0x7fb06cfd4af0&#45;&gt;ast.Load object at 0x7fb086bedf60</title>
<path fill="none" stroke="black" d="M851.26,-75.31C848.34,-74.09 845.39,-72.96 842.5,-72 764.91,-46.22 669.99,-30.77 618.69,-23.68"/>
<polygon fill="black" stroke="black" points="619.11,-20.2 608.73,-22.33 618.17,-27.14 619.11,-20.2"/>
</g>
<!-- ast.Name object at 0x7fb06cfd4fd0&#45;&gt;ast.Load object at 0x7fb086bedf60 -->
<g id="edge53" class="edge">
<title>ast.Name object at 0x7fb06cfd4fd0&#45;&gt;ast.Load object at 0x7fb086bedf60</title>
<path fill="none" stroke="black" d="M948.61,-143.95C945.37,-123.5 936.8,-89.75 914.5,-72 869.33,-36.06 696.11,-24.04 618.96,-20.41"/>
<polygon fill="black" stroke="black" points="618.88,-16.91 608.73,-19.96 618.56,-23.9 618.88,-16.91"/>
</g>
<!-- ast.Name object at 0x7fb06cfd68c0 -->
<g id="node41" class="node">
<title>ast.Name object at 0x7fb06cfd68c0</title>
<path fill="#66cdaa" stroke="black" d="M1037.5,-180C1037.5,-180 1007.5,-180 1007.5,-180 1001.5,-180 995.5,-174 995.5,-168 995.5,-168 995.5,-156 995.5,-156 995.5,-150 1001.5,-144 1007.5,-144 1007.5,-144 1037.5,-144 1037.5,-144 1043.5,-144 1049.5,-150 1049.5,-156 1049.5,-156 1049.5,-168 1049.5,-168 1049.5,-174 1043.5,-180 1037.5,-180"/>
<text text-anchor="middle" x="1022.5" y="-158.3" font-family="Times,serif" font-size="14.00">Name</text>
</g>
<!-- ast.Return object at 0x7fb06cfd5ea0&#45;&gt;ast.Name object at 0x7fb06cfd68c0 -->
<g id="edge55" class="edge">
<title>ast.Return object at 0x7fb06cfd5ea0&#45;&gt;ast.Name object at 0x7fb06cfd68c0</title>
<path fill="none" stroke="black" d="M997.66,-215.7C1001.41,-207.73 1005.95,-198.1 1010.12,-189.26"/>
<polygon fill="black" stroke="black" points="1013.34,-190.64 1014.44,-180.1 1007.01,-187.66 1013.34,-190.64"/>
</g>
<!-- ast.Name object at 0x7fb06cfd68c0&#45;&gt;ast.Load object at 0x7fb086bedf60 -->
<g id="edge56" class="edge">
<title>ast.Name object at 0x7fb06cfd68c0&#45;&gt;ast.Load object at 0x7fb086bedf60</title>
<path fill="none" stroke="black" d="M1012.31,-144C998.88,-123.26 973.22,-88.89 941.5,-72 886,-42.45 699.14,-26.81 618.77,-21.31"/>
<polygon fill="black" stroke="black" points="618.82,-17.81 608.61,-20.63 618.35,-24.79 618.82,-17.81"/>
</g>
</g>
</svg>
