<?xml version="1.0" encoding="UTF-8" standalone="no"?>
<!DOCTYPE svg PUBLIC "-//W3C//DTD SVG 1.1//EN"
 "http://www.w3.org/Graphics/SVG/1.1/DTD/svg11.dtd">
<!-- Generated by graphviz version 2.43.0 (0)
 -->
<!-- Title: %3 Pages: 1 -->
<svg width="904pt" height="476pt"
 viewBox="0.00 0.00 903.50 476.00" xmlns="http://www.w3.org/2000/svg" xmlns:xlink="http://www.w3.org/1999/xlink">
<g id="graph0" class="graph" transform="scale(1 1) rotate(0) translate(4 472)">
<title>%3</title>
<polygon fill="white" stroke="transparent" points="-4,4 -4,-472 899.5,-472 899.5,4 -4,4"/>
<!-- ast.Module object at 0x7f2bddf2a140 -->
<g id="node1" class="node">
<title>ast.Module object at 0x7f2bddf2a140</title>
<path fill="#66cdaa" stroke="black" d="M408,-468C408,-468 373,-468 373,-468 367,-468 361,-462 361,-456 361,-456 361,-444 361,-444 361,-438 367,-432 373,-432 373,-432 408,-432 408,-432 414,-432 420,-438 420,-444 420,-444 420,-456 420,-456 420,-462 414,-468 408,-468"/>
<text text-anchor="middle" x="390.5" y="-446.3" font-family="Times,serif" font-size="14.00">Module</text>
</g>
<!-- ast.FunctionDef object at 0x7f2bddf2aa40 -->
<g id="node2" class="node">
<title>ast.FunctionDef object at 0x7f2bddf2aa40</title>
<path fill="#66cdaa" stroke="black" d="M421,-396C421,-396 360,-396 360,-396 354,-396 348,-390 348,-384 348,-384 348,-372 348,-372 348,-366 354,-360 360,-360 360,-360 421,-360 421,-360 427,-360 433,-366 433,-372 433,-372 433,-384 433,-384 433,-390 427,-396 421,-396"/>
<text text-anchor="middle" x="390.5" y="-374.3" font-family="Times,serif" font-size="14.00">FunctionDef</text>
</g>
<!-- ast.Module object at 0x7f2bddf2a140&#45;&gt;ast.FunctionDef object at 0x7f2bddf2aa40 -->
<g id="edge1" class="edge">
<title>ast.Module object at 0x7f2bddf2a140&#45;&gt;ast.FunctionDef object at 0x7f2bddf2aa40</title>
<path fill="none" stroke="black" d="M390.5,-431.7C390.5,-423.98 390.5,-414.71 390.5,-406.11"/>
<polygon fill="black" stroke="black" points="394,-406.1 390.5,-396.1 387,-406.1 394,-406.1"/>
</g>
<!-- ast.arguments object at 0x7f2bddf290f0 -->
<g id="node3" class="node">
<title>ast.arguments object at 0x7f2bddf290f0</title>
<path fill="#66cdaa" stroke="black" d="M88.5,-324C88.5,-324 38.5,-324 38.5,-324 32.5,-324 26.5,-318 26.5,-312 26.5,-312 26.5,-300 26.5,-300 26.5,-294 32.5,-288 38.5,-288 38.5,-288 88.5,-288 88.5,-288 94.5,-288 100.5,-294 100.5,-300 100.5,-300 100.5,-312 100.5,-312 100.5,-318 94.5,-324 88.5,-324"/>
<text text-anchor="middle" x="63.5" y="-302.3" font-family="Times,serif" font-size="14.00">arguments</text>
</g>
<!-- ast.FunctionDef object at 0x7f2bddf2aa40&#45;&gt;ast.arguments object at 0x7f2bddf290f0 -->
<g id="edge2" class="edge">
<title>ast.FunctionDef object at 0x7f2bddf2aa40&#45;&gt;ast.arguments object at 0x7f2bddf290f0</title>
<path fill="none" stroke="black" d="M347.57,-368.01C297.75,-357.56 213.13,-339.72 140.5,-324 130.87,-321.92 120.56,-319.66 110.73,-317.49"/>
<polygon fill="black" stroke="black" points="111.21,-314.02 100.69,-315.28 109.7,-320.85 111.21,-314.02"/>
</g>
<!-- ast.If object at 0x7f2bddf288e0 -->
<g id="node5" class="node">
<title>ast.If object at 0x7f2bddf288e0</title>
<path fill="#66cdaa" stroke="black" d="M563.5,-324C563.5,-324 533.5,-324 533.5,-324 527.5,-324 521.5,-318 521.5,-312 521.5,-312 521.5,-300 521.5,-300 521.5,-294 527.5,-288 533.5,-288 533.5,-288 563.5,-288 563.5,-288 569.5,-288 575.5,-294 575.5,-300 575.5,-300 575.5,-312 575.5,-312 575.5,-318 569.5,-324 563.5,-324"/>
<text text-anchor="middle" x="548.5" y="-302.3" font-family="Times,serif" font-size="14.00">If</text>
</g>
<!-- ast.FunctionDef object at 0x7f2bddf2aa40&#45;&gt;ast.If object at 0x7f2bddf288e0 -->
<g id="edge4" class="edge">
<title>ast.FunctionDef object at 0x7f2bddf2aa40&#45;&gt;ast.If object at 0x7f2bddf288e0</title>
<path fill="none" stroke="black" d="M429.15,-359.88C454.31,-348.73 486.94,-334.27 511.72,-323.29"/>
<polygon fill="black" stroke="black" points="513.42,-326.37 521.14,-319.12 510.58,-319.97 513.42,-326.37"/>
</g>
<!-- ast.Assign object at 0x7f2bddf2b550 -->
<g id="node15" class="node">
<title>ast.Assign object at 0x7f2bddf2b550</title>
<path fill="#66cdaa" stroke="black" d="M191.5,-324C191.5,-324 161.5,-324 161.5,-324 155.5,-324 149.5,-318 149.5,-312 149.5,-312 149.5,-300 149.5,-300 149.5,-294 155.5,-288 161.5,-288 161.5,-288 191.5,-288 191.5,-288 197.5,-288 203.5,-294 203.5,-300 203.5,-300 203.5,-312 203.5,-312 203.5,-318 197.5,-324 191.5,-324"/>
<text text-anchor="middle" x="176.5" y="-302.3" font-family="Times,serif" font-size="14.00">Assign</text>
</g>
<!-- ast.FunctionDef object at 0x7f2bddf2aa40&#45;&gt;ast.Assign object at 0x7f2bddf2b550 -->
<g id="edge15" class="edge">
<title>ast.FunctionDef object at 0x7f2bddf2aa40&#45;&gt;ast.Assign object at 0x7f2bddf2b550</title>
<path fill="none" stroke="black" d="M347.96,-363.09C308.58,-350.2 250.61,-331.24 213.21,-319.01"/>
<polygon fill="black" stroke="black" points="214.29,-315.68 203.7,-315.9 212.11,-322.33 214.29,-315.68"/>
</g>
<!-- ast.If object at 0x7f2bddf29c00 -->
<g id="node25" class="node">
<title>ast.If object at 0x7f2bddf29c00</title>
<path fill="#66cdaa" stroke="black" d="M405.5,-324C405.5,-324 375.5,-324 375.5,-324 369.5,-324 363.5,-318 363.5,-312 363.5,-312 363.5,-300 363.5,-300 363.5,-294 369.5,-288 375.5,-288 375.5,-288 405.5,-288 405.5,-288 411.5,-288 417.5,-294 417.5,-300 417.5,-300 417.5,-312 417.5,-312 417.5,-318 411.5,-324 405.5,-324"/>
<text text-anchor="middle" x="390.5" y="-302.3" font-family="Times,serif" font-size="14.00">If</text>
</g>
<!-- ast.FunctionDef object at 0x7f2bddf2aa40&#45;&gt;ast.If object at 0x7f2bddf29c00 -->
<g id="edge28" class="edge">
<title>ast.FunctionDef object at 0x7f2bddf2aa40&#45;&gt;ast.If object at 0x7f2bddf29c00</title>
<path fill="none" stroke="black" d="M390.5,-359.7C390.5,-351.98 390.5,-342.71 390.5,-334.11"/>
<polygon fill="black" stroke="black" points="394,-334.1 390.5,-324.1 387,-334.1 394,-334.1"/>
</g>
<!-- ast.Return object at 0x7f2bddf28b80 -->
<g id="node34" class="node">
<title>ast.Return object at 0x7f2bddf28b80</title>
<path fill="#66cdaa" stroke="black" d="M669.5,-324C669.5,-324 639.5,-324 639.5,-324 633.5,-324 627.5,-318 627.5,-312 627.5,-312 627.5,-300 627.5,-300 627.5,-294 633.5,-288 639.5,-288 639.5,-288 669.5,-288 669.5,-288 675.5,-288 681.5,-294 681.5,-300 681.5,-300 681.5,-312 681.5,-312 681.5,-318 675.5,-324 669.5,-324"/>
<text text-anchor="middle" x="654.5" y="-302.3" font-family="Times,serif" font-size="14.00">Return</text>
</g>
<!-- ast.FunctionDef object at 0x7f2bddf2aa40&#45;&gt;ast.Return object at 0x7f2bddf28b80 -->
<g id="edge39" class="edge">
<title>ast.FunctionDef object at 0x7f2bddf2aa40&#45;&gt;ast.Return object at 0x7f2bddf28b80</title>
<path fill="none" stroke="black" d="M433.21,-365.68C484.3,-352.13 568.99,-329.67 617.44,-316.83"/>
<polygon fill="black" stroke="black" points="618.43,-320.18 627.2,-314.24 616.64,-313.42 618.43,-320.18"/>
</g>
<!-- ast.arg object at 0x7f2bddf2b790 -->
<g id="node4" class="node">
<title>ast.arg object at 0x7f2bddf2b790</title>
<path fill="#66cdaa" stroke="black" d="M47.5,-252C47.5,-252 17.5,-252 17.5,-252 11.5,-252 5.5,-246 5.5,-240 5.5,-240 5.5,-228 5.5,-228 5.5,-222 11.5,-216 17.5,-216 17.5,-216 47.5,-216 47.5,-216 53.5,-216 59.5,-222 59.5,-228 59.5,-228 59.5,-240 59.5,-240 59.5,-246 53.5,-252 47.5,-252"/>
<text text-anchor="middle" x="32.5" y="-230.3" font-family="Times,serif" font-size="14.00">arg</text>
</g>
<!-- ast.arguments object at 0x7f2bddf290f0&#45;&gt;ast.arg object at 0x7f2bddf2b790 -->
<g id="edge3" class="edge">
<title>ast.arguments object at 0x7f2bddf290f0&#45;&gt;ast.arg object at 0x7f2bddf2b790</title>
<path fill="none" stroke="black" d="M55.84,-287.7C52.31,-279.73 48.04,-270.1 44.13,-261.26"/>
<polygon fill="black" stroke="black" points="47.32,-259.83 40.07,-252.1 40.92,-262.67 47.32,-259.83"/>
</g>
<!-- ast.Compare object at 0x7f2bddf2b820 -->
<g id="node6" class="node">
<title>ast.Compare object at 0x7f2bddf2b820</title>
<path fill="#66cdaa" stroke="black" d="M684,-252C684,-252 641,-252 641,-252 635,-252 629,-246 629,-240 629,-240 629,-228 629,-228 629,-222 635,-216 641,-216 641,-216 684,-216 684,-216 690,-216 696,-222 696,-228 696,-228 696,-240 696,-240 696,-246 690,-252 684,-252"/>
<text text-anchor="middle" x="662.5" y="-230.3" font-family="Times,serif" font-size="14.00">Compare</text>
</g>
<!-- ast.If object at 0x7f2bddf288e0&#45;&gt;ast.Compare object at 0x7f2bddf2b820 -->
<g id="edge5" class="edge">
<title>ast.If object at 0x7f2bddf288e0&#45;&gt;ast.Compare object at 0x7f2bddf2b820</title>
<path fill="none" stroke="black" d="M575.52,-288.41C590.52,-279.2 609.39,-267.61 625.72,-257.59"/>
<polygon fill="black" stroke="black" points="627.8,-260.42 634.49,-252.2 624.13,-254.45 627.8,-260.42"/>
</g>
<!-- ast.Return object at 0x7f2bddf2b340 -->
<g id="node13" class="node">
<title>ast.Return object at 0x7f2bddf2b340</title>
<path fill="#66cdaa" stroke="black" d="M563.5,-252C563.5,-252 533.5,-252 533.5,-252 527.5,-252 521.5,-246 521.5,-240 521.5,-240 521.5,-228 521.5,-228 521.5,-222 527.5,-216 533.5,-216 533.5,-216 563.5,-216 563.5,-216 569.5,-216 575.5,-222 575.5,-228 575.5,-228 575.5,-240 575.5,-240 575.5,-246 569.5,-252 563.5,-252"/>
<text text-anchor="middle" x="548.5" y="-230.3" font-family="Times,serif" font-size="14.00">Return</text>
</g>
<!-- ast.If object at 0x7f2bddf288e0&#45;&gt;ast.Return object at 0x7f2bddf2b340 -->
<g id="edge13" class="edge">
<title>ast.If object at 0x7f2bddf288e0&#45;&gt;ast.Return object at 0x7f2bddf2b340</title>
<path fill="none" stroke="black" d="M548.5,-287.7C548.5,-279.98 548.5,-270.71 548.5,-262.11"/>
<polygon fill="black" stroke="black" points="552,-262.1 548.5,-252.1 545,-262.1 552,-262.1"/>
</g>
<!-- ast.Call object at 0x7f2bddf28df0 -->
<g id="node7" class="node">
<title>ast.Call object at 0x7f2bddf28df0</title>
<path fill="#66cdaa" stroke="black" d="M641.5,-180C641.5,-180 611.5,-180 611.5,-180 605.5,-180 599.5,-174 599.5,-168 599.5,-168 599.5,-156 599.5,-156 599.5,-150 605.5,-144 611.5,-144 611.5,-144 641.5,-144 641.5,-144 647.5,-144 653.5,-150 653.5,-156 653.5,-156 653.5,-168 653.5,-168 653.5,-174 647.5,-180 641.5,-180"/>
<text text-anchor="middle" x="626.5" y="-158.3" font-family="Times,serif" font-size="14.00">Call</text>
</g>
<!-- ast.Compare object at 0x7f2bddf2b820&#45;&gt;ast.Call object at 0x7f2bddf28df0 -->
<g id="edge6" class="edge">
<title>ast.Compare object at 0x7f2bddf2b820&#45;&gt;ast.Call object at 0x7f2bddf28df0</title>
<path fill="none" stroke="black" d="M653.6,-215.7C649.5,-207.73 644.55,-198.1 640.01,-189.26"/>
<polygon fill="black" stroke="black" points="642.98,-187.4 635.3,-180.1 636.76,-190.6 642.98,-187.4"/>
</g>
<!-- ast.LtE object at 0x7f2c0d7ee9e0 -->
<g id="node11" class="node">
<title>ast.LtE object at 0x7f2c0d7ee9e0</title>
<path fill="#66cdaa" stroke="black" d="M713.5,-180C713.5,-180 683.5,-180 683.5,-180 677.5,-180 671.5,-174 671.5,-168 671.5,-168 671.5,-156 671.5,-156 671.5,-150 677.5,-144 683.5,-144 683.5,-144 713.5,-144 713.5,-144 719.5,-144 725.5,-150 725.5,-156 725.5,-156 725.5,-168 725.5,-168 725.5,-174 719.5,-180 713.5,-180"/>
<text text-anchor="middle" x="698.5" y="-158.3" font-family="Times,serif" font-size="14.00">LtE</text>
</g>
<!-- ast.Compare object at 0x7f2bddf2b820&#45;&gt;ast.LtE object at 0x7f2c0d7ee9e0 -->
<g id="edge11" class="edge">
<title>ast.Compare object at 0x7f2bddf2b820&#45;&gt;ast.LtE object at 0x7f2c0d7ee9e0</title>
<path fill="none" stroke="black" d="M671.4,-215.7C675.5,-207.73 680.45,-198.1 684.99,-189.26"/>
<polygon fill="black" stroke="black" points="688.24,-190.6 689.7,-180.1 682.02,-187.4 688.24,-190.6"/>
</g>
<!-- ast.Constant object at 0x7f2bddf2bf70 -->
<g id="node12" class="node">
<title>ast.Constant object at 0x7f2bddf2bf70</title>
<path fill="#66cdaa" stroke="black" d="M797,-180C797,-180 756,-180 756,-180 750,-180 744,-174 744,-168 744,-168 744,-156 744,-156 744,-150 750,-144 756,-144 756,-144 797,-144 797,-144 803,-144 809,-150 809,-156 809,-156 809,-168 809,-168 809,-174 803,-180 797,-180"/>
<text text-anchor="middle" x="776.5" y="-158.3" font-family="Times,serif" font-size="14.00">Constant</text>
</g>
<!-- ast.Compare object at 0x7f2bddf2b820&#45;&gt;ast.Constant object at 0x7f2bddf2bf70 -->
<g id="edge12" class="edge">
<title>ast.Compare object at 0x7f2bddf2b820&#45;&gt;ast.Constant object at 0x7f2bddf2bf70</title>
<path fill="none" stroke="black" d="M690.39,-215.88C705.29,-206.72 723.83,-195.34 739.88,-185.48"/>
<polygon fill="black" stroke="black" points="741.81,-188.41 748.51,-180.19 738.15,-182.44 741.81,-188.41"/>
</g>
<!-- ast.Name object at 0x7f2bddf2be20 -->
<g id="node8" class="node">
<title>ast.Name object at 0x7f2bddf2be20</title>
<path fill="#66cdaa" stroke="black" d="M594.5,-108C594.5,-108 564.5,-108 564.5,-108 558.5,-108 552.5,-102 552.5,-96 552.5,-96 552.5,-84 552.5,-84 552.5,-78 558.5,-72 564.5,-72 564.5,-72 594.5,-72 594.5,-72 600.5,-72 606.5,-78 606.5,-84 606.5,-84 606.5,-96 606.5,-96 606.5,-102 600.5,-108 594.5,-108"/>
<text text-anchor="middle" x="579.5" y="-86.3" font-family="Times,serif" font-size="14.00">Name</text>
</g>
<!-- ast.Call object at 0x7f2bddf28df0&#45;&gt;ast.Name object at 0x7f2bddf2be20 -->
<g id="edge7" class="edge">
<title>ast.Call object at 0x7f2bddf28df0&#45;&gt;ast.Name object at 0x7f2bddf2be20</title>
<path fill="none" stroke="black" d="M614.88,-143.7C609.36,-135.47 602.65,-125.48 596.57,-116.42"/>
<polygon fill="black" stroke="black" points="599.46,-114.46 590.98,-108.1 593.65,-118.36 599.46,-114.46"/>
</g>
<!-- ast.Name object at 0x7f2bddf2bbb0 -->
<g id="node10" class="node">
<title>ast.Name object at 0x7f2bddf2bbb0</title>
<path fill="#66cdaa" stroke="black" d="M498.5,-108C498.5,-108 468.5,-108 468.5,-108 462.5,-108 456.5,-102 456.5,-96 456.5,-96 456.5,-84 456.5,-84 456.5,-78 462.5,-72 468.5,-72 468.5,-72 498.5,-72 498.5,-72 504.5,-72 510.5,-78 510.5,-84 510.5,-84 510.5,-96 510.5,-96 510.5,-102 504.5,-108 498.5,-108"/>
<text text-anchor="middle" x="483.5" y="-86.3" font-family="Times,serif" font-size="14.00">Name</text>
</g>
<!-- ast.Call object at 0x7f2bddf28df0&#45;&gt;ast.Name object at 0x7f2bddf2bbb0 -->
<g id="edge9" class="edge">
<title>ast.Call object at 0x7f2bddf28df0&#45;&gt;ast.Name object at 0x7f2bddf2bbb0</title>
<path fill="none" stroke="black" d="M599.27,-147.67C576.7,-136.62 544.45,-120.83 519.71,-108.72"/>
<polygon fill="black" stroke="black" points="521.15,-105.53 510.63,-104.28 518.08,-111.82 521.15,-105.53"/>
</g>
<!-- ast.Load object at 0x7f2c0d7edf90 -->
<g id="node9" class="node">
<title>ast.Load object at 0x7f2c0d7edf90</title>
<path fill="#66cdaa" stroke="black" d="M414.5,-36C414.5,-36 384.5,-36 384.5,-36 378.5,-36 372.5,-30 372.5,-24 372.5,-24 372.5,-12 372.5,-12 372.5,-6 378.5,0 384.5,0 384.5,0 414.5,0 414.5,0 420.5,0 426.5,-6 426.5,-12 426.5,-12 426.5,-24 426.5,-24 426.5,-30 420.5,-36 414.5,-36"/>
<text text-anchor="middle" x="399.5" y="-14.3" font-family="Times,serif" font-size="14.00">Load</text>
</g>
<!-- ast.Name object at 0x7f2bddf2be20&#45;&gt;ast.Load object at 0x7f2c0d7edf90 -->
<g id="edge8" class="edge">
<title>ast.Name object at 0x7f2bddf2be20&#45;&gt;ast.Load object at 0x7f2c0d7edf90</title>
<path fill="none" stroke="black" d="M552.16,-78.37C521.19,-66.32 470.57,-46.64 436.18,-33.26"/>
<polygon fill="black" stroke="black" points="437.09,-29.86 426.51,-29.5 434.56,-36.39 437.09,-29.86"/>
</g>
<!-- ast.Name object at 0x7f2bddf2bbb0&#45;&gt;ast.Load object at 0x7f2c0d7edf90 -->
<g id="edge10" class="edge">
<title>ast.Name object at 0x7f2bddf2bbb0&#45;&gt;ast.Load object at 0x7f2c0d7edf90</title>
<path fill="none" stroke="black" d="M462.74,-71.7C452.26,-62.97 439.39,-52.24 428,-42.75"/>
<polygon fill="black" stroke="black" points="429.95,-39.82 420.03,-36.1 425.47,-45.19 429.95,-39.82"/>
</g>
<!-- ast.Constant object at 0x7f2bddf28a60 -->
<g id="node14" class="node">
<title>ast.Constant object at 0x7f2bddf28a60</title>
<path fill="#66cdaa" stroke="black" d="M569,-180C569,-180 528,-180 528,-180 522,-180 516,-174 516,-168 516,-168 516,-156 516,-156 516,-150 522,-144 528,-144 528,-144 569,-144 569,-144 575,-144 581,-150 581,-156 581,-156 581,-168 581,-168 581,-174 575,-180 569,-180"/>
<text text-anchor="middle" x="548.5" y="-158.3" font-family="Times,serif" font-size="14.00">Constant</text>
</g>
<!-- ast.Return object at 0x7f2bddf2b340&#45;&gt;ast.Constant object at 0x7f2bddf28a60 -->
<g id="edge14" class="edge">
<title>ast.Return object at 0x7f2bddf2b340&#45;&gt;ast.Constant object at 0x7f2bddf28a60</title>
<path fill="none" stroke="black" d="M548.5,-215.7C548.5,-207.98 548.5,-198.71 548.5,-190.11"/>
<polygon fill="black" stroke="black" points="552,-190.1 548.5,-180.1 545,-190.1 552,-190.1"/>
</g>
<!-- ast.Name object at 0x7f2bddf28bb0 -->
<g id="node16" class="node">
<title>ast.Name object at 0x7f2bddf28bb0</title>
<path fill="#66cdaa" stroke="black" d="M119.5,-252C119.5,-252 89.5,-252 89.5,-252 83.5,-252 77.5,-246 77.5,-240 77.5,-240 77.5,-228 77.5,-228 77.5,-222 83.5,-216 89.5,-216 89.5,-216 119.5,-216 119.5,-216 125.5,-216 131.5,-222 131.5,-228 131.5,-228 131.5,-240 131.5,-240 131.5,-246 125.5,-252 119.5,-252"/>
<text text-anchor="middle" x="104.5" y="-230.3" font-family="Times,serif" font-size="14.00">Name</text>
</g>
<!-- ast.Assign object at 0x7f2bddf2b550&#45;&gt;ast.Name object at 0x7f2bddf28bb0 -->
<g id="edge16" class="edge">
<title>ast.Assign object at 0x7f2bddf2b550&#45;&gt;ast.Name object at 0x7f2bddf28bb0</title>
<path fill="none" stroke="black" d="M158.7,-287.7C149.9,-279.14 139.12,-268.66 129.5,-259.3"/>
<polygon fill="black" stroke="black" points="131.7,-256.57 122.09,-252.1 126.82,-261.58 131.7,-256.57"/>
</g>
<!-- ast.Call object at 0x7f2bddf2ac50 -->
<g id="node18" class="node">
<title>ast.Call object at 0x7f2bddf2ac50</title>
<path fill="#66cdaa" stroke="black" d="M191.5,-252C191.5,-252 161.5,-252 161.5,-252 155.5,-252 149.5,-246 149.5,-240 149.5,-240 149.5,-228 149.5,-228 149.5,-222 155.5,-216 161.5,-216 161.5,-216 191.5,-216 191.5,-216 197.5,-216 203.5,-222 203.5,-228 203.5,-228 203.5,-240 203.5,-240 203.5,-246 197.5,-252 191.5,-252"/>
<text text-anchor="middle" x="176.5" y="-230.3" font-family="Times,serif" font-size="14.00">Call</text>
</g>
<!-- ast.Assign object at 0x7f2bddf2b550&#45;&gt;ast.Call object at 0x7f2bddf2ac50 -->
<g id="edge18" class="edge">
<title>ast.Assign object at 0x7f2bddf2b550&#45;&gt;ast.Call object at 0x7f2bddf2ac50</title>
<path fill="none" stroke="black" d="M176.5,-287.7C176.5,-279.98 176.5,-270.71 176.5,-262.11"/>
<polygon fill="black" stroke="black" points="180,-262.1 176.5,-252.1 173,-262.1 180,-262.1"/>
</g>
<!-- ast.Store object at 0x7f2c0d7edff0 -->
<g id="node17" class="node">
<title>ast.Store object at 0x7f2c0d7edff0</title>
<path fill="#66cdaa" stroke="black" d="M50.5,-180C50.5,-180 20.5,-180 20.5,-180 14.5,-180 8.5,-174 8.5,-168 8.5,-168 8.5,-156 8.5,-156 8.5,-150 14.5,-144 20.5,-144 20.5,-144 50.5,-144 50.5,-144 56.5,-144 62.5,-150 62.5,-156 62.5,-156 62.5,-168 62.5,-168 62.5,-174 56.5,-180 50.5,-180"/>
<text text-anchor="middle" x="35.5" y="-158.3" font-family="Times,serif" font-size="14.00">Store</text>
</g>
<!-- ast.Name object at 0x7f2bddf28bb0&#45;&gt;ast.Store object at 0x7f2c0d7edff0 -->
<g id="edge17" class="edge">
<title>ast.Name object at 0x7f2bddf28bb0&#45;&gt;ast.Store object at 0x7f2c0d7edff0</title>
<path fill="none" stroke="black" d="M87.44,-215.7C79,-207.14 68.68,-196.66 59.46,-187.3"/>
<polygon fill="black" stroke="black" points="61.87,-184.77 52.36,-180.1 56.89,-189.68 61.87,-184.77"/>
</g>
<!-- ast.Name object at 0x7f2bddf29c90 -->
<g id="node19" class="node">
<title>ast.Name object at 0x7f2bddf29c90</title>
<path fill="#66cdaa" stroke="black" d="M270.5,-108C270.5,-108 240.5,-108 240.5,-108 234.5,-108 228.5,-102 228.5,-96 228.5,-96 228.5,-84 228.5,-84 228.5,-78 234.5,-72 240.5,-72 240.5,-72 270.5,-72 270.5,-72 276.5,-72 282.5,-78 282.5,-84 282.5,-84 282.5,-96 282.5,-96 282.5,-102 276.5,-108 270.5,-108"/>
<text text-anchor="middle" x="255.5" y="-86.3" font-family="Times,serif" font-size="14.00">Name</text>
</g>
<!-- ast.Call object at 0x7f2bddf2ac50&#45;&gt;ast.Name object at 0x7f2bddf29c90 -->
<g id="edge19" class="edge">
<title>ast.Call object at 0x7f2bddf2ac50&#45;&gt;ast.Name object at 0x7f2bddf29c90</title>
<path fill="none" stroke="black" d="M177.01,-215.79C178.26,-196.97 182.35,-166.51 195.5,-144 202.08,-132.73 211.91,-122.6 221.71,-114.29"/>
<polygon fill="black" stroke="black" points="223.91,-117.01 229.51,-108.02 219.52,-111.56 223.91,-117.01"/>
</g>
<!-- ast.Subscript object at 0x7f2bddf29cc0 -->
<g id="node20" class="node">
<title>ast.Subscript object at 0x7f2bddf29cc0</title>
<path fill="#66cdaa" stroke="black" d="M136.5,-180C136.5,-180 92.5,-180 92.5,-180 86.5,-180 80.5,-174 80.5,-168 80.5,-168 80.5,-156 80.5,-156 80.5,-150 86.5,-144 92.5,-144 92.5,-144 136.5,-144 136.5,-144 142.5,-144 148.5,-150 148.5,-156 148.5,-156 148.5,-168 148.5,-168 148.5,-174 142.5,-180 136.5,-180"/>
<text text-anchor="middle" x="114.5" y="-158.3" font-family="Times,serif" font-size="14.00">Subscript</text>
</g>
<!-- ast.Call object at 0x7f2bddf2ac50&#45;&gt;ast.Subscript object at 0x7f2bddf29cc0 -->
<g id="edge21" class="edge">
<title>ast.Call object at 0x7f2bddf2ac50&#45;&gt;ast.Subscript object at 0x7f2bddf29cc0</title>
<path fill="none" stroke="black" d="M161.17,-215.7C153.74,-207.3 144.68,-197.07 136.52,-187.86"/>
<polygon fill="black" stroke="black" points="138.9,-185.27 129.65,-180.1 133.66,-189.91 138.9,-185.27"/>
</g>
<!-- ast.Name object at 0x7f2bddf29c90&#45;&gt;ast.Load object at 0x7f2c0d7edf90 -->
<g id="edge20" class="edge">
<title>ast.Name object at 0x7f2bddf29c90&#45;&gt;ast.Load object at 0x7f2c0d7edf90</title>
<path fill="none" stroke="black" d="M282.59,-75.83C305.27,-64.81 337.86,-48.97 362.87,-36.81"/>
<polygon fill="black" stroke="black" points="364.58,-39.87 372.05,-32.35 361.52,-33.57 364.58,-39.87"/>
</g>
<!-- ast.Subscript object at 0x7f2bddf29cc0&#45;&gt;ast.Load object at 0x7f2c0d7edf90 -->
<g id="edge27" class="edge">
<title>ast.Subscript object at 0x7f2bddf29cc0&#45;&gt;ast.Load object at 0x7f2c0d7edf90</title>
<path fill="none" stroke="black" d="M137.24,-143.82C150.4,-133.68 167.15,-120.43 181.5,-108 199.08,-92.77 199.34,-83.61 219.5,-72 264.92,-45.85 324.34,-31.64 362.22,-24.68"/>
<polygon fill="black" stroke="black" points="363.07,-28.09 372.31,-22.91 361.85,-21.2 363.07,-28.09"/>
</g>
<!-- ast.Name object at 0x7f2bddf28460 -->
<g id="node21" class="node">
<title>ast.Name object at 0x7f2bddf28460</title>
<path fill="#66cdaa" stroke="black" d="M160.5,-108C160.5,-108 130.5,-108 130.5,-108 124.5,-108 118.5,-102 118.5,-96 118.5,-96 118.5,-84 118.5,-84 118.5,-78 124.5,-72 130.5,-72 130.5,-72 160.5,-72 160.5,-72 166.5,-72 172.5,-78 172.5,-84 172.5,-84 172.5,-96 172.5,-96 172.5,-102 166.5,-108 160.5,-108"/>
<text text-anchor="middle" x="145.5" y="-86.3" font-family="Times,serif" font-size="14.00">Name</text>
</g>
<!-- ast.Subscript object at 0x7f2bddf29cc0&#45;&gt;ast.Name object at 0x7f2bddf28460 -->
<g id="edge22" class="edge">
<title>ast.Subscript object at 0x7f2bddf29cc0&#45;&gt;ast.Name object at 0x7f2bddf28460</title>
<path fill="none" stroke="black" d="M122.16,-143.7C125.69,-135.73 129.96,-126.1 133.87,-117.26"/>
<polygon fill="black" stroke="black" points="137.08,-118.67 137.93,-108.1 130.68,-115.83 137.08,-118.67"/>
</g>
<!-- ast.Slice object at 0x7f2bddf2a440 -->
<g id="node22" class="node">
<title>ast.Slice object at 0x7f2bddf2a440</title>
<path fill="#66cdaa" stroke="black" d="M88.5,-108C88.5,-108 58.5,-108 58.5,-108 52.5,-108 46.5,-102 46.5,-96 46.5,-96 46.5,-84 46.5,-84 46.5,-78 52.5,-72 58.5,-72 58.5,-72 88.5,-72 88.5,-72 94.5,-72 100.5,-78 100.5,-84 100.5,-84 100.5,-96 100.5,-96 100.5,-102 94.5,-108 88.5,-108"/>
<text text-anchor="middle" x="73.5" y="-86.3" font-family="Times,serif" font-size="14.00">Slice</text>
</g>
<!-- ast.Subscript object at 0x7f2bddf29cc0&#45;&gt;ast.Slice object at 0x7f2bddf2a440 -->
<g id="edge24" class="edge">
<title>ast.Subscript object at 0x7f2bddf29cc0&#45;&gt;ast.Slice object at 0x7f2bddf2a440</title>
<path fill="none" stroke="black" d="M104.37,-143.7C99.65,-135.64 93.94,-125.89 88.72,-116.98"/>
<polygon fill="black" stroke="black" points="91.59,-114.96 83.52,-108.1 85.55,-118.5 91.59,-114.96"/>
</g>
<!-- ast.Name object at 0x7f2bddf28460&#45;&gt;ast.Load object at 0x7f2c0d7edf90 -->
<g id="edge23" class="edge">
<title>ast.Name object at 0x7f2bddf28460&#45;&gt;ast.Load object at 0x7f2c0d7edf90</title>
<path fill="none" stroke="black" d="M172.63,-77.09C177.22,-75.26 181.96,-73.5 186.5,-72 247.02,-52.05 319.35,-35.55 362.25,-26.5"/>
<polygon fill="black" stroke="black" points="363.16,-29.89 372.23,-24.42 361.73,-23.04 363.16,-29.89"/>
</g>
<!-- ast.Constant object at 0x7f2bddf2abc0 -->
<g id="node23" class="node">
<title>ast.Constant object at 0x7f2bddf2abc0</title>
<path fill="#66cdaa" stroke="black" d="M53,-36C53,-36 12,-36 12,-36 6,-36 0,-30 0,-24 0,-24 0,-12 0,-12 0,-6 6,0 12,0 12,0 53,0 53,0 59,0 65,-6 65,-12 65,-12 65,-24 65,-24 65,-30 59,-36 53,-36"/>
<text text-anchor="middle" x="32.5" y="-14.3" font-family="Times,serif" font-size="14.00">Constant</text>
</g>
<!-- ast.Slice object at 0x7f2bddf2a440&#45;&gt;ast.Constant object at 0x7f2bddf2abc0 -->
<g id="edge25" class="edge">
<title>ast.Slice object at 0x7f2bddf2a440&#45;&gt;ast.Constant object at 0x7f2bddf2abc0</title>
<path fill="none" stroke="black" d="M63.37,-71.7C58.65,-63.64 52.94,-53.89 47.72,-44.98"/>
<polygon fill="black" stroke="black" points="50.59,-42.96 42.52,-36.1 44.55,-46.5 50.59,-42.96"/>
</g>
<!-- ast.Constant object at 0x7f2bddf2bee0 -->
<g id="node24" class="node">
<title>ast.Constant object at 0x7f2bddf2bee0</title>
<path fill="#66cdaa" stroke="black" d="M136,-36C136,-36 95,-36 95,-36 89,-36 83,-30 83,-24 83,-24 83,-12 83,-12 83,-6 89,0 95,0 95,0 136,0 136,0 142,0 148,-6 148,-12 148,-12 148,-24 148,-24 148,-30 142,-36 136,-36"/>
<text text-anchor="middle" x="115.5" y="-14.3" font-family="Times,serif" font-size="14.00">Constant</text>
</g>
<!-- ast.Slice object at 0x7f2bddf2a440&#45;&gt;ast.Constant object at 0x7f2bddf2bee0 -->
<g id="edge26" class="edge">
<title>ast.Slice object at 0x7f2bddf2a440&#45;&gt;ast.Constant object at 0x7f2bddf2bee0</title>
<path fill="none" stroke="black" d="M83.88,-71.7C88.76,-63.56 94.69,-53.69 100.08,-44.7"/>
<polygon fill="black" stroke="black" points="103.09,-46.48 105.24,-36.1 97.09,-42.88 103.09,-46.48"/>
</g>
<!-- ast.Compare object at 0x7f2bddf2aa70 -->
<g id="node26" class="node">
<title>ast.Compare object at 0x7f2bddf2aa70</title>
<path fill="#66cdaa" stroke="black" d="M355,-252C355,-252 312,-252 312,-252 306,-252 300,-246 300,-240 300,-240 300,-228 300,-228 300,-222 306,-216 312,-216 312,-216 355,-216 355,-216 361,-216 367,-222 367,-228 367,-228 367,-240 367,-240 367,-246 361,-252 355,-252"/>
<text text-anchor="middle" x="333.5" y="-230.3" font-family="Times,serif" font-size="14.00">Compare</text>
</g>
<!-- ast.If object at 0x7f2bddf29c00&#45;&gt;ast.Compare object at 0x7f2bddf2aa70 -->
<g id="edge29" class="edge">
<title>ast.If object at 0x7f2bddf29c00&#45;&gt;ast.Compare object at 0x7f2bddf2aa70</title>
<path fill="none" stroke="black" d="M376.41,-287.7C369.58,-279.3 361.24,-269.07 353.74,-259.86"/>
<polygon fill="black" stroke="black" points="356.46,-257.65 347.43,-252.1 351.03,-262.07 356.46,-257.65"/>
</g>
<!-- ast.Return object at 0x7f2bddf289a0 -->
<g id="node32" class="node">
<title>ast.Return object at 0x7f2bddf289a0</title>
<path fill="#66cdaa" stroke="black" d="M445.5,-252C445.5,-252 415.5,-252 415.5,-252 409.5,-252 403.5,-246 403.5,-240 403.5,-240 403.5,-228 403.5,-228 403.5,-222 409.5,-216 415.5,-216 415.5,-216 445.5,-216 445.5,-216 451.5,-216 457.5,-222 457.5,-228 457.5,-228 457.5,-240 457.5,-240 457.5,-246 451.5,-252 445.5,-252"/>
<text text-anchor="middle" x="430.5" y="-230.3" font-family="Times,serif" font-size="14.00">Return</text>
</g>
<!-- ast.If object at 0x7f2bddf29c00&#45;&gt;ast.Return object at 0x7f2bddf289a0 -->
<g id="edge37" class="edge">
<title>ast.If object at 0x7f2bddf29c00&#45;&gt;ast.Return object at 0x7f2bddf289a0</title>
<path fill="none" stroke="black" d="M400.39,-287.7C404.99,-279.64 410.56,-269.89 415.65,-260.98"/>
<polygon fill="black" stroke="black" points="418.8,-262.52 420.73,-252.1 412.73,-259.05 418.8,-262.52"/>
</g>
<!-- ast.Call object at 0x7f2bddf2bc10 -->
<g id="node27" class="node">
<title>ast.Call object at 0x7f2bddf2bc10</title>
<path fill="#66cdaa" stroke="black" d="M330.5,-180C330.5,-180 300.5,-180 300.5,-180 294.5,-180 288.5,-174 288.5,-168 288.5,-168 288.5,-156 288.5,-156 288.5,-150 294.5,-144 300.5,-144 300.5,-144 330.5,-144 330.5,-144 336.5,-144 342.5,-150 342.5,-156 342.5,-156 342.5,-168 342.5,-168 342.5,-174 336.5,-180 330.5,-180"/>
<text text-anchor="middle" x="315.5" y="-158.3" font-family="Times,serif" font-size="14.00">Call</text>
</g>
<!-- ast.Compare object at 0x7f2bddf2aa70&#45;&gt;ast.Call object at 0x7f2bddf2bc10 -->
<g id="edge30" class="edge">
<title>ast.Compare object at 0x7f2bddf2aa70&#45;&gt;ast.Call object at 0x7f2bddf2bc10</title>
<path fill="none" stroke="black" d="M329.05,-215.7C327.05,-207.9 324.63,-198.51 322.4,-189.83"/>
<polygon fill="black" stroke="black" points="325.78,-188.92 319.9,-180.1 319,-190.66 325.78,-188.92"/>
</g>
<!-- ast.Lt object at 0x7f2c0d7ee980 -->
<g id="node30" class="node">
<title>ast.Lt object at 0x7f2c0d7ee980</title>
<path fill="#66cdaa" stroke="black" d="M402.5,-180C402.5,-180 372.5,-180 372.5,-180 366.5,-180 360.5,-174 360.5,-168 360.5,-168 360.5,-156 360.5,-156 360.5,-150 366.5,-144 372.5,-144 372.5,-144 402.5,-144 402.5,-144 408.5,-144 414.5,-150 414.5,-156 414.5,-156 414.5,-168 414.5,-168 414.5,-174 408.5,-180 402.5,-180"/>
<text text-anchor="middle" x="387.5" y="-158.3" font-family="Times,serif" font-size="14.00">Lt</text>
</g>
<!-- ast.Compare object at 0x7f2bddf2aa70&#45;&gt;ast.Lt object at 0x7f2c0d7ee980 -->
<g id="edge35" class="edge">
<title>ast.Compare object at 0x7f2bddf2aa70&#45;&gt;ast.Lt object at 0x7f2c0d7ee980</title>
<path fill="none" stroke="black" d="M346.85,-215.7C353.26,-207.39 361.06,-197.28 368.11,-188.14"/>
<polygon fill="black" stroke="black" points="370.97,-190.16 374.31,-180.1 365.43,-185.88 370.97,-190.16"/>
</g>
<!-- ast.Constant object at 0x7f2bddf2b130 -->
<g id="node31" class="node">
<title>ast.Constant object at 0x7f2bddf2b130</title>
<path fill="#66cdaa" stroke="black" d="M258,-180C258,-180 217,-180 217,-180 211,-180 205,-174 205,-168 205,-168 205,-156 205,-156 205,-150 211,-144 217,-144 217,-144 258,-144 258,-144 264,-144 270,-150 270,-156 270,-156 270,-168 270,-168 270,-174 264,-180 258,-180"/>
<text text-anchor="middle" x="237.5" y="-158.3" font-family="Times,serif" font-size="14.00">Constant</text>
</g>
<!-- ast.Compare object at 0x7f2bddf2aa70&#45;&gt;ast.Constant object at 0x7f2bddf2b130 -->
<g id="edge36" class="edge">
<title>ast.Compare object at 0x7f2bddf2aa70&#45;&gt;ast.Constant object at 0x7f2bddf2b130</title>
<path fill="none" stroke="black" d="M309.77,-215.7C297.56,-206.8 282.51,-195.82 269.32,-186.2"/>
<polygon fill="black" stroke="black" points="271.1,-183.17 260.96,-180.1 266.98,-188.82 271.1,-183.17"/>
</g>
<!-- ast.Name object at 0x7f2bddf2b310 -->
<g id="node28" class="node">
<title>ast.Name object at 0x7f2bddf2b310</title>
<path fill="#66cdaa" stroke="black" d="M414.5,-108C414.5,-108 384.5,-108 384.5,-108 378.5,-108 372.5,-102 372.5,-96 372.5,-96 372.5,-84 372.5,-84 372.5,-78 378.5,-72 384.5,-72 384.5,-72 414.5,-72 414.5,-72 420.5,-72 426.5,-78 426.5,-84 426.5,-84 426.5,-96 426.5,-96 426.5,-102 420.5,-108 414.5,-108"/>
<text text-anchor="middle" x="399.5" y="-86.3" font-family="Times,serif" font-size="14.00">Name</text>
</g>
<!-- ast.Call object at 0x7f2bddf2bc10&#45;&gt;ast.Name object at 0x7f2bddf2b310 -->
<g id="edge31" class="edge">
<title>ast.Call object at 0x7f2bddf2bc10&#45;&gt;ast.Name object at 0x7f2bddf2b310</title>
<path fill="none" stroke="black" d="M336.26,-143.7C346.74,-134.97 359.61,-124.24 371,-114.75"/>
<polygon fill="black" stroke="black" points="373.53,-117.19 378.97,-108.1 369.05,-111.82 373.53,-117.19"/>
</g>
<!-- ast.Name object at 0x7f2bddf2a860 -->
<g id="node29" class="node">
<title>ast.Name object at 0x7f2bddf2a860</title>
<path fill="#66cdaa" stroke="black" d="M342.5,-108C342.5,-108 312.5,-108 312.5,-108 306.5,-108 300.5,-102 300.5,-96 300.5,-96 300.5,-84 300.5,-84 300.5,-78 306.5,-72 312.5,-72 312.5,-72 342.5,-72 342.5,-72 348.5,-72 354.5,-78 354.5,-84 354.5,-84 354.5,-96 354.5,-96 354.5,-102 348.5,-108 342.5,-108"/>
<text text-anchor="middle" x="327.5" y="-86.3" font-family="Times,serif" font-size="14.00">Name</text>
</g>
<!-- ast.Call object at 0x7f2bddf2bc10&#45;&gt;ast.Name object at 0x7f2bddf2a860 -->
<g id="edge33" class="edge">
<title>ast.Call object at 0x7f2bddf2bc10&#45;&gt;ast.Name object at 0x7f2bddf2a860</title>
<path fill="none" stroke="black" d="M318.47,-143.7C319.79,-135.98 321.38,-126.71 322.85,-118.11"/>
<polygon fill="black" stroke="black" points="326.33,-118.55 324.57,-108.1 319.43,-117.37 326.33,-118.55"/>
</g>
<!-- ast.Name object at 0x7f2bddf2b310&#45;&gt;ast.Load object at 0x7f2c0d7edf90 -->
<g id="edge32" class="edge">
<title>ast.Name object at 0x7f2bddf2b310&#45;&gt;ast.Load object at 0x7f2c0d7edf90</title>
<path fill="none" stroke="black" d="M399.5,-71.7C399.5,-63.98 399.5,-54.71 399.5,-46.11"/>
<polygon fill="black" stroke="black" points="403,-46.1 399.5,-36.1 396,-46.1 403,-46.1"/>
</g>
<!-- ast.Name object at 0x7f2bddf2a860&#45;&gt;ast.Load object at 0x7f2c0d7edf90 -->
<g id="edge34" class="edge">
<title>ast.Name object at 0x7f2bddf2a860&#45;&gt;ast.Load object at 0x7f2c0d7edf90</title>
<path fill="none" stroke="black" d="M345.3,-71.7C354.1,-63.14 364.88,-52.66 374.5,-43.3"/>
<polygon fill="black" stroke="black" points="377.18,-45.58 381.91,-36.1 372.3,-40.57 377.18,-45.58"/>
</g>
<!-- ast.Constant object at 0x7f2bddf2a500 -->
<g id="node33" class="node">
<title>ast.Constant object at 0x7f2bddf2a500</title>
<path fill="#66cdaa" stroke="black" d="M486,-180C486,-180 445,-180 445,-180 439,-180 433,-174 433,-168 433,-168 433,-156 433,-156 433,-150 439,-144 445,-144 445,-144 486,-144 486,-144 492,-144 498,-150 498,-156 498,-156 498,-168 498,-168 498,-174 492,-180 486,-180"/>
<text text-anchor="middle" x="465.5" y="-158.3" font-family="Times,serif" font-size="14.00">Constant</text>
</g>
<!-- ast.Return object at 0x7f2bddf289a0&#45;&gt;ast.Constant object at 0x7f2bddf2a500 -->
<g id="edge38" class="edge">
<title>ast.Return object at 0x7f2bddf289a0&#45;&gt;ast.Constant object at 0x7f2bddf2a500</title>
<path fill="none" stroke="black" d="M439.15,-215.7C443.14,-207.73 447.95,-198.1 452.37,-189.26"/>
<polygon fill="black" stroke="black" points="455.61,-190.61 456.95,-180.1 449.35,-187.48 455.61,-190.61"/>
</g>
<!-- ast.Subscript object at 0x7f2bddf28d60 -->
<g id="node35" class="node">
<title>ast.Subscript object at 0x7f2bddf28d60</title>
<path fill="#66cdaa" stroke="black" d="M883.5,-180C883.5,-180 839.5,-180 839.5,-180 833.5,-180 827.5,-174 827.5,-168 827.5,-168 827.5,-156 827.5,-156 827.5,-150 833.5,-144 839.5,-144 839.5,-144 883.5,-144 883.5,-144 889.5,-144 895.5,-150 895.5,-156 895.5,-156 895.5,-168 895.5,-168 895.5,-174 889.5,-180 883.5,-180"/>
<text text-anchor="middle" x="861.5" y="-158.3" font-family="Times,serif" font-size="14.00">Subscript</text>
</g>
<!-- ast.Return object at 0x7f2bddf28b80&#45;&gt;ast.Subscript object at 0x7f2bddf28d60 -->
<g id="edge40" class="edge">
<title>ast.Return object at 0x7f2bddf28b80&#45;&gt;ast.Subscript object at 0x7f2bddf28d60</title>
<path fill="none" stroke="black" d="M679.47,-287.87C716.61,-262.39 786.49,-214.45 828.03,-185.96"/>
<polygon fill="black" stroke="black" points="830.18,-188.73 836.44,-180.19 826.22,-182.96 830.18,-188.73"/>
</g>
<!-- ast.Subscript object at 0x7f2bddf28d60&#45;&gt;ast.Load object at 0x7f2c0d7edf90 -->
<g id="edge44" class="edge">
<title>ast.Subscript object at 0x7f2bddf28d60&#45;&gt;ast.Load object at 0x7f2c0d7edf90</title>
<path fill="none" stroke="black" d="M849.43,-143.66C832.81,-120.31 803.14,-80.68 787.5,-72 727.64,-38.79 521.85,-25.03 436.77,-20.67"/>
<polygon fill="black" stroke="black" points="436.7,-17.17 426.53,-20.16 436.35,-24.16 436.7,-17.17"/>
</g>
<!-- ast.Name object at 0x7f2bddf2ae90 -->
<g id="node36" class="node">
<title>ast.Name object at 0x7f2bddf2ae90</title>
<path fill="#66cdaa" stroke="black" d="M876.5,-108C876.5,-108 846.5,-108 846.5,-108 840.5,-108 834.5,-102 834.5,-96 834.5,-96 834.5,-84 834.5,-84 834.5,-78 840.5,-72 846.5,-72 846.5,-72 876.5,-72 876.5,-72 882.5,-72 888.5,-78 888.5,-84 888.5,-84 888.5,-96 888.5,-96 888.5,-102 882.5,-108 876.5,-108"/>
<text text-anchor="middle" x="861.5" y="-86.3" font-family="Times,serif" font-size="14.00">Name</text>
</g>
<!-- ast.Subscript object at 0x7f2bddf28d60&#45;&gt;ast.Name object at 0x7f2bddf2ae90 -->
<g id="edge41" class="edge">
<title>ast.Subscript object at 0x7f2bddf28d60&#45;&gt;ast.Name object at 0x7f2bddf2ae90</title>
<path fill="none" stroke="black" d="M861.5,-143.7C861.5,-135.98 861.5,-126.71 861.5,-118.11"/>
<polygon fill="black" stroke="black" points="865,-118.1 861.5,-108.1 858,-118.1 865,-118.1"/>
</g>
<!-- ast.Constant object at 0x7f2bddf2a620 -->
<g id="node37" class="node">
<title>ast.Constant object at 0x7f2bddf2a620</title>
<path fill="#66cdaa" stroke="black" d="M766,-108C766,-108 725,-108 725,-108 719,-108 713,-102 713,-96 713,-96 713,-84 713,-84 713,-78 719,-72 725,-72 725,-72 766,-72 766,-72 772,-72 778,-78 778,-84 778,-84 778,-96 778,-96 778,-102 772,-108 766,-108"/>
<text text-anchor="middle" x="745.5" y="-86.3" font-family="Times,serif" font-size="14.00">Constant</text>
</g>
<!-- ast.Subscript object at 0x7f2bddf28d60&#45;&gt;ast.Constant object at 0x7f2bddf2a620 -->
<g id="edge43" class="edge">
<title>ast.Subscript object at 0x7f2bddf28d60&#45;&gt;ast.Constant object at 0x7f2bddf2a620</title>
<path fill="none" stroke="black" d="M833.12,-143.88C817.96,-134.72 799.09,-123.34 782.76,-113.48"/>
<polygon fill="black" stroke="black" points="784.36,-110.36 773.99,-108.19 780.74,-116.35 784.36,-110.36"/>
</g>
<!-- ast.Name object at 0x7f2bddf2ae90&#45;&gt;ast.Load object at 0x7f2c0d7edf90 -->
<g id="edge42" class="edge">
<title>ast.Name object at 0x7f2bddf2ae90&#45;&gt;ast.Load object at 0x7f2c0d7edf90</title>
<path fill="none" stroke="black" d="M834.06,-76.45C829.6,-74.75 824.97,-73.18 820.5,-72 682.05,-35.3 511.05,-23.77 436.81,-20.35"/>
<polygon fill="black" stroke="black" points="436.72,-16.85 426.57,-19.91 436.41,-23.84 436.72,-16.85"/>
</g>
</g>
</svg>
