<?xml version="1.0" encoding="UTF-8" standalone="no"?>
<!DOCTYPE svg PUBLIC "-//W3C//DTD SVG 1.1//EN"
 "http://www.w3.org/Graphics/SVG/1.1/DTD/svg11.dtd">
<!-- Generated by graphviz version 2.43.0 (0)
 -->
<!-- Title: %3 Pages: 1 -->
<svg width="673pt" height="476pt"
 viewBox="0.00 0.00 673.00 476.00" xmlns="http://www.w3.org/2000/svg" xmlns:xlink="http://www.w3.org/1999/xlink">
<g id="graph0" class="graph" transform="scale(1 1) rotate(0) translate(4 472)">
<title>%3</title>
<polygon fill="white" stroke="transparent" points="-4,4 -4,-472 669,-472 669,4 -4,4"/>
<!-- ast.Module object at 0x7f5036fada80 -->
<g id="node1" class="node">
<title>ast.Module object at 0x7f5036fada80</title>
<path fill="#66cdaa" stroke="black" d="M235.5,-468C235.5,-468 200.5,-468 200.5,-468 194.5,-468 188.5,-462 188.5,-456 188.5,-456 188.5,-444 188.5,-444 188.5,-438 194.5,-432 200.5,-432 200.5,-432 235.5,-432 235.5,-432 241.5,-432 247.5,-438 247.5,-444 247.5,-444 247.5,-456 247.5,-456 247.5,-462 241.5,-468 235.5,-468"/>
<text text-anchor="middle" x="218" y="-446.3" font-family="Times,serif" font-size="14.00">Module</text>
</g>
<!-- ast.FunctionDef object at 0x7f5036fad5a0 -->
<g id="node2" class="node">
<title>ast.FunctionDef object at 0x7f5036fad5a0</title>
<path fill="#66cdaa" stroke="black" d="M248.5,-396C248.5,-396 187.5,-396 187.5,-396 181.5,-396 175.5,-390 175.5,-384 175.5,-384 175.5,-372 175.5,-372 175.5,-366 181.5,-360 187.5,-360 187.5,-360 248.5,-360 248.5,-360 254.5,-360 260.5,-366 260.5,-372 260.5,-372 260.5,-384 260.5,-384 260.5,-390 254.5,-396 248.5,-396"/>
<text text-anchor="middle" x="218" y="-374.3" font-family="Times,serif" font-size="14.00">FunctionDef</text>
</g>
<!-- ast.Module object at 0x7f5036fada80&#45;&gt;ast.FunctionDef object at 0x7f5036fad5a0 -->
<g id="edge1" class="edge">
<title>ast.Module object at 0x7f5036fada80&#45;&gt;ast.FunctionDef object at 0x7f5036fad5a0</title>
<path fill="none" stroke="black" d="M218,-431.7C218,-423.98 218,-414.71 218,-406.11"/>
<polygon fill="black" stroke="black" points="221.5,-406.1 218,-396.1 214.5,-406.1 221.5,-406.1"/>
</g>
<!-- ast.arguments object at 0x7f5036facbb0 -->
<g id="node3" class="node">
<title>ast.arguments object at 0x7f5036facbb0</title>
<path fill="#66cdaa" stroke="black" d="M111,-324C111,-324 61,-324 61,-324 55,-324 49,-318 49,-312 49,-312 49,-300 49,-300 49,-294 55,-288 61,-288 61,-288 111,-288 111,-288 117,-288 123,-294 123,-300 123,-300 123,-312 123,-312 123,-318 117,-324 111,-324"/>
<text text-anchor="middle" x="86" y="-302.3" font-family="Times,serif" font-size="14.00">arguments</text>
</g>
<!-- ast.FunctionDef object at 0x7f5036fad5a0&#45;&gt;ast.arguments object at 0x7f5036facbb0 -->
<g id="edge2" class="edge">
<title>ast.FunctionDef object at 0x7f5036fad5a0&#45;&gt;ast.arguments object at 0x7f5036facbb0</title>
<path fill="none" stroke="black" d="M185.71,-359.88C168.13,-350.55 146.19,-338.92 127.37,-328.94"/>
<polygon fill="black" stroke="black" points="128.89,-325.78 118.41,-324.19 125.61,-331.97 128.89,-325.78"/>
</g>
<!-- ast.Assign object at 0x7f5036fadae0 -->
<g id="node5" class="node">
<title>ast.Assign object at 0x7f5036fadae0</title>
<path fill="#66cdaa" stroke="black" d="M197,-324C197,-324 167,-324 167,-324 161,-324 155,-318 155,-312 155,-312 155,-300 155,-300 155,-294 161,-288 167,-288 167,-288 197,-288 197,-288 203,-288 209,-294 209,-300 209,-300 209,-312 209,-312 209,-318 203,-324 197,-324"/>
<text text-anchor="middle" x="182" y="-302.3" font-family="Times,serif" font-size="14.00">Assign</text>
</g>
<!-- ast.FunctionDef object at 0x7f5036fad5a0&#45;&gt;ast.Assign object at 0x7f5036fadae0 -->
<g id="edge4" class="edge">
<title>ast.FunctionDef object at 0x7f5036fad5a0&#45;&gt;ast.Assign object at 0x7f5036fadae0</title>
<path fill="none" stroke="black" d="M209.1,-359.7C205,-351.73 200.05,-342.1 195.51,-333.26"/>
<polygon fill="black" stroke="black" points="198.48,-331.4 190.8,-324.1 192.26,-334.6 198.48,-331.4"/>
</g>
<!-- ast.Assign object at 0x7f5036facbe0 -->
<g id="node13" class="node">
<title>ast.Assign object at 0x7f5036facbe0</title>
<path fill="#66cdaa" stroke="black" d="M269,-324C269,-324 239,-324 239,-324 233,-324 227,-318 227,-312 227,-312 227,-300 227,-300 227,-294 233,-288 239,-288 239,-288 269,-288 269,-288 275,-288 281,-294 281,-300 281,-300 281,-312 281,-312 281,-318 275,-324 269,-324"/>
<text text-anchor="middle" x="254" y="-302.3" font-family="Times,serif" font-size="14.00">Assign</text>
</g>
<!-- ast.FunctionDef object at 0x7f5036fad5a0&#45;&gt;ast.Assign object at 0x7f5036facbe0 -->
<g id="edge13" class="edge">
<title>ast.FunctionDef object at 0x7f5036fad5a0&#45;&gt;ast.Assign object at 0x7f5036facbe0</title>
<path fill="none" stroke="black" d="M226.9,-359.7C231,-351.73 235.95,-342.1 240.49,-333.26"/>
<polygon fill="black" stroke="black" points="243.74,-334.6 245.2,-324.1 237.52,-331.4 243.74,-334.6"/>
</g>
<!-- ast.Return object at 0x7f5036fadbd0 -->
<g id="node22" class="node">
<title>ast.Return object at 0x7f5036fadbd0</title>
<path fill="#66cdaa" stroke="black" d="M422,-324C422,-324 392,-324 392,-324 386,-324 380,-318 380,-312 380,-312 380,-300 380,-300 380,-294 386,-288 392,-288 392,-288 422,-288 422,-288 428,-288 434,-294 434,-300 434,-300 434,-312 434,-312 434,-318 428,-324 422,-324"/>
<text text-anchor="middle" x="407" y="-302.3" font-family="Times,serif" font-size="14.00">Return</text>
</g>
<!-- ast.FunctionDef object at 0x7f5036fad5a0&#45;&gt;ast.Return object at 0x7f5036fadbd0 -->
<g id="edge23" class="edge">
<title>ast.FunctionDef object at 0x7f5036fad5a0&#45;&gt;ast.Return object at 0x7f5036fadbd0</title>
<path fill="none" stroke="black" d="M260.89,-361.12C293.81,-348.92 338.79,-332.26 370.11,-320.66"/>
<polygon fill="black" stroke="black" points="371.61,-323.84 379.77,-317.09 369.18,-317.28 371.61,-323.84"/>
</g>
<!-- ast.arg object at 0x7f5036fad420 -->
<g id="node4" class="node">
<title>ast.arg object at 0x7f5036fad420</title>
<path fill="#66cdaa" stroke="black" d="M87,-252C87,-252 57,-252 57,-252 51,-252 45,-246 45,-240 45,-240 45,-228 45,-228 45,-222 51,-216 57,-216 57,-216 87,-216 87,-216 93,-216 99,-222 99,-228 99,-228 99,-240 99,-240 99,-246 93,-252 87,-252"/>
<text text-anchor="middle" x="72" y="-230.3" font-family="Times,serif" font-size="14.00">arg</text>
</g>
<!-- ast.arguments object at 0x7f5036facbb0&#45;&gt;ast.arg object at 0x7f5036fad420 -->
<g id="edge3" class="edge">
<title>ast.arguments object at 0x7f5036facbb0&#45;&gt;ast.arg object at 0x7f5036fad420</title>
<path fill="none" stroke="black" d="M82.54,-287.7C81,-279.98 79.14,-270.71 77.42,-262.11"/>
<polygon fill="black" stroke="black" points="80.81,-261.22 75.42,-252.1 73.95,-262.6 80.81,-261.22"/>
</g>
<!-- ast.Name object at 0x7f5036fad900 -->
<g id="node6" class="node">
<title>ast.Name object at 0x7f5036fad900</title>
<path fill="#66cdaa" stroke="black" d="M197,-252C197,-252 167,-252 167,-252 161,-252 155,-246 155,-240 155,-240 155,-228 155,-228 155,-222 161,-216 167,-216 167,-216 197,-216 197,-216 203,-216 209,-222 209,-228 209,-228 209,-240 209,-240 209,-246 203,-252 197,-252"/>
<text text-anchor="middle" x="182" y="-230.3" font-family="Times,serif" font-size="14.00">Name</text>
</g>
<!-- ast.Assign object at 0x7f5036fadae0&#45;&gt;ast.Name object at 0x7f5036fad900 -->
<g id="edge5" class="edge">
<title>ast.Assign object at 0x7f5036fadae0&#45;&gt;ast.Name object at 0x7f5036fad900</title>
<path fill="none" stroke="black" d="M182,-287.7C182,-279.98 182,-270.71 182,-262.11"/>
<polygon fill="black" stroke="black" points="185.5,-262.1 182,-252.1 178.5,-262.1 185.5,-262.1"/>
</g>
<!-- ast.Call object at 0x7f5036fad360 -->
<g id="node8" class="node">
<title>ast.Call object at 0x7f5036fad360</title>
<path fill="#66cdaa" stroke="black" d="M120,-180C120,-180 90,-180 90,-180 84,-180 78,-174 78,-168 78,-168 78,-156 78,-156 78,-150 84,-144 90,-144 90,-144 120,-144 120,-144 126,-144 132,-150 132,-156 132,-156 132,-168 132,-168 132,-174 126,-180 120,-180"/>
<text text-anchor="middle" x="105" y="-158.3" font-family="Times,serif" font-size="14.00">Call</text>
</g>
<!-- ast.Assign object at 0x7f5036fadae0&#45;&gt;ast.Call object at 0x7f5036fad360 -->
<g id="edge7" class="edge">
<title>ast.Assign object at 0x7f5036fadae0&#45;&gt;ast.Call object at 0x7f5036fad360</title>
<path fill="none" stroke="black" d="M169.25,-287.8C162,-277.65 153,-264.4 146,-252 134.49,-231.63 123.52,-207.46 115.82,-189.45"/>
<polygon fill="black" stroke="black" points="119.01,-188 111.9,-180.14 112.56,-190.72 119.01,-188"/>
</g>
<!-- ast.Store object at 0x7f503aaf5fc0 -->
<g id="node7" class="node">
<title>ast.Store object at 0x7f503aaf5fc0</title>
<path fill="#66cdaa" stroke="black" d="M197,-180C197,-180 167,-180 167,-180 161,-180 155,-174 155,-168 155,-168 155,-156 155,-156 155,-150 161,-144 167,-144 167,-144 197,-144 197,-144 203,-144 209,-150 209,-156 209,-156 209,-168 209,-168 209,-174 203,-180 197,-180"/>
<text text-anchor="middle" x="182" y="-158.3" font-family="Times,serif" font-size="14.00">Store</text>
</g>
<!-- ast.Name object at 0x7f5036fad900&#45;&gt;ast.Store object at 0x7f503aaf5fc0 -->
<g id="edge6" class="edge">
<title>ast.Name object at 0x7f5036fad900&#45;&gt;ast.Store object at 0x7f503aaf5fc0</title>
<path fill="none" stroke="black" d="M182,-215.7C182,-207.98 182,-198.71 182,-190.11"/>
<polygon fill="black" stroke="black" points="185.5,-190.1 182,-180.1 178.5,-190.1 185.5,-190.1"/>
</g>
<!-- ast.Name object at 0x7f5036fad330 -->
<g id="node9" class="node">
<title>ast.Name object at 0x7f5036fad330</title>
<path fill="#66cdaa" stroke="black" d="M42,-108C42,-108 12,-108 12,-108 6,-108 0,-102 0,-96 0,-96 0,-84 0,-84 0,-78 6,-72 12,-72 12,-72 42,-72 42,-72 48,-72 54,-78 54,-84 54,-84 54,-96 54,-96 54,-102 48,-108 42,-108"/>
<text text-anchor="middle" x="27" y="-86.3" font-family="Times,serif" font-size="14.00">Name</text>
</g>
<!-- ast.Call object at 0x7f5036fad360&#45;&gt;ast.Name object at 0x7f5036fad330 -->
<g id="edge8" class="edge">
<title>ast.Call object at 0x7f5036fad360&#45;&gt;ast.Name object at 0x7f5036fad330</title>
<path fill="none" stroke="black" d="M85.72,-143.7C76.08,-135.05 64.27,-124.45 53.77,-115.03"/>
<polygon fill="black" stroke="black" points="55.84,-112.18 46.06,-108.1 51.16,-117.39 55.84,-112.18"/>
</g>
<!-- ast.Name object at 0x7f5036fada20 -->
<g id="node11" class="node">
<title>ast.Name object at 0x7f5036fada20</title>
<path fill="#66cdaa" stroke="black" d="M114,-108C114,-108 84,-108 84,-108 78,-108 72,-102 72,-96 72,-96 72,-84 72,-84 72,-78 78,-72 84,-72 84,-72 114,-72 114,-72 120,-72 126,-78 126,-84 126,-84 126,-96 126,-96 126,-102 120,-108 114,-108"/>
<text text-anchor="middle" x="99" y="-86.3" font-family="Times,serif" font-size="14.00">Name</text>
</g>
<!-- ast.Call object at 0x7f5036fad360&#45;&gt;ast.Name object at 0x7f5036fada20 -->
<g id="edge10" class="edge">
<title>ast.Call object at 0x7f5036fad360&#45;&gt;ast.Name object at 0x7f5036fada20</title>
<path fill="none" stroke="black" d="M103.52,-143.7C102.86,-135.98 102.06,-126.71 101.32,-118.11"/>
<polygon fill="black" stroke="black" points="104.81,-117.77 100.47,-108.1 97.83,-118.37 104.81,-117.77"/>
</g>
<!-- ast.Constant object at 0x7f5036faceb0 -->
<g id="node12" class="node">
<title>ast.Constant object at 0x7f5036faceb0</title>
<path fill="#66cdaa" stroke="black" d="M197.5,-108C197.5,-108 156.5,-108 156.5,-108 150.5,-108 144.5,-102 144.5,-96 144.5,-96 144.5,-84 144.5,-84 144.5,-78 150.5,-72 156.5,-72 156.5,-72 197.5,-72 197.5,-72 203.5,-72 209.5,-78 209.5,-84 209.5,-84 209.5,-96 209.5,-96 209.5,-102 203.5,-108 197.5,-108"/>
<text text-anchor="middle" x="177" y="-86.3" font-family="Times,serif" font-size="14.00">Constant</text>
</g>
<!-- ast.Call object at 0x7f5036fad360&#45;&gt;ast.Constant object at 0x7f5036faceb0 -->
<g id="edge12" class="edge">
<title>ast.Call object at 0x7f5036fad360&#45;&gt;ast.Constant object at 0x7f5036faceb0</title>
<path fill="none" stroke="black" d="M122.8,-143.7C131.6,-135.14 142.38,-124.66 152,-115.3"/>
<polygon fill="black" stroke="black" points="154.68,-117.58 159.41,-108.1 149.8,-112.57 154.68,-117.58"/>
</g>
<!-- ast.Load object at 0x7f503aaf5f60 -->
<g id="node10" class="node">
<title>ast.Load object at 0x7f503aaf5f60</title>
<path fill="#66cdaa" stroke="black" d="M311,-36C311,-36 281,-36 281,-36 275,-36 269,-30 269,-24 269,-24 269,-12 269,-12 269,-6 275,0 281,0 281,0 311,0 311,0 317,0 323,-6 323,-12 323,-12 323,-24 323,-24 323,-30 317,-36 311,-36"/>
<text text-anchor="middle" x="296" y="-14.3" font-family="Times,serif" font-size="14.00">Load</text>
</g>
<!-- ast.Name object at 0x7f5036fad330&#45;&gt;ast.Load object at 0x7f503aaf5f60 -->
<g id="edge9" class="edge">
<title>ast.Name object at 0x7f5036fad330&#45;&gt;ast.Load object at 0x7f503aaf5f60</title>
<path fill="none" stroke="black" d="M54.26,-75.38C57.18,-74.15 60.13,-72.99 63,-72 130.44,-48.72 212.43,-32.8 258.98,-24.85"/>
<polygon fill="black" stroke="black" points="259.63,-28.29 268.91,-23.19 258.47,-21.39 259.63,-28.29"/>
</g>
<!-- ast.Name object at 0x7f5036fada20&#45;&gt;ast.Load object at 0x7f503aaf5f60 -->
<g id="edge11" class="edge">
<title>ast.Name object at 0x7f5036fada20&#45;&gt;ast.Load object at 0x7f503aaf5f60</title>
<path fill="none" stroke="black" d="M126.36,-75.65C129.26,-74.37 132.18,-73.13 135,-72 176.86,-55.3 226.26,-39.61 259.19,-29.7"/>
<polygon fill="black" stroke="black" points="260.28,-33.03 268.86,-26.82 258.28,-26.32 260.28,-33.03"/>
</g>
<!-- ast.Name object at 0x7f5036fad990 -->
<g id="node14" class="node">
<title>ast.Name object at 0x7f5036fad990</title>
<path fill="#66cdaa" stroke="black" d="M269,-252C269,-252 239,-252 239,-252 233,-252 227,-246 227,-240 227,-240 227,-228 227,-228 227,-222 233,-216 239,-216 239,-216 269,-216 269,-216 275,-216 281,-222 281,-228 281,-228 281,-240 281,-240 281,-246 275,-252 269,-252"/>
<text text-anchor="middle" x="254" y="-230.3" font-family="Times,serif" font-size="14.00">Name</text>
</g>
<!-- ast.Assign object at 0x7f5036facbe0&#45;&gt;ast.Name object at 0x7f5036fad990 -->
<g id="edge14" class="edge">
<title>ast.Assign object at 0x7f5036facbe0&#45;&gt;ast.Name object at 0x7f5036fad990</title>
<path fill="none" stroke="black" d="M254,-287.7C254,-279.98 254,-270.71 254,-262.11"/>
<polygon fill="black" stroke="black" points="257.5,-262.1 254,-252.1 250.5,-262.1 257.5,-262.1"/>
</g>
<!-- ast.BinOp object at 0x7f5036fada50 -->
<g id="node15" class="node">
<title>ast.BinOp object at 0x7f5036fada50</title>
<path fill="#66cdaa" stroke="black" d="M347,-252C347,-252 317,-252 317,-252 311,-252 305,-246 305,-240 305,-240 305,-228 305,-228 305,-222 311,-216 317,-216 317,-216 347,-216 347,-216 353,-216 359,-222 359,-228 359,-228 359,-240 359,-240 359,-246 353,-252 347,-252"/>
<text text-anchor="middle" x="332" y="-230.3" font-family="Times,serif" font-size="14.00">BinOp</text>
</g>
<!-- ast.Assign object at 0x7f5036facbe0&#45;&gt;ast.BinOp object at 0x7f5036fada50 -->
<g id="edge16" class="edge">
<title>ast.Assign object at 0x7f5036facbe0&#45;&gt;ast.BinOp object at 0x7f5036fada50</title>
<path fill="none" stroke="black" d="M273.28,-287.7C282.92,-279.05 294.73,-268.45 305.23,-259.03"/>
<polygon fill="black" stroke="black" points="307.84,-261.39 312.94,-252.1 303.16,-256.18 307.84,-261.39"/>
</g>
<!-- ast.Name object at 0x7f5036fad990&#45;&gt;ast.Store object at 0x7f503aaf5fc0 -->
<g id="edge15" class="edge">
<title>ast.Name object at 0x7f5036fad990&#45;&gt;ast.Store object at 0x7f503aaf5fc0</title>
<path fill="none" stroke="black" d="M236.2,-215.7C227.4,-207.14 216.62,-196.66 207,-187.3"/>
<polygon fill="black" stroke="black" points="209.2,-184.57 199.59,-180.1 204.32,-189.58 209.2,-184.57"/>
</g>
<!-- ast.BinOp object at 0x7f5036fad210 -->
<g id="node16" class="node">
<title>ast.BinOp object at 0x7f5036fad210</title>
<path fill="#66cdaa" stroke="black" d="M353,-180C353,-180 323,-180 323,-180 317,-180 311,-174 311,-168 311,-168 311,-156 311,-156 311,-150 317,-144 323,-144 323,-144 353,-144 353,-144 359,-144 365,-150 365,-156 365,-156 365,-168 365,-168 365,-174 359,-180 353,-180"/>
<text text-anchor="middle" x="338" y="-158.3" font-family="Times,serif" font-size="14.00">BinOp</text>
</g>
<!-- ast.BinOp object at 0x7f5036fada50&#45;&gt;ast.BinOp object at 0x7f5036fad210 -->
<g id="edge17" class="edge">
<title>ast.BinOp object at 0x7f5036fada50&#45;&gt;ast.BinOp object at 0x7f5036fad210</title>
<path fill="none" stroke="black" d="M333.48,-215.7C334.14,-207.98 334.94,-198.71 335.68,-190.11"/>
<polygon fill="black" stroke="black" points="339.17,-190.37 336.53,-180.1 332.19,-189.77 339.17,-190.37"/>
</g>
<!-- ast.Sub object at 0x7f503aaf6200 -->
<g id="node20" class="node">
<title>ast.Sub object at 0x7f503aaf6200</title>
<path fill="#66cdaa" stroke="black" d="M425,-180C425,-180 395,-180 395,-180 389,-180 383,-174 383,-168 383,-168 383,-156 383,-156 383,-150 389,-144 395,-144 395,-144 425,-144 425,-144 431,-144 437,-150 437,-156 437,-156 437,-168 437,-168 437,-174 431,-180 425,-180"/>
<text text-anchor="middle" x="410" y="-158.3" font-family="Times,serif" font-size="14.00">Sub</text>
</g>
<!-- ast.BinOp object at 0x7f5036fada50&#45;&gt;ast.Sub object at 0x7f503aaf6200 -->
<g id="edge21" class="edge">
<title>ast.BinOp object at 0x7f5036fada50&#45;&gt;ast.Sub object at 0x7f503aaf6200</title>
<path fill="none" stroke="black" d="M351.28,-215.7C360.92,-207.05 372.73,-196.45 383.23,-187.03"/>
<polygon fill="black" stroke="black" points="385.84,-189.39 390.94,-180.1 381.16,-184.18 385.84,-189.39"/>
</g>
<!-- ast.Constant object at 0x7f5036facd60 -->
<g id="node21" class="node">
<title>ast.Constant object at 0x7f5036facd60</title>
<path fill="#66cdaa" stroke="black" d="M280.5,-180C280.5,-180 239.5,-180 239.5,-180 233.5,-180 227.5,-174 227.5,-168 227.5,-168 227.5,-156 227.5,-156 227.5,-150 233.5,-144 239.5,-144 239.5,-144 280.5,-144 280.5,-144 286.5,-144 292.5,-150 292.5,-156 292.5,-156 292.5,-168 292.5,-168 292.5,-174 286.5,-180 280.5,-180"/>
<text text-anchor="middle" x="260" y="-158.3" font-family="Times,serif" font-size="14.00">Constant</text>
</g>
<!-- ast.BinOp object at 0x7f5036fada50&#45;&gt;ast.Constant object at 0x7f5036facd60 -->
<g id="edge22" class="edge">
<title>ast.BinOp object at 0x7f5036fada50&#45;&gt;ast.Constant object at 0x7f5036facd60</title>
<path fill="none" stroke="black" d="M314.2,-215.7C305.4,-207.14 294.62,-196.66 285,-187.3"/>
<polygon fill="black" stroke="black" points="287.2,-184.57 277.59,-180.1 282.32,-189.58 287.2,-184.57"/>
</g>
<!-- ast.Constant object at 0x7f5036face20 -->
<g id="node17" class="node">
<title>ast.Constant object at 0x7f5036face20</title>
<path fill="#66cdaa" stroke="black" d="M280.5,-108C280.5,-108 239.5,-108 239.5,-108 233.5,-108 227.5,-102 227.5,-96 227.5,-96 227.5,-84 227.5,-84 227.5,-78 233.5,-72 239.5,-72 239.5,-72 280.5,-72 280.5,-72 286.5,-72 292.5,-78 292.5,-84 292.5,-84 292.5,-96 292.5,-96 292.5,-102 286.5,-108 280.5,-108"/>
<text text-anchor="middle" x="260" y="-86.3" font-family="Times,serif" font-size="14.00">Constant</text>
</g>
<!-- ast.BinOp object at 0x7f5036fad210&#45;&gt;ast.Constant object at 0x7f5036face20 -->
<g id="edge18" class="edge">
<title>ast.BinOp object at 0x7f5036fad210&#45;&gt;ast.Constant object at 0x7f5036face20</title>
<path fill="none" stroke="black" d="M318.72,-143.7C309.08,-135.05 297.27,-124.45 286.77,-115.03"/>
<polygon fill="black" stroke="black" points="288.84,-112.18 279.06,-108.1 284.16,-117.39 288.84,-112.18"/>
</g>
<!-- ast.LShift object at 0x7f503aaf6440 -->
<g id="node18" class="node">
<title>ast.LShift object at 0x7f503aaf6440</title>
<path fill="#66cdaa" stroke="black" d="M353,-108C353,-108 323,-108 323,-108 317,-108 311,-102 311,-96 311,-96 311,-84 311,-84 311,-78 317,-72 323,-72 323,-72 353,-72 353,-72 359,-72 365,-78 365,-84 365,-84 365,-96 365,-96 365,-102 359,-108 353,-108"/>
<text text-anchor="middle" x="338" y="-86.3" font-family="Times,serif" font-size="14.00">LShift</text>
</g>
<!-- ast.BinOp object at 0x7f5036fad210&#45;&gt;ast.LShift object at 0x7f503aaf6440 -->
<g id="edge19" class="edge">
<title>ast.BinOp object at 0x7f5036fad210&#45;&gt;ast.LShift object at 0x7f503aaf6440</title>
<path fill="none" stroke="black" d="M338,-143.7C338,-135.98 338,-126.71 338,-118.11"/>
<polygon fill="black" stroke="black" points="341.5,-118.1 338,-108.1 334.5,-118.1 341.5,-118.1"/>
</g>
<!-- ast.Constant object at 0x7f5036fac880 -->
<g id="node19" class="node">
<title>ast.Constant object at 0x7f5036fac880</title>
<path fill="#66cdaa" stroke="black" d="M436.5,-108C436.5,-108 395.5,-108 395.5,-108 389.5,-108 383.5,-102 383.5,-96 383.5,-96 383.5,-84 383.5,-84 383.5,-78 389.5,-72 395.5,-72 395.5,-72 436.5,-72 436.5,-72 442.5,-72 448.5,-78 448.5,-84 448.5,-84 448.5,-96 448.5,-96 448.5,-102 442.5,-108 436.5,-108"/>
<text text-anchor="middle" x="416" y="-86.3" font-family="Times,serif" font-size="14.00">Constant</text>
</g>
<!-- ast.BinOp object at 0x7f5036fad210&#45;&gt;ast.Constant object at 0x7f5036fac880 -->
<g id="edge20" class="edge">
<title>ast.BinOp object at 0x7f5036fad210&#45;&gt;ast.Constant object at 0x7f5036fac880</title>
<path fill="none" stroke="black" d="M357.28,-143.7C366.92,-135.05 378.73,-124.45 389.23,-115.03"/>
<polygon fill="black" stroke="black" points="391.84,-117.39 396.94,-108.1 387.16,-112.18 391.84,-117.39"/>
</g>
<!-- ast.Compare object at 0x7f5036fad240 -->
<g id="node23" class="node">
<title>ast.Compare object at 0x7f5036fad240</title>
<path fill="#66cdaa" stroke="black" d="M548.5,-252C548.5,-252 505.5,-252 505.5,-252 499.5,-252 493.5,-246 493.5,-240 493.5,-240 493.5,-228 493.5,-228 493.5,-222 499.5,-216 505.5,-216 505.5,-216 548.5,-216 548.5,-216 554.5,-216 560.5,-222 560.5,-228 560.5,-228 560.5,-240 560.5,-240 560.5,-246 554.5,-252 548.5,-252"/>
<text text-anchor="middle" x="527" y="-230.3" font-family="Times,serif" font-size="14.00">Compare</text>
</g>
<!-- ast.Return object at 0x7f5036fadbd0&#45;&gt;ast.Compare object at 0x7f5036fad240 -->
<g id="edge24" class="edge">
<title>ast.Return object at 0x7f5036fadbd0&#45;&gt;ast.Compare object at 0x7f5036fad240</title>
<path fill="none" stroke="black" d="M434.23,-289.12C450.36,-279.7 471.06,-267.63 488.81,-257.28"/>
<polygon fill="black" stroke="black" points="490.91,-260.11 497.78,-252.04 487.38,-254.06 490.91,-260.11"/>
</g>
<!-- ast.BinOp object at 0x7f5036fad9f0 -->
<g id="node24" class="node">
<title>ast.BinOp object at 0x7f5036fad9f0</title>
<path fill="#66cdaa" stroke="black" d="M581,-180C581,-180 551,-180 551,-180 545,-180 539,-174 539,-168 539,-168 539,-156 539,-156 539,-150 545,-144 551,-144 551,-144 581,-144 581,-144 587,-144 593,-150 593,-156 593,-156 593,-168 593,-168 593,-174 587,-180 581,-180"/>
<text text-anchor="middle" x="566" y="-158.3" font-family="Times,serif" font-size="14.00">BinOp</text>
</g>
<!-- ast.Compare object at 0x7f5036fad240&#45;&gt;ast.BinOp object at 0x7f5036fad9f0 -->
<g id="edge25" class="edge">
<title>ast.Compare object at 0x7f5036fad240&#45;&gt;ast.BinOp object at 0x7f5036fad9f0</title>
<path fill="none" stroke="black" d="M536.64,-215.7C541.13,-207.64 546.56,-197.89 551.52,-188.98"/>
<polygon fill="black" stroke="black" points="554.66,-190.54 556.47,-180.1 548.55,-187.14 554.66,-190.54"/>
</g>
<!-- ast.Eq object at 0x7f503aaf6890 -->
<g id="node28" class="node">
<title>ast.Eq object at 0x7f503aaf6890</title>
<path fill="#66cdaa" stroke="black" d="M653,-180C653,-180 623,-180 623,-180 617,-180 611,-174 611,-168 611,-168 611,-156 611,-156 611,-150 617,-144 623,-144 623,-144 653,-144 653,-144 659,-144 665,-150 665,-156 665,-156 665,-168 665,-168 665,-174 659,-180 653,-180"/>
<text text-anchor="middle" x="638" y="-158.3" font-family="Times,serif" font-size="14.00">Eq</text>
</g>
<!-- ast.Compare object at 0x7f5036fad240&#45;&gt;ast.Eq object at 0x7f503aaf6890 -->
<g id="edge31" class="edge">
<title>ast.Compare object at 0x7f5036fad240&#45;&gt;ast.Eq object at 0x7f503aaf6890</title>
<path fill="none" stroke="black" d="M554.15,-215.88C568.53,-206.81 586.38,-195.55 601.91,-185.76"/>
<polygon fill="black" stroke="black" points="604.15,-188.48 610.74,-180.19 600.42,-182.56 604.15,-188.48"/>
</g>
<!-- ast.Constant object at 0x7f5036fadc90 -->
<g id="node29" class="node">
<title>ast.Constant object at 0x7f5036fadc90</title>
<path fill="#66cdaa" stroke="black" d="M508.5,-180C508.5,-180 467.5,-180 467.5,-180 461.5,-180 455.5,-174 455.5,-168 455.5,-168 455.5,-156 455.5,-156 455.5,-150 461.5,-144 467.5,-144 467.5,-144 508.5,-144 508.5,-144 514.5,-144 520.5,-150 520.5,-156 520.5,-156 520.5,-168 520.5,-168 520.5,-174 514.5,-180 508.5,-180"/>
<text text-anchor="middle" x="488" y="-158.3" font-family="Times,serif" font-size="14.00">Constant</text>
</g>
<!-- ast.Compare object at 0x7f5036fad240&#45;&gt;ast.Constant object at 0x7f5036fadc90 -->
<g id="edge32" class="edge">
<title>ast.Compare object at 0x7f5036fad240&#45;&gt;ast.Constant object at 0x7f5036fadc90</title>
<path fill="none" stroke="black" d="M517.36,-215.7C512.87,-207.64 507.44,-197.89 502.48,-188.98"/>
<polygon fill="black" stroke="black" points="505.45,-187.14 497.53,-180.1 499.34,-190.54 505.45,-187.14"/>
</g>
<!-- ast.Name object at 0x7f5036fad0c0 -->
<g id="node25" class="node">
<title>ast.Name object at 0x7f5036fad0c0</title>
<path fill="#66cdaa" stroke="black" d="M509,-108C509,-108 479,-108 479,-108 473,-108 467,-102 467,-96 467,-96 467,-84 467,-84 467,-78 473,-72 479,-72 479,-72 509,-72 509,-72 515,-72 521,-78 521,-84 521,-84 521,-96 521,-96 521,-102 515,-108 509,-108"/>
<text text-anchor="middle" x="494" y="-86.3" font-family="Times,serif" font-size="14.00">Name</text>
</g>
<!-- ast.BinOp object at 0x7f5036fad9f0&#45;&gt;ast.Name object at 0x7f5036fad0c0 -->
<g id="edge26" class="edge">
<title>ast.BinOp object at 0x7f5036fad9f0&#45;&gt;ast.Name object at 0x7f5036fad0c0</title>
<path fill="none" stroke="black" d="M548.2,-143.7C539.4,-135.14 528.62,-124.66 519,-115.3"/>
<polygon fill="black" stroke="black" points="521.2,-112.57 511.59,-108.1 516.32,-117.58 521.2,-112.57"/>
</g>
<!-- ast.Mod object at 0x7f503aaf6380 -->
<g id="node26" class="node">
<title>ast.Mod object at 0x7f503aaf6380</title>
<path fill="#66cdaa" stroke="black" d="M653,-108C653,-108 623,-108 623,-108 617,-108 611,-102 611,-96 611,-96 611,-84 611,-84 611,-78 617,-72 623,-72 623,-72 653,-72 653,-72 659,-72 665,-78 665,-84 665,-84 665,-96 665,-96 665,-102 659,-108 653,-108"/>
<text text-anchor="middle" x="638" y="-86.3" font-family="Times,serif" font-size="14.00">Mod</text>
</g>
<!-- ast.BinOp object at 0x7f5036fad9f0&#45;&gt;ast.Mod object at 0x7f503aaf6380 -->
<g id="edge28" class="edge">
<title>ast.BinOp object at 0x7f5036fad9f0&#45;&gt;ast.Mod object at 0x7f503aaf6380</title>
<path fill="none" stroke="black" d="M583.8,-143.7C592.6,-135.14 603.38,-124.66 613,-115.3"/>
<polygon fill="black" stroke="black" points="615.68,-117.58 620.41,-108.1 610.8,-112.57 615.68,-117.58"/>
</g>
<!-- ast.Name object at 0x7f5036faccd0 -->
<g id="node27" class="node">
<title>ast.Name object at 0x7f5036faccd0</title>
<path fill="#66cdaa" stroke="black" d="M581,-108C581,-108 551,-108 551,-108 545,-108 539,-102 539,-96 539,-96 539,-84 539,-84 539,-78 545,-72 551,-72 551,-72 581,-72 581,-72 587,-72 593,-78 593,-84 593,-84 593,-96 593,-96 593,-102 587,-108 581,-108"/>
<text text-anchor="middle" x="566" y="-86.3" font-family="Times,serif" font-size="14.00">Name</text>
</g>
<!-- ast.BinOp object at 0x7f5036fad9f0&#45;&gt;ast.Name object at 0x7f5036faccd0 -->
<g id="edge29" class="edge">
<title>ast.BinOp object at 0x7f5036fad9f0&#45;&gt;ast.Name object at 0x7f5036faccd0</title>
<path fill="none" stroke="black" d="M566,-143.7C566,-135.98 566,-126.71 566,-118.11"/>
<polygon fill="black" stroke="black" points="569.5,-118.1 566,-108.1 562.5,-118.1 569.5,-118.1"/>
</g>
<!-- ast.Name object at 0x7f5036fad0c0&#45;&gt;ast.Load object at 0x7f503aaf5f60 -->
<g id="edge27" class="edge">
<title>ast.Name object at 0x7f5036fad0c0&#45;&gt;ast.Load object at 0x7f503aaf5f60</title>
<path fill="none" stroke="black" d="M466.67,-76.03C463.43,-74.61 460.16,-73.24 457,-72 415.05,-55.52 365.67,-39.79 332.76,-29.81"/>
<polygon fill="black" stroke="black" points="333.69,-26.43 323.11,-26.9 331.67,-33.14 333.69,-26.43"/>
</g>
<!-- ast.Name object at 0x7f5036faccd0&#45;&gt;ast.Load object at 0x7f503aaf5f60 -->
<g id="edge30" class="edge">
<title>ast.Name object at 0x7f5036faccd0&#45;&gt;ast.Load object at 0x7f503aaf5f60</title>
<path fill="none" stroke="black" d="M538.74,-75.37C535.83,-74.14 532.88,-72.99 530,-72 462.27,-48.65 379.93,-32.75 333.18,-24.83"/>
<polygon fill="black" stroke="black" points="333.64,-21.36 323.2,-23.17 332.49,-28.27 333.64,-21.36"/>
</g>
</g>
</svg>
