<?xml version="1.0" encoding="UTF-8" standalone="no"?>
<!DOCTYPE svg PUBLIC "-//W3C//DTD SVG 1.1//EN"
 "http://www.w3.org/Graphics/SVG/1.1/DTD/svg11.dtd">
<!-- Generated by graphviz version 2.43.0 (0)
 -->
<!-- Title: %3 Pages: 1 -->
<svg width="884pt" height="476pt"
 viewBox="0.00 0.00 883.50 476.00" xmlns="http://www.w3.org/2000/svg" xmlns:xlink="http://www.w3.org/1999/xlink">
<g id="graph0" class="graph" transform="scale(1 1) rotate(0) translate(4 472)">
<title>%3</title>
<polygon fill="white" stroke="transparent" points="-4,4 -4,-472 879.5,-472 879.5,4 -4,4"/>
<!-- ast.Module object at 0x7fdd67f4dc00 -->
<g id="node1" class="node">
<title>ast.Module object at 0x7fdd67f4dc00</title>
<path fill="#66cdaa" stroke="black" d="M261.5,-468C261.5,-468 226.5,-468 226.5,-468 220.5,-468 214.5,-462 214.5,-456 214.5,-456 214.5,-444 214.5,-444 214.5,-438 220.5,-432 226.5,-432 226.5,-432 261.5,-432 261.5,-432 267.5,-432 273.5,-438 273.5,-444 273.5,-444 273.5,-456 273.5,-456 273.5,-462 267.5,-468 261.5,-468"/>
<text text-anchor="middle" x="244" y="-446.3" font-family="Times,serif" font-size="14.00">Module</text>
</g>
<!-- ast.FunctionDef object at 0x7fdd67f4df60 -->
<g id="node2" class="node">
<title>ast.FunctionDef object at 0x7fdd67f4df60</title>
<path fill="#66cdaa" stroke="black" d="M274.5,-396C274.5,-396 213.5,-396 213.5,-396 207.5,-396 201.5,-390 201.5,-384 201.5,-384 201.5,-372 201.5,-372 201.5,-366 207.5,-360 213.5,-360 213.5,-360 274.5,-360 274.5,-360 280.5,-360 286.5,-366 286.5,-372 286.5,-372 286.5,-384 286.5,-384 286.5,-390 280.5,-396 274.5,-396"/>
<text text-anchor="middle" x="244" y="-374.3" font-family="Times,serif" font-size="14.00">FunctionDef</text>
</g>
<!-- ast.Module object at 0x7fdd67f4dc00&#45;&gt;ast.FunctionDef object at 0x7fdd67f4df60 -->
<g id="edge1" class="edge">
<title>ast.Module object at 0x7fdd67f4dc00&#45;&gt;ast.FunctionDef object at 0x7fdd67f4df60</title>
<path fill="none" stroke="black" d="M244,-431.7C244,-423.98 244,-414.71 244,-406.11"/>
<polygon fill="black" stroke="black" points="247.5,-406.1 244,-396.1 240.5,-406.1 247.5,-406.1"/>
</g>
<!-- ast.arguments object at 0x7fdcc4b8b700 -->
<g id="node3" class="node">
<title>ast.arguments object at 0x7fdcc4b8b700</title>
<path fill="#66cdaa" stroke="black" d="M127,-324C127,-324 77,-324 77,-324 71,-324 65,-318 65,-312 65,-312 65,-300 65,-300 65,-294 71,-288 77,-288 77,-288 127,-288 127,-288 133,-288 139,-294 139,-300 139,-300 139,-312 139,-312 139,-318 133,-324 127,-324"/>
<text text-anchor="middle" x="102" y="-302.3" font-family="Times,serif" font-size="14.00">arguments</text>
</g>
<!-- ast.FunctionDef object at 0x7fdd67f4df60&#45;&gt;ast.arguments object at 0x7fdcc4b8b700 -->
<g id="edge2" class="edge">
<title>ast.FunctionDef object at 0x7fdd67f4df60&#45;&gt;ast.arguments object at 0x7fdcc4b8b700</title>
<path fill="none" stroke="black" d="M209.26,-359.88C190.18,-350.47 166.32,-338.71 145.95,-328.67"/>
<polygon fill="black" stroke="black" points="147.39,-325.47 136.87,-324.19 144.29,-331.75 147.39,-325.47"/>
</g>
<!-- ast.Assign object at 0x7fdd67fe51e0 -->
<g id="node5" class="node">
<title>ast.Assign object at 0x7fdd67fe51e0</title>
<path fill="#66cdaa" stroke="black" d="M142,-252C142,-252 112,-252 112,-252 106,-252 100,-246 100,-240 100,-240 100,-228 100,-228 100,-222 106,-216 112,-216 112,-216 142,-216 142,-216 148,-216 154,-222 154,-228 154,-228 154,-240 154,-240 154,-246 148,-252 142,-252"/>
<text text-anchor="middle" x="127" y="-230.3" font-family="Times,serif" font-size="14.00">Assign</text>
</g>
<!-- ast.FunctionDef object at 0x7fdd67f4df60&#45;&gt;ast.Assign object at 0x7fdd67fe51e0 -->
<g id="edge4" class="edge">
<title>ast.FunctionDef object at 0x7fdd67f4df60&#45;&gt;ast.Assign object at 0x7fdd67fe51e0</title>
<path fill="none" stroke="black" d="M229.89,-359.87C209.42,-335.03 171.37,-288.85 147.72,-260.14"/>
<polygon fill="black" stroke="black" points="150.22,-257.68 141.16,-252.19 144.82,-262.13 150.22,-257.68"/>
</g>
<!-- ast.Assign object at 0x7fdd67fe4130 -->
<g id="node13" class="node">
<title>ast.Assign object at 0x7fdd67fe4130</title>
<path fill="#66cdaa" stroke="black" d="M259,-324C259,-324 229,-324 229,-324 223,-324 217,-318 217,-312 217,-312 217,-300 217,-300 217,-294 223,-288 229,-288 229,-288 259,-288 259,-288 265,-288 271,-294 271,-300 271,-300 271,-312 271,-312 271,-318 265,-324 259,-324"/>
<text text-anchor="middle" x="244" y="-302.3" font-family="Times,serif" font-size="14.00">Assign</text>
</g>
<!-- ast.FunctionDef object at 0x7fdd67f4df60&#45;&gt;ast.Assign object at 0x7fdd67fe4130 -->
<g id="edge13" class="edge">
<title>ast.FunctionDef object at 0x7fdd67f4df60&#45;&gt;ast.Assign object at 0x7fdd67fe4130</title>
<path fill="none" stroke="black" d="M244,-359.7C244,-351.98 244,-342.71 244,-334.11"/>
<polygon fill="black" stroke="black" points="247.5,-334.1 244,-324.1 240.5,-334.1 247.5,-334.1"/>
</g>
<!-- ast.While object at 0x7fdd67fe62c0 -->
<g id="node16" class="node">
<title>ast.While object at 0x7fdd67fe62c0</title>
<path fill="#66cdaa" stroke="black" d="M382,-324C382,-324 352,-324 352,-324 346,-324 340,-318 340,-312 340,-312 340,-300 340,-300 340,-294 346,-288 352,-288 352,-288 382,-288 382,-288 388,-288 394,-294 394,-300 394,-300 394,-312 394,-312 394,-318 388,-324 382,-324"/>
<text text-anchor="middle" x="367" y="-302.3" font-family="Times,serif" font-size="14.00">While</text>
</g>
<!-- ast.FunctionDef object at 0x7fdd67f4df60&#45;&gt;ast.While object at 0x7fdd67fe62c0 -->
<g id="edge17" class="edge">
<title>ast.FunctionDef object at 0x7fdd67f4df60&#45;&gt;ast.While object at 0x7fdd67fe62c0</title>
<path fill="none" stroke="black" d="M274.09,-359.88C291.17,-350.16 312.67,-337.92 330.68,-327.67"/>
<polygon fill="black" stroke="black" points="332.78,-330.5 339.74,-322.51 329.32,-324.42 332.78,-330.5"/>
</g>
<!-- ast.Return object at 0x7fdd67eeb6a0 -->
<g id="node25" class="node">
<title>ast.Return object at 0x7fdd67eeb6a0</title>
<path fill="#66cdaa" stroke="black" d="M593,-324C593,-324 563,-324 563,-324 557,-324 551,-318 551,-312 551,-312 551,-300 551,-300 551,-294 557,-288 563,-288 563,-288 593,-288 593,-288 599,-288 605,-294 605,-300 605,-300 605,-312 605,-312 605,-318 599,-324 593,-324"/>
<text text-anchor="middle" x="578" y="-302.3" font-family="Times,serif" font-size="14.00">Return</text>
</g>
<!-- ast.FunctionDef object at 0x7fdd67f4df60&#45;&gt;ast.Return object at 0x7fdd67eeb6a0 -->
<g id="edge28" class="edge">
<title>ast.FunctionDef object at 0x7fdd67f4df60&#45;&gt;ast.Return object at 0x7fdd67eeb6a0</title>
<path fill="none" stroke="black" d="M286.64,-368.06C352.61,-354.24 478.31,-327.89 540.81,-314.8"/>
<polygon fill="black" stroke="black" points="541.56,-318.21 550.63,-312.74 540.13,-311.36 541.56,-318.21"/>
</g>
<!-- ast.arg object at 0x7fdd67fe72e0 -->
<g id="node4" class="node">
<title>ast.arg object at 0x7fdd67fe72e0</title>
<path fill="#66cdaa" stroke="black" d="M70,-252C70,-252 40,-252 40,-252 34,-252 28,-246 28,-240 28,-240 28,-228 28,-228 28,-222 34,-216 40,-216 40,-216 70,-216 70,-216 76,-216 82,-222 82,-228 82,-228 82,-240 82,-240 82,-246 76,-252 70,-252"/>
<text text-anchor="middle" x="55" y="-230.3" font-family="Times,serif" font-size="14.00">arg</text>
</g>
<!-- ast.arguments object at 0x7fdcc4b8b700&#45;&gt;ast.arg object at 0x7fdd67fe72e0 -->
<g id="edge3" class="edge">
<title>ast.arguments object at 0x7fdcc4b8b700&#45;&gt;ast.arg object at 0x7fdd67fe72e0</title>
<path fill="none" stroke="black" d="M90.38,-287.7C84.86,-279.47 78.15,-269.48 72.07,-260.42"/>
<polygon fill="black" stroke="black" points="74.96,-258.46 66.48,-252.1 69.15,-262.36 74.96,-258.46"/>
</g>
<!-- ast.Name object at 0x7fdd67fe4ca0 -->
<g id="node6" class="node">
<title>ast.Name object at 0x7fdd67fe4ca0</title>
<path fill="#66cdaa" stroke="black" d="M176,-180C176,-180 146,-180 146,-180 140,-180 134,-174 134,-168 134,-168 134,-156 134,-156 134,-150 140,-144 146,-144 146,-144 176,-144 176,-144 182,-144 188,-150 188,-156 188,-156 188,-168 188,-168 188,-174 182,-180 176,-180"/>
<text text-anchor="middle" x="161" y="-158.3" font-family="Times,serif" font-size="14.00">Name</text>
</g>
<!-- ast.Assign object at 0x7fdd67fe51e0&#45;&gt;ast.Name object at 0x7fdd67fe4ca0 -->
<g id="edge5" class="edge">
<title>ast.Assign object at 0x7fdd67fe51e0&#45;&gt;ast.Name object at 0x7fdd67fe4ca0</title>
<path fill="none" stroke="black" d="M135.4,-215.7C139.27,-207.73 143.95,-198.1 148.24,-189.26"/>
<polygon fill="black" stroke="black" points="151.47,-190.63 152.69,-180.1 145.17,-187.57 151.47,-190.63"/>
</g>
<!-- ast.Call object at 0x7fdd67fe72b0 -->
<g id="node8" class="node">
<title>ast.Call object at 0x7fdd67fe72b0</title>
<path fill="#66cdaa" stroke="black" d="M104,-180C104,-180 74,-180 74,-180 68,-180 62,-174 62,-168 62,-168 62,-156 62,-156 62,-150 68,-144 74,-144 74,-144 104,-144 104,-144 110,-144 116,-150 116,-156 116,-156 116,-168 116,-168 116,-174 110,-180 104,-180"/>
<text text-anchor="middle" x="89" y="-158.3" font-family="Times,serif" font-size="14.00">Call</text>
</g>
<!-- ast.Assign object at 0x7fdd67fe51e0&#45;&gt;ast.Call object at 0x7fdd67fe72b0 -->
<g id="edge7" class="edge">
<title>ast.Assign object at 0x7fdd67fe51e0&#45;&gt;ast.Call object at 0x7fdd67fe72b0</title>
<path fill="none" stroke="black" d="M117.61,-215.7C113.24,-207.64 107.94,-197.89 103.1,-188.98"/>
<polygon fill="black" stroke="black" points="106.13,-187.22 98.29,-180.1 99.98,-190.56 106.13,-187.22"/>
</g>
<!-- ast.Store object at 0x7fdd6c8f6080 -->
<g id="node7" class="node">
<title>ast.Store object at 0x7fdd6c8f6080</title>
<path fill="#66cdaa" stroke="black" d="M270,-108C270,-108 240,-108 240,-108 234,-108 228,-102 228,-96 228,-96 228,-84 228,-84 228,-78 234,-72 240,-72 240,-72 270,-72 270,-72 276,-72 282,-78 282,-84 282,-84 282,-96 282,-96 282,-102 276,-108 270,-108"/>
<text text-anchor="middle" x="255" y="-86.3" font-family="Times,serif" font-size="14.00">Store</text>
</g>
<!-- ast.Name object at 0x7fdd67fe4ca0&#45;&gt;ast.Store object at 0x7fdd6c8f6080 -->
<g id="edge6" class="edge">
<title>ast.Name object at 0x7fdd67fe4ca0&#45;&gt;ast.Store object at 0x7fdd6c8f6080</title>
<path fill="none" stroke="black" d="M184.24,-143.7C196.19,-134.8 210.92,-123.82 223.85,-114.2"/>
<polygon fill="black" stroke="black" points="226.1,-116.88 232.03,-108.1 221.92,-111.27 226.1,-116.88"/>
</g>
<!-- ast.Name object at 0x7fdd67fe5a80 -->
<g id="node9" class="node">
<title>ast.Name object at 0x7fdd67fe5a80</title>
<path fill="#66cdaa" stroke="black" d="M198,-108C198,-108 168,-108 168,-108 162,-108 156,-102 156,-96 156,-96 156,-84 156,-84 156,-78 162,-72 168,-72 168,-72 198,-72 198,-72 204,-72 210,-78 210,-84 210,-84 210,-96 210,-96 210,-102 204,-108 198,-108"/>
<text text-anchor="middle" x="183" y="-86.3" font-family="Times,serif" font-size="14.00">Name</text>
</g>
<!-- ast.Call object at 0x7fdd67fe72b0&#45;&gt;ast.Name object at 0x7fdd67fe5a80 -->
<g id="edge8" class="edge">
<title>ast.Call object at 0x7fdd67fe72b0&#45;&gt;ast.Name object at 0x7fdd67fe5a80</title>
<path fill="none" stroke="black" d="M112.24,-143.7C124.19,-134.8 138.92,-123.82 151.85,-114.2"/>
<polygon fill="black" stroke="black" points="154.1,-116.88 160.03,-108.1 149.92,-111.27 154.1,-116.88"/>
</g>
<!-- ast.Name object at 0x7fdd67fe5d50 -->
<g id="node11" class="node">
<title>ast.Name object at 0x7fdd67fe5d50</title>
<path fill="#66cdaa" stroke="black" d="M42,-108C42,-108 12,-108 12,-108 6,-108 0,-102 0,-96 0,-96 0,-84 0,-84 0,-78 6,-72 12,-72 12,-72 42,-72 42,-72 48,-72 54,-78 54,-84 54,-84 54,-96 54,-96 54,-102 48,-108 42,-108"/>
<text text-anchor="middle" x="27" y="-86.3" font-family="Times,serif" font-size="14.00">Name</text>
</g>
<!-- ast.Call object at 0x7fdd67fe72b0&#45;&gt;ast.Name object at 0x7fdd67fe5d50 -->
<g id="edge10" class="edge">
<title>ast.Call object at 0x7fdd67fe72b0&#45;&gt;ast.Name object at 0x7fdd67fe5d50</title>
<path fill="none" stroke="black" d="M73.67,-143.7C66.24,-135.3 57.18,-125.07 49.02,-115.86"/>
<polygon fill="black" stroke="black" points="51.4,-113.27 42.15,-108.1 46.16,-117.91 51.4,-113.27"/>
</g>
<!-- ast.Constant object at 0x7fdd67fe4fa0 -->
<g id="node12" class="node">
<title>ast.Constant object at 0x7fdd67fe4fa0</title>
<path fill="#66cdaa" stroke="black" d="M125.5,-108C125.5,-108 84.5,-108 84.5,-108 78.5,-108 72.5,-102 72.5,-96 72.5,-96 72.5,-84 72.5,-84 72.5,-78 78.5,-72 84.5,-72 84.5,-72 125.5,-72 125.5,-72 131.5,-72 137.5,-78 137.5,-84 137.5,-84 137.5,-96 137.5,-96 137.5,-102 131.5,-108 125.5,-108"/>
<text text-anchor="middle" x="105" y="-86.3" font-family="Times,serif" font-size="14.00">Constant</text>
</g>
<!-- ast.Call object at 0x7fdd67fe72b0&#45;&gt;ast.Constant object at 0x7fdd67fe4fa0 -->
<g id="edge12" class="edge">
<title>ast.Call object at 0x7fdd67fe72b0&#45;&gt;ast.Constant object at 0x7fdd67fe4fa0</title>
<path fill="none" stroke="black" d="M92.96,-143.7C94.72,-135.98 96.84,-126.71 98.8,-118.11"/>
<polygon fill="black" stroke="black" points="102.27,-118.63 101.09,-108.1 95.45,-117.07 102.27,-118.63"/>
</g>
<!-- ast.Load object at 0x7fdd6c8f6020 -->
<g id="node10" class="node">
<title>ast.Load object at 0x7fdd6c8f6020</title>
<path fill="#66cdaa" stroke="black" d="M494,-36C494,-36 464,-36 464,-36 458,-36 452,-30 452,-24 452,-24 452,-12 452,-12 452,-6 458,0 464,0 464,0 494,0 494,0 500,0 506,-6 506,-12 506,-12 506,-24 506,-24 506,-30 500,-36 494,-36"/>
<text text-anchor="middle" x="479" y="-14.3" font-family="Times,serif" font-size="14.00">Load</text>
</g>
<!-- ast.Name object at 0x7fdd67fe5a80&#45;&gt;ast.Load object at 0x7fdd6c8f6020 -->
<g id="edge9" class="edge">
<title>ast.Name object at 0x7fdd67fe5a80&#45;&gt;ast.Load object at 0x7fdd6c8f6020</title>
<path fill="none" stroke="black" d="M210.24,-75.31C213.16,-74.09 216.11,-72.96 219,-72 296.29,-46.29 390.85,-30.81 441.95,-23.7"/>
<polygon fill="black" stroke="black" points="442.44,-27.16 451.87,-22.34 441.49,-20.23 442.44,-27.16"/>
</g>
<!-- ast.Name object at 0x7fdd67fe5d50&#45;&gt;ast.Load object at 0x7fdd6c8f6020 -->
<g id="edge11" class="edge">
<title>ast.Name object at 0x7fdd67fe5d50&#45;&gt;ast.Load object at 0x7fdd6c8f6020</title>
<path fill="none" stroke="black" d="M54.17,-75.09C57.1,-73.91 60.08,-72.85 63,-72 198.56,-32.44 367.51,-22.4 441.43,-19.86"/>
<polygon fill="black" stroke="black" points="441.75,-23.35 451.63,-19.54 441.53,-16.35 441.75,-23.35"/>
</g>
<!-- ast.Name object at 0x7fdd67fe4910 -->
<g id="node14" class="node">
<title>ast.Name object at 0x7fdd67fe4910</title>
<path fill="#66cdaa" stroke="black" d="M298,-252C298,-252 268,-252 268,-252 262,-252 256,-246 256,-240 256,-240 256,-228 256,-228 256,-222 262,-216 268,-216 268,-216 298,-216 298,-216 304,-216 310,-222 310,-228 310,-228 310,-240 310,-240 310,-246 304,-252 298,-252"/>
<text text-anchor="middle" x="283" y="-230.3" font-family="Times,serif" font-size="14.00">Name</text>
</g>
<!-- ast.Assign object at 0x7fdd67fe4130&#45;&gt;ast.Name object at 0x7fdd67fe4910 -->
<g id="edge14" class="edge">
<title>ast.Assign object at 0x7fdd67fe4130&#45;&gt;ast.Name object at 0x7fdd67fe4910</title>
<path fill="none" stroke="black" d="M253.64,-287.7C258.13,-279.64 263.56,-269.89 268.52,-260.98"/>
<polygon fill="black" stroke="black" points="271.66,-262.54 273.47,-252.1 265.55,-259.14 271.66,-262.54"/>
</g>
<!-- ast.Constant object at 0x7fdd67fe7520 -->
<g id="node15" class="node">
<title>ast.Constant object at 0x7fdd67fe7520</title>
<path fill="#66cdaa" stroke="black" d="M225.5,-252C225.5,-252 184.5,-252 184.5,-252 178.5,-252 172.5,-246 172.5,-240 172.5,-240 172.5,-228 172.5,-228 172.5,-222 178.5,-216 184.5,-216 184.5,-216 225.5,-216 225.5,-216 231.5,-216 237.5,-222 237.5,-228 237.5,-228 237.5,-240 237.5,-240 237.5,-246 231.5,-252 225.5,-252"/>
<text text-anchor="middle" x="205" y="-230.3" font-family="Times,serif" font-size="14.00">Constant</text>
</g>
<!-- ast.Assign object at 0x7fdd67fe4130&#45;&gt;ast.Constant object at 0x7fdd67fe7520 -->
<g id="edge16" class="edge">
<title>ast.Assign object at 0x7fdd67fe4130&#45;&gt;ast.Constant object at 0x7fdd67fe7520</title>
<path fill="none" stroke="black" d="M234.36,-287.7C229.87,-279.64 224.44,-269.89 219.48,-260.98"/>
<polygon fill="black" stroke="black" points="222.45,-259.14 214.53,-252.1 216.34,-262.54 222.45,-259.14"/>
</g>
<!-- ast.Name object at 0x7fdd67fe4910&#45;&gt;ast.Store object at 0x7fdd6c8f6080 -->
<g id="edge15" class="edge">
<title>ast.Name object at 0x7fdd67fe4910&#45;&gt;ast.Store object at 0x7fdd6c8f6080</title>
<path fill="none" stroke="black" d="M261.29,-215.79C251.24,-206.41 240.36,-193.9 235,-180 227.17,-159.68 233.52,-135.5 241.08,-117.48"/>
<polygon fill="black" stroke="black" points="244.36,-118.72 245.32,-108.17 237.99,-115.82 244.36,-118.72"/>
</g>
<!-- ast.Compare object at 0x7fdd67fe68f0 -->
<g id="node17" class="node">
<title>ast.Compare object at 0x7fdd67fe68f0</title>
<path fill="#66cdaa" stroke="black" d="M530.5,-252C530.5,-252 487.5,-252 487.5,-252 481.5,-252 475.5,-246 475.5,-240 475.5,-240 475.5,-228 475.5,-228 475.5,-222 481.5,-216 487.5,-216 487.5,-216 530.5,-216 530.5,-216 536.5,-216 542.5,-222 542.5,-228 542.5,-228 542.5,-240 542.5,-240 542.5,-246 536.5,-252 530.5,-252"/>
<text text-anchor="middle" x="509" y="-230.3" font-family="Times,serif" font-size="14.00">Compare</text>
</g>
<!-- ast.While object at 0x7fdd67fe62c0&#45;&gt;ast.Compare object at 0x7fdd67fe68f0 -->
<g id="edge18" class="edge">
<title>ast.While object at 0x7fdd67fe62c0&#45;&gt;ast.Compare object at 0x7fdd67fe68f0</title>
<path fill="none" stroke="black" d="M394.04,-291.67C414.43,-281.62 442.79,-267.64 466.24,-256.08"/>
<polygon fill="black" stroke="black" points="467.87,-259.18 475.29,-251.62 464.77,-252.9 467.87,-259.18"/>
</g>
<!-- ast.AugAssign object at 0x7fdd67eea530 -->
<g id="node21" class="node">
<title>ast.AugAssign object at 0x7fdd67eea530</title>
<path fill="#66cdaa" stroke="black" d="M393.5,-252C393.5,-252 340.5,-252 340.5,-252 334.5,-252 328.5,-246 328.5,-240 328.5,-240 328.5,-228 328.5,-228 328.5,-222 334.5,-216 340.5,-216 340.5,-216 393.5,-216 393.5,-216 399.5,-216 405.5,-222 405.5,-228 405.5,-228 405.5,-240 405.5,-240 405.5,-246 399.5,-252 393.5,-252"/>
<text text-anchor="middle" x="367" y="-230.3" font-family="Times,serif" font-size="14.00">AugAssign</text>
</g>
<!-- ast.While object at 0x7fdd67fe62c0&#45;&gt;ast.AugAssign object at 0x7fdd67eea530 -->
<g id="edge23" class="edge">
<title>ast.While object at 0x7fdd67fe62c0&#45;&gt;ast.AugAssign object at 0x7fdd67eea530</title>
<path fill="none" stroke="black" d="M367,-287.7C367,-279.98 367,-270.71 367,-262.11"/>
<polygon fill="black" stroke="black" points="370.5,-262.1 367,-252.1 363.5,-262.1 370.5,-262.1"/>
</g>
<!-- ast.Name object at 0x7fdd67fe5e70 -->
<g id="node18" class="node">
<title>ast.Name object at 0x7fdd67fe5e70</title>
<path fill="#66cdaa" stroke="black" d="M494,-108C494,-108 464,-108 464,-108 458,-108 452,-102 452,-96 452,-96 452,-84 452,-84 452,-78 458,-72 464,-72 464,-72 494,-72 494,-72 500,-72 506,-78 506,-84 506,-84 506,-96 506,-96 506,-102 500,-108 494,-108"/>
<text text-anchor="middle" x="479" y="-86.3" font-family="Times,serif" font-size="14.00">Name</text>
</g>
<!-- ast.Compare object at 0x7fdd67fe68f0&#45;&gt;ast.Name object at 0x7fdd67fe5e70 -->
<g id="edge19" class="edge">
<title>ast.Compare object at 0x7fdd67fe68f0&#45;&gt;ast.Name object at 0x7fdd67fe5e70</title>
<path fill="none" stroke="black" d="M505.38,-215.87C500.25,-191.56 490.79,-146.82 484.71,-118.01"/>
<polygon fill="black" stroke="black" points="488.12,-117.25 482.63,-108.19 481.27,-118.7 488.12,-117.25"/>
</g>
<!-- ast.Lt object at 0x7fdd6c8f6a10 -->
<g id="node19" class="node">
<title>ast.Lt object at 0x7fdd6c8f6a10</title>
<path fill="#66cdaa" stroke="black" d="M552,-180C552,-180 522,-180 522,-180 516,-180 510,-174 510,-168 510,-168 510,-156 510,-156 510,-150 516,-144 522,-144 522,-144 552,-144 552,-144 558,-144 564,-150 564,-156 564,-156 564,-168 564,-168 564,-174 558,-180 552,-180"/>
<text text-anchor="middle" x="537" y="-158.3" font-family="Times,serif" font-size="14.00">Lt</text>
</g>
<!-- ast.Compare object at 0x7fdd67fe68f0&#45;&gt;ast.Lt object at 0x7fdd6c8f6a10 -->
<g id="edge21" class="edge">
<title>ast.Compare object at 0x7fdd67fe68f0&#45;&gt;ast.Lt object at 0x7fdd6c8f6a10</title>
<path fill="none" stroke="black" d="M515.92,-215.7C519.07,-207.81 522.88,-198.3 526.38,-189.55"/>
<polygon fill="black" stroke="black" points="529.69,-190.69 530.16,-180.1 523.19,-188.09 529.69,-190.69"/>
</g>
<!-- ast.Constant object at 0x7fdd67fe5e40 -->
<g id="node20" class="node">
<title>ast.Constant object at 0x7fdd67fe5e40</title>
<path fill="#66cdaa" stroke="black" d="M635.5,-180C635.5,-180 594.5,-180 594.5,-180 588.5,-180 582.5,-174 582.5,-168 582.5,-168 582.5,-156 582.5,-156 582.5,-150 588.5,-144 594.5,-144 594.5,-144 635.5,-144 635.5,-144 641.5,-144 647.5,-150 647.5,-156 647.5,-156 647.5,-168 647.5,-168 647.5,-174 641.5,-180 635.5,-180"/>
<text text-anchor="middle" x="615" y="-158.3" font-family="Times,serif" font-size="14.00">Constant</text>
</g>
<!-- ast.Compare object at 0x7fdd67fe68f0&#45;&gt;ast.Constant object at 0x7fdd67fe5e40 -->
<g id="edge22" class="edge">
<title>ast.Compare object at 0x7fdd67fe68f0&#45;&gt;ast.Constant object at 0x7fdd67fe5e40</title>
<path fill="none" stroke="black" d="M534.93,-215.88C548.66,-206.81 565.71,-195.55 580.54,-185.76"/>
<polygon fill="black" stroke="black" points="582.55,-188.62 588.97,-180.19 578.7,-182.78 582.55,-188.62"/>
</g>
<!-- ast.Name object at 0x7fdd67fe5e70&#45;&gt;ast.Load object at 0x7fdd6c8f6020 -->
<g id="edge20" class="edge">
<title>ast.Name object at 0x7fdd67fe5e70&#45;&gt;ast.Load object at 0x7fdd6c8f6020</title>
<path fill="none" stroke="black" d="M479,-71.7C479,-63.98 479,-54.71 479,-46.11"/>
<polygon fill="black" stroke="black" points="482.5,-46.1 479,-36.1 475.5,-46.1 482.5,-46.1"/>
</g>
<!-- ast.Name object at 0x7fdd67eea650 -->
<g id="node22" class="node">
<title>ast.Name object at 0x7fdd67eea650</title>
<path fill="#66cdaa" stroke="black" d="M286,-180C286,-180 256,-180 256,-180 250,-180 244,-174 244,-168 244,-168 244,-156 244,-156 244,-150 250,-144 256,-144 256,-144 286,-144 286,-144 292,-144 298,-150 298,-156 298,-156 298,-168 298,-168 298,-174 292,-180 286,-180"/>
<text text-anchor="middle" x="271" y="-158.3" font-family="Times,serif" font-size="14.00">Name</text>
</g>
<!-- ast.AugAssign object at 0x7fdd67eea530&#45;&gt;ast.Name object at 0x7fdd67eea650 -->
<g id="edge24" class="edge">
<title>ast.AugAssign object at 0x7fdd67eea530&#45;&gt;ast.Name object at 0x7fdd67eea650</title>
<path fill="none" stroke="black" d="M343.27,-215.7C331.06,-206.8 316.01,-195.82 302.82,-186.2"/>
<polygon fill="black" stroke="black" points="304.6,-183.17 294.46,-180.1 300.48,-188.82 304.6,-183.17"/>
</g>
<!-- ast.Add object at 0x7fdd6c8f6260 -->
<g id="node23" class="node">
<title>ast.Add object at 0x7fdd6c8f6260</title>
<path fill="#66cdaa" stroke="black" d="M358,-180C358,-180 328,-180 328,-180 322,-180 316,-174 316,-168 316,-168 316,-156 316,-156 316,-150 322,-144 328,-144 328,-144 358,-144 358,-144 364,-144 370,-150 370,-156 370,-156 370,-168 370,-168 370,-174 364,-180 358,-180"/>
<text text-anchor="middle" x="343" y="-158.3" font-family="Times,serif" font-size="14.00">Add</text>
</g>
<!-- ast.AugAssign object at 0x7fdd67eea530&#45;&gt;ast.Add object at 0x7fdd6c8f6260 -->
<g id="edge26" class="edge">
<title>ast.AugAssign object at 0x7fdd67eea530&#45;&gt;ast.Add object at 0x7fdd6c8f6260</title>
<path fill="none" stroke="black" d="M361.07,-215.7C358.39,-207.9 355.17,-198.51 352.2,-189.83"/>
<polygon fill="black" stroke="black" points="355.42,-188.43 348.86,-180.1 348.8,-190.7 355.42,-188.43"/>
</g>
<!-- ast.Constant object at 0x7fdd67eebdf0 -->
<g id="node24" class="node">
<title>ast.Constant object at 0x7fdd67eebdf0</title>
<path fill="#66cdaa" stroke="black" d="M441.5,-180C441.5,-180 400.5,-180 400.5,-180 394.5,-180 388.5,-174 388.5,-168 388.5,-168 388.5,-156 388.5,-156 388.5,-150 394.5,-144 400.5,-144 400.5,-144 441.5,-144 441.5,-144 447.5,-144 453.5,-150 453.5,-156 453.5,-156 453.5,-168 453.5,-168 453.5,-174 447.5,-180 441.5,-180"/>
<text text-anchor="middle" x="421" y="-158.3" font-family="Times,serif" font-size="14.00">Constant</text>
</g>
<!-- ast.AugAssign object at 0x7fdd67eea530&#45;&gt;ast.Constant object at 0x7fdd67eebdf0 -->
<g id="edge27" class="edge">
<title>ast.AugAssign object at 0x7fdd67eea530&#45;&gt;ast.Constant object at 0x7fdd67eebdf0</title>
<path fill="none" stroke="black" d="M380.35,-215.7C386.76,-207.39 394.56,-197.28 401.61,-188.14"/>
<polygon fill="black" stroke="black" points="404.47,-190.16 407.81,-180.1 398.93,-185.88 404.47,-190.16"/>
</g>
<!-- ast.Name object at 0x7fdd67eea650&#45;&gt;ast.Store object at 0x7fdd6c8f6080 -->
<g id="edge25" class="edge">
<title>ast.Name object at 0x7fdd67eea650&#45;&gt;ast.Store object at 0x7fdd6c8f6080</title>
<path fill="none" stroke="black" d="M267.04,-143.7C265.28,-135.98 263.16,-126.71 261.2,-118.11"/>
<polygon fill="black" stroke="black" points="264.55,-117.07 258.91,-108.1 257.73,-118.63 264.55,-117.07"/>
</g>
<!-- ast.Compare object at 0x7fdd67ee8e80 -->
<g id="node26" class="node">
<title>ast.Compare object at 0x7fdd67ee8e80</title>
<path fill="#66cdaa" stroke="black" d="M750.5,-252C750.5,-252 707.5,-252 707.5,-252 701.5,-252 695.5,-246 695.5,-240 695.5,-240 695.5,-228 695.5,-228 695.5,-222 701.5,-216 707.5,-216 707.5,-216 750.5,-216 750.5,-216 756.5,-216 762.5,-222 762.5,-228 762.5,-228 762.5,-240 762.5,-240 762.5,-246 756.5,-252 750.5,-252"/>
<text text-anchor="middle" x="729" y="-230.3" font-family="Times,serif" font-size="14.00">Compare</text>
</g>
<!-- ast.Return object at 0x7fdd67eeb6a0&#45;&gt;ast.Compare object at 0x7fdd67ee8e80 -->
<g id="edge29" class="edge">
<title>ast.Return object at 0x7fdd67eeb6a0&#45;&gt;ast.Compare object at 0x7fdd67ee8e80</title>
<path fill="none" stroke="black" d="M605.34,-292.32C627.83,-281.9 660.08,-266.95 686.01,-254.93"/>
<polygon fill="black" stroke="black" points="687.65,-258.03 695.25,-250.65 684.71,-251.68 687.65,-258.03"/>
</g>
<!-- ast.BinOp object at 0x7fdd5e11a8f0 -->
<g id="node27" class="node">
<title>ast.BinOp object at 0x7fdd5e11a8f0</title>
<path fill="#66cdaa" stroke="black" d="M708,-180C708,-180 678,-180 678,-180 672,-180 666,-174 666,-168 666,-168 666,-156 666,-156 666,-150 672,-144 678,-144 678,-144 708,-144 708,-144 714,-144 720,-150 720,-156 720,-156 720,-168 720,-168 720,-174 714,-180 708,-180"/>
<text text-anchor="middle" x="693" y="-158.3" font-family="Times,serif" font-size="14.00">BinOp</text>
</g>
<!-- ast.Compare object at 0x7fdd67ee8e80&#45;&gt;ast.BinOp object at 0x7fdd5e11a8f0 -->
<g id="edge30" class="edge">
<title>ast.Compare object at 0x7fdd67ee8e80&#45;&gt;ast.BinOp object at 0x7fdd5e11a8f0</title>
<path fill="none" stroke="black" d="M720.1,-215.7C716,-207.73 711.05,-198.1 706.51,-189.26"/>
<polygon fill="black" stroke="black" points="709.48,-187.4 701.8,-180.1 703.26,-190.6 709.48,-187.4"/>
</g>
<!-- ast.Eq object at 0x7fdd6c8f6950 -->
<g id="node31" class="node">
<title>ast.Eq object at 0x7fdd6c8f6950</title>
<path fill="#66cdaa" stroke="black" d="M780,-180C780,-180 750,-180 750,-180 744,-180 738,-174 738,-168 738,-168 738,-156 738,-156 738,-150 744,-144 750,-144 750,-144 780,-144 780,-144 786,-144 792,-150 792,-156 792,-156 792,-168 792,-168 792,-174 786,-180 780,-180"/>
<text text-anchor="middle" x="765" y="-158.3" font-family="Times,serif" font-size="14.00">Eq</text>
</g>
<!-- ast.Compare object at 0x7fdd67ee8e80&#45;&gt;ast.Eq object at 0x7fdd6c8f6950 -->
<g id="edge36" class="edge">
<title>ast.Compare object at 0x7fdd67ee8e80&#45;&gt;ast.Eq object at 0x7fdd6c8f6950</title>
<path fill="none" stroke="black" d="M737.9,-215.7C742,-207.73 746.95,-198.1 751.49,-189.26"/>
<polygon fill="black" stroke="black" points="754.74,-190.6 756.2,-180.1 748.52,-187.4 754.74,-190.6"/>
</g>
<!-- ast.Constant object at 0x7fdd5e118c70 -->
<g id="node32" class="node">
<title>ast.Constant object at 0x7fdd5e118c70</title>
<path fill="#66cdaa" stroke="black" d="M863.5,-180C863.5,-180 822.5,-180 822.5,-180 816.5,-180 810.5,-174 810.5,-168 810.5,-168 810.5,-156 810.5,-156 810.5,-150 816.5,-144 822.5,-144 822.5,-144 863.5,-144 863.5,-144 869.5,-144 875.5,-150 875.5,-156 875.5,-156 875.5,-168 875.5,-168 875.5,-174 869.5,-180 863.5,-180"/>
<text text-anchor="middle" x="843" y="-158.3" font-family="Times,serif" font-size="14.00">Constant</text>
</g>
<!-- ast.Compare object at 0x7fdd67ee8e80&#45;&gt;ast.Constant object at 0x7fdd5e118c70 -->
<g id="edge37" class="edge">
<title>ast.Compare object at 0x7fdd67ee8e80&#45;&gt;ast.Constant object at 0x7fdd5e118c70</title>
<path fill="none" stroke="black" d="M756.89,-215.88C771.79,-206.72 790.33,-195.34 806.38,-185.48"/>
<polygon fill="black" stroke="black" points="808.31,-188.41 815.01,-180.19 804.65,-182.44 808.31,-188.41"/>
</g>
<!-- ast.Name object at 0x7fdd5e11a7d0 -->
<g id="node28" class="node">
<title>ast.Name object at 0x7fdd5e11a7d0</title>
<path fill="#66cdaa" stroke="black" d="M638,-108C638,-108 608,-108 608,-108 602,-108 596,-102 596,-96 596,-96 596,-84 596,-84 596,-78 602,-72 608,-72 608,-72 638,-72 638,-72 644,-72 650,-78 650,-84 650,-84 650,-96 650,-96 650,-102 644,-108 638,-108"/>
<text text-anchor="middle" x="623" y="-86.3" font-family="Times,serif" font-size="14.00">Name</text>
</g>
<!-- ast.BinOp object at 0x7fdd5e11a8f0&#45;&gt;ast.Name object at 0x7fdd5e11a7d0 -->
<g id="edge31" class="edge">
<title>ast.BinOp object at 0x7fdd5e11a8f0&#45;&gt;ast.Name object at 0x7fdd5e11a7d0</title>
<path fill="none" stroke="black" d="M675.7,-143.7C667.14,-135.14 656.66,-124.66 647.3,-115.3"/>
<polygon fill="black" stroke="black" points="649.65,-112.7 640.1,-108.1 644.7,-117.65 649.65,-112.7"/>
</g>
<!-- ast.Mod object at 0x7fdd6c8f6440 -->
<g id="node29" class="node">
<title>ast.Mod object at 0x7fdd6c8f6440</title>
<path fill="#66cdaa" stroke="black" d="M710,-108C710,-108 680,-108 680,-108 674,-108 668,-102 668,-96 668,-96 668,-84 668,-84 668,-78 674,-72 680,-72 680,-72 710,-72 710,-72 716,-72 722,-78 722,-84 722,-84 722,-96 722,-96 722,-102 716,-108 710,-108"/>
<text text-anchor="middle" x="695" y="-86.3" font-family="Times,serif" font-size="14.00">Mod</text>
</g>
<!-- ast.BinOp object at 0x7fdd5e11a8f0&#45;&gt;ast.Mod object at 0x7fdd6c8f6440 -->
<g id="edge33" class="edge">
<title>ast.BinOp object at 0x7fdd5e11a8f0&#45;&gt;ast.Mod object at 0x7fdd6c8f6440</title>
<path fill="none" stroke="black" d="M693.49,-143.7C693.71,-135.98 693.98,-126.71 694.23,-118.11"/>
<polygon fill="black" stroke="black" points="697.72,-118.2 694.51,-108.1 690.73,-118 697.72,-118.2"/>
</g>
<!-- ast.Name object at 0x7fdd5e11b2b0 -->
<g id="node30" class="node">
<title>ast.Name object at 0x7fdd5e11b2b0</title>
<path fill="#66cdaa" stroke="black" d="M566,-108C566,-108 536,-108 536,-108 530,-108 524,-102 524,-96 524,-96 524,-84 524,-84 524,-78 530,-72 536,-72 536,-72 566,-72 566,-72 572,-72 578,-78 578,-84 578,-84 578,-96 578,-96 578,-102 572,-108 566,-108"/>
<text text-anchor="middle" x="551" y="-86.3" font-family="Times,serif" font-size="14.00">Name</text>
</g>
<!-- ast.BinOp object at 0x7fdd5e11a8f0&#45;&gt;ast.Name object at 0x7fdd5e11b2b0 -->
<g id="edge34" class="edge">
<title>ast.BinOp object at 0x7fdd5e11a8f0&#45;&gt;ast.Name object at 0x7fdd5e11b2b0</title>
<path fill="none" stroke="black" d="M665.96,-147.67C643.69,-136.69 611.93,-121.03 587.43,-108.96"/>
<polygon fill="black" stroke="black" points="588.94,-105.8 578.43,-104.52 585.85,-112.08 588.94,-105.8"/>
</g>
<!-- ast.Name object at 0x7fdd5e11a7d0&#45;&gt;ast.Load object at 0x7fdd6c8f6020 -->
<g id="edge32" class="edge">
<title>ast.Name object at 0x7fdd5e11a7d0&#45;&gt;ast.Load object at 0x7fdd6c8f6020</title>
<path fill="none" stroke="black" d="M595.91,-75.83C573.23,-64.81 540.64,-48.97 515.63,-36.81"/>
<polygon fill="black" stroke="black" points="516.98,-33.57 506.45,-32.35 513.92,-39.87 516.98,-33.57"/>
</g>
<!-- ast.Name object at 0x7fdd5e11b2b0&#45;&gt;ast.Load object at 0x7fdd6c8f6020 -->
<g id="edge35" class="edge">
<title>ast.Name object at 0x7fdd5e11b2b0&#45;&gt;ast.Load object at 0x7fdd6c8f6020</title>
<path fill="none" stroke="black" d="M533.2,-71.7C524.4,-63.14 513.62,-52.66 504,-43.3"/>
<polygon fill="black" stroke="black" points="506.2,-40.57 496.59,-36.1 501.32,-45.58 506.2,-40.57"/>
</g>
</g>
</svg>
