<?xml version="1.0" encoding="UTF-8" standalone="no"?>
<!DOCTYPE svg PUBLIC "-//W3C//DTD SVG 1.1//EN"
 "http://www.w3.org/Graphics/SVG/1.1/DTD/svg11.dtd">
<!-- Generated by graphviz version 2.43.0 (0)
 -->
<!-- Title: %3 Pages: 1 -->
<svg width="642pt" height="620pt"
 viewBox="0.00 0.00 642.47 620.00" xmlns="http://www.w3.org/2000/svg" xmlns:xlink="http://www.w3.org/1999/xlink">
<g id="graph0" class="graph" transform="scale(1 1) rotate(0) translate(4 616)">
<title>%3</title>
<polygon fill="white" stroke="transparent" points="-4,4 -4,-616 638.47,-616 638.47,4 -4,4"/>
<!-- ast.Module object at 0x7fb0715315d0 -->
<g id="node1" class="node">
<title>ast.Module object at 0x7fb0715315d0</title>
<path fill="#66cdaa" stroke="black" d="M245.5,-612C245.5,-612 210.5,-612 210.5,-612 204.5,-612 198.5,-606 198.5,-600 198.5,-600 198.5,-588 198.5,-588 198.5,-582 204.5,-576 210.5,-576 210.5,-576 245.5,-576 245.5,-576 251.5,-576 257.5,-582 257.5,-588 257.5,-588 257.5,-600 257.5,-600 257.5,-606 251.5,-612 245.5,-612"/>
<text text-anchor="middle" x="228" y="-590.3" font-family="Times,serif" font-size="14.00">Module</text>
</g>
<!-- ast.FunctionDef object at 0x7fb071531570 -->
<g id="node2" class="node">
<title>ast.FunctionDef object at 0x7fb071531570</title>
<path fill="#66cdaa" stroke="black" d="M258.5,-540C258.5,-540 197.5,-540 197.5,-540 191.5,-540 185.5,-534 185.5,-528 185.5,-528 185.5,-516 185.5,-516 185.5,-510 191.5,-504 197.5,-504 197.5,-504 258.5,-504 258.5,-504 264.5,-504 270.5,-510 270.5,-516 270.5,-516 270.5,-528 270.5,-528 270.5,-534 264.5,-540 258.5,-540"/>
<text text-anchor="middle" x="228" y="-518.3" font-family="Times,serif" font-size="14.00">FunctionDef</text>
</g>
<!-- ast.Module object at 0x7fb0715315d0&#45;&gt;ast.FunctionDef object at 0x7fb071531570 -->
<g id="edge1" class="edge">
<title>ast.Module object at 0x7fb0715315d0&#45;&gt;ast.FunctionDef object at 0x7fb071531570</title>
<path fill="none" stroke="black" d="M228,-575.7C228,-567.98 228,-558.71 228,-550.11"/>
<polygon fill="black" stroke="black" points="231.5,-550.1 228,-540.1 224.5,-550.1 231.5,-550.1"/>
</g>
<!-- ast.arguments object at 0x7fb0715315a0 -->
<g id="node3" class="node">
<title>ast.arguments object at 0x7fb0715315a0</title>
<path fill="#66cdaa" stroke="black" d="M185,-468C185,-468 135,-468 135,-468 129,-468 123,-462 123,-456 123,-456 123,-444 123,-444 123,-438 129,-432 135,-432 135,-432 185,-432 185,-432 191,-432 197,-438 197,-444 197,-444 197,-456 197,-456 197,-462 191,-468 185,-468"/>
<text text-anchor="middle" x="160" y="-446.3" font-family="Times,serif" font-size="14.00">arguments</text>
</g>
<!-- ast.FunctionDef object at 0x7fb071531570&#45;&gt;ast.arguments object at 0x7fb0715315a0 -->
<g id="edge2" class="edge">
<title>ast.FunctionDef object at 0x7fb071531570&#45;&gt;ast.arguments object at 0x7fb0715315a0</title>
<path fill="none" stroke="black" d="M211.19,-503.7C202.87,-495.14 192.69,-484.66 183.61,-475.3"/>
<polygon fill="black" stroke="black" points="186.09,-472.84 176.62,-468.1 181.07,-477.72 186.09,-472.84"/>
</g>
<!-- ast.Assign object at 0x7fb071531510 -->
<g id="node5" class="node">
<title>ast.Assign object at 0x7fb071531510</title>
<path fill="#66cdaa" stroke="black" d="M243,-396C243,-396 213,-396 213,-396 207,-396 201,-390 201,-384 201,-384 201,-372 201,-372 201,-366 207,-360 213,-360 213,-360 243,-360 243,-360 249,-360 255,-366 255,-372 255,-372 255,-384 255,-384 255,-390 249,-396 243,-396"/>
<text text-anchor="middle" x="228" y="-374.3" font-family="Times,serif" font-size="14.00">Assign</text>
</g>
<!-- ast.FunctionDef object at 0x7fb071531570&#45;&gt;ast.Assign object at 0x7fb071531510 -->
<g id="edge4" class="edge">
<title>ast.FunctionDef object at 0x7fb071531570&#45;&gt;ast.Assign object at 0x7fb071531510</title>
<path fill="none" stroke="black" d="M228,-503.87C228,-479.67 228,-435.21 228,-406.39"/>
<polygon fill="black" stroke="black" points="231.5,-406.19 228,-396.19 224.5,-406.19 231.5,-406.19"/>
</g>
<!-- ast.Return object at 0x7fb071530e80 -->
<g id="node20" class="node">
<title>ast.Return object at 0x7fb071530e80</title>
<path fill="#66cdaa" stroke="black" d="M334,-468C334,-468 304,-468 304,-468 298,-468 292,-462 292,-456 292,-456 292,-444 292,-444 292,-438 298,-432 304,-432 304,-432 334,-432 334,-432 340,-432 346,-438 346,-444 346,-444 346,-456 346,-456 346,-462 340,-468 334,-468"/>
<text text-anchor="middle" x="319" y="-446.3" font-family="Times,serif" font-size="14.00">Return</text>
</g>
<!-- ast.FunctionDef object at 0x7fb071531570&#45;&gt;ast.Return object at 0x7fb071530e80 -->
<g id="edge23" class="edge">
<title>ast.FunctionDef object at 0x7fb071531570&#45;&gt;ast.Return object at 0x7fb071530e80</title>
<path fill="none" stroke="black" d="M250.49,-503.7C261.96,-494.88 276.06,-484.03 288.48,-474.47"/>
<polygon fill="black" stroke="black" points="290.97,-476.98 296.76,-468.1 286.7,-471.43 290.97,-476.98"/>
</g>
<!-- ast.arg object at 0x7fb071531540 -->
<g id="node4" class="node">
<title>ast.arg object at 0x7fb071531540</title>
<path fill="#66cdaa" stroke="black" d="M171,-396C171,-396 141,-396 141,-396 135,-396 129,-390 129,-384 129,-384 129,-372 129,-372 129,-366 135,-360 141,-360 141,-360 171,-360 171,-360 177,-360 183,-366 183,-372 183,-372 183,-384 183,-384 183,-390 177,-396 171,-396"/>
<text text-anchor="middle" x="156" y="-374.3" font-family="Times,serif" font-size="14.00">arg</text>
</g>
<!-- ast.arguments object at 0x7fb0715315a0&#45;&gt;ast.arg object at 0x7fb071531540 -->
<g id="edge3" class="edge">
<title>ast.arguments object at 0x7fb0715315a0&#45;&gt;ast.arg object at 0x7fb071531540</title>
<path fill="none" stroke="black" d="M159.01,-431.7C158.57,-423.98 158.04,-414.71 157.55,-406.11"/>
<polygon fill="black" stroke="black" points="161.04,-405.89 156.98,-396.1 154.05,-406.29 161.04,-405.89"/>
</g>
<!-- ast.Name object at 0x7fb0715314e0 -->
<g id="node6" class="node">
<title>ast.Name object at 0x7fb0715314e0</title>
<path fill="#66cdaa" stroke="black" d="M72,-252C72,-252 42,-252 42,-252 36,-252 30,-246 30,-240 30,-240 30,-228 30,-228 30,-222 36,-216 42,-216 42,-216 72,-216 72,-216 78,-216 84,-222 84,-228 84,-228 84,-240 84,-240 84,-246 78,-252 72,-252"/>
<text text-anchor="middle" x="57" y="-230.3" font-family="Times,serif" font-size="14.00">Name</text>
</g>
<!-- ast.Assign object at 0x7fb071531510&#45;&gt;ast.Name object at 0x7fb0715314e0 -->
<g id="edge5" class="edge">
<title>ast.Assign object at 0x7fb071531510&#45;&gt;ast.Name object at 0x7fb0715314e0</title>
<path fill="none" stroke="black" d="M207.37,-359.87C176.95,-334.6 119.93,-287.25 85.51,-258.68"/>
<polygon fill="black" stroke="black" points="87.63,-255.89 77.7,-252.19 83.16,-261.27 87.63,-255.89"/>
</g>
<!-- ast.ListComp object at 0x7fb071531480 -->
<g id="node8" class="node">
<title>ast.ListComp object at 0x7fb071531480</title>
<path fill="#66cdaa" stroke="black" d="M251.5,-324C251.5,-324 204.5,-324 204.5,-324 198.5,-324 192.5,-318 192.5,-312 192.5,-312 192.5,-300 192.5,-300 192.5,-294 198.5,-288 204.5,-288 204.5,-288 251.5,-288 251.5,-288 257.5,-288 263.5,-294 263.5,-300 263.5,-300 263.5,-312 263.5,-312 263.5,-318 257.5,-324 251.5,-324"/>
<text text-anchor="middle" x="228" y="-302.3" font-family="Times,serif" font-size="14.00">ListComp</text>
</g>
<!-- ast.Assign object at 0x7fb071531510&#45;&gt;ast.ListComp object at 0x7fb071531480 -->
<g id="edge7" class="edge">
<title>ast.Assign object at 0x7fb071531510&#45;&gt;ast.ListComp object at 0x7fb071531480</title>
<path fill="none" stroke="black" d="M228,-359.7C228,-351.98 228,-342.71 228,-334.11"/>
<polygon fill="black" stroke="black" points="231.5,-334.1 228,-324.1 224.5,-334.1 231.5,-334.1"/>
</g>
<!-- ast.Store object at 0x7fb086bedfc0 -->
<g id="node7" class="node">
<title>ast.Store object at 0x7fb086bedfc0</title>
<path fill="#66cdaa" stroke="black" d="M42,-108C42,-108 12,-108 12,-108 6,-108 0,-102 0,-96 0,-96 0,-84 0,-84 0,-78 6,-72 12,-72 12,-72 42,-72 42,-72 48,-72 54,-78 54,-84 54,-84 54,-96 54,-96 54,-102 48,-108 42,-108"/>
<text text-anchor="middle" x="27" y="-86.3" font-family="Times,serif" font-size="14.00">Store</text>
</g>
<!-- ast.Name object at 0x7fb0715314e0&#45;&gt;ast.Store object at 0x7fb086bedfc0 -->
<g id="edge6" class="edge">
<title>ast.Name object at 0x7fb0715314e0&#45;&gt;ast.Store object at 0x7fb086bedfc0</title>
<path fill="none" stroke="black" d="M53.38,-215.87C48.25,-191.56 38.79,-146.82 32.71,-118.01"/>
<polygon fill="black" stroke="black" points="36.12,-117.25 30.63,-108.19 29.27,-118.7 36.12,-117.25"/>
</g>
<!-- ast.Call object at 0x7fb0715314b0 -->
<g id="node9" class="node">
<title>ast.Call object at 0x7fb0715314b0</title>
<path fill="#66cdaa" stroke="black" d="M296,-180C296,-180 266,-180 266,-180 260,-180 254,-174 254,-168 254,-168 254,-156 254,-156 254,-150 260,-144 266,-144 266,-144 296,-144 296,-144 302,-144 308,-150 308,-156 308,-156 308,-168 308,-168 308,-174 302,-180 296,-180"/>
<text text-anchor="middle" x="281" y="-158.3" font-family="Times,serif" font-size="14.00">Call</text>
</g>
<!-- ast.ListComp object at 0x7fb071531480&#45;&gt;ast.Call object at 0x7fb0715314b0 -->
<g id="edge8" class="edge">
<title>ast.ListComp object at 0x7fb071531480&#45;&gt;ast.Call object at 0x7fb0715314b0</title>
<path fill="none" stroke="black" d="M234.39,-287.87C243.51,-263.46 260.31,-218.43 271.06,-189.64"/>
<polygon fill="black" stroke="black" points="274.37,-190.78 274.58,-180.19 267.81,-188.33 274.37,-190.78"/>
</g>
<!-- ast.comprehension object at 0x7fb0715313c0 -->
<g id="node13" class="node">
<title>ast.comprehension object at 0x7fb0715313c0</title>
<path fill="#66cdaa" stroke="black" d="M209,-252C209,-252 133,-252 133,-252 127,-252 121,-246 121,-240 121,-240 121,-228 121,-228 121,-222 127,-216 133,-216 133,-216 209,-216 209,-216 215,-216 221,-222 221,-228 221,-228 221,-240 221,-240 221,-246 215,-252 209,-252"/>
<text text-anchor="middle" x="171" y="-230.3" font-family="Times,serif" font-size="14.00">comprehension</text>
</g>
<!-- ast.ListComp object at 0x7fb071531480&#45;&gt;ast.comprehension object at 0x7fb0715313c0 -->
<g id="edge13" class="edge">
<title>ast.ListComp object at 0x7fb071531480&#45;&gt;ast.comprehension object at 0x7fb0715313c0</title>
<path fill="none" stroke="black" d="M213.91,-287.7C207.08,-279.3 198.74,-269.07 191.24,-259.86"/>
<polygon fill="black" stroke="black" points="193.96,-257.65 184.93,-252.1 188.53,-262.07 193.96,-257.65"/>
</g>
<!-- ast.Name object at 0x7fb071531450 -->
<g id="node10" class="node">
<title>ast.Name object at 0x7fb071531450</title>
<path fill="#66cdaa" stroke="black" d="M368,-108C368,-108 338,-108 338,-108 332,-108 326,-102 326,-96 326,-96 326,-84 326,-84 326,-78 332,-72 338,-72 338,-72 368,-72 368,-72 374,-72 380,-78 380,-84 380,-84 380,-96 380,-96 380,-102 374,-108 368,-108"/>
<text text-anchor="middle" x="353" y="-86.3" font-family="Times,serif" font-size="14.00">Name</text>
</g>
<!-- ast.Call object at 0x7fb0715314b0&#45;&gt;ast.Name object at 0x7fb071531450 -->
<g id="edge9" class="edge">
<title>ast.Call object at 0x7fb0715314b0&#45;&gt;ast.Name object at 0x7fb071531450</title>
<path fill="none" stroke="black" d="M298.8,-143.7C307.6,-135.14 318.38,-124.66 328,-115.3"/>
<polygon fill="black" stroke="black" points="330.68,-117.58 335.41,-108.1 325.8,-112.57 330.68,-117.58"/>
</g>
<!-- ast.Name object at 0x7fb071531420 -->
<g id="node12" class="node">
<title>ast.Name object at 0x7fb071531420</title>
<path fill="#66cdaa" stroke="black" d="M296,-108C296,-108 266,-108 266,-108 260,-108 254,-102 254,-96 254,-96 254,-84 254,-84 254,-78 260,-72 266,-72 266,-72 296,-72 296,-72 302,-72 308,-78 308,-84 308,-84 308,-96 308,-96 308,-102 302,-108 296,-108"/>
<text text-anchor="middle" x="281" y="-86.3" font-family="Times,serif" font-size="14.00">Name</text>
</g>
<!-- ast.Call object at 0x7fb0715314b0&#45;&gt;ast.Name object at 0x7fb071531420 -->
<g id="edge11" class="edge">
<title>ast.Call object at 0x7fb0715314b0&#45;&gt;ast.Name object at 0x7fb071531420</title>
<path fill="none" stroke="black" d="M281,-143.7C281,-135.98 281,-126.71 281,-118.11"/>
<polygon fill="black" stroke="black" points="284.5,-118.1 281,-108.1 277.5,-118.1 284.5,-118.1"/>
</g>
<!-- ast.Load object at 0x7fb086bedf60 -->
<g id="node11" class="node">
<title>ast.Load object at 0x7fb086bedf60</title>
<path fill="#66cdaa" stroke="black" d="M423,-36C423,-36 393,-36 393,-36 387,-36 381,-30 381,-24 381,-24 381,-12 381,-12 381,-6 387,0 393,0 393,0 423,0 423,0 429,0 435,-6 435,-12 435,-12 435,-24 435,-24 435,-30 429,-36 423,-36"/>
<text text-anchor="middle" x="408" y="-14.3" font-family="Times,serif" font-size="14.00">Load</text>
</g>
<!-- ast.Name object at 0x7fb071531450&#45;&gt;ast.Load object at 0x7fb086bedf60 -->
<g id="edge10" class="edge">
<title>ast.Name object at 0x7fb071531450&#45;&gt;ast.Load object at 0x7fb086bedf60</title>
<path fill="none" stroke="black" d="M366.6,-71.7C373.12,-63.39 381.07,-53.28 388.25,-44.14"/>
<polygon fill="black" stroke="black" points="391.13,-46.13 394.56,-36.1 385.63,-41.81 391.13,-46.13"/>
</g>
<!-- ast.Name object at 0x7fb071531420&#45;&gt;ast.Load object at 0x7fb086bedf60 -->
<g id="edge12" class="edge">
<title>ast.Name object at 0x7fb071531420&#45;&gt;ast.Load object at 0x7fb086bedf60</title>
<path fill="none" stroke="black" d="M308.24,-73.98C326.83,-63.74 351.64,-50.07 371.87,-38.92"/>
<polygon fill="black" stroke="black" points="373.73,-41.88 380.8,-33.99 370.35,-35.75 373.73,-41.88"/>
</g>
<!-- ast.Name object at 0x7fb0715313f0 -->
<g id="node14" class="node">
<title>ast.Name object at 0x7fb0715313f0</title>
<path fill="#66cdaa" stroke="black" d="M105,-180C105,-180 75,-180 75,-180 69,-180 63,-174 63,-168 63,-168 63,-156 63,-156 63,-150 69,-144 75,-144 75,-144 105,-144 105,-144 111,-144 117,-150 117,-156 117,-156 117,-168 117,-168 117,-174 111,-180 105,-180"/>
<text text-anchor="middle" x="90" y="-158.3" font-family="Times,serif" font-size="14.00">Name</text>
</g>
<!-- ast.comprehension object at 0x7fb0715313c0&#45;&gt;ast.Name object at 0x7fb0715313f0 -->
<g id="edge14" class="edge">
<title>ast.comprehension object at 0x7fb0715313c0&#45;&gt;ast.Name object at 0x7fb0715313f0</title>
<path fill="none" stroke="black" d="M150.98,-215.7C140.87,-206.97 128.46,-196.24 117.48,-186.75"/>
<polygon fill="black" stroke="black" points="119.65,-183.99 109.79,-180.1 115.07,-189.29 119.65,-183.99"/>
</g>
<!-- ast.Subscript object at 0x7fb071531390 -->
<g id="node15" class="node">
<title>ast.Subscript object at 0x7fb071531390</title>
<path fill="#66cdaa" stroke="black" d="M193,-180C193,-180 149,-180 149,-180 143,-180 137,-174 137,-168 137,-168 137,-156 137,-156 137,-150 143,-144 149,-144 149,-144 193,-144 193,-144 199,-144 205,-150 205,-156 205,-156 205,-168 205,-168 205,-174 199,-180 193,-180"/>
<text text-anchor="middle" x="171" y="-158.3" font-family="Times,serif" font-size="14.00">Subscript</text>
</g>
<!-- ast.comprehension object at 0x7fb0715313c0&#45;&gt;ast.Subscript object at 0x7fb071531390 -->
<g id="edge16" class="edge">
<title>ast.comprehension object at 0x7fb0715313c0&#45;&gt;ast.Subscript object at 0x7fb071531390</title>
<path fill="none" stroke="black" d="M171,-215.7C171,-207.98 171,-198.71 171,-190.11"/>
<polygon fill="black" stroke="black" points="174.5,-190.1 171,-180.1 167.5,-190.1 174.5,-190.1"/>
</g>
<!-- ast.Name object at 0x7fb0715313f0&#45;&gt;ast.Store object at 0x7fb086bedfc0 -->
<g id="edge15" class="edge">
<title>ast.Name object at 0x7fb0715313f0&#45;&gt;ast.Store object at 0x7fb086bedfc0</title>
<path fill="none" stroke="black" d="M74.43,-143.7C66.8,-135.22 57.48,-124.86 49.12,-115.58"/>
<polygon fill="black" stroke="black" points="51.69,-113.2 42.39,-108.1 46.48,-117.88 51.69,-113.2"/>
</g>
<!-- ast.Subscript object at 0x7fb071531390&#45;&gt;ast.Load object at 0x7fb086bedf60 -->
<g id="edge22" class="edge">
<title>ast.Subscript object at 0x7fb071531390&#45;&gt;ast.Load object at 0x7fb086bedf60</title>
<path fill="none" stroke="black" d="M183.59,-143.66C200.54,-120.7 230.28,-81.98 245,-72 283.5,-45.9 335.77,-31.91 370.62,-24.98"/>
<polygon fill="black" stroke="black" points="371.67,-28.34 380.85,-23.04 370.37,-21.46 371.67,-28.34"/>
</g>
<!-- ast.Name object at 0x7fb071531360 -->
<g id="node16" class="node">
<title>ast.Name object at 0x7fb071531360</title>
<path fill="#66cdaa" stroke="black" d="M186,-108C186,-108 156,-108 156,-108 150,-108 144,-102 144,-96 144,-96 144,-84 144,-84 144,-78 150,-72 156,-72 156,-72 186,-72 186,-72 192,-72 198,-78 198,-84 198,-84 198,-96 198,-96 198,-102 192,-108 186,-108"/>
<text text-anchor="middle" x="171" y="-86.3" font-family="Times,serif" font-size="14.00">Name</text>
</g>
<!-- ast.Subscript object at 0x7fb071531390&#45;&gt;ast.Name object at 0x7fb071531360 -->
<g id="edge17" class="edge">
<title>ast.Subscript object at 0x7fb071531390&#45;&gt;ast.Name object at 0x7fb071531360</title>
<path fill="none" stroke="black" d="M171,-143.7C171,-135.98 171,-126.71 171,-118.11"/>
<polygon fill="black" stroke="black" points="174.5,-118.1 171,-108.1 167.5,-118.1 174.5,-118.1"/>
</g>
<!-- ast.Slice object at 0x7fb071531300 -->
<g id="node17" class="node">
<title>ast.Slice object at 0x7fb071531300</title>
<path fill="#66cdaa" stroke="black" d="M114,-108C114,-108 84,-108 84,-108 78,-108 72,-102 72,-96 72,-96 72,-84 72,-84 72,-78 78,-72 84,-72 84,-72 114,-72 114,-72 120,-72 126,-78 126,-84 126,-84 126,-96 126,-96 126,-102 120,-108 114,-108"/>
<text text-anchor="middle" x="99" y="-86.3" font-family="Times,serif" font-size="14.00">Slice</text>
</g>
<!-- ast.Subscript object at 0x7fb071531390&#45;&gt;ast.Slice object at 0x7fb071531300 -->
<g id="edge19" class="edge">
<title>ast.Subscript object at 0x7fb071531390&#45;&gt;ast.Slice object at 0x7fb071531300</title>
<path fill="none" stroke="black" d="M153.2,-143.7C144.4,-135.14 133.62,-124.66 124,-115.3"/>
<polygon fill="black" stroke="black" points="126.2,-112.57 116.59,-108.1 121.32,-117.58 126.2,-112.57"/>
</g>
<!-- ast.Name object at 0x7fb071531360&#45;&gt;ast.Load object at 0x7fb086bedf60 -->
<g id="edge18" class="edge">
<title>ast.Name object at 0x7fb071531360&#45;&gt;ast.Load object at 0x7fb086bedf60</title>
<path fill="none" stroke="black" d="M198.16,-77.16C202.74,-75.33 207.48,-73.54 212,-72 266.48,-53.43 331.2,-36.98 370.93,-27.51"/>
<polygon fill="black" stroke="black" points="371.79,-30.9 380.72,-25.2 370.18,-24.09 371.79,-30.9"/>
</g>
<!-- ast.Constant object at 0x7fb0715312d0 -->
<g id="node18" class="node">
<title>ast.Constant object at 0x7fb0715312d0</title>
<path fill="#66cdaa" stroke="black" d="M77.5,-36C77.5,-36 36.5,-36 36.5,-36 30.5,-36 24.5,-30 24.5,-24 24.5,-24 24.5,-12 24.5,-12 24.5,-6 30.5,0 36.5,0 36.5,0 77.5,0 77.5,0 83.5,0 89.5,-6 89.5,-12 89.5,-12 89.5,-24 89.5,-24 89.5,-30 83.5,-36 77.5,-36"/>
<text text-anchor="middle" x="57" y="-14.3" font-family="Times,serif" font-size="14.00">Constant</text>
</g>
<!-- ast.Slice object at 0x7fb071531300&#45;&gt;ast.Constant object at 0x7fb0715312d0 -->
<g id="edge20" class="edge">
<title>ast.Slice object at 0x7fb071531300&#45;&gt;ast.Constant object at 0x7fb0715312d0</title>
<path fill="none" stroke="black" d="M88.62,-71.7C83.74,-63.56 77.81,-53.69 72.42,-44.7"/>
<polygon fill="black" stroke="black" points="75.41,-42.88 67.26,-36.1 69.41,-46.48 75.41,-42.88"/>
</g>
<!-- ast.Constant object at 0x7fb0715312a0 -->
<g id="node19" class="node">
<title>ast.Constant object at 0x7fb0715312a0</title>
<path fill="#66cdaa" stroke="black" d="M160.5,-36C160.5,-36 119.5,-36 119.5,-36 113.5,-36 107.5,-30 107.5,-24 107.5,-24 107.5,-12 107.5,-12 107.5,-6 113.5,0 119.5,0 119.5,0 160.5,0 160.5,0 166.5,0 172.5,-6 172.5,-12 172.5,-12 172.5,-24 172.5,-24 172.5,-30 166.5,-36 160.5,-36"/>
<text text-anchor="middle" x="140" y="-14.3" font-family="Times,serif" font-size="14.00">Constant</text>
</g>
<!-- ast.Slice object at 0x7fb071531300&#45;&gt;ast.Constant object at 0x7fb0715312a0 -->
<g id="edge21" class="edge">
<title>ast.Slice object at 0x7fb071531300&#45;&gt;ast.Constant object at 0x7fb0715312a0</title>
<path fill="none" stroke="black" d="M109.13,-71.7C113.85,-63.64 119.56,-53.89 124.78,-44.98"/>
<polygon fill="black" stroke="black" points="127.95,-46.5 129.98,-36.1 121.91,-42.96 127.95,-46.5"/>
</g>
<!-- ast.Call object at 0x7fb0715317b0 -->
<g id="node21" class="node">
<title>ast.Call object at 0x7fb0715317b0</title>
<path fill="#66cdaa" stroke="black" d="M423,-396C423,-396 393,-396 393,-396 387,-396 381,-390 381,-384 381,-384 381,-372 381,-372 381,-366 387,-360 393,-360 393,-360 423,-360 423,-360 429,-360 435,-366 435,-372 435,-372 435,-384 435,-384 435,-390 429,-396 423,-396"/>
<text text-anchor="middle" x="408" y="-374.3" font-family="Times,serif" font-size="14.00">Call</text>
</g>
<!-- ast.Return object at 0x7fb071530e80&#45;&gt;ast.Call object at 0x7fb0715317b0 -->
<g id="edge24" class="edge">
<title>ast.Return object at 0x7fb071530e80&#45;&gt;ast.Call object at 0x7fb0715317b0</title>
<path fill="none" stroke="black" d="M341,-431.7C352.21,-422.88 366,-412.03 378.15,-402.47"/>
<polygon fill="black" stroke="black" points="380.56,-405.04 386.25,-396.1 376.23,-399.54 380.56,-405.04"/>
</g>
<!-- ast.Name object at 0x7fb0715316c0 -->
<g id="node22" class="node">
<title>ast.Name object at 0x7fb0715316c0</title>
<path fill="#66cdaa" stroke="black" d="M423,-324C423,-324 393,-324 393,-324 387,-324 381,-318 381,-312 381,-312 381,-300 381,-300 381,-294 387,-288 393,-288 393,-288 423,-288 423,-288 429,-288 435,-294 435,-300 435,-300 435,-312 435,-312 435,-318 429,-324 423,-324"/>
<text text-anchor="middle" x="408" y="-302.3" font-family="Times,serif" font-size="14.00">Name</text>
</g>
<!-- ast.Call object at 0x7fb0715317b0&#45;&gt;ast.Name object at 0x7fb0715316c0 -->
<g id="edge25" class="edge">
<title>ast.Call object at 0x7fb0715317b0&#45;&gt;ast.Name object at 0x7fb0715316c0</title>
<path fill="none" stroke="black" d="M408,-359.7C408,-351.98 408,-342.71 408,-334.11"/>
<polygon fill="black" stroke="black" points="411.5,-334.1 408,-324.1 404.5,-334.1 411.5,-334.1"/>
</g>
<!-- ast.Subscript object at 0x7fb071531750 -->
<g id="node23" class="node">
<title>ast.Subscript object at 0x7fb071531750</title>
<path fill="#66cdaa" stroke="black" d="M550,-324C550,-324 506,-324 506,-324 500,-324 494,-318 494,-312 494,-312 494,-300 494,-300 494,-294 500,-288 506,-288 506,-288 550,-288 550,-288 556,-288 562,-294 562,-300 562,-300 562,-312 562,-312 562,-318 556,-324 550,-324"/>
<text text-anchor="middle" x="528" y="-302.3" font-family="Times,serif" font-size="14.00">Subscript</text>
</g>
<!-- ast.Call object at 0x7fb0715317b0&#45;&gt;ast.Subscript object at 0x7fb071531750 -->
<g id="edge27" class="edge">
<title>ast.Call object at 0x7fb0715317b0&#45;&gt;ast.Subscript object at 0x7fb071531750</title>
<path fill="none" stroke="black" d="M435.23,-361.12C451.36,-351.7 472.06,-339.63 489.81,-329.28"/>
<polygon fill="black" stroke="black" points="491.91,-332.11 498.78,-324.04 488.38,-326.06 491.91,-332.11"/>
</g>
<!-- ast.Name object at 0x7fb0715316c0&#45;&gt;ast.Load object at 0x7fb086bedf60 -->
<g id="edge26" class="edge">
<title>ast.Name object at 0x7fb0715316c0&#45;&gt;ast.Load object at 0x7fb086bedf60</title>
<path fill="none" stroke="black" d="M408,-287.97C408,-240.29 408,-105.18 408,-46.63"/>
<polygon fill="black" stroke="black" points="411.5,-46.31 408,-36.31 404.5,-46.31 411.5,-46.31"/>
</g>
<!-- ast.Subscript object at 0x7fb071531750&#45;&gt;ast.Load object at 0x7fb086bedf60 -->
<g id="edge37" class="edge">
<title>ast.Subscript object at 0x7fb071531750&#45;&gt;ast.Load object at 0x7fb086bedf60</title>
<path fill="none" stroke="black" d="M562.07,-292.08C579.46,-283.55 599.01,-270.48 609,-252 647.29,-181.2 643.22,-131.5 589,-72 552.28,-31.7 486.76,-21.4 445.43,-19.13"/>
<polygon fill="black" stroke="black" points="445.36,-15.62 435.22,-18.7 445.07,-22.62 445.36,-15.62"/>
</g>
<!-- ast.Call object at 0x7fb071531720 -->
<g id="node24" class="node">
<title>ast.Call object at 0x7fb071531720</title>
<path fill="#66cdaa" stroke="black" d="M504,-252C504,-252 474,-252 474,-252 468,-252 462,-246 462,-240 462,-240 462,-228 462,-228 462,-222 468,-216 474,-216 474,-216 504,-216 504,-216 510,-216 516,-222 516,-228 516,-228 516,-240 516,-240 516,-246 510,-252 504,-252"/>
<text text-anchor="middle" x="489" y="-230.3" font-family="Times,serif" font-size="14.00">Call</text>
</g>
<!-- ast.Subscript object at 0x7fb071531750&#45;&gt;ast.Call object at 0x7fb071531720 -->
<g id="edge28" class="edge">
<title>ast.Subscript object at 0x7fb071531750&#45;&gt;ast.Call object at 0x7fb071531720</title>
<path fill="none" stroke="black" d="M518.36,-287.7C513.87,-279.64 508.44,-269.89 503.48,-260.98"/>
<polygon fill="black" stroke="black" points="506.45,-259.14 498.53,-252.1 500.34,-262.54 506.45,-259.14"/>
</g>
<!-- ast.Constant object at 0x7fb0715317e0 -->
<g id="node29" class="node">
<title>ast.Constant object at 0x7fb0715317e0</title>
<path fill="#66cdaa" stroke="black" d="M587.5,-252C587.5,-252 546.5,-252 546.5,-252 540.5,-252 534.5,-246 534.5,-240 534.5,-240 534.5,-228 534.5,-228 534.5,-222 540.5,-216 546.5,-216 546.5,-216 587.5,-216 587.5,-216 593.5,-216 599.5,-222 599.5,-228 599.5,-228 599.5,-240 599.5,-240 599.5,-246 593.5,-252 587.5,-252"/>
<text text-anchor="middle" x="567" y="-230.3" font-family="Times,serif" font-size="14.00">Constant</text>
</g>
<!-- ast.Subscript object at 0x7fb071531750&#45;&gt;ast.Constant object at 0x7fb0715317e0 -->
<g id="edge36" class="edge">
<title>ast.Subscript object at 0x7fb071531750&#45;&gt;ast.Constant object at 0x7fb0715317e0</title>
<path fill="none" stroke="black" d="M537.64,-287.7C542.13,-279.64 547.56,-269.89 552.52,-260.98"/>
<polygon fill="black" stroke="black" points="555.66,-262.54 557.47,-252.1 549.55,-259.14 555.66,-262.54"/>
</g>
<!-- ast.Name object at 0x7fb0715316f0 -->
<g id="node25" class="node">
<title>ast.Name object at 0x7fb0715316f0</title>
<path fill="#66cdaa" stroke="black" d="M582,-180C582,-180 552,-180 552,-180 546,-180 540,-174 540,-168 540,-168 540,-156 540,-156 540,-150 546,-144 552,-144 552,-144 582,-144 582,-144 588,-144 594,-150 594,-156 594,-156 594,-168 594,-168 594,-174 588,-180 582,-180"/>
<text text-anchor="middle" x="567" y="-158.3" font-family="Times,serif" font-size="14.00">Name</text>
</g>
<!-- ast.Call object at 0x7fb071531720&#45;&gt;ast.Name object at 0x7fb0715316f0 -->
<g id="edge29" class="edge">
<title>ast.Call object at 0x7fb071531720&#45;&gt;ast.Name object at 0x7fb0715316f0</title>
<path fill="none" stroke="black" d="M508.28,-215.7C517.92,-207.05 529.73,-196.45 540.23,-187.03"/>
<polygon fill="black" stroke="black" points="542.84,-189.39 547.94,-180.1 538.16,-184.18 542.84,-189.39"/>
</g>
<!-- ast.Call object at 0x7fb071531660 -->
<g id="node26" class="node">
<title>ast.Call object at 0x7fb071531660</title>
<path fill="#66cdaa" stroke="black" d="M504,-180C504,-180 474,-180 474,-180 468,-180 462,-174 462,-168 462,-168 462,-156 462,-156 462,-150 468,-144 474,-144 474,-144 504,-144 504,-144 510,-144 516,-150 516,-156 516,-156 516,-168 516,-168 516,-174 510,-180 504,-180"/>
<text text-anchor="middle" x="489" y="-158.3" font-family="Times,serif" font-size="14.00">Call</text>
</g>
<!-- ast.Call object at 0x7fb071531720&#45;&gt;ast.Call object at 0x7fb071531660 -->
<g id="edge31" class="edge">
<title>ast.Call object at 0x7fb071531720&#45;&gt;ast.Call object at 0x7fb071531660</title>
<path fill="none" stroke="black" d="M489,-215.7C489,-207.98 489,-198.71 489,-190.11"/>
<polygon fill="black" stroke="black" points="492.5,-190.1 489,-180.1 485.5,-190.1 492.5,-190.1"/>
</g>
<!-- ast.Name object at 0x7fb0715316f0&#45;&gt;ast.Load object at 0x7fb086bedf60 -->
<g id="edge30" class="edge">
<title>ast.Name object at 0x7fb0715316f0&#45;&gt;ast.Load object at 0x7fb086bedf60</title>
<path fill="none" stroke="black" d="M573.62,-143.79C579.85,-124.41 586.18,-92.9 571,-72 542.47,-32.72 484.09,-21.98 445.51,-19.36"/>
<polygon fill="black" stroke="black" points="445.36,-15.84 435.19,-18.82 444.99,-22.83 445.36,-15.84"/>
</g>
<!-- ast.Name object at 0x7fb071531690 -->
<g id="node27" class="node">
<title>ast.Name object at 0x7fb071531690</title>
<path fill="#66cdaa" stroke="black" d="M550,-108C550,-108 520,-108 520,-108 514,-108 508,-102 508,-96 508,-96 508,-84 508,-84 508,-78 514,-72 520,-72 520,-72 550,-72 550,-72 556,-72 562,-78 562,-84 562,-84 562,-96 562,-96 562,-102 556,-108 550,-108"/>
<text text-anchor="middle" x="535" y="-86.3" font-family="Times,serif" font-size="14.00">Name</text>
</g>
<!-- ast.Call object at 0x7fb071531660&#45;&gt;ast.Name object at 0x7fb071531690 -->
<g id="edge32" class="edge">
<title>ast.Call object at 0x7fb071531660&#45;&gt;ast.Name object at 0x7fb071531690</title>
<path fill="none" stroke="black" d="M500.37,-143.7C505.72,-135.56 512.2,-125.69 518.11,-116.7"/>
<polygon fill="black" stroke="black" points="521.19,-118.38 523.76,-108.1 515.34,-114.54 521.19,-118.38"/>
</g>
<!-- ast.Name object at 0x7fb071531270 -->
<g id="node28" class="node">
<title>ast.Name object at 0x7fb071531270</title>
<path fill="#66cdaa" stroke="black" d="M478,-108C478,-108 448,-108 448,-108 442,-108 436,-102 436,-96 436,-96 436,-84 436,-84 436,-78 442,-72 448,-72 448,-72 478,-72 478,-72 484,-72 490,-78 490,-84 490,-84 490,-96 490,-96 490,-102 484,-108 478,-108"/>
<text text-anchor="middle" x="463" y="-86.3" font-family="Times,serif" font-size="14.00">Name</text>
</g>
<!-- ast.Call object at 0x7fb071531660&#45;&gt;ast.Name object at 0x7fb071531270 -->
<g id="edge34" class="edge">
<title>ast.Call object at 0x7fb071531660&#45;&gt;ast.Name object at 0x7fb071531270</title>
<path fill="none" stroke="black" d="M482.57,-143.7C479.64,-135.81 476.11,-126.3 472.86,-117.55"/>
<polygon fill="black" stroke="black" points="476.12,-116.26 469.35,-108.1 469.55,-118.7 476.12,-116.26"/>
</g>
<!-- ast.Name object at 0x7fb071531690&#45;&gt;ast.Load object at 0x7fb086bedf60 -->
<g id="edge33" class="edge">
<title>ast.Name object at 0x7fb071531690&#45;&gt;ast.Load object at 0x7fb086bedf60</title>
<path fill="none" stroke="black" d="M507.76,-73.98C489.17,-63.74 464.36,-50.07 444.13,-38.92"/>
<polygon fill="black" stroke="black" points="445.65,-35.75 435.2,-33.99 442.27,-41.88 445.65,-35.75"/>
</g>
<!-- ast.Name object at 0x7fb071531270&#45;&gt;ast.Load object at 0x7fb086bedf60 -->
<g id="edge35" class="edge">
<title>ast.Name object at 0x7fb071531270&#45;&gt;ast.Load object at 0x7fb086bedf60</title>
<path fill="none" stroke="black" d="M449.4,-71.7C442.88,-63.39 434.93,-53.28 427.75,-44.14"/>
<polygon fill="black" stroke="black" points="430.37,-41.81 421.44,-36.1 424.87,-46.13 430.37,-41.81"/>
</g>
</g>
</svg>
