<?xml version="1.0" encoding="UTF-8" standalone="no"?>
<!DOCTYPE svg PUBLIC "-//W3C//DTD SVG 1.1//EN"
 "http://www.w3.org/Graphics/SVG/1.1/DTD/svg11.dtd">
<!-- Generated by graphviz version 2.43.0 (0)
 -->
<!-- Title: %3 Pages: 1 -->
<svg width="1355pt" height="620pt"
 viewBox="0.00 0.00 1354.50 620.00" xmlns="http://www.w3.org/2000/svg" xmlns:xlink="http://www.w3.org/1999/xlink">
<g id="graph0" class="graph" transform="scale(1 1) rotate(0) translate(4 616)">
<title>%3</title>
<polygon fill="white" stroke="transparent" points="-4,4 -4,-616 1350.5,-616 1350.5,4 -4,4"/>
<!-- ast.Module object at 0x7f3c5db966e0 -->
<g id="node1" class="node">
<title>ast.Module object at 0x7f3c5db966e0</title>
<path fill="#66cdaa" stroke="black" d="M209,-612C209,-612 163,-612 163,-612 157,-612 151,-606 151,-600 151,-600 151,-588 151,-588 151,-582 157,-576 163,-576 163,-576 209,-576 209,-576 215,-576 221,-582 221,-588 221,-588 221,-600 221,-600 221,-606 215,-612 209,-612"/>
<text text-anchor="middle" x="186" y="-590.3" font-family="Times,serif" font-size="14.00">Module</text>
</g>
<!-- ast.FunctionDef object at 0x7f3c5db94940 -->
<g id="node2" class="node">
<title>ast.FunctionDef object at 0x7f3c5db94940</title>
<path fill="#66cdaa" stroke="black" d="M226,-540C226,-540 146,-540 146,-540 140,-540 134,-534 134,-528 134,-528 134,-516 134,-516 134,-510 140,-504 146,-504 146,-504 226,-504 226,-504 232,-504 238,-510 238,-516 238,-516 238,-528 238,-528 238,-534 232,-540 226,-540"/>
<text text-anchor="middle" x="186" y="-518.3" font-family="Times,serif" font-size="14.00">FunctionDef</text>
</g>
<!-- ast.Module object at 0x7f3c5db966e0&#45;&gt;ast.FunctionDef object at 0x7f3c5db94940 -->
<g id="edge1" class="edge">
<title>ast.Module object at 0x7f3c5db966e0&#45;&gt;ast.FunctionDef object at 0x7f3c5db94940</title>
<path fill="none" stroke="black" d="M186,-575.7C186,-567.98 186,-558.71 186,-550.11"/>
<polygon fill="black" stroke="black" points="189.5,-550.1 186,-540.1 182.5,-550.1 189.5,-550.1"/>
</g>
<!-- ast.arguments object at 0x7f3c5b882680 -->
<g id="node3" class="node">
<title>ast.arguments object at 0x7f3c5b882680</title>
<path fill="#66cdaa" stroke="black" d="M82,-468C82,-468 12,-468 12,-468 6,-468 0,-462 0,-456 0,-456 0,-444 0,-444 0,-438 6,-432 12,-432 12,-432 82,-432 82,-432 88,-432 94,-438 94,-444 94,-444 94,-456 94,-456 94,-462 88,-468 82,-468"/>
<text text-anchor="middle" x="47" y="-446.3" font-family="Times,serif" font-size="14.00">arguments</text>
</g>
<!-- ast.FunctionDef object at 0x7f3c5db94940&#45;&gt;ast.arguments object at 0x7f3c5b882680 -->
<g id="edge2" class="edge">
<title>ast.FunctionDef object at 0x7f3c5db94940&#45;&gt;ast.arguments object at 0x7f3c5b882680</title>
<path fill="none" stroke="black" d="M152,-503.88C133.4,-494.51 110.17,-482.81 90.29,-472.8"/>
<polygon fill="black" stroke="black" points="91.64,-469.56 81.13,-468.19 88.49,-475.81 91.64,-469.56"/>
</g>
<!-- ast.Assign object at 0x7f3c5b8823e0 -->
<g id="node5" class="node">
<title>ast.Assign object at 0x7f3c5b8823e0</title>
<path fill="#66cdaa" stroke="black" d="M248,-468C248,-468 208,-468 208,-468 202,-468 196,-462 196,-456 196,-456 196,-444 196,-444 196,-438 202,-432 208,-432 208,-432 248,-432 248,-432 254,-432 260,-438 260,-444 260,-444 260,-456 260,-456 260,-462 254,-468 248,-468"/>
<text text-anchor="middle" x="228" y="-446.3" font-family="Times,serif" font-size="14.00">Assign</text>
</g>
<!-- ast.FunctionDef object at 0x7f3c5db94940&#45;&gt;ast.Assign object at 0x7f3c5b8823e0 -->
<g id="edge4" class="edge">
<title>ast.FunctionDef object at 0x7f3c5db94940&#45;&gt;ast.Assign object at 0x7f3c5b8823e0</title>
<path fill="none" stroke="black" d="M196.38,-503.7C201.26,-495.56 207.19,-485.69 212.58,-476.7"/>
<polygon fill="black" stroke="black" points="215.59,-478.48 217.74,-468.1 209.59,-474.88 215.59,-478.48"/>
</g>
<!-- ast.For object at 0x7f3c5b880790 -->
<g id="node10" class="node">
<title>ast.For object at 0x7f3c5b880790</title>
<path fill="#66cdaa" stroke="black" d="M373,-468C373,-468 343,-468 343,-468 337,-468 331,-462 331,-456 331,-456 331,-444 331,-444 331,-438 337,-432 343,-432 343,-432 373,-432 373,-432 379,-432 385,-438 385,-444 385,-444 385,-456 385,-456 385,-462 379,-468 373,-468"/>
<text text-anchor="middle" x="358" y="-446.3" font-family="Times,serif" font-size="14.00">For</text>
</g>
<!-- ast.FunctionDef object at 0x7f3c5db94940&#45;&gt;ast.For object at 0x7f3c5b880790 -->
<g id="edge9" class="edge">
<title>ast.FunctionDef object at 0x7f3c5db94940&#45;&gt;ast.For object at 0x7f3c5b880790</title>
<path fill="none" stroke="black" d="M228.08,-503.88C256.6,-492.27 293.93,-477.08 321.25,-465.95"/>
<polygon fill="black" stroke="black" points="322.89,-469.07 330.83,-462.06 320.25,-462.58 322.89,-469.07"/>
</g>
<!-- ast.Return object at 0x7f3c5b880730 -->
<g id="node37" class="node">
<title>ast.Return object at 0x7f3c5b880730</title>
<path fill="#66cdaa" stroke="black" d="M166,-468C166,-468 124,-468 124,-468 118,-468 112,-462 112,-456 112,-456 112,-444 112,-444 112,-438 118,-432 124,-432 124,-432 166,-432 166,-432 172,-432 178,-438 178,-444 178,-444 178,-456 178,-456 178,-462 172,-468 166,-468"/>
<text text-anchor="middle" x="145" y="-446.3" font-family="Times,serif" font-size="14.00">Return</text>
</g>
<!-- ast.FunctionDef object at 0x7f3c5db94940&#45;&gt;ast.Return object at 0x7f3c5b880730 -->
<g id="edge45" class="edge">
<title>ast.FunctionDef object at 0x7f3c5db94940&#45;&gt;ast.Return object at 0x7f3c5b880730</title>
<path fill="none" stroke="black" d="M175.87,-503.7C171.15,-495.64 165.44,-485.89 160.22,-476.98"/>
<polygon fill="black" stroke="black" points="163.09,-474.96 155.02,-468.1 157.05,-478.5 163.09,-474.96"/>
</g>
<!-- ast.arg object at 0x7f3c5b881b40 -->
<g id="node4" class="node">
<title>ast.arg object at 0x7f3c5b881b40</title>
<path fill="#66cdaa" stroke="black" d="M62,-396C62,-396 32,-396 32,-396 26,-396 20,-390 20,-384 20,-384 20,-372 20,-372 20,-366 26,-360 32,-360 32,-360 62,-360 62,-360 68,-360 74,-366 74,-372 74,-372 74,-384 74,-384 74,-390 68,-396 62,-396"/>
<text text-anchor="middle" x="47" y="-374.3" font-family="Times,serif" font-size="14.00">arg</text>
</g>
<!-- ast.arguments object at 0x7f3c5b882680&#45;&gt;ast.arg object at 0x7f3c5b881b40 -->
<g id="edge3" class="edge">
<title>ast.arguments object at 0x7f3c5b882680&#45;&gt;ast.arg object at 0x7f3c5b881b40</title>
<path fill="none" stroke="black" d="M47,-431.7C47,-423.98 47,-414.71 47,-406.11"/>
<polygon fill="black" stroke="black" points="50.5,-406.1 47,-396.1 43.5,-406.1 50.5,-406.1"/>
</g>
<!-- ast.Name object at 0x7f3c5b880040 -->
<g id="node6" class="node">
<title>ast.Name object at 0x7f3c5b880040</title>
<path fill="#66cdaa" stroke="black" d="M261.5,-396C261.5,-396 226.5,-396 226.5,-396 220.5,-396 214.5,-390 214.5,-384 214.5,-384 214.5,-372 214.5,-372 214.5,-366 220.5,-360 226.5,-360 226.5,-360 261.5,-360 261.5,-360 267.5,-360 273.5,-366 273.5,-372 273.5,-372 273.5,-384 273.5,-384 273.5,-390 267.5,-396 261.5,-396"/>
<text text-anchor="middle" x="244" y="-374.3" font-family="Times,serif" font-size="14.00">Name</text>
</g>
<!-- ast.Assign object at 0x7f3c5b8823e0&#45;&gt;ast.Name object at 0x7f3c5b880040 -->
<g id="edge5" class="edge">
<title>ast.Assign object at 0x7f3c5b8823e0&#45;&gt;ast.Name object at 0x7f3c5b880040</title>
<path fill="none" stroke="black" d="M231.96,-431.7C233.72,-423.98 235.84,-414.71 237.8,-406.11"/>
<polygon fill="black" stroke="black" points="241.27,-406.63 240.09,-396.1 234.45,-405.07 241.27,-406.63"/>
</g>
<!-- ast.List object at 0x7f3c5b882890 -->
<g id="node8" class="node">
<title>ast.List object at 0x7f3c5b882890</title>
<path fill="#66cdaa" stroke="black" d="M201,-324C201,-324 171,-324 171,-324 165,-324 159,-318 159,-312 159,-312 159,-300 159,-300 159,-294 165,-288 171,-288 171,-288 201,-288 201,-288 207,-288 213,-294 213,-300 213,-300 213,-312 213,-312 213,-318 207,-324 201,-324"/>
<text text-anchor="middle" x="186" y="-302.3" font-family="Times,serif" font-size="14.00">List</text>
</g>
<!-- ast.Assign object at 0x7f3c5b8823e0&#45;&gt;ast.List object at 0x7f3c5b882890 -->
<g id="edge7" class="edge">
<title>ast.Assign object at 0x7f3c5b8823e0&#45;&gt;ast.List object at 0x7f3c5b882890</title>
<path fill="none" stroke="black" d="M219.44,-431.67C214.67,-421.48 208.92,-408.23 205,-396 198.51,-375.72 193.58,-352.12 190.38,-334.32"/>
<polygon fill="black" stroke="black" points="193.8,-333.58 188.65,-324.33 186.9,-334.78 193.8,-333.58"/>
</g>
<!-- ast.Store object at 0x7f3c73cad780 -->
<g id="node7" class="node">
<title>ast.Store object at 0x7f3c73cad780</title>
<path fill="#66cdaa" stroke="black" d="M306,-324C306,-324 274,-324 274,-324 268,-324 262,-318 262,-312 262,-312 262,-300 262,-300 262,-294 268,-288 274,-288 274,-288 306,-288 306,-288 312,-288 318,-294 318,-300 318,-300 318,-312 318,-312 318,-318 312,-324 306,-324"/>
<text text-anchor="middle" x="290" y="-302.3" font-family="Times,serif" font-size="14.00">Store</text>
</g>
<!-- ast.Name object at 0x7f3c5b880040&#45;&gt;ast.Store object at 0x7f3c73cad780 -->
<g id="edge6" class="edge">
<title>ast.Name object at 0x7f3c5b880040&#45;&gt;ast.Store object at 0x7f3c73cad780</title>
<path fill="none" stroke="black" d="M255.37,-359.7C260.72,-351.56 267.2,-341.69 273.11,-332.7"/>
<polygon fill="black" stroke="black" points="276.19,-334.38 278.76,-324.1 270.34,-330.54 276.19,-334.38"/>
</g>
<!-- ast.Load object at 0x7f3c73cad720 -->
<g id="node9" class="node">
<title>ast.Load object at 0x7f3c73cad720</title>
<path fill="#66cdaa" stroke="black" d="M460,-36C460,-36 430,-36 430,-36 424,-36 418,-30 418,-24 418,-24 418,-12 418,-12 418,-6 424,0 430,0 430,0 460,0 460,0 466,0 472,-6 472,-12 472,-12 472,-24 472,-24 472,-30 466,-36 460,-36"/>
<text text-anchor="middle" x="445" y="-14.3" font-family="Times,serif" font-size="14.00">Load</text>
</g>
<!-- ast.List object at 0x7f3c5b882890&#45;&gt;ast.Load object at 0x7f3c73cad720 -->
<g id="edge8" class="edge">
<title>ast.List object at 0x7f3c5b882890&#45;&gt;ast.Load object at 0x7f3c73cad720</title>
<path fill="none" stroke="black" d="M184.37,-287.73C181.22,-243.1 179.93,-123.77 249,-72 296.2,-36.63 365.43,-24.85 407.73,-20.94"/>
<polygon fill="black" stroke="black" points="408.19,-24.41 417.87,-20.1 407.62,-17.44 408.19,-24.41"/>
</g>
<!-- ast.Name object at 0x7f3c5b882e00 -->
<g id="node11" class="node">
<title>ast.Name object at 0x7f3c5b882e00</title>
<path fill="#66cdaa" stroke="black" d="M338.5,-396C338.5,-396 303.5,-396 303.5,-396 297.5,-396 291.5,-390 291.5,-384 291.5,-384 291.5,-372 291.5,-372 291.5,-366 297.5,-360 303.5,-360 303.5,-360 338.5,-360 338.5,-360 344.5,-360 350.5,-366 350.5,-372 350.5,-372 350.5,-384 350.5,-384 350.5,-390 344.5,-396 338.5,-396"/>
<text text-anchor="middle" x="321" y="-374.3" font-family="Times,serif" font-size="14.00">Name</text>
</g>
<!-- ast.For object at 0x7f3c5b880790&#45;&gt;ast.Name object at 0x7f3c5b882e00 -->
<g id="edge10" class="edge">
<title>ast.For object at 0x7f3c5b880790&#45;&gt;ast.Name object at 0x7f3c5b882e00</title>
<path fill="none" stroke="black" d="M348.85,-431.7C344.6,-423.64 339.44,-413.89 334.73,-404.98"/>
<polygon fill="black" stroke="black" points="337.81,-403.31 330.04,-396.1 331.62,-406.58 337.81,-403.31"/>
</g>
<!-- ast.Subscript object at 0x7f3c5b880a60 -->
<g id="node12" class="node">
<title>ast.Subscript object at 0x7f3c5b880a60</title>
<path fill="#66cdaa" stroke="black" d="M1204,-180C1204,-180 1142,-180 1142,-180 1136,-180 1130,-174 1130,-168 1130,-168 1130,-156 1130,-156 1130,-150 1136,-144 1142,-144 1142,-144 1204,-144 1204,-144 1210,-144 1216,-150 1216,-156 1216,-156 1216,-168 1216,-168 1216,-174 1210,-180 1204,-180"/>
<text text-anchor="middle" x="1173" y="-158.3" font-family="Times,serif" font-size="14.00">Subscript</text>
</g>
<!-- ast.For object at 0x7f3c5b880790&#45;&gt;ast.Subscript object at 0x7f3c5b880a60 -->
<g id="edge12" class="edge">
<title>ast.For object at 0x7f3c5b880790&#45;&gt;ast.Subscript object at 0x7f3c5b880a60</title>
<path fill="none" stroke="black" d="M385.12,-439.48C501.92,-398.5 963.28,-236.59 1120.33,-181.48"/>
<polygon fill="black" stroke="black" points="1121.51,-184.78 1129.79,-178.16 1119.19,-178.17 1121.51,-184.78"/>
</g>
<!-- ast.If object at 0x7f3c5b8816f0 -->
<g id="node17" class="node">
<title>ast.If object at 0x7f3c5b8816f0</title>
<path fill="#66cdaa" stroke="black" d="M411,-396C411,-396 381,-396 381,-396 375,-396 369,-390 369,-384 369,-384 369,-372 369,-372 369,-366 375,-360 381,-360 381,-360 411,-360 411,-360 417,-360 423,-366 423,-372 423,-372 423,-384 423,-384 423,-390 417,-396 411,-396"/>
<text text-anchor="middle" x="396" y="-374.3" font-family="Times,serif" font-size="14.00">If</text>
</g>
<!-- ast.For object at 0x7f3c5b880790&#45;&gt;ast.If object at 0x7f3c5b8816f0 -->
<g id="edge19" class="edge">
<title>ast.For object at 0x7f3c5b880790&#45;&gt;ast.If object at 0x7f3c5b8816f0</title>
<path fill="none" stroke="black" d="M367.39,-431.7C371.76,-423.64 377.06,-413.89 381.9,-404.98"/>
<polygon fill="black" stroke="black" points="385.02,-406.56 386.71,-396.1 378.87,-403.22 385.02,-406.56"/>
</g>
<!-- ast.Name object at 0x7f3c5b882e00&#45;&gt;ast.Store object at 0x7f3c73cad780 -->
<g id="edge11" class="edge">
<title>ast.Name object at 0x7f3c5b882e00&#45;&gt;ast.Store object at 0x7f3c73cad780</title>
<path fill="none" stroke="black" d="M313.34,-359.7C309.81,-351.73 305.54,-342.1 301.63,-333.26"/>
<polygon fill="black" stroke="black" points="304.82,-331.83 297.57,-324.1 298.42,-334.67 304.82,-331.83"/>
</g>
<!-- ast.Subscript object at 0x7f3c5b880a60&#45;&gt;ast.Load object at 0x7f3c73cad720 -->
<g id="edge18" class="edge">
<title>ast.Subscript object at 0x7f3c5b880a60&#45;&gt;ast.Load object at 0x7f3c73cad720</title>
<path fill="none" stroke="black" d="M1181.61,-143.81C1190.23,-123.85 1199.88,-91.21 1182,-72 1133.99,-20.41 625.34,-18.34 482.26,-18.78"/>
<polygon fill="black" stroke="black" points="482.2,-15.28 472.22,-18.82 482.23,-22.28 482.2,-15.28"/>
</g>
<!-- ast.Name object at 0x7f3c5b883d60 -->
<g id="node13" class="node">
<title>ast.Name object at 0x7f3c5b883d60</title>
<path fill="#66cdaa" stroke="black" d="M1161.5,-108C1161.5,-108 1126.5,-108 1126.5,-108 1120.5,-108 1114.5,-102 1114.5,-96 1114.5,-96 1114.5,-84 1114.5,-84 1114.5,-78 1120.5,-72 1126.5,-72 1126.5,-72 1161.5,-72 1161.5,-72 1167.5,-72 1173.5,-78 1173.5,-84 1173.5,-84 1173.5,-96 1173.5,-96 1173.5,-102 1167.5,-108 1161.5,-108"/>
<text text-anchor="middle" x="1144" y="-86.3" font-family="Times,serif" font-size="14.00">Name</text>
</g>
<!-- ast.Subscript object at 0x7f3c5b880a60&#45;&gt;ast.Name object at 0x7f3c5b883d60 -->
<g id="edge13" class="edge">
<title>ast.Subscript object at 0x7f3c5b880a60&#45;&gt;ast.Name object at 0x7f3c5b883d60</title>
<path fill="none" stroke="black" d="M1165.83,-143.7C1162.57,-135.81 1158.63,-126.3 1155,-117.55"/>
<polygon fill="black" stroke="black" points="1158.15,-116 1151.09,-108.1 1151.68,-118.68 1158.15,-116"/>
</g>
<!-- ast.Slice object at 0x7f3c5b8832b0 -->
<g id="node14" class="node">
<title>ast.Slice object at 0x7f3c5b8832b0</title>
<path fill="#66cdaa" stroke="black" d="M1272,-108C1272,-108 1242,-108 1242,-108 1236,-108 1230,-102 1230,-96 1230,-96 1230,-84 1230,-84 1230,-78 1236,-72 1242,-72 1242,-72 1272,-72 1272,-72 1278,-72 1284,-78 1284,-84 1284,-84 1284,-96 1284,-96 1284,-102 1278,-108 1272,-108"/>
<text text-anchor="middle" x="1257" y="-86.3" font-family="Times,serif" font-size="14.00">Slice</text>
</g>
<!-- ast.Subscript object at 0x7f3c5b880a60&#45;&gt;ast.Slice object at 0x7f3c5b8832b0 -->
<g id="edge15" class="edge">
<title>ast.Subscript object at 0x7f3c5b880a60&#45;&gt;ast.Slice object at 0x7f3c5b8832b0</title>
<path fill="none" stroke="black" d="M1193.76,-143.7C1204.24,-134.97 1217.11,-124.24 1228.5,-114.75"/>
<polygon fill="black" stroke="black" points="1231.03,-117.19 1236.47,-108.1 1226.55,-111.82 1231.03,-117.19"/>
</g>
<!-- ast.Name object at 0x7f3c5b883d60&#45;&gt;ast.Load object at 0x7f3c73cad720 -->
<g id="edge14" class="edge">
<title>ast.Name object at 0x7f3c5b883d60&#45;&gt;ast.Load object at 0x7f3c73cad720</title>
<path fill="none" stroke="black" d="M1114.11,-74.8C1111.08,-73.72 1108.01,-72.75 1105,-72 985.53,-42.06 603.64,-25.11 482.35,-20.38"/>
<polygon fill="black" stroke="black" points="482.22,-16.87 472.09,-19.98 481.95,-23.87 482.22,-16.87"/>
</g>
<!-- ast.Constant object at 0x7f3c5b880610 -->
<g id="node15" class="node">
<title>ast.Constant object at 0x7f3c5b880610</title>
<path fill="#66cdaa" stroke="black" d="M1334.5,-36C1334.5,-36 1277.5,-36 1277.5,-36 1271.5,-36 1265.5,-30 1265.5,-24 1265.5,-24 1265.5,-12 1265.5,-12 1265.5,-6 1271.5,0 1277.5,0 1277.5,0 1334.5,0 1334.5,0 1340.5,0 1346.5,-6 1346.5,-12 1346.5,-12 1346.5,-24 1346.5,-24 1346.5,-30 1340.5,-36 1334.5,-36"/>
<text text-anchor="middle" x="1306" y="-14.3" font-family="Times,serif" font-size="14.00">Constant</text>
</g>
<!-- ast.Slice object at 0x7f3c5b8832b0&#45;&gt;ast.Constant object at 0x7f3c5b880610 -->
<g id="edge16" class="edge">
<title>ast.Slice object at 0x7f3c5b8832b0&#45;&gt;ast.Constant object at 0x7f3c5b880610</title>
<path fill="none" stroke="black" d="M1269.11,-71.7C1274.87,-63.47 1281.86,-53.48 1288.21,-44.42"/>
<polygon fill="black" stroke="black" points="1291.16,-46.3 1294.03,-36.1 1285.42,-42.29 1291.16,-46.3"/>
</g>
<!-- ast.Constant object at 0x7f3c5b882140 -->
<g id="node16" class="node">
<title>ast.Constant object at 0x7f3c5b882140</title>
<path fill="#66cdaa" stroke="black" d="M1235.5,-36C1235.5,-36 1178.5,-36 1178.5,-36 1172.5,-36 1166.5,-30 1166.5,-24 1166.5,-24 1166.5,-12 1166.5,-12 1166.5,-6 1172.5,0 1178.5,0 1178.5,0 1235.5,0 1235.5,0 1241.5,0 1247.5,-6 1247.5,-12 1247.5,-12 1247.5,-24 1247.5,-24 1247.5,-30 1241.5,-36 1235.5,-36"/>
<text text-anchor="middle" x="1207" y="-14.3" font-family="Times,serif" font-size="14.00">Constant</text>
</g>
<!-- ast.Slice object at 0x7f3c5b8832b0&#45;&gt;ast.Constant object at 0x7f3c5b882140 -->
<g id="edge17" class="edge">
<title>ast.Slice object at 0x7f3c5b8832b0&#45;&gt;ast.Constant object at 0x7f3c5b882140</title>
<path fill="none" stroke="black" d="M1244.64,-71.7C1238.77,-63.47 1231.63,-53.48 1225.16,-44.42"/>
<polygon fill="black" stroke="black" points="1227.88,-42.21 1219.22,-36.1 1222.18,-46.28 1227.88,-42.21"/>
</g>
<!-- ast.BoolOp object at 0x7f3c5b883ee0 -->
<g id="node18" class="node">
<title>ast.BoolOp object at 0x7f3c5b883ee0</title>
<path fill="#66cdaa" stroke="black" d="M650,-252C650,-252 606,-252 606,-252 600,-252 594,-246 594,-240 594,-240 594,-228 594,-228 594,-222 600,-216 606,-216 606,-216 650,-216 650,-216 656,-216 662,-222 662,-228 662,-228 662,-240 662,-240 662,-246 656,-252 650,-252"/>
<text text-anchor="middle" x="628" y="-230.3" font-family="Times,serif" font-size="14.00">BoolOp</text>
</g>
<!-- ast.If object at 0x7f3c5b8816f0&#45;&gt;ast.BoolOp object at 0x7f3c5b883ee0 -->
<g id="edge20" class="edge">
<title>ast.If object at 0x7f3c5b8816f0&#45;&gt;ast.BoolOp object at 0x7f3c5b883ee0</title>
<path fill="none" stroke="black" d="M423.07,-360.43C464.73,-334.93 544.63,-286.03 591.41,-257.39"/>
<polygon fill="black" stroke="black" points="593.32,-260.33 600.02,-252.12 589.67,-254.36 593.32,-260.33"/>
</g>
<!-- ast.Expr object at 0x7f3c5b883100 -->
<g id="node32" class="node">
<title>ast.Expr object at 0x7f3c5b883100</title>
<path fill="#66cdaa" stroke="black" d="M395,-324C395,-324 365,-324 365,-324 359,-324 353,-318 353,-312 353,-312 353,-300 353,-300 353,-294 359,-288 365,-288 365,-288 395,-288 395,-288 401,-288 407,-294 407,-300 407,-300 407,-312 407,-312 407,-318 401,-324 395,-324"/>
<text text-anchor="middle" x="380" y="-302.3" font-family="Times,serif" font-size="14.00">Expr</text>
</g>
<!-- ast.If object at 0x7f3c5b8816f0&#45;&gt;ast.Expr object at 0x7f3c5b883100 -->
<g id="edge37" class="edge">
<title>ast.If object at 0x7f3c5b8816f0&#45;&gt;ast.Expr object at 0x7f3c5b883100</title>
<path fill="none" stroke="black" d="M392.04,-359.7C390.28,-351.98 388.16,-342.71 386.2,-334.11"/>
<polygon fill="black" stroke="black" points="389.55,-333.07 383.91,-324.1 382.73,-334.63 389.55,-333.07"/>
</g>
<!-- ast.And object at 0x7f3c73cad870 -->
<g id="node19" class="node">
<title>ast.And object at 0x7f3c73cad870</title>
<path fill="#66cdaa" stroke="black" d="M643,-180C643,-180 613,-180 613,-180 607,-180 601,-174 601,-168 601,-168 601,-156 601,-156 601,-150 607,-144 613,-144 613,-144 643,-144 643,-144 649,-144 655,-150 655,-156 655,-156 655,-168 655,-168 655,-174 649,-180 643,-180"/>
<text text-anchor="middle" x="628" y="-158.3" font-family="Times,serif" font-size="14.00">And</text>
</g>
<!-- ast.BoolOp object at 0x7f3c5b883ee0&#45;&gt;ast.And object at 0x7f3c73cad870 -->
<g id="edge21" class="edge">
<title>ast.BoolOp object at 0x7f3c5b883ee0&#45;&gt;ast.And object at 0x7f3c73cad870</title>
<path fill="none" stroke="black" d="M628,-215.7C628,-207.98 628,-198.71 628,-190.11"/>
<polygon fill="black" stroke="black" points="631.5,-190.1 628,-180.1 624.5,-190.1 631.5,-190.1"/>
</g>
<!-- ast.Compare object at 0x7f3c5b882cb0 -->
<g id="node20" class="node">
<title>ast.Compare object at 0x7f3c5b882cb0</title>
<path fill="#66cdaa" stroke="black" d="M977.5,-180C977.5,-180 920.5,-180 920.5,-180 914.5,-180 908.5,-174 908.5,-168 908.5,-168 908.5,-156 908.5,-156 908.5,-150 914.5,-144 920.5,-144 920.5,-144 977.5,-144 977.5,-144 983.5,-144 989.5,-150 989.5,-156 989.5,-156 989.5,-168 989.5,-168 989.5,-174 983.5,-180 977.5,-180"/>
<text text-anchor="middle" x="949" y="-158.3" font-family="Times,serif" font-size="14.00">Compare</text>
</g>
<!-- ast.BoolOp object at 0x7f3c5b883ee0&#45;&gt;ast.Compare object at 0x7f3c5b882cb0 -->
<g id="edge22" class="edge">
<title>ast.BoolOp object at 0x7f3c5b883ee0&#45;&gt;ast.Compare object at 0x7f3c5b882cb0</title>
<path fill="none" stroke="black" d="M662.05,-225.58C718.68,-213.23 832.52,-188.4 898.51,-174.01"/>
<polygon fill="black" stroke="black" points="899.26,-177.43 908.28,-171.88 897.77,-170.59 899.26,-177.43"/>
</g>
<!-- ast.Compare object at 0x7f3c5b880df0 -->
<g id="node24" class="node">
<title>ast.Compare object at 0x7f3c5b880df0</title>
<path fill="#66cdaa" stroke="black" d="M532.5,-180C532.5,-180 475.5,-180 475.5,-180 469.5,-180 463.5,-174 463.5,-168 463.5,-168 463.5,-156 463.5,-156 463.5,-150 469.5,-144 475.5,-144 475.5,-144 532.5,-144 532.5,-144 538.5,-144 544.5,-150 544.5,-156 544.5,-156 544.5,-168 544.5,-168 544.5,-174 538.5,-180 532.5,-180"/>
<text text-anchor="middle" x="504" y="-158.3" font-family="Times,serif" font-size="14.00">Compare</text>
</g>
<!-- ast.BoolOp object at 0x7f3c5b883ee0&#45;&gt;ast.Compare object at 0x7f3c5b880df0 -->
<g id="edge27" class="edge">
<title>ast.BoolOp object at 0x7f3c5b883ee0&#45;&gt;ast.Compare object at 0x7f3c5b880df0</title>
<path fill="none" stroke="black" d="M597.67,-215.88C581.3,-206.64 560.92,-195.13 543.35,-185.21"/>
<polygon fill="black" stroke="black" points="544.88,-182.06 534.45,-180.19 541.44,-188.15 544.88,-182.06"/>
</g>
<!-- ast.Compare object at 0x7f3c5b881540 -->
<g id="node28" class="node">
<title>ast.Compare object at 0x7f3c5b881540</title>
<path fill="#66cdaa" stroke="black" d="M761.5,-180C761.5,-180 704.5,-180 704.5,-180 698.5,-180 692.5,-174 692.5,-168 692.5,-168 692.5,-156 692.5,-156 692.5,-150 698.5,-144 704.5,-144 704.5,-144 761.5,-144 761.5,-144 767.5,-144 773.5,-150 773.5,-156 773.5,-156 773.5,-168 773.5,-168 773.5,-174 767.5,-180 761.5,-180"/>
<text text-anchor="middle" x="733" y="-158.3" font-family="Times,serif" font-size="14.00">Compare</text>
</g>
<!-- ast.BoolOp object at 0x7f3c5b883ee0&#45;&gt;ast.Compare object at 0x7f3c5b881540 -->
<g id="edge32" class="edge">
<title>ast.BoolOp object at 0x7f3c5b883ee0&#45;&gt;ast.Compare object at 0x7f3c5b881540</title>
<path fill="none" stroke="black" d="M653.69,-215.88C667.29,-206.81 684.17,-195.55 698.86,-185.76"/>
<polygon fill="black" stroke="black" points="700.84,-188.65 707.22,-180.19 696.95,-182.82 700.84,-188.65"/>
</g>
<!-- ast.Name object at 0x7f3c5b881780 -->
<g id="node21" class="node">
<title>ast.Name object at 0x7f3c5b881780</title>
<path fill="#66cdaa" stroke="black" d="M1084.5,-108C1084.5,-108 1049.5,-108 1049.5,-108 1043.5,-108 1037.5,-102 1037.5,-96 1037.5,-96 1037.5,-84 1037.5,-84 1037.5,-78 1043.5,-72 1049.5,-72 1049.5,-72 1084.5,-72 1084.5,-72 1090.5,-72 1096.5,-78 1096.5,-84 1096.5,-84 1096.5,-96 1096.5,-96 1096.5,-102 1090.5,-108 1084.5,-108"/>
<text text-anchor="middle" x="1067" y="-86.3" font-family="Times,serif" font-size="14.00">Name</text>
</g>
<!-- ast.Compare object at 0x7f3c5b882cb0&#45;&gt;ast.Name object at 0x7f3c5b881780 -->
<g id="edge23" class="edge">
<title>ast.Compare object at 0x7f3c5b882cb0&#45;&gt;ast.Name object at 0x7f3c5b881780</title>
<path fill="none" stroke="black" d="M977.87,-143.88C993.29,-134.72 1012.48,-123.34 1029.1,-113.48"/>
<polygon fill="black" stroke="black" points="1031.21,-116.3 1038.02,-108.19 1027.64,-110.28 1031.21,-116.3"/>
</g>
<!-- ast.In object at 0x7f3c73cae350 -->
<g id="node22" class="node">
<title>ast.In object at 0x7f3c73cae350</title>
<path fill="#66cdaa" stroke="black" d="M1007,-108C1007,-108 977,-108 977,-108 971,-108 965,-102 965,-96 965,-96 965,-84 965,-84 965,-78 971,-72 977,-72 977,-72 1007,-72 1007,-72 1013,-72 1019,-78 1019,-84 1019,-84 1019,-96 1019,-96 1019,-102 1013,-108 1007,-108"/>
<text text-anchor="middle" x="992" y="-86.3" font-family="Times,serif" font-size="14.00">In</text>
</g>
<!-- ast.Compare object at 0x7f3c5b882cb0&#45;&gt;ast.In object at 0x7f3c73cae350 -->
<g id="edge25" class="edge">
<title>ast.Compare object at 0x7f3c5b882cb0&#45;&gt;ast.In object at 0x7f3c73cae350</title>
<path fill="none" stroke="black" d="M959.63,-143.7C964.63,-135.56 970.69,-125.69 976.21,-116.7"/>
<polygon fill="black" stroke="black" points="979.24,-118.46 981.49,-108.1 973.28,-114.79 979.24,-118.46"/>
</g>
<!-- ast.Constant object at 0x7f3c5b8821a0 -->
<g id="node23" class="node">
<title>ast.Constant object at 0x7f3c5b8821a0</title>
<path fill="#66cdaa" stroke="black" d="M934.5,-108C934.5,-108 877.5,-108 877.5,-108 871.5,-108 865.5,-102 865.5,-96 865.5,-96 865.5,-84 865.5,-84 865.5,-78 871.5,-72 877.5,-72 877.5,-72 934.5,-72 934.5,-72 940.5,-72 946.5,-78 946.5,-84 946.5,-84 946.5,-96 946.5,-96 946.5,-102 940.5,-108 934.5,-108"/>
<text text-anchor="middle" x="906" y="-86.3" font-family="Times,serif" font-size="14.00">Constant</text>
</g>
<!-- ast.Compare object at 0x7f3c5b882cb0&#45;&gt;ast.Constant object at 0x7f3c5b8821a0 -->
<g id="edge26" class="edge">
<title>ast.Compare object at 0x7f3c5b882cb0&#45;&gt;ast.Constant object at 0x7f3c5b8821a0</title>
<path fill="none" stroke="black" d="M938.37,-143.7C933.37,-135.56 927.31,-125.69 921.79,-116.7"/>
<polygon fill="black" stroke="black" points="924.72,-114.79 916.51,-108.1 918.76,-118.46 924.72,-114.79"/>
</g>
<!-- ast.Name object at 0x7f3c5b881780&#45;&gt;ast.Load object at 0x7f3c73cad720 -->
<g id="edge24" class="edge">
<title>ast.Name object at 0x7f3c5b881780&#45;&gt;ast.Load object at 0x7f3c73cad720</title>
<path fill="none" stroke="black" d="M1037.1,-74.84C1034.07,-73.75 1031.01,-72.77 1028,-72 827.03,-20.5 575.87,-17.43 482.35,-18.3"/>
<polygon fill="black" stroke="black" points="482.21,-14.8 472.25,-18.42 482.29,-21.8 482.21,-14.8"/>
</g>
<!-- ast.Name object at 0x7f3c5b882c20 -->
<g id="node25" class="node">
<title>ast.Name object at 0x7f3c5b882c20</title>
<path fill="#66cdaa" stroke="black" d="M586.5,-108C586.5,-108 551.5,-108 551.5,-108 545.5,-108 539.5,-102 539.5,-96 539.5,-96 539.5,-84 539.5,-84 539.5,-78 545.5,-72 551.5,-72 551.5,-72 586.5,-72 586.5,-72 592.5,-72 598.5,-78 598.5,-84 598.5,-84 598.5,-96 598.5,-96 598.5,-102 592.5,-108 586.5,-108"/>
<text text-anchor="middle" x="569" y="-86.3" font-family="Times,serif" font-size="14.00">Name</text>
</g>
<!-- ast.Compare object at 0x7f3c5b880df0&#45;&gt;ast.Name object at 0x7f3c5b882c20 -->
<g id="edge28" class="edge">
<title>ast.Compare object at 0x7f3c5b880df0&#45;&gt;ast.Name object at 0x7f3c5b882c20</title>
<path fill="none" stroke="black" d="M520.07,-143.7C527.94,-135.22 537.56,-124.86 546.17,-115.58"/>
<polygon fill="black" stroke="black" points="548.88,-117.81 553.12,-108.1 543.75,-113.05 548.88,-117.81"/>
</g>
<!-- ast.Gt object at 0x7f3c73cae1d0 -->
<g id="node26" class="node">
<title>ast.Gt object at 0x7f3c73cae1d0</title>
<path fill="#66cdaa" stroke="black" d="M509,-108C509,-108 479,-108 479,-108 473,-108 467,-102 467,-96 467,-96 467,-84 467,-84 467,-78 473,-72 479,-72 479,-72 509,-72 509,-72 515,-72 521,-78 521,-84 521,-84 521,-96 521,-96 521,-102 515,-108 509,-108"/>
<text text-anchor="middle" x="494" y="-86.3" font-family="Times,serif" font-size="14.00">Gt</text>
</g>
<!-- ast.Compare object at 0x7f3c5b880df0&#45;&gt;ast.Gt object at 0x7f3c73cae1d0 -->
<g id="edge30" class="edge">
<title>ast.Compare object at 0x7f3c5b880df0&#45;&gt;ast.Gt object at 0x7f3c73cae1d0</title>
<path fill="none" stroke="black" d="M501.53,-143.7C500.43,-135.98 499.1,-126.71 497.87,-118.11"/>
<polygon fill="black" stroke="black" points="501.32,-117.51 496.44,-108.1 494.39,-118.5 501.32,-117.51"/>
</g>
<!-- ast.Constant object at 0x7f3c5b883280 -->
<g id="node27" class="node">
<title>ast.Constant object at 0x7f3c5b883280</title>
<path fill="#66cdaa" stroke="black" d="M436.5,-108C436.5,-108 379.5,-108 379.5,-108 373.5,-108 367.5,-102 367.5,-96 367.5,-96 367.5,-84 367.5,-84 367.5,-78 373.5,-72 379.5,-72 379.5,-72 436.5,-72 436.5,-72 442.5,-72 448.5,-78 448.5,-84 448.5,-84 448.5,-96 448.5,-96 448.5,-102 442.5,-108 436.5,-108"/>
<text text-anchor="middle" x="408" y="-86.3" font-family="Times,serif" font-size="14.00">Constant</text>
</g>
<!-- ast.Compare object at 0x7f3c5b880df0&#45;&gt;ast.Constant object at 0x7f3c5b883280 -->
<g id="edge31" class="edge">
<title>ast.Compare object at 0x7f3c5b880df0&#45;&gt;ast.Constant object at 0x7f3c5b883280</title>
<path fill="none" stroke="black" d="M480.27,-143.7C468.06,-134.8 453.01,-123.82 439.82,-114.2"/>
<polygon fill="black" stroke="black" points="441.6,-111.17 431.46,-108.1 437.48,-116.82 441.6,-111.17"/>
</g>
<!-- ast.Name object at 0x7f3c5b882c20&#45;&gt;ast.Load object at 0x7f3c73cad720 -->
<g id="edge29" class="edge">
<title>ast.Name object at 0x7f3c5b882c20&#45;&gt;ast.Load object at 0x7f3c73cad720</title>
<path fill="none" stroke="black" d="M539.3,-72.23C521.81,-62.36 499.57,-49.81 481.08,-39.37"/>
<polygon fill="black" stroke="black" points="482.77,-36.3 472.34,-34.43 479.33,-42.4 482.77,-36.3"/>
</g>
<!-- ast.Name object at 0x7f3c5b881090 -->
<g id="node29" class="node">
<title>ast.Name object at 0x7f3c5b881090</title>
<path fill="#66cdaa" stroke="black" d="M835.5,-108C835.5,-108 800.5,-108 800.5,-108 794.5,-108 788.5,-102 788.5,-96 788.5,-96 788.5,-84 788.5,-84 788.5,-78 794.5,-72 800.5,-72 800.5,-72 835.5,-72 835.5,-72 841.5,-72 847.5,-78 847.5,-84 847.5,-84 847.5,-96 847.5,-96 847.5,-102 841.5,-108 835.5,-108"/>
<text text-anchor="middle" x="818" y="-86.3" font-family="Times,serif" font-size="14.00">Name</text>
</g>
<!-- ast.Compare object at 0x7f3c5b881540&#45;&gt;ast.Name object at 0x7f3c5b881090 -->
<g id="edge33" class="edge">
<title>ast.Compare object at 0x7f3c5b881540&#45;&gt;ast.Name object at 0x7f3c5b881090</title>
<path fill="none" stroke="black" d="M754.01,-143.7C764.72,-134.88 777.89,-124.03 789.5,-114.47"/>
<polygon fill="black" stroke="black" points="791.74,-117.16 797.23,-108.1 787.29,-111.76 791.74,-117.16"/>
</g>
<!-- ast.Lt object at 0x7f3c73cae110 -->
<g id="node30" class="node">
<title>ast.Lt object at 0x7f3c73cae110</title>
<path fill="#66cdaa" stroke="black" d="M758,-108C758,-108 728,-108 728,-108 722,-108 716,-102 716,-96 716,-96 716,-84 716,-84 716,-78 722,-72 728,-72 728,-72 758,-72 758,-72 764,-72 770,-78 770,-84 770,-84 770,-96 770,-96 770,-102 764,-108 758,-108"/>
<text text-anchor="middle" x="743" y="-86.3" font-family="Times,serif" font-size="14.00">Lt</text>
</g>
<!-- ast.Compare object at 0x7f3c5b881540&#45;&gt;ast.Lt object at 0x7f3c73cae110 -->
<g id="edge35" class="edge">
<title>ast.Compare object at 0x7f3c5b881540&#45;&gt;ast.Lt object at 0x7f3c73cae110</title>
<path fill="none" stroke="black" d="M735.47,-143.7C736.57,-135.98 737.9,-126.71 739.13,-118.11"/>
<polygon fill="black" stroke="black" points="742.61,-118.5 740.56,-108.1 735.68,-117.51 742.61,-118.5"/>
</g>
<!-- ast.Constant object at 0x7f3c5b883580 -->
<g id="node31" class="node">
<title>ast.Constant object at 0x7f3c5b883580</title>
<path fill="#66cdaa" stroke="black" d="M685.5,-108C685.5,-108 628.5,-108 628.5,-108 622.5,-108 616.5,-102 616.5,-96 616.5,-96 616.5,-84 616.5,-84 616.5,-78 622.5,-72 628.5,-72 628.5,-72 685.5,-72 685.5,-72 691.5,-72 697.5,-78 697.5,-84 697.5,-84 697.5,-96 697.5,-96 697.5,-102 691.5,-108 685.5,-108"/>
<text text-anchor="middle" x="657" y="-86.3" font-family="Times,serif" font-size="14.00">Constant</text>
</g>
<!-- ast.Compare object at 0x7f3c5b881540&#45;&gt;ast.Constant object at 0x7f3c5b883580 -->
<g id="edge36" class="edge">
<title>ast.Compare object at 0x7f3c5b881540&#45;&gt;ast.Constant object at 0x7f3c5b883580</title>
<path fill="none" stroke="black" d="M714.21,-143.7C704.83,-135.05 693.32,-124.45 683.09,-115.03"/>
<polygon fill="black" stroke="black" points="685.3,-112.3 675.57,-108.1 680.55,-117.45 685.3,-112.3"/>
</g>
<!-- ast.Name object at 0x7f3c5b881090&#45;&gt;ast.Load object at 0x7f3c73cad720 -->
<g id="edge34" class="edge">
<title>ast.Name object at 0x7f3c5b881090&#45;&gt;ast.Load object at 0x7f3c73cad720</title>
<path fill="none" stroke="black" d="M788.48,-75.21C785.32,-74.01 782.12,-72.91 779,-72 674.05,-41.34 545.05,-27.24 482.52,-21.83"/>
<polygon fill="black" stroke="black" points="482.61,-18.33 472.35,-20.98 482.03,-25.3 482.61,-18.33"/>
</g>
<!-- ast.Call object at 0x7f3c5b8804c0 -->
<g id="node33" class="node">
<title>ast.Call object at 0x7f3c5b8804c0</title>
<path fill="#66cdaa" stroke="black" d="M348,-252C348,-252 318,-252 318,-252 312,-252 306,-246 306,-240 306,-240 306,-228 306,-228 306,-222 312,-216 318,-216 318,-216 348,-216 348,-216 354,-216 360,-222 360,-228 360,-228 360,-240 360,-240 360,-246 354,-252 348,-252"/>
<text text-anchor="middle" x="333" y="-230.3" font-family="Times,serif" font-size="14.00">Call</text>
</g>
<!-- ast.Expr object at 0x7f3c5b883100&#45;&gt;ast.Call object at 0x7f3c5b8804c0 -->
<g id="edge38" class="edge">
<title>ast.Expr object at 0x7f3c5b883100&#45;&gt;ast.Call object at 0x7f3c5b8804c0</title>
<path fill="none" stroke="black" d="M368.38,-287.7C362.86,-279.47 356.15,-269.48 350.07,-260.42"/>
<polygon fill="black" stroke="black" points="352.96,-258.46 344.48,-252.1 347.15,-262.36 352.96,-258.46"/>
</g>
<!-- ast.Attribute object at 0x7f3c5b883940 -->
<g id="node34" class="node">
<title>ast.Attribute object at 0x7f3c5b883940</title>
<path fill="#66cdaa" stroke="black" d="M362,-180C362,-180 304,-180 304,-180 298,-180 292,-174 292,-168 292,-168 292,-156 292,-156 292,-150 298,-144 304,-144 304,-144 362,-144 362,-144 368,-144 374,-150 374,-156 374,-156 374,-168 374,-168 374,-174 368,-180 362,-180"/>
<text text-anchor="middle" x="333" y="-158.3" font-family="Times,serif" font-size="14.00">Attribute</text>
</g>
<!-- ast.Call object at 0x7f3c5b8804c0&#45;&gt;ast.Attribute object at 0x7f3c5b883940 -->
<g id="edge39" class="edge">
<title>ast.Call object at 0x7f3c5b8804c0&#45;&gt;ast.Attribute object at 0x7f3c5b883940</title>
<path fill="none" stroke="black" d="M333,-215.7C333,-207.98 333,-198.71 333,-190.11"/>
<polygon fill="black" stroke="black" points="336.5,-190.1 333,-180.1 329.5,-190.1 336.5,-190.1"/>
</g>
<!-- ast.Name object at 0x7f3c5b882080 -->
<g id="node36" class="node">
<title>ast.Name object at 0x7f3c5b882080</title>
<path fill="#66cdaa" stroke="black" d="M261.5,-180C261.5,-180 226.5,-180 226.5,-180 220.5,-180 214.5,-174 214.5,-168 214.5,-168 214.5,-156 214.5,-156 214.5,-150 220.5,-144 226.5,-144 226.5,-144 261.5,-144 261.5,-144 267.5,-144 273.5,-150 273.5,-156 273.5,-156 273.5,-168 273.5,-168 273.5,-174 267.5,-180 261.5,-180"/>
<text text-anchor="middle" x="244" y="-158.3" font-family="Times,serif" font-size="14.00">Name</text>
</g>
<!-- ast.Call object at 0x7f3c5b8804c0&#45;&gt;ast.Name object at 0x7f3c5b882080 -->
<g id="edge43" class="edge">
<title>ast.Call object at 0x7f3c5b8804c0&#45;&gt;ast.Name object at 0x7f3c5b882080</title>
<path fill="none" stroke="black" d="M311,-215.7C299.79,-206.88 286,-196.03 273.85,-186.47"/>
<polygon fill="black" stroke="black" points="275.77,-183.54 265.75,-180.1 271.44,-189.04 275.77,-183.54"/>
</g>
<!-- ast.Attribute object at 0x7f3c5b883940&#45;&gt;ast.Load object at 0x7f3c73cad720 -->
<g id="edge42" class="edge">
<title>ast.Attribute object at 0x7f3c5b883940&#45;&gt;ast.Load object at 0x7f3c73cad720</title>
<path fill="none" stroke="black" d="M310.99,-143.97C289.93,-125.58 263.73,-95.73 281,-72 309.81,-32.42 368.78,-21.78 407.6,-19.26"/>
<polygon fill="black" stroke="black" points="408.15,-22.74 417.97,-18.75 407.81,-15.74 408.15,-22.74"/>
</g>
<!-- ast.Name object at 0x7f3c5b882dd0 -->
<g id="node35" class="node">
<title>ast.Name object at 0x7f3c5b882dd0</title>
<path fill="#66cdaa" stroke="black" d="M337.5,-108C337.5,-108 302.5,-108 302.5,-108 296.5,-108 290.5,-102 290.5,-96 290.5,-96 290.5,-84 290.5,-84 290.5,-78 296.5,-72 302.5,-72 302.5,-72 337.5,-72 337.5,-72 343.5,-72 349.5,-78 349.5,-84 349.5,-84 349.5,-96 349.5,-96 349.5,-102 343.5,-108 337.5,-108"/>
<text text-anchor="middle" x="320" y="-86.3" font-family="Times,serif" font-size="14.00">Name</text>
</g>
<!-- ast.Attribute object at 0x7f3c5b883940&#45;&gt;ast.Name object at 0x7f3c5b882dd0 -->
<g id="edge40" class="edge">
<title>ast.Attribute object at 0x7f3c5b883940&#45;&gt;ast.Name object at 0x7f3c5b882dd0</title>
<path fill="none" stroke="black" d="M329.79,-143.7C328.35,-135.98 326.63,-126.71 325.04,-118.11"/>
<polygon fill="black" stroke="black" points="328.44,-117.3 323.18,-108.1 321.56,-118.58 328.44,-117.3"/>
</g>
<!-- ast.Name object at 0x7f3c5b882dd0&#45;&gt;ast.Load object at 0x7f3c73cad720 -->
<g id="edge41" class="edge">
<title>ast.Name object at 0x7f3c5b882dd0&#45;&gt;ast.Load object at 0x7f3c73cad720</title>
<path fill="none" stroke="black" d="M349.62,-72.41C367.37,-62.47 390.05,-49.77 408.85,-39.24"/>
<polygon fill="black" stroke="black" points="410.71,-42.21 417.73,-34.27 407.29,-36.11 410.71,-42.21"/>
</g>
<!-- ast.Name object at 0x7f3c5b882080&#45;&gt;ast.Load object at 0x7f3c73cad720 -->
<g id="edge44" class="edge">
<title>ast.Name object at 0x7f3c5b882080&#45;&gt;ast.Load object at 0x7f3c73cad720</title>
<path fill="none" stroke="black" d="M244.77,-143.83C246.59,-123.89 252.57,-91.28 272,-72 308.38,-35.9 368.66,-24.28 407.6,-20.61"/>
<polygon fill="black" stroke="black" points="408.29,-24.07 417.98,-19.77 407.73,-17.09 408.29,-24.07"/>
</g>
<!-- ast.Name object at 0x7f3c5b883dc0 -->
<g id="node38" class="node">
<title>ast.Name object at 0x7f3c5b883dc0</title>
<path fill="#66cdaa" stroke="black" d="M145.5,-252C145.5,-252 110.5,-252 110.5,-252 104.5,-252 98.5,-246 98.5,-240 98.5,-240 98.5,-228 98.5,-228 98.5,-222 104.5,-216 110.5,-216 110.5,-216 145.5,-216 145.5,-216 151.5,-216 157.5,-222 157.5,-228 157.5,-228 157.5,-240 157.5,-240 157.5,-246 151.5,-252 145.5,-252"/>
<text text-anchor="middle" x="128" y="-230.3" font-family="Times,serif" font-size="14.00">Name</text>
</g>
<!-- ast.Return object at 0x7f3c5b880730&#45;&gt;ast.Name object at 0x7f3c5b883dc0 -->
<g id="edge46" class="edge">
<title>ast.Return object at 0x7f3c5b880730&#45;&gt;ast.Name object at 0x7f3c5b883dc0</title>
<path fill="none" stroke="black" d="M143.64,-431.85C140.7,-394.83 133.73,-307.18 130.18,-262.39"/>
<polygon fill="black" stroke="black" points="133.65,-261.92 129.37,-252.23 126.67,-262.48 133.65,-261.92"/>
</g>
<!-- ast.Name object at 0x7f3c5b883dc0&#45;&gt;ast.Load object at 0x7f3c73cad720 -->
<g id="edge47" class="edge">
<title>ast.Name object at 0x7f3c5b883dc0&#45;&gt;ast.Load object at 0x7f3c73cad720</title>
<path fill="none" stroke="black" d="M127.24,-215.97C126.77,-182.98 130.79,-110.23 172,-72 205.85,-40.6 341.51,-26.53 407.95,-21.43"/>
<polygon fill="black" stroke="black" points="408.28,-24.91 418,-20.69 407.77,-17.93 408.28,-24.91"/>
</g>
</g>
</svg>
