<?xml version="1.0" encoding="UTF-8" standalone="no"?>
<!DOCTYPE svg PUBLIC "-//W3C//DTD SVG 1.1//EN"
 "http://www.w3.org/Graphics/SVG/1.1/DTD/svg11.dtd">
<!-- Generated by graphviz version 2.43.0 (0)
 -->
<!-- Title: %3 Pages: 1 -->
<svg width="1390pt" height="692pt"
 viewBox="0.00 0.00 1390.35 692.00" xmlns="http://www.w3.org/2000/svg" xmlns:xlink="http://www.w3.org/1999/xlink">
<g id="graph0" class="graph" transform="scale(1 1) rotate(0) translate(4 688)">
<title>%3</title>
<polygon fill="white" stroke="transparent" points="-4,4 -4,-688 1386.35,-688 1386.35,4 -4,4"/>
<!-- ast.Module object at 0x7fc7d9cac460 -->
<g id="node1" class="node">
<title>ast.Module object at 0x7fc7d9cac460</title>
<path fill="#66cdaa" stroke="black" d="M651.51,-684C651.51,-684 616.51,-684 616.51,-684 610.51,-684 604.51,-678 604.51,-672 604.51,-672 604.51,-660 604.51,-660 604.51,-654 610.51,-648 616.51,-648 616.51,-648 651.51,-648 651.51,-648 657.51,-648 663.51,-654 663.51,-660 663.51,-660 663.51,-672 663.51,-672 663.51,-678 657.51,-684 651.51,-684"/>
<text text-anchor="middle" x="634.01" y="-662.3" font-family="Times,serif" font-size="14.00">Module</text>
</g>
<!-- ast.FunctionDef object at 0x7fc7d9caefb0 -->
<g id="node2" class="node">
<title>ast.FunctionDef object at 0x7fc7d9caefb0</title>
<path fill="#66cdaa" stroke="black" d="M664.51,-612C664.51,-612 603.51,-612 603.51,-612 597.51,-612 591.51,-606 591.51,-600 591.51,-600 591.51,-588 591.51,-588 591.51,-582 597.51,-576 603.51,-576 603.51,-576 664.51,-576 664.51,-576 670.51,-576 676.51,-582 676.51,-588 676.51,-588 676.51,-600 676.51,-600 676.51,-606 670.51,-612 664.51,-612"/>
<text text-anchor="middle" x="634.01" y="-590.3" font-family="Times,serif" font-size="14.00">FunctionDef</text>
</g>
<!-- ast.Module object at 0x7fc7d9cac460&#45;&gt;ast.FunctionDef object at 0x7fc7d9caefb0 -->
<g id="edge1" class="edge">
<title>ast.Module object at 0x7fc7d9cac460&#45;&gt;ast.FunctionDef object at 0x7fc7d9caefb0</title>
<path fill="none" stroke="black" d="M634.01,-647.7C634.01,-639.98 634.01,-630.71 634.01,-622.11"/>
<polygon fill="black" stroke="black" points="637.51,-622.1 634.01,-612.1 630.51,-622.1 637.51,-622.1"/>
</g>
<!-- ast.arguments object at 0x7fc7d9cad270 -->
<g id="node3" class="node">
<title>ast.arguments object at 0x7fc7d9cad270</title>
<path fill="#66cdaa" stroke="black" d="M336.01,-540C336.01,-540 286.01,-540 286.01,-540 280.01,-540 274.01,-534 274.01,-528 274.01,-528 274.01,-516 274.01,-516 274.01,-510 280.01,-504 286.01,-504 286.01,-504 336.01,-504 336.01,-504 342.01,-504 348.01,-510 348.01,-516 348.01,-516 348.01,-528 348.01,-528 348.01,-534 342.01,-540 336.01,-540"/>
<text text-anchor="middle" x="311.01" y="-518.3" font-family="Times,serif" font-size="14.00">arguments</text>
</g>
<!-- ast.FunctionDef object at 0x7fc7d9caefb0&#45;&gt;ast.arguments object at 0x7fc7d9cad270 -->
<g id="edge2" class="edge">
<title>ast.FunctionDef object at 0x7fc7d9caefb0&#45;&gt;ast.arguments object at 0x7fc7d9cad270</title>
<path fill="none" stroke="black" d="M591.5,-585.18C539.87,-575.49 450.22,-558.03 374.01,-540 368.9,-538.79 363.58,-537.46 358.29,-536.1"/>
<polygon fill="black" stroke="black" points="358.78,-532.61 348.22,-533.45 357,-539.38 358.78,-532.61"/>
</g>
<!-- ast.Assign object at 0x7fc7d9cad990 -->
<g id="node5" class="node">
<title>ast.Assign object at 0x7fc7d9cad990</title>
<path fill="#66cdaa" stroke="black" d="M569.01,-540C569.01,-540 539.01,-540 539.01,-540 533.01,-540 527.01,-534 527.01,-528 527.01,-528 527.01,-516 527.01,-516 527.01,-510 533.01,-504 539.01,-504 539.01,-504 569.01,-504 569.01,-504 575.01,-504 581.01,-510 581.01,-516 581.01,-516 581.01,-528 581.01,-528 581.01,-534 575.01,-540 569.01,-540"/>
<text text-anchor="middle" x="554.01" y="-518.3" font-family="Times,serif" font-size="14.00">Assign</text>
</g>
<!-- ast.FunctionDef object at 0x7fc7d9caefb0&#45;&gt;ast.Assign object at 0x7fc7d9cad990 -->
<g id="edge4" class="edge">
<title>ast.FunctionDef object at 0x7fc7d9caefb0&#45;&gt;ast.Assign object at 0x7fc7d9cad990</title>
<path fill="none" stroke="black" d="M614.23,-575.7C604.25,-566.97 592,-556.24 581.15,-546.75"/>
<polygon fill="black" stroke="black" points="583.39,-544.06 573.56,-540.1 578.78,-549.32 583.39,-544.06"/>
</g>
<!-- ast.Assign object at 0x7fc7d181bc10 -->
<g id="node9" class="node">
<title>ast.Assign object at 0x7fc7d181bc10</title>
<path fill="#66cdaa" stroke="black" d="M425.01,-540C425.01,-540 395.01,-540 395.01,-540 389.01,-540 383.01,-534 383.01,-528 383.01,-528 383.01,-516 383.01,-516 383.01,-510 389.01,-504 395.01,-504 395.01,-504 425.01,-504 425.01,-504 431.01,-504 437.01,-510 437.01,-516 437.01,-516 437.01,-528 437.01,-528 437.01,-534 431.01,-540 425.01,-540"/>
<text text-anchor="middle" x="410.01" y="-518.3" font-family="Times,serif" font-size="14.00">Assign</text>
</g>
<!-- ast.FunctionDef object at 0x7fc7d9caefb0&#45;&gt;ast.Assign object at 0x7fc7d181bc10 -->
<g id="edge8" class="edge">
<title>ast.FunctionDef object at 0x7fc7d9caefb0&#45;&gt;ast.Assign object at 0x7fc7d181bc10</title>
<path fill="none" stroke="black" d="M591.35,-579.67C549.46,-566.58 486.22,-546.82 446.57,-534.43"/>
<polygon fill="black" stroke="black" points="447.61,-531.08 437.02,-531.44 445.52,-537.77 447.61,-531.08"/>
</g>
<!-- ast.Assign object at 0x7fc7d16a95a0 -->
<g id="node12" class="node">
<title>ast.Assign object at 0x7fc7d16a95a0</title>
<path fill="#66cdaa" stroke="black" d="M649.01,-540C649.01,-540 619.01,-540 619.01,-540 613.01,-540 607.01,-534 607.01,-528 607.01,-528 607.01,-516 607.01,-516 607.01,-510 613.01,-504 619.01,-504 619.01,-504 649.01,-504 649.01,-504 655.01,-504 661.01,-510 661.01,-516 661.01,-516 661.01,-528 661.01,-528 661.01,-534 655.01,-540 649.01,-540"/>
<text text-anchor="middle" x="634.01" y="-518.3" font-family="Times,serif" font-size="14.00">Assign</text>
</g>
<!-- ast.FunctionDef object at 0x7fc7d9caefb0&#45;&gt;ast.Assign object at 0x7fc7d16a95a0 -->
<g id="edge12" class="edge">
<title>ast.FunctionDef object at 0x7fc7d9caefb0&#45;&gt;ast.Assign object at 0x7fc7d16a95a0</title>
<path fill="none" stroke="black" d="M634.01,-575.7C634.01,-567.98 634.01,-558.71 634.01,-550.11"/>
<polygon fill="black" stroke="black" points="637.51,-550.1 634.01,-540.1 630.51,-550.1 637.51,-550.1"/>
</g>
<!-- ast.If object at 0x7fc7d16a8100 -->
<g id="node15" class="node">
<title>ast.If object at 0x7fc7d16a8100</title>
<path fill="#66cdaa" stroke="black" d="M1183.01,-324C1183.01,-324 1153.01,-324 1153.01,-324 1147.01,-324 1141.01,-318 1141.01,-312 1141.01,-312 1141.01,-300 1141.01,-300 1141.01,-294 1147.01,-288 1153.01,-288 1153.01,-288 1183.01,-288 1183.01,-288 1189.01,-288 1195.01,-294 1195.01,-300 1195.01,-300 1195.01,-312 1195.01,-312 1195.01,-318 1189.01,-324 1183.01,-324"/>
<text text-anchor="middle" x="1168.01" y="-302.3" font-family="Times,serif" font-size="14.00">If</text>
</g>
<!-- ast.FunctionDef object at 0x7fc7d9caefb0&#45;&gt;ast.If object at 0x7fc7d16a8100 -->
<g id="edge16" class="edge">
<title>ast.FunctionDef object at 0x7fc7d9caefb0&#45;&gt;ast.If object at 0x7fc7d16a8100</title>
<path fill="none" stroke="black" d="M676.77,-579.44C705.63,-569.73 744.29,-555.65 777.01,-540 915.16,-473.92 1068.22,-374.36 1134.44,-329.88"/>
<polygon fill="black" stroke="black" points="1136.49,-332.72 1142.83,-324.23 1132.58,-326.91 1136.49,-332.72"/>
</g>
<!-- ast.For object at 0x7fc7d16a8910 -->
<g id="node28" class="node">
<title>ast.For object at 0x7fc7d16a8910</title>
<path fill="#66cdaa" stroke="black" d="M756.01,-540C756.01,-540 726.01,-540 726.01,-540 720.01,-540 714.01,-534 714.01,-528 714.01,-528 714.01,-516 714.01,-516 714.01,-510 720.01,-504 726.01,-504 726.01,-504 756.01,-504 756.01,-504 762.01,-504 768.01,-510 768.01,-516 768.01,-516 768.01,-528 768.01,-528 768.01,-534 762.01,-540 756.01,-540"/>
<text text-anchor="middle" x="741.01" y="-518.3" font-family="Times,serif" font-size="14.00">For</text>
</g>
<!-- ast.FunctionDef object at 0x7fc7d9caefb0&#45;&gt;ast.For object at 0x7fc7d16a8910 -->
<g id="edge31" class="edge">
<title>ast.FunctionDef object at 0x7fc7d9caefb0&#45;&gt;ast.For object at 0x7fc7d16a8910</title>
<path fill="none" stroke="black" d="M660.18,-575.88C674.04,-566.81 691.25,-555.55 706.22,-545.76"/>
<polygon fill="black" stroke="black" points="708.28,-548.59 714.73,-540.19 704.45,-542.74 708.28,-548.59"/>
</g>
<!-- ast.Return object at 0x7fc7d18c5ea0 -->
<g id="node63" class="node">
<title>ast.Return object at 0x7fc7d18c5ea0</title>
<path fill="#66cdaa" stroke="black" d="M1154.01,-540C1154.01,-540 1124.01,-540 1124.01,-540 1118.01,-540 1112.01,-534 1112.01,-528 1112.01,-528 1112.01,-516 1112.01,-516 1112.01,-510 1118.01,-504 1124.01,-504 1124.01,-504 1154.01,-504 1154.01,-504 1160.01,-504 1166.01,-510 1166.01,-516 1166.01,-516 1166.01,-528 1166.01,-528 1166.01,-534 1160.01,-540 1154.01,-540"/>
<text text-anchor="middle" x="1139.01" y="-518.3" font-family="Times,serif" font-size="14.00">Return</text>
</g>
<!-- ast.FunctionDef object at 0x7fc7d9caefb0&#45;&gt;ast.Return object at 0x7fc7d18c5ea0 -->
<g id="edge85" class="edge">
<title>ast.FunctionDef object at 0x7fc7d9caefb0&#45;&gt;ast.Return object at 0x7fc7d18c5ea0</title>
<path fill="none" stroke="black" d="M676.65,-587.64C749.4,-578.42 902.16,-558.74 1031.01,-540 1054.63,-536.56 1081.1,-532.4 1101.93,-529.06"/>
<polygon fill="black" stroke="black" points="1102.65,-532.49 1111.96,-527.44 1101.53,-525.58 1102.65,-532.49"/>
</g>
<!-- ast.arg object at 0x7fc7d9cadd50 -->
<g id="node4" class="node">
<title>ast.arg object at 0x7fc7d9cadd50</title>
<path fill="#66cdaa" stroke="black" d="M309.01,-468C309.01,-468 279.01,-468 279.01,-468 273.01,-468 267.01,-462 267.01,-456 267.01,-456 267.01,-444 267.01,-444 267.01,-438 273.01,-432 279.01,-432 279.01,-432 309.01,-432 309.01,-432 315.01,-432 321.01,-438 321.01,-444 321.01,-444 321.01,-456 321.01,-456 321.01,-462 315.01,-468 309.01,-468"/>
<text text-anchor="middle" x="294.01" y="-446.3" font-family="Times,serif" font-size="14.00">arg</text>
</g>
<!-- ast.arguments object at 0x7fc7d9cad270&#45;&gt;ast.arg object at 0x7fc7d9cadd50 -->
<g id="edge3" class="edge">
<title>ast.arguments object at 0x7fc7d9cad270&#45;&gt;ast.arg object at 0x7fc7d9cadd50</title>
<path fill="none" stroke="black" d="M306.81,-503.7C304.91,-495.9 302.63,-486.51 300.52,-477.83"/>
<polygon fill="black" stroke="black" points="303.92,-477 298.16,-468.1 297.12,-478.65 303.92,-477"/>
</g>
<!-- ast.Name object at 0x7fc7d9cac6d0 -->
<g id="node6" class="node">
<title>ast.Name object at 0x7fc7d9cac6d0</title>
<path fill="#66cdaa" stroke="black" d="M447.01,-396C447.01,-396 417.01,-396 417.01,-396 411.01,-396 405.01,-390 405.01,-384 405.01,-384 405.01,-372 405.01,-372 405.01,-366 411.01,-360 417.01,-360 417.01,-360 447.01,-360 447.01,-360 453.01,-360 459.01,-366 459.01,-372 459.01,-372 459.01,-384 459.01,-384 459.01,-390 453.01,-396 447.01,-396"/>
<text text-anchor="middle" x="432.01" y="-374.3" font-family="Times,serif" font-size="14.00">Name</text>
</g>
<!-- ast.Assign object at 0x7fc7d9cad990&#45;&gt;ast.Name object at 0x7fc7d9cac6d0 -->
<g id="edge5" class="edge">
<title>ast.Assign object at 0x7fc7d9cad990&#45;&gt;ast.Name object at 0x7fc7d9cac6d0</title>
<path fill="none" stroke="black" d="M554.29,-503.81C553.74,-484.44 550.15,-452.95 534.01,-432 517.85,-411.02 491.04,-397.55 468.97,-389.44"/>
<polygon fill="black" stroke="black" points="469.8,-386.03 459.21,-386.09 467.53,-392.65 469.8,-386.03"/>
</g>
<!-- ast.Constant object at 0x7fc7d16002e0 -->
<g id="node8" class="node">
<title>ast.Constant object at 0x7fc7d16002e0</title>
<path fill="#66cdaa" stroke="black" d="M513.51,-468C513.51,-468 472.51,-468 472.51,-468 466.51,-468 460.51,-462 460.51,-456 460.51,-456 460.51,-444 460.51,-444 460.51,-438 466.51,-432 472.51,-432 472.51,-432 513.51,-432 513.51,-432 519.51,-432 525.51,-438 525.51,-444 525.51,-444 525.51,-456 525.51,-456 525.51,-462 519.51,-468 513.51,-468"/>
<text text-anchor="middle" x="493.01" y="-446.3" font-family="Times,serif" font-size="14.00">Constant</text>
</g>
<!-- ast.Assign object at 0x7fc7d9cad990&#45;&gt;ast.Constant object at 0x7fc7d16002e0 -->
<g id="edge7" class="edge">
<title>ast.Assign object at 0x7fc7d9cad990&#45;&gt;ast.Constant object at 0x7fc7d16002e0</title>
<path fill="none" stroke="black" d="M538.93,-503.7C531.62,-495.3 522.7,-485.07 514.67,-475.86"/>
<polygon fill="black" stroke="black" points="517.12,-473.34 507.91,-468.1 511.84,-477.94 517.12,-473.34"/>
</g>
<!-- ast.Store object at 0x7fc83b8f2020 -->
<g id="node7" class="node">
<title>ast.Store object at 0x7fc83b8f2020</title>
<path fill="#66cdaa" stroke="black" d="M436.01,-252C436.01,-252 406.01,-252 406.01,-252 400.01,-252 394.01,-246 394.01,-240 394.01,-240 394.01,-228 394.01,-228 394.01,-222 400.01,-216 406.01,-216 406.01,-216 436.01,-216 436.01,-216 442.01,-216 448.01,-222 448.01,-228 448.01,-228 448.01,-240 448.01,-240 448.01,-246 442.01,-252 436.01,-252"/>
<text text-anchor="middle" x="421.01" y="-230.3" font-family="Times,serif" font-size="14.00">Store</text>
</g>
<!-- ast.Name object at 0x7fc7d9cac6d0&#45;&gt;ast.Store object at 0x7fc83b8f2020 -->
<g id="edge6" class="edge">
<title>ast.Name object at 0x7fc7d9cac6d0&#45;&gt;ast.Store object at 0x7fc83b8f2020</title>
<path fill="none" stroke="black" d="M423.29,-359.83C418.63,-349.69 413.38,-336.44 411.01,-324 407.1,-303.51 410.03,-280.05 413.71,-262.37"/>
<polygon fill="black" stroke="black" points="417.22,-262.71 416.04,-252.18 410.4,-261.15 417.22,-262.71"/>
</g>
<!-- ast.Name object at 0x7fc7ea8662f0 -->
<g id="node10" class="node">
<title>ast.Name object at 0x7fc7ea8662f0</title>
<path fill="#66cdaa" stroke="black" d="M364.01,-396C364.01,-396 334.01,-396 334.01,-396 328.01,-396 322.01,-390 322.01,-384 322.01,-384 322.01,-372 322.01,-372 322.01,-366 328.01,-360 334.01,-360 334.01,-360 364.01,-360 364.01,-360 370.01,-360 376.01,-366 376.01,-372 376.01,-372 376.01,-384 376.01,-384 376.01,-390 370.01,-396 364.01,-396"/>
<text text-anchor="middle" x="349.01" y="-374.3" font-family="Times,serif" font-size="14.00">Name</text>
</g>
<!-- ast.Assign object at 0x7fc7d181bc10&#45;&gt;ast.Name object at 0x7fc7ea8662f0 -->
<g id="edge9" class="edge">
<title>ast.Assign object at 0x7fc7d181bc10&#45;&gt;ast.Name object at 0x7fc7ea8662f0</title>
<path fill="none" stroke="black" d="M392.97,-503.76C384.26,-494.02 374.21,-481.17 368.01,-468 358.78,-448.4 353.98,-424.27 351.52,-406.08"/>
<polygon fill="black" stroke="black" points="355,-405.65 350.33,-396.14 348.05,-406.49 355,-405.65"/>
</g>
<!-- ast.Constant object at 0x7fc7ea866800 -->
<g id="node11" class="node">
<title>ast.Constant object at 0x7fc7ea866800</title>
<path fill="#66cdaa" stroke="black" d="M430.51,-468C430.51,-468 389.51,-468 389.51,-468 383.51,-468 377.51,-462 377.51,-456 377.51,-456 377.51,-444 377.51,-444 377.51,-438 383.51,-432 389.51,-432 389.51,-432 430.51,-432 430.51,-432 436.51,-432 442.51,-438 442.51,-444 442.51,-444 442.51,-456 442.51,-456 442.51,-462 436.51,-468 430.51,-468"/>
<text text-anchor="middle" x="410.01" y="-446.3" font-family="Times,serif" font-size="14.00">Constant</text>
</g>
<!-- ast.Assign object at 0x7fc7d181bc10&#45;&gt;ast.Constant object at 0x7fc7ea866800 -->
<g id="edge11" class="edge">
<title>ast.Assign object at 0x7fc7d181bc10&#45;&gt;ast.Constant object at 0x7fc7ea866800</title>
<path fill="none" stroke="black" d="M410.01,-503.7C410.01,-495.98 410.01,-486.71 410.01,-478.11"/>
<polygon fill="black" stroke="black" points="413.51,-478.1 410.01,-468.1 406.51,-478.1 413.51,-478.1"/>
</g>
<!-- ast.Name object at 0x7fc7ea8662f0&#45;&gt;ast.Store object at 0x7fc83b8f2020 -->
<g id="edge10" class="edge">
<title>ast.Name object at 0x7fc7ea8662f0&#45;&gt;ast.Store object at 0x7fc83b8f2020</title>
<path fill="none" stroke="black" d="M357.69,-359.87C370.13,-335.35 393.1,-290.03 407.69,-261.26"/>
<polygon fill="black" stroke="black" points="410.89,-262.69 412.29,-252.19 404.65,-259.53 410.89,-262.69"/>
</g>
<!-- ast.Name object at 0x7fc7d16a93c0 -->
<g id="node13" class="node">
<title>ast.Name object at 0x7fc7d16a93c0</title>
<path fill="#66cdaa" stroke="black" d="M536.01,-396C536.01,-396 506.01,-396 506.01,-396 500.01,-396 494.01,-390 494.01,-384 494.01,-384 494.01,-372 494.01,-372 494.01,-366 500.01,-360 506.01,-360 506.01,-360 536.01,-360 536.01,-360 542.01,-360 548.01,-366 548.01,-372 548.01,-372 548.01,-384 548.01,-384 548.01,-390 542.01,-396 536.01,-396"/>
<text text-anchor="middle" x="521.01" y="-374.3" font-family="Times,serif" font-size="14.00">Name</text>
</g>
<!-- ast.Assign object at 0x7fc7d16a95a0&#45;&gt;ast.Name object at 0x7fc7d16a93c0 -->
<g id="edge13" class="edge">
<title>ast.Assign object at 0x7fc7d16a95a0&#45;&gt;ast.Name object at 0x7fc7d16a93c0</title>
<path fill="none" stroke="black" d="M622.03,-503.94C609.12,-485.77 587.77,-456.35 568.01,-432 560.41,-422.64 551.75,-412.68 543.94,-403.95"/>
<polygon fill="black" stroke="black" points="546.36,-401.41 537.07,-396.33 541.17,-406.1 546.36,-401.41"/>
</g>
<!-- ast.Constant object at 0x7fc7d16a8f10 -->
<g id="node14" class="node">
<title>ast.Constant object at 0x7fc7d16a8f10</title>
<path fill="#66cdaa" stroke="black" d="M673.51,-468C673.51,-468 632.51,-468 632.51,-468 626.51,-468 620.51,-462 620.51,-456 620.51,-456 620.51,-444 620.51,-444 620.51,-438 626.51,-432 632.51,-432 632.51,-432 673.51,-432 673.51,-432 679.51,-432 685.51,-438 685.51,-444 685.51,-444 685.51,-456 685.51,-456 685.51,-462 679.51,-468 673.51,-468"/>
<text text-anchor="middle" x="653.01" y="-446.3" font-family="Times,serif" font-size="14.00">Constant</text>
</g>
<!-- ast.Assign object at 0x7fc7d16a95a0&#45;&gt;ast.Constant object at 0x7fc7d16a8f10 -->
<g id="edge15" class="edge">
<title>ast.Assign object at 0x7fc7d16a95a0&#45;&gt;ast.Constant object at 0x7fc7d16a8f10</title>
<path fill="none" stroke="black" d="M638.71,-503.7C640.82,-495.9 643.37,-486.51 645.73,-477.83"/>
<polygon fill="black" stroke="black" points="649.12,-478.67 648.37,-468.1 642.37,-476.84 649.12,-478.67"/>
</g>
<!-- ast.Name object at 0x7fc7d16a93c0&#45;&gt;ast.Store object at 0x7fc83b8f2020 -->
<g id="edge14" class="edge">
<title>ast.Name object at 0x7fc7d16a93c0&#45;&gt;ast.Store object at 0x7fc83b8f2020</title>
<path fill="none" stroke="black" d="M493.67,-362.62C478.56,-353.41 460.56,-340.16 449.01,-324 435.88,-305.63 428.74,-280.87 424.97,-262.13"/>
<polygon fill="black" stroke="black" points="428.39,-261.37 423.16,-252.15 421.5,-262.62 428.39,-261.37"/>
</g>
<!-- ast.Compare object at 0x7fc7d16a87f0 -->
<g id="node16" class="node">
<title>ast.Compare object at 0x7fc7d16a87f0</title>
<path fill="#66cdaa" stroke="black" d="M1189.51,-252C1189.51,-252 1146.51,-252 1146.51,-252 1140.51,-252 1134.51,-246 1134.51,-240 1134.51,-240 1134.51,-228 1134.51,-228 1134.51,-222 1140.51,-216 1146.51,-216 1146.51,-216 1189.51,-216 1189.51,-216 1195.51,-216 1201.51,-222 1201.51,-228 1201.51,-228 1201.51,-240 1201.51,-240 1201.51,-246 1195.51,-252 1189.51,-252"/>
<text text-anchor="middle" x="1168.01" y="-230.3" font-family="Times,serif" font-size="14.00">Compare</text>
</g>
<!-- ast.If object at 0x7fc7d16a8100&#45;&gt;ast.Compare object at 0x7fc7d16a87f0 -->
<g id="edge17" class="edge">
<title>ast.If object at 0x7fc7d16a8100&#45;&gt;ast.Compare object at 0x7fc7d16a87f0</title>
<path fill="none" stroke="black" d="M1168.01,-287.7C1168.01,-279.98 1168.01,-270.71 1168.01,-262.11"/>
<polygon fill="black" stroke="black" points="1171.51,-262.1 1168.01,-252.1 1164.51,-262.1 1171.51,-262.1"/>
</g>
<!-- ast.Return object at 0x7fc7d16a92d0 -->
<g id="node26" class="node">
<title>ast.Return object at 0x7fc7d16a92d0</title>
<path fill="#66cdaa" stroke="black" d="M1298.01,-252C1298.01,-252 1268.01,-252 1268.01,-252 1262.01,-252 1256.01,-246 1256.01,-240 1256.01,-240 1256.01,-228 1256.01,-228 1256.01,-222 1262.01,-216 1268.01,-216 1268.01,-216 1298.01,-216 1298.01,-216 1304.01,-216 1310.01,-222 1310.01,-228 1310.01,-228 1310.01,-240 1310.01,-240 1310.01,-246 1304.01,-252 1298.01,-252"/>
<text text-anchor="middle" x="1283.01" y="-230.3" font-family="Times,serif" font-size="14.00">Return</text>
</g>
<!-- ast.If object at 0x7fc7d16a8100&#45;&gt;ast.Return object at 0x7fc7d16a92d0 -->
<g id="edge29" class="edge">
<title>ast.If object at 0x7fc7d16a8100&#45;&gt;ast.Return object at 0x7fc7d16a92d0</title>
<path fill="none" stroke="black" d="M1195.26,-288.41C1210.73,-279 1230.28,-267.1 1247,-256.92"/>
<polygon fill="black" stroke="black" points="1249.23,-259.66 1255.95,-251.47 1245.59,-253.68 1249.23,-259.66"/>
</g>
<!-- ast.Call object at 0x7fc7d16a8fa0 -->
<g id="node17" class="node">
<title>ast.Call object at 0x7fc7d16a8fa0</title>
<path fill="#66cdaa" stroke="black" d="M1111.01,-180C1111.01,-180 1081.01,-180 1081.01,-180 1075.01,-180 1069.01,-174 1069.01,-168 1069.01,-168 1069.01,-156 1069.01,-156 1069.01,-150 1075.01,-144 1081.01,-144 1081.01,-144 1111.01,-144 1111.01,-144 1117.01,-144 1123.01,-150 1123.01,-156 1123.01,-156 1123.01,-168 1123.01,-168 1123.01,-174 1117.01,-180 1111.01,-180"/>
<text text-anchor="middle" x="1096.01" y="-158.3" font-family="Times,serif" font-size="14.00">Call</text>
</g>
<!-- ast.Compare object at 0x7fc7d16a87f0&#45;&gt;ast.Call object at 0x7fc7d16a8fa0 -->
<g id="edge18" class="edge">
<title>ast.Compare object at 0x7fc7d16a87f0&#45;&gt;ast.Call object at 0x7fc7d16a8fa0</title>
<path fill="none" stroke="black" d="M1150.21,-215.7C1141.4,-207.14 1130.63,-196.66 1121.01,-187.3"/>
<polygon fill="black" stroke="black" points="1123.21,-184.57 1113.6,-180.1 1118.33,-189.58 1123.21,-184.57"/>
</g>
<!-- ast.Lt object at 0x7fc83b8f29b0 -->
<g id="node21" class="node">
<title>ast.Lt object at 0x7fc83b8f29b0</title>
<path fill="#66cdaa" stroke="black" d="M1255.01,-180C1255.01,-180 1225.01,-180 1225.01,-180 1219.01,-180 1213.01,-174 1213.01,-168 1213.01,-168 1213.01,-156 1213.01,-156 1213.01,-150 1219.01,-144 1225.01,-144 1225.01,-144 1255.01,-144 1255.01,-144 1261.01,-144 1267.01,-150 1267.01,-156 1267.01,-156 1267.01,-168 1267.01,-168 1267.01,-174 1261.01,-180 1255.01,-180"/>
<text text-anchor="middle" x="1240.01" y="-158.3" font-family="Times,serif" font-size="14.00">Lt</text>
</g>
<!-- ast.Compare object at 0x7fc7d16a87f0&#45;&gt;ast.Lt object at 0x7fc83b8f29b0 -->
<g id="edge23" class="edge">
<title>ast.Compare object at 0x7fc7d16a87f0&#45;&gt;ast.Lt object at 0x7fc83b8f29b0</title>
<path fill="none" stroke="black" d="M1185.81,-215.7C1194.61,-207.14 1205.39,-196.66 1215.01,-187.3"/>
<polygon fill="black" stroke="black" points="1217.69,-189.58 1222.42,-180.1 1212.81,-184.57 1217.69,-189.58"/>
</g>
<!-- ast.BinOp object at 0x7fc7d16a9210 -->
<g id="node22" class="node">
<title>ast.BinOp object at 0x7fc7d16a9210</title>
<path fill="#66cdaa" stroke="black" d="M1183.01,-180C1183.01,-180 1153.01,-180 1153.01,-180 1147.01,-180 1141.01,-174 1141.01,-168 1141.01,-168 1141.01,-156 1141.01,-156 1141.01,-150 1147.01,-144 1153.01,-144 1153.01,-144 1183.01,-144 1183.01,-144 1189.01,-144 1195.01,-150 1195.01,-156 1195.01,-156 1195.01,-168 1195.01,-168 1195.01,-174 1189.01,-180 1183.01,-180"/>
<text text-anchor="middle" x="1168.01" y="-158.3" font-family="Times,serif" font-size="14.00">BinOp</text>
</g>
<!-- ast.Compare object at 0x7fc7d16a87f0&#45;&gt;ast.BinOp object at 0x7fc7d16a9210 -->
<g id="edge24" class="edge">
<title>ast.Compare object at 0x7fc7d16a87f0&#45;&gt;ast.BinOp object at 0x7fc7d16a9210</title>
<path fill="none" stroke="black" d="M1168.01,-215.7C1168.01,-207.98 1168.01,-198.71 1168.01,-190.11"/>
<polygon fill="black" stroke="black" points="1171.51,-190.1 1168.01,-180.1 1164.51,-190.1 1171.51,-190.1"/>
</g>
<!-- ast.Name object at 0x7fc7d16a94b0 -->
<g id="node18" class="node">
<title>ast.Name object at 0x7fc7d16a94b0</title>
<path fill="#66cdaa" stroke="black" d="M1110.01,-108C1110.01,-108 1080.01,-108 1080.01,-108 1074.01,-108 1068.01,-102 1068.01,-96 1068.01,-96 1068.01,-84 1068.01,-84 1068.01,-78 1074.01,-72 1080.01,-72 1080.01,-72 1110.01,-72 1110.01,-72 1116.01,-72 1122.01,-78 1122.01,-84 1122.01,-84 1122.01,-96 1122.01,-96 1122.01,-102 1116.01,-108 1110.01,-108"/>
<text text-anchor="middle" x="1095.01" y="-86.3" font-family="Times,serif" font-size="14.00">Name</text>
</g>
<!-- ast.Call object at 0x7fc7d16a8fa0&#45;&gt;ast.Name object at 0x7fc7d16a94b0 -->
<g id="edge19" class="edge">
<title>ast.Call object at 0x7fc7d16a8fa0&#45;&gt;ast.Name object at 0x7fc7d16a94b0</title>
<path fill="none" stroke="black" d="M1095.76,-143.7C1095.65,-135.98 1095.52,-126.71 1095.4,-118.11"/>
<polygon fill="black" stroke="black" points="1098.9,-118.05 1095.25,-108.1 1091.9,-118.15 1098.9,-118.05"/>
</g>
<!-- ast.Name object at 0x7fc7d16a8ca0 -->
<g id="node20" class="node">
<title>ast.Name object at 0x7fc7d16a8ca0</title>
<path fill="#66cdaa" stroke="black" d="M1182.01,-108C1182.01,-108 1152.01,-108 1152.01,-108 1146.01,-108 1140.01,-102 1140.01,-96 1140.01,-96 1140.01,-84 1140.01,-84 1140.01,-78 1146.01,-72 1152.01,-72 1152.01,-72 1182.01,-72 1182.01,-72 1188.01,-72 1194.01,-78 1194.01,-84 1194.01,-84 1194.01,-96 1194.01,-96 1194.01,-102 1188.01,-108 1182.01,-108"/>
<text text-anchor="middle" x="1167.01" y="-86.3" font-family="Times,serif" font-size="14.00">Name</text>
</g>
<!-- ast.Call object at 0x7fc7d16a8fa0&#45;&gt;ast.Name object at 0x7fc7d16a8ca0 -->
<g id="edge21" class="edge">
<title>ast.Call object at 0x7fc7d16a8fa0&#45;&gt;ast.Name object at 0x7fc7d16a8ca0</title>
<path fill="none" stroke="black" d="M1113.56,-143.7C1122.24,-135.14 1132.87,-124.66 1142.36,-115.3"/>
<polygon fill="black" stroke="black" points="1145,-117.62 1149.66,-108.1 1140.08,-112.63 1145,-117.62"/>
</g>
<!-- ast.Load object at 0x7fc83b8f1fc0 -->
<g id="node19" class="node">
<title>ast.Load object at 0x7fc83b8f1fc0</title>
<path fill="#66cdaa" stroke="black" d="M698.01,-36C698.01,-36 668.01,-36 668.01,-36 662.01,-36 656.01,-30 656.01,-24 656.01,-24 656.01,-12 656.01,-12 656.01,-6 662.01,0 668.01,0 668.01,0 698.01,0 698.01,0 704.01,0 710.01,-6 710.01,-12 710.01,-12 710.01,-24 710.01,-24 710.01,-30 704.01,-36 698.01,-36"/>
<text text-anchor="middle" x="683.01" y="-14.3" font-family="Times,serif" font-size="14.00">Load</text>
</g>
<!-- ast.Name object at 0x7fc7d16a94b0&#45;&gt;ast.Load object at 0x7fc83b8f1fc0 -->
<g id="edge20" class="edge">
<title>ast.Name object at 0x7fc7d16a94b0&#45;&gt;ast.Load object at 0x7fc83b8f1fc0</title>
<path fill="none" stroke="black" d="M1068,-76.68C1063.4,-74.91 1058.62,-73.26 1054.01,-72 934.58,-39.27 787.68,-25.91 720.16,-21.21"/>
<polygon fill="black" stroke="black" points="720.23,-17.71 710.02,-20.53 719.76,-24.69 720.23,-17.71"/>
</g>
<!-- ast.Name object at 0x7fc7d16a8ca0&#45;&gt;ast.Load object at 0x7fc83b8f1fc0 -->
<g id="edge22" class="edge">
<title>ast.Name object at 0x7fc7d16a8ca0&#45;&gt;ast.Load object at 0x7fc83b8f1fc0</title>
<path fill="none" stroke="black" d="M1139.85,-75.06C1136.91,-73.89 1133.93,-72.84 1131.01,-72 983.07,-29.55 798.28,-21.04 720.38,-19.38"/>
<polygon fill="black" stroke="black" points="720.18,-15.87 710.11,-19.19 720.04,-22.87 720.18,-15.87"/>
</g>
<!-- ast.Name object at 0x7fc7d16a88b0 -->
<g id="node23" class="node">
<title>ast.Name object at 0x7fc7d16a88b0</title>
<path fill="#66cdaa" stroke="black" d="M1254.01,-108C1254.01,-108 1224.01,-108 1224.01,-108 1218.01,-108 1212.01,-102 1212.01,-96 1212.01,-96 1212.01,-84 1212.01,-84 1212.01,-78 1218.01,-72 1224.01,-72 1224.01,-72 1254.01,-72 1254.01,-72 1260.01,-72 1266.01,-78 1266.01,-84 1266.01,-84 1266.01,-96 1266.01,-96 1266.01,-102 1260.01,-108 1254.01,-108"/>
<text text-anchor="middle" x="1239.01" y="-86.3" font-family="Times,serif" font-size="14.00">Name</text>
</g>
<!-- ast.BinOp object at 0x7fc7d16a9210&#45;&gt;ast.Name object at 0x7fc7d16a88b0 -->
<g id="edge25" class="edge">
<title>ast.BinOp object at 0x7fc7d16a9210&#45;&gt;ast.Name object at 0x7fc7d16a88b0</title>
<path fill="none" stroke="black" d="M1185.56,-143.7C1194.24,-135.14 1204.87,-124.66 1214.36,-115.3"/>
<polygon fill="black" stroke="black" points="1217,-117.62 1221.66,-108.1 1212.08,-112.63 1217,-117.62"/>
</g>
<!-- ast.Add object at 0x7fc83b8f2200 -->
<g id="node24" class="node">
<title>ast.Add object at 0x7fc83b8f2200</title>
<path fill="#66cdaa" stroke="black" d="M962.01,-108C962.01,-108 932.01,-108 932.01,-108 926.01,-108 920.01,-102 920.01,-96 920.01,-96 920.01,-84 920.01,-84 920.01,-78 926.01,-72 932.01,-72 932.01,-72 962.01,-72 962.01,-72 968.01,-72 974.01,-78 974.01,-84 974.01,-84 974.01,-96 974.01,-96 974.01,-102 968.01,-108 962.01,-108"/>
<text text-anchor="middle" x="947.01" y="-86.3" font-family="Times,serif" font-size="14.00">Add</text>
</g>
<!-- ast.BinOp object at 0x7fc7d16a9210&#45;&gt;ast.Add object at 0x7fc83b8f2200 -->
<g id="edge27" class="edge">
<title>ast.BinOp object at 0x7fc7d16a9210&#45;&gt;ast.Add object at 0x7fc83b8f2200</title>
<path fill="none" stroke="black" d="M1140.69,-147.54C1137.79,-146.28 1134.85,-145.07 1132.01,-144 1081.85,-125.11 1021.91,-109.09 984.14,-99.75"/>
<polygon fill="black" stroke="black" points="984.65,-96.27 974.1,-97.3 982.99,-103.07 984.65,-96.27"/>
</g>
<!-- ast.Constant object at 0x7fc7d16a8670 -->
<g id="node25" class="node">
<title>ast.Constant object at 0x7fc7d16a8670</title>
<path fill="#66cdaa" stroke="black" d="M1337.51,-108C1337.51,-108 1296.51,-108 1296.51,-108 1290.51,-108 1284.51,-102 1284.51,-96 1284.51,-96 1284.51,-84 1284.51,-84 1284.51,-78 1290.51,-72 1296.51,-72 1296.51,-72 1337.51,-72 1337.51,-72 1343.51,-72 1349.51,-78 1349.51,-84 1349.51,-84 1349.51,-96 1349.51,-96 1349.51,-102 1343.51,-108 1337.51,-108"/>
<text text-anchor="middle" x="1317.01" y="-86.3" font-family="Times,serif" font-size="14.00">Constant</text>
</g>
<!-- ast.BinOp object at 0x7fc7d16a9210&#45;&gt;ast.Constant object at 0x7fc7d16a8670 -->
<g id="edge28" class="edge">
<title>ast.BinOp object at 0x7fc7d16a9210&#45;&gt;ast.Constant object at 0x7fc7d16a8670</title>
<path fill="none" stroke="black" d="M1195.13,-148.18C1198.13,-146.77 1201.13,-145.35 1204.01,-144 1227.58,-132.91 1253.93,-120.55 1275.25,-110.55"/>
<polygon fill="black" stroke="black" points="1276.79,-113.7 1284.36,-106.28 1273.82,-107.36 1276.79,-113.7"/>
</g>
<!-- ast.Name object at 0x7fc7d16a88b0&#45;&gt;ast.Load object at 0x7fc83b8f1fc0 -->
<g id="edge26" class="edge">
<title>ast.Name object at 0x7fc7d16a88b0&#45;&gt;ast.Load object at 0x7fc83b8f1fc0</title>
<path fill="none" stroke="black" d="M1211.86,-75.01C1208.92,-73.85 1205.94,-72.82 1203.01,-72 1027.19,-23.08 806.69,-18.31 720.22,-18.52"/>
<polygon fill="black" stroke="black" points="720.1,-15.02 710.12,-18.57 720.13,-22.02 720.1,-15.02"/>
</g>
<!-- ast.Constant object at 0x7fc7d16a8130 -->
<g id="node27" class="node">
<title>ast.Constant object at 0x7fc7d16a8130</title>
<path fill="#66cdaa" stroke="black" d="M1338.51,-180C1338.51,-180 1297.51,-180 1297.51,-180 1291.51,-180 1285.51,-174 1285.51,-168 1285.51,-168 1285.51,-156 1285.51,-156 1285.51,-150 1291.51,-144 1297.51,-144 1297.51,-144 1338.51,-144 1338.51,-144 1344.51,-144 1350.51,-150 1350.51,-156 1350.51,-156 1350.51,-168 1350.51,-168 1350.51,-174 1344.51,-180 1338.51,-180"/>
<text text-anchor="middle" x="1318.01" y="-158.3" font-family="Times,serif" font-size="14.00">Constant</text>
</g>
<!-- ast.Return object at 0x7fc7d16a92d0&#45;&gt;ast.Constant object at 0x7fc7d16a8130 -->
<g id="edge30" class="edge">
<title>ast.Return object at 0x7fc7d16a92d0&#45;&gt;ast.Constant object at 0x7fc7d16a8130</title>
<path fill="none" stroke="black" d="M1291.66,-215.7C1295.64,-207.73 1300.46,-198.1 1304.88,-189.26"/>
<polygon fill="black" stroke="black" points="1308.11,-190.61 1309.46,-180.1 1301.85,-187.48 1308.11,-190.61"/>
</g>
<!-- ast.Name object at 0x7fc7d16a91e0 -->
<g id="node29" class="node">
<title>ast.Name object at 0x7fc7d16a91e0</title>
<path fill="#66cdaa" stroke="black" d="M616.01,-396C616.01,-396 586.01,-396 586.01,-396 580.01,-396 574.01,-390 574.01,-384 574.01,-384 574.01,-372 574.01,-372 574.01,-366 580.01,-360 586.01,-360 586.01,-360 616.01,-360 616.01,-360 622.01,-360 628.01,-366 628.01,-372 628.01,-372 628.01,-384 628.01,-384 628.01,-390 622.01,-396 616.01,-396"/>
<text text-anchor="middle" x="601.01" y="-374.3" font-family="Times,serif" font-size="14.00">Name</text>
</g>
<!-- ast.For object at 0x7fc7d16a8910&#45;&gt;ast.Name object at 0x7fc7d16a91e0 -->
<g id="edge32" class="edge">
<title>ast.For object at 0x7fc7d16a8910&#45;&gt;ast.Name object at 0x7fc7d16a91e0</title>
<path fill="none" stroke="black" d="M735.28,-503.81C728.12,-484.45 714.31,-452.96 694.01,-432 685.2,-422.91 659.43,-408.48 637.25,-396.98"/>
<polygon fill="black" stroke="black" points="638.83,-393.86 628.34,-392.41 635.64,-400.08 638.83,-393.86"/>
</g>
<!-- ast.Call object at 0x7fc7d16a82b0 -->
<g id="node30" class="node">
<title>ast.Call object at 0x7fc7d16a82b0</title>
<path fill="#66cdaa" stroke="black" d="M968.01,-252C968.01,-252 938.01,-252 938.01,-252 932.01,-252 926.01,-246 926.01,-240 926.01,-240 926.01,-228 926.01,-228 926.01,-222 932.01,-216 938.01,-216 938.01,-216 968.01,-216 968.01,-216 974.01,-216 980.01,-222 980.01,-228 980.01,-228 980.01,-240 980.01,-240 980.01,-246 974.01,-252 968.01,-252"/>
<text text-anchor="middle" x="953.01" y="-230.3" font-family="Times,serif" font-size="14.00">Call</text>
</g>
<!-- ast.For object at 0x7fc7d16a8910&#45;&gt;ast.Call object at 0x7fc7d16a82b0 -->
<g id="edge34" class="edge">
<title>ast.For object at 0x7fc7d16a8910&#45;&gt;ast.Call object at 0x7fc7d16a82b0</title>
<path fill="none" stroke="black" d="M764.36,-503.82C777.02,-494 792.57,-481.05 805.01,-468 860.2,-410.09 872.36,-392.91 913.01,-324 924.85,-303.93 935.51,-279.74 942.84,-261.65"/>
<polygon fill="black" stroke="black" points="946.12,-262.87 946.56,-252.29 939.62,-260.29 946.12,-262.87"/>
</g>
<!-- ast.If object at 0x7fc7d1667160 -->
<g id="node36" class="node">
<title>ast.If object at 0x7fc7d1667160</title>
<path fill="#66cdaa" stroke="black" d="M784.01,-468C784.01,-468 754.01,-468 754.01,-468 748.01,-468 742.01,-462 742.01,-456 742.01,-456 742.01,-444 742.01,-444 742.01,-438 748.01,-432 754.01,-432 754.01,-432 784.01,-432 784.01,-432 790.01,-432 796.01,-438 796.01,-444 796.01,-444 796.01,-456 796.01,-456 796.01,-462 790.01,-468 784.01,-468"/>
<text text-anchor="middle" x="769.01" y="-446.3" font-family="Times,serif" font-size="14.00">If</text>
</g>
<!-- ast.For object at 0x7fc7d16a8910&#45;&gt;ast.If object at 0x7fc7d1667160 -->
<g id="edge44" class="edge">
<title>ast.For object at 0x7fc7d16a8910&#45;&gt;ast.If object at 0x7fc7d1667160</title>
<path fill="none" stroke="black" d="M747.93,-503.7C751.08,-495.81 754.89,-486.3 758.39,-477.55"/>
<polygon fill="black" stroke="black" points="761.7,-478.69 762.17,-468.1 755.2,-476.09 761.7,-478.69"/>
</g>
<!-- ast.Name object at 0x7fc7d16a91e0&#45;&gt;ast.Store object at 0x7fc83b8f2020 -->
<g id="edge33" class="edge">
<title>ast.Name object at 0x7fc7d16a91e0&#45;&gt;ast.Store object at 0x7fc83b8f2020</title>
<path fill="none" stroke="black" d="M573.96,-365.87C541.23,-352.26 489.52,-330.26 482.01,-324 461.23,-306.69 444.48,-280.6 433.83,-261.14"/>
<polygon fill="black" stroke="black" points="436.87,-259.39 429.1,-252.18 430.68,-262.66 436.87,-259.39"/>
</g>
<!-- ast.Name object at 0x7fc7d16a80d0 -->
<g id="node31" class="node">
<title>ast.Name object at 0x7fc7d16a80d0</title>
<path fill="#66cdaa" stroke="black" d="M1039.01,-180C1039.01,-180 1009.01,-180 1009.01,-180 1003.01,-180 997.01,-174 997.01,-168 997.01,-168 997.01,-156 997.01,-156 997.01,-150 1003.01,-144 1009.01,-144 1009.01,-144 1039.01,-144 1039.01,-144 1045.01,-144 1051.01,-150 1051.01,-156 1051.01,-156 1051.01,-168 1051.01,-168 1051.01,-174 1045.01,-180 1039.01,-180"/>
<text text-anchor="middle" x="1024.01" y="-158.3" font-family="Times,serif" font-size="14.00">Name</text>
</g>
<!-- ast.Call object at 0x7fc7d16a82b0&#45;&gt;ast.Name object at 0x7fc7d16a80d0 -->
<g id="edge35" class="edge">
<title>ast.Call object at 0x7fc7d16a82b0&#45;&gt;ast.Name object at 0x7fc7d16a80d0</title>
<path fill="none" stroke="black" d="M970.56,-215.7C979.24,-207.14 989.87,-196.66 999.36,-187.3"/>
<polygon fill="black" stroke="black" points="1002,-189.62 1006.66,-180.1 997.08,-184.63 1002,-189.62"/>
</g>
<!-- ast.Name object at 0x7fc7d16a81f0 -->
<g id="node32" class="node">
<title>ast.Name object at 0x7fc7d16a81f0</title>
<path fill="#66cdaa" stroke="black" d="M967.01,-180C967.01,-180 937.01,-180 937.01,-180 931.01,-180 925.01,-174 925.01,-168 925.01,-168 925.01,-156 925.01,-156 925.01,-150 931.01,-144 937.01,-144 937.01,-144 967.01,-144 967.01,-144 973.01,-144 979.01,-150 979.01,-156 979.01,-156 979.01,-168 979.01,-168 979.01,-174 973.01,-180 967.01,-180"/>
<text text-anchor="middle" x="952.01" y="-158.3" font-family="Times,serif" font-size="14.00">Name</text>
</g>
<!-- ast.Call object at 0x7fc7d16a82b0&#45;&gt;ast.Name object at 0x7fc7d16a81f0 -->
<g id="edge37" class="edge">
<title>ast.Call object at 0x7fc7d16a82b0&#45;&gt;ast.Name object at 0x7fc7d16a81f0</title>
<path fill="none" stroke="black" d="M952.76,-215.7C952.65,-207.98 952.52,-198.71 952.4,-190.11"/>
<polygon fill="black" stroke="black" points="955.9,-190.05 952.25,-180.1 948.9,-190.15 955.9,-190.05"/>
</g>
<!-- ast.BinOp object at 0x7fc7d16a9180 -->
<g id="node33" class="node">
<title>ast.BinOp object at 0x7fc7d16a9180</title>
<path fill="#66cdaa" stroke="black" d="M812.01,-180C812.01,-180 782.01,-180 782.01,-180 776.01,-180 770.01,-174 770.01,-168 770.01,-168 770.01,-156 770.01,-156 770.01,-150 776.01,-144 782.01,-144 782.01,-144 812.01,-144 812.01,-144 818.01,-144 824.01,-150 824.01,-156 824.01,-156 824.01,-168 824.01,-168 824.01,-174 818.01,-180 812.01,-180"/>
<text text-anchor="middle" x="797.01" y="-158.3" font-family="Times,serif" font-size="14.00">BinOp</text>
</g>
<!-- ast.Call object at 0x7fc7d16a82b0&#45;&gt;ast.BinOp object at 0x7fc7d16a9180 -->
<g id="edge39" class="edge">
<title>ast.Call object at 0x7fc7d16a82b0&#45;&gt;ast.BinOp object at 0x7fc7d16a9180</title>
<path fill="none" stroke="black" d="M925.95,-220.52C922.6,-218.99 919.23,-217.46 916.01,-216 888.48,-203.55 857.28,-189.66 833.73,-179.22"/>
<polygon fill="black" stroke="black" points="835.02,-175.97 824.46,-175.12 832.19,-182.37 835.02,-175.97"/>
</g>
<!-- ast.Name object at 0x7fc7d16a80d0&#45;&gt;ast.Load object at 0x7fc83b8f1fc0 -->
<g id="edge36" class="edge">
<title>ast.Name object at 0x7fc7d16a80d0&#45;&gt;ast.Load object at 0x7fc83b8f1fc0</title>
<path fill="none" stroke="black" d="M1024.74,-143.82C1024.59,-123.56 1021.02,-90.32 1001.01,-72 960.54,-34.93 795.46,-23.55 720.44,-20.26"/>
<polygon fill="black" stroke="black" points="720.18,-16.75 710.05,-19.83 719.89,-23.74 720.18,-16.75"/>
</g>
<!-- ast.Name object at 0x7fc7d16a81f0&#45;&gt;ast.Load object at 0x7fc83b8f1fc0 -->
<g id="edge38" class="edge">
<title>ast.Name object at 0x7fc7d16a81f0&#45;&gt;ast.Load object at 0x7fc83b8f1fc0</title>
<path fill="none" stroke="black" d="M967.01,-143.8C982.03,-124.43 1000.57,-92.93 983.01,-72 949.88,-32.51 793.29,-22.43 720.44,-19.87"/>
<polygon fill="black" stroke="black" points="720.43,-16.37 710.33,-19.54 720.21,-23.36 720.43,-16.37"/>
</g>
<!-- ast.BinOp object at 0x7fc7d16a9180&#45;&gt;ast.Add object at 0x7fc83b8f2200 -->
<g id="edge42" class="edge">
<title>ast.BinOp object at 0x7fc7d16a9180&#45;&gt;ast.Add object at 0x7fc83b8f2200</title>
<path fill="none" stroke="black" d="M824.21,-148.41C845.42,-138.58 875.85,-124.45 910.5,-108.23"/>
<polygon fill="black" stroke="black" points="912.32,-111.24 919.89,-103.83 909.35,-104.9 912.32,-111.24"/>
</g>
<!-- ast.Name object at 0x7fc7d16a95d0 -->
<g id="node34" class="node">
<title>ast.Name object at 0x7fc7d16a95d0</title>
<path fill="#66cdaa" stroke="black" d="M890.01,-108C890.01,-108 860.01,-108 860.01,-108 854.01,-108 848.01,-102 848.01,-96 848.01,-96 848.01,-84 848.01,-84 848.01,-78 854.01,-72 860.01,-72 860.01,-72 890.01,-72 890.01,-72 896.01,-72 902.01,-78 902.01,-84 902.01,-84 902.01,-96 902.01,-96 902.01,-102 896.01,-108 890.01,-108"/>
<text text-anchor="middle" x="875.01" y="-86.3" font-family="Times,serif" font-size="14.00">Name</text>
</g>
<!-- ast.BinOp object at 0x7fc7d16a9180&#45;&gt;ast.Name object at 0x7fc7d16a95d0 -->
<g id="edge40" class="edge">
<title>ast.BinOp object at 0x7fc7d16a9180&#45;&gt;ast.Name object at 0x7fc7d16a95d0</title>
<path fill="none" stroke="black" d="M816.29,-143.7C825.92,-135.05 837.74,-124.45 848.24,-115.03"/>
<polygon fill="black" stroke="black" points="850.84,-117.39 855.95,-108.1 846.17,-112.18 850.84,-117.39"/>
</g>
<!-- ast.Constant object at 0x7fc7d16a8820 -->
<g id="node35" class="node">
<title>ast.Constant object at 0x7fc7d16a8820</title>
<path fill="#66cdaa" stroke="black" d="M817.51,-108C817.51,-108 776.51,-108 776.51,-108 770.51,-108 764.51,-102 764.51,-96 764.51,-96 764.51,-84 764.51,-84 764.51,-78 770.51,-72 776.51,-72 776.51,-72 817.51,-72 817.51,-72 823.51,-72 829.51,-78 829.51,-84 829.51,-84 829.51,-96 829.51,-96 829.51,-102 823.51,-108 817.51,-108"/>
<text text-anchor="middle" x="797.01" y="-86.3" font-family="Times,serif" font-size="14.00">Constant</text>
</g>
<!-- ast.BinOp object at 0x7fc7d16a9180&#45;&gt;ast.Constant object at 0x7fc7d16a8820 -->
<g id="edge43" class="edge">
<title>ast.BinOp object at 0x7fc7d16a9180&#45;&gt;ast.Constant object at 0x7fc7d16a8820</title>
<path fill="none" stroke="black" d="M797.01,-143.7C797.01,-135.98 797.01,-126.71 797.01,-118.11"/>
<polygon fill="black" stroke="black" points="800.51,-118.1 797.01,-108.1 793.51,-118.1 800.51,-118.1"/>
</g>
<!-- ast.Name object at 0x7fc7d16a95d0&#45;&gt;ast.Load object at 0x7fc83b8f1fc0 -->
<g id="edge41" class="edge">
<title>ast.Name object at 0x7fc7d16a95d0&#45;&gt;ast.Load object at 0x7fc83b8f1fc0</title>
<path fill="none" stroke="black" d="M847.66,-76.06C844.43,-74.64 841.16,-73.26 838.01,-72 798.21,-56.1 751.56,-40.56 719.91,-30.46"/>
<polygon fill="black" stroke="black" points="720.78,-27.06 710.19,-27.37 718.67,-33.73 720.78,-27.06"/>
</g>
<!-- ast.BoolOp object at 0x7fc7d1416560 -->
<g id="node37" class="node">
<title>ast.BoolOp object at 0x7fc7d1416560</title>
<path fill="#66cdaa" stroke="black" d="M794.51,-396C794.51,-396 759.51,-396 759.51,-396 753.51,-396 747.51,-390 747.51,-384 747.51,-384 747.51,-372 747.51,-372 747.51,-366 753.51,-360 759.51,-360 759.51,-360 794.51,-360 794.51,-360 800.51,-360 806.51,-366 806.51,-372 806.51,-372 806.51,-384 806.51,-384 806.51,-390 800.51,-396 794.51,-396"/>
<text text-anchor="middle" x="777.01" y="-374.3" font-family="Times,serif" font-size="14.00">BoolOp</text>
</g>
<!-- ast.If object at 0x7fc7d1667160&#45;&gt;ast.BoolOp object at 0x7fc7d1416560 -->
<g id="edge45" class="edge">
<title>ast.If object at 0x7fc7d1667160&#45;&gt;ast.BoolOp object at 0x7fc7d1416560</title>
<path fill="none" stroke="black" d="M770.99,-431.7C771.87,-423.98 772.93,-414.71 773.91,-406.11"/>
<polygon fill="black" stroke="black" points="777.4,-406.44 775.05,-396.1 770.44,-405.64 777.4,-406.44"/>
</g>
<!-- ast.AugAssign object at 0x7fc7d18c4760 -->
<g id="node58" class="node">
<title>ast.AugAssign object at 0x7fc7d18c4760</title>
<path fill="#66cdaa" stroke="black" d="M715.51,-396C715.51,-396 662.51,-396 662.51,-396 656.51,-396 650.51,-390 650.51,-384 650.51,-384 650.51,-372 650.51,-372 650.51,-366 656.51,-360 662.51,-360 662.51,-360 715.51,-360 715.51,-360 721.51,-360 727.51,-366 727.51,-372 727.51,-372 727.51,-384 727.51,-384 727.51,-390 721.51,-396 715.51,-396"/>
<text text-anchor="middle" x="689.01" y="-374.3" font-family="Times,serif" font-size="14.00">AugAssign</text>
</g>
<!-- ast.If object at 0x7fc7d1667160&#45;&gt;ast.AugAssign object at 0x7fc7d18c4760 -->
<g id="edge75" class="edge">
<title>ast.If object at 0x7fc7d1667160&#45;&gt;ast.AugAssign object at 0x7fc7d18c4760</title>
<path fill="none" stroke="black" d="M749.23,-431.7C739.25,-422.97 727,-412.24 716.15,-402.75"/>
<polygon fill="black" stroke="black" points="718.39,-400.06 708.56,-396.1 713.78,-405.32 718.39,-400.06"/>
</g>
<!-- ast.Or object at 0x7fc83b8f2170 -->
<g id="node38" class="node">
<title>ast.Or object at 0x7fc83b8f2170</title>
<path fill="#66cdaa" stroke="black" d="M807.01,-324C807.01,-324 777.01,-324 777.01,-324 771.01,-324 765.01,-318 765.01,-312 765.01,-312 765.01,-300 765.01,-300 765.01,-294 771.01,-288 777.01,-288 777.01,-288 807.01,-288 807.01,-288 813.01,-288 819.01,-294 819.01,-300 819.01,-300 819.01,-312 819.01,-312 819.01,-318 813.01,-324 807.01,-324"/>
<text text-anchor="middle" x="792.01" y="-302.3" font-family="Times,serif" font-size="14.00">Or</text>
</g>
<!-- ast.BoolOp object at 0x7fc7d1416560&#45;&gt;ast.Or object at 0x7fc83b8f2170 -->
<g id="edge46" class="edge">
<title>ast.BoolOp object at 0x7fc7d1416560&#45;&gt;ast.Or object at 0x7fc83b8f2170</title>
<path fill="none" stroke="black" d="M780.72,-359.7C782.37,-351.98 784.36,-342.71 786.2,-334.11"/>
<polygon fill="black" stroke="black" points="789.67,-334.62 788.34,-324.1 782.83,-333.15 789.67,-334.62"/>
</g>
<!-- ast.Compare object at 0x7fc7d14161a0 -->
<g id="node39" class="node">
<title>ast.Compare object at 0x7fc7d14161a0</title>
<path fill="#66cdaa" stroke="black" d="M892.51,-324C892.51,-324 849.51,-324 849.51,-324 843.51,-324 837.51,-318 837.51,-312 837.51,-312 837.51,-300 837.51,-300 837.51,-294 843.51,-288 849.51,-288 849.51,-288 892.51,-288 892.51,-288 898.51,-288 904.51,-294 904.51,-300 904.51,-300 904.51,-312 904.51,-312 904.51,-318 898.51,-324 892.51,-324"/>
<text text-anchor="middle" x="871.01" y="-302.3" font-family="Times,serif" font-size="14.00">Compare</text>
</g>
<!-- ast.BoolOp object at 0x7fc7d1416560&#45;&gt;ast.Compare object at 0x7fc7d14161a0 -->
<g id="edge47" class="edge">
<title>ast.BoolOp object at 0x7fc7d1416560&#45;&gt;ast.Compare object at 0x7fc7d14161a0</title>
<path fill="none" stroke="black" d="M800.24,-359.7C812.2,-350.8 826.93,-339.82 839.86,-330.2"/>
<polygon fill="black" stroke="black" points="842.11,-332.88 848.04,-324.1 837.93,-327.27 842.11,-332.88"/>
</g>
<!-- ast.Compare object at 0x7fc7d145b970 -->
<g id="node50" class="node">
<title>ast.Compare object at 0x7fc7d145b970</title>
<path fill="#66cdaa" stroke="black" d="M680.51,-324C680.51,-324 637.51,-324 637.51,-324 631.51,-324 625.51,-318 625.51,-312 625.51,-312 625.51,-300 625.51,-300 625.51,-294 631.51,-288 637.51,-288 637.51,-288 680.51,-288 680.51,-288 686.51,-288 692.51,-294 692.51,-300 692.51,-300 692.51,-312 692.51,-312 692.51,-318 686.51,-324 680.51,-324"/>
<text text-anchor="middle" x="659.01" y="-302.3" font-family="Times,serif" font-size="14.00">Compare</text>
</g>
<!-- ast.BoolOp object at 0x7fc7d1416560&#45;&gt;ast.Compare object at 0x7fc7d145b970 -->
<g id="edge61" class="edge">
<title>ast.BoolOp object at 0x7fc7d1416560&#45;&gt;ast.Compare object at 0x7fc7d145b970</title>
<path fill="none" stroke="black" d="M748.14,-359.88C732.71,-350.72 713.53,-339.34 696.91,-329.48"/>
<polygon fill="black" stroke="black" points="698.37,-326.28 687.99,-324.19 694.8,-332.3 698.37,-326.28"/>
</g>
<!-- ast.BinOp object at 0x7fc7d14f9060 -->
<g id="node40" class="node">
<title>ast.BinOp object at 0x7fc7d14f9060</title>
<path fill="#66cdaa" stroke="black" d="M774.01,-252C774.01,-252 744.01,-252 744.01,-252 738.01,-252 732.01,-246 732.01,-240 732.01,-240 732.01,-228 732.01,-228 732.01,-222 738.01,-216 744.01,-216 744.01,-216 774.01,-216 774.01,-216 780.01,-216 786.01,-222 786.01,-228 786.01,-228 786.01,-240 786.01,-240 786.01,-246 780.01,-252 774.01,-252"/>
<text text-anchor="middle" x="759.01" y="-230.3" font-family="Times,serif" font-size="14.00">BinOp</text>
</g>
<!-- ast.Compare object at 0x7fc7d14161a0&#45;&gt;ast.BinOp object at 0x7fc7d14f9060 -->
<g id="edge48" class="edge">
<title>ast.Compare object at 0x7fc7d14161a0&#45;&gt;ast.BinOp object at 0x7fc7d14f9060</title>
<path fill="none" stroke="black" d="M843.61,-287.88C828.86,-278.66 810.48,-267.17 794.63,-257.26"/>
<polygon fill="black" stroke="black" points="796.46,-254.28 786.12,-251.95 792.75,-260.22 796.46,-254.28"/>
</g>
<!-- ast.Eq object at 0x7fc83b8f28f0 -->
<g id="node48" class="node">
<title>ast.Eq object at 0x7fc83b8f28f0</title>
<path fill="#66cdaa" stroke="black" d="M702.01,-252C702.01,-252 672.01,-252 672.01,-252 666.01,-252 660.01,-246 660.01,-240 660.01,-240 660.01,-228 660.01,-228 660.01,-222 666.01,-216 672.01,-216 672.01,-216 702.01,-216 702.01,-216 708.01,-216 714.01,-222 714.01,-228 714.01,-228 714.01,-240 714.01,-240 714.01,-246 708.01,-252 702.01,-252"/>
<text text-anchor="middle" x="687.01" y="-230.3" font-family="Times,serif" font-size="14.00">Eq</text>
</g>
<!-- ast.Compare object at 0x7fc7d14161a0&#45;&gt;ast.Eq object at 0x7fc83b8f28f0 -->
<g id="edge59" class="edge">
<title>ast.Compare object at 0x7fc7d14161a0&#45;&gt;ast.Eq object at 0x7fc83b8f28f0</title>
<path fill="none" stroke="black" d="M837.26,-291.49C834.14,-290.29 831.02,-289.11 828.01,-288 784.53,-271.96 770.41,-270.67 723.82,-252.12"/>
<polygon fill="black" stroke="black" points="724.97,-248.81 714.39,-248.31 722.35,-255.3 724.97,-248.81"/>
</g>
<!-- ast.Constant object at 0x7fc7d1459390 -->
<g id="node49" class="node">
<title>ast.Constant object at 0x7fc7d1459390</title>
<path fill="#66cdaa" stroke="black" d="M895.51,-252C895.51,-252 854.51,-252 854.51,-252 848.51,-252 842.51,-246 842.51,-240 842.51,-240 842.51,-228 842.51,-228 842.51,-222 848.51,-216 854.51,-216 854.51,-216 895.51,-216 895.51,-216 901.51,-216 907.51,-222 907.51,-228 907.51,-228 907.51,-240 907.51,-240 907.51,-246 901.51,-252 895.51,-252"/>
<text text-anchor="middle" x="875.01" y="-230.3" font-family="Times,serif" font-size="14.00">Constant</text>
</g>
<!-- ast.Compare object at 0x7fc7d14161a0&#45;&gt;ast.Constant object at 0x7fc7d1459390 -->
<g id="edge60" class="edge">
<title>ast.Compare object at 0x7fc7d14161a0&#45;&gt;ast.Constant object at 0x7fc7d1459390</title>
<path fill="none" stroke="black" d="M872,-287.7C872.44,-279.98 872.97,-270.71 873.46,-262.11"/>
<polygon fill="black" stroke="black" points="876.95,-262.29 874.03,-252.1 869.97,-261.89 876.95,-262.29"/>
</g>
<!-- ast.Subscript object at 0x7fc7da378760 -->
<g id="node41" class="node">
<title>ast.Subscript object at 0x7fc7da378760</title>
<path fill="#66cdaa" stroke="black" d="M728.01,-180C728.01,-180 684.01,-180 684.01,-180 678.01,-180 672.01,-174 672.01,-168 672.01,-168 672.01,-156 672.01,-156 672.01,-150 678.01,-144 684.01,-144 684.01,-144 728.01,-144 728.01,-144 734.01,-144 740.01,-150 740.01,-156 740.01,-156 740.01,-168 740.01,-168 740.01,-174 734.01,-180 728.01,-180"/>
<text text-anchor="middle" x="706.01" y="-158.3" font-family="Times,serif" font-size="14.00">Subscript</text>
</g>
<!-- ast.BinOp object at 0x7fc7d14f9060&#45;&gt;ast.Subscript object at 0x7fc7da378760 -->
<g id="edge49" class="edge">
<title>ast.BinOp object at 0x7fc7d14f9060&#45;&gt;ast.Subscript object at 0x7fc7da378760</title>
<path fill="none" stroke="black" d="M745.91,-215.7C739.62,-207.39 731.96,-197.28 725.04,-188.14"/>
<polygon fill="black" stroke="black" points="727.79,-185.96 718.96,-180.1 722.2,-190.19 727.79,-185.96"/>
</g>
<!-- ast.Mod object at 0x7fc83b8f23e0 -->
<g id="node44" class="node">
<title>ast.Mod object at 0x7fc83b8f23e0</title>
<path fill="#66cdaa" stroke="black" d="M546.01,-180C546.01,-180 516.01,-180 516.01,-180 510.01,-180 504.01,-174 504.01,-168 504.01,-168 504.01,-156 504.01,-156 504.01,-150 510.01,-144 516.01,-144 516.01,-144 546.01,-144 546.01,-144 552.01,-144 558.01,-150 558.01,-156 558.01,-156 558.01,-168 558.01,-168 558.01,-174 552.01,-180 546.01,-180"/>
<text text-anchor="middle" x="531.01" y="-158.3" font-family="Times,serif" font-size="14.00">Mod</text>
</g>
<!-- ast.BinOp object at 0x7fc7d14f9060&#45;&gt;ast.Mod object at 0x7fc83b8f23e0 -->
<g id="edge55" class="edge">
<title>ast.BinOp object at 0x7fc7d14f9060&#45;&gt;ast.Mod object at 0x7fc83b8f23e0</title>
<path fill="none" stroke="black" d="M731.74,-219.39C728.83,-218.15 725.88,-217 723.01,-216 658.67,-193.68 636.17,-202.47 567.77,-179.86"/>
<polygon fill="black" stroke="black" points="568.87,-176.53 558.27,-176.61 566.61,-183.16 568.87,-176.53"/>
</g>
<!-- ast.UnaryOp object at 0x7fc7d145aef0 -->
<g id="node45" class="node">
<title>ast.UnaryOp object at 0x7fc7d145aef0</title>
<path fill="#66cdaa" stroke="black" d="M631.51,-180C631.51,-180 588.51,-180 588.51,-180 582.51,-180 576.51,-174 576.51,-168 576.51,-168 576.51,-156 576.51,-156 576.51,-150 582.51,-144 588.51,-144 588.51,-144 631.51,-144 631.51,-144 637.51,-144 643.51,-150 643.51,-156 643.51,-156 643.51,-168 643.51,-168 643.51,-174 637.51,-180 631.51,-180"/>
<text text-anchor="middle" x="610.01" y="-158.3" font-family="Times,serif" font-size="14.00">UnaryOp</text>
</g>
<!-- ast.BinOp object at 0x7fc7d14f9060&#45;&gt;ast.UnaryOp object at 0x7fc7d145aef0 -->
<g id="edge56" class="edge">
<title>ast.BinOp object at 0x7fc7d14f9060&#45;&gt;ast.UnaryOp object at 0x7fc7d145aef0</title>
<path fill="none" stroke="black" d="M731.89,-220.18C728.89,-218.77 725.89,-217.35 723.01,-216 699.89,-205.12 674.08,-193.01 652.98,-183.12"/>
<polygon fill="black" stroke="black" points="654.18,-179.82 643.64,-178.75 651.21,-186.16 654.18,-179.82"/>
</g>
<!-- ast.Subscript object at 0x7fc7da378760&#45;&gt;ast.Load object at 0x7fc83b8f1fc0 -->
<g id="edge54" class="edge">
<title>ast.Subscript object at 0x7fc7da378760&#45;&gt;ast.Load object at 0x7fc83b8f1fc0</title>
<path fill="none" stroke="black" d="M672,-151.75C650.4,-143.92 624.11,-130.31 611.01,-108 602.91,-94.2 603.79,-86.28 611.01,-72 618.71,-56.77 633.07,-44.85 646.95,-36.2"/>
<polygon fill="black" stroke="black" points="649.04,-39.04 655.93,-30.99 645.53,-32.98 649.04,-39.04"/>
</g>
<!-- ast.Name object at 0x7fc7d145b730 -->
<g id="node42" class="node">
<title>ast.Name object at 0x7fc7d145b730</title>
<path fill="#66cdaa" stroke="black" d="M662.01,-108C662.01,-108 632.01,-108 632.01,-108 626.01,-108 620.01,-102 620.01,-96 620.01,-96 620.01,-84 620.01,-84 620.01,-78 626.01,-72 632.01,-72 632.01,-72 662.01,-72 662.01,-72 668.01,-72 674.01,-78 674.01,-84 674.01,-84 674.01,-96 674.01,-96 674.01,-102 668.01,-108 662.01,-108"/>
<text text-anchor="middle" x="647.01" y="-86.3" font-family="Times,serif" font-size="14.00">Name</text>
</g>
<!-- ast.Subscript object at 0x7fc7da378760&#45;&gt;ast.Name object at 0x7fc7d145b730 -->
<g id="edge50" class="edge">
<title>ast.Subscript object at 0x7fc7da378760&#45;&gt;ast.Name object at 0x7fc7d145b730</title>
<path fill="none" stroke="black" d="M691.42,-143.7C684.35,-135.3 675.72,-125.07 667.96,-115.86"/>
<polygon fill="black" stroke="black" points="670.55,-113.49 661.42,-108.1 665.19,-118.01 670.55,-113.49"/>
</g>
<!-- ast.Name object at 0x7fc7d145b4c0 -->
<g id="node43" class="node">
<title>ast.Name object at 0x7fc7d145b4c0</title>
<path fill="#66cdaa" stroke="black" d="M734.01,-108C734.01,-108 704.01,-108 704.01,-108 698.01,-108 692.01,-102 692.01,-96 692.01,-96 692.01,-84 692.01,-84 692.01,-78 698.01,-72 704.01,-72 704.01,-72 734.01,-72 734.01,-72 740.01,-72 746.01,-78 746.01,-84 746.01,-84 746.01,-96 746.01,-96 746.01,-102 740.01,-108 734.01,-108"/>
<text text-anchor="middle" x="719.01" y="-86.3" font-family="Times,serif" font-size="14.00">Name</text>
</g>
<!-- ast.Subscript object at 0x7fc7da378760&#45;&gt;ast.Name object at 0x7fc7d145b4c0 -->
<g id="edge52" class="edge">
<title>ast.Subscript object at 0x7fc7da378760&#45;&gt;ast.Name object at 0x7fc7d145b4c0</title>
<path fill="none" stroke="black" d="M709.22,-143.7C710.65,-135.98 712.38,-126.71 713.97,-118.11"/>
<polygon fill="black" stroke="black" points="717.45,-118.58 715.83,-108.1 710.56,-117.3 717.45,-118.58"/>
</g>
<!-- ast.Name object at 0x7fc7d145b730&#45;&gt;ast.Load object at 0x7fc83b8f1fc0 -->
<g id="edge51" class="edge">
<title>ast.Name object at 0x7fc7d145b730&#45;&gt;ast.Load object at 0x7fc83b8f1fc0</title>
<path fill="none" stroke="black" d="M655.91,-71.7C660.01,-63.73 664.96,-54.1 669.5,-45.26"/>
<polygon fill="black" stroke="black" points="672.75,-46.6 674.21,-36.1 666.53,-43.4 672.75,-46.6"/>
</g>
<!-- ast.Name object at 0x7fc7d145b4c0&#45;&gt;ast.Load object at 0x7fc83b8f1fc0 -->
<g id="edge53" class="edge">
<title>ast.Name object at 0x7fc7d145b4c0&#45;&gt;ast.Load object at 0x7fc83b8f1fc0</title>
<path fill="none" stroke="black" d="M710.11,-71.7C706.01,-63.73 701.06,-54.1 696.52,-45.26"/>
<polygon fill="black" stroke="black" points="699.49,-43.4 691.8,-36.1 693.27,-46.6 699.49,-43.4"/>
</g>
<!-- ast.USub object at 0x7fc83b8f2860 -->
<g id="node46" class="node">
<title>ast.USub object at 0x7fc83b8f2860</title>
<path fill="#66cdaa" stroke="black" d="M468.01,-108C468.01,-108 438.01,-108 438.01,-108 432.01,-108 426.01,-102 426.01,-96 426.01,-96 426.01,-84 426.01,-84 426.01,-78 432.01,-72 438.01,-72 438.01,-72 468.01,-72 468.01,-72 474.01,-72 480.01,-78 480.01,-84 480.01,-84 480.01,-96 480.01,-96 480.01,-102 474.01,-108 468.01,-108"/>
<text text-anchor="middle" x="453.01" y="-86.3" font-family="Times,serif" font-size="14.00">USub</text>
</g>
<!-- ast.UnaryOp object at 0x7fc7d145aef0&#45;&gt;ast.USub object at 0x7fc83b8f2860 -->
<g id="edge57" class="edge">
<title>ast.UnaryOp object at 0x7fc7d145aef0&#45;&gt;ast.USub object at 0x7fc83b8f2860</title>
<path fill="none" stroke="black" d="M576.25,-146.52C553.92,-136.87 523.78,-123.72 489.41,-108.13"/>
<polygon fill="black" stroke="black" points="490.65,-104.85 480.1,-103.89 487.75,-111.22 490.65,-104.85"/>
</g>
<!-- ast.Constant object at 0x7fc7d145b340 -->
<g id="node47" class="node">
<title>ast.Constant object at 0x7fc7d145b340</title>
<path fill="#66cdaa" stroke="black" d="M551.51,-108C551.51,-108 510.51,-108 510.51,-108 504.51,-108 498.51,-102 498.51,-96 498.51,-96 498.51,-84 498.51,-84 498.51,-78 504.51,-72 510.51,-72 510.51,-72 551.51,-72 551.51,-72 557.51,-72 563.51,-78 563.51,-84 563.51,-84 563.51,-96 563.51,-96 563.51,-102 557.51,-108 551.51,-108"/>
<text text-anchor="middle" x="531.01" y="-86.3" font-family="Times,serif" font-size="14.00">Constant</text>
</g>
<!-- ast.UnaryOp object at 0x7fc7d145aef0&#45;&gt;ast.Constant object at 0x7fc7d145b340 -->
<g id="edge58" class="edge">
<title>ast.UnaryOp object at 0x7fc7d145aef0&#45;&gt;ast.Constant object at 0x7fc7d145b340</title>
<path fill="none" stroke="black" d="M590.48,-143.7C580.63,-134.97 568.52,-124.24 557.81,-114.75"/>
<polygon fill="black" stroke="black" points="560.12,-112.12 550.31,-108.1 555.48,-117.36 560.12,-112.12"/>
</g>
<!-- ast.Compare object at 0x7fc7d145b970&#45;&gt;ast.Eq object at 0x7fc83b8f28f0 -->
<g id="edge73" class="edge">
<title>ast.Compare object at 0x7fc7d145b970&#45;&gt;ast.Eq object at 0x7fc83b8f28f0</title>
<path fill="none" stroke="black" d="M665.93,-287.7C669.08,-279.81 672.89,-270.3 676.39,-261.55"/>
<polygon fill="black" stroke="black" points="679.7,-262.69 680.17,-252.1 673.2,-260.09 679.7,-262.69"/>
</g>
<!-- ast.BinOp object at 0x7fc7d145aa70 -->
<g id="node51" class="node">
<title>ast.BinOp object at 0x7fc7d145aa70</title>
<path fill="#66cdaa" stroke="black" d="M546.01,-252C546.01,-252 516.01,-252 516.01,-252 510.01,-252 504.01,-246 504.01,-240 504.01,-240 504.01,-228 504.01,-228 504.01,-222 510.01,-216 516.01,-216 516.01,-216 546.01,-216 546.01,-216 552.01,-216 558.01,-222 558.01,-228 558.01,-228 558.01,-240 558.01,-240 558.01,-246 552.01,-252 546.01,-252"/>
<text text-anchor="middle" x="531.01" y="-230.3" font-family="Times,serif" font-size="14.00">BinOp</text>
</g>
<!-- ast.Compare object at 0x7fc7d145b970&#45;&gt;ast.BinOp object at 0x7fc7d145aa70 -->
<g id="edge62" class="edge">
<title>ast.Compare object at 0x7fc7d145b970&#45;&gt;ast.BinOp object at 0x7fc7d145aa70</title>
<path fill="none" stroke="black" d="M627.7,-287.88C609.38,-277.86 586.18,-265.17 567.09,-254.73"/>
<polygon fill="black" stroke="black" points="568.55,-251.54 558.1,-249.81 565.19,-257.68 568.55,-251.54"/>
</g>
<!-- ast.Constant object at 0x7fc7d18c4700 -->
<g id="node57" class="node">
<title>ast.Constant object at 0x7fc7d18c4700</title>
<path fill="#66cdaa" stroke="black" d="M629.51,-252C629.51,-252 588.51,-252 588.51,-252 582.51,-252 576.51,-246 576.51,-240 576.51,-240 576.51,-228 576.51,-228 576.51,-222 582.51,-216 588.51,-216 588.51,-216 629.51,-216 629.51,-216 635.51,-216 641.51,-222 641.51,-228 641.51,-228 641.51,-240 641.51,-240 641.51,-246 635.51,-252 629.51,-252"/>
<text text-anchor="middle" x="609.01" y="-230.3" font-family="Times,serif" font-size="14.00">Constant</text>
</g>
<!-- ast.Compare object at 0x7fc7d145b970&#45;&gt;ast.Constant object at 0x7fc7d18c4700 -->
<g id="edge74" class="edge">
<title>ast.Compare object at 0x7fc7d145b970&#45;&gt;ast.Constant object at 0x7fc7d18c4700</title>
<path fill="none" stroke="black" d="M646.65,-287.7C640.78,-279.47 633.64,-269.48 627.17,-260.42"/>
<polygon fill="black" stroke="black" points="629.89,-258.21 621.23,-252.1 624.19,-262.28 629.89,-258.21"/>
</g>
<!-- ast.BinOp object at 0x7fc7d145aa70&#45;&gt;ast.Mod object at 0x7fc83b8f23e0 -->
<g id="edge69" class="edge">
<title>ast.BinOp object at 0x7fc7d145aa70&#45;&gt;ast.Mod object at 0x7fc83b8f23e0</title>
<path fill="none" stroke="black" d="M531.01,-215.7C531.01,-207.98 531.01,-198.71 531.01,-190.11"/>
<polygon fill="black" stroke="black" points="534.51,-190.1 531.01,-180.1 527.51,-190.1 534.51,-190.1"/>
</g>
<!-- ast.Subscript object at 0x7fc7d145ace0 -->
<g id="node52" class="node">
<title>ast.Subscript object at 0x7fc7d145ace0</title>
<path fill="#66cdaa" stroke="black" d="M283.01,-180C283.01,-180 239.01,-180 239.01,-180 233.01,-180 227.01,-174 227.01,-168 227.01,-168 227.01,-156 227.01,-156 227.01,-150 233.01,-144 239.01,-144 239.01,-144 283.01,-144 283.01,-144 289.01,-144 295.01,-150 295.01,-156 295.01,-156 295.01,-168 295.01,-168 295.01,-174 289.01,-180 283.01,-180"/>
<text text-anchor="middle" x="261.01" y="-158.3" font-family="Times,serif" font-size="14.00">Subscript</text>
</g>
<!-- ast.BinOp object at 0x7fc7d145aa70&#45;&gt;ast.Subscript object at 0x7fc7d145ace0 -->
<g id="edge63" class="edge">
<title>ast.BinOp object at 0x7fc7d145aa70&#45;&gt;ast.Subscript object at 0x7fc7d145ace0</title>
<path fill="none" stroke="black" d="M503.9,-221.02C499.31,-219.21 494.56,-217.46 490.01,-216 426.97,-195.79 351.86,-179.91 305.3,-170.99"/>
<polygon fill="black" stroke="black" points="305.72,-167.51 295.24,-169.08 304.42,-174.38 305.72,-167.51"/>
</g>
<!-- ast.UnaryOp object at 0x7fc7d18c6830 -->
<g id="node55" class="node">
<title>ast.UnaryOp object at 0x7fc7d18c6830</title>
<path fill="#66cdaa" stroke="black" d="M473.51,-180C473.51,-180 430.51,-180 430.51,-180 424.51,-180 418.51,-174 418.51,-168 418.51,-168 418.51,-156 418.51,-156 418.51,-150 424.51,-144 430.51,-144 430.51,-144 473.51,-144 473.51,-144 479.51,-144 485.51,-150 485.51,-156 485.51,-156 485.51,-168 485.51,-168 485.51,-174 479.51,-180 473.51,-180"/>
<text text-anchor="middle" x="452.01" y="-158.3" font-family="Times,serif" font-size="14.00">UnaryOp</text>
</g>
<!-- ast.BinOp object at 0x7fc7d145aa70&#45;&gt;ast.UnaryOp object at 0x7fc7d18c6830 -->
<g id="edge70" class="edge">
<title>ast.BinOp object at 0x7fc7d145aa70&#45;&gt;ast.UnaryOp object at 0x7fc7d18c6830</title>
<path fill="none" stroke="black" d="M511.48,-215.7C501.63,-206.97 489.52,-196.24 478.81,-186.75"/>
<polygon fill="black" stroke="black" points="481.12,-184.12 471.31,-180.1 476.48,-189.36 481.12,-184.12"/>
</g>
<!-- ast.Subscript object at 0x7fc7d145ace0&#45;&gt;ast.Load object at 0x7fc83b8f1fc0 -->
<g id="edge68" class="edge">
<title>ast.Subscript object at 0x7fc7d145ace0&#45;&gt;ast.Load object at 0x7fc83b8f1fc0</title>
<path fill="none" stroke="black" d="M226.87,-144.97C212.41,-136.24 197.06,-123.93 189.01,-108 181.79,-93.72 178.32,-83.9 189.01,-72 219.45,-38.12 535.94,-24.07 645.74,-20.19"/>
<polygon fill="black" stroke="black" points="646.13,-23.68 656,-19.83 645.89,-16.68 646.13,-23.68"/>
</g>
<!-- ast.Name object at 0x7fc7d145ae90 -->
<g id="node53" class="node">
<title>ast.Name object at 0x7fc7d145ae90</title>
<path fill="#66cdaa" stroke="black" d="M240.01,-108C240.01,-108 210.01,-108 210.01,-108 204.01,-108 198.01,-102 198.01,-96 198.01,-96 198.01,-84 198.01,-84 198.01,-78 204.01,-72 210.01,-72 210.01,-72 240.01,-72 240.01,-72 246.01,-72 252.01,-78 252.01,-84 252.01,-84 252.01,-96 252.01,-96 252.01,-102 246.01,-108 240.01,-108"/>
<text text-anchor="middle" x="225.01" y="-86.3" font-family="Times,serif" font-size="14.00">Name</text>
</g>
<!-- ast.Subscript object at 0x7fc7d145ace0&#45;&gt;ast.Name object at 0x7fc7d145ae90 -->
<g id="edge64" class="edge">
<title>ast.Subscript object at 0x7fc7d145ace0&#45;&gt;ast.Name object at 0x7fc7d145ae90</title>
<path fill="none" stroke="black" d="M252.11,-143.7C248.01,-135.73 243.06,-126.1 238.52,-117.26"/>
<polygon fill="black" stroke="black" points="241.49,-115.4 233.8,-108.1 235.27,-118.6 241.49,-115.4"/>
</g>
<!-- ast.Name object at 0x7fc7d145b5e0 -->
<g id="node54" class="node">
<title>ast.Name object at 0x7fc7d145b5e0</title>
<path fill="#66cdaa" stroke="black" d="M312.01,-108C312.01,-108 282.01,-108 282.01,-108 276.01,-108 270.01,-102 270.01,-96 270.01,-96 270.01,-84 270.01,-84 270.01,-78 276.01,-72 282.01,-72 282.01,-72 312.01,-72 312.01,-72 318.01,-72 324.01,-78 324.01,-84 324.01,-84 324.01,-96 324.01,-96 324.01,-102 318.01,-108 312.01,-108"/>
<text text-anchor="middle" x="297.01" y="-86.3" font-family="Times,serif" font-size="14.00">Name</text>
</g>
<!-- ast.Subscript object at 0x7fc7d145ace0&#45;&gt;ast.Name object at 0x7fc7d145b5e0 -->
<g id="edge66" class="edge">
<title>ast.Subscript object at 0x7fc7d145ace0&#45;&gt;ast.Name object at 0x7fc7d145b5e0</title>
<path fill="none" stroke="black" d="M269.91,-143.7C274.01,-135.73 278.96,-126.1 283.5,-117.26"/>
<polygon fill="black" stroke="black" points="286.75,-118.6 288.21,-108.1 280.53,-115.4 286.75,-118.6"/>
</g>
<!-- ast.Name object at 0x7fc7d145ae90&#45;&gt;ast.Load object at 0x7fc83b8f1fc0 -->
<g id="edge65" class="edge">
<title>ast.Name object at 0x7fc7d145ae90&#45;&gt;ast.Load object at 0x7fc83b8f1fc0</title>
<path fill="none" stroke="black" d="M252.18,-75.08C255.11,-73.91 258.09,-72.85 261.01,-72 398.87,-31.9 570.75,-22.14 645.45,-19.76"/>
<polygon fill="black" stroke="black" points="645.86,-23.25 655.75,-19.46 645.65,-16.26 645.86,-23.25"/>
</g>
<!-- ast.Name object at 0x7fc7d145b5e0&#45;&gt;ast.Load object at 0x7fc83b8f1fc0 -->
<g id="edge67" class="edge">
<title>ast.Name object at 0x7fc7d145b5e0&#45;&gt;ast.Load object at 0x7fc83b8f1fc0</title>
<path fill="none" stroke="black" d="M324.2,-75.16C327.13,-73.97 330.1,-72.89 333.01,-72 443.55,-38.32 580.53,-25.52 645.47,-21.1"/>
<polygon fill="black" stroke="black" points="645.88,-24.58 655.63,-20.44 645.42,-17.6 645.88,-24.58"/>
</g>
<!-- ast.UnaryOp object at 0x7fc7d18c6830&#45;&gt;ast.USub object at 0x7fc83b8f2860 -->
<g id="edge71" class="edge">
<title>ast.UnaryOp object at 0x7fc7d18c6830&#45;&gt;ast.USub object at 0x7fc83b8f2860</title>
<path fill="none" stroke="black" d="M452.26,-143.7C452.37,-135.98 452.5,-126.71 452.62,-118.11"/>
<polygon fill="black" stroke="black" points="456.12,-118.15 452.76,-108.1 449.12,-118.05 456.12,-118.15"/>
</g>
<!-- ast.Constant object at 0x7fc7d18c7640 -->
<g id="node56" class="node">
<title>ast.Constant object at 0x7fc7d18c7640</title>
<path fill="#66cdaa" stroke="black" d="M395.51,-108C395.51,-108 354.51,-108 354.51,-108 348.51,-108 342.51,-102 342.51,-96 342.51,-96 342.51,-84 342.51,-84 342.51,-78 348.51,-72 354.51,-72 354.51,-72 395.51,-72 395.51,-72 401.51,-72 407.51,-78 407.51,-84 407.51,-84 407.51,-96 407.51,-96 407.51,-102 401.51,-108 395.51,-108"/>
<text text-anchor="middle" x="375.01" y="-86.3" font-family="Times,serif" font-size="14.00">Constant</text>
</g>
<!-- ast.UnaryOp object at 0x7fc7d18c6830&#45;&gt;ast.Constant object at 0x7fc7d18c7640 -->
<g id="edge72" class="edge">
<title>ast.UnaryOp object at 0x7fc7d18c6830&#45;&gt;ast.Constant object at 0x7fc7d18c7640</title>
<path fill="none" stroke="black" d="M432.97,-143.7C423.46,-135.05 411.8,-124.45 401.44,-115.03"/>
<polygon fill="black" stroke="black" points="403.58,-112.24 393.82,-108.1 398.87,-117.42 403.58,-112.24"/>
</g>
<!-- ast.AugAssign object at 0x7fc7d18c4760&#45;&gt;ast.Add object at 0x7fc83b8f2200 -->
<g id="edge78" class="edge">
<title>ast.AugAssign object at 0x7fc7d18c4760&#45;&gt;ast.Add object at 0x7fc83b8f2200</title>
<path fill="none" stroke="black" d="M700.5,-359.89C713.22,-341.43 734.73,-311.52 756.01,-288 771.83,-270.51 778.24,-268.59 795.01,-252 842.38,-205.16 895.28,-147.95 924.51,-115.88"/>
<polygon fill="black" stroke="black" points="927.27,-118.04 931.41,-108.29 922.09,-113.33 927.27,-118.04"/>
</g>
<!-- ast.Name object at 0x7fc7d18c5ae0 -->
<g id="node59" class="node">
<title>ast.Name object at 0x7fc7d18c5ae0</title>
<path fill="#66cdaa" stroke="black" d="M533.01,-324C533.01,-324 503.01,-324 503.01,-324 497.01,-324 491.01,-318 491.01,-312 491.01,-312 491.01,-300 491.01,-300 491.01,-294 497.01,-288 503.01,-288 503.01,-288 533.01,-288 533.01,-288 539.01,-288 545.01,-294 545.01,-300 545.01,-300 545.01,-312 545.01,-312 545.01,-318 539.01,-324 533.01,-324"/>
<text text-anchor="middle" x="518.01" y="-302.3" font-family="Times,serif" font-size="14.00">Name</text>
</g>
<!-- ast.AugAssign object at 0x7fc7d18c4760&#45;&gt;ast.Name object at 0x7fc7d18c5ae0 -->
<g id="edge76" class="edge">
<title>ast.AugAssign object at 0x7fc7d18c4760&#45;&gt;ast.Name object at 0x7fc7d18c5ae0</title>
<path fill="none" stroke="black" d="M650.3,-361.29C624.44,-350.78 589.67,-336.6 559.01,-324 557.63,-323.43 556.22,-322.85 554.8,-322.27"/>
<polygon fill="black" stroke="black" points="555.92,-318.95 545.35,-318.36 553.25,-325.41 555.92,-318.95"/>
</g>
<!-- ast.Subscript object at 0x7fc7d18c4af0 -->
<g id="node60" class="node">
<title>ast.Subscript object at 0x7fc7d18c4af0</title>
<path fill="#66cdaa" stroke="black" d="M101.01,-180C101.01,-180 57.01,-180 57.01,-180 51.01,-180 45.01,-174 45.01,-168 45.01,-168 45.01,-156 45.01,-156 45.01,-150 51.01,-144 57.01,-144 57.01,-144 101.01,-144 101.01,-144 107.01,-144 113.01,-150 113.01,-156 113.01,-156 113.01,-168 113.01,-168 113.01,-174 107.01,-180 101.01,-180"/>
<text text-anchor="middle" x="79.01" y="-158.3" font-family="Times,serif" font-size="14.00">Subscript</text>
</g>
<!-- ast.AugAssign object at 0x7fc7d18c4760&#45;&gt;ast.Subscript object at 0x7fc7d18c4af0 -->
<g id="edge79" class="edge">
<title>ast.AugAssign object at 0x7fc7d18c4760&#45;&gt;ast.Subscript object at 0x7fc7d18c4af0</title>
<path fill="none" stroke="black" d="M663.3,-359.67C636.27,-341.53 592.41,-312.36 554.01,-288 528.07,-271.54 519.4,-270.67 495.01,-252 476.53,-237.86 477.97,-226.09 457.01,-216 442.09,-208.81 219.85,-180.52 123.27,-168.47"/>
<polygon fill="black" stroke="black" points="123.58,-164.99 113.23,-167.22 122.72,-171.93 123.58,-164.99"/>
</g>
<!-- ast.Name object at 0x7fc7d18c5ae0&#45;&gt;ast.Store object at 0x7fc83b8f2020 -->
<g id="edge77" class="edge">
<title>ast.Name object at 0x7fc7d18c5ae0&#45;&gt;ast.Store object at 0x7fc83b8f2020</title>
<path fill="none" stroke="black" d="M494.03,-287.7C481.7,-278.8 466.49,-267.82 453.16,-258.2"/>
<polygon fill="black" stroke="black" points="454.87,-255.12 444.71,-252.1 450.77,-260.79 454.87,-255.12"/>
</g>
<!-- ast.Subscript object at 0x7fc7d18c4af0&#45;&gt;ast.Load object at 0x7fc83b8f1fc0 -->
<g id="edge84" class="edge">
<title>ast.Subscript object at 0x7fc7d18c4af0&#45;&gt;ast.Load object at 0x7fc83b8f1fc0</title>
<path fill="none" stroke="black" d="M44.87,-144.97C30.41,-136.24 15.06,-123.93 7.01,-108 -0.21,-93.72 -3.85,-83.75 7.01,-72 50.54,-24.93 509.52,-19.59 645.35,-19.04"/>
<polygon fill="black" stroke="black" points="645.67,-22.54 655.66,-19.01 645.64,-15.54 645.67,-22.54"/>
</g>
<!-- ast.Name object at 0x7fc7d18c7850 -->
<g id="node61" class="node">
<title>ast.Name object at 0x7fc7d18c7850</title>
<path fill="#66cdaa" stroke="black" d="M58.01,-108C58.01,-108 28.01,-108 28.01,-108 22.01,-108 16.01,-102 16.01,-96 16.01,-96 16.01,-84 16.01,-84 16.01,-78 22.01,-72 28.01,-72 28.01,-72 58.01,-72 58.01,-72 64.01,-72 70.01,-78 70.01,-84 70.01,-84 70.01,-96 70.01,-96 70.01,-102 64.01,-108 58.01,-108"/>
<text text-anchor="middle" x="43.01" y="-86.3" font-family="Times,serif" font-size="14.00">Name</text>
</g>
<!-- ast.Subscript object at 0x7fc7d18c4af0&#45;&gt;ast.Name object at 0x7fc7d18c7850 -->
<g id="edge80" class="edge">
<title>ast.Subscript object at 0x7fc7d18c4af0&#45;&gt;ast.Name object at 0x7fc7d18c7850</title>
<path fill="none" stroke="black" d="M70.11,-143.7C66.01,-135.73 61.06,-126.1 56.52,-117.26"/>
<polygon fill="black" stroke="black" points="59.49,-115.4 51.8,-108.1 53.27,-118.6 59.49,-115.4"/>
</g>
<!-- ast.Name object at 0x7fc7d18c55d0 -->
<g id="node62" class="node">
<title>ast.Name object at 0x7fc7d18c55d0</title>
<path fill="#66cdaa" stroke="black" d="M130.01,-108C130.01,-108 100.01,-108 100.01,-108 94.01,-108 88.01,-102 88.01,-96 88.01,-96 88.01,-84 88.01,-84 88.01,-78 94.01,-72 100.01,-72 100.01,-72 130.01,-72 130.01,-72 136.01,-72 142.01,-78 142.01,-84 142.01,-84 142.01,-96 142.01,-96 142.01,-102 136.01,-108 130.01,-108"/>
<text text-anchor="middle" x="115.01" y="-86.3" font-family="Times,serif" font-size="14.00">Name</text>
</g>
<!-- ast.Subscript object at 0x7fc7d18c4af0&#45;&gt;ast.Name object at 0x7fc7d18c55d0 -->
<g id="edge82" class="edge">
<title>ast.Subscript object at 0x7fc7d18c4af0&#45;&gt;ast.Name object at 0x7fc7d18c55d0</title>
<path fill="none" stroke="black" d="M87.91,-143.7C92.01,-135.73 96.96,-126.1 101.5,-117.26"/>
<polygon fill="black" stroke="black" points="104.75,-118.6 106.21,-108.1 98.53,-115.4 104.75,-118.6"/>
</g>
<!-- ast.Name object at 0x7fc7d18c7850&#45;&gt;ast.Load object at 0x7fc83b8f1fc0 -->
<g id="edge81" class="edge">
<title>ast.Name object at 0x7fc7d18c7850&#45;&gt;ast.Load object at 0x7fc83b8f1fc0</title>
<path fill="none" stroke="black" d="M70.14,-74.97C73.08,-73.82 76.07,-72.79 79.01,-72 186.9,-42.8 531.45,-25.57 645.76,-20.55"/>
<polygon fill="black" stroke="black" points="645.94,-24.04 655.78,-20.11 645.63,-17.05 645.94,-24.04"/>
</g>
<!-- ast.Name object at 0x7fc7d18c55d0&#45;&gt;ast.Load object at 0x7fc83b8f1fc0 -->
<g id="edge83" class="edge">
<title>ast.Name object at 0x7fc7d18c55d0&#45;&gt;ast.Load object at 0x7fc83b8f1fc0</title>
<path fill="none" stroke="black" d="M142.42,-76.35C146.89,-74.66 151.52,-73.13 156.01,-72 335.56,-26.79 558.68,-19.91 645.76,-19.03"/>
<polygon fill="black" stroke="black" points="645.96,-22.53 655.94,-18.95 645.91,-15.53 645.96,-22.53"/>
</g>
<!-- ast.Name object at 0x7fc7d18c5ab0 -->
<g id="node64" class="node">
<title>ast.Name object at 0x7fc7d18c5ab0</title>
<path fill="#66cdaa" stroke="black" d="M1324.01,-324C1324.01,-324 1294.01,-324 1294.01,-324 1288.01,-324 1282.01,-318 1282.01,-312 1282.01,-312 1282.01,-300 1282.01,-300 1282.01,-294 1288.01,-288 1294.01,-288 1294.01,-288 1324.01,-288 1324.01,-288 1330.01,-288 1336.01,-294 1336.01,-300 1336.01,-300 1336.01,-312 1336.01,-312 1336.01,-318 1330.01,-324 1324.01,-324"/>
<text text-anchor="middle" x="1309.01" y="-302.3" font-family="Times,serif" font-size="14.00">Name</text>
</g>
<!-- ast.Return object at 0x7fc7d18c5ea0&#45;&gt;ast.Name object at 0x7fc7d18c5ab0 -->
<g id="edge86" class="edge">
<title>ast.Return object at 0x7fc7d18c5ea0&#45;&gt;ast.Name object at 0x7fc7d18c5ab0</title>
<path fill="none" stroke="black" d="M1152.63,-503.85C1182.54,-466.21 1254.04,-376.2 1289.03,-332.15"/>
<polygon fill="black" stroke="black" points="1291.84,-334.24 1295.32,-324.23 1286.36,-329.89 1291.84,-334.24"/>
</g>
<!-- ast.Name object at 0x7fc7d18c5ab0&#45;&gt;ast.Load object at 0x7fc83b8f1fc0 -->
<g id="edge87" class="edge">
<title>ast.Name object at 0x7fc7d18c5ab0&#45;&gt;ast.Load object at 0x7fc83b8f1fc0</title>
<path fill="none" stroke="black" d="M1321.29,-288C1350.39,-245.52 1416.88,-133.72 1359.01,-72 1315.15,-25.23 856.4,-19.68 720.65,-19.06"/>
<polygon fill="black" stroke="black" points="720.36,-15.56 710.35,-19.02 720.33,-22.56 720.36,-15.56"/>
</g>
</g>
</svg>
