<?xml version="1.0" encoding="UTF-8" standalone="no"?>
<!DOCTYPE svg PUBLIC "-//W3C//DTD SVG 1.1//EN"
 "http://www.w3.org/Graphics/SVG/1.1/DTD/svg11.dtd">
<!-- Generated by graphviz version 2.43.0 (0)
 -->
<!-- Title: %3 Pages: 1 -->
<svg width="939pt" height="476pt"
 viewBox="0.00 0.00 938.53 476.00" xmlns="http://www.w3.org/2000/svg" xmlns:xlink="http://www.w3.org/1999/xlink">
<g id="graph0" class="graph" transform="scale(1 1) rotate(0) translate(4 472)">
<title>%3</title>
<polygon fill="white" stroke="transparent" points="-4,4 -4,-472 934.53,-472 934.53,4 -4,4"/>
<!-- ast.Module object at 0x7f2763a05390 -->
<g id="node1" class="node">
<title>ast.Module object at 0x7f2763a05390</title>
<path fill="#66cdaa" stroke="black" d="M571,-468C571,-468 536,-468 536,-468 530,-468 524,-462 524,-456 524,-456 524,-444 524,-444 524,-438 530,-432 536,-432 536,-432 571,-432 571,-432 577,-432 583,-438 583,-444 583,-444 583,-456 583,-456 583,-462 577,-468 571,-468"/>
<text text-anchor="middle" x="553.5" y="-446.3" font-family="Times,serif" font-size="14.00">Module</text>
</g>
<!-- ast.FunctionDef object at 0x7f2763a042b0 -->
<g id="node2" class="node">
<title>ast.FunctionDef object at 0x7f2763a042b0</title>
<path fill="#66cdaa" stroke="black" d="M584,-396C584,-396 523,-396 523,-396 517,-396 511,-390 511,-384 511,-384 511,-372 511,-372 511,-366 517,-360 523,-360 523,-360 584,-360 584,-360 590,-360 596,-366 596,-372 596,-372 596,-384 596,-384 596,-390 590,-396 584,-396"/>
<text text-anchor="middle" x="553.5" y="-374.3" font-family="Times,serif" font-size="14.00">FunctionDef</text>
</g>
<!-- ast.Module object at 0x7f2763a05390&#45;&gt;ast.FunctionDef object at 0x7f2763a042b0 -->
<g id="edge1" class="edge">
<title>ast.Module object at 0x7f2763a05390&#45;&gt;ast.FunctionDef object at 0x7f2763a042b0</title>
<path fill="none" stroke="black" d="M553.5,-431.7C553.5,-423.98 553.5,-414.71 553.5,-406.11"/>
<polygon fill="black" stroke="black" points="557,-406.1 553.5,-396.1 550,-406.1 557,-406.1"/>
</g>
<!-- ast.arguments object at 0x7f2763a053c0 -->
<g id="node3" class="node">
<title>ast.arguments object at 0x7f2763a053c0</title>
<path fill="#66cdaa" stroke="black" d="M159.5,-324C159.5,-324 109.5,-324 109.5,-324 103.5,-324 97.5,-318 97.5,-312 97.5,-312 97.5,-300 97.5,-300 97.5,-294 103.5,-288 109.5,-288 109.5,-288 159.5,-288 159.5,-288 165.5,-288 171.5,-294 171.5,-300 171.5,-300 171.5,-312 171.5,-312 171.5,-318 165.5,-324 159.5,-324"/>
<text text-anchor="middle" x="134.5" y="-302.3" font-family="Times,serif" font-size="14.00">arguments</text>
</g>
<!-- ast.FunctionDef object at 0x7f2763a042b0&#45;&gt;ast.arguments object at 0x7f2763a053c0 -->
<g id="edge2" class="edge">
<title>ast.FunctionDef object at 0x7f2763a042b0&#45;&gt;ast.arguments object at 0x7f2763a053c0</title>
<path fill="none" stroke="black" d="M510.83,-370.85C447.08,-361.52 323.24,-342.88 218.5,-324 206.49,-321.84 193.55,-319.31 181.51,-316.88"/>
<polygon fill="black" stroke="black" points="182.15,-313.44 171.65,-314.87 180.75,-320.3 182.15,-313.44"/>
</g>
<!-- ast.If object at 0x7f2763a04520 -->
<g id="node5" class="node">
<title>ast.If object at 0x7f2763a04520</title>
<path fill="#66cdaa" stroke="black" d="M269.5,-324C269.5,-324 239.5,-324 239.5,-324 233.5,-324 227.5,-318 227.5,-312 227.5,-312 227.5,-300 227.5,-300 227.5,-294 233.5,-288 239.5,-288 239.5,-288 269.5,-288 269.5,-288 275.5,-288 281.5,-294 281.5,-300 281.5,-300 281.5,-312 281.5,-312 281.5,-318 275.5,-324 269.5,-324"/>
<text text-anchor="middle" x="254.5" y="-302.3" font-family="Times,serif" font-size="14.00">If</text>
</g>
<!-- ast.FunctionDef object at 0x7f2763a042b0&#45;&gt;ast.If object at 0x7f2763a04520 -->
<g id="edge4" class="edge">
<title>ast.FunctionDef object at 0x7f2763a042b0&#45;&gt;ast.If object at 0x7f2763a04520</title>
<path fill="none" stroke="black" d="M510.98,-367.05C452.24,-353.29 347.23,-328.71 291.54,-315.67"/>
<polygon fill="black" stroke="black" points="292.27,-312.25 281.74,-313.38 290.68,-319.06 292.27,-312.25"/>
</g>
<!-- ast.Assign object at 0x7f278d7c1270 -->
<g id="node17" class="node">
<title>ast.Assign object at 0x7f278d7c1270</title>
<path fill="#66cdaa" stroke="black" d="M607.5,-324C607.5,-324 577.5,-324 577.5,-324 571.5,-324 565.5,-318 565.5,-312 565.5,-312 565.5,-300 565.5,-300 565.5,-294 571.5,-288 577.5,-288 577.5,-288 607.5,-288 607.5,-288 613.5,-288 619.5,-294 619.5,-300 619.5,-300 619.5,-312 619.5,-312 619.5,-318 613.5,-324 607.5,-324"/>
<text text-anchor="middle" x="592.5" y="-302.3" font-family="Times,serif" font-size="14.00">Assign</text>
</g>
<!-- ast.FunctionDef object at 0x7f2763a042b0&#45;&gt;ast.Assign object at 0x7f278d7c1270 -->
<g id="edge18" class="edge">
<title>ast.FunctionDef object at 0x7f2763a042b0&#45;&gt;ast.Assign object at 0x7f278d7c1270</title>
<path fill="none" stroke="black" d="M563.14,-359.7C567.63,-351.64 573.06,-341.89 578.02,-332.98"/>
<polygon fill="black" stroke="black" points="581.16,-334.54 582.97,-324.1 575.05,-331.14 581.16,-334.54"/>
</g>
<!-- ast.Assign object at 0x7f278d7c0a30 -->
<g id="node26" class="node">
<title>ast.Assign object at 0x7f278d7c0a30</title>
<path fill="#66cdaa" stroke="black" d="M751.5,-252C751.5,-252 721.5,-252 721.5,-252 715.5,-252 709.5,-246 709.5,-240 709.5,-240 709.5,-228 709.5,-228 709.5,-222 715.5,-216 721.5,-216 721.5,-216 751.5,-216 751.5,-216 757.5,-216 763.5,-222 763.5,-228 763.5,-228 763.5,-240 763.5,-240 763.5,-246 757.5,-252 751.5,-252"/>
<text text-anchor="middle" x="736.5" y="-230.3" font-family="Times,serif" font-size="14.00">Assign</text>
</g>
<!-- ast.FunctionDef object at 0x7f2763a042b0&#45;&gt;ast.Assign object at 0x7f278d7c0a30 -->
<g id="edge31" class="edge">
<title>ast.FunctionDef object at 0x7f2763a042b0&#45;&gt;ast.Assign object at 0x7f278d7c0a30</title>
<path fill="none" stroke="black" d="M578.84,-359.79C593.53,-349.64 612.28,-336.39 628.5,-324 656.41,-302.69 687.23,-277.07 708.78,-258.8"/>
<polygon fill="black" stroke="black" points="711.21,-261.33 716.56,-252.19 706.67,-256 711.21,-261.33"/>
</g>
<!-- ast.For object at 0x7f278d7c0610 -->
<g id="node30" class="node">
<title>ast.For object at 0x7f278d7c0610</title>
<path fill="#66cdaa" stroke="black" d="M490.5,-324C490.5,-324 460.5,-324 460.5,-324 454.5,-324 448.5,-318 448.5,-312 448.5,-312 448.5,-300 448.5,-300 448.5,-294 454.5,-288 460.5,-288 460.5,-288 490.5,-288 490.5,-288 496.5,-288 502.5,-294 502.5,-300 502.5,-300 502.5,-312 502.5,-312 502.5,-318 496.5,-324 490.5,-324"/>
<text text-anchor="middle" x="475.5" y="-302.3" font-family="Times,serif" font-size="14.00">For</text>
</g>
<!-- ast.FunctionDef object at 0x7f2763a042b0&#45;&gt;ast.For object at 0x7f278d7c0610 -->
<g id="edge37" class="edge">
<title>ast.FunctionDef object at 0x7f2763a042b0&#45;&gt;ast.For object at 0x7f278d7c0610</title>
<path fill="none" stroke="black" d="M534.22,-359.7C524.58,-351.05 512.77,-340.45 502.27,-331.03"/>
<polygon fill="black" stroke="black" points="504.34,-328.18 494.56,-324.1 499.66,-333.39 504.34,-328.18"/>
</g>
<!-- ast.Return object at 0x7f278d7c0730 -->
<g id="node37" class="node">
<title>ast.Return object at 0x7f278d7c0730</title>
<path fill="#66cdaa" stroke="black" d="M792.5,-324C792.5,-324 762.5,-324 762.5,-324 756.5,-324 750.5,-318 750.5,-312 750.5,-312 750.5,-300 750.5,-300 750.5,-294 756.5,-288 762.5,-288 762.5,-288 792.5,-288 792.5,-288 798.5,-288 804.5,-294 804.5,-300 804.5,-300 804.5,-312 804.5,-312 804.5,-318 798.5,-324 792.5,-324"/>
<text text-anchor="middle" x="777.5" y="-302.3" font-family="Times,serif" font-size="14.00">Return</text>
</g>
<!-- ast.FunctionDef object at 0x7f2763a042b0&#45;&gt;ast.Return object at 0x7f278d7c0730 -->
<g id="edge48" class="edge">
<title>ast.FunctionDef object at 0x7f2763a042b0&#45;&gt;ast.Return object at 0x7f278d7c0730</title>
<path fill="none" stroke="black" d="M596.16,-363.67C638.05,-350.58 701.28,-330.82 740.94,-318.43"/>
<polygon fill="black" stroke="black" points="741.98,-321.77 750.49,-315.44 739.9,-315.08 741.98,-321.77"/>
</g>
<!-- ast.arg object at 0x7f2763a05330 -->
<g id="node4" class="node">
<title>ast.arg object at 0x7f2763a05330</title>
<path fill="#66cdaa" stroke="black" d="M111.5,-252C111.5,-252 81.5,-252 81.5,-252 75.5,-252 69.5,-246 69.5,-240 69.5,-240 69.5,-228 69.5,-228 69.5,-222 75.5,-216 81.5,-216 81.5,-216 111.5,-216 111.5,-216 117.5,-216 123.5,-222 123.5,-228 123.5,-228 123.5,-240 123.5,-240 123.5,-246 117.5,-252 111.5,-252"/>
<text text-anchor="middle" x="96.5" y="-230.3" font-family="Times,serif" font-size="14.00">arg</text>
</g>
<!-- ast.arguments object at 0x7f2763a053c0&#45;&gt;ast.arg object at 0x7f2763a05330 -->
<g id="edge3" class="edge">
<title>ast.arguments object at 0x7f2763a053c0&#45;&gt;ast.arg object at 0x7f2763a05330</title>
<path fill="none" stroke="black" d="M125.11,-287.7C120.74,-279.64 115.44,-269.89 110.6,-260.98"/>
<polygon fill="black" stroke="black" points="113.63,-259.22 105.79,-252.1 107.48,-262.56 113.63,-259.22"/>
</g>
<!-- ast.Compare object at 0x7f2763a07880 -->
<g id="node6" class="node">
<title>ast.Compare object at 0x7f2763a07880</title>
<path fill="#66cdaa" stroke="black" d="M197,-252C197,-252 154,-252 154,-252 148,-252 142,-246 142,-240 142,-240 142,-228 142,-228 142,-222 148,-216 154,-216 154,-216 197,-216 197,-216 203,-216 209,-222 209,-228 209,-228 209,-240 209,-240 209,-246 203,-252 197,-252"/>
<text text-anchor="middle" x="175.5" y="-230.3" font-family="Times,serif" font-size="14.00">Compare</text>
</g>
<!-- ast.If object at 0x7f2763a04520&#45;&gt;ast.Compare object at 0x7f2763a07880 -->
<g id="edge5" class="edge">
<title>ast.If object at 0x7f2763a04520&#45;&gt;ast.Compare object at 0x7f2763a07880</title>
<path fill="none" stroke="black" d="M234.97,-287.7C225.12,-278.97 213.01,-268.24 202.3,-258.75"/>
<polygon fill="black" stroke="black" points="204.61,-256.12 194.8,-252.1 199.97,-261.36 204.61,-256.12"/>
</g>
<!-- ast.Raise object at 0x7f2763a053f0 -->
<g id="node13" class="node">
<title>ast.Raise object at 0x7f2763a053f0</title>
<path fill="#66cdaa" stroke="black" d="M269.5,-252C269.5,-252 239.5,-252 239.5,-252 233.5,-252 227.5,-246 227.5,-240 227.5,-240 227.5,-228 227.5,-228 227.5,-222 233.5,-216 239.5,-216 239.5,-216 269.5,-216 269.5,-216 275.5,-216 281.5,-222 281.5,-228 281.5,-228 281.5,-240 281.5,-240 281.5,-246 275.5,-252 269.5,-252"/>
<text text-anchor="middle" x="254.5" y="-230.3" font-family="Times,serif" font-size="14.00">Raise</text>
</g>
<!-- ast.If object at 0x7f2763a04520&#45;&gt;ast.Raise object at 0x7f2763a053f0 -->
<g id="edge13" class="edge">
<title>ast.If object at 0x7f2763a04520&#45;&gt;ast.Raise object at 0x7f2763a053f0</title>
<path fill="none" stroke="black" d="M254.5,-287.7C254.5,-279.98 254.5,-270.71 254.5,-262.11"/>
<polygon fill="black" stroke="black" points="258,-262.1 254.5,-252.1 251,-262.1 258,-262.1"/>
</g>
<!-- ast.Call object at 0x7f2763a04370 -->
<g id="node7" class="node">
<title>ast.Call object at 0x7f2763a04370</title>
<path fill="#66cdaa" stroke="black" d="M197.5,-180C197.5,-180 167.5,-180 167.5,-180 161.5,-180 155.5,-174 155.5,-168 155.5,-168 155.5,-156 155.5,-156 155.5,-150 161.5,-144 167.5,-144 167.5,-144 197.5,-144 197.5,-144 203.5,-144 209.5,-150 209.5,-156 209.5,-156 209.5,-168 209.5,-168 209.5,-174 203.5,-180 197.5,-180"/>
<text text-anchor="middle" x="182.5" y="-158.3" font-family="Times,serif" font-size="14.00">Call</text>
</g>
<!-- ast.Compare object at 0x7f2763a07880&#45;&gt;ast.Call object at 0x7f2763a04370 -->
<g id="edge6" class="edge">
<title>ast.Compare object at 0x7f2763a07880&#45;&gt;ast.Call object at 0x7f2763a04370</title>
<path fill="none" stroke="black" d="M177.23,-215.7C178,-207.98 178.93,-198.71 179.79,-190.11"/>
<polygon fill="black" stroke="black" points="183.28,-190.4 180.79,-180.1 176.31,-189.71 183.28,-190.4"/>
</g>
<!-- ast.NotEq object at 0x7f27e72f28f0 -->
<g id="node11" class="node">
<title>ast.NotEq object at 0x7f27e72f28f0</title>
<path fill="#66cdaa" stroke="black" d="M125.5,-180C125.5,-180 95.5,-180 95.5,-180 89.5,-180 83.5,-174 83.5,-168 83.5,-168 83.5,-156 83.5,-156 83.5,-150 89.5,-144 95.5,-144 95.5,-144 125.5,-144 125.5,-144 131.5,-144 137.5,-150 137.5,-156 137.5,-156 137.5,-168 137.5,-168 137.5,-174 131.5,-180 125.5,-180"/>
<text text-anchor="middle" x="110.5" y="-158.3" font-family="Times,serif" font-size="14.00">NotEq</text>
</g>
<!-- ast.Compare object at 0x7f2763a07880&#45;&gt;ast.NotEq object at 0x7f27e72f28f0 -->
<g id="edge11" class="edge">
<title>ast.Compare object at 0x7f2763a07880&#45;&gt;ast.NotEq object at 0x7f27e72f28f0</title>
<path fill="none" stroke="black" d="M159.43,-215.7C151.56,-207.22 141.94,-196.86 133.33,-187.58"/>
<polygon fill="black" stroke="black" points="135.75,-185.05 126.38,-180.1 130.62,-189.81 135.75,-185.05"/>
</g>
<!-- ast.Constant object at 0x7f2763a07ca0 -->
<g id="node12" class="node">
<title>ast.Constant object at 0x7f2763a07ca0</title>
<path fill="#66cdaa" stroke="black" d="M53,-180C53,-180 12,-180 12,-180 6,-180 0,-174 0,-168 0,-168 0,-156 0,-156 0,-150 6,-144 12,-144 12,-144 53,-144 53,-144 59,-144 65,-150 65,-156 65,-156 65,-168 65,-168 65,-174 59,-180 53,-180"/>
<text text-anchor="middle" x="32.5" y="-158.3" font-family="Times,serif" font-size="14.00">Constant</text>
</g>
<!-- ast.Compare object at 0x7f2763a07880&#45;&gt;ast.Constant object at 0x7f2763a07ca0 -->
<g id="edge12" class="edge">
<title>ast.Compare object at 0x7f2763a07880&#45;&gt;ast.Constant object at 0x7f2763a07ca0</title>
<path fill="none" stroke="black" d="M141.97,-216.59C121.84,-206.73 96.04,-194.11 74.55,-183.58"/>
<polygon fill="black" stroke="black" points="75.84,-180.32 65.32,-179.07 72.77,-186.61 75.84,-180.32"/>
</g>
<!-- ast.Name object at 0x7f2763a04280 -->
<g id="node8" class="node">
<title>ast.Name object at 0x7f2763a04280</title>
<path fill="#66cdaa" stroke="black" d="M197.5,-108C197.5,-108 167.5,-108 167.5,-108 161.5,-108 155.5,-102 155.5,-96 155.5,-96 155.5,-84 155.5,-84 155.5,-78 161.5,-72 167.5,-72 167.5,-72 197.5,-72 197.5,-72 203.5,-72 209.5,-78 209.5,-84 209.5,-84 209.5,-96 209.5,-96 209.5,-102 203.5,-108 197.5,-108"/>
<text text-anchor="middle" x="182.5" y="-86.3" font-family="Times,serif" font-size="14.00">Name</text>
</g>
<!-- ast.Call object at 0x7f2763a04370&#45;&gt;ast.Name object at 0x7f2763a04280 -->
<g id="edge7" class="edge">
<title>ast.Call object at 0x7f2763a04370&#45;&gt;ast.Name object at 0x7f2763a04280</title>
<path fill="none" stroke="black" d="M182.5,-143.7C182.5,-135.98 182.5,-126.71 182.5,-118.11"/>
<polygon fill="black" stroke="black" points="186,-118.1 182.5,-108.1 179,-118.1 186,-118.1"/>
</g>
<!-- ast.Name object at 0x7f2763a07520 -->
<g id="node10" class="node">
<title>ast.Name object at 0x7f2763a07520</title>
<path fill="#66cdaa" stroke="black" d="M125.5,-108C125.5,-108 95.5,-108 95.5,-108 89.5,-108 83.5,-102 83.5,-96 83.5,-96 83.5,-84 83.5,-84 83.5,-78 89.5,-72 95.5,-72 95.5,-72 125.5,-72 125.5,-72 131.5,-72 137.5,-78 137.5,-84 137.5,-84 137.5,-96 137.5,-96 137.5,-102 131.5,-108 125.5,-108"/>
<text text-anchor="middle" x="110.5" y="-86.3" font-family="Times,serif" font-size="14.00">Name</text>
</g>
<!-- ast.Call object at 0x7f2763a04370&#45;&gt;ast.Name object at 0x7f2763a07520 -->
<g id="edge9" class="edge">
<title>ast.Call object at 0x7f2763a04370&#45;&gt;ast.Name object at 0x7f2763a07520</title>
<path fill="none" stroke="black" d="M164.7,-143.7C155.9,-135.14 145.12,-124.66 135.5,-115.3"/>
<polygon fill="black" stroke="black" points="137.7,-112.57 128.09,-108.1 132.82,-117.58 137.7,-112.57"/>
</g>
<!-- ast.Load object at 0x7f27e72f1f60 -->
<g id="node9" class="node">
<title>ast.Load object at 0x7f27e72f1f60</title>
<path fill="#66cdaa" stroke="black" d="M607.5,-36C607.5,-36 577.5,-36 577.5,-36 571.5,-36 565.5,-30 565.5,-24 565.5,-24 565.5,-12 565.5,-12 565.5,-6 571.5,0 577.5,0 577.5,0 607.5,0 607.5,0 613.5,0 619.5,-6 619.5,-12 619.5,-12 619.5,-24 619.5,-24 619.5,-30 613.5,-36 607.5,-36"/>
<text text-anchor="middle" x="592.5" y="-14.3" font-family="Times,serif" font-size="14.00">Load</text>
</g>
<!-- ast.Name object at 0x7f2763a04280&#45;&gt;ast.Load object at 0x7f27e72f1f60 -->
<g id="edge8" class="edge">
<title>ast.Name object at 0x7f2763a04280&#45;&gt;ast.Load object at 0x7f27e72f1f60</title>
<path fill="none" stroke="black" d="M209.68,-75.13C212.61,-73.95 215.59,-72.87 218.5,-72 338.06,-36.19 486.56,-24.33 554.89,-20.61"/>
<polygon fill="black" stroke="black" points="555.34,-24.09 565.15,-20.07 554.98,-17.1 555.34,-24.09"/>
</g>
<!-- ast.Name object at 0x7f2763a07520&#45;&gt;ast.Load object at 0x7f27e72f1f60 -->
<g id="edge10" class="edge">
<title>ast.Name object at 0x7f2763a07520&#45;&gt;ast.Load object at 0x7f27e72f1f60</title>
<path fill="none" stroke="black" d="M137.66,-75.06C140.6,-73.89 143.58,-72.84 146.5,-72 293.59,-29.75 477.29,-21.13 555.01,-19.41"/>
<polygon fill="black" stroke="black" points="555.33,-22.9 565.26,-19.21 555.19,-15.9 555.33,-22.9"/>
</g>
<!-- ast.Call object at 0x7f278d7cf700 -->
<g id="node14" class="node">
<title>ast.Call object at 0x7f278d7cf700</title>
<path fill="#66cdaa" stroke="black" d="M269.5,-180C269.5,-180 239.5,-180 239.5,-180 233.5,-180 227.5,-174 227.5,-168 227.5,-168 227.5,-156 227.5,-156 227.5,-150 233.5,-144 239.5,-144 239.5,-144 269.5,-144 269.5,-144 275.5,-144 281.5,-150 281.5,-156 281.5,-156 281.5,-168 281.5,-168 281.5,-174 275.5,-180 269.5,-180"/>
<text text-anchor="middle" x="254.5" y="-158.3" font-family="Times,serif" font-size="14.00">Call</text>
</g>
<!-- ast.Raise object at 0x7f2763a053f0&#45;&gt;ast.Call object at 0x7f278d7cf700 -->
<g id="edge14" class="edge">
<title>ast.Raise object at 0x7f2763a053f0&#45;&gt;ast.Call object at 0x7f278d7cf700</title>
<path fill="none" stroke="black" d="M254.5,-215.7C254.5,-207.98 254.5,-198.71 254.5,-190.11"/>
<polygon fill="black" stroke="black" points="258,-190.1 254.5,-180.1 251,-190.1 258,-190.1"/>
</g>
<!-- ast.Name object at 0x7f278d7cf430 -->
<g id="node15" class="node">
<title>ast.Name object at 0x7f278d7cf430</title>
<path fill="#66cdaa" stroke="black" d="M269.5,-108C269.5,-108 239.5,-108 239.5,-108 233.5,-108 227.5,-102 227.5,-96 227.5,-96 227.5,-84 227.5,-84 227.5,-78 233.5,-72 239.5,-72 239.5,-72 269.5,-72 269.5,-72 275.5,-72 281.5,-78 281.5,-84 281.5,-84 281.5,-96 281.5,-96 281.5,-102 275.5,-108 269.5,-108"/>
<text text-anchor="middle" x="254.5" y="-86.3" font-family="Times,serif" font-size="14.00">Name</text>
</g>
<!-- ast.Call object at 0x7f278d7cf700&#45;&gt;ast.Name object at 0x7f278d7cf430 -->
<g id="edge15" class="edge">
<title>ast.Call object at 0x7f278d7cf700&#45;&gt;ast.Name object at 0x7f278d7cf430</title>
<path fill="none" stroke="black" d="M254.5,-143.7C254.5,-135.98 254.5,-126.71 254.5,-118.11"/>
<polygon fill="black" stroke="black" points="258,-118.1 254.5,-108.1 251,-118.1 258,-118.1"/>
</g>
<!-- ast.Constant object at 0x7f278d7c10f0 -->
<g id="node16" class="node">
<title>ast.Constant object at 0x7f278d7c10f0</title>
<path fill="#66cdaa" stroke="black" d="M353,-108C353,-108 312,-108 312,-108 306,-108 300,-102 300,-96 300,-96 300,-84 300,-84 300,-78 306,-72 312,-72 312,-72 353,-72 353,-72 359,-72 365,-78 365,-84 365,-84 365,-96 365,-96 365,-102 359,-108 353,-108"/>
<text text-anchor="middle" x="332.5" y="-86.3" font-family="Times,serif" font-size="14.00">Constant</text>
</g>
<!-- ast.Call object at 0x7f278d7cf700&#45;&gt;ast.Constant object at 0x7f278d7c10f0 -->
<g id="edge17" class="edge">
<title>ast.Call object at 0x7f278d7cf700&#45;&gt;ast.Constant object at 0x7f278d7c10f0</title>
<path fill="none" stroke="black" d="M273.78,-143.7C283.42,-135.05 295.23,-124.45 305.73,-115.03"/>
<polygon fill="black" stroke="black" points="308.34,-117.39 313.44,-108.1 303.66,-112.18 308.34,-117.39"/>
</g>
<!-- ast.Name object at 0x7f278d7cf430&#45;&gt;ast.Load object at 0x7f27e72f1f60 -->
<g id="edge16" class="edge">
<title>ast.Name object at 0x7f278d7cf430&#45;&gt;ast.Load object at 0x7f27e72f1f60</title>
<path fill="none" stroke="black" d="M281.71,-75.23C284.64,-74.03 287.6,-72.92 290.5,-72 383.16,-42.58 497.31,-28.16 555.14,-22.31"/>
<polygon fill="black" stroke="black" points="555.65,-25.78 565.26,-21.32 554.96,-18.81 555.65,-25.78"/>
</g>
<!-- ast.Name object at 0x7f278d7c1210 -->
<g id="node18" class="node">
<title>ast.Name object at 0x7f278d7c1210</title>
<path fill="#66cdaa" stroke="black" d="M607.5,-252C607.5,-252 577.5,-252 577.5,-252 571.5,-252 565.5,-246 565.5,-240 565.5,-240 565.5,-228 565.5,-228 565.5,-222 571.5,-216 577.5,-216 577.5,-216 607.5,-216 607.5,-216 613.5,-216 619.5,-222 619.5,-228 619.5,-228 619.5,-240 619.5,-240 619.5,-246 613.5,-252 607.5,-252"/>
<text text-anchor="middle" x="592.5" y="-230.3" font-family="Times,serif" font-size="14.00">Name</text>
</g>
<!-- ast.Assign object at 0x7f278d7c1270&#45;&gt;ast.Name object at 0x7f278d7c1210 -->
<g id="edge19" class="edge">
<title>ast.Assign object at 0x7f278d7c1270&#45;&gt;ast.Name object at 0x7f278d7c1210</title>
<path fill="none" stroke="black" d="M592.5,-287.7C592.5,-279.98 592.5,-270.71 592.5,-262.11"/>
<polygon fill="black" stroke="black" points="596,-262.1 592.5,-252.1 589,-262.1 596,-262.1"/>
</g>
<!-- ast.Call object at 0x7f278d7c0ca0 -->
<g id="node20" class="node">
<title>ast.Call object at 0x7f278d7c0ca0</title>
<path fill="#66cdaa" stroke="black" d="M679.5,-252C679.5,-252 649.5,-252 649.5,-252 643.5,-252 637.5,-246 637.5,-240 637.5,-240 637.5,-228 637.5,-228 637.5,-222 643.5,-216 649.5,-216 649.5,-216 679.5,-216 679.5,-216 685.5,-216 691.5,-222 691.5,-228 691.5,-228 691.5,-240 691.5,-240 691.5,-246 685.5,-252 679.5,-252"/>
<text text-anchor="middle" x="664.5" y="-230.3" font-family="Times,serif" font-size="14.00">Call</text>
</g>
<!-- ast.Assign object at 0x7f278d7c1270&#45;&gt;ast.Call object at 0x7f278d7c0ca0 -->
<g id="edge21" class="edge">
<title>ast.Assign object at 0x7f278d7c1270&#45;&gt;ast.Call object at 0x7f278d7c0ca0</title>
<path fill="none" stroke="black" d="M610.3,-287.7C619.1,-279.14 629.88,-268.66 639.5,-259.3"/>
<polygon fill="black" stroke="black" points="642.18,-261.58 646.91,-252.1 637.3,-256.57 642.18,-261.58"/>
</g>
<!-- ast.Store object at 0x7f27e72f1fc0 -->
<g id="node19" class="node">
<title>ast.Store object at 0x7f27e72f1fc0</title>
<path fill="#66cdaa" stroke="black" d="M535.5,-108C535.5,-108 505.5,-108 505.5,-108 499.5,-108 493.5,-102 493.5,-96 493.5,-96 493.5,-84 493.5,-84 493.5,-78 499.5,-72 505.5,-72 505.5,-72 535.5,-72 535.5,-72 541.5,-72 547.5,-78 547.5,-84 547.5,-84 547.5,-96 547.5,-96 547.5,-102 541.5,-108 535.5,-108"/>
<text text-anchor="middle" x="520.5" y="-86.3" font-family="Times,serif" font-size="14.00">Store</text>
</g>
<!-- ast.Name object at 0x7f278d7c1210&#45;&gt;ast.Store object at 0x7f27e72f1fc0 -->
<g id="edge20" class="edge">
<title>ast.Name object at 0x7f278d7c1210&#45;&gt;ast.Store object at 0x7f27e72f1fc0</title>
<path fill="none" stroke="black" d="M588.04,-215.96C582.84,-197.55 573.31,-167.69 560.5,-144 555.32,-134.42 548.51,-124.69 541.98,-116.23"/>
<polygon fill="black" stroke="black" points="544.59,-113.88 535.62,-108.24 539.11,-118.24 544.59,-113.88"/>
</g>
<!-- ast.Name object at 0x7f278d7c0cd0 -->
<g id="node21" class="node">
<title>ast.Name object at 0x7f278d7c0cd0</title>
<path fill="#66cdaa" stroke="black" d="M607.5,-108C607.5,-108 577.5,-108 577.5,-108 571.5,-108 565.5,-102 565.5,-96 565.5,-96 565.5,-84 565.5,-84 565.5,-78 571.5,-72 577.5,-72 577.5,-72 607.5,-72 607.5,-72 613.5,-72 619.5,-78 619.5,-84 619.5,-84 619.5,-96 619.5,-96 619.5,-102 613.5,-108 607.5,-108"/>
<text text-anchor="middle" x="592.5" y="-86.3" font-family="Times,serif" font-size="14.00">Name</text>
</g>
<!-- ast.Call object at 0x7f278d7c0ca0&#45;&gt;ast.Name object at 0x7f278d7c0cd0 -->
<g id="edge22" class="edge">
<title>ast.Call object at 0x7f278d7c0ca0&#45;&gt;ast.Name object at 0x7f278d7c0cd0</title>
<path fill="none" stroke="black" d="M655.82,-215.87C643.38,-191.35 620.4,-146.03 605.81,-117.26"/>
<polygon fill="black" stroke="black" points="608.86,-115.53 601.22,-108.19 602.62,-118.69 608.86,-115.53"/>
</g>
<!-- ast.Call object at 0x7f278d7c0e50 -->
<g id="node22" class="node">
<title>ast.Call object at 0x7f278d7c0e50</title>
<path fill="#66cdaa" stroke="black" d="M781.5,-180C781.5,-180 751.5,-180 751.5,-180 745.5,-180 739.5,-174 739.5,-168 739.5,-168 739.5,-156 739.5,-156 739.5,-150 745.5,-144 751.5,-144 751.5,-144 781.5,-144 781.5,-144 787.5,-144 793.5,-150 793.5,-156 793.5,-156 793.5,-168 793.5,-168 793.5,-174 787.5,-180 781.5,-180"/>
<text text-anchor="middle" x="766.5" y="-158.3" font-family="Times,serif" font-size="14.00">Call</text>
</g>
<!-- ast.Call object at 0x7f278d7c0ca0&#45;&gt;ast.Call object at 0x7f278d7c0e50 -->
<g id="edge24" class="edge">
<title>ast.Call object at 0x7f278d7c0ca0&#45;&gt;ast.Call object at 0x7f278d7c0e50</title>
<path fill="none" stroke="black" d="M689.45,-215.88C702.54,-206.89 718.76,-195.76 732.94,-186.03"/>
<polygon fill="black" stroke="black" points="735.19,-188.73 741.45,-180.19 731.23,-182.96 735.19,-188.73"/>
</g>
<!-- ast.Name object at 0x7f278d7c0cd0&#45;&gt;ast.Load object at 0x7f27e72f1f60 -->
<g id="edge23" class="edge">
<title>ast.Name object at 0x7f278d7c0cd0&#45;&gt;ast.Load object at 0x7f27e72f1f60</title>
<path fill="none" stroke="black" d="M592.5,-71.7C592.5,-63.98 592.5,-54.71 592.5,-46.11"/>
<polygon fill="black" stroke="black" points="596,-46.1 592.5,-36.1 589,-46.1 596,-46.1"/>
</g>
<!-- ast.Name object at 0x7f278d7c0df0 -->
<g id="node23" class="node">
<title>ast.Name object at 0x7f278d7c0df0</title>
<path fill="#66cdaa" stroke="black" d="M823.5,-108C823.5,-108 793.5,-108 793.5,-108 787.5,-108 781.5,-102 781.5,-96 781.5,-96 781.5,-84 781.5,-84 781.5,-78 787.5,-72 793.5,-72 793.5,-72 823.5,-72 823.5,-72 829.5,-72 835.5,-78 835.5,-84 835.5,-84 835.5,-96 835.5,-96 835.5,-102 829.5,-108 823.5,-108"/>
<text text-anchor="middle" x="808.5" y="-86.3" font-family="Times,serif" font-size="14.00">Name</text>
</g>
<!-- ast.Call object at 0x7f278d7c0e50&#45;&gt;ast.Name object at 0x7f278d7c0df0 -->
<g id="edge25" class="edge">
<title>ast.Call object at 0x7f278d7c0e50&#45;&gt;ast.Name object at 0x7f278d7c0df0</title>
<path fill="none" stroke="black" d="M776.88,-143.7C781.76,-135.56 787.69,-125.69 793.08,-116.7"/>
<polygon fill="black" stroke="black" points="796.09,-118.48 798.24,-108.1 790.09,-114.88 796.09,-118.48"/>
</g>
<!-- ast.Name object at 0x7f278d7c0880 -->
<g id="node24" class="node">
<title>ast.Name object at 0x7f278d7c0880</title>
<path fill="#66cdaa" stroke="black" d="M679.5,-108C679.5,-108 649.5,-108 649.5,-108 643.5,-108 637.5,-102 637.5,-96 637.5,-96 637.5,-84 637.5,-84 637.5,-78 643.5,-72 649.5,-72 649.5,-72 679.5,-72 679.5,-72 685.5,-72 691.5,-78 691.5,-84 691.5,-84 691.5,-96 691.5,-96 691.5,-102 685.5,-108 679.5,-108"/>
<text text-anchor="middle" x="664.5" y="-86.3" font-family="Times,serif" font-size="14.00">Name</text>
</g>
<!-- ast.Call object at 0x7f278d7c0e50&#45;&gt;ast.Name object at 0x7f278d7c0880 -->
<g id="edge27" class="edge">
<title>ast.Call object at 0x7f278d7c0e50&#45;&gt;ast.Name object at 0x7f278d7c0880</title>
<path fill="none" stroke="black" d="M741.55,-143.88C728.46,-134.89 712.24,-123.76 698.06,-114.03"/>
<polygon fill="black" stroke="black" points="699.77,-110.96 689.55,-108.19 695.81,-116.73 699.77,-110.96"/>
</g>
<!-- ast.Name object at 0x7f278d7c08b0 -->
<g id="node25" class="node">
<title>ast.Name object at 0x7f278d7c08b0</title>
<path fill="#66cdaa" stroke="black" d="M751.5,-108C751.5,-108 721.5,-108 721.5,-108 715.5,-108 709.5,-102 709.5,-96 709.5,-96 709.5,-84 709.5,-84 709.5,-78 715.5,-72 721.5,-72 721.5,-72 751.5,-72 751.5,-72 757.5,-72 763.5,-78 763.5,-84 763.5,-84 763.5,-96 763.5,-96 763.5,-102 757.5,-108 751.5,-108"/>
<text text-anchor="middle" x="736.5" y="-86.3" font-family="Times,serif" font-size="14.00">Name</text>
</g>
<!-- ast.Call object at 0x7f278d7c0e50&#45;&gt;ast.Name object at 0x7f278d7c08b0 -->
<g id="edge29" class="edge">
<title>ast.Call object at 0x7f278d7c0e50&#45;&gt;ast.Name object at 0x7f278d7c08b0</title>
<path fill="none" stroke="black" d="M759.08,-143.7C755.71,-135.81 751.63,-126.3 747.88,-117.55"/>
<polygon fill="black" stroke="black" points="750.99,-115.92 743.83,-108.1 744.55,-118.67 750.99,-115.92"/>
</g>
<!-- ast.Name object at 0x7f278d7c0df0&#45;&gt;ast.Load object at 0x7f27e72f1f60 -->
<g id="edge26" class="edge">
<title>ast.Name object at 0x7f278d7c0df0&#45;&gt;ast.Load object at 0x7f27e72f1f60</title>
<path fill="none" stroke="black" d="M781.17,-75.56C778.27,-74.29 775.34,-73.08 772.5,-72 724.08,-53.57 666.35,-37.58 629.56,-28.12"/>
<polygon fill="black" stroke="black" points="630.32,-24.7 619.77,-25.62 628.6,-31.48 630.32,-24.7"/>
</g>
<!-- ast.Name object at 0x7f278d7c0880&#45;&gt;ast.Load object at 0x7f27e72f1f60 -->
<g id="edge28" class="edge">
<title>ast.Name object at 0x7f278d7c0880&#45;&gt;ast.Load object at 0x7f27e72f1f60</title>
<path fill="none" stroke="black" d="M646.7,-71.7C637.9,-63.14 627.12,-52.66 617.5,-43.3"/>
<polygon fill="black" stroke="black" points="619.7,-40.57 610.09,-36.1 614.82,-45.58 619.7,-40.57"/>
</g>
<!-- ast.Name object at 0x7f278d7c08b0&#45;&gt;ast.Load object at 0x7f27e72f1f60 -->
<g id="edge30" class="edge">
<title>ast.Name object at 0x7f278d7c08b0&#45;&gt;ast.Load object at 0x7f27e72f1f60</title>
<path fill="none" stroke="black" d="M709.41,-75.83C686.73,-64.81 654.14,-48.97 629.13,-36.81"/>
<polygon fill="black" stroke="black" points="630.48,-33.57 619.95,-32.35 627.42,-39.87 630.48,-33.57"/>
</g>
<!-- ast.Name object at 0x7f278d7c09d0 -->
<g id="node27" class="node">
<title>ast.Name object at 0x7f278d7c09d0</title>
<path fill="#66cdaa" stroke="black" d="M709.5,-180C709.5,-180 679.5,-180 679.5,-180 673.5,-180 667.5,-174 667.5,-168 667.5,-168 667.5,-156 667.5,-156 667.5,-150 673.5,-144 679.5,-144 679.5,-144 709.5,-144 709.5,-144 715.5,-144 721.5,-150 721.5,-156 721.5,-156 721.5,-168 721.5,-168 721.5,-174 715.5,-180 709.5,-180"/>
<text text-anchor="middle" x="694.5" y="-158.3" font-family="Times,serif" font-size="14.00">Name</text>
</g>
<!-- ast.Assign object at 0x7f278d7c0a30&#45;&gt;ast.Name object at 0x7f278d7c09d0 -->
<g id="edge32" class="edge">
<title>ast.Assign object at 0x7f278d7c0a30&#45;&gt;ast.Name object at 0x7f278d7c09d0</title>
<path fill="none" stroke="black" d="M726.12,-215.7C721.24,-207.56 715.31,-197.69 709.92,-188.7"/>
<polygon fill="black" stroke="black" points="712.91,-186.88 704.76,-180.1 706.91,-190.48 712.91,-186.88"/>
</g>
<!-- ast.Call object at 0x7f278d7c0460 -->
<g id="node28" class="node">
<title>ast.Call object at 0x7f278d7c0460</title>
<path fill="#66cdaa" stroke="black" d="M874.5,-180C874.5,-180 844.5,-180 844.5,-180 838.5,-180 832.5,-174 832.5,-168 832.5,-168 832.5,-156 832.5,-156 832.5,-150 838.5,-144 844.5,-144 844.5,-144 874.5,-144 874.5,-144 880.5,-144 886.5,-150 886.5,-156 886.5,-156 886.5,-168 886.5,-168 886.5,-174 880.5,-180 874.5,-180"/>
<text text-anchor="middle" x="859.5" y="-158.3" font-family="Times,serif" font-size="14.00">Call</text>
</g>
<!-- ast.Assign object at 0x7f278d7c0a30&#45;&gt;ast.Call object at 0x7f278d7c0460 -->
<g id="edge34" class="edge">
<title>ast.Assign object at 0x7f278d7c0a30&#45;&gt;ast.Call object at 0x7f278d7c0460</title>
<path fill="none" stroke="black" d="M763.8,-217.46C781.39,-207.45 804.47,-194.32 823.55,-183.46"/>
<polygon fill="black" stroke="black" points="825.32,-186.48 832.28,-178.49 821.86,-180.4 825.32,-186.48"/>
</g>
<!-- ast.Name object at 0x7f278d7c09d0&#45;&gt;ast.Store object at 0x7f27e72f1fc0 -->
<g id="edge33" class="edge">
<title>ast.Name object at 0x7f278d7c09d0&#45;&gt;ast.Store object at 0x7f27e72f1fc0</title>
<path fill="none" stroke="black" d="M667.29,-151.23C641.14,-141.69 600.37,-126.44 556.85,-108.01"/>
<polygon fill="black" stroke="black" points="558.1,-104.74 547.53,-104.03 555.35,-111.17 558.1,-104.74"/>
</g>
<!-- ast.Name object at 0x7f278d7c0490 -->
<g id="node29" class="node">
<title>ast.Name object at 0x7f278d7c0490</title>
<path fill="#66cdaa" stroke="black" d="M895.5,-108C895.5,-108 865.5,-108 865.5,-108 859.5,-108 853.5,-102 853.5,-96 853.5,-96 853.5,-84 853.5,-84 853.5,-78 859.5,-72 865.5,-72 865.5,-72 895.5,-72 895.5,-72 901.5,-72 907.5,-78 907.5,-84 907.5,-84 907.5,-96 907.5,-96 907.5,-102 901.5,-108 895.5,-108"/>
<text text-anchor="middle" x="880.5" y="-86.3" font-family="Times,serif" font-size="14.00">Name</text>
</g>
<!-- ast.Call object at 0x7f278d7c0460&#45;&gt;ast.Name object at 0x7f278d7c0490 -->
<g id="edge35" class="edge">
<title>ast.Call object at 0x7f278d7c0460&#45;&gt;ast.Name object at 0x7f278d7c0490</title>
<path fill="none" stroke="black" d="M864.69,-143.7C867.03,-135.9 869.85,-126.51 872.45,-117.83"/>
<polygon fill="black" stroke="black" points="875.85,-118.69 875.37,-108.1 869.14,-116.68 875.85,-118.69"/>
</g>
<!-- ast.Name object at 0x7f278d7c0490&#45;&gt;ast.Load object at 0x7f27e72f1f60 -->
<g id="edge36" class="edge">
<title>ast.Name object at 0x7f278d7c0490&#45;&gt;ast.Load object at 0x7f27e72f1f60</title>
<path fill="none" stroke="black" d="M853.26,-75.33C850.34,-74.11 847.38,-72.97 844.5,-72 770.12,-47 679.28,-31.37 629.51,-24.01"/>
<polygon fill="black" stroke="black" points="629.93,-20.53 619.53,-22.56 628.93,-27.46 629.93,-20.53"/>
</g>
<!-- ast.Name object at 0x7f278d7c05b0 -->
<g id="node31" class="node">
<title>ast.Name object at 0x7f278d7c05b0</title>
<path fill="#66cdaa" stroke="black" d="M535.5,-252C535.5,-252 505.5,-252 505.5,-252 499.5,-252 493.5,-246 493.5,-240 493.5,-240 493.5,-228 493.5,-228 493.5,-222 499.5,-216 505.5,-216 505.5,-216 535.5,-216 535.5,-216 541.5,-216 547.5,-222 547.5,-228 547.5,-228 547.5,-240 547.5,-240 547.5,-246 541.5,-252 535.5,-252"/>
<text text-anchor="middle" x="520.5" y="-230.3" font-family="Times,serif" font-size="14.00">Name</text>
</g>
<!-- ast.For object at 0x7f278d7c0610&#45;&gt;ast.Name object at 0x7f278d7c05b0 -->
<g id="edge38" class="edge">
<title>ast.For object at 0x7f278d7c0610&#45;&gt;ast.Name object at 0x7f278d7c05b0</title>
<path fill="none" stroke="black" d="M486.62,-287.7C491.86,-279.56 498.2,-269.69 503.98,-260.7"/>
<polygon fill="black" stroke="black" points="507.04,-262.41 509.5,-252.1 501.15,-258.62 507.04,-262.41"/>
</g>
<!-- ast.Name object at 0x7f278d7c0040 -->
<g id="node32" class="node">
<title>ast.Name object at 0x7f278d7c0040</title>
<path fill="#66cdaa" stroke="black" d="M425.5,-108C425.5,-108 395.5,-108 395.5,-108 389.5,-108 383.5,-102 383.5,-96 383.5,-96 383.5,-84 383.5,-84 383.5,-78 389.5,-72 395.5,-72 395.5,-72 425.5,-72 425.5,-72 431.5,-72 437.5,-78 437.5,-84 437.5,-84 437.5,-96 437.5,-96 437.5,-102 431.5,-108 425.5,-108"/>
<text text-anchor="middle" x="410.5" y="-86.3" font-family="Times,serif" font-size="14.00">Name</text>
</g>
<!-- ast.For object at 0x7f278d7c0610&#45;&gt;ast.Name object at 0x7f278d7c0040 -->
<g id="edge40" class="edge">
<title>ast.For object at 0x7f278d7c0610&#45;&gt;ast.Name object at 0x7f278d7c0040</title>
<path fill="none" stroke="black" d="M448.22,-292.72C411.58,-274.38 348.74,-235.91 328.5,-180 323.05,-164.96 320.85,-158.05 328.5,-144 333.77,-134.32 354.86,-120.79 374.32,-109.83"/>
<polygon fill="black" stroke="black" points="376.03,-112.89 383.09,-104.99 372.65,-106.76 376.03,-112.89"/>
</g>
<!-- ast.AugAssign object at 0x7f278d7c3cd0 -->
<g id="node33" class="node">
<title>ast.AugAssign object at 0x7f278d7c3cd0</title>
<path fill="#66cdaa" stroke="black" d="M463,-252C463,-252 410,-252 410,-252 404,-252 398,-246 398,-240 398,-240 398,-228 398,-228 398,-222 404,-216 410,-216 410,-216 463,-216 463,-216 469,-216 475,-222 475,-228 475,-228 475,-240 475,-240 475,-246 469,-252 463,-252"/>
<text text-anchor="middle" x="436.5" y="-230.3" font-family="Times,serif" font-size="14.00">AugAssign</text>
</g>
<!-- ast.For object at 0x7f278d7c0610&#45;&gt;ast.AugAssign object at 0x7f278d7c3cd0 -->
<g id="edge42" class="edge">
<title>ast.For object at 0x7f278d7c0610&#45;&gt;ast.AugAssign object at 0x7f278d7c3cd0</title>
<path fill="none" stroke="black" d="M465.86,-287.7C461.37,-279.64 455.94,-269.89 450.98,-260.98"/>
<polygon fill="black" stroke="black" points="453.95,-259.14 446.03,-252.1 447.84,-262.54 453.95,-259.14"/>
</g>
<!-- ast.Name object at 0x7f278d7c05b0&#45;&gt;ast.Store object at 0x7f27e72f1fc0 -->
<g id="edge39" class="edge">
<title>ast.Name object at 0x7f278d7c05b0&#45;&gt;ast.Store object at 0x7f27e72f1fc0</title>
<path fill="none" stroke="black" d="M530.45,-215.98C535.77,-205.89 541.77,-192.64 544.5,-180 547.88,-164.36 547.88,-159.64 544.5,-144 542.54,-134.92 538.89,-125.52 535.01,-117.2"/>
<polygon fill="black" stroke="black" points="538.04,-115.42 530.45,-108.02 531.77,-118.53 538.04,-115.42"/>
</g>
<!-- ast.Name object at 0x7f278d7c0040&#45;&gt;ast.Load object at 0x7f27e72f1f60 -->
<g id="edge41" class="edge">
<title>ast.Name object at 0x7f278d7c0040&#45;&gt;ast.Load object at 0x7f27e72f1f60</title>
<path fill="none" stroke="black" d="M437.8,-77.53C442.36,-75.66 447.06,-73.76 451.5,-72 486.75,-58.07 527.27,-42.93 555.8,-32.41"/>
<polygon fill="black" stroke="black" points="557.19,-35.63 565.37,-28.89 554.77,-29.06 557.19,-35.63"/>
</g>
<!-- ast.Name object at 0x7f278d7c3490 -->
<g id="node34" class="node">
<title>ast.Name object at 0x7f278d7c3490</title>
<path fill="#66cdaa" stroke="black" d="M451.5,-180C451.5,-180 421.5,-180 421.5,-180 415.5,-180 409.5,-174 409.5,-168 409.5,-168 409.5,-156 409.5,-156 409.5,-150 415.5,-144 421.5,-144 421.5,-144 451.5,-144 451.5,-144 457.5,-144 463.5,-150 463.5,-156 463.5,-156 463.5,-168 463.5,-168 463.5,-174 457.5,-180 451.5,-180"/>
<text text-anchor="middle" x="436.5" y="-158.3" font-family="Times,serif" font-size="14.00">Name</text>
</g>
<!-- ast.AugAssign object at 0x7f278d7c3cd0&#45;&gt;ast.Name object at 0x7f278d7c3490 -->
<g id="edge43" class="edge">
<title>ast.AugAssign object at 0x7f278d7c3cd0&#45;&gt;ast.Name object at 0x7f278d7c3490</title>
<path fill="none" stroke="black" d="M436.5,-215.7C436.5,-207.98 436.5,-198.71 436.5,-190.11"/>
<polygon fill="black" stroke="black" points="440,-190.1 436.5,-180.1 433,-190.1 440,-190.1"/>
</g>
<!-- ast.BitOr object at 0x7f27e72f2500 -->
<g id="node35" class="node">
<title>ast.BitOr object at 0x7f27e72f2500</title>
<path fill="#66cdaa" stroke="black" d="M523.5,-180C523.5,-180 493.5,-180 493.5,-180 487.5,-180 481.5,-174 481.5,-168 481.5,-168 481.5,-156 481.5,-156 481.5,-150 487.5,-144 493.5,-144 493.5,-144 523.5,-144 523.5,-144 529.5,-144 535.5,-150 535.5,-156 535.5,-156 535.5,-168 535.5,-168 535.5,-174 529.5,-180 523.5,-180"/>
<text text-anchor="middle" x="508.5" y="-158.3" font-family="Times,serif" font-size="14.00">BitOr</text>
</g>
<!-- ast.AugAssign object at 0x7f278d7c3cd0&#45;&gt;ast.BitOr object at 0x7f27e72f2500 -->
<g id="edge45" class="edge">
<title>ast.AugAssign object at 0x7f278d7c3cd0&#45;&gt;ast.BitOr object at 0x7f27e72f2500</title>
<path fill="none" stroke="black" d="M454.3,-215.7C463.1,-207.14 473.88,-196.66 483.5,-187.3"/>
<polygon fill="black" stroke="black" points="486.18,-189.58 490.91,-180.1 481.3,-184.57 486.18,-189.58"/>
</g>
<!-- ast.Name object at 0x7f278d7c3ca0 -->
<g id="node36" class="node">
<title>ast.Name object at 0x7f278d7c3ca0</title>
<path fill="#66cdaa" stroke="black" d="M379.5,-180C379.5,-180 349.5,-180 349.5,-180 343.5,-180 337.5,-174 337.5,-168 337.5,-168 337.5,-156 337.5,-156 337.5,-150 343.5,-144 349.5,-144 349.5,-144 379.5,-144 379.5,-144 385.5,-144 391.5,-150 391.5,-156 391.5,-156 391.5,-168 391.5,-168 391.5,-174 385.5,-180 379.5,-180"/>
<text text-anchor="middle" x="364.5" y="-158.3" font-family="Times,serif" font-size="14.00">Name</text>
</g>
<!-- ast.AugAssign object at 0x7f278d7c3cd0&#45;&gt;ast.Name object at 0x7f278d7c3ca0 -->
<g id="edge46" class="edge">
<title>ast.AugAssign object at 0x7f278d7c3cd0&#45;&gt;ast.Name object at 0x7f278d7c3ca0</title>
<path fill="none" stroke="black" d="M418.7,-215.7C409.9,-207.14 399.12,-196.66 389.5,-187.3"/>
<polygon fill="black" stroke="black" points="391.7,-184.57 382.09,-180.1 386.82,-189.58 391.7,-184.57"/>
</g>
<!-- ast.Name object at 0x7f278d7c3490&#45;&gt;ast.Store object at 0x7f27e72f1fc0 -->
<g id="edge44" class="edge">
<title>ast.Name object at 0x7f278d7c3490&#45;&gt;ast.Store object at 0x7f27e72f1fc0</title>
<path fill="none" stroke="black" d="M457.26,-143.7C467.74,-134.97 480.61,-124.24 492,-114.75"/>
<polygon fill="black" stroke="black" points="494.53,-117.19 499.97,-108.1 490.05,-111.82 494.53,-117.19"/>
</g>
<!-- ast.Name object at 0x7f278d7c3ca0&#45;&gt;ast.Load object at 0x7f27e72f1f60 -->
<g id="edge47" class="edge">
<title>ast.Name object at 0x7f278d7c3ca0&#45;&gt;ast.Load object at 0x7f27e72f1f60</title>
<path fill="none" stroke="black" d="M391.57,-145.25C407.98,-135.28 429.04,-121.72 446.5,-108 464.79,-93.62 465.4,-85.28 484.5,-72 506.76,-56.53 534.21,-43.12 555.87,-33.66"/>
<polygon fill="black" stroke="black" points="557.25,-36.88 565.06,-29.73 554.49,-30.44 557.25,-36.88"/>
</g>
<!-- ast.Name object at 0x7f278d7c0b20 -->
<g id="node38" class="node">
<title>ast.Name object at 0x7f278d7c0b20</title>
<path fill="#66cdaa" stroke="black" d="M886.5,-252C886.5,-252 856.5,-252 856.5,-252 850.5,-252 844.5,-246 844.5,-240 844.5,-240 844.5,-228 844.5,-228 844.5,-222 850.5,-216 856.5,-216 856.5,-216 886.5,-216 886.5,-216 892.5,-216 898.5,-222 898.5,-228 898.5,-228 898.5,-240 898.5,-240 898.5,-246 892.5,-252 886.5,-252"/>
<text text-anchor="middle" x="871.5" y="-230.3" font-family="Times,serif" font-size="14.00">Name</text>
</g>
<!-- ast.Return object at 0x7f278d7c0730&#45;&gt;ast.Name object at 0x7f278d7c0b20 -->
<g id="edge49" class="edge">
<title>ast.Return object at 0x7f278d7c0730&#45;&gt;ast.Name object at 0x7f278d7c0b20</title>
<path fill="none" stroke="black" d="M800.74,-287.7C812.69,-278.8 827.42,-267.82 840.35,-258.2"/>
<polygon fill="black" stroke="black" points="842.6,-260.88 848.53,-252.1 838.42,-255.27 842.6,-260.88"/>
</g>
<!-- ast.Name object at 0x7f278d7c0b20&#45;&gt;ast.Load object at 0x7f27e72f1f60 -->
<g id="edge50" class="edge">
<title>ast.Name object at 0x7f278d7c0b20&#45;&gt;ast.Load object at 0x7f27e72f1f60</title>
<path fill="none" stroke="black" d="M885.3,-215.81C909.23,-183.79 952.58,-114.46 916.5,-72 880.06,-29.12 707.07,-20.86 629.86,-19.32"/>
<polygon fill="black" stroke="black" points="629.68,-15.82 619.62,-19.14 629.56,-22.82 629.68,-15.82"/>
</g>
</g>
</svg>
