<?xml version="1.0" encoding="UTF-8" standalone="no"?>
<!DOCTYPE svg PUBLIC "-//W3C//DTD SVG 1.1//EN"
 "http://www.w3.org/Graphics/SVG/1.1/DTD/svg11.dtd">
<!-- Generated by graphviz version 2.43.0 (0)
 -->
<!-- Title: %3 Pages: 1 -->
<svg width="850pt" height="620pt"
 viewBox="0.00 0.00 850.00 620.00" xmlns="http://www.w3.org/2000/svg" xmlns:xlink="http://www.w3.org/1999/xlink">
<g id="graph0" class="graph" transform="scale(1 1) rotate(0) translate(4 616)">
<title>%3</title>
<polygon fill="white" stroke="transparent" points="-4,4 -4,-616 846,-616 846,4 -4,4"/>
<!-- ast.Module object at 0x7fb06eae3700 -->
<g id="node1" class="node">
<title>ast.Module object at 0x7fb06eae3700</title>
<path fill="#66cdaa" stroke="black" d="M316,-612C316,-612 281,-612 281,-612 275,-612 269,-606 269,-600 269,-600 269,-588 269,-588 269,-582 275,-576 281,-576 281,-576 316,-576 316,-576 322,-576 328,-582 328,-588 328,-588 328,-600 328,-600 328,-606 322,-612 316,-612"/>
<text text-anchor="middle" x="298.5" y="-590.3" font-family="Times,serif" font-size="14.00">Module</text>
</g>
<!-- ast.FunctionDef object at 0x7fb06eae39a0 -->
<g id="node2" class="node">
<title>ast.FunctionDef object at 0x7fb06eae39a0</title>
<path fill="#66cdaa" stroke="black" d="M329,-540C329,-540 268,-540 268,-540 262,-540 256,-534 256,-528 256,-528 256,-516 256,-516 256,-510 262,-504 268,-504 268,-504 329,-504 329,-504 335,-504 341,-510 341,-516 341,-516 341,-528 341,-528 341,-534 335,-540 329,-540"/>
<text text-anchor="middle" x="298.5" y="-518.3" font-family="Times,serif" font-size="14.00">FunctionDef</text>
</g>
<!-- ast.Module object at 0x7fb06eae3700&#45;&gt;ast.FunctionDef object at 0x7fb06eae39a0 -->
<g id="edge1" class="edge">
<title>ast.Module object at 0x7fb06eae3700&#45;&gt;ast.FunctionDef object at 0x7fb06eae39a0</title>
<path fill="none" stroke="black" d="M298.5,-575.7C298.5,-567.98 298.5,-558.71 298.5,-550.11"/>
<polygon fill="black" stroke="black" points="302,-550.1 298.5,-540.1 295,-550.1 302,-550.1"/>
</g>
<!-- ast.arguments object at 0x7fb06eae38e0 -->
<g id="node3" class="node">
<title>ast.arguments object at 0x7fb06eae38e0</title>
<path fill="#66cdaa" stroke="black" d="M128.5,-468C128.5,-468 78.5,-468 78.5,-468 72.5,-468 66.5,-462 66.5,-456 66.5,-456 66.5,-444 66.5,-444 66.5,-438 72.5,-432 78.5,-432 78.5,-432 128.5,-432 128.5,-432 134.5,-432 140.5,-438 140.5,-444 140.5,-444 140.5,-456 140.5,-456 140.5,-462 134.5,-468 128.5,-468"/>
<text text-anchor="middle" x="103.5" y="-446.3" font-family="Times,serif" font-size="14.00">arguments</text>
</g>
<!-- ast.FunctionDef object at 0x7fb06eae39a0&#45;&gt;ast.arguments object at 0x7fb06eae38e0 -->
<g id="edge2" class="edge">
<title>ast.FunctionDef object at 0x7fb06eae39a0&#45;&gt;ast.arguments object at 0x7fb06eae38e0</title>
<path fill="none" stroke="black" d="M255.71,-505.64C224.51,-494.44 182.28,-479.28 150.21,-467.77"/>
<polygon fill="black" stroke="black" points="151.2,-464.41 140.61,-464.32 148.84,-470.99 151.2,-464.41"/>
</g>
<!-- ast.Assign object at 0x7fb06eae3490 -->
<g id="node5" class="node">
<title>ast.Assign object at 0x7fb06eae3490</title>
<path fill="#66cdaa" stroke="black" d="M313.5,-324C313.5,-324 283.5,-324 283.5,-324 277.5,-324 271.5,-318 271.5,-312 271.5,-312 271.5,-300 271.5,-300 271.5,-294 277.5,-288 283.5,-288 283.5,-288 313.5,-288 313.5,-288 319.5,-288 325.5,-294 325.5,-300 325.5,-300 325.5,-312 325.5,-312 325.5,-318 319.5,-324 313.5,-324"/>
<text text-anchor="middle" x="298.5" y="-302.3" font-family="Times,serif" font-size="14.00">Assign</text>
</g>
<!-- ast.FunctionDef object at 0x7fb06eae39a0&#45;&gt;ast.Assign object at 0x7fb06eae3490 -->
<g id="edge4" class="edge">
<title>ast.FunctionDef object at 0x7fb06eae39a0&#45;&gt;ast.Assign object at 0x7fb06eae3490</title>
<path fill="none" stroke="black" d="M298.5,-503.85C298.5,-466.83 298.5,-379.18 298.5,-334.39"/>
<polygon fill="black" stroke="black" points="302,-334.23 298.5,-324.23 295,-334.23 302,-334.23"/>
</g>
<!-- ast.Assign object at 0x7fb06eae1ea0 -->
<g id="node14" class="node">
<title>ast.Assign object at 0x7fb06eae1ea0</title>
<path fill="#66cdaa" stroke="black" d="M240.5,-468C240.5,-468 210.5,-468 210.5,-468 204.5,-468 198.5,-462 198.5,-456 198.5,-456 198.5,-444 198.5,-444 198.5,-438 204.5,-432 210.5,-432 210.5,-432 240.5,-432 240.5,-432 246.5,-432 252.5,-438 252.5,-444 252.5,-444 252.5,-456 252.5,-456 252.5,-462 246.5,-468 240.5,-468"/>
<text text-anchor="middle" x="225.5" y="-446.3" font-family="Times,serif" font-size="14.00">Assign</text>
</g>
<!-- ast.FunctionDef object at 0x7fb06eae39a0&#45;&gt;ast.Assign object at 0x7fb06eae1ea0 -->
<g id="edge14" class="edge">
<title>ast.FunctionDef object at 0x7fb06eae39a0&#45;&gt;ast.Assign object at 0x7fb06eae1ea0</title>
<path fill="none" stroke="black" d="M280.46,-503.7C271.44,-495.05 260.38,-484.45 250.56,-475.03"/>
<polygon fill="black" stroke="black" points="252.98,-472.5 243.34,-468.1 248.13,-477.55 252.98,-472.5"/>
</g>
<!-- ast.Assign object at 0x7fb06eae28f0 -->
<g id="node21" class="node">
<title>ast.Assign object at 0x7fb06eae28f0</title>
<path fill="#66cdaa" stroke="black" d="M387.5,-468C387.5,-468 357.5,-468 357.5,-468 351.5,-468 345.5,-462 345.5,-456 345.5,-456 345.5,-444 345.5,-444 345.5,-438 351.5,-432 357.5,-432 357.5,-432 387.5,-432 387.5,-432 393.5,-432 399.5,-438 399.5,-444 399.5,-444 399.5,-456 399.5,-456 399.5,-462 393.5,-468 387.5,-468"/>
<text text-anchor="middle" x="372.5" y="-446.3" font-family="Times,serif" font-size="14.00">Assign</text>
</g>
<!-- ast.FunctionDef object at 0x7fb06eae39a0&#45;&gt;ast.Assign object at 0x7fb06eae28f0 -->
<g id="edge25" class="edge">
<title>ast.FunctionDef object at 0x7fb06eae39a0&#45;&gt;ast.Assign object at 0x7fb06eae28f0</title>
<path fill="none" stroke="black" d="M316.79,-503.7C325.93,-495.05 337.14,-484.45 347.1,-475.03"/>
<polygon fill="black" stroke="black" points="349.56,-477.52 354.42,-468.1 344.75,-472.43 349.56,-477.52"/>
</g>
<!-- ast.Return object at 0x7fb06eae39d0 -->
<g id="node33" class="node">
<title>ast.Return object at 0x7fb06eae39d0</title>
<path fill="#66cdaa" stroke="black" d="M575.5,-468C575.5,-468 545.5,-468 545.5,-468 539.5,-468 533.5,-462 533.5,-456 533.5,-456 533.5,-444 533.5,-444 533.5,-438 539.5,-432 545.5,-432 545.5,-432 575.5,-432 575.5,-432 581.5,-432 587.5,-438 587.5,-444 587.5,-444 587.5,-456 587.5,-456 587.5,-462 581.5,-468 575.5,-468"/>
<text text-anchor="middle" x="560.5" y="-446.3" font-family="Times,serif" font-size="14.00">Return</text>
</g>
<!-- ast.FunctionDef object at 0x7fb06eae39a0&#45;&gt;ast.Return object at 0x7fb06eae39d0 -->
<g id="edge42" class="edge">
<title>ast.FunctionDef object at 0x7fb06eae39a0&#45;&gt;ast.Return object at 0x7fb06eae39d0</title>
<path fill="none" stroke="black" d="M341.18,-509.6C391.94,-496.03 475.83,-473.62 523.81,-460.8"/>
<polygon fill="black" stroke="black" points="524.72,-464.18 533.47,-458.22 522.91,-457.42 524.72,-464.18"/>
</g>
<!-- ast.arg object at 0x7fb06eae2680 -->
<g id="node4" class="node">
<title>ast.arg object at 0x7fb06eae2680</title>
<path fill="#66cdaa" stroke="black" d="M78.5,-396C78.5,-396 48.5,-396 48.5,-396 42.5,-396 36.5,-390 36.5,-384 36.5,-384 36.5,-372 36.5,-372 36.5,-366 42.5,-360 48.5,-360 48.5,-360 78.5,-360 78.5,-360 84.5,-360 90.5,-366 90.5,-372 90.5,-372 90.5,-384 90.5,-384 90.5,-390 84.5,-396 78.5,-396"/>
<text text-anchor="middle" x="63.5" y="-374.3" font-family="Times,serif" font-size="14.00">arg</text>
</g>
<!-- ast.arguments object at 0x7fb06eae38e0&#45;&gt;ast.arg object at 0x7fb06eae2680 -->
<g id="edge3" class="edge">
<title>ast.arguments object at 0x7fb06eae38e0&#45;&gt;ast.arg object at 0x7fb06eae2680</title>
<path fill="none" stroke="black" d="M93.61,-431.7C89.01,-423.64 83.44,-413.89 78.35,-404.98"/>
<polygon fill="black" stroke="black" points="81.27,-403.05 73.27,-396.1 75.2,-406.52 81.27,-403.05"/>
</g>
<!-- ast.Name object at 0x7fb06eae3a30 -->
<g id="node6" class="node">
<title>ast.Name object at 0x7fb06eae3a30</title>
<path fill="#66cdaa" stroke="black" d="M294.5,-252C294.5,-252 264.5,-252 264.5,-252 258.5,-252 252.5,-246 252.5,-240 252.5,-240 252.5,-228 252.5,-228 252.5,-222 258.5,-216 264.5,-216 264.5,-216 294.5,-216 294.5,-216 300.5,-216 306.5,-222 306.5,-228 306.5,-228 306.5,-240 306.5,-240 306.5,-246 300.5,-252 294.5,-252"/>
<text text-anchor="middle" x="279.5" y="-230.3" font-family="Times,serif" font-size="14.00">Name</text>
</g>
<!-- ast.Assign object at 0x7fb06eae3490&#45;&gt;ast.Name object at 0x7fb06eae3a30 -->
<g id="edge5" class="edge">
<title>ast.Assign object at 0x7fb06eae3490&#45;&gt;ast.Name object at 0x7fb06eae3a30</title>
<path fill="none" stroke="black" d="M293.8,-287.7C291.69,-279.9 289.14,-270.51 286.78,-261.83"/>
<polygon fill="black" stroke="black" points="290.14,-260.84 284.14,-252.1 283.38,-262.67 290.14,-260.84"/>
</g>
<!-- ast.Subscript object at 0x7fb06eae3820 -->
<g id="node8" class="node">
<title>ast.Subscript object at 0x7fb06eae3820</title>
<path fill="#66cdaa" stroke="black" d="M356.5,-180C356.5,-180 312.5,-180 312.5,-180 306.5,-180 300.5,-174 300.5,-168 300.5,-168 300.5,-156 300.5,-156 300.5,-150 306.5,-144 312.5,-144 312.5,-144 356.5,-144 356.5,-144 362.5,-144 368.5,-150 368.5,-156 368.5,-156 368.5,-168 368.5,-168 368.5,-174 362.5,-180 356.5,-180"/>
<text text-anchor="middle" x="334.5" y="-158.3" font-family="Times,serif" font-size="14.00">Subscript</text>
</g>
<!-- ast.Assign object at 0x7fb06eae3490&#45;&gt;ast.Subscript object at 0x7fb06eae3820 -->
<g id="edge7" class="edge">
<title>ast.Assign object at 0x7fb06eae3490&#45;&gt;ast.Subscript object at 0x7fb06eae3820</title>
<path fill="none" stroke="black" d="M304.45,-287.94C307.93,-277.62 312.27,-264.14 315.5,-252 320.96,-231.52 325.91,-208.06 329.39,-190.37"/>
<polygon fill="black" stroke="black" points="332.9,-190.66 331.36,-180.18 326.03,-189.34 332.9,-190.66"/>
</g>
<!-- ast.Store object at 0x7fb086bedfc0 -->
<g id="node7" class="node">
<title>ast.Store object at 0x7fb086bedfc0</title>
<path fill="#66cdaa" stroke="black" d="M270.5,-180C270.5,-180 240.5,-180 240.5,-180 234.5,-180 228.5,-174 228.5,-168 228.5,-168 228.5,-156 228.5,-156 228.5,-150 234.5,-144 240.5,-144 240.5,-144 270.5,-144 270.5,-144 276.5,-144 282.5,-150 282.5,-156 282.5,-156 282.5,-168 282.5,-168 282.5,-174 276.5,-180 270.5,-180"/>
<text text-anchor="middle" x="255.5" y="-158.3" font-family="Times,serif" font-size="14.00">Store</text>
</g>
<!-- ast.Name object at 0x7fb06eae3a30&#45;&gt;ast.Store object at 0x7fb086bedfc0 -->
<g id="edge6" class="edge">
<title>ast.Name object at 0x7fb06eae3a30&#45;&gt;ast.Store object at 0x7fb086bedfc0</title>
<path fill="none" stroke="black" d="M273.57,-215.7C270.89,-207.9 267.67,-198.51 264.7,-189.83"/>
<polygon fill="black" stroke="black" points="267.92,-188.43 261.36,-180.1 261.3,-190.7 267.92,-188.43"/>
</g>
<!-- ast.Name object at 0x7fb06eae3e50 -->
<g id="node9" class="node">
<title>ast.Name object at 0x7fb06eae3e50</title>
<path fill="#66cdaa" stroke="black" d="M306.5,-108C306.5,-108 276.5,-108 276.5,-108 270.5,-108 264.5,-102 264.5,-96 264.5,-96 264.5,-84 264.5,-84 264.5,-78 270.5,-72 276.5,-72 276.5,-72 306.5,-72 306.5,-72 312.5,-72 318.5,-78 318.5,-84 318.5,-84 318.5,-96 318.5,-96 318.5,-102 312.5,-108 306.5,-108"/>
<text text-anchor="middle" x="291.5" y="-86.3" font-family="Times,serif" font-size="14.00">Name</text>
</g>
<!-- ast.Subscript object at 0x7fb06eae3820&#45;&gt;ast.Name object at 0x7fb06eae3e50 -->
<g id="edge8" class="edge">
<title>ast.Subscript object at 0x7fb06eae3820&#45;&gt;ast.Name object at 0x7fb06eae3e50</title>
<path fill="none" stroke="black" d="M323.87,-143.7C318.87,-135.56 312.81,-125.69 307.29,-116.7"/>
<polygon fill="black" stroke="black" points="310.22,-114.79 302.01,-108.1 304.26,-118.46 310.22,-114.79"/>
</g>
<!-- ast.Load object at 0x7fb086bedf60 -->
<g id="node10" class="node">
<title>ast.Load object at 0x7fb086bedf60</title>
<path fill="#66cdaa" stroke="black" d="M426.5,-36C426.5,-36 396.5,-36 396.5,-36 390.5,-36 384.5,-30 384.5,-24 384.5,-24 384.5,-12 384.5,-12 384.5,-6 390.5,0 396.5,0 396.5,0 426.5,0 426.5,0 432.5,0 438.5,-6 438.5,-12 438.5,-12 438.5,-24 438.5,-24 438.5,-30 432.5,-36 426.5,-36"/>
<text text-anchor="middle" x="411.5" y="-14.3" font-family="Times,serif" font-size="14.00">Load</text>
</g>
<!-- ast.Subscript object at 0x7fb06eae3820&#45;&gt;ast.Load object at 0x7fb086bedf60 -->
<g id="edge13" class="edge">
<title>ast.Subscript object at 0x7fb06eae3820&#45;&gt;ast.Load object at 0x7fb086bedf60</title>
<path fill="none" stroke="black" d="M339.83,-143.96C345.94,-125.56 356.88,-95.7 370.5,-72 375.98,-62.47 383,-52.75 389.67,-44.28"/>
<polygon fill="black" stroke="black" points="392.58,-46.26 396.17,-36.29 387.15,-41.84 392.58,-46.26"/>
</g>
<!-- ast.Slice object at 0x7fb06eae3580 -->
<g id="node11" class="node">
<title>ast.Slice object at 0x7fb06eae3580</title>
<path fill="#66cdaa" stroke="black" d="M88.5,-108C88.5,-108 58.5,-108 58.5,-108 52.5,-108 46.5,-102 46.5,-96 46.5,-96 46.5,-84 46.5,-84 46.5,-78 52.5,-72 58.5,-72 58.5,-72 88.5,-72 88.5,-72 94.5,-72 100.5,-78 100.5,-84 100.5,-84 100.5,-96 100.5,-96 100.5,-102 94.5,-108 88.5,-108"/>
<text text-anchor="middle" x="73.5" y="-86.3" font-family="Times,serif" font-size="14.00">Slice</text>
</g>
<!-- ast.Subscript object at 0x7fb06eae3820&#45;&gt;ast.Slice object at 0x7fb06eae3580 -->
<g id="edge10" class="edge">
<title>ast.Subscript object at 0x7fb06eae3820&#45;&gt;ast.Slice object at 0x7fb06eae3580</title>
<path fill="none" stroke="black" d="M300.39,-147.02C297.4,-145.95 294.41,-144.92 291.5,-144 228.95,-124.14 154.3,-107.46 110.58,-98.38"/>
<polygon fill="black" stroke="black" points="111.18,-94.93 100.68,-96.35 109.77,-101.79 111.18,-94.93"/>
</g>
<!-- ast.Name object at 0x7fb06eae3e50&#45;&gt;ast.Load object at 0x7fb086bedf60 -->
<g id="edge9" class="edge">
<title>ast.Name object at 0x7fb06eae3e50&#45;&gt;ast.Load object at 0x7fb086bedf60</title>
<path fill="none" stroke="black" d="M318.73,-73.12C335.61,-63.27 357.47,-50.52 375.74,-39.86"/>
<polygon fill="black" stroke="black" points="377.5,-42.88 384.38,-34.82 373.98,-36.84 377.5,-42.88"/>
</g>
<!-- ast.Constant object at 0x7fb06eae2ef0 -->
<g id="node12" class="node">
<title>ast.Constant object at 0x7fb06eae2ef0</title>
<path fill="#66cdaa" stroke="black" d="M53,-36C53,-36 12,-36 12,-36 6,-36 0,-30 0,-24 0,-24 0,-12 0,-12 0,-6 6,0 12,0 12,0 53,0 53,0 59,0 65,-6 65,-12 65,-12 65,-24 65,-24 65,-30 59,-36 53,-36"/>
<text text-anchor="middle" x="32.5" y="-14.3" font-family="Times,serif" font-size="14.00">Constant</text>
</g>
<!-- ast.Slice object at 0x7fb06eae3580&#45;&gt;ast.Constant object at 0x7fb06eae2ef0 -->
<g id="edge11" class="edge">
<title>ast.Slice object at 0x7fb06eae3580&#45;&gt;ast.Constant object at 0x7fb06eae2ef0</title>
<path fill="none" stroke="black" d="M63.37,-71.7C58.65,-63.64 52.94,-53.89 47.72,-44.98"/>
<polygon fill="black" stroke="black" points="50.59,-42.96 42.52,-36.1 44.55,-46.5 50.59,-42.96"/>
</g>
<!-- ast.Constant object at 0x7fb06eae3760 -->
<g id="node13" class="node">
<title>ast.Constant object at 0x7fb06eae3760</title>
<path fill="#66cdaa" stroke="black" d="M136,-36C136,-36 95,-36 95,-36 89,-36 83,-30 83,-24 83,-24 83,-12 83,-12 83,-6 89,0 95,0 95,0 136,0 136,0 142,0 148,-6 148,-12 148,-12 148,-24 148,-24 148,-30 142,-36 136,-36"/>
<text text-anchor="middle" x="115.5" y="-14.3" font-family="Times,serif" font-size="14.00">Constant</text>
</g>
<!-- ast.Slice object at 0x7fb06eae3580&#45;&gt;ast.Constant object at 0x7fb06eae3760 -->
<g id="edge12" class="edge">
<title>ast.Slice object at 0x7fb06eae3580&#45;&gt;ast.Constant object at 0x7fb06eae3760</title>
<path fill="none" stroke="black" d="M83.88,-71.7C88.76,-63.56 94.69,-53.69 100.08,-44.7"/>
<polygon fill="black" stroke="black" points="103.09,-46.48 105.24,-36.1 97.09,-42.88 103.09,-46.48"/>
</g>
<!-- ast.Name object at 0x7fb06eae3310 -->
<g id="node15" class="node">
<title>ast.Name object at 0x7fb06eae3310</title>
<path fill="#66cdaa" stroke="black" d="M240.5,-396C240.5,-396 210.5,-396 210.5,-396 204.5,-396 198.5,-390 198.5,-384 198.5,-384 198.5,-372 198.5,-372 198.5,-366 204.5,-360 210.5,-360 210.5,-360 240.5,-360 240.5,-360 246.5,-360 252.5,-366 252.5,-372 252.5,-372 252.5,-384 252.5,-384 252.5,-390 246.5,-396 240.5,-396"/>
<text text-anchor="middle" x="225.5" y="-374.3" font-family="Times,serif" font-size="14.00">Name</text>
</g>
<!-- ast.Assign object at 0x7fb06eae1ea0&#45;&gt;ast.Name object at 0x7fb06eae3310 -->
<g id="edge15" class="edge">
<title>ast.Assign object at 0x7fb06eae1ea0&#45;&gt;ast.Name object at 0x7fb06eae3310</title>
<path fill="none" stroke="black" d="M225.5,-431.7C225.5,-423.98 225.5,-414.71 225.5,-406.11"/>
<polygon fill="black" stroke="black" points="229,-406.1 225.5,-396.1 222,-406.1 229,-406.1"/>
</g>
<!-- ast.ListComp object at 0x7fb06eae38b0 -->
<g id="node16" class="node">
<title>ast.ListComp object at 0x7fb06eae38b0</title>
<path fill="#66cdaa" stroke="black" d="M168,-396C168,-396 121,-396 121,-396 115,-396 109,-390 109,-384 109,-384 109,-372 109,-372 109,-366 115,-360 121,-360 121,-360 168,-360 168,-360 174,-360 180,-366 180,-372 180,-372 180,-384 180,-384 180,-390 174,-396 168,-396"/>
<text text-anchor="middle" x="144.5" y="-374.3" font-family="Times,serif" font-size="14.00">ListComp</text>
</g>
<!-- ast.Assign object at 0x7fb06eae1ea0&#45;&gt;ast.ListComp object at 0x7fb06eae38b0 -->
<g id="edge17" class="edge">
<title>ast.Assign object at 0x7fb06eae1ea0&#45;&gt;ast.ListComp object at 0x7fb06eae38b0</title>
<path fill="none" stroke="black" d="M205.48,-431.7C195.37,-422.97 182.96,-412.24 171.98,-402.75"/>
<polygon fill="black" stroke="black" points="174.15,-399.99 164.29,-396.1 169.57,-405.29 174.15,-399.99"/>
</g>
<!-- ast.Name object at 0x7fb06eae3310&#45;&gt;ast.Store object at 0x7fb086bedfc0 -->
<g id="edge16" class="edge">
<title>ast.Name object at 0x7fb06eae3310&#45;&gt;ast.Store object at 0x7fb086bedfc0</title>
<path fill="none" stroke="black" d="M226.77,-359.99C229.12,-330.53 234.71,-268.14 243.5,-216 244.93,-207.5 246.87,-198.31 248.77,-190.01"/>
<polygon fill="black" stroke="black" points="252.23,-190.63 251.12,-180.09 245.41,-189.01 252.23,-190.63"/>
</g>
<!-- ast.Name object at 0x7fb06eae36a0 -->
<g id="node17" class="node">
<title>ast.Name object at 0x7fb06eae36a0</title>
<path fill="#66cdaa" stroke="black" d="M74.5,-252C74.5,-252 44.5,-252 44.5,-252 38.5,-252 32.5,-246 32.5,-240 32.5,-240 32.5,-228 32.5,-228 32.5,-222 38.5,-216 44.5,-216 44.5,-216 74.5,-216 74.5,-216 80.5,-216 86.5,-222 86.5,-228 86.5,-228 86.5,-240 86.5,-240 86.5,-246 80.5,-252 74.5,-252"/>
<text text-anchor="middle" x="59.5" y="-230.3" font-family="Times,serif" font-size="14.00">Name</text>
</g>
<!-- ast.ListComp object at 0x7fb06eae38b0&#45;&gt;ast.Name object at 0x7fb06eae36a0 -->
<g id="edge18" class="edge">
<title>ast.ListComp object at 0x7fb06eae38b0&#45;&gt;ast.Name object at 0x7fb06eae36a0</title>
<path fill="none" stroke="black" d="M119.69,-359.86C107.81,-350.5 94.3,-337.99 85.5,-324 73.62,-305.12 66.98,-280.6 63.39,-262.08"/>
<polygon fill="black" stroke="black" points="66.84,-261.46 61.66,-252.22 59.95,-262.68 66.84,-261.46"/>
</g>
<!-- ast.comprehension object at 0x7fb06eae3cd0 -->
<g id="node18" class="node">
<title>ast.comprehension object at 0x7fb06eae3cd0</title>
<path fill="#66cdaa" stroke="black" d="M182.5,-324C182.5,-324 106.5,-324 106.5,-324 100.5,-324 94.5,-318 94.5,-312 94.5,-312 94.5,-300 94.5,-300 94.5,-294 100.5,-288 106.5,-288 106.5,-288 182.5,-288 182.5,-288 188.5,-288 194.5,-294 194.5,-300 194.5,-300 194.5,-312 194.5,-312 194.5,-318 188.5,-324 182.5,-324"/>
<text text-anchor="middle" x="144.5" y="-302.3" font-family="Times,serif" font-size="14.00">comprehension</text>
</g>
<!-- ast.ListComp object at 0x7fb06eae38b0&#45;&gt;ast.comprehension object at 0x7fb06eae3cd0 -->
<g id="edge20" class="edge">
<title>ast.ListComp object at 0x7fb06eae38b0&#45;&gt;ast.comprehension object at 0x7fb06eae3cd0</title>
<path fill="none" stroke="black" d="M144.5,-359.7C144.5,-351.98 144.5,-342.71 144.5,-334.11"/>
<polygon fill="black" stroke="black" points="148,-334.1 144.5,-324.1 141,-334.1 148,-334.1"/>
</g>
<!-- ast.Name object at 0x7fb06eae36a0&#45;&gt;ast.Load object at 0x7fb086bedf60 -->
<g id="edge19" class="edge">
<title>ast.Name object at 0x7fb06eae36a0&#45;&gt;ast.Load object at 0x7fb086bedf60</title>
<path fill="none" stroke="black" d="M71.36,-215.75C95.01,-182.68 151.38,-110.3 216.5,-72 266.43,-42.63 333.08,-29.1 374.11,-23.19"/>
<polygon fill="black" stroke="black" points="374.77,-26.63 384.21,-21.82 373.83,-19.7 374.77,-26.63"/>
</g>
<!-- ast.Name object at 0x7fb06eae3400 -->
<g id="node19" class="node">
<title>ast.Name object at 0x7fb06eae3400</title>
<path fill="#66cdaa" stroke="black" d="M184.5,-252C184.5,-252 154.5,-252 154.5,-252 148.5,-252 142.5,-246 142.5,-240 142.5,-240 142.5,-228 142.5,-228 142.5,-222 148.5,-216 154.5,-216 154.5,-216 184.5,-216 184.5,-216 190.5,-216 196.5,-222 196.5,-228 196.5,-228 196.5,-240 196.5,-240 196.5,-246 190.5,-252 184.5,-252"/>
<text text-anchor="middle" x="169.5" y="-230.3" font-family="Times,serif" font-size="14.00">Name</text>
</g>
<!-- ast.comprehension object at 0x7fb06eae3cd0&#45;&gt;ast.Name object at 0x7fb06eae3400 -->
<g id="edge21" class="edge">
<title>ast.comprehension object at 0x7fb06eae3cd0&#45;&gt;ast.Name object at 0x7fb06eae3400</title>
<path fill="none" stroke="black" d="M150.68,-287.7C153.5,-279.81 156.89,-270.3 160.02,-261.55"/>
<polygon fill="black" stroke="black" points="163.32,-262.7 163.39,-252.1 156.73,-260.34 163.32,-262.7"/>
</g>
<!-- ast.Name object at 0x7fb06eae35e0 -->
<g id="node20" class="node">
<title>ast.Name object at 0x7fb06eae35e0</title>
<path fill="#66cdaa" stroke="black" d="M198.5,-180C198.5,-180 168.5,-180 168.5,-180 162.5,-180 156.5,-174 156.5,-168 156.5,-168 156.5,-156 156.5,-156 156.5,-150 162.5,-144 168.5,-144 168.5,-144 198.5,-144 198.5,-144 204.5,-144 210.5,-150 210.5,-156 210.5,-156 210.5,-168 210.5,-168 210.5,-174 204.5,-180 198.5,-180"/>
<text text-anchor="middle" x="183.5" y="-158.3" font-family="Times,serif" font-size="14.00">Name</text>
</g>
<!-- ast.comprehension object at 0x7fb06eae3cd0&#45;&gt;ast.Name object at 0x7fb06eae35e0 -->
<g id="edge23" class="edge">
<title>ast.comprehension object at 0x7fb06eae3cd0&#45;&gt;ast.Name object at 0x7fb06eae35e0</title>
<path fill="none" stroke="black" d="M137.61,-287.97C131.24,-269.58 124.07,-239.73 133.5,-216 137.79,-205.2 145.44,-195.32 153.49,-187.1"/>
<polygon fill="black" stroke="black" points="156.08,-189.47 160.9,-180.04 151.25,-184.4 156.08,-189.47"/>
</g>
<!-- ast.Name object at 0x7fb06eae3400&#45;&gt;ast.Store object at 0x7fb086bedfc0 -->
<g id="edge22" class="edge">
<title>ast.Name object at 0x7fb06eae3400&#45;&gt;ast.Store object at 0x7fb086bedfc0</title>
<path fill="none" stroke="black" d="M190.76,-215.7C201.59,-206.88 214.92,-196.03 226.66,-186.47"/>
<polygon fill="black" stroke="black" points="228.94,-189.13 234.49,-180.1 224.52,-183.7 228.94,-189.13"/>
</g>
<!-- ast.Name object at 0x7fb06eae35e0&#45;&gt;ast.Load object at 0x7fb086bedf60 -->
<g id="edge24" class="edge">
<title>ast.Name object at 0x7fb06eae35e0&#45;&gt;ast.Load object at 0x7fb086bedf60</title>
<path fill="none" stroke="black" d="M193.25,-143.81C205.4,-123.85 227.95,-91.22 255.5,-72 291.75,-46.72 341.07,-32.64 374.48,-25.46"/>
<polygon fill="black" stroke="black" points="375.21,-28.89 384.31,-23.45 373.81,-22.03 375.21,-28.89"/>
</g>
<!-- ast.Name object at 0x7fb06eae3190 -->
<g id="node22" class="node">
<title>ast.Name object at 0x7fb06eae3190</title>
<path fill="#66cdaa" stroke="black" d="M387.5,-396C387.5,-396 357.5,-396 357.5,-396 351.5,-396 345.5,-390 345.5,-384 345.5,-384 345.5,-372 345.5,-372 345.5,-366 351.5,-360 357.5,-360 357.5,-360 387.5,-360 387.5,-360 393.5,-360 399.5,-366 399.5,-372 399.5,-372 399.5,-384 399.5,-384 399.5,-390 393.5,-396 387.5,-396"/>
<text text-anchor="middle" x="372.5" y="-374.3" font-family="Times,serif" font-size="14.00">Name</text>
</g>
<!-- ast.Assign object at 0x7fb06eae28f0&#45;&gt;ast.Name object at 0x7fb06eae3190 -->
<g id="edge26" class="edge">
<title>ast.Assign object at 0x7fb06eae28f0&#45;&gt;ast.Name object at 0x7fb06eae3190</title>
<path fill="none" stroke="black" d="M372.5,-431.7C372.5,-423.98 372.5,-414.71 372.5,-406.11"/>
<polygon fill="black" stroke="black" points="376,-406.1 372.5,-396.1 369,-406.1 376,-406.1"/>
</g>
<!-- ast.Call object at 0x7fb06eae3730 -->
<g id="node23" class="node">
<title>ast.Call object at 0x7fb06eae3730</title>
<path fill="#66cdaa" stroke="black" d="M489.5,-396C489.5,-396 459.5,-396 459.5,-396 453.5,-396 447.5,-390 447.5,-384 447.5,-384 447.5,-372 447.5,-372 447.5,-366 453.5,-360 459.5,-360 459.5,-360 489.5,-360 489.5,-360 495.5,-360 501.5,-366 501.5,-372 501.5,-372 501.5,-384 501.5,-384 501.5,-390 495.5,-396 489.5,-396"/>
<text text-anchor="middle" x="474.5" y="-374.3" font-family="Times,serif" font-size="14.00">Call</text>
</g>
<!-- ast.Assign object at 0x7fb06eae28f0&#45;&gt;ast.Call object at 0x7fb06eae3730 -->
<g id="edge28" class="edge">
<title>ast.Assign object at 0x7fb06eae28f0&#45;&gt;ast.Call object at 0x7fb06eae3730</title>
<path fill="none" stroke="black" d="M397.45,-431.88C410.54,-422.89 426.76,-411.76 440.94,-402.03"/>
<polygon fill="black" stroke="black" points="443.19,-404.73 449.45,-396.19 439.23,-398.96 443.19,-404.73"/>
</g>
<!-- ast.Name object at 0x7fb06eae3190&#45;&gt;ast.Store object at 0x7fb086bedfc0 -->
<g id="edge27" class="edge">
<title>ast.Name object at 0x7fb06eae3190&#45;&gt;ast.Store object at 0x7fb086bedfc0</title>
<path fill="none" stroke="black" d="M369.37,-359.73C363.15,-328.76 347.02,-262.69 315.5,-216 308.08,-205 297.84,-194.83 287.93,-186.41"/>
<polygon fill="black" stroke="black" points="290.07,-183.64 280.11,-180.04 285.66,-189.07 290.07,-183.64"/>
</g>
<!-- ast.Name object at 0x7fb06eae3520 -->
<g id="node24" class="node">
<title>ast.Name object at 0x7fb06eae3520</title>
<path fill="#66cdaa" stroke="black" d="M442.5,-324C442.5,-324 412.5,-324 412.5,-324 406.5,-324 400.5,-318 400.5,-312 400.5,-312 400.5,-300 400.5,-300 400.5,-294 406.5,-288 412.5,-288 412.5,-288 442.5,-288 442.5,-288 448.5,-288 454.5,-294 454.5,-300 454.5,-300 454.5,-312 454.5,-312 454.5,-318 448.5,-324 442.5,-324"/>
<text text-anchor="middle" x="427.5" y="-302.3" font-family="Times,serif" font-size="14.00">Name</text>
</g>
<!-- ast.Call object at 0x7fb06eae3730&#45;&gt;ast.Name object at 0x7fb06eae3520 -->
<g id="edge29" class="edge">
<title>ast.Call object at 0x7fb06eae3730&#45;&gt;ast.Name object at 0x7fb06eae3520</title>
<path fill="none" stroke="black" d="M462.88,-359.7C457.36,-351.47 450.65,-341.48 444.57,-332.42"/>
<polygon fill="black" stroke="black" points="447.46,-330.46 438.98,-324.1 441.65,-334.36 447.46,-330.46"/>
</g>
<!-- ast.Name object at 0x7fb06eae3b50 -->
<g id="node25" class="node">
<title>ast.Name object at 0x7fb06eae3b50</title>
<path fill="#66cdaa" stroke="black" d="M634.5,-324C634.5,-324 604.5,-324 604.5,-324 598.5,-324 592.5,-318 592.5,-312 592.5,-312 592.5,-300 592.5,-300 592.5,-294 598.5,-288 604.5,-288 604.5,-288 634.5,-288 634.5,-288 640.5,-288 646.5,-294 646.5,-300 646.5,-300 646.5,-312 646.5,-312 646.5,-318 640.5,-324 634.5,-324"/>
<text text-anchor="middle" x="619.5" y="-302.3" font-family="Times,serif" font-size="14.00">Name</text>
</g>
<!-- ast.Call object at 0x7fb06eae3730&#45;&gt;ast.Name object at 0x7fb06eae3b50 -->
<g id="edge31" class="edge">
<title>ast.Call object at 0x7fb06eae3730&#45;&gt;ast.Name object at 0x7fb06eae3b50</title>
<path fill="none" stroke="black" d="M501.77,-363.83C524.76,-352.74 557.85,-336.76 583.09,-324.58"/>
<polygon fill="black" stroke="black" points="584.87,-327.61 592.35,-320.11 581.82,-321.3 584.87,-327.61"/>
</g>
<!-- ast.keyword object at 0x7fb06eae3280 -->
<g id="node26" class="node">
<title>ast.keyword object at 0x7fb06eae3280</title>
<path fill="#66cdaa" stroke="black" d="M524.5,-324C524.5,-324 484.5,-324 484.5,-324 478.5,-324 472.5,-318 472.5,-312 472.5,-312 472.5,-300 472.5,-300 472.5,-294 478.5,-288 484.5,-288 484.5,-288 524.5,-288 524.5,-288 530.5,-288 536.5,-294 536.5,-300 536.5,-300 536.5,-312 536.5,-312 536.5,-318 530.5,-324 524.5,-324"/>
<text text-anchor="middle" x="504.5" y="-302.3" font-family="Times,serif" font-size="14.00">keyword</text>
</g>
<!-- ast.Call object at 0x7fb06eae3730&#45;&gt;ast.keyword object at 0x7fb06eae3280 -->
<g id="edge33" class="edge">
<title>ast.Call object at 0x7fb06eae3730&#45;&gt;ast.keyword object at 0x7fb06eae3280</title>
<path fill="none" stroke="black" d="M481.92,-359.7C485.29,-351.81 489.37,-342.3 493.12,-333.55"/>
<polygon fill="black" stroke="black" points="496.45,-334.67 497.17,-324.1 490.01,-331.92 496.45,-334.67"/>
</g>
<!-- ast.Name object at 0x7fb06eae3520&#45;&gt;ast.Load object at 0x7fb086bedf60 -->
<g id="edge30" class="edge">
<title>ast.Name object at 0x7fb06eae3520&#45;&gt;ast.Load object at 0x7fb086bedf60</title>
<path fill="none" stroke="black" d="M423.62,-287.78C415.4,-249.21 397.43,-152.9 403.5,-72 404.14,-63.52 405.34,-54.34 406.62,-46.04"/>
<polygon fill="black" stroke="black" points="410.08,-46.55 408.25,-36.11 403.18,-45.41 410.08,-46.55"/>
</g>
<!-- ast.Name object at 0x7fb06eae3b50&#45;&gt;ast.Load object at 0x7fb086bedf60 -->
<g id="edge32" class="edge">
<title>ast.Name object at 0x7fb06eae3b50&#45;&gt;ast.Load object at 0x7fb086bedf60</title>
<path fill="none" stroke="black" d="M625.87,-287.82C640.22,-245.89 670.01,-137 619.5,-72 598.76,-45.31 502.97,-29.83 448.91,-23.08"/>
<polygon fill="black" stroke="black" points="449.03,-19.57 438.68,-21.84 448.19,-26.52 449.03,-19.57"/>
</g>
<!-- ast.Lambda object at 0x7fb06eae3af0 -->
<g id="node27" class="node">
<title>ast.Lambda object at 0x7fb06eae3af0</title>
<path fill="#66cdaa" stroke="black" d="M523.5,-252C523.5,-252 485.5,-252 485.5,-252 479.5,-252 473.5,-246 473.5,-240 473.5,-240 473.5,-228 473.5,-228 473.5,-222 479.5,-216 485.5,-216 485.5,-216 523.5,-216 523.5,-216 529.5,-216 535.5,-222 535.5,-228 535.5,-228 535.5,-240 535.5,-240 535.5,-246 529.5,-252 523.5,-252"/>
<text text-anchor="middle" x="504.5" y="-230.3" font-family="Times,serif" font-size="14.00">Lambda</text>
</g>
<!-- ast.keyword object at 0x7fb06eae3280&#45;&gt;ast.Lambda object at 0x7fb06eae3af0 -->
<g id="edge34" class="edge">
<title>ast.keyword object at 0x7fb06eae3280&#45;&gt;ast.Lambda object at 0x7fb06eae3af0</title>
<path fill="none" stroke="black" d="M504.5,-287.7C504.5,-279.98 504.5,-270.71 504.5,-262.11"/>
<polygon fill="black" stroke="black" points="508,-262.1 504.5,-252.1 501,-262.1 508,-262.1"/>
</g>
<!-- ast.arguments object at 0x7fb06eae3460 -->
<g id="node28" class="node">
<title>ast.arguments object at 0x7fb06eae3460</title>
<path fill="#66cdaa" stroke="black" d="M598.5,-180C598.5,-180 548.5,-180 548.5,-180 542.5,-180 536.5,-174 536.5,-168 536.5,-168 536.5,-156 536.5,-156 536.5,-150 542.5,-144 548.5,-144 548.5,-144 598.5,-144 598.5,-144 604.5,-144 610.5,-150 610.5,-156 610.5,-156 610.5,-168 610.5,-168 610.5,-174 604.5,-180 598.5,-180"/>
<text text-anchor="middle" x="573.5" y="-158.3" font-family="Times,serif" font-size="14.00">arguments</text>
</g>
<!-- ast.Lambda object at 0x7fb06eae3af0&#45;&gt;ast.arguments object at 0x7fb06eae3460 -->
<g id="edge35" class="edge">
<title>ast.Lambda object at 0x7fb06eae3af0&#45;&gt;ast.arguments object at 0x7fb06eae3460</title>
<path fill="none" stroke="black" d="M521.56,-215.7C530,-207.14 540.32,-196.66 549.54,-187.3"/>
<polygon fill="black" stroke="black" points="552.11,-189.68 556.64,-180.1 547.13,-184.77 552.11,-189.68"/>
</g>
<!-- ast.Call object at 0x7fb06eae3010 -->
<g id="node30" class="node">
<title>ast.Call object at 0x7fb06eae3010</title>
<path fill="#66cdaa" stroke="black" d="M506.5,-180C506.5,-180 476.5,-180 476.5,-180 470.5,-180 464.5,-174 464.5,-168 464.5,-168 464.5,-156 464.5,-156 464.5,-150 470.5,-144 476.5,-144 476.5,-144 506.5,-144 506.5,-144 512.5,-144 518.5,-150 518.5,-156 518.5,-156 518.5,-168 518.5,-168 518.5,-174 512.5,-180 506.5,-180"/>
<text text-anchor="middle" x="491.5" y="-158.3" font-family="Times,serif" font-size="14.00">Call</text>
</g>
<!-- ast.Lambda object at 0x7fb06eae3af0&#45;&gt;ast.Call object at 0x7fb06eae3010 -->
<g id="edge37" class="edge">
<title>ast.Lambda object at 0x7fb06eae3af0&#45;&gt;ast.Call object at 0x7fb06eae3010</title>
<path fill="none" stroke="black" d="M501.29,-215.7C499.85,-207.98 498.13,-198.71 496.54,-190.11"/>
<polygon fill="black" stroke="black" points="499.94,-189.3 494.68,-180.1 493.06,-190.58 499.94,-189.3"/>
</g>
<!-- ast.arg object at 0x7fb06eae2770 -->
<g id="node29" class="node">
<title>ast.arg object at 0x7fb06eae2770</title>
<path fill="#66cdaa" stroke="black" d="M598.5,-108C598.5,-108 568.5,-108 568.5,-108 562.5,-108 556.5,-102 556.5,-96 556.5,-96 556.5,-84 556.5,-84 556.5,-78 562.5,-72 568.5,-72 568.5,-72 598.5,-72 598.5,-72 604.5,-72 610.5,-78 610.5,-84 610.5,-84 610.5,-96 610.5,-96 610.5,-102 604.5,-108 598.5,-108"/>
<text text-anchor="middle" x="583.5" y="-86.3" font-family="Times,serif" font-size="14.00">arg</text>
</g>
<!-- ast.arguments object at 0x7fb06eae3460&#45;&gt;ast.arg object at 0x7fb06eae2770 -->
<g id="edge36" class="edge">
<title>ast.arguments object at 0x7fb06eae3460&#45;&gt;ast.arg object at 0x7fb06eae2770</title>
<path fill="none" stroke="black" d="M575.97,-143.7C577.07,-135.98 578.4,-126.71 579.63,-118.11"/>
<polygon fill="black" stroke="black" points="583.11,-118.5 581.06,-108.1 576.18,-117.51 583.11,-118.5"/>
</g>
<!-- ast.Name object at 0x7fb06eae35b0 -->
<g id="node31" class="node">
<title>ast.Name object at 0x7fb06eae35b0</title>
<path fill="#66cdaa" stroke="black" d="M454.5,-108C454.5,-108 424.5,-108 424.5,-108 418.5,-108 412.5,-102 412.5,-96 412.5,-96 412.5,-84 412.5,-84 412.5,-78 418.5,-72 424.5,-72 424.5,-72 454.5,-72 454.5,-72 460.5,-72 466.5,-78 466.5,-84 466.5,-84 466.5,-96 466.5,-96 466.5,-102 460.5,-108 454.5,-108"/>
<text text-anchor="middle" x="439.5" y="-86.3" font-family="Times,serif" font-size="14.00">Name</text>
</g>
<!-- ast.Call object at 0x7fb06eae3010&#45;&gt;ast.Name object at 0x7fb06eae35b0 -->
<g id="edge38" class="edge">
<title>ast.Call object at 0x7fb06eae3010&#45;&gt;ast.Name object at 0x7fb06eae35b0</title>
<path fill="none" stroke="black" d="M478.65,-143.7C472.47,-135.39 464.96,-125.28 458.18,-116.14"/>
<polygon fill="black" stroke="black" points="460.98,-114.04 452.21,-108.1 455.36,-118.22 460.98,-114.04"/>
</g>
<!-- ast.Name object at 0x7fb06eae33a0 -->
<g id="node32" class="node">
<title>ast.Name object at 0x7fb06eae33a0</title>
<path fill="#66cdaa" stroke="black" d="M526.5,-108C526.5,-108 496.5,-108 496.5,-108 490.5,-108 484.5,-102 484.5,-96 484.5,-96 484.5,-84 484.5,-84 484.5,-78 490.5,-72 496.5,-72 496.5,-72 526.5,-72 526.5,-72 532.5,-72 538.5,-78 538.5,-84 538.5,-84 538.5,-96 538.5,-96 538.5,-102 532.5,-108 526.5,-108"/>
<text text-anchor="middle" x="511.5" y="-86.3" font-family="Times,serif" font-size="14.00">Name</text>
</g>
<!-- ast.Call object at 0x7fb06eae3010&#45;&gt;ast.Name object at 0x7fb06eae33a0 -->
<g id="edge40" class="edge">
<title>ast.Call object at 0x7fb06eae3010&#45;&gt;ast.Name object at 0x7fb06eae33a0</title>
<path fill="none" stroke="black" d="M496.44,-143.7C498.67,-135.9 501.35,-126.51 503.83,-117.83"/>
<polygon fill="black" stroke="black" points="507.23,-118.68 506.61,-108.1 500.5,-116.76 507.23,-118.68"/>
</g>
<!-- ast.Name object at 0x7fb06eae35b0&#45;&gt;ast.Load object at 0x7fb086bedf60 -->
<g id="edge39" class="edge">
<title>ast.Name object at 0x7fb06eae35b0&#45;&gt;ast.Load object at 0x7fb086bedf60</title>
<path fill="none" stroke="black" d="M432.58,-71.7C429.43,-63.81 425.62,-54.3 422.12,-45.55"/>
<polygon fill="black" stroke="black" points="425.31,-44.09 418.34,-36.1 418.81,-46.69 425.31,-44.09"/>
</g>
<!-- ast.Name object at 0x7fb06eae33a0&#45;&gt;ast.Load object at 0x7fb086bedf60 -->
<g id="edge41" class="edge">
<title>ast.Name object at 0x7fb06eae33a0&#45;&gt;ast.Load object at 0x7fb086bedf60</title>
<path fill="none" stroke="black" d="M487.04,-71.88C474.2,-62.89 458.3,-51.76 444.41,-42.03"/>
<polygon fill="black" stroke="black" points="446.26,-39.06 436.06,-36.19 442.24,-44.79 446.26,-39.06"/>
</g>
<!-- ast.Subscript object at 0x7fb06eae3850 -->
<g id="node34" class="node">
<title>ast.Subscript object at 0x7fb06eae3850</title>
<path fill="#66cdaa" stroke="black" d="M746.5,-180C746.5,-180 702.5,-180 702.5,-180 696.5,-180 690.5,-174 690.5,-168 690.5,-168 690.5,-156 690.5,-156 690.5,-150 696.5,-144 702.5,-144 702.5,-144 746.5,-144 746.5,-144 752.5,-144 758.5,-150 758.5,-156 758.5,-156 758.5,-168 758.5,-168 758.5,-174 752.5,-180 746.5,-180"/>
<text text-anchor="middle" x="724.5" y="-158.3" font-family="Times,serif" font-size="14.00">Subscript</text>
</g>
<!-- ast.Return object at 0x7fb06eae39d0&#45;&gt;ast.Subscript object at 0x7fb06eae3850 -->
<g id="edge43" class="edge">
<title>ast.Return object at 0x7fb06eae39d0&#45;&gt;ast.Subscript object at 0x7fb06eae3850</title>
<path fill="none" stroke="black" d="M575.8,-431.76C595.91,-408.5 631.49,-365.22 655.5,-324 681.6,-279.18 703.55,-222.63 715.29,-189.86"/>
<polygon fill="black" stroke="black" points="718.71,-190.7 718.74,-180.11 712.11,-188.37 718.71,-190.7"/>
</g>
<!-- ast.Subscript object at 0x7fb06eae3850&#45;&gt;ast.Load object at 0x7fb086bedf60 -->
<g id="edge47" class="edge">
<title>ast.Subscript object at 0x7fb06eae3850&#45;&gt;ast.Load object at 0x7fb086bedf60</title>
<path fill="none" stroke="black" d="M731.82,-143.71C738.9,-123.97 746.31,-91.84 729.5,-72 693.87,-29.94 524.79,-21.23 448.73,-19.45"/>
<polygon fill="black" stroke="black" points="448.7,-15.94 438.63,-19.24 448.56,-22.94 448.7,-15.94"/>
</g>
<!-- ast.Name object at 0x7fb06eae2f80 -->
<g id="node35" class="node">
<title>ast.Name object at 0x7fb06eae2f80</title>
<path fill="#66cdaa" stroke="black" d="M708.5,-108C708.5,-108 678.5,-108 678.5,-108 672.5,-108 666.5,-102 666.5,-96 666.5,-96 666.5,-84 666.5,-84 666.5,-78 672.5,-72 678.5,-72 678.5,-72 708.5,-72 708.5,-72 714.5,-72 720.5,-78 720.5,-84 720.5,-84 720.5,-96 720.5,-96 720.5,-102 714.5,-108 708.5,-108"/>
<text text-anchor="middle" x="693.5" y="-86.3" font-family="Times,serif" font-size="14.00">Name</text>
</g>
<!-- ast.Subscript object at 0x7fb06eae3850&#45;&gt;ast.Name object at 0x7fb06eae2f80 -->
<g id="edge44" class="edge">
<title>ast.Subscript object at 0x7fb06eae3850&#45;&gt;ast.Name object at 0x7fb06eae2f80</title>
<path fill="none" stroke="black" d="M716.84,-143.7C713.31,-135.73 709.04,-126.1 705.13,-117.26"/>
<polygon fill="black" stroke="black" points="708.32,-115.83 701.07,-108.1 701.92,-118.67 708.32,-115.83"/>
</g>
<!-- ast.Constant object at 0x7fb06eae3c40 -->
<g id="node36" class="node">
<title>ast.Constant object at 0x7fb06eae3c40</title>
<path fill="#66cdaa" stroke="black" d="M830,-108C830,-108 789,-108 789,-108 783,-108 777,-102 777,-96 777,-96 777,-84 777,-84 777,-78 783,-72 789,-72 789,-72 830,-72 830,-72 836,-72 842,-78 842,-84 842,-84 842,-96 842,-96 842,-102 836,-108 830,-108"/>
<text text-anchor="middle" x="809.5" y="-86.3" font-family="Times,serif" font-size="14.00">Constant</text>
</g>
<!-- ast.Subscript object at 0x7fb06eae3850&#45;&gt;ast.Constant object at 0x7fb06eae3c40 -->
<g id="edge46" class="edge">
<title>ast.Subscript object at 0x7fb06eae3850&#45;&gt;ast.Constant object at 0x7fb06eae3c40</title>
<path fill="none" stroke="black" d="M745.51,-143.7C756.22,-134.88 769.39,-124.03 781,-114.47"/>
<polygon fill="black" stroke="black" points="783.24,-117.16 788.73,-108.1 778.79,-111.76 783.24,-117.16"/>
</g>
<!-- ast.Name object at 0x7fb06eae2f80&#45;&gt;ast.Load object at 0x7fb086bedf60 -->
<g id="edge45" class="edge">
<title>ast.Name object at 0x7fb06eae2f80&#45;&gt;ast.Load object at 0x7fb086bedf60</title>
<path fill="none" stroke="black" d="M666.4,-76.98C661.81,-75.17 657.06,-73.43 652.5,-72 581.69,-49.72 496.32,-33.32 448.54,-25.05"/>
<polygon fill="black" stroke="black" points="449.1,-21.59 438.65,-23.36 447.92,-28.49 449.1,-21.59"/>
</g>
</g>
</svg>
