<?xml version="1.0" encoding="UTF-8" standalone="no"?>
<!DOCTYPE svg PUBLIC "-//W3C//DTD SVG 1.1//EN"
 "http://www.w3.org/Graphics/SVG/1.1/DTD/svg11.dtd">
<!-- Generated by graphviz version 2.43.0 (0)
 -->
<!-- Title: %3 Pages: 1 -->
<svg width="748pt" height="692pt"
 viewBox="0.00 0.00 747.50 692.00" xmlns="http://www.w3.org/2000/svg" xmlns:xlink="http://www.w3.org/1999/xlink">
<g id="graph0" class="graph" transform="scale(1 1) rotate(0) translate(4 688)">
<title>%3</title>
<polygon fill="white" stroke="transparent" points="-4,4 -4,-688 743.5,-688 743.5,4 -4,4"/>
<!-- ast.Module object at 0x7fa1a1f6a650 -->
<g id="node1" class="node">
<title>ast.Module object at 0x7fa1a1f6a650</title>
<path fill="#66cdaa" stroke="black" d="M95.5,-684C95.5,-684 60.5,-684 60.5,-684 54.5,-684 48.5,-678 48.5,-672 48.5,-672 48.5,-660 48.5,-660 48.5,-654 54.5,-648 60.5,-648 60.5,-648 95.5,-648 95.5,-648 101.5,-648 107.5,-654 107.5,-660 107.5,-660 107.5,-672 107.5,-672 107.5,-678 101.5,-684 95.5,-684"/>
<text text-anchor="middle" x="78" y="-662.3" font-family="Times,serif" font-size="14.00">Module</text>
</g>
<!-- ast.FunctionDef object at 0x7fa1a1f68460 -->
<g id="node2" class="node">
<title>ast.FunctionDef object at 0x7fa1a1f68460</title>
<path fill="#66cdaa" stroke="black" d="M108.5,-612C108.5,-612 47.5,-612 47.5,-612 41.5,-612 35.5,-606 35.5,-600 35.5,-600 35.5,-588 35.5,-588 35.5,-582 41.5,-576 47.5,-576 47.5,-576 108.5,-576 108.5,-576 114.5,-576 120.5,-582 120.5,-588 120.5,-588 120.5,-600 120.5,-600 120.5,-606 114.5,-612 108.5,-612"/>
<text text-anchor="middle" x="78" y="-590.3" font-family="Times,serif" font-size="14.00">FunctionDef</text>
</g>
<!-- ast.Module object at 0x7fa1a1f6a650&#45;&gt;ast.FunctionDef object at 0x7fa1a1f68460 -->
<g id="edge1" class="edge">
<title>ast.Module object at 0x7fa1a1f6a650&#45;&gt;ast.FunctionDef object at 0x7fa1a1f68460</title>
<path fill="none" stroke="black" d="M78,-647.7C78,-639.98 78,-630.71 78,-622.11"/>
<polygon fill="black" stroke="black" points="81.5,-622.1 78,-612.1 74.5,-622.1 81.5,-622.1"/>
</g>
<!-- ast.arguments object at 0x7fa1a1f69ea0 -->
<g id="node3" class="node">
<title>ast.arguments object at 0x7fa1a1f69ea0</title>
<path fill="#66cdaa" stroke="black" d="M62,-540C62,-540 12,-540 12,-540 6,-540 0,-534 0,-528 0,-528 0,-516 0,-516 0,-510 6,-504 12,-504 12,-504 62,-504 62,-504 68,-504 74,-510 74,-516 74,-516 74,-528 74,-528 74,-534 68,-540 62,-540"/>
<text text-anchor="middle" x="37" y="-518.3" font-family="Times,serif" font-size="14.00">arguments</text>
</g>
<!-- ast.FunctionDef object at 0x7fa1a1f68460&#45;&gt;ast.arguments object at 0x7fa1a1f69ea0 -->
<g id="edge2" class="edge">
<title>ast.FunctionDef object at 0x7fa1a1f68460&#45;&gt;ast.arguments object at 0x7fa1a1f69ea0</title>
<path fill="none" stroke="black" d="M67.87,-575.7C63.15,-567.64 57.44,-557.89 52.22,-548.98"/>
<polygon fill="black" stroke="black" points="55.09,-546.96 47.02,-540.1 49.05,-550.5 55.09,-546.96"/>
</g>
<!-- ast.Return object at 0x7fa1a1f6b040 -->
<g id="node5" class="node">
<title>ast.Return object at 0x7fa1a1f6b040</title>
<path fill="#66cdaa" stroke="black" d="M134,-540C134,-540 104,-540 104,-540 98,-540 92,-534 92,-528 92,-528 92,-516 92,-516 92,-510 98,-504 104,-504 104,-504 134,-504 134,-504 140,-504 146,-510 146,-516 146,-516 146,-528 146,-528 146,-534 140,-540 134,-540"/>
<text text-anchor="middle" x="119" y="-518.3" font-family="Times,serif" font-size="14.00">Return</text>
</g>
<!-- ast.FunctionDef object at 0x7fa1a1f68460&#45;&gt;ast.Return object at 0x7fa1a1f6b040 -->
<g id="edge4" class="edge">
<title>ast.FunctionDef object at 0x7fa1a1f68460&#45;&gt;ast.Return object at 0x7fa1a1f6b040</title>
<path fill="none" stroke="black" d="M88.13,-575.7C92.85,-567.64 98.56,-557.89 103.78,-548.98"/>
<polygon fill="black" stroke="black" points="106.95,-550.5 108.98,-540.1 100.91,-546.96 106.95,-550.5"/>
</g>
<!-- ast.arg object at 0x7fa1a1f69360 -->
<g id="node4" class="node">
<title>ast.arg object at 0x7fa1a1f69360</title>
<path fill="#66cdaa" stroke="black" d="M52,-468C52,-468 22,-468 22,-468 16,-468 10,-462 10,-456 10,-456 10,-444 10,-444 10,-438 16,-432 22,-432 22,-432 52,-432 52,-432 58,-432 64,-438 64,-444 64,-444 64,-456 64,-456 64,-462 58,-468 52,-468"/>
<text text-anchor="middle" x="37" y="-446.3" font-family="Times,serif" font-size="14.00">arg</text>
</g>
<!-- ast.arguments object at 0x7fa1a1f69ea0&#45;&gt;ast.arg object at 0x7fa1a1f69360 -->
<g id="edge3" class="edge">
<title>ast.arguments object at 0x7fa1a1f69ea0&#45;&gt;ast.arg object at 0x7fa1a1f69360</title>
<path fill="none" stroke="black" d="M37,-503.7C37,-495.98 37,-486.71 37,-478.11"/>
<polygon fill="black" stroke="black" points="40.5,-478.1 37,-468.1 33.5,-478.1 40.5,-478.1"/>
</g>
<!-- ast.ListComp object at 0x7fa1a280b580 -->
<g id="node6" class="node">
<title>ast.ListComp object at 0x7fa1a280b580</title>
<path fill="#66cdaa" stroke="black" d="M142.5,-468C142.5,-468 95.5,-468 95.5,-468 89.5,-468 83.5,-462 83.5,-456 83.5,-456 83.5,-444 83.5,-444 83.5,-438 89.5,-432 95.5,-432 95.5,-432 142.5,-432 142.5,-432 148.5,-432 154.5,-438 154.5,-444 154.5,-444 154.5,-456 154.5,-456 154.5,-462 148.5,-468 142.5,-468"/>
<text text-anchor="middle" x="119" y="-446.3" font-family="Times,serif" font-size="14.00">ListComp</text>
</g>
<!-- ast.Return object at 0x7fa1a1f6b040&#45;&gt;ast.ListComp object at 0x7fa1a280b580 -->
<g id="edge5" class="edge">
<title>ast.Return object at 0x7fa1a1f6b040&#45;&gt;ast.ListComp object at 0x7fa1a280b580</title>
<path fill="none" stroke="black" d="M119,-503.7C119,-495.98 119,-486.71 119,-478.11"/>
<polygon fill="black" stroke="black" points="122.5,-478.1 119,-468.1 115.5,-478.1 122.5,-478.1"/>
</g>
<!-- ast.Name object at 0x7fa1a2809d50 -->
<g id="node7" class="node">
<title>ast.Name object at 0x7fa1a2809d50</title>
<path fill="#66cdaa" stroke="black" d="M81,-396C81,-396 51,-396 51,-396 45,-396 39,-390 39,-384 39,-384 39,-372 39,-372 39,-366 45,-360 51,-360 51,-360 81,-360 81,-360 87,-360 93,-366 93,-372 93,-372 93,-384 93,-384 93,-390 87,-396 81,-396"/>
<text text-anchor="middle" x="66" y="-374.3" font-family="Times,serif" font-size="14.00">Name</text>
</g>
<!-- ast.ListComp object at 0x7fa1a280b580&#45;&gt;ast.Name object at 0x7fa1a2809d50 -->
<g id="edge6" class="edge">
<title>ast.ListComp object at 0x7fa1a280b580&#45;&gt;ast.Name object at 0x7fa1a2809d50</title>
<path fill="none" stroke="black" d="M105.9,-431.7C99.61,-423.39 91.95,-413.28 85.04,-404.14"/>
<polygon fill="black" stroke="black" points="87.78,-401.96 78.95,-396.1 82.2,-406.19 87.78,-401.96"/>
</g>
<!-- ast.comprehension object at 0x7fa1a2809660 -->
<g id="node9" class="node">
<title>ast.comprehension object at 0x7fa1a2809660</title>
<path fill="#66cdaa" stroke="black" d="M209,-396C209,-396 133,-396 133,-396 127,-396 121,-390 121,-384 121,-384 121,-372 121,-372 121,-366 127,-360 133,-360 133,-360 209,-360 209,-360 215,-360 221,-366 221,-372 221,-372 221,-384 221,-384 221,-390 215,-396 209,-396"/>
<text text-anchor="middle" x="171" y="-374.3" font-family="Times,serif" font-size="14.00">comprehension</text>
</g>
<!-- ast.ListComp object at 0x7fa1a280b580&#45;&gt;ast.comprehension object at 0x7fa1a2809660 -->
<g id="edge8" class="edge">
<title>ast.ListComp object at 0x7fa1a280b580&#45;&gt;ast.comprehension object at 0x7fa1a2809660</title>
<path fill="none" stroke="black" d="M131.85,-431.7C138.03,-423.39 145.54,-413.28 152.32,-404.14"/>
<polygon fill="black" stroke="black" points="155.14,-406.22 158.29,-396.1 149.52,-402.04 155.14,-406.22"/>
</g>
<!-- ast.Load object at 0x7fa1ec8f1f60 -->
<g id="node8" class="node">
<title>ast.Load object at 0x7fa1ec8f1f60</title>
<path fill="#66cdaa" stroke="black" d="M417,-108C417,-108 387,-108 387,-108 381,-108 375,-102 375,-96 375,-96 375,-84 375,-84 375,-78 381,-72 387,-72 387,-72 417,-72 417,-72 423,-72 429,-78 429,-84 429,-84 429,-96 429,-96 429,-102 423,-108 417,-108"/>
<text text-anchor="middle" x="402" y="-86.3" font-family="Times,serif" font-size="14.00">Load</text>
</g>
<!-- ast.Name object at 0x7fa1a2809d50&#45;&gt;ast.Load object at 0x7fa1ec8f1f60 -->
<g id="edge7" class="edge">
<title>ast.Name object at 0x7fa1a2809d50&#45;&gt;ast.Load object at 0x7fa1ec8f1f60</title>
<path fill="none" stroke="black" d="M61.85,-359.72C55.42,-329.3 45.78,-264.81 66,-216 83.32,-174.19 98.11,-165.37 138,-144 211.79,-104.47 311.51,-94.31 364.79,-91.77"/>
<polygon fill="black" stroke="black" points="364.96,-95.27 374.81,-91.36 364.67,-88.28 364.96,-95.27"/>
</g>
<!-- ast.Name object at 0x7fa1a280ae90 -->
<g id="node10" class="node">
<title>ast.Name object at 0x7fa1a280ae90</title>
<path fill="#66cdaa" stroke="black" d="M151,-324C151,-324 121,-324 121,-324 115,-324 109,-318 109,-312 109,-312 109,-300 109,-300 109,-294 115,-288 121,-288 121,-288 151,-288 151,-288 157,-288 163,-294 163,-300 163,-300 163,-312 163,-312 163,-318 157,-324 151,-324"/>
<text text-anchor="middle" x="136" y="-302.3" font-family="Times,serif" font-size="14.00">Name</text>
</g>
<!-- ast.comprehension object at 0x7fa1a2809660&#45;&gt;ast.Name object at 0x7fa1a280ae90 -->
<g id="edge9" class="edge">
<title>ast.comprehension object at 0x7fa1a2809660&#45;&gt;ast.Name object at 0x7fa1a280ae90</title>
<path fill="none" stroke="black" d="M162.35,-359.7C158.36,-351.73 153.55,-342.1 149.13,-333.26"/>
<polygon fill="black" stroke="black" points="152.15,-331.48 144.55,-324.1 145.89,-334.61 152.15,-331.48"/>
</g>
<!-- ast.Subscript object at 0x7fa1a2808610 -->
<g id="node12" class="node">
<title>ast.Subscript object at 0x7fa1a2808610</title>
<path fill="#66cdaa" stroke="black" d="M590,-252C590,-252 546,-252 546,-252 540,-252 534,-246 534,-240 534,-240 534,-228 534,-228 534,-222 540,-216 546,-216 546,-216 590,-216 590,-216 596,-216 602,-222 602,-228 602,-228 602,-240 602,-240 602,-246 596,-252 590,-252"/>
<text text-anchor="middle" x="568" y="-230.3" font-family="Times,serif" font-size="14.00">Subscript</text>
</g>
<!-- ast.comprehension object at 0x7fa1a2809660&#45;&gt;ast.Subscript object at 0x7fa1a2808610 -->
<g id="edge11" class="edge">
<title>ast.comprehension object at 0x7fa1a2809660&#45;&gt;ast.Subscript object at 0x7fa1a2808610</title>
<path fill="none" stroke="black" d="M218.89,-359.87C296.65,-332.06 449.23,-277.48 524.24,-250.65"/>
<polygon fill="black" stroke="black" points="525.63,-253.87 533.86,-247.21 523.27,-247.28 525.63,-253.87"/>
</g>
<!-- ast.Compare object at 0x7fa1ac8adb40 -->
<g id="node20" class="node">
<title>ast.Compare object at 0x7fa1ac8adb40</title>
<path fill="#66cdaa" stroke="black" d="M254.5,-324C254.5,-324 211.5,-324 211.5,-324 205.5,-324 199.5,-318 199.5,-312 199.5,-312 199.5,-300 199.5,-300 199.5,-294 205.5,-288 211.5,-288 211.5,-288 254.5,-288 254.5,-288 260.5,-288 266.5,-294 266.5,-300 266.5,-300 266.5,-312 266.5,-312 266.5,-318 260.5,-324 254.5,-324"/>
<text text-anchor="middle" x="233" y="-302.3" font-family="Times,serif" font-size="14.00">Compare</text>
</g>
<!-- ast.comprehension object at 0x7fa1a2809660&#45;&gt;ast.Compare object at 0x7fa1ac8adb40 -->
<g id="edge21" class="edge">
<title>ast.comprehension object at 0x7fa1a2809660&#45;&gt;ast.Compare object at 0x7fa1ac8adb40</title>
<path fill="none" stroke="black" d="M186.33,-359.7C193.76,-351.3 202.82,-341.07 210.98,-331.86"/>
<polygon fill="black" stroke="black" points="213.84,-333.91 217.85,-324.1 208.6,-329.27 213.84,-333.91"/>
</g>
<!-- ast.Store object at 0x7fa1ec8f1fc0 -->
<g id="node11" class="node">
<title>ast.Store object at 0x7fa1ec8f1fc0</title>
<path fill="#66cdaa" stroke="black" d="M117,-252C117,-252 87,-252 87,-252 81,-252 75,-246 75,-240 75,-240 75,-228 75,-228 75,-222 81,-216 87,-216 87,-216 117,-216 117,-216 123,-216 129,-222 129,-228 129,-228 129,-240 129,-240 129,-246 123,-252 117,-252"/>
<text text-anchor="middle" x="102" y="-230.3" font-family="Times,serif" font-size="14.00">Store</text>
</g>
<!-- ast.Name object at 0x7fa1a280ae90&#45;&gt;ast.Store object at 0x7fa1ec8f1fc0 -->
<g id="edge10" class="edge">
<title>ast.Name object at 0x7fa1a280ae90&#45;&gt;ast.Store object at 0x7fa1ec8f1fc0</title>
<path fill="none" stroke="black" d="M127.6,-287.7C123.73,-279.73 119.05,-270.1 114.76,-261.26"/>
<polygon fill="black" stroke="black" points="117.83,-259.57 110.31,-252.1 111.53,-262.63 117.83,-259.57"/>
</g>
<!-- ast.Subscript object at 0x7fa1a2808610&#45;&gt;ast.Load object at 0x7fa1ec8f1f60 -->
<g id="edge20" class="edge">
<title>ast.Subscript object at 0x7fa1a2808610&#45;&gt;ast.Load object at 0x7fa1ec8f1f60</title>
<path fill="none" stroke="black" d="M562.76,-215.79C555.98,-196.11 542.44,-164.05 521,-144 497.96,-122.45 464.7,-108.65 439.2,-100.55"/>
<polygon fill="black" stroke="black" points="440.08,-97.16 429.49,-97.62 438.05,-103.86 440.08,-97.16"/>
</g>
<!-- ast.Name object at 0x7fa1ac344a30 -->
<g id="node13" class="node">
<title>ast.Name object at 0x7fa1ac344a30</title>
<path fill="#66cdaa" stroke="black" d="M611,-180C611,-180 581,-180 581,-180 575,-180 569,-174 569,-168 569,-168 569,-156 569,-156 569,-150 575,-144 581,-144 581,-144 611,-144 611,-144 617,-144 623,-150 623,-156 623,-156 623,-168 623,-168 623,-174 617,-180 611,-180"/>
<text text-anchor="middle" x="596" y="-158.3" font-family="Times,serif" font-size="14.00">Name</text>
</g>
<!-- ast.Subscript object at 0x7fa1a2808610&#45;&gt;ast.Name object at 0x7fa1ac344a30 -->
<g id="edge12" class="edge">
<title>ast.Subscript object at 0x7fa1a2808610&#45;&gt;ast.Name object at 0x7fa1ac344a30</title>
<path fill="none" stroke="black" d="M574.92,-215.7C578.07,-207.81 581.88,-198.3 585.38,-189.55"/>
<polygon fill="black" stroke="black" points="588.69,-190.69 589.16,-180.1 582.19,-188.09 588.69,-190.69"/>
</g>
<!-- ast.Slice object at 0x7fa1ac347d60 -->
<g id="node14" class="node">
<title>ast.Slice object at 0x7fa1ac347d60</title>
<path fill="#66cdaa" stroke="black" d="M683,-180C683,-180 653,-180 653,-180 647,-180 641,-174 641,-168 641,-168 641,-156 641,-156 641,-150 647,-144 653,-144 653,-144 683,-144 683,-144 689,-144 695,-150 695,-156 695,-156 695,-168 695,-168 695,-174 689,-180 683,-180"/>
<text text-anchor="middle" x="668" y="-158.3" font-family="Times,serif" font-size="14.00">Slice</text>
</g>
<!-- ast.Subscript object at 0x7fa1a2808610&#45;&gt;ast.Slice object at 0x7fa1ac347d60 -->
<g id="edge14" class="edge">
<title>ast.Subscript object at 0x7fa1a2808610&#45;&gt;ast.Slice object at 0x7fa1ac347d60</title>
<path fill="none" stroke="black" d="M592.46,-215.88C605.3,-206.89 621.2,-195.76 635.09,-186.03"/>
<polygon fill="black" stroke="black" points="637.26,-188.79 643.44,-180.19 633.24,-183.06 637.26,-188.79"/>
</g>
<!-- ast.Name object at 0x7fa1ac344a30&#45;&gt;ast.Load object at 0x7fa1ec8f1f60 -->
<g id="edge13" class="edge">
<title>ast.Name object at 0x7fa1ac344a30&#45;&gt;ast.Load object at 0x7fa1ec8f1f60</title>
<path fill="none" stroke="black" d="M568.74,-149.43C564.17,-147.57 559.47,-145.7 555,-144 515.64,-129.04 469.96,-113.44 438.83,-103.07"/>
<polygon fill="black" stroke="black" points="439.85,-99.72 429.26,-99.9 437.65,-106.37 439.85,-99.72"/>
</g>
<!-- ast.Constant object at 0x7fa1ac346740 -->
<g id="node15" class="node">
<title>ast.Constant object at 0x7fa1ac346740</title>
<path fill="#66cdaa" stroke="black" d="M727.5,-108C727.5,-108 686.5,-108 686.5,-108 680.5,-108 674.5,-102 674.5,-96 674.5,-96 674.5,-84 674.5,-84 674.5,-78 680.5,-72 686.5,-72 686.5,-72 727.5,-72 727.5,-72 733.5,-72 739.5,-78 739.5,-84 739.5,-84 739.5,-96 739.5,-96 739.5,-102 733.5,-108 727.5,-108"/>
<text text-anchor="middle" x="707" y="-86.3" font-family="Times,serif" font-size="14.00">Constant</text>
</g>
<!-- ast.Slice object at 0x7fa1ac347d60&#45;&gt;ast.Constant object at 0x7fa1ac346740 -->
<g id="edge15" class="edge">
<title>ast.Slice object at 0x7fa1ac347d60&#45;&gt;ast.Constant object at 0x7fa1ac346740</title>
<path fill="none" stroke="black" d="M677.64,-143.7C682.13,-135.64 687.56,-125.89 692.52,-116.98"/>
<polygon fill="black" stroke="black" points="695.66,-118.54 697.47,-108.1 689.55,-115.14 695.66,-118.54"/>
</g>
<!-- ast.BinOp object at 0x7fa1ac3479a0 -->
<g id="node16" class="node">
<title>ast.BinOp object at 0x7fa1ac3479a0</title>
<path fill="#66cdaa" stroke="black" d="M644,-108C644,-108 614,-108 614,-108 608,-108 602,-102 602,-96 602,-96 602,-84 602,-84 602,-78 608,-72 614,-72 614,-72 644,-72 644,-72 650,-72 656,-78 656,-84 656,-84 656,-96 656,-96 656,-102 650,-108 644,-108"/>
<text text-anchor="middle" x="629" y="-86.3" font-family="Times,serif" font-size="14.00">BinOp</text>
</g>
<!-- ast.Slice object at 0x7fa1ac347d60&#45;&gt;ast.BinOp object at 0x7fa1ac3479a0 -->
<g id="edge16" class="edge">
<title>ast.Slice object at 0x7fa1ac347d60&#45;&gt;ast.BinOp object at 0x7fa1ac3479a0</title>
<path fill="none" stroke="black" d="M658.36,-143.7C653.87,-135.64 648.44,-125.89 643.48,-116.98"/>
<polygon fill="black" stroke="black" points="646.45,-115.14 638.53,-108.1 640.34,-118.54 646.45,-115.14"/>
</g>
<!-- ast.Constant object at 0x7fa1ac8acd30 -->
<g id="node17" class="node">
<title>ast.Constant object at 0x7fa1ac8acd30</title>
<path fill="#66cdaa" stroke="black" d="M571.5,-36C571.5,-36 530.5,-36 530.5,-36 524.5,-36 518.5,-30 518.5,-24 518.5,-24 518.5,-12 518.5,-12 518.5,-6 524.5,0 530.5,0 530.5,0 571.5,0 571.5,0 577.5,0 583.5,-6 583.5,-12 583.5,-12 583.5,-24 583.5,-24 583.5,-30 577.5,-36 571.5,-36"/>
<text text-anchor="middle" x="551" y="-14.3" font-family="Times,serif" font-size="14.00">Constant</text>
</g>
<!-- ast.BinOp object at 0x7fa1ac3479a0&#45;&gt;ast.Constant object at 0x7fa1ac8acd30 -->
<g id="edge17" class="edge">
<title>ast.BinOp object at 0x7fa1ac3479a0&#45;&gt;ast.Constant object at 0x7fa1ac8acd30</title>
<path fill="none" stroke="black" d="M609.72,-71.7C600.08,-63.05 588.27,-52.45 577.77,-43.03"/>
<polygon fill="black" stroke="black" points="579.84,-40.18 570.06,-36.1 575.16,-45.39 579.84,-40.18"/>
</g>
<!-- ast.Add object at 0x7fa1ec8f21a0 -->
<g id="node18" class="node">
<title>ast.Add object at 0x7fa1ec8f21a0</title>
<path fill="#66cdaa" stroke="black" d="M644,-36C644,-36 614,-36 614,-36 608,-36 602,-30 602,-24 602,-24 602,-12 602,-12 602,-6 608,0 614,0 614,0 644,0 644,0 650,0 656,-6 656,-12 656,-12 656,-24 656,-24 656,-30 650,-36 644,-36"/>
<text text-anchor="middle" x="629" y="-14.3" font-family="Times,serif" font-size="14.00">Add</text>
</g>
<!-- ast.BinOp object at 0x7fa1ac3479a0&#45;&gt;ast.Add object at 0x7fa1ec8f21a0 -->
<g id="edge18" class="edge">
<title>ast.BinOp object at 0x7fa1ac3479a0&#45;&gt;ast.Add object at 0x7fa1ec8f21a0</title>
<path fill="none" stroke="black" d="M629,-71.7C629,-63.98 629,-54.71 629,-46.11"/>
<polygon fill="black" stroke="black" points="632.5,-46.1 629,-36.1 625.5,-46.1 632.5,-46.1"/>
</g>
<!-- ast.Constant object at 0x7fa1ac8ae140 -->
<g id="node19" class="node">
<title>ast.Constant object at 0x7fa1ac8ae140</title>
<path fill="#66cdaa" stroke="black" d="M727.5,-36C727.5,-36 686.5,-36 686.5,-36 680.5,-36 674.5,-30 674.5,-24 674.5,-24 674.5,-12 674.5,-12 674.5,-6 680.5,0 686.5,0 686.5,0 727.5,0 727.5,0 733.5,0 739.5,-6 739.5,-12 739.5,-12 739.5,-24 739.5,-24 739.5,-30 733.5,-36 727.5,-36"/>
<text text-anchor="middle" x="707" y="-14.3" font-family="Times,serif" font-size="14.00">Constant</text>
</g>
<!-- ast.BinOp object at 0x7fa1ac3479a0&#45;&gt;ast.Constant object at 0x7fa1ac8ae140 -->
<g id="edge19" class="edge">
<title>ast.BinOp object at 0x7fa1ac3479a0&#45;&gt;ast.Constant object at 0x7fa1ac8ae140</title>
<path fill="none" stroke="black" d="M648.28,-71.7C657.92,-63.05 669.73,-52.45 680.23,-43.03"/>
<polygon fill="black" stroke="black" points="682.84,-45.39 687.94,-36.1 678.16,-40.18 682.84,-45.39"/>
</g>
<!-- ast.BinOp object at 0x7fa1ac61a9e0 -->
<g id="node21" class="node">
<title>ast.BinOp object at 0x7fa1ac61a9e0</title>
<path fill="#66cdaa" stroke="black" d="M345,-252C345,-252 315,-252 315,-252 309,-252 303,-246 303,-240 303,-240 303,-228 303,-228 303,-222 309,-216 315,-216 315,-216 345,-216 345,-216 351,-216 357,-222 357,-228 357,-228 357,-240 357,-240 357,-246 351,-252 345,-252"/>
<text text-anchor="middle" x="330" y="-230.3" font-family="Times,serif" font-size="14.00">BinOp</text>
</g>
<!-- ast.Compare object at 0x7fa1ac8adb40&#45;&gt;ast.BinOp object at 0x7fa1ac61a9e0 -->
<g id="edge22" class="edge">
<title>ast.Compare object at 0x7fa1ac8adb40&#45;&gt;ast.BinOp object at 0x7fa1ac61a9e0</title>
<path fill="none" stroke="black" d="M256.98,-287.7C269.31,-278.8 284.52,-267.82 297.85,-258.2"/>
<polygon fill="black" stroke="black" points="300.24,-260.79 306.3,-252.1 296.14,-255.12 300.24,-260.79"/>
</g>
<!-- ast.Eq object at 0x7fa1ec8f2890 -->
<g id="node25" class="node">
<title>ast.Eq object at 0x7fa1ec8f2890</title>
<path fill="#66cdaa" stroke="black" d="M189,-252C189,-252 159,-252 159,-252 153,-252 147,-246 147,-240 147,-240 147,-228 147,-228 147,-222 153,-216 159,-216 159,-216 189,-216 189,-216 195,-216 201,-222 201,-228 201,-228 201,-240 201,-240 201,-246 195,-252 189,-252"/>
<text text-anchor="middle" x="174" y="-230.3" font-family="Times,serif" font-size="14.00">Eq</text>
</g>
<!-- ast.Compare object at 0x7fa1ac8adb40&#45;&gt;ast.Eq object at 0x7fa1ec8f2890 -->
<g id="edge27" class="edge">
<title>ast.Compare object at 0x7fa1ac8adb40&#45;&gt;ast.Eq object at 0x7fa1ec8f2890</title>
<path fill="none" stroke="black" d="M212.5,-287.7C204.64,-279.39 195.92,-269.28 188.68,-260.14"/>
<polygon fill="black" stroke="black" points="191.38,-257.91 182.52,-252.1 185.83,-262.17 191.38,-257.91"/>
</g>
<!-- ast.Compare object at 0x7fa1ac8adb40&#45;&gt;ast.Eq object at 0x7fa1ec8f2890 -->
<g id="edge28" class="edge">
<title>ast.Compare object at 0x7fa1ac8adb40&#45;&gt;ast.Eq object at 0x7fa1ec8f2890</title>
<path fill="none" stroke="black" d="M224.33,-287.7C218.06,-279.22 209.52,-268.86 201.2,-259.58"/>
<polygon fill="black" stroke="black" points="203.66,-257.09 194.31,-252.1 198.51,-261.83 203.66,-257.09"/>
</g>
<!-- ast.BinOp object at 0x7fa1ac6188e0 -->
<g id="node26" class="node">
<title>ast.BinOp object at 0x7fa1ac6188e0</title>
<path fill="#66cdaa" stroke="black" d="M417,-252C417,-252 387,-252 387,-252 381,-252 375,-246 375,-240 375,-240 375,-228 375,-228 375,-222 381,-216 387,-216 387,-216 417,-216 417,-216 423,-216 429,-222 429,-228 429,-228 429,-240 429,-240 429,-246 423,-252 417,-252"/>
<text text-anchor="middle" x="402" y="-230.3" font-family="Times,serif" font-size="14.00">BinOp</text>
</g>
<!-- ast.Compare object at 0x7fa1ac8adb40&#45;&gt;ast.BinOp object at 0x7fa1ac6188e0 -->
<g id="edge29" class="edge">
<title>ast.Compare object at 0x7fa1ac8adb40&#45;&gt;ast.BinOp object at 0x7fa1ac6188e0</title>
<path fill="none" stroke="black" d="M266.58,-292.28C291.61,-282.66 326.79,-268.82 365.56,-252.07"/>
<polygon fill="black" stroke="black" points="367.18,-255.19 374.96,-247.99 364.39,-248.77 367.18,-255.19"/>
</g>
<!-- ast.Constant object at 0x7fa1ac61b0d0 -->
<g id="node29" class="node">
<title>ast.Constant object at 0x7fa1ac61b0d0</title>
<path fill="#66cdaa" stroke="black" d="M272.5,-252C272.5,-252 231.5,-252 231.5,-252 225.5,-252 219.5,-246 219.5,-240 219.5,-240 219.5,-228 219.5,-228 219.5,-222 225.5,-216 231.5,-216 231.5,-216 272.5,-216 272.5,-216 278.5,-216 284.5,-222 284.5,-228 284.5,-228 284.5,-240 284.5,-240 284.5,-246 278.5,-252 272.5,-252"/>
<text text-anchor="middle" x="252" y="-230.3" font-family="Times,serif" font-size="14.00">Constant</text>
</g>
<!-- ast.Compare object at 0x7fa1ac8adb40&#45;&gt;ast.Constant object at 0x7fa1ac61b0d0 -->
<g id="edge34" class="edge">
<title>ast.Compare object at 0x7fa1ac8adb40&#45;&gt;ast.Constant object at 0x7fa1ac61b0d0</title>
<path fill="none" stroke="black" d="M237.7,-287.7C239.81,-279.9 242.36,-270.51 244.72,-261.83"/>
<polygon fill="black" stroke="black" points="248.12,-262.67 247.36,-252.1 241.36,-260.84 248.12,-262.67"/>
</g>
<!-- ast.Name object at 0x7fa1ac61a260 -->
<g id="node22" class="node">
<title>ast.Name object at 0x7fa1ac61a260</title>
<path fill="#66cdaa" stroke="black" d="M273,-180C273,-180 243,-180 243,-180 237,-180 231,-174 231,-168 231,-168 231,-156 231,-156 231,-150 237,-144 243,-144 243,-144 273,-144 273,-144 279,-144 285,-150 285,-156 285,-156 285,-168 285,-168 285,-174 279,-180 273,-180"/>
<text text-anchor="middle" x="258" y="-158.3" font-family="Times,serif" font-size="14.00">Name</text>
</g>
<!-- ast.BinOp object at 0x7fa1ac61a9e0&#45;&gt;ast.Name object at 0x7fa1ac61a260 -->
<g id="edge23" class="edge">
<title>ast.BinOp object at 0x7fa1ac61a9e0&#45;&gt;ast.Name object at 0x7fa1ac61a260</title>
<path fill="none" stroke="black" d="M312.2,-215.7C303.4,-207.14 292.62,-196.66 283,-187.3"/>
<polygon fill="black" stroke="black" points="285.2,-184.57 275.59,-180.1 280.32,-189.58 285.2,-184.57"/>
</g>
<!-- ast.Mod object at 0x7fa1ec8f2380 -->
<g id="node23" class="node">
<title>ast.Mod object at 0x7fa1ec8f2380</title>
<path fill="#66cdaa" stroke="black" d="M345,-180C345,-180 315,-180 315,-180 309,-180 303,-174 303,-168 303,-168 303,-156 303,-156 303,-150 309,-144 315,-144 315,-144 345,-144 345,-144 351,-144 357,-150 357,-156 357,-156 357,-168 357,-168 357,-174 351,-180 345,-180"/>
<text text-anchor="middle" x="330" y="-158.3" font-family="Times,serif" font-size="14.00">Mod</text>
</g>
<!-- ast.BinOp object at 0x7fa1ac61a9e0&#45;&gt;ast.Mod object at 0x7fa1ec8f2380 -->
<g id="edge25" class="edge">
<title>ast.BinOp object at 0x7fa1ac61a9e0&#45;&gt;ast.Mod object at 0x7fa1ec8f2380</title>
<path fill="none" stroke="black" d="M330,-215.7C330,-207.98 330,-198.71 330,-190.11"/>
<polygon fill="black" stroke="black" points="333.5,-190.1 330,-180.1 326.5,-190.1 333.5,-190.1"/>
</g>
<!-- ast.Constant object at 0x7fa1ac6191e0 -->
<g id="node24" class="node">
<title>ast.Constant object at 0x7fa1ac6191e0</title>
<path fill="#66cdaa" stroke="black" d="M200.5,-180C200.5,-180 159.5,-180 159.5,-180 153.5,-180 147.5,-174 147.5,-168 147.5,-168 147.5,-156 147.5,-156 147.5,-150 153.5,-144 159.5,-144 159.5,-144 200.5,-144 200.5,-144 206.5,-144 212.5,-150 212.5,-156 212.5,-156 212.5,-168 212.5,-168 212.5,-174 206.5,-180 200.5,-180"/>
<text text-anchor="middle" x="180" y="-158.3" font-family="Times,serif" font-size="14.00">Constant</text>
</g>
<!-- ast.BinOp object at 0x7fa1ac61a9e0&#45;&gt;ast.Constant object at 0x7fa1ac6191e0 -->
<g id="edge26" class="edge">
<title>ast.BinOp object at 0x7fa1ac61a9e0&#45;&gt;ast.Constant object at 0x7fa1ac6191e0</title>
<path fill="none" stroke="black" d="M302.84,-220.32C280.28,-209.8 247.81,-194.65 221.92,-182.56"/>
<polygon fill="black" stroke="black" points="223.25,-179.32 212.71,-178.27 220.29,-185.67 223.25,-179.32"/>
</g>
<!-- ast.Name object at 0x7fa1ac61a260&#45;&gt;ast.Load object at 0x7fa1ec8f1f60 -->
<g id="edge24" class="edge">
<title>ast.Name object at 0x7fa1ac61a260&#45;&gt;ast.Load object at 0x7fa1ec8f1f60</title>
<path fill="none" stroke="black" d="M285.09,-147.83C307.77,-136.81 340.36,-120.97 365.37,-108.81"/>
<polygon fill="black" stroke="black" points="367.08,-111.87 374.55,-104.35 364.02,-105.57 367.08,-111.87"/>
</g>
<!-- ast.BinOp object at 0x7fa1ac6188e0&#45;&gt;ast.Mod object at 0x7fa1ec8f2380 -->
<g id="edge32" class="edge">
<title>ast.BinOp object at 0x7fa1ac6188e0&#45;&gt;ast.Mod object at 0x7fa1ec8f2380</title>
<path fill="none" stroke="black" d="M384.2,-215.7C375.4,-207.14 364.62,-196.66 355,-187.3"/>
<polygon fill="black" stroke="black" points="357.2,-184.57 347.59,-180.1 352.32,-189.58 357.2,-184.57"/>
</g>
<!-- ast.Name object at 0x7fa1ac618a60 -->
<g id="node27" class="node">
<title>ast.Name object at 0x7fa1ac618a60</title>
<path fill="#66cdaa" stroke="black" d="M417,-180C417,-180 387,-180 387,-180 381,-180 375,-174 375,-168 375,-168 375,-156 375,-156 375,-150 381,-144 387,-144 387,-144 417,-144 417,-144 423,-144 429,-150 429,-156 429,-156 429,-168 429,-168 429,-174 423,-180 417,-180"/>
<text text-anchor="middle" x="402" y="-158.3" font-family="Times,serif" font-size="14.00">Name</text>
</g>
<!-- ast.BinOp object at 0x7fa1ac6188e0&#45;&gt;ast.Name object at 0x7fa1ac618a60 -->
<g id="edge30" class="edge">
<title>ast.BinOp object at 0x7fa1ac6188e0&#45;&gt;ast.Name object at 0x7fa1ac618a60</title>
<path fill="none" stroke="black" d="M402,-215.7C402,-207.98 402,-198.71 402,-190.11"/>
<polygon fill="black" stroke="black" points="405.5,-190.1 402,-180.1 398.5,-190.1 405.5,-190.1"/>
</g>
<!-- ast.Constant object at 0x7fa1ac619c30 -->
<g id="node28" class="node">
<title>ast.Constant object at 0x7fa1ac619c30</title>
<path fill="#66cdaa" stroke="black" d="M500.5,-180C500.5,-180 459.5,-180 459.5,-180 453.5,-180 447.5,-174 447.5,-168 447.5,-168 447.5,-156 447.5,-156 447.5,-150 453.5,-144 459.5,-144 459.5,-144 500.5,-144 500.5,-144 506.5,-144 512.5,-150 512.5,-156 512.5,-156 512.5,-168 512.5,-168 512.5,-174 506.5,-180 500.5,-180"/>
<text text-anchor="middle" x="480" y="-158.3" font-family="Times,serif" font-size="14.00">Constant</text>
</g>
<!-- ast.BinOp object at 0x7fa1ac6188e0&#45;&gt;ast.Constant object at 0x7fa1ac619c30 -->
<g id="edge33" class="edge">
<title>ast.BinOp object at 0x7fa1ac6188e0&#45;&gt;ast.Constant object at 0x7fa1ac619c30</title>
<path fill="none" stroke="black" d="M421.28,-215.7C430.92,-207.05 442.73,-196.45 453.23,-187.03"/>
<polygon fill="black" stroke="black" points="455.84,-189.39 460.94,-180.1 451.16,-184.18 455.84,-189.39"/>
</g>
<!-- ast.Name object at 0x7fa1ac618a60&#45;&gt;ast.Load object at 0x7fa1ec8f1f60 -->
<g id="edge31" class="edge">
<title>ast.Name object at 0x7fa1ac618a60&#45;&gt;ast.Load object at 0x7fa1ec8f1f60</title>
<path fill="none" stroke="black" d="M402,-143.7C402,-135.98 402,-126.71 402,-118.11"/>
<polygon fill="black" stroke="black" points="405.5,-118.1 402,-108.1 398.5,-118.1 405.5,-118.1"/>
</g>
</g>
</svg>
