<?xml version="1.0" encoding="UTF-8" standalone="no"?>
<!DOCTYPE svg PUBLIC "-//W3C//DTD SVG 1.1//EN"
 "http://www.w3.org/Graphics/SVG/1.1/DTD/svg11.dtd">
<!-- Generated by graphviz version 2.43.0 (0)
 -->
<!-- Title: %3 Pages: 1 -->
<svg width="404pt" height="692pt"
 viewBox="0.00 0.00 404.00 692.00" xmlns="http://www.w3.org/2000/svg" xmlns:xlink="http://www.w3.org/1999/xlink">
<g id="graph0" class="graph" transform="scale(1 1) rotate(0) translate(4 688)">
<title>%3</title>
<polygon fill="white" stroke="transparent" points="-4,4 -4,-688 400,-688 400,4 -4,4"/>
<!-- ast.Module object at 0x7f27d07e6920 -->
<g id="node1" class="node">
<title>ast.Module object at 0x7f27d07e6920</title>
<path fill="#66cdaa" stroke="black" d="M246.5,-684C246.5,-684 211.5,-684 211.5,-684 205.5,-684 199.5,-678 199.5,-672 199.5,-672 199.5,-660 199.5,-660 199.5,-654 205.5,-648 211.5,-648 211.5,-648 246.5,-648 246.5,-648 252.5,-648 258.5,-654 258.5,-660 258.5,-660 258.5,-672 258.5,-672 258.5,-678 252.5,-684 246.5,-684"/>
<text text-anchor="middle" x="229" y="-662.3" font-family="Times,serif" font-size="14.00">Module</text>
</g>
<!-- ast.FunctionDef object at 0x7f27d07e6bf0 -->
<g id="node2" class="node">
<title>ast.FunctionDef object at 0x7f27d07e6bf0</title>
<path fill="#66cdaa" stroke="black" d="M259.5,-612C259.5,-612 198.5,-612 198.5,-612 192.5,-612 186.5,-606 186.5,-600 186.5,-600 186.5,-588 186.5,-588 186.5,-582 192.5,-576 198.5,-576 198.5,-576 259.5,-576 259.5,-576 265.5,-576 271.5,-582 271.5,-588 271.5,-588 271.5,-600 271.5,-600 271.5,-606 265.5,-612 259.5,-612"/>
<text text-anchor="middle" x="229" y="-590.3" font-family="Times,serif" font-size="14.00">FunctionDef</text>
</g>
<!-- ast.Module object at 0x7f27d07e6920&#45;&gt;ast.FunctionDef object at 0x7f27d07e6bf0 -->
<g id="edge1" class="edge">
<title>ast.Module object at 0x7f27d07e6920&#45;&gt;ast.FunctionDef object at 0x7f27d07e6bf0</title>
<path fill="none" stroke="black" d="M229,-647.7C229,-639.98 229,-630.71 229,-622.11"/>
<polygon fill="black" stroke="black" points="232.5,-622.1 229,-612.1 225.5,-622.1 232.5,-622.1"/>
</g>
<!-- ast.arguments object at 0x7f27d07e6ef0 -->
<g id="node3" class="node">
<title>ast.arguments object at 0x7f27d07e6ef0</title>
<path fill="#66cdaa" stroke="black" d="M196,-540C196,-540 146,-540 146,-540 140,-540 134,-534 134,-528 134,-528 134,-516 134,-516 134,-510 140,-504 146,-504 146,-504 196,-504 196,-504 202,-504 208,-510 208,-516 208,-516 208,-528 208,-528 208,-534 202,-540 196,-540"/>
<text text-anchor="middle" x="171" y="-518.3" font-family="Times,serif" font-size="14.00">arguments</text>
</g>
<!-- ast.FunctionDef object at 0x7f27d07e6bf0&#45;&gt;ast.arguments object at 0x7f27d07e6ef0 -->
<g id="edge2" class="edge">
<title>ast.FunctionDef object at 0x7f27d07e6bf0&#45;&gt;ast.arguments object at 0x7f27d07e6ef0</title>
<path fill="none" stroke="black" d="M214.66,-575.7C207.71,-567.3 199.23,-557.07 191.6,-547.86"/>
<polygon fill="black" stroke="black" points="194.25,-545.57 185.17,-540.1 188.86,-550.04 194.25,-545.57"/>
</g>
<!-- ast.Return object at 0x7f27d07e7f70 -->
<g id="node8" class="node">
<title>ast.Return object at 0x7f27d07e7f70</title>
<path fill="#66cdaa" stroke="black" d="M302,-540C302,-540 272,-540 272,-540 266,-540 260,-534 260,-528 260,-528 260,-516 260,-516 260,-510 266,-504 272,-504 272,-504 302,-504 302,-504 308,-504 314,-510 314,-516 314,-516 314,-528 314,-528 314,-534 308,-540 302,-540"/>
<text text-anchor="middle" x="287" y="-518.3" font-family="Times,serif" font-size="14.00">Return</text>
</g>
<!-- ast.FunctionDef object at 0x7f27d07e6bf0&#45;&gt;ast.Return object at 0x7f27d07e7f70 -->
<g id="edge7" class="edge">
<title>ast.FunctionDef object at 0x7f27d07e6bf0&#45;&gt;ast.Return object at 0x7f27d07e7f70</title>
<path fill="none" stroke="black" d="M243.34,-575.7C250.29,-567.3 258.77,-557.07 266.4,-547.86"/>
<polygon fill="black" stroke="black" points="269.14,-550.04 272.83,-540.1 263.75,-545.57 269.14,-550.04"/>
</g>
<!-- ast.arg object at 0x7f27d07e6da0 -->
<g id="node4" class="node">
<title>ast.arg object at 0x7f27d07e6da0</title>
<path fill="#66cdaa" stroke="black" d="M186,-468C186,-468 156,-468 156,-468 150,-468 144,-462 144,-456 144,-456 144,-444 144,-444 144,-438 150,-432 156,-432 156,-432 186,-432 186,-432 192,-432 198,-438 198,-444 198,-444 198,-456 198,-456 198,-462 192,-468 186,-468"/>
<text text-anchor="middle" x="171" y="-446.3" font-family="Times,serif" font-size="14.00">arg</text>
</g>
<!-- ast.arguments object at 0x7f27d07e6ef0&#45;&gt;ast.arg object at 0x7f27d07e6da0 -->
<g id="edge3" class="edge">
<title>ast.arguments object at 0x7f27d07e6ef0&#45;&gt;ast.arg object at 0x7f27d07e6da0</title>
<path fill="none" stroke="black" d="M171,-503.7C171,-495.98 171,-486.71 171,-478.11"/>
<polygon fill="black" stroke="black" points="174.5,-478.1 171,-468.1 167.5,-478.1 174.5,-478.1"/>
</g>
<!-- ast.arg object at 0x7f27d07e7640 -->
<g id="node5" class="node">
<title>ast.arg object at 0x7f27d07e7640</title>
<path fill="#66cdaa" stroke="black" d="M258,-468C258,-468 228,-468 228,-468 222,-468 216,-462 216,-456 216,-456 216,-444 216,-444 216,-438 222,-432 228,-432 228,-432 258,-432 258,-432 264,-432 270,-438 270,-444 270,-444 270,-456 270,-456 270,-462 264,-468 258,-468"/>
<text text-anchor="middle" x="243" y="-446.3" font-family="Times,serif" font-size="14.00">arg</text>
</g>
<!-- ast.arguments object at 0x7f27d07e6ef0&#45;&gt;ast.arg object at 0x7f27d07e7640 -->
<g id="edge4" class="edge">
<title>ast.arguments object at 0x7f27d07e6ef0&#45;&gt;ast.arg object at 0x7f27d07e7640</title>
<path fill="none" stroke="black" d="M188.8,-503.7C197.6,-495.14 208.38,-484.66 218,-475.3"/>
<polygon fill="black" stroke="black" points="220.68,-477.58 225.41,-468.1 215.8,-472.57 220.68,-477.58"/>
</g>
<!-- ast.arg object at 0x7f27d07e7a00 -->
<g id="node6" class="node">
<title>ast.arg object at 0x7f27d07e7a00</title>
<path fill="#66cdaa" stroke="black" d="M42,-468C42,-468 12,-468 12,-468 6,-468 0,-462 0,-456 0,-456 0,-444 0,-444 0,-438 6,-432 12,-432 12,-432 42,-432 42,-432 48,-432 54,-438 54,-444 54,-444 54,-456 54,-456 54,-462 48,-468 42,-468"/>
<text text-anchor="middle" x="27" y="-446.3" font-family="Times,serif" font-size="14.00">arg</text>
</g>
<!-- ast.arguments object at 0x7f27d07e6ef0&#45;&gt;ast.arg object at 0x7f27d07e7a00 -->
<g id="edge5" class="edge">
<title>ast.arguments object at 0x7f27d07e6ef0&#45;&gt;ast.arg object at 0x7f27d07e7a00</title>
<path fill="none" stroke="black" d="M135.77,-503.88C113.77,-493.18 85.51,-479.44 63.3,-468.65"/>
<polygon fill="black" stroke="black" points="64.72,-465.44 54.2,-464.22 61.66,-471.74 64.72,-465.44"/>
</g>
<!-- ast.arg object at 0x7f27d07e5600 -->
<g id="node7" class="node">
<title>ast.arg object at 0x7f27d07e5600</title>
<path fill="#66cdaa" stroke="black" d="M114,-468C114,-468 84,-468 84,-468 78,-468 72,-462 72,-456 72,-456 72,-444 72,-444 72,-438 78,-432 84,-432 84,-432 114,-432 114,-432 120,-432 126,-438 126,-444 126,-444 126,-456 126,-456 126,-462 120,-468 114,-468"/>
<text text-anchor="middle" x="99" y="-446.3" font-family="Times,serif" font-size="14.00">arg</text>
</g>
<!-- ast.arguments object at 0x7f27d07e6ef0&#45;&gt;ast.arg object at 0x7f27d07e5600 -->
<g id="edge6" class="edge">
<title>ast.arguments object at 0x7f27d07e6ef0&#45;&gt;ast.arg object at 0x7f27d07e5600</title>
<path fill="none" stroke="black" d="M153.2,-503.7C144.4,-495.14 133.62,-484.66 124,-475.3"/>
<polygon fill="black" stroke="black" points="126.2,-472.57 116.59,-468.1 121.32,-477.58 126.2,-472.57"/>
</g>
<!-- ast.SetComp object at 0x7f27d07e7310 -->
<g id="node9" class="node">
<title>ast.SetComp object at 0x7f27d07e7310</title>
<path fill="#66cdaa" stroke="black" d="M344,-468C344,-468 300,-468 300,-468 294,-468 288,-462 288,-456 288,-456 288,-444 288,-444 288,-438 294,-432 300,-432 300,-432 344,-432 344,-432 350,-432 356,-438 356,-444 356,-444 356,-456 356,-456 356,-462 350,-468 344,-468"/>
<text text-anchor="middle" x="322" y="-446.3" font-family="Times,serif" font-size="14.00">SetComp</text>
</g>
<!-- ast.Return object at 0x7f27d07e7f70&#45;&gt;ast.SetComp object at 0x7f27d07e7310 -->
<g id="edge8" class="edge">
<title>ast.Return object at 0x7f27d07e7f70&#45;&gt;ast.SetComp object at 0x7f27d07e7310</title>
<path fill="none" stroke="black" d="M295.65,-503.7C299.64,-495.73 304.45,-486.1 308.87,-477.26"/>
<polygon fill="black" stroke="black" points="312.11,-478.61 313.45,-468.1 305.85,-475.48 312.11,-478.61"/>
</g>
<!-- ast.Name object at 0x7f27d07e6d40 -->
<g id="node10" class="node">
<title>ast.Name object at 0x7f27d07e6d40</title>
<path fill="#66cdaa" stroke="black" d="M384,-396C384,-396 354,-396 354,-396 348,-396 342,-390 342,-384 342,-384 342,-372 342,-372 342,-366 348,-360 354,-360 354,-360 384,-360 384,-360 390,-360 396,-366 396,-372 396,-372 396,-384 396,-384 396,-390 390,-396 384,-396"/>
<text text-anchor="middle" x="369" y="-374.3" font-family="Times,serif" font-size="14.00">Name</text>
</g>
<!-- ast.SetComp object at 0x7f27d07e7310&#45;&gt;ast.Name object at 0x7f27d07e6d40 -->
<g id="edge9" class="edge">
<title>ast.SetComp object at 0x7f27d07e7310&#45;&gt;ast.Name object at 0x7f27d07e6d40</title>
<path fill="none" stroke="black" d="M333.62,-431.7C339.14,-423.47 345.85,-413.48 351.93,-404.42"/>
<polygon fill="black" stroke="black" points="354.85,-406.36 357.52,-396.1 349.04,-402.46 354.85,-406.36"/>
</g>
<!-- ast.comprehension object at 0x7f27d07e7e20 -->
<g id="node12" class="node">
<title>ast.comprehension object at 0x7f27d07e7e20</title>
<path fill="#66cdaa" stroke="black" d="M312,-396C312,-396 236,-396 236,-396 230,-396 224,-390 224,-384 224,-384 224,-372 224,-372 224,-366 230,-360 236,-360 236,-360 312,-360 312,-360 318,-360 324,-366 324,-372 324,-372 324,-384 324,-384 324,-390 318,-396 312,-396"/>
<text text-anchor="middle" x="274" y="-374.3" font-family="Times,serif" font-size="14.00">comprehension</text>
</g>
<!-- ast.SetComp object at 0x7f27d07e7310&#45;&gt;ast.comprehension object at 0x7f27d07e7e20 -->
<g id="edge11" class="edge">
<title>ast.SetComp object at 0x7f27d07e7310&#45;&gt;ast.comprehension object at 0x7f27d07e7e20</title>
<path fill="none" stroke="black" d="M310.13,-431.7C304.5,-423.47 297.65,-413.48 291.43,-404.42"/>
<polygon fill="black" stroke="black" points="294.27,-402.37 285.73,-396.1 288.5,-406.33 294.27,-402.37"/>
</g>
<!-- ast.Load object at 0x7f27e72f1f60 -->
<g id="node11" class="node">
<title>ast.Load object at 0x7f27e72f1f60</title>
<path fill="#66cdaa" stroke="black" d="M164,-36C164,-36 134,-36 134,-36 128,-36 122,-30 122,-24 122,-24 122,-12 122,-12 122,-6 128,0 134,0 134,0 164,0 164,0 170,0 176,-6 176,-12 176,-12 176,-24 176,-24 176,-30 170,-36 164,-36"/>
<text text-anchor="middle" x="149" y="-14.3" font-family="Times,serif" font-size="14.00">Load</text>
</g>
<!-- ast.Name object at 0x7f27d07e6d40&#45;&gt;ast.Load object at 0x7f27e72f1f60 -->
<g id="edge10" class="edge">
<title>ast.Name object at 0x7f27d07e6d40&#45;&gt;ast.Load object at 0x7f27e72f1f60</title>
<path fill="none" stroke="black" d="M369,-359.95C369,-333.29 369,-280.11 369,-235 369,-235 369,-235 369,-161 369,-75.09 249.11,-38.64 186.34,-25.44"/>
<polygon fill="black" stroke="black" points="186.91,-21.98 176.42,-23.44 185.53,-28.85 186.91,-21.98"/>
</g>
<!-- ast.Name object at 0x7f27d07e7f40 -->
<g id="node13" class="node">
<title>ast.Name object at 0x7f27d07e7f40</title>
<path fill="#66cdaa" stroke="black" d="M324,-324C324,-324 294,-324 294,-324 288,-324 282,-318 282,-312 282,-312 282,-300 282,-300 282,-294 288,-288 294,-288 294,-288 324,-288 324,-288 330,-288 336,-294 336,-300 336,-300 336,-312 336,-312 336,-318 330,-324 324,-324"/>
<text text-anchor="middle" x="309" y="-302.3" font-family="Times,serif" font-size="14.00">Name</text>
</g>
<!-- ast.comprehension object at 0x7f27d07e7e20&#45;&gt;ast.Name object at 0x7f27d07e7f40 -->
<g id="edge12" class="edge">
<title>ast.comprehension object at 0x7f27d07e7e20&#45;&gt;ast.Name object at 0x7f27d07e7f40</title>
<path fill="none" stroke="black" d="M282.65,-359.7C286.64,-351.73 291.45,-342.1 295.87,-333.26"/>
<polygon fill="black" stroke="black" points="299.11,-334.61 300.45,-324.1 292.85,-331.48 299.11,-334.61"/>
</g>
<!-- ast.BinOp object at 0x7f27d07e6f50 -->
<g id="node15" class="node">
<title>ast.BinOp object at 0x7f27d07e6f50</title>
<path fill="#66cdaa" stroke="black" d="M242,-324C242,-324 212,-324 212,-324 206,-324 200,-318 200,-312 200,-312 200,-300 200,-300 200,-294 206,-288 212,-288 212,-288 242,-288 242,-288 248,-288 254,-294 254,-300 254,-300 254,-312 254,-312 254,-318 248,-324 242,-324"/>
<text text-anchor="middle" x="227" y="-302.3" font-family="Times,serif" font-size="14.00">BinOp</text>
</g>
<!-- ast.comprehension object at 0x7f27d07e7e20&#45;&gt;ast.BinOp object at 0x7f27d07e6f50 -->
<g id="edge14" class="edge">
<title>ast.comprehension object at 0x7f27d07e7e20&#45;&gt;ast.BinOp object at 0x7f27d07e6f50</title>
<path fill="none" stroke="black" d="M262.38,-359.7C256.86,-351.47 250.15,-341.48 244.07,-332.42"/>
<polygon fill="black" stroke="black" points="246.96,-330.46 238.48,-324.1 241.15,-334.36 246.96,-330.46"/>
</g>
<!-- ast.Store object at 0x7f27e72f1fc0 -->
<g id="node14" class="node">
<title>ast.Store object at 0x7f27e72f1fc0</title>
<path fill="#66cdaa" stroke="black" d="M329,-252C329,-252 299,-252 299,-252 293,-252 287,-246 287,-240 287,-240 287,-228 287,-228 287,-222 293,-216 299,-216 299,-216 329,-216 329,-216 335,-216 341,-222 341,-228 341,-228 341,-240 341,-240 341,-246 335,-252 329,-252"/>
<text text-anchor="middle" x="314" y="-230.3" font-family="Times,serif" font-size="14.00">Store</text>
</g>
<!-- ast.Name object at 0x7f27d07e7f40&#45;&gt;ast.Store object at 0x7f27e72f1fc0 -->
<g id="edge13" class="edge">
<title>ast.Name object at 0x7f27d07e7f40&#45;&gt;ast.Store object at 0x7f27e72f1fc0</title>
<path fill="none" stroke="black" d="M310.24,-287.7C310.79,-279.98 311.45,-270.71 312.06,-262.11"/>
<polygon fill="black" stroke="black" points="315.56,-262.33 312.78,-252.1 308.57,-261.83 315.56,-262.33"/>
</g>
<!-- ast.BinOp object at 0x7f27d07e7a60 -->
<g id="node16" class="node">
<title>ast.BinOp object at 0x7f27d07e7a60</title>
<path fill="#66cdaa" stroke="black" d="M162,-252C162,-252 132,-252 132,-252 126,-252 120,-246 120,-240 120,-240 120,-228 120,-228 120,-222 126,-216 132,-216 132,-216 162,-216 162,-216 168,-216 174,-222 174,-228 174,-228 174,-240 174,-240 174,-246 168,-252 162,-252"/>
<text text-anchor="middle" x="147" y="-230.3" font-family="Times,serif" font-size="14.00">BinOp</text>
</g>
<!-- ast.BinOp object at 0x7f27d07e6f50&#45;&gt;ast.BinOp object at 0x7f27d07e7a60 -->
<g id="edge15" class="edge">
<title>ast.BinOp object at 0x7f27d07e6f50&#45;&gt;ast.BinOp object at 0x7f27d07e7a60</title>
<path fill="none" stroke="black" d="M207.22,-287.7C197.25,-278.97 184.99,-268.24 174.14,-258.75"/>
<polygon fill="black" stroke="black" points="176.38,-256.06 166.55,-252.1 171.77,-261.32 176.38,-256.06"/>
</g>
<!-- ast.BitOr object at 0x7f27e72f2500 -->
<g id="node19" class="node">
<title>ast.BitOr object at 0x7f27e72f2500</title>
<path fill="#66cdaa" stroke="black" d="M236,-108C236,-108 206,-108 206,-108 200,-108 194,-102 194,-96 194,-96 194,-84 194,-84 194,-78 200,-72 206,-72 206,-72 236,-72 236,-72 242,-72 248,-78 248,-84 248,-84 248,-96 248,-96 248,-102 242,-108 236,-108"/>
<text text-anchor="middle" x="221" y="-86.3" font-family="Times,serif" font-size="14.00">BitOr</text>
</g>
<!-- ast.BinOp object at 0x7f27d07e6f50&#45;&gt;ast.BitOr object at 0x7f27e72f2500 -->
<g id="edge25" class="edge">
<title>ast.BinOp object at 0x7f27d07e6f50&#45;&gt;ast.BitOr object at 0x7f27e72f2500</title>
<path fill="none" stroke="black" d="M226.52,-287.85C225.48,-250.83 223.02,-163.18 221.77,-118.39"/>
<polygon fill="black" stroke="black" points="225.26,-118.13 221.48,-108.23 218.26,-118.33 225.26,-118.13"/>
</g>
<!-- ast.Name object at 0x7f27d07e74c0 -->
<g id="node22" class="node">
<title>ast.Name object at 0x7f27d07e74c0</title>
<path fill="#66cdaa" stroke="black" d="M291,-180C291,-180 261,-180 261,-180 255,-180 249,-174 249,-168 249,-168 249,-156 249,-156 249,-150 255,-144 261,-144 261,-144 291,-144 291,-144 297,-144 303,-150 303,-156 303,-156 303,-168 303,-168 303,-174 297,-180 291,-180"/>
<text text-anchor="middle" x="276" y="-158.3" font-family="Times,serif" font-size="14.00">Name</text>
</g>
<!-- ast.BinOp object at 0x7f27d07e6f50&#45;&gt;ast.Name object at 0x7f27d07e74c0 -->
<g id="edge26" class="edge">
<title>ast.BinOp object at 0x7f27d07e6f50&#45;&gt;ast.Name object at 0x7f27d07e74c0</title>
<path fill="none" stroke="black" d="M232.91,-287.87C241.3,-263.56 256.74,-218.82 266.68,-190.01"/>
<polygon fill="black" stroke="black" points="270.12,-190.78 270.07,-180.19 263.5,-188.5 270.12,-190.78"/>
</g>
<!-- ast.BinOp object at 0x7f27d07e6cb0 -->
<g id="node17" class="node">
<title>ast.BinOp object at 0x7f27d07e6cb0</title>
<path fill="#66cdaa" stroke="black" d="M143,-180C143,-180 113,-180 113,-180 107,-180 101,-174 101,-168 101,-168 101,-156 101,-156 101,-150 107,-144 113,-144 113,-144 143,-144 143,-144 149,-144 155,-150 155,-156 155,-156 155,-168 155,-168 155,-174 149,-180 143,-180"/>
<text text-anchor="middle" x="128" y="-158.3" font-family="Times,serif" font-size="14.00">BinOp</text>
</g>
<!-- ast.BinOp object at 0x7f27d07e7a60&#45;&gt;ast.BinOp object at 0x7f27d07e6cb0 -->
<g id="edge16" class="edge">
<title>ast.BinOp object at 0x7f27d07e7a60&#45;&gt;ast.BinOp object at 0x7f27d07e6cb0</title>
<path fill="none" stroke="black" d="M142.3,-215.7C140.19,-207.9 137.64,-198.51 135.28,-189.83"/>
<polygon fill="black" stroke="black" points="138.64,-188.84 132.64,-180.1 131.88,-190.67 138.64,-188.84"/>
</g>
<!-- ast.BinOp object at 0x7f27d07e7a60&#45;&gt;ast.BitOr object at 0x7f27e72f2500 -->
<g id="edge22" class="edge">
<title>ast.BinOp object at 0x7f27d07e7a60&#45;&gt;ast.BitOr object at 0x7f27e72f2500</title>
<path fill="none" stroke="black" d="M155.93,-215.87C168.7,-191.35 192.32,-146.03 207.32,-117.26"/>
<polygon fill="black" stroke="black" points="210.52,-118.67 212.04,-108.19 204.32,-115.44 210.52,-118.67"/>
</g>
<!-- ast.Name object at 0x7f27d07e7b50 -->
<g id="node21" class="node">
<title>ast.Name object at 0x7f27d07e7b50</title>
<path fill="#66cdaa" stroke="black" d="M54,-180C54,-180 24,-180 24,-180 18,-180 12,-174 12,-168 12,-168 12,-156 12,-156 12,-150 18,-144 24,-144 24,-144 54,-144 54,-144 60,-144 66,-150 66,-156 66,-156 66,-168 66,-168 66,-174 60,-180 54,-180"/>
<text text-anchor="middle" x="39" y="-158.3" font-family="Times,serif" font-size="14.00">Name</text>
</g>
<!-- ast.BinOp object at 0x7f27d07e7a60&#45;&gt;ast.Name object at 0x7f27d07e7b50 -->
<g id="edge23" class="edge">
<title>ast.BinOp object at 0x7f27d07e7a60&#45;&gt;ast.Name object at 0x7f27d07e7b50</title>
<path fill="none" stroke="black" d="M120.58,-215.88C106.59,-206.81 89.22,-195.55 74.11,-185.76"/>
<polygon fill="black" stroke="black" points="75.82,-182.69 65.52,-180.19 72.01,-188.57 75.82,-182.69"/>
</g>
<!-- ast.Name object at 0x7f27d07e7fa0 -->
<g id="node18" class="node">
<title>ast.Name object at 0x7f27d07e7fa0</title>
<path fill="#66cdaa" stroke="black" d="M92,-108C92,-108 62,-108 62,-108 56,-108 50,-102 50,-96 50,-96 50,-84 50,-84 50,-78 56,-72 62,-72 62,-72 92,-72 92,-72 98,-72 104,-78 104,-84 104,-84 104,-96 104,-96 104,-102 98,-108 92,-108"/>
<text text-anchor="middle" x="77" y="-86.3" font-family="Times,serif" font-size="14.00">Name</text>
</g>
<!-- ast.BinOp object at 0x7f27d07e6cb0&#45;&gt;ast.Name object at 0x7f27d07e7fa0 -->
<g id="edge17" class="edge">
<title>ast.BinOp object at 0x7f27d07e6cb0&#45;&gt;ast.Name object at 0x7f27d07e7fa0</title>
<path fill="none" stroke="black" d="M115.39,-143.7C109.4,-135.47 102.12,-125.48 95.52,-116.42"/>
<polygon fill="black" stroke="black" points="98.18,-114.13 89.46,-108.1 92.52,-118.25 98.18,-114.13"/>
</g>
<!-- ast.BinOp object at 0x7f27d07e6cb0&#45;&gt;ast.BitOr object at 0x7f27e72f2500 -->
<g id="edge19" class="edge">
<title>ast.BinOp object at 0x7f27d07e6cb0&#45;&gt;ast.BitOr object at 0x7f27e72f2500</title>
<path fill="none" stroke="black" d="M150.99,-143.7C162.81,-134.8 177.39,-123.82 190.18,-114.2"/>
<polygon fill="black" stroke="black" points="192.39,-116.91 198.28,-108.1 188.18,-111.32 192.39,-116.91"/>
</g>
<!-- ast.Name object at 0x7f27d07e55a0 -->
<g id="node20" class="node">
<title>ast.Name object at 0x7f27d07e55a0</title>
<path fill="#66cdaa" stroke="black" d="M164,-108C164,-108 134,-108 134,-108 128,-108 122,-102 122,-96 122,-96 122,-84 122,-84 122,-78 128,-72 134,-72 134,-72 164,-72 164,-72 170,-72 176,-78 176,-84 176,-84 176,-96 176,-96 176,-102 170,-108 164,-108"/>
<text text-anchor="middle" x="149" y="-86.3" font-family="Times,serif" font-size="14.00">Name</text>
</g>
<!-- ast.BinOp object at 0x7f27d07e6cb0&#45;&gt;ast.Name object at 0x7f27d07e55a0 -->
<g id="edge20" class="edge">
<title>ast.BinOp object at 0x7f27d07e6cb0&#45;&gt;ast.Name object at 0x7f27d07e55a0</title>
<path fill="none" stroke="black" d="M133.19,-143.7C135.53,-135.9 138.35,-126.51 140.95,-117.83"/>
<polygon fill="black" stroke="black" points="144.35,-118.69 143.87,-108.1 137.64,-116.68 144.35,-118.69"/>
</g>
<!-- ast.Name object at 0x7f27d07e7fa0&#45;&gt;ast.Load object at 0x7f27e72f1f60 -->
<g id="edge18" class="edge">
<title>ast.Name object at 0x7f27d07e7fa0&#45;&gt;ast.Load object at 0x7f27e72f1f60</title>
<path fill="none" stroke="black" d="M94.8,-71.7C103.6,-63.14 114.38,-52.66 124,-43.3"/>
<polygon fill="black" stroke="black" points="126.68,-45.58 131.41,-36.1 121.8,-40.57 126.68,-45.58"/>
</g>
<!-- ast.Name object at 0x7f27d07e55a0&#45;&gt;ast.Load object at 0x7f27e72f1f60 -->
<g id="edge21" class="edge">
<title>ast.Name object at 0x7f27d07e55a0&#45;&gt;ast.Load object at 0x7f27e72f1f60</title>
<path fill="none" stroke="black" d="M149,-71.7C149,-63.98 149,-54.71 149,-46.11"/>
<polygon fill="black" stroke="black" points="152.5,-46.1 149,-36.1 145.5,-46.1 152.5,-46.1"/>
</g>
<!-- ast.Name object at 0x7f27d07e7b50&#45;&gt;ast.Load object at 0x7f27e72f1f60 -->
<g id="edge24" class="edge">
<title>ast.Name object at 0x7f27d07e7b50&#45;&gt;ast.Load object at 0x7f27e72f1f60</title>
<path fill="none" stroke="black" d="M34.45,-143.75C30.45,-124.62 27.19,-93.62 41,-72 56.71,-47.4 87.45,-33.87 112.13,-26.65"/>
<polygon fill="black" stroke="black" points="113.19,-29.99 121.93,-24.01 111.37,-23.23 113.19,-29.99"/>
</g>
<!-- ast.Name object at 0x7f27d07e74c0&#45;&gt;ast.Load object at 0x7f27e72f1f60 -->
<g id="edge27" class="edge">
<title>ast.Name object at 0x7f27d07e74c0&#45;&gt;ast.Load object at 0x7f27e72f1f60</title>
<path fill="none" stroke="black" d="M276.59,-143.75C276.37,-124.34 273.23,-92.8 257,-72 239.47,-49.52 209.92,-35.95 186.17,-28.17"/>
<polygon fill="black" stroke="black" points="186.98,-24.76 176.39,-25.18 184.93,-31.45 186.98,-24.76"/>
</g>
</g>
</svg>
