<?xml version="1.0" encoding="UTF-8" standalone="no"?>
<!DOCTYPE svg PUBLIC "-//W3C//DTD SVG 1.1//EN"
 "http://www.w3.org/Graphics/SVG/1.1/DTD/svg11.dtd">
<!-- Generated by graphviz version 2.43.0 (0)
 -->
<!-- Title: %3 Pages: 1 -->
<svg width="1318pt" height="836pt"
 viewBox="0.00 0.00 1317.50 836.00" xmlns="http://www.w3.org/2000/svg" xmlns:xlink="http://www.w3.org/1999/xlink">
<g id="graph0" class="graph" transform="scale(1 1) rotate(0) translate(4 832)">
<title>%3</title>
<polygon fill="white" stroke="transparent" points="-4,4 -4,-832 1313.5,-832 1313.5,4 -4,4"/>
<!-- ast.Module object at 0x7f9392077ac0 -->
<g id="node1" class="node">
<title>ast.Module object at 0x7f9392077ac0</title>
<path fill="#66cdaa" stroke="black" d="M978,-828C978,-828 943,-828 943,-828 937,-828 931,-822 931,-816 931,-816 931,-804 931,-804 931,-798 937,-792 943,-792 943,-792 978,-792 978,-792 984,-792 990,-798 990,-804 990,-804 990,-816 990,-816 990,-822 984,-828 978,-828"/>
<text text-anchor="middle" x="960.5" y="-806.3" font-family="Times,serif" font-size="14.00">Module</text>
</g>
<!-- ast.FunctionDef object at 0x7f9392077730 -->
<g id="node2" class="node">
<title>ast.FunctionDef object at 0x7f9392077730</title>
<path fill="#66cdaa" stroke="black" d="M991,-756C991,-756 930,-756 930,-756 924,-756 918,-750 918,-744 918,-744 918,-732 918,-732 918,-726 924,-720 930,-720 930,-720 991,-720 991,-720 997,-720 1003,-726 1003,-732 1003,-732 1003,-744 1003,-744 1003,-750 997,-756 991,-756"/>
<text text-anchor="middle" x="960.5" y="-734.3" font-family="Times,serif" font-size="14.00">FunctionDef</text>
</g>
<!-- ast.Module object at 0x7f9392077ac0&#45;&gt;ast.FunctionDef object at 0x7f9392077730 -->
<g id="edge1" class="edge">
<title>ast.Module object at 0x7f9392077ac0&#45;&gt;ast.FunctionDef object at 0x7f9392077730</title>
<path fill="none" stroke="black" d="M960.5,-791.7C960.5,-783.98 960.5,-774.71 960.5,-766.11"/>
<polygon fill="black" stroke="black" points="964,-766.1 960.5,-756.1 957,-766.1 964,-766.1"/>
</g>
<!-- ast.arguments object at 0x7f93920754e0 -->
<g id="node3" class="node">
<title>ast.arguments object at 0x7f93920754e0</title>
<path fill="#66cdaa" stroke="black" d="M839.5,-684C839.5,-684 789.5,-684 789.5,-684 783.5,-684 777.5,-678 777.5,-672 777.5,-672 777.5,-660 777.5,-660 777.5,-654 783.5,-648 789.5,-648 789.5,-648 839.5,-648 839.5,-648 845.5,-648 851.5,-654 851.5,-660 851.5,-660 851.5,-672 851.5,-672 851.5,-678 845.5,-684 839.5,-684"/>
<text text-anchor="middle" x="814.5" y="-662.3" font-family="Times,serif" font-size="14.00">arguments</text>
</g>
<!-- ast.FunctionDef object at 0x7f9392077730&#45;&gt;ast.arguments object at 0x7f93920754e0 -->
<g id="edge2" class="edge">
<title>ast.FunctionDef object at 0x7f9392077730&#45;&gt;ast.arguments object at 0x7f93920754e0</title>
<path fill="none" stroke="black" d="M924.78,-719.88C905,-710.39 880.23,-698.51 859.17,-688.42"/>
<polygon fill="black" stroke="black" points="860.63,-685.24 850.1,-684.07 857.6,-691.55 860.63,-685.24"/>
</g>
<!-- ast.Assign object at 0x7f9392076440 -->
<g id="node5" class="node">
<title>ast.Assign object at 0x7f9392076440</title>
<path fill="#66cdaa" stroke="black" d="M939.5,-684C939.5,-684 909.5,-684 909.5,-684 903.5,-684 897.5,-678 897.5,-672 897.5,-672 897.5,-660 897.5,-660 897.5,-654 903.5,-648 909.5,-648 909.5,-648 939.5,-648 939.5,-648 945.5,-648 951.5,-654 951.5,-660 951.5,-660 951.5,-672 951.5,-672 951.5,-678 945.5,-684 939.5,-684"/>
<text text-anchor="middle" x="924.5" y="-662.3" font-family="Times,serif" font-size="14.00">Assign</text>
</g>
<!-- ast.FunctionDef object at 0x7f9392077730&#45;&gt;ast.Assign object at 0x7f9392076440 -->
<g id="edge4" class="edge">
<title>ast.FunctionDef object at 0x7f9392077730&#45;&gt;ast.Assign object at 0x7f9392076440</title>
<path fill="none" stroke="black" d="M951.6,-719.7C947.5,-711.73 942.55,-702.1 938.01,-693.26"/>
<polygon fill="black" stroke="black" points="940.98,-691.4 933.3,-684.1 934.76,-694.6 940.98,-691.4"/>
</g>
<!-- ast.For object at 0x7f9392074b50 -->
<g id="node9" class="node">
<title>ast.For object at 0x7f9392074b50</title>
<path fill="#66cdaa" stroke="black" d="M1030.5,-684C1030.5,-684 1000.5,-684 1000.5,-684 994.5,-684 988.5,-678 988.5,-672 988.5,-672 988.5,-660 988.5,-660 988.5,-654 994.5,-648 1000.5,-648 1000.5,-648 1030.5,-648 1030.5,-648 1036.5,-648 1042.5,-654 1042.5,-660 1042.5,-660 1042.5,-672 1042.5,-672 1042.5,-678 1036.5,-684 1030.5,-684"/>
<text text-anchor="middle" x="1015.5" y="-662.3" font-family="Times,serif" font-size="14.00">For</text>
</g>
<!-- ast.FunctionDef object at 0x7f9392077730&#45;&gt;ast.For object at 0x7f9392074b50 -->
<g id="edge8" class="edge">
<title>ast.FunctionDef object at 0x7f9392077730&#45;&gt;ast.For object at 0x7f9392074b50</title>
<path fill="none" stroke="black" d="M974.1,-719.7C980.62,-711.39 988.57,-701.28 995.75,-692.14"/>
<polygon fill="black" stroke="black" points="998.63,-694.13 1002.06,-684.1 993.13,-689.81 998.63,-694.13"/>
</g>
<!-- ast.Return object at 0x7f9392074b80 -->
<g id="node55" class="node">
<title>ast.Return object at 0x7f9392074b80</title>
<path fill="#66cdaa" stroke="black" d="M1133.5,-684C1133.5,-684 1103.5,-684 1103.5,-684 1097.5,-684 1091.5,-678 1091.5,-672 1091.5,-672 1091.5,-660 1091.5,-660 1091.5,-654 1097.5,-648 1103.5,-648 1103.5,-648 1133.5,-648 1133.5,-648 1139.5,-648 1145.5,-654 1145.5,-660 1145.5,-660 1145.5,-672 1145.5,-672 1145.5,-678 1139.5,-684 1133.5,-684"/>
<text text-anchor="middle" x="1118.5" y="-662.3" font-family="Times,serif" font-size="14.00">Return</text>
</g>
<!-- ast.FunctionDef object at 0x7f9392077730&#45;&gt;ast.Return object at 0x7f9392074b80 -->
<g id="edge75" class="edge">
<title>ast.FunctionDef object at 0x7f9392077730&#45;&gt;ast.Return object at 0x7f9392074b80</title>
<path fill="none" stroke="black" d="M999.15,-719.88C1024.31,-708.73 1056.94,-694.27 1081.72,-683.29"/>
<polygon fill="black" stroke="black" points="1083.42,-686.37 1091.14,-679.12 1080.58,-679.97 1083.42,-686.37"/>
</g>
<!-- ast.arg object at 0x7f93920755d0 -->
<g id="node4" class="node">
<title>ast.arg object at 0x7f93920755d0</title>
<path fill="#66cdaa" stroke="black" d="M800.5,-612C800.5,-612 770.5,-612 770.5,-612 764.5,-612 758.5,-606 758.5,-600 758.5,-600 758.5,-588 758.5,-588 758.5,-582 764.5,-576 770.5,-576 770.5,-576 800.5,-576 800.5,-576 806.5,-576 812.5,-582 812.5,-588 812.5,-588 812.5,-600 812.5,-600 812.5,-606 806.5,-612 800.5,-612"/>
<text text-anchor="middle" x="785.5" y="-590.3" font-family="Times,serif" font-size="14.00">arg</text>
</g>
<!-- ast.arguments object at 0x7f93920754e0&#45;&gt;ast.arg object at 0x7f93920755d0 -->
<g id="edge3" class="edge">
<title>ast.arguments object at 0x7f93920754e0&#45;&gt;ast.arg object at 0x7f93920755d0</title>
<path fill="none" stroke="black" d="M807.33,-647.7C804.07,-639.81 800.13,-630.3 796.5,-621.55"/>
<polygon fill="black" stroke="black" points="799.65,-620 792.59,-612.1 793.18,-622.68 799.65,-620"/>
</g>
<!-- ast.Name object at 0x7f9392074670 -->
<g id="node6" class="node">
<title>ast.Name object at 0x7f9392074670</title>
<path fill="#66cdaa" stroke="black" d="M888.5,-540C888.5,-540 858.5,-540 858.5,-540 852.5,-540 846.5,-534 846.5,-528 846.5,-528 846.5,-516 846.5,-516 846.5,-510 852.5,-504 858.5,-504 858.5,-504 888.5,-504 888.5,-504 894.5,-504 900.5,-510 900.5,-516 900.5,-516 900.5,-528 900.5,-528 900.5,-534 894.5,-540 888.5,-540"/>
<text text-anchor="middle" x="873.5" y="-518.3" font-family="Times,serif" font-size="14.00">Name</text>
</g>
<!-- ast.Assign object at 0x7f9392076440&#45;&gt;ast.Name object at 0x7f9392074670 -->
<g id="edge5" class="edge">
<title>ast.Assign object at 0x7f9392076440&#45;&gt;ast.Name object at 0x7f9392074670</title>
<path fill="none" stroke="black" d="M922.24,-647.81C919.48,-629.53 913.96,-600.02 904.5,-576 900.89,-566.82 895.83,-557.35 890.86,-549.01"/>
<polygon fill="black" stroke="black" points="893.8,-547.11 885.56,-540.45 887.85,-550.8 893.8,-547.11"/>
</g>
<!-- ast.Constant object at 0x7f9392075810 -->
<g id="node8" class="node">
<title>ast.Constant object at 0x7f9392075810</title>
<path fill="#66cdaa" stroke="black" d="M884,-612C884,-612 843,-612 843,-612 837,-612 831,-606 831,-600 831,-600 831,-588 831,-588 831,-582 837,-576 843,-576 843,-576 884,-576 884,-576 890,-576 896,-582 896,-588 896,-588 896,-600 896,-600 896,-606 890,-612 884,-612"/>
<text text-anchor="middle" x="863.5" y="-590.3" font-family="Times,serif" font-size="14.00">Constant</text>
</g>
<!-- ast.Assign object at 0x7f9392076440&#45;&gt;ast.Constant object at 0x7f9392075810 -->
<g id="edge7" class="edge">
<title>ast.Assign object at 0x7f9392076440&#45;&gt;ast.Constant object at 0x7f9392075810</title>
<path fill="none" stroke="black" d="M909.42,-647.7C902.11,-639.3 893.19,-629.07 885.16,-619.86"/>
<polygon fill="black" stroke="black" points="887.61,-617.34 878.41,-612.1 882.34,-621.94 887.61,-617.34"/>
</g>
<!-- ast.Store object at 0x7f93d26f1fc0 -->
<g id="node7" class="node">
<title>ast.Store object at 0x7f93d26f1fc0</title>
<path fill="#66cdaa" stroke="black" d="M907.5,-324C907.5,-324 877.5,-324 877.5,-324 871.5,-324 865.5,-318 865.5,-312 865.5,-312 865.5,-300 865.5,-300 865.5,-294 871.5,-288 877.5,-288 877.5,-288 907.5,-288 907.5,-288 913.5,-288 919.5,-294 919.5,-300 919.5,-300 919.5,-312 919.5,-312 919.5,-318 913.5,-324 907.5,-324"/>
<text text-anchor="middle" x="892.5" y="-302.3" font-family="Times,serif" font-size="14.00">Store</text>
</g>
<!-- ast.Name object at 0x7f9392074670&#45;&gt;ast.Store object at 0x7f93d26f1fc0 -->
<g id="edge6" class="edge">
<title>ast.Name object at 0x7f9392074670&#45;&gt;ast.Store object at 0x7f93d26f1fc0</title>
<path fill="none" stroke="black" d="M875.02,-503.85C878.31,-466.83 886.09,-379.18 890.07,-334.39"/>
<polygon fill="black" stroke="black" points="893.57,-334.5 890.97,-324.23 886.6,-333.88 893.57,-334.5"/>
</g>
<!-- ast.Name object at 0x7f93920755a0 -->
<g id="node10" class="node">
<title>ast.Name object at 0x7f93920755a0</title>
<path fill="#66cdaa" stroke="black" d="M1049.5,-540C1049.5,-540 1019.5,-540 1019.5,-540 1013.5,-540 1007.5,-534 1007.5,-528 1007.5,-528 1007.5,-516 1007.5,-516 1007.5,-510 1013.5,-504 1019.5,-504 1019.5,-504 1049.5,-504 1049.5,-504 1055.5,-504 1061.5,-510 1061.5,-516 1061.5,-516 1061.5,-528 1061.5,-528 1061.5,-534 1055.5,-540 1049.5,-540"/>
<text text-anchor="middle" x="1034.5" y="-518.3" font-family="Times,serif" font-size="14.00">Name</text>
</g>
<!-- ast.For object at 0x7f9392074b50&#45;&gt;ast.Name object at 0x7f93920755a0 -->
<g id="edge9" class="edge">
<title>ast.For object at 0x7f9392074b50&#45;&gt;ast.Name object at 0x7f93920755a0</title>
<path fill="none" stroke="black" d="M1017.79,-647.87C1021.03,-623.67 1026.98,-579.21 1030.83,-550.39"/>
<polygon fill="black" stroke="black" points="1034.34,-550.57 1032.2,-540.19 1027.4,-549.64 1034.34,-550.57"/>
</g>
<!-- ast.Call object at 0x7f9392076470 -->
<g id="node11" class="node">
<title>ast.Call object at 0x7f9392076470</title>
<path fill="#66cdaa" stroke="black" d="M1161.5,-252C1161.5,-252 1131.5,-252 1131.5,-252 1125.5,-252 1119.5,-246 1119.5,-240 1119.5,-240 1119.5,-228 1119.5,-228 1119.5,-222 1125.5,-216 1131.5,-216 1131.5,-216 1161.5,-216 1161.5,-216 1167.5,-216 1173.5,-222 1173.5,-228 1173.5,-228 1173.5,-240 1173.5,-240 1173.5,-246 1167.5,-252 1161.5,-252"/>
<text text-anchor="middle" x="1146.5" y="-230.3" font-family="Times,serif" font-size="14.00">Call</text>
</g>
<!-- ast.For object at 0x7f9392074b50&#45;&gt;ast.Call object at 0x7f9392076470 -->
<g id="edge11" class="edge">
<title>ast.For object at 0x7f9392074b50&#45;&gt;ast.Call object at 0x7f9392076470</title>
<path fill="none" stroke="black" d="M1031.56,-647.69C1053.32,-622.36 1089.5,-572.76 1089.5,-523 1089.5,-523 1089.5,-523 1089.5,-377 1089.5,-333.8 1112.5,-288.19 1129.28,-260.66"/>
<polygon fill="black" stroke="black" points="1132.33,-262.37 1134.69,-252.04 1126.41,-258.65 1132.33,-262.37"/>
</g>
<!-- ast.For object at 0x7f93920759f0 -->
<g id="node17" class="node">
<title>ast.For object at 0x7f93920759f0</title>
<path fill="#66cdaa" stroke="black" d="M994.5,-612C994.5,-612 964.5,-612 964.5,-612 958.5,-612 952.5,-606 952.5,-600 952.5,-600 952.5,-588 952.5,-588 952.5,-582 958.5,-576 964.5,-576 964.5,-576 994.5,-576 994.5,-576 1000.5,-576 1006.5,-582 1006.5,-588 1006.5,-588 1006.5,-600 1006.5,-600 1006.5,-606 1000.5,-612 994.5,-612"/>
<text text-anchor="middle" x="979.5" y="-590.3" font-family="Times,serif" font-size="14.00">For</text>
</g>
<!-- ast.For object at 0x7f9392074b50&#45;&gt;ast.For object at 0x7f93920759f0 -->
<g id="edge19" class="edge">
<title>ast.For object at 0x7f9392074b50&#45;&gt;ast.For object at 0x7f93920759f0</title>
<path fill="none" stroke="black" d="M1006.6,-647.7C1002.5,-639.73 997.55,-630.1 993.01,-621.26"/>
<polygon fill="black" stroke="black" points="995.98,-619.4 988.3,-612.1 989.76,-622.6 995.98,-619.4"/>
</g>
<!-- ast.Name object at 0x7f93920755a0&#45;&gt;ast.Store object at 0x7f93d26f1fc0 -->
<g id="edge10" class="edge">
<title>ast.Name object at 0x7f93920755a0&#45;&gt;ast.Store object at 0x7f93d26f1fc0</title>
<path fill="none" stroke="black" d="M1023.12,-503.85C998.24,-466.36 938.91,-376.95 909.55,-332.7"/>
<polygon fill="black" stroke="black" points="912.38,-330.63 903.93,-324.23 906.55,-334.5 912.38,-330.63"/>
</g>
<!-- ast.Name object at 0x7f93920748e0 -->
<g id="node12" class="node">
<title>ast.Name object at 0x7f93920748e0</title>
<path fill="#66cdaa" stroke="black" d="M1161.5,-180C1161.5,-180 1131.5,-180 1131.5,-180 1125.5,-180 1119.5,-174 1119.5,-168 1119.5,-168 1119.5,-156 1119.5,-156 1119.5,-150 1125.5,-144 1131.5,-144 1131.5,-144 1161.5,-144 1161.5,-144 1167.5,-144 1173.5,-150 1173.5,-156 1173.5,-156 1173.5,-168 1173.5,-168 1173.5,-174 1167.5,-180 1161.5,-180"/>
<text text-anchor="middle" x="1146.5" y="-158.3" font-family="Times,serif" font-size="14.00">Name</text>
</g>
<!-- ast.Call object at 0x7f9392076470&#45;&gt;ast.Name object at 0x7f93920748e0 -->
<g id="edge12" class="edge">
<title>ast.Call object at 0x7f9392076470&#45;&gt;ast.Name object at 0x7f93920748e0</title>
<path fill="none" stroke="black" d="M1146.5,-215.7C1146.5,-207.98 1146.5,-198.71 1146.5,-190.11"/>
<polygon fill="black" stroke="black" points="1150,-190.1 1146.5,-180.1 1143,-190.1 1150,-190.1"/>
</g>
<!-- ast.Call object at 0x7f93920740a0 -->
<g id="node14" class="node">
<title>ast.Call object at 0x7f93920740a0</title>
<path fill="#66cdaa" stroke="black" d="M1233.5,-180C1233.5,-180 1203.5,-180 1203.5,-180 1197.5,-180 1191.5,-174 1191.5,-168 1191.5,-168 1191.5,-156 1191.5,-156 1191.5,-150 1197.5,-144 1203.5,-144 1203.5,-144 1233.5,-144 1233.5,-144 1239.5,-144 1245.5,-150 1245.5,-156 1245.5,-156 1245.5,-168 1245.5,-168 1245.5,-174 1239.5,-180 1233.5,-180"/>
<text text-anchor="middle" x="1218.5" y="-158.3" font-family="Times,serif" font-size="14.00">Call</text>
</g>
<!-- ast.Call object at 0x7f9392076470&#45;&gt;ast.Call object at 0x7f93920740a0 -->
<g id="edge14" class="edge">
<title>ast.Call object at 0x7f9392076470&#45;&gt;ast.Call object at 0x7f93920740a0</title>
<path fill="none" stroke="black" d="M1164.3,-215.7C1173.1,-207.14 1183.88,-196.66 1193.5,-187.3"/>
<polygon fill="black" stroke="black" points="1196.18,-189.58 1200.91,-180.1 1191.3,-184.57 1196.18,-189.58"/>
</g>
<!-- ast.Load object at 0x7f93d26f1f60 -->
<g id="node13" class="node">
<title>ast.Load object at 0x7f93d26f1f60</title>
<path fill="#66cdaa" stroke="black" d="M656.5,-36C656.5,-36 626.5,-36 626.5,-36 620.5,-36 614.5,-30 614.5,-24 614.5,-24 614.5,-12 614.5,-12 614.5,-6 620.5,0 626.5,0 626.5,0 656.5,0 656.5,0 662.5,0 668.5,-6 668.5,-12 668.5,-12 668.5,-24 668.5,-24 668.5,-30 662.5,-36 656.5,-36"/>
<text text-anchor="middle" x="641.5" y="-14.3" font-family="Times,serif" font-size="14.00">Load</text>
</g>
<!-- ast.Name object at 0x7f93920748e0&#45;&gt;ast.Load object at 0x7f93d26f1f60 -->
<g id="edge13" class="edge">
<title>ast.Name object at 0x7f93920748e0&#45;&gt;ast.Load object at 0x7f93d26f1f60</title>
<path fill="none" stroke="black" d="M1150.22,-143.93C1153.5,-123.77 1155.24,-90.64 1136.5,-72 1104.18,-39.85 788.94,-24.69 679.05,-20.36"/>
<polygon fill="black" stroke="black" points="678.9,-16.85 668.77,-19.96 678.63,-23.84 678.9,-16.85"/>
</g>
<!-- ast.Name object at 0x7f9392076d70 -->
<g id="node15" class="node">
<title>ast.Name object at 0x7f9392076d70</title>
<path fill="#66cdaa" stroke="black" d="M1297.5,-108C1297.5,-108 1267.5,-108 1267.5,-108 1261.5,-108 1255.5,-102 1255.5,-96 1255.5,-96 1255.5,-84 1255.5,-84 1255.5,-78 1261.5,-72 1267.5,-72 1267.5,-72 1297.5,-72 1297.5,-72 1303.5,-72 1309.5,-78 1309.5,-84 1309.5,-84 1309.5,-96 1309.5,-96 1309.5,-102 1303.5,-108 1297.5,-108"/>
<text text-anchor="middle" x="1282.5" y="-86.3" font-family="Times,serif" font-size="14.00">Name</text>
</g>
<!-- ast.Call object at 0x7f93920740a0&#45;&gt;ast.Name object at 0x7f9392076d70 -->
<g id="edge15" class="edge">
<title>ast.Call object at 0x7f93920740a0&#45;&gt;ast.Name object at 0x7f9392076d70</title>
<path fill="none" stroke="black" d="M1234.32,-143.7C1242.07,-135.22 1251.54,-124.86 1260.02,-115.58"/>
<polygon fill="black" stroke="black" points="1262.7,-117.85 1266.86,-108.1 1257.53,-113.12 1262.7,-117.85"/>
</g>
<!-- ast.Name object at 0x7f9392074970 -->
<g id="node16" class="node">
<title>ast.Name object at 0x7f9392074970</title>
<path fill="#66cdaa" stroke="black" d="M1225.5,-108C1225.5,-108 1195.5,-108 1195.5,-108 1189.5,-108 1183.5,-102 1183.5,-96 1183.5,-96 1183.5,-84 1183.5,-84 1183.5,-78 1189.5,-72 1195.5,-72 1195.5,-72 1225.5,-72 1225.5,-72 1231.5,-72 1237.5,-78 1237.5,-84 1237.5,-84 1237.5,-96 1237.5,-96 1237.5,-102 1231.5,-108 1225.5,-108"/>
<text text-anchor="middle" x="1210.5" y="-86.3" font-family="Times,serif" font-size="14.00">Name</text>
</g>
<!-- ast.Call object at 0x7f93920740a0&#45;&gt;ast.Name object at 0x7f9392074970 -->
<g id="edge17" class="edge">
<title>ast.Call object at 0x7f93920740a0&#45;&gt;ast.Name object at 0x7f9392074970</title>
<path fill="none" stroke="black" d="M1216.52,-143.7C1215.64,-135.98 1214.58,-126.71 1213.6,-118.11"/>
<polygon fill="black" stroke="black" points="1217.07,-117.64 1212.45,-108.1 1210.11,-118.44 1217.07,-117.64"/>
</g>
<!-- ast.Name object at 0x7f9392076d70&#45;&gt;ast.Load object at 0x7f93d26f1f60 -->
<g id="edge16" class="edge">
<title>ast.Name object at 0x7f9392076d70&#45;&gt;ast.Load object at 0x7f93d26f1f60</title>
<path fill="none" stroke="black" d="M1255.36,-74.97C1252.43,-73.82 1249.44,-72.79 1246.5,-72 1138.43,-42.75 793.31,-25.56 678.81,-20.55"/>
<polygon fill="black" stroke="black" points="678.92,-17.05 668.78,-20.11 678.62,-24.04 678.92,-17.05"/>
</g>
<!-- ast.Name object at 0x7f9392074970&#45;&gt;ast.Load object at 0x7f93d26f1f60 -->
<g id="edge18" class="edge">
<title>ast.Name object at 0x7f9392074970&#45;&gt;ast.Load object at 0x7f93d26f1f60</title>
<path fill="none" stroke="black" d="M1183.09,-76.35C1178.62,-74.66 1173.98,-73.13 1169.5,-72 989.61,-26.73 766.06,-19.88 678.82,-19.03"/>
<polygon fill="black" stroke="black" points="678.65,-15.52 668.62,-18.95 678.6,-22.52 678.65,-15.52"/>
</g>
<!-- ast.Name object at 0x7f9392076c80 -->
<g id="node18" class="node">
<title>ast.Name object at 0x7f9392076c80</title>
<path fill="#66cdaa" stroke="black" d="M939.5,-468C939.5,-468 909.5,-468 909.5,-468 903.5,-468 897.5,-462 897.5,-456 897.5,-456 897.5,-444 897.5,-444 897.5,-438 903.5,-432 909.5,-432 909.5,-432 939.5,-432 939.5,-432 945.5,-432 951.5,-438 951.5,-444 951.5,-444 951.5,-456 951.5,-456 951.5,-462 945.5,-468 939.5,-468"/>
<text text-anchor="middle" x="924.5" y="-446.3" font-family="Times,serif" font-size="14.00">Name</text>
</g>
<!-- ast.For object at 0x7f93920759f0&#45;&gt;ast.Name object at 0x7f9392076c80 -->
<g id="edge20" class="edge">
<title>ast.For object at 0x7f93920759f0&#45;&gt;ast.Name object at 0x7f9392076c80</title>
<path fill="none" stroke="black" d="M972.87,-575.87C963.41,-551.46 945.97,-506.43 934.82,-477.64"/>
<polygon fill="black" stroke="black" points="938.03,-476.25 931.16,-468.19 931.51,-478.78 938.03,-476.25"/>
</g>
<!-- ast.Call object at 0x7f9392076950 -->
<g id="node19" class="node">
<title>ast.Call object at 0x7f9392076950</title>
<path fill="#66cdaa" stroke="black" d="M992.5,-252C992.5,-252 962.5,-252 962.5,-252 956.5,-252 950.5,-246 950.5,-240 950.5,-240 950.5,-228 950.5,-228 950.5,-222 956.5,-216 962.5,-216 962.5,-216 992.5,-216 992.5,-216 998.5,-216 1004.5,-222 1004.5,-228 1004.5,-228 1004.5,-240 1004.5,-240 1004.5,-246 998.5,-252 992.5,-252"/>
<text text-anchor="middle" x="977.5" y="-230.3" font-family="Times,serif" font-size="14.00">Call</text>
</g>
<!-- ast.For object at 0x7f93920759f0&#45;&gt;ast.Call object at 0x7f9392076950 -->
<g id="edge22" class="edge">
<title>ast.For object at 0x7f93920759f0&#45;&gt;ast.Call object at 0x7f9392076950</title>
<path fill="none" stroke="black" d="M979.5,-575.95C979.5,-549.29 979.5,-496.11 979.5,-451 979.5,-451 979.5,-451 979.5,-377 979.5,-336.99 978.7,-290.65 978.11,-262.08"/>
<polygon fill="black" stroke="black" points="981.61,-261.97 977.9,-252.05 974.61,-262.12 981.61,-261.97"/>
</g>
<!-- ast.If object at 0x7f9392076500 -->
<g id="node28" class="node">
<title>ast.If object at 0x7f9392076500</title>
<path fill="#66cdaa" stroke="black" d="M659.5,-540C659.5,-540 629.5,-540 629.5,-540 623.5,-540 617.5,-534 617.5,-528 617.5,-528 617.5,-516 617.5,-516 617.5,-510 623.5,-504 629.5,-504 629.5,-504 659.5,-504 659.5,-504 665.5,-504 671.5,-510 671.5,-516 671.5,-516 671.5,-528 671.5,-528 671.5,-534 665.5,-540 659.5,-540"/>
<text text-anchor="middle" x="644.5" y="-518.3" font-family="Times,serif" font-size="14.00">If</text>
</g>
<!-- ast.For object at 0x7f93920759f0&#45;&gt;ast.If object at 0x7f9392076500 -->
<g id="edge35" class="edge">
<title>ast.For object at 0x7f93920759f0&#45;&gt;ast.If object at 0x7f9392076500</title>
<path fill="none" stroke="black" d="M952.45,-586.72C938.2,-583.45 920.42,-579.43 904.5,-576 825.29,-558.95 732.19,-540.31 681.68,-530.31"/>
<polygon fill="black" stroke="black" points="682.36,-526.88 671.87,-528.37 681,-533.75 682.36,-526.88"/>
</g>
<!-- ast.Name object at 0x7f9392076c80&#45;&gt;ast.Store object at 0x7f93d26f1fc0 -->
<g id="edge21" class="edge">
<title>ast.Name object at 0x7f9392076c80&#45;&gt;ast.Store object at 0x7f93d26f1fc0</title>
<path fill="none" stroke="black" d="M920.64,-431.87C915.16,-407.56 905.08,-362.82 898.59,-334.01"/>
<polygon fill="black" stroke="black" points="901.99,-333.18 896.37,-324.19 895.16,-334.71 901.99,-333.18"/>
</g>
<!-- ast.Name object at 0x7f93920752a0 -->
<g id="node20" class="node">
<title>ast.Name object at 0x7f93920752a0</title>
<path fill="#66cdaa" stroke="black" d="M988.5,-180C988.5,-180 958.5,-180 958.5,-180 952.5,-180 946.5,-174 946.5,-168 946.5,-168 946.5,-156 946.5,-156 946.5,-150 952.5,-144 958.5,-144 958.5,-144 988.5,-144 988.5,-144 994.5,-144 1000.5,-150 1000.5,-156 1000.5,-156 1000.5,-168 1000.5,-168 1000.5,-174 994.5,-180 988.5,-180"/>
<text text-anchor="middle" x="973.5" y="-158.3" font-family="Times,serif" font-size="14.00">Name</text>
</g>
<!-- ast.Call object at 0x7f9392076950&#45;&gt;ast.Name object at 0x7f93920752a0 -->
<g id="edge23" class="edge">
<title>ast.Call object at 0x7f9392076950&#45;&gt;ast.Name object at 0x7f93920752a0</title>
<path fill="none" stroke="black" d="M976.51,-215.7C976.07,-207.98 975.54,-198.71 975.05,-190.11"/>
<polygon fill="black" stroke="black" points="978.54,-189.89 974.48,-180.1 971.55,-190.29 978.54,-189.89"/>
</g>
<!-- ast.BinOp object at 0x7f9392074ca0 -->
<g id="node21" class="node">
<title>ast.BinOp object at 0x7f9392074ca0</title>
<path fill="#66cdaa" stroke="black" d="M883.5,-180C883.5,-180 853.5,-180 853.5,-180 847.5,-180 841.5,-174 841.5,-168 841.5,-168 841.5,-156 841.5,-156 841.5,-150 847.5,-144 853.5,-144 853.5,-144 883.5,-144 883.5,-144 889.5,-144 895.5,-150 895.5,-156 895.5,-156 895.5,-168 895.5,-168 895.5,-174 889.5,-180 883.5,-180"/>
<text text-anchor="middle" x="868.5" y="-158.3" font-family="Times,serif" font-size="14.00">BinOp</text>
</g>
<!-- ast.Call object at 0x7f9392076950&#45;&gt;ast.BinOp object at 0x7f9392074ca0 -->
<g id="edge25" class="edge">
<title>ast.Call object at 0x7f9392076950&#45;&gt;ast.BinOp object at 0x7f9392074ca0</title>
<path fill="none" stroke="black" d="M950.84,-215.88C936.72,-206.81 919.19,-195.55 903.94,-185.76"/>
<polygon fill="black" stroke="black" points="905.57,-182.65 895.27,-180.19 901.79,-188.54 905.57,-182.65"/>
</g>
<!-- ast.Call object at 0x7f9392074dc0 -->
<g id="node25" class="node">
<title>ast.Call object at 0x7f9392074dc0</title>
<path fill="#66cdaa" stroke="black" d="M1060.5,-180C1060.5,-180 1030.5,-180 1030.5,-180 1024.5,-180 1018.5,-174 1018.5,-168 1018.5,-168 1018.5,-156 1018.5,-156 1018.5,-150 1024.5,-144 1030.5,-144 1030.5,-144 1060.5,-144 1060.5,-144 1066.5,-144 1072.5,-150 1072.5,-156 1072.5,-156 1072.5,-168 1072.5,-168 1072.5,-174 1066.5,-180 1060.5,-180"/>
<text text-anchor="middle" x="1045.5" y="-158.3" font-family="Times,serif" font-size="14.00">Call</text>
</g>
<!-- ast.Call object at 0x7f9392076950&#45;&gt;ast.Call object at 0x7f9392074dc0 -->
<g id="edge30" class="edge">
<title>ast.Call object at 0x7f9392076950&#45;&gt;ast.Call object at 0x7f9392074dc0</title>
<path fill="none" stroke="black" d="M994.31,-215.7C1002.63,-207.14 1012.81,-196.66 1021.89,-187.3"/>
<polygon fill="black" stroke="black" points="1024.43,-189.72 1028.88,-180.1 1019.41,-184.84 1024.43,-189.72"/>
</g>
<!-- ast.Name object at 0x7f93920752a0&#45;&gt;ast.Load object at 0x7f93d26f1f60 -->
<g id="edge24" class="edge">
<title>ast.Name object at 0x7f93920752a0&#45;&gt;ast.Load object at 0x7f93d26f1f60</title>
<path fill="none" stroke="black" d="M974.86,-143.89C975.44,-123.7 973.03,-90.53 953.5,-72 914.56,-35.06 753.31,-23.63 679.14,-20.29"/>
<polygon fill="black" stroke="black" points="678.99,-16.78 668.85,-19.86 678.69,-23.78 678.99,-16.78"/>
</g>
<!-- ast.Name object at 0x7f9392074e80 -->
<g id="node22" class="node">
<title>ast.Name object at 0x7f9392074e80</title>
<path fill="#66cdaa" stroke="black" d="M849.5,-108C849.5,-108 819.5,-108 819.5,-108 813.5,-108 807.5,-102 807.5,-96 807.5,-96 807.5,-84 807.5,-84 807.5,-78 813.5,-72 819.5,-72 819.5,-72 849.5,-72 849.5,-72 855.5,-72 861.5,-78 861.5,-84 861.5,-84 861.5,-96 861.5,-96 861.5,-102 855.5,-108 849.5,-108"/>
<text text-anchor="middle" x="834.5" y="-86.3" font-family="Times,serif" font-size="14.00">Name</text>
</g>
<!-- ast.BinOp object at 0x7f9392074ca0&#45;&gt;ast.Name object at 0x7f9392074e80 -->
<g id="edge26" class="edge">
<title>ast.BinOp object at 0x7f9392074ca0&#45;&gt;ast.Name object at 0x7f9392074e80</title>
<path fill="none" stroke="black" d="M860.1,-143.7C856.23,-135.73 851.55,-126.1 847.26,-117.26"/>
<polygon fill="black" stroke="black" points="850.33,-115.57 842.81,-108.1 844.03,-118.63 850.33,-115.57"/>
</g>
<!-- ast.Add object at 0x7f93d26f21a0 -->
<g id="node23" class="node">
<title>ast.Add object at 0x7f93d26f21a0</title>
<path fill="#66cdaa" stroke="black" d="M777.5,-108C777.5,-108 747.5,-108 747.5,-108 741.5,-108 735.5,-102 735.5,-96 735.5,-96 735.5,-84 735.5,-84 735.5,-78 741.5,-72 747.5,-72 747.5,-72 777.5,-72 777.5,-72 783.5,-72 789.5,-78 789.5,-84 789.5,-84 789.5,-96 789.5,-96 789.5,-102 783.5,-108 777.5,-108"/>
<text text-anchor="middle" x="762.5" y="-86.3" font-family="Times,serif" font-size="14.00">Add</text>
</g>
<!-- ast.BinOp object at 0x7f9392074ca0&#45;&gt;ast.Add object at 0x7f93d26f21a0 -->
<g id="edge28" class="edge">
<title>ast.BinOp object at 0x7f9392074ca0&#45;&gt;ast.Add object at 0x7f93d26f21a0</title>
<path fill="none" stroke="black" d="M842.57,-143.88C828.84,-134.81 811.79,-123.55 796.96,-113.76"/>
<polygon fill="black" stroke="black" points="798.8,-110.78 788.53,-108.19 794.95,-116.62 798.8,-110.78"/>
</g>
<!-- ast.Constant object at 0x7f9392076320 -->
<g id="node24" class="node">
<title>ast.Constant object at 0x7f9392076320</title>
<path fill="#66cdaa" stroke="black" d="M933,-108C933,-108 892,-108 892,-108 886,-108 880,-102 880,-96 880,-96 880,-84 880,-84 880,-78 886,-72 892,-72 892,-72 933,-72 933,-72 939,-72 945,-78 945,-84 945,-84 945,-96 945,-96 945,-102 939,-108 933,-108"/>
<text text-anchor="middle" x="912.5" y="-86.3" font-family="Times,serif" font-size="14.00">Constant</text>
</g>
<!-- ast.BinOp object at 0x7f9392074ca0&#45;&gt;ast.Constant object at 0x7f9392076320 -->
<g id="edge29" class="edge">
<title>ast.BinOp object at 0x7f9392074ca0&#45;&gt;ast.Constant object at 0x7f9392076320</title>
<path fill="none" stroke="black" d="M879.38,-143.7C884.49,-135.56 890.7,-125.69 896.34,-116.7"/>
<polygon fill="black" stroke="black" points="899.39,-118.43 901.75,-108.1 893.46,-114.71 899.39,-118.43"/>
</g>
<!-- ast.Name object at 0x7f9392074e80&#45;&gt;ast.Load object at 0x7f93d26f1f60 -->
<g id="edge27" class="edge">
<title>ast.Name object at 0x7f9392074e80&#45;&gt;ast.Load object at 0x7f93d26f1f60</title>
<path fill="none" stroke="black" d="M807.13,-75.67C804.23,-74.39 801.32,-73.14 798.5,-72 758.06,-55.69 710.46,-40.11 678.36,-30.12"/>
<polygon fill="black" stroke="black" points="679.1,-26.68 668.51,-27.07 677.03,-33.37 679.1,-26.68"/>
</g>
<!-- ast.Name object at 0x7f9392077190 -->
<g id="node26" class="node">
<title>ast.Name object at 0x7f9392077190</title>
<path fill="#66cdaa" stroke="black" d="M1115.5,-108C1115.5,-108 1085.5,-108 1085.5,-108 1079.5,-108 1073.5,-102 1073.5,-96 1073.5,-96 1073.5,-84 1073.5,-84 1073.5,-78 1079.5,-72 1085.5,-72 1085.5,-72 1115.5,-72 1115.5,-72 1121.5,-72 1127.5,-78 1127.5,-84 1127.5,-84 1127.5,-96 1127.5,-96 1127.5,-102 1121.5,-108 1115.5,-108"/>
<text text-anchor="middle" x="1100.5" y="-86.3" font-family="Times,serif" font-size="14.00">Name</text>
</g>
<!-- ast.Call object at 0x7f9392074dc0&#45;&gt;ast.Name object at 0x7f9392077190 -->
<g id="edge31" class="edge">
<title>ast.Call object at 0x7f9392074dc0&#45;&gt;ast.Name object at 0x7f9392077190</title>
<path fill="none" stroke="black" d="M1059.1,-143.7C1065.62,-135.39 1073.57,-125.28 1080.75,-116.14"/>
<polygon fill="black" stroke="black" points="1083.63,-118.13 1087.06,-108.1 1078.13,-113.81 1083.63,-118.13"/>
</g>
<!-- ast.Name object at 0x7f93920762c0 -->
<g id="node27" class="node">
<title>ast.Name object at 0x7f93920762c0</title>
<path fill="#66cdaa" stroke="black" d="M1043.5,-108C1043.5,-108 1013.5,-108 1013.5,-108 1007.5,-108 1001.5,-102 1001.5,-96 1001.5,-96 1001.5,-84 1001.5,-84 1001.5,-78 1007.5,-72 1013.5,-72 1013.5,-72 1043.5,-72 1043.5,-72 1049.5,-72 1055.5,-78 1055.5,-84 1055.5,-84 1055.5,-96 1055.5,-96 1055.5,-102 1049.5,-108 1043.5,-108"/>
<text text-anchor="middle" x="1028.5" y="-86.3" font-family="Times,serif" font-size="14.00">Name</text>
</g>
<!-- ast.Call object at 0x7f9392074dc0&#45;&gt;ast.Name object at 0x7f93920762c0 -->
<g id="edge33" class="edge">
<title>ast.Call object at 0x7f9392074dc0&#45;&gt;ast.Name object at 0x7f93920762c0</title>
<path fill="none" stroke="black" d="M1041.3,-143.7C1039.4,-135.9 1037.12,-126.51 1035.02,-117.83"/>
<polygon fill="black" stroke="black" points="1038.42,-117 1032.65,-108.1 1031.61,-118.65 1038.42,-117"/>
</g>
<!-- ast.Name object at 0x7f9392077190&#45;&gt;ast.Load object at 0x7f93d26f1f60 -->
<g id="edge32" class="edge">
<title>ast.Name object at 0x7f9392077190&#45;&gt;ast.Load object at 0x7f93d26f1f60</title>
<path fill="none" stroke="black" d="M1073.33,-75.08C1070.4,-73.91 1067.42,-72.85 1064.5,-72 926.31,-31.83 754.02,-22.1 679.15,-19.75"/>
<polygon fill="black" stroke="black" points="678.92,-16.24 668.82,-19.45 678.72,-23.24 678.92,-16.24"/>
</g>
<!-- ast.Name object at 0x7f93920762c0&#45;&gt;ast.Load object at 0x7f93d26f1f60 -->
<g id="edge34" class="edge">
<title>ast.Name object at 0x7f93920762c0&#45;&gt;ast.Load object at 0x7f93d26f1f60</title>
<path fill="none" stroke="black" d="M1001.48,-76.72C996.88,-74.95 992.1,-73.29 987.5,-72 877.73,-41.32 743.08,-27.15 678.93,-21.76"/>
<polygon fill="black" stroke="black" points="679.14,-18.27 668.89,-20.94 678.57,-25.24 679.14,-18.27"/>
</g>
<!-- ast.Compare object at 0x7f9392076a10 -->
<g id="node29" class="node">
<title>ast.Compare object at 0x7f9392076a10</title>
<path fill="#66cdaa" stroke="black" d="M621,-468C621,-468 578,-468 578,-468 572,-468 566,-462 566,-456 566,-456 566,-444 566,-444 566,-438 572,-432 578,-432 578,-432 621,-432 621,-432 627,-432 633,-438 633,-444 633,-444 633,-456 633,-456 633,-462 627,-468 621,-468"/>
<text text-anchor="middle" x="599.5" y="-446.3" font-family="Times,serif" font-size="14.00">Compare</text>
</g>
<!-- ast.If object at 0x7f9392076500&#45;&gt;ast.Compare object at 0x7f9392076a10 -->
<g id="edge36" class="edge">
<title>ast.If object at 0x7f9392076500&#45;&gt;ast.Compare object at 0x7f9392076a10</title>
<path fill="none" stroke="black" d="M633.38,-503.7C628.14,-495.56 621.8,-485.69 616.02,-476.7"/>
<polygon fill="black" stroke="black" points="618.85,-474.62 610.5,-468.1 612.96,-478.41 618.85,-474.62"/>
</g>
<!-- ast.AugAssign object at 0x7f9392074f10 -->
<g id="node45" class="node">
<title>ast.AugAssign object at 0x7f9392074f10</title>
<path fill="#66cdaa" stroke="black" d="M746,-468C746,-468 693,-468 693,-468 687,-468 681,-462 681,-456 681,-456 681,-444 681,-444 681,-438 687,-432 693,-432 693,-432 746,-432 746,-432 752,-432 758,-438 758,-444 758,-444 758,-456 758,-456 758,-462 752,-468 746,-468"/>
<text text-anchor="middle" x="719.5" y="-446.3" font-family="Times,serif" font-size="14.00">AugAssign</text>
</g>
<!-- ast.If object at 0x7f9392076500&#45;&gt;ast.AugAssign object at 0x7f9392074f10 -->
<g id="edge62" class="edge">
<title>ast.If object at 0x7f9392076500&#45;&gt;ast.AugAssign object at 0x7f9392074f10</title>
<path fill="none" stroke="black" d="M663.04,-503.7C672.3,-495.05 683.66,-484.45 693.76,-475.03"/>
<polygon fill="black" stroke="black" points="696.25,-477.49 701.17,-468.1 691.48,-472.37 696.25,-477.49"/>
</g>
<!-- ast.If object at 0x7f9392076a40 -->
<g id="node48" class="node">
<title>ast.If object at 0x7f9392076a40</title>
<path fill="#66cdaa" stroke="black" d="M203.5,-468C203.5,-468 173.5,-468 173.5,-468 167.5,-468 161.5,-462 161.5,-456 161.5,-456 161.5,-444 161.5,-444 161.5,-438 167.5,-432 173.5,-432 173.5,-432 203.5,-432 203.5,-432 209.5,-432 215.5,-438 215.5,-444 215.5,-444 215.5,-456 215.5,-456 215.5,-462 209.5,-468 203.5,-468"/>
<text text-anchor="middle" x="188.5" y="-446.3" font-family="Times,serif" font-size="14.00">If</text>
</g>
<!-- ast.If object at 0x7f9392076500&#45;&gt;ast.If object at 0x7f9392076a40 -->
<g id="edge67" class="edge">
<title>ast.If object at 0x7f9392076500&#45;&gt;ast.If object at 0x7f9392076a40</title>
<path fill="none" stroke="black" d="M617.34,-516.83C539.33,-504.85 314.47,-470.34 225.44,-456.67"/>
<polygon fill="black" stroke="black" points="225.93,-453.21 215.52,-455.15 224.87,-460.12 225.93,-453.21"/>
</g>
<!-- ast.Call object at 0x7f93920773a0 -->
<g id="node30" class="node">
<title>ast.Call object at 0x7f93920773a0</title>
<path fill="#66cdaa" stroke="black" d="M451.5,-396C451.5,-396 421.5,-396 421.5,-396 415.5,-396 409.5,-390 409.5,-384 409.5,-384 409.5,-372 409.5,-372 409.5,-366 415.5,-360 421.5,-360 421.5,-360 451.5,-360 451.5,-360 457.5,-360 463.5,-366 463.5,-372 463.5,-372 463.5,-384 463.5,-384 463.5,-390 457.5,-396 451.5,-396"/>
<text text-anchor="middle" x="436.5" y="-374.3" font-family="Times,serif" font-size="14.00">Call</text>
</g>
<!-- ast.Compare object at 0x7f9392076a10&#45;&gt;ast.Call object at 0x7f93920773a0 -->
<g id="edge37" class="edge">
<title>ast.Compare object at 0x7f9392076a10&#45;&gt;ast.Call object at 0x7f93920773a0</title>
<path fill="none" stroke="black" d="M565.73,-434.5C538.7,-422.89 500.86,-406.64 473.11,-394.72"/>
<polygon fill="black" stroke="black" points="474.32,-391.43 463.75,-390.7 471.56,-397.87 474.32,-391.43"/>
</g>
<!-- ast.Eq object at 0x7f93d26f2890 -->
<g id="node37" class="node">
<title>ast.Eq object at 0x7f93d26f2890</title>
<path fill="#66cdaa" stroke="black" d="M635.5,-396C635.5,-396 605.5,-396 605.5,-396 599.5,-396 593.5,-390 593.5,-384 593.5,-384 593.5,-372 593.5,-372 593.5,-366 599.5,-360 605.5,-360 605.5,-360 635.5,-360 635.5,-360 641.5,-360 647.5,-366 647.5,-372 647.5,-372 647.5,-384 647.5,-384 647.5,-390 641.5,-396 635.5,-396"/>
<text text-anchor="middle" x="620.5" y="-374.3" font-family="Times,serif" font-size="14.00">Eq</text>
</g>
<!-- ast.Compare object at 0x7f9392076a10&#45;&gt;ast.Eq object at 0x7f93d26f2890 -->
<g id="edge49" class="edge">
<title>ast.Compare object at 0x7f9392076a10&#45;&gt;ast.Eq object at 0x7f93d26f2890</title>
<path fill="none" stroke="black" d="M604.69,-431.7C607.03,-423.9 609.85,-414.51 612.45,-405.83"/>
<polygon fill="black" stroke="black" points="615.85,-406.69 615.37,-396.1 609.14,-404.68 615.85,-406.69"/>
</g>
<!-- ast.Call object at 0x7f9392075b40 -->
<g id="node38" class="node">
<title>ast.Call object at 0x7f9392075b40</title>
<path fill="#66cdaa" stroke="black" d="M563.5,-396C563.5,-396 533.5,-396 533.5,-396 527.5,-396 521.5,-390 521.5,-384 521.5,-384 521.5,-372 521.5,-372 521.5,-366 527.5,-360 533.5,-360 533.5,-360 563.5,-360 563.5,-360 569.5,-360 575.5,-366 575.5,-372 575.5,-372 575.5,-384 575.5,-384 575.5,-390 569.5,-396 563.5,-396"/>
<text text-anchor="middle" x="548.5" y="-374.3" font-family="Times,serif" font-size="14.00">Call</text>
</g>
<!-- ast.Compare object at 0x7f9392076a10&#45;&gt;ast.Call object at 0x7f9392075b40 -->
<g id="edge50" class="edge">
<title>ast.Compare object at 0x7f9392076a10&#45;&gt;ast.Call object at 0x7f9392075b40</title>
<path fill="none" stroke="black" d="M586.89,-431.7C580.9,-423.47 573.62,-413.48 567.02,-404.42"/>
<polygon fill="black" stroke="black" points="569.68,-402.13 560.96,-396.1 564.02,-406.25 569.68,-402.13"/>
</g>
<!-- ast.Name object at 0x7f9392076b30 -->
<g id="node31" class="node">
<title>ast.Name object at 0x7f9392076b30</title>
<path fill="#66cdaa" stroke="black" d="M346.5,-252C346.5,-252 316.5,-252 316.5,-252 310.5,-252 304.5,-246 304.5,-240 304.5,-240 304.5,-228 304.5,-228 304.5,-222 310.5,-216 316.5,-216 316.5,-216 346.5,-216 346.5,-216 352.5,-216 358.5,-222 358.5,-228 358.5,-228 358.5,-240 358.5,-240 358.5,-246 352.5,-252 346.5,-252"/>
<text text-anchor="middle" x="331.5" y="-230.3" font-family="Times,serif" font-size="14.00">Name</text>
</g>
<!-- ast.Call object at 0x7f93920773a0&#45;&gt;ast.Name object at 0x7f9392076b30 -->
<g id="edge38" class="edge">
<title>ast.Call object at 0x7f93920773a0&#45;&gt;ast.Name object at 0x7f9392076b30</title>
<path fill="none" stroke="black" d="M423.83,-359.87C405.55,-335.14 371.61,-289.24 350.36,-260.51"/>
<polygon fill="black" stroke="black" points="352.97,-258.15 344.21,-252.19 347.34,-262.31 352.97,-258.15"/>
</g>
<!-- ast.Call object at 0x7f93920772b0 -->
<g id="node32" class="node">
<title>ast.Call object at 0x7f93920772b0</title>
<path fill="#66cdaa" stroke="black" d="M451.5,-324C451.5,-324 421.5,-324 421.5,-324 415.5,-324 409.5,-318 409.5,-312 409.5,-312 409.5,-300 409.5,-300 409.5,-294 415.5,-288 421.5,-288 421.5,-288 451.5,-288 451.5,-288 457.5,-288 463.5,-294 463.5,-300 463.5,-300 463.5,-312 463.5,-312 463.5,-318 457.5,-324 451.5,-324"/>
<text text-anchor="middle" x="436.5" y="-302.3" font-family="Times,serif" font-size="14.00">Call</text>
</g>
<!-- ast.Call object at 0x7f93920773a0&#45;&gt;ast.Call object at 0x7f93920772b0 -->
<g id="edge40" class="edge">
<title>ast.Call object at 0x7f93920773a0&#45;&gt;ast.Call object at 0x7f93920772b0</title>
<path fill="none" stroke="black" d="M436.5,-359.7C436.5,-351.98 436.5,-342.71 436.5,-334.11"/>
<polygon fill="black" stroke="black" points="440,-334.1 436.5,-324.1 433,-334.1 440,-334.1"/>
</g>
<!-- ast.Name object at 0x7f9392076b30&#45;&gt;ast.Load object at 0x7f93d26f1f60 -->
<g id="edge39" class="edge">
<title>ast.Name object at 0x7f9392076b30&#45;&gt;ast.Load object at 0x7f93d26f1f60</title>
<path fill="none" stroke="black" d="M315.95,-215.88C288.88,-184.01 239.39,-114.89 276.5,-72 318.64,-23.3 519.9,-18.41 604.21,-18.55"/>
<polygon fill="black" stroke="black" points="604.35,-22.05 614.37,-18.59 604.38,-15.05 604.35,-22.05"/>
</g>
<!-- ast.Attribute object at 0x7f9392075c60 -->
<g id="node33" class="node">
<title>ast.Attribute object at 0x7f9392075c60</title>
<path fill="#66cdaa" stroke="black" d="M457,-252C457,-252 416,-252 416,-252 410,-252 404,-246 404,-240 404,-240 404,-228 404,-228 404,-222 410,-216 416,-216 416,-216 457,-216 457,-216 463,-216 469,-222 469,-228 469,-228 469,-240 469,-240 469,-246 463,-252 457,-252"/>
<text text-anchor="middle" x="436.5" y="-230.3" font-family="Times,serif" font-size="14.00">Attribute</text>
</g>
<!-- ast.Call object at 0x7f93920772b0&#45;&gt;ast.Attribute object at 0x7f9392075c60 -->
<g id="edge41" class="edge">
<title>ast.Call object at 0x7f93920772b0&#45;&gt;ast.Attribute object at 0x7f9392075c60</title>
<path fill="none" stroke="black" d="M436.5,-287.7C436.5,-279.98 436.5,-270.71 436.5,-262.11"/>
<polygon fill="black" stroke="black" points="440,-262.1 436.5,-252.1 433,-262.1 440,-262.1"/>
</g>
<!-- ast.Attribute object at 0x7f9392075c60&#45;&gt;ast.Load object at 0x7f93d26f1f60 -->
<g id="edge48" class="edge">
<title>ast.Attribute object at 0x7f9392075c60&#45;&gt;ast.Load object at 0x7f93d26f1f60</title>
<path fill="none" stroke="black" d="M437.57,-215.91C440.5,-183.45 451.4,-112.52 491.5,-72 521.78,-41.4 570.8,-28.41 604.51,-22.94"/>
<polygon fill="black" stroke="black" points="605.06,-26.39 614.44,-21.47 604.04,-19.47 605.06,-26.39"/>
</g>
<!-- ast.Subscript object at 0x7f9392075780 -->
<g id="node34" class="node">
<title>ast.Subscript object at 0x7f9392075780</title>
<path fill="#66cdaa" stroke="black" d="M376.5,-180C376.5,-180 332.5,-180 332.5,-180 326.5,-180 320.5,-174 320.5,-168 320.5,-168 320.5,-156 320.5,-156 320.5,-150 326.5,-144 332.5,-144 332.5,-144 376.5,-144 376.5,-144 382.5,-144 388.5,-150 388.5,-156 388.5,-156 388.5,-168 388.5,-168 388.5,-174 382.5,-180 376.5,-180"/>
<text text-anchor="middle" x="354.5" y="-158.3" font-family="Times,serif" font-size="14.00">Subscript</text>
</g>
<!-- ast.Attribute object at 0x7f9392075c60&#45;&gt;ast.Subscript object at 0x7f9392075780 -->
<g id="edge42" class="edge">
<title>ast.Attribute object at 0x7f9392075c60&#45;&gt;ast.Subscript object at 0x7f9392075780</title>
<path fill="none" stroke="black" d="M416.23,-215.7C406,-206.97 393.44,-196.24 382.32,-186.75"/>
<polygon fill="black" stroke="black" points="384.41,-183.94 374.54,-180.1 379.87,-189.26 384.41,-183.94"/>
</g>
<!-- ast.Subscript object at 0x7f9392075780&#45;&gt;ast.Load object at 0x7f93d26f1f60 -->
<g id="edge47" class="edge">
<title>ast.Subscript object at 0x7f9392075780&#45;&gt;ast.Load object at 0x7f93d26f1f60</title>
<path fill="none" stroke="black" d="M321.14,-143.86C307.79,-135.09 293.86,-123.06 286.5,-108 279.48,-93.62 276.05,-84.12 286.5,-72 327.23,-24.74 521.41,-18.99 604.09,-18.72"/>
<polygon fill="black" stroke="black" points="604.3,-22.22 614.29,-18.72 604.29,-15.22 604.3,-22.22"/>
</g>
<!-- ast.Name object at 0x7f93920766b0 -->
<g id="node35" class="node">
<title>ast.Name object at 0x7f93920766b0</title>
<path fill="#66cdaa" stroke="black" d="M337.5,-108C337.5,-108 307.5,-108 307.5,-108 301.5,-108 295.5,-102 295.5,-96 295.5,-96 295.5,-84 295.5,-84 295.5,-78 301.5,-72 307.5,-72 307.5,-72 337.5,-72 337.5,-72 343.5,-72 349.5,-78 349.5,-84 349.5,-84 349.5,-96 349.5,-96 349.5,-102 343.5,-108 337.5,-108"/>
<text text-anchor="middle" x="322.5" y="-86.3" font-family="Times,serif" font-size="14.00">Name</text>
</g>
<!-- ast.Subscript object at 0x7f9392075780&#45;&gt;ast.Name object at 0x7f93920766b0 -->
<g id="edge43" class="edge">
<title>ast.Subscript object at 0x7f9392075780&#45;&gt;ast.Name object at 0x7f93920766b0</title>
<path fill="none" stroke="black" d="M346.59,-143.7C342.95,-135.73 338.55,-126.1 334.51,-117.26"/>
<polygon fill="black" stroke="black" points="337.66,-115.74 330.32,-108.1 331.29,-118.65 337.66,-115.74"/>
</g>
<!-- ast.Name object at 0x7f93920746d0 -->
<g id="node36" class="node">
<title>ast.Name object at 0x7f93920746d0</title>
<path fill="#66cdaa" stroke="black" d="M409.5,-108C409.5,-108 379.5,-108 379.5,-108 373.5,-108 367.5,-102 367.5,-96 367.5,-96 367.5,-84 367.5,-84 367.5,-78 373.5,-72 379.5,-72 379.5,-72 409.5,-72 409.5,-72 415.5,-72 421.5,-78 421.5,-84 421.5,-84 421.5,-96 421.5,-96 421.5,-102 415.5,-108 409.5,-108"/>
<text text-anchor="middle" x="394.5" y="-86.3" font-family="Times,serif" font-size="14.00">Name</text>
</g>
<!-- ast.Subscript object at 0x7f9392075780&#45;&gt;ast.Name object at 0x7f93920746d0 -->
<g id="edge45" class="edge">
<title>ast.Subscript object at 0x7f9392075780&#45;&gt;ast.Name object at 0x7f93920746d0</title>
<path fill="none" stroke="black" d="M364.39,-143.7C368.99,-135.64 374.56,-125.89 379.65,-116.98"/>
<polygon fill="black" stroke="black" points="382.8,-118.52 384.73,-108.1 376.73,-115.05 382.8,-118.52"/>
</g>
<!-- ast.Name object at 0x7f93920766b0&#45;&gt;ast.Load object at 0x7f93d26f1f60 -->
<g id="edge44" class="edge">
<title>ast.Name object at 0x7f93920766b0&#45;&gt;ast.Load object at 0x7f93d26f1f60</title>
<path fill="none" stroke="black" d="M349.72,-75.26C352.64,-74.05 355.61,-72.94 358.5,-72 444.28,-44.22 549.67,-29.28 604.46,-22.87"/>
<polygon fill="black" stroke="black" points="604.86,-26.35 614.4,-21.74 604.07,-19.39 604.86,-26.35"/>
</g>
<!-- ast.Name object at 0x7f93920746d0&#45;&gt;ast.Load object at 0x7f93d26f1f60 -->
<g id="edge46" class="edge">
<title>ast.Name object at 0x7f93920746d0&#45;&gt;ast.Load object at 0x7f93d26f1f60</title>
<path fill="none" stroke="black" d="M421.64,-77.12C426.23,-75.29 430.97,-73.51 435.5,-72 493.62,-52.58 562.95,-36.07 604.53,-26.85"/>
<polygon fill="black" stroke="black" points="605.46,-30.23 614.48,-24.67 603.96,-23.39 605.46,-30.23"/>
</g>
<!-- ast.Name object at 0x7f93920768c0 -->
<g id="node39" class="node">
<title>ast.Name object at 0x7f93920768c0</title>
<path fill="#66cdaa" stroke="black" d="M680.5,-252C680.5,-252 650.5,-252 650.5,-252 644.5,-252 638.5,-246 638.5,-240 638.5,-240 638.5,-228 638.5,-228 638.5,-222 644.5,-216 650.5,-216 650.5,-216 680.5,-216 680.5,-216 686.5,-216 692.5,-222 692.5,-228 692.5,-228 692.5,-240 692.5,-240 692.5,-246 686.5,-252 680.5,-252"/>
<text text-anchor="middle" x="665.5" y="-230.3" font-family="Times,serif" font-size="14.00">Name</text>
</g>
<!-- ast.Call object at 0x7f9392075b40&#45;&gt;ast.Name object at 0x7f93920768c0 -->
<g id="edge51" class="edge">
<title>ast.Call object at 0x7f9392075b40&#45;&gt;ast.Name object at 0x7f93920768c0</title>
<path fill="none" stroke="black" d="M562.61,-359.87C583.08,-335.03 621.13,-288.85 644.78,-260.14"/>
<polygon fill="black" stroke="black" points="647.68,-262.13 651.34,-252.19 642.28,-257.68 647.68,-262.13"/>
</g>
<!-- ast.Call object at 0x7f9392076c20 -->
<g id="node40" class="node">
<title>ast.Call object at 0x7f9392076c20</title>
<path fill="#66cdaa" stroke="black" d="M563.5,-324C563.5,-324 533.5,-324 533.5,-324 527.5,-324 521.5,-318 521.5,-312 521.5,-312 521.5,-300 521.5,-300 521.5,-294 527.5,-288 533.5,-288 533.5,-288 563.5,-288 563.5,-288 569.5,-288 575.5,-294 575.5,-300 575.5,-300 575.5,-312 575.5,-312 575.5,-318 569.5,-324 563.5,-324"/>
<text text-anchor="middle" x="548.5" y="-302.3" font-family="Times,serif" font-size="14.00">Call</text>
</g>
<!-- ast.Call object at 0x7f9392075b40&#45;&gt;ast.Call object at 0x7f9392076c20 -->
<g id="edge53" class="edge">
<title>ast.Call object at 0x7f9392075b40&#45;&gt;ast.Call object at 0x7f9392076c20</title>
<path fill="none" stroke="black" d="M548.5,-359.7C548.5,-351.98 548.5,-342.71 548.5,-334.11"/>
<polygon fill="black" stroke="black" points="552,-334.1 548.5,-324.1 545,-334.1 552,-334.1"/>
</g>
<!-- ast.Name object at 0x7f93920768c0&#45;&gt;ast.Load object at 0x7f93d26f1f60 -->
<g id="edge52" class="edge">
<title>ast.Name object at 0x7f93920768c0&#45;&gt;ast.Load object at 0x7f93d26f1f60</title>
<path fill="none" stroke="black" d="M668.62,-215.77C673.4,-185.98 680.77,-123.11 668.5,-72 666.29,-62.81 662.21,-53.41 657.88,-45.13"/>
<polygon fill="black" stroke="black" points="660.9,-43.36 652.97,-36.33 654.78,-46.77 660.9,-43.36"/>
</g>
<!-- ast.Attribute object at 0x7f9392076110 -->
<g id="node41" class="node">
<title>ast.Attribute object at 0x7f9392076110</title>
<path fill="#66cdaa" stroke="black" d="M569,-252C569,-252 528,-252 528,-252 522,-252 516,-246 516,-240 516,-240 516,-228 516,-228 516,-222 522,-216 528,-216 528,-216 569,-216 569,-216 575,-216 581,-222 581,-228 581,-228 581,-240 581,-240 581,-246 575,-252 569,-252"/>
<text text-anchor="middle" x="548.5" y="-230.3" font-family="Times,serif" font-size="14.00">Attribute</text>
</g>
<!-- ast.Call object at 0x7f9392076c20&#45;&gt;ast.Attribute object at 0x7f9392076110 -->
<g id="edge54" class="edge">
<title>ast.Call object at 0x7f9392076c20&#45;&gt;ast.Attribute object at 0x7f9392076110</title>
<path fill="none" stroke="black" d="M548.5,-287.7C548.5,-279.98 548.5,-270.71 548.5,-262.11"/>
<polygon fill="black" stroke="black" points="552,-262.1 548.5,-252.1 545,-262.1 552,-262.1"/>
</g>
<!-- ast.Attribute object at 0x7f9392076110&#45;&gt;ast.Load object at 0x7f93d26f1f60 -->
<g id="edge61" class="edge">
<title>ast.Attribute object at 0x7f9392076110&#45;&gt;ast.Load object at 0x7f93d26f1f60</title>
<path fill="none" stroke="black" d="M535.74,-215.95C514.1,-184.77 475.42,-117.59 506.5,-72 528.23,-40.13 572.29,-27.42 604.18,-22.36"/>
<polygon fill="black" stroke="black" points="605.06,-25.77 614.47,-20.92 604.09,-18.84 605.06,-25.77"/>
</g>
<!-- ast.Subscript object at 0x7f9392076050 -->
<g id="node42" class="node">
<title>ast.Subscript object at 0x7f9392076050</title>
<path fill="#66cdaa" stroke="black" d="M603.5,-180C603.5,-180 559.5,-180 559.5,-180 553.5,-180 547.5,-174 547.5,-168 547.5,-168 547.5,-156 547.5,-156 547.5,-150 553.5,-144 559.5,-144 559.5,-144 603.5,-144 603.5,-144 609.5,-144 615.5,-150 615.5,-156 615.5,-156 615.5,-168 615.5,-168 615.5,-174 609.5,-180 603.5,-180"/>
<text text-anchor="middle" x="581.5" y="-158.3" font-family="Times,serif" font-size="14.00">Subscript</text>
</g>
<!-- ast.Attribute object at 0x7f9392076110&#45;&gt;ast.Subscript object at 0x7f9392076050 -->
<g id="edge55" class="edge">
<title>ast.Attribute object at 0x7f9392076110&#45;&gt;ast.Subscript object at 0x7f9392076050</title>
<path fill="none" stroke="black" d="M556.66,-215.7C560.41,-207.73 564.95,-198.1 569.12,-189.26"/>
<polygon fill="black" stroke="black" points="572.34,-190.64 573.44,-180.1 566.01,-187.66 572.34,-190.64"/>
</g>
<!-- ast.Subscript object at 0x7f9392076050&#45;&gt;ast.Load object at 0x7f93d26f1f60 -->
<g id="edge60" class="edge">
<title>ast.Subscript object at 0x7f9392076050&#45;&gt;ast.Load object at 0x7f93d26f1f60</title>
<path fill="none" stroke="black" d="M615.34,-143.96C628.88,-135.22 643.02,-123.17 650.5,-108 660.01,-88.7 656.59,-64.21 651.45,-45.81"/>
<polygon fill="black" stroke="black" points="654.72,-44.53 648.4,-36.03 648.03,-46.62 654.72,-44.53"/>
</g>
<!-- ast.Name object at 0x7f9392076bc0 -->
<g id="node43" class="node">
<title>ast.Name object at 0x7f9392076bc0</title>
<path fill="#66cdaa" stroke="black" d="M557.5,-108C557.5,-108 527.5,-108 527.5,-108 521.5,-108 515.5,-102 515.5,-96 515.5,-96 515.5,-84 515.5,-84 515.5,-78 521.5,-72 527.5,-72 527.5,-72 557.5,-72 557.5,-72 563.5,-72 569.5,-78 569.5,-84 569.5,-84 569.5,-96 569.5,-96 569.5,-102 563.5,-108 557.5,-108"/>
<text text-anchor="middle" x="542.5" y="-86.3" font-family="Times,serif" font-size="14.00">Name</text>
</g>
<!-- ast.Subscript object at 0x7f9392076050&#45;&gt;ast.Name object at 0x7f9392076bc0 -->
<g id="edge56" class="edge">
<title>ast.Subscript object at 0x7f9392076050&#45;&gt;ast.Name object at 0x7f9392076bc0</title>
<path fill="none" stroke="black" d="M571.86,-143.7C567.37,-135.64 561.94,-125.89 556.98,-116.98"/>
<polygon fill="black" stroke="black" points="559.95,-115.14 552.03,-108.1 553.84,-118.54 559.95,-115.14"/>
</g>
<!-- ast.Name object at 0x7f9392075bd0 -->
<g id="node44" class="node">
<title>ast.Name object at 0x7f9392075bd0</title>
<path fill="#66cdaa" stroke="black" d="M629.5,-108C629.5,-108 599.5,-108 599.5,-108 593.5,-108 587.5,-102 587.5,-96 587.5,-96 587.5,-84 587.5,-84 587.5,-78 593.5,-72 599.5,-72 599.5,-72 629.5,-72 629.5,-72 635.5,-72 641.5,-78 641.5,-84 641.5,-84 641.5,-96 641.5,-96 641.5,-102 635.5,-108 629.5,-108"/>
<text text-anchor="middle" x="614.5" y="-86.3" font-family="Times,serif" font-size="14.00">Name</text>
</g>
<!-- ast.Subscript object at 0x7f9392076050&#45;&gt;ast.Name object at 0x7f9392075bd0 -->
<g id="edge58" class="edge">
<title>ast.Subscript object at 0x7f9392076050&#45;&gt;ast.Name object at 0x7f9392075bd0</title>
<path fill="none" stroke="black" d="M589.66,-143.7C593.41,-135.73 597.95,-126.1 602.12,-117.26"/>
<polygon fill="black" stroke="black" points="605.34,-118.64 606.44,-108.1 599.01,-115.66 605.34,-118.64"/>
</g>
<!-- ast.Name object at 0x7f9392076bc0&#45;&gt;ast.Load object at 0x7f93d26f1f60 -->
<g id="edge57" class="edge">
<title>ast.Name object at 0x7f9392076bc0&#45;&gt;ast.Load object at 0x7f93d26f1f60</title>
<path fill="none" stroke="black" d="M566.72,-71.88C579.42,-62.89 595.16,-51.76 608.92,-42.03"/>
<polygon fill="black" stroke="black" points="611.04,-44.82 617.19,-36.19 607,-39.11 611.04,-44.82"/>
</g>
<!-- ast.Name object at 0x7f9392075bd0&#45;&gt;ast.Load object at 0x7f93d26f1f60 -->
<g id="edge59" class="edge">
<title>ast.Name object at 0x7f9392075bd0&#45;&gt;ast.Load object at 0x7f93d26f1f60</title>
<path fill="none" stroke="black" d="M621.17,-71.7C624.21,-63.81 627.88,-54.3 631.26,-45.55"/>
<polygon fill="black" stroke="black" points="634.57,-46.69 634.9,-36.1 628.04,-44.17 634.57,-46.69"/>
</g>
<!-- ast.AugAssign object at 0x7f9392074f10&#45;&gt;ast.Add object at 0x7f93d26f21a0 -->
<g id="edge65" class="edge">
<title>ast.AugAssign object at 0x7f9392074f10&#45;&gt;ast.Add object at 0x7f93d26f21a0</title>
<path fill="none" stroke="black" d="M727.59,-431.95C739.28,-405.72 759.5,-353.61 759.5,-307 759.5,-307 759.5,-307 759.5,-233 759.5,-192.99 760.71,-146.65 761.59,-118.08"/>
<polygon fill="black" stroke="black" points="765.09,-118.15 761.91,-108.05 758.09,-117.93 765.09,-118.15"/>
</g>
<!-- ast.Name object at 0x7f93920744c0 -->
<g id="node46" class="node">
<title>ast.Name object at 0x7f93920744c0</title>
<path fill="#66cdaa" stroke="black" d="M829.5,-396C829.5,-396 799.5,-396 799.5,-396 793.5,-396 787.5,-390 787.5,-384 787.5,-384 787.5,-372 787.5,-372 787.5,-366 793.5,-360 799.5,-360 799.5,-360 829.5,-360 829.5,-360 835.5,-360 841.5,-366 841.5,-372 841.5,-372 841.5,-384 841.5,-384 841.5,-390 835.5,-396 829.5,-396"/>
<text text-anchor="middle" x="814.5" y="-374.3" font-family="Times,serif" font-size="14.00">Name</text>
</g>
<!-- ast.AugAssign object at 0x7f9392074f10&#45;&gt;ast.Name object at 0x7f93920744c0 -->
<g id="edge63" class="edge">
<title>ast.AugAssign object at 0x7f9392074f10&#45;&gt;ast.Name object at 0x7f93920744c0</title>
<path fill="none" stroke="black" d="M742.98,-431.7C755.06,-422.8 769.95,-411.82 783.02,-402.2"/>
<polygon fill="black" stroke="black" points="785.31,-404.85 791.29,-396.1 781.16,-399.22 785.31,-404.85"/>
</g>
<!-- ast.Constant object at 0x7f9392077070 -->
<g id="node47" class="node">
<title>ast.Constant object at 0x7f9392077070</title>
<path fill="#66cdaa" stroke="black" d="M719,-396C719,-396 678,-396 678,-396 672,-396 666,-390 666,-384 666,-384 666,-372 666,-372 666,-366 672,-360 678,-360 678,-360 719,-360 719,-360 725,-360 731,-366 731,-372 731,-372 731,-384 731,-384 731,-390 725,-396 719,-396"/>
<text text-anchor="middle" x="698.5" y="-374.3" font-family="Times,serif" font-size="14.00">Constant</text>
</g>
<!-- ast.AugAssign object at 0x7f9392074f10&#45;&gt;ast.Constant object at 0x7f9392077070 -->
<g id="edge66" class="edge">
<title>ast.AugAssign object at 0x7f9392074f10&#45;&gt;ast.Constant object at 0x7f9392077070</title>
<path fill="none" stroke="black" d="M714.31,-431.7C711.97,-423.9 709.15,-414.51 706.55,-405.83"/>
<polygon fill="black" stroke="black" points="709.86,-404.68 703.63,-396.1 703.15,-406.69 709.86,-404.68"/>
</g>
<!-- ast.Name object at 0x7f93920744c0&#45;&gt;ast.Store object at 0x7f93d26f1fc0 -->
<g id="edge64" class="edge">
<title>ast.Name object at 0x7f93920744c0&#45;&gt;ast.Store object at 0x7f93d26f1fc0</title>
<path fill="none" stroke="black" d="M833.78,-359.7C843.42,-351.05 855.23,-340.45 865.73,-331.03"/>
<polygon fill="black" stroke="black" points="868.34,-333.39 873.44,-324.1 863.66,-328.18 868.34,-333.39"/>
</g>
<!-- ast.Compare object at 0x7f9392075e10 -->
<g id="node49" class="node">
<title>ast.Compare object at 0x7f9392075e10</title>
<path fill="#66cdaa" stroke="black" d="M210,-396C210,-396 167,-396 167,-396 161,-396 155,-390 155,-384 155,-384 155,-372 155,-372 155,-366 161,-360 167,-360 167,-360 210,-360 210,-360 216,-360 222,-366 222,-372 222,-372 222,-384 222,-384 222,-390 216,-396 210,-396"/>
<text text-anchor="middle" x="188.5" y="-374.3" font-family="Times,serif" font-size="14.00">Compare</text>
</g>
<!-- ast.If object at 0x7f9392076a40&#45;&gt;ast.Compare object at 0x7f9392075e10 -->
<g id="edge68" class="edge">
<title>ast.If object at 0x7f9392076a40&#45;&gt;ast.Compare object at 0x7f9392075e10</title>
<path fill="none" stroke="black" d="M188.5,-431.7C188.5,-423.98 188.5,-414.71 188.5,-406.11"/>
<polygon fill="black" stroke="black" points="192,-406.1 188.5,-396.1 185,-406.1 192,-406.1"/>
</g>
<!-- ast.Return object at 0x7f93920756c0 -->
<g id="node53" class="node">
<title>ast.Return object at 0x7f93920756c0</title>
<path fill="#66cdaa" stroke="black" d="M86.5,-396C86.5,-396 56.5,-396 56.5,-396 50.5,-396 44.5,-390 44.5,-384 44.5,-384 44.5,-372 44.5,-372 44.5,-366 50.5,-360 56.5,-360 56.5,-360 86.5,-360 86.5,-360 92.5,-360 98.5,-366 98.5,-372 98.5,-372 98.5,-384 98.5,-384 98.5,-390 92.5,-396 86.5,-396"/>
<text text-anchor="middle" x="71.5" y="-374.3" font-family="Times,serif" font-size="14.00">Return</text>
</g>
<!-- ast.If object at 0x7f9392076a40&#45;&gt;ast.Return object at 0x7f93920756c0 -->
<g id="edge73" class="edge">
<title>ast.If object at 0x7f9392076a40&#45;&gt;ast.Return object at 0x7f93920756c0</title>
<path fill="none" stroke="black" d="M161.36,-432.76C145.38,-423.2 124.97,-410.99 107.64,-400.62"/>
<polygon fill="black" stroke="black" points="109.27,-397.52 98.89,-395.39 105.68,-403.53 109.27,-397.52"/>
</g>
<!-- ast.Name object at 0x7f9392076770 -->
<g id="node50" class="node">
<title>ast.Name object at 0x7f9392076770</title>
<path fill="#66cdaa" stroke="black" d="M220.5,-252C220.5,-252 190.5,-252 190.5,-252 184.5,-252 178.5,-246 178.5,-240 178.5,-240 178.5,-228 178.5,-228 178.5,-222 184.5,-216 190.5,-216 190.5,-216 220.5,-216 220.5,-216 226.5,-216 232.5,-222 232.5,-228 232.5,-228 232.5,-240 232.5,-240 232.5,-246 226.5,-252 220.5,-252"/>
<text text-anchor="middle" x="205.5" y="-230.3" font-family="Times,serif" font-size="14.00">Name</text>
</g>
<!-- ast.Compare object at 0x7f9392075e10&#45;&gt;ast.Name object at 0x7f9392076770 -->
<g id="edge69" class="edge">
<title>ast.Compare object at 0x7f9392075e10&#45;&gt;ast.Name object at 0x7f9392076770</title>
<path fill="none" stroke="black" d="M206.67,-359.68C215.38,-350.1 224.91,-337.43 229.5,-324 236.57,-303.3 229.25,-279.33 220.89,-261.49"/>
<polygon fill="black" stroke="black" points="223.86,-259.61 216.22,-252.26 217.61,-262.77 223.86,-259.61"/>
</g>
<!-- ast.Gt object at 0x7f93d26f2a10 -->
<g id="node51" class="node">
<title>ast.Gt object at 0x7f93d26f2a10</title>
<path fill="#66cdaa" stroke="black" d="M125.5,-324C125.5,-324 95.5,-324 95.5,-324 89.5,-324 83.5,-318 83.5,-312 83.5,-312 83.5,-300 83.5,-300 83.5,-294 89.5,-288 95.5,-288 95.5,-288 125.5,-288 125.5,-288 131.5,-288 137.5,-294 137.5,-300 137.5,-300 137.5,-312 137.5,-312 137.5,-318 131.5,-324 125.5,-324"/>
<text text-anchor="middle" x="110.5" y="-302.3" font-family="Times,serif" font-size="14.00">Gt</text>
</g>
<!-- ast.Compare object at 0x7f9392075e10&#45;&gt;ast.Gt object at 0x7f93d26f2a10 -->
<g id="edge71" class="edge">
<title>ast.Compare object at 0x7f9392075e10&#45;&gt;ast.Gt object at 0x7f93d26f2a10</title>
<path fill="none" stroke="black" d="M169.22,-359.7C159.58,-351.05 147.77,-340.45 137.27,-331.03"/>
<polygon fill="black" stroke="black" points="139.34,-328.18 129.56,-324.1 134.66,-333.39 139.34,-328.18"/>
</g>
<!-- ast.Constant object at 0x7f93920756f0 -->
<g id="node52" class="node">
<title>ast.Constant object at 0x7f93920756f0</title>
<path fill="#66cdaa" stroke="black" d="M209,-324C209,-324 168,-324 168,-324 162,-324 156,-318 156,-312 156,-312 156,-300 156,-300 156,-294 162,-288 168,-288 168,-288 209,-288 209,-288 215,-288 221,-294 221,-300 221,-300 221,-312 221,-312 221,-318 215,-324 209,-324"/>
<text text-anchor="middle" x="188.5" y="-302.3" font-family="Times,serif" font-size="14.00">Constant</text>
</g>
<!-- ast.Compare object at 0x7f9392075e10&#45;&gt;ast.Constant object at 0x7f93920756f0 -->
<g id="edge72" class="edge">
<title>ast.Compare object at 0x7f9392075e10&#45;&gt;ast.Constant object at 0x7f93920756f0</title>
<path fill="none" stroke="black" d="M188.5,-359.7C188.5,-351.98 188.5,-342.71 188.5,-334.11"/>
<polygon fill="black" stroke="black" points="192,-334.1 188.5,-324.1 185,-334.1 192,-334.1"/>
</g>
<!-- ast.Name object at 0x7f9392076770&#45;&gt;ast.Load object at 0x7f93d26f1f60 -->
<g id="edge70" class="edge">
<title>ast.Name object at 0x7f9392076770&#45;&gt;ast.Load object at 0x7f93d26f1f60</title>
<path fill="none" stroke="black" d="M205.71,-215.93C207.12,-182.53 215.37,-108.61 259.5,-72 311.5,-28.86 518.95,-20.8 604.41,-19.32"/>
<polygon fill="black" stroke="black" points="604.5,-22.82 614.45,-19.17 604.4,-15.82 604.5,-22.82"/>
</g>
<!-- ast.Constant object at 0x7f9392075630 -->
<g id="node54" class="node">
<title>ast.Constant object at 0x7f9392075630</title>
<path fill="#66cdaa" stroke="black" d="M53,-324C53,-324 12,-324 12,-324 6,-324 0,-318 0,-312 0,-312 0,-300 0,-300 0,-294 6,-288 12,-288 12,-288 53,-288 53,-288 59,-288 65,-294 65,-300 65,-300 65,-312 65,-312 65,-318 59,-324 53,-324"/>
<text text-anchor="middle" x="32.5" y="-302.3" font-family="Times,serif" font-size="14.00">Constant</text>
</g>
<!-- ast.Return object at 0x7f93920756c0&#45;&gt;ast.Constant object at 0x7f9392075630 -->
<g id="edge74" class="edge">
<title>ast.Return object at 0x7f93920756c0&#45;&gt;ast.Constant object at 0x7f9392075630</title>
<path fill="none" stroke="black" d="M61.86,-359.7C57.37,-351.64 51.94,-341.89 46.98,-332.98"/>
<polygon fill="black" stroke="black" points="49.95,-331.14 42.03,-324.1 43.84,-334.54 49.95,-331.14"/>
</g>
<!-- ast.Constant object at 0x7f9392076bf0 -->
<g id="node56" class="node">
<title>ast.Constant object at 0x7f9392076bf0</title>
<path fill="#66cdaa" stroke="black" d="M1171,-612C1171,-612 1130,-612 1130,-612 1124,-612 1118,-606 1118,-600 1118,-600 1118,-588 1118,-588 1118,-582 1124,-576 1130,-576 1130,-576 1171,-576 1171,-576 1177,-576 1183,-582 1183,-588 1183,-588 1183,-600 1183,-600 1183,-606 1177,-612 1171,-612"/>
<text text-anchor="middle" x="1150.5" y="-590.3" font-family="Times,serif" font-size="14.00">Constant</text>
</g>
<!-- ast.Return object at 0x7f9392074b80&#45;&gt;ast.Constant object at 0x7f9392076bf0 -->
<g id="edge76" class="edge">
<title>ast.Return object at 0x7f9392074b80&#45;&gt;ast.Constant object at 0x7f9392076bf0</title>
<path fill="none" stroke="black" d="M1126.41,-647.7C1130.05,-639.73 1134.45,-630.1 1138.49,-621.26"/>
<polygon fill="black" stroke="black" points="1141.71,-622.65 1142.68,-612.1 1135.34,-619.74 1141.71,-622.65"/>
</g>
</g>
</svg>
