<?xml version="1.0" encoding="UTF-8" standalone="no"?>
<!DOCTYPE svg PUBLIC "-//W3C//DTD SVG 1.1//EN"
 "http://www.w3.org/Graphics/SVG/1.1/DTD/svg11.dtd">
<!-- Generated by graphviz version 2.43.0 (0)
 -->
<!-- Title: %3 Pages: 1 -->
<svg width="858pt" height="620pt"
 viewBox="0.00 0.00 858.06 620.00" xmlns="http://www.w3.org/2000/svg" xmlns:xlink="http://www.w3.org/1999/xlink">
<g id="graph0" class="graph" transform="scale(1 1) rotate(0) translate(4 616)">
<title>%3</title>
<polygon fill="white" stroke="transparent" points="-4,4 -4,-616 854.06,-616 854.06,4 -4,4"/>
<!-- ast.Module object at 0x7f9f0912a980 -->
<g id="node1" class="node">
<title>ast.Module object at 0x7f9f0912a980</title>
<path fill="#66cdaa" stroke="black" d="M168,-612C168,-612 122,-612 122,-612 116,-612 110,-606 110,-600 110,-600 110,-588 110,-588 110,-582 116,-576 122,-576 122,-576 168,-576 168,-576 174,-576 180,-582 180,-588 180,-588 180,-600 180,-600 180,-606 174,-612 168,-612"/>
<text text-anchor="middle" x="145" y="-590.3" font-family="Times,serif" font-size="14.00">Module</text>
</g>
<!-- ast.FunctionDef object at 0x7f9f0912b850 -->
<g id="node2" class="node">
<title>ast.FunctionDef object at 0x7f9f0912b850</title>
<path fill="#66cdaa" stroke="black" d="M185,-540C185,-540 105,-540 105,-540 99,-540 93,-534 93,-528 93,-528 93,-516 93,-516 93,-510 99,-504 105,-504 105,-504 185,-504 185,-504 191,-504 197,-510 197,-516 197,-516 197,-528 197,-528 197,-534 191,-540 185,-540"/>
<text text-anchor="middle" x="145" y="-518.3" font-family="Times,serif" font-size="14.00">FunctionDef</text>
</g>
<!-- ast.Module object at 0x7f9f0912a980&#45;&gt;ast.FunctionDef object at 0x7f9f0912b850 -->
<g id="edge1" class="edge">
<title>ast.Module object at 0x7f9f0912a980&#45;&gt;ast.FunctionDef object at 0x7f9f0912b850</title>
<path fill="none" stroke="black" d="M145,-575.7C145,-567.98 145,-558.71 145,-550.11"/>
<polygon fill="black" stroke="black" points="148.5,-550.1 145,-540.1 141.5,-550.1 148.5,-550.1"/>
</g>
<!-- ast.arguments object at 0x7f9efedf3910 -->
<g id="node3" class="node">
<title>ast.arguments object at 0x7f9efedf3910</title>
<path fill="#66cdaa" stroke="black" d="M82,-468C82,-468 12,-468 12,-468 6,-468 0,-462 0,-456 0,-456 0,-444 0,-444 0,-438 6,-432 12,-432 12,-432 82,-432 82,-432 88,-432 94,-438 94,-444 94,-444 94,-456 94,-456 94,-462 88,-468 82,-468"/>
<text text-anchor="middle" x="47" y="-446.3" font-family="Times,serif" font-size="14.00">arguments</text>
</g>
<!-- ast.FunctionDef object at 0x7f9f0912b850&#45;&gt;ast.arguments object at 0x7f9efedf3910 -->
<g id="edge2" class="edge">
<title>ast.FunctionDef object at 0x7f9f0912b850&#45;&gt;ast.arguments object at 0x7f9efedf3910</title>
<path fill="none" stroke="black" d="M121.03,-503.88C108.45,-494.89 92.87,-483.76 79.25,-474.03"/>
<polygon fill="black" stroke="black" points="81.24,-471.15 71.07,-468.19 77.17,-476.85 81.24,-471.15"/>
</g>
<!-- ast.Assign object at 0x7f9efedf1f00 -->
<g id="node5" class="node">
<title>ast.Assign object at 0x7f9efedf1f00</title>
<path fill="#66cdaa" stroke="black" d="M248,-468C248,-468 208,-468 208,-468 202,-468 196,-462 196,-456 196,-456 196,-444 196,-444 196,-438 202,-432 208,-432 208,-432 248,-432 248,-432 254,-432 260,-438 260,-444 260,-444 260,-456 260,-456 260,-462 254,-468 248,-468"/>
<text text-anchor="middle" x="228" y="-446.3" font-family="Times,serif" font-size="14.00">Assign</text>
</g>
<!-- ast.FunctionDef object at 0x7f9f0912b850&#45;&gt;ast.Assign object at 0x7f9efedf1f00 -->
<g id="edge4" class="edge">
<title>ast.FunctionDef object at 0x7f9f0912b850&#45;&gt;ast.Assign object at 0x7f9efedf1f00</title>
<path fill="none" stroke="black" d="M165.52,-503.7C175.87,-494.97 188.59,-484.24 199.84,-474.75"/>
<polygon fill="black" stroke="black" points="202.33,-477.23 207.72,-468.1 197.82,-471.88 202.33,-477.23"/>
</g>
<!-- ast.Return object at 0x7f9f066144f0 -->
<g id="node27" class="node">
<title>ast.Return object at 0x7f9f066144f0</title>
<path fill="#66cdaa" stroke="black" d="M166,-468C166,-468 124,-468 124,-468 118,-468 112,-462 112,-456 112,-456 112,-444 112,-444 112,-438 118,-432 124,-432 124,-432 166,-432 166,-432 172,-432 178,-438 178,-444 178,-444 178,-456 178,-456 178,-462 172,-468 166,-468"/>
<text text-anchor="middle" x="145" y="-446.3" font-family="Times,serif" font-size="14.00">Return</text>
</g>
<!-- ast.FunctionDef object at 0x7f9f0912b850&#45;&gt;ast.Return object at 0x7f9f066144f0 -->
<g id="edge31" class="edge">
<title>ast.FunctionDef object at 0x7f9f0912b850&#45;&gt;ast.Return object at 0x7f9f066144f0</title>
<path fill="none" stroke="black" d="M145,-503.7C145,-495.98 145,-486.71 145,-478.11"/>
<polygon fill="black" stroke="black" points="148.5,-478.1 145,-468.1 141.5,-478.1 148.5,-478.1"/>
</g>
<!-- ast.arg object at 0x7f9efedf2710 -->
<g id="node4" class="node">
<title>ast.arg object at 0x7f9efedf2710</title>
<path fill="#66cdaa" stroke="black" d="M62,-396C62,-396 32,-396 32,-396 26,-396 20,-390 20,-384 20,-384 20,-372 20,-372 20,-366 26,-360 32,-360 32,-360 62,-360 62,-360 68,-360 74,-366 74,-372 74,-372 74,-384 74,-384 74,-390 68,-396 62,-396"/>
<text text-anchor="middle" x="47" y="-374.3" font-family="Times,serif" font-size="14.00">arg</text>
</g>
<!-- ast.arguments object at 0x7f9efedf3910&#45;&gt;ast.arg object at 0x7f9efedf2710 -->
<g id="edge3" class="edge">
<title>ast.arguments object at 0x7f9efedf3910&#45;&gt;ast.arg object at 0x7f9efedf2710</title>
<path fill="none" stroke="black" d="M47,-431.7C47,-423.98 47,-414.71 47,-406.11"/>
<polygon fill="black" stroke="black" points="50.5,-406.1 47,-396.1 43.5,-406.1 50.5,-406.1"/>
</g>
<!-- ast.Name object at 0x7f9efedf1e40 -->
<g id="node6" class="node">
<title>ast.Name object at 0x7f9efedf1e40</title>
<path fill="#66cdaa" stroke="black" d="M227.5,-324C227.5,-324 192.5,-324 192.5,-324 186.5,-324 180.5,-318 180.5,-312 180.5,-312 180.5,-300 180.5,-300 180.5,-294 186.5,-288 192.5,-288 192.5,-288 227.5,-288 227.5,-288 233.5,-288 239.5,-294 239.5,-300 239.5,-300 239.5,-312 239.5,-312 239.5,-318 233.5,-324 227.5,-324"/>
<text text-anchor="middle" x="210" y="-302.3" font-family="Times,serif" font-size="14.00">Name</text>
</g>
<!-- ast.Assign object at 0x7f9efedf1f00&#45;&gt;ast.Name object at 0x7f9efedf1e40 -->
<g id="edge5" class="edge">
<title>ast.Assign object at 0x7f9efedf1f00&#45;&gt;ast.Name object at 0x7f9efedf1e40</title>
<path fill="none" stroke="black" d="M225.83,-431.87C222.76,-407.67 217.13,-363.21 213.47,-334.39"/>
<polygon fill="black" stroke="black" points="216.91,-333.67 212.18,-324.19 209.96,-334.55 216.91,-333.67"/>
</g>
<!-- ast.ListComp object at 0x7f9efedf03a0 -->
<g id="node8" class="node">
<title>ast.ListComp object at 0x7f9efedf03a0</title>
<path fill="#66cdaa" stroke="black" d="M417.5,-396C417.5,-396 356.5,-396 356.5,-396 350.5,-396 344.5,-390 344.5,-384 344.5,-384 344.5,-372 344.5,-372 344.5,-366 350.5,-360 356.5,-360 356.5,-360 417.5,-360 417.5,-360 423.5,-360 429.5,-366 429.5,-372 429.5,-372 429.5,-384 429.5,-384 429.5,-390 423.5,-396 417.5,-396"/>
<text text-anchor="middle" x="387" y="-374.3" font-family="Times,serif" font-size="14.00">ListComp</text>
</g>
<!-- ast.Assign object at 0x7f9efedf1f00&#45;&gt;ast.ListComp object at 0x7f9efedf03a0 -->
<g id="edge7" class="edge">
<title>ast.Assign object at 0x7f9efedf1f00&#45;&gt;ast.ListComp object at 0x7f9efedf03a0</title>
<path fill="none" stroke="black" d="M260.18,-434.83C282.71,-424.92 313.21,-411.49 338.65,-400.29"/>
<polygon fill="black" stroke="black" points="340.39,-403.35 348.13,-396.11 337.57,-396.94 340.39,-403.35"/>
</g>
<!-- ast.Store object at 0x7f9f0d6f57e0 -->
<g id="node7" class="node">
<title>ast.Store object at 0x7f9f0d6f57e0</title>
<path fill="#66cdaa" stroke="black" d="M217,-180C217,-180 185,-180 185,-180 179,-180 173,-174 173,-168 173,-168 173,-156 173,-156 173,-150 179,-144 185,-144 185,-144 217,-144 217,-144 223,-144 229,-150 229,-156 229,-156 229,-168 229,-168 229,-174 223,-180 217,-180"/>
<text text-anchor="middle" x="201" y="-158.3" font-family="Times,serif" font-size="14.00">Store</text>
</g>
<!-- ast.Name object at 0x7f9efedf1e40&#45;&gt;ast.Store object at 0x7f9f0d6f57e0 -->
<g id="edge6" class="edge">
<title>ast.Name object at 0x7f9efedf1e40&#45;&gt;ast.Store object at 0x7f9f0d6f57e0</title>
<path fill="none" stroke="black" d="M208.91,-287.87C207.38,-263.67 204.56,-219.21 202.74,-190.39"/>
<polygon fill="black" stroke="black" points="206.22,-189.95 202.09,-180.19 199.23,-190.39 206.22,-189.95"/>
</g>
<!-- ast.Name object at 0x7f9efedf3940 -->
<g id="node9" class="node">
<title>ast.Name object at 0x7f9efedf3940</title>
<path fill="#66cdaa" stroke="black" d="M691.5,-324C691.5,-324 656.5,-324 656.5,-324 650.5,-324 644.5,-318 644.5,-312 644.5,-312 644.5,-300 644.5,-300 644.5,-294 650.5,-288 656.5,-288 656.5,-288 691.5,-288 691.5,-288 697.5,-288 703.5,-294 703.5,-300 703.5,-300 703.5,-312 703.5,-312 703.5,-318 697.5,-324 691.5,-324"/>
<text text-anchor="middle" x="674" y="-302.3" font-family="Times,serif" font-size="14.00">Name</text>
</g>
<!-- ast.ListComp object at 0x7f9efedf03a0&#45;&gt;ast.Name object at 0x7f9efedf3940 -->
<g id="edge8" class="edge">
<title>ast.ListComp object at 0x7f9efedf03a0&#45;&gt;ast.Name object at 0x7f9efedf3940</title>
<path fill="none" stroke="black" d="M429.66,-366.6C484.96,-353.11 580.67,-329.76 634.43,-316.65"/>
<polygon fill="black" stroke="black" points="635.39,-320.02 644.27,-314.25 633.73,-313.22 635.39,-320.02"/>
</g>
<!-- ast.comprehension object at 0x7f9efedf3970 -->
<g id="node11" class="node">
<title>ast.comprehension object at 0x7f9efedf3970</title>
<path fill="#66cdaa" stroke="black" d="M437.5,-324C437.5,-324 336.5,-324 336.5,-324 330.5,-324 324.5,-318 324.5,-312 324.5,-312 324.5,-300 324.5,-300 324.5,-294 330.5,-288 336.5,-288 336.5,-288 437.5,-288 437.5,-288 443.5,-288 449.5,-294 449.5,-300 449.5,-300 449.5,-312 449.5,-312 449.5,-318 443.5,-324 437.5,-324"/>
<text text-anchor="middle" x="387" y="-302.3" font-family="Times,serif" font-size="14.00">comprehension</text>
</g>
<!-- ast.ListComp object at 0x7f9efedf03a0&#45;&gt;ast.comprehension object at 0x7f9efedf3970 -->
<g id="edge10" class="edge">
<title>ast.ListComp object at 0x7f9efedf03a0&#45;&gt;ast.comprehension object at 0x7f9efedf3970</title>
<path fill="none" stroke="black" d="M387,-359.7C387,-351.98 387,-342.71 387,-334.11"/>
<polygon fill="black" stroke="black" points="390.5,-334.1 387,-324.1 383.5,-334.1 390.5,-334.1"/>
</g>
<!-- ast.Load object at 0x7f9f0d6f5780 -->
<g id="node10" class="node">
<title>ast.Load object at 0x7f9f0d6f5780</title>
<path fill="#66cdaa" stroke="black" d="M485,-36C485,-36 455,-36 455,-36 449,-36 443,-30 443,-24 443,-24 443,-12 443,-12 443,-6 449,0 455,0 455,0 485,0 485,0 491,0 497,-6 497,-12 497,-12 497,-24 497,-24 497,-30 491,-36 485,-36"/>
<text text-anchor="middle" x="470" y="-14.3" font-family="Times,serif" font-size="14.00">Load</text>
</g>
<!-- ast.Name object at 0x7f9efedf3940&#45;&gt;ast.Load object at 0x7f9f0d6f5780 -->
<g id="edge9" class="edge">
<title>ast.Name object at 0x7f9efedf3940&#45;&gt;ast.Load object at 0x7f9f0d6f5780</title>
<path fill="none" stroke="black" d="M701.33,-287.97C761.97,-248.14 897.54,-146.65 833,-72 791.16,-23.6 591.42,-18.53 507.39,-18.58"/>
<polygon fill="black" stroke="black" points="507.25,-15.08 497.26,-18.62 507.27,-22.08 507.25,-15.08"/>
</g>
<!-- ast.Name object at 0x7f9efedf3010 -->
<g id="node12" class="node">
<title>ast.Name object at 0x7f9efedf3010</title>
<path fill="#66cdaa" stroke="black" d="M303.5,-252C303.5,-252 268.5,-252 268.5,-252 262.5,-252 256.5,-246 256.5,-240 256.5,-240 256.5,-228 256.5,-228 256.5,-222 262.5,-216 268.5,-216 268.5,-216 303.5,-216 303.5,-216 309.5,-216 315.5,-222 315.5,-228 315.5,-228 315.5,-240 315.5,-240 315.5,-246 309.5,-252 303.5,-252"/>
<text text-anchor="middle" x="286" y="-230.3" font-family="Times,serif" font-size="14.00">Name</text>
</g>
<!-- ast.comprehension object at 0x7f9efedf3970&#45;&gt;ast.Name object at 0x7f9efedf3010 -->
<g id="edge11" class="edge">
<title>ast.comprehension object at 0x7f9efedf3970&#45;&gt;ast.Name object at 0x7f9efedf3010</title>
<path fill="none" stroke="black" d="M362.29,-287.88C349.33,-278.89 333.27,-267.76 319.23,-258.03"/>
<polygon fill="black" stroke="black" points="321.02,-255.01 310.8,-252.19 317.03,-260.76 321.02,-255.01"/>
</g>
<!-- ast.Call object at 0x7f9efedf2200 -->
<g id="node13" class="node">
<title>ast.Call object at 0x7f9efedf2200</title>
<path fill="#66cdaa" stroke="black" d="M402,-252C402,-252 372,-252 372,-252 366,-252 360,-246 360,-240 360,-240 360,-228 360,-228 360,-222 366,-216 372,-216 372,-216 402,-216 402,-216 408,-216 414,-222 414,-228 414,-228 414,-240 414,-240 414,-246 408,-252 402,-252"/>
<text text-anchor="middle" x="387" y="-230.3" font-family="Times,serif" font-size="14.00">Call</text>
</g>
<!-- ast.comprehension object at 0x7f9efedf3970&#45;&gt;ast.Call object at 0x7f9efedf2200 -->
<g id="edge13" class="edge">
<title>ast.comprehension object at 0x7f9efedf3970&#45;&gt;ast.Call object at 0x7f9efedf2200</title>
<path fill="none" stroke="black" d="M387,-287.7C387,-279.98 387,-270.71 387,-262.11"/>
<polygon fill="black" stroke="black" points="390.5,-262.1 387,-252.1 383.5,-262.1 390.5,-262.1"/>
</g>
<!-- ast.BoolOp object at 0x7f9efedf3580 -->
<g id="node17" class="node">
<title>ast.BoolOp object at 0x7f9efedf3580</title>
<path fill="#66cdaa" stroke="black" d="M590,-252C590,-252 546,-252 546,-252 540,-252 534,-246 534,-240 534,-240 534,-228 534,-228 534,-222 540,-216 546,-216 546,-216 590,-216 590,-216 596,-216 602,-222 602,-228 602,-228 602,-240 602,-240 602,-246 596,-252 590,-252"/>
<text text-anchor="middle" x="568" y="-230.3" font-family="Times,serif" font-size="14.00">BoolOp</text>
</g>
<!-- ast.comprehension object at 0x7f9efedf3970&#45;&gt;ast.BoolOp object at 0x7f9efedf3580 -->
<g id="edge18" class="edge">
<title>ast.comprehension object at 0x7f9efedf3970&#45;&gt;ast.BoolOp object at 0x7f9efedf3580</title>
<path fill="none" stroke="black" d="M431.28,-287.88C459.55,-276.94 496.05,-262.83 524.23,-251.93"/>
<polygon fill="black" stroke="black" points="525.75,-255.09 533.82,-248.22 523.23,-248.56 525.75,-255.09"/>
</g>
<!-- ast.Name object at 0x7f9efedf3010&#45;&gt;ast.Store object at 0x7f9f0d6f57e0 -->
<g id="edge12" class="edge">
<title>ast.Name object at 0x7f9efedf3010&#45;&gt;ast.Store object at 0x7f9f0d6f57e0</title>
<path fill="none" stroke="black" d="M264.99,-215.7C254.28,-206.88 241.11,-196.03 229.5,-186.47"/>
<polygon fill="black" stroke="black" points="231.71,-183.76 221.77,-180.1 227.26,-189.16 231.71,-183.76"/>
</g>
<!-- ast.Name object at 0x7f9efedf04c0 -->
<g id="node14" class="node">
<title>ast.Name object at 0x7f9efedf04c0</title>
<path fill="#66cdaa" stroke="black" d="M335.5,-108C335.5,-108 300.5,-108 300.5,-108 294.5,-108 288.5,-102 288.5,-96 288.5,-96 288.5,-84 288.5,-84 288.5,-78 294.5,-72 300.5,-72 300.5,-72 335.5,-72 335.5,-72 341.5,-72 347.5,-78 347.5,-84 347.5,-84 347.5,-96 347.5,-96 347.5,-102 341.5,-108 335.5,-108"/>
<text text-anchor="middle" x="318" y="-86.3" font-family="Times,serif" font-size="14.00">Name</text>
</g>
<!-- ast.Call object at 0x7f9efedf2200&#45;&gt;ast.Name object at 0x7f9efedf04c0 -->
<g id="edge14" class="edge">
<title>ast.Call object at 0x7f9efedf2200&#45;&gt;ast.Name object at 0x7f9efedf04c0</title>
<path fill="none" stroke="black" d="M408.23,-215.89C428.16,-197.69 452.73,-168.23 437,-144 436.39,-143.07 391.39,-123.18 356.91,-108.04"/>
<polygon fill="black" stroke="black" points="358.07,-104.72 347.51,-103.91 355.26,-111.13 358.07,-104.72"/>
</g>
<!-- ast.Constant object at 0x7f9efedf1f30 -->
<g id="node15" class="node">
<title>ast.Constant object at 0x7f9efedf1f30</title>
<path fill="#66cdaa" stroke="black" d="M316.5,-180C316.5,-180 259.5,-180 259.5,-180 253.5,-180 247.5,-174 247.5,-168 247.5,-168 247.5,-156 247.5,-156 247.5,-150 253.5,-144 259.5,-144 259.5,-144 316.5,-144 316.5,-144 322.5,-144 328.5,-150 328.5,-156 328.5,-156 328.5,-168 328.5,-168 328.5,-174 322.5,-180 316.5,-180"/>
<text text-anchor="middle" x="288" y="-158.3" font-family="Times,serif" font-size="14.00">Constant</text>
</g>
<!-- ast.Call object at 0x7f9efedf2200&#45;&gt;ast.Constant object at 0x7f9efedf1f30 -->
<g id="edge16" class="edge">
<title>ast.Call object at 0x7f9efedf2200&#45;&gt;ast.Constant object at 0x7f9efedf1f30</title>
<path fill="none" stroke="black" d="M362.78,-215.88C350.08,-206.89 334.34,-195.76 320.58,-186.03"/>
<polygon fill="black" stroke="black" points="322.5,-183.11 312.31,-180.19 318.46,-188.82 322.5,-183.11"/>
</g>
<!-- ast.Constant object at 0x7f9efedf3190 -->
<g id="node16" class="node">
<title>ast.Constant object at 0x7f9efedf3190</title>
<path fill="#66cdaa" stroke="black" d="M415.5,-180C415.5,-180 358.5,-180 358.5,-180 352.5,-180 346.5,-174 346.5,-168 346.5,-168 346.5,-156 346.5,-156 346.5,-150 352.5,-144 358.5,-144 358.5,-144 415.5,-144 415.5,-144 421.5,-144 427.5,-150 427.5,-156 427.5,-156 427.5,-168 427.5,-168 427.5,-174 421.5,-180 415.5,-180"/>
<text text-anchor="middle" x="387" y="-158.3" font-family="Times,serif" font-size="14.00">Constant</text>
</g>
<!-- ast.Call object at 0x7f9efedf2200&#45;&gt;ast.Constant object at 0x7f9efedf3190 -->
<g id="edge17" class="edge">
<title>ast.Call object at 0x7f9efedf2200&#45;&gt;ast.Constant object at 0x7f9efedf3190</title>
<path fill="none" stroke="black" d="M387,-215.7C387,-207.98 387,-198.71 387,-190.11"/>
<polygon fill="black" stroke="black" points="390.5,-190.1 387,-180.1 383.5,-190.1 390.5,-190.1"/>
</g>
<!-- ast.Name object at 0x7f9efedf04c0&#45;&gt;ast.Load object at 0x7f9f0d6f5780 -->
<g id="edge15" class="edge">
<title>ast.Name object at 0x7f9efedf04c0&#45;&gt;ast.Load object at 0x7f9f0d6f5780</title>
<path fill="none" stroke="black" d="M347.67,-75.34C372.29,-64 407.41,-47.83 433.7,-35.72"/>
<polygon fill="black" stroke="black" points="435.34,-38.82 442.96,-31.45 432.41,-32.46 435.34,-38.82"/>
</g>
<!-- ast.And object at 0x7f9f0d6f58d0 -->
<g id="node18" class="node">
<title>ast.And object at 0x7f9f0d6f58d0</title>
<path fill="#66cdaa" stroke="black" d="M626,-180C626,-180 596,-180 596,-180 590,-180 584,-174 584,-168 584,-168 584,-156 584,-156 584,-150 590,-144 596,-144 596,-144 626,-144 626,-144 632,-144 638,-150 638,-156 638,-156 638,-168 638,-168 638,-174 632,-180 626,-180"/>
<text text-anchor="middle" x="611" y="-158.3" font-family="Times,serif" font-size="14.00">And</text>
</g>
<!-- ast.BoolOp object at 0x7f9efedf3580&#45;&gt;ast.And object at 0x7f9f0d6f58d0 -->
<g id="edge19" class="edge">
<title>ast.BoolOp object at 0x7f9efedf3580&#45;&gt;ast.And object at 0x7f9f0d6f58d0</title>
<path fill="none" stroke="black" d="M578.63,-215.7C583.63,-207.56 589.69,-197.69 595.21,-188.7"/>
<polygon fill="black" stroke="black" points="598.24,-190.46 600.49,-180.1 592.28,-186.79 598.24,-190.46"/>
</g>
<!-- ast.Compare object at 0x7f9f06617130 -->
<g id="node19" class="node">
<title>ast.Compare object at 0x7f9f06617130</title>
<path fill="#66cdaa" stroke="black" d="M553.5,-180C553.5,-180 496.5,-180 496.5,-180 490.5,-180 484.5,-174 484.5,-168 484.5,-168 484.5,-156 484.5,-156 484.5,-150 490.5,-144 496.5,-144 496.5,-144 553.5,-144 553.5,-144 559.5,-144 565.5,-150 565.5,-156 565.5,-156 565.5,-168 565.5,-168 565.5,-174 559.5,-180 553.5,-180"/>
<text text-anchor="middle" x="525" y="-158.3" font-family="Times,serif" font-size="14.00">Compare</text>
</g>
<!-- ast.BoolOp object at 0x7f9efedf3580&#45;&gt;ast.Compare object at 0x7f9f06617130 -->
<g id="edge20" class="edge">
<title>ast.BoolOp object at 0x7f9efedf3580&#45;&gt;ast.Compare object at 0x7f9f06617130</title>
<path fill="none" stroke="black" d="M557.37,-215.7C552.37,-207.56 546.31,-197.69 540.79,-188.7"/>
<polygon fill="black" stroke="black" points="543.72,-186.79 535.51,-180.1 537.76,-190.46 543.72,-186.79"/>
</g>
<!-- ast.Compare object at 0x7f9f06616980 -->
<g id="node23" class="node">
<title>ast.Compare object at 0x7f9f06616980</title>
<path fill="#66cdaa" stroke="black" d="M725.5,-180C725.5,-180 668.5,-180 668.5,-180 662.5,-180 656.5,-174 656.5,-168 656.5,-168 656.5,-156 656.5,-156 656.5,-150 662.5,-144 668.5,-144 668.5,-144 725.5,-144 725.5,-144 731.5,-144 737.5,-150 737.5,-156 737.5,-156 737.5,-168 737.5,-168 737.5,-174 731.5,-180 725.5,-180"/>
<text text-anchor="middle" x="697" y="-158.3" font-family="Times,serif" font-size="14.00">Compare</text>
</g>
<!-- ast.BoolOp object at 0x7f9efedf3580&#45;&gt;ast.Compare object at 0x7f9f06616980 -->
<g id="edge26" class="edge">
<title>ast.BoolOp object at 0x7f9efedf3580&#45;&gt;ast.Compare object at 0x7f9f06616980</title>
<path fill="none" stroke="black" d="M599.56,-215.88C616.66,-206.6 637.98,-195.03 656.32,-185.08"/>
<polygon fill="black" stroke="black" points="658.2,-188.04 665.32,-180.19 654.86,-181.88 658.2,-188.04"/>
</g>
<!-- ast.Name object at 0x7f9f066171c0 -->
<g id="node20" class="node">
<title>ast.Name object at 0x7f9f066171c0</title>
<path fill="#66cdaa" stroke="black" d="M562.5,-108C562.5,-108 527.5,-108 527.5,-108 521.5,-108 515.5,-102 515.5,-96 515.5,-96 515.5,-84 515.5,-84 515.5,-78 521.5,-72 527.5,-72 527.5,-72 562.5,-72 562.5,-72 568.5,-72 574.5,-78 574.5,-84 574.5,-84 574.5,-96 574.5,-96 574.5,-102 568.5,-108 562.5,-108"/>
<text text-anchor="middle" x="545" y="-86.3" font-family="Times,serif" font-size="14.00">Name</text>
</g>
<!-- ast.Compare object at 0x7f9f06617130&#45;&gt;ast.Name object at 0x7f9f066171c0 -->
<g id="edge21" class="edge">
<title>ast.Compare object at 0x7f9f06617130&#45;&gt;ast.Name object at 0x7f9f066171c0</title>
<path fill="none" stroke="black" d="M529.94,-143.7C532.17,-135.9 534.85,-126.51 537.33,-117.83"/>
<polygon fill="black" stroke="black" points="540.73,-118.68 540.11,-108.1 534,-116.76 540.73,-118.68"/>
</g>
<!-- ast.In object at 0x7f9f0d6f63b0 -->
<g id="node21" class="node">
<title>ast.In object at 0x7f9f0d6f63b0</title>
<path fill="#66cdaa" stroke="black" d="M485,-108C485,-108 455,-108 455,-108 449,-108 443,-102 443,-96 443,-96 443,-84 443,-84 443,-78 449,-72 455,-72 455,-72 485,-72 485,-72 491,-72 497,-78 497,-84 497,-84 497,-96 497,-96 497,-102 491,-108 485,-108"/>
<text text-anchor="middle" x="470" y="-86.3" font-family="Times,serif" font-size="14.00">In</text>
</g>
<!-- ast.Compare object at 0x7f9f06617130&#45;&gt;ast.In object at 0x7f9f0d6f63b0 -->
<g id="edge23" class="edge">
<title>ast.Compare object at 0x7f9f06617130&#45;&gt;ast.In object at 0x7f9f0d6f63b0</title>
<path fill="none" stroke="black" d="M511.4,-143.7C504.88,-135.39 496.93,-125.28 489.75,-116.14"/>
<polygon fill="black" stroke="black" points="492.37,-113.81 483.44,-108.1 486.87,-118.13 492.37,-113.81"/>
</g>
<!-- ast.Name object at 0x7f9f06615d50 -->
<g id="node22" class="node">
<title>ast.Name object at 0x7f9f06615d50</title>
<path fill="#66cdaa" stroke="black" d="M412.5,-108C412.5,-108 377.5,-108 377.5,-108 371.5,-108 365.5,-102 365.5,-96 365.5,-96 365.5,-84 365.5,-84 365.5,-78 371.5,-72 377.5,-72 377.5,-72 412.5,-72 412.5,-72 418.5,-72 424.5,-78 424.5,-84 424.5,-84 424.5,-96 424.5,-96 424.5,-102 418.5,-108 412.5,-108"/>
<text text-anchor="middle" x="395" y="-86.3" font-family="Times,serif" font-size="14.00">Name</text>
</g>
<!-- ast.Compare object at 0x7f9f06617130&#45;&gt;ast.Name object at 0x7f9f06615d50 -->
<g id="edge24" class="edge">
<title>ast.Compare object at 0x7f9f06617130&#45;&gt;ast.Name object at 0x7f9f06615d50</title>
<path fill="none" stroke="black" d="M493.2,-143.88C475.24,-134.21 452.66,-122.05 433.68,-111.83"/>
<polygon fill="black" stroke="black" points="435.16,-108.65 424.69,-106.99 431.84,-114.81 435.16,-108.65"/>
</g>
<!-- ast.Name object at 0x7f9f066171c0&#45;&gt;ast.Load object at 0x7f9f0d6f5780 -->
<g id="edge22" class="edge">
<title>ast.Name object at 0x7f9f066171c0&#45;&gt;ast.Load object at 0x7f9f0d6f5780</title>
<path fill="none" stroke="black" d="M526.46,-71.7C517.2,-63.05 505.84,-52.45 495.74,-43.03"/>
<polygon fill="black" stroke="black" points="498.02,-40.37 488.33,-36.1 493.25,-45.49 498.02,-40.37"/>
</g>
<!-- ast.Name object at 0x7f9f06615d50&#45;&gt;ast.Load object at 0x7f9f0d6f5780 -->
<g id="edge25" class="edge">
<title>ast.Name object at 0x7f9f06615d50&#45;&gt;ast.Load object at 0x7f9f0d6f5780</title>
<path fill="none" stroke="black" d="M413.54,-71.7C422.8,-63.05 434.16,-52.45 444.26,-43.03"/>
<polygon fill="black" stroke="black" points="446.75,-45.49 451.67,-36.1 441.98,-40.37 446.75,-45.49"/>
</g>
<!-- ast.Name object at 0x7f9f06616ef0 -->
<g id="node24" class="node">
<title>ast.Name object at 0x7f9f06616ef0</title>
<path fill="#66cdaa" stroke="black" d="M639.5,-108C639.5,-108 604.5,-108 604.5,-108 598.5,-108 592.5,-102 592.5,-96 592.5,-96 592.5,-84 592.5,-84 592.5,-78 598.5,-72 604.5,-72 604.5,-72 639.5,-72 639.5,-72 645.5,-72 651.5,-78 651.5,-84 651.5,-84 651.5,-96 651.5,-96 651.5,-102 645.5,-108 639.5,-108"/>
<text text-anchor="middle" x="622" y="-86.3" font-family="Times,serif" font-size="14.00">Name</text>
</g>
<!-- ast.Compare object at 0x7f9f06616980&#45;&gt;ast.Name object at 0x7f9f06616ef0 -->
<g id="edge27" class="edge">
<title>ast.Compare object at 0x7f9f06616980&#45;&gt;ast.Name object at 0x7f9f06616ef0</title>
<path fill="none" stroke="black" d="M678.46,-143.7C669.2,-135.05 657.84,-124.45 647.74,-115.03"/>
<polygon fill="black" stroke="black" points="650.02,-112.37 640.33,-108.1 645.25,-117.49 650.02,-112.37"/>
</g>
<!-- ast.Lt object at 0x7f9f0d6f6170 -->
<g id="node25" class="node">
<title>ast.Lt object at 0x7f9f0d6f6170</title>
<path fill="#66cdaa" stroke="black" d="M712,-108C712,-108 682,-108 682,-108 676,-108 670,-102 670,-96 670,-96 670,-84 670,-84 670,-78 676,-72 682,-72 682,-72 712,-72 712,-72 718,-72 724,-78 724,-84 724,-84 724,-96 724,-96 724,-102 718,-108 712,-108"/>
<text text-anchor="middle" x="697" y="-86.3" font-family="Times,serif" font-size="14.00">Lt</text>
</g>
<!-- ast.Compare object at 0x7f9f06616980&#45;&gt;ast.Lt object at 0x7f9f0d6f6170 -->
<g id="edge29" class="edge">
<title>ast.Compare object at 0x7f9f06616980&#45;&gt;ast.Lt object at 0x7f9f0d6f6170</title>
<path fill="none" stroke="black" d="M697,-143.7C697,-135.98 697,-126.71 697,-118.11"/>
<polygon fill="black" stroke="black" points="700.5,-118.1 697,-108.1 693.5,-118.1 700.5,-118.1"/>
</g>
<!-- ast.Constant object at 0x7f9f06615780 -->
<g id="node26" class="node">
<title>ast.Constant object at 0x7f9f06615780</title>
<path fill="#66cdaa" stroke="black" d="M811.5,-108C811.5,-108 754.5,-108 754.5,-108 748.5,-108 742.5,-102 742.5,-96 742.5,-96 742.5,-84 742.5,-84 742.5,-78 748.5,-72 754.5,-72 754.5,-72 811.5,-72 811.5,-72 817.5,-72 823.5,-78 823.5,-84 823.5,-84 823.5,-96 823.5,-96 823.5,-102 817.5,-108 811.5,-108"/>
<text text-anchor="middle" x="783" y="-86.3" font-family="Times,serif" font-size="14.00">Constant</text>
</g>
<!-- ast.Compare object at 0x7f9f06616980&#45;&gt;ast.Constant object at 0x7f9f06615780 -->
<g id="edge30" class="edge">
<title>ast.Compare object at 0x7f9f06616980&#45;&gt;ast.Constant object at 0x7f9f06615780</title>
<path fill="none" stroke="black" d="M718.26,-143.7C729.09,-134.88 742.42,-124.03 754.16,-114.47"/>
<polygon fill="black" stroke="black" points="756.44,-117.13 761.99,-108.1 752.02,-111.7 756.44,-117.13"/>
</g>
<!-- ast.Name object at 0x7f9f06616ef0&#45;&gt;ast.Load object at 0x7f9f0d6f5780 -->
<g id="edge28" class="edge">
<title>ast.Name object at 0x7f9f06616ef0&#45;&gt;ast.Load object at 0x7f9f0d6f5780</title>
<path fill="none" stroke="black" d="M592.33,-75.34C567.71,-64 532.59,-47.83 506.3,-35.72"/>
<polygon fill="black" stroke="black" points="507.59,-32.46 497.04,-31.45 504.66,-38.82 507.59,-32.46"/>
</g>
<!-- ast.Name object at 0x7f9f066162c0 -->
<g id="node28" class="node">
<title>ast.Name object at 0x7f9f066162c0</title>
<path fill="#66cdaa" stroke="black" d="M162.5,-396C162.5,-396 127.5,-396 127.5,-396 121.5,-396 115.5,-390 115.5,-384 115.5,-384 115.5,-372 115.5,-372 115.5,-366 121.5,-360 127.5,-360 127.5,-360 162.5,-360 162.5,-360 168.5,-360 174.5,-366 174.5,-372 174.5,-372 174.5,-384 174.5,-384 174.5,-390 168.5,-396 162.5,-396"/>
<text text-anchor="middle" x="145" y="-374.3" font-family="Times,serif" font-size="14.00">Name</text>
</g>
<!-- ast.Return object at 0x7f9f066144f0&#45;&gt;ast.Name object at 0x7f9f066162c0 -->
<g id="edge32" class="edge">
<title>ast.Return object at 0x7f9f066144f0&#45;&gt;ast.Name object at 0x7f9f066162c0</title>
<path fill="none" stroke="black" d="M145,-431.7C145,-423.98 145,-414.71 145,-406.11"/>
<polygon fill="black" stroke="black" points="148.5,-406.1 145,-396.1 141.5,-406.1 148.5,-406.1"/>
</g>
<!-- ast.Name object at 0x7f9f066162c0&#45;&gt;ast.Load object at 0x7f9f0d6f5780 -->
<g id="edge33" class="edge">
<title>ast.Name object at 0x7f9f066162c0&#45;&gt;ast.Load object at 0x7f9f0d6f5780</title>
<path fill="none" stroke="black" d="M145,-359.95C145,-333.29 145,-280.11 145,-235 145,-235 145,-235 145,-161 145,-36.58 347.5,-20.1 432.81,-18.68"/>
<polygon fill="black" stroke="black" points="432.89,-22.18 442.85,-18.58 432.81,-15.18 432.89,-22.18"/>
</g>
</g>
</svg>
