<?xml version="1.0" encoding="UTF-8" standalone="no"?>
<!DOCTYPE svg PUBLIC "-//W3C//DTD SVG 1.1//EN"
 "http://www.w3.org/Graphics/SVG/1.1/DTD/svg11.dtd">
<!-- Generated by graphviz version 2.43.0 (0)
 -->
<!-- Title: %3 Pages: 1 -->
<svg width="1802pt" height="620pt"
 viewBox="0.00 0.00 1802.00 620.00" xmlns="http://www.w3.org/2000/svg" xmlns:xlink="http://www.w3.org/1999/xlink">
<g id="graph0" class="graph" transform="scale(1 1) rotate(0) translate(4 616)">
<title>%3</title>
<polygon fill="white" stroke="transparent" points="-4,4 -4,-616 1798,-616 1798,4 -4,4"/>
<!-- ast.Module object at 0x7f171c8c5390 -->
<g id="node1" class="node">
<title>ast.Module object at 0x7f171c8c5390</title>
<path fill="#66cdaa" stroke="black" d="M1247,-612C1247,-612 1212,-612 1212,-612 1206,-612 1200,-606 1200,-600 1200,-600 1200,-588 1200,-588 1200,-582 1206,-576 1212,-576 1212,-576 1247,-576 1247,-576 1253,-576 1259,-582 1259,-588 1259,-588 1259,-600 1259,-600 1259,-606 1253,-612 1247,-612"/>
<text text-anchor="middle" x="1229.5" y="-590.3" font-family="Times,serif" font-size="14.00">Module</text>
</g>
<!-- ast.FunctionDef object at 0x7f171c8c62c0 -->
<g id="node2" class="node">
<title>ast.FunctionDef object at 0x7f171c8c62c0</title>
<path fill="#66cdaa" stroke="black" d="M1260,-540C1260,-540 1199,-540 1199,-540 1193,-540 1187,-534 1187,-528 1187,-528 1187,-516 1187,-516 1187,-510 1193,-504 1199,-504 1199,-504 1260,-504 1260,-504 1266,-504 1272,-510 1272,-516 1272,-516 1272,-528 1272,-528 1272,-534 1266,-540 1260,-540"/>
<text text-anchor="middle" x="1229.5" y="-518.3" font-family="Times,serif" font-size="14.00">FunctionDef</text>
</g>
<!-- ast.Module object at 0x7f171c8c5390&#45;&gt;ast.FunctionDef object at 0x7f171c8c62c0 -->
<g id="edge1" class="edge">
<title>ast.Module object at 0x7f171c8c5390&#45;&gt;ast.FunctionDef object at 0x7f171c8c62c0</title>
<path fill="none" stroke="black" d="M1229.5,-575.7C1229.5,-567.98 1229.5,-558.71 1229.5,-550.11"/>
<polygon fill="black" stroke="black" points="1233,-550.1 1229.5,-540.1 1226,-550.1 1233,-550.1"/>
</g>
<!-- ast.arguments object at 0x7f171c8c5e40 -->
<g id="node3" class="node">
<title>ast.arguments object at 0x7f171c8c5e40</title>
<path fill="#66cdaa" stroke="black" d="M870.5,-468C870.5,-468 820.5,-468 820.5,-468 814.5,-468 808.5,-462 808.5,-456 808.5,-456 808.5,-444 808.5,-444 808.5,-438 814.5,-432 820.5,-432 820.5,-432 870.5,-432 870.5,-432 876.5,-432 882.5,-438 882.5,-444 882.5,-444 882.5,-456 882.5,-456 882.5,-462 876.5,-468 870.5,-468"/>
<text text-anchor="middle" x="845.5" y="-446.3" font-family="Times,serif" font-size="14.00">arguments</text>
</g>
<!-- ast.FunctionDef object at 0x7f171c8c62c0&#45;&gt;ast.arguments object at 0x7f171c8c5e40 -->
<g id="edge2" class="edge">
<title>ast.FunctionDef object at 0x7f171c8c62c0&#45;&gt;ast.arguments object at 0x7f171c8c5e40</title>
<path fill="none" stroke="black" d="M1186.94,-513.24C1114.58,-500.05 968.1,-473.35 892.7,-459.6"/>
<polygon fill="black" stroke="black" points="893.01,-456.1 882.55,-457.75 891.76,-462.99 893.01,-456.1"/>
</g>
<!-- ast.Assign object at 0x7f171c8c58a0 -->
<g id="node5" class="node">
<title>ast.Assign object at 0x7f171c8c58a0</title>
<path fill="#66cdaa" stroke="black" d="M1153.5,-468C1153.5,-468 1123.5,-468 1123.5,-468 1117.5,-468 1111.5,-462 1111.5,-456 1111.5,-456 1111.5,-444 1111.5,-444 1111.5,-438 1117.5,-432 1123.5,-432 1123.5,-432 1153.5,-432 1153.5,-432 1159.5,-432 1165.5,-438 1165.5,-444 1165.5,-444 1165.5,-456 1165.5,-456 1165.5,-462 1159.5,-468 1153.5,-468"/>
<text text-anchor="middle" x="1138.5" y="-446.3" font-family="Times,serif" font-size="14.00">Assign</text>
</g>
<!-- ast.FunctionDef object at 0x7f171c8c62c0&#45;&gt;ast.Assign object at 0x7f171c8c58a0 -->
<g id="edge4" class="edge">
<title>ast.FunctionDef object at 0x7f171c8c62c0&#45;&gt;ast.Assign object at 0x7f171c8c58a0</title>
<path fill="none" stroke="black" d="M1207.01,-503.7C1195.54,-494.88 1181.44,-484.03 1169.02,-474.47"/>
<polygon fill="black" stroke="black" points="1170.8,-471.43 1160.74,-468.1 1166.53,-476.98 1170.8,-471.43"/>
</g>
<!-- ast.Assign object at 0x7f171c8c6320 -->
<g id="node23" class="node">
<title>ast.Assign object at 0x7f171c8c6320</title>
<path fill="#66cdaa" stroke="black" d="M1244.5,-468C1244.5,-468 1214.5,-468 1214.5,-468 1208.5,-468 1202.5,-462 1202.5,-456 1202.5,-456 1202.5,-444 1202.5,-444 1202.5,-438 1208.5,-432 1214.5,-432 1214.5,-432 1244.5,-432 1244.5,-432 1250.5,-432 1256.5,-438 1256.5,-444 1256.5,-444 1256.5,-456 1256.5,-456 1256.5,-462 1250.5,-468 1244.5,-468"/>
<text text-anchor="middle" x="1229.5" y="-446.3" font-family="Times,serif" font-size="14.00">Assign</text>
</g>
<!-- ast.FunctionDef object at 0x7f171c8c62c0&#45;&gt;ast.Assign object at 0x7f171c8c6320 -->
<g id="edge22" class="edge">
<title>ast.FunctionDef object at 0x7f171c8c62c0&#45;&gt;ast.Assign object at 0x7f171c8c6320</title>
<path fill="none" stroke="black" d="M1229.5,-503.7C1229.5,-495.98 1229.5,-486.71 1229.5,-478.11"/>
<polygon fill="black" stroke="black" points="1233,-478.1 1229.5,-468.1 1226,-478.1 1233,-478.1"/>
</g>
<!-- ast.For object at 0x7f171c8c7b50 -->
<g id="node29" class="node">
<title>ast.For object at 0x7f171c8c7b50</title>
<path fill="#66cdaa" stroke="black" d="M1362.5,-468C1362.5,-468 1332.5,-468 1332.5,-468 1326.5,-468 1320.5,-462 1320.5,-456 1320.5,-456 1320.5,-444 1320.5,-444 1320.5,-438 1326.5,-432 1332.5,-432 1332.5,-432 1362.5,-432 1362.5,-432 1368.5,-432 1374.5,-438 1374.5,-444 1374.5,-444 1374.5,-456 1374.5,-456 1374.5,-462 1368.5,-468 1362.5,-468"/>
<text text-anchor="middle" x="1347.5" y="-446.3" font-family="Times,serif" font-size="14.00">For</text>
</g>
<!-- ast.FunctionDef object at 0x7f171c8c62c0&#45;&gt;ast.For object at 0x7f171c8c7b50 -->
<g id="edge31" class="edge">
<title>ast.FunctionDef object at 0x7f171c8c62c0&#45;&gt;ast.For object at 0x7f171c8c7b50</title>
<path fill="none" stroke="black" d="M1258.37,-503.88C1274.26,-494.45 1294.13,-482.66 1311.08,-472.61"/>
<polygon fill="black" stroke="black" points="1313.33,-475.34 1320.15,-467.23 1309.76,-469.32 1313.33,-475.34"/>
</g>
<!-- ast.Return object at 0x7f171c8c7be0 -->
<g id="node48" class="node">
<title>ast.Return object at 0x7f171c8c7be0</title>
<path fill="#66cdaa" stroke="black" d="M1492.5,-468C1492.5,-468 1462.5,-468 1462.5,-468 1456.5,-468 1450.5,-462 1450.5,-456 1450.5,-456 1450.5,-444 1450.5,-444 1450.5,-438 1456.5,-432 1462.5,-432 1462.5,-432 1492.5,-432 1492.5,-432 1498.5,-432 1504.5,-438 1504.5,-444 1504.5,-444 1504.5,-456 1504.5,-456 1504.5,-462 1498.5,-468 1492.5,-468"/>
<text text-anchor="middle" x="1477.5" y="-446.3" font-family="Times,serif" font-size="14.00">Return</text>
</g>
<!-- ast.FunctionDef object at 0x7f171c8c62c0&#45;&gt;ast.Return object at 0x7f171c8c7be0 -->
<g id="edge58" class="edge">
<title>ast.FunctionDef object at 0x7f171c8c62c0&#45;&gt;ast.Return object at 0x7f171c8c7be0</title>
<path fill="none" stroke="black" d="M1272.13,-508.97C1319.64,-495.56 1395.68,-474.09 1440.69,-461.39"/>
<polygon fill="black" stroke="black" points="1441.67,-464.75 1450.35,-458.66 1439.77,-458.01 1441.67,-464.75"/>
</g>
<!-- ast.arg object at 0x7f171c8c4f40 -->
<g id="node4" class="node">
<title>ast.arg object at 0x7f171c8c4f40</title>
<path fill="#66cdaa" stroke="black" d="M598.5,-396C598.5,-396 568.5,-396 568.5,-396 562.5,-396 556.5,-390 556.5,-384 556.5,-384 556.5,-372 556.5,-372 556.5,-366 562.5,-360 568.5,-360 568.5,-360 598.5,-360 598.5,-360 604.5,-360 610.5,-366 610.5,-372 610.5,-372 610.5,-384 610.5,-384 610.5,-390 604.5,-396 598.5,-396"/>
<text text-anchor="middle" x="583.5" y="-374.3" font-family="Times,serif" font-size="14.00">arg</text>
</g>
<!-- ast.arguments object at 0x7f171c8c5e40&#45;&gt;ast.arg object at 0x7f171c8c4f40 -->
<g id="edge3" class="edge">
<title>ast.arguments object at 0x7f171c8c5e40&#45;&gt;ast.arg object at 0x7f171c8c4f40</title>
<path fill="none" stroke="black" d="M808.42,-442.79C765.03,-434.98 691.08,-420 620.28,-395.91"/>
<polygon fill="black" stroke="black" points="621.36,-392.58 610.77,-392.6 619.07,-399.19 621.36,-392.58"/>
</g>
<!-- ast.Name object at 0x7f171c8c7100 -->
<g id="node6" class="node">
<title>ast.Name object at 0x7f171c8c7100</title>
<path fill="#66cdaa" stroke="black" d="M1153.5,-396C1153.5,-396 1123.5,-396 1123.5,-396 1117.5,-396 1111.5,-390 1111.5,-384 1111.5,-384 1111.5,-372 1111.5,-372 1111.5,-366 1117.5,-360 1123.5,-360 1123.5,-360 1153.5,-360 1153.5,-360 1159.5,-360 1165.5,-366 1165.5,-372 1165.5,-372 1165.5,-384 1165.5,-384 1165.5,-390 1159.5,-396 1153.5,-396"/>
<text text-anchor="middle" x="1138.5" y="-374.3" font-family="Times,serif" font-size="14.00">Name</text>
</g>
<!-- ast.Assign object at 0x7f171c8c58a0&#45;&gt;ast.Name object at 0x7f171c8c7100 -->
<g id="edge5" class="edge">
<title>ast.Assign object at 0x7f171c8c58a0&#45;&gt;ast.Name object at 0x7f171c8c7100</title>
<path fill="none" stroke="black" d="M1138.5,-431.7C1138.5,-423.98 1138.5,-414.71 1138.5,-406.11"/>
<polygon fill="black" stroke="black" points="1142,-406.1 1138.5,-396.1 1135,-406.1 1142,-406.1"/>
</g>
<!-- ast.List object at 0x7f171c8c4700 -->
<g id="node8" class="node">
<title>ast.List object at 0x7f171c8c4700</title>
<path fill="#66cdaa" stroke="black" d="M670.5,-396C670.5,-396 640.5,-396 640.5,-396 634.5,-396 628.5,-390 628.5,-384 628.5,-384 628.5,-372 628.5,-372 628.5,-366 634.5,-360 640.5,-360 640.5,-360 670.5,-360 670.5,-360 676.5,-360 682.5,-366 682.5,-372 682.5,-372 682.5,-384 682.5,-384 682.5,-390 676.5,-396 670.5,-396"/>
<text text-anchor="middle" x="655.5" y="-374.3" font-family="Times,serif" font-size="14.00">List</text>
</g>
<!-- ast.Assign object at 0x7f171c8c58a0&#45;&gt;ast.List object at 0x7f171c8c4700 -->
<g id="edge7" class="edge">
<title>ast.Assign object at 0x7f171c8c58a0&#45;&gt;ast.List object at 0x7f171c8c4700</title>
<path fill="none" stroke="black" d="M1111.5,-445.09C1030.01,-433.28 786.41,-397.97 692.75,-384.4"/>
<polygon fill="black" stroke="black" points="693.01,-380.9 682.61,-382.93 692.01,-387.83 693.01,-380.9"/>
</g>
<!-- ast.Store object at 0x7f174b8f1fc0 -->
<g id="node7" class="node">
<title>ast.Store object at 0x7f174b8f1fc0</title>
<path fill="#66cdaa" stroke="black" d="M1263.5,-324C1263.5,-324 1233.5,-324 1233.5,-324 1227.5,-324 1221.5,-318 1221.5,-312 1221.5,-312 1221.5,-300 1221.5,-300 1221.5,-294 1227.5,-288 1233.5,-288 1233.5,-288 1263.5,-288 1263.5,-288 1269.5,-288 1275.5,-294 1275.5,-300 1275.5,-300 1275.5,-312 1275.5,-312 1275.5,-318 1269.5,-324 1263.5,-324"/>
<text text-anchor="middle" x="1248.5" y="-302.3" font-family="Times,serif" font-size="14.00">Store</text>
</g>
<!-- ast.Name object at 0x7f171c8c7100&#45;&gt;ast.Store object at 0x7f174b8f1fc0 -->
<g id="edge6" class="edge">
<title>ast.Name object at 0x7f171c8c7100&#45;&gt;ast.Store object at 0x7f174b8f1fc0</title>
<path fill="none" stroke="black" d="M1165.41,-359.88C1179.66,-350.81 1197.35,-339.55 1212.74,-329.76"/>
<polygon fill="black" stroke="black" points="1214.93,-332.51 1221.49,-324.19 1211.17,-326.61 1214.93,-332.51"/>
</g>
<!-- ast.Constant object at 0x7f171c8c6a40 -->
<g id="node9" class="node">
<title>ast.Constant object at 0x7f171c8c6a40</title>
<path fill="#66cdaa" stroke="black" d="M219,-324C219,-324 178,-324 178,-324 172,-324 166,-318 166,-312 166,-312 166,-300 166,-300 166,-294 172,-288 178,-288 178,-288 219,-288 219,-288 225,-288 231,-294 231,-300 231,-300 231,-312 231,-312 231,-318 225,-324 219,-324"/>
<text text-anchor="middle" x="198.5" y="-302.3" font-family="Times,serif" font-size="14.00">Constant</text>
</g>
<!-- ast.List object at 0x7f171c8c4700&#45;&gt;ast.Constant object at 0x7f171c8c6a40 -->
<g id="edge8" class="edge">
<title>ast.List object at 0x7f171c8c4700&#45;&gt;ast.Constant object at 0x7f171c8c6a40</title>
<path fill="none" stroke="black" d="M628.36,-362.99C625.42,-361.84 622.43,-360.8 619.5,-360 459.1,-315.98 406.2,-363.03 241.32,-324.04"/>
<polygon fill="black" stroke="black" points="241.88,-320.57 231.33,-321.6 240.22,-327.37 241.88,-320.57"/>
</g>
<!-- ast.Constant object at 0x7f171c8c4a60 -->
<g id="node10" class="node">
<title>ast.Constant object at 0x7f171c8c4a60</title>
<path fill="#66cdaa" stroke="black" d="M302,-324C302,-324 261,-324 261,-324 255,-324 249,-318 249,-312 249,-312 249,-300 249,-300 249,-294 255,-288 261,-288 261,-288 302,-288 302,-288 308,-288 314,-294 314,-300 314,-300 314,-312 314,-312 314,-318 308,-324 302,-324"/>
<text text-anchor="middle" x="281.5" y="-302.3" font-family="Times,serif" font-size="14.00">Constant</text>
</g>
<!-- ast.List object at 0x7f171c8c4700&#45;&gt;ast.Constant object at 0x7f171c8c4a60 -->
<g id="edge9" class="edge">
<title>ast.List object at 0x7f171c8c4700&#45;&gt;ast.Constant object at 0x7f171c8c4a60</title>
<path fill="none" stroke="black" d="M628.34,-363.07C625.4,-361.9 622.42,-360.84 619.5,-360 494.86,-324.04 453.14,-356.13 324.2,-324.06"/>
<polygon fill="black" stroke="black" points="324.91,-320.62 314.35,-321.52 323.17,-327.4 324.91,-320.62"/>
</g>
<!-- ast.Constant object at 0x7f171c8c4bb0 -->
<g id="node11" class="node">
<title>ast.Constant object at 0x7f171c8c4bb0</title>
<path fill="#66cdaa" stroke="black" d="M385,-324C385,-324 344,-324 344,-324 338,-324 332,-318 332,-312 332,-312 332,-300 332,-300 332,-294 338,-288 344,-288 344,-288 385,-288 385,-288 391,-288 397,-294 397,-300 397,-300 397,-312 397,-312 397,-318 391,-324 385,-324"/>
<text text-anchor="middle" x="364.5" y="-302.3" font-family="Times,serif" font-size="14.00">Constant</text>
</g>
<!-- ast.List object at 0x7f171c8c4700&#45;&gt;ast.Constant object at 0x7f171c8c4bb0 -->
<g id="edge10" class="edge">
<title>ast.List object at 0x7f171c8c4700&#45;&gt;ast.Constant object at 0x7f171c8c4bb0</title>
<path fill="none" stroke="black" d="M628.29,-363.21C625.37,-362.01 622.4,-360.91 619.5,-360 530.53,-332.1 500.21,-349.4 407.2,-324.14"/>
<polygon fill="black" stroke="black" points="407.96,-320.72 397.39,-321.39 406.07,-327.46 407.96,-320.72"/>
</g>
<!-- ast.Constant object at 0x7f171c8c4880 -->
<g id="node12" class="node">
<title>ast.Constant object at 0x7f171c8c4880</title>
<path fill="#66cdaa" stroke="black" d="M468,-324C468,-324 427,-324 427,-324 421,-324 415,-318 415,-312 415,-312 415,-300 415,-300 415,-294 421,-288 427,-288 427,-288 468,-288 468,-288 474,-288 480,-294 480,-300 480,-300 480,-312 480,-312 480,-318 474,-324 468,-324"/>
<text text-anchor="middle" x="447.5" y="-302.3" font-family="Times,serif" font-size="14.00">Constant</text>
</g>
<!-- ast.List object at 0x7f171c8c4700&#45;&gt;ast.Constant object at 0x7f171c8c4880 -->
<g id="edge11" class="edge">
<title>ast.List object at 0x7f171c8c4700&#45;&gt;ast.Constant object at 0x7f171c8c4880</title>
<path fill="none" stroke="black" d="M628.19,-363.51C625.29,-362.25 622.35,-361.06 619.5,-360 565.75,-340.1 547.47,-343.2 489.66,-324.17"/>
<polygon fill="black" stroke="black" points="490.63,-320.8 480.03,-320.92 488.39,-327.44 490.63,-320.8"/>
</g>
<!-- ast.Constant object at 0x7f171c8c72e0 -->
<g id="node13" class="node">
<title>ast.Constant object at 0x7f171c8c72e0</title>
<path fill="#66cdaa" stroke="black" d="M551,-324C551,-324 510,-324 510,-324 504,-324 498,-318 498,-312 498,-312 498,-300 498,-300 498,-294 504,-288 510,-288 510,-288 551,-288 551,-288 557,-288 563,-294 563,-300 563,-300 563,-312 563,-312 563,-318 557,-324 551,-324"/>
<text text-anchor="middle" x="530.5" y="-302.3" font-family="Times,serif" font-size="14.00">Constant</text>
</g>
<!-- ast.List object at 0x7f171c8c4700&#45;&gt;ast.Constant object at 0x7f171c8c72e0 -->
<g id="edge12" class="edge">
<title>ast.List object at 0x7f171c8c4700&#45;&gt;ast.Constant object at 0x7f171c8c72e0</title>
<path fill="none" stroke="black" d="M628.38,-361.81C611.27,-352.23 588.89,-339.7 569.84,-329.03"/>
<polygon fill="black" stroke="black" points="571.52,-325.96 561.08,-324.13 568.1,-332.07 571.52,-325.96"/>
</g>
<!-- ast.Constant object at 0x7f171c8c5000 -->
<g id="node14" class="node">
<title>ast.Constant object at 0x7f171c8c5000</title>
<path fill="#66cdaa" stroke="black" d="M634,-324C634,-324 593,-324 593,-324 587,-324 581,-318 581,-312 581,-312 581,-300 581,-300 581,-294 587,-288 593,-288 593,-288 634,-288 634,-288 640,-288 646,-294 646,-300 646,-300 646,-312 646,-312 646,-318 640,-324 634,-324"/>
<text text-anchor="middle" x="613.5" y="-302.3" font-family="Times,serif" font-size="14.00">Constant</text>
</g>
<!-- ast.List object at 0x7f171c8c4700&#45;&gt;ast.Constant object at 0x7f171c8c5000 -->
<g id="edge13" class="edge">
<title>ast.List object at 0x7f171c8c4700&#45;&gt;ast.Constant object at 0x7f171c8c5000</title>
<path fill="none" stroke="black" d="M645.12,-359.7C640.24,-351.56 634.31,-341.69 628.92,-332.7"/>
<polygon fill="black" stroke="black" points="631.91,-330.88 623.76,-324.1 625.91,-334.48 631.91,-330.88"/>
</g>
<!-- ast.Constant object at 0x7f171c8c47f0 -->
<g id="node15" class="node">
<title>ast.Constant object at 0x7f171c8c47f0</title>
<path fill="#66cdaa" stroke="black" d="M717,-324C717,-324 676,-324 676,-324 670,-324 664,-318 664,-312 664,-312 664,-300 664,-300 664,-294 670,-288 676,-288 676,-288 717,-288 717,-288 723,-288 729,-294 729,-300 729,-300 729,-312 729,-312 729,-318 723,-324 717,-324"/>
<text text-anchor="middle" x="696.5" y="-302.3" font-family="Times,serif" font-size="14.00">Constant</text>
</g>
<!-- ast.List object at 0x7f171c8c4700&#45;&gt;ast.Constant object at 0x7f171c8c47f0 -->
<g id="edge14" class="edge">
<title>ast.List object at 0x7f171c8c4700&#45;&gt;ast.Constant object at 0x7f171c8c47f0</title>
<path fill="none" stroke="black" d="M665.63,-359.7C670.35,-351.64 676.06,-341.89 681.28,-332.98"/>
<polygon fill="black" stroke="black" points="684.45,-334.5 686.48,-324.1 678.41,-330.96 684.45,-334.5"/>
</g>
<!-- ast.Constant object at 0x7f171c8c5600 -->
<g id="node16" class="node">
<title>ast.Constant object at 0x7f171c8c5600</title>
<path fill="#66cdaa" stroke="black" d="M800,-324C800,-324 759,-324 759,-324 753,-324 747,-318 747,-312 747,-312 747,-300 747,-300 747,-294 753,-288 759,-288 759,-288 800,-288 800,-288 806,-288 812,-294 812,-300 812,-300 812,-312 812,-312 812,-318 806,-324 800,-324"/>
<text text-anchor="middle" x="779.5" y="-302.3" font-family="Times,serif" font-size="14.00">Constant</text>
</g>
<!-- ast.List object at 0x7f171c8c4700&#45;&gt;ast.Constant object at 0x7f171c8c5600 -->
<g id="edge15" class="edge">
<title>ast.List object at 0x7f171c8c4700&#45;&gt;ast.Constant object at 0x7f171c8c5600</title>
<path fill="none" stroke="black" d="M682.71,-361.64C699.62,-352.09 721.64,-339.67 740.4,-329.07"/>
<polygon fill="black" stroke="black" points="742.32,-332.01 749.31,-324.04 738.88,-325.91 742.32,-332.01"/>
</g>
<!-- ast.Constant object at 0x7f171c8c4310 -->
<g id="node17" class="node">
<title>ast.Constant object at 0x7f171c8c4310</title>
<path fill="#66cdaa" stroke="black" d="M883,-324C883,-324 842,-324 842,-324 836,-324 830,-318 830,-312 830,-312 830,-300 830,-300 830,-294 836,-288 842,-288 842,-288 883,-288 883,-288 889,-288 895,-294 895,-300 895,-300 895,-312 895,-312 895,-318 889,-324 883,-324"/>
<text text-anchor="middle" x="862.5" y="-302.3" font-family="Times,serif" font-size="14.00">Constant</text>
</g>
<!-- ast.List object at 0x7f171c8c4700&#45;&gt;ast.Constant object at 0x7f171c8c4310 -->
<g id="edge16" class="edge">
<title>ast.List object at 0x7f171c8c4700&#45;&gt;ast.Constant object at 0x7f171c8c4310</title>
<path fill="none" stroke="black" d="M682.57,-368.98C713.57,-359.64 766.03,-343.4 819.87,-324.1"/>
<polygon fill="black" stroke="black" points="821.36,-327.29 829.57,-320.59 818.98,-320.7 821.36,-327.29"/>
</g>
<!-- ast.Constant object at 0x7f171c8c7850 -->
<g id="node18" class="node">
<title>ast.Constant object at 0x7f171c8c7850</title>
<path fill="#66cdaa" stroke="black" d="M966,-324C966,-324 925,-324 925,-324 919,-324 913,-318 913,-312 913,-312 913,-300 913,-300 913,-294 919,-288 925,-288 925,-288 966,-288 966,-288 972,-288 978,-294 978,-300 978,-300 978,-312 978,-312 978,-318 972,-324 966,-324"/>
<text text-anchor="middle" x="945.5" y="-302.3" font-family="Times,serif" font-size="14.00">Constant</text>
</g>
<!-- ast.List object at 0x7f171c8c4700&#45;&gt;ast.Constant object at 0x7f171c8c7850 -->
<g id="edge17" class="edge">
<title>ast.List object at 0x7f171c8c4700&#45;&gt;ast.Constant object at 0x7f171c8c7850</title>
<path fill="none" stroke="black" d="M682.68,-372.79C727.03,-365.57 817.73,-349.4 902.86,-323.9"/>
<polygon fill="black" stroke="black" points="904.13,-327.18 912.68,-320.91 902.09,-320.48 904.13,-327.18"/>
</g>
<!-- ast.Constant object at 0x7f171c8c6ce0 -->
<g id="node19" class="node">
<title>ast.Constant object at 0x7f171c8c6ce0</title>
<path fill="#66cdaa" stroke="black" d="M1049,-324C1049,-324 1008,-324 1008,-324 1002,-324 996,-318 996,-312 996,-312 996,-300 996,-300 996,-294 1002,-288 1008,-288 1008,-288 1049,-288 1049,-288 1055,-288 1061,-294 1061,-300 1061,-300 1061,-312 1061,-312 1061,-318 1055,-324 1049,-324"/>
<text text-anchor="middle" x="1028.5" y="-302.3" font-family="Times,serif" font-size="14.00">Constant</text>
</g>
<!-- ast.List object at 0x7f171c8c4700&#45;&gt;ast.Constant object at 0x7f171c8c6ce0 -->
<g id="edge18" class="edge">
<title>ast.List object at 0x7f171c8c4700&#45;&gt;ast.Constant object at 0x7f171c8c6ce0</title>
<path fill="none" stroke="black" d="M682.54,-374.75C738.02,-369.71 868.65,-355.57 985.88,-323.8"/>
<polygon fill="black" stroke="black" points="987.02,-327.12 995.73,-321.08 985.16,-320.37 987.02,-327.12"/>
</g>
<!-- ast.Constant object at 0x7f171c8c43d0 -->
<g id="node20" class="node">
<title>ast.Constant object at 0x7f171c8c43d0</title>
<path fill="#66cdaa" stroke="black" d="M53,-324C53,-324 12,-324 12,-324 6,-324 0,-318 0,-312 0,-312 0,-300 0,-300 0,-294 6,-288 12,-288 12,-288 53,-288 53,-288 59,-288 65,-294 65,-300 65,-300 65,-312 65,-312 65,-318 59,-324 53,-324"/>
<text text-anchor="middle" x="32.5" y="-302.3" font-family="Times,serif" font-size="14.00">Constant</text>
</g>
<!-- ast.List object at 0x7f171c8c4700&#45;&gt;ast.Constant object at 0x7f171c8c43d0 -->
<g id="edge19" class="edge">
<title>ast.List object at 0x7f171c8c4700&#45;&gt;ast.Constant object at 0x7f171c8c43d0</title>
<path fill="none" stroke="black" d="M628.38,-362.9C625.44,-361.77 622.44,-360.76 619.5,-360 387.3,-299.84 312.37,-377.14 75.26,-323.97"/>
<polygon fill="black" stroke="black" points="75.84,-320.52 65.31,-321.69 74.27,-327.34 75.84,-320.52"/>
</g>
<!-- ast.Constant object at 0x7f171c8c4af0 -->
<g id="node21" class="node">
<title>ast.Constant object at 0x7f171c8c4af0</title>
<path fill="#66cdaa" stroke="black" d="M136,-324C136,-324 95,-324 95,-324 89,-324 83,-318 83,-312 83,-312 83,-300 83,-300 83,-294 89,-288 95,-288 95,-288 136,-288 136,-288 142,-288 148,-294 148,-300 148,-300 148,-312 148,-312 148,-318 142,-324 136,-324"/>
<text text-anchor="middle" x="115.5" y="-302.3" font-family="Times,serif" font-size="14.00">Constant</text>
</g>
<!-- ast.List object at 0x7f171c8c4700&#45;&gt;ast.Constant object at 0x7f171c8c4af0 -->
<g id="edge20" class="edge">
<title>ast.List object at 0x7f171c8c4700&#45;&gt;ast.Constant object at 0x7f171c8c4af0</title>
<path fill="none" stroke="black" d="M628.37,-362.94C625.43,-361.79 622.44,-360.78 619.5,-360 423.22,-307.91 359.27,-370.06 158.3,-324"/>
<polygon fill="black" stroke="black" points="158.85,-320.54 148.32,-321.65 157.25,-327.35 158.85,-320.54"/>
</g>
<!-- ast.Load object at 0x7f174b8f1f60 -->
<g id="node22" class="node">
<title>ast.Load object at 0x7f174b8f1f60</title>
<path fill="#66cdaa" stroke="black" d="M1461.5,-36C1461.5,-36 1431.5,-36 1431.5,-36 1425.5,-36 1419.5,-30 1419.5,-24 1419.5,-24 1419.5,-12 1419.5,-12 1419.5,-6 1425.5,0 1431.5,0 1431.5,0 1461.5,0 1461.5,0 1467.5,0 1473.5,-6 1473.5,-12 1473.5,-12 1473.5,-24 1473.5,-24 1473.5,-30 1467.5,-36 1461.5,-36"/>
<text text-anchor="middle" x="1446.5" y="-14.3" font-family="Times,serif" font-size="14.00">Load</text>
</g>
<!-- ast.List object at 0x7f171c8c4700&#45;&gt;ast.Load object at 0x7f174b8f1f60 -->
<g id="edge21" class="edge">
<title>ast.List object at 0x7f171c8c4700&#45;&gt;ast.Load object at 0x7f174b8f1f60</title>
<path fill="none" stroke="black" d="M682.66,-377.42C765.48,-378.13 1012.64,-375.77 1069.5,-324 1099.48,-296.71 1089.5,-275.54 1089.5,-235 1089.5,-235 1089.5,-235 1089.5,-161 1089.5,-120.55 1079.13,-99.81 1108.5,-72 1151.19,-31.59 1329.94,-21.98 1408.82,-19.71"/>
<polygon fill="black" stroke="black" points="1409.36,-23.19 1419.26,-19.43 1409.17,-16.2 1409.36,-23.19"/>
</g>
<!-- ast.Name object at 0x7f171c8c79d0 -->
<g id="node24" class="node">
<title>ast.Name object at 0x7f171c8c79d0</title>
<path fill="#66cdaa" stroke="black" d="M1263.5,-396C1263.5,-396 1233.5,-396 1233.5,-396 1227.5,-396 1221.5,-390 1221.5,-384 1221.5,-384 1221.5,-372 1221.5,-372 1221.5,-366 1227.5,-360 1233.5,-360 1233.5,-360 1263.5,-360 1263.5,-360 1269.5,-360 1275.5,-366 1275.5,-372 1275.5,-372 1275.5,-384 1275.5,-384 1275.5,-390 1269.5,-396 1263.5,-396"/>
<text text-anchor="middle" x="1248.5" y="-374.3" font-family="Times,serif" font-size="14.00">Name</text>
</g>
<!-- ast.Assign object at 0x7f171c8c6320&#45;&gt;ast.Name object at 0x7f171c8c79d0 -->
<g id="edge23" class="edge">
<title>ast.Assign object at 0x7f171c8c6320&#45;&gt;ast.Name object at 0x7f171c8c79d0</title>
<path fill="none" stroke="black" d="M1234.2,-431.7C1236.31,-423.9 1238.86,-414.51 1241.22,-405.83"/>
<polygon fill="black" stroke="black" points="1244.62,-406.67 1243.86,-396.1 1237.86,-404.84 1244.62,-406.67"/>
</g>
<!-- ast.Call object at 0x7f171c8c5240 -->
<g id="node25" class="node">
<title>ast.Call object at 0x7f171c8c5240</title>
<path fill="#66cdaa" stroke="black" d="M1218.5,-180C1218.5,-180 1188.5,-180 1188.5,-180 1182.5,-180 1176.5,-174 1176.5,-168 1176.5,-168 1176.5,-156 1176.5,-156 1176.5,-150 1182.5,-144 1188.5,-144 1188.5,-144 1218.5,-144 1218.5,-144 1224.5,-144 1230.5,-150 1230.5,-156 1230.5,-156 1230.5,-168 1230.5,-168 1230.5,-174 1224.5,-180 1218.5,-180"/>
<text text-anchor="middle" x="1203.5" y="-158.3" font-family="Times,serif" font-size="14.00">Call</text>
</g>
<!-- ast.Assign object at 0x7f171c8c6320&#45;&gt;ast.Call object at 0x7f171c8c5240 -->
<g id="edge25" class="edge">
<title>ast.Assign object at 0x7f171c8c6320&#45;&gt;ast.Call object at 0x7f171c8c5240</title>
<path fill="none" stroke="black" d="M1222.61,-431.64C1218.9,-421.43 1214.65,-408.18 1212.5,-396 1199.54,-322.5 1200.58,-234.01 1202.18,-190.25"/>
<polygon fill="black" stroke="black" points="1205.68,-190.26 1202.59,-180.12 1198.68,-189.97 1205.68,-190.26"/>
</g>
<!-- ast.Name object at 0x7f171c8c79d0&#45;&gt;ast.Store object at 0x7f174b8f1fc0 -->
<g id="edge24" class="edge">
<title>ast.Name object at 0x7f171c8c79d0&#45;&gt;ast.Store object at 0x7f174b8f1fc0</title>
<path fill="none" stroke="black" d="M1248.5,-359.7C1248.5,-351.98 1248.5,-342.71 1248.5,-334.11"/>
<polygon fill="black" stroke="black" points="1252,-334.1 1248.5,-324.1 1245,-334.1 1252,-334.1"/>
</g>
<!-- ast.Name object at 0x7f171c8c4a90 -->
<g id="node26" class="node">
<title>ast.Name object at 0x7f171c8c4a90</title>
<path fill="#66cdaa" stroke="black" d="M1315.5,-108C1315.5,-108 1285.5,-108 1285.5,-108 1279.5,-108 1273.5,-102 1273.5,-96 1273.5,-96 1273.5,-84 1273.5,-84 1273.5,-78 1279.5,-72 1285.5,-72 1285.5,-72 1315.5,-72 1315.5,-72 1321.5,-72 1327.5,-78 1327.5,-84 1327.5,-84 1327.5,-96 1327.5,-96 1327.5,-102 1321.5,-108 1315.5,-108"/>
<text text-anchor="middle" x="1300.5" y="-86.3" font-family="Times,serif" font-size="14.00">Name</text>
</g>
<!-- ast.Call object at 0x7f171c8c5240&#45;&gt;ast.Name object at 0x7f171c8c4a90 -->
<g id="edge26" class="edge">
<title>ast.Call object at 0x7f171c8c5240&#45;&gt;ast.Name object at 0x7f171c8c4a90</title>
<path fill="none" stroke="black" d="M1227.48,-143.7C1239.81,-134.8 1255.02,-123.82 1268.35,-114.2"/>
<polygon fill="black" stroke="black" points="1270.74,-116.79 1276.8,-108.1 1266.64,-111.12 1270.74,-116.79"/>
</g>
<!-- ast.Name object at 0x7f171c8c4370 -->
<g id="node27" class="node">
<title>ast.Name object at 0x7f171c8c4370</title>
<path fill="#66cdaa" stroke="black" d="M1159.5,-108C1159.5,-108 1129.5,-108 1129.5,-108 1123.5,-108 1117.5,-102 1117.5,-96 1117.5,-96 1117.5,-84 1117.5,-84 1117.5,-78 1123.5,-72 1129.5,-72 1129.5,-72 1159.5,-72 1159.5,-72 1165.5,-72 1171.5,-78 1171.5,-84 1171.5,-84 1171.5,-96 1171.5,-96 1171.5,-102 1165.5,-108 1159.5,-108"/>
<text text-anchor="middle" x="1144.5" y="-86.3" font-family="Times,serif" font-size="14.00">Name</text>
</g>
<!-- ast.Call object at 0x7f171c8c5240&#45;&gt;ast.Name object at 0x7f171c8c4370 -->
<g id="edge28" class="edge">
<title>ast.Call object at 0x7f171c8c5240&#45;&gt;ast.Name object at 0x7f171c8c4370</title>
<path fill="none" stroke="black" d="M1188.92,-143.7C1181.84,-135.3 1173.22,-125.07 1165.45,-115.86"/>
<polygon fill="black" stroke="black" points="1168.04,-113.49 1158.92,-108.1 1162.69,-118.01 1168.04,-113.49"/>
</g>
<!-- ast.Constant object at 0x7f171c8c7310 -->
<g id="node28" class="node">
<title>ast.Constant object at 0x7f171c8c7310</title>
<path fill="#66cdaa" stroke="black" d="M1243,-108C1243,-108 1202,-108 1202,-108 1196,-108 1190,-102 1190,-96 1190,-96 1190,-84 1190,-84 1190,-78 1196,-72 1202,-72 1202,-72 1243,-72 1243,-72 1249,-72 1255,-78 1255,-84 1255,-84 1255,-96 1255,-96 1255,-102 1249,-108 1243,-108"/>
<text text-anchor="middle" x="1222.5" y="-86.3" font-family="Times,serif" font-size="14.00">Constant</text>
</g>
<!-- ast.Call object at 0x7f171c8c5240&#45;&gt;ast.Constant object at 0x7f171c8c7310 -->
<g id="edge30" class="edge">
<title>ast.Call object at 0x7f171c8c5240&#45;&gt;ast.Constant object at 0x7f171c8c7310</title>
<path fill="none" stroke="black" d="M1208.2,-143.7C1210.31,-135.9 1212.86,-126.51 1215.22,-117.83"/>
<polygon fill="black" stroke="black" points="1218.62,-118.67 1217.86,-108.1 1211.86,-116.84 1218.62,-118.67"/>
</g>
<!-- ast.Name object at 0x7f171c8c4a90&#45;&gt;ast.Load object at 0x7f174b8f1f60 -->
<g id="edge27" class="edge">
<title>ast.Name object at 0x7f171c8c4a90&#45;&gt;ast.Load object at 0x7f174b8f1f60</title>
<path fill="none" stroke="black" d="M1327.62,-76C1350.83,-64.87 1384.44,-48.75 1410.01,-36.5"/>
<polygon fill="black" stroke="black" points="1411.53,-39.65 1419.03,-32.17 1408.5,-33.34 1411.53,-39.65"/>
</g>
<!-- ast.Name object at 0x7f171c8c4370&#45;&gt;ast.Load object at 0x7f174b8f1f60 -->
<g id="edge29" class="edge">
<title>ast.Name object at 0x7f171c8c4370&#45;&gt;ast.Load object at 0x7f174b8f1f60</title>
<path fill="none" stroke="black" d="M1171.73,-75.3C1174.65,-74.08 1177.61,-72.95 1180.5,-72 1259.77,-45.82 1356.82,-30.49 1409,-23.53"/>
<polygon fill="black" stroke="black" points="1409.67,-26.97 1419.13,-22.21 1408.76,-20.03 1409.67,-26.97"/>
</g>
<!-- ast.Name object at 0x7f171c8c42e0 -->
<g id="node30" class="node">
<title>ast.Name object at 0x7f171c8c42e0</title>
<path fill="#66cdaa" stroke="black" d="M1335.5,-396C1335.5,-396 1305.5,-396 1305.5,-396 1299.5,-396 1293.5,-390 1293.5,-384 1293.5,-384 1293.5,-372 1293.5,-372 1293.5,-366 1299.5,-360 1305.5,-360 1305.5,-360 1335.5,-360 1335.5,-360 1341.5,-360 1347.5,-366 1347.5,-372 1347.5,-372 1347.5,-384 1347.5,-384 1347.5,-390 1341.5,-396 1335.5,-396"/>
<text text-anchor="middle" x="1320.5" y="-374.3" font-family="Times,serif" font-size="14.00">Name</text>
</g>
<!-- ast.For object at 0x7f171c8c7b50&#45;&gt;ast.Name object at 0x7f171c8c42e0 -->
<g id="edge32" class="edge">
<title>ast.For object at 0x7f171c8c7b50&#45;&gt;ast.Name object at 0x7f171c8c42e0</title>
<path fill="none" stroke="black" d="M1340.83,-431.7C1337.79,-423.81 1334.12,-414.3 1330.74,-405.55"/>
<polygon fill="black" stroke="black" points="1333.96,-404.17 1327.1,-396.1 1327.43,-406.69 1333.96,-404.17"/>
</g>
<!-- ast.Call object at 0x7f171c8c5750 -->
<g id="node31" class="node">
<title>ast.Call object at 0x7f171c8c5750</title>
<path fill="#66cdaa" stroke="black" d="M1379.5,-252C1379.5,-252 1349.5,-252 1349.5,-252 1343.5,-252 1337.5,-246 1337.5,-240 1337.5,-240 1337.5,-228 1337.5,-228 1337.5,-222 1343.5,-216 1349.5,-216 1349.5,-216 1379.5,-216 1379.5,-216 1385.5,-216 1391.5,-222 1391.5,-228 1391.5,-228 1391.5,-240 1391.5,-240 1391.5,-246 1385.5,-252 1379.5,-252"/>
<text text-anchor="middle" x="1364.5" y="-230.3" font-family="Times,serif" font-size="14.00">Call</text>
</g>
<!-- ast.For object at 0x7f171c8c7b50&#45;&gt;ast.Call object at 0x7f171c8c5750 -->
<g id="edge34" class="edge">
<title>ast.For object at 0x7f171c8c7b50&#45;&gt;ast.Call object at 0x7f171c8c5750</title>
<path fill="none" stroke="black" d="M1350.94,-431.89C1352.88,-421.54 1355.18,-408.06 1356.5,-396 1361.59,-349.46 1363.44,-295 1364.12,-262.84"/>
<polygon fill="black" stroke="black" points="1367.62,-262.51 1364.31,-252.45 1360.63,-262.38 1367.62,-262.51"/>
</g>
<!-- ast.If object at 0x7f171c8c5690 -->
<g id="node36" class="node">
<title>ast.If object at 0x7f171c8c5690</title>
<path fill="#66cdaa" stroke="black" d="M1451.5,-396C1451.5,-396 1421.5,-396 1421.5,-396 1415.5,-396 1409.5,-390 1409.5,-384 1409.5,-384 1409.5,-372 1409.5,-372 1409.5,-366 1415.5,-360 1421.5,-360 1421.5,-360 1451.5,-360 1451.5,-360 1457.5,-360 1463.5,-366 1463.5,-372 1463.5,-372 1463.5,-384 1463.5,-384 1463.5,-390 1457.5,-396 1451.5,-396"/>
<text text-anchor="middle" x="1436.5" y="-374.3" font-family="Times,serif" font-size="14.00">If</text>
</g>
<!-- ast.For object at 0x7f171c8c7b50&#45;&gt;ast.If object at 0x7f171c8c5690 -->
<g id="edge42" class="edge">
<title>ast.For object at 0x7f171c8c7b50&#45;&gt;ast.If object at 0x7f171c8c5690</title>
<path fill="none" stroke="black" d="M1369.5,-431.7C1380.71,-422.88 1394.5,-412.03 1406.65,-402.47"/>
<polygon fill="black" stroke="black" points="1409.06,-405.04 1414.75,-396.1 1404.73,-399.54 1409.06,-405.04"/>
</g>
<!-- ast.Name object at 0x7f171c8c42e0&#45;&gt;ast.Store object at 0x7f174b8f1fc0 -->
<g id="edge33" class="edge">
<title>ast.Name object at 0x7f171c8c42e0&#45;&gt;ast.Store object at 0x7f174b8f1fc0</title>
<path fill="none" stroke="black" d="M1302.7,-359.7C1293.9,-351.14 1283.12,-340.66 1273.5,-331.3"/>
<polygon fill="black" stroke="black" points="1275.7,-328.57 1266.09,-324.1 1270.82,-333.58 1275.7,-328.57"/>
</g>
<!-- ast.Name object at 0x7f171c8c5fc0 -->
<g id="node32" class="node">
<title>ast.Name object at 0x7f171c8c5fc0</title>
<path fill="#66cdaa" stroke="black" d="M1370.5,-180C1370.5,-180 1340.5,-180 1340.5,-180 1334.5,-180 1328.5,-174 1328.5,-168 1328.5,-168 1328.5,-156 1328.5,-156 1328.5,-150 1334.5,-144 1340.5,-144 1340.5,-144 1370.5,-144 1370.5,-144 1376.5,-144 1382.5,-150 1382.5,-156 1382.5,-156 1382.5,-168 1382.5,-168 1382.5,-174 1376.5,-180 1370.5,-180"/>
<text text-anchor="middle" x="1355.5" y="-158.3" font-family="Times,serif" font-size="14.00">Name</text>
</g>
<!-- ast.Call object at 0x7f171c8c5750&#45;&gt;ast.Name object at 0x7f171c8c5fc0 -->
<g id="edge35" class="edge">
<title>ast.Call object at 0x7f171c8c5750&#45;&gt;ast.Name object at 0x7f171c8c5fc0</title>
<path fill="none" stroke="black" d="M1362.28,-215.7C1361.28,-207.98 1360.09,-198.71 1358.99,-190.11"/>
<polygon fill="black" stroke="black" points="1362.45,-189.58 1357.7,-180.1 1355.5,-190.47 1362.45,-189.58"/>
</g>
<!-- ast.Call object at 0x7f171c8c64a0 -->
<g id="node33" class="node">
<title>ast.Call object at 0x7f171c8c64a0</title>
<path fill="#66cdaa" stroke="black" d="M1442.5,-180C1442.5,-180 1412.5,-180 1412.5,-180 1406.5,-180 1400.5,-174 1400.5,-168 1400.5,-168 1400.5,-156 1400.5,-156 1400.5,-150 1406.5,-144 1412.5,-144 1412.5,-144 1442.5,-144 1442.5,-144 1448.5,-144 1454.5,-150 1454.5,-156 1454.5,-156 1454.5,-168 1454.5,-168 1454.5,-174 1448.5,-180 1442.5,-180"/>
<text text-anchor="middle" x="1427.5" y="-158.3" font-family="Times,serif" font-size="14.00">Call</text>
</g>
<!-- ast.Call object at 0x7f171c8c5750&#45;&gt;ast.Call object at 0x7f171c8c64a0 -->
<g id="edge37" class="edge">
<title>ast.Call object at 0x7f171c8c5750&#45;&gt;ast.Call object at 0x7f171c8c64a0</title>
<path fill="none" stroke="black" d="M1380.07,-215.7C1387.7,-207.22 1397.02,-196.86 1405.38,-187.58"/>
<polygon fill="black" stroke="black" points="1408.02,-189.88 1412.11,-180.1 1402.81,-185.2 1408.02,-189.88"/>
</g>
<!-- ast.Name object at 0x7f171c8c5fc0&#45;&gt;ast.Load object at 0x7f174b8f1f60 -->
<g id="edge36" class="edge">
<title>ast.Name object at 0x7f171c8c5fc0&#45;&gt;ast.Load object at 0x7f174b8f1f60</title>
<path fill="none" stroke="black" d="M1355.62,-143.9C1356.51,-124.91 1360.27,-94.03 1374.5,-72 1383.48,-58.09 1397.47,-46.58 1410.74,-37.87"/>
<polygon fill="black" stroke="black" points="1412.65,-40.81 1419.3,-32.56 1408.96,-34.86 1412.65,-40.81"/>
</g>
<!-- ast.Name object at 0x7f171c8c7460 -->
<g id="node34" class="node">
<title>ast.Name object at 0x7f171c8c7460</title>
<path fill="#66cdaa" stroke="black" d="M1497.5,-108C1497.5,-108 1467.5,-108 1467.5,-108 1461.5,-108 1455.5,-102 1455.5,-96 1455.5,-96 1455.5,-84 1455.5,-84 1455.5,-78 1461.5,-72 1467.5,-72 1467.5,-72 1497.5,-72 1497.5,-72 1503.5,-72 1509.5,-78 1509.5,-84 1509.5,-84 1509.5,-96 1509.5,-96 1509.5,-102 1503.5,-108 1497.5,-108"/>
<text text-anchor="middle" x="1482.5" y="-86.3" font-family="Times,serif" font-size="14.00">Name</text>
</g>
<!-- ast.Call object at 0x7f171c8c64a0&#45;&gt;ast.Name object at 0x7f171c8c7460 -->
<g id="edge38" class="edge">
<title>ast.Call object at 0x7f171c8c64a0&#45;&gt;ast.Name object at 0x7f171c8c7460</title>
<path fill="none" stroke="black" d="M1441.1,-143.7C1447.62,-135.39 1455.57,-125.28 1462.75,-116.14"/>
<polygon fill="black" stroke="black" points="1465.63,-118.13 1469.06,-108.1 1460.13,-113.81 1465.63,-118.13"/>
</g>
<!-- ast.Name object at 0x7f171c8c7070 -->
<g id="node35" class="node">
<title>ast.Name object at 0x7f171c8c7070</title>
<path fill="#66cdaa" stroke="black" d="M1425.5,-108C1425.5,-108 1395.5,-108 1395.5,-108 1389.5,-108 1383.5,-102 1383.5,-96 1383.5,-96 1383.5,-84 1383.5,-84 1383.5,-78 1389.5,-72 1395.5,-72 1395.5,-72 1425.5,-72 1425.5,-72 1431.5,-72 1437.5,-78 1437.5,-84 1437.5,-84 1437.5,-96 1437.5,-96 1437.5,-102 1431.5,-108 1425.5,-108"/>
<text text-anchor="middle" x="1410.5" y="-86.3" font-family="Times,serif" font-size="14.00">Name</text>
</g>
<!-- ast.Call object at 0x7f171c8c64a0&#45;&gt;ast.Name object at 0x7f171c8c7070 -->
<g id="edge40" class="edge">
<title>ast.Call object at 0x7f171c8c64a0&#45;&gt;ast.Name object at 0x7f171c8c7070</title>
<path fill="none" stroke="black" d="M1423.3,-143.7C1421.4,-135.9 1419.12,-126.51 1417.02,-117.83"/>
<polygon fill="black" stroke="black" points="1420.42,-117 1414.65,-108.1 1413.61,-118.65 1420.42,-117"/>
</g>
<!-- ast.Name object at 0x7f171c8c7460&#45;&gt;ast.Load object at 0x7f174b8f1f60 -->
<g id="edge39" class="edge">
<title>ast.Name object at 0x7f171c8c7460&#45;&gt;ast.Load object at 0x7f174b8f1f60</title>
<path fill="none" stroke="black" d="M1473.6,-71.7C1469.5,-63.73 1464.55,-54.1 1460.01,-45.26"/>
<polygon fill="black" stroke="black" points="1462.98,-43.4 1455.3,-36.1 1456.76,-46.6 1462.98,-43.4"/>
</g>
<!-- ast.Name object at 0x7f171c8c7070&#45;&gt;ast.Load object at 0x7f174b8f1f60 -->
<g id="edge41" class="edge">
<title>ast.Name object at 0x7f171c8c7070&#45;&gt;ast.Load object at 0x7f174b8f1f60</title>
<path fill="none" stroke="black" d="M1419.4,-71.7C1423.5,-63.73 1428.45,-54.1 1432.99,-45.26"/>
<polygon fill="black" stroke="black" points="1436.24,-46.6 1437.7,-36.1 1430.02,-43.4 1436.24,-46.6"/>
</g>
<!-- ast.Compare object at 0x7f171c8c6980 -->
<g id="node37" class="node">
<title>ast.Compare object at 0x7f171c8c6980</title>
<path fill="#66cdaa" stroke="black" d="M1595,-324C1595,-324 1552,-324 1552,-324 1546,-324 1540,-318 1540,-312 1540,-312 1540,-300 1540,-300 1540,-294 1546,-288 1552,-288 1552,-288 1595,-288 1595,-288 1601,-288 1607,-294 1607,-300 1607,-300 1607,-312 1607,-312 1607,-318 1601,-324 1595,-324"/>
<text text-anchor="middle" x="1573.5" y="-302.3" font-family="Times,serif" font-size="14.00">Compare</text>
</g>
<!-- ast.If object at 0x7f171c8c5690&#45;&gt;ast.Compare object at 0x7f171c8c6980 -->
<g id="edge43" class="edge">
<title>ast.If object at 0x7f171c8c5690&#45;&gt;ast.Compare object at 0x7f171c8c6980</title>
<path fill="none" stroke="black" d="M1463.57,-363.17C1482.81,-353.34 1509.04,-339.94 1531.05,-328.69"/>
<polygon fill="black" stroke="black" points="1532.88,-331.69 1540.19,-324.02 1529.69,-325.45 1532.88,-331.69"/>
</g>
<!-- ast.Return object at 0x7f171c8c5f60 -->
<g id="node46" class="node">
<title>ast.Return object at 0x7f171c8c5f60</title>
<path fill="#66cdaa" stroke="black" d="M1454.5,-324C1454.5,-324 1424.5,-324 1424.5,-324 1418.5,-324 1412.5,-318 1412.5,-312 1412.5,-312 1412.5,-300 1412.5,-300 1412.5,-294 1418.5,-288 1424.5,-288 1424.5,-288 1454.5,-288 1454.5,-288 1460.5,-288 1466.5,-294 1466.5,-300 1466.5,-300 1466.5,-312 1466.5,-312 1466.5,-318 1460.5,-324 1454.5,-324"/>
<text text-anchor="middle" x="1439.5" y="-302.3" font-family="Times,serif" font-size="14.00">Return</text>
</g>
<!-- ast.If object at 0x7f171c8c5690&#45;&gt;ast.Return object at 0x7f171c8c5f60 -->
<g id="edge56" class="edge">
<title>ast.If object at 0x7f171c8c5690&#45;&gt;ast.Return object at 0x7f171c8c5f60</title>
<path fill="none" stroke="black" d="M1437.24,-359.7C1437.57,-351.98 1437.97,-342.71 1438.34,-334.11"/>
<polygon fill="black" stroke="black" points="1441.84,-334.25 1438.77,-324.1 1434.84,-333.95 1441.84,-334.25"/>
</g>
<!-- ast.BinOp object at 0x7f171c8c4eb0 -->
<g id="node38" class="node">
<title>ast.BinOp object at 0x7f171c8c4eb0</title>
<path fill="#66cdaa" stroke="black" d="M1624.5,-252C1624.5,-252 1594.5,-252 1594.5,-252 1588.5,-252 1582.5,-246 1582.5,-240 1582.5,-240 1582.5,-228 1582.5,-228 1582.5,-222 1588.5,-216 1594.5,-216 1594.5,-216 1624.5,-216 1624.5,-216 1630.5,-216 1636.5,-222 1636.5,-228 1636.5,-228 1636.5,-240 1636.5,-240 1636.5,-246 1630.5,-252 1624.5,-252"/>
<text text-anchor="middle" x="1609.5" y="-230.3" font-family="Times,serif" font-size="14.00">BinOp</text>
</g>
<!-- ast.Compare object at 0x7f171c8c6980&#45;&gt;ast.BinOp object at 0x7f171c8c4eb0 -->
<g id="edge44" class="edge">
<title>ast.Compare object at 0x7f171c8c6980&#45;&gt;ast.BinOp object at 0x7f171c8c4eb0</title>
<path fill="none" stroke="black" d="M1582.4,-287.7C1586.5,-279.73 1591.45,-270.1 1595.99,-261.26"/>
<polygon fill="black" stroke="black" points="1599.24,-262.6 1600.7,-252.1 1593.02,-259.4 1599.24,-262.6"/>
</g>
<!-- ast.Eq object at 0x7f174b8f2890 -->
<g id="node44" class="node">
<title>ast.Eq object at 0x7f174b8f2890</title>
<path fill="#66cdaa" stroke="black" d="M1696.5,-252C1696.5,-252 1666.5,-252 1666.5,-252 1660.5,-252 1654.5,-246 1654.5,-240 1654.5,-240 1654.5,-228 1654.5,-228 1654.5,-222 1660.5,-216 1666.5,-216 1666.5,-216 1696.5,-216 1696.5,-216 1702.5,-216 1708.5,-222 1708.5,-228 1708.5,-228 1708.5,-240 1708.5,-240 1708.5,-246 1702.5,-252 1696.5,-252"/>
<text text-anchor="middle" x="1681.5" y="-230.3" font-family="Times,serif" font-size="14.00">Eq</text>
</g>
<!-- ast.Compare object at 0x7f171c8c6980&#45;&gt;ast.Eq object at 0x7f174b8f2890 -->
<g id="edge53" class="edge">
<title>ast.Compare object at 0x7f171c8c6980&#45;&gt;ast.Eq object at 0x7f174b8f2890</title>
<path fill="none" stroke="black" d="M1599.92,-287.88C1613.91,-278.81 1631.28,-267.55 1646.39,-257.76"/>
<polygon fill="black" stroke="black" points="1648.49,-260.57 1654.98,-252.19 1644.68,-254.69 1648.49,-260.57"/>
</g>
<!-- ast.Name object at 0x7f171c8c56f0 -->
<g id="node45" class="node">
<title>ast.Name object at 0x7f171c8c56f0</title>
<path fill="#66cdaa" stroke="black" d="M1552.5,-252C1552.5,-252 1522.5,-252 1522.5,-252 1516.5,-252 1510.5,-246 1510.5,-240 1510.5,-240 1510.5,-228 1510.5,-228 1510.5,-222 1516.5,-216 1522.5,-216 1522.5,-216 1552.5,-216 1552.5,-216 1558.5,-216 1564.5,-222 1564.5,-228 1564.5,-228 1564.5,-240 1564.5,-240 1564.5,-246 1558.5,-252 1552.5,-252"/>
<text text-anchor="middle" x="1537.5" y="-230.3" font-family="Times,serif" font-size="14.00">Name</text>
</g>
<!-- ast.Compare object at 0x7f171c8c6980&#45;&gt;ast.Name object at 0x7f171c8c56f0 -->
<g id="edge54" class="edge">
<title>ast.Compare object at 0x7f171c8c6980&#45;&gt;ast.Name object at 0x7f171c8c56f0</title>
<path fill="none" stroke="black" d="M1564.6,-287.7C1560.5,-279.73 1555.55,-270.1 1551.01,-261.26"/>
<polygon fill="black" stroke="black" points="1553.98,-259.4 1546.3,-252.1 1547.76,-262.6 1553.98,-259.4"/>
</g>
<!-- ast.Subscript object at 0x7f171c8c6470 -->
<g id="node39" class="node">
<title>ast.Subscript object at 0x7f171c8c6470</title>
<path fill="#66cdaa" stroke="black" d="M1626.5,-180C1626.5,-180 1582.5,-180 1582.5,-180 1576.5,-180 1570.5,-174 1570.5,-168 1570.5,-168 1570.5,-156 1570.5,-156 1570.5,-150 1576.5,-144 1582.5,-144 1582.5,-144 1626.5,-144 1626.5,-144 1632.5,-144 1638.5,-150 1638.5,-156 1638.5,-156 1638.5,-168 1638.5,-168 1638.5,-174 1632.5,-180 1626.5,-180"/>
<text text-anchor="middle" x="1604.5" y="-158.3" font-family="Times,serif" font-size="14.00">Subscript</text>
</g>
<!-- ast.BinOp object at 0x7f171c8c4eb0&#45;&gt;ast.Subscript object at 0x7f171c8c6470 -->
<g id="edge45" class="edge">
<title>ast.BinOp object at 0x7f171c8c4eb0&#45;&gt;ast.Subscript object at 0x7f171c8c6470</title>
<path fill="none" stroke="black" d="M1608.26,-215.7C1607.71,-207.98 1607.05,-198.71 1606.44,-190.11"/>
<polygon fill="black" stroke="black" points="1609.93,-189.83 1605.72,-180.1 1602.94,-190.33 1609.93,-189.83"/>
</g>
<!-- ast.Mult object at 0x7f174b8f2260 -->
<g id="node42" class="node">
<title>ast.Mult object at 0x7f174b8f2260</title>
<path fill="#66cdaa" stroke="black" d="M1698.5,-180C1698.5,-180 1668.5,-180 1668.5,-180 1662.5,-180 1656.5,-174 1656.5,-168 1656.5,-168 1656.5,-156 1656.5,-156 1656.5,-150 1662.5,-144 1668.5,-144 1668.5,-144 1698.5,-144 1698.5,-144 1704.5,-144 1710.5,-150 1710.5,-156 1710.5,-156 1710.5,-168 1710.5,-168 1710.5,-174 1704.5,-180 1698.5,-180"/>
<text text-anchor="middle" x="1683.5" y="-158.3" font-family="Times,serif" font-size="14.00">Mult</text>
</g>
<!-- ast.BinOp object at 0x7f171c8c4eb0&#45;&gt;ast.Mult object at 0x7f174b8f2260 -->
<g id="edge51" class="edge">
<title>ast.BinOp object at 0x7f171c8c4eb0&#45;&gt;ast.Mult object at 0x7f174b8f2260</title>
<path fill="none" stroke="black" d="M1627.79,-215.7C1636.93,-207.05 1648.14,-196.45 1658.1,-187.03"/>
<polygon fill="black" stroke="black" points="1660.56,-189.52 1665.42,-180.1 1655.75,-184.43 1660.56,-189.52"/>
</g>
<!-- ast.Constant object at 0x7f171c8c7ac0 -->
<g id="node43" class="node">
<title>ast.Constant object at 0x7f171c8c7ac0</title>
<path fill="#66cdaa" stroke="black" d="M1782,-180C1782,-180 1741,-180 1741,-180 1735,-180 1729,-174 1729,-168 1729,-168 1729,-156 1729,-156 1729,-150 1735,-144 1741,-144 1741,-144 1782,-144 1782,-144 1788,-144 1794,-150 1794,-156 1794,-156 1794,-168 1794,-168 1794,-174 1788,-180 1782,-180"/>
<text text-anchor="middle" x="1761.5" y="-158.3" font-family="Times,serif" font-size="14.00">Constant</text>
</g>
<!-- ast.BinOp object at 0x7f171c8c4eb0&#45;&gt;ast.Constant object at 0x7f171c8c7ac0 -->
<g id="edge52" class="edge">
<title>ast.BinOp object at 0x7f171c8c4eb0&#45;&gt;ast.Constant object at 0x7f171c8c7ac0</title>
<path fill="none" stroke="black" d="M1636.61,-220.15C1639.61,-218.75 1642.62,-217.34 1645.5,-216 1670.1,-204.57 1697.72,-191.95 1719.83,-181.88"/>
<polygon fill="black" stroke="black" points="1721.29,-185.06 1728.95,-177.74 1718.4,-178.69 1721.29,-185.06"/>
</g>
<!-- ast.Subscript object at 0x7f171c8c6470&#45;&gt;ast.Load object at 0x7f174b8f1f60 -->
<g id="edge50" class="edge">
<title>ast.Subscript object at 0x7f171c8c6470&#45;&gt;ast.Load object at 0x7f174b8f1f60</title>
<path fill="none" stroke="black" d="M1597.85,-143.99C1589.52,-124.5 1573.59,-92.61 1551.5,-72 1531.95,-53.76 1504.92,-40.32 1483.19,-31.53"/>
<polygon fill="black" stroke="black" points="1484.21,-28.17 1473.62,-27.82 1481.68,-34.7 1484.21,-28.17"/>
</g>
<!-- ast.Name object at 0x7f171c8c4190 -->
<g id="node40" class="node">
<title>ast.Name object at 0x7f171c8c4190</title>
<path fill="#66cdaa" stroke="black" d="M1645.5,-108C1645.5,-108 1615.5,-108 1615.5,-108 1609.5,-108 1603.5,-102 1603.5,-96 1603.5,-96 1603.5,-84 1603.5,-84 1603.5,-78 1609.5,-72 1615.5,-72 1615.5,-72 1645.5,-72 1645.5,-72 1651.5,-72 1657.5,-78 1657.5,-84 1657.5,-84 1657.5,-96 1657.5,-96 1657.5,-102 1651.5,-108 1645.5,-108"/>
<text text-anchor="middle" x="1630.5" y="-86.3" font-family="Times,serif" font-size="14.00">Name</text>
</g>
<!-- ast.Subscript object at 0x7f171c8c6470&#45;&gt;ast.Name object at 0x7f171c8c4190 -->
<g id="edge46" class="edge">
<title>ast.Subscript object at 0x7f171c8c6470&#45;&gt;ast.Name object at 0x7f171c8c4190</title>
<path fill="none" stroke="black" d="M1610.93,-143.7C1613.86,-135.81 1617.39,-126.3 1620.64,-117.55"/>
<polygon fill="black" stroke="black" points="1623.95,-118.7 1624.15,-108.1 1617.38,-116.26 1623.95,-118.7"/>
</g>
<!-- ast.Name object at 0x7f171c8c46d0 -->
<g id="node41" class="node">
<title>ast.Name object at 0x7f171c8c46d0</title>
<path fill="#66cdaa" stroke="black" d="M1717.5,-108C1717.5,-108 1687.5,-108 1687.5,-108 1681.5,-108 1675.5,-102 1675.5,-96 1675.5,-96 1675.5,-84 1675.5,-84 1675.5,-78 1681.5,-72 1687.5,-72 1687.5,-72 1717.5,-72 1717.5,-72 1723.5,-72 1729.5,-78 1729.5,-84 1729.5,-84 1729.5,-96 1729.5,-96 1729.5,-102 1723.5,-108 1717.5,-108"/>
<text text-anchor="middle" x="1702.5" y="-86.3" font-family="Times,serif" font-size="14.00">Name</text>
</g>
<!-- ast.Subscript object at 0x7f171c8c6470&#45;&gt;ast.Name object at 0x7f171c8c46d0 -->
<g id="edge48" class="edge">
<title>ast.Subscript object at 0x7f171c8c6470&#45;&gt;ast.Name object at 0x7f171c8c46d0</title>
<path fill="none" stroke="black" d="M1628.47,-143.88C1641.05,-134.89 1656.63,-123.76 1670.25,-114.03"/>
<polygon fill="black" stroke="black" points="1672.33,-116.85 1678.43,-108.19 1668.26,-111.15 1672.33,-116.85"/>
</g>
<!-- ast.Name object at 0x7f171c8c4190&#45;&gt;ast.Load object at 0x7f174b8f1f60 -->
<g id="edge47" class="edge">
<title>ast.Name object at 0x7f171c8c4190&#45;&gt;ast.Load object at 0x7f174b8f1f60</title>
<path fill="none" stroke="black" d="M1603.21,-77.52C1598.65,-75.64 1593.95,-73.75 1589.5,-72 1553.67,-57.94 1512.43,-42.76 1483.47,-32.26"/>
<polygon fill="black" stroke="black" points="1484.36,-28.86 1473.77,-28.76 1481.98,-35.45 1484.36,-28.86"/>
</g>
<!-- ast.Name object at 0x7f171c8c46d0&#45;&gt;ast.Load object at 0x7f174b8f1f60 -->
<g id="edge49" class="edge">
<title>ast.Name object at 0x7f171c8c46d0&#45;&gt;ast.Load object at 0x7f174b8f1f60</title>
<path fill="none" stroke="black" d="M1675.23,-75.41C1672.31,-74.18 1669.37,-73.01 1666.5,-72 1603.9,-49.94 1528.1,-33.91 1483.79,-25.56"/>
<polygon fill="black" stroke="black" points="1484.24,-22.09 1473.77,-23.71 1482.96,-28.97 1484.24,-22.09"/>
</g>
<!-- ast.Name object at 0x7f171c8c56f0&#45;&gt;ast.Load object at 0x7f174b8f1f60 -->
<g id="edge55" class="edge">
<title>ast.Name object at 0x7f171c8c56f0&#45;&gt;ast.Load object at 0x7f174b8f1f60</title>
<path fill="none" stroke="black" d="M1539.72,-215.63C1542.83,-184.52 1545.39,-118.22 1518.5,-72 1510.05,-57.47 1495.87,-45.75 1482.31,-37.06"/>
<polygon fill="black" stroke="black" points="1483.93,-33.95 1473.56,-31.79 1480.32,-39.95 1483.93,-33.95"/>
</g>
<!-- ast.Constant object at 0x7f171c8c5480 -->
<g id="node47" class="node">
<title>ast.Constant object at 0x7f171c8c5480</title>
<path fill="#66cdaa" stroke="black" d="M1463,-252C1463,-252 1422,-252 1422,-252 1416,-252 1410,-246 1410,-240 1410,-240 1410,-228 1410,-228 1410,-222 1416,-216 1422,-216 1422,-216 1463,-216 1463,-216 1469,-216 1475,-222 1475,-228 1475,-228 1475,-240 1475,-240 1475,-246 1469,-252 1463,-252"/>
<text text-anchor="middle" x="1442.5" y="-230.3" font-family="Times,serif" font-size="14.00">Constant</text>
</g>
<!-- ast.Return object at 0x7f171c8c5f60&#45;&gt;ast.Constant object at 0x7f171c8c5480 -->
<g id="edge57" class="edge">
<title>ast.Return object at 0x7f171c8c5f60&#45;&gt;ast.Constant object at 0x7f171c8c5480</title>
<path fill="none" stroke="black" d="M1440.24,-287.7C1440.57,-279.98 1440.97,-270.71 1441.34,-262.11"/>
<polygon fill="black" stroke="black" points="1444.84,-262.25 1441.77,-252.1 1437.84,-261.95 1444.84,-262.25"/>
</g>
<!-- ast.Constant object at 0x7f171c8c67d0 -->
<g id="node49" class="node">
<title>ast.Constant object at 0x7f171c8c67d0</title>
<path fill="#66cdaa" stroke="black" d="M1535,-396C1535,-396 1494,-396 1494,-396 1488,-396 1482,-390 1482,-384 1482,-384 1482,-372 1482,-372 1482,-366 1488,-360 1494,-360 1494,-360 1535,-360 1535,-360 1541,-360 1547,-366 1547,-372 1547,-372 1547,-384 1547,-384 1547,-390 1541,-396 1535,-396"/>
<text text-anchor="middle" x="1514.5" y="-374.3" font-family="Times,serif" font-size="14.00">Constant</text>
</g>
<!-- ast.Return object at 0x7f171c8c7be0&#45;&gt;ast.Constant object at 0x7f171c8c67d0 -->
<g id="edge59" class="edge">
<title>ast.Return object at 0x7f171c8c7be0&#45;&gt;ast.Constant object at 0x7f171c8c67d0</title>
<path fill="none" stroke="black" d="M1486.65,-431.7C1490.9,-423.64 1496.06,-413.89 1500.77,-404.98"/>
<polygon fill="black" stroke="black" points="1503.88,-406.58 1505.46,-396.1 1497.69,-403.31 1503.88,-406.58"/>
</g>
</g>
</svg>
