<?xml version="1.0" encoding="UTF-8" standalone="no"?>
<!DOCTYPE svg PUBLIC "-//W3C//DTD SVG 1.1//EN"
 "http://www.w3.org/Graphics/SVG/1.1/DTD/svg11.dtd">
<!-- Generated by graphviz version 2.43.0 (0)
 -->
<!-- Title: %3 Pages: 1 -->
<svg width="1519pt" height="980pt"
 viewBox="0.00 0.00 1519.18 980.00" xmlns="http://www.w3.org/2000/svg" xmlns:xlink="http://www.w3.org/1999/xlink">
<g id="graph0" class="graph" transform="scale(1 1) rotate(0) translate(4 976)">
<title>%3</title>
<polygon fill="white" stroke="transparent" points="-4,4 -4,-976 1515.18,-976 1515.18,4 -4,4"/>
<!-- ast.Module object at 0x7fc75fd394e0 -->
<g id="node1" class="node">
<title>ast.Module object at 0x7fc75fd394e0</title>
<path fill="#66cdaa" stroke="black" d="M360.18,-972C360.18,-972 325.18,-972 325.18,-972 319.18,-972 313.18,-966 313.18,-960 313.18,-960 313.18,-948 313.18,-948 313.18,-942 319.18,-936 325.18,-936 325.18,-936 360.18,-936 360.18,-936 366.18,-936 372.18,-942 372.18,-948 372.18,-948 372.18,-960 372.18,-960 372.18,-966 366.18,-972 360.18,-972"/>
<text text-anchor="middle" x="342.68" y="-950.3" font-family="Times,serif" font-size="14.00">Module</text>
</g>
<!-- ast.FunctionDef object at 0x7fc75fd385e0 -->
<g id="node2" class="node">
<title>ast.FunctionDef object at 0x7fc75fd385e0</title>
<path fill="#66cdaa" stroke="black" d="M373.18,-900C373.18,-900 312.18,-900 312.18,-900 306.18,-900 300.18,-894 300.18,-888 300.18,-888 300.18,-876 300.18,-876 300.18,-870 306.18,-864 312.18,-864 312.18,-864 373.18,-864 373.18,-864 379.18,-864 385.18,-870 385.18,-876 385.18,-876 385.18,-888 385.18,-888 385.18,-894 379.18,-900 373.18,-900"/>
<text text-anchor="middle" x="342.68" y="-878.3" font-family="Times,serif" font-size="14.00">FunctionDef</text>
</g>
<!-- ast.Module object at 0x7fc75fd394e0&#45;&gt;ast.FunctionDef object at 0x7fc75fd385e0 -->
<g id="edge1" class="edge">
<title>ast.Module object at 0x7fc75fd394e0&#45;&gt;ast.FunctionDef object at 0x7fc75fd385e0</title>
<path fill="none" stroke="black" d="M342.68,-935.7C342.68,-927.98 342.68,-918.71 342.68,-910.11"/>
<polygon fill="black" stroke="black" points="346.18,-910.1 342.68,-900.1 339.18,-910.1 346.18,-910.1"/>
</g>
<!-- ast.arguments object at 0x7fc75fd3be50 -->
<g id="node3" class="node">
<title>ast.arguments object at 0x7fc75fd3be50</title>
<path fill="#66cdaa" stroke="black" d="M326.68,-828C326.68,-828 276.68,-828 276.68,-828 270.68,-828 264.68,-822 264.68,-816 264.68,-816 264.68,-804 264.68,-804 264.68,-798 270.68,-792 276.68,-792 276.68,-792 326.68,-792 326.68,-792 332.68,-792 338.68,-798 338.68,-804 338.68,-804 338.68,-816 338.68,-816 338.68,-822 332.68,-828 326.68,-828"/>
<text text-anchor="middle" x="301.68" y="-806.3" font-family="Times,serif" font-size="14.00">arguments</text>
</g>
<!-- ast.FunctionDef object at 0x7fc75fd385e0&#45;&gt;ast.arguments object at 0x7fc75fd3be50 -->
<g id="edge2" class="edge">
<title>ast.FunctionDef object at 0x7fc75fd385e0&#45;&gt;ast.arguments object at 0x7fc75fd3be50</title>
<path fill="none" stroke="black" d="M332.54,-863.7C327.83,-855.64 322.12,-845.89 316.9,-836.98"/>
<polygon fill="black" stroke="black" points="319.77,-834.96 311.7,-828.1 313.73,-838.5 319.77,-834.96"/>
</g>
<!-- ast.Return object at 0x7fc75fd3bcd0 -->
<g id="node5" class="node">
<title>ast.Return object at 0x7fc75fd3bcd0</title>
<path fill="#66cdaa" stroke="black" d="M398.68,-828C398.68,-828 368.68,-828 368.68,-828 362.68,-828 356.68,-822 356.68,-816 356.68,-816 356.68,-804 356.68,-804 356.68,-798 362.68,-792 368.68,-792 368.68,-792 398.68,-792 398.68,-792 404.68,-792 410.68,-798 410.68,-804 410.68,-804 410.68,-816 410.68,-816 410.68,-822 404.68,-828 398.68,-828"/>
<text text-anchor="middle" x="383.68" y="-806.3" font-family="Times,serif" font-size="14.00">Return</text>
</g>
<!-- ast.FunctionDef object at 0x7fc75fd385e0&#45;&gt;ast.Return object at 0x7fc75fd3bcd0 -->
<g id="edge4" class="edge">
<title>ast.FunctionDef object at 0x7fc75fd385e0&#45;&gt;ast.Return object at 0x7fc75fd3bcd0</title>
<path fill="none" stroke="black" d="M352.81,-863.7C357.53,-855.64 363.24,-845.89 368.46,-836.98"/>
<polygon fill="black" stroke="black" points="371.63,-838.5 373.66,-828.1 365.59,-834.96 371.63,-838.5"/>
</g>
<!-- ast.arg object at 0x7fc75fd39510 -->
<g id="node4" class="node">
<title>ast.arg object at 0x7fc75fd39510</title>
<path fill="#66cdaa" stroke="black" d="M316.68,-756C316.68,-756 286.68,-756 286.68,-756 280.68,-756 274.68,-750 274.68,-744 274.68,-744 274.68,-732 274.68,-732 274.68,-726 280.68,-720 286.68,-720 286.68,-720 316.68,-720 316.68,-720 322.68,-720 328.68,-726 328.68,-732 328.68,-732 328.68,-744 328.68,-744 328.68,-750 322.68,-756 316.68,-756"/>
<text text-anchor="middle" x="301.68" y="-734.3" font-family="Times,serif" font-size="14.00">arg</text>
</g>
<!-- ast.arguments object at 0x7fc75fd3be50&#45;&gt;ast.arg object at 0x7fc75fd39510 -->
<g id="edge3" class="edge">
<title>ast.arguments object at 0x7fc75fd3be50&#45;&gt;ast.arg object at 0x7fc75fd39510</title>
<path fill="none" stroke="black" d="M301.68,-791.7C301.68,-783.98 301.68,-774.71 301.68,-766.11"/>
<polygon fill="black" stroke="black" points="305.18,-766.1 301.68,-756.1 298.18,-766.1 305.18,-766.1"/>
</g>
<!-- ast.ListComp object at 0x7fc75fd3ab00 -->
<g id="node6" class="node">
<title>ast.ListComp object at 0x7fc75fd3ab00</title>
<path fill="#66cdaa" stroke="black" d="M407.18,-756C407.18,-756 360.18,-756 360.18,-756 354.18,-756 348.18,-750 348.18,-744 348.18,-744 348.18,-732 348.18,-732 348.18,-726 354.18,-720 360.18,-720 360.18,-720 407.18,-720 407.18,-720 413.18,-720 419.18,-726 419.18,-732 419.18,-732 419.18,-744 419.18,-744 419.18,-750 413.18,-756 407.18,-756"/>
<text text-anchor="middle" x="383.68" y="-734.3" font-family="Times,serif" font-size="14.00">ListComp</text>
</g>
<!-- ast.Return object at 0x7fc75fd3bcd0&#45;&gt;ast.ListComp object at 0x7fc75fd3ab00 -->
<g id="edge5" class="edge">
<title>ast.Return object at 0x7fc75fd3bcd0&#45;&gt;ast.ListComp object at 0x7fc75fd3ab00</title>
<path fill="none" stroke="black" d="M383.68,-791.7C383.68,-783.98 383.68,-774.71 383.68,-766.11"/>
<polygon fill="black" stroke="black" points="387.18,-766.1 383.68,-756.1 380.18,-766.1 387.18,-766.1"/>
</g>
<!-- ast.Call object at 0x7fc75fd397e0 -->
<g id="node7" class="node">
<title>ast.Call object at 0x7fc75fd397e0</title>
<path fill="#66cdaa" stroke="black" d="M228.68,-324C228.68,-324 198.68,-324 198.68,-324 192.68,-324 186.68,-318 186.68,-312 186.68,-312 186.68,-300 186.68,-300 186.68,-294 192.68,-288 198.68,-288 198.68,-288 228.68,-288 228.68,-288 234.68,-288 240.68,-294 240.68,-300 240.68,-300 240.68,-312 240.68,-312 240.68,-318 234.68,-324 228.68,-324"/>
<text text-anchor="middle" x="213.68" y="-302.3" font-family="Times,serif" font-size="14.00">Call</text>
</g>
<!-- ast.ListComp object at 0x7fc75fd3ab00&#45;&gt;ast.Call object at 0x7fc75fd397e0 -->
<g id="edge6" class="edge">
<title>ast.ListComp object at 0x7fc75fd3ab00&#45;&gt;ast.Call object at 0x7fc75fd397e0</title>
<path fill="none" stroke="black" d="M359.63,-719.78C347.81,-710.32 334.11,-697.73 324.68,-684 300.7,-649.1 290.68,-637.34 290.68,-595 290.68,-595 290.68,-595 290.68,-449 290.68,-403.51 259.76,-358.65 237.11,-331.89"/>
<polygon fill="black" stroke="black" points="239.6,-329.42 230.39,-324.19 234.32,-334.02 239.6,-329.42"/>
</g>
<!-- ast.comprehension object at 0x7fc75fd3bee0 -->
<g id="node16" class="node">
<title>ast.comprehension object at 0x7fc75fd3bee0</title>
<path fill="#66cdaa" stroke="black" d="M421.68,-684C421.68,-684 345.68,-684 345.68,-684 339.68,-684 333.68,-678 333.68,-672 333.68,-672 333.68,-660 333.68,-660 333.68,-654 339.68,-648 345.68,-648 345.68,-648 421.68,-648 421.68,-648 427.68,-648 433.68,-654 433.68,-660 433.68,-660 433.68,-672 433.68,-672 433.68,-678 427.68,-684 421.68,-684"/>
<text text-anchor="middle" x="383.68" y="-662.3" font-family="Times,serif" font-size="14.00">comprehension</text>
</g>
<!-- ast.ListComp object at 0x7fc75fd3ab00&#45;&gt;ast.comprehension object at 0x7fc75fd3bee0 -->
<g id="edge19" class="edge">
<title>ast.ListComp object at 0x7fc75fd3ab00&#45;&gt;ast.comprehension object at 0x7fc75fd3bee0</title>
<path fill="none" stroke="black" d="M383.68,-719.7C383.68,-711.98 383.68,-702.71 383.68,-694.11"/>
<polygon fill="black" stroke="black" points="387.18,-694.1 383.68,-684.1 380.18,-694.1 387.18,-694.1"/>
</g>
<!-- ast.comprehension object at 0x7fc75fd3b070 -->
<g id="node24" class="node">
<title>ast.comprehension object at 0x7fc75fd3b070</title>
<path fill="#66cdaa" stroke="black" d="M551.68,-684C551.68,-684 475.68,-684 475.68,-684 469.68,-684 463.68,-678 463.68,-672 463.68,-672 463.68,-660 463.68,-660 463.68,-654 469.68,-648 475.68,-648 475.68,-648 551.68,-648 551.68,-648 557.68,-648 563.68,-654 563.68,-660 563.68,-660 563.68,-672 563.68,-672 563.68,-678 557.68,-684 551.68,-684"/>
<text text-anchor="middle" x="513.68" y="-662.3" font-family="Times,serif" font-size="14.00">comprehension</text>
</g>
<!-- ast.ListComp object at 0x7fc75fd3ab00&#45;&gt;ast.comprehension object at 0x7fc75fd3b070 -->
<g id="edge30" class="edge">
<title>ast.ListComp object at 0x7fc75fd3ab00&#45;&gt;ast.comprehension object at 0x7fc75fd3b070</title>
<path fill="none" stroke="black" d="M415.48,-719.88C432.79,-710.55 454.4,-698.92 472.94,-688.94"/>
<polygon fill="black" stroke="black" points="474.61,-692.01 481.76,-684.19 471.29,-685.85 474.61,-692.01"/>
</g>
<!-- ast.Attribute object at 0x7fc75fd3a080 -->
<g id="node8" class="node">
<title>ast.Attribute object at 0x7fc75fd3a080</title>
<path fill="#66cdaa" stroke="black" d="M234.18,-252C234.18,-252 193.18,-252 193.18,-252 187.18,-252 181.18,-246 181.18,-240 181.18,-240 181.18,-228 181.18,-228 181.18,-222 187.18,-216 193.18,-216 193.18,-216 234.18,-216 234.18,-216 240.18,-216 246.18,-222 246.18,-228 246.18,-228 246.18,-240 246.18,-240 246.18,-246 240.18,-252 234.18,-252"/>
<text text-anchor="middle" x="213.68" y="-230.3" font-family="Times,serif" font-size="14.00">Attribute</text>
</g>
<!-- ast.Call object at 0x7fc75fd397e0&#45;&gt;ast.Attribute object at 0x7fc75fd3a080 -->
<g id="edge7" class="edge">
<title>ast.Call object at 0x7fc75fd397e0&#45;&gt;ast.Attribute object at 0x7fc75fd3a080</title>
<path fill="none" stroke="black" d="M213.68,-287.7C213.68,-279.98 213.68,-270.71 213.68,-262.11"/>
<polygon fill="black" stroke="black" points="217.18,-262.1 213.68,-252.1 210.18,-262.1 217.18,-262.1"/>
</g>
<!-- ast.Subscript object at 0x7fc75fd3b8b0 -->
<g id="node11" class="node">
<title>ast.Subscript object at 0x7fc75fd3b8b0</title>
<path fill="#66cdaa" stroke="black" d="M99.68,-252C99.68,-252 55.68,-252 55.68,-252 49.68,-252 43.68,-246 43.68,-240 43.68,-240 43.68,-228 43.68,-228 43.68,-222 49.68,-216 55.68,-216 55.68,-216 99.68,-216 99.68,-216 105.68,-216 111.68,-222 111.68,-228 111.68,-228 111.68,-240 111.68,-240 111.68,-246 105.68,-252 99.68,-252"/>
<text text-anchor="middle" x="77.68" y="-230.3" font-family="Times,serif" font-size="14.00">Subscript</text>
</g>
<!-- ast.Call object at 0x7fc75fd397e0&#45;&gt;ast.Subscript object at 0x7fc75fd3b8b0 -->
<g id="edge10" class="edge">
<title>ast.Call object at 0x7fc75fd397e0&#45;&gt;ast.Subscript object at 0x7fc75fd3b8b0</title>
<path fill="none" stroke="black" d="M186.48,-291C167.49,-281.23 141.76,-267.98 120.09,-256.83"/>
<polygon fill="black" stroke="black" points="121.58,-253.66 111.09,-252.19 118.37,-259.88 121.58,-253.66"/>
</g>
<!-- ast.Constant object at 0x7fc75fd3a860 -->
<g id="node9" class="node">
<title>ast.Constant object at 0x7fc75fd3a860</title>
<path fill="#66cdaa" stroke="black" d="M203.18,-180C203.18,-180 162.18,-180 162.18,-180 156.18,-180 150.18,-174 150.18,-168 150.18,-168 150.18,-156 150.18,-156 150.18,-150 156.18,-144 162.18,-144 162.18,-144 203.18,-144 203.18,-144 209.18,-144 215.18,-150 215.18,-156 215.18,-156 215.18,-168 215.18,-168 215.18,-174 209.18,-180 203.18,-180"/>
<text text-anchor="middle" x="182.68" y="-158.3" font-family="Times,serif" font-size="14.00">Constant</text>
</g>
<!-- ast.Attribute object at 0x7fc75fd3a080&#45;&gt;ast.Constant object at 0x7fc75fd3a860 -->
<g id="edge8" class="edge">
<title>ast.Attribute object at 0x7fc75fd3a080&#45;&gt;ast.Constant object at 0x7fc75fd3a860</title>
<path fill="none" stroke="black" d="M206.02,-215.7C202.49,-207.73 198.22,-198.1 194.31,-189.26"/>
<polygon fill="black" stroke="black" points="197.5,-187.83 190.25,-180.1 191.1,-190.67 197.5,-187.83"/>
</g>
<!-- ast.Load object at 0x7fc763fedf60 -->
<g id="node10" class="node">
<title>ast.Load object at 0x7fc763fedf60</title>
<path fill="#66cdaa" stroke="black" d="M794.68,-36C794.68,-36 764.68,-36 764.68,-36 758.68,-36 752.68,-30 752.68,-24 752.68,-24 752.68,-12 752.68,-12 752.68,-6 758.68,0 764.68,0 764.68,0 794.68,0 794.68,0 800.68,0 806.68,-6 806.68,-12 806.68,-12 806.68,-24 806.68,-24 806.68,-30 800.68,-36 794.68,-36"/>
<text text-anchor="middle" x="779.68" y="-14.3" font-family="Times,serif" font-size="14.00">Load</text>
</g>
<!-- ast.Attribute object at 0x7fc75fd3a080&#45;&gt;ast.Load object at 0x7fc763fedf60 -->
<g id="edge9" class="edge">
<title>ast.Attribute object at 0x7fc75fd3a080&#45;&gt;ast.Load object at 0x7fc763fedf60</title>
<path fill="none" stroke="black" d="M217.22,-215.9C225.35,-178.3 246.48,-90.37 269.68,-72 306.61,-42.75 631.14,-25.64 742.42,-20.59"/>
<polygon fill="black" stroke="black" points="742.68,-24.08 752.51,-20.14 742.36,-17.09 742.68,-24.08"/>
</g>
<!-- ast.Subscript object at 0x7fc75fd3b8b0&#45;&gt;ast.Load object at 0x7fc763fedf60 -->
<g id="edge18" class="edge">
<title>ast.Subscript object at 0x7fc75fd3b8b0&#45;&gt;ast.Load object at 0x7fc763fedf60</title>
<path fill="none" stroke="black" d="M60.29,-215.76C29.98,-183.67 -25.72,-114.22 13.68,-72 63.76,-18.34 594.61,-17.78 741.94,-18.67"/>
<polygon fill="black" stroke="black" points="742.25,-22.17 752.27,-18.74 742.29,-15.17 742.25,-22.17"/>
</g>
<!-- ast.Name object at 0x7fc75fd3b910 -->
<g id="node12" class="node">
<title>ast.Name object at 0x7fc75fd3b910</title>
<path fill="#66cdaa" stroke="black" d="M64.68,-108C64.68,-108 34.68,-108 34.68,-108 28.68,-108 22.68,-102 22.68,-96 22.68,-96 22.68,-84 22.68,-84 22.68,-78 28.68,-72 34.68,-72 34.68,-72 64.68,-72 64.68,-72 70.68,-72 76.68,-78 76.68,-84 76.68,-84 76.68,-96 76.68,-96 76.68,-102 70.68,-108 64.68,-108"/>
<text text-anchor="middle" x="49.68" y="-86.3" font-family="Times,serif" font-size="14.00">Name</text>
</g>
<!-- ast.Subscript object at 0x7fc75fd3b8b0&#45;&gt;ast.Name object at 0x7fc75fd3b910 -->
<g id="edge11" class="edge">
<title>ast.Subscript object at 0x7fc75fd3b8b0&#45;&gt;ast.Name object at 0x7fc75fd3b910</title>
<path fill="none" stroke="black" d="M74.3,-215.87C69.51,-191.56 60.69,-146.82 55.01,-118.01"/>
<polygon fill="black" stroke="black" points="58.44,-117.32 53.07,-108.19 51.57,-118.68 58.44,-117.32"/>
</g>
<!-- ast.Slice object at 0x7fc75fd3a1d0 -->
<g id="node13" class="node">
<title>ast.Slice object at 0x7fc75fd3a1d0</title>
<path fill="#66cdaa" stroke="black" d="M119.68,-180C119.68,-180 89.68,-180 89.68,-180 83.68,-180 77.68,-174 77.68,-168 77.68,-168 77.68,-156 77.68,-156 77.68,-150 83.68,-144 89.68,-144 89.68,-144 119.68,-144 119.68,-144 125.68,-144 131.68,-150 131.68,-156 131.68,-156 131.68,-168 131.68,-168 131.68,-174 125.68,-180 119.68,-180"/>
<text text-anchor="middle" x="104.68" y="-158.3" font-family="Times,serif" font-size="14.00">Slice</text>
</g>
<!-- ast.Subscript object at 0x7fc75fd3b8b0&#45;&gt;ast.Slice object at 0x7fc75fd3a1d0 -->
<g id="edge13" class="edge">
<title>ast.Subscript object at 0x7fc75fd3b8b0&#45;&gt;ast.Slice object at 0x7fc75fd3a1d0</title>
<path fill="none" stroke="black" d="M84.35,-215.7C87.39,-207.81 91.06,-198.3 94.44,-189.55"/>
<polygon fill="black" stroke="black" points="97.75,-190.69 98.08,-180.1 91.22,-188.17 97.75,-190.69"/>
</g>
<!-- ast.Name object at 0x7fc75fd3b910&#45;&gt;ast.Load object at 0x7fc763fedf60 -->
<g id="edge12" class="edge">
<title>ast.Name object at 0x7fc75fd3b910&#45;&gt;ast.Load object at 0x7fc763fedf60</title>
<path fill="none" stroke="black" d="M76.81,-74.93C79.75,-73.79 82.74,-72.78 85.68,-72 211.39,-38.73 616.26,-23.94 742.04,-20.07"/>
<polygon fill="black" stroke="black" points="742.42,-23.56 752.31,-19.76 742.21,-16.57 742.42,-23.56"/>
</g>
<!-- ast.Name object at 0x7fc75fd3beb0 -->
<g id="node14" class="node">
<title>ast.Name object at 0x7fc75fd3beb0</title>
<path fill="#66cdaa" stroke="black" d="M136.68,-108C136.68,-108 106.68,-108 106.68,-108 100.68,-108 94.68,-102 94.68,-96 94.68,-96 94.68,-84 94.68,-84 94.68,-78 100.68,-72 106.68,-72 106.68,-72 136.68,-72 136.68,-72 142.68,-72 148.68,-78 148.68,-84 148.68,-84 148.68,-96 148.68,-96 148.68,-102 142.68,-108 136.68,-108"/>
<text text-anchor="middle" x="121.68" y="-86.3" font-family="Times,serif" font-size="14.00">Name</text>
</g>
<!-- ast.Slice object at 0x7fc75fd3a1d0&#45;&gt;ast.Name object at 0x7fc75fd3beb0 -->
<g id="edge14" class="edge">
<title>ast.Slice object at 0x7fc75fd3a1d0&#45;&gt;ast.Name object at 0x7fc75fd3beb0</title>
<path fill="none" stroke="black" d="M108.88,-143.7C110.78,-135.9 113.06,-126.51 115.16,-117.83"/>
<polygon fill="black" stroke="black" points="118.57,-118.65 117.53,-108.1 111.76,-117 118.57,-118.65"/>
</g>
<!-- ast.Name object at 0x7fc75fd38a90 -->
<g id="node15" class="node">
<title>ast.Name object at 0x7fc75fd38a90</title>
<path fill="#66cdaa" stroke="black" d="M208.68,-108C208.68,-108 178.68,-108 178.68,-108 172.68,-108 166.68,-102 166.68,-96 166.68,-96 166.68,-84 166.68,-84 166.68,-78 172.68,-72 178.68,-72 178.68,-72 208.68,-72 208.68,-72 214.68,-72 220.68,-78 220.68,-84 220.68,-84 220.68,-96 220.68,-96 220.68,-102 214.68,-108 208.68,-108"/>
<text text-anchor="middle" x="193.68" y="-86.3" font-family="Times,serif" font-size="14.00">Name</text>
</g>
<!-- ast.Slice object at 0x7fc75fd3a1d0&#45;&gt;ast.Name object at 0x7fc75fd38a90 -->
<g id="edge16" class="edge">
<title>ast.Slice object at 0x7fc75fd3a1d0&#45;&gt;ast.Name object at 0x7fc75fd38a90</title>
<path fill="none" stroke="black" d="M126.68,-143.7C137.89,-134.88 151.68,-124.03 163.83,-114.47"/>
<polygon fill="black" stroke="black" points="166.24,-117.04 171.93,-108.1 161.91,-111.54 166.24,-117.04"/>
</g>
<!-- ast.Name object at 0x7fc75fd3beb0&#45;&gt;ast.Load object at 0x7fc763fedf60 -->
<g id="edge15" class="edge">
<title>ast.Name object at 0x7fc75fd3beb0&#45;&gt;ast.Load object at 0x7fc763fedf60</title>
<path fill="none" stroke="black" d="M148.81,-74.96C151.75,-73.81 154.74,-72.79 157.68,-72 269.05,-42 625.23,-25.25 742.12,-20.45"/>
<polygon fill="black" stroke="black" points="742.51,-23.94 752.36,-20.04 742.22,-16.95 742.51,-23.94"/>
</g>
<!-- ast.Name object at 0x7fc75fd38a90&#45;&gt;ast.Load object at 0x7fc763fedf60 -->
<g id="edge17" class="edge">
<title>ast.Name object at 0x7fc75fd38a90&#45;&gt;ast.Load object at 0x7fc763fedf60</title>
<path fill="none" stroke="black" d="M221.09,-76.34C225.56,-74.65 230.19,-73.12 234.68,-72 421.23,-25.36 653.24,-19.33 742.4,-18.86"/>
<polygon fill="black" stroke="black" points="742.56,-22.36 752.55,-18.83 742.54,-15.36 742.56,-22.36"/>
</g>
<!-- ast.Name object at 0x7fc75fd3bac0 -->
<g id="node17" class="node">
<title>ast.Name object at 0x7fc75fd3bac0</title>
<path fill="#66cdaa" stroke="black" d="M434.68,-612C434.68,-612 404.68,-612 404.68,-612 398.68,-612 392.68,-606 392.68,-600 392.68,-600 392.68,-588 392.68,-588 392.68,-582 398.68,-576 404.68,-576 404.68,-576 434.68,-576 434.68,-576 440.68,-576 446.68,-582 446.68,-588 446.68,-588 446.68,-600 446.68,-600 446.68,-606 440.68,-612 434.68,-612"/>
<text text-anchor="middle" x="419.68" y="-590.3" font-family="Times,serif" font-size="14.00">Name</text>
</g>
<!-- ast.comprehension object at 0x7fc75fd3bee0&#45;&gt;ast.Name object at 0x7fc75fd3bac0 -->
<g id="edge20" class="edge">
<title>ast.comprehension object at 0x7fc75fd3bee0&#45;&gt;ast.Name object at 0x7fc75fd3bac0</title>
<path fill="none" stroke="black" d="M392.58,-647.7C396.68,-639.73 401.63,-630.1 406.17,-621.26"/>
<polygon fill="black" stroke="black" points="409.42,-622.6 410.88,-612.1 403.2,-619.4 409.42,-622.6"/>
</g>
<!-- ast.Call object at 0x7fc75fd3bf40 -->
<g id="node19" class="node">
<title>ast.Call object at 0x7fc75fd3bf40</title>
<path fill="#66cdaa" stroke="black" d="M351.68,-252C351.68,-252 321.68,-252 321.68,-252 315.68,-252 309.68,-246 309.68,-240 309.68,-240 309.68,-228 309.68,-228 309.68,-222 315.68,-216 321.68,-216 321.68,-216 351.68,-216 351.68,-216 357.68,-216 363.68,-222 363.68,-228 363.68,-228 363.68,-240 363.68,-240 363.68,-246 357.68,-252 351.68,-252"/>
<text text-anchor="middle" x="336.68" y="-230.3" font-family="Times,serif" font-size="14.00">Call</text>
</g>
<!-- ast.comprehension object at 0x7fc75fd3bee0&#45;&gt;ast.Call object at 0x7fc75fd3bf40 -->
<g id="edge22" class="edge">
<title>ast.comprehension object at 0x7fc75fd3bee0&#45;&gt;ast.Call object at 0x7fc75fd3bf40</title>
<path fill="none" stroke="black" d="M375.59,-647.95C363.9,-621.72 343.68,-569.61 343.68,-523 343.68,-523 343.68,-523 343.68,-377 343.68,-336.95 340.87,-290.62 338.81,-262.06"/>
<polygon fill="black" stroke="black" points="342.29,-261.75 338.06,-252.04 335.31,-262.27 342.29,-261.75"/>
</g>
<!-- ast.Store object at 0x7fc763fedfc0 -->
<g id="node18" class="node">
<title>ast.Store object at 0x7fc763fedfc0</title>
<path fill="#66cdaa" stroke="black" d="M476.68,-540C476.68,-540 446.68,-540 446.68,-540 440.68,-540 434.68,-534 434.68,-528 434.68,-528 434.68,-516 434.68,-516 434.68,-510 440.68,-504 446.68,-504 446.68,-504 476.68,-504 476.68,-504 482.68,-504 488.68,-510 488.68,-516 488.68,-516 488.68,-528 488.68,-528 488.68,-534 482.68,-540 476.68,-540"/>
<text text-anchor="middle" x="461.68" y="-518.3" font-family="Times,serif" font-size="14.00">Store</text>
</g>
<!-- ast.Name object at 0x7fc75fd3bac0&#45;&gt;ast.Store object at 0x7fc763fedfc0 -->
<g id="edge21" class="edge">
<title>ast.Name object at 0x7fc75fd3bac0&#45;&gt;ast.Store object at 0x7fc763fedfc0</title>
<path fill="none" stroke="black" d="M430.06,-575.7C434.94,-567.56 440.87,-557.69 446.26,-548.7"/>
<polygon fill="black" stroke="black" points="449.27,-550.48 451.42,-540.1 443.27,-546.88 449.27,-550.48"/>
</g>
<!-- ast.Name object at 0x7fc75fd3a5c0 -->
<g id="node20" class="node">
<title>ast.Name object at 0x7fc75fd3a5c0</title>
<path fill="#66cdaa" stroke="black" d="M320.68,-108C320.68,-108 290.68,-108 290.68,-108 284.68,-108 278.68,-102 278.68,-96 278.68,-96 278.68,-84 278.68,-84 278.68,-78 284.68,-72 290.68,-72 290.68,-72 320.68,-72 320.68,-72 326.68,-72 332.68,-78 332.68,-84 332.68,-84 332.68,-96 332.68,-96 332.68,-102 326.68,-108 320.68,-108"/>
<text text-anchor="middle" x="305.68" y="-86.3" font-family="Times,serif" font-size="14.00">Name</text>
</g>
<!-- ast.Call object at 0x7fc75fd3bf40&#45;&gt;ast.Name object at 0x7fc75fd3a5c0 -->
<g id="edge23" class="edge">
<title>ast.Call object at 0x7fc75fd3bf40&#45;&gt;ast.Name object at 0x7fc75fd3a5c0</title>
<path fill="none" stroke="black" d="M321.07,-215.77C313.31,-206.03 304.73,-193.18 300.68,-180 294.51,-159.94 296.28,-136.15 299.31,-118.22"/>
<polygon fill="black" stroke="black" points="302.79,-118.64 301.24,-108.16 295.92,-117.32 302.79,-118.64"/>
</g>
<!-- ast.Call object at 0x7fc75fd38b20 -->
<g id="node21" class="node">
<title>ast.Call object at 0x7fc75fd38b20</title>
<path fill="#66cdaa" stroke="black" d="M351.68,-180C351.68,-180 321.68,-180 321.68,-180 315.68,-180 309.68,-174 309.68,-168 309.68,-168 309.68,-156 309.68,-156 309.68,-150 315.68,-144 321.68,-144 321.68,-144 351.68,-144 351.68,-144 357.68,-144 363.68,-150 363.68,-156 363.68,-156 363.68,-168 363.68,-168 363.68,-174 357.68,-180 351.68,-180"/>
<text text-anchor="middle" x="336.68" y="-158.3" font-family="Times,serif" font-size="14.00">Call</text>
</g>
<!-- ast.Call object at 0x7fc75fd3bf40&#45;&gt;ast.Call object at 0x7fc75fd38b20 -->
<g id="edge25" class="edge">
<title>ast.Call object at 0x7fc75fd3bf40&#45;&gt;ast.Call object at 0x7fc75fd38b20</title>
<path fill="none" stroke="black" d="M336.68,-215.7C336.68,-207.98 336.68,-198.71 336.68,-190.11"/>
<polygon fill="black" stroke="black" points="340.18,-190.1 336.68,-180.1 333.18,-190.1 340.18,-190.1"/>
</g>
<!-- ast.Name object at 0x7fc75fd3a5c0&#45;&gt;ast.Load object at 0x7fc763fedf60 -->
<g id="edge24" class="edge">
<title>ast.Name object at 0x7fc75fd3a5c0&#45;&gt;ast.Load object at 0x7fc763fedf60</title>
<path fill="none" stroke="black" d="M332.7,-78.06C339.16,-75.77 346.1,-73.58 352.68,-72 493.92,-38.14 666.94,-25.14 741.98,-20.85"/>
<polygon fill="black" stroke="black" points="742.53,-24.32 752.33,-20.27 742.15,-17.33 742.53,-24.32"/>
</g>
<!-- ast.Name object at 0x7fc75fd38430 -->
<g id="node22" class="node">
<title>ast.Name object at 0x7fc75fd38430</title>
<path fill="#66cdaa" stroke="black" d="M481.68,-108C481.68,-108 451.68,-108 451.68,-108 445.68,-108 439.68,-102 439.68,-96 439.68,-96 439.68,-84 439.68,-84 439.68,-78 445.68,-72 451.68,-72 451.68,-72 481.68,-72 481.68,-72 487.68,-72 493.68,-78 493.68,-84 493.68,-84 493.68,-96 493.68,-96 493.68,-102 487.68,-108 481.68,-108"/>
<text text-anchor="middle" x="466.68" y="-86.3" font-family="Times,serif" font-size="14.00">Name</text>
</g>
<!-- ast.Call object at 0x7fc75fd38b20&#45;&gt;ast.Name object at 0x7fc75fd38430 -->
<g id="edge26" class="edge">
<title>ast.Call object at 0x7fc75fd38b20&#45;&gt;ast.Name object at 0x7fc75fd38430</title>
<path fill="none" stroke="black" d="M363.93,-146.33C383.26,-135.92 409.4,-121.84 430.48,-110.49"/>
<polygon fill="black" stroke="black" points="432.32,-113.48 439.46,-105.65 429,-107.31 432.32,-113.48"/>
</g>
<!-- ast.Name object at 0x7fc75fd3b8e0 -->
<g id="node23" class="node">
<title>ast.Name object at 0x7fc75fd3b8e0</title>
<path fill="#66cdaa" stroke="black" d="M403.68,-108C403.68,-108 373.68,-108 373.68,-108 367.68,-108 361.68,-102 361.68,-96 361.68,-96 361.68,-84 361.68,-84 361.68,-78 367.68,-72 373.68,-72 373.68,-72 403.68,-72 403.68,-72 409.68,-72 415.68,-78 415.68,-84 415.68,-84 415.68,-96 415.68,-96 415.68,-102 409.68,-108 403.68,-108"/>
<text text-anchor="middle" x="388.68" y="-86.3" font-family="Times,serif" font-size="14.00">Name</text>
</g>
<!-- ast.Call object at 0x7fc75fd38b20&#45;&gt;ast.Name object at 0x7fc75fd3b8e0 -->
<g id="edge28" class="edge">
<title>ast.Call object at 0x7fc75fd38b20&#45;&gt;ast.Name object at 0x7fc75fd3b8e0</title>
<path fill="none" stroke="black" d="M349.53,-143.7C355.7,-135.39 363.22,-125.28 370,-116.14"/>
<polygon fill="black" stroke="black" points="372.82,-118.22 375.97,-108.1 367.2,-114.04 372.82,-118.22"/>
</g>
<!-- ast.Name object at 0x7fc75fd38430&#45;&gt;ast.Load object at 0x7fc763fedf60 -->
<g id="edge27" class="edge">
<title>ast.Name object at 0x7fc75fd38430&#45;&gt;ast.Load object at 0x7fc763fedf60</title>
<path fill="none" stroke="black" d="M494.09,-76.16C497.93,-74.62 501.87,-73.18 505.68,-72 588.32,-46.34 689.01,-30.69 742.34,-23.57"/>
<polygon fill="black" stroke="black" points="742.9,-27.03 752.36,-22.26 741.99,-20.09 742.9,-27.03"/>
</g>
<!-- ast.Name object at 0x7fc75fd3b8e0&#45;&gt;ast.Load object at 0x7fc763fedf60 -->
<g id="edge29" class="edge">
<title>ast.Name object at 0x7fc75fd3b8e0&#45;&gt;ast.Load object at 0x7fc763fedf60</title>
<path fill="none" stroke="black" d="M415.92,-76.9C420.77,-75.06 425.82,-73.33 430.68,-72 541.81,-41.52 677.97,-27.22 742.44,-21.78"/>
<polygon fill="black" stroke="black" points="742.84,-25.26 752.52,-20.95 742.27,-18.28 742.84,-25.26"/>
</g>
<!-- ast.Name object at 0x7fc75fd39390 -->
<g id="node25" class="node">
<title>ast.Name object at 0x7fc75fd39390</title>
<path fill="#66cdaa" stroke="black" d="M517.68,-612C517.68,-612 487.68,-612 487.68,-612 481.68,-612 475.68,-606 475.68,-600 475.68,-600 475.68,-588 475.68,-588 475.68,-582 481.68,-576 487.68,-576 487.68,-576 517.68,-576 517.68,-576 523.68,-576 529.68,-582 529.68,-588 529.68,-588 529.68,-600 529.68,-600 529.68,-606 523.68,-612 517.68,-612"/>
<text text-anchor="middle" x="502.68" y="-590.3" font-family="Times,serif" font-size="14.00">Name</text>
</g>
<!-- ast.comprehension object at 0x7fc75fd3b070&#45;&gt;ast.Name object at 0x7fc75fd39390 -->
<g id="edge31" class="edge">
<title>ast.comprehension object at 0x7fc75fd3b070&#45;&gt;ast.Name object at 0x7fc75fd39390</title>
<path fill="none" stroke="black" d="M510.96,-647.7C509.75,-639.98 508.29,-630.71 506.94,-622.11"/>
<polygon fill="black" stroke="black" points="510.38,-621.44 505.37,-612.1 503.46,-622.53 510.38,-621.44"/>
</g>
<!-- ast.Call object at 0x7fc75fd3a3e0 -->
<g id="node26" class="node">
<title>ast.Call object at 0x7fc75fd3a3e0</title>
<path fill="#66cdaa" stroke="black" d="M615.68,-324C615.68,-324 585.68,-324 585.68,-324 579.68,-324 573.68,-318 573.68,-312 573.68,-312 573.68,-300 573.68,-300 573.68,-294 579.68,-288 585.68,-288 585.68,-288 615.68,-288 615.68,-288 621.68,-288 627.68,-294 627.68,-300 627.68,-300 627.68,-312 627.68,-312 627.68,-318 621.68,-324 615.68,-324"/>
<text text-anchor="middle" x="600.68" y="-302.3" font-family="Times,serif" font-size="14.00">Call</text>
</g>
<!-- ast.comprehension object at 0x7fc75fd3b070&#45;&gt;ast.Call object at 0x7fc75fd3a3e0 -->
<g id="edge33" class="edge">
<title>ast.comprehension object at 0x7fc75fd3b070&#45;&gt;ast.Call object at 0x7fc75fd3a3e0</title>
<path fill="none" stroke="black" d="M529.52,-647.65C550.99,-622.27 586.68,-572.62 586.68,-523 586.68,-523 586.68,-523 586.68,-449 586.68,-409.02 592.24,-363.02 596.36,-334.47"/>
<polygon fill="black" stroke="black" points="599.84,-334.84 597.85,-324.43 592.92,-333.81 599.84,-334.84"/>
</g>
<!-- ast.BoolOp object at 0x7fc75fd3b700 -->
<g id="node37" class="node">
<title>ast.BoolOp object at 0x7fc75fd3b700</title>
<path fill="#66cdaa" stroke="black" d="M1005.18,-612C1005.18,-612 970.18,-612 970.18,-612 964.18,-612 958.18,-606 958.18,-600 958.18,-600 958.18,-588 958.18,-588 958.18,-582 964.18,-576 970.18,-576 970.18,-576 1005.18,-576 1005.18,-576 1011.18,-576 1017.18,-582 1017.18,-588 1017.18,-588 1017.18,-600 1017.18,-600 1017.18,-606 1011.18,-612 1005.18,-612"/>
<text text-anchor="middle" x="987.68" y="-590.3" font-family="Times,serif" font-size="14.00">BoolOp</text>
</g>
<!-- ast.comprehension object at 0x7fc75fd3b070&#45;&gt;ast.BoolOp object at 0x7fc75fd3b700 -->
<g id="edge49" class="edge">
<title>ast.comprehension object at 0x7fc75fd3b070&#45;&gt;ast.BoolOp object at 0x7fc75fd3b700</title>
<path fill="none" stroke="black" d="M563.96,-657.58C658.76,-643.57 862.13,-613.54 948.06,-600.85"/>
<polygon fill="black" stroke="black" points="948.8,-604.28 958.18,-599.36 947.77,-597.36 948.8,-604.28"/>
</g>
<!-- ast.Name object at 0x7fc75fd39390&#45;&gt;ast.Store object at 0x7fc763fedfc0 -->
<g id="edge32" class="edge">
<title>ast.Name object at 0x7fc75fd39390&#45;&gt;ast.Store object at 0x7fc763fedfc0</title>
<path fill="none" stroke="black" d="M492.54,-575.7C487.83,-567.64 482.12,-557.89 476.9,-548.98"/>
<polygon fill="black" stroke="black" points="479.77,-546.96 471.7,-540.1 473.73,-550.5 479.77,-546.96"/>
</g>
<!-- ast.Name object at 0x7fc75fd3bf70 -->
<g id="node27" class="node">
<title>ast.Name object at 0x7fc75fd3bf70</title>
<path fill="#66cdaa" stroke="black" d="M717.68,-252C717.68,-252 687.68,-252 687.68,-252 681.68,-252 675.68,-246 675.68,-240 675.68,-240 675.68,-228 675.68,-228 675.68,-222 681.68,-216 687.68,-216 687.68,-216 717.68,-216 717.68,-216 723.68,-216 729.68,-222 729.68,-228 729.68,-228 729.68,-240 729.68,-240 729.68,-246 723.68,-252 717.68,-252"/>
<text text-anchor="middle" x="702.68" y="-230.3" font-family="Times,serif" font-size="14.00">Name</text>
</g>
<!-- ast.Call object at 0x7fc75fd3a3e0&#45;&gt;ast.Name object at 0x7fc75fd3bf70 -->
<g id="edge34" class="edge">
<title>ast.Call object at 0x7fc75fd3a3e0&#45;&gt;ast.Name object at 0x7fc75fd3bf70</title>
<path fill="none" stroke="black" d="M625.63,-287.88C638.72,-278.89 654.94,-267.76 669.12,-258.03"/>
<polygon fill="black" stroke="black" points="671.37,-260.73 677.63,-252.19 667.41,-254.96 671.37,-260.73"/>
</g>
<!-- ast.BinOp object at 0x7fc75fd3ad10 -->
<g id="node28" class="node">
<title>ast.BinOp object at 0x7fc75fd3ad10</title>
<path fill="#66cdaa" stroke="black" d="M517.68,-252C517.68,-252 487.68,-252 487.68,-252 481.68,-252 475.68,-246 475.68,-240 475.68,-240 475.68,-228 475.68,-228 475.68,-222 481.68,-216 487.68,-216 487.68,-216 517.68,-216 517.68,-216 523.68,-216 529.68,-222 529.68,-228 529.68,-228 529.68,-240 529.68,-240 529.68,-246 523.68,-252 517.68,-252"/>
<text text-anchor="middle" x="502.68" y="-230.3" font-family="Times,serif" font-size="14.00">BinOp</text>
</g>
<!-- ast.Call object at 0x7fc75fd3a3e0&#45;&gt;ast.BinOp object at 0x7fc75fd3ad10 -->
<g id="edge36" class="edge">
<title>ast.Call object at 0x7fc75fd3a3e0&#45;&gt;ast.BinOp object at 0x7fc75fd3ad10</title>
<path fill="none" stroke="black" d="M576.71,-287.88C564.13,-278.89 548.55,-267.76 534.93,-258.03"/>
<polygon fill="black" stroke="black" points="536.92,-255.15 526.75,-252.19 532.85,-260.85 536.92,-255.15"/>
</g>
<!-- ast.BinOp object at 0x7fc75fd3b310 -->
<g id="node32" class="node">
<title>ast.BinOp object at 0x7fc75fd3b310</title>
<path fill="#66cdaa" stroke="black" d="M619.68,-252C619.68,-252 589.68,-252 589.68,-252 583.68,-252 577.68,-246 577.68,-240 577.68,-240 577.68,-228 577.68,-228 577.68,-222 583.68,-216 589.68,-216 589.68,-216 619.68,-216 619.68,-216 625.68,-216 631.68,-222 631.68,-228 631.68,-228 631.68,-240 631.68,-240 631.68,-246 625.68,-252 619.68,-252"/>
<text text-anchor="middle" x="604.68" y="-230.3" font-family="Times,serif" font-size="14.00">BinOp</text>
</g>
<!-- ast.Call object at 0x7fc75fd3a3e0&#45;&gt;ast.BinOp object at 0x7fc75fd3b310 -->
<g id="edge41" class="edge">
<title>ast.Call object at 0x7fc75fd3a3e0&#45;&gt;ast.BinOp object at 0x7fc75fd3b310</title>
<path fill="none" stroke="black" d="M601.67,-287.7C602.11,-279.98 602.64,-270.71 603.13,-262.11"/>
<polygon fill="black" stroke="black" points="606.63,-262.29 603.7,-252.1 599.64,-261.89 606.63,-262.29"/>
</g>
<!-- ast.Name object at 0x7fc75fd3bf70&#45;&gt;ast.Load object at 0x7fc763fedf60 -->
<g id="edge35" class="edge">
<title>ast.Name object at 0x7fc75fd3bf70&#45;&gt;ast.Load object at 0x7fc763fedf60</title>
<path fill="none" stroke="black" d="M709.25,-215.85C713.2,-205.49 718.29,-192.01 722.68,-180 739.86,-133.01 759.16,-78.02 770.32,-45.99"/>
<polygon fill="black" stroke="black" points="773.66,-47.03 773.64,-36.43 767.05,-44.73 773.66,-47.03"/>
</g>
<!-- ast.Name object at 0x7fc75fd3baf0 -->
<g id="node29" class="node">
<title>ast.Name object at 0x7fc75fd3baf0</title>
<path fill="#66cdaa" stroke="black" d="M556.68,-108C556.68,-108 526.68,-108 526.68,-108 520.68,-108 514.68,-102 514.68,-96 514.68,-96 514.68,-84 514.68,-84 514.68,-78 520.68,-72 526.68,-72 526.68,-72 556.68,-72 556.68,-72 562.68,-72 568.68,-78 568.68,-84 568.68,-84 568.68,-96 568.68,-96 568.68,-102 562.68,-108 556.68,-108"/>
<text text-anchor="middle" x="541.68" y="-86.3" font-family="Times,serif" font-size="14.00">Name</text>
</g>
<!-- ast.BinOp object at 0x7fc75fd3ad10&#45;&gt;ast.Name object at 0x7fc75fd3baf0 -->
<g id="edge37" class="edge">
<title>ast.BinOp object at 0x7fc75fd3ad10&#45;&gt;ast.Name object at 0x7fc75fd3baf0</title>
<path fill="none" stroke="black" d="M496.82,-215.99C491.47,-197.62 485.65,-167.79 494.68,-144 498.65,-133.54 505.73,-123.83 513.21,-115.65"/>
<polygon fill="black" stroke="black" points="515.91,-117.89 520.41,-108.3 510.91,-112.99 515.91,-117.89"/>
</g>
<!-- ast.Add object at 0x7fc763fee1a0 -->
<g id="node30" class="node">
<title>ast.Add object at 0x7fc763fee1a0</title>
<path fill="#66cdaa" stroke="black" d="M545.68,-180C545.68,-180 515.68,-180 515.68,-180 509.68,-180 503.68,-174 503.68,-168 503.68,-168 503.68,-156 503.68,-156 503.68,-150 509.68,-144 515.68,-144 515.68,-144 545.68,-144 545.68,-144 551.68,-144 557.68,-150 557.68,-156 557.68,-156 557.68,-168 557.68,-168 557.68,-174 551.68,-180 545.68,-180"/>
<text text-anchor="middle" x="530.68" y="-158.3" font-family="Times,serif" font-size="14.00">Add</text>
</g>
<!-- ast.BinOp object at 0x7fc75fd3ad10&#45;&gt;ast.Add object at 0x7fc763fee1a0 -->
<g id="edge39" class="edge">
<title>ast.BinOp object at 0x7fc75fd3ad10&#45;&gt;ast.Add object at 0x7fc763fee1a0</title>
<path fill="none" stroke="black" d="M509.6,-215.7C512.75,-207.81 516.56,-198.3 520.06,-189.55"/>
<polygon fill="black" stroke="black" points="523.37,-190.69 523.84,-180.1 516.87,-188.09 523.37,-190.69"/>
</g>
<!-- ast.Constant object at 0x7fc75fd38a00 -->
<g id="node31" class="node">
<title>ast.Constant object at 0x7fc75fd38a00</title>
<path fill="#66cdaa" stroke="black" d="M435.18,-180C435.18,-180 394.18,-180 394.18,-180 388.18,-180 382.18,-174 382.18,-168 382.18,-168 382.18,-156 382.18,-156 382.18,-150 388.18,-144 394.18,-144 394.18,-144 435.18,-144 435.18,-144 441.18,-144 447.18,-150 447.18,-156 447.18,-156 447.18,-168 447.18,-168 447.18,-174 441.18,-180 435.18,-180"/>
<text text-anchor="middle" x="414.68" y="-158.3" font-family="Times,serif" font-size="14.00">Constant</text>
</g>
<!-- ast.BinOp object at 0x7fc75fd3ad10&#45;&gt;ast.Constant object at 0x7fc75fd38a00 -->
<g id="edge40" class="edge">
<title>ast.BinOp object at 0x7fc75fd3ad10&#45;&gt;ast.Constant object at 0x7fc75fd38a00</title>
<path fill="none" stroke="black" d="M480.93,-215.7C469.84,-206.88 456.21,-196.03 444.19,-186.47"/>
<polygon fill="black" stroke="black" points="446.19,-183.59 436.18,-180.1 441.83,-189.07 446.19,-183.59"/>
</g>
<!-- ast.Name object at 0x7fc75fd3baf0&#45;&gt;ast.Load object at 0x7fc763fedf60 -->
<g id="edge38" class="edge">
<title>ast.Name object at 0x7fc75fd3baf0&#45;&gt;ast.Load object at 0x7fc763fedf60</title>
<path fill="none" stroke="black" d="M568.94,-75.84C572.19,-74.46 575.49,-73.15 578.68,-72 634.62,-51.94 701.76,-35.76 742.54,-26.77"/>
<polygon fill="black" stroke="black" points="743.54,-30.13 752.57,-24.58 742.05,-23.29 743.54,-30.13"/>
</g>
<!-- ast.BinOp object at 0x7fc75fd3b310&#45;&gt;ast.Add object at 0x7fc763fee1a0 -->
<g id="edge47" class="edge">
<title>ast.BinOp object at 0x7fc75fd3b310&#45;&gt;ast.Add object at 0x7fc763fee1a0</title>
<path fill="none" stroke="black" d="M586.39,-215.7C577.25,-207.05 566.04,-196.45 556.08,-187.03"/>
<polygon fill="black" stroke="black" points="558.43,-184.43 548.76,-180.1 553.62,-189.52 558.43,-184.43"/>
</g>
<!-- ast.Call object at 0x7fc75fd38370 -->
<g id="node33" class="node">
<title>ast.Call object at 0x7fc75fd38370</title>
<path fill="#66cdaa" stroke="black" d="M701.68,-180C701.68,-180 671.68,-180 671.68,-180 665.68,-180 659.68,-174 659.68,-168 659.68,-168 659.68,-156 659.68,-156 659.68,-150 665.68,-144 671.68,-144 671.68,-144 701.68,-144 701.68,-144 707.68,-144 713.68,-150 713.68,-156 713.68,-156 713.68,-168 713.68,-168 713.68,-174 707.68,-180 701.68,-180"/>
<text text-anchor="middle" x="686.68" y="-158.3" font-family="Times,serif" font-size="14.00">Call</text>
</g>
<!-- ast.BinOp object at 0x7fc75fd3b310&#45;&gt;ast.Call object at 0x7fc75fd38370 -->
<g id="edge42" class="edge">
<title>ast.BinOp object at 0x7fc75fd3b310&#45;&gt;ast.Call object at 0x7fc75fd38370</title>
<path fill="none" stroke="black" d="M624.95,-215.7C635.18,-206.97 647.74,-196.24 658.86,-186.75"/>
<polygon fill="black" stroke="black" points="661.31,-189.26 666.64,-180.1 656.77,-183.94 661.31,-189.26"/>
</g>
<!-- ast.Constant object at 0x7fc75fd38e50 -->
<g id="node36" class="node">
<title>ast.Constant object at 0x7fc75fd38e50</title>
<path fill="#66cdaa" stroke="black" d="M629.18,-180C629.18,-180 588.18,-180 588.18,-180 582.18,-180 576.18,-174 576.18,-168 576.18,-168 576.18,-156 576.18,-156 576.18,-150 582.18,-144 588.18,-144 588.18,-144 629.18,-144 629.18,-144 635.18,-144 641.18,-150 641.18,-156 641.18,-156 641.18,-168 641.18,-168 641.18,-174 635.18,-180 629.18,-180"/>
<text text-anchor="middle" x="608.68" y="-158.3" font-family="Times,serif" font-size="14.00">Constant</text>
</g>
<!-- ast.BinOp object at 0x7fc75fd3b310&#45;&gt;ast.Constant object at 0x7fc75fd38e50 -->
<g id="edge48" class="edge">
<title>ast.BinOp object at 0x7fc75fd3b310&#45;&gt;ast.Constant object at 0x7fc75fd38e50</title>
<path fill="none" stroke="black" d="M605.67,-215.7C606.11,-207.98 606.64,-198.71 607.13,-190.11"/>
<polygon fill="black" stroke="black" points="610.63,-190.29 607.7,-180.1 603.64,-189.89 610.63,-190.29"/>
</g>
<!-- ast.Name object at 0x7fc75fd38400 -->
<g id="node34" class="node">
<title>ast.Name object at 0x7fc75fd38400</title>
<path fill="#66cdaa" stroke="black" d="M629.68,-108C629.68,-108 599.68,-108 599.68,-108 593.68,-108 587.68,-102 587.68,-96 587.68,-96 587.68,-84 587.68,-84 587.68,-78 593.68,-72 599.68,-72 599.68,-72 629.68,-72 629.68,-72 635.68,-72 641.68,-78 641.68,-84 641.68,-84 641.68,-96 641.68,-96 641.68,-102 635.68,-108 629.68,-108"/>
<text text-anchor="middle" x="614.68" y="-86.3" font-family="Times,serif" font-size="14.00">Name</text>
</g>
<!-- ast.Call object at 0x7fc75fd38370&#45;&gt;ast.Name object at 0x7fc75fd38400 -->
<g id="edge43" class="edge">
<title>ast.Call object at 0x7fc75fd38370&#45;&gt;ast.Name object at 0x7fc75fd38400</title>
<path fill="none" stroke="black" d="M668.88,-143.7C660.08,-135.14 649.3,-124.66 639.68,-115.3"/>
<polygon fill="black" stroke="black" points="641.88,-112.57 632.27,-108.1 637,-117.58 641.88,-112.57"/>
</g>
<!-- ast.Name object at 0x7fc75fd3a5f0 -->
<g id="node35" class="node">
<title>ast.Name object at 0x7fc75fd3a5f0</title>
<path fill="#66cdaa" stroke="black" d="M701.68,-108C701.68,-108 671.68,-108 671.68,-108 665.68,-108 659.68,-102 659.68,-96 659.68,-96 659.68,-84 659.68,-84 659.68,-78 665.68,-72 671.68,-72 671.68,-72 701.68,-72 701.68,-72 707.68,-72 713.68,-78 713.68,-84 713.68,-84 713.68,-96 713.68,-96 713.68,-102 707.68,-108 701.68,-108"/>
<text text-anchor="middle" x="686.68" y="-86.3" font-family="Times,serif" font-size="14.00">Name</text>
</g>
<!-- ast.Call object at 0x7fc75fd38370&#45;&gt;ast.Name object at 0x7fc75fd3a5f0 -->
<g id="edge45" class="edge">
<title>ast.Call object at 0x7fc75fd38370&#45;&gt;ast.Name object at 0x7fc75fd3a5f0</title>
<path fill="none" stroke="black" d="M686.68,-143.7C686.68,-135.98 686.68,-126.71 686.68,-118.11"/>
<polygon fill="black" stroke="black" points="690.18,-118.1 686.68,-108.1 683.18,-118.1 690.18,-118.1"/>
</g>
<!-- ast.Name object at 0x7fc75fd38400&#45;&gt;ast.Load object at 0x7fc763fedf60 -->
<g id="edge44" class="edge">
<title>ast.Name object at 0x7fc75fd38400&#45;&gt;ast.Load object at 0x7fc763fedf60</title>
<path fill="none" stroke="black" d="M641.74,-76.04C644.74,-74.65 647.77,-73.28 650.68,-72 681.52,-58.39 716.97,-43.91 742.89,-33.53"/>
<polygon fill="black" stroke="black" points="744.34,-36.72 752.33,-29.76 741.74,-30.22 744.34,-36.72"/>
</g>
<!-- ast.Name object at 0x7fc75fd3a5f0&#45;&gt;ast.Load object at 0x7fc763fedf60 -->
<g id="edge46" class="edge">
<title>ast.Name object at 0x7fc75fd3a5f0&#45;&gt;ast.Load object at 0x7fc763fedf60</title>
<path fill="none" stroke="black" d="M709.67,-71.7C721.49,-62.8 736.07,-51.82 748.86,-42.2"/>
<polygon fill="black" stroke="black" points="751.07,-44.91 756.96,-36.1 746.86,-39.32 751.07,-44.91"/>
</g>
<!-- ast.And object at 0x7fc763fee0b0 -->
<g id="node38" class="node">
<title>ast.And object at 0x7fc763fee0b0</title>
<path fill="#66cdaa" stroke="black" d="M1124.68,-540C1124.68,-540 1094.68,-540 1094.68,-540 1088.68,-540 1082.68,-534 1082.68,-528 1082.68,-528 1082.68,-516 1082.68,-516 1082.68,-510 1088.68,-504 1094.68,-504 1094.68,-504 1124.68,-504 1124.68,-504 1130.68,-504 1136.68,-510 1136.68,-516 1136.68,-516 1136.68,-528 1136.68,-528 1136.68,-534 1130.68,-540 1124.68,-540"/>
<text text-anchor="middle" x="1109.68" y="-518.3" font-family="Times,serif" font-size="14.00">And</text>
</g>
<!-- ast.BoolOp object at 0x7fc75fd3b700&#45;&gt;ast.And object at 0x7fc763fee0b0 -->
<g id="edge50" class="edge">
<title>ast.BoolOp object at 0x7fc75fd3b700&#45;&gt;ast.And object at 0x7fc763fee0b0</title>
<path fill="none" stroke="black" d="M1017.21,-576.05C1034.15,-566.34 1055.54,-554.07 1073.48,-543.77"/>
<polygon fill="black" stroke="black" points="1075.57,-546.6 1082.5,-538.59 1072.09,-540.53 1075.57,-546.6"/>
</g>
<!-- ast.Compare object at 0x7fc75fd38790 -->
<g id="node39" class="node">
<title>ast.Compare object at 0x7fc75fd38790</title>
<path fill="#66cdaa" stroke="black" d="M967.18,-540C967.18,-540 924.18,-540 924.18,-540 918.18,-540 912.18,-534 912.18,-528 912.18,-528 912.18,-516 912.18,-516 912.18,-510 918.18,-504 924.18,-504 924.18,-504 967.18,-504 967.18,-504 973.18,-504 979.18,-510 979.18,-516 979.18,-516 979.18,-528 979.18,-528 979.18,-534 973.18,-540 967.18,-540"/>
<text text-anchor="middle" x="945.68" y="-518.3" font-family="Times,serif" font-size="14.00">Compare</text>
</g>
<!-- ast.BoolOp object at 0x7fc75fd3b700&#45;&gt;ast.Compare object at 0x7fc75fd38790 -->
<g id="edge51" class="edge">
<title>ast.BoolOp object at 0x7fc75fd3b700&#45;&gt;ast.Compare object at 0x7fc75fd38790</title>
<path fill="none" stroke="black" d="M977.3,-575.7C972.41,-567.56 966.49,-557.69 961.1,-548.7"/>
<polygon fill="black" stroke="black" points="964.09,-546.88 955.94,-540.1 958.09,-550.48 964.09,-546.88"/>
</g>
<!-- ast.Compare object at 0x7fc75fd39450 -->
<g id="node52" class="node">
<title>ast.Compare object at 0x7fc75fd39450</title>
<path fill="#66cdaa" stroke="black" d="M1052.18,-540C1052.18,-540 1009.18,-540 1009.18,-540 1003.18,-540 997.18,-534 997.18,-528 997.18,-528 997.18,-516 997.18,-516 997.18,-510 1003.18,-504 1009.18,-504 1009.18,-504 1052.18,-504 1052.18,-504 1058.18,-504 1064.18,-510 1064.18,-516 1064.18,-516 1064.18,-528 1064.18,-528 1064.18,-534 1058.18,-540 1052.18,-540"/>
<text text-anchor="middle" x="1030.68" y="-518.3" font-family="Times,serif" font-size="14.00">Compare</text>
</g>
<!-- ast.BoolOp object at 0x7fc75fd3b700&#45;&gt;ast.Compare object at 0x7fc75fd39450 -->
<g id="edge70" class="edge">
<title>ast.BoolOp object at 0x7fc75fd3b700&#45;&gt;ast.Compare object at 0x7fc75fd39450</title>
<path fill="none" stroke="black" d="M998.31,-575.7C1003.31,-567.56 1009.37,-557.69 1014.89,-548.7"/>
<polygon fill="black" stroke="black" points="1017.92,-550.46 1020.17,-540.1 1011.96,-546.79 1017.92,-550.46"/>
</g>
<!-- ast.Call object at 0x7fc75fd3b6a0 -->
<g id="node40" class="node">
<title>ast.Call object at 0x7fc75fd3b6a0</title>
<path fill="#66cdaa" stroke="black" d="M888.68,-396C888.68,-396 858.68,-396 858.68,-396 852.68,-396 846.68,-390 846.68,-384 846.68,-384 846.68,-372 846.68,-372 846.68,-366 852.68,-360 858.68,-360 858.68,-360 888.68,-360 888.68,-360 894.68,-360 900.68,-366 900.68,-372 900.68,-372 900.68,-384 900.68,-384 900.68,-390 894.68,-396 888.68,-396"/>
<text text-anchor="middle" x="873.68" y="-374.3" font-family="Times,serif" font-size="14.00">Call</text>
</g>
<!-- ast.Compare object at 0x7fc75fd38790&#45;&gt;ast.Call object at 0x7fc75fd3b6a0 -->
<g id="edge52" class="edge">
<title>ast.Compare object at 0x7fc75fd38790&#45;&gt;ast.Call object at 0x7fc75fd3b6a0</title>
<path fill="none" stroke="black" d="M929.65,-503.94C921.03,-494.04 910.74,-481 903.68,-468 892.96,-448.27 885.09,-424 880.11,-405.8"/>
<polygon fill="black" stroke="black" points="883.49,-404.9 877.57,-396.12 876.72,-406.68 883.49,-404.9"/>
</g>
<!-- ast.Eq object at 0x7fc763fee890 -->
<g id="node50" class="node">
<title>ast.Eq object at 0x7fc763fee890</title>
<path fill="#66cdaa" stroke="black" d="M1041.68,-468C1041.68,-468 1011.68,-468 1011.68,-468 1005.68,-468 999.68,-462 999.68,-456 999.68,-456 999.68,-444 999.68,-444 999.68,-438 1005.68,-432 1011.68,-432 1011.68,-432 1041.68,-432 1041.68,-432 1047.68,-432 1053.68,-438 1053.68,-444 1053.68,-444 1053.68,-456 1053.68,-456 1053.68,-462 1047.68,-468 1041.68,-468"/>
<text text-anchor="middle" x="1026.68" y="-446.3" font-family="Times,serif" font-size="14.00">Eq</text>
</g>
<!-- ast.Compare object at 0x7fc75fd38790&#45;&gt;ast.Eq object at 0x7fc763fee890 -->
<g id="edge68" class="edge">
<title>ast.Compare object at 0x7fc75fd38790&#45;&gt;ast.Eq object at 0x7fc763fee890</title>
<path fill="none" stroke="black" d="M965.7,-503.7C975.81,-494.97 988.22,-484.24 999.2,-474.75"/>
<polygon fill="black" stroke="black" points="1001.61,-477.29 1006.89,-468.1 997.03,-471.99 1001.61,-477.29"/>
</g>
<!-- ast.Constant object at 0x7fc75fd3b2e0 -->
<g id="node51" class="node">
<title>ast.Constant object at 0x7fc75fd3b2e0</title>
<path fill="#66cdaa" stroke="black" d="M966.18,-468C966.18,-468 925.18,-468 925.18,-468 919.18,-468 913.18,-462 913.18,-456 913.18,-456 913.18,-444 913.18,-444 913.18,-438 919.18,-432 925.18,-432 925.18,-432 966.18,-432 966.18,-432 972.18,-432 978.18,-438 978.18,-444 978.18,-444 978.18,-456 978.18,-456 978.18,-462 972.18,-468 966.18,-468"/>
<text text-anchor="middle" x="945.68" y="-446.3" font-family="Times,serif" font-size="14.00">Constant</text>
</g>
<!-- ast.Compare object at 0x7fc75fd38790&#45;&gt;ast.Constant object at 0x7fc75fd3b2e0 -->
<g id="edge69" class="edge">
<title>ast.Compare object at 0x7fc75fd38790&#45;&gt;ast.Constant object at 0x7fc75fd3b2e0</title>
<path fill="none" stroke="black" d="M945.68,-503.7C945.68,-495.98 945.68,-486.71 945.68,-478.11"/>
<polygon fill="black" stroke="black" points="949.18,-478.1 945.68,-468.1 942.18,-478.1 949.18,-478.1"/>
</g>
<!-- ast.Name object at 0x7fc75fd3bca0 -->
<g id="node41" class="node">
<title>ast.Name object at 0x7fc75fd3bca0</title>
<path fill="#66cdaa" stroke="black" d="M804.68,-324C804.68,-324 774.68,-324 774.68,-324 768.68,-324 762.68,-318 762.68,-312 762.68,-312 762.68,-300 762.68,-300 762.68,-294 768.68,-288 774.68,-288 774.68,-288 804.68,-288 804.68,-288 810.68,-288 816.68,-294 816.68,-300 816.68,-300 816.68,-312 816.68,-312 816.68,-318 810.68,-324 804.68,-324"/>
<text text-anchor="middle" x="789.68" y="-302.3" font-family="Times,serif" font-size="14.00">Name</text>
</g>
<!-- ast.Call object at 0x7fc75fd3b6a0&#45;&gt;ast.Name object at 0x7fc75fd3bca0 -->
<g id="edge53" class="edge">
<title>ast.Call object at 0x7fc75fd3b6a0&#45;&gt;ast.Name object at 0x7fc75fd3bca0</title>
<path fill="none" stroke="black" d="M852.92,-359.7C842.44,-350.97 829.57,-340.24 818.18,-330.75"/>
<polygon fill="black" stroke="black" points="820.13,-327.82 810.2,-324.1 815.65,-333.19 820.13,-327.82"/>
</g>
<!-- ast.Call object at 0x7fc75fd389d0 -->
<g id="node42" class="node">
<title>ast.Call object at 0x7fc75fd389d0</title>
<path fill="#66cdaa" stroke="black" d="M888.68,-324C888.68,-324 858.68,-324 858.68,-324 852.68,-324 846.68,-318 846.68,-312 846.68,-312 846.68,-300 846.68,-300 846.68,-294 852.68,-288 858.68,-288 858.68,-288 888.68,-288 888.68,-288 894.68,-288 900.68,-294 900.68,-300 900.68,-300 900.68,-312 900.68,-312 900.68,-318 894.68,-324 888.68,-324"/>
<text text-anchor="middle" x="873.68" y="-302.3" font-family="Times,serif" font-size="14.00">Call</text>
</g>
<!-- ast.Call object at 0x7fc75fd3b6a0&#45;&gt;ast.Call object at 0x7fc75fd389d0 -->
<g id="edge55" class="edge">
<title>ast.Call object at 0x7fc75fd3b6a0&#45;&gt;ast.Call object at 0x7fc75fd389d0</title>
<path fill="none" stroke="black" d="M873.68,-359.7C873.68,-351.98 873.68,-342.71 873.68,-334.11"/>
<polygon fill="black" stroke="black" points="877.18,-334.1 873.68,-324.1 870.18,-334.1 877.18,-334.1"/>
</g>
<!-- ast.Name object at 0x7fc75fd3bca0&#45;&gt;ast.Load object at 0x7fc763fedf60 -->
<g id="edge54" class="edge">
<title>ast.Name object at 0x7fc75fd3bca0&#45;&gt;ast.Load object at 0x7fc763fedf60</title>
<path fill="none" stroke="black" d="M789.08,-287.97C787.42,-240.29 782.69,-105.18 780.65,-46.63"/>
<polygon fill="black" stroke="black" points="784.13,-46.18 780.28,-36.31 777.14,-46.42 784.13,-46.18"/>
</g>
<!-- ast.Attribute object at 0x7fc75fd3a2c0 -->
<g id="node43" class="node">
<title>ast.Attribute object at 0x7fc75fd3a2c0</title>
<path fill="#66cdaa" stroke="black" d="M1020.18,-252C1020.18,-252 979.18,-252 979.18,-252 973.18,-252 967.18,-246 967.18,-240 967.18,-240 967.18,-228 967.18,-228 967.18,-222 973.18,-216 979.18,-216 979.18,-216 1020.18,-216 1020.18,-216 1026.18,-216 1032.18,-222 1032.18,-228 1032.18,-228 1032.18,-240 1032.18,-240 1032.18,-246 1026.18,-252 1020.18,-252"/>
<text text-anchor="middle" x="999.68" y="-230.3" font-family="Times,serif" font-size="14.00">Attribute</text>
</g>
<!-- ast.Call object at 0x7fc75fd389d0&#45;&gt;ast.Attribute object at 0x7fc75fd3a2c0 -->
<g id="edge56" class="edge">
<title>ast.Call object at 0x7fc75fd389d0&#45;&gt;ast.Attribute object at 0x7fc75fd3a2c0</title>
<path fill="none" stroke="black" d="M900.71,-289.98C917.94,-280.41 940.57,-267.84 959.83,-257.14"/>
<polygon fill="black" stroke="black" points="961.66,-260.13 968.7,-252.21 958.26,-254.01 961.66,-260.13"/>
</g>
<!-- ast.Subscript object at 0x7fc75fd38c10 -->
<g id="node45" class="node">
<title>ast.Subscript object at 0x7fc75fd38c10</title>
<path fill="#66cdaa" stroke="black" d="M895.68,-252C895.68,-252 851.68,-252 851.68,-252 845.68,-252 839.68,-246 839.68,-240 839.68,-240 839.68,-228 839.68,-228 839.68,-222 845.68,-216 851.68,-216 851.68,-216 895.68,-216 895.68,-216 901.68,-216 907.68,-222 907.68,-228 907.68,-228 907.68,-240 907.68,-240 907.68,-246 901.68,-252 895.68,-252"/>
<text text-anchor="middle" x="873.68" y="-230.3" font-family="Times,serif" font-size="14.00">Subscript</text>
</g>
<!-- ast.Call object at 0x7fc75fd389d0&#45;&gt;ast.Subscript object at 0x7fc75fd38c10 -->
<g id="edge59" class="edge">
<title>ast.Call object at 0x7fc75fd389d0&#45;&gt;ast.Subscript object at 0x7fc75fd38c10</title>
<path fill="none" stroke="black" d="M873.68,-287.7C873.68,-279.98 873.68,-270.71 873.68,-262.11"/>
<polygon fill="black" stroke="black" points="877.18,-262.1 873.68,-252.1 870.18,-262.1 877.18,-262.1"/>
</g>
<!-- ast.Attribute object at 0x7fc75fd3a2c0&#45;&gt;ast.Load object at 0x7fc763fedf60 -->
<g id="edge58" class="edge">
<title>ast.Attribute object at 0x7fc75fd3a2c0&#45;&gt;ast.Load object at 0x7fc763fedf60</title>
<path fill="none" stroke="black" d="M1003.1,-215.72C1010.69,-176.45 1027.55,-83.06 1018.68,-72 993.84,-41.04 878.01,-27.05 817.2,-21.74"/>
<polygon fill="black" stroke="black" points="817.13,-18.22 806.87,-20.88 816.54,-25.2 817.13,-18.22"/>
</g>
<!-- ast.Constant object at 0x7fc75fd39360 -->
<g id="node44" class="node">
<title>ast.Constant object at 0x7fc75fd39360</title>
<path fill="#66cdaa" stroke="black" d="M1081.18,-180C1081.18,-180 1040.18,-180 1040.18,-180 1034.18,-180 1028.18,-174 1028.18,-168 1028.18,-168 1028.18,-156 1028.18,-156 1028.18,-150 1034.18,-144 1040.18,-144 1040.18,-144 1081.18,-144 1081.18,-144 1087.18,-144 1093.18,-150 1093.18,-156 1093.18,-156 1093.18,-168 1093.18,-168 1093.18,-174 1087.18,-180 1081.18,-180"/>
<text text-anchor="middle" x="1060.68" y="-158.3" font-family="Times,serif" font-size="14.00">Constant</text>
</g>
<!-- ast.Attribute object at 0x7fc75fd3a2c0&#45;&gt;ast.Constant object at 0x7fc75fd39360 -->
<g id="edge57" class="edge">
<title>ast.Attribute object at 0x7fc75fd3a2c0&#45;&gt;ast.Constant object at 0x7fc75fd39360</title>
<path fill="none" stroke="black" d="M1014.76,-215.7C1022.07,-207.3 1030.99,-197.07 1039.01,-187.86"/>
<polygon fill="black" stroke="black" points="1041.84,-189.94 1045.77,-180.1 1036.57,-185.34 1041.84,-189.94"/>
</g>
<!-- ast.Subscript object at 0x7fc75fd38c10&#45;&gt;ast.Load object at 0x7fc763fedf60 -->
<g id="edge67" class="edge">
<title>ast.Subscript object at 0x7fc75fd38c10&#45;&gt;ast.Load object at 0x7fc763fedf60</title>
<path fill="none" stroke="black" d="M859.75,-215.61C852.21,-205.61 843.14,-192.57 836.68,-180 813.56,-135.03 795.95,-78.52 786.76,-45.81"/>
<polygon fill="black" stroke="black" points="790.11,-44.78 784.08,-36.07 783.36,-46.64 790.11,-44.78"/>
</g>
<!-- ast.Name object at 0x7fc75fd39ed0 -->
<g id="node46" class="node">
<title>ast.Name object at 0x7fc75fd39ed0</title>
<path fill="#66cdaa" stroke="black" d="M887.68,-180C887.68,-180 857.68,-180 857.68,-180 851.68,-180 845.68,-174 845.68,-168 845.68,-168 845.68,-156 845.68,-156 845.68,-150 851.68,-144 857.68,-144 857.68,-144 887.68,-144 887.68,-144 893.68,-144 899.68,-150 899.68,-156 899.68,-156 899.68,-168 899.68,-168 899.68,-174 893.68,-180 887.68,-180"/>
<text text-anchor="middle" x="872.68" y="-158.3" font-family="Times,serif" font-size="14.00">Name</text>
</g>
<!-- ast.Subscript object at 0x7fc75fd38c10&#45;&gt;ast.Name object at 0x7fc75fd39ed0 -->
<g id="edge60" class="edge">
<title>ast.Subscript object at 0x7fc75fd38c10&#45;&gt;ast.Name object at 0x7fc75fd39ed0</title>
<path fill="none" stroke="black" d="M873.43,-215.7C873.32,-207.98 873.19,-198.71 873.07,-190.11"/>
<polygon fill="black" stroke="black" points="876.57,-190.05 872.92,-180.1 869.57,-190.15 876.57,-190.05"/>
</g>
<!-- ast.Slice object at 0x7fc75fd393f0 -->
<g id="node47" class="node">
<title>ast.Slice object at 0x7fc75fd393f0</title>
<path fill="#66cdaa" stroke="black" d="M959.68,-180C959.68,-180 929.68,-180 929.68,-180 923.68,-180 917.68,-174 917.68,-168 917.68,-168 917.68,-156 917.68,-156 917.68,-150 923.68,-144 929.68,-144 929.68,-144 959.68,-144 959.68,-144 965.68,-144 971.68,-150 971.68,-156 971.68,-156 971.68,-168 971.68,-168 971.68,-174 965.68,-180 959.68,-180"/>
<text text-anchor="middle" x="944.68" y="-158.3" font-family="Times,serif" font-size="14.00">Slice</text>
</g>
<!-- ast.Subscript object at 0x7fc75fd38c10&#45;&gt;ast.Slice object at 0x7fc75fd393f0 -->
<g id="edge62" class="edge">
<title>ast.Subscript object at 0x7fc75fd38c10&#45;&gt;ast.Slice object at 0x7fc75fd393f0</title>
<path fill="none" stroke="black" d="M891.23,-215.7C899.91,-207.14 910.54,-196.66 920.03,-187.3"/>
<polygon fill="black" stroke="black" points="922.67,-189.62 927.33,-180.1 917.75,-184.63 922.67,-189.62"/>
</g>
<!-- ast.Name object at 0x7fc75fd39ed0&#45;&gt;ast.Load object at 0x7fc763fedf60 -->
<g id="edge61" class="edge">
<title>ast.Name object at 0x7fc75fd39ed0&#45;&gt;ast.Load object at 0x7fc763fedf60</title>
<path fill="none" stroke="black" d="M866.74,-143.68C859.89,-125.03 847.52,-94.97 831.68,-72 824.6,-61.74 815.46,-51.67 806.81,-43.11"/>
<polygon fill="black" stroke="black" points="809.05,-40.41 799.41,-36.01 804.2,-45.46 809.05,-40.41"/>
</g>
<!-- ast.Name object at 0x7fc75fd39300 -->
<g id="node48" class="node">
<title>ast.Name object at 0x7fc75fd39300</title>
<path fill="#66cdaa" stroke="black" d="M925.68,-108C925.68,-108 895.68,-108 895.68,-108 889.68,-108 883.68,-102 883.68,-96 883.68,-96 883.68,-84 883.68,-84 883.68,-78 889.68,-72 895.68,-72 895.68,-72 925.68,-72 925.68,-72 931.68,-72 937.68,-78 937.68,-84 937.68,-84 937.68,-96 937.68,-96 937.68,-102 931.68,-108 925.68,-108"/>
<text text-anchor="middle" x="910.68" y="-86.3" font-family="Times,serif" font-size="14.00">Name</text>
</g>
<!-- ast.Slice object at 0x7fc75fd393f0&#45;&gt;ast.Name object at 0x7fc75fd39300 -->
<g id="edge63" class="edge">
<title>ast.Slice object at 0x7fc75fd393f0&#45;&gt;ast.Name object at 0x7fc75fd39300</title>
<path fill="none" stroke="black" d="M936.28,-143.7C932.4,-135.73 927.73,-126.1 923.44,-117.26"/>
<polygon fill="black" stroke="black" points="926.5,-115.57 918.99,-108.1 920.21,-118.63 926.5,-115.57"/>
</g>
<!-- ast.Name object at 0x7fc75fd38190 -->
<g id="node49" class="node">
<title>ast.Name object at 0x7fc75fd38190</title>
<path fill="#66cdaa" stroke="black" d="M997.68,-108C997.68,-108 967.68,-108 967.68,-108 961.68,-108 955.68,-102 955.68,-96 955.68,-96 955.68,-84 955.68,-84 955.68,-78 961.68,-72 967.68,-72 967.68,-72 997.68,-72 997.68,-72 1003.68,-72 1009.68,-78 1009.68,-84 1009.68,-84 1009.68,-96 1009.68,-96 1009.68,-102 1003.68,-108 997.68,-108"/>
<text text-anchor="middle" x="982.68" y="-86.3" font-family="Times,serif" font-size="14.00">Name</text>
</g>
<!-- ast.Slice object at 0x7fc75fd393f0&#45;&gt;ast.Name object at 0x7fc75fd38190 -->
<g id="edge65" class="edge">
<title>ast.Slice object at 0x7fc75fd393f0&#45;&gt;ast.Name object at 0x7fc75fd38190</title>
<path fill="none" stroke="black" d="M954.07,-143.7C958.44,-135.64 963.74,-125.89 968.57,-116.98"/>
<polygon fill="black" stroke="black" points="971.7,-118.56 973.39,-108.1 965.55,-115.22 971.7,-118.56"/>
</g>
<!-- ast.Name object at 0x7fc75fd39300&#45;&gt;ast.Load object at 0x7fc763fedf60 -->
<g id="edge64" class="edge">
<title>ast.Name object at 0x7fc75fd39300&#45;&gt;ast.Load object at 0x7fc763fedf60</title>
<path fill="none" stroke="black" d="M883.54,-74.5C863.86,-63.98 837.06,-49.66 815.62,-38.2"/>
<polygon fill="black" stroke="black" points="817.26,-35.11 806.79,-33.49 813.96,-41.29 817.26,-35.11"/>
</g>
<!-- ast.Name object at 0x7fc75fd38190&#45;&gt;ast.Load object at 0x7fc763fedf60 -->
<g id="edge66" class="edge">
<title>ast.Name object at 0x7fc75fd38190&#45;&gt;ast.Load object at 0x7fc763fedf60</title>
<path fill="none" stroke="black" d="M955.33,-75.62C952.43,-74.34 949.51,-73.11 946.68,-72 902.93,-54.82 851.16,-39.07 816.98,-29.28"/>
<polygon fill="black" stroke="black" points="817.54,-25.8 806.97,-26.44 815.63,-32.54 817.54,-25.8"/>
</g>
<!-- ast.Compare object at 0x7fc75fd39450&#45;&gt;ast.Eq object at 0x7fc763fee890 -->
<g id="edge90" class="edge">
<title>ast.Compare object at 0x7fc75fd39450&#45;&gt;ast.Eq object at 0x7fc763fee890</title>
<path fill="none" stroke="black" d="M1029.69,-503.7C1029.25,-495.98 1028.72,-486.71 1028.23,-478.11"/>
<polygon fill="black" stroke="black" points="1031.72,-477.89 1027.66,-468.1 1024.73,-478.29 1031.72,-477.89"/>
</g>
<!-- ast.Call object at 0x7fc75fd389a0 -->
<g id="node53" class="node">
<title>ast.Call object at 0x7fc75fd389a0</title>
<path fill="#66cdaa" stroke="black" d="M1117.68,-468C1117.68,-468 1087.68,-468 1087.68,-468 1081.68,-468 1075.68,-462 1075.68,-456 1075.68,-456 1075.68,-444 1075.68,-444 1075.68,-438 1081.68,-432 1087.68,-432 1087.68,-432 1117.68,-432 1117.68,-432 1123.68,-432 1129.68,-438 1129.68,-444 1129.68,-444 1129.68,-456 1129.68,-456 1129.68,-462 1123.68,-468 1117.68,-468"/>
<text text-anchor="middle" x="1102.68" y="-446.3" font-family="Times,serif" font-size="14.00">Call</text>
</g>
<!-- ast.Compare object at 0x7fc75fd39450&#45;&gt;ast.Call object at 0x7fc75fd389a0 -->
<g id="edge71" class="edge">
<title>ast.Compare object at 0x7fc75fd39450&#45;&gt;ast.Call object at 0x7fc75fd389a0</title>
<path fill="none" stroke="black" d="M1048.48,-503.7C1057.28,-495.14 1068.06,-484.66 1077.68,-475.3"/>
<polygon fill="black" stroke="black" points="1080.36,-477.58 1085.09,-468.1 1075.48,-472.57 1080.36,-477.58"/>
</g>
<!-- ast.Constant object at 0x7fc75efb7d30 -->
<g id="node65" class="node">
<title>ast.Constant object at 0x7fc75efb7d30</title>
<path fill="#66cdaa" stroke="black" d="M1201.18,-468C1201.18,-468 1160.18,-468 1160.18,-468 1154.18,-468 1148.18,-462 1148.18,-456 1148.18,-456 1148.18,-444 1148.18,-444 1148.18,-438 1154.18,-432 1160.18,-432 1160.18,-432 1201.18,-432 1201.18,-432 1207.18,-432 1213.18,-438 1213.18,-444 1213.18,-444 1213.18,-456 1213.18,-456 1213.18,-462 1207.18,-468 1201.18,-468"/>
<text text-anchor="middle" x="1180.68" y="-446.3" font-family="Times,serif" font-size="14.00">Constant</text>
</g>
<!-- ast.Compare object at 0x7fc75fd39450&#45;&gt;ast.Constant object at 0x7fc75efb7d30 -->
<g id="edge91" class="edge">
<title>ast.Compare object at 0x7fc75fd39450&#45;&gt;ast.Constant object at 0x7fc75efb7d30</title>
<path fill="none" stroke="black" d="M1064.34,-505.29C1086.36,-495.02 1115.29,-481.52 1138.79,-470.55"/>
<polygon fill="black" stroke="black" points="1140.58,-473.58 1148.16,-466.18 1137.62,-467.23 1140.58,-473.58"/>
</g>
<!-- ast.Name object at 0x7fc75fd38880 -->
<g id="node54" class="node">
<title>ast.Name object at 0x7fc75fd38880</title>
<path fill="#66cdaa" stroke="black" d="M1117.68,-396C1117.68,-396 1087.68,-396 1087.68,-396 1081.68,-396 1075.68,-390 1075.68,-384 1075.68,-384 1075.68,-372 1075.68,-372 1075.68,-366 1081.68,-360 1087.68,-360 1087.68,-360 1117.68,-360 1117.68,-360 1123.68,-360 1129.68,-366 1129.68,-372 1129.68,-372 1129.68,-384 1129.68,-384 1129.68,-390 1123.68,-396 1117.68,-396"/>
<text text-anchor="middle" x="1102.68" y="-374.3" font-family="Times,serif" font-size="14.00">Name</text>
</g>
<!-- ast.Call object at 0x7fc75fd389a0&#45;&gt;ast.Name object at 0x7fc75fd38880 -->
<g id="edge72" class="edge">
<title>ast.Call object at 0x7fc75fd389a0&#45;&gt;ast.Name object at 0x7fc75fd38880</title>
<path fill="none" stroke="black" d="M1102.68,-431.7C1102.68,-423.98 1102.68,-414.71 1102.68,-406.11"/>
<polygon fill="black" stroke="black" points="1106.18,-406.1 1102.68,-396.1 1099.18,-406.1 1106.18,-406.1"/>
</g>
<!-- ast.Call object at 0x7fc75fd3a920 -->
<g id="node55" class="node">
<title>ast.Call object at 0x7fc75fd3a920</title>
<path fill="#66cdaa" stroke="black" d="M1191.68,-396C1191.68,-396 1161.68,-396 1161.68,-396 1155.68,-396 1149.68,-390 1149.68,-384 1149.68,-384 1149.68,-372 1149.68,-372 1149.68,-366 1155.68,-360 1161.68,-360 1161.68,-360 1191.68,-360 1191.68,-360 1197.68,-360 1203.68,-366 1203.68,-372 1203.68,-372 1203.68,-384 1203.68,-384 1203.68,-390 1197.68,-396 1191.68,-396"/>
<text text-anchor="middle" x="1176.68" y="-374.3" font-family="Times,serif" font-size="14.00">Call</text>
</g>
<!-- ast.Call object at 0x7fc75fd389a0&#45;&gt;ast.Call object at 0x7fc75fd3a920 -->
<g id="edge74" class="edge">
<title>ast.Call object at 0x7fc75fd389a0&#45;&gt;ast.Call object at 0x7fc75fd3a920</title>
<path fill="none" stroke="black" d="M1120.97,-431.7C1130.11,-423.05 1141.32,-412.45 1151.28,-403.03"/>
<polygon fill="black" stroke="black" points="1153.74,-405.52 1158.6,-396.1 1148.93,-400.43 1153.74,-405.52"/>
</g>
<!-- ast.Name object at 0x7fc75fd38880&#45;&gt;ast.Load object at 0x7fc763fedf60 -->
<g id="edge73" class="edge">
<title>ast.Name object at 0x7fc75fd38880&#45;&gt;ast.Load object at 0x7fc763fedf60</title>
<path fill="none" stroke="black" d="M1106.52,-359.61C1112.08,-332.94 1121.68,-280.27 1121.68,-235 1121.68,-235 1121.68,-235 1121.68,-161 1121.68,-105.68 1083.2,-98.56 1034.68,-72 964.18,-33.41 868.64,-22.86 816.82,-20.01"/>
<polygon fill="black" stroke="black" points="816.92,-16.51 806.76,-19.53 816.58,-23.5 816.92,-16.51"/>
</g>
<!-- ast.Name object at 0x7fc75fd3a650 -->
<g id="node56" class="node">
<title>ast.Name object at 0x7fc75fd3a650</title>
<path fill="#66cdaa" stroke="black" d="M1191.68,-324C1191.68,-324 1161.68,-324 1161.68,-324 1155.68,-324 1149.68,-318 1149.68,-312 1149.68,-312 1149.68,-300 1149.68,-300 1149.68,-294 1155.68,-288 1161.68,-288 1161.68,-288 1191.68,-288 1191.68,-288 1197.68,-288 1203.68,-294 1203.68,-300 1203.68,-300 1203.68,-312 1203.68,-312 1203.68,-318 1197.68,-324 1191.68,-324"/>
<text text-anchor="middle" x="1176.68" y="-302.3" font-family="Times,serif" font-size="14.00">Name</text>
</g>
<!-- ast.Call object at 0x7fc75fd3a920&#45;&gt;ast.Name object at 0x7fc75fd3a650 -->
<g id="edge75" class="edge">
<title>ast.Call object at 0x7fc75fd3a920&#45;&gt;ast.Name object at 0x7fc75fd3a650</title>
<path fill="none" stroke="black" d="M1176.68,-359.7C1176.68,-351.98 1176.68,-342.71 1176.68,-334.11"/>
<polygon fill="black" stroke="black" points="1180.18,-334.1 1176.68,-324.1 1173.18,-334.1 1180.18,-334.1"/>
</g>
<!-- ast.Call object at 0x7fc75fd3b430 -->
<g id="node57" class="node">
<title>ast.Call object at 0x7fc75fd3b430</title>
<path fill="#66cdaa" stroke="black" d="M1267.68,-324C1267.68,-324 1237.68,-324 1237.68,-324 1231.68,-324 1225.68,-318 1225.68,-312 1225.68,-312 1225.68,-300 1225.68,-300 1225.68,-294 1231.68,-288 1237.68,-288 1237.68,-288 1267.68,-288 1267.68,-288 1273.68,-288 1279.68,-294 1279.68,-300 1279.68,-300 1279.68,-312 1279.68,-312 1279.68,-318 1273.68,-324 1267.68,-324"/>
<text text-anchor="middle" x="1252.68" y="-302.3" font-family="Times,serif" font-size="14.00">Call</text>
</g>
<!-- ast.Call object at 0x7fc75fd3a920&#45;&gt;ast.Call object at 0x7fc75fd3b430 -->
<g id="edge77" class="edge">
<title>ast.Call object at 0x7fc75fd3a920&#45;&gt;ast.Call object at 0x7fc75fd3b430</title>
<path fill="none" stroke="black" d="M1195.47,-359.7C1204.85,-351.05 1216.36,-340.45 1226.59,-331.03"/>
<polygon fill="black" stroke="black" points="1229.12,-333.45 1234.11,-324.1 1224.38,-328.3 1229.12,-333.45"/>
</g>
<!-- ast.Name object at 0x7fc75fd3a650&#45;&gt;ast.Load object at 0x7fc763fedf60 -->
<g id="edge76" class="edge">
<title>ast.Name object at 0x7fc75fd3a650&#45;&gt;ast.Load object at 0x7fc763fedf60</title>
<path fill="none" stroke="black" d="M1179.63,-287.94C1186,-244.82 1196,-130.75 1135.68,-72 1090.92,-28.41 898.84,-20.58 816.93,-19.24"/>
<polygon fill="black" stroke="black" points="816.86,-15.74 806.81,-19.1 816.76,-22.74 816.86,-15.74"/>
</g>
<!-- ast.Attribute object at 0x7fc75fd3a890 -->
<g id="node58" class="node">
<title>ast.Attribute object at 0x7fc75fd3a890</title>
<path fill="#66cdaa" stroke="black" d="M1438.18,-252C1438.18,-252 1397.18,-252 1397.18,-252 1391.18,-252 1385.18,-246 1385.18,-240 1385.18,-240 1385.18,-228 1385.18,-228 1385.18,-222 1391.18,-216 1397.18,-216 1397.18,-216 1438.18,-216 1438.18,-216 1444.18,-216 1450.18,-222 1450.18,-228 1450.18,-228 1450.18,-240 1450.18,-240 1450.18,-246 1444.18,-252 1438.18,-252"/>
<text text-anchor="middle" x="1417.68" y="-230.3" font-family="Times,serif" font-size="14.00">Attribute</text>
</g>
<!-- ast.Call object at 0x7fc75fd3b430&#45;&gt;ast.Attribute object at 0x7fc75fd3a890 -->
<g id="edge78" class="edge">
<title>ast.Call object at 0x7fc75fd3b430&#45;&gt;ast.Attribute object at 0x7fc75fd3a890</title>
<path fill="none" stroke="black" d="M1279.93,-293.44C1305.94,-282.4 1345.53,-265.61 1375.6,-252.85"/>
<polygon fill="black" stroke="black" points="1377.16,-255.99 1385,-248.87 1374.42,-249.55 1377.16,-255.99"/>
</g>
<!-- ast.Subscript object at 0x7fc75fd392d0 -->
<g id="node60" class="node">
<title>ast.Subscript object at 0x7fc75fd392d0</title>
<path fill="#66cdaa" stroke="black" d="M1274.68,-252C1274.68,-252 1230.68,-252 1230.68,-252 1224.68,-252 1218.68,-246 1218.68,-240 1218.68,-240 1218.68,-228 1218.68,-228 1218.68,-222 1224.68,-216 1230.68,-216 1230.68,-216 1274.68,-216 1274.68,-216 1280.68,-216 1286.68,-222 1286.68,-228 1286.68,-228 1286.68,-240 1286.68,-240 1286.68,-246 1280.68,-252 1274.68,-252"/>
<text text-anchor="middle" x="1252.68" y="-230.3" font-family="Times,serif" font-size="14.00">Subscript</text>
</g>
<!-- ast.Call object at 0x7fc75fd3b430&#45;&gt;ast.Subscript object at 0x7fc75fd392d0 -->
<g id="edge81" class="edge">
<title>ast.Call object at 0x7fc75fd3b430&#45;&gt;ast.Subscript object at 0x7fc75fd392d0</title>
<path fill="none" stroke="black" d="M1252.68,-287.7C1252.68,-279.98 1252.68,-270.71 1252.68,-262.11"/>
<polygon fill="black" stroke="black" points="1256.18,-262.1 1252.68,-252.1 1249.18,-262.1 1256.18,-262.1"/>
</g>
<!-- ast.Attribute object at 0x7fc75fd3a890&#45;&gt;ast.Load object at 0x7fc763fedf60 -->
<g id="edge80" class="edge">
<title>ast.Attribute object at 0x7fc75fd3a890&#45;&gt;ast.Load object at 0x7fc763fedf60</title>
<path fill="none" stroke="black" d="M1421.78,-215.93C1428.59,-182.86 1437.9,-109.99 1398.68,-72 1356.81,-31.45 944.27,-21.59 816.92,-19.5"/>
<polygon fill="black" stroke="black" points="816.93,-16 806.87,-19.35 816.82,-23 816.93,-16"/>
</g>
<!-- ast.Constant object at 0x7fc75fd38490 -->
<g id="node59" class="node">
<title>ast.Constant object at 0x7fc75fd38490</title>
<path fill="#66cdaa" stroke="black" d="M1499.18,-180C1499.18,-180 1458.18,-180 1458.18,-180 1452.18,-180 1446.18,-174 1446.18,-168 1446.18,-168 1446.18,-156 1446.18,-156 1446.18,-150 1452.18,-144 1458.18,-144 1458.18,-144 1499.18,-144 1499.18,-144 1505.18,-144 1511.18,-150 1511.18,-156 1511.18,-156 1511.18,-168 1511.18,-168 1511.18,-174 1505.18,-180 1499.18,-180"/>
<text text-anchor="middle" x="1478.68" y="-158.3" font-family="Times,serif" font-size="14.00">Constant</text>
</g>
<!-- ast.Attribute object at 0x7fc75fd3a890&#45;&gt;ast.Constant object at 0x7fc75fd38490 -->
<g id="edge79" class="edge">
<title>ast.Attribute object at 0x7fc75fd3a890&#45;&gt;ast.Constant object at 0x7fc75fd38490</title>
<path fill="none" stroke="black" d="M1432.76,-215.7C1440.07,-207.3 1448.99,-197.07 1457.01,-187.86"/>
<polygon fill="black" stroke="black" points="1459.84,-189.94 1463.77,-180.1 1454.57,-185.34 1459.84,-189.94"/>
</g>
<!-- ast.Subscript object at 0x7fc75fd392d0&#45;&gt;ast.Load object at 0x7fc763fedf60 -->
<g id="edge89" class="edge">
<title>ast.Subscript object at 0x7fc75fd392d0&#45;&gt;ast.Load object at 0x7fc763fedf60</title>
<path fill="none" stroke="black" d="M1239.68,-215.93C1232.35,-205.83 1223.35,-192.58 1216.68,-180 1192.47,-134.36 1214.41,-103.79 1173.68,-72 1118.65,-29.04 904.53,-20.88 817.14,-19.35"/>
<polygon fill="black" stroke="black" points="816.94,-15.84 806.88,-19.19 816.83,-22.84 816.94,-15.84"/>
</g>
<!-- ast.Name object at 0x7fc75fd3a800 -->
<g id="node61" class="node">
<title>ast.Name object at 0x7fc75fd3a800</title>
<path fill="#66cdaa" stroke="black" d="M1267.68,-180C1267.68,-180 1237.68,-180 1237.68,-180 1231.68,-180 1225.68,-174 1225.68,-168 1225.68,-168 1225.68,-156 1225.68,-156 1225.68,-150 1231.68,-144 1237.68,-144 1237.68,-144 1267.68,-144 1267.68,-144 1273.68,-144 1279.68,-150 1279.68,-156 1279.68,-156 1279.68,-168 1279.68,-168 1279.68,-174 1273.68,-180 1267.68,-180"/>
<text text-anchor="middle" x="1252.68" y="-158.3" font-family="Times,serif" font-size="14.00">Name</text>
</g>
<!-- ast.Subscript object at 0x7fc75fd392d0&#45;&gt;ast.Name object at 0x7fc75fd3a800 -->
<g id="edge82" class="edge">
<title>ast.Subscript object at 0x7fc75fd392d0&#45;&gt;ast.Name object at 0x7fc75fd3a800</title>
<path fill="none" stroke="black" d="M1252.68,-215.7C1252.68,-207.98 1252.68,-198.71 1252.68,-190.11"/>
<polygon fill="black" stroke="black" points="1256.18,-190.1 1252.68,-180.1 1249.18,-190.1 1256.18,-190.1"/>
</g>
<!-- ast.Slice object at 0x7fc75fd3ba00 -->
<g id="node62" class="node">
<title>ast.Slice object at 0x7fc75fd3ba00</title>
<path fill="#66cdaa" stroke="black" d="M1339.68,-180C1339.68,-180 1309.68,-180 1309.68,-180 1303.68,-180 1297.68,-174 1297.68,-168 1297.68,-168 1297.68,-156 1297.68,-156 1297.68,-150 1303.68,-144 1309.68,-144 1309.68,-144 1339.68,-144 1339.68,-144 1345.68,-144 1351.68,-150 1351.68,-156 1351.68,-156 1351.68,-168 1351.68,-168 1351.68,-174 1345.68,-180 1339.68,-180"/>
<text text-anchor="middle" x="1324.68" y="-158.3" font-family="Times,serif" font-size="14.00">Slice</text>
</g>
<!-- ast.Subscript object at 0x7fc75fd392d0&#45;&gt;ast.Slice object at 0x7fc75fd3ba00 -->
<g id="edge84" class="edge">
<title>ast.Subscript object at 0x7fc75fd392d0&#45;&gt;ast.Slice object at 0x7fc75fd3ba00</title>
<path fill="none" stroke="black" d="M1270.48,-215.7C1279.28,-207.14 1290.06,-196.66 1299.68,-187.3"/>
<polygon fill="black" stroke="black" points="1302.36,-189.58 1307.09,-180.1 1297.48,-184.57 1302.36,-189.58"/>
</g>
<!-- ast.Name object at 0x7fc75fd3a800&#45;&gt;ast.Load object at 0x7fc763fedf60 -->
<g id="edge83" class="edge">
<title>ast.Name object at 0x7fc75fd3a800&#45;&gt;ast.Load object at 0x7fc763fedf60</title>
<path fill="none" stroke="black" d="M1249.89,-143.75C1245.58,-123.1 1235.18,-89.15 1211.68,-72 1149.17,-26.37 910.07,-19.83 817.03,-19.04"/>
<polygon fill="black" stroke="black" points="816.97,-15.54 806.95,-18.97 816.92,-22.54 816.97,-15.54"/>
</g>
<!-- ast.Name object at 0x7fc75fd39a20 -->
<g id="node63" class="node">
<title>ast.Name object at 0x7fc75fd39a20</title>
<path fill="#66cdaa" stroke="black" d="M1305.68,-108C1305.68,-108 1275.68,-108 1275.68,-108 1269.68,-108 1263.68,-102 1263.68,-96 1263.68,-96 1263.68,-84 1263.68,-84 1263.68,-78 1269.68,-72 1275.68,-72 1275.68,-72 1305.68,-72 1305.68,-72 1311.68,-72 1317.68,-78 1317.68,-84 1317.68,-84 1317.68,-96 1317.68,-96 1317.68,-102 1311.68,-108 1305.68,-108"/>
<text text-anchor="middle" x="1290.68" y="-86.3" font-family="Times,serif" font-size="14.00">Name</text>
</g>
<!-- ast.Slice object at 0x7fc75fd3ba00&#45;&gt;ast.Name object at 0x7fc75fd39a20 -->
<g id="edge85" class="edge">
<title>ast.Slice object at 0x7fc75fd3ba00&#45;&gt;ast.Name object at 0x7fc75fd39a20</title>
<path fill="none" stroke="black" d="M1316.28,-143.7C1312.4,-135.73 1307.73,-126.1 1303.44,-117.26"/>
<polygon fill="black" stroke="black" points="1306.5,-115.57 1298.99,-108.1 1300.21,-118.63 1306.5,-115.57"/>
</g>
<!-- ast.Name object at 0x7fc75efb42e0 -->
<g id="node64" class="node">
<title>ast.Name object at 0x7fc75efb42e0</title>
<path fill="#66cdaa" stroke="black" d="M1377.68,-108C1377.68,-108 1347.68,-108 1347.68,-108 1341.68,-108 1335.68,-102 1335.68,-96 1335.68,-96 1335.68,-84 1335.68,-84 1335.68,-78 1341.68,-72 1347.68,-72 1347.68,-72 1377.68,-72 1377.68,-72 1383.68,-72 1389.68,-78 1389.68,-84 1389.68,-84 1389.68,-96 1389.68,-96 1389.68,-102 1383.68,-108 1377.68,-108"/>
<text text-anchor="middle" x="1362.68" y="-86.3" font-family="Times,serif" font-size="14.00">Name</text>
</g>
<!-- ast.Slice object at 0x7fc75fd3ba00&#45;&gt;ast.Name object at 0x7fc75efb42e0 -->
<g id="edge87" class="edge">
<title>ast.Slice object at 0x7fc75fd3ba00&#45;&gt;ast.Name object at 0x7fc75efb42e0</title>
<path fill="none" stroke="black" d="M1334.07,-143.7C1338.44,-135.64 1343.74,-125.89 1348.57,-116.98"/>
<polygon fill="black" stroke="black" points="1351.7,-118.56 1353.39,-108.1 1345.55,-115.22 1351.7,-118.56"/>
</g>
<!-- ast.Name object at 0x7fc75fd39a20&#45;&gt;ast.Load object at 0x7fc763fedf60 -->
<g id="edge86" class="edge">
<title>ast.Name object at 0x7fc75fd39a20&#45;&gt;ast.Load object at 0x7fc763fedf60</title>
<path fill="none" stroke="black" d="M1263.25,-76.4C1258.79,-74.7 1254.16,-73.16 1249.68,-72 1092.36,-31.38 897.45,-21.89 817.04,-19.67"/>
<polygon fill="black" stroke="black" points="817.01,-16.17 806.92,-19.42 816.83,-23.17 817.01,-16.17"/>
</g>
<!-- ast.Name object at 0x7fc75efb42e0&#45;&gt;ast.Load object at 0x7fc763fedf60 -->
<g id="edge88" class="edge">
<title>ast.Name object at 0x7fc75efb42e0&#45;&gt;ast.Load object at 0x7fc763fedf60</title>
<path fill="none" stroke="black" d="M1335.54,-75C1332.6,-73.84 1329.61,-72.81 1326.68,-72 1140.4,-20.67 906.53,-17.38 816.94,-18.25"/>
<polygon fill="black" stroke="black" points="816.7,-14.75 806.74,-18.38 816.78,-21.75 816.7,-14.75"/>
</g>
</g>
</svg>
