<?xml version="1.0" encoding="UTF-8" standalone="no"?>
<!DOCTYPE svg PUBLIC "-//W3C//DTD SVG 1.1//EN"
 "http://www.w3.org/Graphics/SVG/1.1/DTD/svg11.dtd">
<!-- Generated by graphviz version 2.43.0 (0)
 -->
<!-- Title: %3 Pages: 1 -->
<svg width="775pt" height="620pt"
 viewBox="0.00 0.00 774.50 620.00" xmlns="http://www.w3.org/2000/svg" xmlns:xlink="http://www.w3.org/1999/xlink">
<g id="graph0" class="graph" transform="scale(1 1) rotate(0) translate(4 616)">
<title>%3</title>
<polygon fill="white" stroke="transparent" points="-4,4 -4,-616 770.5,-616 770.5,4 -4,4"/>
<!-- ast.Module object at 0x7f58ce155c90 -->
<g id="node1" class="node">
<title>ast.Module object at 0x7f58ce155c90</title>
<path fill="#66cdaa" stroke="black" d="M452.5,-612C452.5,-612 417.5,-612 417.5,-612 411.5,-612 405.5,-606 405.5,-600 405.5,-600 405.5,-588 405.5,-588 405.5,-582 411.5,-576 417.5,-576 417.5,-576 452.5,-576 452.5,-576 458.5,-576 464.5,-582 464.5,-588 464.5,-588 464.5,-600 464.5,-600 464.5,-606 458.5,-612 452.5,-612"/>
<text text-anchor="middle" x="435" y="-590.3" font-family="Times,serif" font-size="14.00">Module</text>
</g>
<!-- ast.FunctionDef object at 0x7f58ce1550f0 -->
<g id="node2" class="node">
<title>ast.FunctionDef object at 0x7f58ce1550f0</title>
<path fill="#66cdaa" stroke="black" d="M465.5,-540C465.5,-540 404.5,-540 404.5,-540 398.5,-540 392.5,-534 392.5,-528 392.5,-528 392.5,-516 392.5,-516 392.5,-510 398.5,-504 404.5,-504 404.5,-504 465.5,-504 465.5,-504 471.5,-504 477.5,-510 477.5,-516 477.5,-516 477.5,-528 477.5,-528 477.5,-534 471.5,-540 465.5,-540"/>
<text text-anchor="middle" x="435" y="-518.3" font-family="Times,serif" font-size="14.00">FunctionDef</text>
</g>
<!-- ast.Module object at 0x7f58ce155c90&#45;&gt;ast.FunctionDef object at 0x7f58ce1550f0 -->
<g id="edge1" class="edge">
<title>ast.Module object at 0x7f58ce155c90&#45;&gt;ast.FunctionDef object at 0x7f58ce1550f0</title>
<path fill="none" stroke="black" d="M435,-575.7C435,-567.98 435,-558.71 435,-550.11"/>
<polygon fill="black" stroke="black" points="438.5,-550.1 435,-540.1 431.5,-550.1 438.5,-550.1"/>
</g>
<!-- ast.arguments object at 0x7f58ce157c10 -->
<g id="node3" class="node">
<title>ast.arguments object at 0x7f58ce157c10</title>
<path fill="#66cdaa" stroke="black" d="M212,-468C212,-468 162,-468 162,-468 156,-468 150,-462 150,-456 150,-456 150,-444 150,-444 150,-438 156,-432 162,-432 162,-432 212,-432 212,-432 218,-432 224,-438 224,-444 224,-444 224,-456 224,-456 224,-462 218,-468 212,-468"/>
<text text-anchor="middle" x="187" y="-446.3" font-family="Times,serif" font-size="14.00">arguments</text>
</g>
<!-- ast.FunctionDef object at 0x7f58ce1550f0&#45;&gt;ast.arguments object at 0x7f58ce157c10 -->
<g id="edge2" class="edge">
<title>ast.FunctionDef object at 0x7f58ce1550f0&#45;&gt;ast.arguments object at 0x7f58ce157c10</title>
<path fill="none" stroke="black" d="M392.37,-508.97C348.24,-496.51 279.5,-477.11 233.87,-464.23"/>
<polygon fill="black" stroke="black" points="234.8,-460.85 224.22,-461.51 232.9,-467.59 234.8,-460.85"/>
</g>
<!-- ast.Assign object at 0x7f58ce156200 -->
<g id="node5" class="node">
<title>ast.Assign object at 0x7f58ce156200</title>
<path fill="#66cdaa" stroke="black" d="M450,-468C450,-468 420,-468 420,-468 414,-468 408,-462 408,-456 408,-456 408,-444 408,-444 408,-438 414,-432 420,-432 420,-432 450,-432 450,-432 456,-432 462,-438 462,-444 462,-444 462,-456 462,-456 462,-462 456,-468 450,-468"/>
<text text-anchor="middle" x="435" y="-446.3" font-family="Times,serif" font-size="14.00">Assign</text>
</g>
<!-- ast.FunctionDef object at 0x7f58ce1550f0&#45;&gt;ast.Assign object at 0x7f58ce156200 -->
<g id="edge4" class="edge">
<title>ast.FunctionDef object at 0x7f58ce1550f0&#45;&gt;ast.Assign object at 0x7f58ce156200</title>
<path fill="none" stroke="black" d="M435,-503.7C435,-495.98 435,-486.71 435,-478.11"/>
<polygon fill="black" stroke="black" points="438.5,-478.1 435,-468.1 431.5,-478.1 438.5,-478.1"/>
</g>
<!-- ast.For object at 0x7f58ba60bf10 -->
<g id="node10" class="node">
<title>ast.For object at 0x7f58ba60bf10</title>
<path fill="#66cdaa" stroke="black" d="M334,-468C334,-468 304,-468 304,-468 298,-468 292,-462 292,-456 292,-456 292,-444 292,-444 292,-438 298,-432 304,-432 304,-432 334,-432 334,-432 340,-432 346,-438 346,-444 346,-444 346,-456 346,-456 346,-462 340,-468 334,-468"/>
<text text-anchor="middle" x="319" y="-446.3" font-family="Times,serif" font-size="14.00">For</text>
</g>
<!-- ast.FunctionDef object at 0x7f58ce1550f0&#45;&gt;ast.For object at 0x7f58ba60bf10 -->
<g id="edge9" class="edge">
<title>ast.FunctionDef object at 0x7f58ce1550f0&#45;&gt;ast.For object at 0x7f58ba60bf10</title>
<path fill="none" stroke="black" d="M406.62,-503.88C391.12,-494.52 371.75,-482.83 355.17,-472.83"/>
<polygon fill="black" stroke="black" points="356.66,-469.64 346.29,-467.47 353.04,-475.63 356.66,-469.64"/>
</g>
<!-- ast.Assign object at 0x7f58cc2c2dd0 -->
<g id="node23" class="node">
<title>ast.Assign object at 0x7f58cc2c2dd0</title>
<path fill="#66cdaa" stroke="black" d="M541,-468C541,-468 511,-468 511,-468 505,-468 499,-462 499,-456 499,-456 499,-444 499,-444 499,-438 505,-432 511,-432 511,-432 541,-432 541,-432 547,-432 553,-438 553,-444 553,-444 553,-456 553,-456 553,-462 547,-468 541,-468"/>
<text text-anchor="middle" x="526" y="-446.3" font-family="Times,serif" font-size="14.00">Assign</text>
</g>
<!-- ast.FunctionDef object at 0x7f58ce1550f0&#45;&gt;ast.Assign object at 0x7f58cc2c2dd0 -->
<g id="edge29" class="edge">
<title>ast.FunctionDef object at 0x7f58ce1550f0&#45;&gt;ast.Assign object at 0x7f58cc2c2dd0</title>
<path fill="none" stroke="black" d="M457.49,-503.7C468.96,-494.88 483.06,-484.03 495.48,-474.47"/>
<polygon fill="black" stroke="black" points="497.97,-476.98 503.76,-468.1 493.7,-471.43 497.97,-476.98"/>
</g>
<!-- ast.Return object at 0x7f58cc2c3370 -->
<g id="node30" class="node">
<title>ast.Return object at 0x7f58cc2c3370</title>
<path fill="#66cdaa" stroke="black" d="M662,-252C662,-252 632,-252 632,-252 626,-252 620,-246 620,-240 620,-240 620,-228 620,-228 620,-222 626,-216 632,-216 632,-216 662,-216 662,-216 668,-216 674,-222 674,-228 674,-228 674,-240 674,-240 674,-246 668,-252 662,-252"/>
<text text-anchor="middle" x="647" y="-230.3" font-family="Times,serif" font-size="14.00">Return</text>
</g>
<!-- ast.FunctionDef object at 0x7f58ce1550f0&#45;&gt;ast.Return object at 0x7f58cc2c3370 -->
<g id="edge40" class="edge">
<title>ast.FunctionDef object at 0x7f58ce1550f0&#45;&gt;ast.Return object at 0x7f58cc2c3370</title>
<path fill="none" stroke="black" d="M477.76,-512.47C505.11,-504.98 539.55,-491.49 562,-468 618.3,-409.08 637.81,-309.93 644.16,-262.24"/>
<polygon fill="black" stroke="black" points="647.66,-262.43 645.41,-252.07 640.72,-261.57 647.66,-262.43"/>
</g>
<!-- ast.arg object at 0x7f58ce157e50 -->
<g id="node4" class="node">
<title>ast.arg object at 0x7f58ce157e50</title>
<path fill="#66cdaa" stroke="black" d="M177,-396C177,-396 147,-396 147,-396 141,-396 135,-390 135,-384 135,-384 135,-372 135,-372 135,-366 141,-360 147,-360 147,-360 177,-360 177,-360 183,-360 189,-366 189,-372 189,-372 189,-384 189,-384 189,-390 183,-396 177,-396"/>
<text text-anchor="middle" x="162" y="-374.3" font-family="Times,serif" font-size="14.00">arg</text>
</g>
<!-- ast.arguments object at 0x7f58ce157c10&#45;&gt;ast.arg object at 0x7f58ce157e50 -->
<g id="edge3" class="edge">
<title>ast.arguments object at 0x7f58ce157c10&#45;&gt;ast.arg object at 0x7f58ce157e50</title>
<path fill="none" stroke="black" d="M180.82,-431.7C178,-423.81 174.61,-414.3 171.48,-405.55"/>
<polygon fill="black" stroke="black" points="174.77,-404.34 168.11,-396.1 168.18,-406.7 174.77,-404.34"/>
</g>
<!-- ast.Name object at 0x7f58ce155060 -->
<g id="node6" class="node">
<title>ast.Name object at 0x7f58ce155060</title>
<path fill="#66cdaa" stroke="black" d="M431,-396C431,-396 401,-396 401,-396 395,-396 389,-390 389,-384 389,-384 389,-372 389,-372 389,-366 395,-360 401,-360 401,-360 431,-360 431,-360 437,-360 443,-366 443,-372 443,-372 443,-384 443,-384 443,-390 437,-396 431,-396"/>
<text text-anchor="middle" x="416" y="-374.3" font-family="Times,serif" font-size="14.00">Name</text>
</g>
<!-- ast.Assign object at 0x7f58ce156200&#45;&gt;ast.Name object at 0x7f58ce155060 -->
<g id="edge5" class="edge">
<title>ast.Assign object at 0x7f58ce156200&#45;&gt;ast.Name object at 0x7f58ce155060</title>
<path fill="none" stroke="black" d="M430.3,-431.7C428.19,-423.9 425.64,-414.51 423.28,-405.83"/>
<polygon fill="black" stroke="black" points="426.64,-404.84 420.64,-396.1 419.88,-406.67 426.64,-404.84"/>
</g>
<!-- ast.List object at 0x7f58ce154910 -->
<g id="node8" class="node">
<title>ast.List object at 0x7f58ce154910</title>
<path fill="#66cdaa" stroke="black" d="M486,-324C486,-324 456,-324 456,-324 450,-324 444,-318 444,-312 444,-312 444,-300 444,-300 444,-294 450,-288 456,-288 456,-288 486,-288 486,-288 492,-288 498,-294 498,-300 498,-300 498,-312 498,-312 498,-318 492,-324 486,-324"/>
<text text-anchor="middle" x="471" y="-302.3" font-family="Times,serif" font-size="14.00">List</text>
</g>
<!-- ast.Assign object at 0x7f58ce156200&#45;&gt;ast.List object at 0x7f58ce154910 -->
<g id="edge7" class="edge">
<title>ast.Assign object at 0x7f58ce156200&#45;&gt;ast.List object at 0x7f58ce154910</title>
<path fill="none" stroke="black" d="M440.95,-431.94C444.43,-421.62 448.77,-408.14 452,-396 457.46,-375.52 462.41,-352.06 465.89,-334.37"/>
<polygon fill="black" stroke="black" points="469.4,-334.66 467.86,-324.18 462.53,-333.34 469.4,-334.66"/>
</g>
<!-- ast.Store object at 0x7f58ed2f1fc0 -->
<g id="node7" class="node">
<title>ast.Store object at 0x7f58ed2f1fc0</title>
<path fill="#66cdaa" stroke="black" d="M414,-324C414,-324 384,-324 384,-324 378,-324 372,-318 372,-312 372,-312 372,-300 372,-300 372,-294 378,-288 384,-288 384,-288 414,-288 414,-288 420,-288 426,-294 426,-300 426,-300 426,-312 426,-312 426,-318 420,-324 414,-324"/>
<text text-anchor="middle" x="399" y="-302.3" font-family="Times,serif" font-size="14.00">Store</text>
</g>
<!-- ast.Name object at 0x7f58ce155060&#45;&gt;ast.Store object at 0x7f58ed2f1fc0 -->
<g id="edge6" class="edge">
<title>ast.Name object at 0x7f58ce155060&#45;&gt;ast.Store object at 0x7f58ed2f1fc0</title>
<path fill="none" stroke="black" d="M411.8,-359.7C409.9,-351.9 407.62,-342.51 405.52,-333.83"/>
<polygon fill="black" stroke="black" points="408.92,-333 403.15,-324.1 402.11,-334.65 408.92,-333"/>
</g>
<!-- ast.Load object at 0x7f58ed2f1f60 -->
<g id="node9" class="node">
<title>ast.Load object at 0x7f58ed2f1f60</title>
<path fill="#66cdaa" stroke="black" d="M417,-36C417,-36 387,-36 387,-36 381,-36 375,-30 375,-24 375,-24 375,-12 375,-12 375,-6 381,0 387,0 387,0 417,0 417,0 423,0 429,-6 429,-12 429,-12 429,-24 429,-24 429,-30 423,-36 417,-36"/>
<text text-anchor="middle" x="402" y="-14.3" font-family="Times,serif" font-size="14.00">Load</text>
</g>
<!-- ast.List object at 0x7f58ce154910&#45;&gt;ast.Load object at 0x7f58ed2f1f60 -->
<g id="edge8" class="edge">
<title>ast.List object at 0x7f58ce154910&#45;&gt;ast.Load object at 0x7f58ed2f1f60</title>
<path fill="none" stroke="black" d="M466.63,-287.62C460.56,-263.5 449.31,-218.46 440,-180 428.65,-133.1 415.83,-78.42 408.36,-46.37"/>
<polygon fill="black" stroke="black" points="411.72,-45.35 406.04,-36.41 404.9,-46.94 411.72,-45.35"/>
</g>
<!-- ast.Name object at 0x7f58ba60a9b0 -->
<g id="node11" class="node">
<title>ast.Name object at 0x7f58ba60a9b0</title>
<path fill="#66cdaa" stroke="black" d="M359,-396C359,-396 329,-396 329,-396 323,-396 317,-390 317,-384 317,-384 317,-372 317,-372 317,-366 323,-360 329,-360 329,-360 359,-360 359,-360 365,-360 371,-366 371,-372 371,-372 371,-384 371,-384 371,-390 365,-396 359,-396"/>
<text text-anchor="middle" x="344" y="-374.3" font-family="Times,serif" font-size="14.00">Name</text>
</g>
<!-- ast.For object at 0x7f58ba60bf10&#45;&gt;ast.Name object at 0x7f58ba60a9b0 -->
<g id="edge10" class="edge">
<title>ast.For object at 0x7f58ba60bf10&#45;&gt;ast.Name object at 0x7f58ba60a9b0</title>
<path fill="none" stroke="black" d="M325.18,-431.7C328,-423.81 331.39,-414.3 334.52,-405.55"/>
<polygon fill="black" stroke="black" points="337.82,-406.7 337.89,-396.1 331.23,-404.34 337.82,-406.7"/>
</g>
<!-- ast.Name object at 0x7f58ba60bac0 -->
<g id="node12" class="node">
<title>ast.Name object at 0x7f58ba60bac0</title>
<path fill="#66cdaa" stroke="black" d="M323,-324C323,-324 293,-324 293,-324 287,-324 281,-318 281,-312 281,-312 281,-300 281,-300 281,-294 287,-288 293,-288 293,-288 323,-288 323,-288 329,-288 335,-294 335,-300 335,-300 335,-312 335,-312 335,-318 329,-324 323,-324"/>
<text text-anchor="middle" x="308" y="-302.3" font-family="Times,serif" font-size="14.00">Name</text>
</g>
<!-- ast.For object at 0x7f58ba60bf10&#45;&gt;ast.Name object at 0x7f58ba60bac0 -->
<g id="edge12" class="edge">
<title>ast.For object at 0x7f58ba60bf10&#45;&gt;ast.Name object at 0x7f58ba60bac0</title>
<path fill="none" stroke="black" d="M314.54,-431.95C312.06,-421.63 309.25,-408.15 308,-396 305.88,-375.38 305.98,-351.93 306.56,-334.28"/>
<polygon fill="black" stroke="black" points="310.07,-334.25 306.97,-324.11 303.07,-333.97 310.07,-334.25"/>
</g>
<!-- ast.If object at 0x7f58ba60a9e0 -->
<g id="node13" class="node">
<title>ast.If object at 0x7f58ba60a9e0</title>
<path fill="#66cdaa" stroke="black" d="M249,-396C249,-396 219,-396 219,-396 213,-396 207,-390 207,-384 207,-384 207,-372 207,-372 207,-366 213,-360 219,-360 219,-360 249,-360 249,-360 255,-360 261,-366 261,-372 261,-372 261,-384 261,-384 261,-390 255,-396 249,-396"/>
<text text-anchor="middle" x="234" y="-374.3" font-family="Times,serif" font-size="14.00">If</text>
</g>
<!-- ast.For object at 0x7f58ba60bf10&#45;&gt;ast.If object at 0x7f58ba60a9e0 -->
<g id="edge14" class="edge">
<title>ast.For object at 0x7f58ba60bf10&#45;&gt;ast.If object at 0x7f58ba60a9e0</title>
<path fill="none" stroke="black" d="M297.99,-431.7C287.28,-422.88 274.11,-412.03 262.5,-402.47"/>
<polygon fill="black" stroke="black" points="264.71,-399.76 254.77,-396.1 260.26,-405.16 264.71,-399.76"/>
</g>
<!-- ast.Name object at 0x7f58ba60a9b0&#45;&gt;ast.Store object at 0x7f58ed2f1fc0 -->
<g id="edge11" class="edge">
<title>ast.Name object at 0x7f58ba60a9b0&#45;&gt;ast.Store object at 0x7f58ed2f1fc0</title>
<path fill="none" stroke="black" d="M357.6,-359.7C364.12,-351.39 372.07,-341.28 379.25,-332.14"/>
<polygon fill="black" stroke="black" points="382.13,-334.13 385.56,-324.1 376.63,-329.81 382.13,-334.13"/>
</g>
<!-- ast.Name object at 0x7f58ba60bac0&#45;&gt;ast.Load object at 0x7f58ed2f1f60 -->
<g id="edge13" class="edge">
<title>ast.Name object at 0x7f58ba60bac0&#45;&gt;ast.Load object at 0x7f58ed2f1f60</title>
<path fill="none" stroke="black" d="M313.6,-287.97C329.33,-240.09 374.04,-104.06 393.16,-45.9"/>
<polygon fill="black" stroke="black" points="396.51,-46.9 396.31,-36.31 389.86,-44.71 396.51,-46.9"/>
</g>
<!-- ast.Compare object at 0x7f58bad7d1b0 -->
<g id="node14" class="node">
<title>ast.Compare object at 0x7f58bad7d1b0</title>
<path fill="#66cdaa" stroke="black" d="M274.5,-180C274.5,-180 231.5,-180 231.5,-180 225.5,-180 219.5,-174 219.5,-168 219.5,-168 219.5,-156 219.5,-156 219.5,-150 225.5,-144 231.5,-144 231.5,-144 274.5,-144 274.5,-144 280.5,-144 286.5,-150 286.5,-156 286.5,-156 286.5,-168 286.5,-168 286.5,-174 280.5,-180 274.5,-180"/>
<text text-anchor="middle" x="253" y="-158.3" font-family="Times,serif" font-size="14.00">Compare</text>
</g>
<!-- ast.If object at 0x7f58ba60a9e0&#45;&gt;ast.Compare object at 0x7f58bad7d1b0 -->
<g id="edge15" class="edge">
<title>ast.If object at 0x7f58ba60a9e0&#45;&gt;ast.Compare object at 0x7f58bad7d1b0</title>
<path fill="none" stroke="black" d="M235.52,-359.85C238.81,-322.83 246.59,-235.18 250.57,-190.39"/>
<polygon fill="black" stroke="black" points="254.07,-190.5 251.47,-180.23 247.1,-189.88 254.07,-190.5"/>
</g>
<!-- ast.Expr object at 0x7f58bad7c550 -->
<g id="node18" class="node">
<title>ast.Expr object at 0x7f58bad7c550</title>
<path fill="#66cdaa" stroke="black" d="M170,-324C170,-324 140,-324 140,-324 134,-324 128,-318 128,-312 128,-312 128,-300 128,-300 128,-294 134,-288 140,-288 140,-288 170,-288 170,-288 176,-288 182,-294 182,-300 182,-300 182,-312 182,-312 182,-318 176,-324 170,-324"/>
<text text-anchor="middle" x="155" y="-302.3" font-family="Times,serif" font-size="14.00">Expr</text>
</g>
<!-- ast.If object at 0x7f58ba60a9e0&#45;&gt;ast.Expr object at 0x7f58bad7c550 -->
<g id="edge21" class="edge">
<title>ast.If object at 0x7f58ba60a9e0&#45;&gt;ast.Expr object at 0x7f58bad7c550</title>
<path fill="none" stroke="black" d="M214.47,-359.7C204.62,-350.97 192.51,-340.24 181.8,-330.75"/>
<polygon fill="black" stroke="black" points="184.11,-328.12 174.3,-324.1 179.47,-333.36 184.11,-328.12"/>
</g>
<!-- ast.Name object at 0x7f58bad7cf10 -->
<g id="node15" class="node">
<title>ast.Name object at 0x7f58bad7cf10</title>
<path fill="#66cdaa" stroke="black" d="M271,-108C271,-108 241,-108 241,-108 235,-108 229,-102 229,-96 229,-96 229,-84 229,-84 229,-78 235,-72 241,-72 241,-72 271,-72 271,-72 277,-72 283,-78 283,-84 283,-84 283,-96 283,-96 283,-102 277,-108 271,-108"/>
<text text-anchor="middle" x="256" y="-86.3" font-family="Times,serif" font-size="14.00">Name</text>
</g>
<!-- ast.Compare object at 0x7f58bad7d1b0&#45;&gt;ast.Name object at 0x7f58bad7cf10 -->
<g id="edge16" class="edge">
<title>ast.Compare object at 0x7f58bad7d1b0&#45;&gt;ast.Name object at 0x7f58bad7cf10</title>
<path fill="none" stroke="black" d="M253.74,-143.7C254.07,-135.98 254.47,-126.71 254.84,-118.11"/>
<polygon fill="black" stroke="black" points="258.34,-118.25 255.27,-108.1 251.34,-117.95 258.34,-118.25"/>
</g>
<!-- ast.NotIn object at 0x7f58ed2f2bf0 -->
<g id="node16" class="node">
<title>ast.NotIn object at 0x7f58ed2f2bf0</title>
<path fill="#66cdaa" stroke="black" d="M343,-108C343,-108 313,-108 313,-108 307,-108 301,-102 301,-96 301,-96 301,-84 301,-84 301,-78 307,-72 313,-72 313,-72 343,-72 343,-72 349,-72 355,-78 355,-84 355,-84 355,-96 355,-96 355,-102 349,-108 343,-108"/>
<text text-anchor="middle" x="328" y="-86.3" font-family="Times,serif" font-size="14.00">NotIn</text>
</g>
<!-- ast.Compare object at 0x7f58bad7d1b0&#45;&gt;ast.NotIn object at 0x7f58ed2f2bf0 -->
<g id="edge18" class="edge">
<title>ast.Compare object at 0x7f58bad7d1b0&#45;&gt;ast.NotIn object at 0x7f58ed2f2bf0</title>
<path fill="none" stroke="black" d="M271.54,-143.7C280.8,-135.05 292.16,-124.45 302.26,-115.03"/>
<polygon fill="black" stroke="black" points="304.75,-117.49 309.67,-108.1 299.98,-112.37 304.75,-117.49"/>
</g>
<!-- ast.Name object at 0x7f58bad7c9a0 -->
<g id="node17" class="node">
<title>ast.Name object at 0x7f58bad7c9a0</title>
<path fill="#66cdaa" stroke="black" d="M199,-108C199,-108 169,-108 169,-108 163,-108 157,-102 157,-96 157,-96 157,-84 157,-84 157,-78 163,-72 169,-72 169,-72 199,-72 199,-72 205,-72 211,-78 211,-84 211,-84 211,-96 211,-96 211,-102 205,-108 199,-108"/>
<text text-anchor="middle" x="184" y="-86.3" font-family="Times,serif" font-size="14.00">Name</text>
</g>
<!-- ast.Compare object at 0x7f58bad7d1b0&#45;&gt;ast.Name object at 0x7f58bad7c9a0 -->
<g id="edge19" class="edge">
<title>ast.Compare object at 0x7f58bad7d1b0&#45;&gt;ast.Name object at 0x7f58bad7c9a0</title>
<path fill="none" stroke="black" d="M235.94,-143.7C227.5,-135.14 217.18,-124.66 207.96,-115.3"/>
<polygon fill="black" stroke="black" points="210.37,-112.77 200.86,-108.1 205.39,-117.68 210.37,-112.77"/>
</g>
<!-- ast.Name object at 0x7f58bad7cf10&#45;&gt;ast.Load object at 0x7f58ed2f1f60 -->
<g id="edge17" class="edge">
<title>ast.Name object at 0x7f58bad7cf10&#45;&gt;ast.Load object at 0x7f58ed2f1f60</title>
<path fill="none" stroke="black" d="M283.12,-76C306.33,-64.87 339.94,-48.75 365.51,-36.5"/>
<polygon fill="black" stroke="black" points="367.03,-39.65 374.53,-32.17 364,-33.34 367.03,-39.65"/>
</g>
<!-- ast.Name object at 0x7f58bad7c9a0&#45;&gt;ast.Load object at 0x7f58ed2f1f60 -->
<g id="edge20" class="edge">
<title>ast.Name object at 0x7f58bad7c9a0&#45;&gt;ast.Load object at 0x7f58ed2f1f60</title>
<path fill="none" stroke="black" d="M211.32,-75.55C214.23,-74.29 217.16,-73.08 220,-72 269.09,-53.4 327.66,-37.4 364.84,-27.98"/>
<polygon fill="black" stroke="black" points="365.88,-31.33 374.73,-25.51 364.18,-24.54 365.88,-31.33"/>
</g>
<!-- ast.Call object at 0x7f58bad7c730 -->
<g id="node19" class="node">
<title>ast.Call object at 0x7f58bad7c730</title>
<path fill="#66cdaa" stroke="black" d="M136,-252C136,-252 106,-252 106,-252 100,-252 94,-246 94,-240 94,-240 94,-228 94,-228 94,-222 100,-216 106,-216 106,-216 136,-216 136,-216 142,-216 148,-222 148,-228 148,-228 148,-240 148,-240 148,-246 142,-252 136,-252"/>
<text text-anchor="middle" x="121" y="-230.3" font-family="Times,serif" font-size="14.00">Call</text>
</g>
<!-- ast.Expr object at 0x7f58bad7c550&#45;&gt;ast.Call object at 0x7f58bad7c730 -->
<g id="edge22" class="edge">
<title>ast.Expr object at 0x7f58bad7c550&#45;&gt;ast.Call object at 0x7f58bad7c730</title>
<path fill="none" stroke="black" d="M146.6,-287.7C142.73,-279.73 138.05,-270.1 133.76,-261.26"/>
<polygon fill="black" stroke="black" points="136.83,-259.57 129.31,-252.1 130.53,-262.63 136.83,-259.57"/>
</g>
<!-- ast.Attribute object at 0x7f58bad7e8c0 -->
<g id="node20" class="node">
<title>ast.Attribute object at 0x7f58bad7e8c0</title>
<path fill="#66cdaa" stroke="black" d="M141.5,-180C141.5,-180 100.5,-180 100.5,-180 94.5,-180 88.5,-174 88.5,-168 88.5,-168 88.5,-156 88.5,-156 88.5,-150 94.5,-144 100.5,-144 100.5,-144 141.5,-144 141.5,-144 147.5,-144 153.5,-150 153.5,-156 153.5,-156 153.5,-168 153.5,-168 153.5,-174 147.5,-180 141.5,-180"/>
<text text-anchor="middle" x="121" y="-158.3" font-family="Times,serif" font-size="14.00">Attribute</text>
</g>
<!-- ast.Call object at 0x7f58bad7c730&#45;&gt;ast.Attribute object at 0x7f58bad7e8c0 -->
<g id="edge23" class="edge">
<title>ast.Call object at 0x7f58bad7c730&#45;&gt;ast.Attribute object at 0x7f58bad7e8c0</title>
<path fill="none" stroke="black" d="M121,-215.7C121,-207.98 121,-198.71 121,-190.11"/>
<polygon fill="black" stroke="black" points="124.5,-190.1 121,-180.1 117.5,-190.1 124.5,-190.1"/>
</g>
<!-- ast.Name object at 0x7f58cc2c29b0 -->
<g id="node22" class="node">
<title>ast.Name object at 0x7f58cc2c29b0</title>
<path fill="#66cdaa" stroke="black" d="M42,-180C42,-180 12,-180 12,-180 6,-180 0,-174 0,-168 0,-168 0,-156 0,-156 0,-150 6,-144 12,-144 12,-144 42,-144 42,-144 48,-144 54,-150 54,-156 54,-156 54,-168 54,-168 54,-174 48,-180 42,-180"/>
<text text-anchor="middle" x="27" y="-158.3" font-family="Times,serif" font-size="14.00">Name</text>
</g>
<!-- ast.Call object at 0x7f58bad7c730&#45;&gt;ast.Name object at 0x7f58cc2c29b0 -->
<g id="edge27" class="edge">
<title>ast.Call object at 0x7f58bad7c730&#45;&gt;ast.Name object at 0x7f58cc2c29b0</title>
<path fill="none" stroke="black" d="M97.76,-215.7C85.81,-206.8 71.08,-195.82 58.15,-186.2"/>
<polygon fill="black" stroke="black" points="60.08,-183.27 49.97,-180.1 55.9,-188.88 60.08,-183.27"/>
</g>
<!-- ast.Attribute object at 0x7f58bad7e8c0&#45;&gt;ast.Load object at 0x7f58ed2f1f60 -->
<g id="edge26" class="edge">
<title>ast.Attribute object at 0x7f58bad7e8c0&#45;&gt;ast.Load object at 0x7f58ed2f1f60</title>
<path fill="none" stroke="black" d="M121.24,-143.89C122.49,-123.7 127.75,-90.53 148,-72 179.26,-43.4 301.73,-28.21 364.49,-22.17"/>
<polygon fill="black" stroke="black" points="365.12,-25.63 374.75,-21.21 364.47,-18.66 365.12,-25.63"/>
</g>
<!-- ast.Name object at 0x7f58cc2c2e60 -->
<g id="node21" class="node">
<title>ast.Name object at 0x7f58cc2c2e60</title>
<path fill="#66cdaa" stroke="black" d="M89,-108C89,-108 59,-108 59,-108 53,-108 47,-102 47,-96 47,-96 47,-84 47,-84 47,-78 53,-72 59,-72 59,-72 89,-72 89,-72 95,-72 101,-78 101,-84 101,-84 101,-96 101,-96 101,-102 95,-108 89,-108"/>
<text text-anchor="middle" x="74" y="-86.3" font-family="Times,serif" font-size="14.00">Name</text>
</g>
<!-- ast.Attribute object at 0x7f58bad7e8c0&#45;&gt;ast.Name object at 0x7f58cc2c2e60 -->
<g id="edge24" class="edge">
<title>ast.Attribute object at 0x7f58bad7e8c0&#45;&gt;ast.Name object at 0x7f58cc2c2e60</title>
<path fill="none" stroke="black" d="M109.38,-143.7C103.86,-135.47 97.15,-125.48 91.07,-116.42"/>
<polygon fill="black" stroke="black" points="93.96,-114.46 85.48,-108.1 88.15,-118.36 93.96,-114.46"/>
</g>
<!-- ast.Name object at 0x7f58cc2c2e60&#45;&gt;ast.Load object at 0x7f58ed2f1f60 -->
<g id="edge25" class="edge">
<title>ast.Name object at 0x7f58cc2c2e60&#45;&gt;ast.Load object at 0x7f58ed2f1f60</title>
<path fill="none" stroke="black" d="M101.06,-76.84C105.65,-75.05 110.42,-73.36 115,-72 202.63,-46.06 309.26,-30.36 364.6,-23.35"/>
<polygon fill="black" stroke="black" points="365.15,-26.81 374.65,-22.1 364.29,-19.86 365.15,-26.81"/>
</g>
<!-- ast.Name object at 0x7f58cc2c29b0&#45;&gt;ast.Load object at 0x7f58ed2f1f60 -->
<g id="edge28" class="edge">
<title>ast.Name object at 0x7f58cc2c29b0&#45;&gt;ast.Load object at 0x7f58ed2f1f60</title>
<path fill="none" stroke="black" d="M23.57,-143.67C20.7,-123.57 19.6,-90.81 38,-72 82.87,-26.15 281.5,-19.62 364.92,-18.94"/>
<polygon fill="black" stroke="black" points="364.99,-22.44 374.97,-18.88 364.94,-15.44 364.99,-22.44"/>
</g>
<!-- ast.Name object at 0x7f58cc2c3e20 -->
<g id="node24" class="node">
<title>ast.Name object at 0x7f58cc2c3e20</title>
<path fill="#66cdaa" stroke="black" d="M541,-396C541,-396 511,-396 511,-396 505,-396 499,-390 499,-384 499,-384 499,-372 499,-372 499,-366 505,-360 511,-360 511,-360 541,-360 541,-360 547,-360 553,-366 553,-372 553,-372 553,-384 553,-384 553,-390 547,-396 541,-396"/>
<text text-anchor="middle" x="526" y="-374.3" font-family="Times,serif" font-size="14.00">Name</text>
</g>
<!-- ast.Assign object at 0x7f58cc2c2dd0&#45;&gt;ast.Name object at 0x7f58cc2c3e20 -->
<g id="edge30" class="edge">
<title>ast.Assign object at 0x7f58cc2c2dd0&#45;&gt;ast.Name object at 0x7f58cc2c3e20</title>
<path fill="none" stroke="black" d="M526,-431.7C526,-423.98 526,-414.71 526,-406.11"/>
<polygon fill="black" stroke="black" points="529.5,-406.1 526,-396.1 522.5,-406.1 529.5,-406.1"/>
</g>
<!-- ast.Call object at 0x7f58cc2c2ad0 -->
<g id="node25" class="node">
<title>ast.Call object at 0x7f58cc2c2ad0</title>
<path fill="#66cdaa" stroke="black" d="M585,-252C585,-252 555,-252 555,-252 549,-252 543,-246 543,-240 543,-240 543,-228 543,-228 543,-222 549,-216 555,-216 555,-216 585,-216 585,-216 591,-216 597,-222 597,-228 597,-228 597,-240 597,-240 597,-246 591,-252 585,-252"/>
<text text-anchor="middle" x="570" y="-230.3" font-family="Times,serif" font-size="14.00">Call</text>
</g>
<!-- ast.Assign object at 0x7f58cc2c2dd0&#45;&gt;ast.Call object at 0x7f58cc2c2ad0 -->
<g id="edge32" class="edge">
<title>ast.Assign object at 0x7f58cc2c2dd0&#45;&gt;ast.Call object at 0x7f58cc2c2ad0</title>
<path fill="none" stroke="black" d="M541.35,-431.69C549.04,-421.92 557.62,-409.08 562,-396 577.09,-350.94 575.68,-294.82 573.02,-262.14"/>
<polygon fill="black" stroke="black" points="576.49,-261.64 572.09,-252.01 569.52,-262.28 576.49,-261.64"/>
</g>
<!-- ast.Name object at 0x7f58cc2c3e20&#45;&gt;ast.Store object at 0x7f58ed2f1fc0 -->
<g id="edge31" class="edge">
<title>ast.Name object at 0x7f58cc2c3e20&#45;&gt;ast.Store object at 0x7f58ed2f1fc0</title>
<path fill="none" stroke="black" d="M498.76,-361.98C480.17,-351.74 455.36,-338.07 435.13,-326.92"/>
<polygon fill="black" stroke="black" points="436.65,-323.75 426.2,-321.99 433.27,-329.88 436.65,-323.75"/>
</g>
<!-- ast.Name object at 0x7f58cc2c29e0 -->
<g id="node26" class="node">
<title>ast.Name object at 0x7f58cc2c29e0</title>
<path fill="#66cdaa" stroke="black" d="M573,-180C573,-180 543,-180 543,-180 537,-180 531,-174 531,-168 531,-168 531,-156 531,-156 531,-150 537,-144 543,-144 543,-144 573,-144 573,-144 579,-144 585,-150 585,-156 585,-156 585,-168 585,-168 585,-174 579,-180 573,-180"/>
<text text-anchor="middle" x="558" y="-158.3" font-family="Times,serif" font-size="14.00">Name</text>
</g>
<!-- ast.Call object at 0x7f58cc2c2ad0&#45;&gt;ast.Name object at 0x7f58cc2c29e0 -->
<g id="edge33" class="edge">
<title>ast.Call object at 0x7f58cc2c2ad0&#45;&gt;ast.Name object at 0x7f58cc2c29e0</title>
<path fill="none" stroke="black" d="M567.03,-215.7C565.71,-207.98 564.12,-198.71 562.65,-190.11"/>
<polygon fill="black" stroke="black" points="566.07,-189.37 560.93,-180.1 559.17,-190.55 566.07,-189.37"/>
</g>
<!-- ast.Name object at 0x7f58cc2c3a00 -->
<g id="node27" class="node">
<title>ast.Name object at 0x7f58cc2c3a00</title>
<path fill="#66cdaa" stroke="black" d="M645,-180C645,-180 615,-180 615,-180 609,-180 603,-174 603,-168 603,-168 603,-156 603,-156 603,-150 609,-144 615,-144 615,-144 645,-144 645,-144 651,-144 657,-150 657,-156 657,-156 657,-168 657,-168 657,-174 651,-180 645,-180"/>
<text text-anchor="middle" x="630" y="-158.3" font-family="Times,serif" font-size="14.00">Name</text>
</g>
<!-- ast.Call object at 0x7f58cc2c2ad0&#45;&gt;ast.Name object at 0x7f58cc2c3a00 -->
<g id="edge35" class="edge">
<title>ast.Call object at 0x7f58cc2c2ad0&#45;&gt;ast.Name object at 0x7f58cc2c3a00</title>
<path fill="none" stroke="black" d="M584.83,-215.7C592.02,-207.3 600.8,-197.07 608.69,-187.86"/>
<polygon fill="black" stroke="black" points="611.49,-189.97 615.34,-180.1 606.17,-185.42 611.49,-189.97"/>
</g>
<!-- ast.keyword object at 0x7f58cc2c0460 -->
<g id="node28" class="node">
<title>ast.keyword object at 0x7f58cc2c0460</title>
<path fill="#66cdaa" stroke="black" d="M501,-180C501,-180 461,-180 461,-180 455,-180 449,-174 449,-168 449,-168 449,-156 449,-156 449,-150 455,-144 461,-144 461,-144 501,-144 501,-144 507,-144 513,-150 513,-156 513,-156 513,-168 513,-168 513,-174 507,-180 501,-180"/>
<text text-anchor="middle" x="481" y="-158.3" font-family="Times,serif" font-size="14.00">keyword</text>
</g>
<!-- ast.Call object at 0x7f58cc2c2ad0&#45;&gt;ast.keyword object at 0x7f58cc2c0460 -->
<g id="edge37" class="edge">
<title>ast.Call object at 0x7f58cc2c2ad0&#45;&gt;ast.keyword object at 0x7f58cc2c0460</title>
<path fill="none" stroke="black" d="M548,-215.7C536.79,-206.88 523,-196.03 510.85,-186.47"/>
<polygon fill="black" stroke="black" points="512.77,-183.54 502.75,-180.1 508.44,-189.04 512.77,-183.54"/>
</g>
<!-- ast.Name object at 0x7f58cc2c29e0&#45;&gt;ast.Load object at 0x7f58ed2f1f60 -->
<g id="edge34" class="edge">
<title>ast.Name object at 0x7f58cc2c29e0&#45;&gt;ast.Load object at 0x7f58ed2f1f60</title>
<path fill="none" stroke="black" d="M552.86,-143.9C546.21,-124.33 532.95,-92.37 512,-72 491.52,-52.09 462.12,-38.45 438.87,-30"/>
<polygon fill="black" stroke="black" points="439.92,-26.66 429.33,-26.7 437.63,-33.28 439.92,-26.66"/>
</g>
<!-- ast.Name object at 0x7f58cc2c3a00&#45;&gt;ast.Load object at 0x7f58ed2f1f60 -->
<g id="edge36" class="edge">
<title>ast.Name object at 0x7f58cc2c3a00&#45;&gt;ast.Load object at 0x7f58ed2f1f60</title>
<path fill="none" stroke="black" d="M616.2,-143.8C599.66,-124.14 570.22,-92.09 539,-72 507.73,-51.88 467.64,-37.49 438.92,-28.82"/>
<polygon fill="black" stroke="black" points="439.84,-25.45 429.26,-26 437.88,-32.17 439.84,-25.45"/>
</g>
<!-- ast.Name object at 0x7f58cc2c2d10 -->
<g id="node29" class="node">
<title>ast.Name object at 0x7f58cc2c2d10</title>
<path fill="#66cdaa" stroke="black" d="M491,-108C491,-108 461,-108 461,-108 455,-108 449,-102 449,-96 449,-96 449,-84 449,-84 449,-78 455,-72 461,-72 461,-72 491,-72 491,-72 497,-72 503,-78 503,-84 503,-84 503,-96 503,-96 503,-102 497,-108 491,-108"/>
<text text-anchor="middle" x="476" y="-86.3" font-family="Times,serif" font-size="14.00">Name</text>
</g>
<!-- ast.keyword object at 0x7f58cc2c0460&#45;&gt;ast.Name object at 0x7f58cc2c2d10 -->
<g id="edge38" class="edge">
<title>ast.keyword object at 0x7f58cc2c0460&#45;&gt;ast.Name object at 0x7f58cc2c2d10</title>
<path fill="none" stroke="black" d="M479.76,-143.7C479.21,-135.98 478.55,-126.71 477.94,-118.11"/>
<polygon fill="black" stroke="black" points="481.43,-117.83 477.22,-108.1 474.44,-118.33 481.43,-117.83"/>
</g>
<!-- ast.Name object at 0x7f58cc2c2d10&#45;&gt;ast.Load object at 0x7f58ed2f1f60 -->
<g id="edge39" class="edge">
<title>ast.Name object at 0x7f58cc2c2d10&#45;&gt;ast.Load object at 0x7f58ed2f1f60</title>
<path fill="none" stroke="black" d="M457.71,-71.7C448.57,-63.05 437.36,-52.45 427.4,-43.03"/>
<polygon fill="black" stroke="black" points="429.75,-40.43 420.08,-36.1 424.94,-45.52 429.75,-40.43"/>
</g>
<!-- ast.Subscript object at 0x7f58cc2c2350 -->
<g id="node31" class="node">
<title>ast.Subscript object at 0x7f58cc2c2350</title>
<path fill="#66cdaa" stroke="black" d="M731,-180C731,-180 687,-180 687,-180 681,-180 675,-174 675,-168 675,-168 675,-156 675,-156 675,-150 681,-144 687,-144 687,-144 731,-144 731,-144 737,-144 743,-150 743,-156 743,-156 743,-168 743,-168 743,-174 737,-180 731,-180"/>
<text text-anchor="middle" x="709" y="-158.3" font-family="Times,serif" font-size="14.00">Subscript</text>
</g>
<!-- ast.Return object at 0x7f58cc2c3370&#45;&gt;ast.Subscript object at 0x7f58cc2c2350 -->
<g id="edge41" class="edge">
<title>ast.Return object at 0x7f58cc2c3370&#45;&gt;ast.Subscript object at 0x7f58cc2c2350</title>
<path fill="none" stroke="black" d="M662.33,-215.7C669.76,-207.3 678.82,-197.07 686.98,-187.86"/>
<polygon fill="black" stroke="black" points="689.84,-189.91 693.85,-180.1 684.6,-185.27 689.84,-189.91"/>
</g>
<!-- ast.Subscript object at 0x7f58cc2c2350&#45;&gt;ast.Load object at 0x7f58ed2f1f60 -->
<g id="edge46" class="edge">
<title>ast.Subscript object at 0x7f58cc2c2350&#45;&gt;ast.Load object at 0x7f58ed2f1f60</title>
<path fill="none" stroke="black" d="M681.5,-143.89C665.24,-133.66 644.31,-120.3 626,-108 602.97,-92.53 599.91,-84.22 575,-72 530.46,-50.16 475.05,-35.1 439.12,-26.76"/>
<polygon fill="black" stroke="black" points="439.6,-23.28 429.07,-24.49 438.06,-30.11 439.6,-23.28"/>
</g>
<!-- ast.Name object at 0x7f58cc2c17e0 -->
<g id="node32" class="node">
<title>ast.Name object at 0x7f58cc2c17e0</title>
<path fill="#66cdaa" stroke="black" d="M677,-108C677,-108 647,-108 647,-108 641,-108 635,-102 635,-96 635,-96 635,-84 635,-84 635,-78 641,-72 647,-72 647,-72 677,-72 677,-72 683,-72 689,-78 689,-84 689,-84 689,-96 689,-96 689,-102 683,-108 677,-108"/>
<text text-anchor="middle" x="662" y="-86.3" font-family="Times,serif" font-size="14.00">Name</text>
</g>
<!-- ast.Subscript object at 0x7f58cc2c2350&#45;&gt;ast.Name object at 0x7f58cc2c17e0 -->
<g id="edge42" class="edge">
<title>ast.Subscript object at 0x7f58cc2c2350&#45;&gt;ast.Name object at 0x7f58cc2c17e0</title>
<path fill="none" stroke="black" d="M697.38,-143.7C691.86,-135.47 685.15,-125.48 679.07,-116.42"/>
<polygon fill="black" stroke="black" points="681.96,-114.46 673.48,-108.1 676.15,-118.36 681.96,-114.46"/>
</g>
<!-- ast.Slice object at 0x7f58cc2c3ee0 -->
<g id="node33" class="node">
<title>ast.Slice object at 0x7f58cc2c3ee0</title>
<path fill="#66cdaa" stroke="black" d="M749,-108C749,-108 719,-108 719,-108 713,-108 707,-102 707,-96 707,-96 707,-84 707,-84 707,-78 713,-72 719,-72 719,-72 749,-72 749,-72 755,-72 761,-78 761,-84 761,-84 761,-96 761,-96 761,-102 755,-108 749,-108"/>
<text text-anchor="middle" x="734" y="-86.3" font-family="Times,serif" font-size="14.00">Slice</text>
</g>
<!-- ast.Subscript object at 0x7f58cc2c2350&#45;&gt;ast.Slice object at 0x7f58cc2c3ee0 -->
<g id="edge44" class="edge">
<title>ast.Subscript object at 0x7f58cc2c2350&#45;&gt;ast.Slice object at 0x7f58cc2c3ee0</title>
<path fill="none" stroke="black" d="M715.18,-143.7C718,-135.81 721.39,-126.3 724.52,-117.55"/>
<polygon fill="black" stroke="black" points="727.82,-118.7 727.89,-108.1 721.23,-116.34 727.82,-118.7"/>
</g>
<!-- ast.Name object at 0x7f58cc2c17e0&#45;&gt;ast.Load object at 0x7f58ed2f1f60 -->
<g id="edge43" class="edge">
<title>ast.Name object at 0x7f58cc2c17e0&#45;&gt;ast.Load object at 0x7f58ed2f1f60</title>
<path fill="none" stroke="black" d="M634.87,-77.06C630.29,-75.24 625.54,-73.48 621,-72 558.16,-51.51 482.88,-34.98 438.95,-26.11"/>
<polygon fill="black" stroke="black" points="439.5,-22.65 429.01,-24.12 438.13,-29.51 439.5,-22.65"/>
</g>
<!-- ast.Constant object at 0x7f58cc2c3eb0 -->
<g id="node34" class="node">
<title>ast.Constant object at 0x7f58cc2c3eb0</title>
<path fill="#66cdaa" stroke="black" d="M754.5,-36C754.5,-36 713.5,-36 713.5,-36 707.5,-36 701.5,-30 701.5,-24 701.5,-24 701.5,-12 701.5,-12 701.5,-6 707.5,0 713.5,0 713.5,0 754.5,0 754.5,0 760.5,0 766.5,-6 766.5,-12 766.5,-12 766.5,-24 766.5,-24 766.5,-30 760.5,-36 754.5,-36"/>
<text text-anchor="middle" x="734" y="-14.3" font-family="Times,serif" font-size="14.00">Constant</text>
</g>
<!-- ast.Slice object at 0x7f58cc2c3ee0&#45;&gt;ast.Constant object at 0x7f58cc2c3eb0 -->
<g id="edge45" class="edge">
<title>ast.Slice object at 0x7f58cc2c3ee0&#45;&gt;ast.Constant object at 0x7f58cc2c3eb0</title>
<path fill="none" stroke="black" d="M734,-71.7C734,-63.98 734,-54.71 734,-46.11"/>
<polygon fill="black" stroke="black" points="737.5,-46.1 734,-36.1 730.5,-46.1 737.5,-46.1"/>
</g>
</g>
</svg>
