<?xml version="1.0" encoding="UTF-8" standalone="no"?>
<!DOCTYPE svg PUBLIC "-//W3C//DTD SVG 1.1//EN"
 "http://www.w3.org/Graphics/SVG/1.1/DTD/svg11.dtd">
<!-- Generated by graphviz version 2.43.0 (0)
 -->
<!-- Title: %3 Pages: 1 -->
<svg width="1210pt" height="764pt"
 viewBox="0.00 0.00 1209.50 764.00" xmlns="http://www.w3.org/2000/svg" xmlns:xlink="http://www.w3.org/1999/xlink">
<g id="graph0" class="graph" transform="scale(1 1) rotate(0) translate(4 760)">
<title>%3</title>
<polygon fill="white" stroke="transparent" points="-4,4 -4,-760 1205.5,-760 1205.5,4 -4,4"/>
<!-- ast.Module object at 0x7f17141953f0 -->
<g id="node1" class="node">
<title>ast.Module object at 0x7f17141953f0</title>
<path fill="#66cdaa" stroke="black" d="M477,-756C477,-756 442,-756 442,-756 436,-756 430,-750 430,-744 430,-744 430,-732 430,-732 430,-726 436,-720 442,-720 442,-720 477,-720 477,-720 483,-720 489,-726 489,-732 489,-732 489,-744 489,-744 489,-750 483,-756 477,-756"/>
<text text-anchor="middle" x="459.5" y="-734.3" font-family="Times,serif" font-size="14.00">Module</text>
</g>
<!-- ast.FunctionDef object at 0x7f1714197310 -->
<g id="node2" class="node">
<title>ast.FunctionDef object at 0x7f1714197310</title>
<path fill="#66cdaa" stroke="black" d="M490,-684C490,-684 429,-684 429,-684 423,-684 417,-678 417,-672 417,-672 417,-660 417,-660 417,-654 423,-648 429,-648 429,-648 490,-648 490,-648 496,-648 502,-654 502,-660 502,-660 502,-672 502,-672 502,-678 496,-684 490,-684"/>
<text text-anchor="middle" x="459.5" y="-662.3" font-family="Times,serif" font-size="14.00">FunctionDef</text>
</g>
<!-- ast.Module object at 0x7f17141953f0&#45;&gt;ast.FunctionDef object at 0x7f1714197310 -->
<g id="edge1" class="edge">
<title>ast.Module object at 0x7f17141953f0&#45;&gt;ast.FunctionDef object at 0x7f1714197310</title>
<path fill="none" stroke="black" d="M459.5,-719.7C459.5,-711.98 459.5,-702.71 459.5,-694.11"/>
<polygon fill="black" stroke="black" points="463,-694.1 459.5,-684.1 456,-694.1 463,-694.1"/>
</g>
<!-- ast.arguments object at 0x7f1714196260 -->
<g id="node3" class="node">
<title>ast.arguments object at 0x7f1714196260</title>
<path fill="#66cdaa" stroke="black" d="M250.5,-612C250.5,-612 200.5,-612 200.5,-612 194.5,-612 188.5,-606 188.5,-600 188.5,-600 188.5,-588 188.5,-588 188.5,-582 194.5,-576 200.5,-576 200.5,-576 250.5,-576 250.5,-576 256.5,-576 262.5,-582 262.5,-588 262.5,-588 262.5,-600 262.5,-600 262.5,-606 256.5,-612 250.5,-612"/>
<text text-anchor="middle" x="225.5" y="-590.3" font-family="Times,serif" font-size="14.00">arguments</text>
</g>
<!-- ast.FunctionDef object at 0x7f1714197310&#45;&gt;ast.arguments object at 0x7f1714196260 -->
<g id="edge2" class="edge">
<title>ast.FunctionDef object at 0x7f1714197310&#45;&gt;ast.arguments object at 0x7f1714196260</title>
<path fill="none" stroke="black" d="M416.85,-652.24C376.09,-640.05 314.77,-621.71 272.59,-609.09"/>
<polygon fill="black" stroke="black" points="273.42,-605.68 262.84,-606.17 271.42,-612.39 273.42,-605.68"/>
</g>
<!-- ast.Assign object at 0x7f1714197910 -->
<g id="node5" class="node">
<title>ast.Assign object at 0x7f1714197910</title>
<path fill="#66cdaa" stroke="black" d="M402.5,-612C402.5,-612 372.5,-612 372.5,-612 366.5,-612 360.5,-606 360.5,-600 360.5,-600 360.5,-588 360.5,-588 360.5,-582 366.5,-576 372.5,-576 372.5,-576 402.5,-576 402.5,-576 408.5,-576 414.5,-582 414.5,-588 414.5,-588 414.5,-600 414.5,-600 414.5,-606 408.5,-612 402.5,-612"/>
<text text-anchor="middle" x="387.5" y="-590.3" font-family="Times,serif" font-size="14.00">Assign</text>
</g>
<!-- ast.FunctionDef object at 0x7f1714197310&#45;&gt;ast.Assign object at 0x7f1714197910 -->
<g id="edge4" class="edge">
<title>ast.FunctionDef object at 0x7f1714197310&#45;&gt;ast.Assign object at 0x7f1714197910</title>
<path fill="none" stroke="black" d="M441.7,-647.7C432.9,-639.14 422.12,-628.66 412.5,-619.3"/>
<polygon fill="black" stroke="black" points="414.7,-616.57 405.09,-612.1 409.82,-621.58 414.7,-616.57"/>
</g>
<!-- ast.Assign object at 0x7f1714195ab0 -->
<g id="node13" class="node">
<title>ast.Assign object at 0x7f1714195ab0</title>
<path fill="#66cdaa" stroke="black" d="M474.5,-612C474.5,-612 444.5,-612 444.5,-612 438.5,-612 432.5,-606 432.5,-600 432.5,-600 432.5,-588 432.5,-588 432.5,-582 438.5,-576 444.5,-576 444.5,-576 474.5,-576 474.5,-576 480.5,-576 486.5,-582 486.5,-588 486.5,-588 486.5,-600 486.5,-600 486.5,-606 480.5,-612 474.5,-612"/>
<text text-anchor="middle" x="459.5" y="-590.3" font-family="Times,serif" font-size="14.00">Assign</text>
</g>
<!-- ast.FunctionDef object at 0x7f1714197310&#45;&gt;ast.Assign object at 0x7f1714195ab0 -->
<g id="edge13" class="edge">
<title>ast.FunctionDef object at 0x7f1714197310&#45;&gt;ast.Assign object at 0x7f1714195ab0</title>
<path fill="none" stroke="black" d="M459.5,-647.7C459.5,-639.98 459.5,-630.71 459.5,-622.11"/>
<polygon fill="black" stroke="black" points="463,-622.1 459.5,-612.1 456,-622.1 463,-622.1"/>
</g>
<!-- ast.For object at 0x7f1714194460 -->
<g id="node18" class="node">
<title>ast.For object at 0x7f1714194460</title>
<path fill="#66cdaa" stroke="black" d="M589.5,-612C589.5,-612 559.5,-612 559.5,-612 553.5,-612 547.5,-606 547.5,-600 547.5,-600 547.5,-588 547.5,-588 547.5,-582 553.5,-576 559.5,-576 559.5,-576 589.5,-576 589.5,-576 595.5,-576 601.5,-582 601.5,-588 601.5,-588 601.5,-600 601.5,-600 601.5,-606 595.5,-612 589.5,-612"/>
<text text-anchor="middle" x="574.5" y="-590.3" font-family="Times,serif" font-size="14.00">For</text>
</g>
<!-- ast.FunctionDef object at 0x7f1714197310&#45;&gt;ast.For object at 0x7f1714194460 -->
<g id="edge20" class="edge">
<title>ast.FunctionDef object at 0x7f1714197310&#45;&gt;ast.For object at 0x7f1714194460</title>
<path fill="none" stroke="black" d="M487.63,-647.88C503.01,-638.52 522.21,-626.83 538.64,-616.83"/>
<polygon fill="black" stroke="black" points="540.73,-619.65 547.45,-611.47 537.09,-613.67 540.73,-619.65"/>
</g>
<!-- ast.Return object at 0x7f17365146a0 -->
<g id="node47" class="node">
<title>ast.Return object at 0x7f17365146a0</title>
<path fill="#66cdaa" stroke="black" d="M1009.5,-396C1009.5,-396 979.5,-396 979.5,-396 973.5,-396 967.5,-390 967.5,-384 967.5,-384 967.5,-372 967.5,-372 967.5,-366 973.5,-360 979.5,-360 979.5,-360 1009.5,-360 1009.5,-360 1015.5,-360 1021.5,-366 1021.5,-372 1021.5,-372 1021.5,-384 1021.5,-384 1021.5,-390 1015.5,-396 1009.5,-396"/>
<text text-anchor="middle" x="994.5" y="-374.3" font-family="Times,serif" font-size="14.00">Return</text>
</g>
<!-- ast.FunctionDef object at 0x7f1714197310&#45;&gt;ast.Return object at 0x7f17365146a0 -->
<g id="edge60" class="edge">
<title>ast.FunctionDef object at 0x7f1714197310&#45;&gt;ast.Return object at 0x7f17365146a0</title>
<path fill="none" stroke="black" d="M502.08,-651.79C532.66,-641.88 574.64,-627.43 610.5,-612 750.06,-551.96 899.62,-448.35 963.11,-402.26"/>
<polygon fill="black" stroke="black" points="965.48,-404.87 971.49,-396.15 961.35,-399.22 965.48,-404.87"/>
</g>
<!-- ast.arg object at 0x7f17141960b0 -->
<g id="node4" class="node">
<title>ast.arg object at 0x7f17141960b0</title>
<path fill="#66cdaa" stroke="black" d="M159.5,-540C159.5,-540 129.5,-540 129.5,-540 123.5,-540 117.5,-534 117.5,-528 117.5,-528 117.5,-516 117.5,-516 117.5,-510 123.5,-504 129.5,-504 129.5,-504 159.5,-504 159.5,-504 165.5,-504 171.5,-510 171.5,-516 171.5,-516 171.5,-528 171.5,-528 171.5,-534 165.5,-540 159.5,-540"/>
<text text-anchor="middle" x="144.5" y="-518.3" font-family="Times,serif" font-size="14.00">arg</text>
</g>
<!-- ast.arguments object at 0x7f1714196260&#45;&gt;ast.arg object at 0x7f17141960b0 -->
<g id="edge3" class="edge">
<title>ast.arguments object at 0x7f1714196260&#45;&gt;ast.arg object at 0x7f17141960b0</title>
<path fill="none" stroke="black" d="M205.48,-575.7C195.37,-566.97 182.96,-556.24 171.98,-546.75"/>
<polygon fill="black" stroke="black" points="174.15,-543.99 164.29,-540.1 169.57,-549.29 174.15,-543.99"/>
</g>
<!-- ast.Name object at 0x7f1714195f60 -->
<g id="node6" class="node">
<title>ast.Name object at 0x7f1714195f60</title>
<path fill="#66cdaa" stroke="black" d="M402.5,-540C402.5,-540 372.5,-540 372.5,-540 366.5,-540 360.5,-534 360.5,-528 360.5,-528 360.5,-516 360.5,-516 360.5,-510 366.5,-504 372.5,-504 372.5,-504 402.5,-504 402.5,-504 408.5,-504 414.5,-510 414.5,-516 414.5,-516 414.5,-528 414.5,-528 414.5,-534 408.5,-540 402.5,-540"/>
<text text-anchor="middle" x="387.5" y="-518.3" font-family="Times,serif" font-size="14.00">Name</text>
</g>
<!-- ast.Assign object at 0x7f1714197910&#45;&gt;ast.Name object at 0x7f1714195f60 -->
<g id="edge5" class="edge">
<title>ast.Assign object at 0x7f1714197910&#45;&gt;ast.Name object at 0x7f1714195f60</title>
<path fill="none" stroke="black" d="M387.5,-575.7C387.5,-567.98 387.5,-558.71 387.5,-550.11"/>
<polygon fill="black" stroke="black" points="391,-550.1 387.5,-540.1 384,-550.1 391,-550.1"/>
</g>
<!-- ast.Call object at 0x7f1714197130 -->
<g id="node8" class="node">
<title>ast.Call object at 0x7f1714197130</title>
<path fill="#66cdaa" stroke="black" d="M161.5,-180C161.5,-180 131.5,-180 131.5,-180 125.5,-180 119.5,-174 119.5,-168 119.5,-168 119.5,-156 119.5,-156 119.5,-150 125.5,-144 131.5,-144 131.5,-144 161.5,-144 161.5,-144 167.5,-144 173.5,-150 173.5,-156 173.5,-156 173.5,-168 173.5,-168 173.5,-174 167.5,-180 161.5,-180"/>
<text text-anchor="middle" x="146.5" y="-158.3" font-family="Times,serif" font-size="14.00">Call</text>
</g>
<!-- ast.Assign object at 0x7f1714197910&#45;&gt;ast.Call object at 0x7f1714197130 -->
<g id="edge7" class="edge">
<title>ast.Assign object at 0x7f1714197910&#45;&gt;ast.Call object at 0x7f1714197130</title>
<path fill="none" stroke="black" d="M360.16,-586.13C308.02,-571.19 199.5,-530.56 199.5,-451 199.5,-451 199.5,-451 199.5,-305 199.5,-262.21 178.11,-216.48 162.51,-188.82"/>
<polygon fill="black" stroke="black" points="165.53,-187.05 157.48,-180.16 159.48,-190.56 165.53,-187.05"/>
</g>
<!-- ast.Store object at 0x7f174b8f1fc0 -->
<g id="node7" class="node">
<title>ast.Store object at 0x7f174b8f1fc0</title>
<path fill="#66cdaa" stroke="black" d="M474.5,-468C474.5,-468 444.5,-468 444.5,-468 438.5,-468 432.5,-462 432.5,-456 432.5,-456 432.5,-444 432.5,-444 432.5,-438 438.5,-432 444.5,-432 444.5,-432 474.5,-432 474.5,-432 480.5,-432 486.5,-438 486.5,-444 486.5,-444 486.5,-456 486.5,-456 486.5,-462 480.5,-468 474.5,-468"/>
<text text-anchor="middle" x="459.5" y="-446.3" font-family="Times,serif" font-size="14.00">Store</text>
</g>
<!-- ast.Name object at 0x7f1714195f60&#45;&gt;ast.Store object at 0x7f174b8f1fc0 -->
<g id="edge6" class="edge">
<title>ast.Name object at 0x7f1714195f60&#45;&gt;ast.Store object at 0x7f174b8f1fc0</title>
<path fill="none" stroke="black" d="M405.3,-503.7C414.1,-495.14 424.88,-484.66 434.5,-475.3"/>
<polygon fill="black" stroke="black" points="437.18,-477.58 441.91,-468.1 432.3,-472.57 437.18,-477.58"/>
</g>
<!-- ast.Name object at 0x7f17141959f0 -->
<g id="node9" class="node">
<title>ast.Name object at 0x7f17141959f0</title>
<path fill="#66cdaa" stroke="black" d="M125.5,-108C125.5,-108 95.5,-108 95.5,-108 89.5,-108 83.5,-102 83.5,-96 83.5,-96 83.5,-84 83.5,-84 83.5,-78 89.5,-72 95.5,-72 95.5,-72 125.5,-72 125.5,-72 131.5,-72 137.5,-78 137.5,-84 137.5,-84 137.5,-96 137.5,-96 137.5,-102 131.5,-108 125.5,-108"/>
<text text-anchor="middle" x="110.5" y="-86.3" font-family="Times,serif" font-size="14.00">Name</text>
</g>
<!-- ast.Call object at 0x7f1714197130&#45;&gt;ast.Name object at 0x7f17141959f0 -->
<g id="edge8" class="edge">
<title>ast.Call object at 0x7f1714197130&#45;&gt;ast.Name object at 0x7f17141959f0</title>
<path fill="none" stroke="black" d="M137.6,-143.7C133.5,-135.73 128.55,-126.1 124.01,-117.26"/>
<polygon fill="black" stroke="black" points="126.98,-115.4 119.3,-108.1 120.76,-118.6 126.98,-115.4"/>
</g>
<!-- ast.Name object at 0x7f1714195fc0 -->
<g id="node11" class="node">
<title>ast.Name object at 0x7f1714195fc0</title>
<path fill="#66cdaa" stroke="black" d="M197.5,-108C197.5,-108 167.5,-108 167.5,-108 161.5,-108 155.5,-102 155.5,-96 155.5,-96 155.5,-84 155.5,-84 155.5,-78 161.5,-72 167.5,-72 167.5,-72 197.5,-72 197.5,-72 203.5,-72 209.5,-78 209.5,-84 209.5,-84 209.5,-96 209.5,-96 209.5,-102 203.5,-108 197.5,-108"/>
<text text-anchor="middle" x="182.5" y="-86.3" font-family="Times,serif" font-size="14.00">Name</text>
</g>
<!-- ast.Call object at 0x7f1714197130&#45;&gt;ast.Name object at 0x7f1714195fc0 -->
<g id="edge10" class="edge">
<title>ast.Call object at 0x7f1714197130&#45;&gt;ast.Name object at 0x7f1714195fc0</title>
<path fill="none" stroke="black" d="M155.4,-143.7C159.5,-135.73 164.45,-126.1 168.99,-117.26"/>
<polygon fill="black" stroke="black" points="172.24,-118.6 173.7,-108.1 166.02,-115.4 172.24,-118.6"/>
</g>
<!-- ast.Constant object at 0x7f1714194400 -->
<g id="node12" class="node">
<title>ast.Constant object at 0x7f1714194400</title>
<path fill="#66cdaa" stroke="black" d="M53,-108C53,-108 12,-108 12,-108 6,-108 0,-102 0,-96 0,-96 0,-84 0,-84 0,-78 6,-72 12,-72 12,-72 53,-72 53,-72 59,-72 65,-78 65,-84 65,-84 65,-96 65,-96 65,-102 59,-108 53,-108"/>
<text text-anchor="middle" x="32.5" y="-86.3" font-family="Times,serif" font-size="14.00">Constant</text>
</g>
<!-- ast.Call object at 0x7f1714197130&#45;&gt;ast.Constant object at 0x7f1714194400 -->
<g id="edge12" class="edge">
<title>ast.Call object at 0x7f1714197130&#45;&gt;ast.Constant object at 0x7f1714194400</title>
<path fill="none" stroke="black" d="M119.48,-144.41C104.48,-135.2 85.61,-123.61 69.28,-113.59"/>
<polygon fill="black" stroke="black" points="70.87,-110.45 60.51,-108.2 67.2,-116.42 70.87,-110.45"/>
</g>
<!-- ast.Load object at 0x7f174b8f1f60 -->
<g id="node10" class="node">
<title>ast.Load object at 0x7f174b8f1f60</title>
<path fill="#66cdaa" stroke="black" d="M577.5,-36C577.5,-36 547.5,-36 547.5,-36 541.5,-36 535.5,-30 535.5,-24 535.5,-24 535.5,-12 535.5,-12 535.5,-6 541.5,0 547.5,0 547.5,0 577.5,0 577.5,0 583.5,0 589.5,-6 589.5,-12 589.5,-12 589.5,-24 589.5,-24 589.5,-30 583.5,-36 577.5,-36"/>
<text text-anchor="middle" x="562.5" y="-14.3" font-family="Times,serif" font-size="14.00">Load</text>
</g>
<!-- ast.Name object at 0x7f17141959f0&#45;&gt;ast.Load object at 0x7f174b8f1f60 -->
<g id="edge9" class="edge">
<title>ast.Name object at 0x7f17141959f0&#45;&gt;ast.Load object at 0x7f174b8f1f60</title>
<path fill="none" stroke="black" d="M137.67,-75.09C140.6,-73.91 143.58,-72.85 146.5,-72 282.06,-32.44 451.01,-22.4 524.93,-19.86"/>
<polygon fill="black" stroke="black" points="525.25,-23.35 535.13,-19.54 525.03,-16.35 525.25,-23.35"/>
</g>
<!-- ast.Name object at 0x7f1714195fc0&#45;&gt;ast.Load object at 0x7f174b8f1f60 -->
<g id="edge11" class="edge">
<title>ast.Name object at 0x7f1714195fc0&#45;&gt;ast.Load object at 0x7f174b8f1f60</title>
<path fill="none" stroke="black" d="M209.53,-76.74C214.12,-74.96 218.9,-73.29 223.5,-72 330.56,-41.9 461.77,-27.51 524.96,-21.93"/>
<polygon fill="black" stroke="black" points="525.56,-25.39 535.23,-21.05 524.96,-18.42 525.56,-25.39"/>
</g>
<!-- ast.Name object at 0x7f1714197610 -->
<g id="node14" class="node">
<title>ast.Name object at 0x7f1714197610</title>
<path fill="#66cdaa" stroke="black" d="M474.5,-540C474.5,-540 444.5,-540 444.5,-540 438.5,-540 432.5,-534 432.5,-528 432.5,-528 432.5,-516 432.5,-516 432.5,-510 438.5,-504 444.5,-504 444.5,-504 474.5,-504 474.5,-504 480.5,-504 486.5,-510 486.5,-516 486.5,-516 486.5,-528 486.5,-528 486.5,-534 480.5,-540 474.5,-540"/>
<text text-anchor="middle" x="459.5" y="-518.3" font-family="Times,serif" font-size="14.00">Name</text>
</g>
<!-- ast.Assign object at 0x7f1714195ab0&#45;&gt;ast.Name object at 0x7f1714197610 -->
<g id="edge14" class="edge">
<title>ast.Assign object at 0x7f1714195ab0&#45;&gt;ast.Name object at 0x7f1714197610</title>
<path fill="none" stroke="black" d="M459.5,-575.7C459.5,-567.98 459.5,-558.71 459.5,-550.11"/>
<polygon fill="black" stroke="black" points="463,-550.1 459.5,-540.1 456,-550.1 463,-550.1"/>
</g>
<!-- ast.List object at 0x7f1714195e40 -->
<g id="node15" class="node">
<title>ast.List object at 0x7f1714195e40</title>
<path fill="#66cdaa" stroke="black" d="M321.5,-540C321.5,-540 291.5,-540 291.5,-540 285.5,-540 279.5,-534 279.5,-528 279.5,-528 279.5,-516 279.5,-516 279.5,-510 285.5,-504 291.5,-504 291.5,-504 321.5,-504 321.5,-504 327.5,-504 333.5,-510 333.5,-516 333.5,-516 333.5,-528 333.5,-528 333.5,-534 327.5,-540 321.5,-540"/>
<text text-anchor="middle" x="306.5" y="-518.3" font-family="Times,serif" font-size="14.00">List</text>
</g>
<!-- ast.Assign object at 0x7f1714195ab0&#45;&gt;ast.List object at 0x7f1714195e40 -->
<g id="edge16" class="edge">
<title>ast.Assign object at 0x7f1714195ab0&#45;&gt;ast.List object at 0x7f1714195e40</title>
<path fill="none" stroke="black" d="M432.39,-580.14C429.4,-578.74 426.39,-577.33 423.5,-576 396.58,-563.55 366.05,-549.73 342.93,-539.32"/>
<polygon fill="black" stroke="black" points="344.06,-536 333.51,-535.09 341.19,-542.38 344.06,-536"/>
</g>
<!-- ast.Name object at 0x7f1714197610&#45;&gt;ast.Store object at 0x7f174b8f1fc0 -->
<g id="edge15" class="edge">
<title>ast.Name object at 0x7f1714197610&#45;&gt;ast.Store object at 0x7f174b8f1fc0</title>
<path fill="none" stroke="black" d="M459.5,-503.7C459.5,-495.98 459.5,-486.71 459.5,-478.11"/>
<polygon fill="black" stroke="black" points="463,-478.1 459.5,-468.1 456,-478.1 463,-478.1"/>
</g>
<!-- ast.List object at 0x7f1714195e40&#45;&gt;ast.Load object at 0x7f174b8f1f60 -->
<g id="edge19" class="edge">
<title>ast.List object at 0x7f1714195e40&#45;&gt;ast.Load object at 0x7f174b8f1f60</title>
<path fill="none" stroke="black" d="M285.64,-503.87C275.36,-494.34 263.67,-481.67 256.5,-468 237.7,-432.19 237.5,-419.45 237.5,-379 237.5,-379 237.5,-379 237.5,-161 237.5,-116.47 247.81,-98.62 283.5,-72 321.3,-43.81 458.36,-28.16 525.26,-22.05"/>
<polygon fill="black" stroke="black" points="525.71,-25.52 535.36,-21.15 525.09,-18.55 525.71,-25.52"/>
</g>
<!-- ast.Constant object at 0x7f17141948e0 -->
<g id="node16" class="node">
<title>ast.Constant object at 0x7f17141948e0</title>
<path fill="#66cdaa" stroke="black" d="M319,-468C319,-468 278,-468 278,-468 272,-468 266,-462 266,-456 266,-456 266,-444 266,-444 266,-438 272,-432 278,-432 278,-432 319,-432 319,-432 325,-432 331,-438 331,-444 331,-444 331,-456 331,-456 331,-462 325,-468 319,-468"/>
<text text-anchor="middle" x="298.5" y="-446.3" font-family="Times,serif" font-size="14.00">Constant</text>
</g>
<!-- ast.List object at 0x7f1714195e40&#45;&gt;ast.Constant object at 0x7f17141948e0 -->
<g id="edge17" class="edge">
<title>ast.List object at 0x7f1714195e40&#45;&gt;ast.Constant object at 0x7f17141948e0</title>
<path fill="none" stroke="black" d="M304.52,-503.7C303.64,-495.98 302.58,-486.71 301.6,-478.11"/>
<polygon fill="black" stroke="black" points="305.07,-477.64 300.45,-468.1 298.11,-478.44 305.07,-477.64"/>
</g>
<!-- ast.Constant object at 0x7f1714196620 -->
<g id="node17" class="node">
<title>ast.Constant object at 0x7f1714196620</title>
<path fill="#66cdaa" stroke="black" d="M402,-468C402,-468 361,-468 361,-468 355,-468 349,-462 349,-456 349,-456 349,-444 349,-444 349,-438 355,-432 361,-432 361,-432 402,-432 402,-432 408,-432 414,-438 414,-444 414,-444 414,-456 414,-456 414,-462 408,-468 402,-468"/>
<text text-anchor="middle" x="381.5" y="-446.3" font-family="Times,serif" font-size="14.00">Constant</text>
</g>
<!-- ast.List object at 0x7f1714195e40&#45;&gt;ast.Constant object at 0x7f1714196620 -->
<g id="edge18" class="edge">
<title>ast.List object at 0x7f1714195e40&#45;&gt;ast.Constant object at 0x7f1714196620</title>
<path fill="none" stroke="black" d="M325.04,-503.7C334.3,-495.05 345.66,-484.45 355.76,-475.03"/>
<polygon fill="black" stroke="black" points="358.25,-477.49 363.17,-468.1 353.48,-472.37 358.25,-477.49"/>
</g>
<!-- ast.Name object at 0x7f17141940a0 -->
<g id="node19" class="node">
<title>ast.Name object at 0x7f17141940a0</title>
<path fill="#66cdaa" stroke="black" d="M551.5,-540C551.5,-540 521.5,-540 521.5,-540 515.5,-540 509.5,-534 509.5,-528 509.5,-528 509.5,-516 509.5,-516 509.5,-510 515.5,-504 521.5,-504 521.5,-504 551.5,-504 551.5,-504 557.5,-504 563.5,-510 563.5,-516 563.5,-516 563.5,-528 563.5,-528 563.5,-534 557.5,-540 551.5,-540"/>
<text text-anchor="middle" x="536.5" y="-518.3" font-family="Times,serif" font-size="14.00">Name</text>
</g>
<!-- ast.For object at 0x7f1714194460&#45;&gt;ast.Name object at 0x7f17141940a0 -->
<g id="edge21" class="edge">
<title>ast.For object at 0x7f1714194460&#45;&gt;ast.Name object at 0x7f17141940a0</title>
<path fill="none" stroke="black" d="M565.11,-575.7C560.74,-567.64 555.44,-557.89 550.6,-548.98"/>
<polygon fill="black" stroke="black" points="553.63,-547.22 545.79,-540.1 547.48,-550.56 553.63,-547.22"/>
</g>
<!-- ast.Call object at 0x7f1714195240 -->
<g id="node20" class="node">
<title>ast.Call object at 0x7f1714195240</title>
<path fill="#66cdaa" stroke="black" d="M627.5,-540C627.5,-540 597.5,-540 597.5,-540 591.5,-540 585.5,-534 585.5,-528 585.5,-528 585.5,-516 585.5,-516 585.5,-510 591.5,-504 597.5,-504 597.5,-504 627.5,-504 627.5,-504 633.5,-504 639.5,-510 639.5,-516 639.5,-516 639.5,-528 639.5,-528 639.5,-534 633.5,-540 627.5,-540"/>
<text text-anchor="middle" x="612.5" y="-518.3" font-family="Times,serif" font-size="14.00">Call</text>
</g>
<!-- ast.For object at 0x7f1714194460&#45;&gt;ast.Call object at 0x7f1714195240 -->
<g id="edge23" class="edge">
<title>ast.For object at 0x7f1714194460&#45;&gt;ast.Call object at 0x7f1714195240</title>
<path fill="none" stroke="black" d="M583.89,-575.7C588.26,-567.64 593.56,-557.89 598.4,-548.98"/>
<polygon fill="black" stroke="black" points="601.52,-550.56 603.21,-540.1 595.37,-547.22 601.52,-550.56"/>
</g>
<!-- ast.Expr object at 0x7f1714196ec0 -->
<g id="node24" class="node">
<title>ast.Expr object at 0x7f1714196ec0</title>
<path fill="#66cdaa" stroke="black" d="M729.5,-540C729.5,-540 699.5,-540 699.5,-540 693.5,-540 687.5,-534 687.5,-528 687.5,-528 687.5,-516 687.5,-516 687.5,-510 693.5,-504 699.5,-504 699.5,-504 729.5,-504 729.5,-504 735.5,-504 741.5,-510 741.5,-516 741.5,-516 741.5,-528 741.5,-528 741.5,-534 735.5,-540 729.5,-540"/>
<text text-anchor="middle" x="714.5" y="-518.3" font-family="Times,serif" font-size="14.00">Expr</text>
</g>
<!-- ast.For object at 0x7f1714194460&#45;&gt;ast.Expr object at 0x7f1714196ec0 -->
<g id="edge28" class="edge">
<title>ast.For object at 0x7f1714194460&#45;&gt;ast.Expr object at 0x7f1714196ec0</title>
<path fill="none" stroke="black" d="M601.83,-579.34C623.6,-568.45 654.29,-553.1 678.14,-541.18"/>
<polygon fill="black" stroke="black" points="679.86,-544.23 687.24,-536.63 676.73,-537.97 679.86,-544.23"/>
</g>
<!-- ast.Name object at 0x7f17141940a0&#45;&gt;ast.Store object at 0x7f174b8f1fc0 -->
<g id="edge22" class="edge">
<title>ast.Name object at 0x7f17141940a0&#45;&gt;ast.Store object at 0x7f174b8f1fc0</title>
<path fill="none" stroke="black" d="M517.47,-503.7C507.96,-495.05 496.29,-484.45 485.93,-475.03"/>
<polygon fill="black" stroke="black" points="488.07,-472.24 478.31,-468.1 483.36,-477.42 488.07,-472.24"/>
</g>
<!-- ast.Name object at 0x7f17141958d0 -->
<g id="node21" class="node">
<title>ast.Name object at 0x7f17141958d0</title>
<path fill="#66cdaa" stroke="black" d="M323.5,-396C323.5,-396 293.5,-396 293.5,-396 287.5,-396 281.5,-390 281.5,-384 281.5,-384 281.5,-372 281.5,-372 281.5,-366 287.5,-360 293.5,-360 293.5,-360 323.5,-360 323.5,-360 329.5,-360 335.5,-366 335.5,-372 335.5,-372 335.5,-384 335.5,-384 335.5,-390 329.5,-396 323.5,-396"/>
<text text-anchor="middle" x="308.5" y="-374.3" font-family="Times,serif" font-size="14.00">Name</text>
</g>
<!-- ast.Call object at 0x7f1714195240&#45;&gt;ast.Name object at 0x7f17141958d0 -->
<g id="edge24" class="edge">
<title>ast.Call object at 0x7f1714195240&#45;&gt;ast.Name object at 0x7f17141958d0</title>
<path fill="none" stroke="black" d="M633.58,-503.89C654.49,-484.88 680.83,-453.99 661.5,-432 620.22,-385.05 444.04,-407.01 382.5,-396 370.46,-393.84 357.42,-391.02 345.69,-388.29"/>
<polygon fill="black" stroke="black" points="346.32,-384.84 335.78,-385.94 344.7,-391.65 346.32,-384.84"/>
</g>
<!-- ast.Constant object at 0x7f1714195090 -->
<g id="node22" class="node">
<title>ast.Constant object at 0x7f1714195090</title>
<path fill="#66cdaa" stroke="black" d="M558,-468C558,-468 517,-468 517,-468 511,-468 505,-462 505,-456 505,-456 505,-444 505,-444 505,-438 511,-432 517,-432 517,-432 558,-432 558,-432 564,-432 570,-438 570,-444 570,-444 570,-456 570,-456 570,-462 564,-468 558,-468"/>
<text text-anchor="middle" x="537.5" y="-446.3" font-family="Times,serif" font-size="14.00">Constant</text>
</g>
<!-- ast.Call object at 0x7f1714195240&#45;&gt;ast.Constant object at 0x7f1714195090 -->
<g id="edge26" class="edge">
<title>ast.Call object at 0x7f1714195240&#45;&gt;ast.Constant object at 0x7f1714195090</title>
<path fill="none" stroke="black" d="M593.96,-503.7C584.7,-495.05 573.34,-484.45 563.24,-475.03"/>
<polygon fill="black" stroke="black" points="565.52,-472.37 555.83,-468.1 560.75,-477.49 565.52,-472.37"/>
</g>
<!-- ast.Constant object at 0x7f17141958a0 -->
<g id="node23" class="node">
<title>ast.Constant object at 0x7f17141958a0</title>
<path fill="#66cdaa" stroke="black" d="M641,-468C641,-468 600,-468 600,-468 594,-468 588,-462 588,-456 588,-456 588,-444 588,-444 588,-438 594,-432 600,-432 600,-432 641,-432 641,-432 647,-432 653,-438 653,-444 653,-444 653,-456 653,-456 653,-462 647,-468 641,-468"/>
<text text-anchor="middle" x="620.5" y="-446.3" font-family="Times,serif" font-size="14.00">Constant</text>
</g>
<!-- ast.Call object at 0x7f1714195240&#45;&gt;ast.Constant object at 0x7f17141958a0 -->
<g id="edge27" class="edge">
<title>ast.Call object at 0x7f1714195240&#45;&gt;ast.Constant object at 0x7f17141958a0</title>
<path fill="none" stroke="black" d="M614.48,-503.7C615.36,-495.98 616.42,-486.71 617.4,-478.11"/>
<polygon fill="black" stroke="black" points="620.89,-478.44 618.55,-468.1 613.93,-477.64 620.89,-478.44"/>
</g>
<!-- ast.Name object at 0x7f17141958d0&#45;&gt;ast.Load object at 0x7f174b8f1f60 -->
<g id="edge25" class="edge">
<title>ast.Name object at 0x7f17141958d0&#45;&gt;ast.Load object at 0x7f174b8f1f60</title>
<path fill="none" stroke="black" d="M301.82,-359.81C292.18,-333.4 275.5,-281.06 275.5,-235 275.5,-235 275.5,-235 275.5,-161 275.5,-116.27 286.92,-99.11 322.5,-72 354.04,-47.97 466.26,-30.9 525.41,-23.35"/>
<polygon fill="black" stroke="black" points="525.97,-26.8 535.46,-22.09 525.1,-19.86 525.97,-26.8"/>
</g>
<!-- ast.Call object at 0x7f1714195120 -->
<g id="node25" class="node">
<title>ast.Call object at 0x7f1714195120</title>
<path fill="#66cdaa" stroke="black" d="M751.5,-468C751.5,-468 721.5,-468 721.5,-468 715.5,-468 709.5,-462 709.5,-456 709.5,-456 709.5,-444 709.5,-444 709.5,-438 715.5,-432 721.5,-432 721.5,-432 751.5,-432 751.5,-432 757.5,-432 763.5,-438 763.5,-444 763.5,-444 763.5,-456 763.5,-456 763.5,-462 757.5,-468 751.5,-468"/>
<text text-anchor="middle" x="736.5" y="-446.3" font-family="Times,serif" font-size="14.00">Call</text>
</g>
<!-- ast.Expr object at 0x7f1714196ec0&#45;&gt;ast.Call object at 0x7f1714195120 -->
<g id="edge29" class="edge">
<title>ast.Expr object at 0x7f1714196ec0&#45;&gt;ast.Call object at 0x7f1714195120</title>
<path fill="none" stroke="black" d="M719.94,-503.7C722.39,-495.9 725.34,-486.51 728.07,-477.83"/>
<polygon fill="black" stroke="black" points="731.46,-478.69 731.12,-468.1 724.79,-476.59 731.46,-478.69"/>
</g>
<!-- ast.Attribute object at 0x7f1714195510 -->
<g id="node26" class="node">
<title>ast.Attribute object at 0x7f1714195510</title>
<path fill="#66cdaa" stroke="black" d="M389,-180C389,-180 348,-180 348,-180 342,-180 336,-174 336,-168 336,-168 336,-156 336,-156 336,-150 342,-144 348,-144 348,-144 389,-144 389,-144 395,-144 401,-150 401,-156 401,-156 401,-168 401,-168 401,-174 395,-180 389,-180"/>
<text text-anchor="middle" x="368.5" y="-158.3" font-family="Times,serif" font-size="14.00">Attribute</text>
</g>
<!-- ast.Call object at 0x7f1714195120&#45;&gt;ast.Attribute object at 0x7f1714195510 -->
<g id="edge30" class="edge">
<title>ast.Call object at 0x7f1714195120&#45;&gt;ast.Attribute object at 0x7f1714195510</title>
<path fill="none" stroke="black" d="M710.19,-431.97C660.16,-399.2 548.51,-324.18 461.5,-252 436.82,-231.52 410.59,-206.04 392.3,-187.59"/>
<polygon fill="black" stroke="black" points="394.48,-184.82 384.97,-180.15 389.49,-189.74 394.48,-184.82"/>
</g>
<!-- ast.BinOp object at 0x7f17141974c0 -->
<g id="node28" class="node">
<title>ast.BinOp object at 0x7f17141974c0</title>
<path fill="#66cdaa" stroke="black" d="M801.5,-396C801.5,-396 771.5,-396 771.5,-396 765.5,-396 759.5,-390 759.5,-384 759.5,-384 759.5,-372 759.5,-372 759.5,-366 765.5,-360 771.5,-360 771.5,-360 801.5,-360 801.5,-360 807.5,-360 813.5,-366 813.5,-372 813.5,-372 813.5,-384 813.5,-384 813.5,-390 807.5,-396 801.5,-396"/>
<text text-anchor="middle" x="786.5" y="-374.3" font-family="Times,serif" font-size="14.00">BinOp</text>
</g>
<!-- ast.Call object at 0x7f1714195120&#45;&gt;ast.BinOp object at 0x7f17141974c0 -->
<g id="edge34" class="edge">
<title>ast.Call object at 0x7f1714195120&#45;&gt;ast.BinOp object at 0x7f17141974c0</title>
<path fill="none" stroke="black" d="M748.86,-431.7C754.73,-423.47 761.87,-413.48 768.34,-404.42"/>
<polygon fill="black" stroke="black" points="771.32,-406.28 774.28,-396.1 765.62,-402.21 771.32,-406.28"/>
</g>
<!-- ast.Attribute object at 0x7f1714195510&#45;&gt;ast.Load object at 0x7f174b8f1f60 -->
<g id="edge33" class="edge">
<title>ast.Attribute object at 0x7f1714195510&#45;&gt;ast.Load object at 0x7f174b8f1f60</title>
<path fill="none" stroke="black" d="M351.89,-143.76C335.52,-124.64 315.27,-93.65 332.5,-72 356.21,-42.21 466.7,-27.74 525.49,-22.05"/>
<polygon fill="black" stroke="black" points="525.85,-25.53 535.49,-21.12 525.2,-18.56 525.85,-25.53"/>
</g>
<!-- ast.Name object at 0x7f1714195180 -->
<g id="node27" class="node">
<title>ast.Name object at 0x7f1714195180</title>
<path fill="#66cdaa" stroke="black" d="M383.5,-108C383.5,-108 353.5,-108 353.5,-108 347.5,-108 341.5,-102 341.5,-96 341.5,-96 341.5,-84 341.5,-84 341.5,-78 347.5,-72 353.5,-72 353.5,-72 383.5,-72 383.5,-72 389.5,-72 395.5,-78 395.5,-84 395.5,-84 395.5,-96 395.5,-96 395.5,-102 389.5,-108 383.5,-108"/>
<text text-anchor="middle" x="368.5" y="-86.3" font-family="Times,serif" font-size="14.00">Name</text>
</g>
<!-- ast.Attribute object at 0x7f1714195510&#45;&gt;ast.Name object at 0x7f1714195180 -->
<g id="edge31" class="edge">
<title>ast.Attribute object at 0x7f1714195510&#45;&gt;ast.Name object at 0x7f1714195180</title>
<path fill="none" stroke="black" d="M368.5,-143.7C368.5,-135.98 368.5,-126.71 368.5,-118.11"/>
<polygon fill="black" stroke="black" points="372,-118.1 368.5,-108.1 365,-118.1 372,-118.1"/>
</g>
<!-- ast.Name object at 0x7f1714195180&#45;&gt;ast.Load object at 0x7f174b8f1f60 -->
<g id="edge32" class="edge">
<title>ast.Name object at 0x7f1714195180&#45;&gt;ast.Load object at 0x7f174b8f1f60</title>
<path fill="none" stroke="black" d="M395.76,-77.43C400.33,-75.57 405.03,-73.7 409.5,-72 448.86,-57.04 494.54,-41.44 525.67,-31.07"/>
<polygon fill="black" stroke="black" points="526.85,-34.37 535.24,-27.9 524.65,-27.72 526.85,-34.37"/>
</g>
<!-- ast.BinOp object at 0x7f1714195300 -->
<g id="node29" class="node">
<title>ast.BinOp object at 0x7f1714195300</title>
<path fill="#66cdaa" stroke="black" d="M634.5,-324C634.5,-324 604.5,-324 604.5,-324 598.5,-324 592.5,-318 592.5,-312 592.5,-312 592.5,-300 592.5,-300 592.5,-294 598.5,-288 604.5,-288 604.5,-288 634.5,-288 634.5,-288 640.5,-288 646.5,-294 646.5,-300 646.5,-300 646.5,-312 646.5,-312 646.5,-318 640.5,-324 634.5,-324"/>
<text text-anchor="middle" x="619.5" y="-302.3" font-family="Times,serif" font-size="14.00">BinOp</text>
</g>
<!-- ast.BinOp object at 0x7f17141974c0&#45;&gt;ast.BinOp object at 0x7f1714195300 -->
<g id="edge35" class="edge">
<title>ast.BinOp object at 0x7f17141974c0&#45;&gt;ast.BinOp object at 0x7f1714195300</title>
<path fill="none" stroke="black" d="M759.3,-365.6C731.27,-353.85 687.42,-335.47 656.31,-322.43"/>
<polygon fill="black" stroke="black" points="657.27,-319.04 646.69,-318.4 654.56,-325.49 657.27,-319.04"/>
</g>
<!-- ast.Mod object at 0x7f174b8f2380 -->
<g id="node42" class="node">
<title>ast.Mod object at 0x7f174b8f2380</title>
<path fill="#66cdaa" stroke="black" d="M994.5,-180C994.5,-180 964.5,-180 964.5,-180 958.5,-180 952.5,-174 952.5,-168 952.5,-168 952.5,-156 952.5,-156 952.5,-150 958.5,-144 964.5,-144 964.5,-144 994.5,-144 994.5,-144 1000.5,-144 1006.5,-150 1006.5,-156 1006.5,-156 1006.5,-168 1006.5,-168 1006.5,-174 1000.5,-180 994.5,-180"/>
<text text-anchor="middle" x="979.5" y="-158.3" font-family="Times,serif" font-size="14.00">Mod</text>
</g>
<!-- ast.BinOp object at 0x7f17141974c0&#45;&gt;ast.Mod object at 0x7f174b8f2380 -->
<g id="edge55" class="edge">
<title>ast.BinOp object at 0x7f17141974c0&#45;&gt;ast.Mod object at 0x7f174b8f2380</title>
<path fill="none" stroke="black" d="M813.59,-361.79C848.28,-341.06 908.25,-300.89 944.5,-252 958.35,-233.32 967.52,-208.44 972.99,-189.73"/>
<polygon fill="black" stroke="black" points="976.37,-190.63 975.65,-180.06 969.62,-188.77 976.37,-190.63"/>
</g>
<!-- ast.BinOp object at 0x7f1736514190 -->
<g id="node43" class="node">
<title>ast.BinOp object at 0x7f1736514190</title>
<path fill="#66cdaa" stroke="black" d="M818.5,-324C818.5,-324 788.5,-324 788.5,-324 782.5,-324 776.5,-318 776.5,-312 776.5,-312 776.5,-300 776.5,-300 776.5,-294 782.5,-288 788.5,-288 788.5,-288 818.5,-288 818.5,-288 824.5,-288 830.5,-294 830.5,-300 830.5,-300 830.5,-312 830.5,-312 830.5,-318 824.5,-324 818.5,-324"/>
<text text-anchor="middle" x="803.5" y="-302.3" font-family="Times,serif" font-size="14.00">BinOp</text>
</g>
<!-- ast.BinOp object at 0x7f17141974c0&#45;&gt;ast.BinOp object at 0x7f1736514190 -->
<g id="edge56" class="edge">
<title>ast.BinOp object at 0x7f17141974c0&#45;&gt;ast.BinOp object at 0x7f1736514190</title>
<path fill="none" stroke="black" d="M790.7,-359.7C792.6,-351.9 794.88,-342.51 796.98,-333.83"/>
<polygon fill="black" stroke="black" points="800.39,-334.65 799.35,-324.1 793.58,-333 800.39,-334.65"/>
</g>
<!-- ast.Subscript object at 0x7f1714195ba0 -->
<g id="node30" class="node">
<title>ast.Subscript object at 0x7f1714195ba0</title>
<path fill="#66cdaa" stroke="black" d="M598.5,-252C598.5,-252 554.5,-252 554.5,-252 548.5,-252 542.5,-246 542.5,-240 542.5,-240 542.5,-228 542.5,-228 542.5,-222 548.5,-216 554.5,-216 554.5,-216 598.5,-216 598.5,-216 604.5,-216 610.5,-222 610.5,-228 610.5,-228 610.5,-240 610.5,-240 610.5,-246 604.5,-252 598.5,-252"/>
<text text-anchor="middle" x="576.5" y="-230.3" font-family="Times,serif" font-size="14.00">Subscript</text>
</g>
<!-- ast.BinOp object at 0x7f1714195300&#45;&gt;ast.Subscript object at 0x7f1714195ba0 -->
<g id="edge36" class="edge">
<title>ast.BinOp object at 0x7f1714195300&#45;&gt;ast.Subscript object at 0x7f1714195ba0</title>
<path fill="none" stroke="black" d="M608.87,-287.7C603.87,-279.56 597.81,-269.69 592.29,-260.7"/>
<polygon fill="black" stroke="black" points="595.22,-258.79 587.01,-252.1 589.26,-262.46 595.22,-258.79"/>
</g>
<!-- ast.Add object at 0x7f174b8f21a0 -->
<g id="node36" class="node">
<title>ast.Add object at 0x7f174b8f21a0</title>
<path fill="#66cdaa" stroke="black" d="M512.5,-252C512.5,-252 482.5,-252 482.5,-252 476.5,-252 470.5,-246 470.5,-240 470.5,-240 470.5,-228 470.5,-228 470.5,-222 476.5,-216 482.5,-216 482.5,-216 512.5,-216 512.5,-216 518.5,-216 524.5,-222 524.5,-228 524.5,-228 524.5,-240 524.5,-240 524.5,-246 518.5,-252 512.5,-252"/>
<text text-anchor="middle" x="497.5" y="-230.3" font-family="Times,serif" font-size="14.00">Add</text>
</g>
<!-- ast.BinOp object at 0x7f1714195300&#45;&gt;ast.Add object at 0x7f174b8f21a0 -->
<g id="edge45" class="edge">
<title>ast.BinOp object at 0x7f1714195300&#45;&gt;ast.Add object at 0x7f174b8f21a0</title>
<path fill="none" stroke="black" d="M592.42,-289.46C575.05,-279.5 552.29,-266.44 533.41,-255.61"/>
<polygon fill="black" stroke="black" points="534.92,-252.43 524.5,-250.49 531.43,-258.5 534.92,-252.43"/>
</g>
<!-- ast.Subscript object at 0x7f1736515a80 -->
<g id="node37" class="node">
<title>ast.Subscript object at 0x7f1736515a80</title>
<path fill="#66cdaa" stroke="black" d="M684.5,-252C684.5,-252 640.5,-252 640.5,-252 634.5,-252 628.5,-246 628.5,-240 628.5,-240 628.5,-228 628.5,-228 628.5,-222 634.5,-216 640.5,-216 640.5,-216 684.5,-216 684.5,-216 690.5,-216 696.5,-222 696.5,-228 696.5,-228 696.5,-240 696.5,-240 696.5,-246 690.5,-252 684.5,-252"/>
<text text-anchor="middle" x="662.5" y="-230.3" font-family="Times,serif" font-size="14.00">Subscript</text>
</g>
<!-- ast.BinOp object at 0x7f1714195300&#45;&gt;ast.Subscript object at 0x7f1736515a80 -->
<g id="edge46" class="edge">
<title>ast.BinOp object at 0x7f1714195300&#45;&gt;ast.Subscript object at 0x7f1736515a80</title>
<path fill="none" stroke="black" d="M630.13,-287.7C635.13,-279.56 641.19,-269.69 646.71,-260.7"/>
<polygon fill="black" stroke="black" points="649.74,-262.46 651.99,-252.1 643.78,-258.79 649.74,-262.46"/>
</g>
<!-- ast.Subscript object at 0x7f1714195ba0&#45;&gt;ast.Load object at 0x7f174b8f1f60 -->
<g id="edge44" class="edge">
<title>ast.Subscript object at 0x7f1714195ba0&#45;&gt;ast.Load object at 0x7f174b8f1f60</title>
<path fill="none" stroke="black" d="M585.63,-215.88C590.51,-205.76 596.01,-192.51 598.5,-180 607.88,-132.93 612.61,-117.88 598.5,-72 595.49,-62.22 589.99,-52.62 584.18,-44.33"/>
<polygon fill="black" stroke="black" points="586.91,-42.13 578.11,-36.23 581.31,-46.33 586.91,-42.13"/>
</g>
<!-- ast.Name object at 0x7f17141972e0 -->
<g id="node31" class="node">
<title>ast.Name object at 0x7f17141972e0</title>
<path fill="#66cdaa" stroke="black" d="M483.5,-180C483.5,-180 453.5,-180 453.5,-180 447.5,-180 441.5,-174 441.5,-168 441.5,-168 441.5,-156 441.5,-156 441.5,-150 447.5,-144 453.5,-144 453.5,-144 483.5,-144 483.5,-144 489.5,-144 495.5,-150 495.5,-156 495.5,-156 495.5,-168 495.5,-168 495.5,-174 489.5,-180 483.5,-180"/>
<text text-anchor="middle" x="468.5" y="-158.3" font-family="Times,serif" font-size="14.00">Name</text>
</g>
<!-- ast.Subscript object at 0x7f1714195ba0&#45;&gt;ast.Name object at 0x7f17141972e0 -->
<g id="edge37" class="edge">
<title>ast.Subscript object at 0x7f1714195ba0&#45;&gt;ast.Name object at 0x7f17141972e0</title>
<path fill="none" stroke="black" d="M550.08,-215.88C536.09,-206.81 518.72,-195.55 503.61,-185.76"/>
<polygon fill="black" stroke="black" points="505.32,-182.69 495.02,-180.19 501.51,-188.57 505.32,-182.69"/>
</g>
<!-- ast.BinOp object at 0x7f17141944f0 -->
<g id="node32" class="node">
<title>ast.BinOp object at 0x7f17141944f0</title>
<path fill="#66cdaa" stroke="black" d="M577.5,-180C577.5,-180 547.5,-180 547.5,-180 541.5,-180 535.5,-174 535.5,-168 535.5,-168 535.5,-156 535.5,-156 535.5,-150 541.5,-144 547.5,-144 547.5,-144 577.5,-144 577.5,-144 583.5,-144 589.5,-150 589.5,-156 589.5,-156 589.5,-168 589.5,-168 589.5,-174 583.5,-180 577.5,-180"/>
<text text-anchor="middle" x="562.5" y="-158.3" font-family="Times,serif" font-size="14.00">BinOp</text>
</g>
<!-- ast.Subscript object at 0x7f1714195ba0&#45;&gt;ast.BinOp object at 0x7f17141944f0 -->
<g id="edge39" class="edge">
<title>ast.Subscript object at 0x7f1714195ba0&#45;&gt;ast.BinOp object at 0x7f17141944f0</title>
<path fill="none" stroke="black" d="M573.04,-215.7C571.5,-207.98 569.64,-198.71 567.92,-190.11"/>
<polygon fill="black" stroke="black" points="571.31,-189.22 565.92,-180.1 564.45,-190.6 571.31,-189.22"/>
</g>
<!-- ast.Name object at 0x7f17141972e0&#45;&gt;ast.Load object at 0x7f174b8f1f60 -->
<g id="edge38" class="edge">
<title>ast.Name object at 0x7f17141972e0&#45;&gt;ast.Load object at 0x7f174b8f1f60</title>
<path fill="none" stroke="black" d="M455.48,-143.69C442.99,-124.79 428,-94.25 442.5,-72 460.71,-44.04 497.38,-30.73 525.42,-24.45"/>
<polygon fill="black" stroke="black" points="526.2,-27.86 535.31,-22.44 524.81,-21 526.2,-27.86"/>
</g>
<!-- ast.Name object at 0x7f17141978b0 -->
<g id="node33" class="node">
<title>ast.Name object at 0x7f17141978b0</title>
<path fill="#66cdaa" stroke="black" d="M577.5,-108C577.5,-108 547.5,-108 547.5,-108 541.5,-108 535.5,-102 535.5,-96 535.5,-96 535.5,-84 535.5,-84 535.5,-78 541.5,-72 547.5,-72 547.5,-72 577.5,-72 577.5,-72 583.5,-72 589.5,-78 589.5,-84 589.5,-84 589.5,-96 589.5,-96 589.5,-102 583.5,-108 577.5,-108"/>
<text text-anchor="middle" x="562.5" y="-86.3" font-family="Times,serif" font-size="14.00">Name</text>
</g>
<!-- ast.BinOp object at 0x7f17141944f0&#45;&gt;ast.Name object at 0x7f17141978b0 -->
<g id="edge40" class="edge">
<title>ast.BinOp object at 0x7f17141944f0&#45;&gt;ast.Name object at 0x7f17141978b0</title>
<path fill="none" stroke="black" d="M562.5,-143.7C562.5,-135.98 562.5,-126.71 562.5,-118.11"/>
<polygon fill="black" stroke="black" points="566,-118.1 562.5,-108.1 559,-118.1 566,-118.1"/>
</g>
<!-- ast.Sub object at 0x7f174b8f2200 -->
<g id="node34" class="node">
<title>ast.Sub object at 0x7f174b8f2200</title>
<path fill="#66cdaa" stroke="black" d="M687.5,-108C687.5,-108 657.5,-108 657.5,-108 651.5,-108 645.5,-102 645.5,-96 645.5,-96 645.5,-84 645.5,-84 645.5,-78 651.5,-72 657.5,-72 657.5,-72 687.5,-72 687.5,-72 693.5,-72 699.5,-78 699.5,-84 699.5,-84 699.5,-96 699.5,-96 699.5,-102 693.5,-108 687.5,-108"/>
<text text-anchor="middle" x="672.5" y="-86.3" font-family="Times,serif" font-size="14.00">Sub</text>
</g>
<!-- ast.BinOp object at 0x7f17141944f0&#45;&gt;ast.Sub object at 0x7f174b8f2200 -->
<g id="edge42" class="edge">
<title>ast.BinOp object at 0x7f17141944f0&#45;&gt;ast.Sub object at 0x7f174b8f2200</title>
<path fill="none" stroke="black" d="M589.41,-143.88C603.66,-134.81 621.35,-123.55 636.74,-113.76"/>
<polygon fill="black" stroke="black" points="638.93,-116.51 645.49,-108.19 635.17,-110.61 638.93,-116.51"/>
</g>
<!-- ast.Constant object at 0x7f1736517d90 -->
<g id="node35" class="node">
<title>ast.Constant object at 0x7f1736517d90</title>
<path fill="#66cdaa" stroke="black" d="M505,-108C505,-108 464,-108 464,-108 458,-108 452,-102 452,-96 452,-96 452,-84 452,-84 452,-78 458,-72 464,-72 464,-72 505,-72 505,-72 511,-72 517,-78 517,-84 517,-84 517,-96 517,-96 517,-102 511,-108 505,-108"/>
<text text-anchor="middle" x="484.5" y="-86.3" font-family="Times,serif" font-size="14.00">Constant</text>
</g>
<!-- ast.BinOp object at 0x7f17141944f0&#45;&gt;ast.Constant object at 0x7f1736517d90 -->
<g id="edge43" class="edge">
<title>ast.BinOp object at 0x7f17141944f0&#45;&gt;ast.Constant object at 0x7f1736517d90</title>
<path fill="none" stroke="black" d="M543.22,-143.7C533.58,-135.05 521.77,-124.45 511.27,-115.03"/>
<polygon fill="black" stroke="black" points="513.34,-112.18 503.56,-108.1 508.66,-117.39 513.34,-112.18"/>
</g>
<!-- ast.Name object at 0x7f17141978b0&#45;&gt;ast.Load object at 0x7f174b8f1f60 -->
<g id="edge41" class="edge">
<title>ast.Name object at 0x7f17141978b0&#45;&gt;ast.Load object at 0x7f174b8f1f60</title>
<path fill="none" stroke="black" d="M562.5,-71.7C562.5,-63.98 562.5,-54.71 562.5,-46.11"/>
<polygon fill="black" stroke="black" points="566,-46.1 562.5,-36.1 559,-46.1 566,-46.1"/>
</g>
<!-- ast.Subscript object at 0x7f1736515a80&#45;&gt;ast.Load object at 0x7f174b8f1f60 -->
<g id="edge54" class="edge">
<title>ast.Subscript object at 0x7f1736515a80&#45;&gt;ast.Load object at 0x7f174b8f1f60</title>
<path fill="none" stroke="black" d="M696.72,-219.33C699.68,-218.19 702.64,-217.06 705.5,-216 807.14,-178.16 973.03,-154.38 902.5,-72 863.83,-26.83 679.72,-19.86 599.74,-19"/>
<polygon fill="black" stroke="black" points="599.64,-15.5 589.62,-18.91 599.59,-22.5 599.64,-15.5"/>
</g>
<!-- ast.Name object at 0x7f17365140d0 -->
<g id="node38" class="node">
<title>ast.Name object at 0x7f17365140d0</title>
<path fill="#66cdaa" stroke="black" d="M704.5,-180C704.5,-180 674.5,-180 674.5,-180 668.5,-180 662.5,-174 662.5,-168 662.5,-168 662.5,-156 662.5,-156 662.5,-150 668.5,-144 674.5,-144 674.5,-144 704.5,-144 704.5,-144 710.5,-144 716.5,-150 716.5,-156 716.5,-156 716.5,-168 716.5,-168 716.5,-174 710.5,-180 704.5,-180"/>
<text text-anchor="middle" x="689.5" y="-158.3" font-family="Times,serif" font-size="14.00">Name</text>
</g>
<!-- ast.Subscript object at 0x7f1736515a80&#45;&gt;ast.Name object at 0x7f17365140d0 -->
<g id="edge47" class="edge">
<title>ast.Subscript object at 0x7f1736515a80&#45;&gt;ast.Name object at 0x7f17365140d0</title>
<path fill="none" stroke="black" d="M669.17,-215.7C672.21,-207.81 675.88,-198.3 679.26,-189.55"/>
<polygon fill="black" stroke="black" points="682.57,-190.69 682.9,-180.1 676.04,-188.17 682.57,-190.69"/>
</g>
<!-- ast.BinOp object at 0x7f1736514f40 -->
<g id="node39" class="node">
<title>ast.BinOp object at 0x7f1736514f40</title>
<path fill="#66cdaa" stroke="black" d="M787.5,-180C787.5,-180 757.5,-180 757.5,-180 751.5,-180 745.5,-174 745.5,-168 745.5,-168 745.5,-156 745.5,-156 745.5,-150 751.5,-144 757.5,-144 757.5,-144 787.5,-144 787.5,-144 793.5,-144 799.5,-150 799.5,-156 799.5,-156 799.5,-168 799.5,-168 799.5,-174 793.5,-180 787.5,-180"/>
<text text-anchor="middle" x="772.5" y="-158.3" font-family="Times,serif" font-size="14.00">BinOp</text>
</g>
<!-- ast.Subscript object at 0x7f1736515a80&#45;&gt;ast.BinOp object at 0x7f1736514f40 -->
<g id="edge49" class="edge">
<title>ast.Subscript object at 0x7f1736515a80&#45;&gt;ast.BinOp object at 0x7f1736514f40</title>
<path fill="none" stroke="black" d="M689.41,-215.88C703.66,-206.81 721.35,-195.55 736.74,-185.76"/>
<polygon fill="black" stroke="black" points="738.93,-188.51 745.49,-180.19 735.17,-182.61 738.93,-188.51"/>
</g>
<!-- ast.Name object at 0x7f17365140d0&#45;&gt;ast.Load object at 0x7f174b8f1f60 -->
<g id="edge48" class="edge">
<title>ast.Name object at 0x7f17365140d0&#45;&gt;ast.Load object at 0x7f174b8f1f60</title>
<path fill="none" stroke="black" d="M700.48,-143.7C711.09,-124.52 723.55,-93.48 708.5,-72 684.1,-37.18 634.36,-25.15 599.76,-21.04"/>
<polygon fill="black" stroke="black" points="599.86,-17.53 589.55,-20 599.15,-24.5 599.86,-17.53"/>
</g>
<!-- ast.BinOp object at 0x7f1736514f40&#45;&gt;ast.Sub object at 0x7f174b8f2200 -->
<g id="edge52" class="edge">
<title>ast.BinOp object at 0x7f1736514f40&#45;&gt;ast.Sub object at 0x7f174b8f2200</title>
<path fill="none" stroke="black" d="M748.04,-143.88C735.2,-134.89 719.3,-123.76 705.41,-114.03"/>
<polygon fill="black" stroke="black" points="707.26,-111.06 697.06,-108.19 703.24,-116.79 707.26,-111.06"/>
</g>
<!-- ast.Name object at 0x7f1736514070 -->
<g id="node40" class="node">
<title>ast.Name object at 0x7f1736514070</title>
<path fill="#66cdaa" stroke="black" d="M881.5,-108C881.5,-108 851.5,-108 851.5,-108 845.5,-108 839.5,-102 839.5,-96 839.5,-96 839.5,-84 839.5,-84 839.5,-78 845.5,-72 851.5,-72 851.5,-72 881.5,-72 881.5,-72 887.5,-72 893.5,-78 893.5,-84 893.5,-84 893.5,-96 893.5,-96 893.5,-102 887.5,-108 881.5,-108"/>
<text text-anchor="middle" x="866.5" y="-86.3" font-family="Times,serif" font-size="14.00">Name</text>
</g>
<!-- ast.BinOp object at 0x7f1736514f40&#45;&gt;ast.Name object at 0x7f1736514070 -->
<g id="edge50" class="edge">
<title>ast.BinOp object at 0x7f1736514f40&#45;&gt;ast.Name object at 0x7f1736514070</title>
<path fill="none" stroke="black" d="M795.74,-143.7C807.69,-134.8 822.42,-123.82 835.35,-114.2"/>
<polygon fill="black" stroke="black" points="837.6,-116.88 843.53,-108.1 833.42,-111.27 837.6,-116.88"/>
</g>
<!-- ast.Constant object at 0x7f1736516800 -->
<g id="node41" class="node">
<title>ast.Constant object at 0x7f1736516800</title>
<path fill="#66cdaa" stroke="black" d="M809,-108C809,-108 768,-108 768,-108 762,-108 756,-102 756,-96 756,-96 756,-84 756,-84 756,-78 762,-72 768,-72 768,-72 809,-72 809,-72 815,-72 821,-78 821,-84 821,-84 821,-96 821,-96 821,-102 815,-108 809,-108"/>
<text text-anchor="middle" x="788.5" y="-86.3" font-family="Times,serif" font-size="14.00">Constant</text>
</g>
<!-- ast.BinOp object at 0x7f1736514f40&#45;&gt;ast.Constant object at 0x7f1736516800 -->
<g id="edge53" class="edge">
<title>ast.BinOp object at 0x7f1736514f40&#45;&gt;ast.Constant object at 0x7f1736516800</title>
<path fill="none" stroke="black" d="M776.46,-143.7C778.22,-135.98 780.34,-126.71 782.3,-118.11"/>
<polygon fill="black" stroke="black" points="785.77,-118.63 784.59,-108.1 778.95,-117.07 785.77,-118.63"/>
</g>
<!-- ast.Name object at 0x7f1736514070&#45;&gt;ast.Load object at 0x7f174b8f1f60 -->
<g id="edge51" class="edge">
<title>ast.Name object at 0x7f1736514070&#45;&gt;ast.Load object at 0x7f174b8f1f60</title>
<path fill="none" stroke="black" d="M839.27,-75.29C836.35,-74.08 833.39,-72.95 830.5,-72 750.43,-45.62 652.34,-30.32 599.86,-23.43"/>
<polygon fill="black" stroke="black" points="600.05,-19.93 589.69,-22.13 599.16,-26.87 600.05,-19.93"/>
</g>
<!-- ast.Constant object at 0x7f17365142e0 -->
<g id="node44" class="node">
<title>ast.Constant object at 0x7f17365142e0</title>
<path fill="#66cdaa" stroke="black" d="M923,-252C923,-252 882,-252 882,-252 876,-252 870,-246 870,-240 870,-240 870,-228 870,-228 870,-222 876,-216 882,-216 882,-216 923,-216 923,-216 929,-216 935,-222 935,-228 935,-228 935,-240 935,-240 935,-246 929,-252 923,-252"/>
<text text-anchor="middle" x="902.5" y="-230.3" font-family="Times,serif" font-size="14.00">Constant</text>
</g>
<!-- ast.BinOp object at 0x7f1736514190&#45;&gt;ast.Constant object at 0x7f17365142e0 -->
<g id="edge57" class="edge">
<title>ast.BinOp object at 0x7f1736514190&#45;&gt;ast.Constant object at 0x7f17365142e0</title>
<path fill="none" stroke="black" d="M827.72,-287.88C840.42,-278.89 856.16,-267.76 869.92,-258.03"/>
<polygon fill="black" stroke="black" points="872.04,-260.82 878.19,-252.19 868,-255.11 872.04,-260.82"/>
</g>
<!-- ast.LShift object at 0x7f174b8f2440 -->
<g id="node45" class="node">
<title>ast.LShift object at 0x7f174b8f2440</title>
<path fill="#66cdaa" stroke="black" d="M756.5,-252C756.5,-252 726.5,-252 726.5,-252 720.5,-252 714.5,-246 714.5,-240 714.5,-240 714.5,-228 714.5,-228 714.5,-222 720.5,-216 726.5,-216 726.5,-216 756.5,-216 756.5,-216 762.5,-216 768.5,-222 768.5,-228 768.5,-228 768.5,-240 768.5,-240 768.5,-246 762.5,-252 756.5,-252"/>
<text text-anchor="middle" x="741.5" y="-230.3" font-family="Times,serif" font-size="14.00">LShift</text>
</g>
<!-- ast.BinOp object at 0x7f1736514190&#45;&gt;ast.LShift object at 0x7f174b8f2440 -->
<g id="edge58" class="edge">
<title>ast.BinOp object at 0x7f1736514190&#45;&gt;ast.LShift object at 0x7f174b8f2440</title>
<path fill="none" stroke="black" d="M788.17,-287.7C780.74,-279.3 771.68,-269.07 763.52,-259.86"/>
<polygon fill="black" stroke="black" points="765.9,-257.27 756.65,-252.1 760.66,-261.91 765.9,-257.27"/>
</g>
<!-- ast.Constant object at 0x7f1736516710 -->
<g id="node46" class="node">
<title>ast.Constant object at 0x7f1736516710</title>
<path fill="#66cdaa" stroke="black" d="M840,-252C840,-252 799,-252 799,-252 793,-252 787,-246 787,-240 787,-240 787,-228 787,-228 787,-222 793,-216 799,-216 799,-216 840,-216 840,-216 846,-216 852,-222 852,-228 852,-228 852,-240 852,-240 852,-246 846,-252 840,-252"/>
<text text-anchor="middle" x="819.5" y="-230.3" font-family="Times,serif" font-size="14.00">Constant</text>
</g>
<!-- ast.BinOp object at 0x7f1736514190&#45;&gt;ast.Constant object at 0x7f1736516710 -->
<g id="edge59" class="edge">
<title>ast.BinOp object at 0x7f1736514190&#45;&gt;ast.Constant object at 0x7f1736516710</title>
<path fill="none" stroke="black" d="M807.46,-287.7C809.22,-279.98 811.34,-270.71 813.3,-262.11"/>
<polygon fill="black" stroke="black" points="816.77,-262.63 815.59,-252.1 809.95,-261.07 816.77,-262.63"/>
</g>
<!-- ast.Compare object at 0x7f1736515f30 -->
<g id="node48" class="node">
<title>ast.Compare object at 0x7f1736515f30</title>
<path fill="#66cdaa" stroke="black" d="M1085,-324C1085,-324 1042,-324 1042,-324 1036,-324 1030,-318 1030,-312 1030,-312 1030,-300 1030,-300 1030,-294 1036,-288 1042,-288 1042,-288 1085,-288 1085,-288 1091,-288 1097,-294 1097,-300 1097,-300 1097,-312 1097,-312 1097,-318 1091,-324 1085,-324"/>
<text text-anchor="middle" x="1063.5" y="-302.3" font-family="Times,serif" font-size="14.00">Compare</text>
</g>
<!-- ast.Return object at 0x7f17365146a0&#45;&gt;ast.Compare object at 0x7f1736515f30 -->
<g id="edge61" class="edge">
<title>ast.Return object at 0x7f17365146a0&#45;&gt;ast.Compare object at 0x7f1736515f30</title>
<path fill="none" stroke="black" d="M1011.56,-359.7C1020,-351.14 1030.32,-340.66 1039.54,-331.3"/>
<polygon fill="black" stroke="black" points="1042.11,-333.68 1046.64,-324.1 1037.13,-328.77 1042.11,-333.68"/>
</g>
<!-- ast.BinOp object at 0x7f1736516860 -->
<g id="node49" class="node">
<title>ast.BinOp object at 0x7f1736516860</title>
<path fill="#66cdaa" stroke="black" d="M1117.5,-252C1117.5,-252 1087.5,-252 1087.5,-252 1081.5,-252 1075.5,-246 1075.5,-240 1075.5,-240 1075.5,-228 1075.5,-228 1075.5,-222 1081.5,-216 1087.5,-216 1087.5,-216 1117.5,-216 1117.5,-216 1123.5,-216 1129.5,-222 1129.5,-228 1129.5,-228 1129.5,-240 1129.5,-240 1129.5,-246 1123.5,-252 1117.5,-252"/>
<text text-anchor="middle" x="1102.5" y="-230.3" font-family="Times,serif" font-size="14.00">BinOp</text>
</g>
<!-- ast.Compare object at 0x7f1736515f30&#45;&gt;ast.BinOp object at 0x7f1736516860 -->
<g id="edge62" class="edge">
<title>ast.Compare object at 0x7f1736515f30&#45;&gt;ast.BinOp object at 0x7f1736516860</title>
<path fill="none" stroke="black" d="M1073.14,-287.7C1077.63,-279.64 1083.06,-269.89 1088.02,-260.98"/>
<polygon fill="black" stroke="black" points="1091.16,-262.54 1092.97,-252.1 1085.05,-259.14 1091.16,-262.54"/>
</g>
<!-- ast.Eq object at 0x7f174b8f2890 -->
<g id="node54" class="node">
<title>ast.Eq object at 0x7f174b8f2890</title>
<path fill="#66cdaa" stroke="black" d="M1189.5,-252C1189.5,-252 1159.5,-252 1159.5,-252 1153.5,-252 1147.5,-246 1147.5,-240 1147.5,-240 1147.5,-228 1147.5,-228 1147.5,-222 1153.5,-216 1159.5,-216 1159.5,-216 1189.5,-216 1189.5,-216 1195.5,-216 1201.5,-222 1201.5,-228 1201.5,-228 1201.5,-240 1201.5,-240 1201.5,-246 1195.5,-252 1189.5,-252"/>
<text text-anchor="middle" x="1174.5" y="-230.3" font-family="Times,serif" font-size="14.00">Eq</text>
</g>
<!-- ast.Compare object at 0x7f1736515f30&#45;&gt;ast.Eq object at 0x7f174b8f2890 -->
<g id="edge71" class="edge">
<title>ast.Compare object at 0x7f1736515f30&#45;&gt;ast.Eq object at 0x7f174b8f2890</title>
<path fill="none" stroke="black" d="M1090.65,-287.88C1105.03,-278.81 1122.88,-267.55 1138.41,-257.76"/>
<polygon fill="black" stroke="black" points="1140.65,-260.48 1147.24,-252.19 1136.92,-254.56 1140.65,-260.48"/>
</g>
<!-- ast.Constant object at 0x7f1736515630 -->
<g id="node55" class="node">
<title>ast.Constant object at 0x7f1736515630</title>
<path fill="#66cdaa" stroke="black" d="M1045,-252C1045,-252 1004,-252 1004,-252 998,-252 992,-246 992,-240 992,-240 992,-228 992,-228 992,-222 998,-216 1004,-216 1004,-216 1045,-216 1045,-216 1051,-216 1057,-222 1057,-228 1057,-228 1057,-240 1057,-240 1057,-246 1051,-252 1045,-252"/>
<text text-anchor="middle" x="1024.5" y="-230.3" font-family="Times,serif" font-size="14.00">Constant</text>
</g>
<!-- ast.Compare object at 0x7f1736515f30&#45;&gt;ast.Constant object at 0x7f1736515630 -->
<g id="edge72" class="edge">
<title>ast.Compare object at 0x7f1736515f30&#45;&gt;ast.Constant object at 0x7f1736515630</title>
<path fill="none" stroke="black" d="M1053.86,-287.7C1049.37,-279.64 1043.94,-269.89 1038.98,-260.98"/>
<polygon fill="black" stroke="black" points="1041.95,-259.14 1034.03,-252.1 1035.84,-262.54 1041.95,-259.14"/>
</g>
<!-- ast.BinOp object at 0x7f1736516860&#45;&gt;ast.Mod object at 0x7f174b8f2380 -->
<g id="edge65" class="edge">
<title>ast.BinOp object at 0x7f1736516860&#45;&gt;ast.Mod object at 0x7f174b8f2380</title>
<path fill="none" stroke="black" d="M1075.2,-217.46C1057.61,-207.45 1034.53,-194.32 1015.45,-183.46"/>
<polygon fill="black" stroke="black" points="1017.14,-180.4 1006.72,-178.49 1013.68,-186.48 1017.14,-180.4"/>
</g>
<!-- ast.Name object at 0x7f1736514250 -->
<g id="node50" class="node">
<title>ast.Name object at 0x7f1736514250</title>
<path fill="#66cdaa" stroke="black" d="M1166.5,-180C1166.5,-180 1136.5,-180 1136.5,-180 1130.5,-180 1124.5,-174 1124.5,-168 1124.5,-168 1124.5,-156 1124.5,-156 1124.5,-150 1130.5,-144 1136.5,-144 1136.5,-144 1166.5,-144 1166.5,-144 1172.5,-144 1178.5,-150 1178.5,-156 1178.5,-156 1178.5,-168 1178.5,-168 1178.5,-174 1172.5,-180 1166.5,-180"/>
<text text-anchor="middle" x="1151.5" y="-158.3" font-family="Times,serif" font-size="14.00">Name</text>
</g>
<!-- ast.BinOp object at 0x7f1736516860&#45;&gt;ast.Name object at 0x7f1736514250 -->
<g id="edge63" class="edge">
<title>ast.BinOp object at 0x7f1736516860&#45;&gt;ast.Name object at 0x7f1736514250</title>
<path fill="none" stroke="black" d="M1114.61,-215.7C1120.37,-207.47 1127.36,-197.48 1133.71,-188.42"/>
<polygon fill="black" stroke="black" points="1136.66,-190.3 1139.53,-180.1 1130.92,-186.29 1136.66,-190.3"/>
</g>
<!-- ast.Subscript object at 0x7f1736517820 -->
<g id="node51" class="node">
<title>ast.Subscript object at 0x7f1736517820</title>
<path fill="#66cdaa" stroke="black" d="M1089.5,-180C1089.5,-180 1045.5,-180 1045.5,-180 1039.5,-180 1033.5,-174 1033.5,-168 1033.5,-168 1033.5,-156 1033.5,-156 1033.5,-150 1039.5,-144 1045.5,-144 1045.5,-144 1089.5,-144 1089.5,-144 1095.5,-144 1101.5,-150 1101.5,-156 1101.5,-156 1101.5,-168 1101.5,-168 1101.5,-174 1095.5,-180 1089.5,-180"/>
<text text-anchor="middle" x="1067.5" y="-158.3" font-family="Times,serif" font-size="14.00">Subscript</text>
</g>
<!-- ast.BinOp object at 0x7f1736516860&#45;&gt;ast.Subscript object at 0x7f1736517820 -->
<g id="edge66" class="edge">
<title>ast.BinOp object at 0x7f1736516860&#45;&gt;ast.Subscript object at 0x7f1736517820</title>
<path fill="none" stroke="black" d="M1093.85,-215.7C1089.86,-207.73 1085.05,-198.1 1080.63,-189.26"/>
<polygon fill="black" stroke="black" points="1083.65,-187.48 1076.05,-180.1 1077.39,-190.61 1083.65,-187.48"/>
</g>
<!-- ast.Name object at 0x7f1736514250&#45;&gt;ast.Load object at 0x7f174b8f1f60 -->
<g id="edge64" class="edge">
<title>ast.Name object at 0x7f1736514250&#45;&gt;ast.Load object at 0x7f174b8f1f60</title>
<path fill="none" stroke="black" d="M1149.38,-143.69C1145.85,-122.97 1136.69,-88.96 1113.5,-72 1072.13,-41.74 717.05,-25.11 599.86,-20.4"/>
<polygon fill="black" stroke="black" points="599.72,-16.9 589.59,-20 599.45,-23.89 599.72,-16.9"/>
</g>
<!-- ast.Subscript object at 0x7f1736517820&#45;&gt;ast.Load object at 0x7f174b8f1f60 -->
<g id="edge70" class="edge">
<title>ast.Subscript object at 0x7f1736517820&#45;&gt;ast.Load object at 0x7f174b8f1f60</title>
<path fill="none" stroke="black" d="M1081.92,-143.85C1096.61,-124.24 1114.83,-92.24 1096.5,-72 1063.18,-35.21 715.32,-22.95 599.66,-19.87"/>
<polygon fill="black" stroke="black" points="599.61,-16.36 589.52,-19.61 599.43,-23.36 599.61,-16.36"/>
</g>
<!-- ast.Name object at 0x7f1736516e60 -->
<g id="node52" class="node">
<title>ast.Name object at 0x7f1736516e60</title>
<path fill="#66cdaa" stroke="black" d="M991.5,-108C991.5,-108 961.5,-108 961.5,-108 955.5,-108 949.5,-102 949.5,-96 949.5,-96 949.5,-84 949.5,-84 949.5,-78 955.5,-72 961.5,-72 961.5,-72 991.5,-72 991.5,-72 997.5,-72 1003.5,-78 1003.5,-84 1003.5,-84 1003.5,-96 1003.5,-96 1003.5,-102 997.5,-108 991.5,-108"/>
<text text-anchor="middle" x="976.5" y="-86.3" font-family="Times,serif" font-size="14.00">Name</text>
</g>
<!-- ast.Subscript object at 0x7f1736517820&#45;&gt;ast.Name object at 0x7f1736516e60 -->
<g id="edge67" class="edge">
<title>ast.Subscript object at 0x7f1736517820&#45;&gt;ast.Name object at 0x7f1736516e60</title>
<path fill="none" stroke="black" d="M1045.01,-143.7C1033.54,-134.88 1019.44,-124.03 1007.02,-114.47"/>
<polygon fill="black" stroke="black" points="1008.8,-111.43 998.74,-108.1 1004.53,-116.98 1008.8,-111.43"/>
</g>
<!-- ast.Constant object at 0x7f1736517640 -->
<g id="node53" class="node">
<title>ast.Constant object at 0x7f1736517640</title>
<path fill="#66cdaa" stroke="black" d="M1075,-108C1075,-108 1034,-108 1034,-108 1028,-108 1022,-102 1022,-96 1022,-96 1022,-84 1022,-84 1022,-78 1028,-72 1034,-72 1034,-72 1075,-72 1075,-72 1081,-72 1087,-78 1087,-84 1087,-84 1087,-96 1087,-96 1087,-102 1081,-108 1075,-108"/>
<text text-anchor="middle" x="1054.5" y="-86.3" font-family="Times,serif" font-size="14.00">Constant</text>
</g>
<!-- ast.Subscript object at 0x7f1736517820&#45;&gt;ast.Constant object at 0x7f1736517640 -->
<g id="edge69" class="edge">
<title>ast.Subscript object at 0x7f1736517820&#45;&gt;ast.Constant object at 0x7f1736517640</title>
<path fill="none" stroke="black" d="M1064.29,-143.7C1062.85,-135.98 1061.13,-126.71 1059.54,-118.11"/>
<polygon fill="black" stroke="black" points="1062.94,-117.3 1057.68,-108.1 1056.06,-118.58 1062.94,-117.3"/>
</g>
<!-- ast.Name object at 0x7f1736516e60&#45;&gt;ast.Load object at 0x7f174b8f1f60 -->
<g id="edge68" class="edge">
<title>ast.Name object at 0x7f1736516e60&#45;&gt;ast.Load object at 0x7f174b8f1f60</title>
<path fill="none" stroke="black" d="M949.49,-76.68C944.89,-74.91 940.11,-73.26 935.5,-72 815.43,-39.14 667.74,-25.85 599.85,-21.19"/>
<polygon fill="black" stroke="black" points="599.87,-17.68 589.66,-20.51 599.4,-24.67 599.87,-17.68"/>
</g>
</g>
</svg>
