<?xml version="1.0" encoding="UTF-8" standalone="no"?>
<!DOCTYPE svg PUBLIC "-//W3C//DTD SVG 1.1//EN"
 "http://www.w3.org/Graphics/SVG/1.1/DTD/svg11.dtd">
<!-- Generated by graphviz version 2.43.0 (0)
 -->
<!-- Title: %3 Pages: 1 -->
<svg width="849pt" height="620pt"
 viewBox="0.00 0.00 848.50 620.00" xmlns="http://www.w3.org/2000/svg" xmlns:xlink="http://www.w3.org/1999/xlink">
<g id="graph0" class="graph" transform="scale(1 1) rotate(0) translate(4 616)">
<title>%3</title>
<polygon fill="white" stroke="transparent" points="-4,4 -4,-616 844.5,-616 844.5,4 -4,4"/>
<!-- ast.Module object at 0x7f47dc728940 -->
<g id="node1" class="node">
<title>ast.Module object at 0x7f47dc728940</title>
<path fill="#66cdaa" stroke="black" d="M224,-612C224,-612 178,-612 178,-612 172,-612 166,-606 166,-600 166,-600 166,-588 166,-588 166,-582 172,-576 178,-576 178,-576 224,-576 224,-576 230,-576 236,-582 236,-588 236,-588 236,-600 236,-600 236,-606 230,-612 224,-612"/>
<text text-anchor="middle" x="201" y="-590.3" font-family="Times,serif" font-size="14.00">Module</text>
</g>
<!-- ast.FunctionDef object at 0x7f47dc7281f0 -->
<g id="node2" class="node">
<title>ast.FunctionDef object at 0x7f47dc7281f0</title>
<path fill="#66cdaa" stroke="black" d="M241,-540C241,-540 161,-540 161,-540 155,-540 149,-534 149,-528 149,-528 149,-516 149,-516 149,-510 155,-504 161,-504 161,-504 241,-504 241,-504 247,-504 253,-510 253,-516 253,-516 253,-528 253,-528 253,-534 247,-540 241,-540"/>
<text text-anchor="middle" x="201" y="-518.3" font-family="Times,serif" font-size="14.00">FunctionDef</text>
</g>
<!-- ast.Module object at 0x7f47dc728940&#45;&gt;ast.FunctionDef object at 0x7f47dc7281f0 -->
<g id="edge1" class="edge">
<title>ast.Module object at 0x7f47dc728940&#45;&gt;ast.FunctionDef object at 0x7f47dc7281f0</title>
<path fill="none" stroke="black" d="M201,-575.7C201,-567.98 201,-558.71 201,-550.11"/>
<polygon fill="black" stroke="black" points="204.5,-550.1 201,-540.1 197.5,-550.1 204.5,-550.1"/>
</g>
<!-- ast.arguments object at 0x7f47dc7281c0 -->
<g id="node3" class="node">
<title>ast.arguments object at 0x7f47dc7281c0</title>
<path fill="#66cdaa" stroke="black" d="M82,-468C82,-468 12,-468 12,-468 6,-468 0,-462 0,-456 0,-456 0,-444 0,-444 0,-438 6,-432 12,-432 12,-432 82,-432 82,-432 88,-432 94,-438 94,-444 94,-444 94,-456 94,-456 94,-462 88,-468 82,-468"/>
<text text-anchor="middle" x="47" y="-446.3" font-family="Times,serif" font-size="14.00">arguments</text>
</g>
<!-- ast.FunctionDef object at 0x7f47dc7281f0&#45;&gt;ast.arguments object at 0x7f47dc7281c0 -->
<g id="edge2" class="edge">
<title>ast.FunctionDef object at 0x7f47dc7281f0&#45;&gt;ast.arguments object at 0x7f47dc7281c0</title>
<path fill="none" stroke="black" d="M163.33,-503.88C142.37,-494.35 116.1,-482.41 93.82,-472.28"/>
<polygon fill="black" stroke="black" points="95.1,-469.02 84.55,-468.07 92.21,-475.39 95.1,-469.02"/>
</g>
<!-- ast.Assign object at 0x7f47dc7283a0 -->
<g id="node5" class="node">
<title>ast.Assign object at 0x7f47dc7283a0</title>
<path fill="#66cdaa" stroke="black" d="M177,-468C177,-468 137,-468 137,-468 131,-468 125,-462 125,-456 125,-456 125,-444 125,-444 125,-438 131,-432 137,-432 137,-432 177,-432 177,-432 183,-432 189,-438 189,-444 189,-444 189,-456 189,-456 189,-462 183,-468 177,-468"/>
<text text-anchor="middle" x="157" y="-446.3" font-family="Times,serif" font-size="14.00">Assign</text>
</g>
<!-- ast.FunctionDef object at 0x7f47dc7281f0&#45;&gt;ast.Assign object at 0x7f47dc7283a0 -->
<g id="edge4" class="edge">
<title>ast.FunctionDef object at 0x7f47dc7281f0&#45;&gt;ast.Assign object at 0x7f47dc7283a0</title>
<path fill="none" stroke="black" d="M190.12,-503.7C185.01,-495.56 178.8,-485.69 173.16,-476.7"/>
<polygon fill="black" stroke="black" points="176.04,-474.71 167.75,-468.1 170.11,-478.43 176.04,-474.71"/>
</g>
<!-- ast.For object at 0x7f47dc728460 -->
<g id="node9" class="node">
<title>ast.For object at 0x7f47dc728460</title>
<path fill="#66cdaa" stroke="black" d="M297,-468C297,-468 267,-468 267,-468 261,-468 255,-462 255,-456 255,-456 255,-444 255,-444 255,-438 261,-432 267,-432 267,-432 297,-432 297,-432 303,-432 309,-438 309,-444 309,-444 309,-456 309,-456 309,-462 303,-468 297,-468"/>
<text text-anchor="middle" x="282" y="-446.3" font-family="Times,serif" font-size="14.00">For</text>
</g>
<!-- ast.FunctionDef object at 0x7f47dc7281f0&#45;&gt;ast.For object at 0x7f47dc728460 -->
<g id="edge8" class="edge">
<title>ast.FunctionDef object at 0x7f47dc7281f0&#45;&gt;ast.For object at 0x7f47dc728460</title>
<path fill="none" stroke="black" d="M221.02,-503.7C231.13,-494.97 243.54,-484.24 254.52,-474.75"/>
<polygon fill="black" stroke="black" points="256.93,-477.29 262.21,-468.1 252.35,-471.99 256.93,-477.29"/>
</g>
<!-- ast.Return object at 0x7f47dc72bd90 -->
<g id="node34" class="node">
<title>ast.Return object at 0x7f47dc72bd90</title>
<path fill="#66cdaa" stroke="black" d="M654,-468C654,-468 612,-468 612,-468 606,-468 600,-462 600,-456 600,-456 600,-444 600,-444 600,-438 606,-432 612,-432 612,-432 654,-432 654,-432 660,-432 666,-438 666,-444 666,-444 666,-456 666,-456 666,-462 660,-468 654,-468"/>
<text text-anchor="middle" x="633" y="-446.3" font-family="Times,serif" font-size="14.00">Return</text>
</g>
<!-- ast.FunctionDef object at 0x7f47dc7281f0&#45;&gt;ast.Return object at 0x7f47dc72bd90 -->
<g id="edge42" class="edge">
<title>ast.FunctionDef object at 0x7f47dc7281f0&#45;&gt;ast.Return object at 0x7f47dc72bd90</title>
<path fill="none" stroke="black" d="M253.11,-512.56C339.23,-498.6 509.68,-470.98 589.66,-458.02"/>
<polygon fill="black" stroke="black" points="590.55,-461.42 599.87,-456.37 589.43,-454.51 590.55,-461.42"/>
</g>
<!-- ast.arg object at 0x7f47dc728190 -->
<g id="node4" class="node">
<title>ast.arg object at 0x7f47dc728190</title>
<path fill="#66cdaa" stroke="black" d="M48,-396C48,-396 18,-396 18,-396 12,-396 6,-390 6,-384 6,-384 6,-372 6,-372 6,-366 12,-360 18,-360 18,-360 48,-360 48,-360 54,-360 60,-366 60,-372 60,-372 60,-384 60,-384 60,-390 54,-396 48,-396"/>
<text text-anchor="middle" x="33" y="-374.3" font-family="Times,serif" font-size="14.00">arg</text>
</g>
<!-- ast.arguments object at 0x7f47dc7281c0&#45;&gt;ast.arg object at 0x7f47dc728190 -->
<g id="edge3" class="edge">
<title>ast.arguments object at 0x7f47dc7281c0&#45;&gt;ast.arg object at 0x7f47dc728190</title>
<path fill="none" stroke="black" d="M43.54,-431.7C42,-423.98 40.14,-414.71 38.42,-406.11"/>
<polygon fill="black" stroke="black" points="41.81,-405.22 36.42,-396.1 34.95,-406.6 41.81,-405.22"/>
</g>
<!-- ast.Name object at 0x7f47dc7284f0 -->
<g id="node6" class="node">
<title>ast.Name object at 0x7f47dc7284f0</title>
<path fill="#66cdaa" stroke="black" d="M57.5,-324C57.5,-324 22.5,-324 22.5,-324 16.5,-324 10.5,-318 10.5,-312 10.5,-312 10.5,-300 10.5,-300 10.5,-294 16.5,-288 22.5,-288 22.5,-288 57.5,-288 57.5,-288 63.5,-288 69.5,-294 69.5,-300 69.5,-300 69.5,-312 69.5,-312 69.5,-318 63.5,-324 57.5,-324"/>
<text text-anchor="middle" x="40" y="-302.3" font-family="Times,serif" font-size="14.00">Name</text>
</g>
<!-- ast.Assign object at 0x7f47dc7283a0&#45;&gt;ast.Name object at 0x7f47dc7284f0 -->
<g id="edge5" class="edge">
<title>ast.Assign object at 0x7f47dc7283a0&#45;&gt;ast.Name object at 0x7f47dc7284f0</title>
<path fill="none" stroke="black" d="M139.83,-431.78C129.94,-421.63 117.44,-408.38 107,-396 89.53,-375.29 71.12,-350.6 58.03,-332.48"/>
<polygon fill="black" stroke="black" points="60.73,-330.25 52.05,-324.16 55.04,-334.33 60.73,-330.25"/>
</g>
<!-- ast.Constant object at 0x7f47dc728430 -->
<g id="node8" class="node">
<title>ast.Constant object at 0x7f47dc728430</title>
<path fill="#66cdaa" stroke="black" d="M185.5,-396C185.5,-396 128.5,-396 128.5,-396 122.5,-396 116.5,-390 116.5,-384 116.5,-384 116.5,-372 116.5,-372 116.5,-366 122.5,-360 128.5,-360 128.5,-360 185.5,-360 185.5,-360 191.5,-360 197.5,-366 197.5,-372 197.5,-372 197.5,-384 197.5,-384 197.5,-390 191.5,-396 185.5,-396"/>
<text text-anchor="middle" x="157" y="-374.3" font-family="Times,serif" font-size="14.00">Constant</text>
</g>
<!-- ast.Assign object at 0x7f47dc7283a0&#45;&gt;ast.Constant object at 0x7f47dc728430 -->
<g id="edge7" class="edge">
<title>ast.Assign object at 0x7f47dc7283a0&#45;&gt;ast.Constant object at 0x7f47dc728430</title>
<path fill="none" stroke="black" d="M157,-431.7C157,-423.98 157,-414.71 157,-406.11"/>
<polygon fill="black" stroke="black" points="160.5,-406.1 157,-396.1 153.5,-406.1 160.5,-406.1"/>
</g>
<!-- ast.Store object at 0x7f47f75b17b0 -->
<g id="node7" class="node">
<title>ast.Store object at 0x7f47f75b17b0</title>
<path fill="#66cdaa" stroke="black" d="M114,-180C114,-180 82,-180 82,-180 76,-180 70,-174 70,-168 70,-168 70,-156 70,-156 70,-150 76,-144 82,-144 82,-144 114,-144 114,-144 120,-144 126,-150 126,-156 126,-156 126,-168 126,-168 126,-174 120,-180 114,-180"/>
<text text-anchor="middle" x="98" y="-158.3" font-family="Times,serif" font-size="14.00">Store</text>
</g>
<!-- ast.Name object at 0x7f47dc7284f0&#45;&gt;ast.Store object at 0x7f47f75b17b0 -->
<g id="edge6" class="edge">
<title>ast.Name object at 0x7f47dc7284f0&#45;&gt;ast.Store object at 0x7f47f75b17b0</title>
<path fill="none" stroke="black" d="M47,-287.87C56.97,-263.46 75.36,-218.43 87.12,-189.64"/>
<polygon fill="black" stroke="black" points="90.44,-190.77 90.98,-180.19 83.96,-188.12 90.44,-190.77"/>
</g>
<!-- ast.Name object at 0x7f47dc72a530 -->
<g id="node10" class="node">
<title>ast.Name object at 0x7f47dc72a530</title>
<path fill="#66cdaa" stroke="black" d="M262.5,-396C262.5,-396 227.5,-396 227.5,-396 221.5,-396 215.5,-390 215.5,-384 215.5,-384 215.5,-372 215.5,-372 215.5,-366 221.5,-360 227.5,-360 227.5,-360 262.5,-360 262.5,-360 268.5,-360 274.5,-366 274.5,-372 274.5,-372 274.5,-384 274.5,-384 274.5,-390 268.5,-396 262.5,-396"/>
<text text-anchor="middle" x="245" y="-374.3" font-family="Times,serif" font-size="14.00">Name</text>
</g>
<!-- ast.For object at 0x7f47dc728460&#45;&gt;ast.Name object at 0x7f47dc72a530 -->
<g id="edge9" class="edge">
<title>ast.For object at 0x7f47dc728460&#45;&gt;ast.Name object at 0x7f47dc72a530</title>
<path fill="none" stroke="black" d="M272.85,-431.7C268.6,-423.64 263.44,-413.89 258.73,-404.98"/>
<polygon fill="black" stroke="black" points="261.81,-403.31 254.04,-396.1 255.62,-406.58 261.81,-403.31"/>
</g>
<!-- ast.Call object at 0x7f47dc72b340 -->
<g id="node11" class="node">
<title>ast.Call object at 0x7f47dc72b340</title>
<path fill="#66cdaa" stroke="black" d="M667,-396C667,-396 637,-396 637,-396 631,-396 625,-390 625,-384 625,-384 625,-372 625,-372 625,-366 631,-360 637,-360 637,-360 667,-360 667,-360 673,-360 679,-366 679,-372 679,-372 679,-384 679,-384 679,-390 673,-396 667,-396"/>
<text text-anchor="middle" x="652" y="-374.3" font-family="Times,serif" font-size="14.00">Call</text>
</g>
<!-- ast.For object at 0x7f47dc728460&#45;&gt;ast.Call object at 0x7f47dc72b340 -->
<g id="edge11" class="edge">
<title>ast.For object at 0x7f47dc728460&#45;&gt;ast.Call object at 0x7f47dc72b340</title>
<path fill="none" stroke="black" d="M309.21,-443.85C374.56,-431.49 540.46,-400.1 614.88,-386.02"/>
<polygon fill="black" stroke="black" points="615.58,-389.45 624.75,-384.15 614.28,-382.57 615.58,-389.45"/>
</g>
<!-- ast.If object at 0x7f47dc72b760 -->
<g id="node19" class="node">
<title>ast.If object at 0x7f47dc72b760</title>
<path fill="#66cdaa" stroke="black" d="M335,-396C335,-396 305,-396 305,-396 299,-396 293,-390 293,-384 293,-384 293,-372 293,-372 293,-366 299,-360 305,-360 305,-360 335,-360 335,-360 341,-360 347,-366 347,-372 347,-372 347,-384 347,-384 347,-390 341,-396 335,-396"/>
<text text-anchor="middle" x="320" y="-374.3" font-family="Times,serif" font-size="14.00">If</text>
</g>
<!-- ast.For object at 0x7f47dc728460&#45;&gt;ast.If object at 0x7f47dc72b760 -->
<g id="edge19" class="edge">
<title>ast.For object at 0x7f47dc728460&#45;&gt;ast.If object at 0x7f47dc72b760</title>
<path fill="none" stroke="black" d="M291.39,-431.7C295.76,-423.64 301.06,-413.89 305.9,-404.98"/>
<polygon fill="black" stroke="black" points="309.02,-406.56 310.71,-396.1 302.87,-403.22 309.02,-406.56"/>
</g>
<!-- ast.Name object at 0x7f47dc72a530&#45;&gt;ast.Store object at 0x7f47f75b17b0 -->
<g id="edge10" class="edge">
<title>ast.Name object at 0x7f47dc72a530&#45;&gt;ast.Store object at 0x7f47f75b17b0</title>
<path fill="none" stroke="black" d="M220,-359.81C190.57,-338.19 142.49,-298.24 117,-252 106.48,-232.92 101.78,-208.56 99.68,-190.15"/>
<polygon fill="black" stroke="black" points="103.16,-189.71 98.72,-180.09 96.19,-190.37 103.16,-189.71"/>
</g>
<!-- ast.Name object at 0x7f47dc72b700 -->
<g id="node12" class="node">
<title>ast.Name object at 0x7f47dc72b700</title>
<path fill="#66cdaa" stroke="black" d="M769.5,-180C769.5,-180 734.5,-180 734.5,-180 728.5,-180 722.5,-174 722.5,-168 722.5,-168 722.5,-156 722.5,-156 722.5,-150 728.5,-144 734.5,-144 734.5,-144 769.5,-144 769.5,-144 775.5,-144 781.5,-150 781.5,-156 781.5,-156 781.5,-168 781.5,-168 781.5,-174 775.5,-180 769.5,-180"/>
<text text-anchor="middle" x="752" y="-158.3" font-family="Times,serif" font-size="14.00">Name</text>
</g>
<!-- ast.Call object at 0x7f47dc72b340&#45;&gt;ast.Name object at 0x7f47dc72b700 -->
<g id="edge12" class="edge">
<title>ast.Call object at 0x7f47dc72b340&#45;&gt;ast.Name object at 0x7f47dc72b700</title>
<path fill="none" stroke="black" d="M659.1,-359.84C667.57,-340.8 683.11,-309.87 703,-288 721.67,-267.48 741.24,-276.63 754,-252 763.85,-232.98 762.45,-208.48 759.1,-190"/>
<polygon fill="black" stroke="black" points="762.51,-189.22 757.03,-180.16 755.66,-190.67 762.51,-189.22"/>
</g>
<!-- ast.Constant object at 0x7f47dc72b5e0 -->
<g id="node14" class="node">
<title>ast.Constant object at 0x7f47dc72b5e0</title>
<path fill="#66cdaa" stroke="black" d="M781.5,-324C781.5,-324 724.5,-324 724.5,-324 718.5,-324 712.5,-318 712.5,-312 712.5,-312 712.5,-300 712.5,-300 712.5,-294 718.5,-288 724.5,-288 724.5,-288 781.5,-288 781.5,-288 787.5,-288 793.5,-294 793.5,-300 793.5,-300 793.5,-312 793.5,-312 793.5,-318 787.5,-324 781.5,-324"/>
<text text-anchor="middle" x="753" y="-302.3" font-family="Times,serif" font-size="14.00">Constant</text>
</g>
<!-- ast.Call object at 0x7f47dc72b340&#45;&gt;ast.Constant object at 0x7f47dc72b5e0 -->
<g id="edge14" class="edge">
<title>ast.Call object at 0x7f47dc72b340&#45;&gt;ast.Constant object at 0x7f47dc72b5e0</title>
<path fill="none" stroke="black" d="M676.71,-359.88C689.67,-350.89 705.73,-339.76 719.77,-330.03"/>
<polygon fill="black" stroke="black" points="721.97,-332.76 728.2,-324.19 717.98,-327.01 721.97,-332.76"/>
</g>
<!-- ast.BinOp object at 0x7f47dc72a050 -->
<g id="node15" class="node">
<title>ast.BinOp object at 0x7f47dc72a050</title>
<path fill="#66cdaa" stroke="black" d="M639.5,-324C639.5,-324 602.5,-324 602.5,-324 596.5,-324 590.5,-318 590.5,-312 590.5,-312 590.5,-300 590.5,-300 590.5,-294 596.5,-288 602.5,-288 602.5,-288 639.5,-288 639.5,-288 645.5,-288 651.5,-294 651.5,-300 651.5,-300 651.5,-312 651.5,-312 651.5,-318 645.5,-324 639.5,-324"/>
<text text-anchor="middle" x="621" y="-302.3" font-family="Times,serif" font-size="14.00">BinOp</text>
</g>
<!-- ast.Call object at 0x7f47dc72b340&#45;&gt;ast.BinOp object at 0x7f47dc72a050 -->
<g id="edge15" class="edge">
<title>ast.Call object at 0x7f47dc72b340&#45;&gt;ast.BinOp object at 0x7f47dc72a050</title>
<path fill="none" stroke="black" d="M644.34,-359.7C640.81,-351.73 636.54,-342.1 632.63,-333.26"/>
<polygon fill="black" stroke="black" points="635.82,-331.83 628.57,-324.1 629.42,-334.67 635.82,-331.83"/>
</g>
<!-- ast.Load object at 0x7f47f75b1750 -->
<g id="node13" class="node">
<title>ast.Load object at 0x7f47f75b1750</title>
<path fill="#66cdaa" stroke="black" d="M584,-36C584,-36 554,-36 554,-36 548,-36 542,-30 542,-24 542,-24 542,-12 542,-12 542,-6 548,0 554,0 554,0 584,0 584,0 590,0 596,-6 596,-12 596,-12 596,-24 596,-24 596,-30 590,-36 584,-36"/>
<text text-anchor="middle" x="569" y="-14.3" font-family="Times,serif" font-size="14.00">Load</text>
</g>
<!-- ast.Name object at 0x7f47dc72b700&#45;&gt;ast.Load object at 0x7f47f75b1750 -->
<g id="edge13" class="edge">
<title>ast.Name object at 0x7f47dc72b700&#45;&gt;ast.Load object at 0x7f47f75b1750</title>
<path fill="none" stroke="black" d="M748.74,-143.92C744.11,-124.07 733.76,-91.54 713,-72 683.42,-44.15 637.98,-30.68 606.08,-24.33"/>
<polygon fill="black" stroke="black" points="606.7,-20.89 596.23,-22.51 605.43,-27.77 606.7,-20.89"/>
</g>
<!-- ast.Constant object at 0x7f47dc72b3d0 -->
<g id="node16" class="node">
<title>ast.Constant object at 0x7f47dc72b3d0</title>
<path fill="#66cdaa" stroke="black" d="M733.5,-252C733.5,-252 676.5,-252 676.5,-252 670.5,-252 664.5,-246 664.5,-240 664.5,-240 664.5,-228 664.5,-228 664.5,-222 670.5,-216 676.5,-216 676.5,-216 733.5,-216 733.5,-216 739.5,-216 745.5,-222 745.5,-228 745.5,-228 745.5,-240 745.5,-240 745.5,-246 739.5,-252 733.5,-252"/>
<text text-anchor="middle" x="705" y="-230.3" font-family="Times,serif" font-size="14.00">Constant</text>
</g>
<!-- ast.BinOp object at 0x7f47dc72a050&#45;&gt;ast.Constant object at 0x7f47dc72b3d0 -->
<g id="edge16" class="edge">
<title>ast.BinOp object at 0x7f47dc72a050&#45;&gt;ast.Constant object at 0x7f47dc72b3d0</title>
<path fill="none" stroke="black" d="M641.76,-287.7C652.24,-278.97 665.11,-268.24 676.5,-258.75"/>
<polygon fill="black" stroke="black" points="679.03,-261.19 684.47,-252.1 674.55,-255.82 679.03,-261.19"/>
</g>
<!-- ast.Add object at 0x7f47f75b1990 -->
<g id="node17" class="node">
<title>ast.Add object at 0x7f47f75b1990</title>
<path fill="#66cdaa" stroke="black" d="M535,-252C535,-252 505,-252 505,-252 499,-252 493,-246 493,-240 493,-240 493,-228 493,-228 493,-222 499,-216 505,-216 505,-216 535,-216 535,-216 541,-216 547,-222 547,-228 547,-228 547,-240 547,-240 547,-246 541,-252 535,-252"/>
<text text-anchor="middle" x="520" y="-230.3" font-family="Times,serif" font-size="14.00">Add</text>
</g>
<!-- ast.BinOp object at 0x7f47dc72a050&#45;&gt;ast.Add object at 0x7f47f75b1990 -->
<g id="edge17" class="edge">
<title>ast.BinOp object at 0x7f47dc72a050&#45;&gt;ast.Add object at 0x7f47f75b1990</title>
<path fill="none" stroke="black" d="M596.29,-287.88C583.33,-278.89 567.27,-267.76 553.23,-258.03"/>
<polygon fill="black" stroke="black" points="555.02,-255.01 544.8,-252.19 551.03,-260.76 555.02,-255.01"/>
</g>
<!-- ast.Constant object at 0x7f47dc72ad70 -->
<g id="node18" class="node">
<title>ast.Constant object at 0x7f47dc72ad70</title>
<path fill="#66cdaa" stroke="black" d="M634.5,-252C634.5,-252 577.5,-252 577.5,-252 571.5,-252 565.5,-246 565.5,-240 565.5,-240 565.5,-228 565.5,-228 565.5,-222 571.5,-216 577.5,-216 577.5,-216 634.5,-216 634.5,-216 640.5,-216 646.5,-222 646.5,-228 646.5,-228 646.5,-240 646.5,-240 646.5,-246 640.5,-252 634.5,-252"/>
<text text-anchor="middle" x="606" y="-230.3" font-family="Times,serif" font-size="14.00">Constant</text>
</g>
<!-- ast.BinOp object at 0x7f47dc72a050&#45;&gt;ast.Constant object at 0x7f47dc72ad70 -->
<g id="edge18" class="edge">
<title>ast.BinOp object at 0x7f47dc72a050&#45;&gt;ast.Constant object at 0x7f47dc72ad70</title>
<path fill="none" stroke="black" d="M617.29,-287.7C615.64,-279.98 613.65,-270.71 611.81,-262.11"/>
<polygon fill="black" stroke="black" points="615.18,-261.15 609.67,-252.1 608.34,-262.62 615.18,-261.15"/>
</g>
<!-- ast.Compare object at 0x7f47dc72a470 -->
<g id="node20" class="node">
<title>ast.Compare object at 0x7f47dc72a470</title>
<path fill="#66cdaa" stroke="black" d="M339.5,-324C339.5,-324 282.5,-324 282.5,-324 276.5,-324 270.5,-318 270.5,-312 270.5,-312 270.5,-300 270.5,-300 270.5,-294 276.5,-288 282.5,-288 282.5,-288 339.5,-288 339.5,-288 345.5,-288 351.5,-294 351.5,-300 351.5,-300 351.5,-312 351.5,-312 351.5,-318 345.5,-324 339.5,-324"/>
<text text-anchor="middle" x="311" y="-302.3" font-family="Times,serif" font-size="14.00">Compare</text>
</g>
<!-- ast.If object at 0x7f47dc72b760&#45;&gt;ast.Compare object at 0x7f47dc72a470 -->
<g id="edge20" class="edge">
<title>ast.If object at 0x7f47dc72b760&#45;&gt;ast.Compare object at 0x7f47dc72a470</title>
<path fill="none" stroke="black" d="M317.78,-359.7C316.78,-351.98 315.59,-342.71 314.49,-334.11"/>
<polygon fill="black" stroke="black" points="317.95,-333.58 313.2,-324.1 311,-334.47 317.95,-333.58"/>
</g>
<!-- ast.AugAssign object at 0x7f47dc72ab60 -->
<g id="node29" class="node">
<title>ast.AugAssign object at 0x7f47dc72ab60</title>
<path fill="#66cdaa" stroke="black" d="M475,-324C475,-324 407,-324 407,-324 401,-324 395,-318 395,-312 395,-312 395,-300 395,-300 395,-294 401,-288 407,-288 407,-288 475,-288 475,-288 481,-288 487,-294 487,-300 487,-300 487,-312 487,-312 487,-318 481,-324 475,-324"/>
<text text-anchor="middle" x="441" y="-302.3" font-family="Times,serif" font-size="14.00">AugAssign</text>
</g>
<!-- ast.If object at 0x7f47dc72b760&#45;&gt;ast.AugAssign object at 0x7f47dc72ab60 -->
<g id="edge32" class="edge">
<title>ast.If object at 0x7f47dc72b760&#45;&gt;ast.AugAssign object at 0x7f47dc72ab60</title>
<path fill="none" stroke="black" d="M347.15,-361.29C363.41,-351.89 384.34,-339.78 402.31,-329.38"/>
<polygon fill="black" stroke="black" points="404.49,-332.16 411.39,-324.13 400.99,-326.11 404.49,-332.16"/>
</g>
<!-- ast.BinOp object at 0x7f47dc728970 -->
<g id="node21" class="node">
<title>ast.BinOp object at 0x7f47dc728970</title>
<path fill="#66cdaa" stroke="black" d="M424.5,-252C424.5,-252 387.5,-252 387.5,-252 381.5,-252 375.5,-246 375.5,-240 375.5,-240 375.5,-228 375.5,-228 375.5,-222 381.5,-216 387.5,-216 387.5,-216 424.5,-216 424.5,-216 430.5,-216 436.5,-222 436.5,-228 436.5,-228 436.5,-240 436.5,-240 436.5,-246 430.5,-252 424.5,-252"/>
<text text-anchor="middle" x="406" y="-230.3" font-family="Times,serif" font-size="14.00">BinOp</text>
</g>
<!-- ast.Compare object at 0x7f47dc72a470&#45;&gt;ast.BinOp object at 0x7f47dc728970 -->
<g id="edge21" class="edge">
<title>ast.Compare object at 0x7f47dc72a470&#45;&gt;ast.BinOp object at 0x7f47dc728970</title>
<path fill="none" stroke="black" d="M334.48,-287.7C346.56,-278.8 361.45,-267.82 374.52,-258.2"/>
<polygon fill="black" stroke="black" points="376.81,-260.85 382.79,-252.1 372.66,-255.22 376.81,-260.85"/>
</g>
<!-- ast.Eq object at 0x7f47f75b2080 -->
<g id="node27" class="node">
<title>ast.Eq object at 0x7f47f75b2080</title>
<path fill="#66cdaa" stroke="black" d="M268,-252C268,-252 238,-252 238,-252 232,-252 226,-246 226,-240 226,-240 226,-228 226,-228 226,-222 232,-216 238,-216 238,-216 268,-216 268,-216 274,-216 280,-222 280,-228 280,-228 280,-240 280,-240 280,-246 274,-252 268,-252"/>
<text text-anchor="middle" x="253" y="-230.3" font-family="Times,serif" font-size="14.00">Eq</text>
</g>
<!-- ast.Compare object at 0x7f47dc72a470&#45;&gt;ast.Eq object at 0x7f47f75b2080 -->
<g id="edge30" class="edge">
<title>ast.Compare object at 0x7f47dc72a470&#45;&gt;ast.Eq object at 0x7f47f75b2080</title>
<path fill="none" stroke="black" d="M296.66,-287.7C289.71,-279.3 281.23,-269.07 273.6,-259.86"/>
<polygon fill="black" stroke="black" points="276.25,-257.57 267.17,-252.1 270.86,-262.04 276.25,-257.57"/>
</g>
<!-- ast.Constant object at 0x7f47dc72a320 -->
<g id="node28" class="node">
<title>ast.Constant object at 0x7f47dc72a320</title>
<path fill="#66cdaa" stroke="black" d="M195.5,-252C195.5,-252 138.5,-252 138.5,-252 132.5,-252 126.5,-246 126.5,-240 126.5,-240 126.5,-228 126.5,-228 126.5,-222 132.5,-216 138.5,-216 138.5,-216 195.5,-216 195.5,-216 201.5,-216 207.5,-222 207.5,-228 207.5,-228 207.5,-240 207.5,-240 207.5,-246 201.5,-252 195.5,-252"/>
<text text-anchor="middle" x="167" y="-230.3" font-family="Times,serif" font-size="14.00">Constant</text>
</g>
<!-- ast.Compare object at 0x7f47dc72a470&#45;&gt;ast.Constant object at 0x7f47dc72a320 -->
<g id="edge31" class="edge">
<title>ast.Compare object at 0x7f47dc72a470&#45;&gt;ast.Constant object at 0x7f47dc72a320</title>
<path fill="none" stroke="black" d="M275.77,-287.88C256.42,-278.47 232.23,-266.71 211.57,-256.67"/>
<polygon fill="black" stroke="black" points="212.89,-253.41 202.36,-252.19 209.83,-259.71 212.89,-253.41"/>
</g>
<!-- ast.Subscript object at 0x7f47dc72bb80 -->
<g id="node22" class="node">
<title>ast.Subscript object at 0x7f47dc72bb80</title>
<path fill="#66cdaa" stroke="black" d="M355,-180C355,-180 293,-180 293,-180 287,-180 281,-174 281,-168 281,-168 281,-156 281,-156 281,-150 287,-144 293,-144 293,-144 355,-144 355,-144 361,-144 367,-150 367,-156 367,-156 367,-168 367,-168 367,-174 361,-180 355,-180"/>
<text text-anchor="middle" x="324" y="-158.3" font-family="Times,serif" font-size="14.00">Subscript</text>
</g>
<!-- ast.BinOp object at 0x7f47dc728970&#45;&gt;ast.Subscript object at 0x7f47dc72bb80 -->
<g id="edge22" class="edge">
<title>ast.BinOp object at 0x7f47dc728970&#45;&gt;ast.Subscript object at 0x7f47dc72bb80</title>
<path fill="none" stroke="black" d="M385.73,-215.7C375.5,-206.97 362.94,-196.24 351.82,-186.75"/>
<polygon fill="black" stroke="black" points="353.91,-183.94 344.04,-180.1 349.37,-189.26 353.91,-183.94"/>
</g>
<!-- ast.Mod object at 0x7f47f75b1b70 -->
<g id="node25" class="node">
<title>ast.Mod object at 0x7f47f75b1b70</title>
<path fill="#66cdaa" stroke="black" d="M427,-180C427,-180 397,-180 397,-180 391,-180 385,-174 385,-168 385,-168 385,-156 385,-156 385,-150 391,-144 397,-144 397,-144 427,-144 427,-144 433,-144 439,-150 439,-156 439,-156 439,-168 439,-168 439,-174 433,-180 427,-180"/>
<text text-anchor="middle" x="412" y="-158.3" font-family="Times,serif" font-size="14.00">Mod</text>
</g>
<!-- ast.BinOp object at 0x7f47dc728970&#45;&gt;ast.Mod object at 0x7f47f75b1b70 -->
<g id="edge28" class="edge">
<title>ast.BinOp object at 0x7f47dc728970&#45;&gt;ast.Mod object at 0x7f47f75b1b70</title>
<path fill="none" stroke="black" d="M407.48,-215.7C408.14,-207.98 408.94,-198.71 409.68,-190.11"/>
<polygon fill="black" stroke="black" points="413.17,-190.37 410.53,-180.1 406.19,-189.77 413.17,-190.37"/>
</g>
<!-- ast.Constant object at 0x7f47dc72ab00 -->
<g id="node26" class="node">
<title>ast.Constant object at 0x7f47dc72ab00</title>
<path fill="#66cdaa" stroke="black" d="M526.5,-180C526.5,-180 469.5,-180 469.5,-180 463.5,-180 457.5,-174 457.5,-168 457.5,-168 457.5,-156 457.5,-156 457.5,-150 463.5,-144 469.5,-144 469.5,-144 526.5,-144 526.5,-144 532.5,-144 538.5,-150 538.5,-156 538.5,-156 538.5,-168 538.5,-168 538.5,-174 532.5,-180 526.5,-180"/>
<text text-anchor="middle" x="498" y="-158.3" font-family="Times,serif" font-size="14.00">Constant</text>
</g>
<!-- ast.BinOp object at 0x7f47dc728970&#45;&gt;ast.Constant object at 0x7f47dc72ab00 -->
<g id="edge29" class="edge">
<title>ast.BinOp object at 0x7f47dc728970&#45;&gt;ast.Constant object at 0x7f47dc72ab00</title>
<path fill="none" stroke="black" d="M428.74,-215.7C440.44,-206.8 454.86,-195.82 467.51,-186.2"/>
<polygon fill="black" stroke="black" points="469.68,-188.94 475.52,-180.1 465.44,-183.37 469.68,-188.94"/>
</g>
<!-- ast.Subscript object at 0x7f47dc72bb80&#45;&gt;ast.Load object at 0x7f47f75b1750 -->
<g id="edge27" class="edge">
<title>ast.Subscript object at 0x7f47dc72bb80&#45;&gt;ast.Load object at 0x7f47f75b1750</title>
<path fill="none" stroke="black" d="M326.44,-143.92C330.23,-123.75 339.49,-90.61 361,-72 409.37,-30.16 486.38,-20.6 531.88,-18.84"/>
<polygon fill="black" stroke="black" points="532.01,-22.34 541.91,-18.56 531.81,-15.34 532.01,-22.34"/>
</g>
<!-- ast.Name object at 0x7f47dc72a740 -->
<g id="node23" class="node">
<title>ast.Name object at 0x7f47dc72a740</title>
<path fill="#66cdaa" stroke="black" d="M417.5,-108C417.5,-108 382.5,-108 382.5,-108 376.5,-108 370.5,-102 370.5,-96 370.5,-96 370.5,-84 370.5,-84 370.5,-78 376.5,-72 382.5,-72 382.5,-72 417.5,-72 417.5,-72 423.5,-72 429.5,-78 429.5,-84 429.5,-84 429.5,-96 429.5,-96 429.5,-102 423.5,-108 417.5,-108"/>
<text text-anchor="middle" x="400" y="-86.3" font-family="Times,serif" font-size="14.00">Name</text>
</g>
<!-- ast.Subscript object at 0x7f47dc72bb80&#45;&gt;ast.Name object at 0x7f47dc72a740 -->
<g id="edge23" class="edge">
<title>ast.Subscript object at 0x7f47dc72bb80&#45;&gt;ast.Name object at 0x7f47dc72a740</title>
<path fill="none" stroke="black" d="M342.79,-143.7C352.17,-135.05 363.68,-124.45 373.91,-115.03"/>
<polygon fill="black" stroke="black" points="376.45,-117.45 381.43,-108.1 371.7,-112.3 376.45,-117.45"/>
</g>
<!-- ast.Name object at 0x7f47dc72a890 -->
<g id="node24" class="node">
<title>ast.Name object at 0x7f47dc72a890</title>
<path fill="#66cdaa" stroke="black" d="M497.5,-108C497.5,-108 462.5,-108 462.5,-108 456.5,-108 450.5,-102 450.5,-96 450.5,-96 450.5,-84 450.5,-84 450.5,-78 456.5,-72 462.5,-72 462.5,-72 497.5,-72 497.5,-72 503.5,-72 509.5,-78 509.5,-84 509.5,-84 509.5,-96 509.5,-96 509.5,-102 503.5,-108 497.5,-108"/>
<text text-anchor="middle" x="480" y="-86.3" font-family="Times,serif" font-size="14.00">Name</text>
</g>
<!-- ast.Subscript object at 0x7f47dc72bb80&#45;&gt;ast.Name object at 0x7f47dc72a890 -->
<g id="edge25" class="edge">
<title>ast.Subscript object at 0x7f47dc72bb80&#45;&gt;ast.Name object at 0x7f47dc72a890</title>
<path fill="none" stroke="black" d="M362.16,-143.88C386.05,-133.16 416.76,-119.38 440.83,-108.57"/>
<polygon fill="black" stroke="black" points="442.35,-111.73 450.04,-104.44 439.48,-105.34 442.35,-111.73"/>
</g>
<!-- ast.Name object at 0x7f47dc72a740&#45;&gt;ast.Load object at 0x7f47f75b1750 -->
<g id="edge24" class="edge">
<title>ast.Name object at 0x7f47dc72a740&#45;&gt;ast.Load object at 0x7f47f75b1750</title>
<path fill="none" stroke="black" d="M429.56,-76.74C433.41,-75.15 437.3,-73.53 441,-72 471.74,-59.26 506.63,-44.82 532.21,-34.23"/>
<polygon fill="black" stroke="black" points="533.63,-37.43 541.53,-30.37 530.95,-30.96 533.63,-37.43"/>
</g>
<!-- ast.Name object at 0x7f47dc72a890&#45;&gt;ast.Load object at 0x7f47f75b1750 -->
<g id="edge26" class="edge">
<title>ast.Name object at 0x7f47dc72a890&#45;&gt;ast.Load object at 0x7f47f75b1750</title>
<path fill="none" stroke="black" d="M502,-71.7C513.21,-62.88 527,-52.03 539.15,-42.47"/>
<polygon fill="black" stroke="black" points="541.56,-45.04 547.25,-36.1 537.23,-39.54 541.56,-45.04"/>
</g>
<!-- ast.AugAssign object at 0x7f47dc72ab60&#45;&gt;ast.Add object at 0x7f47f75b1990 -->
<g id="edge35" class="edge">
<title>ast.AugAssign object at 0x7f47dc72ab60&#45;&gt;ast.Add object at 0x7f47f75b1990</title>
<path fill="none" stroke="black" d="M460.53,-287.7C470.38,-278.97 482.49,-268.24 493.2,-258.75"/>
<polygon fill="black" stroke="black" points="495.53,-261.36 500.7,-252.1 490.89,-256.12 495.53,-261.36"/>
</g>
<!-- ast.Name object at 0x7f47dc72b3a0 -->
<g id="node30" class="node">
<title>ast.Name object at 0x7f47dc72b3a0</title>
<path fill="#66cdaa" stroke="black" d="M345.5,-252C345.5,-252 310.5,-252 310.5,-252 304.5,-252 298.5,-246 298.5,-240 298.5,-240 298.5,-228 298.5,-228 298.5,-222 304.5,-216 310.5,-216 310.5,-216 345.5,-216 345.5,-216 351.5,-216 357.5,-222 357.5,-228 357.5,-228 357.5,-240 357.5,-240 357.5,-246 351.5,-252 345.5,-252"/>
<text text-anchor="middle" x="328" y="-230.3" font-family="Times,serif" font-size="14.00">Name</text>
</g>
<!-- ast.AugAssign object at 0x7f47dc72ab60&#45;&gt;ast.Name object at 0x7f47dc72b3a0 -->
<g id="edge33" class="edge">
<title>ast.AugAssign object at 0x7f47dc72ab60&#45;&gt;ast.Name object at 0x7f47dc72b3a0</title>
<path fill="none" stroke="black" d="M413.36,-287.88C398.58,-278.72 380.21,-267.34 364.3,-257.48"/>
<polygon fill="black" stroke="black" points="366.09,-254.48 355.75,-252.19 362.41,-260.43 366.09,-254.48"/>
</g>
<!-- ast.Subscript object at 0x7f47dc72b550 -->
<g id="node31" class="node">
<title>ast.Subscript object at 0x7f47dc72b550</title>
<path fill="#66cdaa" stroke="black" d="M631,-180C631,-180 569,-180 569,-180 563,-180 557,-174 557,-168 557,-168 557,-156 557,-156 557,-150 563,-144 569,-144 569,-144 631,-144 631,-144 637,-144 643,-150 643,-156 643,-156 643,-168 643,-168 643,-174 637,-180 631,-180"/>
<text text-anchor="middle" x="600" y="-158.3" font-family="Times,serif" font-size="14.00">Subscript</text>
</g>
<!-- ast.AugAssign object at 0x7f47dc72ab60&#45;&gt;ast.Subscript object at 0x7f47dc72b550 -->
<g id="edge36" class="edge">
<title>ast.AugAssign object at 0x7f47dc72ab60&#45;&gt;ast.Subscript object at 0x7f47dc72b550</title>
<path fill="none" stroke="black" d="M445.45,-287.83C451.32,-268.19 463.4,-236.17 484,-216 493.87,-206.34 521.64,-193.52 547.54,-182.91"/>
<polygon fill="black" stroke="black" points="548.99,-186.09 556.96,-179.11 546.37,-179.6 548.99,-186.09"/>
</g>
<!-- ast.Name object at 0x7f47dc72b3a0&#45;&gt;ast.Store object at 0x7f47f75b17b0 -->
<g id="edge34" class="edge">
<title>ast.Name object at 0x7f47dc72b3a0&#45;&gt;ast.Store object at 0x7f47f75b17b0</title>
<path fill="none" stroke="black" d="M298.36,-219.57C295.23,-218.3 292.06,-217.09 289,-216 236.9,-197.52 174.97,-181.36 136.07,-171.89"/>
<polygon fill="black" stroke="black" points="136.76,-168.46 126.22,-169.51 135.12,-175.26 136.76,-168.46"/>
</g>
<!-- ast.Subscript object at 0x7f47dc72b550&#45;&gt;ast.Load object at 0x7f47f75b1750 -->
<g id="edge41" class="edge">
<title>ast.Subscript object at 0x7f47dc72b550&#45;&gt;ast.Load object at 0x7f47f75b1750</title>
<path fill="none" stroke="black" d="M581.83,-143.68C573.12,-134.1 563.59,-121.43 559,-108 552.15,-87.95 555.43,-64.03 559.99,-46.04"/>
<polygon fill="black" stroke="black" points="563.41,-46.78 562.76,-36.21 556.68,-44.88 563.41,-46.78"/>
</g>
<!-- ast.Name object at 0x7f47dc72a950 -->
<g id="node32" class="node">
<title>ast.Name object at 0x7f47dc72a950</title>
<path fill="#66cdaa" stroke="black" d="M615.5,-108C615.5,-108 580.5,-108 580.5,-108 574.5,-108 568.5,-102 568.5,-96 568.5,-96 568.5,-84 568.5,-84 568.5,-78 574.5,-72 580.5,-72 580.5,-72 615.5,-72 615.5,-72 621.5,-72 627.5,-78 627.5,-84 627.5,-84 627.5,-96 627.5,-96 627.5,-102 621.5,-108 615.5,-108"/>
<text text-anchor="middle" x="598" y="-86.3" font-family="Times,serif" font-size="14.00">Name</text>
</g>
<!-- ast.Subscript object at 0x7f47dc72b550&#45;&gt;ast.Name object at 0x7f47dc72a950 -->
<g id="edge37" class="edge">
<title>ast.Subscript object at 0x7f47dc72b550&#45;&gt;ast.Name object at 0x7f47dc72a950</title>
<path fill="none" stroke="black" d="M599.51,-143.7C599.29,-135.98 599.02,-126.71 598.77,-118.11"/>
<polygon fill="black" stroke="black" points="602.27,-118 598.49,-108.1 595.28,-118.2 602.27,-118"/>
</g>
<!-- ast.Name object at 0x7f47dc72b5b0 -->
<g id="node33" class="node">
<title>ast.Name object at 0x7f47dc72b5b0</title>
<path fill="#66cdaa" stroke="black" d="M692.5,-108C692.5,-108 657.5,-108 657.5,-108 651.5,-108 645.5,-102 645.5,-96 645.5,-96 645.5,-84 645.5,-84 645.5,-78 651.5,-72 657.5,-72 657.5,-72 692.5,-72 692.5,-72 698.5,-72 704.5,-78 704.5,-84 704.5,-84 704.5,-96 704.5,-96 704.5,-102 698.5,-108 692.5,-108"/>
<text text-anchor="middle" x="675" y="-86.3" font-family="Times,serif" font-size="14.00">Name</text>
</g>
<!-- ast.Subscript object at 0x7f47dc72b550&#45;&gt;ast.Name object at 0x7f47dc72b5b0 -->
<g id="edge39" class="edge">
<title>ast.Subscript object at 0x7f47dc72b550&#45;&gt;ast.Name object at 0x7f47dc72b5b0</title>
<path fill="none" stroke="black" d="M618.54,-143.7C627.8,-135.05 639.16,-124.45 649.26,-115.03"/>
<polygon fill="black" stroke="black" points="651.75,-117.49 656.67,-108.1 646.98,-112.37 651.75,-117.49"/>
</g>
<!-- ast.Name object at 0x7f47dc72a950&#45;&gt;ast.Load object at 0x7f47f75b1750 -->
<g id="edge38" class="edge">
<title>ast.Name object at 0x7f47dc72a950&#45;&gt;ast.Load object at 0x7f47f75b1750</title>
<path fill="none" stroke="black" d="M590.83,-71.7C587.57,-63.81 583.63,-54.3 580,-45.55"/>
<polygon fill="black" stroke="black" points="583.15,-44 576.09,-36.1 576.68,-46.68 583.15,-44"/>
</g>
<!-- ast.Name object at 0x7f47dc72b5b0&#45;&gt;ast.Load object at 0x7f47f75b1750 -->
<g id="edge40" class="edge">
<title>ast.Name object at 0x7f47dc72b5b0&#45;&gt;ast.Load object at 0x7f47f75b1750</title>
<path fill="none" stroke="black" d="M649.07,-71.88C635.34,-62.81 618.29,-51.55 603.46,-41.76"/>
<polygon fill="black" stroke="black" points="605.3,-38.78 595.03,-36.19 601.45,-44.62 605.3,-38.78"/>
</g>
<!-- ast.Name object at 0x7f47dc72b4f0 -->
<g id="node35" class="node">
<title>ast.Name object at 0x7f47dc72b4f0</title>
<path fill="#66cdaa" stroke="black" d="M828.5,-108C828.5,-108 793.5,-108 793.5,-108 787.5,-108 781.5,-102 781.5,-96 781.5,-96 781.5,-84 781.5,-84 781.5,-78 787.5,-72 793.5,-72 793.5,-72 828.5,-72 828.5,-72 834.5,-72 840.5,-78 840.5,-84 840.5,-84 840.5,-96 840.5,-96 840.5,-102 834.5,-108 828.5,-108"/>
<text text-anchor="middle" x="811" y="-86.3" font-family="Times,serif" font-size="14.00">Name</text>
</g>
<!-- ast.Return object at 0x7f47dc72bd90&#45;&gt;ast.Name object at 0x7f47dc72b4f0 -->
<g id="edge43" class="edge">
<title>ast.Return object at 0x7f47dc72bd90&#45;&gt;ast.Name object at 0x7f47dc72b4f0</title>
<path fill="none" stroke="black" d="M666.35,-440.47C720.61,-424.36 822,-383.95 822,-307 822,-307 822,-307 822,-233 822,-192.88 817.58,-146.57 814.34,-118.03"/>
<polygon fill="black" stroke="black" points="817.81,-117.54 813.17,-108.02 810.86,-118.36 817.81,-117.54"/>
</g>
<!-- ast.Name object at 0x7f47dc72b4f0&#45;&gt;ast.Load object at 0x7f47f75b1750 -->
<g id="edge44" class="edge">
<title>ast.Name object at 0x7f47dc72b4f0&#45;&gt;ast.Load object at 0x7f47f75b1750</title>
<path fill="none" stroke="black" d="M781.42,-78.85C774.42,-76.53 766.96,-74.12 760,-72 706.67,-55.72 644.34,-38.82 605.76,-28.6"/>
<polygon fill="black" stroke="black" points="606.57,-25.2 596.01,-26.03 604.79,-31.97 606.57,-25.2"/>
</g>
</g>
</svg>
