<?xml version="1.0" encoding="UTF-8" standalone="no"?>
<!DOCTYPE svg PUBLIC "-//W3C//DTD SVG 1.1//EN"
 "http://www.w3.org/Graphics/SVG/1.1/DTD/svg11.dtd">
<!-- Generated by graphviz version 2.43.0 (0)
 -->
<!-- Title: %3 Pages: 1 -->
<svg width="934pt" height="620pt"
 viewBox="0.00 0.00 933.89 620.00" xmlns="http://www.w3.org/2000/svg" xmlns:xlink="http://www.w3.org/1999/xlink">
<g id="graph0" class="graph" transform="scale(1 1) rotate(0) translate(4 616)">
<title>%3</title>
<polygon fill="white" stroke="transparent" points="-4,4 -4,-616 929.89,-616 929.89,4 -4,4"/>
<!-- ast.Module object at 0x7f447e0c48b0 -->
<g id="node1" class="node">
<title>ast.Module object at 0x7f447e0c48b0</title>
<path fill="#66cdaa" stroke="black" d="M199.5,-612C199.5,-612 164.5,-612 164.5,-612 158.5,-612 152.5,-606 152.5,-600 152.5,-600 152.5,-588 152.5,-588 152.5,-582 158.5,-576 164.5,-576 164.5,-576 199.5,-576 199.5,-576 205.5,-576 211.5,-582 211.5,-588 211.5,-588 211.5,-600 211.5,-600 211.5,-606 205.5,-612 199.5,-612"/>
<text text-anchor="middle" x="182" y="-590.3" font-family="Times,serif" font-size="14.00">Module</text>
</g>
<!-- ast.FunctionDef object at 0x7f447e0c44f0 -->
<g id="node2" class="node">
<title>ast.FunctionDef object at 0x7f447e0c44f0</title>
<path fill="#66cdaa" stroke="black" d="M212.5,-540C212.5,-540 151.5,-540 151.5,-540 145.5,-540 139.5,-534 139.5,-528 139.5,-528 139.5,-516 139.5,-516 139.5,-510 145.5,-504 151.5,-504 151.5,-504 212.5,-504 212.5,-504 218.5,-504 224.5,-510 224.5,-516 224.5,-516 224.5,-528 224.5,-528 224.5,-534 218.5,-540 212.5,-540"/>
<text text-anchor="middle" x="182" y="-518.3" font-family="Times,serif" font-size="14.00">FunctionDef</text>
</g>
<!-- ast.Module object at 0x7f447e0c48b0&#45;&gt;ast.FunctionDef object at 0x7f447e0c44f0 -->
<g id="edge1" class="edge">
<title>ast.Module object at 0x7f447e0c48b0&#45;&gt;ast.FunctionDef object at 0x7f447e0c44f0</title>
<path fill="none" stroke="black" d="M182,-575.7C182,-567.98 182,-558.71 182,-550.11"/>
<polygon fill="black" stroke="black" points="185.5,-550.1 182,-540.1 178.5,-550.1 185.5,-550.1"/>
</g>
<!-- ast.arguments object at 0x7f447e0c4eb0 -->
<g id="node3" class="node">
<title>ast.arguments object at 0x7f447e0c4eb0</title>
<path fill="#66cdaa" stroke="black" d="M69,-468C69,-468 19,-468 19,-468 13,-468 7,-462 7,-456 7,-456 7,-444 7,-444 7,-438 13,-432 19,-432 19,-432 69,-432 69,-432 75,-432 81,-438 81,-444 81,-444 81,-456 81,-456 81,-462 75,-468 69,-468"/>
<text text-anchor="middle" x="44" y="-446.3" font-family="Times,serif" font-size="14.00">arguments</text>
</g>
<!-- ast.FunctionDef object at 0x7f447e0c44f0&#45;&gt;ast.arguments object at 0x7f447e0c4eb0 -->
<g id="edge2" class="edge">
<title>ast.FunctionDef object at 0x7f447e0c44f0&#45;&gt;ast.arguments object at 0x7f447e0c4eb0</title>
<path fill="none" stroke="black" d="M148.24,-503.88C129.78,-494.51 106.72,-482.81 86.98,-472.8"/>
<polygon fill="black" stroke="black" points="88.39,-469.59 77.89,-468.19 85.22,-475.83 88.39,-469.59"/>
</g>
<!-- ast.Assign object at 0x7f447e0c5c00 -->
<g id="node5" class="node">
<title>ast.Assign object at 0x7f447e0c5c00</title>
<path fill="#66cdaa" stroke="black" d="M158,-468C158,-468 128,-468 128,-468 122,-468 116,-462 116,-456 116,-456 116,-444 116,-444 116,-438 122,-432 128,-432 128,-432 158,-432 158,-432 164,-432 170,-438 170,-444 170,-444 170,-456 170,-456 170,-462 164,-468 158,-468"/>
<text text-anchor="middle" x="143" y="-446.3" font-family="Times,serif" font-size="14.00">Assign</text>
</g>
<!-- ast.FunctionDef object at 0x7f447e0c44f0&#45;&gt;ast.Assign object at 0x7f447e0c5c00 -->
<g id="edge4" class="edge">
<title>ast.FunctionDef object at 0x7f447e0c44f0&#45;&gt;ast.Assign object at 0x7f447e0c5c00</title>
<path fill="none" stroke="black" d="M172.36,-503.7C167.87,-495.64 162.44,-485.89 157.48,-476.98"/>
<polygon fill="black" stroke="black" points="160.45,-475.14 152.53,-468.1 154.34,-478.54 160.45,-475.14"/>
</g>
<!-- ast.For object at 0x7f447e0c4850 -->
<g id="node9" class="node">
<title>ast.For object at 0x7f447e0c4850</title>
<path fill="#66cdaa" stroke="black" d="M272,-468C272,-468 242,-468 242,-468 236,-468 230,-462 230,-456 230,-456 230,-444 230,-444 230,-438 236,-432 242,-432 242,-432 272,-432 272,-432 278,-432 284,-438 284,-444 284,-444 284,-456 284,-456 284,-462 278,-468 272,-468"/>
<text text-anchor="middle" x="257" y="-446.3" font-family="Times,serif" font-size="14.00">For</text>
</g>
<!-- ast.FunctionDef object at 0x7f447e0c44f0&#45;&gt;ast.For object at 0x7f447e0c4850 -->
<g id="edge8" class="edge">
<title>ast.FunctionDef object at 0x7f447e0c44f0&#45;&gt;ast.For object at 0x7f447e0c4850</title>
<path fill="none" stroke="black" d="M200.54,-503.7C209.8,-495.05 221.16,-484.45 231.26,-475.03"/>
<polygon fill="black" stroke="black" points="233.75,-477.49 238.67,-468.1 228.98,-472.37 233.75,-477.49"/>
</g>
<!-- ast.Return object at 0x7f4475cf4400 -->
<g id="node36" class="node">
<title>ast.Return object at 0x7f4475cf4400</title>
<path fill="#66cdaa" stroke="black" d="M644,-468C644,-468 614,-468 614,-468 608,-468 602,-462 602,-456 602,-456 602,-444 602,-444 602,-438 608,-432 614,-432 614,-432 644,-432 644,-432 650,-432 656,-438 656,-444 656,-444 656,-456 656,-456 656,-462 650,-468 644,-468"/>
<text text-anchor="middle" x="629" y="-446.3" font-family="Times,serif" font-size="14.00">Return</text>
</g>
<!-- ast.FunctionDef object at 0x7f447e0c44f0&#45;&gt;ast.Return object at 0x7f4475cf4400 -->
<g id="edge43" class="edge">
<title>ast.FunctionDef object at 0x7f447e0c44f0&#45;&gt;ast.Return object at 0x7f4475cf4400</title>
<path fill="none" stroke="black" d="M224.86,-514.29C312.24,-500.6 509.67,-469.69 591.93,-456.81"/>
<polygon fill="black" stroke="black" points="592.5,-460.26 601.83,-455.25 591.41,-453.34 592.5,-460.26"/>
</g>
<!-- ast.arg object at 0x7f447e0c6bf0 -->
<g id="node4" class="node">
<title>ast.arg object at 0x7f447e0c6bf0</title>
<path fill="#66cdaa" stroke="black" d="M42,-396C42,-396 12,-396 12,-396 6,-396 0,-390 0,-384 0,-384 0,-372 0,-372 0,-366 6,-360 12,-360 12,-360 42,-360 42,-360 48,-360 54,-366 54,-372 54,-372 54,-384 54,-384 54,-390 48,-396 42,-396"/>
<text text-anchor="middle" x="27" y="-374.3" font-family="Times,serif" font-size="14.00">arg</text>
</g>
<!-- ast.arguments object at 0x7f447e0c4eb0&#45;&gt;ast.arg object at 0x7f447e0c6bf0 -->
<g id="edge3" class="edge">
<title>ast.arguments object at 0x7f447e0c4eb0&#45;&gt;ast.arg object at 0x7f447e0c6bf0</title>
<path fill="none" stroke="black" d="M39.8,-431.7C37.9,-423.9 35.62,-414.51 33.52,-405.83"/>
<polygon fill="black" stroke="black" points="36.92,-405 31.15,-396.1 30.11,-406.65 36.92,-405"/>
</g>
<!-- ast.Name object at 0x7f447e0c65f0 -->
<g id="node6" class="node">
<title>ast.Name object at 0x7f447e0c65f0</title>
<path fill="#66cdaa" stroke="black" d="M97,-324C97,-324 67,-324 67,-324 61,-324 55,-318 55,-312 55,-312 55,-300 55,-300 55,-294 61,-288 67,-288 67,-288 97,-288 97,-288 103,-288 109,-294 109,-300 109,-300 109,-312 109,-312 109,-318 103,-324 97,-324"/>
<text text-anchor="middle" x="82" y="-302.3" font-family="Times,serif" font-size="14.00">Name</text>
</g>
<!-- ast.Assign object at 0x7f447e0c5c00&#45;&gt;ast.Name object at 0x7f447e0c65f0 -->
<g id="edge5" class="edge">
<title>ast.Assign object at 0x7f447e0c5c00&#45;&gt;ast.Name object at 0x7f447e0c65f0</title>
<path fill="none" stroke="black" d="M125.96,-431.76C117.25,-422.02 107.2,-409.17 101,-396 91.77,-376.4 86.98,-352.27 84.52,-334.08"/>
<polygon fill="black" stroke="black" points="87.99,-333.65 83.32,-324.14 81.04,-334.49 87.99,-333.65"/>
</g>
<!-- ast.Constant object at 0x7f447e0c5180 -->
<g id="node8" class="node">
<title>ast.Constant object at 0x7f447e0c5180</title>
<path fill="#66cdaa" stroke="black" d="M163.5,-396C163.5,-396 122.5,-396 122.5,-396 116.5,-396 110.5,-390 110.5,-384 110.5,-384 110.5,-372 110.5,-372 110.5,-366 116.5,-360 122.5,-360 122.5,-360 163.5,-360 163.5,-360 169.5,-360 175.5,-366 175.5,-372 175.5,-372 175.5,-384 175.5,-384 175.5,-390 169.5,-396 163.5,-396"/>
<text text-anchor="middle" x="143" y="-374.3" font-family="Times,serif" font-size="14.00">Constant</text>
</g>
<!-- ast.Assign object at 0x7f447e0c5c00&#45;&gt;ast.Constant object at 0x7f447e0c5180 -->
<g id="edge7" class="edge">
<title>ast.Assign object at 0x7f447e0c5c00&#45;&gt;ast.Constant object at 0x7f447e0c5180</title>
<path fill="none" stroke="black" d="M143,-431.7C143,-423.98 143,-414.71 143,-406.11"/>
<polygon fill="black" stroke="black" points="146.5,-406.1 143,-396.1 139.5,-406.1 146.5,-406.1"/>
</g>
<!-- ast.Store object at 0x7f449f3edfc0 -->
<g id="node7" class="node">
<title>ast.Store object at 0x7f449f3edfc0</title>
<path fill="#66cdaa" stroke="black" d="M135,-180C135,-180 105,-180 105,-180 99,-180 93,-174 93,-168 93,-168 93,-156 93,-156 93,-150 99,-144 105,-144 105,-144 135,-144 135,-144 141,-144 147,-150 147,-156 147,-156 147,-168 147,-168 147,-174 141,-180 135,-180"/>
<text text-anchor="middle" x="120" y="-158.3" font-family="Times,serif" font-size="14.00">Store</text>
</g>
<!-- ast.Name object at 0x7f447e0c65f0&#45;&gt;ast.Store object at 0x7f449f3edfc0 -->
<g id="edge6" class="edge">
<title>ast.Name object at 0x7f447e0c65f0&#45;&gt;ast.Store object at 0x7f449f3edfc0</title>
<path fill="none" stroke="black" d="M86.58,-287.87C93.09,-263.56 105.06,-218.82 112.77,-190.01"/>
<polygon fill="black" stroke="black" points="116.2,-190.75 115.4,-180.19 109.43,-188.94 116.2,-190.75"/>
</g>
<!-- ast.Name object at 0x7f447e0c4520 -->
<g id="node10" class="node">
<title>ast.Name object at 0x7f447e0c4520</title>
<path fill="#66cdaa" stroke="black" d="M236,-396C236,-396 206,-396 206,-396 200,-396 194,-390 194,-384 194,-384 194,-372 194,-372 194,-366 200,-360 206,-360 206,-360 236,-360 236,-360 242,-360 248,-366 248,-372 248,-372 248,-384 248,-384 248,-390 242,-396 236,-396"/>
<text text-anchor="middle" x="221" y="-374.3" font-family="Times,serif" font-size="14.00">Name</text>
</g>
<!-- ast.For object at 0x7f447e0c4850&#45;&gt;ast.Name object at 0x7f447e0c4520 -->
<g id="edge9" class="edge">
<title>ast.For object at 0x7f447e0c4850&#45;&gt;ast.Name object at 0x7f447e0c4520</title>
<path fill="none" stroke="black" d="M248.1,-431.7C244,-423.73 239.05,-414.1 234.51,-405.26"/>
<polygon fill="black" stroke="black" points="237.48,-403.4 229.8,-396.1 231.26,-406.6 237.48,-403.4"/>
</g>
<!-- ast.Call object at 0x7f447e0c4160 -->
<g id="node11" class="node">
<title>ast.Call object at 0x7f447e0c4160</title>
<path fill="#66cdaa" stroke="black" d="M308,-396C308,-396 278,-396 278,-396 272,-396 266,-390 266,-384 266,-384 266,-372 266,-372 266,-366 272,-360 278,-360 278,-360 308,-360 308,-360 314,-360 320,-366 320,-372 320,-372 320,-384 320,-384 320,-390 314,-396 308,-396"/>
<text text-anchor="middle" x="293" y="-374.3" font-family="Times,serif" font-size="14.00">Call</text>
</g>
<!-- ast.For object at 0x7f447e0c4850&#45;&gt;ast.Call object at 0x7f447e0c4160 -->
<g id="edge11" class="edge">
<title>ast.For object at 0x7f447e0c4850&#45;&gt;ast.Call object at 0x7f447e0c4160</title>
<path fill="none" stroke="black" d="M265.9,-431.7C270,-423.73 274.95,-414.1 279.49,-405.26"/>
<polygon fill="black" stroke="black" points="282.74,-406.6 284.2,-396.1 276.52,-403.4 282.74,-406.6"/>
</g>
<!-- ast.If object at 0x7f447e0c5210 -->
<g id="node19" class="node">
<title>ast.If object at 0x7f447e0c5210</title>
<path fill="#66cdaa" stroke="black" d="M439,-396C439,-396 409,-396 409,-396 403,-396 397,-390 397,-384 397,-384 397,-372 397,-372 397,-366 403,-360 409,-360 409,-360 439,-360 439,-360 445,-360 451,-366 451,-372 451,-372 451,-384 451,-384 451,-390 445,-396 439,-396"/>
<text text-anchor="middle" x="424" y="-374.3" font-family="Times,serif" font-size="14.00">If</text>
</g>
<!-- ast.For object at 0x7f447e0c4850&#45;&gt;ast.If object at 0x7f447e0c5210 -->
<g id="edge20" class="edge">
<title>ast.For object at 0x7f447e0c4850&#45;&gt;ast.If object at 0x7f447e0c5210</title>
<path fill="none" stroke="black" d="M284.2,-437.6C312.23,-425.85 356.08,-407.47 387.19,-394.43"/>
<polygon fill="black" stroke="black" points="388.94,-397.49 396.81,-390.4 386.23,-391.04 388.94,-397.49"/>
</g>
<!-- ast.Name object at 0x7f447e0c4520&#45;&gt;ast.Store object at 0x7f449f3edfc0 -->
<g id="edge10" class="edge">
<title>ast.Name object at 0x7f447e0c4520&#45;&gt;ast.Store object at 0x7f449f3edfc0</title>
<path fill="none" stroke="black" d="M195.25,-359.84C183.19,-350.56 169.62,-338.11 161,-324 135.22,-281.8 125.58,-223.91 122.03,-190.28"/>
<polygon fill="black" stroke="black" points="125.51,-189.88 121.07,-180.26 118.54,-190.55 125.51,-189.88"/>
</g>
<!-- ast.Name object at 0x7f447e0c4940 -->
<g id="node12" class="node">
<title>ast.Name object at 0x7f447e0c4940</title>
<path fill="#66cdaa" stroke="black" d="M236,-108C236,-108 206,-108 206,-108 200,-108 194,-102 194,-96 194,-96 194,-84 194,-84 194,-78 200,-72 206,-72 206,-72 236,-72 236,-72 242,-72 248,-78 248,-84 248,-84 248,-96 248,-96 248,-102 242,-108 236,-108"/>
<text text-anchor="middle" x="221" y="-86.3" font-family="Times,serif" font-size="14.00">Name</text>
</g>
<!-- ast.Call object at 0x7f447e0c4160&#45;&gt;ast.Name object at 0x7f447e0c4940 -->
<g id="edge12" class="edge">
<title>ast.Call object at 0x7f447e0c4160&#45;&gt;ast.Name object at 0x7f447e0c4940</title>
<path fill="none" stroke="black" d="M265.93,-364.29C238.06,-350.92 198.13,-330.9 194,-324 154.53,-258.09 187.9,-162.79 208.18,-117.21"/>
<polygon fill="black" stroke="black" points="211.41,-118.55 212.4,-108.01 205.05,-115.64 211.41,-118.55"/>
</g>
<!-- ast.Constant object at 0x7f447e0c7af0 -->
<g id="node14" class="node">
<title>ast.Constant object at 0x7f447e0c7af0</title>
<path fill="#66cdaa" stroke="black" d="M256.5,-324C256.5,-324 215.5,-324 215.5,-324 209.5,-324 203.5,-318 203.5,-312 203.5,-312 203.5,-300 203.5,-300 203.5,-294 209.5,-288 215.5,-288 215.5,-288 256.5,-288 256.5,-288 262.5,-288 268.5,-294 268.5,-300 268.5,-300 268.5,-312 268.5,-312 268.5,-318 262.5,-324 256.5,-324"/>
<text text-anchor="middle" x="236" y="-302.3" font-family="Times,serif" font-size="14.00">Constant</text>
</g>
<!-- ast.Call object at 0x7f447e0c4160&#45;&gt;ast.Constant object at 0x7f447e0c7af0 -->
<g id="edge14" class="edge">
<title>ast.Call object at 0x7f447e0c4160&#45;&gt;ast.Constant object at 0x7f447e0c7af0</title>
<path fill="none" stroke="black" d="M278.91,-359.7C272.08,-351.3 263.74,-341.07 256.24,-331.86"/>
<polygon fill="black" stroke="black" points="258.96,-329.65 249.93,-324.1 253.53,-334.07 258.96,-329.65"/>
</g>
<!-- ast.BinOp object at 0x7f447e0c7c40 -->
<g id="node15" class="node">
<title>ast.BinOp object at 0x7f447e0c7c40</title>
<path fill="#66cdaa" stroke="black" d="M329,-324C329,-324 299,-324 299,-324 293,-324 287,-318 287,-312 287,-312 287,-300 287,-300 287,-294 293,-288 299,-288 299,-288 329,-288 329,-288 335,-288 341,-294 341,-300 341,-300 341,-312 341,-312 341,-318 335,-324 329,-324"/>
<text text-anchor="middle" x="314" y="-302.3" font-family="Times,serif" font-size="14.00">BinOp</text>
</g>
<!-- ast.Call object at 0x7f447e0c4160&#45;&gt;ast.BinOp object at 0x7f447e0c7c40 -->
<g id="edge15" class="edge">
<title>ast.Call object at 0x7f447e0c4160&#45;&gt;ast.BinOp object at 0x7f447e0c7c40</title>
<path fill="none" stroke="black" d="M298.19,-359.7C300.53,-351.9 303.35,-342.51 305.95,-333.83"/>
<polygon fill="black" stroke="black" points="309.35,-334.69 308.87,-324.1 302.64,-332.68 309.35,-334.69"/>
</g>
<!-- ast.Load object at 0x7f449f3edf60 -->
<g id="node13" class="node">
<title>ast.Load object at 0x7f449f3edf60</title>
<path fill="#66cdaa" stroke="black" d="M491,-36C491,-36 461,-36 461,-36 455,-36 449,-30 449,-24 449,-24 449,-12 449,-12 449,-6 455,0 461,0 461,0 491,0 491,0 497,0 503,-6 503,-12 503,-12 503,-24 503,-24 503,-30 497,-36 491,-36"/>
<text text-anchor="middle" x="476" y="-14.3" font-family="Times,serif" font-size="14.00">Load</text>
</g>
<!-- ast.Name object at 0x7f447e0c4940&#45;&gt;ast.Load object at 0x7f449f3edf60 -->
<g id="edge13" class="edge">
<title>ast.Name object at 0x7f447e0c4940&#45;&gt;ast.Load object at 0x7f449f3edf60</title>
<path fill="none" stroke="black" d="M248.02,-81.44C258.61,-78.48 270.87,-75.07 282,-72 336.69,-56.91 400.1,-39.62 439.14,-29.01"/>
<polygon fill="black" stroke="black" points="440.27,-32.33 449,-26.33 438.43,-25.58 440.27,-32.33"/>
</g>
<!-- ast.Name object at 0x7f447e0c4550 -->
<g id="node16" class="node">
<title>ast.Name object at 0x7f447e0c4550</title>
<path fill="#66cdaa" stroke="black" d="M333,-108C333,-108 303,-108 303,-108 297,-108 291,-102 291,-96 291,-96 291,-84 291,-84 291,-78 297,-72 303,-72 303,-72 333,-72 333,-72 339,-72 345,-78 345,-84 345,-84 345,-96 345,-96 345,-102 339,-108 333,-108"/>
<text text-anchor="middle" x="318" y="-86.3" font-family="Times,serif" font-size="14.00">Name</text>
</g>
<!-- ast.BinOp object at 0x7f447e0c7c40&#45;&gt;ast.Name object at 0x7f447e0c4550 -->
<g id="edge16" class="edge">
<title>ast.BinOp object at 0x7f447e0c7c40&#45;&gt;ast.Name object at 0x7f447e0c4550</title>
<path fill="none" stroke="black" d="M314.32,-287.85C315.01,-250.83 316.65,-163.18 317.49,-118.39"/>
<polygon fill="black" stroke="black" points="320.99,-118.3 317.68,-108.23 313.99,-118.17 320.99,-118.3"/>
</g>
<!-- ast.Add object at 0x7f449f3ee1a0 -->
<g id="node17" class="node">
<title>ast.Add object at 0x7f449f3ee1a0</title>
<path fill="#66cdaa" stroke="black" d="M367,-252C367,-252 337,-252 337,-252 331,-252 325,-246 325,-240 325,-240 325,-228 325,-228 325,-222 331,-216 337,-216 337,-216 367,-216 367,-216 373,-216 379,-222 379,-228 379,-228 379,-240 379,-240 379,-246 373,-252 367,-252"/>
<text text-anchor="middle" x="352" y="-230.3" font-family="Times,serif" font-size="14.00">Add</text>
</g>
<!-- ast.BinOp object at 0x7f447e0c7c40&#45;&gt;ast.Add object at 0x7f449f3ee1a0 -->
<g id="edge18" class="edge">
<title>ast.BinOp object at 0x7f447e0c7c40&#45;&gt;ast.Add object at 0x7f449f3ee1a0</title>
<path fill="none" stroke="black" d="M323.39,-287.7C327.76,-279.64 333.06,-269.89 337.9,-260.98"/>
<polygon fill="black" stroke="black" points="341.02,-262.56 342.71,-252.1 334.87,-259.22 341.02,-262.56"/>
</g>
<!-- ast.Constant object at 0x7f447e0c53f0 -->
<g id="node18" class="node">
<title>ast.Constant object at 0x7f447e0c53f0</title>
<path fill="#66cdaa" stroke="black" d="M256.5,-252C256.5,-252 215.5,-252 215.5,-252 209.5,-252 203.5,-246 203.5,-240 203.5,-240 203.5,-228 203.5,-228 203.5,-222 209.5,-216 215.5,-216 215.5,-216 256.5,-216 256.5,-216 262.5,-216 268.5,-222 268.5,-228 268.5,-228 268.5,-240 268.5,-240 268.5,-246 262.5,-252 256.5,-252"/>
<text text-anchor="middle" x="236" y="-230.3" font-family="Times,serif" font-size="14.00">Constant</text>
</g>
<!-- ast.BinOp object at 0x7f447e0c7c40&#45;&gt;ast.Constant object at 0x7f447e0c53f0 -->
<g id="edge19" class="edge">
<title>ast.BinOp object at 0x7f447e0c7c40&#45;&gt;ast.Constant object at 0x7f447e0c53f0</title>
<path fill="none" stroke="black" d="M294.72,-287.7C285.08,-279.05 273.27,-268.45 262.77,-259.03"/>
<polygon fill="black" stroke="black" points="264.84,-256.18 255.06,-252.1 260.16,-261.39 264.84,-256.18"/>
</g>
<!-- ast.Name object at 0x7f447e0c4550&#45;&gt;ast.Load object at 0x7f449f3edf60 -->
<g id="edge17" class="edge">
<title>ast.Name object at 0x7f447e0c4550&#45;&gt;ast.Load object at 0x7f449f3edf60</title>
<path fill="none" stroke="black" d="M345.16,-76.97C371.24,-65.41 410.82,-47.88 439.61,-35.12"/>
<polygon fill="black" stroke="black" points="441.2,-38.24 448.93,-30.99 438.37,-31.84 441.2,-38.24"/>
</g>
<!-- ast.BoolOp object at 0x7f447e0c5960 -->
<g id="node20" class="node">
<title>ast.BoolOp object at 0x7f447e0c5960</title>
<path fill="#66cdaa" stroke="black" d="M653.5,-324C653.5,-324 618.5,-324 618.5,-324 612.5,-324 606.5,-318 606.5,-312 606.5,-312 606.5,-300 606.5,-300 606.5,-294 612.5,-288 618.5,-288 618.5,-288 653.5,-288 653.5,-288 659.5,-288 665.5,-294 665.5,-300 665.5,-300 665.5,-312 665.5,-312 665.5,-318 659.5,-324 653.5,-324"/>
<text text-anchor="middle" x="636" y="-302.3" font-family="Times,serif" font-size="14.00">BoolOp</text>
</g>
<!-- ast.If object at 0x7f447e0c5210&#45;&gt;ast.BoolOp object at 0x7f447e0c5960 -->
<g id="edge21" class="edge">
<title>ast.If object at 0x7f447e0c5210&#45;&gt;ast.BoolOp object at 0x7f447e0c5960</title>
<path fill="none" stroke="black" d="M451.28,-367.99C488.24,-355.79 554.46,-333.92 596.75,-319.96"/>
<polygon fill="black" stroke="black" points="598.04,-323.22 606.44,-316.76 595.85,-316.57 598.04,-323.22"/>
</g>
<!-- ast.AugAssign object at 0x7f447e0c5ff0 -->
<g id="node33" class="node">
<title>ast.AugAssign object at 0x7f447e0c5ff0</title>
<path fill="#66cdaa" stroke="black" d="M450.5,-324C450.5,-324 397.5,-324 397.5,-324 391.5,-324 385.5,-318 385.5,-312 385.5,-312 385.5,-300 385.5,-300 385.5,-294 391.5,-288 397.5,-288 397.5,-288 450.5,-288 450.5,-288 456.5,-288 462.5,-294 462.5,-300 462.5,-300 462.5,-312 462.5,-312 462.5,-318 456.5,-324 450.5,-324"/>
<text text-anchor="middle" x="424" y="-302.3" font-family="Times,serif" font-size="14.00">AugAssign</text>
</g>
<!-- ast.If object at 0x7f447e0c5210&#45;&gt;ast.AugAssign object at 0x7f447e0c5ff0 -->
<g id="edge37" class="edge">
<title>ast.If object at 0x7f447e0c5210&#45;&gt;ast.AugAssign object at 0x7f447e0c5ff0</title>
<path fill="none" stroke="black" d="M424,-359.7C424,-351.98 424,-342.71 424,-334.11"/>
<polygon fill="black" stroke="black" points="427.5,-334.1 424,-324.1 420.5,-334.1 427.5,-334.1"/>
</g>
<!-- ast.And object at 0x7f449f3ee0b0 -->
<g id="node21" class="node">
<title>ast.And object at 0x7f449f3ee0b0</title>
<path fill="#66cdaa" stroke="black" d="M808,-252C808,-252 778,-252 778,-252 772,-252 766,-246 766,-240 766,-240 766,-228 766,-228 766,-222 772,-216 778,-216 778,-216 808,-216 808,-216 814,-216 820,-222 820,-228 820,-228 820,-240 820,-240 820,-246 814,-252 808,-252"/>
<text text-anchor="middle" x="793" y="-230.3" font-family="Times,serif" font-size="14.00">And</text>
</g>
<!-- ast.BoolOp object at 0x7f447e0c5960&#45;&gt;ast.And object at 0x7f449f3ee0b0 -->
<g id="edge22" class="edge">
<title>ast.BoolOp object at 0x7f447e0c5960&#45;&gt;ast.And object at 0x7f449f3ee0b0</title>
<path fill="none" stroke="black" d="M665.64,-292.05C689.96,-281.4 725.27,-265.85 756,-252 756.2,-251.91 756.4,-251.82 756.61,-251.73"/>
<polygon fill="black" stroke="black" points="758.28,-254.81 765.94,-247.49 755.39,-248.43 758.28,-254.81"/>
</g>
<!-- ast.Compare object at 0x7f447e0c55a0 -->
<g id="node22" class="node">
<title>ast.Compare object at 0x7f447e0c55a0</title>
<path fill="#66cdaa" stroke="black" d="M590.5,-252C590.5,-252 547.5,-252 547.5,-252 541.5,-252 535.5,-246 535.5,-240 535.5,-240 535.5,-228 535.5,-228 535.5,-222 541.5,-216 547.5,-216 547.5,-216 590.5,-216 590.5,-216 596.5,-216 602.5,-222 602.5,-228 602.5,-228 602.5,-240 602.5,-240 602.5,-246 596.5,-252 590.5,-252"/>
<text text-anchor="middle" x="569" y="-230.3" font-family="Times,serif" font-size="14.00">Compare</text>
</g>
<!-- ast.BoolOp object at 0x7f447e0c5960&#45;&gt;ast.Compare object at 0x7f447e0c55a0 -->
<g id="edge23" class="edge">
<title>ast.BoolOp object at 0x7f447e0c5960&#45;&gt;ast.Compare object at 0x7f447e0c55a0</title>
<path fill="none" stroke="black" d="M619.44,-287.7C611.32,-279.22 601.41,-268.86 592.53,-259.58"/>
<polygon fill="black" stroke="black" points="594.81,-256.91 585.37,-252.1 589.76,-261.75 594.81,-256.91"/>
</g>
<!-- ast.Compare object at 0x7f447e0c5360 -->
<g id="node29" class="node">
<title>ast.Compare object at 0x7f447e0c5360</title>
<path fill="#66cdaa" stroke="black" d="M735.5,-252C735.5,-252 692.5,-252 692.5,-252 686.5,-252 680.5,-246 680.5,-240 680.5,-240 680.5,-228 680.5,-228 680.5,-222 686.5,-216 692.5,-216 692.5,-216 735.5,-216 735.5,-216 741.5,-216 747.5,-222 747.5,-228 747.5,-228 747.5,-240 747.5,-240 747.5,-246 741.5,-252 735.5,-252"/>
<text text-anchor="middle" x="714" y="-230.3" font-family="Times,serif" font-size="14.00">Compare</text>
</g>
<!-- ast.BoolOp object at 0x7f447e0c5960&#45;&gt;ast.Compare object at 0x7f447e0c5360 -->
<g id="edge32" class="edge">
<title>ast.BoolOp object at 0x7f447e0c5960&#45;&gt;ast.Compare object at 0x7f447e0c5360</title>
<path fill="none" stroke="black" d="M655.28,-287.7C664.92,-279.05 676.73,-268.45 687.23,-259.03"/>
<polygon fill="black" stroke="black" points="689.84,-261.39 694.94,-252.1 685.16,-256.18 689.84,-261.39"/>
</g>
<!-- ast.BinOp object at 0x7f447e0c6d70 -->
<g id="node23" class="node">
<title>ast.BinOp object at 0x7f447e0c6d70</title>
<path fill="#66cdaa" stroke="black" d="M501,-180C501,-180 471,-180 471,-180 465,-180 459,-174 459,-168 459,-168 459,-156 459,-156 459,-150 465,-144 471,-144 471,-144 501,-144 501,-144 507,-144 513,-150 513,-156 513,-156 513,-168 513,-168 513,-174 507,-180 501,-180"/>
<text text-anchor="middle" x="486" y="-158.3" font-family="Times,serif" font-size="14.00">BinOp</text>
</g>
<!-- ast.Compare object at 0x7f447e0c55a0&#45;&gt;ast.BinOp object at 0x7f447e0c6d70 -->
<g id="edge24" class="edge">
<title>ast.Compare object at 0x7f447e0c55a0&#45;&gt;ast.BinOp object at 0x7f447e0c6d70</title>
<path fill="none" stroke="black" d="M548.48,-215.7C538.13,-206.97 525.41,-196.24 514.16,-186.75"/>
<polygon fill="black" stroke="black" points="516.18,-183.88 506.28,-180.1 511.67,-189.23 516.18,-183.88"/>
</g>
<!-- ast.Eq object at 0x7f449f3ee890 -->
<g id="node27" class="node">
<title>ast.Eq object at 0x7f449f3ee890</title>
<path fill="#66cdaa" stroke="black" d="M573,-180C573,-180 543,-180 543,-180 537,-180 531,-174 531,-168 531,-168 531,-156 531,-156 531,-150 537,-144 543,-144 543,-144 573,-144 573,-144 579,-144 585,-150 585,-156 585,-156 585,-168 585,-168 585,-174 579,-180 573,-180"/>
<text text-anchor="middle" x="558" y="-158.3" font-family="Times,serif" font-size="14.00">Eq</text>
</g>
<!-- ast.Compare object at 0x7f447e0c55a0&#45;&gt;ast.Eq object at 0x7f449f3ee890 -->
<g id="edge30" class="edge">
<title>ast.Compare object at 0x7f447e0c55a0&#45;&gt;ast.Eq object at 0x7f449f3ee890</title>
<path fill="none" stroke="black" d="M566.28,-215.7C565.07,-207.98 563.61,-198.71 562.26,-190.11"/>
<polygon fill="black" stroke="black" points="565.7,-189.44 560.69,-180.1 558.78,-190.53 565.7,-189.44"/>
</g>
<!-- ast.Constant object at 0x7f447e0c5570 -->
<g id="node28" class="node">
<title>ast.Constant object at 0x7f447e0c5570</title>
<path fill="#66cdaa" stroke="black" d="M656.5,-180C656.5,-180 615.5,-180 615.5,-180 609.5,-180 603.5,-174 603.5,-168 603.5,-168 603.5,-156 603.5,-156 603.5,-150 609.5,-144 615.5,-144 615.5,-144 656.5,-144 656.5,-144 662.5,-144 668.5,-150 668.5,-156 668.5,-156 668.5,-168 668.5,-168 668.5,-174 662.5,-180 656.5,-180"/>
<text text-anchor="middle" x="636" y="-158.3" font-family="Times,serif" font-size="14.00">Constant</text>
</g>
<!-- ast.Compare object at 0x7f447e0c55a0&#45;&gt;ast.Constant object at 0x7f447e0c5570 -->
<g id="edge31" class="edge">
<title>ast.Compare object at 0x7f447e0c55a0&#45;&gt;ast.Constant object at 0x7f447e0c5570</title>
<path fill="none" stroke="black" d="M585.56,-215.7C593.68,-207.22 603.59,-196.86 612.47,-187.58"/>
<polygon fill="black" stroke="black" points="615.24,-189.75 619.63,-180.1 610.19,-184.91 615.24,-189.75"/>
</g>
<!-- ast.Name object at 0x7f447e0c7190 -->
<g id="node24" class="node">
<title>ast.Name object at 0x7f447e0c7190</title>
<path fill="#66cdaa" stroke="black" d="M491,-108C491,-108 461,-108 461,-108 455,-108 449,-102 449,-96 449,-96 449,-84 449,-84 449,-78 455,-72 461,-72 461,-72 491,-72 491,-72 497,-72 503,-78 503,-84 503,-84 503,-96 503,-96 503,-102 497,-108 491,-108"/>
<text text-anchor="middle" x="476" y="-86.3" font-family="Times,serif" font-size="14.00">Name</text>
</g>
<!-- ast.BinOp object at 0x7f447e0c6d70&#45;&gt;ast.Name object at 0x7f447e0c7190 -->
<g id="edge25" class="edge">
<title>ast.BinOp object at 0x7f447e0c6d70&#45;&gt;ast.Name object at 0x7f447e0c7190</title>
<path fill="none" stroke="black" d="M483.53,-143.7C482.43,-135.98 481.1,-126.71 479.87,-118.11"/>
<polygon fill="black" stroke="black" points="483.32,-117.51 478.44,-108.1 476.39,-118.5 483.32,-117.51"/>
</g>
<!-- ast.Mod object at 0x7f449f3ee380 -->
<g id="node25" class="node">
<title>ast.Mod object at 0x7f449f3ee380</title>
<path fill="#66cdaa" stroke="black" d="M635,-108C635,-108 605,-108 605,-108 599,-108 593,-102 593,-96 593,-96 593,-84 593,-84 593,-78 599,-72 605,-72 605,-72 635,-72 635,-72 641,-72 647,-78 647,-84 647,-84 647,-96 647,-96 647,-102 641,-108 635,-108"/>
<text text-anchor="middle" x="620" y="-86.3" font-family="Times,serif" font-size="14.00">Mod</text>
</g>
<!-- ast.BinOp object at 0x7f447e0c6d70&#45;&gt;ast.Mod object at 0x7f449f3ee380 -->
<g id="edge27" class="edge">
<title>ast.BinOp object at 0x7f447e0c6d70&#45;&gt;ast.Mod object at 0x7f449f3ee380</title>
<path fill="none" stroke="black" d="M513.12,-146.83C533.46,-136.21 561.51,-121.55 583.78,-109.92"/>
<polygon fill="black" stroke="black" points="585.68,-112.88 592.92,-105.14 582.44,-106.67 585.68,-112.88"/>
</g>
<!-- ast.Name object at 0x7f447e0c4d00 -->
<g id="node26" class="node">
<title>ast.Name object at 0x7f447e0c4d00</title>
<path fill="#66cdaa" stroke="black" d="M563,-108C563,-108 533,-108 533,-108 527,-108 521,-102 521,-96 521,-96 521,-84 521,-84 521,-78 527,-72 533,-72 533,-72 563,-72 563,-72 569,-72 575,-78 575,-84 575,-84 575,-96 575,-96 575,-102 569,-108 563,-108"/>
<text text-anchor="middle" x="548" y="-86.3" font-family="Times,serif" font-size="14.00">Name</text>
</g>
<!-- ast.BinOp object at 0x7f447e0c6d70&#45;&gt;ast.Name object at 0x7f447e0c4d00 -->
<g id="edge28" class="edge">
<title>ast.BinOp object at 0x7f447e0c6d70&#45;&gt;ast.Name object at 0x7f447e0c4d00</title>
<path fill="none" stroke="black" d="M501.33,-143.7C508.76,-135.3 517.82,-125.07 525.98,-115.86"/>
<polygon fill="black" stroke="black" points="528.84,-117.91 532.85,-108.1 523.6,-113.27 528.84,-117.91"/>
</g>
<!-- ast.Name object at 0x7f447e0c7190&#45;&gt;ast.Load object at 0x7f449f3edf60 -->
<g id="edge26" class="edge">
<title>ast.Name object at 0x7f447e0c7190&#45;&gt;ast.Load object at 0x7f449f3edf60</title>
<path fill="none" stroke="black" d="M476,-71.7C476,-63.98 476,-54.71 476,-46.11"/>
<polygon fill="black" stroke="black" points="479.5,-46.1 476,-36.1 472.5,-46.1 479.5,-46.1"/>
</g>
<!-- ast.Name object at 0x7f447e0c4d00&#45;&gt;ast.Load object at 0x7f449f3edf60 -->
<g id="edge29" class="edge">
<title>ast.Name object at 0x7f447e0c4d00&#45;&gt;ast.Load object at 0x7f449f3edf60</title>
<path fill="none" stroke="black" d="M530.2,-71.7C521.4,-63.14 510.62,-52.66 501,-43.3"/>
<polygon fill="black" stroke="black" points="503.2,-40.57 493.59,-36.1 498.32,-45.58 503.2,-40.57"/>
</g>
<!-- ast.Name object at 0x7f447e0c5750 -->
<g id="node30" class="node">
<title>ast.Name object at 0x7f447e0c5750</title>
<path fill="#66cdaa" stroke="black" d="M729,-180C729,-180 699,-180 699,-180 693,-180 687,-174 687,-168 687,-168 687,-156 687,-156 687,-150 693,-144 699,-144 699,-144 729,-144 729,-144 735,-144 741,-150 741,-156 741,-156 741,-168 741,-168 741,-174 735,-180 729,-180"/>
<text text-anchor="middle" x="714" y="-158.3" font-family="Times,serif" font-size="14.00">Name</text>
</g>
<!-- ast.Compare object at 0x7f447e0c5360&#45;&gt;ast.Name object at 0x7f447e0c5750 -->
<g id="edge33" class="edge">
<title>ast.Compare object at 0x7f447e0c5360&#45;&gt;ast.Name object at 0x7f447e0c5750</title>
<path fill="none" stroke="black" d="M714,-215.7C714,-207.98 714,-198.71 714,-190.11"/>
<polygon fill="black" stroke="black" points="717.5,-190.1 714,-180.1 710.5,-190.1 717.5,-190.1"/>
</g>
<!-- ast.LtE object at 0x7f449f3ee9b0 -->
<g id="node31" class="node">
<title>ast.LtE object at 0x7f449f3ee9b0</title>
<path fill="#66cdaa" stroke="black" d="M885,-180C885,-180 855,-180 855,-180 849,-180 843,-174 843,-168 843,-168 843,-156 843,-156 843,-150 849,-144 855,-144 855,-144 885,-144 885,-144 891,-144 897,-150 897,-156 897,-156 897,-168 897,-168 897,-174 891,-180 885,-180"/>
<text text-anchor="middle" x="870" y="-158.3" font-family="Times,serif" font-size="14.00">LtE</text>
</g>
<!-- ast.Compare object at 0x7f447e0c5360&#45;&gt;ast.LtE object at 0x7f449f3ee9b0 -->
<g id="edge35" class="edge">
<title>ast.Compare object at 0x7f447e0c5360&#45;&gt;ast.LtE object at 0x7f449f3ee9b0</title>
<path fill="none" stroke="black" d="M747.72,-218.38C769.85,-208.72 799.62,-195.62 833.68,-180.1"/>
<polygon fill="black" stroke="black" points="835.27,-183.22 842.91,-175.88 832.36,-176.86 835.27,-183.22"/>
</g>
<!-- ast.Constant object at 0x7f447e0c41c0 -->
<g id="node32" class="node">
<title>ast.Constant object at 0x7f447e0c41c0</title>
<path fill="#66cdaa" stroke="black" d="M812.5,-180C812.5,-180 771.5,-180 771.5,-180 765.5,-180 759.5,-174 759.5,-168 759.5,-168 759.5,-156 759.5,-156 759.5,-150 765.5,-144 771.5,-144 771.5,-144 812.5,-144 812.5,-144 818.5,-144 824.5,-150 824.5,-156 824.5,-156 824.5,-168 824.5,-168 824.5,-174 818.5,-180 812.5,-180"/>
<text text-anchor="middle" x="792" y="-158.3" font-family="Times,serif" font-size="14.00">Constant</text>
</g>
<!-- ast.Compare object at 0x7f447e0c5360&#45;&gt;ast.Constant object at 0x7f447e0c41c0 -->
<g id="edge36" class="edge">
<title>ast.Compare object at 0x7f447e0c5360&#45;&gt;ast.Constant object at 0x7f447e0c41c0</title>
<path fill="none" stroke="black" d="M733.28,-215.7C742.92,-207.05 754.73,-196.45 765.23,-187.03"/>
<polygon fill="black" stroke="black" points="767.84,-189.39 772.94,-180.1 763.16,-184.18 767.84,-189.39"/>
</g>
<!-- ast.Name object at 0x7f447e0c5750&#45;&gt;ast.Load object at 0x7f449f3edf60 -->
<g id="edge34" class="edge">
<title>ast.Name object at 0x7f447e0c5750&#45;&gt;ast.Load object at 0x7f449f3edf60</title>
<path fill="none" stroke="black" d="M707.28,-143.95C698.48,-123.82 681.15,-90.72 656,-72 613.6,-40.44 552.64,-27.6 513.68,-22.42"/>
<polygon fill="black" stroke="black" points="513.66,-18.89 503.31,-21.16 512.81,-25.84 513.66,-18.89"/>
</g>
<!-- ast.AugAssign object at 0x7f447e0c5ff0&#45;&gt;ast.Add object at 0x7f449f3ee1a0 -->
<g id="edge40" class="edge">
<title>ast.AugAssign object at 0x7f447e0c5ff0&#45;&gt;ast.Add object at 0x7f449f3ee1a0</title>
<path fill="none" stroke="black" d="M406.2,-287.7C397.4,-279.14 386.62,-268.66 377,-259.3"/>
<polygon fill="black" stroke="black" points="379.2,-256.57 369.59,-252.1 374.32,-261.58 379.2,-256.57"/>
</g>
<!-- ast.Name object at 0x7f4475cf4820 -->
<g id="node34" class="node">
<title>ast.Name object at 0x7f4475cf4820</title>
<path fill="#66cdaa" stroke="black" d="M439,-252C439,-252 409,-252 409,-252 403,-252 397,-246 397,-240 397,-240 397,-228 397,-228 397,-222 403,-216 409,-216 409,-216 439,-216 439,-216 445,-216 451,-222 451,-228 451,-228 451,-240 451,-240 451,-246 445,-252 439,-252"/>
<text text-anchor="middle" x="424" y="-230.3" font-family="Times,serif" font-size="14.00">Name</text>
</g>
<!-- ast.AugAssign object at 0x7f447e0c5ff0&#45;&gt;ast.Name object at 0x7f4475cf4820 -->
<g id="edge38" class="edge">
<title>ast.AugAssign object at 0x7f447e0c5ff0&#45;&gt;ast.Name object at 0x7f4475cf4820</title>
<path fill="none" stroke="black" d="M424,-287.7C424,-279.98 424,-270.71 424,-262.11"/>
<polygon fill="black" stroke="black" points="427.5,-262.1 424,-252.1 420.5,-262.1 427.5,-262.1"/>
</g>
<!-- ast.Name object at 0x7f4475cf49d0 -->
<g id="node35" class="node">
<title>ast.Name object at 0x7f4475cf49d0</title>
<path fill="#66cdaa" stroke="black" d="M419,-108C419,-108 389,-108 389,-108 383,-108 377,-102 377,-96 377,-96 377,-84 377,-84 377,-78 383,-72 389,-72 389,-72 419,-72 419,-72 425,-72 431,-78 431,-84 431,-84 431,-96 431,-96 431,-102 425,-108 419,-108"/>
<text text-anchor="middle" x="404" y="-86.3" font-family="Times,serif" font-size="14.00">Name</text>
</g>
<!-- ast.AugAssign object at 0x7f447e0c5ff0&#45;&gt;ast.Name object at 0x7f4475cf49d0 -->
<g id="edge41" class="edge">
<title>ast.AugAssign object at 0x7f447e0c5ff0&#45;&gt;ast.Name object at 0x7f4475cf49d0</title>
<path fill="none" stroke="black" d="M439.61,-287.77C447.37,-278.03 455.95,-265.18 460,-252 464.7,-236.71 463.34,-231.65 460,-216 452.24,-179.71 433.13,-141.21 419.39,-116.68"/>
<polygon fill="black" stroke="black" points="422.43,-114.94 414.43,-108 416.35,-118.42 422.43,-114.94"/>
</g>
<!-- ast.Name object at 0x7f4475cf4820&#45;&gt;ast.Store object at 0x7f449f3edfc0 -->
<g id="edge39" class="edge">
<title>ast.Name object at 0x7f4475cf4820&#45;&gt;ast.Store object at 0x7f449f3edfc0</title>
<path fill="none" stroke="black" d="M396.77,-219.29C393.85,-218.08 390.89,-216.95 388,-216 307.93,-189.62 209.84,-174.32 157.36,-167.43"/>
<polygon fill="black" stroke="black" points="157.55,-163.93 147.19,-166.13 156.66,-170.87 157.55,-163.93"/>
</g>
<!-- ast.Name object at 0x7f4475cf49d0&#45;&gt;ast.Load object at 0x7f449f3edf60 -->
<g id="edge42" class="edge">
<title>ast.Name object at 0x7f4475cf49d0&#45;&gt;ast.Load object at 0x7f449f3edf60</title>
<path fill="none" stroke="black" d="M421.8,-71.7C430.6,-63.14 441.38,-52.66 451,-43.3"/>
<polygon fill="black" stroke="black" points="453.68,-45.58 458.41,-36.1 448.8,-40.57 453.68,-45.58"/>
</g>
<!-- ast.Name object at 0x7f4475cf43a0 -->
<g id="node37" class="node">
<title>ast.Name object at 0x7f4475cf43a0</title>
<path fill="#66cdaa" stroke="black" d="M843,-108C843,-108 813,-108 813,-108 807,-108 801,-102 801,-96 801,-96 801,-84 801,-84 801,-78 807,-72 813,-72 813,-72 843,-72 843,-72 849,-72 855,-78 855,-84 855,-84 855,-96 855,-96 855,-102 849,-108 843,-108"/>
<text text-anchor="middle" x="828" y="-86.3" font-family="Times,serif" font-size="14.00">Name</text>
</g>
<!-- ast.Return object at 0x7f4475cf4400&#45;&gt;ast.Name object at 0x7f4475cf43a0 -->
<g id="edge44" class="edge">
<title>ast.Return object at 0x7f4475cf4400&#45;&gt;ast.Name object at 0x7f4475cf43a0</title>
<path fill="none" stroke="black" d="M656.05,-448.41C729.12,-445.25 925,-425.69 925,-307 925,-307 925,-307 925,-233 925,-192.55 928.58,-177.56 906,-144 895.71,-128.7 879.38,-116.6 864.31,-107.85"/>
<polygon fill="black" stroke="black" points="865.61,-104.58 855.16,-102.84 862.24,-110.71 865.61,-104.58"/>
</g>
<!-- ast.Name object at 0x7f4475cf43a0&#45;&gt;ast.Load object at 0x7f449f3edf60 -->
<g id="edge45" class="edge">
<title>ast.Name object at 0x7f4475cf43a0&#45;&gt;ast.Load object at 0x7f449f3edf60</title>
<path fill="none" stroke="black" d="M800.96,-83.62C738.51,-71.2 584.15,-40.51 513,-26.36"/>
<polygon fill="black" stroke="black" points="513.62,-22.91 503.13,-24.39 512.25,-29.78 513.62,-22.91"/>
</g>
</g>
</svg>
