<?xml version="1.0" encoding="UTF-8" standalone="no"?>
<!DOCTYPE svg PUBLIC "-//W3C//DTD SVG 1.1//EN"
 "http://www.w3.org/Graphics/SVG/1.1/DTD/svg11.dtd">
<!-- Generated by graphviz version 2.43.0 (0)
 -->
<!-- Title: %3 Pages: 1 -->
<svg width="866pt" height="620pt"
 viewBox="0.00 0.00 866.00 620.00" xmlns="http://www.w3.org/2000/svg" xmlns:xlink="http://www.w3.org/1999/xlink">
<g id="graph0" class="graph" transform="scale(1 1) rotate(0) translate(4 616)">
<title>%3</title>
<polygon fill="white" stroke="transparent" points="-4,4 -4,-616 862,-616 862,4 -4,4"/>
<!-- ast.Module object at 0x7f1c45a82da0 -->
<g id="node1" class="node">
<title>ast.Module object at 0x7f1c45a82da0</title>
<path fill="#66cdaa" stroke="black" d="M668.5,-612C668.5,-612 633.5,-612 633.5,-612 627.5,-612 621.5,-606 621.5,-600 621.5,-600 621.5,-588 621.5,-588 621.5,-582 627.5,-576 633.5,-576 633.5,-576 668.5,-576 668.5,-576 674.5,-576 680.5,-582 680.5,-588 680.5,-588 680.5,-600 680.5,-600 680.5,-606 674.5,-612 668.5,-612"/>
<text text-anchor="middle" x="651" y="-590.3" font-family="Times,serif" font-size="14.00">Module</text>
</g>
<!-- ast.FunctionDef object at 0x7f1c45a80220 -->
<g id="node2" class="node">
<title>ast.FunctionDef object at 0x7f1c45a80220</title>
<path fill="#66cdaa" stroke="black" d="M681.5,-540C681.5,-540 620.5,-540 620.5,-540 614.5,-540 608.5,-534 608.5,-528 608.5,-528 608.5,-516 608.5,-516 608.5,-510 614.5,-504 620.5,-504 620.5,-504 681.5,-504 681.5,-504 687.5,-504 693.5,-510 693.5,-516 693.5,-516 693.5,-528 693.5,-528 693.5,-534 687.5,-540 681.5,-540"/>
<text text-anchor="middle" x="651" y="-518.3" font-family="Times,serif" font-size="14.00">FunctionDef</text>
</g>
<!-- ast.Module object at 0x7f1c45a82da0&#45;&gt;ast.FunctionDef object at 0x7f1c45a80220 -->
<g id="edge1" class="edge">
<title>ast.Module object at 0x7f1c45a82da0&#45;&gt;ast.FunctionDef object at 0x7f1c45a80220</title>
<path fill="none" stroke="black" d="M651,-575.7C651,-567.98 651,-558.71 651,-550.11"/>
<polygon fill="black" stroke="black" points="654.5,-550.1 651,-540.1 647.5,-550.1 654.5,-550.1"/>
</g>
<!-- ast.arguments object at 0x7f1c45a83640 -->
<g id="node3" class="node">
<title>ast.arguments object at 0x7f1c45a83640</title>
<path fill="#66cdaa" stroke="black" d="M359,-468C359,-468 309,-468 309,-468 303,-468 297,-462 297,-456 297,-456 297,-444 297,-444 297,-438 303,-432 309,-432 309,-432 359,-432 359,-432 365,-432 371,-438 371,-444 371,-444 371,-456 371,-456 371,-462 365,-468 359,-468"/>
<text text-anchor="middle" x="334" y="-446.3" font-family="Times,serif" font-size="14.00">arguments</text>
</g>
<!-- ast.FunctionDef object at 0x7f1c45a80220&#45;&gt;ast.arguments object at 0x7f1c45a83640 -->
<g id="edge2" class="edge">
<title>ast.FunctionDef object at 0x7f1c45a80220&#45;&gt;ast.arguments object at 0x7f1c45a83640</title>
<path fill="none" stroke="black" d="M608.25,-511.56C549.02,-498.48 442.36,-474.93 380.97,-461.37"/>
<polygon fill="black" stroke="black" points="381.67,-457.94 371.15,-459.2 380.16,-464.78 381.67,-457.94"/>
</g>
<!-- ast.Assign object at 0x7f1c45a82230 -->
<g id="node5" class="node">
<title>ast.Assign object at 0x7f1c45a82230</title>
<path fill="#66cdaa" stroke="black" d="M702,-468C702,-468 672,-468 672,-468 666,-468 660,-462 660,-456 660,-456 660,-444 660,-444 660,-438 666,-432 672,-432 672,-432 702,-432 702,-432 708,-432 714,-438 714,-444 714,-444 714,-456 714,-456 714,-462 708,-468 702,-468"/>
<text text-anchor="middle" x="687" y="-446.3" font-family="Times,serif" font-size="14.00">Assign</text>
</g>
<!-- ast.FunctionDef object at 0x7f1c45a80220&#45;&gt;ast.Assign object at 0x7f1c45a82230 -->
<g id="edge4" class="edge">
<title>ast.FunctionDef object at 0x7f1c45a80220&#45;&gt;ast.Assign object at 0x7f1c45a82230</title>
<path fill="none" stroke="black" d="M659.9,-503.7C664,-495.73 668.95,-486.1 673.49,-477.26"/>
<polygon fill="black" stroke="black" points="676.74,-478.6 678.2,-468.1 670.52,-475.4 676.74,-478.6"/>
</g>
<!-- ast.For object at 0x7f1c45a80dc0 -->
<g id="node10" class="node">
<title>ast.For object at 0x7f1c45a80dc0</title>
<path fill="#66cdaa" stroke="black" d="M594,-468C594,-468 564,-468 564,-468 558,-468 552,-462 552,-456 552,-456 552,-444 552,-444 552,-438 558,-432 564,-432 564,-432 594,-432 594,-432 600,-432 606,-438 606,-444 606,-444 606,-456 606,-456 606,-462 600,-468 594,-468"/>
<text text-anchor="middle" x="579" y="-446.3" font-family="Times,serif" font-size="14.00">For</text>
</g>
<!-- ast.FunctionDef object at 0x7f1c45a80220&#45;&gt;ast.For object at 0x7f1c45a80dc0 -->
<g id="edge9" class="edge">
<title>ast.FunctionDef object at 0x7f1c45a80220&#45;&gt;ast.For object at 0x7f1c45a80dc0</title>
<path fill="none" stroke="black" d="M633.2,-503.7C624.4,-495.14 613.62,-484.66 604,-475.3"/>
<polygon fill="black" stroke="black" points="606.2,-472.57 596.59,-468.1 601.32,-477.58 606.2,-472.57"/>
</g>
<!-- ast.Return object at 0x7f1c45a82d70 -->
<g id="node42" class="node">
<title>ast.Return object at 0x7f1c45a82d70</title>
<path fill="#66cdaa" stroke="black" d="M793,-468C793,-468 763,-468 763,-468 757,-468 751,-462 751,-456 751,-456 751,-444 751,-444 751,-438 757,-432 763,-432 763,-432 793,-432 793,-432 799,-432 805,-438 805,-444 805,-444 805,-456 805,-456 805,-462 799,-468 793,-468"/>
<text text-anchor="middle" x="778" y="-446.3" font-family="Times,serif" font-size="14.00">Return</text>
</g>
<!-- ast.FunctionDef object at 0x7f1c45a80220&#45;&gt;ast.Return object at 0x7f1c45a82d70 -->
<g id="edge52" class="edge">
<title>ast.FunctionDef object at 0x7f1c45a80220&#45;&gt;ast.Return object at 0x7f1c45a82d70</title>
<path fill="none" stroke="black" d="M682.07,-503.88C700.12,-493.93 722.94,-481.35 741.8,-470.95"/>
<polygon fill="black" stroke="black" points="743.63,-473.94 750.7,-466.05 740.26,-467.81 743.63,-473.94"/>
</g>
<!-- ast.arg object at 0x7f1c45a83a90 -->
<g id="node4" class="node">
<title>ast.arg object at 0x7f1c45a83a90</title>
<path fill="#66cdaa" stroke="black" d="M141,-396C141,-396 111,-396 111,-396 105,-396 99,-390 99,-384 99,-384 99,-372 99,-372 99,-366 105,-360 111,-360 111,-360 141,-360 141,-360 147,-360 153,-366 153,-372 153,-372 153,-384 153,-384 153,-390 147,-396 141,-396"/>
<text text-anchor="middle" x="126" y="-374.3" font-family="Times,serif" font-size="14.00">arg</text>
</g>
<!-- ast.arguments object at 0x7f1c45a83640&#45;&gt;ast.arg object at 0x7f1c45a83a90 -->
<g id="edge3" class="edge">
<title>ast.arguments object at 0x7f1c45a83640&#45;&gt;ast.arg object at 0x7f1c45a83a90</title>
<path fill="none" stroke="black" d="M296.91,-439.22C263.78,-430.12 213.87,-415.52 162.87,-396.09"/>
<polygon fill="black" stroke="black" points="163.93,-392.75 153.34,-392.4 161.41,-399.27 163.93,-392.75"/>
</g>
<!-- ast.Name object at 0x7f1c45a830a0 -->
<g id="node6" class="node">
<title>ast.Name object at 0x7f1c45a830a0</title>
<path fill="#66cdaa" stroke="black" d="M702,-396C702,-396 672,-396 672,-396 666,-396 660,-390 660,-384 660,-384 660,-372 660,-372 660,-366 666,-360 672,-360 672,-360 702,-360 702,-360 708,-360 714,-366 714,-372 714,-372 714,-384 714,-384 714,-390 708,-396 702,-396"/>
<text text-anchor="middle" x="687" y="-374.3" font-family="Times,serif" font-size="14.00">Name</text>
</g>
<!-- ast.Assign object at 0x7f1c45a82230&#45;&gt;ast.Name object at 0x7f1c45a830a0 -->
<g id="edge5" class="edge">
<title>ast.Assign object at 0x7f1c45a82230&#45;&gt;ast.Name object at 0x7f1c45a830a0</title>
<path fill="none" stroke="black" d="M687,-431.7C687,-423.98 687,-414.71 687,-406.11"/>
<polygon fill="black" stroke="black" points="690.5,-406.1 687,-396.1 683.5,-406.1 690.5,-406.1"/>
</g>
<!-- ast.List object at 0x7f1c45a82e30 -->
<g id="node8" class="node">
<title>ast.List object at 0x7f1c45a82e30</title>
<path fill="#66cdaa" stroke="black" d="M783,-324C783,-324 753,-324 753,-324 747,-324 741,-318 741,-312 741,-312 741,-300 741,-300 741,-294 747,-288 753,-288 753,-288 783,-288 783,-288 789,-288 795,-294 795,-300 795,-300 795,-312 795,-312 795,-318 789,-324 783,-324"/>
<text text-anchor="middle" x="768" y="-302.3" font-family="Times,serif" font-size="14.00">List</text>
</g>
<!-- ast.Assign object at 0x7f1c45a82230&#45;&gt;ast.List object at 0x7f1c45a82e30 -->
<g id="edge7" class="edge">
<title>ast.Assign object at 0x7f1c45a82230&#45;&gt;ast.List object at 0x7f1c45a82e30</title>
<path fill="none" stroke="black" d="M699.58,-431.7C706.77,-421.52 715.77,-408.27 723,-396 735.09,-375.48 747.17,-351.32 755.77,-333.36"/>
<polygon fill="black" stroke="black" points="759.05,-334.61 760.17,-324.08 752.73,-331.62 759.05,-334.61"/>
</g>
<!-- ast.Store object at 0x7f1c4a3edfc0 -->
<g id="node7" class="node">
<title>ast.Store object at 0x7f1c4a3edfc0</title>
<path fill="#66cdaa" stroke="black" d="M693,-324C693,-324 663,-324 663,-324 657,-324 651,-318 651,-312 651,-312 651,-300 651,-300 651,-294 657,-288 663,-288 663,-288 693,-288 693,-288 699,-288 705,-294 705,-300 705,-300 705,-312 705,-312 705,-318 699,-324 693,-324"/>
<text text-anchor="middle" x="678" y="-302.3" font-family="Times,serif" font-size="14.00">Store</text>
</g>
<!-- ast.Name object at 0x7f1c45a830a0&#45;&gt;ast.Store object at 0x7f1c4a3edfc0 -->
<g id="edge6" class="edge">
<title>ast.Name object at 0x7f1c45a830a0&#45;&gt;ast.Store object at 0x7f1c4a3edfc0</title>
<path fill="none" stroke="black" d="M684.78,-359.7C683.78,-351.98 682.59,-342.71 681.49,-334.11"/>
<polygon fill="black" stroke="black" points="684.95,-333.58 680.2,-324.1 678,-334.47 684.95,-333.58"/>
</g>
<!-- ast.Load object at 0x7f1c4a3edf60 -->
<g id="node9" class="node">
<title>ast.Load object at 0x7f1c4a3edf60</title>
<path fill="#66cdaa" stroke="black" d="M525,-36C525,-36 495,-36 495,-36 489,-36 483,-30 483,-24 483,-24 483,-12 483,-12 483,-6 489,0 495,0 495,0 525,0 525,0 531,0 537,-6 537,-12 537,-12 537,-24 537,-24 537,-30 531,-36 525,-36"/>
<text text-anchor="middle" x="510" y="-14.3" font-family="Times,serif" font-size="14.00">Load</text>
</g>
<!-- ast.List object at 0x7f1c45a82e30&#45;&gt;ast.Load object at 0x7f1c4a3edf60 -->
<g id="edge8" class="edge">
<title>ast.List object at 0x7f1c45a82e30&#45;&gt;ast.Load object at 0x7f1c4a3edf60</title>
<path fill="none" stroke="black" d="M773.95,-287.62C783.29,-257.58 798.77,-194.36 783,-144 771.36,-106.82 765.19,-93.95 733,-72 676.15,-33.23 594.35,-22.65 547.25,-19.87"/>
<polygon fill="black" stroke="black" points="547.35,-16.37 537.19,-19.37 547,-23.36 547.35,-16.37"/>
</g>
<!-- ast.Name object at 0x7f1c45a824d0 -->
<g id="node11" class="node">
<title>ast.Name object at 0x7f1c45a824d0</title>
<path fill="#66cdaa" stroke="black" d="M630,-396C630,-396 600,-396 600,-396 594,-396 588,-390 588,-384 588,-384 588,-372 588,-372 588,-366 594,-360 600,-360 600,-360 630,-360 630,-360 636,-360 642,-366 642,-372 642,-372 642,-384 642,-384 642,-390 636,-396 630,-396"/>
<text text-anchor="middle" x="615" y="-374.3" font-family="Times,serif" font-size="14.00">Name</text>
</g>
<!-- ast.For object at 0x7f1c45a80dc0&#45;&gt;ast.Name object at 0x7f1c45a824d0 -->
<g id="edge10" class="edge">
<title>ast.For object at 0x7f1c45a80dc0&#45;&gt;ast.Name object at 0x7f1c45a824d0</title>
<path fill="none" stroke="black" d="M587.9,-431.7C592,-423.73 596.95,-414.1 601.49,-405.26"/>
<polygon fill="black" stroke="black" points="604.74,-406.6 606.2,-396.1 598.52,-403.4 604.74,-406.6"/>
</g>
<!-- ast.Call object at 0x7f1c45a82440 -->
<g id="node12" class="node">
<title>ast.Call object at 0x7f1c45a82440</title>
<path fill="#66cdaa" stroke="black" d="M213,-396C213,-396 183,-396 183,-396 177,-396 171,-390 171,-384 171,-384 171,-372 171,-372 171,-366 177,-360 183,-360 183,-360 213,-360 213,-360 219,-360 225,-366 225,-372 225,-372 225,-384 225,-384 225,-390 219,-396 213,-396"/>
<text text-anchor="middle" x="198" y="-374.3" font-family="Times,serif" font-size="14.00">Call</text>
</g>
<!-- ast.For object at 0x7f1c45a80dc0&#45;&gt;ast.Call object at 0x7f1c45a82440 -->
<g id="edge12" class="edge">
<title>ast.For object at 0x7f1c45a80dc0&#45;&gt;ast.Call object at 0x7f1c45a82440</title>
<path fill="none" stroke="black" d="M551.9,-444.02C485.01,-431.73 311.9,-399.93 235.35,-385.86"/>
<polygon fill="black" stroke="black" points="235.68,-382.36 225.21,-384 234.41,-389.25 235.68,-382.36"/>
</g>
<!-- ast.If object at 0x7f1c45a82200 -->
<g id="node19" class="node">
<title>ast.If object at 0x7f1c45a82200</title>
<path fill="#66cdaa" stroke="black" d="M558,-396C558,-396 528,-396 528,-396 522,-396 516,-390 516,-384 516,-384 516,-372 516,-372 516,-366 522,-360 528,-360 528,-360 558,-360 558,-360 564,-360 570,-366 570,-372 570,-372 570,-384 570,-384 570,-390 564,-396 558,-396"/>
<text text-anchor="middle" x="543" y="-374.3" font-family="Times,serif" font-size="14.00">If</text>
</g>
<!-- ast.For object at 0x7f1c45a80dc0&#45;&gt;ast.If object at 0x7f1c45a82200 -->
<g id="edge20" class="edge">
<title>ast.For object at 0x7f1c45a80dc0&#45;&gt;ast.If object at 0x7f1c45a82200</title>
<path fill="none" stroke="black" d="M570.1,-431.7C566,-423.73 561.05,-414.1 556.51,-405.26"/>
<polygon fill="black" stroke="black" points="559.48,-403.4 551.8,-396.1 553.26,-406.6 559.48,-403.4"/>
</g>
<!-- ast.Name object at 0x7f1c45a824d0&#45;&gt;ast.Store object at 0x7f1c4a3edfc0 -->
<g id="edge11" class="edge">
<title>ast.Name object at 0x7f1c45a824d0&#45;&gt;ast.Store object at 0x7f1c4a3edfc0</title>
<path fill="none" stroke="black" d="M630.57,-359.7C638.2,-351.22 647.52,-340.86 655.88,-331.58"/>
<polygon fill="black" stroke="black" points="658.52,-333.88 662.61,-324.1 653.31,-329.2 658.52,-333.88"/>
</g>
<!-- ast.Name object at 0x7f1c45a81930 -->
<g id="node13" class="node">
<title>ast.Name object at 0x7f1c45a81930</title>
<path fill="#66cdaa" stroke="black" d="M42,-324C42,-324 12,-324 12,-324 6,-324 0,-318 0,-312 0,-312 0,-300 0,-300 0,-294 6,-288 12,-288 12,-288 42,-288 42,-288 48,-288 54,-294 54,-300 54,-300 54,-312 54,-312 54,-318 48,-324 42,-324"/>
<text text-anchor="middle" x="27" y="-302.3" font-family="Times,serif" font-size="14.00">Name</text>
</g>
<!-- ast.Call object at 0x7f1c45a82440&#45;&gt;ast.Name object at 0x7f1c45a81930 -->
<g id="edge13" class="edge">
<title>ast.Call object at 0x7f1c45a82440&#45;&gt;ast.Name object at 0x7f1c45a81930</title>
<path fill="none" stroke="black" d="M170.96,-363.99C167.95,-362.62 164.92,-361.26 162,-360 129.06,-345.78 90.96,-330.96 63.65,-320.63"/>
<polygon fill="black" stroke="black" points="64.7,-317.28 54.11,-317.03 62.23,-323.83 64.7,-317.28"/>
</g>
<!-- ast.Constant object at 0x7f1c45a83a60 -->
<g id="node14" class="node">
<title>ast.Constant object at 0x7f1c45a83a60</title>
<path fill="#66cdaa" stroke="black" d="M140.5,-324C140.5,-324 99.5,-324 99.5,-324 93.5,-324 87.5,-318 87.5,-312 87.5,-312 87.5,-300 87.5,-300 87.5,-294 93.5,-288 99.5,-288 99.5,-288 140.5,-288 140.5,-288 146.5,-288 152.5,-294 152.5,-300 152.5,-300 152.5,-312 152.5,-312 152.5,-318 146.5,-324 140.5,-324"/>
<text text-anchor="middle" x="120" y="-302.3" font-family="Times,serif" font-size="14.00">Constant</text>
</g>
<!-- ast.Call object at 0x7f1c45a82440&#45;&gt;ast.Constant object at 0x7f1c45a83a60 -->
<g id="edge15" class="edge">
<title>ast.Call object at 0x7f1c45a82440&#45;&gt;ast.Constant object at 0x7f1c45a83a60</title>
<path fill="none" stroke="black" d="M178.72,-359.7C169.08,-351.05 157.27,-340.45 146.77,-331.03"/>
<polygon fill="black" stroke="black" points="148.84,-328.18 139.06,-324.1 144.16,-333.39 148.84,-328.18"/>
</g>
<!-- ast.BinOp object at 0x7f1c45a82e00 -->
<g id="node15" class="node">
<title>ast.BinOp object at 0x7f1c45a82e00</title>
<path fill="#66cdaa" stroke="black" d="M213,-324C213,-324 183,-324 183,-324 177,-324 171,-318 171,-312 171,-312 171,-300 171,-300 171,-294 177,-288 183,-288 183,-288 213,-288 213,-288 219,-288 225,-294 225,-300 225,-300 225,-312 225,-312 225,-318 219,-324 213,-324"/>
<text text-anchor="middle" x="198" y="-302.3" font-family="Times,serif" font-size="14.00">BinOp</text>
</g>
<!-- ast.Call object at 0x7f1c45a82440&#45;&gt;ast.BinOp object at 0x7f1c45a82e00 -->
<g id="edge16" class="edge">
<title>ast.Call object at 0x7f1c45a82440&#45;&gt;ast.BinOp object at 0x7f1c45a82e00</title>
<path fill="none" stroke="black" d="M198,-359.7C198,-351.98 198,-342.71 198,-334.11"/>
<polygon fill="black" stroke="black" points="201.5,-334.1 198,-324.1 194.5,-334.1 201.5,-334.1"/>
</g>
<!-- ast.Name object at 0x7f1c45a81930&#45;&gt;ast.Load object at 0x7f1c4a3edf60 -->
<g id="edge14" class="edge">
<title>ast.Name object at 0x7f1c45a81930&#45;&gt;ast.Load object at 0x7f1c4a3edf60</title>
<path fill="none" stroke="black" d="M25.4,-287.88C24.25,-269.67 23.94,-240.2 31,-216 51.69,-145.09 52.64,-113.13 114,-72 172.28,-32.93 385.77,-22.51 472.74,-19.86"/>
<polygon fill="black" stroke="black" points="473.05,-23.35 482.95,-19.57 472.85,-16.36 473.05,-23.35"/>
</g>
<!-- ast.Constant object at 0x7f1c45a82920 -->
<g id="node16" class="node">
<title>ast.Constant object at 0x7f1c45a82920</title>
<path fill="#66cdaa" stroke="black" d="M248.5,-252C248.5,-252 207.5,-252 207.5,-252 201.5,-252 195.5,-246 195.5,-240 195.5,-240 195.5,-228 195.5,-228 195.5,-222 201.5,-216 207.5,-216 207.5,-216 248.5,-216 248.5,-216 254.5,-216 260.5,-222 260.5,-228 260.5,-228 260.5,-240 260.5,-240 260.5,-246 254.5,-252 248.5,-252"/>
<text text-anchor="middle" x="228" y="-230.3" font-family="Times,serif" font-size="14.00">Constant</text>
</g>
<!-- ast.BinOp object at 0x7f1c45a82e00&#45;&gt;ast.Constant object at 0x7f1c45a82920 -->
<g id="edge17" class="edge">
<title>ast.BinOp object at 0x7f1c45a82e00&#45;&gt;ast.Constant object at 0x7f1c45a82920</title>
<path fill="none" stroke="black" d="M205.42,-287.7C208.79,-279.81 212.87,-270.3 216.62,-261.55"/>
<polygon fill="black" stroke="black" points="219.95,-262.67 220.67,-252.1 213.51,-259.92 219.95,-262.67"/>
</g>
<!-- ast.Add object at 0x7f1c4a3ee1a0 -->
<g id="node17" class="node">
<title>ast.Add object at 0x7f1c4a3ee1a0</title>
<path fill="#66cdaa" stroke="black" d="M82,-252C82,-252 52,-252 52,-252 46,-252 40,-246 40,-240 40,-240 40,-228 40,-228 40,-222 46,-216 52,-216 52,-216 82,-216 82,-216 88,-216 94,-222 94,-228 94,-228 94,-240 94,-240 94,-246 88,-252 82,-252"/>
<text text-anchor="middle" x="67" y="-230.3" font-family="Times,serif" font-size="14.00">Add</text>
</g>
<!-- ast.BinOp object at 0x7f1c45a82e00&#45;&gt;ast.Add object at 0x7f1c4a3ee1a0 -->
<g id="edge18" class="edge">
<title>ast.BinOp object at 0x7f1c45a82e00&#45;&gt;ast.Add object at 0x7f1c4a3ee1a0</title>
<path fill="none" stroke="black" d="M170.86,-290.5C151.18,-279.98 124.38,-265.66 102.94,-254.2"/>
<polygon fill="black" stroke="black" points="104.58,-251.11 94.11,-249.49 101.28,-257.29 104.58,-251.11"/>
</g>
<!-- ast.Constant object at 0x7f1c45a82530 -->
<g id="node18" class="node">
<title>ast.Constant object at 0x7f1c45a82530</title>
<path fill="#66cdaa" stroke="black" d="M165.5,-252C165.5,-252 124.5,-252 124.5,-252 118.5,-252 112.5,-246 112.5,-240 112.5,-240 112.5,-228 112.5,-228 112.5,-222 118.5,-216 124.5,-216 124.5,-216 165.5,-216 165.5,-216 171.5,-216 177.5,-222 177.5,-228 177.5,-228 177.5,-240 177.5,-240 177.5,-246 171.5,-252 165.5,-252"/>
<text text-anchor="middle" x="145" y="-230.3" font-family="Times,serif" font-size="14.00">Constant</text>
</g>
<!-- ast.BinOp object at 0x7f1c45a82e00&#45;&gt;ast.Constant object at 0x7f1c45a82530 -->
<g id="edge19" class="edge">
<title>ast.BinOp object at 0x7f1c45a82e00&#45;&gt;ast.Constant object at 0x7f1c45a82530</title>
<path fill="none" stroke="black" d="M184.9,-287.7C178.61,-279.39 170.95,-269.28 164.04,-260.14"/>
<polygon fill="black" stroke="black" points="166.78,-257.96 157.95,-252.1 161.2,-262.19 166.78,-257.96"/>
</g>
<!-- ast.BoolOp object at 0x7f1c45a80670 -->
<g id="node20" class="node">
<title>ast.BoolOp object at 0x7f1c45a80670</title>
<path fill="#66cdaa" stroke="black" d="M446.5,-324C446.5,-324 411.5,-324 411.5,-324 405.5,-324 399.5,-318 399.5,-312 399.5,-312 399.5,-300 399.5,-300 399.5,-294 405.5,-288 411.5,-288 411.5,-288 446.5,-288 446.5,-288 452.5,-288 458.5,-294 458.5,-300 458.5,-300 458.5,-312 458.5,-312 458.5,-318 452.5,-324 446.5,-324"/>
<text text-anchor="middle" x="429" y="-302.3" font-family="Times,serif" font-size="14.00">BoolOp</text>
</g>
<!-- ast.If object at 0x7f1c45a82200&#45;&gt;ast.BoolOp object at 0x7f1c45a80670 -->
<g id="edge21" class="edge">
<title>ast.If object at 0x7f1c45a82200&#45;&gt;ast.BoolOp object at 0x7f1c45a80670</title>
<path fill="none" stroke="black" d="M515.98,-360.41C500.98,-351.2 482.11,-339.61 465.78,-329.59"/>
<polygon fill="black" stroke="black" points="467.37,-326.45 457.01,-324.2 463.7,-332.42 467.37,-326.45"/>
</g>
<!-- ast.Expr object at 0x7f1c45a814b0 -->
<g id="node37" class="node">
<title>ast.Expr object at 0x7f1c45a814b0</title>
<path fill="#66cdaa" stroke="black" d="M587,-324C587,-324 557,-324 557,-324 551,-324 545,-318 545,-312 545,-312 545,-300 545,-300 545,-294 551,-288 557,-288 557,-288 587,-288 587,-288 593,-288 599,-294 599,-300 599,-300 599,-312 599,-312 599,-318 593,-324 587,-324"/>
<text text-anchor="middle" x="572" y="-302.3" font-family="Times,serif" font-size="14.00">Expr</text>
</g>
<!-- ast.If object at 0x7f1c45a82200&#45;&gt;ast.Expr object at 0x7f1c45a814b0 -->
<g id="edge44" class="edge">
<title>ast.If object at 0x7f1c45a82200&#45;&gt;ast.Expr object at 0x7f1c45a814b0</title>
<path fill="none" stroke="black" d="M550.17,-359.7C553.43,-351.81 557.37,-342.3 561,-333.55"/>
<polygon fill="black" stroke="black" points="564.32,-334.68 564.91,-324.1 557.85,-332 564.32,-334.68"/>
</g>
<!-- ast.And object at 0x7f1c4a3ee0b0 -->
<g id="node21" class="node">
<title>ast.And object at 0x7f1c4a3ee0b0</title>
<path fill="#66cdaa" stroke="black" d="M444,-252C444,-252 414,-252 414,-252 408,-252 402,-246 402,-240 402,-240 402,-228 402,-228 402,-222 408,-216 414,-216 414,-216 444,-216 444,-216 450,-216 456,-222 456,-228 456,-228 456,-240 456,-240 456,-246 450,-252 444,-252"/>
<text text-anchor="middle" x="429" y="-230.3" font-family="Times,serif" font-size="14.00">And</text>
</g>
<!-- ast.BoolOp object at 0x7f1c45a80670&#45;&gt;ast.And object at 0x7f1c4a3ee0b0 -->
<g id="edge22" class="edge">
<title>ast.BoolOp object at 0x7f1c45a80670&#45;&gt;ast.And object at 0x7f1c4a3ee0b0</title>
<path fill="none" stroke="black" d="M429,-287.7C429,-279.98 429,-270.71 429,-262.11"/>
<polygon fill="black" stroke="black" points="432.5,-262.1 429,-252.1 425.5,-262.1 432.5,-262.1"/>
</g>
<!-- ast.Compare object at 0x7f1c45a80eb0 -->
<g id="node22" class="node">
<title>ast.Compare object at 0x7f1c45a80eb0</title>
<path fill="#66cdaa" stroke="black" d="M529.5,-252C529.5,-252 486.5,-252 486.5,-252 480.5,-252 474.5,-246 474.5,-240 474.5,-240 474.5,-228 474.5,-228 474.5,-222 480.5,-216 486.5,-216 486.5,-216 529.5,-216 529.5,-216 535.5,-216 541.5,-222 541.5,-228 541.5,-228 541.5,-240 541.5,-240 541.5,-246 535.5,-252 529.5,-252"/>
<text text-anchor="middle" x="508" y="-230.3" font-family="Times,serif" font-size="14.00">Compare</text>
</g>
<!-- ast.BoolOp object at 0x7f1c45a80670&#45;&gt;ast.Compare object at 0x7f1c45a80eb0 -->
<g id="edge23" class="edge">
<title>ast.BoolOp object at 0x7f1c45a80670&#45;&gt;ast.Compare object at 0x7f1c45a80eb0</title>
<path fill="none" stroke="black" d="M448.53,-287.7C458.38,-278.97 470.49,-268.24 481.2,-258.75"/>
<polygon fill="black" stroke="black" points="483.53,-261.36 488.7,-252.1 478.89,-256.12 483.53,-261.36"/>
</g>
<!-- ast.Call object at 0x7f1c45a834c0 -->
<g id="node29" class="node">
<title>ast.Call object at 0x7f1c45a834c0</title>
<path fill="#66cdaa" stroke="black" d="M379,-180C379,-180 349,-180 349,-180 343,-180 337,-174 337,-168 337,-168 337,-156 337,-156 337,-150 343,-144 349,-144 349,-144 379,-144 379,-144 385,-144 391,-150 391,-156 391,-156 391,-168 391,-168 391,-174 385,-180 379,-180"/>
<text text-anchor="middle" x="364" y="-158.3" font-family="Times,serif" font-size="14.00">Call</text>
</g>
<!-- ast.BoolOp object at 0x7f1c45a80670&#45;&gt;ast.Call object at 0x7f1c45a834c0 -->
<g id="edge32" class="edge">
<title>ast.BoolOp object at 0x7f1c45a80670&#45;&gt;ast.Call object at 0x7f1c45a834c0</title>
<path fill="none" stroke="black" d="M415.35,-287.61C407.99,-277.62 399.17,-264.58 393,-252 383.25,-232.12 375.67,-208.19 370.7,-190.15"/>
<polygon fill="black" stroke="black" points="374.03,-189.05 368.08,-180.29 367.27,-190.85 374.03,-189.05"/>
</g>
<!-- ast.Compare object at 0x7f1c45a80100 -->
<g id="node33" class="node">
<title>ast.Compare object at 0x7f1c45a80100</title>
<path fill="#66cdaa" stroke="black" d="M333.5,-252C333.5,-252 290.5,-252 290.5,-252 284.5,-252 278.5,-246 278.5,-240 278.5,-240 278.5,-228 278.5,-228 278.5,-222 284.5,-216 290.5,-216 290.5,-216 333.5,-216 333.5,-216 339.5,-216 345.5,-222 345.5,-228 345.5,-228 345.5,-240 345.5,-240 345.5,-246 339.5,-252 333.5,-252"/>
<text text-anchor="middle" x="312" y="-230.3" font-family="Times,serif" font-size="14.00">Compare</text>
</g>
<!-- ast.BoolOp object at 0x7f1c45a80670&#45;&gt;ast.Compare object at 0x7f1c45a80100 -->
<g id="edge39" class="edge">
<title>ast.BoolOp object at 0x7f1c45a80670&#45;&gt;ast.Compare object at 0x7f1c45a80100</title>
<path fill="none" stroke="black" d="M400.38,-287.88C385.08,-278.72 366.06,-267.34 349.58,-257.48"/>
<polygon fill="black" stroke="black" points="351.11,-254.32 340.73,-252.19 347.52,-260.33 351.11,-254.32"/>
</g>
<!-- ast.BinOp object at 0x7f1c45a82290 -->
<g id="node23" class="node">
<title>ast.BinOp object at 0x7f1c45a82290</title>
<path fill="#66cdaa" stroke="black" d="M451,-180C451,-180 421,-180 421,-180 415,-180 409,-174 409,-168 409,-168 409,-156 409,-156 409,-150 415,-144 421,-144 421,-144 451,-144 451,-144 457,-144 463,-150 463,-156 463,-156 463,-168 463,-168 463,-174 457,-180 451,-180"/>
<text text-anchor="middle" x="436" y="-158.3" font-family="Times,serif" font-size="14.00">BinOp</text>
</g>
<!-- ast.Compare object at 0x7f1c45a80eb0&#45;&gt;ast.BinOp object at 0x7f1c45a82290 -->
<g id="edge24" class="edge">
<title>ast.Compare object at 0x7f1c45a80eb0&#45;&gt;ast.BinOp object at 0x7f1c45a82290</title>
<path fill="none" stroke="black" d="M490.2,-215.7C481.4,-207.14 470.62,-196.66 461,-187.3"/>
<polygon fill="black" stroke="black" points="463.2,-184.57 453.59,-180.1 458.32,-189.58 463.2,-184.57"/>
</g>
<!-- ast.Eq object at 0x7f1c4a3ee890 -->
<g id="node27" class="node">
<title>ast.Eq object at 0x7f1c4a3ee890</title>
<path fill="#66cdaa" stroke="black" d="M523,-180C523,-180 493,-180 493,-180 487,-180 481,-174 481,-168 481,-168 481,-156 481,-156 481,-150 487,-144 493,-144 493,-144 523,-144 523,-144 529,-144 535,-150 535,-156 535,-156 535,-168 535,-168 535,-174 529,-180 523,-180"/>
<text text-anchor="middle" x="508" y="-158.3" font-family="Times,serif" font-size="14.00">Eq</text>
</g>
<!-- ast.Compare object at 0x7f1c45a80eb0&#45;&gt;ast.Eq object at 0x7f1c4a3ee890 -->
<g id="edge30" class="edge">
<title>ast.Compare object at 0x7f1c45a80eb0&#45;&gt;ast.Eq object at 0x7f1c4a3ee890</title>
<path fill="none" stroke="black" d="M508,-215.7C508,-207.98 508,-198.71 508,-190.11"/>
<polygon fill="black" stroke="black" points="511.5,-190.1 508,-180.1 504.5,-190.1 511.5,-190.1"/>
</g>
<!-- ast.Constant object at 0x7f1c45a817e0 -->
<g id="node28" class="node">
<title>ast.Constant object at 0x7f1c45a817e0</title>
<path fill="#66cdaa" stroke="black" d="M606.5,-180C606.5,-180 565.5,-180 565.5,-180 559.5,-180 553.5,-174 553.5,-168 553.5,-168 553.5,-156 553.5,-156 553.5,-150 559.5,-144 565.5,-144 565.5,-144 606.5,-144 606.5,-144 612.5,-144 618.5,-150 618.5,-156 618.5,-156 618.5,-168 618.5,-168 618.5,-174 612.5,-180 606.5,-180"/>
<text text-anchor="middle" x="586" y="-158.3" font-family="Times,serif" font-size="14.00">Constant</text>
</g>
<!-- ast.Compare object at 0x7f1c45a80eb0&#45;&gt;ast.Constant object at 0x7f1c45a817e0 -->
<g id="edge31" class="edge">
<title>ast.Compare object at 0x7f1c45a80eb0&#45;&gt;ast.Constant object at 0x7f1c45a817e0</title>
<path fill="none" stroke="black" d="M527.28,-215.7C536.92,-207.05 548.73,-196.45 559.23,-187.03"/>
<polygon fill="black" stroke="black" points="561.84,-189.39 566.94,-180.1 557.16,-184.18 561.84,-189.39"/>
</g>
<!-- ast.Name object at 0x7f1c45a83ac0 -->
<g id="node24" class="node">
<title>ast.Name object at 0x7f1c45a83ac0</title>
<path fill="#66cdaa" stroke="black" d="M597,-108C597,-108 567,-108 567,-108 561,-108 555,-102 555,-96 555,-96 555,-84 555,-84 555,-78 561,-72 567,-72 567,-72 597,-72 597,-72 603,-72 609,-78 609,-84 609,-84 609,-96 609,-96 609,-102 603,-108 597,-108"/>
<text text-anchor="middle" x="582" y="-86.3" font-family="Times,serif" font-size="14.00">Name</text>
</g>
<!-- ast.BinOp object at 0x7f1c45a82290&#45;&gt;ast.Name object at 0x7f1c45a83ac0 -->
<g id="edge25" class="edge">
<title>ast.BinOp object at 0x7f1c45a82290&#45;&gt;ast.Name object at 0x7f1c45a83ac0</title>
<path fill="none" stroke="black" d="M463.12,-148C486.33,-136.87 519.94,-120.75 545.51,-108.5"/>
<polygon fill="black" stroke="black" points="547.03,-111.65 554.53,-104.17 544,-105.34 547.03,-111.65"/>
</g>
<!-- ast.Mod object at 0x7f1c4a3ee380 -->
<g id="node25" class="node">
<title>ast.Mod object at 0x7f1c4a3ee380</title>
<path fill="#66cdaa" stroke="black" d="M525,-108C525,-108 495,-108 495,-108 489,-108 483,-102 483,-96 483,-96 483,-84 483,-84 483,-78 489,-72 495,-72 495,-72 525,-72 525,-72 531,-72 537,-78 537,-84 537,-84 537,-96 537,-96 537,-102 531,-108 525,-108"/>
<text text-anchor="middle" x="510" y="-86.3" font-family="Times,serif" font-size="14.00">Mod</text>
</g>
<!-- ast.BinOp object at 0x7f1c45a82290&#45;&gt;ast.Mod object at 0x7f1c4a3ee380 -->
<g id="edge27" class="edge">
<title>ast.BinOp object at 0x7f1c45a82290&#45;&gt;ast.Mod object at 0x7f1c4a3ee380</title>
<path fill="none" stroke="black" d="M454.29,-143.7C463.43,-135.05 474.64,-124.45 484.6,-115.03"/>
<polygon fill="black" stroke="black" points="487.06,-117.52 491.92,-108.1 482.25,-112.43 487.06,-117.52"/>
</g>
<!-- ast.Name object at 0x7f1c45a83d00 -->
<g id="node26" class="node">
<title>ast.Name object at 0x7f1c45a83d00</title>
<path fill="#66cdaa" stroke="black" d="M453,-108C453,-108 423,-108 423,-108 417,-108 411,-102 411,-96 411,-96 411,-84 411,-84 411,-78 417,-72 423,-72 423,-72 453,-72 453,-72 459,-72 465,-78 465,-84 465,-84 465,-96 465,-96 465,-102 459,-108 453,-108"/>
<text text-anchor="middle" x="438" y="-86.3" font-family="Times,serif" font-size="14.00">Name</text>
</g>
<!-- ast.BinOp object at 0x7f1c45a82290&#45;&gt;ast.Name object at 0x7f1c45a83d00 -->
<g id="edge28" class="edge">
<title>ast.BinOp object at 0x7f1c45a82290&#45;&gt;ast.Name object at 0x7f1c45a83d00</title>
<path fill="none" stroke="black" d="M436.49,-143.7C436.71,-135.98 436.98,-126.71 437.23,-118.11"/>
<polygon fill="black" stroke="black" points="440.72,-118.2 437.51,-108.1 433.73,-118 440.72,-118.2"/>
</g>
<!-- ast.Name object at 0x7f1c45a83ac0&#45;&gt;ast.Load object at 0x7f1c4a3edf60 -->
<g id="edge26" class="edge">
<title>ast.Name object at 0x7f1c45a83ac0&#45;&gt;ast.Load object at 0x7f1c4a3edf60</title>
<path fill="none" stroke="black" d="M564.2,-71.7C555.4,-63.14 544.62,-52.66 535,-43.3"/>
<polygon fill="black" stroke="black" points="537.2,-40.57 527.59,-36.1 532.32,-45.58 537.2,-40.57"/>
</g>
<!-- ast.Name object at 0x7f1c45a83d00&#45;&gt;ast.Load object at 0x7f1c4a3edf60 -->
<g id="edge29" class="edge">
<title>ast.Name object at 0x7f1c45a83d00&#45;&gt;ast.Load object at 0x7f1c4a3edf60</title>
<path fill="none" stroke="black" d="M455.8,-71.7C464.6,-63.14 475.38,-52.66 485,-43.3"/>
<polygon fill="black" stroke="black" points="487.68,-45.58 492.41,-36.1 482.8,-40.57 487.68,-45.58"/>
</g>
<!-- ast.Name object at 0x7f1c45a83dc0 -->
<g id="node30" class="node">
<title>ast.Name object at 0x7f1c45a83dc0</title>
<path fill="#66cdaa" stroke="black" d="M381,-108C381,-108 351,-108 351,-108 345,-108 339,-102 339,-96 339,-96 339,-84 339,-84 339,-78 345,-72 351,-72 351,-72 381,-72 381,-72 387,-72 393,-78 393,-84 393,-84 393,-96 393,-96 393,-102 387,-108 381,-108"/>
<text text-anchor="middle" x="366" y="-86.3" font-family="Times,serif" font-size="14.00">Name</text>
</g>
<!-- ast.Call object at 0x7f1c45a834c0&#45;&gt;ast.Name object at 0x7f1c45a83dc0 -->
<g id="edge33" class="edge">
<title>ast.Call object at 0x7f1c45a834c0&#45;&gt;ast.Name object at 0x7f1c45a83dc0</title>
<path fill="none" stroke="black" d="M364.49,-143.7C364.71,-135.98 364.98,-126.71 365.23,-118.11"/>
<polygon fill="black" stroke="black" points="368.72,-118.2 365.51,-108.1 361.73,-118 368.72,-118.2"/>
</g>
<!-- ast.Name object at 0x7f1c45a81270 -->
<g id="node31" class="node">
<title>ast.Name object at 0x7f1c45a81270</title>
<path fill="#66cdaa" stroke="black" d="M237,-108C237,-108 207,-108 207,-108 201,-108 195,-102 195,-96 195,-96 195,-84 195,-84 195,-78 201,-72 207,-72 207,-72 237,-72 237,-72 243,-72 249,-78 249,-84 249,-84 249,-96 249,-96 249,-102 243,-108 237,-108"/>
<text text-anchor="middle" x="222" y="-86.3" font-family="Times,serif" font-size="14.00">Name</text>
</g>
<!-- ast.Call object at 0x7f1c45a834c0&#45;&gt;ast.Name object at 0x7f1c45a81270 -->
<g id="edge35" class="edge">
<title>ast.Call object at 0x7f1c45a834c0&#45;&gt;ast.Name object at 0x7f1c45a81270</title>
<path fill="none" stroke="black" d="M336.96,-147.67C314.69,-136.69 282.93,-121.03 258.43,-108.96"/>
<polygon fill="black" stroke="black" points="259.94,-105.8 249.43,-104.52 256.85,-112.08 259.94,-105.8"/>
</g>
<!-- ast.Name object at 0x7f1c45a82800 -->
<g id="node32" class="node">
<title>ast.Name object at 0x7f1c45a82800</title>
<path fill="#66cdaa" stroke="black" d="M309,-108C309,-108 279,-108 279,-108 273,-108 267,-102 267,-96 267,-96 267,-84 267,-84 267,-78 273,-72 279,-72 279,-72 309,-72 309,-72 315,-72 321,-78 321,-84 321,-84 321,-96 321,-96 321,-102 315,-108 309,-108"/>
<text text-anchor="middle" x="294" y="-86.3" font-family="Times,serif" font-size="14.00">Name</text>
</g>
<!-- ast.Call object at 0x7f1c45a834c0&#45;&gt;ast.Name object at 0x7f1c45a82800 -->
<g id="edge37" class="edge">
<title>ast.Call object at 0x7f1c45a834c0&#45;&gt;ast.Name object at 0x7f1c45a82800</title>
<path fill="none" stroke="black" d="M346.7,-143.7C338.14,-135.14 327.66,-124.66 318.3,-115.3"/>
<polygon fill="black" stroke="black" points="320.65,-112.7 311.1,-108.1 315.7,-117.65 320.65,-112.7"/>
</g>
<!-- ast.Name object at 0x7f1c45a83dc0&#45;&gt;ast.Load object at 0x7f1c4a3edf60 -->
<g id="edge34" class="edge">
<title>ast.Name object at 0x7f1c45a83dc0&#45;&gt;ast.Load object at 0x7f1c4a3edf60</title>
<path fill="none" stroke="black" d="M393.09,-75.83C415.77,-64.81 448.36,-48.97 473.37,-36.81"/>
<polygon fill="black" stroke="black" points="475.08,-39.87 482.55,-32.35 472.02,-33.57 475.08,-39.87"/>
</g>
<!-- ast.Name object at 0x7f1c45a81270&#45;&gt;ast.Load object at 0x7f1c4a3edf60 -->
<g id="edge36" class="edge">
<title>ast.Name object at 0x7f1c45a81270&#45;&gt;ast.Load object at 0x7f1c4a3edf60</title>
<path fill="none" stroke="black" d="M249.24,-75.33C252.16,-74.11 255.12,-72.97 258,-72 332.38,-47 423.22,-31.37 472.99,-24.01"/>
<polygon fill="black" stroke="black" points="473.57,-27.46 482.97,-22.56 472.57,-20.53 473.57,-27.46"/>
</g>
<!-- ast.Name object at 0x7f1c45a82800&#45;&gt;ast.Load object at 0x7f1c4a3edf60 -->
<g id="edge38" class="edge">
<title>ast.Name object at 0x7f1c45a82800&#45;&gt;ast.Load object at 0x7f1c4a3edf60</title>
<path fill="none" stroke="black" d="M321.33,-75.56C324.23,-74.29 327.16,-73.08 330,-72 378.42,-53.57 436.15,-37.58 472.94,-28.12"/>
<polygon fill="black" stroke="black" points="473.9,-31.48 482.73,-25.62 472.18,-24.7 473.9,-31.48"/>
</g>
<!-- ast.Name object at 0x7f1c45a81d50 -->
<g id="node34" class="node">
<title>ast.Name object at 0x7f1c45a81d50</title>
<path fill="#66cdaa" stroke="black" d="M165,-108C165,-108 135,-108 135,-108 129,-108 123,-102 123,-96 123,-96 123,-84 123,-84 123,-78 129,-72 135,-72 135,-72 165,-72 165,-72 171,-72 177,-78 177,-84 177,-84 177,-96 177,-96 177,-102 171,-108 165,-108"/>
<text text-anchor="middle" x="150" y="-86.3" font-family="Times,serif" font-size="14.00">Name</text>
</g>
<!-- ast.Compare object at 0x7f1c45a80100&#45;&gt;ast.Name object at 0x7f1c45a81d50 -->
<g id="edge40" class="edge">
<title>ast.Compare object at 0x7f1c45a80100&#45;&gt;ast.Name object at 0x7f1c45a81d50</title>
<path fill="none" stroke="black" d="M278.11,-219.18C275.37,-218.1 272.64,-217.02 270,-216 227.13,-199.37 203.81,-214.14 173,-180 157.84,-163.21 152.42,-137.72 150.6,-118.32"/>
<polygon fill="black" stroke="black" points="154.08,-118 149.92,-108.26 147.1,-118.48 154.08,-118"/>
</g>
<!-- ast.Gt object at 0x7f1c4a3eea10 -->
<g id="node35" class="node">
<title>ast.Gt object at 0x7f1c4a3eea10</title>
<path fill="#66cdaa" stroke="black" d="M307,-180C307,-180 277,-180 277,-180 271,-180 265,-174 265,-168 265,-168 265,-156 265,-156 265,-150 271,-144 277,-144 277,-144 307,-144 307,-144 313,-144 319,-150 319,-156 319,-156 319,-168 319,-168 319,-174 313,-180 307,-180"/>
<text text-anchor="middle" x="292" y="-158.3" font-family="Times,serif" font-size="14.00">Gt</text>
</g>
<!-- ast.Compare object at 0x7f1c45a80100&#45;&gt;ast.Gt object at 0x7f1c4a3eea10 -->
<g id="edge42" class="edge">
<title>ast.Compare object at 0x7f1c45a80100&#45;&gt;ast.Gt object at 0x7f1c4a3eea10</title>
<path fill="none" stroke="black" d="M307.06,-215.7C304.83,-207.9 302.15,-198.51 299.67,-189.83"/>
<polygon fill="black" stroke="black" points="303,-188.76 296.89,-180.1 296.27,-190.68 303,-188.76"/>
</g>
<!-- ast.Constant object at 0x7f1c45a80d00 -->
<g id="node36" class="node">
<title>ast.Constant object at 0x7f1c45a80d00</title>
<path fill="#66cdaa" stroke="black" d="M234.5,-180C234.5,-180 193.5,-180 193.5,-180 187.5,-180 181.5,-174 181.5,-168 181.5,-168 181.5,-156 181.5,-156 181.5,-150 187.5,-144 193.5,-144 193.5,-144 234.5,-144 234.5,-144 240.5,-144 246.5,-150 246.5,-156 246.5,-156 246.5,-168 246.5,-168 246.5,-174 240.5,-180 234.5,-180"/>
<text text-anchor="middle" x="214" y="-158.3" font-family="Times,serif" font-size="14.00">Constant</text>
</g>
<!-- ast.Compare object at 0x7f1c45a80100&#45;&gt;ast.Constant object at 0x7f1c45a80d00 -->
<g id="edge43" class="edge">
<title>ast.Compare object at 0x7f1c45a80100&#45;&gt;ast.Constant object at 0x7f1c45a80d00</title>
<path fill="none" stroke="black" d="M288.03,-215.88C275.45,-206.89 259.87,-195.76 246.25,-186.03"/>
<polygon fill="black" stroke="black" points="248.24,-183.15 238.07,-180.19 244.17,-188.85 248.24,-183.15"/>
</g>
<!-- ast.Name object at 0x7f1c45a81d50&#45;&gt;ast.Load object at 0x7f1c4a3edf60 -->
<g id="edge41" class="edge">
<title>ast.Name object at 0x7f1c45a81d50&#45;&gt;ast.Load object at 0x7f1c4a3edf60</title>
<path fill="none" stroke="black" d="M177.2,-75.19C180.13,-74 183.1,-72.9 186,-72 286.89,-40.61 411.55,-26.89 472.66,-21.71"/>
<polygon fill="black" stroke="black" points="473.28,-25.17 482.96,-20.87 472.71,-18.19 473.28,-25.17"/>
</g>
<!-- ast.Call object at 0x7f1c45a81b70 -->
<g id="node38" class="node">
<title>ast.Call object at 0x7f1c45a81b70</title>
<path fill="#66cdaa" stroke="black" d="M684,-252C684,-252 654,-252 654,-252 648,-252 642,-246 642,-240 642,-240 642,-228 642,-228 642,-222 648,-216 654,-216 654,-216 684,-216 684,-216 690,-216 696,-222 696,-228 696,-228 696,-240 696,-240 696,-246 690,-252 684,-252"/>
<text text-anchor="middle" x="669" y="-230.3" font-family="Times,serif" font-size="14.00">Call</text>
</g>
<!-- ast.Expr object at 0x7f1c45a814b0&#45;&gt;ast.Call object at 0x7f1c45a81b70 -->
<g id="edge45" class="edge">
<title>ast.Expr object at 0x7f1c45a814b0&#45;&gt;ast.Call object at 0x7f1c45a81b70</title>
<path fill="none" stroke="black" d="M595.98,-287.7C608.31,-278.8 623.52,-267.82 636.85,-258.2"/>
<polygon fill="black" stroke="black" points="639.24,-260.79 645.3,-252.1 635.14,-255.12 639.24,-260.79"/>
</g>
<!-- ast.Attribute object at 0x7f1c45a80370 -->
<g id="node39" class="node">
<title>ast.Attribute object at 0x7f1c45a80370</title>
<path fill="#66cdaa" stroke="black" d="M689.5,-180C689.5,-180 648.5,-180 648.5,-180 642.5,-180 636.5,-174 636.5,-168 636.5,-168 636.5,-156 636.5,-156 636.5,-150 642.5,-144 648.5,-144 648.5,-144 689.5,-144 689.5,-144 695.5,-144 701.5,-150 701.5,-156 701.5,-156 701.5,-168 701.5,-168 701.5,-174 695.5,-180 689.5,-180"/>
<text text-anchor="middle" x="669" y="-158.3" font-family="Times,serif" font-size="14.00">Attribute</text>
</g>
<!-- ast.Call object at 0x7f1c45a81b70&#45;&gt;ast.Attribute object at 0x7f1c45a80370 -->
<g id="edge46" class="edge">
<title>ast.Call object at 0x7f1c45a81b70&#45;&gt;ast.Attribute object at 0x7f1c45a80370</title>
<path fill="none" stroke="black" d="M669,-215.7C669,-207.98 669,-198.71 669,-190.11"/>
<polygon fill="black" stroke="black" points="672.5,-190.1 669,-180.1 665.5,-190.1 672.5,-190.1"/>
</g>
<!-- ast.Name object at 0x7f1c45a81b10 -->
<g id="node41" class="node">
<title>ast.Name object at 0x7f1c45a81b10</title>
<path fill="#66cdaa" stroke="black" d="M762,-180C762,-180 732,-180 732,-180 726,-180 720,-174 720,-168 720,-168 720,-156 720,-156 720,-150 726,-144 732,-144 732,-144 762,-144 762,-144 768,-144 774,-150 774,-156 774,-156 774,-168 774,-168 774,-174 768,-180 762,-180"/>
<text text-anchor="middle" x="747" y="-158.3" font-family="Times,serif" font-size="14.00">Name</text>
</g>
<!-- ast.Call object at 0x7f1c45a81b70&#45;&gt;ast.Name object at 0x7f1c45a81b10 -->
<g id="edge50" class="edge">
<title>ast.Call object at 0x7f1c45a81b70&#45;&gt;ast.Name object at 0x7f1c45a81b10</title>
<path fill="none" stroke="black" d="M688.28,-215.7C697.92,-207.05 709.73,-196.45 720.23,-187.03"/>
<polygon fill="black" stroke="black" points="722.84,-189.39 727.94,-180.1 718.16,-184.18 722.84,-189.39"/>
</g>
<!-- ast.Attribute object at 0x7f1c45a80370&#45;&gt;ast.Load object at 0x7f1c4a3edf60 -->
<g id="edge49" class="edge">
<title>ast.Attribute object at 0x7f1c45a80370&#45;&gt;ast.Load object at 0x7f1c4a3edf60</title>
<path fill="none" stroke="black" d="M680.61,-143.91C692.11,-124.64 705.88,-93.23 690,-72 672.87,-49.09 594.53,-32.67 547.03,-24.62"/>
<polygon fill="black" stroke="black" points="547.54,-21.16 537.11,-22.98 546.4,-28.06 547.54,-21.16"/>
</g>
<!-- ast.Name object at 0x7f1c45a80580 -->
<g id="node40" class="node">
<title>ast.Name object at 0x7f1c45a80580</title>
<path fill="#66cdaa" stroke="black" d="M669,-108C669,-108 639,-108 639,-108 633,-108 627,-102 627,-96 627,-96 627,-84 627,-84 627,-78 633,-72 639,-72 639,-72 669,-72 669,-72 675,-72 681,-78 681,-84 681,-84 681,-96 681,-96 681,-102 675,-108 669,-108"/>
<text text-anchor="middle" x="654" y="-86.3" font-family="Times,serif" font-size="14.00">Name</text>
</g>
<!-- ast.Attribute object at 0x7f1c45a80370&#45;&gt;ast.Name object at 0x7f1c45a80580 -->
<g id="edge47" class="edge">
<title>ast.Attribute object at 0x7f1c45a80370&#45;&gt;ast.Name object at 0x7f1c45a80580</title>
<path fill="none" stroke="black" d="M665.29,-143.7C663.64,-135.98 661.65,-126.71 659.81,-118.11"/>
<polygon fill="black" stroke="black" points="663.18,-117.15 657.67,-108.1 656.34,-118.62 663.18,-117.15"/>
</g>
<!-- ast.Name object at 0x7f1c45a80580&#45;&gt;ast.Load object at 0x7f1c4a3edf60 -->
<g id="edge48" class="edge">
<title>ast.Name object at 0x7f1c45a80580&#45;&gt;ast.Load object at 0x7f1c4a3edf60</title>
<path fill="none" stroke="black" d="M626.91,-75.83C604.23,-64.81 571.64,-48.97 546.63,-36.81"/>
<polygon fill="black" stroke="black" points="547.98,-33.57 537.45,-32.35 544.92,-39.87 547.98,-33.57"/>
</g>
<!-- ast.Name object at 0x7f1c45a81b10&#45;&gt;ast.Load object at 0x7f1c4a3edf60 -->
<g id="edge51" class="edge">
<title>ast.Name object at 0x7f1c45a81b10&#45;&gt;ast.Load object at 0x7f1c4a3edf60</title>
<path fill="none" stroke="black" d="M743.91,-143.94C739.37,-123.79 728.92,-90.68 707,-72 661.55,-33.28 590.52,-22.57 547.31,-19.77"/>
<polygon fill="black" stroke="black" points="547.4,-16.27 537.22,-19.23 547.02,-23.26 547.4,-16.27"/>
</g>
<!-- ast.Name object at 0x7f1c45a816c0 -->
<g id="node43" class="node">
<title>ast.Name object at 0x7f1c45a816c0</title>
<path fill="#66cdaa" stroke="black" d="M846,-396C846,-396 816,-396 816,-396 810,-396 804,-390 804,-384 804,-384 804,-372 804,-372 804,-366 810,-360 816,-360 816,-360 846,-360 846,-360 852,-360 858,-366 858,-372 858,-372 858,-384 858,-384 858,-390 852,-396 846,-396"/>
<text text-anchor="middle" x="831" y="-374.3" font-family="Times,serif" font-size="14.00">Name</text>
</g>
<!-- ast.Return object at 0x7f1c45a82d70&#45;&gt;ast.Name object at 0x7f1c45a816c0 -->
<g id="edge53" class="edge">
<title>ast.Return object at 0x7f1c45a82d70&#45;&gt;ast.Name object at 0x7f1c45a816c0</title>
<path fill="none" stroke="black" d="M791.1,-431.7C797.39,-423.39 805.05,-413.28 811.96,-404.14"/>
<polygon fill="black" stroke="black" points="814.8,-406.19 818.05,-396.1 809.22,-401.96 814.8,-406.19"/>
</g>
<!-- ast.Name object at 0x7f1c45a816c0&#45;&gt;ast.Load object at 0x7f1c4a3edf60 -->
<g id="edge54" class="edge">
<title>ast.Name object at 0x7f1c45a816c0&#45;&gt;ast.Load object at 0x7f1c4a3edf60</title>
<path fill="none" stroke="black" d="M832.78,-359.97C835.4,-333.34 840,-280.21 840,-235 840,-235 840,-235 840,-161 840,-34.67 633.41,-19.35 547.15,-18.46"/>
<polygon fill="black" stroke="black" points="547.02,-14.96 537.01,-18.42 546.99,-21.96 547.02,-14.96"/>
</g>
</g>
</svg>
