<?xml version="1.0" encoding="UTF-8" standalone="no"?>
<!DOCTYPE svg PUBLIC "-//W3C//DTD SVG 1.1//EN"
 "http://www.w3.org/Graphics/SVG/1.1/DTD/svg11.dtd">
<!-- Generated by graphviz version 2.43.0 (0)
 -->
<!-- Title: %3 Pages: 1 -->
<svg width="653pt" height="764pt"
 viewBox="0.00 0.00 652.50 764.00" xmlns="http://www.w3.org/2000/svg" xmlns:xlink="http://www.w3.org/1999/xlink">
<g id="graph0" class="graph" transform="scale(1 1) rotate(0) translate(4 760)">
<title>%3</title>
<polygon fill="white" stroke="transparent" points="-4,4 -4,-760 648.5,-760 648.5,4 -4,4"/>
<!-- ast.Module object at 0x7f362bf75a50 -->
<g id="node1" class="node">
<title>ast.Module object at 0x7f362bf75a50</title>
<path fill="#66cdaa" stroke="black" d="M553,-756C553,-756 518,-756 518,-756 512,-756 506,-750 506,-744 506,-744 506,-732 506,-732 506,-726 512,-720 518,-720 518,-720 553,-720 553,-720 559,-720 565,-726 565,-732 565,-732 565,-744 565,-744 565,-750 559,-756 553,-756"/>
<text text-anchor="middle" x="535.5" y="-734.3" font-family="Times,serif" font-size="14.00">Module</text>
</g>
<!-- ast.FunctionDef object at 0x7f362bf74ac0 -->
<g id="node2" class="node">
<title>ast.FunctionDef object at 0x7f362bf74ac0</title>
<path fill="#66cdaa" stroke="black" d="M566,-684C566,-684 505,-684 505,-684 499,-684 493,-678 493,-672 493,-672 493,-660 493,-660 493,-654 499,-648 505,-648 505,-648 566,-648 566,-648 572,-648 578,-654 578,-660 578,-660 578,-672 578,-672 578,-678 572,-684 566,-684"/>
<text text-anchor="middle" x="535.5" y="-662.3" font-family="Times,serif" font-size="14.00">FunctionDef</text>
</g>
<!-- ast.Module object at 0x7f362bf75a50&#45;&gt;ast.FunctionDef object at 0x7f362bf74ac0 -->
<g id="edge1" class="edge">
<title>ast.Module object at 0x7f362bf75a50&#45;&gt;ast.FunctionDef object at 0x7f362bf74ac0</title>
<path fill="none" stroke="black" d="M535.5,-719.7C535.5,-711.98 535.5,-702.71 535.5,-694.11"/>
<polygon fill="black" stroke="black" points="539,-694.1 535.5,-684.1 532,-694.1 539,-694.1"/>
</g>
<!-- ast.arguments object at 0x7f362b22df90 -->
<g id="node3" class="node">
<title>ast.arguments object at 0x7f362b22df90</title>
<path fill="#66cdaa" stroke="black" d="M519.5,-612C519.5,-612 469.5,-612 469.5,-612 463.5,-612 457.5,-606 457.5,-600 457.5,-600 457.5,-588 457.5,-588 457.5,-582 463.5,-576 469.5,-576 469.5,-576 519.5,-576 519.5,-576 525.5,-576 531.5,-582 531.5,-588 531.5,-588 531.5,-600 531.5,-600 531.5,-606 525.5,-612 519.5,-612"/>
<text text-anchor="middle" x="494.5" y="-590.3" font-family="Times,serif" font-size="14.00">arguments</text>
</g>
<!-- ast.FunctionDef object at 0x7f362bf74ac0&#45;&gt;ast.arguments object at 0x7f362b22df90 -->
<g id="edge2" class="edge">
<title>ast.FunctionDef object at 0x7f362bf74ac0&#45;&gt;ast.arguments object at 0x7f362b22df90</title>
<path fill="none" stroke="black" d="M525.37,-647.7C520.65,-639.64 514.94,-629.89 509.72,-620.98"/>
<polygon fill="black" stroke="black" points="512.59,-618.96 504.52,-612.1 506.55,-622.5 512.59,-618.96"/>
</g>
<!-- ast.Return object at 0x7f362b22fb50 -->
<g id="node5" class="node">
<title>ast.Return object at 0x7f362b22fb50</title>
<path fill="#66cdaa" stroke="black" d="M591.5,-612C591.5,-612 561.5,-612 561.5,-612 555.5,-612 549.5,-606 549.5,-600 549.5,-600 549.5,-588 549.5,-588 549.5,-582 555.5,-576 561.5,-576 561.5,-576 591.5,-576 591.5,-576 597.5,-576 603.5,-582 603.5,-588 603.5,-588 603.5,-600 603.5,-600 603.5,-606 597.5,-612 591.5,-612"/>
<text text-anchor="middle" x="576.5" y="-590.3" font-family="Times,serif" font-size="14.00">Return</text>
</g>
<!-- ast.FunctionDef object at 0x7f362bf74ac0&#45;&gt;ast.Return object at 0x7f362b22fb50 -->
<g id="edge4" class="edge">
<title>ast.FunctionDef object at 0x7f362bf74ac0&#45;&gt;ast.Return object at 0x7f362b22fb50</title>
<path fill="none" stroke="black" d="M545.63,-647.7C550.35,-639.64 556.06,-629.89 561.28,-620.98"/>
<polygon fill="black" stroke="black" points="564.45,-622.5 566.48,-612.1 558.41,-618.96 564.45,-622.5"/>
</g>
<!-- ast.arg object at 0x7f362b22f430 -->
<g id="node4" class="node">
<title>ast.arg object at 0x7f362b22f430</title>
<path fill="#66cdaa" stroke="black" d="M509.5,-540C509.5,-540 479.5,-540 479.5,-540 473.5,-540 467.5,-534 467.5,-528 467.5,-528 467.5,-516 467.5,-516 467.5,-510 473.5,-504 479.5,-504 479.5,-504 509.5,-504 509.5,-504 515.5,-504 521.5,-510 521.5,-516 521.5,-516 521.5,-528 521.5,-528 521.5,-534 515.5,-540 509.5,-540"/>
<text text-anchor="middle" x="494.5" y="-518.3" font-family="Times,serif" font-size="14.00">arg</text>
</g>
<!-- ast.arguments object at 0x7f362b22df90&#45;&gt;ast.arg object at 0x7f362b22f430 -->
<g id="edge3" class="edge">
<title>ast.arguments object at 0x7f362b22df90&#45;&gt;ast.arg object at 0x7f362b22f430</title>
<path fill="none" stroke="black" d="M494.5,-575.7C494.5,-567.98 494.5,-558.71 494.5,-550.11"/>
<polygon fill="black" stroke="black" points="498,-550.1 494.5,-540.1 491,-550.1 498,-550.1"/>
</g>
<!-- ast.Call object at 0x7f362b22fee0 -->
<g id="node6" class="node">
<title>ast.Call object at 0x7f362b22fee0</title>
<path fill="#66cdaa" stroke="black" d="M591.5,-540C591.5,-540 561.5,-540 561.5,-540 555.5,-540 549.5,-534 549.5,-528 549.5,-528 549.5,-516 549.5,-516 549.5,-510 555.5,-504 561.5,-504 561.5,-504 591.5,-504 591.5,-504 597.5,-504 603.5,-510 603.5,-516 603.5,-516 603.5,-528 603.5,-528 603.5,-534 597.5,-540 591.5,-540"/>
<text text-anchor="middle" x="576.5" y="-518.3" font-family="Times,serif" font-size="14.00">Call</text>
</g>
<!-- ast.Return object at 0x7f362b22fb50&#45;&gt;ast.Call object at 0x7f362b22fee0 -->
<g id="edge5" class="edge">
<title>ast.Return object at 0x7f362b22fb50&#45;&gt;ast.Call object at 0x7f362b22fee0</title>
<path fill="none" stroke="black" d="M576.5,-575.7C576.5,-567.98 576.5,-558.71 576.5,-550.11"/>
<polygon fill="black" stroke="black" points="580,-550.1 576.5,-540.1 573,-550.1 580,-550.1"/>
</g>
<!-- ast.Name object at 0x7f362b22c070 -->
<g id="node7" class="node">
<title>ast.Name object at 0x7f362b22c070</title>
<path fill="#66cdaa" stroke="black" d="M632.5,-468C632.5,-468 602.5,-468 602.5,-468 596.5,-468 590.5,-462 590.5,-456 590.5,-456 590.5,-444 590.5,-444 590.5,-438 596.5,-432 602.5,-432 602.5,-432 632.5,-432 632.5,-432 638.5,-432 644.5,-438 644.5,-444 644.5,-444 644.5,-456 644.5,-456 644.5,-462 638.5,-468 632.5,-468"/>
<text text-anchor="middle" x="617.5" y="-446.3" font-family="Times,serif" font-size="14.00">Name</text>
</g>
<!-- ast.Call object at 0x7f362b22fee0&#45;&gt;ast.Name object at 0x7f362b22c070 -->
<g id="edge6" class="edge">
<title>ast.Call object at 0x7f362b22fee0&#45;&gt;ast.Name object at 0x7f362b22c070</title>
<path fill="none" stroke="black" d="M586.63,-503.7C591.35,-495.64 597.06,-485.89 602.28,-476.98"/>
<polygon fill="black" stroke="black" points="605.45,-478.5 607.48,-468.1 599.41,-474.96 605.45,-478.5"/>
</g>
<!-- ast.ListComp object at 0x7f362b22f040 -->
<g id="node9" class="node">
<title>ast.ListComp object at 0x7f362b22f040</title>
<path fill="#66cdaa" stroke="black" d="M560,-468C560,-468 513,-468 513,-468 507,-468 501,-462 501,-456 501,-456 501,-444 501,-444 501,-438 507,-432 513,-432 513,-432 560,-432 560,-432 566,-432 572,-438 572,-444 572,-444 572,-456 572,-456 572,-462 566,-468 560,-468"/>
<text text-anchor="middle" x="536.5" y="-446.3" font-family="Times,serif" font-size="14.00">ListComp</text>
</g>
<!-- ast.Call object at 0x7f362b22fee0&#45;&gt;ast.ListComp object at 0x7f362b22f040 -->
<g id="edge8" class="edge">
<title>ast.Call object at 0x7f362b22fee0&#45;&gt;ast.ListComp object at 0x7f362b22f040</title>
<path fill="none" stroke="black" d="M566.61,-503.7C562.01,-495.64 556.44,-485.89 551.35,-476.98"/>
<polygon fill="black" stroke="black" points="554.27,-475.05 546.27,-468.1 548.2,-478.52 554.27,-475.05"/>
</g>
<!-- ast.Load object at 0x7f362ffedf90 -->
<g id="node8" class="node">
<title>ast.Load object at 0x7f362ffedf90</title>
<path fill="#66cdaa" stroke="black" d="M528.5,-36C528.5,-36 498.5,-36 498.5,-36 492.5,-36 486.5,-30 486.5,-24 486.5,-24 486.5,-12 486.5,-12 486.5,-6 492.5,0 498.5,0 498.5,0 528.5,0 528.5,0 534.5,0 540.5,-6 540.5,-12 540.5,-12 540.5,-24 540.5,-24 540.5,-30 534.5,-36 528.5,-36"/>
<text text-anchor="middle" x="513.5" y="-14.3" font-family="Times,serif" font-size="14.00">Load</text>
</g>
<!-- ast.Name object at 0x7f362b22c070&#45;&gt;ast.Load object at 0x7f362ffedf90 -->
<g id="edge7" class="edge">
<title>ast.Name object at 0x7f362b22c070&#45;&gt;ast.Load object at 0x7f362ffedf90</title>
<path fill="none" stroke="black" d="M617.5,-431.95C617.5,-405.29 617.5,-352.11 617.5,-307 617.5,-307 617.5,-307 617.5,-161 617.5,-111.63 576.08,-68.02 545.52,-42.56"/>
<polygon fill="black" stroke="black" points="547.6,-39.74 537.62,-36.18 543.2,-45.19 547.6,-39.74"/>
</g>
<!-- ast.Name object at 0x7f362b22f700 -->
<g id="node10" class="node">
<title>ast.Name object at 0x7f362b22f700</title>
<path fill="#66cdaa" stroke="black" d="M564.5,-396C564.5,-396 534.5,-396 534.5,-396 528.5,-396 522.5,-390 522.5,-384 522.5,-384 522.5,-372 522.5,-372 522.5,-366 528.5,-360 534.5,-360 534.5,-360 564.5,-360 564.5,-360 570.5,-360 576.5,-366 576.5,-372 576.5,-372 576.5,-384 576.5,-384 576.5,-390 570.5,-396 564.5,-396"/>
<text text-anchor="middle" x="549.5" y="-374.3" font-family="Times,serif" font-size="14.00">Name</text>
</g>
<!-- ast.ListComp object at 0x7f362b22f040&#45;&gt;ast.Name object at 0x7f362b22f700 -->
<g id="edge9" class="edge">
<title>ast.ListComp object at 0x7f362b22f040&#45;&gt;ast.Name object at 0x7f362b22f700</title>
<path fill="none" stroke="black" d="M539.71,-431.7C541.15,-423.98 542.87,-414.71 544.46,-406.11"/>
<polygon fill="black" stroke="black" points="547.94,-406.58 546.32,-396.1 541.06,-405.3 547.94,-406.58"/>
</g>
<!-- ast.comprehension object at 0x7f362b22f2b0 -->
<g id="node11" class="node">
<title>ast.comprehension object at 0x7f362b22f2b0</title>
<path fill="#66cdaa" stroke="black" d="M371.5,-396C371.5,-396 295.5,-396 295.5,-396 289.5,-396 283.5,-390 283.5,-384 283.5,-384 283.5,-372 283.5,-372 283.5,-366 289.5,-360 295.5,-360 295.5,-360 371.5,-360 371.5,-360 377.5,-360 383.5,-366 383.5,-372 383.5,-372 383.5,-384 383.5,-384 383.5,-390 377.5,-396 371.5,-396"/>
<text text-anchor="middle" x="333.5" y="-374.3" font-family="Times,serif" font-size="14.00">comprehension</text>
</g>
<!-- ast.ListComp object at 0x7f362b22f040&#45;&gt;ast.comprehension object at 0x7f362b22f2b0 -->
<g id="edge11" class="edge">
<title>ast.ListComp object at 0x7f362b22f040&#45;&gt;ast.comprehension object at 0x7f362b22f2b0</title>
<path fill="none" stroke="black" d="M500.67,-436.65C470.82,-426.35 427.67,-411.47 392.68,-399.41"/>
<polygon fill="black" stroke="black" points="393.65,-396.04 383.05,-396.09 391.37,-402.66 393.65,-396.04"/>
</g>
<!-- ast.Name object at 0x7f362b22f700&#45;&gt;ast.Load object at 0x7f362ffedf90 -->
<g id="edge10" class="edge">
<title>ast.Name object at 0x7f362b22f700&#45;&gt;ast.Load object at 0x7f362ffedf90</title>
<path fill="none" stroke="black" d="M555.57,-359.76C564.34,-333.28 579.5,-280.86 579.5,-235 579.5,-235 579.5,-235 579.5,-161 579.5,-116.84 552.93,-71.56 533.51,-44.35"/>
<polygon fill="black" stroke="black" points="536.24,-42.16 527.5,-36.18 530.6,-46.31 536.24,-42.16"/>
</g>
<!-- ast.Name object at 0x7f362b337e20 -->
<g id="node12" class="node">
<title>ast.Name object at 0x7f362b337e20</title>
<path fill="#66cdaa" stroke="black" d="M100.5,-324C100.5,-324 70.5,-324 70.5,-324 64.5,-324 58.5,-318 58.5,-312 58.5,-312 58.5,-300 58.5,-300 58.5,-294 64.5,-288 70.5,-288 70.5,-288 100.5,-288 100.5,-288 106.5,-288 112.5,-294 112.5,-300 112.5,-300 112.5,-312 112.5,-312 112.5,-318 106.5,-324 100.5,-324"/>
<text text-anchor="middle" x="85.5" y="-302.3" font-family="Times,serif" font-size="14.00">Name</text>
</g>
<!-- ast.comprehension object at 0x7f362b22f2b0&#45;&gt;ast.Name object at 0x7f362b337e20 -->
<g id="edge12" class="edge">
<title>ast.comprehension object at 0x7f362b22f2b0&#45;&gt;ast.Name object at 0x7f362b337e20</title>
<path fill="none" stroke="black" d="M283.31,-362.83C235.62,-349.37 165.02,-329.44 122.32,-317.39"/>
<polygon fill="black" stroke="black" points="123.19,-314 112.62,-314.65 121.29,-320.74 123.19,-314"/>
</g>
<!-- ast.Subscript object at 0x7f362b3367a0 -->
<g id="node14" class="node">
<title>ast.Subscript object at 0x7f362b3367a0</title>
<path fill="#66cdaa" stroke="black" d="M491.5,-180C491.5,-180 447.5,-180 447.5,-180 441.5,-180 435.5,-174 435.5,-168 435.5,-168 435.5,-156 435.5,-156 435.5,-150 441.5,-144 447.5,-144 447.5,-144 491.5,-144 491.5,-144 497.5,-144 503.5,-150 503.5,-156 503.5,-156 503.5,-168 503.5,-168 503.5,-174 497.5,-180 491.5,-180"/>
<text text-anchor="middle" x="469.5" y="-158.3" font-family="Times,serif" font-size="14.00">Subscript</text>
</g>
<!-- ast.comprehension object at 0x7f362b22f2b0&#45;&gt;ast.Subscript object at 0x7f362b3367a0 -->
<g id="edge14" class="edge">
<title>ast.comprehension object at 0x7f362b22f2b0&#45;&gt;ast.Subscript object at 0x7f362b3367a0</title>
<path fill="none" stroke="black" d="M344.4,-359.85C368.22,-322.36 425.05,-232.95 453.17,-188.7"/>
<polygon fill="black" stroke="black" points="456.14,-190.55 458.55,-180.23 450.23,-186.8 456.14,-190.55"/>
</g>
<!-- ast.BoolOp object at 0x7f362b335510 -->
<g id="node19" class="node">
<title>ast.BoolOp object at 0x7f362b335510</title>
<path fill="#66cdaa" stroke="black" d="M258,-324C258,-324 223,-324 223,-324 217,-324 211,-318 211,-312 211,-312 211,-300 211,-300 211,-294 217,-288 223,-288 223,-288 258,-288 258,-288 264,-288 270,-294 270,-300 270,-300 270,-312 270,-312 270,-318 264,-324 258,-324"/>
<text text-anchor="middle" x="240.5" y="-302.3" font-family="Times,serif" font-size="14.00">BoolOp</text>
</g>
<!-- ast.comprehension object at 0x7f362b22f2b0&#45;&gt;ast.BoolOp object at 0x7f362b335510 -->
<g id="edge21" class="edge">
<title>ast.comprehension object at 0x7f362b22f2b0&#45;&gt;ast.BoolOp object at 0x7f362b335510</title>
<path fill="none" stroke="black" d="M310.51,-359.7C298.69,-350.8 284.11,-339.82 271.32,-330.2"/>
<polygon fill="black" stroke="black" points="273.32,-327.32 263.22,-324.1 269.11,-332.91 273.32,-327.32"/>
</g>
<!-- ast.Store object at 0x7f362ffedff0 -->
<g id="node13" class="node">
<title>ast.Store object at 0x7f362ffedff0</title>
<path fill="#66cdaa" stroke="black" d="M59.5,-252C59.5,-252 29.5,-252 29.5,-252 23.5,-252 17.5,-246 17.5,-240 17.5,-240 17.5,-228 17.5,-228 17.5,-222 23.5,-216 29.5,-216 29.5,-216 59.5,-216 59.5,-216 65.5,-216 71.5,-222 71.5,-228 71.5,-228 71.5,-240 71.5,-240 71.5,-246 65.5,-252 59.5,-252"/>
<text text-anchor="middle" x="44.5" y="-230.3" font-family="Times,serif" font-size="14.00">Store</text>
</g>
<!-- ast.Name object at 0x7f362b337e20&#45;&gt;ast.Store object at 0x7f362ffedff0 -->
<g id="edge13" class="edge">
<title>ast.Name object at 0x7f362b337e20&#45;&gt;ast.Store object at 0x7f362ffedff0</title>
<path fill="none" stroke="black" d="M75.37,-287.7C70.65,-279.64 64.94,-269.89 59.72,-260.98"/>
<polygon fill="black" stroke="black" points="62.59,-258.96 54.52,-252.1 56.55,-262.5 62.59,-258.96"/>
</g>
<!-- ast.Subscript object at 0x7f362b3367a0&#45;&gt;ast.Load object at 0x7f362ffedf90 -->
<g id="edge20" class="edge">
<title>ast.Subscript object at 0x7f362b3367a0&#45;&gt;ast.Load object at 0x7f362ffedf90</title>
<path fill="none" stroke="black" d="M493.98,-143.77C504.9,-134.56 516.62,-122.19 522.5,-108 530.69,-88.24 527.46,-63.98 522.73,-45.78"/>
<polygon fill="black" stroke="black" points="526.07,-44.74 519.93,-36.1 519.35,-46.68 526.07,-44.74"/>
</g>
<!-- ast.Name object at 0x7f362b336950 -->
<g id="node15" class="node">
<title>ast.Name object at 0x7f362b336950</title>
<path fill="#66cdaa" stroke="black" d="M501.5,-108C501.5,-108 471.5,-108 471.5,-108 465.5,-108 459.5,-102 459.5,-96 459.5,-96 459.5,-84 459.5,-84 459.5,-78 465.5,-72 471.5,-72 471.5,-72 501.5,-72 501.5,-72 507.5,-72 513.5,-78 513.5,-84 513.5,-84 513.5,-96 513.5,-96 513.5,-102 507.5,-108 501.5,-108"/>
<text text-anchor="middle" x="486.5" y="-86.3" font-family="Times,serif" font-size="14.00">Name</text>
</g>
<!-- ast.Subscript object at 0x7f362b3367a0&#45;&gt;ast.Name object at 0x7f362b336950 -->
<g id="edge15" class="edge">
<title>ast.Subscript object at 0x7f362b3367a0&#45;&gt;ast.Name object at 0x7f362b336950</title>
<path fill="none" stroke="black" d="M473.7,-143.7C475.6,-135.9 477.88,-126.51 479.98,-117.83"/>
<polygon fill="black" stroke="black" points="483.39,-118.65 482.35,-108.1 476.58,-117 483.39,-118.65"/>
</g>
<!-- ast.Slice object at 0x7f362b337160 -->
<g id="node16" class="node">
<title>ast.Slice object at 0x7f362b337160</title>
<path fill="#66cdaa" stroke="black" d="M285.5,-108C285.5,-108 255.5,-108 255.5,-108 249.5,-108 243.5,-102 243.5,-96 243.5,-96 243.5,-84 243.5,-84 243.5,-78 249.5,-72 255.5,-72 255.5,-72 285.5,-72 285.5,-72 291.5,-72 297.5,-78 297.5,-84 297.5,-84 297.5,-96 297.5,-96 297.5,-102 291.5,-108 285.5,-108"/>
<text text-anchor="middle" x="270.5" y="-86.3" font-family="Times,serif" font-size="14.00">Slice</text>
</g>
<!-- ast.Subscript object at 0x7f362b3367a0&#45;&gt;ast.Slice object at 0x7f362b337160 -->
<g id="edge17" class="edge">
<title>ast.Subscript object at 0x7f362b3367a0&#45;&gt;ast.Slice object at 0x7f362b337160</title>
<path fill="none" stroke="black" d="M435.34,-151.27C404.06,-142.06 356.41,-127.27 307.36,-108.12"/>
<polygon fill="black" stroke="black" points="308.45,-104.78 297.86,-104.36 305.87,-111.29 308.45,-104.78"/>
</g>
<!-- ast.Name object at 0x7f362b336950&#45;&gt;ast.Load object at 0x7f362ffedf90 -->
<g id="edge16" class="edge">
<title>ast.Name object at 0x7f362b336950&#45;&gt;ast.Load object at 0x7f362ffedf90</title>
<path fill="none" stroke="black" d="M493.17,-71.7C496.21,-63.81 499.88,-54.3 503.26,-45.55"/>
<polygon fill="black" stroke="black" points="506.57,-46.69 506.9,-36.1 500.04,-44.17 506.57,-46.69"/>
</g>
<!-- ast.Constant object at 0x7f362b337760 -->
<g id="node17" class="node">
<title>ast.Constant object at 0x7f362b337760</title>
<path fill="#66cdaa" stroke="black" d="M375,-36C375,-36 334,-36 334,-36 328,-36 322,-30 322,-24 322,-24 322,-12 322,-12 322,-6 328,0 334,0 334,0 375,0 375,0 381,0 387,-6 387,-12 387,-12 387,-24 387,-24 387,-30 381,-36 375,-36"/>
<text text-anchor="middle" x="354.5" y="-14.3" font-family="Times,serif" font-size="14.00">Constant</text>
</g>
<!-- ast.Slice object at 0x7f362b337160&#45;&gt;ast.Constant object at 0x7f362b337760 -->
<g id="edge18" class="edge">
<title>ast.Slice object at 0x7f362b337160&#45;&gt;ast.Constant object at 0x7f362b337760</title>
<path fill="none" stroke="black" d="M291.26,-71.7C301.74,-62.97 314.61,-52.24 326,-42.75"/>
<polygon fill="black" stroke="black" points="328.53,-45.19 333.97,-36.1 324.05,-39.82 328.53,-45.19"/>
</g>
<!-- ast.Constant object at 0x7f362b334e50 -->
<g id="node18" class="node">
<title>ast.Constant object at 0x7f362b334e50</title>
<path fill="#66cdaa" stroke="black" d="M292,-36C292,-36 251,-36 251,-36 245,-36 239,-30 239,-24 239,-24 239,-12 239,-12 239,-6 245,0 251,0 251,0 292,0 292,0 298,0 304,-6 304,-12 304,-12 304,-24 304,-24 304,-30 298,-36 292,-36"/>
<text text-anchor="middle" x="271.5" y="-14.3" font-family="Times,serif" font-size="14.00">Constant</text>
</g>
<!-- ast.Slice object at 0x7f362b337160&#45;&gt;ast.Constant object at 0x7f362b334e50 -->
<g id="edge19" class="edge">
<title>ast.Slice object at 0x7f362b337160&#45;&gt;ast.Constant object at 0x7f362b334e50</title>
<path fill="none" stroke="black" d="M270.75,-71.7C270.86,-63.98 270.99,-54.71 271.11,-46.11"/>
<polygon fill="black" stroke="black" points="274.61,-46.15 271.26,-36.1 267.61,-46.05 274.61,-46.15"/>
</g>
<!-- ast.Or object at 0x7f362ffee140 -->
<g id="node20" class="node">
<title>ast.Or object at 0x7f362ffee140</title>
<path fill="#66cdaa" stroke="black" d="M131.5,-252C131.5,-252 101.5,-252 101.5,-252 95.5,-252 89.5,-246 89.5,-240 89.5,-240 89.5,-228 89.5,-228 89.5,-222 95.5,-216 101.5,-216 101.5,-216 131.5,-216 131.5,-216 137.5,-216 143.5,-222 143.5,-228 143.5,-228 143.5,-240 143.5,-240 143.5,-246 137.5,-252 131.5,-252"/>
<text text-anchor="middle" x="116.5" y="-230.3" font-family="Times,serif" font-size="14.00">Or</text>
</g>
<!-- ast.BoolOp object at 0x7f362b335510&#45;&gt;ast.Or object at 0x7f362ffee140 -->
<g id="edge22" class="edge">
<title>ast.BoolOp object at 0x7f362b335510&#45;&gt;ast.Or object at 0x7f362ffee140</title>
<path fill="none" stroke="black" d="M210.8,-288.23C193.31,-278.36 171.07,-265.81 152.58,-255.37"/>
<polygon fill="black" stroke="black" points="154.27,-252.3 143.84,-250.43 150.83,-258.4 154.27,-252.3"/>
</g>
<!-- ast.Compare object at 0x7f362b336080 -->
<g id="node21" class="node">
<title>ast.Compare object at 0x7f362b336080</title>
<path fill="#66cdaa" stroke="black" d="M302,-252C302,-252 259,-252 259,-252 253,-252 247,-246 247,-240 247,-240 247,-228 247,-228 247,-222 253,-216 259,-216 259,-216 302,-216 302,-216 308,-216 314,-222 314,-228 314,-228 314,-240 314,-240 314,-246 308,-252 302,-252"/>
<text text-anchor="middle" x="280.5" y="-230.3" font-family="Times,serif" font-size="14.00">Compare</text>
</g>
<!-- ast.BoolOp object at 0x7f362b335510&#45;&gt;ast.Compare object at 0x7f362b336080 -->
<g id="edge23" class="edge">
<title>ast.BoolOp object at 0x7f362b335510&#45;&gt;ast.Compare object at 0x7f362b336080</title>
<path fill="none" stroke="black" d="M250.39,-287.7C254.99,-279.64 260.56,-269.89 265.65,-260.98"/>
<polygon fill="black" stroke="black" points="268.8,-262.52 270.73,-252.1 262.73,-259.05 268.8,-262.52"/>
</g>
<!-- ast.Compare object at 0x7f362b335450 -->
<g id="node30" class="node">
<title>ast.Compare object at 0x7f362b335450</title>
<path fill="#66cdaa" stroke="black" d="M217,-252C217,-252 174,-252 174,-252 168,-252 162,-246 162,-240 162,-240 162,-228 162,-228 162,-222 168,-216 174,-216 174,-216 217,-216 217,-216 223,-216 229,-222 229,-228 229,-228 229,-240 229,-240 229,-246 223,-252 217,-252"/>
<text text-anchor="middle" x="195.5" y="-230.3" font-family="Times,serif" font-size="14.00">Compare</text>
</g>
<!-- ast.BoolOp object at 0x7f362b335510&#45;&gt;ast.Compare object at 0x7f362b335450 -->
<g id="edge33" class="edge">
<title>ast.BoolOp object at 0x7f362b335510&#45;&gt;ast.Compare object at 0x7f362b335450</title>
<path fill="none" stroke="black" d="M229.38,-287.7C224.14,-279.56 217.8,-269.69 212.02,-260.7"/>
<polygon fill="black" stroke="black" points="214.85,-258.62 206.5,-252.1 208.96,-262.41 214.85,-258.62"/>
</g>
<!-- ast.BinOp object at 0x7f362b334e20 -->
<g id="node22" class="node">
<title>ast.BinOp object at 0x7f362b334e20</title>
<path fill="#66cdaa" stroke="black" d="M288.5,-180C288.5,-180 258.5,-180 258.5,-180 252.5,-180 246.5,-174 246.5,-168 246.5,-168 246.5,-156 246.5,-156 246.5,-150 252.5,-144 258.5,-144 258.5,-144 288.5,-144 288.5,-144 294.5,-144 300.5,-150 300.5,-156 300.5,-156 300.5,-168 300.5,-168 300.5,-174 294.5,-180 288.5,-180"/>
<text text-anchor="middle" x="273.5" y="-158.3" font-family="Times,serif" font-size="14.00">BinOp</text>
</g>
<!-- ast.Compare object at 0x7f362b336080&#45;&gt;ast.BinOp object at 0x7f362b334e20 -->
<g id="edge24" class="edge">
<title>ast.Compare object at 0x7f362b336080&#45;&gt;ast.BinOp object at 0x7f362b334e20</title>
<path fill="none" stroke="black" d="M278.77,-215.7C278,-207.98 277.07,-198.71 276.21,-190.11"/>
<polygon fill="black" stroke="black" points="279.69,-189.71 275.21,-180.1 272.72,-190.4 279.69,-189.71"/>
</g>
<!-- ast.Eq object at 0x7f362ffee8c0 -->
<g id="node28" class="node">
<title>ast.Eq object at 0x7f362ffee8c0</title>
<path fill="#66cdaa" stroke="black" d="M216.5,-180C216.5,-180 186.5,-180 186.5,-180 180.5,-180 174.5,-174 174.5,-168 174.5,-168 174.5,-156 174.5,-156 174.5,-150 180.5,-144 186.5,-144 186.5,-144 216.5,-144 216.5,-144 222.5,-144 228.5,-150 228.5,-156 228.5,-156 228.5,-168 228.5,-168 228.5,-174 222.5,-180 216.5,-180"/>
<text text-anchor="middle" x="201.5" y="-158.3" font-family="Times,serif" font-size="14.00">Eq</text>
</g>
<!-- ast.Compare object at 0x7f362b336080&#45;&gt;ast.Eq object at 0x7f362ffee8c0 -->
<g id="edge31" class="edge">
<title>ast.Compare object at 0x7f362b336080&#45;&gt;ast.Eq object at 0x7f362ffee8c0</title>
<path fill="none" stroke="black" d="M260.97,-215.7C251.12,-206.97 239.01,-196.24 228.3,-186.75"/>
<polygon fill="black" stroke="black" points="230.61,-184.12 220.8,-180.1 225.97,-189.36 230.61,-184.12"/>
</g>
<!-- ast.Constant object at 0x7f362b334040 -->
<g id="node29" class="node">
<title>ast.Constant object at 0x7f362b334040</title>
<path fill="#66cdaa" stroke="black" d="M372,-180C372,-180 331,-180 331,-180 325,-180 319,-174 319,-168 319,-168 319,-156 319,-156 319,-150 325,-144 331,-144 331,-144 372,-144 372,-144 378,-144 384,-150 384,-156 384,-156 384,-168 384,-168 384,-174 378,-180 372,-180"/>
<text text-anchor="middle" x="351.5" y="-158.3" font-family="Times,serif" font-size="14.00">Constant</text>
</g>
<!-- ast.Compare object at 0x7f362b336080&#45;&gt;ast.Constant object at 0x7f362b334040 -->
<g id="edge32" class="edge">
<title>ast.Compare object at 0x7f362b336080&#45;&gt;ast.Constant object at 0x7f362b334040</title>
<path fill="none" stroke="black" d="M298.05,-215.7C306.73,-207.14 317.36,-196.66 326.85,-187.3"/>
<polygon fill="black" stroke="black" points="329.49,-189.62 334.15,-180.1 324.57,-184.63 329.49,-189.62"/>
</g>
<!-- ast.Name object at 0x7f362b3366b0 -->
<g id="node23" class="node">
<title>ast.Name object at 0x7f362b3366b0</title>
<path fill="#66cdaa" stroke="black" d="M429.5,-108C429.5,-108 399.5,-108 399.5,-108 393.5,-108 387.5,-102 387.5,-96 387.5,-96 387.5,-84 387.5,-84 387.5,-78 393.5,-72 399.5,-72 399.5,-72 429.5,-72 429.5,-72 435.5,-72 441.5,-78 441.5,-84 441.5,-84 441.5,-96 441.5,-96 441.5,-102 435.5,-108 429.5,-108"/>
<text text-anchor="middle" x="414.5" y="-86.3" font-family="Times,serif" font-size="14.00">Name</text>
</g>
<!-- ast.BinOp object at 0x7f362b334e20&#45;&gt;ast.Name object at 0x7f362b3366b0 -->
<g id="edge25" class="edge">
<title>ast.BinOp object at 0x7f362b334e20&#45;&gt;ast.Name object at 0x7f362b3366b0</title>
<path fill="none" stroke="black" d="M300.69,-147.5C322.73,-136.56 353.99,-121.04 378.18,-109.03"/>
<polygon fill="black" stroke="black" points="380,-112.04 387.4,-104.46 376.88,-105.77 380,-112.04"/>
</g>
<!-- ast.Mod object at 0x7f362ffee3b0 -->
<g id="node24" class="node">
<title>ast.Mod object at 0x7f362ffee3b0</title>
<path fill="#66cdaa" stroke="black" d="M127.5,-108C127.5,-108 97.5,-108 97.5,-108 91.5,-108 85.5,-102 85.5,-96 85.5,-96 85.5,-84 85.5,-84 85.5,-78 91.5,-72 97.5,-72 97.5,-72 127.5,-72 127.5,-72 133.5,-72 139.5,-78 139.5,-84 139.5,-84 139.5,-96 139.5,-96 139.5,-102 133.5,-108 127.5,-108"/>
<text text-anchor="middle" x="112.5" y="-86.3" font-family="Times,serif" font-size="14.00">Mod</text>
</g>
<!-- ast.BinOp object at 0x7f362b334e20&#45;&gt;ast.Mod object at 0x7f362ffee3b0 -->
<g id="edge27" class="edge">
<title>ast.BinOp object at 0x7f362b334e20&#45;&gt;ast.Mod object at 0x7f362ffee3b0</title>
<path fill="none" stroke="black" d="M246.44,-148.04C243.44,-146.65 240.41,-145.28 237.5,-144 198.83,-126.97 188.26,-124.82 149.5,-108 149.3,-107.91 149.09,-107.82 148.89,-107.73"/>
<polygon fill="black" stroke="black" points="150.08,-104.43 139.52,-103.57 147.24,-110.83 150.08,-104.43"/>
</g>
<!-- ast.UnaryOp object at 0x7f362b336bc0 -->
<g id="node25" class="node">
<title>ast.UnaryOp object at 0x7f362b336bc0</title>
<path fill="#66cdaa" stroke="black" d="M213,-108C213,-108 170,-108 170,-108 164,-108 158,-102 158,-96 158,-96 158,-84 158,-84 158,-78 164,-72 170,-72 170,-72 213,-72 213,-72 219,-72 225,-78 225,-84 225,-84 225,-96 225,-96 225,-102 219,-108 213,-108"/>
<text text-anchor="middle" x="191.5" y="-86.3" font-family="Times,serif" font-size="14.00">UnaryOp</text>
</g>
<!-- ast.BinOp object at 0x7f362b334e20&#45;&gt;ast.UnaryOp object at 0x7f362b336bc0 -->
<g id="edge28" class="edge">
<title>ast.BinOp object at 0x7f362b334e20&#45;&gt;ast.UnaryOp object at 0x7f362b336bc0</title>
<path fill="none" stroke="black" d="M253.23,-143.7C243,-134.97 230.44,-124.24 219.32,-114.75"/>
<polygon fill="black" stroke="black" points="221.41,-111.94 211.54,-108.1 216.87,-117.26 221.41,-111.94"/>
</g>
<!-- ast.Name object at 0x7f362b3366b0&#45;&gt;ast.Load object at 0x7f362ffedf90 -->
<g id="edge26" class="edge">
<title>ast.Name object at 0x7f362b3366b0&#45;&gt;ast.Load object at 0x7f362ffedf90</title>
<path fill="none" stroke="black" d="M438.72,-71.88C451.42,-62.89 467.16,-51.76 480.92,-42.03"/>
<polygon fill="black" stroke="black" points="483.04,-44.82 489.19,-36.19 479,-39.11 483.04,-44.82"/>
</g>
<!-- ast.USub object at 0x7f362ffee830 -->
<g id="node26" class="node">
<title>ast.USub object at 0x7f362ffee830</title>
<path fill="#66cdaa" stroke="black" d="M125.5,-36C125.5,-36 95.5,-36 95.5,-36 89.5,-36 83.5,-30 83.5,-24 83.5,-24 83.5,-12 83.5,-12 83.5,-6 89.5,0 95.5,0 95.5,0 125.5,0 125.5,0 131.5,0 137.5,-6 137.5,-12 137.5,-12 137.5,-24 137.5,-24 137.5,-30 131.5,-36 125.5,-36"/>
<text text-anchor="middle" x="110.5" y="-14.3" font-family="Times,serif" font-size="14.00">USub</text>
</g>
<!-- ast.UnaryOp object at 0x7f362b336bc0&#45;&gt;ast.USub object at 0x7f362ffee830 -->
<g id="edge29" class="edge">
<title>ast.UnaryOp object at 0x7f362b336bc0&#45;&gt;ast.USub object at 0x7f362ffee830</title>
<path fill="none" stroke="black" d="M171.48,-71.7C161.37,-62.97 148.96,-52.24 137.98,-42.75"/>
<polygon fill="black" stroke="black" points="140.15,-39.99 130.29,-36.1 135.57,-45.29 140.15,-39.99"/>
</g>
<!-- ast.Constant object at 0x7f362b337a30 -->
<g id="node27" class="node">
<title>ast.Constant object at 0x7f362b337a30</title>
<path fill="#66cdaa" stroke="black" d="M209,-36C209,-36 168,-36 168,-36 162,-36 156,-30 156,-24 156,-24 156,-12 156,-12 156,-6 162,0 168,0 168,0 209,0 209,0 215,0 221,-6 221,-12 221,-12 221,-24 221,-24 221,-30 215,-36 209,-36"/>
<text text-anchor="middle" x="188.5" y="-14.3" font-family="Times,serif" font-size="14.00">Constant</text>
</g>
<!-- ast.UnaryOp object at 0x7f362b336bc0&#45;&gt;ast.Constant object at 0x7f362b337a30 -->
<g id="edge30" class="edge">
<title>ast.UnaryOp object at 0x7f362b336bc0&#45;&gt;ast.Constant object at 0x7f362b337a30</title>
<path fill="none" stroke="black" d="M190.76,-71.7C190.43,-63.98 190.03,-54.71 189.66,-46.11"/>
<polygon fill="black" stroke="black" points="193.16,-45.95 189.23,-36.1 186.16,-46.25 193.16,-45.95"/>
</g>
<!-- ast.Compare object at 0x7f362b335450&#45;&gt;ast.Eq object at 0x7f362ffee8c0 -->
<g id="edge41" class="edge">
<title>ast.Compare object at 0x7f362b335450&#45;&gt;ast.Eq object at 0x7f362ffee8c0</title>
<path fill="none" stroke="black" d="M196.98,-215.7C197.64,-207.98 198.44,-198.71 199.18,-190.11"/>
<polygon fill="black" stroke="black" points="202.67,-190.37 200.03,-180.1 195.69,-189.77 202.67,-190.37"/>
</g>
<!-- ast.BinOp object at 0x7f362b335570 -->
<g id="node31" class="node">
<title>ast.BinOp object at 0x7f362b335570</title>
<path fill="#66cdaa" stroke="black" d="M144.5,-180C144.5,-180 114.5,-180 114.5,-180 108.5,-180 102.5,-174 102.5,-168 102.5,-168 102.5,-156 102.5,-156 102.5,-150 108.5,-144 114.5,-144 114.5,-144 144.5,-144 144.5,-144 150.5,-144 156.5,-150 156.5,-156 156.5,-156 156.5,-168 156.5,-168 156.5,-174 150.5,-180 144.5,-180"/>
<text text-anchor="middle" x="129.5" y="-158.3" font-family="Times,serif" font-size="14.00">BinOp</text>
</g>
<!-- ast.Compare object at 0x7f362b335450&#45;&gt;ast.BinOp object at 0x7f362b335570 -->
<g id="edge34" class="edge">
<title>ast.Compare object at 0x7f362b335450&#45;&gt;ast.BinOp object at 0x7f362b335570</title>
<path fill="none" stroke="black" d="M179.19,-215.7C171.19,-207.22 161.43,-196.86 152.68,-187.58"/>
<polygon fill="black" stroke="black" points="155.03,-184.98 145.63,-180.1 149.94,-189.78 155.03,-184.98"/>
</g>
<!-- ast.Constant object at 0x7f362b337850 -->
<g id="node35" class="node">
<title>ast.Constant object at 0x7f362b337850</title>
<path fill="#66cdaa" stroke="black" d="M72,-180C72,-180 31,-180 31,-180 25,-180 19,-174 19,-168 19,-168 19,-156 19,-156 19,-150 25,-144 31,-144 31,-144 72,-144 72,-144 78,-144 84,-150 84,-156 84,-156 84,-168 84,-168 84,-174 78,-180 72,-180"/>
<text text-anchor="middle" x="51.5" y="-158.3" font-family="Times,serif" font-size="14.00">Constant</text>
</g>
<!-- ast.Compare object at 0x7f362b335450&#45;&gt;ast.Constant object at 0x7f362b337850 -->
<g id="edge42" class="edge">
<title>ast.Compare object at 0x7f362b335450&#45;&gt;ast.Constant object at 0x7f362b337850</title>
<path fill="none" stroke="black" d="M161.74,-216.59C141.23,-206.62 114.88,-193.81 93.09,-183.22"/>
<polygon fill="black" stroke="black" points="94.58,-180.05 84.06,-178.83 91.52,-186.35 94.58,-180.05"/>
</g>
<!-- ast.BinOp object at 0x7f362b335570&#45;&gt;ast.Mod object at 0x7f362ffee3b0 -->
<g id="edge37" class="edge">
<title>ast.BinOp object at 0x7f362b335570&#45;&gt;ast.Mod object at 0x7f362ffee3b0</title>
<path fill="none" stroke="black" d="M125.3,-143.7C123.4,-135.9 121.12,-126.51 119.02,-117.83"/>
<polygon fill="black" stroke="black" points="122.42,-117 116.65,-108.1 115.61,-118.65 122.42,-117"/>
</g>
<!-- ast.Name object at 0x7f362b336cb0 -->
<g id="node32" class="node">
<title>ast.Name object at 0x7f362b336cb0</title>
<path fill="#66cdaa" stroke="black" d="M357.5,-108C357.5,-108 327.5,-108 327.5,-108 321.5,-108 315.5,-102 315.5,-96 315.5,-96 315.5,-84 315.5,-84 315.5,-78 321.5,-72 327.5,-72 327.5,-72 357.5,-72 357.5,-72 363.5,-72 369.5,-78 369.5,-84 369.5,-84 369.5,-96 369.5,-96 369.5,-102 363.5,-108 357.5,-108"/>
<text text-anchor="middle" x="342.5" y="-86.3" font-family="Times,serif" font-size="14.00">Name</text>
</g>
<!-- ast.BinOp object at 0x7f362b335570&#45;&gt;ast.Name object at 0x7f362b336cb0 -->
<g id="edge35" class="edge">
<title>ast.BinOp object at 0x7f362b335570&#45;&gt;ast.Name object at 0x7f362b336cb0</title>
<path fill="none" stroke="black" d="M156.79,-147.45C159.7,-146.21 162.64,-145.03 165.5,-144 223.5,-123.12 243.75,-129.24 305.75,-107.9"/>
<polygon fill="black" stroke="black" points="306.96,-111.19 315.21,-104.55 304.62,-104.59 306.96,-111.19"/>
</g>
<!-- ast.UnaryOp object at 0x7f362b335cc0 -->
<g id="node33" class="node">
<title>ast.UnaryOp object at 0x7f362b335cc0</title>
<path fill="#66cdaa" stroke="black" d="M55,-108C55,-108 12,-108 12,-108 6,-108 0,-102 0,-96 0,-96 0,-84 0,-84 0,-78 6,-72 12,-72 12,-72 55,-72 55,-72 61,-72 67,-78 67,-84 67,-84 67,-96 67,-96 67,-102 61,-108 55,-108"/>
<text text-anchor="middle" x="33.5" y="-86.3" font-family="Times,serif" font-size="14.00">UnaryOp</text>
</g>
<!-- ast.BinOp object at 0x7f362b335570&#45;&gt;ast.UnaryOp object at 0x7f362b335cc0 -->
<g id="edge38" class="edge">
<title>ast.BinOp object at 0x7f362b335570&#45;&gt;ast.UnaryOp object at 0x7f362b335cc0</title>
<path fill="none" stroke="black" d="M105.77,-143.7C93.56,-134.8 78.51,-123.82 65.32,-114.2"/>
<polygon fill="black" stroke="black" points="67.1,-111.17 56.96,-108.1 62.98,-116.82 67.1,-111.17"/>
</g>
<!-- ast.Name object at 0x7f362b336cb0&#45;&gt;ast.Load object at 0x7f362ffedf90 -->
<g id="edge36" class="edge">
<title>ast.Name object at 0x7f362b336cb0&#45;&gt;ast.Load object at 0x7f362ffedf90</title>
<path fill="none" stroke="black" d="M369.54,-75.99C372.55,-74.62 375.58,-73.26 378.5,-72 411.44,-57.78 449.54,-42.96 476.85,-32.63"/>
<polygon fill="black" stroke="black" points="478.27,-35.83 486.39,-29.03 475.8,-29.28 478.27,-35.83"/>
</g>
<!-- ast.UnaryOp object at 0x7f362b335cc0&#45;&gt;ast.USub object at 0x7f362ffee830 -->
<g id="edge39" class="edge">
<title>ast.UnaryOp object at 0x7f362b335cc0&#45;&gt;ast.USub object at 0x7f362ffee830</title>
<path fill="none" stroke="black" d="M52.53,-71.7C62.04,-63.05 73.71,-52.45 84.07,-43.03"/>
<polygon fill="black" stroke="black" points="86.64,-45.42 91.69,-36.1 81.93,-40.24 86.64,-45.42"/>
</g>
<!-- ast.Constant object at 0x7f362b3360b0 -->
<g id="node34" class="node">
<title>ast.Constant object at 0x7f362b3360b0</title>
<path fill="#66cdaa" stroke="black" d="M53,-36C53,-36 12,-36 12,-36 6,-36 0,-30 0,-24 0,-24 0,-12 0,-12 0,-6 6,0 12,0 12,0 53,0 53,0 59,0 65,-6 65,-12 65,-12 65,-24 65,-24 65,-30 59,-36 53,-36"/>
<text text-anchor="middle" x="32.5" y="-14.3" font-family="Times,serif" font-size="14.00">Constant</text>
</g>
<!-- ast.UnaryOp object at 0x7f362b335cc0&#45;&gt;ast.Constant object at 0x7f362b3360b0 -->
<g id="edge40" class="edge">
<title>ast.UnaryOp object at 0x7f362b335cc0&#45;&gt;ast.Constant object at 0x7f362b3360b0</title>
<path fill="none" stroke="black" d="M33.25,-71.7C33.14,-63.98 33.01,-54.71 32.89,-46.11"/>
<polygon fill="black" stroke="black" points="36.39,-46.05 32.74,-36.1 29.39,-46.15 36.39,-46.05"/>
</g>
</g>
</svg>
