<?xml version="1.0" encoding="UTF-8" standalone="no"?>
<!DOCTYPE svg PUBLIC "-//W3C//DTD SVG 1.1//EN"
 "http://www.w3.org/Graphics/SVG/1.1/DTD/svg11.dtd">
<!-- Generated by graphviz version 2.43.0 (0)
 -->
<!-- Title: %3 Pages: 1 -->
<svg width="758pt" height="692pt"
 viewBox="0.00 0.00 757.50 692.00" xmlns="http://www.w3.org/2000/svg" xmlns:xlink="http://www.w3.org/1999/xlink">
<g id="graph0" class="graph" transform="scale(1 1) rotate(0) translate(4 688)">
<title>%3</title>
<polygon fill="white" stroke="transparent" points="-4,4 -4,-688 753.5,-688 753.5,4 -4,4"/>
<!-- ast.Module object at 0x7efdcb1ccb20 -->
<g id="node1" class="node">
<title>ast.Module object at 0x7efdcb1ccb20</title>
<path fill="#66cdaa" stroke="black" d="M95.5,-684C95.5,-684 60.5,-684 60.5,-684 54.5,-684 48.5,-678 48.5,-672 48.5,-672 48.5,-660 48.5,-660 48.5,-654 54.5,-648 60.5,-648 60.5,-648 95.5,-648 95.5,-648 101.5,-648 107.5,-654 107.5,-660 107.5,-660 107.5,-672 107.5,-672 107.5,-678 101.5,-684 95.5,-684"/>
<text text-anchor="middle" x="78" y="-662.3" font-family="Times,serif" font-size="14.00">Module</text>
</g>
<!-- ast.FunctionDef object at 0x7efdcb1ce230 -->
<g id="node2" class="node">
<title>ast.FunctionDef object at 0x7efdcb1ce230</title>
<path fill="#66cdaa" stroke="black" d="M108.5,-612C108.5,-612 47.5,-612 47.5,-612 41.5,-612 35.5,-606 35.5,-600 35.5,-600 35.5,-588 35.5,-588 35.5,-582 41.5,-576 47.5,-576 47.5,-576 108.5,-576 108.5,-576 114.5,-576 120.5,-582 120.5,-588 120.5,-588 120.5,-600 120.5,-600 120.5,-606 114.5,-612 108.5,-612"/>
<text text-anchor="middle" x="78" y="-590.3" font-family="Times,serif" font-size="14.00">FunctionDef</text>
</g>
<!-- ast.Module object at 0x7efdcb1ccb20&#45;&gt;ast.FunctionDef object at 0x7efdcb1ce230 -->
<g id="edge1" class="edge">
<title>ast.Module object at 0x7efdcb1ccb20&#45;&gt;ast.FunctionDef object at 0x7efdcb1ce230</title>
<path fill="none" stroke="black" d="M78,-647.7C78,-639.98 78,-630.71 78,-622.11"/>
<polygon fill="black" stroke="black" points="81.5,-622.1 78,-612.1 74.5,-622.1 81.5,-622.1"/>
</g>
<!-- ast.arguments object at 0x7efdcb1ceb90 -->
<g id="node3" class="node">
<title>ast.arguments object at 0x7efdcb1ceb90</title>
<path fill="#66cdaa" stroke="black" d="M62,-540C62,-540 12,-540 12,-540 6,-540 0,-534 0,-528 0,-528 0,-516 0,-516 0,-510 6,-504 12,-504 12,-504 62,-504 62,-504 68,-504 74,-510 74,-516 74,-516 74,-528 74,-528 74,-534 68,-540 62,-540"/>
<text text-anchor="middle" x="37" y="-518.3" font-family="Times,serif" font-size="14.00">arguments</text>
</g>
<!-- ast.FunctionDef object at 0x7efdcb1ce230&#45;&gt;ast.arguments object at 0x7efdcb1ceb90 -->
<g id="edge2" class="edge">
<title>ast.FunctionDef object at 0x7efdcb1ce230&#45;&gt;ast.arguments object at 0x7efdcb1ceb90</title>
<path fill="none" stroke="black" d="M67.87,-575.7C63.15,-567.64 57.44,-557.89 52.22,-548.98"/>
<polygon fill="black" stroke="black" points="55.09,-546.96 47.02,-540.1 49.05,-550.5 55.09,-546.96"/>
</g>
<!-- ast.Return object at 0x7efdcb1cec20 -->
<g id="node5" class="node">
<title>ast.Return object at 0x7efdcb1cec20</title>
<path fill="#66cdaa" stroke="black" d="M134,-540C134,-540 104,-540 104,-540 98,-540 92,-534 92,-528 92,-528 92,-516 92,-516 92,-510 98,-504 104,-504 104,-504 134,-504 134,-504 140,-504 146,-510 146,-516 146,-516 146,-528 146,-528 146,-534 140,-540 134,-540"/>
<text text-anchor="middle" x="119" y="-518.3" font-family="Times,serif" font-size="14.00">Return</text>
</g>
<!-- ast.FunctionDef object at 0x7efdcb1ce230&#45;&gt;ast.Return object at 0x7efdcb1cec20 -->
<g id="edge4" class="edge">
<title>ast.FunctionDef object at 0x7efdcb1ce230&#45;&gt;ast.Return object at 0x7efdcb1cec20</title>
<path fill="none" stroke="black" d="M88.13,-575.7C92.85,-567.64 98.56,-557.89 103.78,-548.98"/>
<polygon fill="black" stroke="black" points="106.95,-550.5 108.98,-540.1 100.91,-546.96 106.95,-550.5"/>
</g>
<!-- ast.arg object at 0x7efdcb1ce9b0 -->
<g id="node4" class="node">
<title>ast.arg object at 0x7efdcb1ce9b0</title>
<path fill="#66cdaa" stroke="black" d="M52,-468C52,-468 22,-468 22,-468 16,-468 10,-462 10,-456 10,-456 10,-444 10,-444 10,-438 16,-432 22,-432 22,-432 52,-432 52,-432 58,-432 64,-438 64,-444 64,-444 64,-456 64,-456 64,-462 58,-468 52,-468"/>
<text text-anchor="middle" x="37" y="-446.3" font-family="Times,serif" font-size="14.00">arg</text>
</g>
<!-- ast.arguments object at 0x7efdcb1ceb90&#45;&gt;ast.arg object at 0x7efdcb1ce9b0 -->
<g id="edge3" class="edge">
<title>ast.arguments object at 0x7efdcb1ceb90&#45;&gt;ast.arg object at 0x7efdcb1ce9b0</title>
<path fill="none" stroke="black" d="M37,-503.7C37,-495.98 37,-486.71 37,-478.11"/>
<polygon fill="black" stroke="black" points="40.5,-478.1 37,-468.1 33.5,-478.1 40.5,-478.1"/>
</g>
<!-- ast.ListComp object at 0x7efdcb1cf610 -->
<g id="node6" class="node">
<title>ast.ListComp object at 0x7efdcb1cf610</title>
<path fill="#66cdaa" stroke="black" d="M142.5,-468C142.5,-468 95.5,-468 95.5,-468 89.5,-468 83.5,-462 83.5,-456 83.5,-456 83.5,-444 83.5,-444 83.5,-438 89.5,-432 95.5,-432 95.5,-432 142.5,-432 142.5,-432 148.5,-432 154.5,-438 154.5,-444 154.5,-444 154.5,-456 154.5,-456 154.5,-462 148.5,-468 142.5,-468"/>
<text text-anchor="middle" x="119" y="-446.3" font-family="Times,serif" font-size="14.00">ListComp</text>
</g>
<!-- ast.Return object at 0x7efdcb1cec20&#45;&gt;ast.ListComp object at 0x7efdcb1cf610 -->
<g id="edge5" class="edge">
<title>ast.Return object at 0x7efdcb1cec20&#45;&gt;ast.ListComp object at 0x7efdcb1cf610</title>
<path fill="none" stroke="black" d="M119,-503.7C119,-495.98 119,-486.71 119,-478.11"/>
<polygon fill="black" stroke="black" points="122.5,-478.1 119,-468.1 115.5,-478.1 122.5,-478.1"/>
</g>
<!-- ast.Name object at 0x7efdcb1ce260 -->
<g id="node7" class="node">
<title>ast.Name object at 0x7efdcb1ce260</title>
<path fill="#66cdaa" stroke="black" d="M83,-396C83,-396 53,-396 53,-396 47,-396 41,-390 41,-384 41,-384 41,-372 41,-372 41,-366 47,-360 53,-360 53,-360 83,-360 83,-360 89,-360 95,-366 95,-372 95,-372 95,-384 95,-384 95,-390 89,-396 83,-396"/>
<text text-anchor="middle" x="68" y="-374.3" font-family="Times,serif" font-size="14.00">Name</text>
</g>
<!-- ast.ListComp object at 0x7efdcb1cf610&#45;&gt;ast.Name object at 0x7efdcb1ce260 -->
<g id="edge6" class="edge">
<title>ast.ListComp object at 0x7efdcb1cf610&#45;&gt;ast.Name object at 0x7efdcb1ce260</title>
<path fill="none" stroke="black" d="M106.39,-431.7C100.4,-423.47 93.12,-413.48 86.52,-404.42"/>
<polygon fill="black" stroke="black" points="89.18,-402.13 80.46,-396.1 83.52,-406.25 89.18,-402.13"/>
</g>
<!-- ast.comprehension object at 0x7efdcb1cd6f0 -->
<g id="node9" class="node">
<title>ast.comprehension object at 0x7efdcb1cd6f0</title>
<path fill="#66cdaa" stroke="black" d="M209,-396C209,-396 133,-396 133,-396 127,-396 121,-390 121,-384 121,-384 121,-372 121,-372 121,-366 127,-360 133,-360 133,-360 209,-360 209,-360 215,-360 221,-366 221,-372 221,-372 221,-384 221,-384 221,-390 215,-396 209,-396"/>
<text text-anchor="middle" x="171" y="-374.3" font-family="Times,serif" font-size="14.00">comprehension</text>
</g>
<!-- ast.ListComp object at 0x7efdcb1cf610&#45;&gt;ast.comprehension object at 0x7efdcb1cd6f0 -->
<g id="edge8" class="edge">
<title>ast.ListComp object at 0x7efdcb1cf610&#45;&gt;ast.comprehension object at 0x7efdcb1cd6f0</title>
<path fill="none" stroke="black" d="M131.85,-431.7C138.03,-423.39 145.54,-413.28 152.32,-404.14"/>
<polygon fill="black" stroke="black" points="155.14,-406.22 158.29,-396.1 149.52,-402.04 155.14,-406.22"/>
</g>
<!-- ast.Load object at 0x7efe798f1f90 -->
<g id="node8" class="node">
<title>ast.Load object at 0x7efe798f1f90</title>
<path fill="#66cdaa" stroke="black" d="M220,-36C220,-36 190,-36 190,-36 184,-36 178,-30 178,-24 178,-24 178,-12 178,-12 178,-6 184,0 190,0 190,0 220,0 220,0 226,0 232,-6 232,-12 232,-12 232,-24 232,-24 232,-30 226,-36 220,-36"/>
<text text-anchor="middle" x="205" y="-14.3" font-family="Times,serif" font-size="14.00">Load</text>
</g>
<!-- ast.Name object at 0x7efdcb1ce260&#45;&gt;ast.Load object at 0x7efe798f1f90 -->
<g id="edge7" class="edge">
<title>ast.Name object at 0x7efdcb1ce260&#45;&gt;ast.Load object at 0x7efe798f1f90</title>
<path fill="none" stroke="black" d="M64.76,-359.58C60.09,-332.87 52,-280.15 52,-235 52,-235 52,-235 52,-161 52,-97.56 123.54,-54.49 168.78,-33.59"/>
<polygon fill="black" stroke="black" points="170.3,-36.74 178,-29.46 167.44,-30.35 170.3,-36.74"/>
</g>
<!-- ast.Name object at 0x7efdcb1cdea0 -->
<g id="node10" class="node">
<title>ast.Name object at 0x7efdcb1cdea0</title>
<path fill="#66cdaa" stroke="black" d="M122,-324C122,-324 92,-324 92,-324 86,-324 80,-318 80,-312 80,-312 80,-300 80,-300 80,-294 86,-288 92,-288 92,-288 122,-288 122,-288 128,-288 134,-294 134,-300 134,-300 134,-312 134,-312 134,-318 128,-324 122,-324"/>
<text text-anchor="middle" x="107" y="-302.3" font-family="Times,serif" font-size="14.00">Name</text>
</g>
<!-- ast.comprehension object at 0x7efdcb1cd6f0&#45;&gt;ast.Name object at 0x7efdcb1cdea0 -->
<g id="edge9" class="edge">
<title>ast.comprehension object at 0x7efdcb1cd6f0&#45;&gt;ast.Name object at 0x7efdcb1cdea0</title>
<path fill="none" stroke="black" d="M155.18,-359.7C147.43,-351.22 137.96,-340.86 129.48,-331.58"/>
<polygon fill="black" stroke="black" points="131.97,-329.12 122.64,-324.1 126.8,-333.85 131.97,-329.12"/>
</g>
<!-- ast.Name object at 0x7efdcb1cd2a0 -->
<g id="node12" class="node">
<title>ast.Name object at 0x7efdcb1cd2a0</title>
<path fill="#66cdaa" stroke="black" d="M194,-324C194,-324 164,-324 164,-324 158,-324 152,-318 152,-312 152,-312 152,-300 152,-300 152,-294 158,-288 164,-288 164,-288 194,-288 194,-288 200,-288 206,-294 206,-300 206,-300 206,-312 206,-312 206,-318 200,-324 194,-324"/>
<text text-anchor="middle" x="179" y="-302.3" font-family="Times,serif" font-size="14.00">Name</text>
</g>
<!-- ast.comprehension object at 0x7efdcb1cd6f0&#45;&gt;ast.Name object at 0x7efdcb1cd2a0 -->
<g id="edge11" class="edge">
<title>ast.comprehension object at 0x7efdcb1cd6f0&#45;&gt;ast.Name object at 0x7efdcb1cd2a0</title>
<path fill="none" stroke="black" d="M172.98,-359.7C173.86,-351.98 174.92,-342.71 175.9,-334.11"/>
<polygon fill="black" stroke="black" points="179.39,-334.44 177.05,-324.1 172.43,-333.64 179.39,-334.44"/>
</g>
<!-- ast.BoolOp object at 0x7efdcb1cc940 -->
<g id="node13" class="node">
<title>ast.BoolOp object at 0x7efdcb1cc940</title>
<path fill="#66cdaa" stroke="black" d="M350.5,-324C350.5,-324 315.5,-324 315.5,-324 309.5,-324 303.5,-318 303.5,-312 303.5,-312 303.5,-300 303.5,-300 303.5,-294 309.5,-288 315.5,-288 315.5,-288 350.5,-288 350.5,-288 356.5,-288 362.5,-294 362.5,-300 362.5,-300 362.5,-312 362.5,-312 362.5,-318 356.5,-324 350.5,-324"/>
<text text-anchor="middle" x="333" y="-302.3" font-family="Times,serif" font-size="14.00">BoolOp</text>
</g>
<!-- ast.comprehension object at 0x7efdcb1cd6f0&#45;&gt;ast.BoolOp object at 0x7efdcb1cc940 -->
<g id="edge13" class="edge">
<title>ast.comprehension object at 0x7efdcb1cd6f0&#45;&gt;ast.BoolOp object at 0x7efdcb1cc940</title>
<path fill="none" stroke="black" d="M210.63,-359.88C236.05,-348.89 268.89,-334.7 294.15,-323.79"/>
<polygon fill="black" stroke="black" points="295.64,-326.96 303.43,-319.78 292.86,-320.53 295.64,-326.96"/>
</g>
<!-- ast.Store object at 0x7efe798f1ff0 -->
<g id="node11" class="node">
<title>ast.Store object at 0x7efe798f1ff0</title>
<path fill="#66cdaa" stroke="black" d="M122,-252C122,-252 92,-252 92,-252 86,-252 80,-246 80,-240 80,-240 80,-228 80,-228 80,-222 86,-216 92,-216 92,-216 122,-216 122,-216 128,-216 134,-222 134,-228 134,-228 134,-240 134,-240 134,-246 128,-252 122,-252"/>
<text text-anchor="middle" x="107" y="-230.3" font-family="Times,serif" font-size="14.00">Store</text>
</g>
<!-- ast.Name object at 0x7efdcb1cdea0&#45;&gt;ast.Store object at 0x7efe798f1ff0 -->
<g id="edge10" class="edge">
<title>ast.Name object at 0x7efdcb1cdea0&#45;&gt;ast.Store object at 0x7efe798f1ff0</title>
<path fill="none" stroke="black" d="M107,-287.7C107,-279.98 107,-270.71 107,-262.11"/>
<polygon fill="black" stroke="black" points="110.5,-262.1 107,-252.1 103.5,-262.1 110.5,-262.1"/>
</g>
<!-- ast.Name object at 0x7efdcb1cd2a0&#45;&gt;ast.Load object at 0x7efe798f1f90 -->
<g id="edge12" class="edge">
<title>ast.Name object at 0x7efdcb1cd2a0&#45;&gt;ast.Load object at 0x7efe798f1f90</title>
<path fill="none" stroke="black" d="M178.21,-287.55C177.09,-257.94 175.73,-196.01 181,-144 184.45,-109.95 192.51,-71.35 198.34,-46.17"/>
<polygon fill="black" stroke="black" points="201.79,-46.78 200.68,-36.25 194.98,-45.18 201.79,-46.78"/>
</g>
<!-- ast.And object at 0x7efe798f20e0 -->
<g id="node14" class="node">
<title>ast.And object at 0x7efe798f20e0</title>
<path fill="#66cdaa" stroke="black" d="M309,-252C309,-252 279,-252 279,-252 273,-252 267,-246 267,-240 267,-240 267,-228 267,-228 267,-222 273,-216 279,-216 279,-216 309,-216 309,-216 315,-216 321,-222 321,-228 321,-228 321,-240 321,-240 321,-246 315,-252 309,-252"/>
<text text-anchor="middle" x="294" y="-230.3" font-family="Times,serif" font-size="14.00">And</text>
</g>
<!-- ast.BoolOp object at 0x7efdcb1cc940&#45;&gt;ast.And object at 0x7efe798f20e0 -->
<g id="edge14" class="edge">
<title>ast.BoolOp object at 0x7efdcb1cc940&#45;&gt;ast.And object at 0x7efe798f20e0</title>
<path fill="none" stroke="black" d="M323.36,-287.7C318.87,-279.64 313.44,-269.89 308.48,-260.98"/>
<polygon fill="black" stroke="black" points="311.45,-259.14 303.53,-252.1 305.34,-262.54 311.45,-259.14"/>
</g>
<!-- ast.Compare object at 0x7efdcb1cf6a0 -->
<g id="node15" class="node">
<title>ast.Compare object at 0x7efdcb1cf6a0</title>
<path fill="#66cdaa" stroke="black" d="M394.5,-252C394.5,-252 351.5,-252 351.5,-252 345.5,-252 339.5,-246 339.5,-240 339.5,-240 339.5,-228 339.5,-228 339.5,-222 345.5,-216 351.5,-216 351.5,-216 394.5,-216 394.5,-216 400.5,-216 406.5,-222 406.5,-228 406.5,-228 406.5,-240 406.5,-240 406.5,-246 400.5,-252 394.5,-252"/>
<text text-anchor="middle" x="373" y="-230.3" font-family="Times,serif" font-size="14.00">Compare</text>
</g>
<!-- ast.BoolOp object at 0x7efdcb1cc940&#45;&gt;ast.Compare object at 0x7efdcb1cf6a0 -->
<g id="edge15" class="edge">
<title>ast.BoolOp object at 0x7efdcb1cc940&#45;&gt;ast.Compare object at 0x7efdcb1cf6a0</title>
<path fill="none" stroke="black" d="M342.89,-287.7C347.49,-279.64 353.06,-269.89 358.15,-260.98"/>
<polygon fill="black" stroke="black" points="361.3,-262.52 363.23,-252.1 355.23,-259.05 361.3,-262.52"/>
</g>
<!-- ast.Compare object at 0x7efdcb1ce7d0 -->
<g id="node21" class="node">
<title>ast.Compare object at 0x7efdcb1ce7d0</title>
<path fill="#66cdaa" stroke="black" d="M624.5,-252C624.5,-252 581.5,-252 581.5,-252 575.5,-252 569.5,-246 569.5,-240 569.5,-240 569.5,-228 569.5,-228 569.5,-222 575.5,-216 581.5,-216 581.5,-216 624.5,-216 624.5,-216 630.5,-216 636.5,-222 636.5,-228 636.5,-228 636.5,-240 636.5,-240 636.5,-246 630.5,-252 624.5,-252"/>
<text text-anchor="middle" x="603" y="-230.3" font-family="Times,serif" font-size="14.00">Compare</text>
</g>
<!-- ast.BoolOp object at 0x7efdcb1cc940&#45;&gt;ast.Compare object at 0x7efdcb1ce7d0 -->
<g id="edge22" class="edge">
<title>ast.BoolOp object at 0x7efdcb1cc940&#45;&gt;ast.Compare object at 0x7efdcb1ce7d0</title>
<path fill="none" stroke="black" d="M362.67,-297.31C410.38,-284.94 504.41,-260.56 559.65,-246.24"/>
<polygon fill="black" stroke="black" points="560.69,-249.59 569.49,-243.69 558.93,-242.81 560.69,-249.59"/>
</g>
<!-- ast.Constant object at 0x7efdcb1cfe50 -->
<g id="node16" class="node">
<title>ast.Constant object at 0x7efdcb1cfe50</title>
<path fill="#66cdaa" stroke="black" d="M243.5,-180C243.5,-180 202.5,-180 202.5,-180 196.5,-180 190.5,-174 190.5,-168 190.5,-168 190.5,-156 190.5,-156 190.5,-150 196.5,-144 202.5,-144 202.5,-144 243.5,-144 243.5,-144 249.5,-144 255.5,-150 255.5,-156 255.5,-156 255.5,-168 255.5,-168 255.5,-174 249.5,-180 243.5,-180"/>
<text text-anchor="middle" x="223" y="-158.3" font-family="Times,serif" font-size="14.00">Constant</text>
</g>
<!-- ast.Compare object at 0x7efdcb1cf6a0&#45;&gt;ast.Constant object at 0x7efdcb1cfe50 -->
<g id="edge16" class="edge">
<title>ast.Compare object at 0x7efdcb1cf6a0&#45;&gt;ast.Constant object at 0x7efdcb1cfe50</title>
<path fill="none" stroke="black" d="M339.34,-217.29C317.32,-207.02 288.39,-193.52 264.89,-182.55"/>
<polygon fill="black" stroke="black" points="266.06,-179.23 255.52,-178.18 263.1,-185.58 266.06,-179.23"/>
</g>
<!-- ast.LtE object at 0x7efe798f29e0 -->
<g id="node17" class="node">
<title>ast.LtE object at 0x7efe798f29e0</title>
<path fill="#66cdaa" stroke="black" d="M316,-180C316,-180 286,-180 286,-180 280,-180 274,-174 274,-168 274,-168 274,-156 274,-156 274,-150 280,-144 286,-144 286,-144 316,-144 316,-144 322,-144 328,-150 328,-156 328,-156 328,-168 328,-168 328,-174 322,-180 316,-180"/>
<text text-anchor="middle" x="301" y="-158.3" font-family="Times,serif" font-size="14.00">LtE</text>
</g>
<!-- ast.Compare object at 0x7efdcb1cf6a0&#45;&gt;ast.LtE object at 0x7efe798f29e0 -->
<g id="edge17" class="edge">
<title>ast.Compare object at 0x7efdcb1cf6a0&#45;&gt;ast.LtE object at 0x7efe798f29e0</title>
<path fill="none" stroke="black" d="M355.2,-215.7C346.4,-207.14 335.62,-196.66 326,-187.3"/>
<polygon fill="black" stroke="black" points="328.2,-184.57 318.59,-180.1 323.32,-189.58 328.2,-184.57"/>
</g>
<!-- ast.Lt object at 0x7efe798f2980 -->
<g id="node18" class="node">
<title>ast.Lt object at 0x7efe798f2980</title>
<path fill="#66cdaa" stroke="black" d="M388,-180C388,-180 358,-180 358,-180 352,-180 346,-174 346,-168 346,-168 346,-156 346,-156 346,-150 352,-144 358,-144 358,-144 388,-144 388,-144 394,-144 400,-150 400,-156 400,-156 400,-168 400,-168 400,-174 394,-180 388,-180"/>
<text text-anchor="middle" x="373" y="-158.3" font-family="Times,serif" font-size="14.00">Lt</text>
</g>
<!-- ast.Compare object at 0x7efdcb1cf6a0&#45;&gt;ast.Lt object at 0x7efe798f2980 -->
<g id="edge18" class="edge">
<title>ast.Compare object at 0x7efdcb1cf6a0&#45;&gt;ast.Lt object at 0x7efe798f2980</title>
<path fill="none" stroke="black" d="M373,-215.7C373,-207.98 373,-198.71 373,-190.11"/>
<polygon fill="black" stroke="black" points="376.5,-190.1 373,-180.1 369.5,-190.1 376.5,-190.1"/>
</g>
<!-- ast.Name object at 0x7efdcb1cd750 -->
<g id="node19" class="node">
<title>ast.Name object at 0x7efdcb1cd750</title>
<path fill="#66cdaa" stroke="black" d="M303,-108C303,-108 273,-108 273,-108 267,-108 261,-102 261,-96 261,-96 261,-84 261,-84 261,-78 267,-72 273,-72 273,-72 303,-72 303,-72 309,-72 315,-78 315,-84 315,-84 315,-96 315,-96 315,-102 309,-108 303,-108"/>
<text text-anchor="middle" x="288" y="-86.3" font-family="Times,serif" font-size="14.00">Name</text>
</g>
<!-- ast.Compare object at 0x7efdcb1cf6a0&#45;&gt;ast.Name object at 0x7efdcb1cd750 -->
<g id="edge19" class="edge">
<title>ast.Compare object at 0x7efdcb1cf6a0&#45;&gt;ast.Name object at 0x7efdcb1cd750</title>
<path fill="none" stroke="black" d="M389.12,-215.98C404.74,-197.34 424.05,-167.02 409,-144 390.56,-115.79 353.42,-102.5 325.12,-96.3"/>
<polygon fill="black" stroke="black" points="325.64,-92.84 315.15,-94.32 324.28,-99.7 325.64,-92.84"/>
</g>
<!-- ast.Constant object at 0x7efdcb1cc5b0 -->
<g id="node20" class="node">
<title>ast.Constant object at 0x7efdcb1cc5b0</title>
<path fill="#66cdaa" stroke="black" d="M509.5,-180C509.5,-180 468.5,-180 468.5,-180 462.5,-180 456.5,-174 456.5,-168 456.5,-168 456.5,-156 456.5,-156 456.5,-150 462.5,-144 468.5,-144 468.5,-144 509.5,-144 509.5,-144 515.5,-144 521.5,-150 521.5,-156 521.5,-156 521.5,-168 521.5,-168 521.5,-174 515.5,-180 509.5,-180"/>
<text text-anchor="middle" x="489" y="-158.3" font-family="Times,serif" font-size="14.00">Constant</text>
</g>
<!-- ast.Compare object at 0x7efdcb1cf6a0&#45;&gt;ast.Constant object at 0x7efdcb1cc5b0 -->
<g id="edge21" class="edge">
<title>ast.Compare object at 0x7efdcb1cf6a0&#45;&gt;ast.Constant object at 0x7efdcb1cc5b0</title>
<path fill="none" stroke="black" d="M401.38,-215.88C416.54,-206.72 435.41,-195.34 451.74,-185.48"/>
<polygon fill="black" stroke="black" points="453.76,-188.35 460.51,-180.19 450.14,-182.36 453.76,-188.35"/>
</g>
<!-- ast.Name object at 0x7efdcb1cd750&#45;&gt;ast.Load object at 0x7efe798f1f90 -->
<g id="edge20" class="edge">
<title>ast.Name object at 0x7efdcb1cd750&#45;&gt;ast.Load object at 0x7efe798f1f90</title>
<path fill="none" stroke="black" d="M267.48,-71.7C257.13,-62.97 244.41,-52.24 233.16,-42.75"/>
<polygon fill="black" stroke="black" points="235.18,-39.88 225.28,-36.1 230.67,-45.23 235.18,-39.88"/>
</g>
<!-- ast.BinOp object at 0x7efdcb1cd480 -->
<g id="node22" class="node">
<title>ast.BinOp object at 0x7efdcb1cd480</title>
<path fill="#66cdaa" stroke="black" d="M582,-180C582,-180 552,-180 552,-180 546,-180 540,-174 540,-168 540,-168 540,-156 540,-156 540,-150 546,-144 552,-144 552,-144 582,-144 582,-144 588,-144 594,-150 594,-156 594,-156 594,-168 594,-168 594,-174 588,-180 582,-180"/>
<text text-anchor="middle" x="567" y="-158.3" font-family="Times,serif" font-size="14.00">BinOp</text>
</g>
<!-- ast.Compare object at 0x7efdcb1ce7d0&#45;&gt;ast.BinOp object at 0x7efdcb1cd480 -->
<g id="edge23" class="edge">
<title>ast.Compare object at 0x7efdcb1ce7d0&#45;&gt;ast.BinOp object at 0x7efdcb1cd480</title>
<path fill="none" stroke="black" d="M594.1,-215.7C590,-207.73 585.05,-198.1 580.51,-189.26"/>
<polygon fill="black" stroke="black" points="583.48,-187.4 575.8,-180.1 577.26,-190.6 583.48,-187.4"/>
</g>
<!-- ast.Eq object at 0x7efe798f28c0 -->
<g id="node26" class="node">
<title>ast.Eq object at 0x7efe798f28c0</title>
<path fill="#66cdaa" stroke="black" d="M654,-180C654,-180 624,-180 624,-180 618,-180 612,-174 612,-168 612,-168 612,-156 612,-156 612,-150 618,-144 624,-144 624,-144 654,-144 654,-144 660,-144 666,-150 666,-156 666,-156 666,-168 666,-168 666,-174 660,-180 654,-180"/>
<text text-anchor="middle" x="639" y="-158.3" font-family="Times,serif" font-size="14.00">Eq</text>
</g>
<!-- ast.Compare object at 0x7efdcb1ce7d0&#45;&gt;ast.Eq object at 0x7efe798f28c0 -->
<g id="edge28" class="edge">
<title>ast.Compare object at 0x7efdcb1ce7d0&#45;&gt;ast.Eq object at 0x7efe798f28c0</title>
<path fill="none" stroke="black" d="M611.9,-215.7C616,-207.73 620.95,-198.1 625.49,-189.26"/>
<polygon fill="black" stroke="black" points="628.74,-190.6 630.2,-180.1 622.52,-187.4 628.74,-190.6"/>
</g>
<!-- ast.Constant object at 0x7efdcb1cd120 -->
<g id="node27" class="node">
<title>ast.Constant object at 0x7efdcb1cd120</title>
<path fill="#66cdaa" stroke="black" d="M737.5,-180C737.5,-180 696.5,-180 696.5,-180 690.5,-180 684.5,-174 684.5,-168 684.5,-168 684.5,-156 684.5,-156 684.5,-150 690.5,-144 696.5,-144 696.5,-144 737.5,-144 737.5,-144 743.5,-144 749.5,-150 749.5,-156 749.5,-156 749.5,-168 749.5,-168 749.5,-174 743.5,-180 737.5,-180"/>
<text text-anchor="middle" x="717" y="-158.3" font-family="Times,serif" font-size="14.00">Constant</text>
</g>
<!-- ast.Compare object at 0x7efdcb1ce7d0&#45;&gt;ast.Constant object at 0x7efdcb1cd120 -->
<g id="edge29" class="edge">
<title>ast.Compare object at 0x7efdcb1ce7d0&#45;&gt;ast.Constant object at 0x7efdcb1cd120</title>
<path fill="none" stroke="black" d="M630.89,-215.88C645.79,-206.72 664.33,-195.34 680.38,-185.48"/>
<polygon fill="black" stroke="black" points="682.31,-188.41 689.01,-180.19 678.65,-182.44 682.31,-188.41"/>
</g>
<!-- ast.Name object at 0x7efdcb1ce650 -->
<g id="node23" class="node">
<title>ast.Name object at 0x7efdcb1ce650</title>
<path fill="#66cdaa" stroke="black" d="M439,-108C439,-108 409,-108 409,-108 403,-108 397,-102 397,-96 397,-96 397,-84 397,-84 397,-78 403,-72 409,-72 409,-72 439,-72 439,-72 445,-72 451,-78 451,-84 451,-84 451,-96 451,-96 451,-102 445,-108 439,-108"/>
<text text-anchor="middle" x="424" y="-86.3" font-family="Times,serif" font-size="14.00">Name</text>
</g>
<!-- ast.BinOp object at 0x7efdcb1cd480&#45;&gt;ast.Name object at 0x7efdcb1ce650 -->
<g id="edge24" class="edge">
<title>ast.BinOp object at 0x7efdcb1cd480&#45;&gt;ast.Name object at 0x7efdcb1ce650</title>
<path fill="none" stroke="black" d="M539.77,-147.67C517.2,-136.62 484.95,-120.83 460.21,-108.72"/>
<polygon fill="black" stroke="black" points="461.65,-105.53 451.13,-104.28 458.58,-111.82 461.65,-105.53"/>
</g>
<!-- ast.Mod object at 0x7efe798f23b0 -->
<g id="node24" class="node">
<title>ast.Mod object at 0x7efe798f23b0</title>
<path fill="#66cdaa" stroke="black" d="M543,-108C543,-108 513,-108 513,-108 507,-108 501,-102 501,-96 501,-96 501,-84 501,-84 501,-78 507,-72 513,-72 513,-72 543,-72 543,-72 549,-72 555,-78 555,-84 555,-84 555,-96 555,-96 555,-102 549,-108 543,-108"/>
<text text-anchor="middle" x="528" y="-86.3" font-family="Times,serif" font-size="14.00">Mod</text>
</g>
<!-- ast.BinOp object at 0x7efdcb1cd480&#45;&gt;ast.Mod object at 0x7efe798f23b0 -->
<g id="edge26" class="edge">
<title>ast.BinOp object at 0x7efdcb1cd480&#45;&gt;ast.Mod object at 0x7efe798f23b0</title>
<path fill="none" stroke="black" d="M557.36,-143.7C552.87,-135.64 547.44,-125.89 542.48,-116.98"/>
<polygon fill="black" stroke="black" points="545.45,-115.14 537.53,-108.1 539.34,-118.54 545.45,-115.14"/>
</g>
<!-- ast.Constant object at 0x7efdcb1cf730 -->
<g id="node25" class="node">
<title>ast.Constant object at 0x7efdcb1cf730</title>
<path fill="#66cdaa" stroke="black" d="M626.5,-108C626.5,-108 585.5,-108 585.5,-108 579.5,-108 573.5,-102 573.5,-96 573.5,-96 573.5,-84 573.5,-84 573.5,-78 579.5,-72 585.5,-72 585.5,-72 626.5,-72 626.5,-72 632.5,-72 638.5,-78 638.5,-84 638.5,-84 638.5,-96 638.5,-96 638.5,-102 632.5,-108 626.5,-108"/>
<text text-anchor="middle" x="606" y="-86.3" font-family="Times,serif" font-size="14.00">Constant</text>
</g>
<!-- ast.BinOp object at 0x7efdcb1cd480&#45;&gt;ast.Constant object at 0x7efdcb1cf730 -->
<g id="edge27" class="edge">
<title>ast.BinOp object at 0x7efdcb1cd480&#45;&gt;ast.Constant object at 0x7efdcb1cf730</title>
<path fill="none" stroke="black" d="M576.64,-143.7C581.13,-135.64 586.56,-125.89 591.52,-116.98"/>
<polygon fill="black" stroke="black" points="594.66,-118.54 596.47,-108.1 588.55,-115.14 594.66,-118.54"/>
</g>
<!-- ast.Name object at 0x7efdcb1ce650&#45;&gt;ast.Load object at 0x7efe798f1f90 -->
<g id="edge25" class="edge">
<title>ast.Name object at 0x7efdcb1ce650&#45;&gt;ast.Load object at 0x7efe798f1f90</title>
<path fill="none" stroke="black" d="M396.71,-80.28C357.67,-67.8 285.77,-44.82 241.98,-30.82"/>
<polygon fill="black" stroke="black" points="242.88,-27.43 232.29,-27.72 240.75,-34.1 242.88,-27.43"/>
</g>
</g>
</svg>
