<?xml version="1.0" encoding="UTF-8" standalone="no"?>
<!DOCTYPE svg PUBLIC "-//W3C//DTD SVG 1.1//EN"
 "http://www.w3.org/Graphics/SVG/1.1/DTD/svg11.dtd">
<!-- Generated by graphviz version 2.43.0 (0)
 -->
<!-- Title: %3 Pages: 1 -->
<svg width="680pt" height="692pt"
 viewBox="0.00 0.00 679.50 692.00" xmlns="http://www.w3.org/2000/svg" xmlns:xlink="http://www.w3.org/1999/xlink">
<g id="graph0" class="graph" transform="scale(1 1) rotate(0) translate(4 688)">
<title>%3</title>
<polygon fill="white" stroke="transparent" points="-4,4 -4,-688 675.5,-688 675.5,4 -4,4"/>
<!-- ast.Module object at 0x7fe3a0d5b340 -->
<g id="node1" class="node">
<title>ast.Module object at 0x7fe3a0d5b340</title>
<path fill="#66cdaa" stroke="black" d="M499,-684C499,-684 464,-684 464,-684 458,-684 452,-678 452,-672 452,-672 452,-660 452,-660 452,-654 458,-648 464,-648 464,-648 499,-648 499,-648 505,-648 511,-654 511,-660 511,-660 511,-672 511,-672 511,-678 505,-684 499,-684"/>
<text text-anchor="middle" x="481.5" y="-662.3" font-family="Times,serif" font-size="14.00">Module</text>
</g>
<!-- ast.FunctionDef object at 0x7fe3a0d5b3d0 -->
<g id="node2" class="node">
<title>ast.FunctionDef object at 0x7fe3a0d5b3d0</title>
<path fill="#66cdaa" stroke="black" d="M512,-612C512,-612 451,-612 451,-612 445,-612 439,-606 439,-600 439,-600 439,-588 439,-588 439,-582 445,-576 451,-576 451,-576 512,-576 512,-576 518,-576 524,-582 524,-588 524,-588 524,-600 524,-600 524,-606 518,-612 512,-612"/>
<text text-anchor="middle" x="481.5" y="-590.3" font-family="Times,serif" font-size="14.00">FunctionDef</text>
</g>
<!-- ast.Module object at 0x7fe3a0d5b340&#45;&gt;ast.FunctionDef object at 0x7fe3a0d5b3d0 -->
<g id="edge1" class="edge">
<title>ast.Module object at 0x7fe3a0d5b340&#45;&gt;ast.FunctionDef object at 0x7fe3a0d5b3d0</title>
<path fill="none" stroke="black" d="M481.5,-647.7C481.5,-639.98 481.5,-630.71 481.5,-622.11"/>
<polygon fill="black" stroke="black" points="485,-622.1 481.5,-612.1 478,-622.1 485,-622.1"/>
</g>
<!-- ast.arguments object at 0x7fe3a0d5a440 -->
<g id="node3" class="node">
<title>ast.arguments object at 0x7fe3a0d5a440</title>
<path fill="#66cdaa" stroke="black" d="M289.5,-540C289.5,-540 239.5,-540 239.5,-540 233.5,-540 227.5,-534 227.5,-528 227.5,-528 227.5,-516 227.5,-516 227.5,-510 233.5,-504 239.5,-504 239.5,-504 289.5,-504 289.5,-504 295.5,-504 301.5,-510 301.5,-516 301.5,-516 301.5,-528 301.5,-528 301.5,-534 295.5,-540 289.5,-540"/>
<text text-anchor="middle" x="264.5" y="-518.3" font-family="Times,serif" font-size="14.00">arguments</text>
</g>
<!-- ast.FunctionDef object at 0x7fe3a0d5b3d0&#45;&gt;ast.arguments object at 0x7fe3a0d5a440 -->
<g id="edge2" class="edge">
<title>ast.FunctionDef object at 0x7fe3a0d5b3d0&#45;&gt;ast.arguments object at 0x7fe3a0d5a440</title>
<path fill="none" stroke="black" d="M438.89,-579.25C402.18,-567.41 349.27,-550.35 311.37,-538.12"/>
<polygon fill="black" stroke="black" points="312.19,-534.7 301.59,-534.97 310.04,-541.37 312.19,-534.7"/>
</g>
<!-- ast.Assign object at 0x7fe3a0d5b460 -->
<g id="node5" class="node">
<title>ast.Assign object at 0x7fe3a0d5b460</title>
<path fill="#66cdaa" stroke="black" d="M532.5,-540C532.5,-540 502.5,-540 502.5,-540 496.5,-540 490.5,-534 490.5,-528 490.5,-528 490.5,-516 490.5,-516 490.5,-510 496.5,-504 502.5,-504 502.5,-504 532.5,-504 532.5,-504 538.5,-504 544.5,-510 544.5,-516 544.5,-516 544.5,-528 544.5,-528 544.5,-534 538.5,-540 532.5,-540"/>
<text text-anchor="middle" x="517.5" y="-518.3" font-family="Times,serif" font-size="14.00">Assign</text>
</g>
<!-- ast.FunctionDef object at 0x7fe3a0d5b3d0&#45;&gt;ast.Assign object at 0x7fe3a0d5b460 -->
<g id="edge4" class="edge">
<title>ast.FunctionDef object at 0x7fe3a0d5b3d0&#45;&gt;ast.Assign object at 0x7fe3a0d5b460</title>
<path fill="none" stroke="black" d="M490.4,-575.7C494.5,-567.73 499.45,-558.1 503.99,-549.26"/>
<polygon fill="black" stroke="black" points="507.24,-550.6 508.7,-540.1 501.02,-547.4 507.24,-550.6"/>
</g>
<!-- ast.For object at 0x7fe3a0d5b8b0 -->
<g id="node10" class="node">
<title>ast.For object at 0x7fe3a0d5b8b0</title>
<path fill="#66cdaa" stroke="black" d="M424.5,-540C424.5,-540 394.5,-540 394.5,-540 388.5,-540 382.5,-534 382.5,-528 382.5,-528 382.5,-516 382.5,-516 382.5,-510 388.5,-504 394.5,-504 394.5,-504 424.5,-504 424.5,-504 430.5,-504 436.5,-510 436.5,-516 436.5,-516 436.5,-528 436.5,-528 436.5,-534 430.5,-540 424.5,-540"/>
<text text-anchor="middle" x="409.5" y="-518.3" font-family="Times,serif" font-size="14.00">For</text>
</g>
<!-- ast.FunctionDef object at 0x7fe3a0d5b3d0&#45;&gt;ast.For object at 0x7fe3a0d5b8b0 -->
<g id="edge9" class="edge">
<title>ast.FunctionDef object at 0x7fe3a0d5b3d0&#45;&gt;ast.For object at 0x7fe3a0d5b8b0</title>
<path fill="none" stroke="black" d="M463.7,-575.7C454.9,-567.14 444.12,-556.66 434.5,-547.3"/>
<polygon fill="black" stroke="black" points="436.7,-544.57 427.09,-540.1 431.82,-549.58 436.7,-544.57"/>
</g>
<!-- ast.Return object at 0x7fe3a0d15240 -->
<g id="node34" class="node">
<title>ast.Return object at 0x7fe3a0d15240</title>
<path fill="#66cdaa" stroke="black" d="M631.5,-540C631.5,-540 601.5,-540 601.5,-540 595.5,-540 589.5,-534 589.5,-528 589.5,-528 589.5,-516 589.5,-516 589.5,-510 595.5,-504 601.5,-504 601.5,-504 631.5,-504 631.5,-504 637.5,-504 643.5,-510 643.5,-516 643.5,-516 643.5,-528 643.5,-528 643.5,-534 637.5,-540 631.5,-540"/>
<text text-anchor="middle" x="616.5" y="-518.3" font-family="Times,serif" font-size="14.00">Return</text>
</g>
<!-- ast.FunctionDef object at 0x7fe3a0d5b3d0&#45;&gt;ast.Return object at 0x7fe3a0d15240 -->
<g id="edge43" class="edge">
<title>ast.FunctionDef object at 0x7fe3a0d5b3d0&#45;&gt;ast.Return object at 0x7fe3a0d15240</title>
<path fill="none" stroke="black" d="M514.52,-575.88C534.43,-565.56 559.79,-552.4 580.25,-541.8"/>
<polygon fill="black" stroke="black" points="582,-544.83 589.26,-537.12 578.77,-538.62 582,-544.83"/>
</g>
<!-- ast.arg object at 0x7fe3a0d5b2e0 -->
<g id="node4" class="node">
<title>ast.arg object at 0x7fe3a0d5b2e0</title>
<path fill="#66cdaa" stroke="black" d="M180.5,-468C180.5,-468 150.5,-468 150.5,-468 144.5,-468 138.5,-462 138.5,-456 138.5,-456 138.5,-444 138.5,-444 138.5,-438 144.5,-432 150.5,-432 150.5,-432 180.5,-432 180.5,-432 186.5,-432 192.5,-438 192.5,-444 192.5,-444 192.5,-456 192.5,-456 192.5,-462 186.5,-468 180.5,-468"/>
<text text-anchor="middle" x="165.5" y="-446.3" font-family="Times,serif" font-size="14.00">arg</text>
</g>
<!-- ast.arguments object at 0x7fe3a0d5a440&#45;&gt;ast.arg object at 0x7fe3a0d5b2e0 -->
<g id="edge3" class="edge">
<title>ast.arguments object at 0x7fe3a0d5a440&#45;&gt;ast.arg object at 0x7fe3a0d5b2e0</title>
<path fill="none" stroke="black" d="M240.28,-503.88C227.58,-494.89 211.84,-483.76 198.08,-474.03"/>
<polygon fill="black" stroke="black" points="200,-471.11 189.81,-468.19 195.96,-476.82 200,-471.11"/>
</g>
<!-- ast.Name object at 0x7fe3a0d5af80 -->
<g id="node6" class="node">
<title>ast.Name object at 0x7fe3a0d5af80</title>
<path fill="#66cdaa" stroke="black" d="M532.5,-468C532.5,-468 502.5,-468 502.5,-468 496.5,-468 490.5,-462 490.5,-456 490.5,-456 490.5,-444 490.5,-444 490.5,-438 496.5,-432 502.5,-432 502.5,-432 532.5,-432 532.5,-432 538.5,-432 544.5,-438 544.5,-444 544.5,-444 544.5,-456 544.5,-456 544.5,-462 538.5,-468 532.5,-468"/>
<text text-anchor="middle" x="517.5" y="-446.3" font-family="Times,serif" font-size="14.00">Name</text>
</g>
<!-- ast.Assign object at 0x7fe3a0d5b460&#45;&gt;ast.Name object at 0x7fe3a0d5af80 -->
<g id="edge5" class="edge">
<title>ast.Assign object at 0x7fe3a0d5b460&#45;&gt;ast.Name object at 0x7fe3a0d5af80</title>
<path fill="none" stroke="black" d="M517.5,-503.7C517.5,-495.98 517.5,-486.71 517.5,-478.11"/>
<polygon fill="black" stroke="black" points="521,-478.1 517.5,-468.1 514,-478.1 521,-478.1"/>
</g>
<!-- ast.List object at 0x7fe3a0d5a8f0 -->
<g id="node8" class="node">
<title>ast.List object at 0x7fe3a0d5a8f0</title>
<path fill="#66cdaa" stroke="black" d="M587.5,-396C587.5,-396 557.5,-396 557.5,-396 551.5,-396 545.5,-390 545.5,-384 545.5,-384 545.5,-372 545.5,-372 545.5,-366 551.5,-360 557.5,-360 557.5,-360 587.5,-360 587.5,-360 593.5,-360 599.5,-366 599.5,-372 599.5,-372 599.5,-384 599.5,-384 599.5,-390 593.5,-396 587.5,-396"/>
<text text-anchor="middle" x="572.5" y="-374.3" font-family="Times,serif" font-size="14.00">List</text>
</g>
<!-- ast.Assign object at 0x7fe3a0d5b460&#45;&gt;ast.List object at 0x7fe3a0d5a8f0 -->
<g id="edge7" class="edge">
<title>ast.Assign object at 0x7fe3a0d5b460&#45;&gt;ast.List object at 0x7fe3a0d5a8f0</title>
<path fill="none" stroke="black" d="M531.66,-503.85C539.19,-493.93 548,-480.89 553.5,-468 561.91,-448.29 566.74,-424.49 569.43,-406.46"/>
<polygon fill="black" stroke="black" points="572.93,-406.71 570.8,-396.33 565.99,-405.76 572.93,-406.71"/>
</g>
<!-- ast.Store object at 0x7fe3a55ee050 -->
<g id="node7" class="node">
<title>ast.Store object at 0x7fe3a55ee050</title>
<path fill="#66cdaa" stroke="black" d="M512.5,-396C512.5,-396 482.5,-396 482.5,-396 476.5,-396 470.5,-390 470.5,-384 470.5,-384 470.5,-372 470.5,-372 470.5,-366 476.5,-360 482.5,-360 482.5,-360 512.5,-360 512.5,-360 518.5,-360 524.5,-366 524.5,-372 524.5,-372 524.5,-384 524.5,-384 524.5,-390 518.5,-396 512.5,-396"/>
<text text-anchor="middle" x="497.5" y="-374.3" font-family="Times,serif" font-size="14.00">Store</text>
</g>
<!-- ast.Name object at 0x7fe3a0d5af80&#45;&gt;ast.Store object at 0x7fe3a55ee050 -->
<g id="edge6" class="edge">
<title>ast.Name object at 0x7fe3a0d5af80&#45;&gt;ast.Store object at 0x7fe3a55ee050</title>
<path fill="none" stroke="black" d="M512.56,-431.7C510.33,-423.9 507.65,-414.51 505.17,-405.83"/>
<polygon fill="black" stroke="black" points="508.5,-404.76 502.39,-396.1 501.77,-406.68 508.5,-404.76"/>
</g>
<!-- ast.Load object at 0x7fe3a55edff0 -->
<g id="node9" class="node">
<title>ast.Load object at 0x7fe3a55edff0</title>
<path fill="#66cdaa" stroke="black" d="M418.5,-36C418.5,-36 388.5,-36 388.5,-36 382.5,-36 376.5,-30 376.5,-24 376.5,-24 376.5,-12 376.5,-12 376.5,-6 382.5,0 388.5,0 388.5,0 418.5,0 418.5,0 424.5,0 430.5,-6 430.5,-12 430.5,-12 430.5,-24 430.5,-24 430.5,-30 424.5,-36 418.5,-36"/>
<text text-anchor="middle" x="403.5" y="-14.3" font-family="Times,serif" font-size="14.00">Load</text>
</g>
<!-- ast.List object at 0x7fe3a0d5a8f0&#45;&gt;ast.Load object at 0x7fe3a55edff0 -->
<g id="edge8" class="edge">
<title>ast.List object at 0x7fe3a0d5a8f0&#45;&gt;ast.Load object at 0x7fe3a55edff0</title>
<path fill="none" stroke="black" d="M579.38,-359.83C589.32,-333.44 606.5,-281.14 606.5,-235 606.5,-235 606.5,-235 606.5,-161 606.5,-120.55 615.08,-101.59 587.5,-72 549.57,-31.31 482.62,-21.17 440.79,-19.03"/>
<polygon fill="black" stroke="black" points="440.85,-15.53 430.73,-18.64 440.58,-22.52 440.85,-15.53"/>
</g>
<!-- ast.Name object at 0x7fe3a0d5b610 -->
<g id="node11" class="node">
<title>ast.Name object at 0x7fe3a0d5b610</title>
<path fill="#66cdaa" stroke="black" d="M460.5,-468C460.5,-468 430.5,-468 430.5,-468 424.5,-468 418.5,-462 418.5,-456 418.5,-456 418.5,-444 418.5,-444 418.5,-438 424.5,-432 430.5,-432 430.5,-432 460.5,-432 460.5,-432 466.5,-432 472.5,-438 472.5,-444 472.5,-444 472.5,-456 472.5,-456 472.5,-462 466.5,-468 460.5,-468"/>
<text text-anchor="middle" x="445.5" y="-446.3" font-family="Times,serif" font-size="14.00">Name</text>
</g>
<!-- ast.For object at 0x7fe3a0d5b8b0&#45;&gt;ast.Name object at 0x7fe3a0d5b610 -->
<g id="edge10" class="edge">
<title>ast.For object at 0x7fe3a0d5b8b0&#45;&gt;ast.Name object at 0x7fe3a0d5b610</title>
<path fill="none" stroke="black" d="M418.4,-503.7C422.5,-495.73 427.45,-486.1 431.99,-477.26"/>
<polygon fill="black" stroke="black" points="435.24,-478.6 436.7,-468.1 429.02,-475.4 435.24,-478.6"/>
</g>
<!-- ast.Subscript object at 0x7fe3a0d5b580 -->
<g id="node12" class="node">
<title>ast.Subscript object at 0x7fe3a0d5b580</title>
<path fill="#66cdaa" stroke="black" d="M179.5,-180C179.5,-180 135.5,-180 135.5,-180 129.5,-180 123.5,-174 123.5,-168 123.5,-168 123.5,-156 123.5,-156 123.5,-150 129.5,-144 135.5,-144 135.5,-144 179.5,-144 179.5,-144 185.5,-144 191.5,-150 191.5,-156 191.5,-156 191.5,-168 191.5,-168 191.5,-174 185.5,-180 179.5,-180"/>
<text text-anchor="middle" x="157.5" y="-158.3" font-family="Times,serif" font-size="14.00">Subscript</text>
</g>
<!-- ast.For object at 0x7fe3a0d5b8b0&#45;&gt;ast.Subscript object at 0x7fe3a0d5b580 -->
<g id="edge12" class="edge">
<title>ast.For object at 0x7fe3a0d5b8b0&#45;&gt;ast.Subscript object at 0x7fe3a0d5b580</title>
<path fill="none" stroke="black" d="M382.42,-514.29C330.16,-499.53 220.5,-459.03 220.5,-379 220.5,-379 220.5,-379 220.5,-305 220.5,-261.19 195.14,-215.81 176.6,-188.49"/>
<polygon fill="black" stroke="black" points="179.46,-186.47 170.86,-180.28 173.72,-190.48 179.46,-186.47"/>
</g>
<!-- ast.If object at 0x7fe3a1a54bb0 -->
<g id="node17" class="node">
<title>ast.If object at 0x7fe3a1a54bb0</title>
<path fill="#66cdaa" stroke="black" d="M388.5,-468C388.5,-468 358.5,-468 358.5,-468 352.5,-468 346.5,-462 346.5,-456 346.5,-456 346.5,-444 346.5,-444 346.5,-438 352.5,-432 358.5,-432 358.5,-432 388.5,-432 388.5,-432 394.5,-432 400.5,-438 400.5,-444 400.5,-444 400.5,-456 400.5,-456 400.5,-462 394.5,-468 388.5,-468"/>
<text text-anchor="middle" x="373.5" y="-446.3" font-family="Times,serif" font-size="14.00">If</text>
</g>
<!-- ast.For object at 0x7fe3a0d5b8b0&#45;&gt;ast.If object at 0x7fe3a1a54bb0 -->
<g id="edge19" class="edge">
<title>ast.For object at 0x7fe3a0d5b8b0&#45;&gt;ast.If object at 0x7fe3a1a54bb0</title>
<path fill="none" stroke="black" d="M400.6,-503.7C396.5,-495.73 391.55,-486.1 387.01,-477.26"/>
<polygon fill="black" stroke="black" points="389.98,-475.4 382.3,-468.1 383.76,-478.6 389.98,-475.4"/>
</g>
<!-- ast.Name object at 0x7fe3a0d5b610&#45;&gt;ast.Store object at 0x7fe3a55ee050 -->
<g id="edge11" class="edge">
<title>ast.Name object at 0x7fe3a0d5b610&#45;&gt;ast.Store object at 0x7fe3a55ee050</title>
<path fill="none" stroke="black" d="M458.35,-431.7C464.53,-423.39 472.04,-413.28 478.82,-404.14"/>
<polygon fill="black" stroke="black" points="481.64,-406.22 484.79,-396.1 476.02,-402.04 481.64,-406.22"/>
</g>
<!-- ast.Subscript object at 0x7fe3a0d5b580&#45;&gt;ast.Load object at 0x7fe3a55edff0 -->
<g id="edge18" class="edge">
<title>ast.Subscript object at 0x7fe3a0d5b580&#45;&gt;ast.Load object at 0x7fe3a55edff0</title>
<path fill="none" stroke="black" d="M170.09,-143.86C185.55,-123.96 213.55,-91.37 244.5,-72 282.61,-48.15 332.64,-33.78 366.32,-26.14"/>
<polygon fill="black" stroke="black" points="367.19,-29.53 376.21,-23.98 365.7,-22.69 367.19,-29.53"/>
</g>
<!-- ast.Name object at 0x7fe3a0d5b370 -->
<g id="node13" class="node">
<title>ast.Name object at 0x7fe3a0d5b370</title>
<path fill="#66cdaa" stroke="black" d="M160.5,-108C160.5,-108 130.5,-108 130.5,-108 124.5,-108 118.5,-102 118.5,-96 118.5,-96 118.5,-84 118.5,-84 118.5,-78 124.5,-72 130.5,-72 130.5,-72 160.5,-72 160.5,-72 166.5,-72 172.5,-78 172.5,-84 172.5,-84 172.5,-96 172.5,-96 172.5,-102 166.5,-108 160.5,-108"/>
<text text-anchor="middle" x="145.5" y="-86.3" font-family="Times,serif" font-size="14.00">Name</text>
</g>
<!-- ast.Subscript object at 0x7fe3a0d5b580&#45;&gt;ast.Name object at 0x7fe3a0d5b370 -->
<g id="edge13" class="edge">
<title>ast.Subscript object at 0x7fe3a0d5b580&#45;&gt;ast.Name object at 0x7fe3a0d5b370</title>
<path fill="none" stroke="black" d="M154.53,-143.7C153.21,-135.98 151.62,-126.71 150.15,-118.11"/>
<polygon fill="black" stroke="black" points="153.57,-117.37 148.43,-108.1 146.67,-118.55 153.57,-117.37"/>
</g>
<!-- ast.Slice object at 0x7fe3a0d5ada0 -->
<g id="node14" class="node">
<title>ast.Slice object at 0x7fe3a0d5ada0</title>
<path fill="#66cdaa" stroke="black" d="M88.5,-108C88.5,-108 58.5,-108 58.5,-108 52.5,-108 46.5,-102 46.5,-96 46.5,-96 46.5,-84 46.5,-84 46.5,-78 52.5,-72 58.5,-72 58.5,-72 88.5,-72 88.5,-72 94.5,-72 100.5,-78 100.5,-84 100.5,-84 100.5,-96 100.5,-96 100.5,-102 94.5,-108 88.5,-108"/>
<text text-anchor="middle" x="73.5" y="-86.3" font-family="Times,serif" font-size="14.00">Slice</text>
</g>
<!-- ast.Subscript object at 0x7fe3a0d5b580&#45;&gt;ast.Slice object at 0x7fe3a0d5ada0 -->
<g id="edge15" class="edge">
<title>ast.Subscript object at 0x7fe3a0d5b580&#45;&gt;ast.Slice object at 0x7fe3a0d5ada0</title>
<path fill="none" stroke="black" d="M136.74,-143.7C126.26,-134.97 113.39,-124.24 102,-114.75"/>
<polygon fill="black" stroke="black" points="103.95,-111.82 94.03,-108.1 99.47,-117.19 103.95,-111.82"/>
</g>
<!-- ast.Name object at 0x7fe3a0d5b370&#45;&gt;ast.Load object at 0x7fe3a55edff0 -->
<g id="edge14" class="edge">
<title>ast.Name object at 0x7fe3a0d5b370&#45;&gt;ast.Load object at 0x7fe3a55edff0</title>
<path fill="none" stroke="black" d="M172.63,-77.07C177.21,-75.25 181.96,-73.49 186.5,-72 248.6,-51.67 322.96,-35.15 366.54,-26.22"/>
<polygon fill="black" stroke="black" points="367.3,-29.64 376.4,-24.22 365.91,-22.78 367.3,-29.64"/>
</g>
<!-- ast.Constant object at 0x7fe3a1dda410 -->
<g id="node15" class="node">
<title>ast.Constant object at 0x7fe3a1dda410</title>
<path fill="#66cdaa" stroke="black" d="M53,-36C53,-36 12,-36 12,-36 6,-36 0,-30 0,-24 0,-24 0,-12 0,-12 0,-6 6,0 12,0 12,0 53,0 53,0 59,0 65,-6 65,-12 65,-12 65,-24 65,-24 65,-30 59,-36 53,-36"/>
<text text-anchor="middle" x="32.5" y="-14.3" font-family="Times,serif" font-size="14.00">Constant</text>
</g>
<!-- ast.Slice object at 0x7fe3a0d5ada0&#45;&gt;ast.Constant object at 0x7fe3a1dda410 -->
<g id="edge16" class="edge">
<title>ast.Slice object at 0x7fe3a0d5ada0&#45;&gt;ast.Constant object at 0x7fe3a1dda410</title>
<path fill="none" stroke="black" d="M63.37,-71.7C58.65,-63.64 52.94,-53.89 47.72,-44.98"/>
<polygon fill="black" stroke="black" points="50.59,-42.96 42.52,-36.1 44.55,-46.5 50.59,-42.96"/>
</g>
<!-- ast.Constant object at 0x7fe3a1a54df0 -->
<g id="node16" class="node">
<title>ast.Constant object at 0x7fe3a1a54df0</title>
<path fill="#66cdaa" stroke="black" d="M136,-36C136,-36 95,-36 95,-36 89,-36 83,-30 83,-24 83,-24 83,-12 83,-12 83,-6 89,0 95,0 95,0 136,0 136,0 142,0 148,-6 148,-12 148,-12 148,-24 148,-24 148,-30 142,-36 136,-36"/>
<text text-anchor="middle" x="115.5" y="-14.3" font-family="Times,serif" font-size="14.00">Constant</text>
</g>
<!-- ast.Slice object at 0x7fe3a0d5ada0&#45;&gt;ast.Constant object at 0x7fe3a1a54df0 -->
<g id="edge17" class="edge">
<title>ast.Slice object at 0x7fe3a0d5ada0&#45;&gt;ast.Constant object at 0x7fe3a1a54df0</title>
<path fill="none" stroke="black" d="M83.88,-71.7C88.76,-63.56 94.69,-53.69 100.08,-44.7"/>
<polygon fill="black" stroke="black" points="103.09,-46.48 105.24,-36.1 97.09,-42.88 103.09,-46.48"/>
</g>
<!-- ast.BoolOp object at 0x7fe3a1a55f90 -->
<g id="node18" class="node">
<title>ast.BoolOp object at 0x7fe3a1a55f90</title>
<path fill="#66cdaa" stroke="black" d="M391,-396C391,-396 356,-396 356,-396 350,-396 344,-390 344,-384 344,-384 344,-372 344,-372 344,-366 350,-360 356,-360 356,-360 391,-360 391,-360 397,-360 403,-366 403,-372 403,-372 403,-384 403,-384 403,-390 397,-396 391,-396"/>
<text text-anchor="middle" x="373.5" y="-374.3" font-family="Times,serif" font-size="14.00">BoolOp</text>
</g>
<!-- ast.If object at 0x7fe3a1a54bb0&#45;&gt;ast.BoolOp object at 0x7fe3a1a55f90 -->
<g id="edge20" class="edge">
<title>ast.If object at 0x7fe3a1a54bb0&#45;&gt;ast.BoolOp object at 0x7fe3a1a55f90</title>
<path fill="none" stroke="black" d="M373.5,-431.7C373.5,-423.98 373.5,-414.71 373.5,-406.11"/>
<polygon fill="black" stroke="black" points="377,-406.1 373.5,-396.1 370,-406.1 377,-406.1"/>
</g>
<!-- ast.Expr object at 0x7fe3a12b97b0 -->
<g id="node29" class="node">
<title>ast.Expr object at 0x7fe3a12b97b0</title>
<path fill="#66cdaa" stroke="black" d="M546.5,-324C546.5,-324 516.5,-324 516.5,-324 510.5,-324 504.5,-318 504.5,-312 504.5,-312 504.5,-300 504.5,-300 504.5,-294 510.5,-288 516.5,-288 516.5,-288 546.5,-288 546.5,-288 552.5,-288 558.5,-294 558.5,-300 558.5,-300 558.5,-312 558.5,-312 558.5,-318 552.5,-324 546.5,-324"/>
<text text-anchor="middle" x="531.5" y="-302.3" font-family="Times,serif" font-size="14.00">Expr</text>
</g>
<!-- ast.If object at 0x7fe3a1a54bb0&#45;&gt;ast.Expr object at 0x7fe3a12b97b0 -->
<g id="edge35" class="edge">
<title>ast.If object at 0x7fe3a1a54bb0&#45;&gt;ast.Expr object at 0x7fe3a12b97b0</title>
<path fill="none" stroke="black" d="M389.04,-431.88C406.12,-413.41 434.7,-383.49 461.5,-360 473.33,-349.63 487,-339.01 499.1,-330.03"/>
<polygon fill="black" stroke="black" points="501.19,-332.83 507.18,-324.09 497.05,-327.19 501.19,-332.83"/>
</g>
<!-- ast.And object at 0x7fe3a55ee140 -->
<g id="node19" class="node">
<title>ast.And object at 0x7fe3a55ee140</title>
<path fill="#66cdaa" stroke="black" d="M467.5,-324C467.5,-324 437.5,-324 437.5,-324 431.5,-324 425.5,-318 425.5,-312 425.5,-312 425.5,-300 425.5,-300 425.5,-294 431.5,-288 437.5,-288 437.5,-288 467.5,-288 467.5,-288 473.5,-288 479.5,-294 479.5,-300 479.5,-300 479.5,-312 479.5,-312 479.5,-318 473.5,-324 467.5,-324"/>
<text text-anchor="middle" x="452.5" y="-302.3" font-family="Times,serif" font-size="14.00">And</text>
</g>
<!-- ast.BoolOp object at 0x7fe3a1a55f90&#45;&gt;ast.And object at 0x7fe3a55ee140 -->
<g id="edge21" class="edge">
<title>ast.BoolOp object at 0x7fe3a1a55f90&#45;&gt;ast.And object at 0x7fe3a55ee140</title>
<path fill="none" stroke="black" d="M393.03,-359.7C402.88,-350.97 414.99,-340.24 425.7,-330.75"/>
<polygon fill="black" stroke="black" points="428.03,-333.36 433.2,-324.1 423.39,-328.12 428.03,-333.36"/>
</g>
<!-- ast.Call object at 0x7fe3a1a551e0 -->
<g id="node20" class="node">
<title>ast.Call object at 0x7fe3a1a551e0</title>
<path fill="#66cdaa" stroke="black" d="M302.5,-324C302.5,-324 272.5,-324 272.5,-324 266.5,-324 260.5,-318 260.5,-312 260.5,-312 260.5,-300 260.5,-300 260.5,-294 266.5,-288 272.5,-288 272.5,-288 302.5,-288 302.5,-288 308.5,-288 314.5,-294 314.5,-300 314.5,-300 314.5,-312 314.5,-312 314.5,-318 308.5,-324 302.5,-324"/>
<text text-anchor="middle" x="287.5" y="-302.3" font-family="Times,serif" font-size="14.00">Call</text>
</g>
<!-- ast.BoolOp object at 0x7fe3a1a55f90&#45;&gt;ast.Call object at 0x7fe3a1a551e0 -->
<g id="edge22" class="edge">
<title>ast.BoolOp object at 0x7fe3a1a55f90&#45;&gt;ast.Call object at 0x7fe3a1a551e0</title>
<path fill="none" stroke="black" d="M352.24,-359.7C341.41,-350.88 328.08,-340.03 316.34,-330.47"/>
<polygon fill="black" stroke="black" points="318.48,-327.7 308.51,-324.1 314.06,-333.13 318.48,-327.7"/>
</g>
<!-- ast.Compare object at 0x7fe3a1b95cf0 -->
<g id="node23" class="node">
<title>ast.Compare object at 0x7fe3a1b95cf0</title>
<path fill="#66cdaa" stroke="black" d="M395,-324C395,-324 352,-324 352,-324 346,-324 340,-318 340,-312 340,-312 340,-300 340,-300 340,-294 346,-288 352,-288 352,-288 395,-288 395,-288 401,-288 407,-294 407,-300 407,-300 407,-312 407,-312 407,-318 401,-324 395,-324"/>
<text text-anchor="middle" x="373.5" y="-302.3" font-family="Times,serif" font-size="14.00">Compare</text>
</g>
<!-- ast.BoolOp object at 0x7fe3a1a55f90&#45;&gt;ast.Compare object at 0x7fe3a1b95cf0 -->
<g id="edge27" class="edge">
<title>ast.BoolOp object at 0x7fe3a1a55f90&#45;&gt;ast.Compare object at 0x7fe3a1b95cf0</title>
<path fill="none" stroke="black" d="M373.5,-359.7C373.5,-351.98 373.5,-342.71 373.5,-334.11"/>
<polygon fill="black" stroke="black" points="377,-334.1 373.5,-324.1 370,-334.1 377,-334.1"/>
</g>
<!-- ast.Attribute object at 0x7fe3a1488310 -->
<g id="node21" class="node">
<title>ast.Attribute object at 0x7fe3a1488310</title>
<path fill="#66cdaa" stroke="black" d="M279,-180C279,-180 238,-180 238,-180 232,-180 226,-174 226,-168 226,-168 226,-156 226,-156 226,-150 232,-144 238,-144 238,-144 279,-144 279,-144 285,-144 291,-150 291,-156 291,-156 291,-168 291,-168 291,-174 285,-180 279,-180"/>
<text text-anchor="middle" x="258.5" y="-158.3" font-family="Times,serif" font-size="14.00">Attribute</text>
</g>
<!-- ast.Call object at 0x7fe3a1a551e0&#45;&gt;ast.Attribute object at 0x7fe3a1488310 -->
<g id="edge23" class="edge">
<title>ast.Call object at 0x7fe3a1a551e0&#45;&gt;ast.Attribute object at 0x7fe3a1488310</title>
<path fill="none" stroke="black" d="M284,-287.87C279.04,-263.56 269.9,-218.82 264.02,-190.01"/>
<polygon fill="black" stroke="black" points="267.44,-189.29 262.01,-180.19 260.58,-190.69 267.44,-189.29"/>
</g>
<!-- ast.Attribute object at 0x7fe3a1488310&#45;&gt;ast.Load object at 0x7fe3a55edff0 -->
<g id="edge26" class="edge">
<title>ast.Attribute object at 0x7fe3a1488310&#45;&gt;ast.Load object at 0x7fe3a55edff0</title>
<path fill="none" stroke="black" d="M252.85,-143.87C247.63,-124.57 242.69,-93.13 257.5,-72 281.9,-37.18 331.64,-25.15 366.24,-21.04"/>
<polygon fill="black" stroke="black" points="366.85,-24.5 376.45,-20 366.14,-17.53 366.85,-24.5"/>
</g>
<!-- ast.Name object at 0x7fe3a1b97700 -->
<g id="node22" class="node">
<title>ast.Name object at 0x7fe3a1b97700</title>
<path fill="#66cdaa" stroke="black" d="M308.5,-108C308.5,-108 278.5,-108 278.5,-108 272.5,-108 266.5,-102 266.5,-96 266.5,-96 266.5,-84 266.5,-84 266.5,-78 272.5,-72 278.5,-72 278.5,-72 308.5,-72 308.5,-72 314.5,-72 320.5,-78 320.5,-84 320.5,-84 320.5,-96 320.5,-96 320.5,-102 314.5,-108 308.5,-108"/>
<text text-anchor="middle" x="293.5" y="-86.3" font-family="Times,serif" font-size="14.00">Name</text>
</g>
<!-- ast.Attribute object at 0x7fe3a1488310&#45;&gt;ast.Name object at 0x7fe3a1b97700 -->
<g id="edge24" class="edge">
<title>ast.Attribute object at 0x7fe3a1488310&#45;&gt;ast.Name object at 0x7fe3a1b97700</title>
<path fill="none" stroke="black" d="M267.15,-143.7C271.14,-135.73 275.95,-126.1 280.37,-117.26"/>
<polygon fill="black" stroke="black" points="283.61,-118.61 284.95,-108.1 277.35,-115.48 283.61,-118.61"/>
</g>
<!-- ast.Name object at 0x7fe3a1b97700&#45;&gt;ast.Load object at 0x7fe3a55edff0 -->
<g id="edge25" class="edge">
<title>ast.Name object at 0x7fe3a1b97700&#45;&gt;ast.Load object at 0x7fe3a55edff0</title>
<path fill="none" stroke="black" d="M320.41,-71.88C334.66,-62.81 352.35,-51.55 367.74,-41.76"/>
<polygon fill="black" stroke="black" points="369.93,-44.51 376.49,-36.19 366.17,-38.61 369.93,-44.51"/>
</g>
<!-- ast.Call object at 0x7fe3a1b97f40 -->
<g id="node24" class="node">
<title>ast.Call object at 0x7fe3a1b97f40</title>
<path fill="#66cdaa" stroke="black" d="M328.5,-252C328.5,-252 298.5,-252 298.5,-252 292.5,-252 286.5,-246 286.5,-240 286.5,-240 286.5,-228 286.5,-228 286.5,-222 292.5,-216 298.5,-216 298.5,-216 328.5,-216 328.5,-216 334.5,-216 340.5,-222 340.5,-228 340.5,-228 340.5,-240 340.5,-240 340.5,-246 334.5,-252 328.5,-252"/>
<text text-anchor="middle" x="313.5" y="-230.3" font-family="Times,serif" font-size="14.00">Call</text>
</g>
<!-- ast.Compare object at 0x7fe3a1b95cf0&#45;&gt;ast.Call object at 0x7fe3a1b97f40 -->
<g id="edge28" class="edge">
<title>ast.Compare object at 0x7fe3a1b95cf0&#45;&gt;ast.Call object at 0x7fe3a1b97f40</title>
<path fill="none" stroke="black" d="M358.67,-287.7C351.48,-279.3 342.7,-269.07 334.81,-259.86"/>
<polygon fill="black" stroke="black" points="337.33,-257.42 328.16,-252.1 332.01,-261.97 337.33,-257.42"/>
</g>
<!-- ast.In object at 0x7fe3a55eec20 -->
<g id="node27" class="node">
<title>ast.In object at 0x7fe3a55eec20</title>
<path fill="#66cdaa" stroke="black" d="M484.5,-252C484.5,-252 454.5,-252 454.5,-252 448.5,-252 442.5,-246 442.5,-240 442.5,-240 442.5,-228 442.5,-228 442.5,-222 448.5,-216 454.5,-216 454.5,-216 484.5,-216 484.5,-216 490.5,-216 496.5,-222 496.5,-228 496.5,-228 496.5,-240 496.5,-240 496.5,-246 490.5,-252 484.5,-252"/>
<text text-anchor="middle" x="469.5" y="-230.3" font-family="Times,serif" font-size="14.00">In</text>
</g>
<!-- ast.Compare object at 0x7fe3a1b95cf0&#45;&gt;ast.In object at 0x7fe3a55eec20 -->
<g id="edge33" class="edge">
<title>ast.Compare object at 0x7fe3a1b95cf0&#45;&gt;ast.In object at 0x7fe3a55eec20</title>
<path fill="none" stroke="black" d="M397.23,-287.7C409.44,-278.8 424.49,-267.82 437.68,-258.2"/>
<polygon fill="black" stroke="black" points="440.02,-260.82 446.04,-252.1 435.9,-255.17 440.02,-260.82"/>
</g>
<!-- ast.Constant object at 0x7fe3a12b82e0 -->
<g id="node28" class="node">
<title>ast.Constant object at 0x7fe3a12b82e0</title>
<path fill="#66cdaa" stroke="black" d="M412,-252C412,-252 371,-252 371,-252 365,-252 359,-246 359,-240 359,-240 359,-228 359,-228 359,-222 365,-216 371,-216 371,-216 412,-216 412,-216 418,-216 424,-222 424,-228 424,-228 424,-240 424,-240 424,-246 418,-252 412,-252"/>
<text text-anchor="middle" x="391.5" y="-230.3" font-family="Times,serif" font-size="14.00">Constant</text>
</g>
<!-- ast.Compare object at 0x7fe3a1b95cf0&#45;&gt;ast.Constant object at 0x7fe3a12b82e0 -->
<g id="edge34" class="edge">
<title>ast.Compare object at 0x7fe3a1b95cf0&#45;&gt;ast.Constant object at 0x7fe3a12b82e0</title>
<path fill="none" stroke="black" d="M377.95,-287.7C379.95,-279.9 382.37,-270.51 384.6,-261.83"/>
<polygon fill="black" stroke="black" points="388,-262.66 387.1,-252.1 381.22,-260.92 388,-262.66"/>
</g>
<!-- ast.Attribute object at 0x7fe3a1b94c70 -->
<g id="node25" class="node">
<title>ast.Attribute object at 0x7fe3a1b94c70</title>
<path fill="#66cdaa" stroke="black" d="M369,-180C369,-180 328,-180 328,-180 322,-180 316,-174 316,-168 316,-168 316,-156 316,-156 316,-150 322,-144 328,-144 328,-144 369,-144 369,-144 375,-144 381,-150 381,-156 381,-156 381,-168 381,-168 381,-174 375,-180 369,-180"/>
<text text-anchor="middle" x="348.5" y="-158.3" font-family="Times,serif" font-size="14.00">Attribute</text>
</g>
<!-- ast.Call object at 0x7fe3a1b97f40&#45;&gt;ast.Attribute object at 0x7fe3a1b94c70 -->
<g id="edge29" class="edge">
<title>ast.Call object at 0x7fe3a1b97f40&#45;&gt;ast.Attribute object at 0x7fe3a1b94c70</title>
<path fill="none" stroke="black" d="M322.15,-215.7C326.14,-207.73 330.95,-198.1 335.37,-189.26"/>
<polygon fill="black" stroke="black" points="338.61,-190.61 339.95,-180.1 332.35,-187.48 338.61,-190.61"/>
</g>
<!-- ast.Attribute object at 0x7fe3a1b94c70&#45;&gt;ast.Load object at 0x7fe3a55edff0 -->
<g id="edge32" class="edge">
<title>ast.Attribute object at 0x7fe3a1b94c70&#45;&gt;ast.Load object at 0x7fe3a55edff0</title>
<path fill="none" stroke="black" d="M350.2,-143.67C352.45,-125.29 357.39,-95.69 367.5,-72 371.58,-62.43 377.49,-52.78 383.34,-44.39"/>
<polygon fill="black" stroke="black" points="386.28,-46.29 389.34,-36.15 380.62,-42.17 386.28,-46.29"/>
</g>
<!-- ast.Name object at 0x7fe3a1b95ba0 -->
<g id="node26" class="node">
<title>ast.Name object at 0x7fe3a1b95ba0</title>
<path fill="#66cdaa" stroke="black" d="M418.5,-108C418.5,-108 388.5,-108 388.5,-108 382.5,-108 376.5,-102 376.5,-96 376.5,-96 376.5,-84 376.5,-84 376.5,-78 382.5,-72 388.5,-72 388.5,-72 418.5,-72 418.5,-72 424.5,-72 430.5,-78 430.5,-84 430.5,-84 430.5,-96 430.5,-96 430.5,-102 424.5,-108 418.5,-108"/>
<text text-anchor="middle" x="403.5" y="-86.3" font-family="Times,serif" font-size="14.00">Name</text>
</g>
<!-- ast.Attribute object at 0x7fe3a1b94c70&#45;&gt;ast.Name object at 0x7fe3a1b95ba0 -->
<g id="edge30" class="edge">
<title>ast.Attribute object at 0x7fe3a1b94c70&#45;&gt;ast.Name object at 0x7fe3a1b95ba0</title>
<path fill="none" stroke="black" d="M362.1,-143.7C368.62,-135.39 376.57,-125.28 383.75,-116.14"/>
<polygon fill="black" stroke="black" points="386.63,-118.13 390.06,-108.1 381.13,-113.81 386.63,-118.13"/>
</g>
<!-- ast.Name object at 0x7fe3a1b95ba0&#45;&gt;ast.Load object at 0x7fe3a55edff0 -->
<g id="edge31" class="edge">
<title>ast.Name object at 0x7fe3a1b95ba0&#45;&gt;ast.Load object at 0x7fe3a55edff0</title>
<path fill="none" stroke="black" d="M403.5,-71.7C403.5,-63.98 403.5,-54.71 403.5,-46.11"/>
<polygon fill="black" stroke="black" points="407,-46.1 403.5,-36.1 400,-46.1 407,-46.1"/>
</g>
<!-- ast.Call object at 0x7fe3a0d157e0 -->
<g id="node30" class="node">
<title>ast.Call object at 0x7fe3a0d157e0</title>
<path fill="#66cdaa" stroke="black" d="M556.5,-252C556.5,-252 526.5,-252 526.5,-252 520.5,-252 514.5,-246 514.5,-240 514.5,-240 514.5,-228 514.5,-228 514.5,-222 520.5,-216 526.5,-216 526.5,-216 556.5,-216 556.5,-216 562.5,-216 568.5,-222 568.5,-228 568.5,-228 568.5,-240 568.5,-240 568.5,-246 562.5,-252 556.5,-252"/>
<text text-anchor="middle" x="541.5" y="-230.3" font-family="Times,serif" font-size="14.00">Call</text>
</g>
<!-- ast.Expr object at 0x7fe3a12b97b0&#45;&gt;ast.Call object at 0x7fe3a0d157e0 -->
<g id="edge36" class="edge">
<title>ast.Expr object at 0x7fe3a12b97b0&#45;&gt;ast.Call object at 0x7fe3a0d157e0</title>
<path fill="none" stroke="black" d="M533.97,-287.7C535.07,-279.98 536.4,-270.71 537.63,-262.11"/>
<polygon fill="black" stroke="black" points="541.11,-262.5 539.06,-252.1 534.18,-261.51 541.11,-262.5"/>
</g>
<!-- ast.Attribute object at 0x7fe3a0d167d0 -->
<g id="node31" class="node">
<title>ast.Attribute object at 0x7fe3a0d167d0</title>
<path fill="#66cdaa" stroke="black" d="M562,-180C562,-180 521,-180 521,-180 515,-180 509,-174 509,-168 509,-168 509,-156 509,-156 509,-150 515,-144 521,-144 521,-144 562,-144 562,-144 568,-144 574,-150 574,-156 574,-156 574,-168 574,-168 574,-174 568,-180 562,-180"/>
<text text-anchor="middle" x="541.5" y="-158.3" font-family="Times,serif" font-size="14.00">Attribute</text>
</g>
<!-- ast.Call object at 0x7fe3a0d157e0&#45;&gt;ast.Attribute object at 0x7fe3a0d167d0 -->
<g id="edge37" class="edge">
<title>ast.Call object at 0x7fe3a0d157e0&#45;&gt;ast.Attribute object at 0x7fe3a0d167d0</title>
<path fill="none" stroke="black" d="M541.5,-215.7C541.5,-207.98 541.5,-198.71 541.5,-190.11"/>
<polygon fill="black" stroke="black" points="545,-190.1 541.5,-180.1 538,-190.1 545,-190.1"/>
</g>
<!-- ast.Name object at 0x7fe3a0d164d0 -->
<g id="node33" class="node">
<title>ast.Name object at 0x7fe3a0d164d0</title>
<path fill="#66cdaa" stroke="black" d="M475.5,-180C475.5,-180 445.5,-180 445.5,-180 439.5,-180 433.5,-174 433.5,-168 433.5,-168 433.5,-156 433.5,-156 433.5,-150 439.5,-144 445.5,-144 445.5,-144 475.5,-144 475.5,-144 481.5,-144 487.5,-150 487.5,-156 487.5,-156 487.5,-168 487.5,-168 487.5,-174 481.5,-180 475.5,-180"/>
<text text-anchor="middle" x="460.5" y="-158.3" font-family="Times,serif" font-size="14.00">Name</text>
</g>
<!-- ast.Call object at 0x7fe3a0d157e0&#45;&gt;ast.Name object at 0x7fe3a0d164d0 -->
<g id="edge41" class="edge">
<title>ast.Call object at 0x7fe3a0d157e0&#45;&gt;ast.Name object at 0x7fe3a0d164d0</title>
<path fill="none" stroke="black" d="M521.48,-215.7C511.37,-206.97 498.96,-196.24 487.98,-186.75"/>
<polygon fill="black" stroke="black" points="490.15,-183.99 480.29,-180.1 485.57,-189.29 490.15,-183.99"/>
</g>
<!-- ast.Attribute object at 0x7fe3a0d167d0&#45;&gt;ast.Load object at 0x7fe3a55edff0 -->
<g id="edge40" class="edge">
<title>ast.Attribute object at 0x7fe3a0d167d0&#45;&gt;ast.Load object at 0x7fe3a55edff0</title>
<path fill="none" stroke="black" d="M525.86,-143.68C509.37,-125.56 482.5,-96.4 458.5,-72 449.2,-62.55 438.77,-52.39 429.52,-43.53"/>
<polygon fill="black" stroke="black" points="431.73,-40.79 422.07,-36.43 426.89,-45.86 431.73,-40.79"/>
</g>
<!-- ast.Name object at 0x7fe3a0d15090 -->
<g id="node32" class="node">
<title>ast.Name object at 0x7fe3a0d15090</title>
<path fill="#66cdaa" stroke="black" d="M566.5,-108C566.5,-108 536.5,-108 536.5,-108 530.5,-108 524.5,-102 524.5,-96 524.5,-96 524.5,-84 524.5,-84 524.5,-78 530.5,-72 536.5,-72 536.5,-72 566.5,-72 566.5,-72 572.5,-72 578.5,-78 578.5,-84 578.5,-84 578.5,-96 578.5,-96 578.5,-102 572.5,-108 566.5,-108"/>
<text text-anchor="middle" x="551.5" y="-86.3" font-family="Times,serif" font-size="14.00">Name</text>
</g>
<!-- ast.Attribute object at 0x7fe3a0d167d0&#45;&gt;ast.Name object at 0x7fe3a0d15090 -->
<g id="edge38" class="edge">
<title>ast.Attribute object at 0x7fe3a0d167d0&#45;&gt;ast.Name object at 0x7fe3a0d15090</title>
<path fill="none" stroke="black" d="M543.97,-143.7C545.07,-135.98 546.4,-126.71 547.63,-118.11"/>
<polygon fill="black" stroke="black" points="551.11,-118.5 549.06,-108.1 544.18,-117.51 551.11,-118.5"/>
</g>
<!-- ast.Name object at 0x7fe3a0d15090&#45;&gt;ast.Load object at 0x7fe3a55edff0 -->
<g id="edge39" class="edge">
<title>ast.Name object at 0x7fe3a0d15090&#45;&gt;ast.Load object at 0x7fe3a55edff0</title>
<path fill="none" stroke="black" d="M524.35,-76.16C500.65,-64.95 466.04,-48.58 439.92,-36.23"/>
<polygon fill="black" stroke="black" points="441.26,-32.99 430.72,-31.88 438.27,-39.32 441.26,-32.99"/>
</g>
<!-- ast.Name object at 0x7fe3a0d164d0&#45;&gt;ast.Load object at 0x7fe3a55edff0 -->
<g id="edge42" class="edge">
<title>ast.Name object at 0x7fe3a0d164d0&#45;&gt;ast.Load object at 0x7fe3a55edff0</title>
<path fill="none" stroke="black" d="M458.32,-143.68C455.58,-125.29 449.91,-95.69 439.5,-72 435.31,-62.48 429.38,-52.84 423.54,-44.44"/>
<polygon fill="black" stroke="black" points="426.26,-42.24 417.56,-36.2 420.6,-46.35 426.26,-42.24"/>
</g>
<!-- ast.Name object at 0x7fe3a0d15180 -->
<g id="node35" class="node">
<title>ast.Name object at 0x7fe3a0d15180</title>
<path fill="#66cdaa" stroke="black" d="M659.5,-396C659.5,-396 629.5,-396 629.5,-396 623.5,-396 617.5,-390 617.5,-384 617.5,-384 617.5,-372 617.5,-372 617.5,-366 623.5,-360 629.5,-360 629.5,-360 659.5,-360 659.5,-360 665.5,-360 671.5,-366 671.5,-372 671.5,-372 671.5,-384 671.5,-384 671.5,-390 665.5,-396 659.5,-396"/>
<text text-anchor="middle" x="644.5" y="-374.3" font-family="Times,serif" font-size="14.00">Name</text>
</g>
<!-- ast.Return object at 0x7fe3a0d15240&#45;&gt;ast.Name object at 0x7fe3a0d15180 -->
<g id="edge44" class="edge">
<title>ast.Return object at 0x7fe3a0d15240&#45;&gt;ast.Name object at 0x7fe3a0d15180</title>
<path fill="none" stroke="black" d="M619.88,-503.87C624.67,-479.56 633.49,-434.82 639.17,-406.01"/>
<polygon fill="black" stroke="black" points="642.61,-406.68 641.11,-396.19 635.74,-405.32 642.61,-406.68"/>
</g>
<!-- ast.Name object at 0x7fe3a0d15180&#45;&gt;ast.Load object at 0x7fe3a55edff0 -->
<g id="edge45" class="edge">
<title>ast.Name object at 0x7fe3a0d15180&#45;&gt;ast.Load object at 0x7fe3a55edff0</title>
<path fill="none" stroke="black" d="M644.5,-359.95C644.5,-333.29 644.5,-280.11 644.5,-235 644.5,-235 644.5,-235 644.5,-161 644.5,-118.66 642.1,-100.18 610.5,-72 562.98,-29.62 486.14,-20.25 440.65,-18.67"/>
<polygon fill="black" stroke="black" points="440.7,-15.17 430.62,-18.43 440.53,-22.17 440.7,-15.17"/>
</g>
</g>
</svg>
