<?xml version="1.0" encoding="UTF-8" standalone="no"?>
<!DOCTYPE svg PUBLIC "-//W3C//DTD SVG 1.1//EN"
 "http://www.w3.org/Graphics/SVG/1.1/DTD/svg11.dtd">
<!-- Generated by graphviz version 2.43.0 (0)
 -->
<!-- Title: %3 Pages: 1 -->
<svg width="1013pt" height="692pt"
 viewBox="0.00 0.00 1012.50 692.00" xmlns="http://www.w3.org/2000/svg" xmlns:xlink="http://www.w3.org/1999/xlink">
<g id="graph0" class="graph" transform="scale(1 1) rotate(0) translate(4 688)">
<title>%3</title>
<polygon fill="white" stroke="transparent" points="-4,4 -4,-688 1008.5,-688 1008.5,4 -4,4"/>
<!-- ast.Module object at 0x7f089a343cd0 -->
<g id="node1" class="node">
<title>ast.Module object at 0x7f089a343cd0</title>
<path fill="#66cdaa" stroke="black" d="M283.5,-684C283.5,-684 248.5,-684 248.5,-684 242.5,-684 236.5,-678 236.5,-672 236.5,-672 236.5,-660 236.5,-660 236.5,-654 242.5,-648 248.5,-648 248.5,-648 283.5,-648 283.5,-648 289.5,-648 295.5,-654 295.5,-660 295.5,-660 295.5,-672 295.5,-672 295.5,-678 289.5,-684 283.5,-684"/>
<text text-anchor="middle" x="266" y="-662.3" font-family="Times,serif" font-size="14.00">Module</text>
</g>
<!-- ast.FunctionDef object at 0x7f089a342d10 -->
<g id="node2" class="node">
<title>ast.FunctionDef object at 0x7f089a342d10</title>
<path fill="#66cdaa" stroke="black" d="M296.5,-612C296.5,-612 235.5,-612 235.5,-612 229.5,-612 223.5,-606 223.5,-600 223.5,-600 223.5,-588 223.5,-588 223.5,-582 229.5,-576 235.5,-576 235.5,-576 296.5,-576 296.5,-576 302.5,-576 308.5,-582 308.5,-588 308.5,-588 308.5,-600 308.5,-600 308.5,-606 302.5,-612 296.5,-612"/>
<text text-anchor="middle" x="266" y="-590.3" font-family="Times,serif" font-size="14.00">FunctionDef</text>
</g>
<!-- ast.Module object at 0x7f089a343cd0&#45;&gt;ast.FunctionDef object at 0x7f089a342d10 -->
<g id="edge1" class="edge">
<title>ast.Module object at 0x7f089a343cd0&#45;&gt;ast.FunctionDef object at 0x7f089a342d10</title>
<path fill="none" stroke="black" d="M266,-647.7C266,-639.98 266,-630.71 266,-622.11"/>
<polygon fill="black" stroke="black" points="269.5,-622.1 266,-612.1 262.5,-622.1 269.5,-622.1"/>
</g>
<!-- ast.arguments object at 0x7f089a3407c0 -->
<g id="node3" class="node">
<title>ast.arguments object at 0x7f089a3407c0</title>
<path fill="#66cdaa" stroke="black" d="M114,-540C114,-540 64,-540 64,-540 58,-540 52,-534 52,-528 52,-528 52,-516 52,-516 52,-510 58,-504 64,-504 64,-504 114,-504 114,-504 120,-504 126,-510 126,-516 126,-516 126,-528 126,-528 126,-534 120,-540 114,-540"/>
<text text-anchor="middle" x="89" y="-518.3" font-family="Times,serif" font-size="14.00">arguments</text>
</g>
<!-- ast.FunctionDef object at 0x7f089a342d10&#45;&gt;ast.arguments object at 0x7f089a3407c0 -->
<g id="edge2" class="edge">
<title>ast.FunctionDef object at 0x7f089a342d10&#45;&gt;ast.arguments object at 0x7f089a3407c0</title>
<path fill="none" stroke="black" d="M223.15,-576.05C196.73,-565.6 162.82,-552.2 135.71,-541.47"/>
<polygon fill="black" stroke="black" points="136.64,-538.08 126.06,-537.66 134.07,-544.59 136.64,-538.08"/>
</g>
<!-- ast.Assign object at 0x7f089a343640 -->
<g id="node5" class="node">
<title>ast.Assign object at 0x7f089a343640</title>
<path fill="#66cdaa" stroke="black" d="M214,-540C214,-540 184,-540 184,-540 178,-540 172,-534 172,-528 172,-528 172,-516 172,-516 172,-510 178,-504 184,-504 184,-504 214,-504 214,-504 220,-504 226,-510 226,-516 226,-516 226,-528 226,-528 226,-534 220,-540 214,-540"/>
<text text-anchor="middle" x="199" y="-518.3" font-family="Times,serif" font-size="14.00">Assign</text>
</g>
<!-- ast.FunctionDef object at 0x7f089a342d10&#45;&gt;ast.Assign object at 0x7f089a343640 -->
<g id="edge4" class="edge">
<title>ast.FunctionDef object at 0x7f089a342d10&#45;&gt;ast.Assign object at 0x7f089a343640</title>
<path fill="none" stroke="black" d="M249.44,-575.7C241.32,-567.22 231.41,-556.86 222.53,-547.58"/>
<polygon fill="black" stroke="black" points="224.81,-544.91 215.37,-540.1 219.76,-549.75 224.81,-544.91"/>
</g>
<!-- ast.For object at 0x7f089a341fc0 -->
<g id="node9" class="node">
<title>ast.For object at 0x7f089a341fc0</title>
<path fill="#66cdaa" stroke="black" d="M302,-540C302,-540 272,-540 272,-540 266,-540 260,-534 260,-528 260,-528 260,-516 260,-516 260,-510 266,-504 272,-504 272,-504 302,-504 302,-504 308,-504 314,-510 314,-516 314,-516 314,-528 314,-528 314,-534 308,-540 302,-540"/>
<text text-anchor="middle" x="287" y="-518.3" font-family="Times,serif" font-size="14.00">For</text>
</g>
<!-- ast.FunctionDef object at 0x7f089a342d10&#45;&gt;ast.For object at 0x7f089a341fc0 -->
<g id="edge8" class="edge">
<title>ast.FunctionDef object at 0x7f089a342d10&#45;&gt;ast.For object at 0x7f089a341fc0</title>
<path fill="none" stroke="black" d="M271.19,-575.7C273.53,-567.9 276.35,-558.51 278.95,-549.83"/>
<polygon fill="black" stroke="black" points="282.35,-550.69 281.87,-540.1 275.64,-548.68 282.35,-550.69"/>
</g>
<!-- ast.If object at 0x7f08d3bbffd0 -->
<g id="node35" class="node">
<title>ast.If object at 0x7f08d3bbffd0</title>
<path fill="#66cdaa" stroke="black" d="M818,-540C818,-540 788,-540 788,-540 782,-540 776,-534 776,-528 776,-528 776,-516 776,-516 776,-510 782,-504 788,-504 788,-504 818,-504 818,-504 824,-504 830,-510 830,-516 830,-516 830,-528 830,-528 830,-534 824,-540 818,-540"/>
<text text-anchor="middle" x="803" y="-518.3" font-family="Times,serif" font-size="14.00">If</text>
</g>
<!-- ast.FunctionDef object at 0x7f089a342d10&#45;&gt;ast.If object at 0x7f08d3bbffd0 -->
<g id="edge44" class="edge">
<title>ast.FunctionDef object at 0x7f089a342d10&#45;&gt;ast.If object at 0x7f08d3bbffd0</title>
<path fill="none" stroke="black" d="M308.59,-587.45C410.8,-574.12 668.72,-540.5 765.52,-527.89"/>
<polygon fill="black" stroke="black" points="766.25,-531.32 775.71,-526.56 765.34,-524.38 766.25,-531.32"/>
</g>
<!-- ast.arg object at 0x7f089a343c70 -->
<g id="node4" class="node">
<title>ast.arg object at 0x7f089a343c70</title>
<path fill="#66cdaa" stroke="black" d="M75,-468C75,-468 45,-468 45,-468 39,-468 33,-462 33,-456 33,-456 33,-444 33,-444 33,-438 39,-432 45,-432 45,-432 75,-432 75,-432 81,-432 87,-438 87,-444 87,-444 87,-456 87,-456 87,-462 81,-468 75,-468"/>
<text text-anchor="middle" x="60" y="-446.3" font-family="Times,serif" font-size="14.00">arg</text>
</g>
<!-- ast.arguments object at 0x7f089a3407c0&#45;&gt;ast.arg object at 0x7f089a343c70 -->
<g id="edge3" class="edge">
<title>ast.arguments object at 0x7f089a3407c0&#45;&gt;ast.arg object at 0x7f089a343c70</title>
<path fill="none" stroke="black" d="M81.83,-503.7C78.57,-495.81 74.63,-486.3 71,-477.55"/>
<polygon fill="black" stroke="black" points="74.15,-476 67.09,-468.1 67.68,-478.68 74.15,-476"/>
</g>
<!-- ast.Name object at 0x7f089a343ee0 -->
<g id="node6" class="node">
<title>ast.Name object at 0x7f089a343ee0</title>
<path fill="#66cdaa" stroke="black" d="M42,-324C42,-324 12,-324 12,-324 6,-324 0,-318 0,-312 0,-312 0,-300 0,-300 0,-294 6,-288 12,-288 12,-288 42,-288 42,-288 48,-288 54,-294 54,-300 54,-300 54,-312 54,-312 54,-318 48,-324 42,-324"/>
<text text-anchor="middle" x="27" y="-302.3" font-family="Times,serif" font-size="14.00">Name</text>
</g>
<!-- ast.Assign object at 0x7f089a343640&#45;&gt;ast.Name object at 0x7f089a343ee0 -->
<g id="edge5" class="edge">
<title>ast.Assign object at 0x7f089a343640&#45;&gt;ast.Name object at 0x7f089a343ee0</title>
<path fill="none" stroke="black" d="M198.41,-503.69C197.05,-484.79 192.7,-454.25 179,-432 150.39,-385.53 98.31,-348.38 63.18,-327.02"/>
<polygon fill="black" stroke="black" points="64.59,-323.78 54.2,-321.68 61.01,-329.8 64.59,-323.78"/>
</g>
<!-- ast.Constant object at 0x7f089a342080 -->
<g id="node8" class="node">
<title>ast.Constant object at 0x7f089a342080</title>
<path fill="#66cdaa" stroke="black" d="M158.5,-468C158.5,-468 117.5,-468 117.5,-468 111.5,-468 105.5,-462 105.5,-456 105.5,-456 105.5,-444 105.5,-444 105.5,-438 111.5,-432 117.5,-432 117.5,-432 158.5,-432 158.5,-432 164.5,-432 170.5,-438 170.5,-444 170.5,-444 170.5,-456 170.5,-456 170.5,-462 164.5,-468 158.5,-468"/>
<text text-anchor="middle" x="138" y="-446.3" font-family="Times,serif" font-size="14.00">Constant</text>
</g>
<!-- ast.Assign object at 0x7f089a343640&#45;&gt;ast.Constant object at 0x7f089a342080 -->
<g id="edge7" class="edge">
<title>ast.Assign object at 0x7f089a343640&#45;&gt;ast.Constant object at 0x7f089a342080</title>
<path fill="none" stroke="black" d="M183.92,-503.7C176.61,-495.3 167.69,-485.07 159.66,-475.86"/>
<polygon fill="black" stroke="black" points="162.11,-473.34 152.91,-468.1 156.84,-477.94 162.11,-473.34"/>
</g>
<!-- ast.Store object at 0x7f08da3ee080 -->
<g id="node7" class="node">
<title>ast.Store object at 0x7f08da3ee080</title>
<path fill="#66cdaa" stroke="black" d="M89,-180C89,-180 59,-180 59,-180 53,-180 47,-174 47,-168 47,-168 47,-156 47,-156 47,-150 53,-144 59,-144 59,-144 89,-144 89,-144 95,-144 101,-150 101,-156 101,-156 101,-168 101,-168 101,-174 95,-180 89,-180"/>
<text text-anchor="middle" x="74" y="-158.3" font-family="Times,serif" font-size="14.00">Store</text>
</g>
<!-- ast.Name object at 0x7f089a343ee0&#45;&gt;ast.Store object at 0x7f08da3ee080 -->
<g id="edge6" class="edge">
<title>ast.Name object at 0x7f089a343ee0&#45;&gt;ast.Store object at 0x7f08da3ee080</title>
<path fill="none" stroke="black" d="M27.37,-287.74C28.25,-269.4 31.09,-239.84 40,-216 43.58,-206.42 49.08,-196.77 54.62,-188.38"/>
<polygon fill="black" stroke="black" points="57.51,-190.35 60.33,-180.14 51.76,-186.36 57.51,-190.35"/>
</g>
<!-- ast.Name object at 0x7f089a3413c0 -->
<g id="node10" class="node">
<title>ast.Name object at 0x7f089a3413c0</title>
<path fill="#66cdaa" stroke="black" d="M195,-324C195,-324 165,-324 165,-324 159,-324 153,-318 153,-312 153,-312 153,-300 153,-300 153,-294 159,-288 165,-288 165,-288 195,-288 195,-288 201,-288 207,-294 207,-300 207,-300 207,-312 207,-312 207,-318 201,-324 195,-324"/>
<text text-anchor="middle" x="180" y="-302.3" font-family="Times,serif" font-size="14.00">Name</text>
</g>
<!-- ast.For object at 0x7f089a341fc0&#45;&gt;ast.Name object at 0x7f089a3413c0 -->
<g id="edge9" class="edge">
<title>ast.For object at 0x7f089a341fc0&#45;&gt;ast.Name object at 0x7f089a3413c0</title>
<path fill="none" stroke="black" d="M279.91,-503.73C267.47,-473.88 240.42,-410.92 213,-360 208.17,-351.03 202.44,-341.5 197.12,-333.03"/>
<polygon fill="black" stroke="black" points="199.9,-330.88 191.57,-324.34 194,-334.65 199.9,-330.88"/>
</g>
<!-- ast.Name object at 0x7f089a3408e0 -->
<g id="node11" class="node">
<title>ast.Name object at 0x7f089a3408e0</title>
<path fill="#66cdaa" stroke="black" d="M631,-324C631,-324 601,-324 601,-324 595,-324 589,-318 589,-312 589,-312 589,-300 589,-300 589,-294 595,-288 601,-288 601,-288 631,-288 631,-288 637,-288 643,-294 643,-300 643,-300 643,-312 643,-312 643,-318 637,-324 631,-324"/>
<text text-anchor="middle" x="616" y="-302.3" font-family="Times,serif" font-size="14.00">Name</text>
</g>
<!-- ast.For object at 0x7f089a341fc0&#45;&gt;ast.Name object at 0x7f089a3408e0 -->
<g id="edge11" class="edge">
<title>ast.For object at 0x7f089a341fc0&#45;&gt;ast.Name object at 0x7f089a3408e0</title>
<path fill="none" stroke="black" d="M313.37,-503.85C372.32,-465.5 514.82,-372.82 581.06,-329.73"/>
<polygon fill="black" stroke="black" points="583.03,-332.62 589.51,-324.23 579.22,-326.75 583.03,-332.62"/>
</g>
<!-- ast.For object at 0x7f089a3438b0 -->
<g id="node13" class="node">
<title>ast.For object at 0x7f089a3438b0</title>
<path fill="#66cdaa" stroke="black" d="M333,-468C333,-468 303,-468 303,-468 297,-468 291,-462 291,-456 291,-456 291,-444 291,-444 291,-438 297,-432 303,-432 303,-432 333,-432 333,-432 339,-432 345,-438 345,-444 345,-444 345,-456 345,-456 345,-462 339,-468 333,-468"/>
<text text-anchor="middle" x="318" y="-446.3" font-family="Times,serif" font-size="14.00">For</text>
</g>
<!-- ast.For object at 0x7f089a341fc0&#45;&gt;ast.For object at 0x7f089a3438b0 -->
<g id="edge13" class="edge">
<title>ast.For object at 0x7f089a341fc0&#45;&gt;ast.For object at 0x7f089a3438b0</title>
<path fill="none" stroke="black" d="M294.66,-503.7C298.19,-495.73 302.46,-486.1 306.37,-477.26"/>
<polygon fill="black" stroke="black" points="309.58,-478.67 310.43,-468.1 303.18,-475.83 309.58,-478.67"/>
</g>
<!-- ast.Name object at 0x7f089a3413c0&#45;&gt;ast.Store object at 0x7f08da3ee080 -->
<g id="edge10" class="edge">
<title>ast.Name object at 0x7f089a3413c0&#45;&gt;ast.Store object at 0x7f08da3ee080</title>
<path fill="none" stroke="black" d="M152.56,-299.88C126.98,-293.5 90.27,-279.83 73,-252 61.64,-233.7 62.95,-208.93 66.5,-190.17"/>
<polygon fill="black" stroke="black" points="69.97,-190.7 68.7,-180.18 63.13,-189.2 69.97,-190.7"/>
</g>
<!-- ast.Load object at 0x7f08da3ee020 -->
<g id="node12" class="node">
<title>ast.Load object at 0x7f08da3ee020</title>
<path fill="#66cdaa" stroke="black" d="M476,-36C476,-36 446,-36 446,-36 440,-36 434,-30 434,-24 434,-24 434,-12 434,-12 434,-6 440,0 446,0 446,0 476,0 476,0 482,0 488,-6 488,-12 488,-12 488,-24 488,-24 488,-30 482,-36 476,-36"/>
<text text-anchor="middle" x="461" y="-14.3" font-family="Times,serif" font-size="14.00">Load</text>
</g>
<!-- ast.Name object at 0x7f089a3408e0&#45;&gt;ast.Load object at 0x7f08da3ee020 -->
<g id="edge12" class="edge">
<title>ast.Name object at 0x7f089a3408e0&#45;&gt;ast.Load object at 0x7f08da3ee020</title>
<path fill="none" stroke="black" d="M619.92,-287.77C628.4,-245.72 643.76,-136.57 592,-72 569.08,-43.4 528.3,-30.13 498.31,-24.04"/>
<polygon fill="black" stroke="black" points="498.67,-20.55 488.2,-22.17 497.4,-27.43 498.67,-20.55"/>
</g>
<!-- ast.Name object at 0x7f089a343490 -->
<g id="node14" class="node">
<title>ast.Name object at 0x7f089a343490</title>
<path fill="#66cdaa" stroke="black" d="M124,-252C124,-252 94,-252 94,-252 88,-252 82,-246 82,-240 82,-240 82,-228 82,-228 82,-222 88,-216 94,-216 94,-216 124,-216 124,-216 130,-216 136,-222 136,-228 136,-228 136,-240 136,-240 136,-246 130,-252 124,-252"/>
<text text-anchor="middle" x="109" y="-230.3" font-family="Times,serif" font-size="14.00">Name</text>
</g>
<!-- ast.For object at 0x7f089a3438b0&#45;&gt;ast.Name object at 0x7f089a343490 -->
<g id="edge14" class="edge">
<title>ast.For object at 0x7f089a3438b0&#45;&gt;ast.Name object at 0x7f089a343490</title>
<path fill="none" stroke="black" d="M310.92,-431.81C296.98,-399.82 263.21,-330.51 216,-288 195.6,-269.63 167.68,-256.09 145.47,-247.29"/>
<polygon fill="black" stroke="black" points="146.63,-243.98 136.03,-243.7 144.13,-250.53 146.63,-243.98"/>
</g>
<!-- ast.Name object at 0x7f089a3432b0 -->
<g id="node15" class="node">
<title>ast.Name object at 0x7f089a3432b0</title>
<path fill="#66cdaa" stroke="black" d="M557,-324C557,-324 527,-324 527,-324 521,-324 515,-318 515,-312 515,-312 515,-300 515,-300 515,-294 521,-288 527,-288 527,-288 557,-288 557,-288 563,-288 569,-294 569,-300 569,-300 569,-312 569,-312 569,-318 563,-324 557,-324"/>
<text text-anchor="middle" x="542" y="-302.3" font-family="Times,serif" font-size="14.00">Name</text>
</g>
<!-- ast.For object at 0x7f089a3438b0&#45;&gt;ast.Name object at 0x7f089a3432b0 -->
<g id="edge16" class="edge">
<title>ast.For object at 0x7f089a3438b0&#45;&gt;ast.Name object at 0x7f089a3432b0</title>
<path fill="none" stroke="black" d="M345.02,-431.87C385.38,-406.28 461.47,-358.05 506.34,-329.6"/>
<polygon fill="black" stroke="black" points="508.31,-332.5 514.88,-324.19 504.56,-326.59 508.31,-332.5"/>
</g>
<!-- ast.If object at 0x7f089a343b50 -->
<g id="node16" class="node">
<title>ast.If object at 0x7f089a343b50</title>
<path fill="#66cdaa" stroke="black" d="M348,-396C348,-396 318,-396 318,-396 312,-396 306,-390 306,-384 306,-384 306,-372 306,-372 306,-366 312,-360 318,-360 318,-360 348,-360 348,-360 354,-360 360,-366 360,-372 360,-372 360,-384 360,-384 360,-390 354,-396 348,-396"/>
<text text-anchor="middle" x="333" y="-374.3" font-family="Times,serif" font-size="14.00">If</text>
</g>
<!-- ast.For object at 0x7f089a3438b0&#45;&gt;ast.If object at 0x7f089a343b50 -->
<g id="edge18" class="edge">
<title>ast.For object at 0x7f089a3438b0&#45;&gt;ast.If object at 0x7f089a343b50</title>
<path fill="none" stroke="black" d="M321.71,-431.7C323.36,-423.98 325.35,-414.71 327.19,-406.11"/>
<polygon fill="black" stroke="black" points="330.66,-406.62 329.33,-396.1 323.82,-405.15 330.66,-406.62"/>
</g>
<!-- ast.Name object at 0x7f089a343490&#45;&gt;ast.Store object at 0x7f08da3ee080 -->
<g id="edge15" class="edge">
<title>ast.Name object at 0x7f089a343490&#45;&gt;ast.Store object at 0x7f08da3ee080</title>
<path fill="none" stroke="black" d="M100.35,-215.7C96.36,-207.73 91.55,-198.1 87.13,-189.26"/>
<polygon fill="black" stroke="black" points="90.15,-187.48 82.55,-180.1 83.89,-190.61 90.15,-187.48"/>
</g>
<!-- ast.Name object at 0x7f089a3432b0&#45;&gt;ast.Load object at 0x7f08da3ee020 -->
<g id="edge17" class="edge">
<title>ast.Name object at 0x7f089a3432b0&#45;&gt;ast.Load object at 0x7f08da3ee020</title>
<path fill="none" stroke="black" d="M553.01,-287.6C558.69,-277.6 565.04,-264.57 568,-252 586.36,-174.13 611.31,-139.9 569,-72 553.56,-47.23 522.8,-33.71 498.04,-26.54"/>
<polygon fill="black" stroke="black" points="498.77,-23.11 488.2,-23.92 496.97,-29.87 498.77,-23.11"/>
</g>
<!-- ast.BoolOp object at 0x7f089a343730 -->
<g id="node17" class="node">
<title>ast.BoolOp object at 0x7f089a343730</title>
<path fill="#66cdaa" stroke="black" d="M350.5,-324C350.5,-324 315.5,-324 315.5,-324 309.5,-324 303.5,-318 303.5,-312 303.5,-312 303.5,-300 303.5,-300 303.5,-294 309.5,-288 315.5,-288 315.5,-288 350.5,-288 350.5,-288 356.5,-288 362.5,-294 362.5,-300 362.5,-300 362.5,-312 362.5,-312 362.5,-318 356.5,-324 350.5,-324"/>
<text text-anchor="middle" x="333" y="-302.3" font-family="Times,serif" font-size="14.00">BoolOp</text>
</g>
<!-- ast.If object at 0x7f089a343b50&#45;&gt;ast.BoolOp object at 0x7f089a343730 -->
<g id="edge19" class="edge">
<title>ast.If object at 0x7f089a343b50&#45;&gt;ast.BoolOp object at 0x7f089a343730</title>
<path fill="none" stroke="black" d="M333,-359.7C333,-351.98 333,-342.71 333,-334.11"/>
<polygon fill="black" stroke="black" points="336.5,-334.1 333,-324.1 329.5,-334.1 336.5,-334.1"/>
</g>
<!-- ast.AugAssign object at 0x7f08d3bbe890 -->
<g id="node31" class="node">
<title>ast.AugAssign object at 0x7f08d3bbe890</title>
<path fill="#66cdaa" stroke="black" d="M465.5,-324C465.5,-324 412.5,-324 412.5,-324 406.5,-324 400.5,-318 400.5,-312 400.5,-312 400.5,-300 400.5,-300 400.5,-294 406.5,-288 412.5,-288 412.5,-288 465.5,-288 465.5,-288 471.5,-288 477.5,-294 477.5,-300 477.5,-300 477.5,-312 477.5,-312 477.5,-318 471.5,-324 465.5,-324"/>
<text text-anchor="middle" x="439" y="-302.3" font-family="Times,serif" font-size="14.00">AugAssign</text>
</g>
<!-- ast.If object at 0x7f089a343b50&#45;&gt;ast.AugAssign object at 0x7f08d3bbe890 -->
<g id="edge39" class="edge">
<title>ast.If object at 0x7f089a343b50&#45;&gt;ast.AugAssign object at 0x7f08d3bbe890</title>
<path fill="none" stroke="black" d="M358.93,-359.88C372.66,-350.81 389.71,-339.55 404.54,-329.76"/>
<polygon fill="black" stroke="black" points="406.55,-332.62 412.97,-324.19 402.7,-326.78 406.55,-332.62"/>
</g>
<!-- ast.And object at 0x7f08da3ee170 -->
<g id="node18" class="node">
<title>ast.And object at 0x7f08da3ee170</title>
<path fill="#66cdaa" stroke="black" d="M234,-252C234,-252 204,-252 204,-252 198,-252 192,-246 192,-240 192,-240 192,-228 192,-228 192,-222 198,-216 204,-216 204,-216 234,-216 234,-216 240,-216 246,-222 246,-228 246,-228 246,-240 246,-240 246,-246 240,-252 234,-252"/>
<text text-anchor="middle" x="219" y="-230.3" font-family="Times,serif" font-size="14.00">And</text>
</g>
<!-- ast.BoolOp object at 0x7f089a343730&#45;&gt;ast.And object at 0x7f08da3ee170 -->
<g id="edge20" class="edge">
<title>ast.BoolOp object at 0x7f089a343730&#45;&gt;ast.And object at 0x7f08da3ee170</title>
<path fill="none" stroke="black" d="M305.11,-287.88C289.98,-278.59 271.12,-267 254.9,-257.04"/>
<polygon fill="black" stroke="black" points="256.56,-253.96 246.21,-251.71 252.9,-259.92 256.56,-253.96"/>
</g>
<!-- ast.Compare object at 0x7f089a343820 -->
<g id="node19" class="node">
<title>ast.Compare object at 0x7f089a343820</title>
<path fill="#66cdaa" stroke="black" d="M189.5,-180C189.5,-180 146.5,-180 146.5,-180 140.5,-180 134.5,-174 134.5,-168 134.5,-168 134.5,-156 134.5,-156 134.5,-150 140.5,-144 146.5,-144 146.5,-144 189.5,-144 189.5,-144 195.5,-144 201.5,-150 201.5,-156 201.5,-156 201.5,-168 201.5,-168 201.5,-174 195.5,-180 189.5,-180"/>
<text text-anchor="middle" x="168" y="-158.3" font-family="Times,serif" font-size="14.00">Compare</text>
</g>
<!-- ast.BoolOp object at 0x7f089a343730&#45;&gt;ast.Compare object at 0x7f089a343820 -->
<g id="edge21" class="edge">
<title>ast.BoolOp object at 0x7f089a343730&#45;&gt;ast.Compare object at 0x7f089a343820</title>
<path fill="none" stroke="black" d="M303.24,-293.31C298.49,-291.5 293.62,-289.68 289,-288 242.23,-271.03 215.25,-289.89 183,-252 168.6,-235.09 165.55,-209.62 165.69,-190.25"/>
<polygon fill="black" stroke="black" points="169.19,-190.33 166.05,-180.21 162.2,-190.08 169.19,-190.33"/>
</g>
<!-- ast.Compare object at 0x7f089a343970 -->
<g id="node23" class="node">
<title>ast.Compare object at 0x7f089a343970</title>
<path fill="#66cdaa" stroke="black" d="M391.5,-252C391.5,-252 348.5,-252 348.5,-252 342.5,-252 336.5,-246 336.5,-240 336.5,-240 336.5,-228 336.5,-228 336.5,-222 342.5,-216 348.5,-216 348.5,-216 391.5,-216 391.5,-216 397.5,-216 403.5,-222 403.5,-228 403.5,-228 403.5,-240 403.5,-240 403.5,-246 397.5,-252 391.5,-252"/>
<text text-anchor="middle" x="370" y="-230.3" font-family="Times,serif" font-size="14.00">Compare</text>
</g>
<!-- ast.BoolOp object at 0x7f089a343730&#45;&gt;ast.Compare object at 0x7f089a343970 -->
<g id="edge27" class="edge">
<title>ast.BoolOp object at 0x7f089a343730&#45;&gt;ast.Compare object at 0x7f089a343970</title>
<path fill="none" stroke="black" d="M342.15,-287.7C346.4,-279.64 351.56,-269.89 356.27,-260.98"/>
<polygon fill="black" stroke="black" points="359.38,-262.58 360.96,-252.1 353.19,-259.31 359.38,-262.58"/>
</g>
<!-- ast.Name object at 0x7f089a343eb0 -->
<g id="node20" class="node">
<title>ast.Name object at 0x7f089a343eb0</title>
<path fill="#66cdaa" stroke="black" d="M188,-108C188,-108 158,-108 158,-108 152,-108 146,-102 146,-96 146,-96 146,-84 146,-84 146,-78 152,-72 158,-72 158,-72 188,-72 188,-72 194,-72 200,-78 200,-84 200,-84 200,-96 200,-96 200,-102 194,-108 188,-108"/>
<text text-anchor="middle" x="173" y="-86.3" font-family="Times,serif" font-size="14.00">Name</text>
</g>
<!-- ast.Compare object at 0x7f089a343820&#45;&gt;ast.Name object at 0x7f089a343eb0 -->
<g id="edge22" class="edge">
<title>ast.Compare object at 0x7f089a343820&#45;&gt;ast.Name object at 0x7f089a343eb0</title>
<path fill="none" stroke="black" d="M169.24,-143.7C169.79,-135.98 170.45,-126.71 171.06,-118.11"/>
<polygon fill="black" stroke="black" points="174.56,-118.33 171.78,-108.1 167.57,-117.83 174.56,-118.33"/>
</g>
<!-- ast.NotEq object at 0x7f08da3ee9b0 -->
<g id="node21" class="node">
<title>ast.NotEq object at 0x7f08da3ee9b0</title>
<path fill="#66cdaa" stroke="black" d="M260,-108C260,-108 230,-108 230,-108 224,-108 218,-102 218,-96 218,-96 218,-84 218,-84 218,-78 224,-72 230,-72 230,-72 260,-72 260,-72 266,-72 272,-78 272,-84 272,-84 272,-96 272,-96 272,-102 266,-108 260,-108"/>
<text text-anchor="middle" x="245" y="-86.3" font-family="Times,serif" font-size="14.00">NotEq</text>
</g>
<!-- ast.Compare object at 0x7f089a343820&#45;&gt;ast.NotEq object at 0x7f08da3ee9b0 -->
<g id="edge24" class="edge">
<title>ast.Compare object at 0x7f089a343820&#45;&gt;ast.NotEq object at 0x7f08da3ee9b0</title>
<path fill="none" stroke="black" d="M187.03,-143.7C196.54,-135.05 208.21,-124.45 218.57,-115.03"/>
<polygon fill="black" stroke="black" points="221.14,-117.42 226.19,-108.1 216.43,-112.24 221.14,-117.42"/>
</g>
<!-- ast.Name object at 0x7f089a340ac0 -->
<g id="node22" class="node">
<title>ast.Name object at 0x7f089a340ac0</title>
<path fill="#66cdaa" stroke="black" d="M116,-108C116,-108 86,-108 86,-108 80,-108 74,-102 74,-96 74,-96 74,-84 74,-84 74,-78 80,-72 86,-72 86,-72 116,-72 116,-72 122,-72 128,-78 128,-84 128,-84 128,-96 128,-96 128,-102 122,-108 116,-108"/>
<text text-anchor="middle" x="101" y="-86.3" font-family="Times,serif" font-size="14.00">Name</text>
</g>
<!-- ast.Compare object at 0x7f089a343820&#45;&gt;ast.Name object at 0x7f089a340ac0 -->
<g id="edge25" class="edge">
<title>ast.Compare object at 0x7f089a343820&#45;&gt;ast.Name object at 0x7f089a340ac0</title>
<path fill="none" stroke="black" d="M151.44,-143.7C143.32,-135.22 133.41,-124.86 124.53,-115.58"/>
<polygon fill="black" stroke="black" points="126.81,-112.91 117.37,-108.1 121.76,-117.75 126.81,-112.91"/>
</g>
<!-- ast.Name object at 0x7f089a343eb0&#45;&gt;ast.Load object at 0x7f08da3ee020 -->
<g id="edge23" class="edge">
<title>ast.Name object at 0x7f089a343eb0&#45;&gt;ast.Load object at 0x7f08da3ee020</title>
<path fill="none" stroke="black" d="M200.24,-75.33C203.16,-74.11 206.12,-72.97 209,-72 283.38,-47 374.22,-31.37 423.99,-24.01"/>
<polygon fill="black" stroke="black" points="424.57,-27.46 433.97,-22.56 423.57,-20.53 424.57,-27.46"/>
</g>
<!-- ast.Name object at 0x7f089a340ac0&#45;&gt;ast.Load object at 0x7f08da3ee020 -->
<g id="edge26" class="edge">
<title>ast.Name object at 0x7f089a340ac0&#45;&gt;ast.Load object at 0x7f08da3ee020</title>
<path fill="none" stroke="black" d="M128.2,-75.19C131.13,-74 134.1,-72.9 137,-72 237.89,-40.61 362.55,-26.89 423.66,-21.71"/>
<polygon fill="black" stroke="black" points="424.28,-25.17 433.96,-20.87 423.71,-18.19 424.28,-25.17"/>
</g>
<!-- ast.Call object at 0x7f08d4fbff10 -->
<g id="node24" class="node">
<title>ast.Call object at 0x7f08d4fbff10</title>
<path fill="#66cdaa" stroke="black" d="M332,-180C332,-180 302,-180 302,-180 296,-180 290,-174 290,-168 290,-168 290,-156 290,-156 290,-150 296,-144 302,-144 302,-144 332,-144 332,-144 338,-144 344,-150 344,-156 344,-156 344,-168 344,-168 344,-174 338,-180 332,-180"/>
<text text-anchor="middle" x="317" y="-158.3" font-family="Times,serif" font-size="14.00">Call</text>
</g>
<!-- ast.Compare object at 0x7f089a343970&#45;&gt;ast.Call object at 0x7f08d4fbff10 -->
<g id="edge28" class="edge">
<title>ast.Compare object at 0x7f089a343970&#45;&gt;ast.Call object at 0x7f08d4fbff10</title>
<path fill="none" stroke="black" d="M356.9,-215.7C350.61,-207.39 342.95,-197.28 336.04,-188.14"/>
<polygon fill="black" stroke="black" points="338.78,-185.96 329.95,-180.1 333.2,-190.19 338.78,-185.96"/>
</g>
<!-- ast.Eq object at 0x7f08da3ee950 -->
<g id="node27" class="node">
<title>ast.Eq object at 0x7f08da3ee950</title>
<path fill="#66cdaa" stroke="black" d="M404,-180C404,-180 374,-180 374,-180 368,-180 362,-174 362,-168 362,-168 362,-156 362,-156 362,-150 368,-144 374,-144 374,-144 404,-144 404,-144 410,-144 416,-150 416,-156 416,-156 416,-168 416,-168 416,-174 410,-180 404,-180"/>
<text text-anchor="middle" x="389" y="-158.3" font-family="Times,serif" font-size="14.00">Eq</text>
</g>
<!-- ast.Compare object at 0x7f089a343970&#45;&gt;ast.Eq object at 0x7f08da3ee950 -->
<g id="edge33" class="edge">
<title>ast.Compare object at 0x7f089a343970&#45;&gt;ast.Eq object at 0x7f08da3ee950</title>
<path fill="none" stroke="black" d="M374.7,-215.7C376.81,-207.9 379.36,-198.51 381.72,-189.83"/>
<polygon fill="black" stroke="black" points="385.12,-190.67 384.36,-180.1 378.36,-188.84 385.12,-190.67"/>
</g>
<!-- ast.Call object at 0x7f08d3bbfe50 -->
<g id="node28" class="node">
<title>ast.Call object at 0x7f08d3bbfe50</title>
<path fill="#66cdaa" stroke="black" d="M476,-180C476,-180 446,-180 446,-180 440,-180 434,-174 434,-168 434,-168 434,-156 434,-156 434,-150 440,-144 446,-144 446,-144 476,-144 476,-144 482,-144 488,-150 488,-156 488,-156 488,-168 488,-168 488,-174 482,-180 476,-180"/>
<text text-anchor="middle" x="461" y="-158.3" font-family="Times,serif" font-size="14.00">Call</text>
</g>
<!-- ast.Compare object at 0x7f089a343970&#45;&gt;ast.Call object at 0x7f08d3bbfe50 -->
<g id="edge34" class="edge">
<title>ast.Compare object at 0x7f089a343970&#45;&gt;ast.Call object at 0x7f08d3bbfe50</title>
<path fill="none" stroke="black" d="M392.49,-215.7C403.96,-206.88 418.06,-196.03 430.48,-186.47"/>
<polygon fill="black" stroke="black" points="432.97,-188.98 438.76,-180.1 428.7,-183.43 432.97,-188.98"/>
</g>
<!-- ast.Name object at 0x7f08d3bbeb00 -->
<g id="node25" class="node">
<title>ast.Name object at 0x7f08d3bbeb00</title>
<path fill="#66cdaa" stroke="black" d="M332,-108C332,-108 302,-108 302,-108 296,-108 290,-102 290,-96 290,-96 290,-84 290,-84 290,-78 296,-72 302,-72 302,-72 332,-72 332,-72 338,-72 344,-78 344,-84 344,-84 344,-96 344,-96 344,-102 338,-108 332,-108"/>
<text text-anchor="middle" x="317" y="-86.3" font-family="Times,serif" font-size="14.00">Name</text>
</g>
<!-- ast.Call object at 0x7f08d4fbff10&#45;&gt;ast.Name object at 0x7f08d3bbeb00 -->
<g id="edge29" class="edge">
<title>ast.Call object at 0x7f08d4fbff10&#45;&gt;ast.Name object at 0x7f08d3bbeb00</title>
<path fill="none" stroke="black" d="M317,-143.7C317,-135.98 317,-126.71 317,-118.11"/>
<polygon fill="black" stroke="black" points="320.5,-118.1 317,-108.1 313.5,-118.1 320.5,-118.1"/>
</g>
<!-- ast.Name object at 0x7f08d3bbf880 -->
<g id="node26" class="node">
<title>ast.Name object at 0x7f08d3bbf880</title>
<path fill="#66cdaa" stroke="black" d="M404,-108C404,-108 374,-108 374,-108 368,-108 362,-102 362,-96 362,-96 362,-84 362,-84 362,-78 368,-72 374,-72 374,-72 404,-72 404,-72 410,-72 416,-78 416,-84 416,-84 416,-96 416,-96 416,-102 410,-108 404,-108"/>
<text text-anchor="middle" x="389" y="-86.3" font-family="Times,serif" font-size="14.00">Name</text>
</g>
<!-- ast.Call object at 0x7f08d4fbff10&#45;&gt;ast.Name object at 0x7f08d3bbf880 -->
<g id="edge31" class="edge">
<title>ast.Call object at 0x7f08d4fbff10&#45;&gt;ast.Name object at 0x7f08d3bbf880</title>
<path fill="none" stroke="black" d="M334.8,-143.7C343.6,-135.14 354.38,-124.66 364,-115.3"/>
<polygon fill="black" stroke="black" points="366.68,-117.58 371.41,-108.1 361.8,-112.57 366.68,-117.58"/>
</g>
<!-- ast.Name object at 0x7f08d3bbeb00&#45;&gt;ast.Load object at 0x7f08da3ee020 -->
<g id="edge30" class="edge">
<title>ast.Name object at 0x7f08d3bbeb00&#45;&gt;ast.Load object at 0x7f08da3ee020</title>
<path fill="none" stroke="black" d="M344.09,-75.83C366.77,-64.81 399.36,-48.97 424.37,-36.81"/>
<polygon fill="black" stroke="black" points="426.08,-39.87 433.55,-32.35 423.02,-33.57 426.08,-39.87"/>
</g>
<!-- ast.Name object at 0x7f08d3bbf880&#45;&gt;ast.Load object at 0x7f08da3ee020 -->
<g id="edge32" class="edge">
<title>ast.Name object at 0x7f08d3bbf880&#45;&gt;ast.Load object at 0x7f08da3ee020</title>
<path fill="none" stroke="black" d="M406.8,-71.7C415.6,-63.14 426.38,-52.66 436,-43.3"/>
<polygon fill="black" stroke="black" points="438.68,-45.58 443.41,-36.1 433.8,-40.57 438.68,-45.58"/>
</g>
<!-- ast.Name object at 0x7f08d3bbfac0 -->
<g id="node29" class="node">
<title>ast.Name object at 0x7f08d3bbfac0</title>
<path fill="#66cdaa" stroke="black" d="M476,-108C476,-108 446,-108 446,-108 440,-108 434,-102 434,-96 434,-96 434,-84 434,-84 434,-78 440,-72 446,-72 446,-72 476,-72 476,-72 482,-72 488,-78 488,-84 488,-84 488,-96 488,-96 488,-102 482,-108 476,-108"/>
<text text-anchor="middle" x="461" y="-86.3" font-family="Times,serif" font-size="14.00">Name</text>
</g>
<!-- ast.Call object at 0x7f08d3bbfe50&#45;&gt;ast.Name object at 0x7f08d3bbfac0 -->
<g id="edge35" class="edge">
<title>ast.Call object at 0x7f08d3bbfe50&#45;&gt;ast.Name object at 0x7f08d3bbfac0</title>
<path fill="none" stroke="black" d="M461,-143.7C461,-135.98 461,-126.71 461,-118.11"/>
<polygon fill="black" stroke="black" points="464.5,-118.1 461,-108.1 457.5,-118.1 464.5,-118.1"/>
</g>
<!-- ast.Name object at 0x7f08d3bbf9a0 -->
<g id="node30" class="node">
<title>ast.Name object at 0x7f08d3bbf9a0</title>
<path fill="#66cdaa" stroke="black" d="M548,-108C548,-108 518,-108 518,-108 512,-108 506,-102 506,-96 506,-96 506,-84 506,-84 506,-78 512,-72 518,-72 518,-72 548,-72 548,-72 554,-72 560,-78 560,-84 560,-84 560,-96 560,-96 560,-102 554,-108 548,-108"/>
<text text-anchor="middle" x="533" y="-86.3" font-family="Times,serif" font-size="14.00">Name</text>
</g>
<!-- ast.Call object at 0x7f08d3bbfe50&#45;&gt;ast.Name object at 0x7f08d3bbf9a0 -->
<g id="edge37" class="edge">
<title>ast.Call object at 0x7f08d3bbfe50&#45;&gt;ast.Name object at 0x7f08d3bbf9a0</title>
<path fill="none" stroke="black" d="M478.8,-143.7C487.6,-135.14 498.38,-124.66 508,-115.3"/>
<polygon fill="black" stroke="black" points="510.68,-117.58 515.41,-108.1 505.8,-112.57 510.68,-117.58"/>
</g>
<!-- ast.Name object at 0x7f08d3bbfac0&#45;&gt;ast.Load object at 0x7f08da3ee020 -->
<g id="edge36" class="edge">
<title>ast.Name object at 0x7f08d3bbfac0&#45;&gt;ast.Load object at 0x7f08da3ee020</title>
<path fill="none" stroke="black" d="M461,-71.7C461,-63.98 461,-54.71 461,-46.11"/>
<polygon fill="black" stroke="black" points="464.5,-46.1 461,-36.1 457.5,-46.1 464.5,-46.1"/>
</g>
<!-- ast.Name object at 0x7f08d3bbf9a0&#45;&gt;ast.Load object at 0x7f08da3ee020 -->
<g id="edge38" class="edge">
<title>ast.Name object at 0x7f08d3bbf9a0&#45;&gt;ast.Load object at 0x7f08da3ee020</title>
<path fill="none" stroke="black" d="M515.2,-71.7C506.4,-63.14 495.62,-52.66 486,-43.3"/>
<polygon fill="black" stroke="black" points="488.2,-40.57 478.59,-36.1 483.32,-45.58 488.2,-40.57"/>
</g>
<!-- ast.Name object at 0x7f08d3bbd210 -->
<g id="node32" class="node">
<title>ast.Name object at 0x7f08d3bbd210</title>
<path fill="#66cdaa" stroke="black" d="M306,-252C306,-252 276,-252 276,-252 270,-252 264,-246 264,-240 264,-240 264,-228 264,-228 264,-222 270,-216 276,-216 276,-216 306,-216 306,-216 312,-216 318,-222 318,-228 318,-228 318,-240 318,-240 318,-246 312,-252 306,-252"/>
<text text-anchor="middle" x="291" y="-230.3" font-family="Times,serif" font-size="14.00">Name</text>
</g>
<!-- ast.AugAssign object at 0x7f08d3bbe890&#45;&gt;ast.Name object at 0x7f08d3bbd210 -->
<g id="edge40" class="edge">
<title>ast.AugAssign object at 0x7f08d3bbe890&#45;&gt;ast.Name object at 0x7f08d3bbd210</title>
<path fill="none" stroke="black" d="M402.8,-287.88C379.78,-276.99 350.1,-262.95 327.1,-252.07"/>
<polygon fill="black" stroke="black" points="328.55,-248.89 318.01,-247.78 325.56,-255.22 328.55,-248.89"/>
</g>
<!-- ast.Add object at 0x7f08da3ee260 -->
<g id="node33" class="node">
<title>ast.Add object at 0x7f08da3ee260</title>
<path fill="#66cdaa" stroke="black" d="M464,-252C464,-252 434,-252 434,-252 428,-252 422,-246 422,-240 422,-240 422,-228 422,-228 422,-222 428,-216 434,-216 434,-216 464,-216 464,-216 470,-216 476,-222 476,-228 476,-228 476,-240 476,-240 476,-246 470,-252 464,-252"/>
<text text-anchor="middle" x="449" y="-230.3" font-family="Times,serif" font-size="14.00">Add</text>
</g>
<!-- ast.AugAssign object at 0x7f08d3bbe890&#45;&gt;ast.Add object at 0x7f08da3ee260 -->
<g id="edge42" class="edge">
<title>ast.AugAssign object at 0x7f08d3bbe890&#45;&gt;ast.Add object at 0x7f08da3ee260</title>
<path fill="none" stroke="black" d="M441.47,-287.7C442.57,-279.98 443.9,-270.71 445.13,-262.11"/>
<polygon fill="black" stroke="black" points="448.61,-262.5 446.56,-252.1 441.68,-261.51 448.61,-262.5"/>
</g>
<!-- ast.Constant object at 0x7f08d3bbfdc0 -->
<g id="node34" class="node">
<title>ast.Constant object at 0x7f08d3bbfdc0</title>
<path fill="#66cdaa" stroke="black" d="M547.5,-252C547.5,-252 506.5,-252 506.5,-252 500.5,-252 494.5,-246 494.5,-240 494.5,-240 494.5,-228 494.5,-228 494.5,-222 500.5,-216 506.5,-216 506.5,-216 547.5,-216 547.5,-216 553.5,-216 559.5,-222 559.5,-228 559.5,-228 559.5,-240 559.5,-240 559.5,-246 553.5,-252 547.5,-252"/>
<text text-anchor="middle" x="527" y="-230.3" font-family="Times,serif" font-size="14.00">Constant</text>
</g>
<!-- ast.AugAssign object at 0x7f08d3bbe890&#45;&gt;ast.Constant object at 0x7f08d3bbfdc0 -->
<g id="edge43" class="edge">
<title>ast.AugAssign object at 0x7f08d3bbe890&#45;&gt;ast.Constant object at 0x7f08d3bbfdc0</title>
<path fill="none" stroke="black" d="M460.75,-287.7C471.84,-278.88 485.47,-268.03 497.49,-258.47"/>
<polygon fill="black" stroke="black" points="499.85,-261.07 505.5,-252.1 495.49,-255.59 499.85,-261.07"/>
</g>
<!-- ast.Name object at 0x7f08d3bbd210&#45;&gt;ast.Store object at 0x7f08da3ee080 -->
<g id="edge41" class="edge">
<title>ast.Name object at 0x7f08d3bbd210&#45;&gt;ast.Store object at 0x7f08da3ee080</title>
<path fill="none" stroke="black" d="M263.69,-219.51C260.79,-218.26 257.85,-217.06 255,-216 198.8,-195.12 182.35,-197.49 125,-180 120.39,-178.59 115.56,-177.06 110.79,-175.52"/>
<polygon fill="black" stroke="black" points="111.77,-172.15 101.18,-172.35 109.58,-178.8 111.77,-172.15"/>
</g>
<!-- ast.Compare object at 0x7f08d3bbd4e0 -->
<g id="node36" class="node">
<title>ast.Compare object at 0x7f08d3bbd4e0</title>
<path fill="#66cdaa" stroke="black" d="M766.5,-468C766.5,-468 723.5,-468 723.5,-468 717.5,-468 711.5,-462 711.5,-456 711.5,-456 711.5,-444 711.5,-444 711.5,-438 717.5,-432 723.5,-432 723.5,-432 766.5,-432 766.5,-432 772.5,-432 778.5,-438 778.5,-444 778.5,-444 778.5,-456 778.5,-456 778.5,-462 772.5,-468 766.5,-468"/>
<text text-anchor="middle" x="745" y="-446.3" font-family="Times,serif" font-size="14.00">Compare</text>
</g>
<!-- ast.If object at 0x7f08d3bbffd0&#45;&gt;ast.Compare object at 0x7f08d3bbd4e0 -->
<g id="edge45" class="edge">
<title>ast.If object at 0x7f08d3bbffd0&#45;&gt;ast.Compare object at 0x7f08d3bbd4e0</title>
<path fill="none" stroke="black" d="M788.66,-503.7C781.71,-495.3 773.23,-485.07 765.6,-475.86"/>
<polygon fill="black" stroke="black" points="768.25,-473.57 759.17,-468.1 762.86,-478.04 768.25,-473.57"/>
</g>
<!-- ast.Return object at 0x7f08d3bbf130 -->
<g id="node40" class="node">
<title>ast.Return object at 0x7f08d3bbf130</title>
<path fill="#66cdaa" stroke="black" d="M877,-468C877,-468 847,-468 847,-468 841,-468 835,-462 835,-456 835,-456 835,-444 835,-444 835,-438 841,-432 847,-432 847,-432 877,-432 877,-432 883,-432 889,-438 889,-444 889,-444 889,-456 889,-456 889,-462 883,-468 877,-468"/>
<text text-anchor="middle" x="862" y="-446.3" font-family="Times,serif" font-size="14.00">Return</text>
</g>
<!-- ast.If object at 0x7f08d3bbffd0&#45;&gt;ast.Return object at 0x7f08d3bbf130 -->
<g id="edge50" class="edge">
<title>ast.If object at 0x7f08d3bbffd0&#45;&gt;ast.Return object at 0x7f08d3bbf130</title>
<path fill="none" stroke="black" d="M817.58,-503.7C824.66,-495.3 833.28,-485.07 841.05,-475.86"/>
<polygon fill="black" stroke="black" points="843.81,-478.01 847.58,-468.1 838.46,-473.49 843.81,-478.01"/>
</g>
<!-- ast.Return object at 0x7f08d3bbc460 -->
<g id="node42" class="node">
<title>ast.Return object at 0x7f08d3bbc460</title>
<path fill="#66cdaa" stroke="black" d="M962,-468C962,-468 932,-468 932,-468 926,-468 920,-462 920,-456 920,-456 920,-444 920,-444 920,-438 926,-432 932,-432 932,-432 962,-432 962,-432 968,-432 974,-438 974,-444 974,-444 974,-456 974,-456 974,-462 968,-468 962,-468"/>
<text text-anchor="middle" x="947" y="-446.3" font-family="Times,serif" font-size="14.00">Return</text>
</g>
<!-- ast.If object at 0x7f08d3bbffd0&#45;&gt;ast.Return object at 0x7f08d3bbc460 -->
<g id="edge52" class="edge">
<title>ast.If object at 0x7f08d3bbffd0&#45;&gt;ast.Return object at 0x7f08d3bbc460</title>
<path fill="none" stroke="black" d="M830.09,-507.83C852.77,-496.81 885.36,-480.97 910.37,-468.81"/>
<polygon fill="black" stroke="black" points="912.08,-471.87 919.55,-464.35 909.02,-465.57 912.08,-471.87"/>
</g>
<!-- ast.Name object at 0x7f08d3bbcee0 -->
<g id="node37" class="node">
<title>ast.Name object at 0x7f08d3bbcee0</title>
<path fill="#66cdaa" stroke="black" d="M696,-180C696,-180 666,-180 666,-180 660,-180 654,-174 654,-168 654,-168 654,-156 654,-156 654,-150 660,-144 666,-144 666,-144 696,-144 696,-144 702,-144 708,-150 708,-156 708,-156 708,-168 708,-168 708,-174 702,-180 696,-180"/>
<text text-anchor="middle" x="681" y="-158.3" font-family="Times,serif" font-size="14.00">Name</text>
</g>
<!-- ast.Compare object at 0x7f08d3bbd4e0&#45;&gt;ast.Name object at 0x7f08d3bbcee0 -->
<g id="edge46" class="edge">
<title>ast.Compare object at 0x7f08d3bbd4e0&#45;&gt;ast.Name object at 0x7f08d3bbcee0</title>
<path fill="none" stroke="black" d="M720.62,-431.98C709.47,-422.74 697.36,-410.28 691,-396 660.35,-327.14 668.99,-235.23 675.98,-190.19"/>
<polygon fill="black" stroke="black" points="679.48,-190.49 677.66,-180.05 672.57,-189.35 679.48,-190.49"/>
</g>
<!-- ast.Gt object at 0x7f08da3eead0 -->
<g id="node38" class="node">
<title>ast.Gt object at 0x7f08da3eead0</title>
<path fill="#66cdaa" stroke="black" d="M826,-396C826,-396 796,-396 796,-396 790,-396 784,-390 784,-384 784,-384 784,-372 784,-372 784,-366 790,-360 796,-360 796,-360 826,-360 826,-360 832,-360 838,-366 838,-372 838,-372 838,-384 838,-384 838,-390 832,-396 826,-396"/>
<text text-anchor="middle" x="811" y="-374.3" font-family="Times,serif" font-size="14.00">Gt</text>
</g>
<!-- ast.Compare object at 0x7f08d3bbd4e0&#45;&gt;ast.Gt object at 0x7f08da3eead0 -->
<g id="edge48" class="edge">
<title>ast.Compare object at 0x7f08d3bbd4e0&#45;&gt;ast.Gt object at 0x7f08da3eead0</title>
<path fill="none" stroke="black" d="M761.31,-431.7C769.31,-423.22 779.07,-412.86 787.82,-403.58"/>
<polygon fill="black" stroke="black" points="790.56,-405.78 794.87,-396.1 785.47,-400.98 790.56,-405.78"/>
</g>
<!-- ast.Constant object at 0x7f08d3bbffa0 -->
<g id="node39" class="node">
<title>ast.Constant object at 0x7f08d3bbffa0</title>
<path fill="#66cdaa" stroke="black" d="M753.5,-396C753.5,-396 712.5,-396 712.5,-396 706.5,-396 700.5,-390 700.5,-384 700.5,-384 700.5,-372 700.5,-372 700.5,-366 706.5,-360 712.5,-360 712.5,-360 753.5,-360 753.5,-360 759.5,-360 765.5,-366 765.5,-372 765.5,-372 765.5,-384 765.5,-384 765.5,-390 759.5,-396 753.5,-396"/>
<text text-anchor="middle" x="733" y="-374.3" font-family="Times,serif" font-size="14.00">Constant</text>
</g>
<!-- ast.Compare object at 0x7f08d3bbd4e0&#45;&gt;ast.Constant object at 0x7f08d3bbffa0 -->
<g id="edge49" class="edge">
<title>ast.Compare object at 0x7f08d3bbd4e0&#45;&gt;ast.Constant object at 0x7f08d3bbffa0</title>
<path fill="none" stroke="black" d="M742.03,-431.7C740.71,-423.98 739.12,-414.71 737.65,-406.11"/>
<polygon fill="black" stroke="black" points="741.07,-405.37 735.93,-396.1 734.17,-406.55 741.07,-405.37"/>
</g>
<!-- ast.Name object at 0x7f08d3bbcee0&#45;&gt;ast.Load object at 0x7f08da3ee020 -->
<g id="edge47" class="edge">
<title>ast.Name object at 0x7f08d3bbcee0&#45;&gt;ast.Load object at 0x7f08da3ee020</title>
<path fill="none" stroke="black" d="M677.54,-143.67C672.64,-123.58 661.74,-90.82 640,-72 599.85,-37.24 537.76,-25.27 498.27,-21.15"/>
<polygon fill="black" stroke="black" points="498.54,-17.66 488.26,-20.22 497.89,-24.63 498.54,-17.66"/>
</g>
<!-- ast.Constant object at 0x7f08d3bbdff0 -->
<g id="node41" class="node">
<title>ast.Constant object at 0x7f08d3bbdff0</title>
<path fill="#66cdaa" stroke="black" d="M909.5,-396C909.5,-396 868.5,-396 868.5,-396 862.5,-396 856.5,-390 856.5,-384 856.5,-384 856.5,-372 856.5,-372 856.5,-366 862.5,-360 868.5,-360 868.5,-360 909.5,-360 909.5,-360 915.5,-360 921.5,-366 921.5,-372 921.5,-372 921.5,-384 921.5,-384 921.5,-390 915.5,-396 909.5,-396"/>
<text text-anchor="middle" x="889" y="-374.3" font-family="Times,serif" font-size="14.00">Constant</text>
</g>
<!-- ast.Return object at 0x7f08d3bbf130&#45;&gt;ast.Constant object at 0x7f08d3bbdff0 -->
<g id="edge51" class="edge">
<title>ast.Return object at 0x7f08d3bbf130&#45;&gt;ast.Constant object at 0x7f08d3bbdff0</title>
<path fill="none" stroke="black" d="M868.67,-431.7C871.71,-423.81 875.38,-414.3 878.76,-405.55"/>
<polygon fill="black" stroke="black" points="882.07,-406.69 882.4,-396.1 875.54,-404.17 882.07,-406.69"/>
</g>
<!-- ast.Constant object at 0x7f08d3bbf1f0 -->
<g id="node43" class="node">
<title>ast.Constant object at 0x7f08d3bbf1f0</title>
<path fill="#66cdaa" stroke="black" d="M992.5,-396C992.5,-396 951.5,-396 951.5,-396 945.5,-396 939.5,-390 939.5,-384 939.5,-384 939.5,-372 939.5,-372 939.5,-366 945.5,-360 951.5,-360 951.5,-360 992.5,-360 992.5,-360 998.5,-360 1004.5,-366 1004.5,-372 1004.5,-372 1004.5,-384 1004.5,-384 1004.5,-390 998.5,-396 992.5,-396"/>
<text text-anchor="middle" x="972" y="-374.3" font-family="Times,serif" font-size="14.00">Constant</text>
</g>
<!-- ast.Return object at 0x7f08d3bbc460&#45;&gt;ast.Constant object at 0x7f08d3bbf1f0 -->
<g id="edge53" class="edge">
<title>ast.Return object at 0x7f08d3bbc460&#45;&gt;ast.Constant object at 0x7f08d3bbf1f0</title>
<path fill="none" stroke="black" d="M953.18,-431.7C956,-423.81 959.39,-414.3 962.52,-405.55"/>
<polygon fill="black" stroke="black" points="965.82,-406.7 965.89,-396.1 959.23,-404.34 965.82,-406.7"/>
</g>
</g>
</svg>
