<?xml version="1.0" encoding="UTF-8" standalone="no"?>
<!DOCTYPE svg PUBLIC "-//W3C//DTD SVG 1.1//EN"
 "http://www.w3.org/Graphics/SVG/1.1/DTD/svg11.dtd">
<!-- Generated by graphviz version 2.43.0 (0)
 -->
<!-- Title: %3 Pages: 1 -->
<svg width="1544pt" height="620pt"
 viewBox="0.00 0.00 1544.00 620.00" xmlns="http://www.w3.org/2000/svg" xmlns:xlink="http://www.w3.org/1999/xlink">
<g id="graph0" class="graph" transform="scale(1 1) rotate(0) translate(4 616)">
<title>%3</title>
<polygon fill="white" stroke="transparent" points="-4,4 -4,-616 1540,-616 1540,4 -4,4"/>
<!-- ast.Module object at 0x7f5d38a93310 -->
<g id="node1" class="node">
<title>ast.Module object at 0x7f5d38a93310</title>
<path fill="#66cdaa" stroke="black" d="M893,-612C893,-612 858,-612 858,-612 852,-612 846,-606 846,-600 846,-600 846,-588 846,-588 846,-582 852,-576 858,-576 858,-576 893,-576 893,-576 899,-576 905,-582 905,-588 905,-588 905,-600 905,-600 905,-606 899,-612 893,-612"/>
<text text-anchor="middle" x="875.5" y="-590.3" font-family="Times,serif" font-size="14.00">Module</text>
</g>
<!-- ast.FunctionDef object at 0x7f5d38a901f0 -->
<g id="node2" class="node">
<title>ast.FunctionDef object at 0x7f5d38a901f0</title>
<path fill="#66cdaa" stroke="black" d="M577,-540C577,-540 516,-540 516,-540 510,-540 504,-534 504,-528 504,-528 504,-516 504,-516 504,-510 510,-504 516,-504 516,-504 577,-504 577,-504 583,-504 589,-510 589,-516 589,-516 589,-528 589,-528 589,-534 583,-540 577,-540"/>
<text text-anchor="middle" x="546.5" y="-518.3" font-family="Times,serif" font-size="14.00">FunctionDef</text>
</g>
<!-- ast.Module object at 0x7f5d38a93310&#45;&gt;ast.FunctionDef object at 0x7f5d38a901f0 -->
<g id="edge1" class="edge">
<title>ast.Module object at 0x7f5d38a93310&#45;&gt;ast.FunctionDef object at 0x7f5d38a901f0</title>
<path fill="none" stroke="black" d="M845.72,-586.66C789.87,-574.78 668.72,-549 598.91,-534.15"/>
<polygon fill="black" stroke="black" points="599.51,-530.7 589,-532.04 598.05,-537.55 599.51,-530.7"/>
</g>
<!-- ast.FunctionDef object at 0x7f5d35b836d0 -->
<g id="node38" class="node">
<title>ast.FunctionDef object at 0x7f5d35b836d0</title>
<path fill="#66cdaa" stroke="black" d="M1313,-540C1313,-540 1252,-540 1252,-540 1246,-540 1240,-534 1240,-528 1240,-528 1240,-516 1240,-516 1240,-510 1246,-504 1252,-504 1252,-504 1313,-504 1313,-504 1319,-504 1325,-510 1325,-516 1325,-516 1325,-528 1325,-528 1325,-534 1319,-540 1313,-540"/>
<text text-anchor="middle" x="1282.5" y="-518.3" font-family="Times,serif" font-size="14.00">FunctionDef</text>
</g>
<!-- ast.Module object at 0x7f5d38a93310&#45;&gt;ast.FunctionDef object at 0x7f5d35b836d0 -->
<g id="edge50" class="edge">
<title>ast.Module object at 0x7f5d38a93310&#45;&gt;ast.FunctionDef object at 0x7f5d35b836d0</title>
<path fill="none" stroke="black" d="M905.1,-587.91C973.55,-576.14 1143.52,-546.9 1230.07,-532.02"/>
<polygon fill="black" stroke="black" points="1230.68,-535.46 1239.94,-530.32 1229.49,-528.57 1230.68,-535.46"/>
</g>
<!-- ast.arguments object at 0x7f5d38a919f0 -->
<g id="node3" class="node">
<title>ast.arguments object at 0x7f5d38a919f0</title>
<path fill="#66cdaa" stroke="black" d="M267.5,-468C267.5,-468 217.5,-468 217.5,-468 211.5,-468 205.5,-462 205.5,-456 205.5,-456 205.5,-444 205.5,-444 205.5,-438 211.5,-432 217.5,-432 217.5,-432 267.5,-432 267.5,-432 273.5,-432 279.5,-438 279.5,-444 279.5,-444 279.5,-456 279.5,-456 279.5,-462 273.5,-468 267.5,-468"/>
<text text-anchor="middle" x="242.5" y="-446.3" font-family="Times,serif" font-size="14.00">arguments</text>
</g>
<!-- ast.FunctionDef object at 0x7f5d38a901f0&#45;&gt;ast.arguments object at 0x7f5d38a919f0 -->
<g id="edge2" class="edge">
<title>ast.FunctionDef object at 0x7f5d38a901f0&#45;&gt;ast.arguments object at 0x7f5d38a919f0</title>
<path fill="none" stroke="black" d="M503.91,-511.19C447.49,-498.2 348.29,-475.36 289.66,-461.86"/>
<polygon fill="black" stroke="black" points="290.09,-458.37 279.56,-459.53 288.52,-465.19 290.09,-458.37"/>
</g>
<!-- ast.Assign object at 0x7f5d35b81ae0 -->
<g id="node5" class="node">
<title>ast.Assign object at 0x7f5d35b81ae0</title>
<path fill="#66cdaa" stroke="black" d="M702.5,-468C702.5,-468 672.5,-468 672.5,-468 666.5,-468 660.5,-462 660.5,-456 660.5,-456 660.5,-444 660.5,-444 660.5,-438 666.5,-432 672.5,-432 672.5,-432 702.5,-432 702.5,-432 708.5,-432 714.5,-438 714.5,-444 714.5,-444 714.5,-456 714.5,-456 714.5,-462 708.5,-468 702.5,-468"/>
<text text-anchor="middle" x="687.5" y="-446.3" font-family="Times,serif" font-size="14.00">Assign</text>
</g>
<!-- ast.FunctionDef object at 0x7f5d38a901f0&#45;&gt;ast.Assign object at 0x7f5d35b81ae0 -->
<g id="edge4" class="edge">
<title>ast.FunctionDef object at 0x7f5d38a901f0&#45;&gt;ast.Assign object at 0x7f5d35b81ae0</title>
<path fill="none" stroke="black" d="M580.99,-503.88C602.3,-493.3 629.6,-479.74 651.23,-469.01"/>
<polygon fill="black" stroke="black" points="653.02,-472.03 660.42,-464.44 649.91,-465.76 653.02,-472.03"/>
</g>
<!-- ast.For object at 0x7f5d35b82e60 -->
<g id="node10" class="node">
<title>ast.For object at 0x7f5d35b82e60</title>
<path fill="#66cdaa" stroke="black" d="M561.5,-468C561.5,-468 531.5,-468 531.5,-468 525.5,-468 519.5,-462 519.5,-456 519.5,-456 519.5,-444 519.5,-444 519.5,-438 525.5,-432 531.5,-432 531.5,-432 561.5,-432 561.5,-432 567.5,-432 573.5,-438 573.5,-444 573.5,-444 573.5,-456 573.5,-456 573.5,-462 567.5,-468 561.5,-468"/>
<text text-anchor="middle" x="546.5" y="-446.3" font-family="Times,serif" font-size="14.00">For</text>
</g>
<!-- ast.FunctionDef object at 0x7f5d38a901f0&#45;&gt;ast.For object at 0x7f5d35b82e60 -->
<g id="edge9" class="edge">
<title>ast.FunctionDef object at 0x7f5d38a901f0&#45;&gt;ast.For object at 0x7f5d35b82e60</title>
<path fill="none" stroke="black" d="M546.5,-503.7C546.5,-495.98 546.5,-486.71 546.5,-478.11"/>
<polygon fill="black" stroke="black" points="550,-478.1 546.5,-468.1 543,-478.1 550,-478.1"/>
</g>
<!-- ast.Return object at 0x7f5d35b81f30 -->
<g id="node32" class="node">
<title>ast.Return object at 0x7f5d35b81f30</title>
<path fill="#66cdaa" stroke="black" d="M439.5,-468C439.5,-468 409.5,-468 409.5,-468 403.5,-468 397.5,-462 397.5,-456 397.5,-456 397.5,-444 397.5,-444 397.5,-438 403.5,-432 409.5,-432 409.5,-432 439.5,-432 439.5,-432 445.5,-432 451.5,-438 451.5,-444 451.5,-444 451.5,-456 451.5,-456 451.5,-462 445.5,-468 439.5,-468"/>
<text text-anchor="middle" x="424.5" y="-446.3" font-family="Times,serif" font-size="14.00">Return</text>
</g>
<!-- ast.FunctionDef object at 0x7f5d38a901f0&#45;&gt;ast.Return object at 0x7f5d35b81f30 -->
<g id="edge42" class="edge">
<title>ast.FunctionDef object at 0x7f5d38a901f0&#45;&gt;ast.Return object at 0x7f5d35b81f30</title>
<path fill="none" stroke="black" d="M516.66,-503.88C499.72,-494.16 478.39,-481.92 460.53,-471.67"/>
<polygon fill="black" stroke="black" points="461.95,-468.46 451.54,-466.51 458.47,-474.53 461.95,-468.46"/>
</g>
<!-- ast.arg object at 0x7f5d38a928c0 -->
<g id="node4" class="node">
<title>ast.arg object at 0x7f5d38a928c0</title>
<path fill="#66cdaa" stroke="black" d="M205.5,-396C205.5,-396 175.5,-396 175.5,-396 169.5,-396 163.5,-390 163.5,-384 163.5,-384 163.5,-372 163.5,-372 163.5,-366 169.5,-360 175.5,-360 175.5,-360 205.5,-360 205.5,-360 211.5,-360 217.5,-366 217.5,-372 217.5,-372 217.5,-384 217.5,-384 217.5,-390 211.5,-396 205.5,-396"/>
<text text-anchor="middle" x="190.5" y="-374.3" font-family="Times,serif" font-size="14.00">arg</text>
</g>
<!-- ast.arguments object at 0x7f5d38a919f0&#45;&gt;ast.arg object at 0x7f5d38a928c0 -->
<g id="edge3" class="edge">
<title>ast.arguments object at 0x7f5d38a919f0&#45;&gt;ast.arg object at 0x7f5d38a928c0</title>
<path fill="none" stroke="black" d="M229.65,-431.7C223.47,-423.39 215.96,-413.28 209.18,-404.14"/>
<polygon fill="black" stroke="black" points="211.98,-402.04 203.21,-396.1 206.36,-406.22 211.98,-402.04"/>
</g>
<!-- ast.Name object at 0x7f5d35b80970 -->
<g id="node6" class="node">
<title>ast.Name object at 0x7f5d35b80970</title>
<path fill="#66cdaa" stroke="black" d="M757.5,-396C757.5,-396 727.5,-396 727.5,-396 721.5,-396 715.5,-390 715.5,-384 715.5,-384 715.5,-372 715.5,-372 715.5,-366 721.5,-360 727.5,-360 727.5,-360 757.5,-360 757.5,-360 763.5,-360 769.5,-366 769.5,-372 769.5,-372 769.5,-384 769.5,-384 769.5,-390 763.5,-396 757.5,-396"/>
<text text-anchor="middle" x="742.5" y="-374.3" font-family="Times,serif" font-size="14.00">Name</text>
</g>
<!-- ast.Assign object at 0x7f5d35b81ae0&#45;&gt;ast.Name object at 0x7f5d35b80970 -->
<g id="edge5" class="edge">
<title>ast.Assign object at 0x7f5d35b81ae0&#45;&gt;ast.Name object at 0x7f5d35b80970</title>
<path fill="none" stroke="black" d="M701.1,-431.7C707.62,-423.39 715.57,-413.28 722.75,-404.14"/>
<polygon fill="black" stroke="black" points="725.63,-406.13 729.06,-396.1 720.13,-401.81 725.63,-406.13"/>
</g>
<!-- ast.List object at 0x7f5d35b81810 -->
<g id="node8" class="node">
<title>ast.List object at 0x7f5d35b81810</title>
<path fill="#66cdaa" stroke="black" d="M763.5,-252C763.5,-252 733.5,-252 733.5,-252 727.5,-252 721.5,-246 721.5,-240 721.5,-240 721.5,-228 721.5,-228 721.5,-222 727.5,-216 733.5,-216 733.5,-216 763.5,-216 763.5,-216 769.5,-216 775.5,-222 775.5,-228 775.5,-228 775.5,-240 775.5,-240 775.5,-246 769.5,-252 763.5,-252"/>
<text text-anchor="middle" x="748.5" y="-230.3" font-family="Times,serif" font-size="14.00">List</text>
</g>
<!-- ast.Assign object at 0x7f5d35b81ae0&#45;&gt;ast.List object at 0x7f5d35b81810 -->
<g id="edge7" class="edge">
<title>ast.Assign object at 0x7f5d35b81ae0&#45;&gt;ast.List object at 0x7f5d35b81810</title>
<path fill="none" stroke="black" d="M686.53,-431.78C685.46,-401.47 686.09,-337.12 706.5,-288 710.73,-277.81 717.52,-267.96 724.41,-259.58"/>
<polygon fill="black" stroke="black" points="727.06,-261.86 730.97,-252.02 721.77,-257.27 727.06,-261.86"/>
</g>
<!-- ast.Store object at 0x7f5d3c5edff0 -->
<g id="node7" class="node">
<title>ast.Store object at 0x7f5d3c5edff0</title>
<path fill="#66cdaa" stroke="black" d="M757.5,-324C757.5,-324 727.5,-324 727.5,-324 721.5,-324 715.5,-318 715.5,-312 715.5,-312 715.5,-300 715.5,-300 715.5,-294 721.5,-288 727.5,-288 727.5,-288 757.5,-288 757.5,-288 763.5,-288 769.5,-294 769.5,-300 769.5,-300 769.5,-312 769.5,-312 769.5,-318 763.5,-324 757.5,-324"/>
<text text-anchor="middle" x="742.5" y="-302.3" font-family="Times,serif" font-size="14.00">Store</text>
</g>
<!-- ast.Name object at 0x7f5d35b80970&#45;&gt;ast.Store object at 0x7f5d3c5edff0 -->
<g id="edge6" class="edge">
<title>ast.Name object at 0x7f5d35b80970&#45;&gt;ast.Store object at 0x7f5d3c5edff0</title>
<path fill="none" stroke="black" d="M742.5,-359.7C742.5,-351.98 742.5,-342.71 742.5,-334.11"/>
<polygon fill="black" stroke="black" points="746,-334.1 742.5,-324.1 739,-334.1 746,-334.1"/>
</g>
<!-- ast.Load object at 0x7f5d3c5edf90 -->
<g id="node9" class="node">
<title>ast.Load object at 0x7f5d3c5edf90</title>
<path fill="#66cdaa" stroke="black" d="M619.5,-36C619.5,-36 589.5,-36 589.5,-36 583.5,-36 577.5,-30 577.5,-24 577.5,-24 577.5,-12 577.5,-12 577.5,-6 583.5,0 589.5,0 589.5,0 619.5,0 619.5,0 625.5,0 631.5,-6 631.5,-12 631.5,-12 631.5,-24 631.5,-24 631.5,-30 625.5,-36 619.5,-36"/>
<text text-anchor="middle" x="604.5" y="-14.3" font-family="Times,serif" font-size="14.00">Load</text>
</g>
<!-- ast.List object at 0x7f5d35b81810&#45;&gt;ast.Load object at 0x7f5d3c5edf90 -->
<g id="edge8" class="edge">
<title>ast.List object at 0x7f5d35b81810&#45;&gt;ast.Load object at 0x7f5d3c5edf90</title>
<path fill="none" stroke="black" d="M757.54,-215.79C772.83,-184.07 799.18,-115.61 767.5,-72 738.97,-32.72 680.59,-21.98 642.01,-19.36"/>
<polygon fill="black" stroke="black" points="641.86,-15.84 631.69,-18.82 641.49,-22.83 641.86,-15.84"/>
</g>
<!-- ast.Name object at 0x7f5d35b805b0 -->
<g id="node11" class="node">
<title>ast.Name object at 0x7f5d35b805b0</title>
<path fill="#66cdaa" stroke="black" d="M642.5,-396C642.5,-396 612.5,-396 612.5,-396 606.5,-396 600.5,-390 600.5,-384 600.5,-384 600.5,-372 600.5,-372 600.5,-366 606.5,-360 612.5,-360 612.5,-360 642.5,-360 642.5,-360 648.5,-360 654.5,-366 654.5,-372 654.5,-372 654.5,-384 654.5,-384 654.5,-390 648.5,-396 642.5,-396"/>
<text text-anchor="middle" x="627.5" y="-374.3" font-family="Times,serif" font-size="14.00">Name</text>
</g>
<!-- ast.For object at 0x7f5d35b82e60&#45;&gt;ast.Name object at 0x7f5d35b805b0 -->
<g id="edge10" class="edge">
<title>ast.For object at 0x7f5d35b82e60&#45;&gt;ast.Name object at 0x7f5d35b805b0</title>
<path fill="none" stroke="black" d="M566.52,-431.7C576.63,-422.97 589.04,-412.24 600.02,-402.75"/>
<polygon fill="black" stroke="black" points="602.43,-405.29 607.71,-396.1 597.85,-399.99 602.43,-405.29"/>
</g>
<!-- ast.Call object at 0x7f5d35b822f0 -->
<g id="node12" class="node">
<title>ast.Call object at 0x7f5d35b822f0</title>
<path fill="#66cdaa" stroke="black" d="M437.5,-396C437.5,-396 407.5,-396 407.5,-396 401.5,-396 395.5,-390 395.5,-384 395.5,-384 395.5,-372 395.5,-372 395.5,-366 401.5,-360 407.5,-360 407.5,-360 437.5,-360 437.5,-360 443.5,-360 449.5,-366 449.5,-372 449.5,-372 449.5,-384 449.5,-384 449.5,-390 443.5,-396 437.5,-396"/>
<text text-anchor="middle" x="422.5" y="-374.3" font-family="Times,serif" font-size="14.00">Call</text>
</g>
<!-- ast.For object at 0x7f5d35b82e60&#45;&gt;ast.Call object at 0x7f5d35b822f0 -->
<g id="edge12" class="edge">
<title>ast.For object at 0x7f5d35b82e60&#45;&gt;ast.Call object at 0x7f5d35b822f0</title>
<path fill="none" stroke="black" d="M519.29,-433.64C501.44,-423.56 477.9,-410.28 458.51,-399.33"/>
<polygon fill="black" stroke="black" points="460.08,-396.19 449.65,-394.33 456.64,-402.29 460.08,-396.19"/>
</g>
<!-- ast.If object at 0x7f5d35b806d0 -->
<g id="node19" class="node">
<title>ast.If object at 0x7f5d35b806d0</title>
<path fill="#66cdaa" stroke="black" d="M561.5,-396C561.5,-396 531.5,-396 531.5,-396 525.5,-396 519.5,-390 519.5,-384 519.5,-384 519.5,-372 519.5,-372 519.5,-366 525.5,-360 531.5,-360 531.5,-360 561.5,-360 561.5,-360 567.5,-360 573.5,-366 573.5,-372 573.5,-372 573.5,-384 573.5,-384 573.5,-390 567.5,-396 561.5,-396"/>
<text text-anchor="middle" x="546.5" y="-374.3" font-family="Times,serif" font-size="14.00">If</text>
</g>
<!-- ast.For object at 0x7f5d35b82e60&#45;&gt;ast.If object at 0x7f5d35b806d0 -->
<g id="edge20" class="edge">
<title>ast.For object at 0x7f5d35b82e60&#45;&gt;ast.If object at 0x7f5d35b806d0</title>
<path fill="none" stroke="black" d="M546.5,-431.7C546.5,-423.98 546.5,-414.71 546.5,-406.11"/>
<polygon fill="black" stroke="black" points="550,-406.1 546.5,-396.1 543,-406.1 550,-406.1"/>
</g>
<!-- ast.Name object at 0x7f5d35b805b0&#45;&gt;ast.Store object at 0x7f5d3c5edff0 -->
<g id="edge11" class="edge">
<title>ast.Name object at 0x7f5d35b805b0&#45;&gt;ast.Store object at 0x7f5d3c5edff0</title>
<path fill="none" stroke="black" d="M654.75,-360.41C670.22,-351 689.77,-339.1 706.49,-328.92"/>
<polygon fill="black" stroke="black" points="708.72,-331.66 715.44,-323.47 705.08,-325.68 708.72,-331.66"/>
</g>
<!-- ast.Name object at 0x7f5d35b83c40 -->
<g id="node13" class="node">
<title>ast.Name object at 0x7f5d35b83c40</title>
<path fill="#66cdaa" stroke="black" d="M315.5,-252C315.5,-252 285.5,-252 285.5,-252 279.5,-252 273.5,-246 273.5,-240 273.5,-240 273.5,-228 273.5,-228 273.5,-222 279.5,-216 285.5,-216 285.5,-216 315.5,-216 315.5,-216 321.5,-216 327.5,-222 327.5,-228 327.5,-228 327.5,-240 327.5,-240 327.5,-246 321.5,-252 315.5,-252"/>
<text text-anchor="middle" x="300.5" y="-230.3" font-family="Times,serif" font-size="14.00">Name</text>
</g>
<!-- ast.Call object at 0x7f5d35b822f0&#45;&gt;ast.Name object at 0x7f5d35b83c40 -->
<g id="edge13" class="edge">
<title>ast.Call object at 0x7f5d35b822f0&#45;&gt;ast.Name object at 0x7f5d35b83c40</title>
<path fill="none" stroke="black" d="M395.25,-364.19C378.03,-354.98 356.31,-341.18 341.5,-324 325.87,-305.87 315.03,-280.78 308.45,-261.86"/>
<polygon fill="black" stroke="black" points="311.76,-260.73 305.3,-252.34 305.11,-262.93 311.76,-260.73"/>
</g>
<!-- ast.Constant object at 0x7f5d35b83940 -->
<g id="node14" class="node">
<title>ast.Constant object at 0x7f5d35b83940</title>
<path fill="#66cdaa" stroke="black" d="M404,-324C404,-324 363,-324 363,-324 357,-324 351,-318 351,-312 351,-312 351,-300 351,-300 351,-294 357,-288 363,-288 363,-288 404,-288 404,-288 410,-288 416,-294 416,-300 416,-300 416,-312 416,-312 416,-318 410,-324 404,-324"/>
<text text-anchor="middle" x="383.5" y="-302.3" font-family="Times,serif" font-size="14.00">Constant</text>
</g>
<!-- ast.Call object at 0x7f5d35b822f0&#45;&gt;ast.Constant object at 0x7f5d35b83940 -->
<g id="edge15" class="edge">
<title>ast.Call object at 0x7f5d35b822f0&#45;&gt;ast.Constant object at 0x7f5d35b83940</title>
<path fill="none" stroke="black" d="M412.86,-359.7C408.37,-351.64 402.94,-341.89 397.98,-332.98"/>
<polygon fill="black" stroke="black" points="400.95,-331.14 393.03,-324.1 394.84,-334.54 400.95,-331.14"/>
</g>
<!-- ast.BinOp object at 0x7f5d35b802e0 -->
<g id="node15" class="node">
<title>ast.BinOp object at 0x7f5d35b802e0</title>
<path fill="#66cdaa" stroke="black" d="M476.5,-324C476.5,-324 446.5,-324 446.5,-324 440.5,-324 434.5,-318 434.5,-312 434.5,-312 434.5,-300 434.5,-300 434.5,-294 440.5,-288 446.5,-288 446.5,-288 476.5,-288 476.5,-288 482.5,-288 488.5,-294 488.5,-300 488.5,-300 488.5,-312 488.5,-312 488.5,-318 482.5,-324 476.5,-324"/>
<text text-anchor="middle" x="461.5" y="-302.3" font-family="Times,serif" font-size="14.00">BinOp</text>
</g>
<!-- ast.Call object at 0x7f5d35b822f0&#45;&gt;ast.BinOp object at 0x7f5d35b802e0 -->
<g id="edge16" class="edge">
<title>ast.Call object at 0x7f5d35b822f0&#45;&gt;ast.BinOp object at 0x7f5d35b802e0</title>
<path fill="none" stroke="black" d="M432.14,-359.7C436.63,-351.64 442.06,-341.89 447.02,-332.98"/>
<polygon fill="black" stroke="black" points="450.16,-334.54 451.97,-324.1 444.05,-331.14 450.16,-334.54"/>
</g>
<!-- ast.Name object at 0x7f5d35b83c40&#45;&gt;ast.Load object at 0x7f5d3c5edf90 -->
<g id="edge14" class="edge">
<title>ast.Name object at 0x7f5d35b83c40&#45;&gt;ast.Load object at 0x7f5d3c5edf90</title>
<path fill="none" stroke="black" d="M289.03,-215.67C283.13,-205.69 276.54,-192.65 273.5,-180 261.9,-131.67 263.88,-103.28 302.5,-72 342.63,-39.49 495.43,-25.82 567.04,-21.1"/>
<polygon fill="black" stroke="black" points="567.64,-24.57 577.4,-20.44 567.2,-17.58 567.64,-24.57"/>
</g>
<!-- ast.Constant object at 0x7f5d35b823b0 -->
<g id="node16" class="node">
<title>ast.Constant object at 0x7f5d35b823b0</title>
<path fill="#66cdaa" stroke="black" d="M399,-252C399,-252 358,-252 358,-252 352,-252 346,-246 346,-240 346,-240 346,-228 346,-228 346,-222 352,-216 358,-216 358,-216 399,-216 399,-216 405,-216 411,-222 411,-228 411,-228 411,-240 411,-240 411,-246 405,-252 399,-252"/>
<text text-anchor="middle" x="378.5" y="-230.3" font-family="Times,serif" font-size="14.00">Constant</text>
</g>
<!-- ast.BinOp object at 0x7f5d35b802e0&#45;&gt;ast.Constant object at 0x7f5d35b823b0 -->
<g id="edge17" class="edge">
<title>ast.BinOp object at 0x7f5d35b802e0&#45;&gt;ast.Constant object at 0x7f5d35b823b0</title>
<path fill="none" stroke="black" d="M440.98,-287.7C430.63,-278.97 417.91,-268.24 406.66,-258.75"/>
<polygon fill="black" stroke="black" points="408.68,-255.88 398.78,-252.1 404.17,-261.23 408.68,-255.88"/>
</g>
<!-- ast.Add object at 0x7f5d3c5ee1d0 -->
<g id="node17" class="node">
<title>ast.Add object at 0x7f5d3c5ee1d0</title>
<path fill="#66cdaa" stroke="black" d="M894.5,-252C894.5,-252 864.5,-252 864.5,-252 858.5,-252 852.5,-246 852.5,-240 852.5,-240 852.5,-228 852.5,-228 852.5,-222 858.5,-216 864.5,-216 864.5,-216 894.5,-216 894.5,-216 900.5,-216 906.5,-222 906.5,-228 906.5,-228 906.5,-240 906.5,-240 906.5,-246 900.5,-252 894.5,-252"/>
<text text-anchor="middle" x="879.5" y="-230.3" font-family="Times,serif" font-size="14.00">Add</text>
</g>
<!-- ast.BinOp object at 0x7f5d35b802e0&#45;&gt;ast.Add object at 0x7f5d3c5ee1d0 -->
<g id="edge18" class="edge">
<title>ast.BinOp object at 0x7f5d35b802e0&#45;&gt;ast.Add object at 0x7f5d3c5ee1d0</title>
<path fill="none" stroke="black" d="M488.75,-300.67C544.37,-291.79 675,-270.78 784.5,-252 803.69,-248.71 825.03,-244.9 842.62,-241.73"/>
<polygon fill="black" stroke="black" points="843.28,-245.17 852.49,-239.94 842.03,-238.28 843.28,-245.17"/>
</g>
<!-- ast.Constant object at 0x7f5d35b81690 -->
<g id="node18" class="node">
<title>ast.Constant object at 0x7f5d35b81690</title>
<path fill="#66cdaa" stroke="black" d="M482,-252C482,-252 441,-252 441,-252 435,-252 429,-246 429,-240 429,-240 429,-228 429,-228 429,-222 435,-216 441,-216 441,-216 482,-216 482,-216 488,-216 494,-222 494,-228 494,-228 494,-240 494,-240 494,-246 488,-252 482,-252"/>
<text text-anchor="middle" x="461.5" y="-230.3" font-family="Times,serif" font-size="14.00">Constant</text>
</g>
<!-- ast.BinOp object at 0x7f5d35b802e0&#45;&gt;ast.Constant object at 0x7f5d35b81690 -->
<g id="edge19" class="edge">
<title>ast.BinOp object at 0x7f5d35b802e0&#45;&gt;ast.Constant object at 0x7f5d35b81690</title>
<path fill="none" stroke="black" d="M461.5,-287.7C461.5,-279.98 461.5,-270.71 461.5,-262.11"/>
<polygon fill="black" stroke="black" points="465,-262.1 461.5,-252.1 458,-262.1 465,-262.1"/>
</g>
<!-- ast.Call object at 0x7f5d35b82f20 -->
<g id="node20" class="node">
<title>ast.Call object at 0x7f5d35b82f20</title>
<path fill="#66cdaa" stroke="black" d="M554.5,-252C554.5,-252 524.5,-252 524.5,-252 518.5,-252 512.5,-246 512.5,-240 512.5,-240 512.5,-228 512.5,-228 512.5,-222 518.5,-216 524.5,-216 524.5,-216 554.5,-216 554.5,-216 560.5,-216 566.5,-222 566.5,-228 566.5,-228 566.5,-240 566.5,-240 566.5,-246 560.5,-252 554.5,-252"/>
<text text-anchor="middle" x="539.5" y="-230.3" font-family="Times,serif" font-size="14.00">Call</text>
</g>
<!-- ast.If object at 0x7f5d35b806d0&#45;&gt;ast.Call object at 0x7f5d35b82f20 -->
<g id="edge21" class="edge">
<title>ast.If object at 0x7f5d35b806d0&#45;&gt;ast.Call object at 0x7f5d35b82f20</title>
<path fill="none" stroke="black" d="M545.66,-359.87C544.46,-335.67 542.27,-291.21 540.85,-262.39"/>
<polygon fill="black" stroke="black" points="544.34,-262 540.35,-252.19 537.34,-262.35 544.34,-262"/>
</g>
<!-- ast.Expr object at 0x7f5d35b82fb0 -->
<g id="node25" class="node">
<title>ast.Expr object at 0x7f5d35b82fb0</title>
<path fill="#66cdaa" stroke="black" d="M622.5,-324C622.5,-324 592.5,-324 592.5,-324 586.5,-324 580.5,-318 580.5,-312 580.5,-312 580.5,-300 580.5,-300 580.5,-294 586.5,-288 592.5,-288 592.5,-288 622.5,-288 622.5,-288 628.5,-288 634.5,-294 634.5,-300 634.5,-300 634.5,-312 634.5,-312 634.5,-318 628.5,-324 622.5,-324"/>
<text text-anchor="middle" x="607.5" y="-302.3" font-family="Times,serif" font-size="14.00">Expr</text>
</g>
<!-- ast.If object at 0x7f5d35b806d0&#45;&gt;ast.Expr object at 0x7f5d35b82fb0 -->
<g id="edge30" class="edge">
<title>ast.If object at 0x7f5d35b806d0&#45;&gt;ast.Expr object at 0x7f5d35b82fb0</title>
<path fill="none" stroke="black" d="M561.58,-359.7C568.89,-351.3 577.81,-341.07 585.84,-331.86"/>
<polygon fill="black" stroke="black" points="588.66,-333.94 592.59,-324.1 583.39,-329.34 588.66,-333.94"/>
</g>
<!-- ast.Name object at 0x7f5d35b809d0 -->
<g id="node21" class="node">
<title>ast.Name object at 0x7f5d35b809d0</title>
<path fill="#66cdaa" stroke="black" d="M324.5,-180C324.5,-180 294.5,-180 294.5,-180 288.5,-180 282.5,-174 282.5,-168 282.5,-168 282.5,-156 282.5,-156 282.5,-150 288.5,-144 294.5,-144 294.5,-144 324.5,-144 324.5,-144 330.5,-144 336.5,-150 336.5,-156 336.5,-156 336.5,-168 336.5,-168 336.5,-174 330.5,-180 324.5,-180"/>
<text text-anchor="middle" x="309.5" y="-158.3" font-family="Times,serif" font-size="14.00">Name</text>
</g>
<!-- ast.Call object at 0x7f5d35b82f20&#45;&gt;ast.Name object at 0x7f5d35b809d0 -->
<g id="edge22" class="edge">
<title>ast.Call object at 0x7f5d35b82f20&#45;&gt;ast.Name object at 0x7f5d35b809d0</title>
<path fill="none" stroke="black" d="M512.23,-219.87C508.98,-218.49 505.69,-217.16 502.5,-216 473.91,-205.58 394.1,-184.61 346.54,-172.4"/>
<polygon fill="black" stroke="black" points="347.18,-168.95 336.62,-169.87 345.44,-175.74 347.18,-168.95"/>
</g>
<!-- ast.Subscript object at 0x7f5d35b837c0 -->
<g id="node22" class="node">
<title>ast.Subscript object at 0x7f5d35b837c0</title>
<path fill="#66cdaa" stroke="black" d="M444.5,-180C444.5,-180 400.5,-180 400.5,-180 394.5,-180 388.5,-174 388.5,-168 388.5,-168 388.5,-156 388.5,-156 388.5,-150 394.5,-144 400.5,-144 400.5,-144 444.5,-144 444.5,-144 450.5,-144 456.5,-150 456.5,-156 456.5,-156 456.5,-168 456.5,-168 456.5,-174 450.5,-180 444.5,-180"/>
<text text-anchor="middle" x="422.5" y="-158.3" font-family="Times,serif" font-size="14.00">Subscript</text>
</g>
<!-- ast.Call object at 0x7f5d35b82f20&#45;&gt;ast.Subscript object at 0x7f5d35b837c0 -->
<g id="edge24" class="edge">
<title>ast.Call object at 0x7f5d35b82f20&#45;&gt;ast.Subscript object at 0x7f5d35b837c0</title>
<path fill="none" stroke="black" d="M512.36,-216.76C496.73,-207.41 476.85,-195.52 459.76,-185.29"/>
<polygon fill="black" stroke="black" points="461.5,-182.25 451.12,-180.12 457.91,-188.26 461.5,-182.25"/>
</g>
<!-- ast.Name object at 0x7f5d35b809d0&#45;&gt;ast.Load object at 0x7f5d3c5edf90 -->
<g id="edge23" class="edge">
<title>ast.Name object at 0x7f5d35b809d0&#45;&gt;ast.Load object at 0x7f5d3c5edf90</title>
<path fill="none" stroke="black" d="M306.43,-143.77C303.93,-123.77 303.35,-91.1 321.5,-72 354.66,-37.1 498.13,-24.71 567.14,-20.72"/>
<polygon fill="black" stroke="black" points="567.36,-24.21 577.15,-20.17 566.98,-17.22 567.36,-24.21"/>
</g>
<!-- ast.Subscript object at 0x7f5d35b837c0&#45;&gt;ast.Load object at 0x7f5d3c5edf90 -->
<g id="edge29" class="edge">
<title>ast.Subscript object at 0x7f5d35b837c0&#45;&gt;ast.Load object at 0x7f5d3c5edf90</title>
<path fill="none" stroke="black" d="M388.06,-150.65C367.71,-142.56 343.62,-129.08 331.5,-108 323.53,-94.13 321.32,-84.34 331.5,-72 360.95,-36.29 499.43,-24.34 567.1,-20.59"/>
<polygon fill="black" stroke="black" points="567.52,-24.07 577.32,-20.06 567.16,-17.08 567.52,-24.07"/>
</g>
<!-- ast.Name object at 0x7f5d35b83010 -->
<g id="node23" class="node">
<title>ast.Name object at 0x7f5d35b83010</title>
<path fill="#66cdaa" stroke="black" d="M382.5,-108C382.5,-108 352.5,-108 352.5,-108 346.5,-108 340.5,-102 340.5,-96 340.5,-96 340.5,-84 340.5,-84 340.5,-78 346.5,-72 352.5,-72 352.5,-72 382.5,-72 382.5,-72 388.5,-72 394.5,-78 394.5,-84 394.5,-84 394.5,-96 394.5,-96 394.5,-102 388.5,-108 382.5,-108"/>
<text text-anchor="middle" x="367.5" y="-86.3" font-family="Times,serif" font-size="14.00">Name</text>
</g>
<!-- ast.Subscript object at 0x7f5d35b837c0&#45;&gt;ast.Name object at 0x7f5d35b83010 -->
<g id="edge25" class="edge">
<title>ast.Subscript object at 0x7f5d35b837c0&#45;&gt;ast.Name object at 0x7f5d35b83010</title>
<path fill="none" stroke="black" d="M408.9,-143.7C402.38,-135.39 394.43,-125.28 387.25,-116.14"/>
<polygon fill="black" stroke="black" points="389.87,-113.81 380.94,-108.1 384.37,-118.13 389.87,-113.81"/>
</g>
<!-- ast.Name object at 0x7f5d35b83f40 -->
<g id="node24" class="node">
<title>ast.Name object at 0x7f5d35b83f40</title>
<path fill="#66cdaa" stroke="black" d="M454.5,-108C454.5,-108 424.5,-108 424.5,-108 418.5,-108 412.5,-102 412.5,-96 412.5,-96 412.5,-84 412.5,-84 412.5,-78 418.5,-72 424.5,-72 424.5,-72 454.5,-72 454.5,-72 460.5,-72 466.5,-78 466.5,-84 466.5,-84 466.5,-96 466.5,-96 466.5,-102 460.5,-108 454.5,-108"/>
<text text-anchor="middle" x="439.5" y="-86.3" font-family="Times,serif" font-size="14.00">Name</text>
</g>
<!-- ast.Subscript object at 0x7f5d35b837c0&#45;&gt;ast.Name object at 0x7f5d35b83f40 -->
<g id="edge27" class="edge">
<title>ast.Subscript object at 0x7f5d35b837c0&#45;&gt;ast.Name object at 0x7f5d35b83f40</title>
<path fill="none" stroke="black" d="M426.7,-143.7C428.6,-135.9 430.88,-126.51 432.98,-117.83"/>
<polygon fill="black" stroke="black" points="436.39,-118.65 435.35,-108.1 429.58,-117 436.39,-118.65"/>
</g>
<!-- ast.Name object at 0x7f5d35b83010&#45;&gt;ast.Load object at 0x7f5d3c5edf90 -->
<g id="edge26" class="edge">
<title>ast.Name object at 0x7f5d35b83010&#45;&gt;ast.Load object at 0x7f5d3c5edf90</title>
<path fill="none" stroke="black" d="M394.8,-75.48C397.7,-74.23 400.64,-73.04 403.5,-72 459.45,-51.61 526.79,-35.48 567.58,-26.6"/>
<polygon fill="black" stroke="black" points="568.32,-30.02 577.36,-24.5 566.85,-23.18 568.32,-30.02"/>
</g>
<!-- ast.Name object at 0x7f5d35b83f40&#45;&gt;ast.Load object at 0x7f5d3c5edf90 -->
<g id="edge28" class="edge">
<title>ast.Name object at 0x7f5d35b83f40&#45;&gt;ast.Load object at 0x7f5d3c5edf90</title>
<path fill="none" stroke="black" d="M466.56,-76.04C469.57,-74.65 472.59,-73.28 475.5,-72 506.34,-58.39 541.79,-43.91 567.71,-33.53"/>
<polygon fill="black" stroke="black" points="569.16,-36.72 577.15,-29.76 566.56,-30.22 569.16,-36.72"/>
</g>
<!-- ast.Call object at 0x7f5d35b80760 -->
<g id="node26" class="node">
<title>ast.Call object at 0x7f5d35b80760</title>
<path fill="#66cdaa" stroke="black" d="M626.5,-252C626.5,-252 596.5,-252 596.5,-252 590.5,-252 584.5,-246 584.5,-240 584.5,-240 584.5,-228 584.5,-228 584.5,-222 590.5,-216 596.5,-216 596.5,-216 626.5,-216 626.5,-216 632.5,-216 638.5,-222 638.5,-228 638.5,-228 638.5,-240 638.5,-240 638.5,-246 632.5,-252 626.5,-252"/>
<text text-anchor="middle" x="611.5" y="-230.3" font-family="Times,serif" font-size="14.00">Call</text>
</g>
<!-- ast.Expr object at 0x7f5d35b82fb0&#45;&gt;ast.Call object at 0x7f5d35b80760 -->
<g id="edge31" class="edge">
<title>ast.Expr object at 0x7f5d35b82fb0&#45;&gt;ast.Call object at 0x7f5d35b80760</title>
<path fill="none" stroke="black" d="M608.49,-287.7C608.93,-279.98 609.46,-270.71 609.95,-262.11"/>
<polygon fill="black" stroke="black" points="613.45,-262.29 610.52,-252.1 606.46,-261.89 613.45,-262.29"/>
</g>
<!-- ast.Attribute object at 0x7f5d35b81090 -->
<g id="node27" class="node">
<title>ast.Attribute object at 0x7f5d35b81090</title>
<path fill="#66cdaa" stroke="black" d="M587,-180C587,-180 546,-180 546,-180 540,-180 534,-174 534,-168 534,-168 534,-156 534,-156 534,-150 540,-144 546,-144 546,-144 587,-144 587,-144 593,-144 599,-150 599,-156 599,-156 599,-168 599,-168 599,-174 593,-180 587,-180"/>
<text text-anchor="middle" x="566.5" y="-158.3" font-family="Times,serif" font-size="14.00">Attribute</text>
</g>
<!-- ast.Call object at 0x7f5d35b80760&#45;&gt;ast.Attribute object at 0x7f5d35b81090 -->
<g id="edge32" class="edge">
<title>ast.Call object at 0x7f5d35b80760&#45;&gt;ast.Attribute object at 0x7f5d35b81090</title>
<path fill="none" stroke="black" d="M600.38,-215.7C595.14,-207.56 588.8,-197.69 583.02,-188.7"/>
<polygon fill="black" stroke="black" points="585.85,-186.62 577.5,-180.1 579.96,-190.41 585.85,-186.62"/>
</g>
<!-- ast.Subscript object at 0x7f5d35b831c0 -->
<g id="node29" class="node">
<title>ast.Subscript object at 0x7f5d35b831c0</title>
<path fill="#66cdaa" stroke="black" d="M677.5,-180C677.5,-180 633.5,-180 633.5,-180 627.5,-180 621.5,-174 621.5,-168 621.5,-168 621.5,-156 621.5,-156 621.5,-150 627.5,-144 633.5,-144 633.5,-144 677.5,-144 677.5,-144 683.5,-144 689.5,-150 689.5,-156 689.5,-156 689.5,-168 689.5,-168 689.5,-174 683.5,-180 677.5,-180"/>
<text text-anchor="middle" x="655.5" y="-158.3" font-family="Times,serif" font-size="14.00">Subscript</text>
</g>
<!-- ast.Call object at 0x7f5d35b80760&#45;&gt;ast.Subscript object at 0x7f5d35b831c0 -->
<g id="edge36" class="edge">
<title>ast.Call object at 0x7f5d35b80760&#45;&gt;ast.Subscript object at 0x7f5d35b831c0</title>
<path fill="none" stroke="black" d="M622.38,-215.7C627.49,-207.56 633.7,-197.69 639.34,-188.7"/>
<polygon fill="black" stroke="black" points="642.39,-190.43 644.75,-180.1 636.46,-186.71 642.39,-190.43"/>
</g>
<!-- ast.Attribute object at 0x7f5d35b81090&#45;&gt;ast.Load object at 0x7f5d3c5edf90 -->
<g id="edge35" class="edge">
<title>ast.Attribute object at 0x7f5d35b81090&#45;&gt;ast.Load object at 0x7f5d3c5edf90</title>
<path fill="none" stroke="black" d="M571.08,-143.87C577.59,-119.56 589.56,-74.82 597.27,-46.01"/>
<polygon fill="black" stroke="black" points="600.7,-46.75 599.9,-36.19 593.93,-44.94 600.7,-46.75"/>
</g>
<!-- ast.Name object at 0x7f5d35b81e10 -->
<g id="node28" class="node">
<title>ast.Name object at 0x7f5d35b81e10</title>
<path fill="#66cdaa" stroke="black" d="M526.5,-108C526.5,-108 496.5,-108 496.5,-108 490.5,-108 484.5,-102 484.5,-96 484.5,-96 484.5,-84 484.5,-84 484.5,-78 490.5,-72 496.5,-72 496.5,-72 526.5,-72 526.5,-72 532.5,-72 538.5,-78 538.5,-84 538.5,-84 538.5,-96 538.5,-96 538.5,-102 532.5,-108 526.5,-108"/>
<text text-anchor="middle" x="511.5" y="-86.3" font-family="Times,serif" font-size="14.00">Name</text>
</g>
<!-- ast.Attribute object at 0x7f5d35b81090&#45;&gt;ast.Name object at 0x7f5d35b81e10 -->
<g id="edge33" class="edge">
<title>ast.Attribute object at 0x7f5d35b81090&#45;&gt;ast.Name object at 0x7f5d35b81e10</title>
<path fill="none" stroke="black" d="M552.9,-143.7C546.38,-135.39 538.43,-125.28 531.25,-116.14"/>
<polygon fill="black" stroke="black" points="533.87,-113.81 524.94,-108.1 528.37,-118.13 533.87,-113.81"/>
</g>
<!-- ast.Name object at 0x7f5d35b81e10&#45;&gt;ast.Load object at 0x7f5d3c5edf90 -->
<g id="edge34" class="edge">
<title>ast.Name object at 0x7f5d35b81e10&#45;&gt;ast.Load object at 0x7f5d3c5edf90</title>
<path fill="none" stroke="black" d="M534.49,-71.7C546.31,-62.8 560.89,-51.82 573.68,-42.2"/>
<polygon fill="black" stroke="black" points="575.89,-44.91 581.78,-36.1 571.68,-39.32 575.89,-44.91"/>
</g>
<!-- ast.Subscript object at 0x7f5d35b831c0&#45;&gt;ast.Load object at 0x7f5d3c5edf90 -->
<g id="edge41" class="edge">
<title>ast.Subscript object at 0x7f5d35b831c0&#45;&gt;ast.Load object at 0x7f5d3c5edf90</title>
<path fill="none" stroke="black" d="M642.98,-143.62C636.31,-133.63 628.48,-120.59 623.5,-108 615.62,-88.08 610.75,-64.28 607.92,-46.31"/>
<polygon fill="black" stroke="black" points="611.36,-45.61 606.45,-36.22 604.43,-46.62 611.36,-45.61"/>
</g>
<!-- ast.Name object at 0x7f5d35b82470 -->
<g id="node30" class="node">
<title>ast.Name object at 0x7f5d35b82470</title>
<path fill="#66cdaa" stroke="black" d="M674.5,-108C674.5,-108 644.5,-108 644.5,-108 638.5,-108 632.5,-102 632.5,-96 632.5,-96 632.5,-84 632.5,-84 632.5,-78 638.5,-72 644.5,-72 644.5,-72 674.5,-72 674.5,-72 680.5,-72 686.5,-78 686.5,-84 686.5,-84 686.5,-96 686.5,-96 686.5,-102 680.5,-108 674.5,-108"/>
<text text-anchor="middle" x="659.5" y="-86.3" font-family="Times,serif" font-size="14.00">Name</text>
</g>
<!-- ast.Subscript object at 0x7f5d35b831c0&#45;&gt;ast.Name object at 0x7f5d35b82470 -->
<g id="edge37" class="edge">
<title>ast.Subscript object at 0x7f5d35b831c0&#45;&gt;ast.Name object at 0x7f5d35b82470</title>
<path fill="none" stroke="black" d="M656.49,-143.7C656.93,-135.98 657.46,-126.71 657.95,-118.11"/>
<polygon fill="black" stroke="black" points="661.45,-118.29 658.52,-108.1 654.46,-117.89 661.45,-118.29"/>
</g>
<!-- ast.Name object at 0x7f5d35b81150 -->
<g id="node31" class="node">
<title>ast.Name object at 0x7f5d35b81150</title>
<path fill="#66cdaa" stroke="black" d="M746.5,-108C746.5,-108 716.5,-108 716.5,-108 710.5,-108 704.5,-102 704.5,-96 704.5,-96 704.5,-84 704.5,-84 704.5,-78 710.5,-72 716.5,-72 716.5,-72 746.5,-72 746.5,-72 752.5,-72 758.5,-78 758.5,-84 758.5,-84 758.5,-96 758.5,-96 758.5,-102 752.5,-108 746.5,-108"/>
<text text-anchor="middle" x="731.5" y="-86.3" font-family="Times,serif" font-size="14.00">Name</text>
</g>
<!-- ast.Subscript object at 0x7f5d35b831c0&#45;&gt;ast.Name object at 0x7f5d35b81150 -->
<g id="edge39" class="edge">
<title>ast.Subscript object at 0x7f5d35b831c0&#45;&gt;ast.Name object at 0x7f5d35b81150</title>
<path fill="none" stroke="black" d="M674.29,-143.7C683.67,-135.05 695.18,-124.45 705.41,-115.03"/>
<polygon fill="black" stroke="black" points="707.95,-117.45 712.93,-108.1 703.2,-112.3 707.95,-117.45"/>
</g>
<!-- ast.Name object at 0x7f5d35b82470&#45;&gt;ast.Load object at 0x7f5d3c5edf90 -->
<g id="edge38" class="edge">
<title>ast.Name object at 0x7f5d35b82470&#45;&gt;ast.Load object at 0x7f5d3c5edf90</title>
<path fill="none" stroke="black" d="M645.9,-71.7C639.38,-63.39 631.43,-53.28 624.25,-44.14"/>
<polygon fill="black" stroke="black" points="626.87,-41.81 617.94,-36.1 621.37,-46.13 626.87,-41.81"/>
</g>
<!-- ast.Name object at 0x7f5d35b81150&#45;&gt;ast.Load object at 0x7f5d3c5edf90 -->
<g id="edge40" class="edge">
<title>ast.Name object at 0x7f5d35b81150&#45;&gt;ast.Load object at 0x7f5d3c5edf90</title>
<path fill="none" stroke="black" d="M704.26,-73.98C685.67,-63.74 660.86,-50.07 640.63,-38.92"/>
<polygon fill="black" stroke="black" points="642.15,-35.75 631.7,-33.99 638.77,-41.88 642.15,-35.75"/>
</g>
<!-- ast.Call object at 0x7f5d35b839a0 -->
<g id="node33" class="node">
<title>ast.Call object at 0x7f5d35b839a0</title>
<path fill="#66cdaa" stroke="black" d="M160.5,-180C160.5,-180 130.5,-180 130.5,-180 124.5,-180 118.5,-174 118.5,-168 118.5,-168 118.5,-156 118.5,-156 118.5,-150 124.5,-144 130.5,-144 130.5,-144 160.5,-144 160.5,-144 166.5,-144 172.5,-150 172.5,-156 172.5,-156 172.5,-168 172.5,-168 172.5,-174 166.5,-180 160.5,-180"/>
<text text-anchor="middle" x="145.5" y="-158.3" font-family="Times,serif" font-size="14.00">Call</text>
</g>
<!-- ast.Return object at 0x7f5d35b81f30&#45;&gt;ast.Call object at 0x7f5d35b839a0 -->
<g id="edge43" class="edge">
<title>ast.Return object at 0x7f5d35b81f30&#45;&gt;ast.Call object at 0x7f5d35b839a0</title>
<path fill="none" stroke="black" d="M407.88,-431.97C360.6,-383.5 225.17,-244.67 169.67,-187.77"/>
<polygon fill="black" stroke="black" points="171.87,-185.02 162.38,-180.31 166.86,-189.91 171.87,-185.02"/>
</g>
<!-- ast.Name object at 0x7f5d35b83b50 -->
<g id="node34" class="node">
<title>ast.Name object at 0x7f5d35b83b50</title>
<path fill="#66cdaa" stroke="black" d="M124.5,-108C124.5,-108 94.5,-108 94.5,-108 88.5,-108 82.5,-102 82.5,-96 82.5,-96 82.5,-84 82.5,-84 82.5,-78 88.5,-72 94.5,-72 94.5,-72 124.5,-72 124.5,-72 130.5,-72 136.5,-78 136.5,-84 136.5,-84 136.5,-96 136.5,-96 136.5,-102 130.5,-108 124.5,-108"/>
<text text-anchor="middle" x="109.5" y="-86.3" font-family="Times,serif" font-size="14.00">Name</text>
</g>
<!-- ast.Call object at 0x7f5d35b839a0&#45;&gt;ast.Name object at 0x7f5d35b83b50 -->
<g id="edge44" class="edge">
<title>ast.Call object at 0x7f5d35b839a0&#45;&gt;ast.Name object at 0x7f5d35b83b50</title>
<path fill="none" stroke="black" d="M136.6,-143.7C132.5,-135.73 127.55,-126.1 123.01,-117.26"/>
<polygon fill="black" stroke="black" points="125.98,-115.4 118.3,-108.1 119.76,-118.6 125.98,-115.4"/>
</g>
<!-- ast.Name object at 0x7f5d35b82bf0 -->
<g id="node35" class="node">
<title>ast.Name object at 0x7f5d35b82bf0</title>
<path fill="#66cdaa" stroke="black" d="M196.5,-108C196.5,-108 166.5,-108 166.5,-108 160.5,-108 154.5,-102 154.5,-96 154.5,-96 154.5,-84 154.5,-84 154.5,-78 160.5,-72 166.5,-72 166.5,-72 196.5,-72 196.5,-72 202.5,-72 208.5,-78 208.5,-84 208.5,-84 208.5,-96 208.5,-96 208.5,-102 202.5,-108 196.5,-108"/>
<text text-anchor="middle" x="181.5" y="-86.3" font-family="Times,serif" font-size="14.00">Name</text>
</g>
<!-- ast.Call object at 0x7f5d35b839a0&#45;&gt;ast.Name object at 0x7f5d35b82bf0 -->
<g id="edge46" class="edge">
<title>ast.Call object at 0x7f5d35b839a0&#45;&gt;ast.Name object at 0x7f5d35b82bf0</title>
<path fill="none" stroke="black" d="M154.4,-143.7C158.5,-135.73 163.45,-126.1 167.99,-117.26"/>
<polygon fill="black" stroke="black" points="171.24,-118.6 172.7,-108.1 165.02,-115.4 171.24,-118.6"/>
</g>
<!-- ast.keyword object at 0x7f5d35b82560 -->
<g id="node36" class="node">
<title>ast.keyword object at 0x7f5d35b82560</title>
<path fill="#66cdaa" stroke="black" d="M52.5,-108C52.5,-108 12.5,-108 12.5,-108 6.5,-108 0.5,-102 0.5,-96 0.5,-96 0.5,-84 0.5,-84 0.5,-78 6.5,-72 12.5,-72 12.5,-72 52.5,-72 52.5,-72 58.5,-72 64.5,-78 64.5,-84 64.5,-84 64.5,-96 64.5,-96 64.5,-102 58.5,-108 52.5,-108"/>
<text text-anchor="middle" x="32.5" y="-86.3" font-family="Times,serif" font-size="14.00">keyword</text>
</g>
<!-- ast.Call object at 0x7f5d35b839a0&#45;&gt;ast.keyword object at 0x7f5d35b82560 -->
<g id="edge48" class="edge">
<title>ast.Call object at 0x7f5d35b839a0&#45;&gt;ast.keyword object at 0x7f5d35b82560</title>
<path fill="none" stroke="black" d="M118.43,-144.23C103.56,-135.02 84.91,-123.47 68.79,-113.48"/>
<polygon fill="black" stroke="black" points="70.47,-110.41 60.13,-108.12 66.79,-116.36 70.47,-110.41"/>
</g>
<!-- ast.Name object at 0x7f5d35b83b50&#45;&gt;ast.Load object at 0x7f5d3c5edf90 -->
<g id="edge45" class="edge">
<title>ast.Name object at 0x7f5d35b83b50&#45;&gt;ast.Load object at 0x7f5d3c5edf90</title>
<path fill="none" stroke="black" d="M136.66,-75.05C139.59,-73.88 142.58,-72.83 145.5,-72 297.45,-28.62 487.32,-20.62 566.79,-19.24"/>
<polygon fill="black" stroke="black" points="567.31,-22.73 577.26,-19.08 567.21,-15.73 567.31,-22.73"/>
</g>
<!-- ast.Name object at 0x7f5d35b82bf0&#45;&gt;ast.Load object at 0x7f5d3c5edf90 -->
<g id="edge47" class="edge">
<title>ast.Name object at 0x7f5d35b82bf0&#45;&gt;ast.Load object at 0x7f5d3c5edf90</title>
<path fill="none" stroke="black" d="M208.51,-76.67C213.11,-74.9 217.89,-73.25 222.5,-72 345.77,-38.49 497.48,-25.49 566.77,-21.04"/>
<polygon fill="black" stroke="black" points="567.4,-24.51 577.16,-20.4 566.97,-17.52 567.4,-24.51"/>
</g>
<!-- ast.Constant object at 0x7f5d35b83eb0 -->
<g id="node37" class="node">
<title>ast.Constant object at 0x7f5d35b83eb0</title>
<path fill="#66cdaa" stroke="black" d="M53,-36C53,-36 12,-36 12,-36 6,-36 0,-30 0,-24 0,-24 0,-12 0,-12 0,-6 6,0 12,0 12,0 53,0 53,0 59,0 65,-6 65,-12 65,-12 65,-24 65,-24 65,-30 59,-36 53,-36"/>
<text text-anchor="middle" x="32.5" y="-14.3" font-family="Times,serif" font-size="14.00">Constant</text>
</g>
<!-- ast.keyword object at 0x7f5d35b82560&#45;&gt;ast.Constant object at 0x7f5d35b83eb0 -->
<g id="edge49" class="edge">
<title>ast.keyword object at 0x7f5d35b82560&#45;&gt;ast.Constant object at 0x7f5d35b83eb0</title>
<path fill="none" stroke="black" d="M32.5,-71.7C32.5,-63.98 32.5,-54.71 32.5,-46.11"/>
<polygon fill="black" stroke="black" points="36,-46.1 32.5,-36.1 29,-46.1 36,-46.1"/>
</g>
<!-- ast.arguments object at 0x7f5d35b823e0 -->
<g id="node39" class="node">
<title>ast.arguments object at 0x7f5d35b823e0</title>
<path fill="#66cdaa" stroke="black" d="M1421.5,-468C1421.5,-468 1371.5,-468 1371.5,-468 1365.5,-468 1359.5,-462 1359.5,-456 1359.5,-456 1359.5,-444 1359.5,-444 1359.5,-438 1365.5,-432 1371.5,-432 1371.5,-432 1421.5,-432 1421.5,-432 1427.5,-432 1433.5,-438 1433.5,-444 1433.5,-444 1433.5,-456 1433.5,-456 1433.5,-462 1427.5,-468 1421.5,-468"/>
<text text-anchor="middle" x="1396.5" y="-446.3" font-family="Times,serif" font-size="14.00">arguments</text>
</g>
<!-- ast.FunctionDef object at 0x7f5d35b836d0&#45;&gt;ast.arguments object at 0x7f5d35b823e0 -->
<g id="edge51" class="edge">
<title>ast.FunctionDef object at 0x7f5d35b836d0&#45;&gt;ast.arguments object at 0x7f5d35b823e0</title>
<path fill="none" stroke="black" d="M1310.39,-503.88C1325.29,-494.72 1343.83,-483.34 1359.88,-473.48"/>
<polygon fill="black" stroke="black" points="1361.81,-476.41 1368.51,-468.19 1358.15,-470.44 1361.81,-476.41"/>
</g>
<!-- ast.If object at 0x7f5d35b83c10 -->
<g id="node41" class="node">
<title>ast.If object at 0x7f5d35b83c10</title>
<path fill="#66cdaa" stroke="black" d="M1297.5,-468C1297.5,-468 1267.5,-468 1267.5,-468 1261.5,-468 1255.5,-462 1255.5,-456 1255.5,-456 1255.5,-444 1255.5,-444 1255.5,-438 1261.5,-432 1267.5,-432 1267.5,-432 1297.5,-432 1297.5,-432 1303.5,-432 1309.5,-438 1309.5,-444 1309.5,-444 1309.5,-456 1309.5,-456 1309.5,-462 1303.5,-468 1297.5,-468"/>
<text text-anchor="middle" x="1282.5" y="-446.3" font-family="Times,serif" font-size="14.00">If</text>
</g>
<!-- ast.FunctionDef object at 0x7f5d35b836d0&#45;&gt;ast.If object at 0x7f5d35b83c10 -->
<g id="edge53" class="edge">
<title>ast.FunctionDef object at 0x7f5d35b836d0&#45;&gt;ast.If object at 0x7f5d35b83c10</title>
<path fill="none" stroke="black" d="M1282.5,-503.7C1282.5,-495.98 1282.5,-486.71 1282.5,-478.11"/>
<polygon fill="black" stroke="black" points="1286,-478.1 1282.5,-468.1 1279,-478.1 1286,-478.1"/>
</g>
<!-- ast.For object at 0x7f5cf44e0c70 -->
<g id="node48" class="node">
<title>ast.For object at 0x7f5cf44e0c70</title>
<path fill="#66cdaa" stroke="black" d="M1021.5,-468C1021.5,-468 991.5,-468 991.5,-468 985.5,-468 979.5,-462 979.5,-456 979.5,-456 979.5,-444 979.5,-444 979.5,-438 985.5,-432 991.5,-432 991.5,-432 1021.5,-432 1021.5,-432 1027.5,-432 1033.5,-438 1033.5,-444 1033.5,-444 1033.5,-456 1033.5,-456 1033.5,-462 1027.5,-468 1021.5,-468"/>
<text text-anchor="middle" x="1006.5" y="-446.3" font-family="Times,serif" font-size="14.00">For</text>
</g>
<!-- ast.FunctionDef object at 0x7f5d35b836d0&#45;&gt;ast.For object at 0x7f5cf44e0c70 -->
<g id="edge61" class="edge">
<title>ast.FunctionDef object at 0x7f5d35b836d0&#45;&gt;ast.For object at 0x7f5cf44e0c70</title>
<path fill="none" stroke="black" d="M1239.98,-510.22C1186.22,-496.58 1094.55,-473.33 1043.54,-460.39"/>
<polygon fill="black" stroke="black" points="1044.15,-456.94 1033.6,-457.87 1042.43,-463.72 1044.15,-456.94"/>
</g>
<!-- ast.Return object at 0x7f5cf3879ff0 -->
<g id="node71" class="node">
<title>ast.Return object at 0x7f5cf3879ff0</title>
<path fill="#66cdaa" stroke="black" d="M1509.5,-468C1509.5,-468 1479.5,-468 1479.5,-468 1473.5,-468 1467.5,-462 1467.5,-456 1467.5,-456 1467.5,-444 1467.5,-444 1467.5,-438 1473.5,-432 1479.5,-432 1479.5,-432 1509.5,-432 1509.5,-432 1515.5,-432 1521.5,-438 1521.5,-444 1521.5,-444 1521.5,-456 1521.5,-456 1521.5,-462 1515.5,-468 1509.5,-468"/>
<text text-anchor="middle" x="1494.5" y="-446.3" font-family="Times,serif" font-size="14.00">Return</text>
</g>
<!-- ast.FunctionDef object at 0x7f5d35b836d0&#45;&gt;ast.Return object at 0x7f5cf3879ff0 -->
<g id="edge91" class="edge">
<title>ast.FunctionDef object at 0x7f5d35b836d0&#45;&gt;ast.Return object at 0x7f5cf3879ff0</title>
<path fill="none" stroke="black" d="M1325.15,-506.92C1363.94,-494.11 1420.61,-475.4 1457.53,-463.21"/>
<polygon fill="black" stroke="black" points="1458.99,-466.41 1467.38,-459.95 1456.79,-459.77 1458.99,-466.41"/>
</g>
<!-- ast.arg object at 0x7f5d35b81c60 -->
<g id="node40" class="node">
<title>ast.arg object at 0x7f5d35b81c60</title>
<path fill="#66cdaa" stroke="black" d="M1440.5,-396C1440.5,-396 1410.5,-396 1410.5,-396 1404.5,-396 1398.5,-390 1398.5,-384 1398.5,-384 1398.5,-372 1398.5,-372 1398.5,-366 1404.5,-360 1410.5,-360 1410.5,-360 1440.5,-360 1440.5,-360 1446.5,-360 1452.5,-366 1452.5,-372 1452.5,-372 1452.5,-384 1452.5,-384 1452.5,-390 1446.5,-396 1440.5,-396"/>
<text text-anchor="middle" x="1425.5" y="-374.3" font-family="Times,serif" font-size="14.00">arg</text>
</g>
<!-- ast.arguments object at 0x7f5d35b823e0&#45;&gt;ast.arg object at 0x7f5d35b81c60 -->
<g id="edge52" class="edge">
<title>ast.arguments object at 0x7f5d35b823e0&#45;&gt;ast.arg object at 0x7f5d35b81c60</title>
<path fill="none" stroke="black" d="M1403.67,-431.7C1406.93,-423.81 1410.87,-414.3 1414.5,-405.55"/>
<polygon fill="black" stroke="black" points="1417.82,-406.68 1418.41,-396.1 1411.35,-404 1417.82,-406.68"/>
</g>
<!-- ast.Compare object at 0x7f5d35b81390 -->
<g id="node42" class="node">
<title>ast.Compare object at 0x7f5d35b81390</title>
<path fill="#66cdaa" stroke="black" d="M1296,-396C1296,-396 1253,-396 1253,-396 1247,-396 1241,-390 1241,-384 1241,-384 1241,-372 1241,-372 1241,-366 1247,-360 1253,-360 1253,-360 1296,-360 1296,-360 1302,-360 1308,-366 1308,-372 1308,-372 1308,-384 1308,-384 1308,-390 1302,-396 1296,-396"/>
<text text-anchor="middle" x="1274.5" y="-374.3" font-family="Times,serif" font-size="14.00">Compare</text>
</g>
<!-- ast.If object at 0x7f5d35b83c10&#45;&gt;ast.Compare object at 0x7f5d35b81390 -->
<g id="edge54" class="edge">
<title>ast.If object at 0x7f5d35b83c10&#45;&gt;ast.Compare object at 0x7f5d35b81390</title>
<path fill="none" stroke="black" d="M1280.52,-431.7C1279.64,-423.98 1278.58,-414.71 1277.6,-406.11"/>
<polygon fill="black" stroke="black" points="1281.07,-405.64 1276.45,-396.1 1274.11,-406.44 1281.07,-405.64"/>
</g>
<!-- ast.Return object at 0x7f5d35b81ff0 -->
<g id="node46" class="node">
<title>ast.Return object at 0x7f5d35b81ff0</title>
<path fill="#66cdaa" stroke="black" d="M1368.5,-396C1368.5,-396 1338.5,-396 1338.5,-396 1332.5,-396 1326.5,-390 1326.5,-384 1326.5,-384 1326.5,-372 1326.5,-372 1326.5,-366 1332.5,-360 1338.5,-360 1338.5,-360 1368.5,-360 1368.5,-360 1374.5,-360 1380.5,-366 1380.5,-372 1380.5,-372 1380.5,-384 1380.5,-384 1380.5,-390 1374.5,-396 1368.5,-396"/>
<text text-anchor="middle" x="1353.5" y="-374.3" font-family="Times,serif" font-size="14.00">Return</text>
</g>
<!-- ast.If object at 0x7f5d35b83c10&#45;&gt;ast.Return object at 0x7f5d35b81ff0 -->
<g id="edge59" class="edge">
<title>ast.If object at 0x7f5d35b83c10&#45;&gt;ast.Return object at 0x7f5d35b81ff0</title>
<path fill="none" stroke="black" d="M1300.05,-431.7C1308.73,-423.14 1319.36,-412.66 1328.85,-403.3"/>
<polygon fill="black" stroke="black" points="1331.49,-405.62 1336.15,-396.1 1326.57,-400.63 1331.49,-405.62"/>
</g>
<!-- ast.Name object at 0x7f5d35b80430 -->
<g id="node43" class="node">
<title>ast.Name object at 0x7f5d35b80430</title>
<path fill="#66cdaa" stroke="black" d="M1367.5,-180C1367.5,-180 1337.5,-180 1337.5,-180 1331.5,-180 1325.5,-174 1325.5,-168 1325.5,-168 1325.5,-156 1325.5,-156 1325.5,-150 1331.5,-144 1337.5,-144 1337.5,-144 1367.5,-144 1367.5,-144 1373.5,-144 1379.5,-150 1379.5,-156 1379.5,-156 1379.5,-168 1379.5,-168 1379.5,-174 1373.5,-180 1367.5,-180"/>
<text text-anchor="middle" x="1352.5" y="-158.3" font-family="Times,serif" font-size="14.00">Name</text>
</g>
<!-- ast.Compare object at 0x7f5d35b81390&#45;&gt;ast.Name object at 0x7f5d35b80430 -->
<g id="edge55" class="edge">
<title>ast.Compare object at 0x7f5d35b81390&#45;&gt;ast.Name object at 0x7f5d35b80430</title>
<path fill="none" stroke="black" d="M1269.13,-359.86C1264.29,-341.63 1259,-312.15 1266.5,-288 1278.65,-248.9 1307.75,-211.2 1328.74,-187.62"/>
<polygon fill="black" stroke="black" points="1331.36,-189.93 1335.51,-180.18 1326.19,-185.22 1331.36,-189.93"/>
</g>
<!-- ast.Lt object at 0x7f5d3c5ee980 -->
<g id="node44" class="node">
<title>ast.Lt object at 0x7f5d3c5ee980</title>
<path fill="#66cdaa" stroke="black" d="M1317.5,-324C1317.5,-324 1287.5,-324 1287.5,-324 1281.5,-324 1275.5,-318 1275.5,-312 1275.5,-312 1275.5,-300 1275.5,-300 1275.5,-294 1281.5,-288 1287.5,-288 1287.5,-288 1317.5,-288 1317.5,-288 1323.5,-288 1329.5,-294 1329.5,-300 1329.5,-300 1329.5,-312 1329.5,-312 1329.5,-318 1323.5,-324 1317.5,-324"/>
<text text-anchor="middle" x="1302.5" y="-302.3" font-family="Times,serif" font-size="14.00">Lt</text>
</g>
<!-- ast.Compare object at 0x7f5d35b81390&#45;&gt;ast.Lt object at 0x7f5d3c5ee980 -->
<g id="edge57" class="edge">
<title>ast.Compare object at 0x7f5d35b81390&#45;&gt;ast.Lt object at 0x7f5d3c5ee980</title>
<path fill="none" stroke="black" d="M1281.42,-359.7C1284.57,-351.81 1288.38,-342.3 1291.88,-333.55"/>
<polygon fill="black" stroke="black" points="1295.19,-334.69 1295.66,-324.1 1288.69,-332.09 1295.19,-334.69"/>
</g>
<!-- ast.Constant object at 0x7f5d35b81a50 -->
<g id="node45" class="node">
<title>ast.Constant object at 0x7f5d35b81a50</title>
<path fill="#66cdaa" stroke="black" d="M1401,-324C1401,-324 1360,-324 1360,-324 1354,-324 1348,-318 1348,-312 1348,-312 1348,-300 1348,-300 1348,-294 1354,-288 1360,-288 1360,-288 1401,-288 1401,-288 1407,-288 1413,-294 1413,-300 1413,-300 1413,-312 1413,-312 1413,-318 1407,-324 1401,-324"/>
<text text-anchor="middle" x="1380.5" y="-302.3" font-family="Times,serif" font-size="14.00">Constant</text>
</g>
<!-- ast.Compare object at 0x7f5d35b81390&#45;&gt;ast.Constant object at 0x7f5d35b81a50 -->
<g id="edge58" class="edge">
<title>ast.Compare object at 0x7f5d35b81390&#45;&gt;ast.Constant object at 0x7f5d35b81a50</title>
<path fill="none" stroke="black" d="M1300.43,-359.88C1314.16,-350.81 1331.21,-339.55 1346.04,-329.76"/>
<polygon fill="black" stroke="black" points="1348.05,-332.62 1354.47,-324.19 1344.2,-326.78 1348.05,-332.62"/>
</g>
<!-- ast.Name object at 0x7f5d35b80430&#45;&gt;ast.Load object at 0x7f5d3c5edf90 -->
<g id="edge56" class="edge">
<title>ast.Name object at 0x7f5d35b80430&#45;&gt;ast.Load object at 0x7f5d3c5edf90</title>
<path fill="none" stroke="black" d="M1352.68,-143.79C1351.86,-123.17 1347.06,-89.25 1325.5,-72 1271.83,-29.06 782.15,-20.8 641.88,-19.31"/>
<polygon fill="black" stroke="black" points="641.68,-15.81 631.65,-19.21 641.61,-22.81 641.68,-15.81"/>
</g>
<!-- ast.Constant object at 0x7f5d35b820e0 -->
<g id="node47" class="node">
<title>ast.Constant object at 0x7f5d35b820e0</title>
<path fill="#66cdaa" stroke="black" d="M1484,-324C1484,-324 1443,-324 1443,-324 1437,-324 1431,-318 1431,-312 1431,-312 1431,-300 1431,-300 1431,-294 1437,-288 1443,-288 1443,-288 1484,-288 1484,-288 1490,-288 1496,-294 1496,-300 1496,-300 1496,-312 1496,-312 1496,-318 1490,-324 1484,-324"/>
<text text-anchor="middle" x="1463.5" y="-302.3" font-family="Times,serif" font-size="14.00">Constant</text>
</g>
<!-- ast.Return object at 0x7f5d35b81ff0&#45;&gt;ast.Constant object at 0x7f5d35b820e0 -->
<g id="edge60" class="edge">
<title>ast.Return object at 0x7f5d35b81ff0&#45;&gt;ast.Constant object at 0x7f5d35b820e0</title>
<path fill="none" stroke="black" d="M1380.41,-359.88C1394.66,-350.81 1412.35,-339.55 1427.74,-329.76"/>
<polygon fill="black" stroke="black" points="1429.93,-332.51 1436.49,-324.19 1426.17,-326.61 1429.93,-332.51"/>
</g>
<!-- ast.Name object at 0x7f5cf387be50 -->
<g id="node49" class="node">
<title>ast.Name object at 0x7f5cf387be50</title>
<path fill="#66cdaa" stroke="black" d="M907.5,-396C907.5,-396 877.5,-396 877.5,-396 871.5,-396 865.5,-390 865.5,-384 865.5,-384 865.5,-372 865.5,-372 865.5,-366 871.5,-360 877.5,-360 877.5,-360 907.5,-360 907.5,-360 913.5,-360 919.5,-366 919.5,-372 919.5,-372 919.5,-384 919.5,-384 919.5,-390 913.5,-396 907.5,-396"/>
<text text-anchor="middle" x="892.5" y="-374.3" font-family="Times,serif" font-size="14.00">Name</text>
</g>
<!-- ast.For object at 0x7f5cf44e0c70&#45;&gt;ast.Name object at 0x7f5cf387be50 -->
<g id="edge62" class="edge">
<title>ast.For object at 0x7f5cf44e0c70&#45;&gt;ast.Name object at 0x7f5cf387be50</title>
<path fill="none" stroke="black" d="M979.48,-432.41C964.26,-423.06 945.05,-411.27 928.56,-401.14"/>
<polygon fill="black" stroke="black" points="930.07,-397.96 919.72,-395.71 926.41,-403.93 930.07,-397.96"/>
</g>
<!-- ast.Call object at 0x7f5cf3878dc0 -->
<g id="node50" class="node">
<title>ast.Call object at 0x7f5cf3878dc0</title>
<path fill="#66cdaa" stroke="black" d="M993.5,-396C993.5,-396 963.5,-396 963.5,-396 957.5,-396 951.5,-390 951.5,-384 951.5,-384 951.5,-372 951.5,-372 951.5,-366 957.5,-360 963.5,-360 963.5,-360 993.5,-360 993.5,-360 999.5,-360 1005.5,-366 1005.5,-372 1005.5,-372 1005.5,-384 1005.5,-384 1005.5,-390 999.5,-396 993.5,-396"/>
<text text-anchor="middle" x="978.5" y="-374.3" font-family="Times,serif" font-size="14.00">Call</text>
</g>
<!-- ast.For object at 0x7f5cf44e0c70&#45;&gt;ast.Call object at 0x7f5cf3878dc0 -->
<g id="edge64" class="edge">
<title>ast.For object at 0x7f5cf44e0c70&#45;&gt;ast.Call object at 0x7f5cf3878dc0</title>
<path fill="none" stroke="black" d="M999.58,-431.7C996.43,-423.81 992.62,-414.3 989.12,-405.55"/>
<polygon fill="black" stroke="black" points="992.31,-404.09 985.34,-396.1 985.81,-406.69 992.31,-404.09"/>
</g>
<!-- ast.If object at 0x7f5cf387a0b0 -->
<g id="node61" class="node">
<title>ast.If object at 0x7f5cf387a0b0</title>
<path fill="#66cdaa" stroke="black" d="M1128.5,-324C1128.5,-324 1098.5,-324 1098.5,-324 1092.5,-324 1086.5,-318 1086.5,-312 1086.5,-312 1086.5,-300 1086.5,-300 1086.5,-294 1092.5,-288 1098.5,-288 1098.5,-288 1128.5,-288 1128.5,-288 1134.5,-288 1140.5,-294 1140.5,-300 1140.5,-300 1140.5,-312 1140.5,-312 1140.5,-318 1134.5,-324 1128.5,-324"/>
<text text-anchor="middle" x="1113.5" y="-302.3" font-family="Times,serif" font-size="14.00">If</text>
</g>
<!-- ast.For object at 0x7f5cf44e0c70&#45;&gt;ast.If object at 0x7f5cf387a0b0 -->
<g id="edge79" class="edge">
<title>ast.For object at 0x7f5cf44e0c70&#45;&gt;ast.If object at 0x7f5cf387a0b0</title>
<path fill="none" stroke="black" d="M1019.41,-431.87C1038.04,-407.14 1072.63,-361.24 1094.28,-332.51"/>
<polygon fill="black" stroke="black" points="1097.32,-334.28 1100.55,-324.19 1091.73,-330.07 1097.32,-334.28"/>
</g>
<!-- ast.Name object at 0x7f5cf387be50&#45;&gt;ast.Store object at 0x7f5d3c5edff0 -->
<g id="edge63" class="edge">
<title>ast.Name object at 0x7f5cf387be50&#45;&gt;ast.Store object at 0x7f5d3c5edff0</title>
<path fill="none" stroke="black" d="M865.34,-364.32C841.2,-353.06 805.72,-336.5 779.09,-324.07"/>
<polygon fill="black" stroke="black" points="780.26,-320.76 769.71,-319.7 777.3,-327.1 780.26,-320.76"/>
</g>
<!-- ast.Name object at 0x7f5cf38785b0 -->
<g id="node51" class="node">
<title>ast.Name object at 0x7f5cf38785b0</title>
<path fill="#66cdaa" stroke="black" d="M876.5,-324C876.5,-324 846.5,-324 846.5,-324 840.5,-324 834.5,-318 834.5,-312 834.5,-312 834.5,-300 834.5,-300 834.5,-294 840.5,-288 846.5,-288 846.5,-288 876.5,-288 876.5,-288 882.5,-288 888.5,-294 888.5,-300 888.5,-300 888.5,-312 888.5,-312 888.5,-318 882.5,-324 876.5,-324"/>
<text text-anchor="middle" x="861.5" y="-302.3" font-family="Times,serif" font-size="14.00">Name</text>
</g>
<!-- ast.Call object at 0x7f5cf3878dc0&#45;&gt;ast.Name object at 0x7f5cf38785b0 -->
<g id="edge65" class="edge">
<title>ast.Call object at 0x7f5cf3878dc0&#45;&gt;ast.Name object at 0x7f5cf38785b0</title>
<path fill="none" stroke="black" d="M951.36,-360.76C935.38,-351.2 914.97,-338.99 897.64,-328.62"/>
<polygon fill="black" stroke="black" points="899.27,-325.52 888.89,-323.39 895.68,-331.53 899.27,-325.52"/>
</g>
<!-- ast.Constant object at 0x7f5cf387b5e0 -->
<g id="node52" class="node">
<title>ast.Constant object at 0x7f5cf387b5e0</title>
<path fill="#66cdaa" stroke="black" d="M1050,-324C1050,-324 1009,-324 1009,-324 1003,-324 997,-318 997,-312 997,-312 997,-300 997,-300 997,-294 1003,-288 1009,-288 1009,-288 1050,-288 1050,-288 1056,-288 1062,-294 1062,-300 1062,-300 1062,-312 1062,-312 1062,-318 1056,-324 1050,-324"/>
<text text-anchor="middle" x="1029.5" y="-302.3" font-family="Times,serif" font-size="14.00">Constant</text>
</g>
<!-- ast.Call object at 0x7f5cf3878dc0&#45;&gt;ast.Constant object at 0x7f5cf387b5e0 -->
<g id="edge67" class="edge">
<title>ast.Call object at 0x7f5cf3878dc0&#45;&gt;ast.Constant object at 0x7f5cf387b5e0</title>
<path fill="none" stroke="black" d="M991.11,-359.7C997.1,-351.47 1004.38,-341.48 1010.98,-332.42"/>
<polygon fill="black" stroke="black" points="1013.98,-334.25 1017.04,-324.1 1008.32,-330.13 1013.98,-334.25"/>
</g>
<!-- ast.BinOp object at 0x7f5cf3878d90 -->
<g id="node53" class="node">
<title>ast.BinOp object at 0x7f5cf3878d90</title>
<path fill="#66cdaa" stroke="black" d="M966.5,-324C966.5,-324 936.5,-324 936.5,-324 930.5,-324 924.5,-318 924.5,-312 924.5,-312 924.5,-300 924.5,-300 924.5,-294 930.5,-288 936.5,-288 936.5,-288 966.5,-288 966.5,-288 972.5,-288 978.5,-294 978.5,-300 978.5,-300 978.5,-312 978.5,-312 978.5,-318 972.5,-324 966.5,-324"/>
<text text-anchor="middle" x="951.5" y="-302.3" font-family="Times,serif" font-size="14.00">BinOp</text>
</g>
<!-- ast.Call object at 0x7f5cf3878dc0&#45;&gt;ast.BinOp object at 0x7f5cf3878d90 -->
<g id="edge68" class="edge">
<title>ast.Call object at 0x7f5cf3878dc0&#45;&gt;ast.BinOp object at 0x7f5cf3878d90</title>
<path fill="none" stroke="black" d="M971.83,-359.7C968.79,-351.81 965.12,-342.3 961.74,-333.55"/>
<polygon fill="black" stroke="black" points="964.96,-332.17 958.1,-324.1 958.43,-334.69 964.96,-332.17"/>
</g>
<!-- ast.Name object at 0x7f5cf38785b0&#45;&gt;ast.Load object at 0x7f5d3c5edf90 -->
<g id="edge66" class="edge">
<title>ast.Name object at 0x7f5cf38785b0&#45;&gt;ast.Load object at 0x7f5d3c5edf90</title>
<path fill="none" stroke="black" d="M855.53,-287.86C851.96,-277.5 847.38,-264.02 843.5,-252 817.82,-172.39 848.12,-130.67 788.5,-72 749.05,-33.18 683.08,-22.43 641.77,-19.67"/>
<polygon fill="black" stroke="black" points="641.76,-16.16 631.58,-19.11 641.38,-23.15 641.76,-16.16"/>
</g>
<!-- ast.BinOp object at 0x7f5cf3878d90&#45;&gt;ast.Add object at 0x7f5d3c5ee1d0 -->
<g id="edge77" class="edge">
<title>ast.BinOp object at 0x7f5cf3878d90&#45;&gt;ast.Add object at 0x7f5d3c5ee1d0</title>
<path fill="none" stroke="black" d="M933.7,-287.7C924.9,-279.14 914.12,-268.66 904.5,-259.3"/>
<polygon fill="black" stroke="black" points="906.7,-256.57 897.09,-252.1 901.82,-261.58 906.7,-256.57"/>
</g>
<!-- ast.Call object at 0x7f5cf387a1d0 -->
<g id="node54" class="node">
<title>ast.Call object at 0x7f5cf387a1d0</title>
<path fill="#66cdaa" stroke="black" d="M966.5,-252C966.5,-252 936.5,-252 936.5,-252 930.5,-252 924.5,-246 924.5,-240 924.5,-240 924.5,-228 924.5,-228 924.5,-222 930.5,-216 936.5,-216 936.5,-216 966.5,-216 966.5,-216 972.5,-216 978.5,-222 978.5,-228 978.5,-228 978.5,-240 978.5,-240 978.5,-246 972.5,-252 966.5,-252"/>
<text text-anchor="middle" x="951.5" y="-230.3" font-family="Times,serif" font-size="14.00">Call</text>
</g>
<!-- ast.BinOp object at 0x7f5cf3878d90&#45;&gt;ast.Call object at 0x7f5cf387a1d0 -->
<g id="edge69" class="edge">
<title>ast.BinOp object at 0x7f5cf3878d90&#45;&gt;ast.Call object at 0x7f5cf387a1d0</title>
<path fill="none" stroke="black" d="M951.5,-287.7C951.5,-279.98 951.5,-270.71 951.5,-262.11"/>
<polygon fill="black" stroke="black" points="955,-262.1 951.5,-252.1 948,-262.1 955,-262.1"/>
</g>
<!-- ast.Constant object at 0x7f5cf3879e40 -->
<g id="node60" class="node">
<title>ast.Constant object at 0x7f5cf3879e40</title>
<path fill="#66cdaa" stroke="black" d="M1050,-252C1050,-252 1009,-252 1009,-252 1003,-252 997,-246 997,-240 997,-240 997,-228 997,-228 997,-222 1003,-216 1009,-216 1009,-216 1050,-216 1050,-216 1056,-216 1062,-222 1062,-228 1062,-228 1062,-240 1062,-240 1062,-246 1056,-252 1050,-252"/>
<text text-anchor="middle" x="1029.5" y="-230.3" font-family="Times,serif" font-size="14.00">Constant</text>
</g>
<!-- ast.BinOp object at 0x7f5cf3878d90&#45;&gt;ast.Constant object at 0x7f5cf3879e40 -->
<g id="edge78" class="edge">
<title>ast.BinOp object at 0x7f5cf3878d90&#45;&gt;ast.Constant object at 0x7f5cf3879e40</title>
<path fill="none" stroke="black" d="M970.78,-287.7C980.42,-279.05 992.23,-268.45 1002.73,-259.03"/>
<polygon fill="black" stroke="black" points="1005.34,-261.39 1010.44,-252.1 1000.66,-256.18 1005.34,-261.39"/>
</g>
<!-- ast.Name object at 0x7f5cf3878df0 -->
<g id="node55" class="node">
<title>ast.Name object at 0x7f5cf3878df0</title>
<path fill="#66cdaa" stroke="black" d="M899.5,-180C899.5,-180 869.5,-180 869.5,-180 863.5,-180 857.5,-174 857.5,-168 857.5,-168 857.5,-156 857.5,-156 857.5,-150 863.5,-144 869.5,-144 869.5,-144 899.5,-144 899.5,-144 905.5,-144 911.5,-150 911.5,-156 911.5,-156 911.5,-168 911.5,-168 911.5,-174 905.5,-180 899.5,-180"/>
<text text-anchor="middle" x="884.5" y="-158.3" font-family="Times,serif" font-size="14.00">Name</text>
</g>
<!-- ast.Call object at 0x7f5cf387a1d0&#45;&gt;ast.Name object at 0x7f5cf3878df0 -->
<g id="edge70" class="edge">
<title>ast.Call object at 0x7f5cf387a1d0&#45;&gt;ast.Name object at 0x7f5cf3878df0</title>
<path fill="none" stroke="black" d="M934.94,-215.7C926.82,-207.22 916.91,-196.86 908.03,-187.58"/>
<polygon fill="black" stroke="black" points="910.31,-184.91 900.87,-180.1 905.26,-189.75 910.31,-184.91"/>
</g>
<!-- ast.BinOp object at 0x7f5cf387be80 -->
<g id="node56" class="node">
<title>ast.BinOp object at 0x7f5cf387be80</title>
<path fill="#66cdaa" stroke="black" d="M980.5,-180C980.5,-180 950.5,-180 950.5,-180 944.5,-180 938.5,-174 938.5,-168 938.5,-168 938.5,-156 938.5,-156 938.5,-150 944.5,-144 950.5,-144 950.5,-144 980.5,-144 980.5,-144 986.5,-144 992.5,-150 992.5,-156 992.5,-156 992.5,-168 992.5,-168 992.5,-174 986.5,-180 980.5,-180"/>
<text text-anchor="middle" x="965.5" y="-158.3" font-family="Times,serif" font-size="14.00">BinOp</text>
</g>
<!-- ast.Call object at 0x7f5cf387a1d0&#45;&gt;ast.BinOp object at 0x7f5cf387be80 -->
<g id="edge72" class="edge">
<title>ast.Call object at 0x7f5cf387a1d0&#45;&gt;ast.BinOp object at 0x7f5cf387be80</title>
<path fill="none" stroke="black" d="M954.96,-215.7C956.5,-207.98 958.36,-198.71 960.08,-190.11"/>
<polygon fill="black" stroke="black" points="963.55,-190.6 962.08,-180.1 956.69,-189.22 963.55,-190.6"/>
</g>
<!-- ast.Name object at 0x7f5cf3878df0&#45;&gt;ast.Load object at 0x7f5d3c5edf90 -->
<g id="edge71" class="edge">
<title>ast.Name object at 0x7f5cf3878df0&#45;&gt;ast.Load object at 0x7f5d3c5edf90</title>
<path fill="none" stroke="black" d="M880.33,-143.74C874.5,-123.4 861.89,-90.09 838.5,-72 780.51,-27.16 691.67,-18.92 641.8,-18.15"/>
<polygon fill="black" stroke="black" points="641.79,-14.65 631.77,-18.09 641.75,-21.65 641.79,-14.65"/>
</g>
<!-- ast.Name object at 0x7f5cf387b3a0 -->
<g id="node57" class="node">
<title>ast.Name object at 0x7f5cf387b3a0</title>
<path fill="#66cdaa" stroke="black" d="M932.5,-108C932.5,-108 902.5,-108 902.5,-108 896.5,-108 890.5,-102 890.5,-96 890.5,-96 890.5,-84 890.5,-84 890.5,-78 896.5,-72 902.5,-72 902.5,-72 932.5,-72 932.5,-72 938.5,-72 944.5,-78 944.5,-84 944.5,-84 944.5,-96 944.5,-96 944.5,-102 938.5,-108 932.5,-108"/>
<text text-anchor="middle" x="917.5" y="-86.3" font-family="Times,serif" font-size="14.00">Name</text>
</g>
<!-- ast.BinOp object at 0x7f5cf387be80&#45;&gt;ast.Name object at 0x7f5cf387b3a0 -->
<g id="edge73" class="edge">
<title>ast.BinOp object at 0x7f5cf387be80&#45;&gt;ast.Name object at 0x7f5cf387b3a0</title>
<path fill="none" stroke="black" d="M953.63,-143.7C948,-135.47 941.15,-125.48 934.93,-116.42"/>
<polygon fill="black" stroke="black" points="937.77,-114.37 929.23,-108.1 932,-118.33 937.77,-114.37"/>
</g>
<!-- ast.Pow object at 0x7f5d3c5ee410 -->
<g id="node58" class="node">
<title>ast.Pow object at 0x7f5d3c5ee410</title>
<path fill="#66cdaa" stroke="black" d="M1004.5,-108C1004.5,-108 974.5,-108 974.5,-108 968.5,-108 962.5,-102 962.5,-96 962.5,-96 962.5,-84 962.5,-84 962.5,-78 968.5,-72 974.5,-72 974.5,-72 1004.5,-72 1004.5,-72 1010.5,-72 1016.5,-78 1016.5,-84 1016.5,-84 1016.5,-96 1016.5,-96 1016.5,-102 1010.5,-108 1004.5,-108"/>
<text text-anchor="middle" x="989.5" y="-86.3" font-family="Times,serif" font-size="14.00">Pow</text>
</g>
<!-- ast.BinOp object at 0x7f5cf387be80&#45;&gt;ast.Pow object at 0x7f5d3c5ee410 -->
<g id="edge75" class="edge">
<title>ast.BinOp object at 0x7f5cf387be80&#45;&gt;ast.Pow object at 0x7f5d3c5ee410</title>
<path fill="none" stroke="black" d="M971.43,-143.7C974.11,-135.9 977.33,-126.51 980.3,-117.83"/>
<polygon fill="black" stroke="black" points="983.7,-118.7 983.64,-108.1 977.08,-116.43 983.7,-118.7"/>
</g>
<!-- ast.Constant object at 0x7f5cf387a890 -->
<g id="node59" class="node">
<title>ast.Constant object at 0x7f5cf387a890</title>
<path fill="#66cdaa" stroke="black" d="M1088,-108C1088,-108 1047,-108 1047,-108 1041,-108 1035,-102 1035,-96 1035,-96 1035,-84 1035,-84 1035,-78 1041,-72 1047,-72 1047,-72 1088,-72 1088,-72 1094,-72 1100,-78 1100,-84 1100,-84 1100,-96 1100,-96 1100,-102 1094,-108 1088,-108"/>
<text text-anchor="middle" x="1067.5" y="-86.3" font-family="Times,serif" font-size="14.00">Constant</text>
</g>
<!-- ast.BinOp object at 0x7f5cf387be80&#45;&gt;ast.Constant object at 0x7f5cf387a890 -->
<g id="edge76" class="edge">
<title>ast.BinOp object at 0x7f5cf387be80&#45;&gt;ast.Constant object at 0x7f5cf387a890</title>
<path fill="none" stroke="black" d="M990.45,-143.88C1003.54,-134.89 1019.76,-123.76 1033.94,-114.03"/>
<polygon fill="black" stroke="black" points="1036.19,-116.73 1042.45,-108.19 1032.23,-110.96 1036.19,-116.73"/>
</g>
<!-- ast.Name object at 0x7f5cf387b3a0&#45;&gt;ast.Load object at 0x7f5d3c5edf90 -->
<g id="edge74" class="edge">
<title>ast.Name object at 0x7f5cf387b3a0&#45;&gt;ast.Load object at 0x7f5d3c5edf90</title>
<path fill="none" stroke="black" d="M890.43,-76.88C885.84,-75.09 881.07,-73.38 876.5,-72 794.23,-47.2 694.37,-31.21 641.5,-23.81"/>
<polygon fill="black" stroke="black" points="641.96,-20.34 631.57,-22.44 641,-27.27 641.96,-20.34"/>
</g>
<!-- ast.Compare object at 0x7f5cf3878e20 -->
<g id="node62" class="node">
<title>ast.Compare object at 0x7f5cf3878e20</title>
<path fill="#66cdaa" stroke="black" d="M1135,-252C1135,-252 1092,-252 1092,-252 1086,-252 1080,-246 1080,-240 1080,-240 1080,-228 1080,-228 1080,-222 1086,-216 1092,-216 1092,-216 1135,-216 1135,-216 1141,-216 1147,-222 1147,-228 1147,-228 1147,-240 1147,-240 1147,-246 1141,-252 1135,-252"/>
<text text-anchor="middle" x="1113.5" y="-230.3" font-family="Times,serif" font-size="14.00">Compare</text>
</g>
<!-- ast.If object at 0x7f5cf387a0b0&#45;&gt;ast.Compare object at 0x7f5cf3878e20 -->
<g id="edge80" class="edge">
<title>ast.If object at 0x7f5cf387a0b0&#45;&gt;ast.Compare object at 0x7f5cf3878e20</title>
<path fill="none" stroke="black" d="M1113.5,-287.7C1113.5,-279.98 1113.5,-270.71 1113.5,-262.11"/>
<polygon fill="black" stroke="black" points="1117,-262.1 1113.5,-252.1 1110,-262.1 1117,-262.1"/>
</g>
<!-- ast.Return object at 0x7f5cf3878f10 -->
<g id="node69" class="node">
<title>ast.Return object at 0x7f5cf3878f10</title>
<path fill="#66cdaa" stroke="black" d="M1207.5,-252C1207.5,-252 1177.5,-252 1177.5,-252 1171.5,-252 1165.5,-246 1165.5,-240 1165.5,-240 1165.5,-228 1165.5,-228 1165.5,-222 1171.5,-216 1177.5,-216 1177.5,-216 1207.5,-216 1207.5,-216 1213.5,-216 1219.5,-222 1219.5,-228 1219.5,-228 1219.5,-240 1219.5,-240 1219.5,-246 1213.5,-252 1207.5,-252"/>
<text text-anchor="middle" x="1192.5" y="-230.3" font-family="Times,serif" font-size="14.00">Return</text>
</g>
<!-- ast.If object at 0x7f5cf387a0b0&#45;&gt;ast.Return object at 0x7f5cf3878f10 -->
<g id="edge89" class="edge">
<title>ast.If object at 0x7f5cf387a0b0&#45;&gt;ast.Return object at 0x7f5cf3878f10</title>
<path fill="none" stroke="black" d="M1133.03,-287.7C1142.88,-278.97 1154.99,-268.24 1165.7,-258.75"/>
<polygon fill="black" stroke="black" points="1168.03,-261.36 1173.2,-252.1 1163.39,-256.12 1168.03,-261.36"/>
</g>
<!-- ast.BinOp object at 0x7f5cf387a500 -->
<g id="node63" class="node">
<title>ast.BinOp object at 0x7f5cf387a500</title>
<path fill="#66cdaa" stroke="black" d="M1056.5,-180C1056.5,-180 1026.5,-180 1026.5,-180 1020.5,-180 1014.5,-174 1014.5,-168 1014.5,-168 1014.5,-156 1014.5,-156 1014.5,-150 1020.5,-144 1026.5,-144 1026.5,-144 1056.5,-144 1056.5,-144 1062.5,-144 1068.5,-150 1068.5,-156 1068.5,-156 1068.5,-168 1068.5,-168 1068.5,-174 1062.5,-180 1056.5,-180"/>
<text text-anchor="middle" x="1041.5" y="-158.3" font-family="Times,serif" font-size="14.00">BinOp</text>
</g>
<!-- ast.Compare object at 0x7f5cf3878e20&#45;&gt;ast.BinOp object at 0x7f5cf387a500 -->
<g id="edge81" class="edge">
<title>ast.Compare object at 0x7f5cf3878e20&#45;&gt;ast.BinOp object at 0x7f5cf387a500</title>
<path fill="none" stroke="black" d="M1095.7,-215.7C1086.9,-207.14 1076.12,-196.66 1066.5,-187.3"/>
<polygon fill="black" stroke="black" points="1068.7,-184.57 1059.09,-180.1 1063.82,-189.58 1068.7,-184.57"/>
</g>
<!-- ast.Eq object at 0x7f5d3c5ee8c0 -->
<g id="node67" class="node">
<title>ast.Eq object at 0x7f5d3c5ee8c0</title>
<path fill="#66cdaa" stroke="black" d="M1128.5,-180C1128.5,-180 1098.5,-180 1098.5,-180 1092.5,-180 1086.5,-174 1086.5,-168 1086.5,-168 1086.5,-156 1086.5,-156 1086.5,-150 1092.5,-144 1098.5,-144 1098.5,-144 1128.5,-144 1128.5,-144 1134.5,-144 1140.5,-150 1140.5,-156 1140.5,-156 1140.5,-168 1140.5,-168 1140.5,-174 1134.5,-180 1128.5,-180"/>
<text text-anchor="middle" x="1113.5" y="-158.3" font-family="Times,serif" font-size="14.00">Eq</text>
</g>
<!-- ast.Compare object at 0x7f5cf3878e20&#45;&gt;ast.Eq object at 0x7f5d3c5ee8c0 -->
<g id="edge87" class="edge">
<title>ast.Compare object at 0x7f5cf3878e20&#45;&gt;ast.Eq object at 0x7f5d3c5ee8c0</title>
<path fill="none" stroke="black" d="M1113.5,-215.7C1113.5,-207.98 1113.5,-198.71 1113.5,-190.11"/>
<polygon fill="black" stroke="black" points="1117,-190.1 1113.5,-180.1 1110,-190.1 1117,-190.1"/>
</g>
<!-- ast.Constant object at 0x7f5cf387a8c0 -->
<g id="node68" class="node">
<title>ast.Constant object at 0x7f5cf387a8c0</title>
<path fill="#66cdaa" stroke="black" d="M1212,-180C1212,-180 1171,-180 1171,-180 1165,-180 1159,-174 1159,-168 1159,-168 1159,-156 1159,-156 1159,-150 1165,-144 1171,-144 1171,-144 1212,-144 1212,-144 1218,-144 1224,-150 1224,-156 1224,-156 1224,-168 1224,-168 1224,-174 1218,-180 1212,-180"/>
<text text-anchor="middle" x="1191.5" y="-158.3" font-family="Times,serif" font-size="14.00">Constant</text>
</g>
<!-- ast.Compare object at 0x7f5cf3878e20&#45;&gt;ast.Constant object at 0x7f5cf387a8c0 -->
<g id="edge88" class="edge">
<title>ast.Compare object at 0x7f5cf3878e20&#45;&gt;ast.Constant object at 0x7f5cf387a8c0</title>
<path fill="none" stroke="black" d="M1132.78,-215.7C1142.42,-207.05 1154.23,-196.45 1164.73,-187.03"/>
<polygon fill="black" stroke="black" points="1167.34,-189.39 1172.44,-180.1 1162.66,-184.18 1167.34,-189.39"/>
</g>
<!-- ast.Name object at 0x7f5cf38795d0 -->
<g id="node64" class="node">
<title>ast.Name object at 0x7f5cf38795d0</title>
<path fill="#66cdaa" stroke="black" d="M1232.5,-108C1232.5,-108 1202.5,-108 1202.5,-108 1196.5,-108 1190.5,-102 1190.5,-96 1190.5,-96 1190.5,-84 1190.5,-84 1190.5,-78 1196.5,-72 1202.5,-72 1202.5,-72 1232.5,-72 1232.5,-72 1238.5,-72 1244.5,-78 1244.5,-84 1244.5,-84 1244.5,-96 1244.5,-96 1244.5,-102 1238.5,-108 1232.5,-108"/>
<text text-anchor="middle" x="1217.5" y="-86.3" font-family="Times,serif" font-size="14.00">Name</text>
</g>
<!-- ast.BinOp object at 0x7f5cf387a500&#45;&gt;ast.Name object at 0x7f5cf38795d0 -->
<g id="edge82" class="edge">
<title>ast.BinOp object at 0x7f5cf387a500&#45;&gt;ast.Name object at 0x7f5cf38795d0</title>
<path fill="none" stroke="black" d="M1068.88,-147.7C1071.77,-146.4 1074.68,-145.15 1077.5,-144 1120.05,-126.65 1134.47,-126.43 1180.76,-108.09"/>
<polygon fill="black" stroke="black" points="1182.16,-111.29 1190.12,-104.3 1179.54,-104.8 1182.16,-111.29"/>
</g>
<!-- ast.Mod object at 0x7f5d3c5ee3b0 -->
<g id="node65" class="node">
<title>ast.Mod object at 0x7f5d3c5ee3b0</title>
<path fill="#66cdaa" stroke="black" d="M1304.5,-108C1304.5,-108 1274.5,-108 1274.5,-108 1268.5,-108 1262.5,-102 1262.5,-96 1262.5,-96 1262.5,-84 1262.5,-84 1262.5,-78 1268.5,-72 1274.5,-72 1274.5,-72 1304.5,-72 1304.5,-72 1310.5,-72 1316.5,-78 1316.5,-84 1316.5,-84 1316.5,-96 1316.5,-96 1316.5,-102 1310.5,-108 1304.5,-108"/>
<text text-anchor="middle" x="1289.5" y="-86.3" font-family="Times,serif" font-size="14.00">Mod</text>
</g>
<!-- ast.BinOp object at 0x7f5cf387a500&#45;&gt;ast.Mod object at 0x7f5d3c5ee3b0 -->
<g id="edge84" class="edge">
<title>ast.BinOp object at 0x7f5cf387a500&#45;&gt;ast.Mod object at 0x7f5d3c5ee3b0</title>
<path fill="none" stroke="black" d="M1068.74,-147.31C1071.66,-146.09 1074.61,-144.96 1077.5,-144 1150.29,-119.76 1175.76,-132.16 1252.63,-107.84"/>
<polygon fill="black" stroke="black" points="1253.85,-111.13 1262.26,-104.69 1251.67,-104.47 1253.85,-111.13"/>
</g>
<!-- ast.Name object at 0x7f5cf387a470 -->
<g id="node66" class="node">
<title>ast.Name object at 0x7f5cf387a470</title>
<path fill="#66cdaa" stroke="black" d="M1160.5,-108C1160.5,-108 1130.5,-108 1130.5,-108 1124.5,-108 1118.5,-102 1118.5,-96 1118.5,-96 1118.5,-84 1118.5,-84 1118.5,-78 1124.5,-72 1130.5,-72 1130.5,-72 1160.5,-72 1160.5,-72 1166.5,-72 1172.5,-78 1172.5,-84 1172.5,-84 1172.5,-96 1172.5,-96 1172.5,-102 1166.5,-108 1160.5,-108"/>
<text text-anchor="middle" x="1145.5" y="-86.3" font-family="Times,serif" font-size="14.00">Name</text>
</g>
<!-- ast.BinOp object at 0x7f5cf387a500&#45;&gt;ast.Name object at 0x7f5cf387a470 -->
<g id="edge85" class="edge">
<title>ast.BinOp object at 0x7f5cf387a500&#45;&gt;ast.Name object at 0x7f5cf387a470</title>
<path fill="none" stroke="black" d="M1066.94,-143.88C1080.29,-134.89 1096.82,-123.76 1111.28,-114.03"/>
<polygon fill="black" stroke="black" points="1113.62,-116.68 1119.96,-108.19 1109.71,-110.87 1113.62,-116.68"/>
</g>
<!-- ast.Name object at 0x7f5cf38795d0&#45;&gt;ast.Load object at 0x7f5d3c5edf90 -->
<g id="edge83" class="edge">
<title>ast.Name object at 0x7f5cf38795d0&#45;&gt;ast.Load object at 0x7f5d3c5edf90</title>
<path fill="none" stroke="black" d="M1190.36,-74.98C1187.42,-73.83 1184.43,-72.8 1181.5,-72 1078.91,-44.01 752.2,-26.1 641.55,-20.71"/>
<polygon fill="black" stroke="black" points="641.69,-17.22 631.53,-20.23 641.35,-24.21 641.69,-17.22"/>
</g>
<!-- ast.Name object at 0x7f5cf387a470&#45;&gt;ast.Load object at 0x7f5d3c5edf90 -->
<g id="edge86" class="edge">
<title>ast.Name object at 0x7f5cf387a470&#45;&gt;ast.Load object at 0x7f5d3c5edf90</title>
<path fill="none" stroke="black" d="M1118.4,-75.35C1115.12,-74.06 1111.77,-72.9 1108.5,-72 938.64,-25.41 726.24,-19.27 641.7,-18.81"/>
<polygon fill="black" stroke="black" points="641.58,-15.31 631.57,-18.78 641.56,-22.31 641.58,-15.31"/>
</g>
<!-- ast.Constant object at 0x7f5cf387bf40 -->
<g id="node70" class="node">
<title>ast.Constant object at 0x7f5cf387bf40</title>
<path fill="#66cdaa" stroke="black" d="M1295,-180C1295,-180 1254,-180 1254,-180 1248,-180 1242,-174 1242,-168 1242,-168 1242,-156 1242,-156 1242,-150 1248,-144 1254,-144 1254,-144 1295,-144 1295,-144 1301,-144 1307,-150 1307,-156 1307,-156 1307,-168 1307,-168 1307,-174 1301,-180 1295,-180"/>
<text text-anchor="middle" x="1274.5" y="-158.3" font-family="Times,serif" font-size="14.00">Constant</text>
</g>
<!-- ast.Return object at 0x7f5cf3878f10&#45;&gt;ast.Constant object at 0x7f5cf387bf40 -->
<g id="edge90" class="edge">
<title>ast.Return object at 0x7f5cf3878f10&#45;&gt;ast.Constant object at 0x7f5cf387bf40</title>
<path fill="none" stroke="black" d="M1212.77,-215.7C1223,-206.97 1235.56,-196.24 1246.68,-186.75"/>
<polygon fill="black" stroke="black" points="1249.13,-189.26 1254.46,-180.1 1244.59,-183.94 1249.13,-189.26"/>
</g>
<!-- ast.Constant object at 0x7f5cf3878ee0 -->
<g id="node72" class="node">
<title>ast.Constant object at 0x7f5cf3878ee0</title>
<path fill="#66cdaa" stroke="black" d="M1524,-396C1524,-396 1483,-396 1483,-396 1477,-396 1471,-390 1471,-384 1471,-384 1471,-372 1471,-372 1471,-366 1477,-360 1483,-360 1483,-360 1524,-360 1524,-360 1530,-360 1536,-366 1536,-372 1536,-372 1536,-384 1536,-384 1536,-390 1530,-396 1524,-396"/>
<text text-anchor="middle" x="1503.5" y="-374.3" font-family="Times,serif" font-size="14.00">Constant</text>
</g>
<!-- ast.Return object at 0x7f5cf3879ff0&#45;&gt;ast.Constant object at 0x7f5cf3878ee0 -->
<g id="edge92" class="edge">
<title>ast.Return object at 0x7f5cf3879ff0&#45;&gt;ast.Constant object at 0x7f5cf3878ee0</title>
<path fill="none" stroke="black" d="M1496.72,-431.7C1497.72,-423.98 1498.91,-414.71 1500.01,-406.11"/>
<polygon fill="black" stroke="black" points="1503.5,-406.47 1501.3,-396.1 1496.55,-405.58 1503.5,-406.47"/>
</g>
</g>
</svg>
