<?xml version="1.0" encoding="UTF-8" standalone="no"?>
<!DOCTYPE svg PUBLIC "-//W3C//DTD SVG 1.1//EN"
 "http://www.w3.org/Graphics/SVG/1.1/DTD/svg11.dtd">
<!-- Generated by graphviz version 2.43.0 (0)
 -->
<!-- Title: %3 Pages: 1 -->
<svg width="759pt" height="620pt"
 viewBox="0.00 0.00 759.00 620.00" xmlns="http://www.w3.org/2000/svg" xmlns:xlink="http://www.w3.org/1999/xlink">
<g id="graph0" class="graph" transform="scale(1 1) rotate(0) translate(4 616)">
<title>%3</title>
<polygon fill="white" stroke="transparent" points="-4,4 -4,-616 755,-616 755,4 -4,4"/>
<!-- ast.Module object at 0x7f1c3c474130 -->
<g id="node1" class="node">
<title>ast.Module object at 0x7f1c3c474130</title>
<path fill="#66cdaa" stroke="black" d="M604.5,-612C604.5,-612 569.5,-612 569.5,-612 563.5,-612 557.5,-606 557.5,-600 557.5,-600 557.5,-588 557.5,-588 557.5,-582 563.5,-576 569.5,-576 569.5,-576 604.5,-576 604.5,-576 610.5,-576 616.5,-582 616.5,-588 616.5,-588 616.5,-600 616.5,-600 616.5,-606 610.5,-612 604.5,-612"/>
<text text-anchor="middle" x="587" y="-590.3" font-family="Times,serif" font-size="14.00">Module</text>
</g>
<!-- ast.FunctionDef object at 0x7f1c3c474c40 -->
<g id="node2" class="node">
<title>ast.FunctionDef object at 0x7f1c3c474c40</title>
<path fill="#66cdaa" stroke="black" d="M617.5,-540C617.5,-540 556.5,-540 556.5,-540 550.5,-540 544.5,-534 544.5,-528 544.5,-528 544.5,-516 544.5,-516 544.5,-510 550.5,-504 556.5,-504 556.5,-504 617.5,-504 617.5,-504 623.5,-504 629.5,-510 629.5,-516 629.5,-516 629.5,-528 629.5,-528 629.5,-534 623.5,-540 617.5,-540"/>
<text text-anchor="middle" x="587" y="-518.3" font-family="Times,serif" font-size="14.00">FunctionDef</text>
</g>
<!-- ast.Module object at 0x7f1c3c474130&#45;&gt;ast.FunctionDef object at 0x7f1c3c474c40 -->
<g id="edge1" class="edge">
<title>ast.Module object at 0x7f1c3c474130&#45;&gt;ast.FunctionDef object at 0x7f1c3c474c40</title>
<path fill="none" stroke="black" d="M587,-575.7C587,-567.98 587,-558.71 587,-550.11"/>
<polygon fill="black" stroke="black" points="590.5,-550.1 587,-540.1 583.5,-550.1 590.5,-550.1"/>
</g>
<!-- ast.arguments object at 0x7f1c3c475e10 -->
<g id="node3" class="node">
<title>ast.arguments object at 0x7f1c3c475e10</title>
<path fill="#66cdaa" stroke="black" d="M331,-468C331,-468 281,-468 281,-468 275,-468 269,-462 269,-456 269,-456 269,-444 269,-444 269,-438 275,-432 281,-432 281,-432 331,-432 331,-432 337,-432 343,-438 343,-444 343,-444 343,-456 343,-456 343,-462 337,-468 331,-468"/>
<text text-anchor="middle" x="306" y="-446.3" font-family="Times,serif" font-size="14.00">arguments</text>
</g>
<!-- ast.FunctionDef object at 0x7f1c3c474c40&#45;&gt;ast.arguments object at 0x7f1c3c475e10 -->
<g id="edge2" class="edge">
<title>ast.FunctionDef object at 0x7f1c3c474c40&#45;&gt;ast.arguments object at 0x7f1c3c475e10</title>
<path fill="none" stroke="black" d="M544.32,-510.37C492.83,-497.54 406.54,-476.04 353.13,-462.74"/>
<polygon fill="black" stroke="black" points="353.78,-459.3 343.23,-460.27 352.09,-466.09 353.78,-459.3"/>
</g>
<!-- ast.Assign object at 0x7f1c3c477400 -->
<g id="node5" class="node">
<title>ast.Assign object at 0x7f1c3c477400</title>
<path fill="#66cdaa" stroke="black" d="M638,-468C638,-468 608,-468 608,-468 602,-468 596,-462 596,-456 596,-456 596,-444 596,-444 596,-438 602,-432 608,-432 608,-432 638,-432 638,-432 644,-432 650,-438 650,-444 650,-444 650,-456 650,-456 650,-462 644,-468 638,-468"/>
<text text-anchor="middle" x="623" y="-446.3" font-family="Times,serif" font-size="14.00">Assign</text>
</g>
<!-- ast.FunctionDef object at 0x7f1c3c474c40&#45;&gt;ast.Assign object at 0x7f1c3c477400 -->
<g id="edge4" class="edge">
<title>ast.FunctionDef object at 0x7f1c3c474c40&#45;&gt;ast.Assign object at 0x7f1c3c477400</title>
<path fill="none" stroke="black" d="M595.9,-503.7C600,-495.73 604.95,-486.1 609.49,-477.26"/>
<polygon fill="black" stroke="black" points="612.74,-478.6 614.2,-468.1 606.52,-475.4 612.74,-478.6"/>
</g>
<!-- ast.For object at 0x7f1c3c474a00 -->
<g id="node10" class="node">
<title>ast.For object at 0x7f1c3c474a00</title>
<path fill="#66cdaa" stroke="black" d="M530,-468C530,-468 500,-468 500,-468 494,-468 488,-462 488,-456 488,-456 488,-444 488,-444 488,-438 494,-432 500,-432 500,-432 530,-432 530,-432 536,-432 542,-438 542,-444 542,-444 542,-456 542,-456 542,-462 536,-468 530,-468"/>
<text text-anchor="middle" x="515" y="-446.3" font-family="Times,serif" font-size="14.00">For</text>
</g>
<!-- ast.FunctionDef object at 0x7f1c3c474c40&#45;&gt;ast.For object at 0x7f1c3c474a00 -->
<g id="edge9" class="edge">
<title>ast.FunctionDef object at 0x7f1c3c474c40&#45;&gt;ast.For object at 0x7f1c3c474a00</title>
<path fill="none" stroke="black" d="M569.2,-503.7C560.4,-495.14 549.62,-484.66 540,-475.3"/>
<polygon fill="black" stroke="black" points="542.2,-472.57 532.59,-468.1 537.32,-477.58 542.2,-472.57"/>
</g>
<!-- ast.Return object at 0x7f1c3c475420 -->
<g id="node38" class="node">
<title>ast.Return object at 0x7f1c3c475420</title>
<path fill="#66cdaa" stroke="black" d="M733,-468C733,-468 703,-468 703,-468 697,-468 691,-462 691,-456 691,-456 691,-444 691,-444 691,-438 697,-432 703,-432 703,-432 733,-432 733,-432 739,-432 745,-438 745,-444 745,-444 745,-456 745,-456 745,-462 739,-468 733,-468"/>
<text text-anchor="middle" x="718" y="-446.3" font-family="Times,serif" font-size="14.00">Return</text>
</g>
<!-- ast.FunctionDef object at 0x7f1c3c474c40&#45;&gt;ast.Return object at 0x7f1c3c475420 -->
<g id="edge45" class="edge">
<title>ast.FunctionDef object at 0x7f1c3c474c40&#45;&gt;ast.Return object at 0x7f1c3c475420</title>
<path fill="none" stroke="black" d="M619.05,-503.88C638.01,-493.74 662.09,-480.88 681.74,-470.37"/>
<polygon fill="black" stroke="black" points="683.54,-473.38 690.71,-465.58 680.24,-467.21 683.54,-473.38"/>
</g>
<!-- ast.arg object at 0x7f1c3c475fc0 -->
<g id="node4" class="node">
<title>ast.arg object at 0x7f1c3c475fc0</title>
<path fill="#66cdaa" stroke="black" d="M141,-396C141,-396 111,-396 111,-396 105,-396 99,-390 99,-384 99,-384 99,-372 99,-372 99,-366 105,-360 111,-360 111,-360 141,-360 141,-360 147,-360 153,-366 153,-372 153,-372 153,-384 153,-384 153,-390 147,-396 141,-396"/>
<text text-anchor="middle" x="126" y="-374.3" font-family="Times,serif" font-size="14.00">arg</text>
</g>
<!-- ast.arguments object at 0x7f1c3c475e10&#45;&gt;ast.arg object at 0x7f1c3c475fc0 -->
<g id="edge3" class="edge">
<title>ast.arguments object at 0x7f1c3c475e10&#45;&gt;ast.arg object at 0x7f1c3c475fc0</title>
<path fill="none" stroke="black" d="M268.96,-436.38C241.72,-426.88 203.69,-413.14 162.42,-396.01"/>
<polygon fill="black" stroke="black" points="163.59,-392.7 153.01,-392.07 160.88,-399.16 163.59,-392.7"/>
</g>
<!-- ast.Name object at 0x7f1c3c4744c0 -->
<g id="node6" class="node">
<title>ast.Name object at 0x7f1c3c4744c0</title>
<path fill="#66cdaa" stroke="black" d="M638,-396C638,-396 608,-396 608,-396 602,-396 596,-390 596,-384 596,-384 596,-372 596,-372 596,-366 602,-360 608,-360 608,-360 638,-360 638,-360 644,-360 650,-366 650,-372 650,-372 650,-384 650,-384 650,-390 644,-396 638,-396"/>
<text text-anchor="middle" x="623" y="-374.3" font-family="Times,serif" font-size="14.00">Name</text>
</g>
<!-- ast.Assign object at 0x7f1c3c477400&#45;&gt;ast.Name object at 0x7f1c3c4744c0 -->
<g id="edge5" class="edge">
<title>ast.Assign object at 0x7f1c3c477400&#45;&gt;ast.Name object at 0x7f1c3c4744c0</title>
<path fill="none" stroke="black" d="M623,-431.7C623,-423.98 623,-414.71 623,-406.11"/>
<polygon fill="black" stroke="black" points="626.5,-406.1 623,-396.1 619.5,-406.1 626.5,-406.1"/>
</g>
<!-- ast.List object at 0x7f1c3c476a70 -->
<g id="node8" class="node">
<title>ast.List object at 0x7f1c3c476a70</title>
<path fill="#66cdaa" stroke="black" d="M667,-108C667,-108 637,-108 637,-108 631,-108 625,-102 625,-96 625,-96 625,-84 625,-84 625,-78 631,-72 637,-72 637,-72 667,-72 667,-72 673,-72 679,-78 679,-84 679,-84 679,-96 679,-96 679,-102 673,-108 667,-108"/>
<text text-anchor="middle" x="652" y="-86.3" font-family="Times,serif" font-size="14.00">List</text>
</g>
<!-- ast.Assign object at 0x7f1c3c477400&#45;&gt;ast.List object at 0x7f1c3c476a70 -->
<g id="edge7" class="edge">
<title>ast.Assign object at 0x7f1c3c477400&#45;&gt;ast.List object at 0x7f1c3c476a70</title>
<path fill="none" stroke="black" d="M636.75,-431.66C644.14,-421.68 652.96,-408.65 659,-396 676.82,-358.7 686,-348.34 686,-307 686,-307 686,-307 686,-233 686,-191.91 672.37,-145.92 662.37,-117.72"/>
<polygon fill="black" stroke="black" points="665.6,-116.36 658.88,-108.17 659.03,-118.76 665.6,-116.36"/>
</g>
<!-- ast.Store object at 0x7f1c4a3edfc0 -->
<g id="node7" class="node">
<title>ast.Store object at 0x7f1c4a3edfc0</title>
<path fill="#66cdaa" stroke="black" d="M627,-324C627,-324 597,-324 597,-324 591,-324 585,-318 585,-312 585,-312 585,-300 585,-300 585,-294 591,-288 597,-288 597,-288 627,-288 627,-288 633,-288 639,-294 639,-300 639,-300 639,-312 639,-312 639,-318 633,-324 627,-324"/>
<text text-anchor="middle" x="612" y="-302.3" font-family="Times,serif" font-size="14.00">Store</text>
</g>
<!-- ast.Name object at 0x7f1c3c4744c0&#45;&gt;ast.Store object at 0x7f1c4a3edfc0 -->
<g id="edge6" class="edge">
<title>ast.Name object at 0x7f1c3c4744c0&#45;&gt;ast.Store object at 0x7f1c4a3edfc0</title>
<path fill="none" stroke="black" d="M620.28,-359.7C619.07,-351.98 617.61,-342.71 616.26,-334.11"/>
<polygon fill="black" stroke="black" points="619.7,-333.44 614.69,-324.1 612.78,-334.53 619.7,-333.44"/>
</g>
<!-- ast.Load object at 0x7f1c4a3edf60 -->
<g id="node9" class="node">
<title>ast.Load object at 0x7f1c4a3edf60</title>
<path fill="#66cdaa" stroke="black" d="M502,-36C502,-36 472,-36 472,-36 466,-36 460,-30 460,-24 460,-24 460,-12 460,-12 460,-6 466,0 472,0 472,0 502,0 502,0 508,0 514,-6 514,-12 514,-12 514,-24 514,-24 514,-30 508,-36 502,-36"/>
<text text-anchor="middle" x="487" y="-14.3" font-family="Times,serif" font-size="14.00">Load</text>
</g>
<!-- ast.List object at 0x7f1c3c476a70&#45;&gt;ast.Load object at 0x7f1c4a3edf60 -->
<g id="edge8" class="edge">
<title>ast.List object at 0x7f1c3c476a70&#45;&gt;ast.Load object at 0x7f1c4a3edf60</title>
<path fill="none" stroke="black" d="M624.94,-76.04C621.93,-74.65 618.91,-73.28 616,-72 585.16,-58.39 549.71,-43.91 523.79,-33.53"/>
<polygon fill="black" stroke="black" points="524.94,-30.22 514.35,-29.76 522.34,-36.72 524.94,-30.22"/>
</g>
<!-- ast.Name object at 0x7f1c3c475870 -->
<g id="node11" class="node">
<title>ast.Name object at 0x7f1c3c475870</title>
<path fill="#66cdaa" stroke="black" d="M566,-396C566,-396 536,-396 536,-396 530,-396 524,-390 524,-384 524,-384 524,-372 524,-372 524,-366 530,-360 536,-360 536,-360 566,-360 566,-360 572,-360 578,-366 578,-372 578,-372 578,-384 578,-384 578,-390 572,-396 566,-396"/>
<text text-anchor="middle" x="551" y="-374.3" font-family="Times,serif" font-size="14.00">Name</text>
</g>
<!-- ast.For object at 0x7f1c3c474a00&#45;&gt;ast.Name object at 0x7f1c3c475870 -->
<g id="edge10" class="edge">
<title>ast.For object at 0x7f1c3c474a00&#45;&gt;ast.Name object at 0x7f1c3c475870</title>
<path fill="none" stroke="black" d="M523.9,-431.7C528,-423.73 532.95,-414.1 537.49,-405.26"/>
<polygon fill="black" stroke="black" points="540.74,-406.6 542.2,-396.1 534.52,-403.4 540.74,-406.6"/>
</g>
<!-- ast.Call object at 0x7f1c3c476740 -->
<g id="node12" class="node">
<title>ast.Call object at 0x7f1c3c476740</title>
<path fill="#66cdaa" stroke="black" d="M213,-396C213,-396 183,-396 183,-396 177,-396 171,-390 171,-384 171,-384 171,-372 171,-372 171,-366 177,-360 183,-360 183,-360 213,-360 213,-360 219,-360 225,-366 225,-372 225,-372 225,-384 225,-384 225,-390 219,-396 213,-396"/>
<text text-anchor="middle" x="198" y="-374.3" font-family="Times,serif" font-size="14.00">Call</text>
</g>
<!-- ast.For object at 0x7f1c3c474a00&#45;&gt;ast.Call object at 0x7f1c3c476740 -->
<g id="edge12" class="edge">
<title>ast.For object at 0x7f1c3c474a00&#45;&gt;ast.Call object at 0x7f1c3c476740</title>
<path fill="none" stroke="black" d="M487.97,-443.03C431.27,-430.51 299.78,-401.48 235.18,-387.21"/>
<polygon fill="black" stroke="black" points="235.93,-383.79 225.41,-385.05 234.42,-390.63 235.93,-383.79"/>
</g>
<!-- ast.If object at 0x7f1c3c474fa0 -->
<g id="node19" class="node">
<title>ast.If object at 0x7f1c3c474fa0</title>
<path fill="#66cdaa" stroke="black" d="M494,-396C494,-396 464,-396 464,-396 458,-396 452,-390 452,-384 452,-384 452,-372 452,-372 452,-366 458,-360 464,-360 464,-360 494,-360 494,-360 500,-360 506,-366 506,-372 506,-372 506,-384 506,-384 506,-390 500,-396 494,-396"/>
<text text-anchor="middle" x="479" y="-374.3" font-family="Times,serif" font-size="14.00">If</text>
</g>
<!-- ast.For object at 0x7f1c3c474a00&#45;&gt;ast.If object at 0x7f1c3c474fa0 -->
<g id="edge20" class="edge">
<title>ast.For object at 0x7f1c3c474a00&#45;&gt;ast.If object at 0x7f1c3c474fa0</title>
<path fill="none" stroke="black" d="M506.1,-431.7C502,-423.73 497.05,-414.1 492.51,-405.26"/>
<polygon fill="black" stroke="black" points="495.48,-403.4 487.8,-396.1 489.26,-406.6 495.48,-403.4"/>
</g>
<!-- ast.Name object at 0x7f1c3c475870&#45;&gt;ast.Store object at 0x7f1c4a3edfc0 -->
<g id="edge11" class="edge">
<title>ast.Name object at 0x7f1c3c475870&#45;&gt;ast.Store object at 0x7f1c4a3edfc0</title>
<path fill="none" stroke="black" d="M566.08,-359.7C573.39,-351.3 582.31,-341.07 590.34,-331.86"/>
<polygon fill="black" stroke="black" points="593.16,-333.94 597.09,-324.1 587.89,-329.34 593.16,-333.94"/>
</g>
<!-- ast.Name object at 0x7f1c3c477580 -->
<g id="node13" class="node">
<title>ast.Name object at 0x7f1c3c477580</title>
<path fill="#66cdaa" stroke="black" d="M42,-324C42,-324 12,-324 12,-324 6,-324 0,-318 0,-312 0,-312 0,-300 0,-300 0,-294 6,-288 12,-288 12,-288 42,-288 42,-288 48,-288 54,-294 54,-300 54,-300 54,-312 54,-312 54,-318 48,-324 42,-324"/>
<text text-anchor="middle" x="27" y="-302.3" font-family="Times,serif" font-size="14.00">Name</text>
</g>
<!-- ast.Call object at 0x7f1c3c476740&#45;&gt;ast.Name object at 0x7f1c3c477580 -->
<g id="edge13" class="edge">
<title>ast.Call object at 0x7f1c3c476740&#45;&gt;ast.Name object at 0x7f1c3c477580</title>
<path fill="none" stroke="black" d="M170.96,-363.99C167.95,-362.62 164.92,-361.26 162,-360 129.06,-345.78 90.96,-330.96 63.65,-320.63"/>
<polygon fill="black" stroke="black" points="64.7,-317.28 54.11,-317.03 62.23,-323.83 64.7,-317.28"/>
</g>
<!-- ast.Constant object at 0x7f1c3c476140 -->
<g id="node14" class="node">
<title>ast.Constant object at 0x7f1c3c476140</title>
<path fill="#66cdaa" stroke="black" d="M140.5,-324C140.5,-324 99.5,-324 99.5,-324 93.5,-324 87.5,-318 87.5,-312 87.5,-312 87.5,-300 87.5,-300 87.5,-294 93.5,-288 99.5,-288 99.5,-288 140.5,-288 140.5,-288 146.5,-288 152.5,-294 152.5,-300 152.5,-300 152.5,-312 152.5,-312 152.5,-318 146.5,-324 140.5,-324"/>
<text text-anchor="middle" x="120" y="-302.3" font-family="Times,serif" font-size="14.00">Constant</text>
</g>
<!-- ast.Call object at 0x7f1c3c476740&#45;&gt;ast.Constant object at 0x7f1c3c476140 -->
<g id="edge15" class="edge">
<title>ast.Call object at 0x7f1c3c476740&#45;&gt;ast.Constant object at 0x7f1c3c476140</title>
<path fill="none" stroke="black" d="M178.72,-359.7C169.08,-351.05 157.27,-340.45 146.77,-331.03"/>
<polygon fill="black" stroke="black" points="148.84,-328.18 139.06,-324.1 144.16,-333.39 148.84,-328.18"/>
</g>
<!-- ast.BinOp object at 0x7f1c3c477070 -->
<g id="node15" class="node">
<title>ast.BinOp object at 0x7f1c3c477070</title>
<path fill="#66cdaa" stroke="black" d="M213,-324C213,-324 183,-324 183,-324 177,-324 171,-318 171,-312 171,-312 171,-300 171,-300 171,-294 177,-288 183,-288 183,-288 213,-288 213,-288 219,-288 225,-294 225,-300 225,-300 225,-312 225,-312 225,-318 219,-324 213,-324"/>
<text text-anchor="middle" x="198" y="-302.3" font-family="Times,serif" font-size="14.00">BinOp</text>
</g>
<!-- ast.Call object at 0x7f1c3c476740&#45;&gt;ast.BinOp object at 0x7f1c3c477070 -->
<g id="edge16" class="edge">
<title>ast.Call object at 0x7f1c3c476740&#45;&gt;ast.BinOp object at 0x7f1c3c477070</title>
<path fill="none" stroke="black" d="M198,-359.7C198,-351.98 198,-342.71 198,-334.11"/>
<polygon fill="black" stroke="black" points="201.5,-334.1 198,-324.1 194.5,-334.1 201.5,-334.1"/>
</g>
<!-- ast.Name object at 0x7f1c3c477580&#45;&gt;ast.Load object at 0x7f1c4a3edf60 -->
<g id="edge14" class="edge">
<title>ast.Name object at 0x7f1c3c477580&#45;&gt;ast.Load object at 0x7f1c4a3edf60</title>
<path fill="none" stroke="black" d="M25.36,-287.84C22.19,-243.45 20.73,-124.68 89,-72 144.95,-28.83 361.94,-20.8 449.78,-19.32"/>
<polygon fill="black" stroke="black" points="449.88,-22.82 459.83,-19.17 449.78,-15.82 449.88,-22.82"/>
</g>
<!-- ast.Constant object at 0x7f1c3c4756c0 -->
<g id="node16" class="node">
<title>ast.Constant object at 0x7f1c3c4756c0</title>
<path fill="#66cdaa" stroke="black" d="M92.5,-252C92.5,-252 51.5,-252 51.5,-252 45.5,-252 39.5,-246 39.5,-240 39.5,-240 39.5,-228 39.5,-228 39.5,-222 45.5,-216 51.5,-216 51.5,-216 92.5,-216 92.5,-216 98.5,-216 104.5,-222 104.5,-228 104.5,-228 104.5,-240 104.5,-240 104.5,-246 98.5,-252 92.5,-252"/>
<text text-anchor="middle" x="72" y="-230.3" font-family="Times,serif" font-size="14.00">Constant</text>
</g>
<!-- ast.BinOp object at 0x7f1c3c477070&#45;&gt;ast.Constant object at 0x7f1c3c4756c0 -->
<g id="edge17" class="edge">
<title>ast.BinOp object at 0x7f1c3c477070&#45;&gt;ast.Constant object at 0x7f1c3c4756c0</title>
<path fill="none" stroke="black" d="M170.97,-289.98C153.74,-280.41 131.11,-267.84 111.84,-257.14"/>
<polygon fill="black" stroke="black" points="113.42,-254.01 102.98,-252.21 110.02,-260.13 113.42,-254.01"/>
</g>
<!-- ast.Add object at 0x7f1c4a3ee1a0 -->
<g id="node17" class="node">
<title>ast.Add object at 0x7f1c4a3ee1a0</title>
<path fill="#66cdaa" stroke="black" d="M165,-252C165,-252 135,-252 135,-252 129,-252 123,-246 123,-240 123,-240 123,-228 123,-228 123,-222 129,-216 135,-216 135,-216 165,-216 165,-216 171,-216 177,-222 177,-228 177,-228 177,-240 177,-240 177,-246 171,-252 165,-252"/>
<text text-anchor="middle" x="150" y="-230.3" font-family="Times,serif" font-size="14.00">Add</text>
</g>
<!-- ast.BinOp object at 0x7f1c3c477070&#45;&gt;ast.Add object at 0x7f1c4a3ee1a0 -->
<g id="edge18" class="edge">
<title>ast.BinOp object at 0x7f1c3c477070&#45;&gt;ast.Add object at 0x7f1c4a3ee1a0</title>
<path fill="none" stroke="black" d="M186.13,-287.7C180.5,-279.47 173.65,-269.48 167.43,-260.42"/>
<polygon fill="black" stroke="black" points="170.27,-258.37 161.73,-252.1 164.5,-262.33 170.27,-258.37"/>
</g>
<!-- ast.Constant object at 0x7f1c3c476e60 -->
<g id="node18" class="node">
<title>ast.Constant object at 0x7f1c3c476e60</title>
<path fill="#66cdaa" stroke="black" d="M248.5,-252C248.5,-252 207.5,-252 207.5,-252 201.5,-252 195.5,-246 195.5,-240 195.5,-240 195.5,-228 195.5,-228 195.5,-222 201.5,-216 207.5,-216 207.5,-216 248.5,-216 248.5,-216 254.5,-216 260.5,-222 260.5,-228 260.5,-228 260.5,-240 260.5,-240 260.5,-246 254.5,-252 248.5,-252"/>
<text text-anchor="middle" x="228" y="-230.3" font-family="Times,serif" font-size="14.00">Constant</text>
</g>
<!-- ast.BinOp object at 0x7f1c3c477070&#45;&gt;ast.Constant object at 0x7f1c3c476e60 -->
<g id="edge19" class="edge">
<title>ast.BinOp object at 0x7f1c3c477070&#45;&gt;ast.Constant object at 0x7f1c3c476e60</title>
<path fill="none" stroke="black" d="M205.42,-287.7C208.79,-279.81 212.87,-270.3 216.62,-261.55"/>
<polygon fill="black" stroke="black" points="219.95,-262.67 220.67,-252.1 213.51,-259.92 219.95,-262.67"/>
</g>
<!-- ast.BoolOp object at 0x7f1c3c477df0 -->
<g id="node20" class="node">
<title>ast.BoolOp object at 0x7f1c3c477df0</title>
<path fill="#66cdaa" stroke="black" d="M420.5,-324C420.5,-324 385.5,-324 385.5,-324 379.5,-324 373.5,-318 373.5,-312 373.5,-312 373.5,-300 373.5,-300 373.5,-294 379.5,-288 385.5,-288 385.5,-288 420.5,-288 420.5,-288 426.5,-288 432.5,-294 432.5,-300 432.5,-300 432.5,-312 432.5,-312 432.5,-318 426.5,-324 420.5,-324"/>
<text text-anchor="middle" x="403" y="-302.3" font-family="Times,serif" font-size="14.00">BoolOp</text>
</g>
<!-- ast.If object at 0x7f1c3c474fa0&#45;&gt;ast.BoolOp object at 0x7f1c3c477df0 -->
<g id="edge21" class="edge">
<title>ast.If object at 0x7f1c3c474fa0&#45;&gt;ast.BoolOp object at 0x7f1c3c477df0</title>
<path fill="none" stroke="black" d="M460.21,-359.7C450.83,-351.05 439.32,-340.45 429.09,-331.03"/>
<polygon fill="black" stroke="black" points="431.3,-328.3 421.57,-324.1 426.55,-333.45 431.3,-328.3"/>
</g>
<!-- ast.Expr object at 0x7f1c3c474b80 -->
<g id="node33" class="node">
<title>ast.Expr object at 0x7f1c3c474b80</title>
<path fill="#66cdaa" stroke="black" d="M531,-324C531,-324 501,-324 501,-324 495,-324 489,-318 489,-312 489,-312 489,-300 489,-300 489,-294 495,-288 501,-288 501,-288 531,-288 531,-288 537,-288 543,-294 543,-300 543,-300 543,-312 543,-312 543,-318 537,-324 531,-324"/>
<text text-anchor="middle" x="516" y="-302.3" font-family="Times,serif" font-size="14.00">Expr</text>
</g>
<!-- ast.If object at 0x7f1c3c474fa0&#45;&gt;ast.Expr object at 0x7f1c3c474b80 -->
<g id="edge37" class="edge">
<title>ast.If object at 0x7f1c3c474fa0&#45;&gt;ast.Expr object at 0x7f1c3c474b80</title>
<path fill="none" stroke="black" d="M488.15,-359.7C492.4,-351.64 497.56,-341.89 502.27,-332.98"/>
<polygon fill="black" stroke="black" points="505.38,-334.58 506.96,-324.1 499.19,-331.31 505.38,-334.58"/>
</g>
<!-- ast.And object at 0x7f1c4a3ee0b0 -->
<g id="node21" class="node">
<title>ast.And object at 0x7f1c4a3ee0b0</title>
<path fill="#66cdaa" stroke="black" d="M491,-252C491,-252 461,-252 461,-252 455,-252 449,-246 449,-240 449,-240 449,-228 449,-228 449,-222 455,-216 461,-216 461,-216 491,-216 491,-216 497,-216 503,-222 503,-228 503,-228 503,-240 503,-240 503,-246 497,-252 491,-252"/>
<text text-anchor="middle" x="476" y="-230.3" font-family="Times,serif" font-size="14.00">And</text>
</g>
<!-- ast.BoolOp object at 0x7f1c3c477df0&#45;&gt;ast.And object at 0x7f1c4a3ee0b0 -->
<g id="edge22" class="edge">
<title>ast.BoolOp object at 0x7f1c3c477df0&#45;&gt;ast.And object at 0x7f1c4a3ee0b0</title>
<path fill="none" stroke="black" d="M421.04,-287.7C430.06,-279.05 441.12,-268.45 450.94,-259.03"/>
<polygon fill="black" stroke="black" points="453.37,-261.55 458.16,-252.1 448.52,-256.5 453.37,-261.55"/>
</g>
<!-- ast.Compare object at 0x7f1c3c476ef0 -->
<g id="node22" class="node">
<title>ast.Compare object at 0x7f1c3c476ef0</title>
<path fill="#66cdaa" stroke="black" d="M333.5,-252C333.5,-252 290.5,-252 290.5,-252 284.5,-252 278.5,-246 278.5,-240 278.5,-240 278.5,-228 278.5,-228 278.5,-222 284.5,-216 290.5,-216 290.5,-216 333.5,-216 333.5,-216 339.5,-216 345.5,-222 345.5,-228 345.5,-228 345.5,-240 345.5,-240 345.5,-246 339.5,-252 333.5,-252"/>
<text text-anchor="middle" x="312" y="-230.3" font-family="Times,serif" font-size="14.00">Compare</text>
</g>
<!-- ast.BoolOp object at 0x7f1c3c477df0&#45;&gt;ast.Compare object at 0x7f1c3c476ef0 -->
<g id="edge23" class="edge">
<title>ast.BoolOp object at 0x7f1c3c477df0&#45;&gt;ast.Compare object at 0x7f1c3c476ef0</title>
<path fill="none" stroke="black" d="M380.51,-287.7C369.04,-278.88 354.94,-268.03 342.52,-258.47"/>
<polygon fill="black" stroke="black" points="344.3,-255.43 334.24,-252.1 340.03,-260.98 344.3,-255.43"/>
</g>
<!-- ast.Compare object at 0x7f1c3c477790 -->
<g id="node29" class="node">
<title>ast.Compare object at 0x7f1c3c477790</title>
<path fill="#66cdaa" stroke="black" d="M418.5,-252C418.5,-252 375.5,-252 375.5,-252 369.5,-252 363.5,-246 363.5,-240 363.5,-240 363.5,-228 363.5,-228 363.5,-222 369.5,-216 375.5,-216 375.5,-216 418.5,-216 418.5,-216 424.5,-216 430.5,-222 430.5,-228 430.5,-228 430.5,-240 430.5,-240 430.5,-246 424.5,-252 418.5,-252"/>
<text text-anchor="middle" x="397" y="-230.3" font-family="Times,serif" font-size="14.00">Compare</text>
</g>
<!-- ast.BoolOp object at 0x7f1c3c477df0&#45;&gt;ast.Compare object at 0x7f1c3c477790 -->
<g id="edge32" class="edge">
<title>ast.BoolOp object at 0x7f1c3c477df0&#45;&gt;ast.Compare object at 0x7f1c3c477790</title>
<path fill="none" stroke="black" d="M401.52,-287.7C400.86,-279.98 400.06,-270.71 399.32,-262.11"/>
<polygon fill="black" stroke="black" points="402.81,-261.77 398.47,-252.1 395.83,-262.37 402.81,-261.77"/>
</g>
<!-- ast.BinOp object at 0x7f1c3c474cd0 -->
<g id="node23" class="node">
<title>ast.BinOp object at 0x7f1c3c474cd0</title>
<path fill="#66cdaa" stroke="black" d="M140,-180C140,-180 110,-180 110,-180 104,-180 98,-174 98,-168 98,-168 98,-156 98,-156 98,-150 104,-144 110,-144 110,-144 140,-144 140,-144 146,-144 152,-150 152,-156 152,-156 152,-168 152,-168 152,-174 146,-180 140,-180"/>
<text text-anchor="middle" x="125" y="-158.3" font-family="Times,serif" font-size="14.00">BinOp</text>
</g>
<!-- ast.Compare object at 0x7f1c3c476ef0&#45;&gt;ast.BinOp object at 0x7f1c3c474cd0 -->
<g id="edge24" class="edge">
<title>ast.Compare object at 0x7f1c3c476ef0&#45;&gt;ast.BinOp object at 0x7f1c3c474cd0</title>
<path fill="none" stroke="black" d="M278.15,-219.08C275.4,-218.01 272.66,-216.98 270,-216 224.91,-199.45 210.1,-198.93 161.79,-180.08"/>
<polygon fill="black" stroke="black" points="162.95,-176.78 152.36,-176.34 160.37,-183.29 162.95,-176.78"/>
</g>
<!-- ast.Eq object at 0x7f1c4a3ee890 -->
<g id="node27" class="node">
<title>ast.Eq object at 0x7f1c4a3ee890</title>
<path fill="#66cdaa" stroke="black" d="M296,-180C296,-180 266,-180 266,-180 260,-180 254,-174 254,-168 254,-168 254,-156 254,-156 254,-150 260,-144 266,-144 266,-144 296,-144 296,-144 302,-144 308,-150 308,-156 308,-156 308,-168 308,-168 308,-174 302,-180 296,-180"/>
<text text-anchor="middle" x="281" y="-158.3" font-family="Times,serif" font-size="14.00">Eq</text>
</g>
<!-- ast.Compare object at 0x7f1c3c476ef0&#45;&gt;ast.Eq object at 0x7f1c4a3ee890 -->
<g id="edge30" class="edge">
<title>ast.Compare object at 0x7f1c3c476ef0&#45;&gt;ast.Eq object at 0x7f1c4a3ee890</title>
<path fill="none" stroke="black" d="M304.34,-215.7C300.81,-207.73 296.54,-198.1 292.63,-189.26"/>
<polygon fill="black" stroke="black" points="295.82,-187.83 288.57,-180.1 289.42,-190.67 295.82,-187.83"/>
</g>
<!-- ast.Constant object at 0x7f1c3c4755a0 -->
<g id="node28" class="node">
<title>ast.Constant object at 0x7f1c3c4755a0</title>
<path fill="#66cdaa" stroke="black" d="M223.5,-180C223.5,-180 182.5,-180 182.5,-180 176.5,-180 170.5,-174 170.5,-168 170.5,-168 170.5,-156 170.5,-156 170.5,-150 176.5,-144 182.5,-144 182.5,-144 223.5,-144 223.5,-144 229.5,-144 235.5,-150 235.5,-156 235.5,-156 235.5,-168 235.5,-168 235.5,-174 229.5,-180 223.5,-180"/>
<text text-anchor="middle" x="203" y="-158.3" font-family="Times,serif" font-size="14.00">Constant</text>
</g>
<!-- ast.Compare object at 0x7f1c3c476ef0&#45;&gt;ast.Constant object at 0x7f1c3c4755a0 -->
<g id="edge31" class="edge">
<title>ast.Compare object at 0x7f1c3c476ef0&#45;&gt;ast.Constant object at 0x7f1c3c4755a0</title>
<path fill="none" stroke="black" d="M285.34,-215.88C271.22,-206.81 253.69,-195.55 238.44,-185.76"/>
<polygon fill="black" stroke="black" points="240.07,-182.65 229.77,-180.19 236.29,-188.54 240.07,-182.65"/>
</g>
<!-- ast.Name object at 0x7f1c3c475570 -->
<g id="node24" class="node">
<title>ast.Name object at 0x7f1c3c475570</title>
<path fill="#66cdaa" stroke="black" d="M307,-108C307,-108 277,-108 277,-108 271,-108 265,-102 265,-96 265,-96 265,-84 265,-84 265,-78 271,-72 277,-72 277,-72 307,-72 307,-72 313,-72 319,-78 319,-84 319,-84 319,-96 319,-96 319,-102 313,-108 307,-108"/>
<text text-anchor="middle" x="292" y="-86.3" font-family="Times,serif" font-size="14.00">Name</text>
</g>
<!-- ast.BinOp object at 0x7f1c3c474cd0&#45;&gt;ast.Name object at 0x7f1c3c475570 -->
<g id="edge25" class="edge">
<title>ast.BinOp object at 0x7f1c3c474cd0&#45;&gt;ast.Name object at 0x7f1c3c475570</title>
<path fill="none" stroke="black" d="M152.05,-148.02C155.06,-146.64 158.09,-145.28 161,-144 192.58,-130.17 228.97,-115.55 255.37,-105.18"/>
<polygon fill="black" stroke="black" points="256.93,-108.32 264.97,-101.42 254.38,-101.8 256.93,-108.32"/>
</g>
<!-- ast.Mod object at 0x7f1c4a3ee380 -->
<g id="node25" class="node">
<title>ast.Mod object at 0x7f1c4a3ee380</title>
<path fill="#66cdaa" stroke="black" d="M212,-108C212,-108 182,-108 182,-108 176,-108 170,-102 170,-96 170,-96 170,-84 170,-84 170,-78 176,-72 182,-72 182,-72 212,-72 212,-72 218,-72 224,-78 224,-84 224,-84 224,-96 224,-96 224,-102 218,-108 212,-108"/>
<text text-anchor="middle" x="197" y="-86.3" font-family="Times,serif" font-size="14.00">Mod</text>
</g>
<!-- ast.BinOp object at 0x7f1c3c474cd0&#45;&gt;ast.Mod object at 0x7f1c4a3ee380 -->
<g id="edge27" class="edge">
<title>ast.BinOp object at 0x7f1c3c474cd0&#45;&gt;ast.Mod object at 0x7f1c4a3ee380</title>
<path fill="none" stroke="black" d="M142.8,-143.7C151.6,-135.14 162.38,-124.66 172,-115.3"/>
<polygon fill="black" stroke="black" points="174.68,-117.58 179.41,-108.1 169.8,-112.57 174.68,-117.58"/>
</g>
<!-- ast.Name object at 0x7f1c3c475cc0 -->
<g id="node26" class="node">
<title>ast.Name object at 0x7f1c3c475cc0</title>
<path fill="#66cdaa" stroke="black" d="M140,-108C140,-108 110,-108 110,-108 104,-108 98,-102 98,-96 98,-96 98,-84 98,-84 98,-78 104,-72 110,-72 110,-72 140,-72 140,-72 146,-72 152,-78 152,-84 152,-84 152,-96 152,-96 152,-102 146,-108 140,-108"/>
<text text-anchor="middle" x="125" y="-86.3" font-family="Times,serif" font-size="14.00">Name</text>
</g>
<!-- ast.BinOp object at 0x7f1c3c474cd0&#45;&gt;ast.Name object at 0x7f1c3c475cc0 -->
<g id="edge28" class="edge">
<title>ast.BinOp object at 0x7f1c3c474cd0&#45;&gt;ast.Name object at 0x7f1c3c475cc0</title>
<path fill="none" stroke="black" d="M125,-143.7C125,-135.98 125,-126.71 125,-118.11"/>
<polygon fill="black" stroke="black" points="128.5,-118.1 125,-108.1 121.5,-118.1 128.5,-118.1"/>
</g>
<!-- ast.Name object at 0x7f1c3c475570&#45;&gt;ast.Load object at 0x7f1c4a3edf60 -->
<g id="edge26" class="edge">
<title>ast.Name object at 0x7f1c3c475570&#45;&gt;ast.Load object at 0x7f1c4a3edf60</title>
<path fill="none" stroke="black" d="M319.11,-79.27C353.22,-67.02 411.92,-45.95 450.09,-32.25"/>
<polygon fill="black" stroke="black" points="451.57,-35.44 459.8,-28.76 449.21,-28.85 451.57,-35.44"/>
</g>
<!-- ast.Name object at 0x7f1c3c475cc0&#45;&gt;ast.Load object at 0x7f1c4a3edf60 -->
<g id="edge29" class="edge">
<title>ast.Name object at 0x7f1c3c475cc0&#45;&gt;ast.Load object at 0x7f1c4a3edf60</title>
<path fill="none" stroke="black" d="M152.2,-75.19C155.13,-74 158.1,-72.9 161,-72 262.72,-40.4 388.46,-26.76 449.81,-21.64"/>
<polygon fill="black" stroke="black" points="450.11,-25.13 459.79,-20.84 449.54,-18.15 450.11,-25.13"/>
</g>
<!-- ast.Name object at 0x7f1c3c474df0 -->
<g id="node30" class="node">
<title>ast.Name object at 0x7f1c3c474df0</title>
<path fill="#66cdaa" stroke="black" d="M424,-108C424,-108 394,-108 394,-108 388,-108 382,-102 382,-96 382,-96 382,-84 382,-84 382,-78 388,-72 394,-72 394,-72 424,-72 424,-72 430,-72 436,-78 436,-84 436,-84 436,-96 436,-96 436,-102 430,-108 424,-108"/>
<text text-anchor="middle" x="409" y="-86.3" font-family="Times,serif" font-size="14.00">Name</text>
</g>
<!-- ast.Compare object at 0x7f1c3c477790&#45;&gt;ast.Name object at 0x7f1c3c474df0 -->
<g id="edge33" class="edge">
<title>ast.Compare object at 0x7f1c3c477790&#45;&gt;ast.Name object at 0x7f1c3c474df0</title>
<path fill="none" stroke="black" d="M378.83,-215.68C370.12,-206.1 360.59,-193.43 356,-180 350.83,-164.86 349.88,-158.78 356,-144 360.54,-133.03 368.59,-123.14 377.05,-114.96"/>
<polygon fill="black" stroke="black" points="379.44,-117.53 384.52,-108.23 374.75,-112.33 379.44,-117.53"/>
</g>
<!-- ast.Gt object at 0x7f1c4a3eea10 -->
<g id="node31" class="node">
<title>ast.Gt object at 0x7f1c4a3eea10</title>
<path fill="#66cdaa" stroke="black" d="M490,-180C490,-180 460,-180 460,-180 454,-180 448,-174 448,-168 448,-168 448,-156 448,-156 448,-150 454,-144 460,-144 460,-144 490,-144 490,-144 496,-144 502,-150 502,-156 502,-156 502,-168 502,-168 502,-174 496,-180 490,-180"/>
<text text-anchor="middle" x="475" y="-158.3" font-family="Times,serif" font-size="14.00">Gt</text>
</g>
<!-- ast.Compare object at 0x7f1c3c477790&#45;&gt;ast.Gt object at 0x7f1c4a3eea10 -->
<g id="edge35" class="edge">
<title>ast.Compare object at 0x7f1c3c477790&#45;&gt;ast.Gt object at 0x7f1c4a3eea10</title>
<path fill="none" stroke="black" d="M416.28,-215.7C425.92,-207.05 437.73,-196.45 448.23,-187.03"/>
<polygon fill="black" stroke="black" points="450.84,-189.39 455.94,-180.1 446.16,-184.18 450.84,-189.39"/>
</g>
<!-- ast.Constant object at 0x7f1c3c475a50 -->
<g id="node32" class="node">
<title>ast.Constant object at 0x7f1c3c475a50</title>
<path fill="#66cdaa" stroke="black" d="M417.5,-180C417.5,-180 376.5,-180 376.5,-180 370.5,-180 364.5,-174 364.5,-168 364.5,-168 364.5,-156 364.5,-156 364.5,-150 370.5,-144 376.5,-144 376.5,-144 417.5,-144 417.5,-144 423.5,-144 429.5,-150 429.5,-156 429.5,-156 429.5,-168 429.5,-168 429.5,-174 423.5,-180 417.5,-180"/>
<text text-anchor="middle" x="397" y="-158.3" font-family="Times,serif" font-size="14.00">Constant</text>
</g>
<!-- ast.Compare object at 0x7f1c3c477790&#45;&gt;ast.Constant object at 0x7f1c3c475a50 -->
<g id="edge36" class="edge">
<title>ast.Compare object at 0x7f1c3c477790&#45;&gt;ast.Constant object at 0x7f1c3c475a50</title>
<path fill="none" stroke="black" d="M397,-215.7C397,-207.98 397,-198.71 397,-190.11"/>
<polygon fill="black" stroke="black" points="400.5,-190.1 397,-180.1 393.5,-190.1 400.5,-190.1"/>
</g>
<!-- ast.Name object at 0x7f1c3c474df0&#45;&gt;ast.Load object at 0x7f1c4a3edf60 -->
<g id="edge34" class="edge">
<title>ast.Name object at 0x7f1c3c474df0&#45;&gt;ast.Load object at 0x7f1c4a3edf60</title>
<path fill="none" stroke="black" d="M428.28,-71.7C437.92,-63.05 449.73,-52.45 460.23,-43.03"/>
<polygon fill="black" stroke="black" points="462.84,-45.39 467.94,-36.1 458.16,-40.18 462.84,-45.39"/>
</g>
<!-- ast.Call object at 0x7f1c3c477190 -->
<g id="node34" class="node">
<title>ast.Call object at 0x7f1c3c477190</title>
<path fill="#66cdaa" stroke="black" d="M563,-252C563,-252 533,-252 533,-252 527,-252 521,-246 521,-240 521,-240 521,-228 521,-228 521,-222 527,-216 533,-216 533,-216 563,-216 563,-216 569,-216 575,-222 575,-228 575,-228 575,-240 575,-240 575,-246 569,-252 563,-252"/>
<text text-anchor="middle" x="548" y="-230.3" font-family="Times,serif" font-size="14.00">Call</text>
</g>
<!-- ast.Expr object at 0x7f1c3c474b80&#45;&gt;ast.Call object at 0x7f1c3c477190 -->
<g id="edge38" class="edge">
<title>ast.Expr object at 0x7f1c3c474b80&#45;&gt;ast.Call object at 0x7f1c3c477190</title>
<path fill="none" stroke="black" d="M523.91,-287.7C527.55,-279.73 531.95,-270.1 535.99,-261.26"/>
<polygon fill="black" stroke="black" points="539.21,-262.65 540.18,-252.1 532.84,-259.74 539.21,-262.65"/>
</g>
<!-- ast.Attribute object at 0x7f1c3c4751b0 -->
<g id="node35" class="node">
<title>ast.Attribute object at 0x7f1c3c4751b0</title>
<path fill="#66cdaa" stroke="black" d="M645.5,-180C645.5,-180 604.5,-180 604.5,-180 598.5,-180 592.5,-174 592.5,-168 592.5,-168 592.5,-156 592.5,-156 592.5,-150 598.5,-144 604.5,-144 604.5,-144 645.5,-144 645.5,-144 651.5,-144 657.5,-150 657.5,-156 657.5,-156 657.5,-168 657.5,-168 657.5,-174 651.5,-180 645.5,-180"/>
<text text-anchor="middle" x="625" y="-158.3" font-family="Times,serif" font-size="14.00">Attribute</text>
</g>
<!-- ast.Call object at 0x7f1c3c477190&#45;&gt;ast.Attribute object at 0x7f1c3c4751b0 -->
<g id="edge39" class="edge">
<title>ast.Call object at 0x7f1c3c477190&#45;&gt;ast.Attribute object at 0x7f1c3c4751b0</title>
<path fill="none" stroke="black" d="M567.03,-215.7C576.54,-207.05 588.21,-196.45 598.57,-187.03"/>
<polygon fill="black" stroke="black" points="601.14,-189.42 606.19,-180.1 596.43,-184.24 601.14,-189.42"/>
</g>
<!-- ast.Name object at 0x7f1c3c477160 -->
<g id="node37" class="node">
<title>ast.Name object at 0x7f1c3c477160</title>
<path fill="#66cdaa" stroke="black" d="M562,-180C562,-180 532,-180 532,-180 526,-180 520,-174 520,-168 520,-168 520,-156 520,-156 520,-150 526,-144 532,-144 532,-144 562,-144 562,-144 568,-144 574,-150 574,-156 574,-156 574,-168 574,-168 574,-174 568,-180 562,-180"/>
<text text-anchor="middle" x="547" y="-158.3" font-family="Times,serif" font-size="14.00">Name</text>
</g>
<!-- ast.Call object at 0x7f1c3c477190&#45;&gt;ast.Name object at 0x7f1c3c477160 -->
<g id="edge43" class="edge">
<title>ast.Call object at 0x7f1c3c477190&#45;&gt;ast.Name object at 0x7f1c3c477160</title>
<path fill="none" stroke="black" d="M547.75,-215.7C547.64,-207.98 547.51,-198.71 547.39,-190.11"/>
<polygon fill="black" stroke="black" points="550.89,-190.05 547.24,-180.1 543.89,-190.15 550.89,-190.05"/>
</g>
<!-- ast.Attribute object at 0x7f1c3c4751b0&#45;&gt;ast.Load object at 0x7f1c4a3edf60 -->
<g id="edge42" class="edge">
<title>ast.Attribute object at 0x7f1c3c4751b0&#45;&gt;ast.Load object at 0x7f1c4a3edf60</title>
<path fill="none" stroke="black" d="M592.33,-143.92C576.56,-134.66 558.07,-122.21 544,-108 525.67,-89.49 510.13,-64.13 499.93,-45.21"/>
<polygon fill="black" stroke="black" points="502.98,-43.47 495.23,-36.24 496.78,-46.72 502.98,-43.47"/>
</g>
<!-- ast.Name object at 0x7f1c3c475900 -->
<g id="node36" class="node">
<title>ast.Name object at 0x7f1c3c475900</title>
<path fill="#66cdaa" stroke="black" d="M595,-108C595,-108 565,-108 565,-108 559,-108 553,-102 553,-96 553,-96 553,-84 553,-84 553,-78 559,-72 565,-72 565,-72 595,-72 595,-72 601,-72 607,-78 607,-84 607,-84 607,-96 607,-96 607,-102 601,-108 595,-108"/>
<text text-anchor="middle" x="580" y="-86.3" font-family="Times,serif" font-size="14.00">Name</text>
</g>
<!-- ast.Attribute object at 0x7f1c3c4751b0&#45;&gt;ast.Name object at 0x7f1c3c475900 -->
<g id="edge40" class="edge">
<title>ast.Attribute object at 0x7f1c3c4751b0&#45;&gt;ast.Name object at 0x7f1c3c475900</title>
<path fill="none" stroke="black" d="M613.88,-143.7C608.64,-135.56 602.3,-125.69 596.52,-116.7"/>
<polygon fill="black" stroke="black" points="599.35,-114.62 591,-108.1 593.46,-118.41 599.35,-114.62"/>
</g>
<!-- ast.Name object at 0x7f1c3c475900&#45;&gt;ast.Load object at 0x7f1c4a3edf60 -->
<g id="edge41" class="edge">
<title>ast.Name object at 0x7f1c3c475900&#45;&gt;ast.Load object at 0x7f1c4a3edf60</title>
<path fill="none" stroke="black" d="M557.01,-71.7C545.19,-62.8 530.61,-51.82 517.82,-42.2"/>
<polygon fill="black" stroke="black" points="519.82,-39.32 509.72,-36.1 515.61,-44.91 519.82,-39.32"/>
</g>
<!-- ast.Name object at 0x7f1c3c477160&#45;&gt;ast.Load object at 0x7f1c4a3edf60 -->
<g id="edge44" class="edge">
<title>ast.Name object at 0x7f1c3c477160&#45;&gt;ast.Load object at 0x7f1c4a3edf60</title>
<path fill="none" stroke="black" d="M533.1,-143.73C525.66,-133.78 516.84,-120.74 511,-108 501.91,-88.18 495.7,-64.24 491.87,-46.19"/>
<polygon fill="black" stroke="black" points="495.29,-45.43 489.9,-36.32 488.43,-46.81 495.29,-45.43"/>
</g>
<!-- ast.Name object at 0x7f1c3c474070 -->
<g id="node39" class="node">
<title>ast.Name object at 0x7f1c3c474070</title>
<path fill="#66cdaa" stroke="black" d="M739,-108C739,-108 709,-108 709,-108 703,-108 697,-102 697,-96 697,-96 697,-84 697,-84 697,-78 703,-72 709,-72 709,-72 739,-72 739,-72 745,-72 751,-78 751,-84 751,-84 751,-96 751,-96 751,-102 745,-108 739,-108"/>
<text text-anchor="middle" x="724" y="-86.3" font-family="Times,serif" font-size="14.00">Name</text>
</g>
<!-- ast.Return object at 0x7f1c3c475420&#45;&gt;ast.Name object at 0x7f1c3c474070 -->
<g id="edge46" class="edge">
<title>ast.Return object at 0x7f1c3c475420&#45;&gt;ast.Name object at 0x7f1c3c474070</title>
<path fill="none" stroke="black" d="M719.19,-431.96C720.93,-405.31 724,-352.15 724,-307 724,-307 724,-307 724,-233 724,-193 724,-146.65 724,-118.08"/>
<polygon fill="black" stroke="black" points="727.5,-118.05 724,-108.05 720.5,-118.05 727.5,-118.05"/>
</g>
<!-- ast.Name object at 0x7f1c3c474070&#45;&gt;ast.Load object at 0x7f1c4a3edf60 -->
<g id="edge47" class="edge">
<title>ast.Name object at 0x7f1c3c474070&#45;&gt;ast.Load object at 0x7f1c4a3edf60</title>
<path fill="none" stroke="black" d="M696.7,-75.48C693.8,-74.23 690.86,-73.04 688,-72 632.05,-51.61 564.71,-35.48 523.92,-26.6"/>
<polygon fill="black" stroke="black" points="524.65,-23.18 514.14,-24.5 523.18,-30.02 524.65,-23.18"/>
</g>
</g>
</svg>
