<?xml version="1.0" encoding="UTF-8" standalone="no"?>
<!DOCTYPE svg PUBLIC "-//W3C//DTD SVG 1.1//EN"
 "http://www.w3.org/Graphics/SVG/1.1/DTD/svg11.dtd">
<!-- Generated by graphviz version 2.43.0 (0)
 -->
<!-- Title: %3 Pages: 1 -->
<svg width="520pt" height="548pt"
 viewBox="0.00 0.00 519.50 548.00" xmlns="http://www.w3.org/2000/svg" xmlns:xlink="http://www.w3.org/1999/xlink">
<g id="graph0" class="graph" transform="scale(1 1) rotate(0) translate(4 544)">
<title>%3</title>
<polygon fill="white" stroke="transparent" points="-4,4 -4,-544 515.5,-544 515.5,4 -4,4"/>
<!-- ast.Module object at 0x7f648a279a80 -->
<g id="node1" class="node">
<title>ast.Module object at 0x7f648a279a80</title>
<path fill="#66cdaa" stroke="black" d="M157.5,-540C157.5,-540 122.5,-540 122.5,-540 116.5,-540 110.5,-534 110.5,-528 110.5,-528 110.5,-516 110.5,-516 110.5,-510 116.5,-504 122.5,-504 122.5,-504 157.5,-504 157.5,-504 163.5,-504 169.5,-510 169.5,-516 169.5,-516 169.5,-528 169.5,-528 169.5,-534 163.5,-540 157.5,-540"/>
<text text-anchor="middle" x="140" y="-518.3" font-family="Times,serif" font-size="14.00">Module</text>
</g>
<!-- ast.FunctionDef object at 0x7f648a2793c0 -->
<g id="node2" class="node">
<title>ast.FunctionDef object at 0x7f648a2793c0</title>
<path fill="#66cdaa" stroke="black" d="M170.5,-468C170.5,-468 109.5,-468 109.5,-468 103.5,-468 97.5,-462 97.5,-456 97.5,-456 97.5,-444 97.5,-444 97.5,-438 103.5,-432 109.5,-432 109.5,-432 170.5,-432 170.5,-432 176.5,-432 182.5,-438 182.5,-444 182.5,-444 182.5,-456 182.5,-456 182.5,-462 176.5,-468 170.5,-468"/>
<text text-anchor="middle" x="140" y="-446.3" font-family="Times,serif" font-size="14.00">FunctionDef</text>
</g>
<!-- ast.Module object at 0x7f648a279a80&#45;&gt;ast.FunctionDef object at 0x7f648a2793c0 -->
<g id="edge1" class="edge">
<title>ast.Module object at 0x7f648a279a80&#45;&gt;ast.FunctionDef object at 0x7f648a2793c0</title>
<path fill="none" stroke="black" d="M140,-503.7C140,-495.98 140,-486.71 140,-478.11"/>
<polygon fill="black" stroke="black" points="143.5,-478.1 140,-468.1 136.5,-478.1 143.5,-478.1"/>
</g>
<!-- ast.arguments object at 0x7f648a2792d0 -->
<g id="node3" class="node">
<title>ast.arguments object at 0x7f648a2792d0</title>
<path fill="#66cdaa" stroke="black" d="M97,-396C97,-396 47,-396 47,-396 41,-396 35,-390 35,-384 35,-384 35,-372 35,-372 35,-366 41,-360 47,-360 47,-360 97,-360 97,-360 103,-360 109,-366 109,-372 109,-372 109,-384 109,-384 109,-390 103,-396 97,-396"/>
<text text-anchor="middle" x="72" y="-374.3" font-family="Times,serif" font-size="14.00">arguments</text>
</g>
<!-- ast.FunctionDef object at 0x7f648a2793c0&#45;&gt;ast.arguments object at 0x7f648a2792d0 -->
<g id="edge2" class="edge">
<title>ast.FunctionDef object at 0x7f648a2793c0&#45;&gt;ast.arguments object at 0x7f648a2792d0</title>
<path fill="none" stroke="black" d="M123.19,-431.7C114.87,-423.14 104.69,-412.66 95.61,-403.3"/>
<polygon fill="black" stroke="black" points="98.09,-400.84 88.62,-396.1 93.07,-405.72 98.09,-400.84"/>
</g>
<!-- ast.Assign object at 0x7f648a279390 -->
<g id="node5" class="node">
<title>ast.Assign object at 0x7f648a279390</title>
<path fill="#66cdaa" stroke="black" d="M155,-324C155,-324 125,-324 125,-324 119,-324 113,-318 113,-312 113,-312 113,-300 113,-300 113,-294 119,-288 125,-288 125,-288 155,-288 155,-288 161,-288 167,-294 167,-300 167,-300 167,-312 167,-312 167,-318 161,-324 155,-324"/>
<text text-anchor="middle" x="140" y="-302.3" font-family="Times,serif" font-size="14.00">Assign</text>
</g>
<!-- ast.FunctionDef object at 0x7f648a2793c0&#45;&gt;ast.Assign object at 0x7f648a279390 -->
<g id="edge4" class="edge">
<title>ast.FunctionDef object at 0x7f648a2793c0&#45;&gt;ast.Assign object at 0x7f648a279390</title>
<path fill="none" stroke="black" d="M140,-431.87C140,-407.67 140,-363.21 140,-334.39"/>
<polygon fill="black" stroke="black" points="143.5,-334.19 140,-324.19 136.5,-334.19 143.5,-334.19"/>
</g>
<!-- ast.Return object at 0x7f6489fe4df0 -->
<g id="node14" class="node">
<title>ast.Return object at 0x7f6489fe4df0</title>
<path fill="#66cdaa" stroke="black" d="M222,-396C222,-396 192,-396 192,-396 186,-396 180,-390 180,-384 180,-384 180,-372 180,-372 180,-366 186,-360 192,-360 192,-360 222,-360 222,-360 228,-360 234,-366 234,-372 234,-372 234,-384 234,-384 234,-390 228,-396 222,-396"/>
<text text-anchor="middle" x="207" y="-374.3" font-family="Times,serif" font-size="14.00">Return</text>
</g>
<!-- ast.FunctionDef object at 0x7f648a2793c0&#45;&gt;ast.Return object at 0x7f6489fe4df0 -->
<g id="edge15" class="edge">
<title>ast.FunctionDef object at 0x7f648a2793c0&#45;&gt;ast.Return object at 0x7f6489fe4df0</title>
<path fill="none" stroke="black" d="M156.56,-431.7C164.68,-423.22 174.59,-412.86 183.47,-403.58"/>
<polygon fill="black" stroke="black" points="186.24,-405.75 190.63,-396.1 181.19,-400.91 186.24,-405.75"/>
</g>
<!-- ast.arg object at 0x7f648a278250 -->
<g id="node4" class="node">
<title>ast.arg object at 0x7f648a278250</title>
<path fill="#66cdaa" stroke="black" d="M83,-324C83,-324 53,-324 53,-324 47,-324 41,-318 41,-312 41,-312 41,-300 41,-300 41,-294 47,-288 53,-288 53,-288 83,-288 83,-288 89,-288 95,-294 95,-300 95,-300 95,-312 95,-312 95,-318 89,-324 83,-324"/>
<text text-anchor="middle" x="68" y="-302.3" font-family="Times,serif" font-size="14.00">arg</text>
</g>
<!-- ast.arguments object at 0x7f648a2792d0&#45;&gt;ast.arg object at 0x7f648a278250 -->
<g id="edge3" class="edge">
<title>ast.arguments object at 0x7f648a2792d0&#45;&gt;ast.arg object at 0x7f648a278250</title>
<path fill="none" stroke="black" d="M71.01,-359.7C70.57,-351.98 70.04,-342.71 69.55,-334.11"/>
<polygon fill="black" stroke="black" points="73.04,-333.89 68.98,-324.1 66.05,-334.29 73.04,-333.89"/>
</g>
<!-- ast.Name object at 0x7f648a278ee0 -->
<g id="node6" class="node">
<title>ast.Name object at 0x7f648a278ee0</title>
<path fill="#66cdaa" stroke="black" d="M64,-252C64,-252 34,-252 34,-252 28,-252 22,-246 22,-240 22,-240 22,-228 22,-228 22,-222 28,-216 34,-216 34,-216 64,-216 64,-216 70,-216 76,-222 76,-228 76,-228 76,-240 76,-240 76,-246 70,-252 64,-252"/>
<text text-anchor="middle" x="49" y="-230.3" font-family="Times,serif" font-size="14.00">Name</text>
</g>
<!-- ast.Assign object at 0x7f648a279390&#45;&gt;ast.Name object at 0x7f648a278ee0 -->
<g id="edge5" class="edge">
<title>ast.Assign object at 0x7f648a279390&#45;&gt;ast.Name object at 0x7f648a278ee0</title>
<path fill="none" stroke="black" d="M117.51,-287.7C106.04,-278.88 91.94,-268.03 79.52,-258.47"/>
<polygon fill="black" stroke="black" points="81.3,-255.43 71.24,-252.1 77.03,-260.98 81.3,-255.43"/>
</g>
<!-- ast.Call object at 0x7f648a279750 -->
<g id="node8" class="node">
<title>ast.Call object at 0x7f648a279750</title>
<path fill="#66cdaa" stroke="black" d="M155,-252C155,-252 125,-252 125,-252 119,-252 113,-246 113,-240 113,-240 113,-228 113,-228 113,-222 119,-216 125,-216 125,-216 155,-216 155,-216 161,-216 167,-222 167,-228 167,-228 167,-240 167,-240 167,-246 161,-252 155,-252"/>
<text text-anchor="middle" x="140" y="-230.3" font-family="Times,serif" font-size="14.00">Call</text>
</g>
<!-- ast.Assign object at 0x7f648a279390&#45;&gt;ast.Call object at 0x7f648a279750 -->
<g id="edge7" class="edge">
<title>ast.Assign object at 0x7f648a279390&#45;&gt;ast.Call object at 0x7f648a279750</title>
<path fill="none" stroke="black" d="M140,-287.7C140,-279.98 140,-270.71 140,-262.11"/>
<polygon fill="black" stroke="black" points="143.5,-262.1 140,-252.1 136.5,-262.1 143.5,-262.1"/>
</g>
<!-- ast.Store object at 0x7f64909edfc0 -->
<g id="node7" class="node">
<title>ast.Store object at 0x7f64909edfc0</title>
<path fill="#66cdaa" stroke="black" d="M54,-180C54,-180 24,-180 24,-180 18,-180 12,-174 12,-168 12,-168 12,-156 12,-156 12,-150 18,-144 24,-144 24,-144 54,-144 54,-144 60,-144 66,-150 66,-156 66,-156 66,-168 66,-168 66,-174 60,-180 54,-180"/>
<text text-anchor="middle" x="39" y="-158.3" font-family="Times,serif" font-size="14.00">Store</text>
</g>
<!-- ast.Name object at 0x7f648a278ee0&#45;&gt;ast.Store object at 0x7f64909edfc0 -->
<g id="edge6" class="edge">
<title>ast.Name object at 0x7f648a278ee0&#45;&gt;ast.Store object at 0x7f64909edfc0</title>
<path fill="none" stroke="black" d="M46.53,-215.7C45.43,-207.98 44.1,-198.71 42.87,-190.11"/>
<polygon fill="black" stroke="black" points="46.32,-189.51 41.44,-180.1 39.39,-190.5 46.32,-189.51"/>
</g>
<!-- ast.Name object at 0x7f648a2786d0 -->
<g id="node9" class="node">
<title>ast.Name object at 0x7f648a2786d0</title>
<path fill="#66cdaa" stroke="black" d="M42,-108C42,-108 12,-108 12,-108 6,-108 0,-102 0,-96 0,-96 0,-84 0,-84 0,-78 6,-72 12,-72 12,-72 42,-72 42,-72 48,-72 54,-78 54,-84 54,-84 54,-96 54,-96 54,-102 48,-108 42,-108"/>
<text text-anchor="middle" x="27" y="-86.3" font-family="Times,serif" font-size="14.00">Name</text>
</g>
<!-- ast.Call object at 0x7f648a279750&#45;&gt;ast.Name object at 0x7f648a2786d0 -->
<g id="edge8" class="edge">
<title>ast.Call object at 0x7f648a279750&#45;&gt;ast.Name object at 0x7f648a2786d0</title>
<path fill="none" stroke="black" d="M128.29,-215.87C115.66,-197.65 94.69,-168.18 75,-144 67.32,-134.57 58.48,-124.59 50.5,-115.86"/>
<polygon fill="black" stroke="black" points="52.83,-113.23 43.48,-108.26 47.69,-117.98 52.83,-113.23"/>
</g>
<!-- ast.Call object at 0x7f648a27a2f0 -->
<g id="node11" class="node">
<title>ast.Call object at 0x7f648a27a2f0</title>
<path fill="#66cdaa" stroke="black" d="M164,-180C164,-180 134,-180 134,-180 128,-180 122,-174 122,-168 122,-168 122,-156 122,-156 122,-150 128,-144 134,-144 134,-144 164,-144 164,-144 170,-144 176,-150 176,-156 176,-156 176,-168 176,-168 176,-174 170,-180 164,-180"/>
<text text-anchor="middle" x="149" y="-158.3" font-family="Times,serif" font-size="14.00">Call</text>
</g>
<!-- ast.Call object at 0x7f648a279750&#45;&gt;ast.Call object at 0x7f648a27a2f0 -->
<g id="edge10" class="edge">
<title>ast.Call object at 0x7f648a279750&#45;&gt;ast.Call object at 0x7f648a27a2f0</title>
<path fill="none" stroke="black" d="M142.22,-215.7C143.22,-207.98 144.41,-198.71 145.51,-190.11"/>
<polygon fill="black" stroke="black" points="149,-190.47 146.8,-180.1 142.05,-189.58 149,-190.47"/>
</g>
<!-- ast.Load object at 0x7f64909edf60 -->
<g id="node10" class="node">
<title>ast.Load object at 0x7f64909edf60</title>
<path fill="#66cdaa" stroke="black" d="M241,-36C241,-36 211,-36 211,-36 205,-36 199,-30 199,-24 199,-24 199,-12 199,-12 199,-6 205,0 211,0 211,0 241,0 241,0 247,0 253,-6 253,-12 253,-12 253,-24 253,-24 253,-30 247,-36 241,-36"/>
<text text-anchor="middle" x="226" y="-14.3" font-family="Times,serif" font-size="14.00">Load</text>
</g>
<!-- ast.Name object at 0x7f648a2786d0&#45;&gt;ast.Load object at 0x7f64909edf60 -->
<g id="edge9" class="edge">
<title>ast.Name object at 0x7f648a2786d0&#45;&gt;ast.Load object at 0x7f64909edf60</title>
<path fill="none" stroke="black" d="M54.36,-75.64C57.25,-74.36 60.17,-73.12 63,-72 105.49,-55.14 155.67,-39.43 189.02,-29.56"/>
<polygon fill="black" stroke="black" points="190.19,-32.87 198.8,-26.69 188.22,-26.15 190.19,-32.87"/>
</g>
<!-- ast.Name object at 0x7f648a278f70 -->
<g id="node12" class="node">
<title>ast.Name object at 0x7f648a278f70</title>
<path fill="#66cdaa" stroke="black" d="M114,-108C114,-108 84,-108 84,-108 78,-108 72,-102 72,-96 72,-96 72,-84 72,-84 72,-78 78,-72 84,-72 84,-72 114,-72 114,-72 120,-72 126,-78 126,-84 126,-84 126,-96 126,-96 126,-102 120,-108 114,-108"/>
<text text-anchor="middle" x="99" y="-86.3" font-family="Times,serif" font-size="14.00">Name</text>
</g>
<!-- ast.Call object at 0x7f648a27a2f0&#45;&gt;ast.Name object at 0x7f648a278f70 -->
<g id="edge11" class="edge">
<title>ast.Call object at 0x7f648a27a2f0&#45;&gt;ast.Name object at 0x7f648a278f70</title>
<path fill="none" stroke="black" d="M136.64,-143.7C130.77,-135.47 123.63,-125.48 117.16,-116.42"/>
<polygon fill="black" stroke="black" points="119.88,-114.21 111.22,-108.1 114.18,-118.28 119.88,-114.21"/>
</g>
<!-- ast.Name object at 0x7f648a278160 -->
<g id="node13" class="node">
<title>ast.Name object at 0x7f648a278160</title>
<path fill="#66cdaa" stroke="black" d="M186,-108C186,-108 156,-108 156,-108 150,-108 144,-102 144,-96 144,-96 144,-84 144,-84 144,-78 150,-72 156,-72 156,-72 186,-72 186,-72 192,-72 198,-78 198,-84 198,-84 198,-96 198,-96 198,-102 192,-108 186,-108"/>
<text text-anchor="middle" x="171" y="-86.3" font-family="Times,serif" font-size="14.00">Name</text>
</g>
<!-- ast.Call object at 0x7f648a27a2f0&#45;&gt;ast.Name object at 0x7f648a278160 -->
<g id="edge13" class="edge">
<title>ast.Call object at 0x7f648a27a2f0&#45;&gt;ast.Name object at 0x7f648a278160</title>
<path fill="none" stroke="black" d="M154.44,-143.7C156.89,-135.9 159.84,-126.51 162.57,-117.83"/>
<polygon fill="black" stroke="black" points="165.96,-118.69 165.62,-108.1 159.29,-116.59 165.96,-118.69"/>
</g>
<!-- ast.Name object at 0x7f648a278f70&#45;&gt;ast.Load object at 0x7f64909edf60 -->
<g id="edge12" class="edge">
<title>ast.Name object at 0x7f648a278f70&#45;&gt;ast.Load object at 0x7f64909edf60</title>
<path fill="none" stroke="black" d="M126.24,-73.98C144.83,-63.74 169.64,-50.07 189.87,-38.92"/>
<polygon fill="black" stroke="black" points="191.73,-41.88 198.8,-33.99 188.35,-35.75 191.73,-41.88"/>
</g>
<!-- ast.Name object at 0x7f648a278160&#45;&gt;ast.Load object at 0x7f64909edf60 -->
<g id="edge14" class="edge">
<title>ast.Name object at 0x7f648a278160&#45;&gt;ast.Load object at 0x7f64909edf60</title>
<path fill="none" stroke="black" d="M184.6,-71.7C191.12,-63.39 199.07,-53.28 206.25,-44.14"/>
<polygon fill="black" stroke="black" points="209.13,-46.13 212.56,-36.1 203.63,-41.81 209.13,-46.13"/>
</g>
<!-- ast.Subscript object at 0x7f6489fe4550 -->
<g id="node15" class="node">
<title>ast.Subscript object at 0x7f6489fe4550</title>
<path fill="#66cdaa" stroke="black" d="M269,-324C269,-324 225,-324 225,-324 219,-324 213,-318 213,-312 213,-312 213,-300 213,-300 213,-294 219,-288 225,-288 225,-288 269,-288 269,-288 275,-288 281,-294 281,-300 281,-300 281,-312 281,-312 281,-318 275,-324 269,-324"/>
<text text-anchor="middle" x="247" y="-302.3" font-family="Times,serif" font-size="14.00">Subscript</text>
</g>
<!-- ast.Return object at 0x7f6489fe4df0&#45;&gt;ast.Subscript object at 0x7f6489fe4550 -->
<g id="edge16" class="edge">
<title>ast.Return object at 0x7f6489fe4df0&#45;&gt;ast.Subscript object at 0x7f6489fe4550</title>
<path fill="none" stroke="black" d="M216.89,-359.7C221.49,-351.64 227.06,-341.89 232.15,-332.98"/>
<polygon fill="black" stroke="black" points="235.3,-334.52 237.23,-324.1 229.23,-331.05 235.3,-334.52"/>
</g>
<!-- ast.Subscript object at 0x7f6489fe4550&#45;&gt;ast.Load object at 0x7f64909edf60 -->
<g id="edge27" class="edge">
<title>ast.Subscript object at 0x7f6489fe4550&#45;&gt;ast.Load object at 0x7f64909edf60</title>
<path fill="none" stroke="black" d="M245.75,-287.97C242.25,-240.29 232.33,-105.18 228.03,-46.63"/>
<polygon fill="black" stroke="black" points="231.49,-46.02 227.27,-36.31 224.51,-46.54 231.49,-46.02"/>
</g>
<!-- ast.Call object at 0x7f6489f68b50 -->
<g id="node16" class="node">
<title>ast.Call object at 0x7f6489f68b50</title>
<path fill="#66cdaa" stroke="black" d="M315,-252C315,-252 285,-252 285,-252 279,-252 273,-246 273,-240 273,-240 273,-228 273,-228 273,-222 279,-216 285,-216 285,-216 315,-216 315,-216 321,-216 327,-222 327,-228 327,-228 327,-240 327,-240 327,-246 321,-252 315,-252"/>
<text text-anchor="middle" x="300" y="-230.3" font-family="Times,serif" font-size="14.00">Call</text>
</g>
<!-- ast.Subscript object at 0x7f6489fe4550&#45;&gt;ast.Call object at 0x7f6489f68b50 -->
<g id="edge17" class="edge">
<title>ast.Subscript object at 0x7f6489fe4550&#45;&gt;ast.Call object at 0x7f6489f68b50</title>
<path fill="none" stroke="black" d="M260.1,-287.7C266.39,-279.39 274.05,-269.28 280.96,-260.14"/>
<polygon fill="black" stroke="black" points="283.8,-262.19 287.05,-252.1 278.22,-257.96 283.8,-262.19"/>
</g>
<!-- ast.Slice object at 0x7f6489f68b80 -->
<g id="node21" class="node">
<title>ast.Slice object at 0x7f6489f68b80</title>
<path fill="#66cdaa" stroke="black" d="M440,-252C440,-252 410,-252 410,-252 404,-252 398,-246 398,-240 398,-240 398,-228 398,-228 398,-222 404,-216 410,-216 410,-216 440,-216 440,-216 446,-216 452,-222 452,-228 452,-228 452,-240 452,-240 452,-246 446,-252 440,-252"/>
<text text-anchor="middle" x="425" y="-230.3" font-family="Times,serif" font-size="14.00">Slice</text>
</g>
<!-- ast.Subscript object at 0x7f6489fe4550&#45;&gt;ast.Slice object at 0x7f6489f68b80 -->
<g id="edge25" class="edge">
<title>ast.Subscript object at 0x7f6489fe4550&#45;&gt;ast.Slice object at 0x7f6489f68b80</title>
<path fill="none" stroke="black" d="M281.32,-291.5C311.95,-279.46 356.69,-261.86 388.08,-249.52"/>
<polygon fill="black" stroke="black" points="389.75,-252.62 397.77,-245.71 387.18,-246.11 389.75,-252.62"/>
</g>
<!-- ast.Name object at 0x7f6489f68b20 -->
<g id="node17" class="node">
<title>ast.Name object at 0x7f6489f68b20</title>
<path fill="#66cdaa" stroke="black" d="M296,-108C296,-108 266,-108 266,-108 260,-108 254,-102 254,-96 254,-96 254,-84 254,-84 254,-78 260,-72 266,-72 266,-72 296,-72 296,-72 302,-72 308,-78 308,-84 308,-84 308,-96 308,-96 308,-102 302,-108 296,-108"/>
<text text-anchor="middle" x="281" y="-86.3" font-family="Times,serif" font-size="14.00">Name</text>
</g>
<!-- ast.Call object at 0x7f6489f68b50&#45;&gt;ast.Name object at 0x7f6489f68b20 -->
<g id="edge18" class="edge">
<title>ast.Call object at 0x7f6489f68b50&#45;&gt;ast.Name object at 0x7f6489f68b20</title>
<path fill="none" stroke="black" d="M293.04,-215.65C289.3,-205.45 285.05,-192.2 283,-180 279.57,-159.55 279.18,-136.09 279.59,-118.4"/>
<polygon fill="black" stroke="black" points="283.1,-118.31 279.93,-108.2 276.1,-118.08 283.1,-118.31"/>
</g>
<!-- ast.Name object at 0x7f6489f688b0 -->
<g id="node18" class="node">
<title>ast.Name object at 0x7f6489f688b0</title>
<path fill="#66cdaa" stroke="black" d="M334,-180C334,-180 304,-180 304,-180 298,-180 292,-174 292,-168 292,-168 292,-156 292,-156 292,-150 298,-144 304,-144 304,-144 334,-144 334,-144 340,-144 346,-150 346,-156 346,-156 346,-168 346,-168 346,-174 340,-180 334,-180"/>
<text text-anchor="middle" x="319" y="-158.3" font-family="Times,serif" font-size="14.00">Name</text>
</g>
<!-- ast.Call object at 0x7f6489f68b50&#45;&gt;ast.Name object at 0x7f6489f688b0 -->
<g id="edge20" class="edge">
<title>ast.Call object at 0x7f6489f68b50&#45;&gt;ast.Name object at 0x7f6489f688b0</title>
<path fill="none" stroke="black" d="M304.7,-215.7C306.81,-207.9 309.36,-198.51 311.72,-189.83"/>
<polygon fill="black" stroke="black" points="315.12,-190.67 314.36,-180.1 308.36,-188.84 315.12,-190.67"/>
</g>
<!-- ast.keyword object at 0x7f6489f69180 -->
<g id="node19" class="node">
<title>ast.keyword object at 0x7f6489f69180</title>
<path fill="#66cdaa" stroke="black" d="M416,-180C416,-180 376,-180 376,-180 370,-180 364,-174 364,-168 364,-168 364,-156 364,-156 364,-150 370,-144 376,-144 376,-144 416,-144 416,-144 422,-144 428,-150 428,-156 428,-156 428,-168 428,-168 428,-174 422,-180 416,-180"/>
<text text-anchor="middle" x="396" y="-158.3" font-family="Times,serif" font-size="14.00">keyword</text>
</g>
<!-- ast.Call object at 0x7f6489f68b50&#45;&gt;ast.keyword object at 0x7f6489f69180 -->
<g id="edge22" class="edge">
<title>ast.Call object at 0x7f6489f68b50&#45;&gt;ast.keyword object at 0x7f6489f69180</title>
<path fill="none" stroke="black" d="M323.73,-215.7C335.94,-206.8 350.99,-195.82 364.18,-186.2"/>
<polygon fill="black" stroke="black" points="366.52,-188.82 372.54,-180.1 362.4,-183.17 366.52,-188.82"/>
</g>
<!-- ast.Name object at 0x7f6489f68b20&#45;&gt;ast.Load object at 0x7f64909edf60 -->
<g id="edge19" class="edge">
<title>ast.Name object at 0x7f6489f68b20&#45;&gt;ast.Load object at 0x7f64909edf60</title>
<path fill="none" stroke="black" d="M267.4,-71.7C260.88,-63.39 252.93,-53.28 245.75,-44.14"/>
<polygon fill="black" stroke="black" points="248.37,-41.81 239.44,-36.1 242.87,-46.13 248.37,-41.81"/>
</g>
<!-- ast.Name object at 0x7f6489f688b0&#45;&gt;ast.Load object at 0x7f64909edf60 -->
<g id="edge21" class="edge">
<title>ast.Name object at 0x7f6489f688b0&#45;&gt;ast.Load object at 0x7f64909edf60</title>
<path fill="none" stroke="black" d="M323.27,-143.93C327.01,-124.96 330.03,-94.1 317,-72 305.11,-51.84 282.34,-38.58 262.56,-30.37"/>
<polygon fill="black" stroke="black" points="263.74,-27.08 253.15,-26.74 261.22,-33.61 263.74,-27.08"/>
</g>
<!-- ast.Name object at 0x7f6489f68ac0 -->
<g id="node20" class="node">
<title>ast.Name object at 0x7f6489f68ac0</title>
<path fill="#66cdaa" stroke="black" d="M409,-108C409,-108 379,-108 379,-108 373,-108 367,-102 367,-96 367,-96 367,-84 367,-84 367,-78 373,-72 379,-72 379,-72 409,-72 409,-72 415,-72 421,-78 421,-84 421,-84 421,-96 421,-96 421,-102 415,-108 409,-108"/>
<text text-anchor="middle" x="394" y="-86.3" font-family="Times,serif" font-size="14.00">Name</text>
</g>
<!-- ast.keyword object at 0x7f6489f69180&#45;&gt;ast.Name object at 0x7f6489f68ac0 -->
<g id="edge23" class="edge">
<title>ast.keyword object at 0x7f6489f69180&#45;&gt;ast.Name object at 0x7f6489f68ac0</title>
<path fill="none" stroke="black" d="M395.51,-143.7C395.29,-135.98 395.02,-126.71 394.77,-118.11"/>
<polygon fill="black" stroke="black" points="398.27,-118 394.49,-108.1 391.28,-118.2 398.27,-118"/>
</g>
<!-- ast.Name object at 0x7f6489f68ac0&#45;&gt;ast.Load object at 0x7f64909edf60 -->
<g id="edge24" class="edge">
<title>ast.Name object at 0x7f6489f68ac0&#45;&gt;ast.Load object at 0x7f64909edf60</title>
<path fill="none" stroke="black" d="M366.63,-77.6C338.24,-65.77 293.68,-47.2 262.34,-34.14"/>
<polygon fill="black" stroke="black" points="263.65,-30.9 253.08,-30.28 260.96,-37.36 263.65,-30.9"/>
</g>
<!-- ast.Constant object at 0x7f6489f68d60 -->
<g id="node22" class="node">
<title>ast.Constant object at 0x7f6489f68d60</title>
<path fill="#66cdaa" stroke="black" d="M499.5,-180C499.5,-180 458.5,-180 458.5,-180 452.5,-180 446.5,-174 446.5,-168 446.5,-168 446.5,-156 446.5,-156 446.5,-150 452.5,-144 458.5,-144 458.5,-144 499.5,-144 499.5,-144 505.5,-144 511.5,-150 511.5,-156 511.5,-156 511.5,-168 511.5,-168 511.5,-174 505.5,-180 499.5,-180"/>
<text text-anchor="middle" x="479" y="-158.3" font-family="Times,serif" font-size="14.00">Constant</text>
</g>
<!-- ast.Slice object at 0x7f6489f68b80&#45;&gt;ast.Constant object at 0x7f6489f68d60 -->
<g id="edge26" class="edge">
<title>ast.Slice object at 0x7f6489f68b80&#45;&gt;ast.Constant object at 0x7f6489f68d60</title>
<path fill="none" stroke="black" d="M438.35,-215.7C444.76,-207.39 452.56,-197.28 459.61,-188.14"/>
<polygon fill="black" stroke="black" points="462.47,-190.16 465.81,-180.1 456.93,-185.88 462.47,-190.16"/>
</g>
</g>
</svg>
