<?xml version="1.0" encoding="UTF-8" standalone="no"?>
<!DOCTYPE svg PUBLIC "-//W3C//DTD SVG 1.1//EN"
 "http://www.w3.org/Graphics/SVG/1.1/DTD/svg11.dtd">
<!-- Generated by graphviz version 2.43.0 (0)
 -->
<!-- Title: %3 Pages: 1 -->
<svg width="784pt" height="692pt"
 viewBox="0.00 0.00 784.00 692.00" xmlns="http://www.w3.org/2000/svg" xmlns:xlink="http://www.w3.org/1999/xlink">
<g id="graph0" class="graph" transform="scale(1 1) rotate(0) translate(4 688)">
<title>%3</title>
<polygon fill="white" stroke="transparent" points="-4,4 -4,-688 780,-688 780,4 -4,4"/>
<!-- ast.Module object at 0x7f805653beb0 -->
<g id="node1" class="node">
<title>ast.Module object at 0x7f805653beb0</title>
<path fill="#66cdaa" stroke="black" d="M95.5,-684C95.5,-684 60.5,-684 60.5,-684 54.5,-684 48.5,-678 48.5,-672 48.5,-672 48.5,-660 48.5,-660 48.5,-654 54.5,-648 60.5,-648 60.5,-648 95.5,-648 95.5,-648 101.5,-648 107.5,-654 107.5,-660 107.5,-660 107.5,-672 107.5,-672 107.5,-678 101.5,-684 95.5,-684"/>
<text text-anchor="middle" x="78" y="-662.3" font-family="Times,serif" font-size="14.00">Module</text>
</g>
<!-- ast.FunctionDef object at 0x7f805653b940 -->
<g id="node2" class="node">
<title>ast.FunctionDef object at 0x7f805653b940</title>
<path fill="#66cdaa" stroke="black" d="M108.5,-612C108.5,-612 47.5,-612 47.5,-612 41.5,-612 35.5,-606 35.5,-600 35.5,-600 35.5,-588 35.5,-588 35.5,-582 41.5,-576 47.5,-576 47.5,-576 108.5,-576 108.5,-576 114.5,-576 120.5,-582 120.5,-588 120.5,-588 120.5,-600 120.5,-600 120.5,-606 114.5,-612 108.5,-612"/>
<text text-anchor="middle" x="78" y="-590.3" font-family="Times,serif" font-size="14.00">FunctionDef</text>
</g>
<!-- ast.Module object at 0x7f805653beb0&#45;&gt;ast.FunctionDef object at 0x7f805653b940 -->
<g id="edge1" class="edge">
<title>ast.Module object at 0x7f805653beb0&#45;&gt;ast.FunctionDef object at 0x7f805653b940</title>
<path fill="none" stroke="black" d="M78,-647.7C78,-639.98 78,-630.71 78,-622.11"/>
<polygon fill="black" stroke="black" points="81.5,-622.1 78,-612.1 74.5,-622.1 81.5,-622.1"/>
</g>
<!-- ast.arguments object at 0x7f805653ab30 -->
<g id="node3" class="node">
<title>ast.arguments object at 0x7f805653ab30</title>
<path fill="#66cdaa" stroke="black" d="M62,-540C62,-540 12,-540 12,-540 6,-540 0,-534 0,-528 0,-528 0,-516 0,-516 0,-510 6,-504 12,-504 12,-504 62,-504 62,-504 68,-504 74,-510 74,-516 74,-516 74,-528 74,-528 74,-534 68,-540 62,-540"/>
<text text-anchor="middle" x="37" y="-518.3" font-family="Times,serif" font-size="14.00">arguments</text>
</g>
<!-- ast.FunctionDef object at 0x7f805653b940&#45;&gt;ast.arguments object at 0x7f805653ab30 -->
<g id="edge2" class="edge">
<title>ast.FunctionDef object at 0x7f805653b940&#45;&gt;ast.arguments object at 0x7f805653ab30</title>
<path fill="none" stroke="black" d="M67.87,-575.7C63.15,-567.64 57.44,-557.89 52.22,-548.98"/>
<polygon fill="black" stroke="black" points="55.09,-546.96 47.02,-540.1 49.05,-550.5 55.09,-546.96"/>
</g>
<!-- ast.Return object at 0x7f805653afb0 -->
<g id="node5" class="node">
<title>ast.Return object at 0x7f805653afb0</title>
<path fill="#66cdaa" stroke="black" d="M134,-540C134,-540 104,-540 104,-540 98,-540 92,-534 92,-528 92,-528 92,-516 92,-516 92,-510 98,-504 104,-504 104,-504 134,-504 134,-504 140,-504 146,-510 146,-516 146,-516 146,-528 146,-528 146,-534 140,-540 134,-540"/>
<text text-anchor="middle" x="119" y="-518.3" font-family="Times,serif" font-size="14.00">Return</text>
</g>
<!-- ast.FunctionDef object at 0x7f805653b940&#45;&gt;ast.Return object at 0x7f805653afb0 -->
<g id="edge4" class="edge">
<title>ast.FunctionDef object at 0x7f805653b940&#45;&gt;ast.Return object at 0x7f805653afb0</title>
<path fill="none" stroke="black" d="M88.13,-575.7C92.85,-567.64 98.56,-557.89 103.78,-548.98"/>
<polygon fill="black" stroke="black" points="106.95,-550.5 108.98,-540.1 100.91,-546.96 106.95,-550.5"/>
</g>
<!-- ast.arg object at 0x7f805653a620 -->
<g id="node4" class="node">
<title>ast.arg object at 0x7f805653a620</title>
<path fill="#66cdaa" stroke="black" d="M52,-468C52,-468 22,-468 22,-468 16,-468 10,-462 10,-456 10,-456 10,-444 10,-444 10,-438 16,-432 22,-432 22,-432 52,-432 52,-432 58,-432 64,-438 64,-444 64,-444 64,-456 64,-456 64,-462 58,-468 52,-468"/>
<text text-anchor="middle" x="37" y="-446.3" font-family="Times,serif" font-size="14.00">arg</text>
</g>
<!-- ast.arguments object at 0x7f805653ab30&#45;&gt;ast.arg object at 0x7f805653a620 -->
<g id="edge3" class="edge">
<title>ast.arguments object at 0x7f805653ab30&#45;&gt;ast.arg object at 0x7f805653a620</title>
<path fill="none" stroke="black" d="M37,-503.7C37,-495.98 37,-486.71 37,-478.11"/>
<polygon fill="black" stroke="black" points="40.5,-478.1 37,-468.1 33.5,-478.1 40.5,-478.1"/>
</g>
<!-- ast.ListComp object at 0x7f805653bca0 -->
<g id="node6" class="node">
<title>ast.ListComp object at 0x7f805653bca0</title>
<path fill="#66cdaa" stroke="black" d="M142.5,-468C142.5,-468 95.5,-468 95.5,-468 89.5,-468 83.5,-462 83.5,-456 83.5,-456 83.5,-444 83.5,-444 83.5,-438 89.5,-432 95.5,-432 95.5,-432 142.5,-432 142.5,-432 148.5,-432 154.5,-438 154.5,-444 154.5,-444 154.5,-456 154.5,-456 154.5,-462 148.5,-468 142.5,-468"/>
<text text-anchor="middle" x="119" y="-446.3" font-family="Times,serif" font-size="14.00">ListComp</text>
</g>
<!-- ast.Return object at 0x7f805653afb0&#45;&gt;ast.ListComp object at 0x7f805653bca0 -->
<g id="edge5" class="edge">
<title>ast.Return object at 0x7f805653afb0&#45;&gt;ast.ListComp object at 0x7f805653bca0</title>
<path fill="none" stroke="black" d="M119,-503.7C119,-495.98 119,-486.71 119,-478.11"/>
<polygon fill="black" stroke="black" points="122.5,-478.1 119,-468.1 115.5,-478.1 122.5,-478.1"/>
</g>
<!-- ast.Name object at 0x7f805653bd00 -->
<g id="node7" class="node">
<title>ast.Name object at 0x7f805653bd00</title>
<path fill="#66cdaa" stroke="black" d="M83,-396C83,-396 53,-396 53,-396 47,-396 41,-390 41,-384 41,-384 41,-372 41,-372 41,-366 47,-360 53,-360 53,-360 83,-360 83,-360 89,-360 95,-366 95,-372 95,-372 95,-384 95,-384 95,-390 89,-396 83,-396"/>
<text text-anchor="middle" x="68" y="-374.3" font-family="Times,serif" font-size="14.00">Name</text>
</g>
<!-- ast.ListComp object at 0x7f805653bca0&#45;&gt;ast.Name object at 0x7f805653bd00 -->
<g id="edge6" class="edge">
<title>ast.ListComp object at 0x7f805653bca0&#45;&gt;ast.Name object at 0x7f805653bd00</title>
<path fill="none" stroke="black" d="M106.39,-431.7C100.4,-423.47 93.12,-413.48 86.52,-404.42"/>
<polygon fill="black" stroke="black" points="89.18,-402.13 80.46,-396.1 83.52,-406.25 89.18,-402.13"/>
</g>
<!-- ast.comprehension object at 0x7f805653bfd0 -->
<g id="node9" class="node">
<title>ast.comprehension object at 0x7f805653bfd0</title>
<path fill="#66cdaa" stroke="black" d="M209,-396C209,-396 133,-396 133,-396 127,-396 121,-390 121,-384 121,-384 121,-372 121,-372 121,-366 127,-360 133,-360 133,-360 209,-360 209,-360 215,-360 221,-366 221,-372 221,-372 221,-384 221,-384 221,-390 215,-396 209,-396"/>
<text text-anchor="middle" x="171" y="-374.3" font-family="Times,serif" font-size="14.00">comprehension</text>
</g>
<!-- ast.ListComp object at 0x7f805653bca0&#45;&gt;ast.comprehension object at 0x7f805653bfd0 -->
<g id="edge8" class="edge">
<title>ast.ListComp object at 0x7f805653bca0&#45;&gt;ast.comprehension object at 0x7f805653bfd0</title>
<path fill="none" stroke="black" d="M131.85,-431.7C138.03,-423.39 145.54,-413.28 152.32,-404.14"/>
<polygon fill="black" stroke="black" points="155.14,-406.22 158.29,-396.1 149.52,-402.04 155.14,-406.22"/>
</g>
<!-- ast.Load object at 0x7f80ffaf1f90 -->
<g id="node8" class="node">
<title>ast.Load object at 0x7f80ffaf1f90</title>
<path fill="#66cdaa" stroke="black" d="M460,-36C460,-36 430,-36 430,-36 424,-36 418,-30 418,-24 418,-24 418,-12 418,-12 418,-6 424,0 430,0 430,0 460,0 460,0 466,0 472,-6 472,-12 472,-12 472,-24 472,-24 472,-30 466,-36 460,-36"/>
<text text-anchor="middle" x="445" y="-14.3" font-family="Times,serif" font-size="14.00">Load</text>
</g>
<!-- ast.Name object at 0x7f805653bd00&#45;&gt;ast.Load object at 0x7f80ffaf1f90 -->
<g id="edge7" class="edge">
<title>ast.Name object at 0x7f805653bd00&#45;&gt;ast.Load object at 0x7f80ffaf1f90</title>
<path fill="none" stroke="black" d="M64.76,-359.58C60.09,-332.87 52,-280.15 52,-235 52,-235 52,-235 52,-161 52,-99.48 102.36,-98.23 158,-72 241.31,-32.72 351.02,-22.5 407.63,-19.88"/>
<polygon fill="black" stroke="black" points="408.04,-23.36 417.89,-19.46 407.76,-16.37 408.04,-23.36"/>
</g>
<!-- ast.Name object at 0x7f805653bf10 -->
<g id="node10" class="node">
<title>ast.Name object at 0x7f805653bf10</title>
<path fill="#66cdaa" stroke="black" d="M122,-324C122,-324 92,-324 92,-324 86,-324 80,-318 80,-312 80,-312 80,-300 80,-300 80,-294 86,-288 92,-288 92,-288 122,-288 122,-288 128,-288 134,-294 134,-300 134,-300 134,-312 134,-312 134,-318 128,-324 122,-324"/>
<text text-anchor="middle" x="107" y="-302.3" font-family="Times,serif" font-size="14.00">Name</text>
</g>
<!-- ast.comprehension object at 0x7f805653bfd0&#45;&gt;ast.Name object at 0x7f805653bf10 -->
<g id="edge9" class="edge">
<title>ast.comprehension object at 0x7f805653bfd0&#45;&gt;ast.Name object at 0x7f805653bf10</title>
<path fill="none" stroke="black" d="M155.18,-359.7C147.43,-351.22 137.96,-340.86 129.48,-331.58"/>
<polygon fill="black" stroke="black" points="131.97,-329.12 122.64,-324.1 126.8,-333.85 131.97,-329.12"/>
</g>
<!-- ast.Name object at 0x7f8056539300 -->
<g id="node12" class="node">
<title>ast.Name object at 0x7f8056539300</title>
<path fill="#66cdaa" stroke="black" d="M194,-324C194,-324 164,-324 164,-324 158,-324 152,-318 152,-312 152,-312 152,-300 152,-300 152,-294 158,-288 164,-288 164,-288 194,-288 194,-288 200,-288 206,-294 206,-300 206,-300 206,-312 206,-312 206,-318 200,-324 194,-324"/>
<text text-anchor="middle" x="179" y="-302.3" font-family="Times,serif" font-size="14.00">Name</text>
</g>
<!-- ast.comprehension object at 0x7f805653bfd0&#45;&gt;ast.Name object at 0x7f8056539300 -->
<g id="edge11" class="edge">
<title>ast.comprehension object at 0x7f805653bfd0&#45;&gt;ast.Name object at 0x7f8056539300</title>
<path fill="none" stroke="black" d="M172.98,-359.7C173.86,-351.98 174.92,-342.71 175.9,-334.11"/>
<polygon fill="black" stroke="black" points="179.39,-334.44 177.05,-324.1 172.43,-333.64 179.39,-334.44"/>
</g>
<!-- ast.BoolOp object at 0x7f805653bc40 -->
<g id="node13" class="node">
<title>ast.BoolOp object at 0x7f805653bc40</title>
<path fill="#66cdaa" stroke="black" d="M348.5,-324C348.5,-324 313.5,-324 313.5,-324 307.5,-324 301.5,-318 301.5,-312 301.5,-312 301.5,-300 301.5,-300 301.5,-294 307.5,-288 313.5,-288 313.5,-288 348.5,-288 348.5,-288 354.5,-288 360.5,-294 360.5,-300 360.5,-300 360.5,-312 360.5,-312 360.5,-318 354.5,-324 348.5,-324"/>
<text text-anchor="middle" x="331" y="-302.3" font-family="Times,serif" font-size="14.00">BoolOp</text>
</g>
<!-- ast.comprehension object at 0x7f805653bfd0&#45;&gt;ast.BoolOp object at 0x7f805653bc40 -->
<g id="edge13" class="edge">
<title>ast.comprehension object at 0x7f805653bfd0&#45;&gt;ast.BoolOp object at 0x7f805653bc40</title>
<path fill="none" stroke="black" d="M210.14,-359.88C234.97,-349.01 266.98,-335.01 291.81,-324.14"/>
<polygon fill="black" stroke="black" points="293.53,-327.21 301.29,-320 290.73,-320.8 293.53,-327.21"/>
</g>
<!-- ast.Store object at 0x7f80ffaf1ff0 -->
<g id="node11" class="node">
<title>ast.Store object at 0x7f80ffaf1ff0</title>
<path fill="#66cdaa" stroke="black" d="M122,-252C122,-252 92,-252 92,-252 86,-252 80,-246 80,-240 80,-240 80,-228 80,-228 80,-222 86,-216 92,-216 92,-216 122,-216 122,-216 128,-216 134,-222 134,-228 134,-228 134,-240 134,-240 134,-246 128,-252 122,-252"/>
<text text-anchor="middle" x="107" y="-230.3" font-family="Times,serif" font-size="14.00">Store</text>
</g>
<!-- ast.Name object at 0x7f805653bf10&#45;&gt;ast.Store object at 0x7f80ffaf1ff0 -->
<g id="edge10" class="edge">
<title>ast.Name object at 0x7f805653bf10&#45;&gt;ast.Store object at 0x7f80ffaf1ff0</title>
<path fill="none" stroke="black" d="M107,-287.7C107,-279.98 107,-270.71 107,-262.11"/>
<polygon fill="black" stroke="black" points="110.5,-262.1 107,-252.1 103.5,-262.1 110.5,-262.1"/>
</g>
<!-- ast.Name object at 0x7f8056539300&#45;&gt;ast.Load object at 0x7f80ffaf1f90 -->
<g id="edge12" class="edge">
<title>ast.Name object at 0x7f8056539300&#45;&gt;ast.Load object at 0x7f80ffaf1f90</title>
<path fill="none" stroke="black" d="M172.71,-287.94C158.37,-245.8 128.43,-135.61 181,-72 209.35,-37.69 341.57,-25.1 407.46,-20.9"/>
<polygon fill="black" stroke="black" points="408.05,-24.37 417.82,-20.27 407.63,-17.38 408.05,-24.37"/>
</g>
<!-- ast.And object at 0x7f80ffaf20e0 -->
<g id="node14" class="node">
<title>ast.And object at 0x7f80ffaf20e0</title>
<path fill="#66cdaa" stroke="black" d="M267,-252C267,-252 237,-252 237,-252 231,-252 225,-246 225,-240 225,-240 225,-228 225,-228 225,-222 231,-216 237,-216 237,-216 267,-216 267,-216 273,-216 279,-222 279,-228 279,-228 279,-240 279,-240 279,-246 273,-252 267,-252"/>
<text text-anchor="middle" x="252" y="-230.3" font-family="Times,serif" font-size="14.00">And</text>
</g>
<!-- ast.BoolOp object at 0x7f805653bc40&#45;&gt;ast.And object at 0x7f80ffaf20e0 -->
<g id="edge14" class="edge">
<title>ast.BoolOp object at 0x7f805653bc40&#45;&gt;ast.And object at 0x7f80ffaf20e0</title>
<path fill="none" stroke="black" d="M311.47,-287.7C301.62,-278.97 289.51,-268.24 278.8,-258.75"/>
<polygon fill="black" stroke="black" points="281.11,-256.12 271.3,-252.1 276.47,-261.36 281.11,-256.12"/>
</g>
<!-- ast.Compare object at 0x7f805653bd30 -->
<g id="node15" class="node">
<title>ast.Compare object at 0x7f805653bd30</title>
<path fill="#66cdaa" stroke="black" d="M352.5,-252C352.5,-252 309.5,-252 309.5,-252 303.5,-252 297.5,-246 297.5,-240 297.5,-240 297.5,-228 297.5,-228 297.5,-222 303.5,-216 309.5,-216 309.5,-216 352.5,-216 352.5,-216 358.5,-216 364.5,-222 364.5,-228 364.5,-228 364.5,-240 364.5,-240 364.5,-246 358.5,-252 352.5,-252"/>
<text text-anchor="middle" x="331" y="-230.3" font-family="Times,serif" font-size="14.00">Compare</text>
</g>
<!-- ast.BoolOp object at 0x7f805653bc40&#45;&gt;ast.Compare object at 0x7f805653bd30 -->
<g id="edge15" class="edge">
<title>ast.BoolOp object at 0x7f805653bc40&#45;&gt;ast.Compare object at 0x7f805653bd30</title>
<path fill="none" stroke="black" d="M331,-287.7C331,-279.98 331,-270.71 331,-262.11"/>
<polygon fill="black" stroke="black" points="334.5,-262.1 331,-252.1 327.5,-262.1 334.5,-262.1"/>
</g>
<!-- ast.Compare object at 0x7f80565391b0 -->
<g id="node22" class="node">
<title>ast.Compare object at 0x7f80565391b0</title>
<path fill="#66cdaa" stroke="black" d="M477.5,-252C477.5,-252 434.5,-252 434.5,-252 428.5,-252 422.5,-246 422.5,-240 422.5,-240 422.5,-228 422.5,-228 422.5,-222 428.5,-216 434.5,-216 434.5,-216 477.5,-216 477.5,-216 483.5,-216 489.5,-222 489.5,-228 489.5,-228 489.5,-240 489.5,-240 489.5,-246 483.5,-252 477.5,-252"/>
<text text-anchor="middle" x="456" y="-230.3" font-family="Times,serif" font-size="14.00">Compare</text>
</g>
<!-- ast.BoolOp object at 0x7f805653bc40&#45;&gt;ast.Compare object at 0x7f80565391b0 -->
<g id="edge23" class="edge">
<title>ast.BoolOp object at 0x7f805653bc40&#45;&gt;ast.Compare object at 0x7f80565391b0</title>
<path fill="none" stroke="black" d="M360.62,-288.41C377.22,-279.12 398.15,-267.4 416.17,-257.31"/>
<polygon fill="black" stroke="black" points="418.27,-260.14 425.28,-252.2 414.85,-254.03 418.27,-260.14"/>
</g>
<!-- ast.Compare object at 0x7f805653ba60 -->
<g id="node26" class="node">
<title>ast.Compare object at 0x7f805653ba60</title>
<path fill="#66cdaa" stroke="black" d="M670.5,-252C670.5,-252 627.5,-252 627.5,-252 621.5,-252 615.5,-246 615.5,-240 615.5,-240 615.5,-228 615.5,-228 615.5,-222 621.5,-216 627.5,-216 627.5,-216 670.5,-216 670.5,-216 676.5,-216 682.5,-222 682.5,-228 682.5,-228 682.5,-240 682.5,-240 682.5,-246 676.5,-252 670.5,-252"/>
<text text-anchor="middle" x="649" y="-230.3" font-family="Times,serif" font-size="14.00">Compare</text>
</g>
<!-- ast.BoolOp object at 0x7f805653bc40&#45;&gt;ast.Compare object at 0x7f805653ba60 -->
<g id="edge28" class="edge">
<title>ast.BoolOp object at 0x7f805653bc40&#45;&gt;ast.Compare object at 0x7f805653ba60</title>
<path fill="none" stroke="black" d="M360.63,-298.48C416.83,-286.11 539.16,-259.18 604.98,-244.69"/>
<polygon fill="black" stroke="black" points="606.03,-248.04 615.04,-242.47 604.53,-241.21 606.03,-248.04"/>
</g>
<!-- ast.BinOp object at 0x7f805653bb80 -->
<g id="node16" class="node">
<title>ast.BinOp object at 0x7f805653bb80</title>
<path fill="#66cdaa" stroke="black" d="M232,-180C232,-180 202,-180 202,-180 196,-180 190,-174 190,-168 190,-168 190,-156 190,-156 190,-150 196,-144 202,-144 202,-144 232,-144 232,-144 238,-144 244,-150 244,-156 244,-156 244,-168 244,-168 244,-174 238,-180 232,-180"/>
<text text-anchor="middle" x="217" y="-158.3" font-family="Times,serif" font-size="14.00">BinOp</text>
</g>
<!-- ast.Compare object at 0x7f805653bd30&#45;&gt;ast.BinOp object at 0x7f805653bb80 -->
<g id="edge16" class="edge">
<title>ast.Compare object at 0x7f805653bd30&#45;&gt;ast.BinOp object at 0x7f805653bb80</title>
<path fill="none" stroke="black" d="M303.11,-215.88C287.98,-206.59 269.12,-195 252.9,-185.04"/>
<polygon fill="black" stroke="black" points="254.56,-181.96 244.21,-179.71 250.9,-187.92 254.56,-181.96"/>
</g>
<!-- ast.NotEq object at 0x7f80ffaf2920 -->
<g id="node20" class="node">
<title>ast.NotEq object at 0x7f80ffaf2920</title>
<path fill="#66cdaa" stroke="black" d="M304,-180C304,-180 274,-180 274,-180 268,-180 262,-174 262,-168 262,-168 262,-156 262,-156 262,-150 268,-144 274,-144 274,-144 304,-144 304,-144 310,-144 316,-150 316,-156 316,-156 316,-168 316,-168 316,-174 310,-180 304,-180"/>
<text text-anchor="middle" x="289" y="-158.3" font-family="Times,serif" font-size="14.00">NotEq</text>
</g>
<!-- ast.Compare object at 0x7f805653bd30&#45;&gt;ast.NotEq object at 0x7f80ffaf2920 -->
<g id="edge21" class="edge">
<title>ast.Compare object at 0x7f805653bd30&#45;&gt;ast.NotEq object at 0x7f80ffaf2920</title>
<path fill="none" stroke="black" d="M320.62,-215.7C315.74,-207.56 309.81,-197.69 304.42,-188.7"/>
<polygon fill="black" stroke="black" points="307.41,-186.88 299.26,-180.1 301.41,-190.48 307.41,-186.88"/>
</g>
<!-- ast.Constant object at 0x7f805653ba90 -->
<g id="node21" class="node">
<title>ast.Constant object at 0x7f805653ba90</title>
<path fill="#66cdaa" stroke="black" d="M387.5,-180C387.5,-180 346.5,-180 346.5,-180 340.5,-180 334.5,-174 334.5,-168 334.5,-168 334.5,-156 334.5,-156 334.5,-150 340.5,-144 346.5,-144 346.5,-144 387.5,-144 387.5,-144 393.5,-144 399.5,-150 399.5,-156 399.5,-156 399.5,-168 399.5,-168 399.5,-174 393.5,-180 387.5,-180"/>
<text text-anchor="middle" x="367" y="-158.3" font-family="Times,serif" font-size="14.00">Constant</text>
</g>
<!-- ast.Compare object at 0x7f805653bd30&#45;&gt;ast.Constant object at 0x7f805653ba90 -->
<g id="edge22" class="edge">
<title>ast.Compare object at 0x7f805653bd30&#45;&gt;ast.Constant object at 0x7f805653ba90</title>
<path fill="none" stroke="black" d="M339.9,-215.7C344,-207.73 348.95,-198.1 353.49,-189.26"/>
<polygon fill="black" stroke="black" points="356.74,-190.6 358.2,-180.1 350.52,-187.4 356.74,-190.6"/>
</g>
<!-- ast.Name object at 0x7f805653a350 -->
<g id="node17" class="node">
<title>ast.Name object at 0x7f805653a350</title>
<path fill="#66cdaa" stroke="black" d="M232,-108C232,-108 202,-108 202,-108 196,-108 190,-102 190,-96 190,-96 190,-84 190,-84 190,-78 196,-72 202,-72 202,-72 232,-72 232,-72 238,-72 244,-78 244,-84 244,-84 244,-96 244,-96 244,-102 238,-108 232,-108"/>
<text text-anchor="middle" x="217" y="-86.3" font-family="Times,serif" font-size="14.00">Name</text>
</g>
<!-- ast.BinOp object at 0x7f805653bb80&#45;&gt;ast.Name object at 0x7f805653a350 -->
<g id="edge17" class="edge">
<title>ast.BinOp object at 0x7f805653bb80&#45;&gt;ast.Name object at 0x7f805653a350</title>
<path fill="none" stroke="black" d="M217,-143.7C217,-135.98 217,-126.71 217,-118.11"/>
<polygon fill="black" stroke="black" points="220.5,-118.1 217,-108.1 213.5,-118.1 220.5,-118.1"/>
</g>
<!-- ast.Mod object at 0x7f80ffaf23b0 -->
<g id="node18" class="node">
<title>ast.Mod object at 0x7f80ffaf23b0</title>
<path fill="#66cdaa" stroke="black" d="M304,-108C304,-108 274,-108 274,-108 268,-108 262,-102 262,-96 262,-96 262,-84 262,-84 262,-78 268,-72 274,-72 274,-72 304,-72 304,-72 310,-72 316,-78 316,-84 316,-84 316,-96 316,-96 316,-102 310,-108 304,-108"/>
<text text-anchor="middle" x="289" y="-86.3" font-family="Times,serif" font-size="14.00">Mod</text>
</g>
<!-- ast.BinOp object at 0x7f805653bb80&#45;&gt;ast.Mod object at 0x7f80ffaf23b0 -->
<g id="edge19" class="edge">
<title>ast.BinOp object at 0x7f805653bb80&#45;&gt;ast.Mod object at 0x7f80ffaf23b0</title>
<path fill="none" stroke="black" d="M234.8,-143.7C243.6,-135.14 254.38,-124.66 264,-115.3"/>
<polygon fill="black" stroke="black" points="266.68,-117.58 271.41,-108.1 261.8,-112.57 266.68,-117.58"/>
</g>
<!-- ast.Constant object at 0x7f805653a140 -->
<g id="node19" class="node">
<title>ast.Constant object at 0x7f805653a140</title>
<path fill="#66cdaa" stroke="black" d="M387.5,-108C387.5,-108 346.5,-108 346.5,-108 340.5,-108 334.5,-102 334.5,-96 334.5,-96 334.5,-84 334.5,-84 334.5,-78 340.5,-72 346.5,-72 346.5,-72 387.5,-72 387.5,-72 393.5,-72 399.5,-78 399.5,-84 399.5,-84 399.5,-96 399.5,-96 399.5,-102 393.5,-108 387.5,-108"/>
<text text-anchor="middle" x="367" y="-86.3" font-family="Times,serif" font-size="14.00">Constant</text>
</g>
<!-- ast.BinOp object at 0x7f805653bb80&#45;&gt;ast.Constant object at 0x7f805653a140 -->
<g id="edge20" class="edge">
<title>ast.BinOp object at 0x7f805653bb80&#45;&gt;ast.Constant object at 0x7f805653a140</title>
<path fill="none" stroke="black" d="M244.12,-148.17C247.11,-146.76 250.12,-145.35 253,-144 276.76,-132.87 303.34,-120.5 324.86,-110.52"/>
<polygon fill="black" stroke="black" points="326.45,-113.64 334.05,-106.26 323.51,-107.29 326.45,-113.64"/>
</g>
<!-- ast.Name object at 0x7f805653a350&#45;&gt;ast.Load object at 0x7f80ffaf1f90 -->
<g id="edge18" class="edge">
<title>ast.Name object at 0x7f805653a350&#45;&gt;ast.Load object at 0x7f80ffaf1f90</title>
<path fill="none" stroke="black" d="M244.31,-75.51C247.21,-74.25 250.15,-73.06 253,-72 305.68,-52.46 368.83,-36.37 407.94,-27.23"/>
<polygon fill="black" stroke="black" points="408.87,-30.6 417.83,-24.94 407.3,-23.78 408.87,-30.6"/>
</g>
<!-- ast.Name object at 0x7f805653baf0 -->
<g id="node23" class="node">
<title>ast.Name object at 0x7f805653baf0</title>
<path fill="#66cdaa" stroke="black" d="M460,-108C460,-108 430,-108 430,-108 424,-108 418,-102 418,-96 418,-96 418,-84 418,-84 418,-78 424,-72 430,-72 430,-72 460,-72 460,-72 466,-72 472,-78 472,-84 472,-84 472,-96 472,-96 472,-102 466,-108 460,-108"/>
<text text-anchor="middle" x="445" y="-86.3" font-family="Times,serif" font-size="14.00">Name</text>
</g>
<!-- ast.Compare object at 0x7f80565391b0&#45;&gt;ast.Name object at 0x7f805653baf0 -->
<g id="edge24" class="edge">
<title>ast.Compare object at 0x7f80565391b0&#45;&gt;ast.Name object at 0x7f805653baf0</title>
<path fill="none" stroke="black" d="M452.44,-215.9C450.46,-205.56 448.15,-192.08 447,-180 445.03,-159.36 444.57,-135.91 444.59,-118.27"/>
<polygon fill="black" stroke="black" points="448.09,-118.13 444.65,-108.11 441.09,-118.08 448.09,-118.13"/>
</g>
<!-- ast.GtE object at 0x7f80ffaf2aa0 -->
<g id="node24" class="node">
<title>ast.GtE object at 0x7f80ffaf2aa0</title>
<path fill="#66cdaa" stroke="black" d="M498,-180C498,-180 468,-180 468,-180 462,-180 456,-174 456,-168 456,-168 456,-156 456,-156 456,-150 462,-144 468,-144 468,-144 498,-144 498,-144 504,-144 510,-150 510,-156 510,-156 510,-168 510,-168 510,-174 504,-180 498,-180"/>
<text text-anchor="middle" x="483" y="-158.3" font-family="Times,serif" font-size="14.00">GtE</text>
</g>
<!-- ast.Compare object at 0x7f80565391b0&#45;&gt;ast.GtE object at 0x7f80ffaf2aa0 -->
<g id="edge26" class="edge">
<title>ast.Compare object at 0x7f80565391b0&#45;&gt;ast.GtE object at 0x7f80ffaf2aa0</title>
<path fill="none" stroke="black" d="M462.67,-215.7C465.71,-207.81 469.38,-198.3 472.76,-189.55"/>
<polygon fill="black" stroke="black" points="476.07,-190.69 476.4,-180.1 469.54,-188.17 476.07,-190.69"/>
</g>
<!-- ast.Constant object at 0x7f805653bee0 -->
<g id="node25" class="node">
<title>ast.Constant object at 0x7f805653bee0</title>
<path fill="#66cdaa" stroke="black" d="M581.5,-180C581.5,-180 540.5,-180 540.5,-180 534.5,-180 528.5,-174 528.5,-168 528.5,-168 528.5,-156 528.5,-156 528.5,-150 534.5,-144 540.5,-144 540.5,-144 581.5,-144 581.5,-144 587.5,-144 593.5,-150 593.5,-156 593.5,-156 593.5,-168 593.5,-168 593.5,-174 587.5,-180 581.5,-180"/>
<text text-anchor="middle" x="561" y="-158.3" font-family="Times,serif" font-size="14.00">Constant</text>
</g>
<!-- ast.Compare object at 0x7f80565391b0&#45;&gt;ast.Constant object at 0x7f805653bee0 -->
<g id="edge27" class="edge">
<title>ast.Compare object at 0x7f80565391b0&#45;&gt;ast.Constant object at 0x7f805653bee0</title>
<path fill="none" stroke="black" d="M481.69,-215.88C495.29,-206.81 512.17,-195.55 526.86,-185.76"/>
<polygon fill="black" stroke="black" points="528.84,-188.65 535.22,-180.19 524.95,-182.82 528.84,-188.65"/>
</g>
<!-- ast.Name object at 0x7f805653baf0&#45;&gt;ast.Load object at 0x7f80ffaf1f90 -->
<g id="edge25" class="edge">
<title>ast.Name object at 0x7f805653baf0&#45;&gt;ast.Load object at 0x7f80ffaf1f90</title>
<path fill="none" stroke="black" d="M445,-71.7C445,-63.98 445,-54.71 445,-46.11"/>
<polygon fill="black" stroke="black" points="448.5,-46.1 445,-36.1 441.5,-46.1 448.5,-46.1"/>
</g>
<!-- ast.Name object at 0x7f805653bdf0 -->
<g id="node27" class="node">
<title>ast.Name object at 0x7f805653bdf0</title>
<path fill="#66cdaa" stroke="black" d="M576,-108C576,-108 546,-108 546,-108 540,-108 534,-102 534,-96 534,-96 534,-84 534,-84 534,-78 540,-72 546,-72 546,-72 576,-72 576,-72 582,-72 588,-78 588,-84 588,-84 588,-96 588,-96 588,-102 582,-108 576,-108"/>
<text text-anchor="middle" x="561" y="-86.3" font-family="Times,serif" font-size="14.00">Name</text>
</g>
<!-- ast.Compare object at 0x7f805653ba60&#45;&gt;ast.Name object at 0x7f805653bdf0 -->
<g id="edge29" class="edge">
<title>ast.Compare object at 0x7f805653ba60&#45;&gt;ast.Name object at 0x7f805653bdf0</title>
<path fill="none" stroke="black" d="M641,-215.78C632.26,-197.48 617.42,-167.95 602,-144 595.89,-134.51 588.52,-124.61 581.73,-115.96"/>
<polygon fill="black" stroke="black" points="584.43,-113.73 575.45,-108.11 578.97,-118.11 584.43,-113.73"/>
</g>
<!-- ast.Lt object at 0x7f80ffaf2980 -->
<g id="node28" class="node">
<title>ast.Lt object at 0x7f80ffaf2980</title>
<path fill="#66cdaa" stroke="black" d="M692,-180C692,-180 662,-180 662,-180 656,-180 650,-174 650,-168 650,-168 650,-156 650,-156 650,-150 656,-144 662,-144 662,-144 692,-144 692,-144 698,-144 704,-150 704,-156 704,-156 704,-168 704,-168 704,-174 698,-180 692,-180"/>
<text text-anchor="middle" x="677" y="-158.3" font-family="Times,serif" font-size="14.00">Lt</text>
</g>
<!-- ast.Compare object at 0x7f805653ba60&#45;&gt;ast.Lt object at 0x7f80ffaf2980 -->
<g id="edge31" class="edge">
<title>ast.Compare object at 0x7f805653ba60&#45;&gt;ast.Lt object at 0x7f80ffaf2980</title>
<path fill="none" stroke="black" d="M655.92,-215.7C659.07,-207.81 662.88,-198.3 666.38,-189.55"/>
<polygon fill="black" stroke="black" points="669.69,-190.69 670.16,-180.1 663.19,-188.09 669.69,-190.69"/>
</g>
<!-- ast.Call object at 0x7f805653bd90 -->
<g id="node29" class="node">
<title>ast.Call object at 0x7f805653bd90</title>
<path fill="#66cdaa" stroke="black" d="M764,-180C764,-180 734,-180 734,-180 728,-180 722,-174 722,-168 722,-168 722,-156 722,-156 722,-150 728,-144 734,-144 734,-144 764,-144 764,-144 770,-144 776,-150 776,-156 776,-156 776,-168 776,-168 776,-174 770,-180 764,-180"/>
<text text-anchor="middle" x="749" y="-158.3" font-family="Times,serif" font-size="14.00">Call</text>
</g>
<!-- ast.Compare object at 0x7f805653ba60&#45;&gt;ast.Call object at 0x7f805653bd90 -->
<g id="edge32" class="edge">
<title>ast.Compare object at 0x7f805653ba60&#45;&gt;ast.Call object at 0x7f805653bd90</title>
<path fill="none" stroke="black" d="M673.46,-215.88C686.3,-206.89 702.2,-195.76 716.09,-186.03"/>
<polygon fill="black" stroke="black" points="718.26,-188.79 724.44,-180.19 714.24,-183.06 718.26,-188.79"/>
</g>
<!-- ast.Name object at 0x7f805653bdf0&#45;&gt;ast.Load object at 0x7f80ffaf1f90 -->
<g id="edge30" class="edge">
<title>ast.Name object at 0x7f805653bdf0&#45;&gt;ast.Load object at 0x7f80ffaf1f90</title>
<path fill="none" stroke="black" d="M533.8,-72.59C517.95,-63.02 497.77,-50.85 480.66,-40.52"/>
<polygon fill="black" stroke="black" points="482.4,-37.48 472.03,-35.31 478.78,-43.47 482.4,-37.48"/>
</g>
<!-- ast.Name object at 0x7f805653a170 -->
<g id="node30" class="node">
<title>ast.Name object at 0x7f805653a170</title>
<path fill="#66cdaa" stroke="black" d="M670,-108C670,-108 640,-108 640,-108 634,-108 628,-102 628,-96 628,-96 628,-84 628,-84 628,-78 634,-72 640,-72 640,-72 670,-72 670,-72 676,-72 682,-78 682,-84 682,-84 682,-96 682,-96 682,-102 676,-108 670,-108"/>
<text text-anchor="middle" x="655" y="-86.3" font-family="Times,serif" font-size="14.00">Name</text>
</g>
<!-- ast.Call object at 0x7f805653bd90&#45;&gt;ast.Name object at 0x7f805653a170 -->
<g id="edge33" class="edge">
<title>ast.Call object at 0x7f805653bd90&#45;&gt;ast.Name object at 0x7f805653a170</title>
<path fill="none" stroke="black" d="M725.76,-143.7C713.81,-134.8 699.08,-123.82 686.15,-114.2"/>
<polygon fill="black" stroke="black" points="688.08,-111.27 677.97,-108.1 683.9,-116.88 688.08,-111.27"/>
</g>
<!-- ast.Name object at 0x7f805653bf40 -->
<g id="node31" class="node">
<title>ast.Name object at 0x7f805653bf40</title>
<path fill="#66cdaa" stroke="black" d="M753,-108C753,-108 723,-108 723,-108 717,-108 711,-102 711,-96 711,-96 711,-84 711,-84 711,-78 717,-72 723,-72 723,-72 753,-72 753,-72 759,-72 765,-78 765,-84 765,-84 765,-96 765,-96 765,-102 759,-108 753,-108"/>
<text text-anchor="middle" x="738" y="-86.3" font-family="Times,serif" font-size="14.00">Name</text>
</g>
<!-- ast.Call object at 0x7f805653bd90&#45;&gt;ast.Name object at 0x7f805653bf40 -->
<g id="edge35" class="edge">
<title>ast.Call object at 0x7f805653bd90&#45;&gt;ast.Name object at 0x7f805653bf40</title>
<path fill="none" stroke="black" d="M746.28,-143.7C745.07,-135.98 743.61,-126.71 742.26,-118.11"/>
<polygon fill="black" stroke="black" points="745.7,-117.44 740.69,-108.1 738.78,-118.53 745.7,-117.44"/>
</g>
<!-- ast.Name object at 0x7f805653a170&#45;&gt;ast.Load object at 0x7f80ffaf1f90 -->
<g id="edge34" class="edge">
<title>ast.Name object at 0x7f805653a170&#45;&gt;ast.Load object at 0x7f80ffaf1f90</title>
<path fill="none" stroke="black" d="M627.98,-79.99C590.75,-67.58 523.56,-45.19 481.78,-31.26"/>
<polygon fill="black" stroke="black" points="482.85,-27.93 472.25,-28.08 480.63,-34.57 482.85,-27.93"/>
</g>
<!-- ast.Name object at 0x7f805653bf40&#45;&gt;ast.Load object at 0x7f80ffaf1f90 -->
<g id="edge36" class="edge">
<title>ast.Name object at 0x7f805653bf40&#45;&gt;ast.Load object at 0x7f80ffaf1f90</title>
<path fill="none" stroke="black" d="M710.87,-78.48C704.41,-76.18 697.51,-73.87 691,-72 618.04,-51.05 530.8,-34.12 482.27,-25.41"/>
<polygon fill="black" stroke="black" points="482.69,-21.93 472.23,-23.63 481.47,-28.82 482.69,-21.93"/>
</g>
</g>
</svg>
