<?xml version="1.0" encoding="UTF-8" standalone="no"?>
<!DOCTYPE svg PUBLIC "-//W3C//DTD SVG 1.1//EN"
 "http://www.w3.org/Graphics/SVG/1.1/DTD/svg11.dtd">
<!-- Generated by graphviz version 2.43.0 (0)
 -->
<!-- Title: %3 Pages: 1 -->
<svg width="1254pt" height="548pt"
 viewBox="0.00 0.00 1254.00 548.00" xmlns="http://www.w3.org/2000/svg" xmlns:xlink="http://www.w3.org/1999/xlink">
<g id="graph0" class="graph" transform="scale(1 1) rotate(0) translate(4 544)">
<title>%3</title>
<polygon fill="white" stroke="transparent" points="-4,4 -4,-544 1250,-544 1250,4 -4,4"/>
<!-- ast.Module object at 0x7f27d8eb1a80 -->
<g id="node1" class="node">
<title>ast.Module object at 0x7f27d8eb1a80</title>
<path fill="#66cdaa" stroke="black" d="M373.5,-540C373.5,-540 338.5,-540 338.5,-540 332.5,-540 326.5,-534 326.5,-528 326.5,-528 326.5,-516 326.5,-516 326.5,-510 332.5,-504 338.5,-504 338.5,-504 373.5,-504 373.5,-504 379.5,-504 385.5,-510 385.5,-516 385.5,-516 385.5,-528 385.5,-528 385.5,-534 379.5,-540 373.5,-540"/>
<text text-anchor="middle" x="356" y="-518.3" font-family="Times,serif" font-size="14.00">Module</text>
</g>
<!-- ast.FunctionDef object at 0x7f27d8eb1ae0 -->
<g id="node2" class="node">
<title>ast.FunctionDef object at 0x7f27d8eb1ae0</title>
<path fill="#66cdaa" stroke="black" d="M386.5,-468C386.5,-468 325.5,-468 325.5,-468 319.5,-468 313.5,-462 313.5,-456 313.5,-456 313.5,-444 313.5,-444 313.5,-438 319.5,-432 325.5,-432 325.5,-432 386.5,-432 386.5,-432 392.5,-432 398.5,-438 398.5,-444 398.5,-444 398.5,-456 398.5,-456 398.5,-462 392.5,-468 386.5,-468"/>
<text text-anchor="middle" x="356" y="-446.3" font-family="Times,serif" font-size="14.00">FunctionDef</text>
</g>
<!-- ast.Module object at 0x7f27d8eb1a80&#45;&gt;ast.FunctionDef object at 0x7f27d8eb1ae0 -->
<g id="edge1" class="edge">
<title>ast.Module object at 0x7f27d8eb1a80&#45;&gt;ast.FunctionDef object at 0x7f27d8eb1ae0</title>
<path fill="none" stroke="black" d="M356,-503.7C356,-495.98 356,-486.71 356,-478.11"/>
<polygon fill="black" stroke="black" points="359.5,-478.1 356,-468.1 352.5,-478.1 359.5,-478.1"/>
</g>
<!-- ast.arguments object at 0x7f27d8eb2e30 -->
<g id="node3" class="node">
<title>ast.arguments object at 0x7f27d8eb2e30</title>
<path fill="#66cdaa" stroke="black" d="M340,-396C340,-396 290,-396 290,-396 284,-396 278,-390 278,-384 278,-384 278,-372 278,-372 278,-366 284,-360 290,-360 290,-360 340,-360 340,-360 346,-360 352,-366 352,-372 352,-372 352,-384 352,-384 352,-390 346,-396 340,-396"/>
<text text-anchor="middle" x="315" y="-374.3" font-family="Times,serif" font-size="14.00">arguments</text>
</g>
<!-- ast.FunctionDef object at 0x7f27d8eb1ae0&#45;&gt;ast.arguments object at 0x7f27d8eb2e30 -->
<g id="edge2" class="edge">
<title>ast.FunctionDef object at 0x7f27d8eb1ae0&#45;&gt;ast.arguments object at 0x7f27d8eb2e30</title>
<path fill="none" stroke="black" d="M345.87,-431.7C341.15,-423.64 335.44,-413.89 330.22,-404.98"/>
<polygon fill="black" stroke="black" points="333.09,-402.96 325.02,-396.1 327.05,-406.5 333.09,-402.96"/>
</g>
<!-- ast.Return object at 0x7f27d8eb39d0 -->
<g id="node12" class="node">
<title>ast.Return object at 0x7f27d8eb39d0</title>
<path fill="#66cdaa" stroke="black" d="M515,-396C515,-396 485,-396 485,-396 479,-396 473,-390 473,-384 473,-384 473,-372 473,-372 473,-366 479,-360 485,-360 485,-360 515,-360 515,-360 521,-360 527,-366 527,-372 527,-372 527,-384 527,-384 527,-390 521,-396 515,-396"/>
<text text-anchor="middle" x="500" y="-374.3" font-family="Times,serif" font-size="14.00">Return</text>
</g>
<!-- ast.FunctionDef object at 0x7f27d8eb1ae0&#45;&gt;ast.Return object at 0x7f27d8eb39d0 -->
<g id="edge11" class="edge">
<title>ast.FunctionDef object at 0x7f27d8eb1ae0&#45;&gt;ast.Return object at 0x7f27d8eb39d0</title>
<path fill="none" stroke="black" d="M391.23,-431.88C413.23,-421.18 441.49,-407.44 463.7,-396.65"/>
<polygon fill="black" stroke="black" points="465.34,-399.74 472.8,-392.22 462.28,-393.44 465.34,-399.74"/>
</g>
<!-- ast.arg object at 0x7f27d8eb0fd0 -->
<g id="node4" class="node">
<title>ast.arg object at 0x7f27d8eb0fd0</title>
<path fill="#66cdaa" stroke="black" d="M42,-324C42,-324 12,-324 12,-324 6,-324 0,-318 0,-312 0,-312 0,-300 0,-300 0,-294 6,-288 12,-288 12,-288 42,-288 42,-288 48,-288 54,-294 54,-300 54,-300 54,-312 54,-312 54,-318 48,-324 42,-324"/>
<text text-anchor="middle" x="27" y="-302.3" font-family="Times,serif" font-size="14.00">arg</text>
</g>
<!-- ast.arguments object at 0x7f27d8eb2e30&#45;&gt;ast.arg object at 0x7f27d8eb0fd0 -->
<g id="edge3" class="edge">
<title>ast.arguments object at 0x7f27d8eb2e30&#45;&gt;ast.arg object at 0x7f27d8eb0fd0</title>
<path fill="none" stroke="black" d="M277.98,-371.99C230.15,-364.92 144.41,-350.21 64.02,-323.93"/>
<polygon fill="black" stroke="black" points="64.84,-320.52 54.24,-320.67 62.62,-327.16 64.84,-320.52"/>
</g>
<!-- ast.arg object at 0x7f27d8eb1570 -->
<g id="node5" class="node">
<title>ast.arg object at 0x7f27d8eb1570</title>
<path fill="#66cdaa" stroke="black" d="M114,-324C114,-324 84,-324 84,-324 78,-324 72,-318 72,-312 72,-312 72,-300 72,-300 72,-294 78,-288 84,-288 84,-288 114,-288 114,-288 120,-288 126,-294 126,-300 126,-300 126,-312 126,-312 126,-318 120,-324 114,-324"/>
<text text-anchor="middle" x="99" y="-302.3" font-family="Times,serif" font-size="14.00">arg</text>
</g>
<!-- ast.arguments object at 0x7f27d8eb2e30&#45;&gt;ast.arg object at 0x7f27d8eb1570 -->
<g id="edge4" class="edge">
<title>ast.arguments object at 0x7f27d8eb2e30&#45;&gt;ast.arg object at 0x7f27d8eb1570</title>
<path fill="none" stroke="black" d="M277.91,-367.88C243.13,-358.93 189.66,-344.16 135.69,-323.99"/>
<polygon fill="black" stroke="black" points="136.92,-320.71 126.33,-320.44 134.44,-327.26 136.92,-320.71"/>
</g>
<!-- ast.arg object at 0x7f27d8eb3880 -->
<g id="node6" class="node">
<title>ast.arg object at 0x7f27d8eb3880</title>
<path fill="#66cdaa" stroke="black" d="M186,-324C186,-324 156,-324 156,-324 150,-324 144,-318 144,-312 144,-312 144,-300 144,-300 144,-294 150,-288 156,-288 156,-288 186,-288 186,-288 192,-288 198,-294 198,-300 198,-300 198,-312 198,-312 198,-318 192,-324 186,-324"/>
<text text-anchor="middle" x="171" y="-302.3" font-family="Times,serif" font-size="14.00">arg</text>
</g>
<!-- ast.arguments object at 0x7f27d8eb2e30&#45;&gt;ast.arg object at 0x7f27d8eb3880 -->
<g id="edge5" class="edge">
<title>ast.arguments object at 0x7f27d8eb2e30&#45;&gt;ast.arg object at 0x7f27d8eb3880</title>
<path fill="none" stroke="black" d="M279.77,-359.88C257.77,-349.18 229.51,-335.44 207.3,-324.65"/>
<polygon fill="black" stroke="black" points="208.72,-321.44 198.2,-320.22 205.66,-327.74 208.72,-321.44"/>
</g>
<!-- ast.arg object at 0x7f27d8eb09d0 -->
<g id="node7" class="node">
<title>ast.arg object at 0x7f27d8eb09d0</title>
<path fill="#66cdaa" stroke="black" d="M258,-324C258,-324 228,-324 228,-324 222,-324 216,-318 216,-312 216,-312 216,-300 216,-300 216,-294 222,-288 228,-288 228,-288 258,-288 258,-288 264,-288 270,-294 270,-300 270,-300 270,-312 270,-312 270,-318 264,-324 258,-324"/>
<text text-anchor="middle" x="243" y="-302.3" font-family="Times,serif" font-size="14.00">arg</text>
</g>
<!-- ast.arguments object at 0x7f27d8eb2e30&#45;&gt;ast.arg object at 0x7f27d8eb09d0 -->
<g id="edge6" class="edge">
<title>ast.arguments object at 0x7f27d8eb2e30&#45;&gt;ast.arg object at 0x7f27d8eb09d0</title>
<path fill="none" stroke="black" d="M297.2,-359.7C288.4,-351.14 277.62,-340.66 268,-331.3"/>
<polygon fill="black" stroke="black" points="270.2,-328.57 260.59,-324.1 265.32,-333.58 270.2,-328.57"/>
</g>
<!-- ast.arg object at 0x7f27d8eb1a50 -->
<g id="node8" class="node">
<title>ast.arg object at 0x7f27d8eb1a50</title>
<path fill="#66cdaa" stroke="black" d="M330,-324C330,-324 300,-324 300,-324 294,-324 288,-318 288,-312 288,-312 288,-300 288,-300 288,-294 294,-288 300,-288 300,-288 330,-288 330,-288 336,-288 342,-294 342,-300 342,-300 342,-312 342,-312 342,-318 336,-324 330,-324"/>
<text text-anchor="middle" x="315" y="-302.3" font-family="Times,serif" font-size="14.00">arg</text>
</g>
<!-- ast.arguments object at 0x7f27d8eb2e30&#45;&gt;ast.arg object at 0x7f27d8eb1a50 -->
<g id="edge7" class="edge">
<title>ast.arguments object at 0x7f27d8eb2e30&#45;&gt;ast.arg object at 0x7f27d8eb1a50</title>
<path fill="none" stroke="black" d="M315,-359.7C315,-351.98 315,-342.71 315,-334.11"/>
<polygon fill="black" stroke="black" points="318.5,-334.1 315,-324.1 311.5,-334.1 318.5,-334.1"/>
</g>
<!-- ast.arg object at 0x7f27d8eb38b0 -->
<g id="node9" class="node">
<title>ast.arg object at 0x7f27d8eb38b0</title>
<path fill="#66cdaa" stroke="black" d="M402,-324C402,-324 372,-324 372,-324 366,-324 360,-318 360,-312 360,-312 360,-300 360,-300 360,-294 366,-288 372,-288 372,-288 402,-288 402,-288 408,-288 414,-294 414,-300 414,-300 414,-312 414,-312 414,-318 408,-324 402,-324"/>
<text text-anchor="middle" x="387" y="-302.3" font-family="Times,serif" font-size="14.00">arg</text>
</g>
<!-- ast.arguments object at 0x7f27d8eb2e30&#45;&gt;ast.arg object at 0x7f27d8eb38b0 -->
<g id="edge8" class="edge">
<title>ast.arguments object at 0x7f27d8eb2e30&#45;&gt;ast.arg object at 0x7f27d8eb38b0</title>
<path fill="none" stroke="black" d="M332.8,-359.7C341.6,-351.14 352.38,-340.66 362,-331.3"/>
<polygon fill="black" stroke="black" points="364.68,-333.58 369.41,-324.1 359.8,-328.57 364.68,-333.58"/>
</g>
<!-- ast.arg object at 0x7f27d8eb13c0 -->
<g id="node10" class="node">
<title>ast.arg object at 0x7f27d8eb13c0</title>
<path fill="#66cdaa" stroke="black" d="M474,-324C474,-324 444,-324 444,-324 438,-324 432,-318 432,-312 432,-312 432,-300 432,-300 432,-294 438,-288 444,-288 444,-288 474,-288 474,-288 480,-288 486,-294 486,-300 486,-300 486,-312 486,-312 486,-318 480,-324 474,-324"/>
<text text-anchor="middle" x="459" y="-302.3" font-family="Times,serif" font-size="14.00">arg</text>
</g>
<!-- ast.arguments object at 0x7f27d8eb2e30&#45;&gt;ast.arg object at 0x7f27d8eb13c0 -->
<g id="edge9" class="edge">
<title>ast.arguments object at 0x7f27d8eb2e30&#45;&gt;ast.arg object at 0x7f27d8eb13c0</title>
<path fill="none" stroke="black" d="M350.23,-359.88C372.23,-349.18 400.49,-335.44 422.7,-324.65"/>
<polygon fill="black" stroke="black" points="424.34,-327.74 431.8,-320.22 421.28,-321.44 424.34,-327.74"/>
</g>
<!-- ast.arg object at 0x7f27d8eb2920 -->
<g id="node11" class="node">
<title>ast.arg object at 0x7f27d8eb2920</title>
<path fill="#66cdaa" stroke="black" d="M546,-324C546,-324 516,-324 516,-324 510,-324 504,-318 504,-312 504,-312 504,-300 504,-300 504,-294 510,-288 516,-288 516,-288 546,-288 546,-288 552,-288 558,-294 558,-300 558,-300 558,-312 558,-312 558,-318 552,-324 546,-324"/>
<text text-anchor="middle" x="531" y="-302.3" font-family="Times,serif" font-size="14.00">arg</text>
</g>
<!-- ast.arguments object at 0x7f27d8eb2e30&#45;&gt;ast.arg object at 0x7f27d8eb2920 -->
<g id="edge10" class="edge">
<title>ast.arguments object at 0x7f27d8eb2e30&#45;&gt;ast.arg object at 0x7f27d8eb2920</title>
<path fill="none" stroke="black" d="M352.09,-367.88C386.87,-358.93 440.34,-344.16 494.31,-323.99"/>
<polygon fill="black" stroke="black" points="495.56,-327.26 503.67,-320.44 493.08,-320.71 495.56,-327.26"/>
</g>
<!-- ast.Call object at 0x7f27d8eb3be0 -->
<g id="node13" class="node">
<title>ast.Call object at 0x7f27d8eb3be0</title>
<path fill="#66cdaa" stroke="black" d="M618,-324C618,-324 588,-324 588,-324 582,-324 576,-318 576,-312 576,-312 576,-300 576,-300 576,-294 582,-288 588,-288 588,-288 618,-288 618,-288 624,-288 630,-294 630,-300 630,-300 630,-312 630,-312 630,-318 624,-324 618,-324"/>
<text text-anchor="middle" x="603" y="-302.3" font-family="Times,serif" font-size="14.00">Call</text>
</g>
<!-- ast.Return object at 0x7f27d8eb39d0&#45;&gt;ast.Call object at 0x7f27d8eb3be0 -->
<g id="edge12" class="edge">
<title>ast.Return object at 0x7f27d8eb39d0&#45;&gt;ast.Call object at 0x7f27d8eb3be0</title>
<path fill="none" stroke="black" d="M525.2,-359.88C538.41,-350.89 554.79,-339.76 569.11,-330.03"/>
<polygon fill="black" stroke="black" points="571.4,-332.71 577.71,-324.19 567.47,-326.92 571.4,-332.71"/>
</g>
<!-- ast.Attribute object at 0x7f27d8eb28f0 -->
<g id="node14" class="node">
<title>ast.Attribute object at 0x7f27d8eb28f0</title>
<path fill="#66cdaa" stroke="black" d="M583.5,-252C583.5,-252 542.5,-252 542.5,-252 536.5,-252 530.5,-246 530.5,-240 530.5,-240 530.5,-228 530.5,-228 530.5,-222 536.5,-216 542.5,-216 542.5,-216 583.5,-216 583.5,-216 589.5,-216 595.5,-222 595.5,-228 595.5,-228 595.5,-240 595.5,-240 595.5,-246 589.5,-252 583.5,-252"/>
<text text-anchor="middle" x="563" y="-230.3" font-family="Times,serif" font-size="14.00">Attribute</text>
</g>
<!-- ast.Call object at 0x7f27d8eb3be0&#45;&gt;ast.Attribute object at 0x7f27d8eb28f0 -->
<g id="edge13" class="edge">
<title>ast.Call object at 0x7f27d8eb3be0&#45;&gt;ast.Attribute object at 0x7f27d8eb28f0</title>
<path fill="none" stroke="black" d="M593.11,-287.7C588.51,-279.64 582.94,-269.89 577.85,-260.98"/>
<polygon fill="black" stroke="black" points="580.77,-259.05 572.77,-252.1 574.7,-262.52 580.77,-259.05"/>
</g>
<!-- ast.Starred object at 0x7f27d8eb1960 -->
<g id="node18" class="node">
<title>ast.Starred object at 0x7f27d8eb1960</title>
<path fill="#66cdaa" stroke="black" d="M658,-252C658,-252 626,-252 626,-252 620,-252 614,-246 614,-240 614,-240 614,-228 614,-228 614,-222 620,-216 626,-216 626,-216 658,-216 658,-216 664,-216 670,-222 670,-228 670,-228 670,-240 670,-240 670,-246 664,-252 658,-252"/>
<text text-anchor="middle" x="642" y="-230.3" font-family="Times,serif" font-size="14.00">Starred</text>
</g>
<!-- ast.Call object at 0x7f27d8eb3be0&#45;&gt;ast.Starred object at 0x7f27d8eb1960 -->
<g id="edge18" class="edge">
<title>ast.Call object at 0x7f27d8eb3be0&#45;&gt;ast.Starred object at 0x7f27d8eb1960</title>
<path fill="none" stroke="black" d="M612.64,-287.7C617.13,-279.64 622.56,-269.89 627.52,-260.98"/>
<polygon fill="black" stroke="black" points="630.66,-262.54 632.47,-252.1 624.55,-259.14 630.66,-262.54"/>
</g>
<!-- ast.Call object at 0x7f27d8eb1180 -->
<g id="node15" class="node">
<title>ast.Call object at 0x7f27d8eb1180</title>
<path fill="#66cdaa" stroke="black" d="M544,-180C544,-180 514,-180 514,-180 508,-180 502,-174 502,-168 502,-168 502,-156 502,-156 502,-150 508,-144 514,-144 514,-144 544,-144 544,-144 550,-144 556,-150 556,-156 556,-156 556,-168 556,-168 556,-174 550,-180 544,-180"/>
<text text-anchor="middle" x="529" y="-158.3" font-family="Times,serif" font-size="14.00">Call</text>
</g>
<!-- ast.Attribute object at 0x7f27d8eb28f0&#45;&gt;ast.Call object at 0x7f27d8eb1180 -->
<g id="edge14" class="edge">
<title>ast.Attribute object at 0x7f27d8eb28f0&#45;&gt;ast.Call object at 0x7f27d8eb1180</title>
<path fill="none" stroke="black" d="M554.6,-215.7C550.73,-207.73 546.05,-198.1 541.76,-189.26"/>
<polygon fill="black" stroke="black" points="544.83,-187.57 537.31,-180.1 538.53,-190.63 544.83,-187.57"/>
</g>
<!-- ast.Load object at 0x7f27e72f1f60 -->
<g id="node17" class="node">
<title>ast.Load object at 0x7f27e72f1f60</title>
<path fill="#66cdaa" stroke="black" d="M838,-36C838,-36 808,-36 808,-36 802,-36 796,-30 796,-24 796,-24 796,-12 796,-12 796,-6 802,0 808,0 808,0 838,0 838,0 844,0 850,-6 850,-12 850,-12 850,-24 850,-24 850,-30 844,-36 838,-36"/>
<text text-anchor="middle" x="823" y="-14.3" font-family="Times,serif" font-size="14.00">Load</text>
</g>
<!-- ast.Attribute object at 0x7f27d8eb28f0&#45;&gt;ast.Load object at 0x7f27e72f1f60 -->
<g id="edge17" class="edge">
<title>ast.Attribute object at 0x7f27d8eb28f0&#45;&gt;ast.Load object at 0x7f27e72f1f60</title>
<path fill="none" stroke="black" d="M566.94,-215.84C575.38,-182.95 598.36,-110.85 645,-72 685.31,-38.42 746.28,-26.12 785.37,-21.61"/>
<polygon fill="black" stroke="black" points="786.19,-25.04 795.78,-20.53 785.47,-18.08 786.19,-25.04"/>
</g>
<!-- ast.Name object at 0x7f27d8eb21d0 -->
<g id="node16" class="node">
<title>ast.Name object at 0x7f27d8eb21d0</title>
<path fill="#66cdaa" stroke="black" d="M544,-108C544,-108 514,-108 514,-108 508,-108 502,-102 502,-96 502,-96 502,-84 502,-84 502,-78 508,-72 514,-72 514,-72 544,-72 544,-72 550,-72 556,-78 556,-84 556,-84 556,-96 556,-96 556,-102 550,-108 544,-108"/>
<text text-anchor="middle" x="529" y="-86.3" font-family="Times,serif" font-size="14.00">Name</text>
</g>
<!-- ast.Call object at 0x7f27d8eb1180&#45;&gt;ast.Name object at 0x7f27d8eb21d0 -->
<g id="edge15" class="edge">
<title>ast.Call object at 0x7f27d8eb1180&#45;&gt;ast.Name object at 0x7f27d8eb21d0</title>
<path fill="none" stroke="black" d="M529,-143.7C529,-135.98 529,-126.71 529,-118.11"/>
<polygon fill="black" stroke="black" points="532.5,-118.1 529,-108.1 525.5,-118.1 532.5,-118.1"/>
</g>
<!-- ast.Name object at 0x7f27d8eb21d0&#45;&gt;ast.Load object at 0x7f27e72f1f60 -->
<g id="edge16" class="edge">
<title>ast.Name object at 0x7f27d8eb21d0&#45;&gt;ast.Load object at 0x7f27e72f1f60</title>
<path fill="none" stroke="black" d="M556.09,-76.94C560.68,-75.14 565.44,-73.41 570,-72 645.25,-48.74 736.24,-32.46 786.02,-24.52"/>
<polygon fill="black" stroke="black" points="786.66,-27.97 795.99,-22.96 785.57,-21.05 786.66,-27.97"/>
</g>
<!-- ast.Starred object at 0x7f27d8eb1960&#45;&gt;ast.Load object at 0x7f27e72f1f60 -->
<g id="edge37" class="edge">
<title>ast.Starred object at 0x7f27d8eb1960&#45;&gt;ast.Load object at 0x7f27e72f1f60</title>
<path fill="none" stroke="black" d="M639.49,-215.63C635.85,-183.34 632.95,-113.55 668,-72 697.21,-37.38 750.07,-25.32 785.85,-21.15"/>
<polygon fill="black" stroke="black" points="786.31,-24.62 795.9,-20.13 785.6,-17.66 786.31,-24.62"/>
</g>
<!-- ast.List object at 0x7f27d8eb2110 -->
<g id="node19" class="node">
<title>ast.List object at 0x7f27d8eb2110</title>
<path fill="#66cdaa" stroke="black" d="M910,-180C910,-180 880,-180 880,-180 874,-180 868,-174 868,-168 868,-168 868,-156 868,-156 868,-150 874,-144 880,-144 880,-144 910,-144 910,-144 916,-144 922,-150 922,-156 922,-156 922,-168 922,-168 922,-174 916,-180 910,-180"/>
<text text-anchor="middle" x="895" y="-158.3" font-family="Times,serif" font-size="14.00">List</text>
</g>
<!-- ast.Starred object at 0x7f27d8eb1960&#45;&gt;ast.List object at 0x7f27d8eb2110 -->
<g id="edge19" class="edge">
<title>ast.Starred object at 0x7f27d8eb1960&#45;&gt;ast.List object at 0x7f27d8eb2110</title>
<path fill="none" stroke="black" d="M670.04,-225.24C716,-212.53 807.32,-187.26 858.34,-173.14"/>
<polygon fill="black" stroke="black" points="859.28,-176.52 867.98,-170.48 857.41,-169.77 859.28,-176.52"/>
</g>
<!-- ast.List object at 0x7f27d8eb2110&#45;&gt;ast.Load object at 0x7f27e72f1f60 -->
<g id="edge36" class="edge">
<title>ast.List object at 0x7f27d8eb2110&#45;&gt;ast.Load object at 0x7f27e72f1f60</title>
<path fill="none" stroke="black" d="M867.6,-158.41C814.82,-152.79 702.17,-137.55 679,-108 669.13,-95.41 669.85,-85.12 679,-72 702.89,-37.74 751.53,-25.57 785.64,-21.28"/>
<polygon fill="black" stroke="black" points="786.16,-24.74 795.72,-20.18 785.4,-17.78 786.16,-24.74"/>
</g>
<!-- ast.Name object at 0x7f27d8eb2b90 -->
<g id="node20" class="node">
<title>ast.Name object at 0x7f27d8eb2b90</title>
<path fill="#66cdaa" stroke="black" d="M730,-108C730,-108 700,-108 700,-108 694,-108 688,-102 688,-96 688,-96 688,-84 688,-84 688,-78 694,-72 700,-72 700,-72 730,-72 730,-72 736,-72 742,-78 742,-84 742,-84 742,-96 742,-96 742,-102 736,-108 730,-108"/>
<text text-anchor="middle" x="715" y="-86.3" font-family="Times,serif" font-size="14.00">Name</text>
</g>
<!-- ast.List object at 0x7f27d8eb2110&#45;&gt;ast.Name object at 0x7f27d8eb2b90 -->
<g id="edge20" class="edge">
<title>ast.List object at 0x7f27d8eb2110&#45;&gt;ast.Name object at 0x7f27d8eb2b90</title>
<path fill="none" stroke="black" d="M867.92,-151.84C840.65,-142.43 797.23,-126.99 751.49,-108.04"/>
<polygon fill="black" stroke="black" points="752.59,-104.7 742.01,-104.07 749.89,-111.16 752.59,-104.7"/>
</g>
<!-- ast.Name object at 0x7f27d8eb1780 -->
<g id="node21" class="node">
<title>ast.Name object at 0x7f27d8eb1780</title>
<path fill="#66cdaa" stroke="black" d="M802,-108C802,-108 772,-108 772,-108 766,-108 760,-102 760,-96 760,-96 760,-84 760,-84 760,-78 766,-72 772,-72 772,-72 802,-72 802,-72 808,-72 814,-78 814,-84 814,-84 814,-96 814,-96 814,-102 808,-108 802,-108"/>
<text text-anchor="middle" x="787" y="-86.3" font-family="Times,serif" font-size="14.00">Name</text>
</g>
<!-- ast.List object at 0x7f27d8eb2110&#45;&gt;ast.Name object at 0x7f27d8eb1780 -->
<g id="edge22" class="edge">
<title>ast.List object at 0x7f27d8eb2110&#45;&gt;ast.Name object at 0x7f27d8eb1780</title>
<path fill="none" stroke="black" d="M868.58,-143.88C854.59,-134.81 837.22,-123.55 822.11,-113.76"/>
<polygon fill="black" stroke="black" points="823.82,-110.69 813.52,-108.19 820.01,-116.57 823.82,-110.69"/>
</g>
<!-- ast.Name object at 0x7f27d8eb0040 -->
<g id="node22" class="node">
<title>ast.Name object at 0x7f27d8eb0040</title>
<path fill="#66cdaa" stroke="black" d="M874,-108C874,-108 844,-108 844,-108 838,-108 832,-102 832,-96 832,-96 832,-84 832,-84 832,-78 838,-72 844,-72 844,-72 874,-72 874,-72 880,-72 886,-78 886,-84 886,-84 886,-96 886,-96 886,-102 880,-108 874,-108"/>
<text text-anchor="middle" x="859" y="-86.3" font-family="Times,serif" font-size="14.00">Name</text>
</g>
<!-- ast.List object at 0x7f27d8eb2110&#45;&gt;ast.Name object at 0x7f27d8eb0040 -->
<g id="edge24" class="edge">
<title>ast.List object at 0x7f27d8eb2110&#45;&gt;ast.Name object at 0x7f27d8eb0040</title>
<path fill="none" stroke="black" d="M886.1,-143.7C882,-135.73 877.05,-126.1 872.51,-117.26"/>
<polygon fill="black" stroke="black" points="875.48,-115.4 867.8,-108.1 869.26,-118.6 875.48,-115.4"/>
</g>
<!-- ast.Name object at 0x7f27d90de3e0 -->
<g id="node23" class="node">
<title>ast.Name object at 0x7f27d90de3e0</title>
<path fill="#66cdaa" stroke="black" d="M946,-108C946,-108 916,-108 916,-108 910,-108 904,-102 904,-96 904,-96 904,-84 904,-84 904,-78 910,-72 916,-72 916,-72 946,-72 946,-72 952,-72 958,-78 958,-84 958,-84 958,-96 958,-96 958,-102 952,-108 946,-108"/>
<text text-anchor="middle" x="931" y="-86.3" font-family="Times,serif" font-size="14.00">Name</text>
</g>
<!-- ast.List object at 0x7f27d8eb2110&#45;&gt;ast.Name object at 0x7f27d90de3e0 -->
<g id="edge26" class="edge">
<title>ast.List object at 0x7f27d8eb2110&#45;&gt;ast.Name object at 0x7f27d90de3e0</title>
<path fill="none" stroke="black" d="M903.9,-143.7C908,-135.73 912.95,-126.1 917.49,-117.26"/>
<polygon fill="black" stroke="black" points="920.74,-118.6 922.2,-108.1 914.52,-115.4 920.74,-118.6"/>
</g>
<!-- ast.Name object at 0x7f27da509cf0 -->
<g id="node24" class="node">
<title>ast.Name object at 0x7f27da509cf0</title>
<path fill="#66cdaa" stroke="black" d="M1018,-108C1018,-108 988,-108 988,-108 982,-108 976,-102 976,-96 976,-96 976,-84 976,-84 976,-78 982,-72 988,-72 988,-72 1018,-72 1018,-72 1024,-72 1030,-78 1030,-84 1030,-84 1030,-96 1030,-96 1030,-102 1024,-108 1018,-108"/>
<text text-anchor="middle" x="1003" y="-86.3" font-family="Times,serif" font-size="14.00">Name</text>
</g>
<!-- ast.List object at 0x7f27d8eb2110&#45;&gt;ast.Name object at 0x7f27da509cf0 -->
<g id="edge28" class="edge">
<title>ast.List object at 0x7f27d8eb2110&#45;&gt;ast.Name object at 0x7f27da509cf0</title>
<path fill="none" stroke="black" d="M921.42,-143.88C935.41,-134.81 952.78,-123.55 967.89,-113.76"/>
<polygon fill="black" stroke="black" points="969.99,-116.57 976.48,-108.19 966.18,-110.69 969.99,-116.57"/>
</g>
<!-- ast.Name object at 0x7f27da50aec0 -->
<g id="node25" class="node">
<title>ast.Name object at 0x7f27da50aec0</title>
<path fill="#66cdaa" stroke="black" d="M1090,-108C1090,-108 1060,-108 1060,-108 1054,-108 1048,-102 1048,-96 1048,-96 1048,-84 1048,-84 1048,-78 1054,-72 1060,-72 1060,-72 1090,-72 1090,-72 1096,-72 1102,-78 1102,-84 1102,-84 1102,-96 1102,-96 1102,-102 1096,-108 1090,-108"/>
<text text-anchor="middle" x="1075" y="-86.3" font-family="Times,serif" font-size="14.00">Name</text>
</g>
<!-- ast.List object at 0x7f27d8eb2110&#45;&gt;ast.Name object at 0x7f27da50aec0 -->
<g id="edge30" class="edge">
<title>ast.List object at 0x7f27d8eb2110&#45;&gt;ast.Name object at 0x7f27da50aec0</title>
<path fill="none" stroke="black" d="M922.08,-151.84C949.35,-142.43 992.77,-126.99 1038.51,-108.04"/>
<polygon fill="black" stroke="black" points="1040.11,-111.16 1047.99,-104.07 1037.41,-104.7 1040.11,-111.16"/>
</g>
<!-- ast.Name object at 0x7f27da509750 -->
<g id="node26" class="node">
<title>ast.Name object at 0x7f27da509750</title>
<path fill="#66cdaa" stroke="black" d="M1162,-108C1162,-108 1132,-108 1132,-108 1126,-108 1120,-102 1120,-96 1120,-96 1120,-84 1120,-84 1120,-78 1126,-72 1132,-72 1132,-72 1162,-72 1162,-72 1168,-72 1174,-78 1174,-84 1174,-84 1174,-96 1174,-96 1174,-102 1168,-108 1162,-108"/>
<text text-anchor="middle" x="1147" y="-86.3" font-family="Times,serif" font-size="14.00">Name</text>
</g>
<!-- ast.List object at 0x7f27d8eb2110&#45;&gt;ast.Name object at 0x7f27da509750 -->
<g id="edge32" class="edge">
<title>ast.List object at 0x7f27d8eb2110&#45;&gt;ast.Name object at 0x7f27da509750</title>
<path fill="none" stroke="black" d="M922.11,-156.16C961.76,-148.71 1037.86,-132.93 1110.03,-107.99"/>
<polygon fill="black" stroke="black" points="1111.45,-111.2 1119.72,-104.57 1109.13,-104.6 1111.45,-111.2"/>
</g>
<!-- ast.Name object at 0x7f27da50b220 -->
<g id="node27" class="node">
<title>ast.Name object at 0x7f27da50b220</title>
<path fill="#66cdaa" stroke="black" d="M1234,-108C1234,-108 1204,-108 1204,-108 1198,-108 1192,-102 1192,-96 1192,-96 1192,-84 1192,-84 1192,-78 1198,-72 1204,-72 1204,-72 1234,-72 1234,-72 1240,-72 1246,-78 1246,-84 1246,-84 1246,-96 1246,-96 1246,-102 1240,-108 1234,-108"/>
<text text-anchor="middle" x="1219" y="-86.3" font-family="Times,serif" font-size="14.00">Name</text>
</g>
<!-- ast.List object at 0x7f27d8eb2110&#45;&gt;ast.Name object at 0x7f27da50b220 -->
<g id="edge34" class="edge">
<title>ast.List object at 0x7f27d8eb2110&#45;&gt;ast.Name object at 0x7f27da50b220</title>
<path fill="none" stroke="black" d="M922.17,-158.37C972.32,-153.02 1082.66,-138.92 1182.19,-107.81"/>
<polygon fill="black" stroke="black" points="1183.32,-111.12 1191.78,-104.75 1181.19,-104.46 1183.32,-111.12"/>
</g>
<!-- ast.Name object at 0x7f27d8eb2b90&#45;&gt;ast.Load object at 0x7f27e72f1f60 -->
<g id="edge21" class="edge">
<title>ast.Name object at 0x7f27d8eb2b90&#45;&gt;ast.Load object at 0x7f27e72f1f60</title>
<path fill="none" stroke="black" d="M741.42,-71.88C755.41,-62.81 772.78,-51.55 787.89,-41.76"/>
<polygon fill="black" stroke="black" points="789.99,-44.57 796.48,-36.19 786.18,-38.69 789.99,-44.57"/>
</g>
<!-- ast.Name object at 0x7f27d8eb1780&#45;&gt;ast.Load object at 0x7f27e72f1f60 -->
<g id="edge23" class="edge">
<title>ast.Name object at 0x7f27d8eb1780&#45;&gt;ast.Load object at 0x7f27e72f1f60</title>
<path fill="none" stroke="black" d="M795.9,-71.7C800,-63.73 804.95,-54.1 809.49,-45.26"/>
<polygon fill="black" stroke="black" points="812.74,-46.6 814.2,-36.1 806.52,-43.4 812.74,-46.6"/>
</g>
<!-- ast.Name object at 0x7f27d8eb0040&#45;&gt;ast.Load object at 0x7f27e72f1f60 -->
<g id="edge25" class="edge">
<title>ast.Name object at 0x7f27d8eb0040&#45;&gt;ast.Load object at 0x7f27e72f1f60</title>
<path fill="none" stroke="black" d="M850.1,-71.7C846,-63.73 841.05,-54.1 836.51,-45.26"/>
<polygon fill="black" stroke="black" points="839.48,-43.4 831.8,-36.1 833.26,-46.6 839.48,-43.4"/>
</g>
<!-- ast.Name object at 0x7f27d90de3e0&#45;&gt;ast.Load object at 0x7f27e72f1f60 -->
<g id="edge27" class="edge">
<title>ast.Name object at 0x7f27d90de3e0&#45;&gt;ast.Load object at 0x7f27e72f1f60</title>
<path fill="none" stroke="black" d="M904.58,-71.88C890.59,-62.81 873.22,-51.55 858.11,-41.76"/>
<polygon fill="black" stroke="black" points="859.82,-38.69 849.52,-36.19 856.01,-44.57 859.82,-38.69"/>
</g>
<!-- ast.Name object at 0x7f27da509cf0&#45;&gt;ast.Load object at 0x7f27e72f1f60 -->
<g id="edge29" class="edge">
<title>ast.Name object at 0x7f27da509cf0&#45;&gt;ast.Load object at 0x7f27e72f1f60</title>
<path fill="none" stroke="black" d="M975.99,-75.93C972.97,-74.57 969.93,-73.23 967,-72 931.07,-56.94 889.19,-41.79 859.89,-31.57"/>
<polygon fill="black" stroke="black" points="860.68,-28.13 850.08,-28.16 858.38,-34.75 860.68,-28.13"/>
</g>
<!-- ast.Name object at 0x7f27da50aec0&#45;&gt;ast.Load object at 0x7f27e72f1f60 -->
<g id="edge31" class="edge">
<title>ast.Name object at 0x7f27da50aec0&#45;&gt;ast.Load object at 0x7f27e72f1f60</title>
<path fill="none" stroke="black" d="M1047.72,-75.43C1044.81,-74.19 1041.87,-73.02 1039,-72 977.68,-50.25 903.51,-34.17 859.97,-25.72"/>
<polygon fill="black" stroke="black" points="860.59,-22.28 850.11,-23.84 859.27,-29.15 860.59,-22.28"/>
</g>
<!-- ast.Name object at 0x7f27da509750&#45;&gt;ast.Load object at 0x7f27e72f1f60 -->
<g id="edge33" class="edge">
<title>ast.Name object at 0x7f27da509750&#45;&gt;ast.Load object at 0x7f27e72f1f60</title>
<path fill="none" stroke="black" d="M1119.78,-75.25C1116.86,-74.05 1113.89,-72.93 1111,-72 1023.49,-43.81 915.89,-29 860.26,-22.73"/>
<polygon fill="black" stroke="black" points="860.5,-19.24 850.17,-21.63 859.73,-26.2 860.5,-19.24"/>
</g>
<!-- ast.Name object at 0x7f27da50b220&#45;&gt;ast.Load object at 0x7f27e72f1f60 -->
<g id="edge35" class="edge">
<title>ast.Name object at 0x7f27da50b220&#45;&gt;ast.Load object at 0x7f27e72f1f60</title>
<path fill="none" stroke="black" d="M1191.81,-75.15C1188.88,-73.96 1185.91,-72.88 1183,-72 1068.73,-37.44 926.99,-25.02 860.61,-20.89"/>
<polygon fill="black" stroke="black" points="860.43,-17.37 850.24,-20.27 860.01,-24.36 860.43,-17.37"/>
</g>
</g>
</svg>
