<?xml version="1.0" encoding="UTF-8" standalone="no"?>
<!DOCTYPE svg PUBLIC "-//W3C//DTD SVG 1.1//EN"
 "http://www.w3.org/Graphics/SVG/1.1/DTD/svg11.dtd">
<!-- Generated by graphviz version 2.43.0 (0)
 -->
<!-- Title: %3 Pages: 1 -->
<svg width="502pt" height="620pt"
 viewBox="0.00 0.00 502.00 620.00" xmlns="http://www.w3.org/2000/svg" xmlns:xlink="http://www.w3.org/1999/xlink">
<g id="graph0" class="graph" transform="scale(1 1) rotate(0) translate(4 616)">
<title>%3</title>
<polygon fill="white" stroke="transparent" points="-4,4 -4,-616 498,-616 498,4 -4,4"/>
<!-- ast.Module object at 0x7f64473c9930 -->
<g id="node1" class="node">
<title>ast.Module object at 0x7f64473c9930</title>
<path fill="#66cdaa" stroke="black" d="M301.5,-612C301.5,-612 266.5,-612 266.5,-612 260.5,-612 254.5,-606 254.5,-600 254.5,-600 254.5,-588 254.5,-588 254.5,-582 260.5,-576 266.5,-576 266.5,-576 301.5,-576 301.5,-576 307.5,-576 313.5,-582 313.5,-588 313.5,-588 313.5,-600 313.5,-600 313.5,-606 307.5,-612 301.5,-612"/>
<text text-anchor="middle" x="284" y="-590.3" font-family="Times,serif" font-size="14.00">Module</text>
</g>
<!-- ast.FunctionDef object at 0x7f6448c8e830 -->
<g id="node2" class="node">
<title>ast.FunctionDef object at 0x7f6448c8e830</title>
<path fill="#66cdaa" stroke="black" d="M314.5,-540C314.5,-540 253.5,-540 253.5,-540 247.5,-540 241.5,-534 241.5,-528 241.5,-528 241.5,-516 241.5,-516 241.5,-510 247.5,-504 253.5,-504 253.5,-504 314.5,-504 314.5,-504 320.5,-504 326.5,-510 326.5,-516 326.5,-516 326.5,-528 326.5,-528 326.5,-534 320.5,-540 314.5,-540"/>
<text text-anchor="middle" x="284" y="-518.3" font-family="Times,serif" font-size="14.00">FunctionDef</text>
</g>
<!-- ast.Module object at 0x7f64473c9930&#45;&gt;ast.FunctionDef object at 0x7f6448c8e830 -->
<g id="edge1" class="edge">
<title>ast.Module object at 0x7f64473c9930&#45;&gt;ast.FunctionDef object at 0x7f6448c8e830</title>
<path fill="none" stroke="black" d="M284,-575.7C284,-567.98 284,-558.71 284,-550.11"/>
<polygon fill="black" stroke="black" points="287.5,-550.1 284,-540.1 280.5,-550.1 287.5,-550.1"/>
</g>
<!-- ast.arguments object at 0x7f6448c8f400 -->
<g id="node3" class="node">
<title>ast.arguments object at 0x7f6448c8f400</title>
<path fill="#66cdaa" stroke="black" d="M210,-468C210,-468 160,-468 160,-468 154,-468 148,-462 148,-456 148,-456 148,-444 148,-444 148,-438 154,-432 160,-432 160,-432 210,-432 210,-432 216,-432 222,-438 222,-444 222,-444 222,-456 222,-456 222,-462 216,-468 210,-468"/>
<text text-anchor="middle" x="185" y="-446.3" font-family="Times,serif" font-size="14.00">arguments</text>
</g>
<!-- ast.FunctionDef object at 0x7f6448c8e830&#45;&gt;ast.arguments object at 0x7f6448c8f400 -->
<g id="edge2" class="edge">
<title>ast.FunctionDef object at 0x7f6448c8e830&#45;&gt;ast.arguments object at 0x7f6448c8f400</title>
<path fill="none" stroke="black" d="M259.78,-503.88C247.08,-494.89 231.34,-483.76 217.58,-474.03"/>
<polygon fill="black" stroke="black" points="219.5,-471.11 209.31,-468.19 215.46,-476.82 219.5,-471.11"/>
</g>
<!-- ast.Assign object at 0x7f6448c8f370 -->
<g id="node5" class="node">
<title>ast.Assign object at 0x7f6448c8f370</title>
<path fill="#66cdaa" stroke="black" d="M299,-468C299,-468 269,-468 269,-468 263,-468 257,-462 257,-456 257,-456 257,-444 257,-444 257,-438 263,-432 269,-432 269,-432 299,-432 299,-432 305,-432 311,-438 311,-444 311,-444 311,-456 311,-456 311,-462 305,-468 299,-468"/>
<text text-anchor="middle" x="284" y="-446.3" font-family="Times,serif" font-size="14.00">Assign</text>
</g>
<!-- ast.FunctionDef object at 0x7f6448c8e830&#45;&gt;ast.Assign object at 0x7f6448c8f370 -->
<g id="edge4" class="edge">
<title>ast.FunctionDef object at 0x7f6448c8e830&#45;&gt;ast.Assign object at 0x7f6448c8f370</title>
<path fill="none" stroke="black" d="M284,-503.7C284,-495.98 284,-486.71 284,-478.11"/>
<polygon fill="black" stroke="black" points="287.5,-478.1 284,-468.1 280.5,-478.1 287.5,-478.1"/>
</g>
<!-- ast.Return object at 0x7f6460e401c0 -->
<g id="node21" class="node">
<title>ast.Return object at 0x7f6460e401c0</title>
<path fill="#66cdaa" stroke="black" d="M407,-468C407,-468 377,-468 377,-468 371,-468 365,-462 365,-456 365,-456 365,-444 365,-444 365,-438 371,-432 377,-432 377,-432 407,-432 407,-432 413,-432 419,-438 419,-444 419,-444 419,-456 419,-456 419,-462 413,-468 407,-468"/>
<text text-anchor="middle" x="392" y="-446.3" font-family="Times,serif" font-size="14.00">Return</text>
</g>
<!-- ast.FunctionDef object at 0x7f6448c8e830&#45;&gt;ast.Return object at 0x7f6460e401c0 -->
<g id="edge25" class="edge">
<title>ast.FunctionDef object at 0x7f6448c8e830&#45;&gt;ast.Return object at 0x7f6460e401c0</title>
<path fill="none" stroke="black" d="M310.42,-503.88C324.41,-494.81 341.78,-483.55 356.89,-473.76"/>
<polygon fill="black" stroke="black" points="358.99,-476.57 365.48,-468.19 355.18,-470.69 358.99,-476.57"/>
</g>
<!-- ast.arg object at 0x7f6448c8ea10 -->
<g id="node4" class="node">
<title>ast.arg object at 0x7f6448c8ea10</title>
<path fill="#66cdaa" stroke="black" d="M166,-396C166,-396 136,-396 136,-396 130,-396 124,-390 124,-384 124,-384 124,-372 124,-372 124,-366 130,-360 136,-360 136,-360 166,-360 166,-360 172,-360 178,-366 178,-372 178,-372 178,-384 178,-384 178,-390 172,-396 166,-396"/>
<text text-anchor="middle" x="151" y="-374.3" font-family="Times,serif" font-size="14.00">arg</text>
</g>
<!-- ast.arguments object at 0x7f6448c8f400&#45;&gt;ast.arg object at 0x7f6448c8ea10 -->
<g id="edge3" class="edge">
<title>ast.arguments object at 0x7f6448c8f400&#45;&gt;ast.arg object at 0x7f6448c8ea10</title>
<path fill="none" stroke="black" d="M176.6,-431.7C172.73,-423.73 168.05,-414.1 163.76,-405.26"/>
<polygon fill="black" stroke="black" points="166.83,-403.57 159.31,-396.1 160.53,-406.63 166.83,-403.57"/>
</g>
<!-- ast.Name object at 0x7f6448c8f7f0 -->
<g id="node6" class="node">
<title>ast.Name object at 0x7f6448c8f7f0</title>
<path fill="#66cdaa" stroke="black" d="M238,-396C238,-396 208,-396 208,-396 202,-396 196,-390 196,-384 196,-384 196,-372 196,-372 196,-366 202,-360 208,-360 208,-360 238,-360 238,-360 244,-360 250,-366 250,-372 250,-372 250,-384 250,-384 250,-390 244,-396 238,-396"/>
<text text-anchor="middle" x="223" y="-374.3" font-family="Times,serif" font-size="14.00">Name</text>
</g>
<!-- ast.Assign object at 0x7f6448c8f370&#45;&gt;ast.Name object at 0x7f6448c8f7f0 -->
<g id="edge5" class="edge">
<title>ast.Assign object at 0x7f6448c8f370&#45;&gt;ast.Name object at 0x7f6448c8f7f0</title>
<path fill="none" stroke="black" d="M268.92,-431.7C261.61,-423.3 252.69,-413.07 244.66,-403.86"/>
<polygon fill="black" stroke="black" points="247.11,-401.34 237.91,-396.1 241.84,-405.94 247.11,-401.34"/>
</g>
<!-- ast.Subscript object at 0x7f6448c8e3b0 -->
<g id="node8" class="node">
<title>ast.Subscript object at 0x7f6448c8e3b0</title>
<path fill="#66cdaa" stroke="black" d="M324,-396C324,-396 280,-396 280,-396 274,-396 268,-390 268,-384 268,-384 268,-372 268,-372 268,-366 274,-360 280,-360 280,-360 324,-360 324,-360 330,-360 336,-366 336,-372 336,-372 336,-384 336,-384 336,-390 330,-396 324,-396"/>
<text text-anchor="middle" x="302" y="-374.3" font-family="Times,serif" font-size="14.00">Subscript</text>
</g>
<!-- ast.Assign object at 0x7f6448c8f370&#45;&gt;ast.Subscript object at 0x7f6448c8e3b0 -->
<g id="edge7" class="edge">
<title>ast.Assign object at 0x7f6448c8f370&#45;&gt;ast.Subscript object at 0x7f6448c8e3b0</title>
<path fill="none" stroke="black" d="M288.45,-431.7C290.45,-423.9 292.87,-414.51 295.1,-405.83"/>
<polygon fill="black" stroke="black" points="298.5,-406.66 297.6,-396.1 291.72,-404.92 298.5,-406.66"/>
</g>
<!-- ast.Store object at 0x7f64909edfc0 -->
<g id="node7" class="node">
<title>ast.Store object at 0x7f64909edfc0</title>
<path fill="#66cdaa" stroke="black" d="M185,-324C185,-324 155,-324 155,-324 149,-324 143,-318 143,-312 143,-312 143,-300 143,-300 143,-294 149,-288 155,-288 155,-288 185,-288 185,-288 191,-288 197,-294 197,-300 197,-300 197,-312 197,-312 197,-318 191,-324 185,-324"/>
<text text-anchor="middle" x="170" y="-302.3" font-family="Times,serif" font-size="14.00">Store</text>
</g>
<!-- ast.Name object at 0x7f6448c8f7f0&#45;&gt;ast.Store object at 0x7f64909edfc0 -->
<g id="edge6" class="edge">
<title>ast.Name object at 0x7f6448c8f7f0&#45;&gt;ast.Store object at 0x7f64909edfc0</title>
<path fill="none" stroke="black" d="M209.9,-359.7C203.61,-351.39 195.95,-341.28 189.04,-332.14"/>
<polygon fill="black" stroke="black" points="191.78,-329.96 182.95,-324.1 186.2,-334.19 191.78,-329.96"/>
</g>
<!-- ast.Call object at 0x7f6448c8ef50 -->
<g id="node9" class="node">
<title>ast.Call object at 0x7f6448c8ef50</title>
<path fill="#66cdaa" stroke="black" d="M257,-324C257,-324 227,-324 227,-324 221,-324 215,-318 215,-312 215,-312 215,-300 215,-300 215,-294 221,-288 227,-288 227,-288 257,-288 257,-288 263,-288 269,-294 269,-300 269,-300 269,-312 269,-312 269,-318 263,-324 257,-324"/>
<text text-anchor="middle" x="242" y="-302.3" font-family="Times,serif" font-size="14.00">Call</text>
</g>
<!-- ast.Subscript object at 0x7f6448c8e3b0&#45;&gt;ast.Call object at 0x7f6448c8ef50 -->
<g id="edge8" class="edge">
<title>ast.Subscript object at 0x7f6448c8e3b0&#45;&gt;ast.Call object at 0x7f6448c8ef50</title>
<path fill="none" stroke="black" d="M287.17,-359.7C279.98,-351.3 271.2,-341.07 263.31,-331.86"/>
<polygon fill="black" stroke="black" points="265.83,-329.42 256.66,-324.1 260.51,-333.97 265.83,-329.42"/>
</g>
<!-- ast.Load object at 0x7f64909edf60 -->
<g id="node11" class="node">
<title>ast.Load object at 0x7f64909edf60</title>
<path fill="#66cdaa" stroke="black" d="M279,-36C279,-36 249,-36 249,-36 243,-36 237,-30 237,-24 237,-24 237,-12 237,-12 237,-6 243,0 249,0 249,0 279,0 279,0 285,0 291,-6 291,-12 291,-12 291,-24 291,-24 291,-30 285,-36 279,-36"/>
<text text-anchor="middle" x="264" y="-14.3" font-family="Times,serif" font-size="14.00">Load</text>
</g>
<!-- ast.Subscript object at 0x7f6448c8e3b0&#45;&gt;ast.Load object at 0x7f64909edf60 -->
<g id="edge24" class="edge">
<title>ast.Subscript object at 0x7f6448c8e3b0&#45;&gt;ast.Load object at 0x7f64909edf60</title>
<path fill="none" stroke="black" d="M302,-359.95C302,-333.29 302,-280.11 302,-235 302,-235 302,-235 302,-161 302,-119.63 286.77,-73.72 275.59,-45.61"/>
<polygon fill="black" stroke="black" points="278.72,-44.02 271.69,-36.09 272.24,-46.67 278.72,-44.02"/>
</g>
<!-- ast.Slice object at 0x7f6460e43070 -->
<g id="node19" class="node">
<title>ast.Slice object at 0x7f6460e43070</title>
<path fill="#66cdaa" stroke="black" d="M375,-324C375,-324 345,-324 345,-324 339,-324 333,-318 333,-312 333,-312 333,-300 333,-300 333,-294 339,-288 345,-288 345,-288 375,-288 375,-288 381,-288 387,-294 387,-300 387,-300 387,-312 387,-312 387,-318 381,-324 375,-324"/>
<text text-anchor="middle" x="360" y="-302.3" font-family="Times,serif" font-size="14.00">Slice</text>
</g>
<!-- ast.Subscript object at 0x7f6448c8e3b0&#45;&gt;ast.Slice object at 0x7f6460e43070 -->
<g id="edge22" class="edge">
<title>ast.Subscript object at 0x7f6448c8e3b0&#45;&gt;ast.Slice object at 0x7f6460e43070</title>
<path fill="none" stroke="black" d="M316.34,-359.7C323.29,-351.3 331.77,-341.07 339.4,-331.86"/>
<polygon fill="black" stroke="black" points="342.14,-334.04 345.83,-324.1 336.75,-329.57 342.14,-334.04"/>
</g>
<!-- ast.Name object at 0x7f6448c8c310 -->
<g id="node10" class="node">
<title>ast.Name object at 0x7f6448c8c310</title>
<path fill="#66cdaa" stroke="black" d="M42,-108C42,-108 12,-108 12,-108 6,-108 0,-102 0,-96 0,-96 0,-84 0,-84 0,-78 6,-72 12,-72 12,-72 42,-72 42,-72 48,-72 54,-78 54,-84 54,-84 54,-96 54,-96 54,-102 48,-108 42,-108"/>
<text text-anchor="middle" x="27" y="-86.3" font-family="Times,serif" font-size="14.00">Name</text>
</g>
<!-- ast.Call object at 0x7f6448c8ef50&#45;&gt;ast.Name object at 0x7f6448c8c310 -->
<g id="edge9" class="edge">
<title>ast.Call object at 0x7f6448c8ef50&#45;&gt;ast.Name object at 0x7f6448c8c310</title>
<path fill="none" stroke="black" d="M214.91,-292.11C211.91,-290.71 208.89,-289.32 206,-288 129.59,-253.19 93.29,-252.53 51,-180 39.88,-160.93 33.78,-136.57 30.51,-118.16"/>
<polygon fill="black" stroke="black" points="33.94,-117.42 28.9,-108.1 27.02,-118.52 33.94,-117.42"/>
</g>
<!-- ast.Call object at 0x7f6448c8fd30 -->
<g id="node12" class="node">
<title>ast.Call object at 0x7f6448c8fd30</title>
<path fill="#66cdaa" stroke="black" d="M175,-252C175,-252 145,-252 145,-252 139,-252 133,-246 133,-240 133,-240 133,-228 133,-228 133,-222 139,-216 145,-216 145,-216 175,-216 175,-216 181,-216 187,-222 187,-228 187,-228 187,-240 187,-240 187,-246 181,-252 175,-252"/>
<text text-anchor="middle" x="160" y="-230.3" font-family="Times,serif" font-size="14.00">Call</text>
</g>
<!-- ast.Call object at 0x7f6448c8ef50&#45;&gt;ast.Call object at 0x7f6448c8fd30 -->
<g id="edge11" class="edge">
<title>ast.Call object at 0x7f6448c8ef50&#45;&gt;ast.Call object at 0x7f6448c8fd30</title>
<path fill="none" stroke="black" d="M221.73,-287.7C211.5,-278.97 198.94,-268.24 187.82,-258.75"/>
<polygon fill="black" stroke="black" points="189.91,-255.94 180.04,-252.1 185.37,-261.26 189.91,-255.94"/>
</g>
<!-- ast.keyword object at 0x7f6460e43910 -->
<g id="node17" class="node">
<title>ast.keyword object at 0x7f6460e43910</title>
<path fill="#66cdaa" stroke="black" d="M262,-252C262,-252 222,-252 222,-252 216,-252 210,-246 210,-240 210,-240 210,-228 210,-228 210,-222 216,-216 222,-216 222,-216 262,-216 262,-216 268,-216 274,-222 274,-228 274,-228 274,-240 274,-240 274,-246 268,-252 262,-252"/>
<text text-anchor="middle" x="242" y="-230.3" font-family="Times,serif" font-size="14.00">keyword</text>
</g>
<!-- ast.Call object at 0x7f6448c8ef50&#45;&gt;ast.keyword object at 0x7f6460e43910 -->
<g id="edge19" class="edge">
<title>ast.Call object at 0x7f6448c8ef50&#45;&gt;ast.keyword object at 0x7f6460e43910</title>
<path fill="none" stroke="black" d="M242,-287.7C242,-279.98 242,-270.71 242,-262.11"/>
<polygon fill="black" stroke="black" points="245.5,-262.1 242,-252.1 238.5,-262.1 245.5,-262.1"/>
</g>
<!-- ast.Name object at 0x7f6448c8c310&#45;&gt;ast.Load object at 0x7f64909edf60 -->
<g id="edge10" class="edge">
<title>ast.Name object at 0x7f6448c8c310&#45;&gt;ast.Load object at 0x7f64909edf60</title>
<path fill="none" stroke="black" d="M54.16,-77.16C58.74,-75.33 63.48,-73.54 68,-72 122.48,-53.43 187.2,-36.98 226.93,-27.51"/>
<polygon fill="black" stroke="black" points="227.79,-30.9 236.72,-25.2 226.18,-24.09 227.79,-30.9"/>
</g>
<!-- ast.Name object at 0x7f6448c8f490 -->
<g id="node13" class="node">
<title>ast.Name object at 0x7f6448c8f490</title>
<path fill="#66cdaa" stroke="black" d="M102,-180C102,-180 72,-180 72,-180 66,-180 60,-174 60,-168 60,-168 60,-156 60,-156 60,-150 66,-144 72,-144 72,-144 102,-144 102,-144 108,-144 114,-150 114,-156 114,-156 114,-168 114,-168 114,-174 108,-180 102,-180"/>
<text text-anchor="middle" x="87" y="-158.3" font-family="Times,serif" font-size="14.00">Name</text>
</g>
<!-- ast.Call object at 0x7f6448c8fd30&#45;&gt;ast.Name object at 0x7f6448c8f490 -->
<g id="edge12" class="edge">
<title>ast.Call object at 0x7f6448c8fd30&#45;&gt;ast.Name object at 0x7f6448c8f490</title>
<path fill="none" stroke="black" d="M141.96,-215.7C132.94,-207.05 121.88,-196.45 112.06,-187.03"/>
<polygon fill="black" stroke="black" points="114.48,-184.5 104.84,-180.1 109.63,-189.55 114.48,-184.5"/>
</g>
<!-- ast.Call object at 0x7f6448c8f190 -->
<g id="node14" class="node">
<title>ast.Call object at 0x7f6448c8f190</title>
<path fill="#66cdaa" stroke="black" d="M175,-180C175,-180 145,-180 145,-180 139,-180 133,-174 133,-168 133,-168 133,-156 133,-156 133,-150 139,-144 145,-144 145,-144 175,-144 175,-144 181,-144 187,-150 187,-156 187,-156 187,-168 187,-168 187,-174 181,-180 175,-180"/>
<text text-anchor="middle" x="160" y="-158.3" font-family="Times,serif" font-size="14.00">Call</text>
</g>
<!-- ast.Call object at 0x7f6448c8fd30&#45;&gt;ast.Call object at 0x7f6448c8f190 -->
<g id="edge14" class="edge">
<title>ast.Call object at 0x7f6448c8fd30&#45;&gt;ast.Call object at 0x7f6448c8f190</title>
<path fill="none" stroke="black" d="M160,-215.7C160,-207.98 160,-198.71 160,-190.11"/>
<polygon fill="black" stroke="black" points="163.5,-190.1 160,-180.1 156.5,-190.1 163.5,-190.1"/>
</g>
<!-- ast.Name object at 0x7f6448c8f490&#45;&gt;ast.Load object at 0x7f64909edf60 -->
<g id="edge13" class="edge">
<title>ast.Name object at 0x7f6448c8f490&#45;&gt;ast.Load object at 0x7f64909edf60</title>
<path fill="none" stroke="black" d="M84.78,-143.77C83.25,-124.07 83.95,-91.99 101,-72 132.24,-35.37 189.1,-23.87 226.72,-20.37"/>
<polygon fill="black" stroke="black" points="227.08,-23.85 236.78,-19.58 226.53,-16.87 227.08,-23.85"/>
</g>
<!-- ast.Name object at 0x7f6448c8f550 -->
<g id="node15" class="node">
<title>ast.Name object at 0x7f6448c8f550</title>
<path fill="#66cdaa" stroke="black" d="M152,-108C152,-108 122,-108 122,-108 116,-108 110,-102 110,-96 110,-96 110,-84 110,-84 110,-78 116,-72 122,-72 122,-72 152,-72 152,-72 158,-72 164,-78 164,-84 164,-84 164,-96 164,-96 164,-102 158,-108 152,-108"/>
<text text-anchor="middle" x="137" y="-86.3" font-family="Times,serif" font-size="14.00">Name</text>
</g>
<!-- ast.Call object at 0x7f6448c8f190&#45;&gt;ast.Name object at 0x7f6448c8f550 -->
<g id="edge15" class="edge">
<title>ast.Call object at 0x7f6448c8f190&#45;&gt;ast.Name object at 0x7f6448c8f550</title>
<path fill="none" stroke="black" d="M154.31,-143.7C151.75,-135.9 148.67,-126.51 145.82,-117.83"/>
<polygon fill="black" stroke="black" points="149.07,-116.51 142.62,-108.1 142.42,-118.7 149.07,-116.51"/>
</g>
<!-- ast.Name object at 0x7f6448c8c3d0 -->
<g id="node16" class="node">
<title>ast.Name object at 0x7f6448c8c3d0</title>
<path fill="#66cdaa" stroke="black" d="M224,-108C224,-108 194,-108 194,-108 188,-108 182,-102 182,-96 182,-96 182,-84 182,-84 182,-78 188,-72 194,-72 194,-72 224,-72 224,-72 230,-72 236,-78 236,-84 236,-84 236,-96 236,-96 236,-102 230,-108 224,-108"/>
<text text-anchor="middle" x="209" y="-86.3" font-family="Times,serif" font-size="14.00">Name</text>
</g>
<!-- ast.Call object at 0x7f6448c8f190&#45;&gt;ast.Name object at 0x7f6448c8c3d0 -->
<g id="edge17" class="edge">
<title>ast.Call object at 0x7f6448c8f190&#45;&gt;ast.Name object at 0x7f6448c8c3d0</title>
<path fill="none" stroke="black" d="M172.11,-143.7C177.87,-135.47 184.86,-125.48 191.21,-116.42"/>
<polygon fill="black" stroke="black" points="194.16,-118.3 197.03,-108.1 188.42,-114.29 194.16,-118.3"/>
</g>
<!-- ast.Name object at 0x7f6448c8f550&#45;&gt;ast.Load object at 0x7f64909edf60 -->
<g id="edge16" class="edge">
<title>ast.Name object at 0x7f6448c8f550&#45;&gt;ast.Load object at 0x7f64909edf60</title>
<path fill="none" stroke="black" d="M164.24,-73.98C182.83,-63.74 207.64,-50.07 227.87,-38.92"/>
<polygon fill="black" stroke="black" points="229.73,-41.88 236.8,-33.99 226.35,-35.75 229.73,-41.88"/>
</g>
<!-- ast.Name object at 0x7f6448c8c3d0&#45;&gt;ast.Load object at 0x7f64909edf60 -->
<g id="edge18" class="edge">
<title>ast.Name object at 0x7f6448c8c3d0&#45;&gt;ast.Load object at 0x7f64909edf60</title>
<path fill="none" stroke="black" d="M222.6,-71.7C229.12,-63.39 237.07,-53.28 244.25,-44.14"/>
<polygon fill="black" stroke="black" points="247.13,-46.13 250.56,-36.1 241.63,-41.81 247.13,-46.13"/>
</g>
<!-- ast.Name object at 0x7f6460e425f0 -->
<g id="node18" class="node">
<title>ast.Name object at 0x7f6460e425f0</title>
<path fill="#66cdaa" stroke="black" d="M260,-180C260,-180 230,-180 230,-180 224,-180 218,-174 218,-168 218,-168 218,-156 218,-156 218,-150 224,-144 230,-144 230,-144 260,-144 260,-144 266,-144 272,-150 272,-156 272,-156 272,-168 272,-168 272,-174 266,-180 260,-180"/>
<text text-anchor="middle" x="245" y="-158.3" font-family="Times,serif" font-size="14.00">Name</text>
</g>
<!-- ast.keyword object at 0x7f6460e43910&#45;&gt;ast.Name object at 0x7f6460e425f0 -->
<g id="edge20" class="edge">
<title>ast.keyword object at 0x7f6460e43910&#45;&gt;ast.Name object at 0x7f6460e425f0</title>
<path fill="none" stroke="black" d="M242.74,-215.7C243.07,-207.98 243.47,-198.71 243.84,-190.11"/>
<polygon fill="black" stroke="black" points="247.34,-190.25 244.27,-180.1 240.34,-189.95 247.34,-190.25"/>
</g>
<!-- ast.Name object at 0x7f6460e425f0&#45;&gt;ast.Load object at 0x7f64909edf60 -->
<g id="edge21" class="edge">
<title>ast.Name object at 0x7f6460e425f0&#45;&gt;ast.Load object at 0x7f64909edf60</title>
<path fill="none" stroke="black" d="M247.29,-143.87C250.53,-119.67 256.48,-75.21 260.33,-46.39"/>
<polygon fill="black" stroke="black" points="263.84,-46.57 261.7,-36.19 256.9,-45.64 263.84,-46.57"/>
</g>
<!-- ast.Constant object at 0x7f6460e43af0 -->
<g id="node20" class="node">
<title>ast.Constant object at 0x7f6460e43af0</title>
<path fill="#66cdaa" stroke="black" d="M383.5,-252C383.5,-252 342.5,-252 342.5,-252 336.5,-252 330.5,-246 330.5,-240 330.5,-240 330.5,-228 330.5,-228 330.5,-222 336.5,-216 342.5,-216 342.5,-216 383.5,-216 383.5,-216 389.5,-216 395.5,-222 395.5,-228 395.5,-228 395.5,-240 395.5,-240 395.5,-246 389.5,-252 383.5,-252"/>
<text text-anchor="middle" x="363" y="-230.3" font-family="Times,serif" font-size="14.00">Constant</text>
</g>
<!-- ast.Slice object at 0x7f6460e43070&#45;&gt;ast.Constant object at 0x7f6460e43af0 -->
<g id="edge23" class="edge">
<title>ast.Slice object at 0x7f6460e43070&#45;&gt;ast.Constant object at 0x7f6460e43af0</title>
<path fill="none" stroke="black" d="M360.74,-287.7C361.07,-279.98 361.47,-270.71 361.84,-262.11"/>
<polygon fill="black" stroke="black" points="365.34,-262.25 362.27,-252.1 358.34,-261.95 365.34,-262.25"/>
</g>
<!-- ast.Call object at 0x7f6460e43730 -->
<g id="node22" class="node">
<title>ast.Call object at 0x7f6460e43730</title>
<path fill="#66cdaa" stroke="black" d="M456,-252C456,-252 426,-252 426,-252 420,-252 414,-246 414,-240 414,-240 414,-228 414,-228 414,-222 420,-216 426,-216 426,-216 456,-216 456,-216 462,-216 468,-222 468,-228 468,-228 468,-240 468,-240 468,-246 462,-252 456,-252"/>
<text text-anchor="middle" x="441" y="-230.3" font-family="Times,serif" font-size="14.00">Call</text>
</g>
<!-- ast.Return object at 0x7f6460e401c0&#45;&gt;ast.Call object at 0x7f6460e43730 -->
<g id="edge26" class="edge">
<title>ast.Return object at 0x7f6460e401c0&#45;&gt;ast.Call object at 0x7f6460e43730</title>
<path fill="none" stroke="black" d="M395.93,-431.85C404.42,-394.75 424.56,-306.81 434.79,-262.1"/>
<polygon fill="black" stroke="black" points="438.23,-262.76 437.05,-252.23 431.41,-261.2 438.23,-262.76"/>
</g>
<!-- ast.Name object at 0x7f6460e411b0 -->
<g id="node23" class="node">
<title>ast.Name object at 0x7f6460e411b0</title>
<path fill="#66cdaa" stroke="black" d="M378,-180C378,-180 348,-180 348,-180 342,-180 336,-174 336,-168 336,-168 336,-156 336,-156 336,-150 342,-144 348,-144 348,-144 378,-144 378,-144 384,-144 390,-150 390,-156 390,-156 390,-168 390,-168 390,-174 384,-180 378,-180"/>
<text text-anchor="middle" x="363" y="-158.3" font-family="Times,serif" font-size="14.00">Name</text>
</g>
<!-- ast.Call object at 0x7f6460e43730&#45;&gt;ast.Name object at 0x7f6460e411b0 -->
<g id="edge27" class="edge">
<title>ast.Call object at 0x7f6460e43730&#45;&gt;ast.Name object at 0x7f6460e411b0</title>
<path fill="none" stroke="black" d="M421.72,-215.7C412.08,-207.05 400.27,-196.45 389.77,-187.03"/>
<polygon fill="black" stroke="black" points="391.84,-184.18 382.06,-180.1 387.16,-189.39 391.84,-184.18"/>
</g>
<!-- ast.Call object at 0x7f6460e429b0 -->
<g id="node24" class="node">
<title>ast.Call object at 0x7f6460e429b0</title>
<path fill="#66cdaa" stroke="black" d="M456,-180C456,-180 426,-180 426,-180 420,-180 414,-174 414,-168 414,-168 414,-156 414,-156 414,-150 420,-144 426,-144 426,-144 456,-144 456,-144 462,-144 468,-150 468,-156 468,-156 468,-168 468,-168 468,-174 462,-180 456,-180"/>
<text text-anchor="middle" x="441" y="-158.3" font-family="Times,serif" font-size="14.00">Call</text>
</g>
<!-- ast.Call object at 0x7f6460e43730&#45;&gt;ast.Call object at 0x7f6460e429b0 -->
<g id="edge29" class="edge">
<title>ast.Call object at 0x7f6460e43730&#45;&gt;ast.Call object at 0x7f6460e429b0</title>
<path fill="none" stroke="black" d="M441,-215.7C441,-207.98 441,-198.71 441,-190.11"/>
<polygon fill="black" stroke="black" points="444.5,-190.1 441,-180.1 437.5,-190.1 444.5,-190.1"/>
</g>
<!-- ast.Name object at 0x7f6460e411b0&#45;&gt;ast.Load object at 0x7f64909edf60 -->
<g id="edge28" class="edge">
<title>ast.Name object at 0x7f6460e411b0&#45;&gt;ast.Load object at 0x7f64909edf60</title>
<path fill="none" stroke="black" d="M355.7,-143.74C347.44,-125.16 332.9,-95.14 316,-72 308.65,-61.94 299.43,-51.91 290.81,-43.34"/>
<polygon fill="black" stroke="black" points="293.07,-40.65 283.45,-36.21 288.2,-45.68 293.07,-40.65"/>
</g>
<!-- ast.Name object at 0x7f6460e42d10 -->
<g id="node25" class="node">
<title>ast.Name object at 0x7f6460e42d10</title>
<path fill="#66cdaa" stroke="black" d="M410,-108C410,-108 380,-108 380,-108 374,-108 368,-102 368,-96 368,-96 368,-84 368,-84 368,-78 374,-72 380,-72 380,-72 410,-72 410,-72 416,-72 422,-78 422,-84 422,-84 422,-96 422,-96 422,-102 416,-108 410,-108"/>
<text text-anchor="middle" x="395" y="-86.3" font-family="Times,serif" font-size="14.00">Name</text>
</g>
<!-- ast.Call object at 0x7f6460e429b0&#45;&gt;ast.Name object at 0x7f6460e42d10 -->
<g id="edge30" class="edge">
<title>ast.Call object at 0x7f6460e429b0&#45;&gt;ast.Name object at 0x7f6460e42d10</title>
<path fill="none" stroke="black" d="M429.63,-143.7C424.28,-135.56 417.8,-125.69 411.89,-116.7"/>
<polygon fill="black" stroke="black" points="414.66,-114.54 406.24,-108.1 408.81,-118.38 414.66,-114.54"/>
</g>
<!-- ast.Name object at 0x7f6460e43fd0 -->
<g id="node26" class="node">
<title>ast.Name object at 0x7f6460e43fd0</title>
<path fill="#66cdaa" stroke="black" d="M482,-108C482,-108 452,-108 452,-108 446,-108 440,-102 440,-96 440,-96 440,-84 440,-84 440,-78 446,-72 452,-72 452,-72 482,-72 482,-72 488,-72 494,-78 494,-84 494,-84 494,-96 494,-96 494,-102 488,-108 482,-108"/>
<text text-anchor="middle" x="467" y="-86.3" font-family="Times,serif" font-size="14.00">Name</text>
</g>
<!-- ast.Call object at 0x7f6460e429b0&#45;&gt;ast.Name object at 0x7f6460e43fd0 -->
<g id="edge32" class="edge">
<title>ast.Call object at 0x7f6460e429b0&#45;&gt;ast.Name object at 0x7f6460e43fd0</title>
<path fill="none" stroke="black" d="M447.43,-143.7C450.36,-135.81 453.89,-126.3 457.14,-117.55"/>
<polygon fill="black" stroke="black" points="460.45,-118.7 460.65,-108.1 453.88,-116.26 460.45,-118.7"/>
</g>
<!-- ast.Name object at 0x7f6460e42d10&#45;&gt;ast.Load object at 0x7f64909edf60 -->
<g id="edge31" class="edge">
<title>ast.Name object at 0x7f6460e42d10&#45;&gt;ast.Load object at 0x7f64909edf60</title>
<path fill="none" stroke="black" d="M367.86,-74.5C348.18,-63.98 321.38,-49.66 299.94,-38.2"/>
<polygon fill="black" stroke="black" points="301.58,-35.11 291.11,-33.49 298.28,-41.29 301.58,-35.11"/>
</g>
<!-- ast.Name object at 0x7f6460e43fd0&#45;&gt;ast.Load object at 0x7f64909edf60 -->
<g id="edge33" class="edge">
<title>ast.Name object at 0x7f6460e43fd0&#45;&gt;ast.Load object at 0x7f64909edf60</title>
<path fill="none" stroke="black" d="M439.65,-75.62C436.75,-74.34 433.83,-73.11 431,-72 387.25,-54.82 335.48,-39.07 301.3,-29.28"/>
<polygon fill="black" stroke="black" points="301.86,-25.8 291.29,-26.44 299.95,-32.54 301.86,-25.8"/>
</g>
</g>
</svg>
