<?xml version="1.0" encoding="UTF-8" standalone="no"?>
<!DOCTYPE svg PUBLIC "-//W3C//DTD SVG 1.1//EN"
 "http://www.w3.org/Graphics/SVG/1.1/DTD/svg11.dtd">
<!-- Generated by graphviz version 2.43.0 (0)
 -->
<!-- Title: %3 Pages: 1 -->
<svg width="648pt" height="476pt"
 viewBox="0.00 0.00 648.00 476.00" xmlns="http://www.w3.org/2000/svg" xmlns:xlink="http://www.w3.org/1999/xlink">
<g id="graph0" class="graph" transform="scale(1 1) rotate(0) translate(4 472)">
<title>%3</title>
<polygon fill="white" stroke="transparent" points="-4,4 -4,-472 644,-472 644,4 -4,4"/>
<!-- ast.Module object at 0x7fd6938e9b40 -->
<g id="node1" class="node">
<title>ast.Module object at 0x7fd6938e9b40</title>
<path fill="#66cdaa" stroke="black" d="M197.5,-468C197.5,-468 162.5,-468 162.5,-468 156.5,-468 150.5,-462 150.5,-456 150.5,-456 150.5,-444 150.5,-444 150.5,-438 156.5,-432 162.5,-432 162.5,-432 197.5,-432 197.5,-432 203.5,-432 209.5,-438 209.5,-444 209.5,-444 209.5,-456 209.5,-456 209.5,-462 203.5,-468 197.5,-468"/>
<text text-anchor="middle" x="180" y="-446.3" font-family="Times,serif" font-size="14.00">Module</text>
</g>
<!-- ast.FunctionDef object at 0x7fd6938e9fc0 -->
<g id="node2" class="node">
<title>ast.FunctionDef object at 0x7fd6938e9fc0</title>
<path fill="#66cdaa" stroke="black" d="M210.5,-396C210.5,-396 149.5,-396 149.5,-396 143.5,-396 137.5,-390 137.5,-384 137.5,-384 137.5,-372 137.5,-372 137.5,-366 143.5,-360 149.5,-360 149.5,-360 210.5,-360 210.5,-360 216.5,-360 222.5,-366 222.5,-372 222.5,-372 222.5,-384 222.5,-384 222.5,-390 216.5,-396 210.5,-396"/>
<text text-anchor="middle" x="180" y="-374.3" font-family="Times,serif" font-size="14.00">FunctionDef</text>
</g>
<!-- ast.Module object at 0x7fd6938e9b40&#45;&gt;ast.FunctionDef object at 0x7fd6938e9fc0 -->
<g id="edge1" class="edge">
<title>ast.Module object at 0x7fd6938e9b40&#45;&gt;ast.FunctionDef object at 0x7fd6938e9fc0</title>
<path fill="none" stroke="black" d="M180,-431.7C180,-423.98 180,-414.71 180,-406.11"/>
<polygon fill="black" stroke="black" points="183.5,-406.1 180,-396.1 176.5,-406.1 183.5,-406.1"/>
</g>
<!-- ast.arguments object at 0x7fd6938e9240 -->
<g id="node3" class="node">
<title>ast.arguments object at 0x7fd6938e9240</title>
<path fill="#66cdaa" stroke="black" d="M70,-324C70,-324 20,-324 20,-324 14,-324 8,-318 8,-312 8,-312 8,-300 8,-300 8,-294 14,-288 20,-288 20,-288 70,-288 70,-288 76,-288 82,-294 82,-300 82,-300 82,-312 82,-312 82,-318 76,-324 70,-324"/>
<text text-anchor="middle" x="45" y="-302.3" font-family="Times,serif" font-size="14.00">arguments</text>
</g>
<!-- ast.FunctionDef object at 0x7fd6938e9fc0&#45;&gt;ast.arguments object at 0x7fd6938e9240 -->
<g id="edge2" class="edge">
<title>ast.FunctionDef object at 0x7fd6938e9fc0&#45;&gt;ast.arguments object at 0x7fd6938e9240</title>
<path fill="none" stroke="black" d="M146.98,-359.88C128.92,-350.51 106.35,-338.81 87.05,-328.8"/>
<polygon fill="black" stroke="black" points="88.64,-325.69 78.15,-324.19 85.42,-331.9 88.64,-325.69"/>
</g>
<!-- ast.Assign object at 0x7fd6938e8280 -->
<g id="node5" class="node">
<title>ast.Assign object at 0x7fd6938e8280</title>
<path fill="#66cdaa" stroke="black" d="M159,-324C159,-324 129,-324 129,-324 123,-324 117,-318 117,-312 117,-312 117,-300 117,-300 117,-294 123,-288 129,-288 129,-288 159,-288 159,-288 165,-288 171,-294 171,-300 171,-300 171,-312 171,-312 171,-318 165,-324 159,-324"/>
<text text-anchor="middle" x="144" y="-302.3" font-family="Times,serif" font-size="14.00">Assign</text>
</g>
<!-- ast.FunctionDef object at 0x7fd6938e9fc0&#45;&gt;ast.Assign object at 0x7fd6938e8280 -->
<g id="edge4" class="edge">
<title>ast.FunctionDef object at 0x7fd6938e9fc0&#45;&gt;ast.Assign object at 0x7fd6938e8280</title>
<path fill="none" stroke="black" d="M171.1,-359.7C167,-351.73 162.05,-342.1 157.51,-333.26"/>
<polygon fill="black" stroke="black" points="160.48,-331.4 152.8,-324.1 154.26,-334.6 160.48,-331.4"/>
</g>
<!-- ast.For object at 0x7fd6938e94b0 -->
<g id="node9" class="node">
<title>ast.For object at 0x7fd6938e94b0</title>
<path fill="#66cdaa" stroke="black" d="M253,-324C253,-324 223,-324 223,-324 217,-324 211,-318 211,-312 211,-312 211,-300 211,-300 211,-294 217,-288 223,-288 223,-288 253,-288 253,-288 259,-288 265,-294 265,-300 265,-300 265,-312 265,-312 265,-318 259,-324 253,-324"/>
<text text-anchor="middle" x="238" y="-302.3" font-family="Times,serif" font-size="14.00">For</text>
</g>
<!-- ast.FunctionDef object at 0x7fd6938e9fc0&#45;&gt;ast.For object at 0x7fd6938e94b0 -->
<g id="edge8" class="edge">
<title>ast.FunctionDef object at 0x7fd6938e9fc0&#45;&gt;ast.For object at 0x7fd6938e94b0</title>
<path fill="none" stroke="black" d="M194.34,-359.7C201.29,-351.3 209.77,-341.07 217.4,-331.86"/>
<polygon fill="black" stroke="black" points="220.14,-334.04 223.83,-324.1 214.75,-329.57 220.14,-334.04"/>
</g>
<!-- ast.Return object at 0x7fd6938e9ba0 -->
<g id="node26" class="node">
<title>ast.Return object at 0x7fd6938e9ba0</title>
<path fill="#66cdaa" stroke="black" d="M355,-324C355,-324 325,-324 325,-324 319,-324 313,-318 313,-312 313,-312 313,-300 313,-300 313,-294 319,-288 325,-288 325,-288 355,-288 355,-288 361,-288 367,-294 367,-300 367,-300 367,-312 367,-312 367,-318 361,-324 355,-324"/>
<text text-anchor="middle" x="340" y="-302.3" font-family="Times,serif" font-size="14.00">Return</text>
</g>
<!-- ast.FunctionDef object at 0x7fd6938e9fc0&#45;&gt;ast.Return object at 0x7fd6938e9ba0 -->
<g id="edge31" class="edge">
<title>ast.FunctionDef object at 0x7fd6938e9fc0&#45;&gt;ast.Return object at 0x7fd6938e9ba0</title>
<path fill="none" stroke="black" d="M219.14,-359.88C244.9,-348.61 278.38,-333.96 303.57,-322.94"/>
<polygon fill="black" stroke="black" points="305.03,-326.12 312.79,-318.9 302.22,-319.71 305.03,-326.12"/>
</g>
<!-- ast.arg object at 0x7fd6938e9780 -->
<g id="node4" class="node">
<title>ast.arg object at 0x7fd6938e9780</title>
<path fill="#66cdaa" stroke="black" d="M43,-252C43,-252 13,-252 13,-252 7,-252 1,-246 1,-240 1,-240 1,-228 1,-228 1,-222 7,-216 13,-216 13,-216 43,-216 43,-216 49,-216 55,-222 55,-228 55,-228 55,-240 55,-240 55,-246 49,-252 43,-252"/>
<text text-anchor="middle" x="28" y="-230.3" font-family="Times,serif" font-size="14.00">arg</text>
</g>
<!-- ast.arguments object at 0x7fd6938e9240&#45;&gt;ast.arg object at 0x7fd6938e9780 -->
<g id="edge3" class="edge">
<title>ast.arguments object at 0x7fd6938e9240&#45;&gt;ast.arg object at 0x7fd6938e9780</title>
<path fill="none" stroke="black" d="M40.8,-287.7C38.9,-279.9 36.62,-270.51 34.52,-261.83"/>
<polygon fill="black" stroke="black" points="37.92,-261 32.15,-252.1 31.11,-262.65 37.92,-261"/>
</g>
<!-- ast.Name object at 0x7fd6938e8070 -->
<g id="node6" class="node">
<title>ast.Name object at 0x7fd6938e8070</title>
<path fill="#66cdaa" stroke="black" d="M42,-180C42,-180 12,-180 12,-180 6,-180 0,-174 0,-168 0,-168 0,-156 0,-156 0,-150 6,-144 12,-144 12,-144 42,-144 42,-144 48,-144 54,-150 54,-156 54,-156 54,-168 54,-168 54,-174 48,-180 42,-180"/>
<text text-anchor="middle" x="27" y="-158.3" font-family="Times,serif" font-size="14.00">Name</text>
</g>
<!-- ast.Assign object at 0x7fd6938e8280&#45;&gt;ast.Name object at 0x7fd6938e8070 -->
<g id="edge5" class="edge">
<title>ast.Assign object at 0x7fd6938e8280&#45;&gt;ast.Name object at 0x7fd6938e8070</title>
<path fill="none" stroke="black" d="M129.89,-287.87C109.42,-263.03 71.37,-216.85 47.72,-188.14"/>
<polygon fill="black" stroke="black" points="50.22,-185.68 41.16,-180.19 44.82,-190.13 50.22,-185.68"/>
</g>
<!-- ast.Constant object at 0x7fd6938e9510 -->
<g id="node8" class="node">
<title>ast.Constant object at 0x7fd6938e9510</title>
<path fill="#66cdaa" stroke="black" d="M164.5,-252C164.5,-252 123.5,-252 123.5,-252 117.5,-252 111.5,-246 111.5,-240 111.5,-240 111.5,-228 111.5,-228 111.5,-222 117.5,-216 123.5,-216 123.5,-216 164.5,-216 164.5,-216 170.5,-216 176.5,-222 176.5,-228 176.5,-228 176.5,-240 176.5,-240 176.5,-246 170.5,-252 164.5,-252"/>
<text text-anchor="middle" x="144" y="-230.3" font-family="Times,serif" font-size="14.00">Constant</text>
</g>
<!-- ast.Assign object at 0x7fd6938e8280&#45;&gt;ast.Constant object at 0x7fd6938e9510 -->
<g id="edge7" class="edge">
<title>ast.Assign object at 0x7fd6938e8280&#45;&gt;ast.Constant object at 0x7fd6938e9510</title>
<path fill="none" stroke="black" d="M144,-287.7C144,-279.98 144,-270.71 144,-262.11"/>
<polygon fill="black" stroke="black" points="147.5,-262.1 144,-252.1 140.5,-262.1 147.5,-262.1"/>
</g>
<!-- ast.Store object at 0x7fd6cd0ee050 -->
<g id="node7" class="node">
<title>ast.Store object at 0x7fd6cd0ee050</title>
<path fill="#66cdaa" stroke="black" d="M49,-36C49,-36 19,-36 19,-36 13,-36 7,-30 7,-24 7,-24 7,-12 7,-12 7,-6 13,0 19,0 19,0 49,0 49,0 55,0 61,-6 61,-12 61,-12 61,-24 61,-24 61,-30 55,-36 49,-36"/>
<text text-anchor="middle" x="34" y="-14.3" font-family="Times,serif" font-size="14.00">Store</text>
</g>
<!-- ast.Name object at 0x7fd6938e8070&#45;&gt;ast.Store object at 0x7fd6cd0ee050 -->
<g id="edge6" class="edge">
<title>ast.Name object at 0x7fd6938e8070&#45;&gt;ast.Store object at 0x7fd6cd0ee050</title>
<path fill="none" stroke="black" d="M23.55,-143.88C20.43,-125.93 16.77,-96.9 20,-72 21.1,-63.51 23.16,-54.43 25.37,-46.24"/>
<polygon fill="black" stroke="black" points="28.78,-47.02 28.18,-36.44 22.05,-45.09 28.78,-47.02"/>
</g>
<!-- ast.Name object at 0x7fd6938eab90 -->
<g id="node10" class="node">
<title>ast.Name object at 0x7fd6938eab90</title>
<path fill="#66cdaa" stroke="black" d="M118,-180C118,-180 88,-180 88,-180 82,-180 76,-174 76,-168 76,-168 76,-156 76,-156 76,-150 82,-144 88,-144 88,-144 118,-144 118,-144 124,-144 130,-150 130,-156 130,-156 130,-168 130,-168 130,-174 124,-180 118,-180"/>
<text text-anchor="middle" x="103" y="-158.3" font-family="Times,serif" font-size="14.00">Name</text>
</g>
<!-- ast.For object at 0x7fd6938e94b0&#45;&gt;ast.Name object at 0x7fd6938eab90 -->
<g id="edge9" class="edge">
<title>ast.For object at 0x7fd6938e94b0&#45;&gt;ast.Name object at 0x7fd6938eab90</title>
<path fill="none" stroke="black" d="M230.64,-287.7C221.85,-268.53 205.72,-237.49 185,-216 171.82,-202.33 154.48,-190.48 139.13,-181.46"/>
<polygon fill="black" stroke="black" points="140.8,-178.39 130.38,-176.5 137.35,-184.48 140.8,-178.39"/>
</g>
<!-- ast.Name object at 0x7fd6938ea1d0 -->
<g id="node11" class="node">
<title>ast.Name object at 0x7fd6938ea1d0</title>
<path fill="#66cdaa" stroke="black" d="M510,-180C510,-180 480,-180 480,-180 474,-180 468,-174 468,-168 468,-168 468,-156 468,-156 468,-150 474,-144 480,-144 480,-144 510,-144 510,-144 516,-144 522,-150 522,-156 522,-156 522,-168 522,-168 522,-174 516,-180 510,-180"/>
<text text-anchor="middle" x="495" y="-158.3" font-family="Times,serif" font-size="14.00">Name</text>
</g>
<!-- ast.For object at 0x7fd6938e94b0&#45;&gt;ast.Name object at 0x7fd6938ea1d0 -->
<g id="edge11" class="edge">
<title>ast.For object at 0x7fd6938e94b0&#45;&gt;ast.Name object at 0x7fd6938ea1d0</title>
<path fill="none" stroke="black" d="M265.02,-290.07C311.58,-264.34 406.95,-211.65 459.06,-182.86"/>
<polygon fill="black" stroke="black" points="460.9,-185.84 467.96,-177.94 457.51,-179.71 460.9,-185.84"/>
</g>
<!-- ast.If object at 0x7fd6938e8940 -->
<g id="node13" class="node">
<title>ast.If object at 0x7fd6938e8940</title>
<path fill="#66cdaa" stroke="black" d="M275,-252C275,-252 245,-252 245,-252 239,-252 233,-246 233,-240 233,-240 233,-228 233,-228 233,-222 239,-216 245,-216 245,-216 275,-216 275,-216 281,-216 287,-222 287,-228 287,-228 287,-240 287,-240 287,-246 281,-252 275,-252"/>
<text text-anchor="middle" x="260" y="-230.3" font-family="Times,serif" font-size="14.00">If</text>
</g>
<!-- ast.For object at 0x7fd6938e94b0&#45;&gt;ast.If object at 0x7fd6938e8940 -->
<g id="edge13" class="edge">
<title>ast.For object at 0x7fd6938e94b0&#45;&gt;ast.If object at 0x7fd6938e8940</title>
<path fill="none" stroke="black" d="M243.44,-287.7C245.89,-279.9 248.84,-270.51 251.57,-261.83"/>
<polygon fill="black" stroke="black" points="254.96,-262.69 254.62,-252.1 248.29,-260.59 254.96,-262.69"/>
</g>
<!-- ast.Name object at 0x7fd6938eab90&#45;&gt;ast.Store object at 0x7fd6cd0ee050 -->
<g id="edge10" class="edge">
<title>ast.Name object at 0x7fd6938eab90&#45;&gt;ast.Store object at 0x7fd6cd0ee050</title>
<path fill="none" stroke="black" d="M82.14,-143.87C71.86,-134.34 60.17,-121.67 53,-108 42.93,-88.82 38.2,-64.66 35.97,-46.35"/>
<polygon fill="black" stroke="black" points="39.45,-45.92 34.93,-36.33 32.49,-46.64 39.45,-45.92"/>
</g>
<!-- ast.Load object at 0x7fd6cd0edff0 -->
<g id="node12" class="node">
<title>ast.Load object at 0x7fd6cd0edff0</title>
<path fill="#66cdaa" stroke="black" d="M590,-36C590,-36 560,-36 560,-36 554,-36 548,-30 548,-24 548,-24 548,-12 548,-12 548,-6 554,0 560,0 560,0 590,0 590,0 596,0 602,-6 602,-12 602,-12 602,-24 602,-24 602,-30 596,-36 590,-36"/>
<text text-anchor="middle" x="575" y="-14.3" font-family="Times,serif" font-size="14.00">Load</text>
</g>
<!-- ast.Name object at 0x7fd6938ea1d0&#45;&gt;ast.Load object at 0x7fd6cd0edff0 -->
<g id="edge12" class="edge">
<title>ast.Name object at 0x7fd6938ea1d0&#45;&gt;ast.Load object at 0x7fd6cd0edff0</title>
<path fill="none" stroke="black" d="M522.13,-153.02C543.16,-145.24 570.85,-131.14 584,-108 594.68,-89.2 591.09,-64.53 585.58,-45.93"/>
<polygon fill="black" stroke="black" points="588.86,-44.7 582.4,-36.3 582.21,-46.89 588.86,-44.7"/>
</g>
<!-- ast.Compare object at 0x7fd6938e9030 -->
<g id="node14" class="node">
<title>ast.Compare object at 0x7fd6938e9030</title>
<path fill="#66cdaa" stroke="black" d="M391.5,-180C391.5,-180 348.5,-180 348.5,-180 342.5,-180 336.5,-174 336.5,-168 336.5,-168 336.5,-156 336.5,-156 336.5,-150 342.5,-144 348.5,-144 348.5,-144 391.5,-144 391.5,-144 397.5,-144 403.5,-150 403.5,-156 403.5,-156 403.5,-168 403.5,-168 403.5,-174 397.5,-180 391.5,-180"/>
<text text-anchor="middle" x="370" y="-158.3" font-family="Times,serif" font-size="14.00">Compare</text>
</g>
<!-- ast.If object at 0x7fd6938e8940&#45;&gt;ast.Compare object at 0x7fd6938e9030 -->
<g id="edge14" class="edge">
<title>ast.If object at 0x7fd6938e8940&#45;&gt;ast.Compare object at 0x7fd6938e9030</title>
<path fill="none" stroke="black" d="M286.91,-215.88C301.16,-206.81 318.85,-195.55 334.24,-185.76"/>
<polygon fill="black" stroke="black" points="336.43,-188.51 342.99,-180.19 332.67,-182.61 336.43,-188.51"/>
</g>
<!-- ast.AugAssign object at 0x7fd6938e8670 -->
<g id="node22" class="node">
<title>ast.AugAssign object at 0x7fd6938e8670</title>
<path fill="#66cdaa" stroke="black" d="M215.5,-180C215.5,-180 162.5,-180 162.5,-180 156.5,-180 150.5,-174 150.5,-168 150.5,-168 150.5,-156 150.5,-156 150.5,-150 156.5,-144 162.5,-144 162.5,-144 215.5,-144 215.5,-144 221.5,-144 227.5,-150 227.5,-156 227.5,-156 227.5,-168 227.5,-168 227.5,-174 221.5,-180 215.5,-180"/>
<text text-anchor="middle" x="189" y="-158.3" font-family="Times,serif" font-size="14.00">AugAssign</text>
</g>
<!-- ast.If object at 0x7fd6938e8940&#45;&gt;ast.AugAssign object at 0x7fd6938e8670 -->
<g id="edge25" class="edge">
<title>ast.If object at 0x7fd6938e8940&#45;&gt;ast.AugAssign object at 0x7fd6938e8670</title>
<path fill="none" stroke="black" d="M242.45,-215.7C233.77,-207.14 223.14,-196.66 213.65,-187.3"/>
<polygon fill="black" stroke="black" points="215.93,-184.63 206.35,-180.1 211.01,-189.62 215.93,-184.63"/>
</g>
<!-- ast.UnaryOp object at 0x7fd6938ea650 -->
<g id="node15" class="node">
<title>ast.UnaryOp object at 0x7fd6938ea650</title>
<path fill="#66cdaa" stroke="black" d="M261.5,-108C261.5,-108 218.5,-108 218.5,-108 212.5,-108 206.5,-102 206.5,-96 206.5,-96 206.5,-84 206.5,-84 206.5,-78 212.5,-72 218.5,-72 218.5,-72 261.5,-72 261.5,-72 267.5,-72 273.5,-78 273.5,-84 273.5,-84 273.5,-96 273.5,-96 273.5,-102 267.5,-108 261.5,-108"/>
<text text-anchor="middle" x="240" y="-86.3" font-family="Times,serif" font-size="14.00">UnaryOp</text>
</g>
<!-- ast.Compare object at 0x7fd6938e9030&#45;&gt;ast.UnaryOp object at 0x7fd6938ea650 -->
<g id="edge15" class="edge">
<title>ast.Compare object at 0x7fd6938e9030&#45;&gt;ast.UnaryOp object at 0x7fd6938ea650</title>
<path fill="none" stroke="black" d="M338.2,-143.88C320.89,-134.55 299.28,-122.92 280.74,-112.94"/>
<polygon fill="black" stroke="black" points="282.39,-109.85 271.92,-108.19 279.07,-116.01 282.39,-109.85"/>
</g>
<!-- ast.LtE object at 0x7fd6cd0eea40 -->
<g id="node18" class="node">
<title>ast.LtE object at 0x7fd6cd0eea40</title>
<path fill="#66cdaa" stroke="black" d="M491,-108C491,-108 461,-108 461,-108 455,-108 449,-102 449,-96 449,-96 449,-84 449,-84 449,-78 455,-72 461,-72 461,-72 491,-72 491,-72 497,-72 503,-78 503,-84 503,-84 503,-96 503,-96 503,-102 497,-108 491,-108"/>
<text text-anchor="middle" x="476" y="-86.3" font-family="Times,serif" font-size="14.00">LtE</text>
</g>
<!-- ast.Compare object at 0x7fd6938e9030&#45;&gt;ast.LtE object at 0x7fd6cd0eea40 -->
<g id="edge18" class="edge">
<title>ast.Compare object at 0x7fd6938e9030&#45;&gt;ast.LtE object at 0x7fd6cd0eea40</title>
<path fill="none" stroke="black" d="M390.03,-143.88C404.09,-133.9 423.11,-121.29 439.75,-110.88"/>
<polygon fill="black" stroke="black" points="442.02,-113.58 448.69,-105.35 438.35,-107.63 442.02,-113.58"/>
</g>
<!-- ast.Compare object at 0x7fd6938e9030&#45;&gt;ast.LtE object at 0x7fd6cd0eea40 -->
<g id="edge19" class="edge">
<title>ast.Compare object at 0x7fd6938e9030&#45;&gt;ast.LtE object at 0x7fd6cd0eea40</title>
<path fill="none" stroke="black" d="M401.83,-143.88C416.37,-134.89 433.39,-123.76 447.51,-114.03"/>
<polygon fill="black" stroke="black" points="449.68,-116.79 455.87,-108.19 445.67,-111.05 449.68,-116.79"/>
</g>
<!-- ast.Name object at 0x7fd6938e87f0 -->
<g id="node19" class="node">
<title>ast.Name object at 0x7fd6938e87f0</title>
<path fill="#66cdaa" stroke="black" d="M563,-108C563,-108 533,-108 533,-108 527,-108 521,-102 521,-96 521,-96 521,-84 521,-84 521,-78 527,-72 533,-72 533,-72 563,-72 563,-72 569,-72 575,-78 575,-84 575,-84 575,-96 575,-96 575,-102 569,-108 563,-108"/>
<text text-anchor="middle" x="548" y="-86.3" font-family="Times,serif" font-size="14.00">Name</text>
</g>
<!-- ast.Compare object at 0x7fd6938e9030&#45;&gt;ast.Name object at 0x7fd6938e87f0 -->
<g id="edge20" class="edge">
<title>ast.Compare object at 0x7fd6938e9030&#45;&gt;ast.Name object at 0x7fd6938e87f0</title>
<path fill="none" stroke="black" d="M403.59,-149.36C430.58,-139.81 469.6,-125.56 511.68,-107.98"/>
<polygon fill="black" stroke="black" points="513.13,-111.17 520.98,-104.06 510.41,-104.71 513.13,-111.17"/>
</g>
<!-- ast.UnaryOp object at 0x7fd6938e9a80 -->
<g id="node20" class="node">
<title>ast.UnaryOp object at 0x7fd6938e9a80</title>
<path fill="#66cdaa" stroke="black" d="M346.5,-108C346.5,-108 303.5,-108 303.5,-108 297.5,-108 291.5,-102 291.5,-96 291.5,-96 291.5,-84 291.5,-84 291.5,-78 297.5,-72 303.5,-72 303.5,-72 346.5,-72 346.5,-72 352.5,-72 358.5,-78 358.5,-84 358.5,-84 358.5,-96 358.5,-96 358.5,-102 352.5,-108 346.5,-108"/>
<text text-anchor="middle" x="325" y="-86.3" font-family="Times,serif" font-size="14.00">UnaryOp</text>
</g>
<!-- ast.Compare object at 0x7fd6938e9030&#45;&gt;ast.UnaryOp object at 0x7fd6938e9a80 -->
<g id="edge22" class="edge">
<title>ast.Compare object at 0x7fd6938e9030&#45;&gt;ast.UnaryOp object at 0x7fd6938e9a80</title>
<path fill="none" stroke="black" d="M358.88,-143.7C353.64,-135.56 347.3,-125.69 341.52,-116.7"/>
<polygon fill="black" stroke="black" points="344.35,-114.62 336,-108.1 338.46,-118.41 344.35,-114.62"/>
</g>
<!-- ast.USub object at 0x7fd6cd0ee890 -->
<g id="node16" class="node">
<title>ast.USub object at 0x7fd6cd0ee890</title>
<path fill="#66cdaa" stroke="black" d="M297,-36C297,-36 267,-36 267,-36 261,-36 255,-30 255,-24 255,-24 255,-12 255,-12 255,-6 261,0 267,0 267,0 297,0 297,0 303,0 309,-6 309,-12 309,-12 309,-24 309,-24 309,-30 303,-36 297,-36"/>
<text text-anchor="middle" x="282" y="-14.3" font-family="Times,serif" font-size="14.00">USub</text>
</g>
<!-- ast.UnaryOp object at 0x7fd6938ea650&#45;&gt;ast.USub object at 0x7fd6cd0ee890 -->
<g id="edge16" class="edge">
<title>ast.UnaryOp object at 0x7fd6938ea650&#45;&gt;ast.USub object at 0x7fd6cd0ee890</title>
<path fill="none" stroke="black" d="M250.38,-71.7C255.26,-63.56 261.19,-53.69 266.58,-44.7"/>
<polygon fill="black" stroke="black" points="269.59,-46.48 271.74,-36.1 263.59,-42.88 269.59,-46.48"/>
</g>
<!-- ast.Constant object at 0x7fd6938ea620 -->
<g id="node17" class="node">
<title>ast.Constant object at 0x7fd6938ea620</title>
<path fill="#66cdaa" stroke="black" d="M224.5,-36C224.5,-36 183.5,-36 183.5,-36 177.5,-36 171.5,-30 171.5,-24 171.5,-24 171.5,-12 171.5,-12 171.5,-6 177.5,0 183.5,0 183.5,0 224.5,0 224.5,0 230.5,0 236.5,-6 236.5,-12 236.5,-12 236.5,-24 236.5,-24 236.5,-30 230.5,-36 224.5,-36"/>
<text text-anchor="middle" x="204" y="-14.3" font-family="Times,serif" font-size="14.00">Constant</text>
</g>
<!-- ast.UnaryOp object at 0x7fd6938ea650&#45;&gt;ast.Constant object at 0x7fd6938ea620 -->
<g id="edge17" class="edge">
<title>ast.UnaryOp object at 0x7fd6938ea650&#45;&gt;ast.Constant object at 0x7fd6938ea620</title>
<path fill="none" stroke="black" d="M231.1,-71.7C227,-63.73 222.05,-54.1 217.51,-45.26"/>
<polygon fill="black" stroke="black" points="220.48,-43.4 212.8,-36.1 214.26,-46.6 220.48,-43.4"/>
</g>
<!-- ast.Name object at 0x7fd6938e87f0&#45;&gt;ast.Load object at 0x7fd6cd0edff0 -->
<g id="edge21" class="edge">
<title>ast.Name object at 0x7fd6938e87f0&#45;&gt;ast.Load object at 0x7fd6cd0edff0</title>
<path fill="none" stroke="black" d="M554.67,-71.7C557.71,-63.81 561.38,-54.3 564.76,-45.55"/>
<polygon fill="black" stroke="black" points="568.07,-46.69 568.4,-36.1 561.54,-44.17 568.07,-46.69"/>
</g>
<!-- ast.UnaryOp object at 0x7fd6938e9a80&#45;&gt;ast.USub object at 0x7fd6cd0ee890 -->
<g id="edge23" class="edge">
<title>ast.UnaryOp object at 0x7fd6938e9a80&#45;&gt;ast.USub object at 0x7fd6cd0ee890</title>
<path fill="none" stroke="black" d="M314.37,-71.7C309.37,-63.56 303.31,-53.69 297.79,-44.7"/>
<polygon fill="black" stroke="black" points="300.72,-42.79 292.51,-36.1 294.76,-46.46 300.72,-42.79"/>
</g>
<!-- ast.Constant object at 0x7fd6938e8520 -->
<g id="node21" class="node">
<title>ast.Constant object at 0x7fd6938e8520</title>
<path fill="#66cdaa" stroke="black" d="M380.5,-36C380.5,-36 339.5,-36 339.5,-36 333.5,-36 327.5,-30 327.5,-24 327.5,-24 327.5,-12 327.5,-12 327.5,-6 333.5,0 339.5,0 339.5,0 380.5,0 380.5,0 386.5,0 392.5,-6 392.5,-12 392.5,-12 392.5,-24 392.5,-24 392.5,-30 386.5,-36 380.5,-36"/>
<text text-anchor="middle" x="360" y="-14.3" font-family="Times,serif" font-size="14.00">Constant</text>
</g>
<!-- ast.UnaryOp object at 0x7fd6938e9a80&#45;&gt;ast.Constant object at 0x7fd6938e8520 -->
<g id="edge24" class="edge">
<title>ast.UnaryOp object at 0x7fd6938e9a80&#45;&gt;ast.Constant object at 0x7fd6938e8520</title>
<path fill="none" stroke="black" d="M333.65,-71.7C337.64,-63.73 342.45,-54.1 346.87,-45.26"/>
<polygon fill="black" stroke="black" points="350.11,-46.61 351.45,-36.1 343.85,-43.48 350.11,-46.61"/>
</g>
<!-- ast.Name object at 0x7fd6938e84c0 -->
<g id="node23" class="node">
<title>ast.Name object at 0x7fd6938e84c0</title>
<path fill="#66cdaa" stroke="black" d="M104,-108C104,-108 74,-108 74,-108 68,-108 62,-102 62,-96 62,-96 62,-84 62,-84 62,-78 68,-72 74,-72 74,-72 104,-72 104,-72 110,-72 116,-78 116,-84 116,-84 116,-96 116,-96 116,-102 110,-108 104,-108"/>
<text text-anchor="middle" x="89" y="-86.3" font-family="Times,serif" font-size="14.00">Name</text>
</g>
<!-- ast.AugAssign object at 0x7fd6938e8670&#45;&gt;ast.Name object at 0x7fd6938e84c0 -->
<g id="edge26" class="edge">
<title>ast.AugAssign object at 0x7fd6938e8670&#45;&gt;ast.Name object at 0x7fd6938e84c0</title>
<path fill="none" stroke="black" d="M164.54,-143.88C151.7,-134.89 135.8,-123.76 121.91,-114.03"/>
<polygon fill="black" stroke="black" points="123.76,-111.06 113.56,-108.19 119.74,-116.79 123.76,-111.06"/>
</g>
<!-- ast.Add object at 0x7fd6cd0ee230 -->
<g id="node24" class="node">
<title>ast.Add object at 0x7fd6cd0ee230</title>
<path fill="#66cdaa" stroke="black" d="M176,-108C176,-108 146,-108 146,-108 140,-108 134,-102 134,-96 134,-96 134,-84 134,-84 134,-78 140,-72 146,-72 146,-72 176,-72 176,-72 182,-72 188,-78 188,-84 188,-84 188,-96 188,-96 188,-102 182,-108 176,-108"/>
<text text-anchor="middle" x="161" y="-86.3" font-family="Times,serif" font-size="14.00">Add</text>
</g>
<!-- ast.AugAssign object at 0x7fd6938e8670&#45;&gt;ast.Add object at 0x7fd6cd0ee230 -->
<g id="edge28" class="edge">
<title>ast.AugAssign object at 0x7fd6938e8670&#45;&gt;ast.Add object at 0x7fd6cd0ee230</title>
<path fill="none" stroke="black" d="M182.08,-143.7C178.93,-135.81 175.12,-126.3 171.62,-117.55"/>
<polygon fill="black" stroke="black" points="174.81,-116.09 167.84,-108.1 168.31,-118.69 174.81,-116.09"/>
</g>
<!-- ast.Name object at 0x7fd6938e8ac0 -->
<g id="node25" class="node">
<title>ast.Name object at 0x7fd6938e8ac0</title>
<path fill="#66cdaa" stroke="black" d="M419,-108C419,-108 389,-108 389,-108 383,-108 377,-102 377,-96 377,-96 377,-84 377,-84 377,-78 383,-72 389,-72 389,-72 419,-72 419,-72 425,-72 431,-78 431,-84 431,-84 431,-96 431,-96 431,-102 425,-108 419,-108"/>
<text text-anchor="middle" x="404" y="-86.3" font-family="Times,serif" font-size="14.00">Name</text>
</g>
<!-- ast.AugAssign object at 0x7fd6938e8670&#45;&gt;ast.Name object at 0x7fd6938e8ac0 -->
<g id="edge29" class="edge">
<title>ast.AugAssign object at 0x7fd6938e8670&#45;&gt;ast.Name object at 0x7fd6938e8ac0</title>
<path fill="none" stroke="black" d="M227.71,-151.17C264.12,-141.53 319.93,-125.72 367,-108 367.1,-107.96 367.2,-107.93 367.3,-107.89"/>
<polygon fill="black" stroke="black" points="368.76,-111.07 376.7,-104.06 366.12,-104.59 368.76,-111.07"/>
</g>
<!-- ast.Name object at 0x7fd6938e84c0&#45;&gt;ast.Store object at 0x7fd6cd0ee050 -->
<g id="edge27" class="edge">
<title>ast.Name object at 0x7fd6938e84c0&#45;&gt;ast.Store object at 0x7fd6cd0ee050</title>
<path fill="none" stroke="black" d="M75.4,-71.7C68.88,-63.39 60.93,-53.28 53.75,-44.14"/>
<polygon fill="black" stroke="black" points="56.37,-41.81 47.44,-36.1 50.87,-46.13 56.37,-41.81"/>
</g>
<!-- ast.Name object at 0x7fd6938e8ac0&#45;&gt;ast.Load object at 0x7fd6cd0edff0 -->
<g id="edge30" class="edge">
<title>ast.Name object at 0x7fd6938e8ac0&#45;&gt;ast.Load object at 0x7fd6cd0edff0</title>
<path fill="none" stroke="black" d="M431.04,-75.99C434.05,-74.62 437.08,-73.26 440,-72 472.94,-57.78 511.04,-42.96 538.35,-32.63"/>
<polygon fill="black" stroke="black" points="539.77,-35.83 547.89,-29.03 537.3,-29.28 539.77,-35.83"/>
</g>
<!-- ast.Name object at 0x7fd6938e9f90 -->
<g id="node27" class="node">
<title>ast.Name object at 0x7fd6938e9f90</title>
<path fill="#66cdaa" stroke="black" d="M628,-252C628,-252 598,-252 598,-252 592,-252 586,-246 586,-240 586,-240 586,-228 586,-228 586,-222 592,-216 598,-216 598,-216 628,-216 628,-216 634,-216 640,-222 640,-228 640,-228 640,-240 640,-240 640,-246 634,-252 628,-252"/>
<text text-anchor="middle" x="613" y="-230.3" font-family="Times,serif" font-size="14.00">Name</text>
</g>
<!-- ast.Return object at 0x7fd6938e9ba0&#45;&gt;ast.Name object at 0x7fd6938e9f90 -->
<g id="edge32" class="edge">
<title>ast.Return object at 0x7fd6938e9ba0&#45;&gt;ast.Name object at 0x7fd6938e9f90</title>
<path fill="none" stroke="black" d="M367.17,-298.03C416.44,-285.4 520.52,-258.71 576.14,-244.45"/>
<polygon fill="black" stroke="black" points="577.12,-247.81 585.94,-241.94 575.38,-241.03 577.12,-247.81"/>
</g>
<!-- ast.Name object at 0x7fd6938e9f90&#45;&gt;ast.Load object at 0x7fd6cd0edff0 -->
<g id="edge33" class="edge">
<title>ast.Name object at 0x7fd6938e9f90&#45;&gt;ast.Load object at 0x7fd6cd0edff0</title>
<path fill="none" stroke="black" d="M613.83,-215.72C614.81,-185.84 614.81,-122.85 601,-72 598.5,-62.8 594.39,-53.29 590.16,-44.91"/>
<polygon fill="black" stroke="black" points="593.21,-43.19 585.42,-36.01 587.03,-46.48 593.21,-43.19"/>
</g>
</g>
</svg>
