<?xml version="1.0" encoding="UTF-8" standalone="no"?>
<!DOCTYPE svg PUBLIC "-//W3C//DTD SVG 1.1//EN"
 "http://www.w3.org/Graphics/SVG/1.1/DTD/svg11.dtd">
<!-- Generated by graphviz version 2.43.0 (0)
 -->
<!-- Title: %3 Pages: 1 -->
<svg width="412pt" height="548pt"
 viewBox="0.00 0.00 411.50 548.00" xmlns="http://www.w3.org/2000/svg" xmlns:xlink="http://www.w3.org/1999/xlink">
<g id="graph0" class="graph" transform="scale(1 1) rotate(0) translate(4 544)">
<title>%3</title>
<polygon fill="white" stroke="transparent" points="-4,4 -4,-544 407.5,-544 407.5,4 -4,4"/>
<!-- ast.Module object at 0x7f0e9d9a0d90 -->
<g id="node1" class="node">
<title>ast.Module object at 0x7f0e9d9a0d90</title>
<path fill="#66cdaa" stroke="black" d="M286.5,-540C286.5,-540 251.5,-540 251.5,-540 245.5,-540 239.5,-534 239.5,-528 239.5,-528 239.5,-516 239.5,-516 239.5,-510 245.5,-504 251.5,-504 251.5,-504 286.5,-504 286.5,-504 292.5,-504 298.5,-510 298.5,-516 298.5,-516 298.5,-528 298.5,-528 298.5,-534 292.5,-540 286.5,-540"/>
<text text-anchor="middle" x="269" y="-518.3" font-family="Times,serif" font-size="14.00">Module</text>
</g>
<!-- ast.FunctionDef object at 0x7f0e9d9a04f0 -->
<g id="node2" class="node">
<title>ast.FunctionDef object at 0x7f0e9d9a04f0</title>
<path fill="#66cdaa" stroke="black" d="M299.5,-468C299.5,-468 238.5,-468 238.5,-468 232.5,-468 226.5,-462 226.5,-456 226.5,-456 226.5,-444 226.5,-444 226.5,-438 232.5,-432 238.5,-432 238.5,-432 299.5,-432 299.5,-432 305.5,-432 311.5,-438 311.5,-444 311.5,-444 311.5,-456 311.5,-456 311.5,-462 305.5,-468 299.5,-468"/>
<text text-anchor="middle" x="269" y="-446.3" font-family="Times,serif" font-size="14.00">FunctionDef</text>
</g>
<!-- ast.Module object at 0x7f0e9d9a0d90&#45;&gt;ast.FunctionDef object at 0x7f0e9d9a04f0 -->
<g id="edge1" class="edge">
<title>ast.Module object at 0x7f0e9d9a0d90&#45;&gt;ast.FunctionDef object at 0x7f0e9d9a04f0</title>
<path fill="none" stroke="black" d="M269,-503.7C269,-495.98 269,-486.71 269,-478.11"/>
<polygon fill="black" stroke="black" points="272.5,-478.1 269,-468.1 265.5,-478.1 272.5,-478.1"/>
</g>
<!-- ast.arguments object at 0x7f0e9d9a2a10 -->
<g id="node3" class="node">
<title>ast.arguments object at 0x7f0e9d9a2a10</title>
<path fill="#66cdaa" stroke="black" d="M253,-396C253,-396 203,-396 203,-396 197,-396 191,-390 191,-384 191,-384 191,-372 191,-372 191,-366 197,-360 203,-360 203,-360 253,-360 253,-360 259,-360 265,-366 265,-372 265,-372 265,-384 265,-384 265,-390 259,-396 253,-396"/>
<text text-anchor="middle" x="228" y="-374.3" font-family="Times,serif" font-size="14.00">arguments</text>
</g>
<!-- ast.FunctionDef object at 0x7f0e9d9a04f0&#45;&gt;ast.arguments object at 0x7f0e9d9a2a10 -->
<g id="edge2" class="edge">
<title>ast.FunctionDef object at 0x7f0e9d9a04f0&#45;&gt;ast.arguments object at 0x7f0e9d9a2a10</title>
<path fill="none" stroke="black" d="M258.87,-431.7C254.15,-423.64 248.44,-413.89 243.22,-404.98"/>
<polygon fill="black" stroke="black" points="246.09,-402.96 238.02,-396.1 240.05,-406.5 246.09,-402.96"/>
</g>
<!-- ast.Return object at 0x7f0e9d9a0250 -->
<g id="node5" class="node">
<title>ast.Return object at 0x7f0e9d9a0250</title>
<path fill="#66cdaa" stroke="black" d="M325,-396C325,-396 295,-396 295,-396 289,-396 283,-390 283,-384 283,-384 283,-372 283,-372 283,-366 289,-360 295,-360 295,-360 325,-360 325,-360 331,-360 337,-366 337,-372 337,-372 337,-384 337,-384 337,-390 331,-396 325,-396"/>
<text text-anchor="middle" x="310" y="-374.3" font-family="Times,serif" font-size="14.00">Return</text>
</g>
<!-- ast.FunctionDef object at 0x7f0e9d9a04f0&#45;&gt;ast.Return object at 0x7f0e9d9a0250 -->
<g id="edge4" class="edge">
<title>ast.FunctionDef object at 0x7f0e9d9a04f0&#45;&gt;ast.Return object at 0x7f0e9d9a0250</title>
<path fill="none" stroke="black" d="M279.13,-431.7C283.85,-423.64 289.56,-413.89 294.78,-404.98"/>
<polygon fill="black" stroke="black" points="297.95,-406.5 299.98,-396.1 291.91,-402.96 297.95,-406.5"/>
</g>
<!-- ast.arg object at 0x7f0e9d9a1780 -->
<g id="node4" class="node">
<title>ast.arg object at 0x7f0e9d9a1780</title>
<path fill="#66cdaa" stroke="black" d="M243,-324C243,-324 213,-324 213,-324 207,-324 201,-318 201,-312 201,-312 201,-300 201,-300 201,-294 207,-288 213,-288 213,-288 243,-288 243,-288 249,-288 255,-294 255,-300 255,-300 255,-312 255,-312 255,-318 249,-324 243,-324"/>
<text text-anchor="middle" x="228" y="-302.3" font-family="Times,serif" font-size="14.00">arg</text>
</g>
<!-- ast.arguments object at 0x7f0e9d9a2a10&#45;&gt;ast.arg object at 0x7f0e9d9a1780 -->
<g id="edge3" class="edge">
<title>ast.arguments object at 0x7f0e9d9a2a10&#45;&gt;ast.arg object at 0x7f0e9d9a1780</title>
<path fill="none" stroke="black" d="M228,-359.7C228,-351.98 228,-342.71 228,-334.11"/>
<polygon fill="black" stroke="black" points="231.5,-334.1 228,-324.1 224.5,-334.1 231.5,-334.1"/>
</g>
<!-- ast.Subscript object at 0x7f0e9d9a1e10 -->
<g id="node6" class="node">
<title>ast.Subscript object at 0x7f0e9d9a1e10</title>
<path fill="#66cdaa" stroke="black" d="M332,-324C332,-324 288,-324 288,-324 282,-324 276,-318 276,-312 276,-312 276,-300 276,-300 276,-294 282,-288 288,-288 288,-288 332,-288 332,-288 338,-288 344,-294 344,-300 344,-300 344,-312 344,-312 344,-318 338,-324 332,-324"/>
<text text-anchor="middle" x="310" y="-302.3" font-family="Times,serif" font-size="14.00">Subscript</text>
</g>
<!-- ast.Return object at 0x7f0e9d9a0250&#45;&gt;ast.Subscript object at 0x7f0e9d9a1e10 -->
<g id="edge5" class="edge">
<title>ast.Return object at 0x7f0e9d9a0250&#45;&gt;ast.Subscript object at 0x7f0e9d9a1e10</title>
<path fill="none" stroke="black" d="M310,-359.7C310,-351.98 310,-342.71 310,-334.11"/>
<polygon fill="black" stroke="black" points="313.5,-334.1 310,-324.1 306.5,-334.1 313.5,-334.1"/>
</g>
<!-- ast.Call object at 0x7f0e9d9a25f0 -->
<g id="node7" class="node">
<title>ast.Call object at 0x7f0e9d9a25f0</title>
<path fill="#66cdaa" stroke="black" d="M182,-252C182,-252 152,-252 152,-252 146,-252 140,-246 140,-240 140,-240 140,-228 140,-228 140,-222 146,-216 152,-216 152,-216 182,-216 182,-216 188,-216 194,-222 194,-228 194,-228 194,-240 194,-240 194,-246 188,-252 182,-252"/>
<text text-anchor="middle" x="167" y="-230.3" font-family="Times,serif" font-size="14.00">Call</text>
</g>
<!-- ast.Subscript object at 0x7f0e9d9a1e10&#45;&gt;ast.Call object at 0x7f0e9d9a25f0 -->
<g id="edge6" class="edge">
<title>ast.Subscript object at 0x7f0e9d9a1e10&#45;&gt;ast.Call object at 0x7f0e9d9a25f0</title>
<path fill="none" stroke="black" d="M275.75,-288.23C253.91,-277.55 225.65,-263.71 203.41,-252.82"/>
<polygon fill="black" stroke="black" points="204.8,-249.61 194.28,-248.36 201.73,-255.9 204.8,-249.61"/>
</g>
<!-- ast.Load object at 0x7f0ee65edf60 -->
<g id="node9" class="node">
<title>ast.Load object at 0x7f0ee65edf60</title>
<path fill="#66cdaa" stroke="black" d="M150,-36C150,-36 120,-36 120,-36 114,-36 108,-30 108,-24 108,-24 108,-12 108,-12 108,-6 114,0 120,0 120,0 150,0 150,0 156,0 162,-6 162,-12 162,-12 162,-24 162,-24 162,-30 156,-36 150,-36"/>
<text text-anchor="middle" x="135" y="-14.3" font-family="Times,serif" font-size="14.00">Load</text>
</g>
<!-- ast.Subscript object at 0x7f0e9d9a1e10&#45;&gt;ast.Load object at 0x7f0ee65edf60 -->
<g id="edge18" class="edge">
<title>ast.Subscript object at 0x7f0e9d9a1e10&#45;&gt;ast.Load object at 0x7f0ee65edf60</title>
<path fill="none" stroke="black" d="M314.24,-287.83C323.51,-245.93 340.88,-137.09 290,-72 262.02,-36.21 208.61,-24.45 172.4,-20.66"/>
<polygon fill="black" stroke="black" points="172.49,-17.16 162.22,-19.76 171.87,-24.13 172.49,-17.16"/>
</g>
<!-- ast.Slice object at 0x7f0e9d9a3d90 -->
<g id="node15" class="node">
<title>ast.Slice object at 0x7f0e9d9a3d90</title>
<path fill="#66cdaa" stroke="black" d="M383,-252C383,-252 353,-252 353,-252 347,-252 341,-246 341,-240 341,-240 341,-228 341,-228 341,-222 347,-216 353,-216 353,-216 383,-216 383,-216 389,-216 395,-222 395,-228 395,-228 395,-240 395,-240 395,-246 389,-252 383,-252"/>
<text text-anchor="middle" x="368" y="-230.3" font-family="Times,serif" font-size="14.00">Slice</text>
</g>
<!-- ast.Subscript object at 0x7f0e9d9a1e10&#45;&gt;ast.Slice object at 0x7f0e9d9a3d90 -->
<g id="edge16" class="edge">
<title>ast.Subscript object at 0x7f0e9d9a1e10&#45;&gt;ast.Slice object at 0x7f0e9d9a3d90</title>
<path fill="none" stroke="black" d="M324.34,-287.7C331.29,-279.3 339.77,-269.07 347.4,-259.86"/>
<polygon fill="black" stroke="black" points="350.14,-262.04 353.83,-252.1 344.75,-257.57 350.14,-262.04"/>
</g>
<!-- ast.Name object at 0x7f0e9d9a0850 -->
<g id="node8" class="node">
<title>ast.Name object at 0x7f0e9d9a0850</title>
<path fill="#66cdaa" stroke="black" d="M42,-108C42,-108 12,-108 12,-108 6,-108 0,-102 0,-96 0,-96 0,-84 0,-84 0,-78 6,-72 12,-72 12,-72 42,-72 42,-72 48,-72 54,-78 54,-84 54,-84 54,-96 54,-96 54,-102 48,-108 42,-108"/>
<text text-anchor="middle" x="27" y="-86.3" font-family="Times,serif" font-size="14.00">Name</text>
</g>
<!-- ast.Call object at 0x7f0e9d9a25f0&#45;&gt;ast.Name object at 0x7f0e9d9a0850 -->
<g id="edge7" class="edge">
<title>ast.Call object at 0x7f0e9d9a25f0&#45;&gt;ast.Name object at 0x7f0e9d9a0850</title>
<path fill="none" stroke="black" d="M146.88,-215.82C135.25,-205.67 120.5,-192.42 108,-180 87.05,-159.19 64.54,-134.22 48.58,-116.04"/>
<polygon fill="black" stroke="black" points="50.95,-113.43 41.74,-108.2 45.68,-118.04 50.95,-113.43"/>
</g>
<!-- ast.Name object at 0x7f0e9d9a2740 -->
<g id="node10" class="node">
<title>ast.Name object at 0x7f0e9d9a2740</title>
<path fill="#66cdaa" stroke="black" d="M114,-108C114,-108 84,-108 84,-108 78,-108 72,-102 72,-96 72,-96 72,-84 72,-84 72,-78 78,-72 84,-72 84,-72 114,-72 114,-72 120,-72 126,-78 126,-84 126,-84 126,-96 126,-96 126,-102 120,-108 114,-108"/>
<text text-anchor="middle" x="99" y="-86.3" font-family="Times,serif" font-size="14.00">Name</text>
</g>
<!-- ast.Call object at 0x7f0e9d9a25f0&#45;&gt;ast.Name object at 0x7f0e9d9a2740 -->
<g id="edge9" class="edge">
<title>ast.Call object at 0x7f0e9d9a25f0&#45;&gt;ast.Name object at 0x7f0e9d9a2740</title>
<path fill="none" stroke="black" d="M151.22,-215.96C142.76,-206.07 132.72,-193.03 126,-180 115.85,-160.33 108.83,-136.2 104.49,-118.03"/>
<polygon fill="black" stroke="black" points="107.87,-117.09 102.25,-108.1 101.04,-118.63 107.87,-117.09"/>
</g>
<!-- ast.keyword object at 0x7f0e9d9a0c70 -->
<g id="node11" class="node">
<title>ast.keyword object at 0x7f0e9d9a0c70</title>
<path fill="#66cdaa" stroke="black" d="M187,-180C187,-180 147,-180 147,-180 141,-180 135,-174 135,-168 135,-168 135,-156 135,-156 135,-150 141,-144 147,-144 147,-144 187,-144 187,-144 193,-144 199,-150 199,-156 199,-156 199,-168 199,-168 199,-174 193,-180 187,-180"/>
<text text-anchor="middle" x="167" y="-158.3" font-family="Times,serif" font-size="14.00">keyword</text>
</g>
<!-- ast.Call object at 0x7f0e9d9a25f0&#45;&gt;ast.keyword object at 0x7f0e9d9a0c70 -->
<g id="edge11" class="edge">
<title>ast.Call object at 0x7f0e9d9a25f0&#45;&gt;ast.keyword object at 0x7f0e9d9a0c70</title>
<path fill="none" stroke="black" d="M167,-215.7C167,-207.98 167,-198.71 167,-190.11"/>
<polygon fill="black" stroke="black" points="170.5,-190.1 167,-180.1 163.5,-190.1 170.5,-190.1"/>
</g>
<!-- ast.keyword object at 0x7f0e9d9a0c40 -->
<g id="node13" class="node">
<title>ast.keyword object at 0x7f0e9d9a0c40</title>
<path fill="#66cdaa" stroke="black" d="M269,-180C269,-180 229,-180 229,-180 223,-180 217,-174 217,-168 217,-168 217,-156 217,-156 217,-150 223,-144 229,-144 229,-144 269,-144 269,-144 275,-144 281,-150 281,-156 281,-156 281,-168 281,-168 281,-174 275,-180 269,-180"/>
<text text-anchor="middle" x="249" y="-158.3" font-family="Times,serif" font-size="14.00">keyword</text>
</g>
<!-- ast.Call object at 0x7f0e9d9a25f0&#45;&gt;ast.keyword object at 0x7f0e9d9a0c40 -->
<g id="edge14" class="edge">
<title>ast.Call object at 0x7f0e9d9a25f0&#45;&gt;ast.keyword object at 0x7f0e9d9a0c40</title>
<path fill="none" stroke="black" d="M187.27,-215.7C197.5,-206.97 210.06,-196.24 221.18,-186.75"/>
<polygon fill="black" stroke="black" points="223.63,-189.26 228.96,-180.1 219.09,-183.94 223.63,-189.26"/>
</g>
<!-- ast.Name object at 0x7f0e9d9a0850&#45;&gt;ast.Load object at 0x7f0ee65edf60 -->
<g id="edge8" class="edge">
<title>ast.Name object at 0x7f0e9d9a0850&#45;&gt;ast.Load object at 0x7f0ee65edf60</title>
<path fill="none" stroke="black" d="M53.42,-71.88C67.41,-62.81 84.78,-51.55 99.89,-41.76"/>
<polygon fill="black" stroke="black" points="101.99,-44.57 108.48,-36.19 98.18,-38.69 101.99,-44.57"/>
</g>
<!-- ast.Name object at 0x7f0e9d9a2740&#45;&gt;ast.Load object at 0x7f0ee65edf60 -->
<g id="edge10" class="edge">
<title>ast.Name object at 0x7f0e9d9a2740&#45;&gt;ast.Load object at 0x7f0ee65edf60</title>
<path fill="none" stroke="black" d="M107.9,-71.7C112,-63.73 116.95,-54.1 121.49,-45.26"/>
<polygon fill="black" stroke="black" points="124.74,-46.6 126.2,-36.1 118.52,-43.4 124.74,-46.6"/>
</g>
<!-- ast.Name object at 0x7f0e9d9a0490 -->
<g id="node12" class="node">
<title>ast.Name object at 0x7f0e9d9a0490</title>
<path fill="#66cdaa" stroke="black" d="M186,-108C186,-108 156,-108 156,-108 150,-108 144,-102 144,-96 144,-96 144,-84 144,-84 144,-78 150,-72 156,-72 156,-72 186,-72 186,-72 192,-72 198,-78 198,-84 198,-84 198,-96 198,-96 198,-102 192,-108 186,-108"/>
<text text-anchor="middle" x="171" y="-86.3" font-family="Times,serif" font-size="14.00">Name</text>
</g>
<!-- ast.keyword object at 0x7f0e9d9a0c70&#45;&gt;ast.Name object at 0x7f0e9d9a0490 -->
<g id="edge12" class="edge">
<title>ast.keyword object at 0x7f0e9d9a0c70&#45;&gt;ast.Name object at 0x7f0e9d9a0490</title>
<path fill="none" stroke="black" d="M167.99,-143.7C168.43,-135.98 168.96,-126.71 169.45,-118.11"/>
<polygon fill="black" stroke="black" points="172.95,-118.29 170.02,-108.1 165.96,-117.89 172.95,-118.29"/>
</g>
<!-- ast.Name object at 0x7f0e9d9a0490&#45;&gt;ast.Load object at 0x7f0ee65edf60 -->
<g id="edge13" class="edge">
<title>ast.Name object at 0x7f0e9d9a0490&#45;&gt;ast.Load object at 0x7f0ee65edf60</title>
<path fill="none" stroke="black" d="M162.1,-71.7C158,-63.73 153.05,-54.1 148.51,-45.26"/>
<polygon fill="black" stroke="black" points="151.48,-43.4 143.8,-36.1 145.26,-46.6 151.48,-43.4"/>
</g>
<!-- ast.Constant object at 0x7f0e9d9a3f40 -->
<g id="node14" class="node">
<title>ast.Constant object at 0x7f0e9d9a3f40</title>
<path fill="#66cdaa" stroke="black" d="M269.5,-108C269.5,-108 228.5,-108 228.5,-108 222.5,-108 216.5,-102 216.5,-96 216.5,-96 216.5,-84 216.5,-84 216.5,-78 222.5,-72 228.5,-72 228.5,-72 269.5,-72 269.5,-72 275.5,-72 281.5,-78 281.5,-84 281.5,-84 281.5,-96 281.5,-96 281.5,-102 275.5,-108 269.5,-108"/>
<text text-anchor="middle" x="249" y="-86.3" font-family="Times,serif" font-size="14.00">Constant</text>
</g>
<!-- ast.keyword object at 0x7f0e9d9a0c40&#45;&gt;ast.Constant object at 0x7f0e9d9a3f40 -->
<g id="edge15" class="edge">
<title>ast.keyword object at 0x7f0e9d9a0c40&#45;&gt;ast.Constant object at 0x7f0e9d9a3f40</title>
<path fill="none" stroke="black" d="M249,-143.7C249,-135.98 249,-126.71 249,-118.11"/>
<polygon fill="black" stroke="black" points="252.5,-118.1 249,-108.1 245.5,-118.1 252.5,-118.1"/>
</g>
<!-- ast.Constant object at 0x7f0e9d9a0e20 -->
<g id="node16" class="node">
<title>ast.Constant object at 0x7f0e9d9a0e20</title>
<path fill="#66cdaa" stroke="black" d="M391.5,-180C391.5,-180 350.5,-180 350.5,-180 344.5,-180 338.5,-174 338.5,-168 338.5,-168 338.5,-156 338.5,-156 338.5,-150 344.5,-144 350.5,-144 350.5,-144 391.5,-144 391.5,-144 397.5,-144 403.5,-150 403.5,-156 403.5,-156 403.5,-168 403.5,-168 403.5,-174 397.5,-180 391.5,-180"/>
<text text-anchor="middle" x="371" y="-158.3" font-family="Times,serif" font-size="14.00">Constant</text>
</g>
<!-- ast.Slice object at 0x7f0e9d9a3d90&#45;&gt;ast.Constant object at 0x7f0e9d9a0e20 -->
<g id="edge17" class="edge">
<title>ast.Slice object at 0x7f0e9d9a3d90&#45;&gt;ast.Constant object at 0x7f0e9d9a0e20</title>
<path fill="none" stroke="black" d="M368.74,-215.7C369.07,-207.98 369.47,-198.71 369.84,-190.11"/>
<polygon fill="black" stroke="black" points="373.34,-190.25 370.27,-180.1 366.34,-189.95 373.34,-190.25"/>
</g>
</g>
</svg>
