<?xml version="1.0" encoding="UTF-8" standalone="no"?>
<!DOCTYPE svg PUBLIC "-//W3C//DTD SVG 1.1//EN"
 "http://www.w3.org/Graphics/SVG/1.1/DTD/svg11.dtd">
<!-- Generated by graphviz version 2.43.0 (0)
 -->
<!-- Title: %3 Pages: 1 -->
<svg width="1525pt" height="620pt"
 viewBox="0.00 0.00 1525.00 620.00" xmlns="http://www.w3.org/2000/svg" xmlns:xlink="http://www.w3.org/1999/xlink">
<g id="graph0" class="graph" transform="scale(1 1) rotate(0) translate(4 616)">
<title>%3</title>
<polygon fill="white" stroke="transparent" points="-4,4 -4,-616 1521,-616 1521,4 -4,4"/>
<!-- ast.Module object at 0x7f45ad6f36a0 -->
<g id="node1" class="node">
<title>ast.Module object at 0x7f45ad6f36a0</title>
<path fill="#66cdaa" stroke="black" d="M736,-612C736,-612 701,-612 701,-612 695,-612 689,-606 689,-600 689,-600 689,-588 689,-588 689,-582 695,-576 701,-576 701,-576 736,-576 736,-576 742,-576 748,-582 748,-588 748,-588 748,-600 748,-600 748,-606 742,-612 736,-612"/>
<text text-anchor="middle" x="718.5" y="-590.3" font-family="Times,serif" font-size="14.00">Module</text>
</g>
<!-- ast.FunctionDef object at 0x7f45ad6f16c0 -->
<g id="node2" class="node">
<title>ast.FunctionDef object at 0x7f45ad6f16c0</title>
<path fill="#66cdaa" stroke="black" d="M749,-540C749,-540 688,-540 688,-540 682,-540 676,-534 676,-528 676,-528 676,-516 676,-516 676,-510 682,-504 688,-504 688,-504 749,-504 749,-504 755,-504 761,-510 761,-516 761,-516 761,-528 761,-528 761,-534 755,-540 749,-540"/>
<text text-anchor="middle" x="718.5" y="-518.3" font-family="Times,serif" font-size="14.00">FunctionDef</text>
</g>
<!-- ast.Module object at 0x7f45ad6f36a0&#45;&gt;ast.FunctionDef object at 0x7f45ad6f16c0 -->
<g id="edge1" class="edge">
<title>ast.Module object at 0x7f45ad6f36a0&#45;&gt;ast.FunctionDef object at 0x7f45ad6f16c0</title>
<path fill="none" stroke="black" d="M718.5,-575.7C718.5,-567.98 718.5,-558.71 718.5,-550.11"/>
<polygon fill="black" stroke="black" points="722,-550.1 718.5,-540.1 715,-550.1 722,-550.1"/>
</g>
<!-- ast.arguments object at 0x7f45ad6f3d00 -->
<g id="node3" class="node">
<title>ast.arguments object at 0x7f45ad6f3d00</title>
<path fill="#66cdaa" stroke="black" d="M531.5,-468C531.5,-468 481.5,-468 481.5,-468 475.5,-468 469.5,-462 469.5,-456 469.5,-456 469.5,-444 469.5,-444 469.5,-438 475.5,-432 481.5,-432 481.5,-432 531.5,-432 531.5,-432 537.5,-432 543.5,-438 543.5,-444 543.5,-444 543.5,-456 543.5,-456 543.5,-462 537.5,-468 531.5,-468"/>
<text text-anchor="middle" x="506.5" y="-446.3" font-family="Times,serif" font-size="14.00">arguments</text>
</g>
<!-- ast.FunctionDef object at 0x7f45ad6f16c0&#45;&gt;ast.arguments object at 0x7f45ad6f3d00 -->
<g id="edge2" class="edge">
<title>ast.FunctionDef object at 0x7f45ad6f16c0&#45;&gt;ast.arguments object at 0x7f45ad6f3d00</title>
<path fill="none" stroke="black" d="M675.77,-506.98C643.32,-496.32 597.59,-481.28 557.5,-468 556.09,-467.53 554.65,-467.06 553.21,-466.58"/>
<polygon fill="black" stroke="black" points="554.14,-463.2 543.54,-463.37 551.93,-469.84 554.14,-463.2"/>
</g>
<!-- ast.If object at 0x7f45ad6f29e0 -->
<g id="node5" class="node">
<title>ast.If object at 0x7f45ad6f29e0</title>
<path fill="#66cdaa" stroke="black" d="M203.5,-324C203.5,-324 173.5,-324 173.5,-324 167.5,-324 161.5,-318 161.5,-312 161.5,-312 161.5,-300 161.5,-300 161.5,-294 167.5,-288 173.5,-288 173.5,-288 203.5,-288 203.5,-288 209.5,-288 215.5,-294 215.5,-300 215.5,-300 215.5,-312 215.5,-312 215.5,-318 209.5,-324 203.5,-324"/>
<text text-anchor="middle" x="188.5" y="-302.3" font-family="Times,serif" font-size="14.00">If</text>
</g>
<!-- ast.FunctionDef object at 0x7f45ad6f16c0&#45;&gt;ast.If object at 0x7f45ad6f29e0 -->
<g id="edge4" class="edge">
<title>ast.FunctionDef object at 0x7f45ad6f16c0&#45;&gt;ast.If object at 0x7f45ad6f29e0</title>
<path fill="none" stroke="black" d="M698.27,-503.77C686.31,-493.49 670.93,-480.13 657.5,-468 631.49,-444.5 574.05,-375.29 542.5,-360 486.97,-333.09 304.58,-316.04 225.55,-309.74"/>
<polygon fill="black" stroke="black" points="225.8,-306.25 215.56,-308.96 225.25,-313.23 225.8,-306.25"/>
</g>
<!-- ast.Assign object at 0x7f45ad6f1120 -->
<g id="node15" class="node">
<title>ast.Assign object at 0x7f45ad6f1120</title>
<path fill="#66cdaa" stroke="black" d="M1123.5,-324C1123.5,-324 1093.5,-324 1093.5,-324 1087.5,-324 1081.5,-318 1081.5,-312 1081.5,-312 1081.5,-300 1081.5,-300 1081.5,-294 1087.5,-288 1093.5,-288 1093.5,-288 1123.5,-288 1123.5,-288 1129.5,-288 1135.5,-294 1135.5,-300 1135.5,-300 1135.5,-312 1135.5,-312 1135.5,-318 1129.5,-324 1123.5,-324"/>
<text text-anchor="middle" x="1108.5" y="-302.3" font-family="Times,serif" font-size="14.00">Assign</text>
</g>
<!-- ast.FunctionDef object at 0x7f45ad6f16c0&#45;&gt;ast.Assign object at 0x7f45ad6f1120 -->
<g id="edge15" class="edge">
<title>ast.FunctionDef object at 0x7f45ad6f16c0&#45;&gt;ast.Assign object at 0x7f45ad6f1120</title>
<path fill="none" stroke="black" d="M761.11,-518.82C837.59,-514.13 994.14,-500.72 1036.5,-468 1079.4,-434.87 1097.4,-370.57 1104.42,-334.05"/>
<polygon fill="black" stroke="black" points="1107.88,-334.57 1106.19,-324.11 1100.99,-333.34 1107.88,-334.57"/>
</g>
<!-- ast.If object at 0x7f45ad6f0c70 -->
<g id="node21" class="node">
<title>ast.If object at 0x7f45ad6f0c70</title>
<path fill="#66cdaa" stroke="black" d="M641.5,-396C641.5,-396 611.5,-396 611.5,-396 605.5,-396 599.5,-390 599.5,-384 599.5,-384 599.5,-372 599.5,-372 599.5,-366 605.5,-360 611.5,-360 611.5,-360 641.5,-360 641.5,-360 647.5,-360 653.5,-366 653.5,-372 653.5,-372 653.5,-384 653.5,-384 653.5,-390 647.5,-396 641.5,-396"/>
<text text-anchor="middle" x="626.5" y="-374.3" font-family="Times,serif" font-size="14.00">If</text>
</g>
<!-- ast.FunctionDef object at 0x7f45ad6f16c0&#45;&gt;ast.If object at 0x7f45ad6f0c70 -->
<g id="edge23" class="edge">
<title>ast.FunctionDef object at 0x7f45ad6f16c0&#45;&gt;ast.If object at 0x7f45ad6f0c70</title>
<path fill="none" stroke="black" d="M707.4,-503.87C691.45,-479.24 661.9,-433.64 643.27,-404.88"/>
<polygon fill="black" stroke="black" points="646.01,-402.68 637.64,-396.19 640.14,-406.48 646.01,-402.68"/>
</g>
<!-- ast.Assign object at 0x7f45ad6f0a30 -->
<g id="node33" class="node">
<title>ast.Assign object at 0x7f45ad6f0a30</title>
<path fill="#66cdaa" stroke="black" d="M801.5,-468C801.5,-468 771.5,-468 771.5,-468 765.5,-468 759.5,-462 759.5,-456 759.5,-456 759.5,-444 759.5,-444 759.5,-438 765.5,-432 771.5,-432 771.5,-432 801.5,-432 801.5,-432 807.5,-432 813.5,-438 813.5,-444 813.5,-444 813.5,-456 813.5,-456 813.5,-462 807.5,-468 801.5,-468"/>
<text text-anchor="middle" x="786.5" y="-446.3" font-family="Times,serif" font-size="14.00">Assign</text>
</g>
<!-- ast.FunctionDef object at 0x7f45ad6f16c0&#45;&gt;ast.Assign object at 0x7f45ad6f0a30 -->
<g id="edge38" class="edge">
<title>ast.FunctionDef object at 0x7f45ad6f16c0&#45;&gt;ast.Assign object at 0x7f45ad6f0a30</title>
<path fill="none" stroke="black" d="M735.31,-503.7C743.63,-495.14 753.81,-484.66 762.89,-475.3"/>
<polygon fill="black" stroke="black" points="765.43,-477.72 769.88,-468.1 760.41,-472.84 765.43,-477.72"/>
</g>
<!-- ast.Return object at 0x7f45ad6f2560 -->
<g id="node52" class="node">
<title>ast.Return object at 0x7f45ad6f2560</title>
<path fill="#66cdaa" stroke="black" d="M1015.5,-468C1015.5,-468 985.5,-468 985.5,-468 979.5,-468 973.5,-462 973.5,-456 973.5,-456 973.5,-444 973.5,-444 973.5,-438 979.5,-432 985.5,-432 985.5,-432 1015.5,-432 1015.5,-432 1021.5,-432 1027.5,-438 1027.5,-444 1027.5,-444 1027.5,-456 1027.5,-456 1027.5,-462 1021.5,-468 1015.5,-468"/>
<text text-anchor="middle" x="1000.5" y="-446.3" font-family="Times,serif" font-size="14.00">Return</text>
</g>
<!-- ast.FunctionDef object at 0x7f45ad6f16c0&#45;&gt;ast.Return object at 0x7f45ad6f2560 -->
<g id="edge65" class="edge">
<title>ast.FunctionDef object at 0x7f45ad6f16c0&#45;&gt;ast.Return object at 0x7f45ad6f2560</title>
<path fill="none" stroke="black" d="M761.02,-510.44C816.13,-496.77 911.31,-473.14 963.54,-460.17"/>
<polygon fill="black" stroke="black" points="964.53,-463.54 973.39,-457.73 962.84,-456.74 964.53,-463.54"/>
</g>
<!-- ast.arg object at 0x7f45ad6f0eb0 -->
<g id="node4" class="node">
<title>ast.arg object at 0x7f45ad6f0eb0</title>
<path fill="#66cdaa" stroke="black" d="M521.5,-396C521.5,-396 491.5,-396 491.5,-396 485.5,-396 479.5,-390 479.5,-384 479.5,-384 479.5,-372 479.5,-372 479.5,-366 485.5,-360 491.5,-360 491.5,-360 521.5,-360 521.5,-360 527.5,-360 533.5,-366 533.5,-372 533.5,-372 533.5,-384 533.5,-384 533.5,-390 527.5,-396 521.5,-396"/>
<text text-anchor="middle" x="506.5" y="-374.3" font-family="Times,serif" font-size="14.00">arg</text>
</g>
<!-- ast.arguments object at 0x7f45ad6f3d00&#45;&gt;ast.arg object at 0x7f45ad6f0eb0 -->
<g id="edge3" class="edge">
<title>ast.arguments object at 0x7f45ad6f3d00&#45;&gt;ast.arg object at 0x7f45ad6f0eb0</title>
<path fill="none" stroke="black" d="M506.5,-431.7C506.5,-423.98 506.5,-414.71 506.5,-406.11"/>
<polygon fill="black" stroke="black" points="510,-406.1 506.5,-396.1 503,-406.1 510,-406.1"/>
</g>
<!-- ast.Compare object at 0x7f45ad6f1420 -->
<g id="node6" class="node">
<title>ast.Compare object at 0x7f45ad6f1420</title>
<path fill="#66cdaa" stroke="black" d="M210,-252C210,-252 167,-252 167,-252 161,-252 155,-246 155,-240 155,-240 155,-228 155,-228 155,-222 161,-216 167,-216 167,-216 210,-216 210,-216 216,-216 222,-222 222,-228 222,-228 222,-240 222,-240 222,-246 216,-252 210,-252"/>
<text text-anchor="middle" x="188.5" y="-230.3" font-family="Times,serif" font-size="14.00">Compare</text>
</g>
<!-- ast.If object at 0x7f45ad6f29e0&#45;&gt;ast.Compare object at 0x7f45ad6f1420 -->
<g id="edge5" class="edge">
<title>ast.If object at 0x7f45ad6f29e0&#45;&gt;ast.Compare object at 0x7f45ad6f1420</title>
<path fill="none" stroke="black" d="M188.5,-287.7C188.5,-279.98 188.5,-270.71 188.5,-262.11"/>
<polygon fill="black" stroke="black" points="192,-262.1 188.5,-252.1 185,-262.1 192,-262.1"/>
</g>
<!-- ast.Return object at 0x7f45ad6f2770 -->
<g id="node13" class="node">
<title>ast.Return object at 0x7f45ad6f2770</title>
<path fill="#66cdaa" stroke="black" d="M86.5,-252C86.5,-252 56.5,-252 56.5,-252 50.5,-252 44.5,-246 44.5,-240 44.5,-240 44.5,-228 44.5,-228 44.5,-222 50.5,-216 56.5,-216 56.5,-216 86.5,-216 86.5,-216 92.5,-216 98.5,-222 98.5,-228 98.5,-228 98.5,-240 98.5,-240 98.5,-246 92.5,-252 86.5,-252"/>
<text text-anchor="middle" x="71.5" y="-230.3" font-family="Times,serif" font-size="14.00">Return</text>
</g>
<!-- ast.If object at 0x7f45ad6f29e0&#45;&gt;ast.Return object at 0x7f45ad6f2770 -->
<g id="edge13" class="edge">
<title>ast.If object at 0x7f45ad6f29e0&#45;&gt;ast.Return object at 0x7f45ad6f2770</title>
<path fill="none" stroke="black" d="M161.36,-288.76C145.38,-279.2 124.97,-266.99 107.64,-256.62"/>
<polygon fill="black" stroke="black" points="109.27,-253.52 98.89,-251.39 105.68,-259.53 109.27,-253.52"/>
</g>
<!-- ast.Call object at 0x7f45ad6f12a0 -->
<g id="node7" class="node">
<title>ast.Call object at 0x7f45ad6f12a0</title>
<path fill="#66cdaa" stroke="black" d="M281.5,-180C281.5,-180 251.5,-180 251.5,-180 245.5,-180 239.5,-174 239.5,-168 239.5,-168 239.5,-156 239.5,-156 239.5,-150 245.5,-144 251.5,-144 251.5,-144 281.5,-144 281.5,-144 287.5,-144 293.5,-150 293.5,-156 293.5,-156 293.5,-168 293.5,-168 293.5,-174 287.5,-180 281.5,-180"/>
<text text-anchor="middle" x="266.5" y="-158.3" font-family="Times,serif" font-size="14.00">Call</text>
</g>
<!-- ast.Compare object at 0x7f45ad6f1420&#45;&gt;ast.Call object at 0x7f45ad6f12a0 -->
<g id="edge6" class="edge">
<title>ast.Compare object at 0x7f45ad6f1420&#45;&gt;ast.Call object at 0x7f45ad6f12a0</title>
<path fill="none" stroke="black" d="M207.78,-215.7C217.42,-207.05 229.23,-196.45 239.73,-187.03"/>
<polygon fill="black" stroke="black" points="242.34,-189.39 247.44,-180.1 237.66,-184.18 242.34,-189.39"/>
</g>
<!-- ast.Lt object at 0x7f45ed7ee950 -->
<g id="node11" class="node">
<title>ast.Lt object at 0x7f45ed7ee950</title>
<path fill="#66cdaa" stroke="black" d="M125.5,-180C125.5,-180 95.5,-180 95.5,-180 89.5,-180 83.5,-174 83.5,-168 83.5,-168 83.5,-156 83.5,-156 83.5,-150 89.5,-144 95.5,-144 95.5,-144 125.5,-144 125.5,-144 131.5,-144 137.5,-150 137.5,-156 137.5,-156 137.5,-168 137.5,-168 137.5,-174 131.5,-180 125.5,-180"/>
<text text-anchor="middle" x="110.5" y="-158.3" font-family="Times,serif" font-size="14.00">Lt</text>
</g>
<!-- ast.Compare object at 0x7f45ad6f1420&#45;&gt;ast.Lt object at 0x7f45ed7ee950 -->
<g id="edge11" class="edge">
<title>ast.Compare object at 0x7f45ad6f1420&#45;&gt;ast.Lt object at 0x7f45ed7ee950</title>
<path fill="none" stroke="black" d="M169.22,-215.7C159.58,-207.05 147.77,-196.45 137.27,-187.03"/>
<polygon fill="black" stroke="black" points="139.34,-184.18 129.56,-180.1 134.66,-189.39 139.34,-184.18"/>
</g>
<!-- ast.Constant object at 0x7f45ad6f08e0 -->
<g id="node12" class="node">
<title>ast.Constant object at 0x7f45ad6f08e0</title>
<path fill="#66cdaa" stroke="black" d="M209,-180C209,-180 168,-180 168,-180 162,-180 156,-174 156,-168 156,-168 156,-156 156,-156 156,-150 162,-144 168,-144 168,-144 209,-144 209,-144 215,-144 221,-150 221,-156 221,-156 221,-168 221,-168 221,-174 215,-180 209,-180"/>
<text text-anchor="middle" x="188.5" y="-158.3" font-family="Times,serif" font-size="14.00">Constant</text>
</g>
<!-- ast.Compare object at 0x7f45ad6f1420&#45;&gt;ast.Constant object at 0x7f45ad6f08e0 -->
<g id="edge12" class="edge">
<title>ast.Compare object at 0x7f45ad6f1420&#45;&gt;ast.Constant object at 0x7f45ad6f08e0</title>
<path fill="none" stroke="black" d="M188.5,-215.7C188.5,-207.98 188.5,-198.71 188.5,-190.11"/>
<polygon fill="black" stroke="black" points="192,-190.1 188.5,-180.1 185,-190.1 192,-190.1"/>
</g>
<!-- ast.Name object at 0x7f45ad6f1060 -->
<g id="node8" class="node">
<title>ast.Name object at 0x7f45ad6f1060</title>
<path fill="#66cdaa" stroke="black" d="M357.5,-108C357.5,-108 327.5,-108 327.5,-108 321.5,-108 315.5,-102 315.5,-96 315.5,-96 315.5,-84 315.5,-84 315.5,-78 321.5,-72 327.5,-72 327.5,-72 357.5,-72 357.5,-72 363.5,-72 369.5,-78 369.5,-84 369.5,-84 369.5,-96 369.5,-96 369.5,-102 363.5,-108 357.5,-108"/>
<text text-anchor="middle" x="342.5" y="-86.3" font-family="Times,serif" font-size="14.00">Name</text>
</g>
<!-- ast.Call object at 0x7f45ad6f12a0&#45;&gt;ast.Name object at 0x7f45ad6f1060 -->
<g id="edge7" class="edge">
<title>ast.Call object at 0x7f45ad6f12a0&#45;&gt;ast.Name object at 0x7f45ad6f1060</title>
<path fill="none" stroke="black" d="M285.29,-143.7C294.67,-135.05 306.18,-124.45 316.41,-115.03"/>
<polygon fill="black" stroke="black" points="318.95,-117.45 323.93,-108.1 314.2,-112.3 318.95,-117.45"/>
</g>
<!-- ast.Name object at 0x7f45ad6f27d0 -->
<g id="node10" class="node">
<title>ast.Name object at 0x7f45ad6f27d0</title>
<path fill="#66cdaa" stroke="black" d="M282.5,-108C282.5,-108 252.5,-108 252.5,-108 246.5,-108 240.5,-102 240.5,-96 240.5,-96 240.5,-84 240.5,-84 240.5,-78 246.5,-72 252.5,-72 252.5,-72 282.5,-72 282.5,-72 288.5,-72 294.5,-78 294.5,-84 294.5,-84 294.5,-96 294.5,-96 294.5,-102 288.5,-108 282.5,-108"/>
<text text-anchor="middle" x="267.5" y="-86.3" font-family="Times,serif" font-size="14.00">Name</text>
</g>
<!-- ast.Call object at 0x7f45ad6f12a0&#45;&gt;ast.Name object at 0x7f45ad6f27d0 -->
<g id="edge9" class="edge">
<title>ast.Call object at 0x7f45ad6f12a0&#45;&gt;ast.Name object at 0x7f45ad6f27d0</title>
<path fill="none" stroke="black" d="M266.75,-143.7C266.86,-135.98 266.99,-126.71 267.11,-118.11"/>
<polygon fill="black" stroke="black" points="270.61,-118.15 267.26,-108.1 263.61,-118.05 270.61,-118.15"/>
</g>
<!-- ast.Load object at 0x7f45ed7edf60 -->
<g id="node9" class="node">
<title>ast.Load object at 0x7f45ed7edf60</title>
<path fill="#66cdaa" stroke="black" d="M829.5,-36C829.5,-36 799.5,-36 799.5,-36 793.5,-36 787.5,-30 787.5,-24 787.5,-24 787.5,-12 787.5,-12 787.5,-6 793.5,0 799.5,0 799.5,0 829.5,0 829.5,0 835.5,0 841.5,-6 841.5,-12 841.5,-12 841.5,-24 841.5,-24 841.5,-30 835.5,-36 829.5,-36"/>
<text text-anchor="middle" x="814.5" y="-14.3" font-family="Times,serif" font-size="14.00">Load</text>
</g>
<!-- ast.Name object at 0x7f45ad6f1060&#45;&gt;ast.Load object at 0x7f45ed7edf60 -->
<g id="edge8" class="edge">
<title>ast.Name object at 0x7f45ad6f1060&#45;&gt;ast.Load object at 0x7f45ed7edf60</title>
<path fill="none" stroke="black" d="M369.62,-75.4C372.89,-74.1 376.24,-72.92 379.5,-72 522.82,-31.41 701.36,-21.91 777.42,-19.68"/>
<polygon fill="black" stroke="black" points="777.55,-23.18 787.45,-19.41 777.36,-16.18 777.55,-23.18"/>
</g>
<!-- ast.Name object at 0x7f45ad6f27d0&#45;&gt;ast.Load object at 0x7f45ed7edf60 -->
<g id="edge10" class="edge">
<title>ast.Name object at 0x7f45ad6f27d0&#45;&gt;ast.Load object at 0x7f45ed7edf60</title>
<path fill="none" stroke="black" d="M294.82,-75.85C298.68,-74.36 302.64,-73.02 306.5,-72 478.16,-26.79 691.99,-19.88 777.07,-19.01"/>
<polygon fill="black" stroke="black" points="777.29,-22.51 787.27,-18.93 777.24,-15.51 777.29,-22.51"/>
</g>
<!-- ast.Constant object at 0x7f45ad6f09a0 -->
<g id="node14" class="node">
<title>ast.Constant object at 0x7f45ad6f09a0</title>
<path fill="#66cdaa" stroke="black" d="M53,-180C53,-180 12,-180 12,-180 6,-180 0,-174 0,-168 0,-168 0,-156 0,-156 0,-150 6,-144 12,-144 12,-144 53,-144 53,-144 59,-144 65,-150 65,-156 65,-156 65,-168 65,-168 65,-174 59,-180 53,-180"/>
<text text-anchor="middle" x="32.5" y="-158.3" font-family="Times,serif" font-size="14.00">Constant</text>
</g>
<!-- ast.Return object at 0x7f45ad6f2770&#45;&gt;ast.Constant object at 0x7f45ad6f09a0 -->
<g id="edge14" class="edge">
<title>ast.Return object at 0x7f45ad6f2770&#45;&gt;ast.Constant object at 0x7f45ad6f09a0</title>
<path fill="none" stroke="black" d="M61.86,-215.7C57.37,-207.64 51.94,-197.89 46.98,-188.98"/>
<polygon fill="black" stroke="black" points="49.95,-187.14 42.03,-180.1 43.84,-190.54 49.95,-187.14"/>
</g>
<!-- ast.Name object at 0x7f45ad6f1840 -->
<g id="node16" class="node">
<title>ast.Name object at 0x7f45ad6f1840</title>
<path fill="#66cdaa" stroke="black" d="M1121.5,-252C1121.5,-252 1091.5,-252 1091.5,-252 1085.5,-252 1079.5,-246 1079.5,-240 1079.5,-240 1079.5,-228 1079.5,-228 1079.5,-222 1085.5,-216 1091.5,-216 1091.5,-216 1121.5,-216 1121.5,-216 1127.5,-216 1133.5,-222 1133.5,-228 1133.5,-228 1133.5,-240 1133.5,-240 1133.5,-246 1127.5,-252 1121.5,-252"/>
<text text-anchor="middle" x="1106.5" y="-230.3" font-family="Times,serif" font-size="14.00">Name</text>
</g>
<!-- ast.Assign object at 0x7f45ad6f1120&#45;&gt;ast.Name object at 0x7f45ad6f1840 -->
<g id="edge16" class="edge">
<title>ast.Assign object at 0x7f45ad6f1120&#45;&gt;ast.Name object at 0x7f45ad6f1840</title>
<path fill="none" stroke="black" d="M1108.01,-287.7C1107.79,-279.98 1107.52,-270.71 1107.27,-262.11"/>
<polygon fill="black" stroke="black" points="1110.77,-262 1106.99,-252.1 1103.78,-262.2 1110.77,-262"/>
</g>
<!-- ast.Subscript object at 0x7f45ad6f2e30 -->
<g id="node18" class="node">
<title>ast.Subscript object at 0x7f45ad6f2e30</title>
<path fill="#66cdaa" stroke="black" d="M1404.5,-180C1404.5,-180 1360.5,-180 1360.5,-180 1354.5,-180 1348.5,-174 1348.5,-168 1348.5,-168 1348.5,-156 1348.5,-156 1348.5,-150 1354.5,-144 1360.5,-144 1360.5,-144 1404.5,-144 1404.5,-144 1410.5,-144 1416.5,-150 1416.5,-156 1416.5,-156 1416.5,-168 1416.5,-168 1416.5,-174 1410.5,-180 1404.5,-180"/>
<text text-anchor="middle" x="1382.5" y="-158.3" font-family="Times,serif" font-size="14.00">Subscript</text>
</g>
<!-- ast.Assign object at 0x7f45ad6f1120&#45;&gt;ast.Subscript object at 0x7f45ad6f2e30 -->
<g id="edge18" class="edge">
<title>ast.Assign object at 0x7f45ad6f1120&#45;&gt;ast.Subscript object at 0x7f45ad6f2e30</title>
<path fill="none" stroke="black" d="M1135.55,-294.92C1161.41,-284.98 1201.28,-268.87 1234.5,-252 1274.6,-231.64 1318.51,-204.59 1348.01,-185.67"/>
<polygon fill="black" stroke="black" points="1350.17,-188.44 1356.68,-180.08 1346.38,-182.56 1350.17,-188.44"/>
</g>
<!-- ast.Store object at 0x7f45ed7edfc0 -->
<g id="node17" class="node">
<title>ast.Store object at 0x7f45ed7edfc0</title>
<path fill="#66cdaa" stroke="black" d="M1057.5,-180C1057.5,-180 1027.5,-180 1027.5,-180 1021.5,-180 1015.5,-174 1015.5,-168 1015.5,-168 1015.5,-156 1015.5,-156 1015.5,-150 1021.5,-144 1027.5,-144 1027.5,-144 1057.5,-144 1057.5,-144 1063.5,-144 1069.5,-150 1069.5,-156 1069.5,-156 1069.5,-168 1069.5,-168 1069.5,-174 1063.5,-180 1057.5,-180"/>
<text text-anchor="middle" x="1042.5" y="-158.3" font-family="Times,serif" font-size="14.00">Store</text>
</g>
<!-- ast.Name object at 0x7f45ad6f1840&#45;&gt;ast.Store object at 0x7f45ed7edfc0 -->
<g id="edge17" class="edge">
<title>ast.Name object at 0x7f45ad6f1840&#45;&gt;ast.Store object at 0x7f45ed7edfc0</title>
<path fill="none" stroke="black" d="M1090.68,-215.7C1082.93,-207.22 1073.46,-196.86 1064.98,-187.58"/>
<polygon fill="black" stroke="black" points="1067.47,-185.12 1058.14,-180.1 1062.3,-189.85 1067.47,-185.12"/>
</g>
<!-- ast.Subscript object at 0x7f45ad6f2e30&#45;&gt;ast.Load object at 0x7f45ed7edf60 -->
<g id="edge22" class="edge">
<title>ast.Subscript object at 0x7f45ad6f2e30&#45;&gt;ast.Load object at 0x7f45ed7edf60</title>
<path fill="none" stroke="black" d="M1378.12,-143.94C1371.8,-123.15 1357.99,-88.72 1332.5,-72 1253.3,-20.06 956.67,-17.64 851.65,-18.47"/>
<polygon fill="black" stroke="black" points="851.49,-14.97 841.52,-18.57 851.55,-21.97 851.49,-14.97"/>
</g>
<!-- ast.Name object at 0x7f45ad6f3070 -->
<g id="node19" class="node">
<title>ast.Name object at 0x7f45ad6f3070</title>
<path fill="#66cdaa" stroke="black" d="M1421.5,-108C1421.5,-108 1391.5,-108 1391.5,-108 1385.5,-108 1379.5,-102 1379.5,-96 1379.5,-96 1379.5,-84 1379.5,-84 1379.5,-78 1385.5,-72 1391.5,-72 1391.5,-72 1421.5,-72 1421.5,-72 1427.5,-72 1433.5,-78 1433.5,-84 1433.5,-84 1433.5,-96 1433.5,-96 1433.5,-102 1427.5,-108 1421.5,-108"/>
<text text-anchor="middle" x="1406.5" y="-86.3" font-family="Times,serif" font-size="14.00">Name</text>
</g>
<!-- ast.Subscript object at 0x7f45ad6f2e30&#45;&gt;ast.Name object at 0x7f45ad6f3070 -->
<g id="edge19" class="edge">
<title>ast.Subscript object at 0x7f45ad6f2e30&#45;&gt;ast.Name object at 0x7f45ad6f3070</title>
<path fill="none" stroke="black" d="M1388.43,-143.7C1391.11,-135.9 1394.33,-126.51 1397.3,-117.83"/>
<polygon fill="black" stroke="black" points="1400.7,-118.7 1400.64,-108.1 1394.08,-116.43 1400.7,-118.7"/>
</g>
<!-- ast.Constant object at 0x7f45ad6f2800 -->
<g id="node20" class="node">
<title>ast.Constant object at 0x7f45ad6f2800</title>
<path fill="#66cdaa" stroke="black" d="M1505,-108C1505,-108 1464,-108 1464,-108 1458,-108 1452,-102 1452,-96 1452,-96 1452,-84 1452,-84 1452,-78 1458,-72 1464,-72 1464,-72 1505,-72 1505,-72 1511,-72 1517,-78 1517,-84 1517,-84 1517,-96 1517,-96 1517,-102 1511,-108 1505,-108"/>
<text text-anchor="middle" x="1484.5" y="-86.3" font-family="Times,serif" font-size="14.00">Constant</text>
</g>
<!-- ast.Subscript object at 0x7f45ad6f2e30&#45;&gt;ast.Constant object at 0x7f45ad6f2800 -->
<g id="edge21" class="edge">
<title>ast.Subscript object at 0x7f45ad6f2e30&#45;&gt;ast.Constant object at 0x7f45ad6f2800</title>
<path fill="none" stroke="black" d="M1407.45,-143.88C1420.54,-134.89 1436.76,-123.76 1450.94,-114.03"/>
<polygon fill="black" stroke="black" points="1453.19,-116.73 1459.45,-108.19 1449.23,-110.96 1453.19,-116.73"/>
</g>
<!-- ast.Name object at 0x7f45ad6f3070&#45;&gt;ast.Load object at 0x7f45ed7edf60 -->
<g id="edge20" class="edge">
<title>ast.Name object at 0x7f45ad6f3070&#45;&gt;ast.Load object at 0x7f45ed7edf60</title>
<path fill="none" stroke="black" d="M1379.09,-76.33C1374.62,-74.65 1369.99,-73.12 1365.5,-72 1176.67,-24.89 941.78,-19.15 851.87,-18.8"/>
<polygon fill="black" stroke="black" points="851.65,-15.3 841.64,-18.79 851.63,-22.3 851.65,-15.3"/>
</g>
<!-- ast.BoolOp object at 0x7f45ad6f31f0 -->
<g id="node22" class="node">
<title>ast.BoolOp object at 0x7f45ad6f31f0</title>
<path fill="#66cdaa" stroke="black" d="M494,-324C494,-324 459,-324 459,-324 453,-324 447,-318 447,-312 447,-312 447,-300 447,-300 447,-294 453,-288 459,-288 459,-288 494,-288 494,-288 500,-288 506,-294 506,-300 506,-300 506,-312 506,-312 506,-318 500,-324 494,-324"/>
<text text-anchor="middle" x="476.5" y="-302.3" font-family="Times,serif" font-size="14.00">BoolOp</text>
</g>
<!-- ast.If object at 0x7f45ad6f0c70&#45;&gt;ast.BoolOp object at 0x7f45ad6f31f0 -->
<g id="edge24" class="edge">
<title>ast.If object at 0x7f45ad6f0c70&#45;&gt;ast.BoolOp object at 0x7f45ad6f31f0</title>
<path fill="none" stroke="black" d="M599.34,-364.32C575.88,-353.38 541.7,-337.43 515.35,-325.13"/>
<polygon fill="black" stroke="black" points="516.57,-321.84 506.03,-320.78 513.61,-328.18 516.57,-321.84"/>
</g>
<!-- ast.Return object at 0x7f45ad6f2b30 -->
<g id="node31" class="node">
<title>ast.Return object at 0x7f45ad6f2b30</title>
<path fill="#66cdaa" stroke="black" d="M624.5,-324C624.5,-324 594.5,-324 594.5,-324 588.5,-324 582.5,-318 582.5,-312 582.5,-312 582.5,-300 582.5,-300 582.5,-294 588.5,-288 594.5,-288 594.5,-288 624.5,-288 624.5,-288 630.5,-288 636.5,-294 636.5,-300 636.5,-300 636.5,-312 636.5,-312 636.5,-318 630.5,-324 624.5,-324"/>
<text text-anchor="middle" x="609.5" y="-302.3" font-family="Times,serif" font-size="14.00">Return</text>
</g>
<!-- ast.If object at 0x7f45ad6f0c70&#45;&gt;ast.Return object at 0x7f45ad6f2b30 -->
<g id="edge36" class="edge">
<title>ast.If object at 0x7f45ad6f0c70&#45;&gt;ast.Return object at 0x7f45ad6f2b30</title>
<path fill="none" stroke="black" d="M622.3,-359.7C620.4,-351.9 618.12,-342.51 616.02,-333.83"/>
<polygon fill="black" stroke="black" points="619.42,-333 613.65,-324.1 612.61,-334.65 619.42,-333"/>
</g>
<!-- ast.Or object at 0x7f45ed7ee110 -->
<g id="node23" class="node">
<title>ast.Or object at 0x7f45ed7ee110</title>
<path fill="#66cdaa" stroke="black" d="M452.5,-252C452.5,-252 422.5,-252 422.5,-252 416.5,-252 410.5,-246 410.5,-240 410.5,-240 410.5,-228 410.5,-228 410.5,-222 416.5,-216 422.5,-216 422.5,-216 452.5,-216 452.5,-216 458.5,-216 464.5,-222 464.5,-228 464.5,-228 464.5,-240 464.5,-240 464.5,-246 458.5,-252 452.5,-252"/>
<text text-anchor="middle" x="437.5" y="-230.3" font-family="Times,serif" font-size="14.00">Or</text>
</g>
<!-- ast.BoolOp object at 0x7f45ad6f31f0&#45;&gt;ast.Or object at 0x7f45ed7ee110 -->
<g id="edge25" class="edge">
<title>ast.BoolOp object at 0x7f45ad6f31f0&#45;&gt;ast.Or object at 0x7f45ed7ee110</title>
<path fill="none" stroke="black" d="M466.86,-287.7C462.37,-279.64 456.94,-269.89 451.98,-260.98"/>
<polygon fill="black" stroke="black" points="454.95,-259.14 447.03,-252.1 448.84,-262.54 454.95,-259.14"/>
</g>
<!-- ast.Compare object at 0x7f45ad6f1300 -->
<g id="node24" class="node">
<title>ast.Compare object at 0x7f45ad6f1300</title>
<path fill="#66cdaa" stroke="black" d="M538,-252C538,-252 495,-252 495,-252 489,-252 483,-246 483,-240 483,-240 483,-228 483,-228 483,-222 489,-216 495,-216 495,-216 538,-216 538,-216 544,-216 550,-222 550,-228 550,-228 550,-240 550,-240 550,-246 544,-252 538,-252"/>
<text text-anchor="middle" x="516.5" y="-230.3" font-family="Times,serif" font-size="14.00">Compare</text>
</g>
<!-- ast.BoolOp object at 0x7f45ad6f31f0&#45;&gt;ast.Compare object at 0x7f45ad6f1300 -->
<g id="edge26" class="edge">
<title>ast.BoolOp object at 0x7f45ad6f31f0&#45;&gt;ast.Compare object at 0x7f45ad6f1300</title>
<path fill="none" stroke="black" d="M486.39,-287.7C490.99,-279.64 496.56,-269.89 501.65,-260.98"/>
<polygon fill="black" stroke="black" points="504.8,-262.52 506.73,-252.1 498.73,-259.05 504.8,-262.52"/>
</g>
<!-- ast.Compare object at 0x7f45ad6f0370 -->
<g id="node28" class="node">
<title>ast.Compare object at 0x7f45ad6f0370</title>
<path fill="#66cdaa" stroke="black" d="M380,-252C380,-252 337,-252 337,-252 331,-252 325,-246 325,-240 325,-240 325,-228 325,-228 325,-222 331,-216 337,-216 337,-216 380,-216 380,-216 386,-216 392,-222 392,-228 392,-228 392,-240 392,-240 392,-246 386,-252 380,-252"/>
<text text-anchor="middle" x="358.5" y="-230.3" font-family="Times,serif" font-size="14.00">Compare</text>
</g>
<!-- ast.BoolOp object at 0x7f45ad6f31f0&#45;&gt;ast.Compare object at 0x7f45ad6f0370 -->
<g id="edge31" class="edge">
<title>ast.BoolOp object at 0x7f45ad6f31f0&#45;&gt;ast.Compare object at 0x7f45ad6f0370</title>
<path fill="none" stroke="black" d="M447.63,-287.88C432.21,-278.72 413.02,-267.34 396.4,-257.48"/>
<polygon fill="black" stroke="black" points="397.86,-254.28 387.48,-252.19 394.29,-260.3 397.86,-254.28"/>
</g>
<!-- ast.Name object at 0x7f45ad6f3820 -->
<g id="node25" class="node">
<title>ast.Name object at 0x7f45ad6f3820</title>
<path fill="#66cdaa" stroke="black" d="M503.5,-108C503.5,-108 473.5,-108 473.5,-108 467.5,-108 461.5,-102 461.5,-96 461.5,-96 461.5,-84 461.5,-84 461.5,-78 467.5,-72 473.5,-72 473.5,-72 503.5,-72 503.5,-72 509.5,-72 515.5,-78 515.5,-84 515.5,-84 515.5,-96 515.5,-96 515.5,-102 509.5,-108 503.5,-108"/>
<text text-anchor="middle" x="488.5" y="-86.3" font-family="Times,serif" font-size="14.00">Name</text>
</g>
<!-- ast.Compare object at 0x7f45ad6f1300&#45;&gt;ast.Name object at 0x7f45ad6f3820 -->
<g id="edge27" class="edge">
<title>ast.Compare object at 0x7f45ad6f1300&#45;&gt;ast.Name object at 0x7f45ad6f3820</title>
<path fill="none" stroke="black" d="M516.33,-215.72C515.83,-197.63 514.11,-168.5 508.5,-144 506.5,-135.28 503.4,-126.06 500.22,-117.8"/>
<polygon fill="black" stroke="black" points="503.38,-116.26 496.39,-108.3 496.89,-118.88 503.38,-116.26"/>
</g>
<!-- ast.Eq object at 0x7f45ed7ee890 -->
<g id="node26" class="node">
<title>ast.Eq object at 0x7f45ed7ee890</title>
<path fill="#66cdaa" stroke="black" d="M635.5,-180C635.5,-180 605.5,-180 605.5,-180 599.5,-180 593.5,-174 593.5,-168 593.5,-168 593.5,-156 593.5,-156 593.5,-150 599.5,-144 605.5,-144 605.5,-144 635.5,-144 635.5,-144 641.5,-144 647.5,-150 647.5,-156 647.5,-156 647.5,-168 647.5,-168 647.5,-174 641.5,-180 635.5,-180"/>
<text text-anchor="middle" x="620.5" y="-158.3" font-family="Times,serif" font-size="14.00">Eq</text>
</g>
<!-- ast.Compare object at 0x7f45ad6f1300&#45;&gt;ast.Eq object at 0x7f45ed7ee890 -->
<g id="edge29" class="edge">
<title>ast.Compare object at 0x7f45ad6f1300&#45;&gt;ast.Eq object at 0x7f45ed7ee890</title>
<path fill="none" stroke="black" d="M541.94,-215.88C555.29,-206.89 571.82,-195.76 586.28,-186.03"/>
<polygon fill="black" stroke="black" points="588.62,-188.68 594.96,-180.19 584.71,-182.87 588.62,-188.68"/>
</g>
<!-- ast.Constant object at 0x7f45ad6f3d90 -->
<g id="node27" class="node">
<title>ast.Constant object at 0x7f45ad6f3d90</title>
<path fill="#66cdaa" stroke="black" d="M487,-180C487,-180 446,-180 446,-180 440,-180 434,-174 434,-168 434,-168 434,-156 434,-156 434,-150 440,-144 446,-144 446,-144 487,-144 487,-144 493,-144 499,-150 499,-156 499,-156 499,-168 499,-168 499,-174 493,-180 487,-180"/>
<text text-anchor="middle" x="466.5" y="-158.3" font-family="Times,serif" font-size="14.00">Constant</text>
</g>
<!-- ast.Compare object at 0x7f45ad6f1300&#45;&gt;ast.Constant object at 0x7f45ad6f3d90 -->
<g id="edge30" class="edge">
<title>ast.Compare object at 0x7f45ad6f1300&#45;&gt;ast.Constant object at 0x7f45ad6f3d90</title>
<path fill="none" stroke="black" d="M504.14,-215.7C498.27,-207.47 491.13,-197.48 484.66,-188.42"/>
<polygon fill="black" stroke="black" points="487.38,-186.21 478.72,-180.1 481.68,-190.28 487.38,-186.21"/>
</g>
<!-- ast.Name object at 0x7f45ad6f3820&#45;&gt;ast.Load object at 0x7f45ed7edf60 -->
<g id="edge28" class="edge">
<title>ast.Name object at 0x7f45ad6f3820&#45;&gt;ast.Load object at 0x7f45ed7edf60</title>
<path fill="none" stroke="black" d="M515.56,-76.85C520.15,-75.06 524.92,-73.36 529.5,-72 616.53,-46.18 722.4,-30.43 777.36,-23.38"/>
<polygon fill="black" stroke="black" points="777.85,-26.85 787.34,-22.13 776.98,-19.9 777.85,-26.85"/>
</g>
<!-- ast.Compare object at 0x7f45ad6f0370&#45;&gt;ast.Eq object at 0x7f45ed7ee890 -->
<g id="edge34" class="edge">
<title>ast.Compare object at 0x7f45ad6f0370&#45;&gt;ast.Eq object at 0x7f45ed7ee890</title>
<path fill="none" stroke="black" d="M392.14,-219.19C395.28,-218.05 398.44,-216.97 401.5,-216 464.33,-196.08 539.32,-179.42 583.25,-170.36"/>
<polygon fill="black" stroke="black" points="584.1,-173.76 593.19,-168.33 582.7,-166.9 584.1,-173.76"/>
</g>
<!-- ast.Name object at 0x7f45ad6f3c10 -->
<g id="node29" class="node">
<title>ast.Name object at 0x7f45ad6f3c10</title>
<path fill="#66cdaa" stroke="black" d="M430.5,-108C430.5,-108 400.5,-108 400.5,-108 394.5,-108 388.5,-102 388.5,-96 388.5,-96 388.5,-84 388.5,-84 388.5,-78 394.5,-72 400.5,-72 400.5,-72 430.5,-72 430.5,-72 436.5,-72 442.5,-78 442.5,-84 442.5,-84 442.5,-96 442.5,-96 442.5,-102 436.5,-108 430.5,-108"/>
<text text-anchor="middle" x="415.5" y="-86.3" font-family="Times,serif" font-size="14.00">Name</text>
</g>
<!-- ast.Compare object at 0x7f45ad6f0370&#45;&gt;ast.Name object at 0x7f45ad6f3c10 -->
<g id="edge32" class="edge">
<title>ast.Compare object at 0x7f45ad6f0370&#45;&gt;ast.Name object at 0x7f45ad6f3c10</title>
<path fill="none" stroke="black" d="M368.6,-215.7C374.31,-205.52 381.31,-192.27 386.5,-180 395.13,-159.61 402.79,-135.71 408.07,-117.82"/>
<polygon fill="black" stroke="black" points="411.48,-118.62 410.89,-108.05 404.75,-116.68 411.48,-118.62"/>
</g>
<!-- ast.Constant object at 0x7f45ad6f22f0 -->
<g id="node30" class="node">
<title>ast.Constant object at 0x7f45ad6f22f0</title>
<path fill="#66cdaa" stroke="black" d="M365,-180C365,-180 324,-180 324,-180 318,-180 312,-174 312,-168 312,-168 312,-156 312,-156 312,-150 318,-144 324,-144 324,-144 365,-144 365,-144 371,-144 377,-150 377,-156 377,-156 377,-168 377,-168 377,-174 371,-180 365,-180"/>
<text text-anchor="middle" x="344.5" y="-158.3" font-family="Times,serif" font-size="14.00">Constant</text>
</g>
<!-- ast.Compare object at 0x7f45ad6f0370&#45;&gt;ast.Constant object at 0x7f45ad6f22f0 -->
<g id="edge35" class="edge">
<title>ast.Compare object at 0x7f45ad6f0370&#45;&gt;ast.Constant object at 0x7f45ad6f22f0</title>
<path fill="none" stroke="black" d="M355.04,-215.7C353.5,-207.98 351.64,-198.71 349.92,-190.11"/>
<polygon fill="black" stroke="black" points="353.31,-189.22 347.92,-180.1 346.45,-190.6 353.31,-189.22"/>
</g>
<!-- ast.Name object at 0x7f45ad6f3c10&#45;&gt;ast.Load object at 0x7f45ed7edf60 -->
<g id="edge33" class="edge">
<title>ast.Name object at 0x7f45ad6f3c10&#45;&gt;ast.Load object at 0x7f45ed7edf60</title>
<path fill="none" stroke="black" d="M442.64,-75.48C445.91,-74.16 449.25,-72.96 452.5,-72 567.83,-37.83 710.62,-25.21 777.13,-20.96"/>
<polygon fill="black" stroke="black" points="777.37,-24.45 787.14,-20.35 776.94,-17.46 777.37,-24.45"/>
</g>
<!-- ast.Constant object at 0x7f45ad6f3160 -->
<g id="node32" class="node">
<title>ast.Constant object at 0x7f45ad6f3160</title>
<path fill="#66cdaa" stroke="black" d="M621,-252C621,-252 580,-252 580,-252 574,-252 568,-246 568,-240 568,-240 568,-228 568,-228 568,-222 574,-216 580,-216 580,-216 621,-216 621,-216 627,-216 633,-222 633,-228 633,-228 633,-240 633,-240 633,-246 627,-252 621,-252"/>
<text text-anchor="middle" x="600.5" y="-230.3" font-family="Times,serif" font-size="14.00">Constant</text>
</g>
<!-- ast.Return object at 0x7f45ad6f2b30&#45;&gt;ast.Constant object at 0x7f45ad6f3160 -->
<g id="edge37" class="edge">
<title>ast.Return object at 0x7f45ad6f2b30&#45;&gt;ast.Constant object at 0x7f45ad6f3160</title>
<path fill="none" stroke="black" d="M607.28,-287.7C606.28,-279.98 605.09,-270.71 603.99,-262.11"/>
<polygon fill="black" stroke="black" points="607.45,-261.58 602.7,-252.1 600.5,-262.47 607.45,-261.58"/>
</g>
<!-- ast.Name object at 0x7f45ad6f38e0 -->
<g id="node34" class="node">
<title>ast.Name object at 0x7f45ad6f38e0</title>
<path fill="#66cdaa" stroke="black" d="M945.5,-396C945.5,-396 915.5,-396 915.5,-396 909.5,-396 903.5,-390 903.5,-384 903.5,-384 903.5,-372 903.5,-372 903.5,-366 909.5,-360 915.5,-360 915.5,-360 945.5,-360 945.5,-360 951.5,-360 957.5,-366 957.5,-372 957.5,-372 957.5,-384 957.5,-384 957.5,-390 951.5,-396 945.5,-396"/>
<text text-anchor="middle" x="930.5" y="-374.3" font-family="Times,serif" font-size="14.00">Name</text>
</g>
<!-- ast.Assign object at 0x7f45ad6f0a30&#45;&gt;ast.Name object at 0x7f45ad6f38e0 -->
<g id="edge39" class="edge">
<title>ast.Assign object at 0x7f45ad6f0a30&#45;&gt;ast.Name object at 0x7f45ad6f38e0</title>
<path fill="none" stroke="black" d="M813.59,-435.83C836.27,-424.81 868.86,-408.97 893.87,-396.81"/>
<polygon fill="black" stroke="black" points="895.58,-399.87 903.05,-392.35 892.52,-393.57 895.58,-399.87"/>
</g>
<!-- ast.ListComp object at 0x7f45ad6f3580 -->
<g id="node35" class="node">
<title>ast.ListComp object at 0x7f45ad6f3580</title>
<path fill="#66cdaa" stroke="black" d="M810,-396C810,-396 763,-396 763,-396 757,-396 751,-390 751,-384 751,-384 751,-372 751,-372 751,-366 757,-360 763,-360 763,-360 810,-360 810,-360 816,-360 822,-366 822,-372 822,-372 822,-384 822,-384 822,-390 816,-396 810,-396"/>
<text text-anchor="middle" x="786.5" y="-374.3" font-family="Times,serif" font-size="14.00">ListComp</text>
</g>
<!-- ast.Assign object at 0x7f45ad6f0a30&#45;&gt;ast.ListComp object at 0x7f45ad6f3580 -->
<g id="edge41" class="edge">
<title>ast.Assign object at 0x7f45ad6f0a30&#45;&gt;ast.ListComp object at 0x7f45ad6f3580</title>
<path fill="none" stroke="black" d="M786.5,-431.7C786.5,-423.98 786.5,-414.71 786.5,-406.11"/>
<polygon fill="black" stroke="black" points="790,-406.1 786.5,-396.1 783,-406.1 790,-406.1"/>
</g>
<!-- ast.Name object at 0x7f45ad6f38e0&#45;&gt;ast.Store object at 0x7f45ed7edfc0 -->
<g id="edge40" class="edge">
<title>ast.Name object at 0x7f45ad6f38e0&#45;&gt;ast.Store object at 0x7f45ed7edfc0</title>
<path fill="none" stroke="black" d="M935.36,-359.64C944.37,-329.11 965.5,-264.43 995.5,-216 1001.65,-206.07 1009.7,-196.22 1017.4,-187.75"/>
<polygon fill="black" stroke="black" points="1020.01,-190.09 1024.3,-180.4 1014.91,-185.29 1020.01,-190.09"/>
</g>
<!-- ast.Name object at 0x7f45ad6f15a0 -->
<g id="node36" class="node">
<title>ast.Name object at 0x7f45ad6f15a0</title>
<path fill="#66cdaa" stroke="black" d="M700.5,-324C700.5,-324 670.5,-324 670.5,-324 664.5,-324 658.5,-318 658.5,-312 658.5,-312 658.5,-300 658.5,-300 658.5,-294 664.5,-288 670.5,-288 670.5,-288 700.5,-288 700.5,-288 706.5,-288 712.5,-294 712.5,-300 712.5,-300 712.5,-312 712.5,-312 712.5,-318 706.5,-324 700.5,-324"/>
<text text-anchor="middle" x="685.5" y="-302.3" font-family="Times,serif" font-size="14.00">Name</text>
</g>
<!-- ast.ListComp object at 0x7f45ad6f3580&#45;&gt;ast.Name object at 0x7f45ad6f15a0 -->
<g id="edge42" class="edge">
<title>ast.ListComp object at 0x7f45ad6f3580&#45;&gt;ast.Name object at 0x7f45ad6f15a0</title>
<path fill="none" stroke="black" d="M761.79,-359.88C748.83,-350.89 732.77,-339.76 718.73,-330.03"/>
<polygon fill="black" stroke="black" points="720.52,-327.01 710.3,-324.19 716.53,-332.76 720.52,-327.01"/>
</g>
<!-- ast.comprehension object at 0x7f45ad6f21a0 -->
<g id="node37" class="node">
<title>ast.comprehension object at 0x7f45ad6f21a0</title>
<path fill="#66cdaa" stroke="black" d="M844.5,-324C844.5,-324 768.5,-324 768.5,-324 762.5,-324 756.5,-318 756.5,-312 756.5,-312 756.5,-300 756.5,-300 756.5,-294 762.5,-288 768.5,-288 768.5,-288 844.5,-288 844.5,-288 850.5,-288 856.5,-294 856.5,-300 856.5,-300 856.5,-312 856.5,-312 856.5,-318 850.5,-324 844.5,-324"/>
<text text-anchor="middle" x="806.5" y="-302.3" font-family="Times,serif" font-size="14.00">comprehension</text>
</g>
<!-- ast.ListComp object at 0x7f45ad6f3580&#45;&gt;ast.comprehension object at 0x7f45ad6f21a0 -->
<g id="edge44" class="edge">
<title>ast.ListComp object at 0x7f45ad6f3580&#45;&gt;ast.comprehension object at 0x7f45ad6f21a0</title>
<path fill="none" stroke="black" d="M791.44,-359.7C793.67,-351.9 796.35,-342.51 798.83,-333.83"/>
<polygon fill="black" stroke="black" points="802.23,-334.68 801.61,-324.1 795.5,-332.76 802.23,-334.68"/>
</g>
<!-- ast.Name object at 0x7f45ad6f15a0&#45;&gt;ast.Load object at 0x7f45ed7edf60 -->
<g id="edge43" class="edge">
<title>ast.Name object at 0x7f45ad6f15a0&#45;&gt;ast.Load object at 0x7f45ed7edf60</title>
<path fill="none" stroke="black" d="M680.47,-287.93C674.13,-268.69 661.67,-237.3 642.5,-216 622.21,-193.45 603,-204.04 584.5,-180 554.62,-141.18 531.63,-110.04 562.5,-72 589.12,-39.2 713.76,-25.94 777.2,-21.25"/>
<polygon fill="black" stroke="black" points="777.47,-24.74 787.2,-20.55 776.98,-17.76 777.47,-24.74"/>
</g>
<!-- ast.Name object at 0x7f45ad6f2350 -->
<g id="node38" class="node">
<title>ast.Name object at 0x7f45ad6f2350</title>
<path fill="#66cdaa" stroke="black" d="M927.5,-252C927.5,-252 897.5,-252 897.5,-252 891.5,-252 885.5,-246 885.5,-240 885.5,-240 885.5,-228 885.5,-228 885.5,-222 891.5,-216 897.5,-216 897.5,-216 927.5,-216 927.5,-216 933.5,-216 939.5,-222 939.5,-228 939.5,-228 939.5,-240 939.5,-240 939.5,-246 933.5,-252 927.5,-252"/>
<text text-anchor="middle" x="912.5" y="-230.3" font-family="Times,serif" font-size="14.00">Name</text>
</g>
<!-- ast.comprehension object at 0x7f45ad6f21a0&#45;&gt;ast.Name object at 0x7f45ad6f2350 -->
<g id="edge45" class="edge">
<title>ast.comprehension object at 0x7f45ad6f21a0&#45;&gt;ast.Name object at 0x7f45ad6f2350</title>
<path fill="none" stroke="black" d="M832.43,-287.88C846.16,-278.81 863.21,-267.55 878.04,-257.76"/>
<polygon fill="black" stroke="black" points="880.05,-260.62 886.47,-252.19 876.2,-254.78 880.05,-260.62"/>
</g>
<!-- ast.Call object at 0x7f45ad6f01c0 -->
<g id="node39" class="node">
<title>ast.Call object at 0x7f45ad6f01c0</title>
<path fill="#66cdaa" stroke="black" d="M855.5,-252C855.5,-252 825.5,-252 825.5,-252 819.5,-252 813.5,-246 813.5,-240 813.5,-240 813.5,-228 813.5,-228 813.5,-222 819.5,-216 825.5,-216 825.5,-216 855.5,-216 855.5,-216 861.5,-216 867.5,-222 867.5,-228 867.5,-228 867.5,-240 867.5,-240 867.5,-246 861.5,-252 855.5,-252"/>
<text text-anchor="middle" x="840.5" y="-230.3" font-family="Times,serif" font-size="14.00">Call</text>
</g>
<!-- ast.comprehension object at 0x7f45ad6f21a0&#45;&gt;ast.Call object at 0x7f45ad6f01c0 -->
<g id="edge47" class="edge">
<title>ast.comprehension object at 0x7f45ad6f21a0&#45;&gt;ast.Call object at 0x7f45ad6f01c0</title>
<path fill="none" stroke="black" d="M814.9,-287.7C818.77,-279.73 823.45,-270.1 827.74,-261.26"/>
<polygon fill="black" stroke="black" points="830.97,-262.63 832.19,-252.1 824.67,-259.57 830.97,-262.63"/>
</g>
<!-- ast.Compare object at 0x7f45ad6f3670 -->
<g id="node46" class="node">
<title>ast.Compare object at 0x7f45ad6f3670</title>
<path fill="#66cdaa" stroke="black" d="M783,-252C783,-252 740,-252 740,-252 734,-252 728,-246 728,-240 728,-240 728,-228 728,-228 728,-222 734,-216 740,-216 740,-216 783,-216 783,-216 789,-216 795,-222 795,-228 795,-228 795,-240 795,-240 795,-246 789,-252 783,-252"/>
<text text-anchor="middle" x="761.5" y="-230.3" font-family="Times,serif" font-size="14.00">Compare</text>
</g>
<!-- ast.comprehension object at 0x7f45ad6f21a0&#45;&gt;ast.Compare object at 0x7f45ad6f3670 -->
<g id="edge56" class="edge">
<title>ast.comprehension object at 0x7f45ad6f21a0&#45;&gt;ast.Compare object at 0x7f45ad6f3670</title>
<path fill="none" stroke="black" d="M795.38,-287.7C790.14,-279.56 783.8,-269.69 778.02,-260.7"/>
<polygon fill="black" stroke="black" points="780.85,-258.62 772.5,-252.1 774.96,-262.41 780.85,-258.62"/>
</g>
<!-- ast.Name object at 0x7f45ad6f2350&#45;&gt;ast.Store object at 0x7f45ed7edfc0 -->
<g id="edge46" class="edge">
<title>ast.Name object at 0x7f45ad6f2350&#45;&gt;ast.Store object at 0x7f45ed7edfc0</title>
<path fill="none" stroke="black" d="M939.75,-218.33C959.08,-207.92 985.22,-193.84 1006.3,-182.49"/>
<polygon fill="black" stroke="black" points="1008.14,-185.48 1015.28,-177.65 1004.82,-179.31 1008.14,-185.48"/>
</g>
<!-- ast.Name object at 0x7f45ad6f1f90 -->
<g id="node40" class="node">
<title>ast.Name object at 0x7f45ad6f1f90</title>
<path fill="#66cdaa" stroke="black" d="M829.5,-108C829.5,-108 799.5,-108 799.5,-108 793.5,-108 787.5,-102 787.5,-96 787.5,-96 787.5,-84 787.5,-84 787.5,-78 793.5,-72 799.5,-72 799.5,-72 829.5,-72 829.5,-72 835.5,-72 841.5,-78 841.5,-84 841.5,-84 841.5,-96 841.5,-96 841.5,-102 835.5,-108 829.5,-108"/>
<text text-anchor="middle" x="814.5" y="-86.3" font-family="Times,serif" font-size="14.00">Name</text>
</g>
<!-- ast.Call object at 0x7f45ad6f01c0&#45;&gt;ast.Name object at 0x7f45ad6f1f90 -->
<g id="edge48" class="edge">
<title>ast.Call object at 0x7f45ad6f01c0&#45;&gt;ast.Name object at 0x7f45ad6f1f90</title>
<path fill="none" stroke="black" d="M837.36,-215.87C832.93,-191.67 824.79,-147.21 819.52,-118.39"/>
<polygon fill="black" stroke="black" points="822.89,-117.4 817.65,-108.19 816.01,-118.66 822.89,-117.4"/>
</g>
<!-- ast.Constant object at 0x7f45ad6f13c0 -->
<g id="node41" class="node">
<title>ast.Constant object at 0x7f45ad6f13c0</title>
<path fill="#66cdaa" stroke="black" d="M985,-180C985,-180 944,-180 944,-180 938,-180 932,-174 932,-168 932,-168 932,-156 932,-156 932,-150 938,-144 944,-144 944,-144 985,-144 985,-144 991,-144 997,-150 997,-156 997,-156 997,-168 997,-168 997,-174 991,-180 985,-180"/>
<text text-anchor="middle" x="964.5" y="-158.3" font-family="Times,serif" font-size="14.00">Constant</text>
</g>
<!-- ast.Call object at 0x7f45ad6f01c0&#45;&gt;ast.Constant object at 0x7f45ad6f13c0 -->
<g id="edge50" class="edge">
<title>ast.Call object at 0x7f45ad6f01c0&#45;&gt;ast.Constant object at 0x7f45ad6f13c0</title>
<path fill="none" stroke="black" d="M867.71,-217.64C884.62,-208.09 906.64,-195.67 925.4,-185.07"/>
<polygon fill="black" stroke="black" points="927.32,-188.01 934.31,-180.04 923.88,-181.91 927.32,-188.01"/>
</g>
<!-- ast.BinOp object at 0x7f45ad6f3f10 -->
<g id="node42" class="node">
<title>ast.BinOp object at 0x7f45ad6f3f10</title>
<path fill="#66cdaa" stroke="black" d="M901.5,-180C901.5,-180 871.5,-180 871.5,-180 865.5,-180 859.5,-174 859.5,-168 859.5,-168 859.5,-156 859.5,-156 859.5,-150 865.5,-144 871.5,-144 871.5,-144 901.5,-144 901.5,-144 907.5,-144 913.5,-150 913.5,-156 913.5,-156 913.5,-168 913.5,-168 913.5,-174 907.5,-180 901.5,-180"/>
<text text-anchor="middle" x="886.5" y="-158.3" font-family="Times,serif" font-size="14.00">BinOp</text>
</g>
<!-- ast.Call object at 0x7f45ad6f01c0&#45;&gt;ast.BinOp object at 0x7f45ad6f3f10 -->
<g id="edge51" class="edge">
<title>ast.Call object at 0x7f45ad6f01c0&#45;&gt;ast.BinOp object at 0x7f45ad6f3f10</title>
<path fill="none" stroke="black" d="M851.87,-215.7C857.22,-207.56 863.7,-197.69 869.61,-188.7"/>
<polygon fill="black" stroke="black" points="872.69,-190.38 875.26,-180.1 866.84,-186.54 872.69,-190.38"/>
</g>
<!-- ast.Name object at 0x7f45ad6f1f90&#45;&gt;ast.Load object at 0x7f45ed7edf60 -->
<g id="edge49" class="edge">
<title>ast.Name object at 0x7f45ad6f1f90&#45;&gt;ast.Load object at 0x7f45ed7edf60</title>
<path fill="none" stroke="black" d="M814.5,-71.7C814.5,-63.98 814.5,-54.71 814.5,-46.11"/>
<polygon fill="black" stroke="black" points="818,-46.1 814.5,-36.1 811,-46.1 818,-46.1"/>
</g>
<!-- ast.Name object at 0x7f45ad6f0ac0 -->
<g id="node43" class="node">
<title>ast.Name object at 0x7f45ad6f0ac0</title>
<path fill="#66cdaa" stroke="black" d="M901.5,-108C901.5,-108 871.5,-108 871.5,-108 865.5,-108 859.5,-102 859.5,-96 859.5,-96 859.5,-84 859.5,-84 859.5,-78 865.5,-72 871.5,-72 871.5,-72 901.5,-72 901.5,-72 907.5,-72 913.5,-78 913.5,-84 913.5,-84 913.5,-96 913.5,-96 913.5,-102 907.5,-108 901.5,-108"/>
<text text-anchor="middle" x="886.5" y="-86.3" font-family="Times,serif" font-size="14.00">Name</text>
</g>
<!-- ast.BinOp object at 0x7f45ad6f3f10&#45;&gt;ast.Name object at 0x7f45ad6f0ac0 -->
<g id="edge52" class="edge">
<title>ast.BinOp object at 0x7f45ad6f3f10&#45;&gt;ast.Name object at 0x7f45ad6f0ac0</title>
<path fill="none" stroke="black" d="M886.5,-143.7C886.5,-135.98 886.5,-126.71 886.5,-118.11"/>
<polygon fill="black" stroke="black" points="890,-118.1 886.5,-108.1 883,-118.1 890,-118.1"/>
</g>
<!-- ast.Add object at 0x7f45ed7ee1a0 -->
<g id="node44" class="node">
<title>ast.Add object at 0x7f45ed7ee1a0</title>
<path fill="#66cdaa" stroke="black" d="M973.5,-108C973.5,-108 943.5,-108 943.5,-108 937.5,-108 931.5,-102 931.5,-96 931.5,-96 931.5,-84 931.5,-84 931.5,-78 937.5,-72 943.5,-72 943.5,-72 973.5,-72 973.5,-72 979.5,-72 985.5,-78 985.5,-84 985.5,-84 985.5,-96 985.5,-96 985.5,-102 979.5,-108 973.5,-108"/>
<text text-anchor="middle" x="958.5" y="-86.3" font-family="Times,serif" font-size="14.00">Add</text>
</g>
<!-- ast.BinOp object at 0x7f45ad6f3f10&#45;&gt;ast.Add object at 0x7f45ed7ee1a0 -->
<g id="edge54" class="edge">
<title>ast.BinOp object at 0x7f45ad6f3f10&#45;&gt;ast.Add object at 0x7f45ed7ee1a0</title>
<path fill="none" stroke="black" d="M904.3,-143.7C913.1,-135.14 923.88,-124.66 933.5,-115.3"/>
<polygon fill="black" stroke="black" points="936.18,-117.58 940.91,-108.1 931.3,-112.57 936.18,-117.58"/>
</g>
<!-- ast.Constant object at 0x7f45ad6f1d80 -->
<g id="node45" class="node">
<title>ast.Constant object at 0x7f45ad6f1d80</title>
<path fill="#66cdaa" stroke="black" d="M1057,-108C1057,-108 1016,-108 1016,-108 1010,-108 1004,-102 1004,-96 1004,-96 1004,-84 1004,-84 1004,-78 1010,-72 1016,-72 1016,-72 1057,-72 1057,-72 1063,-72 1069,-78 1069,-84 1069,-84 1069,-96 1069,-96 1069,-102 1063,-108 1057,-108"/>
<text text-anchor="middle" x="1036.5" y="-86.3" font-family="Times,serif" font-size="14.00">Constant</text>
</g>
<!-- ast.BinOp object at 0x7f45ad6f3f10&#45;&gt;ast.Constant object at 0x7f45ad6f1d80 -->
<g id="edge55" class="edge">
<title>ast.BinOp object at 0x7f45ad6f3f10&#45;&gt;ast.Constant object at 0x7f45ad6f1d80</title>
<path fill="none" stroke="black" d="M913.66,-148.32C936.22,-137.8 968.69,-122.65 994.58,-110.56"/>
<polygon fill="black" stroke="black" points="996.21,-113.67 1003.79,-106.27 993.25,-107.32 996.21,-113.67"/>
</g>
<!-- ast.Name object at 0x7f45ad6f0ac0&#45;&gt;ast.Load object at 0x7f45ed7edf60 -->
<g id="edge53" class="edge">
<title>ast.Name object at 0x7f45ad6f0ac0&#45;&gt;ast.Load object at 0x7f45ed7edf60</title>
<path fill="none" stroke="black" d="M868.7,-71.7C859.9,-63.14 849.12,-52.66 839.5,-43.3"/>
<polygon fill="black" stroke="black" points="841.7,-40.57 832.09,-36.1 836.82,-45.58 841.7,-40.57"/>
</g>
<!-- ast.Compare object at 0x7f45ad6f3670&#45;&gt;ast.Eq object at 0x7f45ed7ee890 -->
<g id="edge63" class="edge">
<title>ast.Compare object at 0x7f45ad6f3670&#45;&gt;ast.Eq object at 0x7f45ed7ee890</title>
<path fill="none" stroke="black" d="M727.73,-216.23C706.34,-205.62 678.7,-191.89 656.84,-181.04"/>
<polygon fill="black" stroke="black" points="658.37,-177.89 647.86,-176.58 655.26,-184.16 658.37,-177.89"/>
</g>
<!-- ast.BinOp object at 0x7f45ad6f35b0 -->
<g id="node47" class="node">
<title>ast.BinOp object at 0x7f45ad6f35b0</title>
<path fill="#66cdaa" stroke="black" d="M707.5,-180C707.5,-180 677.5,-180 677.5,-180 671.5,-180 665.5,-174 665.5,-168 665.5,-168 665.5,-156 665.5,-156 665.5,-150 671.5,-144 677.5,-144 677.5,-144 707.5,-144 707.5,-144 713.5,-144 719.5,-150 719.5,-156 719.5,-156 719.5,-168 719.5,-168 719.5,-174 713.5,-180 707.5,-180"/>
<text text-anchor="middle" x="692.5" y="-158.3" font-family="Times,serif" font-size="14.00">BinOp</text>
</g>
<!-- ast.Compare object at 0x7f45ad6f3670&#45;&gt;ast.BinOp object at 0x7f45ad6f35b0 -->
<g id="edge57" class="edge">
<title>ast.Compare object at 0x7f45ad6f3670&#45;&gt;ast.BinOp object at 0x7f45ad6f35b0</title>
<path fill="none" stroke="black" d="M744.44,-215.7C736,-207.14 725.68,-196.66 716.46,-187.3"/>
<polygon fill="black" stroke="black" points="718.87,-184.77 709.36,-180.1 713.89,-189.68 718.87,-184.77"/>
</g>
<!-- ast.Constant object at 0x7f45ad6f1e40 -->
<g id="node51" class="node">
<title>ast.Constant object at 0x7f45ad6f1e40</title>
<path fill="#66cdaa" stroke="black" d="M791,-180C791,-180 750,-180 750,-180 744,-180 738,-174 738,-168 738,-168 738,-156 738,-156 738,-150 744,-144 750,-144 750,-144 791,-144 791,-144 797,-144 803,-150 803,-156 803,-156 803,-168 803,-168 803,-174 797,-180 791,-180"/>
<text text-anchor="middle" x="770.5" y="-158.3" font-family="Times,serif" font-size="14.00">Constant</text>
</g>
<!-- ast.Compare object at 0x7f45ad6f3670&#45;&gt;ast.Constant object at 0x7f45ad6f1e40 -->
<g id="edge64" class="edge">
<title>ast.Compare object at 0x7f45ad6f3670&#45;&gt;ast.Constant object at 0x7f45ad6f1e40</title>
<path fill="none" stroke="black" d="M763.72,-215.7C764.72,-207.98 765.91,-198.71 767.01,-190.11"/>
<polygon fill="black" stroke="black" points="770.5,-190.47 768.3,-180.1 763.55,-189.58 770.5,-190.47"/>
</g>
<!-- ast.Name object at 0x7f45ad6f1030 -->
<g id="node48" class="node">
<title>ast.Name object at 0x7f45ad6f1030</title>
<path fill="#66cdaa" stroke="black" d="M685.5,-108C685.5,-108 655.5,-108 655.5,-108 649.5,-108 643.5,-102 643.5,-96 643.5,-96 643.5,-84 643.5,-84 643.5,-78 649.5,-72 655.5,-72 655.5,-72 685.5,-72 685.5,-72 691.5,-72 697.5,-78 697.5,-84 697.5,-84 697.5,-96 697.5,-96 697.5,-102 691.5,-108 685.5,-108"/>
<text text-anchor="middle" x="670.5" y="-86.3" font-family="Times,serif" font-size="14.00">Name</text>
</g>
<!-- ast.BinOp object at 0x7f45ad6f35b0&#45;&gt;ast.Name object at 0x7f45ad6f1030 -->
<g id="edge58" class="edge">
<title>ast.BinOp object at 0x7f45ad6f35b0&#45;&gt;ast.Name object at 0x7f45ad6f1030</title>
<path fill="none" stroke="black" d="M687.06,-143.7C684.61,-135.9 681.66,-126.51 678.93,-117.83"/>
<polygon fill="black" stroke="black" points="682.21,-116.59 675.88,-108.1 675.54,-118.69 682.21,-116.59"/>
</g>
<!-- ast.Mod object at 0x7f45ed7ee380 -->
<g id="node49" class="node">
<title>ast.Mod object at 0x7f45ed7ee380</title>
<path fill="#66cdaa" stroke="black" d="M757.5,-108C757.5,-108 727.5,-108 727.5,-108 721.5,-108 715.5,-102 715.5,-96 715.5,-96 715.5,-84 715.5,-84 715.5,-78 721.5,-72 727.5,-72 727.5,-72 757.5,-72 757.5,-72 763.5,-72 769.5,-78 769.5,-84 769.5,-84 769.5,-96 769.5,-96 769.5,-102 763.5,-108 757.5,-108"/>
<text text-anchor="middle" x="742.5" y="-86.3" font-family="Times,serif" font-size="14.00">Mod</text>
</g>
<!-- ast.BinOp object at 0x7f45ad6f35b0&#45;&gt;ast.Mod object at 0x7f45ed7ee380 -->
<g id="edge60" class="edge">
<title>ast.BinOp object at 0x7f45ad6f35b0&#45;&gt;ast.Mod object at 0x7f45ed7ee380</title>
<path fill="none" stroke="black" d="M704.86,-143.7C710.73,-135.47 717.87,-125.48 724.34,-116.42"/>
<polygon fill="black" stroke="black" points="727.32,-118.28 730.28,-108.1 721.62,-114.21 727.32,-118.28"/>
</g>
<!-- ast.Name object at 0x7f45ad6f1960 -->
<g id="node50" class="node">
<title>ast.Name object at 0x7f45ad6f1960</title>
<path fill="#66cdaa" stroke="black" d="M613.5,-108C613.5,-108 583.5,-108 583.5,-108 577.5,-108 571.5,-102 571.5,-96 571.5,-96 571.5,-84 571.5,-84 571.5,-78 577.5,-72 583.5,-72 583.5,-72 613.5,-72 613.5,-72 619.5,-72 625.5,-78 625.5,-84 625.5,-84 625.5,-96 625.5,-96 625.5,-102 619.5,-108 613.5,-108"/>
<text text-anchor="middle" x="598.5" y="-86.3" font-family="Times,serif" font-size="14.00">Name</text>
</g>
<!-- ast.BinOp object at 0x7f45ad6f35b0&#45;&gt;ast.Name object at 0x7f45ad6f1960 -->
<g id="edge61" class="edge">
<title>ast.BinOp object at 0x7f45ad6f35b0&#45;&gt;ast.Name object at 0x7f45ad6f1960</title>
<path fill="none" stroke="black" d="M669.26,-143.7C657.31,-134.8 642.58,-123.82 629.65,-114.2"/>
<polygon fill="black" stroke="black" points="631.58,-111.27 621.47,-108.1 627.4,-116.88 631.58,-111.27"/>
</g>
<!-- ast.Name object at 0x7f45ad6f1030&#45;&gt;ast.Load object at 0x7f45ed7edf60 -->
<g id="edge59" class="edge">
<title>ast.Name object at 0x7f45ad6f1030&#45;&gt;ast.Load object at 0x7f45ed7edf60</title>
<path fill="none" stroke="black" d="M697.59,-75.83C720.27,-64.81 752.86,-48.97 777.87,-36.81"/>
<polygon fill="black" stroke="black" points="779.58,-39.87 787.05,-32.35 776.52,-33.57 779.58,-39.87"/>
</g>
<!-- ast.Name object at 0x7f45ad6f1960&#45;&gt;ast.Load object at 0x7f45ed7edf60 -->
<g id="edge62" class="edge">
<title>ast.Name object at 0x7f45ad6f1960&#45;&gt;ast.Load object at 0x7f45ed7edf60</title>
<path fill="none" stroke="black" d="M625.83,-75.56C628.73,-74.29 631.66,-73.08 634.5,-72 682.92,-53.57 740.65,-37.58 777.44,-28.12"/>
<polygon fill="black" stroke="black" points="778.4,-31.48 787.23,-25.62 776.68,-24.7 778.4,-31.48"/>
</g>
<!-- ast.Compare object at 0x7f45ad6f0310 -->
<g id="node53" class="node">
<title>ast.Compare object at 0x7f45ad6f0310</title>
<path fill="#66cdaa" stroke="black" d="M1051,-324C1051,-324 1008,-324 1008,-324 1002,-324 996,-318 996,-312 996,-312 996,-300 996,-300 996,-294 1002,-288 1008,-288 1008,-288 1051,-288 1051,-288 1057,-288 1063,-294 1063,-300 1063,-300 1063,-312 1063,-312 1063,-318 1057,-324 1051,-324"/>
<text text-anchor="middle" x="1029.5" y="-302.3" font-family="Times,serif" font-size="14.00">Compare</text>
</g>
<!-- ast.Return object at 0x7f45ad6f2560&#45;&gt;ast.Compare object at 0x7f45ad6f0310 -->
<g id="edge66" class="edge">
<title>ast.Return object at 0x7f45ad6f2560&#45;&gt;ast.Compare object at 0x7f45ad6f0310</title>
<path fill="none" stroke="black" d="M1004,-431.87C1008.96,-407.56 1018.1,-362.82 1023.98,-334.01"/>
<polygon fill="black" stroke="black" points="1027.42,-334.69 1025.99,-324.19 1020.56,-333.29 1027.42,-334.69"/>
</g>
<!-- ast.Compare object at 0x7f45ad6f0310&#45;&gt;ast.Eq object at 0x7f45ed7ee890 -->
<g id="edge76" class="edge">
<title>ast.Compare object at 0x7f45ad6f0310&#45;&gt;ast.Eq object at 0x7f45ed7ee890</title>
<path fill="none" stroke="black" d="M995.94,-301.64C926.19,-294.28 768.03,-275.49 719.5,-252 710.93,-247.85 672.4,-212.19 646.01,-187.29"/>
<polygon fill="black" stroke="black" points="648.26,-184.6 638.59,-180.27 643.45,-189.68 648.26,-184.6"/>
</g>
<!-- ast.BinOp object at 0x7f45ad6f2020 -->
<g id="node54" class="node">
<title>ast.BinOp object at 0x7f45ad6f2020</title>
<path fill="#66cdaa" stroke="black" d="M1213.5,-252C1213.5,-252 1183.5,-252 1183.5,-252 1177.5,-252 1171.5,-246 1171.5,-240 1171.5,-240 1171.5,-228 1171.5,-228 1171.5,-222 1177.5,-216 1183.5,-216 1183.5,-216 1213.5,-216 1213.5,-216 1219.5,-216 1225.5,-222 1225.5,-228 1225.5,-228 1225.5,-240 1225.5,-240 1225.5,-246 1219.5,-252 1213.5,-252"/>
<text text-anchor="middle" x="1198.5" y="-230.3" font-family="Times,serif" font-size="14.00">BinOp</text>
</g>
<!-- ast.Compare object at 0x7f45ad6f0310&#45;&gt;ast.BinOp object at 0x7f45ad6f2020 -->
<g id="edge67" class="edge">
<title>ast.Compare object at 0x7f45ad6f0310&#45;&gt;ast.BinOp object at 0x7f45ad6f2020</title>
<path fill="none" stroke="black" d="M1063.29,-291C1091.85,-279.17 1132.67,-262.27 1161.98,-250.13"/>
<polygon fill="black" stroke="black" points="1163.54,-253.27 1171.44,-246.21 1160.86,-246.8 1163.54,-253.27"/>
</g>
<!-- ast.Name object at 0x7f45a481b400 -->
<g id="node60" class="node">
<title>ast.Name object at 0x7f45a481b400</title>
<path fill="#66cdaa" stroke="black" d="M1046.5,-252C1046.5,-252 1016.5,-252 1016.5,-252 1010.5,-252 1004.5,-246 1004.5,-240 1004.5,-240 1004.5,-228 1004.5,-228 1004.5,-222 1010.5,-216 1016.5,-216 1016.5,-216 1046.5,-216 1046.5,-216 1052.5,-216 1058.5,-222 1058.5,-228 1058.5,-228 1058.5,-240 1058.5,-240 1058.5,-246 1052.5,-252 1046.5,-252"/>
<text text-anchor="middle" x="1031.5" y="-230.3" font-family="Times,serif" font-size="14.00">Name</text>
</g>
<!-- ast.Compare object at 0x7f45ad6f0310&#45;&gt;ast.Name object at 0x7f45a481b400 -->
<g id="edge77" class="edge">
<title>ast.Compare object at 0x7f45ad6f0310&#45;&gt;ast.Name object at 0x7f45a481b400</title>
<path fill="none" stroke="black" d="M1029.99,-287.7C1030.21,-279.98 1030.48,-270.71 1030.73,-262.11"/>
<polygon fill="black" stroke="black" points="1034.22,-262.2 1031.01,-252.1 1027.23,-262 1034.22,-262.2"/>
</g>
<!-- ast.Call object at 0x7f45ad6f1210 -->
<g id="node55" class="node">
<title>ast.Call object at 0x7f45ad6f1210</title>
<path fill="#66cdaa" stroke="black" d="M1184.5,-180C1184.5,-180 1154.5,-180 1154.5,-180 1148.5,-180 1142.5,-174 1142.5,-168 1142.5,-168 1142.5,-156 1142.5,-156 1142.5,-150 1148.5,-144 1154.5,-144 1154.5,-144 1184.5,-144 1184.5,-144 1190.5,-144 1196.5,-150 1196.5,-156 1196.5,-156 1196.5,-168 1196.5,-168 1196.5,-174 1190.5,-180 1184.5,-180"/>
<text text-anchor="middle" x="1169.5" y="-158.3" font-family="Times,serif" font-size="14.00">Call</text>
</g>
<!-- ast.BinOp object at 0x7f45ad6f2020&#45;&gt;ast.Call object at 0x7f45ad6f1210 -->
<g id="edge68" class="edge">
<title>ast.BinOp object at 0x7f45ad6f2020&#45;&gt;ast.Call object at 0x7f45ad6f1210</title>
<path fill="none" stroke="black" d="M1191.33,-215.7C1188.07,-207.81 1184.13,-198.3 1180.5,-189.55"/>
<polygon fill="black" stroke="black" points="1183.65,-188 1176.59,-180.1 1177.18,-190.68 1183.65,-188"/>
</g>
<!-- ast.Sub object at 0x7f45ed7ee200 -->
<g id="node58" class="node">
<title>ast.Sub object at 0x7f45ed7ee200</title>
<path fill="#66cdaa" stroke="black" d="M1294.5,-180C1294.5,-180 1264.5,-180 1264.5,-180 1258.5,-180 1252.5,-174 1252.5,-168 1252.5,-168 1252.5,-156 1252.5,-156 1252.5,-150 1258.5,-144 1264.5,-144 1264.5,-144 1294.5,-144 1294.5,-144 1300.5,-144 1306.5,-150 1306.5,-156 1306.5,-156 1306.5,-168 1306.5,-168 1306.5,-174 1300.5,-180 1294.5,-180"/>
<text text-anchor="middle" x="1279.5" y="-158.3" font-family="Times,serif" font-size="14.00">Sub</text>
</g>
<!-- ast.BinOp object at 0x7f45ad6f2020&#45;&gt;ast.Sub object at 0x7f45ed7ee200 -->
<g id="edge73" class="edge">
<title>ast.BinOp object at 0x7f45ad6f2020&#45;&gt;ast.Sub object at 0x7f45ed7ee200</title>
<path fill="none" stroke="black" d="M1218.52,-215.7C1228.63,-206.97 1241.04,-196.24 1252.02,-186.75"/>
<polygon fill="black" stroke="black" points="1254.43,-189.29 1259.71,-180.1 1249.85,-183.99 1254.43,-189.29"/>
</g>
<!-- ast.Name object at 0x7f45ad6f1a80 -->
<g id="node59" class="node">
<title>ast.Name object at 0x7f45ad6f1a80</title>
<path fill="#66cdaa" stroke="black" d="M1311.5,-108C1311.5,-108 1281.5,-108 1281.5,-108 1275.5,-108 1269.5,-102 1269.5,-96 1269.5,-96 1269.5,-84 1269.5,-84 1269.5,-78 1275.5,-72 1281.5,-72 1281.5,-72 1311.5,-72 1311.5,-72 1317.5,-72 1323.5,-78 1323.5,-84 1323.5,-84 1323.5,-96 1323.5,-96 1323.5,-102 1317.5,-108 1311.5,-108"/>
<text text-anchor="middle" x="1296.5" y="-86.3" font-family="Times,serif" font-size="14.00">Name</text>
</g>
<!-- ast.BinOp object at 0x7f45ad6f2020&#45;&gt;ast.Name object at 0x7f45ad6f1a80 -->
<g id="edge74" class="edge">
<title>ast.BinOp object at 0x7f45ad6f2020&#45;&gt;ast.Name object at 0x7f45ad6f1a80</title>
<path fill="none" stroke="black" d="M1205.31,-215.69C1213.06,-197.06 1226.85,-167 1243.5,-144 1250.88,-133.81 1260.24,-123.76 1269.04,-115.19"/>
<polygon fill="black" stroke="black" points="1271.7,-117.5 1276.56,-108.08 1266.89,-112.41 1271.7,-117.5"/>
</g>
<!-- ast.Name object at 0x7f45ad6f06a0 -->
<g id="node56" class="node">
<title>ast.Name object at 0x7f45ad6f06a0</title>
<path fill="#66cdaa" stroke="black" d="M1239.5,-108C1239.5,-108 1209.5,-108 1209.5,-108 1203.5,-108 1197.5,-102 1197.5,-96 1197.5,-96 1197.5,-84 1197.5,-84 1197.5,-78 1203.5,-72 1209.5,-72 1209.5,-72 1239.5,-72 1239.5,-72 1245.5,-72 1251.5,-78 1251.5,-84 1251.5,-84 1251.5,-96 1251.5,-96 1251.5,-102 1245.5,-108 1239.5,-108"/>
<text text-anchor="middle" x="1224.5" y="-86.3" font-family="Times,serif" font-size="14.00">Name</text>
</g>
<!-- ast.Call object at 0x7f45ad6f1210&#45;&gt;ast.Name object at 0x7f45ad6f06a0 -->
<g id="edge69" class="edge">
<title>ast.Call object at 0x7f45ad6f1210&#45;&gt;ast.Name object at 0x7f45ad6f06a0</title>
<path fill="none" stroke="black" d="M1183.1,-143.7C1189.62,-135.39 1197.57,-125.28 1204.75,-116.14"/>
<polygon fill="black" stroke="black" points="1207.63,-118.13 1211.06,-108.1 1202.13,-113.81 1207.63,-118.13"/>
</g>
<!-- ast.Name object at 0x7f45ad6f3370 -->
<g id="node57" class="node">
<title>ast.Name object at 0x7f45ad6f3370</title>
<path fill="#66cdaa" stroke="black" d="M1167.5,-108C1167.5,-108 1137.5,-108 1137.5,-108 1131.5,-108 1125.5,-102 1125.5,-96 1125.5,-96 1125.5,-84 1125.5,-84 1125.5,-78 1131.5,-72 1137.5,-72 1137.5,-72 1167.5,-72 1167.5,-72 1173.5,-72 1179.5,-78 1179.5,-84 1179.5,-84 1179.5,-96 1179.5,-96 1179.5,-102 1173.5,-108 1167.5,-108"/>
<text text-anchor="middle" x="1152.5" y="-86.3" font-family="Times,serif" font-size="14.00">Name</text>
</g>
<!-- ast.Call object at 0x7f45ad6f1210&#45;&gt;ast.Name object at 0x7f45ad6f3370 -->
<g id="edge71" class="edge">
<title>ast.Call object at 0x7f45ad6f1210&#45;&gt;ast.Name object at 0x7f45ad6f3370</title>
<path fill="none" stroke="black" d="M1165.3,-143.7C1163.4,-135.9 1161.12,-126.51 1159.02,-117.83"/>
<polygon fill="black" stroke="black" points="1162.42,-117 1156.65,-108.1 1155.61,-118.65 1162.42,-117"/>
</g>
<!-- ast.Name object at 0x7f45ad6f06a0&#45;&gt;ast.Load object at 0x7f45ed7edf60 -->
<g id="edge70" class="edge">
<title>ast.Name object at 0x7f45ad6f06a0&#45;&gt;ast.Load object at 0x7f45ed7edf60</title>
<path fill="none" stroke="black" d="M1197.32,-75.13C1194.39,-73.95 1191.41,-72.87 1188.5,-72 1068.94,-36.19 920.44,-24.33 852.11,-20.61"/>
<polygon fill="black" stroke="black" points="852.02,-17.1 841.85,-20.07 851.66,-24.09 852.02,-17.1"/>
</g>
<!-- ast.Name object at 0x7f45ad6f3370&#45;&gt;ast.Load object at 0x7f45ed7edf60 -->
<g id="edge72" class="edge">
<title>ast.Name object at 0x7f45ad6f3370&#45;&gt;ast.Load object at 0x7f45ed7edf60</title>
<path fill="none" stroke="black" d="M1125.45,-76.82C1120.85,-75.03 1116.09,-73.34 1111.5,-72 1019.93,-45.19 908.3,-29.7 851.52,-22.99"/>
<polygon fill="black" stroke="black" points="851.91,-19.51 841.57,-21.84 851.1,-26.47 851.91,-19.51"/>
</g>
<!-- ast.Name object at 0x7f45ad6f1a80&#45;&gt;ast.Load object at 0x7f45ed7edf60 -->
<g id="edge75" class="edge">
<title>ast.Name object at 0x7f45ad6f1a80&#45;&gt;ast.Load object at 0x7f45ed7edf60</title>
<path fill="none" stroke="black" d="M1269.34,-75.06C1266.4,-73.89 1263.42,-72.84 1260.5,-72 1113.41,-29.75 929.71,-21.13 851.99,-19.41"/>
<polygon fill="black" stroke="black" points="851.81,-15.9 841.74,-19.21 851.67,-22.9 851.81,-15.9"/>
</g>
<!-- ast.Name object at 0x7f45a481b400&#45;&gt;ast.Load object at 0x7f45ed7edf60 -->
<g id="edge78" class="edge">
<title>ast.Name object at 0x7f45a481b400&#45;&gt;ast.Load object at 0x7f45ed7edf60</title>
<path fill="none" stroke="black" d="M1052.77,-215.7C1062.61,-206.31 1073.26,-193.8 1078.5,-180 1095.53,-135.12 1108.92,-109.13 1078.5,-72 1050.3,-37.57 918.01,-25.04 852.07,-20.88"/>
<polygon fill="black" stroke="black" points="851.89,-17.36 841.7,-20.26 851.47,-24.35 851.89,-17.36"/>
</g>
</g>
</svg>
