<?xml version="1.0" encoding="UTF-8" standalone="no"?>
<!DOCTYPE svg PUBLIC "-//W3C//DTD SVG 1.1//EN"
 "http://www.w3.org/Graphics/SVG/1.1/DTD/svg11.dtd">
<!-- Generated by graphviz version 2.43.0 (0)
 -->
<!-- Title: %3 Pages: 1 -->
<svg width="766pt" height="692pt"
 viewBox="0.00 0.00 766.00 692.00" xmlns="http://www.w3.org/2000/svg" xmlns:xlink="http://www.w3.org/1999/xlink">
<g id="graph0" class="graph" transform="scale(1 1) rotate(0) translate(4 688)">
<title>%3</title>
<polygon fill="white" stroke="transparent" points="-4,4 -4,-688 762,-688 762,4 -4,4"/>
<!-- ast.Module object at 0x7fc837d1d150 -->
<g id="node1" class="node">
<title>ast.Module object at 0x7fc837d1d150</title>
<path fill="#66cdaa" stroke="black" d="M219.5,-684C219.5,-684 184.5,-684 184.5,-684 178.5,-684 172.5,-678 172.5,-672 172.5,-672 172.5,-660 172.5,-660 172.5,-654 178.5,-648 184.5,-648 184.5,-648 219.5,-648 219.5,-648 225.5,-648 231.5,-654 231.5,-660 231.5,-660 231.5,-672 231.5,-672 231.5,-678 225.5,-684 219.5,-684"/>
<text text-anchor="middle" x="202" y="-662.3" font-family="Times,serif" font-size="14.00">Module</text>
</g>
<!-- ast.FunctionDef object at 0x7fc837d1e0b0 -->
<g id="node2" class="node">
<title>ast.FunctionDef object at 0x7fc837d1e0b0</title>
<path fill="#66cdaa" stroke="black" d="M232.5,-612C232.5,-612 171.5,-612 171.5,-612 165.5,-612 159.5,-606 159.5,-600 159.5,-600 159.5,-588 159.5,-588 159.5,-582 165.5,-576 171.5,-576 171.5,-576 232.5,-576 232.5,-576 238.5,-576 244.5,-582 244.5,-588 244.5,-588 244.5,-600 244.5,-600 244.5,-606 238.5,-612 232.5,-612"/>
<text text-anchor="middle" x="202" y="-590.3" font-family="Times,serif" font-size="14.00">FunctionDef</text>
</g>
<!-- ast.Module object at 0x7fc837d1d150&#45;&gt;ast.FunctionDef object at 0x7fc837d1e0b0 -->
<g id="edge1" class="edge">
<title>ast.Module object at 0x7fc837d1d150&#45;&gt;ast.FunctionDef object at 0x7fc837d1e0b0</title>
<path fill="none" stroke="black" d="M202,-647.7C202,-639.98 202,-630.71 202,-622.11"/>
<polygon fill="black" stroke="black" points="205.5,-622.1 202,-612.1 198.5,-622.1 205.5,-622.1"/>
</g>
<!-- ast.arguments object at 0x7fc837d1f340 -->
<g id="node3" class="node">
<title>ast.arguments object at 0x7fc837d1f340</title>
<path fill="#66cdaa" stroke="black" d="M81,-540C81,-540 31,-540 31,-540 25,-540 19,-534 19,-528 19,-528 19,-516 19,-516 19,-510 25,-504 31,-504 31,-504 81,-504 81,-504 87,-504 93,-510 93,-516 93,-516 93,-528 93,-528 93,-534 87,-540 81,-540"/>
<text text-anchor="middle" x="56" y="-518.3" font-family="Times,serif" font-size="14.00">arguments</text>
</g>
<!-- ast.FunctionDef object at 0x7fc837d1e0b0&#45;&gt;ast.arguments object at 0x7fc837d1f340 -->
<g id="edge2" class="edge">
<title>ast.FunctionDef object at 0x7fc837d1e0b0&#45;&gt;ast.arguments object at 0x7fc837d1f340</title>
<path fill="none" stroke="black" d="M166.28,-575.88C146.5,-566.39 121.73,-554.51 100.67,-544.42"/>
<polygon fill="black" stroke="black" points="102.13,-541.24 91.6,-540.07 99.1,-547.55 102.13,-541.24"/>
</g>
<!-- ast.Assign object at 0x7fc837d1ff70 -->
<g id="node5" class="node">
<title>ast.Assign object at 0x7fc837d1ff70</title>
<path fill="#66cdaa" stroke="black" d="M181,-540C181,-540 151,-540 151,-540 145,-540 139,-534 139,-528 139,-528 139,-516 139,-516 139,-510 145,-504 151,-504 151,-504 181,-504 181,-504 187,-504 193,-510 193,-516 193,-516 193,-528 193,-528 193,-534 187,-540 181,-540"/>
<text text-anchor="middle" x="166" y="-518.3" font-family="Times,serif" font-size="14.00">Assign</text>
</g>
<!-- ast.FunctionDef object at 0x7fc837d1e0b0&#45;&gt;ast.Assign object at 0x7fc837d1ff70 -->
<g id="edge4" class="edge">
<title>ast.FunctionDef object at 0x7fc837d1e0b0&#45;&gt;ast.Assign object at 0x7fc837d1ff70</title>
<path fill="none" stroke="black" d="M193.1,-575.7C189,-567.73 184.05,-558.1 179.51,-549.26"/>
<polygon fill="black" stroke="black" points="182.48,-547.4 174.8,-540.1 176.26,-550.6 182.48,-547.4"/>
</g>
<!-- ast.For object at 0x7fc837d1e140 -->
<g id="node9" class="node">
<title>ast.For object at 0x7fc837d1e140</title>
<path fill="#66cdaa" stroke="black" d="M269,-540C269,-540 239,-540 239,-540 233,-540 227,-534 227,-528 227,-528 227,-516 227,-516 227,-510 233,-504 239,-504 239,-504 269,-504 269,-504 275,-504 281,-510 281,-516 281,-516 281,-528 281,-528 281,-534 275,-540 269,-540"/>
<text text-anchor="middle" x="254" y="-518.3" font-family="Times,serif" font-size="14.00">For</text>
</g>
<!-- ast.FunctionDef object at 0x7fc837d1e0b0&#45;&gt;ast.For object at 0x7fc837d1e140 -->
<g id="edge8" class="edge">
<title>ast.FunctionDef object at 0x7fc837d1e0b0&#45;&gt;ast.For object at 0x7fc837d1e140</title>
<path fill="none" stroke="black" d="M214.85,-575.7C221.03,-567.39 228.54,-557.28 235.32,-548.14"/>
<polygon fill="black" stroke="black" points="238.14,-550.22 241.29,-540.1 232.52,-546.04 238.14,-550.22"/>
</g>
<!-- ast.Return object at 0x7fc837d1d000 -->
<g id="node43" class="node">
<title>ast.Return object at 0x7fc837d1d000</title>
<path fill="#66cdaa" stroke="black" d="M458,-540C458,-540 428,-540 428,-540 422,-540 416,-534 416,-528 416,-528 416,-516 416,-516 416,-510 422,-504 428,-504 428,-504 458,-504 458,-504 464,-504 470,-510 470,-516 470,-516 470,-528 470,-528 470,-534 464,-540 458,-540"/>
<text text-anchor="middle" x="443" y="-518.3" font-family="Times,serif" font-size="14.00">Return</text>
</g>
<!-- ast.FunctionDef object at 0x7fc837d1e0b0&#45;&gt;ast.Return object at 0x7fc837d1d000 -->
<g id="edge55" class="edge">
<title>ast.FunctionDef object at 0x7fc837d1e0b0&#45;&gt;ast.Return object at 0x7fc837d1d000</title>
<path fill="none" stroke="black" d="M244.53,-580.65C290.41,-567.32 362.73,-546.32 406.24,-533.68"/>
<polygon fill="black" stroke="black" points="407.23,-537.04 415.85,-530.88 405.27,-530.31 407.23,-537.04"/>
</g>
<!-- ast.arg object at 0x7fc837d1f250 -->
<g id="node4" class="node">
<title>ast.arg object at 0x7fc837d1f250</title>
<path fill="#66cdaa" stroke="black" d="M42,-468C42,-468 12,-468 12,-468 6,-468 0,-462 0,-456 0,-456 0,-444 0,-444 0,-438 6,-432 12,-432 12,-432 42,-432 42,-432 48,-432 54,-438 54,-444 54,-444 54,-456 54,-456 54,-462 48,-468 42,-468"/>
<text text-anchor="middle" x="27" y="-446.3" font-family="Times,serif" font-size="14.00">arg</text>
</g>
<!-- ast.arguments object at 0x7fc837d1f340&#45;&gt;ast.arg object at 0x7fc837d1f250 -->
<g id="edge3" class="edge">
<title>ast.arguments object at 0x7fc837d1f340&#45;&gt;ast.arg object at 0x7fc837d1f250</title>
<path fill="none" stroke="black" d="M48.83,-503.7C45.57,-495.81 41.63,-486.3 38,-477.55"/>
<polygon fill="black" stroke="black" points="41.15,-476 34.09,-468.1 34.68,-478.68 41.15,-476"/>
</g>
<!-- ast.Name object at 0x7fc837d1dff0 -->
<g id="node6" class="node">
<title>ast.Name object at 0x7fc837d1dff0</title>
<path fill="#66cdaa" stroke="black" d="M98,-396C98,-396 68,-396 68,-396 62,-396 56,-390 56,-384 56,-384 56,-372 56,-372 56,-366 62,-360 68,-360 68,-360 98,-360 98,-360 104,-360 110,-366 110,-372 110,-372 110,-384 110,-384 110,-390 104,-396 98,-396"/>
<text text-anchor="middle" x="83" y="-374.3" font-family="Times,serif" font-size="14.00">Name</text>
</g>
<!-- ast.Assign object at 0x7fc837d1ff70&#45;&gt;ast.Name object at 0x7fc837d1dff0 -->
<g id="edge5" class="edge">
<title>ast.Assign object at 0x7fc837d1ff70&#45;&gt;ast.Name object at 0x7fc837d1dff0</title>
<path fill="none" stroke="black" d="M165.36,-503.72C163.96,-484.85 159.57,-454.33 146,-432 139.03,-420.53 128.7,-410.35 118.4,-402.04"/>
<polygon fill="black" stroke="black" points="120.3,-399.09 110.23,-395.8 116.05,-404.65 120.3,-399.09"/>
</g>
<!-- ast.Constant object at 0x7fc837d1f2b0 -->
<g id="node8" class="node">
<title>ast.Constant object at 0x7fc837d1f2b0</title>
<path fill="#66cdaa" stroke="black" d="M125.5,-468C125.5,-468 84.5,-468 84.5,-468 78.5,-468 72.5,-462 72.5,-456 72.5,-456 72.5,-444 72.5,-444 72.5,-438 78.5,-432 84.5,-432 84.5,-432 125.5,-432 125.5,-432 131.5,-432 137.5,-438 137.5,-444 137.5,-444 137.5,-456 137.5,-456 137.5,-462 131.5,-468 125.5,-468"/>
<text text-anchor="middle" x="105" y="-446.3" font-family="Times,serif" font-size="14.00">Constant</text>
</g>
<!-- ast.Assign object at 0x7fc837d1ff70&#45;&gt;ast.Constant object at 0x7fc837d1f2b0 -->
<g id="edge7" class="edge">
<title>ast.Assign object at 0x7fc837d1ff70&#45;&gt;ast.Constant object at 0x7fc837d1f2b0</title>
<path fill="none" stroke="black" d="M150.92,-503.7C143.61,-495.3 134.69,-485.07 126.66,-475.86"/>
<polygon fill="black" stroke="black" points="129.11,-473.34 119.91,-468.1 123.84,-477.94 129.11,-473.34"/>
</g>
<!-- ast.Store object at 0x7fc83b8f2020 -->
<g id="node7" class="node">
<title>ast.Store object at 0x7fc83b8f2020</title>
<path fill="#66cdaa" stroke="black" d="M114,-252C114,-252 84,-252 84,-252 78,-252 72,-246 72,-240 72,-240 72,-228 72,-228 72,-222 78,-216 84,-216 84,-216 114,-216 114,-216 120,-216 126,-222 126,-228 126,-228 126,-240 126,-240 126,-246 120,-252 114,-252"/>
<text text-anchor="middle" x="99" y="-230.3" font-family="Times,serif" font-size="14.00">Store</text>
</g>
<!-- ast.Name object at 0x7fc837d1dff0&#45;&gt;ast.Store object at 0x7fc83b8f2020 -->
<g id="edge6" class="edge">
<title>ast.Name object at 0x7fc837d1dff0&#45;&gt;ast.Store object at 0x7fc83b8f2020</title>
<path fill="none" stroke="black" d="M73.84,-359.73C65.47,-341.65 55.46,-312.52 63,-288 66.01,-278.22 71.51,-268.62 77.32,-260.33"/>
<polygon fill="black" stroke="black" points="80.19,-262.33 83.39,-252.23 74.59,-258.13 80.19,-262.33"/>
</g>
<!-- ast.Name object at 0x7fc837d1fac0 -->
<g id="node10" class="node">
<title>ast.Name object at 0x7fc837d1fac0</title>
<path fill="#66cdaa" stroke="black" d="M114,-324C114,-324 84,-324 84,-324 78,-324 72,-318 72,-312 72,-312 72,-300 72,-300 72,-294 78,-288 84,-288 84,-288 114,-288 114,-288 120,-288 126,-294 126,-300 126,-300 126,-312 126,-312 126,-318 120,-324 114,-324"/>
<text text-anchor="middle" x="99" y="-302.3" font-family="Times,serif" font-size="14.00">Name</text>
</g>
<!-- ast.For object at 0x7fc837d1e140&#45;&gt;ast.Name object at 0x7fc837d1fac0 -->
<g id="edge9" class="edge">
<title>ast.For object at 0x7fc837d1e140&#45;&gt;ast.Name object at 0x7fc837d1fac0</title>
<path fill="none" stroke="black" d="M241.58,-503.85C214.37,-466.28 149.39,-376.58 117.42,-332.43"/>
<polygon fill="black" stroke="black" points="120.18,-330.28 111.48,-324.23 114.51,-334.38 120.18,-330.28"/>
</g>
<!-- ast.Call object at 0x7fc837d1ee90 -->
<g id="node11" class="node">
<title>ast.Call object at 0x7fc837d1ee90</title>
<path fill="#66cdaa" stroke="black" d="M544,-468C544,-468 514,-468 514,-468 508,-468 502,-462 502,-456 502,-456 502,-444 502,-444 502,-438 508,-432 514,-432 514,-432 544,-432 544,-432 550,-432 556,-438 556,-444 556,-444 556,-456 556,-456 556,-462 550,-468 544,-468"/>
<text text-anchor="middle" x="529" y="-446.3" font-family="Times,serif" font-size="14.00">Call</text>
</g>
<!-- ast.For object at 0x7fc837d1e140&#45;&gt;ast.Call object at 0x7fc837d1ee90 -->
<g id="edge11" class="edge">
<title>ast.For object at 0x7fc837d1e140&#45;&gt;ast.Call object at 0x7fc837d1ee90</title>
<path fill="none" stroke="black" d="M281.12,-514.1C330.62,-501.5 435.65,-474.76 491.79,-460.47"/>
<polygon fill="black" stroke="black" points="492.85,-463.81 501.68,-457.96 491.12,-457.03 492.85,-463.81"/>
</g>
<!-- ast.If object at 0x7fc837d1df90 -->
<g id="node16" class="node">
<title>ast.If object at 0x7fc837d1df90</title>
<path fill="#66cdaa" stroke="black" d="M286,-468C286,-468 256,-468 256,-468 250,-468 244,-462 244,-456 244,-456 244,-444 244,-444 244,-438 250,-432 256,-432 256,-432 286,-432 286,-432 292,-432 298,-438 298,-444 298,-444 298,-456 298,-456 298,-462 292,-468 286,-468"/>
<text text-anchor="middle" x="271" y="-446.3" font-family="Times,serif" font-size="14.00">If</text>
</g>
<!-- ast.For object at 0x7fc837d1e140&#45;&gt;ast.If object at 0x7fc837d1df90 -->
<g id="edge16" class="edge">
<title>ast.For object at 0x7fc837d1e140&#45;&gt;ast.If object at 0x7fc837d1df90</title>
<path fill="none" stroke="black" d="M258.2,-503.7C260.1,-495.9 262.38,-486.51 264.48,-477.83"/>
<polygon fill="black" stroke="black" points="267.89,-478.65 266.85,-468.1 261.08,-477 267.89,-478.65"/>
</g>
<!-- ast.Name object at 0x7fc837d1fac0&#45;&gt;ast.Store object at 0x7fc83b8f2020 -->
<g id="edge10" class="edge">
<title>ast.Name object at 0x7fc837d1fac0&#45;&gt;ast.Store object at 0x7fc83b8f2020</title>
<path fill="none" stroke="black" d="M99,-287.7C99,-279.98 99,-270.71 99,-262.11"/>
<polygon fill="black" stroke="black" points="102.5,-262.1 99,-252.1 95.5,-262.1 102.5,-262.1"/>
</g>
<!-- ast.Name object at 0x7fc837d1c910 -->
<g id="node12" class="node">
<title>ast.Name object at 0x7fc837d1c910</title>
<path fill="#66cdaa" stroke="black" d="M705,-396C705,-396 675,-396 675,-396 669,-396 663,-390 663,-384 663,-384 663,-372 663,-372 663,-366 669,-360 675,-360 675,-360 705,-360 705,-360 711,-360 717,-366 717,-372 717,-372 717,-384 717,-384 717,-390 711,-396 705,-396"/>
<text text-anchor="middle" x="690" y="-374.3" font-family="Times,serif" font-size="14.00">Name</text>
</g>
<!-- ast.Call object at 0x7fc837d1ee90&#45;&gt;ast.Name object at 0x7fc837d1c910 -->
<g id="edge12" class="edge">
<title>ast.Call object at 0x7fc837d1ee90&#45;&gt;ast.Name object at 0x7fc837d1c910</title>
<path fill="none" stroke="black" d="M556.31,-437.13C582.99,-425.53 623.78,-407.79 653.29,-394.96"/>
<polygon fill="black" stroke="black" points="655.05,-398.01 662.82,-390.82 652.26,-391.59 655.05,-398.01"/>
</g>
<!-- ast.Constant object at 0x7fc837d1d540 -->
<g id="node14" class="node">
<title>ast.Constant object at 0x7fc837d1d540</title>
<path fill="#66cdaa" stroke="black" d="M508.5,-396C508.5,-396 467.5,-396 467.5,-396 461.5,-396 455.5,-390 455.5,-384 455.5,-384 455.5,-372 455.5,-372 455.5,-366 461.5,-360 467.5,-360 467.5,-360 508.5,-360 508.5,-360 514.5,-360 520.5,-366 520.5,-372 520.5,-372 520.5,-384 520.5,-384 520.5,-390 514.5,-396 508.5,-396"/>
<text text-anchor="middle" x="488" y="-374.3" font-family="Times,serif" font-size="14.00">Constant</text>
</g>
<!-- ast.Call object at 0x7fc837d1ee90&#45;&gt;ast.Constant object at 0x7fc837d1d540 -->
<g id="edge14" class="edge">
<title>ast.Call object at 0x7fc837d1ee90&#45;&gt;ast.Constant object at 0x7fc837d1d540</title>
<path fill="none" stroke="black" d="M518.87,-431.7C514.15,-423.64 508.44,-413.89 503.22,-404.98"/>
<polygon fill="black" stroke="black" points="506.09,-402.96 498.02,-396.1 500.05,-406.5 506.09,-402.96"/>
</g>
<!-- ast.Constant object at 0x7fc837d1f160 -->
<g id="node15" class="node">
<title>ast.Constant object at 0x7fc837d1f160</title>
<path fill="#66cdaa" stroke="black" d="M591.5,-396C591.5,-396 550.5,-396 550.5,-396 544.5,-396 538.5,-390 538.5,-384 538.5,-384 538.5,-372 538.5,-372 538.5,-366 544.5,-360 550.5,-360 550.5,-360 591.5,-360 591.5,-360 597.5,-360 603.5,-366 603.5,-372 603.5,-372 603.5,-384 603.5,-384 603.5,-390 597.5,-396 591.5,-396"/>
<text text-anchor="middle" x="571" y="-374.3" font-family="Times,serif" font-size="14.00">Constant</text>
</g>
<!-- ast.Call object at 0x7fc837d1ee90&#45;&gt;ast.Constant object at 0x7fc837d1f160 -->
<g id="edge15" class="edge">
<title>ast.Call object at 0x7fc837d1ee90&#45;&gt;ast.Constant object at 0x7fc837d1f160</title>
<path fill="none" stroke="black" d="M539.38,-431.7C544.26,-423.56 550.19,-413.69 555.58,-404.7"/>
<polygon fill="black" stroke="black" points="558.59,-406.48 560.74,-396.1 552.59,-402.88 558.59,-406.48"/>
</g>
<!-- ast.Load object at 0x7fc83b8f1fc0 -->
<g id="node13" class="node">
<title>ast.Load object at 0x7fc83b8f1fc0</title>
<path fill="#66cdaa" stroke="black" d="M342,-36C342,-36 312,-36 312,-36 306,-36 300,-30 300,-24 300,-24 300,-12 300,-12 300,-6 306,0 312,0 312,0 342,0 342,0 348,0 354,-6 354,-12 354,-12 354,-24 354,-24 354,-30 348,-36 342,-36"/>
<text text-anchor="middle" x="327" y="-14.3" font-family="Times,serif" font-size="14.00">Load</text>
</g>
<!-- ast.Name object at 0x7fc837d1c910&#45;&gt;ast.Load object at 0x7fc83b8f1fc0 -->
<g id="edge13" class="edge">
<title>ast.Name object at 0x7fc837d1c910&#45;&gt;ast.Load object at 0x7fc83b8f1fc0</title>
<path fill="none" stroke="black" d="M696.07,-359.76C704.84,-333.28 720,-280.86 720,-235 720,-235 720,-235 720,-161 720,-120.55 730.58,-99.59 701,-72 652.71,-26.96 448.95,-19.98 364.21,-19.06"/>
<polygon fill="black" stroke="black" points="364.04,-15.56 354.01,-18.97 363.98,-22.56 364.04,-15.56"/>
</g>
<!-- ast.BoolOp object at 0x7fc837d1e890 -->
<g id="node17" class="node">
<title>ast.BoolOp object at 0x7fc837d1e890</title>
<path fill="#66cdaa" stroke="black" d="M398.5,-396C398.5,-396 363.5,-396 363.5,-396 357.5,-396 351.5,-390 351.5,-384 351.5,-384 351.5,-372 351.5,-372 351.5,-366 357.5,-360 363.5,-360 363.5,-360 398.5,-360 398.5,-360 404.5,-360 410.5,-366 410.5,-372 410.5,-372 410.5,-384 410.5,-384 410.5,-390 404.5,-396 398.5,-396"/>
<text text-anchor="middle" x="381" y="-374.3" font-family="Times,serif" font-size="14.00">BoolOp</text>
</g>
<!-- ast.If object at 0x7fc837d1df90&#45;&gt;ast.BoolOp object at 0x7fc837d1e890 -->
<g id="edge17" class="edge">
<title>ast.If object at 0x7fc837d1df90&#45;&gt;ast.BoolOp object at 0x7fc837d1e890</title>
<path fill="none" stroke="black" d="M297.91,-431.88C312.16,-422.81 329.85,-411.55 345.24,-401.76"/>
<polygon fill="black" stroke="black" points="347.43,-404.51 353.99,-396.19 343.67,-398.61 347.43,-404.51"/>
</g>
<!-- ast.AugAssign object at 0x7fc837d1fee0 -->
<g id="node37" class="node">
<title>ast.AugAssign object at 0x7fc837d1fee0</title>
<path fill="#66cdaa" stroke="black" d="M297.5,-396C297.5,-396 244.5,-396 244.5,-396 238.5,-396 232.5,-390 232.5,-384 232.5,-384 232.5,-372 232.5,-372 232.5,-366 238.5,-360 244.5,-360 244.5,-360 297.5,-360 297.5,-360 303.5,-360 309.5,-366 309.5,-372 309.5,-372 309.5,-384 309.5,-384 309.5,-390 303.5,-396 297.5,-396"/>
<text text-anchor="middle" x="271" y="-374.3" font-family="Times,serif" font-size="14.00">AugAssign</text>
</g>
<!-- ast.If object at 0x7fc837d1df90&#45;&gt;ast.AugAssign object at 0x7fc837d1fee0 -->
<g id="edge45" class="edge">
<title>ast.If object at 0x7fc837d1df90&#45;&gt;ast.AugAssign object at 0x7fc837d1fee0</title>
<path fill="none" stroke="black" d="M271,-431.7C271,-423.98 271,-414.71 271,-406.11"/>
<polygon fill="black" stroke="black" points="274.5,-406.1 271,-396.1 267.5,-406.1 274.5,-406.1"/>
</g>
<!-- ast.Or object at 0x7fc83b8f2170 -->
<g id="node18" class="node">
<title>ast.Or object at 0x7fc83b8f2170</title>
<path fill="#66cdaa" stroke="black" d="M368,-324C368,-324 338,-324 338,-324 332,-324 326,-318 326,-312 326,-312 326,-300 326,-300 326,-294 332,-288 338,-288 338,-288 368,-288 368,-288 374,-288 380,-294 380,-300 380,-300 380,-312 380,-312 380,-318 374,-324 368,-324"/>
<text text-anchor="middle" x="353" y="-302.3" font-family="Times,serif" font-size="14.00">Or</text>
</g>
<!-- ast.BoolOp object at 0x7fc837d1e890&#45;&gt;ast.Or object at 0x7fc83b8f2170 -->
<g id="edge18" class="edge">
<title>ast.BoolOp object at 0x7fc837d1e890&#45;&gt;ast.Or object at 0x7fc83b8f2170</title>
<path fill="none" stroke="black" d="M374.08,-359.7C370.93,-351.81 367.12,-342.3 363.62,-333.55"/>
<polygon fill="black" stroke="black" points="366.81,-332.09 359.84,-324.1 360.31,-334.69 366.81,-332.09"/>
</g>
<!-- ast.Compare object at 0x7fc837d1f1c0 -->
<g id="node19" class="node">
<title>ast.Compare object at 0x7fc837d1f1c0</title>
<path fill="#66cdaa" stroke="black" d="M453.5,-324C453.5,-324 410.5,-324 410.5,-324 404.5,-324 398.5,-318 398.5,-312 398.5,-312 398.5,-300 398.5,-300 398.5,-294 404.5,-288 410.5,-288 410.5,-288 453.5,-288 453.5,-288 459.5,-288 465.5,-294 465.5,-300 465.5,-300 465.5,-312 465.5,-312 465.5,-318 459.5,-324 453.5,-324"/>
<text text-anchor="middle" x="432" y="-302.3" font-family="Times,serif" font-size="14.00">Compare</text>
</g>
<!-- ast.BoolOp object at 0x7fc837d1e890&#45;&gt;ast.Compare object at 0x7fc837d1f1c0 -->
<g id="edge19" class="edge">
<title>ast.BoolOp object at 0x7fc837d1e890&#45;&gt;ast.Compare object at 0x7fc837d1f1c0</title>
<path fill="none" stroke="black" d="M393.61,-359.7C399.6,-351.47 406.88,-341.48 413.48,-332.42"/>
<polygon fill="black" stroke="black" points="416.48,-334.25 419.54,-324.1 410.82,-330.13 416.48,-334.25"/>
</g>
<!-- ast.Compare object at 0x7fc837d1e290 -->
<g id="node30" class="node">
<title>ast.Compare object at 0x7fc837d1e290</title>
<path fill="#66cdaa" stroke="black" d="M570.5,-324C570.5,-324 527.5,-324 527.5,-324 521.5,-324 515.5,-318 515.5,-312 515.5,-312 515.5,-300 515.5,-300 515.5,-294 521.5,-288 527.5,-288 527.5,-288 570.5,-288 570.5,-288 576.5,-288 582.5,-294 582.5,-300 582.5,-300 582.5,-312 582.5,-312 582.5,-318 576.5,-324 570.5,-324"/>
<text text-anchor="middle" x="549" y="-302.3" font-family="Times,serif" font-size="14.00">Compare</text>
</g>
<!-- ast.BoolOp object at 0x7fc837d1e890&#45;&gt;ast.Compare object at 0x7fc837d1e290 -->
<g id="edge33" class="edge">
<title>ast.BoolOp object at 0x7fc837d1e890&#45;&gt;ast.Compare object at 0x7fc837d1e290</title>
<path fill="none" stroke="black" d="M410.65,-364.65C437.08,-353.63 476.1,-337.37 505.97,-324.93"/>
<polygon fill="black" stroke="black" points="507.43,-328.11 515.32,-321.03 504.74,-321.65 507.43,-328.11"/>
</g>
<!-- ast.BinOp object at 0x7fc837d1f0d0 -->
<g id="node20" class="node">
<title>ast.BinOp object at 0x7fc837d1f0d0</title>
<path fill="#66cdaa" stroke="black" d="M368,-252C368,-252 338,-252 338,-252 332,-252 326,-246 326,-240 326,-240 326,-228 326,-228 326,-222 332,-216 338,-216 338,-216 368,-216 368,-216 374,-216 380,-222 380,-228 380,-228 380,-240 380,-240 380,-246 374,-252 368,-252"/>
<text text-anchor="middle" x="353" y="-230.3" font-family="Times,serif" font-size="14.00">BinOp</text>
</g>
<!-- ast.Compare object at 0x7fc837d1f1c0&#45;&gt;ast.BinOp object at 0x7fc837d1f0d0 -->
<g id="edge20" class="edge">
<title>ast.Compare object at 0x7fc837d1f1c0&#45;&gt;ast.BinOp object at 0x7fc837d1f0d0</title>
<path fill="none" stroke="black" d="M412.47,-287.7C402.62,-278.97 390.51,-268.24 379.8,-258.75"/>
<polygon fill="black" stroke="black" points="382.11,-256.12 372.3,-252.1 377.47,-261.36 382.11,-256.12"/>
</g>
<!-- ast.Eq object at 0x7fc83b8f28f0 -->
<g id="node28" class="node">
<title>ast.Eq object at 0x7fc83b8f28f0</title>
<path fill="#66cdaa" stroke="black" d="M524,-252C524,-252 494,-252 494,-252 488,-252 482,-246 482,-240 482,-240 482,-228 482,-228 482,-222 488,-216 494,-216 494,-216 524,-216 524,-216 530,-216 536,-222 536,-228 536,-228 536,-240 536,-240 536,-246 530,-252 524,-252"/>
<text text-anchor="middle" x="509" y="-230.3" font-family="Times,serif" font-size="14.00">Eq</text>
</g>
<!-- ast.Compare object at 0x7fc837d1f1c0&#45;&gt;ast.Eq object at 0x7fc83b8f28f0 -->
<g id="edge31" class="edge">
<title>ast.Compare object at 0x7fc837d1f1c0&#45;&gt;ast.Eq object at 0x7fc83b8f28f0</title>
<path fill="none" stroke="black" d="M451.03,-287.7C460.54,-279.05 472.21,-268.45 482.57,-259.03"/>
<polygon fill="black" stroke="black" points="485.14,-261.42 490.19,-252.1 480.43,-256.24 485.14,-261.42"/>
</g>
<!-- ast.Constant object at 0x7fc837d1c040 -->
<g id="node29" class="node">
<title>ast.Constant object at 0x7fc837d1c040</title>
<path fill="#66cdaa" stroke="black" d="M451.5,-252C451.5,-252 410.5,-252 410.5,-252 404.5,-252 398.5,-246 398.5,-240 398.5,-240 398.5,-228 398.5,-228 398.5,-222 404.5,-216 410.5,-216 410.5,-216 451.5,-216 451.5,-216 457.5,-216 463.5,-222 463.5,-228 463.5,-228 463.5,-240 463.5,-240 463.5,-246 457.5,-252 451.5,-252"/>
<text text-anchor="middle" x="431" y="-230.3" font-family="Times,serif" font-size="14.00">Constant</text>
</g>
<!-- ast.Compare object at 0x7fc837d1f1c0&#45;&gt;ast.Constant object at 0x7fc837d1c040 -->
<g id="edge32" class="edge">
<title>ast.Compare object at 0x7fc837d1f1c0&#45;&gt;ast.Constant object at 0x7fc837d1c040</title>
<path fill="none" stroke="black" d="M431.75,-287.7C431.64,-279.98 431.51,-270.71 431.39,-262.11"/>
<polygon fill="black" stroke="black" points="434.89,-262.05 431.24,-252.1 427.89,-262.15 434.89,-262.05"/>
</g>
<!-- ast.Subscript object at 0x7fc837d1dfc0 -->
<g id="node21" class="node">
<title>ast.Subscript object at 0x7fc837d1dfc0</title>
<path fill="#66cdaa" stroke="black" d="M309,-180C309,-180 265,-180 265,-180 259,-180 253,-174 253,-168 253,-168 253,-156 253,-156 253,-150 259,-144 265,-144 265,-144 309,-144 309,-144 315,-144 321,-150 321,-156 321,-156 321,-168 321,-168 321,-174 315,-180 309,-180"/>
<text text-anchor="middle" x="287" y="-158.3" font-family="Times,serif" font-size="14.00">Subscript</text>
</g>
<!-- ast.BinOp object at 0x7fc837d1f0d0&#45;&gt;ast.Subscript object at 0x7fc837d1dfc0 -->
<g id="edge21" class="edge">
<title>ast.BinOp object at 0x7fc837d1f0d0&#45;&gt;ast.Subscript object at 0x7fc837d1dfc0</title>
<path fill="none" stroke="black" d="M336.69,-215.7C328.69,-207.22 318.93,-196.86 310.18,-187.58"/>
<polygon fill="black" stroke="black" points="312.53,-184.98 303.13,-180.1 307.44,-189.78 312.53,-184.98"/>
</g>
<!-- ast.Mod object at 0x7fc83b8f23e0 -->
<g id="node24" class="node">
<title>ast.Mod object at 0x7fc83b8f23e0</title>
<path fill="#66cdaa" stroke="black" d="M505,-180C505,-180 475,-180 475,-180 469,-180 463,-174 463,-168 463,-168 463,-156 463,-156 463,-150 469,-144 475,-144 475,-144 505,-144 505,-144 511,-144 517,-150 517,-156 517,-156 517,-168 517,-168 517,-174 511,-180 505,-180"/>
<text text-anchor="middle" x="490" y="-158.3" font-family="Times,serif" font-size="14.00">Mod</text>
</g>
<!-- ast.BinOp object at 0x7fc837d1f0d0&#45;&gt;ast.Mod object at 0x7fc83b8f23e0 -->
<g id="edge27" class="edge">
<title>ast.BinOp object at 0x7fc837d1f0d0&#45;&gt;ast.Mod object at 0x7fc83b8f23e0</title>
<path fill="none" stroke="black" d="M380.07,-219.17C401.18,-208.38 430.69,-193.3 453.83,-181.48"/>
<polygon fill="black" stroke="black" points="455.68,-184.47 462.99,-176.8 452.49,-178.23 455.68,-184.47"/>
</g>
<!-- ast.UnaryOp object at 0x7fc837d1c460 -->
<g id="node25" class="node">
<title>ast.UnaryOp object at 0x7fc837d1c460</title>
<path fill="#66cdaa" stroke="black" d="M426.5,-180C426.5,-180 383.5,-180 383.5,-180 377.5,-180 371.5,-174 371.5,-168 371.5,-168 371.5,-156 371.5,-156 371.5,-150 377.5,-144 383.5,-144 383.5,-144 426.5,-144 426.5,-144 432.5,-144 438.5,-150 438.5,-156 438.5,-156 438.5,-168 438.5,-168 438.5,-174 432.5,-180 426.5,-180"/>
<text text-anchor="middle" x="405" y="-158.3" font-family="Times,serif" font-size="14.00">UnaryOp</text>
</g>
<!-- ast.BinOp object at 0x7fc837d1f0d0&#45;&gt;ast.UnaryOp object at 0x7fc837d1c460 -->
<g id="edge28" class="edge">
<title>ast.BinOp object at 0x7fc837d1f0d0&#45;&gt;ast.UnaryOp object at 0x7fc837d1c460</title>
<path fill="none" stroke="black" d="M365.85,-215.7C372.03,-207.39 379.54,-197.28 386.32,-188.14"/>
<polygon fill="black" stroke="black" points="389.14,-190.22 392.29,-180.1 383.52,-186.04 389.14,-190.22"/>
</g>
<!-- ast.Subscript object at 0x7fc837d1dfc0&#45;&gt;ast.Load object at 0x7fc83b8f1fc0 -->
<g id="edge26" class="edge">
<title>ast.Subscript object at 0x7fc837d1dfc0&#45;&gt;ast.Load object at 0x7fc83b8f1fc0</title>
<path fill="none" stroke="black" d="M253.64,-143.86C240.29,-135.09 226.36,-123.06 219,-108 211.98,-93.62 210.54,-85.58 219,-72 234.44,-47.23 265.2,-33.71 289.96,-26.54"/>
<polygon fill="black" stroke="black" points="291.03,-29.87 299.8,-23.92 289.23,-23.11 291.03,-29.87"/>
</g>
<!-- ast.Name object at 0x7fc837d1d4e0 -->
<g id="node22" class="node">
<title>ast.Name object at 0x7fc837d1d4e0</title>
<path fill="#66cdaa" stroke="black" d="M270,-108C270,-108 240,-108 240,-108 234,-108 228,-102 228,-96 228,-96 228,-84 228,-84 228,-78 234,-72 240,-72 240,-72 270,-72 270,-72 276,-72 282,-78 282,-84 282,-84 282,-96 282,-96 282,-102 276,-108 270,-108"/>
<text text-anchor="middle" x="255" y="-86.3" font-family="Times,serif" font-size="14.00">Name</text>
</g>
<!-- ast.Subscript object at 0x7fc837d1dfc0&#45;&gt;ast.Name object at 0x7fc837d1d4e0 -->
<g id="edge22" class="edge">
<title>ast.Subscript object at 0x7fc837d1dfc0&#45;&gt;ast.Name object at 0x7fc837d1d4e0</title>
<path fill="none" stroke="black" d="M279.09,-143.7C275.45,-135.73 271.05,-126.1 267.01,-117.26"/>
<polygon fill="black" stroke="black" points="270.16,-115.74 262.82,-108.1 263.79,-118.65 270.16,-115.74"/>
</g>
<!-- ast.Name object at 0x7fc837d1c100 -->
<g id="node23" class="node">
<title>ast.Name object at 0x7fc837d1c100</title>
<path fill="#66cdaa" stroke="black" d="M342,-108C342,-108 312,-108 312,-108 306,-108 300,-102 300,-96 300,-96 300,-84 300,-84 300,-78 306,-72 312,-72 312,-72 342,-72 342,-72 348,-72 354,-78 354,-84 354,-84 354,-96 354,-96 354,-102 348,-108 342,-108"/>
<text text-anchor="middle" x="327" y="-86.3" font-family="Times,serif" font-size="14.00">Name</text>
</g>
<!-- ast.Subscript object at 0x7fc837d1dfc0&#45;&gt;ast.Name object at 0x7fc837d1c100 -->
<g id="edge24" class="edge">
<title>ast.Subscript object at 0x7fc837d1dfc0&#45;&gt;ast.Name object at 0x7fc837d1c100</title>
<path fill="none" stroke="black" d="M296.89,-143.7C301.49,-135.64 307.06,-125.89 312.15,-116.98"/>
<polygon fill="black" stroke="black" points="315.3,-118.52 317.23,-108.1 309.23,-115.05 315.3,-118.52"/>
</g>
<!-- ast.Name object at 0x7fc837d1d4e0&#45;&gt;ast.Load object at 0x7fc83b8f1fc0 -->
<g id="edge23" class="edge">
<title>ast.Name object at 0x7fc837d1d4e0&#45;&gt;ast.Load object at 0x7fc83b8f1fc0</title>
<path fill="none" stroke="black" d="M272.8,-71.7C281.6,-63.14 292.38,-52.66 302,-43.3"/>
<polygon fill="black" stroke="black" points="304.68,-45.58 309.41,-36.1 299.8,-40.57 304.68,-45.58"/>
</g>
<!-- ast.Name object at 0x7fc837d1c100&#45;&gt;ast.Load object at 0x7fc83b8f1fc0 -->
<g id="edge25" class="edge">
<title>ast.Name object at 0x7fc837d1c100&#45;&gt;ast.Load object at 0x7fc83b8f1fc0</title>
<path fill="none" stroke="black" d="M327,-71.7C327,-63.98 327,-54.71 327,-46.11"/>
<polygon fill="black" stroke="black" points="330.5,-46.1 327,-36.1 323.5,-46.1 330.5,-46.1"/>
</g>
<!-- ast.USub object at 0x7fc83b8f2860 -->
<g id="node26" class="node">
<title>ast.USub object at 0x7fc83b8f2860</title>
<path fill="#66cdaa" stroke="black" d="M498,-108C498,-108 468,-108 468,-108 462,-108 456,-102 456,-96 456,-96 456,-84 456,-84 456,-78 462,-72 468,-72 468,-72 498,-72 498,-72 504,-72 510,-78 510,-84 510,-84 510,-96 510,-96 510,-102 504,-108 498,-108"/>
<text text-anchor="middle" x="483" y="-86.3" font-family="Times,serif" font-size="14.00">USub</text>
</g>
<!-- ast.UnaryOp object at 0x7fc837d1c460&#45;&gt;ast.USub object at 0x7fc83b8f2860 -->
<g id="edge29" class="edge">
<title>ast.UnaryOp object at 0x7fc837d1c460&#45;&gt;ast.USub object at 0x7fc83b8f2860</title>
<path fill="none" stroke="black" d="M424.28,-143.7C433.92,-135.05 445.73,-124.45 456.23,-115.03"/>
<polygon fill="black" stroke="black" points="458.84,-117.39 463.94,-108.1 454.16,-112.18 458.84,-117.39"/>
</g>
<!-- ast.Constant object at 0x7fc837d1e2f0 -->
<g id="node27" class="node">
<title>ast.Constant object at 0x7fc837d1e2f0</title>
<path fill="#66cdaa" stroke="black" d="M425.5,-108C425.5,-108 384.5,-108 384.5,-108 378.5,-108 372.5,-102 372.5,-96 372.5,-96 372.5,-84 372.5,-84 372.5,-78 378.5,-72 384.5,-72 384.5,-72 425.5,-72 425.5,-72 431.5,-72 437.5,-78 437.5,-84 437.5,-84 437.5,-96 437.5,-96 437.5,-102 431.5,-108 425.5,-108"/>
<text text-anchor="middle" x="405" y="-86.3" font-family="Times,serif" font-size="14.00">Constant</text>
</g>
<!-- ast.UnaryOp object at 0x7fc837d1c460&#45;&gt;ast.Constant object at 0x7fc837d1e2f0 -->
<g id="edge30" class="edge">
<title>ast.UnaryOp object at 0x7fc837d1c460&#45;&gt;ast.Constant object at 0x7fc837d1e2f0</title>
<path fill="none" stroke="black" d="M405,-143.7C405,-135.98 405,-126.71 405,-118.11"/>
<polygon fill="black" stroke="black" points="408.5,-118.1 405,-108.1 401.5,-118.1 408.5,-118.1"/>
</g>
<!-- ast.Compare object at 0x7fc837d1e290&#45;&gt;ast.Eq object at 0x7fc83b8f28f0 -->
<g id="edge43" class="edge">
<title>ast.Compare object at 0x7fc837d1e290&#45;&gt;ast.Eq object at 0x7fc83b8f28f0</title>
<path fill="none" stroke="black" d="M539.11,-287.7C534.51,-279.64 528.94,-269.89 523.85,-260.98"/>
<polygon fill="black" stroke="black" points="526.77,-259.05 518.77,-252.1 520.7,-262.52 526.77,-259.05"/>
</g>
<!-- ast.BinOp object at 0x7fc837d1d690 -->
<g id="node31" class="node">
<title>ast.BinOp object at 0x7fc837d1d690</title>
<path fill="#66cdaa" stroke="black" d="M596,-252C596,-252 566,-252 566,-252 560,-252 554,-246 554,-240 554,-240 554,-228 554,-228 554,-222 560,-216 566,-216 566,-216 596,-216 596,-216 602,-216 608,-222 608,-228 608,-228 608,-240 608,-240 608,-246 602,-252 596,-252"/>
<text text-anchor="middle" x="581" y="-230.3" font-family="Times,serif" font-size="14.00">BinOp</text>
</g>
<!-- ast.Compare object at 0x7fc837d1e290&#45;&gt;ast.BinOp object at 0x7fc837d1d690 -->
<g id="edge34" class="edge">
<title>ast.Compare object at 0x7fc837d1e290&#45;&gt;ast.BinOp object at 0x7fc837d1d690</title>
<path fill="none" stroke="black" d="M556.91,-287.7C560.55,-279.73 564.95,-270.1 568.99,-261.26"/>
<polygon fill="black" stroke="black" points="572.21,-262.65 573.18,-252.1 565.84,-259.74 572.21,-262.65"/>
</g>
<!-- ast.Constant object at 0x7fc837d1d060 -->
<g id="node36" class="node">
<title>ast.Constant object at 0x7fc837d1d060</title>
<path fill="#66cdaa" stroke="black" d="M679.5,-252C679.5,-252 638.5,-252 638.5,-252 632.5,-252 626.5,-246 626.5,-240 626.5,-240 626.5,-228 626.5,-228 626.5,-222 632.5,-216 638.5,-216 638.5,-216 679.5,-216 679.5,-216 685.5,-216 691.5,-222 691.5,-228 691.5,-228 691.5,-240 691.5,-240 691.5,-246 685.5,-252 679.5,-252"/>
<text text-anchor="middle" x="659" y="-230.3" font-family="Times,serif" font-size="14.00">Constant</text>
</g>
<!-- ast.Compare object at 0x7fc837d1e290&#45;&gt;ast.Constant object at 0x7fc837d1d060 -->
<g id="edge44" class="edge">
<title>ast.Compare object at 0x7fc837d1e290&#45;&gt;ast.Constant object at 0x7fc837d1d060</title>
<path fill="none" stroke="black" d="M575.91,-287.88C590.16,-278.81 607.85,-267.55 623.24,-257.76"/>
<polygon fill="black" stroke="black" points="625.43,-260.51 631.99,-252.19 621.67,-254.61 625.43,-260.51"/>
</g>
<!-- ast.BinOp object at 0x7fc837d1d690&#45;&gt;ast.Mod object at 0x7fc83b8f23e0 -->
<g id="edge41" class="edge">
<title>ast.BinOp object at 0x7fc837d1d690&#45;&gt;ast.Mod object at 0x7fc83b8f23e0</title>
<path fill="none" stroke="black" d="M558.51,-215.7C547.04,-206.88 532.94,-196.03 520.52,-186.47"/>
<polygon fill="black" stroke="black" points="522.3,-183.43 512.24,-180.1 518.03,-188.98 522.3,-183.43"/>
</g>
<!-- ast.Subscript object at 0x7fc837d1e080 -->
<g id="node32" class="node">
<title>ast.Subscript object at 0x7fc837d1e080</title>
<path fill="#66cdaa" stroke="black" d="M596,-180C596,-180 552,-180 552,-180 546,-180 540,-174 540,-168 540,-168 540,-156 540,-156 540,-150 546,-144 552,-144 552,-144 596,-144 596,-144 602,-144 608,-150 608,-156 608,-156 608,-168 608,-168 608,-174 602,-180 596,-180"/>
<text text-anchor="middle" x="574" y="-158.3" font-family="Times,serif" font-size="14.00">Subscript</text>
</g>
<!-- ast.BinOp object at 0x7fc837d1d690&#45;&gt;ast.Subscript object at 0x7fc837d1e080 -->
<g id="edge35" class="edge">
<title>ast.BinOp object at 0x7fc837d1d690&#45;&gt;ast.Subscript object at 0x7fc837d1e080</title>
<path fill="none" stroke="black" d="M579.27,-215.7C578.5,-207.98 577.57,-198.71 576.71,-190.11"/>
<polygon fill="black" stroke="black" points="580.19,-189.71 575.71,-180.1 573.22,-190.4 580.19,-189.71"/>
</g>
<!-- ast.Constant object at 0x7fc837d1f880 -->
<g id="node35" class="node">
<title>ast.Constant object at 0x7fc837d1f880</title>
<path fill="#66cdaa" stroke="black" d="M679.5,-180C679.5,-180 638.5,-180 638.5,-180 632.5,-180 626.5,-174 626.5,-168 626.5,-168 626.5,-156 626.5,-156 626.5,-150 632.5,-144 638.5,-144 638.5,-144 679.5,-144 679.5,-144 685.5,-144 691.5,-150 691.5,-156 691.5,-156 691.5,-168 691.5,-168 691.5,-174 685.5,-180 679.5,-180"/>
<text text-anchor="middle" x="659" y="-158.3" font-family="Times,serif" font-size="14.00">Constant</text>
</g>
<!-- ast.BinOp object at 0x7fc837d1d690&#45;&gt;ast.Constant object at 0x7fc837d1f880 -->
<g id="edge42" class="edge">
<title>ast.BinOp object at 0x7fc837d1d690&#45;&gt;ast.Constant object at 0x7fc837d1f880</title>
<path fill="none" stroke="black" d="M600.28,-215.7C609.92,-207.05 621.73,-196.45 632.23,-187.03"/>
<polygon fill="black" stroke="black" points="634.84,-189.39 639.94,-180.1 630.16,-184.18 634.84,-189.39"/>
</g>
<!-- ast.Subscript object at 0x7fc837d1e080&#45;&gt;ast.Load object at 0x7fc83b8f1fc0 -->
<g id="edge40" class="edge">
<title>ast.Subscript object at 0x7fc837d1e080&#45;&gt;ast.Load object at 0x7fc83b8f1fc0</title>
<path fill="none" stroke="black" d="M567.91,-143.89C559.85,-123.69 543.71,-90.52 519,-72 472.96,-37.48 405.65,-25.45 364.18,-21.25"/>
<polygon fill="black" stroke="black" points="364.49,-17.76 354.22,-20.34 363.86,-24.73 364.49,-17.76"/>
</g>
<!-- ast.Name object at 0x7fc837d1e470 -->
<g id="node33" class="node">
<title>ast.Name object at 0x7fc837d1e470</title>
<path fill="#66cdaa" stroke="black" d="M608,-108C608,-108 578,-108 578,-108 572,-108 566,-102 566,-96 566,-96 566,-84 566,-84 566,-78 572,-72 578,-72 578,-72 608,-72 608,-72 614,-72 620,-78 620,-84 620,-84 620,-96 620,-96 620,-102 614,-108 608,-108"/>
<text text-anchor="middle" x="593" y="-86.3" font-family="Times,serif" font-size="14.00">Name</text>
</g>
<!-- ast.Subscript object at 0x7fc837d1e080&#45;&gt;ast.Name object at 0x7fc837d1e470 -->
<g id="edge36" class="edge">
<title>ast.Subscript object at 0x7fc837d1e080&#45;&gt;ast.Name object at 0x7fc837d1e470</title>
<path fill="none" stroke="black" d="M578.7,-143.7C580.81,-135.9 583.36,-126.51 585.72,-117.83"/>
<polygon fill="black" stroke="black" points="589.12,-118.67 588.36,-108.1 582.36,-116.84 589.12,-118.67"/>
</g>
<!-- ast.Name object at 0x7fc837d1f820 -->
<g id="node34" class="node">
<title>ast.Name object at 0x7fc837d1f820</title>
<path fill="#66cdaa" stroke="black" d="M680,-108C680,-108 650,-108 650,-108 644,-108 638,-102 638,-96 638,-96 638,-84 638,-84 638,-78 644,-72 650,-72 650,-72 680,-72 680,-72 686,-72 692,-78 692,-84 692,-84 692,-96 692,-96 692,-102 686,-108 680,-108"/>
<text text-anchor="middle" x="665" y="-86.3" font-family="Times,serif" font-size="14.00">Name</text>
</g>
<!-- ast.Subscript object at 0x7fc837d1e080&#45;&gt;ast.Name object at 0x7fc837d1f820 -->
<g id="edge38" class="edge">
<title>ast.Subscript object at 0x7fc837d1e080&#45;&gt;ast.Name object at 0x7fc837d1f820</title>
<path fill="none" stroke="black" d="M596.49,-143.7C607.96,-134.88 622.06,-124.03 634.48,-114.47"/>
<polygon fill="black" stroke="black" points="636.97,-116.98 642.76,-108.1 632.7,-111.43 636.97,-116.98"/>
</g>
<!-- ast.Name object at 0x7fc837d1e470&#45;&gt;ast.Load object at 0x7fc83b8f1fc0 -->
<g id="edge37" class="edge">
<title>ast.Name object at 0x7fc837d1e470&#45;&gt;ast.Load object at 0x7fc83b8f1fc0</title>
<path fill="none" stroke="black" d="M565.88,-77.04C561.3,-75.22 556.55,-73.47 552,-72 486.98,-51.02 408.94,-34.5 363.94,-25.79"/>
<polygon fill="black" stroke="black" points="364.53,-22.34 354.05,-23.9 363.22,-29.22 364.53,-22.34"/>
</g>
<!-- ast.Name object at 0x7fc837d1f820&#45;&gt;ast.Load object at 0x7fc83b8f1fc0 -->
<g id="edge39" class="edge">
<title>ast.Name object at 0x7fc837d1f820&#45;&gt;ast.Load object at 0x7fc83b8f1fc0</title>
<path fill="none" stroke="black" d="M637.79,-75.23C634.86,-74.03 631.9,-72.92 629,-72 536.34,-42.58 422.19,-28.16 364.36,-22.31"/>
<polygon fill="black" stroke="black" points="364.54,-18.81 354.24,-21.32 363.85,-25.78 364.54,-18.81"/>
</g>
<!-- ast.Name object at 0x7fc837d1e380 -->
<g id="node38" class="node">
<title>ast.Name object at 0x7fc837d1e380</title>
<path fill="#66cdaa" stroke="black" d="M258,-324C258,-324 228,-324 228,-324 222,-324 216,-318 216,-312 216,-312 216,-300 216,-300 216,-294 222,-288 228,-288 228,-288 258,-288 258,-288 264,-288 270,-294 270,-300 270,-300 270,-312 270,-312 270,-318 264,-324 258,-324"/>
<text text-anchor="middle" x="243" y="-302.3" font-family="Times,serif" font-size="14.00">Name</text>
</g>
<!-- ast.AugAssign object at 0x7fc837d1fee0&#45;&gt;ast.Name object at 0x7fc837d1e380 -->
<g id="edge46" class="edge">
<title>ast.AugAssign object at 0x7fc837d1fee0&#45;&gt;ast.Name object at 0x7fc837d1e380</title>
<path fill="none" stroke="black" d="M264.08,-359.7C260.93,-351.81 257.12,-342.3 253.62,-333.55"/>
<polygon fill="black" stroke="black" points="256.81,-332.09 249.84,-324.1 250.31,-334.69 256.81,-332.09"/>
</g>
<!-- ast.Add object at 0x7fc83b8f2200 -->
<g id="node39" class="node">
<title>ast.Add object at 0x7fc83b8f2200</title>
<path fill="#66cdaa" stroke="black" d="M186,-324C186,-324 156,-324 156,-324 150,-324 144,-318 144,-312 144,-312 144,-300 144,-300 144,-294 150,-288 156,-288 156,-288 186,-288 186,-288 192,-288 198,-294 198,-300 198,-300 198,-312 198,-312 198,-318 192,-324 186,-324"/>
<text text-anchor="middle" x="171" y="-302.3" font-family="Times,serif" font-size="14.00">Add</text>
</g>
<!-- ast.AugAssign object at 0x7fc837d1fee0&#45;&gt;ast.Add object at 0x7fc83b8f2200 -->
<g id="edge48" class="edge">
<title>ast.AugAssign object at 0x7fc837d1fee0&#45;&gt;ast.Add object at 0x7fc83b8f2200</title>
<path fill="none" stroke="black" d="M246.54,-359.88C233.7,-350.89 217.8,-339.76 203.91,-330.03"/>
<polygon fill="black" stroke="black" points="205.76,-327.06 195.56,-324.19 201.74,-332.79 205.76,-327.06"/>
</g>
<!-- ast.Subscript object at 0x7fc837d1d3c0 -->
<g id="node40" class="node">
<title>ast.Subscript object at 0x7fc837d1d3c0</title>
<path fill="#66cdaa" stroke="black" d="M140,-180C140,-180 96,-180 96,-180 90,-180 84,-174 84,-168 84,-168 84,-156 84,-156 84,-150 90,-144 96,-144 96,-144 140,-144 140,-144 146,-144 152,-150 152,-156 152,-156 152,-168 152,-168 152,-174 146,-180 140,-180"/>
<text text-anchor="middle" x="118" y="-158.3" font-family="Times,serif" font-size="14.00">Subscript</text>
</g>
<!-- ast.AugAssign object at 0x7fc837d1fee0&#45;&gt;ast.Subscript object at 0x7fc837d1d3c0 -->
<g id="edge49" class="edge">
<title>ast.AugAssign object at 0x7fc837d1fee0&#45;&gt;ast.Subscript object at 0x7fc837d1d3c0</title>
<path fill="none" stroke="black" d="M277.58,-359.97C283.68,-341.32 290.26,-310.99 279,-288 254.65,-238.28 199.93,-202.64 161.05,-182.45"/>
<polygon fill="black" stroke="black" points="162.54,-179.27 152.03,-177.89 159.38,-185.52 162.54,-179.27"/>
</g>
<!-- ast.Name object at 0x7fc837d1e380&#45;&gt;ast.Store object at 0x7fc83b8f2020 -->
<g id="edge47" class="edge">
<title>ast.Name object at 0x7fc837d1e380&#45;&gt;ast.Store object at 0x7fc83b8f2020</title>
<path fill="none" stroke="black" d="M215.91,-291.83C193.23,-280.81 160.64,-264.97 135.63,-252.81"/>
<polygon fill="black" stroke="black" points="136.98,-249.57 126.45,-248.35 133.92,-255.87 136.98,-249.57"/>
</g>
<!-- ast.Subscript object at 0x7fc837d1d3c0&#45;&gt;ast.Load object at 0x7fc83b8f1fc0 -->
<g id="edge54" class="edge">
<title>ast.Subscript object at 0x7fc837d1d3c0&#45;&gt;ast.Load object at 0x7fc83b8f1fc0</title>
<path fill="none" stroke="black" d="M109.83,-143.95C101.79,-124.43 92.88,-92.51 109,-72 131.05,-43.95 233.17,-28.91 289.48,-22.62"/>
<polygon fill="black" stroke="black" points="290.2,-26.06 299.76,-21.51 289.45,-19.1 290.2,-26.06"/>
</g>
<!-- ast.Name object at 0x7fc837d1d090 -->
<g id="node41" class="node">
<title>ast.Name object at 0x7fc837d1d090</title>
<path fill="#66cdaa" stroke="black" d="M160,-108C160,-108 130,-108 130,-108 124,-108 118,-102 118,-96 118,-96 118,-84 118,-84 118,-78 124,-72 130,-72 130,-72 160,-72 160,-72 166,-72 172,-78 172,-84 172,-84 172,-96 172,-96 172,-102 166,-108 160,-108"/>
<text text-anchor="middle" x="145" y="-86.3" font-family="Times,serif" font-size="14.00">Name</text>
</g>
<!-- ast.Subscript object at 0x7fc837d1d3c0&#45;&gt;ast.Name object at 0x7fc837d1d090 -->
<g id="edge50" class="edge">
<title>ast.Subscript object at 0x7fc837d1d3c0&#45;&gt;ast.Name object at 0x7fc837d1d090</title>
<path fill="none" stroke="black" d="M124.67,-143.7C127.71,-135.81 131.38,-126.3 134.76,-117.55"/>
<polygon fill="black" stroke="black" points="138.07,-118.69 138.4,-108.1 131.54,-116.17 138.07,-118.69"/>
</g>
<!-- ast.Name object at 0x7fc837d1e8c0 -->
<g id="node42" class="node">
<title>ast.Name object at 0x7fc837d1e8c0</title>
<path fill="#66cdaa" stroke="black" d="M50,-108C50,-108 20,-108 20,-108 14,-108 8,-102 8,-96 8,-96 8,-84 8,-84 8,-78 14,-72 20,-72 20,-72 50,-72 50,-72 56,-72 62,-78 62,-84 62,-84 62,-96 62,-96 62,-102 56,-108 50,-108"/>
<text text-anchor="middle" x="35" y="-86.3" font-family="Times,serif" font-size="14.00">Name</text>
</g>
<!-- ast.Subscript object at 0x7fc837d1d3c0&#45;&gt;ast.Name object at 0x7fc837d1e8c0 -->
<g id="edge52" class="edge">
<title>ast.Subscript object at 0x7fc837d1d3c0&#45;&gt;ast.Name object at 0x7fc837d1e8c0</title>
<path fill="none" stroke="black" d="M97.48,-143.7C87.13,-134.97 74.41,-124.24 63.16,-114.75"/>
<polygon fill="black" stroke="black" points="65.18,-111.88 55.28,-108.1 60.67,-117.23 65.18,-111.88"/>
</g>
<!-- ast.Name object at 0x7fc837d1d090&#45;&gt;ast.Load object at 0x7fc83b8f1fc0 -->
<g id="edge51" class="edge">
<title>ast.Name object at 0x7fc837d1d090&#45;&gt;ast.Load object at 0x7fc83b8f1fc0</title>
<path fill="none" stroke="black" d="M172.3,-77.53C176.86,-75.66 181.56,-73.76 186,-72 221.25,-58.07 261.77,-42.93 290.3,-32.41"/>
<polygon fill="black" stroke="black" points="291.69,-35.63 299.87,-28.89 289.27,-29.06 291.69,-35.63"/>
</g>
<!-- ast.Name object at 0x7fc837d1e8c0&#45;&gt;ast.Load object at 0x7fc83b8f1fc0 -->
<g id="edge53" class="edge">
<title>ast.Name object at 0x7fc837d1e8c0&#45;&gt;ast.Load object at 0x7fc83b8f1fc0</title>
<path fill="none" stroke="black" d="M62.09,-76.95C66.68,-75.14 71.44,-73.41 76,-72 150.47,-48.92 240.45,-32.62 289.92,-24.62"/>
<polygon fill="black" stroke="black" points="290.51,-28.07 299.84,-23.04 289.41,-21.16 290.51,-28.07"/>
</g>
<!-- ast.Name object at 0x7fc837d1e8f0 -->
<g id="node44" class="node">
<title>ast.Name object at 0x7fc837d1e8f0</title>
<path fill="#66cdaa" stroke="black" d="M701,-468C701,-468 671,-468 671,-468 665,-468 659,-462 659,-456 659,-456 659,-444 659,-444 659,-438 665,-432 671,-432 671,-432 701,-432 701,-432 707,-432 713,-438 713,-444 713,-444 713,-456 713,-456 713,-462 707,-468 701,-468"/>
<text text-anchor="middle" x="686" y="-446.3" font-family="Times,serif" font-size="14.00">Name</text>
</g>
<!-- ast.Return object at 0x7fc837d1d000&#45;&gt;ast.Name object at 0x7fc837d1e8f0 -->
<g id="edge56" class="edge">
<title>ast.Return object at 0x7fc837d1d000&#45;&gt;ast.Name object at 0x7fc837d1e8f0</title>
<path fill="none" stroke="black" d="M470.4,-513.11C514.09,-500.52 599.6,-475.89 648.78,-461.72"/>
<polygon fill="black" stroke="black" points="650.06,-465 658.7,-458.86 648.12,-458.27 650.06,-465"/>
</g>
<!-- ast.Name object at 0x7fc837d1e8f0&#45;&gt;ast.Load object at 0x7fc83b8f1fc0 -->
<g id="edge57" class="edge">
<title>ast.Name object at 0x7fc837d1e8f0&#45;&gt;ast.Load object at 0x7fc83b8f1fc0</title>
<path fill="none" stroke="black" d="M701.62,-431.62C722.8,-406.19 758,-356.48 758,-307 758,-307 758,-307 758,-161 758,-118.81 757.96,-98.33 725,-72 669.79,-27.89 452.37,-20.41 364.32,-19.2"/>
<polygon fill="black" stroke="black" points="364.28,-15.7 354.24,-19.08 364.2,-22.7 364.28,-15.7"/>
</g>
</g>
</svg>
