<?xml version="1.0" encoding="UTF-8" standalone="no"?>
<!DOCTYPE svg PUBLIC "-//W3C//DTD SVG 1.1//EN"
 "http://www.w3.org/Graphics/SVG/1.1/DTD/svg11.dtd">
<!-- Generated by graphviz version 2.43.0 (0)
 -->
<!-- Title: %3 Pages: 1 -->
<svg width="705pt" height="692pt"
 viewBox="0.00 0.00 705.37 692.00" xmlns="http://www.w3.org/2000/svg" xmlns:xlink="http://www.w3.org/1999/xlink">
<g id="graph0" class="graph" transform="scale(1 1) rotate(0) translate(4 688)">
<title>%3</title>
<polygon fill="white" stroke="transparent" points="-4,4 -4,-688 701.37,-688 701.37,4 -4,4"/>
<!-- ast.Module object at 0x7f6569bb7220 -->
<g id="node1" class="node">
<title>ast.Module object at 0x7f6569bb7220</title>
<path fill="#66cdaa" stroke="black" d="M114.5,-684C114.5,-684 79.5,-684 79.5,-684 73.5,-684 67.5,-678 67.5,-672 67.5,-672 67.5,-660 67.5,-660 67.5,-654 73.5,-648 79.5,-648 79.5,-648 114.5,-648 114.5,-648 120.5,-648 126.5,-654 126.5,-660 126.5,-660 126.5,-672 126.5,-672 126.5,-678 120.5,-684 114.5,-684"/>
<text text-anchor="middle" x="97" y="-662.3" font-family="Times,serif" font-size="14.00">Module</text>
</g>
<!-- ast.FunctionDef object at 0x7f6569bb6200 -->
<g id="node2" class="node">
<title>ast.FunctionDef object at 0x7f6569bb6200</title>
<path fill="#66cdaa" stroke="black" d="M127.5,-612C127.5,-612 66.5,-612 66.5,-612 60.5,-612 54.5,-606 54.5,-600 54.5,-600 54.5,-588 54.5,-588 54.5,-582 60.5,-576 66.5,-576 66.5,-576 127.5,-576 127.5,-576 133.5,-576 139.5,-582 139.5,-588 139.5,-588 139.5,-600 139.5,-600 139.5,-606 133.5,-612 127.5,-612"/>
<text text-anchor="middle" x="97" y="-590.3" font-family="Times,serif" font-size="14.00">FunctionDef</text>
</g>
<!-- ast.Module object at 0x7f6569bb7220&#45;&gt;ast.FunctionDef object at 0x7f6569bb6200 -->
<g id="edge1" class="edge">
<title>ast.Module object at 0x7f6569bb7220&#45;&gt;ast.FunctionDef object at 0x7f6569bb6200</title>
<path fill="none" stroke="black" d="M97,-647.7C97,-639.98 97,-630.71 97,-622.11"/>
<polygon fill="black" stroke="black" points="100.5,-622.1 97,-612.1 93.5,-622.1 100.5,-622.1"/>
</g>
<!-- ast.arguments object at 0x7f6569bb6560 -->
<g id="node3" class="node">
<title>ast.arguments object at 0x7f6569bb6560</title>
<path fill="#66cdaa" stroke="black" d="M81,-540C81,-540 31,-540 31,-540 25,-540 19,-534 19,-528 19,-528 19,-516 19,-516 19,-510 25,-504 31,-504 31,-504 81,-504 81,-504 87,-504 93,-510 93,-516 93,-516 93,-528 93,-528 93,-534 87,-540 81,-540"/>
<text text-anchor="middle" x="56" y="-518.3" font-family="Times,serif" font-size="14.00">arguments</text>
</g>
<!-- ast.FunctionDef object at 0x7f6569bb6200&#45;&gt;ast.arguments object at 0x7f6569bb6560 -->
<g id="edge2" class="edge">
<title>ast.FunctionDef object at 0x7f6569bb6200&#45;&gt;ast.arguments object at 0x7f6569bb6560</title>
<path fill="none" stroke="black" d="M86.87,-575.7C82.15,-567.64 76.44,-557.89 71.22,-548.98"/>
<polygon fill="black" stroke="black" points="74.09,-546.96 66.02,-540.1 68.05,-550.5 74.09,-546.96"/>
</g>
<!-- ast.Return object at 0x7f6569bb7910 -->
<g id="node5" class="node">
<title>ast.Return object at 0x7f6569bb7910</title>
<path fill="#66cdaa" stroke="black" d="M153,-540C153,-540 123,-540 123,-540 117,-540 111,-534 111,-528 111,-528 111,-516 111,-516 111,-510 117,-504 123,-504 123,-504 153,-504 153,-504 159,-504 165,-510 165,-516 165,-516 165,-528 165,-528 165,-534 159,-540 153,-540"/>
<text text-anchor="middle" x="138" y="-518.3" font-family="Times,serif" font-size="14.00">Return</text>
</g>
<!-- ast.FunctionDef object at 0x7f6569bb6200&#45;&gt;ast.Return object at 0x7f6569bb7910 -->
<g id="edge4" class="edge">
<title>ast.FunctionDef object at 0x7f6569bb6200&#45;&gt;ast.Return object at 0x7f6569bb7910</title>
<path fill="none" stroke="black" d="M107.13,-575.7C111.85,-567.64 117.56,-557.89 122.78,-548.98"/>
<polygon fill="black" stroke="black" points="125.95,-550.5 127.98,-540.1 119.91,-546.96 125.95,-550.5"/>
</g>
<!-- ast.arg object at 0x7f6569bb6260 -->
<g id="node4" class="node">
<title>ast.arg object at 0x7f6569bb6260</title>
<path fill="#66cdaa" stroke="black" d="M71,-468C71,-468 41,-468 41,-468 35,-468 29,-462 29,-456 29,-456 29,-444 29,-444 29,-438 35,-432 41,-432 41,-432 71,-432 71,-432 77,-432 83,-438 83,-444 83,-444 83,-456 83,-456 83,-462 77,-468 71,-468"/>
<text text-anchor="middle" x="56" y="-446.3" font-family="Times,serif" font-size="14.00">arg</text>
</g>
<!-- ast.arguments object at 0x7f6569bb6560&#45;&gt;ast.arg object at 0x7f6569bb6260 -->
<g id="edge3" class="edge">
<title>ast.arguments object at 0x7f6569bb6560&#45;&gt;ast.arg object at 0x7f6569bb6260</title>
<path fill="none" stroke="black" d="M56,-503.7C56,-495.98 56,-486.71 56,-478.11"/>
<polygon fill="black" stroke="black" points="59.5,-478.1 56,-468.1 52.5,-478.1 59.5,-478.1"/>
</g>
<!-- ast.BoolOp object at 0x7f6569bb7b50 -->
<g id="node6" class="node">
<title>ast.BoolOp object at 0x7f6569bb7b50</title>
<path fill="#66cdaa" stroke="black" d="M155.5,-468C155.5,-468 120.5,-468 120.5,-468 114.5,-468 108.5,-462 108.5,-456 108.5,-456 108.5,-444 108.5,-444 108.5,-438 114.5,-432 120.5,-432 120.5,-432 155.5,-432 155.5,-432 161.5,-432 167.5,-438 167.5,-444 167.5,-444 167.5,-456 167.5,-456 167.5,-462 161.5,-468 155.5,-468"/>
<text text-anchor="middle" x="138" y="-446.3" font-family="Times,serif" font-size="14.00">BoolOp</text>
</g>
<!-- ast.Return object at 0x7f6569bb7910&#45;&gt;ast.BoolOp object at 0x7f6569bb7b50 -->
<g id="edge5" class="edge">
<title>ast.Return object at 0x7f6569bb7910&#45;&gt;ast.BoolOp object at 0x7f6569bb7b50</title>
<path fill="none" stroke="black" d="M138,-503.7C138,-495.98 138,-486.71 138,-478.11"/>
<polygon fill="black" stroke="black" points="141.5,-478.1 138,-468.1 134.5,-478.1 141.5,-478.1"/>
</g>
<!-- ast.Or object at 0x7f65909ee140 -->
<g id="node7" class="node">
<title>ast.Or object at 0x7f65909ee140</title>
<path fill="#66cdaa" stroke="black" d="M72,-396C72,-396 42,-396 42,-396 36,-396 30,-390 30,-384 30,-384 30,-372 30,-372 30,-366 36,-360 42,-360 42,-360 72,-360 72,-360 78,-360 84,-366 84,-372 84,-372 84,-384 84,-384 84,-390 78,-396 72,-396"/>
<text text-anchor="middle" x="57" y="-374.3" font-family="Times,serif" font-size="14.00">Or</text>
</g>
<!-- ast.BoolOp object at 0x7f6569bb7b50&#45;&gt;ast.Or object at 0x7f65909ee140 -->
<g id="edge6" class="edge">
<title>ast.BoolOp object at 0x7f6569bb7b50&#45;&gt;ast.Or object at 0x7f65909ee140</title>
<path fill="none" stroke="black" d="M117.98,-431.7C107.87,-422.97 95.46,-412.24 84.48,-402.75"/>
<polygon fill="black" stroke="black" points="86.65,-399.99 76.79,-396.1 82.07,-405.29 86.65,-399.99"/>
</g>
<!-- ast.ListComp object at 0x7f6569bb6530 -->
<g id="node8" class="node">
<title>ast.ListComp object at 0x7f6569bb6530</title>
<path fill="#66cdaa" stroke="black" d="M161.5,-396C161.5,-396 114.5,-396 114.5,-396 108.5,-396 102.5,-390 102.5,-384 102.5,-384 102.5,-372 102.5,-372 102.5,-366 108.5,-360 114.5,-360 114.5,-360 161.5,-360 161.5,-360 167.5,-360 173.5,-366 173.5,-372 173.5,-372 173.5,-384 173.5,-384 173.5,-390 167.5,-396 161.5,-396"/>
<text text-anchor="middle" x="138" y="-374.3" font-family="Times,serif" font-size="14.00">ListComp</text>
</g>
<!-- ast.BoolOp object at 0x7f6569bb7b50&#45;&gt;ast.ListComp object at 0x7f6569bb6530 -->
<g id="edge7" class="edge">
<title>ast.BoolOp object at 0x7f6569bb7b50&#45;&gt;ast.ListComp object at 0x7f6569bb6530</title>
<path fill="none" stroke="black" d="M138,-431.7C138,-423.98 138,-414.71 138,-406.11"/>
<polygon fill="black" stroke="black" points="141.5,-406.1 138,-396.1 134.5,-406.1 141.5,-406.1"/>
</g>
<!-- ast.List object at 0x7f6569bb5c90 -->
<g id="node26" class="node">
<title>ast.List object at 0x7f6569bb5c90</title>
<path fill="#66cdaa" stroke="black" d="M481,-324C481,-324 451,-324 451,-324 445,-324 439,-318 439,-312 439,-312 439,-300 439,-300 439,-294 445,-288 451,-288 451,-288 481,-288 481,-288 487,-288 493,-294 493,-300 493,-300 493,-312 493,-312 493,-318 487,-324 481,-324"/>
<text text-anchor="middle" x="466" y="-302.3" font-family="Times,serif" font-size="14.00">List</text>
</g>
<!-- ast.BoolOp object at 0x7f6569bb7b50&#45;&gt;ast.List object at 0x7f6569bb5c90 -->
<g id="edge29" class="edge">
<title>ast.BoolOp object at 0x7f6569bb7b50&#45;&gt;ast.List object at 0x7f6569bb5c90</title>
<path fill="none" stroke="black" d="M167.69,-436.15C227.83,-410.11 363.92,-351.19 429.42,-322.84"/>
<polygon fill="black" stroke="black" points="431.15,-325.9 438.93,-318.72 428.37,-319.48 431.15,-325.9"/>
</g>
<!-- ast.Name object at 0x7f6569bb46a0 -->
<g id="node9" class="node">
<title>ast.Name object at 0x7f6569bb46a0</title>
<path fill="#66cdaa" stroke="black" d="M42,-324C42,-324 12,-324 12,-324 6,-324 0,-318 0,-312 0,-312 0,-300 0,-300 0,-294 6,-288 12,-288 12,-288 42,-288 42,-288 48,-288 54,-294 54,-300 54,-300 54,-312 54,-312 54,-318 48,-324 42,-324"/>
<text text-anchor="middle" x="27" y="-302.3" font-family="Times,serif" font-size="14.00">Name</text>
</g>
<!-- ast.ListComp object at 0x7f6569bb6530&#45;&gt;ast.Name object at 0x7f6569bb46a0 -->
<g id="edge8" class="edge">
<title>ast.ListComp object at 0x7f6569bb6530&#45;&gt;ast.Name object at 0x7f6569bb46a0</title>
<path fill="none" stroke="black" d="M110.85,-359.88C96.47,-350.81 78.62,-339.55 63.09,-329.76"/>
<polygon fill="black" stroke="black" points="64.58,-326.56 54.26,-324.19 60.85,-332.48 64.58,-326.56"/>
</g>
<!-- ast.comprehension object at 0x7f6569bb4070 -->
<g id="node11" class="node">
<title>ast.comprehension object at 0x7f6569bb4070</title>
<path fill="#66cdaa" stroke="black" d="M176,-324C176,-324 100,-324 100,-324 94,-324 88,-318 88,-312 88,-312 88,-300 88,-300 88,-294 94,-288 100,-288 100,-288 176,-288 176,-288 182,-288 188,-294 188,-300 188,-300 188,-312 188,-312 188,-318 182,-324 176,-324"/>
<text text-anchor="middle" x="138" y="-302.3" font-family="Times,serif" font-size="14.00">comprehension</text>
</g>
<!-- ast.ListComp object at 0x7f6569bb6530&#45;&gt;ast.comprehension object at 0x7f6569bb4070 -->
<g id="edge10" class="edge">
<title>ast.ListComp object at 0x7f6569bb6530&#45;&gt;ast.comprehension object at 0x7f6569bb4070</title>
<path fill="none" stroke="black" d="M138,-359.7C138,-351.98 138,-342.71 138,-334.11"/>
<polygon fill="black" stroke="black" points="141.5,-334.1 138,-324.1 134.5,-334.1 141.5,-334.1"/>
</g>
<!-- ast.Load object at 0x7f65909edf90 -->
<g id="node10" class="node">
<title>ast.Load object at 0x7f65909edf90</title>
<path fill="#66cdaa" stroke="black" d="M347,-36C347,-36 317,-36 317,-36 311,-36 305,-30 305,-24 305,-24 305,-12 305,-12 305,-6 311,0 317,0 317,0 347,0 347,0 353,0 359,-6 359,-12 359,-12 359,-24 359,-24 359,-30 353,-36 347,-36"/>
<text text-anchor="middle" x="332" y="-14.3" font-family="Times,serif" font-size="14.00">Load</text>
</g>
<!-- ast.Name object at 0x7f6569bb46a0&#45;&gt;ast.Load object at 0x7f65909edf90 -->
<g id="edge9" class="edge">
<title>ast.Name object at 0x7f6569bb46a0&#45;&gt;ast.Load object at 0x7f65909edf90</title>
<path fill="none" stroke="black" d="M22.82,-287.92C16.25,-257.26 6.55,-191.66 30,-144 78.26,-45.94 224.86,-24.68 294.5,-20.16"/>
<polygon fill="black" stroke="black" points="294.81,-23.65 304.59,-19.59 294.41,-16.66 294.81,-23.65"/>
</g>
<!-- ast.Name object at 0x7f6569bb66b0 -->
<g id="node12" class="node">
<title>ast.Name object at 0x7f6569bb66b0</title>
<path fill="#66cdaa" stroke="black" d="M81,-252C81,-252 51,-252 51,-252 45,-252 39,-246 39,-240 39,-240 39,-228 39,-228 39,-222 45,-216 51,-216 51,-216 81,-216 81,-216 87,-216 93,-222 93,-228 93,-228 93,-240 93,-240 93,-246 87,-252 81,-252"/>
<text text-anchor="middle" x="66" y="-230.3" font-family="Times,serif" font-size="14.00">Name</text>
</g>
<!-- ast.comprehension object at 0x7f6569bb4070&#45;&gt;ast.Name object at 0x7f6569bb66b0 -->
<g id="edge11" class="edge">
<title>ast.comprehension object at 0x7f6569bb4070&#45;&gt;ast.Name object at 0x7f6569bb66b0</title>
<path fill="none" stroke="black" d="M120.2,-287.7C111.4,-279.14 100.62,-268.66 91,-259.3"/>
<polygon fill="black" stroke="black" points="93.2,-256.57 83.59,-252.1 88.32,-261.58 93.2,-256.57"/>
</g>
<!-- ast.Name object at 0x7f6569bb5930 -->
<g id="node14" class="node">
<title>ast.Name object at 0x7f6569bb5930</title>
<path fill="#66cdaa" stroke="black" d="M153,-252C153,-252 123,-252 123,-252 117,-252 111,-246 111,-240 111,-240 111,-228 111,-228 111,-222 117,-216 123,-216 123,-216 153,-216 153,-216 159,-216 165,-222 165,-228 165,-228 165,-240 165,-240 165,-246 159,-252 153,-252"/>
<text text-anchor="middle" x="138" y="-230.3" font-family="Times,serif" font-size="14.00">Name</text>
</g>
<!-- ast.comprehension object at 0x7f6569bb4070&#45;&gt;ast.Name object at 0x7f6569bb5930 -->
<g id="edge13" class="edge">
<title>ast.comprehension object at 0x7f6569bb4070&#45;&gt;ast.Name object at 0x7f6569bb5930</title>
<path fill="none" stroke="black" d="M138,-287.7C138,-279.98 138,-270.71 138,-262.11"/>
<polygon fill="black" stroke="black" points="141.5,-262.1 138,-252.1 134.5,-262.1 141.5,-262.1"/>
</g>
<!-- ast.BoolOp object at 0x7f6569bb54e0 -->
<g id="node15" class="node">
<title>ast.BoolOp object at 0x7f6569bb54e0</title>
<path fill="#66cdaa" stroke="black" d="M254.5,-252C254.5,-252 219.5,-252 219.5,-252 213.5,-252 207.5,-246 207.5,-240 207.5,-240 207.5,-228 207.5,-228 207.5,-222 213.5,-216 219.5,-216 219.5,-216 254.5,-216 254.5,-216 260.5,-216 266.5,-222 266.5,-228 266.5,-228 266.5,-240 266.5,-240 266.5,-246 260.5,-252 254.5,-252"/>
<text text-anchor="middle" x="237" y="-230.3" font-family="Times,serif" font-size="14.00">BoolOp</text>
</g>
<!-- ast.comprehension object at 0x7f6569bb4070&#45;&gt;ast.BoolOp object at 0x7f6569bb54e0 -->
<g id="edge15" class="edge">
<title>ast.comprehension object at 0x7f6569bb4070&#45;&gt;ast.BoolOp object at 0x7f6569bb54e0</title>
<path fill="none" stroke="black" d="M162.22,-287.88C174.92,-278.89 190.66,-267.76 204.42,-258.03"/>
<polygon fill="black" stroke="black" points="206.54,-260.82 212.69,-252.19 202.5,-255.11 206.54,-260.82"/>
</g>
<!-- ast.Store object at 0x7f65909edff0 -->
<g id="node13" class="node">
<title>ast.Store object at 0x7f65909edff0</title>
<path fill="#66cdaa" stroke="black" d="M81,-180C81,-180 51,-180 51,-180 45,-180 39,-174 39,-168 39,-168 39,-156 39,-156 39,-150 45,-144 51,-144 51,-144 81,-144 81,-144 87,-144 93,-150 93,-156 93,-156 93,-168 93,-168 93,-174 87,-180 81,-180"/>
<text text-anchor="middle" x="66" y="-158.3" font-family="Times,serif" font-size="14.00">Store</text>
</g>
<!-- ast.Name object at 0x7f6569bb66b0&#45;&gt;ast.Store object at 0x7f65909edff0 -->
<g id="edge12" class="edge">
<title>ast.Name object at 0x7f6569bb66b0&#45;&gt;ast.Store object at 0x7f65909edff0</title>
<path fill="none" stroke="black" d="M66,-215.7C66,-207.98 66,-198.71 66,-190.11"/>
<polygon fill="black" stroke="black" points="69.5,-190.1 66,-180.1 62.5,-190.1 69.5,-190.1"/>
</g>
<!-- ast.Name object at 0x7f6569bb5930&#45;&gt;ast.Load object at 0x7f65909edf90 -->
<g id="edge14" class="edge">
<title>ast.Name object at 0x7f6569bb5930&#45;&gt;ast.Load object at 0x7f65909edf90</title>
<path fill="none" stroke="black" d="M132.17,-215.81C122.49,-183.81 107.22,-114.5 140,-72 158.78,-47.65 244.13,-31.55 294.5,-23.99"/>
<polygon fill="black" stroke="black" points="295.28,-27.42 304.67,-22.51 294.27,-20.49 295.28,-27.42"/>
</g>
<!-- ast.And object at 0x7f65909ee0e0 -->
<g id="node16" class="node">
<title>ast.And object at 0x7f65909ee0e0</title>
<path fill="#66cdaa" stroke="black" d="M196,-180C196,-180 166,-180 166,-180 160,-180 154,-174 154,-168 154,-168 154,-156 154,-156 154,-150 160,-144 166,-144 166,-144 196,-144 196,-144 202,-144 208,-150 208,-156 208,-156 208,-168 208,-168 208,-174 202,-180 196,-180"/>
<text text-anchor="middle" x="181" y="-158.3" font-family="Times,serif" font-size="14.00">And</text>
</g>
<!-- ast.BoolOp object at 0x7f6569bb54e0&#45;&gt;ast.And object at 0x7f65909ee0e0 -->
<g id="edge16" class="edge">
<title>ast.BoolOp object at 0x7f6569bb54e0&#45;&gt;ast.And object at 0x7f65909ee0e0</title>
<path fill="none" stroke="black" d="M223.16,-215.7C216.51,-207.39 208.42,-197.28 201.11,-188.14"/>
<polygon fill="black" stroke="black" points="203.66,-185.73 194.68,-180.1 198.2,-190.1 203.66,-185.73"/>
</g>
<!-- ast.Compare object at 0x7f6569bb7340 -->
<g id="node17" class="node">
<title>ast.Compare object at 0x7f6569bb7340</title>
<path fill="#66cdaa" stroke="black" d="M281.5,-180C281.5,-180 238.5,-180 238.5,-180 232.5,-180 226.5,-174 226.5,-168 226.5,-168 226.5,-156 226.5,-156 226.5,-150 232.5,-144 238.5,-144 238.5,-144 281.5,-144 281.5,-144 287.5,-144 293.5,-150 293.5,-156 293.5,-156 293.5,-168 293.5,-168 293.5,-174 287.5,-180 281.5,-180"/>
<text text-anchor="middle" x="260" y="-158.3" font-family="Times,serif" font-size="14.00">Compare</text>
</g>
<!-- ast.BoolOp object at 0x7f6569bb54e0&#45;&gt;ast.Compare object at 0x7f6569bb7340 -->
<g id="edge17" class="edge">
<title>ast.BoolOp object at 0x7f6569bb54e0&#45;&gt;ast.Compare object at 0x7f6569bb7340</title>
<path fill="none" stroke="black" d="M242.69,-215.7C245.25,-207.9 248.33,-198.51 251.18,-189.83"/>
<polygon fill="black" stroke="black" points="254.58,-190.7 254.38,-180.1 247.93,-188.51 254.58,-190.7"/>
</g>
<!-- ast.Compare object at 0x7f6569bb5e10 -->
<g id="node22" class="node">
<title>ast.Compare object at 0x7f6569bb5e10</title>
<path fill="#66cdaa" stroke="black" d="M545.5,-180C545.5,-180 502.5,-180 502.5,-180 496.5,-180 490.5,-174 490.5,-168 490.5,-168 490.5,-156 490.5,-156 490.5,-150 496.5,-144 502.5,-144 502.5,-144 545.5,-144 545.5,-144 551.5,-144 557.5,-150 557.5,-156 557.5,-156 557.5,-168 557.5,-168 557.5,-174 551.5,-180 545.5,-180"/>
<text text-anchor="middle" x="524" y="-158.3" font-family="Times,serif" font-size="14.00">Compare</text>
</g>
<!-- ast.BoolOp object at 0x7f6569bb54e0&#45;&gt;ast.Compare object at 0x7f6569bb5e10 -->
<g id="edge24" class="edge">
<title>ast.BoolOp object at 0x7f6569bb54e0&#45;&gt;ast.Compare object at 0x7f6569bb5e10</title>
<path fill="none" stroke="black" d="M266.63,-225.77C317.4,-213.39 421.24,-188.06 480.33,-173.65"/>
<polygon fill="black" stroke="black" points="481.23,-177.03 490.12,-171.26 479.57,-170.23 481.23,-177.03"/>
</g>
<!-- ast.Constant object at 0x7f6569bb55a0 -->
<g id="node18" class="node">
<title>ast.Constant object at 0x7f6569bb55a0</title>
<path fill="#66cdaa" stroke="black" d="M202.5,-108C202.5,-108 161.5,-108 161.5,-108 155.5,-108 149.5,-102 149.5,-96 149.5,-96 149.5,-84 149.5,-84 149.5,-78 155.5,-72 161.5,-72 161.5,-72 202.5,-72 202.5,-72 208.5,-72 214.5,-78 214.5,-84 214.5,-84 214.5,-96 214.5,-96 214.5,-102 208.5,-108 202.5,-108"/>
<text text-anchor="middle" x="182" y="-86.3" font-family="Times,serif" font-size="14.00">Constant</text>
</g>
<!-- ast.Compare object at 0x7f6569bb7340&#45;&gt;ast.Constant object at 0x7f6569bb55a0 -->
<g id="edge18" class="edge">
<title>ast.Compare object at 0x7f6569bb7340&#45;&gt;ast.Constant object at 0x7f6569bb55a0</title>
<path fill="none" stroke="black" d="M240.72,-143.7C231.08,-135.05 219.27,-124.45 208.77,-115.03"/>
<polygon fill="black" stroke="black" points="210.84,-112.18 201.06,-108.1 206.16,-117.39 210.84,-112.18"/>
</g>
<!-- ast.Lt object at 0x7f65909ee980 -->
<g id="node19" class="node">
<title>ast.Lt object at 0x7f65909ee980</title>
<path fill="#66cdaa" stroke="black" d="M275,-108C275,-108 245,-108 245,-108 239,-108 233,-102 233,-96 233,-96 233,-84 233,-84 233,-78 239,-72 245,-72 245,-72 275,-72 275,-72 281,-72 287,-78 287,-84 287,-84 287,-96 287,-96 287,-102 281,-108 275,-108"/>
<text text-anchor="middle" x="260" y="-86.3" font-family="Times,serif" font-size="14.00">Lt</text>
</g>
<!-- ast.Compare object at 0x7f6569bb7340&#45;&gt;ast.Lt object at 0x7f65909ee980 -->
<g id="edge19" class="edge">
<title>ast.Compare object at 0x7f6569bb7340&#45;&gt;ast.Lt object at 0x7f65909ee980</title>
<path fill="none" stroke="black" d="M254.08,-143.7C253.29,-135.98 253.06,-126.71 253.4,-118.11"/>
<polygon fill="black" stroke="black" points="256.9,-118.32 254.1,-108.1 249.92,-117.84 256.9,-118.32"/>
</g>
<!-- ast.Compare object at 0x7f6569bb7340&#45;&gt;ast.Lt object at 0x7f65909ee980 -->
<g id="edge20" class="edge">
<title>ast.Compare object at 0x7f6569bb7340&#45;&gt;ast.Lt object at 0x7f65909ee980</title>
<path fill="none" stroke="black" d="M265.92,-143.7C266.71,-135.98 266.94,-126.71 266.6,-118.11"/>
<polygon fill="black" stroke="black" points="270.08,-117.84 265.9,-108.1 263.1,-118.32 270.08,-117.84"/>
</g>
<!-- ast.Name object at 0x7f6569bb4f40 -->
<g id="node20" class="node">
<title>ast.Name object at 0x7f6569bb4f40</title>
<path fill="#66cdaa" stroke="black" d="M347,-108C347,-108 317,-108 317,-108 311,-108 305,-102 305,-96 305,-96 305,-84 305,-84 305,-78 311,-72 317,-72 317,-72 347,-72 347,-72 353,-72 359,-78 359,-84 359,-84 359,-96 359,-96 359,-102 353,-108 347,-108"/>
<text text-anchor="middle" x="332" y="-86.3" font-family="Times,serif" font-size="14.00">Name</text>
</g>
<!-- ast.Compare object at 0x7f6569bb7340&#45;&gt;ast.Name object at 0x7f6569bb4f40 -->
<g id="edge21" class="edge">
<title>ast.Compare object at 0x7f6569bb7340&#45;&gt;ast.Name object at 0x7f6569bb4f40</title>
<path fill="none" stroke="black" d="M277.8,-143.7C286.6,-135.14 297.38,-124.66 307,-115.3"/>
<polygon fill="black" stroke="black" points="309.68,-117.58 314.41,-108.1 304.8,-112.57 309.68,-117.58"/>
</g>
<!-- ast.Constant object at 0x7f6569bb62c0 -->
<g id="node21" class="node">
<title>ast.Constant object at 0x7f6569bb62c0</title>
<path fill="#66cdaa" stroke="black" d="M430.5,-108C430.5,-108 389.5,-108 389.5,-108 383.5,-108 377.5,-102 377.5,-96 377.5,-96 377.5,-84 377.5,-84 377.5,-78 383.5,-72 389.5,-72 389.5,-72 430.5,-72 430.5,-72 436.5,-72 442.5,-78 442.5,-84 442.5,-84 442.5,-96 442.5,-96 442.5,-102 436.5,-108 430.5,-108"/>
<text text-anchor="middle" x="410" y="-86.3" font-family="Times,serif" font-size="14.00">Constant</text>
</g>
<!-- ast.Compare object at 0x7f6569bb7340&#45;&gt;ast.Constant object at 0x7f6569bb62c0 -->
<g id="edge23" class="edge">
<title>ast.Compare object at 0x7f6569bb7340&#45;&gt;ast.Constant object at 0x7f6569bb62c0</title>
<path fill="none" stroke="black" d="M293.66,-145.29C315.68,-135.02 344.61,-121.52 368.11,-110.55"/>
<polygon fill="black" stroke="black" points="369.9,-113.58 377.48,-106.18 366.94,-107.23 369.9,-113.58"/>
</g>
<!-- ast.Name object at 0x7f6569bb4f40&#45;&gt;ast.Load object at 0x7f65909edf90 -->
<g id="edge22" class="edge">
<title>ast.Name object at 0x7f6569bb4f40&#45;&gt;ast.Load object at 0x7f65909edf90</title>
<path fill="none" stroke="black" d="M332,-71.7C332,-63.98 332,-54.71 332,-46.11"/>
<polygon fill="black" stroke="black" points="335.5,-46.1 332,-36.1 328.5,-46.1 335.5,-46.1"/>
</g>
<!-- ast.Name object at 0x7f6569bb6fe0 -->
<g id="node23" class="node">
<title>ast.Name object at 0x7f6569bb6fe0</title>
<path fill="#66cdaa" stroke="black" d="M503,-108C503,-108 473,-108 473,-108 467,-108 461,-102 461,-96 461,-96 461,-84 461,-84 461,-78 467,-72 473,-72 473,-72 503,-72 503,-72 509,-72 515,-78 515,-84 515,-84 515,-96 515,-96 515,-102 509,-108 503,-108"/>
<text text-anchor="middle" x="488" y="-86.3" font-family="Times,serif" font-size="14.00">Name</text>
</g>
<!-- ast.Compare object at 0x7f6569bb5e10&#45;&gt;ast.Name object at 0x7f6569bb6fe0 -->
<g id="edge25" class="edge">
<title>ast.Compare object at 0x7f6569bb5e10&#45;&gt;ast.Name object at 0x7f6569bb6fe0</title>
<path fill="none" stroke="black" d="M515.1,-143.7C511,-135.73 506.05,-126.1 501.51,-117.26"/>
<polygon fill="black" stroke="black" points="504.48,-115.4 496.8,-108.1 498.26,-118.6 504.48,-115.4"/>
</g>
<!-- ast.Gt object at 0x7f65909eea40 -->
<g id="node24" class="node">
<title>ast.Gt object at 0x7f65909eea40</title>
<path fill="#66cdaa" stroke="black" d="M575,-108C575,-108 545,-108 545,-108 539,-108 533,-102 533,-96 533,-96 533,-84 533,-84 533,-78 539,-72 545,-72 545,-72 575,-72 575,-72 581,-72 587,-78 587,-84 587,-84 587,-96 587,-96 587,-102 581,-108 575,-108"/>
<text text-anchor="middle" x="560" y="-86.3" font-family="Times,serif" font-size="14.00">Gt</text>
</g>
<!-- ast.Compare object at 0x7f6569bb5e10&#45;&gt;ast.Gt object at 0x7f65909eea40 -->
<g id="edge27" class="edge">
<title>ast.Compare object at 0x7f6569bb5e10&#45;&gt;ast.Gt object at 0x7f65909eea40</title>
<path fill="none" stroke="black" d="M532.9,-143.7C537,-135.73 541.95,-126.1 546.49,-117.26"/>
<polygon fill="black" stroke="black" points="549.74,-118.6 551.2,-108.1 543.52,-115.4 549.74,-118.6"/>
</g>
<!-- ast.Constant object at 0x7f6569bb7940 -->
<g id="node25" class="node">
<title>ast.Constant object at 0x7f6569bb7940</title>
<path fill="#66cdaa" stroke="black" d="M658.5,-108C658.5,-108 617.5,-108 617.5,-108 611.5,-108 605.5,-102 605.5,-96 605.5,-96 605.5,-84 605.5,-84 605.5,-78 611.5,-72 617.5,-72 617.5,-72 658.5,-72 658.5,-72 664.5,-72 670.5,-78 670.5,-84 670.5,-84 670.5,-96 670.5,-96 670.5,-102 664.5,-108 658.5,-108"/>
<text text-anchor="middle" x="638" y="-86.3" font-family="Times,serif" font-size="14.00">Constant</text>
</g>
<!-- ast.Compare object at 0x7f6569bb5e10&#45;&gt;ast.Constant object at 0x7f6569bb7940 -->
<g id="edge28" class="edge">
<title>ast.Compare object at 0x7f6569bb5e10&#45;&gt;ast.Constant object at 0x7f6569bb7940</title>
<path fill="none" stroke="black" d="M551.89,-143.88C566.79,-134.72 585.33,-123.34 601.38,-113.48"/>
<polygon fill="black" stroke="black" points="603.31,-116.41 610.01,-108.19 599.65,-110.44 603.31,-116.41"/>
</g>
<!-- ast.Name object at 0x7f6569bb6fe0&#45;&gt;ast.Load object at 0x7f65909edf90 -->
<g id="edge26" class="edge">
<title>ast.Name object at 0x7f6569bb6fe0&#45;&gt;ast.Load object at 0x7f65909edf90</title>
<path fill="none" stroke="black" d="M460.91,-76.12C457.91,-74.72 454.89,-73.32 452,-72 424.14,-59.27 392.44,-45.29 368.62,-34.89"/>
<polygon fill="black" stroke="black" points="369.82,-31.59 359.25,-30.8 367.02,-38.01 369.82,-31.59"/>
</g>
<!-- ast.List object at 0x7f6569bb5c90&#45;&gt;ast.Load object at 0x7f65909edf90 -->
<g id="edge30" class="edge">
<title>ast.List object at 0x7f6569bb5c90&#45;&gt;ast.Load object at 0x7f65909edf90</title>
<path fill="none" stroke="black" d="M493.08,-292.88C565.74,-258.79 754.63,-158.86 680,-72 640.26,-25.75 451.04,-19.4 369.52,-18.85"/>
<polygon fill="black" stroke="black" points="369.22,-15.35 359.21,-18.81 369.19,-22.35 369.22,-15.35"/>
</g>
</g>
</svg>
