<?xml version="1.0" encoding="UTF-8" standalone="no"?>
<!DOCTYPE svg PUBLIC "-//W3C//DTD SVG 1.1//EN"
 "http://www.w3.org/Graphics/SVG/1.1/DTD/svg11.dtd">
<!-- Generated by graphviz version 2.43.0 (0)
 -->
<!-- Title: %3 Pages: 1 -->
<svg width="542pt" height="620pt"
 viewBox="0.00 0.00 541.50 620.00" xmlns="http://www.w3.org/2000/svg" xmlns:xlink="http://www.w3.org/1999/xlink">
<g id="graph0" class="graph" transform="scale(1 1) rotate(0) translate(4 616)">
<title>%3</title>
<polygon fill="white" stroke="transparent" points="-4,4 -4,-616 537.5,-616 537.5,4 -4,4"/>
<!-- ast.Module object at 0x7f648a9b5750 -->
<g id="node1" class="node">
<title>ast.Module object at 0x7f648a9b5750</title>
<path fill="#66cdaa" stroke="black" d="M225.5,-612C225.5,-612 190.5,-612 190.5,-612 184.5,-612 178.5,-606 178.5,-600 178.5,-600 178.5,-588 178.5,-588 178.5,-582 184.5,-576 190.5,-576 190.5,-576 225.5,-576 225.5,-576 231.5,-576 237.5,-582 237.5,-588 237.5,-588 237.5,-600 237.5,-600 237.5,-606 231.5,-612 225.5,-612"/>
<text text-anchor="middle" x="208" y="-590.3" font-family="Times,serif" font-size="14.00">Module</text>
</g>
<!-- ast.FunctionDef object at 0x7f648a9b5b10 -->
<g id="node2" class="node">
<title>ast.FunctionDef object at 0x7f648a9b5b10</title>
<path fill="#66cdaa" stroke="black" d="M238.5,-540C238.5,-540 177.5,-540 177.5,-540 171.5,-540 165.5,-534 165.5,-528 165.5,-528 165.5,-516 165.5,-516 165.5,-510 171.5,-504 177.5,-504 177.5,-504 238.5,-504 238.5,-504 244.5,-504 250.5,-510 250.5,-516 250.5,-516 250.5,-528 250.5,-528 250.5,-534 244.5,-540 238.5,-540"/>
<text text-anchor="middle" x="208" y="-518.3" font-family="Times,serif" font-size="14.00">FunctionDef</text>
</g>
<!-- ast.Module object at 0x7f648a9b5750&#45;&gt;ast.FunctionDef object at 0x7f648a9b5b10 -->
<g id="edge1" class="edge">
<title>ast.Module object at 0x7f648a9b5750&#45;&gt;ast.FunctionDef object at 0x7f648a9b5b10</title>
<path fill="none" stroke="black" d="M208,-575.7C208,-567.98 208,-558.71 208,-550.11"/>
<polygon fill="black" stroke="black" points="211.5,-550.1 208,-540.1 204.5,-550.1 211.5,-550.1"/>
</g>
<!-- ast.arguments object at 0x7f648a9b7460 -->
<g id="node3" class="node">
<title>ast.arguments object at 0x7f648a9b7460</title>
<path fill="#66cdaa" stroke="black" d="M136,-468C136,-468 86,-468 86,-468 80,-468 74,-462 74,-456 74,-456 74,-444 74,-444 74,-438 80,-432 86,-432 86,-432 136,-432 136,-432 142,-432 148,-438 148,-444 148,-444 148,-456 148,-456 148,-462 142,-468 136,-468"/>
<text text-anchor="middle" x="111" y="-446.3" font-family="Times,serif" font-size="14.00">arguments</text>
</g>
<!-- ast.FunctionDef object at 0x7f648a9b5b10&#45;&gt;ast.arguments object at 0x7f648a9b7460 -->
<g id="edge2" class="edge">
<title>ast.FunctionDef object at 0x7f648a9b5b10&#45;&gt;ast.arguments object at 0x7f648a9b7460</title>
<path fill="none" stroke="black" d="M184.02,-503.7C171.69,-494.8 156.48,-483.82 143.15,-474.2"/>
<polygon fill="black" stroke="black" points="144.86,-471.12 134.7,-468.1 140.76,-476.79 144.86,-471.12"/>
</g>
<!-- ast.Assign object at 0x7f648a9b6620 -->
<g id="node5" class="node">
<title>ast.Assign object at 0x7f648a9b6620</title>
<path fill="#66cdaa" stroke="black" d="M223,-468C223,-468 193,-468 193,-468 187,-468 181,-462 181,-456 181,-456 181,-444 181,-444 181,-438 187,-432 193,-432 193,-432 223,-432 223,-432 229,-432 235,-438 235,-444 235,-444 235,-456 235,-456 235,-462 229,-468 223,-468"/>
<text text-anchor="middle" x="208" y="-446.3" font-family="Times,serif" font-size="14.00">Assign</text>
</g>
<!-- ast.FunctionDef object at 0x7f648a9b5b10&#45;&gt;ast.Assign object at 0x7f648a9b6620 -->
<g id="edge4" class="edge">
<title>ast.FunctionDef object at 0x7f648a9b5b10&#45;&gt;ast.Assign object at 0x7f648a9b6620</title>
<path fill="none" stroke="black" d="M208,-503.7C208,-495.98 208,-486.71 208,-478.11"/>
<polygon fill="black" stroke="black" points="211.5,-478.1 208,-468.1 204.5,-478.1 211.5,-478.1"/>
</g>
<!-- ast.Return object at 0x7f64484187c0 -->
<g id="node20" class="node">
<title>ast.Return object at 0x7f64484187c0</title>
<path fill="#66cdaa" stroke="black" d="M352,-468C352,-468 322,-468 322,-468 316,-468 310,-462 310,-456 310,-456 310,-444 310,-444 310,-438 316,-432 322,-432 322,-432 352,-432 352,-432 358,-432 364,-438 364,-444 364,-444 364,-456 364,-456 364,-462 358,-468 352,-468"/>
<text text-anchor="middle" x="337" y="-446.3" font-family="Times,serif" font-size="14.00">Return</text>
</g>
<!-- ast.FunctionDef object at 0x7f648a9b5b10&#45;&gt;ast.Return object at 0x7f64484187c0 -->
<g id="edge24" class="edge">
<title>ast.FunctionDef object at 0x7f648a9b5b10&#45;&gt;ast.Return object at 0x7f64484187c0</title>
<path fill="none" stroke="black" d="M239.56,-503.88C258.1,-493.81 281.61,-481.05 300.9,-470.59"/>
<polygon fill="black" stroke="black" points="302.58,-473.66 309.7,-465.81 299.24,-467.51 302.58,-473.66"/>
</g>
<!-- ast.arg object at 0x7f648a9b4ca0 -->
<g id="node4" class="node">
<title>ast.arg object at 0x7f648a9b4ca0</title>
<path fill="#66cdaa" stroke="black" d="M95,-396C95,-396 65,-396 65,-396 59,-396 53,-390 53,-384 53,-384 53,-372 53,-372 53,-366 59,-360 65,-360 65,-360 95,-360 95,-360 101,-360 107,-366 107,-372 107,-372 107,-384 107,-384 107,-390 101,-396 95,-396"/>
<text text-anchor="middle" x="80" y="-374.3" font-family="Times,serif" font-size="14.00">arg</text>
</g>
<!-- ast.arguments object at 0x7f648a9b7460&#45;&gt;ast.arg object at 0x7f648a9b4ca0 -->
<g id="edge3" class="edge">
<title>ast.arguments object at 0x7f648a9b7460&#45;&gt;ast.arg object at 0x7f648a9b4ca0</title>
<path fill="none" stroke="black" d="M103.34,-431.7C99.81,-423.73 95.54,-414.1 91.63,-405.26"/>
<polygon fill="black" stroke="black" points="94.82,-403.83 87.57,-396.1 88.42,-406.67 94.82,-403.83"/>
</g>
<!-- ast.Name object at 0x7f648a9b5600 -->
<g id="node6" class="node">
<title>ast.Name object at 0x7f648a9b5600</title>
<path fill="#66cdaa" stroke="black" d="M167,-396C167,-396 137,-396 137,-396 131,-396 125,-390 125,-384 125,-384 125,-372 125,-372 125,-366 131,-360 137,-360 137,-360 167,-360 167,-360 173,-360 179,-366 179,-372 179,-372 179,-384 179,-384 179,-390 173,-396 167,-396"/>
<text text-anchor="middle" x="152" y="-374.3" font-family="Times,serif" font-size="14.00">Name</text>
</g>
<!-- ast.Assign object at 0x7f648a9b6620&#45;&gt;ast.Name object at 0x7f648a9b5600 -->
<g id="edge5" class="edge">
<title>ast.Assign object at 0x7f648a9b6620&#45;&gt;ast.Name object at 0x7f648a9b5600</title>
<path fill="none" stroke="black" d="M194.16,-431.7C187.51,-423.39 179.42,-413.28 172.11,-404.14"/>
<polygon fill="black" stroke="black" points="174.66,-401.73 165.68,-396.1 169.2,-406.1 174.66,-401.73"/>
</g>
<!-- ast.Call object at 0x7f648a9b47f0 -->
<g id="node8" class="node">
<title>ast.Call object at 0x7f648a9b47f0</title>
<path fill="#66cdaa" stroke="black" d="M239,-396C239,-396 209,-396 209,-396 203,-396 197,-390 197,-384 197,-384 197,-372 197,-372 197,-366 203,-360 209,-360 209,-360 239,-360 239,-360 245,-360 251,-366 251,-372 251,-372 251,-384 251,-384 251,-390 245,-396 239,-396"/>
<text text-anchor="middle" x="224" y="-374.3" font-family="Times,serif" font-size="14.00">Call</text>
</g>
<!-- ast.Assign object at 0x7f648a9b6620&#45;&gt;ast.Call object at 0x7f648a9b47f0 -->
<g id="edge7" class="edge">
<title>ast.Assign object at 0x7f648a9b6620&#45;&gt;ast.Call object at 0x7f648a9b47f0</title>
<path fill="none" stroke="black" d="M211.96,-431.7C213.72,-423.98 215.84,-414.71 217.8,-406.11"/>
<polygon fill="black" stroke="black" points="221.27,-406.63 220.09,-396.1 214.45,-405.07 221.27,-406.63"/>
</g>
<!-- ast.Store object at 0x7f64909edfc0 -->
<g id="node7" class="node">
<title>ast.Store object at 0x7f64909edfc0</title>
<path fill="#66cdaa" stroke="black" d="M42,-108C42,-108 12,-108 12,-108 6,-108 0,-102 0,-96 0,-96 0,-84 0,-84 0,-78 6,-72 12,-72 12,-72 42,-72 42,-72 48,-72 54,-78 54,-84 54,-84 54,-96 54,-96 54,-102 48,-108 42,-108"/>
<text text-anchor="middle" x="27" y="-86.3" font-family="Times,serif" font-size="14.00">Store</text>
</g>
<!-- ast.Name object at 0x7f648a9b5600&#45;&gt;ast.Store object at 0x7f64909edfc0 -->
<g id="edge6" class="edge">
<title>ast.Name object at 0x7f648a9b5600&#45;&gt;ast.Store object at 0x7f64909edfc0</title>
<path fill="none" stroke="black" d="M124.79,-361.28C105.34,-349.51 81.5,-333.81 75,-324 32.21,-259.47 26.35,-164.5 26.28,-118.28"/>
<polygon fill="black" stroke="black" points="29.78,-118.17 26.36,-108.14 22.78,-118.12 29.78,-118.17"/>
</g>
<!-- ast.Name object at 0x7f648a9b67a0 -->
<g id="node9" class="node">
<title>ast.Name object at 0x7f648a9b67a0</title>
<path fill="#66cdaa" stroke="black" d="M126,-324C126,-324 96,-324 96,-324 90,-324 84,-318 84,-312 84,-312 84,-300 84,-300 84,-294 90,-288 96,-288 96,-288 126,-288 126,-288 132,-288 138,-294 138,-300 138,-300 138,-312 138,-312 138,-318 132,-324 126,-324"/>
<text text-anchor="middle" x="111" y="-302.3" font-family="Times,serif" font-size="14.00">Name</text>
</g>
<!-- ast.Call object at 0x7f648a9b47f0&#45;&gt;ast.Name object at 0x7f648a9b67a0 -->
<g id="edge8" class="edge">
<title>ast.Call object at 0x7f648a9b47f0&#45;&gt;ast.Name object at 0x7f648a9b67a0</title>
<path fill="none" stroke="black" d="M196.93,-360.23C181.95,-350.95 163.13,-339.29 146.93,-329.26"/>
<polygon fill="black" stroke="black" points="148.58,-326.16 138.24,-323.87 144.9,-332.11 148.58,-326.16"/>
</g>
<!-- ast.ListComp object at 0x7f648a9b6140 -->
<g id="node11" class="node">
<title>ast.ListComp object at 0x7f648a9b6140</title>
<path fill="#66cdaa" stroke="black" d="M247.5,-324C247.5,-324 200.5,-324 200.5,-324 194.5,-324 188.5,-318 188.5,-312 188.5,-312 188.5,-300 188.5,-300 188.5,-294 194.5,-288 200.5,-288 200.5,-288 247.5,-288 247.5,-288 253.5,-288 259.5,-294 259.5,-300 259.5,-300 259.5,-312 259.5,-312 259.5,-318 253.5,-324 247.5,-324"/>
<text text-anchor="middle" x="224" y="-302.3" font-family="Times,serif" font-size="14.00">ListComp</text>
</g>
<!-- ast.Call object at 0x7f648a9b47f0&#45;&gt;ast.ListComp object at 0x7f648a9b6140 -->
<g id="edge10" class="edge">
<title>ast.Call object at 0x7f648a9b47f0&#45;&gt;ast.ListComp object at 0x7f648a9b6140</title>
<path fill="none" stroke="black" d="M224,-359.7C224,-351.98 224,-342.71 224,-334.11"/>
<polygon fill="black" stroke="black" points="227.5,-334.1 224,-324.1 220.5,-334.1 227.5,-334.1"/>
</g>
<!-- ast.keyword object at 0x7f64484190c0 -->
<g id="node18" class="node">
<title>ast.keyword object at 0x7f64484190c0</title>
<path fill="#66cdaa" stroke="black" d="M346,-324C346,-324 306,-324 306,-324 300,-324 294,-318 294,-312 294,-312 294,-300 294,-300 294,-294 300,-288 306,-288 306,-288 346,-288 346,-288 352,-288 358,-294 358,-300 358,-300 358,-312 358,-312 358,-318 352,-324 346,-324"/>
<text text-anchor="middle" x="326" y="-302.3" font-family="Times,serif" font-size="14.00">keyword</text>
</g>
<!-- ast.Call object at 0x7f648a9b47f0&#45;&gt;ast.keyword object at 0x7f64484190c0 -->
<g id="edge21" class="edge">
<title>ast.Call object at 0x7f648a9b47f0&#45;&gt;ast.keyword object at 0x7f64484190c0</title>
<path fill="none" stroke="black" d="M248.95,-359.88C262.04,-350.89 278.26,-339.76 292.44,-330.03"/>
<polygon fill="black" stroke="black" points="294.69,-332.73 300.95,-324.19 290.73,-326.96 294.69,-332.73"/>
</g>
<!-- ast.Load object at 0x7f64909edf60 -->
<g id="node10" class="node">
<title>ast.Load object at 0x7f64909edf60</title>
<path fill="#66cdaa" stroke="black" d="M313,-36C313,-36 283,-36 283,-36 277,-36 271,-30 271,-24 271,-24 271,-12 271,-12 271,-6 277,0 283,0 283,0 313,0 313,0 319,0 325,-6 325,-12 325,-12 325,-24 325,-24 325,-30 319,-36 313,-36"/>
<text text-anchor="middle" x="298" y="-14.3" font-family="Times,serif" font-size="14.00">Load</text>
</g>
<!-- ast.Name object at 0x7f648a9b67a0&#45;&gt;ast.Load object at 0x7f64909edf60 -->
<g id="edge9" class="edge">
<title>ast.Name object at 0x7f648a9b67a0&#45;&gt;ast.Load object at 0x7f64909edf60</title>
<path fill="none" stroke="black" d="M106.11,-287.82C94.79,-243.93 72.28,-127.23 135,-72 170.47,-40.77 224.67,-27.89 260.7,-22.61"/>
<polygon fill="black" stroke="black" points="261.36,-26.05 270.81,-21.26 260.43,-19.12 261.36,-26.05"/>
</g>
<!-- ast.Name object at 0x7f648a85cb80 -->
<g id="node12" class="node">
<title>ast.Name object at 0x7f648a85cb80</title>
<path fill="#66cdaa" stroke="black" d="M296,-180C296,-180 266,-180 266,-180 260,-180 254,-174 254,-168 254,-168 254,-156 254,-156 254,-150 260,-144 266,-144 266,-144 296,-144 296,-144 302,-144 308,-150 308,-156 308,-156 308,-168 308,-168 308,-174 302,-180 296,-180"/>
<text text-anchor="middle" x="281" y="-158.3" font-family="Times,serif" font-size="14.00">Name</text>
</g>
<!-- ast.ListComp object at 0x7f648a9b6140&#45;&gt;ast.Name object at 0x7f648a85cb80 -->
<g id="edge11" class="edge">
<title>ast.ListComp object at 0x7f648a9b6140&#45;&gt;ast.Name object at 0x7f648a85cb80</title>
<path fill="none" stroke="black" d="M238.98,-287.97C246.94,-278.09 256.23,-265.05 262,-252 270.72,-232.28 275.54,-208.3 278.14,-190.2"/>
<polygon fill="black" stroke="black" points="281.64,-190.41 279.46,-180.04 274.7,-189.51 281.64,-190.41"/>
</g>
<!-- ast.comprehension object at 0x7f648a85c9d0 -->
<g id="node13" class="node">
<title>ast.comprehension object at 0x7f648a85c9d0</title>
<path fill="#66cdaa" stroke="black" d="M241,-252C241,-252 165,-252 165,-252 159,-252 153,-246 153,-240 153,-240 153,-228 153,-228 153,-222 159,-216 165,-216 165,-216 241,-216 241,-216 247,-216 253,-222 253,-228 253,-228 253,-240 253,-240 253,-246 247,-252 241,-252"/>
<text text-anchor="middle" x="203" y="-230.3" font-family="Times,serif" font-size="14.00">comprehension</text>
</g>
<!-- ast.ListComp object at 0x7f648a9b6140&#45;&gt;ast.comprehension object at 0x7f648a85c9d0 -->
<g id="edge13" class="edge">
<title>ast.ListComp object at 0x7f648a9b6140&#45;&gt;ast.comprehension object at 0x7f648a85c9d0</title>
<path fill="none" stroke="black" d="M218.81,-287.7C216.47,-279.9 213.65,-270.51 211.05,-261.83"/>
<polygon fill="black" stroke="black" points="214.36,-260.68 208.13,-252.1 207.65,-262.69 214.36,-260.68"/>
</g>
<!-- ast.Name object at 0x7f648a85cb80&#45;&gt;ast.Load object at 0x7f64909edf60 -->
<g id="edge12" class="edge">
<title>ast.Name object at 0x7f648a85cb80&#45;&gt;ast.Load object at 0x7f64909edf60</title>
<path fill="none" stroke="black" d="M283.05,-143.87C285.95,-119.67 291.27,-75.21 294.72,-46.39"/>
<polygon fill="black" stroke="black" points="298.23,-46.53 295.94,-36.19 291.28,-45.7 298.23,-46.53"/>
</g>
<!-- ast.Name object at 0x7f644841a9e0 -->
<g id="node14" class="node">
<title>ast.Name object at 0x7f644841a9e0</title>
<path fill="#66cdaa" stroke="black" d="M152,-180C152,-180 122,-180 122,-180 116,-180 110,-174 110,-168 110,-168 110,-156 110,-156 110,-150 116,-144 122,-144 122,-144 152,-144 152,-144 158,-144 164,-150 164,-156 164,-156 164,-168 164,-168 164,-174 158,-180 152,-180"/>
<text text-anchor="middle" x="137" y="-158.3" font-family="Times,serif" font-size="14.00">Name</text>
</g>
<!-- ast.comprehension object at 0x7f648a85c9d0&#45;&gt;ast.Name object at 0x7f644841a9e0 -->
<g id="edge14" class="edge">
<title>ast.comprehension object at 0x7f648a85c9d0&#45;&gt;ast.Name object at 0x7f644841a9e0</title>
<path fill="none" stroke="black" d="M186.69,-215.7C178.69,-207.22 168.93,-196.86 160.18,-187.58"/>
<polygon fill="black" stroke="black" points="162.53,-184.98 153.13,-180.1 157.44,-189.78 162.53,-184.98"/>
</g>
<!-- ast.Call object at 0x7f644841ac80 -->
<g id="node15" class="node">
<title>ast.Call object at 0x7f644841ac80</title>
<path fill="#66cdaa" stroke="black" d="M224,-180C224,-180 194,-180 194,-180 188,-180 182,-174 182,-168 182,-168 182,-156 182,-156 182,-150 188,-144 194,-144 194,-144 224,-144 224,-144 230,-144 236,-150 236,-156 236,-156 236,-168 236,-168 236,-174 230,-180 224,-180"/>
<text text-anchor="middle" x="209" y="-158.3" font-family="Times,serif" font-size="14.00">Call</text>
</g>
<!-- ast.comprehension object at 0x7f648a85c9d0&#45;&gt;ast.Call object at 0x7f644841ac80 -->
<g id="edge16" class="edge">
<title>ast.comprehension object at 0x7f648a85c9d0&#45;&gt;ast.Call object at 0x7f644841ac80</title>
<path fill="none" stroke="black" d="M204.48,-215.7C205.14,-207.98 205.94,-198.71 206.68,-190.11"/>
<polygon fill="black" stroke="black" points="210.17,-190.37 207.53,-180.1 203.19,-189.77 210.17,-190.37"/>
</g>
<!-- ast.Name object at 0x7f644841a9e0&#45;&gt;ast.Store object at 0x7f64909edfc0 -->
<g id="edge15" class="edge">
<title>ast.Name object at 0x7f644841a9e0&#45;&gt;ast.Store object at 0x7f64909edfc0</title>
<path fill="none" stroke="black" d="M110.09,-143.88C95.84,-134.81 78.15,-123.55 62.76,-113.76"/>
<polygon fill="black" stroke="black" points="64.33,-110.61 54.01,-108.19 60.57,-116.51 64.33,-110.61"/>
</g>
<!-- ast.Name object at 0x7f644841b190 -->
<g id="node16" class="node">
<title>ast.Name object at 0x7f644841b190</title>
<path fill="#66cdaa" stroke="black" d="M186,-108C186,-108 156,-108 156,-108 150,-108 144,-102 144,-96 144,-96 144,-84 144,-84 144,-78 150,-72 156,-72 156,-72 186,-72 186,-72 192,-72 198,-78 198,-84 198,-84 198,-96 198,-96 198,-102 192,-108 186,-108"/>
<text text-anchor="middle" x="171" y="-86.3" font-family="Times,serif" font-size="14.00">Name</text>
</g>
<!-- ast.Call object at 0x7f644841ac80&#45;&gt;ast.Name object at 0x7f644841b190 -->
<g id="edge17" class="edge">
<title>ast.Call object at 0x7f644841ac80&#45;&gt;ast.Name object at 0x7f644841b190</title>
<path fill="none" stroke="black" d="M199.61,-143.7C195.24,-135.64 189.94,-125.89 185.1,-116.98"/>
<polygon fill="black" stroke="black" points="188.13,-115.22 180.29,-108.1 181.98,-118.56 188.13,-115.22"/>
</g>
<!-- ast.Name object at 0x7f64484199c0 -->
<g id="node17" class="node">
<title>ast.Name object at 0x7f64484199c0</title>
<path fill="#66cdaa" stroke="black" d="M258,-108C258,-108 228,-108 228,-108 222,-108 216,-102 216,-96 216,-96 216,-84 216,-84 216,-78 222,-72 228,-72 228,-72 258,-72 258,-72 264,-72 270,-78 270,-84 270,-84 270,-96 270,-96 270,-102 264,-108 258,-108"/>
<text text-anchor="middle" x="243" y="-86.3" font-family="Times,serif" font-size="14.00">Name</text>
</g>
<!-- ast.Call object at 0x7f644841ac80&#45;&gt;ast.Name object at 0x7f64484199c0 -->
<g id="edge19" class="edge">
<title>ast.Call object at 0x7f644841ac80&#45;&gt;ast.Name object at 0x7f64484199c0</title>
<path fill="none" stroke="black" d="M217.4,-143.7C221.27,-135.73 225.95,-126.1 230.24,-117.26"/>
<polygon fill="black" stroke="black" points="233.47,-118.63 234.69,-108.1 227.17,-115.57 233.47,-118.63"/>
</g>
<!-- ast.Name object at 0x7f644841b190&#45;&gt;ast.Load object at 0x7f64909edf60 -->
<g id="edge18" class="edge">
<title>ast.Name object at 0x7f644841b190&#45;&gt;ast.Load object at 0x7f64909edf60</title>
<path fill="none" stroke="black" d="M198.24,-73.98C216.83,-63.74 241.64,-50.07 261.87,-38.92"/>
<polygon fill="black" stroke="black" points="263.73,-41.88 270.8,-33.99 260.35,-35.75 263.73,-41.88"/>
</g>
<!-- ast.Name object at 0x7f64484199c0&#45;&gt;ast.Load object at 0x7f64909edf60 -->
<g id="edge20" class="edge">
<title>ast.Name object at 0x7f64484199c0&#45;&gt;ast.Load object at 0x7f64909edf60</title>
<path fill="none" stroke="black" d="M256.6,-71.7C263.12,-63.39 271.07,-53.28 278.25,-44.14"/>
<polygon fill="black" stroke="black" points="281.13,-46.13 284.56,-36.1 275.63,-41.81 281.13,-46.13"/>
</g>
<!-- ast.Name object at 0x7f6448419630 -->
<g id="node19" class="node">
<title>ast.Name object at 0x7f6448419630</title>
<path fill="#66cdaa" stroke="black" d="M351,-252C351,-252 321,-252 321,-252 315,-252 309,-246 309,-240 309,-240 309,-228 309,-228 309,-222 315,-216 321,-216 321,-216 351,-216 351,-216 357,-216 363,-222 363,-228 363,-228 363,-240 363,-240 363,-246 357,-252 351,-252"/>
<text text-anchor="middle" x="336" y="-230.3" font-family="Times,serif" font-size="14.00">Name</text>
</g>
<!-- ast.keyword object at 0x7f64484190c0&#45;&gt;ast.Name object at 0x7f6448419630 -->
<g id="edge22" class="edge">
<title>ast.keyword object at 0x7f64484190c0&#45;&gt;ast.Name object at 0x7f6448419630</title>
<path fill="none" stroke="black" d="M328.47,-287.7C329.57,-279.98 330.9,-270.71 332.13,-262.11"/>
<polygon fill="black" stroke="black" points="335.61,-262.5 333.56,-252.1 328.68,-261.51 335.61,-262.5"/>
</g>
<!-- ast.Name object at 0x7f6448419630&#45;&gt;ast.Load object at 0x7f64909edf60 -->
<g id="edge23" class="edge">
<title>ast.Name object at 0x7f6448419630&#45;&gt;ast.Load object at 0x7f64909edf60</title>
<path fill="none" stroke="black" d="M332.95,-215.85C326.37,-178.75 310.75,-90.81 302.81,-46.1"/>
<polygon fill="black" stroke="black" points="306.25,-45.47 301.06,-36.23 299.36,-46.69 306.25,-45.47"/>
</g>
<!-- ast.Subscript object at 0x7f6448418a90 -->
<g id="node21" class="node">
<title>ast.Subscript object at 0x7f6448418a90</title>
<path fill="#66cdaa" stroke="black" d="M435,-180C435,-180 391,-180 391,-180 385,-180 379,-174 379,-168 379,-168 379,-156 379,-156 379,-150 385,-144 391,-144 391,-144 435,-144 435,-144 441,-144 447,-150 447,-156 447,-156 447,-168 447,-168 447,-174 441,-180 435,-180"/>
<text text-anchor="middle" x="413" y="-158.3" font-family="Times,serif" font-size="14.00">Subscript</text>
</g>
<!-- ast.Return object at 0x7f64484187c0&#45;&gt;ast.Subscript object at 0x7f6448418a90 -->
<g id="edge25" class="edge">
<title>ast.Return object at 0x7f64484187c0&#45;&gt;ast.Subscript object at 0x7f6448418a90</title>
<path fill="none" stroke="black" d="M341.53,-431.97C354.22,-384.19 390.25,-248.62 405.75,-190.27"/>
<polygon fill="black" stroke="black" points="409.22,-190.87 408.4,-180.31 402.45,-189.07 409.22,-190.87"/>
</g>
<!-- ast.Subscript object at 0x7f6448418a90&#45;&gt;ast.Load object at 0x7f64909edf60 -->
<g id="edge30" class="edge">
<title>ast.Subscript object at 0x7f6448418a90&#45;&gt;ast.Load object at 0x7f64909edf60</title>
<path fill="none" stroke="black" d="M401.93,-143.67C389.91,-125.29 369.78,-95.68 350,-72 341.74,-62.11 331.99,-51.86 323.19,-43.04"/>
<polygon fill="black" stroke="black" points="325.64,-40.54 316.07,-36 320.72,-45.52 325.64,-40.54"/>
</g>
<!-- ast.Name object at 0x7f6448419570 -->
<g id="node22" class="node">
<title>ast.Name object at 0x7f6448419570</title>
<path fill="#66cdaa" stroke="black" d="M444,-108C444,-108 414,-108 414,-108 408,-108 402,-102 402,-96 402,-96 402,-84 402,-84 402,-78 408,-72 414,-72 414,-72 444,-72 444,-72 450,-72 456,-78 456,-84 456,-84 456,-96 456,-96 456,-102 450,-108 444,-108"/>
<text text-anchor="middle" x="429" y="-86.3" font-family="Times,serif" font-size="14.00">Name</text>
</g>
<!-- ast.Subscript object at 0x7f6448418a90&#45;&gt;ast.Name object at 0x7f6448419570 -->
<g id="edge26" class="edge">
<title>ast.Subscript object at 0x7f6448418a90&#45;&gt;ast.Name object at 0x7f6448419570</title>
<path fill="none" stroke="black" d="M416.96,-143.7C418.72,-135.98 420.84,-126.71 422.8,-118.11"/>
<polygon fill="black" stroke="black" points="426.27,-118.63 425.09,-108.1 419.45,-117.07 426.27,-118.63"/>
</g>
<!-- ast.Slice object at 0x7f644841a590 -->
<g id="node23" class="node">
<title>ast.Slice object at 0x7f644841a590</title>
<path fill="#66cdaa" stroke="black" d="M516,-108C516,-108 486,-108 486,-108 480,-108 474,-102 474,-96 474,-96 474,-84 474,-84 474,-78 480,-72 486,-72 486,-72 516,-72 516,-72 522,-72 528,-78 528,-84 528,-84 528,-96 528,-96 528,-102 522,-108 516,-108"/>
<text text-anchor="middle" x="501" y="-86.3" font-family="Times,serif" font-size="14.00">Slice</text>
</g>
<!-- ast.Subscript object at 0x7f6448418a90&#45;&gt;ast.Slice object at 0x7f644841a590 -->
<g id="edge28" class="edge">
<title>ast.Subscript object at 0x7f6448418a90&#45;&gt;ast.Slice object at 0x7f644841a590</title>
<path fill="none" stroke="black" d="M434.75,-143.7C445.84,-134.88 459.47,-124.03 471.49,-114.47"/>
<polygon fill="black" stroke="black" points="473.85,-117.07 479.5,-108.1 469.49,-111.59 473.85,-117.07"/>
</g>
<!-- ast.Name object at 0x7f6448419570&#45;&gt;ast.Load object at 0x7f64909edf60 -->
<g id="edge27" class="edge">
<title>ast.Name object at 0x7f6448419570&#45;&gt;ast.Load object at 0x7f64909edf60</title>
<path fill="none" stroke="black" d="M401.86,-74.5C382.18,-63.98 355.38,-49.66 333.94,-38.2"/>
<polygon fill="black" stroke="black" points="335.58,-35.11 325.11,-33.49 332.28,-41.29 335.58,-35.11"/>
</g>
<!-- ast.Constant object at 0x7f6448418490 -->
<g id="node24" class="node">
<title>ast.Constant object at 0x7f6448418490</title>
<path fill="#66cdaa" stroke="black" d="M521.5,-36C521.5,-36 480.5,-36 480.5,-36 474.5,-36 468.5,-30 468.5,-24 468.5,-24 468.5,-12 468.5,-12 468.5,-6 474.5,0 480.5,0 480.5,0 521.5,0 521.5,0 527.5,0 533.5,-6 533.5,-12 533.5,-12 533.5,-24 533.5,-24 533.5,-30 527.5,-36 521.5,-36"/>
<text text-anchor="middle" x="501" y="-14.3" font-family="Times,serif" font-size="14.00">Constant</text>
</g>
<!-- ast.Slice object at 0x7f644841a590&#45;&gt;ast.Constant object at 0x7f6448418490 -->
<g id="edge29" class="edge">
<title>ast.Slice object at 0x7f644841a590&#45;&gt;ast.Constant object at 0x7f6448418490</title>
<path fill="none" stroke="black" d="M501,-71.7C501,-63.98 501,-54.71 501,-46.11"/>
<polygon fill="black" stroke="black" points="504.5,-46.1 501,-36.1 497.5,-46.1 504.5,-46.1"/>
</g>
</g>
</svg>
