<?xml version="1.0" encoding="UTF-8" standalone="no"?>
<!DOCTYPE svg PUBLIC "-//W3C//DTD SVG 1.1//EN"
 "http://www.w3.org/Graphics/SVG/1.1/DTD/svg11.dtd">
<!-- Generated by graphviz version 2.43.0 (0)
 -->
<!-- Title: %3 Pages: 1 -->
<svg width="1054pt" height="620pt"
 viewBox="0.00 0.00 1053.50 620.00" xmlns="http://www.w3.org/2000/svg" xmlns:xlink="http://www.w3.org/1999/xlink">
<g id="graph0" class="graph" transform="scale(1 1) rotate(0) translate(4 616)">
<title>%3</title>
<polygon fill="white" stroke="transparent" points="-4,4 -4,-616 1049.5,-616 1049.5,4 -4,4"/>
<!-- ast.Module object at 0x7f6447cf3eb0 -->
<g id="node1" class="node">
<title>ast.Module object at 0x7f6447cf3eb0</title>
<path fill="#66cdaa" stroke="black" d="M673.5,-612C673.5,-612 638.5,-612 638.5,-612 632.5,-612 626.5,-606 626.5,-600 626.5,-600 626.5,-588 626.5,-588 626.5,-582 632.5,-576 638.5,-576 638.5,-576 673.5,-576 673.5,-576 679.5,-576 685.5,-582 685.5,-588 685.5,-588 685.5,-600 685.5,-600 685.5,-606 679.5,-612 673.5,-612"/>
<text text-anchor="middle" x="656" y="-590.3" font-family="Times,serif" font-size="14.00">Module</text>
</g>
<!-- ast.FunctionDef object at 0x7f6447cf3ee0 -->
<g id="node2" class="node">
<title>ast.FunctionDef object at 0x7f6447cf3ee0</title>
<path fill="#66cdaa" stroke="black" d="M686.5,-540C686.5,-540 625.5,-540 625.5,-540 619.5,-540 613.5,-534 613.5,-528 613.5,-528 613.5,-516 613.5,-516 613.5,-510 619.5,-504 625.5,-504 625.5,-504 686.5,-504 686.5,-504 692.5,-504 698.5,-510 698.5,-516 698.5,-516 698.5,-528 698.5,-528 698.5,-534 692.5,-540 686.5,-540"/>
<text text-anchor="middle" x="656" y="-518.3" font-family="Times,serif" font-size="14.00">FunctionDef</text>
</g>
<!-- ast.Module object at 0x7f6447cf3eb0&#45;&gt;ast.FunctionDef object at 0x7f6447cf3ee0 -->
<g id="edge1" class="edge">
<title>ast.Module object at 0x7f6447cf3eb0&#45;&gt;ast.FunctionDef object at 0x7f6447cf3ee0</title>
<path fill="none" stroke="black" d="M656,-575.7C656,-567.98 656,-558.71 656,-550.11"/>
<polygon fill="black" stroke="black" points="659.5,-550.1 656,-540.1 652.5,-550.1 659.5,-550.1"/>
</g>
<!-- ast.arguments object at 0x7f6447cf3bb0 -->
<g id="node3" class="node">
<title>ast.arguments object at 0x7f6447cf3bb0</title>
<path fill="#66cdaa" stroke="black" d="M388,-468C388,-468 338,-468 338,-468 332,-468 326,-462 326,-456 326,-456 326,-444 326,-444 326,-438 332,-432 338,-432 338,-432 388,-432 388,-432 394,-432 400,-438 400,-444 400,-444 400,-456 400,-456 400,-462 394,-468 388,-468"/>
<text text-anchor="middle" x="363" y="-446.3" font-family="Times,serif" font-size="14.00">arguments</text>
</g>
<!-- ast.FunctionDef object at 0x7f6447cf3ee0&#45;&gt;ast.arguments object at 0x7f6447cf3bb0 -->
<g id="edge2" class="edge">
<title>ast.FunctionDef object at 0x7f6447cf3ee0&#45;&gt;ast.arguments object at 0x7f6447cf3bb0</title>
<path fill="none" stroke="black" d="M613.4,-510.82C559.31,-497.9 466.29,-475.68 410.13,-462.26"/>
<polygon fill="black" stroke="black" points="410.63,-458.78 400.09,-459.86 409,-465.59 410.63,-458.78"/>
</g>
<!-- ast.Assign object at 0x7f6447cf3d90 -->
<g id="node5" class="node">
<title>ast.Assign object at 0x7f6447cf3d90</title>
<path fill="#66cdaa" stroke="black" d="M671,-468C671,-468 641,-468 641,-468 635,-468 629,-462 629,-456 629,-456 629,-444 629,-444 629,-438 635,-432 641,-432 641,-432 671,-432 671,-432 677,-432 683,-438 683,-444 683,-444 683,-456 683,-456 683,-462 677,-468 671,-468"/>
<text text-anchor="middle" x="656" y="-446.3" font-family="Times,serif" font-size="14.00">Assign</text>
</g>
<!-- ast.FunctionDef object at 0x7f6447cf3ee0&#45;&gt;ast.Assign object at 0x7f6447cf3d90 -->
<g id="edge4" class="edge">
<title>ast.FunctionDef object at 0x7f6447cf3ee0&#45;&gt;ast.Assign object at 0x7f6447cf3d90</title>
<path fill="none" stroke="black" d="M656,-503.7C656,-495.98 656,-486.71 656,-478.11"/>
<polygon fill="black" stroke="black" points="659.5,-478.1 656,-468.1 652.5,-478.1 659.5,-478.1"/>
</g>
<!-- ast.For object at 0x7f6447cf3ac0 -->
<g id="node10" class="node">
<title>ast.For object at 0x7f6447cf3ac0</title>
<path fill="#66cdaa" stroke="black" d="M553,-468C553,-468 523,-468 523,-468 517,-468 511,-462 511,-456 511,-456 511,-444 511,-444 511,-438 517,-432 523,-432 523,-432 553,-432 553,-432 559,-432 565,-438 565,-444 565,-444 565,-456 565,-456 565,-462 559,-468 553,-468"/>
<text text-anchor="middle" x="538" y="-446.3" font-family="Times,serif" font-size="14.00">For</text>
</g>
<!-- ast.FunctionDef object at 0x7f6447cf3ee0&#45;&gt;ast.For object at 0x7f6447cf3ac0 -->
<g id="edge9" class="edge">
<title>ast.FunctionDef object at 0x7f6447cf3ee0&#45;&gt;ast.For object at 0x7f6447cf3ac0</title>
<path fill="none" stroke="black" d="M627.13,-503.88C611.24,-494.45 591.37,-482.66 574.42,-472.61"/>
<polygon fill="black" stroke="black" points="575.74,-469.32 565.35,-467.23 572.17,-475.34 575.74,-469.32"/>
</g>
<!-- ast.Assign object at 0x7f6447cf39d0 -->
<g id="node31" class="node">
<title>ast.Assign object at 0x7f6447cf39d0</title>
<path fill="#66cdaa" stroke="black" d="M762,-468C762,-468 732,-468 732,-468 726,-468 720,-462 720,-456 720,-456 720,-444 720,-444 720,-438 726,-432 732,-432 732,-432 762,-432 762,-432 768,-432 774,-438 774,-444 774,-444 774,-456 774,-456 774,-462 768,-468 762,-468"/>
<text text-anchor="middle" x="747" y="-446.3" font-family="Times,serif" font-size="14.00">Assign</text>
</g>
<!-- ast.FunctionDef object at 0x7f6447cf3ee0&#45;&gt;ast.Assign object at 0x7f6447cf39d0 -->
<g id="edge43" class="edge">
<title>ast.FunctionDef object at 0x7f6447cf3ee0&#45;&gt;ast.Assign object at 0x7f6447cf39d0</title>
<path fill="none" stroke="black" d="M678.49,-503.7C689.96,-494.88 704.06,-484.03 716.48,-474.47"/>
<polygon fill="black" stroke="black" points="718.97,-476.98 724.76,-468.1 714.7,-471.43 718.97,-476.98"/>
</g>
<!-- ast.Return object at 0x7f6447cf3520 -->
<g id="node36" class="node">
<title>ast.Return object at 0x7f6447cf3520</title>
<path fill="#66cdaa" stroke="black" d="M889,-324C889,-324 859,-324 859,-324 853,-324 847,-318 847,-312 847,-312 847,-300 847,-300 847,-294 853,-288 859,-288 859,-288 889,-288 889,-288 895,-288 901,-294 901,-300 901,-300 901,-312 901,-312 901,-318 895,-324 889,-324"/>
<text text-anchor="middle" x="874" y="-302.3" font-family="Times,serif" font-size="14.00">Return</text>
</g>
<!-- ast.FunctionDef object at 0x7f6447cf3ee0&#45;&gt;ast.Return object at 0x7f6447cf3520 -->
<g id="edge51" class="edge">
<title>ast.FunctionDef object at 0x7f6447cf3ee0&#45;&gt;ast.Return object at 0x7f6447cf3520</title>
<path fill="none" stroke="black" d="M698.72,-510.84C725.38,-502.78 759.06,-489.25 783,-468 824.96,-430.76 852.04,-369.34 865,-334.1"/>
<polygon fill="black" stroke="black" points="868.37,-335.08 868.43,-324.48 861.77,-332.73 868.37,-335.08"/>
</g>
<!-- ast.arg object at 0x7f6447cf3dc0 -->
<g id="node4" class="node">
<title>ast.arg object at 0x7f6447cf3dc0</title>
<path fill="#66cdaa" stroke="black" d="M368,-396C368,-396 338,-396 338,-396 332,-396 326,-390 326,-384 326,-384 326,-372 326,-372 326,-366 332,-360 338,-360 338,-360 368,-360 368,-360 374,-360 380,-366 380,-372 380,-372 380,-384 380,-384 380,-390 374,-396 368,-396"/>
<text text-anchor="middle" x="353" y="-374.3" font-family="Times,serif" font-size="14.00">arg</text>
</g>
<!-- ast.arguments object at 0x7f6447cf3bb0&#45;&gt;ast.arg object at 0x7f6447cf3dc0 -->
<g id="edge3" class="edge">
<title>ast.arguments object at 0x7f6447cf3bb0&#45;&gt;ast.arg object at 0x7f6447cf3dc0</title>
<path fill="none" stroke="black" d="M360.53,-431.7C359.43,-423.98 358.1,-414.71 356.87,-406.11"/>
<polygon fill="black" stroke="black" points="360.32,-405.51 355.44,-396.1 353.39,-406.5 360.32,-405.51"/>
</g>
<!-- ast.Name object at 0x7f6447cf3be0 -->
<g id="node6" class="node">
<title>ast.Name object at 0x7f6447cf3be0</title>
<path fill="#66cdaa" stroke="black" d="M652,-396C652,-396 622,-396 622,-396 616,-396 610,-390 610,-384 610,-384 610,-372 610,-372 610,-366 616,-360 622,-360 622,-360 652,-360 652,-360 658,-360 664,-366 664,-372 664,-372 664,-384 664,-384 664,-390 658,-396 652,-396"/>
<text text-anchor="middle" x="637" y="-374.3" font-family="Times,serif" font-size="14.00">Name</text>
</g>
<!-- ast.Assign object at 0x7f6447cf3d90&#45;&gt;ast.Name object at 0x7f6447cf3be0 -->
<g id="edge5" class="edge">
<title>ast.Assign object at 0x7f6447cf3d90&#45;&gt;ast.Name object at 0x7f6447cf3be0</title>
<path fill="none" stroke="black" d="M651.3,-431.7C649.19,-423.9 646.64,-414.51 644.28,-405.83"/>
<polygon fill="black" stroke="black" points="647.64,-404.84 641.64,-396.1 640.88,-406.67 647.64,-404.84"/>
</g>
<!-- ast.List object at 0x7f6447cf38b0 -->
<g id="node8" class="node">
<title>ast.List object at 0x7f6447cf38b0</title>
<path fill="#66cdaa" stroke="black" d="M719,-324C719,-324 689,-324 689,-324 683,-324 677,-318 677,-312 677,-312 677,-300 677,-300 677,-294 683,-288 689,-288 689,-288 719,-288 719,-288 725,-288 731,-294 731,-300 731,-300 731,-312 731,-312 731,-318 725,-324 719,-324"/>
<text text-anchor="middle" x="704" y="-302.3" font-family="Times,serif" font-size="14.00">List</text>
</g>
<!-- ast.Assign object at 0x7f6447cf3d90&#45;&gt;ast.List object at 0x7f6447cf38b0 -->
<g id="edge7" class="edge">
<title>ast.Assign object at 0x7f6447cf3d90&#45;&gt;ast.List object at 0x7f6447cf38b0</title>
<path fill="none" stroke="black" d="M661.79,-431.87C670.01,-407.56 685.13,-362.82 694.87,-334.01"/>
<polygon fill="black" stroke="black" points="698.3,-334.78 698.19,-324.19 691.67,-332.54 698.3,-334.78"/>
</g>
<!-- ast.Store object at 0x7f64909edfc0 -->
<g id="node7" class="node">
<title>ast.Store object at 0x7f64909edfc0</title>
<path fill="#66cdaa" stroke="black" d="M647,-324C647,-324 617,-324 617,-324 611,-324 605,-318 605,-312 605,-312 605,-300 605,-300 605,-294 611,-288 617,-288 617,-288 647,-288 647,-288 653,-288 659,-294 659,-300 659,-300 659,-312 659,-312 659,-318 653,-324 647,-324"/>
<text text-anchor="middle" x="632" y="-302.3" font-family="Times,serif" font-size="14.00">Store</text>
</g>
<!-- ast.Name object at 0x7f6447cf3be0&#45;&gt;ast.Store object at 0x7f64909edfc0 -->
<g id="edge6" class="edge">
<title>ast.Name object at 0x7f6447cf3be0&#45;&gt;ast.Store object at 0x7f64909edfc0</title>
<path fill="none" stroke="black" d="M635.76,-359.7C635.21,-351.98 634.55,-342.71 633.94,-334.11"/>
<polygon fill="black" stroke="black" points="637.43,-333.83 633.22,-324.1 630.44,-334.33 637.43,-333.83"/>
</g>
<!-- ast.Load object at 0x7f64909edf60 -->
<g id="node9" class="node">
<title>ast.Load object at 0x7f64909edf60</title>
<path fill="#66cdaa" stroke="black" d="M499,-36C499,-36 469,-36 469,-36 463,-36 457,-30 457,-24 457,-24 457,-12 457,-12 457,-6 463,0 469,0 469,0 499,0 499,0 505,0 511,-6 511,-12 511,-12 511,-24 511,-24 511,-30 505,-36 499,-36"/>
<text text-anchor="middle" x="484" y="-14.3" font-family="Times,serif" font-size="14.00">Load</text>
</g>
<!-- ast.List object at 0x7f6447cf38b0&#45;&gt;ast.Load object at 0x7f64909edf60 -->
<g id="edge8" class="edge">
<title>ast.List object at 0x7f6447cf38b0&#45;&gt;ast.Load object at 0x7f64909edf60</title>
<path fill="none" stroke="black" d="M708.55,-287.92C718.66,-245.74 738.16,-135.48 685,-72 664.19,-47.15 573.63,-31.08 521.44,-23.7"/>
<polygon fill="black" stroke="black" points="521.62,-20.19 511.24,-22.3 520.67,-27.13 521.62,-20.19"/>
</g>
<!-- ast.Name object at 0x7f6447cf3a90 -->
<g id="node11" class="node">
<title>ast.Name object at 0x7f6447cf3a90</title>
<path fill="#66cdaa" stroke="black" d="M580,-396C580,-396 550,-396 550,-396 544,-396 538,-390 538,-384 538,-384 538,-372 538,-372 538,-366 544,-360 550,-360 550,-360 580,-360 580,-360 586,-360 592,-366 592,-372 592,-372 592,-384 592,-384 592,-390 586,-396 580,-396"/>
<text text-anchor="middle" x="565" y="-374.3" font-family="Times,serif" font-size="14.00">Name</text>
</g>
<!-- ast.For object at 0x7f6447cf3ac0&#45;&gt;ast.Name object at 0x7f6447cf3a90 -->
<g id="edge10" class="edge">
<title>ast.For object at 0x7f6447cf3ac0&#45;&gt;ast.Name object at 0x7f6447cf3a90</title>
<path fill="none" stroke="black" d="M544.67,-431.7C547.71,-423.81 551.38,-414.3 554.76,-405.55"/>
<polygon fill="black" stroke="black" points="558.07,-406.69 558.4,-396.1 551.54,-404.17 558.07,-406.69"/>
</g>
<!-- ast.Call object at 0x7f6447cf38e0 -->
<g id="node12" class="node">
<title>ast.Call object at 0x7f6447cf38e0</title>
<path fill="#66cdaa" stroke="black" d="M537,-252C537,-252 507,-252 507,-252 501,-252 495,-246 495,-240 495,-240 495,-228 495,-228 495,-222 501,-216 507,-216 507,-216 537,-216 537,-216 543,-216 549,-222 549,-228 549,-228 549,-240 549,-240 549,-246 543,-252 537,-252"/>
<text text-anchor="middle" x="522" y="-230.3" font-family="Times,serif" font-size="14.00">Call</text>
</g>
<!-- ast.For object at 0x7f6447cf3ac0&#45;&gt;ast.Call object at 0x7f6447cf38e0 -->
<g id="edge12" class="edge">
<title>ast.For object at 0x7f6447cf3ac0&#45;&gt;ast.Call object at 0x7f6447cf38e0</title>
<path fill="none" stroke="black" d="M534.54,-431.89C532.58,-421.54 530.28,-408.07 529,-396 524.06,-349.46 522.58,-295 522.16,-262.84"/>
<polygon fill="black" stroke="black" points="525.65,-262.41 522.05,-252.45 518.65,-262.48 525.65,-262.41"/>
</g>
<!-- ast.If object at 0x7f6447cf32e0 -->
<g id="node17" class="node">
<title>ast.If object at 0x7f6447cf32e0</title>
<path fill="#66cdaa" stroke="black" d="M440,-396C440,-396 410,-396 410,-396 404,-396 398,-390 398,-384 398,-384 398,-372 398,-372 398,-366 404,-360 410,-360 410,-360 440,-360 440,-360 446,-360 452,-366 452,-372 452,-372 452,-384 452,-384 452,-390 446,-396 440,-396"/>
<text text-anchor="middle" x="425" y="-374.3" font-family="Times,serif" font-size="14.00">If</text>
</g>
<!-- ast.For object at 0x7f6447cf3ac0&#45;&gt;ast.If object at 0x7f6447cf32e0 -->
<g id="edge20" class="edge">
<title>ast.For object at 0x7f6447cf3ac0&#45;&gt;ast.If object at 0x7f6447cf32e0</title>
<path fill="none" stroke="black" d="M510.93,-432.23C495.95,-422.95 477.13,-411.29 460.93,-401.26"/>
<polygon fill="black" stroke="black" points="462.58,-398.16 452.24,-395.87 458.9,-404.11 462.58,-398.16"/>
</g>
<!-- ast.Name object at 0x7f6447cf3a90&#45;&gt;ast.Store object at 0x7f64909edfc0 -->
<g id="edge11" class="edge">
<title>ast.Name object at 0x7f6447cf3a90&#45;&gt;ast.Store object at 0x7f64909edfc0</title>
<path fill="none" stroke="black" d="M581.56,-359.7C589.68,-351.22 599.59,-340.86 608.47,-331.58"/>
<polygon fill="black" stroke="black" points="611.24,-333.75 615.63,-324.1 606.19,-328.91 611.24,-333.75"/>
</g>
<!-- ast.Name object at 0x7f6447cf35b0 -->
<g id="node13" class="node">
<title>ast.Name object at 0x7f6447cf35b0</title>
<path fill="#66cdaa" stroke="black" d="M537,-180C537,-180 507,-180 507,-180 501,-180 495,-174 495,-168 495,-168 495,-156 495,-156 495,-150 501,-144 507,-144 507,-144 537,-144 537,-144 543,-144 549,-150 549,-156 549,-156 549,-168 549,-168 549,-174 543,-180 537,-180"/>
<text text-anchor="middle" x="522" y="-158.3" font-family="Times,serif" font-size="14.00">Name</text>
</g>
<!-- ast.Call object at 0x7f6447cf38e0&#45;&gt;ast.Name object at 0x7f6447cf35b0 -->
<g id="edge13" class="edge">
<title>ast.Call object at 0x7f6447cf38e0&#45;&gt;ast.Name object at 0x7f6447cf35b0</title>
<path fill="none" stroke="black" d="M522,-215.7C522,-207.98 522,-198.71 522,-190.11"/>
<polygon fill="black" stroke="black" points="525.5,-190.1 522,-180.1 518.5,-190.1 525.5,-190.1"/>
</g>
<!-- ast.Call object at 0x7f6447cf37c0 -->
<g id="node14" class="node">
<title>ast.Call object at 0x7f6447cf37c0</title>
<path fill="#66cdaa" stroke="black" d="M609,-180C609,-180 579,-180 579,-180 573,-180 567,-174 567,-168 567,-168 567,-156 567,-156 567,-150 573,-144 579,-144 579,-144 609,-144 609,-144 615,-144 621,-150 621,-156 621,-156 621,-168 621,-168 621,-174 615,-180 609,-180"/>
<text text-anchor="middle" x="594" y="-158.3" font-family="Times,serif" font-size="14.00">Call</text>
</g>
<!-- ast.Call object at 0x7f6447cf38e0&#45;&gt;ast.Call object at 0x7f6447cf37c0 -->
<g id="edge15" class="edge">
<title>ast.Call object at 0x7f6447cf38e0&#45;&gt;ast.Call object at 0x7f6447cf37c0</title>
<path fill="none" stroke="black" d="M539.8,-215.7C548.6,-207.14 559.38,-196.66 569,-187.3"/>
<polygon fill="black" stroke="black" points="571.68,-189.58 576.41,-180.1 566.8,-184.57 571.68,-189.58"/>
</g>
<!-- ast.Name object at 0x7f6447cf35b0&#45;&gt;ast.Load object at 0x7f64909edf60 -->
<g id="edge14" class="edge">
<title>ast.Name object at 0x7f6447cf35b0&#45;&gt;ast.Load object at 0x7f64909edf60</title>
<path fill="none" stroke="black" d="M517.42,-143.87C510.91,-119.56 498.94,-74.82 491.23,-46.01"/>
<polygon fill="black" stroke="black" points="494.57,-44.94 488.6,-36.19 487.8,-46.75 494.57,-44.94"/>
</g>
<!-- ast.Name object at 0x7f6447cf3790 -->
<g id="node15" class="node">
<title>ast.Name object at 0x7f6447cf3790</title>
<path fill="#66cdaa" stroke="black" d="M592,-108C592,-108 562,-108 562,-108 556,-108 550,-102 550,-96 550,-96 550,-84 550,-84 550,-78 556,-72 562,-72 562,-72 592,-72 592,-72 598,-72 604,-78 604,-84 604,-84 604,-96 604,-96 604,-102 598,-108 592,-108"/>
<text text-anchor="middle" x="577" y="-86.3" font-family="Times,serif" font-size="14.00">Name</text>
</g>
<!-- ast.Call object at 0x7f6447cf37c0&#45;&gt;ast.Name object at 0x7f6447cf3790 -->
<g id="edge16" class="edge">
<title>ast.Call object at 0x7f6447cf37c0&#45;&gt;ast.Name object at 0x7f6447cf3790</title>
<path fill="none" stroke="black" d="M589.8,-143.7C587.9,-135.9 585.62,-126.51 583.52,-117.83"/>
<polygon fill="black" stroke="black" points="586.92,-117 581.15,-108.1 580.11,-118.65 586.92,-117"/>
</g>
<!-- ast.Name object at 0x7f6447cf35e0 -->
<g id="node16" class="node">
<title>ast.Name object at 0x7f6447cf35e0</title>
<path fill="#66cdaa" stroke="black" d="M664,-108C664,-108 634,-108 634,-108 628,-108 622,-102 622,-96 622,-96 622,-84 622,-84 622,-78 628,-72 634,-72 634,-72 664,-72 664,-72 670,-72 676,-78 676,-84 676,-84 676,-96 676,-96 676,-102 670,-108 664,-108"/>
<text text-anchor="middle" x="649" y="-86.3" font-family="Times,serif" font-size="14.00">Name</text>
</g>
<!-- ast.Call object at 0x7f6447cf37c0&#45;&gt;ast.Name object at 0x7f6447cf35e0 -->
<g id="edge18" class="edge">
<title>ast.Call object at 0x7f6447cf37c0&#45;&gt;ast.Name object at 0x7f6447cf35e0</title>
<path fill="none" stroke="black" d="M607.6,-143.7C614.12,-135.39 622.07,-125.28 629.25,-116.14"/>
<polygon fill="black" stroke="black" points="632.13,-118.13 635.56,-108.1 626.63,-113.81 632.13,-118.13"/>
</g>
<!-- ast.Name object at 0x7f6447cf3790&#45;&gt;ast.Load object at 0x7f64909edf60 -->
<g id="edge17" class="edge">
<title>ast.Name object at 0x7f6447cf3790&#45;&gt;ast.Load object at 0x7f64909edf60</title>
<path fill="none" stroke="black" d="M554.01,-71.7C542.19,-62.8 527.61,-51.82 514.82,-42.2"/>
<polygon fill="black" stroke="black" points="516.82,-39.32 506.72,-36.1 512.61,-44.91 516.82,-39.32"/>
</g>
<!-- ast.Name object at 0x7f6447cf35e0&#45;&gt;ast.Load object at 0x7f64909edf60 -->
<g id="edge19" class="edge">
<title>ast.Name object at 0x7f6447cf35e0&#45;&gt;ast.Load object at 0x7f64909edf60</title>
<path fill="none" stroke="black" d="M621.94,-76.04C618.93,-74.65 615.91,-73.28 613,-72 582.16,-58.39 546.71,-43.91 520.79,-33.53"/>
<polygon fill="black" stroke="black" points="521.94,-30.22 511.35,-29.76 519.34,-36.72 521.94,-30.22"/>
</g>
<!-- ast.Compare object at 0x7f6447cf34c0 -->
<g id="node18" class="node">
<title>ast.Compare object at 0x7f6447cf34c0</title>
<path fill="#66cdaa" stroke="black" d="M404.5,-252C404.5,-252 361.5,-252 361.5,-252 355.5,-252 349.5,-246 349.5,-240 349.5,-240 349.5,-228 349.5,-228 349.5,-222 355.5,-216 361.5,-216 361.5,-216 404.5,-216 404.5,-216 410.5,-216 416.5,-222 416.5,-228 416.5,-228 416.5,-240 416.5,-240 416.5,-246 410.5,-252 404.5,-252"/>
<text text-anchor="middle" x="383" y="-230.3" font-family="Times,serif" font-size="14.00">Compare</text>
</g>
<!-- ast.If object at 0x7f6447cf32e0&#45;&gt;ast.Compare object at 0x7f6447cf34c0 -->
<g id="edge21" class="edge">
<title>ast.If object at 0x7f6447cf32e0&#45;&gt;ast.Compare object at 0x7f6447cf34c0</title>
<path fill="none" stroke="black" d="M419.93,-359.87C412.74,-335.56 399.51,-290.82 390.99,-262.01"/>
<polygon fill="black" stroke="black" points="394.28,-260.79 388.08,-252.19 387.56,-262.77 394.28,-260.79"/>
</g>
<!-- ast.Expr object at 0x7f6447cf3fd0 -->
<g id="node24" class="node">
<title>ast.Expr object at 0x7f6447cf3fd0</title>
<path fill="#66cdaa" stroke="black" d="M304,-324C304,-324 274,-324 274,-324 268,-324 262,-318 262,-312 262,-312 262,-300 262,-300 262,-294 268,-288 274,-288 274,-288 304,-288 304,-288 310,-288 316,-294 316,-300 316,-300 316,-312 316,-312 316,-318 310,-324 304,-324"/>
<text text-anchor="middle" x="289" y="-302.3" font-family="Times,serif" font-size="14.00">Expr</text>
</g>
<!-- ast.If object at 0x7f6447cf32e0&#45;&gt;ast.Expr object at 0x7f6447cf3fd0 -->
<g id="edge31" class="edge">
<title>ast.If object at 0x7f6447cf32e0&#45;&gt;ast.Expr object at 0x7f6447cf3fd0</title>
<path fill="none" stroke="black" d="M397.81,-363C376.96,-352.27 347.99,-337.36 325.19,-325.62"/>
<polygon fill="black" stroke="black" points="326.64,-322.44 316.15,-320.97 323.44,-328.66 326.64,-322.44"/>
</g>
<!-- ast.Subscript object at 0x7f6447cf3490 -->
<g id="node19" class="node">
<title>ast.Subscript object at 0x7f6447cf3490</title>
<path fill="#66cdaa" stroke="black" d="M465,-180C465,-180 421,-180 421,-180 415,-180 409,-174 409,-168 409,-168 409,-156 409,-156 409,-150 415,-144 421,-144 421,-144 465,-144 465,-144 471,-144 477,-150 477,-156 477,-156 477,-168 477,-168 477,-174 471,-180 465,-180"/>
<text text-anchor="middle" x="443" y="-158.3" font-family="Times,serif" font-size="14.00">Subscript</text>
</g>
<!-- ast.Compare object at 0x7f6447cf34c0&#45;&gt;ast.Subscript object at 0x7f6447cf3490 -->
<g id="edge22" class="edge">
<title>ast.Compare object at 0x7f6447cf34c0&#45;&gt;ast.Subscript object at 0x7f6447cf3490</title>
<path fill="none" stroke="black" d="M397.83,-215.7C405.02,-207.3 413.8,-197.07 421.69,-187.86"/>
<polygon fill="black" stroke="black" points="424.49,-189.97 428.34,-180.1 419.17,-185.42 424.49,-189.97"/>
</g>
<!-- ast.NotIn object at 0x7f64909eebf0 -->
<g id="node22" class="node">
<title>ast.NotIn object at 0x7f64909eebf0</title>
<path fill="#66cdaa" stroke="black" d="M379,-180C379,-180 349,-180 349,-180 343,-180 337,-174 337,-168 337,-168 337,-156 337,-156 337,-150 343,-144 349,-144 349,-144 379,-144 379,-144 385,-144 391,-150 391,-156 391,-156 391,-168 391,-168 391,-174 385,-180 379,-180"/>
<text text-anchor="middle" x="364" y="-158.3" font-family="Times,serif" font-size="14.00">NotIn</text>
</g>
<!-- ast.Compare object at 0x7f6447cf34c0&#45;&gt;ast.NotIn object at 0x7f64909eebf0 -->
<g id="edge28" class="edge">
<title>ast.Compare object at 0x7f6447cf34c0&#45;&gt;ast.NotIn object at 0x7f64909eebf0</title>
<path fill="none" stroke="black" d="M378.3,-215.7C376.19,-207.9 373.64,-198.51 371.28,-189.83"/>
<polygon fill="black" stroke="black" points="374.64,-188.84 368.64,-180.1 367.88,-190.67 374.64,-188.84"/>
</g>
<!-- ast.Name object at 0x7f6447cf3e80 -->
<g id="node23" class="node">
<title>ast.Name object at 0x7f6447cf3e80</title>
<path fill="#66cdaa" stroke="black" d="M307,-180C307,-180 277,-180 277,-180 271,-180 265,-174 265,-168 265,-168 265,-156 265,-156 265,-150 271,-144 277,-144 277,-144 307,-144 307,-144 313,-144 319,-150 319,-156 319,-156 319,-168 319,-168 319,-174 313,-180 307,-180"/>
<text text-anchor="middle" x="292" y="-158.3" font-family="Times,serif" font-size="14.00">Name</text>
</g>
<!-- ast.Compare object at 0x7f6447cf34c0&#45;&gt;ast.Name object at 0x7f6447cf3e80 -->
<g id="edge29" class="edge">
<title>ast.Compare object at 0x7f6447cf34c0&#45;&gt;ast.Name object at 0x7f6447cf3e80</title>
<path fill="none" stroke="black" d="M360.51,-215.7C349.04,-206.88 334.94,-196.03 322.52,-186.47"/>
<polygon fill="black" stroke="black" points="324.3,-183.43 314.24,-180.1 320.03,-188.98 324.3,-183.43"/>
</g>
<!-- ast.Subscript object at 0x7f6447cf3490&#45;&gt;ast.Load object at 0x7f64909edf60 -->
<g id="edge27" class="edge">
<title>ast.Subscript object at 0x7f6447cf3490&#45;&gt;ast.Load object at 0x7f64909edf60</title>
<path fill="none" stroke="black" d="M451.16,-143.63C455.71,-133.43 461.21,-120.18 465,-108 471.33,-87.67 476.26,-64.07 479.51,-46.29"/>
<polygon fill="black" stroke="black" points="482.98,-46.76 481.27,-36.3 476.09,-45.54 482.98,-46.76"/>
</g>
<!-- ast.Name object at 0x7f6447cf32b0 -->
<g id="node20" class="node">
<title>ast.Name object at 0x7f6447cf32b0</title>
<path fill="#66cdaa" stroke="black" d="M372,-108C372,-108 342,-108 342,-108 336,-108 330,-102 330,-96 330,-96 330,-84 330,-84 330,-78 336,-72 342,-72 342,-72 372,-72 372,-72 378,-72 384,-78 384,-84 384,-84 384,-96 384,-96 384,-102 378,-108 372,-108"/>
<text text-anchor="middle" x="357" y="-86.3" font-family="Times,serif" font-size="14.00">Name</text>
</g>
<!-- ast.Subscript object at 0x7f6447cf3490&#45;&gt;ast.Name object at 0x7f6447cf32b0 -->
<g id="edge23" class="edge">
<title>ast.Subscript object at 0x7f6447cf3490&#45;&gt;ast.Name object at 0x7f6447cf32b0</title>
<path fill="none" stroke="black" d="M421.74,-143.7C410.91,-134.88 397.58,-124.03 385.84,-114.47"/>
<polygon fill="black" stroke="black" points="387.98,-111.7 378.01,-108.1 383.56,-117.13 387.98,-111.7"/>
</g>
<!-- ast.Name object at 0x7f6447cf3df0 -->
<g id="node21" class="node">
<title>ast.Name object at 0x7f6447cf3df0</title>
<path fill="#66cdaa" stroke="black" d="M444,-108C444,-108 414,-108 414,-108 408,-108 402,-102 402,-96 402,-96 402,-84 402,-84 402,-78 408,-72 414,-72 414,-72 444,-72 444,-72 450,-72 456,-78 456,-84 456,-84 456,-96 456,-96 456,-102 450,-108 444,-108"/>
<text text-anchor="middle" x="429" y="-86.3" font-family="Times,serif" font-size="14.00">Name</text>
</g>
<!-- ast.Subscript object at 0x7f6447cf3490&#45;&gt;ast.Name object at 0x7f6447cf3df0 -->
<g id="edge25" class="edge">
<title>ast.Subscript object at 0x7f6447cf3490&#45;&gt;ast.Name object at 0x7f6447cf3df0</title>
<path fill="none" stroke="black" d="M439.54,-143.7C438,-135.98 436.14,-126.71 434.42,-118.11"/>
<polygon fill="black" stroke="black" points="437.81,-117.22 432.42,-108.1 430.95,-118.6 437.81,-117.22"/>
</g>
<!-- ast.Name object at 0x7f6447cf32b0&#45;&gt;ast.Load object at 0x7f64909edf60 -->
<g id="edge24" class="edge">
<title>ast.Name object at 0x7f6447cf32b0&#45;&gt;ast.Load object at 0x7f64909edf60</title>
<path fill="none" stroke="black" d="M384.24,-73.98C402.83,-63.74 427.64,-50.07 447.87,-38.92"/>
<polygon fill="black" stroke="black" points="449.73,-41.88 456.8,-33.99 446.35,-35.75 449.73,-41.88"/>
</g>
<!-- ast.Name object at 0x7f6447cf3df0&#45;&gt;ast.Load object at 0x7f64909edf60 -->
<g id="edge26" class="edge">
<title>ast.Name object at 0x7f6447cf3df0&#45;&gt;ast.Load object at 0x7f64909edf60</title>
<path fill="none" stroke="black" d="M442.6,-71.7C449.12,-63.39 457.07,-53.28 464.25,-44.14"/>
<polygon fill="black" stroke="black" points="467.13,-46.13 470.56,-36.1 461.63,-41.81 467.13,-46.13"/>
</g>
<!-- ast.Name object at 0x7f6447cf3e80&#45;&gt;ast.Load object at 0x7f64909edf60 -->
<g id="edge30" class="edge">
<title>ast.Name object at 0x7f6447cf3e80&#45;&gt;ast.Load object at 0x7f64909edf60</title>
<path fill="none" stroke="black" d="M293.04,-143.88C295.16,-123.98 301.57,-91.41 321,-72 354.62,-38.4 409.74,-26.1 446.45,-21.59"/>
<polygon fill="black" stroke="black" points="447.18,-25.04 456.74,-20.48 446.42,-18.08 447.18,-25.04"/>
</g>
<!-- ast.Call object at 0x7f6447cf3e20 -->
<g id="node25" class="node">
<title>ast.Call object at 0x7f6447cf3e20</title>
<path fill="#66cdaa" stroke="black" d="M227,-252C227,-252 197,-252 197,-252 191,-252 185,-246 185,-240 185,-240 185,-228 185,-228 185,-222 191,-216 197,-216 197,-216 227,-216 227,-216 233,-216 239,-222 239,-228 239,-228 239,-240 239,-240 239,-246 233,-252 227,-252"/>
<text text-anchor="middle" x="212" y="-230.3" font-family="Times,serif" font-size="14.00">Call</text>
</g>
<!-- ast.Expr object at 0x7f6447cf3fd0&#45;&gt;ast.Call object at 0x7f6447cf3e20 -->
<g id="edge32" class="edge">
<title>ast.Expr object at 0x7f6447cf3fd0&#45;&gt;ast.Call object at 0x7f6447cf3e20</title>
<path fill="none" stroke="black" d="M269.97,-287.7C260.46,-279.05 248.79,-268.45 238.43,-259.03"/>
<polygon fill="black" stroke="black" points="240.57,-256.24 230.81,-252.1 235.86,-261.42 240.57,-256.24"/>
</g>
<!-- ast.Attribute object at 0x7f6447cf3af0 -->
<g id="node26" class="node">
<title>ast.Attribute object at 0x7f6447cf3af0</title>
<path fill="#66cdaa" stroke="black" d="M232.5,-180C232.5,-180 191.5,-180 191.5,-180 185.5,-180 179.5,-174 179.5,-168 179.5,-168 179.5,-156 179.5,-156 179.5,-150 185.5,-144 191.5,-144 191.5,-144 232.5,-144 232.5,-144 238.5,-144 244.5,-150 244.5,-156 244.5,-156 244.5,-168 244.5,-168 244.5,-174 238.5,-180 232.5,-180"/>
<text text-anchor="middle" x="212" y="-158.3" font-family="Times,serif" font-size="14.00">Attribute</text>
</g>
<!-- ast.Call object at 0x7f6447cf3e20&#45;&gt;ast.Attribute object at 0x7f6447cf3af0 -->
<g id="edge33" class="edge">
<title>ast.Call object at 0x7f6447cf3e20&#45;&gt;ast.Attribute object at 0x7f6447cf3af0</title>
<path fill="none" stroke="black" d="M212,-215.7C212,-207.98 212,-198.71 212,-190.11"/>
<polygon fill="black" stroke="black" points="215.5,-190.1 212,-180.1 208.5,-190.1 215.5,-190.1"/>
</g>
<!-- ast.Subscript object at 0x7f6447cf3cd0 -->
<g id="node28" class="node">
<title>ast.Subscript object at 0x7f6447cf3cd0</title>
<path fill="#66cdaa" stroke="black" d="M127,-180C127,-180 83,-180 83,-180 77,-180 71,-174 71,-168 71,-168 71,-156 71,-156 71,-150 77,-144 83,-144 83,-144 127,-144 127,-144 133,-144 139,-150 139,-156 139,-156 139,-168 139,-168 139,-174 133,-180 127,-180"/>
<text text-anchor="middle" x="105" y="-158.3" font-family="Times,serif" font-size="14.00">Subscript</text>
</g>
<!-- ast.Call object at 0x7f6447cf3e20&#45;&gt;ast.Subscript object at 0x7f6447cf3cd0 -->
<g id="edge37" class="edge">
<title>ast.Call object at 0x7f6447cf3e20&#45;&gt;ast.Subscript object at 0x7f6447cf3cd0</title>
<path fill="none" stroke="black" d="M185.82,-215.88C171.96,-206.81 154.76,-195.55 139.79,-185.76"/>
<polygon fill="black" stroke="black" points="141.56,-182.74 131.28,-180.19 137.73,-188.59 141.56,-182.74"/>
</g>
<!-- ast.Attribute object at 0x7f6447cf3af0&#45;&gt;ast.Load object at 0x7f64909edf60 -->
<g id="edge36" class="edge">
<title>ast.Attribute object at 0x7f6447cf3af0&#45;&gt;ast.Load object at 0x7f64909edf60</title>
<path fill="none" stroke="black" d="M223.8,-143.96C238.61,-123.84 265.89,-90.75 297,-72 344.23,-43.54 407.35,-29.82 446.84,-23.62"/>
<polygon fill="black" stroke="black" points="447.45,-27.06 456.83,-22.13 446.42,-20.14 447.45,-27.06"/>
</g>
<!-- ast.Name object at 0x7f6447cf3b80 -->
<g id="node27" class="node">
<title>ast.Name object at 0x7f6447cf3b80</title>
<path fill="#66cdaa" stroke="black" d="M224,-108C224,-108 194,-108 194,-108 188,-108 182,-102 182,-96 182,-96 182,-84 182,-84 182,-78 188,-72 194,-72 194,-72 224,-72 224,-72 230,-72 236,-78 236,-84 236,-84 236,-96 236,-96 236,-102 230,-108 224,-108"/>
<text text-anchor="middle" x="209" y="-86.3" font-family="Times,serif" font-size="14.00">Name</text>
</g>
<!-- ast.Attribute object at 0x7f6447cf3af0&#45;&gt;ast.Name object at 0x7f6447cf3b80 -->
<g id="edge34" class="edge">
<title>ast.Attribute object at 0x7f6447cf3af0&#45;&gt;ast.Name object at 0x7f6447cf3b80</title>
<path fill="none" stroke="black" d="M211.26,-143.7C210.93,-135.98 210.53,-126.71 210.16,-118.11"/>
<polygon fill="black" stroke="black" points="213.66,-117.95 209.73,-108.1 206.66,-118.25 213.66,-117.95"/>
</g>
<!-- ast.Name object at 0x7f6447cf3b80&#45;&gt;ast.Load object at 0x7f64909edf60 -->
<g id="edge35" class="edge">
<title>ast.Name object at 0x7f6447cf3b80&#45;&gt;ast.Load object at 0x7f64909edf60</title>
<path fill="none" stroke="black" d="M236.11,-77C240.69,-75.19 245.45,-73.45 250,-72 318.27,-50.29 400.43,-33.83 447,-25.36"/>
<polygon fill="black" stroke="black" points="447.71,-28.79 456.93,-23.58 446.47,-21.9 447.71,-28.79"/>
</g>
<!-- ast.Subscript object at 0x7f6447cf3cd0&#45;&gt;ast.Load object at 0x7f64909edf60 -->
<g id="edge42" class="edge">
<title>ast.Subscript object at 0x7f6447cf3cd0&#45;&gt;ast.Load object at 0x7f64909edf60</title>
<path fill="none" stroke="black" d="M97.98,-143.98C91.07,-124.18 83.83,-91.71 101,-72 145.66,-20.74 359.41,-17.42 446.73,-18.26"/>
<polygon fill="black" stroke="black" points="446.93,-21.77 456.97,-18.39 447.01,-14.77 446.93,-21.77"/>
</g>
<!-- ast.Name object at 0x7f6447cf3b20 -->
<g id="node29" class="node">
<title>ast.Name object at 0x7f6447cf3b20</title>
<path fill="#66cdaa" stroke="black" d="M152,-108C152,-108 122,-108 122,-108 116,-108 110,-102 110,-96 110,-96 110,-84 110,-84 110,-78 116,-72 122,-72 122,-72 152,-72 152,-72 158,-72 164,-78 164,-84 164,-84 164,-96 164,-96 164,-102 158,-108 152,-108"/>
<text text-anchor="middle" x="137" y="-86.3" font-family="Times,serif" font-size="14.00">Name</text>
</g>
<!-- ast.Subscript object at 0x7f6447cf3cd0&#45;&gt;ast.Name object at 0x7f6447cf3b20 -->
<g id="edge38" class="edge">
<title>ast.Subscript object at 0x7f6447cf3cd0&#45;&gt;ast.Name object at 0x7f6447cf3b20</title>
<path fill="none" stroke="black" d="M112.91,-143.7C116.55,-135.73 120.95,-126.1 124.99,-117.26"/>
<polygon fill="black" stroke="black" points="128.21,-118.65 129.18,-108.1 121.84,-115.74 128.21,-118.65"/>
</g>
<!-- ast.Name object at 0x7f6447cf37f0 -->
<g id="node30" class="node">
<title>ast.Name object at 0x7f6447cf37f0</title>
<path fill="#66cdaa" stroke="black" d="M42,-108C42,-108 12,-108 12,-108 6,-108 0,-102 0,-96 0,-96 0,-84 0,-84 0,-78 6,-72 12,-72 12,-72 42,-72 42,-72 48,-72 54,-78 54,-84 54,-84 54,-96 54,-96 54,-102 48,-108 42,-108"/>
<text text-anchor="middle" x="27" y="-86.3" font-family="Times,serif" font-size="14.00">Name</text>
</g>
<!-- ast.Subscript object at 0x7f6447cf3cd0&#45;&gt;ast.Name object at 0x7f6447cf37f0 -->
<g id="edge40" class="edge">
<title>ast.Subscript object at 0x7f6447cf3cd0&#45;&gt;ast.Name object at 0x7f6447cf37f0</title>
<path fill="none" stroke="black" d="M85.72,-143.7C76.08,-135.05 64.27,-124.45 53.77,-115.03"/>
<polygon fill="black" stroke="black" points="55.84,-112.18 46.06,-108.1 51.16,-117.39 55.84,-112.18"/>
</g>
<!-- ast.Name object at 0x7f6447cf3b20&#45;&gt;ast.Load object at 0x7f64909edf60 -->
<g id="edge39" class="edge">
<title>ast.Name object at 0x7f6447cf3b20&#45;&gt;ast.Load object at 0x7f64909edf60</title>
<path fill="none" stroke="black" d="M164.21,-75.21C167.13,-74.01 170.1,-72.91 173,-72 269.11,-41.75 387.68,-27.6 446.8,-22.04"/>
<polygon fill="black" stroke="black" points="447.15,-25.52 456.79,-21.13 446.52,-18.55 447.15,-25.52"/>
</g>
<!-- ast.Name object at 0x7f6447cf37f0&#45;&gt;ast.Load object at 0x7f64909edf60 -->
<g id="edge41" class="edge">
<title>ast.Name object at 0x7f6447cf37f0&#45;&gt;ast.Load object at 0x7f64909edf60</title>
<path fill="none" stroke="black" d="M54.44,-76.45C58.91,-74.75 63.53,-73.19 68,-72 204.47,-35.71 372.95,-23.99 446.59,-20.44"/>
<polygon fill="black" stroke="black" points="446.93,-23.92 456.75,-19.97 446.6,-16.93 446.93,-23.92"/>
</g>
<!-- ast.Name object at 0x7f6447cf3820 -->
<g id="node32" class="node">
<title>ast.Name object at 0x7f6447cf3820</title>
<path fill="#66cdaa" stroke="black" d="M762,-396C762,-396 732,-396 732,-396 726,-396 720,-390 720,-384 720,-384 720,-372 720,-372 720,-366 726,-360 732,-360 732,-360 762,-360 762,-360 768,-360 774,-366 774,-372 774,-372 774,-384 774,-384 774,-390 768,-396 762,-396"/>
<text text-anchor="middle" x="747" y="-374.3" font-family="Times,serif" font-size="14.00">Name</text>
</g>
<!-- ast.Assign object at 0x7f6447cf39d0&#45;&gt;ast.Name object at 0x7f6447cf3820 -->
<g id="edge44" class="edge">
<title>ast.Assign object at 0x7f6447cf39d0&#45;&gt;ast.Name object at 0x7f6447cf3820</title>
<path fill="none" stroke="black" d="M747,-431.7C747,-423.98 747,-414.71 747,-406.11"/>
<polygon fill="black" stroke="black" points="750.5,-406.1 747,-396.1 743.5,-406.1 750.5,-406.1"/>
</g>
<!-- ast.Call object at 0x7f6447cf34f0 -->
<g id="node33" class="node">
<title>ast.Call object at 0x7f6447cf34f0</title>
<path fill="#66cdaa" stroke="black" d="M817,-180C817,-180 787,-180 787,-180 781,-180 775,-174 775,-168 775,-168 775,-156 775,-156 775,-150 781,-144 787,-144 787,-144 817,-144 817,-144 823,-144 829,-150 829,-156 829,-156 829,-168 829,-168 829,-174 823,-180 817,-180"/>
<text text-anchor="middle" x="802" y="-158.3" font-family="Times,serif" font-size="14.00">Call</text>
</g>
<!-- ast.Assign object at 0x7f6447cf39d0&#45;&gt;ast.Call object at 0x7f6447cf34f0 -->
<g id="edge46" class="edge">
<title>ast.Assign object at 0x7f6447cf39d0&#45;&gt;ast.Call object at 0x7f6447cf34f0</title>
<path fill="none" stroke="black" d="M762.18,-431.63C769.82,-421.85 778.41,-409.01 783,-396 808,-325.1 806.77,-234.82 804.18,-190.32"/>
<polygon fill="black" stroke="black" points="807.67,-190.04 803.52,-180.28 800.68,-190.49 807.67,-190.04"/>
</g>
<!-- ast.Name object at 0x7f6447cf3820&#45;&gt;ast.Store object at 0x7f64909edfc0 -->
<g id="edge45" class="edge">
<title>ast.Name object at 0x7f6447cf3820&#45;&gt;ast.Store object at 0x7f64909edfc0</title>
<path fill="none" stroke="black" d="M719.75,-360.41C704.28,-351 684.73,-339.1 668.01,-328.92"/>
<polygon fill="black" stroke="black" points="669.42,-325.68 659.06,-323.47 665.78,-331.66 669.42,-325.68"/>
</g>
<!-- ast.Name object at 0x7f6447cf3580 -->
<g id="node34" class="node">
<title>ast.Name object at 0x7f6447cf3580</title>
<path fill="#66cdaa" stroke="black" d="M774,-108C774,-108 744,-108 744,-108 738,-108 732,-102 732,-96 732,-96 732,-84 732,-84 732,-78 738,-72 744,-72 744,-72 774,-72 774,-72 780,-72 786,-78 786,-84 786,-84 786,-96 786,-96 786,-102 780,-108 774,-108"/>
<text text-anchor="middle" x="759" y="-86.3" font-family="Times,serif" font-size="14.00">Name</text>
</g>
<!-- ast.Call object at 0x7f6447cf34f0&#45;&gt;ast.Name object at 0x7f6447cf3580 -->
<g id="edge47" class="edge">
<title>ast.Call object at 0x7f6447cf34f0&#45;&gt;ast.Name object at 0x7f6447cf3580</title>
<path fill="none" stroke="black" d="M791.37,-143.7C786.37,-135.56 780.31,-125.69 774.79,-116.7"/>
<polygon fill="black" stroke="black" points="777.72,-114.79 769.51,-108.1 771.76,-118.46 777.72,-114.79"/>
</g>
<!-- ast.Name object at 0x7f6447cf36d0 -->
<g id="node35" class="node">
<title>ast.Name object at 0x7f6447cf36d0</title>
<path fill="#66cdaa" stroke="black" d="M846,-108C846,-108 816,-108 816,-108 810,-108 804,-102 804,-96 804,-96 804,-84 804,-84 804,-78 810,-72 816,-72 816,-72 846,-72 846,-72 852,-72 858,-78 858,-84 858,-84 858,-96 858,-96 858,-102 852,-108 846,-108"/>
<text text-anchor="middle" x="831" y="-86.3" font-family="Times,serif" font-size="14.00">Name</text>
</g>
<!-- ast.Call object at 0x7f6447cf34f0&#45;&gt;ast.Name object at 0x7f6447cf36d0 -->
<g id="edge49" class="edge">
<title>ast.Call object at 0x7f6447cf34f0&#45;&gt;ast.Name object at 0x7f6447cf36d0</title>
<path fill="none" stroke="black" d="M809.17,-143.7C812.43,-135.81 816.37,-126.3 820,-117.55"/>
<polygon fill="black" stroke="black" points="823.32,-118.68 823.91,-108.1 816.85,-116 823.32,-118.68"/>
</g>
<!-- ast.Name object at 0x7f6447cf3580&#45;&gt;ast.Load object at 0x7f64909edf60 -->
<g id="edge48" class="edge">
<title>ast.Name object at 0x7f6447cf3580&#45;&gt;ast.Load object at 0x7f64909edf60</title>
<path fill="none" stroke="black" d="M731.89,-77C727.31,-75.19 722.55,-73.45 718,-72 649.73,-50.29 567.57,-33.83 521,-25.36"/>
<polygon fill="black" stroke="black" points="521.53,-21.9 511.07,-23.58 520.29,-28.79 521.53,-21.9"/>
</g>
<!-- ast.Name object at 0x7f6447cf36d0&#45;&gt;ast.Load object at 0x7f64909edf60 -->
<g id="edge50" class="edge">
<title>ast.Name object at 0x7f6447cf36d0&#45;&gt;ast.Load object at 0x7f64909edf60</title>
<path fill="none" stroke="black" d="M803.79,-75.21C800.87,-74.01 797.9,-72.91 795,-72 698.89,-41.75 580.32,-27.6 521.2,-22.04"/>
<polygon fill="black" stroke="black" points="521.48,-18.55 511.21,-21.13 520.85,-25.52 521.48,-18.55"/>
</g>
<!-- ast.Subscript object at 0x7f6447cf3310 -->
<g id="node37" class="node">
<title>ast.Subscript object at 0x7f6447cf3310</title>
<path fill="#66cdaa" stroke="black" d="M935,-180C935,-180 891,-180 891,-180 885,-180 879,-174 879,-168 879,-168 879,-156 879,-156 879,-150 885,-144 891,-144 891,-144 935,-144 935,-144 941,-144 947,-150 947,-156 947,-156 947,-168 947,-168 947,-174 941,-180 935,-180"/>
<text text-anchor="middle" x="913" y="-158.3" font-family="Times,serif" font-size="14.00">Subscript</text>
</g>
<!-- ast.Return object at 0x7f6447cf3520&#45;&gt;ast.Subscript object at 0x7f6447cf3310 -->
<g id="edge52" class="edge">
<title>ast.Return object at 0x7f6447cf3520&#45;&gt;ast.Subscript object at 0x7f6447cf3310</title>
<path fill="none" stroke="black" d="M878.7,-287.87C885.38,-263.56 897.67,-218.82 905.58,-190.01"/>
<polygon fill="black" stroke="black" points="909.01,-190.76 908.28,-180.19 902.26,-188.91 909.01,-190.76"/>
</g>
<!-- ast.Subscript object at 0x7f6447cf3310&#45;&gt;ast.Load object at 0x7f64909edf60 -->
<g id="edge57" class="edge">
<title>ast.Subscript object at 0x7f6447cf3310&#45;&gt;ast.Load object at 0x7f64909edf60</title>
<path fill="none" stroke="black" d="M909.18,-143.76C903.65,-123.12 891.28,-89.18 867,-72 811.82,-32.97 606.44,-22.55 521.32,-19.88"/>
<polygon fill="black" stroke="black" points="521.18,-16.37 511.08,-19.58 520.97,-23.37 521.18,-16.37"/>
</g>
<!-- ast.Name object at 0x7f6447cf33d0 -->
<g id="node38" class="node">
<title>ast.Name object at 0x7f6447cf33d0</title>
<path fill="#66cdaa" stroke="black" d="M956,-108C956,-108 926,-108 926,-108 920,-108 914,-102 914,-96 914,-96 914,-84 914,-84 914,-78 920,-72 926,-72 926,-72 956,-72 956,-72 962,-72 968,-78 968,-84 968,-84 968,-96 968,-96 968,-102 962,-108 956,-108"/>
<text text-anchor="middle" x="941" y="-86.3" font-family="Times,serif" font-size="14.00">Name</text>
</g>
<!-- ast.Subscript object at 0x7f6447cf3310&#45;&gt;ast.Name object at 0x7f6447cf33d0 -->
<g id="edge53" class="edge">
<title>ast.Subscript object at 0x7f6447cf3310&#45;&gt;ast.Name object at 0x7f6447cf33d0</title>
<path fill="none" stroke="black" d="M919.92,-143.7C923.07,-135.81 926.88,-126.3 930.38,-117.55"/>
<polygon fill="black" stroke="black" points="933.69,-118.69 934.16,-108.1 927.19,-116.09 933.69,-118.69"/>
</g>
<!-- ast.Slice object at 0x7f6447cf3d60 -->
<g id="node39" class="node">
<title>ast.Slice object at 0x7f6447cf3d60</title>
<path fill="#66cdaa" stroke="black" d="M1028,-108C1028,-108 998,-108 998,-108 992,-108 986,-102 986,-96 986,-96 986,-84 986,-84 986,-78 992,-72 998,-72 998,-72 1028,-72 1028,-72 1034,-72 1040,-78 1040,-84 1040,-84 1040,-96 1040,-96 1040,-102 1034,-108 1028,-108"/>
<text text-anchor="middle" x="1013" y="-86.3" font-family="Times,serif" font-size="14.00">Slice</text>
</g>
<!-- ast.Subscript object at 0x7f6447cf3310&#45;&gt;ast.Slice object at 0x7f6447cf3d60 -->
<g id="edge55" class="edge">
<title>ast.Subscript object at 0x7f6447cf3310&#45;&gt;ast.Slice object at 0x7f6447cf3d60</title>
<path fill="none" stroke="black" d="M937.46,-143.88C950.3,-134.89 966.2,-123.76 980.09,-114.03"/>
<polygon fill="black" stroke="black" points="982.26,-116.79 988.44,-108.19 978.24,-111.06 982.26,-116.79"/>
</g>
<!-- ast.Name object at 0x7f6447cf33d0&#45;&gt;ast.Load object at 0x7f64909edf60 -->
<g id="edge54" class="edge">
<title>ast.Name object at 0x7f6447cf33d0&#45;&gt;ast.Load object at 0x7f64909edf60</title>
<path fill="none" stroke="black" d="M913.56,-76.45C909.09,-74.75 904.47,-73.19 900,-72 763.53,-35.71 595.05,-23.99 521.41,-20.44"/>
<polygon fill="black" stroke="black" points="521.4,-16.93 511.25,-19.97 521.07,-23.92 521.4,-16.93"/>
</g>
<!-- ast.Constant object at 0x7f6447cf3d30 -->
<g id="node40" class="node">
<title>ast.Constant object at 0x7f6447cf3d30</title>
<path fill="#66cdaa" stroke="black" d="M1033.5,-36C1033.5,-36 992.5,-36 992.5,-36 986.5,-36 980.5,-30 980.5,-24 980.5,-24 980.5,-12 980.5,-12 980.5,-6 986.5,0 992.5,0 992.5,0 1033.5,0 1033.5,0 1039.5,0 1045.5,-6 1045.5,-12 1045.5,-12 1045.5,-24 1045.5,-24 1045.5,-30 1039.5,-36 1033.5,-36"/>
<text text-anchor="middle" x="1013" y="-14.3" font-family="Times,serif" font-size="14.00">Constant</text>
</g>
<!-- ast.Slice object at 0x7f6447cf3d60&#45;&gt;ast.Constant object at 0x7f6447cf3d30 -->
<g id="edge56" class="edge">
<title>ast.Slice object at 0x7f6447cf3d60&#45;&gt;ast.Constant object at 0x7f6447cf3d30</title>
<path fill="none" stroke="black" d="M1013,-71.7C1013,-63.98 1013,-54.71 1013,-46.11"/>
<polygon fill="black" stroke="black" points="1016.5,-46.1 1013,-36.1 1009.5,-46.1 1016.5,-46.1"/>
</g>
</g>
</svg>
