<?xml version="1.0" encoding="UTF-8" standalone="no"?>
<!DOCTYPE svg PUBLIC "-//W3C//DTD SVG 1.1//EN"
 "http://www.w3.org/Graphics/SVG/1.1/DTD/svg11.dtd">
<!-- Generated by graphviz version 2.43.0 (0)
 -->
<!-- Title: %3 Pages: 1 -->
<svg width="1716pt" height="692pt"
 viewBox="0.00 0.00 1716.00 692.00" xmlns="http://www.w3.org/2000/svg" xmlns:xlink="http://www.w3.org/1999/xlink">
<g id="graph0" class="graph" transform="scale(1 1) rotate(0) translate(4 688)">
<title>%3</title>
<polygon fill="white" stroke="transparent" points="-4,4 -4,-688 1712,-688 1712,4 -4,4"/>
<!-- ast.Module object at 0x7ff6766241f0 -->
<g id="node1" class="node">
<title>ast.Module object at 0x7ff6766241f0</title>
<path fill="#66cdaa" stroke="black" d="M843,-684C843,-684 808,-684 808,-684 802,-684 796,-678 796,-672 796,-672 796,-660 796,-660 796,-654 802,-648 808,-648 808,-648 843,-648 843,-648 849,-648 855,-654 855,-660 855,-660 855,-672 855,-672 855,-678 849,-684 843,-684"/>
<text text-anchor="middle" x="825.5" y="-662.3" font-family="Times,serif" font-size="14.00">Module</text>
</g>
<!-- ast.FunctionDef object at 0x7ff6766250c0 -->
<g id="node2" class="node">
<title>ast.FunctionDef object at 0x7ff6766250c0</title>
<path fill="#66cdaa" stroke="black" d="M856,-612C856,-612 795,-612 795,-612 789,-612 783,-606 783,-600 783,-600 783,-588 783,-588 783,-582 789,-576 795,-576 795,-576 856,-576 856,-576 862,-576 868,-582 868,-588 868,-588 868,-600 868,-600 868,-606 862,-612 856,-612"/>
<text text-anchor="middle" x="825.5" y="-590.3" font-family="Times,serif" font-size="14.00">FunctionDef</text>
</g>
<!-- ast.Module object at 0x7ff6766241f0&#45;&gt;ast.FunctionDef object at 0x7ff6766250c0 -->
<g id="edge1" class="edge">
<title>ast.Module object at 0x7ff6766241f0&#45;&gt;ast.FunctionDef object at 0x7ff6766250c0</title>
<path fill="none" stroke="black" d="M825.5,-647.7C825.5,-639.98 825.5,-630.71 825.5,-622.11"/>
<polygon fill="black" stroke="black" points="829,-622.1 825.5,-612.1 822,-622.1 829,-622.1"/>
</g>
<!-- ast.arguments object at 0x7ff676625180 -->
<g id="node3" class="node">
<title>ast.arguments object at 0x7ff676625180</title>
<path fill="#66cdaa" stroke="black" d="M622.5,-540C622.5,-540 572.5,-540 572.5,-540 566.5,-540 560.5,-534 560.5,-528 560.5,-528 560.5,-516 560.5,-516 560.5,-510 566.5,-504 572.5,-504 572.5,-504 622.5,-504 622.5,-504 628.5,-504 634.5,-510 634.5,-516 634.5,-516 634.5,-528 634.5,-528 634.5,-534 628.5,-540 622.5,-540"/>
<text text-anchor="middle" x="597.5" y="-518.3" font-family="Times,serif" font-size="14.00">arguments</text>
</g>
<!-- ast.FunctionDef object at 0x7ff6766250c0&#45;&gt;ast.arguments object at 0x7ff676625180 -->
<g id="edge2" class="edge">
<title>ast.FunctionDef object at 0x7ff6766250c0&#45;&gt;ast.arguments object at 0x7ff676625180</title>
<path fill="none" stroke="black" d="M782.88,-579.92C743.47,-567.82 685.01,-549.87 644.31,-537.37"/>
<polygon fill="black" stroke="black" points="645.22,-533.99 634.63,-534.4 643.16,-540.68 645.22,-533.99"/>
</g>
<!-- ast.Assign object at 0x7ff676624160 -->
<g id="node5" class="node">
<title>ast.Assign object at 0x7ff676624160</title>
<path fill="#66cdaa" stroke="black" d="M940.5,-324C940.5,-324 910.5,-324 910.5,-324 904.5,-324 898.5,-318 898.5,-312 898.5,-312 898.5,-300 898.5,-300 898.5,-294 904.5,-288 910.5,-288 910.5,-288 940.5,-288 940.5,-288 946.5,-288 952.5,-294 952.5,-300 952.5,-300 952.5,-312 952.5,-312 952.5,-318 946.5,-324 940.5,-324"/>
<text text-anchor="middle" x="925.5" y="-302.3" font-family="Times,serif" font-size="14.00">Assign</text>
</g>
<!-- ast.FunctionDef object at 0x7ff6766250c0&#45;&gt;ast.Assign object at 0x7ff676624160 -->
<g id="edge4" class="edge">
<title>ast.FunctionDef object at 0x7ff6766250c0&#45;&gt;ast.Assign object at 0x7ff676624160</title>
<path fill="none" stroke="black" d="M834.41,-575.58C839.47,-565.36 845.72,-552.11 850.5,-540 879.34,-466.97 905.62,-377.99 918.01,-334.12"/>
<polygon fill="black" stroke="black" points="921.45,-334.8 920.78,-324.22 914.71,-332.91 921.45,-334.8"/>
</g>
<!-- ast.Assign object at 0x7ff6766251e0 -->
<g id="node12" class="node">
<title>ast.Assign object at 0x7ff6766251e0</title>
<path fill="#66cdaa" stroke="black" d="M868.5,-324C868.5,-324 838.5,-324 838.5,-324 832.5,-324 826.5,-318 826.5,-312 826.5,-312 826.5,-300 826.5,-300 826.5,-294 832.5,-288 838.5,-288 838.5,-288 868.5,-288 868.5,-288 874.5,-288 880.5,-294 880.5,-300 880.5,-300 880.5,-312 880.5,-312 880.5,-318 874.5,-324 868.5,-324"/>
<text text-anchor="middle" x="853.5" y="-302.3" font-family="Times,serif" font-size="14.00">Assign</text>
</g>
<!-- ast.FunctionDef object at 0x7ff6766250c0&#45;&gt;ast.Assign object at 0x7ff6766251e0 -->
<g id="edge12" class="edge">
<title>ast.FunctionDef object at 0x7ff6766250c0&#45;&gt;ast.Assign object at 0x7ff6766251e0</title>
<path fill="none" stroke="black" d="M828.8,-575.87C830.69,-565.52 832.99,-552.04 834.5,-540 843.81,-465.75 849.57,-377.59 852.06,-334.08"/>
<polygon fill="black" stroke="black" points="855.56,-334.19 852.62,-324.01 848.57,-333.8 855.56,-334.19"/>
</g>
<!-- ast.Assign object at 0x7ff6766247c0 -->
<g id="node17" class="node">
<title>ast.Assign object at 0x7ff6766247c0</title>
<path fill="#66cdaa" stroke="black" d="M813.5,-540C813.5,-540 783.5,-540 783.5,-540 777.5,-540 771.5,-534 771.5,-528 771.5,-528 771.5,-516 771.5,-516 771.5,-510 777.5,-504 783.5,-504 783.5,-504 813.5,-504 813.5,-504 819.5,-504 825.5,-510 825.5,-516 825.5,-516 825.5,-528 825.5,-528 825.5,-534 819.5,-540 813.5,-540"/>
<text text-anchor="middle" x="798.5" y="-518.3" font-family="Times,serif" font-size="14.00">Assign</text>
</g>
<!-- ast.FunctionDef object at 0x7ff6766250c0&#45;&gt;ast.Assign object at 0x7ff6766247c0 -->
<g id="edge20" class="edge">
<title>ast.FunctionDef object at 0x7ff6766250c0&#45;&gt;ast.Assign object at 0x7ff6766247c0</title>
<path fill="none" stroke="black" d="M818.83,-575.7C815.79,-567.81 812.12,-558.3 808.74,-549.55"/>
<polygon fill="black" stroke="black" points="811.96,-548.17 805.1,-540.1 805.43,-550.69 811.96,-548.17"/>
</g>
<!-- ast.For object at 0x7ff676624760 -->
<g id="node20" class="node">
<title>ast.For object at 0x7ff676624760</title>
<path fill="#66cdaa" stroke="black" d="M657.5,-468C657.5,-468 627.5,-468 627.5,-468 621.5,-468 615.5,-462 615.5,-456 615.5,-456 615.5,-444 615.5,-444 615.5,-438 621.5,-432 627.5,-432 627.5,-432 657.5,-432 657.5,-432 663.5,-432 669.5,-438 669.5,-444 669.5,-444 669.5,-456 669.5,-456 669.5,-462 663.5,-468 657.5,-468"/>
<text text-anchor="middle" x="642.5" y="-446.3" font-family="Times,serif" font-size="14.00">For</text>
</g>
<!-- ast.FunctionDef object at 0x7ff6766250c0&#45;&gt;ast.For object at 0x7ff676624760 -->
<g id="edge24" class="edge">
<title>ast.FunctionDef object at 0x7ff6766250c0&#45;&gt;ast.For object at 0x7ff676624760</title>
<path fill="none" stroke="black" d="M803.43,-575.87C770.86,-550.6 709.84,-503.25 673.02,-474.68"/>
<polygon fill="black" stroke="black" points="674.7,-471.55 664.65,-468.19 670.41,-477.08 674.7,-471.55"/>
</g>
<!-- ast.If object at 0x7ff676624880 -->
<g id="node48" class="node">
<title>ast.If object at 0x7ff676624880</title>
<path fill="#66cdaa" stroke="black" d="M1296.5,-540C1296.5,-540 1266.5,-540 1266.5,-540 1260.5,-540 1254.5,-534 1254.5,-528 1254.5,-528 1254.5,-516 1254.5,-516 1254.5,-510 1260.5,-504 1266.5,-504 1266.5,-504 1296.5,-504 1296.5,-504 1302.5,-504 1308.5,-510 1308.5,-516 1308.5,-516 1308.5,-528 1308.5,-528 1308.5,-534 1302.5,-540 1296.5,-540"/>
<text text-anchor="middle" x="1281.5" y="-518.3" font-family="Times,serif" font-size="14.00">If</text>
</g>
<!-- ast.FunctionDef object at 0x7ff6766250c0&#45;&gt;ast.If object at 0x7ff676624880 -->
<g id="edge63" class="edge">
<title>ast.FunctionDef object at 0x7ff6766250c0&#45;&gt;ast.If object at 0x7ff676624880</title>
<path fill="none" stroke="black" d="M868.4,-586.41C957.38,-572.76 1160.69,-541.55 1244.42,-528.69"/>
<polygon fill="black" stroke="black" points="1245.13,-532.12 1254.49,-527.15 1244.07,-525.2 1245.13,-532.12"/>
</g>
<!-- ast.arg object at 0x7ff676626110 -->
<g id="node4" class="node">
<title>ast.arg object at 0x7ff676626110</title>
<path fill="#66cdaa" stroke="black" d="M585.5,-468C585.5,-468 555.5,-468 555.5,-468 549.5,-468 543.5,-462 543.5,-456 543.5,-456 543.5,-444 543.5,-444 543.5,-438 549.5,-432 555.5,-432 555.5,-432 585.5,-432 585.5,-432 591.5,-432 597.5,-438 597.5,-444 597.5,-444 597.5,-456 597.5,-456 597.5,-462 591.5,-468 585.5,-468"/>
<text text-anchor="middle" x="570.5" y="-446.3" font-family="Times,serif" font-size="14.00">arg</text>
</g>
<!-- ast.arguments object at 0x7ff676625180&#45;&gt;ast.arg object at 0x7ff676626110 -->
<g id="edge3" class="edge">
<title>ast.arguments object at 0x7ff676625180&#45;&gt;ast.arg object at 0x7ff676626110</title>
<path fill="none" stroke="black" d="M590.83,-503.7C587.79,-495.81 584.12,-486.3 580.74,-477.55"/>
<polygon fill="black" stroke="black" points="583.96,-476.17 577.1,-468.1 577.43,-478.69 583.96,-476.17"/>
</g>
<!-- ast.Name object at 0x7ff6766264a0 -->
<g id="node6" class="node">
<title>ast.Name object at 0x7ff6766264a0</title>
<path fill="#66cdaa" stroke="black" d="M940.5,-252C940.5,-252 910.5,-252 910.5,-252 904.5,-252 898.5,-246 898.5,-240 898.5,-240 898.5,-228 898.5,-228 898.5,-222 904.5,-216 910.5,-216 910.5,-216 940.5,-216 940.5,-216 946.5,-216 952.5,-222 952.5,-228 952.5,-228 952.5,-240 952.5,-240 952.5,-246 946.5,-252 940.5,-252"/>
<text text-anchor="middle" x="925.5" y="-230.3" font-family="Times,serif" font-size="14.00">Name</text>
</g>
<!-- ast.Assign object at 0x7ff676624160&#45;&gt;ast.Name object at 0x7ff6766264a0 -->
<g id="edge5" class="edge">
<title>ast.Assign object at 0x7ff676624160&#45;&gt;ast.Name object at 0x7ff6766264a0</title>
<path fill="none" stroke="black" d="M925.5,-287.7C925.5,-279.98 925.5,-270.71 925.5,-262.11"/>
<polygon fill="black" stroke="black" points="929,-262.1 925.5,-252.1 922,-262.1 929,-262.1"/>
</g>
<!-- ast.Subscript object at 0x7ff6766262c0 -->
<g id="node8" class="node">
<title>ast.Subscript object at 0x7ff6766262c0</title>
<path fill="#66cdaa" stroke="black" d="M1005.5,-180C1005.5,-180 961.5,-180 961.5,-180 955.5,-180 949.5,-174 949.5,-168 949.5,-168 949.5,-156 949.5,-156 949.5,-150 955.5,-144 961.5,-144 961.5,-144 1005.5,-144 1005.5,-144 1011.5,-144 1017.5,-150 1017.5,-156 1017.5,-156 1017.5,-168 1017.5,-168 1017.5,-174 1011.5,-180 1005.5,-180"/>
<text text-anchor="middle" x="983.5" y="-158.3" font-family="Times,serif" font-size="14.00">Subscript</text>
</g>
<!-- ast.Assign object at 0x7ff676624160&#45;&gt;ast.Subscript object at 0x7ff6766262c0 -->
<g id="edge7" class="edge">
<title>ast.Assign object at 0x7ff676624160&#45;&gt;ast.Subscript object at 0x7ff6766262c0</title>
<path fill="none" stroke="black" d="M949.36,-287.85C960.28,-278.58 972.18,-266.13 978.5,-252 987.17,-232.63 987.98,-208.49 986.87,-190.23"/>
<polygon fill="black" stroke="black" points="990.36,-189.92 986.04,-180.25 983.39,-190.5 990.36,-189.92"/>
</g>
<!-- ast.Store object at 0x7ff6b61edfc0 -->
<g id="node7" class="node">
<title>ast.Store object at 0x7ff6b61edfc0</title>
<path fill="#66cdaa" stroke="black" d="M775.5,-180C775.5,-180 745.5,-180 745.5,-180 739.5,-180 733.5,-174 733.5,-168 733.5,-168 733.5,-156 733.5,-156 733.5,-150 739.5,-144 745.5,-144 745.5,-144 775.5,-144 775.5,-144 781.5,-144 787.5,-150 787.5,-156 787.5,-156 787.5,-168 787.5,-168 787.5,-174 781.5,-180 775.5,-180"/>
<text text-anchor="middle" x="760.5" y="-158.3" font-family="Times,serif" font-size="14.00">Store</text>
</g>
<!-- ast.Name object at 0x7ff6766264a0&#45;&gt;ast.Store object at 0x7ff6b61edfc0 -->
<g id="edge6" class="edge">
<title>ast.Name object at 0x7ff6766264a0&#45;&gt;ast.Store object at 0x7ff6b61edfc0</title>
<path fill="none" stroke="black" d="M898.47,-219.98C895.46,-218.61 892.42,-217.25 889.5,-216 851.47,-199.69 838.89,-197.69 796.95,-180.04"/>
<polygon fill="black" stroke="black" points="798.1,-176.72 787.53,-176.02 795.36,-183.16 798.1,-176.72"/>
</g>
<!-- ast.Name object at 0x7ff676625f30 -->
<g id="node9" class="node">
<title>ast.Name object at 0x7ff676625f30</title>
<path fill="#66cdaa" stroke="black" d="M982.5,-108C982.5,-108 952.5,-108 952.5,-108 946.5,-108 940.5,-102 940.5,-96 940.5,-96 940.5,-84 940.5,-84 940.5,-78 946.5,-72 952.5,-72 952.5,-72 982.5,-72 982.5,-72 988.5,-72 994.5,-78 994.5,-84 994.5,-84 994.5,-96 994.5,-96 994.5,-102 988.5,-108 982.5,-108"/>
<text text-anchor="middle" x="967.5" y="-86.3" font-family="Times,serif" font-size="14.00">Name</text>
</g>
<!-- ast.Subscript object at 0x7ff6766262c0&#45;&gt;ast.Name object at 0x7ff676625f30 -->
<g id="edge8" class="edge">
<title>ast.Subscript object at 0x7ff6766262c0&#45;&gt;ast.Name object at 0x7ff676625f30</title>
<path fill="none" stroke="black" d="M979.54,-143.7C977.78,-135.98 975.66,-126.71 973.7,-118.11"/>
<polygon fill="black" stroke="black" points="977.05,-117.07 971.41,-108.1 970.23,-118.63 977.05,-117.07"/>
</g>
<!-- ast.Load object at 0x7ff6b61edf60 -->
<g id="node10" class="node">
<title>ast.Load object at 0x7ff6b61edf60</title>
<path fill="#66cdaa" stroke="black" d="M982.5,-36C982.5,-36 952.5,-36 952.5,-36 946.5,-36 940.5,-30 940.5,-24 940.5,-24 940.5,-12 940.5,-12 940.5,-6 946.5,0 952.5,0 952.5,0 982.5,0 982.5,0 988.5,0 994.5,-6 994.5,-12 994.5,-12 994.5,-24 994.5,-24 994.5,-30 988.5,-36 982.5,-36"/>
<text text-anchor="middle" x="967.5" y="-14.3" font-family="Times,serif" font-size="14.00">Load</text>
</g>
<!-- ast.Subscript object at 0x7ff6766262c0&#45;&gt;ast.Load object at 0x7ff6b61edf60 -->
<g id="edge11" class="edge">
<title>ast.Subscript object at 0x7ff6766262c0&#45;&gt;ast.Load object at 0x7ff6b61edf60</title>
<path fill="none" stroke="black" d="M992.66,-143.73C1001.03,-125.65 1011.04,-96.52 1003.5,-72 1000.49,-62.22 994.99,-52.62 989.18,-44.33"/>
<polygon fill="black" stroke="black" points="991.91,-42.13 983.11,-36.23 986.31,-46.33 991.91,-42.13"/>
</g>
<!-- ast.Constant object at 0x7ff676626ef0 -->
<g id="node11" class="node">
<title>ast.Constant object at 0x7ff676626ef0</title>
<path fill="#66cdaa" stroke="black" d="M910,-108C910,-108 869,-108 869,-108 863,-108 857,-102 857,-96 857,-96 857,-84 857,-84 857,-78 863,-72 869,-72 869,-72 910,-72 910,-72 916,-72 922,-78 922,-84 922,-84 922,-96 922,-96 922,-102 916,-108 910,-108"/>
<text text-anchor="middle" x="889.5" y="-86.3" font-family="Times,serif" font-size="14.00">Constant</text>
</g>
<!-- ast.Subscript object at 0x7ff6766262c0&#45;&gt;ast.Constant object at 0x7ff676626ef0 -->
<g id="edge10" class="edge">
<title>ast.Subscript object at 0x7ff6766262c0&#45;&gt;ast.Constant object at 0x7ff676626ef0</title>
<path fill="none" stroke="black" d="M960.26,-143.7C948.31,-134.8 933.58,-123.82 920.65,-114.2"/>
<polygon fill="black" stroke="black" points="922.58,-111.27 912.47,-108.1 918.4,-116.88 922.58,-111.27"/>
</g>
<!-- ast.Name object at 0x7ff676625f30&#45;&gt;ast.Load object at 0x7ff6b61edf60 -->
<g id="edge9" class="edge">
<title>ast.Name object at 0x7ff676625f30&#45;&gt;ast.Load object at 0x7ff6b61edf60</title>
<path fill="none" stroke="black" d="M967.5,-71.7C967.5,-63.98 967.5,-54.71 967.5,-46.11"/>
<polygon fill="black" stroke="black" points="971,-46.1 967.5,-36.1 964,-46.1 971,-46.1"/>
</g>
<!-- ast.Name object at 0x7ff676625960 -->
<g id="node13" class="node">
<title>ast.Name object at 0x7ff676625960</title>
<path fill="#66cdaa" stroke="black" d="M868.5,-252C868.5,-252 838.5,-252 838.5,-252 832.5,-252 826.5,-246 826.5,-240 826.5,-240 826.5,-228 826.5,-228 826.5,-222 832.5,-216 838.5,-216 838.5,-216 868.5,-216 868.5,-216 874.5,-216 880.5,-222 880.5,-228 880.5,-228 880.5,-240 880.5,-240 880.5,-246 874.5,-252 868.5,-252"/>
<text text-anchor="middle" x="853.5" y="-230.3" font-family="Times,serif" font-size="14.00">Name</text>
</g>
<!-- ast.Assign object at 0x7ff6766251e0&#45;&gt;ast.Name object at 0x7ff676625960 -->
<g id="edge13" class="edge">
<title>ast.Assign object at 0x7ff6766251e0&#45;&gt;ast.Name object at 0x7ff676625960</title>
<path fill="none" stroke="black" d="M853.5,-287.7C853.5,-279.98 853.5,-270.71 853.5,-262.11"/>
<polygon fill="black" stroke="black" points="857,-262.1 853.5,-252.1 850,-262.1 857,-262.1"/>
</g>
<!-- ast.Subscript object at 0x7ff676626e60 -->
<g id="node14" class="node">
<title>ast.Subscript object at 0x7ff676626e60</title>
<path fill="#66cdaa" stroke="black" d="M861.5,-180C861.5,-180 817.5,-180 817.5,-180 811.5,-180 805.5,-174 805.5,-168 805.5,-168 805.5,-156 805.5,-156 805.5,-150 811.5,-144 817.5,-144 817.5,-144 861.5,-144 861.5,-144 867.5,-144 873.5,-150 873.5,-156 873.5,-156 873.5,-168 873.5,-168 873.5,-174 867.5,-180 861.5,-180"/>
<text text-anchor="middle" x="839.5" y="-158.3" font-family="Times,serif" font-size="14.00">Subscript</text>
</g>
<!-- ast.Assign object at 0x7ff6766251e0&#45;&gt;ast.Subscript object at 0x7ff676626e60 -->
<g id="edge15" class="edge">
<title>ast.Assign object at 0x7ff6766251e0&#45;&gt;ast.Subscript object at 0x7ff676626e60</title>
<path fill="none" stroke="black" d="M880.65,-292.11C912.25,-277.04 960.32,-253.9 961.5,-252 969.96,-238.42 970.27,-229.38 961.5,-216 944.3,-189.77 911.01,-176.46 883.54,-169.73"/>
<polygon fill="black" stroke="black" points="884.25,-166.31 873.73,-167.54 882.73,-173.14 884.25,-166.31"/>
</g>
<!-- ast.Name object at 0x7ff676625960&#45;&gt;ast.Store object at 0x7ff6b61edfc0 -->
<g id="edge14" class="edge">
<title>ast.Name object at 0x7ff676625960&#45;&gt;ast.Store object at 0x7ff6b61edfc0</title>
<path fill="none" stroke="black" d="M830.51,-215.7C818.69,-206.8 804.11,-195.82 791.32,-186.2"/>
<polygon fill="black" stroke="black" points="793.32,-183.32 783.22,-180.1 789.11,-188.91 793.32,-183.32"/>
</g>
<!-- ast.Subscript object at 0x7ff676626e60&#45;&gt;ast.Load object at 0x7ff6b61edf60 -->
<g id="edge19" class="edge">
<title>ast.Subscript object at 0x7ff676626e60&#45;&gt;ast.Load object at 0x7ff6b61edf60</title>
<path fill="none" stroke="black" d="M805.22,-145.64C790.13,-136.93 773.95,-124.45 765.5,-108 758.19,-93.77 755.73,-84.67 765.5,-72 785.48,-46.1 877.68,-30.38 930.34,-23.35"/>
<polygon fill="black" stroke="black" points="930.85,-26.82 940.31,-22.07 929.95,-19.88 930.85,-26.82"/>
</g>
<!-- ast.Name object at 0x7ff6766245b0 -->
<g id="node15" class="node">
<title>ast.Name object at 0x7ff6766245b0</title>
<path fill="#66cdaa" stroke="black" d="M705.5,-108C705.5,-108 675.5,-108 675.5,-108 669.5,-108 663.5,-102 663.5,-96 663.5,-96 663.5,-84 663.5,-84 663.5,-78 669.5,-72 675.5,-72 675.5,-72 705.5,-72 705.5,-72 711.5,-72 717.5,-78 717.5,-84 717.5,-84 717.5,-96 717.5,-96 717.5,-102 711.5,-108 705.5,-108"/>
<text text-anchor="middle" x="690.5" y="-86.3" font-family="Times,serif" font-size="14.00">Name</text>
</g>
<!-- ast.Subscript object at 0x7ff676626e60&#45;&gt;ast.Name object at 0x7ff6766245b0 -->
<g id="edge16" class="edge">
<title>ast.Subscript object at 0x7ff676626e60&#45;&gt;ast.Name object at 0x7ff6766245b0</title>
<path fill="none" stroke="black" d="M805.32,-144.94C781.8,-133.89 750.62,-119.25 726.69,-108"/>
<polygon fill="black" stroke="black" points="728.12,-104.8 717.58,-103.72 725.14,-111.14 728.12,-104.8"/>
</g>
<!-- ast.Constant object at 0x7ff6766269b0 -->
<g id="node16" class="node">
<title>ast.Constant object at 0x7ff6766269b0</title>
<path fill="#66cdaa" stroke="black" d="M827,-108C827,-108 786,-108 786,-108 780,-108 774,-102 774,-96 774,-96 774,-84 774,-84 774,-78 780,-72 786,-72 786,-72 827,-72 827,-72 833,-72 839,-78 839,-84 839,-84 839,-96 839,-96 839,-102 833,-108 827,-108"/>
<text text-anchor="middle" x="806.5" y="-86.3" font-family="Times,serif" font-size="14.00">Constant</text>
</g>
<!-- ast.Subscript object at 0x7ff676626e60&#45;&gt;ast.Constant object at 0x7ff6766269b0 -->
<g id="edge18" class="edge">
<title>ast.Subscript object at 0x7ff676626e60&#45;&gt;ast.Constant object at 0x7ff6766269b0</title>
<path fill="none" stroke="black" d="M831.34,-143.7C827.59,-135.73 823.05,-126.1 818.88,-117.26"/>
<polygon fill="black" stroke="black" points="821.99,-115.66 814.56,-108.1 815.66,-118.64 821.99,-115.66"/>
</g>
<!-- ast.Name object at 0x7ff6766245b0&#45;&gt;ast.Load object at 0x7ff6b61edf60 -->
<g id="edge17" class="edge">
<title>ast.Name object at 0x7ff6766245b0&#45;&gt;ast.Load object at 0x7ff6b61edf60</title>
<path fill="none" stroke="black" d="M717.6,-77C722.19,-75.19 726.95,-73.44 731.5,-72 800.35,-50.17 883.21,-33.75 930.18,-25.33"/>
<polygon fill="black" stroke="black" points="930.96,-28.74 940.2,-23.55 929.74,-21.85 930.96,-28.74"/>
</g>
<!-- ast.Name object at 0x7ff676626290 -->
<g id="node18" class="node">
<title>ast.Name object at 0x7ff676626290</title>
<path fill="#66cdaa" stroke="black" d="M813.5,-468C813.5,-468 783.5,-468 783.5,-468 777.5,-468 771.5,-462 771.5,-456 771.5,-456 771.5,-444 771.5,-444 771.5,-438 777.5,-432 783.5,-432 783.5,-432 813.5,-432 813.5,-432 819.5,-432 825.5,-438 825.5,-444 825.5,-444 825.5,-456 825.5,-456 825.5,-462 819.5,-468 813.5,-468"/>
<text text-anchor="middle" x="798.5" y="-446.3" font-family="Times,serif" font-size="14.00">Name</text>
</g>
<!-- ast.Assign object at 0x7ff6766247c0&#45;&gt;ast.Name object at 0x7ff676626290 -->
<g id="edge21" class="edge">
<title>ast.Assign object at 0x7ff6766247c0&#45;&gt;ast.Name object at 0x7ff676626290</title>
<path fill="none" stroke="black" d="M798.5,-503.7C798.5,-495.98 798.5,-486.71 798.5,-478.11"/>
<polygon fill="black" stroke="black" points="802,-478.1 798.5,-468.1 795,-478.1 802,-478.1"/>
</g>
<!-- ast.Constant object at 0x7ff6766263e0 -->
<g id="node19" class="node">
<title>ast.Constant object at 0x7ff6766263e0</title>
<path fill="#66cdaa" stroke="black" d="M741,-468C741,-468 700,-468 700,-468 694,-468 688,-462 688,-456 688,-456 688,-444 688,-444 688,-438 694,-432 700,-432 700,-432 741,-432 741,-432 747,-432 753,-438 753,-444 753,-444 753,-456 753,-456 753,-462 747,-468 741,-468"/>
<text text-anchor="middle" x="720.5" y="-446.3" font-family="Times,serif" font-size="14.00">Constant</text>
</g>
<!-- ast.Assign object at 0x7ff6766247c0&#45;&gt;ast.Constant object at 0x7ff6766263e0 -->
<g id="edge23" class="edge">
<title>ast.Assign object at 0x7ff6766247c0&#45;&gt;ast.Constant object at 0x7ff6766263e0</title>
<path fill="none" stroke="black" d="M779.22,-503.7C769.58,-495.05 757.77,-484.45 747.27,-475.03"/>
<polygon fill="black" stroke="black" points="749.34,-472.18 739.56,-468.1 744.66,-477.39 749.34,-472.18"/>
</g>
<!-- ast.Name object at 0x7ff676626290&#45;&gt;ast.Store object at 0x7ff6b61edfc0 -->
<g id="edge22" class="edge">
<title>ast.Name object at 0x7ff676626290&#45;&gt;ast.Store object at 0x7ff6b61edfc0</title>
<path fill="none" stroke="black" d="M796.24,-431.97C789.89,-384.19 771.88,-248.62 764.12,-190.27"/>
<polygon fill="black" stroke="black" points="767.59,-189.76 762.8,-180.31 760.65,-190.68 767.59,-189.76"/>
</g>
<!-- ast.Name object at 0x7ff6766257e0 -->
<g id="node21" class="node">
<title>ast.Name object at 0x7ff6766257e0</title>
<path fill="#66cdaa" stroke="black" d="M744.5,-396C744.5,-396 714.5,-396 714.5,-396 708.5,-396 702.5,-390 702.5,-384 702.5,-384 702.5,-372 702.5,-372 702.5,-366 708.5,-360 714.5,-360 714.5,-360 744.5,-360 744.5,-360 750.5,-360 756.5,-366 756.5,-372 756.5,-372 756.5,-384 756.5,-384 756.5,-390 750.5,-396 744.5,-396"/>
<text text-anchor="middle" x="729.5" y="-374.3" font-family="Times,serif" font-size="14.00">Name</text>
</g>
<!-- ast.For object at 0x7ff676624760&#45;&gt;ast.Name object at 0x7ff6766257e0 -->
<g id="edge25" class="edge">
<title>ast.For object at 0x7ff676624760&#45;&gt;ast.Name object at 0x7ff6766257e0</title>
<path fill="none" stroke="black" d="M664.01,-431.7C674.96,-422.88 688.45,-412.03 700.32,-402.47"/>
<polygon fill="black" stroke="black" points="702.64,-405.1 708.24,-396.1 698.26,-399.65 702.64,-405.1"/>
</g>
<!-- ast.Call object at 0x7ff6766272b0 -->
<g id="node22" class="node">
<title>ast.Call object at 0x7ff6766272b0</title>
<path fill="#66cdaa" stroke="black" d="M363.5,-324C363.5,-324 333.5,-324 333.5,-324 327.5,-324 321.5,-318 321.5,-312 321.5,-312 321.5,-300 321.5,-300 321.5,-294 327.5,-288 333.5,-288 333.5,-288 363.5,-288 363.5,-288 369.5,-288 375.5,-294 375.5,-300 375.5,-300 375.5,-312 375.5,-312 375.5,-318 369.5,-324 363.5,-324"/>
<text text-anchor="middle" x="348.5" y="-302.3" font-family="Times,serif" font-size="14.00">Call</text>
</g>
<!-- ast.For object at 0x7ff676624760&#45;&gt;ast.Call object at 0x7ff6766272b0 -->
<g id="edge27" class="edge">
<title>ast.For object at 0x7ff676624760&#45;&gt;ast.Call object at 0x7ff6766272b0</title>
<path fill="none" stroke="black" d="M615.37,-435.9C562.2,-410.22 444.32,-353.28 384.63,-324.45"/>
<polygon fill="black" stroke="black" points="386.09,-321.27 375.57,-320.07 383.05,-327.57 386.09,-321.27"/>
</g>
<!-- ast.If object at 0x7ff676626cb0 -->
<g id="node34" class="node">
<title>ast.If object at 0x7ff676626cb0</title>
<path fill="#66cdaa" stroke="black" d="M635.5,-396C635.5,-396 605.5,-396 605.5,-396 599.5,-396 593.5,-390 593.5,-384 593.5,-384 593.5,-372 593.5,-372 593.5,-366 599.5,-360 605.5,-360 605.5,-360 635.5,-360 635.5,-360 641.5,-360 647.5,-366 647.5,-372 647.5,-372 647.5,-384 647.5,-384 647.5,-390 641.5,-396 635.5,-396"/>
<text text-anchor="middle" x="620.5" y="-374.3" font-family="Times,serif" font-size="14.00">If</text>
</g>
<!-- ast.For object at 0x7ff676624760&#45;&gt;ast.If object at 0x7ff676626cb0 -->
<g id="edge43" class="edge">
<title>ast.For object at 0x7ff676624760&#45;&gt;ast.If object at 0x7ff676626cb0</title>
<path fill="none" stroke="black" d="M637.06,-431.7C634.61,-423.9 631.66,-414.51 628.93,-405.83"/>
<polygon fill="black" stroke="black" points="632.21,-404.59 625.88,-396.1 625.54,-406.69 632.21,-404.59"/>
</g>
<!-- ast.Name object at 0x7ff6766257e0&#45;&gt;ast.Store object at 0x7ff6b61edfc0 -->
<g id="edge26" class="edge">
<title>ast.Name object at 0x7ff6766257e0&#45;&gt;ast.Store object at 0x7ff6b61edfc0</title>
<path fill="none" stroke="black" d="M731.98,-359.85C737.35,-322.83 750.04,-235.18 756.53,-190.39"/>
<polygon fill="black" stroke="black" points="760.03,-190.63 758,-180.23 753.11,-189.63 760.03,-190.63"/>
</g>
<!-- ast.Name object at 0x7ff676624460 -->
<g id="node23" class="node">
<title>ast.Name object at 0x7ff676624460</title>
<path fill="#66cdaa" stroke="black" d="M418.5,-252C418.5,-252 388.5,-252 388.5,-252 382.5,-252 376.5,-246 376.5,-240 376.5,-240 376.5,-228 376.5,-228 376.5,-222 382.5,-216 388.5,-216 388.5,-216 418.5,-216 418.5,-216 424.5,-216 430.5,-222 430.5,-228 430.5,-228 430.5,-240 430.5,-240 430.5,-246 424.5,-252 418.5,-252"/>
<text text-anchor="middle" x="403.5" y="-230.3" font-family="Times,serif" font-size="14.00">Name</text>
</g>
<!-- ast.Call object at 0x7ff6766272b0&#45;&gt;ast.Name object at 0x7ff676624460 -->
<g id="edge28" class="edge">
<title>ast.Call object at 0x7ff6766272b0&#45;&gt;ast.Name object at 0x7ff676624460</title>
<path fill="none" stroke="black" d="M362.1,-287.7C368.62,-279.39 376.57,-269.28 383.75,-260.14"/>
<polygon fill="black" stroke="black" points="386.63,-262.13 390.06,-252.1 381.13,-257.81 386.63,-262.13"/>
</g>
<!-- ast.BinOp object at 0x7ff676627370 -->
<g id="node24" class="node">
<title>ast.BinOp object at 0x7ff676627370</title>
<path fill="#66cdaa" stroke="black" d="M308.5,-252C308.5,-252 278.5,-252 278.5,-252 272.5,-252 266.5,-246 266.5,-240 266.5,-240 266.5,-228 266.5,-228 266.5,-222 272.5,-216 278.5,-216 278.5,-216 308.5,-216 308.5,-216 314.5,-216 320.5,-222 320.5,-228 320.5,-228 320.5,-240 320.5,-240 320.5,-246 314.5,-252 308.5,-252"/>
<text text-anchor="middle" x="293.5" y="-230.3" font-family="Times,serif" font-size="14.00">BinOp</text>
</g>
<!-- ast.Call object at 0x7ff6766272b0&#45;&gt;ast.BinOp object at 0x7ff676627370 -->
<g id="edge30" class="edge">
<title>ast.Call object at 0x7ff6766272b0&#45;&gt;ast.BinOp object at 0x7ff676627370</title>
<path fill="none" stroke="black" d="M334.9,-287.7C328.38,-279.39 320.43,-269.28 313.25,-260.14"/>
<polygon fill="black" stroke="black" points="315.87,-257.81 306.94,-252.1 310.37,-262.13 315.87,-257.81"/>
</g>
<!-- ast.BinOp object at 0x7ff676624550 -->
<g id="node28" class="node">
<title>ast.BinOp object at 0x7ff676624550</title>
<path fill="#66cdaa" stroke="black" d="M200.5,-252C200.5,-252 170.5,-252 170.5,-252 164.5,-252 158.5,-246 158.5,-240 158.5,-240 158.5,-228 158.5,-228 158.5,-222 164.5,-216 170.5,-216 170.5,-216 200.5,-216 200.5,-216 206.5,-216 212.5,-222 212.5,-228 212.5,-228 212.5,-240 212.5,-240 212.5,-246 206.5,-252 200.5,-252"/>
<text text-anchor="middle" x="185.5" y="-230.3" font-family="Times,serif" font-size="14.00">BinOp</text>
</g>
<!-- ast.Call object at 0x7ff6766272b0&#45;&gt;ast.BinOp object at 0x7ff676624550 -->
<g id="edge35" class="edge">
<title>ast.Call object at 0x7ff6766272b0&#45;&gt;ast.BinOp object at 0x7ff676624550</title>
<path fill="none" stroke="black" d="M321.22,-293.28C293.99,-281.59 251.97,-263.55 221.91,-250.64"/>
<polygon fill="black" stroke="black" points="223.17,-247.37 212.6,-246.64 220.41,-253.8 223.17,-247.37"/>
</g>
<!-- ast.Name object at 0x7ff676624460&#45;&gt;ast.Load object at 0x7ff6b61edf60 -->
<g id="edge29" class="edge">
<title>ast.Name object at 0x7ff676624460&#45;&gt;ast.Load object at 0x7ff6b61edf60</title>
<path fill="none" stroke="black" d="M407.75,-215.81C417.12,-181.85 443.05,-106.49 495.5,-72 566.88,-25.06 831.91,-19.38 930.37,-18.93"/>
<polygon fill="black" stroke="black" points="930.46,-22.43 940.45,-18.9 930.44,-15.43 930.46,-22.43"/>
</g>
<!-- ast.Name object at 0x7ff676625510 -->
<g id="node25" class="node">
<title>ast.Name object at 0x7ff676625510</title>
<path fill="#66cdaa" stroke="black" d="M325.5,-180C325.5,-180 295.5,-180 295.5,-180 289.5,-180 283.5,-174 283.5,-168 283.5,-168 283.5,-156 283.5,-156 283.5,-150 289.5,-144 295.5,-144 295.5,-144 325.5,-144 325.5,-144 331.5,-144 337.5,-150 337.5,-156 337.5,-156 337.5,-168 337.5,-168 337.5,-174 331.5,-180 325.5,-180"/>
<text text-anchor="middle" x="310.5" y="-158.3" font-family="Times,serif" font-size="14.00">Name</text>
</g>
<!-- ast.BinOp object at 0x7ff676627370&#45;&gt;ast.Name object at 0x7ff676625510 -->
<g id="edge31" class="edge">
<title>ast.BinOp object at 0x7ff676627370&#45;&gt;ast.Name object at 0x7ff676625510</title>
<path fill="none" stroke="black" d="M297.7,-215.7C299.6,-207.9 301.88,-198.51 303.98,-189.83"/>
<polygon fill="black" stroke="black" points="307.39,-190.65 306.35,-180.1 300.58,-189 307.39,-190.65"/>
</g>
<!-- ast.Add object at 0x7ff6b61ee1a0 -->
<g id="node26" class="node">
<title>ast.Add object at 0x7ff6b61ee1a0</title>
<path fill="#66cdaa" stroke="black" d="M397.5,-180C397.5,-180 367.5,-180 367.5,-180 361.5,-180 355.5,-174 355.5,-168 355.5,-168 355.5,-156 355.5,-156 355.5,-150 361.5,-144 367.5,-144 367.5,-144 397.5,-144 397.5,-144 403.5,-144 409.5,-150 409.5,-156 409.5,-156 409.5,-168 409.5,-168 409.5,-174 403.5,-180 397.5,-180"/>
<text text-anchor="middle" x="382.5" y="-158.3" font-family="Times,serif" font-size="14.00">Add</text>
</g>
<!-- ast.BinOp object at 0x7ff676627370&#45;&gt;ast.Add object at 0x7ff6b61ee1a0 -->
<g id="edge33" class="edge">
<title>ast.BinOp object at 0x7ff676627370&#45;&gt;ast.Add object at 0x7ff6b61ee1a0</title>
<path fill="none" stroke="black" d="M315.5,-215.7C326.71,-206.88 340.5,-196.03 352.65,-186.47"/>
<polygon fill="black" stroke="black" points="355.06,-189.04 360.75,-180.1 350.73,-183.54 355.06,-189.04"/>
</g>
<!-- ast.Constant object at 0x7ff6766246d0 -->
<g id="node27" class="node">
<title>ast.Constant object at 0x7ff6766246d0</title>
<path fill="#66cdaa" stroke="black" d="M253,-180C253,-180 212,-180 212,-180 206,-180 200,-174 200,-168 200,-168 200,-156 200,-156 200,-150 206,-144 212,-144 212,-144 253,-144 253,-144 259,-144 265,-150 265,-156 265,-156 265,-168 265,-168 265,-174 259,-180 253,-180"/>
<text text-anchor="middle" x="232.5" y="-158.3" font-family="Times,serif" font-size="14.00">Constant</text>
</g>
<!-- ast.BinOp object at 0x7ff676627370&#45;&gt;ast.Constant object at 0x7ff6766246d0 -->
<g id="edge34" class="edge">
<title>ast.BinOp object at 0x7ff676627370&#45;&gt;ast.Constant object at 0x7ff6766246d0</title>
<path fill="none" stroke="black" d="M278.42,-215.7C271.11,-207.3 262.19,-197.07 254.16,-187.86"/>
<polygon fill="black" stroke="black" points="256.61,-185.34 247.41,-180.1 251.34,-189.94 256.61,-185.34"/>
</g>
<!-- ast.Name object at 0x7ff676625510&#45;&gt;ast.Load object at 0x7ff6b61edf60 -->
<g id="edge32" class="edge">
<title>ast.Name object at 0x7ff676625510&#45;&gt;ast.Load object at 0x7ff6b61edf60</title>
<path fill="none" stroke="black" d="M333.73,-143.86C347.46,-133.61 365.12,-120.25 380.5,-108 400,-92.47 400.51,-81.64 423.5,-72 515.49,-33.42 823.31,-22.46 930.4,-19.78"/>
<polygon fill="black" stroke="black" points="930.5,-23.28 940.41,-19.54 930.33,-16.28 930.5,-23.28"/>
</g>
<!-- ast.BinOp object at 0x7ff676624550&#45;&gt;ast.Add object at 0x7ff6b61ee1a0 -->
<g id="edge41" class="edge">
<title>ast.BinOp object at 0x7ff676624550&#45;&gt;ast.Add object at 0x7ff6b61ee1a0</title>
<path fill="none" stroke="black" d="M212.64,-225.18C243.11,-216.16 294.11,-200.35 345.82,-180.05"/>
<polygon fill="black" stroke="black" points="347.14,-183.29 355.14,-176.35 344.55,-176.79 347.14,-183.29"/>
</g>
<!-- ast.BinOp object at 0x7ff676626a70 -->
<g id="node29" class="node">
<title>ast.BinOp object at 0x7ff676626a70</title>
<path fill="#66cdaa" stroke="black" d="M86.5,-180C86.5,-180 56.5,-180 56.5,-180 50.5,-180 44.5,-174 44.5,-168 44.5,-168 44.5,-156 44.5,-156 44.5,-150 50.5,-144 56.5,-144 56.5,-144 86.5,-144 86.5,-144 92.5,-144 98.5,-150 98.5,-156 98.5,-156 98.5,-168 98.5,-168 98.5,-174 92.5,-180 86.5,-180"/>
<text text-anchor="middle" x="71.5" y="-158.3" font-family="Times,serif" font-size="14.00">BinOp</text>
</g>
<!-- ast.BinOp object at 0x7ff676624550&#45;&gt;ast.BinOp object at 0x7ff676626a70 -->
<g id="edge36" class="edge">
<title>ast.BinOp object at 0x7ff676624550&#45;&gt;ast.BinOp object at 0x7ff676626a70</title>
<path fill="none" stroke="black" d="M158.48,-216.41C143.26,-207.06 124.05,-195.27 107.56,-185.14"/>
<polygon fill="black" stroke="black" points="109.07,-181.96 98.72,-179.71 105.41,-187.93 109.07,-181.96"/>
</g>
<!-- ast.Constant object at 0x7ff676626080 -->
<g id="node33" class="node">
<title>ast.Constant object at 0x7ff676626080</title>
<path fill="#66cdaa" stroke="black" d="M170,-180C170,-180 129,-180 129,-180 123,-180 117,-174 117,-168 117,-168 117,-156 117,-156 117,-150 123,-144 129,-144 129,-144 170,-144 170,-144 176,-144 182,-150 182,-156 182,-156 182,-168 182,-168 182,-174 176,-180 170,-180"/>
<text text-anchor="middle" x="149.5" y="-158.3" font-family="Times,serif" font-size="14.00">Constant</text>
</g>
<!-- ast.BinOp object at 0x7ff676624550&#45;&gt;ast.Constant object at 0x7ff676626080 -->
<g id="edge42" class="edge">
<title>ast.BinOp object at 0x7ff676624550&#45;&gt;ast.Constant object at 0x7ff676626080</title>
<path fill="none" stroke="black" d="M176.6,-215.7C172.5,-207.73 167.55,-198.1 163.01,-189.26"/>
<polygon fill="black" stroke="black" points="165.98,-187.4 158.3,-180.1 159.76,-190.6 165.98,-187.4"/>
</g>
<!-- ast.Name object at 0x7ff676624d00 -->
<g id="node30" class="node">
<title>ast.Name object at 0x7ff676624d00</title>
<path fill="#66cdaa" stroke="black" d="M359.5,-108C359.5,-108 329.5,-108 329.5,-108 323.5,-108 317.5,-102 317.5,-96 317.5,-96 317.5,-84 317.5,-84 317.5,-78 323.5,-72 329.5,-72 329.5,-72 359.5,-72 359.5,-72 365.5,-72 371.5,-78 371.5,-84 371.5,-84 371.5,-96 371.5,-96 371.5,-102 365.5,-108 359.5,-108"/>
<text text-anchor="middle" x="344.5" y="-86.3" font-family="Times,serif" font-size="14.00">Name</text>
</g>
<!-- ast.BinOp object at 0x7ff676626a70&#45;&gt;ast.Name object at 0x7ff676624d00 -->
<g id="edge37" class="edge">
<title>ast.BinOp object at 0x7ff676626a70&#45;&gt;ast.Name object at 0x7ff676624d00</title>
<path fill="none" stroke="black" d="M98.71,-147.24C101.64,-146.03 104.6,-144.93 107.5,-144 190.91,-117.35 220,-134.32 307.48,-107.83"/>
<polygon fill="black" stroke="black" points="308.79,-111.09 317.29,-104.76 306.7,-104.41 308.79,-111.09"/>
</g>
<!-- ast.Sub object at 0x7ff6b61ee200 -->
<g id="node31" class="node">
<title>ast.Sub object at 0x7ff6b61ee200</title>
<path fill="#66cdaa" stroke="black" d="M125.5,-108C125.5,-108 95.5,-108 95.5,-108 89.5,-108 83.5,-102 83.5,-96 83.5,-96 83.5,-84 83.5,-84 83.5,-78 89.5,-72 95.5,-72 95.5,-72 125.5,-72 125.5,-72 131.5,-72 137.5,-78 137.5,-84 137.5,-84 137.5,-96 137.5,-96 137.5,-102 131.5,-108 125.5,-108"/>
<text text-anchor="middle" x="110.5" y="-86.3" font-family="Times,serif" font-size="14.00">Sub</text>
</g>
<!-- ast.BinOp object at 0x7ff676626a70&#45;&gt;ast.Sub object at 0x7ff6b61ee200 -->
<g id="edge39" class="edge">
<title>ast.BinOp object at 0x7ff676626a70&#45;&gt;ast.Sub object at 0x7ff6b61ee200</title>
<path fill="none" stroke="black" d="M81.14,-143.7C85.63,-135.64 91.06,-125.89 96.02,-116.98"/>
<polygon fill="black" stroke="black" points="99.16,-118.54 100.97,-108.1 93.05,-115.14 99.16,-118.54"/>
</g>
<!-- ast.Constant object at 0x7ff6766263b0 -->
<g id="node32" class="node">
<title>ast.Constant object at 0x7ff6766263b0</title>
<path fill="#66cdaa" stroke="black" d="M53,-108C53,-108 12,-108 12,-108 6,-108 0,-102 0,-96 0,-96 0,-84 0,-84 0,-78 6,-72 12,-72 12,-72 53,-72 53,-72 59,-72 65,-78 65,-84 65,-84 65,-96 65,-96 65,-102 59,-108 53,-108"/>
<text text-anchor="middle" x="32.5" y="-86.3" font-family="Times,serif" font-size="14.00">Constant</text>
</g>
<!-- ast.BinOp object at 0x7ff676626a70&#45;&gt;ast.Constant object at 0x7ff6766263b0 -->
<g id="edge40" class="edge">
<title>ast.BinOp object at 0x7ff676626a70&#45;&gt;ast.Constant object at 0x7ff6766263b0</title>
<path fill="none" stroke="black" d="M61.86,-143.7C57.37,-135.64 51.94,-125.89 46.98,-116.98"/>
<polygon fill="black" stroke="black" points="49.95,-115.14 42.03,-108.1 43.84,-118.54 49.95,-115.14"/>
</g>
<!-- ast.Name object at 0x7ff676624d00&#45;&gt;ast.Load object at 0x7ff6b61edf60 -->
<g id="edge38" class="edge">
<title>ast.Name object at 0x7ff676624d00&#45;&gt;ast.Load object at 0x7ff6b61edf60</title>
<path fill="none" stroke="black" d="M371.91,-76.31C376.37,-74.63 381.01,-73.11 385.5,-72 586.58,-22.38 837.04,-18.19 930.27,-18.53"/>
<polygon fill="black" stroke="black" points="930.32,-22.03 940.34,-18.59 930.36,-15.03 930.32,-22.03"/>
</g>
<!-- ast.UnaryOp object at 0x7ff676626bf0 -->
<g id="node35" class="node">
<title>ast.UnaryOp object at 0x7ff676626bf0</title>
<path fill="#66cdaa" stroke="black" d="M642,-324C642,-324 599,-324 599,-324 593,-324 587,-318 587,-312 587,-312 587,-300 587,-300 587,-294 593,-288 599,-288 599,-288 642,-288 642,-288 648,-288 654,-294 654,-300 654,-300 654,-312 654,-312 654,-318 648,-324 642,-324"/>
<text text-anchor="middle" x="620.5" y="-302.3" font-family="Times,serif" font-size="14.00">UnaryOp</text>
</g>
<!-- ast.If object at 0x7ff676626cb0&#45;&gt;ast.UnaryOp object at 0x7ff676626bf0 -->
<g id="edge44" class="edge">
<title>ast.If object at 0x7ff676626cb0&#45;&gt;ast.UnaryOp object at 0x7ff676626bf0</title>
<path fill="none" stroke="black" d="M620.5,-359.7C620.5,-351.98 620.5,-342.71 620.5,-334.11"/>
<polygon fill="black" stroke="black" points="624,-334.1 620.5,-324.1 617,-334.1 624,-334.1"/>
</g>
<!-- ast.AugAssign object at 0x7ff676626410 -->
<g id="node45" class="node">
<title>ast.AugAssign object at 0x7ff676626410</title>
<path fill="#66cdaa" stroke="black" d="M525,-324C525,-324 472,-324 472,-324 466,-324 460,-318 460,-312 460,-312 460,-300 460,-300 460,-294 466,-288 472,-288 472,-288 525,-288 525,-288 531,-288 537,-294 537,-300 537,-300 537,-312 537,-312 537,-318 531,-324 525,-324"/>
<text text-anchor="middle" x="498.5" y="-302.3" font-family="Times,serif" font-size="14.00">AugAssign</text>
</g>
<!-- ast.If object at 0x7ff676626cb0&#45;&gt;ast.AugAssign object at 0x7ff676626410 -->
<g id="edge57" class="edge">
<title>ast.If object at 0x7ff676626cb0&#45;&gt;ast.AugAssign object at 0x7ff676626410</title>
<path fill="none" stroke="black" d="M593.42,-361.46C576.89,-351.98 555.49,-339.7 537.19,-329.2"/>
<polygon fill="black" stroke="black" points="538.91,-326.15 528.5,-324.21 535.43,-332.22 538.91,-326.15"/>
</g>
<!-- ast.Not object at 0x7ff6b61ee740 -->
<g id="node36" class="node">
<title>ast.Not object at 0x7ff6b61ee740</title>
<path fill="#66cdaa" stroke="black" d="M720.5,-252C720.5,-252 690.5,-252 690.5,-252 684.5,-252 678.5,-246 678.5,-240 678.5,-240 678.5,-228 678.5,-228 678.5,-222 684.5,-216 690.5,-216 690.5,-216 720.5,-216 720.5,-216 726.5,-216 732.5,-222 732.5,-228 732.5,-228 732.5,-240 732.5,-240 732.5,-246 726.5,-252 720.5,-252"/>
<text text-anchor="middle" x="705.5" y="-230.3" font-family="Times,serif" font-size="14.00">Not</text>
</g>
<!-- ast.UnaryOp object at 0x7ff676626bf0&#45;&gt;ast.Not object at 0x7ff6b61ee740 -->
<g id="edge45" class="edge">
<title>ast.UnaryOp object at 0x7ff676626bf0&#45;&gt;ast.Not object at 0x7ff6b61ee740</title>
<path fill="none" stroke="black" d="M641.51,-287.7C652.22,-278.88 665.39,-268.03 677,-258.47"/>
<polygon fill="black" stroke="black" points="679.24,-261.16 684.73,-252.1 674.79,-255.76 679.24,-261.16"/>
</g>
<!-- ast.Compare object at 0x7ff676624fd0 -->
<g id="node37" class="node">
<title>ast.Compare object at 0x7ff676624fd0</title>
<path fill="#66cdaa" stroke="black" d="M576,-252C576,-252 533,-252 533,-252 527,-252 521,-246 521,-240 521,-240 521,-228 521,-228 521,-222 527,-216 533,-216 533,-216 576,-216 576,-216 582,-216 588,-222 588,-228 588,-228 588,-240 588,-240 588,-246 582,-252 576,-252"/>
<text text-anchor="middle" x="554.5" y="-230.3" font-family="Times,serif" font-size="14.00">Compare</text>
</g>
<!-- ast.UnaryOp object at 0x7ff676626bf0&#45;&gt;ast.Compare object at 0x7ff676624fd0 -->
<g id="edge46" class="edge">
<title>ast.UnaryOp object at 0x7ff676626bf0&#45;&gt;ast.Compare object at 0x7ff676624fd0</title>
<path fill="none" stroke="black" d="M604.19,-287.7C596.19,-279.22 586.43,-268.86 577.68,-259.58"/>
<polygon fill="black" stroke="black" points="580.03,-256.98 570.63,-252.1 574.94,-261.78 580.03,-256.98"/>
</g>
<!-- ast.Name object at 0x7ff676627700 -->
<g id="node38" class="node">
<title>ast.Name object at 0x7ff676627700</title>
<path fill="#66cdaa" stroke="black" d="M703.5,-180C703.5,-180 673.5,-180 673.5,-180 667.5,-180 661.5,-174 661.5,-168 661.5,-168 661.5,-156 661.5,-156 661.5,-150 667.5,-144 673.5,-144 673.5,-144 703.5,-144 703.5,-144 709.5,-144 715.5,-150 715.5,-156 715.5,-156 715.5,-168 715.5,-168 715.5,-174 709.5,-180 703.5,-180"/>
<text text-anchor="middle" x="688.5" y="-158.3" font-family="Times,serif" font-size="14.00">Name</text>
</g>
<!-- ast.Compare object at 0x7ff676624fd0&#45;&gt;ast.Name object at 0x7ff676627700 -->
<g id="edge47" class="edge">
<title>ast.Compare object at 0x7ff676624fd0&#45;&gt;ast.Name object at 0x7ff676627700</title>
<path fill="none" stroke="black" d="M587.28,-215.88C607.03,-205.56 632.21,-192.4 652.52,-181.8"/>
<polygon fill="black" stroke="black" points="654.22,-184.86 661.46,-177.12 650.98,-178.65 654.22,-184.86"/>
</g>
<!-- ast.In object at 0x7ff6b61eeb90 -->
<g id="node39" class="node">
<title>ast.In object at 0x7ff6b61eeb90</title>
<path fill="#66cdaa" stroke="black" d="M631.5,-180C631.5,-180 601.5,-180 601.5,-180 595.5,-180 589.5,-174 589.5,-168 589.5,-168 589.5,-156 589.5,-156 589.5,-150 595.5,-144 601.5,-144 601.5,-144 631.5,-144 631.5,-144 637.5,-144 643.5,-150 643.5,-156 643.5,-156 643.5,-168 643.5,-168 643.5,-174 637.5,-180 631.5,-180"/>
<text text-anchor="middle" x="616.5" y="-158.3" font-family="Times,serif" font-size="14.00">In</text>
</g>
<!-- ast.Compare object at 0x7ff676624fd0&#45;&gt;ast.In object at 0x7ff6b61eeb90 -->
<g id="edge49" class="edge">
<title>ast.Compare object at 0x7ff676624fd0&#45;&gt;ast.In object at 0x7ff6b61eeb90</title>
<path fill="none" stroke="black" d="M569.83,-215.7C577.26,-207.3 586.32,-197.07 594.48,-187.86"/>
<polygon fill="black" stroke="black" points="597.34,-189.91 601.35,-180.1 592.1,-185.27 597.34,-189.91"/>
</g>
<!-- ast.Subscript object at 0x7ff6766258d0 -->
<g id="node40" class="node">
<title>ast.Subscript object at 0x7ff6766258d0</title>
<path fill="#66cdaa" stroke="black" d="M559.5,-180C559.5,-180 515.5,-180 515.5,-180 509.5,-180 503.5,-174 503.5,-168 503.5,-168 503.5,-156 503.5,-156 503.5,-150 509.5,-144 515.5,-144 515.5,-144 559.5,-144 559.5,-144 565.5,-144 571.5,-150 571.5,-156 571.5,-156 571.5,-168 571.5,-168 571.5,-174 565.5,-180 559.5,-180"/>
<text text-anchor="middle" x="537.5" y="-158.3" font-family="Times,serif" font-size="14.00">Subscript</text>
</g>
<!-- ast.Compare object at 0x7ff676624fd0&#45;&gt;ast.Subscript object at 0x7ff6766258d0 -->
<g id="edge50" class="edge">
<title>ast.Compare object at 0x7ff676624fd0&#45;&gt;ast.Subscript object at 0x7ff6766258d0</title>
<path fill="none" stroke="black" d="M550.3,-215.7C548.4,-207.9 546.12,-198.51 544.02,-189.83"/>
<polygon fill="black" stroke="black" points="547.42,-189 541.65,-180.1 540.61,-190.65 547.42,-189"/>
</g>
<!-- ast.Name object at 0x7ff676627700&#45;&gt;ast.Load object at 0x7ff6b61edf60 -->
<g id="edge48" class="edge">
<title>ast.Name object at 0x7ff676627700&#45;&gt;ast.Load object at 0x7ff6b61edf60</title>
<path fill="none" stroke="black" d="M672.57,-143.86C656.57,-124.55 636.67,-93.1 654.5,-72 689.38,-30.72 854.49,-21.58 929.84,-19.57"/>
<polygon fill="black" stroke="black" points="930.37,-23.06 940.28,-19.32 930.2,-16.06 930.37,-23.06"/>
</g>
<!-- ast.Subscript object at 0x7ff6766258d0&#45;&gt;ast.Load object at 0x7ff6b61edf60 -->
<g id="edge56" class="edge">
<title>ast.Subscript object at 0x7ff6766258d0&#45;&gt;ast.Load object at 0x7ff6b61edf60</title>
<path fill="none" stroke="black" d="M533.11,-143.71C529.15,-123.66 526.41,-90.94 544.5,-72 570.98,-44.27 831.7,-26.71 930.13,-21.02"/>
<polygon fill="black" stroke="black" points="930.44,-24.51 940.23,-20.45 930.05,-17.52 930.44,-24.51"/>
</g>
<!-- ast.Name object at 0x7ff676624bb0 -->
<g id="node41" class="node">
<title>ast.Name object at 0x7ff676624bb0</title>
<path fill="#66cdaa" stroke="black" d="M595.5,-108C595.5,-108 565.5,-108 565.5,-108 559.5,-108 553.5,-102 553.5,-96 553.5,-96 553.5,-84 553.5,-84 553.5,-78 559.5,-72 565.5,-72 565.5,-72 595.5,-72 595.5,-72 601.5,-72 607.5,-78 607.5,-84 607.5,-84 607.5,-96 607.5,-96 607.5,-102 601.5,-108 595.5,-108"/>
<text text-anchor="middle" x="580.5" y="-86.3" font-family="Times,serif" font-size="14.00">Name</text>
</g>
<!-- ast.Subscript object at 0x7ff6766258d0&#45;&gt;ast.Name object at 0x7ff676624bb0 -->
<g id="edge51" class="edge">
<title>ast.Subscript object at 0x7ff6766258d0&#45;&gt;ast.Name object at 0x7ff676624bb0</title>
<path fill="none" stroke="black" d="M548.13,-143.7C553.13,-135.56 559.19,-125.69 564.71,-116.7"/>
<polygon fill="black" stroke="black" points="567.74,-118.46 569.99,-108.1 561.78,-114.79 567.74,-118.46"/>
</g>
<!-- ast.Slice object at 0x7ff676626020 -->
<g id="node42" class="node">
<title>ast.Slice object at 0x7ff676626020</title>
<path fill="#66cdaa" stroke="black" d="M287.5,-108C287.5,-108 257.5,-108 257.5,-108 251.5,-108 245.5,-102 245.5,-96 245.5,-96 245.5,-84 245.5,-84 245.5,-78 251.5,-72 257.5,-72 257.5,-72 287.5,-72 287.5,-72 293.5,-72 299.5,-78 299.5,-84 299.5,-84 299.5,-96 299.5,-96 299.5,-102 293.5,-108 287.5,-108"/>
<text text-anchor="middle" x="272.5" y="-86.3" font-family="Times,serif" font-size="14.00">Slice</text>
</g>
<!-- ast.Subscript object at 0x7ff6766258d0&#45;&gt;ast.Slice object at 0x7ff676626020 -->
<g id="edge53" class="edge">
<title>ast.Subscript object at 0x7ff6766258d0&#45;&gt;ast.Slice object at 0x7ff676626020</title>
<path fill="none" stroke="black" d="M503.49,-155.48C460.15,-147.93 382.96,-132.81 309.62,-108.01"/>
<polygon fill="black" stroke="black" points="310.36,-104.57 299.76,-104.61 308.08,-111.18 310.36,-104.57"/>
</g>
<!-- ast.Name object at 0x7ff676624bb0&#45;&gt;ast.Load object at 0x7ff6b61edf60 -->
<g id="edge52" class="edge">
<title>ast.Name object at 0x7ff676624bb0&#45;&gt;ast.Load object at 0x7ff6b61edf60</title>
<path fill="none" stroke="black" d="M607.52,-76.72C612.12,-74.95 616.9,-73.29 621.5,-72 731.27,-41.32 865.92,-27.15 930.07,-21.76"/>
<polygon fill="black" stroke="black" points="930.43,-25.24 940.11,-20.94 929.86,-18.27 930.43,-25.24"/>
</g>
<!-- ast.Constant object at 0x7ff676627940 -->
<g id="node43" class="node">
<title>ast.Constant object at 0x7ff676627940</title>
<path fill="#66cdaa" stroke="black" d="M335,-36C335,-36 294,-36 294,-36 288,-36 282,-30 282,-24 282,-24 282,-12 282,-12 282,-6 288,0 294,0 294,0 335,0 335,0 341,0 347,-6 347,-12 347,-12 347,-24 347,-24 347,-30 341,-36 335,-36"/>
<text text-anchor="middle" x="314.5" y="-14.3" font-family="Times,serif" font-size="14.00">Constant</text>
</g>
<!-- ast.Slice object at 0x7ff676626020&#45;&gt;ast.Constant object at 0x7ff676627940 -->
<g id="edge54" class="edge">
<title>ast.Slice object at 0x7ff676626020&#45;&gt;ast.Constant object at 0x7ff676627940</title>
<path fill="none" stroke="black" d="M282.88,-71.7C287.76,-63.56 293.69,-53.69 299.08,-44.7"/>
<polygon fill="black" stroke="black" points="302.09,-46.48 304.24,-36.1 296.09,-42.88 302.09,-46.48"/>
</g>
<!-- ast.Constant object at 0x7ff6766244f0 -->
<g id="node44" class="node">
<title>ast.Constant object at 0x7ff6766244f0</title>
<path fill="#66cdaa" stroke="black" d="M252,-36C252,-36 211,-36 211,-36 205,-36 199,-30 199,-24 199,-24 199,-12 199,-12 199,-6 205,0 211,0 211,0 252,0 252,0 258,0 264,-6 264,-12 264,-12 264,-24 264,-24 264,-30 258,-36 252,-36"/>
<text text-anchor="middle" x="231.5" y="-14.3" font-family="Times,serif" font-size="14.00">Constant</text>
</g>
<!-- ast.Slice object at 0x7ff676626020&#45;&gt;ast.Constant object at 0x7ff6766244f0 -->
<g id="edge55" class="edge">
<title>ast.Slice object at 0x7ff676626020&#45;&gt;ast.Constant object at 0x7ff6766244f0</title>
<path fill="none" stroke="black" d="M262.37,-71.7C257.65,-63.64 251.94,-53.89 246.72,-44.98"/>
<polygon fill="black" stroke="black" points="249.59,-42.96 241.52,-36.1 243.55,-46.5 249.59,-42.96"/>
</g>
<!-- ast.AugAssign object at 0x7ff676626410&#45;&gt;ast.Add object at 0x7ff6b61ee1a0 -->
<g id="edge60" class="edge">
<title>ast.AugAssign object at 0x7ff676626410&#45;&gt;ast.Add object at 0x7ff6b61ee1a0</title>
<path fill="none" stroke="black" d="M459.99,-300.9C429.24,-295.38 388,-282.41 367.5,-252 355.12,-233.63 360.98,-208.41 368.72,-189.51"/>
<polygon fill="black" stroke="black" points="371.97,-190.83 372.85,-180.27 365.57,-187.97 371.97,-190.83"/>
</g>
<!-- ast.Name object at 0x7ff676627550 -->
<g id="node46" class="node">
<title>ast.Name object at 0x7ff676627550</title>
<path fill="#66cdaa" stroke="black" d="M648.5,-252C648.5,-252 618.5,-252 618.5,-252 612.5,-252 606.5,-246 606.5,-240 606.5,-240 606.5,-228 606.5,-228 606.5,-222 612.5,-216 618.5,-216 618.5,-216 648.5,-216 648.5,-216 654.5,-216 660.5,-222 660.5,-228 660.5,-228 660.5,-240 660.5,-240 660.5,-246 654.5,-252 648.5,-252"/>
<text text-anchor="middle" x="633.5" y="-230.3" font-family="Times,serif" font-size="14.00">Name</text>
</g>
<!-- ast.AugAssign object at 0x7ff676626410&#45;&gt;ast.Name object at 0x7ff676627550 -->
<g id="edge58" class="edge">
<title>ast.AugAssign object at 0x7ff676626410&#45;&gt;ast.Name object at 0x7ff676627550</title>
<path fill="none" stroke="black" d="M531.52,-287.88C551.43,-277.56 576.79,-264.4 597.25,-253.8"/>
<polygon fill="black" stroke="black" points="599,-256.83 606.26,-249.12 595.77,-250.62 599,-256.83"/>
</g>
<!-- ast.Name object at 0x7ff676627c10 -->
<g id="node47" class="node">
<title>ast.Name object at 0x7ff676627c10</title>
<path fill="#66cdaa" stroke="black" d="M490.5,-252C490.5,-252 460.5,-252 460.5,-252 454.5,-252 448.5,-246 448.5,-240 448.5,-240 448.5,-228 448.5,-228 448.5,-222 454.5,-216 460.5,-216 460.5,-216 490.5,-216 490.5,-216 496.5,-216 502.5,-222 502.5,-228 502.5,-228 502.5,-240 502.5,-240 502.5,-246 496.5,-252 490.5,-252"/>
<text text-anchor="middle" x="475.5" y="-230.3" font-family="Times,serif" font-size="14.00">Name</text>
</g>
<!-- ast.AugAssign object at 0x7ff676626410&#45;&gt;ast.Name object at 0x7ff676627c10 -->
<g id="edge61" class="edge">
<title>ast.AugAssign object at 0x7ff676626410&#45;&gt;ast.Name object at 0x7ff676627c10</title>
<path fill="none" stroke="black" d="M492.81,-287.7C490.25,-279.9 487.17,-270.51 484.32,-261.83"/>
<polygon fill="black" stroke="black" points="487.57,-260.51 481.12,-252.1 480.92,-262.7 487.57,-260.51"/>
</g>
<!-- ast.Name object at 0x7ff676627550&#45;&gt;ast.Store object at 0x7ff6b61edfc0 -->
<g id="edge59" class="edge">
<title>ast.Name object at 0x7ff676627550&#45;&gt;ast.Store object at 0x7ff6b61edfc0</title>
<path fill="none" stroke="black" d="M660.74,-217.98C679.33,-207.74 704.14,-194.07 724.37,-182.92"/>
<polygon fill="black" stroke="black" points="726.23,-185.88 733.3,-177.99 722.85,-179.75 726.23,-185.88"/>
</g>
<!-- ast.Name object at 0x7ff676627c10&#45;&gt;ast.Load object at 0x7ff6b61edf60 -->
<g id="edge62" class="edge">
<title>ast.Name object at 0x7ff676627c10&#45;&gt;ast.Load object at 0x7ff6b61edf60</title>
<path fill="none" stroke="black" d="M475.07,-215.95C475.25,-181.89 481.11,-105.85 527.5,-72 591.31,-25.43 835.83,-19.47 930.12,-18.93"/>
<polygon fill="black" stroke="black" points="930.35,-22.43 940.33,-18.89 930.32,-15.43 930.35,-22.43"/>
</g>
<!-- ast.Compare object at 0x7ff6766247f0 -->
<g id="node49" class="node">
<title>ast.Compare object at 0x7ff6766247f0</title>
<path fill="#66cdaa" stroke="black" d="M1488,-468C1488,-468 1445,-468 1445,-468 1439,-468 1433,-462 1433,-456 1433,-456 1433,-444 1433,-444 1433,-438 1439,-432 1445,-432 1445,-432 1488,-432 1488,-432 1494,-432 1500,-438 1500,-444 1500,-444 1500,-456 1500,-456 1500,-462 1494,-468 1488,-468"/>
<text text-anchor="middle" x="1466.5" y="-446.3" font-family="Times,serif" font-size="14.00">Compare</text>
</g>
<!-- ast.If object at 0x7ff676624880&#45;&gt;ast.Compare object at 0x7ff6766247f0 -->
<g id="edge64" class="edge">
<title>ast.If object at 0x7ff676624880&#45;&gt;ast.Compare object at 0x7ff6766247f0</title>
<path fill="none" stroke="black" d="M1308.8,-510.67C1338.93,-499.27 1387.85,-480.76 1423.22,-467.38"/>
<polygon fill="black" stroke="black" points="1424.7,-470.56 1432.81,-463.75 1422.22,-464.01 1424.7,-470.56"/>
</g>
<!-- ast.Return object at 0x7ff676626bc0 -->
<g id="node56" class="node">
<title>ast.Return object at 0x7ff676626bc0</title>
<path fill="#66cdaa" stroke="black" d="M1252.5,-468C1252.5,-468 1222.5,-468 1222.5,-468 1216.5,-468 1210.5,-462 1210.5,-456 1210.5,-456 1210.5,-444 1210.5,-444 1210.5,-438 1216.5,-432 1222.5,-432 1222.5,-432 1252.5,-432 1252.5,-432 1258.5,-432 1264.5,-438 1264.5,-444 1264.5,-444 1264.5,-456 1264.5,-456 1264.5,-462 1258.5,-468 1252.5,-468"/>
<text text-anchor="middle" x="1237.5" y="-446.3" font-family="Times,serif" font-size="14.00">Return</text>
</g>
<!-- ast.If object at 0x7ff676624880&#45;&gt;ast.Return object at 0x7ff676626bc0 -->
<g id="edge72" class="edge">
<title>ast.If object at 0x7ff676624880&#45;&gt;ast.Return object at 0x7ff676626bc0</title>
<path fill="none" stroke="black" d="M1270.62,-503.7C1265.51,-495.56 1259.3,-485.69 1253.66,-476.7"/>
<polygon fill="black" stroke="black" points="1256.54,-474.71 1248.25,-468.1 1250.61,-478.43 1256.54,-474.71"/>
</g>
<!-- ast.Return object at 0x7ff6762889d0 -->
<g id="node63" class="node">
<title>ast.Return object at 0x7ff6762889d0</title>
<path fill="#66cdaa" stroke="black" d="M1341.5,-468C1341.5,-468 1311.5,-468 1311.5,-468 1305.5,-468 1299.5,-462 1299.5,-456 1299.5,-456 1299.5,-444 1299.5,-444 1299.5,-438 1305.5,-432 1311.5,-432 1311.5,-432 1341.5,-432 1341.5,-432 1347.5,-432 1353.5,-438 1353.5,-444 1353.5,-444 1353.5,-456 1353.5,-456 1353.5,-462 1347.5,-468 1341.5,-468"/>
<text text-anchor="middle" x="1326.5" y="-446.3" font-family="Times,serif" font-size="14.00">Return</text>
</g>
<!-- ast.If object at 0x7ff676624880&#45;&gt;ast.Return object at 0x7ff6762889d0 -->
<g id="edge82" class="edge">
<title>ast.If object at 0x7ff676624880&#45;&gt;ast.Return object at 0x7ff6762889d0</title>
<path fill="none" stroke="black" d="M1292.62,-503.7C1297.86,-495.56 1304.2,-485.69 1309.98,-476.7"/>
<polygon fill="black" stroke="black" points="1313.04,-478.41 1315.5,-468.1 1307.15,-474.62 1313.04,-478.41"/>
</g>
<!-- ast.BinOp object at 0x7ff676624d60 -->
<g id="node50" class="node">
<title>ast.BinOp object at 0x7ff676624d60</title>
<path fill="#66cdaa" stroke="black" d="M1607.5,-396C1607.5,-396 1577.5,-396 1577.5,-396 1571.5,-396 1565.5,-390 1565.5,-384 1565.5,-384 1565.5,-372 1565.5,-372 1565.5,-366 1571.5,-360 1577.5,-360 1577.5,-360 1607.5,-360 1607.5,-360 1613.5,-360 1619.5,-366 1619.5,-372 1619.5,-372 1619.5,-384 1619.5,-384 1619.5,-390 1613.5,-396 1607.5,-396"/>
<text text-anchor="middle" x="1592.5" y="-374.3" font-family="Times,serif" font-size="14.00">BinOp</text>
</g>
<!-- ast.Compare object at 0x7ff6766247f0&#45;&gt;ast.BinOp object at 0x7ff676624d60 -->
<g id="edge65" class="edge">
<title>ast.Compare object at 0x7ff6766247f0&#45;&gt;ast.BinOp object at 0x7ff676624d60</title>
<path fill="none" stroke="black" d="M1497.32,-431.88C1515.23,-421.93 1537.88,-409.35 1556.59,-398.95"/>
<polygon fill="black" stroke="black" points="1558.38,-401.96 1565.42,-394.05 1554.98,-395.84 1558.38,-401.96"/>
</g>
<!-- ast.Eq object at 0x7ff6b61ee890 -->
<g id="node54" class="node">
<title>ast.Eq object at 0x7ff6b61ee890</title>
<path fill="#66cdaa" stroke="black" d="M1442.5,-396C1442.5,-396 1412.5,-396 1412.5,-396 1406.5,-396 1400.5,-390 1400.5,-384 1400.5,-384 1400.5,-372 1400.5,-372 1400.5,-366 1406.5,-360 1412.5,-360 1412.5,-360 1442.5,-360 1442.5,-360 1448.5,-360 1454.5,-366 1454.5,-372 1454.5,-372 1454.5,-384 1454.5,-384 1454.5,-390 1448.5,-396 1442.5,-396"/>
<text text-anchor="middle" x="1427.5" y="-374.3" font-family="Times,serif" font-size="14.00">Eq</text>
</g>
<!-- ast.Compare object at 0x7ff6766247f0&#45;&gt;ast.Eq object at 0x7ff6b61ee890 -->
<g id="edge70" class="edge">
<title>ast.Compare object at 0x7ff6766247f0&#45;&gt;ast.Eq object at 0x7ff6b61ee890</title>
<path fill="none" stroke="black" d="M1456.86,-431.7C1452.37,-423.64 1446.94,-413.89 1441.98,-404.98"/>
<polygon fill="black" stroke="black" points="1444.95,-403.14 1437.03,-396.1 1438.84,-406.54 1444.95,-403.14"/>
</g>
<!-- ast.Constant object at 0x7ff676627280 -->
<g id="node55" class="node">
<title>ast.Constant object at 0x7ff676627280</title>
<path fill="#66cdaa" stroke="black" d="M1526,-396C1526,-396 1485,-396 1485,-396 1479,-396 1473,-390 1473,-384 1473,-384 1473,-372 1473,-372 1473,-366 1479,-360 1485,-360 1485,-360 1526,-360 1526,-360 1532,-360 1538,-366 1538,-372 1538,-372 1538,-384 1538,-384 1538,-390 1532,-396 1526,-396"/>
<text text-anchor="middle" x="1505.5" y="-374.3" font-family="Times,serif" font-size="14.00">Constant</text>
</g>
<!-- ast.Compare object at 0x7ff6766247f0&#45;&gt;ast.Constant object at 0x7ff676627280 -->
<g id="edge71" class="edge">
<title>ast.Compare object at 0x7ff6766247f0&#45;&gt;ast.Constant object at 0x7ff676627280</title>
<path fill="none" stroke="black" d="M1476.14,-431.7C1480.63,-423.64 1486.06,-413.89 1491.02,-404.98"/>
<polygon fill="black" stroke="black" points="1494.16,-406.54 1495.97,-396.1 1488.05,-403.14 1494.16,-406.54"/>
</g>
<!-- ast.Name object at 0x7ff676624580 -->
<g id="node51" class="node">
<title>ast.Name object at 0x7ff676624580</title>
<path fill="#66cdaa" stroke="black" d="M1612.5,-324C1612.5,-324 1582.5,-324 1582.5,-324 1576.5,-324 1570.5,-318 1570.5,-312 1570.5,-312 1570.5,-300 1570.5,-300 1570.5,-294 1576.5,-288 1582.5,-288 1582.5,-288 1612.5,-288 1612.5,-288 1618.5,-288 1624.5,-294 1624.5,-300 1624.5,-300 1624.5,-312 1624.5,-312 1624.5,-318 1618.5,-324 1612.5,-324"/>
<text text-anchor="middle" x="1597.5" y="-302.3" font-family="Times,serif" font-size="14.00">Name</text>
</g>
<!-- ast.BinOp object at 0x7ff676624d60&#45;&gt;ast.Name object at 0x7ff676624580 -->
<g id="edge66" class="edge">
<title>ast.BinOp object at 0x7ff676624d60&#45;&gt;ast.Name object at 0x7ff676624580</title>
<path fill="none" stroke="black" d="M1593.74,-359.7C1594.29,-351.98 1594.95,-342.71 1595.56,-334.11"/>
<polygon fill="black" stroke="black" points="1599.06,-334.33 1596.28,-324.1 1592.07,-333.83 1599.06,-334.33"/>
</g>
<!-- ast.Mod object at 0x7ff6b61ee380 -->
<g id="node52" class="node">
<title>ast.Mod object at 0x7ff6b61ee380</title>
<path fill="#66cdaa" stroke="black" d="M1540.5,-324C1540.5,-324 1510.5,-324 1510.5,-324 1504.5,-324 1498.5,-318 1498.5,-312 1498.5,-312 1498.5,-300 1498.5,-300 1498.5,-294 1504.5,-288 1510.5,-288 1510.5,-288 1540.5,-288 1540.5,-288 1546.5,-288 1552.5,-294 1552.5,-300 1552.5,-300 1552.5,-312 1552.5,-312 1552.5,-318 1546.5,-324 1540.5,-324"/>
<text text-anchor="middle" x="1525.5" y="-302.3" font-family="Times,serif" font-size="14.00">Mod</text>
</g>
<!-- ast.BinOp object at 0x7ff676624d60&#45;&gt;ast.Mod object at 0x7ff6b61ee380 -->
<g id="edge68" class="edge">
<title>ast.BinOp object at 0x7ff676624d60&#45;&gt;ast.Mod object at 0x7ff6b61ee380</title>
<path fill="none" stroke="black" d="M1575.94,-359.7C1567.82,-351.22 1557.91,-340.86 1549.03,-331.58"/>
<polygon fill="black" stroke="black" points="1551.31,-328.91 1541.87,-324.1 1546.26,-333.75 1551.31,-328.91"/>
</g>
<!-- ast.Constant object at 0x7ff676627e80 -->
<g id="node53" class="node">
<title>ast.Constant object at 0x7ff676627e80</title>
<path fill="#66cdaa" stroke="black" d="M1696,-324C1696,-324 1655,-324 1655,-324 1649,-324 1643,-318 1643,-312 1643,-312 1643,-300 1643,-300 1643,-294 1649,-288 1655,-288 1655,-288 1696,-288 1696,-288 1702,-288 1708,-294 1708,-300 1708,-300 1708,-312 1708,-312 1708,-318 1702,-324 1696,-324"/>
<text text-anchor="middle" x="1675.5" y="-302.3" font-family="Times,serif" font-size="14.00">Constant</text>
</g>
<!-- ast.BinOp object at 0x7ff676624d60&#45;&gt;ast.Constant object at 0x7ff676627e80 -->
<g id="edge69" class="edge">
<title>ast.BinOp object at 0x7ff676624d60&#45;&gt;ast.Constant object at 0x7ff676627e80</title>
<path fill="none" stroke="black" d="M1613.02,-359.7C1623.37,-350.97 1636.09,-340.24 1647.34,-330.75"/>
<polygon fill="black" stroke="black" points="1649.83,-333.23 1655.22,-324.1 1645.32,-327.88 1649.83,-333.23"/>
</g>
<!-- ast.Name object at 0x7ff676624580&#45;&gt;ast.Load object at 0x7ff6b61edf60 -->
<g id="edge67" class="edge">
<title>ast.Name object at 0x7ff676624580&#45;&gt;ast.Load object at 0x7ff6b61edf60</title>
<path fill="none" stroke="black" d="M1596.81,-287.68C1594.04,-243.46 1580.05,-126.03 1509.5,-72 1469.51,-41.37 1120.54,-25.01 1004.7,-20.39"/>
<polygon fill="black" stroke="black" points="1004.67,-16.88 994.54,-19.99 1004.4,-23.88 1004.67,-16.88"/>
</g>
<!-- ast.Subscript object at 0x7ff676627ee0 -->
<g id="node57" class="node">
<title>ast.Subscript object at 0x7ff676627ee0</title>
<path fill="#66cdaa" stroke="black" d="M1217.5,-252C1217.5,-252 1173.5,-252 1173.5,-252 1167.5,-252 1161.5,-246 1161.5,-240 1161.5,-240 1161.5,-228 1161.5,-228 1161.5,-222 1167.5,-216 1173.5,-216 1173.5,-216 1217.5,-216 1217.5,-216 1223.5,-216 1229.5,-222 1229.5,-228 1229.5,-228 1229.5,-240 1229.5,-240 1229.5,-246 1223.5,-252 1217.5,-252"/>
<text text-anchor="middle" x="1195.5" y="-230.3" font-family="Times,serif" font-size="14.00">Subscript</text>
</g>
<!-- ast.Return object at 0x7ff676626bc0&#45;&gt;ast.Subscript object at 0x7ff676627ee0 -->
<g id="edge73" class="edge">
<title>ast.Return object at 0x7ff676626bc0&#45;&gt;ast.Subscript object at 0x7ff676627ee0</title>
<path fill="none" stroke="black" d="M1234.13,-431.85C1226.85,-394.75 1209.59,-306.81 1200.82,-262.1"/>
<polygon fill="black" stroke="black" points="1204.24,-261.37 1198.88,-252.23 1197.37,-262.72 1204.24,-261.37"/>
</g>
<!-- ast.Subscript object at 0x7ff676627ee0&#45;&gt;ast.Load object at 0x7ff6b61edf60 -->
<g id="edge81" class="edge">
<title>ast.Subscript object at 0x7ff676627ee0&#45;&gt;ast.Load object at 0x7ff6b61edf60</title>
<path fill="none" stroke="black" d="M1177.23,-215.85C1136.87,-177.97 1040.03,-87.08 993.42,-43.33"/>
<polygon fill="black" stroke="black" points="995.55,-40.52 985.86,-36.23 990.76,-45.63 995.55,-40.52"/>
</g>
<!-- ast.Call object at 0x7ff676626c80 -->
<g id="node58" class="node">
<title>ast.Call object at 0x7ff676626c80</title>
<path fill="#66cdaa" stroke="black" d="M1202.5,-180C1202.5,-180 1172.5,-180 1172.5,-180 1166.5,-180 1160.5,-174 1160.5,-168 1160.5,-168 1160.5,-156 1160.5,-156 1160.5,-150 1166.5,-144 1172.5,-144 1172.5,-144 1202.5,-144 1202.5,-144 1208.5,-144 1214.5,-150 1214.5,-156 1214.5,-156 1214.5,-168 1214.5,-168 1214.5,-174 1208.5,-180 1202.5,-180"/>
<text text-anchor="middle" x="1187.5" y="-158.3" font-family="Times,serif" font-size="14.00">Call</text>
</g>
<!-- ast.Subscript object at 0x7ff676627ee0&#45;&gt;ast.Call object at 0x7ff676626c80 -->
<g id="edge74" class="edge">
<title>ast.Subscript object at 0x7ff676627ee0&#45;&gt;ast.Call object at 0x7ff676626c80</title>
<path fill="none" stroke="black" d="M1193.52,-215.7C1192.64,-207.98 1191.58,-198.71 1190.6,-190.11"/>
<polygon fill="black" stroke="black" points="1194.07,-189.64 1189.45,-180.1 1187.11,-190.44 1194.07,-189.64"/>
</g>
<!-- ast.Slice object at 0x7ff676624a90 -->
<g id="node61" class="node">
<title>ast.Slice object at 0x7ff676624a90</title>
<path fill="#66cdaa" stroke="black" d="M1277.5,-180C1277.5,-180 1247.5,-180 1247.5,-180 1241.5,-180 1235.5,-174 1235.5,-168 1235.5,-168 1235.5,-156 1235.5,-156 1235.5,-150 1241.5,-144 1247.5,-144 1247.5,-144 1277.5,-144 1277.5,-144 1283.5,-144 1289.5,-150 1289.5,-156 1289.5,-156 1289.5,-168 1289.5,-168 1289.5,-174 1283.5,-180 1277.5,-180"/>
<text text-anchor="middle" x="1262.5" y="-158.3" font-family="Times,serif" font-size="14.00">Slice</text>
</g>
<!-- ast.Subscript object at 0x7ff676627ee0&#45;&gt;ast.Slice object at 0x7ff676624a90 -->
<g id="edge79" class="edge">
<title>ast.Subscript object at 0x7ff676627ee0&#45;&gt;ast.Slice object at 0x7ff676624a90</title>
<path fill="none" stroke="black" d="M1212.06,-215.7C1220.18,-207.22 1230.09,-196.86 1238.97,-187.58"/>
<polygon fill="black" stroke="black" points="1241.74,-189.75 1246.13,-180.1 1236.69,-184.91 1241.74,-189.75"/>
</g>
<!-- ast.Name object at 0x7ff676624ca0 -->
<g id="node59" class="node">
<title>ast.Name object at 0x7ff676624ca0</title>
<path fill="#66cdaa" stroke="black" d="M1202.5,-108C1202.5,-108 1172.5,-108 1172.5,-108 1166.5,-108 1160.5,-102 1160.5,-96 1160.5,-96 1160.5,-84 1160.5,-84 1160.5,-78 1166.5,-72 1172.5,-72 1172.5,-72 1202.5,-72 1202.5,-72 1208.5,-72 1214.5,-78 1214.5,-84 1214.5,-84 1214.5,-96 1214.5,-96 1214.5,-102 1208.5,-108 1202.5,-108"/>
<text text-anchor="middle" x="1187.5" y="-86.3" font-family="Times,serif" font-size="14.00">Name</text>
</g>
<!-- ast.Call object at 0x7ff676626c80&#45;&gt;ast.Name object at 0x7ff676624ca0 -->
<g id="edge75" class="edge">
<title>ast.Call object at 0x7ff676626c80&#45;&gt;ast.Name object at 0x7ff676624ca0</title>
<path fill="none" stroke="black" d="M1187.5,-143.7C1187.5,-135.98 1187.5,-126.71 1187.5,-118.11"/>
<polygon fill="black" stroke="black" points="1191,-118.1 1187.5,-108.1 1184,-118.1 1191,-118.1"/>
</g>
<!-- ast.Name object at 0x7ff676627160 -->
<g id="node60" class="node">
<title>ast.Name object at 0x7ff676627160</title>
<path fill="#66cdaa" stroke="black" d="M1130.5,-108C1130.5,-108 1100.5,-108 1100.5,-108 1094.5,-108 1088.5,-102 1088.5,-96 1088.5,-96 1088.5,-84 1088.5,-84 1088.5,-78 1094.5,-72 1100.5,-72 1100.5,-72 1130.5,-72 1130.5,-72 1136.5,-72 1142.5,-78 1142.5,-84 1142.5,-84 1142.5,-96 1142.5,-96 1142.5,-102 1136.5,-108 1130.5,-108"/>
<text text-anchor="middle" x="1115.5" y="-86.3" font-family="Times,serif" font-size="14.00">Name</text>
</g>
<!-- ast.Call object at 0x7ff676626c80&#45;&gt;ast.Name object at 0x7ff676627160 -->
<g id="edge77" class="edge">
<title>ast.Call object at 0x7ff676626c80&#45;&gt;ast.Name object at 0x7ff676627160</title>
<path fill="none" stroke="black" d="M1169.7,-143.7C1160.9,-135.14 1150.12,-124.66 1140.5,-115.3"/>
<polygon fill="black" stroke="black" points="1142.7,-112.57 1133.09,-108.1 1137.82,-117.58 1142.7,-112.57"/>
</g>
<!-- ast.Name object at 0x7ff676624ca0&#45;&gt;ast.Load object at 0x7ff6b61edf60 -->
<g id="edge76" class="edge">
<title>ast.Name object at 0x7ff676624ca0&#45;&gt;ast.Load object at 0x7ff6b61edf60</title>
<path fill="none" stroke="black" d="M1160.18,-75.54C1157.28,-74.28 1154.35,-73.07 1151.5,-72 1101.75,-53.23 1042.33,-37.22 1004.75,-27.85"/>
<polygon fill="black" stroke="black" points="1005.31,-24.39 994.76,-25.39 1003.63,-31.18 1005.31,-24.39"/>
</g>
<!-- ast.Name object at 0x7ff676627160&#45;&gt;ast.Load object at 0x7ff6b61edf60 -->
<g id="edge78" class="edge">
<title>ast.Name object at 0x7ff676627160&#45;&gt;ast.Load object at 0x7ff6b61edf60</title>
<path fill="none" stroke="black" d="M1088.35,-76.16C1064.65,-64.95 1030.04,-48.58 1003.92,-36.23"/>
<polygon fill="black" stroke="black" points="1005.26,-32.99 994.72,-31.88 1002.27,-39.32 1005.26,-32.99"/>
</g>
<!-- ast.Constant object at 0x7ff67628ab30 -->
<g id="node62" class="node">
<title>ast.Constant object at 0x7ff67628ab30</title>
<path fill="#66cdaa" stroke="black" d="M1286,-108C1286,-108 1245,-108 1245,-108 1239,-108 1233,-102 1233,-96 1233,-96 1233,-84 1233,-84 1233,-78 1239,-72 1245,-72 1245,-72 1286,-72 1286,-72 1292,-72 1298,-78 1298,-84 1298,-84 1298,-96 1298,-96 1298,-102 1292,-108 1286,-108"/>
<text text-anchor="middle" x="1265.5" y="-86.3" font-family="Times,serif" font-size="14.00">Constant</text>
</g>
<!-- ast.Slice object at 0x7ff676624a90&#45;&gt;ast.Constant object at 0x7ff67628ab30 -->
<g id="edge80" class="edge">
<title>ast.Slice object at 0x7ff676624a90&#45;&gt;ast.Constant object at 0x7ff67628ab30</title>
<path fill="none" stroke="black" d="M1263.24,-143.7C1263.57,-135.98 1263.97,-126.71 1264.34,-118.11"/>
<polygon fill="black" stroke="black" points="1267.84,-118.25 1264.77,-108.1 1260.84,-117.95 1267.84,-118.25"/>
</g>
<!-- ast.Subscript object at 0x7ff674cb6c20 -->
<g id="node64" class="node">
<title>ast.Subscript object at 0x7ff674cb6c20</title>
<path fill="#66cdaa" stroke="black" d="M1352.5,-396C1352.5,-396 1308.5,-396 1308.5,-396 1302.5,-396 1296.5,-390 1296.5,-384 1296.5,-384 1296.5,-372 1296.5,-372 1296.5,-366 1302.5,-360 1308.5,-360 1308.5,-360 1352.5,-360 1352.5,-360 1358.5,-360 1364.5,-366 1364.5,-372 1364.5,-372 1364.5,-384 1364.5,-384 1364.5,-390 1358.5,-396 1352.5,-396"/>
<text text-anchor="middle" x="1330.5" y="-374.3" font-family="Times,serif" font-size="14.00">Subscript</text>
</g>
<!-- ast.Return object at 0x7ff6762889d0&#45;&gt;ast.Subscript object at 0x7ff674cb6c20 -->
<g id="edge83" class="edge">
<title>ast.Return object at 0x7ff6762889d0&#45;&gt;ast.Subscript object at 0x7ff674cb6c20</title>
<path fill="none" stroke="black" d="M1327.49,-431.7C1327.93,-423.98 1328.46,-414.71 1328.95,-406.11"/>
<polygon fill="black" stroke="black" points="1332.45,-406.29 1329.52,-396.1 1325.46,-405.89 1332.45,-406.29"/>
</g>
<!-- ast.Subscript object at 0x7ff674cb6c20&#45;&gt;ast.Load object at 0x7ff6b61edf60 -->
<g id="edge94" class="edge">
<title>ast.Subscript object at 0x7ff674cb6c20&#45;&gt;ast.Load object at 0x7ff6b61edf60</title>
<path fill="none" stroke="black" d="M1329.71,-359.96C1328.54,-333.3 1326.5,-280.13 1326.5,-235 1326.5,-235 1326.5,-235 1326.5,-161 1326.5,-120.55 1336.89,-99.79 1307.5,-72 1264.49,-31.32 1084.32,-21.86 1005.12,-19.66"/>
<polygon fill="black" stroke="black" points="1004.72,-16.15 994.64,-19.4 1004.55,-23.15 1004.72,-16.15"/>
</g>
<!-- ast.Call object at 0x7ff674cb7940 -->
<g id="node65" class="node">
<title>ast.Call object at 0x7ff674cb7940</title>
<path fill="#66cdaa" stroke="black" d="M1396.5,-324C1396.5,-324 1366.5,-324 1366.5,-324 1360.5,-324 1354.5,-318 1354.5,-312 1354.5,-312 1354.5,-300 1354.5,-300 1354.5,-294 1360.5,-288 1366.5,-288 1366.5,-288 1396.5,-288 1396.5,-288 1402.5,-288 1408.5,-294 1408.5,-300 1408.5,-300 1408.5,-312 1408.5,-312 1408.5,-318 1402.5,-324 1396.5,-324"/>
<text text-anchor="middle" x="1381.5" y="-302.3" font-family="Times,serif" font-size="14.00">Call</text>
</g>
<!-- ast.Subscript object at 0x7ff674cb6c20&#45;&gt;ast.Call object at 0x7ff674cb7940 -->
<g id="edge84" class="edge">
<title>ast.Subscript object at 0x7ff674cb6c20&#45;&gt;ast.Call object at 0x7ff674cb7940</title>
<path fill="none" stroke="black" d="M1343.11,-359.7C1349.1,-351.47 1356.38,-341.48 1362.98,-332.42"/>
<polygon fill="black" stroke="black" points="1365.98,-334.25 1369.04,-324.1 1360.32,-330.13 1365.98,-334.25"/>
</g>
<!-- ast.Slice object at 0x7ff674cb4f10 -->
<g id="node70" class="node">
<title>ast.Slice object at 0x7ff674cb4f10</title>
<path fill="#66cdaa" stroke="black" d="M1468.5,-324C1468.5,-324 1438.5,-324 1438.5,-324 1432.5,-324 1426.5,-318 1426.5,-312 1426.5,-312 1426.5,-300 1426.5,-300 1426.5,-294 1432.5,-288 1438.5,-288 1438.5,-288 1468.5,-288 1468.5,-288 1474.5,-288 1480.5,-294 1480.5,-300 1480.5,-300 1480.5,-312 1480.5,-312 1480.5,-318 1474.5,-324 1468.5,-324"/>
<text text-anchor="middle" x="1453.5" y="-302.3" font-family="Times,serif" font-size="14.00">Slice</text>
</g>
<!-- ast.Subscript object at 0x7ff674cb6c20&#45;&gt;ast.Slice object at 0x7ff674cb4f10 -->
<g id="edge92" class="edge">
<title>ast.Subscript object at 0x7ff674cb6c20&#45;&gt;ast.Slice object at 0x7ff674cb4f10</title>
<path fill="none" stroke="black" d="M1360.59,-359.88C1377.67,-350.16 1399.17,-337.92 1417.18,-327.67"/>
<polygon fill="black" stroke="black" points="1419.28,-330.5 1426.24,-322.51 1415.82,-324.42 1419.28,-330.5"/>
</g>
<!-- ast.Attribute object at 0x7ff674cb55a0 -->
<g id="node66" class="node">
<title>ast.Attribute object at 0x7ff674cb55a0</title>
<path fill="#66cdaa" stroke="black" d="M1408,-252C1408,-252 1367,-252 1367,-252 1361,-252 1355,-246 1355,-240 1355,-240 1355,-228 1355,-228 1355,-222 1361,-216 1367,-216 1367,-216 1408,-216 1408,-216 1414,-216 1420,-222 1420,-228 1420,-228 1420,-240 1420,-240 1420,-246 1414,-252 1408,-252"/>
<text text-anchor="middle" x="1387.5" y="-230.3" font-family="Times,serif" font-size="14.00">Attribute</text>
</g>
<!-- ast.Call object at 0x7ff674cb7940&#45;&gt;ast.Attribute object at 0x7ff674cb55a0 -->
<g id="edge85" class="edge">
<title>ast.Call object at 0x7ff674cb7940&#45;&gt;ast.Attribute object at 0x7ff674cb55a0</title>
<path fill="none" stroke="black" d="M1382.98,-287.7C1383.64,-279.98 1384.44,-270.71 1385.18,-262.11"/>
<polygon fill="black" stroke="black" points="1388.67,-262.37 1386.03,-252.1 1381.69,-261.77 1388.67,-262.37"/>
</g>
<!-- ast.Attribute object at 0x7ff674cb55a0&#45;&gt;ast.Load object at 0x7ff6b61edf60 -->
<g id="edge91" class="edge">
<title>ast.Attribute object at 0x7ff674cb55a0&#45;&gt;ast.Load object at 0x7ff6b61edf60</title>
<path fill="none" stroke="black" d="M1412.41,-215.96C1454.64,-185.09 1531.76,-118.77 1489.5,-72 1457.07,-36.11 1119.12,-23.29 1004.95,-19.97"/>
<polygon fill="black" stroke="black" points="1004.71,-16.46 994.61,-19.67 1004.51,-23.45 1004.71,-16.46"/>
</g>
<!-- ast.Call object at 0x7ff674cb5a50 -->
<g id="node67" class="node">
<title>ast.Call object at 0x7ff674cb5a50</title>
<path fill="#66cdaa" stroke="black" d="M1402.5,-180C1402.5,-180 1372.5,-180 1372.5,-180 1366.5,-180 1360.5,-174 1360.5,-168 1360.5,-168 1360.5,-156 1360.5,-156 1360.5,-150 1366.5,-144 1372.5,-144 1372.5,-144 1402.5,-144 1402.5,-144 1408.5,-144 1414.5,-150 1414.5,-156 1414.5,-156 1414.5,-168 1414.5,-168 1414.5,-174 1408.5,-180 1402.5,-180"/>
<text text-anchor="middle" x="1387.5" y="-158.3" font-family="Times,serif" font-size="14.00">Call</text>
</g>
<!-- ast.Attribute object at 0x7ff674cb55a0&#45;&gt;ast.Call object at 0x7ff674cb5a50 -->
<g id="edge86" class="edge">
<title>ast.Attribute object at 0x7ff674cb55a0&#45;&gt;ast.Call object at 0x7ff674cb5a50</title>
<path fill="none" stroke="black" d="M1387.5,-215.7C1387.5,-207.98 1387.5,-198.71 1387.5,-190.11"/>
<polygon fill="black" stroke="black" points="1391,-190.1 1387.5,-180.1 1384,-190.1 1391,-190.1"/>
</g>
<!-- ast.Name object at 0x7ff674cb7a30 -->
<g id="node68" class="node">
<title>ast.Name object at 0x7ff674cb7a30</title>
<path fill="#66cdaa" stroke="black" d="M1396.5,-108C1396.5,-108 1366.5,-108 1366.5,-108 1360.5,-108 1354.5,-102 1354.5,-96 1354.5,-96 1354.5,-84 1354.5,-84 1354.5,-78 1360.5,-72 1366.5,-72 1366.5,-72 1396.5,-72 1396.5,-72 1402.5,-72 1408.5,-78 1408.5,-84 1408.5,-84 1408.5,-96 1408.5,-96 1408.5,-102 1402.5,-108 1396.5,-108"/>
<text text-anchor="middle" x="1381.5" y="-86.3" font-family="Times,serif" font-size="14.00">Name</text>
</g>
<!-- ast.Call object at 0x7ff674cb5a50&#45;&gt;ast.Name object at 0x7ff674cb7a30 -->
<g id="edge87" class="edge">
<title>ast.Call object at 0x7ff674cb5a50&#45;&gt;ast.Name object at 0x7ff674cb7a30</title>
<path fill="none" stroke="black" d="M1386.02,-143.7C1385.36,-135.98 1384.56,-126.71 1383.82,-118.11"/>
<polygon fill="black" stroke="black" points="1387.31,-117.77 1382.97,-108.1 1380.33,-118.37 1387.31,-117.77"/>
</g>
<!-- ast.Name object at 0x7ff674cb5600 -->
<g id="node69" class="node">
<title>ast.Name object at 0x7ff674cb5600</title>
<path fill="#66cdaa" stroke="black" d="M1468.5,-108C1468.5,-108 1438.5,-108 1438.5,-108 1432.5,-108 1426.5,-102 1426.5,-96 1426.5,-96 1426.5,-84 1426.5,-84 1426.5,-78 1432.5,-72 1438.5,-72 1438.5,-72 1468.5,-72 1468.5,-72 1474.5,-72 1480.5,-78 1480.5,-84 1480.5,-84 1480.5,-96 1480.5,-96 1480.5,-102 1474.5,-108 1468.5,-108"/>
<text text-anchor="middle" x="1453.5" y="-86.3" font-family="Times,serif" font-size="14.00">Name</text>
</g>
<!-- ast.Call object at 0x7ff674cb5a50&#45;&gt;ast.Name object at 0x7ff674cb5600 -->
<g id="edge89" class="edge">
<title>ast.Call object at 0x7ff674cb5a50&#45;&gt;ast.Name object at 0x7ff674cb5600</title>
<path fill="none" stroke="black" d="M1403.81,-143.7C1411.81,-135.22 1421.57,-124.86 1430.32,-115.58"/>
<polygon fill="black" stroke="black" points="1433.06,-117.78 1437.37,-108.1 1427.97,-112.98 1433.06,-117.78"/>
</g>
<!-- ast.Name object at 0x7ff674cb7a30&#45;&gt;ast.Load object at 0x7ff6b61edf60 -->
<g id="edge88" class="edge">
<title>ast.Name object at 0x7ff674cb7a30&#45;&gt;ast.Load object at 0x7ff6b61edf60</title>
<path fill="none" stroke="black" d="M1354.49,-76.68C1349.89,-74.91 1345.11,-73.26 1340.5,-72 1220.43,-39.14 1072.74,-25.85 1004.85,-21.19"/>
<polygon fill="black" stroke="black" points="1004.87,-17.68 994.66,-20.51 1004.4,-24.67 1004.87,-17.68"/>
</g>
<!-- ast.Name object at 0x7ff674cb5600&#45;&gt;ast.Load object at 0x7ff6b61edf60 -->
<g id="edge90" class="edge">
<title>ast.Name object at 0x7ff674cb5600&#45;&gt;ast.Load object at 0x7ff6b61edf60</title>
<path fill="none" stroke="black" d="M1426.34,-75.06C1423.41,-73.89 1420.42,-72.84 1417.5,-72 1268.9,-29.4 1083.29,-20.97 1005.04,-19.35"/>
<polygon fill="black" stroke="black" points="1004.79,-15.85 994.72,-19.17 1004.66,-22.85 1004.79,-15.85"/>
</g>
<!-- ast.Constant object at 0x7ff674cb6a40 -->
<g id="node71" class="node">
<title>ast.Constant object at 0x7ff674cb6a40</title>
<path fill="#66cdaa" stroke="black" d="M1491,-252C1491,-252 1450,-252 1450,-252 1444,-252 1438,-246 1438,-240 1438,-240 1438,-228 1438,-228 1438,-222 1444,-216 1450,-216 1450,-216 1491,-216 1491,-216 1497,-216 1503,-222 1503,-228 1503,-228 1503,-240 1503,-240 1503,-246 1497,-252 1491,-252"/>
<text text-anchor="middle" x="1470.5" y="-230.3" font-family="Times,serif" font-size="14.00">Constant</text>
</g>
<!-- ast.Slice object at 0x7ff674cb4f10&#45;&gt;ast.Constant object at 0x7ff674cb6a40 -->
<g id="edge93" class="edge">
<title>ast.Slice object at 0x7ff674cb4f10&#45;&gt;ast.Constant object at 0x7ff674cb6a40</title>
<path fill="none" stroke="black" d="M1457.7,-287.7C1459.6,-279.9 1461.88,-270.51 1463.98,-261.83"/>
<polygon fill="black" stroke="black" points="1467.39,-262.65 1466.35,-252.1 1460.58,-261 1467.39,-262.65"/>
</g>
</g>
</svg>
