<?xml version="1.0" encoding="UTF-8" standalone="no"?>
<!DOCTYPE svg PUBLIC "-//W3C//DTD SVG 1.1//EN"
 "http://www.w3.org/Graphics/SVG/1.1/DTD/svg11.dtd">
<!-- Generated by graphviz version 2.43.0 (0)
 -->
<!-- Title: %3 Pages: 1 -->
<svg width="613pt" height="692pt"
 viewBox="0.00 0.00 612.50 692.00" xmlns="http://www.w3.org/2000/svg" xmlns:xlink="http://www.w3.org/1999/xlink">
<g id="graph0" class="graph" transform="scale(1 1) rotate(0) translate(4 688)">
<title>%3</title>
<polygon fill="white" stroke="transparent" points="-4,4 -4,-688 608.5,-688 608.5,4 -4,4"/>
<!-- ast.Module object at 0x7fbe3a8d2c80 -->
<g id="node1" class="node">
<title>ast.Module object at 0x7fbe3a8d2c80</title>
<path fill="#66cdaa" stroke="black" d="M119,-684C119,-684 73,-684 73,-684 67,-684 61,-678 61,-672 61,-672 61,-660 61,-660 61,-654 67,-648 73,-648 73,-648 119,-648 119,-648 125,-648 131,-654 131,-660 131,-660 131,-672 131,-672 131,-678 125,-684 119,-684"/>
<text text-anchor="middle" x="96" y="-662.3" font-family="Times,serif" font-size="14.00">Module</text>
</g>
<!-- ast.FunctionDef object at 0x7fbe394cedd0 -->
<g id="node2" class="node">
<title>ast.FunctionDef object at 0x7fbe394cedd0</title>
<path fill="#66cdaa" stroke="black" d="M136,-612C136,-612 56,-612 56,-612 50,-612 44,-606 44,-600 44,-600 44,-588 44,-588 44,-582 50,-576 56,-576 56,-576 136,-576 136,-576 142,-576 148,-582 148,-588 148,-588 148,-600 148,-600 148,-606 142,-612 136,-612"/>
<text text-anchor="middle" x="96" y="-590.3" font-family="Times,serif" font-size="14.00">FunctionDef</text>
</g>
<!-- ast.Module object at 0x7fbe3a8d2c80&#45;&gt;ast.FunctionDef object at 0x7fbe394cedd0 -->
<g id="edge1" class="edge">
<title>ast.Module object at 0x7fbe3a8d2c80&#45;&gt;ast.FunctionDef object at 0x7fbe394cedd0</title>
<path fill="none" stroke="black" d="M96,-647.7C96,-639.98 96,-630.71 96,-622.11"/>
<polygon fill="black" stroke="black" points="99.5,-622.1 96,-612.1 92.5,-622.1 99.5,-622.1"/>
</g>
<!-- ast.arguments object at 0x7fbe394cf9d0 -->
<g id="node3" class="node">
<title>ast.arguments object at 0x7fbe394cf9d0</title>
<path fill="#66cdaa" stroke="black" d="M82,-540C82,-540 12,-540 12,-540 6,-540 0,-534 0,-528 0,-528 0,-516 0,-516 0,-510 6,-504 12,-504 12,-504 82,-504 82,-504 88,-504 94,-510 94,-516 94,-516 94,-528 94,-528 94,-534 88,-540 82,-540"/>
<text text-anchor="middle" x="47" y="-518.3" font-family="Times,serif" font-size="14.00">arguments</text>
</g>
<!-- ast.FunctionDef object at 0x7fbe394cedd0&#45;&gt;ast.arguments object at 0x7fbe394cf9d0 -->
<g id="edge2" class="edge">
<title>ast.FunctionDef object at 0x7fbe394cedd0&#45;&gt;ast.arguments object at 0x7fbe394cf9d0</title>
<path fill="none" stroke="black" d="M83.89,-575.7C78.13,-567.47 71.14,-557.48 64.79,-548.42"/>
<polygon fill="black" stroke="black" points="67.58,-546.29 58.97,-540.1 61.84,-550.3 67.58,-546.29"/>
</g>
<!-- ast.Return object at 0x7fbe394cfd00 -->
<g id="node5" class="node">
<title>ast.Return object at 0x7fbe394cfd00</title>
<path fill="#66cdaa" stroke="black" d="M166,-540C166,-540 124,-540 124,-540 118,-540 112,-534 112,-528 112,-528 112,-516 112,-516 112,-510 118,-504 124,-504 124,-504 166,-504 166,-504 172,-504 178,-510 178,-516 178,-516 178,-528 178,-528 178,-534 172,-540 166,-540"/>
<text text-anchor="middle" x="145" y="-518.3" font-family="Times,serif" font-size="14.00">Return</text>
</g>
<!-- ast.FunctionDef object at 0x7fbe394cedd0&#45;&gt;ast.Return object at 0x7fbe394cfd00 -->
<g id="edge4" class="edge">
<title>ast.FunctionDef object at 0x7fbe394cedd0&#45;&gt;ast.Return object at 0x7fbe394cfd00</title>
<path fill="none" stroke="black" d="M108.11,-575.7C113.87,-567.47 120.86,-557.48 127.21,-548.42"/>
<polygon fill="black" stroke="black" points="130.16,-550.3 133.03,-540.1 124.42,-546.29 130.16,-550.3"/>
</g>
<!-- ast.arg object at 0x7fbe394ce0e0 -->
<g id="node4" class="node">
<title>ast.arg object at 0x7fbe394ce0e0</title>
<path fill="#66cdaa" stroke="black" d="M62,-468C62,-468 32,-468 32,-468 26,-468 20,-462 20,-456 20,-456 20,-444 20,-444 20,-438 26,-432 32,-432 32,-432 62,-432 62,-432 68,-432 74,-438 74,-444 74,-444 74,-456 74,-456 74,-462 68,-468 62,-468"/>
<text text-anchor="middle" x="47" y="-446.3" font-family="Times,serif" font-size="14.00">arg</text>
</g>
<!-- ast.arguments object at 0x7fbe394cf9d0&#45;&gt;ast.arg object at 0x7fbe394ce0e0 -->
<g id="edge3" class="edge">
<title>ast.arguments object at 0x7fbe394cf9d0&#45;&gt;ast.arg object at 0x7fbe394ce0e0</title>
<path fill="none" stroke="black" d="M47,-503.7C47,-495.98 47,-486.71 47,-478.11"/>
<polygon fill="black" stroke="black" points="50.5,-478.1 47,-468.1 43.5,-478.1 50.5,-478.1"/>
</g>
<!-- ast.ListComp object at 0x7fbe394ccfd0 -->
<g id="node6" class="node">
<title>ast.ListComp object at 0x7fbe394ccfd0</title>
<path fill="#66cdaa" stroke="black" d="M175.5,-468C175.5,-468 114.5,-468 114.5,-468 108.5,-468 102.5,-462 102.5,-456 102.5,-456 102.5,-444 102.5,-444 102.5,-438 108.5,-432 114.5,-432 114.5,-432 175.5,-432 175.5,-432 181.5,-432 187.5,-438 187.5,-444 187.5,-444 187.5,-456 187.5,-456 187.5,-462 181.5,-468 175.5,-468"/>
<text text-anchor="middle" x="145" y="-446.3" font-family="Times,serif" font-size="14.00">ListComp</text>
</g>
<!-- ast.Return object at 0x7fbe394cfd00&#45;&gt;ast.ListComp object at 0x7fbe394ccfd0 -->
<g id="edge5" class="edge">
<title>ast.Return object at 0x7fbe394cfd00&#45;&gt;ast.ListComp object at 0x7fbe394ccfd0</title>
<path fill="none" stroke="black" d="M145,-503.7C145,-495.98 145,-486.71 145,-478.11"/>
<polygon fill="black" stroke="black" points="148.5,-478.1 145,-468.1 141.5,-478.1 148.5,-478.1"/>
</g>
<!-- ast.Name object at 0x7fbe394ce470 -->
<g id="node7" class="node">
<title>ast.Name object at 0x7fbe394ce470</title>
<path fill="#66cdaa" stroke="black" d="M103.5,-396C103.5,-396 68.5,-396 68.5,-396 62.5,-396 56.5,-390 56.5,-384 56.5,-384 56.5,-372 56.5,-372 56.5,-366 62.5,-360 68.5,-360 68.5,-360 103.5,-360 103.5,-360 109.5,-360 115.5,-366 115.5,-372 115.5,-372 115.5,-384 115.5,-384 115.5,-390 109.5,-396 103.5,-396"/>
<text text-anchor="middle" x="86" y="-374.3" font-family="Times,serif" font-size="14.00">Name</text>
</g>
<!-- ast.ListComp object at 0x7fbe394ccfd0&#45;&gt;ast.Name object at 0x7fbe394ce470 -->
<g id="edge6" class="edge">
<title>ast.ListComp object at 0x7fbe394ccfd0&#45;&gt;ast.Name object at 0x7fbe394ce470</title>
<path fill="none" stroke="black" d="M130.42,-431.7C123.34,-423.3 114.72,-413.07 106.95,-403.86"/>
<polygon fill="black" stroke="black" points="109.54,-401.49 100.42,-396.1 104.19,-406.01 109.54,-401.49"/>
</g>
<!-- ast.comprehension object at 0x7fbe394cc8e0 -->
<g id="node9" class="node">
<title>ast.comprehension object at 0x7fbe394cc8e0</title>
<path fill="#66cdaa" stroke="black" d="M255.5,-396C255.5,-396 154.5,-396 154.5,-396 148.5,-396 142.5,-390 142.5,-384 142.5,-384 142.5,-372 142.5,-372 142.5,-366 148.5,-360 154.5,-360 154.5,-360 255.5,-360 255.5,-360 261.5,-360 267.5,-366 267.5,-372 267.5,-372 267.5,-384 267.5,-384 267.5,-390 261.5,-396 255.5,-396"/>
<text text-anchor="middle" x="205" y="-374.3" font-family="Times,serif" font-size="14.00">comprehension</text>
</g>
<!-- ast.ListComp object at 0x7fbe394ccfd0&#45;&gt;ast.comprehension object at 0x7fbe394cc8e0 -->
<g id="edge8" class="edge">
<title>ast.ListComp object at 0x7fbe394ccfd0&#45;&gt;ast.comprehension object at 0x7fbe394cc8e0</title>
<path fill="none" stroke="black" d="M159.83,-431.7C167.02,-423.3 175.8,-413.07 183.69,-403.86"/>
<polygon fill="black" stroke="black" points="186.49,-405.97 190.34,-396.1 181.17,-401.42 186.49,-405.97"/>
</g>
<!-- ast.Load object at 0x7fbe433f9750 -->
<g id="node8" class="node">
<title>ast.Load object at 0x7fbe433f9750</title>
<path fill="#66cdaa" stroke="black" d="M392,-108C392,-108 362,-108 362,-108 356,-108 350,-102 350,-96 350,-96 350,-84 350,-84 350,-78 356,-72 362,-72 362,-72 392,-72 392,-72 398,-72 404,-78 404,-84 404,-84 404,-96 404,-96 404,-102 398,-108 392,-108"/>
<text text-anchor="middle" x="377" y="-86.3" font-family="Times,serif" font-size="14.00">Load</text>
</g>
<!-- ast.Name object at 0x7fbe394ce470&#45;&gt;ast.Load object at 0x7fbe433f9750 -->
<g id="edge7" class="edge">
<title>ast.Name object at 0x7fbe394ce470&#45;&gt;ast.Load object at 0x7fbe433f9750</title>
<path fill="none" stroke="black" d="M82.35,-359.89C73.94,-315.1 58.78,-194.4 127,-144 160.4,-119.33 278.6,-102.4 339.75,-95.08"/>
<polygon fill="black" stroke="black" points="340.23,-98.55 349.76,-93.91 339.42,-91.6 340.23,-98.55"/>
</g>
<!-- ast.Name object at 0x7fbe394cc970 -->
<g id="node10" class="node">
<title>ast.Name object at 0x7fbe394cc970</title>
<path fill="#66cdaa" stroke="black" d="M182.5,-324C182.5,-324 147.5,-324 147.5,-324 141.5,-324 135.5,-318 135.5,-312 135.5,-312 135.5,-300 135.5,-300 135.5,-294 141.5,-288 147.5,-288 147.5,-288 182.5,-288 182.5,-288 188.5,-288 194.5,-294 194.5,-300 194.5,-300 194.5,-312 194.5,-312 194.5,-318 188.5,-324 182.5,-324"/>
<text text-anchor="middle" x="165" y="-302.3" font-family="Times,serif" font-size="14.00">Name</text>
</g>
<!-- ast.comprehension object at 0x7fbe394cc8e0&#45;&gt;ast.Name object at 0x7fbe394cc970 -->
<g id="edge9" class="edge">
<title>ast.comprehension object at 0x7fbe394cc8e0&#45;&gt;ast.Name object at 0x7fbe394cc970</title>
<path fill="none" stroke="black" d="M195.11,-359.7C190.51,-351.64 184.94,-341.89 179.85,-332.98"/>
<polygon fill="black" stroke="black" points="182.77,-331.05 174.77,-324.1 176.7,-334.52 182.77,-331.05"/>
</g>
<!-- ast.Subscript object at 0x7fbe394cf730 -->
<g id="node12" class="node">
<title>ast.Subscript object at 0x7fbe394cf730</title>
<path fill="#66cdaa" stroke="black" d="M503,-252C503,-252 441,-252 441,-252 435,-252 429,-246 429,-240 429,-240 429,-228 429,-228 429,-222 435,-216 441,-216 441,-216 503,-216 503,-216 509,-216 515,-222 515,-228 515,-228 515,-240 515,-240 515,-246 509,-252 503,-252"/>
<text text-anchor="middle" x="472" y="-230.3" font-family="Times,serif" font-size="14.00">Subscript</text>
</g>
<!-- ast.comprehension object at 0x7fbe394cc8e0&#45;&gt;ast.Subscript object at 0x7fbe394cf730 -->
<g id="edge11" class="edge">
<title>ast.comprehension object at 0x7fbe394cc8e0&#45;&gt;ast.Subscript object at 0x7fbe394cf730</title>
<path fill="none" stroke="black" d="M247.27,-359.9C270.55,-350.09 299.75,-337.15 325,-324 364.57,-303.39 408.06,-276.49 437.4,-257.68"/>
<polygon fill="black" stroke="black" points="439.52,-260.48 446.03,-252.12 435.73,-254.6 439.52,-260.48"/>
</g>
<!-- ast.Compare object at 0x7fbe394cfa60 -->
<g id="node19" class="node">
<title>ast.Compare object at 0x7fbe394cfa60</title>
<path fill="#66cdaa" stroke="black" d="M304.5,-324C304.5,-324 247.5,-324 247.5,-324 241.5,-324 235.5,-318 235.5,-312 235.5,-312 235.5,-300 235.5,-300 235.5,-294 241.5,-288 247.5,-288 247.5,-288 304.5,-288 304.5,-288 310.5,-288 316.5,-294 316.5,-300 316.5,-300 316.5,-312 316.5,-312 316.5,-318 310.5,-324 304.5,-324"/>
<text text-anchor="middle" x="276" y="-302.3" font-family="Times,serif" font-size="14.00">Compare</text>
</g>
<!-- ast.comprehension object at 0x7fbe394cc8e0&#45;&gt;ast.Compare object at 0x7fbe394cfa60 -->
<g id="edge20" class="edge">
<title>ast.comprehension object at 0x7fbe394cc8e0&#45;&gt;ast.Compare object at 0x7fbe394cfa60</title>
<path fill="none" stroke="black" d="M222.55,-359.7C231.23,-351.14 241.86,-340.66 251.35,-331.3"/>
<polygon fill="black" stroke="black" points="253.99,-333.62 258.65,-324.1 249.07,-328.63 253.99,-333.62"/>
</g>
<!-- ast.Store object at 0x7fbe433f97b0 -->
<g id="node11" class="node">
<title>ast.Store object at 0x7fbe433f97b0</title>
<path fill="#66cdaa" stroke="black" d="M140,-252C140,-252 108,-252 108,-252 102,-252 96,-246 96,-240 96,-240 96,-228 96,-228 96,-222 102,-216 108,-216 108,-216 140,-216 140,-216 146,-216 152,-222 152,-228 152,-228 152,-240 152,-240 152,-246 146,-252 140,-252"/>
<text text-anchor="middle" x="124" y="-230.3" font-family="Times,serif" font-size="14.00">Store</text>
</g>
<!-- ast.Name object at 0x7fbe394cc970&#45;&gt;ast.Store object at 0x7fbe433f97b0 -->
<g id="edge10" class="edge">
<title>ast.Name object at 0x7fbe394cc970&#45;&gt;ast.Store object at 0x7fbe433f97b0</title>
<path fill="none" stroke="black" d="M154.87,-287.7C150.15,-279.64 144.44,-269.89 139.22,-260.98"/>
<polygon fill="black" stroke="black" points="142.09,-258.96 134.02,-252.1 136.05,-262.5 142.09,-258.96"/>
</g>
<!-- ast.Subscript object at 0x7fbe394cf730&#45;&gt;ast.Load object at 0x7fbe433f9750 -->
<g id="edge19" class="edge">
<title>ast.Subscript object at 0x7fbe394cf730&#45;&gt;ast.Load object at 0x7fbe433f9750</title>
<path fill="none" stroke="black" d="M471.73,-215.84C470.67,-196.8 466.59,-165.87 452,-144 442.25,-129.39 427.01,-117.54 412.81,-108.78"/>
<polygon fill="black" stroke="black" points="414.55,-105.75 404.15,-103.73 411.02,-111.8 414.55,-105.75"/>
</g>
<!-- ast.Name object at 0x7fbe394cd930 -->
<g id="node13" class="node">
<title>ast.Name object at 0x7fbe394cd930</title>
<path fill="#66cdaa" stroke="black" d="M431.5,-180C431.5,-180 396.5,-180 396.5,-180 390.5,-180 384.5,-174 384.5,-168 384.5,-168 384.5,-156 384.5,-156 384.5,-150 390.5,-144 396.5,-144 396.5,-144 431.5,-144 431.5,-144 437.5,-144 443.5,-150 443.5,-156 443.5,-156 443.5,-168 443.5,-168 443.5,-174 437.5,-180 431.5,-180"/>
<text text-anchor="middle" x="414" y="-158.3" font-family="Times,serif" font-size="14.00">Name</text>
</g>
<!-- ast.Subscript object at 0x7fbe394cf730&#45;&gt;ast.Name object at 0x7fbe394cd930 -->
<g id="edge12" class="edge">
<title>ast.Subscript object at 0x7fbe394cf730&#45;&gt;ast.Name object at 0x7fbe394cd930</title>
<path fill="none" stroke="black" d="M457.66,-215.7C450.71,-207.3 442.23,-197.07 434.6,-187.86"/>
<polygon fill="black" stroke="black" points="437.25,-185.57 428.17,-180.1 431.86,-190.04 437.25,-185.57"/>
</g>
<!-- ast.Slice object at 0x7fbe394cfee0 -->
<g id="node14" class="node">
<title>ast.Slice object at 0x7fbe394cfee0</title>
<path fill="#66cdaa" stroke="black" d="M542,-180C542,-180 512,-180 512,-180 506,-180 500,-174 500,-168 500,-168 500,-156 500,-156 500,-150 506,-144 512,-144 512,-144 542,-144 542,-144 548,-144 554,-150 554,-156 554,-156 554,-168 554,-168 554,-174 548,-180 542,-180"/>
<text text-anchor="middle" x="527" y="-158.3" font-family="Times,serif" font-size="14.00">Slice</text>
</g>
<!-- ast.Subscript object at 0x7fbe394cf730&#45;&gt;ast.Slice object at 0x7fbe394cfee0 -->
<g id="edge14" class="edge">
<title>ast.Subscript object at 0x7fbe394cf730&#45;&gt;ast.Slice object at 0x7fbe394cfee0</title>
<path fill="none" stroke="black" d="M485.6,-215.7C492.12,-207.39 500.07,-197.28 507.25,-188.14"/>
<polygon fill="black" stroke="black" points="510.13,-190.13 513.56,-180.1 504.63,-185.81 510.13,-190.13"/>
</g>
<!-- ast.Name object at 0x7fbe394cd930&#45;&gt;ast.Load object at 0x7fbe433f9750 -->
<g id="edge13" class="edge">
<title>ast.Name object at 0x7fbe394cd930&#45;&gt;ast.Load object at 0x7fbe433f9750</title>
<path fill="none" stroke="black" d="M404.85,-143.7C400.6,-135.64 395.44,-125.89 390.73,-116.98"/>
<polygon fill="black" stroke="black" points="393.81,-115.31 386.04,-108.1 387.62,-118.58 393.81,-115.31"/>
</g>
<!-- ast.Constant object at 0x7fbe394cf130 -->
<g id="node15" class="node">
<title>ast.Constant object at 0x7fbe394cf130</title>
<path fill="#66cdaa" stroke="black" d="M592.5,-108C592.5,-108 535.5,-108 535.5,-108 529.5,-108 523.5,-102 523.5,-96 523.5,-96 523.5,-84 523.5,-84 523.5,-78 529.5,-72 535.5,-72 535.5,-72 592.5,-72 592.5,-72 598.5,-72 604.5,-78 604.5,-84 604.5,-84 604.5,-96 604.5,-96 604.5,-102 598.5,-108 592.5,-108"/>
<text text-anchor="middle" x="564" y="-86.3" font-family="Times,serif" font-size="14.00">Constant</text>
</g>
<!-- ast.Slice object at 0x7fbe394cfee0&#45;&gt;ast.Constant object at 0x7fbe394cf130 -->
<g id="edge15" class="edge">
<title>ast.Slice object at 0x7fbe394cfee0&#45;&gt;ast.Constant object at 0x7fbe394cf130</title>
<path fill="none" stroke="black" d="M536.15,-143.7C540.4,-135.64 545.56,-125.89 550.27,-116.98"/>
<polygon fill="black" stroke="black" points="553.38,-118.58 554.96,-108.1 547.19,-115.31 553.38,-118.58"/>
</g>
<!-- ast.UnaryOp object at 0x7fbe394cd780 -->
<g id="node16" class="node">
<title>ast.UnaryOp object at 0x7fbe394cd780</title>
<path fill="#66cdaa" stroke="black" d="M493.5,-108C493.5,-108 436.5,-108 436.5,-108 430.5,-108 424.5,-102 424.5,-96 424.5,-96 424.5,-84 424.5,-84 424.5,-78 430.5,-72 436.5,-72 436.5,-72 493.5,-72 493.5,-72 499.5,-72 505.5,-78 505.5,-84 505.5,-84 505.5,-96 505.5,-96 505.5,-102 499.5,-108 493.5,-108"/>
<text text-anchor="middle" x="465" y="-86.3" font-family="Times,serif" font-size="14.00">UnaryOp</text>
</g>
<!-- ast.Slice object at 0x7fbe394cfee0&#45;&gt;ast.UnaryOp object at 0x7fbe394cd780 -->
<g id="edge16" class="edge">
<title>ast.Slice object at 0x7fbe394cfee0&#45;&gt;ast.UnaryOp object at 0x7fbe394cd780</title>
<path fill="none" stroke="black" d="M511.67,-143.7C504.24,-135.3 495.18,-125.07 487.02,-115.86"/>
<polygon fill="black" stroke="black" points="489.4,-113.27 480.15,-108.1 484.16,-117.91 489.4,-113.27"/>
</g>
<!-- ast.USub object at 0x7fbe433f9ff0 -->
<g id="node17" class="node">
<title>ast.USub object at 0x7fbe433f9ff0</title>
<path fill="#66cdaa" stroke="black" d="M438,-36C438,-36 406,-36 406,-36 400,-36 394,-30 394,-24 394,-24 394,-12 394,-12 394,-6 400,0 406,0 406,0 438,0 438,0 444,0 450,-6 450,-12 450,-12 450,-24 450,-24 450,-30 444,-36 438,-36"/>
<text text-anchor="middle" x="422" y="-14.3" font-family="Times,serif" font-size="14.00">USub</text>
</g>
<!-- ast.UnaryOp object at 0x7fbe394cd780&#45;&gt;ast.USub object at 0x7fbe433f9ff0 -->
<g id="edge17" class="edge">
<title>ast.UnaryOp object at 0x7fbe394cd780&#45;&gt;ast.USub object at 0x7fbe433f9ff0</title>
<path fill="none" stroke="black" d="M454.37,-71.7C449.37,-63.56 443.31,-53.69 437.79,-44.7"/>
<polygon fill="black" stroke="black" points="440.72,-42.79 432.51,-36.1 434.76,-46.46 440.72,-42.79"/>
</g>
<!-- ast.Constant object at 0x7fbe394cce50 -->
<g id="node18" class="node">
<title>ast.Constant object at 0x7fbe394cce50</title>
<path fill="#66cdaa" stroke="black" d="M537.5,-36C537.5,-36 480.5,-36 480.5,-36 474.5,-36 468.5,-30 468.5,-24 468.5,-24 468.5,-12 468.5,-12 468.5,-6 474.5,0 480.5,0 480.5,0 537.5,0 537.5,0 543.5,0 549.5,-6 549.5,-12 549.5,-12 549.5,-24 549.5,-24 549.5,-30 543.5,-36 537.5,-36"/>
<text text-anchor="middle" x="509" y="-14.3" font-family="Times,serif" font-size="14.00">Constant</text>
</g>
<!-- ast.UnaryOp object at 0x7fbe394cd780&#45;&gt;ast.Constant object at 0x7fbe394cce50 -->
<g id="edge18" class="edge">
<title>ast.UnaryOp object at 0x7fbe394cd780&#45;&gt;ast.Constant object at 0x7fbe394cce50</title>
<path fill="none" stroke="black" d="M475.88,-71.7C480.99,-63.56 487.2,-53.69 492.84,-44.7"/>
<polygon fill="black" stroke="black" points="495.89,-46.43 498.25,-36.1 489.96,-42.71 495.89,-46.43"/>
</g>
<!-- ast.BinOp object at 0x7fbe394cc7c0 -->
<g id="node20" class="node">
<title>ast.BinOp object at 0x7fbe394cc7c0</title>
<path fill="#66cdaa" stroke="black" d="M318.5,-252C318.5,-252 281.5,-252 281.5,-252 275.5,-252 269.5,-246 269.5,-240 269.5,-240 269.5,-228 269.5,-228 269.5,-222 275.5,-216 281.5,-216 281.5,-216 318.5,-216 318.5,-216 324.5,-216 330.5,-222 330.5,-228 330.5,-228 330.5,-240 330.5,-240 330.5,-246 324.5,-252 318.5,-252"/>
<text text-anchor="middle" x="300" y="-230.3" font-family="Times,serif" font-size="14.00">BinOp</text>
</g>
<!-- ast.Compare object at 0x7fbe394cfa60&#45;&gt;ast.BinOp object at 0x7fbe394cc7c0 -->
<g id="edge21" class="edge">
<title>ast.Compare object at 0x7fbe394cfa60&#45;&gt;ast.BinOp object at 0x7fbe394cc7c0</title>
<path fill="none" stroke="black" d="M281.93,-287.7C284.61,-279.9 287.83,-270.51 290.8,-261.83"/>
<polygon fill="black" stroke="black" points="294.2,-262.7 294.14,-252.1 287.58,-260.43 294.2,-262.7"/>
</g>
<!-- ast.NotEq object at 0x7fbe433fa0e0 -->
<g id="node24" class="node">
<title>ast.NotEq object at 0x7fbe433fa0e0</title>
<path fill="#66cdaa" stroke="black" d="M399,-252C399,-252 361,-252 361,-252 355,-252 349,-246 349,-240 349,-240 349,-228 349,-228 349,-222 355,-216 361,-216 361,-216 399,-216 399,-216 405,-216 411,-222 411,-228 411,-228 411,-240 411,-240 411,-246 405,-252 399,-252"/>
<text text-anchor="middle" x="380" y="-230.3" font-family="Times,serif" font-size="14.00">NotEq</text>
</g>
<!-- ast.Compare object at 0x7fbe394cfa60&#45;&gt;ast.NotEq object at 0x7fbe433fa0e0 -->
<g id="edge26" class="edge">
<title>ast.Compare object at 0x7fbe394cfa60&#45;&gt;ast.NotEq object at 0x7fbe433fa0e0</title>
<path fill="none" stroke="black" d="M301.44,-287.88C314.79,-278.89 331.32,-267.76 345.78,-258.03"/>
<polygon fill="black" stroke="black" points="348.12,-260.68 354.46,-252.19 344.21,-254.87 348.12,-260.68"/>
</g>
<!-- ast.Constant object at 0x7fbe394cfa00 -->
<g id="node25" class="node">
<title>ast.Constant object at 0x7fbe394cfa00</title>
<path fill="#66cdaa" stroke="black" d="M239.5,-252C239.5,-252 182.5,-252 182.5,-252 176.5,-252 170.5,-246 170.5,-240 170.5,-240 170.5,-228 170.5,-228 170.5,-222 176.5,-216 182.5,-216 182.5,-216 239.5,-216 239.5,-216 245.5,-216 251.5,-222 251.5,-228 251.5,-228 251.5,-240 251.5,-240 251.5,-246 245.5,-252 239.5,-252"/>
<text text-anchor="middle" x="211" y="-230.3" font-family="Times,serif" font-size="14.00">Constant</text>
</g>
<!-- ast.Compare object at 0x7fbe394cfa60&#45;&gt;ast.Constant object at 0x7fbe394cfa00 -->
<g id="edge27" class="edge">
<title>ast.Compare object at 0x7fbe394cfa60&#45;&gt;ast.Constant object at 0x7fbe394cfa00</title>
<path fill="none" stroke="black" d="M259.93,-287.7C252.06,-279.22 242.44,-268.86 233.83,-259.58"/>
<polygon fill="black" stroke="black" points="236.25,-257.05 226.88,-252.1 231.12,-261.81 236.25,-257.05"/>
</g>
<!-- ast.Name object at 0x7fbe394cd7b0 -->
<g id="node21" class="node">
<title>ast.Name object at 0x7fbe394cd7b0</title>
<path fill="#66cdaa" stroke="black" d="M354.5,-180C354.5,-180 319.5,-180 319.5,-180 313.5,-180 307.5,-174 307.5,-168 307.5,-168 307.5,-156 307.5,-156 307.5,-150 313.5,-144 319.5,-144 319.5,-144 354.5,-144 354.5,-144 360.5,-144 366.5,-150 366.5,-156 366.5,-156 366.5,-168 366.5,-168 366.5,-174 360.5,-180 354.5,-180"/>
<text text-anchor="middle" x="337" y="-158.3" font-family="Times,serif" font-size="14.00">Name</text>
</g>
<!-- ast.BinOp object at 0x7fbe394cc7c0&#45;&gt;ast.Name object at 0x7fbe394cd7b0 -->
<g id="edge22" class="edge">
<title>ast.BinOp object at 0x7fbe394cc7c0&#45;&gt;ast.Name object at 0x7fbe394cd7b0</title>
<path fill="none" stroke="black" d="M309.15,-215.7C313.4,-207.64 318.56,-197.89 323.27,-188.98"/>
<polygon fill="black" stroke="black" points="326.38,-190.58 327.96,-180.1 320.19,-187.31 326.38,-190.58"/>
</g>
<!-- ast.Mod object at 0x7fbe433f9b70 -->
<g id="node22" class="node">
<title>ast.Mod object at 0x7fbe433f9b70</title>
<path fill="#66cdaa" stroke="black" d="M178,-180C178,-180 148,-180 148,-180 142,-180 136,-174 136,-168 136,-168 136,-156 136,-156 136,-150 142,-144 148,-144 148,-144 178,-144 178,-144 184,-144 190,-150 190,-156 190,-156 190,-168 190,-168 190,-174 184,-180 178,-180"/>
<text text-anchor="middle" x="163" y="-158.3" font-family="Times,serif" font-size="14.00">Mod</text>
</g>
<!-- ast.BinOp object at 0x7fbe394cc7c0&#45;&gt;ast.Mod object at 0x7fbe433f9b70 -->
<g id="edge24" class="edge">
<title>ast.BinOp object at 0x7fbe394cc7c0&#45;&gt;ast.Mod object at 0x7fbe433f9b70</title>
<path fill="none" stroke="black" d="M269.25,-217.29C248.55,-206.71 221.14,-192.71 199.35,-181.57"/>
<polygon fill="black" stroke="black" points="200.89,-178.43 190.39,-177 197.7,-184.66 200.89,-178.43"/>
</g>
<!-- ast.Constant object at 0x7fbe394cccd0 -->
<g id="node23" class="node">
<title>ast.Constant object at 0x7fbe394cccd0</title>
<path fill="#66cdaa" stroke="black" d="M277.5,-180C277.5,-180 220.5,-180 220.5,-180 214.5,-180 208.5,-174 208.5,-168 208.5,-168 208.5,-156 208.5,-156 208.5,-150 214.5,-144 220.5,-144 220.5,-144 277.5,-144 277.5,-144 283.5,-144 289.5,-150 289.5,-156 289.5,-156 289.5,-168 289.5,-168 289.5,-174 283.5,-180 277.5,-180"/>
<text text-anchor="middle" x="249" y="-158.3" font-family="Times,serif" font-size="14.00">Constant</text>
</g>
<!-- ast.BinOp object at 0x7fbe394cc7c0&#45;&gt;ast.Constant object at 0x7fbe394cccd0 -->
<g id="edge25" class="edge">
<title>ast.BinOp object at 0x7fbe394cc7c0&#45;&gt;ast.Constant object at 0x7fbe394cccd0</title>
<path fill="none" stroke="black" d="M287.39,-215.7C281.4,-207.47 274.12,-197.48 267.52,-188.42"/>
<polygon fill="black" stroke="black" points="270.18,-186.13 261.46,-180.1 264.52,-190.25 270.18,-186.13"/>
</g>
<!-- ast.Name object at 0x7fbe394cd7b0&#45;&gt;ast.Load object at 0x7fbe433f9750 -->
<g id="edge23" class="edge">
<title>ast.Name object at 0x7fbe394cd7b0&#45;&gt;ast.Load object at 0x7fbe433f9750</title>
<path fill="none" stroke="black" d="M346.89,-143.7C351.49,-135.64 357.06,-125.89 362.15,-116.98"/>
<polygon fill="black" stroke="black" points="365.3,-118.52 367.23,-108.1 359.23,-115.05 365.3,-118.52"/>
</g>
</g>
</svg>
