<?xml version="1.0" encoding="UTF-8" standalone="no"?>
<!DOCTYPE svg PUBLIC "-//W3C//DTD SVG 1.1//EN"
 "http://www.w3.org/Graphics/SVG/1.1/DTD/svg11.dtd">
<!-- Generated by graphviz version 2.43.0 (0)
 -->
<!-- Title: %3 Pages: 1 -->
<svg width="950pt" height="548pt"
 viewBox="0.00 0.00 950.00 548.00" xmlns="http://www.w3.org/2000/svg" xmlns:xlink="http://www.w3.org/1999/xlink">
<g id="graph0" class="graph" transform="scale(1 1) rotate(0) translate(4 544)">
<title>%3</title>
<polygon fill="white" stroke="transparent" points="-4,4 -4,-544 946,-544 946,4 -4,4"/>
<!-- ast.Module object at 0x7f4ff1f6d990 -->
<g id="node1" class="node">
<title>ast.Module object at 0x7f4ff1f6d990</title>
<path fill="#66cdaa" stroke="black" d="M216.5,-540C216.5,-540 181.5,-540 181.5,-540 175.5,-540 169.5,-534 169.5,-528 169.5,-528 169.5,-516 169.5,-516 169.5,-510 175.5,-504 181.5,-504 181.5,-504 216.5,-504 216.5,-504 222.5,-504 228.5,-510 228.5,-516 228.5,-516 228.5,-528 228.5,-528 228.5,-534 222.5,-540 216.5,-540"/>
<text text-anchor="middle" x="199" y="-518.3" font-family="Times,serif" font-size="14.00">Module</text>
</g>
<!-- ast.FunctionDef object at 0x7f4ff1f6fb80 -->
<g id="node2" class="node">
<title>ast.FunctionDef object at 0x7f4ff1f6fb80</title>
<path fill="#66cdaa" stroke="black" d="M229.5,-468C229.5,-468 168.5,-468 168.5,-468 162.5,-468 156.5,-462 156.5,-456 156.5,-456 156.5,-444 156.5,-444 156.5,-438 162.5,-432 168.5,-432 168.5,-432 229.5,-432 229.5,-432 235.5,-432 241.5,-438 241.5,-444 241.5,-444 241.5,-456 241.5,-456 241.5,-462 235.5,-468 229.5,-468"/>
<text text-anchor="middle" x="199" y="-446.3" font-family="Times,serif" font-size="14.00">FunctionDef</text>
</g>
<!-- ast.Module object at 0x7f4ff1f6d990&#45;&gt;ast.FunctionDef object at 0x7f4ff1f6fb80 -->
<g id="edge1" class="edge">
<title>ast.Module object at 0x7f4ff1f6d990&#45;&gt;ast.FunctionDef object at 0x7f4ff1f6fb80</title>
<path fill="none" stroke="black" d="M199,-503.7C199,-495.98 199,-486.71 199,-478.11"/>
<polygon fill="black" stroke="black" points="202.5,-478.1 199,-468.1 195.5,-478.1 202.5,-478.1"/>
</g>
<!-- ast.arguments object at 0x7f4ff1f6db40 -->
<g id="node3" class="node">
<title>ast.arguments object at 0x7f4ff1f6db40</title>
<path fill="#66cdaa" stroke="black" d="M82,-396C82,-396 32,-396 32,-396 26,-396 20,-390 20,-384 20,-384 20,-372 20,-372 20,-366 26,-360 32,-360 32,-360 82,-360 82,-360 88,-360 94,-366 94,-372 94,-372 94,-384 94,-384 94,-390 88,-396 82,-396"/>
<text text-anchor="middle" x="57" y="-374.3" font-family="Times,serif" font-size="14.00">arguments</text>
</g>
<!-- ast.FunctionDef object at 0x7f4ff1f6fb80&#45;&gt;ast.arguments object at 0x7f4ff1f6db40 -->
<g id="edge2" class="edge">
<title>ast.FunctionDef object at 0x7f4ff1f6fb80&#45;&gt;ast.arguments object at 0x7f4ff1f6db40</title>
<path fill="none" stroke="black" d="M164.26,-431.88C145.18,-422.47 121.32,-410.71 100.95,-400.67"/>
<polygon fill="black" stroke="black" points="102.39,-397.47 91.87,-396.19 99.29,-403.75 102.39,-397.47"/>
</g>
<!-- ast.Assign object at 0x7f4ff1f6ef80 -->
<g id="node5" class="node">
<title>ast.Assign object at 0x7f4ff1f6ef80</title>
<path fill="#66cdaa" stroke="black" d="M114,-324C114,-324 84,-324 84,-324 78,-324 72,-318 72,-312 72,-312 72,-300 72,-300 72,-294 78,-288 84,-288 84,-288 114,-288 114,-288 120,-288 126,-294 126,-300 126,-300 126,-312 126,-312 126,-318 120,-324 114,-324"/>
<text text-anchor="middle" x="99" y="-302.3" font-family="Times,serif" font-size="14.00">Assign</text>
</g>
<!-- ast.FunctionDef object at 0x7f4ff1f6fb80&#45;&gt;ast.Assign object at 0x7f4ff1f6ef80 -->
<g id="edge4" class="edge">
<title>ast.FunctionDef object at 0x7f4ff1f6fb80&#45;&gt;ast.Assign object at 0x7f4ff1f6ef80</title>
<path fill="none" stroke="black" d="M186.94,-431.87C169.52,-407.14 137.2,-361.24 116.97,-332.51"/>
<polygon fill="black" stroke="black" points="119.72,-330.35 111.11,-324.19 114,-334.38 119.72,-330.35"/>
</g>
<!-- ast.Assign object at 0x7f4ff1f6e9b0 -->
<g id="node13" class="node">
<title>ast.Assign object at 0x7f4ff1f6e9b0</title>
<path fill="#66cdaa" stroke="black" d="M214,-396C214,-396 184,-396 184,-396 178,-396 172,-390 172,-384 172,-384 172,-372 172,-372 172,-366 178,-360 184,-360 184,-360 214,-360 214,-360 220,-360 226,-366 226,-372 226,-372 226,-384 226,-384 226,-390 220,-396 214,-396"/>
<text text-anchor="middle" x="199" y="-374.3" font-family="Times,serif" font-size="14.00">Assign</text>
</g>
<!-- ast.FunctionDef object at 0x7f4ff1f6fb80&#45;&gt;ast.Assign object at 0x7f4ff1f6e9b0 -->
<g id="edge13" class="edge">
<title>ast.FunctionDef object at 0x7f4ff1f6fb80&#45;&gt;ast.Assign object at 0x7f4ff1f6e9b0</title>
<path fill="none" stroke="black" d="M199,-431.7C199,-423.98 199,-414.71 199,-406.11"/>
<polygon fill="black" stroke="black" points="202.5,-406.1 199,-396.1 195.5,-406.1 202.5,-406.1"/>
</g>
<!-- ast.For object at 0x7f4ff1f6fb20 -->
<g id="node16" class="node">
<title>ast.For object at 0x7f4ff1f6fb20</title>
<path fill="#66cdaa" stroke="black" d="M344,-396C344,-396 314,-396 314,-396 308,-396 302,-390 302,-384 302,-384 302,-372 302,-372 302,-366 308,-360 314,-360 314,-360 344,-360 344,-360 350,-360 356,-366 356,-372 356,-372 356,-384 356,-384 356,-390 350,-396 344,-396"/>
<text text-anchor="middle" x="329" y="-374.3" font-family="Times,serif" font-size="14.00">For</text>
</g>
<!-- ast.FunctionDef object at 0x7f4ff1f6fb80&#45;&gt;ast.For object at 0x7f4ff1f6fb20 -->
<g id="edge17" class="edge">
<title>ast.FunctionDef object at 0x7f4ff1f6fb80&#45;&gt;ast.For object at 0x7f4ff1f6fb20</title>
<path fill="none" stroke="black" d="M230.8,-431.88C249.62,-421.74 273.51,-408.88 293.02,-398.37"/>
<polygon fill="black" stroke="black" points="294.77,-401.4 301.92,-393.58 291.46,-395.24 294.77,-401.4"/>
</g>
<!-- ast.Return object at 0x7f4ff1f6f3d0 -->
<g id="node33" class="node">
<title>ast.Return object at 0x7f4ff1f6f3d0</title>
<path fill="#66cdaa" stroke="black" d="M513,-396C513,-396 483,-396 483,-396 477,-396 471,-390 471,-384 471,-384 471,-372 471,-372 471,-366 477,-360 483,-360 483,-360 513,-360 513,-360 519,-360 525,-366 525,-372 525,-372 525,-384 525,-384 525,-390 519,-396 513,-396"/>
<text text-anchor="middle" x="498" y="-374.3" font-family="Times,serif" font-size="14.00">Return</text>
</g>
<!-- ast.FunctionDef object at 0x7f4ff1f6fb80&#45;&gt;ast.Return object at 0x7f4ff1f6f3d0 -->
<g id="edge40" class="edge">
<title>ast.FunctionDef object at 0x7f4ff1f6fb80&#45;&gt;ast.Return object at 0x7f4ff1f6f3d0</title>
<path fill="none" stroke="black" d="M241.52,-439.05C300.26,-425.29 405.27,-400.71 460.96,-387.67"/>
<polygon fill="black" stroke="black" points="461.82,-391.06 470.76,-385.38 460.23,-384.25 461.82,-391.06"/>
</g>
<!-- ast.arg object at 0x7f4ff1f6e860 -->
<g id="node4" class="node">
<title>ast.arg object at 0x7f4ff1f6e860</title>
<path fill="#66cdaa" stroke="black" d="M42,-324C42,-324 12,-324 12,-324 6,-324 0,-318 0,-312 0,-312 0,-300 0,-300 0,-294 6,-288 12,-288 12,-288 42,-288 42,-288 48,-288 54,-294 54,-300 54,-300 54,-312 54,-312 54,-318 48,-324 42,-324"/>
<text text-anchor="middle" x="27" y="-302.3" font-family="Times,serif" font-size="14.00">arg</text>
</g>
<!-- ast.arguments object at 0x7f4ff1f6db40&#45;&gt;ast.arg object at 0x7f4ff1f6e860 -->
<g id="edge3" class="edge">
<title>ast.arguments object at 0x7f4ff1f6db40&#45;&gt;ast.arg object at 0x7f4ff1f6e860</title>
<path fill="none" stroke="black" d="M49.58,-359.7C46.21,-351.81 42.13,-342.3 38.38,-333.55"/>
<polygon fill="black" stroke="black" points="41.49,-331.92 34.33,-324.1 35.05,-334.67 41.49,-331.92"/>
</g>
<!-- ast.Name object at 0x7f4ff1f6fd60 -->
<g id="node6" class="node">
<title>ast.Name object at 0x7f4ff1f6fd60</title>
<path fill="#66cdaa" stroke="black" d="M148,-252C148,-252 118,-252 118,-252 112,-252 106,-246 106,-240 106,-240 106,-228 106,-228 106,-222 112,-216 118,-216 118,-216 148,-216 148,-216 154,-216 160,-222 160,-228 160,-228 160,-240 160,-240 160,-246 154,-252 148,-252"/>
<text text-anchor="middle" x="133" y="-230.3" font-family="Times,serif" font-size="14.00">Name</text>
</g>
<!-- ast.Assign object at 0x7f4ff1f6ef80&#45;&gt;ast.Name object at 0x7f4ff1f6fd60 -->
<g id="edge5" class="edge">
<title>ast.Assign object at 0x7f4ff1f6ef80&#45;&gt;ast.Name object at 0x7f4ff1f6fd60</title>
<path fill="none" stroke="black" d="M107.4,-287.7C111.27,-279.73 115.95,-270.1 120.24,-261.26"/>
<polygon fill="black" stroke="black" points="123.47,-262.63 124.69,-252.1 117.17,-259.57 123.47,-262.63"/>
</g>
<!-- ast.Call object at 0x7f4ff1f6f4c0 -->
<g id="node8" class="node">
<title>ast.Call object at 0x7f4ff1f6f4c0</title>
<path fill="#66cdaa" stroke="black" d="M120,-180C120,-180 90,-180 90,-180 84,-180 78,-174 78,-168 78,-168 78,-156 78,-156 78,-150 84,-144 90,-144 90,-144 120,-144 120,-144 126,-144 132,-150 132,-156 132,-156 132,-168 132,-168 132,-174 126,-180 120,-180"/>
<text text-anchor="middle" x="105" y="-158.3" font-family="Times,serif" font-size="14.00">Call</text>
</g>
<!-- ast.Assign object at 0x7f4ff1f6ef80&#45;&gt;ast.Call object at 0x7f4ff1f6f4c0 -->
<g id="edge7" class="edge">
<title>ast.Assign object at 0x7f4ff1f6ef80&#45;&gt;ast.Call object at 0x7f4ff1f6f4c0</title>
<path fill="none" stroke="black" d="M97.63,-287.91C96.42,-269.98 95.13,-240.97 97,-216 97.64,-207.52 98.84,-198.34 100.12,-190.04"/>
<polygon fill="black" stroke="black" points="103.58,-190.55 101.75,-180.11 96.68,-189.41 103.58,-190.55"/>
</g>
<!-- ast.Store object at 0x7f503aaf5fc0 -->
<g id="node7" class="node">
<title>ast.Store object at 0x7f503aaf5fc0</title>
<path fill="#66cdaa" stroke="black" d="M220,-180C220,-180 190,-180 190,-180 184,-180 178,-174 178,-168 178,-168 178,-156 178,-156 178,-150 184,-144 190,-144 190,-144 220,-144 220,-144 226,-144 232,-150 232,-156 232,-156 232,-168 232,-168 232,-174 226,-180 220,-180"/>
<text text-anchor="middle" x="205" y="-158.3" font-family="Times,serif" font-size="14.00">Store</text>
</g>
<!-- ast.Name object at 0x7f4ff1f6fd60&#45;&gt;ast.Store object at 0x7f503aaf5fc0 -->
<g id="edge6" class="edge">
<title>ast.Name object at 0x7f4ff1f6fd60&#45;&gt;ast.Store object at 0x7f503aaf5fc0</title>
<path fill="none" stroke="black" d="M150.8,-215.7C159.6,-207.14 170.38,-196.66 180,-187.3"/>
<polygon fill="black" stroke="black" points="182.68,-189.58 187.41,-180.1 177.8,-184.57 182.68,-189.58"/>
</g>
<!-- ast.Name object at 0x7f4ff1f6f9d0 -->
<g id="node9" class="node">
<title>ast.Name object at 0x7f4ff1f6f9d0</title>
<path fill="#66cdaa" stroke="black" d="M148,-108C148,-108 118,-108 118,-108 112,-108 106,-102 106,-96 106,-96 106,-84 106,-84 106,-78 112,-72 118,-72 118,-72 148,-72 148,-72 154,-72 160,-78 160,-84 160,-84 160,-96 160,-96 160,-102 154,-108 148,-108"/>
<text text-anchor="middle" x="133" y="-86.3" font-family="Times,serif" font-size="14.00">Name</text>
</g>
<!-- ast.Call object at 0x7f4ff1f6f4c0&#45;&gt;ast.Name object at 0x7f4ff1f6f9d0 -->
<g id="edge8" class="edge">
<title>ast.Call object at 0x7f4ff1f6f4c0&#45;&gt;ast.Name object at 0x7f4ff1f6f9d0</title>
<path fill="none" stroke="black" d="M111.92,-143.7C115.07,-135.81 118.88,-126.3 122.38,-117.55"/>
<polygon fill="black" stroke="black" points="125.69,-118.69 126.16,-108.1 119.19,-116.09 125.69,-118.69"/>
</g>
<!-- ast.Name object at 0x7f4ff1f6fb50 -->
<g id="node11" class="node">
<title>ast.Name object at 0x7f4ff1f6fb50</title>
<path fill="#66cdaa" stroke="black" d="M220,-108C220,-108 190,-108 190,-108 184,-108 178,-102 178,-96 178,-96 178,-84 178,-84 178,-78 184,-72 190,-72 190,-72 220,-72 220,-72 226,-72 232,-78 232,-84 232,-84 232,-96 232,-96 232,-102 226,-108 220,-108"/>
<text text-anchor="middle" x="205" y="-86.3" font-family="Times,serif" font-size="14.00">Name</text>
</g>
<!-- ast.Call object at 0x7f4ff1f6f4c0&#45;&gt;ast.Name object at 0x7f4ff1f6fb50 -->
<g id="edge10" class="edge">
<title>ast.Call object at 0x7f4ff1f6f4c0&#45;&gt;ast.Name object at 0x7f4ff1f6fb50</title>
<path fill="none" stroke="black" d="M129.46,-143.88C142.3,-134.89 158.2,-123.76 172.09,-114.03"/>
<polygon fill="black" stroke="black" points="174.26,-116.79 180.44,-108.19 170.24,-111.06 174.26,-116.79"/>
</g>
<!-- ast.Constant object at 0x7f4ff1f6cb50 -->
<g id="node12" class="node">
<title>ast.Constant object at 0x7f4ff1f6cb50</title>
<path fill="#66cdaa" stroke="black" d="M75.5,-108C75.5,-108 34.5,-108 34.5,-108 28.5,-108 22.5,-102 22.5,-96 22.5,-96 22.5,-84 22.5,-84 22.5,-78 28.5,-72 34.5,-72 34.5,-72 75.5,-72 75.5,-72 81.5,-72 87.5,-78 87.5,-84 87.5,-84 87.5,-96 87.5,-96 87.5,-102 81.5,-108 75.5,-108"/>
<text text-anchor="middle" x="55" y="-86.3" font-family="Times,serif" font-size="14.00">Constant</text>
</g>
<!-- ast.Call object at 0x7f4ff1f6f4c0&#45;&gt;ast.Constant object at 0x7f4ff1f6cb50 -->
<g id="edge12" class="edge">
<title>ast.Call object at 0x7f4ff1f6f4c0&#45;&gt;ast.Constant object at 0x7f4ff1f6cb50</title>
<path fill="none" stroke="black" d="M92.64,-143.7C86.77,-135.47 79.63,-125.48 73.16,-116.42"/>
<polygon fill="black" stroke="black" points="75.88,-114.21 67.22,-108.1 70.18,-118.28 75.88,-114.21"/>
</g>
<!-- ast.Load object at 0x7f503aaf5f60 -->
<g id="node10" class="node">
<title>ast.Load object at 0x7f503aaf5f60</title>
<path fill="#66cdaa" stroke="black" d="M486,-36C486,-36 456,-36 456,-36 450,-36 444,-30 444,-24 444,-24 444,-12 444,-12 444,-6 450,0 456,0 456,0 486,0 486,0 492,0 498,-6 498,-12 498,-12 498,-24 498,-24 498,-30 492,-36 486,-36"/>
<text text-anchor="middle" x="471" y="-14.3" font-family="Times,serif" font-size="14.00">Load</text>
</g>
<!-- ast.Name object at 0x7f4ff1f6f9d0&#45;&gt;ast.Load object at 0x7f503aaf5f60 -->
<g id="edge9" class="edge">
<title>ast.Name object at 0x7f4ff1f6f9d0&#45;&gt;ast.Load object at 0x7f503aaf5f60</title>
<path fill="none" stroke="black" d="M160.21,-75.23C163.14,-74.03 166.1,-72.92 169,-72 261.66,-42.58 375.81,-28.16 433.64,-22.31"/>
<polygon fill="black" stroke="black" points="434.15,-25.78 443.76,-21.32 433.46,-18.81 434.15,-25.78"/>
</g>
<!-- ast.Name object at 0x7f4ff1f6fb50&#45;&gt;ast.Load object at 0x7f503aaf5f60 -->
<g id="edge11" class="edge">
<title>ast.Name object at 0x7f4ff1f6fb50&#45;&gt;ast.Load object at 0x7f503aaf5f60</title>
<path fill="none" stroke="black" d="M232.12,-77.04C236.7,-75.22 241.45,-73.47 246,-72 311.02,-51.02 389.06,-34.5 434.06,-25.79"/>
<polygon fill="black" stroke="black" points="434.78,-29.22 443.95,-23.9 433.47,-22.34 434.78,-29.22"/>
</g>
<!-- ast.Name object at 0x7f4ff1f6e590 -->
<g id="node14" class="node">
<title>ast.Name object at 0x7f4ff1f6e590</title>
<path fill="#66cdaa" stroke="black" d="M220,-252C220,-252 190,-252 190,-252 184,-252 178,-246 178,-240 178,-240 178,-228 178,-228 178,-222 184,-216 190,-216 190,-216 220,-216 220,-216 226,-216 232,-222 232,-228 232,-228 232,-240 232,-240 232,-246 226,-252 220,-252"/>
<text text-anchor="middle" x="205" y="-230.3" font-family="Times,serif" font-size="14.00">Name</text>
</g>
<!-- ast.Assign object at 0x7f4ff1f6e9b0&#45;&gt;ast.Name object at 0x7f4ff1f6e590 -->
<g id="edge14" class="edge">
<title>ast.Assign object at 0x7f4ff1f6e9b0&#45;&gt;ast.Name object at 0x7f4ff1f6e590</title>
<path fill="none" stroke="black" d="M206.89,-359.75C211.11,-349.58 215.86,-336.33 218,-324 221.62,-303.17 217.77,-279.47 213.35,-261.77"/>
<polygon fill="black" stroke="black" points="216.72,-260.84 210.72,-252.11 209.96,-262.67 216.72,-260.84"/>
</g>
<!-- ast.Constant object at 0x7f4ff1f6e260 -->
<g id="node15" class="node">
<title>ast.Constant object at 0x7f4ff1f6e260</title>
<path fill="#66cdaa" stroke="black" d="M197.5,-324C197.5,-324 156.5,-324 156.5,-324 150.5,-324 144.5,-318 144.5,-312 144.5,-312 144.5,-300 144.5,-300 144.5,-294 150.5,-288 156.5,-288 156.5,-288 197.5,-288 197.5,-288 203.5,-288 209.5,-294 209.5,-300 209.5,-300 209.5,-312 209.5,-312 209.5,-318 203.5,-324 197.5,-324"/>
<text text-anchor="middle" x="177" y="-302.3" font-family="Times,serif" font-size="14.00">Constant</text>
</g>
<!-- ast.Assign object at 0x7f4ff1f6e9b0&#45;&gt;ast.Constant object at 0x7f4ff1f6e260 -->
<g id="edge16" class="edge">
<title>ast.Assign object at 0x7f4ff1f6e9b0&#45;&gt;ast.Constant object at 0x7f4ff1f6e260</title>
<path fill="none" stroke="black" d="M193.56,-359.7C191.11,-351.9 188.16,-342.51 185.43,-333.83"/>
<polygon fill="black" stroke="black" points="188.71,-332.59 182.38,-324.1 182.04,-334.69 188.71,-332.59"/>
</g>
<!-- ast.Name object at 0x7f4ff1f6e590&#45;&gt;ast.Store object at 0x7f503aaf5fc0 -->
<g id="edge15" class="edge">
<title>ast.Name object at 0x7f4ff1f6e590&#45;&gt;ast.Store object at 0x7f503aaf5fc0</title>
<path fill="none" stroke="black" d="M205,-215.7C205,-207.98 205,-198.71 205,-190.11"/>
<polygon fill="black" stroke="black" points="208.5,-190.1 205,-180.1 201.5,-190.1 208.5,-190.1"/>
</g>
<!-- ast.Name object at 0x7f4ff1f6e980 -->
<g id="node17" class="node">
<title>ast.Name object at 0x7f4ff1f6e980</title>
<path fill="#66cdaa" stroke="black" d="M308,-324C308,-324 278,-324 278,-324 272,-324 266,-318 266,-312 266,-312 266,-300 266,-300 266,-294 272,-288 278,-288 278,-288 308,-288 308,-288 314,-288 320,-294 320,-300 320,-300 320,-312 320,-312 320,-318 314,-324 308,-324"/>
<text text-anchor="middle" x="293" y="-302.3" font-family="Times,serif" font-size="14.00">Name</text>
</g>
<!-- ast.For object at 0x7f4ff1f6fb20&#45;&gt;ast.Name object at 0x7f4ff1f6e980 -->
<g id="edge18" class="edge">
<title>ast.For object at 0x7f4ff1f6fb20&#45;&gt;ast.Name object at 0x7f4ff1f6e980</title>
<path fill="none" stroke="black" d="M320.1,-359.7C316,-351.73 311.05,-342.1 306.51,-333.26"/>
<polygon fill="black" stroke="black" points="309.48,-331.4 301.8,-324.1 303.26,-334.6 309.48,-331.4"/>
</g>
<!-- ast.Call object at 0x7f4ff1f6f880 -->
<g id="node18" class="node">
<title>ast.Call object at 0x7f4ff1f6f880</title>
<path fill="#66cdaa" stroke="black" d="M380,-324C380,-324 350,-324 350,-324 344,-324 338,-318 338,-312 338,-312 338,-300 338,-300 338,-294 344,-288 350,-288 350,-288 380,-288 380,-288 386,-288 392,-294 392,-300 392,-300 392,-312 392,-312 392,-318 386,-324 380,-324"/>
<text text-anchor="middle" x="365" y="-302.3" font-family="Times,serif" font-size="14.00">Call</text>
</g>
<!-- ast.For object at 0x7f4ff1f6fb20&#45;&gt;ast.Call object at 0x7f4ff1f6f880 -->
<g id="edge20" class="edge">
<title>ast.For object at 0x7f4ff1f6fb20&#45;&gt;ast.Call object at 0x7f4ff1f6f880</title>
<path fill="none" stroke="black" d="M337.9,-359.7C342,-351.73 346.95,-342.1 351.49,-333.26"/>
<polygon fill="black" stroke="black" points="354.74,-334.6 356.2,-324.1 348.52,-331.4 354.74,-334.6"/>
</g>
<!-- ast.AugAssign object at 0x7f4ff1f6fc70 -->
<g id="node21" class="node">
<title>ast.AugAssign object at 0x7f4ff1f6fc70</title>
<path fill="#66cdaa" stroke="black" d="M533.5,-324C533.5,-324 480.5,-324 480.5,-324 474.5,-324 468.5,-318 468.5,-312 468.5,-312 468.5,-300 468.5,-300 468.5,-294 474.5,-288 480.5,-288 480.5,-288 533.5,-288 533.5,-288 539.5,-288 545.5,-294 545.5,-300 545.5,-300 545.5,-312 545.5,-312 545.5,-318 539.5,-324 533.5,-324"/>
<text text-anchor="middle" x="507" y="-302.3" font-family="Times,serif" font-size="14.00">AugAssign</text>
</g>
<!-- ast.For object at 0x7f4ff1f6fb20&#45;&gt;ast.AugAssign object at 0x7f4ff1f6fc70 -->
<g id="edge24" class="edge">
<title>ast.For object at 0x7f4ff1f6fb20&#45;&gt;ast.AugAssign object at 0x7f4ff1f6fc70</title>
<path fill="none" stroke="black" d="M356.03,-366.37C383.3,-355.65 425.96,-338.87 458.99,-325.88"/>
<polygon fill="black" stroke="black" points="460.44,-329.07 468.47,-322.15 457.88,-322.56 460.44,-329.07"/>
</g>
<!-- ast.Name object at 0x7f4ff1f6e980&#45;&gt;ast.Store object at 0x7f503aaf5fc0 -->
<g id="edge19" class="edge">
<title>ast.Name object at 0x7f4ff1f6e980&#45;&gt;ast.Store object at 0x7f503aaf5fc0</title>
<path fill="none" stroke="black" d="M283.37,-287.73C273.18,-269.65 256.47,-240.52 241,-216 235.36,-207.06 228.95,-197.46 223.12,-188.92"/>
<polygon fill="black" stroke="black" points="225.86,-186.72 217.3,-180.47 220.09,-190.69 225.86,-186.72"/>
</g>
<!-- ast.Name object at 0x7f4ff1f6d0c0 -->
<g id="node19" class="node">
<title>ast.Name object at 0x7f4ff1f6d0c0</title>
<path fill="#66cdaa" stroke="black" d="M414,-252C414,-252 384,-252 384,-252 378,-252 372,-246 372,-240 372,-240 372,-228 372,-228 372,-222 378,-216 384,-216 384,-216 414,-216 414,-216 420,-216 426,-222 426,-228 426,-228 426,-240 426,-240 426,-246 420,-252 414,-252"/>
<text text-anchor="middle" x="399" y="-230.3" font-family="Times,serif" font-size="14.00">Name</text>
</g>
<!-- ast.Call object at 0x7f4ff1f6f880&#45;&gt;ast.Name object at 0x7f4ff1f6d0c0 -->
<g id="edge21" class="edge">
<title>ast.Call object at 0x7f4ff1f6f880&#45;&gt;ast.Name object at 0x7f4ff1f6d0c0</title>
<path fill="none" stroke="black" d="M373.4,-287.7C377.27,-279.73 381.95,-270.1 386.24,-261.26"/>
<polygon fill="black" stroke="black" points="389.47,-262.63 390.69,-252.1 383.17,-259.57 389.47,-262.63"/>
</g>
<!-- ast.Constant object at 0x7f4ff1f6e8c0 -->
<g id="node20" class="node">
<title>ast.Constant object at 0x7f4ff1f6e8c0</title>
<path fill="#66cdaa" stroke="black" d="M341.5,-252C341.5,-252 300.5,-252 300.5,-252 294.5,-252 288.5,-246 288.5,-240 288.5,-240 288.5,-228 288.5,-228 288.5,-222 294.5,-216 300.5,-216 300.5,-216 341.5,-216 341.5,-216 347.5,-216 353.5,-222 353.5,-228 353.5,-228 353.5,-240 353.5,-240 353.5,-246 347.5,-252 341.5,-252"/>
<text text-anchor="middle" x="321" y="-230.3" font-family="Times,serif" font-size="14.00">Constant</text>
</g>
<!-- ast.Call object at 0x7f4ff1f6f880&#45;&gt;ast.Constant object at 0x7f4ff1f6e8c0 -->
<g id="edge23" class="edge">
<title>ast.Call object at 0x7f4ff1f6f880&#45;&gt;ast.Constant object at 0x7f4ff1f6e8c0</title>
<path fill="none" stroke="black" d="M354.12,-287.7C349.01,-279.56 342.8,-269.69 337.16,-260.7"/>
<polygon fill="black" stroke="black" points="340.04,-258.71 331.75,-252.1 334.11,-262.43 340.04,-258.71"/>
</g>
<!-- ast.Name object at 0x7f4ff1f6d0c0&#45;&gt;ast.Load object at 0x7f503aaf5f60 -->
<g id="edge22" class="edge">
<title>ast.Name object at 0x7f4ff1f6d0c0&#45;&gt;ast.Load object at 0x7f503aaf5f60</title>
<path fill="none" stroke="black" d="M371.92,-217.38C325.32,-188.52 238.66,-124.98 279,-72 297.63,-47.53 383.04,-31.48 433.45,-23.96"/>
<polygon fill="black" stroke="black" points="434.25,-27.38 443.64,-22.49 433.24,-20.46 434.25,-27.38"/>
</g>
<!-- ast.Name object at 0x7f4ff1f6d5d0 -->
<g id="node22" class="node">
<title>ast.Name object at 0x7f4ff1f6d5d0</title>
<path fill="#66cdaa" stroke="black" d="M486,-252C486,-252 456,-252 456,-252 450,-252 444,-246 444,-240 444,-240 444,-228 444,-228 444,-222 450,-216 456,-216 456,-216 486,-216 486,-216 492,-216 498,-222 498,-228 498,-228 498,-240 498,-240 498,-246 492,-252 486,-252"/>
<text text-anchor="middle" x="471" y="-230.3" font-family="Times,serif" font-size="14.00">Name</text>
</g>
<!-- ast.AugAssign object at 0x7f4ff1f6fc70&#45;&gt;ast.Name object at 0x7f4ff1f6d5d0 -->
<g id="edge25" class="edge">
<title>ast.AugAssign object at 0x7f4ff1f6fc70&#45;&gt;ast.Name object at 0x7f4ff1f6d5d0</title>
<path fill="none" stroke="black" d="M498.1,-287.7C494,-279.73 489.05,-270.1 484.51,-261.26"/>
<polygon fill="black" stroke="black" points="487.48,-259.4 479.8,-252.1 481.26,-262.6 487.48,-259.4"/>
</g>
<!-- ast.Add object at 0x7f503aaf61a0 -->
<g id="node23" class="node">
<title>ast.Add object at 0x7f503aaf61a0</title>
<path fill="#66cdaa" stroke="black" d="M714,-108C714,-108 684,-108 684,-108 678,-108 672,-102 672,-96 672,-96 672,-84 672,-84 672,-78 678,-72 684,-72 684,-72 714,-72 714,-72 720,-72 726,-78 726,-84 726,-84 726,-96 726,-96 726,-102 720,-108 714,-108"/>
<text text-anchor="middle" x="699" y="-86.3" font-family="Times,serif" font-size="14.00">Add</text>
</g>
<!-- ast.AugAssign object at 0x7f4ff1f6fc70&#45;&gt;ast.Add object at 0x7f503aaf61a0 -->
<g id="edge27" class="edge">
<title>ast.AugAssign object at 0x7f4ff1f6fc70&#45;&gt;ast.Add object at 0x7f503aaf61a0</title>
<path fill="none" stroke="black" d="M534.78,-287.9C548.96,-278.38 565.93,-265.7 579,-252 618.83,-210.27 615.54,-189.5 651,-144 658.48,-134.4 667.26,-124.39 675.26,-115.68"/>
<polygon fill="black" stroke="black" points="678.07,-117.8 682.33,-108.1 672.95,-113.03 678.07,-117.8"/>
</g>
<!-- ast.BinOp object at 0x7f4ff1f6fca0 -->
<g id="node24" class="node">
<title>ast.BinOp object at 0x7f4ff1f6fca0</title>
<path fill="#66cdaa" stroke="black" d="M558,-252C558,-252 528,-252 528,-252 522,-252 516,-246 516,-240 516,-240 516,-228 516,-228 516,-222 522,-216 528,-216 528,-216 558,-216 558,-216 564,-216 570,-222 570,-228 570,-228 570,-240 570,-240 570,-246 564,-252 558,-252"/>
<text text-anchor="middle" x="543" y="-230.3" font-family="Times,serif" font-size="14.00">BinOp</text>
</g>
<!-- ast.AugAssign object at 0x7f4ff1f6fc70&#45;&gt;ast.BinOp object at 0x7f4ff1f6fca0 -->
<g id="edge28" class="edge">
<title>ast.AugAssign object at 0x7f4ff1f6fc70&#45;&gt;ast.BinOp object at 0x7f4ff1f6fca0</title>
<path fill="none" stroke="black" d="M515.9,-287.7C520,-279.73 524.95,-270.1 529.49,-261.26"/>
<polygon fill="black" stroke="black" points="532.74,-262.6 534.2,-252.1 526.52,-259.4 532.74,-262.6"/>
</g>
<!-- ast.Name object at 0x7f4ff1f6d5d0&#45;&gt;ast.Store object at 0x7f503aaf5fc0 -->
<g id="edge26" class="edge">
<title>ast.Name object at 0x7f4ff1f6d5d0&#45;&gt;ast.Store object at 0x7f503aaf5fc0</title>
<path fill="none" stroke="black" d="M443.74,-219.38C440.82,-218.15 437.87,-217 435,-216 368.73,-193.02 288.26,-177.07 242.2,-169.03"/>
<polygon fill="black" stroke="black" points="242.53,-165.54 232.09,-167.3 241.35,-172.44 242.53,-165.54"/>
</g>
<!-- ast.BinOp object at 0x7f4ff1f6e950 -->
<g id="node25" class="node">
<title>ast.BinOp object at 0x7f4ff1f6e950</title>
<path fill="#66cdaa" stroke="black" d="M592,-180C592,-180 562,-180 562,-180 556,-180 550,-174 550,-168 550,-168 550,-156 550,-156 550,-150 556,-144 562,-144 562,-144 592,-144 592,-144 598,-144 604,-150 604,-156 604,-156 604,-168 604,-168 604,-174 598,-180 592,-180"/>
<text text-anchor="middle" x="577" y="-158.3" font-family="Times,serif" font-size="14.00">BinOp</text>
</g>
<!-- ast.BinOp object at 0x7f4ff1f6fca0&#45;&gt;ast.BinOp object at 0x7f4ff1f6e950 -->
<g id="edge29" class="edge">
<title>ast.BinOp object at 0x7f4ff1f6fca0&#45;&gt;ast.BinOp object at 0x7f4ff1f6e950</title>
<path fill="none" stroke="black" d="M551.4,-215.7C555.27,-207.73 559.95,-198.1 564.24,-189.26"/>
<polygon fill="black" stroke="black" points="567.47,-190.63 568.69,-180.1 561.17,-187.57 567.47,-190.63"/>
</g>
<!-- ast.Mult object at 0x7f503aaf6260 -->
<g id="node28" class="node">
<title>ast.Mult object at 0x7f503aaf6260</title>
<path fill="#66cdaa" stroke="black" d="M520,-180C520,-180 490,-180 490,-180 484,-180 478,-174 478,-168 478,-168 478,-156 478,-156 478,-150 484,-144 490,-144 490,-144 520,-144 520,-144 526,-144 532,-150 532,-156 532,-156 532,-168 532,-168 532,-174 526,-180 520,-180"/>
<text text-anchor="middle" x="505" y="-158.3" font-family="Times,serif" font-size="14.00">Mult</text>
</g>
<!-- ast.BinOp object at 0x7f4ff1f6fca0&#45;&gt;ast.Mult object at 0x7f503aaf6260 -->
<g id="edge34" class="edge">
<title>ast.BinOp object at 0x7f4ff1f6fca0&#45;&gt;ast.Mult object at 0x7f503aaf6260</title>
<path fill="none" stroke="black" d="M533.61,-215.7C529.24,-207.64 523.94,-197.89 519.1,-188.98"/>
<polygon fill="black" stroke="black" points="522.13,-187.22 514.29,-180.1 515.98,-190.56 522.13,-187.22"/>
</g>
<!-- ast.BinOp object at 0x7f4ff1f6caf0 -->
<g id="node29" class="node">
<title>ast.BinOp object at 0x7f4ff1f6caf0</title>
<path fill="#66cdaa" stroke="black" d="M428,-180C428,-180 398,-180 398,-180 392,-180 386,-174 386,-168 386,-168 386,-156 386,-156 386,-150 392,-144 398,-144 398,-144 428,-144 428,-144 434,-144 440,-150 440,-156 440,-156 440,-168 440,-168 440,-174 434,-180 428,-180"/>
<text text-anchor="middle" x="413" y="-158.3" font-family="Times,serif" font-size="14.00">BinOp</text>
</g>
<!-- ast.BinOp object at 0x7f4ff1f6fca0&#45;&gt;ast.BinOp object at 0x7f4ff1f6caf0 -->
<g id="edge35" class="edge">
<title>ast.BinOp object at 0x7f4ff1f6fca0&#45;&gt;ast.BinOp object at 0x7f4ff1f6caf0</title>
<path fill="none" stroke="black" d="M515.75,-218.33C496.42,-207.92 470.28,-193.84 449.2,-182.49"/>
<polygon fill="black" stroke="black" points="450.68,-179.31 440.22,-177.65 447.36,-185.48 450.68,-179.31"/>
</g>
<!-- ast.BinOp object at 0x7f4ff1f6e950&#45;&gt;ast.Add object at 0x7f503aaf61a0 -->
<g id="edge32" class="edge">
<title>ast.BinOp object at 0x7f4ff1f6e950&#45;&gt;ast.Add object at 0x7f503aaf61a0</title>
<path fill="none" stroke="black" d="M604.08,-145.46C621.45,-135.5 644.21,-122.44 663.09,-111.61"/>
<polygon fill="black" stroke="black" points="665.07,-114.5 672,-106.49 661.58,-108.43 665.07,-114.5"/>
</g>
<!-- ast.Name object at 0x7f4ff1f6f250 -->
<g id="node26" class="node">
<title>ast.Name object at 0x7f4ff1f6f250</title>
<path fill="#66cdaa" stroke="black" d="M642,-108C642,-108 612,-108 612,-108 606,-108 600,-102 600,-96 600,-96 600,-84 600,-84 600,-78 606,-72 612,-72 612,-72 642,-72 642,-72 648,-72 654,-78 654,-84 654,-84 654,-96 654,-96 654,-102 648,-108 642,-108"/>
<text text-anchor="middle" x="627" y="-86.3" font-family="Times,serif" font-size="14.00">Name</text>
</g>
<!-- ast.BinOp object at 0x7f4ff1f6e950&#45;&gt;ast.Name object at 0x7f4ff1f6f250 -->
<g id="edge30" class="edge">
<title>ast.BinOp object at 0x7f4ff1f6e950&#45;&gt;ast.Name object at 0x7f4ff1f6f250</title>
<path fill="none" stroke="black" d="M589.36,-143.7C595.23,-135.47 602.37,-125.48 608.84,-116.42"/>
<polygon fill="black" stroke="black" points="611.82,-118.28 614.78,-108.1 606.12,-114.21 611.82,-118.28"/>
</g>
<!-- ast.Constant object at 0x7f4ff1f6cfa0 -->
<g id="node27" class="node">
<title>ast.Constant object at 0x7f4ff1f6cfa0</title>
<path fill="#66cdaa" stroke="black" d="M569.5,-108C569.5,-108 528.5,-108 528.5,-108 522.5,-108 516.5,-102 516.5,-96 516.5,-96 516.5,-84 516.5,-84 516.5,-78 522.5,-72 528.5,-72 528.5,-72 569.5,-72 569.5,-72 575.5,-72 581.5,-78 581.5,-84 581.5,-84 581.5,-96 581.5,-96 581.5,-102 575.5,-108 569.5,-108"/>
<text text-anchor="middle" x="549" y="-86.3" font-family="Times,serif" font-size="14.00">Constant</text>
</g>
<!-- ast.BinOp object at 0x7f4ff1f6e950&#45;&gt;ast.Constant object at 0x7f4ff1f6cfa0 -->
<g id="edge33" class="edge">
<title>ast.BinOp object at 0x7f4ff1f6e950&#45;&gt;ast.Constant object at 0x7f4ff1f6cfa0</title>
<path fill="none" stroke="black" d="M570.08,-143.7C566.93,-135.81 563.12,-126.3 559.62,-117.55"/>
<polygon fill="black" stroke="black" points="562.81,-116.09 555.84,-108.1 556.31,-118.69 562.81,-116.09"/>
</g>
<!-- ast.Name object at 0x7f4ff1f6f250&#45;&gt;ast.Load object at 0x7f503aaf5f60 -->
<g id="edge31" class="edge">
<title>ast.Name object at 0x7f4ff1f6f250&#45;&gt;ast.Load object at 0x7f503aaf5f60</title>
<path fill="none" stroke="black" d="M599.94,-76.52C596.59,-74.99 593.22,-73.46 590,-72 562.47,-59.55 531.27,-45.66 507.72,-35.22"/>
<polygon fill="black" stroke="black" points="509.02,-31.97 498.45,-31.12 506.18,-38.37 509.02,-31.97"/>
</g>
<!-- ast.Constant object at 0x7f4ff1f6f460 -->
<g id="node30" class="node">
<title>ast.Constant object at 0x7f4ff1f6f460</title>
<path fill="#66cdaa" stroke="black" d="M413.5,-108C413.5,-108 372.5,-108 372.5,-108 366.5,-108 360.5,-102 360.5,-96 360.5,-96 360.5,-84 360.5,-84 360.5,-78 366.5,-72 372.5,-72 372.5,-72 413.5,-72 413.5,-72 419.5,-72 425.5,-78 425.5,-84 425.5,-84 425.5,-96 425.5,-96 425.5,-102 419.5,-108 413.5,-108"/>
<text text-anchor="middle" x="393" y="-86.3" font-family="Times,serif" font-size="14.00">Constant</text>
</g>
<!-- ast.BinOp object at 0x7f4ff1f6caf0&#45;&gt;ast.Constant object at 0x7f4ff1f6f460 -->
<g id="edge36" class="edge">
<title>ast.BinOp object at 0x7f4ff1f6caf0&#45;&gt;ast.Constant object at 0x7f4ff1f6f460</title>
<path fill="none" stroke="black" d="M408.06,-143.7C405.83,-135.9 403.15,-126.51 400.67,-117.83"/>
<polygon fill="black" stroke="black" points="404,-116.76 397.89,-108.1 397.27,-118.68 404,-116.76"/>
</g>
<!-- ast.Pow object at 0x7f503aaf63e0 -->
<g id="node31" class="node">
<title>ast.Pow object at 0x7f503aaf63e0</title>
<path fill="#66cdaa" stroke="black" d="M330,-108C330,-108 300,-108 300,-108 294,-108 288,-102 288,-96 288,-96 288,-84 288,-84 288,-78 294,-72 300,-72 300,-72 330,-72 330,-72 336,-72 342,-78 342,-84 342,-84 342,-96 342,-96 342,-102 336,-108 330,-108"/>
<text text-anchor="middle" x="315" y="-86.3" font-family="Times,serif" font-size="14.00">Pow</text>
</g>
<!-- ast.BinOp object at 0x7f4ff1f6caf0&#45;&gt;ast.Pow object at 0x7f503aaf63e0 -->
<g id="edge37" class="edge">
<title>ast.BinOp object at 0x7f4ff1f6caf0&#45;&gt;ast.Pow object at 0x7f503aaf63e0</title>
<path fill="none" stroke="black" d="M389.03,-143.88C376.45,-134.89 360.87,-123.76 347.25,-114.03"/>
<polygon fill="black" stroke="black" points="349.24,-111.15 339.07,-108.19 345.17,-116.85 349.24,-111.15"/>
</g>
<!-- ast.Name object at 0x7f4ff1f6dcf0 -->
<g id="node32" class="node">
<title>ast.Name object at 0x7f4ff1f6dcf0</title>
<path fill="#66cdaa" stroke="black" d="M486,-108C486,-108 456,-108 456,-108 450,-108 444,-102 444,-96 444,-96 444,-84 444,-84 444,-78 450,-72 456,-72 456,-72 486,-72 486,-72 492,-72 498,-78 498,-84 498,-84 498,-96 498,-96 498,-102 492,-108 486,-108"/>
<text text-anchor="middle" x="471" y="-86.3" font-family="Times,serif" font-size="14.00">Name</text>
</g>
<!-- ast.BinOp object at 0x7f4ff1f6caf0&#45;&gt;ast.Name object at 0x7f4ff1f6dcf0 -->
<g id="edge38" class="edge">
<title>ast.BinOp object at 0x7f4ff1f6caf0&#45;&gt;ast.Name object at 0x7f4ff1f6dcf0</title>
<path fill="none" stroke="black" d="M427.34,-143.7C434.29,-135.3 442.77,-125.07 450.4,-115.86"/>
<polygon fill="black" stroke="black" points="453.14,-118.04 456.83,-108.1 447.75,-113.57 453.14,-118.04"/>
</g>
<!-- ast.Name object at 0x7f4ff1f6dcf0&#45;&gt;ast.Load object at 0x7f503aaf5f60 -->
<g id="edge39" class="edge">
<title>ast.Name object at 0x7f4ff1f6dcf0&#45;&gt;ast.Load object at 0x7f503aaf5f60</title>
<path fill="none" stroke="black" d="M471,-71.7C471,-63.98 471,-54.71 471,-46.11"/>
<polygon fill="black" stroke="black" points="474.5,-46.1 471,-36.1 467.5,-46.1 474.5,-46.1"/>
</g>
<!-- ast.Compare object at 0x7f4ff1f6e2f0 -->
<g id="node34" class="node">
<title>ast.Compare object at 0x7f4ff1f6e2f0</title>
<path fill="#66cdaa" stroke="black" d="M754.5,-252C754.5,-252 711.5,-252 711.5,-252 705.5,-252 699.5,-246 699.5,-240 699.5,-240 699.5,-228 699.5,-228 699.5,-222 705.5,-216 711.5,-216 711.5,-216 754.5,-216 754.5,-216 760.5,-216 766.5,-222 766.5,-228 766.5,-228 766.5,-240 766.5,-240 766.5,-246 760.5,-252 754.5,-252"/>
<text text-anchor="middle" x="733" y="-230.3" font-family="Times,serif" font-size="14.00">Compare</text>
</g>
<!-- ast.Return object at 0x7f4ff1f6f3d0&#45;&gt;ast.Compare object at 0x7f4ff1f6e2f0 -->
<g id="edge41" class="edge">
<title>ast.Return object at 0x7f4ff1f6f3d0&#45;&gt;ast.Compare object at 0x7f4ff1f6e2f0</title>
<path fill="none" stroke="black" d="M525.42,-360.43C567.62,-334.93 648.56,-286.03 695.94,-257.39"/>
<polygon fill="black" stroke="black" points="697.91,-260.29 704.66,-252.12 694.29,-254.3 697.91,-260.29"/>
</g>
<!-- ast.BinOp object at 0x7f4ff1f6e5c0 -->
<g id="node35" class="node">
<title>ast.BinOp object at 0x7f4ff1f6e5c0</title>
<path fill="#66cdaa" stroke="black" d="M858,-180C858,-180 828,-180 828,-180 822,-180 816,-174 816,-168 816,-168 816,-156 816,-156 816,-150 822,-144 828,-144 828,-144 858,-144 858,-144 864,-144 870,-150 870,-156 870,-156 870,-168 870,-168 870,-174 864,-180 858,-180"/>
<text text-anchor="middle" x="843" y="-158.3" font-family="Times,serif" font-size="14.00">BinOp</text>
</g>
<!-- ast.Compare object at 0x7f4ff1f6e2f0&#45;&gt;ast.BinOp object at 0x7f4ff1f6e5c0 -->
<g id="edge42" class="edge">
<title>ast.Compare object at 0x7f4ff1f6e2f0&#45;&gt;ast.BinOp object at 0x7f4ff1f6e5c0</title>
<path fill="none" stroke="black" d="M759.91,-215.88C774.16,-206.81 791.85,-195.55 807.24,-185.76"/>
<polygon fill="black" stroke="black" points="809.43,-188.51 815.99,-180.19 805.67,-182.61 809.43,-188.51"/>
</g>
<!-- ast.Eq object at 0x7f503aaf6890 -->
<g id="node39" class="node">
<title>ast.Eq object at 0x7f503aaf6890</title>
<path fill="#66cdaa" stroke="black" d="M786,-180C786,-180 756,-180 756,-180 750,-180 744,-174 744,-168 744,-168 744,-156 744,-156 744,-150 750,-144 756,-144 756,-144 786,-144 786,-144 792,-144 798,-150 798,-156 798,-156 798,-168 798,-168 798,-174 792,-180 786,-180"/>
<text text-anchor="middle" x="771" y="-158.3" font-family="Times,serif" font-size="14.00">Eq</text>
</g>
<!-- ast.Compare object at 0x7f4ff1f6e2f0&#45;&gt;ast.Eq object at 0x7f503aaf6890 -->
<g id="edge48" class="edge">
<title>ast.Compare object at 0x7f4ff1f6e2f0&#45;&gt;ast.Eq object at 0x7f503aaf6890</title>
<path fill="none" stroke="black" d="M742.39,-215.7C746.76,-207.64 752.06,-197.89 756.9,-188.98"/>
<polygon fill="black" stroke="black" points="760.02,-190.56 761.71,-180.1 753.87,-187.22 760.02,-190.56"/>
</g>
<!-- ast.Constant object at 0x7f4ff1f6dba0 -->
<g id="node40" class="node">
<title>ast.Constant object at 0x7f4ff1f6dba0</title>
<path fill="#66cdaa" stroke="black" d="M713.5,-180C713.5,-180 672.5,-180 672.5,-180 666.5,-180 660.5,-174 660.5,-168 660.5,-168 660.5,-156 660.5,-156 660.5,-150 666.5,-144 672.5,-144 672.5,-144 713.5,-144 713.5,-144 719.5,-144 725.5,-150 725.5,-156 725.5,-156 725.5,-168 725.5,-168 725.5,-174 719.5,-180 713.5,-180"/>
<text text-anchor="middle" x="693" y="-158.3" font-family="Times,serif" font-size="14.00">Constant</text>
</g>
<!-- ast.Compare object at 0x7f4ff1f6e2f0&#45;&gt;ast.Constant object at 0x7f4ff1f6dba0 -->
<g id="edge49" class="edge">
<title>ast.Compare object at 0x7f4ff1f6e2f0&#45;&gt;ast.Constant object at 0x7f4ff1f6dba0</title>
<path fill="none" stroke="black" d="M723.11,-215.7C718.51,-207.64 712.94,-197.89 707.85,-188.98"/>
<polygon fill="black" stroke="black" points="710.77,-187.05 702.77,-180.1 704.7,-190.52 710.77,-187.05"/>
</g>
<!-- ast.Name object at 0x7f4ff1f6f700 -->
<g id="node36" class="node">
<title>ast.Name object at 0x7f4ff1f6f700</title>
<path fill="#66cdaa" stroke="black" d="M786,-108C786,-108 756,-108 756,-108 750,-108 744,-102 744,-96 744,-96 744,-84 744,-84 744,-78 750,-72 756,-72 756,-72 786,-72 786,-72 792,-72 798,-78 798,-84 798,-84 798,-96 798,-96 798,-102 792,-108 786,-108"/>
<text text-anchor="middle" x="771" y="-86.3" font-family="Times,serif" font-size="14.00">Name</text>
</g>
<!-- ast.BinOp object at 0x7f4ff1f6e5c0&#45;&gt;ast.Name object at 0x7f4ff1f6f700 -->
<g id="edge43" class="edge">
<title>ast.BinOp object at 0x7f4ff1f6e5c0&#45;&gt;ast.Name object at 0x7f4ff1f6f700</title>
<path fill="none" stroke="black" d="M825.2,-143.7C816.4,-135.14 805.62,-124.66 796,-115.3"/>
<polygon fill="black" stroke="black" points="798.2,-112.57 788.59,-108.1 793.32,-117.58 798.2,-112.57"/>
</g>
<!-- ast.Mod object at 0x7f503aaf6380 -->
<g id="node37" class="node">
<title>ast.Mod object at 0x7f503aaf6380</title>
<path fill="#66cdaa" stroke="black" d="M858,-108C858,-108 828,-108 828,-108 822,-108 816,-102 816,-96 816,-96 816,-84 816,-84 816,-78 822,-72 828,-72 828,-72 858,-72 858,-72 864,-72 870,-78 870,-84 870,-84 870,-96 870,-96 870,-102 864,-108 858,-108"/>
<text text-anchor="middle" x="843" y="-86.3" font-family="Times,serif" font-size="14.00">Mod</text>
</g>
<!-- ast.BinOp object at 0x7f4ff1f6e5c0&#45;&gt;ast.Mod object at 0x7f503aaf6380 -->
<g id="edge45" class="edge">
<title>ast.BinOp object at 0x7f4ff1f6e5c0&#45;&gt;ast.Mod object at 0x7f503aaf6380</title>
<path fill="none" stroke="black" d="M843,-143.7C843,-135.98 843,-126.71 843,-118.11"/>
<polygon fill="black" stroke="black" points="846.5,-118.1 843,-108.1 839.5,-118.1 846.5,-118.1"/>
</g>
<!-- ast.Name object at 0x7f4ff1f6cdc0 -->
<g id="node38" class="node">
<title>ast.Name object at 0x7f4ff1f6cdc0</title>
<path fill="#66cdaa" stroke="black" d="M930,-108C930,-108 900,-108 900,-108 894,-108 888,-102 888,-96 888,-96 888,-84 888,-84 888,-78 894,-72 900,-72 900,-72 930,-72 930,-72 936,-72 942,-78 942,-84 942,-84 942,-96 942,-96 942,-102 936,-108 930,-108"/>
<text text-anchor="middle" x="915" y="-86.3" font-family="Times,serif" font-size="14.00">Name</text>
</g>
<!-- ast.BinOp object at 0x7f4ff1f6e5c0&#45;&gt;ast.Name object at 0x7f4ff1f6cdc0 -->
<g id="edge46" class="edge">
<title>ast.BinOp object at 0x7f4ff1f6e5c0&#45;&gt;ast.Name object at 0x7f4ff1f6cdc0</title>
<path fill="none" stroke="black" d="M860.8,-143.7C869.6,-135.14 880.38,-124.66 890,-115.3"/>
<polygon fill="black" stroke="black" points="892.68,-117.58 897.41,-108.1 887.8,-112.57 892.68,-117.58"/>
</g>
<!-- ast.Name object at 0x7f4ff1f6f700&#45;&gt;ast.Load object at 0x7f503aaf5f60 -->
<g id="edge44" class="edge">
<title>ast.Name object at 0x7f4ff1f6f700&#45;&gt;ast.Load object at 0x7f503aaf5f60</title>
<path fill="none" stroke="black" d="M743.76,-75.3C740.85,-74.08 737.89,-72.96 735,-72 656.32,-45.96 560,-30.57 508.21,-23.56"/>
<polygon fill="black" stroke="black" points="508.54,-20.08 498.16,-22.24 507.62,-27.02 508.54,-20.08"/>
</g>
<!-- ast.Name object at 0x7f4ff1f6cdc0&#45;&gt;ast.Load object at 0x7f503aaf5f60 -->
<g id="edge47" class="edge">
<title>ast.Name object at 0x7f4ff1f6cdc0&#45;&gt;ast.Load object at 0x7f503aaf5f60</title>
<path fill="none" stroke="black" d="M887.83,-75.09C884.9,-73.92 881.92,-72.86 879,-72 746.38,-33.12 581.17,-22.74 508.38,-19.98"/>
<polygon fill="black" stroke="black" points="508.45,-16.48 498.33,-19.63 508.2,-23.48 508.45,-16.48"/>
</g>
</g>
</svg>
