<?xml version="1.0" encoding="UTF-8" standalone="no"?>
<!DOCTYPE svg PUBLIC "-//W3C//DTD SVG 1.1//EN"
 "http://www.w3.org/Graphics/SVG/1.1/DTD/svg11.dtd">
<!-- Generated by graphviz version 2.43.0 (0)
 -->
<!-- Title: %3 Pages: 1 -->
<svg width="660pt" height="692pt"
 viewBox="0.00 0.00 659.50 692.00" xmlns="http://www.w3.org/2000/svg" xmlns:xlink="http://www.w3.org/1999/xlink">
<g id="graph0" class="graph" transform="scale(1 1) rotate(0) translate(4 688)">
<title>%3</title>
<polygon fill="white" stroke="transparent" points="-4,4 -4,-688 655.5,-688 655.5,4 -4,4"/>
<!-- ast.Module object at 0x7f47c9d26170 -->
<g id="node1" class="node">
<title>ast.Module object at 0x7f47c9d26170</title>
<path fill="#66cdaa" stroke="black" d="M119,-684C119,-684 73,-684 73,-684 67,-684 61,-678 61,-672 61,-672 61,-660 61,-660 61,-654 67,-648 73,-648 73,-648 119,-648 119,-648 125,-648 131,-654 131,-660 131,-660 131,-672 131,-672 131,-678 125,-684 119,-684"/>
<text text-anchor="middle" x="96" y="-662.3" font-family="Times,serif" font-size="14.00">Module</text>
</g>
<!-- ast.FunctionDef object at 0x7f47c9d26e30 -->
<g id="node2" class="node">
<title>ast.FunctionDef object at 0x7f47c9d26e30</title>
<path fill="#66cdaa" stroke="black" d="M136,-612C136,-612 56,-612 56,-612 50,-612 44,-606 44,-600 44,-600 44,-588 44,-588 44,-582 50,-576 56,-576 56,-576 136,-576 136,-576 142,-576 148,-582 148,-588 148,-588 148,-600 148,-600 148,-606 142,-612 136,-612"/>
<text text-anchor="middle" x="96" y="-590.3" font-family="Times,serif" font-size="14.00">FunctionDef</text>
</g>
<!-- ast.Module object at 0x7f47c9d26170&#45;&gt;ast.FunctionDef object at 0x7f47c9d26e30 -->
<g id="edge1" class="edge">
<title>ast.Module object at 0x7f47c9d26170&#45;&gt;ast.FunctionDef object at 0x7f47c9d26e30</title>
<path fill="none" stroke="black" d="M96,-647.7C96,-639.98 96,-630.71 96,-622.11"/>
<polygon fill="black" stroke="black" points="99.5,-622.1 96,-612.1 92.5,-622.1 99.5,-622.1"/>
</g>
<!-- ast.arguments object at 0x7f47c9d26860 -->
<g id="node3" class="node">
<title>ast.arguments object at 0x7f47c9d26860</title>
<path fill="#66cdaa" stroke="black" d="M82,-540C82,-540 12,-540 12,-540 6,-540 0,-534 0,-528 0,-528 0,-516 0,-516 0,-510 6,-504 12,-504 12,-504 82,-504 82,-504 88,-504 94,-510 94,-516 94,-516 94,-528 94,-528 94,-534 88,-540 82,-540"/>
<text text-anchor="middle" x="47" y="-518.3" font-family="Times,serif" font-size="14.00">arguments</text>
</g>
<!-- ast.FunctionDef object at 0x7f47c9d26e30&#45;&gt;ast.arguments object at 0x7f47c9d26860 -->
<g id="edge2" class="edge">
<title>ast.FunctionDef object at 0x7f47c9d26e30&#45;&gt;ast.arguments object at 0x7f47c9d26860</title>
<path fill="none" stroke="black" d="M83.89,-575.7C78.13,-567.47 71.14,-557.48 64.79,-548.42"/>
<polygon fill="black" stroke="black" points="67.58,-546.29 58.97,-540.1 61.84,-550.3 67.58,-546.29"/>
</g>
<!-- ast.Return object at 0x7f47c9d24400 -->
<g id="node5" class="node">
<title>ast.Return object at 0x7f47c9d24400</title>
<path fill="#66cdaa" stroke="black" d="M166,-540C166,-540 124,-540 124,-540 118,-540 112,-534 112,-528 112,-528 112,-516 112,-516 112,-510 118,-504 124,-504 124,-504 166,-504 166,-504 172,-504 178,-510 178,-516 178,-516 178,-528 178,-528 178,-534 172,-540 166,-540"/>
<text text-anchor="middle" x="145" y="-518.3" font-family="Times,serif" font-size="14.00">Return</text>
</g>
<!-- ast.FunctionDef object at 0x7f47c9d26e30&#45;&gt;ast.Return object at 0x7f47c9d24400 -->
<g id="edge4" class="edge">
<title>ast.FunctionDef object at 0x7f47c9d26e30&#45;&gt;ast.Return object at 0x7f47c9d24400</title>
<path fill="none" stroke="black" d="M108.11,-575.7C113.87,-567.47 120.86,-557.48 127.21,-548.42"/>
<polygon fill="black" stroke="black" points="130.16,-550.3 133.03,-540.1 124.42,-546.29 130.16,-550.3"/>
</g>
<!-- ast.arg object at 0x7f47c9d24f40 -->
<g id="node4" class="node">
<title>ast.arg object at 0x7f47c9d24f40</title>
<path fill="#66cdaa" stroke="black" d="M62,-468C62,-468 32,-468 32,-468 26,-468 20,-462 20,-456 20,-456 20,-444 20,-444 20,-438 26,-432 32,-432 32,-432 62,-432 62,-432 68,-432 74,-438 74,-444 74,-444 74,-456 74,-456 74,-462 68,-468 62,-468"/>
<text text-anchor="middle" x="47" y="-446.3" font-family="Times,serif" font-size="14.00">arg</text>
</g>
<!-- ast.arguments object at 0x7f47c9d26860&#45;&gt;ast.arg object at 0x7f47c9d24f40 -->
<g id="edge3" class="edge">
<title>ast.arguments object at 0x7f47c9d26860&#45;&gt;ast.arg object at 0x7f47c9d24f40</title>
<path fill="none" stroke="black" d="M47,-503.7C47,-495.98 47,-486.71 47,-478.11"/>
<polygon fill="black" stroke="black" points="50.5,-478.1 47,-468.1 43.5,-478.1 50.5,-478.1"/>
</g>
<!-- ast.Call object at 0x7f47c9d24a00 -->
<g id="node6" class="node">
<title>ast.Call object at 0x7f47c9d24a00</title>
<path fill="#66cdaa" stroke="black" d="M160,-468C160,-468 130,-468 130,-468 124,-468 118,-462 118,-456 118,-456 118,-444 118,-444 118,-438 124,-432 130,-432 130,-432 160,-432 160,-432 166,-432 172,-438 172,-444 172,-444 172,-456 172,-456 172,-462 166,-468 160,-468"/>
<text text-anchor="middle" x="145" y="-446.3" font-family="Times,serif" font-size="14.00">Call</text>
</g>
<!-- ast.Return object at 0x7f47c9d24400&#45;&gt;ast.Call object at 0x7f47c9d24a00 -->
<g id="edge5" class="edge">
<title>ast.Return object at 0x7f47c9d24400&#45;&gt;ast.Call object at 0x7f47c9d24a00</title>
<path fill="none" stroke="black" d="M145,-503.7C145,-495.98 145,-486.71 145,-478.11"/>
<polygon fill="black" stroke="black" points="148.5,-478.1 145,-468.1 141.5,-478.1 148.5,-478.1"/>
</g>
<!-- ast.Name object at 0x7f47c9d248b0 -->
<g id="node7" class="node">
<title>ast.Name object at 0x7f47c9d248b0</title>
<path fill="#66cdaa" stroke="black" d="M109.5,-396C109.5,-396 74.5,-396 74.5,-396 68.5,-396 62.5,-390 62.5,-384 62.5,-384 62.5,-372 62.5,-372 62.5,-366 68.5,-360 74.5,-360 74.5,-360 109.5,-360 109.5,-360 115.5,-360 121.5,-366 121.5,-372 121.5,-372 121.5,-384 121.5,-384 121.5,-390 115.5,-396 109.5,-396"/>
<text text-anchor="middle" x="92" y="-374.3" font-family="Times,serif" font-size="14.00">Name</text>
</g>
<!-- ast.Call object at 0x7f47c9d24a00&#45;&gt;ast.Name object at 0x7f47c9d248b0 -->
<g id="edge6" class="edge">
<title>ast.Call object at 0x7f47c9d24a00&#45;&gt;ast.Name object at 0x7f47c9d248b0</title>
<path fill="none" stroke="black" d="M131.9,-431.7C125.61,-423.39 117.95,-413.28 111.04,-404.14"/>
<polygon fill="black" stroke="black" points="113.78,-401.96 104.95,-396.1 108.2,-406.19 113.78,-401.96"/>
</g>
<!-- ast.GeneratorExp object at 0x7f47c9d266e0 -->
<g id="node9" class="node">
<title>ast.GeneratorExp object at 0x7f47c9d266e0</title>
<path fill="#66cdaa" stroke="black" d="M244.5,-396C244.5,-396 151.5,-396 151.5,-396 145.5,-396 139.5,-390 139.5,-384 139.5,-384 139.5,-372 139.5,-372 139.5,-366 145.5,-360 151.5,-360 151.5,-360 244.5,-360 244.5,-360 250.5,-360 256.5,-366 256.5,-372 256.5,-372 256.5,-384 256.5,-384 256.5,-390 250.5,-396 244.5,-396"/>
<text text-anchor="middle" x="198" y="-374.3" font-family="Times,serif" font-size="14.00">GeneratorExp</text>
</g>
<!-- ast.Call object at 0x7f47c9d24a00&#45;&gt;ast.GeneratorExp object at 0x7f47c9d266e0 -->
<g id="edge8" class="edge">
<title>ast.Call object at 0x7f47c9d24a00&#45;&gt;ast.GeneratorExp object at 0x7f47c9d266e0</title>
<path fill="none" stroke="black" d="M158.1,-431.7C164.39,-423.39 172.05,-413.28 178.96,-404.14"/>
<polygon fill="black" stroke="black" points="181.8,-406.19 185.05,-396.1 176.22,-401.96 181.8,-406.19"/>
</g>
<!-- ast.Load object at 0x7f47f75b1750 -->
<g id="node8" class="node">
<title>ast.Load object at 0x7f47f75b1750</title>
<path fill="#66cdaa" stroke="black" d="M215,-36C215,-36 185,-36 185,-36 179,-36 173,-30 173,-24 173,-24 173,-12 173,-12 173,-6 179,0 185,0 185,0 215,0 215,0 221,0 227,-6 227,-12 227,-12 227,-24 227,-24 227,-30 221,-36 215,-36"/>
<text text-anchor="middle" x="200" y="-14.3" font-family="Times,serif" font-size="14.00">Load</text>
</g>
<!-- ast.Name object at 0x7f47c9d248b0&#45;&gt;ast.Load object at 0x7f47f75b1750 -->
<g id="edge7" class="edge">
<title>ast.Name object at 0x7f47c9d248b0&#45;&gt;ast.Load object at 0x7f47f75b1750</title>
<path fill="none" stroke="black" d="M92,-359.95C92,-333.29 92,-280.11 92,-235 92,-235 92,-235 92,-161 92,-111.1 134.77,-67.77 166.48,-42.5"/>
<polygon fill="black" stroke="black" points="168.91,-45.05 174.68,-36.17 164.63,-39.51 168.91,-45.05"/>
</g>
<!-- ast.Name object at 0x7f47c9d24490 -->
<g id="node10" class="node">
<title>ast.Name object at 0x7f47c9d24490</title>
<path fill="#66cdaa" stroke="black" d="M205.5,-324C205.5,-324 170.5,-324 170.5,-324 164.5,-324 158.5,-318 158.5,-312 158.5,-312 158.5,-300 158.5,-300 158.5,-294 164.5,-288 170.5,-288 170.5,-288 205.5,-288 205.5,-288 211.5,-288 217.5,-294 217.5,-300 217.5,-300 217.5,-312 217.5,-312 217.5,-318 211.5,-324 205.5,-324"/>
<text text-anchor="middle" x="188" y="-302.3" font-family="Times,serif" font-size="14.00">Name</text>
</g>
<!-- ast.GeneratorExp object at 0x7f47c9d266e0&#45;&gt;ast.Name object at 0x7f47c9d24490 -->
<g id="edge9" class="edge">
<title>ast.GeneratorExp object at 0x7f47c9d266e0&#45;&gt;ast.Name object at 0x7f47c9d24490</title>
<path fill="none" stroke="black" d="M195.53,-359.7C194.43,-351.98 193.1,-342.71 191.87,-334.11"/>
<polygon fill="black" stroke="black" points="195.32,-333.51 190.44,-324.1 188.39,-334.5 195.32,-333.51"/>
</g>
<!-- ast.comprehension object at 0x7f47c9d251b0 -->
<g id="node11" class="node">
<title>ast.comprehension object at 0x7f47c9d251b0</title>
<path fill="#66cdaa" stroke="black" d="M362.5,-324C362.5,-324 261.5,-324 261.5,-324 255.5,-324 249.5,-318 249.5,-312 249.5,-312 249.5,-300 249.5,-300 249.5,-294 255.5,-288 261.5,-288 261.5,-288 362.5,-288 362.5,-288 368.5,-288 374.5,-294 374.5,-300 374.5,-300 374.5,-312 374.5,-312 374.5,-318 368.5,-324 362.5,-324"/>
<text text-anchor="middle" x="312" y="-302.3" font-family="Times,serif" font-size="14.00">comprehension</text>
</g>
<!-- ast.GeneratorExp object at 0x7f47c9d266e0&#45;&gt;ast.comprehension object at 0x7f47c9d251b0 -->
<g id="edge11" class="edge">
<title>ast.GeneratorExp object at 0x7f47c9d266e0&#45;&gt;ast.comprehension object at 0x7f47c9d251b0</title>
<path fill="none" stroke="black" d="M225.89,-359.88C240.79,-350.72 259.33,-339.34 275.38,-329.48"/>
<polygon fill="black" stroke="black" points="277.31,-332.41 284.01,-324.19 273.65,-326.44 277.31,-332.41"/>
</g>
<!-- ast.Name object at 0x7f47c9d24490&#45;&gt;ast.Load object at 0x7f47f75b1750 -->
<g id="edge10" class="edge">
<title>ast.Name object at 0x7f47c9d24490&#45;&gt;ast.Load object at 0x7f47f75b1750</title>
<path fill="none" stroke="black" d="M180.88,-288C171.38,-264.31 155.06,-219.78 149,-180 146.59,-164.18 147.68,-159.95 149,-144 151.68,-111.67 148.37,-101.88 161,-72 165.14,-62.21 171.41,-52.54 177.73,-44.2"/>
<polygon fill="black" stroke="black" points="180.5,-46.34 183.98,-36.33 175.02,-41.98 180.5,-46.34"/>
</g>
<!-- ast.Name object at 0x7f47c9d27370 -->
<g id="node12" class="node">
<title>ast.Name object at 0x7f47c9d27370</title>
<path fill="#66cdaa" stroke="black" d="M438.5,-252C438.5,-252 403.5,-252 403.5,-252 397.5,-252 391.5,-246 391.5,-240 391.5,-240 391.5,-228 391.5,-228 391.5,-222 397.5,-216 403.5,-216 403.5,-216 438.5,-216 438.5,-216 444.5,-216 450.5,-222 450.5,-228 450.5,-228 450.5,-240 450.5,-240 450.5,-246 444.5,-252 438.5,-252"/>
<text text-anchor="middle" x="421" y="-230.3" font-family="Times,serif" font-size="14.00">Name</text>
</g>
<!-- ast.comprehension object at 0x7f47c9d251b0&#45;&gt;ast.Name object at 0x7f47c9d27370 -->
<g id="edge12" class="edge">
<title>ast.comprehension object at 0x7f47c9d251b0&#45;&gt;ast.Name object at 0x7f47c9d27370</title>
<path fill="none" stroke="black" d="M338.66,-287.88C352.78,-278.81 370.31,-267.55 385.56,-257.76"/>
<polygon fill="black" stroke="black" points="387.71,-260.54 394.23,-252.19 383.93,-254.65 387.71,-260.54"/>
</g>
<!-- ast.Subscript object at 0x7f47c9d27d60 -->
<g id="node14" class="node">
<title>ast.Subscript object at 0x7f47c9d27d60</title>
<path fill="#66cdaa" stroke="black" d="M557,-180C557,-180 495,-180 495,-180 489,-180 483,-174 483,-168 483,-168 483,-156 483,-156 483,-150 489,-144 495,-144 495,-144 557,-144 557,-144 563,-144 569,-150 569,-156 569,-156 569,-168 569,-168 569,-174 563,-180 557,-180"/>
<text text-anchor="middle" x="526" y="-158.3" font-family="Times,serif" font-size="14.00">Subscript</text>
</g>
<!-- ast.comprehension object at 0x7f47c9d251b0&#45;&gt;ast.Subscript object at 0x7f47c9d27d60 -->
<g id="edge14" class="edge">
<title>ast.comprehension object at 0x7f47c9d251b0&#45;&gt;ast.Subscript object at 0x7f47c9d27d60</title>
<path fill="none" stroke="black" d="M374.66,-291.39C402.65,-283.19 434.9,-270.62 460,-252 482.54,-235.28 500.82,-208.71 512.38,-188.95"/>
<polygon fill="black" stroke="black" points="515.49,-190.57 517.36,-180.14 509.39,-187.12 515.49,-190.57"/>
</g>
<!-- ast.Compare object at 0x7f47c9d274c0 -->
<g id="node19" class="node">
<title>ast.Compare object at 0x7f47c9d274c0</title>
<path fill="#66cdaa" stroke="black" d="M331.5,-252C331.5,-252 274.5,-252 274.5,-252 268.5,-252 262.5,-246 262.5,-240 262.5,-240 262.5,-228 262.5,-228 262.5,-222 268.5,-216 274.5,-216 274.5,-216 331.5,-216 331.5,-216 337.5,-216 343.5,-222 343.5,-228 343.5,-228 343.5,-240 343.5,-240 343.5,-246 337.5,-252 331.5,-252"/>
<text text-anchor="middle" x="303" y="-230.3" font-family="Times,serif" font-size="14.00">Compare</text>
</g>
<!-- ast.comprehension object at 0x7f47c9d251b0&#45;&gt;ast.Compare object at 0x7f47c9d274c0 -->
<g id="edge21" class="edge">
<title>ast.comprehension object at 0x7f47c9d251b0&#45;&gt;ast.Compare object at 0x7f47c9d274c0</title>
<path fill="none" stroke="black" d="M309.78,-287.7C308.78,-279.98 307.59,-270.71 306.49,-262.11"/>
<polygon fill="black" stroke="black" points="309.95,-261.58 305.2,-252.1 303,-262.47 309.95,-261.58"/>
</g>
<!-- ast.Store object at 0x7f47f75b17b0 -->
<g id="node13" class="node">
<title>ast.Store object at 0x7f47f75b17b0</title>
<path fill="#66cdaa" stroke="black" d="M453,-180C453,-180 421,-180 421,-180 415,-180 409,-174 409,-168 409,-168 409,-156 409,-156 409,-150 415,-144 421,-144 421,-144 453,-144 453,-144 459,-144 465,-150 465,-156 465,-156 465,-168 465,-168 465,-174 459,-180 453,-180"/>
<text text-anchor="middle" x="437" y="-158.3" font-family="Times,serif" font-size="14.00">Store</text>
</g>
<!-- ast.Name object at 0x7f47c9d27370&#45;&gt;ast.Store object at 0x7f47f75b17b0 -->
<g id="edge13" class="edge">
<title>ast.Name object at 0x7f47c9d27370&#45;&gt;ast.Store object at 0x7f47f75b17b0</title>
<path fill="none" stroke="black" d="M424.96,-215.7C426.72,-207.98 428.84,-198.71 430.8,-190.11"/>
<polygon fill="black" stroke="black" points="434.27,-190.63 433.09,-180.1 427.45,-189.07 434.27,-190.63"/>
</g>
<!-- ast.Subscript object at 0x7f47c9d27d60&#45;&gt;ast.Load object at 0x7f47f75b1750 -->
<g id="edge20" class="edge">
<title>ast.Subscript object at 0x7f47c9d27d60&#45;&gt;ast.Load object at 0x7f47f75b1750</title>
<path fill="none" stroke="black" d="M523.57,-143.66C519.74,-123.23 510.3,-89.84 488,-72 449.76,-41.42 306.03,-26.85 237.19,-21.51"/>
<polygon fill="black" stroke="black" points="237.44,-18.02 227.21,-20.76 236.92,-25 237.44,-18.02"/>
</g>
<!-- ast.Name object at 0x7f47c9d25240 -->
<g id="node15" class="node">
<title>ast.Name object at 0x7f47c9d25240</title>
<path fill="#66cdaa" stroke="black" d="M466.5,-108C466.5,-108 431.5,-108 431.5,-108 425.5,-108 419.5,-102 419.5,-96 419.5,-96 419.5,-84 419.5,-84 419.5,-78 425.5,-72 431.5,-72 431.5,-72 466.5,-72 466.5,-72 472.5,-72 478.5,-78 478.5,-84 478.5,-84 478.5,-96 478.5,-96 478.5,-102 472.5,-108 466.5,-108"/>
<text text-anchor="middle" x="449" y="-86.3" font-family="Times,serif" font-size="14.00">Name</text>
</g>
<!-- ast.Subscript object at 0x7f47c9d27d60&#45;&gt;ast.Name object at 0x7f47c9d25240 -->
<g id="edge15" class="edge">
<title>ast.Subscript object at 0x7f47c9d27d60&#45;&gt;ast.Name object at 0x7f47c9d25240</title>
<path fill="none" stroke="black" d="M506.97,-143.7C497.46,-135.05 485.79,-124.45 475.43,-115.03"/>
<polygon fill="black" stroke="black" points="477.57,-112.24 467.81,-108.1 472.86,-117.42 477.57,-112.24"/>
</g>
<!-- ast.Slice object at 0x7f47c9d27ca0 -->
<g id="node16" class="node">
<title>ast.Slice object at 0x7f47c9d27ca0</title>
<path fill="#66cdaa" stroke="black" d="M577,-108C577,-108 547,-108 547,-108 541,-108 535,-102 535,-96 535,-96 535,-84 535,-84 535,-78 541,-72 547,-72 547,-72 577,-72 577,-72 583,-72 589,-78 589,-84 589,-84 589,-96 589,-96 589,-102 583,-108 577,-108"/>
<text text-anchor="middle" x="562" y="-86.3" font-family="Times,serif" font-size="14.00">Slice</text>
</g>
<!-- ast.Subscript object at 0x7f47c9d27d60&#45;&gt;ast.Slice object at 0x7f47c9d27ca0 -->
<g id="edge17" class="edge">
<title>ast.Subscript object at 0x7f47c9d27d60&#45;&gt;ast.Slice object at 0x7f47c9d27ca0</title>
<path fill="none" stroke="black" d="M534.9,-143.7C539,-135.73 543.95,-126.1 548.49,-117.26"/>
<polygon fill="black" stroke="black" points="551.74,-118.6 553.2,-108.1 545.52,-115.4 551.74,-118.6"/>
</g>
<!-- ast.Name object at 0x7f47c9d25240&#45;&gt;ast.Load object at 0x7f47f75b1750 -->
<g id="edge16" class="edge">
<title>ast.Name object at 0x7f47c9d25240&#45;&gt;ast.Load object at 0x7f47f75b1750</title>
<path fill="none" stroke="black" d="M419.33,-75.14C416.54,-74.01 413.73,-72.95 411,-72 351.32,-51.33 279.58,-35.05 237,-26.25"/>
<polygon fill="black" stroke="black" points="237.58,-22.79 227.09,-24.22 236.18,-29.65 237.58,-22.79"/>
</g>
<!-- ast.Constant object at 0x7f47c9d27f10 -->
<g id="node17" class="node">
<title>ast.Constant object at 0x7f47c9d27f10</title>
<path fill="#66cdaa" stroke="black" d="M639.5,-36C639.5,-36 582.5,-36 582.5,-36 576.5,-36 570.5,-30 570.5,-24 570.5,-24 570.5,-12 570.5,-12 570.5,-6 576.5,0 582.5,0 582.5,0 639.5,0 639.5,0 645.5,0 651.5,-6 651.5,-12 651.5,-12 651.5,-24 651.5,-24 651.5,-30 645.5,-36 639.5,-36"/>
<text text-anchor="middle" x="611" y="-14.3" font-family="Times,serif" font-size="14.00">Constant</text>
</g>
<!-- ast.Slice object at 0x7f47c9d27ca0&#45;&gt;ast.Constant object at 0x7f47c9d27f10 -->
<g id="edge18" class="edge">
<title>ast.Slice object at 0x7f47c9d27ca0&#45;&gt;ast.Constant object at 0x7f47c9d27f10</title>
<path fill="none" stroke="black" d="M574.11,-71.7C579.87,-63.47 586.86,-53.48 593.21,-44.42"/>
<polygon fill="black" stroke="black" points="596.16,-46.3 599.03,-36.1 590.42,-42.29 596.16,-46.3"/>
</g>
<!-- ast.Constant object at 0x7f47c9d27610 -->
<g id="node18" class="node">
<title>ast.Constant object at 0x7f47c9d27610</title>
<path fill="#66cdaa" stroke="black" d="M540.5,-36C540.5,-36 483.5,-36 483.5,-36 477.5,-36 471.5,-30 471.5,-24 471.5,-24 471.5,-12 471.5,-12 471.5,-6 477.5,0 483.5,0 483.5,0 540.5,0 540.5,0 546.5,0 552.5,-6 552.5,-12 552.5,-12 552.5,-24 552.5,-24 552.5,-30 546.5,-36 540.5,-36"/>
<text text-anchor="middle" x="512" y="-14.3" font-family="Times,serif" font-size="14.00">Constant</text>
</g>
<!-- ast.Slice object at 0x7f47c9d27ca0&#45;&gt;ast.Constant object at 0x7f47c9d27610 -->
<g id="edge19" class="edge">
<title>ast.Slice object at 0x7f47c9d27ca0&#45;&gt;ast.Constant object at 0x7f47c9d27610</title>
<path fill="none" stroke="black" d="M549.64,-71.7C543.77,-63.47 536.63,-53.48 530.16,-44.42"/>
<polygon fill="black" stroke="black" points="532.88,-42.21 524.22,-36.1 527.18,-46.28 532.88,-42.21"/>
</g>
<!-- ast.BinOp object at 0x7f47c9d27a30 -->
<g id="node20" class="node">
<title>ast.BinOp object at 0x7f47c9d27a30</title>
<path fill="#66cdaa" stroke="black" d="M306.5,-180C306.5,-180 269.5,-180 269.5,-180 263.5,-180 257.5,-174 257.5,-168 257.5,-168 257.5,-156 257.5,-156 257.5,-150 263.5,-144 269.5,-144 269.5,-144 306.5,-144 306.5,-144 312.5,-144 318.5,-150 318.5,-156 318.5,-156 318.5,-168 318.5,-168 318.5,-174 312.5,-180 306.5,-180"/>
<text text-anchor="middle" x="288" y="-158.3" font-family="Times,serif" font-size="14.00">BinOp</text>
</g>
<!-- ast.Compare object at 0x7f47c9d274c0&#45;&gt;ast.BinOp object at 0x7f47c9d27a30 -->
<g id="edge22" class="edge">
<title>ast.Compare object at 0x7f47c9d274c0&#45;&gt;ast.BinOp object at 0x7f47c9d27a30</title>
<path fill="none" stroke="black" d="M299.29,-215.7C297.64,-207.98 295.65,-198.71 293.81,-190.11"/>
<polygon fill="black" stroke="black" points="297.18,-189.15 291.67,-180.1 290.34,-190.62 297.18,-189.15"/>
</g>
<!-- ast.Eq object at 0x7f47f75b2080 -->
<g id="node24" class="node">
<title>ast.Eq object at 0x7f47f75b2080</title>
<path fill="#66cdaa" stroke="black" d="M379,-180C379,-180 349,-180 349,-180 343,-180 337,-174 337,-168 337,-168 337,-156 337,-156 337,-150 343,-144 349,-144 349,-144 379,-144 379,-144 385,-144 391,-150 391,-156 391,-156 391,-168 391,-168 391,-174 385,-180 379,-180"/>
<text text-anchor="middle" x="364" y="-158.3" font-family="Times,serif" font-size="14.00">Eq</text>
</g>
<!-- ast.Compare object at 0x7f47c9d274c0&#45;&gt;ast.Eq object at 0x7f47f75b2080 -->
<g id="edge27" class="edge">
<title>ast.Compare object at 0x7f47c9d274c0&#45;&gt;ast.Eq object at 0x7f47f75b2080</title>
<path fill="none" stroke="black" d="M318.08,-215.7C325.39,-207.3 334.31,-197.07 342.34,-187.86"/>
<polygon fill="black" stroke="black" points="345.16,-189.94 349.09,-180.1 339.89,-185.34 345.16,-189.94"/>
</g>
<!-- ast.Constant object at 0x7f47c9d26740 -->
<g id="node25" class="node">
<title>ast.Constant object at 0x7f47c9d26740</title>
<path fill="#66cdaa" stroke="black" d="M227.5,-180C227.5,-180 170.5,-180 170.5,-180 164.5,-180 158.5,-174 158.5,-168 158.5,-168 158.5,-156 158.5,-156 158.5,-150 164.5,-144 170.5,-144 170.5,-144 227.5,-144 227.5,-144 233.5,-144 239.5,-150 239.5,-156 239.5,-156 239.5,-168 239.5,-168 239.5,-174 233.5,-180 227.5,-180"/>
<text text-anchor="middle" x="199" y="-158.3" font-family="Times,serif" font-size="14.00">Constant</text>
</g>
<!-- ast.Compare object at 0x7f47c9d274c0&#45;&gt;ast.Constant object at 0x7f47c9d26740 -->
<g id="edge28" class="edge">
<title>ast.Compare object at 0x7f47c9d274c0&#45;&gt;ast.Constant object at 0x7f47c9d26740</title>
<path fill="none" stroke="black" d="M277.56,-215.88C264.21,-206.89 247.68,-195.76 233.22,-186.03"/>
<polygon fill="black" stroke="black" points="234.79,-182.87 224.54,-180.19 230.88,-188.68 234.79,-182.87"/>
</g>
<!-- ast.Name object at 0x7f47c9d26080 -->
<g id="node21" class="node">
<title>ast.Name object at 0x7f47c9d26080</title>
<path fill="#66cdaa" stroke="black" d="M217.5,-108C217.5,-108 182.5,-108 182.5,-108 176.5,-108 170.5,-102 170.5,-96 170.5,-96 170.5,-84 170.5,-84 170.5,-78 176.5,-72 182.5,-72 182.5,-72 217.5,-72 217.5,-72 223.5,-72 229.5,-78 229.5,-84 229.5,-84 229.5,-96 229.5,-96 229.5,-102 223.5,-108 217.5,-108"/>
<text text-anchor="middle" x="200" y="-86.3" font-family="Times,serif" font-size="14.00">Name</text>
</g>
<!-- ast.BinOp object at 0x7f47c9d27a30&#45;&gt;ast.Name object at 0x7f47c9d26080 -->
<g id="edge23" class="edge">
<title>ast.BinOp object at 0x7f47c9d27a30&#45;&gt;ast.Name object at 0x7f47c9d26080</title>
<path fill="none" stroke="black" d="M266.25,-143.7C255.16,-134.88 241.53,-124.03 229.51,-114.47"/>
<polygon fill="black" stroke="black" points="231.51,-111.59 221.5,-108.1 227.15,-117.07 231.51,-111.59"/>
</g>
<!-- ast.Mod object at 0x7f47f75b1b70 -->
<g id="node22" class="node">
<title>ast.Mod object at 0x7f47f75b1b70</title>
<path fill="#66cdaa" stroke="black" d="M290,-108C290,-108 260,-108 260,-108 254,-108 248,-102 248,-96 248,-96 248,-84 248,-84 248,-78 254,-72 260,-72 260,-72 290,-72 290,-72 296,-72 302,-78 302,-84 302,-84 302,-96 302,-96 302,-102 296,-108 290,-108"/>
<text text-anchor="middle" x="275" y="-86.3" font-family="Times,serif" font-size="14.00">Mod</text>
</g>
<!-- ast.BinOp object at 0x7f47c9d27a30&#45;&gt;ast.Mod object at 0x7f47f75b1b70 -->
<g id="edge25" class="edge">
<title>ast.BinOp object at 0x7f47c9d27a30&#45;&gt;ast.Mod object at 0x7f47f75b1b70</title>
<path fill="none" stroke="black" d="M284.79,-143.7C283.35,-135.98 281.63,-126.71 280.04,-118.11"/>
<polygon fill="black" stroke="black" points="283.44,-117.3 278.18,-108.1 276.56,-118.58 283.44,-117.3"/>
</g>
<!-- ast.Constant object at 0x7f47c9d26ce0 -->
<g id="node23" class="node">
<title>ast.Constant object at 0x7f47c9d26ce0</title>
<path fill="#66cdaa" stroke="black" d="M389.5,-108C389.5,-108 332.5,-108 332.5,-108 326.5,-108 320.5,-102 320.5,-96 320.5,-96 320.5,-84 320.5,-84 320.5,-78 326.5,-72 332.5,-72 332.5,-72 389.5,-72 389.5,-72 395.5,-72 401.5,-78 401.5,-84 401.5,-84 401.5,-96 401.5,-96 401.5,-102 395.5,-108 389.5,-108"/>
<text text-anchor="middle" x="361" y="-86.3" font-family="Times,serif" font-size="14.00">Constant</text>
</g>
<!-- ast.BinOp object at 0x7f47c9d27a30&#45;&gt;ast.Constant object at 0x7f47c9d26ce0 -->
<g id="edge26" class="edge">
<title>ast.BinOp object at 0x7f47c9d27a30&#45;&gt;ast.Constant object at 0x7f47c9d26ce0</title>
<path fill="none" stroke="black" d="M306.04,-143.7C315.06,-135.05 326.12,-124.45 335.94,-115.03"/>
<polygon fill="black" stroke="black" points="338.37,-117.55 343.16,-108.1 333.52,-112.5 338.37,-117.55"/>
</g>
<!-- ast.Name object at 0x7f47c9d26080&#45;&gt;ast.Load object at 0x7f47f75b1750 -->
<g id="edge24" class="edge">
<title>ast.Name object at 0x7f47c9d26080&#45;&gt;ast.Load object at 0x7f47f75b1750</title>
<path fill="none" stroke="black" d="M200,-71.7C200,-63.98 200,-54.71 200,-46.11"/>
<polygon fill="black" stroke="black" points="203.5,-46.1 200,-36.1 196.5,-46.1 203.5,-46.1"/>
</g>
</g>
</svg>
