<?xml version="1.0" encoding="UTF-8" standalone="no"?>
<!DOCTYPE svg PUBLIC "-//W3C//DTD SVG 1.1//EN"
 "http://www.w3.org/Graphics/SVG/1.1/DTD/svg11.dtd">
<!-- Generated by graphviz version 2.43.0 (0)
 -->
<!-- Title: %3 Pages: 1 -->
<svg width="698pt" height="548pt"
 viewBox="0.00 0.00 697.63 548.00" xmlns="http://www.w3.org/2000/svg" xmlns:xlink="http://www.w3.org/1999/xlink">
<g id="graph0" class="graph" transform="scale(1 1) rotate(0) translate(4 544)">
<title>%3</title>
<polygon fill="white" stroke="transparent" points="-4,4 -4,-544 693.63,-544 693.63,4 -4,4"/>
<!-- ast.Module object at 0x7fae328b6c20 -->
<g id="node1" class="node">
<title>ast.Module object at 0x7fae328b6c20</title>
<path fill="#66cdaa" stroke="black" d="M268.5,-540C268.5,-540 222.5,-540 222.5,-540 216.5,-540 210.5,-534 210.5,-528 210.5,-528 210.5,-516 210.5,-516 210.5,-510 216.5,-504 222.5,-504 222.5,-504 268.5,-504 268.5,-504 274.5,-504 280.5,-510 280.5,-516 280.5,-516 280.5,-528 280.5,-528 280.5,-534 274.5,-540 268.5,-540"/>
<text text-anchor="middle" x="245.5" y="-518.3" font-family="Times,serif" font-size="14.00">Module</text>
</g>
<!-- ast.FunctionDef object at 0x7fae328b6bf0 -->
<g id="node2" class="node">
<title>ast.FunctionDef object at 0x7fae328b6bf0</title>
<path fill="#66cdaa" stroke="black" d="M285.5,-468C285.5,-468 205.5,-468 205.5,-468 199.5,-468 193.5,-462 193.5,-456 193.5,-456 193.5,-444 193.5,-444 193.5,-438 199.5,-432 205.5,-432 205.5,-432 285.5,-432 285.5,-432 291.5,-432 297.5,-438 297.5,-444 297.5,-444 297.5,-456 297.5,-456 297.5,-462 291.5,-468 285.5,-468"/>
<text text-anchor="middle" x="245.5" y="-446.3" font-family="Times,serif" font-size="14.00">FunctionDef</text>
</g>
<!-- ast.Module object at 0x7fae328b6c20&#45;&gt;ast.FunctionDef object at 0x7fae328b6bf0 -->
<g id="edge1" class="edge">
<title>ast.Module object at 0x7fae328b6c20&#45;&gt;ast.FunctionDef object at 0x7fae328b6bf0</title>
<path fill="none" stroke="black" d="M245.5,-503.7C245.5,-495.98 245.5,-486.71 245.5,-478.11"/>
<polygon fill="black" stroke="black" points="249,-478.1 245.5,-468.1 242,-478.1 249,-478.1"/>
</g>
<!-- ast.arguments object at 0x7fae328b6bc0 -->
<g id="node3" class="node">
<title>ast.arguments object at 0x7fae328b6bc0</title>
<path fill="#66cdaa" stroke="black" d="M116.5,-396C116.5,-396 46.5,-396 46.5,-396 40.5,-396 34.5,-390 34.5,-384 34.5,-384 34.5,-372 34.5,-372 34.5,-366 40.5,-360 46.5,-360 46.5,-360 116.5,-360 116.5,-360 122.5,-360 128.5,-366 128.5,-372 128.5,-372 128.5,-384 128.5,-384 128.5,-390 122.5,-396 116.5,-396"/>
<text text-anchor="middle" x="81.5" y="-374.3" font-family="Times,serif" font-size="14.00">arguments</text>
</g>
<!-- ast.FunctionDef object at 0x7fae328b6bf0&#45;&gt;ast.arguments object at 0x7fae328b6bc0 -->
<g id="edge2" class="edge">
<title>ast.FunctionDef object at 0x7fae328b6bf0&#45;&gt;ast.arguments object at 0x7fae328b6bc0</title>
<path fill="none" stroke="black" d="M205.38,-431.88C182.86,-422.26 154.58,-410.19 130.73,-400.01"/>
<polygon fill="black" stroke="black" points="132.06,-396.77 121.49,-396.07 129.31,-403.21 132.06,-396.77"/>
</g>
<!-- ast.Assign object at 0x7fae328b6b60 -->
<g id="node5" class="node">
<title>ast.Assign object at 0x7fae328b6b60</title>
<path fill="#66cdaa" stroke="black" d="M227.5,-396C227.5,-396 187.5,-396 187.5,-396 181.5,-396 175.5,-390 175.5,-384 175.5,-384 175.5,-372 175.5,-372 175.5,-366 181.5,-360 187.5,-360 187.5,-360 227.5,-360 227.5,-360 233.5,-360 239.5,-366 239.5,-372 239.5,-372 239.5,-384 239.5,-384 239.5,-390 233.5,-396 227.5,-396"/>
<text text-anchor="middle" x="207.5" y="-374.3" font-family="Times,serif" font-size="14.00">Assign</text>
</g>
<!-- ast.FunctionDef object at 0x7fae328b6bf0&#45;&gt;ast.Assign object at 0x7fae328b6b60 -->
<g id="edge4" class="edge">
<title>ast.FunctionDef object at 0x7fae328b6bf0&#45;&gt;ast.Assign object at 0x7fae328b6b60</title>
<path fill="none" stroke="black" d="M236.11,-431.7C231.74,-423.64 226.44,-413.89 221.6,-404.98"/>
<polygon fill="black" stroke="black" points="224.63,-403.22 216.79,-396.1 218.48,-406.56 224.63,-403.22"/>
</g>
<!-- ast.For object at 0x7fae328b6ad0 -->
<g id="node9" class="node">
<title>ast.For object at 0x7fae328b6ad0</title>
<path fill="#66cdaa" stroke="black" d="M315.5,-396C315.5,-396 285.5,-396 285.5,-396 279.5,-396 273.5,-390 273.5,-384 273.5,-384 273.5,-372 273.5,-372 273.5,-366 279.5,-360 285.5,-360 285.5,-360 315.5,-360 315.5,-360 321.5,-360 327.5,-366 327.5,-372 327.5,-372 327.5,-384 327.5,-384 327.5,-390 321.5,-396 315.5,-396"/>
<text text-anchor="middle" x="300.5" y="-374.3" font-family="Times,serif" font-size="14.00">For</text>
</g>
<!-- ast.FunctionDef object at 0x7fae328b6bf0&#45;&gt;ast.For object at 0x7fae328b6ad0 -->
<g id="edge8" class="edge">
<title>ast.FunctionDef object at 0x7fae328b6bf0&#45;&gt;ast.For object at 0x7fae328b6ad0</title>
<path fill="none" stroke="black" d="M259.1,-431.7C265.62,-423.39 273.57,-413.28 280.75,-404.14"/>
<polygon fill="black" stroke="black" points="283.63,-406.13 287.06,-396.1 278.13,-401.81 283.63,-406.13"/>
</g>
<!-- ast.Return object at 0x7fae3282c520 -->
<g id="node30" class="node">
<title>ast.Return object at 0x7fae3282c520</title>
<path fill="#66cdaa" stroke="black" d="M416.5,-396C416.5,-396 374.5,-396 374.5,-396 368.5,-396 362.5,-390 362.5,-384 362.5,-384 362.5,-372 362.5,-372 362.5,-366 368.5,-360 374.5,-360 374.5,-360 416.5,-360 416.5,-360 422.5,-360 428.5,-366 428.5,-372 428.5,-372 428.5,-384 428.5,-384 428.5,-390 422.5,-396 416.5,-396"/>
<text text-anchor="middle" x="395.5" y="-374.3" font-family="Times,serif" font-size="14.00">Return</text>
</g>
<!-- ast.FunctionDef object at 0x7fae328b6bf0&#45;&gt;ast.Return object at 0x7fae3282c520 -->
<g id="edge34" class="edge">
<title>ast.FunctionDef object at 0x7fae328b6bf0&#45;&gt;ast.Return object at 0x7fae3282c520</title>
<path fill="none" stroke="black" d="M282.19,-431.88C303.6,-421.89 330.69,-409.25 353.01,-398.83"/>
<polygon fill="black" stroke="black" points="354.67,-401.91 362.26,-394.51 351.71,-395.57 354.67,-401.91"/>
</g>
<!-- ast.arg object at 0x7fae328b6b90 -->
<g id="node4" class="node">
<title>ast.arg object at 0x7fae328b6b90</title>
<path fill="#66cdaa" stroke="black" d="M67.5,-324C67.5,-324 37.5,-324 37.5,-324 31.5,-324 25.5,-318 25.5,-312 25.5,-312 25.5,-300 25.5,-300 25.5,-294 31.5,-288 37.5,-288 37.5,-288 67.5,-288 67.5,-288 73.5,-288 79.5,-294 79.5,-300 79.5,-300 79.5,-312 79.5,-312 79.5,-318 73.5,-324 67.5,-324"/>
<text text-anchor="middle" x="52.5" y="-302.3" font-family="Times,serif" font-size="14.00">arg</text>
</g>
<!-- ast.arguments object at 0x7fae328b6bc0&#45;&gt;ast.arg object at 0x7fae328b6b90 -->
<g id="edge3" class="edge">
<title>ast.arguments object at 0x7fae328b6bc0&#45;&gt;ast.arg object at 0x7fae328b6b90</title>
<path fill="none" stroke="black" d="M74.33,-359.7C71.07,-351.81 67.13,-342.3 63.5,-333.55"/>
<polygon fill="black" stroke="black" points="66.65,-332 59.59,-324.1 60.18,-334.68 66.65,-332"/>
</g>
<!-- ast.Name object at 0x7fae328b6b30 -->
<g id="node6" class="node">
<title>ast.Name object at 0x7fae328b6b30</title>
<path fill="#66cdaa" stroke="black" d="M47,-252C47,-252 12,-252 12,-252 6,-252 0,-246 0,-240 0,-240 0,-228 0,-228 0,-222 6,-216 12,-216 12,-216 47,-216 47,-216 53,-216 59,-222 59,-228 59,-228 59,-240 59,-240 59,-246 53,-252 47,-252"/>
<text text-anchor="middle" x="29.5" y="-230.3" font-family="Times,serif" font-size="14.00">Name</text>
</g>
<!-- ast.Assign object at 0x7fae328b6b60&#45;&gt;ast.Name object at 0x7fae328b6b30 -->
<g id="edge5" class="edge">
<title>ast.Assign object at 0x7fae328b6b60&#45;&gt;ast.Name object at 0x7fae328b6b30</title>
<path fill="none" stroke="black" d="M208.35,-359.68C208.37,-339.91 205.32,-307.75 187.5,-288 171.47,-270.24 110.22,-253.31 68.86,-243.55"/>
<polygon fill="black" stroke="black" points="69.61,-240.13 59.08,-241.28 68.03,-246.95 69.61,-240.13"/>
</g>
<!-- ast.Constant object at 0x7fae328b6b00 -->
<g id="node8" class="node">
<title>ast.Constant object at 0x7fae328b6b00</title>
<path fill="#66cdaa" stroke="black" d="M167,-324C167,-324 110,-324 110,-324 104,-324 98,-318 98,-312 98,-312 98,-300 98,-300 98,-294 104,-288 110,-288 110,-288 167,-288 167,-288 173,-288 179,-294 179,-300 179,-300 179,-312 179,-312 179,-318 173,-324 167,-324"/>
<text text-anchor="middle" x="138.5" y="-302.3" font-family="Times,serif" font-size="14.00">Constant</text>
</g>
<!-- ast.Assign object at 0x7fae328b6b60&#45;&gt;ast.Constant object at 0x7fae328b6b00 -->
<g id="edge7" class="edge">
<title>ast.Assign object at 0x7fae328b6b60&#45;&gt;ast.Constant object at 0x7fae328b6b00</title>
<path fill="none" stroke="black" d="M190.44,-359.7C182,-351.14 171.68,-340.66 162.46,-331.3"/>
<polygon fill="black" stroke="black" points="164.87,-328.77 155.36,-324.1 159.89,-333.68 164.87,-328.77"/>
</g>
<!-- ast.Store object at 0x7fae3acf5780 -->
<g id="node7" class="node">
<title>ast.Store object at 0x7fae3acf5780</title>
<path fill="#66cdaa" stroke="black" d="M95.5,-108C95.5,-108 63.5,-108 63.5,-108 57.5,-108 51.5,-102 51.5,-96 51.5,-96 51.5,-84 51.5,-84 51.5,-78 57.5,-72 63.5,-72 63.5,-72 95.5,-72 95.5,-72 101.5,-72 107.5,-78 107.5,-84 107.5,-84 107.5,-96 107.5,-96 107.5,-102 101.5,-108 95.5,-108"/>
<text text-anchor="middle" x="79.5" y="-86.3" font-family="Times,serif" font-size="14.00">Store</text>
</g>
<!-- ast.Name object at 0x7fae328b6b30&#45;&gt;ast.Store object at 0x7fae3acf5780 -->
<g id="edge6" class="edge">
<title>ast.Name object at 0x7fae328b6b30&#45;&gt;ast.Store object at 0x7fae3acf5780</title>
<path fill="none" stroke="black" d="M20.47,-215.77C12.07,-197.21 2.37,-167.22 13.5,-144 19.84,-130.78 31.26,-119.81 42.85,-111.35"/>
<polygon fill="black" stroke="black" points="44.94,-114.16 51.24,-105.64 41,-108.37 44.94,-114.16"/>
</g>
<!-- ast.Name object at 0x7fae35e7f880 -->
<g id="node10" class="node">
<title>ast.Name object at 0x7fae35e7f880</title>
<path fill="#66cdaa" stroke="black" d="M292,-252C292,-252 257,-252 257,-252 251,-252 245,-246 245,-240 245,-240 245,-228 245,-228 245,-222 251,-216 257,-216 257,-216 292,-216 292,-216 298,-216 304,-222 304,-228 304,-228 304,-240 304,-240 304,-246 298,-252 292,-252"/>
<text text-anchor="middle" x="274.5" y="-230.3" font-family="Times,serif" font-size="14.00">Name</text>
</g>
<!-- ast.For object at 0x7fae328b6ad0&#45;&gt;ast.Name object at 0x7fae35e7f880 -->
<g id="edge9" class="edge">
<title>ast.For object at 0x7fae328b6ad0&#45;&gt;ast.Name object at 0x7fae35e7f880</title>
<path fill="none" stroke="black" d="M302.14,-359.69C303.38,-341.57 304.06,-312.41 298.5,-288 296.44,-278.94 292.76,-269.55 288.89,-261.23"/>
<polygon fill="black" stroke="black" points="291.92,-259.46 284.35,-252.05 285.64,-262.56 291.92,-259.46"/>
</g>
<!-- ast.Name object at 0x7fae35ed5000 -->
<g id="node11" class="node">
<title>ast.Name object at 0x7fae35ed5000</title>
<path fill="#66cdaa" stroke="black" d="M587,-252C587,-252 552,-252 552,-252 546,-252 540,-246 540,-240 540,-240 540,-228 540,-228 540,-222 546,-216 552,-216 552,-216 587,-216 587,-216 593,-216 599,-222 599,-228 599,-228 599,-240 599,-240 599,-246 593,-252 587,-252"/>
<text text-anchor="middle" x="569.5" y="-230.3" font-family="Times,serif" font-size="14.00">Name</text>
</g>
<!-- ast.For object at 0x7fae328b6ad0&#45;&gt;ast.Name object at 0x7fae35ed5000 -->
<g id="edge11" class="edge">
<title>ast.For object at 0x7fae328b6ad0&#45;&gt;ast.Name object at 0x7fae35ed5000</title>
<path fill="none" stroke="black" d="M327.52,-362.73C375.38,-337.47 475.2,-284.78 530.5,-255.58"/>
<polygon fill="black" stroke="black" points="532.43,-258.53 539.64,-250.76 529.16,-252.34 532.43,-258.53"/>
</g>
<!-- ast.If object at 0x7fae35ed5060 -->
<g id="node13" class="node">
<title>ast.If object at 0x7fae35ed5060</title>
<path fill="#66cdaa" stroke="black" d="M277.5,-324C277.5,-324 247.5,-324 247.5,-324 241.5,-324 235.5,-318 235.5,-312 235.5,-312 235.5,-300 235.5,-300 235.5,-294 241.5,-288 247.5,-288 247.5,-288 277.5,-288 277.5,-288 283.5,-288 289.5,-294 289.5,-300 289.5,-300 289.5,-312 289.5,-312 289.5,-318 283.5,-324 277.5,-324"/>
<text text-anchor="middle" x="262.5" y="-302.3" font-family="Times,serif" font-size="14.00">If</text>
</g>
<!-- ast.For object at 0x7fae328b6ad0&#45;&gt;ast.If object at 0x7fae35ed5060 -->
<g id="edge13" class="edge">
<title>ast.For object at 0x7fae328b6ad0&#45;&gt;ast.If object at 0x7fae35ed5060</title>
<path fill="none" stroke="black" d="M291.11,-359.7C286.74,-351.64 281.44,-341.89 276.6,-332.98"/>
<polygon fill="black" stroke="black" points="279.63,-331.22 271.79,-324.1 273.48,-334.56 279.63,-331.22"/>
</g>
<!-- ast.Name object at 0x7fae35e7f880&#45;&gt;ast.Store object at 0x7fae3acf5780 -->
<g id="edge10" class="edge">
<title>ast.Name object at 0x7fae35e7f880&#45;&gt;ast.Store object at 0x7fae3acf5780</title>
<path fill="none" stroke="black" d="M272.3,-215.71C268.83,-195.65 260.21,-162.93 239.5,-144 199.67,-107.6 172.81,-125.75 117.17,-107.78"/>
<polygon fill="black" stroke="black" points="118.2,-104.43 107.6,-104.43 115.88,-111.04 118.2,-104.43"/>
</g>
<!-- ast.Load object at 0x7fae3acf5720 -->
<g id="node12" class="node">
<title>ast.Load object at 0x7fae3acf5720</title>
<path fill="#66cdaa" stroke="black" d="M556.5,-36C556.5,-36 526.5,-36 526.5,-36 520.5,-36 514.5,-30 514.5,-24 514.5,-24 514.5,-12 514.5,-12 514.5,-6 520.5,0 526.5,0 526.5,0 556.5,0 556.5,0 562.5,0 568.5,-6 568.5,-12 568.5,-12 568.5,-24 568.5,-24 568.5,-30 562.5,-36 556.5,-36"/>
<text text-anchor="middle" x="541.5" y="-14.3" font-family="Times,serif" font-size="14.00">Load</text>
</g>
<!-- ast.Name object at 0x7fae35ed5000&#45;&gt;ast.Load object at 0x7fae3acf5720 -->
<g id="edge12" class="edge">
<title>ast.Name object at 0x7fae35ed5000&#45;&gt;ast.Load object at 0x7fae3acf5720</title>
<path fill="none" stroke="black" d="M590.36,-215.78C624.17,-185.73 684.12,-122.14 652.5,-72 636.41,-46.49 604.28,-32.99 578.71,-26.02"/>
<polygon fill="black" stroke="black" points="579.48,-22.61 568.93,-23.58 577.79,-29.4 579.48,-22.61"/>
</g>
<!-- ast.BoolOp object at 0x7fae3282c8e0 -->
<g id="node14" class="node">
<title>ast.BoolOp object at 0x7fae3282c8e0</title>
<path fill="#66cdaa" stroke="black" d="M393.5,-252C393.5,-252 349.5,-252 349.5,-252 343.5,-252 337.5,-246 337.5,-240 337.5,-240 337.5,-228 337.5,-228 337.5,-222 343.5,-216 349.5,-216 349.5,-216 393.5,-216 393.5,-216 399.5,-216 405.5,-222 405.5,-228 405.5,-228 405.5,-240 405.5,-240 405.5,-246 399.5,-252 393.5,-252"/>
<text text-anchor="middle" x="371.5" y="-230.3" font-family="Times,serif" font-size="14.00">BoolOp</text>
</g>
<!-- ast.If object at 0x7fae35ed5060&#45;&gt;ast.BoolOp object at 0x7fae3282c8e0 -->
<g id="edge14" class="edge">
<title>ast.If object at 0x7fae35ed5060&#45;&gt;ast.BoolOp object at 0x7fae3282c8e0</title>
<path fill="none" stroke="black" d="M289.16,-287.88C303.28,-278.81 320.81,-267.55 336.06,-257.76"/>
<polygon fill="black" stroke="black" points="338.21,-260.54 344.73,-252.19 334.43,-254.65 338.21,-260.54"/>
</g>
<!-- ast.AugAssign object at 0x7fae3282c310 -->
<g id="node26" class="node">
<title>ast.AugAssign object at 0x7fae3282c310</title>
<path fill="#66cdaa" stroke="black" d="M195.5,-252C195.5,-252 127.5,-252 127.5,-252 121.5,-252 115.5,-246 115.5,-240 115.5,-240 115.5,-228 115.5,-228 115.5,-222 121.5,-216 127.5,-216 127.5,-216 195.5,-216 195.5,-216 201.5,-216 207.5,-222 207.5,-228 207.5,-228 207.5,-240 207.5,-240 207.5,-246 201.5,-252 195.5,-252"/>
<text text-anchor="middle" x="161.5" y="-230.3" font-family="Times,serif" font-size="14.00">AugAssign</text>
</g>
<!-- ast.If object at 0x7fae35ed5060&#45;&gt;ast.AugAssign object at 0x7fae3282c310 -->
<g id="edge28" class="edge">
<title>ast.If object at 0x7fae35ed5060&#45;&gt;ast.AugAssign object at 0x7fae3282c310</title>
<path fill="none" stroke="black" d="M237.79,-287.88C224.83,-278.89 208.77,-267.76 194.73,-258.03"/>
<polygon fill="black" stroke="black" points="196.52,-255.01 186.3,-252.19 192.53,-260.76 196.52,-255.01"/>
</g>
<!-- ast.And object at 0x7fae3acf5870 -->
<g id="node15" class="node">
<title>ast.And object at 0x7fae3acf5870</title>
<path fill="#66cdaa" stroke="black" d="M329.5,-180C329.5,-180 299.5,-180 299.5,-180 293.5,-180 287.5,-174 287.5,-168 287.5,-168 287.5,-156 287.5,-156 287.5,-150 293.5,-144 299.5,-144 299.5,-144 329.5,-144 329.5,-144 335.5,-144 341.5,-150 341.5,-156 341.5,-156 341.5,-168 341.5,-168 341.5,-174 335.5,-180 329.5,-180"/>
<text text-anchor="middle" x="314.5" y="-158.3" font-family="Times,serif" font-size="14.00">And</text>
</g>
<!-- ast.BoolOp object at 0x7fae3282c8e0&#45;&gt;ast.And object at 0x7fae3acf5870 -->
<g id="edge15" class="edge">
<title>ast.BoolOp object at 0x7fae3282c8e0&#45;&gt;ast.And object at 0x7fae3acf5870</title>
<path fill="none" stroke="black" d="M357.41,-215.7C350.58,-207.3 342.24,-197.07 334.74,-187.86"/>
<polygon fill="black" stroke="black" points="337.46,-185.65 328.43,-180.1 332.03,-190.07 337.46,-185.65"/>
</g>
<!-- ast.Compare object at 0x7fae3282c130 -->
<g id="node16" class="node">
<title>ast.Compare object at 0x7fae3282c130</title>
<path fill="#66cdaa" stroke="black" d="M429,-180C429,-180 372,-180 372,-180 366,-180 360,-174 360,-168 360,-168 360,-156 360,-156 360,-150 366,-144 372,-144 372,-144 429,-144 429,-144 435,-144 441,-150 441,-156 441,-156 441,-168 441,-168 441,-174 435,-180 429,-180"/>
<text text-anchor="middle" x="400.5" y="-158.3" font-family="Times,serif" font-size="14.00">Compare</text>
</g>
<!-- ast.BoolOp object at 0x7fae3282c8e0&#45;&gt;ast.Compare object at 0x7fae3282c130 -->
<g id="edge16" class="edge">
<title>ast.BoolOp object at 0x7fae3282c8e0&#45;&gt;ast.Compare object at 0x7fae3282c130</title>
<path fill="none" stroke="black" d="M378.67,-215.7C381.93,-207.81 385.87,-198.3 389.5,-189.55"/>
<polygon fill="black" stroke="black" points="392.82,-190.68 393.41,-180.1 386.35,-188 392.82,-190.68"/>
</g>
<!-- ast.Compare object at 0x7fae3282c100 -->
<g id="node22" class="node">
<title>ast.Compare object at 0x7fae3282c100</title>
<path fill="#66cdaa" stroke="black" d="M566,-180C566,-180 509,-180 509,-180 503,-180 497,-174 497,-168 497,-168 497,-156 497,-156 497,-150 503,-144 509,-144 509,-144 566,-144 566,-144 572,-144 578,-150 578,-156 578,-156 578,-168 578,-168 578,-174 572,-180 566,-180"/>
<text text-anchor="middle" x="537.5" y="-158.3" font-family="Times,serif" font-size="14.00">Compare</text>
</g>
<!-- ast.BoolOp object at 0x7fae3282c8e0&#45;&gt;ast.Compare object at 0x7fae3282c100 -->
<g id="edge23" class="edge">
<title>ast.BoolOp object at 0x7fae3282c8e0&#45;&gt;ast.Compare object at 0x7fae3282c100</title>
<path fill="none" stroke="black" d="M405.9,-218.5C429.49,-208.55 461.18,-195.18 487.55,-184.06"/>
<polygon fill="black" stroke="black" points="489.15,-187.19 497,-180.08 486.43,-180.74 489.15,-187.19"/>
</g>
<!-- ast.Name object at 0x7fae3282c4f0 -->
<g id="node17" class="node">
<title>ast.Name object at 0x7fae3282c4f0</title>
<path fill="#66cdaa" stroke="black" d="M383,-108C383,-108 348,-108 348,-108 342,-108 336,-102 336,-96 336,-96 336,-84 336,-84 336,-78 342,-72 348,-72 348,-72 383,-72 383,-72 389,-72 395,-78 395,-84 395,-84 395,-96 395,-96 395,-102 389,-108 383,-108"/>
<text text-anchor="middle" x="365.5" y="-86.3" font-family="Times,serif" font-size="14.00">Name</text>
</g>
<!-- ast.Compare object at 0x7fae3282c130&#45;&gt;ast.Name object at 0x7fae3282c4f0 -->
<g id="edge17" class="edge">
<title>ast.Compare object at 0x7fae3282c130&#45;&gt;ast.Name object at 0x7fae3282c4f0</title>
<path fill="none" stroke="black" d="M391.85,-143.7C387.86,-135.73 383.05,-126.1 378.63,-117.26"/>
<polygon fill="black" stroke="black" points="381.65,-115.48 374.05,-108.1 375.39,-118.61 381.65,-115.48"/>
</g>
<!-- ast.GtE object at 0x7fae3acf6230 -->
<g id="node18" class="node">
<title>ast.GtE object at 0x7fae3acf6230</title>
<path fill="#66cdaa" stroke="black" d="M305.5,-108C305.5,-108 275.5,-108 275.5,-108 269.5,-108 263.5,-102 263.5,-96 263.5,-96 263.5,-84 263.5,-84 263.5,-78 269.5,-72 275.5,-72 275.5,-72 305.5,-72 305.5,-72 311.5,-72 317.5,-78 317.5,-84 317.5,-84 317.5,-96 317.5,-96 317.5,-102 311.5,-108 305.5,-108"/>
<text text-anchor="middle" x="290.5" y="-86.3" font-family="Times,serif" font-size="14.00">GtE</text>
</g>
<!-- ast.Compare object at 0x7fae3282c130&#45;&gt;ast.GtE object at 0x7fae3acf6230 -->
<g id="edge19" class="edge">
<title>ast.Compare object at 0x7fae3282c130&#45;&gt;ast.GtE object at 0x7fae3acf6230</title>
<path fill="none" stroke="black" d="M373.59,-143.88C359.34,-134.81 341.65,-123.55 326.26,-113.76"/>
<polygon fill="black" stroke="black" points="327.83,-110.61 317.51,-108.19 324.07,-116.51 327.83,-110.61"/>
</g>
<!-- ast.UnaryOp object at 0x7fae3282c400 -->
<g id="node19" class="node">
<title>ast.UnaryOp object at 0x7fae3282c400</title>
<path fill="#66cdaa" stroke="black" d="M195,-108C195,-108 138,-108 138,-108 132,-108 126,-102 126,-96 126,-96 126,-84 126,-84 126,-78 132,-72 138,-72 138,-72 195,-72 195,-72 201,-72 207,-78 207,-84 207,-84 207,-96 207,-96 207,-102 201,-108 195,-108"/>
<text text-anchor="middle" x="166.5" y="-86.3" font-family="Times,serif" font-size="14.00">UnaryOp</text>
</g>
<!-- ast.Compare object at 0x7fae3282c130&#45;&gt;ast.UnaryOp object at 0x7fae3282c400 -->
<g id="edge20" class="edge">
<title>ast.Compare object at 0x7fae3282c130&#45;&gt;ast.UnaryOp object at 0x7fae3282c400</title>
<path fill="none" stroke="black" d="M359.89,-147.01C356.72,-145.98 353.56,-144.96 350.5,-144 305.71,-129.94 254.34,-115.27 217.28,-104.93"/>
<polygon fill="black" stroke="black" points="217.8,-101.44 207.23,-102.14 215.92,-108.19 217.8,-101.44"/>
</g>
<!-- ast.Name object at 0x7fae3282c4f0&#45;&gt;ast.Load object at 0x7fae3acf5720 -->
<g id="edge18" class="edge">
<title>ast.Name object at 0x7fae3282c4f0&#45;&gt;ast.Load object at 0x7fae3acf5720</title>
<path fill="none" stroke="black" d="M395.3,-75.48C398.07,-74.29 400.83,-73.11 403.5,-72 437.63,-57.82 477.04,-42.82 504.98,-32.41"/>
<polygon fill="black" stroke="black" points="506.2,-35.69 514.36,-28.93 503.76,-29.13 506.2,-35.69"/>
</g>
<!-- ast.USub object at 0x7fae3acf5fc0 -->
<g id="node20" class="node">
<title>ast.USub object at 0x7fae3acf5fc0</title>
<path fill="#66cdaa" stroke="black" d="M139.5,-36C139.5,-36 107.5,-36 107.5,-36 101.5,-36 95.5,-30 95.5,-24 95.5,-24 95.5,-12 95.5,-12 95.5,-6 101.5,0 107.5,0 107.5,0 139.5,0 139.5,0 145.5,0 151.5,-6 151.5,-12 151.5,-12 151.5,-24 151.5,-24 151.5,-30 145.5,-36 139.5,-36"/>
<text text-anchor="middle" x="123.5" y="-14.3" font-family="Times,serif" font-size="14.00">USub</text>
</g>
<!-- ast.UnaryOp object at 0x7fae3282c400&#45;&gt;ast.USub object at 0x7fae3acf5fc0 -->
<g id="edge21" class="edge">
<title>ast.UnaryOp object at 0x7fae3282c400&#45;&gt;ast.USub object at 0x7fae3acf5fc0</title>
<path fill="none" stroke="black" d="M155.87,-71.7C150.87,-63.56 144.81,-53.69 139.29,-44.7"/>
<polygon fill="black" stroke="black" points="142.22,-42.79 134.01,-36.1 136.26,-46.46 142.22,-42.79"/>
</g>
<!-- ast.Constant object at 0x7fae3282c790 -->
<g id="node21" class="node">
<title>ast.Constant object at 0x7fae3282c790</title>
<path fill="#66cdaa" stroke="black" d="M239,-36C239,-36 182,-36 182,-36 176,-36 170,-30 170,-24 170,-24 170,-12 170,-12 170,-6 176,0 182,0 182,0 239,0 239,0 245,0 251,-6 251,-12 251,-12 251,-24 251,-24 251,-30 245,-36 239,-36"/>
<text text-anchor="middle" x="210.5" y="-14.3" font-family="Times,serif" font-size="14.00">Constant</text>
</g>
<!-- ast.UnaryOp object at 0x7fae3282c400&#45;&gt;ast.Constant object at 0x7fae3282c790 -->
<g id="edge22" class="edge">
<title>ast.UnaryOp object at 0x7fae3282c400&#45;&gt;ast.Constant object at 0x7fae3282c790</title>
<path fill="none" stroke="black" d="M177.38,-71.7C182.49,-63.56 188.7,-53.69 194.34,-44.7"/>
<polygon fill="black" stroke="black" points="197.39,-46.43 199.75,-36.1 191.46,-42.71 197.39,-46.43"/>
</g>
<!-- ast.Name object at 0x7fae3282c1f0 -->
<g id="node23" class="node">
<title>ast.Name object at 0x7fae3282c1f0</title>
<path fill="#66cdaa" stroke="black" d="M559,-108C559,-108 524,-108 524,-108 518,-108 512,-102 512,-96 512,-96 512,-84 512,-84 512,-78 518,-72 524,-72 524,-72 559,-72 559,-72 565,-72 571,-78 571,-84 571,-84 571,-96 571,-96 571,-102 565,-108 559,-108"/>
<text text-anchor="middle" x="541.5" y="-86.3" font-family="Times,serif" font-size="14.00">Name</text>
</g>
<!-- ast.Compare object at 0x7fae3282c100&#45;&gt;ast.Name object at 0x7fae3282c1f0 -->
<g id="edge24" class="edge">
<title>ast.Compare object at 0x7fae3282c100&#45;&gt;ast.Name object at 0x7fae3282c1f0</title>
<path fill="none" stroke="black" d="M538.49,-143.7C538.93,-135.98 539.46,-126.71 539.95,-118.11"/>
<polygon fill="black" stroke="black" points="543.45,-118.29 540.52,-108.1 536.46,-117.89 543.45,-118.29"/>
</g>
<!-- ast.LtE object at 0x7fae3acf6170 -->
<g id="node24" class="node">
<title>ast.LtE object at 0x7fae3acf6170</title>
<path fill="#66cdaa" stroke="black" d="M631.5,-108C631.5,-108 601.5,-108 601.5,-108 595.5,-108 589.5,-102 589.5,-96 589.5,-96 589.5,-84 589.5,-84 589.5,-78 595.5,-72 601.5,-72 601.5,-72 631.5,-72 631.5,-72 637.5,-72 643.5,-78 643.5,-84 643.5,-84 643.5,-96 643.5,-96 643.5,-102 637.5,-108 631.5,-108"/>
<text text-anchor="middle" x="616.5" y="-86.3" font-family="Times,serif" font-size="14.00">LtE</text>
</g>
<!-- ast.Compare object at 0x7fae3282c100&#45;&gt;ast.LtE object at 0x7fae3acf6170 -->
<g id="edge26" class="edge">
<title>ast.Compare object at 0x7fae3282c100&#45;&gt;ast.LtE object at 0x7fae3acf6170</title>
<path fill="none" stroke="black" d="M557.03,-143.7C566.88,-134.97 578.99,-124.24 589.7,-114.75"/>
<polygon fill="black" stroke="black" points="592.03,-117.36 597.2,-108.1 587.39,-112.12 592.03,-117.36"/>
</g>
<!-- ast.Constant object at 0x7fae3282c7c0 -->
<g id="node25" class="node">
<title>ast.Constant object at 0x7fae3282c7c0</title>
<path fill="#66cdaa" stroke="black" d="M482,-108C482,-108 425,-108 425,-108 419,-108 413,-102 413,-96 413,-96 413,-84 413,-84 413,-78 419,-72 425,-72 425,-72 482,-72 482,-72 488,-72 494,-78 494,-84 494,-84 494,-96 494,-96 494,-102 488,-108 482,-108"/>
<text text-anchor="middle" x="453.5" y="-86.3" font-family="Times,serif" font-size="14.00">Constant</text>
</g>
<!-- ast.Compare object at 0x7fae3282c100&#45;&gt;ast.Constant object at 0x7fae3282c7c0 -->
<g id="edge27" class="edge">
<title>ast.Compare object at 0x7fae3282c100&#45;&gt;ast.Constant object at 0x7fae3282c7c0</title>
<path fill="none" stroke="black" d="M516.74,-143.7C506.26,-134.97 493.39,-124.24 482,-114.75"/>
<polygon fill="black" stroke="black" points="483.95,-111.82 474.03,-108.1 479.47,-117.19 483.95,-111.82"/>
</g>
<!-- ast.Name object at 0x7fae3282c1f0&#45;&gt;ast.Load object at 0x7fae3acf5720 -->
<g id="edge25" class="edge">
<title>ast.Name object at 0x7fae3282c1f0&#45;&gt;ast.Load object at 0x7fae3acf5720</title>
<path fill="none" stroke="black" d="M541.5,-71.7C541.5,-63.98 541.5,-54.71 541.5,-46.11"/>
<polygon fill="black" stroke="black" points="545,-46.1 541.5,-36.1 538,-46.1 545,-46.1"/>
</g>
<!-- ast.Name object at 0x7fae3282c040 -->
<g id="node27" class="node">
<title>ast.Name object at 0x7fae3282c040</title>
<path fill="#66cdaa" stroke="black" d="M142,-180C142,-180 107,-180 107,-180 101,-180 95,-174 95,-168 95,-168 95,-156 95,-156 95,-150 101,-144 107,-144 107,-144 142,-144 142,-144 148,-144 154,-150 154,-156 154,-156 154,-168 154,-168 154,-174 148,-180 142,-180"/>
<text text-anchor="middle" x="124.5" y="-158.3" font-family="Times,serif" font-size="14.00">Name</text>
</g>
<!-- ast.AugAssign object at 0x7fae3282c310&#45;&gt;ast.Name object at 0x7fae3282c040 -->
<g id="edge29" class="edge">
<title>ast.AugAssign object at 0x7fae3282c310&#45;&gt;ast.Name object at 0x7fae3282c040</title>
<path fill="none" stroke="black" d="M152.35,-215.7C148.1,-207.64 142.94,-197.89 138.23,-188.98"/>
<polygon fill="black" stroke="black" points="141.31,-187.31 133.54,-180.1 135.12,-190.58 141.31,-187.31"/>
</g>
<!-- ast.Add object at 0x7fae3acf5960 -->
<g id="node28" class="node">
<title>ast.Add object at 0x7fae3acf5960</title>
<path fill="#66cdaa" stroke="black" d="M64.5,-180C64.5,-180 34.5,-180 34.5,-180 28.5,-180 22.5,-174 22.5,-168 22.5,-168 22.5,-156 22.5,-156 22.5,-150 28.5,-144 34.5,-144 34.5,-144 64.5,-144 64.5,-144 70.5,-144 76.5,-150 76.5,-156 76.5,-156 76.5,-168 76.5,-168 76.5,-174 70.5,-180 64.5,-180"/>
<text text-anchor="middle" x="49.5" y="-158.3" font-family="Times,serif" font-size="14.00">Add</text>
</g>
<!-- ast.AugAssign object at 0x7fae3282c310&#45;&gt;ast.Add object at 0x7fae3acf5960 -->
<g id="edge31" class="edge">
<title>ast.AugAssign object at 0x7fae3282c310&#45;&gt;ast.Add object at 0x7fae3acf5960</title>
<path fill="none" stroke="black" d="M134.1,-215.88C119.35,-206.66 100.97,-195.17 85.12,-185.26"/>
<polygon fill="black" stroke="black" points="86.95,-182.28 76.62,-179.95 83.24,-188.22 86.95,-182.28"/>
</g>
<!-- ast.Name object at 0x7fae3282c220 -->
<g id="node29" class="node">
<title>ast.Name object at 0x7fae3282c220</title>
<path fill="#66cdaa" stroke="black" d="M219,-180C219,-180 184,-180 184,-180 178,-180 172,-174 172,-168 172,-168 172,-156 172,-156 172,-150 178,-144 184,-144 184,-144 219,-144 219,-144 225,-144 231,-150 231,-156 231,-156 231,-168 231,-168 231,-174 225,-180 219,-180"/>
<text text-anchor="middle" x="201.5" y="-158.3" font-family="Times,serif" font-size="14.00">Name</text>
</g>
<!-- ast.AugAssign object at 0x7fae3282c310&#45;&gt;ast.Name object at 0x7fae3282c220 -->
<g id="edge32" class="edge">
<title>ast.AugAssign object at 0x7fae3282c310&#45;&gt;ast.Name object at 0x7fae3282c220</title>
<path fill="none" stroke="black" d="M171.39,-215.7C175.99,-207.64 181.56,-197.89 186.65,-188.98"/>
<polygon fill="black" stroke="black" points="189.8,-190.52 191.73,-180.1 183.73,-187.05 189.8,-190.52"/>
</g>
<!-- ast.Name object at 0x7fae3282c040&#45;&gt;ast.Store object at 0x7fae3acf5780 -->
<g id="edge30" class="edge">
<title>ast.Name object at 0x7fae3282c040&#45;&gt;ast.Store object at 0x7fae3acf5780</title>
<path fill="none" stroke="black" d="M113.38,-143.7C108.14,-135.56 101.8,-125.69 96.02,-116.7"/>
<polygon fill="black" stroke="black" points="98.85,-114.62 90.5,-108.1 92.96,-118.41 98.85,-114.62"/>
</g>
<!-- ast.Name object at 0x7fae3282c220&#45;&gt;ast.Load object at 0x7fae3acf5720 -->
<g id="edge33" class="edge">
<title>ast.Name object at 0x7fae3282c220&#45;&gt;ast.Load object at 0x7fae3acf5720</title>
<path fill="none" stroke="black" d="M206.8,-143.89C214.09,-123.38 229.26,-89.57 254.5,-72 294.37,-44.25 435.52,-28.33 503.87,-22.1"/>
<polygon fill="black" stroke="black" points="504.53,-25.55 514.18,-21.18 503.91,-18.58 504.53,-25.55"/>
</g>
<!-- ast.Name object at 0x7fae3282c280 -->
<g id="node31" class="node">
<title>ast.Name object at 0x7fae3282c280</title>
<path fill="#66cdaa" stroke="black" d="M650,-324C650,-324 615,-324 615,-324 609,-324 603,-318 603,-312 603,-312 603,-300 603,-300 603,-294 609,-288 615,-288 615,-288 650,-288 650,-288 656,-288 662,-294 662,-300 662,-300 662,-312 662,-312 662,-318 656,-324 650,-324"/>
<text text-anchor="middle" x="632.5" y="-302.3" font-family="Times,serif" font-size="14.00">Name</text>
</g>
<!-- ast.Return object at 0x7fae3282c520&#45;&gt;ast.Name object at 0x7fae3282c280 -->
<g id="edge35" class="edge">
<title>ast.Return object at 0x7fae3282c520&#45;&gt;ast.Name object at 0x7fae3282c280</title>
<path fill="none" stroke="black" d="M428.7,-367.19C471.9,-354.43 547.28,-332.17 593.26,-318.59"/>
<polygon fill="black" stroke="black" points="594.28,-321.94 602.88,-315.75 592.3,-315.22 594.28,-321.94"/>
</g>
<!-- ast.Name object at 0x7fae3282c280&#45;&gt;ast.Load object at 0x7fae3acf5720 -->
<g id="edge36" class="edge">
<title>ast.Name object at 0x7fae3282c280&#45;&gt;ast.Load object at 0x7fae3acf5720</title>
<path fill="none" stroke="black" d="M642.84,-287.76C666.04,-246.61 716.71,-140.94 670.5,-72 650.24,-41.77 609.31,-28.77 578.96,-23.19"/>
<polygon fill="black" stroke="black" points="579.16,-19.67 568.72,-21.5 578.02,-26.58 579.16,-19.67"/>
</g>
</g>
</svg>
