<?xml version="1.0" encoding="UTF-8" standalone="no"?>
<!DOCTYPE svg PUBLIC "-//W3C//DTD SVG 1.1//EN"
 "http://www.w3.org/Graphics/SVG/1.1/DTD/svg11.dtd">
<!-- Generated by graphviz version 2.43.0 (0)
 -->
<!-- Title: %3 Pages: 1 -->
<svg width="905pt" height="692pt"
 viewBox="0.00 0.00 904.68 692.00" xmlns="http://www.w3.org/2000/svg" xmlns:xlink="http://www.w3.org/1999/xlink">
<g id="graph0" class="graph" transform="scale(1 1) rotate(0) translate(4 688)">
<title>%3</title>
<polygon fill="white" stroke="transparent" points="-4,4 -4,-688 900.68,-688 900.68,4 -4,4"/>
<!-- ast.Module object at 0x7f6843206740 -->
<g id="node1" class="node">
<title>ast.Module object at 0x7f6843206740</title>
<path fill="#66cdaa" stroke="black" d="M310.5,-684C310.5,-684 275.5,-684 275.5,-684 269.5,-684 263.5,-678 263.5,-672 263.5,-672 263.5,-660 263.5,-660 263.5,-654 269.5,-648 275.5,-648 275.5,-648 310.5,-648 310.5,-648 316.5,-648 322.5,-654 322.5,-660 322.5,-660 322.5,-672 322.5,-672 322.5,-678 316.5,-684 310.5,-684"/>
<text text-anchor="middle" x="293" y="-662.3" font-family="Times,serif" font-size="14.00">Module</text>
</g>
<!-- ast.FunctionDef object at 0x7f6843207850 -->
<g id="node2" class="node">
<title>ast.FunctionDef object at 0x7f6843207850</title>
<path fill="#66cdaa" stroke="black" d="M323.5,-612C323.5,-612 262.5,-612 262.5,-612 256.5,-612 250.5,-606 250.5,-600 250.5,-600 250.5,-588 250.5,-588 250.5,-582 256.5,-576 262.5,-576 262.5,-576 323.5,-576 323.5,-576 329.5,-576 335.5,-582 335.5,-588 335.5,-588 335.5,-600 335.5,-600 335.5,-606 329.5,-612 323.5,-612"/>
<text text-anchor="middle" x="293" y="-590.3" font-family="Times,serif" font-size="14.00">FunctionDef</text>
</g>
<!-- ast.Module object at 0x7f6843206740&#45;&gt;ast.FunctionDef object at 0x7f6843207850 -->
<g id="edge1" class="edge">
<title>ast.Module object at 0x7f6843206740&#45;&gt;ast.FunctionDef object at 0x7f6843207850</title>
<path fill="none" stroke="black" d="M293,-647.7C293,-639.98 293,-630.71 293,-622.11"/>
<polygon fill="black" stroke="black" points="296.5,-622.1 293,-612.1 289.5,-622.1 296.5,-622.1"/>
</g>
<!-- ast.arguments object at 0x7f6843207010 -->
<g id="node3" class="node">
<title>ast.arguments object at 0x7f6843207010</title>
<path fill="#66cdaa" stroke="black" d="M172,-540C172,-540 122,-540 122,-540 116,-540 110,-534 110,-528 110,-528 110,-516 110,-516 110,-510 116,-504 122,-504 122,-504 172,-504 172,-504 178,-504 184,-510 184,-516 184,-516 184,-528 184,-528 184,-534 178,-540 172,-540"/>
<text text-anchor="middle" x="147" y="-518.3" font-family="Times,serif" font-size="14.00">arguments</text>
</g>
<!-- ast.FunctionDef object at 0x7f6843207850&#45;&gt;ast.arguments object at 0x7f6843207010 -->
<g id="edge2" class="edge">
<title>ast.FunctionDef object at 0x7f6843207850&#45;&gt;ast.arguments object at 0x7f6843207010</title>
<path fill="none" stroke="black" d="M257.28,-575.88C237.5,-566.39 212.73,-554.51 191.67,-544.42"/>
<polygon fill="black" stroke="black" points="193.13,-541.24 182.6,-540.07 190.1,-547.55 193.13,-541.24"/>
</g>
<!-- ast.Assign object at 0x7f68432045b0 -->
<g id="node5" class="node">
<title>ast.Assign object at 0x7f68432045b0</title>
<path fill="#66cdaa" stroke="black" d="M272,-540C272,-540 242,-540 242,-540 236,-540 230,-534 230,-528 230,-528 230,-516 230,-516 230,-510 236,-504 242,-504 242,-504 272,-504 272,-504 278,-504 284,-510 284,-516 284,-516 284,-528 284,-528 284,-534 278,-540 272,-540"/>
<text text-anchor="middle" x="257" y="-518.3" font-family="Times,serif" font-size="14.00">Assign</text>
</g>
<!-- ast.FunctionDef object at 0x7f6843207850&#45;&gt;ast.Assign object at 0x7f68432045b0 -->
<g id="edge4" class="edge">
<title>ast.FunctionDef object at 0x7f6843207850&#45;&gt;ast.Assign object at 0x7f68432045b0</title>
<path fill="none" stroke="black" d="M284.1,-575.7C280,-567.73 275.05,-558.1 270.51,-549.26"/>
<polygon fill="black" stroke="black" points="273.48,-547.4 265.8,-540.1 267.26,-550.6 273.48,-547.4"/>
</g>
<!-- ast.For object at 0x7f6843206680 -->
<g id="node9" class="node">
<title>ast.For object at 0x7f6843206680</title>
<path fill="#66cdaa" stroke="black" d="M354,-540C354,-540 324,-540 324,-540 318,-540 312,-534 312,-528 312,-528 312,-516 312,-516 312,-510 318,-504 324,-504 324,-504 354,-504 354,-504 360,-504 366,-510 366,-516 366,-516 366,-528 366,-528 366,-534 360,-540 354,-540"/>
<text text-anchor="middle" x="339" y="-518.3" font-family="Times,serif" font-size="14.00">For</text>
</g>
<!-- ast.FunctionDef object at 0x7f6843207850&#45;&gt;ast.For object at 0x7f6843206680 -->
<g id="edge8" class="edge">
<title>ast.FunctionDef object at 0x7f6843207850&#45;&gt;ast.For object at 0x7f6843206680</title>
<path fill="none" stroke="black" d="M304.37,-575.7C309.72,-567.56 316.2,-557.69 322.11,-548.7"/>
<polygon fill="black" stroke="black" points="325.19,-550.38 327.76,-540.1 319.34,-546.54 325.19,-550.38"/>
</g>
<!-- ast.Return object at 0x7f6841022860 -->
<g id="node43" class="node">
<title>ast.Return object at 0x7f6841022860</title>
<path fill="#66cdaa" stroke="black" d="M467,-540C467,-540 437,-540 437,-540 431,-540 425,-534 425,-528 425,-528 425,-516 425,-516 425,-510 431,-504 437,-504 437,-504 467,-504 467,-504 473,-504 479,-510 479,-516 479,-516 479,-528 479,-528 479,-534 473,-540 467,-540"/>
<text text-anchor="middle" x="452" y="-518.3" font-family="Times,serif" font-size="14.00">Return</text>
</g>
<!-- ast.FunctionDef object at 0x7f6843207850&#45;&gt;ast.Return object at 0x7f6841022860 -->
<g id="edge55" class="edge">
<title>ast.FunctionDef object at 0x7f6843207850&#45;&gt;ast.Return object at 0x7f6841022860</title>
<path fill="none" stroke="black" d="M331.9,-575.88C357.49,-564.61 390.77,-549.96 415.8,-538.94"/>
<polygon fill="black" stroke="black" points="417.22,-542.14 424.96,-534.9 414.4,-535.73 417.22,-542.14"/>
</g>
<!-- ast.arg object at 0x7f6843206f80 -->
<g id="node4" class="node">
<title>ast.arg object at 0x7f6843206f80</title>
<path fill="#66cdaa" stroke="black" d="M133,-468C133,-468 103,-468 103,-468 97,-468 91,-462 91,-456 91,-456 91,-444 91,-444 91,-438 97,-432 103,-432 103,-432 133,-432 133,-432 139,-432 145,-438 145,-444 145,-444 145,-456 145,-456 145,-462 139,-468 133,-468"/>
<text text-anchor="middle" x="118" y="-446.3" font-family="Times,serif" font-size="14.00">arg</text>
</g>
<!-- ast.arguments object at 0x7f6843207010&#45;&gt;ast.arg object at 0x7f6843206f80 -->
<g id="edge3" class="edge">
<title>ast.arguments object at 0x7f6843207010&#45;&gt;ast.arg object at 0x7f6843206f80</title>
<path fill="none" stroke="black" d="M139.83,-503.7C136.57,-495.81 132.63,-486.3 129,-477.55"/>
<polygon fill="black" stroke="black" points="132.15,-476 125.09,-468.1 125.68,-478.68 132.15,-476"/>
</g>
<!-- ast.Name object at 0x7f6843206b60 -->
<g id="node6" class="node">
<title>ast.Name object at 0x7f6843206b60</title>
<path fill="#66cdaa" stroke="black" d="M255,-396C255,-396 225,-396 225,-396 219,-396 213,-390 213,-384 213,-384 213,-372 213,-372 213,-366 219,-360 225,-360 225,-360 255,-360 255,-360 261,-360 267,-366 267,-372 267,-372 267,-384 267,-384 267,-390 261,-396 255,-396"/>
<text text-anchor="middle" x="240" y="-374.3" font-family="Times,serif" font-size="14.00">Name</text>
</g>
<!-- ast.Assign object at 0x7f68432045b0&#45;&gt;ast.Name object at 0x7f6843206b60 -->
<g id="edge5" class="edge">
<title>ast.Assign object at 0x7f68432045b0&#45;&gt;ast.Name object at 0x7f6843206b60</title>
<path fill="none" stroke="black" d="M254.95,-503.87C252.05,-479.67 246.73,-435.21 243.28,-406.39"/>
<polygon fill="black" stroke="black" points="246.72,-405.7 242.06,-396.19 239.77,-406.53 246.72,-405.7"/>
</g>
<!-- ast.Constant object at 0x7f68432042e0 -->
<g id="node8" class="node">
<title>ast.Constant object at 0x7f68432042e0</title>
<path fill="#66cdaa" stroke="black" d="M216.5,-468C216.5,-468 175.5,-468 175.5,-468 169.5,-468 163.5,-462 163.5,-456 163.5,-456 163.5,-444 163.5,-444 163.5,-438 169.5,-432 175.5,-432 175.5,-432 216.5,-432 216.5,-432 222.5,-432 228.5,-438 228.5,-444 228.5,-444 228.5,-456 228.5,-456 228.5,-462 222.5,-468 216.5,-468"/>
<text text-anchor="middle" x="196" y="-446.3" font-family="Times,serif" font-size="14.00">Constant</text>
</g>
<!-- ast.Assign object at 0x7f68432045b0&#45;&gt;ast.Constant object at 0x7f68432042e0 -->
<g id="edge7" class="edge">
<title>ast.Assign object at 0x7f68432045b0&#45;&gt;ast.Constant object at 0x7f68432042e0</title>
<path fill="none" stroke="black" d="M241.92,-503.7C234.61,-495.3 225.69,-485.07 217.66,-475.86"/>
<polygon fill="black" stroke="black" points="220.11,-473.34 210.91,-468.1 214.84,-477.94 220.11,-473.34"/>
</g>
<!-- ast.Store object at 0x7f6847aedff0 -->
<g id="node7" class="node">
<title>ast.Store object at 0x7f6847aedff0</title>
<path fill="#66cdaa" stroke="black" d="M318,-252C318,-252 288,-252 288,-252 282,-252 276,-246 276,-240 276,-240 276,-228 276,-228 276,-222 282,-216 288,-216 288,-216 318,-216 318,-216 324,-216 330,-222 330,-228 330,-228 330,-240 330,-240 330,-246 324,-252 318,-252"/>
<text text-anchor="middle" x="303" y="-230.3" font-family="Times,serif" font-size="14.00">Store</text>
</g>
<!-- ast.Name object at 0x7f6843206b60&#45;&gt;ast.Store object at 0x7f6847aedff0 -->
<g id="edge6" class="edge">
<title>ast.Name object at 0x7f6843206b60&#45;&gt;ast.Store object at 0x7f6847aedff0</title>
<path fill="none" stroke="black" d="M247.6,-359.87C258.43,-335.46 278.41,-290.43 291.18,-261.64"/>
<polygon fill="black" stroke="black" points="294.52,-262.75 295.37,-252.19 288.12,-259.91 294.52,-262.75"/>
</g>
<!-- ast.Name object at 0x7f6843206020 -->
<g id="node10" class="node">
<title>ast.Name object at 0x7f6843206020</title>
<path fill="#66cdaa" stroke="black" d="M365,-396C365,-396 335,-396 335,-396 329,-396 323,-390 323,-384 323,-384 323,-372 323,-372 323,-366 329,-360 335,-360 335,-360 365,-360 365,-360 371,-360 377,-366 377,-372 377,-372 377,-384 377,-384 377,-390 371,-396 365,-396"/>
<text text-anchor="middle" x="350" y="-374.3" font-family="Times,serif" font-size="14.00">Name</text>
</g>
<!-- ast.For object at 0x7f6843206680&#45;&gt;ast.Name object at 0x7f6843206020 -->
<g id="edge9" class="edge">
<title>ast.For object at 0x7f6843206680&#45;&gt;ast.Name object at 0x7f6843206020</title>
<path fill="none" stroke="black" d="M340.33,-503.87C342.2,-479.67 345.65,-435.21 347.88,-406.39"/>
<polygon fill="black" stroke="black" points="351.39,-406.43 348.67,-396.19 344.41,-405.89 351.39,-406.43"/>
</g>
<!-- ast.Call object at 0x7f68432075e0 -->
<g id="node11" class="node">
<title>ast.Call object at 0x7f68432075e0</title>
<path fill="#66cdaa" stroke="black" d="M208,-324C208,-324 178,-324 178,-324 172,-324 166,-318 166,-312 166,-312 166,-300 166,-300 166,-294 172,-288 178,-288 178,-288 208,-288 208,-288 214,-288 220,-294 220,-300 220,-300 220,-312 220,-312 220,-318 214,-324 208,-324"/>
<text text-anchor="middle" x="193" y="-302.3" font-family="Times,serif" font-size="14.00">Call</text>
</g>
<!-- ast.For object at 0x7f6843206680&#45;&gt;ast.Call object at 0x7f68432075e0 -->
<g id="edge11" class="edge">
<title>ast.For object at 0x7f6843206680&#45;&gt;ast.Call object at 0x7f68432075e0</title>
<path fill="none" stroke="black" d="M335.92,-503.7C329.55,-472.12 312.39,-404.3 276,-360 263.48,-344.76 245.39,-332.49 229.29,-323.61"/>
<polygon fill="black" stroke="black" points="230.58,-320.34 220.1,-318.78 227.32,-326.53 230.58,-320.34"/>
</g>
<!-- ast.If object at 0x7f6843207910 -->
<g id="node21" class="node">
<title>ast.If object at 0x7f6843207910</title>
<path fill="#66cdaa" stroke="black" d="M437,-468C437,-468 407,-468 407,-468 401,-468 395,-462 395,-456 395,-456 395,-444 395,-444 395,-438 401,-432 407,-432 407,-432 437,-432 437,-432 443,-432 449,-438 449,-444 449,-444 449,-456 449,-456 449,-462 443,-468 437,-468"/>
<text text-anchor="middle" x="422" y="-446.3" font-family="Times,serif" font-size="14.00">If</text>
</g>
<!-- ast.For object at 0x7f6843206680&#45;&gt;ast.If object at 0x7f6843207910 -->
<g id="edge23" class="edge">
<title>ast.For object at 0x7f6843206680&#45;&gt;ast.If object at 0x7f6843207910</title>
<path fill="none" stroke="black" d="M359.52,-503.7C369.87,-494.97 382.59,-484.24 393.84,-474.75"/>
<polygon fill="black" stroke="black" points="396.33,-477.23 401.72,-468.1 391.82,-471.88 396.33,-477.23"/>
</g>
<!-- ast.Name object at 0x7f6843206020&#45;&gt;ast.Store object at 0x7f6847aedff0 -->
<g id="edge10" class="edge">
<title>ast.Name object at 0x7f6843206020&#45;&gt;ast.Store object at 0x7f6847aedff0</title>
<path fill="none" stroke="black" d="M335.03,-359.56C327.45,-349.75 318.86,-336.91 314,-324 306.57,-304.24 303.92,-280.44 303.08,-262.42"/>
<polygon fill="black" stroke="black" points="306.57,-262.19 302.76,-252.3 299.58,-262.4 306.57,-262.19"/>
</g>
<!-- ast.Name object at 0x7f6843206aa0 -->
<g id="node12" class="node">
<title>ast.Name object at 0x7f6843206aa0</title>
<path fill="#66cdaa" stroke="black" d="M318,-108C318,-108 288,-108 288,-108 282,-108 276,-102 276,-96 276,-96 276,-84 276,-84 276,-78 282,-72 288,-72 288,-72 318,-72 318,-72 324,-72 330,-78 330,-84 330,-84 330,-96 330,-96 330,-102 324,-108 318,-108"/>
<text text-anchor="middle" x="303" y="-86.3" font-family="Times,serif" font-size="14.00">Name</text>
</g>
<!-- ast.Call object at 0x7f68432075e0&#45;&gt;ast.Name object at 0x7f6843206aa0 -->
<g id="edge12" class="edge">
<title>ast.Call object at 0x7f68432075e0&#45;&gt;ast.Name object at 0x7f6843206aa0</title>
<path fill="none" stroke="black" d="M204.5,-287.62C211.08,-277.42 219.33,-264.17 226,-252 251.38,-205.71 277.08,-149.72 291.44,-117.45"/>
<polygon fill="black" stroke="black" points="294.67,-118.79 295.52,-108.23 288.27,-115.96 294.67,-118.79"/>
</g>
<!-- ast.Constant object at 0x7f68432063e0 -->
<g id="node14" class="node">
<title>ast.Constant object at 0x7f68432063e0</title>
<path fill="#66cdaa" stroke="black" d="M132.5,-252C132.5,-252 91.5,-252 91.5,-252 85.5,-252 79.5,-246 79.5,-240 79.5,-240 79.5,-228 79.5,-228 79.5,-222 85.5,-216 91.5,-216 91.5,-216 132.5,-216 132.5,-216 138.5,-216 144.5,-222 144.5,-228 144.5,-228 144.5,-240 144.5,-240 144.5,-246 138.5,-252 132.5,-252"/>
<text text-anchor="middle" x="112" y="-230.3" font-family="Times,serif" font-size="14.00">Constant</text>
</g>
<!-- ast.Call object at 0x7f68432075e0&#45;&gt;ast.Constant object at 0x7f68432063e0 -->
<g id="edge14" class="edge">
<title>ast.Call object at 0x7f68432075e0&#45;&gt;ast.Constant object at 0x7f68432063e0</title>
<path fill="none" stroke="black" d="M172.98,-287.7C162.87,-278.97 150.46,-268.24 139.48,-258.75"/>
<polygon fill="black" stroke="black" points="141.65,-255.99 131.79,-252.1 137.07,-261.29 141.65,-255.99"/>
</g>
<!-- ast.BinOp object at 0x7f6843206b30 -->
<g id="node15" class="node">
<title>ast.BinOp object at 0x7f6843206b30</title>
<path fill="#66cdaa" stroke="black" d="M205,-252C205,-252 175,-252 175,-252 169,-252 163,-246 163,-240 163,-240 163,-228 163,-228 163,-222 169,-216 175,-216 175,-216 205,-216 205,-216 211,-216 217,-222 217,-228 217,-228 217,-240 217,-240 217,-246 211,-252 205,-252"/>
<text text-anchor="middle" x="190" y="-230.3" font-family="Times,serif" font-size="14.00">BinOp</text>
</g>
<!-- ast.Call object at 0x7f68432075e0&#45;&gt;ast.BinOp object at 0x7f6843206b30 -->
<g id="edge15" class="edge">
<title>ast.Call object at 0x7f68432075e0&#45;&gt;ast.BinOp object at 0x7f6843206b30</title>
<path fill="none" stroke="black" d="M192.26,-287.7C191.93,-279.98 191.53,-270.71 191.16,-262.11"/>
<polygon fill="black" stroke="black" points="194.66,-261.95 190.73,-252.1 187.66,-262.25 194.66,-261.95"/>
</g>
<!-- ast.Load object at 0x7f6847aedf90 -->
<g id="node13" class="node">
<title>ast.Load object at 0x7f6847aedf90</title>
<path fill="#66cdaa" stroke="black" d="M483,-36C483,-36 453,-36 453,-36 447,-36 441,-30 441,-24 441,-24 441,-12 441,-12 441,-6 447,0 453,0 453,0 483,0 483,0 489,0 495,-6 495,-12 495,-12 495,-24 495,-24 495,-30 489,-36 483,-36"/>
<text text-anchor="middle" x="468" y="-14.3" font-family="Times,serif" font-size="14.00">Load</text>
</g>
<!-- ast.Name object at 0x7f6843206aa0&#45;&gt;ast.Load object at 0x7f6847aedf90 -->
<g id="edge13" class="edge">
<title>ast.Name object at 0x7f6843206aa0&#45;&gt;ast.Load object at 0x7f6847aedf90</title>
<path fill="none" stroke="black" d="M330.25,-77.44C357.92,-65.7 400.93,-47.45 431.53,-34.47"/>
<polygon fill="black" stroke="black" points="433.15,-37.59 440.99,-30.46 430.41,-31.14 433.15,-37.59"/>
</g>
<!-- ast.Subscript object at 0x7f6843207520 -->
<g id="node16" class="node">
<title>ast.Subscript object at 0x7f6843207520</title>
<path fill="#66cdaa" stroke="black" d="M212,-180C212,-180 168,-180 168,-180 162,-180 156,-174 156,-168 156,-168 156,-156 156,-156 156,-150 162,-144 168,-144 168,-144 212,-144 212,-144 218,-144 224,-150 224,-156 224,-156 224,-168 224,-168 224,-174 218,-180 212,-180"/>
<text text-anchor="middle" x="190" y="-158.3" font-family="Times,serif" font-size="14.00">Subscript</text>
</g>
<!-- ast.BinOp object at 0x7f6843206b30&#45;&gt;ast.Subscript object at 0x7f6843207520 -->
<g id="edge16" class="edge">
<title>ast.BinOp object at 0x7f6843206b30&#45;&gt;ast.Subscript object at 0x7f6843207520</title>
<path fill="none" stroke="black" d="M190,-215.7C190,-207.98 190,-198.71 190,-190.11"/>
<polygon fill="black" stroke="black" points="193.5,-190.1 190,-180.1 186.5,-190.1 193.5,-190.1"/>
</g>
<!-- ast.Add object at 0x7f6847aee1d0 -->
<g id="node19" class="node">
<title>ast.Add object at 0x7f6847aee1d0</title>
<path fill="#66cdaa" stroke="black" d="M42,-180C42,-180 12,-180 12,-180 6,-180 0,-174 0,-168 0,-168 0,-156 0,-156 0,-150 6,-144 12,-144 12,-144 42,-144 42,-144 48,-144 54,-150 54,-156 54,-156 54,-168 54,-168 54,-174 48,-180 42,-180"/>
<text text-anchor="middle" x="27" y="-158.3" font-family="Times,serif" font-size="14.00">Add</text>
</g>
<!-- ast.BinOp object at 0x7f6843206b30&#45;&gt;ast.Add object at 0x7f6847aee1d0 -->
<g id="edge21" class="edge">
<title>ast.BinOp object at 0x7f6843206b30&#45;&gt;ast.Add object at 0x7f6847aee1d0</title>
<path fill="none" stroke="black" d="M162.99,-220.4C159.64,-218.89 156.25,-217.39 153,-216 116.04,-200.13 104.07,-197.51 63.22,-179.97"/>
<polygon fill="black" stroke="black" points="64.61,-176.76 54.05,-175.99 61.83,-183.18 64.61,-176.76"/>
</g>
<!-- ast.Constant object at 0x7f68432064a0 -->
<g id="node20" class="node">
<title>ast.Constant object at 0x7f68432064a0</title>
<path fill="#66cdaa" stroke="black" d="M125.5,-180C125.5,-180 84.5,-180 84.5,-180 78.5,-180 72.5,-174 72.5,-168 72.5,-168 72.5,-156 72.5,-156 72.5,-150 78.5,-144 84.5,-144 84.5,-144 125.5,-144 125.5,-144 131.5,-144 137.5,-150 137.5,-156 137.5,-156 137.5,-168 137.5,-168 137.5,-174 131.5,-180 125.5,-180"/>
<text text-anchor="middle" x="105" y="-158.3" font-family="Times,serif" font-size="14.00">Constant</text>
</g>
<!-- ast.BinOp object at 0x7f6843206b30&#45;&gt;ast.Constant object at 0x7f68432064a0 -->
<g id="edge22" class="edge">
<title>ast.BinOp object at 0x7f6843206b30&#45;&gt;ast.Constant object at 0x7f68432064a0</title>
<path fill="none" stroke="black" d="M168.99,-215.7C158.28,-206.88 145.11,-196.03 133.5,-186.47"/>
<polygon fill="black" stroke="black" points="135.71,-183.76 125.77,-180.1 131.26,-189.16 135.71,-183.76"/>
</g>
<!-- ast.Subscript object at 0x7f6843207520&#45;&gt;ast.Load object at 0x7f6847aedf90 -->
<g id="edge20" class="edge">
<title>ast.Subscript object at 0x7f6843207520&#45;&gt;ast.Load object at 0x7f6847aedf90</title>
<path fill="none" stroke="black" d="M202.79,-143.93C220.37,-120.89 251.57,-81.62 267,-72 318.23,-40.04 388.36,-27.22 430.8,-22.17"/>
<polygon fill="black" stroke="black" points="431.4,-25.62 440.96,-21.05 430.64,-18.67 431.4,-25.62"/>
</g>
<!-- ast.Name object at 0x7f6843206dd0 -->
<g id="node17" class="node">
<title>ast.Name object at 0x7f6843206dd0</title>
<path fill="#66cdaa" stroke="black" d="M208,-108C208,-108 178,-108 178,-108 172,-108 166,-102 166,-96 166,-96 166,-84 166,-84 166,-78 172,-72 178,-72 178,-72 208,-72 208,-72 214,-72 220,-78 220,-84 220,-84 220,-96 220,-96 220,-102 214,-108 208,-108"/>
<text text-anchor="middle" x="193" y="-86.3" font-family="Times,serif" font-size="14.00">Name</text>
</g>
<!-- ast.Subscript object at 0x7f6843207520&#45;&gt;ast.Name object at 0x7f6843206dd0 -->
<g id="edge17" class="edge">
<title>ast.Subscript object at 0x7f6843207520&#45;&gt;ast.Name object at 0x7f6843206dd0</title>
<path fill="none" stroke="black" d="M190.74,-143.7C191.07,-135.98 191.47,-126.71 191.84,-118.11"/>
<polygon fill="black" stroke="black" points="195.34,-118.25 192.27,-108.1 188.34,-117.95 195.34,-118.25"/>
</g>
<!-- ast.Constant object at 0x7f6843207370 -->
<g id="node18" class="node">
<title>ast.Constant object at 0x7f6843207370</title>
<path fill="#66cdaa" stroke="black" d="M135.5,-108C135.5,-108 94.5,-108 94.5,-108 88.5,-108 82.5,-102 82.5,-96 82.5,-96 82.5,-84 82.5,-84 82.5,-78 88.5,-72 94.5,-72 94.5,-72 135.5,-72 135.5,-72 141.5,-72 147.5,-78 147.5,-84 147.5,-84 147.5,-96 147.5,-96 147.5,-102 141.5,-108 135.5,-108"/>
<text text-anchor="middle" x="115" y="-86.3" font-family="Times,serif" font-size="14.00">Constant</text>
</g>
<!-- ast.Subscript object at 0x7f6843207520&#45;&gt;ast.Constant object at 0x7f6843207370 -->
<g id="edge19" class="edge">
<title>ast.Subscript object at 0x7f6843207520&#45;&gt;ast.Constant object at 0x7f6843207370</title>
<path fill="none" stroke="black" d="M171.46,-143.7C162.2,-135.05 150.84,-124.45 140.74,-115.03"/>
<polygon fill="black" stroke="black" points="143.02,-112.37 133.33,-108.1 138.25,-117.49 143.02,-112.37"/>
</g>
<!-- ast.Name object at 0x7f6843206dd0&#45;&gt;ast.Load object at 0x7f6847aedf90 -->
<g id="edge18" class="edge">
<title>ast.Name object at 0x7f6843206dd0&#45;&gt;ast.Load object at 0x7f6847aedf90</title>
<path fill="none" stroke="black" d="M220.11,-77C224.69,-75.19 229.45,-73.45 234,-72 302.27,-50.29 384.43,-33.83 431,-25.36"/>
<polygon fill="black" stroke="black" points="431.71,-28.79 440.93,-23.58 430.47,-21.9 431.71,-28.79"/>
</g>
<!-- ast.BoolOp object at 0x7f68410c00d0 -->
<g id="node22" class="node">
<title>ast.BoolOp object at 0x7f68410c00d0</title>
<path fill="#66cdaa" stroke="black" d="M552.5,-396C552.5,-396 517.5,-396 517.5,-396 511.5,-396 505.5,-390 505.5,-384 505.5,-384 505.5,-372 505.5,-372 505.5,-366 511.5,-360 517.5,-360 517.5,-360 552.5,-360 552.5,-360 558.5,-360 564.5,-366 564.5,-372 564.5,-372 564.5,-384 564.5,-384 564.5,-390 558.5,-396 552.5,-396"/>
<text text-anchor="middle" x="535" y="-374.3" font-family="Times,serif" font-size="14.00">BoolOp</text>
</g>
<!-- ast.If object at 0x7f6843207910&#45;&gt;ast.BoolOp object at 0x7f68410c00d0 -->
<g id="edge24" class="edge">
<title>ast.If object at 0x7f6843207910&#45;&gt;ast.BoolOp object at 0x7f68410c00d0</title>
<path fill="none" stroke="black" d="M449.07,-432.23C463.94,-423.02 482.59,-411.47 498.71,-401.48"/>
<polygon fill="black" stroke="black" points="500.71,-404.36 507.37,-396.12 497.03,-398.41 500.71,-404.36"/>
</g>
<!-- ast.Assign object at 0x7f68410224d0 -->
<g id="node40" class="node">
<title>ast.Assign object at 0x7f68410224d0</title>
<path fill="#66cdaa" stroke="black" d="M437,-396C437,-396 407,-396 407,-396 401,-396 395,-390 395,-384 395,-384 395,-372 395,-372 395,-366 401,-360 407,-360 407,-360 437,-360 437,-360 443,-360 449,-366 449,-372 449,-372 449,-384 449,-384 449,-390 443,-396 437,-396"/>
<text text-anchor="middle" x="422" y="-374.3" font-family="Times,serif" font-size="14.00">Assign</text>
</g>
<!-- ast.If object at 0x7f6843207910&#45;&gt;ast.Assign object at 0x7f68410224d0 -->
<g id="edge50" class="edge">
<title>ast.If object at 0x7f6843207910&#45;&gt;ast.Assign object at 0x7f68410224d0</title>
<path fill="none" stroke="black" d="M422,-431.7C422,-423.98 422,-414.71 422,-406.11"/>
<polygon fill="black" stroke="black" points="425.5,-406.1 422,-396.1 418.5,-406.1 425.5,-406.1"/>
</g>
<!-- ast.And object at 0x7f6847aee0e0 -->
<g id="node23" class="node">
<title>ast.And object at 0x7f6847aee0e0</title>
<path fill="#66cdaa" stroke="black" d="M509,-324C509,-324 479,-324 479,-324 473,-324 467,-318 467,-312 467,-312 467,-300 467,-300 467,-294 473,-288 479,-288 479,-288 509,-288 509,-288 515,-288 521,-294 521,-300 521,-300 521,-312 521,-312 521,-318 515,-324 509,-324"/>
<text text-anchor="middle" x="494" y="-302.3" font-family="Times,serif" font-size="14.00">And</text>
</g>
<!-- ast.BoolOp object at 0x7f68410c00d0&#45;&gt;ast.And object at 0x7f6847aee0e0 -->
<g id="edge25" class="edge">
<title>ast.BoolOp object at 0x7f68410c00d0&#45;&gt;ast.And object at 0x7f6847aee0e0</title>
<path fill="none" stroke="black" d="M524.87,-359.7C520.15,-351.64 514.44,-341.89 509.22,-332.98"/>
<polygon fill="black" stroke="black" points="512.09,-330.96 504.02,-324.1 506.05,-334.5 512.09,-330.96"/>
</g>
<!-- ast.Compare object at 0x7f68410c0220 -->
<g id="node24" class="node">
<title>ast.Compare object at 0x7f68410c0220</title>
<path fill="#66cdaa" stroke="black" d="M699.5,-324C699.5,-324 656.5,-324 656.5,-324 650.5,-324 644.5,-318 644.5,-312 644.5,-312 644.5,-300 644.5,-300 644.5,-294 650.5,-288 656.5,-288 656.5,-288 699.5,-288 699.5,-288 705.5,-288 711.5,-294 711.5,-300 711.5,-300 711.5,-312 711.5,-312 711.5,-318 705.5,-324 699.5,-324"/>
<text text-anchor="middle" x="678" y="-302.3" font-family="Times,serif" font-size="14.00">Compare</text>
</g>
<!-- ast.BoolOp object at 0x7f68410c00d0&#45;&gt;ast.Compare object at 0x7f68410c0220 -->
<g id="edge26" class="edge">
<title>ast.BoolOp object at 0x7f68410c00d0&#45;&gt;ast.Compare object at 0x7f68410c0220</title>
<path fill="none" stroke="black" d="M564.63,-362.5C585.05,-352.5 612.5,-339.06 635.28,-327.91"/>
<polygon fill="black" stroke="black" points="636.96,-330.99 644.4,-323.45 633.88,-324.7 636.96,-330.99"/>
</g>
<!-- ast.Compare object at 0x7f6841022fb0 -->
<g id="node33" class="node">
<title>ast.Compare object at 0x7f6841022fb0</title>
<path fill="#66cdaa" stroke="black" d="M594.5,-324C594.5,-324 551.5,-324 551.5,-324 545.5,-324 539.5,-318 539.5,-312 539.5,-312 539.5,-300 539.5,-300 539.5,-294 545.5,-288 551.5,-288 551.5,-288 594.5,-288 594.5,-288 600.5,-288 606.5,-294 606.5,-300 606.5,-300 606.5,-312 606.5,-312 606.5,-318 600.5,-324 594.5,-324"/>
<text text-anchor="middle" x="573" y="-302.3" font-family="Times,serif" font-size="14.00">Compare</text>
</g>
<!-- ast.BoolOp object at 0x7f68410c00d0&#45;&gt;ast.Compare object at 0x7f6841022fb0 -->
<g id="edge38" class="edge">
<title>ast.BoolOp object at 0x7f68410c00d0&#45;&gt;ast.Compare object at 0x7f6841022fb0</title>
<path fill="none" stroke="black" d="M544.39,-359.7C548.76,-351.64 554.06,-341.89 558.9,-332.98"/>
<polygon fill="black" stroke="black" points="562.02,-334.56 563.71,-324.1 555.87,-331.22 562.02,-334.56"/>
</g>
<!-- ast.BinOp object at 0x7f68410c1e40 -->
<g id="node25" class="node">
<title>ast.BinOp object at 0x7f68410c1e40</title>
<path fill="#66cdaa" stroke="black" d="M725,-252C725,-252 695,-252 695,-252 689,-252 683,-246 683,-240 683,-240 683,-228 683,-228 683,-222 689,-216 695,-216 695,-216 725,-216 725,-216 731,-216 737,-222 737,-228 737,-228 737,-240 737,-240 737,-246 731,-252 725,-252"/>
<text text-anchor="middle" x="710" y="-230.3" font-family="Times,serif" font-size="14.00">BinOp</text>
</g>
<!-- ast.Compare object at 0x7f68410c0220&#45;&gt;ast.BinOp object at 0x7f68410c1e40 -->
<g id="edge27" class="edge">
<title>ast.Compare object at 0x7f68410c0220&#45;&gt;ast.BinOp object at 0x7f68410c1e40</title>
<path fill="none" stroke="black" d="M685.91,-287.7C689.55,-279.73 693.95,-270.1 697.99,-261.26"/>
<polygon fill="black" stroke="black" points="701.21,-262.65 702.18,-252.1 694.84,-259.74 701.21,-262.65"/>
</g>
<!-- ast.Eq object at 0x7f6847aee8c0 -->
<g id="node31" class="node">
<title>ast.Eq object at 0x7f6847aee8c0</title>
<path fill="#66cdaa" stroke="black" d="M653,-252C653,-252 623,-252 623,-252 617,-252 611,-246 611,-240 611,-240 611,-228 611,-228 611,-222 617,-216 623,-216 623,-216 653,-216 653,-216 659,-216 665,-222 665,-228 665,-228 665,-240 665,-240 665,-246 659,-252 653,-252"/>
<text text-anchor="middle" x="638" y="-230.3" font-family="Times,serif" font-size="14.00">Eq</text>
</g>
<!-- ast.Compare object at 0x7f68410c0220&#45;&gt;ast.Eq object at 0x7f6847aee8c0 -->
<g id="edge36" class="edge">
<title>ast.Compare object at 0x7f68410c0220&#45;&gt;ast.Eq object at 0x7f6847aee8c0</title>
<path fill="none" stroke="black" d="M668.11,-287.7C663.51,-279.64 657.94,-269.89 652.85,-260.98"/>
<polygon fill="black" stroke="black" points="655.77,-259.05 647.77,-252.1 649.7,-262.52 655.77,-259.05"/>
</g>
<!-- ast.Constant object at 0x7f68410214b0 -->
<g id="node32" class="node">
<title>ast.Constant object at 0x7f68410214b0</title>
<path fill="#66cdaa" stroke="black" d="M808.5,-252C808.5,-252 767.5,-252 767.5,-252 761.5,-252 755.5,-246 755.5,-240 755.5,-240 755.5,-228 755.5,-228 755.5,-222 761.5,-216 767.5,-216 767.5,-216 808.5,-216 808.5,-216 814.5,-216 820.5,-222 820.5,-228 820.5,-228 820.5,-240 820.5,-240 820.5,-246 814.5,-252 808.5,-252"/>
<text text-anchor="middle" x="788" y="-230.3" font-family="Times,serif" font-size="14.00">Constant</text>
</g>
<!-- ast.Compare object at 0x7f68410c0220&#45;&gt;ast.Constant object at 0x7f68410214b0 -->
<g id="edge37" class="edge">
<title>ast.Compare object at 0x7f68410c0220&#45;&gt;ast.Constant object at 0x7f68410214b0</title>
<path fill="none" stroke="black" d="M704.91,-287.88C719.16,-278.81 736.85,-267.55 752.24,-257.76"/>
<polygon fill="black" stroke="black" points="754.43,-260.51 760.99,-252.19 750.67,-254.61 754.43,-260.51"/>
</g>
<!-- ast.Subscript object at 0x7f6841020070 -->
<g id="node26" class="node">
<title>ast.Subscript object at 0x7f6841020070</title>
<path fill="#66cdaa" stroke="black" d="M770,-180C770,-180 726,-180 726,-180 720,-180 714,-174 714,-168 714,-168 714,-156 714,-156 714,-150 720,-144 726,-144 726,-144 770,-144 770,-144 776,-144 782,-150 782,-156 782,-156 782,-168 782,-168 782,-174 776,-180 770,-180"/>
<text text-anchor="middle" x="748" y="-158.3" font-family="Times,serif" font-size="14.00">Subscript</text>
</g>
<!-- ast.BinOp object at 0x7f68410c1e40&#45;&gt;ast.Subscript object at 0x7f6841020070 -->
<g id="edge28" class="edge">
<title>ast.BinOp object at 0x7f68410c1e40&#45;&gt;ast.Subscript object at 0x7f6841020070</title>
<path fill="none" stroke="black" d="M719.39,-215.7C723.76,-207.64 729.06,-197.89 733.9,-188.98"/>
<polygon fill="black" stroke="black" points="737.02,-190.56 738.71,-180.1 730.87,-187.22 737.02,-190.56"/>
</g>
<!-- ast.Mod object at 0x7f6847aee3b0 -->
<g id="node29" class="node">
<title>ast.Mod object at 0x7f6847aee3b0</title>
<path fill="#66cdaa" stroke="black" d="M607,-180C607,-180 577,-180 577,-180 571,-180 565,-174 565,-168 565,-168 565,-156 565,-156 565,-150 571,-144 577,-144 577,-144 607,-144 607,-144 613,-144 619,-150 619,-156 619,-156 619,-168 619,-168 619,-174 613,-180 607,-180"/>
<text text-anchor="middle" x="592" y="-158.3" font-family="Times,serif" font-size="14.00">Mod</text>
</g>
<!-- ast.BinOp object at 0x7f68410c1e40&#45;&gt;ast.Mod object at 0x7f6847aee3b0 -->
<g id="edge33" class="edge">
<title>ast.BinOp object at 0x7f68410c1e40&#45;&gt;ast.Mod object at 0x7f6847aee3b0</title>
<path fill="none" stroke="black" d="M682.93,-216.94C666.7,-207.32 645.87,-194.96 628.24,-184.5"/>
<polygon fill="black" stroke="black" points="629.74,-181.32 619.35,-179.23 626.17,-187.34 629.74,-181.32"/>
</g>
<!-- ast.Name object at 0x7f6841020940 -->
<g id="node30" class="node">
<title>ast.Name object at 0x7f6841020940</title>
<path fill="#66cdaa" stroke="black" d="M680,-180C680,-180 650,-180 650,-180 644,-180 638,-174 638,-168 638,-168 638,-156 638,-156 638,-150 644,-144 650,-144 650,-144 680,-144 680,-144 686,-144 692,-150 692,-156 692,-156 692,-168 692,-168 692,-174 686,-180 680,-180"/>
<text text-anchor="middle" x="665" y="-158.3" font-family="Times,serif" font-size="14.00">Name</text>
</g>
<!-- ast.BinOp object at 0x7f68410c1e40&#45;&gt;ast.Name object at 0x7f6841020940 -->
<g id="edge34" class="edge">
<title>ast.BinOp object at 0x7f68410c1e40&#45;&gt;ast.Name object at 0x7f6841020940</title>
<path fill="none" stroke="black" d="M698.88,-215.7C693.64,-207.56 687.3,-197.69 681.52,-188.7"/>
<polygon fill="black" stroke="black" points="684.35,-186.62 676,-180.1 678.46,-190.41 684.35,-186.62"/>
</g>
<!-- ast.Subscript object at 0x7f6841020070&#45;&gt;ast.Load object at 0x7f6847aedf90 -->
<g id="edge32" class="edge">
<title>ast.Subscript object at 0x7f6841020070&#45;&gt;ast.Load object at 0x7f6847aedf90</title>
<path fill="none" stroke="black" d="M736.61,-143.88C722.28,-123.69 695.78,-90.51 665,-72 614.5,-41.62 546.42,-28.34 504.95,-22.77"/>
<polygon fill="black" stroke="black" points="505.36,-19.29 495,-21.51 504.49,-26.24 505.36,-19.29"/>
</g>
<!-- ast.Name object at 0x7f68410234f0 -->
<g id="node27" class="node">
<title>ast.Name object at 0x7f68410234f0</title>
<path fill="#66cdaa" stroke="black" d="M770,-108C770,-108 740,-108 740,-108 734,-108 728,-102 728,-96 728,-96 728,-84 728,-84 728,-78 734,-72 740,-72 740,-72 770,-72 770,-72 776,-72 782,-78 782,-84 782,-84 782,-96 782,-96 782,-102 776,-108 770,-108"/>
<text text-anchor="middle" x="755" y="-86.3" font-family="Times,serif" font-size="14.00">Name</text>
</g>
<!-- ast.Subscript object at 0x7f6841020070&#45;&gt;ast.Name object at 0x7f68410234f0 -->
<g id="edge29" class="edge">
<title>ast.Subscript object at 0x7f6841020070&#45;&gt;ast.Name object at 0x7f68410234f0</title>
<path fill="none" stroke="black" d="M749.73,-143.7C750.5,-135.98 751.43,-126.71 752.29,-118.11"/>
<polygon fill="black" stroke="black" points="755.78,-118.4 753.29,-108.1 748.81,-117.71 755.78,-118.4"/>
</g>
<!-- ast.Constant object at 0x7f6841021fc0 -->
<g id="node28" class="node">
<title>ast.Constant object at 0x7f6841021fc0</title>
<path fill="#66cdaa" stroke="black" d="M853.5,-108C853.5,-108 812.5,-108 812.5,-108 806.5,-108 800.5,-102 800.5,-96 800.5,-96 800.5,-84 800.5,-84 800.5,-78 806.5,-72 812.5,-72 812.5,-72 853.5,-72 853.5,-72 859.5,-72 865.5,-78 865.5,-84 865.5,-84 865.5,-96 865.5,-96 865.5,-102 859.5,-108 853.5,-108"/>
<text text-anchor="middle" x="833" y="-86.3" font-family="Times,serif" font-size="14.00">Constant</text>
</g>
<!-- ast.Subscript object at 0x7f6841020070&#45;&gt;ast.Constant object at 0x7f6841021fc0 -->
<g id="edge31" class="edge">
<title>ast.Subscript object at 0x7f6841020070&#45;&gt;ast.Constant object at 0x7f6841021fc0</title>
<path fill="none" stroke="black" d="M769.01,-143.7C779.72,-134.88 792.89,-124.03 804.5,-114.47"/>
<polygon fill="black" stroke="black" points="806.74,-117.16 812.23,-108.1 802.29,-111.76 806.74,-117.16"/>
</g>
<!-- ast.Name object at 0x7f68410234f0&#45;&gt;ast.Load object at 0x7f6847aedf90 -->
<g id="edge30" class="edge">
<title>ast.Name object at 0x7f68410234f0&#45;&gt;ast.Load object at 0x7f6847aedf90</title>
<path fill="none" stroke="black" d="M727.91,-76.96C723.32,-75.16 718.56,-73.42 714,-72 641.54,-49.38 554.12,-33.05 505.42,-24.89"/>
<polygon fill="black" stroke="black" points="505.79,-21.4 495.35,-23.23 504.65,-28.31 505.79,-21.4"/>
</g>
<!-- ast.Name object at 0x7f6841020940&#45;&gt;ast.Load object at 0x7f6847aedf90 -->
<g id="edge35" class="edge">
<title>ast.Name object at 0x7f6841020940&#45;&gt;ast.Load object at 0x7f6847aedf90</title>
<path fill="none" stroke="black" d="M665.52,-143.91C665.18,-124.04 661.52,-91.51 643,-72 606.98,-34.07 544.83,-23.01 505.11,-19.94"/>
<polygon fill="black" stroke="black" points="505.23,-16.44 495.03,-19.3 504.79,-23.43 505.23,-16.44"/>
</g>
<!-- ast.Compare object at 0x7f6841022fb0&#45;&gt;ast.Eq object at 0x7f6847aee8c0 -->
<g id="edge48" class="edge">
<title>ast.Compare object at 0x7f6841022fb0&#45;&gt;ast.Eq object at 0x7f6847aee8c0</title>
<path fill="none" stroke="black" d="M589.07,-287.7C596.94,-279.22 606.56,-268.86 615.17,-259.58"/>
<polygon fill="black" stroke="black" points="617.88,-261.81 622.12,-252.1 612.75,-257.05 617.88,-261.81"/>
</g>
<!-- ast.BinOp object at 0x7f6841023040 -->
<g id="node34" class="node">
<title>ast.BinOp object at 0x7f6841023040</title>
<path fill="#66cdaa" stroke="black" d="M497,-252C497,-252 467,-252 467,-252 461,-252 455,-246 455,-240 455,-240 455,-228 455,-228 455,-222 461,-216 467,-216 467,-216 497,-216 497,-216 503,-216 509,-222 509,-228 509,-228 509,-240 509,-240 509,-246 503,-252 497,-252"/>
<text text-anchor="middle" x="482" y="-230.3" font-family="Times,serif" font-size="14.00">BinOp</text>
</g>
<!-- ast.Compare object at 0x7f6841022fb0&#45;&gt;ast.BinOp object at 0x7f6841023040 -->
<g id="edge39" class="edge">
<title>ast.Compare object at 0x7f6841022fb0&#45;&gt;ast.BinOp object at 0x7f6841023040</title>
<path fill="none" stroke="black" d="M550.51,-287.7C539.04,-278.88 524.94,-268.03 512.52,-258.47"/>
<polygon fill="black" stroke="black" points="514.3,-255.43 504.24,-252.1 510.03,-260.98 514.3,-255.43"/>
</g>
<!-- ast.Constant object at 0x7f68410210f0 -->
<g id="node39" class="node">
<title>ast.Constant object at 0x7f68410210f0</title>
<path fill="#66cdaa" stroke="black" d="M580.5,-252C580.5,-252 539.5,-252 539.5,-252 533.5,-252 527.5,-246 527.5,-240 527.5,-240 527.5,-228 527.5,-228 527.5,-222 533.5,-216 539.5,-216 539.5,-216 580.5,-216 580.5,-216 586.5,-216 592.5,-222 592.5,-228 592.5,-228 592.5,-240 592.5,-240 592.5,-246 586.5,-252 580.5,-252"/>
<text text-anchor="middle" x="560" y="-230.3" font-family="Times,serif" font-size="14.00">Constant</text>
</g>
<!-- ast.Compare object at 0x7f6841022fb0&#45;&gt;ast.Constant object at 0x7f68410210f0 -->
<g id="edge49" class="edge">
<title>ast.Compare object at 0x7f6841022fb0&#45;&gt;ast.Constant object at 0x7f68410210f0</title>
<path fill="none" stroke="black" d="M569.79,-287.7C568.35,-279.98 566.63,-270.71 565.04,-262.11"/>
<polygon fill="black" stroke="black" points="568.44,-261.3 563.18,-252.1 561.56,-262.58 568.44,-261.3"/>
</g>
<!-- ast.BinOp object at 0x7f6841023040&#45;&gt;ast.Mod object at 0x7f6847aee3b0 -->
<g id="edge45" class="edge">
<title>ast.BinOp object at 0x7f6841023040&#45;&gt;ast.Mod object at 0x7f6847aee3b0</title>
<path fill="none" stroke="black" d="M508.91,-215.88C523.16,-206.81 540.85,-195.55 556.24,-185.76"/>
<polygon fill="black" stroke="black" points="558.43,-188.51 564.99,-180.19 554.67,-182.61 558.43,-188.51"/>
</g>
<!-- ast.Subscript object at 0x7f6841022d40 -->
<g id="node35" class="node">
<title>ast.Subscript object at 0x7f6841022d40</title>
<path fill="#66cdaa" stroke="black" d="M491,-180C491,-180 447,-180 447,-180 441,-180 435,-174 435,-168 435,-168 435,-156 435,-156 435,-150 441,-144 447,-144 447,-144 491,-144 491,-144 497,-144 503,-150 503,-156 503,-156 503,-168 503,-168 503,-174 497,-180 491,-180"/>
<text text-anchor="middle" x="469" y="-158.3" font-family="Times,serif" font-size="14.00">Subscript</text>
</g>
<!-- ast.BinOp object at 0x7f6841023040&#45;&gt;ast.Subscript object at 0x7f6841022d40 -->
<g id="edge40" class="edge">
<title>ast.BinOp object at 0x7f6841023040&#45;&gt;ast.Subscript object at 0x7f6841022d40</title>
<path fill="none" stroke="black" d="M478.79,-215.7C477.35,-207.98 475.63,-198.71 474.04,-190.11"/>
<polygon fill="black" stroke="black" points="477.44,-189.3 472.18,-180.1 470.56,-190.58 477.44,-189.3"/>
</g>
<!-- ast.Name object at 0x7f6841022ad0 -->
<g id="node38" class="node">
<title>ast.Name object at 0x7f6841022ad0</title>
<path fill="#66cdaa" stroke="black" d="M622,-108C622,-108 592,-108 592,-108 586,-108 580,-102 580,-96 580,-96 580,-84 580,-84 580,-78 586,-72 592,-72 592,-72 622,-72 622,-72 628,-72 634,-78 634,-84 634,-84 634,-96 634,-96 634,-102 628,-108 622,-108"/>
<text text-anchor="middle" x="607" y="-86.3" font-family="Times,serif" font-size="14.00">Name</text>
</g>
<!-- ast.BinOp object at 0x7f6841023040&#45;&gt;ast.Name object at 0x7f6841022ad0 -->
<g id="edge46" class="edge">
<title>ast.BinOp object at 0x7f6841023040&#45;&gt;ast.Name object at 0x7f6841022ad0</title>
<path fill="none" stroke="black" d="M495.56,-215.96C510.13,-197.82 534.16,-168.41 556,-144 564.43,-134.58 573.97,-124.52 582.49,-115.72"/>
<polygon fill="black" stroke="black" points="585.19,-117.97 589.67,-108.36 580.18,-113.08 585.19,-117.97"/>
</g>
<!-- ast.Subscript object at 0x7f6841022d40&#45;&gt;ast.Load object at 0x7f6847aedf90 -->
<g id="edge44" class="edge">
<title>ast.Subscript object at 0x7f6841022d40&#45;&gt;ast.Load object at 0x7f6847aedf90</title>
<path fill="none" stroke="black" d="M468.88,-143.87C468.71,-119.67 468.4,-75.21 468.19,-46.39"/>
<polygon fill="black" stroke="black" points="471.69,-46.16 468.12,-36.19 464.69,-46.21 471.69,-46.16"/>
</g>
<!-- ast.Name object at 0x7f6841022d70 -->
<g id="node36" class="node">
<title>ast.Name object at 0x7f6841022d70</title>
<path fill="#66cdaa" stroke="black" d="M428,-108C428,-108 398,-108 398,-108 392,-108 386,-102 386,-96 386,-96 386,-84 386,-84 386,-78 392,-72 398,-72 398,-72 428,-72 428,-72 434,-72 440,-78 440,-84 440,-84 440,-96 440,-96 440,-102 434,-108 428,-108"/>
<text text-anchor="middle" x="413" y="-86.3" font-family="Times,serif" font-size="14.00">Name</text>
</g>
<!-- ast.Subscript object at 0x7f6841022d40&#45;&gt;ast.Name object at 0x7f6841022d70 -->
<g id="edge41" class="edge">
<title>ast.Subscript object at 0x7f6841022d40&#45;&gt;ast.Name object at 0x7f6841022d70</title>
<path fill="none" stroke="black" d="M455.16,-143.7C448.51,-135.39 440.42,-125.28 433.11,-116.14"/>
<polygon fill="black" stroke="black" points="435.66,-113.73 426.68,-108.1 430.2,-118.1 435.66,-113.73"/>
</g>
<!-- ast.Constant object at 0x7f6841022740 -->
<g id="node37" class="node">
<title>ast.Constant object at 0x7f6841022740</title>
<path fill="#66cdaa" stroke="black" d="M549.5,-108C549.5,-108 508.5,-108 508.5,-108 502.5,-108 496.5,-102 496.5,-96 496.5,-96 496.5,-84 496.5,-84 496.5,-78 502.5,-72 508.5,-72 508.5,-72 549.5,-72 549.5,-72 555.5,-72 561.5,-78 561.5,-84 561.5,-84 561.5,-96 561.5,-96 561.5,-102 555.5,-108 549.5,-108"/>
<text text-anchor="middle" x="529" y="-86.3" font-family="Times,serif" font-size="14.00">Constant</text>
</g>
<!-- ast.Subscript object at 0x7f6841022d40&#45;&gt;ast.Constant object at 0x7f6841022740 -->
<g id="edge43" class="edge">
<title>ast.Subscript object at 0x7f6841022d40&#45;&gt;ast.Constant object at 0x7f6841022740</title>
<path fill="none" stroke="black" d="M483.83,-143.7C491.02,-135.3 499.8,-125.07 507.69,-115.86"/>
<polygon fill="black" stroke="black" points="510.49,-117.97 514.34,-108.1 505.17,-113.42 510.49,-117.97"/>
</g>
<!-- ast.Name object at 0x7f6841022d70&#45;&gt;ast.Load object at 0x7f6847aedf90 -->
<g id="edge42" class="edge">
<title>ast.Name object at 0x7f6841022d70&#45;&gt;ast.Load object at 0x7f6847aedf90</title>
<path fill="none" stroke="black" d="M426.6,-71.7C433.12,-63.39 441.07,-53.28 448.25,-44.14"/>
<polygon fill="black" stroke="black" points="451.13,-46.13 454.56,-36.1 445.63,-41.81 451.13,-46.13"/>
</g>
<!-- ast.Name object at 0x7f6841022ad0&#45;&gt;ast.Load object at 0x7f6847aedf90 -->
<g id="edge47" class="edge">
<title>ast.Name object at 0x7f6841022ad0&#45;&gt;ast.Load object at 0x7f6847aedf90</title>
<path fill="none" stroke="black" d="M579.87,-75.34C558.25,-64.45 527.78,-49.1 504.1,-37.18"/>
<polygon fill="black" stroke="black" points="505.57,-34 495.06,-32.63 502.42,-40.25 505.57,-34"/>
</g>
<!-- ast.Name object at 0x7f6841023a30 -->
<g id="node41" class="node">
<title>ast.Name object at 0x7f6841023a30</title>
<path fill="#66cdaa" stroke="black" d="M365,-324C365,-324 335,-324 335,-324 329,-324 323,-318 323,-312 323,-312 323,-300 323,-300 323,-294 329,-288 335,-288 335,-288 365,-288 365,-288 371,-288 377,-294 377,-300 377,-300 377,-312 377,-312 377,-318 371,-324 365,-324"/>
<text text-anchor="middle" x="350" y="-302.3" font-family="Times,serif" font-size="14.00">Name</text>
</g>
<!-- ast.Assign object at 0x7f68410224d0&#45;&gt;ast.Name object at 0x7f6841023a30 -->
<g id="edge51" class="edge">
<title>ast.Assign object at 0x7f68410224d0&#45;&gt;ast.Name object at 0x7f6841023a30</title>
<path fill="none" stroke="black" d="M404.2,-359.7C395.4,-351.14 384.62,-340.66 375,-331.3"/>
<polygon fill="black" stroke="black" points="377.2,-328.57 367.59,-324.1 372.32,-333.58 377.2,-328.57"/>
</g>
<!-- ast.Name object at 0x7f6841021c90 -->
<g id="node42" class="node">
<title>ast.Name object at 0x7f6841021c90</title>
<path fill="#66cdaa" stroke="black" d="M437,-324C437,-324 407,-324 407,-324 401,-324 395,-318 395,-312 395,-312 395,-300 395,-300 395,-294 401,-288 407,-288 407,-288 437,-288 437,-288 443,-288 449,-294 449,-300 449,-300 449,-312 449,-312 449,-318 443,-324 437,-324"/>
<text text-anchor="middle" x="422" y="-302.3" font-family="Times,serif" font-size="14.00">Name</text>
</g>
<!-- ast.Assign object at 0x7f68410224d0&#45;&gt;ast.Name object at 0x7f6841021c90 -->
<g id="edge53" class="edge">
<title>ast.Assign object at 0x7f68410224d0&#45;&gt;ast.Name object at 0x7f6841021c90</title>
<path fill="none" stroke="black" d="M422,-359.7C422,-351.98 422,-342.71 422,-334.11"/>
<polygon fill="black" stroke="black" points="425.5,-334.1 422,-324.1 418.5,-334.1 425.5,-334.1"/>
</g>
<!-- ast.Name object at 0x7f6841023a30&#45;&gt;ast.Store object at 0x7f6847aedff0 -->
<g id="edge52" class="edge">
<title>ast.Name object at 0x7f6841023a30&#45;&gt;ast.Store object at 0x7f6847aedff0</title>
<path fill="none" stroke="black" d="M338.38,-287.7C332.86,-279.47 326.15,-269.48 320.07,-260.42"/>
<polygon fill="black" stroke="black" points="322.96,-258.46 314.48,-252.1 317.15,-262.36 322.96,-258.46"/>
</g>
<!-- ast.Name object at 0x7f6841021c90&#45;&gt;ast.Load object at 0x7f6847aedf90 -->
<g id="edge54" class="edge">
<title>ast.Name object at 0x7f6841021c90&#45;&gt;ast.Load object at 0x7f6847aedf90</title>
<path fill="none" stroke="black" d="M411.3,-287.9C387.52,-247.51 335.53,-144.15 377,-72 388.67,-51.7 411.43,-38.45 431.27,-30.27"/>
<polygon fill="black" stroke="black" points="432.62,-33.5 440.71,-26.66 430.12,-26.97 432.62,-33.5"/>
</g>
<!-- ast.Name object at 0x7f6841021b40 -->
<g id="node44" class="node">
<title>ast.Name object at 0x7f6841021b40</title>
<path fill="#66cdaa" stroke="black" d="M709,-468C709,-468 679,-468 679,-468 673,-468 667,-462 667,-456 667,-456 667,-444 667,-444 667,-438 673,-432 679,-432 679,-432 709,-432 709,-432 715,-432 721,-438 721,-444 721,-444 721,-456 721,-456 721,-462 715,-468 709,-468"/>
<text text-anchor="middle" x="694" y="-446.3" font-family="Times,serif" font-size="14.00">Name</text>
</g>
<!-- ast.Return object at 0x7f6841022860&#45;&gt;ast.Name object at 0x7f6841021b40 -->
<g id="edge56" class="edge">
<title>ast.Return object at 0x7f6841022860&#45;&gt;ast.Name object at 0x7f6841021b40</title>
<path fill="none" stroke="black" d="M479.29,-513.11C522.8,-500.52 607.95,-475.89 656.93,-461.72"/>
<polygon fill="black" stroke="black" points="658.18,-465.01 666.81,-458.86 656.23,-458.28 658.18,-465.01"/>
</g>
<!-- ast.Name object at 0x7f6841021b40&#45;&gt;ast.Load object at 0x7f6847aedf90 -->
<g id="edge57" class="edge">
<title>ast.Name object at 0x7f6841021b40&#45;&gt;ast.Load object at 0x7f6847aedf90</title>
<path fill="none" stroke="black" d="M721.39,-443.11C776.16,-429.56 894,-390.68 894,-307 894,-307 894,-307 894,-161 894,-120.55 904.73,-99.42 875,-72 821.59,-22.74 595.01,-18.33 505.04,-18.57"/>
<polygon fill="black" stroke="black" points="505,-15.07 495.02,-18.62 505.03,-22.07 505,-15.07"/>
</g>
</g>
</svg>
