<?xml version="1.0" encoding="UTF-8" standalone="no"?>
<!DOCTYPE svg PUBLIC "-//W3C//DTD SVG 1.1//EN"
 "http://www.w3.org/Graphics/SVG/1.1/DTD/svg11.dtd">
<!-- Generated by graphviz version 2.43.0 (0)
 -->
<!-- Title: %3 Pages: 1 -->
<svg width="582pt" height="548pt"
 viewBox="0.00 0.00 582.00 548.00" xmlns="http://www.w3.org/2000/svg" xmlns:xlink="http://www.w3.org/1999/xlink">
<g id="graph0" class="graph" transform="scale(1 1) rotate(0) translate(4 544)">
<title>%3</title>
<polygon fill="white" stroke="transparent" points="-4,4 -4,-544 578,-544 578,4 -4,4"/>
<!-- ast.Module object at 0x7f0ed8642860 -->
<g id="node1" class="node">
<title>ast.Module object at 0x7f0ed8642860</title>
<path fill="#66cdaa" stroke="black" d="M257.5,-540C257.5,-540 222.5,-540 222.5,-540 216.5,-540 210.5,-534 210.5,-528 210.5,-528 210.5,-516 210.5,-516 210.5,-510 216.5,-504 222.5,-504 222.5,-504 257.5,-504 257.5,-504 263.5,-504 269.5,-510 269.5,-516 269.5,-516 269.5,-528 269.5,-528 269.5,-534 263.5,-540 257.5,-540"/>
<text text-anchor="middle" x="240" y="-518.3" font-family="Times,serif" font-size="14.00">Module</text>
</g>
<!-- ast.FunctionDef object at 0x7f0ed8641d80 -->
<g id="node2" class="node">
<title>ast.FunctionDef object at 0x7f0ed8641d80</title>
<path fill="#66cdaa" stroke="black" d="M270.5,-468C270.5,-468 209.5,-468 209.5,-468 203.5,-468 197.5,-462 197.5,-456 197.5,-456 197.5,-444 197.5,-444 197.5,-438 203.5,-432 209.5,-432 209.5,-432 270.5,-432 270.5,-432 276.5,-432 282.5,-438 282.5,-444 282.5,-444 282.5,-456 282.5,-456 282.5,-462 276.5,-468 270.5,-468"/>
<text text-anchor="middle" x="240" y="-446.3" font-family="Times,serif" font-size="14.00">FunctionDef</text>
</g>
<!-- ast.Module object at 0x7f0ed8642860&#45;&gt;ast.FunctionDef object at 0x7f0ed8641d80 -->
<g id="edge1" class="edge">
<title>ast.Module object at 0x7f0ed8642860&#45;&gt;ast.FunctionDef object at 0x7f0ed8641d80</title>
<path fill="none" stroke="black" d="M240,-503.7C240,-495.98 240,-486.71 240,-478.11"/>
<polygon fill="black" stroke="black" points="243.5,-478.1 240,-468.1 236.5,-478.1 243.5,-478.1"/>
</g>
<!-- ast.arguments object at 0x7f0ed86407c0 -->
<g id="node3" class="node">
<title>ast.arguments object at 0x7f0ed86407c0</title>
<path fill="#66cdaa" stroke="black" d="M133,-396C133,-396 83,-396 83,-396 77,-396 71,-390 71,-384 71,-384 71,-372 71,-372 71,-366 77,-360 83,-360 83,-360 133,-360 133,-360 139,-360 145,-366 145,-372 145,-372 145,-384 145,-384 145,-390 139,-396 133,-396"/>
<text text-anchor="middle" x="108" y="-374.3" font-family="Times,serif" font-size="14.00">arguments</text>
</g>
<!-- ast.FunctionDef object at 0x7f0ed8641d80&#45;&gt;ast.arguments object at 0x7f0ed86407c0 -->
<g id="edge2" class="edge">
<title>ast.FunctionDef object at 0x7f0ed8641d80&#45;&gt;ast.arguments object at 0x7f0ed86407c0</title>
<path fill="none" stroke="black" d="M207.71,-431.88C190.13,-422.55 168.19,-410.92 149.37,-400.94"/>
<polygon fill="black" stroke="black" points="150.89,-397.78 140.41,-396.19 147.61,-403.97 150.89,-397.78"/>
</g>
<!-- ast.Assign object at 0x7f0ed8643220 -->
<g id="node5" class="node">
<title>ast.Assign object at 0x7f0ed8643220</title>
<path fill="#66cdaa" stroke="black" d="M219,-396C219,-396 189,-396 189,-396 183,-396 177,-390 177,-384 177,-384 177,-372 177,-372 177,-366 183,-360 189,-360 189,-360 219,-360 219,-360 225,-360 231,-366 231,-372 231,-372 231,-384 231,-384 231,-390 225,-396 219,-396"/>
<text text-anchor="middle" x="204" y="-374.3" font-family="Times,serif" font-size="14.00">Assign</text>
</g>
<!-- ast.FunctionDef object at 0x7f0ed8641d80&#45;&gt;ast.Assign object at 0x7f0ed8643220 -->
<g id="edge4" class="edge">
<title>ast.FunctionDef object at 0x7f0ed8641d80&#45;&gt;ast.Assign object at 0x7f0ed8643220</title>
<path fill="none" stroke="black" d="M231.1,-431.7C227,-423.73 222.05,-414.1 217.51,-405.26"/>
<polygon fill="black" stroke="black" points="220.48,-403.4 212.8,-396.1 214.26,-406.6 220.48,-403.4"/>
</g>
<!-- ast.Assign object at 0x7f0ed8642c50 -->
<g id="node14" class="node">
<title>ast.Assign object at 0x7f0ed8642c50</title>
<path fill="#66cdaa" stroke="black" d="M291,-396C291,-396 261,-396 261,-396 255,-396 249,-390 249,-384 249,-384 249,-372 249,-372 249,-366 255,-360 261,-360 261,-360 291,-360 291,-360 297,-360 303,-366 303,-372 303,-372 303,-384 303,-384 303,-390 297,-396 291,-396"/>
<text text-anchor="middle" x="276" y="-374.3" font-family="Times,serif" font-size="14.00">Assign</text>
</g>
<!-- ast.FunctionDef object at 0x7f0ed8641d80&#45;&gt;ast.Assign object at 0x7f0ed8642c50 -->
<g id="edge15" class="edge">
<title>ast.FunctionDef object at 0x7f0ed8641d80&#45;&gt;ast.Assign object at 0x7f0ed8642c50</title>
<path fill="none" stroke="black" d="M248.9,-431.7C253,-423.73 257.95,-414.1 262.49,-405.26"/>
<polygon fill="black" stroke="black" points="265.74,-406.6 267.2,-396.1 259.52,-403.4 265.74,-406.6"/>
</g>
<!-- ast.Return object at 0x7f0ed8fe8c40 -->
<g id="node26" class="node">
<title>ast.Return object at 0x7f0ed8fe8c40</title>
<path fill="#66cdaa" stroke="black" d="M397,-396C397,-396 367,-396 367,-396 361,-396 355,-390 355,-384 355,-384 355,-372 355,-372 355,-366 361,-360 367,-360 367,-360 397,-360 397,-360 403,-360 409,-366 409,-372 409,-372 409,-384 409,-384 409,-390 403,-396 397,-396"/>
<text text-anchor="middle" x="382" y="-374.3" font-family="Times,serif" font-size="14.00">Return</text>
</g>
<!-- ast.FunctionDef object at 0x7f0ed8641d80&#45;&gt;ast.Return object at 0x7f0ed8fe8c40 -->
<g id="edge32" class="edge">
<title>ast.FunctionDef object at 0x7f0ed8641d80&#45;&gt;ast.Return object at 0x7f0ed8fe8c40</title>
<path fill="none" stroke="black" d="M274.74,-431.88C296.19,-421.3 323.69,-407.74 345.47,-397.01"/>
<polygon fill="black" stroke="black" points="347.31,-400 354.73,-392.44 344.21,-393.73 347.31,-400"/>
</g>
<!-- ast.arg object at 0x7f0ed8640700 -->
<g id="node4" class="node">
<title>ast.arg object at 0x7f0ed8640700</title>
<path fill="#66cdaa" stroke="black" d="M109,-324C109,-324 79,-324 79,-324 73,-324 67,-318 67,-312 67,-312 67,-300 67,-300 67,-294 73,-288 79,-288 79,-288 109,-288 109,-288 115,-288 121,-294 121,-300 121,-300 121,-312 121,-312 121,-318 115,-324 109,-324"/>
<text text-anchor="middle" x="94" y="-302.3" font-family="Times,serif" font-size="14.00">arg</text>
</g>
<!-- ast.arguments object at 0x7f0ed86407c0&#45;&gt;ast.arg object at 0x7f0ed8640700 -->
<g id="edge3" class="edge">
<title>ast.arguments object at 0x7f0ed86407c0&#45;&gt;ast.arg object at 0x7f0ed8640700</title>
<path fill="none" stroke="black" d="M104.54,-359.7C103,-351.98 101.14,-342.71 99.42,-334.11"/>
<polygon fill="black" stroke="black" points="102.81,-333.22 97.42,-324.1 95.95,-334.6 102.81,-333.22"/>
</g>
<!-- ast.Name object at 0x7f0ed86411b0 -->
<g id="node6" class="node">
<title>ast.Name object at 0x7f0ed86411b0</title>
<path fill="#66cdaa" stroke="black" d="M219,-324C219,-324 189,-324 189,-324 183,-324 177,-318 177,-312 177,-312 177,-300 177,-300 177,-294 183,-288 189,-288 189,-288 219,-288 219,-288 225,-288 231,-294 231,-300 231,-300 231,-312 231,-312 231,-318 225,-324 219,-324"/>
<text text-anchor="middle" x="204" y="-302.3" font-family="Times,serif" font-size="14.00">Name</text>
</g>
<!-- ast.Assign object at 0x7f0ed8643220&#45;&gt;ast.Name object at 0x7f0ed86411b0 -->
<g id="edge5" class="edge">
<title>ast.Assign object at 0x7f0ed8643220&#45;&gt;ast.Name object at 0x7f0ed86411b0</title>
<path fill="none" stroke="black" d="M204,-359.7C204,-351.98 204,-342.71 204,-334.11"/>
<polygon fill="black" stroke="black" points="207.5,-334.1 204,-324.1 200.5,-334.1 207.5,-334.1"/>
</g>
<!-- ast.Call object at 0x7f0ed86432e0 -->
<g id="node8" class="node">
<title>ast.Call object at 0x7f0ed86432e0</title>
<path fill="#66cdaa" stroke="black" d="M111,-252C111,-252 81,-252 81,-252 75,-252 69,-246 69,-240 69,-240 69,-228 69,-228 69,-222 75,-216 81,-216 81,-216 111,-216 111,-216 117,-216 123,-222 123,-228 123,-228 123,-240 123,-240 123,-246 117,-252 111,-252"/>
<text text-anchor="middle" x="96" y="-230.3" font-family="Times,serif" font-size="14.00">Call</text>
</g>
<!-- ast.Assign object at 0x7f0ed8643220&#45;&gt;ast.Call object at 0x7f0ed86432e0 -->
<g id="edge7" class="edge">
<title>ast.Assign object at 0x7f0ed8643220&#45;&gt;ast.Call object at 0x7f0ed86432e0</title>
<path fill="none" stroke="black" d="M190.97,-359.87C172.16,-335.14 137.25,-289.24 115.4,-260.51"/>
<polygon fill="black" stroke="black" points="117.91,-258.03 109.07,-252.19 112.34,-262.27 117.91,-258.03"/>
</g>
<!-- ast.Store object at 0x7f0ee65edfc0 -->
<g id="node7" class="node">
<title>ast.Store object at 0x7f0ee65edfc0</title>
<path fill="#66cdaa" stroke="black" d="M223,-252C223,-252 193,-252 193,-252 187,-252 181,-246 181,-240 181,-240 181,-228 181,-228 181,-222 187,-216 193,-216 193,-216 223,-216 223,-216 229,-216 235,-222 235,-228 235,-228 235,-240 235,-240 235,-246 229,-252 223,-252"/>
<text text-anchor="middle" x="208" y="-230.3" font-family="Times,serif" font-size="14.00">Store</text>
</g>
<!-- ast.Name object at 0x7f0ed86411b0&#45;&gt;ast.Store object at 0x7f0ee65edfc0 -->
<g id="edge6" class="edge">
<title>ast.Name object at 0x7f0ed86411b0&#45;&gt;ast.Store object at 0x7f0ee65edfc0</title>
<path fill="none" stroke="black" d="M204.99,-287.7C205.43,-279.98 205.96,-270.71 206.45,-262.11"/>
<polygon fill="black" stroke="black" points="209.95,-262.29 207.02,-252.1 202.96,-261.89 209.95,-262.29"/>
</g>
<!-- ast.Name object at 0x7f0ed86406d0 -->
<g id="node9" class="node">
<title>ast.Name object at 0x7f0ed86406d0</title>
<path fill="#66cdaa" stroke="black" d="M186,-108C186,-108 156,-108 156,-108 150,-108 144,-102 144,-96 144,-96 144,-84 144,-84 144,-78 150,-72 156,-72 156,-72 186,-72 186,-72 192,-72 198,-78 198,-84 198,-84 198,-96 198,-96 198,-102 192,-108 186,-108"/>
<text text-anchor="middle" x="171" y="-86.3" font-family="Times,serif" font-size="14.00">Name</text>
</g>
<!-- ast.Call object at 0x7f0ed86432e0&#45;&gt;ast.Name object at 0x7f0ed86406d0 -->
<g id="edge8" class="edge">
<title>ast.Call object at 0x7f0ed86432e0&#45;&gt;ast.Name object at 0x7f0ed86406d0</title>
<path fill="none" stroke="black" d="M96.66,-215.87C98.03,-197.13 102.24,-166.73 115,-144 121.14,-133.06 130.3,-123.02 139.43,-114.7"/>
<polygon fill="black" stroke="black" points="141.76,-117.31 147.04,-108.12 137.18,-112.02 141.76,-117.31"/>
</g>
<!-- ast.Call object at 0x7f0ed86400a0 -->
<g id="node11" class="node">
<title>ast.Call object at 0x7f0ed86400a0</title>
<path fill="#66cdaa" stroke="black" d="M56,-180C56,-180 26,-180 26,-180 20,-180 14,-174 14,-168 14,-168 14,-156 14,-156 14,-150 20,-144 26,-144 26,-144 56,-144 56,-144 62,-144 68,-150 68,-156 68,-156 68,-168 68,-168 68,-174 62,-180 56,-180"/>
<text text-anchor="middle" x="41" y="-158.3" font-family="Times,serif" font-size="14.00">Call</text>
</g>
<!-- ast.Call object at 0x7f0ed86432e0&#45;&gt;ast.Call object at 0x7f0ed86400a0 -->
<g id="edge10" class="edge">
<title>ast.Call object at 0x7f0ed86432e0&#45;&gt;ast.Call object at 0x7f0ed86400a0</title>
<path fill="none" stroke="black" d="M82.4,-215.7C75.88,-207.39 67.93,-197.28 60.75,-188.14"/>
<polygon fill="black" stroke="black" points="63.37,-185.81 54.44,-180.1 57.87,-190.13 63.37,-185.81"/>
</g>
<!-- ast.Load object at 0x7f0ee65edf60 -->
<g id="node10" class="node">
<title>ast.Load object at 0x7f0ee65edf60</title>
<path fill="#66cdaa" stroke="black" d="M352,-36C352,-36 322,-36 322,-36 316,-36 310,-30 310,-24 310,-24 310,-12 310,-12 310,-6 316,0 322,0 322,0 352,0 352,0 358,0 364,-6 364,-12 364,-12 364,-24 364,-24 364,-30 358,-36 352,-36"/>
<text text-anchor="middle" x="337" y="-14.3" font-family="Times,serif" font-size="14.00">Load</text>
</g>
<!-- ast.Name object at 0x7f0ed86406d0&#45;&gt;ast.Load object at 0x7f0ee65edf60 -->
<g id="edge9" class="edge">
<title>ast.Name object at 0x7f0ed86406d0&#45;&gt;ast.Load object at 0x7f0ee65edf60</title>
<path fill="none" stroke="black" d="M198.05,-76.03C201.06,-74.65 204.09,-73.28 207,-72 238.26,-58.26 274.24,-43.68 300.41,-33.3"/>
<polygon fill="black" stroke="black" points="301.92,-36.47 309.93,-29.54 299.35,-29.96 301.92,-36.47"/>
</g>
<!-- ast.Name object at 0x7f0ed8641060 -->
<g id="node12" class="node">
<title>ast.Name object at 0x7f0ed8641060</title>
<path fill="#66cdaa" stroke="black" d="M42,-108C42,-108 12,-108 12,-108 6,-108 0,-102 0,-96 0,-96 0,-84 0,-84 0,-78 6,-72 12,-72 12,-72 42,-72 42,-72 48,-72 54,-78 54,-84 54,-84 54,-96 54,-96 54,-102 48,-108 42,-108"/>
<text text-anchor="middle" x="27" y="-86.3" font-family="Times,serif" font-size="14.00">Name</text>
</g>
<!-- ast.Call object at 0x7f0ed86400a0&#45;&gt;ast.Name object at 0x7f0ed8641060 -->
<g id="edge11" class="edge">
<title>ast.Call object at 0x7f0ed86400a0&#45;&gt;ast.Name object at 0x7f0ed8641060</title>
<path fill="none" stroke="black" d="M37.54,-143.7C36,-135.98 34.14,-126.71 32.42,-118.11"/>
<polygon fill="black" stroke="black" points="35.81,-117.22 30.42,-108.1 28.95,-118.6 35.81,-117.22"/>
</g>
<!-- ast.Name object at 0x7f0ed8640d00 -->
<g id="node13" class="node">
<title>ast.Name object at 0x7f0ed8640d00</title>
<path fill="#66cdaa" stroke="black" d="M114,-108C114,-108 84,-108 84,-108 78,-108 72,-102 72,-96 72,-96 72,-84 72,-84 72,-78 78,-72 84,-72 84,-72 114,-72 114,-72 120,-72 126,-78 126,-84 126,-84 126,-96 126,-96 126,-102 120,-108 114,-108"/>
<text text-anchor="middle" x="99" y="-86.3" font-family="Times,serif" font-size="14.00">Name</text>
</g>
<!-- ast.Call object at 0x7f0ed86400a0&#45;&gt;ast.Name object at 0x7f0ed8640d00 -->
<g id="edge13" class="edge">
<title>ast.Call object at 0x7f0ed86400a0&#45;&gt;ast.Name object at 0x7f0ed8640d00</title>
<path fill="none" stroke="black" d="M55.34,-143.7C62.29,-135.3 70.77,-125.07 78.4,-115.86"/>
<polygon fill="black" stroke="black" points="81.14,-118.04 84.83,-108.1 75.75,-113.57 81.14,-118.04"/>
</g>
<!-- ast.Name object at 0x7f0ed8641060&#45;&gt;ast.Load object at 0x7f0ee65edf60 -->
<g id="edge12" class="edge">
<title>ast.Name object at 0x7f0ed8641060&#45;&gt;ast.Load object at 0x7f0ee65edf60</title>
<path fill="none" stroke="black" d="M54.23,-75.28C57.15,-74.07 60.11,-72.95 63,-72 145.46,-45.03 246.62,-29.86 299.97,-23.18"/>
<polygon fill="black" stroke="black" points="300.49,-26.64 309.99,-21.95 299.64,-19.69 300.49,-26.64"/>
</g>
<!-- ast.Name object at 0x7f0ed8640d00&#45;&gt;ast.Load object at 0x7f0ee65edf60 -->
<g id="edge14" class="edge">
<title>ast.Name object at 0x7f0ed8640d00&#45;&gt;ast.Load object at 0x7f0ee65edf60</title>
<path fill="none" stroke="black" d="M126.3,-75.47C129.2,-74.22 132.14,-73.04 135,-72 191.22,-51.55 258.9,-35.44 299.9,-26.57"/>
<polygon fill="black" stroke="black" points="300.67,-29.99 309.72,-24.48 299.21,-23.14 300.67,-29.99"/>
</g>
<!-- ast.Name object at 0x7f0ed86424d0 -->
<g id="node15" class="node">
<title>ast.Name object at 0x7f0ed86424d0</title>
<path fill="#66cdaa" stroke="black" d="M291,-324C291,-324 261,-324 261,-324 255,-324 249,-318 249,-312 249,-312 249,-300 249,-300 249,-294 255,-288 261,-288 261,-288 291,-288 291,-288 297,-288 303,-294 303,-300 303,-300 303,-312 303,-312 303,-318 297,-324 291,-324"/>
<text text-anchor="middle" x="276" y="-302.3" font-family="Times,serif" font-size="14.00">Name</text>
</g>
<!-- ast.Assign object at 0x7f0ed8642c50&#45;&gt;ast.Name object at 0x7f0ed86424d0 -->
<g id="edge16" class="edge">
<title>ast.Assign object at 0x7f0ed8642c50&#45;&gt;ast.Name object at 0x7f0ed86424d0</title>
<path fill="none" stroke="black" d="M276,-359.7C276,-351.98 276,-342.71 276,-334.11"/>
<polygon fill="black" stroke="black" points="279.5,-334.1 276,-324.1 272.5,-334.1 279.5,-334.1"/>
</g>
<!-- ast.Subscript object at 0x7f0ed86409d0 -->
<g id="node16" class="node">
<title>ast.Subscript object at 0x7f0ed86409d0</title>
<path fill="#66cdaa" stroke="black" d="M377,-324C377,-324 333,-324 333,-324 327,-324 321,-318 321,-312 321,-312 321,-300 321,-300 321,-294 327,-288 333,-288 333,-288 377,-288 377,-288 383,-288 389,-294 389,-300 389,-300 389,-312 389,-312 389,-318 383,-324 377,-324"/>
<text text-anchor="middle" x="355" y="-302.3" font-family="Times,serif" font-size="14.00">Subscript</text>
</g>
<!-- ast.Assign object at 0x7f0ed8642c50&#45;&gt;ast.Subscript object at 0x7f0ed86409d0 -->
<g id="edge18" class="edge">
<title>ast.Assign object at 0x7f0ed8642c50&#45;&gt;ast.Subscript object at 0x7f0ed86409d0</title>
<path fill="none" stroke="black" d="M295.53,-359.7C305.38,-350.97 317.49,-340.24 328.2,-330.75"/>
<polygon fill="black" stroke="black" points="330.53,-333.36 335.7,-324.1 325.89,-328.12 330.53,-333.36"/>
</g>
<!-- ast.Name object at 0x7f0ed86424d0&#45;&gt;ast.Store object at 0x7f0ee65edfc0 -->
<g id="edge17" class="edge">
<title>ast.Name object at 0x7f0ed86424d0&#45;&gt;ast.Store object at 0x7f0ee65edfc0</title>
<path fill="none" stroke="black" d="M259.19,-287.7C250.87,-279.14 240.69,-268.66 231.61,-259.3"/>
<polygon fill="black" stroke="black" points="234.09,-256.84 224.62,-252.1 229.07,-261.72 234.09,-256.84"/>
</g>
<!-- ast.Subscript object at 0x7f0ed86409d0&#45;&gt;ast.Load object at 0x7f0ee65edf60 -->
<g id="edge31" class="edge">
<title>ast.Subscript object at 0x7f0ed86409d0&#45;&gt;ast.Load object at 0x7f0ee65edf60</title>
<path fill="none" stroke="black" d="M376.12,-287.78C422.36,-247.97 524.43,-147.24 473,-72 451,-39.81 406.32,-27.17 374.17,-22.21"/>
<polygon fill="black" stroke="black" points="374.6,-18.73 364.22,-20.85 373.65,-25.67 374.6,-18.73"/>
</g>
<!-- ast.Call object at 0x7f0ed86412d0 -->
<g id="node17" class="node">
<title>ast.Call object at 0x7f0ed86412d0</title>
<path fill="#66cdaa" stroke="black" d="M370,-252C370,-252 340,-252 340,-252 334,-252 328,-246 328,-240 328,-240 328,-228 328,-228 328,-222 334,-216 340,-216 340,-216 370,-216 370,-216 376,-216 382,-222 382,-228 382,-228 382,-240 382,-240 382,-246 376,-252 370,-252"/>
<text text-anchor="middle" x="355" y="-230.3" font-family="Times,serif" font-size="14.00">Call</text>
</g>
<!-- ast.Subscript object at 0x7f0ed86409d0&#45;&gt;ast.Call object at 0x7f0ed86412d0 -->
<g id="edge19" class="edge">
<title>ast.Subscript object at 0x7f0ed86409d0&#45;&gt;ast.Call object at 0x7f0ed86412d0</title>
<path fill="none" stroke="black" d="M355,-287.7C355,-279.98 355,-270.71 355,-262.11"/>
<polygon fill="black" stroke="black" points="358.5,-262.1 355,-252.1 351.5,-262.1 358.5,-262.1"/>
</g>
<!-- ast.Slice object at 0x7f0ed8640220 -->
<g id="node24" class="node">
<title>ast.Slice object at 0x7f0ed8640220</title>
<path fill="#66cdaa" stroke="black" d="M297,-252C297,-252 267,-252 267,-252 261,-252 255,-246 255,-240 255,-240 255,-228 255,-228 255,-222 261,-216 267,-216 267,-216 297,-216 297,-216 303,-216 309,-222 309,-228 309,-228 309,-240 309,-240 309,-246 303,-252 297,-252"/>
<text text-anchor="middle" x="282" y="-230.3" font-family="Times,serif" font-size="14.00">Slice</text>
</g>
<!-- ast.Subscript object at 0x7f0ed86409d0&#45;&gt;ast.Slice object at 0x7f0ed8640220 -->
<g id="edge29" class="edge">
<title>ast.Subscript object at 0x7f0ed86409d0&#45;&gt;ast.Slice object at 0x7f0ed8640220</title>
<path fill="none" stroke="black" d="M336.96,-287.7C327.94,-279.05 316.88,-268.45 307.06,-259.03"/>
<polygon fill="black" stroke="black" points="309.48,-256.5 299.84,-252.1 304.63,-261.55 309.48,-256.5"/>
</g>
<!-- ast.Name object at 0x7f0ed8642170 -->
<g id="node18" class="node">
<title>ast.Name object at 0x7f0ed8642170</title>
<path fill="#66cdaa" stroke="black" d="M452,-108C452,-108 422,-108 422,-108 416,-108 410,-102 410,-96 410,-96 410,-84 410,-84 410,-78 416,-72 422,-72 422,-72 452,-72 452,-72 458,-72 464,-78 464,-84 464,-84 464,-96 464,-96 464,-102 458,-108 452,-108"/>
<text text-anchor="middle" x="437" y="-86.3" font-family="Times,serif" font-size="14.00">Name</text>
</g>
<!-- ast.Call object at 0x7f0ed86412d0&#45;&gt;ast.Name object at 0x7f0ed8642170 -->
<g id="edge20" class="edge">
<title>ast.Call object at 0x7f0ed86412d0&#45;&gt;ast.Name object at 0x7f0ed8642170</title>
<path fill="none" stroke="black" d="M382.06,-222.98C400.54,-214.56 423.65,-200.57 435,-180 445.34,-161.25 445.08,-136.72 442.65,-118.16"/>
<polygon fill="black" stroke="black" points="446.11,-117.61 441.09,-108.28 439.2,-118.7 446.11,-117.61"/>
</g>
<!-- ast.Name object at 0x7f0ed86407f0 -->
<g id="node19" class="node">
<title>ast.Name object at 0x7f0ed86407f0</title>
<path fill="#66cdaa" stroke="black" d="M332,-180C332,-180 302,-180 302,-180 296,-180 290,-174 290,-168 290,-168 290,-156 290,-156 290,-150 296,-144 302,-144 302,-144 332,-144 332,-144 338,-144 344,-150 344,-156 344,-156 344,-168 344,-168 344,-174 338,-180 332,-180"/>
<text text-anchor="middle" x="317" y="-158.3" font-family="Times,serif" font-size="14.00">Name</text>
</g>
<!-- ast.Call object at 0x7f0ed86412d0&#45;&gt;ast.Name object at 0x7f0ed86407f0 -->
<g id="edge22" class="edge">
<title>ast.Call object at 0x7f0ed86412d0&#45;&gt;ast.Name object at 0x7f0ed86407f0</title>
<path fill="none" stroke="black" d="M345.61,-215.7C341.24,-207.64 335.94,-197.89 331.1,-188.98"/>
<polygon fill="black" stroke="black" points="334.13,-187.22 326.29,-180.1 327.98,-190.56 334.13,-187.22"/>
</g>
<!-- ast.keyword object at 0x7f0ed8640790 -->
<g id="node20" class="node">
<title>ast.keyword object at 0x7f0ed8640790</title>
<path fill="#66cdaa" stroke="black" d="M414,-180C414,-180 374,-180 374,-180 368,-180 362,-174 362,-168 362,-168 362,-156 362,-156 362,-150 368,-144 374,-144 374,-144 414,-144 414,-144 420,-144 426,-150 426,-156 426,-156 426,-168 426,-168 426,-174 420,-180 414,-180"/>
<text text-anchor="middle" x="394" y="-158.3" font-family="Times,serif" font-size="14.00">keyword</text>
</g>
<!-- ast.Call object at 0x7f0ed86412d0&#45;&gt;ast.keyword object at 0x7f0ed8640790 -->
<g id="edge24" class="edge">
<title>ast.Call object at 0x7f0ed86412d0&#45;&gt;ast.keyword object at 0x7f0ed8640790</title>
<path fill="none" stroke="black" d="M364.64,-215.7C369.13,-207.64 374.56,-197.89 379.52,-188.98"/>
<polygon fill="black" stroke="black" points="382.66,-190.54 384.47,-180.1 376.55,-187.14 382.66,-190.54"/>
</g>
<!-- ast.keyword object at 0x7f0ed8642020 -->
<g id="node22" class="node">
<title>ast.keyword object at 0x7f0ed8642020</title>
<path fill="#66cdaa" stroke="black" d="M260,-180C260,-180 220,-180 220,-180 214,-180 208,-174 208,-168 208,-168 208,-156 208,-156 208,-150 214,-144 220,-144 220,-144 260,-144 260,-144 266,-144 272,-150 272,-156 272,-156 272,-168 272,-168 272,-174 266,-180 260,-180"/>
<text text-anchor="middle" x="240" y="-158.3" font-family="Times,serif" font-size="14.00">keyword</text>
</g>
<!-- ast.Call object at 0x7f0ed86412d0&#45;&gt;ast.keyword object at 0x7f0ed8642020 -->
<g id="edge27" class="edge">
<title>ast.Call object at 0x7f0ed86412d0&#45;&gt;ast.keyword object at 0x7f0ed8642020</title>
<path fill="none" stroke="black" d="M327.75,-216.41C312.62,-207.2 293.58,-195.61 277.11,-185.59"/>
<polygon fill="black" stroke="black" points="278.62,-182.41 268.26,-180.2 274.98,-188.39 278.62,-182.41"/>
</g>
<!-- ast.Name object at 0x7f0ed8642170&#45;&gt;ast.Load object at 0x7f0ee65edf60 -->
<g id="edge21" class="edge">
<title>ast.Name object at 0x7f0ed8642170&#45;&gt;ast.Load object at 0x7f0ee65edf60</title>
<path fill="none" stroke="black" d="M412.54,-71.88C399.7,-62.89 383.8,-51.76 369.91,-42.03"/>
<polygon fill="black" stroke="black" points="371.76,-39.06 361.56,-36.19 367.74,-44.79 371.76,-39.06"/>
</g>
<!-- ast.Name object at 0x7f0ed86407f0&#45;&gt;ast.Load object at 0x7f0ee65edf60 -->
<g id="edge23" class="edge">
<title>ast.Name object at 0x7f0ed86407f0&#45;&gt;ast.Load object at 0x7f0ee65edf60</title>
<path fill="none" stroke="black" d="M319.22,-143.93C321.57,-126 325.43,-97 329,-72 330.2,-63.58 331.57,-54.42 332.82,-46.11"/>
<polygon fill="black" stroke="black" points="336.29,-46.59 334.34,-36.18 329.37,-45.53 336.29,-46.59"/>
</g>
<!-- ast.Name object at 0x7f0ed8642b90 -->
<g id="node21" class="node">
<title>ast.Name object at 0x7f0ed8642b90</title>
<path fill="#66cdaa" stroke="black" d="M380,-108C380,-108 350,-108 350,-108 344,-108 338,-102 338,-96 338,-96 338,-84 338,-84 338,-78 344,-72 350,-72 350,-72 380,-72 380,-72 386,-72 392,-78 392,-84 392,-84 392,-96 392,-96 392,-102 386,-108 380,-108"/>
<text text-anchor="middle" x="365" y="-86.3" font-family="Times,serif" font-size="14.00">Name</text>
</g>
<!-- ast.keyword object at 0x7f0ed8640790&#45;&gt;ast.Name object at 0x7f0ed8642b90 -->
<g id="edge25" class="edge">
<title>ast.keyword object at 0x7f0ed8640790&#45;&gt;ast.Name object at 0x7f0ed8642b90</title>
<path fill="none" stroke="black" d="M386.83,-143.7C383.57,-135.81 379.63,-126.3 376,-117.55"/>
<polygon fill="black" stroke="black" points="379.15,-116 372.09,-108.1 372.68,-118.68 379.15,-116"/>
</g>
<!-- ast.Name object at 0x7f0ed8642b90&#45;&gt;ast.Load object at 0x7f0ee65edf60 -->
<g id="edge26" class="edge">
<title>ast.Name object at 0x7f0ed8642b90&#45;&gt;ast.Load object at 0x7f0ee65edf60</title>
<path fill="none" stroke="black" d="M358.08,-71.7C354.93,-63.81 351.12,-54.3 347.62,-45.55"/>
<polygon fill="black" stroke="black" points="350.81,-44.09 343.84,-36.1 344.31,-46.69 350.81,-44.09"/>
</g>
<!-- ast.Constant object at 0x7f0ed8640280 -->
<g id="node23" class="node">
<title>ast.Constant object at 0x7f0ed8640280</title>
<path fill="#66cdaa" stroke="black" d="M269.5,-108C269.5,-108 228.5,-108 228.5,-108 222.5,-108 216.5,-102 216.5,-96 216.5,-96 216.5,-84 216.5,-84 216.5,-78 222.5,-72 228.5,-72 228.5,-72 269.5,-72 269.5,-72 275.5,-72 281.5,-78 281.5,-84 281.5,-84 281.5,-96 281.5,-96 281.5,-102 275.5,-108 269.5,-108"/>
<text text-anchor="middle" x="249" y="-86.3" font-family="Times,serif" font-size="14.00">Constant</text>
</g>
<!-- ast.keyword object at 0x7f0ed8642020&#45;&gt;ast.Constant object at 0x7f0ed8640280 -->
<g id="edge28" class="edge">
<title>ast.keyword object at 0x7f0ed8642020&#45;&gt;ast.Constant object at 0x7f0ed8640280</title>
<path fill="none" stroke="black" d="M242.22,-143.7C243.22,-135.98 244.41,-126.71 245.51,-118.11"/>
<polygon fill="black" stroke="black" points="249,-118.47 246.8,-108.1 242.05,-117.58 249,-118.47"/>
</g>
<!-- ast.Constant object at 0x7f0ed8feb970 -->
<g id="node25" class="node">
<title>ast.Constant object at 0x7f0ed8feb970</title>
<path fill="#66cdaa" stroke="black" d="M177.5,-180C177.5,-180 136.5,-180 136.5,-180 130.5,-180 124.5,-174 124.5,-168 124.5,-168 124.5,-156 124.5,-156 124.5,-150 130.5,-144 136.5,-144 136.5,-144 177.5,-144 177.5,-144 183.5,-144 189.5,-150 189.5,-156 189.5,-156 189.5,-168 189.5,-168 189.5,-174 183.5,-180 177.5,-180"/>
<text text-anchor="middle" x="157" y="-158.3" font-family="Times,serif" font-size="14.00">Constant</text>
</g>
<!-- ast.Slice object at 0x7f0ed8640220&#45;&gt;ast.Constant object at 0x7f0ed8feb970 -->
<g id="edge30" class="edge">
<title>ast.Slice object at 0x7f0ed8640220&#45;&gt;ast.Constant object at 0x7f0ed8feb970</title>
<path fill="none" stroke="black" d="M254.88,-217.81C237.77,-208.23 215.39,-195.7 196.34,-185.03"/>
<polygon fill="black" stroke="black" points="198.02,-181.96 187.58,-180.13 194.6,-188.07 198.02,-181.96"/>
</g>
<!-- ast.Name object at 0x7f0ed8fead70 -->
<g id="node27" class="node">
<title>ast.Name object at 0x7f0ed8fead70</title>
<path fill="#66cdaa" stroke="black" d="M562,-252C562,-252 532,-252 532,-252 526,-252 520,-246 520,-240 520,-240 520,-228 520,-228 520,-222 526,-216 532,-216 532,-216 562,-216 562,-216 568,-216 574,-222 574,-228 574,-228 574,-240 574,-240 574,-246 568,-252 562,-252"/>
<text text-anchor="middle" x="547" y="-230.3" font-family="Times,serif" font-size="14.00">Name</text>
</g>
<!-- ast.Return object at 0x7f0ed8fe8c40&#45;&gt;ast.Name object at 0x7f0ed8fead70 -->
<g id="edge33" class="edge">
<title>ast.Return object at 0x7f0ed8fe8c40&#45;&gt;ast.Name object at 0x7f0ed8fead70</title>
<path fill="none" stroke="black" d="M401.9,-359.87C431.14,-334.71 485.82,-287.65 519.06,-259.04"/>
<polygon fill="black" stroke="black" points="521.73,-261.37 527.03,-252.19 517.16,-256.06 521.73,-261.37"/>
</g>
<!-- ast.Name object at 0x7f0ed8fead70&#45;&gt;ast.Load object at 0x7f0ee65edf60 -->
<g id="edge34" class="edge">
<title>ast.Name object at 0x7f0ed8fead70&#45;&gt;ast.Load object at 0x7f0ee65edf60</title>
<path fill="none" stroke="black" d="M547.73,-215.89C548.14,-183.4 544.28,-112.42 506,-72 471.6,-35.67 412.66,-24.11 374.27,-20.51"/>
<polygon fill="black" stroke="black" points="374.27,-17 364.03,-19.69 373.72,-23.98 374.27,-17"/>
</g>
</g>
</svg>
