<?xml version="1.0" encoding="UTF-8" standalone="no"?>
<!DOCTYPE svg PUBLIC "-//W3C//DTD SVG 1.1//EN"
 "http://www.w3.org/Graphics/SVG/1.1/DTD/svg11.dtd">
<!-- Generated by graphviz version 2.43.0 (0)
 -->
<!-- Title: %3 Pages: 1 -->
<svg width="1767pt" height="692pt"
 viewBox="0.00 0.00 1766.50 692.00" xmlns="http://www.w3.org/2000/svg" xmlns:xlink="http://www.w3.org/1999/xlink">
<g id="graph0" class="graph" transform="scale(1 1) rotate(0) translate(4 688)">
<title>%3</title>
<polygon fill="white" stroke="transparent" points="-4,4 -4,-688 1762.5,-688 1762.5,4 -4,4"/>
<!-- ast.Module object at 0x7f93808b43a0 -->
<g id="node1" class="node">
<title>ast.Module object at 0x7f93808b43a0</title>
<path fill="#66cdaa" stroke="black" d="M391,-684C391,-684 356,-684 356,-684 350,-684 344,-678 344,-672 344,-672 344,-660 344,-660 344,-654 350,-648 356,-648 356,-648 391,-648 391,-648 397,-648 403,-654 403,-660 403,-660 403,-672 403,-672 403,-678 397,-684 391,-684"/>
<text text-anchor="middle" x="373.5" y="-662.3" font-family="Times,serif" font-size="14.00">Module</text>
</g>
<!-- ast.FunctionDef object at 0x7f93808b68f0 -->
<g id="node2" class="node">
<title>ast.FunctionDef object at 0x7f93808b68f0</title>
<path fill="#66cdaa" stroke="black" d="M404,-612C404,-612 343,-612 343,-612 337,-612 331,-606 331,-600 331,-600 331,-588 331,-588 331,-582 337,-576 343,-576 343,-576 404,-576 404,-576 410,-576 416,-582 416,-588 416,-588 416,-600 416,-600 416,-606 410,-612 404,-612"/>
<text text-anchor="middle" x="373.5" y="-590.3" font-family="Times,serif" font-size="14.00">FunctionDef</text>
</g>
<!-- ast.Module object at 0x7f93808b43a0&#45;&gt;ast.FunctionDef object at 0x7f93808b68f0 -->
<g id="edge1" class="edge">
<title>ast.Module object at 0x7f93808b43a0&#45;&gt;ast.FunctionDef object at 0x7f93808b68f0</title>
<path fill="none" stroke="black" d="M373.5,-647.7C373.5,-639.98 373.5,-630.71 373.5,-622.11"/>
<polygon fill="black" stroke="black" points="377,-622.1 373.5,-612.1 370,-622.1 377,-622.1"/>
</g>
<!-- ast.arguments object at 0x7f93808b7430 -->
<g id="node3" class="node">
<title>ast.arguments object at 0x7f93808b7430</title>
<path fill="#66cdaa" stroke="black" d="M250.5,-540C250.5,-540 200.5,-540 200.5,-540 194.5,-540 188.5,-534 188.5,-528 188.5,-528 188.5,-516 188.5,-516 188.5,-510 194.5,-504 200.5,-504 200.5,-504 250.5,-504 250.5,-504 256.5,-504 262.5,-510 262.5,-516 262.5,-516 262.5,-528 262.5,-528 262.5,-534 256.5,-540 250.5,-540"/>
<text text-anchor="middle" x="225.5" y="-518.3" font-family="Times,serif" font-size="14.00">arguments</text>
</g>
<!-- ast.FunctionDef object at 0x7f93808b68f0&#45;&gt;ast.arguments object at 0x7f93808b7430 -->
<g id="edge2" class="edge">
<title>ast.FunctionDef object at 0x7f93808b68f0&#45;&gt;ast.arguments object at 0x7f93808b7430</title>
<path fill="none" stroke="black" d="M337.3,-575.88C317.24,-566.39 292.13,-554.51 270.79,-544.42"/>
<polygon fill="black" stroke="black" points="272.12,-541.18 261.59,-540.07 269.13,-547.51 272.12,-541.18"/>
</g>
<!-- ast.Assign object at 0x7f93808b72b0 -->
<g id="node5" class="node">
<title>ast.Assign object at 0x7f93808b72b0</title>
<path fill="#66cdaa" stroke="black" d="M350.5,-540C350.5,-540 320.5,-540 320.5,-540 314.5,-540 308.5,-534 308.5,-528 308.5,-528 308.5,-516 308.5,-516 308.5,-510 314.5,-504 320.5,-504 320.5,-504 350.5,-504 350.5,-504 356.5,-504 362.5,-510 362.5,-516 362.5,-516 362.5,-528 362.5,-528 362.5,-534 356.5,-540 350.5,-540"/>
<text text-anchor="middle" x="335.5" y="-518.3" font-family="Times,serif" font-size="14.00">Assign</text>
</g>
<!-- ast.FunctionDef object at 0x7f93808b68f0&#45;&gt;ast.Assign object at 0x7f93808b72b0 -->
<g id="edge4" class="edge">
<title>ast.FunctionDef object at 0x7f93808b68f0&#45;&gt;ast.Assign object at 0x7f93808b72b0</title>
<path fill="none" stroke="black" d="M364.11,-575.7C359.74,-567.64 354.44,-557.89 349.6,-548.98"/>
<polygon fill="black" stroke="black" points="352.63,-547.22 344.79,-540.1 346.48,-550.56 352.63,-547.22"/>
</g>
<!-- ast.For object at 0x7f93808b4730 -->
<g id="node9" class="node">
<title>ast.For object at 0x7f93808b4730</title>
<path fill="#66cdaa" stroke="black" d="M520.5,-540C520.5,-540 490.5,-540 490.5,-540 484.5,-540 478.5,-534 478.5,-528 478.5,-528 478.5,-516 478.5,-516 478.5,-510 484.5,-504 490.5,-504 490.5,-504 520.5,-504 520.5,-504 526.5,-504 532.5,-510 532.5,-516 532.5,-516 532.5,-528 532.5,-528 532.5,-534 526.5,-540 520.5,-540"/>
<text text-anchor="middle" x="505.5" y="-518.3" font-family="Times,serif" font-size="14.00">For</text>
</g>
<!-- ast.FunctionDef object at 0x7f93808b68f0&#45;&gt;ast.For object at 0x7f93808b4730 -->
<g id="edge8" class="edge">
<title>ast.FunctionDef object at 0x7f93808b68f0&#45;&gt;ast.For object at 0x7f93808b4730</title>
<path fill="none" stroke="black" d="M405.79,-575.88C425.03,-565.67 449.49,-552.7 469.38,-542.16"/>
<polygon fill="black" stroke="black" points="471.24,-545.13 478.44,-537.35 467.96,-538.94 471.24,-545.13"/>
</g>
<!-- ast.Return object at 0x7f93914bfd90 -->
<g id="node76" class="node">
<title>ast.Return object at 0x7f93914bfd90</title>
<path fill="#66cdaa" stroke="black" d="M893.5,-540C893.5,-540 863.5,-540 863.5,-540 857.5,-540 851.5,-534 851.5,-528 851.5,-528 851.5,-516 851.5,-516 851.5,-510 857.5,-504 863.5,-504 863.5,-504 893.5,-504 893.5,-504 899.5,-504 905.5,-510 905.5,-516 905.5,-516 905.5,-528 905.5,-528 905.5,-534 899.5,-540 893.5,-540"/>
<text text-anchor="middle" x="878.5" y="-518.3" font-family="Times,serif" font-size="14.00">Return</text>
</g>
<!-- ast.FunctionDef object at 0x7f93808b68f0&#45;&gt;ast.Return object at 0x7f93914bfd90 -->
<g id="edge105" class="edge">
<title>ast.FunctionDef object at 0x7f93808b68f0&#45;&gt;ast.Return object at 0x7f93914bfd90</title>
<path fill="none" stroke="black" d="M416.12,-587.09C513.32,-573.62 750.01,-540.81 841.53,-528.12"/>
<polygon fill="black" stroke="black" points="842.02,-531.59 851.45,-526.75 841.06,-524.66 842.02,-531.59"/>
</g>
<!-- ast.arg object at 0x7f93808b7be0 -->
<g id="node4" class="node">
<title>ast.arg object at 0x7f93808b7be0</title>
<path fill="#66cdaa" stroke="black" d="M211.5,-468C211.5,-468 181.5,-468 181.5,-468 175.5,-468 169.5,-462 169.5,-456 169.5,-456 169.5,-444 169.5,-444 169.5,-438 175.5,-432 181.5,-432 181.5,-432 211.5,-432 211.5,-432 217.5,-432 223.5,-438 223.5,-444 223.5,-444 223.5,-456 223.5,-456 223.5,-462 217.5,-468 211.5,-468"/>
<text text-anchor="middle" x="196.5" y="-446.3" font-family="Times,serif" font-size="14.00">arg</text>
</g>
<!-- ast.arguments object at 0x7f93808b7430&#45;&gt;ast.arg object at 0x7f93808b7be0 -->
<g id="edge3" class="edge">
<title>ast.arguments object at 0x7f93808b7430&#45;&gt;ast.arg object at 0x7f93808b7be0</title>
<path fill="none" stroke="black" d="M218.33,-503.7C215.07,-495.81 211.13,-486.3 207.5,-477.55"/>
<polygon fill="black" stroke="black" points="210.65,-476 203.59,-468.1 204.18,-478.68 210.65,-476"/>
</g>
<!-- ast.Name object at 0x7f93808b6ec0 -->
<g id="node6" class="node">
<title>ast.Name object at 0x7f93808b6ec0</title>
<path fill="#66cdaa" stroke="black" d="M378.5,-396C378.5,-396 348.5,-396 348.5,-396 342.5,-396 336.5,-390 336.5,-384 336.5,-384 336.5,-372 336.5,-372 336.5,-366 342.5,-360 348.5,-360 348.5,-360 378.5,-360 378.5,-360 384.5,-360 390.5,-366 390.5,-372 390.5,-372 390.5,-384 390.5,-384 390.5,-390 384.5,-396 378.5,-396"/>
<text text-anchor="middle" x="363.5" y="-374.3" font-family="Times,serif" font-size="14.00">Name</text>
</g>
<!-- ast.Assign object at 0x7f93808b72b0&#45;&gt;ast.Name object at 0x7f93808b6ec0 -->
<g id="edge5" class="edge">
<title>ast.Assign object at 0x7f93808b72b0&#45;&gt;ast.Name object at 0x7f93808b6ec0</title>
<path fill="none" stroke="black" d="M338.88,-503.87C343.67,-479.56 352.49,-434.82 358.17,-406.01"/>
<polygon fill="black" stroke="black" points="361.61,-406.68 360.11,-396.19 354.74,-405.32 361.61,-406.68"/>
</g>
<!-- ast.Constant object at 0x7f93808b7730 -->
<g id="node8" class="node">
<title>ast.Constant object at 0x7f93808b7730</title>
<path fill="#66cdaa" stroke="black" d="M295,-468C295,-468 254,-468 254,-468 248,-468 242,-462 242,-456 242,-456 242,-444 242,-444 242,-438 248,-432 254,-432 254,-432 295,-432 295,-432 301,-432 307,-438 307,-444 307,-444 307,-456 307,-456 307,-462 301,-468 295,-468"/>
<text text-anchor="middle" x="274.5" y="-446.3" font-family="Times,serif" font-size="14.00">Constant</text>
</g>
<!-- ast.Assign object at 0x7f93808b72b0&#45;&gt;ast.Constant object at 0x7f93808b7730 -->
<g id="edge7" class="edge">
<title>ast.Assign object at 0x7f93808b72b0&#45;&gt;ast.Constant object at 0x7f93808b7730</title>
<path fill="none" stroke="black" d="M320.42,-503.7C313.11,-495.3 304.19,-485.07 296.16,-475.86"/>
<polygon fill="black" stroke="black" points="298.61,-473.34 289.41,-468.1 293.34,-477.94 298.61,-473.34"/>
</g>
<!-- ast.Store object at 0x7f93d26f1fc0 -->
<g id="node7" class="node">
<title>ast.Store object at 0x7f93d26f1fc0</title>
<path fill="#66cdaa" stroke="black" d="M574.5,-180C574.5,-180 544.5,-180 544.5,-180 538.5,-180 532.5,-174 532.5,-168 532.5,-168 532.5,-156 532.5,-156 532.5,-150 538.5,-144 544.5,-144 544.5,-144 574.5,-144 574.5,-144 580.5,-144 586.5,-150 586.5,-156 586.5,-156 586.5,-168 586.5,-168 586.5,-174 580.5,-180 574.5,-180"/>
<text text-anchor="middle" x="559.5" y="-158.3" font-family="Times,serif" font-size="14.00">Store</text>
</g>
<!-- ast.Name object at 0x7f93808b6ec0&#45;&gt;ast.Store object at 0x7f93d26f1fc0 -->
<g id="edge6" class="edge">
<title>ast.Name object at 0x7f93808b6ec0&#45;&gt;ast.Store object at 0x7f93d26f1fc0</title>
<path fill="none" stroke="black" d="M364.64,-359.89C367.81,-326.76 379.67,-253.79 423.5,-216 458.96,-185.43 479.19,-197.79 522.5,-180 522.6,-179.96 522.7,-179.92 522.79,-179.88"/>
<polygon fill="black" stroke="black" points="524.32,-183.03 532.13,-175.88 521.56,-176.6 524.32,-183.03"/>
</g>
<!-- ast.Name object at 0x7f93808b61d0 -->
<g id="node10" class="node">
<title>ast.Name object at 0x7f93808b61d0</title>
<path fill="#66cdaa" stroke="black" d="M674.5,-468C674.5,-468 644.5,-468 644.5,-468 638.5,-468 632.5,-462 632.5,-456 632.5,-456 632.5,-444 632.5,-444 632.5,-438 638.5,-432 644.5,-432 644.5,-432 674.5,-432 674.5,-432 680.5,-432 686.5,-438 686.5,-444 686.5,-444 686.5,-456 686.5,-456 686.5,-462 680.5,-468 674.5,-468"/>
<text text-anchor="middle" x="659.5" y="-446.3" font-family="Times,serif" font-size="14.00">Name</text>
</g>
<!-- ast.For object at 0x7f93808b4730&#45;&gt;ast.Name object at 0x7f93808b61d0 -->
<g id="edge9" class="edge">
<title>ast.For object at 0x7f93808b4730&#45;&gt;ast.Name object at 0x7f93808b61d0</title>
<path fill="none" stroke="black" d="M532.68,-508.65C557.78,-497.24 595.27,-480.2 622.98,-467.6"/>
<polygon fill="black" stroke="black" points="624.68,-470.67 632.34,-463.35 621.78,-464.3 624.68,-470.67"/>
</g>
<!-- ast.Call object at 0x7f93808b4520 -->
<g id="node11" class="node">
<title>ast.Call object at 0x7f93808b4520</title>
<path fill="#66cdaa" stroke="black" d="M1624.5,-252C1624.5,-252 1594.5,-252 1594.5,-252 1588.5,-252 1582.5,-246 1582.5,-240 1582.5,-240 1582.5,-228 1582.5,-228 1582.5,-222 1588.5,-216 1594.5,-216 1594.5,-216 1624.5,-216 1624.5,-216 1630.5,-216 1636.5,-222 1636.5,-228 1636.5,-228 1636.5,-240 1636.5,-240 1636.5,-246 1630.5,-252 1624.5,-252"/>
<text text-anchor="middle" x="1609.5" y="-230.3" font-family="Times,serif" font-size="14.00">Call</text>
</g>
<!-- ast.For object at 0x7f93808b4730&#45;&gt;ast.Call object at 0x7f93808b4520 -->
<g id="edge11" class="edge">
<title>ast.For object at 0x7f93808b4730&#45;&gt;ast.Call object at 0x7f93808b4520</title>
<path fill="none" stroke="black" d="M532.52,-514C681.26,-475.47 1399.89,-289.3 1572.28,-244.64"/>
<polygon fill="black" stroke="black" points="1573.34,-247.98 1582.15,-242.09 1571.59,-241.21 1573.34,-247.98"/>
</g>
<!-- ast.Assign object at 0x7f93808b6f20 -->
<g id="node17" class="node">
<title>ast.Assign object at 0x7f93808b6f20</title>
<path fill="#66cdaa" stroke="black" d="M450.5,-396C450.5,-396 420.5,-396 420.5,-396 414.5,-396 408.5,-390 408.5,-384 408.5,-384 408.5,-372 408.5,-372 408.5,-366 414.5,-360 420.5,-360 420.5,-360 450.5,-360 450.5,-360 456.5,-360 462.5,-366 462.5,-372 462.5,-372 462.5,-384 462.5,-384 462.5,-390 456.5,-396 450.5,-396"/>
<text text-anchor="middle" x="435.5" y="-374.3" font-family="Times,serif" font-size="14.00">Assign</text>
</g>
<!-- ast.For object at 0x7f93808b4730&#45;&gt;ast.Assign object at 0x7f93808b6f20 -->
<g id="edge19" class="edge">
<title>ast.For object at 0x7f93808b4730&#45;&gt;ast.Assign object at 0x7f93808b6f20</title>
<path fill="none" stroke="black" d="M497.06,-503.87C484.97,-479.35 462.63,-434.03 448.44,-405.26"/>
<polygon fill="black" stroke="black" points="451.53,-403.61 443.97,-396.19 445.26,-406.71 451.53,-403.61"/>
</g>
<!-- ast.If object at 0x7f93808b71c0 -->
<g id="node24" class="node">
<title>ast.If object at 0x7f93808b71c0</title>
<path fill="#66cdaa" stroke="black" d="M172.5,-324C172.5,-324 142.5,-324 142.5,-324 136.5,-324 130.5,-318 130.5,-312 130.5,-312 130.5,-300 130.5,-300 130.5,-294 136.5,-288 142.5,-288 142.5,-288 172.5,-288 172.5,-288 178.5,-288 184.5,-294 184.5,-300 184.5,-300 184.5,-312 184.5,-312 184.5,-318 178.5,-324 172.5,-324"/>
<text text-anchor="middle" x="157.5" y="-302.3" font-family="Times,serif" font-size="14.00">If</text>
</g>
<!-- ast.For object at 0x7f93808b4730&#45;&gt;ast.If object at 0x7f93808b71c0 -->
<g id="edge31" class="edge">
<title>ast.For object at 0x7f93808b4730&#45;&gt;ast.If object at 0x7f93808b71c0</title>
<path fill="none" stroke="black" d="M478.48,-504.39C416.43,-466.23 263.7,-372.31 193.66,-329.24"/>
<polygon fill="black" stroke="black" points="195.09,-326.01 184.74,-323.75 191.42,-331.97 195.09,-326.01"/>
</g>
<!-- ast.For object at 0x7f93808b5d80 -->
<g id="node32" class="node">
<title>ast.For object at 0x7f93808b5d80</title>
<path fill="#66cdaa" stroke="black" d="M576.5,-468C576.5,-468 546.5,-468 546.5,-468 540.5,-468 534.5,-462 534.5,-456 534.5,-456 534.5,-444 534.5,-444 534.5,-438 540.5,-432 546.5,-432 546.5,-432 576.5,-432 576.5,-432 582.5,-432 588.5,-438 588.5,-444 588.5,-444 588.5,-456 588.5,-456 588.5,-462 582.5,-468 576.5,-468"/>
<text text-anchor="middle" x="561.5" y="-446.3" font-family="Times,serif" font-size="14.00">For</text>
</g>
<!-- ast.For object at 0x7f93808b4730&#45;&gt;ast.For object at 0x7f93808b5d80 -->
<g id="edge41" class="edge">
<title>ast.For object at 0x7f93808b4730&#45;&gt;ast.For object at 0x7f93808b5d80</title>
<path fill="none" stroke="black" d="M519.34,-503.7C525.99,-495.39 534.08,-485.28 541.39,-476.14"/>
<polygon fill="black" stroke="black" points="544.3,-478.1 547.82,-468.1 538.84,-473.73 544.3,-478.1"/>
</g>
<!-- ast.Name object at 0x7f93808b61d0&#45;&gt;ast.Store object at 0x7f93d26f1fc0 -->
<g id="edge10" class="edge">
<title>ast.Name object at 0x7f93808b61d0&#45;&gt;ast.Store object at 0x7f93d26f1fc0</title>
<path fill="none" stroke="black" d="M660.31,-431.9C661.16,-401.78 660.32,-337.71 641.5,-288 627.2,-250.22 599.97,-212.17 580.83,-188.15"/>
<polygon fill="black" stroke="black" points="583.45,-185.82 574.43,-180.26 578.01,-190.23 583.45,-185.82"/>
</g>
<!-- ast.Name object at 0x7f93808b7010 -->
<g id="node12" class="node">
<title>ast.Name object at 0x7f93808b7010</title>
<path fill="#66cdaa" stroke="black" d="M1746.5,-108C1746.5,-108 1716.5,-108 1716.5,-108 1710.5,-108 1704.5,-102 1704.5,-96 1704.5,-96 1704.5,-84 1704.5,-84 1704.5,-78 1710.5,-72 1716.5,-72 1716.5,-72 1746.5,-72 1746.5,-72 1752.5,-72 1758.5,-78 1758.5,-84 1758.5,-84 1758.5,-96 1758.5,-96 1758.5,-102 1752.5,-108 1746.5,-108"/>
<text text-anchor="middle" x="1731.5" y="-86.3" font-family="Times,serif" font-size="14.00">Name</text>
</g>
<!-- ast.Call object at 0x7f93808b4520&#45;&gt;ast.Name object at 0x7f93808b7010 -->
<g id="edge12" class="edge">
<title>ast.Call object at 0x7f93808b4520&#45;&gt;ast.Name object at 0x7f93808b7010</title>
<path fill="none" stroke="black" d="M1624.22,-215.87C1645.56,-191.03 1685.24,-144.85 1709.9,-116.14"/>
<polygon fill="black" stroke="black" points="1712.87,-118.06 1716.73,-108.19 1707.56,-113.49 1712.87,-118.06"/>
</g>
<!-- ast.Call object at 0x7f93808b7490 -->
<g id="node14" class="node">
<title>ast.Call object at 0x7f93808b7490</title>
<path fill="#66cdaa" stroke="black" d="M1624.5,-180C1624.5,-180 1594.5,-180 1594.5,-180 1588.5,-180 1582.5,-174 1582.5,-168 1582.5,-168 1582.5,-156 1582.5,-156 1582.5,-150 1588.5,-144 1594.5,-144 1594.5,-144 1624.5,-144 1624.5,-144 1630.5,-144 1636.5,-150 1636.5,-156 1636.5,-156 1636.5,-168 1636.5,-168 1636.5,-174 1630.5,-180 1624.5,-180"/>
<text text-anchor="middle" x="1609.5" y="-158.3" font-family="Times,serif" font-size="14.00">Call</text>
</g>
<!-- ast.Call object at 0x7f93808b4520&#45;&gt;ast.Call object at 0x7f93808b7490 -->
<g id="edge14" class="edge">
<title>ast.Call object at 0x7f93808b4520&#45;&gt;ast.Call object at 0x7f93808b7490</title>
<path fill="none" stroke="black" d="M1609.5,-215.7C1609.5,-207.98 1609.5,-198.71 1609.5,-190.11"/>
<polygon fill="black" stroke="black" points="1613,-190.1 1609.5,-180.1 1606,-190.1 1613,-190.1"/>
</g>
<!-- ast.Load object at 0x7f93d26f1f60 -->
<g id="node13" class="node">
<title>ast.Load object at 0x7f93d26f1f60</title>
<path fill="#66cdaa" stroke="black" d="M821.5,-36C821.5,-36 791.5,-36 791.5,-36 785.5,-36 779.5,-30 779.5,-24 779.5,-24 779.5,-12 779.5,-12 779.5,-6 785.5,0 791.5,0 791.5,0 821.5,0 821.5,0 827.5,0 833.5,-6 833.5,-12 833.5,-12 833.5,-24 833.5,-24 833.5,-30 827.5,-36 821.5,-36"/>
<text text-anchor="middle" x="806.5" y="-14.3" font-family="Times,serif" font-size="14.00">Load</text>
</g>
<!-- ast.Name object at 0x7f93808b7010&#45;&gt;ast.Load object at 0x7f93d26f1f60 -->
<g id="edge13" class="edge">
<title>ast.Name object at 0x7f93808b7010&#45;&gt;ast.Load object at 0x7f93d26f1f60</title>
<path fill="none" stroke="black" d="M1704.39,-74.88C1701.44,-73.75 1698.45,-72.75 1695.5,-72 1530.55,-29.82 991.44,-20.99 844.04,-19.34"/>
<polygon fill="black" stroke="black" points="843.76,-15.84 833.72,-19.23 843.68,-22.84 843.76,-15.84"/>
</g>
<!-- ast.Name object at 0x7f93808b5e40 -->
<g id="node15" class="node">
<title>ast.Name object at 0x7f93808b5e40</title>
<path fill="#66cdaa" stroke="black" d="M1674.5,-108C1674.5,-108 1644.5,-108 1644.5,-108 1638.5,-108 1632.5,-102 1632.5,-96 1632.5,-96 1632.5,-84 1632.5,-84 1632.5,-78 1638.5,-72 1644.5,-72 1644.5,-72 1674.5,-72 1674.5,-72 1680.5,-72 1686.5,-78 1686.5,-84 1686.5,-84 1686.5,-96 1686.5,-96 1686.5,-102 1680.5,-108 1674.5,-108"/>
<text text-anchor="middle" x="1659.5" y="-86.3" font-family="Times,serif" font-size="14.00">Name</text>
</g>
<!-- ast.Call object at 0x7f93808b7490&#45;&gt;ast.Name object at 0x7f93808b5e40 -->
<g id="edge15" class="edge">
<title>ast.Call object at 0x7f93808b7490&#45;&gt;ast.Name object at 0x7f93808b5e40</title>
<path fill="none" stroke="black" d="M1621.86,-143.7C1627.73,-135.47 1634.87,-125.48 1641.34,-116.42"/>
<polygon fill="black" stroke="black" points="1644.32,-118.28 1647.28,-108.1 1638.62,-114.21 1644.32,-118.28"/>
</g>
<!-- ast.Name object at 0x7f93808b6fb0 -->
<g id="node16" class="node">
<title>ast.Name object at 0x7f93808b6fb0</title>
<path fill="#66cdaa" stroke="black" d="M1602.5,-108C1602.5,-108 1572.5,-108 1572.5,-108 1566.5,-108 1560.5,-102 1560.5,-96 1560.5,-96 1560.5,-84 1560.5,-84 1560.5,-78 1566.5,-72 1572.5,-72 1572.5,-72 1602.5,-72 1602.5,-72 1608.5,-72 1614.5,-78 1614.5,-84 1614.5,-84 1614.5,-96 1614.5,-96 1614.5,-102 1608.5,-108 1602.5,-108"/>
<text text-anchor="middle" x="1587.5" y="-86.3" font-family="Times,serif" font-size="14.00">Name</text>
</g>
<!-- ast.Call object at 0x7f93808b7490&#45;&gt;ast.Name object at 0x7f93808b6fb0 -->
<g id="edge17" class="edge">
<title>ast.Call object at 0x7f93808b7490&#45;&gt;ast.Name object at 0x7f93808b6fb0</title>
<path fill="none" stroke="black" d="M1604.06,-143.7C1601.61,-135.9 1598.66,-126.51 1595.93,-117.83"/>
<polygon fill="black" stroke="black" points="1599.21,-116.59 1592.88,-108.1 1592.54,-118.69 1599.21,-116.59"/>
</g>
<!-- ast.Name object at 0x7f93808b5e40&#45;&gt;ast.Load object at 0x7f93d26f1f60 -->
<g id="edge16" class="edge">
<title>ast.Name object at 0x7f93808b5e40&#45;&gt;ast.Load object at 0x7f93d26f1f60</title>
<path fill="none" stroke="black" d="M1632.38,-74.9C1629.44,-73.76 1626.44,-72.76 1623.5,-72 1472.95,-33.08 982.94,-21.97 843.7,-19.57"/>
<polygon fill="black" stroke="black" points="843.61,-16.06 833.55,-19.4 843.49,-23.06 843.61,-16.06"/>
</g>
<!-- ast.Name object at 0x7f93808b6fb0&#45;&gt;ast.Load object at 0x7f93d26f1f60 -->
<g id="edge18" class="edge">
<title>ast.Name object at 0x7f93808b6fb0&#45;&gt;ast.Load object at 0x7f93d26f1f60</title>
<path fill="none" stroke="black" d="M1560.38,-74.92C1557.44,-73.78 1554.44,-72.77 1551.5,-72 1415.61,-36.42 976.12,-23.1 844.25,-19.85"/>
<polygon fill="black" stroke="black" points="843.95,-16.34 833.87,-19.6 843.78,-23.34 843.95,-16.34"/>
</g>
<!-- ast.Name object at 0x7f93808b56c0 -->
<g id="node18" class="node">
<title>ast.Name object at 0x7f93808b56c0</title>
<path fill="#66cdaa" stroke="black" d="M435.5,-324C435.5,-324 405.5,-324 405.5,-324 399.5,-324 393.5,-318 393.5,-312 393.5,-312 393.5,-300 393.5,-300 393.5,-294 399.5,-288 405.5,-288 405.5,-288 435.5,-288 435.5,-288 441.5,-288 447.5,-294 447.5,-300 447.5,-300 447.5,-312 447.5,-312 447.5,-318 441.5,-324 435.5,-324"/>
<text text-anchor="middle" x="420.5" y="-302.3" font-family="Times,serif" font-size="14.00">Name</text>
</g>
<!-- ast.Assign object at 0x7f93808b6f20&#45;&gt;ast.Name object at 0x7f93808b56c0 -->
<g id="edge20" class="edge">
<title>ast.Assign object at 0x7f93808b6f20&#45;&gt;ast.Name object at 0x7f93808b56c0</title>
<path fill="none" stroke="black" d="M431.79,-359.7C430.14,-351.98 428.15,-342.71 426.31,-334.11"/>
<polygon fill="black" stroke="black" points="429.68,-333.15 424.17,-324.1 422.84,-334.62 429.68,-333.15"/>
</g>
<!-- ast.Call object at 0x7f93808b5b70 -->
<g id="node19" class="node">
<title>ast.Call object at 0x7f93808b5b70</title>
<path fill="#66cdaa" stroke="black" d="M290.5,-324C290.5,-324 260.5,-324 260.5,-324 254.5,-324 248.5,-318 248.5,-312 248.5,-312 248.5,-300 248.5,-300 248.5,-294 254.5,-288 260.5,-288 260.5,-288 290.5,-288 290.5,-288 296.5,-288 302.5,-294 302.5,-300 302.5,-300 302.5,-312 302.5,-312 302.5,-318 296.5,-324 290.5,-324"/>
<text text-anchor="middle" x="275.5" y="-302.3" font-family="Times,serif" font-size="14.00">Call</text>
</g>
<!-- ast.Assign object at 0x7f93808b6f20&#45;&gt;ast.Call object at 0x7f93808b5b70 -->
<g id="edge22" class="edge">
<title>ast.Assign object at 0x7f93808b6f20&#45;&gt;ast.Call object at 0x7f93808b5b70</title>
<path fill="none" stroke="black" d="M408.42,-364.08C405.42,-362.69 402.4,-361.3 399.5,-360 370.28,-346.86 336.87,-332.63 312.1,-322.22"/>
<polygon fill="black" stroke="black" points="313.29,-318.93 302.72,-318.29 310.59,-325.38 313.29,-318.93"/>
</g>
<!-- ast.Name object at 0x7f93808b56c0&#45;&gt;ast.Store object at 0x7f93d26f1fc0 -->
<g id="edge21" class="edge">
<title>ast.Name object at 0x7f93808b56c0&#45;&gt;ast.Store object at 0x7f93d26f1fc0</title>
<path fill="none" stroke="black" d="M420.91,-287.96C422.24,-268.45 427.16,-236.54 444.5,-216 444.68,-215.79 489.53,-195.15 523.16,-179.69"/>
<polygon fill="black" stroke="black" points="524.68,-182.85 532.3,-175.49 521.76,-176.49 524.68,-182.85"/>
</g>
<!-- ast.Attribute object at 0x7f93808b50c0 -->
<g id="node20" class="node">
<title>ast.Attribute object at 0x7f93808b50c0</title>
<path fill="#66cdaa" stroke="black" d="M262,-252C262,-252 221,-252 221,-252 215,-252 209,-246 209,-240 209,-240 209,-228 209,-228 209,-222 215,-216 221,-216 221,-216 262,-216 262,-216 268,-216 274,-222 274,-228 274,-228 274,-240 274,-240 274,-246 268,-252 262,-252"/>
<text text-anchor="middle" x="241.5" y="-230.3" font-family="Times,serif" font-size="14.00">Attribute</text>
</g>
<!-- ast.Call object at 0x7f93808b5b70&#45;&gt;ast.Attribute object at 0x7f93808b50c0 -->
<g id="edge23" class="edge">
<title>ast.Call object at 0x7f93808b5b70&#45;&gt;ast.Attribute object at 0x7f93808b50c0</title>
<path fill="none" stroke="black" d="M267.1,-287.7C263.23,-279.73 258.55,-270.1 254.26,-261.26"/>
<polygon fill="black" stroke="black" points="257.33,-259.57 249.81,-252.1 251.03,-262.63 257.33,-259.57"/>
</g>
<!-- ast.Attribute object at 0x7f93808b50c0&#45;&gt;ast.Load object at 0x7f93d26f1f60 -->
<g id="edge30" class="edge">
<title>ast.Attribute object at 0x7f93808b50c0&#45;&gt;ast.Load object at 0x7f93d26f1f60</title>
<path fill="none" stroke="black" d="M227.94,-215.97C220.94,-206.09 213.13,-193.05 209.5,-180 205.21,-164.59 204.05,-159.04 209.5,-144 223.68,-104.83 232.69,-91.5 269.5,-72 356.44,-25.94 662.2,-19.78 769.19,-19.06"/>
<polygon fill="black" stroke="black" points="769.51,-22.56 779.49,-19 769.48,-15.56 769.51,-22.56"/>
</g>
<!-- ast.Subscript object at 0x7f93808b6ef0 -->
<g id="node21" class="node">
<title>ast.Subscript object at 0x7f93808b6ef0</title>
<path fill="#66cdaa" stroke="black" d="M346.5,-180C346.5,-180 302.5,-180 302.5,-180 296.5,-180 290.5,-174 290.5,-168 290.5,-168 290.5,-156 290.5,-156 290.5,-150 296.5,-144 302.5,-144 302.5,-144 346.5,-144 346.5,-144 352.5,-144 358.5,-150 358.5,-156 358.5,-156 358.5,-168 358.5,-168 358.5,-174 352.5,-180 346.5,-180"/>
<text text-anchor="middle" x="324.5" y="-158.3" font-family="Times,serif" font-size="14.00">Subscript</text>
</g>
<!-- ast.Attribute object at 0x7f93808b50c0&#45;&gt;ast.Subscript object at 0x7f93808b6ef0 -->
<g id="edge24" class="edge">
<title>ast.Attribute object at 0x7f93808b50c0&#45;&gt;ast.Subscript object at 0x7f93808b6ef0</title>
<path fill="none" stroke="black" d="M262.02,-215.7C272.37,-206.97 285.09,-196.24 296.34,-186.75"/>
<polygon fill="black" stroke="black" points="298.83,-189.23 304.22,-180.1 294.32,-183.88 298.83,-189.23"/>
</g>
<!-- ast.Subscript object at 0x7f93808b6ef0&#45;&gt;ast.Load object at 0x7f93d26f1f60 -->
<g id="edge29" class="edge">
<title>ast.Subscript object at 0x7f93808b6ef0&#45;&gt;ast.Load object at 0x7f93d26f1f60</title>
<path fill="none" stroke="black" d="M329.89,-143.99C337.42,-123.25 353.2,-88.87 379.5,-72 443.76,-30.78 677.63,-21.59 769.29,-19.57"/>
<polygon fill="black" stroke="black" points="769.56,-23.06 779.49,-19.36 769.42,-16.06 769.56,-23.06"/>
</g>
<!-- ast.Name object at 0x7f93808b73d0 -->
<g id="node22" class="node">
<title>ast.Name object at 0x7f93808b73d0</title>
<path fill="#66cdaa" stroke="black" d="M430.5,-108C430.5,-108 400.5,-108 400.5,-108 394.5,-108 388.5,-102 388.5,-96 388.5,-96 388.5,-84 388.5,-84 388.5,-78 394.5,-72 400.5,-72 400.5,-72 430.5,-72 430.5,-72 436.5,-72 442.5,-78 442.5,-84 442.5,-84 442.5,-96 442.5,-96 442.5,-102 436.5,-108 430.5,-108"/>
<text text-anchor="middle" x="415.5" y="-86.3" font-family="Times,serif" font-size="14.00">Name</text>
</g>
<!-- ast.Subscript object at 0x7f93808b6ef0&#45;&gt;ast.Name object at 0x7f93808b73d0 -->
<g id="edge25" class="edge">
<title>ast.Subscript object at 0x7f93808b6ef0&#45;&gt;ast.Name object at 0x7f93808b73d0</title>
<path fill="none" stroke="black" d="M346.99,-143.7C358.46,-134.88 372.56,-124.03 384.98,-114.47"/>
<polygon fill="black" stroke="black" points="387.47,-116.98 393.26,-108.1 383.2,-111.43 387.47,-116.98"/>
</g>
<!-- ast.Name object at 0x7f93808b5990 -->
<g id="node23" class="node">
<title>ast.Name object at 0x7f93808b5990</title>
<path fill="#66cdaa" stroke="black" d="M320.5,-108C320.5,-108 290.5,-108 290.5,-108 284.5,-108 278.5,-102 278.5,-96 278.5,-96 278.5,-84 278.5,-84 278.5,-78 284.5,-72 290.5,-72 290.5,-72 320.5,-72 320.5,-72 326.5,-72 332.5,-78 332.5,-84 332.5,-84 332.5,-96 332.5,-96 332.5,-102 326.5,-108 320.5,-108"/>
<text text-anchor="middle" x="305.5" y="-86.3" font-family="Times,serif" font-size="14.00">Name</text>
</g>
<!-- ast.Subscript object at 0x7f93808b6ef0&#45;&gt;ast.Name object at 0x7f93808b5990 -->
<g id="edge27" class="edge">
<title>ast.Subscript object at 0x7f93808b6ef0&#45;&gt;ast.Name object at 0x7f93808b5990</title>
<path fill="none" stroke="black" d="M319.8,-143.7C317.69,-135.9 315.14,-126.51 312.78,-117.83"/>
<polygon fill="black" stroke="black" points="316.14,-116.84 310.14,-108.1 309.38,-118.67 316.14,-116.84"/>
</g>
<!-- ast.Name object at 0x7f93808b73d0&#45;&gt;ast.Load object at 0x7f93d26f1f60 -->
<g id="edge26" class="edge">
<title>ast.Name object at 0x7f93808b73d0&#45;&gt;ast.Load object at 0x7f93d26f1f60</title>
<path fill="none" stroke="black" d="M442.69,-75.15C445.62,-73.97 448.59,-72.88 451.5,-72 563.9,-37.88 703.26,-25.27 768.92,-20.99"/>
<polygon fill="black" stroke="black" points="769.42,-24.47 779.19,-20.36 768.99,-17.48 769.42,-24.47"/>
</g>
<!-- ast.Name object at 0x7f93808b5990&#45;&gt;ast.Load object at 0x7f93d26f1f60 -->
<g id="edge28" class="edge">
<title>ast.Name object at 0x7f93808b5990&#45;&gt;ast.Load object at 0x7f93d26f1f60</title>
<path fill="none" stroke="black" d="M332.93,-76.41C337.4,-74.71 342.02,-73.16 346.5,-72 499.78,-32.23 689.53,-22.28 768.87,-19.81"/>
<polygon fill="black" stroke="black" points="769.42,-23.3 779.32,-19.51 769.22,-16.3 769.42,-23.3"/>
</g>
<!-- ast.Compare object at 0x7f93808b5480 -->
<g id="node25" class="node">
<title>ast.Compare object at 0x7f93808b5480</title>
<path fill="#66cdaa" stroke="black" d="M94,-252C94,-252 51,-252 51,-252 45,-252 39,-246 39,-240 39,-240 39,-228 39,-228 39,-222 45,-216 51,-216 51,-216 94,-216 94,-216 100,-216 106,-222 106,-228 106,-228 106,-240 106,-240 106,-246 100,-252 94,-252"/>
<text text-anchor="middle" x="72.5" y="-230.3" font-family="Times,serif" font-size="14.00">Compare</text>
</g>
<!-- ast.If object at 0x7f93808b71c0&#45;&gt;ast.Compare object at 0x7f93808b5480 -->
<g id="edge32" class="edge">
<title>ast.If object at 0x7f93808b71c0&#45;&gt;ast.Compare object at 0x7f93808b5480</title>
<path fill="none" stroke="black" d="M136.49,-287.7C125.78,-278.88 112.61,-268.03 101,-258.47"/>
<polygon fill="black" stroke="black" points="103.21,-255.76 93.27,-252.1 98.76,-261.16 103.21,-255.76"/>
</g>
<!-- ast.Continue object at 0x7f93808b6650 -->
<g id="node31" class="node">
<title>ast.Continue object at 0x7f93808b6650</title>
<path fill="#66cdaa" stroke="black" d="M178.5,-252C178.5,-252 136.5,-252 136.5,-252 130.5,-252 124.5,-246 124.5,-240 124.5,-240 124.5,-228 124.5,-228 124.5,-222 130.5,-216 136.5,-216 136.5,-216 178.5,-216 178.5,-216 184.5,-216 190.5,-222 190.5,-228 190.5,-228 190.5,-240 190.5,-240 190.5,-246 184.5,-252 178.5,-252"/>
<text text-anchor="middle" x="157.5" y="-230.3" font-family="Times,serif" font-size="14.00">Continue</text>
</g>
<!-- ast.If object at 0x7f93808b71c0&#45;&gt;ast.Continue object at 0x7f93808b6650 -->
<g id="edge40" class="edge">
<title>ast.If object at 0x7f93808b71c0&#45;&gt;ast.Continue object at 0x7f93808b6650</title>
<path fill="none" stroke="black" d="M157.5,-287.7C157.5,-279.98 157.5,-270.71 157.5,-262.11"/>
<polygon fill="black" stroke="black" points="161,-262.1 157.5,-252.1 154,-262.1 161,-262.1"/>
</g>
<!-- ast.Call object at 0x7f93808b5f30 -->
<g id="node26" class="node">
<title>ast.Call object at 0x7f93808b5f30</title>
<path fill="#66cdaa" stroke="black" d="M125.5,-180C125.5,-180 95.5,-180 95.5,-180 89.5,-180 83.5,-174 83.5,-168 83.5,-168 83.5,-156 83.5,-156 83.5,-150 89.5,-144 95.5,-144 95.5,-144 125.5,-144 125.5,-144 131.5,-144 137.5,-150 137.5,-156 137.5,-156 137.5,-168 137.5,-168 137.5,-174 131.5,-180 125.5,-180"/>
<text text-anchor="middle" x="110.5" y="-158.3" font-family="Times,serif" font-size="14.00">Call</text>
</g>
<!-- ast.Compare object at 0x7f93808b5480&#45;&gt;ast.Call object at 0x7f93808b5f30 -->
<g id="edge33" class="edge">
<title>ast.Compare object at 0x7f93808b5480&#45;&gt;ast.Call object at 0x7f93808b5f30</title>
<path fill="none" stroke="black" d="M81.89,-215.7C86.26,-207.64 91.56,-197.89 96.4,-188.98"/>
<polygon fill="black" stroke="black" points="99.52,-190.56 101.21,-180.1 93.37,-187.22 99.52,-190.56"/>
</g>
<!-- ast.Lt object at 0x7f93d26f2950 -->
<g id="node29" class="node">
<title>ast.Lt object at 0x7f93d26f2950</title>
<path fill="#66cdaa" stroke="black" d="M260.5,-180C260.5,-180 230.5,-180 230.5,-180 224.5,-180 218.5,-174 218.5,-168 218.5,-168 218.5,-156 218.5,-156 218.5,-150 224.5,-144 230.5,-144 230.5,-144 260.5,-144 260.5,-144 266.5,-144 272.5,-150 272.5,-156 272.5,-156 272.5,-168 272.5,-168 272.5,-174 266.5,-180 260.5,-180"/>
<text text-anchor="middle" x="245.5" y="-158.3" font-family="Times,serif" font-size="14.00">Lt</text>
</g>
<!-- ast.Compare object at 0x7f93808b5480&#45;&gt;ast.Lt object at 0x7f93d26f2950 -->
<g id="edge38" class="edge">
<title>ast.Compare object at 0x7f93808b5480&#45;&gt;ast.Lt object at 0x7f93d26f2950</title>
<path fill="none" stroke="black" d="M106.27,-219.34C135.81,-207.38 178.64,-190.06 208.97,-177.78"/>
<polygon fill="black" stroke="black" points="210.39,-180.98 218.35,-173.98 207.77,-174.49 210.39,-180.98"/>
</g>
<!-- ast.Constant object at 0x7f93808b49a0 -->
<g id="node30" class="node">
<title>ast.Constant object at 0x7f93808b49a0</title>
<path fill="#66cdaa" stroke="black" d="M53,-180C53,-180 12,-180 12,-180 6,-180 0,-174 0,-168 0,-168 0,-156 0,-156 0,-150 6,-144 12,-144 12,-144 53,-144 53,-144 59,-144 65,-150 65,-156 65,-156 65,-168 65,-168 65,-174 59,-180 53,-180"/>
<text text-anchor="middle" x="32.5" y="-158.3" font-family="Times,serif" font-size="14.00">Constant</text>
</g>
<!-- ast.Compare object at 0x7f93808b5480&#45;&gt;ast.Constant object at 0x7f93808b49a0 -->
<g id="edge39" class="edge">
<title>ast.Compare object at 0x7f93808b5480&#45;&gt;ast.Constant object at 0x7f93808b49a0</title>
<path fill="none" stroke="black" d="M62.61,-215.7C58.01,-207.64 52.44,-197.89 47.35,-188.98"/>
<polygon fill="black" stroke="black" points="50.27,-187.05 42.27,-180.1 44.2,-190.52 50.27,-187.05"/>
</g>
<!-- ast.Name object at 0x7f93808b7f70 -->
<g id="node27" class="node">
<title>ast.Name object at 0x7f93808b7f70</title>
<path fill="#66cdaa" stroke="black" d="M150.5,-108C150.5,-108 120.5,-108 120.5,-108 114.5,-108 108.5,-102 108.5,-96 108.5,-96 108.5,-84 108.5,-84 108.5,-78 114.5,-72 120.5,-72 120.5,-72 150.5,-72 150.5,-72 156.5,-72 162.5,-78 162.5,-84 162.5,-84 162.5,-96 162.5,-96 162.5,-102 156.5,-108 150.5,-108"/>
<text text-anchor="middle" x="135.5" y="-86.3" font-family="Times,serif" font-size="14.00">Name</text>
</g>
<!-- ast.Call object at 0x7f93808b5f30&#45;&gt;ast.Name object at 0x7f93808b7f70 -->
<g id="edge34" class="edge">
<title>ast.Call object at 0x7f93808b5f30&#45;&gt;ast.Name object at 0x7f93808b7f70</title>
<path fill="none" stroke="black" d="M116.68,-143.7C119.5,-135.81 122.89,-126.3 126.02,-117.55"/>
<polygon fill="black" stroke="black" points="129.32,-118.7 129.39,-108.1 122.73,-116.34 129.32,-118.7"/>
</g>
<!-- ast.Name object at 0x7f93808b7f40 -->
<g id="node28" class="node">
<title>ast.Name object at 0x7f93808b7f40</title>
<path fill="#66cdaa" stroke="black" d="M78.5,-108C78.5,-108 48.5,-108 48.5,-108 42.5,-108 36.5,-102 36.5,-96 36.5,-96 36.5,-84 36.5,-84 36.5,-78 42.5,-72 48.5,-72 48.5,-72 78.5,-72 78.5,-72 84.5,-72 90.5,-78 90.5,-84 90.5,-84 90.5,-96 90.5,-96 90.5,-102 84.5,-108 78.5,-108"/>
<text text-anchor="middle" x="63.5" y="-86.3" font-family="Times,serif" font-size="14.00">Name</text>
</g>
<!-- ast.Call object at 0x7f93808b5f30&#45;&gt;ast.Name object at 0x7f93808b7f40 -->
<g id="edge36" class="edge">
<title>ast.Call object at 0x7f93808b5f30&#45;&gt;ast.Name object at 0x7f93808b7f40</title>
<path fill="none" stroke="black" d="M98.88,-143.7C93.36,-135.47 86.65,-125.48 80.57,-116.42"/>
<polygon fill="black" stroke="black" points="83.46,-114.46 74.98,-108.1 77.65,-118.36 83.46,-114.46"/>
</g>
<!-- ast.Name object at 0x7f93808b7f70&#45;&gt;ast.Load object at 0x7f93d26f1f60 -->
<g id="edge35" class="edge">
<title>ast.Name object at 0x7f93808b7f70&#45;&gt;ast.Load object at 0x7f93d26f1f60</title>
<path fill="none" stroke="black" d="M162.9,-76.28C167.37,-74.61 172.01,-73.09 176.5,-72 290.14,-44.37 651.12,-26.02 768.92,-20.64"/>
<polygon fill="black" stroke="black" points="769.4,-24.12 779.23,-20.17 769.08,-17.13 769.4,-24.12"/>
</g>
<!-- ast.Name object at 0x7f93808b7f40&#45;&gt;ast.Load object at 0x7f93d26f1f60 -->
<g id="edge37" class="edge">
<title>ast.Name object at 0x7f93808b7f40&#45;&gt;ast.Load object at 0x7f93d26f1f60</title>
<path fill="none" stroke="black" d="M90.63,-74.93C93.57,-73.79 96.56,-72.78 99.5,-72 227.86,-38.13 641.89,-23.71 769.02,-20.01"/>
<polygon fill="black" stroke="black" points="769.49,-23.5 779.39,-19.71 769.29,-16.5 769.49,-23.5"/>
</g>
<!-- ast.Name object at 0x7f93808b45b0 -->
<g id="node33" class="node">
<title>ast.Name object at 0x7f93808b45b0</title>
<path fill="#66cdaa" stroke="black" d="M560.5,-396C560.5,-396 530.5,-396 530.5,-396 524.5,-396 518.5,-390 518.5,-384 518.5,-384 518.5,-372 518.5,-372 518.5,-366 524.5,-360 530.5,-360 530.5,-360 560.5,-360 560.5,-360 566.5,-360 572.5,-366 572.5,-372 572.5,-372 572.5,-384 572.5,-384 572.5,-390 566.5,-396 560.5,-396"/>
<text text-anchor="middle" x="545.5" y="-374.3" font-family="Times,serif" font-size="14.00">Name</text>
</g>
<!-- ast.For object at 0x7f93808b5d80&#45;&gt;ast.Name object at 0x7f93808b45b0 -->
<g id="edge42" class="edge">
<title>ast.For object at 0x7f93808b5d80&#45;&gt;ast.Name object at 0x7f93808b45b0</title>
<path fill="none" stroke="black" d="M557.54,-431.7C555.78,-423.98 553.66,-414.71 551.7,-406.11"/>
<polygon fill="black" stroke="black" points="555.05,-405.07 549.41,-396.1 548.23,-406.63 555.05,-405.07"/>
</g>
<!-- ast.Call object at 0x7f93808b6740 -->
<g id="node34" class="node">
<title>ast.Call object at 0x7f93808b6740</title>
<path fill="#66cdaa" stroke="black" d="M1334.5,-252C1334.5,-252 1304.5,-252 1304.5,-252 1298.5,-252 1292.5,-246 1292.5,-240 1292.5,-240 1292.5,-228 1292.5,-228 1292.5,-222 1298.5,-216 1304.5,-216 1304.5,-216 1334.5,-216 1334.5,-216 1340.5,-216 1346.5,-222 1346.5,-228 1346.5,-228 1346.5,-240 1346.5,-240 1346.5,-246 1340.5,-252 1334.5,-252"/>
<text text-anchor="middle" x="1319.5" y="-230.3" font-family="Times,serif" font-size="14.00">Call</text>
</g>
<!-- ast.For object at 0x7f93808b5d80&#45;&gt;ast.Call object at 0x7f93808b6740 -->
<g id="edge44" class="edge">
<title>ast.For object at 0x7f93808b5d80&#45;&gt;ast.Call object at 0x7f93808b6740</title>
<path fill="none" stroke="black" d="M588.76,-440.6C599.51,-437.54 612,-434.27 623.5,-432 752.65,-406.53 797.36,-449.82 917.5,-396 950.7,-381.13 1007.81,-303.96 1040.5,-288 1082.66,-267.42 1216.34,-248.15 1282.15,-239.61"/>
<polygon fill="black" stroke="black" points="1282.64,-243.08 1292.11,-238.34 1281.75,-236.14 1282.64,-243.08"/>
</g>
<!-- ast.Assign object at 0x7f93808b4d30 -->
<g id="node43" class="node">
<title>ast.Assign object at 0x7f93808b4d30</title>
<path fill="#66cdaa" stroke="black" d="M632.5,-396C632.5,-396 602.5,-396 602.5,-396 596.5,-396 590.5,-390 590.5,-384 590.5,-384 590.5,-372 590.5,-372 590.5,-366 596.5,-360 602.5,-360 602.5,-360 632.5,-360 632.5,-360 638.5,-360 644.5,-366 644.5,-372 644.5,-372 644.5,-384 644.5,-384 644.5,-390 638.5,-396 632.5,-396"/>
<text text-anchor="middle" x="617.5" y="-374.3" font-family="Times,serif" font-size="14.00">Assign</text>
</g>
<!-- ast.For object at 0x7f93808b5d80&#45;&gt;ast.Assign object at 0x7f93808b4d30 -->
<g id="edge57" class="edge">
<title>ast.For object at 0x7f93808b5d80&#45;&gt;ast.Assign object at 0x7f93808b4d30</title>
<path fill="none" stroke="black" d="M575.34,-431.7C581.99,-423.39 590.08,-413.28 597.39,-404.14"/>
<polygon fill="black" stroke="black" points="600.3,-406.1 603.82,-396.1 594.84,-401.73 600.3,-406.1"/>
</g>
<!-- ast.If object at 0x7f93808b4be0 -->
<g id="node50" class="node">
<title>ast.If object at 0x7f93808b4be0</title>
<path fill="#66cdaa" stroke="black" d="M507.5,-324C507.5,-324 477.5,-324 477.5,-324 471.5,-324 465.5,-318 465.5,-312 465.5,-312 465.5,-300 465.5,-300 465.5,-294 471.5,-288 477.5,-288 477.5,-288 507.5,-288 507.5,-288 513.5,-288 519.5,-294 519.5,-300 519.5,-300 519.5,-312 519.5,-312 519.5,-318 513.5,-324 507.5,-324"/>
<text text-anchor="middle" x="492.5" y="-302.3" font-family="Times,serif" font-size="14.00">If</text>
</g>
<!-- ast.For object at 0x7f93808b5d80&#45;&gt;ast.If object at 0x7f93808b4be0 -->
<g id="edge69" class="edge">
<title>ast.For object at 0x7f93808b5d80&#45;&gt;ast.If object at 0x7f93808b4be0</title>
<path fill="none" stroke="black" d="M539.4,-431.86C528.75,-422.41 516.73,-409.82 509.5,-396 499.44,-376.78 495.28,-352.43 493.59,-334.07"/>
<polygon fill="black" stroke="black" points="497.08,-333.74 492.85,-324.03 490.1,-334.26 497.08,-333.74"/>
</g>
<!-- ast.If object at 0x7f93808b70a0 -->
<g id="node57" class="node">
<title>ast.If object at 0x7f93808b70a0</title>
<path fill="#66cdaa" stroke="black" d="M896.5,-396C896.5,-396 866.5,-396 866.5,-396 860.5,-396 854.5,-390 854.5,-384 854.5,-384 854.5,-372 854.5,-372 854.5,-366 860.5,-360 866.5,-360 866.5,-360 896.5,-360 896.5,-360 902.5,-360 908.5,-366 908.5,-372 908.5,-372 908.5,-384 908.5,-384 908.5,-390 902.5,-396 896.5,-396"/>
<text text-anchor="middle" x="881.5" y="-374.3" font-family="Times,serif" font-size="14.00">If</text>
</g>
<!-- ast.For object at 0x7f93808b5d80&#45;&gt;ast.If object at 0x7f93808b70a0 -->
<g id="edge79" class="edge">
<title>ast.For object at 0x7f93808b5d80&#45;&gt;ast.If object at 0x7f93808b70a0</title>
<path fill="none" stroke="black" d="M588.56,-441.17C599.39,-438.14 611.99,-434.76 623.5,-432 701.55,-413.3 793.85,-395.33 844.17,-385.88"/>
<polygon fill="black" stroke="black" points="845.07,-389.27 854.26,-383.99 843.78,-382.39 845.07,-389.27"/>
</g>
<!-- ast.Name object at 0x7f93808b45b0&#45;&gt;ast.Store object at 0x7f93d26f1fc0 -->
<g id="edge43" class="edge">
<title>ast.Name object at 0x7f93808b45b0&#45;&gt;ast.Store object at 0x7f93d26f1fc0</title>
<path fill="none" stroke="black" d="M546.62,-359.85C549.04,-322.83 554.78,-235.18 557.71,-190.39"/>
<polygon fill="black" stroke="black" points="561.21,-190.44 558.37,-180.23 554.23,-189.98 561.21,-190.44"/>
</g>
<!-- ast.Name object at 0x7f93808b7910 -->
<g id="node35" class="node">
<title>ast.Name object at 0x7f93808b7910</title>
<path fill="#66cdaa" stroke="black" d="M1298.5,-180C1298.5,-180 1268.5,-180 1268.5,-180 1262.5,-180 1256.5,-174 1256.5,-168 1256.5,-168 1256.5,-156 1256.5,-156 1256.5,-150 1262.5,-144 1268.5,-144 1268.5,-144 1298.5,-144 1298.5,-144 1304.5,-144 1310.5,-150 1310.5,-156 1310.5,-156 1310.5,-168 1310.5,-168 1310.5,-174 1304.5,-180 1298.5,-180"/>
<text text-anchor="middle" x="1283.5" y="-158.3" font-family="Times,serif" font-size="14.00">Name</text>
</g>
<!-- ast.Call object at 0x7f93808b6740&#45;&gt;ast.Name object at 0x7f93808b7910 -->
<g id="edge45" class="edge">
<title>ast.Call object at 0x7f93808b6740&#45;&gt;ast.Name object at 0x7f93808b7910</title>
<path fill="none" stroke="black" d="M1310.6,-215.7C1306.5,-207.73 1301.55,-198.1 1297.01,-189.26"/>
<polygon fill="black" stroke="black" points="1299.98,-187.4 1292.3,-180.1 1293.76,-190.6 1299.98,-187.4"/>
</g>
<!-- ast.BinOp object at 0x7f93808b4dc0 -->
<g id="node36" class="node">
<title>ast.BinOp object at 0x7f93808b4dc0</title>
<path fill="#66cdaa" stroke="black" d="M1480.5,-180C1480.5,-180 1450.5,-180 1450.5,-180 1444.5,-180 1438.5,-174 1438.5,-168 1438.5,-168 1438.5,-156 1438.5,-156 1438.5,-150 1444.5,-144 1450.5,-144 1450.5,-144 1480.5,-144 1480.5,-144 1486.5,-144 1492.5,-150 1492.5,-156 1492.5,-156 1492.5,-168 1492.5,-168 1492.5,-174 1486.5,-180 1480.5,-180"/>
<text text-anchor="middle" x="1465.5" y="-158.3" font-family="Times,serif" font-size="14.00">BinOp</text>
</g>
<!-- ast.Call object at 0x7f93808b6740&#45;&gt;ast.BinOp object at 0x7f93808b4dc0 -->
<g id="edge47" class="edge">
<title>ast.Call object at 0x7f93808b6740&#45;&gt;ast.BinOp object at 0x7f93808b4dc0</title>
<path fill="none" stroke="black" d="M1346.62,-220C1369.83,-208.87 1403.44,-192.75 1429.01,-180.5"/>
<polygon fill="black" stroke="black" points="1430.53,-183.65 1438.03,-176.17 1427.5,-177.34 1430.53,-183.65"/>
</g>
<!-- ast.Call object at 0x7f93808b6ad0 -->
<g id="node40" class="node">
<title>ast.Call object at 0x7f93808b6ad0</title>
<path fill="#66cdaa" stroke="black" d="M1370.5,-180C1370.5,-180 1340.5,-180 1340.5,-180 1334.5,-180 1328.5,-174 1328.5,-168 1328.5,-168 1328.5,-156 1328.5,-156 1328.5,-150 1334.5,-144 1340.5,-144 1340.5,-144 1370.5,-144 1370.5,-144 1376.5,-144 1382.5,-150 1382.5,-156 1382.5,-156 1382.5,-168 1382.5,-168 1382.5,-174 1376.5,-180 1370.5,-180"/>
<text text-anchor="middle" x="1355.5" y="-158.3" font-family="Times,serif" font-size="14.00">Call</text>
</g>
<!-- ast.Call object at 0x7f93808b6740&#45;&gt;ast.Call object at 0x7f93808b6ad0 -->
<g id="edge52" class="edge">
<title>ast.Call object at 0x7f93808b6740&#45;&gt;ast.Call object at 0x7f93808b6ad0</title>
<path fill="none" stroke="black" d="M1328.4,-215.7C1332.5,-207.73 1337.45,-198.1 1341.99,-189.26"/>
<polygon fill="black" stroke="black" points="1345.24,-190.6 1346.7,-180.1 1339.02,-187.4 1345.24,-190.6"/>
</g>
<!-- ast.Name object at 0x7f93808b7910&#45;&gt;ast.Load object at 0x7f93d26f1f60 -->
<g id="edge46" class="edge">
<title>ast.Name object at 0x7f93808b7910&#45;&gt;ast.Load object at 0x7f93d26f1f60</title>
<path fill="none" stroke="black" d="M1256.18,-148.18C1230.06,-135.72 1192.74,-117.35 1179.5,-108 1160.5,-94.58 1162.37,-82.28 1141.5,-72 1089.54,-46.41 919.58,-28.85 843.68,-22.09"/>
<polygon fill="black" stroke="black" points="843.89,-18.6 833.62,-21.21 843.28,-25.57 843.89,-18.6"/>
</g>
<!-- ast.Name object at 0x7f93808b7ee0 -->
<g id="node37" class="node">
<title>ast.Name object at 0x7f93808b7ee0</title>
<path fill="#66cdaa" stroke="black" d="M1446.5,-108C1446.5,-108 1416.5,-108 1416.5,-108 1410.5,-108 1404.5,-102 1404.5,-96 1404.5,-96 1404.5,-84 1404.5,-84 1404.5,-78 1410.5,-72 1416.5,-72 1416.5,-72 1446.5,-72 1446.5,-72 1452.5,-72 1458.5,-78 1458.5,-84 1458.5,-84 1458.5,-96 1458.5,-96 1458.5,-102 1452.5,-108 1446.5,-108"/>
<text text-anchor="middle" x="1431.5" y="-86.3" font-family="Times,serif" font-size="14.00">Name</text>
</g>
<!-- ast.BinOp object at 0x7f93808b4dc0&#45;&gt;ast.Name object at 0x7f93808b7ee0 -->
<g id="edge48" class="edge">
<title>ast.BinOp object at 0x7f93808b4dc0&#45;&gt;ast.Name object at 0x7f93808b7ee0</title>
<path fill="none" stroke="black" d="M1457.1,-143.7C1453.23,-135.73 1448.55,-126.1 1444.26,-117.26"/>
<polygon fill="black" stroke="black" points="1447.33,-115.57 1439.81,-108.1 1441.03,-118.63 1447.33,-115.57"/>
</g>
<!-- ast.Add object at 0x7f93d26f21a0 -->
<g id="node38" class="node">
<title>ast.Add object at 0x7f93d26f21a0</title>
<path fill="#66cdaa" stroke="black" d="M1374.5,-108C1374.5,-108 1344.5,-108 1344.5,-108 1338.5,-108 1332.5,-102 1332.5,-96 1332.5,-96 1332.5,-84 1332.5,-84 1332.5,-78 1338.5,-72 1344.5,-72 1344.5,-72 1374.5,-72 1374.5,-72 1380.5,-72 1386.5,-78 1386.5,-84 1386.5,-84 1386.5,-96 1386.5,-96 1386.5,-102 1380.5,-108 1374.5,-108"/>
<text text-anchor="middle" x="1359.5" y="-86.3" font-family="Times,serif" font-size="14.00">Add</text>
</g>
<!-- ast.BinOp object at 0x7f93808b4dc0&#45;&gt;ast.Add object at 0x7f93d26f21a0 -->
<g id="edge50" class="edge">
<title>ast.BinOp object at 0x7f93808b4dc0&#45;&gt;ast.Add object at 0x7f93d26f21a0</title>
<path fill="none" stroke="black" d="M1439.57,-143.88C1425.84,-134.81 1408.79,-123.55 1393.96,-113.76"/>
<polygon fill="black" stroke="black" points="1395.8,-110.78 1385.53,-108.19 1391.95,-116.62 1395.8,-110.78"/>
</g>
<!-- ast.Constant object at 0x7f93808b4070 -->
<g id="node39" class="node">
<title>ast.Constant object at 0x7f93808b4070</title>
<path fill="#66cdaa" stroke="black" d="M1530,-108C1530,-108 1489,-108 1489,-108 1483,-108 1477,-102 1477,-96 1477,-96 1477,-84 1477,-84 1477,-78 1483,-72 1489,-72 1489,-72 1530,-72 1530,-72 1536,-72 1542,-78 1542,-84 1542,-84 1542,-96 1542,-96 1542,-102 1536,-108 1530,-108"/>
<text text-anchor="middle" x="1509.5" y="-86.3" font-family="Times,serif" font-size="14.00">Constant</text>
</g>
<!-- ast.BinOp object at 0x7f93808b4dc0&#45;&gt;ast.Constant object at 0x7f93808b4070 -->
<g id="edge51" class="edge">
<title>ast.BinOp object at 0x7f93808b4dc0&#45;&gt;ast.Constant object at 0x7f93808b4070</title>
<path fill="none" stroke="black" d="M1476.38,-143.7C1481.49,-135.56 1487.7,-125.69 1493.34,-116.7"/>
<polygon fill="black" stroke="black" points="1496.39,-118.43 1498.75,-108.1 1490.46,-114.71 1496.39,-118.43"/>
</g>
<!-- ast.Name object at 0x7f93808b7ee0&#45;&gt;ast.Load object at 0x7f93d26f1f60 -->
<g id="edge49" class="edge">
<title>ast.Name object at 0x7f93808b7ee0&#45;&gt;ast.Load object at 0x7f93d26f1f60</title>
<path fill="none" stroke="black" d="M1404.36,-74.98C1401.42,-73.82 1398.43,-72.8 1395.5,-72 1290.64,-43.49 956.51,-25.89 843.93,-20.65"/>
<polygon fill="black" stroke="black" points="843.9,-17.15 833.75,-20.18 843.57,-24.14 843.9,-17.15"/>
</g>
<!-- ast.Name object at 0x7f93808b50f0 -->
<g id="node41" class="node">
<title>ast.Name object at 0x7f93808b50f0</title>
<path fill="#66cdaa" stroke="black" d="M1302.5,-108C1302.5,-108 1272.5,-108 1272.5,-108 1266.5,-108 1260.5,-102 1260.5,-96 1260.5,-96 1260.5,-84 1260.5,-84 1260.5,-78 1266.5,-72 1272.5,-72 1272.5,-72 1302.5,-72 1302.5,-72 1308.5,-72 1314.5,-78 1314.5,-84 1314.5,-84 1314.5,-96 1314.5,-96 1314.5,-102 1308.5,-108 1302.5,-108"/>
<text text-anchor="middle" x="1287.5" y="-86.3" font-family="Times,serif" font-size="14.00">Name</text>
</g>
<!-- ast.Call object at 0x7f93808b6ad0&#45;&gt;ast.Name object at 0x7f93808b50f0 -->
<g id="edge53" class="edge">
<title>ast.Call object at 0x7f93808b6ad0&#45;&gt;ast.Name object at 0x7f93808b50f0</title>
<path fill="none" stroke="black" d="M1338.69,-143.7C1330.37,-135.14 1320.19,-124.66 1311.11,-115.3"/>
<polygon fill="black" stroke="black" points="1313.59,-112.84 1304.12,-108.1 1308.57,-117.72 1313.59,-112.84"/>
</g>
<!-- ast.Name object at 0x7f93808b5870 -->
<g id="node42" class="node">
<title>ast.Name object at 0x7f93808b5870</title>
<path fill="#66cdaa" stroke="black" d="M1230.5,-108C1230.5,-108 1200.5,-108 1200.5,-108 1194.5,-108 1188.5,-102 1188.5,-96 1188.5,-96 1188.5,-84 1188.5,-84 1188.5,-78 1194.5,-72 1200.5,-72 1200.5,-72 1230.5,-72 1230.5,-72 1236.5,-72 1242.5,-78 1242.5,-84 1242.5,-84 1242.5,-96 1242.5,-96 1242.5,-102 1236.5,-108 1230.5,-108"/>
<text text-anchor="middle" x="1215.5" y="-86.3" font-family="Times,serif" font-size="14.00">Name</text>
</g>
<!-- ast.Call object at 0x7f93808b6ad0&#45;&gt;ast.Name object at 0x7f93808b5870 -->
<g id="edge55" class="edge">
<title>ast.Call object at 0x7f93808b6ad0&#45;&gt;ast.Name object at 0x7f93808b5870</title>
<path fill="none" stroke="black" d="M1328.17,-147.34C1306.4,-136.45 1275.71,-121.1 1251.86,-109.18"/>
<polygon fill="black" stroke="black" points="1253.27,-105.97 1242.76,-104.63 1250.14,-112.23 1253.27,-105.97"/>
</g>
<!-- ast.Name object at 0x7f93808b50f0&#45;&gt;ast.Load object at 0x7f93d26f1f60 -->
<g id="edge54" class="edge">
<title>ast.Name object at 0x7f93808b50f0&#45;&gt;ast.Load object at 0x7f93d26f1f60</title>
<path fill="none" stroke="black" d="M1260.34,-75.06C1257.4,-73.89 1254.42,-72.84 1251.5,-72 1104.74,-29.82 921.45,-21.16 843.9,-19.42"/>
<polygon fill="black" stroke="black" points="843.75,-15.92 833.68,-19.22 843.61,-22.92 843.75,-15.92"/>
</g>
<!-- ast.Name object at 0x7f93808b5870&#45;&gt;ast.Load object at 0x7f93d26f1f60 -->
<g id="edge56" class="edge">
<title>ast.Name object at 0x7f93808b5870&#45;&gt;ast.Load object at 0x7f93d26f1f60</title>
<path fill="none" stroke="black" d="M1188.49,-76.69C1183.89,-74.91 1179.11,-73.27 1174.5,-72 1056.34,-39.55 911.05,-26.08 843.85,-21.29"/>
<polygon fill="black" stroke="black" points="843.97,-17.79 833.75,-20.59 843.49,-24.77 843.97,-17.79"/>
</g>
<!-- ast.Name object at 0x7f93808b7190 -->
<g id="node44" class="node">
<title>ast.Name object at 0x7f93808b7190</title>
<path fill="#66cdaa" stroke="black" d="M620.5,-324C620.5,-324 590.5,-324 590.5,-324 584.5,-324 578.5,-318 578.5,-312 578.5,-312 578.5,-300 578.5,-300 578.5,-294 584.5,-288 590.5,-288 590.5,-288 620.5,-288 620.5,-288 626.5,-288 632.5,-294 632.5,-300 632.5,-300 632.5,-312 632.5,-312 632.5,-318 626.5,-324 620.5,-324"/>
<text text-anchor="middle" x="605.5" y="-302.3" font-family="Times,serif" font-size="14.00">Name</text>
</g>
<!-- ast.Assign object at 0x7f93808b4d30&#45;&gt;ast.Name object at 0x7f93808b7190 -->
<g id="edge58" class="edge">
<title>ast.Assign object at 0x7f93808b4d30&#45;&gt;ast.Name object at 0x7f93808b7190</title>
<path fill="none" stroke="black" d="M614.53,-359.7C613.21,-351.98 611.62,-342.71 610.15,-334.11"/>
<polygon fill="black" stroke="black" points="613.57,-333.37 608.43,-324.1 606.67,-334.55 613.57,-333.37"/>
</g>
<!-- ast.Call object at 0x7f93808b65f0 -->
<g id="node45" class="node">
<title>ast.Call object at 0x7f93808b65f0</title>
<path fill="#66cdaa" stroke="black" d="M753.5,-324C753.5,-324 723.5,-324 723.5,-324 717.5,-324 711.5,-318 711.5,-312 711.5,-312 711.5,-300 711.5,-300 711.5,-294 717.5,-288 723.5,-288 723.5,-288 753.5,-288 753.5,-288 759.5,-288 765.5,-294 765.5,-300 765.5,-300 765.5,-312 765.5,-312 765.5,-318 759.5,-324 753.5,-324"/>
<text text-anchor="middle" x="738.5" y="-302.3" font-family="Times,serif" font-size="14.00">Call</text>
</g>
<!-- ast.Assign object at 0x7f93808b4d30&#45;&gt;ast.Call object at 0x7f93808b65f0 -->
<g id="edge60" class="edge">
<title>ast.Assign object at 0x7f93808b4d30&#45;&gt;ast.Call object at 0x7f93808b65f0</title>
<path fill="none" stroke="black" d="M644.65,-361.29C661.78,-351.38 684.09,-338.48 702.66,-327.73"/>
<polygon fill="black" stroke="black" points="704.53,-330.69 711.44,-322.66 701.03,-324.63 704.53,-330.69"/>
</g>
<!-- ast.Name object at 0x7f93808b7190&#45;&gt;ast.Store object at 0x7f93d26f1fc0 -->
<g id="edge59" class="edge">
<title>ast.Name object at 0x7f93808b7190&#45;&gt;ast.Store object at 0x7f93d26f1fc0</title>
<path fill="none" stroke="black" d="M599.95,-287.87C592.08,-263.56 577.58,-218.82 568.25,-190.01"/>
<polygon fill="black" stroke="black" points="571.48,-188.62 565.07,-180.19 564.82,-190.78 571.48,-188.62"/>
</g>
<!-- ast.Attribute object at 0x7f93808b5c90 -->
<g id="node46" class="node">
<title>ast.Attribute object at 0x7f93808b5c90</title>
<path fill="#66cdaa" stroke="black" d="M777,-252C777,-252 736,-252 736,-252 730,-252 724,-246 724,-240 724,-240 724,-228 724,-228 724,-222 730,-216 736,-216 736,-216 777,-216 777,-216 783,-216 789,-222 789,-228 789,-228 789,-240 789,-240 789,-246 783,-252 777,-252"/>
<text text-anchor="middle" x="756.5" y="-230.3" font-family="Times,serif" font-size="14.00">Attribute</text>
</g>
<!-- ast.Call object at 0x7f93808b65f0&#45;&gt;ast.Attribute object at 0x7f93808b5c90 -->
<g id="edge61" class="edge">
<title>ast.Call object at 0x7f93808b65f0&#45;&gt;ast.Attribute object at 0x7f93808b5c90</title>
<path fill="none" stroke="black" d="M742.95,-287.7C744.95,-279.9 747.37,-270.51 749.6,-261.83"/>
<polygon fill="black" stroke="black" points="753,-262.66 752.1,-252.1 746.22,-260.92 753,-262.66"/>
</g>
<!-- ast.Attribute object at 0x7f93808b5c90&#45;&gt;ast.Load object at 0x7f93d26f1f60 -->
<g id="edge68" class="edge">
<title>ast.Attribute object at 0x7f93808b5c90&#45;&gt;ast.Load object at 0x7f93d26f1f60</title>
<path fill="none" stroke="black" d="M723.69,-219.37C687.71,-204.36 634.85,-182.05 633.5,-180 624.71,-166.63 630.74,-159.76 633.5,-144 639.37,-110.49 635.44,-96.05 659.5,-72 689.11,-42.41 736.43,-29.23 769.35,-23.44"/>
<polygon fill="black" stroke="black" points="770.18,-26.85 779.5,-21.8 769.07,-19.94 770.18,-26.85"/>
</g>
<!-- ast.Subscript object at 0x7f93808b6c80 -->
<g id="node47" class="node">
<title>ast.Subscript object at 0x7f93808b6c80</title>
<path fill="#66cdaa" stroke="black" d="M698.5,-180C698.5,-180 654.5,-180 654.5,-180 648.5,-180 642.5,-174 642.5,-168 642.5,-168 642.5,-156 642.5,-156 642.5,-150 648.5,-144 654.5,-144 654.5,-144 698.5,-144 698.5,-144 704.5,-144 710.5,-150 710.5,-156 710.5,-156 710.5,-168 710.5,-168 710.5,-174 704.5,-180 698.5,-180"/>
<text text-anchor="middle" x="676.5" y="-158.3" font-family="Times,serif" font-size="14.00">Subscript</text>
</g>
<!-- ast.Attribute object at 0x7f93808b5c90&#45;&gt;ast.Subscript object at 0x7f93808b6c80 -->
<g id="edge62" class="edge">
<title>ast.Attribute object at 0x7f93808b5c90&#45;&gt;ast.Subscript object at 0x7f93808b6c80</title>
<path fill="none" stroke="black" d="M736.72,-215.7C726.75,-206.97 714.49,-196.24 703.64,-186.75"/>
<polygon fill="black" stroke="black" points="705.88,-184.06 696.05,-180.1 701.27,-189.32 705.88,-184.06"/>
</g>
<!-- ast.Subscript object at 0x7f93808b6c80&#45;&gt;ast.Load object at 0x7f93d26f1f60 -->
<g id="edge67" class="edge">
<title>ast.Subscript object at 0x7f93808b6c80&#45;&gt;ast.Load object at 0x7f93d26f1f60</title>
<path fill="none" stroke="black" d="M669.83,-143.95C663.51,-124.72 656.94,-93.35 671.5,-72 693.23,-40.13 737.29,-27.42 769.18,-22.36"/>
<polygon fill="black" stroke="black" points="770.06,-25.77 779.47,-20.92 769.09,-18.84 770.06,-25.77"/>
</g>
<!-- ast.Name object at 0x7f93808b7760 -->
<g id="node48" class="node">
<title>ast.Name object at 0x7f93808b7760</title>
<path fill="#66cdaa" stroke="black" d="M722.5,-108C722.5,-108 692.5,-108 692.5,-108 686.5,-108 680.5,-102 680.5,-96 680.5,-96 680.5,-84 680.5,-84 680.5,-78 686.5,-72 692.5,-72 692.5,-72 722.5,-72 722.5,-72 728.5,-72 734.5,-78 734.5,-84 734.5,-84 734.5,-96 734.5,-96 734.5,-102 728.5,-108 722.5,-108"/>
<text text-anchor="middle" x="707.5" y="-86.3" font-family="Times,serif" font-size="14.00">Name</text>
</g>
<!-- ast.Subscript object at 0x7f93808b6c80&#45;&gt;ast.Name object at 0x7f93808b7760 -->
<g id="edge63" class="edge">
<title>ast.Subscript object at 0x7f93808b6c80&#45;&gt;ast.Name object at 0x7f93808b7760</title>
<path fill="none" stroke="black" d="M684.16,-143.7C687.69,-135.73 691.96,-126.1 695.87,-117.26"/>
<polygon fill="black" stroke="black" points="699.08,-118.67 699.93,-108.1 692.68,-115.83 699.08,-118.67"/>
</g>
<!-- ast.Name object at 0x7f93808b6530 -->
<g id="node49" class="node">
<title>ast.Name object at 0x7f93808b6530</title>
<path fill="#66cdaa" stroke="black" d="M794.5,-108C794.5,-108 764.5,-108 764.5,-108 758.5,-108 752.5,-102 752.5,-96 752.5,-96 752.5,-84 752.5,-84 752.5,-78 758.5,-72 764.5,-72 764.5,-72 794.5,-72 794.5,-72 800.5,-72 806.5,-78 806.5,-84 806.5,-84 806.5,-96 806.5,-96 806.5,-102 800.5,-108 794.5,-108"/>
<text text-anchor="middle" x="779.5" y="-86.3" font-family="Times,serif" font-size="14.00">Name</text>
</g>
<!-- ast.Subscript object at 0x7f93808b6c80&#45;&gt;ast.Name object at 0x7f93808b6530 -->
<g id="edge65" class="edge">
<title>ast.Subscript object at 0x7f93808b6c80&#45;&gt;ast.Name object at 0x7f93808b6530</title>
<path fill="none" stroke="black" d="M701.7,-143.88C714.91,-134.89 731.29,-123.76 745.61,-114.03"/>
<polygon fill="black" stroke="black" points="747.9,-116.71 754.21,-108.19 743.97,-110.92 747.9,-116.71"/>
</g>
<!-- ast.Name object at 0x7f93808b7760&#45;&gt;ast.Load object at 0x7f93d26f1f60 -->
<g id="edge64" class="edge">
<title>ast.Name object at 0x7f93808b7760&#45;&gt;ast.Load object at 0x7f93d26f1f60</title>
<path fill="none" stroke="black" d="M731.72,-71.88C744.42,-62.89 760.16,-51.76 773.92,-42.03"/>
<polygon fill="black" stroke="black" points="776.04,-44.82 782.19,-36.19 772,-39.11 776.04,-44.82"/>
</g>
<!-- ast.Name object at 0x7f93808b6530&#45;&gt;ast.Load object at 0x7f93d26f1f60 -->
<g id="edge66" class="edge">
<title>ast.Name object at 0x7f93808b6530&#45;&gt;ast.Load object at 0x7f93d26f1f60</title>
<path fill="none" stroke="black" d="M786.17,-71.7C789.21,-63.81 792.88,-54.3 796.26,-45.55"/>
<polygon fill="black" stroke="black" points="799.57,-46.69 799.9,-36.1 793.04,-44.17 799.57,-46.69"/>
</g>
<!-- ast.Compare object at 0x7f93808b75e0 -->
<g id="node51" class="node">
<title>ast.Compare object at 0x7f93808b75e0</title>
<path fill="#66cdaa" stroke="black" d="M347,-252C347,-252 304,-252 304,-252 298,-252 292,-246 292,-240 292,-240 292,-228 292,-228 292,-222 298,-216 304,-216 304,-216 347,-216 347,-216 353,-216 359,-222 359,-228 359,-228 359,-240 359,-240 359,-246 353,-252 347,-252"/>
<text text-anchor="middle" x="325.5" y="-230.3" font-family="Times,serif" font-size="14.00">Compare</text>
</g>
<!-- ast.If object at 0x7f93808b4be0&#45;&gt;ast.Compare object at 0x7f93808b75e0 -->
<g id="edge70" class="edge">
<title>ast.If object at 0x7f93808b4be0&#45;&gt;ast.Compare object at 0x7f93808b75e0</title>
<path fill="none" stroke="black" d="M465.45,-292.02C462.44,-290.64 459.41,-289.28 456.5,-288 427.41,-275.26 394.24,-261.85 368.55,-251.71"/>
<polygon fill="black" stroke="black" points="369.69,-248.39 359.1,-247.99 367.13,-254.91 369.69,-248.39"/>
</g>
<!-- ast.Continue object at 0x7f93808b5450 -->
<g id="node56" class="node">
<title>ast.Continue object at 0x7f93808b5450</title>
<path fill="#66cdaa" stroke="black" d="M507.5,-252C507.5,-252 465.5,-252 465.5,-252 459.5,-252 453.5,-246 453.5,-240 453.5,-240 453.5,-228 453.5,-228 453.5,-222 459.5,-216 465.5,-216 465.5,-216 507.5,-216 507.5,-216 513.5,-216 519.5,-222 519.5,-228 519.5,-228 519.5,-240 519.5,-240 519.5,-246 513.5,-252 507.5,-252"/>
<text text-anchor="middle" x="486.5" y="-230.3" font-family="Times,serif" font-size="14.00">Continue</text>
</g>
<!-- ast.If object at 0x7f93808b4be0&#45;&gt;ast.Continue object at 0x7f93808b5450 -->
<g id="edge78" class="edge">
<title>ast.If object at 0x7f93808b4be0&#45;&gt;ast.Continue object at 0x7f93808b5450</title>
<path fill="none" stroke="black" d="M491.02,-287.7C490.36,-279.98 489.56,-270.71 488.82,-262.11"/>
<polygon fill="black" stroke="black" points="492.31,-261.77 487.97,-252.1 485.33,-262.37 492.31,-261.77"/>
</g>
<!-- ast.Compare object at 0x7f93808b75e0&#45;&gt;ast.Lt object at 0x7f93d26f2950 -->
<g id="edge76" class="edge">
<title>ast.Compare object at 0x7f93808b75e0&#45;&gt;ast.Lt object at 0x7f93d26f2950</title>
<path fill="none" stroke="black" d="M305.72,-215.7C295.75,-206.97 283.49,-196.24 272.64,-186.75"/>
<polygon fill="black" stroke="black" points="274.88,-184.06 265.05,-180.1 270.27,-189.32 274.88,-184.06"/>
</g>
<!-- ast.Call object at 0x7f93808b7c10 -->
<g id="node52" class="node">
<title>ast.Call object at 0x7f93808b7c10</title>
<path fill="#66cdaa" stroke="black" d="M418.5,-180C418.5,-180 388.5,-180 388.5,-180 382.5,-180 376.5,-174 376.5,-168 376.5,-168 376.5,-156 376.5,-156 376.5,-150 382.5,-144 388.5,-144 388.5,-144 418.5,-144 418.5,-144 424.5,-144 430.5,-150 430.5,-156 430.5,-156 430.5,-168 430.5,-168 430.5,-174 424.5,-180 418.5,-180"/>
<text text-anchor="middle" x="403.5" y="-158.3" font-family="Times,serif" font-size="14.00">Call</text>
</g>
<!-- ast.Compare object at 0x7f93808b75e0&#45;&gt;ast.Call object at 0x7f93808b7c10 -->
<g id="edge71" class="edge">
<title>ast.Compare object at 0x7f93808b75e0&#45;&gt;ast.Call object at 0x7f93808b7c10</title>
<path fill="none" stroke="black" d="M344.78,-215.7C354.42,-207.05 366.23,-196.45 376.73,-187.03"/>
<polygon fill="black" stroke="black" points="379.34,-189.39 384.44,-180.1 374.66,-184.18 379.34,-189.39"/>
</g>
<!-- ast.Constant object at 0x7f93808b6fe0 -->
<g id="node55" class="node">
<title>ast.Constant object at 0x7f93808b6fe0</title>
<path fill="#66cdaa" stroke="black" d="M502,-180C502,-180 461,-180 461,-180 455,-180 449,-174 449,-168 449,-168 449,-156 449,-156 449,-150 455,-144 461,-144 461,-144 502,-144 502,-144 508,-144 514,-150 514,-156 514,-156 514,-168 514,-168 514,-174 508,-180 502,-180"/>
<text text-anchor="middle" x="481.5" y="-158.3" font-family="Times,serif" font-size="14.00">Constant</text>
</g>
<!-- ast.Compare object at 0x7f93808b75e0&#45;&gt;ast.Constant object at 0x7f93808b6fe0 -->
<g id="edge77" class="edge">
<title>ast.Compare object at 0x7f93808b75e0&#45;&gt;ast.Constant object at 0x7f93808b6fe0</title>
<path fill="none" stroke="black" d="M359.35,-217.81C382.87,-207.26 414.38,-193.12 439.5,-181.85"/>
<polygon fill="black" stroke="black" points="441.09,-184.97 448.79,-177.68 438.23,-178.58 441.09,-184.97"/>
</g>
<!-- ast.Name object at 0x7f93808b5960 -->
<g id="node53" class="node">
<title>ast.Name object at 0x7f93808b5960</title>
<path fill="#66cdaa" stroke="black" d="M502.5,-108C502.5,-108 472.5,-108 472.5,-108 466.5,-108 460.5,-102 460.5,-96 460.5,-96 460.5,-84 460.5,-84 460.5,-78 466.5,-72 472.5,-72 472.5,-72 502.5,-72 502.5,-72 508.5,-72 514.5,-78 514.5,-84 514.5,-84 514.5,-96 514.5,-96 514.5,-102 508.5,-108 502.5,-108"/>
<text text-anchor="middle" x="487.5" y="-86.3" font-family="Times,serif" font-size="14.00">Name</text>
</g>
<!-- ast.Call object at 0x7f93808b7c10&#45;&gt;ast.Name object at 0x7f93808b5960 -->
<g id="edge72" class="edge">
<title>ast.Call object at 0x7f93808b7c10&#45;&gt;ast.Name object at 0x7f93808b5960</title>
<path fill="none" stroke="black" d="M424.26,-143.7C434.74,-134.97 447.61,-124.24 459,-114.75"/>
<polygon fill="black" stroke="black" points="461.53,-117.19 466.97,-108.1 457.05,-111.82 461.53,-117.19"/>
</g>
<!-- ast.Name object at 0x7f93808b78e0 -->
<g id="node54" class="node">
<title>ast.Name object at 0x7f93808b78e0</title>
<path fill="#66cdaa" stroke="black" d="M574.5,-108C574.5,-108 544.5,-108 544.5,-108 538.5,-108 532.5,-102 532.5,-96 532.5,-96 532.5,-84 532.5,-84 532.5,-78 538.5,-72 544.5,-72 544.5,-72 574.5,-72 574.5,-72 580.5,-72 586.5,-78 586.5,-84 586.5,-84 586.5,-96 586.5,-96 586.5,-102 580.5,-108 574.5,-108"/>
<text text-anchor="middle" x="559.5" y="-86.3" font-family="Times,serif" font-size="14.00">Name</text>
</g>
<!-- ast.Call object at 0x7f93808b7c10&#45;&gt;ast.Name object at 0x7f93808b78e0 -->
<g id="edge74" class="edge">
<title>ast.Call object at 0x7f93808b7c10&#45;&gt;ast.Name object at 0x7f93808b78e0</title>
<path fill="none" stroke="black" d="M430.58,-148.08C433.58,-146.69 436.6,-145.31 439.5,-144 473.93,-128.5 484.93,-125.12 523.24,-108.04"/>
<polygon fill="black" stroke="black" points="524.73,-111.2 532.42,-103.92 521.87,-104.82 524.73,-111.2"/>
</g>
<!-- ast.Name object at 0x7f93808b5960&#45;&gt;ast.Load object at 0x7f93d26f1f60 -->
<g id="edge73" class="edge">
<title>ast.Name object at 0x7f93808b5960&#45;&gt;ast.Load object at 0x7f93d26f1f60</title>
<path fill="none" stroke="black" d="M514.72,-75.26C517.64,-74.05 520.61,-72.94 523.5,-72 609.28,-44.22 714.67,-29.28 769.46,-22.87"/>
<polygon fill="black" stroke="black" points="769.86,-26.35 779.4,-21.74 769.07,-19.39 769.86,-26.35"/>
</g>
<!-- ast.Name object at 0x7f93808b78e0&#45;&gt;ast.Load object at 0x7f93d26f1f60 -->
<g id="edge75" class="edge">
<title>ast.Name object at 0x7f93808b78e0&#45;&gt;ast.Load object at 0x7f93d26f1f60</title>
<path fill="none" stroke="black" d="M586.64,-77.12C591.23,-75.29 595.97,-73.51 600.5,-72 658.62,-52.58 727.95,-36.07 769.53,-26.85"/>
<polygon fill="black" stroke="black" points="770.46,-30.23 779.48,-24.67 768.96,-23.39 770.46,-30.23"/>
</g>
<!-- ast.Compare object at 0x7f93808b6860 -->
<g id="node58" class="node">
<title>ast.Compare object at 0x7f93808b6860</title>
<path fill="#66cdaa" stroke="black" d="M1138,-252C1138,-252 1095,-252 1095,-252 1089,-252 1083,-246 1083,-240 1083,-240 1083,-228 1083,-228 1083,-222 1089,-216 1095,-216 1095,-216 1138,-216 1138,-216 1144,-216 1150,-222 1150,-228 1150,-228 1150,-240 1150,-240 1150,-246 1144,-252 1138,-252"/>
<text text-anchor="middle" x="1116.5" y="-230.3" font-family="Times,serif" font-size="14.00">Compare</text>
</g>
<!-- ast.If object at 0x7f93808b70a0&#45;&gt;ast.Compare object at 0x7f93808b6860 -->
<g id="edge80" class="edge">
<title>ast.If object at 0x7f93808b70a0&#45;&gt;ast.Compare object at 0x7f93808b6860</title>
<path fill="none" stroke="black" d="M907.96,-359.97C923.28,-349.88 942.78,-336.63 959.5,-324 979.39,-308.98 981.46,-301.37 1002.5,-288 1024.8,-273.83 1051.51,-261.2 1073.47,-251.84"/>
<polygon fill="black" stroke="black" points="1075,-254.99 1082.87,-247.9 1072.3,-248.53 1075,-254.99"/>
</g>
<!-- ast.AugAssign object at 0x7f93914bf6d0 -->
<g id="node66" class="node">
<title>ast.AugAssign object at 0x7f93914bf6d0</title>
<path fill="#66cdaa" stroke="black" d="M866,-324C866,-324 813,-324 813,-324 807,-324 801,-318 801,-312 801,-312 801,-300 801,-300 801,-294 807,-288 813,-288 813,-288 866,-288 866,-288 872,-288 878,-294 878,-300 878,-300 878,-312 878,-312 878,-318 872,-324 866,-324"/>
<text text-anchor="middle" x="839.5" y="-302.3" font-family="Times,serif" font-size="14.00">AugAssign</text>
</g>
<!-- ast.If object at 0x7f93808b70a0&#45;&gt;ast.AugAssign object at 0x7f93914bf6d0 -->
<g id="edge92" class="edge">
<title>ast.If object at 0x7f93808b70a0&#45;&gt;ast.AugAssign object at 0x7f93914bf6d0</title>
<path fill="none" stroke="black" d="M871.12,-359.7C866.24,-351.56 860.31,-341.69 854.92,-332.7"/>
<polygon fill="black" stroke="black" points="857.91,-330.88 849.76,-324.1 851.91,-334.48 857.91,-330.88"/>
</g>
<!-- ast.If object at 0x7f93914bd9c0 -->
<g id="node69" class="node">
<title>ast.If object at 0x7f93914bd9c0</title>
<path fill="#66cdaa" stroke="black" d="M938.5,-324C938.5,-324 908.5,-324 908.5,-324 902.5,-324 896.5,-318 896.5,-312 896.5,-312 896.5,-300 896.5,-300 896.5,-294 902.5,-288 908.5,-288 908.5,-288 938.5,-288 938.5,-288 944.5,-288 950.5,-294 950.5,-300 950.5,-300 950.5,-312 950.5,-312 950.5,-318 944.5,-324 938.5,-324"/>
<text text-anchor="middle" x="923.5" y="-302.3" font-family="Times,serif" font-size="14.00">If</text>
</g>
<!-- ast.If object at 0x7f93808b70a0&#45;&gt;ast.If object at 0x7f93914bd9c0 -->
<g id="edge97" class="edge">
<title>ast.If object at 0x7f93808b70a0&#45;&gt;ast.If object at 0x7f93914bd9c0</title>
<path fill="none" stroke="black" d="M891.88,-359.7C896.76,-351.56 902.69,-341.69 908.08,-332.7"/>
<polygon fill="black" stroke="black" points="911.09,-334.48 913.24,-324.1 905.09,-330.88 911.09,-334.48"/>
</g>
<!-- ast.Call object at 0x7f93808b6a40 -->
<g id="node59" class="node">
<title>ast.Call object at 0x7f93808b6a40</title>
<path fill="#66cdaa" stroke="black" d="M1082.5,-180C1082.5,-180 1052.5,-180 1052.5,-180 1046.5,-180 1040.5,-174 1040.5,-168 1040.5,-168 1040.5,-156 1040.5,-156 1040.5,-150 1046.5,-144 1052.5,-144 1052.5,-144 1082.5,-144 1082.5,-144 1088.5,-144 1094.5,-150 1094.5,-156 1094.5,-156 1094.5,-168 1094.5,-168 1094.5,-174 1088.5,-180 1082.5,-180"/>
<text text-anchor="middle" x="1067.5" y="-158.3" font-family="Times,serif" font-size="14.00">Call</text>
</g>
<!-- ast.Compare object at 0x7f93808b6860&#45;&gt;ast.Call object at 0x7f93808b6a40 -->
<g id="edge81" class="edge">
<title>ast.Compare object at 0x7f93808b6860&#45;&gt;ast.Call object at 0x7f93808b6a40</title>
<path fill="none" stroke="black" d="M1104.39,-215.7C1098.63,-207.47 1091.64,-197.48 1085.29,-188.42"/>
<polygon fill="black" stroke="black" points="1088.08,-186.29 1079.47,-180.1 1082.34,-190.3 1088.08,-186.29"/>
</g>
<!-- ast.Eq object at 0x7f93d26f2890 -->
<g id="node62" class="node">
<title>ast.Eq object at 0x7f93d26f2890</title>
<path fill="#66cdaa" stroke="black" d="M1226.5,-180C1226.5,-180 1196.5,-180 1196.5,-180 1190.5,-180 1184.5,-174 1184.5,-168 1184.5,-168 1184.5,-156 1184.5,-156 1184.5,-150 1190.5,-144 1196.5,-144 1196.5,-144 1226.5,-144 1226.5,-144 1232.5,-144 1238.5,-150 1238.5,-156 1238.5,-156 1238.5,-168 1238.5,-168 1238.5,-174 1232.5,-180 1226.5,-180"/>
<text text-anchor="middle" x="1211.5" y="-158.3" font-family="Times,serif" font-size="14.00">Eq</text>
</g>
<!-- ast.Compare object at 0x7f93808b6860&#45;&gt;ast.Eq object at 0x7f93d26f2890 -->
<g id="edge86" class="edge">
<title>ast.Compare object at 0x7f93808b6860&#45;&gt;ast.Eq object at 0x7f93d26f2890</title>
<path fill="none" stroke="black" d="M1139.98,-215.7C1152.06,-206.8 1166.95,-195.82 1180.02,-186.2"/>
<polygon fill="black" stroke="black" points="1182.31,-188.85 1188.29,-180.1 1178.16,-183.22 1182.31,-188.85"/>
</g>
<!-- ast.Call object at 0x7f93914bc7c0 -->
<g id="node63" class="node">
<title>ast.Call object at 0x7f93914bc7c0</title>
<path fill="#66cdaa" stroke="black" d="M1154.5,-180C1154.5,-180 1124.5,-180 1124.5,-180 1118.5,-180 1112.5,-174 1112.5,-168 1112.5,-168 1112.5,-156 1112.5,-156 1112.5,-150 1118.5,-144 1124.5,-144 1124.5,-144 1154.5,-144 1154.5,-144 1160.5,-144 1166.5,-150 1166.5,-156 1166.5,-156 1166.5,-168 1166.5,-168 1166.5,-174 1160.5,-180 1154.5,-180"/>
<text text-anchor="middle" x="1139.5" y="-158.3" font-family="Times,serif" font-size="14.00">Call</text>
</g>
<!-- ast.Compare object at 0x7f93808b6860&#45;&gt;ast.Call object at 0x7f93914bc7c0 -->
<g id="edge87" class="edge">
<title>ast.Compare object at 0x7f93808b6860&#45;&gt;ast.Call object at 0x7f93914bc7c0</title>
<path fill="none" stroke="black" d="M1122.19,-215.7C1124.75,-207.9 1127.83,-198.51 1130.68,-189.83"/>
<polygon fill="black" stroke="black" points="1134.08,-190.7 1133.88,-180.1 1127.43,-188.51 1134.08,-190.7"/>
</g>
<!-- ast.Name object at 0x7f93808b63b0 -->
<g id="node60" class="node">
<title>ast.Name object at 0x7f93808b63b0</title>
<path fill="#66cdaa" stroke="black" d="M904.5,-108C904.5,-108 874.5,-108 874.5,-108 868.5,-108 862.5,-102 862.5,-96 862.5,-96 862.5,-84 862.5,-84 862.5,-78 868.5,-72 874.5,-72 874.5,-72 904.5,-72 904.5,-72 910.5,-72 916.5,-78 916.5,-84 916.5,-84 916.5,-96 916.5,-96 916.5,-102 910.5,-108 904.5,-108"/>
<text text-anchor="middle" x="889.5" y="-86.3" font-family="Times,serif" font-size="14.00">Name</text>
</g>
<!-- ast.Call object at 0x7f93808b6a40&#45;&gt;ast.Name object at 0x7f93808b63b0 -->
<g id="edge82" class="edge">
<title>ast.Call object at 0x7f93808b6a40&#45;&gt;ast.Name object at 0x7f93808b63b0</title>
<path fill="none" stroke="black" d="M1040.13,-147.68C1037.23,-146.39 1034.32,-145.14 1031.5,-144 988.17,-126.48 973.41,-126.57 926.38,-108.13"/>
<polygon fill="black" stroke="black" points="927.46,-104.79 916.87,-104.32 924.86,-111.29 927.46,-104.79"/>
</g>
<!-- ast.Name object at 0x7f93808b4280 -->
<g id="node61" class="node">
<title>ast.Name object at 0x7f93808b4280</title>
<path fill="#66cdaa" stroke="black" d="M976.5,-108C976.5,-108 946.5,-108 946.5,-108 940.5,-108 934.5,-102 934.5,-96 934.5,-96 934.5,-84 934.5,-84 934.5,-78 940.5,-72 946.5,-72 946.5,-72 976.5,-72 976.5,-72 982.5,-72 988.5,-78 988.5,-84 988.5,-84 988.5,-96 988.5,-96 988.5,-102 982.5,-108 976.5,-108"/>
<text text-anchor="middle" x="961.5" y="-86.3" font-family="Times,serif" font-size="14.00">Name</text>
</g>
<!-- ast.Call object at 0x7f93808b6a40&#45;&gt;ast.Name object at 0x7f93808b4280 -->
<g id="edge84" class="edge">
<title>ast.Call object at 0x7f93808b6a40&#45;&gt;ast.Name object at 0x7f93808b4280</title>
<path fill="none" stroke="black" d="M1041.57,-143.88C1027.84,-134.81 1010.79,-123.55 995.96,-113.76"/>
<polygon fill="black" stroke="black" points="997.8,-110.78 987.53,-108.19 993.95,-116.62 997.8,-110.78"/>
</g>
<!-- ast.Name object at 0x7f93808b63b0&#45;&gt;ast.Load object at 0x7f93d26f1f60 -->
<g id="edge83" class="edge">
<title>ast.Name object at 0x7f93808b63b0&#45;&gt;ast.Load object at 0x7f93d26f1f60</title>
<path fill="none" stroke="black" d="M868.98,-71.7C858.63,-62.97 845.91,-52.24 834.66,-42.75"/>
<polygon fill="black" stroke="black" points="836.68,-39.88 826.78,-36.1 832.17,-45.23 836.68,-39.88"/>
</g>
<!-- ast.Name object at 0x7f93808b4280&#45;&gt;ast.Load object at 0x7f93d26f1f60 -->
<g id="edge85" class="edge">
<title>ast.Name object at 0x7f93808b4280&#45;&gt;ast.Load object at 0x7f93d26f1f60</title>
<path fill="none" stroke="black" d="M934.4,-76.13C931.4,-74.72 928.39,-73.33 925.5,-72 897.86,-59.32 866.42,-45.34 842.8,-34.92"/>
<polygon fill="black" stroke="black" points="844.08,-31.66 833.52,-30.83 841.26,-38.06 844.08,-31.66"/>
</g>
<!-- ast.Name object at 0x7f93914bd690 -->
<g id="node64" class="node">
<title>ast.Name object at 0x7f93914bd690</title>
<path fill="#66cdaa" stroke="black" d="M1048.5,-108C1048.5,-108 1018.5,-108 1018.5,-108 1012.5,-108 1006.5,-102 1006.5,-96 1006.5,-96 1006.5,-84 1006.5,-84 1006.5,-78 1012.5,-72 1018.5,-72 1018.5,-72 1048.5,-72 1048.5,-72 1054.5,-72 1060.5,-78 1060.5,-84 1060.5,-84 1060.5,-96 1060.5,-96 1060.5,-102 1054.5,-108 1048.5,-108"/>
<text text-anchor="middle" x="1033.5" y="-86.3" font-family="Times,serif" font-size="14.00">Name</text>
</g>
<!-- ast.Call object at 0x7f93914bc7c0&#45;&gt;ast.Name object at 0x7f93914bd690 -->
<g id="edge88" class="edge">
<title>ast.Call object at 0x7f93914bc7c0&#45;&gt;ast.Name object at 0x7f93914bd690</title>
<path fill="none" stroke="black" d="M1113.57,-143.88C1099.84,-134.81 1082.79,-123.55 1067.96,-113.76"/>
<polygon fill="black" stroke="black" points="1069.8,-110.78 1059.53,-108.19 1065.95,-116.62 1069.8,-110.78"/>
</g>
<!-- ast.Name object at 0x7f93914bc430 -->
<g id="node65" class="node">
<title>ast.Name object at 0x7f93914bc430</title>
<path fill="#66cdaa" stroke="black" d="M1120.5,-108C1120.5,-108 1090.5,-108 1090.5,-108 1084.5,-108 1078.5,-102 1078.5,-96 1078.5,-96 1078.5,-84 1078.5,-84 1078.5,-78 1084.5,-72 1090.5,-72 1090.5,-72 1120.5,-72 1120.5,-72 1126.5,-72 1132.5,-78 1132.5,-84 1132.5,-84 1132.5,-96 1132.5,-96 1132.5,-102 1126.5,-108 1120.5,-108"/>
<text text-anchor="middle" x="1105.5" y="-86.3" font-family="Times,serif" font-size="14.00">Name</text>
</g>
<!-- ast.Call object at 0x7f93914bc7c0&#45;&gt;ast.Name object at 0x7f93914bc430 -->
<g id="edge90" class="edge">
<title>ast.Call object at 0x7f93914bc7c0&#45;&gt;ast.Name object at 0x7f93914bc430</title>
<path fill="none" stroke="black" d="M1131.1,-143.7C1127.23,-135.73 1122.55,-126.1 1118.26,-117.26"/>
<polygon fill="black" stroke="black" points="1121.33,-115.57 1113.81,-108.1 1115.03,-118.63 1121.33,-115.57"/>
</g>
<!-- ast.Name object at 0x7f93914bd690&#45;&gt;ast.Load object at 0x7f93d26f1f60 -->
<g id="edge89" class="edge">
<title>ast.Name object at 0x7f93914bd690&#45;&gt;ast.Load object at 0x7f93d26f1f60</title>
<path fill="none" stroke="black" d="M1006.19,-75.51C1003.28,-74.26 1000.35,-73.06 997.5,-72 945.09,-52.52 882.27,-36.41 843.36,-27.25"/>
<polygon fill="black" stroke="black" points="844.06,-23.82 833.53,-24.96 842.48,-30.64 844.06,-23.82"/>
</g>
<!-- ast.Name object at 0x7f93914bc430&#45;&gt;ast.Load object at 0x7f93d26f1f60 -->
<g id="edge91" class="edge">
<title>ast.Name object at 0x7f93914bc430&#45;&gt;ast.Load object at 0x7f93d26f1f60</title>
<path fill="none" stroke="black" d="M1078.26,-75.3C1075.34,-74.09 1072.39,-72.96 1069.5,-72 991.12,-46.02 895.17,-30.61 843.57,-23.58"/>
<polygon fill="black" stroke="black" points="843.93,-20.1 833.56,-22.25 843.01,-27.04 843.93,-20.1"/>
</g>
<!-- ast.AugAssign object at 0x7f93914bf6d0&#45;&gt;ast.Add object at 0x7f93d26f21a0 -->
<g id="edge95" class="edge">
<title>ast.AugAssign object at 0x7f93914bf6d0&#45;&gt;ast.Add object at 0x7f93d26f21a0</title>
<path fill="none" stroke="black" d="M878.02,-290.37C881.2,-289.47 884.39,-288.66 887.5,-288 989.55,-266.4 1268.94,-310.2 1355.5,-252 1397.49,-223.77 1405.07,-192.74 1391.5,-144 1388.83,-134.42 1383.91,-124.84 1378.72,-116.51"/>
<polygon fill="black" stroke="black" points="1381.52,-114.41 1373.06,-108.03 1375.7,-118.29 1381.52,-114.41"/>
</g>
<!-- ast.Name object at 0x7f93914bded0 -->
<g id="node67" class="node">
<title>ast.Name object at 0x7f93914bded0</title>
<path fill="#66cdaa" stroke="black" d="M693.5,-252C693.5,-252 663.5,-252 663.5,-252 657.5,-252 651.5,-246 651.5,-240 651.5,-240 651.5,-228 651.5,-228 651.5,-222 657.5,-216 663.5,-216 663.5,-216 693.5,-216 693.5,-216 699.5,-216 705.5,-222 705.5,-228 705.5,-228 705.5,-240 705.5,-240 705.5,-246 699.5,-252 693.5,-252"/>
<text text-anchor="middle" x="678.5" y="-230.3" font-family="Times,serif" font-size="14.00">Name</text>
</g>
<!-- ast.AugAssign object at 0x7f93914bf6d0&#45;&gt;ast.Name object at 0x7f93914bded0 -->
<g id="edge93" class="edge">
<title>ast.AugAssign object at 0x7f93914bf6d0&#45;&gt;ast.Name object at 0x7f93914bded0</title>
<path fill="none" stroke="black" d="M800.75,-289.04C778.01,-279.57 748.54,-267.11 714.74,-252.03"/>
<polygon fill="black" stroke="black" points="716.13,-248.82 705.57,-247.93 713.27,-255.21 716.13,-248.82"/>
</g>
<!-- ast.Constant object at 0x7f93914bcb50 -->
<g id="node68" class="node">
<title>ast.Constant object at 0x7f93914bcb50</title>
<path fill="#66cdaa" stroke="black" d="M860,-252C860,-252 819,-252 819,-252 813,-252 807,-246 807,-240 807,-240 807,-228 807,-228 807,-222 813,-216 819,-216 819,-216 860,-216 860,-216 866,-216 872,-222 872,-228 872,-228 872,-240 872,-240 872,-246 866,-252 860,-252"/>
<text text-anchor="middle" x="839.5" y="-230.3" font-family="Times,serif" font-size="14.00">Constant</text>
</g>
<!-- ast.AugAssign object at 0x7f93914bf6d0&#45;&gt;ast.Constant object at 0x7f93914bcb50 -->
<g id="edge96" class="edge">
<title>ast.AugAssign object at 0x7f93914bf6d0&#45;&gt;ast.Constant object at 0x7f93914bcb50</title>
<path fill="none" stroke="black" d="M839.5,-287.7C839.5,-279.98 839.5,-270.71 839.5,-262.11"/>
<polygon fill="black" stroke="black" points="843,-262.1 839.5,-252.1 836,-262.1 843,-262.1"/>
</g>
<!-- ast.Name object at 0x7f93914bded0&#45;&gt;ast.Store object at 0x7f93d26f1fc0 -->
<g id="edge94" class="edge">
<title>ast.Name object at 0x7f93914bded0&#45;&gt;ast.Store object at 0x7f93d26f1fc0</title>
<path fill="none" stroke="black" d="M651.5,-217.12C635.03,-207.43 613.77,-194.92 595.84,-184.38"/>
<polygon fill="black" stroke="black" points="597.2,-181.12 586.81,-179.06 593.65,-187.15 597.2,-181.12"/>
</g>
<!-- ast.Compare object at 0x7f93914be650 -->
<g id="node70" class="node">
<title>ast.Compare object at 0x7f93914be650</title>
<path fill="#66cdaa" stroke="black" d="M945,-252C945,-252 902,-252 902,-252 896,-252 890,-246 890,-240 890,-240 890,-228 890,-228 890,-222 896,-216 902,-216 902,-216 945,-216 945,-216 951,-216 957,-222 957,-228 957,-228 957,-240 957,-240 957,-246 951,-252 945,-252"/>
<text text-anchor="middle" x="923.5" y="-230.3" font-family="Times,serif" font-size="14.00">Compare</text>
</g>
<!-- ast.If object at 0x7f93914bd9c0&#45;&gt;ast.Compare object at 0x7f93914be650 -->
<g id="edge98" class="edge">
<title>ast.If object at 0x7f93914bd9c0&#45;&gt;ast.Compare object at 0x7f93914be650</title>
<path fill="none" stroke="black" d="M923.5,-287.7C923.5,-279.98 923.5,-270.71 923.5,-262.11"/>
<polygon fill="black" stroke="black" points="927,-262.1 923.5,-252.1 920,-262.1 927,-262.1"/>
</g>
<!-- ast.Return object at 0x7f93914be950 -->
<g id="node74" class="node">
<title>ast.Return object at 0x7f93914be950</title>
<path fill="#66cdaa" stroke="black" d="M1017.5,-252C1017.5,-252 987.5,-252 987.5,-252 981.5,-252 975.5,-246 975.5,-240 975.5,-240 975.5,-228 975.5,-228 975.5,-222 981.5,-216 987.5,-216 987.5,-216 1017.5,-216 1017.5,-216 1023.5,-216 1029.5,-222 1029.5,-228 1029.5,-228 1029.5,-240 1029.5,-240 1029.5,-246 1023.5,-252 1017.5,-252"/>
<text text-anchor="middle" x="1002.5" y="-230.3" font-family="Times,serif" font-size="14.00">Return</text>
</g>
<!-- ast.If object at 0x7f93914bd9c0&#45;&gt;ast.Return object at 0x7f93914be950 -->
<g id="edge103" class="edge">
<title>ast.If object at 0x7f93914bd9c0&#45;&gt;ast.Return object at 0x7f93914be950</title>
<path fill="none" stroke="black" d="M943.03,-287.7C952.88,-278.97 964.99,-268.24 975.7,-258.75"/>
<polygon fill="black" stroke="black" points="978.03,-261.36 983.2,-252.1 973.39,-256.12 978.03,-261.36"/>
</g>
<!-- ast.Name object at 0x7f93914bfc70 -->
<g id="node71" class="node">
<title>ast.Name object at 0x7f93914bfc70</title>
<path fill="#66cdaa" stroke="black" d="M770.5,-180C770.5,-180 740.5,-180 740.5,-180 734.5,-180 728.5,-174 728.5,-168 728.5,-168 728.5,-156 728.5,-156 728.5,-150 734.5,-144 740.5,-144 740.5,-144 770.5,-144 770.5,-144 776.5,-144 782.5,-150 782.5,-156 782.5,-156 782.5,-168 782.5,-168 782.5,-174 776.5,-180 770.5,-180"/>
<text text-anchor="middle" x="755.5" y="-158.3" font-family="Times,serif" font-size="14.00">Name</text>
</g>
<!-- ast.Compare object at 0x7f93914be650&#45;&gt;ast.Name object at 0x7f93914bfc70 -->
<g id="edge99" class="edge">
<title>ast.Compare object at 0x7f93914be650&#45;&gt;ast.Name object at 0x7f93914bfc70</title>
<path fill="none" stroke="black" d="M889.58,-219.26C886.85,-218.15 884.13,-217.06 881.5,-216 844.19,-200.99 832.53,-197.63 791.72,-179.98"/>
<polygon fill="black" stroke="black" points="793.11,-176.77 782.55,-175.99 790.32,-183.19 793.11,-176.77"/>
</g>
<!-- ast.Gt object at 0x7f93d26f2a10 -->
<g id="node72" class="node">
<title>ast.Gt object at 0x7f93d26f2a10</title>
<path fill="#66cdaa" stroke="black" d="M926.5,-180C926.5,-180 896.5,-180 896.5,-180 890.5,-180 884.5,-174 884.5,-168 884.5,-168 884.5,-156 884.5,-156 884.5,-150 890.5,-144 896.5,-144 896.5,-144 926.5,-144 926.5,-144 932.5,-144 938.5,-150 938.5,-156 938.5,-156 938.5,-168 938.5,-168 938.5,-174 932.5,-180 926.5,-180"/>
<text text-anchor="middle" x="911.5" y="-158.3" font-family="Times,serif" font-size="14.00">Gt</text>
</g>
<!-- ast.Compare object at 0x7f93914be650&#45;&gt;ast.Gt object at 0x7f93d26f2a10 -->
<g id="edge101" class="edge">
<title>ast.Compare object at 0x7f93914be650&#45;&gt;ast.Gt object at 0x7f93d26f2a10</title>
<path fill="none" stroke="black" d="M920.53,-215.7C919.21,-207.98 917.62,-198.71 916.15,-190.11"/>
<polygon fill="black" stroke="black" points="919.57,-189.37 914.43,-180.1 912.67,-190.55 919.57,-189.37"/>
</g>
<!-- ast.Constant object at 0x7f93914bf5e0 -->
<g id="node73" class="node">
<title>ast.Constant object at 0x7f93914bf5e0</title>
<path fill="#66cdaa" stroke="black" d="M854,-180C854,-180 813,-180 813,-180 807,-180 801,-174 801,-168 801,-168 801,-156 801,-156 801,-150 807,-144 813,-144 813,-144 854,-144 854,-144 860,-144 866,-150 866,-156 866,-156 866,-168 866,-168 866,-174 860,-180 854,-180"/>
<text text-anchor="middle" x="833.5" y="-158.3" font-family="Times,serif" font-size="14.00">Constant</text>
</g>
<!-- ast.Compare object at 0x7f93914be650&#45;&gt;ast.Constant object at 0x7f93914bf5e0 -->
<g id="edge102" class="edge">
<title>ast.Compare object at 0x7f93914be650&#45;&gt;ast.Constant object at 0x7f93914bf5e0</title>
<path fill="none" stroke="black" d="M901.25,-215.7C889.92,-206.88 875.97,-196.03 863.68,-186.47"/>
<polygon fill="black" stroke="black" points="865.53,-183.48 855.49,-180.1 861.24,-189.01 865.53,-183.48"/>
</g>
<!-- ast.Name object at 0x7f93914bfc70&#45;&gt;ast.Load object at 0x7f93d26f1f60 -->
<g id="edge100" class="edge">
<title>ast.Name object at 0x7f93914bfc70&#45;&gt;ast.Load object at 0x7f93d26f1f60</title>
<path fill="none" stroke="black" d="M782.5,-144.89C795.03,-135.8 808.64,-123.2 815.5,-108 824.29,-88.5 821.02,-64.22 816.12,-45.95"/>
<polygon fill="black" stroke="black" points="819.43,-44.8 813.21,-36.23 812.72,-46.81 819.43,-44.8"/>
</g>
<!-- ast.Constant object at 0x7f93914bcb20 -->
<g id="node75" class="node">
<title>ast.Constant object at 0x7f93914bcb20</title>
<path fill="#66cdaa" stroke="black" d="M1010,-180C1010,-180 969,-180 969,-180 963,-180 957,-174 957,-168 957,-168 957,-156 957,-156 957,-150 963,-144 969,-144 969,-144 1010,-144 1010,-144 1016,-144 1022,-150 1022,-156 1022,-156 1022,-168 1022,-168 1022,-174 1016,-180 1010,-180"/>
<text text-anchor="middle" x="989.5" y="-158.3" font-family="Times,serif" font-size="14.00">Constant</text>
</g>
<!-- ast.Return object at 0x7f93914be950&#45;&gt;ast.Constant object at 0x7f93914bcb20 -->
<g id="edge104" class="edge">
<title>ast.Return object at 0x7f93914be950&#45;&gt;ast.Constant object at 0x7f93914bcb20</title>
<path fill="none" stroke="black" d="M999.29,-215.7C997.85,-207.98 996.13,-198.71 994.54,-190.11"/>
<polygon fill="black" stroke="black" points="997.94,-189.3 992.68,-180.1 991.06,-190.58 997.94,-189.3"/>
</g>
<!-- ast.Constant object at 0x7f93914bc940 -->
<g id="node77" class="node">
<title>ast.Constant object at 0x7f93914bc940</title>
<path fill="#66cdaa" stroke="black" d="M1136,-468C1136,-468 1095,-468 1095,-468 1089,-468 1083,-462 1083,-456 1083,-456 1083,-444 1083,-444 1083,-438 1089,-432 1095,-432 1095,-432 1136,-432 1136,-432 1142,-432 1148,-438 1148,-444 1148,-444 1148,-456 1148,-456 1148,-462 1142,-468 1136,-468"/>
<text text-anchor="middle" x="1115.5" y="-446.3" font-family="Times,serif" font-size="14.00">Constant</text>
</g>
<!-- ast.Return object at 0x7f93914bfd90&#45;&gt;ast.Constant object at 0x7f93914bc940 -->
<g id="edge106" class="edge">
<title>ast.Return object at 0x7f93914bfd90&#45;&gt;ast.Constant object at 0x7f93914bc940</title>
<path fill="none" stroke="black" d="M905.75,-514.09C942.82,-504.53 1011.09,-486.36 1068.5,-468 1070.12,-467.48 1071.77,-466.94 1073.43,-466.39"/>
<polygon fill="black" stroke="black" points="1074.67,-469.67 1082.99,-463.12 1072.4,-463.04 1074.67,-469.67"/>
</g>
</g>
</svg>
