<?xml version="1.0" encoding="UTF-8" standalone="no"?>
<!DOCTYPE svg PUBLIC "-//W3C//DTD SVG 1.1//EN"
 "http://www.w3.org/Graphics/SVG/1.1/DTD/svg11.dtd">
<!-- Generated by graphviz version 2.43.0 (0)
 -->
<!-- Title: %3 Pages: 1 -->
<svg width="582pt" height="692pt"
 viewBox="0.00 0.00 581.57 692.00" xmlns="http://www.w3.org/2000/svg" xmlns:xlink="http://www.w3.org/1999/xlink">
<g id="graph0" class="graph" transform="scale(1 1) rotate(0) translate(4 688)">
<title>%3</title>
<polygon fill="white" stroke="transparent" points="-4,4 -4,-688 577.57,-688 577.57,4 -4,4"/>
<!-- ast.Module object at 0x7f2cff4a4190 -->
<g id="node1" class="node">
<title>ast.Module object at 0x7f2cff4a4190</title>
<path fill="#66cdaa" stroke="black" d="M95.5,-684C95.5,-684 60.5,-684 60.5,-684 54.5,-684 48.5,-678 48.5,-672 48.5,-672 48.5,-660 48.5,-660 48.5,-654 54.5,-648 60.5,-648 60.5,-648 95.5,-648 95.5,-648 101.5,-648 107.5,-654 107.5,-660 107.5,-660 107.5,-672 107.5,-672 107.5,-678 101.5,-684 95.5,-684"/>
<text text-anchor="middle" x="78" y="-662.3" font-family="Times,serif" font-size="14.00">Module</text>
</g>
<!-- ast.FunctionDef object at 0x7f2cff4a7460 -->
<g id="node2" class="node">
<title>ast.FunctionDef object at 0x7f2cff4a7460</title>
<path fill="#66cdaa" stroke="black" d="M108.5,-612C108.5,-612 47.5,-612 47.5,-612 41.5,-612 35.5,-606 35.5,-600 35.5,-600 35.5,-588 35.5,-588 35.5,-582 41.5,-576 47.5,-576 47.5,-576 108.5,-576 108.5,-576 114.5,-576 120.5,-582 120.5,-588 120.5,-588 120.5,-600 120.5,-600 120.5,-606 114.5,-612 108.5,-612"/>
<text text-anchor="middle" x="78" y="-590.3" font-family="Times,serif" font-size="14.00">FunctionDef</text>
</g>
<!-- ast.Module object at 0x7f2cff4a4190&#45;&gt;ast.FunctionDef object at 0x7f2cff4a7460 -->
<g id="edge1" class="edge">
<title>ast.Module object at 0x7f2cff4a4190&#45;&gt;ast.FunctionDef object at 0x7f2cff4a7460</title>
<path fill="none" stroke="black" d="M78,-647.7C78,-639.98 78,-630.71 78,-622.11"/>
<polygon fill="black" stroke="black" points="81.5,-622.1 78,-612.1 74.5,-622.1 81.5,-622.1"/>
</g>
<!-- ast.arguments object at 0x7f2cff4a41c0 -->
<g id="node3" class="node">
<title>ast.arguments object at 0x7f2cff4a41c0</title>
<path fill="#66cdaa" stroke="black" d="M62,-540C62,-540 12,-540 12,-540 6,-540 0,-534 0,-528 0,-528 0,-516 0,-516 0,-510 6,-504 12,-504 12,-504 62,-504 62,-504 68,-504 74,-510 74,-516 74,-516 74,-528 74,-528 74,-534 68,-540 62,-540"/>
<text text-anchor="middle" x="37" y="-518.3" font-family="Times,serif" font-size="14.00">arguments</text>
</g>
<!-- ast.FunctionDef object at 0x7f2cff4a7460&#45;&gt;ast.arguments object at 0x7f2cff4a41c0 -->
<g id="edge2" class="edge">
<title>ast.FunctionDef object at 0x7f2cff4a7460&#45;&gt;ast.arguments object at 0x7f2cff4a41c0</title>
<path fill="none" stroke="black" d="M67.87,-575.7C63.15,-567.64 57.44,-557.89 52.22,-548.98"/>
<polygon fill="black" stroke="black" points="55.09,-546.96 47.02,-540.1 49.05,-550.5 55.09,-546.96"/>
</g>
<!-- ast.Return object at 0x7f2cff272260 -->
<g id="node5" class="node">
<title>ast.Return object at 0x7f2cff272260</title>
<path fill="#66cdaa" stroke="black" d="M134,-540C134,-540 104,-540 104,-540 98,-540 92,-534 92,-528 92,-528 92,-516 92,-516 92,-510 98,-504 104,-504 104,-504 134,-504 134,-504 140,-504 146,-510 146,-516 146,-516 146,-528 146,-528 146,-534 140,-540 134,-540"/>
<text text-anchor="middle" x="119" y="-518.3" font-family="Times,serif" font-size="14.00">Return</text>
</g>
<!-- ast.FunctionDef object at 0x7f2cff4a7460&#45;&gt;ast.Return object at 0x7f2cff272260 -->
<g id="edge4" class="edge">
<title>ast.FunctionDef object at 0x7f2cff4a7460&#45;&gt;ast.Return object at 0x7f2cff272260</title>
<path fill="none" stroke="black" d="M88.13,-575.7C92.85,-567.64 98.56,-557.89 103.78,-548.98"/>
<polygon fill="black" stroke="black" points="106.95,-550.5 108.98,-540.1 100.91,-546.96 106.95,-550.5"/>
</g>
<!-- ast.arg object at 0x7f2d20157fd0 -->
<g id="node4" class="node">
<title>ast.arg object at 0x7f2d20157fd0</title>
<path fill="#66cdaa" stroke="black" d="M52,-468C52,-468 22,-468 22,-468 16,-468 10,-462 10,-456 10,-456 10,-444 10,-444 10,-438 16,-432 22,-432 22,-432 52,-432 52,-432 58,-432 64,-438 64,-444 64,-444 64,-456 64,-456 64,-462 58,-468 52,-468"/>
<text text-anchor="middle" x="37" y="-446.3" font-family="Times,serif" font-size="14.00">arg</text>
</g>
<!-- ast.arguments object at 0x7f2cff4a41c0&#45;&gt;ast.arg object at 0x7f2d20157fd0 -->
<g id="edge3" class="edge">
<title>ast.arguments object at 0x7f2cff4a41c0&#45;&gt;ast.arg object at 0x7f2d20157fd0</title>
<path fill="none" stroke="black" d="M37,-503.7C37,-495.98 37,-486.71 37,-478.11"/>
<polygon fill="black" stroke="black" points="40.5,-478.1 37,-468.1 33.5,-478.1 40.5,-478.1"/>
</g>
<!-- ast.Call object at 0x7f2cff049810 -->
<g id="node6" class="node">
<title>ast.Call object at 0x7f2cff049810</title>
<path fill="#66cdaa" stroke="black" d="M134,-468C134,-468 104,-468 104,-468 98,-468 92,-462 92,-456 92,-456 92,-444 92,-444 92,-438 98,-432 104,-432 104,-432 134,-432 134,-432 140,-432 146,-438 146,-444 146,-444 146,-456 146,-456 146,-462 140,-468 134,-468"/>
<text text-anchor="middle" x="119" y="-446.3" font-family="Times,serif" font-size="14.00">Call</text>
</g>
<!-- ast.Return object at 0x7f2cff272260&#45;&gt;ast.Call object at 0x7f2cff049810 -->
<g id="edge5" class="edge">
<title>ast.Return object at 0x7f2cff272260&#45;&gt;ast.Call object at 0x7f2cff049810</title>
<path fill="none" stroke="black" d="M119,-503.7C119,-495.98 119,-486.71 119,-478.11"/>
<polygon fill="black" stroke="black" points="122.5,-478.1 119,-468.1 115.5,-478.1 122.5,-478.1"/>
</g>
<!-- ast.Name object at 0x7f2cff04a050 -->
<g id="node7" class="node">
<title>ast.Name object at 0x7f2cff04a050</title>
<path fill="#66cdaa" stroke="black" d="M90,-396C90,-396 60,-396 60,-396 54,-396 48,-390 48,-384 48,-384 48,-372 48,-372 48,-366 54,-360 60,-360 60,-360 90,-360 90,-360 96,-360 102,-366 102,-372 102,-372 102,-384 102,-384 102,-390 96,-396 90,-396"/>
<text text-anchor="middle" x="75" y="-374.3" font-family="Times,serif" font-size="14.00">Name</text>
</g>
<!-- ast.Call object at 0x7f2cff049810&#45;&gt;ast.Name object at 0x7f2cff04a050 -->
<g id="edge6" class="edge">
<title>ast.Call object at 0x7f2cff049810&#45;&gt;ast.Name object at 0x7f2cff04a050</title>
<path fill="none" stroke="black" d="M108.12,-431.7C103.01,-423.56 96.8,-413.69 91.16,-404.7"/>
<polygon fill="black" stroke="black" points="94.04,-402.71 85.75,-396.1 88.11,-406.43 94.04,-402.71"/>
</g>
<!-- ast.Call object at 0x7f2cff04bfd0 -->
<g id="node9" class="node">
<title>ast.Call object at 0x7f2cff04bfd0</title>
<path fill="#66cdaa" stroke="black" d="M178,-396C178,-396 148,-396 148,-396 142,-396 136,-390 136,-384 136,-384 136,-372 136,-372 136,-366 142,-360 148,-360 148,-360 178,-360 178,-360 184,-360 190,-366 190,-372 190,-372 190,-384 190,-384 190,-390 184,-396 178,-396"/>
<text text-anchor="middle" x="163" y="-374.3" font-family="Times,serif" font-size="14.00">Call</text>
</g>
<!-- ast.Call object at 0x7f2cff049810&#45;&gt;ast.Call object at 0x7f2cff04bfd0 -->
<g id="edge8" class="edge">
<title>ast.Call object at 0x7f2cff049810&#45;&gt;ast.Call object at 0x7f2cff04bfd0</title>
<path fill="none" stroke="black" d="M129.88,-431.7C134.99,-423.56 141.2,-413.69 146.84,-404.7"/>
<polygon fill="black" stroke="black" points="149.89,-406.43 152.25,-396.1 143.96,-402.71 149.89,-406.43"/>
</g>
<!-- ast.Load object at 0x7f2d26bedf60 -->
<g id="node8" class="node">
<title>ast.Load object at 0x7f2d26bedf60</title>
<path fill="#66cdaa" stroke="black" d="M151,-36C151,-36 121,-36 121,-36 115,-36 109,-30 109,-24 109,-24 109,-12 109,-12 109,-6 115,0 121,0 121,0 151,0 151,0 157,0 163,-6 163,-12 163,-12 163,-24 163,-24 163,-30 157,-36 151,-36"/>
<text text-anchor="middle" x="136" y="-14.3" font-family="Times,serif" font-size="14.00">Load</text>
</g>
<!-- ast.Name object at 0x7f2cff04a050&#45;&gt;ast.Load object at 0x7f2d26bedf60 -->
<g id="edge7" class="edge">
<title>ast.Name object at 0x7f2cff04a050&#45;&gt;ast.Load object at 0x7f2d26bedf60</title>
<path fill="none" stroke="black" d="M68.52,-359.79C59.17,-333.36 43,-280.99 43,-235 43,-235 43,-235 43,-161 43,-113.32 80.15,-69.19 107.48,-43.17"/>
<polygon fill="black" stroke="black" points="109.93,-45.68 114.9,-36.32 105.18,-40.54 109.93,-45.68"/>
</g>
<!-- ast.Name object at 0x7f2cff0495d0 -->
<g id="node10" class="node">
<title>ast.Name object at 0x7f2cff0495d0</title>
<path fill="#66cdaa" stroke="black" d="M113,-252C113,-252 83,-252 83,-252 77,-252 71,-246 71,-240 71,-240 71,-228 71,-228 71,-222 77,-216 83,-216 83,-216 113,-216 113,-216 119,-216 125,-222 125,-228 125,-228 125,-240 125,-240 125,-246 119,-252 113,-252"/>
<text text-anchor="middle" x="98" y="-230.3" font-family="Times,serif" font-size="14.00">Name</text>
</g>
<!-- ast.Call object at 0x7f2cff04bfd0&#45;&gt;ast.Name object at 0x7f2cff0495d0 -->
<g id="edge9" class="edge">
<title>ast.Call object at 0x7f2cff04bfd0&#45;&gt;ast.Name object at 0x7f2cff0495d0</title>
<path fill="none" stroke="black" d="M155.16,-359.87C143.98,-335.46 123.37,-290.43 110.19,-261.64"/>
<polygon fill="black" stroke="black" points="113.21,-259.83 105.87,-252.19 106.85,-262.74 113.21,-259.83"/>
</g>
<!-- ast.Lambda object at 0x7f2cff0493c0 -->
<g id="node11" class="node">
<title>ast.Lambda object at 0x7f2cff0493c0</title>
<path fill="#66cdaa" stroke="black" d="M199,-324C199,-324 161,-324 161,-324 155,-324 149,-318 149,-312 149,-312 149,-300 149,-300 149,-294 155,-288 161,-288 161,-288 199,-288 199,-288 205,-288 211,-294 211,-300 211,-300 211,-312 211,-312 211,-318 205,-324 199,-324"/>
<text text-anchor="middle" x="180" y="-302.3" font-family="Times,serif" font-size="14.00">Lambda</text>
</g>
<!-- ast.Call object at 0x7f2cff04bfd0&#45;&gt;ast.Lambda object at 0x7f2cff0493c0 -->
<g id="edge11" class="edge">
<title>ast.Call object at 0x7f2cff04bfd0&#45;&gt;ast.Lambda object at 0x7f2cff0493c0</title>
<path fill="none" stroke="black" d="M167.2,-359.7C169.1,-351.9 171.38,-342.51 173.48,-333.83"/>
<polygon fill="black" stroke="black" points="176.89,-334.65 175.85,-324.1 170.08,-333 176.89,-334.65"/>
</g>
<!-- ast.Name object at 0x7f2d20006ef0 -->
<g id="node24" class="node">
<title>ast.Name object at 0x7f2d20006ef0</title>
<path fill="#66cdaa" stroke="black" d="M430,-324C430,-324 400,-324 400,-324 394,-324 388,-318 388,-312 388,-312 388,-300 388,-300 388,-294 394,-288 400,-288 400,-288 430,-288 430,-288 436,-288 442,-294 442,-300 442,-300 442,-312 442,-312 442,-318 436,-324 430,-324"/>
<text text-anchor="middle" x="415" y="-302.3" font-family="Times,serif" font-size="14.00">Name</text>
</g>
<!-- ast.Call object at 0x7f2cff04bfd0&#45;&gt;ast.Name object at 0x7f2d20006ef0 -->
<g id="edge26" class="edge">
<title>ast.Call object at 0x7f2cff04bfd0&#45;&gt;ast.Name object at 0x7f2d20006ef0</title>
<path fill="none" stroke="black" d="M190.45,-369.38C236.01,-356.72 327.29,-331.36 378.32,-317.19"/>
<polygon fill="black" stroke="black" points="379.27,-320.56 387.97,-314.51 377.4,-313.81 379.27,-320.56"/>
</g>
<!-- ast.Name object at 0x7f2cff0495d0&#45;&gt;ast.Load object at 0x7f2d26bedf60 -->
<g id="edge10" class="edge">
<title>ast.Name object at 0x7f2cff0495d0&#45;&gt;ast.Load object at 0x7f2d26bedf60</title>
<path fill="none" stroke="black" d="M95.01,-215.57C90.55,-185.46 84.24,-122.13 100,-72 103.07,-62.23 108.58,-52.64 114.39,-44.36"/>
<polygon fill="black" stroke="black" points="117.27,-46.35 120.46,-36.25 111.66,-42.16 117.27,-46.35"/>
</g>
<!-- ast.arguments object at 0x7f2cff04a200 -->
<g id="node12" class="node">
<title>ast.arguments object at 0x7f2cff04a200</title>
<path fill="#66cdaa" stroke="black" d="M205,-252C205,-252 155,-252 155,-252 149,-252 143,-246 143,-240 143,-240 143,-228 143,-228 143,-222 149,-216 155,-216 155,-216 205,-216 205,-216 211,-216 217,-222 217,-228 217,-228 217,-240 217,-240 217,-246 211,-252 205,-252"/>
<text text-anchor="middle" x="180" y="-230.3" font-family="Times,serif" font-size="14.00">arguments</text>
</g>
<!-- ast.Lambda object at 0x7f2cff0493c0&#45;&gt;ast.arguments object at 0x7f2cff04a200 -->
<g id="edge12" class="edge">
<title>ast.Lambda object at 0x7f2cff0493c0&#45;&gt;ast.arguments object at 0x7f2cff04a200</title>
<path fill="none" stroke="black" d="M180,-287.7C180,-279.98 180,-270.71 180,-262.11"/>
<polygon fill="black" stroke="black" points="183.5,-262.1 180,-252.1 176.5,-262.1 183.5,-262.1"/>
</g>
<!-- ast.BoolOp object at 0x7f2cff04afe0 -->
<g id="node14" class="node">
<title>ast.BoolOp object at 0x7f2cff04afe0</title>
<path fill="#66cdaa" stroke="black" d="M293.5,-252C293.5,-252 258.5,-252 258.5,-252 252.5,-252 246.5,-246 246.5,-240 246.5,-240 246.5,-228 246.5,-228 246.5,-222 252.5,-216 258.5,-216 258.5,-216 293.5,-216 293.5,-216 299.5,-216 305.5,-222 305.5,-228 305.5,-228 305.5,-240 305.5,-240 305.5,-246 299.5,-252 293.5,-252"/>
<text text-anchor="middle" x="276" y="-230.3" font-family="Times,serif" font-size="14.00">BoolOp</text>
</g>
<!-- ast.Lambda object at 0x7f2cff0493c0&#45;&gt;ast.BoolOp object at 0x7f2cff04afe0 -->
<g id="edge14" class="edge">
<title>ast.Lambda object at 0x7f2cff0493c0&#45;&gt;ast.BoolOp object at 0x7f2cff04afe0</title>
<path fill="none" stroke="black" d="M203.73,-287.7C215.94,-278.8 230.99,-267.82 244.18,-258.2"/>
<polygon fill="black" stroke="black" points="246.52,-260.82 252.54,-252.1 242.4,-255.17 246.52,-260.82"/>
</g>
<!-- ast.arg object at 0x7f2cff049b40 -->
<g id="node13" class="node">
<title>ast.arg object at 0x7f2cff049b40</title>
<path fill="#66cdaa" stroke="black" d="M151,-180C151,-180 121,-180 121,-180 115,-180 109,-174 109,-168 109,-168 109,-156 109,-156 109,-150 115,-144 121,-144 121,-144 151,-144 151,-144 157,-144 163,-150 163,-156 163,-156 163,-168 163,-168 163,-174 157,-180 151,-180"/>
<text text-anchor="middle" x="136" y="-158.3" font-family="Times,serif" font-size="14.00">arg</text>
</g>
<!-- ast.arguments object at 0x7f2cff04a200&#45;&gt;ast.arg object at 0x7f2cff049b40 -->
<g id="edge13" class="edge">
<title>ast.arguments object at 0x7f2cff04a200&#45;&gt;ast.arg object at 0x7f2cff049b40</title>
<path fill="none" stroke="black" d="M169.12,-215.7C164.01,-207.56 157.8,-197.69 152.16,-188.7"/>
<polygon fill="black" stroke="black" points="155.04,-186.71 146.75,-180.1 149.11,-190.43 155.04,-186.71"/>
</g>
<!-- ast.And object at 0x7f2d26bee0b0 -->
<g id="node15" class="node">
<title>ast.And object at 0x7f2d26bee0b0</title>
<path fill="#66cdaa" stroke="black" d="M223,-180C223,-180 193,-180 193,-180 187,-180 181,-174 181,-168 181,-168 181,-156 181,-156 181,-150 187,-144 193,-144 193,-144 223,-144 223,-144 229,-144 235,-150 235,-156 235,-156 235,-168 235,-168 235,-174 229,-180 223,-180"/>
<text text-anchor="middle" x="208" y="-158.3" font-family="Times,serif" font-size="14.00">And</text>
</g>
<!-- ast.BoolOp object at 0x7f2cff04afe0&#45;&gt;ast.And object at 0x7f2d26bee0b0 -->
<g id="edge15" class="edge">
<title>ast.BoolOp object at 0x7f2cff04afe0&#45;&gt;ast.And object at 0x7f2d26bee0b0</title>
<path fill="none" stroke="black" d="M259.19,-215.7C250.87,-207.14 240.69,-196.66 231.61,-187.3"/>
<polygon fill="black" stroke="black" points="234.09,-184.84 224.62,-180.1 229.07,-189.72 234.09,-184.84"/>
</g>
<!-- ast.Compare object at 0x7f2cff04a4a0 -->
<g id="node16" class="node">
<title>ast.Compare object at 0x7f2cff04a4a0</title>
<path fill="#66cdaa" stroke="black" d="M308.5,-180C308.5,-180 265.5,-180 265.5,-180 259.5,-180 253.5,-174 253.5,-168 253.5,-168 253.5,-156 253.5,-156 253.5,-150 259.5,-144 265.5,-144 265.5,-144 308.5,-144 308.5,-144 314.5,-144 320.5,-150 320.5,-156 320.5,-156 320.5,-168 320.5,-168 320.5,-174 314.5,-180 308.5,-180"/>
<text text-anchor="middle" x="287" y="-158.3" font-family="Times,serif" font-size="14.00">Compare</text>
</g>
<!-- ast.BoolOp object at 0x7f2cff04afe0&#45;&gt;ast.Compare object at 0x7f2cff04a4a0 -->
<g id="edge16" class="edge">
<title>ast.BoolOp object at 0x7f2cff04afe0&#45;&gt;ast.Compare object at 0x7f2cff04a4a0</title>
<path fill="none" stroke="black" d="M278.72,-215.7C279.93,-207.98 281.39,-198.71 282.74,-190.11"/>
<polygon fill="black" stroke="black" points="286.22,-190.53 284.31,-180.1 279.3,-189.44 286.22,-190.53"/>
</g>
<!-- ast.Compare object at 0x7f2cff04bcd0 -->
<g id="node20" class="node">
<title>ast.Compare object at 0x7f2cff04bcd0</title>
<path fill="#66cdaa" stroke="black" d="M425.5,-180C425.5,-180 382.5,-180 382.5,-180 376.5,-180 370.5,-174 370.5,-168 370.5,-168 370.5,-156 370.5,-156 370.5,-150 376.5,-144 382.5,-144 382.5,-144 425.5,-144 425.5,-144 431.5,-144 437.5,-150 437.5,-156 437.5,-156 437.5,-168 437.5,-168 437.5,-174 431.5,-180 425.5,-180"/>
<text text-anchor="middle" x="404" y="-158.3" font-family="Times,serif" font-size="14.00">Compare</text>
</g>
<!-- ast.BoolOp object at 0x7f2cff04afe0&#45;&gt;ast.Compare object at 0x7f2cff04bcd0 -->
<g id="edge21" class="edge">
<title>ast.BoolOp object at 0x7f2cff04afe0&#45;&gt;ast.Compare object at 0x7f2cff04bcd0</title>
<path fill="none" stroke="black" d="M305.69,-216.76C322.95,-207.32 344.94,-195.3 363.75,-185.01"/>
<polygon fill="black" stroke="black" points="365.59,-187.99 372.69,-180.12 362.23,-181.85 365.59,-187.99"/>
</g>
<!-- ast.Name object at 0x7f2cff04a230 -->
<g id="node17" class="node">
<title>ast.Name object at 0x7f2cff04a230</title>
<path fill="#66cdaa" stroke="black" d="M151,-108C151,-108 121,-108 121,-108 115,-108 109,-102 109,-96 109,-96 109,-84 109,-84 109,-78 115,-72 121,-72 121,-72 151,-72 151,-72 157,-72 163,-78 163,-84 163,-84 163,-96 163,-96 163,-102 157,-108 151,-108"/>
<text text-anchor="middle" x="136" y="-86.3" font-family="Times,serif" font-size="14.00">Name</text>
</g>
<!-- ast.Compare object at 0x7f2cff04a4a0&#45;&gt;ast.Name object at 0x7f2cff04a230 -->
<g id="edge17" class="edge">
<title>ast.Compare object at 0x7f2cff04a4a0&#45;&gt;ast.Name object at 0x7f2cff04a230</title>
<path fill="none" stroke="black" d="M253.5,-145.66C232.51,-136.03 204.69,-123.22 172.35,-108.15"/>
<polygon fill="black" stroke="black" points="173.66,-104.89 163.11,-103.84 170.7,-111.24 173.66,-104.89"/>
</g>
<!-- ast.GtE object at 0x7f2d26beea70 -->
<g id="node18" class="node">
<title>ast.GtE object at 0x7f2d26beea70</title>
<path fill="#66cdaa" stroke="black" d="M223,-108C223,-108 193,-108 193,-108 187,-108 181,-102 181,-96 181,-96 181,-84 181,-84 181,-78 187,-72 193,-72 193,-72 223,-72 223,-72 229,-72 235,-78 235,-84 235,-84 235,-96 235,-96 235,-102 229,-108 223,-108"/>
<text text-anchor="middle" x="208" y="-86.3" font-family="Times,serif" font-size="14.00">GtE</text>
</g>
<!-- ast.Compare object at 0x7f2cff04a4a0&#45;&gt;ast.GtE object at 0x7f2d26beea70 -->
<g id="edge19" class="edge">
<title>ast.Compare object at 0x7f2cff04a4a0&#45;&gt;ast.GtE object at 0x7f2d26beea70</title>
<path fill="none" stroke="black" d="M267.47,-143.7C257.62,-134.97 245.51,-124.24 234.8,-114.75"/>
<polygon fill="black" stroke="black" points="237.11,-112.12 227.3,-108.1 232.47,-117.36 237.11,-112.12"/>
</g>
<!-- ast.Constant object at 0x7f2cff0497b0 -->
<g id="node19" class="node">
<title>ast.Constant object at 0x7f2cff0497b0</title>
<path fill="#66cdaa" stroke="black" d="M306.5,-108C306.5,-108 265.5,-108 265.5,-108 259.5,-108 253.5,-102 253.5,-96 253.5,-96 253.5,-84 253.5,-84 253.5,-78 259.5,-72 265.5,-72 265.5,-72 306.5,-72 306.5,-72 312.5,-72 318.5,-78 318.5,-84 318.5,-84 318.5,-96 318.5,-96 318.5,-102 312.5,-108 306.5,-108"/>
<text text-anchor="middle" x="286" y="-86.3" font-family="Times,serif" font-size="14.00">Constant</text>
</g>
<!-- ast.Compare object at 0x7f2cff04a4a0&#45;&gt;ast.Constant object at 0x7f2cff0497b0 -->
<g id="edge20" class="edge">
<title>ast.Compare object at 0x7f2cff04a4a0&#45;&gt;ast.Constant object at 0x7f2cff0497b0</title>
<path fill="none" stroke="black" d="M286.75,-143.7C286.64,-135.98 286.51,-126.71 286.39,-118.11"/>
<polygon fill="black" stroke="black" points="289.89,-118.05 286.24,-108.1 282.89,-118.15 289.89,-118.05"/>
</g>
<!-- ast.Name object at 0x7f2cff04a230&#45;&gt;ast.Load object at 0x7f2d26bedf60 -->
<g id="edge18" class="edge">
<title>ast.Name object at 0x7f2cff04a230&#45;&gt;ast.Load object at 0x7f2d26bedf60</title>
<path fill="none" stroke="black" d="M136,-71.7C136,-63.98 136,-54.71 136,-46.11"/>
<polygon fill="black" stroke="black" points="139.5,-46.1 136,-36.1 132.5,-46.1 139.5,-46.1"/>
</g>
<!-- ast.Name object at 0x7f2cff04b580 -->
<g id="node21" class="node">
<title>ast.Name object at 0x7f2cff04b580</title>
<path fill="#66cdaa" stroke="black" d="M379,-108C379,-108 349,-108 349,-108 343,-108 337,-102 337,-96 337,-96 337,-84 337,-84 337,-78 343,-72 349,-72 349,-72 379,-72 379,-72 385,-72 391,-78 391,-84 391,-84 391,-96 391,-96 391,-102 385,-108 379,-108"/>
<text text-anchor="middle" x="364" y="-86.3" font-family="Times,serif" font-size="14.00">Name</text>
</g>
<!-- ast.Compare object at 0x7f2cff04bcd0&#45;&gt;ast.Name object at 0x7f2cff04b580 -->
<g id="edge22" class="edge">
<title>ast.Compare object at 0x7f2cff04bcd0&#45;&gt;ast.Name object at 0x7f2cff04b580</title>
<path fill="none" stroke="black" d="M394.11,-143.7C389.51,-135.64 383.94,-125.89 378.85,-116.98"/>
<polygon fill="black" stroke="black" points="381.77,-115.05 373.77,-108.1 375.7,-118.52 381.77,-115.05"/>
</g>
<!-- ast.LtE object at 0x7f2d26bee9b0 -->
<g id="node22" class="node">
<title>ast.LtE object at 0x7f2d26bee9b0</title>
<path fill="#66cdaa" stroke="black" d="M451,-108C451,-108 421,-108 421,-108 415,-108 409,-102 409,-96 409,-96 409,-84 409,-84 409,-78 415,-72 421,-72 421,-72 451,-72 451,-72 457,-72 463,-78 463,-84 463,-84 463,-96 463,-96 463,-102 457,-108 451,-108"/>
<text text-anchor="middle" x="436" y="-86.3" font-family="Times,serif" font-size="14.00">LtE</text>
</g>
<!-- ast.Compare object at 0x7f2cff04bcd0&#45;&gt;ast.LtE object at 0x7f2d26bee9b0 -->
<g id="edge24" class="edge">
<title>ast.Compare object at 0x7f2cff04bcd0&#45;&gt;ast.LtE object at 0x7f2d26bee9b0</title>
<path fill="none" stroke="black" d="M411.91,-143.7C415.55,-135.73 419.95,-126.1 423.99,-117.26"/>
<polygon fill="black" stroke="black" points="427.21,-118.65 428.18,-108.1 420.84,-115.74 427.21,-118.65"/>
</g>
<!-- ast.Constant object at 0x7f2cff04bb50 -->
<g id="node23" class="node">
<title>ast.Constant object at 0x7f2cff04bb50</title>
<path fill="#66cdaa" stroke="black" d="M534.5,-108C534.5,-108 493.5,-108 493.5,-108 487.5,-108 481.5,-102 481.5,-96 481.5,-96 481.5,-84 481.5,-84 481.5,-78 487.5,-72 493.5,-72 493.5,-72 534.5,-72 534.5,-72 540.5,-72 546.5,-78 546.5,-84 546.5,-84 546.5,-96 546.5,-96 546.5,-102 540.5,-108 534.5,-108"/>
<text text-anchor="middle" x="514" y="-86.3" font-family="Times,serif" font-size="14.00">Constant</text>
</g>
<!-- ast.Compare object at 0x7f2cff04bcd0&#45;&gt;ast.Constant object at 0x7f2cff04bb50 -->
<g id="edge25" class="edge">
<title>ast.Compare object at 0x7f2cff04bcd0&#45;&gt;ast.Constant object at 0x7f2cff04bb50</title>
<path fill="none" stroke="black" d="M430.91,-143.88C445.16,-134.81 462.85,-123.55 478.24,-113.76"/>
<polygon fill="black" stroke="black" points="480.43,-116.51 486.99,-108.19 476.67,-110.61 480.43,-116.51"/>
</g>
<!-- ast.Name object at 0x7f2cff04b580&#45;&gt;ast.Load object at 0x7f2d26bedf60 -->
<g id="edge23" class="edge">
<title>ast.Name object at 0x7f2cff04b580&#45;&gt;ast.Load object at 0x7f2d26bedf60</title>
<path fill="none" stroke="black" d="M336.73,-75.88C333.48,-74.49 330.19,-73.17 327,-72 274.64,-52.85 212.05,-36.71 173.15,-27.44"/>
<polygon fill="black" stroke="black" points="173.85,-24.01 163.32,-25.12 172.25,-30.82 173.85,-24.01"/>
</g>
<!-- ast.Name object at 0x7f2d20006ef0&#45;&gt;ast.Load object at 0x7f2d26bedf60 -->
<g id="edge27" class="edge">
<title>ast.Name object at 0x7f2d20006ef0&#45;&gt;ast.Load object at 0x7f2d26bedf60</title>
<path fill="none" stroke="black" d="M439.61,-287.83C494.86,-247.29 619.17,-143.64 556,-72 530.82,-43.44 271.26,-26.39 173.22,-20.93"/>
<polygon fill="black" stroke="black" points="173.34,-17.43 163.17,-20.38 172.96,-24.42 173.34,-17.43"/>
</g>
</g>
</svg>
