<?xml version="1.0" encoding="UTF-8" standalone="no"?>
<!DOCTYPE svg PUBLIC "-//W3C//DTD SVG 1.1//EN"
 "http://www.w3.org/Graphics/SVG/1.1/DTD/svg11.dtd">
<!-- Generated by graphviz version 2.43.0 (0)
 -->
<!-- Title: %3 Pages: 1 -->
<svg width="875pt" height="548pt"
 viewBox="0.00 0.00 875.00 548.00" xmlns="http://www.w3.org/2000/svg" xmlns:xlink="http://www.w3.org/1999/xlink">
<g id="graph0" class="graph" transform="scale(1 1) rotate(0) translate(4 544)">
<title>%3</title>
<polygon fill="white" stroke="transparent" points="-4,4 -4,-544 871,-544 871,4 -4,4"/>
<!-- ast.Module object at 0x7f4432cb93f0 -->
<g id="node1" class="node">
<title>ast.Module object at 0x7f4432cb93f0</title>
<path fill="#66cdaa" stroke="black" d="M373.5,-540C373.5,-540 338.5,-540 338.5,-540 332.5,-540 326.5,-534 326.5,-528 326.5,-528 326.5,-516 326.5,-516 326.5,-510 332.5,-504 338.5,-504 338.5,-504 373.5,-504 373.5,-504 379.5,-504 385.5,-510 385.5,-516 385.5,-516 385.5,-528 385.5,-528 385.5,-534 379.5,-540 373.5,-540"/>
<text text-anchor="middle" x="356" y="-518.3" font-family="Times,serif" font-size="14.00">Module</text>
</g>
<!-- ast.FunctionDef object at 0x7f4432cb8d30 -->
<g id="node2" class="node">
<title>ast.FunctionDef object at 0x7f4432cb8d30</title>
<path fill="#66cdaa" stroke="black" d="M386.5,-468C386.5,-468 325.5,-468 325.5,-468 319.5,-468 313.5,-462 313.5,-456 313.5,-456 313.5,-444 313.5,-444 313.5,-438 319.5,-432 325.5,-432 325.5,-432 386.5,-432 386.5,-432 392.5,-432 398.5,-438 398.5,-444 398.5,-444 398.5,-456 398.5,-456 398.5,-462 392.5,-468 386.5,-468"/>
<text text-anchor="middle" x="356" y="-446.3" font-family="Times,serif" font-size="14.00">FunctionDef</text>
</g>
<!-- ast.Module object at 0x7f4432cb93f0&#45;&gt;ast.FunctionDef object at 0x7f4432cb8d30 -->
<g id="edge1" class="edge">
<title>ast.Module object at 0x7f4432cb93f0&#45;&gt;ast.FunctionDef object at 0x7f4432cb8d30</title>
<path fill="none" stroke="black" d="M356,-503.7C356,-495.98 356,-486.71 356,-478.11"/>
<polygon fill="black" stroke="black" points="359.5,-478.1 356,-468.1 352.5,-478.1 359.5,-478.1"/>
</g>
<!-- ast.arguments object at 0x7f4432cb94b0 -->
<g id="node3" class="node">
<title>ast.arguments object at 0x7f4432cb94b0</title>
<path fill="#66cdaa" stroke="black" d="M340,-396C340,-396 290,-396 290,-396 284,-396 278,-390 278,-384 278,-384 278,-372 278,-372 278,-366 284,-360 290,-360 290,-360 340,-360 340,-360 346,-360 352,-366 352,-372 352,-372 352,-384 352,-384 352,-390 346,-396 340,-396"/>
<text text-anchor="middle" x="315" y="-374.3" font-family="Times,serif" font-size="14.00">arguments</text>
</g>
<!-- ast.FunctionDef object at 0x7f4432cb8d30&#45;&gt;ast.arguments object at 0x7f4432cb94b0 -->
<g id="edge2" class="edge">
<title>ast.FunctionDef object at 0x7f4432cb8d30&#45;&gt;ast.arguments object at 0x7f4432cb94b0</title>
<path fill="none" stroke="black" d="M345.87,-431.7C341.15,-423.64 335.44,-413.89 330.22,-404.98"/>
<polygon fill="black" stroke="black" points="333.09,-402.96 325.02,-396.1 327.05,-406.5 333.09,-402.96"/>
</g>
<!-- ast.Return object at 0x7f4432cb9ab0 -->
<g id="node12" class="node">
<title>ast.Return object at 0x7f4432cb9ab0</title>
<path fill="#66cdaa" stroke="black" d="M515,-396C515,-396 485,-396 485,-396 479,-396 473,-390 473,-384 473,-384 473,-372 473,-372 473,-366 479,-360 485,-360 485,-360 515,-360 515,-360 521,-360 527,-366 527,-372 527,-372 527,-384 527,-384 527,-390 521,-396 515,-396"/>
<text text-anchor="middle" x="500" y="-374.3" font-family="Times,serif" font-size="14.00">Return</text>
</g>
<!-- ast.FunctionDef object at 0x7f4432cb8d30&#45;&gt;ast.Return object at 0x7f4432cb9ab0 -->
<g id="edge11" class="edge">
<title>ast.FunctionDef object at 0x7f4432cb8d30&#45;&gt;ast.Return object at 0x7f4432cb9ab0</title>
<path fill="none" stroke="black" d="M391.23,-431.88C413.23,-421.18 441.49,-407.44 463.7,-396.65"/>
<polygon fill="black" stroke="black" points="465.34,-399.74 472.8,-392.22 462.28,-393.44 465.34,-399.74"/>
</g>
<!-- ast.arg object at 0x7f4432cb97e0 -->
<g id="node4" class="node">
<title>ast.arg object at 0x7f4432cb97e0</title>
<path fill="#66cdaa" stroke="black" d="M42,-324C42,-324 12,-324 12,-324 6,-324 0,-318 0,-312 0,-312 0,-300 0,-300 0,-294 6,-288 12,-288 12,-288 42,-288 42,-288 48,-288 54,-294 54,-300 54,-300 54,-312 54,-312 54,-318 48,-324 42,-324"/>
<text text-anchor="middle" x="27" y="-302.3" font-family="Times,serif" font-size="14.00">arg</text>
</g>
<!-- ast.arguments object at 0x7f4432cb94b0&#45;&gt;ast.arg object at 0x7f4432cb97e0 -->
<g id="edge3" class="edge">
<title>ast.arguments object at 0x7f4432cb94b0&#45;&gt;ast.arg object at 0x7f4432cb97e0</title>
<path fill="none" stroke="black" d="M277.98,-371.99C230.15,-364.92 144.41,-350.21 64.02,-323.93"/>
<polygon fill="black" stroke="black" points="64.84,-320.52 54.24,-320.67 62.62,-327.16 64.84,-320.52"/>
</g>
<!-- ast.arg object at 0x7f4432cb8c10 -->
<g id="node5" class="node">
<title>ast.arg object at 0x7f4432cb8c10</title>
<path fill="#66cdaa" stroke="black" d="M114,-324C114,-324 84,-324 84,-324 78,-324 72,-318 72,-312 72,-312 72,-300 72,-300 72,-294 78,-288 84,-288 84,-288 114,-288 114,-288 120,-288 126,-294 126,-300 126,-300 126,-312 126,-312 126,-318 120,-324 114,-324"/>
<text text-anchor="middle" x="99" y="-302.3" font-family="Times,serif" font-size="14.00">arg</text>
</g>
<!-- ast.arguments object at 0x7f4432cb94b0&#45;&gt;ast.arg object at 0x7f4432cb8c10 -->
<g id="edge4" class="edge">
<title>ast.arguments object at 0x7f4432cb94b0&#45;&gt;ast.arg object at 0x7f4432cb8c10</title>
<path fill="none" stroke="black" d="M277.91,-367.88C243.13,-358.93 189.66,-344.16 135.69,-323.99"/>
<polygon fill="black" stroke="black" points="136.92,-320.71 126.33,-320.44 134.44,-327.26 136.92,-320.71"/>
</g>
<!-- ast.arg object at 0x7f4432cb8f70 -->
<g id="node6" class="node">
<title>ast.arg object at 0x7f4432cb8f70</title>
<path fill="#66cdaa" stroke="black" d="M186,-324C186,-324 156,-324 156,-324 150,-324 144,-318 144,-312 144,-312 144,-300 144,-300 144,-294 150,-288 156,-288 156,-288 186,-288 186,-288 192,-288 198,-294 198,-300 198,-300 198,-312 198,-312 198,-318 192,-324 186,-324"/>
<text text-anchor="middle" x="171" y="-302.3" font-family="Times,serif" font-size="14.00">arg</text>
</g>
<!-- ast.arguments object at 0x7f4432cb94b0&#45;&gt;ast.arg object at 0x7f4432cb8f70 -->
<g id="edge5" class="edge">
<title>ast.arguments object at 0x7f4432cb94b0&#45;&gt;ast.arg object at 0x7f4432cb8f70</title>
<path fill="none" stroke="black" d="M279.77,-359.88C257.77,-349.18 229.51,-335.44 207.3,-324.65"/>
<polygon fill="black" stroke="black" points="208.72,-321.44 198.2,-320.22 205.66,-327.74 208.72,-321.44"/>
</g>
<!-- ast.arg object at 0x7f4432cbbdf0 -->
<g id="node7" class="node">
<title>ast.arg object at 0x7f4432cbbdf0</title>
<path fill="#66cdaa" stroke="black" d="M258,-324C258,-324 228,-324 228,-324 222,-324 216,-318 216,-312 216,-312 216,-300 216,-300 216,-294 222,-288 228,-288 228,-288 258,-288 258,-288 264,-288 270,-294 270,-300 270,-300 270,-312 270,-312 270,-318 264,-324 258,-324"/>
<text text-anchor="middle" x="243" y="-302.3" font-family="Times,serif" font-size="14.00">arg</text>
</g>
<!-- ast.arguments object at 0x7f4432cb94b0&#45;&gt;ast.arg object at 0x7f4432cbbdf0 -->
<g id="edge6" class="edge">
<title>ast.arguments object at 0x7f4432cb94b0&#45;&gt;ast.arg object at 0x7f4432cbbdf0</title>
<path fill="none" stroke="black" d="M297.2,-359.7C288.4,-351.14 277.62,-340.66 268,-331.3"/>
<polygon fill="black" stroke="black" points="270.2,-328.57 260.59,-324.1 265.32,-333.58 270.2,-328.57"/>
</g>
<!-- ast.arg object at 0x7f4432cb9ba0 -->
<g id="node8" class="node">
<title>ast.arg object at 0x7f4432cb9ba0</title>
<path fill="#66cdaa" stroke="black" d="M330,-324C330,-324 300,-324 300,-324 294,-324 288,-318 288,-312 288,-312 288,-300 288,-300 288,-294 294,-288 300,-288 300,-288 330,-288 330,-288 336,-288 342,-294 342,-300 342,-300 342,-312 342,-312 342,-318 336,-324 330,-324"/>
<text text-anchor="middle" x="315" y="-302.3" font-family="Times,serif" font-size="14.00">arg</text>
</g>
<!-- ast.arguments object at 0x7f4432cb94b0&#45;&gt;ast.arg object at 0x7f4432cb9ba0 -->
<g id="edge7" class="edge">
<title>ast.arguments object at 0x7f4432cb94b0&#45;&gt;ast.arg object at 0x7f4432cb9ba0</title>
<path fill="none" stroke="black" d="M315,-359.7C315,-351.98 315,-342.71 315,-334.11"/>
<polygon fill="black" stroke="black" points="318.5,-334.1 315,-324.1 311.5,-334.1 318.5,-334.1"/>
</g>
<!-- ast.arg object at 0x7f4432cb9030 -->
<g id="node9" class="node">
<title>ast.arg object at 0x7f4432cb9030</title>
<path fill="#66cdaa" stroke="black" d="M402,-324C402,-324 372,-324 372,-324 366,-324 360,-318 360,-312 360,-312 360,-300 360,-300 360,-294 366,-288 372,-288 372,-288 402,-288 402,-288 408,-288 414,-294 414,-300 414,-300 414,-312 414,-312 414,-318 408,-324 402,-324"/>
<text text-anchor="middle" x="387" y="-302.3" font-family="Times,serif" font-size="14.00">arg</text>
</g>
<!-- ast.arguments object at 0x7f4432cb94b0&#45;&gt;ast.arg object at 0x7f4432cb9030 -->
<g id="edge8" class="edge">
<title>ast.arguments object at 0x7f4432cb94b0&#45;&gt;ast.arg object at 0x7f4432cb9030</title>
<path fill="none" stroke="black" d="M332.8,-359.7C341.6,-351.14 352.38,-340.66 362,-331.3"/>
<polygon fill="black" stroke="black" points="364.68,-333.58 369.41,-324.1 359.8,-328.57 364.68,-333.58"/>
</g>
<!-- ast.arg object at 0x7f4432cb92d0 -->
<g id="node10" class="node">
<title>ast.arg object at 0x7f4432cb92d0</title>
<path fill="#66cdaa" stroke="black" d="M474,-324C474,-324 444,-324 444,-324 438,-324 432,-318 432,-312 432,-312 432,-300 432,-300 432,-294 438,-288 444,-288 444,-288 474,-288 474,-288 480,-288 486,-294 486,-300 486,-300 486,-312 486,-312 486,-318 480,-324 474,-324"/>
<text text-anchor="middle" x="459" y="-302.3" font-family="Times,serif" font-size="14.00">arg</text>
</g>
<!-- ast.arguments object at 0x7f4432cb94b0&#45;&gt;ast.arg object at 0x7f4432cb92d0 -->
<g id="edge9" class="edge">
<title>ast.arguments object at 0x7f4432cb94b0&#45;&gt;ast.arg object at 0x7f4432cb92d0</title>
<path fill="none" stroke="black" d="M350.23,-359.88C372.23,-349.18 400.49,-335.44 422.7,-324.65"/>
<polygon fill="black" stroke="black" points="424.34,-327.74 431.8,-320.22 421.28,-321.44 424.34,-327.74"/>
</g>
<!-- ast.arg object at 0x7f4432cb96f0 -->
<g id="node11" class="node">
<title>ast.arg object at 0x7f4432cb96f0</title>
<path fill="#66cdaa" stroke="black" d="M546,-324C546,-324 516,-324 516,-324 510,-324 504,-318 504,-312 504,-312 504,-300 504,-300 504,-294 510,-288 516,-288 516,-288 546,-288 546,-288 552,-288 558,-294 558,-300 558,-300 558,-312 558,-312 558,-318 552,-324 546,-324"/>
<text text-anchor="middle" x="531" y="-302.3" font-family="Times,serif" font-size="14.00">arg</text>
</g>
<!-- ast.arguments object at 0x7f4432cb94b0&#45;&gt;ast.arg object at 0x7f4432cb96f0 -->
<g id="edge10" class="edge">
<title>ast.arguments object at 0x7f4432cb94b0&#45;&gt;ast.arg object at 0x7f4432cb96f0</title>
<path fill="none" stroke="black" d="M352.09,-367.88C386.87,-358.93 440.34,-344.16 494.31,-323.99"/>
<polygon fill="black" stroke="black" points="495.56,-327.26 503.67,-320.44 493.08,-320.71 495.56,-327.26"/>
</g>
<!-- ast.Call object at 0x7f4432cbb460 -->
<g id="node13" class="node">
<title>ast.Call object at 0x7f4432cbb460</title>
<path fill="#66cdaa" stroke="black" d="M618,-324C618,-324 588,-324 588,-324 582,-324 576,-318 576,-312 576,-312 576,-300 576,-300 576,-294 582,-288 588,-288 588,-288 618,-288 618,-288 624,-288 630,-294 630,-300 630,-300 630,-312 630,-312 630,-318 624,-324 618,-324"/>
<text text-anchor="middle" x="603" y="-302.3" font-family="Times,serif" font-size="14.00">Call</text>
</g>
<!-- ast.Return object at 0x7f4432cb9ab0&#45;&gt;ast.Call object at 0x7f4432cbb460 -->
<g id="edge12" class="edge">
<title>ast.Return object at 0x7f4432cb9ab0&#45;&gt;ast.Call object at 0x7f4432cbb460</title>
<path fill="none" stroke="black" d="M525.2,-359.88C538.41,-350.89 554.79,-339.76 569.11,-330.03"/>
<polygon fill="black" stroke="black" points="571.4,-332.71 577.71,-324.19 567.47,-326.92 571.4,-332.71"/>
</g>
<!-- ast.Attribute object at 0x7f4432cb9e70 -->
<g id="node14" class="node">
<title>ast.Attribute object at 0x7f4432cb9e70</title>
<path fill="#66cdaa" stroke="black" d="M403.5,-252C403.5,-252 362.5,-252 362.5,-252 356.5,-252 350.5,-246 350.5,-240 350.5,-240 350.5,-228 350.5,-228 350.5,-222 356.5,-216 362.5,-216 362.5,-216 403.5,-216 403.5,-216 409.5,-216 415.5,-222 415.5,-228 415.5,-228 415.5,-240 415.5,-240 415.5,-246 409.5,-252 403.5,-252"/>
<text text-anchor="middle" x="383" y="-230.3" font-family="Times,serif" font-size="14.00">Attribute</text>
</g>
<!-- ast.Call object at 0x7f4432cbb460&#45;&gt;ast.Attribute object at 0x7f4432cb9e70 -->
<g id="edge13" class="edge">
<title>ast.Call object at 0x7f4432cbb460&#45;&gt;ast.Attribute object at 0x7f4432cb9e70</title>
<path fill="none" stroke="black" d="M575.69,-291.51C572.79,-290.25 569.85,-289.06 567,-288 510.38,-267.03 493.87,-269.22 436,-252 432.61,-250.99 429.1,-249.92 425.59,-248.83"/>
<polygon fill="black" stroke="black" points="426.32,-245.39 415.73,-245.74 424.22,-252.07 426.32,-245.39"/>
</g>
<!-- ast.Name object at 0x7f44329c9210 -->
<g id="node18" class="node">
<title>ast.Name object at 0x7f44329c9210</title>
<path fill="#66cdaa" stroke="black" d="M453,-180C453,-180 423,-180 423,-180 417,-180 411,-174 411,-168 411,-168 411,-156 411,-156 411,-150 417,-144 423,-144 423,-144 453,-144 453,-144 459,-144 465,-150 465,-156 465,-156 465,-168 465,-168 465,-174 459,-180 453,-180"/>
<text text-anchor="middle" x="438" y="-158.3" font-family="Times,serif" font-size="14.00">Name</text>
</g>
<!-- ast.Call object at 0x7f4432cbb460&#45;&gt;ast.Name object at 0x7f44329c9210 -->
<g id="edge18" class="edge">
<title>ast.Call object at 0x7f4432cbb460&#45;&gt;ast.Name object at 0x7f44329c9210</title>
<path fill="none" stroke="black" d="M575.94,-292.04C572.94,-290.65 569.91,-289.28 567,-288 528.33,-270.97 509.52,-281.23 479,-252 461.5,-235.24 450.78,-209.59 444.72,-190.12"/>
<polygon fill="black" stroke="black" points="448.02,-188.95 441.89,-180.31 441.3,-190.89 448.02,-188.95"/>
</g>
<!-- ast.Name object at 0x7f44329cb040 -->
<g id="node19" class="node">
<title>ast.Name object at 0x7f44329cb040</title>
<path fill="#66cdaa" stroke="black" d="M508,-108C508,-108 478,-108 478,-108 472,-108 466,-102 466,-96 466,-96 466,-84 466,-84 466,-78 472,-72 478,-72 478,-72 508,-72 508,-72 514,-72 520,-78 520,-84 520,-84 520,-96 520,-96 520,-102 514,-108 508,-108"/>
<text text-anchor="middle" x="493" y="-86.3" font-family="Times,serif" font-size="14.00">Name</text>
</g>
<!-- ast.Call object at 0x7f4432cbb460&#45;&gt;ast.Name object at 0x7f44329cb040 -->
<g id="edge20" class="edge">
<title>ast.Call object at 0x7f4432cbb460&#45;&gt;ast.Name object at 0x7f44329cb040</title>
<path fill="none" stroke="black" d="M586.83,-287.87C566.24,-265.07 531.04,-222.65 512,-180 503.21,-160.31 498.4,-136.33 495.81,-118.22"/>
<polygon fill="black" stroke="black" points="499.25,-117.53 494.51,-108.05 492.31,-118.42 499.25,-117.53"/>
</g>
<!-- ast.Name object at 0x7f4429d6e380 -->
<g id="node20" class="node">
<title>ast.Name object at 0x7f4429d6e380</title>
<path fill="#66cdaa" stroke="black" d="M563,-180C563,-180 533,-180 533,-180 527,-180 521,-174 521,-168 521,-168 521,-156 521,-156 521,-150 527,-144 533,-144 533,-144 563,-144 563,-144 569,-144 575,-150 575,-156 575,-156 575,-168 575,-168 575,-174 569,-180 563,-180"/>
<text text-anchor="middle" x="548" y="-158.3" font-family="Times,serif" font-size="14.00">Name</text>
</g>
<!-- ast.Call object at 0x7f4432cbb460&#45;&gt;ast.Name object at 0x7f4429d6e380 -->
<g id="edge22" class="edge">
<title>ast.Call object at 0x7f4432cbb460&#45;&gt;ast.Name object at 0x7f4429d6e380</title>
<path fill="none" stroke="black" d="M596.37,-287.87C586.91,-263.46 569.47,-218.43 558.32,-189.64"/>
<polygon fill="black" stroke="black" points="561.53,-188.25 554.66,-180.19 555.01,-190.78 561.53,-188.25"/>
</g>
<!-- ast.Name object at 0x7f4429d6e470 -->
<g id="node21" class="node">
<title>ast.Name object at 0x7f4429d6e470</title>
<path fill="#66cdaa" stroke="black" d="M618,-108C618,-108 588,-108 588,-108 582,-108 576,-102 576,-96 576,-96 576,-84 576,-84 576,-78 582,-72 588,-72 588,-72 618,-72 618,-72 624,-72 630,-78 630,-84 630,-84 630,-96 630,-96 630,-102 624,-108 618,-108"/>
<text text-anchor="middle" x="603" y="-86.3" font-family="Times,serif" font-size="14.00">Name</text>
</g>
<!-- ast.Call object at 0x7f4432cbb460&#45;&gt;ast.Name object at 0x7f4429d6e470 -->
<g id="edge24" class="edge">
<title>ast.Call object at 0x7f4432cbb460&#45;&gt;ast.Name object at 0x7f4429d6e470</title>
<path fill="none" stroke="black" d="M603,-287.85C603,-250.83 603,-163.18 603,-118.39"/>
<polygon fill="black" stroke="black" points="606.5,-118.23 603,-108.23 599.5,-118.23 606.5,-118.23"/>
</g>
<!-- ast.Name object at 0x7f4429d6de10 -->
<g id="node22" class="node">
<title>ast.Name object at 0x7f4429d6de10</title>
<path fill="#66cdaa" stroke="black" d="M673,-180C673,-180 643,-180 643,-180 637,-180 631,-174 631,-168 631,-168 631,-156 631,-156 631,-150 637,-144 643,-144 643,-144 673,-144 673,-144 679,-144 685,-150 685,-156 685,-156 685,-168 685,-168 685,-174 679,-180 673,-180"/>
<text text-anchor="middle" x="658" y="-158.3" font-family="Times,serif" font-size="14.00">Name</text>
</g>
<!-- ast.Call object at 0x7f4432cbb460&#45;&gt;ast.Name object at 0x7f4429d6de10 -->
<g id="edge26" class="edge">
<title>ast.Call object at 0x7f4432cbb460&#45;&gt;ast.Name object at 0x7f4429d6de10</title>
<path fill="none" stroke="black" d="M609.63,-287.87C619.09,-263.46 636.53,-218.43 647.68,-189.64"/>
<polygon fill="black" stroke="black" points="650.99,-190.78 651.34,-180.19 644.47,-188.25 650.99,-190.78"/>
</g>
<!-- ast.Name object at 0x7f4429d6e110 -->
<g id="node23" class="node">
<title>ast.Name object at 0x7f4429d6e110</title>
<path fill="#66cdaa" stroke="black" d="M728,-108C728,-108 698,-108 698,-108 692,-108 686,-102 686,-96 686,-96 686,-84 686,-84 686,-78 692,-72 698,-72 698,-72 728,-72 728,-72 734,-72 740,-78 740,-84 740,-84 740,-96 740,-96 740,-102 734,-108 728,-108"/>
<text text-anchor="middle" x="713" y="-86.3" font-family="Times,serif" font-size="14.00">Name</text>
</g>
<!-- ast.Call object at 0x7f4432cbb460&#45;&gt;ast.Name object at 0x7f4429d6e110 -->
<g id="edge28" class="edge">
<title>ast.Call object at 0x7f4432cbb460&#45;&gt;ast.Name object at 0x7f4429d6e110</title>
<path fill="none" stroke="black" d="M619.38,-287.96C640.2,-265.26 675.64,-222.95 694,-180 702.42,-160.3 707.25,-136.49 709.93,-118.46"/>
<polygon fill="black" stroke="black" points="713.43,-118.71 711.31,-108.33 706.5,-117.77 713.43,-118.71"/>
</g>
<!-- ast.Name object at 0x7f4429d6ff70 -->
<g id="node24" class="node">
<title>ast.Name object at 0x7f4429d6ff70</title>
<path fill="#66cdaa" stroke="black" d="M783,-252C783,-252 753,-252 753,-252 747,-252 741,-246 741,-240 741,-240 741,-228 741,-228 741,-222 747,-216 753,-216 753,-216 783,-216 783,-216 789,-216 795,-222 795,-228 795,-228 795,-240 795,-240 795,-246 789,-252 783,-252"/>
<text text-anchor="middle" x="768" y="-230.3" font-family="Times,serif" font-size="14.00">Name</text>
</g>
<!-- ast.Call object at 0x7f4432cbb460&#45;&gt;ast.Name object at 0x7f4429d6ff70 -->
<g id="edge30" class="edge">
<title>ast.Call object at 0x7f4432cbb460&#45;&gt;ast.Name object at 0x7f4429d6ff70</title>
<path fill="none" stroke="black" d="M630.25,-293.44C657.92,-281.7 700.93,-263.45 731.53,-250.47"/>
<polygon fill="black" stroke="black" points="733.15,-253.59 740.99,-246.46 730.41,-247.14 733.15,-253.59"/>
</g>
<!-- ast.Name object at 0x7f4429d6f8b0 -->
<g id="node25" class="node">
<title>ast.Name object at 0x7f4429d6f8b0</title>
<path fill="#66cdaa" stroke="black" d="M855,-252C855,-252 825,-252 825,-252 819,-252 813,-246 813,-240 813,-240 813,-228 813,-228 813,-222 819,-216 825,-216 825,-216 855,-216 855,-216 861,-216 867,-222 867,-228 867,-228 867,-240 867,-240 867,-246 861,-252 855,-252"/>
<text text-anchor="middle" x="840" y="-230.3" font-family="Times,serif" font-size="14.00">Name</text>
</g>
<!-- ast.Call object at 0x7f4432cbb460&#45;&gt;ast.Name object at 0x7f4429d6f8b0 -->
<g id="edge32" class="edge">
<title>ast.Call object at 0x7f4432cbb460&#45;&gt;ast.Name object at 0x7f4429d6f8b0</title>
<path fill="none" stroke="black" d="M630.14,-299.5C667.39,-291.61 736.44,-275.7 802.92,-252.07"/>
<polygon fill="black" stroke="black" points="804.49,-255.22 812.7,-248.52 802.11,-248.64 804.49,-255.22"/>
</g>
<!-- ast.Call object at 0x7f4432cb9c00 -->
<g id="node15" class="node">
<title>ast.Call object at 0x7f4432cb9c00</title>
<path fill="#66cdaa" stroke="black" d="M343,-180C343,-180 313,-180 313,-180 307,-180 301,-174 301,-168 301,-168 301,-156 301,-156 301,-150 307,-144 313,-144 313,-144 343,-144 343,-144 349,-144 355,-150 355,-156 355,-156 355,-168 355,-168 355,-174 349,-180 343,-180"/>
<text text-anchor="middle" x="328" y="-158.3" font-family="Times,serif" font-size="14.00">Call</text>
</g>
<!-- ast.Attribute object at 0x7f4432cb9e70&#45;&gt;ast.Call object at 0x7f4432cb9c00 -->
<g id="edge14" class="edge">
<title>ast.Attribute object at 0x7f4432cb9e70&#45;&gt;ast.Call object at 0x7f4432cb9c00</title>
<path fill="none" stroke="black" d="M369.4,-215.7C362.88,-207.39 354.93,-197.28 347.75,-188.14"/>
<polygon fill="black" stroke="black" points="350.37,-185.81 341.44,-180.1 344.87,-190.13 350.37,-185.81"/>
</g>
<!-- ast.Load object at 0x7f44385edf60 -->
<g id="node17" class="node">
<title>ast.Load object at 0x7f44385edf60</title>
<path fill="#66cdaa" stroke="black" d="M590,-36C590,-36 560,-36 560,-36 554,-36 548,-30 548,-24 548,-24 548,-12 548,-12 548,-6 554,0 560,0 560,0 590,0 590,0 596,0 602,-6 602,-12 602,-12 602,-24 602,-24 602,-30 596,-36 590,-36"/>
<text text-anchor="middle" x="575" y="-14.3" font-family="Times,serif" font-size="14.00">Load</text>
</g>
<!-- ast.Attribute object at 0x7f4432cb9e70&#45;&gt;ast.Load object at 0x7f44385edf60 -->
<g id="edge17" class="edge">
<title>ast.Attribute object at 0x7f4432cb9e70&#45;&gt;ast.Load object at 0x7f44385edf60</title>
<path fill="none" stroke="black" d="M383.67,-215.77C385.93,-182.76 395.72,-110.46 438,-72 466.1,-46.44 507.87,-32.68 537.9,-25.64"/>
<polygon fill="black" stroke="black" points="538.97,-28.99 547.99,-23.43 537.47,-22.16 538.97,-28.99"/>
</g>
<!-- ast.Name object at 0x7f4432cbac50 -->
<g id="node16" class="node">
<title>ast.Name object at 0x7f4432cbac50</title>
<path fill="#66cdaa" stroke="black" d="M343,-108C343,-108 313,-108 313,-108 307,-108 301,-102 301,-96 301,-96 301,-84 301,-84 301,-78 307,-72 313,-72 313,-72 343,-72 343,-72 349,-72 355,-78 355,-84 355,-84 355,-96 355,-96 355,-102 349,-108 343,-108"/>
<text text-anchor="middle" x="328" y="-86.3" font-family="Times,serif" font-size="14.00">Name</text>
</g>
<!-- ast.Call object at 0x7f4432cb9c00&#45;&gt;ast.Name object at 0x7f4432cbac50 -->
<g id="edge15" class="edge">
<title>ast.Call object at 0x7f4432cb9c00&#45;&gt;ast.Name object at 0x7f4432cbac50</title>
<path fill="none" stroke="black" d="M328,-143.7C328,-135.98 328,-126.71 328,-118.11"/>
<polygon fill="black" stroke="black" points="331.5,-118.1 328,-108.1 324.5,-118.1 331.5,-118.1"/>
</g>
<!-- ast.Name object at 0x7f4432cbac50&#45;&gt;ast.Load object at 0x7f44385edf60 -->
<g id="edge16" class="edge">
<title>ast.Name object at 0x7f4432cbac50&#45;&gt;ast.Load object at 0x7f44385edf60</title>
<path fill="none" stroke="black" d="M355.14,-77.12C359.73,-75.29 364.47,-73.51 369,-72 427.12,-52.58 496.45,-36.07 538.03,-26.85"/>
<polygon fill="black" stroke="black" points="538.96,-30.23 547.98,-24.67 537.46,-23.39 538.96,-30.23"/>
</g>
<!-- ast.Name object at 0x7f44329c9210&#45;&gt;ast.Load object at 0x7f44385edf60 -->
<g id="edge19" class="edge">
<title>ast.Name object at 0x7f44329c9210&#45;&gt;ast.Load object at 0x7f44385edf60</title>
<path fill="none" stroke="black" d="M437.28,-144C437.35,-124.52 440.32,-92.65 457,-72 477.21,-46.98 511.73,-33.37 538.23,-26.23"/>
<polygon fill="black" stroke="black" points="539.1,-29.62 547.95,-23.8 537.4,-22.83 539.1,-29.62"/>
</g>
<!-- ast.Name object at 0x7f44329cb040&#45;&gt;ast.Load object at 0x7f44385edf60 -->
<g id="edge21" class="edge">
<title>ast.Name object at 0x7f44329cb040&#45;&gt;ast.Load object at 0x7f44385edf60</title>
<path fill="none" stroke="black" d="M513.27,-71.7C523.5,-62.97 536.06,-52.24 547.18,-42.75"/>
<polygon fill="black" stroke="black" points="549.63,-45.26 554.96,-36.1 545.09,-39.94 549.63,-45.26"/>
</g>
<!-- ast.Name object at 0x7f4429d6e380&#45;&gt;ast.Load object at 0x7f44385edf60 -->
<g id="edge23" class="edge">
<title>ast.Name object at 0x7f4429d6e380&#45;&gt;ast.Load object at 0x7f44385edf60</title>
<path fill="none" stroke="black" d="M551.26,-143.87C555.86,-119.67 564.31,-75.21 569.79,-46.39"/>
<polygon fill="black" stroke="black" points="573.3,-46.67 571.73,-36.19 566.43,-45.36 573.3,-46.67"/>
</g>
<!-- ast.Name object at 0x7f4429d6e470&#45;&gt;ast.Load object at 0x7f44385edf60 -->
<g id="edge25" class="edge">
<title>ast.Name object at 0x7f4429d6e470&#45;&gt;ast.Load object at 0x7f44385edf60</title>
<path fill="none" stroke="black" d="M596.08,-71.7C592.93,-63.81 589.12,-54.3 585.62,-45.55"/>
<polygon fill="black" stroke="black" points="588.81,-44.09 581.84,-36.1 582.31,-46.69 588.81,-44.09"/>
</g>
<!-- ast.Name object at 0x7f4429d6de10&#45;&gt;ast.Load object at 0x7f44385edf60 -->
<g id="edge27" class="edge">
<title>ast.Name object at 0x7f4429d6de10&#45;&gt;ast.Load object at 0x7f44385edf60</title>
<path fill="none" stroke="black" d="M657.63,-143.71C656.5,-124.82 652.51,-94.3 639,-72 631.79,-60.1 620.93,-49.65 610.2,-41.24"/>
<polygon fill="black" stroke="black" points="612.19,-38.36 602.08,-35.22 608.02,-43.98 612.19,-38.36"/>
</g>
<!-- ast.Name object at 0x7f4429d6e110&#45;&gt;ast.Load object at 0x7f44385edf60 -->
<g id="edge29" class="edge">
<title>ast.Name object at 0x7f4429d6e110&#45;&gt;ast.Load object at 0x7f44385edf60</title>
<path fill="none" stroke="black" d="M685.74,-75.17C664.47,-64.38 634.74,-49.3 611.43,-37.48"/>
<polygon fill="black" stroke="black" points="612.71,-34.2 602.21,-32.8 609.54,-40.45 612.71,-34.2"/>
</g>
<!-- ast.Name object at 0x7f4429d6ff70&#45;&gt;ast.Load object at 0x7f44385edf60 -->
<g id="edge31" class="edge">
<title>ast.Name object at 0x7f4429d6ff70&#45;&gt;ast.Load object at 0x7f44385edf60</title>
<path fill="none" stroke="black" d="M771.53,-215.62C777.02,-183.29 783.66,-113.46 749,-72 715.53,-31.97 652.78,-21.53 612.49,-19.17"/>
<polygon fill="black" stroke="black" points="612.41,-15.66 602.26,-18.71 612.1,-22.65 612.41,-15.66"/>
</g>
<!-- ast.Name object at 0x7f4429d6f8b0&#45;&gt;ast.Load object at 0x7f44385edf60 -->
<g id="edge33" class="edge">
<title>ast.Name object at 0x7f4429d6f8b0&#45;&gt;ast.Load object at 0x7f44385edf60</title>
<path fill="none" stroke="black" d="M837.85,-215.8C832.8,-182.82 817.08,-110.58 773,-72 727.73,-32.38 655.9,-21.97 612.33,-19.48"/>
<polygon fill="black" stroke="black" points="612.32,-15.97 602.16,-19.01 611.99,-22.96 612.32,-15.97"/>
</g>
</g>
</svg>
