<?xml version="1.0" encoding="UTF-8" standalone="no"?>
<!DOCTYPE svg PUBLIC "-//W3C//DTD SVG 1.1//EN"
 "http://www.w3.org/Graphics/SVG/1.1/DTD/svg11.dtd">
<!-- Generated by graphviz version 2.43.0 (0)
 -->
<!-- Title: %3 Pages: 1 -->
<svg width="1274pt" height="548pt"
 viewBox="0.00 0.00 1273.66 548.00" xmlns="http://www.w3.org/2000/svg" xmlns:xlink="http://www.w3.org/1999/xlink">
<g id="graph0" class="graph" transform="scale(1 1) rotate(0) translate(4 544)">
<title>%3</title>
<polygon fill="white" stroke="transparent" points="-4,4 -4,-544 1269.66,-544 1269.66,4 -4,4"/>
<!-- ast.Module object at 0x7f767502b1c0 -->
<g id="node1" class="node">
<title>ast.Module object at 0x7f767502b1c0</title>
<path fill="#66cdaa" stroke="black" d="M836.5,-540C836.5,-540 801.5,-540 801.5,-540 795.5,-540 789.5,-534 789.5,-528 789.5,-528 789.5,-516 789.5,-516 789.5,-510 795.5,-504 801.5,-504 801.5,-504 836.5,-504 836.5,-504 842.5,-504 848.5,-510 848.5,-516 848.5,-516 848.5,-528 848.5,-528 848.5,-534 842.5,-540 836.5,-540"/>
<text text-anchor="middle" x="819" y="-518.3" font-family="Times,serif" font-size="14.00">Module</text>
</g>
<!-- ast.FunctionDef object at 0x7f767502b1f0 -->
<g id="node2" class="node">
<title>ast.FunctionDef object at 0x7f767502b1f0</title>
<path fill="#66cdaa" stroke="black" d="M849.5,-468C849.5,-468 788.5,-468 788.5,-468 782.5,-468 776.5,-462 776.5,-456 776.5,-456 776.5,-444 776.5,-444 776.5,-438 782.5,-432 788.5,-432 788.5,-432 849.5,-432 849.5,-432 855.5,-432 861.5,-438 861.5,-444 861.5,-444 861.5,-456 861.5,-456 861.5,-462 855.5,-468 849.5,-468"/>
<text text-anchor="middle" x="819" y="-446.3" font-family="Times,serif" font-size="14.00">FunctionDef</text>
</g>
<!-- ast.Module object at 0x7f767502b1c0&#45;&gt;ast.FunctionDef object at 0x7f767502b1f0 -->
<g id="edge1" class="edge">
<title>ast.Module object at 0x7f767502b1c0&#45;&gt;ast.FunctionDef object at 0x7f767502b1f0</title>
<path fill="none" stroke="black" d="M819,-503.7C819,-495.98 819,-486.71 819,-478.11"/>
<polygon fill="black" stroke="black" points="822.5,-478.1 819,-468.1 815.5,-478.1 822.5,-478.1"/>
</g>
<!-- ast.arguments object at 0x7f767502b9d0 -->
<g id="node3" class="node">
<title>ast.arguments object at 0x7f767502b9d0</title>
<path fill="#66cdaa" stroke="black" d="M513,-396C513,-396 463,-396 463,-396 457,-396 451,-390 451,-384 451,-384 451,-372 451,-372 451,-366 457,-360 463,-360 463,-360 513,-360 513,-360 519,-360 525,-366 525,-372 525,-372 525,-384 525,-384 525,-390 519,-396 513,-396"/>
<text text-anchor="middle" x="488" y="-374.3" font-family="Times,serif" font-size="14.00">arguments</text>
</g>
<!-- ast.FunctionDef object at 0x7f767502b1f0&#45;&gt;ast.arguments object at 0x7f767502b9d0 -->
<g id="edge2" class="edge">
<title>ast.FunctionDef object at 0x7f767502b1f0&#45;&gt;ast.arguments object at 0x7f767502b9d0</title>
<path fill="none" stroke="black" d="M776.18,-440.06C726.03,-429.57 640.46,-411.63 567,-396 556.71,-393.81 545.66,-391.44 535.19,-389.19"/>
<polygon fill="black" stroke="black" points="535.88,-385.76 525.37,-387.08 534.41,-392.6 535.88,-385.76"/>
</g>
<!-- ast.Assign object at 0x7f767502b2b0 -->
<g id="node5" class="node">
<title>ast.Assign object at 0x7f767502b2b0</title>
<path fill="#66cdaa" stroke="black" d="M906,-252C906,-252 876,-252 876,-252 870,-252 864,-246 864,-240 864,-240 864,-228 864,-228 864,-222 870,-216 876,-216 876,-216 906,-216 906,-216 912,-216 918,-222 918,-228 918,-228 918,-240 918,-240 918,-246 912,-252 906,-252"/>
<text text-anchor="middle" x="891" y="-230.3" font-family="Times,serif" font-size="14.00">Assign</text>
</g>
<!-- ast.FunctionDef object at 0x7f767502b1f0&#45;&gt;ast.Assign object at 0x7f767502b2b0 -->
<g id="edge4" class="edge">
<title>ast.FunctionDef object at 0x7f767502b1f0&#45;&gt;ast.Assign object at 0x7f767502b2b0</title>
<path fill="none" stroke="black" d="M824.77,-431.85C837.28,-394.68 866.96,-306.44 881.98,-261.82"/>
<polygon fill="black" stroke="black" points="885.33,-262.83 885.2,-252.23 878.7,-260.59 885.33,-262.83"/>
</g>
<!-- ast.Assign object at 0x7f767502be50 -->
<g id="node12" class="node">
<title>ast.Assign object at 0x7f767502be50</title>
<path fill="#66cdaa" stroke="black" d="M834,-252C834,-252 804,-252 804,-252 798,-252 792,-246 792,-240 792,-240 792,-228 792,-228 792,-222 798,-216 804,-216 804,-216 834,-216 834,-216 840,-216 846,-222 846,-228 846,-228 846,-240 846,-240 846,-246 840,-252 834,-252"/>
<text text-anchor="middle" x="819" y="-230.3" font-family="Times,serif" font-size="14.00">Assign</text>
</g>
<!-- ast.FunctionDef object at 0x7f767502b1f0&#45;&gt;ast.Assign object at 0x7f767502be50 -->
<g id="edge12" class="edge">
<title>ast.FunctionDef object at 0x7f767502b1f0&#45;&gt;ast.Assign object at 0x7f767502be50</title>
<path fill="none" stroke="black" d="M819,-431.85C819,-394.83 819,-307.18 819,-262.39"/>
<polygon fill="black" stroke="black" points="822.5,-262.23 819,-252.23 815.5,-262.23 822.5,-262.23"/>
</g>
<!-- ast.While object at 0x7f767502a230 -->
<g id="node17" class="node">
<title>ast.While object at 0x7f767502a230</title>
<path fill="#66cdaa" stroke="black" d="M618,-396C618,-396 588,-396 588,-396 582,-396 576,-390 576,-384 576,-384 576,-372 576,-372 576,-366 582,-360 588,-360 588,-360 618,-360 618,-360 624,-360 630,-366 630,-372 630,-372 630,-384 630,-384 630,-390 624,-396 618,-396"/>
<text text-anchor="middle" x="603" y="-374.3" font-family="Times,serif" font-size="14.00">While</text>
</g>
<!-- ast.FunctionDef object at 0x7f767502b1f0&#45;&gt;ast.While object at 0x7f767502a230 -->
<g id="edge20" class="edge">
<title>ast.FunctionDef object at 0x7f767502b1f0&#45;&gt;ast.While object at 0x7f767502a230</title>
<path fill="none" stroke="black" d="M776.33,-435.17C736.49,-422.26 677.65,-403.19 639.82,-390.93"/>
<polygon fill="black" stroke="black" points="640.8,-387.57 630.21,-387.82 638.64,-394.23 640.8,-387.57"/>
</g>
<!-- ast.Return object at 0x7f7675029ba0 -->
<g id="node38" class="node">
<title>ast.Return object at 0x7f7675029ba0</title>
<path fill="#66cdaa" stroke="black" d="M1031,-396C1031,-396 1001,-396 1001,-396 995,-396 989,-390 989,-384 989,-384 989,-372 989,-372 989,-366 995,-360 1001,-360 1001,-360 1031,-360 1031,-360 1037,-360 1043,-366 1043,-372 1043,-372 1043,-384 1043,-384 1043,-390 1037,-396 1031,-396"/>
<text text-anchor="middle" x="1016" y="-374.3" font-family="Times,serif" font-size="14.00">Return</text>
</g>
<!-- ast.FunctionDef object at 0x7f767502b1f0&#45;&gt;ast.Return object at 0x7f7675029ba0 -->
<g id="edge52" class="edge">
<title>ast.FunctionDef object at 0x7f767502b1f0&#45;&gt;ast.Return object at 0x7f7675029ba0</title>
<path fill="none" stroke="black" d="M861.75,-433.81C896.72,-421.38 945.67,-403.99 978.98,-392.15"/>
<polygon fill="black" stroke="black" points="980.54,-395.32 988.79,-388.67 978.19,-388.72 980.54,-395.32"/>
</g>
<!-- ast.arg object at 0x7f767502ba90 -->
<g id="node4" class="node">
<title>ast.arg object at 0x7f767502ba90</title>
<path fill="#66cdaa" stroke="black" d="M470,-324C470,-324 440,-324 440,-324 434,-324 428,-318 428,-312 428,-312 428,-300 428,-300 428,-294 434,-288 440,-288 440,-288 470,-288 470,-288 476,-288 482,-294 482,-300 482,-300 482,-312 482,-312 482,-318 476,-324 470,-324"/>
<text text-anchor="middle" x="455" y="-302.3" font-family="Times,serif" font-size="14.00">arg</text>
</g>
<!-- ast.arguments object at 0x7f767502b9d0&#45;&gt;ast.arg object at 0x7f767502ba90 -->
<g id="edge3" class="edge">
<title>ast.arguments object at 0x7f767502b9d0&#45;&gt;ast.arg object at 0x7f767502ba90</title>
<path fill="none" stroke="black" d="M479.84,-359.7C476.09,-351.73 471.55,-342.1 467.38,-333.26"/>
<polygon fill="black" stroke="black" points="470.49,-331.66 463.06,-324.1 464.16,-334.64 470.49,-331.66"/>
</g>
<!-- ast.Name object at 0x7f767502b220 -->
<g id="node6" class="node">
<title>ast.Name object at 0x7f767502b220</title>
<path fill="#66cdaa" stroke="black" d="M906,-180C906,-180 876,-180 876,-180 870,-180 864,-174 864,-168 864,-168 864,-156 864,-156 864,-150 870,-144 876,-144 876,-144 906,-144 906,-144 912,-144 918,-150 918,-156 918,-156 918,-168 918,-168 918,-174 912,-180 906,-180"/>
<text text-anchor="middle" x="891" y="-158.3" font-family="Times,serif" font-size="14.00">Name</text>
</g>
<!-- ast.Assign object at 0x7f767502b2b0&#45;&gt;ast.Name object at 0x7f767502b220 -->
<g id="edge5" class="edge">
<title>ast.Assign object at 0x7f767502b2b0&#45;&gt;ast.Name object at 0x7f767502b220</title>
<path fill="none" stroke="black" d="M891,-215.7C891,-207.98 891,-198.71 891,-190.11"/>
<polygon fill="black" stroke="black" points="894.5,-190.1 891,-180.1 887.5,-190.1 894.5,-190.1"/>
</g>
<!-- ast.Subscript object at 0x7f767502a050 -->
<g id="node8" class="node">
<title>ast.Subscript object at 0x7f767502a050</title>
<path fill="#66cdaa" stroke="black" d="M1143,-180C1143,-180 1099,-180 1099,-180 1093,-180 1087,-174 1087,-168 1087,-168 1087,-156 1087,-156 1087,-150 1093,-144 1099,-144 1099,-144 1143,-144 1143,-144 1149,-144 1155,-150 1155,-156 1155,-156 1155,-168 1155,-168 1155,-174 1149,-180 1143,-180"/>
<text text-anchor="middle" x="1121" y="-158.3" font-family="Times,serif" font-size="14.00">Subscript</text>
</g>
<!-- ast.Assign object at 0x7f767502b2b0&#45;&gt;ast.Subscript object at 0x7f767502a050 -->
<g id="edge7" class="edge">
<title>ast.Assign object at 0x7f767502b2b0&#45;&gt;ast.Subscript object at 0x7f767502a050</title>
<path fill="none" stroke="black" d="M918.29,-224.7C957.5,-212.76 1030.22,-190.63 1077.06,-176.37"/>
<polygon fill="black" stroke="black" points="1078.1,-179.72 1086.65,-173.46 1076.06,-173.02 1078.1,-179.72"/>
</g>
<!-- ast.Store object at 0x7f76a4cf2050 -->
<g id="node7" class="node">
<title>ast.Store object at 0x7f76a4cf2050</title>
<path fill="#66cdaa" stroke="black" d="M834,-108C834,-108 804,-108 804,-108 798,-108 792,-102 792,-96 792,-96 792,-84 792,-84 792,-78 798,-72 804,-72 804,-72 834,-72 834,-72 840,-72 846,-78 846,-84 846,-84 846,-96 846,-96 846,-102 840,-108 834,-108"/>
<text text-anchor="middle" x="819" y="-86.3" font-family="Times,serif" font-size="14.00">Store</text>
</g>
<!-- ast.Name object at 0x7f767502b220&#45;&gt;ast.Store object at 0x7f76a4cf2050 -->
<g id="edge6" class="edge">
<title>ast.Name object at 0x7f767502b220&#45;&gt;ast.Store object at 0x7f76a4cf2050</title>
<path fill="none" stroke="black" d="M873.2,-143.7C864.4,-135.14 853.62,-124.66 844,-115.3"/>
<polygon fill="black" stroke="black" points="846.2,-112.57 836.59,-108.1 841.32,-117.58 846.2,-112.57"/>
</g>
<!-- ast.Name object at 0x7f767502b5e0 -->
<g id="node9" class="node">
<title>ast.Name object at 0x7f767502b5e0</title>
<path fill="#66cdaa" stroke="black" d="M1222,-108C1222,-108 1192,-108 1192,-108 1186,-108 1180,-102 1180,-96 1180,-96 1180,-84 1180,-84 1180,-78 1186,-72 1192,-72 1192,-72 1222,-72 1222,-72 1228,-72 1234,-78 1234,-84 1234,-84 1234,-96 1234,-96 1234,-102 1228,-108 1222,-108"/>
<text text-anchor="middle" x="1207" y="-86.3" font-family="Times,serif" font-size="14.00">Name</text>
</g>
<!-- ast.Subscript object at 0x7f767502a050&#45;&gt;ast.Name object at 0x7f767502b5e0 -->
<g id="edge8" class="edge">
<title>ast.Subscript object at 0x7f767502a050&#45;&gt;ast.Name object at 0x7f767502b5e0</title>
<path fill="none" stroke="black" d="M1142.26,-143.7C1153.09,-134.88 1166.42,-124.03 1178.16,-114.47"/>
<polygon fill="black" stroke="black" points="1180.44,-117.13 1185.99,-108.1 1176.02,-111.7 1180.44,-117.13"/>
</g>
<!-- ast.Load object at 0x7f76a4cf1ff0 -->
<g id="node10" class="node">
<title>ast.Load object at 0x7f76a4cf1ff0</title>
<path fill="#66cdaa" stroke="black" d="M690,-36C690,-36 660,-36 660,-36 654,-36 648,-30 648,-24 648,-24 648,-12 648,-12 648,-6 654,0 660,0 660,0 690,0 690,0 696,0 702,-6 702,-12 702,-12 702,-24 702,-24 702,-30 696,-36 690,-36"/>
<text text-anchor="middle" x="675" y="-14.3" font-family="Times,serif" font-size="14.00">Load</text>
</g>
<!-- ast.Subscript object at 0x7f767502a050&#45;&gt;ast.Load object at 0x7f76a4cf1ff0 -->
<g id="edge11" class="edge">
<title>ast.Subscript object at 0x7f767502a050&#45;&gt;ast.Load object at 0x7f76a4cf1ff0</title>
<path fill="none" stroke="black" d="M1130.29,-143.97C1139.68,-124.16 1150.53,-91.67 1133,-72 1105.14,-40.73 816.66,-25.16 712.36,-20.52"/>
<polygon fill="black" stroke="black" points="712.43,-17.02 702.29,-20.09 712.13,-24.02 712.43,-17.02"/>
</g>
<!-- ast.Constant object at 0x7f7675029120 -->
<g id="node11" class="node">
<title>ast.Constant object at 0x7f7675029120</title>
<path fill="#66cdaa" stroke="black" d="M1111.5,-108C1111.5,-108 1070.5,-108 1070.5,-108 1064.5,-108 1058.5,-102 1058.5,-96 1058.5,-96 1058.5,-84 1058.5,-84 1058.5,-78 1064.5,-72 1070.5,-72 1070.5,-72 1111.5,-72 1111.5,-72 1117.5,-72 1123.5,-78 1123.5,-84 1123.5,-84 1123.5,-96 1123.5,-96 1123.5,-102 1117.5,-108 1111.5,-108"/>
<text text-anchor="middle" x="1091" y="-86.3" font-family="Times,serif" font-size="14.00">Constant</text>
</g>
<!-- ast.Subscript object at 0x7f767502a050&#45;&gt;ast.Constant object at 0x7f7675029120 -->
<g id="edge10" class="edge">
<title>ast.Subscript object at 0x7f767502a050&#45;&gt;ast.Constant object at 0x7f7675029120</title>
<path fill="none" stroke="black" d="M1113.58,-143.7C1110.21,-135.81 1106.13,-126.3 1102.38,-117.55"/>
<polygon fill="black" stroke="black" points="1105.49,-115.92 1098.33,-108.1 1099.05,-118.67 1105.49,-115.92"/>
</g>
<!-- ast.Name object at 0x7f767502b5e0&#45;&gt;ast.Load object at 0x7f76a4cf1ff0 -->
<g id="edge9" class="edge">
<title>ast.Name object at 0x7f767502b5e0&#45;&gt;ast.Load object at 0x7f76a4cf1ff0</title>
<path fill="none" stroke="black" d="M1179.58,-76.38C1175.11,-74.69 1170.48,-73.15 1166,-72 1000.48,-29.68 795.15,-21.13 712.27,-19.42"/>
<polygon fill="black" stroke="black" points="712.15,-15.92 702.09,-19.23 712.02,-22.92 712.15,-15.92"/>
</g>
<!-- ast.Name object at 0x7f767502bfd0 -->
<g id="node13" class="node">
<title>ast.Name object at 0x7f767502bfd0</title>
<path fill="#66cdaa" stroke="black" d="M834,-180C834,-180 804,-180 804,-180 798,-180 792,-174 792,-168 792,-168 792,-156 792,-156 792,-150 798,-144 804,-144 804,-144 834,-144 834,-144 840,-144 846,-150 846,-156 846,-156 846,-168 846,-168 846,-174 840,-180 834,-180"/>
<text text-anchor="middle" x="819" y="-158.3" font-family="Times,serif" font-size="14.00">Name</text>
</g>
<!-- ast.Assign object at 0x7f767502be50&#45;&gt;ast.Name object at 0x7f767502bfd0 -->
<g id="edge13" class="edge">
<title>ast.Assign object at 0x7f767502be50&#45;&gt;ast.Name object at 0x7f767502bfd0</title>
<path fill="none" stroke="black" d="M819,-215.7C819,-207.98 819,-198.71 819,-190.11"/>
<polygon fill="black" stroke="black" points="822.5,-190.1 819,-180.1 815.5,-190.1 822.5,-190.1"/>
</g>
<!-- ast.Subscript object at 0x7f767502b550 -->
<g id="node14" class="node">
<title>ast.Subscript object at 0x7f767502b550</title>
<path fill="#66cdaa" stroke="black" d="M992,-180C992,-180 948,-180 948,-180 942,-180 936,-174 936,-168 936,-168 936,-156 936,-156 936,-150 942,-144 948,-144 948,-144 992,-144 992,-144 998,-144 1004,-150 1004,-156 1004,-156 1004,-168 1004,-168 1004,-174 998,-180 992,-180"/>
<text text-anchor="middle" x="970" y="-158.3" font-family="Times,serif" font-size="14.00">Subscript</text>
</g>
<!-- ast.Assign object at 0x7f767502be50&#45;&gt;ast.Subscript object at 0x7f767502b550 -->
<g id="edge15" class="edge">
<title>ast.Assign object at 0x7f767502be50&#45;&gt;ast.Subscript object at 0x7f767502b550</title>
<path fill="none" stroke="black" d="M846.11,-220.16C849.11,-218.75 852.12,-217.34 855,-216 878.69,-204.95 905.18,-192.73 926.76,-182.81"/>
<polygon fill="black" stroke="black" points="928.37,-185.93 936,-178.57 925.45,-179.56 928.37,-185.93"/>
</g>
<!-- ast.Name object at 0x7f767502bfd0&#45;&gt;ast.Store object at 0x7f76a4cf2050 -->
<g id="edge14" class="edge">
<title>ast.Name object at 0x7f767502bfd0&#45;&gt;ast.Store object at 0x7f76a4cf2050</title>
<path fill="none" stroke="black" d="M819,-143.7C819,-135.98 819,-126.71 819,-118.11"/>
<polygon fill="black" stroke="black" points="822.5,-118.1 819,-108.1 815.5,-118.1 822.5,-118.1"/>
</g>
<!-- ast.Subscript object at 0x7f767502b550&#45;&gt;ast.Load object at 0x7f76a4cf1ff0 -->
<g id="edge19" class="edge">
<title>ast.Subscript object at 0x7f767502b550&#45;&gt;ast.Load object at 0x7f76a4cf1ff0</title>
<path fill="none" stroke="black" d="M968.95,-143.8C966.76,-123.53 959.97,-90.28 939,-72 905.62,-42.9 777.06,-27.85 712.48,-21.98"/>
<polygon fill="black" stroke="black" points="712.58,-18.48 702.31,-21.09 711.97,-25.45 712.58,-18.48"/>
</g>
<!-- ast.Name object at 0x7f767502b940 -->
<g id="node15" class="node">
<title>ast.Name object at 0x7f767502b940</title>
<path fill="#66cdaa" stroke="black" d="M1028,-108C1028,-108 998,-108 998,-108 992,-108 986,-102 986,-96 986,-96 986,-84 986,-84 986,-78 992,-72 998,-72 998,-72 1028,-72 1028,-72 1034,-72 1040,-78 1040,-84 1040,-84 1040,-96 1040,-96 1040,-102 1034,-108 1028,-108"/>
<text text-anchor="middle" x="1013" y="-86.3" font-family="Times,serif" font-size="14.00">Name</text>
</g>
<!-- ast.Subscript object at 0x7f767502b550&#45;&gt;ast.Name object at 0x7f767502b940 -->
<g id="edge16" class="edge">
<title>ast.Subscript object at 0x7f767502b550&#45;&gt;ast.Name object at 0x7f767502b940</title>
<path fill="none" stroke="black" d="M980.63,-143.7C985.63,-135.56 991.69,-125.69 997.21,-116.7"/>
<polygon fill="black" stroke="black" points="1000.24,-118.46 1002.49,-108.1 994.28,-114.79 1000.24,-118.46"/>
</g>
<!-- ast.Constant object at 0x7f76750298d0 -->
<g id="node16" class="node">
<title>ast.Constant object at 0x7f76750298d0</title>
<path fill="#66cdaa" stroke="black" d="M917.5,-108C917.5,-108 876.5,-108 876.5,-108 870.5,-108 864.5,-102 864.5,-96 864.5,-96 864.5,-84 864.5,-84 864.5,-78 870.5,-72 876.5,-72 876.5,-72 917.5,-72 917.5,-72 923.5,-72 929.5,-78 929.5,-84 929.5,-84 929.5,-96 929.5,-96 929.5,-102 923.5,-108 917.5,-108"/>
<text text-anchor="middle" x="897" y="-86.3" font-family="Times,serif" font-size="14.00">Constant</text>
</g>
<!-- ast.Subscript object at 0x7f767502b550&#45;&gt;ast.Constant object at 0x7f76750298d0 -->
<g id="edge18" class="edge">
<title>ast.Subscript object at 0x7f767502b550&#45;&gt;ast.Constant object at 0x7f76750298d0</title>
<path fill="none" stroke="black" d="M951.96,-143.7C942.94,-135.05 931.88,-124.45 922.06,-115.03"/>
<polygon fill="black" stroke="black" points="924.48,-112.5 914.84,-108.1 919.63,-117.55 924.48,-112.5"/>
</g>
<!-- ast.Name object at 0x7f767502b940&#45;&gt;ast.Load object at 0x7f76a4cf1ff0 -->
<g id="edge17" class="edge">
<title>ast.Name object at 0x7f767502b940&#45;&gt;ast.Load object at 0x7f76a4cf1ff0</title>
<path fill="none" stroke="black" d="M985.95,-76.82C981.35,-75.03 976.59,-73.34 972,-72 880.43,-45.19 768.8,-29.7 712.02,-22.99"/>
<polygon fill="black" stroke="black" points="712.41,-19.51 702.07,-21.84 711.6,-26.47 712.41,-19.51"/>
</g>
<!-- ast.Compare object at 0x7f767502a2c0 -->
<g id="node18" class="node">
<title>ast.Compare object at 0x7f767502a2c0</title>
<path fill="#66cdaa" stroke="black" d="M156.5,-180C156.5,-180 113.5,-180 113.5,-180 107.5,-180 101.5,-174 101.5,-168 101.5,-168 101.5,-156 101.5,-156 101.5,-150 107.5,-144 113.5,-144 113.5,-144 156.5,-144 156.5,-144 162.5,-144 168.5,-150 168.5,-156 168.5,-156 168.5,-168 168.5,-168 168.5,-174 162.5,-180 156.5,-180"/>
<text text-anchor="middle" x="135" y="-158.3" font-family="Times,serif" font-size="14.00">Compare</text>
</g>
<!-- ast.While object at 0x7f767502a230&#45;&gt;ast.Compare object at 0x7f767502a2c0 -->
<g id="edge21" class="edge">
<title>ast.While object at 0x7f767502a230&#45;&gt;ast.Compare object at 0x7f767502a2c0</title>
<path fill="none" stroke="black" d="M585.34,-359.83C564.35,-340.2 527.53,-308.17 491,-288 385.6,-229.79 248.02,-190.73 178.81,-173.33"/>
<polygon fill="black" stroke="black" points="179.26,-169.83 168.71,-170.82 177.57,-176.62 179.26,-169.83"/>
</g>
<!-- ast.If object at 0x7f767502b400 -->
<g id="node22" class="node">
<title>ast.If object at 0x7f767502b400</title>
<path fill="#66cdaa" stroke="black" d="M618,-324C618,-324 588,-324 588,-324 582,-324 576,-318 576,-312 576,-312 576,-300 576,-300 576,-294 582,-288 588,-288 588,-288 618,-288 618,-288 624,-288 630,-294 630,-300 630,-300 630,-312 630,-312 630,-318 624,-324 618,-324"/>
<text text-anchor="middle" x="603" y="-302.3" font-family="Times,serif" font-size="14.00">If</text>
</g>
<!-- ast.While object at 0x7f767502a230&#45;&gt;ast.If object at 0x7f767502b400 -->
<g id="edge27" class="edge">
<title>ast.While object at 0x7f767502a230&#45;&gt;ast.If object at 0x7f767502b400</title>
<path fill="none" stroke="black" d="M603,-359.7C603,-351.98 603,-342.71 603,-334.11"/>
<polygon fill="black" stroke="black" points="606.5,-334.1 603,-324.1 599.5,-334.1 606.5,-334.1"/>
</g>
<!-- ast.Name object at 0x7f767502b430 -->
<g id="node19" class="node">
<title>ast.Name object at 0x7f767502b430</title>
<path fill="#66cdaa" stroke="black" d="M114,-108C114,-108 84,-108 84,-108 78,-108 72,-102 72,-96 72,-96 72,-84 72,-84 72,-78 78,-72 84,-72 84,-72 114,-72 114,-72 120,-72 126,-78 126,-84 126,-84 126,-96 126,-96 126,-102 120,-108 114,-108"/>
<text text-anchor="middle" x="99" y="-86.3" font-family="Times,serif" font-size="14.00">Name</text>
</g>
<!-- ast.Compare object at 0x7f767502a2c0&#45;&gt;ast.Name object at 0x7f767502b430 -->
<g id="edge22" class="edge">
<title>ast.Compare object at 0x7f767502a2c0&#45;&gt;ast.Name object at 0x7f767502b430</title>
<path fill="none" stroke="black" d="M126.1,-143.7C122,-135.73 117.05,-126.1 112.51,-117.26"/>
<polygon fill="black" stroke="black" points="115.48,-115.4 107.8,-108.1 109.26,-118.6 115.48,-115.4"/>
</g>
<!-- ast.NotEq object at 0x7f76a4cf2980 -->
<g id="node20" class="node">
<title>ast.NotEq object at 0x7f76a4cf2980</title>
<path fill="#66cdaa" stroke="black" d="M186,-108C186,-108 156,-108 156,-108 150,-108 144,-102 144,-96 144,-96 144,-84 144,-84 144,-78 150,-72 156,-72 156,-72 186,-72 186,-72 192,-72 198,-78 198,-84 198,-84 198,-96 198,-96 198,-102 192,-108 186,-108"/>
<text text-anchor="middle" x="171" y="-86.3" font-family="Times,serif" font-size="14.00">NotEq</text>
</g>
<!-- ast.Compare object at 0x7f767502a2c0&#45;&gt;ast.NotEq object at 0x7f76a4cf2980 -->
<g id="edge24" class="edge">
<title>ast.Compare object at 0x7f767502a2c0&#45;&gt;ast.NotEq object at 0x7f76a4cf2980</title>
<path fill="none" stroke="black" d="M143.9,-143.7C148,-135.73 152.95,-126.1 157.49,-117.26"/>
<polygon fill="black" stroke="black" points="160.74,-118.6 162.2,-108.1 154.52,-115.4 160.74,-118.6"/>
</g>
<!-- ast.Name object at 0x7f767502a830 -->
<g id="node21" class="node">
<title>ast.Name object at 0x7f767502a830</title>
<path fill="#66cdaa" stroke="black" d="M42,-108C42,-108 12,-108 12,-108 6,-108 0,-102 0,-96 0,-96 0,-84 0,-84 0,-78 6,-72 12,-72 12,-72 42,-72 42,-72 48,-72 54,-78 54,-84 54,-84 54,-96 54,-96 54,-102 48,-108 42,-108"/>
<text text-anchor="middle" x="27" y="-86.3" font-family="Times,serif" font-size="14.00">Name</text>
</g>
<!-- ast.Compare object at 0x7f767502a2c0&#45;&gt;ast.Name object at 0x7f767502a830 -->
<g id="edge25" class="edge">
<title>ast.Compare object at 0x7f767502a2c0&#45;&gt;ast.Name object at 0x7f767502a830</title>
<path fill="none" stroke="black" d="M108.58,-143.88C94.59,-134.81 77.22,-123.55 62.11,-113.76"/>
<polygon fill="black" stroke="black" points="63.82,-110.69 53.52,-108.19 60.01,-116.57 63.82,-110.69"/>
</g>
<!-- ast.Name object at 0x7f767502b430&#45;&gt;ast.Load object at 0x7f76a4cf1ff0 -->
<g id="edge23" class="edge">
<title>ast.Name object at 0x7f767502b430&#45;&gt;ast.Load object at 0x7f76a4cf1ff0</title>
<path fill="none" stroke="black" d="M126.14,-75C129.08,-73.84 132.07,-72.81 135,-72 318.45,-21.33 548.68,-17.63 637.59,-18.32"/>
<polygon fill="black" stroke="black" points="637.68,-21.82 647.72,-18.42 637.75,-14.82 637.68,-21.82"/>
</g>
<!-- ast.Name object at 0x7f767502a830&#45;&gt;ast.Load object at 0x7f76a4cf1ff0 -->
<g id="edge26" class="edge">
<title>ast.Name object at 0x7f767502a830&#45;&gt;ast.Load object at 0x7f76a4cf1ff0</title>
<path fill="none" stroke="black" d="M54.13,-74.97C57.07,-73.82 60.06,-72.79 63,-72 172.45,-42.44 522.23,-25.42 637.65,-20.5"/>
<polygon fill="black" stroke="black" points="637.92,-24 647.76,-20.08 637.62,-17 637.92,-24"/>
</g>
<!-- ast.Compare object at 0x7f767502bd60 -->
<g id="node23" class="node">
<title>ast.Compare object at 0x7f767502bd60</title>
<path fill="#66cdaa" stroke="black" d="M372.5,-180C372.5,-180 329.5,-180 329.5,-180 323.5,-180 317.5,-174 317.5,-168 317.5,-168 317.5,-156 317.5,-156 317.5,-150 323.5,-144 329.5,-144 329.5,-144 372.5,-144 372.5,-144 378.5,-144 384.5,-150 384.5,-156 384.5,-156 384.5,-168 384.5,-168 384.5,-174 378.5,-180 372.5,-180"/>
<text text-anchor="middle" x="351" y="-158.3" font-family="Times,serif" font-size="14.00">Compare</text>
</g>
<!-- ast.If object at 0x7f767502b400&#45;&gt;ast.Compare object at 0x7f767502bd60 -->
<g id="edge28" class="edge">
<title>ast.If object at 0x7f767502b400&#45;&gt;ast.Compare object at 0x7f767502bd60</title>
<path fill="none" stroke="black" d="M592.01,-287.69C578.4,-267.61 553.38,-234.87 524,-216 484.14,-190.39 431.2,-176.56 394.43,-169.52"/>
<polygon fill="black" stroke="black" points="394.97,-166.06 384.51,-167.71 393.72,-172.95 394.97,-166.06"/>
</g>
<!-- ast.Assign object at 0x7f7675029270 -->
<g id="node27" class="node">
<title>ast.Assign object at 0x7f7675029270</title>
<path fill="#66cdaa" stroke="black" d="M618,-252C618,-252 588,-252 588,-252 582,-252 576,-246 576,-240 576,-240 576,-228 576,-228 576,-222 582,-216 588,-216 588,-216 618,-216 618,-216 624,-216 630,-222 630,-228 630,-228 630,-240 630,-240 630,-246 624,-252 618,-252"/>
<text text-anchor="middle" x="603" y="-230.3" font-family="Times,serif" font-size="14.00">Assign</text>
</g>
<!-- ast.If object at 0x7f767502b400&#45;&gt;ast.Assign object at 0x7f7675029270 -->
<g id="edge34" class="edge">
<title>ast.If object at 0x7f767502b400&#45;&gt;ast.Assign object at 0x7f7675029270</title>
<path fill="none" stroke="black" d="M603,-287.7C603,-279.98 603,-270.71 603,-262.11"/>
<polygon fill="black" stroke="black" points="606.5,-262.1 603,-252.1 599.5,-262.1 606.5,-262.1"/>
</g>
<!-- ast.Assign object at 0x7f767502b250 -->
<g id="node33" class="node">
<title>ast.Assign object at 0x7f767502b250</title>
<path fill="#66cdaa" stroke="black" d="M690,-252C690,-252 660,-252 660,-252 654,-252 648,-246 648,-240 648,-240 648,-228 648,-228 648,-222 654,-216 660,-216 660,-216 690,-216 690,-216 696,-216 702,-222 702,-228 702,-228 702,-240 702,-240 702,-246 696,-252 690,-252"/>
<text text-anchor="middle" x="675" y="-230.3" font-family="Times,serif" font-size="14.00">Assign</text>
</g>
<!-- ast.If object at 0x7f767502b400&#45;&gt;ast.Assign object at 0x7f767502b250 -->
<g id="edge43" class="edge">
<title>ast.If object at 0x7f767502b400&#45;&gt;ast.Assign object at 0x7f767502b250</title>
<path fill="none" stroke="black" d="M620.8,-287.7C629.6,-279.14 640.38,-268.66 650,-259.3"/>
<polygon fill="black" stroke="black" points="652.68,-261.58 657.41,-252.1 647.8,-256.57 652.68,-261.58"/>
</g>
<!-- ast.Name object at 0x7f767502b670 -->
<g id="node24" class="node">
<title>ast.Name object at 0x7f767502b670</title>
<path fill="#66cdaa" stroke="black" d="M330,-108C330,-108 300,-108 300,-108 294,-108 288,-102 288,-96 288,-96 288,-84 288,-84 288,-78 294,-72 300,-72 300,-72 330,-72 330,-72 336,-72 342,-78 342,-84 342,-84 342,-96 342,-96 342,-102 336,-108 330,-108"/>
<text text-anchor="middle" x="315" y="-86.3" font-family="Times,serif" font-size="14.00">Name</text>
</g>
<!-- ast.Compare object at 0x7f767502bd60&#45;&gt;ast.Name object at 0x7f767502b670 -->
<g id="edge29" class="edge">
<title>ast.Compare object at 0x7f767502bd60&#45;&gt;ast.Name object at 0x7f767502b670</title>
<path fill="none" stroke="black" d="M342.1,-143.7C338,-135.73 333.05,-126.1 328.51,-117.26"/>
<polygon fill="black" stroke="black" points="331.48,-115.4 323.8,-108.1 325.26,-118.6 331.48,-115.4"/>
</g>
<!-- ast.Gt object at 0x7f76a4cf2aa0 -->
<g id="node25" class="node">
<title>ast.Gt object at 0x7f76a4cf2aa0</title>
<path fill="#66cdaa" stroke="black" d="M402,-108C402,-108 372,-108 372,-108 366,-108 360,-102 360,-96 360,-96 360,-84 360,-84 360,-78 366,-72 372,-72 372,-72 402,-72 402,-72 408,-72 414,-78 414,-84 414,-84 414,-96 414,-96 414,-102 408,-108 402,-108"/>
<text text-anchor="middle" x="387" y="-86.3" font-family="Times,serif" font-size="14.00">Gt</text>
</g>
<!-- ast.Compare object at 0x7f767502bd60&#45;&gt;ast.Gt object at 0x7f76a4cf2aa0 -->
<g id="edge31" class="edge">
<title>ast.Compare object at 0x7f767502bd60&#45;&gt;ast.Gt object at 0x7f76a4cf2aa0</title>
<path fill="none" stroke="black" d="M359.9,-143.7C364,-135.73 368.95,-126.1 373.49,-117.26"/>
<polygon fill="black" stroke="black" points="376.74,-118.6 378.2,-108.1 370.52,-115.4 376.74,-118.6"/>
</g>
<!-- ast.Name object at 0x7f767502bac0 -->
<g id="node26" class="node">
<title>ast.Name object at 0x7f767502bac0</title>
<path fill="#66cdaa" stroke="black" d="M258,-108C258,-108 228,-108 228,-108 222,-108 216,-102 216,-96 216,-96 216,-84 216,-84 216,-78 222,-72 228,-72 228,-72 258,-72 258,-72 264,-72 270,-78 270,-84 270,-84 270,-96 270,-96 270,-102 264,-108 258,-108"/>
<text text-anchor="middle" x="243" y="-86.3" font-family="Times,serif" font-size="14.00">Name</text>
</g>
<!-- ast.Compare object at 0x7f767502bd60&#45;&gt;ast.Name object at 0x7f767502bac0 -->
<g id="edge32" class="edge">
<title>ast.Compare object at 0x7f767502bd60&#45;&gt;ast.Name object at 0x7f767502bac0</title>
<path fill="none" stroke="black" d="M324.58,-143.88C310.59,-134.81 293.22,-123.55 278.11,-113.76"/>
<polygon fill="black" stroke="black" points="279.82,-110.69 269.52,-108.19 276.01,-116.57 279.82,-110.69"/>
</g>
<!-- ast.Name object at 0x7f767502b670&#45;&gt;ast.Load object at 0x7f76a4cf1ff0 -->
<g id="edge30" class="edge">
<title>ast.Name object at 0x7f767502b670&#45;&gt;ast.Load object at 0x7f76a4cf1ff0</title>
<path fill="none" stroke="black" d="M342.2,-75.19C345.13,-74 348.1,-72.9 351,-72 451.89,-40.61 576.55,-26.89 637.66,-21.71"/>
<polygon fill="black" stroke="black" points="638.28,-25.17 647.96,-20.87 637.71,-18.19 638.28,-25.17"/>
</g>
<!-- ast.Name object at 0x7f767502bac0&#45;&gt;ast.Load object at 0x7f76a4cf1ff0 -->
<g id="edge33" class="edge">
<title>ast.Name object at 0x7f767502bac0&#45;&gt;ast.Load object at 0x7f76a4cf1ff0</title>
<path fill="none" stroke="black" d="M270.17,-75.11C273.11,-73.93 276.08,-72.86 279,-72 407.13,-34.17 566.63,-23.26 637.75,-20.18"/>
<polygon fill="black" stroke="black" points="638.14,-23.67 647.99,-19.77 637.86,-16.67 638.14,-23.67"/>
</g>
<!-- ast.Name object at 0x7f7675029c00 -->
<g id="node28" class="node">
<title>ast.Name object at 0x7f7675029c00</title>
<path fill="#66cdaa" stroke="black" d="M690,-180C690,-180 660,-180 660,-180 654,-180 648,-174 648,-168 648,-168 648,-156 648,-156 648,-150 654,-144 660,-144 660,-144 690,-144 690,-144 696,-144 702,-150 702,-156 702,-156 702,-168 702,-168 702,-174 696,-180 690,-180"/>
<text text-anchor="middle" x="675" y="-158.3" font-family="Times,serif" font-size="14.00">Name</text>
</g>
<!-- ast.Assign object at 0x7f7675029270&#45;&gt;ast.Name object at 0x7f7675029c00 -->
<g id="edge35" class="edge">
<title>ast.Assign object at 0x7f7675029270&#45;&gt;ast.Name object at 0x7f7675029c00</title>
<path fill="none" stroke="black" d="M620.8,-215.7C629.6,-207.14 640.38,-196.66 650,-187.3"/>
<polygon fill="black" stroke="black" points="652.68,-189.58 657.41,-180.1 647.8,-184.57 652.68,-189.58"/>
</g>
<!-- ast.BinOp object at 0x7f767502a770 -->
<g id="node29" class="node">
<title>ast.BinOp object at 0x7f767502a770</title>
<path fill="#66cdaa" stroke="black" d="M546,-180C546,-180 516,-180 516,-180 510,-180 504,-174 504,-168 504,-168 504,-156 504,-156 504,-150 510,-144 516,-144 516,-144 546,-144 546,-144 552,-144 558,-150 558,-156 558,-156 558,-168 558,-168 558,-174 552,-180 546,-180"/>
<text text-anchor="middle" x="531" y="-158.3" font-family="Times,serif" font-size="14.00">BinOp</text>
</g>
<!-- ast.Assign object at 0x7f7675029270&#45;&gt;ast.BinOp object at 0x7f767502a770 -->
<g id="edge37" class="edge">
<title>ast.Assign object at 0x7f7675029270&#45;&gt;ast.BinOp object at 0x7f767502a770</title>
<path fill="none" stroke="black" d="M585.2,-215.7C576.4,-207.14 565.62,-196.66 556,-187.3"/>
<polygon fill="black" stroke="black" points="558.2,-184.57 548.59,-180.1 553.32,-189.58 558.2,-184.57"/>
</g>
<!-- ast.Name object at 0x7f7675029c00&#45;&gt;ast.Store object at 0x7f76a4cf2050 -->
<g id="edge36" class="edge">
<title>ast.Name object at 0x7f7675029c00&#45;&gt;ast.Store object at 0x7f76a4cf2050</title>
<path fill="none" stroke="black" d="M702.09,-147.83C724.77,-136.81 757.36,-120.97 782.37,-108.81"/>
<polygon fill="black" stroke="black" points="784.08,-111.87 791.55,-104.35 781.02,-105.57 784.08,-111.87"/>
</g>
<!-- ast.Name object at 0x7f767502b280 -->
<g id="node30" class="node">
<title>ast.Name object at 0x7f767502b280</title>
<path fill="#66cdaa" stroke="black" d="M546,-108C546,-108 516,-108 516,-108 510,-108 504,-102 504,-96 504,-96 504,-84 504,-84 504,-78 510,-72 516,-72 516,-72 546,-72 546,-72 552,-72 558,-78 558,-84 558,-84 558,-96 558,-96 558,-102 552,-108 546,-108"/>
<text text-anchor="middle" x="531" y="-86.3" font-family="Times,serif" font-size="14.00">Name</text>
</g>
<!-- ast.BinOp object at 0x7f767502a770&#45;&gt;ast.Name object at 0x7f767502b280 -->
<g id="edge38" class="edge">
<title>ast.BinOp object at 0x7f767502a770&#45;&gt;ast.Name object at 0x7f767502b280</title>
<path fill="none" stroke="black" d="M531,-143.7C531,-135.98 531,-126.71 531,-118.11"/>
<polygon fill="black" stroke="black" points="534.5,-118.1 531,-108.1 527.5,-118.1 534.5,-118.1"/>
</g>
<!-- ast.Sub object at 0x7f76a4cf2290 -->
<g id="node31" class="node">
<title>ast.Sub object at 0x7f76a4cf2290</title>
<path fill="#66cdaa" stroke="black" d="M618,-108C618,-108 588,-108 588,-108 582,-108 576,-102 576,-96 576,-96 576,-84 576,-84 576,-78 582,-72 588,-72 588,-72 618,-72 618,-72 624,-72 630,-78 630,-84 630,-84 630,-96 630,-96 630,-102 624,-108 618,-108"/>
<text text-anchor="middle" x="603" y="-86.3" font-family="Times,serif" font-size="14.00">Sub</text>
</g>
<!-- ast.BinOp object at 0x7f767502a770&#45;&gt;ast.Sub object at 0x7f76a4cf2290 -->
<g id="edge40" class="edge">
<title>ast.BinOp object at 0x7f767502a770&#45;&gt;ast.Sub object at 0x7f76a4cf2290</title>
<path fill="none" stroke="black" d="M548.8,-143.7C557.6,-135.14 568.38,-124.66 578,-115.3"/>
<polygon fill="black" stroke="black" points="580.68,-117.58 585.41,-108.1 575.8,-112.57 580.68,-117.58"/>
</g>
<!-- ast.Name object at 0x7f767502abf0 -->
<g id="node32" class="node">
<title>ast.Name object at 0x7f767502abf0</title>
<path fill="#66cdaa" stroke="black" d="M474,-108C474,-108 444,-108 444,-108 438,-108 432,-102 432,-96 432,-96 432,-84 432,-84 432,-78 438,-72 444,-72 444,-72 474,-72 474,-72 480,-72 486,-78 486,-84 486,-84 486,-96 486,-96 486,-102 480,-108 474,-108"/>
<text text-anchor="middle" x="459" y="-86.3" font-family="Times,serif" font-size="14.00">Name</text>
</g>
<!-- ast.BinOp object at 0x7f767502a770&#45;&gt;ast.Name object at 0x7f767502abf0 -->
<g id="edge41" class="edge">
<title>ast.BinOp object at 0x7f767502a770&#45;&gt;ast.Name object at 0x7f767502abf0</title>
<path fill="none" stroke="black" d="M513.2,-143.7C504.4,-135.14 493.62,-124.66 484,-115.3"/>
<polygon fill="black" stroke="black" points="486.2,-112.57 476.59,-108.1 481.32,-117.58 486.2,-112.57"/>
</g>
<!-- ast.Name object at 0x7f767502b280&#45;&gt;ast.Load object at 0x7f76a4cf1ff0 -->
<g id="edge39" class="edge">
<title>ast.Name object at 0x7f767502b280&#45;&gt;ast.Load object at 0x7f76a4cf1ff0</title>
<path fill="none" stroke="black" d="M558.09,-75.83C580.77,-64.81 613.36,-48.97 638.37,-36.81"/>
<polygon fill="black" stroke="black" points="640.08,-39.87 647.55,-32.35 637.02,-33.57 640.08,-39.87"/>
</g>
<!-- ast.Name object at 0x7f767502abf0&#45;&gt;ast.Load object at 0x7f76a4cf1ff0 -->
<g id="edge42" class="edge">
<title>ast.Name object at 0x7f767502abf0&#45;&gt;ast.Load object at 0x7f76a4cf1ff0</title>
<path fill="none" stroke="black" d="M486.33,-75.56C489.23,-74.29 492.16,-73.08 495,-72 543.42,-53.57 601.15,-37.58 637.94,-28.12"/>
<polygon fill="black" stroke="black" points="638.9,-31.48 647.73,-25.62 637.18,-24.7 638.9,-31.48"/>
</g>
<!-- ast.Name object at 0x7f767502ba00 -->
<g id="node34" class="node">
<title>ast.Name object at 0x7f767502ba00</title>
<path fill="#66cdaa" stroke="black" d="M762,-180C762,-180 732,-180 732,-180 726,-180 720,-174 720,-168 720,-168 720,-156 720,-156 720,-150 726,-144 732,-144 732,-144 762,-144 762,-144 768,-144 774,-150 774,-156 774,-156 774,-168 774,-168 774,-174 768,-180 762,-180"/>
<text text-anchor="middle" x="747" y="-158.3" font-family="Times,serif" font-size="14.00">Name</text>
</g>
<!-- ast.Assign object at 0x7f767502b250&#45;&gt;ast.Name object at 0x7f767502ba00 -->
<g id="edge44" class="edge">
<title>ast.Assign object at 0x7f767502b250&#45;&gt;ast.Name object at 0x7f767502ba00</title>
<path fill="none" stroke="black" d="M692.8,-215.7C701.6,-207.14 712.38,-196.66 722,-187.3"/>
<polygon fill="black" stroke="black" points="724.68,-189.58 729.41,-180.1 719.8,-184.57 724.68,-189.58"/>
</g>
<!-- ast.BinOp object at 0x7f767502b4c0 -->
<g id="node35" class="node">
<title>ast.BinOp object at 0x7f767502b4c0</title>
<path fill="#66cdaa" stroke="black" d="M618,-180C618,-180 588,-180 588,-180 582,-180 576,-174 576,-168 576,-168 576,-156 576,-156 576,-150 582,-144 588,-144 588,-144 618,-144 618,-144 624,-144 630,-150 630,-156 630,-156 630,-168 630,-168 630,-174 624,-180 618,-180"/>
<text text-anchor="middle" x="603" y="-158.3" font-family="Times,serif" font-size="14.00">BinOp</text>
</g>
<!-- ast.Assign object at 0x7f767502b250&#45;&gt;ast.BinOp object at 0x7f767502b4c0 -->
<g id="edge46" class="edge">
<title>ast.Assign object at 0x7f767502b250&#45;&gt;ast.BinOp object at 0x7f767502b4c0</title>
<path fill="none" stroke="black" d="M657.2,-215.7C648.4,-207.14 637.62,-196.66 628,-187.3"/>
<polygon fill="black" stroke="black" points="630.2,-184.57 620.59,-180.1 625.32,-189.58 630.2,-184.57"/>
</g>
<!-- ast.Name object at 0x7f767502ba00&#45;&gt;ast.Store object at 0x7f76a4cf2050 -->
<g id="edge45" class="edge">
<title>ast.Name object at 0x7f767502ba00&#45;&gt;ast.Store object at 0x7f76a4cf2050</title>
<path fill="none" stroke="black" d="M764.8,-143.7C773.6,-135.14 784.38,-124.66 794,-115.3"/>
<polygon fill="black" stroke="black" points="796.68,-117.58 801.41,-108.1 791.8,-112.57 796.68,-117.58"/>
</g>
<!-- ast.BinOp object at 0x7f767502b4c0&#45;&gt;ast.Sub object at 0x7f76a4cf2290 -->
<g id="edge49" class="edge">
<title>ast.BinOp object at 0x7f767502b4c0&#45;&gt;ast.Sub object at 0x7f76a4cf2290</title>
<path fill="none" stroke="black" d="M603,-143.7C603,-135.98 603,-126.71 603,-118.11"/>
<polygon fill="black" stroke="black" points="606.5,-118.1 603,-108.1 599.5,-118.1 606.5,-118.1"/>
</g>
<!-- ast.Name object at 0x7f767502b700 -->
<g id="node36" class="node">
<title>ast.Name object at 0x7f767502b700</title>
<path fill="#66cdaa" stroke="black" d="M762,-108C762,-108 732,-108 732,-108 726,-108 720,-102 720,-96 720,-96 720,-84 720,-84 720,-78 726,-72 732,-72 732,-72 762,-72 762,-72 768,-72 774,-78 774,-84 774,-84 774,-96 774,-96 774,-102 768,-108 762,-108"/>
<text text-anchor="middle" x="747" y="-86.3" font-family="Times,serif" font-size="14.00">Name</text>
</g>
<!-- ast.BinOp object at 0x7f767502b4c0&#45;&gt;ast.Name object at 0x7f767502b700 -->
<g id="edge47" class="edge">
<title>ast.BinOp object at 0x7f767502b4c0&#45;&gt;ast.Name object at 0x7f767502b700</title>
<path fill="none" stroke="black" d="M630.09,-147.83C652.77,-136.81 685.36,-120.97 710.37,-108.81"/>
<polygon fill="black" stroke="black" points="712.08,-111.87 719.55,-104.35 709.02,-105.57 712.08,-111.87"/>
</g>
<!-- ast.Name object at 0x7f7675028820 -->
<g id="node37" class="node">
<title>ast.Name object at 0x7f7675028820</title>
<path fill="#66cdaa" stroke="black" d="M690,-108C690,-108 660,-108 660,-108 654,-108 648,-102 648,-96 648,-96 648,-84 648,-84 648,-78 654,-72 660,-72 660,-72 690,-72 690,-72 696,-72 702,-78 702,-84 702,-84 702,-96 702,-96 702,-102 696,-108 690,-108"/>
<text text-anchor="middle" x="675" y="-86.3" font-family="Times,serif" font-size="14.00">Name</text>
</g>
<!-- ast.BinOp object at 0x7f767502b4c0&#45;&gt;ast.Name object at 0x7f7675028820 -->
<g id="edge50" class="edge">
<title>ast.BinOp object at 0x7f767502b4c0&#45;&gt;ast.Name object at 0x7f7675028820</title>
<path fill="none" stroke="black" d="M620.8,-143.7C629.6,-135.14 640.38,-124.66 650,-115.3"/>
<polygon fill="black" stroke="black" points="652.68,-117.58 657.41,-108.1 647.8,-112.57 652.68,-117.58"/>
</g>
<!-- ast.Name object at 0x7f767502b700&#45;&gt;ast.Load object at 0x7f76a4cf1ff0 -->
<g id="edge48" class="edge">
<title>ast.Name object at 0x7f767502b700&#45;&gt;ast.Load object at 0x7f76a4cf1ff0</title>
<path fill="none" stroke="black" d="M729.2,-71.7C720.4,-63.14 709.62,-52.66 700,-43.3"/>
<polygon fill="black" stroke="black" points="702.2,-40.57 692.59,-36.1 697.32,-45.58 702.2,-40.57"/>
</g>
<!-- ast.Name object at 0x7f7675028820&#45;&gt;ast.Load object at 0x7f76a4cf1ff0 -->
<g id="edge51" class="edge">
<title>ast.Name object at 0x7f7675028820&#45;&gt;ast.Load object at 0x7f76a4cf1ff0</title>
<path fill="none" stroke="black" d="M675,-71.7C675,-63.98 675,-54.71 675,-46.11"/>
<polygon fill="black" stroke="black" points="678.5,-46.1 675,-36.1 671.5,-46.1 678.5,-46.1"/>
</g>
<!-- ast.Name object at 0x7f7675029c30 -->
<g id="node39" class="node">
<title>ast.Name object at 0x7f7675029c30</title>
<path fill="#66cdaa" stroke="black" d="M1206,-324C1206,-324 1176,-324 1176,-324 1170,-324 1164,-318 1164,-312 1164,-312 1164,-300 1164,-300 1164,-294 1170,-288 1176,-288 1176,-288 1206,-288 1206,-288 1212,-288 1218,-294 1218,-300 1218,-300 1218,-312 1218,-312 1218,-318 1212,-324 1206,-324"/>
<text text-anchor="middle" x="1191" y="-302.3" font-family="Times,serif" font-size="14.00">Name</text>
</g>
<!-- ast.Return object at 0x7f7675029ba0&#45;&gt;ast.Name object at 0x7f7675029c30 -->
<g id="edge53" class="edge">
<title>ast.Return object at 0x7f7675029ba0&#45;&gt;ast.Name object at 0x7f7675029c30</title>
<path fill="none" stroke="black" d="M1043.34,-366.06C1073.27,-354.09 1121.38,-334.85 1154.51,-321.6"/>
<polygon fill="black" stroke="black" points="1155.86,-324.82 1163.85,-317.86 1153.26,-318.32 1155.86,-324.82"/>
</g>
<!-- ast.Name object at 0x7f7675029c30&#45;&gt;ast.Load object at 0x7f76a4cf1ff0 -->
<g id="edge54" class="edge">
<title>ast.Name object at 0x7f7675029c30&#45;&gt;ast.Load object at 0x7f76a4cf1ff0</title>
<path fill="none" stroke="black" d="M1203.61,-287.8C1233.11,-245.35 1299.94,-134.5 1243,-72 1207.27,-32.78 833.39,-22.08 712.49,-19.64"/>
<polygon fill="black" stroke="black" points="712.31,-16.14 702.25,-19.44 712.18,-23.13 712.31,-16.14"/>
</g>
</g>
</svg>
