<?xml version="1.0" encoding="UTF-8" standalone="no"?>
<!DOCTYPE svg PUBLIC "-//W3C//DTD SVG 1.1//EN"
 "http://www.w3.org/Graphics/SVG/1.1/DTD/svg11.dtd">
<!-- Generated by graphviz version 2.43.0 (0)
 -->
<!-- Title: %3 Pages: 1 -->
<svg width="339pt" height="620pt"
 viewBox="0.00 0.00 339.00 620.00" xmlns="http://www.w3.org/2000/svg" xmlns:xlink="http://www.w3.org/1999/xlink">
<g id="graph0" class="graph" transform="scale(1 1) rotate(0) translate(4 616)">
<title>%3</title>
<polygon fill="white" stroke="transparent" points="-4,4 -4,-616 335,-616 335,4 -4,4"/>
<!-- ast.Module object at 0x7f648d502f20 -->
<g id="node1" class="node">
<title>ast.Module object at 0x7f648d502f20</title>
<path fill="#66cdaa" stroke="black" d="M95.5,-612C95.5,-612 60.5,-612 60.5,-612 54.5,-612 48.5,-606 48.5,-600 48.5,-600 48.5,-588 48.5,-588 48.5,-582 54.5,-576 60.5,-576 60.5,-576 95.5,-576 95.5,-576 101.5,-576 107.5,-582 107.5,-588 107.5,-588 107.5,-600 107.5,-600 107.5,-606 101.5,-612 95.5,-612"/>
<text text-anchor="middle" x="78" y="-590.3" font-family="Times,serif" font-size="14.00">Module</text>
</g>
<!-- ast.FunctionDef object at 0x7f648d500df0 -->
<g id="node2" class="node">
<title>ast.FunctionDef object at 0x7f648d500df0</title>
<path fill="#66cdaa" stroke="black" d="M108.5,-540C108.5,-540 47.5,-540 47.5,-540 41.5,-540 35.5,-534 35.5,-528 35.5,-528 35.5,-516 35.5,-516 35.5,-510 41.5,-504 47.5,-504 47.5,-504 108.5,-504 108.5,-504 114.5,-504 120.5,-510 120.5,-516 120.5,-516 120.5,-528 120.5,-528 120.5,-534 114.5,-540 108.5,-540"/>
<text text-anchor="middle" x="78" y="-518.3" font-family="Times,serif" font-size="14.00">FunctionDef</text>
</g>
<!-- ast.Module object at 0x7f648d502f20&#45;&gt;ast.FunctionDef object at 0x7f648d500df0 -->
<g id="edge1" class="edge">
<title>ast.Module object at 0x7f648d502f20&#45;&gt;ast.FunctionDef object at 0x7f648d500df0</title>
<path fill="none" stroke="black" d="M78,-575.7C78,-567.98 78,-558.71 78,-550.11"/>
<polygon fill="black" stroke="black" points="81.5,-550.1 78,-540.1 74.5,-550.1 81.5,-550.1"/>
</g>
<!-- ast.arguments object at 0x7f648c40cdc0 -->
<g id="node3" class="node">
<title>ast.arguments object at 0x7f648c40cdc0</title>
<path fill="#66cdaa" stroke="black" d="M62,-468C62,-468 12,-468 12,-468 6,-468 0,-462 0,-456 0,-456 0,-444 0,-444 0,-438 6,-432 12,-432 12,-432 62,-432 62,-432 68,-432 74,-438 74,-444 74,-444 74,-456 74,-456 74,-462 68,-468 62,-468"/>
<text text-anchor="middle" x="37" y="-446.3" font-family="Times,serif" font-size="14.00">arguments</text>
</g>
<!-- ast.FunctionDef object at 0x7f648d500df0&#45;&gt;ast.arguments object at 0x7f648c40cdc0 -->
<g id="edge2" class="edge">
<title>ast.FunctionDef object at 0x7f648d500df0&#45;&gt;ast.arguments object at 0x7f648c40cdc0</title>
<path fill="none" stroke="black" d="M67.87,-503.7C63.15,-495.64 57.44,-485.89 52.22,-476.98"/>
<polygon fill="black" stroke="black" points="55.09,-474.96 47.02,-468.1 49.05,-478.5 55.09,-474.96"/>
</g>
<!-- ast.Return object at 0x7f648c40f340 -->
<g id="node5" class="node">
<title>ast.Return object at 0x7f648c40f340</title>
<path fill="#66cdaa" stroke="black" d="M134,-468C134,-468 104,-468 104,-468 98,-468 92,-462 92,-456 92,-456 92,-444 92,-444 92,-438 98,-432 104,-432 104,-432 134,-432 134,-432 140,-432 146,-438 146,-444 146,-444 146,-456 146,-456 146,-462 140,-468 134,-468"/>
<text text-anchor="middle" x="119" y="-446.3" font-family="Times,serif" font-size="14.00">Return</text>
</g>
<!-- ast.FunctionDef object at 0x7f648d500df0&#45;&gt;ast.Return object at 0x7f648c40f340 -->
<g id="edge4" class="edge">
<title>ast.FunctionDef object at 0x7f648d500df0&#45;&gt;ast.Return object at 0x7f648c40f340</title>
<path fill="none" stroke="black" d="M88.13,-503.7C92.85,-495.64 98.56,-485.89 103.78,-476.98"/>
<polygon fill="black" stroke="black" points="106.95,-478.5 108.98,-468.1 100.91,-474.96 106.95,-478.5"/>
</g>
<!-- ast.arg object at 0x7f648c40da50 -->
<g id="node4" class="node">
<title>ast.arg object at 0x7f648c40da50</title>
<path fill="#66cdaa" stroke="black" d="M52,-396C52,-396 22,-396 22,-396 16,-396 10,-390 10,-384 10,-384 10,-372 10,-372 10,-366 16,-360 22,-360 22,-360 52,-360 52,-360 58,-360 64,-366 64,-372 64,-372 64,-384 64,-384 64,-390 58,-396 52,-396"/>
<text text-anchor="middle" x="37" y="-374.3" font-family="Times,serif" font-size="14.00">arg</text>
</g>
<!-- ast.arguments object at 0x7f648c40cdc0&#45;&gt;ast.arg object at 0x7f648c40da50 -->
<g id="edge3" class="edge">
<title>ast.arguments object at 0x7f648c40cdc0&#45;&gt;ast.arg object at 0x7f648c40da50</title>
<path fill="none" stroke="black" d="M37,-431.7C37,-423.98 37,-414.71 37,-406.11"/>
<polygon fill="black" stroke="black" points="40.5,-406.1 37,-396.1 33.5,-406.1 40.5,-406.1"/>
</g>
<!-- ast.Subscript object at 0x7f648c40e320 -->
<g id="node6" class="node">
<title>ast.Subscript object at 0x7f648c40e320</title>
<path fill="#66cdaa" stroke="black" d="M141,-396C141,-396 97,-396 97,-396 91,-396 85,-390 85,-384 85,-384 85,-372 85,-372 85,-366 91,-360 97,-360 97,-360 141,-360 141,-360 147,-360 153,-366 153,-372 153,-372 153,-384 153,-384 153,-390 147,-396 141,-396"/>
<text text-anchor="middle" x="119" y="-374.3" font-family="Times,serif" font-size="14.00">Subscript</text>
</g>
<!-- ast.Return object at 0x7f648c40f340&#45;&gt;ast.Subscript object at 0x7f648c40e320 -->
<g id="edge5" class="edge">
<title>ast.Return object at 0x7f648c40f340&#45;&gt;ast.Subscript object at 0x7f648c40e320</title>
<path fill="none" stroke="black" d="M119,-431.7C119,-423.98 119,-414.71 119,-406.11"/>
<polygon fill="black" stroke="black" points="122.5,-406.1 119,-396.1 115.5,-406.1 122.5,-406.1"/>
</g>
<!-- ast.Call object at 0x7f648c40c7f0 -->
<g id="node7" class="node">
<title>ast.Call object at 0x7f648c40c7f0</title>
<path fill="#66cdaa" stroke="black" d="M134,-324C134,-324 104,-324 104,-324 98,-324 92,-318 92,-312 92,-312 92,-300 92,-300 92,-294 98,-288 104,-288 104,-288 134,-288 134,-288 140,-288 146,-294 146,-300 146,-300 146,-312 146,-312 146,-318 140,-324 134,-324"/>
<text text-anchor="middle" x="119" y="-302.3" font-family="Times,serif" font-size="14.00">Call</text>
</g>
<!-- ast.Subscript object at 0x7f648c40e320&#45;&gt;ast.Call object at 0x7f648c40c7f0 -->
<g id="edge6" class="edge">
<title>ast.Subscript object at 0x7f648c40e320&#45;&gt;ast.Call object at 0x7f648c40c7f0</title>
<path fill="none" stroke="black" d="M119,-359.7C119,-351.98 119,-342.71 119,-334.11"/>
<polygon fill="black" stroke="black" points="122.5,-334.1 119,-324.1 115.5,-334.1 122.5,-334.1"/>
</g>
<!-- ast.Load object at 0x7f64909edf60 -->
<g id="node9" class="node">
<title>ast.Load object at 0x7f64909edf60</title>
<path fill="#66cdaa" stroke="black" d="M131,-36C131,-36 101,-36 101,-36 95,-36 89,-30 89,-24 89,-24 89,-12 89,-12 89,-6 95,0 101,0 101,0 131,0 131,0 137,0 143,-6 143,-12 143,-12 143,-24 143,-24 143,-30 137,-36 131,-36"/>
<text text-anchor="middle" x="116" y="-14.3" font-family="Times,serif" font-size="14.00">Load</text>
</g>
<!-- ast.Subscript object at 0x7f648c40e320&#45;&gt;ast.Load object at 0x7f64909edf60 -->
<g id="edge22" class="edge">
<title>ast.Subscript object at 0x7f648c40e320&#45;&gt;ast.Load object at 0x7f64909edf60</title>
<path fill="none" stroke="black" d="M92.22,-359.91C58.8,-336.25 6,-290.14 6,-235 6,-235 6,-235 6,-161 6,-120.55 1.27,-104.76 25,-72 38.4,-53.51 60.38,-40.44 79.39,-31.91"/>
<polygon fill="black" stroke="black" points="80.86,-35.09 88.71,-27.97 78.13,-28.64 80.86,-35.09"/>
</g>
<!-- ast.Slice object at 0x7f648c40c880 -->
<g id="node18" class="node">
<title>ast.Slice object at 0x7f648c40c880</title>
<path fill="#66cdaa" stroke="black" d="M256,-324C256,-324 226,-324 226,-324 220,-324 214,-318 214,-312 214,-312 214,-300 214,-300 214,-294 220,-288 226,-288 226,-288 256,-288 256,-288 262,-288 268,-294 268,-300 268,-300 268,-312 268,-312 268,-318 262,-324 256,-324"/>
<text text-anchor="middle" x="241" y="-302.3" font-family="Times,serif" font-size="14.00">Slice</text>
</g>
<!-- ast.Subscript object at 0x7f648c40e320&#45;&gt;ast.Slice object at 0x7f648c40c880 -->
<g id="edge20" class="edge">
<title>ast.Subscript object at 0x7f648c40e320&#45;&gt;ast.Slice object at 0x7f648c40c880</title>
<path fill="none" stroke="black" d="M148.84,-359.88C165.78,-350.16 187.11,-337.92 204.97,-327.67"/>
<polygon fill="black" stroke="black" points="207.03,-330.53 213.96,-322.51 203.55,-324.46 207.03,-330.53"/>
</g>
<!-- ast.Name object at 0x7f648c40fe80 -->
<g id="node8" class="node">
<title>ast.Name object at 0x7f648c40fe80</title>
<path fill="#66cdaa" stroke="black" d="M76,-108C76,-108 46,-108 46,-108 40,-108 34,-102 34,-96 34,-96 34,-84 34,-84 34,-78 40,-72 46,-72 46,-72 76,-72 76,-72 82,-72 88,-78 88,-84 88,-84 88,-96 88,-96 88,-102 82,-108 76,-108"/>
<text text-anchor="middle" x="61" y="-86.3" font-family="Times,serif" font-size="14.00">Name</text>
</g>
<!-- ast.Call object at 0x7f648c40c7f0&#45;&gt;ast.Name object at 0x7f648c40fe80 -->
<g id="edge7" class="edge">
<title>ast.Call object at 0x7f648c40c7f0&#45;&gt;ast.Name object at 0x7f648c40fe80</title>
<path fill="none" stroke="black" d="M101.83,-287.94C93.16,-278.24 83.37,-265.39 78,-252 60.22,-207.71 58.55,-151.34 59.44,-118.4"/>
<polygon fill="black" stroke="black" points="62.94,-118.3 59.82,-108.18 55.95,-118.04 62.94,-118.3"/>
</g>
<!-- ast.ListComp object at 0x7f648c40c460 -->
<g id="node10" class="node">
<title>ast.ListComp object at 0x7f648c40c460</title>
<path fill="#66cdaa" stroke="black" d="M230.5,-252C230.5,-252 183.5,-252 183.5,-252 177.5,-252 171.5,-246 171.5,-240 171.5,-240 171.5,-228 171.5,-228 171.5,-222 177.5,-216 183.5,-216 183.5,-216 230.5,-216 230.5,-216 236.5,-216 242.5,-222 242.5,-228 242.5,-228 242.5,-240 242.5,-240 242.5,-246 236.5,-252 230.5,-252"/>
<text text-anchor="middle" x="207" y="-230.3" font-family="Times,serif" font-size="14.00">ListComp</text>
</g>
<!-- ast.Call object at 0x7f648c40c7f0&#45;&gt;ast.ListComp object at 0x7f648c40c460 -->
<g id="edge9" class="edge">
<title>ast.Call object at 0x7f648c40c7f0&#45;&gt;ast.ListComp object at 0x7f648c40c460</title>
<path fill="none" stroke="black" d="M140.75,-287.7C151.84,-278.88 165.47,-268.03 177.49,-258.47"/>
<polygon fill="black" stroke="black" points="179.85,-261.07 185.5,-252.1 175.49,-255.59 179.85,-261.07"/>
</g>
<!-- ast.keyword object at 0x7f648c40d1b0 -->
<g id="node16" class="node">
<title>ast.keyword object at 0x7f648c40d1b0</title>
<path fill="#66cdaa" stroke="black" d="M139,-252C139,-252 99,-252 99,-252 93,-252 87,-246 87,-240 87,-240 87,-228 87,-228 87,-222 93,-216 99,-216 99,-216 139,-216 139,-216 145,-216 151,-222 151,-228 151,-228 151,-240 151,-240 151,-246 145,-252 139,-252"/>
<text text-anchor="middle" x="119" y="-230.3" font-family="Times,serif" font-size="14.00">keyword</text>
</g>
<!-- ast.Call object at 0x7f648c40c7f0&#45;&gt;ast.keyword object at 0x7f648c40d1b0 -->
<g id="edge17" class="edge">
<title>ast.Call object at 0x7f648c40c7f0&#45;&gt;ast.keyword object at 0x7f648c40d1b0</title>
<path fill="none" stroke="black" d="M119,-287.7C119,-279.98 119,-270.71 119,-262.11"/>
<polygon fill="black" stroke="black" points="122.5,-262.1 119,-252.1 115.5,-262.1 122.5,-262.1"/>
</g>
<!-- ast.Name object at 0x7f648c40fe80&#45;&gt;ast.Load object at 0x7f64909edf60 -->
<g id="edge8" class="edge">
<title>ast.Name object at 0x7f648c40fe80&#45;&gt;ast.Load object at 0x7f64909edf60</title>
<path fill="none" stroke="black" d="M74.6,-71.7C81.12,-63.39 89.07,-53.28 96.25,-44.14"/>
<polygon fill="black" stroke="black" points="99.13,-46.13 102.56,-36.1 93.63,-41.81 99.13,-46.13"/>
</g>
<!-- ast.Name object at 0x7f648c40f1f0 -->
<g id="node11" class="node">
<title>ast.Name object at 0x7f648c40f1f0</title>
<path fill="#66cdaa" stroke="black" d="M319,-180C319,-180 289,-180 289,-180 283,-180 277,-174 277,-168 277,-168 277,-156 277,-156 277,-150 283,-144 289,-144 289,-144 319,-144 319,-144 325,-144 331,-150 331,-156 331,-156 331,-168 331,-168 331,-174 325,-180 319,-180"/>
<text text-anchor="middle" x="304" y="-158.3" font-family="Times,serif" font-size="14.00">Name</text>
</g>
<!-- ast.ListComp object at 0x7f648c40c460&#45;&gt;ast.Name object at 0x7f648c40f1f0 -->
<g id="edge10" class="edge">
<title>ast.ListComp object at 0x7f648c40c460&#45;&gt;ast.Name object at 0x7f648c40f1f0</title>
<path fill="none" stroke="black" d="M230.98,-215.7C243.31,-206.8 258.52,-195.82 271.85,-186.2"/>
<polygon fill="black" stroke="black" points="274.24,-188.79 280.3,-180.1 270.14,-183.12 274.24,-188.79"/>
</g>
<!-- ast.comprehension object at 0x7f648c40f760 -->
<g id="node12" class="node">
<title>ast.comprehension object at 0x7f648c40f760</title>
<path fill="#66cdaa" stroke="black" d="M247,-180C247,-180 171,-180 171,-180 165,-180 159,-174 159,-168 159,-168 159,-156 159,-156 159,-150 165,-144 171,-144 171,-144 247,-144 247,-144 253,-144 259,-150 259,-156 259,-156 259,-168 259,-168 259,-174 253,-180 247,-180"/>
<text text-anchor="middle" x="209" y="-158.3" font-family="Times,serif" font-size="14.00">comprehension</text>
</g>
<!-- ast.ListComp object at 0x7f648c40c460&#45;&gt;ast.comprehension object at 0x7f648c40f760 -->
<g id="edge12" class="edge">
<title>ast.ListComp object at 0x7f648c40c460&#45;&gt;ast.comprehension object at 0x7f648c40f760</title>
<path fill="none" stroke="black" d="M207.49,-215.7C207.71,-207.98 207.98,-198.71 208.23,-190.11"/>
<polygon fill="black" stroke="black" points="211.72,-190.2 208.51,-180.1 204.73,-190 211.72,-190.2"/>
</g>
<!-- ast.Name object at 0x7f648c40f1f0&#45;&gt;ast.Load object at 0x7f64909edf60 -->
<g id="edge11" class="edge">
<title>ast.Name object at 0x7f648c40f1f0&#45;&gt;ast.Load object at 0x7f64909edf60</title>
<path fill="none" stroke="black" d="M303.81,-143.93C302.66,-124.08 297.79,-91.56 279,-72 261.53,-53.81 195.72,-36.47 153.25,-26.83"/>
<polygon fill="black" stroke="black" points="153.79,-23.36 143.26,-24.61 152.27,-30.2 153.79,-23.36"/>
</g>
<!-- ast.Name object at 0x7f648c40d600 -->
<g id="node13" class="node">
<title>ast.Name object at 0x7f648c40d600</title>
<path fill="#66cdaa" stroke="black" d="M258,-108C258,-108 228,-108 228,-108 222,-108 216,-102 216,-96 216,-96 216,-84 216,-84 216,-78 222,-72 228,-72 228,-72 258,-72 258,-72 264,-72 270,-78 270,-84 270,-84 270,-96 270,-96 270,-102 264,-108 258,-108"/>
<text text-anchor="middle" x="243" y="-86.3" font-family="Times,serif" font-size="14.00">Name</text>
</g>
<!-- ast.comprehension object at 0x7f648c40f760&#45;&gt;ast.Name object at 0x7f648c40d600 -->
<g id="edge13" class="edge">
<title>ast.comprehension object at 0x7f648c40f760&#45;&gt;ast.Name object at 0x7f648c40d600</title>
<path fill="none" stroke="black" d="M217.4,-143.7C221.27,-135.73 225.95,-126.1 230.24,-117.26"/>
<polygon fill="black" stroke="black" points="233.47,-118.63 234.69,-108.1 227.17,-115.57 233.47,-118.63"/>
</g>
<!-- ast.Name object at 0x7f648c40f940 -->
<g id="node15" class="node">
<title>ast.Name object at 0x7f648c40f940</title>
<path fill="#66cdaa" stroke="black" d="M186,-108C186,-108 156,-108 156,-108 150,-108 144,-102 144,-96 144,-96 144,-84 144,-84 144,-78 150,-72 156,-72 156,-72 186,-72 186,-72 192,-72 198,-78 198,-84 198,-84 198,-96 198,-96 198,-102 192,-108 186,-108"/>
<text text-anchor="middle" x="171" y="-86.3" font-family="Times,serif" font-size="14.00">Name</text>
</g>
<!-- ast.comprehension object at 0x7f648c40f760&#45;&gt;ast.Name object at 0x7f648c40f940 -->
<g id="edge15" class="edge">
<title>ast.comprehension object at 0x7f648c40f760&#45;&gt;ast.Name object at 0x7f648c40f940</title>
<path fill="none" stroke="black" d="M199.61,-143.7C195.24,-135.64 189.94,-125.89 185.1,-116.98"/>
<polygon fill="black" stroke="black" points="188.13,-115.22 180.29,-108.1 181.98,-118.56 188.13,-115.22"/>
</g>
<!-- ast.Store object at 0x7f64909edfc0 -->
<g id="node14" class="node">
<title>ast.Store object at 0x7f64909edfc0</title>
<path fill="#66cdaa" stroke="black" d="M258,-36C258,-36 228,-36 228,-36 222,-36 216,-30 216,-24 216,-24 216,-12 216,-12 216,-6 222,0 228,0 228,0 258,0 258,0 264,0 270,-6 270,-12 270,-12 270,-24 270,-24 270,-30 264,-36 258,-36"/>
<text text-anchor="middle" x="243" y="-14.3" font-family="Times,serif" font-size="14.00">Store</text>
</g>
<!-- ast.Name object at 0x7f648c40d600&#45;&gt;ast.Store object at 0x7f64909edfc0 -->
<g id="edge14" class="edge">
<title>ast.Name object at 0x7f648c40d600&#45;&gt;ast.Store object at 0x7f64909edfc0</title>
<path fill="none" stroke="black" d="M243,-71.7C243,-63.98 243,-54.71 243,-46.11"/>
<polygon fill="black" stroke="black" points="246.5,-46.1 243,-36.1 239.5,-46.1 246.5,-46.1"/>
</g>
<!-- ast.Name object at 0x7f648c40f940&#45;&gt;ast.Load object at 0x7f64909edf60 -->
<g id="edge16" class="edge">
<title>ast.Name object at 0x7f648c40f940&#45;&gt;ast.Load object at 0x7f64909edf60</title>
<path fill="none" stroke="black" d="M157.4,-71.7C150.88,-63.39 142.93,-53.28 135.75,-44.14"/>
<polygon fill="black" stroke="black" points="138.37,-41.81 129.44,-36.1 132.87,-46.13 138.37,-41.81"/>
</g>
<!-- ast.Name object at 0x7f648c40c700 -->
<g id="node17" class="node">
<title>ast.Name object at 0x7f648c40c700</title>
<path fill="#66cdaa" stroke="black" d="M129,-180C129,-180 99,-180 99,-180 93,-180 87,-174 87,-168 87,-168 87,-156 87,-156 87,-150 93,-144 99,-144 99,-144 129,-144 129,-144 135,-144 141,-150 141,-156 141,-156 141,-168 141,-168 141,-174 135,-180 129,-180"/>
<text text-anchor="middle" x="114" y="-158.3" font-family="Times,serif" font-size="14.00">Name</text>
</g>
<!-- ast.keyword object at 0x7f648c40d1b0&#45;&gt;ast.Name object at 0x7f648c40c700 -->
<g id="edge18" class="edge">
<title>ast.keyword object at 0x7f648c40d1b0&#45;&gt;ast.Name object at 0x7f648c40c700</title>
<path fill="none" stroke="black" d="M117.76,-215.7C117.21,-207.98 116.55,-198.71 115.94,-190.11"/>
<polygon fill="black" stroke="black" points="119.43,-189.83 115.22,-180.1 112.44,-190.33 119.43,-189.83"/>
</g>
<!-- ast.Name object at 0x7f648c40c700&#45;&gt;ast.Load object at 0x7f64909edf60 -->
<g id="edge19" class="edge">
<title>ast.Name object at 0x7f648c40c700&#45;&gt;ast.Load object at 0x7f64909edf60</title>
<path fill="none" stroke="black" d="M114.24,-143.87C114.58,-119.67 115.21,-75.21 115.61,-46.39"/>
<polygon fill="black" stroke="black" points="119.12,-46.24 115.76,-36.19 112.12,-46.14 119.12,-46.24"/>
</g>
<!-- ast.Constant object at 0x7f648c40efe0 -->
<g id="node19" class="node">
<title>ast.Constant object at 0x7f648c40efe0</title>
<path fill="#66cdaa" stroke="black" d="M313.5,-252C313.5,-252 272.5,-252 272.5,-252 266.5,-252 260.5,-246 260.5,-240 260.5,-240 260.5,-228 260.5,-228 260.5,-222 266.5,-216 272.5,-216 272.5,-216 313.5,-216 313.5,-216 319.5,-216 325.5,-222 325.5,-228 325.5,-228 325.5,-240 325.5,-240 325.5,-246 319.5,-252 313.5,-252"/>
<text text-anchor="middle" x="293" y="-230.3" font-family="Times,serif" font-size="14.00">Constant</text>
</g>
<!-- ast.Slice object at 0x7f648c40c880&#45;&gt;ast.Constant object at 0x7f648c40efe0 -->
<g id="edge21" class="edge">
<title>ast.Slice object at 0x7f648c40c880&#45;&gt;ast.Constant object at 0x7f648c40efe0</title>
<path fill="none" stroke="black" d="M253.85,-287.7C260.03,-279.39 267.54,-269.28 274.32,-260.14"/>
<polygon fill="black" stroke="black" points="277.14,-262.22 280.29,-252.1 271.52,-258.04 277.14,-262.22"/>
</g>
</g>
</svg>
