<?xml version="1.0" encoding="UTF-8" standalone="no"?>
<!DOCTYPE svg PUBLIC "-//W3C//DTD SVG 1.1//EN"
 "http://www.w3.org/Graphics/SVG/1.1/DTD/svg11.dtd">
<!-- Generated by graphviz version 2.43.0 (0)
 -->
<!-- Title: %3 Pages: 1 -->
<svg width="928pt" height="620pt"
 viewBox="0.00 0.00 927.88 620.00" xmlns="http://www.w3.org/2000/svg" xmlns:xlink="http://www.w3.org/1999/xlink">
<g id="graph0" class="graph" transform="scale(1 1) rotate(0) translate(4 616)">
<title>%3</title>
<polygon fill="white" stroke="transparent" points="-4,4 -4,-616 923.88,-616 923.88,4 -4,4"/>
<!-- ast.Module object at 0x7f8c3078f880 -->
<g id="node1" class="node">
<title>ast.Module object at 0x7f8c3078f880</title>
<path fill="#66cdaa" stroke="black" d="M190.5,-612C190.5,-612 155.5,-612 155.5,-612 149.5,-612 143.5,-606 143.5,-600 143.5,-600 143.5,-588 143.5,-588 143.5,-582 149.5,-576 155.5,-576 155.5,-576 190.5,-576 190.5,-576 196.5,-576 202.5,-582 202.5,-588 202.5,-588 202.5,-600 202.5,-600 202.5,-606 196.5,-612 190.5,-612"/>
<text text-anchor="middle" x="173" y="-590.3" font-family="Times,serif" font-size="14.00">Module</text>
</g>
<!-- ast.FunctionDef object at 0x7f8c3078ed10 -->
<g id="node2" class="node">
<title>ast.FunctionDef object at 0x7f8c3078ed10</title>
<path fill="#66cdaa" stroke="black" d="M203.5,-540C203.5,-540 142.5,-540 142.5,-540 136.5,-540 130.5,-534 130.5,-528 130.5,-528 130.5,-516 130.5,-516 130.5,-510 136.5,-504 142.5,-504 142.5,-504 203.5,-504 203.5,-504 209.5,-504 215.5,-510 215.5,-516 215.5,-516 215.5,-528 215.5,-528 215.5,-534 209.5,-540 203.5,-540"/>
<text text-anchor="middle" x="173" y="-518.3" font-family="Times,serif" font-size="14.00">FunctionDef</text>
</g>
<!-- ast.Module object at 0x7f8c3078f880&#45;&gt;ast.FunctionDef object at 0x7f8c3078ed10 -->
<g id="edge1" class="edge">
<title>ast.Module object at 0x7f8c3078f880&#45;&gt;ast.FunctionDef object at 0x7f8c3078ed10</title>
<path fill="none" stroke="black" d="M173,-575.7C173,-567.98 173,-558.71 173,-550.11"/>
<polygon fill="black" stroke="black" points="176.5,-550.1 173,-540.1 169.5,-550.1 176.5,-550.1"/>
</g>
<!-- ast.arguments object at 0x7f8c3078d150 -->
<g id="node3" class="node">
<title>ast.arguments object at 0x7f8c3078d150</title>
<path fill="#66cdaa" stroke="black" d="M66,-468C66,-468 16,-468 16,-468 10,-468 4,-462 4,-456 4,-456 4,-444 4,-444 4,-438 10,-432 16,-432 16,-432 66,-432 66,-432 72,-432 78,-438 78,-444 78,-444 78,-456 78,-456 78,-462 72,-468 66,-468"/>
<text text-anchor="middle" x="41" y="-446.3" font-family="Times,serif" font-size="14.00">arguments</text>
</g>
<!-- ast.FunctionDef object at 0x7f8c3078ed10&#45;&gt;ast.arguments object at 0x7f8c3078d150 -->
<g id="edge2" class="edge">
<title>ast.FunctionDef object at 0x7f8c3078ed10&#45;&gt;ast.arguments object at 0x7f8c3078d150</title>
<path fill="none" stroke="black" d="M140.71,-503.88C123.13,-494.55 101.19,-482.92 82.37,-472.94"/>
<polygon fill="black" stroke="black" points="83.89,-469.78 73.41,-468.19 80.61,-475.97 83.89,-469.78"/>
</g>
<!-- ast.Assign object at 0x7f8c3078fac0 -->
<g id="node5" class="node">
<title>ast.Assign object at 0x7f8c3078fac0</title>
<path fill="#66cdaa" stroke="black" d="M152,-468C152,-468 122,-468 122,-468 116,-468 110,-462 110,-456 110,-456 110,-444 110,-444 110,-438 116,-432 122,-432 122,-432 152,-432 152,-432 158,-432 164,-438 164,-444 164,-444 164,-456 164,-456 164,-462 158,-468 152,-468"/>
<text text-anchor="middle" x="137" y="-446.3" font-family="Times,serif" font-size="14.00">Assign</text>
</g>
<!-- ast.FunctionDef object at 0x7f8c3078ed10&#45;&gt;ast.Assign object at 0x7f8c3078fac0 -->
<g id="edge4" class="edge">
<title>ast.FunctionDef object at 0x7f8c3078ed10&#45;&gt;ast.Assign object at 0x7f8c3078fac0</title>
<path fill="none" stroke="black" d="M164.1,-503.7C160,-495.73 155.05,-486.1 150.51,-477.26"/>
<polygon fill="black" stroke="black" points="153.48,-475.4 145.8,-468.1 147.26,-478.6 153.48,-475.4"/>
</g>
<!-- ast.For object at 0x7f8c3078dc60 -->
<g id="node10" class="node">
<title>ast.For object at 0x7f8c3078dc60</title>
<path fill="#66cdaa" stroke="black" d="M267,-468C267,-468 237,-468 237,-468 231,-468 225,-462 225,-456 225,-456 225,-444 225,-444 225,-438 231,-432 237,-432 237,-432 267,-432 267,-432 273,-432 279,-438 279,-444 279,-444 279,-456 279,-456 279,-462 273,-468 267,-468"/>
<text text-anchor="middle" x="252" y="-446.3" font-family="Times,serif" font-size="14.00">For</text>
</g>
<!-- ast.FunctionDef object at 0x7f8c3078ed10&#45;&gt;ast.For object at 0x7f8c3078dc60 -->
<g id="edge9" class="edge">
<title>ast.FunctionDef object at 0x7f8c3078ed10&#45;&gt;ast.For object at 0x7f8c3078dc60</title>
<path fill="none" stroke="black" d="M192.53,-503.7C202.38,-494.97 214.49,-484.24 225.2,-474.75"/>
<polygon fill="black" stroke="black" points="227.53,-477.36 232.7,-468.1 222.89,-472.12 227.53,-477.36"/>
</g>
<!-- ast.Return object at 0x7f8c30c11360 -->
<g id="node38" class="node">
<title>ast.Return object at 0x7f8c30c11360</title>
<path fill="#66cdaa" stroke="black" d="M556,-468C556,-468 526,-468 526,-468 520,-468 514,-462 514,-456 514,-456 514,-444 514,-444 514,-438 520,-432 526,-432 526,-432 556,-432 556,-432 562,-432 568,-438 568,-444 568,-444 568,-456 568,-456 568,-462 562,-468 556,-468"/>
<text text-anchor="middle" x="541" y="-446.3" font-family="Times,serif" font-size="14.00">Return</text>
</g>
<!-- ast.FunctionDef object at 0x7f8c3078ed10&#45;&gt;ast.Return object at 0x7f8c30c11360 -->
<g id="edge52" class="edge">
<title>ast.FunctionDef object at 0x7f8c3078ed10&#45;&gt;ast.Return object at 0x7f8c30c11360</title>
<path fill="none" stroke="black" d="M215.57,-512.9C288.28,-499.07 435.16,-471.13 503.92,-458.05"/>
<polygon fill="black" stroke="black" points="504.7,-461.47 513.87,-456.16 503.39,-454.59 504.7,-461.47"/>
</g>
<!-- ast.arg object at 0x7f8c3078edd0 -->
<g id="node4" class="node">
<title>ast.arg object at 0x7f8c3078edd0</title>
<path fill="#66cdaa" stroke="black" d="M42,-396C42,-396 12,-396 12,-396 6,-396 0,-390 0,-384 0,-384 0,-372 0,-372 0,-366 6,-360 12,-360 12,-360 42,-360 42,-360 48,-360 54,-366 54,-372 54,-372 54,-384 54,-384 54,-390 48,-396 42,-396"/>
<text text-anchor="middle" x="27" y="-374.3" font-family="Times,serif" font-size="14.00">arg</text>
</g>
<!-- ast.arguments object at 0x7f8c3078d150&#45;&gt;ast.arg object at 0x7f8c3078edd0 -->
<g id="edge3" class="edge">
<title>ast.arguments object at 0x7f8c3078d150&#45;&gt;ast.arg object at 0x7f8c3078edd0</title>
<path fill="none" stroke="black" d="M37.54,-431.7C36,-423.98 34.14,-414.71 32.42,-406.11"/>
<polygon fill="black" stroke="black" points="35.81,-405.22 30.42,-396.1 28.95,-406.6 35.81,-405.22"/>
</g>
<!-- ast.Name object at 0x7f8c3078f490 -->
<g id="node6" class="node">
<title>ast.Name object at 0x7f8c3078f490</title>
<path fill="#66cdaa" stroke="black" d="M152,-396C152,-396 122,-396 122,-396 116,-396 110,-390 110,-384 110,-384 110,-372 110,-372 110,-366 116,-360 122,-360 122,-360 152,-360 152,-360 158,-360 164,-366 164,-372 164,-372 164,-384 164,-384 164,-390 158,-396 152,-396"/>
<text text-anchor="middle" x="137" y="-374.3" font-family="Times,serif" font-size="14.00">Name</text>
</g>
<!-- ast.Assign object at 0x7f8c3078fac0&#45;&gt;ast.Name object at 0x7f8c3078f490 -->
<g id="edge5" class="edge">
<title>ast.Assign object at 0x7f8c3078fac0&#45;&gt;ast.Name object at 0x7f8c3078f490</title>
<path fill="none" stroke="black" d="M137,-431.7C137,-423.98 137,-414.71 137,-406.11"/>
<polygon fill="black" stroke="black" points="140.5,-406.1 137,-396.1 133.5,-406.1 140.5,-406.1"/>
</g>
<!-- ast.List object at 0x7f8c3078fa00 -->
<g id="node8" class="node">
<title>ast.List object at 0x7f8c3078fa00</title>
<path fill="#66cdaa" stroke="black" d="M97,-252C97,-252 67,-252 67,-252 61,-252 55,-246 55,-240 55,-240 55,-228 55,-228 55,-222 61,-216 67,-216 67,-216 97,-216 97,-216 103,-216 109,-222 109,-228 109,-228 109,-240 109,-240 109,-246 103,-252 97,-252"/>
<text text-anchor="middle" x="82" y="-230.3" font-family="Times,serif" font-size="14.00">List</text>
</g>
<!-- ast.Assign object at 0x7f8c3078fac0&#45;&gt;ast.List object at 0x7f8c3078fa00 -->
<g id="edge7" class="edge">
<title>ast.Assign object at 0x7f8c3078fac0&#45;&gt;ast.List object at 0x7f8c3078fa00</title>
<path fill="none" stroke="black" d="M122,-431.57C114.42,-421.76 105.82,-408.92 101,-396 84.3,-351.22 81.39,-295.01 81.33,-262.24"/>
<polygon fill="black" stroke="black" points="84.83,-262.09 81.4,-252.07 77.83,-262.04 84.83,-262.09"/>
</g>
<!-- ast.Store object at 0x7f8c348f2080 -->
<g id="node7" class="node">
<title>ast.Store object at 0x7f8c348f2080</title>
<path fill="#66cdaa" stroke="black" d="M152,-324C152,-324 122,-324 122,-324 116,-324 110,-318 110,-312 110,-312 110,-300 110,-300 110,-294 116,-288 122,-288 122,-288 152,-288 152,-288 158,-288 164,-294 164,-300 164,-300 164,-312 164,-312 164,-318 158,-324 152,-324"/>
<text text-anchor="middle" x="137" y="-302.3" font-family="Times,serif" font-size="14.00">Store</text>
</g>
<!-- ast.Name object at 0x7f8c3078f490&#45;&gt;ast.Store object at 0x7f8c348f2080 -->
<g id="edge6" class="edge">
<title>ast.Name object at 0x7f8c3078f490&#45;&gt;ast.Store object at 0x7f8c348f2080</title>
<path fill="none" stroke="black" d="M137,-359.7C137,-351.98 137,-342.71 137,-334.11"/>
<polygon fill="black" stroke="black" points="140.5,-334.1 137,-324.1 133.5,-334.1 140.5,-334.1"/>
</g>
<!-- ast.Load object at 0x7f8c348f2020 -->
<g id="node9" class="node">
<title>ast.Load object at 0x7f8c348f2020</title>
<path fill="#66cdaa" stroke="black" d="M526,-36C526,-36 496,-36 496,-36 490,-36 484,-30 484,-24 484,-24 484,-12 484,-12 484,-6 490,0 496,0 496,0 526,0 526,0 532,0 538,-6 538,-12 538,-12 538,-24 538,-24 538,-30 532,-36 526,-36"/>
<text text-anchor="middle" x="511" y="-14.3" font-family="Times,serif" font-size="14.00">Load</text>
</g>
<!-- ast.List object at 0x7f8c3078fa00&#45;&gt;ast.Load object at 0x7f8c348f2020 -->
<g id="edge8" class="edge">
<title>ast.List object at 0x7f8c3078fa00&#45;&gt;ast.Load object at 0x7f8c348f2020</title>
<path fill="none" stroke="black" d="M80.7,-215.8C79.23,-182.51 81.25,-109.26 123,-72 174.31,-26.21 386.84,-19.69 473.73,-18.97"/>
<polygon fill="black" stroke="black" points="473.95,-22.47 483.93,-18.91 473.91,-15.47 473.95,-22.47"/>
</g>
<!-- ast.Name object at 0x7f8c3078c5e0 -->
<g id="node11" class="node">
<title>ast.Name object at 0x7f8c3078c5e0</title>
<path fill="#66cdaa" stroke="black" d="M230,-396C230,-396 200,-396 200,-396 194,-396 188,-390 188,-384 188,-384 188,-372 188,-372 188,-366 194,-360 200,-360 200,-360 230,-360 230,-360 236,-360 242,-366 242,-372 242,-372 242,-384 242,-384 242,-390 236,-396 230,-396"/>
<text text-anchor="middle" x="215" y="-374.3" font-family="Times,serif" font-size="14.00">Name</text>
</g>
<!-- ast.For object at 0x7f8c3078dc60&#45;&gt;ast.Name object at 0x7f8c3078c5e0 -->
<g id="edge10" class="edge">
<title>ast.For object at 0x7f8c3078dc60&#45;&gt;ast.Name object at 0x7f8c3078c5e0</title>
<path fill="none" stroke="black" d="M242.85,-431.7C238.6,-423.64 233.44,-413.89 228.73,-404.98"/>
<polygon fill="black" stroke="black" points="231.81,-403.31 224.04,-396.1 225.62,-406.58 231.81,-403.31"/>
</g>
<!-- ast.Call object at 0x7f8c3078e0e0 -->
<g id="node12" class="node">
<title>ast.Call object at 0x7f8c3078e0e0</title>
<path fill="#66cdaa" stroke="black" d="M305,-396C305,-396 275,-396 275,-396 269,-396 263,-390 263,-384 263,-384 263,-372 263,-372 263,-366 269,-360 275,-360 275,-360 305,-360 305,-360 311,-360 317,-366 317,-372 317,-372 317,-384 317,-384 317,-390 311,-396 305,-396"/>
<text text-anchor="middle" x="290" y="-374.3" font-family="Times,serif" font-size="14.00">Call</text>
</g>
<!-- ast.For object at 0x7f8c3078dc60&#45;&gt;ast.Call object at 0x7f8c3078e0e0 -->
<g id="edge12" class="edge">
<title>ast.For object at 0x7f8c3078dc60&#45;&gt;ast.Call object at 0x7f8c3078e0e0</title>
<path fill="none" stroke="black" d="M261.39,-431.7C265.76,-423.64 271.06,-413.89 275.9,-404.98"/>
<polygon fill="black" stroke="black" points="279.02,-406.56 280.71,-396.1 272.87,-403.22 279.02,-406.56"/>
</g>
<!-- ast.If object at 0x7f8c3078d9c0 -->
<g id="node16" class="node">
<title>ast.If object at 0x7f8c3078d9c0</title>
<path fill="#66cdaa" stroke="black" d="M464,-396C464,-396 434,-396 434,-396 428,-396 422,-390 422,-384 422,-384 422,-372 422,-372 422,-366 428,-360 434,-360 434,-360 464,-360 464,-360 470,-360 476,-366 476,-372 476,-372 476,-384 476,-384 476,-390 470,-396 464,-396"/>
<text text-anchor="middle" x="449" y="-374.3" font-family="Times,serif" font-size="14.00">If</text>
</g>
<!-- ast.For object at 0x7f8c3078dc60&#45;&gt;ast.If object at 0x7f8c3078d9c0 -->
<g id="edge17" class="edge">
<title>ast.For object at 0x7f8c3078dc60&#45;&gt;ast.If object at 0x7f8c3078d9c0</title>
<path fill="none" stroke="black" d="M279.39,-439.27C313.94,-426.99 373.48,-405.83 412.04,-392.13"/>
<polygon fill="black" stroke="black" points="413.59,-395.3 421.84,-388.65 411.25,-388.7 413.59,-395.3"/>
</g>
<!-- ast.Name object at 0x7f8c3078c5e0&#45;&gt;ast.Store object at 0x7f8c348f2080 -->
<g id="edge11" class="edge">
<title>ast.Name object at 0x7f8c3078c5e0&#45;&gt;ast.Store object at 0x7f8c348f2080</title>
<path fill="none" stroke="black" d="M195.72,-359.7C186.08,-351.05 174.27,-340.45 163.77,-331.03"/>
<polygon fill="black" stroke="black" points="165.84,-328.18 156.06,-324.1 161.16,-333.39 165.84,-328.18"/>
</g>
<!-- ast.Name object at 0x7f8c3078eb90 -->
<g id="node13" class="node">
<title>ast.Name object at 0x7f8c3078eb90</title>
<path fill="#66cdaa" stroke="black" d="M308,-324C308,-324 278,-324 278,-324 272,-324 266,-318 266,-312 266,-312 266,-300 266,-300 266,-294 272,-288 278,-288 278,-288 308,-288 308,-288 314,-288 320,-294 320,-300 320,-300 320,-312 320,-312 320,-318 314,-324 308,-324"/>
<text text-anchor="middle" x="293" y="-302.3" font-family="Times,serif" font-size="14.00">Name</text>
</g>
<!-- ast.Call object at 0x7f8c3078e0e0&#45;&gt;ast.Name object at 0x7f8c3078eb90 -->
<g id="edge13" class="edge">
<title>ast.Call object at 0x7f8c3078e0e0&#45;&gt;ast.Name object at 0x7f8c3078eb90</title>
<path fill="none" stroke="black" d="M290.74,-359.7C291.07,-351.98 291.47,-342.71 291.84,-334.11"/>
<polygon fill="black" stroke="black" points="295.34,-334.25 292.27,-324.1 288.34,-333.95 295.34,-334.25"/>
</g>
<!-- ast.Constant object at 0x7f8c3078e410 -->
<g id="node14" class="node">
<title>ast.Constant object at 0x7f8c3078e410</title>
<path fill="#66cdaa" stroke="black" d="M391.5,-324C391.5,-324 350.5,-324 350.5,-324 344.5,-324 338.5,-318 338.5,-312 338.5,-312 338.5,-300 338.5,-300 338.5,-294 344.5,-288 350.5,-288 350.5,-288 391.5,-288 391.5,-288 397.5,-288 403.5,-294 403.5,-300 403.5,-300 403.5,-312 403.5,-312 403.5,-318 397.5,-324 391.5,-324"/>
<text text-anchor="middle" x="371" y="-302.3" font-family="Times,serif" font-size="14.00">Constant</text>
</g>
<!-- ast.Call object at 0x7f8c3078e0e0&#45;&gt;ast.Constant object at 0x7f8c3078e410 -->
<g id="edge15" class="edge">
<title>ast.Call object at 0x7f8c3078e0e0&#45;&gt;ast.Constant object at 0x7f8c3078e410</title>
<path fill="none" stroke="black" d="M310.02,-359.7C320.13,-350.97 332.54,-340.24 343.52,-330.75"/>
<polygon fill="black" stroke="black" points="345.93,-333.29 351.21,-324.1 341.35,-327.99 345.93,-333.29"/>
</g>
<!-- ast.Constant object at 0x7f8c3078e2c0 -->
<g id="node15" class="node">
<title>ast.Constant object at 0x7f8c3078e2c0</title>
<path fill="#66cdaa" stroke="black" d="M235.5,-324C235.5,-324 194.5,-324 194.5,-324 188.5,-324 182.5,-318 182.5,-312 182.5,-312 182.5,-300 182.5,-300 182.5,-294 188.5,-288 194.5,-288 194.5,-288 235.5,-288 235.5,-288 241.5,-288 247.5,-294 247.5,-300 247.5,-300 247.5,-312 247.5,-312 247.5,-318 241.5,-324 235.5,-324"/>
<text text-anchor="middle" x="215" y="-302.3" font-family="Times,serif" font-size="14.00">Constant</text>
</g>
<!-- ast.Call object at 0x7f8c3078e0e0&#45;&gt;ast.Constant object at 0x7f8c3078e2c0 -->
<g id="edge16" class="edge">
<title>ast.Call object at 0x7f8c3078e0e0&#45;&gt;ast.Constant object at 0x7f8c3078e2c0</title>
<path fill="none" stroke="black" d="M271.46,-359.7C262.2,-351.05 250.84,-340.45 240.74,-331.03"/>
<polygon fill="black" stroke="black" points="243.02,-328.37 233.33,-324.1 238.25,-333.49 243.02,-328.37"/>
</g>
<!-- ast.Name object at 0x7f8c3078eb90&#45;&gt;ast.Load object at 0x7f8c348f2020 -->
<g id="edge14" class="edge">
<title>ast.Name object at 0x7f8c3078eb90&#45;&gt;ast.Load object at 0x7f8c348f2020</title>
<path fill="none" stroke="black" d="M273.03,-287.75C227.71,-246.58 125.39,-140.87 184,-72 220.84,-28.7 395.8,-20.67 473.58,-19.26"/>
<polygon fill="black" stroke="black" points="473.94,-22.75 483.89,-19.1 473.83,-15.75 473.94,-22.75"/>
</g>
<!-- ast.BoolOp object at 0x7f8c3078fa60 -->
<g id="node17" class="node">
<title>ast.BoolOp object at 0x7f8c3078fa60</title>
<path fill="#66cdaa" stroke="black" d="M631.5,-324C631.5,-324 596.5,-324 596.5,-324 590.5,-324 584.5,-318 584.5,-312 584.5,-312 584.5,-300 584.5,-300 584.5,-294 590.5,-288 596.5,-288 596.5,-288 631.5,-288 631.5,-288 637.5,-288 643.5,-294 643.5,-300 643.5,-300 643.5,-312 643.5,-312 643.5,-318 637.5,-324 631.5,-324"/>
<text text-anchor="middle" x="614" y="-302.3" font-family="Times,serif" font-size="14.00">BoolOp</text>
</g>
<!-- ast.If object at 0x7f8c3078d9c0&#45;&gt;ast.BoolOp object at 0x7f8c3078fa60 -->
<g id="edge18" class="edge">
<title>ast.If object at 0x7f8c3078d9c0&#45;&gt;ast.BoolOp object at 0x7f8c3078fa60</title>
<path fill="none" stroke="black" d="M476.25,-365.44C503.17,-354.02 544.63,-336.43 575.03,-323.53"/>
<polygon fill="black" stroke="black" points="576.64,-326.65 584.48,-319.52 573.91,-320.21 576.64,-326.65"/>
</g>
<!-- ast.Expr object at 0x7f8c31087eb0 -->
<g id="node31" class="node">
<title>ast.Expr object at 0x7f8c31087eb0</title>
<path fill="#66cdaa" stroke="black" d="M464,-324C464,-324 434,-324 434,-324 428,-324 422,-318 422,-312 422,-312 422,-300 422,-300 422,-294 428,-288 434,-288 434,-288 464,-288 464,-288 470,-288 476,-294 476,-300 476,-300 476,-312 476,-312 476,-318 470,-324 464,-324"/>
<text text-anchor="middle" x="449" y="-302.3" font-family="Times,serif" font-size="14.00">Expr</text>
</g>
<!-- ast.If object at 0x7f8c3078d9c0&#45;&gt;ast.Expr object at 0x7f8c31087eb0 -->
<g id="edge40" class="edge">
<title>ast.If object at 0x7f8c3078d9c0&#45;&gt;ast.Expr object at 0x7f8c31087eb0</title>
<path fill="none" stroke="black" d="M449,-359.7C449,-351.98 449,-342.71 449,-334.11"/>
<polygon fill="black" stroke="black" points="452.5,-334.1 449,-324.1 445.5,-334.1 452.5,-334.1"/>
</g>
<!-- ast.And object at 0x7f8c348f2170 -->
<g id="node18" class="node">
<title>ast.And object at 0x7f8c348f2170</title>
<path fill="#66cdaa" stroke="black" d="M669,-252C669,-252 639,-252 639,-252 633,-252 627,-246 627,-240 627,-240 627,-228 627,-228 627,-222 633,-216 639,-216 639,-216 669,-216 669,-216 675,-216 681,-222 681,-228 681,-228 681,-240 681,-240 681,-246 675,-252 669,-252"/>
<text text-anchor="middle" x="654" y="-230.3" font-family="Times,serif" font-size="14.00">And</text>
</g>
<!-- ast.BoolOp object at 0x7f8c3078fa60&#45;&gt;ast.And object at 0x7f8c348f2170 -->
<g id="edge19" class="edge">
<title>ast.BoolOp object at 0x7f8c3078fa60&#45;&gt;ast.And object at 0x7f8c348f2170</title>
<path fill="none" stroke="black" d="M623.89,-287.7C628.49,-279.64 634.06,-269.89 639.15,-260.98"/>
<polygon fill="black" stroke="black" points="642.3,-262.52 644.23,-252.1 636.23,-259.05 642.3,-262.52"/>
</g>
<!-- ast.Call object at 0x7f8c3078fbe0 -->
<g id="node19" class="node">
<title>ast.Call object at 0x7f8c3078fbe0</title>
<path fill="#66cdaa" stroke="black" d="M766,-252C766,-252 736,-252 736,-252 730,-252 724,-246 724,-240 724,-240 724,-228 724,-228 724,-222 730,-216 736,-216 736,-216 766,-216 766,-216 772,-216 778,-222 778,-228 778,-228 778,-240 778,-240 778,-246 772,-252 766,-252"/>
<text text-anchor="middle" x="751" y="-230.3" font-family="Times,serif" font-size="14.00">Call</text>
</g>
<!-- ast.BoolOp object at 0x7f8c3078fa60&#45;&gt;ast.Call object at 0x7f8c3078fbe0 -->
<g id="edge20" class="edge">
<title>ast.BoolOp object at 0x7f8c3078fa60&#45;&gt;ast.Call object at 0x7f8c3078fbe0</title>
<path fill="none" stroke="black" d="M643.73,-289.81C664.52,-279.19 692.43,-264.93 714.56,-253.62"/>
<polygon fill="black" stroke="black" points="716.35,-256.64 723.66,-248.97 713.16,-250.4 716.35,-256.64"/>
</g>
<!-- ast.Compare object at 0x7f8c310870a0 -->
<g id="node25" class="node">
<title>ast.Compare object at 0x7f8c310870a0</title>
<path fill="#66cdaa" stroke="black" d="M596.5,-252C596.5,-252 553.5,-252 553.5,-252 547.5,-252 541.5,-246 541.5,-240 541.5,-240 541.5,-228 541.5,-228 541.5,-222 547.5,-216 553.5,-216 553.5,-216 596.5,-216 596.5,-216 602.5,-216 608.5,-222 608.5,-228 608.5,-228 608.5,-240 608.5,-240 608.5,-246 602.5,-252 596.5,-252"/>
<text text-anchor="middle" x="575" y="-230.3" font-family="Times,serif" font-size="14.00">Compare</text>
</g>
<!-- ast.BoolOp object at 0x7f8c3078fa60&#45;&gt;ast.Compare object at 0x7f8c310870a0 -->
<g id="edge31" class="edge">
<title>ast.BoolOp object at 0x7f8c3078fa60&#45;&gt;ast.Compare object at 0x7f8c310870a0</title>
<path fill="none" stroke="black" d="M604.36,-287.7C599.87,-279.64 594.44,-269.89 589.48,-260.98"/>
<polygon fill="black" stroke="black" points="592.45,-259.14 584.53,-252.1 586.34,-262.54 592.45,-259.14"/>
</g>
<!-- ast.Name object at 0x7f8c3078cd60 -->
<g id="node20" class="node">
<title>ast.Name object at 0x7f8c3078cd60</title>
<path fill="#66cdaa" stroke="black" d="M681,-108C681,-108 651,-108 651,-108 645,-108 639,-102 639,-96 639,-96 639,-84 639,-84 639,-78 645,-72 651,-72 651,-72 681,-72 681,-72 687,-72 693,-78 693,-84 693,-84 693,-96 693,-96 693,-102 687,-108 681,-108"/>
<text text-anchor="middle" x="666" y="-86.3" font-family="Times,serif" font-size="14.00">Name</text>
</g>
<!-- ast.Call object at 0x7f8c3078fbe0&#45;&gt;ast.Name object at 0x7f8c3078cd60 -->
<g id="edge21" class="edge">
<title>ast.Call object at 0x7f8c3078fbe0&#45;&gt;ast.Name object at 0x7f8c3078cd60</title>
<path fill="none" stroke="black" d="M740.75,-215.87C726.01,-191.24 698.71,-145.64 681.49,-116.88"/>
<polygon fill="black" stroke="black" points="684.43,-114.97 676.29,-108.19 678.42,-118.57 684.43,-114.97"/>
</g>
<!-- ast.Subscript object at 0x7f8c305de6e0 -->
<g id="node21" class="node">
<title>ast.Subscript object at 0x7f8c305de6e0</title>
<path fill="#66cdaa" stroke="black" d="M798,-180C798,-180 754,-180 754,-180 748,-180 742,-174 742,-168 742,-168 742,-156 742,-156 742,-150 748,-144 754,-144 754,-144 798,-144 798,-144 804,-144 810,-150 810,-156 810,-156 810,-168 810,-168 810,-174 804,-180 798,-180"/>
<text text-anchor="middle" x="776" y="-158.3" font-family="Times,serif" font-size="14.00">Subscript</text>
</g>
<!-- ast.Call object at 0x7f8c3078fbe0&#45;&gt;ast.Subscript object at 0x7f8c305de6e0 -->
<g id="edge23" class="edge">
<title>ast.Call object at 0x7f8c3078fbe0&#45;&gt;ast.Subscript object at 0x7f8c305de6e0</title>
<path fill="none" stroke="black" d="M757.18,-215.7C760,-207.81 763.39,-198.3 766.52,-189.55"/>
<polygon fill="black" stroke="black" points="769.82,-190.7 769.89,-180.1 763.23,-188.34 769.82,-190.7"/>
</g>
<!-- ast.Name object at 0x7f8c31084280 -->
<g id="node24" class="node">
<title>ast.Name object at 0x7f8c31084280</title>
<path fill="#66cdaa" stroke="black" d="M886,-180C886,-180 856,-180 856,-180 850,-180 844,-174 844,-168 844,-168 844,-156 844,-156 844,-150 850,-144 856,-144 856,-144 886,-144 886,-144 892,-144 898,-150 898,-156 898,-156 898,-168 898,-168 898,-174 892,-180 886,-180"/>
<text text-anchor="middle" x="871" y="-158.3" font-family="Times,serif" font-size="14.00">Name</text>
</g>
<!-- ast.Call object at 0x7f8c3078fbe0&#45;&gt;ast.Name object at 0x7f8c31084280 -->
<g id="edge29" class="edge">
<title>ast.Call object at 0x7f8c3078fbe0&#45;&gt;ast.Name object at 0x7f8c31084280</title>
<path fill="none" stroke="black" d="M778.23,-217.12C795.11,-207.27 816.97,-194.52 835.24,-183.86"/>
<polygon fill="black" stroke="black" points="837,-186.88 843.88,-178.82 833.48,-180.84 837,-186.88"/>
</g>
<!-- ast.Name object at 0x7f8c3078cd60&#45;&gt;ast.Load object at 0x7f8c348f2020 -->
<g id="edge22" class="edge">
<title>ast.Name object at 0x7f8c3078cd60&#45;&gt;ast.Load object at 0x7f8c348f2020</title>
<path fill="none" stroke="black" d="M638.9,-76.13C635.9,-74.72 632.89,-73.33 630,-72 602.36,-59.32 570.92,-45.34 547.3,-34.92"/>
<polygon fill="black" stroke="black" points="548.58,-31.66 538.02,-30.83 545.76,-38.06 548.58,-31.66"/>
</g>
<!-- ast.Subscript object at 0x7f8c305de6e0&#45;&gt;ast.Load object at 0x7f8c348f2020 -->
<g id="edge28" class="edge">
<title>ast.Subscript object at 0x7f8c305de6e0&#45;&gt;ast.Load object at 0x7f8c348f2020</title>
<path fill="none" stroke="black" d="M763.76,-143.95C746.93,-120.94 717.02,-81.71 702,-72 654.28,-41.15 588.65,-28.05 548.08,-22.63"/>
<polygon fill="black" stroke="black" points="548.43,-19.15 538.08,-21.39 547.57,-26.1 548.43,-19.15"/>
</g>
<!-- ast.Name object at 0x7f8b8e999e10 -->
<g id="node22" class="node">
<title>ast.Name object at 0x7f8b8e999e10</title>
<path fill="#66cdaa" stroke="black" d="M791,-108C791,-108 761,-108 761,-108 755,-108 749,-102 749,-96 749,-96 749,-84 749,-84 749,-78 755,-72 761,-72 761,-72 791,-72 791,-72 797,-72 803,-78 803,-84 803,-84 803,-96 803,-96 803,-102 797,-108 791,-108"/>
<text text-anchor="middle" x="776" y="-86.3" font-family="Times,serif" font-size="14.00">Name</text>
</g>
<!-- ast.Subscript object at 0x7f8c305de6e0&#45;&gt;ast.Name object at 0x7f8b8e999e10 -->
<g id="edge24" class="edge">
<title>ast.Subscript object at 0x7f8c305de6e0&#45;&gt;ast.Name object at 0x7f8b8e999e10</title>
<path fill="none" stroke="black" d="M776,-143.7C776,-135.98 776,-126.71 776,-118.11"/>
<polygon fill="black" stroke="black" points="779.5,-118.1 776,-108.1 772.5,-118.1 779.5,-118.1"/>
</g>
<!-- ast.Name object at 0x7f8c31085810 -->
<g id="node23" class="node">
<title>ast.Name object at 0x7f8c31085810</title>
<path fill="#66cdaa" stroke="black" d="M863,-108C863,-108 833,-108 833,-108 827,-108 821,-102 821,-96 821,-96 821,-84 821,-84 821,-78 827,-72 833,-72 833,-72 863,-72 863,-72 869,-72 875,-78 875,-84 875,-84 875,-96 875,-96 875,-102 869,-108 863,-108"/>
<text text-anchor="middle" x="848" y="-86.3" font-family="Times,serif" font-size="14.00">Name</text>
</g>
<!-- ast.Subscript object at 0x7f8c305de6e0&#45;&gt;ast.Name object at 0x7f8c31085810 -->
<g id="edge26" class="edge">
<title>ast.Subscript object at 0x7f8c305de6e0&#45;&gt;ast.Name object at 0x7f8c31085810</title>
<path fill="none" stroke="black" d="M793.8,-143.7C802.6,-135.14 813.38,-124.66 823,-115.3"/>
<polygon fill="black" stroke="black" points="825.68,-117.58 830.41,-108.1 820.8,-112.57 825.68,-117.58"/>
</g>
<!-- ast.Name object at 0x7f8b8e999e10&#45;&gt;ast.Load object at 0x7f8c348f2020 -->
<g id="edge25" class="edge">
<title>ast.Name object at 0x7f8b8e999e10&#45;&gt;ast.Load object at 0x7f8c348f2020</title>
<path fill="none" stroke="black" d="M748.88,-77.04C744.29,-75.22 739.55,-73.47 735,-72 670.44,-51.13 592.99,-34.63 548.15,-25.88"/>
<polygon fill="black" stroke="black" points="548.76,-22.44 538.28,-23.98 547.44,-29.31 548.76,-22.44"/>
</g>
<!-- ast.Name object at 0x7f8c31085810&#45;&gt;ast.Load object at 0x7f8c348f2020 -->
<g id="edge27" class="edge">
<title>ast.Name object at 0x7f8c31085810&#45;&gt;ast.Load object at 0x7f8c348f2020</title>
<path fill="none" stroke="black" d="M820.79,-75.23C817.86,-74.03 814.9,-72.92 812,-72 719.65,-42.65 605.87,-28.2 548.24,-22.33"/>
<polygon fill="black" stroke="black" points="548.45,-18.83 538.15,-21.33 547.76,-25.8 548.45,-18.83"/>
</g>
<!-- ast.Name object at 0x7f8c31084280&#45;&gt;ast.Load object at 0x7f8c348f2020 -->
<g id="edge30" class="edge">
<title>ast.Name object at 0x7f8c31084280&#45;&gt;ast.Load object at 0x7f8c348f2020</title>
<path fill="none" stroke="black" d="M880.65,-143.7C890.22,-123.95 901.2,-91.81 884,-72 840.73,-22.15 633.84,-17.96 548.22,-18.42"/>
<polygon fill="black" stroke="black" points="548.13,-14.92 538.16,-18.5 548.19,-21.92 548.13,-14.92"/>
</g>
<!-- ast.Subscript object at 0x7f8c31085c90 -->
<g id="node26" class="node">
<title>ast.Subscript object at 0x7f8c31085c90</title>
<path fill="#66cdaa" stroke="black" d="M518,-180C518,-180 474,-180 474,-180 468,-180 462,-174 462,-168 462,-168 462,-156 462,-156 462,-150 468,-144 474,-144 474,-144 518,-144 518,-144 524,-144 530,-150 530,-156 530,-156 530,-168 530,-168 530,-174 524,-180 518,-180"/>
<text text-anchor="middle" x="496" y="-158.3" font-family="Times,serif" font-size="14.00">Subscript</text>
</g>
<!-- ast.Compare object at 0x7f8c310870a0&#45;&gt;ast.Subscript object at 0x7f8c31085c90 -->
<g id="edge32" class="edge">
<title>ast.Compare object at 0x7f8c310870a0&#45;&gt;ast.Subscript object at 0x7f8c31085c90</title>
<path fill="none" stroke="black" d="M555.47,-215.7C545.62,-206.97 533.51,-196.24 522.8,-186.75"/>
<polygon fill="black" stroke="black" points="525.11,-184.12 515.3,-180.1 520.47,-189.36 525.11,-184.12"/>
</g>
<!-- ast.Gt object at 0x7f8c348f2ad0 -->
<g id="node29" class="node">
<title>ast.Gt object at 0x7f8c348f2ad0</title>
<path fill="#66cdaa" stroke="black" d="M590,-180C590,-180 560,-180 560,-180 554,-180 548,-174 548,-168 548,-168 548,-156 548,-156 548,-150 554,-144 560,-144 560,-144 590,-144 590,-144 596,-144 602,-150 602,-156 602,-156 602,-168 602,-168 602,-174 596,-180 590,-180"/>
<text text-anchor="middle" x="575" y="-158.3" font-family="Times,serif" font-size="14.00">Gt</text>
</g>
<!-- ast.Compare object at 0x7f8c310870a0&#45;&gt;ast.Gt object at 0x7f8c348f2ad0 -->
<g id="edge38" class="edge">
<title>ast.Compare object at 0x7f8c310870a0&#45;&gt;ast.Gt object at 0x7f8c348f2ad0</title>
<path fill="none" stroke="black" d="M575,-215.7C575,-207.98 575,-198.71 575,-190.11"/>
<polygon fill="black" stroke="black" points="578.5,-190.1 575,-180.1 571.5,-190.1 578.5,-190.1"/>
</g>
<!-- ast.Constant object at 0x7f8c310846a0 -->
<g id="node30" class="node">
<title>ast.Constant object at 0x7f8c310846a0</title>
<path fill="#66cdaa" stroke="black" d="M673.5,-180C673.5,-180 632.5,-180 632.5,-180 626.5,-180 620.5,-174 620.5,-168 620.5,-168 620.5,-156 620.5,-156 620.5,-150 626.5,-144 632.5,-144 632.5,-144 673.5,-144 673.5,-144 679.5,-144 685.5,-150 685.5,-156 685.5,-156 685.5,-168 685.5,-168 685.5,-174 679.5,-180 673.5,-180"/>
<text text-anchor="middle" x="653" y="-158.3" font-family="Times,serif" font-size="14.00">Constant</text>
</g>
<!-- ast.Compare object at 0x7f8c310870a0&#45;&gt;ast.Constant object at 0x7f8c310846a0 -->
<g id="edge39" class="edge">
<title>ast.Compare object at 0x7f8c310870a0&#45;&gt;ast.Constant object at 0x7f8c310846a0</title>
<path fill="none" stroke="black" d="M594.28,-215.7C603.92,-207.05 615.73,-196.45 626.23,-187.03"/>
<polygon fill="black" stroke="black" points="628.84,-189.39 633.94,-180.1 624.16,-184.18 628.84,-189.39"/>
</g>
<!-- ast.Subscript object at 0x7f8c31085c90&#45;&gt;ast.Load object at 0x7f8c348f2020 -->
<g id="edge37" class="edge">
<title>ast.Subscript object at 0x7f8c31085c90&#45;&gt;ast.Load object at 0x7f8c348f2020</title>
<path fill="none" stroke="black" d="M505.95,-143.98C511.27,-133.89 517.27,-120.64 520,-108 524.4,-87.63 521.71,-64.17 518.16,-46.45"/>
<polygon fill="black" stroke="black" points="521.48,-45.24 515.9,-36.24 514.65,-46.76 521.48,-45.24"/>
</g>
<!-- ast.Name object at 0x7f8c31087460 -->
<g id="node27" class="node">
<title>ast.Name object at 0x7f8c31087460</title>
<path fill="#66cdaa" stroke="black" d="M609,-108C609,-108 579,-108 579,-108 573,-108 567,-102 567,-96 567,-96 567,-84 567,-84 567,-78 573,-72 579,-72 579,-72 609,-72 609,-72 615,-72 621,-78 621,-84 621,-84 621,-96 621,-96 621,-102 615,-108 609,-108"/>
<text text-anchor="middle" x="594" y="-86.3" font-family="Times,serif" font-size="14.00">Name</text>
</g>
<!-- ast.Subscript object at 0x7f8c31085c90&#45;&gt;ast.Name object at 0x7f8c31087460 -->
<g id="edge33" class="edge">
<title>ast.Subscript object at 0x7f8c31085c90&#45;&gt;ast.Name object at 0x7f8c31087460</title>
<path fill="none" stroke="black" d="M519.97,-143.88C532.55,-134.89 548.13,-123.76 561.75,-114.03"/>
<polygon fill="black" stroke="black" points="563.83,-116.85 569.93,-108.19 559.76,-111.15 563.83,-116.85"/>
</g>
<!-- ast.Name object at 0x7f8c31087ca0 -->
<g id="node28" class="node">
<title>ast.Name object at 0x7f8c31087ca0</title>
<path fill="#66cdaa" stroke="black" d="M499,-108C499,-108 469,-108 469,-108 463,-108 457,-102 457,-96 457,-96 457,-84 457,-84 457,-78 463,-72 469,-72 469,-72 499,-72 499,-72 505,-72 511,-78 511,-84 511,-84 511,-96 511,-96 511,-102 505,-108 499,-108"/>
<text text-anchor="middle" x="484" y="-86.3" font-family="Times,serif" font-size="14.00">Name</text>
</g>
<!-- ast.Subscript object at 0x7f8c31085c90&#45;&gt;ast.Name object at 0x7f8c31087ca0 -->
<g id="edge35" class="edge">
<title>ast.Subscript object at 0x7f8c31085c90&#45;&gt;ast.Name object at 0x7f8c31087ca0</title>
<path fill="none" stroke="black" d="M493.03,-143.7C491.71,-135.98 490.12,-126.71 488.65,-118.11"/>
<polygon fill="black" stroke="black" points="492.07,-117.37 486.93,-108.1 485.17,-118.55 492.07,-117.37"/>
</g>
<!-- ast.Name object at 0x7f8c31087460&#45;&gt;ast.Load object at 0x7f8c348f2020 -->
<g id="edge34" class="edge">
<title>ast.Name object at 0x7f8c31087460&#45;&gt;ast.Load object at 0x7f8c348f2020</title>
<path fill="none" stroke="black" d="M573.48,-71.7C563.13,-62.97 550.41,-52.24 539.16,-42.75"/>
<polygon fill="black" stroke="black" points="541.18,-39.88 531.28,-36.1 536.67,-45.23 541.18,-39.88"/>
</g>
<!-- ast.Name object at 0x7f8c31087ca0&#45;&gt;ast.Load object at 0x7f8c348f2020 -->
<g id="edge36" class="edge">
<title>ast.Name object at 0x7f8c31087ca0&#45;&gt;ast.Load object at 0x7f8c348f2020</title>
<path fill="none" stroke="black" d="M490.67,-71.7C493.71,-63.81 497.38,-54.3 500.76,-45.55"/>
<polygon fill="black" stroke="black" points="504.07,-46.69 504.4,-36.1 497.54,-44.17 504.07,-46.69"/>
</g>
<!-- ast.Call object at 0x7f8c31087af0 -->
<g id="node32" class="node">
<title>ast.Call object at 0x7f8c31087af0</title>
<path fill="#66cdaa" stroke="black" d="M414,-252C414,-252 384,-252 384,-252 378,-252 372,-246 372,-240 372,-240 372,-228 372,-228 372,-222 378,-216 384,-216 384,-216 414,-216 414,-216 420,-216 426,-222 426,-228 426,-228 426,-240 426,-240 426,-246 420,-252 414,-252"/>
<text text-anchor="middle" x="399" y="-230.3" font-family="Times,serif" font-size="14.00">Call</text>
</g>
<!-- ast.Expr object at 0x7f8c31087eb0&#45;&gt;ast.Call object at 0x7f8c31087af0 -->
<g id="edge41" class="edge">
<title>ast.Expr object at 0x7f8c31087eb0&#45;&gt;ast.Call object at 0x7f8c31087af0</title>
<path fill="none" stroke="black" d="M436.64,-287.7C430.77,-279.47 423.63,-269.48 417.16,-260.42"/>
<polygon fill="black" stroke="black" points="419.88,-258.21 411.22,-252.1 414.18,-262.28 419.88,-258.21"/>
</g>
<!-- ast.Attribute object at 0x7f8c31086620 -->
<g id="node33" class="node">
<title>ast.Attribute object at 0x7f8c31086620</title>
<path fill="#66cdaa" stroke="black" d="M419.5,-180C419.5,-180 378.5,-180 378.5,-180 372.5,-180 366.5,-174 366.5,-168 366.5,-168 366.5,-156 366.5,-156 366.5,-150 372.5,-144 378.5,-144 378.5,-144 419.5,-144 419.5,-144 425.5,-144 431.5,-150 431.5,-156 431.5,-156 431.5,-168 431.5,-168 431.5,-174 425.5,-180 419.5,-180"/>
<text text-anchor="middle" x="399" y="-158.3" font-family="Times,serif" font-size="14.00">Attribute</text>
</g>
<!-- ast.Call object at 0x7f8c31087af0&#45;&gt;ast.Attribute object at 0x7f8c31086620 -->
<g id="edge42" class="edge">
<title>ast.Call object at 0x7f8c31087af0&#45;&gt;ast.Attribute object at 0x7f8c31086620</title>
<path fill="none" stroke="black" d="M399,-215.7C399,-207.98 399,-198.71 399,-190.11"/>
<polygon fill="black" stroke="black" points="402.5,-190.1 399,-180.1 395.5,-190.1 402.5,-190.1"/>
</g>
<!-- ast.Subscript object at 0x7f8c310841c0 -->
<g id="node35" class="node">
<title>ast.Subscript object at 0x7f8c310841c0</title>
<path fill="#66cdaa" stroke="black" d="M288,-180C288,-180 244,-180 244,-180 238,-180 232,-174 232,-168 232,-168 232,-156 232,-156 232,-150 238,-144 244,-144 244,-144 288,-144 288,-144 294,-144 300,-150 300,-156 300,-156 300,-168 300,-168 300,-174 294,-180 288,-180"/>
<text text-anchor="middle" x="266" y="-158.3" font-family="Times,serif" font-size="14.00">Subscript</text>
</g>
<!-- ast.Call object at 0x7f8c31087af0&#45;&gt;ast.Subscript object at 0x7f8c310841c0 -->
<g id="edge46" class="edge">
<title>ast.Call object at 0x7f8c31087af0&#45;&gt;ast.Subscript object at 0x7f8c310841c0</title>
<path fill="none" stroke="black" d="M371.76,-218.67C353.23,-208.91 328.35,-195.82 307.38,-184.78"/>
<polygon fill="black" stroke="black" points="308.84,-181.59 298.36,-180.03 305.58,-187.79 308.84,-181.59"/>
</g>
<!-- ast.Attribute object at 0x7f8c31086620&#45;&gt;ast.Load object at 0x7f8c348f2020 -->
<g id="edge45" class="edge">
<title>ast.Attribute object at 0x7f8c31086620&#45;&gt;ast.Load object at 0x7f8c348f2020</title>
<path fill="none" stroke="black" d="M406.17,-143.78C414.52,-124.97 429.53,-94.5 448,-72 456.89,-61.17 468.21,-50.87 478.79,-42.27"/>
<polygon fill="black" stroke="black" points="481,-44.99 486.69,-36.05 476.67,-39.49 481,-44.99"/>
</g>
<!-- ast.Name object at 0x7f8c31086020 -->
<g id="node34" class="node">
<title>ast.Name object at 0x7f8c31086020</title>
<path fill="#66cdaa" stroke="black" d="M389,-108C389,-108 359,-108 359,-108 353,-108 347,-102 347,-96 347,-96 347,-84 347,-84 347,-78 353,-72 359,-72 359,-72 389,-72 389,-72 395,-72 401,-78 401,-84 401,-84 401,-96 401,-96 401,-102 395,-108 389,-108"/>
<text text-anchor="middle" x="374" y="-86.3" font-family="Times,serif" font-size="14.00">Name</text>
</g>
<!-- ast.Attribute object at 0x7f8c31086620&#45;&gt;ast.Name object at 0x7f8c31086020 -->
<g id="edge43" class="edge">
<title>ast.Attribute object at 0x7f8c31086620&#45;&gt;ast.Name object at 0x7f8c31086020</title>
<path fill="none" stroke="black" d="M392.82,-143.7C390,-135.81 386.61,-126.3 383.48,-117.55"/>
<polygon fill="black" stroke="black" points="386.77,-116.34 380.11,-108.1 380.18,-118.7 386.77,-116.34"/>
</g>
<!-- ast.Name object at 0x7f8c31086020&#45;&gt;ast.Load object at 0x7f8c348f2020 -->
<g id="edge44" class="edge">
<title>ast.Name object at 0x7f8c31086020&#45;&gt;ast.Load object at 0x7f8c348f2020</title>
<path fill="none" stroke="black" d="M401.07,-75.17C422.18,-64.38 451.69,-49.3 474.83,-37.48"/>
<polygon fill="black" stroke="black" points="476.68,-40.47 483.99,-32.8 473.49,-34.23 476.68,-40.47"/>
</g>
<!-- ast.Subscript object at 0x7f8c310841c0&#45;&gt;ast.Load object at 0x7f8c348f2020 -->
<g id="edge51" class="edge">
<title>ast.Subscript object at 0x7f8c310841c0&#45;&gt;ast.Load object at 0x7f8c348f2020</title>
<path fill="none" stroke="black" d="M231.86,-144.97C217.4,-136.24 202.05,-123.93 194,-108 186.78,-93.72 183.66,-84.21 194,-72 229.51,-30.06 398.06,-21.28 473.89,-19.46"/>
<polygon fill="black" stroke="black" points="474.03,-22.96 483.95,-19.25 473.88,-15.96 474.03,-22.96"/>
</g>
<!-- ast.Name object at 0x7f8c31084e80 -->
<g id="node36" class="node">
<title>ast.Name object at 0x7f8c31084e80</title>
<path fill="#66cdaa" stroke="black" d="M245,-108C245,-108 215,-108 215,-108 209,-108 203,-102 203,-96 203,-96 203,-84 203,-84 203,-78 209,-72 215,-72 215,-72 245,-72 245,-72 251,-72 257,-78 257,-84 257,-84 257,-96 257,-96 257,-102 251,-108 245,-108"/>
<text text-anchor="middle" x="230" y="-86.3" font-family="Times,serif" font-size="14.00">Name</text>
</g>
<!-- ast.Subscript object at 0x7f8c310841c0&#45;&gt;ast.Name object at 0x7f8c31084e80 -->
<g id="edge47" class="edge">
<title>ast.Subscript object at 0x7f8c310841c0&#45;&gt;ast.Name object at 0x7f8c31084e80</title>
<path fill="none" stroke="black" d="M257.1,-143.7C253,-135.73 248.05,-126.1 243.51,-117.26"/>
<polygon fill="black" stroke="black" points="246.48,-115.4 238.8,-108.1 240.26,-118.6 246.48,-115.4"/>
</g>
<!-- ast.Name object at 0x7f8c31084b80 -->
<g id="node37" class="node">
<title>ast.Name object at 0x7f8c31084b80</title>
<path fill="#66cdaa" stroke="black" d="M317,-108C317,-108 287,-108 287,-108 281,-108 275,-102 275,-96 275,-96 275,-84 275,-84 275,-78 281,-72 287,-72 287,-72 317,-72 317,-72 323,-72 329,-78 329,-84 329,-84 329,-96 329,-96 329,-102 323,-108 317,-108"/>
<text text-anchor="middle" x="302" y="-86.3" font-family="Times,serif" font-size="14.00">Name</text>
</g>
<!-- ast.Subscript object at 0x7f8c310841c0&#45;&gt;ast.Name object at 0x7f8c31084b80 -->
<g id="edge49" class="edge">
<title>ast.Subscript object at 0x7f8c310841c0&#45;&gt;ast.Name object at 0x7f8c31084b80</title>
<path fill="none" stroke="black" d="M274.9,-143.7C279,-135.73 283.95,-126.1 288.49,-117.26"/>
<polygon fill="black" stroke="black" points="291.74,-118.6 293.2,-108.1 285.52,-115.4 291.74,-118.6"/>
</g>
<!-- ast.Name object at 0x7f8c31084e80&#45;&gt;ast.Load object at 0x7f8c348f2020 -->
<g id="edge48" class="edge">
<title>ast.Name object at 0x7f8c31084e80&#45;&gt;ast.Load object at 0x7f8c348f2020</title>
<path fill="none" stroke="black" d="M257.25,-75.34C260.17,-74.12 263.12,-72.98 266,-72 337.8,-47.64 425.34,-31.89 473.95,-24.31"/>
<polygon fill="black" stroke="black" points="474.64,-27.75 483.99,-22.78 473.58,-20.83 474.64,-27.75"/>
</g>
<!-- ast.Name object at 0x7f8c31084b80&#45;&gt;ast.Load object at 0x7f8c348f2020 -->
<g id="edge50" class="edge">
<title>ast.Name object at 0x7f8c31084b80&#45;&gt;ast.Load object at 0x7f8c348f2020</title>
<path fill="none" stroke="black" d="M329.34,-75.59C332.24,-74.32 335.16,-73.1 338,-72 383.99,-54.2 438.64,-38.3 474.03,-28.66"/>
<polygon fill="black" stroke="black" points="475.18,-31.98 483.92,-26 473.35,-25.22 475.18,-31.98"/>
</g>
<!-- ast.Name object at 0x7f8c30c13280 -->
<g id="node39" class="node">
<title>ast.Name object at 0x7f8c30c13280</title>
<path fill="#66cdaa" stroke="black" d="M897,-252C897,-252 867,-252 867,-252 861,-252 855,-246 855,-240 855,-240 855,-228 855,-228 855,-222 861,-216 867,-216 867,-216 897,-216 897,-216 903,-216 909,-222 909,-228 909,-228 909,-240 909,-240 909,-246 903,-252 897,-252"/>
<text text-anchor="middle" x="882" y="-230.3" font-family="Times,serif" font-size="14.00">Name</text>
</g>
<!-- ast.Return object at 0x7f8c30c11360&#45;&gt;ast.Name object at 0x7f8c30c13280 -->
<g id="edge53" class="edge">
<title>ast.Return object at 0x7f8c30c11360&#45;&gt;ast.Name object at 0x7f8c30c13280</title>
<path fill="none" stroke="black" d="M568.04,-432.03C629.1,-393.71 777.64,-300.49 846.22,-257.46"/>
<polygon fill="black" stroke="black" points="848.34,-260.25 854.95,-251.97 844.62,-254.32 848.34,-260.25"/>
</g>
<!-- ast.Name object at 0x7f8c30c13280&#45;&gt;ast.Load object at 0x7f8c348f2020 -->
<g id="edge54" class="edge">
<title>ast.Name object at 0x7f8c30c13280&#45;&gt;ast.Load object at 0x7f8c348f2020</title>
<path fill="none" stroke="black" d="M891.79,-215.76C908.92,-183.04 939.16,-111.68 902,-72 854.47,-21.25 636.46,-17.66 548.23,-18.35"/>
<polygon fill="black" stroke="black" points="548.1,-14.85 538.13,-18.45 548.17,-21.85 548.1,-14.85"/>
</g>
</g>
</svg>
