<?xml version="1.0" encoding="UTF-8" standalone="no"?>
<!DOCTYPE svg PUBLIC "-//W3C//DTD SVG 1.1//EN"
 "http://www.w3.org/Graphics/SVG/1.1/DTD/svg11.dtd">
<!-- Generated by graphviz version 2.43.0 (0)
 -->
<!-- Title: %3 Pages: 1 -->
<svg width="466pt" height="620pt"
 viewBox="0.00 0.00 465.50 620.00" xmlns="http://www.w3.org/2000/svg" xmlns:xlink="http://www.w3.org/1999/xlink">
<g id="graph0" class="graph" transform="scale(1 1) rotate(0) translate(4 616)">
<title>%3</title>
<polygon fill="white" stroke="transparent" points="-4,4 -4,-616 461.5,-616 461.5,4 -4,4"/>
<!-- ast.Module object at 0x7f7332cf6cb0 -->
<g id="node1" class="node">
<title>ast.Module object at 0x7f7332cf6cb0</title>
<path fill="#66cdaa" stroke="black" d="M149,-612C149,-612 103,-612 103,-612 97,-612 91,-606 91,-600 91,-600 91,-588 91,-588 91,-582 97,-576 103,-576 103,-576 149,-576 149,-576 155,-576 161,-582 161,-588 161,-588 161,-600 161,-600 161,-606 155,-612 149,-612"/>
<text text-anchor="middle" x="126" y="-590.3" font-family="Times,serif" font-size="14.00">Module</text>
</g>
<!-- ast.FunctionDef object at 0x7f7332cf6200 -->
<g id="node2" class="node">
<title>ast.FunctionDef object at 0x7f7332cf6200</title>
<path fill="#66cdaa" stroke="black" d="M166,-540C166,-540 86,-540 86,-540 80,-540 74,-534 74,-528 74,-528 74,-516 74,-516 74,-510 80,-504 86,-504 86,-504 166,-504 166,-504 172,-504 178,-510 178,-516 178,-516 178,-528 178,-528 178,-534 172,-540 166,-540"/>
<text text-anchor="middle" x="126" y="-518.3" font-family="Times,serif" font-size="14.00">FunctionDef</text>
</g>
<!-- ast.Module object at 0x7f7332cf6cb0&#45;&gt;ast.FunctionDef object at 0x7f7332cf6200 -->
<g id="edge1" class="edge">
<title>ast.Module object at 0x7f7332cf6cb0&#45;&gt;ast.FunctionDef object at 0x7f7332cf6200</title>
<path fill="none" stroke="black" d="M126,-575.7C126,-567.98 126,-558.71 126,-550.11"/>
<polygon fill="black" stroke="black" points="129.5,-550.1 126,-540.1 122.5,-550.1 129.5,-550.1"/>
</g>
<!-- ast.arguments object at 0x7f7332cf6dd0 -->
<g id="node3" class="node">
<title>ast.arguments object at 0x7f7332cf6dd0</title>
<path fill="#66cdaa" stroke="black" d="M112,-468C112,-468 42,-468 42,-468 36,-468 30,-462 30,-456 30,-456 30,-444 30,-444 30,-438 36,-432 42,-432 42,-432 112,-432 112,-432 118,-432 124,-438 124,-444 124,-444 124,-456 124,-456 124,-462 118,-468 112,-468"/>
<text text-anchor="middle" x="77" y="-446.3" font-family="Times,serif" font-size="14.00">arguments</text>
</g>
<!-- ast.FunctionDef object at 0x7f7332cf6200&#45;&gt;ast.arguments object at 0x7f7332cf6dd0 -->
<g id="edge2" class="edge">
<title>ast.FunctionDef object at 0x7f7332cf6200&#45;&gt;ast.arguments object at 0x7f7332cf6dd0</title>
<path fill="none" stroke="black" d="M113.89,-503.7C108.13,-495.47 101.14,-485.48 94.79,-476.42"/>
<polygon fill="black" stroke="black" points="97.58,-474.29 88.97,-468.1 91.84,-478.3 97.58,-474.29"/>
</g>
<!-- ast.Return object at 0x7f7332cf69e0 -->
<g id="node5" class="node">
<title>ast.Return object at 0x7f7332cf69e0</title>
<path fill="#66cdaa" stroke="black" d="M196,-468C196,-468 154,-468 154,-468 148,-468 142,-462 142,-456 142,-456 142,-444 142,-444 142,-438 148,-432 154,-432 154,-432 196,-432 196,-432 202,-432 208,-438 208,-444 208,-444 208,-456 208,-456 208,-462 202,-468 196,-468"/>
<text text-anchor="middle" x="175" y="-446.3" font-family="Times,serif" font-size="14.00">Return</text>
</g>
<!-- ast.FunctionDef object at 0x7f7332cf6200&#45;&gt;ast.Return object at 0x7f7332cf69e0 -->
<g id="edge4" class="edge">
<title>ast.FunctionDef object at 0x7f7332cf6200&#45;&gt;ast.Return object at 0x7f7332cf69e0</title>
<path fill="none" stroke="black" d="M138.11,-503.7C143.87,-495.47 150.86,-485.48 157.21,-476.42"/>
<polygon fill="black" stroke="black" points="160.16,-478.3 163.03,-468.1 154.42,-474.29 160.16,-478.3"/>
</g>
<!-- ast.arg object at 0x7f7332cf67d0 -->
<g id="node4" class="node">
<title>ast.arg object at 0x7f7332cf67d0</title>
<path fill="#66cdaa" stroke="black" d="M92,-396C92,-396 62,-396 62,-396 56,-396 50,-390 50,-384 50,-384 50,-372 50,-372 50,-366 56,-360 62,-360 62,-360 92,-360 92,-360 98,-360 104,-366 104,-372 104,-372 104,-384 104,-384 104,-390 98,-396 92,-396"/>
<text text-anchor="middle" x="77" y="-374.3" font-family="Times,serif" font-size="14.00">arg</text>
</g>
<!-- ast.arguments object at 0x7f7332cf6dd0&#45;&gt;ast.arg object at 0x7f7332cf67d0 -->
<g id="edge3" class="edge">
<title>ast.arguments object at 0x7f7332cf6dd0&#45;&gt;ast.arg object at 0x7f7332cf67d0</title>
<path fill="none" stroke="black" d="M77,-431.7C77,-423.98 77,-414.71 77,-406.11"/>
<polygon fill="black" stroke="black" points="80.5,-406.1 77,-396.1 73.5,-406.1 80.5,-406.1"/>
</g>
<!-- ast.BoolOp object at 0x7f7332cf6650 -->
<g id="node6" class="node">
<title>ast.BoolOp object at 0x7f7332cf6650</title>
<path fill="#66cdaa" stroke="black" d="M197,-396C197,-396 153,-396 153,-396 147,-396 141,-390 141,-384 141,-384 141,-372 141,-372 141,-366 147,-360 153,-360 153,-360 197,-360 197,-360 203,-360 209,-366 209,-372 209,-372 209,-384 209,-384 209,-390 203,-396 197,-396"/>
<text text-anchor="middle" x="175" y="-374.3" font-family="Times,serif" font-size="14.00">BoolOp</text>
</g>
<!-- ast.Return object at 0x7f7332cf69e0&#45;&gt;ast.BoolOp object at 0x7f7332cf6650 -->
<g id="edge5" class="edge">
<title>ast.Return object at 0x7f7332cf69e0&#45;&gt;ast.BoolOp object at 0x7f7332cf6650</title>
<path fill="none" stroke="black" d="M175,-431.7C175,-423.98 175,-414.71 175,-406.11"/>
<polygon fill="black" stroke="black" points="178.5,-406.1 175,-396.1 171.5,-406.1 178.5,-406.1"/>
</g>
<!-- ast.And object at 0x7f733c4f5870 -->
<g id="node7" class="node">
<title>ast.And object at 0x7f733c4f5870</title>
<path fill="#66cdaa" stroke="black" d="M104,-324C104,-324 74,-324 74,-324 68,-324 62,-318 62,-312 62,-312 62,-300 62,-300 62,-294 68,-288 74,-288 74,-288 104,-288 104,-288 110,-288 116,-294 116,-300 116,-300 116,-312 116,-312 116,-318 110,-324 104,-324"/>
<text text-anchor="middle" x="89" y="-302.3" font-family="Times,serif" font-size="14.00">And</text>
</g>
<!-- ast.BoolOp object at 0x7f7332cf6650&#45;&gt;ast.And object at 0x7f733c4f5870 -->
<g id="edge6" class="edge">
<title>ast.BoolOp object at 0x7f7332cf6650&#45;&gt;ast.And object at 0x7f733c4f5870</title>
<path fill="none" stroke="black" d="M153.74,-359.7C142.91,-350.88 129.58,-340.03 117.84,-330.47"/>
<polygon fill="black" stroke="black" points="119.98,-327.7 110.01,-324.1 115.56,-333.13 119.98,-327.7"/>
</g>
<!-- ast.Compare object at 0x7f7332cf7040 -->
<g id="node8" class="node">
<title>ast.Compare object at 0x7f7332cf7040</title>
<path fill="#66cdaa" stroke="black" d="M203.5,-324C203.5,-324 146.5,-324 146.5,-324 140.5,-324 134.5,-318 134.5,-312 134.5,-312 134.5,-300 134.5,-300 134.5,-294 140.5,-288 146.5,-288 146.5,-288 203.5,-288 203.5,-288 209.5,-288 215.5,-294 215.5,-300 215.5,-300 215.5,-312 215.5,-312 215.5,-318 209.5,-324 203.5,-324"/>
<text text-anchor="middle" x="175" y="-302.3" font-family="Times,serif" font-size="14.00">Compare</text>
</g>
<!-- ast.BoolOp object at 0x7f7332cf6650&#45;&gt;ast.Compare object at 0x7f7332cf7040 -->
<g id="edge7" class="edge">
<title>ast.BoolOp object at 0x7f7332cf6650&#45;&gt;ast.Compare object at 0x7f7332cf7040</title>
<path fill="none" stroke="black" d="M175,-359.7C175,-351.98 175,-342.71 175,-334.11"/>
<polygon fill="black" stroke="black" points="178.5,-334.1 175,-324.1 171.5,-334.1 178.5,-334.1"/>
</g>
<!-- ast.Compare object at 0x7f733288f730 -->
<g id="node16" class="node">
<title>ast.Compare object at 0x7f733288f730</title>
<path fill="#66cdaa" stroke="black" d="M359.5,-252C359.5,-252 302.5,-252 302.5,-252 296.5,-252 290.5,-246 290.5,-240 290.5,-240 290.5,-228 290.5,-228 290.5,-222 296.5,-216 302.5,-216 302.5,-216 359.5,-216 359.5,-216 365.5,-216 371.5,-222 371.5,-228 371.5,-228 371.5,-240 371.5,-240 371.5,-246 365.5,-252 359.5,-252"/>
<text text-anchor="middle" x="331" y="-230.3" font-family="Times,serif" font-size="14.00">Compare</text>
</g>
<!-- ast.BoolOp object at 0x7f7332cf6650&#45;&gt;ast.Compare object at 0x7f733288f730 -->
<g id="edge16" class="edge">
<title>ast.BoolOp object at 0x7f7332cf6650&#45;&gt;ast.Compare object at 0x7f733288f730</title>
<path fill="none" stroke="black" d="M193.82,-359.87C221.46,-334.71 273.16,-287.65 304.59,-259.04"/>
<polygon fill="black" stroke="black" points="307.08,-261.51 312.12,-252.19 302.36,-256.33 307.08,-261.51"/>
</g>
<!-- ast.Call object at 0x7f7332cf6c80 -->
<g id="node9" class="node">
<title>ast.Call object at 0x7f7332cf6c80</title>
<path fill="#66cdaa" stroke="black" d="M89,-252C89,-252 59,-252 59,-252 53,-252 47,-246 47,-240 47,-240 47,-228 47,-228 47,-222 53,-216 59,-216 59,-216 89,-216 89,-216 95,-216 101,-222 101,-228 101,-228 101,-240 101,-240 101,-246 95,-252 89,-252"/>
<text text-anchor="middle" x="74" y="-230.3" font-family="Times,serif" font-size="14.00">Call</text>
</g>
<!-- ast.Compare object at 0x7f7332cf7040&#45;&gt;ast.Call object at 0x7f7332cf6c80 -->
<g id="edge8" class="edge">
<title>ast.Compare object at 0x7f7332cf7040&#45;&gt;ast.Call object at 0x7f7332cf6c80</title>
<path fill="none" stroke="black" d="M150.29,-287.88C137.33,-278.89 121.27,-267.76 107.23,-258.03"/>
<polygon fill="black" stroke="black" points="109.02,-255.01 98.8,-252.19 105.03,-260.76 109.02,-255.01"/>
</g>
<!-- ast.LtE object at 0x7f733c4f6170 -->
<g id="node14" class="node">
<title>ast.LtE object at 0x7f733c4f6170</title>
<path fill="#66cdaa" stroke="black" d="M161,-252C161,-252 131,-252 131,-252 125,-252 119,-246 119,-240 119,-240 119,-228 119,-228 119,-222 125,-216 131,-216 131,-216 161,-216 161,-216 167,-216 173,-222 173,-228 173,-228 173,-240 173,-240 173,-246 167,-252 161,-252"/>
<text text-anchor="middle" x="146" y="-230.3" font-family="Times,serif" font-size="14.00">LtE</text>
</g>
<!-- ast.Compare object at 0x7f7332cf7040&#45;&gt;ast.LtE object at 0x7f733c4f6170 -->
<g id="edge14" class="edge">
<title>ast.Compare object at 0x7f7332cf7040&#45;&gt;ast.LtE object at 0x7f733c4f6170</title>
<path fill="none" stroke="black" d="M167.83,-287.7C164.57,-279.81 160.63,-270.3 157,-261.55"/>
<polygon fill="black" stroke="black" points="160.15,-260 153.09,-252.1 153.68,-262.68 160.15,-260"/>
</g>
<!-- ast.Constant object at 0x7f733288d900 -->
<g id="node15" class="node">
<title>ast.Constant object at 0x7f733288d900</title>
<path fill="#66cdaa" stroke="black" d="M260.5,-252C260.5,-252 203.5,-252 203.5,-252 197.5,-252 191.5,-246 191.5,-240 191.5,-240 191.5,-228 191.5,-228 191.5,-222 197.5,-216 203.5,-216 203.5,-216 260.5,-216 260.5,-216 266.5,-216 272.5,-222 272.5,-228 272.5,-228 272.5,-240 272.5,-240 272.5,-246 266.5,-252 260.5,-252"/>
<text text-anchor="middle" x="232" y="-230.3" font-family="Times,serif" font-size="14.00">Constant</text>
</g>
<!-- ast.Compare object at 0x7f7332cf7040&#45;&gt;ast.Constant object at 0x7f733288d900 -->
<g id="edge15" class="edge">
<title>ast.Compare object at 0x7f7332cf7040&#45;&gt;ast.Constant object at 0x7f733288d900</title>
<path fill="none" stroke="black" d="M189.09,-287.7C195.92,-279.3 204.26,-269.07 211.76,-259.86"/>
<polygon fill="black" stroke="black" points="214.47,-262.07 218.07,-252.1 209.04,-257.65 214.47,-262.07"/>
</g>
<!-- ast.Attribute object at 0x7f7332cf7460 -->
<g id="node10" class="node">
<title>ast.Attribute object at 0x7f7332cf7460</title>
<path fill="#66cdaa" stroke="black" d="M70,-180C70,-180 12,-180 12,-180 6,-180 0,-174 0,-168 0,-168 0,-156 0,-156 0,-150 6,-144 12,-144 12,-144 70,-144 70,-144 76,-144 82,-150 82,-156 82,-156 82,-168 82,-168 82,-174 76,-180 70,-180"/>
<text text-anchor="middle" x="41" y="-158.3" font-family="Times,serif" font-size="14.00">Attribute</text>
</g>
<!-- ast.Call object at 0x7f7332cf6c80&#45;&gt;ast.Attribute object at 0x7f7332cf7460 -->
<g id="edge9" class="edge">
<title>ast.Call object at 0x7f7332cf6c80&#45;&gt;ast.Attribute object at 0x7f7332cf7460</title>
<path fill="none" stroke="black" d="M65.84,-215.7C62.09,-207.73 57.55,-198.1 53.38,-189.26"/>
<polygon fill="black" stroke="black" points="56.49,-187.66 49.06,-180.1 50.16,-190.64 56.49,-187.66"/>
</g>
<!-- ast.Constant object at 0x7f733288d660 -->
<g id="node13" class="node">
<title>ast.Constant object at 0x7f733288d660</title>
<path fill="#66cdaa" stroke="black" d="M169.5,-180C169.5,-180 112.5,-180 112.5,-180 106.5,-180 100.5,-174 100.5,-168 100.5,-168 100.5,-156 100.5,-156 100.5,-150 106.5,-144 112.5,-144 112.5,-144 169.5,-144 169.5,-144 175.5,-144 181.5,-150 181.5,-156 181.5,-156 181.5,-168 181.5,-168 181.5,-174 175.5,-180 169.5,-180"/>
<text text-anchor="middle" x="141" y="-158.3" font-family="Times,serif" font-size="14.00">Constant</text>
</g>
<!-- ast.Call object at 0x7f7332cf6c80&#45;&gt;ast.Constant object at 0x7f733288d660 -->
<g id="edge13" class="edge">
<title>ast.Call object at 0x7f7332cf6c80&#45;&gt;ast.Constant object at 0x7f733288d660</title>
<path fill="none" stroke="black" d="M90.56,-215.7C98.68,-207.22 108.59,-196.86 117.47,-187.58"/>
<polygon fill="black" stroke="black" points="120.24,-189.75 124.63,-180.1 115.19,-184.91 120.24,-189.75"/>
</g>
<!-- ast.Name object at 0x7f7332cf5150 -->
<g id="node11" class="node">
<title>ast.Name object at 0x7f7332cf5150</title>
<path fill="#66cdaa" stroke="black" d="M58.5,-108C58.5,-108 23.5,-108 23.5,-108 17.5,-108 11.5,-102 11.5,-96 11.5,-96 11.5,-84 11.5,-84 11.5,-78 17.5,-72 23.5,-72 23.5,-72 58.5,-72 58.5,-72 64.5,-72 70.5,-78 70.5,-84 70.5,-84 70.5,-96 70.5,-96 70.5,-102 64.5,-108 58.5,-108"/>
<text text-anchor="middle" x="41" y="-86.3" font-family="Times,serif" font-size="14.00">Name</text>
</g>
<!-- ast.Attribute object at 0x7f7332cf7460&#45;&gt;ast.Name object at 0x7f7332cf5150 -->
<g id="edge10" class="edge">
<title>ast.Attribute object at 0x7f7332cf7460&#45;&gt;ast.Name object at 0x7f7332cf5150</title>
<path fill="none" stroke="black" d="M41,-143.7C41,-135.98 41,-126.71 41,-118.11"/>
<polygon fill="black" stroke="black" points="44.5,-118.1 41,-108.1 37.5,-118.1 44.5,-118.1"/>
</g>
<!-- ast.Load object at 0x7f733c4f5720 -->
<g id="node12" class="node">
<title>ast.Load object at 0x7f733c4f5720</title>
<path fill="#66cdaa" stroke="black" d="M133,-36C133,-36 103,-36 103,-36 97,-36 91,-30 91,-24 91,-24 91,-12 91,-12 91,-6 97,0 103,0 103,0 133,0 133,0 139,0 145,-6 145,-12 145,-12 145,-24 145,-24 145,-30 139,-36 133,-36"/>
<text text-anchor="middle" x="118" y="-14.3" font-family="Times,serif" font-size="14.00">Load</text>
</g>
<!-- ast.Attribute object at 0x7f7332cf7460&#45;&gt;ast.Load object at 0x7f733c4f5720 -->
<g id="edge12" class="edge">
<title>ast.Attribute object at 0x7f7332cf7460&#45;&gt;ast.Load object at 0x7f733c4f5720</title>
<path fill="none" stroke="black" d="M54.62,-143.95C62.33,-133.84 71.83,-120.59 79,-108 90.48,-87.84 100.88,-63.65 108.05,-45.58"/>
<polygon fill="black" stroke="black" points="111.32,-46.83 111.68,-36.24 104.8,-44.29 111.32,-46.83"/>
</g>
<!-- ast.Name object at 0x7f7332cf5150&#45;&gt;ast.Load object at 0x7f733c4f5720 -->
<g id="edge11" class="edge">
<title>ast.Name object at 0x7f7332cf5150&#45;&gt;ast.Load object at 0x7f733c4f5720</title>
<path fill="none" stroke="black" d="M60.03,-71.7C69.54,-63.05 81.21,-52.45 91.57,-43.03"/>
<polygon fill="black" stroke="black" points="94.14,-45.42 99.19,-36.1 89.43,-40.24 94.14,-45.42"/>
</g>
<!-- ast.Subscript object at 0x7f733288dd50 -->
<g id="node17" class="node">
<title>ast.Subscript object at 0x7f733288dd50</title>
<path fill="#66cdaa" stroke="black" d="M274,-180C274,-180 212,-180 212,-180 206,-180 200,-174 200,-168 200,-168 200,-156 200,-156 200,-150 206,-144 212,-144 212,-144 274,-144 274,-144 280,-144 286,-150 286,-156 286,-156 286,-168 286,-168 286,-174 280,-180 274,-180"/>
<text text-anchor="middle" x="243" y="-158.3" font-family="Times,serif" font-size="14.00">Subscript</text>
</g>
<!-- ast.Compare object at 0x7f733288f730&#45;&gt;ast.Subscript object at 0x7f733288dd50 -->
<g id="edge17" class="edge">
<title>ast.Compare object at 0x7f733288f730&#45;&gt;ast.Subscript object at 0x7f733288dd50</title>
<path fill="none" stroke="black" d="M309.25,-215.7C298.16,-206.88 284.53,-196.03 272.51,-186.47"/>
<polygon fill="black" stroke="black" points="274.51,-183.59 264.5,-180.1 270.15,-189.07 274.51,-183.59"/>
</g>
<!-- ast.Eq object at 0x7f733c4f6050 -->
<g id="node20" class="node">
<title>ast.Eq object at 0x7f733c4f6050</title>
<path fill="#66cdaa" stroke="black" d="M346,-180C346,-180 316,-180 316,-180 310,-180 304,-174 304,-168 304,-168 304,-156 304,-156 304,-150 310,-144 316,-144 316,-144 346,-144 346,-144 352,-144 358,-150 358,-156 358,-156 358,-168 358,-168 358,-174 352,-180 346,-180"/>
<text text-anchor="middle" x="331" y="-158.3" font-family="Times,serif" font-size="14.00">Eq</text>
</g>
<!-- ast.Compare object at 0x7f733288f730&#45;&gt;ast.Eq object at 0x7f733c4f6050 -->
<g id="edge22" class="edge">
<title>ast.Compare object at 0x7f733288f730&#45;&gt;ast.Eq object at 0x7f733c4f6050</title>
<path fill="none" stroke="black" d="M331,-215.7C331,-207.98 331,-198.71 331,-190.11"/>
<polygon fill="black" stroke="black" points="334.5,-190.1 331,-180.1 327.5,-190.1 334.5,-190.1"/>
</g>
<!-- ast.Constant object at 0x7f733288e770 -->
<g id="node21" class="node">
<title>ast.Constant object at 0x7f733288e770</title>
<path fill="#66cdaa" stroke="black" d="M445.5,-180C445.5,-180 388.5,-180 388.5,-180 382.5,-180 376.5,-174 376.5,-168 376.5,-168 376.5,-156 376.5,-156 376.5,-150 382.5,-144 388.5,-144 388.5,-144 445.5,-144 445.5,-144 451.5,-144 457.5,-150 457.5,-156 457.5,-156 457.5,-168 457.5,-168 457.5,-174 451.5,-180 445.5,-180"/>
<text text-anchor="middle" x="417" y="-158.3" font-family="Times,serif" font-size="14.00">Constant</text>
</g>
<!-- ast.Compare object at 0x7f733288f730&#45;&gt;ast.Constant object at 0x7f733288e770 -->
<g id="edge23" class="edge">
<title>ast.Compare object at 0x7f733288f730&#45;&gt;ast.Constant object at 0x7f733288e770</title>
<path fill="none" stroke="black" d="M352.26,-215.7C363.09,-206.88 376.42,-196.03 388.16,-186.47"/>
<polygon fill="black" stroke="black" points="390.44,-189.13 395.99,-180.1 386.02,-183.7 390.44,-189.13"/>
</g>
<!-- ast.Subscript object at 0x7f733288dd50&#45;&gt;ast.Load object at 0x7f733c4f5720 -->
<g id="edge21" class="edge">
<title>ast.Subscript object at 0x7f733288dd50&#45;&gt;ast.Load object at 0x7f733c4f5720</title>
<path fill="none" stroke="black" d="M203.69,-143.77C187.24,-134.99 168.97,-122.98 156,-108 140.5,-90.1 130.55,-64.94 124.74,-45.94"/>
<polygon fill="black" stroke="black" points="128.04,-44.75 121.93,-36.1 121.31,-46.68 128.04,-44.75"/>
</g>
<!-- ast.Name object at 0x7f733288de10 -->
<g id="node18" class="node">
<title>ast.Name object at 0x7f733288de10</title>
<path fill="#66cdaa" stroke="black" d="M212.5,-108C212.5,-108 177.5,-108 177.5,-108 171.5,-108 165.5,-102 165.5,-96 165.5,-96 165.5,-84 165.5,-84 165.5,-78 171.5,-72 177.5,-72 177.5,-72 212.5,-72 212.5,-72 218.5,-72 224.5,-78 224.5,-84 224.5,-84 224.5,-96 224.5,-96 224.5,-102 218.5,-108 212.5,-108"/>
<text text-anchor="middle" x="195" y="-86.3" font-family="Times,serif" font-size="14.00">Name</text>
</g>
<!-- ast.Subscript object at 0x7f733288dd50&#45;&gt;ast.Name object at 0x7f733288de10 -->
<g id="edge18" class="edge">
<title>ast.Subscript object at 0x7f733288dd50&#45;&gt;ast.Name object at 0x7f733288de10</title>
<path fill="none" stroke="black" d="M231.13,-143.7C225.5,-135.47 218.65,-125.48 212.43,-116.42"/>
<polygon fill="black" stroke="black" points="215.27,-114.37 206.73,-108.1 209.5,-118.33 215.27,-114.37"/>
</g>
<!-- ast.Constant object at 0x7f733288eaa0 -->
<g id="node19" class="node">
<title>ast.Constant object at 0x7f733288eaa0</title>
<path fill="#66cdaa" stroke="black" d="M311.5,-108C311.5,-108 254.5,-108 254.5,-108 248.5,-108 242.5,-102 242.5,-96 242.5,-96 242.5,-84 242.5,-84 242.5,-78 248.5,-72 254.5,-72 254.5,-72 311.5,-72 311.5,-72 317.5,-72 323.5,-78 323.5,-84 323.5,-84 323.5,-96 323.5,-96 323.5,-102 317.5,-108 311.5,-108"/>
<text text-anchor="middle" x="283" y="-86.3" font-family="Times,serif" font-size="14.00">Constant</text>
</g>
<!-- ast.Subscript object at 0x7f733288dd50&#45;&gt;ast.Constant object at 0x7f733288eaa0 -->
<g id="edge20" class="edge">
<title>ast.Subscript object at 0x7f733288dd50&#45;&gt;ast.Constant object at 0x7f733288eaa0</title>
<path fill="none" stroke="black" d="M252.89,-143.7C257.49,-135.64 263.06,-125.89 268.15,-116.98"/>
<polygon fill="black" stroke="black" points="271.3,-118.52 273.23,-108.1 265.23,-115.05 271.3,-118.52"/>
</g>
<!-- ast.Name object at 0x7f733288de10&#45;&gt;ast.Load object at 0x7f733c4f5720 -->
<g id="edge19" class="edge">
<title>ast.Name object at 0x7f733288de10&#45;&gt;ast.Load object at 0x7f733c4f5720</title>
<path fill="none" stroke="black" d="M175.97,-71.7C166.46,-63.05 154.79,-52.45 144.43,-43.03"/>
<polygon fill="black" stroke="black" points="146.57,-40.24 136.81,-36.1 141.86,-45.42 146.57,-40.24"/>
</g>
</g>
</svg>
