<?xml version="1.0" encoding="UTF-8" standalone="no"?>
<!DOCTYPE svg PUBLIC "-//W3C//DTD SVG 1.1//EN"
 "http://www.w3.org/Graphics/SVG/1.1/DTD/svg11.dtd">
<!-- Generated by graphviz version 2.43.0 (0)
 -->
<!-- Title: %3 Pages: 1 -->
<svg width="1725pt" height="836pt"
 viewBox="0.00 0.00 1725.00 836.00" xmlns="http://www.w3.org/2000/svg" xmlns:xlink="http://www.w3.org/1999/xlink">
<g id="graph0" class="graph" transform="scale(1 1) rotate(0) translate(4 832)">
<title>%3</title>
<polygon fill="white" stroke="transparent" points="-4,4 -4,-832 1721,-832 1721,4 -4,4"/>
<!-- ast.Module object at 0x7f3d950e53f0 -->
<g id="node1" class="node">
<title>ast.Module object at 0x7f3d950e53f0</title>
<path fill="#66cdaa" stroke="black" d="M1112,-828C1112,-828 1077,-828 1077,-828 1071,-828 1065,-822 1065,-816 1065,-816 1065,-804 1065,-804 1065,-798 1071,-792 1077,-792 1077,-792 1112,-792 1112,-792 1118,-792 1124,-798 1124,-804 1124,-804 1124,-816 1124,-816 1124,-822 1118,-828 1112,-828"/>
<text text-anchor="middle" x="1094.5" y="-806.3" font-family="Times,serif" font-size="14.00">Module</text>
</g>
<!-- ast.FunctionDef object at 0x7f3d950e7880 -->
<g id="node2" class="node">
<title>ast.FunctionDef object at 0x7f3d950e7880</title>
<path fill="#66cdaa" stroke="black" d="M1125,-756C1125,-756 1064,-756 1064,-756 1058,-756 1052,-750 1052,-744 1052,-744 1052,-732 1052,-732 1052,-726 1058,-720 1064,-720 1064,-720 1125,-720 1125,-720 1131,-720 1137,-726 1137,-732 1137,-732 1137,-744 1137,-744 1137,-750 1131,-756 1125,-756"/>
<text text-anchor="middle" x="1094.5" y="-734.3" font-family="Times,serif" font-size="14.00">FunctionDef</text>
</g>
<!-- ast.Module object at 0x7f3d950e53f0&#45;&gt;ast.FunctionDef object at 0x7f3d950e7880 -->
<g id="edge1" class="edge">
<title>ast.Module object at 0x7f3d950e53f0&#45;&gt;ast.FunctionDef object at 0x7f3d950e7880</title>
<path fill="none" stroke="black" d="M1094.5,-791.7C1094.5,-783.98 1094.5,-774.71 1094.5,-766.11"/>
<polygon fill="black" stroke="black" points="1098,-766.1 1094.5,-756.1 1091,-766.1 1098,-766.1"/>
</g>
<!-- ast.arguments object at 0x7f3d950e5240 -->
<g id="node3" class="node">
<title>ast.arguments object at 0x7f3d950e5240</title>
<path fill="#66cdaa" stroke="black" d="M573.5,-684C573.5,-684 523.5,-684 523.5,-684 517.5,-684 511.5,-678 511.5,-672 511.5,-672 511.5,-660 511.5,-660 511.5,-654 517.5,-648 523.5,-648 523.5,-648 573.5,-648 573.5,-648 579.5,-648 585.5,-654 585.5,-660 585.5,-660 585.5,-672 585.5,-672 585.5,-678 579.5,-684 573.5,-684"/>
<text text-anchor="middle" x="548.5" y="-662.3" font-family="Times,serif" font-size="14.00">arguments</text>
</g>
<!-- ast.FunctionDef object at 0x7f3d950e7880&#45;&gt;ast.arguments object at 0x7f3d950e5240 -->
<g id="edge2" class="edge">
<title>ast.FunctionDef object at 0x7f3d950e7880&#45;&gt;ast.arguments object at 0x7f3d950e5240</title>
<path fill="none" stroke="black" d="M1051.66,-731.51C951.05,-718.61 700.34,-686.47 595.62,-673.04"/>
<polygon fill="black" stroke="black" points="596.02,-669.56 585.66,-671.76 595.13,-676.51 596.02,-669.56"/>
</g>
<!-- ast.Assign object at 0x7f3d950e78b0 -->
<g id="node5" class="node">
<title>ast.Assign object at 0x7f3d950e78b0</title>
<path fill="#66cdaa" stroke="black" d="M1070.5,-684C1070.5,-684 1040.5,-684 1040.5,-684 1034.5,-684 1028.5,-678 1028.5,-672 1028.5,-672 1028.5,-660 1028.5,-660 1028.5,-654 1034.5,-648 1040.5,-648 1040.5,-648 1070.5,-648 1070.5,-648 1076.5,-648 1082.5,-654 1082.5,-660 1082.5,-660 1082.5,-672 1082.5,-672 1082.5,-678 1076.5,-684 1070.5,-684"/>
<text text-anchor="middle" x="1055.5" y="-662.3" font-family="Times,serif" font-size="14.00">Assign</text>
</g>
<!-- ast.FunctionDef object at 0x7f3d950e7880&#45;&gt;ast.Assign object at 0x7f3d950e78b0 -->
<g id="edge4" class="edge">
<title>ast.FunctionDef object at 0x7f3d950e7880&#45;&gt;ast.Assign object at 0x7f3d950e78b0</title>
<path fill="none" stroke="black" d="M1084.86,-719.7C1080.37,-711.64 1074.94,-701.89 1069.98,-692.98"/>
<polygon fill="black" stroke="black" points="1072.95,-691.14 1065.03,-684.1 1066.84,-694.54 1072.95,-691.14"/>
</g>
<!-- ast.For object at 0x7f3d950e5840 -->
<g id="node9" class="node">
<title>ast.For object at 0x7f3d950e5840</title>
<path fill="#66cdaa" stroke="black" d="M940.5,-684C940.5,-684 910.5,-684 910.5,-684 904.5,-684 898.5,-678 898.5,-672 898.5,-672 898.5,-660 898.5,-660 898.5,-654 904.5,-648 910.5,-648 910.5,-648 940.5,-648 940.5,-648 946.5,-648 952.5,-654 952.5,-660 952.5,-660 952.5,-672 952.5,-672 952.5,-678 946.5,-684 940.5,-684"/>
<text text-anchor="middle" x="925.5" y="-662.3" font-family="Times,serif" font-size="14.00">For</text>
</g>
<!-- ast.FunctionDef object at 0x7f3d950e7880&#45;&gt;ast.For object at 0x7f3d950e5840 -->
<g id="edge8" class="edge">
<title>ast.FunctionDef object at 0x7f3d950e7880&#45;&gt;ast.For object at 0x7f3d950e5840</title>
<path fill="none" stroke="black" d="M1053.16,-719.88C1025.31,-708.34 988.91,-693.26 962.11,-682.16"/>
<polygon fill="black" stroke="black" points="963.28,-678.86 952.7,-678.27 960.6,-685.33 963.28,-678.86"/>
</g>
<!-- ast.Assign object at 0x7f3db7d1ee30 -->
<g id="node51" class="node">
<title>ast.Assign object at 0x7f3db7d1ee30</title>
<path fill="#66cdaa" stroke="black" d="M1148.5,-684C1148.5,-684 1118.5,-684 1118.5,-684 1112.5,-684 1106.5,-678 1106.5,-672 1106.5,-672 1106.5,-660 1106.5,-660 1106.5,-654 1112.5,-648 1118.5,-648 1118.5,-648 1148.5,-648 1148.5,-648 1154.5,-648 1160.5,-654 1160.5,-660 1160.5,-660 1160.5,-672 1160.5,-672 1160.5,-678 1154.5,-684 1148.5,-684"/>
<text text-anchor="middle" x="1133.5" y="-662.3" font-family="Times,serif" font-size="14.00">Assign</text>
</g>
<!-- ast.FunctionDef object at 0x7f3d950e7880&#45;&gt;ast.Assign object at 0x7f3db7d1ee30 -->
<g id="edge70" class="edge">
<title>ast.FunctionDef object at 0x7f3d950e7880&#45;&gt;ast.Assign object at 0x7f3db7d1ee30</title>
<path fill="none" stroke="black" d="M1104.14,-719.7C1108.63,-711.64 1114.06,-701.89 1119.02,-692.98"/>
<polygon fill="black" stroke="black" points="1122.16,-694.54 1123.97,-684.1 1116.05,-691.14 1122.16,-694.54"/>
</g>
<!-- ast.For object at 0x7f3db7d1e050 -->
<g id="node54" class="node">
<title>ast.For object at 0x7f3db7d1e050</title>
<path fill="#66cdaa" stroke="black" d="M1319.5,-612C1319.5,-612 1289.5,-612 1289.5,-612 1283.5,-612 1277.5,-606 1277.5,-600 1277.5,-600 1277.5,-588 1277.5,-588 1277.5,-582 1283.5,-576 1289.5,-576 1289.5,-576 1319.5,-576 1319.5,-576 1325.5,-576 1331.5,-582 1331.5,-588 1331.5,-588 1331.5,-600 1331.5,-600 1331.5,-606 1325.5,-612 1319.5,-612"/>
<text text-anchor="middle" x="1304.5" y="-590.3" font-family="Times,serif" font-size="14.00">For</text>
</g>
<!-- ast.FunctionDef object at 0x7f3d950e7880&#45;&gt;ast.For object at 0x7f3db7d1e050 -->
<g id="edge74" class="edge">
<title>ast.FunctionDef object at 0x7f3d950e7880&#45;&gt;ast.For object at 0x7f3db7d1e050</title>
<path fill="none" stroke="black" d="M1119.83,-719.87C1157.51,-694.39 1228.41,-646.45 1270.55,-617.96"/>
<polygon fill="black" stroke="black" points="1272.76,-620.69 1279.08,-612.19 1268.83,-614.89 1272.76,-620.69"/>
</g>
<!-- ast.Return object at 0x7f3db7a19150 -->
<g id="node73" class="node">
<title>ast.Return object at 0x7f3db7a19150</title>
<path fill="#66cdaa" stroke="black" d="M1403.5,-684C1403.5,-684 1373.5,-684 1373.5,-684 1367.5,-684 1361.5,-678 1361.5,-672 1361.5,-672 1361.5,-660 1361.5,-660 1361.5,-654 1367.5,-648 1373.5,-648 1373.5,-648 1403.5,-648 1403.5,-648 1409.5,-648 1415.5,-654 1415.5,-660 1415.5,-660 1415.5,-672 1415.5,-672 1415.5,-678 1409.5,-684 1403.5,-684"/>
<text text-anchor="middle" x="1388.5" y="-662.3" font-family="Times,serif" font-size="14.00">Return</text>
</g>
<!-- ast.FunctionDef object at 0x7f3d950e7880&#45;&gt;ast.Return object at 0x7f3db7a19150 -->
<g id="edge103" class="edge">
<title>ast.FunctionDef object at 0x7f3d950e7880&#45;&gt;ast.Return object at 0x7f3db7a19150</title>
<path fill="none" stroke="black" d="M1137.25,-726.82C1194.85,-713.11 1296.45,-688.92 1351.14,-675.89"/>
<polygon fill="black" stroke="black" points="1352.19,-679.24 1361.11,-673.52 1350.57,-672.43 1352.19,-679.24"/>
</g>
<!-- ast.arg object at 0x7f3d950e6890 -->
<g id="node4" class="node">
<title>ast.arg object at 0x7f3d950e6890</title>
<path fill="#66cdaa" stroke="black" d="M284.5,-612C284.5,-612 254.5,-612 254.5,-612 248.5,-612 242.5,-606 242.5,-600 242.5,-600 242.5,-588 242.5,-588 242.5,-582 248.5,-576 254.5,-576 254.5,-576 284.5,-576 284.5,-576 290.5,-576 296.5,-582 296.5,-588 296.5,-588 296.5,-600 296.5,-600 296.5,-606 290.5,-612 284.5,-612"/>
<text text-anchor="middle" x="269.5" y="-590.3" font-family="Times,serif" font-size="14.00">arg</text>
</g>
<!-- ast.arguments object at 0x7f3d950e5240&#45;&gt;ast.arg object at 0x7f3d950e6890 -->
<g id="edge3" class="edge">
<title>ast.arguments object at 0x7f3d950e5240&#45;&gt;ast.arg object at 0x7f3d950e6890</title>
<path fill="none" stroke="black" d="M511.28,-658.79C463.98,-650.42 380.13,-634 310.5,-612 309.08,-611.55 307.63,-611.07 306.18,-610.57"/>
<polygon fill="black" stroke="black" points="307.19,-607.21 296.6,-607.01 304.76,-613.77 307.19,-607.21"/>
</g>
<!-- ast.Name object at 0x7f3d950e6a40 -->
<g id="node6" class="node">
<title>ast.Name object at 0x7f3d950e6a40</title>
<path fill="#66cdaa" stroke="black" d="M1078.5,-540C1078.5,-540 1048.5,-540 1048.5,-540 1042.5,-540 1036.5,-534 1036.5,-528 1036.5,-528 1036.5,-516 1036.5,-516 1036.5,-510 1042.5,-504 1048.5,-504 1048.5,-504 1078.5,-504 1078.5,-504 1084.5,-504 1090.5,-510 1090.5,-516 1090.5,-516 1090.5,-528 1090.5,-528 1090.5,-534 1084.5,-540 1078.5,-540"/>
<text text-anchor="middle" x="1063.5" y="-518.3" font-family="Times,serif" font-size="14.00">Name</text>
</g>
<!-- ast.Assign object at 0x7f3d950e78b0&#45;&gt;ast.Name object at 0x7f3d950e6a40 -->
<g id="edge5" class="edge">
<title>ast.Assign object at 0x7f3d950e78b0&#45;&gt;ast.Name object at 0x7f3d950e6a40</title>
<path fill="none" stroke="black" d="M1036.9,-647.76C1027.97,-638.2 1018.21,-625.53 1013.5,-612 1008.24,-596.89 1007.59,-590.87 1013.5,-576 1017.79,-565.2 1025.44,-555.32 1033.49,-547.1"/>
<polygon fill="black" stroke="black" points="1036.08,-549.47 1040.9,-540.04 1031.25,-544.4 1036.08,-549.47"/>
</g>
<!-- ast.Constant object at 0x7f3d950e5030 -->
<g id="node8" class="node">
<title>ast.Constant object at 0x7f3d950e5030</title>
<path fill="#66cdaa" stroke="black" d="M1076,-612C1076,-612 1035,-612 1035,-612 1029,-612 1023,-606 1023,-600 1023,-600 1023,-588 1023,-588 1023,-582 1029,-576 1035,-576 1035,-576 1076,-576 1076,-576 1082,-576 1088,-582 1088,-588 1088,-588 1088,-600 1088,-600 1088,-606 1082,-612 1076,-612"/>
<text text-anchor="middle" x="1055.5" y="-590.3" font-family="Times,serif" font-size="14.00">Constant</text>
</g>
<!-- ast.Assign object at 0x7f3d950e78b0&#45;&gt;ast.Constant object at 0x7f3d950e5030 -->
<g id="edge7" class="edge">
<title>ast.Assign object at 0x7f3d950e78b0&#45;&gt;ast.Constant object at 0x7f3d950e5030</title>
<path fill="none" stroke="black" d="M1055.5,-647.7C1055.5,-639.98 1055.5,-630.71 1055.5,-622.11"/>
<polygon fill="black" stroke="black" points="1059,-622.1 1055.5,-612.1 1052,-622.1 1059,-622.1"/>
</g>
<!-- ast.Store object at 0x7f3def2f2080 -->
<g id="node7" class="node">
<title>ast.Store object at 0x7f3def2f2080</title>
<path fill="#66cdaa" stroke="black" d="M1095.5,-324C1095.5,-324 1065.5,-324 1065.5,-324 1059.5,-324 1053.5,-318 1053.5,-312 1053.5,-312 1053.5,-300 1053.5,-300 1053.5,-294 1059.5,-288 1065.5,-288 1065.5,-288 1095.5,-288 1095.5,-288 1101.5,-288 1107.5,-294 1107.5,-300 1107.5,-300 1107.5,-312 1107.5,-312 1107.5,-318 1101.5,-324 1095.5,-324"/>
<text text-anchor="middle" x="1080.5" y="-302.3" font-family="Times,serif" font-size="14.00">Store</text>
</g>
<!-- ast.Name object at 0x7f3d950e6a40&#45;&gt;ast.Store object at 0x7f3def2f2080 -->
<g id="edge6" class="edge">
<title>ast.Name object at 0x7f3d950e6a40&#45;&gt;ast.Store object at 0x7f3def2f2080</title>
<path fill="none" stroke="black" d="M1064.86,-503.85C1067.8,-466.83 1074.77,-379.18 1078.32,-334.39"/>
<polygon fill="black" stroke="black" points="1081.83,-334.48 1079.13,-324.23 1074.85,-333.92 1081.83,-334.48"/>
</g>
<!-- ast.Name object at 0x7f3d950e6ce0 -->
<g id="node10" class="node">
<title>ast.Name object at 0x7f3d950e6ce0</title>
<path fill="#66cdaa" stroke="black" d="M1005.5,-540C1005.5,-540 975.5,-540 975.5,-540 969.5,-540 963.5,-534 963.5,-528 963.5,-528 963.5,-516 963.5,-516 963.5,-510 969.5,-504 975.5,-504 975.5,-504 1005.5,-504 1005.5,-504 1011.5,-504 1017.5,-510 1017.5,-516 1017.5,-516 1017.5,-528 1017.5,-528 1017.5,-534 1011.5,-540 1005.5,-540"/>
<text text-anchor="middle" x="990.5" y="-518.3" font-family="Times,serif" font-size="14.00">Name</text>
</g>
<!-- ast.For object at 0x7f3d950e5840&#45;&gt;ast.Name object at 0x7f3d950e6ce0 -->
<g id="edge9" class="edge">
<title>ast.For object at 0x7f3d950e5840&#45;&gt;ast.Name object at 0x7f3d950e6ce0</title>
<path fill="none" stroke="black" d="M933.34,-647.87C944.52,-623.46 965.13,-578.43 978.31,-549.64"/>
<polygon fill="black" stroke="black" points="981.65,-550.74 982.63,-540.19 975.29,-547.83 981.65,-550.74"/>
</g>
<!-- ast.Call object at 0x7f3d950e6290 -->
<g id="node11" class="node">
<title>ast.Call object at 0x7f3d950e6290</title>
<path fill="#66cdaa" stroke="black" d="M269.5,-324C269.5,-324 239.5,-324 239.5,-324 233.5,-324 227.5,-318 227.5,-312 227.5,-312 227.5,-300 227.5,-300 227.5,-294 233.5,-288 239.5,-288 239.5,-288 269.5,-288 269.5,-288 275.5,-288 281.5,-294 281.5,-300 281.5,-300 281.5,-312 281.5,-312 281.5,-318 275.5,-324 269.5,-324"/>
<text text-anchor="middle" x="254.5" y="-302.3" font-family="Times,serif" font-size="14.00">Call</text>
</g>
<!-- ast.For object at 0x7f3d950e5840&#45;&gt;ast.Call object at 0x7f3d950e6290 -->
<g id="edge11" class="edge">
<title>ast.For object at 0x7f3d950e5840&#45;&gt;ast.Call object at 0x7f3d950e6290</title>
<path fill="none" stroke="black" d="M898.11,-664.49C780.54,-661.57 324.5,-642.54 324.5,-523 324.5,-523 324.5,-523 324.5,-449 324.5,-404.36 296.32,-359.2 275.72,-332.16"/>
<polygon fill="black" stroke="black" points="278.27,-329.74 269.35,-324.03 272.77,-334.06 278.27,-329.74"/>
</g>
<!-- ast.For object at 0x7f3dae4049a0 -->
<g id="node20" class="node">
<title>ast.For object at 0x7f3dae4049a0</title>
<path fill="#66cdaa" stroke="black" d="M910.5,-612C910.5,-612 880.5,-612 880.5,-612 874.5,-612 868.5,-606 868.5,-600 868.5,-600 868.5,-588 868.5,-588 868.5,-582 874.5,-576 880.5,-576 880.5,-576 910.5,-576 910.5,-576 916.5,-576 922.5,-582 922.5,-588 922.5,-588 922.5,-600 922.5,-600 922.5,-606 916.5,-612 910.5,-612"/>
<text text-anchor="middle" x="895.5" y="-590.3" font-family="Times,serif" font-size="14.00">For</text>
</g>
<!-- ast.For object at 0x7f3d950e5840&#45;&gt;ast.For object at 0x7f3dae4049a0 -->
<g id="edge22" class="edge">
<title>ast.For object at 0x7f3d950e5840&#45;&gt;ast.For object at 0x7f3dae4049a0</title>
<path fill="none" stroke="black" d="M918.08,-647.7C914.71,-639.81 910.63,-630.3 906.88,-621.55"/>
<polygon fill="black" stroke="black" points="909.99,-619.92 902.83,-612.1 903.55,-622.67 909.99,-619.92"/>
</g>
<!-- ast.Name object at 0x7f3d950e6ce0&#45;&gt;ast.Store object at 0x7f3def2f2080 -->
<g id="edge10" class="edge">
<title>ast.Name object at 0x7f3d950e6ce0&#45;&gt;ast.Store object at 0x7f3def2f2080</title>
<path fill="none" stroke="black" d="M997.71,-503.85C1013.38,-466.6 1050.61,-378.07 1069.34,-333.54"/>
<polygon fill="black" stroke="black" points="1072.6,-334.81 1073.25,-324.23 1066.15,-332.09 1072.6,-334.81"/>
</g>
<!-- ast.Name object at 0x7f3d950e5c30 -->
<g id="node12" class="node">
<title>ast.Name object at 0x7f3d950e5c30</title>
<path fill="#66cdaa" stroke="black" d="M269.5,-180C269.5,-180 239.5,-180 239.5,-180 233.5,-180 227.5,-174 227.5,-168 227.5,-168 227.5,-156 227.5,-156 227.5,-150 233.5,-144 239.5,-144 239.5,-144 269.5,-144 269.5,-144 275.5,-144 281.5,-150 281.5,-156 281.5,-156 281.5,-168 281.5,-168 281.5,-174 275.5,-180 269.5,-180"/>
<text text-anchor="middle" x="254.5" y="-158.3" font-family="Times,serif" font-size="14.00">Name</text>
</g>
<!-- ast.Call object at 0x7f3d950e6290&#45;&gt;ast.Name object at 0x7f3d950e5c30 -->
<g id="edge12" class="edge">
<title>ast.Call object at 0x7f3d950e6290&#45;&gt;ast.Name object at 0x7f3d950e5c30</title>
<path fill="none" stroke="black" d="M254.5,-287.87C254.5,-263.67 254.5,-219.21 254.5,-190.39"/>
<polygon fill="black" stroke="black" points="258,-190.19 254.5,-180.19 251,-190.19 258,-190.19"/>
</g>
<!-- ast.BinOp object at 0x7f3dae404df0 -->
<g id="node14" class="node">
<title>ast.BinOp object at 0x7f3dae404df0</title>
<path fill="#66cdaa" stroke="black" d="M161.5,-252C161.5,-252 131.5,-252 131.5,-252 125.5,-252 119.5,-246 119.5,-240 119.5,-240 119.5,-228 119.5,-228 119.5,-222 125.5,-216 131.5,-216 131.5,-216 161.5,-216 161.5,-216 167.5,-216 173.5,-222 173.5,-228 173.5,-228 173.5,-240 173.5,-240 173.5,-246 167.5,-252 161.5,-252"/>
<text text-anchor="middle" x="146.5" y="-230.3" font-family="Times,serif" font-size="14.00">BinOp</text>
</g>
<!-- ast.Call object at 0x7f3d950e6290&#45;&gt;ast.BinOp object at 0x7f3dae404df0 -->
<g id="edge14" class="edge">
<title>ast.Call object at 0x7f3d950e6290&#45;&gt;ast.BinOp object at 0x7f3dae404df0</title>
<path fill="none" stroke="black" d="M228.08,-287.88C214.09,-278.81 196.72,-267.55 181.61,-257.76"/>
<polygon fill="black" stroke="black" points="183.32,-254.69 173.02,-252.19 179.51,-260.57 183.32,-254.69"/>
</g>
<!-- ast.Load object at 0x7f3def2f2020 -->
<g id="node13" class="node">
<title>ast.Load object at 0x7f3def2f2020</title>
<path fill="#66cdaa" stroke="black" d="M776.5,-36C776.5,-36 746.5,-36 746.5,-36 740.5,-36 734.5,-30 734.5,-24 734.5,-24 734.5,-12 734.5,-12 734.5,-6 740.5,0 746.5,0 746.5,0 776.5,0 776.5,0 782.5,0 788.5,-6 788.5,-12 788.5,-12 788.5,-24 788.5,-24 788.5,-30 782.5,-36 776.5,-36"/>
<text text-anchor="middle" x="761.5" y="-14.3" font-family="Times,serif" font-size="14.00">Load</text>
</g>
<!-- ast.Name object at 0x7f3d950e5c30&#45;&gt;ast.Load object at 0x7f3def2f2020 -->
<g id="edge13" class="edge">
<title>ast.Name object at 0x7f3d950e5c30&#45;&gt;ast.Load object at 0x7f3def2f2020</title>
<path fill="none" stroke="black" d="M243.77,-143.98C232.79,-124.19 219.67,-91.72 237.5,-72 270.09,-35.95 609.98,-23.22 724.26,-19.94"/>
<polygon fill="black" stroke="black" points="724.38,-23.44 734.28,-19.66 724.19,-16.44 724.38,-23.44"/>
</g>
<!-- ast.Call object at 0x7f3dae404d30 -->
<g id="node15" class="node">
<title>ast.Call object at 0x7f3dae404d30</title>
<path fill="#66cdaa" stroke="black" d="M125.5,-180C125.5,-180 95.5,-180 95.5,-180 89.5,-180 83.5,-174 83.5,-168 83.5,-168 83.5,-156 83.5,-156 83.5,-150 89.5,-144 95.5,-144 95.5,-144 125.5,-144 125.5,-144 131.5,-144 137.5,-150 137.5,-156 137.5,-156 137.5,-168 137.5,-168 137.5,-174 131.5,-180 125.5,-180"/>
<text text-anchor="middle" x="110.5" y="-158.3" font-family="Times,serif" font-size="14.00">Call</text>
</g>
<!-- ast.BinOp object at 0x7f3dae404df0&#45;&gt;ast.Call object at 0x7f3dae404d30 -->
<g id="edge15" class="edge">
<title>ast.BinOp object at 0x7f3dae404df0&#45;&gt;ast.Call object at 0x7f3dae404d30</title>
<path fill="none" stroke="black" d="M137.6,-215.7C133.5,-207.73 128.55,-198.1 124.01,-189.26"/>
<polygon fill="black" stroke="black" points="126.98,-187.4 119.3,-180.1 120.76,-190.6 126.98,-187.4"/>
</g>
<!-- ast.Sub object at 0x7f3def2f22c0 -->
<g id="node18" class="node">
<title>ast.Sub object at 0x7f3def2f22c0</title>
<path fill="#66cdaa" stroke="black" d="M197.5,-180C197.5,-180 167.5,-180 167.5,-180 161.5,-180 155.5,-174 155.5,-168 155.5,-168 155.5,-156 155.5,-156 155.5,-150 161.5,-144 167.5,-144 167.5,-144 197.5,-144 197.5,-144 203.5,-144 209.5,-150 209.5,-156 209.5,-156 209.5,-168 209.5,-168 209.5,-174 203.5,-180 197.5,-180"/>
<text text-anchor="middle" x="182.5" y="-158.3" font-family="Times,serif" font-size="14.00">Sub</text>
</g>
<!-- ast.BinOp object at 0x7f3dae404df0&#45;&gt;ast.Sub object at 0x7f3def2f22c0 -->
<g id="edge20" class="edge">
<title>ast.BinOp object at 0x7f3dae404df0&#45;&gt;ast.Sub object at 0x7f3def2f22c0</title>
<path fill="none" stroke="black" d="M155.4,-215.7C159.5,-207.73 164.45,-198.1 168.99,-189.26"/>
<polygon fill="black" stroke="black" points="172.24,-190.6 173.7,-180.1 166.02,-187.4 172.24,-190.6"/>
</g>
<!-- ast.Constant object at 0x7f3dae407b20 -->
<g id="node19" class="node">
<title>ast.Constant object at 0x7f3dae407b20</title>
<path fill="#66cdaa" stroke="black" d="M53,-180C53,-180 12,-180 12,-180 6,-180 0,-174 0,-168 0,-168 0,-156 0,-156 0,-150 6,-144 12,-144 12,-144 53,-144 53,-144 59,-144 65,-150 65,-156 65,-156 65,-168 65,-168 65,-174 59,-180 53,-180"/>
<text text-anchor="middle" x="32.5" y="-158.3" font-family="Times,serif" font-size="14.00">Constant</text>
</g>
<!-- ast.BinOp object at 0x7f3dae404df0&#45;&gt;ast.Constant object at 0x7f3dae407b20 -->
<g id="edge21" class="edge">
<title>ast.BinOp object at 0x7f3dae404df0&#45;&gt;ast.Constant object at 0x7f3dae407b20</title>
<path fill="none" stroke="black" d="M119.48,-216.41C104.48,-207.2 85.61,-195.61 69.28,-185.59"/>
<polygon fill="black" stroke="black" points="70.87,-182.45 60.51,-180.2 67.2,-188.42 70.87,-182.45"/>
</g>
<!-- ast.Name object at 0x7f3dae406dd0 -->
<g id="node16" class="node">
<title>ast.Name object at 0x7f3dae406dd0</title>
<path fill="#66cdaa" stroke="black" d="M106.5,-108C106.5,-108 76.5,-108 76.5,-108 70.5,-108 64.5,-102 64.5,-96 64.5,-96 64.5,-84 64.5,-84 64.5,-78 70.5,-72 76.5,-72 76.5,-72 106.5,-72 106.5,-72 112.5,-72 118.5,-78 118.5,-84 118.5,-84 118.5,-96 118.5,-96 118.5,-102 112.5,-108 106.5,-108"/>
<text text-anchor="middle" x="91.5" y="-86.3" font-family="Times,serif" font-size="14.00">Name</text>
</g>
<!-- ast.Call object at 0x7f3dae404d30&#45;&gt;ast.Name object at 0x7f3dae406dd0 -->
<g id="edge16" class="edge">
<title>ast.Call object at 0x7f3dae404d30&#45;&gt;ast.Name object at 0x7f3dae406dd0</title>
<path fill="none" stroke="black" d="M105.8,-143.7C103.69,-135.9 101.14,-126.51 98.78,-117.83"/>
<polygon fill="black" stroke="black" points="102.14,-116.84 96.14,-108.1 95.38,-118.67 102.14,-116.84"/>
</g>
<!-- ast.Name object at 0x7f3dae404220 -->
<g id="node17" class="node">
<title>ast.Name object at 0x7f3dae404220</title>
<path fill="#66cdaa" stroke="black" d="M178.5,-108C178.5,-108 148.5,-108 148.5,-108 142.5,-108 136.5,-102 136.5,-96 136.5,-96 136.5,-84 136.5,-84 136.5,-78 142.5,-72 148.5,-72 148.5,-72 178.5,-72 178.5,-72 184.5,-72 190.5,-78 190.5,-84 190.5,-84 190.5,-96 190.5,-96 190.5,-102 184.5,-108 178.5,-108"/>
<text text-anchor="middle" x="163.5" y="-86.3" font-family="Times,serif" font-size="14.00">Name</text>
</g>
<!-- ast.Call object at 0x7f3dae404d30&#45;&gt;ast.Name object at 0x7f3dae404220 -->
<g id="edge18" class="edge">
<title>ast.Call object at 0x7f3dae404d30&#45;&gt;ast.Name object at 0x7f3dae404220</title>
<path fill="none" stroke="black" d="M123.6,-143.7C129.89,-135.39 137.55,-125.28 144.46,-116.14"/>
<polygon fill="black" stroke="black" points="147.3,-118.19 150.55,-108.1 141.72,-113.96 147.3,-118.19"/>
</g>
<!-- ast.Name object at 0x7f3dae406dd0&#45;&gt;ast.Load object at 0x7f3def2f2020 -->
<g id="edge17" class="edge">
<title>ast.Name object at 0x7f3dae406dd0&#45;&gt;ast.Load object at 0x7f3def2f2020</title>
<path fill="none" stroke="black" d="M118.63,-74.96C121.57,-73.81 124.56,-72.79 127.5,-72 241.29,-41.45 605.73,-25.01 724.03,-20.38"/>
<polygon fill="black" stroke="black" points="724.52,-23.86 734.37,-19.98 724.25,-16.87 724.52,-23.86"/>
</g>
<!-- ast.Name object at 0x7f3dae404220&#45;&gt;ast.Load object at 0x7f3def2f2020 -->
<g id="edge19" class="edge">
<title>ast.Name object at 0x7f3dae404220&#45;&gt;ast.Load object at 0x7f3def2f2020</title>
<path fill="none" stroke="black" d="M190.91,-76.33C195.38,-74.64 200.01,-73.12 204.5,-72 395.82,-24.38 633.89,-18.95 724.32,-18.75"/>
<polygon fill="black" stroke="black" points="724.36,-22.25 734.36,-18.75 724.35,-15.25 724.36,-22.25"/>
</g>
<!-- ast.Name object at 0x7f3dae4060e0 -->
<g id="node21" class="node">
<title>ast.Name object at 0x7f3dae4060e0</title>
<path fill="#66cdaa" stroke="black" d="M989.5,-468C989.5,-468 959.5,-468 959.5,-468 953.5,-468 947.5,-462 947.5,-456 947.5,-456 947.5,-444 947.5,-444 947.5,-438 953.5,-432 959.5,-432 959.5,-432 989.5,-432 989.5,-432 995.5,-432 1001.5,-438 1001.5,-444 1001.5,-444 1001.5,-456 1001.5,-456 1001.5,-462 995.5,-468 989.5,-468"/>
<text text-anchor="middle" x="974.5" y="-446.3" font-family="Times,serif" font-size="14.00">Name</text>
</g>
<!-- ast.For object at 0x7f3dae4049a0&#45;&gt;ast.Name object at 0x7f3dae4060e0 -->
<g id="edge23" class="edge">
<title>ast.For object at 0x7f3dae4049a0&#45;&gt;ast.Name object at 0x7f3dae4060e0</title>
<path fill="none" stroke="black" d="M905.03,-575.87C918.67,-551.35 943.88,-506.03 959.89,-477.26"/>
<polygon fill="black" stroke="black" points="963.13,-478.63 964.94,-468.19 957.02,-475.23 963.13,-478.63"/>
</g>
<!-- ast.Call object at 0x7f3dae405630 -->
<g id="node22" class="node">
<title>ast.Call object at 0x7f3dae405630</title>
<path fill="#66cdaa" stroke="black" d="M473.5,-540C473.5,-540 443.5,-540 443.5,-540 437.5,-540 431.5,-534 431.5,-528 431.5,-528 431.5,-516 431.5,-516 431.5,-510 437.5,-504 443.5,-504 443.5,-504 473.5,-504 473.5,-504 479.5,-504 485.5,-510 485.5,-516 485.5,-516 485.5,-528 485.5,-528 485.5,-534 479.5,-540 473.5,-540"/>
<text text-anchor="middle" x="458.5" y="-518.3" font-family="Times,serif" font-size="14.00">Call</text>
</g>
<!-- ast.For object at 0x7f3dae4049a0&#45;&gt;ast.Call object at 0x7f3dae405630 -->
<g id="edge25" class="edge">
<title>ast.For object at 0x7f3dae4049a0&#45;&gt;ast.Call object at 0x7f3dae405630</title>
<path fill="none" stroke="black" d="M868.49,-588.67C793.38,-576.64 581.86,-542.76 495.71,-528.96"/>
<polygon fill="black" stroke="black" points="496.03,-525.47 485.61,-527.34 494.93,-532.38 496.03,-525.47"/>
</g>
<!-- ast.If object at 0x7f3dae404400 -->
<g id="node31" class="node">
<title>ast.If object at 0x7f3dae404400</title>
<path fill="#66cdaa" stroke="black" d="M892.5,-540C892.5,-540 862.5,-540 862.5,-540 856.5,-540 850.5,-534 850.5,-528 850.5,-528 850.5,-516 850.5,-516 850.5,-510 856.5,-504 862.5,-504 862.5,-504 892.5,-504 892.5,-504 898.5,-504 904.5,-510 904.5,-516 904.5,-516 904.5,-528 904.5,-528 904.5,-534 898.5,-540 892.5,-540"/>
<text text-anchor="middle" x="877.5" y="-518.3" font-family="Times,serif" font-size="14.00">If</text>
</g>
<!-- ast.For object at 0x7f3dae4049a0&#45;&gt;ast.If object at 0x7f3dae404400 -->
<g id="edge38" class="edge">
<title>ast.For object at 0x7f3dae4049a0&#45;&gt;ast.If object at 0x7f3dae404400</title>
<path fill="none" stroke="black" d="M891.05,-575.7C889.05,-567.9 886.63,-558.51 884.4,-549.83"/>
<polygon fill="black" stroke="black" points="887.78,-548.92 881.9,-540.1 881,-550.66 887.78,-548.92"/>
</g>
<!-- ast.Name object at 0x7f3dae4060e0&#45;&gt;ast.Store object at 0x7f3def2f2080 -->
<g id="edge24" class="edge">
<title>ast.Name object at 0x7f3dae4060e0&#45;&gt;ast.Store object at 0x7f3def2f2080</title>
<path fill="none" stroke="black" d="M983.36,-431.85C993.27,-413.35 1010.31,-383.4 1028.5,-360 1036.21,-350.08 1045.58,-340.03 1054.24,-331.39"/>
<polygon fill="black" stroke="black" points="1056.89,-333.69 1061.6,-324.2 1052,-328.68 1056.89,-333.69"/>
</g>
<!-- ast.Name object at 0x7f3dae404bb0 -->
<g id="node23" class="node">
<title>ast.Name object at 0x7f3dae404bb0</title>
<path fill="#66cdaa" stroke="black" d="M434.5,-468C434.5,-468 404.5,-468 404.5,-468 398.5,-468 392.5,-462 392.5,-456 392.5,-456 392.5,-444 392.5,-444 392.5,-438 398.5,-432 404.5,-432 404.5,-432 434.5,-432 434.5,-432 440.5,-432 446.5,-438 446.5,-444 446.5,-444 446.5,-456 446.5,-456 446.5,-462 440.5,-468 434.5,-468"/>
<text text-anchor="middle" x="419.5" y="-446.3" font-family="Times,serif" font-size="14.00">Name</text>
</g>
<!-- ast.Call object at 0x7f3dae405630&#45;&gt;ast.Name object at 0x7f3dae404bb0 -->
<g id="edge26" class="edge">
<title>ast.Call object at 0x7f3dae405630&#45;&gt;ast.Name object at 0x7f3dae404bb0</title>
<path fill="none" stroke="black" d="M448.86,-503.7C444.37,-495.64 438.94,-485.89 433.98,-476.98"/>
<polygon fill="black" stroke="black" points="436.95,-475.14 429.03,-468.1 430.84,-478.54 436.95,-475.14"/>
</g>
<!-- ast.BinOp object at 0x7f3dae407af0 -->
<g id="node24" class="node">
<title>ast.BinOp object at 0x7f3dae407af0</title>
<path fill="#66cdaa" stroke="black" d="M511.5,-468C511.5,-468 481.5,-468 481.5,-468 475.5,-468 469.5,-462 469.5,-456 469.5,-456 469.5,-444 469.5,-444 469.5,-438 475.5,-432 481.5,-432 481.5,-432 511.5,-432 511.5,-432 517.5,-432 523.5,-438 523.5,-444 523.5,-444 523.5,-456 523.5,-456 523.5,-462 517.5,-468 511.5,-468"/>
<text text-anchor="middle" x="496.5" y="-446.3" font-family="Times,serif" font-size="14.00">BinOp</text>
</g>
<!-- ast.Call object at 0x7f3dae405630&#45;&gt;ast.BinOp object at 0x7f3dae407af0 -->
<g id="edge28" class="edge">
<title>ast.Call object at 0x7f3dae405630&#45;&gt;ast.BinOp object at 0x7f3dae407af0</title>
<path fill="none" stroke="black" d="M467.89,-503.7C472.26,-495.64 477.56,-485.89 482.4,-476.98"/>
<polygon fill="black" stroke="black" points="485.52,-478.56 487.21,-468.1 479.37,-475.22 485.52,-478.56"/>
</g>
<!-- ast.Call object at 0x7f3dae406f20 -->
<g id="node28" class="node">
<title>ast.Call object at 0x7f3dae406f20</title>
<path fill="#66cdaa" stroke="black" d="M360.5,-180C360.5,-180 330.5,-180 330.5,-180 324.5,-180 318.5,-174 318.5,-168 318.5,-168 318.5,-156 318.5,-156 318.5,-150 324.5,-144 330.5,-144 330.5,-144 360.5,-144 360.5,-144 366.5,-144 372.5,-150 372.5,-156 372.5,-156 372.5,-168 372.5,-168 372.5,-174 366.5,-180 360.5,-180"/>
<text text-anchor="middle" x="345.5" y="-158.3" font-family="Times,serif" font-size="14.00">Call</text>
</g>
<!-- ast.Call object at 0x7f3dae405630&#45;&gt;ast.Call object at 0x7f3dae406f20 -->
<g id="edge33" class="edge">
<title>ast.Call object at 0x7f3dae405630&#45;&gt;ast.Call object at 0x7f3dae406f20</title>
<path fill="none" stroke="black" d="M431.41,-508.22C415.14,-499.2 395.36,-485.58 383.5,-468 360.76,-434.31 362.5,-419.64 362.5,-379 362.5,-379 362.5,-379 362.5,-305 362.5,-264.93 355.74,-218.95 350.75,-190.43"/>
<polygon fill="black" stroke="black" points="354.16,-189.63 348.94,-180.41 347.27,-190.87 354.16,-189.63"/>
</g>
<!-- ast.Name object at 0x7f3dae404bb0&#45;&gt;ast.Load object at 0x7f3def2f2020 -->
<g id="edge27" class="edge">
<title>ast.Name object at 0x7f3dae404bb0&#45;&gt;ast.Load object at 0x7f3def2f2020</title>
<path fill="none" stroke="black" d="M415.66,-431.61C410.1,-404.94 400.5,-352.27 400.5,-307 400.5,-307 400.5,-307 400.5,-161 400.5,-118.81 400.91,-98.79 433.5,-72 477.39,-35.93 647.94,-23.99 724.24,-20.4"/>
<polygon fill="black" stroke="black" points="724.53,-23.89 734.36,-19.95 724.21,-16.9 724.53,-23.89"/>
</g>
<!-- ast.Name object at 0x7f3dae406c50 -->
<g id="node25" class="node">
<title>ast.Name object at 0x7f3dae406c50</title>
<path fill="#66cdaa" stroke="black" d="M470.5,-324C470.5,-324 440.5,-324 440.5,-324 434.5,-324 428.5,-318 428.5,-312 428.5,-312 428.5,-300 428.5,-300 428.5,-294 434.5,-288 440.5,-288 440.5,-288 470.5,-288 470.5,-288 476.5,-288 482.5,-294 482.5,-300 482.5,-300 482.5,-312 482.5,-312 482.5,-318 476.5,-324 470.5,-324"/>
<text text-anchor="middle" x="455.5" y="-302.3" font-family="Times,serif" font-size="14.00">Name</text>
</g>
<!-- ast.BinOp object at 0x7f3dae407af0&#45;&gt;ast.Name object at 0x7f3dae406c50 -->
<g id="edge29" class="edge">
<title>ast.BinOp object at 0x7f3dae407af0&#45;&gt;ast.Name object at 0x7f3dae406c50</title>
<path fill="none" stroke="black" d="M479.73,-431.95C471.36,-422.26 462.07,-409.41 457.5,-396 450.74,-376.16 450.58,-352.36 451.93,-334.37"/>
<polygon fill="black" stroke="black" points="455.42,-334.55 452.88,-324.26 448.46,-333.89 455.42,-334.55"/>
</g>
<!-- ast.Add object at 0x7f3def2f2260 -->
<g id="node26" class="node">
<title>ast.Add object at 0x7f3def2f2260</title>
<path fill="#66cdaa" stroke="black" d="M892.5,-396C892.5,-396 862.5,-396 862.5,-396 856.5,-396 850.5,-390 850.5,-384 850.5,-384 850.5,-372 850.5,-372 850.5,-366 856.5,-360 862.5,-360 862.5,-360 892.5,-360 892.5,-360 898.5,-360 904.5,-366 904.5,-372 904.5,-372 904.5,-384 904.5,-384 904.5,-390 898.5,-396 892.5,-396"/>
<text text-anchor="middle" x="877.5" y="-374.3" font-family="Times,serif" font-size="14.00">Add</text>
</g>
<!-- ast.BinOp object at 0x7f3dae407af0&#45;&gt;ast.Add object at 0x7f3def2f2260 -->
<g id="edge31" class="edge">
<title>ast.BinOp object at 0x7f3dae407af0&#45;&gt;ast.Add object at 0x7f3def2f2260</title>
<path fill="none" stroke="black" d="M523.66,-445.8C594.01,-437.37 780.82,-413.93 840.5,-396 840.6,-395.97 840.7,-395.94 840.8,-395.91"/>
<polygon fill="black" stroke="black" points="842.11,-399.16 850.35,-392.5 839.76,-392.57 842.11,-399.16"/>
</g>
<!-- ast.Constant object at 0x7f3dae404e80 -->
<g id="node27" class="node">
<title>ast.Constant object at 0x7f3dae404e80</title>
<path fill="#66cdaa" stroke="black" d="M520,-396C520,-396 479,-396 479,-396 473,-396 467,-390 467,-384 467,-384 467,-372 467,-372 467,-366 473,-360 479,-360 479,-360 520,-360 520,-360 526,-360 532,-366 532,-372 532,-372 532,-384 532,-384 532,-390 526,-396 520,-396"/>
<text text-anchor="middle" x="499.5" y="-374.3" font-family="Times,serif" font-size="14.00">Constant</text>
</g>
<!-- ast.BinOp object at 0x7f3dae407af0&#45;&gt;ast.Constant object at 0x7f3dae404e80 -->
<g id="edge32" class="edge">
<title>ast.BinOp object at 0x7f3dae407af0&#45;&gt;ast.Constant object at 0x7f3dae404e80</title>
<path fill="none" stroke="black" d="M497.24,-431.7C497.57,-423.98 497.97,-414.71 498.34,-406.11"/>
<polygon fill="black" stroke="black" points="501.84,-406.25 498.77,-396.1 494.84,-405.95 501.84,-406.25"/>
</g>
<!-- ast.Name object at 0x7f3dae406c50&#45;&gt;ast.Load object at 0x7f3def2f2020 -->
<g id="edge30" class="edge">
<title>ast.Name object at 0x7f3dae406c50&#45;&gt;ast.Load object at 0x7f3def2f2020</title>
<path fill="none" stroke="black" d="M449.11,-287.86C434.55,-245.53 404.12,-134.94 457.5,-72 491.35,-32.08 650.62,-22.22 724.14,-19.79"/>
<polygon fill="black" stroke="black" points="724.45,-23.29 734.34,-19.49 724.24,-16.29 724.45,-23.29"/>
</g>
<!-- ast.Name object at 0x7f3dae405ab0 -->
<g id="node29" class="node">
<title>ast.Name object at 0x7f3dae405ab0</title>
<path fill="#66cdaa" stroke="black" d="M288.5,-108C288.5,-108 258.5,-108 258.5,-108 252.5,-108 246.5,-102 246.5,-96 246.5,-96 246.5,-84 246.5,-84 246.5,-78 252.5,-72 258.5,-72 258.5,-72 288.5,-72 288.5,-72 294.5,-72 300.5,-78 300.5,-84 300.5,-84 300.5,-96 300.5,-96 300.5,-102 294.5,-108 288.5,-108"/>
<text text-anchor="middle" x="273.5" y="-86.3" font-family="Times,serif" font-size="14.00">Name</text>
</g>
<!-- ast.Call object at 0x7f3dae406f20&#45;&gt;ast.Name object at 0x7f3dae405ab0 -->
<g id="edge34" class="edge">
<title>ast.Call object at 0x7f3dae406f20&#45;&gt;ast.Name object at 0x7f3dae405ab0</title>
<path fill="none" stroke="black" d="M327.7,-143.7C318.9,-135.14 308.12,-124.66 298.5,-115.3"/>
<polygon fill="black" stroke="black" points="300.7,-112.57 291.09,-108.1 295.82,-117.58 300.7,-112.57"/>
</g>
<!-- ast.Name object at 0x7f3dae404910 -->
<g id="node30" class="node">
<title>ast.Name object at 0x7f3dae404910</title>
<path fill="#66cdaa" stroke="black" d="M360.5,-108C360.5,-108 330.5,-108 330.5,-108 324.5,-108 318.5,-102 318.5,-96 318.5,-96 318.5,-84 318.5,-84 318.5,-78 324.5,-72 330.5,-72 330.5,-72 360.5,-72 360.5,-72 366.5,-72 372.5,-78 372.5,-84 372.5,-84 372.5,-96 372.5,-96 372.5,-102 366.5,-108 360.5,-108"/>
<text text-anchor="middle" x="345.5" y="-86.3" font-family="Times,serif" font-size="14.00">Name</text>
</g>
<!-- ast.Call object at 0x7f3dae406f20&#45;&gt;ast.Name object at 0x7f3dae404910 -->
<g id="edge36" class="edge">
<title>ast.Call object at 0x7f3dae406f20&#45;&gt;ast.Name object at 0x7f3dae404910</title>
<path fill="none" stroke="black" d="M345.5,-143.7C345.5,-135.98 345.5,-126.71 345.5,-118.11"/>
<polygon fill="black" stroke="black" points="349,-118.1 345.5,-108.1 342,-118.1 349,-118.1"/>
</g>
<!-- ast.Name object at 0x7f3dae405ab0&#45;&gt;ast.Load object at 0x7f3def2f2020 -->
<g id="edge35" class="edge">
<title>ast.Name object at 0x7f3dae405ab0&#45;&gt;ast.Load object at 0x7f3def2f2020</title>
<path fill="none" stroke="black" d="M300.66,-75.06C303.59,-73.89 306.58,-72.84 309.5,-72 458.94,-29.2 645.65,-20.88 724.08,-19.32"/>
<polygon fill="black" stroke="black" points="724.48,-22.82 734.41,-19.15 724.36,-15.82 724.48,-22.82"/>
</g>
<!-- ast.Name object at 0x7f3dae404910&#45;&gt;ast.Load object at 0x7f3def2f2020 -->
<g id="edge37" class="edge">
<title>ast.Name object at 0x7f3dae404910&#45;&gt;ast.Load object at 0x7f3def2f2020</title>
<path fill="none" stroke="black" d="M372.51,-76.68C377.11,-74.91 381.89,-73.26 386.5,-72 507.21,-39.02 655.7,-25.78 723.95,-21.16"/>
<polygon fill="black" stroke="black" points="724.45,-24.64 734.2,-20.49 723.99,-17.65 724.45,-24.64"/>
</g>
<!-- ast.Compare object at 0x7f3dae404cd0 -->
<g id="node32" class="node">
<title>ast.Compare object at 0x7f3dae404cd0</title>
<path fill="#66cdaa" stroke="black" d="M707,-468C707,-468 664,-468 664,-468 658,-468 652,-462 652,-456 652,-456 652,-444 652,-444 652,-438 658,-432 664,-432 664,-432 707,-432 707,-432 713,-432 719,-438 719,-444 719,-444 719,-456 719,-456 719,-462 713,-468 707,-468"/>
<text text-anchor="middle" x="685.5" y="-446.3" font-family="Times,serif" font-size="14.00">Compare</text>
</g>
<!-- ast.If object at 0x7f3dae404400&#45;&gt;ast.Compare object at 0x7f3dae404cd0 -->
<g id="edge39" class="edge">
<title>ast.If object at 0x7f3dae404400&#45;&gt;ast.Compare object at 0x7f3dae404cd0</title>
<path fill="none" stroke="black" d="M850.4,-511.12C818.8,-499.6 766.15,-480.41 728.86,-466.81"/>
<polygon fill="black" stroke="black" points="729.84,-463.44 719.25,-463.3 727.45,-470.02 729.84,-463.44"/>
</g>
<!-- ast.AugAssign object at 0x7f3db7d1cd00 -->
<g id="node48" class="node">
<title>ast.AugAssign object at 0x7f3db7d1cd00</title>
<path fill="#66cdaa" stroke="black" d="M904,-468C904,-468 851,-468 851,-468 845,-468 839,-462 839,-456 839,-456 839,-444 839,-444 839,-438 845,-432 851,-432 851,-432 904,-432 904,-432 910,-432 916,-438 916,-444 916,-444 916,-456 916,-456 916,-462 910,-468 904,-468"/>
<text text-anchor="middle" x="877.5" y="-446.3" font-family="Times,serif" font-size="14.00">AugAssign</text>
</g>
<!-- ast.If object at 0x7f3dae404400&#45;&gt;ast.AugAssign object at 0x7f3db7d1cd00 -->
<g id="edge65" class="edge">
<title>ast.If object at 0x7f3dae404400&#45;&gt;ast.AugAssign object at 0x7f3db7d1cd00</title>
<path fill="none" stroke="black" d="M877.5,-503.7C877.5,-495.98 877.5,-486.71 877.5,-478.11"/>
<polygon fill="black" stroke="black" points="881,-478.1 877.5,-468.1 874,-478.1 881,-478.1"/>
</g>
<!-- ast.Call object at 0x7f3dae406cb0 -->
<g id="node33" class="node">
<title>ast.Call object at 0x7f3dae406cb0</title>
<path fill="#66cdaa" stroke="black" d="M592.5,-396C592.5,-396 562.5,-396 562.5,-396 556.5,-396 550.5,-390 550.5,-384 550.5,-384 550.5,-372 550.5,-372 550.5,-366 556.5,-360 562.5,-360 562.5,-360 592.5,-360 592.5,-360 598.5,-360 604.5,-366 604.5,-372 604.5,-372 604.5,-384 604.5,-384 604.5,-390 598.5,-396 592.5,-396"/>
<text text-anchor="middle" x="577.5" y="-374.3" font-family="Times,serif" font-size="14.00">Call</text>
</g>
<!-- ast.Compare object at 0x7f3dae404cd0&#45;&gt;ast.Call object at 0x7f3dae406cb0 -->
<g id="edge40" class="edge">
<title>ast.Compare object at 0x7f3dae404cd0&#45;&gt;ast.Call object at 0x7f3dae406cb0</title>
<path fill="none" stroke="black" d="M659.08,-431.88C645.09,-422.81 627.72,-411.55 612.61,-401.76"/>
<polygon fill="black" stroke="black" points="614.32,-398.69 604.02,-396.19 610.51,-404.57 614.32,-398.69"/>
</g>
<!-- ast.Eq object at 0x7f3def2f2950 -->
<g id="node40" class="node">
<title>ast.Eq object at 0x7f3def2f2950</title>
<path fill="#66cdaa" stroke="black" d="M664.5,-396C664.5,-396 634.5,-396 634.5,-396 628.5,-396 622.5,-390 622.5,-384 622.5,-384 622.5,-372 622.5,-372 622.5,-366 628.5,-360 634.5,-360 634.5,-360 664.5,-360 664.5,-360 670.5,-360 676.5,-366 676.5,-372 676.5,-372 676.5,-384 676.5,-384 676.5,-390 670.5,-396 664.5,-396"/>
<text text-anchor="middle" x="649.5" y="-374.3" font-family="Times,serif" font-size="14.00">Eq</text>
</g>
<!-- ast.Compare object at 0x7f3dae404cd0&#45;&gt;ast.Eq object at 0x7f3def2f2950 -->
<g id="edge52" class="edge">
<title>ast.Compare object at 0x7f3dae404cd0&#45;&gt;ast.Eq object at 0x7f3def2f2950</title>
<path fill="none" stroke="black" d="M676.6,-431.7C672.5,-423.73 667.55,-414.1 663.01,-405.26"/>
<polygon fill="black" stroke="black" points="665.98,-403.4 658.3,-396.1 659.76,-406.6 665.98,-403.4"/>
</g>
<!-- ast.Call object at 0x7f3db7d1c7c0 -->
<g id="node41" class="node">
<title>ast.Call object at 0x7f3db7d1c7c0</title>
<path fill="#66cdaa" stroke="black" d="M736.5,-396C736.5,-396 706.5,-396 706.5,-396 700.5,-396 694.5,-390 694.5,-384 694.5,-384 694.5,-372 694.5,-372 694.5,-366 700.5,-360 706.5,-360 706.5,-360 736.5,-360 736.5,-360 742.5,-360 748.5,-366 748.5,-372 748.5,-372 748.5,-384 748.5,-384 748.5,-390 742.5,-396 736.5,-396"/>
<text text-anchor="middle" x="721.5" y="-374.3" font-family="Times,serif" font-size="14.00">Call</text>
</g>
<!-- ast.Compare object at 0x7f3dae404cd0&#45;&gt;ast.Call object at 0x7f3db7d1c7c0 -->
<g id="edge53" class="edge">
<title>ast.Compare object at 0x7f3dae404cd0&#45;&gt;ast.Call object at 0x7f3db7d1c7c0</title>
<path fill="none" stroke="black" d="M694.4,-431.7C698.5,-423.73 703.45,-414.1 707.99,-405.26"/>
<polygon fill="black" stroke="black" points="711.24,-406.6 712.7,-396.1 705.02,-403.4 711.24,-406.6"/>
</g>
<!-- ast.Name object at 0x7f3dae407b50 -->
<g id="node34" class="node">
<title>ast.Name object at 0x7f3dae407b50</title>
<path fill="#66cdaa" stroke="black" d="M726.5,-180C726.5,-180 696.5,-180 696.5,-180 690.5,-180 684.5,-174 684.5,-168 684.5,-168 684.5,-156 684.5,-156 684.5,-150 690.5,-144 696.5,-144 696.5,-144 726.5,-144 726.5,-144 732.5,-144 738.5,-150 738.5,-156 738.5,-156 738.5,-168 738.5,-168 738.5,-174 732.5,-180 726.5,-180"/>
<text text-anchor="middle" x="711.5" y="-158.3" font-family="Times,serif" font-size="14.00">Name</text>
</g>
<!-- ast.Call object at 0x7f3dae406cb0&#45;&gt;ast.Name object at 0x7f3dae407b50 -->
<g id="edge41" class="edge">
<title>ast.Call object at 0x7f3dae406cb0&#45;&gt;ast.Name object at 0x7f3dae407b50</title>
<path fill="none" stroke="black" d="M589.39,-359.96C596.51,-349.64 605.68,-336.16 613.5,-324 643.8,-276.91 677.37,-220.84 696.31,-188.84"/>
<polygon fill="black" stroke="black" points="699.4,-190.48 701.48,-180.09 693.38,-186.92 699.4,-190.48"/>
</g>
<!-- ast.Call object at 0x7f3dae405720 -->
<g id="node35" class="node">
<title>ast.Call object at 0x7f3dae405720</title>
<path fill="#66cdaa" stroke="black" d="M592.5,-324C592.5,-324 562.5,-324 562.5,-324 556.5,-324 550.5,-318 550.5,-312 550.5,-312 550.5,-300 550.5,-300 550.5,-294 556.5,-288 562.5,-288 562.5,-288 592.5,-288 592.5,-288 598.5,-288 604.5,-294 604.5,-300 604.5,-300 604.5,-312 604.5,-312 604.5,-318 598.5,-324 592.5,-324"/>
<text text-anchor="middle" x="577.5" y="-302.3" font-family="Times,serif" font-size="14.00">Call</text>
</g>
<!-- ast.Call object at 0x7f3dae406cb0&#45;&gt;ast.Call object at 0x7f3dae405720 -->
<g id="edge43" class="edge">
<title>ast.Call object at 0x7f3dae406cb0&#45;&gt;ast.Call object at 0x7f3dae405720</title>
<path fill="none" stroke="black" d="M577.5,-359.7C577.5,-351.98 577.5,-342.71 577.5,-334.11"/>
<polygon fill="black" stroke="black" points="581,-334.1 577.5,-324.1 574,-334.1 581,-334.1"/>
</g>
<!-- ast.Name object at 0x7f3dae407b50&#45;&gt;ast.Load object at 0x7f3def2f2020 -->
<g id="edge42" class="edge">
<title>ast.Name object at 0x7f3dae407b50&#45;&gt;ast.Load object at 0x7f3def2f2020</title>
<path fill="none" stroke="black" d="M717.53,-143.87C726.13,-119.46 741.98,-74.43 752.12,-45.64"/>
<polygon fill="black" stroke="black" points="755.43,-46.78 755.45,-36.19 748.82,-44.46 755.43,-46.78"/>
</g>
<!-- ast.Attribute object at 0x7f3dae405ae0 -->
<g id="node36" class="node">
<title>ast.Attribute object at 0x7f3dae405ae0</title>
<path fill="#66cdaa" stroke="black" d="M598,-252C598,-252 557,-252 557,-252 551,-252 545,-246 545,-240 545,-240 545,-228 545,-228 545,-222 551,-216 557,-216 557,-216 598,-216 598,-216 604,-216 610,-222 610,-228 610,-228 610,-240 610,-240 610,-246 604,-252 598,-252"/>
<text text-anchor="middle" x="577.5" y="-230.3" font-family="Times,serif" font-size="14.00">Attribute</text>
</g>
<!-- ast.Call object at 0x7f3dae405720&#45;&gt;ast.Attribute object at 0x7f3dae405ae0 -->
<g id="edge44" class="edge">
<title>ast.Call object at 0x7f3dae405720&#45;&gt;ast.Attribute object at 0x7f3dae405ae0</title>
<path fill="none" stroke="black" d="M577.5,-287.7C577.5,-279.98 577.5,-270.71 577.5,-262.11"/>
<polygon fill="black" stroke="black" points="581,-262.1 577.5,-252.1 574,-262.1 581,-262.1"/>
</g>
<!-- ast.Attribute object at 0x7f3dae405ae0&#45;&gt;ast.Load object at 0x7f3def2f2020 -->
<g id="edge51" class="edge">
<title>ast.Attribute object at 0x7f3dae405ae0&#45;&gt;ast.Load object at 0x7f3def2f2020</title>
<path fill="none" stroke="black" d="M592.25,-215.85C624.68,-178.13 702.32,-87.83 740.11,-43.88"/>
<polygon fill="black" stroke="black" points="742.82,-46.1 746.68,-36.23 737.51,-41.53 742.82,-46.1"/>
</g>
<!-- ast.Subscript object at 0x7f3db7d1cc40 -->
<g id="node37" class="node">
<title>ast.Subscript object at 0x7f3db7d1cc40</title>
<path fill="#66cdaa" stroke="black" d="M584.5,-180C584.5,-180 540.5,-180 540.5,-180 534.5,-180 528.5,-174 528.5,-168 528.5,-168 528.5,-156 528.5,-156 528.5,-150 534.5,-144 540.5,-144 540.5,-144 584.5,-144 584.5,-144 590.5,-144 596.5,-150 596.5,-156 596.5,-156 596.5,-168 596.5,-168 596.5,-174 590.5,-180 584.5,-180"/>
<text text-anchor="middle" x="562.5" y="-158.3" font-family="Times,serif" font-size="14.00">Subscript</text>
</g>
<!-- ast.Attribute object at 0x7f3dae405ae0&#45;&gt;ast.Subscript object at 0x7f3db7d1cc40 -->
<g id="edge45" class="edge">
<title>ast.Attribute object at 0x7f3dae405ae0&#45;&gt;ast.Subscript object at 0x7f3db7d1cc40</title>
<path fill="none" stroke="black" d="M573.79,-215.7C572.14,-207.98 570.15,-198.71 568.31,-190.11"/>
<polygon fill="black" stroke="black" points="571.68,-189.15 566.17,-180.1 564.84,-190.62 571.68,-189.15"/>
</g>
<!-- ast.Subscript object at 0x7f3db7d1cc40&#45;&gt;ast.Load object at 0x7f3def2f2020 -->
<g id="edge50" class="edge">
<title>ast.Subscript object at 0x7f3db7d1cc40&#45;&gt;ast.Load object at 0x7f3def2f2020</title>
<path fill="none" stroke="black" d="M558.07,-143.85C554.11,-124.23 551.15,-92.21 567.5,-72 587.12,-47.75 673.87,-31.53 724.48,-23.95"/>
<polygon fill="black" stroke="black" points="725,-27.41 734.39,-22.5 723.99,-20.48 725,-27.41"/>
</g>
<!-- ast.Name object at 0x7f3db7d1f580 -->
<g id="node38" class="node">
<title>ast.Name object at 0x7f3db7d1f580</title>
<path fill="#66cdaa" stroke="black" d="M618.5,-108C618.5,-108 588.5,-108 588.5,-108 582.5,-108 576.5,-102 576.5,-96 576.5,-96 576.5,-84 576.5,-84 576.5,-78 582.5,-72 588.5,-72 588.5,-72 618.5,-72 618.5,-72 624.5,-72 630.5,-78 630.5,-84 630.5,-84 630.5,-96 630.5,-96 630.5,-102 624.5,-108 618.5,-108"/>
<text text-anchor="middle" x="603.5" y="-86.3" font-family="Times,serif" font-size="14.00">Name</text>
</g>
<!-- ast.Subscript object at 0x7f3db7d1cc40&#45;&gt;ast.Name object at 0x7f3db7d1f580 -->
<g id="edge46" class="edge">
<title>ast.Subscript object at 0x7f3db7d1cc40&#45;&gt;ast.Name object at 0x7f3db7d1f580</title>
<path fill="none" stroke="black" d="M572.63,-143.7C577.35,-135.64 583.06,-125.89 588.28,-116.98"/>
<polygon fill="black" stroke="black" points="591.45,-118.5 593.48,-108.1 585.41,-114.96 591.45,-118.5"/>
</g>
<!-- ast.Name object at 0x7f3db7d1e800 -->
<g id="node39" class="node">
<title>ast.Name object at 0x7f3db7d1e800</title>
<path fill="#66cdaa" stroke="black" d="M508.5,-108C508.5,-108 478.5,-108 478.5,-108 472.5,-108 466.5,-102 466.5,-96 466.5,-96 466.5,-84 466.5,-84 466.5,-78 472.5,-72 478.5,-72 478.5,-72 508.5,-72 508.5,-72 514.5,-72 520.5,-78 520.5,-84 520.5,-84 520.5,-96 520.5,-96 520.5,-102 514.5,-108 508.5,-108"/>
<text text-anchor="middle" x="493.5" y="-86.3" font-family="Times,serif" font-size="14.00">Name</text>
</g>
<!-- ast.Subscript object at 0x7f3db7d1cc40&#45;&gt;ast.Name object at 0x7f3db7d1e800 -->
<g id="edge48" class="edge">
<title>ast.Subscript object at 0x7f3db7d1cc40&#45;&gt;ast.Name object at 0x7f3db7d1e800</title>
<path fill="none" stroke="black" d="M545.44,-143.7C537,-135.14 526.68,-124.66 517.46,-115.3"/>
<polygon fill="black" stroke="black" points="519.87,-112.77 510.36,-108.1 514.89,-117.68 519.87,-112.77"/>
</g>
<!-- ast.Name object at 0x7f3db7d1f580&#45;&gt;ast.Load object at 0x7f3def2f2020 -->
<g id="edge47" class="edge">
<title>ast.Name object at 0x7f3db7d1f580&#45;&gt;ast.Load object at 0x7f3def2f2020</title>
<path fill="none" stroke="black" d="M630.66,-76.97C656.74,-65.41 696.32,-47.88 725.11,-35.12"/>
<polygon fill="black" stroke="black" points="726.7,-38.24 734.43,-30.99 723.87,-31.84 726.7,-38.24"/>
</g>
<!-- ast.Name object at 0x7f3db7d1e800&#45;&gt;ast.Load object at 0x7f3def2f2020 -->
<g id="edge49" class="edge">
<title>ast.Name object at 0x7f3db7d1e800&#45;&gt;ast.Load object at 0x7f3def2f2020</title>
<path fill="none" stroke="black" d="M520.61,-77.03C525.2,-75.21 529.95,-73.46 534.5,-72 600.09,-50.9 678.83,-34.43 724.22,-25.76"/>
<polygon fill="black" stroke="black" points="725.03,-29.17 734.2,-23.87 723.73,-22.29 725.03,-29.17"/>
</g>
<!-- ast.Name object at 0x7f3db7d1ff40 -->
<g id="node42" class="node">
<title>ast.Name object at 0x7f3db7d1ff40</title>
<path fill="#66cdaa" stroke="black" d="M923.5,-324C923.5,-324 893.5,-324 893.5,-324 887.5,-324 881.5,-318 881.5,-312 881.5,-312 881.5,-300 881.5,-300 881.5,-294 887.5,-288 893.5,-288 893.5,-288 923.5,-288 923.5,-288 929.5,-288 935.5,-294 935.5,-300 935.5,-300 935.5,-312 935.5,-312 935.5,-318 929.5,-324 923.5,-324"/>
<text text-anchor="middle" x="908.5" y="-302.3" font-family="Times,serif" font-size="14.00">Name</text>
</g>
<!-- ast.Call object at 0x7f3db7d1c7c0&#45;&gt;ast.Name object at 0x7f3db7d1ff40 -->
<g id="edge54" class="edge">
<title>ast.Call object at 0x7f3db7d1c7c0&#45;&gt;ast.Name object at 0x7f3db7d1ff40</title>
<path fill="none" stroke="black" d="M748.89,-363.71C751.78,-362.41 754.69,-361.15 757.5,-360 795.83,-344.27 840.75,-328.88 871.57,-318.77"/>
<polygon fill="black" stroke="black" points="873.03,-321.98 881.45,-315.55 870.86,-315.32 873.03,-321.98"/>
</g>
<!-- ast.Call object at 0x7f3db7d1e7d0 -->
<g id="node43" class="node">
<title>ast.Call object at 0x7f3db7d1e7d0</title>
<path fill="#66cdaa" stroke="black" d="M775.5,-324C775.5,-324 745.5,-324 745.5,-324 739.5,-324 733.5,-318 733.5,-312 733.5,-312 733.5,-300 733.5,-300 733.5,-294 739.5,-288 745.5,-288 745.5,-288 775.5,-288 775.5,-288 781.5,-288 787.5,-294 787.5,-300 787.5,-300 787.5,-312 787.5,-312 787.5,-318 781.5,-324 775.5,-324"/>
<text text-anchor="middle" x="760.5" y="-302.3" font-family="Times,serif" font-size="14.00">Call</text>
</g>
<!-- ast.Call object at 0x7f3db7d1c7c0&#45;&gt;ast.Call object at 0x7f3db7d1e7d0 -->
<g id="edge56" class="edge">
<title>ast.Call object at 0x7f3db7d1c7c0&#45;&gt;ast.Call object at 0x7f3db7d1e7d0</title>
<path fill="none" stroke="black" d="M731.14,-359.7C735.63,-351.64 741.06,-341.89 746.02,-332.98"/>
<polygon fill="black" stroke="black" points="749.16,-334.54 750.97,-324.1 743.05,-331.14 749.16,-334.54"/>
</g>
<!-- ast.Name object at 0x7f3db7d1ff40&#45;&gt;ast.Load object at 0x7f3def2f2020 -->
<g id="edge55" class="edge">
<title>ast.Name object at 0x7f3db7d1ff40&#45;&gt;ast.Load object at 0x7f3def2f2020</title>
<path fill="none" stroke="black" d="M915.53,-287.77C931.26,-246.19 964.28,-138.84 916.5,-72 889.93,-34.83 835.67,-23.44 798.94,-20.11"/>
<polygon fill="black" stroke="black" points="798.85,-16.6 788.61,-19.35 798.33,-23.58 798.85,-16.6"/>
</g>
<!-- ast.Attribute object at 0x7f3db7d1f370 -->
<g id="node44" class="node">
<title>ast.Attribute object at 0x7f3db7d1f370</title>
<path fill="#66cdaa" stroke="black" d="M811,-252C811,-252 770,-252 770,-252 764,-252 758,-246 758,-240 758,-240 758,-228 758,-228 758,-222 764,-216 770,-216 770,-216 811,-216 811,-216 817,-216 823,-222 823,-228 823,-228 823,-240 823,-240 823,-246 817,-252 811,-252"/>
<text text-anchor="middle" x="790.5" y="-230.3" font-family="Times,serif" font-size="14.00">Attribute</text>
</g>
<!-- ast.Call object at 0x7f3db7d1e7d0&#45;&gt;ast.Attribute object at 0x7f3db7d1f370 -->
<g id="edge57" class="edge">
<title>ast.Call object at 0x7f3db7d1e7d0&#45;&gt;ast.Attribute object at 0x7f3db7d1f370</title>
<path fill="none" stroke="black" d="M767.92,-287.7C771.29,-279.81 775.37,-270.3 779.12,-261.55"/>
<polygon fill="black" stroke="black" points="782.45,-262.67 783.17,-252.1 776.01,-259.92 782.45,-262.67"/>
</g>
<!-- ast.Attribute object at 0x7f3db7d1f370&#45;&gt;ast.Load object at 0x7f3def2f2020 -->
<g id="edge64" class="edge">
<title>ast.Attribute object at 0x7f3db7d1f370&#45;&gt;ast.Load object at 0x7f3def2f2020</title>
<path fill="none" stroke="black" d="M816.67,-215.98C858.71,-186.5 933.11,-124.09 897.5,-72 875.5,-39.81 830.82,-27.17 798.67,-22.21"/>
<polygon fill="black" stroke="black" points="799.1,-18.73 788.72,-20.85 798.15,-25.67 799.1,-18.73"/>
</g>
<!-- ast.Subscript object at 0x7f3db7d1dcc0 -->
<g id="node45" class="node">
<title>ast.Subscript object at 0x7f3db7d1dcc0</title>
<path fill="#66cdaa" stroke="black" d="M812.5,-180C812.5,-180 768.5,-180 768.5,-180 762.5,-180 756.5,-174 756.5,-168 756.5,-168 756.5,-156 756.5,-156 756.5,-150 762.5,-144 768.5,-144 768.5,-144 812.5,-144 812.5,-144 818.5,-144 824.5,-150 824.5,-156 824.5,-156 824.5,-168 824.5,-168 824.5,-174 818.5,-180 812.5,-180"/>
<text text-anchor="middle" x="790.5" y="-158.3" font-family="Times,serif" font-size="14.00">Subscript</text>
</g>
<!-- ast.Attribute object at 0x7f3db7d1f370&#45;&gt;ast.Subscript object at 0x7f3db7d1dcc0 -->
<g id="edge58" class="edge">
<title>ast.Attribute object at 0x7f3db7d1f370&#45;&gt;ast.Subscript object at 0x7f3db7d1dcc0</title>
<path fill="none" stroke="black" d="M790.5,-215.7C790.5,-207.98 790.5,-198.71 790.5,-190.11"/>
<polygon fill="black" stroke="black" points="794,-190.1 790.5,-180.1 787,-190.1 794,-190.1"/>
</g>
<!-- ast.Subscript object at 0x7f3db7d1dcc0&#45;&gt;ast.Load object at 0x7f3def2f2020 -->
<g id="edge63" class="edge">
<title>ast.Subscript object at 0x7f3db7d1dcc0&#45;&gt;ast.Load object at 0x7f3def2f2020</title>
<path fill="none" stroke="black" d="M774.46,-143.85C766.49,-134.12 757.67,-121.27 753.5,-108 747.16,-87.84 749.83,-63.92 753.72,-45.96"/>
<polygon fill="black" stroke="black" points="757.15,-46.69 756.1,-36.15 750.34,-45.05 757.15,-46.69"/>
</g>
<!-- ast.Name object at 0x7f3db7d1f820 -->
<g id="node46" class="node">
<title>ast.Name object at 0x7f3db7d1f820</title>
<path fill="#66cdaa" stroke="black" d="M804.5,-108C804.5,-108 774.5,-108 774.5,-108 768.5,-108 762.5,-102 762.5,-96 762.5,-96 762.5,-84 762.5,-84 762.5,-78 768.5,-72 774.5,-72 774.5,-72 804.5,-72 804.5,-72 810.5,-72 816.5,-78 816.5,-84 816.5,-84 816.5,-96 816.5,-96 816.5,-102 810.5,-108 804.5,-108"/>
<text text-anchor="middle" x="789.5" y="-86.3" font-family="Times,serif" font-size="14.00">Name</text>
</g>
<!-- ast.Subscript object at 0x7f3db7d1dcc0&#45;&gt;ast.Name object at 0x7f3db7d1f820 -->
<g id="edge59" class="edge">
<title>ast.Subscript object at 0x7f3db7d1dcc0&#45;&gt;ast.Name object at 0x7f3db7d1f820</title>
<path fill="none" stroke="black" d="M790.25,-143.7C790.14,-135.98 790.01,-126.71 789.89,-118.11"/>
<polygon fill="black" stroke="black" points="793.39,-118.05 789.74,-108.1 786.39,-118.15 793.39,-118.05"/>
</g>
<!-- ast.Name object at 0x7f3db7d1f970 -->
<g id="node47" class="node">
<title>ast.Name object at 0x7f3db7d1f970</title>
<path fill="#66cdaa" stroke="black" d="M876.5,-108C876.5,-108 846.5,-108 846.5,-108 840.5,-108 834.5,-102 834.5,-96 834.5,-96 834.5,-84 834.5,-84 834.5,-78 840.5,-72 846.5,-72 846.5,-72 876.5,-72 876.5,-72 882.5,-72 888.5,-78 888.5,-84 888.5,-84 888.5,-96 888.5,-96 888.5,-102 882.5,-108 876.5,-108"/>
<text text-anchor="middle" x="861.5" y="-86.3" font-family="Times,serif" font-size="14.00">Name</text>
</g>
<!-- ast.Subscript object at 0x7f3db7d1dcc0&#45;&gt;ast.Name object at 0x7f3db7d1f970 -->
<g id="edge61" class="edge">
<title>ast.Subscript object at 0x7f3db7d1dcc0&#45;&gt;ast.Name object at 0x7f3db7d1f970</title>
<path fill="none" stroke="black" d="M808.05,-143.7C816.73,-135.14 827.36,-124.66 836.85,-115.3"/>
<polygon fill="black" stroke="black" points="839.49,-117.62 844.15,-108.1 834.57,-112.63 839.49,-117.62"/>
</g>
<!-- ast.Name object at 0x7f3db7d1f820&#45;&gt;ast.Load object at 0x7f3def2f2020 -->
<g id="edge60" class="edge">
<title>ast.Name object at 0x7f3db7d1f820&#45;&gt;ast.Load object at 0x7f3def2f2020</title>
<path fill="none" stroke="black" d="M782.58,-71.7C779.43,-63.81 775.62,-54.3 772.12,-45.55"/>
<polygon fill="black" stroke="black" points="775.31,-44.09 768.34,-36.1 768.81,-46.69 775.31,-44.09"/>
</g>
<!-- ast.Name object at 0x7f3db7d1f970&#45;&gt;ast.Load object at 0x7f3def2f2020 -->
<g id="edge62" class="edge">
<title>ast.Name object at 0x7f3db7d1f970&#45;&gt;ast.Load object at 0x7f3def2f2020</title>
<path fill="none" stroke="black" d="M837.04,-71.88C824.2,-62.89 808.3,-51.76 794.41,-42.03"/>
<polygon fill="black" stroke="black" points="796.26,-39.06 786.06,-36.19 792.24,-44.79 796.26,-39.06"/>
</g>
<!-- ast.AugAssign object at 0x7f3db7d1cd00&#45;&gt;ast.Add object at 0x7f3def2f2260 -->
<g id="edge68" class="edge">
<title>ast.AugAssign object at 0x7f3db7d1cd00&#45;&gt;ast.Add object at 0x7f3def2f2260</title>
<path fill="none" stroke="black" d="M877.5,-431.7C877.5,-423.98 877.5,-414.71 877.5,-406.11"/>
<polygon fill="black" stroke="black" points="881,-406.1 877.5,-396.1 874,-406.1 881,-406.1"/>
</g>
<!-- ast.Name object at 0x7f3db7d1d840 -->
<g id="node49" class="node">
<title>ast.Name object at 0x7f3db7d1d840</title>
<path fill="#66cdaa" stroke="black" d="M964.5,-396C964.5,-396 934.5,-396 934.5,-396 928.5,-396 922.5,-390 922.5,-384 922.5,-384 922.5,-372 922.5,-372 922.5,-366 928.5,-360 934.5,-360 934.5,-360 964.5,-360 964.5,-360 970.5,-360 976.5,-366 976.5,-372 976.5,-372 976.5,-384 976.5,-384 976.5,-390 970.5,-396 964.5,-396"/>
<text text-anchor="middle" x="949.5" y="-374.3" font-family="Times,serif" font-size="14.00">Name</text>
</g>
<!-- ast.AugAssign object at 0x7f3db7d1cd00&#45;&gt;ast.Name object at 0x7f3db7d1d840 -->
<g id="edge66" class="edge">
<title>ast.AugAssign object at 0x7f3db7d1cd00&#45;&gt;ast.Name object at 0x7f3db7d1d840</title>
<path fill="none" stroke="black" d="M895.3,-431.7C904.1,-423.14 914.88,-412.66 924.5,-403.3"/>
<polygon fill="black" stroke="black" points="927.18,-405.58 931.91,-396.1 922.3,-400.57 927.18,-405.58"/>
</g>
<!-- ast.Constant object at 0x7f3db7d1fd00 -->
<g id="node50" class="node">
<title>ast.Constant object at 0x7f3db7d1fd00</title>
<path fill="#66cdaa" stroke="black" d="M820,-396C820,-396 779,-396 779,-396 773,-396 767,-390 767,-384 767,-384 767,-372 767,-372 767,-366 773,-360 779,-360 779,-360 820,-360 820,-360 826,-360 832,-366 832,-372 832,-372 832,-384 832,-384 832,-390 826,-396 820,-396"/>
<text text-anchor="middle" x="799.5" y="-374.3" font-family="Times,serif" font-size="14.00">Constant</text>
</g>
<!-- ast.AugAssign object at 0x7f3db7d1cd00&#45;&gt;ast.Constant object at 0x7f3db7d1fd00 -->
<g id="edge69" class="edge">
<title>ast.AugAssign object at 0x7f3db7d1cd00&#45;&gt;ast.Constant object at 0x7f3db7d1fd00</title>
<path fill="none" stroke="black" d="M858.22,-431.7C848.58,-423.05 836.77,-412.45 826.27,-403.03"/>
<polygon fill="black" stroke="black" points="828.34,-400.18 818.56,-396.1 823.66,-405.39 828.34,-400.18"/>
</g>
<!-- ast.Name object at 0x7f3db7d1d840&#45;&gt;ast.Store object at 0x7f3def2f2080 -->
<g id="edge67" class="edge">
<title>ast.Name object at 0x7f3db7d1d840&#45;&gt;ast.Store object at 0x7f3def2f2080</title>
<path fill="none" stroke="black" d="M976.64,-362.5C996.32,-351.98 1023.12,-337.66 1044.56,-326.2"/>
<polygon fill="black" stroke="black" points="1046.22,-329.29 1053.39,-321.49 1042.92,-323.11 1046.22,-329.29"/>
</g>
<!-- ast.Name object at 0x7f3db7d1fa00 -->
<g id="node52" class="node">
<title>ast.Name object at 0x7f3db7d1fa00</title>
<path fill="#66cdaa" stroke="black" d="M1148.5,-612C1148.5,-612 1118.5,-612 1118.5,-612 1112.5,-612 1106.5,-606 1106.5,-600 1106.5,-600 1106.5,-588 1106.5,-588 1106.5,-582 1112.5,-576 1118.5,-576 1118.5,-576 1148.5,-576 1148.5,-576 1154.5,-576 1160.5,-582 1160.5,-588 1160.5,-588 1160.5,-600 1160.5,-600 1160.5,-606 1154.5,-612 1148.5,-612"/>
<text text-anchor="middle" x="1133.5" y="-590.3" font-family="Times,serif" font-size="14.00">Name</text>
</g>
<!-- ast.Assign object at 0x7f3db7d1ee30&#45;&gt;ast.Name object at 0x7f3db7d1fa00 -->
<g id="edge71" class="edge">
<title>ast.Assign object at 0x7f3db7d1ee30&#45;&gt;ast.Name object at 0x7f3db7d1fa00</title>
<path fill="none" stroke="black" d="M1133.5,-647.7C1133.5,-639.98 1133.5,-630.71 1133.5,-622.11"/>
<polygon fill="black" stroke="black" points="1137,-622.1 1133.5,-612.1 1130,-622.1 1137,-622.1"/>
</g>
<!-- ast.Constant object at 0x7f3db7d1e9e0 -->
<g id="node53" class="node">
<title>ast.Constant object at 0x7f3db7d1e9e0</title>
<path fill="#66cdaa" stroke="black" d="M1232,-612C1232,-612 1191,-612 1191,-612 1185,-612 1179,-606 1179,-600 1179,-600 1179,-588 1179,-588 1179,-582 1185,-576 1191,-576 1191,-576 1232,-576 1232,-576 1238,-576 1244,-582 1244,-588 1244,-588 1244,-600 1244,-600 1244,-606 1238,-612 1232,-612"/>
<text text-anchor="middle" x="1211.5" y="-590.3" font-family="Times,serif" font-size="14.00">Constant</text>
</g>
<!-- ast.Assign object at 0x7f3db7d1ee30&#45;&gt;ast.Constant object at 0x7f3db7d1e9e0 -->
<g id="edge73" class="edge">
<title>ast.Assign object at 0x7f3db7d1ee30&#45;&gt;ast.Constant object at 0x7f3db7d1e9e0</title>
<path fill="none" stroke="black" d="M1152.78,-647.7C1162.42,-639.05 1174.23,-628.45 1184.73,-619.03"/>
<polygon fill="black" stroke="black" points="1187.34,-621.39 1192.44,-612.1 1182.66,-616.18 1187.34,-621.39"/>
</g>
<!-- ast.Name object at 0x7f3db7d1fa00&#45;&gt;ast.Store object at 0x7f3def2f2080 -->
<g id="edge72" class="edge">
<title>ast.Name object at 0x7f3db7d1fa00&#45;&gt;ast.Store object at 0x7f3def2f2080</title>
<path fill="none" stroke="black" d="M1130.34,-575.97C1121.49,-528.19 1096.37,-392.62 1085.55,-334.27"/>
<polygon fill="black" stroke="black" points="1088.97,-333.5 1083.71,-324.31 1082.09,-334.78 1088.97,-333.5"/>
</g>
<!-- ast.Name object at 0x7f3db7a199c0 -->
<g id="node55" class="node">
<title>ast.Name object at 0x7f3db7a199c0</title>
<path fill="#66cdaa" stroke="black" d="M1276.5,-540C1276.5,-540 1246.5,-540 1246.5,-540 1240.5,-540 1234.5,-534 1234.5,-528 1234.5,-528 1234.5,-516 1234.5,-516 1234.5,-510 1240.5,-504 1246.5,-504 1246.5,-504 1276.5,-504 1276.5,-504 1282.5,-504 1288.5,-510 1288.5,-516 1288.5,-516 1288.5,-528 1288.5,-528 1288.5,-534 1282.5,-540 1276.5,-540"/>
<text text-anchor="middle" x="1261.5" y="-518.3" font-family="Times,serif" font-size="14.00">Name</text>
</g>
<!-- ast.For object at 0x7f3db7d1e050&#45;&gt;ast.Name object at 0x7f3db7a199c0 -->
<g id="edge75" class="edge">
<title>ast.For object at 0x7f3db7d1e050&#45;&gt;ast.Name object at 0x7f3db7a199c0</title>
<path fill="none" stroke="black" d="M1293.87,-575.7C1288.87,-567.56 1282.81,-557.69 1277.29,-548.7"/>
<polygon fill="black" stroke="black" points="1280.22,-546.79 1272.01,-540.1 1274.26,-550.46 1280.22,-546.79"/>
</g>
<!-- ast.Call object at 0x7f3db7a1a6e0 -->
<g id="node56" class="node">
<title>ast.Call object at 0x7f3db7a1a6e0</title>
<path fill="#66cdaa" stroke="black" d="M1310.5,-252C1310.5,-252 1280.5,-252 1280.5,-252 1274.5,-252 1268.5,-246 1268.5,-240 1268.5,-240 1268.5,-228 1268.5,-228 1268.5,-222 1274.5,-216 1280.5,-216 1280.5,-216 1310.5,-216 1310.5,-216 1316.5,-216 1322.5,-222 1322.5,-228 1322.5,-228 1322.5,-240 1322.5,-240 1322.5,-246 1316.5,-252 1310.5,-252"/>
<text text-anchor="middle" x="1295.5" y="-230.3" font-family="Times,serif" font-size="14.00">Call</text>
</g>
<!-- ast.For object at 0x7f3db7d1e050&#45;&gt;ast.Call object at 0x7f3db7a1a6e0 -->
<g id="edge77" class="edge">
<title>ast.For object at 0x7f3db7d1e050&#45;&gt;ast.Call object at 0x7f3db7a1a6e0</title>
<path fill="none" stroke="black" d="M1331.67,-577.1C1345.04,-567.91 1360.24,-555.16 1369.5,-540 1390.59,-505.49 1388.5,-491.45 1388.5,-451 1388.5,-451 1388.5,-451 1388.5,-377 1388.5,-329.32 1351.35,-285.19 1324.02,-259.17"/>
<polygon fill="black" stroke="black" points="1326.32,-256.54 1316.6,-252.32 1321.57,-261.68 1326.32,-256.54"/>
</g>
<!-- ast.If object at 0x7f3db7a18610 -->
<g id="node61" class="node">
<title>ast.If object at 0x7f3db7a18610</title>
<path fill="#66cdaa" stroke="black" d="M1348.5,-540C1348.5,-540 1318.5,-540 1318.5,-540 1312.5,-540 1306.5,-534 1306.5,-528 1306.5,-528 1306.5,-516 1306.5,-516 1306.5,-510 1312.5,-504 1318.5,-504 1318.5,-504 1348.5,-504 1348.5,-504 1354.5,-504 1360.5,-510 1360.5,-516 1360.5,-516 1360.5,-528 1360.5,-528 1360.5,-534 1354.5,-540 1348.5,-540"/>
<text text-anchor="middle" x="1333.5" y="-518.3" font-family="Times,serif" font-size="14.00">If</text>
</g>
<!-- ast.For object at 0x7f3db7d1e050&#45;&gt;ast.If object at 0x7f3db7a18610 -->
<g id="edge85" class="edge">
<title>ast.For object at 0x7f3db7d1e050&#45;&gt;ast.If object at 0x7f3db7a18610</title>
<path fill="none" stroke="black" d="M1311.67,-575.7C1314.93,-567.81 1318.87,-558.3 1322.5,-549.55"/>
<polygon fill="black" stroke="black" points="1325.82,-550.68 1326.41,-540.1 1319.35,-548 1325.82,-550.68"/>
</g>
<!-- ast.Name object at 0x7f3db7a199c0&#45;&gt;ast.Store object at 0x7f3def2f2080 -->
<g id="edge76" class="edge">
<title>ast.Name object at 0x7f3db7a199c0&#45;&gt;ast.Store object at 0x7f3def2f2080</title>
<path fill="none" stroke="black" d="M1272.82,-503.93C1292.35,-472.12 1327.2,-403.11 1293.5,-360 1272.06,-332.57 1172.71,-317.3 1117.59,-310.8"/>
<polygon fill="black" stroke="black" points="1117.85,-307.31 1107.52,-309.65 1117.06,-314.26 1117.85,-307.31"/>
</g>
<!-- ast.Name object at 0x7f3db7a1b1c0 -->
<g id="node57" class="node">
<title>ast.Name object at 0x7f3db7a1b1c0</title>
<path fill="#66cdaa" stroke="black" d="M1233.5,-180C1233.5,-180 1203.5,-180 1203.5,-180 1197.5,-180 1191.5,-174 1191.5,-168 1191.5,-168 1191.5,-156 1191.5,-156 1191.5,-150 1197.5,-144 1203.5,-144 1203.5,-144 1233.5,-144 1233.5,-144 1239.5,-144 1245.5,-150 1245.5,-156 1245.5,-156 1245.5,-168 1245.5,-168 1245.5,-174 1239.5,-180 1233.5,-180"/>
<text text-anchor="middle" x="1218.5" y="-158.3" font-family="Times,serif" font-size="14.00">Name</text>
</g>
<!-- ast.Call object at 0x7f3db7a1a6e0&#45;&gt;ast.Name object at 0x7f3db7a1b1c0 -->
<g id="edge78" class="edge">
<title>ast.Call object at 0x7f3db7a1a6e0&#45;&gt;ast.Name object at 0x7f3db7a1b1c0</title>
<path fill="none" stroke="black" d="M1276.47,-215.7C1266.96,-207.05 1255.29,-196.45 1244.93,-187.03"/>
<polygon fill="black" stroke="black" points="1247.07,-184.24 1237.31,-180.1 1242.36,-189.42 1247.07,-184.24"/>
</g>
<!-- ast.Call object at 0x7f3db7a189d0 -->
<g id="node58" class="node">
<title>ast.Call object at 0x7f3db7a189d0</title>
<path fill="#66cdaa" stroke="black" d="M1310.5,-180C1310.5,-180 1280.5,-180 1280.5,-180 1274.5,-180 1268.5,-174 1268.5,-168 1268.5,-168 1268.5,-156 1268.5,-156 1268.5,-150 1274.5,-144 1280.5,-144 1280.5,-144 1310.5,-144 1310.5,-144 1316.5,-144 1322.5,-150 1322.5,-156 1322.5,-156 1322.5,-168 1322.5,-168 1322.5,-174 1316.5,-180 1310.5,-180"/>
<text text-anchor="middle" x="1295.5" y="-158.3" font-family="Times,serif" font-size="14.00">Call</text>
</g>
<!-- ast.Call object at 0x7f3db7a1a6e0&#45;&gt;ast.Call object at 0x7f3db7a189d0 -->
<g id="edge80" class="edge">
<title>ast.Call object at 0x7f3db7a1a6e0&#45;&gt;ast.Call object at 0x7f3db7a189d0</title>
<path fill="none" stroke="black" d="M1295.5,-215.7C1295.5,-207.98 1295.5,-198.71 1295.5,-190.11"/>
<polygon fill="black" stroke="black" points="1299,-190.1 1295.5,-180.1 1292,-190.1 1299,-190.1"/>
</g>
<!-- ast.Name object at 0x7f3db7a1b1c0&#45;&gt;ast.Load object at 0x7f3def2f2020 -->
<g id="edge79" class="edge">
<title>ast.Name object at 0x7f3db7a1b1c0&#45;&gt;ast.Load object at 0x7f3def2f2020</title>
<path fill="none" stroke="black" d="M1218.95,-143.99C1218.48,-123.58 1214.32,-89.88 1193.5,-72 1134.64,-21.46 892.27,-17.9 798.65,-18.47"/>
<polygon fill="black" stroke="black" points="798.47,-14.97 788.5,-18.55 798.53,-21.97 798.47,-14.97"/>
</g>
<!-- ast.Name object at 0x7f3db7a181f0 -->
<g id="node59" class="node">
<title>ast.Name object at 0x7f3db7a181f0</title>
<path fill="#66cdaa" stroke="black" d="M1282.5,-108C1282.5,-108 1252.5,-108 1252.5,-108 1246.5,-108 1240.5,-102 1240.5,-96 1240.5,-96 1240.5,-84 1240.5,-84 1240.5,-78 1246.5,-72 1252.5,-72 1252.5,-72 1282.5,-72 1282.5,-72 1288.5,-72 1294.5,-78 1294.5,-84 1294.5,-84 1294.5,-96 1294.5,-96 1294.5,-102 1288.5,-108 1282.5,-108"/>
<text text-anchor="middle" x="1267.5" y="-86.3" font-family="Times,serif" font-size="14.00">Name</text>
</g>
<!-- ast.Call object at 0x7f3db7a189d0&#45;&gt;ast.Name object at 0x7f3db7a181f0 -->
<g id="edge81" class="edge">
<title>ast.Call object at 0x7f3db7a189d0&#45;&gt;ast.Name object at 0x7f3db7a181f0</title>
<path fill="none" stroke="black" d="M1288.58,-143.7C1285.43,-135.81 1281.62,-126.3 1278.12,-117.55"/>
<polygon fill="black" stroke="black" points="1281.31,-116.09 1274.34,-108.1 1274.81,-118.69 1281.31,-116.09"/>
</g>
<!-- ast.Name object at 0x7f3db7a185e0 -->
<g id="node60" class="node">
<title>ast.Name object at 0x7f3db7a185e0</title>
<path fill="#66cdaa" stroke="black" d="M1354.5,-108C1354.5,-108 1324.5,-108 1324.5,-108 1318.5,-108 1312.5,-102 1312.5,-96 1312.5,-96 1312.5,-84 1312.5,-84 1312.5,-78 1318.5,-72 1324.5,-72 1324.5,-72 1354.5,-72 1354.5,-72 1360.5,-72 1366.5,-78 1366.5,-84 1366.5,-84 1366.5,-96 1366.5,-96 1366.5,-102 1360.5,-108 1354.5,-108"/>
<text text-anchor="middle" x="1339.5" y="-86.3" font-family="Times,serif" font-size="14.00">Name</text>
</g>
<!-- ast.Call object at 0x7f3db7a189d0&#45;&gt;ast.Name object at 0x7f3db7a185e0 -->
<g id="edge83" class="edge">
<title>ast.Call object at 0x7f3db7a189d0&#45;&gt;ast.Name object at 0x7f3db7a185e0</title>
<path fill="none" stroke="black" d="M1306.38,-143.7C1311.49,-135.56 1317.7,-125.69 1323.34,-116.7"/>
<polygon fill="black" stroke="black" points="1326.39,-118.43 1328.75,-108.1 1320.46,-114.71 1326.39,-118.43"/>
</g>
<!-- ast.Name object at 0x7f3db7a181f0&#45;&gt;ast.Load object at 0x7f3def2f2020 -->
<g id="edge82" class="edge">
<title>ast.Name object at 0x7f3db7a181f0&#45;&gt;ast.Load object at 0x7f3def2f2020</title>
<path fill="none" stroke="black" d="M1240.07,-76.4C1235.61,-74.71 1230.98,-73.16 1226.5,-72 1071.05,-31.76 878.49,-22.07 798.76,-19.73"/>
<polygon fill="black" stroke="black" points="798.8,-16.23 788.71,-19.46 798.62,-23.23 798.8,-16.23"/>
</g>
<!-- ast.Name object at 0x7f3db7a185e0&#45;&gt;ast.Load object at 0x7f3def2f2020 -->
<g id="edge84" class="edge">
<title>ast.Name object at 0x7f3db7a185e0&#45;&gt;ast.Load object at 0x7f3def2f2020</title>
<path fill="none" stroke="black" d="M1312.36,-75C1309.42,-73.84 1306.43,-72.81 1303.5,-72 1119.15,-21.11 887.74,-17.55 798.73,-18.3"/>
<polygon fill="black" stroke="black" points="798.56,-14.8 788.6,-18.41 798.63,-21.8 798.56,-14.8"/>
</g>
<!-- ast.Compare object at 0x7f3db7a19600 -->
<g id="node62" class="node">
<title>ast.Compare object at 0x7f3db7a19600</title>
<path fill="#66cdaa" stroke="black" d="M1302,-324C1302,-324 1259,-324 1259,-324 1253,-324 1247,-318 1247,-312 1247,-312 1247,-300 1247,-300 1247,-294 1253,-288 1259,-288 1259,-288 1302,-288 1302,-288 1308,-288 1314,-294 1314,-300 1314,-300 1314,-312 1314,-312 1314,-318 1308,-324 1302,-324"/>
<text text-anchor="middle" x="1280.5" y="-302.3" font-family="Times,serif" font-size="14.00">Compare</text>
</g>
<!-- ast.If object at 0x7f3db7a18610&#45;&gt;ast.Compare object at 0x7f3db7a19600 -->
<g id="edge86" class="edge">
<title>ast.If object at 0x7f3db7a18610&#45;&gt;ast.Compare object at 0x7f3db7a19600</title>
<path fill="none" stroke="black" d="M1336.33,-503.78C1340.56,-473.47 1346.07,-409.12 1326.5,-360 1322.33,-349.54 1315.17,-339.72 1307.73,-331.44"/>
<polygon fill="black" stroke="black" points="1310.05,-328.8 1300.59,-324.01 1305,-333.65 1310.05,-328.8"/>
</g>
<!-- ast.AugAssign object at 0x7f3db7a19a50 -->
<g id="node70" class="node">
<title>ast.AugAssign object at 0x7f3db7a19a50</title>
<path fill="#66cdaa" stroke="black" d="M1242,-468C1242,-468 1189,-468 1189,-468 1183,-468 1177,-462 1177,-456 1177,-456 1177,-444 1177,-444 1177,-438 1183,-432 1189,-432 1189,-432 1242,-432 1242,-432 1248,-432 1254,-438 1254,-444 1254,-444 1254,-456 1254,-456 1254,-462 1248,-468 1242,-468"/>
<text text-anchor="middle" x="1215.5" y="-446.3" font-family="Times,serif" font-size="14.00">AugAssign</text>
</g>
<!-- ast.If object at 0x7f3db7a18610&#45;&gt;ast.AugAssign object at 0x7f3db7a19a50 -->
<g id="edge98" class="edge">
<title>ast.If object at 0x7f3db7a18610&#45;&gt;ast.AugAssign object at 0x7f3db7a19a50</title>
<path fill="none" stroke="black" d="M1306.43,-504.94C1290.67,-495.59 1270.56,-483.66 1253.26,-473.4"/>
<polygon fill="black" stroke="black" points="1254.89,-470.3 1244.51,-468.21 1251.32,-476.32 1254.89,-470.3"/>
</g>
<!-- ast.Call object at 0x7f3db7a196f0 -->
<g id="node63" class="node">
<title>ast.Call object at 0x7f3db7a196f0</title>
<path fill="#66cdaa" stroke="black" d="M1199.5,-252C1199.5,-252 1169.5,-252 1169.5,-252 1163.5,-252 1157.5,-246 1157.5,-240 1157.5,-240 1157.5,-228 1157.5,-228 1157.5,-222 1163.5,-216 1169.5,-216 1169.5,-216 1199.5,-216 1199.5,-216 1205.5,-216 1211.5,-222 1211.5,-228 1211.5,-228 1211.5,-240 1211.5,-240 1211.5,-246 1205.5,-252 1199.5,-252"/>
<text text-anchor="middle" x="1184.5" y="-230.3" font-family="Times,serif" font-size="14.00">Call</text>
</g>
<!-- ast.Compare object at 0x7f3db7a19600&#45;&gt;ast.Call object at 0x7f3db7a196f0 -->
<g id="edge87" class="edge">
<title>ast.Compare object at 0x7f3db7a19600&#45;&gt;ast.Call object at 0x7f3db7a196f0</title>
<path fill="none" stroke="black" d="M1256.77,-287.7C1244.56,-278.8 1229.51,-267.82 1216.32,-258.2"/>
<polygon fill="black" stroke="black" points="1218.1,-255.17 1207.96,-252.1 1213.98,-260.82 1218.1,-255.17"/>
</g>
<!-- ast.GtE object at 0x7f3def2f2b30 -->
<g id="node68" class="node">
<title>ast.GtE object at 0x7f3def2f2b30</title>
<path fill="#66cdaa" stroke="black" d="M1465.5,-252C1465.5,-252 1435.5,-252 1435.5,-252 1429.5,-252 1423.5,-246 1423.5,-240 1423.5,-240 1423.5,-228 1423.5,-228 1423.5,-222 1429.5,-216 1435.5,-216 1435.5,-216 1465.5,-216 1465.5,-216 1471.5,-216 1477.5,-222 1477.5,-228 1477.5,-228 1477.5,-240 1477.5,-240 1477.5,-246 1471.5,-252 1465.5,-252"/>
<text text-anchor="middle" x="1450.5" y="-230.3" font-family="Times,serif" font-size="14.00">GtE</text>
</g>
<!-- ast.Compare object at 0x7f3db7a19600&#45;&gt;ast.GtE object at 0x7f3def2f2b30 -->
<g id="edge96" class="edge">
<title>ast.Compare object at 0x7f3db7a19600&#45;&gt;ast.GtE object at 0x7f3def2f2b30</title>
<path fill="none" stroke="black" d="M1314.06,-292.42C1339.29,-282.8 1374.87,-268.92 1413.99,-252.1"/>
<polygon fill="black" stroke="black" points="1415.67,-255.18 1423.46,-248 1412.89,-248.76 1415.67,-255.18"/>
</g>
<!-- ast.Constant object at 0x7f3db7a1aec0 -->
<g id="node69" class="node">
<title>ast.Constant object at 0x7f3db7a1aec0</title>
<path fill="#66cdaa" stroke="black" d="M1127,-252C1127,-252 1086,-252 1086,-252 1080,-252 1074,-246 1074,-240 1074,-240 1074,-228 1074,-228 1074,-222 1080,-216 1086,-216 1086,-216 1127,-216 1127,-216 1133,-216 1139,-222 1139,-228 1139,-228 1139,-240 1139,-240 1139,-246 1133,-252 1127,-252"/>
<text text-anchor="middle" x="1106.5" y="-230.3" font-family="Times,serif" font-size="14.00">Constant</text>
</g>
<!-- ast.Compare object at 0x7f3db7a19600&#45;&gt;ast.Constant object at 0x7f3db7a1aec0 -->
<g id="edge97" class="edge">
<title>ast.Compare object at 0x7f3db7a19600&#45;&gt;ast.Constant object at 0x7f3db7a1aec0</title>
<path fill="none" stroke="black" d="M1246.85,-291.52C1220.17,-280.82 1181.94,-265.48 1148.5,-252 1148.4,-251.96 1148.31,-251.92 1148.21,-251.88"/>
<polygon fill="black" stroke="black" points="1149.64,-248.69 1139.06,-248.19 1147.02,-255.18 1149.64,-248.69"/>
</g>
<!-- ast.Name object at 0x7f3db7a1bee0 -->
<g id="node64" class="node">
<title>ast.Name object at 0x7f3db7a1bee0</title>
<path fill="#66cdaa" stroke="black" d="M1036.5,-180C1036.5,-180 1006.5,-180 1006.5,-180 1000.5,-180 994.5,-174 994.5,-168 994.5,-168 994.5,-156 994.5,-156 994.5,-150 1000.5,-144 1006.5,-144 1006.5,-144 1036.5,-144 1036.5,-144 1042.5,-144 1048.5,-150 1048.5,-156 1048.5,-156 1048.5,-168 1048.5,-168 1048.5,-174 1042.5,-180 1036.5,-180"/>
<text text-anchor="middle" x="1021.5" y="-158.3" font-family="Times,serif" font-size="14.00">Name</text>
</g>
<!-- ast.Call object at 0x7f3db7a196f0&#45;&gt;ast.Name object at 0x7f3db7a1bee0 -->
<g id="edge88" class="edge">
<title>ast.Call object at 0x7f3db7a196f0&#45;&gt;ast.Name object at 0x7f3db7a1bee0</title>
<path fill="none" stroke="black" d="M1157.43,-220.06C1154.43,-218.67 1151.41,-217.29 1148.5,-216 1118.3,-202.58 1083.66,-188.19 1058.19,-177.79"/>
<polygon fill="black" stroke="black" points="1059.49,-174.54 1048.91,-174.01 1056.85,-181.02 1059.49,-174.54"/>
</g>
<!-- ast.Subscript object at 0x7f3db7a19420 -->
<g id="node65" class="node">
<title>ast.Subscript object at 0x7f3db7a19420</title>
<path fill="#66cdaa" stroke="black" d="M1150.5,-180C1150.5,-180 1106.5,-180 1106.5,-180 1100.5,-180 1094.5,-174 1094.5,-168 1094.5,-168 1094.5,-156 1094.5,-156 1094.5,-150 1100.5,-144 1106.5,-144 1106.5,-144 1150.5,-144 1150.5,-144 1156.5,-144 1162.5,-150 1162.5,-156 1162.5,-156 1162.5,-168 1162.5,-168 1162.5,-174 1156.5,-180 1150.5,-180"/>
<text text-anchor="middle" x="1128.5" y="-158.3" font-family="Times,serif" font-size="14.00">Subscript</text>
</g>
<!-- ast.Call object at 0x7f3db7a196f0&#45;&gt;ast.Subscript object at 0x7f3db7a19420 -->
<g id="edge90" class="edge">
<title>ast.Call object at 0x7f3db7a196f0&#45;&gt;ast.Subscript object at 0x7f3db7a19420</title>
<path fill="none" stroke="black" d="M1170.66,-215.7C1164.01,-207.39 1155.92,-197.28 1148.61,-188.14"/>
<polygon fill="black" stroke="black" points="1151.16,-185.73 1142.18,-180.1 1145.7,-190.1 1151.16,-185.73"/>
</g>
<!-- ast.Name object at 0x7f3db7a1bee0&#45;&gt;ast.Load object at 0x7f3def2f2020 -->
<g id="edge89" class="edge">
<title>ast.Name object at 0x7f3db7a1bee0&#45;&gt;ast.Load object at 0x7f3def2f2020</title>
<path fill="none" stroke="black" d="M1015.86,-143.82C1008.32,-123.55 992.98,-90.31 968.5,-72 918.03,-34.25 843.39,-23.27 798.88,-20.14"/>
<polygon fill="black" stroke="black" points="798.98,-16.64 788.79,-19.53 798.56,-23.63 798.98,-16.64"/>
</g>
<!-- ast.Subscript object at 0x7f3db7a19420&#45;&gt;ast.Load object at 0x7f3def2f2020 -->
<g id="edge95" class="edge">
<title>ast.Subscript object at 0x7f3db7a19420&#45;&gt;ast.Load object at 0x7f3def2f2020</title>
<path fill="none" stroke="black" d="M1102.82,-143.91C1087.34,-133.57 1067.24,-120.09 1049.5,-108 1026.27,-92.17 1023.24,-83.29 997.5,-72 931,-42.84 846.66,-28.89 798.92,-22.91"/>
<polygon fill="black" stroke="black" points="799.09,-19.4 788.74,-21.69 798.25,-26.35 799.09,-19.4"/>
</g>
<!-- ast.Name object at 0x7f3db7a18850 -->
<g id="node66" class="node">
<title>ast.Name object at 0x7f3db7a18850</title>
<path fill="#66cdaa" stroke="black" d="M1100.5,-108C1100.5,-108 1070.5,-108 1070.5,-108 1064.5,-108 1058.5,-102 1058.5,-96 1058.5,-96 1058.5,-84 1058.5,-84 1058.5,-78 1064.5,-72 1070.5,-72 1070.5,-72 1100.5,-72 1100.5,-72 1106.5,-72 1112.5,-78 1112.5,-84 1112.5,-84 1112.5,-96 1112.5,-96 1112.5,-102 1106.5,-108 1100.5,-108"/>
<text text-anchor="middle" x="1085.5" y="-86.3" font-family="Times,serif" font-size="14.00">Name</text>
</g>
<!-- ast.Subscript object at 0x7f3db7a19420&#45;&gt;ast.Name object at 0x7f3db7a18850 -->
<g id="edge91" class="edge">
<title>ast.Subscript object at 0x7f3db7a19420&#45;&gt;ast.Name object at 0x7f3db7a18850</title>
<path fill="none" stroke="black" d="M1117.87,-143.7C1112.87,-135.56 1106.81,-125.69 1101.29,-116.7"/>
<polygon fill="black" stroke="black" points="1104.22,-114.79 1096.01,-108.1 1098.26,-118.46 1104.22,-114.79"/>
</g>
<!-- ast.Name object at 0x7f3db7a1abf0 -->
<g id="node67" class="node">
<title>ast.Name object at 0x7f3db7a1abf0</title>
<path fill="#66cdaa" stroke="black" d="M1172.5,-108C1172.5,-108 1142.5,-108 1142.5,-108 1136.5,-108 1130.5,-102 1130.5,-96 1130.5,-96 1130.5,-84 1130.5,-84 1130.5,-78 1136.5,-72 1142.5,-72 1142.5,-72 1172.5,-72 1172.5,-72 1178.5,-72 1184.5,-78 1184.5,-84 1184.5,-84 1184.5,-96 1184.5,-96 1184.5,-102 1178.5,-108 1172.5,-108"/>
<text text-anchor="middle" x="1157.5" y="-86.3" font-family="Times,serif" font-size="14.00">Name</text>
</g>
<!-- ast.Subscript object at 0x7f3db7a19420&#45;&gt;ast.Name object at 0x7f3db7a1abf0 -->
<g id="edge93" class="edge">
<title>ast.Subscript object at 0x7f3db7a19420&#45;&gt;ast.Name object at 0x7f3db7a1abf0</title>
<path fill="none" stroke="black" d="M1135.67,-143.7C1138.93,-135.81 1142.87,-126.3 1146.5,-117.55"/>
<polygon fill="black" stroke="black" points="1149.82,-118.68 1150.41,-108.1 1143.35,-116 1149.82,-118.68"/>
</g>
<!-- ast.Name object at 0x7f3db7a18850&#45;&gt;ast.Load object at 0x7f3def2f2020 -->
<g id="edge92" class="edge">
<title>ast.Name object at 0x7f3db7a18850&#45;&gt;ast.Load object at 0x7f3def2f2020</title>
<path fill="none" stroke="black" d="M1058.44,-76.85C1053.85,-75.06 1049.08,-73.36 1044.5,-72 958.3,-46.36 853.49,-30.58 798.8,-23.47"/>
<polygon fill="black" stroke="black" points="799.23,-20 788.87,-22.2 798.35,-26.94 799.23,-20"/>
</g>
<!-- ast.Name object at 0x7f3db7a1abf0&#45;&gt;ast.Load object at 0x7f3def2f2020 -->
<g id="edge94" class="edge">
<title>ast.Name object at 0x7f3db7a1abf0&#45;&gt;ast.Load object at 0x7f3def2f2020</title>
<path fill="none" stroke="black" d="M1130.31,-75.15C1127.38,-73.96 1124.41,-72.88 1121.5,-72 1007.23,-37.44 865.49,-25.02 799.11,-20.89"/>
<polygon fill="black" stroke="black" points="798.93,-17.37 788.74,-20.27 798.51,-24.36 798.93,-17.37"/>
</g>
<!-- ast.AugAssign object at 0x7f3db7a19a50&#45;&gt;ast.Add object at 0x7f3def2f2260 -->
<g id="edge101" class="edge">
<title>ast.AugAssign object at 0x7f3db7a19a50&#45;&gt;ast.Add object at 0x7f3def2f2260</title>
<path fill="none" stroke="black" d="M1176.57,-445.53C1120.15,-439.77 1012.55,-426.08 914.48,-395.85"/>
<polygon fill="black" stroke="black" points="915.3,-392.44 904.71,-392.77 913.2,-399.12 915.3,-392.44"/>
</g>
<!-- ast.Name object at 0x7f3db7a1abc0 -->
<g id="node71" class="node">
<title>ast.Name object at 0x7f3db7a1abc0</title>
<path fill="#66cdaa" stroke="black" d="M1188.5,-396C1188.5,-396 1158.5,-396 1158.5,-396 1152.5,-396 1146.5,-390 1146.5,-384 1146.5,-384 1146.5,-372 1146.5,-372 1146.5,-366 1152.5,-360 1158.5,-360 1158.5,-360 1188.5,-360 1188.5,-360 1194.5,-360 1200.5,-366 1200.5,-372 1200.5,-372 1200.5,-384 1200.5,-384 1200.5,-390 1194.5,-396 1188.5,-396"/>
<text text-anchor="middle" x="1173.5" y="-374.3" font-family="Times,serif" font-size="14.00">Name</text>
</g>
<!-- ast.AugAssign object at 0x7f3db7a19a50&#45;&gt;ast.Name object at 0x7f3db7a1abc0 -->
<g id="edge99" class="edge">
<title>ast.AugAssign object at 0x7f3db7a19a50&#45;&gt;ast.Name object at 0x7f3db7a1abc0</title>
<path fill="none" stroke="black" d="M1205.12,-431.7C1200.24,-423.56 1194.31,-413.69 1188.92,-404.7"/>
<polygon fill="black" stroke="black" points="1191.91,-402.88 1183.76,-396.1 1185.91,-406.48 1191.91,-402.88"/>
</g>
<!-- ast.Constant object at 0x7f3db7a19a20 -->
<g id="node72" class="node">
<title>ast.Constant object at 0x7f3db7a19a20</title>
<path fill="#66cdaa" stroke="black" d="M1272,-396C1272,-396 1231,-396 1231,-396 1225,-396 1219,-390 1219,-384 1219,-384 1219,-372 1219,-372 1219,-366 1225,-360 1231,-360 1231,-360 1272,-360 1272,-360 1278,-360 1284,-366 1284,-372 1284,-372 1284,-384 1284,-384 1284,-390 1278,-396 1272,-396"/>
<text text-anchor="middle" x="1251.5" y="-374.3" font-family="Times,serif" font-size="14.00">Constant</text>
</g>
<!-- ast.AugAssign object at 0x7f3db7a19a50&#45;&gt;ast.Constant object at 0x7f3db7a19a20 -->
<g id="edge102" class="edge">
<title>ast.AugAssign object at 0x7f3db7a19a50&#45;&gt;ast.Constant object at 0x7f3db7a19a20</title>
<path fill="none" stroke="black" d="M1224.4,-431.7C1228.5,-423.73 1233.45,-414.1 1237.99,-405.26"/>
<polygon fill="black" stroke="black" points="1241.24,-406.6 1242.7,-396.1 1235.02,-403.4 1241.24,-406.6"/>
</g>
<!-- ast.Name object at 0x7f3db7a1abc0&#45;&gt;ast.Store object at 0x7f3def2f2080 -->
<g id="edge100" class="edge">
<title>ast.Name object at 0x7f3db7a1abc0&#45;&gt;ast.Store object at 0x7f3def2f2080</title>
<path fill="none" stroke="black" d="M1150.51,-359.7C1138.69,-350.8 1124.11,-339.82 1111.32,-330.2"/>
<polygon fill="black" stroke="black" points="1113.32,-327.32 1103.22,-324.1 1109.11,-332.91 1113.32,-327.32"/>
</g>
<!-- ast.BoolOp object at 0x7f3db7a19a80 -->
<g id="node74" class="node">
<title>ast.BoolOp object at 0x7f3db7a19a80</title>
<path fill="#66cdaa" stroke="black" d="M1507,-396C1507,-396 1472,-396 1472,-396 1466,-396 1460,-390 1460,-384 1460,-384 1460,-372 1460,-372 1460,-366 1466,-360 1472,-360 1472,-360 1507,-360 1507,-360 1513,-360 1519,-366 1519,-372 1519,-372 1519,-384 1519,-384 1519,-390 1513,-396 1507,-396"/>
<text text-anchor="middle" x="1489.5" y="-374.3" font-family="Times,serif" font-size="14.00">BoolOp</text>
</g>
<!-- ast.Return object at 0x7f3db7a19150&#45;&gt;ast.BoolOp object at 0x7f3db7a19a80 -->
<g id="edge104" class="edge">
<title>ast.Return object at 0x7f3db7a19150&#45;&gt;ast.BoolOp object at 0x7f3db7a19a80</title>
<path fill="none" stroke="black" d="M1394.52,-647.97C1411.42,-600.09 1459.46,-464.06 1480,-405.9"/>
<polygon fill="black" stroke="black" points="1483.36,-406.9 1483.39,-396.31 1476.76,-404.57 1483.36,-406.9"/>
</g>
<!-- ast.And object at 0x7f3def2f2170 -->
<g id="node75" class="node">
<title>ast.And object at 0x7f3def2f2170</title>
<path fill="#66cdaa" stroke="black" d="M1544.5,-324C1544.5,-324 1514.5,-324 1514.5,-324 1508.5,-324 1502.5,-318 1502.5,-312 1502.5,-312 1502.5,-300 1502.5,-300 1502.5,-294 1508.5,-288 1514.5,-288 1514.5,-288 1544.5,-288 1544.5,-288 1550.5,-288 1556.5,-294 1556.5,-300 1556.5,-300 1556.5,-312 1556.5,-312 1556.5,-318 1550.5,-324 1544.5,-324"/>
<text text-anchor="middle" x="1529.5" y="-302.3" font-family="Times,serif" font-size="14.00">And</text>
</g>
<!-- ast.BoolOp object at 0x7f3db7a19a80&#45;&gt;ast.And object at 0x7f3def2f2170 -->
<g id="edge105" class="edge">
<title>ast.BoolOp object at 0x7f3db7a19a80&#45;&gt;ast.And object at 0x7f3def2f2170</title>
<path fill="none" stroke="black" d="M1499.39,-359.7C1503.99,-351.64 1509.56,-341.89 1514.65,-332.98"/>
<polygon fill="black" stroke="black" points="1517.8,-334.52 1519.73,-324.1 1511.73,-331.05 1517.8,-334.52"/>
</g>
<!-- ast.Compare object at 0x7f3db7a1bac0 -->
<g id="node76" class="node">
<title>ast.Compare object at 0x7f3db7a1bac0</title>
<path fill="#66cdaa" stroke="black" d="M1630,-324C1630,-324 1587,-324 1587,-324 1581,-324 1575,-318 1575,-312 1575,-312 1575,-300 1575,-300 1575,-294 1581,-288 1587,-288 1587,-288 1630,-288 1630,-288 1636,-288 1642,-294 1642,-300 1642,-300 1642,-312 1642,-312 1642,-318 1636,-324 1630,-324"/>
<text text-anchor="middle" x="1608.5" y="-302.3" font-family="Times,serif" font-size="14.00">Compare</text>
</g>
<!-- ast.BoolOp object at 0x7f3db7a19a80&#45;&gt;ast.Compare object at 0x7f3db7a1bac0 -->
<g id="edge106" class="edge">
<title>ast.BoolOp object at 0x7f3db7a19a80&#45;&gt;ast.Compare object at 0x7f3db7a1bac0</title>
<path fill="none" stroke="black" d="M1518.61,-359.88C1534.17,-350.72 1553.52,-339.34 1570.28,-329.48"/>
<polygon fill="black" stroke="black" points="1572.43,-332.28 1579.28,-324.19 1568.88,-326.24 1572.43,-332.28"/>
</g>
<!-- ast.Compare object at 0x7f3db77fdfc0 -->
<g id="node79" class="node">
<title>ast.Compare object at 0x7f3db77fdfc0</title>
<path fill="#66cdaa" stroke="black" d="M1472,-324C1472,-324 1429,-324 1429,-324 1423,-324 1417,-318 1417,-312 1417,-312 1417,-300 1417,-300 1417,-294 1423,-288 1429,-288 1429,-288 1472,-288 1472,-288 1478,-288 1484,-294 1484,-300 1484,-300 1484,-312 1484,-312 1484,-318 1478,-324 1472,-324"/>
<text text-anchor="middle" x="1450.5" y="-302.3" font-family="Times,serif" font-size="14.00">Compare</text>
</g>
<!-- ast.BoolOp object at 0x7f3db7a19a80&#45;&gt;ast.Compare object at 0x7f3db77fdfc0 -->
<g id="edge111" class="edge">
<title>ast.BoolOp object at 0x7f3db7a19a80&#45;&gt;ast.Compare object at 0x7f3db77fdfc0</title>
<path fill="none" stroke="black" d="M1479.86,-359.7C1475.37,-351.64 1469.94,-341.89 1464.98,-332.98"/>
<polygon fill="black" stroke="black" points="1467.95,-331.14 1460.03,-324.1 1461.84,-334.54 1467.95,-331.14"/>
</g>
<!-- ast.Compare object at 0x7f3db7a1bac0&#45;&gt;ast.GtE object at 0x7f3def2f2b30 -->
<g id="edge109" class="edge">
<title>ast.Compare object at 0x7f3db7a1bac0&#45;&gt;ast.GtE object at 0x7f3def2f2b30</title>
<path fill="none" stroke="black" d="M1574.79,-290.42C1550.47,-279.87 1516.9,-265.19 1487.5,-252 1487.3,-251.91 1487.1,-251.82 1486.89,-251.73"/>
<polygon fill="black" stroke="black" points="1488.11,-248.43 1477.55,-247.5 1485.22,-254.81 1488.11,-248.43"/>
</g>
<!-- ast.Name object at 0x7f3db7a1ae00 -->
<g id="node77" class="node">
<title>ast.Name object at 0x7f3db7a1ae00</title>
<path fill="#66cdaa" stroke="black" d="M1621.5,-252C1621.5,-252 1591.5,-252 1591.5,-252 1585.5,-252 1579.5,-246 1579.5,-240 1579.5,-240 1579.5,-228 1579.5,-228 1579.5,-222 1585.5,-216 1591.5,-216 1591.5,-216 1621.5,-216 1621.5,-216 1627.5,-216 1633.5,-222 1633.5,-228 1633.5,-228 1633.5,-240 1633.5,-240 1633.5,-246 1627.5,-252 1621.5,-252"/>
<text text-anchor="middle" x="1606.5" y="-230.3" font-family="Times,serif" font-size="14.00">Name</text>
</g>
<!-- ast.Compare object at 0x7f3db7a1bac0&#45;&gt;ast.Name object at 0x7f3db7a1ae00 -->
<g id="edge107" class="edge">
<title>ast.Compare object at 0x7f3db7a1bac0&#45;&gt;ast.Name object at 0x7f3db7a1ae00</title>
<path fill="none" stroke="black" d="M1608.01,-287.7C1607.79,-279.98 1607.52,-270.71 1607.27,-262.11"/>
<polygon fill="black" stroke="black" points="1610.77,-262 1606.99,-252.1 1603.78,-262.2 1610.77,-262"/>
</g>
<!-- ast.Constant object at 0x7f3db77fc910 -->
<g id="node78" class="node">
<title>ast.Constant object at 0x7f3db77fc910</title>
<path fill="#66cdaa" stroke="black" d="M1705,-252C1705,-252 1664,-252 1664,-252 1658,-252 1652,-246 1652,-240 1652,-240 1652,-228 1652,-228 1652,-222 1658,-216 1664,-216 1664,-216 1705,-216 1705,-216 1711,-216 1717,-222 1717,-228 1717,-228 1717,-240 1717,-240 1717,-246 1711,-252 1705,-252"/>
<text text-anchor="middle" x="1684.5" y="-230.3" font-family="Times,serif" font-size="14.00">Constant</text>
</g>
<!-- ast.Compare object at 0x7f3db7a1bac0&#45;&gt;ast.Constant object at 0x7f3db77fc910 -->
<g id="edge110" class="edge">
<title>ast.Compare object at 0x7f3db7a1bac0&#45;&gt;ast.Constant object at 0x7f3db77fc910</title>
<path fill="none" stroke="black" d="M1627.29,-287.7C1636.67,-279.05 1648.18,-268.45 1658.41,-259.03"/>
<polygon fill="black" stroke="black" points="1660.95,-261.45 1665.93,-252.1 1656.2,-256.3 1660.95,-261.45"/>
</g>
<!-- ast.Name object at 0x7f3db7a1ae00&#45;&gt;ast.Load object at 0x7f3def2f2020 -->
<g id="edge108" class="edge">
<title>ast.Name object at 0x7f3db7a1ae00&#45;&gt;ast.Load object at 0x7f3def2f2020</title>
<path fill="none" stroke="black" d="M1591.33,-215.96C1559.53,-181.58 1481.92,-104.44 1398.5,-72 1287.94,-29.01 917.76,-20.86 798.71,-19.34"/>
<polygon fill="black" stroke="black" points="798.68,-15.84 788.63,-19.22 798.59,-22.84 798.68,-15.84"/>
</g>
<!-- ast.Compare object at 0x7f3db77fdfc0&#45;&gt;ast.GtE object at 0x7f3def2f2b30 -->
<g id="edge114" class="edge">
<title>ast.Compare object at 0x7f3db77fdfc0&#45;&gt;ast.GtE object at 0x7f3def2f2b30</title>
<path fill="none" stroke="black" d="M1450.5,-287.7C1450.5,-279.98 1450.5,-270.71 1450.5,-262.11"/>
<polygon fill="black" stroke="black" points="1454,-262.1 1450.5,-252.1 1447,-262.1 1454,-262.1"/>
</g>
<!-- ast.Name object at 0x7f3db77fd120 -->
<g id="node80" class="node">
<title>ast.Name object at 0x7f3db77fd120</title>
<path fill="#66cdaa" stroke="black" d="M1393.5,-252C1393.5,-252 1363.5,-252 1363.5,-252 1357.5,-252 1351.5,-246 1351.5,-240 1351.5,-240 1351.5,-228 1351.5,-228 1351.5,-222 1357.5,-216 1363.5,-216 1363.5,-216 1393.5,-216 1393.5,-216 1399.5,-216 1405.5,-222 1405.5,-228 1405.5,-228 1405.5,-240 1405.5,-240 1405.5,-246 1399.5,-252 1393.5,-252"/>
<text text-anchor="middle" x="1378.5" y="-230.3" font-family="Times,serif" font-size="14.00">Name</text>
</g>
<!-- ast.Compare object at 0x7f3db77fdfc0&#45;&gt;ast.Name object at 0x7f3db77fd120 -->
<g id="edge112" class="edge">
<title>ast.Compare object at 0x7f3db77fdfc0&#45;&gt;ast.Name object at 0x7f3db77fd120</title>
<path fill="none" stroke="black" d="M1432.7,-287.7C1423.9,-279.14 1413.12,-268.66 1403.5,-259.3"/>
<polygon fill="black" stroke="black" points="1405.7,-256.57 1396.09,-252.1 1400.82,-261.58 1405.7,-256.57"/>
</g>
<!-- ast.Constant object at 0x7f3db77fe8c0 -->
<g id="node81" class="node">
<title>ast.Constant object at 0x7f3db77fe8c0</title>
<path fill="#66cdaa" stroke="black" d="M1549,-252C1549,-252 1508,-252 1508,-252 1502,-252 1496,-246 1496,-240 1496,-240 1496,-228 1496,-228 1496,-222 1502,-216 1508,-216 1508,-216 1549,-216 1549,-216 1555,-216 1561,-222 1561,-228 1561,-228 1561,-240 1561,-240 1561,-246 1555,-252 1549,-252"/>
<text text-anchor="middle" x="1528.5" y="-230.3" font-family="Times,serif" font-size="14.00">Constant</text>
</g>
<!-- ast.Compare object at 0x7f3db77fdfc0&#45;&gt;ast.Constant object at 0x7f3db77fe8c0 -->
<g id="edge115" class="edge">
<title>ast.Compare object at 0x7f3db77fdfc0&#45;&gt;ast.Constant object at 0x7f3db77fe8c0</title>
<path fill="none" stroke="black" d="M1469.78,-287.7C1479.42,-279.05 1491.23,-268.45 1501.73,-259.03"/>
<polygon fill="black" stroke="black" points="1504.34,-261.39 1509.44,-252.1 1499.66,-256.18 1504.34,-261.39"/>
</g>
<!-- ast.Name object at 0x7f3db77fd120&#45;&gt;ast.Load object at 0x7f3def2f2020 -->
<g id="edge113" class="edge">
<title>ast.Name object at 0x7f3db77fd120&#45;&gt;ast.Load object at 0x7f3def2f2020</title>
<path fill="none" stroke="black" d="M1384.66,-215.96C1395.25,-183.28 1412.44,-111.52 1375.5,-72 1336.02,-29.76 925.4,-21.06 798.59,-19.38"/>
<polygon fill="black" stroke="black" points="798.63,-15.88 788.58,-19.26 798.54,-22.88 798.63,-15.88"/>
</g>
</g>
</svg>
