<?xml version="1.0" encoding="UTF-8" standalone="no"?>
<!DOCTYPE svg PUBLIC "-//W3C//DTD SVG 1.1//EN"
 "http://www.w3.org/Graphics/SVG/1.1/DTD/svg11.dtd">
<!-- Generated by graphviz version 2.43.0 (0)
 -->
<!-- Title: %3 Pages: 1 -->
<svg width="412pt" height="476pt"
 viewBox="0.00 0.00 412.13 476.00" xmlns="http://www.w3.org/2000/svg" xmlns:xlink="http://www.w3.org/1999/xlink">
<g id="graph0" class="graph" transform="scale(1 1) rotate(0) translate(4 472)">
<title>%3</title>
<polygon fill="white" stroke="transparent" points="-4,4 -4,-472 408.13,-472 408.13,4 -4,4"/>
<!-- ast.Module object at 0x7fe4149c6170 -->
<g id="node1" class="node">
<title>ast.Module object at 0x7fe4149c6170</title>
<path fill="#66cdaa" stroke="black" d="M210.5,-468C210.5,-468 175.5,-468 175.5,-468 169.5,-468 163.5,-462 163.5,-456 163.5,-456 163.5,-444 163.5,-444 163.5,-438 169.5,-432 175.5,-432 175.5,-432 210.5,-432 210.5,-432 216.5,-432 222.5,-438 222.5,-444 222.5,-444 222.5,-456 222.5,-456 222.5,-462 216.5,-468 210.5,-468"/>
<text text-anchor="middle" x="193" y="-446.3" font-family="Times,serif" font-size="14.00">Module</text>
</g>
<!-- ast.FunctionDef object at 0x7fe4149c5750 -->
<g id="node2" class="node">
<title>ast.FunctionDef object at 0x7fe4149c5750</title>
<path fill="#66cdaa" stroke="black" d="M223.5,-396C223.5,-396 162.5,-396 162.5,-396 156.5,-396 150.5,-390 150.5,-384 150.5,-384 150.5,-372 150.5,-372 150.5,-366 156.5,-360 162.5,-360 162.5,-360 223.5,-360 223.5,-360 229.5,-360 235.5,-366 235.5,-372 235.5,-372 235.5,-384 235.5,-384 235.5,-390 229.5,-396 223.5,-396"/>
<text text-anchor="middle" x="193" y="-374.3" font-family="Times,serif" font-size="14.00">FunctionDef</text>
</g>
<!-- ast.Module object at 0x7fe4149c6170&#45;&gt;ast.FunctionDef object at 0x7fe4149c5750 -->
<g id="edge1" class="edge">
<title>ast.Module object at 0x7fe4149c6170&#45;&gt;ast.FunctionDef object at 0x7fe4149c5750</title>
<path fill="none" stroke="black" d="M193,-431.7C193,-423.98 193,-414.71 193,-406.11"/>
<polygon fill="black" stroke="black" points="196.5,-406.1 193,-396.1 189.5,-406.1 196.5,-406.1"/>
</g>
<!-- ast.arguments object at 0x7fe4145608b0 -->
<g id="node3" class="node">
<title>ast.arguments object at 0x7fe4145608b0</title>
<path fill="#66cdaa" stroke="black" d="M116,-324C116,-324 66,-324 66,-324 60,-324 54,-318 54,-312 54,-312 54,-300 54,-300 54,-294 60,-288 66,-288 66,-288 116,-288 116,-288 122,-288 128,-294 128,-300 128,-300 128,-312 128,-312 128,-318 122,-324 116,-324"/>
<text text-anchor="middle" x="91" y="-302.3" font-family="Times,serif" font-size="14.00">arguments</text>
</g>
<!-- ast.FunctionDef object at 0x7fe4149c5750&#45;&gt;ast.arguments object at 0x7fe4145608b0 -->
<g id="edge2" class="edge">
<title>ast.FunctionDef object at 0x7fe4149c5750&#45;&gt;ast.arguments object at 0x7fe4145608b0</title>
<path fill="none" stroke="black" d="M168.05,-359.88C154.96,-350.89 138.74,-339.76 124.56,-330.03"/>
<polygon fill="black" stroke="black" points="126.27,-326.96 116.05,-324.19 122.31,-332.73 126.27,-326.96"/>
</g>
<!-- ast.Return object at 0x7fe4144715d0 -->
<g id="node7" class="node">
<title>ast.Return object at 0x7fe4144715d0</title>
<path fill="#66cdaa" stroke="black" d="M208,-324C208,-324 178,-324 178,-324 172,-324 166,-318 166,-312 166,-312 166,-300 166,-300 166,-294 172,-288 178,-288 178,-288 208,-288 208,-288 214,-288 220,-294 220,-300 220,-300 220,-312 220,-312 220,-318 214,-324 208,-324"/>
<text text-anchor="middle" x="193" y="-302.3" font-family="Times,serif" font-size="14.00">Return</text>
</g>
<!-- ast.FunctionDef object at 0x7fe4149c5750&#45;&gt;ast.Return object at 0x7fe4144715d0 -->
<g id="edge6" class="edge">
<title>ast.FunctionDef object at 0x7fe4149c5750&#45;&gt;ast.Return object at 0x7fe4144715d0</title>
<path fill="none" stroke="black" d="M193,-359.7C193,-351.98 193,-342.71 193,-334.11"/>
<polygon fill="black" stroke="black" points="196.5,-334.1 193,-324.1 189.5,-334.1 196.5,-334.1"/>
</g>
<!-- ast.Name object at 0x7fe414472530 -->
<g id="node16" class="node">
<title>ast.Name object at 0x7fe414472530</title>
<path fill="#66cdaa" stroke="black" d="M352,-252C352,-252 322,-252 322,-252 316,-252 310,-246 310,-240 310,-240 310,-228 310,-228 310,-222 316,-216 322,-216 322,-216 352,-216 352,-216 358,-216 364,-222 364,-228 364,-228 364,-240 364,-240 364,-246 358,-252 352,-252"/>
<text text-anchor="middle" x="337" y="-230.3" font-family="Times,serif" font-size="14.00">Name</text>
</g>
<!-- ast.FunctionDef object at 0x7fe4149c5750&#45;&gt;ast.Name object at 0x7fe414472530 -->
<g id="edge17" class="edge">
<title>ast.FunctionDef object at 0x7fe4149c5750&#45;&gt;ast.Name object at 0x7fe414472530</title>
<path fill="none" stroke="black" d="M210.37,-359.87C235.78,-334.82 283.2,-288.05 312.25,-259.41"/>
<polygon fill="black" stroke="black" points="314.91,-261.7 319.57,-252.19 309.99,-256.72 314.91,-261.7"/>
</g>
<!-- ast.arg object at 0x7fe414562d70 -->
<g id="node4" class="node">
<title>ast.arg object at 0x7fe414562d70</title>
<path fill="#66cdaa" stroke="black" d="M67,-252C67,-252 37,-252 37,-252 31,-252 25,-246 25,-240 25,-240 25,-228 25,-228 25,-222 31,-216 37,-216 37,-216 67,-216 67,-216 73,-216 79,-222 79,-228 79,-228 79,-240 79,-240 79,-246 73,-252 67,-252"/>
<text text-anchor="middle" x="52" y="-230.3" font-family="Times,serif" font-size="14.00">arg</text>
</g>
<!-- ast.arguments object at 0x7fe4145608b0&#45;&gt;ast.arg object at 0x7fe414562d70 -->
<g id="edge3" class="edge">
<title>ast.arguments object at 0x7fe4145608b0&#45;&gt;ast.arg object at 0x7fe414562d70</title>
<path fill="none" stroke="black" d="M81.36,-287.7C76.87,-279.64 71.44,-269.89 66.48,-260.98"/>
<polygon fill="black" stroke="black" points="69.45,-259.14 61.53,-252.1 63.34,-262.54 69.45,-259.14"/>
</g>
<!-- ast.Name object at 0x7fe412caa230 -->
<g id="node5" class="node">
<title>ast.Name object at 0x7fe412caa230</title>
<path fill="#66cdaa" stroke="black" d="M42,-180C42,-180 12,-180 12,-180 6,-180 0,-174 0,-168 0,-168 0,-156 0,-156 0,-150 6,-144 12,-144 12,-144 42,-144 42,-144 48,-144 54,-150 54,-156 54,-156 54,-168 54,-168 54,-174 48,-180 42,-180"/>
<text text-anchor="middle" x="27" y="-158.3" font-family="Times,serif" font-size="14.00">Name</text>
</g>
<!-- ast.arg object at 0x7fe414562d70&#45;&gt;ast.Name object at 0x7fe412caa230 -->
<g id="edge4" class="edge">
<title>ast.arg object at 0x7fe414562d70&#45;&gt;ast.Name object at 0x7fe412caa230</title>
<path fill="none" stroke="black" d="M45.82,-215.7C43,-207.81 39.61,-198.3 36.48,-189.55"/>
<polygon fill="black" stroke="black" points="39.77,-188.34 33.11,-180.1 33.18,-190.7 39.77,-188.34"/>
</g>
<!-- ast.Load object at 0x7fe4183edf60 -->
<g id="node6" class="node">
<title>ast.Load object at 0x7fe4183edf60</title>
<path fill="#66cdaa" stroke="black" d="M102,-36C102,-36 72,-36 72,-36 66,-36 60,-30 60,-24 60,-24 60,-12 60,-12 60,-6 66,0 72,0 72,0 102,0 102,0 108,0 114,-6 114,-12 114,-12 114,-24 114,-24 114,-30 108,-36 102,-36"/>
<text text-anchor="middle" x="87" y="-14.3" font-family="Times,serif" font-size="14.00">Load</text>
</g>
<!-- ast.Name object at 0x7fe412caa230&#45;&gt;ast.Load object at 0x7fe4183edf60 -->
<g id="edge5" class="edge">
<title>ast.Name object at 0x7fe412caa230&#45;&gt;ast.Load object at 0x7fe4183edf60</title>
<path fill="none" stroke="black" d="M34.24,-143.87C44.55,-119.46 63.58,-74.43 75.75,-45.64"/>
<polygon fill="black" stroke="black" points="79.07,-46.76 79.74,-36.19 72.62,-44.04 79.07,-46.76"/>
</g>
<!-- ast.Call object at 0x7fe414470fd0 -->
<g id="node8" class="node">
<title>ast.Call object at 0x7fe414470fd0</title>
<path fill="#66cdaa" stroke="black" d="M208,-252C208,-252 178,-252 178,-252 172,-252 166,-246 166,-240 166,-240 166,-228 166,-228 166,-222 172,-216 178,-216 178,-216 208,-216 208,-216 214,-216 220,-222 220,-228 220,-228 220,-240 220,-240 220,-246 214,-252 208,-252"/>
<text text-anchor="middle" x="193" y="-230.3" font-family="Times,serif" font-size="14.00">Call</text>
</g>
<!-- ast.Return object at 0x7fe4144715d0&#45;&gt;ast.Call object at 0x7fe414470fd0 -->
<g id="edge7" class="edge">
<title>ast.Return object at 0x7fe4144715d0&#45;&gt;ast.Call object at 0x7fe414470fd0</title>
<path fill="none" stroke="black" d="M193,-287.7C193,-279.98 193,-270.71 193,-262.11"/>
<polygon fill="black" stroke="black" points="196.5,-262.1 193,-252.1 189.5,-262.1 196.5,-262.1"/>
</g>
<!-- ast.Attribute object at 0x7fe414473700 -->
<g id="node9" class="node">
<title>ast.Attribute object at 0x7fe414473700</title>
<path fill="#66cdaa" stroke="black" d="M130.5,-180C130.5,-180 89.5,-180 89.5,-180 83.5,-180 77.5,-174 77.5,-168 77.5,-168 77.5,-156 77.5,-156 77.5,-150 83.5,-144 89.5,-144 89.5,-144 130.5,-144 130.5,-144 136.5,-144 142.5,-150 142.5,-156 142.5,-156 142.5,-168 142.5,-168 142.5,-174 136.5,-180 130.5,-180"/>
<text text-anchor="middle" x="110" y="-158.3" font-family="Times,serif" font-size="14.00">Attribute</text>
</g>
<!-- ast.Call object at 0x7fe414470fd0&#45;&gt;ast.Attribute object at 0x7fe414473700 -->
<g id="edge8" class="edge">
<title>ast.Call object at 0x7fe414470fd0&#45;&gt;ast.Attribute object at 0x7fe414473700</title>
<path fill="none" stroke="black" d="M172.48,-215.7C162.13,-206.97 149.41,-196.24 138.16,-186.75"/>
<polygon fill="black" stroke="black" points="140.18,-183.88 130.28,-180.1 135.67,-189.23 140.18,-183.88"/>
</g>
<!-- ast.Constant object at 0x7fe4144722c0 -->
<g id="node11" class="node">
<title>ast.Constant object at 0x7fe4144722c0</title>
<path fill="#66cdaa" stroke="black" d="M213.5,-180C213.5,-180 172.5,-180 172.5,-180 166.5,-180 160.5,-174 160.5,-168 160.5,-168 160.5,-156 160.5,-156 160.5,-150 166.5,-144 172.5,-144 172.5,-144 213.5,-144 213.5,-144 219.5,-144 225.5,-150 225.5,-156 225.5,-156 225.5,-168 225.5,-168 225.5,-174 219.5,-180 213.5,-180"/>
<text text-anchor="middle" x="193" y="-158.3" font-family="Times,serif" font-size="14.00">Constant</text>
</g>
<!-- ast.Call object at 0x7fe414470fd0&#45;&gt;ast.Constant object at 0x7fe4144722c0 -->
<g id="edge12" class="edge">
<title>ast.Call object at 0x7fe414470fd0&#45;&gt;ast.Constant object at 0x7fe4144722c0</title>
<path fill="none" stroke="black" d="M193,-215.7C193,-207.98 193,-198.71 193,-190.11"/>
<polygon fill="black" stroke="black" points="196.5,-190.1 193,-180.1 189.5,-190.1 196.5,-190.1"/>
</g>
<!-- ast.BinOp object at 0x7fe414471900 -->
<g id="node12" class="node">
<title>ast.BinOp object at 0x7fe414471900</title>
<path fill="#66cdaa" stroke="black" d="M286,-180C286,-180 256,-180 256,-180 250,-180 244,-174 244,-168 244,-168 244,-156 244,-156 244,-150 250,-144 256,-144 256,-144 286,-144 286,-144 292,-144 298,-150 298,-156 298,-156 298,-168 298,-168 298,-174 292,-180 286,-180"/>
<text text-anchor="middle" x="271" y="-158.3" font-family="Times,serif" font-size="14.00">BinOp</text>
</g>
<!-- ast.Call object at 0x7fe414470fd0&#45;&gt;ast.BinOp object at 0x7fe414471900 -->
<g id="edge13" class="edge">
<title>ast.Call object at 0x7fe414470fd0&#45;&gt;ast.BinOp object at 0x7fe414471900</title>
<path fill="none" stroke="black" d="M212.28,-215.7C221.92,-207.05 233.73,-196.45 244.23,-187.03"/>
<polygon fill="black" stroke="black" points="246.84,-189.39 251.94,-180.1 242.16,-184.18 246.84,-189.39"/>
</g>
<!-- ast.Attribute object at 0x7fe414473700&#45;&gt;ast.Load object at 0x7fe4183edf60 -->
<g id="edge11" class="edge">
<title>ast.Attribute object at 0x7fe414473700&#45;&gt;ast.Load object at 0x7fe4183edf60</title>
<path fill="none" stroke="black" d="M96.85,-143.91C90.08,-134.01 82.51,-120.96 79,-108 73.47,-87.6 76.09,-63.7 79.76,-45.81"/>
<polygon fill="black" stroke="black" points="83.17,-46.57 81.98,-36.04 76.35,-45.01 83.17,-46.57"/>
</g>
<!-- ast.Name object at 0x7fe414470790 -->
<g id="node10" class="node">
<title>ast.Name object at 0x7fe414470790</title>
<path fill="#66cdaa" stroke="black" d="M130,-108C130,-108 100,-108 100,-108 94,-108 88,-102 88,-96 88,-96 88,-84 88,-84 88,-78 94,-72 100,-72 100,-72 130,-72 130,-72 136,-72 142,-78 142,-84 142,-84 142,-96 142,-96 142,-102 136,-108 130,-108"/>
<text text-anchor="middle" x="115" y="-86.3" font-family="Times,serif" font-size="14.00">Name</text>
</g>
<!-- ast.Attribute object at 0x7fe414473700&#45;&gt;ast.Name object at 0x7fe414470790 -->
<g id="edge9" class="edge">
<title>ast.Attribute object at 0x7fe414473700&#45;&gt;ast.Name object at 0x7fe414470790</title>
<path fill="none" stroke="black" d="M111.24,-143.7C111.79,-135.98 112.45,-126.71 113.06,-118.11"/>
<polygon fill="black" stroke="black" points="116.56,-118.33 113.78,-108.1 109.57,-117.83 116.56,-118.33"/>
</g>
<!-- ast.Name object at 0x7fe414470790&#45;&gt;ast.Load object at 0x7fe4183edf60 -->
<g id="edge10" class="edge">
<title>ast.Name object at 0x7fe414470790&#45;&gt;ast.Load object at 0x7fe4183edf60</title>
<path fill="none" stroke="black" d="M108.08,-71.7C104.93,-63.81 101.12,-54.3 97.62,-45.55"/>
<polygon fill="black" stroke="black" points="100.81,-44.09 93.84,-36.1 94.31,-46.69 100.81,-44.09"/>
</g>
<!-- ast.Constant object at 0x7fe414471630 -->
<g id="node13" class="node">
<title>ast.Constant object at 0x7fe414471630</title>
<path fill="#66cdaa" stroke="black" d="M213.5,-108C213.5,-108 172.5,-108 172.5,-108 166.5,-108 160.5,-102 160.5,-96 160.5,-96 160.5,-84 160.5,-84 160.5,-78 166.5,-72 172.5,-72 172.5,-72 213.5,-72 213.5,-72 219.5,-72 225.5,-78 225.5,-84 225.5,-84 225.5,-96 225.5,-96 225.5,-102 219.5,-108 213.5,-108"/>
<text text-anchor="middle" x="193" y="-86.3" font-family="Times,serif" font-size="14.00">Constant</text>
</g>
<!-- ast.BinOp object at 0x7fe414471900&#45;&gt;ast.Constant object at 0x7fe414471630 -->
<g id="edge14" class="edge">
<title>ast.BinOp object at 0x7fe414471900&#45;&gt;ast.Constant object at 0x7fe414471630</title>
<path fill="none" stroke="black" d="M251.72,-143.7C242.08,-135.05 230.27,-124.45 219.77,-115.03"/>
<polygon fill="black" stroke="black" points="221.84,-112.18 212.06,-108.1 217.16,-117.39 221.84,-112.18"/>
</g>
<!-- ast.Add object at 0x7fe4183ee1a0 -->
<g id="node14" class="node">
<title>ast.Add object at 0x7fe4183ee1a0</title>
<path fill="#66cdaa" stroke="black" d="M286,-108C286,-108 256,-108 256,-108 250,-108 244,-102 244,-96 244,-96 244,-84 244,-84 244,-78 250,-72 256,-72 256,-72 286,-72 286,-72 292,-72 298,-78 298,-84 298,-84 298,-96 298,-96 298,-102 292,-108 286,-108"/>
<text text-anchor="middle" x="271" y="-86.3" font-family="Times,serif" font-size="14.00">Add</text>
</g>
<!-- ast.BinOp object at 0x7fe414471900&#45;&gt;ast.Add object at 0x7fe4183ee1a0 -->
<g id="edge15" class="edge">
<title>ast.BinOp object at 0x7fe414471900&#45;&gt;ast.Add object at 0x7fe4183ee1a0</title>
<path fill="none" stroke="black" d="M271,-143.7C271,-135.98 271,-126.71 271,-118.11"/>
<polygon fill="black" stroke="black" points="274.5,-118.1 271,-108.1 267.5,-118.1 274.5,-118.1"/>
</g>
<!-- ast.Constant object at 0x7fe414470a60 -->
<g id="node15" class="node">
<title>ast.Constant object at 0x7fe414470a60</title>
<path fill="#66cdaa" stroke="black" d="M369.5,-108C369.5,-108 328.5,-108 328.5,-108 322.5,-108 316.5,-102 316.5,-96 316.5,-96 316.5,-84 316.5,-84 316.5,-78 322.5,-72 328.5,-72 328.5,-72 369.5,-72 369.5,-72 375.5,-72 381.5,-78 381.5,-84 381.5,-84 381.5,-96 381.5,-96 381.5,-102 375.5,-108 369.5,-108"/>
<text text-anchor="middle" x="349" y="-86.3" font-family="Times,serif" font-size="14.00">Constant</text>
</g>
<!-- ast.BinOp object at 0x7fe414471900&#45;&gt;ast.Constant object at 0x7fe414470a60 -->
<g id="edge16" class="edge">
<title>ast.BinOp object at 0x7fe414471900&#45;&gt;ast.Constant object at 0x7fe414470a60</title>
<path fill="none" stroke="black" d="M290.28,-143.7C299.92,-135.05 311.73,-124.45 322.23,-115.03"/>
<polygon fill="black" stroke="black" points="324.84,-117.39 329.94,-108.1 320.16,-112.18 324.84,-117.39"/>
</g>
<!-- ast.Name object at 0x7fe414472530&#45;&gt;ast.Load object at 0x7fe4183edf60 -->
<g id="edge18" class="edge">
<title>ast.Name object at 0x7fe414472530&#45;&gt;ast.Load object at 0x7fe4183edf60</title>
<path fill="none" stroke="black" d="M352.27,-215.97C378.84,-184.23 427.43,-115.33 391,-72 357.32,-31.94 197.96,-22.16 124.39,-19.77"/>
<polygon fill="black" stroke="black" points="124.28,-16.26 114.18,-19.47 124.07,-23.26 124.28,-16.26"/>
</g>
</g>
</svg>
