<?xml version="1.0" encoding="UTF-8" standalone="no"?>
<!DOCTYPE svg PUBLIC "-//W3C//DTD SVG 1.1//EN"
 "http://www.w3.org/Graphics/SVG/1.1/DTD/svg11.dtd">
<!-- Generated by graphviz version 2.43.0 (0)
 -->
<!-- Title: %3 Pages: 1 -->
<svg width="221pt" height="404pt"
 viewBox="0.00 0.00 220.50 404.00" xmlns="http://www.w3.org/2000/svg" xmlns:xlink="http://www.w3.org/1999/xlink">
<g id="graph0" class="graph" transform="scale(1 1) rotate(0) translate(4 400)">
<title>%3</title>
<polygon fill="white" stroke="transparent" points="-4,4 -4,-400 216.5,-400 216.5,4 -4,4"/>
<!-- ast.Module object at 0x7f73ab3f5690 -->
<g id="node1" class="node">
<title>ast.Module object at 0x7f73ab3f5690</title>
<path fill="#66cdaa" stroke="black" d="M119,-396C119,-396 73,-396 73,-396 67,-396 61,-390 61,-384 61,-384 61,-372 61,-372 61,-366 67,-360 73,-360 73,-360 119,-360 119,-360 125,-360 131,-366 131,-372 131,-372 131,-384 131,-384 131,-390 125,-396 119,-396"/>
<text text-anchor="middle" x="96" y="-374.3" font-family="Times,serif" font-size="14.00">Module</text>
</g>
<!-- ast.FunctionDef object at 0x7f73ab3f4610 -->
<g id="node2" class="node">
<title>ast.FunctionDef object at 0x7f73ab3f4610</title>
<path fill="#66cdaa" stroke="black" d="M136,-324C136,-324 56,-324 56,-324 50,-324 44,-318 44,-312 44,-312 44,-300 44,-300 44,-294 50,-288 56,-288 56,-288 136,-288 136,-288 142,-288 148,-294 148,-300 148,-300 148,-312 148,-312 148,-318 142,-324 136,-324"/>
<text text-anchor="middle" x="96" y="-302.3" font-family="Times,serif" font-size="14.00">FunctionDef</text>
</g>
<!-- ast.Module object at 0x7f73ab3f5690&#45;&gt;ast.FunctionDef object at 0x7f73ab3f4610 -->
<g id="edge1" class="edge">
<title>ast.Module object at 0x7f73ab3f5690&#45;&gt;ast.FunctionDef object at 0x7f73ab3f4610</title>
<path fill="none" stroke="black" d="M96,-359.7C96,-351.98 96,-342.71 96,-334.11"/>
<polygon fill="black" stroke="black" points="99.5,-334.1 96,-324.1 92.5,-334.1 99.5,-334.1"/>
</g>
<!-- ast.arguments object at 0x7f73ab3f5360 -->
<g id="node3" class="node">
<title>ast.arguments object at 0x7f73ab3f5360</title>
<path fill="#66cdaa" stroke="black" d="M82,-252C82,-252 12,-252 12,-252 6,-252 0,-246 0,-240 0,-240 0,-228 0,-228 0,-222 6,-216 12,-216 12,-216 82,-216 82,-216 88,-216 94,-222 94,-228 94,-228 94,-240 94,-240 94,-246 88,-252 82,-252"/>
<text text-anchor="middle" x="47" y="-230.3" font-family="Times,serif" font-size="14.00">arguments</text>
</g>
<!-- ast.FunctionDef object at 0x7f73ab3f4610&#45;&gt;ast.arguments object at 0x7f73ab3f5360 -->
<g id="edge2" class="edge">
<title>ast.FunctionDef object at 0x7f73ab3f4610&#45;&gt;ast.arguments object at 0x7f73ab3f5360</title>
<path fill="none" stroke="black" d="M83.89,-287.7C78.13,-279.47 71.14,-269.48 64.79,-260.42"/>
<polygon fill="black" stroke="black" points="67.58,-258.29 58.97,-252.1 61.84,-262.3 67.58,-258.29"/>
</g>
<!-- ast.Return object at 0x7f73ab3f4070 -->
<g id="node5" class="node">
<title>ast.Return object at 0x7f73ab3f4070</title>
<path fill="#66cdaa" stroke="black" d="M166,-252C166,-252 124,-252 124,-252 118,-252 112,-246 112,-240 112,-240 112,-228 112,-228 112,-222 118,-216 124,-216 124,-216 166,-216 166,-216 172,-216 178,-222 178,-228 178,-228 178,-240 178,-240 178,-246 172,-252 166,-252"/>
<text text-anchor="middle" x="145" y="-230.3" font-family="Times,serif" font-size="14.00">Return</text>
</g>
<!-- ast.FunctionDef object at 0x7f73ab3f4610&#45;&gt;ast.Return object at 0x7f73ab3f4070 -->
<g id="edge4" class="edge">
<title>ast.FunctionDef object at 0x7f73ab3f4610&#45;&gt;ast.Return object at 0x7f73ab3f4070</title>
<path fill="none" stroke="black" d="M108.11,-287.7C113.87,-279.47 120.86,-269.48 127.21,-260.42"/>
<polygon fill="black" stroke="black" points="130.16,-262.3 133.03,-252.1 124.42,-258.29 130.16,-262.3"/>
</g>
<!-- ast.arg object at 0x7f73ab3f79a0 -->
<g id="node4" class="node">
<title>ast.arg object at 0x7f73ab3f79a0</title>
<path fill="#66cdaa" stroke="black" d="M62,-180C62,-180 32,-180 32,-180 26,-180 20,-174 20,-168 20,-168 20,-156 20,-156 20,-150 26,-144 32,-144 32,-144 62,-144 62,-144 68,-144 74,-150 74,-156 74,-156 74,-168 74,-168 74,-174 68,-180 62,-180"/>
<text text-anchor="middle" x="47" y="-158.3" font-family="Times,serif" font-size="14.00">arg</text>
</g>
<!-- ast.arguments object at 0x7f73ab3f5360&#45;&gt;ast.arg object at 0x7f73ab3f79a0 -->
<g id="edge3" class="edge">
<title>ast.arguments object at 0x7f73ab3f5360&#45;&gt;ast.arg object at 0x7f73ab3f79a0</title>
<path fill="none" stroke="black" d="M47,-215.7C47,-207.98 47,-198.71 47,-190.11"/>
<polygon fill="black" stroke="black" points="50.5,-190.1 47,-180.1 43.5,-190.1 50.5,-190.1"/>
</g>
<!-- ast.Call object at 0x7f73ab3f4310 -->
<g id="node6" class="node">
<title>ast.Call object at 0x7f73ab3f4310</title>
<path fill="#66cdaa" stroke="black" d="M160,-180C160,-180 130,-180 130,-180 124,-180 118,-174 118,-168 118,-168 118,-156 118,-156 118,-150 124,-144 130,-144 130,-144 160,-144 160,-144 166,-144 172,-150 172,-156 172,-156 172,-168 172,-168 172,-174 166,-180 160,-180"/>
<text text-anchor="middle" x="145" y="-158.3" font-family="Times,serif" font-size="14.00">Call</text>
</g>
<!-- ast.Return object at 0x7f73ab3f4070&#45;&gt;ast.Call object at 0x7f73ab3f4310 -->
<g id="edge5" class="edge">
<title>ast.Return object at 0x7f73ab3f4070&#45;&gt;ast.Call object at 0x7f73ab3f4310</title>
<path fill="none" stroke="black" d="M145,-215.7C145,-207.98 145,-198.71 145,-190.11"/>
<polygon fill="black" stroke="black" points="148.5,-190.1 145,-180.1 141.5,-190.1 148.5,-190.1"/>
</g>
<!-- ast.Name object at 0x7f73ab3f4730 -->
<g id="node7" class="node">
<title>ast.Name object at 0x7f73ab3f4730</title>
<path fill="#66cdaa" stroke="black" d="M123.5,-108C123.5,-108 88.5,-108 88.5,-108 82.5,-108 76.5,-102 76.5,-96 76.5,-96 76.5,-84 76.5,-84 76.5,-78 82.5,-72 88.5,-72 88.5,-72 123.5,-72 123.5,-72 129.5,-72 135.5,-78 135.5,-84 135.5,-84 135.5,-96 135.5,-96 135.5,-102 129.5,-108 123.5,-108"/>
<text text-anchor="middle" x="106" y="-86.3" font-family="Times,serif" font-size="14.00">Name</text>
</g>
<!-- ast.Call object at 0x7f73ab3f4310&#45;&gt;ast.Name object at 0x7f73ab3f4730 -->
<g id="edge6" class="edge">
<title>ast.Call object at 0x7f73ab3f4310&#45;&gt;ast.Name object at 0x7f73ab3f4730</title>
<path fill="none" stroke="black" d="M135.36,-143.7C130.87,-135.64 125.44,-125.89 120.48,-116.98"/>
<polygon fill="black" stroke="black" points="123.45,-115.14 115.53,-108.1 117.34,-118.54 123.45,-115.14"/>
</g>
<!-- ast.Name object at 0x7f73ab3f65f0 -->
<g id="node9" class="node">
<title>ast.Name object at 0x7f73ab3f65f0</title>
<path fill="#66cdaa" stroke="black" d="M200.5,-108C200.5,-108 165.5,-108 165.5,-108 159.5,-108 153.5,-102 153.5,-96 153.5,-96 153.5,-84 153.5,-84 153.5,-78 159.5,-72 165.5,-72 165.5,-72 200.5,-72 200.5,-72 206.5,-72 212.5,-78 212.5,-84 212.5,-84 212.5,-96 212.5,-96 212.5,-102 206.5,-108 200.5,-108"/>
<text text-anchor="middle" x="183" y="-86.3" font-family="Times,serif" font-size="14.00">Name</text>
</g>
<!-- ast.Call object at 0x7f73ab3f4310&#45;&gt;ast.Name object at 0x7f73ab3f65f0 -->
<g id="edge8" class="edge">
<title>ast.Call object at 0x7f73ab3f4310&#45;&gt;ast.Name object at 0x7f73ab3f65f0</title>
<path fill="none" stroke="black" d="M154.39,-143.7C158.76,-135.64 164.06,-125.89 168.9,-116.98"/>
<polygon fill="black" stroke="black" points="172.02,-118.56 173.71,-108.1 165.87,-115.22 172.02,-118.56"/>
</g>
<!-- ast.Load object at 0x7f73d80ad690 -->
<g id="node8" class="node">
<title>ast.Load object at 0x7f73d80ad690</title>
<path fill="#66cdaa" stroke="black" d="M159,-36C159,-36 129,-36 129,-36 123,-36 117,-30 117,-24 117,-24 117,-12 117,-12 117,-6 123,0 129,0 129,0 159,0 159,0 165,0 171,-6 171,-12 171,-12 171,-24 171,-24 171,-30 165,-36 159,-36"/>
<text text-anchor="middle" x="144" y="-14.3" font-family="Times,serif" font-size="14.00">Load</text>
</g>
<!-- ast.Name object at 0x7f73ab3f4730&#45;&gt;ast.Load object at 0x7f73d80ad690 -->
<g id="edge7" class="edge">
<title>ast.Name object at 0x7f73ab3f4730&#45;&gt;ast.Load object at 0x7f73d80ad690</title>
<path fill="none" stroke="black" d="M115.39,-71.7C119.76,-63.64 125.06,-53.89 129.9,-44.98"/>
<polygon fill="black" stroke="black" points="133.02,-46.56 134.71,-36.1 126.87,-43.22 133.02,-46.56"/>
</g>
<!-- ast.Name object at 0x7f73ab3f65f0&#45;&gt;ast.Load object at 0x7f73d80ad690 -->
<g id="edge9" class="edge">
<title>ast.Name object at 0x7f73ab3f65f0&#45;&gt;ast.Load object at 0x7f73d80ad690</title>
<path fill="none" stroke="black" d="M173.36,-71.7C168.87,-63.64 163.44,-53.89 158.48,-44.98"/>
<polygon fill="black" stroke="black" points="161.45,-43.14 153.53,-36.1 155.34,-46.54 161.45,-43.14"/>
</g>
</g>
</svg>
