<?xml version="1.0" encoding="UTF-8" standalone="no"?>
<!DOCTYPE svg PUBLIC "-//W3C//DTD SVG 1.1//EN"
 "http://www.w3.org/Graphics/SVG/1.1/DTD/svg11.dtd">
<!-- Generated by graphviz version 2.43.0 (0)
 -->
<!-- Title: %3 Pages: 1 -->
<svg width="773pt" height="548pt"
 viewBox="0.00 0.00 772.50 548.00" xmlns="http://www.w3.org/2000/svg" xmlns:xlink="http://www.w3.org/1999/xlink">
<g id="graph0" class="graph" transform="scale(1 1) rotate(0) translate(4 544)">
<title>%3</title>
<polygon fill="white" stroke="transparent" points="-4,4 -4,-544 768.5,-544 768.5,4 -4,4"/>
<!-- ast.Module object at 0x7fb24c79ba90 -->
<g id="node1" class="node">
<title>ast.Module object at 0x7fb24c79ba90</title>
<path fill="#66cdaa" stroke="black" d="M296,-540C296,-540 261,-540 261,-540 255,-540 249,-534 249,-528 249,-528 249,-516 249,-516 249,-510 255,-504 261,-504 261,-504 296,-504 296,-504 302,-504 308,-510 308,-516 308,-516 308,-528 308,-528 308,-534 302,-540 296,-540"/>
<text text-anchor="middle" x="278.5" y="-518.3" font-family="Times,serif" font-size="14.00">Module</text>
</g>
<!-- ast.FunctionDef object at 0x7fb24c79afe0 -->
<g id="node2" class="node">
<title>ast.FunctionDef object at 0x7fb24c79afe0</title>
<path fill="#66cdaa" stroke="black" d="M309,-468C309,-468 248,-468 248,-468 242,-468 236,-462 236,-456 236,-456 236,-444 236,-444 236,-438 242,-432 248,-432 248,-432 309,-432 309,-432 315,-432 321,-438 321,-444 321,-444 321,-456 321,-456 321,-462 315,-468 309,-468"/>
<text text-anchor="middle" x="278.5" y="-446.3" font-family="Times,serif" font-size="14.00">FunctionDef</text>
</g>
<!-- ast.Module object at 0x7fb24c79ba90&#45;&gt;ast.FunctionDef object at 0x7fb24c79afe0 -->
<g id="edge1" class="edge">
<title>ast.Module object at 0x7fb24c79ba90&#45;&gt;ast.FunctionDef object at 0x7fb24c79afe0</title>
<path fill="none" stroke="black" d="M278.5,-503.7C278.5,-495.98 278.5,-486.71 278.5,-478.11"/>
<polygon fill="black" stroke="black" points="282,-478.1 278.5,-468.1 275,-478.1 282,-478.1"/>
</g>
<!-- ast.arguments object at 0x7fb24c79ba00 -->
<g id="node3" class="node">
<title>ast.arguments object at 0x7fb24c79ba00</title>
<path fill="#66cdaa" stroke="black" d="M211.5,-396C211.5,-396 161.5,-396 161.5,-396 155.5,-396 149.5,-390 149.5,-384 149.5,-384 149.5,-372 149.5,-372 149.5,-366 155.5,-360 161.5,-360 161.5,-360 211.5,-360 211.5,-360 217.5,-360 223.5,-366 223.5,-372 223.5,-372 223.5,-384 223.5,-384 223.5,-390 217.5,-396 211.5,-396"/>
<text text-anchor="middle" x="186.5" y="-374.3" font-family="Times,serif" font-size="14.00">arguments</text>
</g>
<!-- ast.FunctionDef object at 0x7fb24c79afe0&#45;&gt;ast.arguments object at 0x7fb24c79ba00 -->
<g id="edge2" class="edge">
<title>ast.FunctionDef object at 0x7fb24c79afe0&#45;&gt;ast.arguments object at 0x7fb24c79ba00</title>
<path fill="none" stroke="black" d="M255.76,-431.7C244.06,-422.8 229.64,-411.82 216.99,-402.2"/>
<polygon fill="black" stroke="black" points="219.06,-399.37 208.98,-396.1 214.82,-404.94 219.06,-399.37"/>
</g>
<!-- ast.Assign object at 0x7fb24c79b700 -->
<g id="node5" class="node">
<title>ast.Assign object at 0x7fb24c79b700</title>
<path fill="#66cdaa" stroke="black" d="M243.5,-252C243.5,-252 213.5,-252 213.5,-252 207.5,-252 201.5,-246 201.5,-240 201.5,-240 201.5,-228 201.5,-228 201.5,-222 207.5,-216 213.5,-216 213.5,-216 243.5,-216 243.5,-216 249.5,-216 255.5,-222 255.5,-228 255.5,-228 255.5,-240 255.5,-240 255.5,-246 249.5,-252 243.5,-252"/>
<text text-anchor="middle" x="228.5" y="-230.3" font-family="Times,serif" font-size="14.00">Assign</text>
</g>
<!-- ast.FunctionDef object at 0x7fb24c79afe0&#45;&gt;ast.Assign object at 0x7fb24c79b700 -->
<g id="edge4" class="edge">
<title>ast.FunctionDef object at 0x7fb24c79afe0&#45;&gt;ast.Assign object at 0x7fb24c79b700</title>
<path fill="none" stroke="black" d="M274.49,-431.85C265.83,-394.75 245.28,-306.81 234.83,-262.1"/>
<polygon fill="black" stroke="black" points="238.21,-261.17 232.53,-252.23 231.39,-262.77 238.21,-261.17"/>
</g>
<!-- ast.Expr object at 0x7fb24c79be50 -->
<g id="node14" class="node">
<title>ast.Expr object at 0x7fb24c79be50</title>
<path fill="#66cdaa" stroke="black" d="M321.5,-396C321.5,-396 291.5,-396 291.5,-396 285.5,-396 279.5,-390 279.5,-384 279.5,-384 279.5,-372 279.5,-372 279.5,-366 285.5,-360 291.5,-360 291.5,-360 321.5,-360 321.5,-360 327.5,-360 333.5,-366 333.5,-372 333.5,-372 333.5,-384 333.5,-384 333.5,-390 327.5,-396 321.5,-396"/>
<text text-anchor="middle" x="306.5" y="-374.3" font-family="Times,serif" font-size="14.00">Expr</text>
</g>
<!-- ast.FunctionDef object at 0x7fb24c79afe0&#45;&gt;ast.Expr object at 0x7fb24c79be50 -->
<g id="edge14" class="edge">
<title>ast.FunctionDef object at 0x7fb24c79afe0&#45;&gt;ast.Expr object at 0x7fb24c79be50</title>
<path fill="none" stroke="black" d="M285.42,-431.7C288.57,-423.81 292.38,-414.3 295.88,-405.55"/>
<polygon fill="black" stroke="black" points="299.19,-406.69 299.66,-396.1 292.69,-404.09 299.19,-406.69"/>
</g>
<!-- ast.Return object at 0x7fb24c79baf0 -->
<g id="node18" class="node">
<title>ast.Return object at 0x7fb24c79baf0</title>
<path fill="#66cdaa" stroke="black" d="M414.5,-396C414.5,-396 384.5,-396 384.5,-396 378.5,-396 372.5,-390 372.5,-384 372.5,-384 372.5,-372 372.5,-372 372.5,-366 378.5,-360 384.5,-360 384.5,-360 414.5,-360 414.5,-360 420.5,-360 426.5,-366 426.5,-372 426.5,-372 426.5,-384 426.5,-384 426.5,-390 420.5,-396 414.5,-396"/>
<text text-anchor="middle" x="399.5" y="-374.3" font-family="Times,serif" font-size="14.00">Return</text>
</g>
<!-- ast.FunctionDef object at 0x7fb24c79afe0&#45;&gt;ast.Return object at 0x7fb24c79baf0 -->
<g id="edge20" class="edge">
<title>ast.FunctionDef object at 0x7fb24c79afe0&#45;&gt;ast.Return object at 0x7fb24c79baf0</title>
<path fill="none" stroke="black" d="M308.1,-431.88C324.78,-422.23 345.75,-410.1 363.39,-399.89"/>
<polygon fill="black" stroke="black" points="365.37,-402.79 372.27,-394.75 361.87,-396.73 365.37,-402.79"/>
</g>
<!-- ast.arg object at 0x7fb24c79acb0 -->
<g id="node4" class="node">
<title>ast.arg object at 0x7fb24c79acb0</title>
<path fill="#66cdaa" stroke="black" d="M201.5,-324C201.5,-324 171.5,-324 171.5,-324 165.5,-324 159.5,-318 159.5,-312 159.5,-312 159.5,-300 159.5,-300 159.5,-294 165.5,-288 171.5,-288 171.5,-288 201.5,-288 201.5,-288 207.5,-288 213.5,-294 213.5,-300 213.5,-300 213.5,-312 213.5,-312 213.5,-318 207.5,-324 201.5,-324"/>
<text text-anchor="middle" x="186.5" y="-302.3" font-family="Times,serif" font-size="14.00">arg</text>
</g>
<!-- ast.arguments object at 0x7fb24c79ba00&#45;&gt;ast.arg object at 0x7fb24c79acb0 -->
<g id="edge3" class="edge">
<title>ast.arguments object at 0x7fb24c79ba00&#45;&gt;ast.arg object at 0x7fb24c79acb0</title>
<path fill="none" stroke="black" d="M186.5,-359.7C186.5,-351.98 186.5,-342.71 186.5,-334.11"/>
<polygon fill="black" stroke="black" points="190,-334.1 186.5,-324.1 183,-334.1 190,-334.1"/>
</g>
<!-- ast.Name object at 0x7fb24c79a4a0 -->
<g id="node6" class="node">
<title>ast.Name object at 0x7fb24c79a4a0</title>
<path fill="#66cdaa" stroke="black" d="M243.5,-180C243.5,-180 213.5,-180 213.5,-180 207.5,-180 201.5,-174 201.5,-168 201.5,-168 201.5,-156 201.5,-156 201.5,-150 207.5,-144 213.5,-144 213.5,-144 243.5,-144 243.5,-144 249.5,-144 255.5,-150 255.5,-156 255.5,-156 255.5,-168 255.5,-168 255.5,-174 249.5,-180 243.5,-180"/>
<text text-anchor="middle" x="228.5" y="-158.3" font-family="Times,serif" font-size="14.00">Name</text>
</g>
<!-- ast.Assign object at 0x7fb24c79b700&#45;&gt;ast.Name object at 0x7fb24c79a4a0 -->
<g id="edge5" class="edge">
<title>ast.Assign object at 0x7fb24c79b700&#45;&gt;ast.Name object at 0x7fb24c79a4a0</title>
<path fill="none" stroke="black" d="M228.5,-215.7C228.5,-207.98 228.5,-198.71 228.5,-190.11"/>
<polygon fill="black" stroke="black" points="232,-190.1 228.5,-180.1 225,-190.1 232,-190.1"/>
</g>
<!-- ast.Subscript object at 0x7fb24c79a0b0 -->
<g id="node8" class="node">
<title>ast.Subscript object at 0x7fb24c79a0b0</title>
<path fill="#66cdaa" stroke="black" d="M161.5,-180C161.5,-180 117.5,-180 117.5,-180 111.5,-180 105.5,-174 105.5,-168 105.5,-168 105.5,-156 105.5,-156 105.5,-150 111.5,-144 117.5,-144 117.5,-144 161.5,-144 161.5,-144 167.5,-144 173.5,-150 173.5,-156 173.5,-156 173.5,-168 173.5,-168 173.5,-174 167.5,-180 161.5,-180"/>
<text text-anchor="middle" x="139.5" y="-158.3" font-family="Times,serif" font-size="14.00">Subscript</text>
</g>
<!-- ast.Assign object at 0x7fb24c79b700&#45;&gt;ast.Subscript object at 0x7fb24c79a0b0 -->
<g id="edge7" class="edge">
<title>ast.Assign object at 0x7fb24c79b700&#45;&gt;ast.Subscript object at 0x7fb24c79a0b0</title>
<path fill="none" stroke="black" d="M206.5,-215.7C195.29,-206.88 181.5,-196.03 169.35,-186.47"/>
<polygon fill="black" stroke="black" points="171.27,-183.54 161.25,-180.1 166.94,-189.04 171.27,-183.54"/>
</g>
<!-- ast.Store object at 0x7fb24fdedfc0 -->
<g id="node7" class="node">
<title>ast.Store object at 0x7fb24fdedfc0</title>
<path fill="#66cdaa" stroke="black" d="M270.5,-108C270.5,-108 240.5,-108 240.5,-108 234.5,-108 228.5,-102 228.5,-96 228.5,-96 228.5,-84 228.5,-84 228.5,-78 234.5,-72 240.5,-72 240.5,-72 270.5,-72 270.5,-72 276.5,-72 282.5,-78 282.5,-84 282.5,-84 282.5,-96 282.5,-96 282.5,-102 276.5,-108 270.5,-108"/>
<text text-anchor="middle" x="255.5" y="-86.3" font-family="Times,serif" font-size="14.00">Store</text>
</g>
<!-- ast.Name object at 0x7fb24c79a4a0&#45;&gt;ast.Store object at 0x7fb24fdedfc0 -->
<g id="edge6" class="edge">
<title>ast.Name object at 0x7fb24c79a4a0&#45;&gt;ast.Store object at 0x7fb24fdedfc0</title>
<path fill="none" stroke="black" d="M235.17,-143.7C238.21,-135.81 241.88,-126.3 245.26,-117.55"/>
<polygon fill="black" stroke="black" points="248.57,-118.69 248.9,-108.1 242.04,-116.17 248.57,-118.69"/>
</g>
<!-- ast.Name object at 0x7fb24c79a260 -->
<g id="node9" class="node">
<title>ast.Name object at 0x7fb24c79a260</title>
<path fill="#66cdaa" stroke="black" d="M198.5,-108C198.5,-108 168.5,-108 168.5,-108 162.5,-108 156.5,-102 156.5,-96 156.5,-96 156.5,-84 156.5,-84 156.5,-78 162.5,-72 168.5,-72 168.5,-72 198.5,-72 198.5,-72 204.5,-72 210.5,-78 210.5,-84 210.5,-84 210.5,-96 210.5,-96 210.5,-102 204.5,-108 198.5,-108"/>
<text text-anchor="middle" x="183.5" y="-86.3" font-family="Times,serif" font-size="14.00">Name</text>
</g>
<!-- ast.Subscript object at 0x7fb24c79a0b0&#45;&gt;ast.Name object at 0x7fb24c79a260 -->
<g id="edge8" class="edge">
<title>ast.Subscript object at 0x7fb24c79a0b0&#45;&gt;ast.Name object at 0x7fb24c79a260</title>
<path fill="none" stroke="black" d="M150.38,-143.7C155.49,-135.56 161.7,-125.69 167.34,-116.7"/>
<polygon fill="black" stroke="black" points="170.39,-118.43 172.75,-108.1 164.46,-114.71 170.39,-118.43"/>
</g>
<!-- ast.Load object at 0x7fb24fdedf60 -->
<g id="node10" class="node">
<title>ast.Load object at 0x7fb24fdedf60</title>
<path fill="#66cdaa" stroke="black" d="M424.5,-36C424.5,-36 394.5,-36 394.5,-36 388.5,-36 382.5,-30 382.5,-24 382.5,-24 382.5,-12 382.5,-12 382.5,-6 388.5,0 394.5,0 394.5,0 424.5,0 424.5,0 430.5,0 436.5,-6 436.5,-12 436.5,-12 436.5,-24 436.5,-24 436.5,-30 430.5,-36 424.5,-36"/>
<text text-anchor="middle" x="409.5" y="-14.3" font-family="Times,serif" font-size="14.00">Load</text>
</g>
<!-- ast.Subscript object at 0x7fb24c79a0b0&#45;&gt;ast.Load object at 0x7fb24fdedf60 -->
<g id="edge13" class="edge">
<title>ast.Subscript object at 0x7fb24c79a0b0&#45;&gt;ast.Load object at 0x7fb24fdedf60</title>
<path fill="none" stroke="black" d="M135.58,-143.92C132.12,-124.06 130.01,-91.53 147.5,-72 176.9,-39.17 306.89,-25.88 372.03,-21.21"/>
<polygon fill="black" stroke="black" points="372.54,-24.68 382.27,-20.51 372.06,-17.7 372.54,-24.68"/>
</g>
<!-- ast.Slice object at 0x7fb24c79b850 -->
<g id="node11" class="node">
<title>ast.Slice object at 0x7fb24c79b850</title>
<path fill="#66cdaa" stroke="black" d="M88.5,-108C88.5,-108 58.5,-108 58.5,-108 52.5,-108 46.5,-102 46.5,-96 46.5,-96 46.5,-84 46.5,-84 46.5,-78 52.5,-72 58.5,-72 58.5,-72 88.5,-72 88.5,-72 94.5,-72 100.5,-78 100.5,-84 100.5,-84 100.5,-96 100.5,-96 100.5,-102 94.5,-108 88.5,-108"/>
<text text-anchor="middle" x="73.5" y="-86.3" font-family="Times,serif" font-size="14.00">Slice</text>
</g>
<!-- ast.Subscript object at 0x7fb24c79a0b0&#45;&gt;ast.Slice object at 0x7fb24c79b850 -->
<g id="edge10" class="edge">
<title>ast.Subscript object at 0x7fb24c79a0b0&#45;&gt;ast.Slice object at 0x7fb24c79b850</title>
<path fill="none" stroke="black" d="M123.19,-143.7C115.19,-135.22 105.43,-124.86 96.68,-115.58"/>
<polygon fill="black" stroke="black" points="99.03,-112.98 89.63,-108.1 93.94,-117.78 99.03,-112.98"/>
</g>
<!-- ast.Name object at 0x7fb24c79a260&#45;&gt;ast.Load object at 0x7fb24fdedf60 -->
<g id="edge9" class="edge">
<title>ast.Name object at 0x7fb24c79a260&#45;&gt;ast.Load object at 0x7fb24fdedf60</title>
<path fill="none" stroke="black" d="M210.81,-75.52C213.72,-74.26 216.65,-73.06 219.5,-72 271.49,-52.63 333.78,-36.55 372.5,-27.35"/>
<polygon fill="black" stroke="black" points="373.36,-30.75 382.3,-25.05 371.76,-23.93 373.36,-30.75"/>
</g>
<!-- ast.Constant object at 0x7fb24c799690 -->
<g id="node12" class="node">
<title>ast.Constant object at 0x7fb24c799690</title>
<path fill="#66cdaa" stroke="black" d="M53,-36C53,-36 12,-36 12,-36 6,-36 0,-30 0,-24 0,-24 0,-12 0,-12 0,-6 6,0 12,0 12,0 53,0 53,0 59,0 65,-6 65,-12 65,-12 65,-24 65,-24 65,-30 59,-36 53,-36"/>
<text text-anchor="middle" x="32.5" y="-14.3" font-family="Times,serif" font-size="14.00">Constant</text>
</g>
<!-- ast.Slice object at 0x7fb24c79b850&#45;&gt;ast.Constant object at 0x7fb24c799690 -->
<g id="edge11" class="edge">
<title>ast.Slice object at 0x7fb24c79b850&#45;&gt;ast.Constant object at 0x7fb24c799690</title>
<path fill="none" stroke="black" d="M63.37,-71.7C58.65,-63.64 52.94,-53.89 47.72,-44.98"/>
<polygon fill="black" stroke="black" points="50.59,-42.96 42.52,-36.1 44.55,-46.5 50.59,-42.96"/>
</g>
<!-- ast.Constant object at 0x7fb24c79bbe0 -->
<g id="node13" class="node">
<title>ast.Constant object at 0x7fb24c79bbe0</title>
<path fill="#66cdaa" stroke="black" d="M136,-36C136,-36 95,-36 95,-36 89,-36 83,-30 83,-24 83,-24 83,-12 83,-12 83,-6 89,0 95,0 95,0 136,0 136,0 142,0 148,-6 148,-12 148,-12 148,-24 148,-24 148,-30 142,-36 136,-36"/>
<text text-anchor="middle" x="115.5" y="-14.3" font-family="Times,serif" font-size="14.00">Constant</text>
</g>
<!-- ast.Slice object at 0x7fb24c79b850&#45;&gt;ast.Constant object at 0x7fb24c79bbe0 -->
<g id="edge12" class="edge">
<title>ast.Slice object at 0x7fb24c79b850&#45;&gt;ast.Constant object at 0x7fb24c79bbe0</title>
<path fill="none" stroke="black" d="M83.88,-71.7C88.76,-63.56 94.69,-53.69 100.08,-44.7"/>
<polygon fill="black" stroke="black" points="103.09,-46.48 105.24,-36.1 97.09,-42.88 103.09,-46.48"/>
</g>
<!-- ast.Call object at 0x7fb24c799c00 -->
<g id="node15" class="node">
<title>ast.Call object at 0x7fb24c799c00</title>
<path fill="#66cdaa" stroke="black" d="M321.5,-324C321.5,-324 291.5,-324 291.5,-324 285.5,-324 279.5,-318 279.5,-312 279.5,-312 279.5,-300 279.5,-300 279.5,-294 285.5,-288 291.5,-288 291.5,-288 321.5,-288 321.5,-288 327.5,-288 333.5,-294 333.5,-300 333.5,-300 333.5,-312 333.5,-312 333.5,-318 327.5,-324 321.5,-324"/>
<text text-anchor="middle" x="306.5" y="-302.3" font-family="Times,serif" font-size="14.00">Call</text>
</g>
<!-- ast.Expr object at 0x7fb24c79be50&#45;&gt;ast.Call object at 0x7fb24c799c00 -->
<g id="edge15" class="edge">
<title>ast.Expr object at 0x7fb24c79be50&#45;&gt;ast.Call object at 0x7fb24c799c00</title>
<path fill="none" stroke="black" d="M306.5,-359.7C306.5,-351.98 306.5,-342.71 306.5,-334.11"/>
<polygon fill="black" stroke="black" points="310,-334.1 306.5,-324.1 303,-334.1 310,-334.1"/>
</g>
<!-- ast.Attribute object at 0x7fb24c79a710 -->
<g id="node16" class="node">
<title>ast.Attribute object at 0x7fb24c79a710</title>
<path fill="#66cdaa" stroke="black" d="M327,-180C327,-180 286,-180 286,-180 280,-180 274,-174 274,-168 274,-168 274,-156 274,-156 274,-150 280,-144 286,-144 286,-144 327,-144 327,-144 333,-144 339,-150 339,-156 339,-156 339,-168 339,-168 339,-174 333,-180 327,-180"/>
<text text-anchor="middle" x="306.5" y="-158.3" font-family="Times,serif" font-size="14.00">Attribute</text>
</g>
<!-- ast.Call object at 0x7fb24c799c00&#45;&gt;ast.Attribute object at 0x7fb24c79a710 -->
<g id="edge16" class="edge">
<title>ast.Call object at 0x7fb24c799c00&#45;&gt;ast.Attribute object at 0x7fb24c79a710</title>
<path fill="none" stroke="black" d="M306.5,-287.87C306.5,-263.67 306.5,-219.21 306.5,-190.39"/>
<polygon fill="black" stroke="black" points="310,-190.19 306.5,-180.19 303,-190.19 310,-190.19"/>
</g>
<!-- ast.Attribute object at 0x7fb24c79a710&#45;&gt;ast.Load object at 0x7fb24fdedf60 -->
<g id="edge19" class="edge">
<title>ast.Attribute object at 0x7fb24c79a710&#45;&gt;ast.Load object at 0x7fb24fdedf60</title>
<path fill="none" stroke="black" d="M328.25,-143.9C339.68,-134.2 353.37,-121.35 363.5,-108 378.21,-88.62 390.58,-63.86 398.77,-45.37"/>
<polygon fill="black" stroke="black" points="402.03,-46.65 402.77,-36.08 395.6,-43.88 402.03,-46.65"/>
</g>
<!-- ast.Name object at 0x7fb24c79b940 -->
<g id="node17" class="node">
<title>ast.Name object at 0x7fb24c79b940</title>
<path fill="#66cdaa" stroke="black" d="M342.5,-108C342.5,-108 312.5,-108 312.5,-108 306.5,-108 300.5,-102 300.5,-96 300.5,-96 300.5,-84 300.5,-84 300.5,-78 306.5,-72 312.5,-72 312.5,-72 342.5,-72 342.5,-72 348.5,-72 354.5,-78 354.5,-84 354.5,-84 354.5,-96 354.5,-96 354.5,-102 348.5,-108 342.5,-108"/>
<text text-anchor="middle" x="327.5" y="-86.3" font-family="Times,serif" font-size="14.00">Name</text>
</g>
<!-- ast.Attribute object at 0x7fb24c79a710&#45;&gt;ast.Name object at 0x7fb24c79b940 -->
<g id="edge17" class="edge">
<title>ast.Attribute object at 0x7fb24c79a710&#45;&gt;ast.Name object at 0x7fb24c79b940</title>
<path fill="none" stroke="black" d="M311.69,-143.7C314.03,-135.9 316.85,-126.51 319.45,-117.83"/>
<polygon fill="black" stroke="black" points="322.85,-118.69 322.37,-108.1 316.14,-116.68 322.85,-118.69"/>
</g>
<!-- ast.Name object at 0x7fb24c79b940&#45;&gt;ast.Load object at 0x7fb24fdedf60 -->
<g id="edge18" class="edge">
<title>ast.Name object at 0x7fb24c79b940&#45;&gt;ast.Load object at 0x7fb24fdedf60</title>
<path fill="none" stroke="black" d="M347.77,-71.7C358,-62.97 370.56,-52.24 381.68,-42.75"/>
<polygon fill="black" stroke="black" points="384.13,-45.26 389.46,-36.1 379.59,-39.94 384.13,-45.26"/>
</g>
<!-- ast.IfExp object at 0x7fb24c79b250 -->
<g id="node19" class="node">
<title>ast.IfExp object at 0x7fb24c79b250</title>
<path fill="#66cdaa" stroke="black" d="M435.5,-324C435.5,-324 405.5,-324 405.5,-324 399.5,-324 393.5,-318 393.5,-312 393.5,-312 393.5,-300 393.5,-300 393.5,-294 399.5,-288 405.5,-288 405.5,-288 435.5,-288 435.5,-288 441.5,-288 447.5,-294 447.5,-300 447.5,-300 447.5,-312 447.5,-312 447.5,-318 441.5,-324 435.5,-324"/>
<text text-anchor="middle" x="420.5" y="-302.3" font-family="Times,serif" font-size="14.00">IfExp</text>
</g>
<!-- ast.Return object at 0x7fb24c79baf0&#45;&gt;ast.IfExp object at 0x7fb24c79b250 -->
<g id="edge21" class="edge">
<title>ast.Return object at 0x7fb24c79baf0&#45;&gt;ast.IfExp object at 0x7fb24c79b250</title>
<path fill="none" stroke="black" d="M404.69,-359.7C407.03,-351.9 409.85,-342.51 412.45,-333.83"/>
<polygon fill="black" stroke="black" points="415.85,-334.69 415.37,-324.1 409.14,-332.68 415.85,-334.69"/>
</g>
<!-- ast.Compare object at 0x7fb24c79ab90 -->
<g id="node20" class="node">
<title>ast.Compare object at 0x7fb24c79ab90</title>
<path fill="#66cdaa" stroke="black" d="M484,-252C484,-252 441,-252 441,-252 435,-252 429,-246 429,-240 429,-240 429,-228 429,-228 429,-222 435,-216 441,-216 441,-216 484,-216 484,-216 490,-216 496,-222 496,-228 496,-228 496,-240 496,-240 496,-246 490,-252 484,-252"/>
<text text-anchor="middle" x="462.5" y="-230.3" font-family="Times,serif" font-size="14.00">Compare</text>
</g>
<!-- ast.IfExp object at 0x7fb24c79b250&#45;&gt;ast.Compare object at 0x7fb24c79ab90 -->
<g id="edge22" class="edge">
<title>ast.IfExp object at 0x7fb24c79b250&#45;&gt;ast.Compare object at 0x7fb24c79ab90</title>
<path fill="none" stroke="black" d="M430.88,-287.7C435.76,-279.56 441.69,-269.69 447.08,-260.7"/>
<polygon fill="black" stroke="black" points="450.09,-262.48 452.24,-252.1 444.09,-258.88 450.09,-262.48"/>
</g>
<!-- ast.Subscript object at 0x7fb24c11d3f0 -->
<g id="node26" class="node">
<title>ast.Subscript object at 0x7fb24c11d3f0</title>
<path fill="#66cdaa" stroke="black" d="M641.5,-180C641.5,-180 597.5,-180 597.5,-180 591.5,-180 585.5,-174 585.5,-168 585.5,-168 585.5,-156 585.5,-156 585.5,-150 591.5,-144 597.5,-144 597.5,-144 641.5,-144 641.5,-144 647.5,-144 653.5,-150 653.5,-156 653.5,-156 653.5,-168 653.5,-168 653.5,-174 647.5,-180 641.5,-180"/>
<text text-anchor="middle" x="619.5" y="-158.3" font-family="Times,serif" font-size="14.00">Subscript</text>
</g>
<!-- ast.IfExp object at 0x7fb24c79b250&#45;&gt;ast.Subscript object at 0x7fb24c11d3f0 -->
<g id="edge30" class="edge">
<title>ast.IfExp object at 0x7fb24c79b250&#45;&gt;ast.Subscript object at 0x7fb24c11d3f0</title>
<path fill="none" stroke="black" d="M447.77,-289C464.68,-278.83 486.69,-265.15 505.5,-252 535.56,-230.98 568.43,-204.98 591.11,-186.52"/>
<polygon fill="black" stroke="black" points="593.46,-189.12 598.99,-180.08 589.03,-183.7 593.46,-189.12"/>
</g>
<!-- ast.Constant object at 0x7fb24c11d270 -->
<g id="node31" class="node">
<title>ast.Constant object at 0x7fb24c11d270</title>
<path fill="#66cdaa" stroke="black" d="M399,-252C399,-252 358,-252 358,-252 352,-252 346,-246 346,-240 346,-240 346,-228 346,-228 346,-222 352,-216 358,-216 358,-216 399,-216 399,-216 405,-216 411,-222 411,-228 411,-228 411,-240 411,-240 411,-246 405,-252 399,-252"/>
<text text-anchor="middle" x="378.5" y="-230.3" font-family="Times,serif" font-size="14.00">Constant</text>
</g>
<!-- ast.IfExp object at 0x7fb24c79b250&#45;&gt;ast.Constant object at 0x7fb24c11d270 -->
<g id="edge37" class="edge">
<title>ast.IfExp object at 0x7fb24c79b250&#45;&gt;ast.Constant object at 0x7fb24c11d270</title>
<path fill="none" stroke="black" d="M410.12,-287.7C405.24,-279.56 399.31,-269.69 393.92,-260.7"/>
<polygon fill="black" stroke="black" points="396.91,-258.88 388.76,-252.1 390.91,-262.48 396.91,-258.88"/>
</g>
<!-- ast.Call object at 0x7fb24b2c30d0 -->
<g id="node21" class="node">
<title>ast.Call object at 0x7fb24b2c30d0</title>
<path fill="#66cdaa" stroke="black" d="M555.5,-180C555.5,-180 525.5,-180 525.5,-180 519.5,-180 513.5,-174 513.5,-168 513.5,-168 513.5,-156 513.5,-156 513.5,-150 519.5,-144 525.5,-144 525.5,-144 555.5,-144 555.5,-144 561.5,-144 567.5,-150 567.5,-156 567.5,-156 567.5,-168 567.5,-168 567.5,-174 561.5,-180 555.5,-180"/>
<text text-anchor="middle" x="540.5" y="-158.3" font-family="Times,serif" font-size="14.00">Call</text>
</g>
<!-- ast.Compare object at 0x7fb24c79ab90&#45;&gt;ast.Call object at 0x7fb24b2c30d0 -->
<g id="edge23" class="edge">
<title>ast.Compare object at 0x7fb24c79ab90&#45;&gt;ast.Call object at 0x7fb24b2c30d0</title>
<path fill="none" stroke="black" d="M481.78,-215.7C491.42,-207.05 503.23,-196.45 513.73,-187.03"/>
<polygon fill="black" stroke="black" points="516.34,-189.39 521.44,-180.1 511.66,-184.18 516.34,-189.39"/>
</g>
<!-- ast.GtE object at 0x7fb24fdeea70 -->
<g id="node24" class="node">
<title>ast.GtE object at 0x7fb24fdeea70</title>
<path fill="#66cdaa" stroke="black" d="M399.5,-180C399.5,-180 369.5,-180 369.5,-180 363.5,-180 357.5,-174 357.5,-168 357.5,-168 357.5,-156 357.5,-156 357.5,-150 363.5,-144 369.5,-144 369.5,-144 399.5,-144 399.5,-144 405.5,-144 411.5,-150 411.5,-156 411.5,-156 411.5,-168 411.5,-168 411.5,-174 405.5,-180 399.5,-180"/>
<text text-anchor="middle" x="384.5" y="-158.3" font-family="Times,serif" font-size="14.00">GtE</text>
</g>
<!-- ast.Compare object at 0x7fb24c79ab90&#45;&gt;ast.GtE object at 0x7fb24fdeea70 -->
<g id="edge28" class="edge">
<title>ast.Compare object at 0x7fb24c79ab90&#45;&gt;ast.GtE object at 0x7fb24fdeea70</title>
<path fill="none" stroke="black" d="M443.22,-215.7C433.58,-207.05 421.77,-196.45 411.27,-187.03"/>
<polygon fill="black" stroke="black" points="413.34,-184.18 403.56,-180.1 408.66,-189.39 413.34,-184.18"/>
</g>
<!-- ast.Constant object at 0x7fb24c11f910 -->
<g id="node25" class="node">
<title>ast.Constant object at 0x7fb24c11f910</title>
<path fill="#66cdaa" stroke="black" d="M483,-180C483,-180 442,-180 442,-180 436,-180 430,-174 430,-168 430,-168 430,-156 430,-156 430,-150 436,-144 442,-144 442,-144 483,-144 483,-144 489,-144 495,-150 495,-156 495,-156 495,-168 495,-168 495,-174 489,-180 483,-180"/>
<text text-anchor="middle" x="462.5" y="-158.3" font-family="Times,serif" font-size="14.00">Constant</text>
</g>
<!-- ast.Compare object at 0x7fb24c79ab90&#45;&gt;ast.Constant object at 0x7fb24c11f910 -->
<g id="edge29" class="edge">
<title>ast.Compare object at 0x7fb24c79ab90&#45;&gt;ast.Constant object at 0x7fb24c11f910</title>
<path fill="none" stroke="black" d="M462.5,-215.7C462.5,-207.98 462.5,-198.71 462.5,-190.11"/>
<polygon fill="black" stroke="black" points="466,-190.1 462.5,-180.1 459,-190.1 466,-190.1"/>
</g>
<!-- ast.Name object at 0x7fb24b2c2830 -->
<g id="node22" class="node">
<title>ast.Name object at 0x7fb24b2c2830</title>
<path fill="#66cdaa" stroke="black" d="M524.5,-108C524.5,-108 494.5,-108 494.5,-108 488.5,-108 482.5,-102 482.5,-96 482.5,-96 482.5,-84 482.5,-84 482.5,-78 488.5,-72 494.5,-72 494.5,-72 524.5,-72 524.5,-72 530.5,-72 536.5,-78 536.5,-84 536.5,-84 536.5,-96 536.5,-96 536.5,-102 530.5,-108 524.5,-108"/>
<text text-anchor="middle" x="509.5" y="-86.3" font-family="Times,serif" font-size="14.00">Name</text>
</g>
<!-- ast.Call object at 0x7fb24b2c30d0&#45;&gt;ast.Name object at 0x7fb24b2c2830 -->
<g id="edge24" class="edge">
<title>ast.Call object at 0x7fb24b2c30d0&#45;&gt;ast.Name object at 0x7fb24b2c2830</title>
<path fill="none" stroke="black" d="M532.84,-143.7C529.31,-135.73 525.04,-126.1 521.13,-117.26"/>
<polygon fill="black" stroke="black" points="524.32,-115.83 517.07,-108.1 517.92,-118.67 524.32,-115.83"/>
</g>
<!-- ast.Name object at 0x7fb24c11cd00 -->
<g id="node23" class="node">
<title>ast.Name object at 0x7fb24c11cd00</title>
<path fill="#66cdaa" stroke="black" d="M452.5,-108C452.5,-108 422.5,-108 422.5,-108 416.5,-108 410.5,-102 410.5,-96 410.5,-96 410.5,-84 410.5,-84 410.5,-78 416.5,-72 422.5,-72 422.5,-72 452.5,-72 452.5,-72 458.5,-72 464.5,-78 464.5,-84 464.5,-84 464.5,-96 464.5,-96 464.5,-102 458.5,-108 452.5,-108"/>
<text text-anchor="middle" x="437.5" y="-86.3" font-family="Times,serif" font-size="14.00">Name</text>
</g>
<!-- ast.Call object at 0x7fb24b2c30d0&#45;&gt;ast.Name object at 0x7fb24c11cd00 -->
<g id="edge26" class="edge">
<title>ast.Call object at 0x7fb24b2c30d0&#45;&gt;ast.Name object at 0x7fb24c11cd00</title>
<path fill="none" stroke="black" d="M515.3,-143.88C502.09,-134.89 485.71,-123.76 471.39,-114.03"/>
<polygon fill="black" stroke="black" points="473.03,-110.92 462.79,-108.19 469.1,-116.71 473.03,-110.92"/>
</g>
<!-- ast.Name object at 0x7fb24b2c2830&#45;&gt;ast.Load object at 0x7fb24fdedf60 -->
<g id="edge25" class="edge">
<title>ast.Name object at 0x7fb24b2c2830&#45;&gt;ast.Load object at 0x7fb24fdedf60</title>
<path fill="none" stroke="black" d="M485.04,-71.88C472.2,-62.89 456.3,-51.76 442.41,-42.03"/>
<polygon fill="black" stroke="black" points="444.26,-39.06 434.06,-36.19 440.24,-44.79 444.26,-39.06"/>
</g>
<!-- ast.Name object at 0x7fb24c11cd00&#45;&gt;ast.Load object at 0x7fb24fdedf60 -->
<g id="edge27" class="edge">
<title>ast.Name object at 0x7fb24c11cd00&#45;&gt;ast.Load object at 0x7fb24fdedf60</title>
<path fill="none" stroke="black" d="M430.58,-71.7C427.43,-63.81 423.62,-54.3 420.12,-45.55"/>
<polygon fill="black" stroke="black" points="423.31,-44.09 416.34,-36.1 416.81,-46.69 423.31,-44.09"/>
</g>
<!-- ast.Subscript object at 0x7fb24c11d3f0&#45;&gt;ast.Load object at 0x7fb24fdedf60 -->
<g id="edge36" class="edge">
<title>ast.Subscript object at 0x7fb24c11d3f0&#45;&gt;ast.Load object at 0x7fb24fdedf60</title>
<path fill="none" stroke="black" d="M608.99,-143.68C596.2,-123.9 572.89,-91.74 545.5,-72 515.34,-50.27 475.08,-36.04 446.21,-27.85"/>
<polygon fill="black" stroke="black" points="447.07,-24.46 436.5,-25.2 445.23,-31.21 447.07,-24.46"/>
</g>
<!-- ast.Name object at 0x7fb24c11ee60 -->
<g id="node27" class="node">
<title>ast.Name object at 0x7fb24c11ee60</title>
<path fill="#66cdaa" stroke="black" d="M634.5,-108C634.5,-108 604.5,-108 604.5,-108 598.5,-108 592.5,-102 592.5,-96 592.5,-96 592.5,-84 592.5,-84 592.5,-78 598.5,-72 604.5,-72 604.5,-72 634.5,-72 634.5,-72 640.5,-72 646.5,-78 646.5,-84 646.5,-84 646.5,-96 646.5,-96 646.5,-102 640.5,-108 634.5,-108"/>
<text text-anchor="middle" x="619.5" y="-86.3" font-family="Times,serif" font-size="14.00">Name</text>
</g>
<!-- ast.Subscript object at 0x7fb24c11d3f0&#45;&gt;ast.Name object at 0x7fb24c11ee60 -->
<g id="edge31" class="edge">
<title>ast.Subscript object at 0x7fb24c11d3f0&#45;&gt;ast.Name object at 0x7fb24c11ee60</title>
<path fill="none" stroke="black" d="M619.5,-143.7C619.5,-135.98 619.5,-126.71 619.5,-118.11"/>
<polygon fill="black" stroke="black" points="623,-118.1 619.5,-108.1 616,-118.1 623,-118.1"/>
</g>
<!-- ast.UnaryOp object at 0x7fb24c11ded0 -->
<g id="node28" class="node">
<title>ast.UnaryOp object at 0x7fb24c11ded0</title>
<path fill="#66cdaa" stroke="black" d="M720,-108C720,-108 677,-108 677,-108 671,-108 665,-102 665,-96 665,-96 665,-84 665,-84 665,-78 671,-72 677,-72 677,-72 720,-72 720,-72 726,-72 732,-78 732,-84 732,-84 732,-96 732,-96 732,-102 726,-108 720,-108"/>
<text text-anchor="middle" x="698.5" y="-86.3" font-family="Times,serif" font-size="14.00">UnaryOp</text>
</g>
<!-- ast.Subscript object at 0x7fb24c11d3f0&#45;&gt;ast.UnaryOp object at 0x7fb24c11ded0 -->
<g id="edge33" class="edge">
<title>ast.Subscript object at 0x7fb24c11d3f0&#45;&gt;ast.UnaryOp object at 0x7fb24c11ded0</title>
<path fill="none" stroke="black" d="M639.03,-143.7C648.88,-134.97 660.99,-124.24 671.7,-114.75"/>
<polygon fill="black" stroke="black" points="674.03,-117.36 679.2,-108.1 669.39,-112.12 674.03,-117.36"/>
</g>
<!-- ast.Name object at 0x7fb24c11ee60&#45;&gt;ast.Load object at 0x7fb24fdedf60 -->
<g id="edge32" class="edge">
<title>ast.Name object at 0x7fb24c11ee60&#45;&gt;ast.Load object at 0x7fb24fdedf60</title>
<path fill="none" stroke="black" d="M592.29,-77.32C587.71,-75.47 582.99,-73.63 578.5,-72 533.52,-55.66 480.77,-39.6 446.32,-29.52"/>
<polygon fill="black" stroke="black" points="447.26,-26.14 436.68,-26.71 445.3,-32.86 447.26,-26.14"/>
</g>
<!-- ast.USub object at 0x7fb24fdee800 -->
<g id="node29" class="node">
<title>ast.USub object at 0x7fb24fdee800</title>
<path fill="#66cdaa" stroke="black" d="M752.5,-36C752.5,-36 722.5,-36 722.5,-36 716.5,-36 710.5,-30 710.5,-24 710.5,-24 710.5,-12 710.5,-12 710.5,-6 716.5,0 722.5,0 722.5,0 752.5,0 752.5,0 758.5,0 764.5,-6 764.5,-12 764.5,-12 764.5,-24 764.5,-24 764.5,-30 758.5,-36 752.5,-36"/>
<text text-anchor="middle" x="737.5" y="-14.3" font-family="Times,serif" font-size="14.00">USub</text>
</g>
<!-- ast.UnaryOp object at 0x7fb24c11ded0&#45;&gt;ast.USub object at 0x7fb24fdee800 -->
<g id="edge34" class="edge">
<title>ast.UnaryOp object at 0x7fb24c11ded0&#45;&gt;ast.USub object at 0x7fb24fdee800</title>
<path fill="none" stroke="black" d="M708.14,-71.7C712.63,-63.64 718.06,-53.89 723.02,-44.98"/>
<polygon fill="black" stroke="black" points="726.16,-46.54 727.97,-36.1 720.05,-43.14 726.16,-46.54"/>
</g>
<!-- ast.Constant object at 0x7fb24c11f7f0 -->
<g id="node30" class="node">
<title>ast.Constant object at 0x7fb24c11f7f0</title>
<path fill="#66cdaa" stroke="black" d="M680,-36C680,-36 639,-36 639,-36 633,-36 627,-30 627,-24 627,-24 627,-12 627,-12 627,-6 633,0 639,0 639,0 680,0 680,0 686,0 692,-6 692,-12 692,-12 692,-24 692,-24 692,-30 686,-36 680,-36"/>
<text text-anchor="middle" x="659.5" y="-14.3" font-family="Times,serif" font-size="14.00">Constant</text>
</g>
<!-- ast.UnaryOp object at 0x7fb24c11ded0&#45;&gt;ast.Constant object at 0x7fb24c11f7f0 -->
<g id="edge35" class="edge">
<title>ast.UnaryOp object at 0x7fb24c11ded0&#45;&gt;ast.Constant object at 0x7fb24c11f7f0</title>
<path fill="none" stroke="black" d="M688.86,-71.7C684.37,-63.64 678.94,-53.89 673.98,-44.98"/>
<polygon fill="black" stroke="black" points="676.95,-43.14 669.03,-36.1 670.84,-46.54 676.95,-43.14"/>
</g>
</g>
</svg>
