<?xml version="1.0" encoding="UTF-8" standalone="no"?>
<!DOCTYPE svg PUBLIC "-//W3C//DTD SVG 1.1//EN"
 "http://www.w3.org/Graphics/SVG/1.1/DTD/svg11.dtd">
<!-- Generated by graphviz version 2.43.0 (0)
 -->
<!-- Title: %3 Pages: 1 -->
<svg width="653pt" height="836pt"
 viewBox="0.00 0.00 652.50 836.00" xmlns="http://www.w3.org/2000/svg" xmlns:xlink="http://www.w3.org/1999/xlink">
<g id="graph0" class="graph" transform="scale(1 1) rotate(0) translate(4 832)">
<title>%3</title>
<polygon fill="white" stroke="transparent" points="-4,4 -4,-832 648.5,-832 648.5,4 -4,4"/>
<!-- ast.Module object at 0x7f96e46a89d0 -->
<g id="node1" class="node">
<title>ast.Module object at 0x7f96e46a89d0</title>
<path fill="#66cdaa" stroke="black" d="M530,-828C530,-828 495,-828 495,-828 489,-828 483,-822 483,-816 483,-816 483,-804 483,-804 483,-798 489,-792 495,-792 495,-792 530,-792 530,-792 536,-792 542,-798 542,-804 542,-804 542,-816 542,-816 542,-822 536,-828 530,-828"/>
<text text-anchor="middle" x="512.5" y="-806.3" font-family="Times,serif" font-size="14.00">Module</text>
</g>
<!-- ast.FunctionDef object at 0x7f96e46a81c0 -->
<g id="node2" class="node">
<title>ast.FunctionDef object at 0x7f96e46a81c0</title>
<path fill="#66cdaa" stroke="black" d="M543,-756C543,-756 482,-756 482,-756 476,-756 470,-750 470,-744 470,-744 470,-732 470,-732 470,-726 476,-720 482,-720 482,-720 543,-720 543,-720 549,-720 555,-726 555,-732 555,-732 555,-744 555,-744 555,-750 549,-756 543,-756"/>
<text text-anchor="middle" x="512.5" y="-734.3" font-family="Times,serif" font-size="14.00">FunctionDef</text>
</g>
<!-- ast.Module object at 0x7f96e46a89d0&#45;&gt;ast.FunctionDef object at 0x7f96e46a81c0 -->
<g id="edge1" class="edge">
<title>ast.Module object at 0x7f96e46a89d0&#45;&gt;ast.FunctionDef object at 0x7f96e46a81c0</title>
<path fill="none" stroke="black" d="M512.5,-791.7C512.5,-783.98 512.5,-774.71 512.5,-766.11"/>
<polygon fill="black" stroke="black" points="516,-766.1 512.5,-756.1 509,-766.1 516,-766.1"/>
</g>
<!-- ast.arguments object at 0x7f96e46a8d00 -->
<g id="node3" class="node">
<title>ast.arguments object at 0x7f96e46a8d00</title>
<path fill="#66cdaa" stroke="black" d="M496.5,-684C496.5,-684 446.5,-684 446.5,-684 440.5,-684 434.5,-678 434.5,-672 434.5,-672 434.5,-660 434.5,-660 434.5,-654 440.5,-648 446.5,-648 446.5,-648 496.5,-648 496.5,-648 502.5,-648 508.5,-654 508.5,-660 508.5,-660 508.5,-672 508.5,-672 508.5,-678 502.5,-684 496.5,-684"/>
<text text-anchor="middle" x="471.5" y="-662.3" font-family="Times,serif" font-size="14.00">arguments</text>
</g>
<!-- ast.FunctionDef object at 0x7f96e46a81c0&#45;&gt;ast.arguments object at 0x7f96e46a8d00 -->
<g id="edge2" class="edge">
<title>ast.FunctionDef object at 0x7f96e46a81c0&#45;&gt;ast.arguments object at 0x7f96e46a8d00</title>
<path fill="none" stroke="black" d="M502.37,-719.7C497.65,-711.64 491.94,-701.89 486.72,-692.98"/>
<polygon fill="black" stroke="black" points="489.59,-690.96 481.52,-684.1 483.55,-694.5 489.59,-690.96"/>
</g>
<!-- ast.Return object at 0x7f96e46a9360 -->
<g id="node5" class="node">
<title>ast.Return object at 0x7f96e46a9360</title>
<path fill="#66cdaa" stroke="black" d="M568.5,-684C568.5,-684 538.5,-684 538.5,-684 532.5,-684 526.5,-678 526.5,-672 526.5,-672 526.5,-660 526.5,-660 526.5,-654 532.5,-648 538.5,-648 538.5,-648 568.5,-648 568.5,-648 574.5,-648 580.5,-654 580.5,-660 580.5,-660 580.5,-672 580.5,-672 580.5,-678 574.5,-684 568.5,-684"/>
<text text-anchor="middle" x="553.5" y="-662.3" font-family="Times,serif" font-size="14.00">Return</text>
</g>
<!-- ast.FunctionDef object at 0x7f96e46a81c0&#45;&gt;ast.Return object at 0x7f96e46a9360 -->
<g id="edge4" class="edge">
<title>ast.FunctionDef object at 0x7f96e46a81c0&#45;&gt;ast.Return object at 0x7f96e46a9360</title>
<path fill="none" stroke="black" d="M522.63,-719.7C527.35,-711.64 533.06,-701.89 538.28,-692.98"/>
<polygon fill="black" stroke="black" points="541.45,-694.5 543.48,-684.1 535.41,-690.96 541.45,-694.5"/>
</g>
<!-- ast.arg object at 0x7f96e46ab940 -->
<g id="node4" class="node">
<title>ast.arg object at 0x7f96e46ab940</title>
<path fill="#66cdaa" stroke="black" d="M486.5,-612C486.5,-612 456.5,-612 456.5,-612 450.5,-612 444.5,-606 444.5,-600 444.5,-600 444.5,-588 444.5,-588 444.5,-582 450.5,-576 456.5,-576 456.5,-576 486.5,-576 486.5,-576 492.5,-576 498.5,-582 498.5,-588 498.5,-588 498.5,-600 498.5,-600 498.5,-606 492.5,-612 486.5,-612"/>
<text text-anchor="middle" x="471.5" y="-590.3" font-family="Times,serif" font-size="14.00">arg</text>
</g>
<!-- ast.arguments object at 0x7f96e46a8d00&#45;&gt;ast.arg object at 0x7f96e46ab940 -->
<g id="edge3" class="edge">
<title>ast.arguments object at 0x7f96e46a8d00&#45;&gt;ast.arg object at 0x7f96e46ab940</title>
<path fill="none" stroke="black" d="M471.5,-647.7C471.5,-639.98 471.5,-630.71 471.5,-622.11"/>
<polygon fill="black" stroke="black" points="475,-622.1 471.5,-612.1 468,-622.1 475,-622.1"/>
</g>
<!-- ast.BoolOp object at 0x7f96e46aa530 -->
<g id="node6" class="node">
<title>ast.BoolOp object at 0x7f96e46aa530</title>
<path fill="#66cdaa" stroke="black" d="M571,-612C571,-612 536,-612 536,-612 530,-612 524,-606 524,-600 524,-600 524,-588 524,-588 524,-582 530,-576 536,-576 536,-576 571,-576 571,-576 577,-576 583,-582 583,-588 583,-588 583,-600 583,-600 583,-606 577,-612 571,-612"/>
<text text-anchor="middle" x="553.5" y="-590.3" font-family="Times,serif" font-size="14.00">BoolOp</text>
</g>
<!-- ast.Return object at 0x7f96e46a9360&#45;&gt;ast.BoolOp object at 0x7f96e46aa530 -->
<g id="edge5" class="edge">
<title>ast.Return object at 0x7f96e46a9360&#45;&gt;ast.BoolOp object at 0x7f96e46aa530</title>
<path fill="none" stroke="black" d="M553.5,-647.7C553.5,-639.98 553.5,-630.71 553.5,-622.11"/>
<polygon fill="black" stroke="black" points="557,-622.1 553.5,-612.1 550,-622.1 557,-622.1"/>
</g>
<!-- ast.Or object at 0x7f9756dee110 -->
<g id="node7" class="node">
<title>ast.Or object at 0x7f9756dee110</title>
<path fill="#66cdaa" stroke="black" d="M487.5,-540C487.5,-540 457.5,-540 457.5,-540 451.5,-540 445.5,-534 445.5,-528 445.5,-528 445.5,-516 445.5,-516 445.5,-510 451.5,-504 457.5,-504 457.5,-504 487.5,-504 487.5,-504 493.5,-504 499.5,-510 499.5,-516 499.5,-516 499.5,-528 499.5,-528 499.5,-534 493.5,-540 487.5,-540"/>
<text text-anchor="middle" x="472.5" y="-518.3" font-family="Times,serif" font-size="14.00">Or</text>
</g>
<!-- ast.BoolOp object at 0x7f96e46aa530&#45;&gt;ast.Or object at 0x7f9756dee110 -->
<g id="edge6" class="edge">
<title>ast.BoolOp object at 0x7f96e46aa530&#45;&gt;ast.Or object at 0x7f9756dee110</title>
<path fill="none" stroke="black" d="M533.48,-575.7C523.37,-566.97 510.96,-556.24 499.98,-546.75"/>
<polygon fill="black" stroke="black" points="502.15,-543.99 492.29,-540.1 497.57,-549.29 502.15,-543.99"/>
</g>
<!-- ast.ListComp object at 0x7f96e46a9570 -->
<g id="node8" class="node">
<title>ast.ListComp object at 0x7f96e46a9570</title>
<path fill="#66cdaa" stroke="black" d="M577,-540C577,-540 530,-540 530,-540 524,-540 518,-534 518,-528 518,-528 518,-516 518,-516 518,-510 524,-504 530,-504 530,-504 577,-504 577,-504 583,-504 589,-510 589,-516 589,-516 589,-528 589,-528 589,-534 583,-540 577,-540"/>
<text text-anchor="middle" x="553.5" y="-518.3" font-family="Times,serif" font-size="14.00">ListComp</text>
</g>
<!-- ast.BoolOp object at 0x7f96e46aa530&#45;&gt;ast.ListComp object at 0x7f96e46a9570 -->
<g id="edge7" class="edge">
<title>ast.BoolOp object at 0x7f96e46aa530&#45;&gt;ast.ListComp object at 0x7f96e46a9570</title>
<path fill="none" stroke="black" d="M553.5,-575.7C553.5,-567.98 553.5,-558.71 553.5,-550.11"/>
<polygon fill="black" stroke="black" points="557,-550.1 553.5,-540.1 550,-550.1 557,-550.1"/>
</g>
<!-- ast.List object at 0x7f96e46d98d0 -->
<g id="node39" class="node">
<title>ast.List object at 0x7f96e46d98d0</title>
<path fill="#66cdaa" stroke="black" d="M632.5,-468C632.5,-468 602.5,-468 602.5,-468 596.5,-468 590.5,-462 590.5,-456 590.5,-456 590.5,-444 590.5,-444 590.5,-438 596.5,-432 602.5,-432 602.5,-432 632.5,-432 632.5,-432 638.5,-432 644.5,-438 644.5,-444 644.5,-444 644.5,-456 644.5,-456 644.5,-462 638.5,-468 632.5,-468"/>
<text text-anchor="middle" x="617.5" y="-446.3" font-family="Times,serif" font-size="14.00">List</text>
</g>
<!-- ast.BoolOp object at 0x7f96e46aa530&#45;&gt;ast.List object at 0x7f96e46d98d0 -->
<g id="edge45" class="edge">
<title>ast.BoolOp object at 0x7f96e46aa530&#45;&gt;ast.List object at 0x7f96e46d98d0</title>
<path fill="none" stroke="black" d="M571.31,-575.87C580.43,-566.16 590.96,-553.31 597.5,-540 607.08,-520.52 612.13,-496.38 614.76,-478.16"/>
<polygon fill="black" stroke="black" points="618.24,-478.56 616.05,-468.19 611.3,-477.66 618.24,-478.56"/>
</g>
<!-- ast.Name object at 0x7f96e46abb50 -->
<g id="node9" class="node">
<title>ast.Name object at 0x7f96e46abb50</title>
<path fill="#66cdaa" stroke="black" d="M575.5,-396C575.5,-396 545.5,-396 545.5,-396 539.5,-396 533.5,-390 533.5,-384 533.5,-384 533.5,-372 533.5,-372 533.5,-366 539.5,-360 545.5,-360 545.5,-360 575.5,-360 575.5,-360 581.5,-360 587.5,-366 587.5,-372 587.5,-372 587.5,-384 587.5,-384 587.5,-390 581.5,-396 575.5,-396"/>
<text text-anchor="middle" x="560.5" y="-374.3" font-family="Times,serif" font-size="14.00">Name</text>
</g>
<!-- ast.ListComp object at 0x7f96e46a9570&#45;&gt;ast.Name object at 0x7f96e46abb50 -->
<g id="edge8" class="edge">
<title>ast.ListComp object at 0x7f96e46a9570&#45;&gt;ast.Name object at 0x7f96e46abb50</title>
<path fill="none" stroke="black" d="M554.34,-503.87C555.54,-479.67 557.73,-435.21 559.15,-406.39"/>
<polygon fill="black" stroke="black" points="562.66,-406.35 559.65,-396.19 555.66,-406 562.66,-406.35"/>
</g>
<!-- ast.comprehension object at 0x7f96e46a8ca0 -->
<g id="node11" class="node">
<title>ast.comprehension object at 0x7f96e46a8ca0</title>
<path fill="#66cdaa" stroke="black" d="M467.5,-468C467.5,-468 391.5,-468 391.5,-468 385.5,-468 379.5,-462 379.5,-456 379.5,-456 379.5,-444 379.5,-444 379.5,-438 385.5,-432 391.5,-432 391.5,-432 467.5,-432 467.5,-432 473.5,-432 479.5,-438 479.5,-444 479.5,-444 479.5,-456 479.5,-456 479.5,-462 473.5,-468 467.5,-468"/>
<text text-anchor="middle" x="429.5" y="-446.3" font-family="Times,serif" font-size="14.00">comprehension</text>
</g>
<!-- ast.ListComp object at 0x7f96e46a9570&#45;&gt;ast.comprehension object at 0x7f96e46a8ca0 -->
<g id="edge10" class="edge">
<title>ast.ListComp object at 0x7f96e46a9570&#45;&gt;ast.comprehension object at 0x7f96e46a8ca0</title>
<path fill="none" stroke="black" d="M523.17,-503.88C506.8,-494.64 486.42,-483.13 468.85,-473.21"/>
<polygon fill="black" stroke="black" points="470.38,-470.06 459.95,-468.19 466.94,-476.15 470.38,-470.06"/>
</g>
<!-- ast.Load object at 0x7f9756dedf60 -->
<g id="node10" class="node">
<title>ast.Load object at 0x7f9756dedf60</title>
<path fill="#66cdaa" stroke="black" d="M528.5,-108C528.5,-108 498.5,-108 498.5,-108 492.5,-108 486.5,-102 486.5,-96 486.5,-96 486.5,-84 486.5,-84 486.5,-78 492.5,-72 498.5,-72 498.5,-72 528.5,-72 528.5,-72 534.5,-72 540.5,-78 540.5,-84 540.5,-84 540.5,-96 540.5,-96 540.5,-102 534.5,-108 528.5,-108"/>
<text text-anchor="middle" x="513.5" y="-86.3" font-family="Times,serif" font-size="14.00">Load</text>
</g>
<!-- ast.Name object at 0x7f96e46abb50&#45;&gt;ast.Load object at 0x7f9756dedf60 -->
<g id="edge9" class="edge">
<title>ast.Name object at 0x7f96e46abb50&#45;&gt;ast.Load object at 0x7f9756dedf60</title>
<path fill="none" stroke="black" d="M561.06,-359.95C561.9,-320.93 561.45,-222.42 539.5,-144 536.93,-134.82 532.8,-125.32 528.57,-116.93"/>
<polygon fill="black" stroke="black" points="531.63,-115.22 523.85,-108.03 525.44,-118.5 531.63,-115.22"/>
</g>
<!-- ast.Name object at 0x7f96e46aab30 -->
<g id="node12" class="node">
<title>ast.Name object at 0x7f96e46aab30</title>
<path fill="#66cdaa" stroke="black" d="M176.5,-396C176.5,-396 146.5,-396 146.5,-396 140.5,-396 134.5,-390 134.5,-384 134.5,-384 134.5,-372 134.5,-372 134.5,-366 140.5,-360 146.5,-360 146.5,-360 176.5,-360 176.5,-360 182.5,-360 188.5,-366 188.5,-372 188.5,-372 188.5,-384 188.5,-384 188.5,-390 182.5,-396 176.5,-396"/>
<text text-anchor="middle" x="161.5" y="-374.3" font-family="Times,serif" font-size="14.00">Name</text>
</g>
<!-- ast.comprehension object at 0x7f96e46a8ca0&#45;&gt;ast.Name object at 0x7f96e46aab30 -->
<g id="edge11" class="edge">
<title>ast.comprehension object at 0x7f96e46a8ca0&#45;&gt;ast.Name object at 0x7f96e46aab30</title>
<path fill="none" stroke="black" d="M379.41,-435.92C326.9,-422.2 245.63,-400.98 198.6,-388.69"/>
<polygon fill="black" stroke="black" points="199.39,-385.28 188.83,-386.14 197.62,-392.05 199.39,-385.28"/>
</g>
<!-- ast.Subscript object at 0x7f96e46aaef0 -->
<g id="node14" class="node">
<title>ast.Subscript object at 0x7f96e46aaef0</title>
<path fill="#66cdaa" stroke="black" d="M491.5,-252C491.5,-252 447.5,-252 447.5,-252 441.5,-252 435.5,-246 435.5,-240 435.5,-240 435.5,-228 435.5,-228 435.5,-222 441.5,-216 447.5,-216 447.5,-216 491.5,-216 491.5,-216 497.5,-216 503.5,-222 503.5,-228 503.5,-228 503.5,-240 503.5,-240 503.5,-246 497.5,-252 491.5,-252"/>
<text text-anchor="middle" x="469.5" y="-230.3" font-family="Times,serif" font-size="14.00">Subscript</text>
</g>
<!-- ast.comprehension object at 0x7f96e46a8ca0&#45;&gt;ast.Subscript object at 0x7f96e46aaef0 -->
<g id="edge13" class="edge">
<title>ast.comprehension object at 0x7f96e46a8ca0&#45;&gt;ast.Subscript object at 0x7f96e46aaef0</title>
<path fill="none" stroke="black" d="M432.71,-431.85C439.64,-394.75 456.08,-306.81 464.43,-262.1"/>
<polygon fill="black" stroke="black" points="467.88,-262.71 466.28,-252.23 461,-261.42 467.88,-262.71"/>
</g>
<!-- ast.BoolOp object at 0x7f96e46aa560 -->
<g id="node22" class="node">
<title>ast.BoolOp object at 0x7f96e46aa560</title>
<path fill="#66cdaa" stroke="black" d="M338,-396C338,-396 303,-396 303,-396 297,-396 291,-390 291,-384 291,-384 291,-372 291,-372 291,-366 297,-360 303,-360 303,-360 338,-360 338,-360 344,-360 350,-366 350,-372 350,-372 350,-384 350,-384 350,-390 344,-396 338,-396"/>
<text text-anchor="middle" x="320.5" y="-374.3" font-family="Times,serif" font-size="14.00">BoolOp</text>
</g>
<!-- ast.comprehension object at 0x7f96e46a8ca0&#45;&gt;ast.BoolOp object at 0x7f96e46aa560 -->
<g id="edge23" class="edge">
<title>ast.comprehension object at 0x7f96e46a8ca0&#45;&gt;ast.BoolOp object at 0x7f96e46aa560</title>
<path fill="none" stroke="black" d="M402.84,-431.88C388.72,-422.81 371.19,-411.55 355.94,-401.76"/>
<polygon fill="black" stroke="black" points="357.57,-398.65 347.27,-396.19 353.79,-404.54 357.57,-398.65"/>
</g>
<!-- ast.Store object at 0x7f9756dedfc0 -->
<g id="node13" class="node">
<title>ast.Store object at 0x7f9756dedfc0</title>
<path fill="#66cdaa" stroke="black" d="M131.5,-324C131.5,-324 101.5,-324 101.5,-324 95.5,-324 89.5,-318 89.5,-312 89.5,-312 89.5,-300 89.5,-300 89.5,-294 95.5,-288 101.5,-288 101.5,-288 131.5,-288 131.5,-288 137.5,-288 143.5,-294 143.5,-300 143.5,-300 143.5,-312 143.5,-312 143.5,-318 137.5,-324 131.5,-324"/>
<text text-anchor="middle" x="116.5" y="-302.3" font-family="Times,serif" font-size="14.00">Store</text>
</g>
<!-- ast.Name object at 0x7f96e46aab30&#45;&gt;ast.Store object at 0x7f9756dedfc0 -->
<g id="edge12" class="edge">
<title>ast.Name object at 0x7f96e46aab30&#45;&gt;ast.Store object at 0x7f9756dedfc0</title>
<path fill="none" stroke="black" d="M150.38,-359.7C145.14,-351.56 138.8,-341.69 133.02,-332.7"/>
<polygon fill="black" stroke="black" points="135.85,-330.62 127.5,-324.1 129.96,-334.41 135.85,-330.62"/>
</g>
<!-- ast.Subscript object at 0x7f96e46aaef0&#45;&gt;ast.Load object at 0x7f9756dedf60 -->
<g id="edge22" class="edge">
<title>ast.Subscript object at 0x7f96e46aaef0&#45;&gt;ast.Load object at 0x7f9756dedf60</title>
<path fill="none" stroke="black" d="M493.98,-215.77C504.9,-206.56 516.62,-194.19 522.5,-180 530.69,-160.24 527.46,-135.98 522.73,-117.78"/>
<polygon fill="black" stroke="black" points="526.07,-116.74 519.93,-108.1 519.35,-118.68 526.07,-116.74"/>
</g>
<!-- ast.Name object at 0x7f96e46ab340 -->
<g id="node15" class="node">
<title>ast.Name object at 0x7f96e46ab340</title>
<path fill="#66cdaa" stroke="black" d="M501.5,-180C501.5,-180 471.5,-180 471.5,-180 465.5,-180 459.5,-174 459.5,-168 459.5,-168 459.5,-156 459.5,-156 459.5,-150 465.5,-144 471.5,-144 471.5,-144 501.5,-144 501.5,-144 507.5,-144 513.5,-150 513.5,-156 513.5,-156 513.5,-168 513.5,-168 513.5,-174 507.5,-180 501.5,-180"/>
<text text-anchor="middle" x="486.5" y="-158.3" font-family="Times,serif" font-size="14.00">Name</text>
</g>
<!-- ast.Subscript object at 0x7f96e46aaef0&#45;&gt;ast.Name object at 0x7f96e46ab340 -->
<g id="edge14" class="edge">
<title>ast.Subscript object at 0x7f96e46aaef0&#45;&gt;ast.Name object at 0x7f96e46ab340</title>
<path fill="none" stroke="black" d="M473.7,-215.7C475.6,-207.9 477.88,-198.51 479.98,-189.83"/>
<polygon fill="black" stroke="black" points="483.39,-190.65 482.35,-180.1 476.58,-189 483.39,-190.65"/>
</g>
<!-- ast.Slice object at 0x7f96e46abeb0 -->
<g id="node16" class="node">
<title>ast.Slice object at 0x7f96e46abeb0</title>
<path fill="#66cdaa" stroke="black" d="M285.5,-180C285.5,-180 255.5,-180 255.5,-180 249.5,-180 243.5,-174 243.5,-168 243.5,-168 243.5,-156 243.5,-156 243.5,-150 249.5,-144 255.5,-144 255.5,-144 285.5,-144 285.5,-144 291.5,-144 297.5,-150 297.5,-156 297.5,-156 297.5,-168 297.5,-168 297.5,-174 291.5,-180 285.5,-180"/>
<text text-anchor="middle" x="270.5" y="-158.3" font-family="Times,serif" font-size="14.00">Slice</text>
</g>
<!-- ast.Subscript object at 0x7f96e46aaef0&#45;&gt;ast.Slice object at 0x7f96e46abeb0 -->
<g id="edge16" class="edge">
<title>ast.Subscript object at 0x7f96e46aaef0&#45;&gt;ast.Slice object at 0x7f96e46abeb0</title>
<path fill="none" stroke="black" d="M435.34,-223.27C404.06,-214.06 356.41,-199.27 307.36,-180.12"/>
<polygon fill="black" stroke="black" points="308.45,-176.78 297.86,-176.36 305.87,-183.29 308.45,-176.78"/>
</g>
<!-- ast.Name object at 0x7f96e46ab340&#45;&gt;ast.Load object at 0x7f9756dedf60 -->
<g id="edge15" class="edge">
<title>ast.Name object at 0x7f96e46ab340&#45;&gt;ast.Load object at 0x7f9756dedf60</title>
<path fill="none" stroke="black" d="M493.17,-143.7C496.21,-135.81 499.88,-126.3 503.26,-117.55"/>
<polygon fill="black" stroke="black" points="506.57,-118.69 506.9,-108.1 500.04,-116.17 506.57,-118.69"/>
</g>
<!-- ast.Constant object at 0x7f96e46a8760 -->
<g id="node17" class="node">
<title>ast.Constant object at 0x7f96e46a8760</title>
<path fill="#66cdaa" stroke="black" d="M369,-108C369,-108 328,-108 328,-108 322,-108 316,-102 316,-96 316,-96 316,-84 316,-84 316,-78 322,-72 328,-72 328,-72 369,-72 369,-72 375,-72 381,-78 381,-84 381,-84 381,-96 381,-96 381,-102 375,-108 369,-108"/>
<text text-anchor="middle" x="348.5" y="-86.3" font-family="Times,serif" font-size="14.00">Constant</text>
</g>
<!-- ast.Slice object at 0x7f96e46abeb0&#45;&gt;ast.Constant object at 0x7f96e46a8760 -->
<g id="edge17" class="edge">
<title>ast.Slice object at 0x7f96e46abeb0&#45;&gt;ast.Constant object at 0x7f96e46a8760</title>
<path fill="none" stroke="black" d="M289.78,-143.7C299.42,-135.05 311.23,-124.45 321.73,-115.03"/>
<polygon fill="black" stroke="black" points="324.34,-117.39 329.44,-108.1 319.66,-112.18 324.34,-117.39"/>
</g>
<!-- ast.BinOp object at 0x7f96e46a8c10 -->
<g id="node18" class="node">
<title>ast.BinOp object at 0x7f96e46a8c10</title>
<path fill="#66cdaa" stroke="black" d="M285.5,-108C285.5,-108 255.5,-108 255.5,-108 249.5,-108 243.5,-102 243.5,-96 243.5,-96 243.5,-84 243.5,-84 243.5,-78 249.5,-72 255.5,-72 255.5,-72 285.5,-72 285.5,-72 291.5,-72 297.5,-78 297.5,-84 297.5,-84 297.5,-96 297.5,-96 297.5,-102 291.5,-108 285.5,-108"/>
<text text-anchor="middle" x="270.5" y="-86.3" font-family="Times,serif" font-size="14.00">BinOp</text>
</g>
<!-- ast.Slice object at 0x7f96e46abeb0&#45;&gt;ast.BinOp object at 0x7f96e46a8c10 -->
<g id="edge18" class="edge">
<title>ast.Slice object at 0x7f96e46abeb0&#45;&gt;ast.BinOp object at 0x7f96e46a8c10</title>
<path fill="none" stroke="black" d="M270.5,-143.7C270.5,-135.98 270.5,-126.71 270.5,-118.11"/>
<polygon fill="black" stroke="black" points="274,-118.1 270.5,-108.1 267,-118.1 274,-118.1"/>
</g>
<!-- ast.Constant object at 0x7f96e46a8160 -->
<g id="node19" class="node">
<title>ast.Constant object at 0x7f96e46a8160</title>
<path fill="#66cdaa" stroke="black" d="M213,-36C213,-36 172,-36 172,-36 166,-36 160,-30 160,-24 160,-24 160,-12 160,-12 160,-6 166,0 172,0 172,0 213,0 213,0 219,0 225,-6 225,-12 225,-12 225,-24 225,-24 225,-30 219,-36 213,-36"/>
<text text-anchor="middle" x="192.5" y="-14.3" font-family="Times,serif" font-size="14.00">Constant</text>
</g>
<!-- ast.BinOp object at 0x7f96e46a8c10&#45;&gt;ast.Constant object at 0x7f96e46a8160 -->
<g id="edge19" class="edge">
<title>ast.BinOp object at 0x7f96e46a8c10&#45;&gt;ast.Constant object at 0x7f96e46a8160</title>
<path fill="none" stroke="black" d="M251.22,-71.7C241.58,-63.05 229.77,-52.45 219.27,-43.03"/>
<polygon fill="black" stroke="black" points="221.34,-40.18 211.56,-36.1 216.66,-45.39 221.34,-40.18"/>
</g>
<!-- ast.Add object at 0x7f9756dee1a0 -->
<g id="node20" class="node">
<title>ast.Add object at 0x7f9756dee1a0</title>
<path fill="#66cdaa" stroke="black" d="M285.5,-36C285.5,-36 255.5,-36 255.5,-36 249.5,-36 243.5,-30 243.5,-24 243.5,-24 243.5,-12 243.5,-12 243.5,-6 249.5,0 255.5,0 255.5,0 285.5,0 285.5,0 291.5,0 297.5,-6 297.5,-12 297.5,-12 297.5,-24 297.5,-24 297.5,-30 291.5,-36 285.5,-36"/>
<text text-anchor="middle" x="270.5" y="-14.3" font-family="Times,serif" font-size="14.00">Add</text>
</g>
<!-- ast.BinOp object at 0x7f96e46a8c10&#45;&gt;ast.Add object at 0x7f9756dee1a0 -->
<g id="edge20" class="edge">
<title>ast.BinOp object at 0x7f96e46a8c10&#45;&gt;ast.Add object at 0x7f9756dee1a0</title>
<path fill="none" stroke="black" d="M270.5,-71.7C270.5,-63.98 270.5,-54.71 270.5,-46.11"/>
<polygon fill="black" stroke="black" points="274,-46.1 270.5,-36.1 267,-46.1 274,-46.1"/>
</g>
<!-- ast.Constant object at 0x7f96e46ab2e0 -->
<g id="node21" class="node">
<title>ast.Constant object at 0x7f96e46ab2e0</title>
<path fill="#66cdaa" stroke="black" d="M369,-36C369,-36 328,-36 328,-36 322,-36 316,-30 316,-24 316,-24 316,-12 316,-12 316,-6 322,0 328,0 328,0 369,0 369,0 375,0 381,-6 381,-12 381,-12 381,-24 381,-24 381,-30 375,-36 369,-36"/>
<text text-anchor="middle" x="348.5" y="-14.3" font-family="Times,serif" font-size="14.00">Constant</text>
</g>
<!-- ast.BinOp object at 0x7f96e46a8c10&#45;&gt;ast.Constant object at 0x7f96e46ab2e0 -->
<g id="edge21" class="edge">
<title>ast.BinOp object at 0x7f96e46a8c10&#45;&gt;ast.Constant object at 0x7f96e46ab2e0</title>
<path fill="none" stroke="black" d="M289.78,-71.7C299.42,-63.05 311.23,-52.45 321.73,-43.03"/>
<polygon fill="black" stroke="black" points="324.34,-45.39 329.44,-36.1 319.66,-40.18 324.34,-45.39"/>
</g>
<!-- ast.And object at 0x7f9756dee0b0 -->
<g id="node23" class="node">
<title>ast.And object at 0x7f9756dee0b0</title>
<path fill="#66cdaa" stroke="black" d="M374.5,-324C374.5,-324 344.5,-324 344.5,-324 338.5,-324 332.5,-318 332.5,-312 332.5,-312 332.5,-300 332.5,-300 332.5,-294 338.5,-288 344.5,-288 344.5,-288 374.5,-288 374.5,-288 380.5,-288 386.5,-294 386.5,-300 386.5,-300 386.5,-312 386.5,-312 386.5,-318 380.5,-324 374.5,-324"/>
<text text-anchor="middle" x="359.5" y="-302.3" font-family="Times,serif" font-size="14.00">And</text>
</g>
<!-- ast.BoolOp object at 0x7f96e46aa560&#45;&gt;ast.And object at 0x7f9756dee0b0 -->
<g id="edge24" class="edge">
<title>ast.BoolOp object at 0x7f96e46aa560&#45;&gt;ast.And object at 0x7f9756dee0b0</title>
<path fill="none" stroke="black" d="M330.14,-359.7C334.63,-351.64 340.06,-341.89 345.02,-332.98"/>
<polygon fill="black" stroke="black" points="348.16,-334.54 349.97,-324.1 342.05,-331.14 348.16,-334.54"/>
</g>
<!-- ast.Compare object at 0x7f96e46abaf0 -->
<g id="node24" class="node">
<title>ast.Compare object at 0x7f96e46abaf0</title>
<path fill="#66cdaa" stroke="black" d="M217,-324C217,-324 174,-324 174,-324 168,-324 162,-318 162,-312 162,-312 162,-300 162,-300 162,-294 168,-288 174,-288 174,-288 217,-288 217,-288 223,-288 229,-294 229,-300 229,-300 229,-312 229,-312 229,-318 223,-324 217,-324"/>
<text text-anchor="middle" x="195.5" y="-302.3" font-family="Times,serif" font-size="14.00">Compare</text>
</g>
<!-- ast.BoolOp object at 0x7f96e46aa560&#45;&gt;ast.Compare object at 0x7f96e46abaf0 -->
<g id="edge25" class="edge">
<title>ast.BoolOp object at 0x7f96e46aa560&#45;&gt;ast.Compare object at 0x7f96e46abaf0</title>
<path fill="none" stroke="black" d="M290.88,-360.41C274.28,-351.12 253.35,-339.4 235.33,-329.31"/>
<polygon fill="black" stroke="black" points="236.65,-326.03 226.22,-324.2 233.23,-332.14 236.65,-326.03"/>
</g>
<!-- ast.Compare object at 0x7f96f560cbe0 -->
<g id="node33" class="node">
<title>ast.Compare object at 0x7f96f560cbe0</title>
<path fill="#66cdaa" stroke="black" d="M302,-324C302,-324 259,-324 259,-324 253,-324 247,-318 247,-312 247,-312 247,-300 247,-300 247,-294 253,-288 259,-288 259,-288 302,-288 302,-288 308,-288 314,-294 314,-300 314,-300 314,-312 314,-312 314,-318 308,-324 302,-324"/>
<text text-anchor="middle" x="280.5" y="-302.3" font-family="Times,serif" font-size="14.00">Compare</text>
</g>
<!-- ast.BoolOp object at 0x7f96e46aa560&#45;&gt;ast.Compare object at 0x7f96f560cbe0 -->
<g id="edge35" class="edge">
<title>ast.BoolOp object at 0x7f96e46aa560&#45;&gt;ast.Compare object at 0x7f96f560cbe0</title>
<path fill="none" stroke="black" d="M310.61,-359.7C306.01,-351.64 300.44,-341.89 295.35,-332.98"/>
<polygon fill="black" stroke="black" points="298.27,-331.05 290.27,-324.1 292.2,-334.52 298.27,-331.05"/>
</g>
<!-- ast.BinOp object at 0x7f96f560f970 -->
<g id="node25" class="node">
<title>ast.BinOp object at 0x7f96f560f970</title>
<path fill="#66cdaa" stroke="black" d="M144.5,-252C144.5,-252 114.5,-252 114.5,-252 108.5,-252 102.5,-246 102.5,-240 102.5,-240 102.5,-228 102.5,-228 102.5,-222 108.5,-216 114.5,-216 114.5,-216 144.5,-216 144.5,-216 150.5,-216 156.5,-222 156.5,-228 156.5,-228 156.5,-240 156.5,-240 156.5,-246 150.5,-252 144.5,-252"/>
<text text-anchor="middle" x="129.5" y="-230.3" font-family="Times,serif" font-size="14.00">BinOp</text>
</g>
<!-- ast.Compare object at 0x7f96e46abaf0&#45;&gt;ast.BinOp object at 0x7f96f560f970 -->
<g id="edge26" class="edge">
<title>ast.Compare object at 0x7f96e46abaf0&#45;&gt;ast.BinOp object at 0x7f96f560f970</title>
<path fill="none" stroke="black" d="M179.19,-287.7C171.19,-279.22 161.43,-268.86 152.68,-259.58"/>
<polygon fill="black" stroke="black" points="155.03,-256.98 145.63,-252.1 149.94,-261.78 155.03,-256.98"/>
</g>
<!-- ast.Eq object at 0x7f9756dee890 -->
<g id="node31" class="node">
<title>ast.Eq object at 0x7f9756dee890</title>
<path fill="#66cdaa" stroke="black" d="M216.5,-252C216.5,-252 186.5,-252 186.5,-252 180.5,-252 174.5,-246 174.5,-240 174.5,-240 174.5,-228 174.5,-228 174.5,-222 180.5,-216 186.5,-216 186.5,-216 216.5,-216 216.5,-216 222.5,-216 228.5,-222 228.5,-228 228.5,-228 228.5,-240 228.5,-240 228.5,-246 222.5,-252 216.5,-252"/>
<text text-anchor="middle" x="201.5" y="-230.3" font-family="Times,serif" font-size="14.00">Eq</text>
</g>
<!-- ast.Compare object at 0x7f96e46abaf0&#45;&gt;ast.Eq object at 0x7f9756dee890 -->
<g id="edge33" class="edge">
<title>ast.Compare object at 0x7f96e46abaf0&#45;&gt;ast.Eq object at 0x7f9756dee890</title>
<path fill="none" stroke="black" d="M196.98,-287.7C197.64,-279.98 198.44,-270.71 199.18,-262.11"/>
<polygon fill="black" stroke="black" points="202.67,-262.37 200.03,-252.1 195.69,-261.77 202.67,-262.37"/>
</g>
<!-- ast.Constant object at 0x7f96f560cb50 -->
<g id="node32" class="node">
<title>ast.Constant object at 0x7f96f560cb50</title>
<path fill="#66cdaa" stroke="black" d="M72,-252C72,-252 31,-252 31,-252 25,-252 19,-246 19,-240 19,-240 19,-228 19,-228 19,-222 25,-216 31,-216 31,-216 72,-216 72,-216 78,-216 84,-222 84,-228 84,-228 84,-240 84,-240 84,-246 78,-252 72,-252"/>
<text text-anchor="middle" x="51.5" y="-230.3" font-family="Times,serif" font-size="14.00">Constant</text>
</g>
<!-- ast.Compare object at 0x7f96e46abaf0&#45;&gt;ast.Constant object at 0x7f96f560cb50 -->
<g id="edge34" class="edge">
<title>ast.Compare object at 0x7f96e46abaf0&#45;&gt;ast.Constant object at 0x7f96f560cb50</title>
<path fill="none" stroke="black" d="M161.74,-288.59C141.23,-278.62 114.88,-265.81 93.09,-255.22"/>
<polygon fill="black" stroke="black" points="94.58,-252.05 84.06,-250.83 91.52,-258.35 94.58,-252.05"/>
</g>
<!-- ast.Name object at 0x7f96f560eec0 -->
<g id="node26" class="node">
<title>ast.Name object at 0x7f96f560eec0</title>
<path fill="#66cdaa" stroke="black" d="M357.5,-180C357.5,-180 327.5,-180 327.5,-180 321.5,-180 315.5,-174 315.5,-168 315.5,-168 315.5,-156 315.5,-156 315.5,-150 321.5,-144 327.5,-144 327.5,-144 357.5,-144 357.5,-144 363.5,-144 369.5,-150 369.5,-156 369.5,-156 369.5,-168 369.5,-168 369.5,-174 363.5,-180 357.5,-180"/>
<text text-anchor="middle" x="342.5" y="-158.3" font-family="Times,serif" font-size="14.00">Name</text>
</g>
<!-- ast.BinOp object at 0x7f96f560f970&#45;&gt;ast.Name object at 0x7f96f560eec0 -->
<g id="edge27" class="edge">
<title>ast.BinOp object at 0x7f96f560f970&#45;&gt;ast.Name object at 0x7f96f560eec0</title>
<path fill="none" stroke="black" d="M156.79,-219.45C159.7,-218.21 162.64,-217.03 165.5,-216 223.5,-195.12 243.75,-201.24 305.75,-179.9"/>
<polygon fill="black" stroke="black" points="306.96,-183.19 315.21,-176.55 304.62,-176.59 306.96,-183.19"/>
</g>
<!-- ast.Mod object at 0x7f9756dee380 -->
<g id="node27" class="node">
<title>ast.Mod object at 0x7f9756dee380</title>
<path fill="#66cdaa" stroke="black" d="M127.5,-180C127.5,-180 97.5,-180 97.5,-180 91.5,-180 85.5,-174 85.5,-168 85.5,-168 85.5,-156 85.5,-156 85.5,-150 91.5,-144 97.5,-144 97.5,-144 127.5,-144 127.5,-144 133.5,-144 139.5,-150 139.5,-156 139.5,-156 139.5,-168 139.5,-168 139.5,-174 133.5,-180 127.5,-180"/>
<text text-anchor="middle" x="112.5" y="-158.3" font-family="Times,serif" font-size="14.00">Mod</text>
</g>
<!-- ast.BinOp object at 0x7f96f560f970&#45;&gt;ast.Mod object at 0x7f9756dee380 -->
<g id="edge29" class="edge">
<title>ast.BinOp object at 0x7f96f560f970&#45;&gt;ast.Mod object at 0x7f9756dee380</title>
<path fill="none" stroke="black" d="M125.3,-215.7C123.4,-207.9 121.12,-198.51 119.02,-189.83"/>
<polygon fill="black" stroke="black" points="122.42,-189 116.65,-180.1 115.61,-190.65 122.42,-189"/>
</g>
<!-- ast.UnaryOp object at 0x7f96f560c730 -->
<g id="node28" class="node">
<title>ast.UnaryOp object at 0x7f96f560c730</title>
<path fill="#66cdaa" stroke="black" d="M55,-180C55,-180 12,-180 12,-180 6,-180 0,-174 0,-168 0,-168 0,-156 0,-156 0,-150 6,-144 12,-144 12,-144 55,-144 55,-144 61,-144 67,-150 67,-156 67,-156 67,-168 67,-168 67,-174 61,-180 55,-180"/>
<text text-anchor="middle" x="33.5" y="-158.3" font-family="Times,serif" font-size="14.00">UnaryOp</text>
</g>
<!-- ast.BinOp object at 0x7f96f560f970&#45;&gt;ast.UnaryOp object at 0x7f96f560c730 -->
<g id="edge30" class="edge">
<title>ast.BinOp object at 0x7f96f560f970&#45;&gt;ast.UnaryOp object at 0x7f96f560c730</title>
<path fill="none" stroke="black" d="M105.77,-215.7C93.56,-206.8 78.51,-195.82 65.32,-186.2"/>
<polygon fill="black" stroke="black" points="67.1,-183.17 56.96,-180.1 62.98,-188.82 67.1,-183.17"/>
</g>
<!-- ast.Name object at 0x7f96f560eec0&#45;&gt;ast.Load object at 0x7f9756dedf60 -->
<g id="edge28" class="edge">
<title>ast.Name object at 0x7f96f560eec0&#45;&gt;ast.Load object at 0x7f9756dedf60</title>
<path fill="none" stroke="black" d="M369.54,-147.99C372.55,-146.62 375.58,-145.26 378.5,-144 411.44,-129.78 449.54,-114.96 476.85,-104.63"/>
<polygon fill="black" stroke="black" points="478.27,-107.83 486.39,-101.03 475.8,-101.28 478.27,-107.83"/>
</g>
<!-- ast.USub object at 0x7f9756dee800 -->
<g id="node29" class="node">
<title>ast.USub object at 0x7f9756dee800</title>
<path fill="#66cdaa" stroke="black" d="M127.5,-108C127.5,-108 97.5,-108 97.5,-108 91.5,-108 85.5,-102 85.5,-96 85.5,-96 85.5,-84 85.5,-84 85.5,-78 91.5,-72 97.5,-72 97.5,-72 127.5,-72 127.5,-72 133.5,-72 139.5,-78 139.5,-84 139.5,-84 139.5,-96 139.5,-96 139.5,-102 133.5,-108 127.5,-108"/>
<text text-anchor="middle" x="112.5" y="-86.3" font-family="Times,serif" font-size="14.00">USub</text>
</g>
<!-- ast.UnaryOp object at 0x7f96f560c730&#45;&gt;ast.USub object at 0x7f9756dee800 -->
<g id="edge31" class="edge">
<title>ast.UnaryOp object at 0x7f96f560c730&#45;&gt;ast.USub object at 0x7f9756dee800</title>
<path fill="none" stroke="black" d="M53.03,-143.7C62.88,-134.97 74.99,-124.24 85.7,-114.75"/>
<polygon fill="black" stroke="black" points="88.03,-117.36 93.2,-108.1 83.39,-112.12 88.03,-117.36"/>
</g>
<!-- ast.Constant object at 0x7f96f560e9b0 -->
<g id="node30" class="node">
<title>ast.Constant object at 0x7f96f560e9b0</title>
<path fill="#66cdaa" stroke="black" d="M54,-108C54,-108 13,-108 13,-108 7,-108 1,-102 1,-96 1,-96 1,-84 1,-84 1,-78 7,-72 13,-72 13,-72 54,-72 54,-72 60,-72 66,-78 66,-84 66,-84 66,-96 66,-96 66,-102 60,-108 54,-108"/>
<text text-anchor="middle" x="33.5" y="-86.3" font-family="Times,serif" font-size="14.00">Constant</text>
</g>
<!-- ast.UnaryOp object at 0x7f96f560c730&#45;&gt;ast.Constant object at 0x7f96f560e9b0 -->
<g id="edge32" class="edge">
<title>ast.UnaryOp object at 0x7f96f560c730&#45;&gt;ast.Constant object at 0x7f96f560e9b0</title>
<path fill="none" stroke="black" d="M33.5,-143.7C33.5,-135.98 33.5,-126.71 33.5,-118.11"/>
<polygon fill="black" stroke="black" points="37,-118.1 33.5,-108.1 30,-118.1 37,-118.1"/>
</g>
<!-- ast.Compare object at 0x7f96f560cbe0&#45;&gt;ast.Eq object at 0x7f9756dee890 -->
<g id="edge43" class="edge">
<title>ast.Compare object at 0x7f96f560cbe0&#45;&gt;ast.Eq object at 0x7f9756dee890</title>
<path fill="none" stroke="black" d="M260.97,-287.7C251.12,-278.97 239.01,-268.24 228.3,-258.75"/>
<polygon fill="black" stroke="black" points="230.61,-256.12 220.8,-252.1 225.97,-261.36 230.61,-256.12"/>
</g>
<!-- ast.BinOp object at 0x7f96f560e5f0 -->
<g id="node34" class="node">
<title>ast.BinOp object at 0x7f96f560e5f0</title>
<path fill="#66cdaa" stroke="black" d="M288.5,-252C288.5,-252 258.5,-252 258.5,-252 252.5,-252 246.5,-246 246.5,-240 246.5,-240 246.5,-228 246.5,-228 246.5,-222 252.5,-216 258.5,-216 258.5,-216 288.5,-216 288.5,-216 294.5,-216 300.5,-222 300.5,-228 300.5,-228 300.5,-240 300.5,-240 300.5,-246 294.5,-252 288.5,-252"/>
<text text-anchor="middle" x="273.5" y="-230.3" font-family="Times,serif" font-size="14.00">BinOp</text>
</g>
<!-- ast.Compare object at 0x7f96f560cbe0&#45;&gt;ast.BinOp object at 0x7f96f560e5f0 -->
<g id="edge36" class="edge">
<title>ast.Compare object at 0x7f96f560cbe0&#45;&gt;ast.BinOp object at 0x7f96f560e5f0</title>
<path fill="none" stroke="black" d="M278.77,-287.7C278,-279.98 277.07,-270.71 276.21,-262.11"/>
<polygon fill="black" stroke="black" points="279.69,-261.71 275.21,-252.1 272.72,-262.4 279.69,-261.71"/>
</g>
<!-- ast.Constant object at 0x7f96f560d630 -->
<g id="node38" class="node">
<title>ast.Constant object at 0x7f96f560d630</title>
<path fill="#66cdaa" stroke="black" d="M372,-252C372,-252 331,-252 331,-252 325,-252 319,-246 319,-240 319,-240 319,-228 319,-228 319,-222 325,-216 331,-216 331,-216 372,-216 372,-216 378,-216 384,-222 384,-228 384,-228 384,-240 384,-240 384,-246 378,-252 372,-252"/>
<text text-anchor="middle" x="351.5" y="-230.3" font-family="Times,serif" font-size="14.00">Constant</text>
</g>
<!-- ast.Compare object at 0x7f96f560cbe0&#45;&gt;ast.Constant object at 0x7f96f560d630 -->
<g id="edge44" class="edge">
<title>ast.Compare object at 0x7f96f560cbe0&#45;&gt;ast.Constant object at 0x7f96f560d630</title>
<path fill="none" stroke="black" d="M298.05,-287.7C306.73,-279.14 317.36,-268.66 326.85,-259.3"/>
<polygon fill="black" stroke="black" points="329.49,-261.62 334.15,-252.1 324.57,-256.63 329.49,-261.62"/>
</g>
<!-- ast.BinOp object at 0x7f96f560e5f0&#45;&gt;ast.Mod object at 0x7f9756dee380 -->
<g id="edge39" class="edge">
<title>ast.BinOp object at 0x7f96f560e5f0&#45;&gt;ast.Mod object at 0x7f9756dee380</title>
<path fill="none" stroke="black" d="M246.45,-220.02C243.44,-218.64 240.41,-217.28 237.5,-216 201.09,-200.05 189.2,-197.43 148.9,-180.05"/>
<polygon fill="black" stroke="black" points="150.12,-176.76 139.55,-175.98 147.32,-183.18 150.12,-176.76"/>
</g>
<!-- ast.Name object at 0x7f96f560ed10 -->
<g id="node35" class="node">
<title>ast.Name object at 0x7f96f560ed10</title>
<path fill="#66cdaa" stroke="black" d="M429.5,-180C429.5,-180 399.5,-180 399.5,-180 393.5,-180 387.5,-174 387.5,-168 387.5,-168 387.5,-156 387.5,-156 387.5,-150 393.5,-144 399.5,-144 399.5,-144 429.5,-144 429.5,-144 435.5,-144 441.5,-150 441.5,-156 441.5,-156 441.5,-168 441.5,-168 441.5,-174 435.5,-180 429.5,-180"/>
<text text-anchor="middle" x="414.5" y="-158.3" font-family="Times,serif" font-size="14.00">Name</text>
</g>
<!-- ast.BinOp object at 0x7f96f560e5f0&#45;&gt;ast.Name object at 0x7f96f560ed10 -->
<g id="edge37" class="edge">
<title>ast.BinOp object at 0x7f96f560e5f0&#45;&gt;ast.Name object at 0x7f96f560ed10</title>
<path fill="none" stroke="black" d="M300.69,-219.5C322.73,-208.56 353.99,-193.04 378.18,-181.03"/>
<polygon fill="black" stroke="black" points="380,-184.04 387.4,-176.46 376.88,-177.77 380,-184.04"/>
</g>
<!-- ast.UnaryOp object at 0x7f96f560fd00 -->
<g id="node36" class="node">
<title>ast.UnaryOp object at 0x7f96f560fd00</title>
<path fill="#66cdaa" stroke="black" d="M213,-180C213,-180 170,-180 170,-180 164,-180 158,-174 158,-168 158,-168 158,-156 158,-156 158,-150 164,-144 170,-144 170,-144 213,-144 213,-144 219,-144 225,-150 225,-156 225,-156 225,-168 225,-168 225,-174 219,-180 213,-180"/>
<text text-anchor="middle" x="191.5" y="-158.3" font-family="Times,serif" font-size="14.00">UnaryOp</text>
</g>
<!-- ast.BinOp object at 0x7f96f560e5f0&#45;&gt;ast.UnaryOp object at 0x7f96f560fd00 -->
<g id="edge40" class="edge">
<title>ast.BinOp object at 0x7f96f560e5f0&#45;&gt;ast.UnaryOp object at 0x7f96f560fd00</title>
<path fill="none" stroke="black" d="M253.23,-215.7C243,-206.97 230.44,-196.24 219.32,-186.75"/>
<polygon fill="black" stroke="black" points="221.41,-183.94 211.54,-180.1 216.87,-189.26 221.41,-183.94"/>
</g>
<!-- ast.Name object at 0x7f96f560ed10&#45;&gt;ast.Load object at 0x7f9756dedf60 -->
<g id="edge38" class="edge">
<title>ast.Name object at 0x7f96f560ed10&#45;&gt;ast.Load object at 0x7f9756dedf60</title>
<path fill="none" stroke="black" d="M438.72,-143.88C451.42,-134.89 467.16,-123.76 480.92,-114.03"/>
<polygon fill="black" stroke="black" points="483.04,-116.82 489.19,-108.19 479,-111.11 483.04,-116.82"/>
</g>
<!-- ast.UnaryOp object at 0x7f96f560fd00&#45;&gt;ast.USub object at 0x7f9756dee800 -->
<g id="edge41" class="edge">
<title>ast.UnaryOp object at 0x7f96f560fd00&#45;&gt;ast.USub object at 0x7f9756dee800</title>
<path fill="none" stroke="black" d="M171.97,-143.7C162.12,-134.97 150.01,-124.24 139.3,-114.75"/>
<polygon fill="black" stroke="black" points="141.61,-112.12 131.8,-108.1 136.97,-117.36 141.61,-112.12"/>
</g>
<!-- ast.Constant object at 0x7f96f560f760 -->
<g id="node37" class="node">
<title>ast.Constant object at 0x7f96f560f760</title>
<path fill="#66cdaa" stroke="black" d="M212,-108C212,-108 171,-108 171,-108 165,-108 159,-102 159,-96 159,-96 159,-84 159,-84 159,-78 165,-72 171,-72 171,-72 212,-72 212,-72 218,-72 224,-78 224,-84 224,-84 224,-96 224,-96 224,-102 218,-108 212,-108"/>
<text text-anchor="middle" x="191.5" y="-86.3" font-family="Times,serif" font-size="14.00">Constant</text>
</g>
<!-- ast.UnaryOp object at 0x7f96f560fd00&#45;&gt;ast.Constant object at 0x7f96f560f760 -->
<g id="edge42" class="edge">
<title>ast.UnaryOp object at 0x7f96f560fd00&#45;&gt;ast.Constant object at 0x7f96f560f760</title>
<path fill="none" stroke="black" d="M191.5,-143.7C191.5,-135.98 191.5,-126.71 191.5,-118.11"/>
<polygon fill="black" stroke="black" points="195,-118.1 191.5,-108.1 188,-118.1 195,-118.1"/>
</g>
<!-- ast.List object at 0x7f96e46d98d0&#45;&gt;ast.Load object at 0x7f9756dedf60 -->
<g id="edge46" class="edge">
<title>ast.List object at 0x7f96e46d98d0&#45;&gt;ast.Load object at 0x7f9756dedf60</title>
<path fill="none" stroke="black" d="M617.5,-431.95C617.5,-405.29 617.5,-352.11 617.5,-307 617.5,-307 617.5,-307 617.5,-233 617.5,-183.63 576.08,-140.02 545.52,-114.56"/>
<polygon fill="black" stroke="black" points="547.6,-111.74 537.62,-108.18 543.2,-117.19 547.6,-111.74"/>
</g>
</g>
</svg>
