<?xml version="1.0" encoding="UTF-8" standalone="no"?>
<!DOCTYPE svg PUBLIC "-//W3C//DTD SVG 1.1//EN"
 "http://www.w3.org/Graphics/SVG/1.1/DTD/svg11.dtd">
<!-- Generated by graphviz version 2.43.0 (0)
 -->
<!-- Title: %3 Pages: 1 -->
<svg width="1819pt" height="476pt"
 viewBox="0.00 0.00 1818.76 476.00" xmlns="http://www.w3.org/2000/svg" xmlns:xlink="http://www.w3.org/1999/xlink">
<g id="graph0" class="graph" transform="scale(1 1) rotate(0) translate(4 472)">
<title>%3</title>
<polygon fill="white" stroke="transparent" points="-4,4 -4,-472 1814.76,-472 1814.76,4 -4,4"/>
<!-- ast.Module object at 0x7f67ff3b24d0 -->
<g id="node1" class="node">
<title>ast.Module object at 0x7f67ff3b24d0</title>
<path fill="#66cdaa" stroke="black" d="M688.42,-468C688.42,-468 653.42,-468 653.42,-468 647.42,-468 641.42,-462 641.42,-456 641.42,-456 641.42,-444 641.42,-444 641.42,-438 647.42,-432 653.42,-432 653.42,-432 688.42,-432 688.42,-432 694.42,-432 700.42,-438 700.42,-444 700.42,-444 700.42,-456 700.42,-456 700.42,-462 694.42,-468 688.42,-468"/>
<text text-anchor="middle" x="670.92" y="-446.3" font-family="Times,serif" font-size="14.00">Module</text>
</g>
<!-- ast.FunctionDef object at 0x7f67ff3b1c90 -->
<g id="node2" class="node">
<title>ast.FunctionDef object at 0x7f67ff3b1c90</title>
<path fill="#66cdaa" stroke="black" d="M701.42,-396C701.42,-396 640.42,-396 640.42,-396 634.42,-396 628.42,-390 628.42,-384 628.42,-384 628.42,-372 628.42,-372 628.42,-366 634.42,-360 640.42,-360 640.42,-360 701.42,-360 701.42,-360 707.42,-360 713.42,-366 713.42,-372 713.42,-372 713.42,-384 713.42,-384 713.42,-390 707.42,-396 701.42,-396"/>
<text text-anchor="middle" x="670.92" y="-374.3" font-family="Times,serif" font-size="14.00">FunctionDef</text>
</g>
<!-- ast.Module object at 0x7f67ff3b24d0&#45;&gt;ast.FunctionDef object at 0x7f67ff3b1c90 -->
<g id="edge1" class="edge">
<title>ast.Module object at 0x7f67ff3b24d0&#45;&gt;ast.FunctionDef object at 0x7f67ff3b1c90</title>
<path fill="none" stroke="black" d="M670.92,-431.7C670.92,-423.98 670.92,-414.71 670.92,-406.11"/>
<polygon fill="black" stroke="black" points="674.42,-406.1 670.92,-396.1 667.42,-406.1 674.42,-406.1"/>
</g>
<!-- ast.arguments object at 0x7f67ff3b1930 -->
<g id="node3" class="node">
<title>ast.arguments object at 0x7f67ff3b1930</title>
<path fill="#66cdaa" stroke="black" d="M526.92,-324C526.92,-324 476.92,-324 476.92,-324 470.92,-324 464.92,-318 464.92,-312 464.92,-312 464.92,-300 464.92,-300 464.92,-294 470.92,-288 476.92,-288 476.92,-288 526.92,-288 526.92,-288 532.92,-288 538.92,-294 538.92,-300 538.92,-300 538.92,-312 538.92,-312 538.92,-318 532.92,-324 526.92,-324"/>
<text text-anchor="middle" x="501.92" y="-302.3" font-family="Times,serif" font-size="14.00">arguments</text>
</g>
<!-- ast.FunctionDef object at 0x7f67ff3b1c90&#45;&gt;ast.arguments object at 0x7f67ff3b1930 -->
<g id="edge2" class="edge">
<title>ast.FunctionDef object at 0x7f67ff3b1c90&#45;&gt;ast.arguments object at 0x7f67ff3b1930</title>
<path fill="none" stroke="black" d="M629.58,-359.88C605.06,-349.72 573.91,-336.82 548.52,-326.3"/>
<polygon fill="black" stroke="black" points="549.67,-322.99 539.09,-322.4 546.99,-329.46 549.67,-322.99"/>
</g>
<!-- ast.Assign object at 0x7f67ff3b1ed0 -->
<g id="node5" class="node">
<title>ast.Assign object at 0x7f67ff3b1ed0</title>
<path fill="#66cdaa" stroke="black" d="M569.92,-252C569.92,-252 539.92,-252 539.92,-252 533.92,-252 527.92,-246 527.92,-240 527.92,-240 527.92,-228 527.92,-228 527.92,-222 533.92,-216 539.92,-216 539.92,-216 569.92,-216 569.92,-216 575.92,-216 581.92,-222 581.92,-228 581.92,-228 581.92,-240 581.92,-240 581.92,-246 575.92,-252 569.92,-252"/>
<text text-anchor="middle" x="554.92" y="-230.3" font-family="Times,serif" font-size="14.00">Assign</text>
</g>
<!-- ast.FunctionDef object at 0x7f67ff3b1c90&#45;&gt;ast.Assign object at 0x7f67ff3b1ed0 -->
<g id="edge4" class="edge">
<title>ast.FunctionDef object at 0x7f67ff3b1c90&#45;&gt;ast.Assign object at 0x7f67ff3b1ed0</title>
<path fill="none" stroke="black" d="M656.93,-359.87C636.64,-335.03 598.91,-288.85 575.46,-260.14"/>
<polygon fill="black" stroke="black" points="578,-257.72 568.96,-252.19 572.58,-262.15 578,-257.72"/>
</g>
<!-- ast.Assign object at 0x7f67ff3b0880 -->
<g id="node12" class="node">
<title>ast.Assign object at 0x7f67ff3b0880</title>
<path fill="#66cdaa" stroke="black" d="M641.92,-252C641.92,-252 611.92,-252 611.92,-252 605.92,-252 599.92,-246 599.92,-240 599.92,-240 599.92,-228 599.92,-228 599.92,-222 605.92,-216 611.92,-216 611.92,-216 641.92,-216 641.92,-216 647.92,-216 653.92,-222 653.92,-228 653.92,-228 653.92,-240 653.92,-240 653.92,-246 647.92,-252 641.92,-252"/>
<text text-anchor="middle" x="626.92" y="-230.3" font-family="Times,serif" font-size="14.00">Assign</text>
</g>
<!-- ast.FunctionDef object at 0x7f67ff3b1c90&#45;&gt;ast.Assign object at 0x7f67ff3b0880 -->
<g id="edge12" class="edge">
<title>ast.FunctionDef object at 0x7f67ff3b1c90&#45;&gt;ast.Assign object at 0x7f67ff3b0880</title>
<path fill="none" stroke="black" d="M665.61,-359.87C658.08,-335.56 644.22,-290.82 635.29,-262.01"/>
<polygon fill="black" stroke="black" points="638.55,-260.71 632.25,-252.19 631.86,-262.78 638.55,-260.71"/>
</g>
<!-- ast.If object at 0x7f67ff3b3040 -->
<g id="node17" class="node">
<title>ast.If object at 0x7f67ff3b3040</title>
<path fill="#66cdaa" stroke="black" d="M713.92,-252C713.92,-252 683.92,-252 683.92,-252 677.92,-252 671.92,-246 671.92,-240 671.92,-240 671.92,-228 671.92,-228 671.92,-222 677.92,-216 683.92,-216 683.92,-216 713.92,-216 713.92,-216 719.92,-216 725.92,-222 725.92,-228 725.92,-228 725.92,-240 725.92,-240 725.92,-246 719.92,-252 713.92,-252"/>
<text text-anchor="middle" x="698.92" y="-230.3" font-family="Times,serif" font-size="14.00">If</text>
</g>
<!-- ast.FunctionDef object at 0x7f67ff3b1c90&#45;&gt;ast.If object at 0x7f67ff3b3040 -->
<g id="edge20" class="edge">
<title>ast.FunctionDef object at 0x7f67ff3b1c90&#45;&gt;ast.If object at 0x7f67ff3b3040</title>
<path fill="none" stroke="black" d="M674.3,-359.87C679.09,-335.56 687.91,-290.82 693.59,-262.01"/>
<polygon fill="black" stroke="black" points="697.03,-262.68 695.53,-252.19 690.16,-261.32 697.03,-262.68"/>
</g>
<!-- ast.While object at 0x7f67ff3b13f0 -->
<g id="node31" class="node">
<title>ast.While object at 0x7f67ff3b13f0</title>
<path fill="#66cdaa" stroke="black" d="M954.92,-324C954.92,-324 924.92,-324 924.92,-324 918.92,-324 912.92,-318 912.92,-312 912.92,-312 912.92,-300 912.92,-300 912.92,-294 918.92,-288 924.92,-288 924.92,-288 954.92,-288 954.92,-288 960.92,-288 966.92,-294 966.92,-300 966.92,-300 966.92,-312 966.92,-312 966.92,-318 960.92,-324 954.92,-324"/>
<text text-anchor="middle" x="939.92" y="-302.3" font-family="Times,serif" font-size="14.00">While</text>
</g>
<!-- ast.FunctionDef object at 0x7f67ff3b1c90&#45;&gt;ast.While object at 0x7f67ff3b13f0 -->
<g id="edge42" class="edge">
<title>ast.FunctionDef object at 0x7f67ff3b1c90&#45;&gt;ast.While object at 0x7f67ff3b13f0</title>
<path fill="none" stroke="black" d="M713.54,-365.91C765.69,-352.34 853.12,-329.59 902.68,-316.69"/>
<polygon fill="black" stroke="black" points="903.86,-320 912.65,-314.1 902.09,-313.23 903.86,-320"/>
</g>
<!-- ast.Return object at 0x7f67feadac80 -->
<g id="node47" class="node">
<title>ast.Return object at 0x7f67feadac80</title>
<path fill="#66cdaa" stroke="black" d="M1045.92,-324C1045.92,-324 1015.92,-324 1015.92,-324 1009.92,-324 1003.92,-318 1003.92,-312 1003.92,-312 1003.92,-300 1003.92,-300 1003.92,-294 1009.92,-288 1015.92,-288 1015.92,-288 1045.92,-288 1045.92,-288 1051.92,-288 1057.92,-294 1057.92,-300 1057.92,-300 1057.92,-312 1057.92,-312 1057.92,-318 1051.92,-324 1045.92,-324"/>
<text text-anchor="middle" x="1030.92" y="-302.3" font-family="Times,serif" font-size="14.00">Return</text>
</g>
<!-- ast.FunctionDef object at 0x7f67ff3b1c90&#45;&gt;ast.Return object at 0x7f67feadac80 -->
<g id="edge68" class="edge">
<title>ast.FunctionDef object at 0x7f67ff3b1c90&#45;&gt;ast.Return object at 0x7f67feadac80</title>
<path fill="none" stroke="black" d="M713.45,-371.36C772.72,-363.11 883.3,-346.27 975.92,-324 981.77,-322.59 987.91,-320.91 993.89,-319.15"/>
<polygon fill="black" stroke="black" points="995.15,-322.43 1003.69,-316.17 993.11,-315.73 995.15,-322.43"/>
</g>
<!-- ast.arg object at 0x7f67ff3b0700 -->
<g id="node4" class="node">
<title>ast.arg object at 0x7f67ff3b0700</title>
<path fill="#66cdaa" stroke="black" d="M497.92,-252C497.92,-252 467.92,-252 467.92,-252 461.92,-252 455.92,-246 455.92,-240 455.92,-240 455.92,-228 455.92,-228 455.92,-222 461.92,-216 467.92,-216 467.92,-216 497.92,-216 497.92,-216 503.92,-216 509.92,-222 509.92,-228 509.92,-228 509.92,-240 509.92,-240 509.92,-246 503.92,-252 497.92,-252"/>
<text text-anchor="middle" x="482.92" y="-230.3" font-family="Times,serif" font-size="14.00">arg</text>
</g>
<!-- ast.arguments object at 0x7f67ff3b1930&#45;&gt;ast.arg object at 0x7f67ff3b0700 -->
<g id="edge3" class="edge">
<title>ast.arguments object at 0x7f67ff3b1930&#45;&gt;ast.arg object at 0x7f67ff3b0700</title>
<path fill="none" stroke="black" d="M497.22,-287.7C495.11,-279.9 492.56,-270.51 490.2,-261.83"/>
<polygon fill="black" stroke="black" points="493.56,-260.84 487.56,-252.1 486.8,-262.67 493.56,-260.84"/>
</g>
<!-- ast.Name object at 0x7f67ff3b0ac0 -->
<g id="node6" class="node">
<title>ast.Name object at 0x7f67ff3b0ac0</title>
<path fill="#66cdaa" stroke="black" d="M74.92,-180C74.92,-180 44.92,-180 44.92,-180 38.92,-180 32.92,-174 32.92,-168 32.92,-168 32.92,-156 32.92,-156 32.92,-150 38.92,-144 44.92,-144 44.92,-144 74.92,-144 74.92,-144 80.92,-144 86.92,-150 86.92,-156 86.92,-156 86.92,-168 86.92,-168 86.92,-174 80.92,-180 74.92,-180"/>
<text text-anchor="middle" x="59.92" y="-158.3" font-family="Times,serif" font-size="14.00">Name</text>
</g>
<!-- ast.Assign object at 0x7f67ff3b1ed0&#45;&gt;ast.Name object at 0x7f67ff3b0ac0 -->
<g id="edge5" class="edge">
<title>ast.Assign object at 0x7f67ff3b1ed0&#45;&gt;ast.Name object at 0x7f67ff3b0ac0</title>
<path fill="none" stroke="black" d="M527.76,-219.05C524.83,-217.88 521.84,-216.83 518.92,-216 478.69,-204.52 199.22,-176.55 97.14,-166.59"/>
<polygon fill="black" stroke="black" points="97.28,-163.09 86.99,-165.61 96.6,-170.06 97.28,-163.09"/>
</g>
<!-- ast.Subscript object at 0x7f67ff3b0580 -->
<g id="node8" class="node">
<title>ast.Subscript object at 0x7f67ff3b0580</title>
<path fill="#66cdaa" stroke="black" d="M695.92,-180C695.92,-180 651.92,-180 651.92,-180 645.92,-180 639.92,-174 639.92,-168 639.92,-168 639.92,-156 639.92,-156 639.92,-150 645.92,-144 651.92,-144 651.92,-144 695.92,-144 695.92,-144 701.92,-144 707.92,-150 707.92,-156 707.92,-156 707.92,-168 707.92,-168 707.92,-174 701.92,-180 695.92,-180"/>
<text text-anchor="middle" x="673.92" y="-158.3" font-family="Times,serif" font-size="14.00">Subscript</text>
</g>
<!-- ast.Assign object at 0x7f67ff3b1ed0&#45;&gt;ast.Subscript object at 0x7f67ff3b0580 -->
<g id="edge7" class="edge">
<title>ast.Assign object at 0x7f67ff3b1ed0&#45;&gt;ast.Subscript object at 0x7f67ff3b0580</title>
<path fill="none" stroke="black" d="M581.92,-217.12C597.92,-207.7 618.45,-195.63 636.05,-185.28"/>
<polygon fill="black" stroke="black" points="638.1,-188.13 644.94,-180.04 634.55,-182.1 638.1,-188.13"/>
</g>
<!-- ast.Store object at 0x7f6847aedff0 -->
<g id="node7" class="node">
<title>ast.Store object at 0x7f6847aedff0</title>
<path fill="#66cdaa" stroke="black" d="M161.92,-36C161.92,-36 131.92,-36 131.92,-36 125.92,-36 119.92,-30 119.92,-24 119.92,-24 119.92,-12 119.92,-12 119.92,-6 125.92,0 131.92,0 131.92,0 161.92,0 161.92,0 167.92,0 173.92,-6 173.92,-12 173.92,-12 173.92,-24 173.92,-24 173.92,-30 167.92,-36 161.92,-36"/>
<text text-anchor="middle" x="146.92" y="-14.3" font-family="Times,serif" font-size="14.00">Store</text>
</g>
<!-- ast.Name object at 0x7f67ff3b0ac0&#45;&gt;ast.Store object at 0x7f6847aedff0 -->
<g id="edge6" class="edge">
<title>ast.Name object at 0x7f67ff3b0ac0&#45;&gt;ast.Store object at 0x7f6847aedff0</title>
<path fill="none" stroke="black" d="M34.99,-143.86C23.86,-134.67 11.92,-122.29 5.92,-108 -0.27,-93.25 -3.19,-85.15 5.92,-72 29.09,-38.53 76.21,-26.17 109.59,-21.62"/>
<polygon fill="black" stroke="black" points="110.38,-25.05 119.9,-20.4 109.56,-18.1 110.38,-25.05"/>
</g>
<!-- ast.Name object at 0x7f67ff3b1cc0 -->
<g id="node9" class="node">
<title>ast.Name object at 0x7f67ff3b1cc0</title>
<path fill="#66cdaa" stroke="black" d="M703.92,-108C703.92,-108 673.92,-108 673.92,-108 667.92,-108 661.92,-102 661.92,-96 661.92,-96 661.92,-84 661.92,-84 661.92,-78 667.92,-72 673.92,-72 673.92,-72 703.92,-72 703.92,-72 709.92,-72 715.92,-78 715.92,-84 715.92,-84 715.92,-96 715.92,-96 715.92,-102 709.92,-108 703.92,-108"/>
<text text-anchor="middle" x="688.92" y="-86.3" font-family="Times,serif" font-size="14.00">Name</text>
</g>
<!-- ast.Subscript object at 0x7f67ff3b0580&#45;&gt;ast.Name object at 0x7f67ff3b1cc0 -->
<g id="edge8" class="edge">
<title>ast.Subscript object at 0x7f67ff3b0580&#45;&gt;ast.Name object at 0x7f67ff3b1cc0</title>
<path fill="none" stroke="black" d="M677.63,-143.7C679.28,-135.98 681.27,-126.71 683.11,-118.11"/>
<polygon fill="black" stroke="black" points="686.58,-118.62 685.25,-108.1 679.74,-117.15 686.58,-118.62"/>
</g>
<!-- ast.Load object at 0x7f6847aedf90 -->
<g id="node10" class="node">
<title>ast.Load object at 0x7f6847aedf90</title>
<path fill="#66cdaa" stroke="black" d="M1085.92,-36C1085.92,-36 1055.92,-36 1055.92,-36 1049.92,-36 1043.92,-30 1043.92,-24 1043.92,-24 1043.92,-12 1043.92,-12 1043.92,-6 1049.92,0 1055.92,0 1055.92,0 1085.92,0 1085.92,0 1091.92,0 1097.92,-6 1097.92,-12 1097.92,-12 1097.92,-24 1097.92,-24 1097.92,-30 1091.92,-36 1085.92,-36"/>
<text text-anchor="middle" x="1070.92" y="-14.3" font-family="Times,serif" font-size="14.00">Load</text>
</g>
<!-- ast.Subscript object at 0x7f67ff3b0580&#45;&gt;ast.Load object at 0x7f6847aedf90 -->
<g id="edge11" class="edge">
<title>ast.Subscript object at 0x7f67ff3b0580&#45;&gt;ast.Load object at 0x7f6847aedf90</title>
<path fill="none" stroke="black" d="M661.93,-143.77C649.84,-124.09 635.29,-92.01 652.92,-72 677.97,-43.57 936.3,-26.44 1033.87,-20.94"/>
<polygon fill="black" stroke="black" points="1034.09,-24.44 1043.88,-20.39 1033.7,-17.45 1034.09,-24.44"/>
</g>
<!-- ast.Constant object at 0x7f67ff3b2f50 -->
<g id="node11" class="node">
<title>ast.Constant object at 0x7f67ff3b2f50</title>
<path fill="#66cdaa" stroke="black" d="M787.42,-108C787.42,-108 746.42,-108 746.42,-108 740.42,-108 734.42,-102 734.42,-96 734.42,-96 734.42,-84 734.42,-84 734.42,-78 740.42,-72 746.42,-72 746.42,-72 787.42,-72 787.42,-72 793.42,-72 799.42,-78 799.42,-84 799.42,-84 799.42,-96 799.42,-96 799.42,-102 793.42,-108 787.42,-108"/>
<text text-anchor="middle" x="766.92" y="-86.3" font-family="Times,serif" font-size="14.00">Constant</text>
</g>
<!-- ast.Subscript object at 0x7f67ff3b0580&#45;&gt;ast.Constant object at 0x7f67ff3b2f50 -->
<g id="edge10" class="edge">
<title>ast.Subscript object at 0x7f67ff3b0580&#45;&gt;ast.Constant object at 0x7f67ff3b2f50</title>
<path fill="none" stroke="black" d="M696.91,-143.7C708.73,-134.8 723.31,-123.82 736.1,-114.2"/>
<polygon fill="black" stroke="black" points="738.31,-116.91 744.2,-108.1 734.1,-111.32 738.31,-116.91"/>
</g>
<!-- ast.Name object at 0x7f67ff3b1cc0&#45;&gt;ast.Load object at 0x7f6847aedf90 -->
<g id="edge9" class="edge">
<title>ast.Name object at 0x7f67ff3b1cc0&#45;&gt;ast.Load object at 0x7f6847aedf90</title>
<path fill="none" stroke="black" d="M716.11,-75.16C719.04,-73.97 722.01,-72.89 724.92,-72 834.2,-38.6 969.61,-25.67 1033.81,-21.16"/>
<polygon fill="black" stroke="black" points="1034.11,-24.65 1043.85,-20.48 1033.64,-17.67 1034.11,-24.65"/>
</g>
<!-- ast.Name object at 0x7f67ff3b09a0 -->
<g id="node13" class="node">
<title>ast.Name object at 0x7f67ff3b09a0</title>
<path fill="#66cdaa" stroke="black" d="M300.92,-180C300.92,-180 270.92,-180 270.92,-180 264.92,-180 258.92,-174 258.92,-168 258.92,-168 258.92,-156 258.92,-156 258.92,-150 264.92,-144 270.92,-144 270.92,-144 300.92,-144 300.92,-144 306.92,-144 312.92,-150 312.92,-156 312.92,-156 312.92,-168 312.92,-168 312.92,-174 306.92,-180 300.92,-180"/>
<text text-anchor="middle" x="285.92" y="-158.3" font-family="Times,serif" font-size="14.00">Name</text>
</g>
<!-- ast.Assign object at 0x7f67ff3b0880&#45;&gt;ast.Name object at 0x7f67ff3b09a0 -->
<g id="edge13" class="edge">
<title>ast.Assign object at 0x7f67ff3b0880&#45;&gt;ast.Name object at 0x7f67ff3b09a0</title>
<path fill="none" stroke="black" d="M599.71,-219.22C596.79,-218.02 593.82,-216.92 590.92,-216 565.69,-208.01 398.7,-180.94 323.05,-168.88"/>
<polygon fill="black" stroke="black" points="323.43,-165.39 313.01,-167.28 322.33,-172.31 323.43,-165.39"/>
</g>
<!-- ast.Subscript object at 0x7f67ff3b0610 -->
<g id="node14" class="node">
<title>ast.Subscript object at 0x7f67ff3b0610</title>
<path fill="#66cdaa" stroke="black" d="M1092.92,-180C1092.92,-180 1048.92,-180 1048.92,-180 1042.92,-180 1036.92,-174 1036.92,-168 1036.92,-168 1036.92,-156 1036.92,-156 1036.92,-150 1042.92,-144 1048.92,-144 1048.92,-144 1092.92,-144 1092.92,-144 1098.92,-144 1104.92,-150 1104.92,-156 1104.92,-156 1104.92,-168 1104.92,-168 1104.92,-174 1098.92,-180 1092.92,-180"/>
<text text-anchor="middle" x="1070.92" y="-158.3" font-family="Times,serif" font-size="14.00">Subscript</text>
</g>
<!-- ast.Assign object at 0x7f67ff3b0880&#45;&gt;ast.Subscript object at 0x7f67ff3b0610 -->
<g id="edge15" class="edge">
<title>ast.Assign object at 0x7f67ff3b0880&#45;&gt;ast.Subscript object at 0x7f67ff3b0610</title>
<path fill="none" stroke="black" d="M654.07,-219.04C657.01,-217.87 659.99,-216.83 662.92,-216 802.76,-176.43 844.36,-202.6 987.92,-180 1000.52,-178.02 1014.11,-175.43 1026.57,-172.87"/>
<polygon fill="black" stroke="black" points="1027.65,-176.22 1036.72,-170.74 1026.22,-169.36 1027.65,-176.22"/>
</g>
<!-- ast.Name object at 0x7f67ff3b09a0&#45;&gt;ast.Store object at 0x7f6847aedff0 -->
<g id="edge14" class="edge">
<title>ast.Name object at 0x7f67ff3b09a0&#45;&gt;ast.Store object at 0x7f6847aedff0</title>
<path fill="none" stroke="black" d="M258.72,-159.34C200.39,-155.14 66.35,-141.94 38.92,-108 28.86,-95.56 30.46,-85.58 38.92,-72 54.36,-47.23 85.12,-33.71 109.88,-26.54"/>
<polygon fill="black" stroke="black" points="110.95,-29.87 119.72,-23.92 109.15,-23.11 110.95,-29.87"/>
</g>
<!-- ast.Subscript object at 0x7f67ff3b0610&#45;&gt;ast.Load object at 0x7f6847aedf90 -->
<g id="edge19" class="edge">
<title>ast.Subscript object at 0x7f67ff3b0610&#45;&gt;ast.Load object at 0x7f6847aedf90</title>
<path fill="none" stroke="black" d="M1067.67,-143.89C1065.87,-133.54 1063.83,-120.06 1062.92,-108 1061.72,-92.04 1061.72,-87.96 1062.92,-72 1063.56,-63.52 1064.76,-54.34 1066.04,-46.04"/>
<polygon fill="black" stroke="black" points="1069.5,-46.55 1067.67,-36.11 1062.6,-45.41 1069.5,-46.55"/>
</g>
<!-- ast.Name object at 0x7f67ff3b3be0 -->
<g id="node15" class="node">
<title>ast.Name object at 0x7f67ff3b3be0</title>
<path fill="#66cdaa" stroke="black" d="M1113.92,-108C1113.92,-108 1083.92,-108 1083.92,-108 1077.92,-108 1071.92,-102 1071.92,-96 1071.92,-96 1071.92,-84 1071.92,-84 1071.92,-78 1077.92,-72 1083.92,-72 1083.92,-72 1113.92,-72 1113.92,-72 1119.92,-72 1125.92,-78 1125.92,-84 1125.92,-84 1125.92,-96 1125.92,-96 1125.92,-102 1119.92,-108 1113.92,-108"/>
<text text-anchor="middle" x="1098.92" y="-86.3" font-family="Times,serif" font-size="14.00">Name</text>
</g>
<!-- ast.Subscript object at 0x7f67ff3b0610&#45;&gt;ast.Name object at 0x7f67ff3b3be0 -->
<g id="edge16" class="edge">
<title>ast.Subscript object at 0x7f67ff3b0610&#45;&gt;ast.Name object at 0x7f67ff3b3be0</title>
<path fill="none" stroke="black" d="M1077.84,-143.7C1080.99,-135.81 1084.8,-126.3 1088.3,-117.55"/>
<polygon fill="black" stroke="black" points="1091.61,-118.69 1092.08,-108.1 1085.11,-116.09 1091.61,-118.69"/>
</g>
<!-- ast.Constant object at 0x7f67ff3b1810 -->
<g id="node16" class="node">
<title>ast.Constant object at 0x7f67ff3b1810</title>
<path fill="#66cdaa" stroke="black" d="M1197.42,-108C1197.42,-108 1156.42,-108 1156.42,-108 1150.42,-108 1144.42,-102 1144.42,-96 1144.42,-96 1144.42,-84 1144.42,-84 1144.42,-78 1150.42,-72 1156.42,-72 1156.42,-72 1197.42,-72 1197.42,-72 1203.42,-72 1209.42,-78 1209.42,-84 1209.42,-84 1209.42,-96 1209.42,-96 1209.42,-102 1203.42,-108 1197.42,-108"/>
<text text-anchor="middle" x="1176.92" y="-86.3" font-family="Times,serif" font-size="14.00">Constant</text>
</g>
<!-- ast.Subscript object at 0x7f67ff3b0610&#45;&gt;ast.Constant object at 0x7f67ff3b1810 -->
<g id="edge18" class="edge">
<title>ast.Subscript object at 0x7f67ff3b0610&#45;&gt;ast.Constant object at 0x7f67ff3b1810</title>
<path fill="none" stroke="black" d="M1096.85,-143.88C1110.58,-134.81 1127.63,-123.55 1142.46,-113.76"/>
<polygon fill="black" stroke="black" points="1144.47,-116.62 1150.89,-108.19 1140.62,-110.78 1144.47,-116.62"/>
</g>
<!-- ast.Name object at 0x7f67ff3b3be0&#45;&gt;ast.Load object at 0x7f6847aedf90 -->
<g id="edge17" class="edge">
<title>ast.Name object at 0x7f67ff3b3be0&#45;&gt;ast.Load object at 0x7f6847aedf90</title>
<path fill="none" stroke="black" d="M1092,-71.7C1088.85,-63.81 1085.04,-54.3 1081.54,-45.55"/>
<polygon fill="black" stroke="black" points="1084.73,-44.09 1077.76,-36.1 1078.23,-46.69 1084.73,-44.09"/>
</g>
<!-- ast.Compare object at 0x7f67ff3b0640 -->
<g id="node18" class="node">
<title>ast.Compare object at 0x7f67ff3b0640</title>
<path fill="#66cdaa" stroke="black" d="M1305.42,-180C1305.42,-180 1262.42,-180 1262.42,-180 1256.42,-180 1250.42,-174 1250.42,-168 1250.42,-168 1250.42,-156 1250.42,-156 1250.42,-150 1256.42,-144 1262.42,-144 1262.42,-144 1305.42,-144 1305.42,-144 1311.42,-144 1317.42,-150 1317.42,-156 1317.42,-156 1317.42,-168 1317.42,-168 1317.42,-174 1311.42,-180 1305.42,-180"/>
<text text-anchor="middle" x="1283.92" y="-158.3" font-family="Times,serif" font-size="14.00">Compare</text>
</g>
<!-- ast.If object at 0x7f67ff3b3040&#45;&gt;ast.Compare object at 0x7f67ff3b0640 -->
<g id="edge21" class="edge">
<title>ast.If object at 0x7f67ff3b3040&#45;&gt;ast.Compare object at 0x7f67ff3b0640</title>
<path fill="none" stroke="black" d="M725.96,-229.76C818.79,-218.66 1125.05,-182.01 1239.9,-168.27"/>
<polygon fill="black" stroke="black" points="1240.57,-171.71 1250.08,-167.05 1239.74,-164.76 1240.57,-171.71"/>
</g>
<!-- ast.Assign object at 0x7f67ff3b36a0 -->
<g id="node22" class="node">
<title>ast.Assign object at 0x7f67ff3b36a0</title>
<path fill="#66cdaa" stroke="black" d="M449.92,-180C449.92,-180 419.92,-180 419.92,-180 413.92,-180 407.92,-174 407.92,-168 407.92,-168 407.92,-156 407.92,-156 407.92,-150 413.92,-144 419.92,-144 419.92,-144 449.92,-144 449.92,-144 455.92,-144 461.92,-150 461.92,-156 461.92,-156 461.92,-168 461.92,-168 461.92,-174 455.92,-180 449.92,-180"/>
<text text-anchor="middle" x="434.92" y="-158.3" font-family="Times,serif" font-size="14.00">Assign</text>
</g>
<!-- ast.If object at 0x7f67ff3b3040&#45;&gt;ast.Assign object at 0x7f67ff3b36a0 -->
<g id="edge27" class="edge">
<title>ast.If object at 0x7f67ff3b3040&#45;&gt;ast.Assign object at 0x7f67ff3b36a0</title>
<path fill="none" stroke="black" d="M671.7,-219.26C668.78,-218.05 665.81,-216.94 662.92,-216 583.31,-190.21 555.53,-205.55 471.8,-179.81"/>
<polygon fill="black" stroke="black" points="472.73,-176.43 462.14,-176.74 470.61,-183.1 472.73,-176.43"/>
</g>
<!-- ast.Assign object at 0x7f67ff3b1300 -->
<g id="node25" class="node">
<title>ast.Assign object at 0x7f67ff3b1300</title>
<path fill="#66cdaa" stroke="black" d="M521.92,-180C521.92,-180 491.92,-180 491.92,-180 485.92,-180 479.92,-174 479.92,-168 479.92,-168 479.92,-156 479.92,-156 479.92,-150 485.92,-144 491.92,-144 491.92,-144 521.92,-144 521.92,-144 527.92,-144 533.92,-150 533.92,-156 533.92,-156 533.92,-168 533.92,-168 533.92,-174 527.92,-180 521.92,-180"/>
<text text-anchor="middle" x="506.92" y="-158.3" font-family="Times,serif" font-size="14.00">Assign</text>
</g>
<!-- ast.If object at 0x7f67ff3b3040&#45;&gt;ast.Assign object at 0x7f67ff3b1300 -->
<g id="edge32" class="edge">
<title>ast.If object at 0x7f67ff3b3040&#45;&gt;ast.Assign object at 0x7f67ff3b1300</title>
<path fill="none" stroke="black" d="M671.59,-219.58C668.69,-218.31 665.76,-217.09 662.92,-216 613.78,-197.15 596.77,-199.59 543.82,-180.05"/>
<polygon fill="black" stroke="black" points="544.84,-176.69 534.25,-176.42 542.37,-183.24 544.84,-176.69"/>
</g>
<!-- ast.Assign object at 0x7f67ff3b1e10 -->
<g id="node28" class="node">
<title>ast.Assign object at 0x7f67ff3b1e10</title>
<path fill="#66cdaa" stroke="black" d="M593.92,-180C593.92,-180 563.92,-180 563.92,-180 557.92,-180 551.92,-174 551.92,-168 551.92,-168 551.92,-156 551.92,-156 551.92,-150 557.92,-144 563.92,-144 563.92,-144 593.92,-144 593.92,-144 599.92,-144 605.92,-150 605.92,-156 605.92,-156 605.92,-168 605.92,-168 605.92,-174 599.92,-180 593.92,-180"/>
<text text-anchor="middle" x="578.92" y="-158.3" font-family="Times,serif" font-size="14.00">Assign</text>
</g>
<!-- ast.If object at 0x7f67ff3b3040&#45;&gt;ast.Assign object at 0x7f67ff3b1e10 -->
<g id="edge37" class="edge">
<title>ast.If object at 0x7f67ff3b3040&#45;&gt;ast.Assign object at 0x7f67ff3b1e10</title>
<path fill="none" stroke="black" d="M671.69,-217.12C654.81,-207.27 632.95,-194.52 614.68,-183.86"/>
<polygon fill="black" stroke="black" points="616.44,-180.84 606.04,-178.82 612.92,-186.88 616.44,-180.84"/>
</g>
<!-- ast.Name object at 0x7f67ff3b1180 -->
<g id="node19" class="node">
<title>ast.Name object at 0x7f67ff3b1180</title>
<path fill="#66cdaa" stroke="black" d="M1269.92,-108C1269.92,-108 1239.92,-108 1239.92,-108 1233.92,-108 1227.92,-102 1227.92,-96 1227.92,-96 1227.92,-84 1227.92,-84 1227.92,-78 1233.92,-72 1239.92,-72 1239.92,-72 1269.92,-72 1269.92,-72 1275.92,-72 1281.92,-78 1281.92,-84 1281.92,-84 1281.92,-96 1281.92,-96 1281.92,-102 1275.92,-108 1269.92,-108"/>
<text text-anchor="middle" x="1254.92" y="-86.3" font-family="Times,serif" font-size="14.00">Name</text>
</g>
<!-- ast.Compare object at 0x7f67ff3b0640&#45;&gt;ast.Name object at 0x7f67ff3b1180 -->
<g id="edge22" class="edge">
<title>ast.Compare object at 0x7f67ff3b0640&#45;&gt;ast.Name object at 0x7f67ff3b1180</title>
<path fill="none" stroke="black" d="M1276.75,-143.7C1273.49,-135.81 1269.55,-126.3 1265.92,-117.55"/>
<polygon fill="black" stroke="black" points="1269.07,-116 1262.01,-108.1 1262.6,-118.68 1269.07,-116"/>
</g>
<!-- ast.Gt object at 0x7f6847aeea40 -->
<g id="node20" class="node">
<title>ast.Gt object at 0x7f6847aeea40</title>
<path fill="#66cdaa" stroke="black" d="M1557.92,-108C1557.92,-108 1527.92,-108 1527.92,-108 1521.92,-108 1515.92,-102 1515.92,-96 1515.92,-96 1515.92,-84 1515.92,-84 1515.92,-78 1521.92,-72 1527.92,-72 1527.92,-72 1557.92,-72 1557.92,-72 1563.92,-72 1569.92,-78 1569.92,-84 1569.92,-84 1569.92,-96 1569.92,-96 1569.92,-102 1563.92,-108 1557.92,-108"/>
<text text-anchor="middle" x="1542.92" y="-86.3" font-family="Times,serif" font-size="14.00">Gt</text>
</g>
<!-- ast.Compare object at 0x7f67ff3b0640&#45;&gt;ast.Gt object at 0x7f6847aeea40 -->
<g id="edge24" class="edge">
<title>ast.Compare object at 0x7f67ff3b0640&#45;&gt;ast.Gt object at 0x7f6847aeea40</title>
<path fill="none" stroke="black" d="M1317.79,-155.22C1360.14,-147.51 1434.81,-132.29 1506.07,-107.93"/>
<polygon fill="black" stroke="black" points="1507.36,-111.19 1515.65,-104.6 1505.05,-104.58 1507.36,-111.19"/>
</g>
<!-- ast.Name object at 0x7f67ff3b0e20 -->
<g id="node21" class="node">
<title>ast.Name object at 0x7f67ff3b0e20</title>
<path fill="#66cdaa" stroke="black" d="M1341.92,-108C1341.92,-108 1311.92,-108 1311.92,-108 1305.92,-108 1299.92,-102 1299.92,-96 1299.92,-96 1299.92,-84 1299.92,-84 1299.92,-78 1305.92,-72 1311.92,-72 1311.92,-72 1341.92,-72 1341.92,-72 1347.92,-72 1353.92,-78 1353.92,-84 1353.92,-84 1353.92,-96 1353.92,-96 1353.92,-102 1347.92,-108 1341.92,-108"/>
<text text-anchor="middle" x="1326.92" y="-86.3" font-family="Times,serif" font-size="14.00">Name</text>
</g>
<!-- ast.Compare object at 0x7f67ff3b0640&#45;&gt;ast.Name object at 0x7f67ff3b0e20 -->
<g id="edge25" class="edge">
<title>ast.Compare object at 0x7f67ff3b0640&#45;&gt;ast.Name object at 0x7f67ff3b0e20</title>
<path fill="none" stroke="black" d="M1294.55,-143.7C1299.55,-135.56 1305.61,-125.69 1311.13,-116.7"/>
<polygon fill="black" stroke="black" points="1314.16,-118.46 1316.41,-108.1 1308.2,-114.79 1314.16,-118.46"/>
</g>
<!-- ast.Name object at 0x7f67ff3b1180&#45;&gt;ast.Load object at 0x7f6847aedf90 -->
<g id="edge23" class="edge">
<title>ast.Name object at 0x7f67ff3b1180&#45;&gt;ast.Load object at 0x7f6847aedf90</title>
<path fill="none" stroke="black" d="M1227.92,-75.9C1224.9,-74.54 1221.86,-73.22 1218.92,-72 1181.54,-56.52 1137.82,-41.2 1107.64,-31.04"/>
<polygon fill="black" stroke="black" points="1108.55,-27.65 1097.96,-27.8 1106.33,-34.29 1108.55,-27.65"/>
</g>
<!-- ast.Name object at 0x7f67ff3b0e20&#45;&gt;ast.Load object at 0x7f6847aedf90 -->
<g id="edge26" class="edge">
<title>ast.Name object at 0x7f67ff3b0e20&#45;&gt;ast.Load object at 0x7f6847aedf90</title>
<path fill="none" stroke="black" d="M1299.65,-75.41C1296.73,-74.18 1293.79,-73.01 1290.92,-72 1228.32,-49.94 1152.52,-33.91 1108.21,-25.56"/>
<polygon fill="black" stroke="black" points="1108.66,-22.09 1098.19,-23.71 1107.38,-28.97 1108.66,-22.09"/>
</g>
<!-- ast.Name object at 0x7f67ff3b16c0 -->
<g id="node23" class="node">
<title>ast.Name object at 0x7f67ff3b16c0</title>
<path fill="#66cdaa" stroke="black" d="M89.92,-108C89.92,-108 59.92,-108 59.92,-108 53.92,-108 47.92,-102 47.92,-96 47.92,-96 47.92,-84 47.92,-84 47.92,-78 53.92,-72 59.92,-72 59.92,-72 89.92,-72 89.92,-72 95.92,-72 101.92,-78 101.92,-84 101.92,-84 101.92,-96 101.92,-96 101.92,-102 95.92,-108 89.92,-108"/>
<text text-anchor="middle" x="74.92" y="-86.3" font-family="Times,serif" font-size="14.00">Name</text>
</g>
<!-- ast.Assign object at 0x7f67ff3b36a0&#45;&gt;ast.Name object at 0x7f67ff3b16c0 -->
<g id="edge28" class="edge">
<title>ast.Assign object at 0x7f67ff3b36a0&#45;&gt;ast.Name object at 0x7f67ff3b16c0</title>
<path fill="none" stroke="black" d="M407.88,-156.79C339.06,-146.04 159.83,-117.88 111.94,-107.3"/>
<polygon fill="black" stroke="black" points="112.67,-103.87 102.12,-104.81 110.95,-110.66 112.67,-103.87"/>
</g>
<!-- ast.Name object at 0x7f67ff3b0cd0 -->
<g id="node24" class="node">
<title>ast.Name object at 0x7f67ff3b0cd0</title>
<path fill="#66cdaa" stroke="black" d="M449.92,-108C449.92,-108 419.92,-108 419.92,-108 413.92,-108 407.92,-102 407.92,-96 407.92,-96 407.92,-84 407.92,-84 407.92,-78 413.92,-72 419.92,-72 419.92,-72 449.92,-72 449.92,-72 455.92,-72 461.92,-78 461.92,-84 461.92,-84 461.92,-96 461.92,-96 461.92,-102 455.92,-108 449.92,-108"/>
<text text-anchor="middle" x="434.92" y="-86.3" font-family="Times,serif" font-size="14.00">Name</text>
</g>
<!-- ast.Assign object at 0x7f67ff3b36a0&#45;&gt;ast.Name object at 0x7f67ff3b0cd0 -->
<g id="edge30" class="edge">
<title>ast.Assign object at 0x7f67ff3b36a0&#45;&gt;ast.Name object at 0x7f67ff3b0cd0</title>
<path fill="none" stroke="black" d="M434.92,-143.7C434.92,-135.98 434.92,-126.71 434.92,-118.11"/>
<polygon fill="black" stroke="black" points="438.42,-118.1 434.92,-108.1 431.42,-118.1 438.42,-118.1"/>
</g>
<!-- ast.Name object at 0x7f67ff3b16c0&#45;&gt;ast.Store object at 0x7f6847aedff0 -->
<g id="edge29" class="edge">
<title>ast.Name object at 0x7f67ff3b16c0&#45;&gt;ast.Store object at 0x7f6847aedff0</title>
<path fill="none" stroke="black" d="M92.72,-71.7C101.52,-63.14 112.3,-52.66 121.92,-43.3"/>
<polygon fill="black" stroke="black" points="124.6,-45.58 129.33,-36.1 119.72,-40.57 124.6,-45.58"/>
</g>
<!-- ast.Name object at 0x7f67ff3b0cd0&#45;&gt;ast.Load object at 0x7f6847aedf90 -->
<g id="edge31" class="edge">
<title>ast.Name object at 0x7f67ff3b0cd0&#45;&gt;ast.Load object at 0x7f6847aedf90</title>
<path fill="none" stroke="black" d="M462.06,-74.97C464.99,-73.82 467.98,-72.8 470.92,-72 577.99,-42.99 919.67,-25.66 1033.57,-20.58"/>
<polygon fill="black" stroke="black" points="1034.03,-24.06 1043.87,-20.12 1033.72,-17.07 1034.03,-24.06"/>
</g>
<!-- ast.Name object at 0x7f67ff3b2920 -->
<g id="node26" class="node">
<title>ast.Name object at 0x7f67ff3b2920</title>
<path fill="#66cdaa" stroke="black" d="M161.92,-108C161.92,-108 131.92,-108 131.92,-108 125.92,-108 119.92,-102 119.92,-96 119.92,-96 119.92,-84 119.92,-84 119.92,-78 125.92,-72 131.92,-72 131.92,-72 161.92,-72 161.92,-72 167.92,-72 173.92,-78 173.92,-84 173.92,-84 173.92,-96 173.92,-96 173.92,-102 167.92,-108 161.92,-108"/>
<text text-anchor="middle" x="146.92" y="-86.3" font-family="Times,serif" font-size="14.00">Name</text>
</g>
<!-- ast.Assign object at 0x7f67ff3b1300&#45;&gt;ast.Name object at 0x7f67ff3b2920 -->
<g id="edge33" class="edge">
<title>ast.Assign object at 0x7f67ff3b1300&#45;&gt;ast.Name object at 0x7f67ff3b2920</title>
<path fill="none" stroke="black" d="M479.75,-147.08C476.82,-145.91 473.84,-144.85 470.92,-144 350.19,-108.92 308.89,-142.21 184.02,-107.75"/>
<polygon fill="black" stroke="black" points="184.66,-104.3 174.09,-104.92 182.74,-111.03 184.66,-104.3"/>
</g>
<!-- ast.Name object at 0x7f67ff3b0c40 -->
<g id="node27" class="node">
<title>ast.Name object at 0x7f67ff3b0c40</title>
<path fill="#66cdaa" stroke="black" d="M521.92,-108C521.92,-108 491.92,-108 491.92,-108 485.92,-108 479.92,-102 479.92,-96 479.92,-96 479.92,-84 479.92,-84 479.92,-78 485.92,-72 491.92,-72 491.92,-72 521.92,-72 521.92,-72 527.92,-72 533.92,-78 533.92,-84 533.92,-84 533.92,-96 533.92,-96 533.92,-102 527.92,-108 521.92,-108"/>
<text text-anchor="middle" x="506.92" y="-86.3" font-family="Times,serif" font-size="14.00">Name</text>
</g>
<!-- ast.Assign object at 0x7f67ff3b1300&#45;&gt;ast.Name object at 0x7f67ff3b0c40 -->
<g id="edge35" class="edge">
<title>ast.Assign object at 0x7f67ff3b1300&#45;&gt;ast.Name object at 0x7f67ff3b0c40</title>
<path fill="none" stroke="black" d="M506.92,-143.7C506.92,-135.98 506.92,-126.71 506.92,-118.11"/>
<polygon fill="black" stroke="black" points="510.42,-118.1 506.92,-108.1 503.42,-118.1 510.42,-118.1"/>
</g>
<!-- ast.Name object at 0x7f67ff3b2920&#45;&gt;ast.Store object at 0x7f6847aedff0 -->
<g id="edge34" class="edge">
<title>ast.Name object at 0x7f67ff3b2920&#45;&gt;ast.Store object at 0x7f6847aedff0</title>
<path fill="none" stroke="black" d="M146.92,-71.7C146.92,-63.98 146.92,-54.71 146.92,-46.11"/>
<polygon fill="black" stroke="black" points="150.42,-46.1 146.92,-36.1 143.42,-46.1 150.42,-46.1"/>
</g>
<!-- ast.Name object at 0x7f67ff3b0c40&#45;&gt;ast.Load object at 0x7f6847aedf90 -->
<g id="edge36" class="edge">
<title>ast.Name object at 0x7f67ff3b0c40&#45;&gt;ast.Load object at 0x7f6847aedf90</title>
<path fill="none" stroke="black" d="M534.07,-75.01C537,-73.85 539.99,-72.81 542.92,-72 721.67,-22.41 945.87,-18.04 1033.45,-18.44"/>
<polygon fill="black" stroke="black" points="1033.65,-21.94 1043.68,-18.51 1033.7,-14.94 1033.65,-21.94"/>
</g>
<!-- ast.Name object at 0x7f67ff3b3370 -->
<g id="node29" class="node">
<title>ast.Name object at 0x7f67ff3b3370</title>
<path fill="#66cdaa" stroke="black" d="M233.92,-108C233.92,-108 203.92,-108 203.92,-108 197.92,-108 191.92,-102 191.92,-96 191.92,-96 191.92,-84 191.92,-84 191.92,-78 197.92,-72 203.92,-72 203.92,-72 233.92,-72 233.92,-72 239.92,-72 245.92,-78 245.92,-84 245.92,-84 245.92,-96 245.92,-96 245.92,-102 239.92,-108 233.92,-108"/>
<text text-anchor="middle" x="218.92" y="-86.3" font-family="Times,serif" font-size="14.00">Name</text>
</g>
<!-- ast.Assign object at 0x7f67ff3b1e10&#45;&gt;ast.Name object at 0x7f67ff3b3370 -->
<g id="edge38" class="edge">
<title>ast.Assign object at 0x7f67ff3b1e10&#45;&gt;ast.Name object at 0x7f67ff3b3370</title>
<path fill="none" stroke="black" d="M551.75,-147.08C548.82,-145.91 545.84,-144.85 542.92,-144 422.19,-108.92 380.89,-142.21 256.02,-107.75"/>
<polygon fill="black" stroke="black" points="256.66,-104.3 246.09,-104.92 254.74,-111.03 256.66,-104.3"/>
</g>
<!-- ast.Name object at 0x7f67ff3b3ac0 -->
<g id="node30" class="node">
<title>ast.Name object at 0x7f67ff3b3ac0</title>
<path fill="#66cdaa" stroke="black" d="M593.92,-108C593.92,-108 563.92,-108 563.92,-108 557.92,-108 551.92,-102 551.92,-96 551.92,-96 551.92,-84 551.92,-84 551.92,-78 557.92,-72 563.92,-72 563.92,-72 593.92,-72 593.92,-72 599.92,-72 605.92,-78 605.92,-84 605.92,-84 605.92,-96 605.92,-96 605.92,-102 599.92,-108 593.92,-108"/>
<text text-anchor="middle" x="578.92" y="-86.3" font-family="Times,serif" font-size="14.00">Name</text>
</g>
<!-- ast.Assign object at 0x7f67ff3b1e10&#45;&gt;ast.Name object at 0x7f67ff3b3ac0 -->
<g id="edge40" class="edge">
<title>ast.Assign object at 0x7f67ff3b1e10&#45;&gt;ast.Name object at 0x7f67ff3b3ac0</title>
<path fill="none" stroke="black" d="M578.92,-143.7C578.92,-135.98 578.92,-126.71 578.92,-118.11"/>
<polygon fill="black" stroke="black" points="582.42,-118.1 578.92,-108.1 575.42,-118.1 582.42,-118.1"/>
</g>
<!-- ast.Name object at 0x7f67ff3b3370&#45;&gt;ast.Store object at 0x7f6847aedff0 -->
<g id="edge39" class="edge">
<title>ast.Name object at 0x7f67ff3b3370&#45;&gt;ast.Store object at 0x7f6847aedff0</title>
<path fill="none" stroke="black" d="M201.12,-71.7C192.32,-63.14 181.54,-52.66 171.92,-43.3"/>
<polygon fill="black" stroke="black" points="174.12,-40.57 164.51,-36.1 169.24,-45.58 174.12,-40.57"/>
</g>
<!-- ast.Name object at 0x7f67ff3b3ac0&#45;&gt;ast.Load object at 0x7f6847aedf90 -->
<g id="edge41" class="edge">
<title>ast.Name object at 0x7f67ff3b3ac0&#45;&gt;ast.Load object at 0x7f6847aedf90</title>
<path fill="none" stroke="black" d="M606.35,-76.41C610.82,-74.72 615.45,-73.17 619.92,-72 769.83,-32.92 955.33,-22.61 1033.46,-19.92"/>
<polygon fill="black" stroke="black" points="1033.87,-23.41 1043.75,-19.59 1033.65,-16.42 1033.87,-23.41"/>
</g>
<!-- ast.Compare object at 0x7f67ff3b3790 -->
<g id="node32" class="node">
<title>ast.Compare object at 0x7f67ff3b3790</title>
<path fill="#66cdaa" stroke="black" d="M1456.42,-180C1456.42,-180 1413.42,-180 1413.42,-180 1407.42,-180 1401.42,-174 1401.42,-168 1401.42,-168 1401.42,-156 1401.42,-156 1401.42,-150 1407.42,-144 1413.42,-144 1413.42,-144 1456.42,-144 1456.42,-144 1462.42,-144 1468.42,-150 1468.42,-156 1468.42,-156 1468.42,-168 1468.42,-168 1468.42,-174 1462.42,-180 1456.42,-180"/>
<text text-anchor="middle" x="1434.92" y="-158.3" font-family="Times,serif" font-size="14.00">Compare</text>
</g>
<!-- ast.While object at 0x7f67ff3b13f0&#45;&gt;ast.Compare object at 0x7f67ff3b3790 -->
<g id="edge43" class="edge">
<title>ast.While object at 0x7f67ff3b13f0&#45;&gt;ast.Compare object at 0x7f67ff3b3790</title>
<path fill="none" stroke="black" d="M967.02,-296.49C975.9,-293.74 985.82,-290.7 994.92,-288 1139.55,-245.11 1311.83,-197.04 1391.07,-175.1"/>
<polygon fill="black" stroke="black" points="1392.47,-178.34 1401.17,-172.3 1390.6,-171.6 1392.47,-178.34"/>
</g>
<!-- ast.If object at 0x7f67fead9ea0 -->
<g id="node36" class="node">
<title>ast.If object at 0x7f67fead9ea0</title>
<path fill="#66cdaa" stroke="black" d="M954.92,-252C954.92,-252 924.92,-252 924.92,-252 918.92,-252 912.92,-246 912.92,-240 912.92,-240 912.92,-228 912.92,-228 912.92,-222 918.92,-216 924.92,-216 924.92,-216 954.92,-216 954.92,-216 960.92,-216 966.92,-222 966.92,-228 966.92,-228 966.92,-240 966.92,-240 966.92,-246 960.92,-252 954.92,-252"/>
<text text-anchor="middle" x="939.92" y="-230.3" font-family="Times,serif" font-size="14.00">If</text>
</g>
<!-- ast.While object at 0x7f67ff3b13f0&#45;&gt;ast.If object at 0x7f67fead9ea0 -->
<g id="edge49" class="edge">
<title>ast.While object at 0x7f67ff3b13f0&#45;&gt;ast.If object at 0x7f67fead9ea0</title>
<path fill="none" stroke="black" d="M939.92,-287.7C939.92,-279.98 939.92,-270.71 939.92,-262.11"/>
<polygon fill="black" stroke="black" points="943.42,-262.1 939.92,-252.1 936.42,-262.1 943.42,-262.1"/>
</g>
<!-- ast.Name object at 0x7f67ff3b04f0 -->
<g id="node33" class="node">
<title>ast.Name object at 0x7f67ff3b04f0</title>
<path fill="#66cdaa" stroke="black" d="M1413.92,-108C1413.92,-108 1383.92,-108 1383.92,-108 1377.92,-108 1371.92,-102 1371.92,-96 1371.92,-96 1371.92,-84 1371.92,-84 1371.92,-78 1377.92,-72 1383.92,-72 1383.92,-72 1413.92,-72 1413.92,-72 1419.92,-72 1425.92,-78 1425.92,-84 1425.92,-84 1425.92,-96 1425.92,-96 1425.92,-102 1419.92,-108 1413.92,-108"/>
<text text-anchor="middle" x="1398.92" y="-86.3" font-family="Times,serif" font-size="14.00">Name</text>
</g>
<!-- ast.Compare object at 0x7f67ff3b3790&#45;&gt;ast.Name object at 0x7f67ff3b04f0 -->
<g id="edge44" class="edge">
<title>ast.Compare object at 0x7f67ff3b3790&#45;&gt;ast.Name object at 0x7f67ff3b04f0</title>
<path fill="none" stroke="black" d="M1426.02,-143.7C1421.92,-135.73 1416.97,-126.1 1412.43,-117.26"/>
<polygon fill="black" stroke="black" points="1415.4,-115.4 1407.72,-108.1 1409.18,-118.6 1415.4,-115.4"/>
</g>
<!-- ast.NotEq object at 0x7f6847aee920 -->
<g id="node34" class="node">
<title>ast.NotEq object at 0x7f6847aee920</title>
<path fill="#66cdaa" stroke="black" d="M1629.92,-108C1629.92,-108 1599.92,-108 1599.92,-108 1593.92,-108 1587.92,-102 1587.92,-96 1587.92,-96 1587.92,-84 1587.92,-84 1587.92,-78 1593.92,-72 1599.92,-72 1599.92,-72 1629.92,-72 1629.92,-72 1635.92,-72 1641.92,-78 1641.92,-84 1641.92,-84 1641.92,-96 1641.92,-96 1641.92,-102 1635.92,-108 1629.92,-108"/>
<text text-anchor="middle" x="1614.92" y="-86.3" font-family="Times,serif" font-size="14.00">NotEq</text>
</g>
<!-- ast.Compare object at 0x7f67ff3b3790&#45;&gt;ast.NotEq object at 0x7f6847aee920 -->
<g id="edge46" class="edge">
<title>ast.Compare object at 0x7f67ff3b3790&#45;&gt;ast.NotEq object at 0x7f6847aee920</title>
<path fill="none" stroke="black" d="M1468.71,-149.52C1496.09,-140 1535.8,-125.72 1578.47,-108.02"/>
<polygon fill="black" stroke="black" points="1580.04,-111.16 1587.91,-104.07 1577.33,-104.7 1580.04,-111.16"/>
</g>
<!-- ast.Name object at 0x7f67ff3b2320 -->
<g id="node35" class="node">
<title>ast.Name object at 0x7f67ff3b2320</title>
<path fill="#66cdaa" stroke="black" d="M1485.92,-108C1485.92,-108 1455.92,-108 1455.92,-108 1449.92,-108 1443.92,-102 1443.92,-96 1443.92,-96 1443.92,-84 1443.92,-84 1443.92,-78 1449.92,-72 1455.92,-72 1455.92,-72 1485.92,-72 1485.92,-72 1491.92,-72 1497.92,-78 1497.92,-84 1497.92,-84 1497.92,-96 1497.92,-96 1497.92,-102 1491.92,-108 1485.92,-108"/>
<text text-anchor="middle" x="1470.92" y="-86.3" font-family="Times,serif" font-size="14.00">Name</text>
</g>
<!-- ast.Compare object at 0x7f67ff3b3790&#45;&gt;ast.Name object at 0x7f67ff3b2320 -->
<g id="edge47" class="edge">
<title>ast.Compare object at 0x7f67ff3b3790&#45;&gt;ast.Name object at 0x7f67ff3b2320</title>
<path fill="none" stroke="black" d="M1443.82,-143.7C1447.92,-135.73 1452.87,-126.1 1457.41,-117.26"/>
<polygon fill="black" stroke="black" points="1460.66,-118.6 1462.12,-108.1 1454.44,-115.4 1460.66,-118.6"/>
</g>
<!-- ast.Name object at 0x7f67ff3b04f0&#45;&gt;ast.Load object at 0x7f6847aedf90 -->
<g id="edge45" class="edge">
<title>ast.Name object at 0x7f67ff3b04f0&#45;&gt;ast.Load object at 0x7f6847aedf90</title>
<path fill="none" stroke="black" d="M1371.7,-75.24C1368.78,-74.04 1365.82,-72.93 1362.92,-72 1273.97,-43.47 1164.54,-28.77 1108.26,-22.62"/>
<polygon fill="black" stroke="black" points="1108.38,-19.11 1098.06,-21.53 1107.64,-26.07 1108.38,-19.11"/>
</g>
<!-- ast.Name object at 0x7f67ff3b2320&#45;&gt;ast.Load object at 0x7f6847aedf90 -->
<g id="edge48" class="edge">
<title>ast.Name object at 0x7f67ff3b2320&#45;&gt;ast.Load object at 0x7f6847aedf90</title>
<path fill="none" stroke="black" d="M1443.74,-75.14C1440.81,-73.96 1437.83,-72.88 1434.92,-72 1318.85,-37 1174.75,-24.76 1108.03,-20.78"/>
<polygon fill="black" stroke="black" points="1108.18,-17.28 1098,-20.21 1107.78,-24.27 1108.18,-17.28"/>
</g>
<!-- ast.Compare object at 0x7f67feada5c0 -->
<g id="node37" class="node">
<title>ast.Compare object at 0x7f67feada5c0</title>
<path fill="#66cdaa" stroke="black" d="M1636.42,-180C1636.42,-180 1593.42,-180 1593.42,-180 1587.42,-180 1581.42,-174 1581.42,-168 1581.42,-168 1581.42,-156 1581.42,-156 1581.42,-150 1587.42,-144 1593.42,-144 1593.42,-144 1636.42,-144 1636.42,-144 1642.42,-144 1648.42,-150 1648.42,-156 1648.42,-156 1648.42,-168 1648.42,-168 1648.42,-174 1642.42,-180 1636.42,-180"/>
<text text-anchor="middle" x="1614.92" y="-158.3" font-family="Times,serif" font-size="14.00">Compare</text>
</g>
<!-- ast.If object at 0x7f67fead9ea0&#45;&gt;ast.Compare object at 0x7f67feada5c0 -->
<g id="edge50" class="edge">
<title>ast.If object at 0x7f67fead9ea0&#45;&gt;ast.Compare object at 0x7f67feada5c0</title>
<path fill="none" stroke="black" d="M967.1,-230.57C1046.06,-223.45 1282.27,-201.77 1477.92,-180 1509.04,-176.54 1544.08,-172.18 1570.93,-168.74"/>
<polygon fill="black" stroke="black" points="1571.7,-172.18 1581.17,-167.43 1570.8,-165.23 1571.7,-172.18"/>
</g>
<!-- ast.AugAssign object at 0x7f67fead8250 -->
<g id="node40" class="node">
<title>ast.AugAssign object at 0x7f67fead8250</title>
<path fill="#66cdaa" stroke="black" d="M871.42,-180C871.42,-180 818.42,-180 818.42,-180 812.42,-180 806.42,-174 806.42,-168 806.42,-168 806.42,-156 806.42,-156 806.42,-150 812.42,-144 818.42,-144 818.42,-144 871.42,-144 871.42,-144 877.42,-144 883.42,-150 883.42,-156 883.42,-156 883.42,-168 883.42,-168 883.42,-174 877.42,-180 871.42,-180"/>
<text text-anchor="middle" x="844.92" y="-158.3" font-family="Times,serif" font-size="14.00">AugAssign</text>
</g>
<!-- ast.If object at 0x7f67fead9ea0&#45;&gt;ast.AugAssign object at 0x7f67fead8250 -->
<g id="edge56" class="edge">
<title>ast.If object at 0x7f67fead9ea0&#45;&gt;ast.AugAssign object at 0x7f67fead8250</title>
<path fill="none" stroke="black" d="M916.44,-215.7C904.36,-206.8 889.47,-195.82 876.4,-186.2"/>
<polygon fill="black" stroke="black" points="878.26,-183.22 868.13,-180.1 874.11,-188.85 878.26,-183.22"/>
</g>
<!-- ast.AugAssign object at 0x7f67fead8c70 -->
<g id="node44" class="node">
<title>ast.AugAssign object at 0x7f67fead8c70</title>
<path fill="#66cdaa" stroke="black" d="M966.42,-180C966.42,-180 913.42,-180 913.42,-180 907.42,-180 901.42,-174 901.42,-168 901.42,-168 901.42,-156 901.42,-156 901.42,-150 907.42,-144 913.42,-144 913.42,-144 966.42,-144 966.42,-144 972.42,-144 978.42,-150 978.42,-156 978.42,-156 978.42,-168 978.42,-168 978.42,-174 972.42,-180 966.42,-180"/>
<text text-anchor="middle" x="939.92" y="-158.3" font-family="Times,serif" font-size="14.00">AugAssign</text>
</g>
<!-- ast.If object at 0x7f67fead9ea0&#45;&gt;ast.AugAssign object at 0x7f67fead8c70 -->
<g id="edge62" class="edge">
<title>ast.If object at 0x7f67fead9ea0&#45;&gt;ast.AugAssign object at 0x7f67fead8c70</title>
<path fill="none" stroke="black" d="M939.92,-215.7C939.92,-207.98 939.92,-198.71 939.92,-190.11"/>
<polygon fill="black" stroke="black" points="943.42,-190.1 939.92,-180.1 936.42,-190.1 943.42,-190.1"/>
</g>
<!-- ast.Compare object at 0x7f67feada5c0&#45;&gt;ast.Gt object at 0x7f6847aeea40 -->
<g id="edge53" class="edge">
<title>ast.Compare object at 0x7f67feada5c0&#45;&gt;ast.Gt object at 0x7f6847aeea40</title>
<path fill="none" stroke="black" d="M1597.12,-143.7C1588.32,-135.14 1577.54,-124.66 1567.92,-115.3"/>
<polygon fill="black" stroke="black" points="1570.12,-112.57 1560.51,-108.1 1565.24,-117.58 1570.12,-112.57"/>
</g>
<!-- ast.Name object at 0x7f67feada2f0 -->
<g id="node38" class="node">
<title>ast.Name object at 0x7f67feada2f0</title>
<path fill="#66cdaa" stroke="black" d="M1701.92,-108C1701.92,-108 1671.92,-108 1671.92,-108 1665.92,-108 1659.92,-102 1659.92,-96 1659.92,-96 1659.92,-84 1659.92,-84 1659.92,-78 1665.92,-72 1671.92,-72 1671.92,-72 1701.92,-72 1701.92,-72 1707.92,-72 1713.92,-78 1713.92,-84 1713.92,-84 1713.92,-96 1713.92,-96 1713.92,-102 1707.92,-108 1701.92,-108"/>
<text text-anchor="middle" x="1686.92" y="-86.3" font-family="Times,serif" font-size="14.00">Name</text>
</g>
<!-- ast.Compare object at 0x7f67feada5c0&#45;&gt;ast.Name object at 0x7f67feada2f0 -->
<g id="edge51" class="edge">
<title>ast.Compare object at 0x7f67feada5c0&#45;&gt;ast.Name object at 0x7f67feada2f0</title>
<path fill="none" stroke="black" d="M1632.72,-143.7C1641.52,-135.14 1652.3,-124.66 1661.92,-115.3"/>
<polygon fill="black" stroke="black" points="1664.6,-117.58 1669.33,-108.1 1659.72,-112.57 1664.6,-117.58"/>
</g>
<!-- ast.Name object at 0x7f67feada560 -->
<g id="node39" class="node">
<title>ast.Name object at 0x7f67feada560</title>
<path fill="#66cdaa" stroke="black" d="M1773.92,-108C1773.92,-108 1743.92,-108 1743.92,-108 1737.92,-108 1731.92,-102 1731.92,-96 1731.92,-96 1731.92,-84 1731.92,-84 1731.92,-78 1737.92,-72 1743.92,-72 1743.92,-72 1773.92,-72 1773.92,-72 1779.92,-72 1785.92,-78 1785.92,-84 1785.92,-84 1785.92,-96 1785.92,-96 1785.92,-102 1779.92,-108 1773.92,-108"/>
<text text-anchor="middle" x="1758.92" y="-86.3" font-family="Times,serif" font-size="14.00">Name</text>
</g>
<!-- ast.Compare object at 0x7f67feada5c0&#45;&gt;ast.Name object at 0x7f67feada560 -->
<g id="edge54" class="edge">
<title>ast.Compare object at 0x7f67feada5c0&#45;&gt;ast.Name object at 0x7f67feada560</title>
<path fill="none" stroke="black" d="M1648.68,-144.59C1670.79,-133.84 1699.68,-119.79 1722.34,-108.78"/>
<polygon fill="black" stroke="black" points="1724.17,-111.78 1731.63,-104.26 1721.11,-105.49 1724.17,-111.78"/>
</g>
<!-- ast.Name object at 0x7f67feada2f0&#45;&gt;ast.Load object at 0x7f6847aedf90 -->
<g id="edge52" class="edge">
<title>ast.Name object at 0x7f67feada2f0&#45;&gt;ast.Load object at 0x7f6847aedf90</title>
<path fill="none" stroke="black" d="M1659.78,-74.98C1656.84,-73.83 1653.85,-72.8 1650.92,-72 1547.79,-43.88 1219.39,-26.06 1108.16,-20.7"/>
<polygon fill="black" stroke="black" points="1108.25,-17.2 1098.09,-20.22 1107.91,-24.2 1108.25,-17.2"/>
</g>
<!-- ast.Name object at 0x7f67feada560&#45;&gt;ast.Load object at 0x7f6847aedf90 -->
<g id="edge55" class="edge">
<title>ast.Name object at 0x7f67feada560&#45;&gt;ast.Load object at 0x7f6847aedf90</title>
<path fill="none" stroke="black" d="M1731.79,-74.95C1728.85,-73.8 1725.86,-72.79 1722.92,-72 1605.5,-40.62 1228.65,-24.66 1108.26,-20.28"/>
<polygon fill="black" stroke="black" points="1108.2,-16.77 1098.08,-19.91 1107.95,-23.77 1108.2,-16.77"/>
</g>
<!-- ast.Name object at 0x7f67fead91e0 -->
<g id="node41" class="node">
<title>ast.Name object at 0x7f67fead91e0</title>
<path fill="#66cdaa" stroke="black" d="M305.92,-108C305.92,-108 275.92,-108 275.92,-108 269.92,-108 263.92,-102 263.92,-96 263.92,-96 263.92,-84 263.92,-84 263.92,-78 269.92,-72 275.92,-72 275.92,-72 305.92,-72 305.92,-72 311.92,-72 317.92,-78 317.92,-84 317.92,-84 317.92,-96 317.92,-96 317.92,-102 311.92,-108 305.92,-108"/>
<text text-anchor="middle" x="290.92" y="-86.3" font-family="Times,serif" font-size="14.00">Name</text>
</g>
<!-- ast.AugAssign object at 0x7f67fead8250&#45;&gt;ast.Name object at 0x7f67fead91e0 -->
<g id="edge57" class="edge">
<title>ast.AugAssign object at 0x7f67fead8250&#45;&gt;ast.Name object at 0x7f67fead91e0</title>
<path fill="none" stroke="black" d="M806.32,-155.46C780.94,-151.93 746.99,-147.38 716.92,-144 547.15,-124.9 496.7,-152.79 327.77,-107.66"/>
<polygon fill="black" stroke="black" points="328.63,-104.26 318.06,-105.02 326.79,-111.02 328.63,-104.26"/>
</g>
<!-- ast.Sub object at 0x7f6847aee230 -->
<g id="node42" class="node">
<title>ast.Sub object at 0x7f6847aee230</title>
<path fill="#66cdaa" stroke="black" d="M931.92,-108C931.92,-108 901.92,-108 901.92,-108 895.92,-108 889.92,-102 889.92,-96 889.92,-96 889.92,-84 889.92,-84 889.92,-78 895.92,-72 901.92,-72 901.92,-72 931.92,-72 931.92,-72 937.92,-72 943.92,-78 943.92,-84 943.92,-84 943.92,-96 943.92,-96 943.92,-102 937.92,-108 931.92,-108"/>
<text text-anchor="middle" x="916.92" y="-86.3" font-family="Times,serif" font-size="14.00">Sub</text>
</g>
<!-- ast.AugAssign object at 0x7f67fead8250&#45;&gt;ast.Sub object at 0x7f6847aee230 -->
<g id="edge59" class="edge">
<title>ast.AugAssign object at 0x7f67fead8250&#45;&gt;ast.Sub object at 0x7f6847aee230</title>
<path fill="none" stroke="black" d="M862.72,-143.7C871.52,-135.14 882.3,-124.66 891.92,-115.3"/>
<polygon fill="black" stroke="black" points="894.6,-117.58 899.33,-108.1 889.72,-112.57 894.6,-117.58"/>
</g>
<!-- ast.Name object at 0x7f67feada6b0 -->
<g id="node43" class="node">
<title>ast.Name object at 0x7f67feada6b0</title>
<path fill="#66cdaa" stroke="black" d="M859.92,-108C859.92,-108 829.92,-108 829.92,-108 823.92,-108 817.92,-102 817.92,-96 817.92,-96 817.92,-84 817.92,-84 817.92,-78 823.92,-72 829.92,-72 829.92,-72 859.92,-72 859.92,-72 865.92,-72 871.92,-78 871.92,-84 871.92,-84 871.92,-96 871.92,-96 871.92,-102 865.92,-108 859.92,-108"/>
<text text-anchor="middle" x="844.92" y="-86.3" font-family="Times,serif" font-size="14.00">Name</text>
</g>
<!-- ast.AugAssign object at 0x7f67fead8250&#45;&gt;ast.Name object at 0x7f67feada6b0 -->
<g id="edge60" class="edge">
<title>ast.AugAssign object at 0x7f67fead8250&#45;&gt;ast.Name object at 0x7f67feada6b0</title>
<path fill="none" stroke="black" d="M844.92,-143.7C844.92,-135.98 844.92,-126.71 844.92,-118.11"/>
<polygon fill="black" stroke="black" points="848.42,-118.1 844.92,-108.1 841.42,-118.1 848.42,-118.1"/>
</g>
<!-- ast.Name object at 0x7f67fead91e0&#45;&gt;ast.Store object at 0x7f6847aedff0 -->
<g id="edge58" class="edge">
<title>ast.Name object at 0x7f67fead91e0&#45;&gt;ast.Store object at 0x7f6847aedff0</title>
<path fill="none" stroke="black" d="M263.83,-75.83C241.15,-64.81 208.56,-48.97 183.55,-36.81"/>
<polygon fill="black" stroke="black" points="184.9,-33.57 174.37,-32.35 181.84,-39.87 184.9,-33.57"/>
</g>
<!-- ast.Name object at 0x7f67feada6b0&#45;&gt;ast.Load object at 0x7f6847aedf90 -->
<g id="edge61" class="edge">
<title>ast.Name object at 0x7f67feada6b0&#45;&gt;ast.Load object at 0x7f6847aedf90</title>
<path fill="none" stroke="black" d="M872.23,-75.52C875.14,-74.26 878.07,-73.06 880.92,-72 932.91,-52.63 995.2,-36.55 1033.92,-27.35"/>
<polygon fill="black" stroke="black" points="1034.78,-30.75 1043.72,-25.05 1033.18,-23.93 1034.78,-30.75"/>
</g>
<!-- ast.AugAssign object at 0x7f67fead8c70&#45;&gt;ast.Sub object at 0x7f6847aee230 -->
<g id="edge65" class="edge">
<title>ast.AugAssign object at 0x7f67fead8c70&#45;&gt;ast.Sub object at 0x7f6847aee230</title>
<path fill="none" stroke="black" d="M934.23,-143.7C931.67,-135.9 928.59,-126.51 925.74,-117.83"/>
<polygon fill="black" stroke="black" points="928.99,-116.51 922.54,-108.1 922.34,-118.7 928.99,-116.51"/>
</g>
<!-- ast.Name object at 0x7f67fead8610 -->
<g id="node45" class="node">
<title>ast.Name object at 0x7f67fead8610</title>
<path fill="#66cdaa" stroke="black" d="M377.92,-108C377.92,-108 347.92,-108 347.92,-108 341.92,-108 335.92,-102 335.92,-96 335.92,-96 335.92,-84 335.92,-84 335.92,-78 341.92,-72 347.92,-72 347.92,-72 377.92,-72 377.92,-72 383.92,-72 389.92,-78 389.92,-84 389.92,-84 389.92,-96 389.92,-96 389.92,-102 383.92,-108 377.92,-108"/>
<text text-anchor="middle" x="362.92" y="-86.3" font-family="Times,serif" font-size="14.00">Name</text>
</g>
<!-- ast.AugAssign object at 0x7f67fead8c70&#45;&gt;ast.Name object at 0x7f67fead8610 -->
<g id="edge63" class="edge">
<title>ast.AugAssign object at 0x7f67fead8c70&#45;&gt;ast.Name object at 0x7f67fead8610</title>
<path fill="none" stroke="black" d="M901.18,-146.06C898.41,-145.28 895.64,-144.58 892.92,-144 680.87,-98.83 613.86,-161.98 400.01,-107.66"/>
<polygon fill="black" stroke="black" points="400.6,-104.2 390.04,-105.08 398.84,-110.98 400.6,-104.2"/>
</g>
<!-- ast.Name object at 0x7f67fead9de0 -->
<g id="node46" class="node">
<title>ast.Name object at 0x7f67fead9de0</title>
<path fill="#66cdaa" stroke="black" d="M1003.92,-108C1003.92,-108 973.92,-108 973.92,-108 967.92,-108 961.92,-102 961.92,-96 961.92,-96 961.92,-84 961.92,-84 961.92,-78 967.92,-72 973.92,-72 973.92,-72 1003.92,-72 1003.92,-72 1009.92,-72 1015.92,-78 1015.92,-84 1015.92,-84 1015.92,-96 1015.92,-96 1015.92,-102 1009.92,-108 1003.92,-108"/>
<text text-anchor="middle" x="988.92" y="-86.3" font-family="Times,serif" font-size="14.00">Name</text>
</g>
<!-- ast.AugAssign object at 0x7f67fead8c70&#45;&gt;ast.Name object at 0x7f67fead9de0 -->
<g id="edge66" class="edge">
<title>ast.AugAssign object at 0x7f67fead8c70&#45;&gt;ast.Name object at 0x7f67fead9de0</title>
<path fill="none" stroke="black" d="M952.03,-143.7C957.79,-135.47 964.78,-125.48 971.13,-116.42"/>
<polygon fill="black" stroke="black" points="974.08,-118.3 976.95,-108.1 968.34,-114.29 974.08,-118.3"/>
</g>
<!-- ast.Name object at 0x7f67fead8610&#45;&gt;ast.Store object at 0x7f6847aedff0 -->
<g id="edge64" class="edge">
<title>ast.Name object at 0x7f67fead8610&#45;&gt;ast.Store object at 0x7f6847aedff0</title>
<path fill="none" stroke="black" d="M335.59,-75.56C332.69,-74.29 329.76,-73.08 326.92,-72 278.5,-53.57 220.77,-37.58 183.98,-28.12"/>
<polygon fill="black" stroke="black" points="184.74,-24.7 174.19,-25.62 183.02,-31.48 184.74,-24.7"/>
</g>
<!-- ast.Name object at 0x7f67fead9de0&#45;&gt;ast.Load object at 0x7f6847aedf90 -->
<g id="edge67" class="edge">
<title>ast.Name object at 0x7f67fead9de0&#45;&gt;ast.Load object at 0x7f6847aedf90</title>
<path fill="none" stroke="black" d="M1009.19,-71.7C1019.42,-62.97 1031.98,-52.24 1043.1,-42.75"/>
<polygon fill="black" stroke="black" points="1045.55,-45.26 1050.88,-36.1 1041.01,-39.94 1045.55,-45.26"/>
</g>
<!-- ast.Name object at 0x7f67fead9d50 -->
<g id="node48" class="node">
<title>ast.Name object at 0x7f67fead9d50</title>
<path fill="#66cdaa" stroke="black" d="M1547.92,-252C1547.92,-252 1517.92,-252 1517.92,-252 1511.92,-252 1505.92,-246 1505.92,-240 1505.92,-240 1505.92,-228 1505.92,-228 1505.92,-222 1511.92,-216 1517.92,-216 1517.92,-216 1547.92,-216 1547.92,-216 1553.92,-216 1559.92,-222 1559.92,-228 1559.92,-228 1559.92,-240 1559.92,-240 1559.92,-246 1553.92,-252 1547.92,-252"/>
<text text-anchor="middle" x="1532.92" y="-230.3" font-family="Times,serif" font-size="14.00">Name</text>
</g>
<!-- ast.Return object at 0x7f67feadac80&#45;&gt;ast.Name object at 0x7f67fead9d50 -->
<g id="edge69" class="edge">
<title>ast.Return object at 0x7f67feadac80&#45;&gt;ast.Name object at 0x7f67fead9d50</title>
<path fill="none" stroke="black" d="M1058.27,-301.19C1142.67,-289.42 1399.21,-253.65 1495.7,-240.19"/>
<polygon fill="black" stroke="black" points="1496.43,-243.62 1505.86,-238.77 1495.47,-236.69 1496.43,-243.62"/>
</g>
<!-- ast.Name object at 0x7f67fead9d50&#45;&gt;ast.Load object at 0x7f6847aedf90 -->
<g id="edge70" class="edge">
<title>ast.Name object at 0x7f67fead9d50&#45;&gt;ast.Load object at 0x7f6847aedf90</title>
<path fill="none" stroke="black" d="M1560.02,-227.77C1641.19,-211.04 1872.07,-155 1794.92,-72 1747.88,-21.39 1250.2,-18.6 1108.42,-18.83"/>
<polygon fill="black" stroke="black" points="1108.07,-15.34 1098.08,-18.86 1108.08,-22.34 1108.07,-15.34"/>
</g>
</g>
</svg>
