<?xml version="1.0" encoding="UTF-8" standalone="no"?>
<!DOCTYPE svg PUBLIC "-//W3C//DTD SVG 1.1//EN"
 "http://www.w3.org/Graphics/SVG/1.1/DTD/svg11.dtd">
<!-- Generated by graphviz version 2.43.0 (0)
 -->
<!-- Title: %3 Pages: 1 -->
<svg width="902pt" height="548pt"
 viewBox="0.00 0.00 901.50 548.00" xmlns="http://www.w3.org/2000/svg" xmlns:xlink="http://www.w3.org/1999/xlink">
<g id="graph0" class="graph" transform="scale(1 1) rotate(0) translate(4 544)">
<title>%3</title>
<polygon fill="white" stroke="transparent" points="-4,4 -4,-544 897.5,-544 897.5,4 -4,4"/>
<!-- ast.Module object at 0x7efd103e3010 -->
<g id="node1" class="node">
<title>ast.Module object at 0x7efd103e3010</title>
<path fill="#66cdaa" stroke="black" d="M577,-540C577,-540 542,-540 542,-540 536,-540 530,-534 530,-528 530,-528 530,-516 530,-516 530,-510 536,-504 542,-504 542,-504 577,-504 577,-504 583,-504 589,-510 589,-516 589,-516 589,-528 589,-528 589,-534 583,-540 577,-540"/>
<text text-anchor="middle" x="559.5" y="-518.3" font-family="Times,serif" font-size="14.00">Module</text>
</g>
<!-- ast.FunctionDef object at 0x7efd10678910 -->
<g id="node2" class="node">
<title>ast.FunctionDef object at 0x7efd10678910</title>
<path fill="#66cdaa" stroke="black" d="M590,-468C590,-468 529,-468 529,-468 523,-468 517,-462 517,-456 517,-456 517,-444 517,-444 517,-438 523,-432 529,-432 529,-432 590,-432 590,-432 596,-432 602,-438 602,-444 602,-444 602,-456 602,-456 602,-462 596,-468 590,-468"/>
<text text-anchor="middle" x="559.5" y="-446.3" font-family="Times,serif" font-size="14.00">FunctionDef</text>
</g>
<!-- ast.Module object at 0x7efd103e3010&#45;&gt;ast.FunctionDef object at 0x7efd10678910 -->
<g id="edge1" class="edge">
<title>ast.Module object at 0x7efd103e3010&#45;&gt;ast.FunctionDef object at 0x7efd10678910</title>
<path fill="none" stroke="black" d="M559.5,-503.7C559.5,-495.98 559.5,-486.71 559.5,-478.11"/>
<polygon fill="black" stroke="black" points="563,-478.1 559.5,-468.1 556,-478.1 563,-478.1"/>
</g>
<!-- ast.arguments object at 0x7efd10679300 -->
<g id="node3" class="node">
<title>ast.arguments object at 0x7efd10679300</title>
<path fill="#66cdaa" stroke="black" d="M383.5,-396C383.5,-396 333.5,-396 333.5,-396 327.5,-396 321.5,-390 321.5,-384 321.5,-384 321.5,-372 321.5,-372 321.5,-366 327.5,-360 333.5,-360 333.5,-360 383.5,-360 383.5,-360 389.5,-360 395.5,-366 395.5,-372 395.5,-372 395.5,-384 395.5,-384 395.5,-390 389.5,-396 383.5,-396"/>
<text text-anchor="middle" x="358.5" y="-374.3" font-family="Times,serif" font-size="14.00">arguments</text>
</g>
<!-- ast.FunctionDef object at 0x7efd10678910&#45;&gt;ast.arguments object at 0x7efd10679300 -->
<g id="edge2" class="edge">
<title>ast.FunctionDef object at 0x7efd10678910&#45;&gt;ast.arguments object at 0x7efd10679300</title>
<path fill="none" stroke="black" d="M516.87,-434.15C484.15,-422.76 439.01,-407.04 405.29,-395.29"/>
<polygon fill="black" stroke="black" points="406.25,-391.92 395.66,-391.94 403.95,-398.54 406.25,-391.92"/>
</g>
<!-- ast.If object at 0x7efd10679bd0 -->
<g id="node5" class="node">
<title>ast.If object at 0x7efd10679bd0</title>
<path fill="#66cdaa" stroke="black" d="M295.5,-324C295.5,-324 265.5,-324 265.5,-324 259.5,-324 253.5,-318 253.5,-312 253.5,-312 253.5,-300 253.5,-300 253.5,-294 259.5,-288 265.5,-288 265.5,-288 295.5,-288 295.5,-288 301.5,-288 307.5,-294 307.5,-300 307.5,-300 307.5,-312 307.5,-312 307.5,-318 301.5,-324 295.5,-324"/>
<text text-anchor="middle" x="280.5" y="-302.3" font-family="Times,serif" font-size="14.00">If</text>
</g>
<!-- ast.FunctionDef object at 0x7efd10678910&#45;&gt;ast.If object at 0x7efd10679bd0 -->
<g id="edge4" class="edge">
<title>ast.FunctionDef object at 0x7efd10678910&#45;&gt;ast.If object at 0x7efd10679bd0</title>
<path fill="none" stroke="black" d="M532.04,-431.92C501.46,-413.22 450.32,-382.85 404.5,-360 375.65,-345.61 341.95,-331.37 316.97,-321.27"/>
<polygon fill="black" stroke="black" points="318.1,-317.96 307.52,-317.48 315.5,-324.45 318.1,-317.96"/>
</g>
<!-- ast.Assign object at 0x7efd1067bb80 -->
<g id="node15" class="node">
<title>ast.Assign object at 0x7efd1067bb80</title>
<path fill="#66cdaa" stroke="black" d="M719.5,-396C719.5,-396 689.5,-396 689.5,-396 683.5,-396 677.5,-390 677.5,-384 677.5,-384 677.5,-372 677.5,-372 677.5,-366 683.5,-360 689.5,-360 689.5,-360 719.5,-360 719.5,-360 725.5,-360 731.5,-366 731.5,-372 731.5,-372 731.5,-384 731.5,-384 731.5,-390 725.5,-396 719.5,-396"/>
<text text-anchor="middle" x="704.5" y="-374.3" font-family="Times,serif" font-size="14.00">Assign</text>
</g>
<!-- ast.FunctionDef object at 0x7efd10678910&#45;&gt;ast.Assign object at 0x7efd1067bb80 -->
<g id="edge15" class="edge">
<title>ast.FunctionDef object at 0x7efd10678910&#45;&gt;ast.Assign object at 0x7efd1067bb80</title>
<path fill="none" stroke="black" d="M594.97,-431.88C617.13,-421.18 645.59,-407.44 667.94,-396.65"/>
<polygon fill="black" stroke="black" points="669.63,-399.72 677.12,-392.22 666.59,-393.42 669.63,-399.72"/>
</g>
<!-- ast.For object at 0x7efd10679600 -->
<g id="node19" class="node">
<title>ast.For object at 0x7efd10679600</title>
<path fill="#66cdaa" stroke="black" d="M574.5,-396C574.5,-396 544.5,-396 544.5,-396 538.5,-396 532.5,-390 532.5,-384 532.5,-384 532.5,-372 532.5,-372 532.5,-366 538.5,-360 544.5,-360 544.5,-360 574.5,-360 574.5,-360 580.5,-360 586.5,-366 586.5,-372 586.5,-372 586.5,-384 586.5,-384 586.5,-390 580.5,-396 574.5,-396"/>
<text text-anchor="middle" x="559.5" y="-374.3" font-family="Times,serif" font-size="14.00">For</text>
</g>
<!-- ast.FunctionDef object at 0x7efd10678910&#45;&gt;ast.For object at 0x7efd10679600 -->
<g id="edge19" class="edge">
<title>ast.FunctionDef object at 0x7efd10678910&#45;&gt;ast.For object at 0x7efd10679600</title>
<path fill="none" stroke="black" d="M559.5,-431.7C559.5,-423.98 559.5,-414.71 559.5,-406.11"/>
<polygon fill="black" stroke="black" points="563,-406.1 559.5,-396.1 556,-406.1 563,-406.1"/>
</g>
<!-- ast.Return object at 0x7efd10679150 -->
<g id="node39" class="node">
<title>ast.Return object at 0x7efd10679150</title>
<path fill="#66cdaa" stroke="black" d="M833.5,-396C833.5,-396 803.5,-396 803.5,-396 797.5,-396 791.5,-390 791.5,-384 791.5,-384 791.5,-372 791.5,-372 791.5,-366 797.5,-360 803.5,-360 803.5,-360 833.5,-360 833.5,-360 839.5,-360 845.5,-366 845.5,-372 845.5,-372 845.5,-384 845.5,-384 845.5,-390 839.5,-396 833.5,-396"/>
<text text-anchor="middle" x="818.5" y="-374.3" font-family="Times,serif" font-size="14.00">Return</text>
</g>
<!-- ast.FunctionDef object at 0x7efd10678910&#45;&gt;ast.Return object at 0x7efd10679150 -->
<g id="edge47" class="edge">
<title>ast.FunctionDef object at 0x7efd10678910&#45;&gt;ast.Return object at 0x7efd10679150</title>
<path fill="none" stroke="black" d="M602.27,-437.44C652.2,-423.95 733.96,-401.85 781.34,-389.04"/>
<polygon fill="black" stroke="black" points="782.45,-392.37 791.19,-386.38 780.63,-385.61 782.45,-392.37"/>
</g>
<!-- ast.arg object at 0x7efd10679c60 -->
<g id="node4" class="node">
<title>ast.arg object at 0x7efd10679c60</title>
<path fill="#66cdaa" stroke="black" d="M223.5,-324C223.5,-324 193.5,-324 193.5,-324 187.5,-324 181.5,-318 181.5,-312 181.5,-312 181.5,-300 181.5,-300 181.5,-294 187.5,-288 193.5,-288 193.5,-288 223.5,-288 223.5,-288 229.5,-288 235.5,-294 235.5,-300 235.5,-300 235.5,-312 235.5,-312 235.5,-318 229.5,-324 223.5,-324"/>
<text text-anchor="middle" x="208.5" y="-302.3" font-family="Times,serif" font-size="14.00">arg</text>
</g>
<!-- ast.arguments object at 0x7efd10679300&#45;&gt;ast.arg object at 0x7efd10679c60 -->
<g id="edge3" class="edge">
<title>ast.arguments object at 0x7efd10679300&#45;&gt;ast.arg object at 0x7efd10679c60</title>
<path fill="none" stroke="black" d="M321.77,-359.99C301.42,-350.55 275.47,-338.49 244.83,-324.14"/>
<polygon fill="black" stroke="black" points="246.16,-320.9 235.62,-319.83 243.19,-327.24 246.16,-320.9"/>
</g>
<!-- ast.Compare object at 0x7efd10679f00 -->
<g id="node6" class="node">
<title>ast.Compare object at 0x7efd10679f00</title>
<path fill="#66cdaa" stroke="black" d="M167,-252C167,-252 124,-252 124,-252 118,-252 112,-246 112,-240 112,-240 112,-228 112,-228 112,-222 118,-216 124,-216 124,-216 167,-216 167,-216 173,-216 179,-222 179,-228 179,-228 179,-240 179,-240 179,-246 173,-252 167,-252"/>
<text text-anchor="middle" x="145.5" y="-230.3" font-family="Times,serif" font-size="14.00">Compare</text>
</g>
<!-- ast.If object at 0x7efd10679bd0&#45;&gt;ast.Compare object at 0x7efd10679f00 -->
<g id="edge5" class="edge">
<title>ast.If object at 0x7efd10679bd0&#45;&gt;ast.Compare object at 0x7efd10679f00</title>
<path fill="none" stroke="black" d="M253.18,-290.83C234.3,-281.05 208.84,-267.84 187.41,-256.73"/>
<polygon fill="black" stroke="black" points="188.99,-253.61 178.5,-252.11 185.77,-259.82 188.99,-253.61"/>
</g>
<!-- ast.Raise object at 0x7efd1067bbb0 -->
<g id="node11" class="node">
<title>ast.Raise object at 0x7efd1067bbb0</title>
<path fill="#66cdaa" stroke="black" d="M254.5,-252C254.5,-252 224.5,-252 224.5,-252 218.5,-252 212.5,-246 212.5,-240 212.5,-240 212.5,-228 212.5,-228 212.5,-222 218.5,-216 224.5,-216 224.5,-216 254.5,-216 254.5,-216 260.5,-216 266.5,-222 266.5,-228 266.5,-228 266.5,-240 266.5,-240 266.5,-246 260.5,-252 254.5,-252"/>
<text text-anchor="middle" x="239.5" y="-230.3" font-family="Times,serif" font-size="14.00">Raise</text>
</g>
<!-- ast.If object at 0x7efd10679bd0&#45;&gt;ast.Raise object at 0x7efd1067bbb0 -->
<g id="edge10" class="edge">
<title>ast.If object at 0x7efd10679bd0&#45;&gt;ast.Raise object at 0x7efd1067bbb0</title>
<path fill="none" stroke="black" d="M270.37,-287.7C265.65,-279.64 259.94,-269.89 254.72,-260.98"/>
<polygon fill="black" stroke="black" points="257.59,-258.96 249.52,-252.1 251.55,-262.5 257.59,-258.96"/>
</g>
<!-- ast.Name object at 0x7efd10678ac0 -->
<g id="node7" class="node">
<title>ast.Name object at 0x7efd10678ac0</title>
<path fill="#66cdaa" stroke="black" d="M121.5,-108C121.5,-108 91.5,-108 91.5,-108 85.5,-108 79.5,-102 79.5,-96 79.5,-96 79.5,-84 79.5,-84 79.5,-78 85.5,-72 91.5,-72 91.5,-72 121.5,-72 121.5,-72 127.5,-72 133.5,-78 133.5,-84 133.5,-84 133.5,-96 133.5,-96 133.5,-102 127.5,-108 121.5,-108"/>
<text text-anchor="middle" x="106.5" y="-86.3" font-family="Times,serif" font-size="14.00">Name</text>
</g>
<!-- ast.Compare object at 0x7efd10679f00&#45;&gt;ast.Name object at 0x7efd10678ac0 -->
<g id="edge6" class="edge">
<title>ast.Compare object at 0x7efd10679f00&#45;&gt;ast.Name object at 0x7efd10678ac0</title>
<path fill="none" stroke="black" d="M148.97,-215.75C151.91,-197.43 154.5,-167.88 146.5,-144 143.15,-134 137.08,-124.38 130.67,-116.14"/>
<polygon fill="black" stroke="black" points="133.32,-113.85 124.23,-108.4 127.94,-118.33 133.32,-113.85"/>
</g>
<!-- ast.LtE object at 0x7efd153eea70 -->
<g id="node9" class="node">
<title>ast.LtE object at 0x7efd153eea70</title>
<path fill="#66cdaa" stroke="black" d="M125.5,-180C125.5,-180 95.5,-180 95.5,-180 89.5,-180 83.5,-174 83.5,-168 83.5,-168 83.5,-156 83.5,-156 83.5,-150 89.5,-144 95.5,-144 95.5,-144 125.5,-144 125.5,-144 131.5,-144 137.5,-150 137.5,-156 137.5,-156 137.5,-168 137.5,-168 137.5,-174 131.5,-180 125.5,-180"/>
<text text-anchor="middle" x="110.5" y="-158.3" font-family="Times,serif" font-size="14.00">LtE</text>
</g>
<!-- ast.Compare object at 0x7efd10679f00&#45;&gt;ast.LtE object at 0x7efd153eea70 -->
<g id="edge8" class="edge">
<title>ast.Compare object at 0x7efd10679f00&#45;&gt;ast.LtE object at 0x7efd153eea70</title>
<path fill="none" stroke="black" d="M136.85,-215.7C132.86,-207.73 128.05,-198.1 123.63,-189.26"/>
<polygon fill="black" stroke="black" points="126.65,-187.48 119.05,-180.1 120.39,-190.61 126.65,-187.48"/>
</g>
<!-- ast.Constant object at 0x7efd1067ba30 -->
<g id="node10" class="node">
<title>ast.Constant object at 0x7efd1067ba30</title>
<path fill="#66cdaa" stroke="black" d="M53,-180C53,-180 12,-180 12,-180 6,-180 0,-174 0,-168 0,-168 0,-156 0,-156 0,-150 6,-144 12,-144 12,-144 53,-144 53,-144 59,-144 65,-150 65,-156 65,-156 65,-168 65,-168 65,-174 59,-180 53,-180"/>
<text text-anchor="middle" x="32.5" y="-158.3" font-family="Times,serif" font-size="14.00">Constant</text>
</g>
<!-- ast.Compare object at 0x7efd10679f00&#45;&gt;ast.Constant object at 0x7efd1067ba30 -->
<g id="edge9" class="edge">
<title>ast.Compare object at 0x7efd10679f00&#45;&gt;ast.Constant object at 0x7efd1067ba30</title>
<path fill="none" stroke="black" d="M117.86,-215.88C103.08,-206.72 84.71,-195.34 68.8,-185.48"/>
<polygon fill="black" stroke="black" points="70.59,-182.48 60.25,-180.19 66.91,-188.43 70.59,-182.48"/>
</g>
<!-- ast.Load object at 0x7efd153ee020 -->
<g id="node8" class="node">
<title>ast.Load object at 0x7efd153ee020</title>
<path fill="#66cdaa" stroke="black" d="M429.5,-36C429.5,-36 399.5,-36 399.5,-36 393.5,-36 387.5,-30 387.5,-24 387.5,-24 387.5,-12 387.5,-12 387.5,-6 393.5,0 399.5,0 399.5,0 429.5,0 429.5,0 435.5,0 441.5,-6 441.5,-12 441.5,-12 441.5,-24 441.5,-24 441.5,-30 435.5,-36 429.5,-36"/>
<text text-anchor="middle" x="414.5" y="-14.3" font-family="Times,serif" font-size="14.00">Load</text>
</g>
<!-- ast.Name object at 0x7efd10678ac0&#45;&gt;ast.Load object at 0x7efd153ee020 -->
<g id="edge7" class="edge">
<title>ast.Name object at 0x7efd10678ac0&#45;&gt;ast.Load object at 0x7efd153ee020</title>
<path fill="none" stroke="black" d="M133.73,-75.28C136.65,-74.07 139.61,-72.95 142.5,-72 224.15,-45.23 324.25,-30.02 377.33,-23.26"/>
<polygon fill="black" stroke="black" points="377.8,-26.73 387.3,-22.03 376.94,-19.79 377.8,-26.73"/>
</g>
<!-- ast.Call object at 0x7efd1067baf0 -->
<g id="node12" class="node">
<title>ast.Call object at 0x7efd1067baf0</title>
<path fill="#66cdaa" stroke="black" d="M254.5,-180C254.5,-180 224.5,-180 224.5,-180 218.5,-180 212.5,-174 212.5,-168 212.5,-168 212.5,-156 212.5,-156 212.5,-150 218.5,-144 224.5,-144 224.5,-144 254.5,-144 254.5,-144 260.5,-144 266.5,-150 266.5,-156 266.5,-156 266.5,-168 266.5,-168 266.5,-174 260.5,-180 254.5,-180"/>
<text text-anchor="middle" x="239.5" y="-158.3" font-family="Times,serif" font-size="14.00">Call</text>
</g>
<!-- ast.Raise object at 0x7efd1067bbb0&#45;&gt;ast.Call object at 0x7efd1067baf0 -->
<g id="edge11" class="edge">
<title>ast.Raise object at 0x7efd1067bbb0&#45;&gt;ast.Call object at 0x7efd1067baf0</title>
<path fill="none" stroke="black" d="M239.5,-215.7C239.5,-207.98 239.5,-198.71 239.5,-190.11"/>
<polygon fill="black" stroke="black" points="243,-190.1 239.5,-180.1 236,-190.1 243,-190.1"/>
</g>
<!-- ast.Name object at 0x7efd106780a0 -->
<g id="node13" class="node">
<title>ast.Name object at 0x7efd106780a0</title>
<path fill="#66cdaa" stroke="black" d="M277.5,-108C277.5,-108 247.5,-108 247.5,-108 241.5,-108 235.5,-102 235.5,-96 235.5,-96 235.5,-84 235.5,-84 235.5,-78 241.5,-72 247.5,-72 247.5,-72 277.5,-72 277.5,-72 283.5,-72 289.5,-78 289.5,-84 289.5,-84 289.5,-96 289.5,-96 289.5,-102 283.5,-108 277.5,-108"/>
<text text-anchor="middle" x="262.5" y="-86.3" font-family="Times,serif" font-size="14.00">Name</text>
</g>
<!-- ast.Call object at 0x7efd1067baf0&#45;&gt;ast.Name object at 0x7efd106780a0 -->
<g id="edge12" class="edge">
<title>ast.Call object at 0x7efd1067baf0&#45;&gt;ast.Name object at 0x7efd106780a0</title>
<path fill="none" stroke="black" d="M245.19,-143.7C247.75,-135.9 250.83,-126.51 253.68,-117.83"/>
<polygon fill="black" stroke="black" points="257.08,-118.7 256.88,-108.1 250.43,-116.51 257.08,-118.7"/>
</g>
<!-- ast.Constant object at 0x7efd1067bd90 -->
<g id="node14" class="node">
<title>ast.Constant object at 0x7efd1067bd90</title>
<path fill="#66cdaa" stroke="black" d="M205,-108C205,-108 164,-108 164,-108 158,-108 152,-102 152,-96 152,-96 152,-84 152,-84 152,-78 158,-72 164,-72 164,-72 205,-72 205,-72 211,-72 217,-78 217,-84 217,-84 217,-96 217,-96 217,-102 211,-108 205,-108"/>
<text text-anchor="middle" x="184.5" y="-86.3" font-family="Times,serif" font-size="14.00">Constant</text>
</g>
<!-- ast.Call object at 0x7efd1067baf0&#45;&gt;ast.Constant object at 0x7efd1067bd90 -->
<g id="edge14" class="edge">
<title>ast.Call object at 0x7efd1067baf0&#45;&gt;ast.Constant object at 0x7efd1067bd90</title>
<path fill="none" stroke="black" d="M225.9,-143.7C219.38,-135.39 211.43,-125.28 204.25,-116.14"/>
<polygon fill="black" stroke="black" points="206.87,-113.81 197.94,-108.1 201.37,-118.13 206.87,-113.81"/>
</g>
<!-- ast.Name object at 0x7efd106780a0&#45;&gt;ast.Load object at 0x7efd153ee020 -->
<g id="edge13" class="edge">
<title>ast.Name object at 0x7efd106780a0&#45;&gt;ast.Load object at 0x7efd153ee020</title>
<path fill="none" stroke="black" d="M289.67,-76.49C314.35,-65.12 350.93,-48.28 378.11,-35.76"/>
<polygon fill="black" stroke="black" points="379.69,-38.89 387.3,-31.52 376.76,-32.53 379.69,-38.89"/>
</g>
<!-- ast.Name object at 0x7efd10678c10 -->
<g id="node16" class="node">
<title>ast.Name object at 0x7efd10678c10</title>
<path fill="#66cdaa" stroke="black" d="M719.5,-324C719.5,-324 689.5,-324 689.5,-324 683.5,-324 677.5,-318 677.5,-312 677.5,-312 677.5,-300 677.5,-300 677.5,-294 683.5,-288 689.5,-288 689.5,-288 719.5,-288 719.5,-288 725.5,-288 731.5,-294 731.5,-300 731.5,-300 731.5,-312 731.5,-312 731.5,-318 725.5,-324 719.5,-324"/>
<text text-anchor="middle" x="704.5" y="-302.3" font-family="Times,serif" font-size="14.00">Name</text>
</g>
<!-- ast.Assign object at 0x7efd1067bb80&#45;&gt;ast.Name object at 0x7efd10678c10 -->
<g id="edge16" class="edge">
<title>ast.Assign object at 0x7efd1067bb80&#45;&gt;ast.Name object at 0x7efd10678c10</title>
<path fill="none" stroke="black" d="M704.5,-359.7C704.5,-351.98 704.5,-342.71 704.5,-334.11"/>
<polygon fill="black" stroke="black" points="708,-334.1 704.5,-324.1 701,-334.1 708,-334.1"/>
</g>
<!-- ast.Constant object at 0x7efd10678730 -->
<g id="node18" class="node">
<title>ast.Constant object at 0x7efd10678730</title>
<path fill="#66cdaa" stroke="black" d="M803,-324C803,-324 762,-324 762,-324 756,-324 750,-318 750,-312 750,-312 750,-300 750,-300 750,-294 756,-288 762,-288 762,-288 803,-288 803,-288 809,-288 815,-294 815,-300 815,-300 815,-312 815,-312 815,-318 809,-324 803,-324"/>
<text text-anchor="middle" x="782.5" y="-302.3" font-family="Times,serif" font-size="14.00">Constant</text>
</g>
<!-- ast.Assign object at 0x7efd1067bb80&#45;&gt;ast.Constant object at 0x7efd10678730 -->
<g id="edge18" class="edge">
<title>ast.Assign object at 0x7efd1067bb80&#45;&gt;ast.Constant object at 0x7efd10678730</title>
<path fill="none" stroke="black" d="M723.78,-359.7C733.42,-351.05 745.23,-340.45 755.73,-331.03"/>
<polygon fill="black" stroke="black" points="758.34,-333.39 763.44,-324.1 753.66,-328.18 758.34,-333.39"/>
</g>
<!-- ast.Store object at 0x7efd153ee080 -->
<g id="node17" class="node">
<title>ast.Store object at 0x7efd153ee080</title>
<path fill="#66cdaa" stroke="black" d="M808.5,-108C808.5,-108 778.5,-108 778.5,-108 772.5,-108 766.5,-102 766.5,-96 766.5,-96 766.5,-84 766.5,-84 766.5,-78 772.5,-72 778.5,-72 778.5,-72 808.5,-72 808.5,-72 814.5,-72 820.5,-78 820.5,-84 820.5,-84 820.5,-96 820.5,-96 820.5,-102 814.5,-108 808.5,-108"/>
<text text-anchor="middle" x="793.5" y="-86.3" font-family="Times,serif" font-size="14.00">Store</text>
</g>
<!-- ast.Name object at 0x7efd10678c10&#45;&gt;ast.Store object at 0x7efd153ee080 -->
<g id="edge17" class="edge">
<title>ast.Name object at 0x7efd10678c10&#45;&gt;ast.Store object at 0x7efd153ee080</title>
<path fill="none" stroke="black" d="M731.93,-290.63C757.07,-277.19 790.92,-258.26 794.5,-252 818.28,-210.4 809.76,-152.31 801.54,-118.47"/>
<polygon fill="black" stroke="black" points="804.82,-117.19 798.92,-108.39 798.05,-118.95 804.82,-117.19"/>
</g>
<!-- ast.Name object at 0x7efd10678fa0 -->
<g id="node20" class="node">
<title>ast.Name object at 0x7efd10678fa0</title>
<path fill="#66cdaa" stroke="black" d="M773.5,-252C773.5,-252 743.5,-252 743.5,-252 737.5,-252 731.5,-246 731.5,-240 731.5,-240 731.5,-228 731.5,-228 731.5,-222 737.5,-216 743.5,-216 743.5,-216 773.5,-216 773.5,-216 779.5,-216 785.5,-222 785.5,-228 785.5,-228 785.5,-240 785.5,-240 785.5,-246 779.5,-252 773.5,-252"/>
<text text-anchor="middle" x="758.5" y="-230.3" font-family="Times,serif" font-size="14.00">Name</text>
</g>
<!-- ast.For object at 0x7efd10679600&#45;&gt;ast.Name object at 0x7efd10678fa0 -->
<g id="edge20" class="edge">
<title>ast.For object at 0x7efd10679600&#45;&gt;ast.Name object at 0x7efd10678fa0</title>
<path fill="none" stroke="black" d="M578.49,-359.99C599.7,-341.35 635.42,-311.04 668.5,-288 685.7,-276.02 705.72,-264.05 722.5,-254.53"/>
<polygon fill="black" stroke="black" points="724.44,-257.45 731.45,-249.5 721.02,-251.35 724.44,-257.45"/>
</g>
<!-- ast.Call object at 0x7efd106784f0 -->
<g id="node21" class="node">
<title>ast.Call object at 0x7efd106784f0</title>
<path fill="#66cdaa" stroke="black" d="M447.5,-324C447.5,-324 417.5,-324 417.5,-324 411.5,-324 405.5,-318 405.5,-312 405.5,-312 405.5,-300 405.5,-300 405.5,-294 411.5,-288 417.5,-288 417.5,-288 447.5,-288 447.5,-288 453.5,-288 459.5,-294 459.5,-300 459.5,-300 459.5,-312 459.5,-312 459.5,-318 453.5,-324 447.5,-324"/>
<text text-anchor="middle" x="432.5" y="-302.3" font-family="Times,serif" font-size="14.00">Call</text>
</g>
<!-- ast.For object at 0x7efd10679600&#45;&gt;ast.Call object at 0x7efd106784f0 -->
<g id="edge22" class="edge">
<title>ast.For object at 0x7efd10679600&#45;&gt;ast.Call object at 0x7efd106784f0</title>
<path fill="none" stroke="black" d="M532.26,-361.98C513.67,-351.74 488.86,-338.07 468.63,-326.92"/>
<polygon fill="black" stroke="black" points="470.15,-323.75 459.7,-321.99 466.77,-329.88 470.15,-323.75"/>
</g>
<!-- ast.If object at 0x7efd10678fd0 -->
<g id="node25" class="node">
<title>ast.If object at 0x7efd10678fd0</title>
<path fill="#66cdaa" stroke="black" d="M574.5,-324C574.5,-324 544.5,-324 544.5,-324 538.5,-324 532.5,-318 532.5,-312 532.5,-312 532.5,-300 532.5,-300 532.5,-294 538.5,-288 544.5,-288 544.5,-288 574.5,-288 574.5,-288 580.5,-288 586.5,-294 586.5,-300 586.5,-300 586.5,-312 586.5,-312 586.5,-318 580.5,-324 574.5,-324"/>
<text text-anchor="middle" x="559.5" y="-302.3" font-family="Times,serif" font-size="14.00">If</text>
</g>
<!-- ast.For object at 0x7efd10679600&#45;&gt;ast.If object at 0x7efd10678fd0 -->
<g id="edge27" class="edge">
<title>ast.For object at 0x7efd10679600&#45;&gt;ast.If object at 0x7efd10678fd0</title>
<path fill="none" stroke="black" d="M559.5,-359.7C559.5,-351.98 559.5,-342.71 559.5,-334.11"/>
<polygon fill="black" stroke="black" points="563,-334.1 559.5,-324.1 556,-334.1 563,-334.1"/>
</g>
<!-- ast.Name object at 0x7efd10678fa0&#45;&gt;ast.Store object at 0x7efd153ee080 -->
<g id="edge21" class="edge">
<title>ast.Name object at 0x7efd10678fa0&#45;&gt;ast.Store object at 0x7efd153ee080</title>
<path fill="none" stroke="black" d="M764.05,-215.92C767.31,-205.58 771.39,-192.1 774.5,-180 779.78,-159.47 784.74,-136.02 788.27,-118.34"/>
<polygon fill="black" stroke="black" points="791.78,-118.65 790.28,-108.16 784.91,-117.3 791.78,-118.65"/>
</g>
<!-- ast.Name object at 0x7efd1067b760 -->
<g id="node22" class="node">
<title>ast.Name object at 0x7efd1067b760</title>
<path fill="#66cdaa" stroke="black" d="M326.5,-252C326.5,-252 296.5,-252 296.5,-252 290.5,-252 284.5,-246 284.5,-240 284.5,-240 284.5,-228 284.5,-228 284.5,-222 290.5,-216 296.5,-216 296.5,-216 326.5,-216 326.5,-216 332.5,-216 338.5,-222 338.5,-228 338.5,-228 338.5,-240 338.5,-240 338.5,-246 332.5,-252 326.5,-252"/>
<text text-anchor="middle" x="311.5" y="-230.3" font-family="Times,serif" font-size="14.00">Name</text>
</g>
<!-- ast.Call object at 0x7efd106784f0&#45;&gt;ast.Name object at 0x7efd1067b760 -->
<g id="edge23" class="edge">
<title>ast.Call object at 0x7efd106784f0&#45;&gt;ast.Name object at 0x7efd1067b760</title>
<path fill="none" stroke="black" d="M405.35,-289.29C388.22,-279.38 365.91,-266.48 347.34,-255.73"/>
<polygon fill="black" stroke="black" points="348.97,-252.63 338.56,-250.66 345.47,-258.69 348.97,-252.63"/>
</g>
<!-- ast.Constant object at 0x7efd106799c0 -->
<g id="node23" class="node">
<title>ast.Constant object at 0x7efd106799c0</title>
<path fill="#66cdaa" stroke="black" d="M410,-252C410,-252 369,-252 369,-252 363,-252 357,-246 357,-240 357,-240 357,-228 357,-228 357,-222 363,-216 369,-216 369,-216 410,-216 410,-216 416,-216 422,-222 422,-228 422,-228 422,-240 422,-240 422,-246 416,-252 410,-252"/>
<text text-anchor="middle" x="389.5" y="-230.3" font-family="Times,serif" font-size="14.00">Constant</text>
</g>
<!-- ast.Call object at 0x7efd106784f0&#45;&gt;ast.Constant object at 0x7efd106799c0 -->
<g id="edge25" class="edge">
<title>ast.Call object at 0x7efd106784f0&#45;&gt;ast.Constant object at 0x7efd106799c0</title>
<path fill="none" stroke="black" d="M421.87,-287.7C416.87,-279.56 410.81,-269.69 405.29,-260.7"/>
<polygon fill="black" stroke="black" points="408.22,-258.79 400.01,-252.1 402.26,-262.46 408.22,-258.79"/>
</g>
<!-- ast.Constant object at 0x7efd10678ca0 -->
<g id="node24" class="node">
<title>ast.Constant object at 0x7efd10678ca0</title>
<path fill="#66cdaa" stroke="black" d="M493,-252C493,-252 452,-252 452,-252 446,-252 440,-246 440,-240 440,-240 440,-228 440,-228 440,-222 446,-216 452,-216 452,-216 493,-216 493,-216 499,-216 505,-222 505,-228 505,-228 505,-240 505,-240 505,-246 499,-252 493,-252"/>
<text text-anchor="middle" x="472.5" y="-230.3" font-family="Times,serif" font-size="14.00">Constant</text>
</g>
<!-- ast.Call object at 0x7efd106784f0&#45;&gt;ast.Constant object at 0x7efd10678ca0 -->
<g id="edge26" class="edge">
<title>ast.Call object at 0x7efd106784f0&#45;&gt;ast.Constant object at 0x7efd10678ca0</title>
<path fill="none" stroke="black" d="M442.39,-287.7C446.99,-279.64 452.56,-269.89 457.65,-260.98"/>
<polygon fill="black" stroke="black" points="460.8,-262.52 462.73,-252.1 454.73,-259.05 460.8,-262.52"/>
</g>
<!-- ast.Name object at 0x7efd1067b760&#45;&gt;ast.Load object at 0x7efd153ee020 -->
<g id="edge24" class="edge">
<title>ast.Name object at 0x7efd1067b760&#45;&gt;ast.Load object at 0x7efd153ee020</title>
<path fill="none" stroke="black" d="M310.86,-215.53C310.53,-184.26 313.62,-117.73 342.5,-72 351.34,-58 365.31,-46.47 378.6,-37.78"/>
<polygon fill="black" stroke="black" points="380.51,-40.71 387.17,-32.48 376.83,-34.76 380.51,-40.71"/>
</g>
<!-- ast.Compare object at 0x7efd1067a260 -->
<g id="node26" class="node">
<title>ast.Compare object at 0x7efd1067a260</title>
<path fill="#66cdaa" stroke="black" d="M578,-252C578,-252 535,-252 535,-252 529,-252 523,-246 523,-240 523,-240 523,-228 523,-228 523,-222 529,-216 535,-216 535,-216 578,-216 578,-216 584,-216 590,-222 590,-228 590,-228 590,-240 590,-240 590,-246 584,-252 578,-252"/>
<text text-anchor="middle" x="556.5" y="-230.3" font-family="Times,serif" font-size="14.00">Compare</text>
</g>
<!-- ast.If object at 0x7efd10678fd0&#45;&gt;ast.Compare object at 0x7efd1067a260 -->
<g id="edge28" class="edge">
<title>ast.If object at 0x7efd10678fd0&#45;&gt;ast.Compare object at 0x7efd1067a260</title>
<path fill="none" stroke="black" d="M558.76,-287.7C558.43,-279.98 558.03,-270.71 557.66,-262.11"/>
<polygon fill="black" stroke="black" points="561.16,-261.95 557.23,-252.1 554.16,-262.25 561.16,-261.95"/>
</g>
<!-- ast.AugAssign object at 0x7efd106780d0 -->
<g id="node33" class="node">
<title>ast.AugAssign object at 0x7efd106780d0</title>
<path fill="#66cdaa" stroke="black" d="M683,-252C683,-252 630,-252 630,-252 624,-252 618,-246 618,-240 618,-240 618,-228 618,-228 618,-222 624,-216 630,-216 630,-216 683,-216 683,-216 689,-216 695,-222 695,-228 695,-228 695,-240 695,-240 695,-246 689,-252 683,-252"/>
<text text-anchor="middle" x="656.5" y="-230.3" font-family="Times,serif" font-size="14.00">AugAssign</text>
</g>
<!-- ast.If object at 0x7efd10678fd0&#45;&gt;ast.AugAssign object at 0x7efd106780d0 -->
<g id="edge37" class="edge">
<title>ast.If object at 0x7efd10678fd0&#45;&gt;ast.AugAssign object at 0x7efd106780d0</title>
<path fill="none" stroke="black" d="M583.48,-287.7C595.81,-278.8 611.02,-267.82 624.35,-258.2"/>
<polygon fill="black" stroke="black" points="626.74,-260.79 632.8,-252.1 622.64,-255.12 626.74,-260.79"/>
</g>
<!-- ast.BinOp object at 0x7efd10678f10 -->
<g id="node27" class="node">
<title>ast.BinOp object at 0x7efd10678f10</title>
<path fill="#66cdaa" stroke="black" d="M537.5,-180C537.5,-180 507.5,-180 507.5,-180 501.5,-180 495.5,-174 495.5,-168 495.5,-168 495.5,-156 495.5,-156 495.5,-150 501.5,-144 507.5,-144 507.5,-144 537.5,-144 537.5,-144 543.5,-144 549.5,-150 549.5,-156 549.5,-156 549.5,-168 549.5,-168 549.5,-174 543.5,-180 537.5,-180"/>
<text text-anchor="middle" x="522.5" y="-158.3" font-family="Times,serif" font-size="14.00">BinOp</text>
</g>
<!-- ast.Compare object at 0x7efd1067a260&#45;&gt;ast.BinOp object at 0x7efd10678f10 -->
<g id="edge29" class="edge">
<title>ast.Compare object at 0x7efd1067a260&#45;&gt;ast.BinOp object at 0x7efd10678f10</title>
<path fill="none" stroke="black" d="M548.1,-215.7C544.23,-207.73 539.55,-198.1 535.26,-189.26"/>
<polygon fill="black" stroke="black" points="538.33,-187.57 530.81,-180.1 532.03,-190.63 538.33,-187.57"/>
</g>
<!-- ast.Gt object at 0x7efd153eead0 -->
<g id="node31" class="node">
<title>ast.Gt object at 0x7efd153eead0</title>
<path fill="#66cdaa" stroke="black" d="M381.5,-180C381.5,-180 351.5,-180 351.5,-180 345.5,-180 339.5,-174 339.5,-168 339.5,-168 339.5,-156 339.5,-156 339.5,-150 345.5,-144 351.5,-144 351.5,-144 381.5,-144 381.5,-144 387.5,-144 393.5,-150 393.5,-156 393.5,-156 393.5,-168 393.5,-168 393.5,-174 387.5,-180 381.5,-180"/>
<text text-anchor="middle" x="366.5" y="-158.3" font-family="Times,serif" font-size="14.00">Gt</text>
</g>
<!-- ast.Compare object at 0x7efd1067a260&#45;&gt;ast.Gt object at 0x7efd153eead0 -->
<g id="edge35" class="edge">
<title>ast.Compare object at 0x7efd1067a260&#45;&gt;ast.Gt object at 0x7efd153eead0</title>
<path fill="none" stroke="black" d="M522.78,-219.44C519.65,-218.25 516.52,-217.09 513.5,-216 467.55,-199.49 452.47,-199.1 403.43,-180.13"/>
<polygon fill="black" stroke="black" points="404.45,-176.77 393.86,-176.36 401.88,-183.28 404.45,-176.77"/>
</g>
<!-- ast.Constant object at 0x7efd10678b80 -->
<g id="node32" class="node">
<title>ast.Constant object at 0x7efd10678b80</title>
<path fill="#66cdaa" stroke="black" d="M465,-180C465,-180 424,-180 424,-180 418,-180 412,-174 412,-168 412,-168 412,-156 412,-156 412,-150 418,-144 424,-144 424,-144 465,-144 465,-144 471,-144 477,-150 477,-156 477,-156 477,-168 477,-168 477,-174 471,-180 465,-180"/>
<text text-anchor="middle" x="444.5" y="-158.3" font-family="Times,serif" font-size="14.00">Constant</text>
</g>
<!-- ast.Compare object at 0x7efd1067a260&#45;&gt;ast.Constant object at 0x7efd10678b80 -->
<g id="edge36" class="edge">
<title>ast.Compare object at 0x7efd1067a260&#45;&gt;ast.Constant object at 0x7efd10678b80</title>
<path fill="none" stroke="black" d="M529.1,-215.88C514.59,-206.81 496.58,-195.55 480.91,-185.76"/>
<polygon fill="black" stroke="black" points="482.34,-182.52 472,-180.19 478.63,-188.46 482.34,-182.52"/>
</g>
<!-- ast.Name object at 0x7efd106789d0 -->
<g id="node28" class="node">
<title>ast.Name object at 0x7efd106789d0</title>
<path fill="#66cdaa" stroke="black" d="M465.5,-108C465.5,-108 435.5,-108 435.5,-108 429.5,-108 423.5,-102 423.5,-96 423.5,-96 423.5,-84 423.5,-84 423.5,-78 429.5,-72 435.5,-72 435.5,-72 465.5,-72 465.5,-72 471.5,-72 477.5,-78 477.5,-84 477.5,-84 477.5,-96 477.5,-96 477.5,-102 471.5,-108 465.5,-108"/>
<text text-anchor="middle" x="450.5" y="-86.3" font-family="Times,serif" font-size="14.00">Name</text>
</g>
<!-- ast.BinOp object at 0x7efd10678f10&#45;&gt;ast.Name object at 0x7efd106789d0 -->
<g id="edge30" class="edge">
<title>ast.BinOp object at 0x7efd10678f10&#45;&gt;ast.Name object at 0x7efd106789d0</title>
<path fill="none" stroke="black" d="M504.7,-143.7C495.9,-135.14 485.12,-124.66 475.5,-115.3"/>
<polygon fill="black" stroke="black" points="477.7,-112.57 468.09,-108.1 472.82,-117.58 477.7,-112.57"/>
</g>
<!-- ast.Mult object at 0x7efd153ee320 -->
<g id="node29" class="node">
<title>ast.Mult object at 0x7efd153ee320</title>
<path fill="#66cdaa" stroke="black" d="M537.5,-108C537.5,-108 507.5,-108 507.5,-108 501.5,-108 495.5,-102 495.5,-96 495.5,-96 495.5,-84 495.5,-84 495.5,-78 501.5,-72 507.5,-72 507.5,-72 537.5,-72 537.5,-72 543.5,-72 549.5,-78 549.5,-84 549.5,-84 549.5,-96 549.5,-96 549.5,-102 543.5,-108 537.5,-108"/>
<text text-anchor="middle" x="522.5" y="-86.3" font-family="Times,serif" font-size="14.00">Mult</text>
</g>
<!-- ast.BinOp object at 0x7efd10678f10&#45;&gt;ast.Mult object at 0x7efd153ee320 -->
<g id="edge32" class="edge">
<title>ast.BinOp object at 0x7efd10678f10&#45;&gt;ast.Mult object at 0x7efd153ee320</title>
<path fill="none" stroke="black" d="M522.5,-143.7C522.5,-135.98 522.5,-126.71 522.5,-118.11"/>
<polygon fill="black" stroke="black" points="526,-118.1 522.5,-108.1 519,-118.1 526,-118.1"/>
</g>
<!-- ast.Name object at 0x7efd1067aec0 -->
<g id="node30" class="node">
<title>ast.Name object at 0x7efd1067aec0</title>
<path fill="#66cdaa" stroke="black" d="M393.5,-108C393.5,-108 363.5,-108 363.5,-108 357.5,-108 351.5,-102 351.5,-96 351.5,-96 351.5,-84 351.5,-84 351.5,-78 357.5,-72 363.5,-72 363.5,-72 393.5,-72 393.5,-72 399.5,-72 405.5,-78 405.5,-84 405.5,-84 405.5,-96 405.5,-96 405.5,-102 399.5,-108 393.5,-108"/>
<text text-anchor="middle" x="378.5" y="-86.3" font-family="Times,serif" font-size="14.00">Name</text>
</g>
<!-- ast.BinOp object at 0x7efd10678f10&#45;&gt;ast.Name object at 0x7efd1067aec0 -->
<g id="edge33" class="edge">
<title>ast.BinOp object at 0x7efd10678f10&#45;&gt;ast.Name object at 0x7efd1067aec0</title>
<path fill="none" stroke="black" d="M495.41,-147.83C472.73,-136.81 440.14,-120.97 415.13,-108.81"/>
<polygon fill="black" stroke="black" points="416.48,-105.57 405.95,-104.35 413.42,-111.87 416.48,-105.57"/>
</g>
<!-- ast.Name object at 0x7efd106789d0&#45;&gt;ast.Load object at 0x7efd153ee020 -->
<g id="edge31" class="edge">
<title>ast.Name object at 0x7efd106789d0&#45;&gt;ast.Load object at 0x7efd153ee020</title>
<path fill="none" stroke="black" d="M441.6,-71.7C437.5,-63.73 432.55,-54.1 428.01,-45.26"/>
<polygon fill="black" stroke="black" points="430.98,-43.4 423.3,-36.1 424.76,-46.6 430.98,-43.4"/>
</g>
<!-- ast.Name object at 0x7efd1067aec0&#45;&gt;ast.Load object at 0x7efd153ee020 -->
<g id="edge34" class="edge">
<title>ast.Name object at 0x7efd1067aec0&#45;&gt;ast.Load object at 0x7efd153ee020</title>
<path fill="none" stroke="black" d="M387.4,-71.7C391.5,-63.73 396.45,-54.1 400.99,-45.26"/>
<polygon fill="black" stroke="black" points="404.24,-46.6 405.7,-36.1 398.02,-43.4 404.24,-46.6"/>
</g>
<!-- ast.Name object at 0x7efd106795d0 -->
<g id="node34" class="node">
<title>ast.Name object at 0x7efd106795d0</title>
<path fill="#66cdaa" stroke="black" d="M753.5,-180C753.5,-180 723.5,-180 723.5,-180 717.5,-180 711.5,-174 711.5,-168 711.5,-168 711.5,-156 711.5,-156 711.5,-150 717.5,-144 723.5,-144 723.5,-144 753.5,-144 753.5,-144 759.5,-144 765.5,-150 765.5,-156 765.5,-156 765.5,-168 765.5,-168 765.5,-174 759.5,-180 753.5,-180"/>
<text text-anchor="middle" x="738.5" y="-158.3" font-family="Times,serif" font-size="14.00">Name</text>
</g>
<!-- ast.AugAssign object at 0x7efd106780d0&#45;&gt;ast.Name object at 0x7efd106795d0 -->
<g id="edge38" class="edge">
<title>ast.AugAssign object at 0x7efd106780d0&#45;&gt;ast.Name object at 0x7efd106795d0</title>
<path fill="none" stroke="black" d="M676.77,-215.7C687,-206.97 699.56,-196.24 710.68,-186.75"/>
<polygon fill="black" stroke="black" points="713.13,-189.26 718.46,-180.1 708.59,-183.94 713.13,-189.26"/>
</g>
<!-- ast.Add object at 0x7efd153ee260 -->
<g id="node35" class="node">
<title>ast.Add object at 0x7efd153ee260</title>
<path fill="#66cdaa" stroke="black" d="M681.5,-180C681.5,-180 651.5,-180 651.5,-180 645.5,-180 639.5,-174 639.5,-168 639.5,-168 639.5,-156 639.5,-156 639.5,-150 645.5,-144 651.5,-144 651.5,-144 681.5,-144 681.5,-144 687.5,-144 693.5,-150 693.5,-156 693.5,-156 693.5,-168 693.5,-168 693.5,-174 687.5,-180 681.5,-180"/>
<text text-anchor="middle" x="666.5" y="-158.3" font-family="Times,serif" font-size="14.00">Add</text>
</g>
<!-- ast.AugAssign object at 0x7efd106780d0&#45;&gt;ast.Add object at 0x7efd153ee260 -->
<g id="edge40" class="edge">
<title>ast.AugAssign object at 0x7efd106780d0&#45;&gt;ast.Add object at 0x7efd153ee260</title>
<path fill="none" stroke="black" d="M658.97,-215.7C660.07,-207.98 661.4,-198.71 662.63,-190.11"/>
<polygon fill="black" stroke="black" points="666.11,-190.5 664.06,-180.1 659.18,-189.51 666.11,-190.5"/>
</g>
<!-- ast.BinOp object at 0x7efd10678550 -->
<g id="node36" class="node">
<title>ast.BinOp object at 0x7efd10678550</title>
<path fill="#66cdaa" stroke="black" d="M609.5,-180C609.5,-180 579.5,-180 579.5,-180 573.5,-180 567.5,-174 567.5,-168 567.5,-168 567.5,-156 567.5,-156 567.5,-150 573.5,-144 579.5,-144 579.5,-144 609.5,-144 609.5,-144 615.5,-144 621.5,-150 621.5,-156 621.5,-156 621.5,-168 621.5,-168 621.5,-174 615.5,-180 609.5,-180"/>
<text text-anchor="middle" x="594.5" y="-158.3" font-family="Times,serif" font-size="14.00">BinOp</text>
</g>
<!-- ast.AugAssign object at 0x7efd106780d0&#45;&gt;ast.BinOp object at 0x7efd10678550 -->
<g id="edge41" class="edge">
<title>ast.AugAssign object at 0x7efd106780d0&#45;&gt;ast.BinOp object at 0x7efd10678550</title>
<path fill="none" stroke="black" d="M641.17,-215.7C633.74,-207.3 624.68,-197.07 616.52,-187.86"/>
<polygon fill="black" stroke="black" points="618.9,-185.27 609.65,-180.1 613.66,-189.91 618.9,-185.27"/>
</g>
<!-- ast.Name object at 0x7efd106795d0&#45;&gt;ast.Store object at 0x7efd153ee080 -->
<g id="edge39" class="edge">
<title>ast.Name object at 0x7efd106795d0&#45;&gt;ast.Store object at 0x7efd153ee080</title>
<path fill="none" stroke="black" d="M752.1,-143.7C758.62,-135.39 766.57,-125.28 773.75,-116.14"/>
<polygon fill="black" stroke="black" points="776.63,-118.13 780.06,-108.1 771.13,-113.81 776.63,-118.13"/>
</g>
<!-- ast.BinOp object at 0x7efd10678550&#45;&gt;ast.Mult object at 0x7efd153ee320 -->
<g id="edge44" class="edge">
<title>ast.BinOp object at 0x7efd10678550&#45;&gt;ast.Mult object at 0x7efd153ee320</title>
<path fill="none" stroke="black" d="M576.7,-143.7C567.9,-135.14 557.12,-124.66 547.5,-115.3"/>
<polygon fill="black" stroke="black" points="549.7,-112.57 540.09,-108.1 544.82,-117.58 549.7,-112.57"/>
</g>
<!-- ast.Name object at 0x7efd10678820 -->
<g id="node37" class="node">
<title>ast.Name object at 0x7efd10678820</title>
<path fill="#66cdaa" stroke="black" d="M609.5,-108C609.5,-108 579.5,-108 579.5,-108 573.5,-108 567.5,-102 567.5,-96 567.5,-96 567.5,-84 567.5,-84 567.5,-78 573.5,-72 579.5,-72 579.5,-72 609.5,-72 609.5,-72 615.5,-72 621.5,-78 621.5,-84 621.5,-84 621.5,-96 621.5,-96 621.5,-102 615.5,-108 609.5,-108"/>
<text text-anchor="middle" x="594.5" y="-86.3" font-family="Times,serif" font-size="14.00">Name</text>
</g>
<!-- ast.BinOp object at 0x7efd10678550&#45;&gt;ast.Name object at 0x7efd10678820 -->
<g id="edge42" class="edge">
<title>ast.BinOp object at 0x7efd10678550&#45;&gt;ast.Name object at 0x7efd10678820</title>
<path fill="none" stroke="black" d="M594.5,-143.7C594.5,-135.98 594.5,-126.71 594.5,-118.11"/>
<polygon fill="black" stroke="black" points="598,-118.1 594.5,-108.1 591,-118.1 598,-118.1"/>
</g>
<!-- ast.Name object at 0x7efd106782e0 -->
<g id="node38" class="node">
<title>ast.Name object at 0x7efd106782e0</title>
<path fill="#66cdaa" stroke="black" d="M681.5,-108C681.5,-108 651.5,-108 651.5,-108 645.5,-108 639.5,-102 639.5,-96 639.5,-96 639.5,-84 639.5,-84 639.5,-78 645.5,-72 651.5,-72 651.5,-72 681.5,-72 681.5,-72 687.5,-72 693.5,-78 693.5,-84 693.5,-84 693.5,-96 693.5,-96 693.5,-102 687.5,-108 681.5,-108"/>
<text text-anchor="middle" x="666.5" y="-86.3" font-family="Times,serif" font-size="14.00">Name</text>
</g>
<!-- ast.BinOp object at 0x7efd10678550&#45;&gt;ast.Name object at 0x7efd106782e0 -->
<g id="edge45" class="edge">
<title>ast.BinOp object at 0x7efd10678550&#45;&gt;ast.Name object at 0x7efd106782e0</title>
<path fill="none" stroke="black" d="M612.3,-143.7C621.1,-135.14 631.88,-124.66 641.5,-115.3"/>
<polygon fill="black" stroke="black" points="644.18,-117.58 648.91,-108.1 639.3,-112.57 644.18,-117.58"/>
</g>
<!-- ast.Name object at 0x7efd10678820&#45;&gt;ast.Load object at 0x7efd153ee020 -->
<g id="edge43" class="edge">
<title>ast.Name object at 0x7efd10678820&#45;&gt;ast.Load object at 0x7efd153ee020</title>
<path fill="none" stroke="black" d="M567.49,-75.93C564.47,-74.57 561.43,-73.23 558.5,-72 522.57,-56.94 480.69,-41.79 451.39,-31.57"/>
<polygon fill="black" stroke="black" points="452.18,-28.13 441.58,-28.16 449.88,-34.75 452.18,-28.13"/>
</g>
<!-- ast.Name object at 0x7efd106782e0&#45;&gt;ast.Load object at 0x7efd153ee020 -->
<g id="edge46" class="edge">
<title>ast.Name object at 0x7efd106782e0&#45;&gt;ast.Load object at 0x7efd153ee020</title>
<path fill="none" stroke="black" d="M639.22,-75.43C636.31,-74.19 633.37,-73.02 630.5,-72 569.18,-50.25 495.01,-34.17 451.47,-25.72"/>
<polygon fill="black" stroke="black" points="452.09,-22.28 441.61,-23.84 450.77,-29.15 452.09,-22.28"/>
</g>
<!-- ast.Name object at 0x7efd1067a800 -->
<g id="node40" class="node">
<title>ast.Name object at 0x7efd1067a800</title>
<path fill="#66cdaa" stroke="black" d="M881.5,-324C881.5,-324 851.5,-324 851.5,-324 845.5,-324 839.5,-318 839.5,-312 839.5,-312 839.5,-300 839.5,-300 839.5,-294 845.5,-288 851.5,-288 851.5,-288 881.5,-288 881.5,-288 887.5,-288 893.5,-294 893.5,-300 893.5,-300 893.5,-312 893.5,-312 893.5,-318 887.5,-324 881.5,-324"/>
<text text-anchor="middle" x="866.5" y="-302.3" font-family="Times,serif" font-size="14.00">Name</text>
</g>
<!-- ast.Return object at 0x7efd10679150&#45;&gt;ast.Name object at 0x7efd1067a800 -->
<g id="edge48" class="edge">
<title>ast.Return object at 0x7efd10679150&#45;&gt;ast.Name object at 0x7efd1067a800</title>
<path fill="none" stroke="black" d="M830.37,-359.7C836,-351.47 842.85,-341.48 849.07,-332.42"/>
<polygon fill="black" stroke="black" points="852,-334.33 854.77,-324.1 846.23,-330.37 852,-334.33"/>
</g>
<!-- ast.Name object at 0x7efd1067a800&#45;&gt;ast.Load object at 0x7efd153ee020 -->
<g id="edge49" class="edge">
<title>ast.Name object at 0x7efd1067a800&#45;&gt;ast.Load object at 0x7efd153ee020</title>
<path fill="none" stroke="black" d="M869.86,-287.9C877.24,-244.7 889.77,-130.46 829.5,-72 776.22,-20.31 543.44,-17.38 451.78,-18.29"/>
<polygon fill="black" stroke="black" points="451.53,-14.8 441.58,-18.42 451.62,-21.79 451.53,-14.8"/>
</g>
</g>
</svg>
