<?xml version="1.0" encoding="UTF-8" standalone="no"?>
<!DOCTYPE svg PUBLIC "-//W3C//DTD SVG 1.1//EN"
 "http://www.w3.org/Graphics/SVG/1.1/DTD/svg11.dtd">
<!-- Generated by graphviz version 2.43.0 (0)
 -->
<!-- Title: %3 Pages: 1 -->
<svg width="579pt" height="620pt"
 viewBox="0.00 0.00 579.00 620.00" xmlns="http://www.w3.org/2000/svg" xmlns:xlink="http://www.w3.org/1999/xlink">
<g id="graph0" class="graph" transform="scale(1 1) rotate(0) translate(4 616)">
<title>%3</title>
<polygon fill="white" stroke="transparent" points="-4,4 -4,-616 575,-616 575,4 -4,4"/>
<!-- ast.Module object at 0x7f13c0387a90 -->
<g id="node1" class="node">
<title>ast.Module object at 0x7f13c0387a90</title>
<path fill="#66cdaa" stroke="black" d="M361,-612C361,-612 326,-612 326,-612 320,-612 314,-606 314,-600 314,-600 314,-588 314,-588 314,-582 320,-576 326,-576 326,-576 361,-576 361,-576 367,-576 373,-582 373,-588 373,-588 373,-600 373,-600 373,-606 367,-612 361,-612"/>
<text text-anchor="middle" x="343.5" y="-590.3" font-family="Times,serif" font-size="14.00">Module</text>
</g>
<!-- ast.FunctionDef object at 0x7f13c0384d60 -->
<g id="node2" class="node">
<title>ast.FunctionDef object at 0x7f13c0384d60</title>
<path fill="#66cdaa" stroke="black" d="M374,-540C374,-540 313,-540 313,-540 307,-540 301,-534 301,-528 301,-528 301,-516 301,-516 301,-510 307,-504 313,-504 313,-504 374,-504 374,-504 380,-504 386,-510 386,-516 386,-516 386,-528 386,-528 386,-534 380,-540 374,-540"/>
<text text-anchor="middle" x="343.5" y="-518.3" font-family="Times,serif" font-size="14.00">FunctionDef</text>
</g>
<!-- ast.Module object at 0x7f13c0387a90&#45;&gt;ast.FunctionDef object at 0x7f13c0384d60 -->
<g id="edge1" class="edge">
<title>ast.Module object at 0x7f13c0387a90&#45;&gt;ast.FunctionDef object at 0x7f13c0384d60</title>
<path fill="none" stroke="black" d="M343.5,-575.7C343.5,-567.98 343.5,-558.71 343.5,-550.11"/>
<polygon fill="black" stroke="black" points="347,-550.1 343.5,-540.1 340,-550.1 347,-550.1"/>
</g>
<!-- ast.arguments object at 0x7f13c0387070 -->
<g id="node3" class="node">
<title>ast.arguments object at 0x7f13c0387070</title>
<path fill="#66cdaa" stroke="black" d="M327.5,-468C327.5,-468 277.5,-468 277.5,-468 271.5,-468 265.5,-462 265.5,-456 265.5,-456 265.5,-444 265.5,-444 265.5,-438 271.5,-432 277.5,-432 277.5,-432 327.5,-432 327.5,-432 333.5,-432 339.5,-438 339.5,-444 339.5,-444 339.5,-456 339.5,-456 339.5,-462 333.5,-468 327.5,-468"/>
<text text-anchor="middle" x="302.5" y="-446.3" font-family="Times,serif" font-size="14.00">arguments</text>
</g>
<!-- ast.FunctionDef object at 0x7f13c0384d60&#45;&gt;ast.arguments object at 0x7f13c0387070 -->
<g id="edge2" class="edge">
<title>ast.FunctionDef object at 0x7f13c0384d60&#45;&gt;ast.arguments object at 0x7f13c0387070</title>
<path fill="none" stroke="black" d="M333.37,-503.7C328.65,-495.64 322.94,-485.89 317.72,-476.98"/>
<polygon fill="black" stroke="black" points="320.59,-474.96 312.52,-468.1 314.55,-478.5 320.59,-474.96"/>
</g>
<!-- ast.Return object at 0x7f13c0387c40 -->
<g id="node6" class="node">
<title>ast.Return object at 0x7f13c0387c40</title>
<path fill="#66cdaa" stroke="black" d="M399.5,-468C399.5,-468 369.5,-468 369.5,-468 363.5,-468 357.5,-462 357.5,-456 357.5,-456 357.5,-444 357.5,-444 357.5,-438 363.5,-432 369.5,-432 369.5,-432 399.5,-432 399.5,-432 405.5,-432 411.5,-438 411.5,-444 411.5,-444 411.5,-456 411.5,-456 411.5,-462 405.5,-468 399.5,-468"/>
<text text-anchor="middle" x="384.5" y="-446.3" font-family="Times,serif" font-size="14.00">Return</text>
</g>
<!-- ast.FunctionDef object at 0x7f13c0384d60&#45;&gt;ast.Return object at 0x7f13c0387c40 -->
<g id="edge5" class="edge">
<title>ast.FunctionDef object at 0x7f13c0384d60&#45;&gt;ast.Return object at 0x7f13c0387c40</title>
<path fill="none" stroke="black" d="M353.63,-503.7C358.35,-495.64 364.06,-485.89 369.28,-476.98"/>
<polygon fill="black" stroke="black" points="372.45,-478.5 374.48,-468.1 366.41,-474.96 372.45,-478.5"/>
</g>
<!-- ast.arg object at 0x7f13c0386200 -->
<g id="node4" class="node">
<title>ast.arg object at 0x7f13c0386200</title>
<path fill="#66cdaa" stroke="black" d="M319.5,-396C319.5,-396 289.5,-396 289.5,-396 283.5,-396 277.5,-390 277.5,-384 277.5,-384 277.5,-372 277.5,-372 277.5,-366 283.5,-360 289.5,-360 289.5,-360 319.5,-360 319.5,-360 325.5,-360 331.5,-366 331.5,-372 331.5,-372 331.5,-384 331.5,-384 331.5,-390 325.5,-396 319.5,-396"/>
<text text-anchor="middle" x="304.5" y="-374.3" font-family="Times,serif" font-size="14.00">arg</text>
</g>
<!-- ast.arguments object at 0x7f13c0387070&#45;&gt;ast.arg object at 0x7f13c0386200 -->
<g id="edge3" class="edge">
<title>ast.arguments object at 0x7f13c0387070&#45;&gt;ast.arg object at 0x7f13c0386200</title>
<path fill="none" stroke="black" d="M302.99,-431.7C303.21,-423.98 303.48,-414.71 303.73,-406.11"/>
<polygon fill="black" stroke="black" points="307.22,-406.2 304.01,-396.1 300.23,-406 307.22,-406.2"/>
</g>
<!-- ast.arg object at 0x7f13c0385b70 -->
<g id="node5" class="node">
<title>ast.arg object at 0x7f13c0385b70</title>
<path fill="#66cdaa" stroke="black" d="M247.5,-396C247.5,-396 217.5,-396 217.5,-396 211.5,-396 205.5,-390 205.5,-384 205.5,-384 205.5,-372 205.5,-372 205.5,-366 211.5,-360 217.5,-360 217.5,-360 247.5,-360 247.5,-360 253.5,-360 259.5,-366 259.5,-372 259.5,-372 259.5,-384 259.5,-384 259.5,-390 253.5,-396 247.5,-396"/>
<text text-anchor="middle" x="232.5" y="-374.3" font-family="Times,serif" font-size="14.00">arg</text>
</g>
<!-- ast.arguments object at 0x7f13c0387070&#45;&gt;ast.arg object at 0x7f13c0385b70 -->
<g id="edge4" class="edge">
<title>ast.arguments object at 0x7f13c0387070&#45;&gt;ast.arg object at 0x7f13c0385b70</title>
<path fill="none" stroke="black" d="M285.2,-431.7C276.64,-423.14 266.16,-412.66 256.8,-403.3"/>
<polygon fill="black" stroke="black" points="259.15,-400.7 249.6,-396.1 254.2,-405.65 259.15,-400.7"/>
</g>
<!-- ast.SetComp object at 0x7f13c0387310 -->
<g id="node7" class="node">
<title>ast.SetComp object at 0x7f13c0387310</title>
<path fill="#66cdaa" stroke="black" d="M406.5,-396C406.5,-396 362.5,-396 362.5,-396 356.5,-396 350.5,-390 350.5,-384 350.5,-384 350.5,-372 350.5,-372 350.5,-366 356.5,-360 362.5,-360 362.5,-360 406.5,-360 406.5,-360 412.5,-360 418.5,-366 418.5,-372 418.5,-372 418.5,-384 418.5,-384 418.5,-390 412.5,-396 406.5,-396"/>
<text text-anchor="middle" x="384.5" y="-374.3" font-family="Times,serif" font-size="14.00">SetComp</text>
</g>
<!-- ast.Return object at 0x7f13c0387c40&#45;&gt;ast.SetComp object at 0x7f13c0387310 -->
<g id="edge6" class="edge">
<title>ast.Return object at 0x7f13c0387c40&#45;&gt;ast.SetComp object at 0x7f13c0387310</title>
<path fill="none" stroke="black" d="M384.5,-431.7C384.5,-423.98 384.5,-414.71 384.5,-406.11"/>
<polygon fill="black" stroke="black" points="388,-406.1 384.5,-396.1 381,-406.1 388,-406.1"/>
</g>
<!-- ast.Name object at 0x7f13c03857b0 -->
<g id="node8" class="node">
<title>ast.Name object at 0x7f13c03857b0</title>
<path fill="#66cdaa" stroke="black" d="M452.5,-324C452.5,-324 422.5,-324 422.5,-324 416.5,-324 410.5,-318 410.5,-312 410.5,-312 410.5,-300 410.5,-300 410.5,-294 416.5,-288 422.5,-288 422.5,-288 452.5,-288 452.5,-288 458.5,-288 464.5,-294 464.5,-300 464.5,-300 464.5,-312 464.5,-312 464.5,-318 458.5,-324 452.5,-324"/>
<text text-anchor="middle" x="437.5" y="-302.3" font-family="Times,serif" font-size="14.00">Name</text>
</g>
<!-- ast.SetComp object at 0x7f13c0387310&#45;&gt;ast.Name object at 0x7f13c03857b0 -->
<g id="edge7" class="edge">
<title>ast.SetComp object at 0x7f13c0387310&#45;&gt;ast.Name object at 0x7f13c03857b0</title>
<path fill="none" stroke="black" d="M397.6,-359.7C403.89,-351.39 411.55,-341.28 418.46,-332.14"/>
<polygon fill="black" stroke="black" points="421.3,-334.19 424.55,-324.1 415.72,-329.96 421.3,-334.19"/>
</g>
<!-- ast.comprehension object at 0x7f13c0384220 -->
<g id="node10" class="node">
<title>ast.comprehension object at 0x7f13c0384220</title>
<path fill="#66cdaa" stroke="black" d="M370.5,-324C370.5,-324 294.5,-324 294.5,-324 288.5,-324 282.5,-318 282.5,-312 282.5,-312 282.5,-300 282.5,-300 282.5,-294 288.5,-288 294.5,-288 294.5,-288 370.5,-288 370.5,-288 376.5,-288 382.5,-294 382.5,-300 382.5,-300 382.5,-312 382.5,-312 382.5,-318 376.5,-324 370.5,-324"/>
<text text-anchor="middle" x="332.5" y="-302.3" font-family="Times,serif" font-size="14.00">comprehension</text>
</g>
<!-- ast.SetComp object at 0x7f13c0387310&#45;&gt;ast.comprehension object at 0x7f13c0384220 -->
<g id="edge9" class="edge">
<title>ast.SetComp object at 0x7f13c0387310&#45;&gt;ast.comprehension object at 0x7f13c0384220</title>
<path fill="none" stroke="black" d="M371.65,-359.7C365.47,-351.39 357.96,-341.28 351.18,-332.14"/>
<polygon fill="black" stroke="black" points="353.98,-330.04 345.21,-324.1 348.36,-334.22 353.98,-330.04"/>
</g>
<!-- ast.Load object at 0x7f14111edf60 -->
<g id="node9" class="node">
<title>ast.Load object at 0x7f14111edf60</title>
<path fill="#66cdaa" stroke="black" d="M297.5,-36C297.5,-36 267.5,-36 267.5,-36 261.5,-36 255.5,-30 255.5,-24 255.5,-24 255.5,-12 255.5,-12 255.5,-6 261.5,0 267.5,0 267.5,0 297.5,0 297.5,0 303.5,0 309.5,-6 309.5,-12 309.5,-12 309.5,-24 309.5,-24 309.5,-30 303.5,-36 297.5,-36"/>
<text text-anchor="middle" x="282.5" y="-14.3" font-family="Times,serif" font-size="14.00">Load</text>
</g>
<!-- ast.Name object at 0x7f13c03857b0&#45;&gt;ast.Load object at 0x7f14111edf60 -->
<g id="edge8" class="edge">
<title>ast.Name object at 0x7f13c03857b0&#45;&gt;ast.Load object at 0x7f14111edf60</title>
<path fill="none" stroke="black" d="M440.49,-287.81C446.83,-245.37 456.82,-134.55 401.5,-72 380.2,-47.92 345.87,-34.24 319.55,-26.84"/>
<polygon fill="black" stroke="black" points="320.09,-23.36 309.53,-24.21 318.32,-30.13 320.09,-23.36"/>
</g>
<!-- ast.Name object at 0x7f13c03870a0 -->
<g id="node11" class="node">
<title>ast.Name object at 0x7f13c03870a0</title>
<path fill="#66cdaa" stroke="black" d="M390.5,-252C390.5,-252 360.5,-252 360.5,-252 354.5,-252 348.5,-246 348.5,-240 348.5,-240 348.5,-228 348.5,-228 348.5,-222 354.5,-216 360.5,-216 360.5,-216 390.5,-216 390.5,-216 396.5,-216 402.5,-222 402.5,-228 402.5,-228 402.5,-240 402.5,-240 402.5,-246 396.5,-252 390.5,-252"/>
<text text-anchor="middle" x="375.5" y="-230.3" font-family="Times,serif" font-size="14.00">Name</text>
</g>
<!-- ast.comprehension object at 0x7f13c0384220&#45;&gt;ast.Name object at 0x7f13c03870a0 -->
<g id="edge10" class="edge">
<title>ast.comprehension object at 0x7f13c0384220&#45;&gt;ast.Name object at 0x7f13c03870a0</title>
<path fill="none" stroke="black" d="M343.13,-287.7C348.13,-279.56 354.19,-269.69 359.71,-260.7"/>
<polygon fill="black" stroke="black" points="362.74,-262.46 364.99,-252.1 356.78,-258.79 362.74,-262.46"/>
</g>
<!-- ast.Subscript object at 0x7f13c0386a40 -->
<g id="node13" class="node">
<title>ast.Subscript object at 0x7f13c0386a40</title>
<path fill="#66cdaa" stroke="black" d="M330.5,-180C330.5,-180 286.5,-180 286.5,-180 280.5,-180 274.5,-174 274.5,-168 274.5,-168 274.5,-156 274.5,-156 274.5,-150 280.5,-144 286.5,-144 286.5,-144 330.5,-144 330.5,-144 336.5,-144 342.5,-150 342.5,-156 342.5,-156 342.5,-168 342.5,-168 342.5,-174 336.5,-180 330.5,-180"/>
<text text-anchor="middle" x="308.5" y="-158.3" font-family="Times,serif" font-size="14.00">Subscript</text>
</g>
<!-- ast.comprehension object at 0x7f13c0384220&#45;&gt;ast.Subscript object at 0x7f13c0386a40 -->
<g id="edge12" class="edge">
<title>ast.comprehension object at 0x7f13c0384220&#45;&gt;ast.Subscript object at 0x7f13c0386a40</title>
<path fill="none" stroke="black" d="M329.61,-287.87C325.51,-263.67 318,-219.21 313.13,-190.39"/>
<polygon fill="black" stroke="black" points="316.52,-189.47 311.41,-180.19 309.62,-190.63 316.52,-189.47"/>
</g>
<!-- ast.Compare object at 0x7f13c0384790 -->
<g id="node18" class="node">
<title>ast.Compare object at 0x7f13c0384790</title>
<path fill="#66cdaa" stroke="black" d="M242,-252C242,-252 199,-252 199,-252 193,-252 187,-246 187,-240 187,-240 187,-228 187,-228 187,-222 193,-216 199,-216 199,-216 242,-216 242,-216 248,-216 254,-222 254,-228 254,-228 254,-240 254,-240 254,-246 248,-252 242,-252"/>
<text text-anchor="middle" x="220.5" y="-230.3" font-family="Times,serif" font-size="14.00">Compare</text>
</g>
<!-- ast.comprehension object at 0x7f13c0384220&#45;&gt;ast.Compare object at 0x7f13c0384790 -->
<g id="edge19" class="edge">
<title>ast.comprehension object at 0x7f13c0384220&#45;&gt;ast.Compare object at 0x7f13c0384790</title>
<path fill="none" stroke="black" d="M305.1,-287.88C290.59,-278.81 272.58,-267.55 256.91,-257.76"/>
<polygon fill="black" stroke="black" points="258.34,-254.52 248,-252.19 254.63,-260.46 258.34,-254.52"/>
</g>
<!-- ast.Store object at 0x7f14111edfc0 -->
<g id="node12" class="node">
<title>ast.Store object at 0x7f14111edfc0</title>
<path fill="#66cdaa" stroke="black" d="M402.5,-180C402.5,-180 372.5,-180 372.5,-180 366.5,-180 360.5,-174 360.5,-168 360.5,-168 360.5,-156 360.5,-156 360.5,-150 366.5,-144 372.5,-144 372.5,-144 402.5,-144 402.5,-144 408.5,-144 414.5,-150 414.5,-156 414.5,-156 414.5,-168 414.5,-168 414.5,-174 408.5,-180 402.5,-180"/>
<text text-anchor="middle" x="387.5" y="-158.3" font-family="Times,serif" font-size="14.00">Store</text>
</g>
<!-- ast.Name object at 0x7f13c03870a0&#45;&gt;ast.Store object at 0x7f14111edfc0 -->
<g id="edge11" class="edge">
<title>ast.Name object at 0x7f13c03870a0&#45;&gt;ast.Store object at 0x7f14111edfc0</title>
<path fill="none" stroke="black" d="M378.47,-215.7C379.79,-207.98 381.38,-198.71 382.85,-190.11"/>
<polygon fill="black" stroke="black" points="386.33,-190.55 384.57,-180.1 379.43,-189.37 386.33,-190.55"/>
</g>
<!-- ast.Subscript object at 0x7f13c0386a40&#45;&gt;ast.Load object at 0x7f14111edf60 -->
<g id="edge18" class="edge">
<title>ast.Subscript object at 0x7f13c0386a40&#45;&gt;ast.Load object at 0x7f14111edf60</title>
<path fill="none" stroke="black" d="M305.36,-143.87C300.93,-119.67 292.79,-75.21 287.52,-46.39"/>
<polygon fill="black" stroke="black" points="290.89,-45.4 285.65,-36.19 284.01,-46.66 290.89,-45.4"/>
</g>
<!-- ast.Name object at 0x7f13c0386470 -->
<g id="node14" class="node">
<title>ast.Name object at 0x7f13c0386470</title>
<path fill="#66cdaa" stroke="black" d="M380.5,-108C380.5,-108 350.5,-108 350.5,-108 344.5,-108 338.5,-102 338.5,-96 338.5,-96 338.5,-84 338.5,-84 338.5,-78 344.5,-72 350.5,-72 350.5,-72 380.5,-72 380.5,-72 386.5,-72 392.5,-78 392.5,-84 392.5,-84 392.5,-96 392.5,-96 392.5,-102 386.5,-108 380.5,-108"/>
<text text-anchor="middle" x="365.5" y="-86.3" font-family="Times,serif" font-size="14.00">Name</text>
</g>
<!-- ast.Subscript object at 0x7f13c0386a40&#45;&gt;ast.Name object at 0x7f13c0386470 -->
<g id="edge13" class="edge">
<title>ast.Subscript object at 0x7f13c0386a40&#45;&gt;ast.Name object at 0x7f13c0386470</title>
<path fill="none" stroke="black" d="M322.59,-143.7C329.42,-135.3 337.76,-125.07 345.26,-115.86"/>
<polygon fill="black" stroke="black" points="347.97,-118.07 351.57,-108.1 342.54,-113.65 347.97,-118.07"/>
</g>
<!-- ast.Slice object at 0x7f13c0387be0 -->
<g id="node15" class="node">
<title>ast.Slice object at 0x7f13c0387be0</title>
<path fill="#66cdaa" stroke="black" d="M512.5,-108C512.5,-108 482.5,-108 482.5,-108 476.5,-108 470.5,-102 470.5,-96 470.5,-96 470.5,-84 470.5,-84 470.5,-78 476.5,-72 482.5,-72 482.5,-72 512.5,-72 512.5,-72 518.5,-72 524.5,-78 524.5,-84 524.5,-84 524.5,-96 524.5,-96 524.5,-102 518.5,-108 512.5,-108"/>
<text text-anchor="middle" x="497.5" y="-86.3" font-family="Times,serif" font-size="14.00">Slice</text>
</g>
<!-- ast.Subscript object at 0x7f13c0386a40&#45;&gt;ast.Slice object at 0x7f13c0387be0 -->
<g id="edge15" class="edge">
<title>ast.Subscript object at 0x7f13c0386a40&#45;&gt;ast.Slice object at 0x7f13c0387be0</title>
<path fill="none" stroke="black" d="M342.73,-147.36C345.69,-146.22 348.65,-145.08 351.5,-144 388.54,-129.96 431.14,-114.58 460.73,-104.02"/>
<polygon fill="black" stroke="black" points="461.99,-107.29 470.24,-100.64 459.64,-100.7 461.99,-107.29"/>
</g>
<!-- ast.Name object at 0x7f13c0386470&#45;&gt;ast.Load object at 0x7f14111edf60 -->
<g id="edge14" class="edge">
<title>ast.Name object at 0x7f13c0386470&#45;&gt;ast.Load object at 0x7f14111edf60</title>
<path fill="none" stroke="black" d="M344.98,-71.7C334.63,-62.97 321.91,-52.24 310.66,-42.75"/>
<polygon fill="black" stroke="black" points="312.68,-39.88 302.78,-36.1 308.17,-45.23 312.68,-39.88"/>
</g>
<!-- ast.Constant object at 0x7f13c03853f0 -->
<g id="node16" class="node">
<title>ast.Constant object at 0x7f13c03853f0</title>
<path fill="#66cdaa" stroke="black" d="M476,-36C476,-36 435,-36 435,-36 429,-36 423,-30 423,-24 423,-24 423,-12 423,-12 423,-6 429,0 435,0 435,0 476,0 476,0 482,0 488,-6 488,-12 488,-12 488,-24 488,-24 488,-30 482,-36 476,-36"/>
<text text-anchor="middle" x="455.5" y="-14.3" font-family="Times,serif" font-size="14.00">Constant</text>
</g>
<!-- ast.Slice object at 0x7f13c0387be0&#45;&gt;ast.Constant object at 0x7f13c03853f0 -->
<g id="edge16" class="edge">
<title>ast.Slice object at 0x7f13c0387be0&#45;&gt;ast.Constant object at 0x7f13c03853f0</title>
<path fill="none" stroke="black" d="M487.12,-71.7C482.24,-63.56 476.31,-53.69 470.92,-44.7"/>
<polygon fill="black" stroke="black" points="473.91,-42.88 465.76,-36.1 467.91,-46.48 473.91,-42.88"/>
</g>
<!-- ast.Constant object at 0x7f13c0385ff0 -->
<g id="node17" class="node">
<title>ast.Constant object at 0x7f13c0385ff0</title>
<path fill="#66cdaa" stroke="black" d="M559,-36C559,-36 518,-36 518,-36 512,-36 506,-30 506,-24 506,-24 506,-12 506,-12 506,-6 512,0 518,0 518,0 559,0 559,0 565,0 571,-6 571,-12 571,-12 571,-24 571,-24 571,-30 565,-36 559,-36"/>
<text text-anchor="middle" x="538.5" y="-14.3" font-family="Times,serif" font-size="14.00">Constant</text>
</g>
<!-- ast.Slice object at 0x7f13c0387be0&#45;&gt;ast.Constant object at 0x7f13c0385ff0 -->
<g id="edge17" class="edge">
<title>ast.Slice object at 0x7f13c0387be0&#45;&gt;ast.Constant object at 0x7f13c0385ff0</title>
<path fill="none" stroke="black" d="M507.63,-71.7C512.35,-63.64 518.06,-53.89 523.28,-44.98"/>
<polygon fill="black" stroke="black" points="526.45,-46.5 528.48,-36.1 520.41,-42.96 526.45,-46.5"/>
</g>
<!-- ast.Name object at 0x7f13c0386620 -->
<g id="node19" class="node">
<title>ast.Name object at 0x7f13c0386620</title>
<path fill="#66cdaa" stroke="black" d="M270.5,-108C270.5,-108 240.5,-108 240.5,-108 234.5,-108 228.5,-102 228.5,-96 228.5,-96 228.5,-84 228.5,-84 228.5,-78 234.5,-72 240.5,-72 240.5,-72 270.5,-72 270.5,-72 276.5,-72 282.5,-78 282.5,-84 282.5,-84 282.5,-96 282.5,-96 282.5,-102 276.5,-108 270.5,-108"/>
<text text-anchor="middle" x="255.5" y="-86.3" font-family="Times,serif" font-size="14.00">Name</text>
</g>
<!-- ast.Compare object at 0x7f13c0384790&#45;&gt;ast.Name object at 0x7f13c0386620 -->
<g id="edge20" class="edge">
<title>ast.Compare object at 0x7f13c0384790&#45;&gt;ast.Name object at 0x7f13c0386620</title>
<path fill="none" stroke="black" d="M224.72,-215.87C230.71,-191.56 241.74,-146.82 248.84,-118.01"/>
<polygon fill="black" stroke="black" points="252.27,-118.74 251.26,-108.19 245.47,-117.06 252.27,-118.74"/>
</g>
<!-- ast.In object at 0x7f14111eeb90 -->
<g id="node20" class="node">
<title>ast.In object at 0x7f14111eeb90</title>
<path fill="#66cdaa" stroke="black" d="M119.5,-180C119.5,-180 89.5,-180 89.5,-180 83.5,-180 77.5,-174 77.5,-168 77.5,-168 77.5,-156 77.5,-156 77.5,-150 83.5,-144 89.5,-144 89.5,-144 119.5,-144 119.5,-144 125.5,-144 131.5,-150 131.5,-156 131.5,-156 131.5,-168 131.5,-168 131.5,-174 125.5,-180 119.5,-180"/>
<text text-anchor="middle" x="104.5" y="-158.3" font-family="Times,serif" font-size="14.00">In</text>
</g>
<!-- ast.Compare object at 0x7f13c0384790&#45;&gt;ast.In object at 0x7f14111eeb90 -->
<g id="edge22" class="edge">
<title>ast.Compare object at 0x7f13c0384790&#45;&gt;ast.In object at 0x7f14111eeb90</title>
<path fill="none" stroke="black" d="M192.12,-215.88C176.62,-206.52 157.25,-194.83 140.67,-184.83"/>
<polygon fill="black" stroke="black" points="142.16,-181.64 131.79,-179.47 138.54,-187.63 142.16,-181.64"/>
</g>
<!-- ast.Subscript object at 0x7f13c03844f0 -->
<g id="node21" class="node">
<title>ast.Subscript object at 0x7f13c03844f0</title>
<path fill="#66cdaa" stroke="black" d="M205.5,-180C205.5,-180 161.5,-180 161.5,-180 155.5,-180 149.5,-174 149.5,-168 149.5,-168 149.5,-156 149.5,-156 149.5,-150 155.5,-144 161.5,-144 161.5,-144 205.5,-144 205.5,-144 211.5,-144 217.5,-150 217.5,-156 217.5,-156 217.5,-168 217.5,-168 217.5,-174 211.5,-180 205.5,-180"/>
<text text-anchor="middle" x="183.5" y="-158.3" font-family="Times,serif" font-size="14.00">Subscript</text>
</g>
<!-- ast.Compare object at 0x7f13c0384790&#45;&gt;ast.Subscript object at 0x7f13c03844f0 -->
<g id="edge23" class="edge">
<title>ast.Compare object at 0x7f13c0384790&#45;&gt;ast.Subscript object at 0x7f13c03844f0</title>
<path fill="none" stroke="black" d="M211.35,-215.7C207.1,-207.64 201.94,-197.89 197.23,-188.98"/>
<polygon fill="black" stroke="black" points="200.31,-187.31 192.54,-180.1 194.12,-190.58 200.31,-187.31"/>
</g>
<!-- ast.Name object at 0x7f13c0386620&#45;&gt;ast.Load object at 0x7f14111edf60 -->
<g id="edge21" class="edge">
<title>ast.Name object at 0x7f13c0386620&#45;&gt;ast.Load object at 0x7f14111edf60</title>
<path fill="none" stroke="black" d="M262.17,-71.7C265.21,-63.81 268.88,-54.3 272.26,-45.55"/>
<polygon fill="black" stroke="black" points="275.57,-46.69 275.9,-36.1 269.04,-44.17 275.57,-46.69"/>
</g>
<!-- ast.Subscript object at 0x7f13c03844f0&#45;&gt;ast.Load object at 0x7f14111edf60 -->
<g id="edge29" class="edge">
<title>ast.Subscript object at 0x7f13c03844f0&#45;&gt;ast.Load object at 0x7f14111edf60</title>
<path fill="none" stroke="black" d="M167.22,-143.87C151.44,-125.13 132.01,-94.72 147.5,-72 169.23,-40.13 213.29,-27.42 245.18,-22.36"/>
<polygon fill="black" stroke="black" points="246.06,-25.77 255.47,-20.92 245.09,-18.84 246.06,-25.77"/>
</g>
<!-- ast.Name object at 0x7f13c0386e60 -->
<g id="node22" class="node">
<title>ast.Name object at 0x7f13c0386e60</title>
<path fill="#66cdaa" stroke="black" d="M198.5,-108C198.5,-108 168.5,-108 168.5,-108 162.5,-108 156.5,-102 156.5,-96 156.5,-96 156.5,-84 156.5,-84 156.5,-78 162.5,-72 168.5,-72 168.5,-72 198.5,-72 198.5,-72 204.5,-72 210.5,-78 210.5,-84 210.5,-84 210.5,-96 210.5,-96 210.5,-102 204.5,-108 198.5,-108"/>
<text text-anchor="middle" x="183.5" y="-86.3" font-family="Times,serif" font-size="14.00">Name</text>
</g>
<!-- ast.Subscript object at 0x7f13c03844f0&#45;&gt;ast.Name object at 0x7f13c0386e60 -->
<g id="edge24" class="edge">
<title>ast.Subscript object at 0x7f13c03844f0&#45;&gt;ast.Name object at 0x7f13c0386e60</title>
<path fill="none" stroke="black" d="M183.5,-143.7C183.5,-135.98 183.5,-126.71 183.5,-118.11"/>
<polygon fill="black" stroke="black" points="187,-118.1 183.5,-108.1 180,-118.1 187,-118.1"/>
</g>
<!-- ast.Slice object at 0x7f13c0386bf0 -->
<g id="node23" class="node">
<title>ast.Slice object at 0x7f13c0386bf0</title>
<path fill="#66cdaa" stroke="black" d="M88.5,-108C88.5,-108 58.5,-108 58.5,-108 52.5,-108 46.5,-102 46.5,-96 46.5,-96 46.5,-84 46.5,-84 46.5,-78 52.5,-72 58.5,-72 58.5,-72 88.5,-72 88.5,-72 94.5,-72 100.5,-78 100.5,-84 100.5,-84 100.5,-96 100.5,-96 100.5,-102 94.5,-108 88.5,-108"/>
<text text-anchor="middle" x="73.5" y="-86.3" font-family="Times,serif" font-size="14.00">Slice</text>
</g>
<!-- ast.Subscript object at 0x7f13c03844f0&#45;&gt;ast.Slice object at 0x7f13c0386bf0 -->
<g id="edge26" class="edge">
<title>ast.Subscript object at 0x7f13c03844f0&#45;&gt;ast.Slice object at 0x7f13c0386bf0</title>
<path fill="none" stroke="black" d="M156.59,-143.88C142.34,-134.81 124.65,-123.55 109.26,-113.76"/>
<polygon fill="black" stroke="black" points="110.83,-110.61 100.51,-108.19 107.07,-116.51 110.83,-110.61"/>
</g>
<!-- ast.Name object at 0x7f13c0386e60&#45;&gt;ast.Load object at 0x7f14111edf60 -->
<g id="edge25" class="edge">
<title>ast.Name object at 0x7f13c0386e60&#45;&gt;ast.Load object at 0x7f14111edf60</title>
<path fill="none" stroke="black" d="M207.72,-71.88C220.42,-62.89 236.16,-51.76 249.92,-42.03"/>
<polygon fill="black" stroke="black" points="252.04,-44.82 258.19,-36.19 248,-39.11 252.04,-44.82"/>
</g>
<!-- ast.Constant object at 0x7f13c03871f0 -->
<g id="node24" class="node">
<title>ast.Constant object at 0x7f13c03871f0</title>
<path fill="#66cdaa" stroke="black" d="M53,-36C53,-36 12,-36 12,-36 6,-36 0,-30 0,-24 0,-24 0,-12 0,-12 0,-6 6,0 12,0 12,0 53,0 53,0 59,0 65,-6 65,-12 65,-12 65,-24 65,-24 65,-30 59,-36 53,-36"/>
<text text-anchor="middle" x="32.5" y="-14.3" font-family="Times,serif" font-size="14.00">Constant</text>
</g>
<!-- ast.Slice object at 0x7f13c0386bf0&#45;&gt;ast.Constant object at 0x7f13c03871f0 -->
<g id="edge27" class="edge">
<title>ast.Slice object at 0x7f13c0386bf0&#45;&gt;ast.Constant object at 0x7f13c03871f0</title>
<path fill="none" stroke="black" d="M63.37,-71.7C58.65,-63.64 52.94,-53.89 47.72,-44.98"/>
<polygon fill="black" stroke="black" points="50.59,-42.96 42.52,-36.1 44.55,-46.5 50.59,-42.96"/>
</g>
<!-- ast.Constant object at 0x7f13c03855a0 -->
<g id="node25" class="node">
<title>ast.Constant object at 0x7f13c03855a0</title>
<path fill="#66cdaa" stroke="black" d="M136,-36C136,-36 95,-36 95,-36 89,-36 83,-30 83,-24 83,-24 83,-12 83,-12 83,-6 89,0 95,0 95,0 136,0 136,0 142,0 148,-6 148,-12 148,-12 148,-24 148,-24 148,-30 142,-36 136,-36"/>
<text text-anchor="middle" x="115.5" y="-14.3" font-family="Times,serif" font-size="14.00">Constant</text>
</g>
<!-- ast.Slice object at 0x7f13c0386bf0&#45;&gt;ast.Constant object at 0x7f13c03855a0 -->
<g id="edge28" class="edge">
<title>ast.Slice object at 0x7f13c0386bf0&#45;&gt;ast.Constant object at 0x7f13c03855a0</title>
<path fill="none" stroke="black" d="M83.88,-71.7C88.76,-63.56 94.69,-53.69 100.08,-44.7"/>
<polygon fill="black" stroke="black" points="103.09,-46.48 105.24,-36.1 97.09,-42.88 103.09,-46.48"/>
</g>
</g>
</svg>
