<?xml version="1.0" encoding="UTF-8" standalone="no"?>
<!DOCTYPE svg PUBLIC "-//W3C//DTD SVG 1.1//EN"
 "http://www.w3.org/Graphics/SVG/1.1/DTD/svg11.dtd">
<!-- Generated by graphviz version 2.43.0 (0)
 -->
<!-- Title: %3 Pages: 1 -->
<svg width="691pt" height="764pt"
 viewBox="0.00 0.00 691.10 764.00" xmlns="http://www.w3.org/2000/svg" xmlns:xlink="http://www.w3.org/1999/xlink">
<g id="graph0" class="graph" transform="scale(1 1) rotate(0) translate(4 760)">
<title>%3</title>
<polygon fill="white" stroke="transparent" points="-4,4 -4,-760 687.1,-760 687.1,4 -4,4"/>
<!-- ast.Module object at 0x7f1567bef250 -->
<g id="node1" class="node">
<title>ast.Module object at 0x7f1567bef250</title>
<path fill="#66cdaa" stroke="black" d="M566.1,-756C566.1,-756 531.1,-756 531.1,-756 525.1,-756 519.1,-750 519.1,-744 519.1,-744 519.1,-732 519.1,-732 519.1,-726 525.1,-720 531.1,-720 531.1,-720 566.1,-720 566.1,-720 572.1,-720 578.1,-726 578.1,-732 578.1,-732 578.1,-744 578.1,-744 578.1,-750 572.1,-756 566.1,-756"/>
<text text-anchor="middle" x="548.6" y="-734.3" font-family="Times,serif" font-size="14.00">Module</text>
</g>
<!-- ast.FunctionDef object at 0x7f1567bed8a0 -->
<g id="node2" class="node">
<title>ast.FunctionDef object at 0x7f1567bed8a0</title>
<path fill="#66cdaa" stroke="black" d="M579.1,-684C579.1,-684 518.1,-684 518.1,-684 512.1,-684 506.1,-678 506.1,-672 506.1,-672 506.1,-660 506.1,-660 506.1,-654 512.1,-648 518.1,-648 518.1,-648 579.1,-648 579.1,-648 585.1,-648 591.1,-654 591.1,-660 591.1,-660 591.1,-672 591.1,-672 591.1,-678 585.1,-684 579.1,-684"/>
<text text-anchor="middle" x="548.6" y="-662.3" font-family="Times,serif" font-size="14.00">FunctionDef</text>
</g>
<!-- ast.Module object at 0x7f1567bef250&#45;&gt;ast.FunctionDef object at 0x7f1567bed8a0 -->
<g id="edge1" class="edge">
<title>ast.Module object at 0x7f1567bef250&#45;&gt;ast.FunctionDef object at 0x7f1567bed8a0</title>
<path fill="none" stroke="black" d="M548.6,-719.7C548.6,-711.98 548.6,-702.71 548.6,-694.11"/>
<polygon fill="black" stroke="black" points="552.1,-694.1 548.6,-684.1 545.1,-694.1 552.1,-694.1"/>
</g>
<!-- ast.arguments object at 0x7f1567bed810 -->
<g id="node3" class="node">
<title>ast.arguments object at 0x7f1567bed810</title>
<path fill="#66cdaa" stroke="black" d="M532.6,-612C532.6,-612 482.6,-612 482.6,-612 476.6,-612 470.6,-606 470.6,-600 470.6,-600 470.6,-588 470.6,-588 470.6,-582 476.6,-576 482.6,-576 482.6,-576 532.6,-576 532.6,-576 538.6,-576 544.6,-582 544.6,-588 544.6,-588 544.6,-600 544.6,-600 544.6,-606 538.6,-612 532.6,-612"/>
<text text-anchor="middle" x="507.6" y="-590.3" font-family="Times,serif" font-size="14.00">arguments</text>
</g>
<!-- ast.FunctionDef object at 0x7f1567bed8a0&#45;&gt;ast.arguments object at 0x7f1567bed810 -->
<g id="edge2" class="edge">
<title>ast.FunctionDef object at 0x7f1567bed8a0&#45;&gt;ast.arguments object at 0x7f1567bed810</title>
<path fill="none" stroke="black" d="M538.47,-647.7C533.75,-639.64 528.04,-629.89 522.82,-620.98"/>
<polygon fill="black" stroke="black" points="525.69,-618.96 517.62,-612.1 519.65,-622.5 525.69,-618.96"/>
</g>
<!-- ast.Return object at 0x7f1567b06380 -->
<g id="node5" class="node">
<title>ast.Return object at 0x7f1567b06380</title>
<path fill="#66cdaa" stroke="black" d="M604.6,-612C604.6,-612 574.6,-612 574.6,-612 568.6,-612 562.6,-606 562.6,-600 562.6,-600 562.6,-588 562.6,-588 562.6,-582 568.6,-576 574.6,-576 574.6,-576 604.6,-576 604.6,-576 610.6,-576 616.6,-582 616.6,-588 616.6,-588 616.6,-600 616.6,-600 616.6,-606 610.6,-612 604.6,-612"/>
<text text-anchor="middle" x="589.6" y="-590.3" font-family="Times,serif" font-size="14.00">Return</text>
</g>
<!-- ast.FunctionDef object at 0x7f1567bed8a0&#45;&gt;ast.Return object at 0x7f1567b06380 -->
<g id="edge4" class="edge">
<title>ast.FunctionDef object at 0x7f1567bed8a0&#45;&gt;ast.Return object at 0x7f1567b06380</title>
<path fill="none" stroke="black" d="M558.73,-647.7C563.45,-639.64 569.16,-629.89 574.38,-620.98"/>
<polygon fill="black" stroke="black" points="577.55,-622.5 579.58,-612.1 571.51,-618.96 577.55,-622.5"/>
</g>
<!-- ast.arg object at 0x7f1567bed9f0 -->
<g id="node4" class="node">
<title>ast.arg object at 0x7f1567bed9f0</title>
<path fill="#66cdaa" stroke="black" d="M522.6,-540C522.6,-540 492.6,-540 492.6,-540 486.6,-540 480.6,-534 480.6,-528 480.6,-528 480.6,-516 480.6,-516 480.6,-510 486.6,-504 492.6,-504 492.6,-504 522.6,-504 522.6,-504 528.6,-504 534.6,-510 534.6,-516 534.6,-516 534.6,-528 534.6,-528 534.6,-534 528.6,-540 522.6,-540"/>
<text text-anchor="middle" x="507.6" y="-518.3" font-family="Times,serif" font-size="14.00">arg</text>
</g>
<!-- ast.arguments object at 0x7f1567bed810&#45;&gt;ast.arg object at 0x7f1567bed9f0 -->
<g id="edge3" class="edge">
<title>ast.arguments object at 0x7f1567bed810&#45;&gt;ast.arg object at 0x7f1567bed9f0</title>
<path fill="none" stroke="black" d="M507.6,-575.7C507.6,-567.98 507.6,-558.71 507.6,-550.11"/>
<polygon fill="black" stroke="black" points="511.1,-550.1 507.6,-540.1 504.1,-550.1 511.1,-550.1"/>
</g>
<!-- ast.Subscript object at 0x7f153ea1b4c0 -->
<g id="node6" class="node">
<title>ast.Subscript object at 0x7f153ea1b4c0</title>
<path fill="#66cdaa" stroke="black" d="M611.6,-540C611.6,-540 567.6,-540 567.6,-540 561.6,-540 555.6,-534 555.6,-528 555.6,-528 555.6,-516 555.6,-516 555.6,-510 561.6,-504 567.6,-504 567.6,-504 611.6,-504 611.6,-504 617.6,-504 623.6,-510 623.6,-516 623.6,-516 623.6,-528 623.6,-528 623.6,-534 617.6,-540 611.6,-540"/>
<text text-anchor="middle" x="589.6" y="-518.3" font-family="Times,serif" font-size="14.00">Subscript</text>
</g>
<!-- ast.Return object at 0x7f1567b06380&#45;&gt;ast.Subscript object at 0x7f153ea1b4c0 -->
<g id="edge5" class="edge">
<title>ast.Return object at 0x7f1567b06380&#45;&gt;ast.Subscript object at 0x7f153ea1b4c0</title>
<path fill="none" stroke="black" d="M589.6,-575.7C589.6,-567.98 589.6,-558.71 589.6,-550.11"/>
<polygon fill="black" stroke="black" points="593.1,-550.1 589.6,-540.1 586.1,-550.1 593.1,-550.1"/>
</g>
<!-- ast.Call object at 0x7f153ea1bac0 -->
<g id="node7" class="node">
<title>ast.Call object at 0x7f153ea1bac0</title>
<path fill="#66cdaa" stroke="black" d="M367.6,-468C367.6,-468 337.6,-468 337.6,-468 331.6,-468 325.6,-462 325.6,-456 325.6,-456 325.6,-444 325.6,-444 325.6,-438 331.6,-432 337.6,-432 337.6,-432 367.6,-432 367.6,-432 373.6,-432 379.6,-438 379.6,-444 379.6,-444 379.6,-456 379.6,-456 379.6,-462 373.6,-468 367.6,-468"/>
<text text-anchor="middle" x="352.6" y="-446.3" font-family="Times,serif" font-size="14.00">Call</text>
</g>
<!-- ast.Subscript object at 0x7f153ea1b4c0&#45;&gt;ast.Call object at 0x7f153ea1bac0 -->
<g id="edge6" class="edge">
<title>ast.Subscript object at 0x7f153ea1b4c0&#45;&gt;ast.Call object at 0x7f153ea1bac0</title>
<path fill="none" stroke="black" d="M555.55,-508.06C551.54,-506.64 547.49,-505.26 543.6,-504 490.54,-486.87 428.14,-470.19 389.47,-460.26"/>
<polygon fill="black" stroke="black" points="390.25,-456.84 379.7,-457.76 388.52,-463.63 390.25,-456.84"/>
</g>
<!-- ast.Load object at 0x7f15b98f1f60 -->
<g id="node9" class="node">
<title>ast.Load object at 0x7f15b98f1f60</title>
<path fill="#66cdaa" stroke="black" d="M295.6,-36C295.6,-36 265.6,-36 265.6,-36 259.6,-36 253.6,-30 253.6,-24 253.6,-24 253.6,-12 253.6,-12 253.6,-6 259.6,0 265.6,0 265.6,0 295.6,0 295.6,0 301.6,0 307.6,-6 307.6,-12 307.6,-12 307.6,-24 307.6,-24 307.6,-30 301.6,-36 295.6,-36"/>
<text text-anchor="middle" x="280.6" y="-14.3" font-family="Times,serif" font-size="14.00">Load</text>
</g>
<!-- ast.Subscript object at 0x7f153ea1b4c0&#45;&gt;ast.Load object at 0x7f15b98f1f60 -->
<g id="edge38" class="edge">
<title>ast.Subscript object at 0x7f153ea1b4c0&#45;&gt;ast.Load object at 0x7f15b98f1f60</title>
<path fill="none" stroke="black" d="M589.6,-503.95C589.6,-477.29 589.6,-424.11 589.6,-379 589.6,-379 589.6,-379 589.6,-161 589.6,-118.16 585.78,-99.09 552.6,-72 517.12,-43.04 383.96,-27.84 318.04,-21.95"/>
<polygon fill="black" stroke="black" points="317.95,-18.43 307.68,-21.05 317.34,-25.4 317.95,-18.43"/>
</g>
<!-- ast.Slice object at 0x7f153ea1bd00 -->
<g id="node30" class="node">
<title>ast.Slice object at 0x7f153ea1bd00</title>
<path fill="#66cdaa" stroke="black" d="M662.6,-468C662.6,-468 632.6,-468 632.6,-468 626.6,-468 620.6,-462 620.6,-456 620.6,-456 620.6,-444 620.6,-444 620.6,-438 626.6,-432 632.6,-432 632.6,-432 662.6,-432 662.6,-432 668.6,-432 674.6,-438 674.6,-444 674.6,-444 674.6,-456 674.6,-456 674.6,-462 668.6,-468 662.6,-468"/>
<text text-anchor="middle" x="647.6" y="-446.3" font-family="Times,serif" font-size="14.00">Slice</text>
</g>
<!-- ast.Subscript object at 0x7f153ea1b4c0&#45;&gt;ast.Slice object at 0x7f153ea1bd00 -->
<g id="edge36" class="edge">
<title>ast.Subscript object at 0x7f153ea1b4c0&#45;&gt;ast.Slice object at 0x7f153ea1bd00</title>
<path fill="none" stroke="black" d="M603.94,-503.7C610.89,-495.3 619.37,-485.07 627,-475.86"/>
<polygon fill="black" stroke="black" points="629.74,-478.04 633.43,-468.1 624.35,-473.57 629.74,-478.04"/>
</g>
<!-- ast.Name object at 0x7f153ea1ac50 -->
<g id="node8" class="node">
<title>ast.Name object at 0x7f153ea1ac50</title>
<path fill="#66cdaa" stroke="black" d="M105.6,-324C105.6,-324 75.6,-324 75.6,-324 69.6,-324 63.6,-318 63.6,-312 63.6,-312 63.6,-300 63.6,-300 63.6,-294 69.6,-288 75.6,-288 75.6,-288 105.6,-288 105.6,-288 111.6,-288 117.6,-294 117.6,-300 117.6,-300 117.6,-312 117.6,-312 117.6,-318 111.6,-324 105.6,-324"/>
<text text-anchor="middle" x="90.6" y="-302.3" font-family="Times,serif" font-size="14.00">Name</text>
</g>
<!-- ast.Call object at 0x7f153ea1bac0&#45;&gt;ast.Name object at 0x7f153ea1ac50 -->
<g id="edge7" class="edge">
<title>ast.Call object at 0x7f153ea1bac0&#45;&gt;ast.Name object at 0x7f153ea1ac50</title>
<path fill="none" stroke="black" d="M325.55,-434.34C278.19,-408.67 180.23,-355.58 126.98,-326.72"/>
<polygon fill="black" stroke="black" points="128.36,-323.48 117.9,-321.79 125.02,-329.64 128.36,-323.48"/>
</g>
<!-- ast.IfExp object at 0x7f153ea1bf10 -->
<g id="node10" class="node">
<title>ast.IfExp object at 0x7f153ea1bf10</title>
<path fill="#66cdaa" stroke="black" d="M310.6,-324C310.6,-324 280.6,-324 280.6,-324 274.6,-324 268.6,-318 268.6,-312 268.6,-312 268.6,-300 268.6,-300 268.6,-294 274.6,-288 280.6,-288 280.6,-288 310.6,-288 310.6,-288 316.6,-288 322.6,-294 322.6,-300 322.6,-300 322.6,-312 322.6,-312 322.6,-318 316.6,-324 310.6,-324"/>
<text text-anchor="middle" x="295.6" y="-302.3" font-family="Times,serif" font-size="14.00">IfExp</text>
</g>
<!-- ast.Call object at 0x7f153ea1bac0&#45;&gt;ast.IfExp object at 0x7f153ea1bf10 -->
<g id="edge9" class="edge">
<title>ast.Call object at 0x7f153ea1bac0&#45;&gt;ast.IfExp object at 0x7f153ea1bf10</title>
<path fill="none" stroke="black" d="M345.72,-431.87C335.92,-407.46 317.85,-362.43 306.29,-333.64"/>
<polygon fill="black" stroke="black" points="309.47,-332.17 302.5,-324.19 302.98,-334.77 309.47,-332.17"/>
</g>
<!-- ast.keyword object at 0x7f153ea1bf40 -->
<g id="node21" class="node">
<title>ast.keyword object at 0x7f153ea1bf40</title>
<path fill="#66cdaa" stroke="black" d="M413.6,-396C413.6,-396 373.6,-396 373.6,-396 367.6,-396 361.6,-390 361.6,-384 361.6,-384 361.6,-372 361.6,-372 361.6,-366 367.6,-360 373.6,-360 373.6,-360 413.6,-360 413.6,-360 419.6,-360 425.6,-366 425.6,-372 425.6,-372 425.6,-384 425.6,-384 425.6,-390 419.6,-396 413.6,-396"/>
<text text-anchor="middle" x="393.6" y="-374.3" font-family="Times,serif" font-size="14.00">keyword</text>
</g>
<!-- ast.Call object at 0x7f153ea1bac0&#45;&gt;ast.keyword object at 0x7f153ea1bf40 -->
<g id="edge25" class="edge">
<title>ast.Call object at 0x7f153ea1bac0&#45;&gt;ast.keyword object at 0x7f153ea1bf40</title>
<path fill="none" stroke="black" d="M362.73,-431.7C367.45,-423.64 373.16,-413.89 378.38,-404.98"/>
<polygon fill="black" stroke="black" points="381.55,-406.5 383.58,-396.1 375.51,-402.96 381.55,-406.5"/>
</g>
<!-- ast.Name object at 0x7f153ea1ac50&#45;&gt;ast.Load object at 0x7f15b98f1f60 -->
<g id="edge8" class="edge">
<title>ast.Name object at 0x7f153ea1ac50&#45;&gt;ast.Load object at 0x7f15b98f1f60</title>
<path fill="none" stroke="black" d="M75.82,-287.88C41.56,-246.09 -36.24,-137.48 19.6,-72 48.09,-38.59 177.97,-25.58 243.11,-21.09"/>
<polygon fill="black" stroke="black" points="243.61,-24.57 253.36,-20.42 243.15,-17.58 243.61,-24.57"/>
</g>
<!-- ast.Compare object at 0x7f153ea1ad40 -->
<g id="node11" class="node">
<title>ast.Compare object at 0x7f153ea1ad40</title>
<path fill="#66cdaa" stroke="black" d="M185.1,-252C185.1,-252 142.1,-252 142.1,-252 136.1,-252 130.1,-246 130.1,-240 130.1,-240 130.1,-228 130.1,-228 130.1,-222 136.1,-216 142.1,-216 142.1,-216 185.1,-216 185.1,-216 191.1,-216 197.1,-222 197.1,-228 197.1,-228 197.1,-240 197.1,-240 197.1,-246 191.1,-252 185.1,-252"/>
<text text-anchor="middle" x="163.6" y="-230.3" font-family="Times,serif" font-size="14.00">Compare</text>
</g>
<!-- ast.IfExp object at 0x7f153ea1bf10&#45;&gt;ast.Compare object at 0x7f153ea1ad40 -->
<g id="edge10" class="edge">
<title>ast.IfExp object at 0x7f153ea1bf10&#45;&gt;ast.Compare object at 0x7f153ea1ad40</title>
<path fill="none" stroke="black" d="M268.57,-290.67C250.17,-280.91 225.48,-267.82 204.67,-256.78"/>
<polygon fill="black" stroke="black" points="206.19,-253.62 195.72,-252.03 202.91,-259.81 206.19,-253.62"/>
</g>
<!-- ast.Call object at 0x7f153ea1b610 -->
<g id="node17" class="node">
<title>ast.Call object at 0x7f153ea1b610</title>
<path fill="#66cdaa" stroke="black" d="M295.6,-180C295.6,-180 265.6,-180 265.6,-180 259.6,-180 253.6,-174 253.6,-168 253.6,-168 253.6,-156 253.6,-156 253.6,-150 259.6,-144 265.6,-144 265.6,-144 295.6,-144 295.6,-144 301.6,-144 307.6,-150 307.6,-156 307.6,-156 307.6,-168 307.6,-168 307.6,-174 301.6,-180 295.6,-180"/>
<text text-anchor="middle" x="280.6" y="-158.3" font-family="Times,serif" font-size="14.00">Call</text>
</g>
<!-- ast.IfExp object at 0x7f153ea1bf10&#45;&gt;ast.Call object at 0x7f153ea1b610 -->
<g id="edge18" class="edge">
<title>ast.IfExp object at 0x7f153ea1bf10&#45;&gt;ast.Call object at 0x7f153ea1b610</title>
<path fill="none" stroke="black" d="M292.24,-287.88C290.32,-277.53 288.03,-264.05 286.6,-252 284.16,-231.37 282.63,-207.92 281.72,-190.27"/>
<polygon fill="black" stroke="black" points="285.21,-189.93 281.24,-180.11 278.22,-190.26 285.21,-189.93"/>
</g>
<!-- ast.Name object at 0x7f153ea1b8b0 -->
<g id="node20" class="node">
<title>ast.Name object at 0x7f153ea1b8b0</title>
<path fill="#66cdaa" stroke="black" d="M337.6,-252C337.6,-252 307.6,-252 307.6,-252 301.6,-252 295.6,-246 295.6,-240 295.6,-240 295.6,-228 295.6,-228 295.6,-222 301.6,-216 307.6,-216 307.6,-216 337.6,-216 337.6,-216 343.6,-216 349.6,-222 349.6,-228 349.6,-228 349.6,-240 349.6,-240 349.6,-246 343.6,-252 337.6,-252"/>
<text text-anchor="middle" x="322.6" y="-230.3" font-family="Times,serif" font-size="14.00">Name</text>
</g>
<!-- ast.IfExp object at 0x7f153ea1bf10&#45;&gt;ast.Name object at 0x7f153ea1b8b0 -->
<g id="edge23" class="edge">
<title>ast.IfExp object at 0x7f153ea1bf10&#45;&gt;ast.Name object at 0x7f153ea1b8b0</title>
<path fill="none" stroke="black" d="M302.27,-287.7C305.31,-279.81 308.98,-270.3 312.36,-261.55"/>
<polygon fill="black" stroke="black" points="315.67,-262.69 316,-252.1 309.14,-260.17 315.67,-262.69"/>
</g>
<!-- ast.Call object at 0x7f153ea1b760 -->
<g id="node12" class="node">
<title>ast.Call object at 0x7f153ea1b760</title>
<path fill="#66cdaa" stroke="black" d="M67.6,-180C67.6,-180 37.6,-180 37.6,-180 31.6,-180 25.6,-174 25.6,-168 25.6,-168 25.6,-156 25.6,-156 25.6,-150 31.6,-144 37.6,-144 37.6,-144 67.6,-144 67.6,-144 73.6,-144 79.6,-150 79.6,-156 79.6,-156 79.6,-168 79.6,-168 79.6,-174 73.6,-180 67.6,-180"/>
<text text-anchor="middle" x="52.6" y="-158.3" font-family="Times,serif" font-size="14.00">Call</text>
</g>
<!-- ast.Compare object at 0x7f153ea1ad40&#45;&gt;ast.Call object at 0x7f153ea1b760 -->
<g id="edge11" class="edge">
<title>ast.Compare object at 0x7f153ea1ad40&#45;&gt;ast.Call object at 0x7f153ea1b760</title>
<path fill="none" stroke="black" d="M136.45,-215.88C122.07,-206.81 104.22,-195.55 88.69,-185.76"/>
<polygon fill="black" stroke="black" points="90.18,-182.56 79.86,-180.19 86.45,-188.48 90.18,-182.56"/>
</g>
<!-- ast.Lt object at 0x7f15b98f2950 -->
<g id="node15" class="node">
<title>ast.Lt object at 0x7f15b98f2950</title>
<path fill="#66cdaa" stroke="black" d="M139.6,-180C139.6,-180 109.6,-180 109.6,-180 103.6,-180 97.6,-174 97.6,-168 97.6,-168 97.6,-156 97.6,-156 97.6,-150 103.6,-144 109.6,-144 109.6,-144 139.6,-144 139.6,-144 145.6,-144 151.6,-150 151.6,-156 151.6,-156 151.6,-168 151.6,-168 151.6,-174 145.6,-180 139.6,-180"/>
<text text-anchor="middle" x="124.6" y="-158.3" font-family="Times,serif" font-size="14.00">Lt</text>
</g>
<!-- ast.Compare object at 0x7f153ea1ad40&#45;&gt;ast.Lt object at 0x7f15b98f2950 -->
<g id="edge16" class="edge">
<title>ast.Compare object at 0x7f153ea1ad40&#45;&gt;ast.Lt object at 0x7f15b98f2950</title>
<path fill="none" stroke="black" d="M153.96,-215.7C149.47,-207.64 144.04,-197.89 139.08,-188.98"/>
<polygon fill="black" stroke="black" points="142.05,-187.14 134.13,-180.1 135.94,-190.54 142.05,-187.14"/>
</g>
<!-- ast.Constant object at 0x7f153ea1bb50 -->
<g id="node16" class="node">
<title>ast.Constant object at 0x7f153ea1bb50</title>
<path fill="#66cdaa" stroke="black" d="M223.1,-180C223.1,-180 182.1,-180 182.1,-180 176.1,-180 170.1,-174 170.1,-168 170.1,-168 170.1,-156 170.1,-156 170.1,-150 176.1,-144 182.1,-144 182.1,-144 223.1,-144 223.1,-144 229.1,-144 235.1,-150 235.1,-156 235.1,-156 235.1,-168 235.1,-168 235.1,-174 229.1,-180 223.1,-180"/>
<text text-anchor="middle" x="202.6" y="-158.3" font-family="Times,serif" font-size="14.00">Constant</text>
</g>
<!-- ast.Compare object at 0x7f153ea1ad40&#45;&gt;ast.Constant object at 0x7f153ea1bb50 -->
<g id="edge17" class="edge">
<title>ast.Compare object at 0x7f153ea1ad40&#45;&gt;ast.Constant object at 0x7f153ea1bb50</title>
<path fill="none" stroke="black" d="M173.24,-215.7C177.73,-207.64 183.16,-197.89 188.12,-188.98"/>
<polygon fill="black" stroke="black" points="191.26,-190.54 193.07,-180.1 185.15,-187.14 191.26,-190.54"/>
</g>
<!-- ast.Name object at 0x7f153ea1ae00 -->
<g id="node13" class="node">
<title>ast.Name object at 0x7f153ea1ae00</title>
<path fill="#66cdaa" stroke="black" d="M70.6,-108C70.6,-108 40.6,-108 40.6,-108 34.6,-108 28.6,-102 28.6,-96 28.6,-96 28.6,-84 28.6,-84 28.6,-78 34.6,-72 40.6,-72 40.6,-72 70.6,-72 70.6,-72 76.6,-72 82.6,-78 82.6,-84 82.6,-84 82.6,-96 82.6,-96 82.6,-102 76.6,-108 70.6,-108"/>
<text text-anchor="middle" x="55.6" y="-86.3" font-family="Times,serif" font-size="14.00">Name</text>
</g>
<!-- ast.Call object at 0x7f153ea1b760&#45;&gt;ast.Name object at 0x7f153ea1ae00 -->
<g id="edge12" class="edge">
<title>ast.Call object at 0x7f153ea1b760&#45;&gt;ast.Name object at 0x7f153ea1ae00</title>
<path fill="none" stroke="black" d="M53.34,-143.7C53.67,-135.98 54.07,-126.71 54.44,-118.11"/>
<polygon fill="black" stroke="black" points="57.94,-118.25 54.87,-108.1 50.94,-117.95 57.94,-118.25"/>
</g>
<!-- ast.Name object at 0x7f153ea1bdc0 -->
<g id="node14" class="node">
<title>ast.Name object at 0x7f153ea1bdc0</title>
<path fill="#66cdaa" stroke="black" d="M148.6,-108C148.6,-108 118.6,-108 118.6,-108 112.6,-108 106.6,-102 106.6,-96 106.6,-96 106.6,-84 106.6,-84 106.6,-78 112.6,-72 118.6,-72 118.6,-72 148.6,-72 148.6,-72 154.6,-72 160.6,-78 160.6,-84 160.6,-84 160.6,-96 160.6,-96 160.6,-102 154.6,-108 148.6,-108"/>
<text text-anchor="middle" x="133.6" y="-86.3" font-family="Times,serif" font-size="14.00">Name</text>
</g>
<!-- ast.Call object at 0x7f153ea1b760&#45;&gt;ast.Name object at 0x7f153ea1bdc0 -->
<g id="edge14" class="edge">
<title>ast.Call object at 0x7f153ea1b760&#45;&gt;ast.Name object at 0x7f153ea1bdc0</title>
<path fill="none" stroke="black" d="M72.62,-143.7C82.73,-134.97 95.14,-124.24 106.12,-114.75"/>
<polygon fill="black" stroke="black" points="108.53,-117.29 113.81,-108.1 103.95,-111.99 108.53,-117.29"/>
</g>
<!-- ast.Name object at 0x7f153ea1ae00&#45;&gt;ast.Load object at 0x7f15b98f1f60 -->
<g id="edge13" class="edge">
<title>ast.Name object at 0x7f153ea1ae00&#45;&gt;ast.Load object at 0x7f15b98f1f60</title>
<path fill="none" stroke="black" d="M83.01,-77.44C87.84,-75.53 92.84,-73.65 97.6,-72 147.46,-54.74 206.23,-38.41 243.45,-28.56"/>
<polygon fill="black" stroke="black" points="244.57,-31.88 253.35,-25.95 242.79,-25.11 244.57,-31.88"/>
</g>
<!-- ast.Name object at 0x7f153ea1bdc0&#45;&gt;ast.Load object at 0x7f15b98f1f60 -->
<g id="edge15" class="edge">
<title>ast.Name object at 0x7f153ea1bdc0&#45;&gt;ast.Load object at 0x7f15b98f1f60</title>
<path fill="none" stroke="black" d="M160.91,-76C184.42,-64.8 218.55,-48.55 244.35,-36.26"/>
<polygon fill="black" stroke="black" points="245.92,-39.39 253.44,-31.93 242.91,-33.07 245.92,-39.39"/>
</g>
<!-- ast.Name object at 0x7f153ea1ae30 -->
<g id="node18" class="node">
<title>ast.Name object at 0x7f153ea1ae30</title>
<path fill="#66cdaa" stroke="black" d="M223.6,-108C223.6,-108 193.6,-108 193.6,-108 187.6,-108 181.6,-102 181.6,-96 181.6,-96 181.6,-84 181.6,-84 181.6,-78 187.6,-72 193.6,-72 193.6,-72 223.6,-72 223.6,-72 229.6,-72 235.6,-78 235.6,-84 235.6,-84 235.6,-96 235.6,-96 235.6,-102 229.6,-108 223.6,-108"/>
<text text-anchor="middle" x="208.6" y="-86.3" font-family="Times,serif" font-size="14.00">Name</text>
</g>
<!-- ast.Call object at 0x7f153ea1b610&#45;&gt;ast.Name object at 0x7f153ea1ae30 -->
<g id="edge19" class="edge">
<title>ast.Call object at 0x7f153ea1b610&#45;&gt;ast.Name object at 0x7f153ea1ae30</title>
<path fill="none" stroke="black" d="M262.8,-143.7C254,-135.14 243.22,-124.66 233.6,-115.3"/>
<polygon fill="black" stroke="black" points="235.8,-112.57 226.19,-108.1 230.92,-117.58 235.8,-112.57"/>
</g>
<!-- ast.Name object at 0x7f153ea1bc70 -->
<g id="node19" class="node">
<title>ast.Name object at 0x7f153ea1bc70</title>
<path fill="#66cdaa" stroke="black" d="M295.6,-108C295.6,-108 265.6,-108 265.6,-108 259.6,-108 253.6,-102 253.6,-96 253.6,-96 253.6,-84 253.6,-84 253.6,-78 259.6,-72 265.6,-72 265.6,-72 295.6,-72 295.6,-72 301.6,-72 307.6,-78 307.6,-84 307.6,-84 307.6,-96 307.6,-96 307.6,-102 301.6,-108 295.6,-108"/>
<text text-anchor="middle" x="280.6" y="-86.3" font-family="Times,serif" font-size="14.00">Name</text>
</g>
<!-- ast.Call object at 0x7f153ea1b610&#45;&gt;ast.Name object at 0x7f153ea1bc70 -->
<g id="edge21" class="edge">
<title>ast.Call object at 0x7f153ea1b610&#45;&gt;ast.Name object at 0x7f153ea1bc70</title>
<path fill="none" stroke="black" d="M280.6,-143.7C280.6,-135.98 280.6,-126.71 280.6,-118.11"/>
<polygon fill="black" stroke="black" points="284.1,-118.1 280.6,-108.1 277.1,-118.1 284.1,-118.1"/>
</g>
<!-- ast.Name object at 0x7f153ea1ae30&#45;&gt;ast.Load object at 0x7f15b98f1f60 -->
<g id="edge20" class="edge">
<title>ast.Name object at 0x7f153ea1ae30&#45;&gt;ast.Load object at 0x7f15b98f1f60</title>
<path fill="none" stroke="black" d="M226.4,-71.7C235.2,-63.14 245.98,-52.66 255.6,-43.3"/>
<polygon fill="black" stroke="black" points="258.28,-45.58 263.01,-36.1 253.4,-40.57 258.28,-45.58"/>
</g>
<!-- ast.Name object at 0x7f153ea1bc70&#45;&gt;ast.Load object at 0x7f15b98f1f60 -->
<g id="edge22" class="edge">
<title>ast.Name object at 0x7f153ea1bc70&#45;&gt;ast.Load object at 0x7f15b98f1f60</title>
<path fill="none" stroke="black" d="M280.6,-71.7C280.6,-63.98 280.6,-54.71 280.6,-46.11"/>
<polygon fill="black" stroke="black" points="284.1,-46.1 280.6,-36.1 277.1,-46.1 284.1,-46.1"/>
</g>
<!-- ast.Name object at 0x7f153ea1b8b0&#45;&gt;ast.Load object at 0x7f15b98f1f60 -->
<g id="edge24" class="edge">
<title>ast.Name object at 0x7f153ea1b8b0&#45;&gt;ast.Load object at 0x7f15b98f1f60</title>
<path fill="none" stroke="black" d="M325.02,-215.53C328.54,-185.37 332.99,-121.97 316.6,-72 313.41,-62.27 307.86,-52.69 302.06,-44.4"/>
<polygon fill="black" stroke="black" points="304.8,-42.22 296.01,-36.29 299.18,-46.4 304.8,-42.22"/>
</g>
<!-- ast.Lambda object at 0x7f153ea1bee0 -->
<g id="node22" class="node">
<title>ast.Lambda object at 0x7f153ea1bee0</title>
<path fill="#66cdaa" stroke="black" d="M423.6,-324C423.6,-324 385.6,-324 385.6,-324 379.6,-324 373.6,-318 373.6,-312 373.6,-312 373.6,-300 373.6,-300 373.6,-294 379.6,-288 385.6,-288 385.6,-288 423.6,-288 423.6,-288 429.6,-288 435.6,-294 435.6,-300 435.6,-300 435.6,-312 435.6,-312 435.6,-318 429.6,-324 423.6,-324"/>
<text text-anchor="middle" x="404.6" y="-302.3" font-family="Times,serif" font-size="14.00">Lambda</text>
</g>
<!-- ast.keyword object at 0x7f153ea1bf40&#45;&gt;ast.Lambda object at 0x7f153ea1bee0 -->
<g id="edge26" class="edge">
<title>ast.keyword object at 0x7f153ea1bf40&#45;&gt;ast.Lambda object at 0x7f153ea1bee0</title>
<path fill="none" stroke="black" d="M396.32,-359.7C397.53,-351.98 398.99,-342.71 400.34,-334.11"/>
<polygon fill="black" stroke="black" points="403.82,-334.53 401.91,-324.1 396.9,-333.44 403.82,-334.53"/>
</g>
<!-- ast.arguments object at 0x7f153ea1bdf0 -->
<g id="node23" class="node">
<title>ast.arguments object at 0x7f153ea1bdf0</title>
<path fill="#66cdaa" stroke="black" d="M429.6,-252C429.6,-252 379.6,-252 379.6,-252 373.6,-252 367.6,-246 367.6,-240 367.6,-240 367.6,-228 367.6,-228 367.6,-222 373.6,-216 379.6,-216 379.6,-216 429.6,-216 429.6,-216 435.6,-216 441.6,-222 441.6,-228 441.6,-228 441.6,-240 441.6,-240 441.6,-246 435.6,-252 429.6,-252"/>
<text text-anchor="middle" x="404.6" y="-230.3" font-family="Times,serif" font-size="14.00">arguments</text>
</g>
<!-- ast.Lambda object at 0x7f153ea1bee0&#45;&gt;ast.arguments object at 0x7f153ea1bdf0 -->
<g id="edge27" class="edge">
<title>ast.Lambda object at 0x7f153ea1bee0&#45;&gt;ast.arguments object at 0x7f153ea1bdf0</title>
<path fill="none" stroke="black" d="M404.6,-287.7C404.6,-279.98 404.6,-270.71 404.6,-262.11"/>
<polygon fill="black" stroke="black" points="408.1,-262.1 404.6,-252.1 401.1,-262.1 408.1,-262.1"/>
</g>
<!-- ast.UnaryOp object at 0x7f153ea1bb20 -->
<g id="node25" class="node">
<title>ast.UnaryOp object at 0x7f153ea1bb20</title>
<path fill="#66cdaa" stroke="black" d="M515.1,-252C515.1,-252 472.1,-252 472.1,-252 466.1,-252 460.1,-246 460.1,-240 460.1,-240 460.1,-228 460.1,-228 460.1,-222 466.1,-216 472.1,-216 472.1,-216 515.1,-216 515.1,-216 521.1,-216 527.1,-222 527.1,-228 527.1,-228 527.1,-240 527.1,-240 527.1,-246 521.1,-252 515.1,-252"/>
<text text-anchor="middle" x="493.6" y="-230.3" font-family="Times,serif" font-size="14.00">UnaryOp</text>
</g>
<!-- ast.Lambda object at 0x7f153ea1bee0&#45;&gt;ast.UnaryOp object at 0x7f153ea1bb20 -->
<g id="edge29" class="edge">
<title>ast.Lambda object at 0x7f153ea1bee0&#45;&gt;ast.UnaryOp object at 0x7f153ea1bb20</title>
<path fill="none" stroke="black" d="M426.6,-287.7C437.81,-278.88 451.6,-268.03 463.75,-258.47"/>
<polygon fill="black" stroke="black" points="466.16,-261.04 471.85,-252.1 461.83,-255.54 466.16,-261.04"/>
</g>
<!-- ast.arg object at 0x7f153ea1bd30 -->
<g id="node24" class="node">
<title>ast.arg object at 0x7f153ea1bd30</title>
<path fill="#66cdaa" stroke="black" d="M405.6,-180C405.6,-180 375.6,-180 375.6,-180 369.6,-180 363.6,-174 363.6,-168 363.6,-168 363.6,-156 363.6,-156 363.6,-150 369.6,-144 375.6,-144 375.6,-144 405.6,-144 405.6,-144 411.6,-144 417.6,-150 417.6,-156 417.6,-156 417.6,-168 417.6,-168 417.6,-174 411.6,-180 405.6,-180"/>
<text text-anchor="middle" x="390.6" y="-158.3" font-family="Times,serif" font-size="14.00">arg</text>
</g>
<!-- ast.arguments object at 0x7f153ea1bdf0&#45;&gt;ast.arg object at 0x7f153ea1bd30 -->
<g id="edge28" class="edge">
<title>ast.arguments object at 0x7f153ea1bdf0&#45;&gt;ast.arg object at 0x7f153ea1bd30</title>
<path fill="none" stroke="black" d="M401.14,-215.7C399.6,-207.98 397.74,-198.71 396.02,-190.11"/>
<polygon fill="black" stroke="black" points="399.41,-189.22 394.02,-180.1 392.55,-190.6 399.41,-189.22"/>
</g>
<!-- ast.USub object at 0x7f15b98f2800 -->
<g id="node26" class="node">
<title>ast.USub object at 0x7f15b98f2800</title>
<path fill="#66cdaa" stroke="black" d="M477.6,-180C477.6,-180 447.6,-180 447.6,-180 441.6,-180 435.6,-174 435.6,-168 435.6,-168 435.6,-156 435.6,-156 435.6,-150 441.6,-144 447.6,-144 447.6,-144 477.6,-144 477.6,-144 483.6,-144 489.6,-150 489.6,-156 489.6,-156 489.6,-168 489.6,-168 489.6,-174 483.6,-180 477.6,-180"/>
<text text-anchor="middle" x="462.6" y="-158.3" font-family="Times,serif" font-size="14.00">USub</text>
</g>
<!-- ast.UnaryOp object at 0x7f153ea1bb20&#45;&gt;ast.USub object at 0x7f15b98f2800 -->
<g id="edge30" class="edge">
<title>ast.UnaryOp object at 0x7f153ea1bb20&#45;&gt;ast.USub object at 0x7f15b98f2800</title>
<path fill="none" stroke="black" d="M485.94,-215.7C482.41,-207.73 478.14,-198.1 474.23,-189.26"/>
<polygon fill="black" stroke="black" points="477.42,-187.83 470.17,-180.1 471.02,-190.67 477.42,-187.83"/>
</g>
<!-- ast.Call object at 0x7f153ea1b7f0 -->
<g id="node27" class="node">
<title>ast.Call object at 0x7f153ea1b7f0</title>
<path fill="#66cdaa" stroke="black" d="M549.6,-180C549.6,-180 519.6,-180 519.6,-180 513.6,-180 507.6,-174 507.6,-168 507.6,-168 507.6,-156 507.6,-156 507.6,-150 513.6,-144 519.6,-144 519.6,-144 549.6,-144 549.6,-144 555.6,-144 561.6,-150 561.6,-156 561.6,-156 561.6,-168 561.6,-168 561.6,-174 555.6,-180 549.6,-180"/>
<text text-anchor="middle" x="534.6" y="-158.3" font-family="Times,serif" font-size="14.00">Call</text>
</g>
<!-- ast.UnaryOp object at 0x7f153ea1bb20&#45;&gt;ast.Call object at 0x7f153ea1b7f0 -->
<g id="edge31" class="edge">
<title>ast.UnaryOp object at 0x7f153ea1bb20&#45;&gt;ast.Call object at 0x7f153ea1b7f0</title>
<path fill="none" stroke="black" d="M503.73,-215.7C508.45,-207.64 514.16,-197.89 519.38,-188.98"/>
<polygon fill="black" stroke="black" points="522.55,-190.5 524.58,-180.1 516.51,-186.96 522.55,-190.5"/>
</g>
<!-- ast.Name object at 0x7f153ea1bd60 -->
<g id="node28" class="node">
<title>ast.Name object at 0x7f153ea1bd60</title>
<path fill="#66cdaa" stroke="black" d="M423.6,-108C423.6,-108 393.6,-108 393.6,-108 387.6,-108 381.6,-102 381.6,-96 381.6,-96 381.6,-84 381.6,-84 381.6,-78 387.6,-72 393.6,-72 393.6,-72 423.6,-72 423.6,-72 429.6,-72 435.6,-78 435.6,-84 435.6,-84 435.6,-96 435.6,-96 435.6,-102 429.6,-108 423.6,-108"/>
<text text-anchor="middle" x="408.6" y="-86.3" font-family="Times,serif" font-size="14.00">Name</text>
</g>
<!-- ast.Call object at 0x7f153ea1b7f0&#45;&gt;ast.Name object at 0x7f153ea1bd60 -->
<g id="edge32" class="edge">
<title>ast.Call object at 0x7f153ea1b7f0&#45;&gt;ast.Name object at 0x7f153ea1bd60</title>
<path fill="none" stroke="black" d="M507.57,-145.98C489.26,-135.81 464.85,-122.25 444.86,-111.14"/>
<polygon fill="black" stroke="black" points="446.46,-108.03 436.02,-106.23 443.06,-114.15 446.46,-108.03"/>
</g>
<!-- ast.Name object at 0x7f153ea1bd90 -->
<g id="node29" class="node">
<title>ast.Name object at 0x7f153ea1bd90</title>
<path fill="#66cdaa" stroke="black" d="M531.6,-108C531.6,-108 501.6,-108 501.6,-108 495.6,-108 489.6,-102 489.6,-96 489.6,-96 489.6,-84 489.6,-84 489.6,-78 495.6,-72 501.6,-72 501.6,-72 531.6,-72 531.6,-72 537.6,-72 543.6,-78 543.6,-84 543.6,-84 543.6,-96 543.6,-96 543.6,-102 537.6,-108 531.6,-108"/>
<text text-anchor="middle" x="516.6" y="-86.3" font-family="Times,serif" font-size="14.00">Name</text>
</g>
<!-- ast.Call object at 0x7f153ea1b7f0&#45;&gt;ast.Name object at 0x7f153ea1bd90 -->
<g id="edge34" class="edge">
<title>ast.Call object at 0x7f153ea1b7f0&#45;&gt;ast.Name object at 0x7f153ea1bd90</title>
<path fill="none" stroke="black" d="M530.15,-143.7C528.15,-135.9 525.73,-126.51 523.5,-117.83"/>
<polygon fill="black" stroke="black" points="526.88,-116.92 521,-108.1 520.1,-118.66 526.88,-116.92"/>
</g>
<!-- ast.Name object at 0x7f153ea1bd60&#45;&gt;ast.Load object at 0x7f15b98f1f60 -->
<g id="edge33" class="edge">
<title>ast.Name object at 0x7f153ea1bd60&#45;&gt;ast.Load object at 0x7f15b98f1f60</title>
<path fill="none" stroke="black" d="M381.45,-74.15C362.53,-63.81 337.09,-49.89 316.49,-38.63"/>
<polygon fill="black" stroke="black" points="318.16,-35.55 307.71,-33.82 314.8,-41.69 318.16,-35.55"/>
</g>
<!-- ast.Name object at 0x7f153ea1bd90&#45;&gt;ast.Load object at 0x7f15b98f1f60 -->
<g id="edge35" class="edge">
<title>ast.Name object at 0x7f153ea1bd90&#45;&gt;ast.Load object at 0x7f15b98f1f60</title>
<path fill="none" stroke="black" d="M489.53,-80.97C447.14,-68.4 365.03,-44.04 317.35,-29.9"/>
<polygon fill="black" stroke="black" points="318.3,-26.53 307.72,-27.04 316.31,-33.24 318.3,-26.53"/>
</g>
<!-- ast.Constant object at 0x7f153ea1b940 -->
<g id="node31" class="node">
<title>ast.Constant object at 0x7f153ea1b940</title>
<path fill="#66cdaa" stroke="black" d="M671.1,-396C671.1,-396 630.1,-396 630.1,-396 624.1,-396 618.1,-390 618.1,-384 618.1,-384 618.1,-372 618.1,-372 618.1,-366 624.1,-360 630.1,-360 630.1,-360 671.1,-360 671.1,-360 677.1,-360 683.1,-366 683.1,-372 683.1,-372 683.1,-384 683.1,-384 683.1,-390 677.1,-396 671.1,-396"/>
<text text-anchor="middle" x="650.6" y="-374.3" font-family="Times,serif" font-size="14.00">Constant</text>
</g>
<!-- ast.Slice object at 0x7f153ea1bd00&#45;&gt;ast.Constant object at 0x7f153ea1b940 -->
<g id="edge37" class="edge">
<title>ast.Slice object at 0x7f153ea1bd00&#45;&gt;ast.Constant object at 0x7f153ea1b940</title>
<path fill="none" stroke="black" d="M648.34,-431.7C648.67,-423.98 649.07,-414.71 649.44,-406.11"/>
<polygon fill="black" stroke="black" points="652.94,-406.25 649.87,-396.1 645.94,-405.95 652.94,-406.25"/>
</g>
</g>
</svg>
