<?xml version="1.0" encoding="UTF-8" standalone="no"?>
<!DOCTYPE svg PUBLIC "-//W3C//DTD SVG 1.1//EN"
 "http://www.w3.org/Graphics/SVG/1.1/DTD/svg11.dtd">
<!-- Generated by graphviz version 2.43.0 (0)
 -->
<!-- Title: %3 Pages: 1 -->
<svg width="662pt" height="692pt"
 viewBox="0.00 0.00 661.50 692.00" xmlns="http://www.w3.org/2000/svg" xmlns:xlink="http://www.w3.org/1999/xlink">
<g id="graph0" class="graph" transform="scale(1 1) rotate(0) translate(4 688)">
<title>%3</title>
<polygon fill="white" stroke="transparent" points="-4,4 -4,-688 657.5,-688 657.5,4 -4,4"/>
<!-- ast.Module object at 0x7f0ee264a3e0 -->
<g id="node1" class="node">
<title>ast.Module object at 0x7f0ee264a3e0</title>
<path fill="#66cdaa" stroke="black" d="M172.5,-684C172.5,-684 137.5,-684 137.5,-684 131.5,-684 125.5,-678 125.5,-672 125.5,-672 125.5,-660 125.5,-660 125.5,-654 131.5,-648 137.5,-648 137.5,-648 172.5,-648 172.5,-648 178.5,-648 184.5,-654 184.5,-660 184.5,-660 184.5,-672 184.5,-672 184.5,-678 178.5,-684 172.5,-684"/>
<text text-anchor="middle" x="155" y="-662.3" font-family="Times,serif" font-size="14.00">Module</text>
</g>
<!-- ast.FunctionDef object at 0x7f0ee2649ff0 -->
<g id="node2" class="node">
<title>ast.FunctionDef object at 0x7f0ee2649ff0</title>
<path fill="#66cdaa" stroke="black" d="M185.5,-612C185.5,-612 124.5,-612 124.5,-612 118.5,-612 112.5,-606 112.5,-600 112.5,-600 112.5,-588 112.5,-588 112.5,-582 118.5,-576 124.5,-576 124.5,-576 185.5,-576 185.5,-576 191.5,-576 197.5,-582 197.5,-588 197.5,-588 197.5,-600 197.5,-600 197.5,-606 191.5,-612 185.5,-612"/>
<text text-anchor="middle" x="155" y="-590.3" font-family="Times,serif" font-size="14.00">FunctionDef</text>
</g>
<!-- ast.Module object at 0x7f0ee264a3e0&#45;&gt;ast.FunctionDef object at 0x7f0ee2649ff0 -->
<g id="edge1" class="edge">
<title>ast.Module object at 0x7f0ee264a3e0&#45;&gt;ast.FunctionDef object at 0x7f0ee2649ff0</title>
<path fill="none" stroke="black" d="M155,-647.7C155,-639.98 155,-630.71 155,-622.11"/>
<polygon fill="black" stroke="black" points="158.5,-622.1 155,-612.1 151.5,-622.1 158.5,-622.1"/>
</g>
<!-- ast.arguments object at 0x7f0ee2648670 -->
<g id="node3" class="node">
<title>ast.arguments object at 0x7f0ee2648670</title>
<path fill="#66cdaa" stroke="black" d="M83,-540C83,-540 33,-540 33,-540 27,-540 21,-534 21,-528 21,-528 21,-516 21,-516 21,-510 27,-504 33,-504 33,-504 83,-504 83,-504 89,-504 95,-510 95,-516 95,-516 95,-528 95,-528 95,-534 89,-540 83,-540"/>
<text text-anchor="middle" x="58" y="-518.3" font-family="Times,serif" font-size="14.00">arguments</text>
</g>
<!-- ast.FunctionDef object at 0x7f0ee2649ff0&#45;&gt;ast.arguments object at 0x7f0ee2648670 -->
<g id="edge2" class="edge">
<title>ast.FunctionDef object at 0x7f0ee2649ff0&#45;&gt;ast.arguments object at 0x7f0ee2648670</title>
<path fill="none" stroke="black" d="M131.02,-575.7C118.69,-566.8 103.48,-555.82 90.15,-546.2"/>
<polygon fill="black" stroke="black" points="91.86,-543.12 81.7,-540.1 87.76,-548.79 91.86,-543.12"/>
</g>
<!-- ast.Assign object at 0x7f0ee2648eb0 -->
<g id="node5" class="node">
<title>ast.Assign object at 0x7f0ee2648eb0</title>
<path fill="#66cdaa" stroke="black" d="M170,-540C170,-540 140,-540 140,-540 134,-540 128,-534 128,-528 128,-528 128,-516 128,-516 128,-510 134,-504 140,-504 140,-504 170,-504 170,-504 176,-504 182,-510 182,-516 182,-516 182,-528 182,-528 182,-534 176,-540 170,-540"/>
<text text-anchor="middle" x="155" y="-518.3" font-family="Times,serif" font-size="14.00">Assign</text>
</g>
<!-- ast.FunctionDef object at 0x7f0ee2649ff0&#45;&gt;ast.Assign object at 0x7f0ee2648eb0 -->
<g id="edge4" class="edge">
<title>ast.FunctionDef object at 0x7f0ee2649ff0&#45;&gt;ast.Assign object at 0x7f0ee2648eb0</title>
<path fill="none" stroke="black" d="M155,-575.7C155,-567.98 155,-558.71 155,-550.11"/>
<polygon fill="black" stroke="black" points="158.5,-550.1 155,-540.1 151.5,-550.1 158.5,-550.1"/>
</g>
<!-- ast.Return object at 0x7f0ee264aa10 -->
<g id="node23" class="node">
<title>ast.Return object at 0x7f0ee264aa10</title>
<path fill="#66cdaa" stroke="black" d="M286,-540C286,-540 256,-540 256,-540 250,-540 244,-534 244,-528 244,-528 244,-516 244,-516 244,-510 250,-504 256,-504 256,-504 286,-504 286,-504 292,-504 298,-510 298,-516 298,-516 298,-528 298,-528 298,-534 292,-540 286,-540"/>
<text text-anchor="middle" x="271" y="-518.3" font-family="Times,serif" font-size="14.00">Return</text>
</g>
<!-- ast.FunctionDef object at 0x7f0ee2649ff0&#45;&gt;ast.Return object at 0x7f0ee264aa10 -->
<g id="edge27" class="edge">
<title>ast.FunctionDef object at 0x7f0ee2649ff0&#45;&gt;ast.Return object at 0x7f0ee264aa10</title>
<path fill="none" stroke="black" d="M183.38,-575.88C198.88,-566.52 218.25,-554.83 234.83,-544.83"/>
<polygon fill="black" stroke="black" points="236.96,-547.63 243.71,-539.47 233.34,-541.64 236.96,-547.63"/>
</g>
<!-- ast.arg object at 0x7f0ee26484f0 -->
<g id="node4" class="node">
<title>ast.arg object at 0x7f0ee26484f0</title>
<path fill="#66cdaa" stroke="black" d="M42,-468C42,-468 12,-468 12,-468 6,-468 0,-462 0,-456 0,-456 0,-444 0,-444 0,-438 6,-432 12,-432 12,-432 42,-432 42,-432 48,-432 54,-438 54,-444 54,-444 54,-456 54,-456 54,-462 48,-468 42,-468"/>
<text text-anchor="middle" x="27" y="-446.3" font-family="Times,serif" font-size="14.00">arg</text>
</g>
<!-- ast.arguments object at 0x7f0ee2648670&#45;&gt;ast.arg object at 0x7f0ee26484f0 -->
<g id="edge3" class="edge">
<title>ast.arguments object at 0x7f0ee2648670&#45;&gt;ast.arg object at 0x7f0ee26484f0</title>
<path fill="none" stroke="black" d="M50.34,-503.7C46.81,-495.73 42.54,-486.1 38.63,-477.26"/>
<polygon fill="black" stroke="black" points="41.82,-475.83 34.57,-468.1 35.42,-478.67 41.82,-475.83"/>
</g>
<!-- ast.Name object at 0x7f0ee264bf40 -->
<g id="node6" class="node">
<title>ast.Name object at 0x7f0ee264bf40</title>
<path fill="#66cdaa" stroke="black" d="M114,-468C114,-468 84,-468 84,-468 78,-468 72,-462 72,-456 72,-456 72,-444 72,-444 72,-438 78,-432 84,-432 84,-432 114,-432 114,-432 120,-432 126,-438 126,-444 126,-444 126,-456 126,-456 126,-462 120,-468 114,-468"/>
<text text-anchor="middle" x="99" y="-446.3" font-family="Times,serif" font-size="14.00">Name</text>
</g>
<!-- ast.Assign object at 0x7f0ee2648eb0&#45;&gt;ast.Name object at 0x7f0ee264bf40 -->
<g id="edge5" class="edge">
<title>ast.Assign object at 0x7f0ee2648eb0&#45;&gt;ast.Name object at 0x7f0ee264bf40</title>
<path fill="none" stroke="black" d="M141.16,-503.7C134.51,-495.39 126.42,-485.28 119.11,-476.14"/>
<polygon fill="black" stroke="black" points="121.66,-473.73 112.68,-468.1 116.2,-478.1 121.66,-473.73"/>
</g>
<!-- ast.Call object at 0x7f0ee264b2b0 -->
<g id="node8" class="node">
<title>ast.Call object at 0x7f0ee264b2b0</title>
<path fill="#66cdaa" stroke="black" d="M186,-468C186,-468 156,-468 156,-468 150,-468 144,-462 144,-456 144,-456 144,-444 144,-444 144,-438 150,-432 156,-432 156,-432 186,-432 186,-432 192,-432 198,-438 198,-444 198,-444 198,-456 198,-456 198,-462 192,-468 186,-468"/>
<text text-anchor="middle" x="171" y="-446.3" font-family="Times,serif" font-size="14.00">Call</text>
</g>
<!-- ast.Assign object at 0x7f0ee2648eb0&#45;&gt;ast.Call object at 0x7f0ee264b2b0 -->
<g id="edge7" class="edge">
<title>ast.Assign object at 0x7f0ee2648eb0&#45;&gt;ast.Call object at 0x7f0ee264b2b0</title>
<path fill="none" stroke="black" d="M158.96,-503.7C160.72,-495.98 162.84,-486.71 164.8,-478.11"/>
<polygon fill="black" stroke="black" points="168.27,-478.63 167.09,-468.1 161.45,-477.07 168.27,-478.63"/>
</g>
<!-- ast.Store object at 0x7f0ee65edfc0 -->
<g id="node7" class="node">
<title>ast.Store object at 0x7f0ee65edfc0</title>
<path fill="#66cdaa" stroke="black" d="M59,-396C59,-396 29,-396 29,-396 23,-396 17,-390 17,-384 17,-384 17,-372 17,-372 17,-366 23,-360 29,-360 29,-360 59,-360 59,-360 65,-360 71,-366 71,-372 71,-372 71,-384 71,-384 71,-390 65,-396 59,-396"/>
<text text-anchor="middle" x="44" y="-374.3" font-family="Times,serif" font-size="14.00">Store</text>
</g>
<!-- ast.Name object at 0x7f0ee264bf40&#45;&gt;ast.Store object at 0x7f0ee65edfc0 -->
<g id="edge6" class="edge">
<title>ast.Name object at 0x7f0ee264bf40&#45;&gt;ast.Store object at 0x7f0ee65edfc0</title>
<path fill="none" stroke="black" d="M85.4,-431.7C78.88,-423.39 70.93,-413.28 63.75,-404.14"/>
<polygon fill="black" stroke="black" points="66.37,-401.81 57.44,-396.1 60.87,-406.13 66.37,-401.81"/>
</g>
<!-- ast.Name object at 0x7f0ee2648c10 -->
<g id="node9" class="node">
<title>ast.Name object at 0x7f0ee2648c10</title>
<path fill="#66cdaa" stroke="black" d="M131,-396C131,-396 101,-396 101,-396 95,-396 89,-390 89,-384 89,-384 89,-372 89,-372 89,-366 95,-360 101,-360 101,-360 131,-360 131,-360 137,-360 143,-366 143,-372 143,-372 143,-384 143,-384 143,-390 137,-396 131,-396"/>
<text text-anchor="middle" x="116" y="-374.3" font-family="Times,serif" font-size="14.00">Name</text>
</g>
<!-- ast.Call object at 0x7f0ee264b2b0&#45;&gt;ast.Name object at 0x7f0ee2648c10 -->
<g id="edge8" class="edge">
<title>ast.Call object at 0x7f0ee264b2b0&#45;&gt;ast.Name object at 0x7f0ee2648c10</title>
<path fill="none" stroke="black" d="M157.4,-431.7C150.88,-423.39 142.93,-413.28 135.75,-404.14"/>
<polygon fill="black" stroke="black" points="138.37,-401.81 129.44,-396.1 132.87,-406.13 138.37,-401.81"/>
</g>
<!-- ast.Call object at 0x7f0ee2648f10 -->
<g id="node11" class="node">
<title>ast.Call object at 0x7f0ee2648f10</title>
<path fill="#66cdaa" stroke="black" d="M180,-324C180,-324 150,-324 150,-324 144,-324 138,-318 138,-312 138,-312 138,-300 138,-300 138,-294 144,-288 150,-288 150,-288 180,-288 180,-288 186,-288 192,-294 192,-300 192,-300 192,-312 192,-312 192,-318 186,-324 180,-324"/>
<text text-anchor="middle" x="165" y="-302.3" font-family="Times,serif" font-size="14.00">Call</text>
</g>
<!-- ast.Call object at 0x7f0ee264b2b0&#45;&gt;ast.Call object at 0x7f0ee2648f10 -->
<g id="edge10" class="edge">
<title>ast.Call object at 0x7f0ee264b2b0&#45;&gt;ast.Call object at 0x7f0ee2648f10</title>
<path fill="none" stroke="black" d="M170.28,-431.87C169.25,-407.67 167.38,-363.21 166.16,-334.39"/>
<polygon fill="black" stroke="black" points="169.65,-334.03 165.73,-324.19 162.65,-334.33 169.65,-334.03"/>
</g>
<!-- ast.keyword object at 0x7f0ee26482b0 -->
<g id="node16" class="node">
<title>ast.keyword object at 0x7f0ee26482b0</title>
<path fill="#66cdaa" stroke="black" d="M258,-396C258,-396 218,-396 218,-396 212,-396 206,-390 206,-384 206,-384 206,-372 206,-372 206,-366 212,-360 218,-360 218,-360 258,-360 258,-360 264,-360 270,-366 270,-372 270,-372 270,-384 270,-384 270,-390 264,-396 258,-396"/>
<text text-anchor="middle" x="238" y="-374.3" font-family="Times,serif" font-size="14.00">keyword</text>
</g>
<!-- ast.Call object at 0x7f0ee264b2b0&#45;&gt;ast.keyword object at 0x7f0ee26482b0 -->
<g id="edge18" class="edge">
<title>ast.Call object at 0x7f0ee264b2b0&#45;&gt;ast.keyword object at 0x7f0ee26482b0</title>
<path fill="none" stroke="black" d="M187.56,-431.7C195.68,-423.22 205.59,-412.86 214.47,-403.58"/>
<polygon fill="black" stroke="black" points="217.24,-405.75 221.63,-396.1 212.19,-400.91 217.24,-405.75"/>
</g>
<!-- ast.Load object at 0x7f0ee65edf60 -->
<g id="node10" class="node">
<title>ast.Load object at 0x7f0ee65edf60</title>
<path fill="#66cdaa" stroke="black" d="M271,-108C271,-108 241,-108 241,-108 235,-108 229,-102 229,-96 229,-96 229,-84 229,-84 229,-78 235,-72 241,-72 241,-72 271,-72 271,-72 277,-72 283,-78 283,-84 283,-84 283,-96 283,-96 283,-102 277,-108 271,-108"/>
<text text-anchor="middle" x="256" y="-86.3" font-family="Times,serif" font-size="14.00">Load</text>
</g>
<!-- ast.Name object at 0x7f0ee2648c10&#45;&gt;ast.Load object at 0x7f0ee65edf60 -->
<g id="edge9" class="edge">
<title>ast.Name object at 0x7f0ee2648c10&#45;&gt;ast.Load object at 0x7f0ee65edf60</title>
<path fill="none" stroke="black" d="M103.09,-359.96C86.52,-336.93 58.66,-293.9 48,-252 36.04,-204.97 30.57,-179.17 64,-144 104.28,-101.63 175.09,-92.11 218.54,-90.53"/>
<polygon fill="black" stroke="black" points="218.79,-94.02 228.7,-90.28 218.62,-87.02 218.79,-94.02"/>
</g>
<!-- ast.Name object at 0x7f0ee2649060 -->
<g id="node12" class="node">
<title>ast.Name object at 0x7f0ee2649060</title>
<path fill="#66cdaa" stroke="black" d="M99,-252C99,-252 69,-252 69,-252 63,-252 57,-246 57,-240 57,-240 57,-228 57,-228 57,-222 63,-216 69,-216 69,-216 99,-216 99,-216 105,-216 111,-222 111,-228 111,-228 111,-240 111,-240 111,-246 105,-252 99,-252"/>
<text text-anchor="middle" x="84" y="-230.3" font-family="Times,serif" font-size="14.00">Name</text>
</g>
<!-- ast.Call object at 0x7f0ee2648f10&#45;&gt;ast.Name object at 0x7f0ee2649060 -->
<g id="edge11" class="edge">
<title>ast.Call object at 0x7f0ee2648f10&#45;&gt;ast.Name object at 0x7f0ee2649060</title>
<path fill="none" stroke="black" d="M144.98,-287.7C134.87,-278.97 122.46,-268.24 111.48,-258.75"/>
<polygon fill="black" stroke="black" points="113.65,-255.99 103.79,-252.1 109.07,-261.29 113.65,-255.99"/>
</g>
<!-- ast.Call object at 0x7f0ee2648940 -->
<g id="node13" class="node">
<title>ast.Call object at 0x7f0ee2648940</title>
<path fill="#66cdaa" stroke="black" d="M180,-252C180,-252 150,-252 150,-252 144,-252 138,-246 138,-240 138,-240 138,-228 138,-228 138,-222 144,-216 150,-216 150,-216 180,-216 180,-216 186,-216 192,-222 192,-228 192,-228 192,-240 192,-240 192,-246 186,-252 180,-252"/>
<text text-anchor="middle" x="165" y="-230.3" font-family="Times,serif" font-size="14.00">Call</text>
</g>
<!-- ast.Call object at 0x7f0ee2648f10&#45;&gt;ast.Call object at 0x7f0ee2648940 -->
<g id="edge13" class="edge">
<title>ast.Call object at 0x7f0ee2648f10&#45;&gt;ast.Call object at 0x7f0ee2648940</title>
<path fill="none" stroke="black" d="M165,-287.7C165,-279.98 165,-270.71 165,-262.11"/>
<polygon fill="black" stroke="black" points="168.5,-262.1 165,-252.1 161.5,-262.1 168.5,-262.1"/>
</g>
<!-- ast.Name object at 0x7f0ee2649060&#45;&gt;ast.Load object at 0x7f0ee65edf60 -->
<g id="edge12" class="edge">
<title>ast.Name object at 0x7f0ee2649060&#45;&gt;ast.Load object at 0x7f0ee65edf60</title>
<path fill="none" stroke="black" d="M76.14,-215.73C68.61,-196.3 60.48,-164.75 76,-144 93.13,-121.09 171.47,-104.67 218.97,-96.62"/>
<polygon fill="black" stroke="black" points="219.6,-100.06 228.89,-94.98 218.46,-93.16 219.6,-100.06"/>
</g>
<!-- ast.Name object at 0x7f0ee264a7a0 -->
<g id="node14" class="node">
<title>ast.Name object at 0x7f0ee264a7a0</title>
<path fill="#66cdaa" stroke="black" d="M127,-180C127,-180 97,-180 97,-180 91,-180 85,-174 85,-168 85,-168 85,-156 85,-156 85,-150 91,-144 97,-144 97,-144 127,-144 127,-144 133,-144 139,-150 139,-156 139,-156 139,-168 139,-168 139,-174 133,-180 127,-180"/>
<text text-anchor="middle" x="112" y="-158.3" font-family="Times,serif" font-size="14.00">Name</text>
</g>
<!-- ast.Call object at 0x7f0ee2648940&#45;&gt;ast.Name object at 0x7f0ee264a7a0 -->
<g id="edge14" class="edge">
<title>ast.Call object at 0x7f0ee2648940&#45;&gt;ast.Name object at 0x7f0ee264a7a0</title>
<path fill="none" stroke="black" d="M151.9,-215.7C145.61,-207.39 137.95,-197.28 131.04,-188.14"/>
<polygon fill="black" stroke="black" points="133.78,-185.96 124.95,-180.1 128.2,-190.19 133.78,-185.96"/>
</g>
<!-- ast.Name object at 0x7f0ee2648c70 -->
<g id="node15" class="node">
<title>ast.Name object at 0x7f0ee2648c70</title>
<path fill="#66cdaa" stroke="black" d="M199,-180C199,-180 169,-180 169,-180 163,-180 157,-174 157,-168 157,-168 157,-156 157,-156 157,-150 163,-144 169,-144 169,-144 199,-144 199,-144 205,-144 211,-150 211,-156 211,-156 211,-168 211,-168 211,-174 205,-180 199,-180"/>
<text text-anchor="middle" x="184" y="-158.3" font-family="Times,serif" font-size="14.00">Name</text>
</g>
<!-- ast.Call object at 0x7f0ee2648940&#45;&gt;ast.Name object at 0x7f0ee2648c70 -->
<g id="edge16" class="edge">
<title>ast.Call object at 0x7f0ee2648940&#45;&gt;ast.Name object at 0x7f0ee2648c70</title>
<path fill="none" stroke="black" d="M169.7,-215.7C171.81,-207.9 174.36,-198.51 176.72,-189.83"/>
<polygon fill="black" stroke="black" points="180.12,-190.67 179.36,-180.1 173.36,-188.84 180.12,-190.67"/>
</g>
<!-- ast.Name object at 0x7f0ee264a7a0&#45;&gt;ast.Load object at 0x7f0ee65edf60 -->
<g id="edge15" class="edge">
<title>ast.Name object at 0x7f0ee264a7a0&#45;&gt;ast.Load object at 0x7f0ee65edf60</title>
<path fill="none" stroke="black" d="M139.09,-147.83C161.77,-136.81 194.36,-120.97 219.37,-108.81"/>
<polygon fill="black" stroke="black" points="221.08,-111.87 228.55,-104.35 218.02,-105.57 221.08,-111.87"/>
</g>
<!-- ast.Name object at 0x7f0ee2648c70&#45;&gt;ast.Load object at 0x7f0ee65edf60 -->
<g id="edge17" class="edge">
<title>ast.Name object at 0x7f0ee2648c70&#45;&gt;ast.Load object at 0x7f0ee65edf60</title>
<path fill="none" stroke="black" d="M201.8,-143.7C210.6,-135.14 221.38,-124.66 231,-115.3"/>
<polygon fill="black" stroke="black" points="233.68,-117.58 238.41,-108.1 228.8,-112.57 233.68,-117.58"/>
</g>
<!-- ast.Lambda object at 0x7f0ee26485e0 -->
<g id="node17" class="node">
<title>ast.Lambda object at 0x7f0ee26485e0</title>
<path fill="#66cdaa" stroke="black" d="M270,-324C270,-324 232,-324 232,-324 226,-324 220,-318 220,-312 220,-312 220,-300 220,-300 220,-294 226,-288 232,-288 232,-288 270,-288 270,-288 276,-288 282,-294 282,-300 282,-300 282,-312 282,-312 282,-318 276,-324 270,-324"/>
<text text-anchor="middle" x="251" y="-302.3" font-family="Times,serif" font-size="14.00">Lambda</text>
</g>
<!-- ast.keyword object at 0x7f0ee26482b0&#45;&gt;ast.Lambda object at 0x7f0ee26485e0 -->
<g id="edge19" class="edge">
<title>ast.keyword object at 0x7f0ee26482b0&#45;&gt;ast.Lambda object at 0x7f0ee26485e0</title>
<path fill="none" stroke="black" d="M241.21,-359.7C242.65,-351.98 244.37,-342.71 245.96,-334.11"/>
<polygon fill="black" stroke="black" points="249.44,-334.58 247.82,-324.1 242.56,-333.3 249.44,-334.58"/>
</g>
<!-- ast.arguments object at 0x7f0ee2648d60 -->
<g id="node18" class="node">
<title>ast.arguments object at 0x7f0ee2648d60</title>
<path fill="#66cdaa" stroke="black" d="M276,-252C276,-252 226,-252 226,-252 220,-252 214,-246 214,-240 214,-240 214,-228 214,-228 214,-222 220,-216 226,-216 226,-216 276,-216 276,-216 282,-216 288,-222 288,-228 288,-228 288,-240 288,-240 288,-246 282,-252 276,-252"/>
<text text-anchor="middle" x="251" y="-230.3" font-family="Times,serif" font-size="14.00">arguments</text>
</g>
<!-- ast.Lambda object at 0x7f0ee26485e0&#45;&gt;ast.arguments object at 0x7f0ee2648d60 -->
<g id="edge20" class="edge">
<title>ast.Lambda object at 0x7f0ee26485e0&#45;&gt;ast.arguments object at 0x7f0ee2648d60</title>
<path fill="none" stroke="black" d="M251,-287.7C251,-279.98 251,-270.71 251,-262.11"/>
<polygon fill="black" stroke="black" points="254.5,-262.1 251,-252.1 247.5,-262.1 254.5,-262.1"/>
</g>
<!-- ast.Call object at 0x7f0ee26498a0 -->
<g id="node20" class="node">
<title>ast.Call object at 0x7f0ee26498a0</title>
<path fill="#66cdaa" stroke="black" d="M348,-252C348,-252 318,-252 318,-252 312,-252 306,-246 306,-240 306,-240 306,-228 306,-228 306,-222 312,-216 318,-216 318,-216 348,-216 348,-216 354,-216 360,-222 360,-228 360,-228 360,-240 360,-240 360,-246 354,-252 348,-252"/>
<text text-anchor="middle" x="333" y="-230.3" font-family="Times,serif" font-size="14.00">Call</text>
</g>
<!-- ast.Lambda object at 0x7f0ee26485e0&#45;&gt;ast.Call object at 0x7f0ee26498a0 -->
<g id="edge22" class="edge">
<title>ast.Lambda object at 0x7f0ee26485e0&#45;&gt;ast.Call object at 0x7f0ee26498a0</title>
<path fill="none" stroke="black" d="M271.27,-287.7C281.5,-278.97 294.06,-268.24 305.18,-258.75"/>
<polygon fill="black" stroke="black" points="307.63,-261.26 312.96,-252.1 303.09,-255.94 307.63,-261.26"/>
</g>
<!-- ast.arg object at 0x7f0ee2648a30 -->
<g id="node19" class="node">
<title>ast.arg object at 0x7f0ee2648a30</title>
<path fill="#66cdaa" stroke="black" d="M271,-180C271,-180 241,-180 241,-180 235,-180 229,-174 229,-168 229,-168 229,-156 229,-156 229,-150 235,-144 241,-144 241,-144 271,-144 271,-144 277,-144 283,-150 283,-156 283,-156 283,-168 283,-168 283,-174 277,-180 271,-180"/>
<text text-anchor="middle" x="256" y="-158.3" font-family="Times,serif" font-size="14.00">arg</text>
</g>
<!-- ast.arguments object at 0x7f0ee2648d60&#45;&gt;ast.arg object at 0x7f0ee2648a30 -->
<g id="edge21" class="edge">
<title>ast.arguments object at 0x7f0ee2648d60&#45;&gt;ast.arg object at 0x7f0ee2648a30</title>
<path fill="none" stroke="black" d="M252.24,-215.7C252.79,-207.98 253.45,-198.71 254.06,-190.11"/>
<polygon fill="black" stroke="black" points="257.56,-190.33 254.78,-180.1 250.57,-189.83 257.56,-190.33"/>
</g>
<!-- ast.Name object at 0x7f0ee2648460 -->
<g id="node21" class="node">
<title>ast.Name object at 0x7f0ee2648460</title>
<path fill="#66cdaa" stroke="black" d="M343,-180C343,-180 313,-180 313,-180 307,-180 301,-174 301,-168 301,-168 301,-156 301,-156 301,-150 307,-144 313,-144 313,-144 343,-144 343,-144 349,-144 355,-150 355,-156 355,-156 355,-168 355,-168 355,-174 349,-180 343,-180"/>
<text text-anchor="middle" x="328" y="-158.3" font-family="Times,serif" font-size="14.00">Name</text>
</g>
<!-- ast.Call object at 0x7f0ee26498a0&#45;&gt;ast.Name object at 0x7f0ee2648460 -->
<g id="edge23" class="edge">
<title>ast.Call object at 0x7f0ee26498a0&#45;&gt;ast.Name object at 0x7f0ee2648460</title>
<path fill="none" stroke="black" d="M331.76,-215.7C331.21,-207.98 330.55,-198.71 329.94,-190.11"/>
<polygon fill="black" stroke="black" points="333.43,-189.83 329.22,-180.1 326.44,-190.33 333.43,-189.83"/>
</g>
<!-- ast.Name object at 0x7f0ee2648b50 -->
<g id="node22" class="node">
<title>ast.Name object at 0x7f0ee2648b50</title>
<path fill="#66cdaa" stroke="black" d="M415,-180C415,-180 385,-180 385,-180 379,-180 373,-174 373,-168 373,-168 373,-156 373,-156 373,-150 379,-144 385,-144 385,-144 415,-144 415,-144 421,-144 427,-150 427,-156 427,-156 427,-168 427,-168 427,-174 421,-180 415,-180"/>
<text text-anchor="middle" x="400" y="-158.3" font-family="Times,serif" font-size="14.00">Name</text>
</g>
<!-- ast.Call object at 0x7f0ee26498a0&#45;&gt;ast.Name object at 0x7f0ee2648b50 -->
<g id="edge25" class="edge">
<title>ast.Call object at 0x7f0ee26498a0&#45;&gt;ast.Name object at 0x7f0ee2648b50</title>
<path fill="none" stroke="black" d="M349.56,-215.7C357.68,-207.22 367.59,-196.86 376.47,-187.58"/>
<polygon fill="black" stroke="black" points="379.24,-189.75 383.63,-180.1 374.19,-184.91 379.24,-189.75"/>
</g>
<!-- ast.Name object at 0x7f0ee2648460&#45;&gt;ast.Load object at 0x7f0ee65edf60 -->
<g id="edge24" class="edge">
<title>ast.Name object at 0x7f0ee2648460&#45;&gt;ast.Load object at 0x7f0ee65edf60</title>
<path fill="none" stroke="black" d="M310.2,-143.7C301.4,-135.14 290.62,-124.66 281,-115.3"/>
<polygon fill="black" stroke="black" points="283.2,-112.57 273.59,-108.1 278.32,-117.58 283.2,-112.57"/>
</g>
<!-- ast.Name object at 0x7f0ee2648b50&#45;&gt;ast.Load object at 0x7f0ee65edf60 -->
<g id="edge26" class="edge">
<title>ast.Name object at 0x7f0ee2648b50&#45;&gt;ast.Load object at 0x7f0ee65edf60</title>
<path fill="none" stroke="black" d="M372.91,-147.83C350.23,-136.81 317.64,-120.97 292.63,-108.81"/>
<polygon fill="black" stroke="black" points="293.98,-105.57 283.45,-104.35 290.92,-111.87 293.98,-105.57"/>
</g>
<!-- ast.Subscript object at 0x7f0ee264a350 -->
<g id="node24" class="node">
<title>ast.Subscript object at 0x7f0ee264a350</title>
<path fill="#66cdaa" stroke="black" d="M504,-252C504,-252 460,-252 460,-252 454,-252 448,-246 448,-240 448,-240 448,-228 448,-228 448,-222 454,-216 460,-216 460,-216 504,-216 504,-216 510,-216 516,-222 516,-228 516,-228 516,-240 516,-240 516,-246 510,-252 504,-252"/>
<text text-anchor="middle" x="482" y="-230.3" font-family="Times,serif" font-size="14.00">Subscript</text>
</g>
<!-- ast.Return object at 0x7f0ee264aa10&#45;&gt;ast.Subscript object at 0x7f0ee264a350 -->
<g id="edge28" class="edge">
<title>ast.Return object at 0x7f0ee264aa10&#45;&gt;ast.Subscript object at 0x7f0ee264a350</title>
<path fill="none" stroke="black" d="M283.57,-503.97C319.18,-455.7 420.91,-317.8 463.21,-260.47"/>
<polygon fill="black" stroke="black" points="466.11,-262.43 469.23,-252.31 460.48,-258.28 466.11,-262.43"/>
</g>
<!-- ast.Subscript object at 0x7f0ee264a350&#45;&gt;ast.Load object at 0x7f0ee65edf60 -->
<g id="edge35" class="edge">
<title>ast.Subscript object at 0x7f0ee264a350&#45;&gt;ast.Load object at 0x7f0ee65edf60</title>
<path fill="none" stroke="black" d="M477.63,-215.99C471.61,-195.89 458.8,-162.82 436,-144 394.83,-110.02 332.62,-97.83 293.17,-93.45"/>
<polygon fill="black" stroke="black" points="293.47,-89.96 283.17,-92.45 292.78,-96.93 293.47,-89.96"/>
</g>
<!-- ast.Name object at 0x7f0ee2649db0 -->
<g id="node25" class="node">
<title>ast.Name object at 0x7f0ee2649db0</title>
<path fill="#66cdaa" stroke="black" d="M525,-180C525,-180 495,-180 495,-180 489,-180 483,-174 483,-168 483,-168 483,-156 483,-156 483,-150 489,-144 495,-144 495,-144 525,-144 525,-144 531,-144 537,-150 537,-156 537,-156 537,-168 537,-168 537,-174 531,-180 525,-180"/>
<text text-anchor="middle" x="510" y="-158.3" font-family="Times,serif" font-size="14.00">Name</text>
</g>
<!-- ast.Subscript object at 0x7f0ee264a350&#45;&gt;ast.Name object at 0x7f0ee2649db0 -->
<g id="edge29" class="edge">
<title>ast.Subscript object at 0x7f0ee264a350&#45;&gt;ast.Name object at 0x7f0ee2649db0</title>
<path fill="none" stroke="black" d="M488.92,-215.7C492.07,-207.81 495.88,-198.3 499.38,-189.55"/>
<polygon fill="black" stroke="black" points="502.69,-190.69 503.16,-180.1 496.19,-188.09 502.69,-190.69"/>
</g>
<!-- ast.Slice object at 0x7f0ee264a8c0 -->
<g id="node26" class="node">
<title>ast.Slice object at 0x7f0ee264a8c0</title>
<path fill="#66cdaa" stroke="black" d="M597,-180C597,-180 567,-180 567,-180 561,-180 555,-174 555,-168 555,-168 555,-156 555,-156 555,-150 561,-144 567,-144 567,-144 597,-144 597,-144 603,-144 609,-150 609,-156 609,-156 609,-168 609,-168 609,-174 603,-180 597,-180"/>
<text text-anchor="middle" x="582" y="-158.3" font-family="Times,serif" font-size="14.00">Slice</text>
</g>
<!-- ast.Subscript object at 0x7f0ee264a350&#45;&gt;ast.Slice object at 0x7f0ee264a8c0 -->
<g id="edge31" class="edge">
<title>ast.Subscript object at 0x7f0ee264a350&#45;&gt;ast.Slice object at 0x7f0ee264a8c0</title>
<path fill="none" stroke="black" d="M506.46,-215.88C519.3,-206.89 535.2,-195.76 549.09,-186.03"/>
<polygon fill="black" stroke="black" points="551.26,-188.79 557.44,-180.19 547.24,-183.06 551.26,-188.79"/>
</g>
<!-- ast.Name object at 0x7f0ee2649db0&#45;&gt;ast.Load object at 0x7f0ee65edf60 -->
<g id="edge30" class="edge">
<title>ast.Name object at 0x7f0ee2649db0&#45;&gt;ast.Load object at 0x7f0ee65edf60</title>
<path fill="none" stroke="black" d="M482.87,-149.09C478.28,-147.26 473.54,-145.5 469,-144 408.48,-124.05 336.15,-107.55 293.25,-98.5"/>
<polygon fill="black" stroke="black" points="293.77,-95.04 283.27,-96.42 292.34,-101.89 293.77,-95.04"/>
</g>
<!-- ast.UnaryOp object at 0x7f0ee264b010 -->
<g id="node27" class="node">
<title>ast.UnaryOp object at 0x7f0ee264b010</title>
<path fill="#66cdaa" stroke="black" d="M603.5,-108C603.5,-108 560.5,-108 560.5,-108 554.5,-108 548.5,-102 548.5,-96 548.5,-96 548.5,-84 548.5,-84 548.5,-78 554.5,-72 560.5,-72 560.5,-72 603.5,-72 603.5,-72 609.5,-72 615.5,-78 615.5,-84 615.5,-84 615.5,-96 615.5,-96 615.5,-102 609.5,-108 603.5,-108"/>
<text text-anchor="middle" x="582" y="-86.3" font-family="Times,serif" font-size="14.00">UnaryOp</text>
</g>
<!-- ast.Slice object at 0x7f0ee264a8c0&#45;&gt;ast.UnaryOp object at 0x7f0ee264b010 -->
<g id="edge32" class="edge">
<title>ast.Slice object at 0x7f0ee264a8c0&#45;&gt;ast.UnaryOp object at 0x7f0ee264b010</title>
<path fill="none" stroke="black" d="M582,-143.7C582,-135.98 582,-126.71 582,-118.11"/>
<polygon fill="black" stroke="black" points="585.5,-118.1 582,-108.1 578.5,-118.1 585.5,-118.1"/>
</g>
<!-- ast.USub object at 0x7f0ee65ee800 -->
<g id="node28" class="node">
<title>ast.USub object at 0x7f0ee65ee800</title>
<path fill="#66cdaa" stroke="black" d="M558,-36C558,-36 528,-36 528,-36 522,-36 516,-30 516,-24 516,-24 516,-12 516,-12 516,-6 522,0 528,0 528,0 558,0 558,0 564,0 570,-6 570,-12 570,-12 570,-24 570,-24 570,-30 564,-36 558,-36"/>
<text text-anchor="middle" x="543" y="-14.3" font-family="Times,serif" font-size="14.00">USub</text>
</g>
<!-- ast.UnaryOp object at 0x7f0ee264b010&#45;&gt;ast.USub object at 0x7f0ee65ee800 -->
<g id="edge33" class="edge">
<title>ast.UnaryOp object at 0x7f0ee264b010&#45;&gt;ast.USub object at 0x7f0ee65ee800</title>
<path fill="none" stroke="black" d="M572.36,-71.7C567.87,-63.64 562.44,-53.89 557.48,-44.98"/>
<polygon fill="black" stroke="black" points="560.45,-43.14 552.53,-36.1 554.34,-46.54 560.45,-43.14"/>
</g>
<!-- ast.Constant object at 0x7f0ee264ae00 -->
<g id="node29" class="node">
<title>ast.Constant object at 0x7f0ee264ae00</title>
<path fill="#66cdaa" stroke="black" d="M641.5,-36C641.5,-36 600.5,-36 600.5,-36 594.5,-36 588.5,-30 588.5,-24 588.5,-24 588.5,-12 588.5,-12 588.5,-6 594.5,0 600.5,0 600.5,0 641.5,0 641.5,0 647.5,0 653.5,-6 653.5,-12 653.5,-12 653.5,-24 653.5,-24 653.5,-30 647.5,-36 641.5,-36"/>
<text text-anchor="middle" x="621" y="-14.3" font-family="Times,serif" font-size="14.00">Constant</text>
</g>
<!-- ast.UnaryOp object at 0x7f0ee264b010&#45;&gt;ast.Constant object at 0x7f0ee264ae00 -->
<g id="edge34" class="edge">
<title>ast.UnaryOp object at 0x7f0ee264b010&#45;&gt;ast.Constant object at 0x7f0ee264ae00</title>
<path fill="none" stroke="black" d="M591.64,-71.7C596.13,-63.64 601.56,-53.89 606.52,-44.98"/>
<polygon fill="black" stroke="black" points="609.66,-46.54 611.47,-36.1 603.55,-43.14 609.66,-46.54"/>
</g>
</g>
</svg>
