<?xml version="1.0" encoding="UTF-8" standalone="no"?>
<!DOCTYPE svg PUBLIC "-//W3C//DTD SVG 1.1//EN"
 "http://www.w3.org/Graphics/SVG/1.1/DTD/svg11.dtd">
<!-- Generated by graphviz version 2.43.0 (0)
 -->
<!-- Title: %3 Pages: 1 -->
<svg width="1064pt" height="620pt"
 viewBox="0.00 0.00 1064.00 620.00" xmlns="http://www.w3.org/2000/svg" xmlns:xlink="http://www.w3.org/1999/xlink">
<g id="graph0" class="graph" transform="scale(1 1) rotate(0) translate(4 616)">
<title>%3</title>
<polygon fill="white" stroke="transparent" points="-4,4 -4,-616 1060,-616 1060,4 -4,4"/>
<!-- ast.Module object at 0x7f8b59d90d30 -->
<g id="node1" class="node">
<title>ast.Module object at 0x7f8b59d90d30</title>
<path fill="#66cdaa" stroke="black" d="M593.5,-612C593.5,-612 547.5,-612 547.5,-612 541.5,-612 535.5,-606 535.5,-600 535.5,-600 535.5,-588 535.5,-588 535.5,-582 541.5,-576 547.5,-576 547.5,-576 593.5,-576 593.5,-576 599.5,-576 605.5,-582 605.5,-588 605.5,-588 605.5,-600 605.5,-600 605.5,-606 599.5,-612 593.5,-612"/>
<text text-anchor="middle" x="570.5" y="-590.3" font-family="Times,serif" font-size="14.00">Module</text>
</g>
<!-- ast.Import object at 0x7f8b59d90a90 -->
<g id="node2" class="node">
<title>ast.Import object at 0x7f8b59d90a90</title>
<path fill="#66cdaa" stroke="black" d="M540,-540C540,-540 499,-540 499,-540 493,-540 487,-534 487,-528 487,-528 487,-516 487,-516 487,-510 493,-504 499,-504 499,-504 540,-504 540,-504 546,-504 552,-510 552,-516 552,-516 552,-528 552,-528 552,-534 546,-540 540,-540"/>
<text text-anchor="middle" x="519.5" y="-518.3" font-family="Times,serif" font-size="14.00">Import</text>
</g>
<!-- ast.Module object at 0x7f8b59d90d30&#45;&gt;ast.Import object at 0x7f8b59d90a90 -->
<g id="edge1" class="edge">
<title>ast.Module object at 0x7f8b59d90d30&#45;&gt;ast.Import object at 0x7f8b59d90a90</title>
<path fill="none" stroke="black" d="M557.89,-575.7C551.9,-567.47 544.62,-557.48 538.02,-548.42"/>
<polygon fill="black" stroke="black" points="540.68,-546.13 531.96,-540.1 535.02,-550.25 540.68,-546.13"/>
</g>
<!-- ast.FunctionDef object at 0x7f8b59d93ca0 -->
<g id="node4" class="node">
<title>ast.FunctionDef object at 0x7f8b59d93ca0</title>
<path fill="#66cdaa" stroke="black" d="M685.5,-540C685.5,-540 605.5,-540 605.5,-540 599.5,-540 593.5,-534 593.5,-528 593.5,-528 593.5,-516 593.5,-516 593.5,-510 599.5,-504 605.5,-504 605.5,-504 685.5,-504 685.5,-504 691.5,-504 697.5,-510 697.5,-516 697.5,-516 697.5,-528 697.5,-528 697.5,-534 691.5,-540 685.5,-540"/>
<text text-anchor="middle" x="645.5" y="-518.3" font-family="Times,serif" font-size="14.00">FunctionDef</text>
</g>
<!-- ast.Module object at 0x7f8b59d90d30&#45;&gt;ast.FunctionDef object at 0x7f8b59d93ca0 -->
<g id="edge3" class="edge">
<title>ast.Module object at 0x7f8b59d90d30&#45;&gt;ast.FunctionDef object at 0x7f8b59d93ca0</title>
<path fill="none" stroke="black" d="M589.04,-575.7C598.3,-567.05 609.66,-556.45 619.76,-547.03"/>
<polygon fill="black" stroke="black" points="622.25,-549.49 627.17,-540.1 617.48,-544.37 622.25,-549.49"/>
</g>
<!-- ast.alias object at 0x7f8b59d92980 -->
<g id="node3" class="node">
<title>ast.alias object at 0x7f8b59d92980</title>
<path fill="#66cdaa" stroke="black" d="M469.5,-468C469.5,-468 439.5,-468 439.5,-468 433.5,-468 427.5,-462 427.5,-456 427.5,-456 427.5,-444 427.5,-444 427.5,-438 433.5,-432 439.5,-432 439.5,-432 469.5,-432 469.5,-432 475.5,-432 481.5,-438 481.5,-444 481.5,-444 481.5,-456 481.5,-456 481.5,-462 475.5,-468 469.5,-468"/>
<text text-anchor="middle" x="454.5" y="-446.3" font-family="Times,serif" font-size="14.00">alias</text>
</g>
<!-- ast.Import object at 0x7f8b59d90a90&#45;&gt;ast.alias object at 0x7f8b59d92980 -->
<g id="edge2" class="edge">
<title>ast.Import object at 0x7f8b59d90a90&#45;&gt;ast.alias object at 0x7f8b59d92980</title>
<path fill="none" stroke="black" d="M503.43,-503.7C495.56,-495.22 485.94,-484.86 477.33,-475.58"/>
<polygon fill="black" stroke="black" points="479.75,-473.05 470.38,-468.1 474.62,-477.81 479.75,-473.05"/>
</g>
<!-- ast.arguments object at 0x7f8b59d92e30 -->
<g id="node5" class="node">
<title>ast.arguments object at 0x7f8b59d92e30</title>
<path fill="#66cdaa" stroke="black" d="M892.5,-468C892.5,-468 822.5,-468 822.5,-468 816.5,-468 810.5,-462 810.5,-456 810.5,-456 810.5,-444 810.5,-444 810.5,-438 816.5,-432 822.5,-432 822.5,-432 892.5,-432 892.5,-432 898.5,-432 904.5,-438 904.5,-444 904.5,-444 904.5,-456 904.5,-456 904.5,-462 898.5,-468 892.5,-468"/>
<text text-anchor="middle" x="857.5" y="-446.3" font-family="Times,serif" font-size="14.00">arguments</text>
</g>
<!-- ast.FunctionDef object at 0x7f8b59d93ca0&#45;&gt;ast.arguments object at 0x7f8b59d92e30 -->
<g id="edge4" class="edge">
<title>ast.FunctionDef object at 0x7f8b59d93ca0&#45;&gt;ast.arguments object at 0x7f8b59d92e30</title>
<path fill="none" stroke="black" d="M697.09,-503.97C728.41,-493.62 768.43,-480.41 800.66,-469.77"/>
<polygon fill="black" stroke="black" points="802,-473.01 810.4,-466.55 799.8,-466.37 802,-473.01"/>
</g>
<!-- ast.If object at 0x7f8b59d90940 -->
<g id="node7" class="node">
<title>ast.If object at 0x7f8b59d90940</title>
<path fill="#66cdaa" stroke="black" d="M817.5,-324C817.5,-324 787.5,-324 787.5,-324 781.5,-324 775.5,-318 775.5,-312 775.5,-312 775.5,-300 775.5,-300 775.5,-294 781.5,-288 787.5,-288 787.5,-288 817.5,-288 817.5,-288 823.5,-288 829.5,-294 829.5,-300 829.5,-300 829.5,-312 829.5,-312 829.5,-318 823.5,-324 817.5,-324"/>
<text text-anchor="middle" x="802.5" y="-302.3" font-family="Times,serif" font-size="14.00">If</text>
</g>
<!-- ast.FunctionDef object at 0x7f8b59d93ca0&#45;&gt;ast.If object at 0x7f8b59d90940 -->
<g id="edge6" class="edge">
<title>ast.FunctionDef object at 0x7f8b59d93ca0&#45;&gt;ast.If object at 0x7f8b59d90940</title>
<path fill="none" stroke="black" d="M681.4,-503.84C697.35,-494.87 715.43,-482.68 728.5,-468 764,-428.13 785.38,-368.32 795.46,-333.94"/>
<polygon fill="black" stroke="black" points="798.88,-334.71 798.24,-324.13 792.15,-332.8 798.88,-334.71"/>
</g>
<!-- ast.Assign object at 0x7f8b59d90490 -->
<g id="node17" class="node">
<title>ast.Assign object at 0x7f8b59d90490</title>
<path fill="#66cdaa" stroke="black" d="M707.5,-468C707.5,-468 667.5,-468 667.5,-468 661.5,-468 655.5,-462 655.5,-456 655.5,-456 655.5,-444 655.5,-444 655.5,-438 661.5,-432 667.5,-432 667.5,-432 707.5,-432 707.5,-432 713.5,-432 719.5,-438 719.5,-444 719.5,-444 719.5,-456 719.5,-456 719.5,-462 713.5,-468 707.5,-468"/>
<text text-anchor="middle" x="687.5" y="-446.3" font-family="Times,serif" font-size="14.00">Assign</text>
</g>
<!-- ast.FunctionDef object at 0x7f8b59d93ca0&#45;&gt;ast.Assign object at 0x7f8b59d90490 -->
<g id="edge18" class="edge">
<title>ast.FunctionDef object at 0x7f8b59d93ca0&#45;&gt;ast.Assign object at 0x7f8b59d90490</title>
<path fill="none" stroke="black" d="M655.88,-503.7C660.76,-495.56 666.69,-485.69 672.08,-476.7"/>
<polygon fill="black" stroke="black" points="675.09,-478.48 677.24,-468.1 669.09,-474.88 675.09,-478.48"/>
</g>
<!-- ast.For object at 0x7f8b59d937f0 -->
<g id="node22" class="node">
<title>ast.For object at 0x7f8b59d937f0</title>
<path fill="#66cdaa" stroke="black" d="M541.5,-468C541.5,-468 511.5,-468 511.5,-468 505.5,-468 499.5,-462 499.5,-456 499.5,-456 499.5,-444 499.5,-444 499.5,-438 505.5,-432 511.5,-432 511.5,-432 541.5,-432 541.5,-432 547.5,-432 553.5,-438 553.5,-444 553.5,-444 553.5,-456 553.5,-456 553.5,-462 547.5,-468 541.5,-468"/>
<text text-anchor="middle" x="526.5" y="-446.3" font-family="Times,serif" font-size="14.00">For</text>
</g>
<!-- ast.FunctionDef object at 0x7f8b59d93ca0&#45;&gt;ast.For object at 0x7f8b59d937f0 -->
<g id="edge24" class="edge">
<title>ast.FunctionDef object at 0x7f8b59d93ca0&#45;&gt;ast.For object at 0x7f8b59d937f0</title>
<path fill="none" stroke="black" d="M616.39,-503.88C600.1,-494.29 579.66,-482.27 562.38,-472.11"/>
<polygon fill="black" stroke="black" points="564.07,-469.04 553.68,-466.99 560.52,-475.07 564.07,-469.04"/>
</g>
<!-- ast.Return object at 0x7f8b57353970 -->
<g id="node43" class="node">
<title>ast.Return object at 0x7f8b57353970</title>
<path fill="#66cdaa" stroke="black" d="M625.5,-468C625.5,-468 583.5,-468 583.5,-468 577.5,-468 571.5,-462 571.5,-456 571.5,-456 571.5,-444 571.5,-444 571.5,-438 577.5,-432 583.5,-432 583.5,-432 625.5,-432 625.5,-432 631.5,-432 637.5,-438 637.5,-444 637.5,-444 637.5,-456 637.5,-456 637.5,-462 631.5,-468 625.5,-468"/>
<text text-anchor="middle" x="604.5" y="-446.3" font-family="Times,serif" font-size="14.00">Return</text>
</g>
<!-- ast.FunctionDef object at 0x7f8b59d93ca0&#45;&gt;ast.Return object at 0x7f8b57353970 -->
<g id="edge54" class="edge">
<title>ast.FunctionDef object at 0x7f8b59d93ca0&#45;&gt;ast.Return object at 0x7f8b57353970</title>
<path fill="none" stroke="black" d="M635.37,-503.7C630.65,-495.64 624.94,-485.89 619.72,-476.98"/>
<polygon fill="black" stroke="black" points="622.59,-474.96 614.52,-468.1 616.55,-478.5 622.59,-474.96"/>
</g>
<!-- ast.arg object at 0x7f8b59d92f80 -->
<g id="node6" class="node">
<title>ast.arg object at 0x7f8b59d92f80</title>
<path fill="#66cdaa" stroke="black" d="M872.5,-396C872.5,-396 842.5,-396 842.5,-396 836.5,-396 830.5,-390 830.5,-384 830.5,-384 830.5,-372 830.5,-372 830.5,-366 836.5,-360 842.5,-360 842.5,-360 872.5,-360 872.5,-360 878.5,-360 884.5,-366 884.5,-372 884.5,-372 884.5,-384 884.5,-384 884.5,-390 878.5,-396 872.5,-396"/>
<text text-anchor="middle" x="857.5" y="-374.3" font-family="Times,serif" font-size="14.00">arg</text>
</g>
<!-- ast.arguments object at 0x7f8b59d92e30&#45;&gt;ast.arg object at 0x7f8b59d92f80 -->
<g id="edge5" class="edge">
<title>ast.arguments object at 0x7f8b59d92e30&#45;&gt;ast.arg object at 0x7f8b59d92f80</title>
<path fill="none" stroke="black" d="M857.5,-431.7C857.5,-423.98 857.5,-414.71 857.5,-406.11"/>
<polygon fill="black" stroke="black" points="861,-406.1 857.5,-396.1 854,-406.1 861,-406.1"/>
</g>
<!-- ast.Compare object at 0x7f8b59d93d00 -->
<g id="node8" class="node">
<title>ast.Compare object at 0x7f8b59d93d00</title>
<path fill="#66cdaa" stroke="black" d="M937,-252C937,-252 880,-252 880,-252 874,-252 868,-246 868,-240 868,-240 868,-228 868,-228 868,-222 874,-216 880,-216 880,-216 937,-216 937,-216 943,-216 949,-222 949,-228 949,-228 949,-240 949,-240 949,-246 943,-252 937,-252"/>
<text text-anchor="middle" x="908.5" y="-230.3" font-family="Times,serif" font-size="14.00">Compare</text>
</g>
<!-- ast.If object at 0x7f8b59d90940&#45;&gt;ast.Compare object at 0x7f8b59d93d00 -->
<g id="edge7" class="edge">
<title>ast.If object at 0x7f8b59d90940&#45;&gt;ast.Compare object at 0x7f8b59d93d00</title>
<path fill="none" stroke="black" d="M828.43,-287.88C842.16,-278.81 859.21,-267.55 874.04,-257.76"/>
<polygon fill="black" stroke="black" points="876.05,-260.62 882.47,-252.19 872.2,-254.78 876.05,-260.62"/>
</g>
<!-- ast.Return object at 0x7f8b59d90220 -->
<g id="node15" class="node">
<title>ast.Return object at 0x7f8b59d90220</title>
<path fill="#66cdaa" stroke="black" d="M816.5,-252C816.5,-252 774.5,-252 774.5,-252 768.5,-252 762.5,-246 762.5,-240 762.5,-240 762.5,-228 762.5,-228 762.5,-222 768.5,-216 774.5,-216 774.5,-216 816.5,-216 816.5,-216 822.5,-216 828.5,-222 828.5,-228 828.5,-228 828.5,-240 828.5,-240 828.5,-246 822.5,-252 816.5,-252"/>
<text text-anchor="middle" x="795.5" y="-230.3" font-family="Times,serif" font-size="14.00">Return</text>
</g>
<!-- ast.If object at 0x7f8b59d90940&#45;&gt;ast.Return object at 0x7f8b59d90220 -->
<g id="edge15" class="edge">
<title>ast.If object at 0x7f8b59d90940&#45;&gt;ast.Return object at 0x7f8b59d90220</title>
<path fill="none" stroke="black" d="M800.77,-287.7C800,-279.98 799.07,-270.71 798.21,-262.11"/>
<polygon fill="black" stroke="black" points="801.69,-261.71 797.21,-252.1 794.72,-262.4 801.69,-261.71"/>
</g>
<!-- ast.Call object at 0x7f8b59d90190 -->
<g id="node9" class="node">
<title>ast.Call object at 0x7f8b59d90190</title>
<path fill="#66cdaa" stroke="black" d="M872.5,-180C872.5,-180 842.5,-180 842.5,-180 836.5,-180 830.5,-174 830.5,-168 830.5,-168 830.5,-156 830.5,-156 830.5,-150 836.5,-144 842.5,-144 842.5,-144 872.5,-144 872.5,-144 878.5,-144 884.5,-150 884.5,-156 884.5,-156 884.5,-168 884.5,-168 884.5,-174 878.5,-180 872.5,-180"/>
<text text-anchor="middle" x="857.5" y="-158.3" font-family="Times,serif" font-size="14.00">Call</text>
</g>
<!-- ast.Compare object at 0x7f8b59d93d00&#45;&gt;ast.Call object at 0x7f8b59d90190 -->
<g id="edge8" class="edge">
<title>ast.Compare object at 0x7f8b59d93d00&#45;&gt;ast.Call object at 0x7f8b59d90190</title>
<path fill="none" stroke="black" d="M895.89,-215.7C889.9,-207.47 882.62,-197.48 876.02,-188.42"/>
<polygon fill="black" stroke="black" points="878.68,-186.13 869.96,-180.1 873.02,-190.25 878.68,-186.13"/>
</g>
<!-- ast.Lt object at 0x7f8b74db20b0 -->
<g id="node13" class="node">
<title>ast.Lt object at 0x7f8b74db20b0</title>
<path fill="#66cdaa" stroke="black" d="M944.5,-180C944.5,-180 914.5,-180 914.5,-180 908.5,-180 902.5,-174 902.5,-168 902.5,-168 902.5,-156 902.5,-156 902.5,-150 908.5,-144 914.5,-144 914.5,-144 944.5,-144 944.5,-144 950.5,-144 956.5,-150 956.5,-156 956.5,-156 956.5,-168 956.5,-168 956.5,-174 950.5,-180 944.5,-180"/>
<text text-anchor="middle" x="929.5" y="-158.3" font-family="Times,serif" font-size="14.00">Lt</text>
</g>
<!-- ast.Compare object at 0x7f8b59d93d00&#45;&gt;ast.Lt object at 0x7f8b74db20b0 -->
<g id="edge13" class="edge">
<title>ast.Compare object at 0x7f8b59d93d00&#45;&gt;ast.Lt object at 0x7f8b74db20b0</title>
<path fill="none" stroke="black" d="M913.69,-215.7C916.03,-207.9 918.85,-198.51 921.45,-189.83"/>
<polygon fill="black" stroke="black" points="924.85,-190.69 924.37,-180.1 918.14,-188.68 924.85,-190.69"/>
</g>
<!-- ast.Constant object at 0x7f8b59d91480 -->
<g id="node14" class="node">
<title>ast.Constant object at 0x7f8b59d91480</title>
<path fill="#66cdaa" stroke="black" d="M1044,-180C1044,-180 987,-180 987,-180 981,-180 975,-174 975,-168 975,-168 975,-156 975,-156 975,-150 981,-144 987,-144 987,-144 1044,-144 1044,-144 1050,-144 1056,-150 1056,-156 1056,-156 1056,-168 1056,-168 1056,-174 1050,-180 1044,-180"/>
<text text-anchor="middle" x="1015.5" y="-158.3" font-family="Times,serif" font-size="14.00">Constant</text>
</g>
<!-- ast.Compare object at 0x7f8b59d93d00&#45;&gt;ast.Constant object at 0x7f8b59d91480 -->
<g id="edge14" class="edge">
<title>ast.Compare object at 0x7f8b59d93d00&#45;&gt;ast.Constant object at 0x7f8b59d91480</title>
<path fill="none" stroke="black" d="M934.68,-215.88C948.54,-206.81 965.74,-195.55 980.71,-185.76"/>
<polygon fill="black" stroke="black" points="982.77,-188.59 989.22,-180.19 978.94,-182.74 982.77,-188.59"/>
</g>
<!-- ast.Name object at 0x7f8b59d90820 -->
<g id="node10" class="node">
<title>ast.Name object at 0x7f8b59d90820</title>
<path fill="#66cdaa" stroke="black" d="M875,-108C875,-108 840,-108 840,-108 834,-108 828,-102 828,-96 828,-96 828,-84 828,-84 828,-78 834,-72 840,-72 840,-72 875,-72 875,-72 881,-72 887,-78 887,-84 887,-84 887,-96 887,-96 887,-102 881,-108 875,-108"/>
<text text-anchor="middle" x="857.5" y="-86.3" font-family="Times,serif" font-size="14.00">Name</text>
</g>
<!-- ast.Call object at 0x7f8b59d90190&#45;&gt;ast.Name object at 0x7f8b59d90820 -->
<g id="edge9" class="edge">
<title>ast.Call object at 0x7f8b59d90190&#45;&gt;ast.Name object at 0x7f8b59d90820</title>
<path fill="none" stroke="black" d="M857.5,-143.7C857.5,-135.98 857.5,-126.71 857.5,-118.11"/>
<polygon fill="black" stroke="black" points="861,-118.1 857.5,-108.1 854,-118.1 861,-118.1"/>
</g>
<!-- ast.Name object at 0x7f8b59d92680 -->
<g id="node12" class="node">
<title>ast.Name object at 0x7f8b59d92680</title>
<path fill="#66cdaa" stroke="black" d="M952,-108C952,-108 917,-108 917,-108 911,-108 905,-102 905,-96 905,-96 905,-84 905,-84 905,-78 911,-72 917,-72 917,-72 952,-72 952,-72 958,-72 964,-78 964,-84 964,-84 964,-96 964,-96 964,-102 958,-108 952,-108"/>
<text text-anchor="middle" x="934.5" y="-86.3" font-family="Times,serif" font-size="14.00">Name</text>
</g>
<!-- ast.Call object at 0x7f8b59d90190&#45;&gt;ast.Name object at 0x7f8b59d92680 -->
<g id="edge11" class="edge">
<title>ast.Call object at 0x7f8b59d90190&#45;&gt;ast.Name object at 0x7f8b59d92680</title>
<path fill="none" stroke="black" d="M876.53,-143.7C886.04,-135.05 897.71,-124.45 908.07,-115.03"/>
<polygon fill="black" stroke="black" points="910.64,-117.42 915.69,-108.1 905.93,-112.24 910.64,-117.42"/>
</g>
<!-- ast.Load object at 0x7f8b74db16c0 -->
<g id="node11" class="node">
<title>ast.Load object at 0x7f8b74db16c0</title>
<path fill="#66cdaa" stroke="black" d="M491.5,-36C491.5,-36 461.5,-36 461.5,-36 455.5,-36 449.5,-30 449.5,-24 449.5,-24 449.5,-12 449.5,-12 449.5,-6 455.5,0 461.5,0 461.5,0 491.5,0 491.5,0 497.5,0 503.5,-6 503.5,-12 503.5,-12 503.5,-24 503.5,-24 503.5,-30 497.5,-36 491.5,-36"/>
<text text-anchor="middle" x="476.5" y="-14.3" font-family="Times,serif" font-size="14.00">Load</text>
</g>
<!-- ast.Name object at 0x7f8b59d90820&#45;&gt;ast.Load object at 0x7f8b74db16c0 -->
<g id="edge10" class="edge">
<title>ast.Name object at 0x7f8b59d90820&#45;&gt;ast.Load object at 0x7f8b74db16c0</title>
<path fill="none" stroke="black" d="M827.98,-75.2C824.82,-74 821.62,-72.91 818.5,-72 710.49,-40.66 577.6,-26.82 513.95,-21.64"/>
<polygon fill="black" stroke="black" points="513.86,-18.12 503.62,-20.82 513.31,-25.1 513.86,-18.12"/>
</g>
<!-- ast.Name object at 0x7f8b59d92680&#45;&gt;ast.Load object at 0x7f8b74db16c0 -->
<g id="edge12" class="edge">
<title>ast.Name object at 0x7f8b59d92680&#45;&gt;ast.Load object at 0x7f8b74db16c0</title>
<path fill="none" stroke="black" d="M904.94,-74.78C902.13,-73.73 899.28,-72.78 896.5,-72 758.89,-33.46 588.03,-22.89 513.81,-20.03"/>
<polygon fill="black" stroke="black" points="513.7,-16.53 503.58,-19.67 513.44,-23.52 513.7,-16.53"/>
</g>
<!-- ast.List object at 0x7f8b59d93f70 -->
<g id="node16" class="node">
<title>ast.List object at 0x7f8b59d93f70</title>
<path fill="#66cdaa" stroke="black" d="M797.5,-108C797.5,-108 767.5,-108 767.5,-108 761.5,-108 755.5,-102 755.5,-96 755.5,-96 755.5,-84 755.5,-84 755.5,-78 761.5,-72 767.5,-72 767.5,-72 797.5,-72 797.5,-72 803.5,-72 809.5,-78 809.5,-84 809.5,-84 809.5,-96 809.5,-96 809.5,-102 803.5,-108 797.5,-108"/>
<text text-anchor="middle" x="782.5" y="-86.3" font-family="Times,serif" font-size="14.00">List</text>
</g>
<!-- ast.Return object at 0x7f8b59d90220&#45;&gt;ast.List object at 0x7f8b59d93f70 -->
<g id="edge16" class="edge">
<title>ast.Return object at 0x7f8b59d90220&#45;&gt;ast.List object at 0x7f8b59d93f70</title>
<path fill="none" stroke="black" d="M793.93,-215.87C791.72,-191.67 787.65,-147.21 785.01,-118.39"/>
<polygon fill="black" stroke="black" points="788.47,-117.83 784.07,-108.19 781.5,-118.47 788.47,-117.83"/>
</g>
<!-- ast.List object at 0x7f8b59d93f70&#45;&gt;ast.Load object at 0x7f8b74db16c0 -->
<g id="edge17" class="edge">
<title>ast.List object at 0x7f8b59d93f70&#45;&gt;ast.Load object at 0x7f8b74db16c0</title>
<path fill="none" stroke="black" d="M755.42,-76.9C750.83,-75.1 746.07,-73.39 741.5,-72 661.92,-47.8 565.47,-31.7 513.68,-24.09"/>
<polygon fill="black" stroke="black" points="514.03,-20.6 503.64,-22.63 513.03,-27.53 514.03,-20.6"/>
</g>
<!-- ast.Name object at 0x7f8b59d93190 -->
<g id="node18" class="node">
<title>ast.Name object at 0x7f8b59d93190</title>
<path fill="#66cdaa" stroke="black" d="M670,-396C670,-396 635,-396 635,-396 629,-396 623,-390 623,-384 623,-384 623,-372 623,-372 623,-366 629,-360 635,-360 635,-360 670,-360 670,-360 676,-360 682,-366 682,-372 682,-372 682,-384 682,-384 682,-390 676,-396 670,-396"/>
<text text-anchor="middle" x="652.5" y="-374.3" font-family="Times,serif" font-size="14.00">Name</text>
</g>
<!-- ast.Assign object at 0x7f8b59d90490&#45;&gt;ast.Name object at 0x7f8b59d93190 -->
<g id="edge19" class="edge">
<title>ast.Assign object at 0x7f8b59d90490&#45;&gt;ast.Name object at 0x7f8b59d93190</title>
<path fill="none" stroke="black" d="M678.85,-431.7C674.86,-423.73 670.05,-414.1 665.63,-405.26"/>
<polygon fill="black" stroke="black" points="668.65,-403.48 661.05,-396.1 662.39,-406.61 668.65,-403.48"/>
</g>
<!-- ast.Call object at 0x7f8b59d91270 -->
<g id="node20" class="node">
<title>ast.Call object at 0x7f8b59d91270</title>
<path fill="#66cdaa" stroke="black" d="M742.5,-396C742.5,-396 712.5,-396 712.5,-396 706.5,-396 700.5,-390 700.5,-384 700.5,-384 700.5,-372 700.5,-372 700.5,-366 706.5,-360 712.5,-360 712.5,-360 742.5,-360 742.5,-360 748.5,-360 754.5,-366 754.5,-372 754.5,-372 754.5,-384 754.5,-384 754.5,-390 748.5,-396 742.5,-396"/>
<text text-anchor="middle" x="727.5" y="-374.3" font-family="Times,serif" font-size="14.00">Call</text>
</g>
<!-- ast.Assign object at 0x7f8b59d90490&#45;&gt;ast.Call object at 0x7f8b59d91270 -->
<g id="edge21" class="edge">
<title>ast.Assign object at 0x7f8b59d90490&#45;&gt;ast.Call object at 0x7f8b59d91270</title>
<path fill="none" stroke="black" d="M697.39,-431.7C701.99,-423.64 707.56,-413.89 712.65,-404.98"/>
<polygon fill="black" stroke="black" points="715.8,-406.52 717.73,-396.1 709.73,-403.05 715.8,-406.52"/>
</g>
<!-- ast.Store object at 0x7f8b74db1720 -->
<g id="node19" class="node">
<title>ast.Store object at 0x7f8b74db1720</title>
<path fill="#66cdaa" stroke="black" d="M667.5,-324C667.5,-324 635.5,-324 635.5,-324 629.5,-324 623.5,-318 623.5,-312 623.5,-312 623.5,-300 623.5,-300 623.5,-294 629.5,-288 635.5,-288 635.5,-288 667.5,-288 667.5,-288 673.5,-288 679.5,-294 679.5,-300 679.5,-300 679.5,-312 679.5,-312 679.5,-318 673.5,-324 667.5,-324"/>
<text text-anchor="middle" x="651.5" y="-302.3" font-family="Times,serif" font-size="14.00">Store</text>
</g>
<!-- ast.Name object at 0x7f8b59d93190&#45;&gt;ast.Store object at 0x7f8b74db1720 -->
<g id="edge20" class="edge">
<title>ast.Name object at 0x7f8b59d93190&#45;&gt;ast.Store object at 0x7f8b74db1720</title>
<path fill="none" stroke="black" d="M652.25,-359.7C652.14,-351.98 652.01,-342.71 651.89,-334.11"/>
<polygon fill="black" stroke="black" points="655.39,-334.05 651.74,-324.1 648.39,-334.15 655.39,-334.05"/>
</g>
<!-- ast.Name object at 0x7f8b59d92b30 -->
<g id="node21" class="node">
<title>ast.Name object at 0x7f8b59d92b30</title>
<path fill="#66cdaa" stroke="black" d="M745,-324C745,-324 710,-324 710,-324 704,-324 698,-318 698,-312 698,-312 698,-300 698,-300 698,-294 704,-288 710,-288 710,-288 745,-288 745,-288 751,-288 757,-294 757,-300 757,-300 757,-312 757,-312 757,-318 751,-324 745,-324"/>
<text text-anchor="middle" x="727.5" y="-302.3" font-family="Times,serif" font-size="14.00">Name</text>
</g>
<!-- ast.Call object at 0x7f8b59d91270&#45;&gt;ast.Name object at 0x7f8b59d92b30 -->
<g id="edge22" class="edge">
<title>ast.Call object at 0x7f8b59d91270&#45;&gt;ast.Name object at 0x7f8b59d92b30</title>
<path fill="none" stroke="black" d="M727.5,-359.7C727.5,-351.98 727.5,-342.71 727.5,-334.11"/>
<polygon fill="black" stroke="black" points="731,-334.1 727.5,-324.1 724,-334.1 731,-334.1"/>
</g>
<!-- ast.Name object at 0x7f8b59d92b30&#45;&gt;ast.Load object at 0x7f8b74db16c0 -->
<g id="edge23" class="edge">
<title>ast.Name object at 0x7f8b59d92b30&#45;&gt;ast.Load object at 0x7f8b74db16c0</title>
<path fill="none" stroke="black" d="M732.18,-287.81C742.59,-245.38 762.71,-134.58 708.5,-72 683.37,-42.98 572.46,-28.16 513.56,-22.22"/>
<polygon fill="black" stroke="black" points="513.84,-18.73 503.54,-21.25 513.16,-25.7 513.84,-18.73"/>
</g>
<!-- ast.Name object at 0x7f8b59d90c40 -->
<g id="node23" class="node">
<title>ast.Name object at 0x7f8b59d90c40</title>
<path fill="#66cdaa" stroke="black" d="M554,-396C554,-396 519,-396 519,-396 513,-396 507,-390 507,-384 507,-384 507,-372 507,-372 507,-366 513,-360 519,-360 519,-360 554,-360 554,-360 560,-360 566,-366 566,-372 566,-372 566,-384 566,-384 566,-390 560,-396 554,-396"/>
<text text-anchor="middle" x="536.5" y="-374.3" font-family="Times,serif" font-size="14.00">Name</text>
</g>
<!-- ast.For object at 0x7f8b59d937f0&#45;&gt;ast.Name object at 0x7f8b59d90c40 -->
<g id="edge25" class="edge">
<title>ast.For object at 0x7f8b59d937f0&#45;&gt;ast.Name object at 0x7f8b59d90c40</title>
<path fill="none" stroke="black" d="M528.97,-431.7C530.07,-423.98 531.4,-414.71 532.63,-406.11"/>
<polygon fill="black" stroke="black" points="536.11,-406.5 534.06,-396.1 529.18,-405.51 536.11,-406.5"/>
</g>
<!-- ast.Call object at 0x7f8b59d91f00 -->
<g id="node24" class="node">
<title>ast.Call object at 0x7f8b59d91f00</title>
<path fill="#66cdaa" stroke="black" d="M175.5,-252C175.5,-252 145.5,-252 145.5,-252 139.5,-252 133.5,-246 133.5,-240 133.5,-240 133.5,-228 133.5,-228 133.5,-222 139.5,-216 145.5,-216 145.5,-216 175.5,-216 175.5,-216 181.5,-216 187.5,-222 187.5,-228 187.5,-228 187.5,-240 187.5,-240 187.5,-246 181.5,-252 175.5,-252"/>
<text text-anchor="middle" x="160.5" y="-230.3" font-family="Times,serif" font-size="14.00">Call</text>
</g>
<!-- ast.For object at 0x7f8b59d937f0&#45;&gt;ast.Call object at 0x7f8b59d91f00 -->
<g id="edge27" class="edge">
<title>ast.For object at 0x7f8b59d937f0&#45;&gt;ast.Call object at 0x7f8b59d91f00</title>
<path fill="none" stroke="black" d="M499.24,-435.28C478.78,-424.84 450.15,-409.94 425.5,-396 341.95,-348.76 246.24,-289.23 195.83,-257.44"/>
<polygon fill="black" stroke="black" points="197.58,-254.4 187.25,-252.02 193.84,-260.32 197.58,-254.4"/>
</g>
<!-- ast.If object at 0x7f8b59d93cd0 -->
<g id="node28" class="node">
<title>ast.If object at 0x7f8b59d93cd0</title>
<path fill="#66cdaa" stroke="black" d="M476.5,-396C476.5,-396 446.5,-396 446.5,-396 440.5,-396 434.5,-390 434.5,-384 434.5,-384 434.5,-372 434.5,-372 434.5,-366 440.5,-360 446.5,-360 446.5,-360 476.5,-360 476.5,-360 482.5,-360 488.5,-366 488.5,-372 488.5,-372 488.5,-384 488.5,-384 488.5,-390 482.5,-396 476.5,-396"/>
<text text-anchor="middle" x="461.5" y="-374.3" font-family="Times,serif" font-size="14.00">If</text>
</g>
<!-- ast.For object at 0x7f8b59d937f0&#45;&gt;ast.If object at 0x7f8b59d93cd0 -->
<g id="edge33" class="edge">
<title>ast.For object at 0x7f8b59d937f0&#45;&gt;ast.If object at 0x7f8b59d93cd0</title>
<path fill="none" stroke="black" d="M510.43,-431.7C502.56,-423.22 492.94,-412.86 484.33,-403.58"/>
<polygon fill="black" stroke="black" points="486.75,-401.05 477.38,-396.1 481.62,-405.81 486.75,-401.05"/>
</g>
<!-- ast.Name object at 0x7f8b59d90c40&#45;&gt;ast.Store object at 0x7f8b74db1720 -->
<g id="edge26" class="edge">
<title>ast.Name object at 0x7f8b59d90c40&#45;&gt;ast.Store object at 0x7f8b74db1720</title>
<path fill="none" stroke="black" d="M564.63,-359.88C579.67,-350.72 598.37,-339.34 614.56,-329.48"/>
<polygon fill="black" stroke="black" points="616.54,-332.38 623.26,-324.19 612.9,-326.4 616.54,-332.38"/>
</g>
<!-- ast.Attribute object at 0x7f8b59d912a0 -->
<g id="node25" class="node">
<title>ast.Attribute object at 0x7f8b59d912a0</title>
<path fill="#66cdaa" stroke="black" d="M89.5,-180C89.5,-180 31.5,-180 31.5,-180 25.5,-180 19.5,-174 19.5,-168 19.5,-168 19.5,-156 19.5,-156 19.5,-150 25.5,-144 31.5,-144 31.5,-144 89.5,-144 89.5,-144 95.5,-144 101.5,-150 101.5,-156 101.5,-156 101.5,-168 101.5,-168 101.5,-174 95.5,-180 89.5,-180"/>
<text text-anchor="middle" x="60.5" y="-158.3" font-family="Times,serif" font-size="14.00">Attribute</text>
</g>
<!-- ast.Call object at 0x7f8b59d91f00&#45;&gt;ast.Attribute object at 0x7f8b59d912a0 -->
<g id="edge28" class="edge">
<title>ast.Call object at 0x7f8b59d91f00&#45;&gt;ast.Attribute object at 0x7f8b59d912a0</title>
<path fill="none" stroke="black" d="M136.04,-215.88C123.2,-206.89 107.3,-195.76 93.41,-186.03"/>
<polygon fill="black" stroke="black" points="95.26,-183.06 85.06,-180.19 91.24,-188.79 95.26,-183.06"/>
</g>
<!-- ast.Constant object at 0x7f8b59d93c40 -->
<g id="node27" class="node">
<title>ast.Constant object at 0x7f8b59d93c40</title>
<path fill="#66cdaa" stroke="black" d="M189,-180C189,-180 132,-180 132,-180 126,-180 120,-174 120,-168 120,-168 120,-156 120,-156 120,-150 126,-144 132,-144 132,-144 189,-144 189,-144 195,-144 201,-150 201,-156 201,-156 201,-168 201,-168 201,-174 195,-180 189,-180"/>
<text text-anchor="middle" x="160.5" y="-158.3" font-family="Times,serif" font-size="14.00">Constant</text>
</g>
<!-- ast.Call object at 0x7f8b59d91f00&#45;&gt;ast.Constant object at 0x7f8b59d93c40 -->
<g id="edge32" class="edge">
<title>ast.Call object at 0x7f8b59d91f00&#45;&gt;ast.Constant object at 0x7f8b59d93c40</title>
<path fill="none" stroke="black" d="M160.5,-215.7C160.5,-207.98 160.5,-198.71 160.5,-190.11"/>
<polygon fill="black" stroke="black" points="164,-190.1 160.5,-180.1 157,-190.1 164,-190.1"/>
</g>
<!-- ast.Attribute object at 0x7f8b59d912a0&#45;&gt;ast.Load object at 0x7f8b74db16c0 -->
<g id="edge31" class="edge">
<title>ast.Attribute object at 0x7f8b59d912a0&#45;&gt;ast.Load object at 0x7f8b74db16c0</title>
<path fill="none" stroke="black" d="M64.33,-143.78C69.88,-123.15 82.26,-89.23 106.5,-72 159.5,-34.32 356.31,-23.15 439.26,-20.08"/>
<polygon fill="black" stroke="black" points="439.38,-23.58 449.25,-19.73 439.14,-16.58 439.38,-23.58"/>
</g>
<!-- ast.Name object at 0x7f8b59d91a50 -->
<g id="node26" class="node">
<title>ast.Name object at 0x7f8b59d91a50</title>
<path fill="#66cdaa" stroke="black" d="M47,-108C47,-108 12,-108 12,-108 6,-108 0,-102 0,-96 0,-96 0,-84 0,-84 0,-78 6,-72 12,-72 12,-72 47,-72 47,-72 53,-72 59,-78 59,-84 59,-84 59,-96 59,-96 59,-102 53,-108 47,-108"/>
<text text-anchor="middle" x="29.5" y="-86.3" font-family="Times,serif" font-size="14.00">Name</text>
</g>
<!-- ast.Attribute object at 0x7f8b59d912a0&#45;&gt;ast.Name object at 0x7f8b59d91a50 -->
<g id="edge29" class="edge">
<title>ast.Attribute object at 0x7f8b59d912a0&#45;&gt;ast.Name object at 0x7f8b59d91a50</title>
<path fill="none" stroke="black" d="M52.84,-143.7C49.31,-135.73 45.04,-126.1 41.13,-117.26"/>
<polygon fill="black" stroke="black" points="44.32,-115.83 37.07,-108.1 37.92,-118.67 44.32,-115.83"/>
</g>
<!-- ast.Name object at 0x7f8b59d91a50&#45;&gt;ast.Load object at 0x7f8b74db16c0 -->
<g id="edge30" class="edge">
<title>ast.Name object at 0x7f8b59d91a50&#45;&gt;ast.Load object at 0x7f8b74db16c0</title>
<path fill="none" stroke="black" d="M59.01,-76.5C63.79,-74.79 68.74,-73.21 73.5,-72 205.21,-38.41 366.86,-25.36 438.84,-20.96"/>
<polygon fill="black" stroke="black" points="439.42,-24.43 449.2,-20.35 439.01,-17.44 439.42,-24.43"/>
</g>
<!-- ast.Compare object at 0x7f8b59d91540 -->
<g id="node29" class="node">
<title>ast.Compare object at 0x7f8b59d91540</title>
<path fill="#66cdaa" stroke="black" d="M516,-252C516,-252 459,-252 459,-252 453,-252 447,-246 447,-240 447,-240 447,-228 447,-228 447,-222 453,-216 459,-216 459,-216 516,-216 516,-216 522,-216 528,-222 528,-228 528,-228 528,-240 528,-240 528,-246 522,-252 516,-252"/>
<text text-anchor="middle" x="487.5" y="-230.3" font-family="Times,serif" font-size="14.00">Compare</text>
</g>
<!-- ast.If object at 0x7f8b59d93cd0&#45;&gt;ast.Compare object at 0x7f8b59d91540 -->
<g id="edge34" class="edge">
<title>ast.If object at 0x7f8b59d93cd0&#45;&gt;ast.Compare object at 0x7f8b59d91540</title>
<path fill="none" stroke="black" d="M464.64,-359.87C469.07,-335.67 477.21,-291.21 482.48,-262.39"/>
<polygon fill="black" stroke="black" points="485.99,-262.66 484.35,-252.19 479.11,-261.4 485.99,-262.66"/>
</g>
<!-- ast.Expr object at 0x7f8b59d908b0 -->
<g id="node35" class="node">
<title>ast.Expr object at 0x7f8b59d908b0</title>
<path fill="#66cdaa" stroke="black" d="M390.5,-324C390.5,-324 360.5,-324 360.5,-324 354.5,-324 348.5,-318 348.5,-312 348.5,-312 348.5,-300 348.5,-300 348.5,-294 354.5,-288 360.5,-288 360.5,-288 390.5,-288 390.5,-288 396.5,-288 402.5,-294 402.5,-300 402.5,-300 402.5,-312 402.5,-312 402.5,-318 396.5,-324 390.5,-324"/>
<text text-anchor="middle" x="375.5" y="-302.3" font-family="Times,serif" font-size="14.00">Expr</text>
</g>
<!-- ast.If object at 0x7f8b59d93cd0&#45;&gt;ast.Expr object at 0x7f8b59d908b0 -->
<g id="edge42" class="edge">
<title>ast.If object at 0x7f8b59d93cd0&#45;&gt;ast.Expr object at 0x7f8b59d908b0</title>
<path fill="none" stroke="black" d="M440.24,-359.7C429.41,-350.88 416.08,-340.03 404.34,-330.47"/>
<polygon fill="black" stroke="black" points="406.48,-327.7 396.51,-324.1 402.06,-333.13 406.48,-327.7"/>
</g>
<!-- ast.Call object at 0x7f8b59d91840 -->
<g id="node30" class="node">
<title>ast.Call object at 0x7f8b59d91840</title>
<path fill="#66cdaa" stroke="black" d="M438.5,-180C438.5,-180 408.5,-180 408.5,-180 402.5,-180 396.5,-174 396.5,-168 396.5,-168 396.5,-156 396.5,-156 396.5,-150 402.5,-144 408.5,-144 408.5,-144 438.5,-144 438.5,-144 444.5,-144 450.5,-150 450.5,-156 450.5,-156 450.5,-168 450.5,-168 450.5,-174 444.5,-180 438.5,-180"/>
<text text-anchor="middle" x="423.5" y="-158.3" font-family="Times,serif" font-size="14.00">Call</text>
</g>
<!-- ast.Compare object at 0x7f8b59d91540&#45;&gt;ast.Call object at 0x7f8b59d91840 -->
<g id="edge35" class="edge">
<title>ast.Compare object at 0x7f8b59d91540&#45;&gt;ast.Call object at 0x7f8b59d91840</title>
<path fill="none" stroke="black" d="M471.68,-215.7C463.93,-207.22 454.46,-196.86 445.98,-187.58"/>
<polygon fill="black" stroke="black" points="448.47,-185.12 439.14,-180.1 443.3,-189.85 448.47,-185.12"/>
</g>
<!-- ast.Eq object at 0x7f8b74db1ff0 -->
<g id="node33" class="node">
<title>ast.Eq object at 0x7f8b74db1ff0</title>
<path fill="#66cdaa" stroke="black" d="M510.5,-180C510.5,-180 480.5,-180 480.5,-180 474.5,-180 468.5,-174 468.5,-168 468.5,-168 468.5,-156 468.5,-156 468.5,-150 474.5,-144 480.5,-144 480.5,-144 510.5,-144 510.5,-144 516.5,-144 522.5,-150 522.5,-156 522.5,-156 522.5,-168 522.5,-168 522.5,-174 516.5,-180 510.5,-180"/>
<text text-anchor="middle" x="495.5" y="-158.3" font-family="Times,serif" font-size="14.00">Eq</text>
</g>
<!-- ast.Compare object at 0x7f8b59d91540&#45;&gt;ast.Eq object at 0x7f8b74db1ff0 -->
<g id="edge40" class="edge">
<title>ast.Compare object at 0x7f8b59d91540&#45;&gt;ast.Eq object at 0x7f8b74db1ff0</title>
<path fill="none" stroke="black" d="M489.48,-215.7C490.36,-207.98 491.42,-198.71 492.4,-190.11"/>
<polygon fill="black" stroke="black" points="495.89,-190.44 493.55,-180.1 488.93,-189.64 495.89,-190.44"/>
</g>
<!-- ast.Constant object at 0x7f8b59d90520 -->
<g id="node34" class="node">
<title>ast.Constant object at 0x7f8b59d90520</title>
<path fill="#66cdaa" stroke="black" d="M610,-180C610,-180 553,-180 553,-180 547,-180 541,-174 541,-168 541,-168 541,-156 541,-156 541,-150 547,-144 553,-144 553,-144 610,-144 610,-144 616,-144 622,-150 622,-156 622,-156 622,-168 622,-168 622,-174 616,-180 610,-180"/>
<text text-anchor="middle" x="581.5" y="-158.3" font-family="Times,serif" font-size="14.00">Constant</text>
</g>
<!-- ast.Compare object at 0x7f8b59d91540&#45;&gt;ast.Constant object at 0x7f8b59d90520 -->
<g id="edge41" class="edge">
<title>ast.Compare object at 0x7f8b59d91540&#45;&gt;ast.Constant object at 0x7f8b59d90520</title>
<path fill="none" stroke="black" d="M510.74,-215.7C522.69,-206.8 537.42,-195.82 550.35,-186.2"/>
<polygon fill="black" stroke="black" points="552.6,-188.88 558.53,-180.1 548.42,-183.27 552.6,-188.88"/>
</g>
<!-- ast.Name object at 0x7f8b59d909d0 -->
<g id="node31" class="node">
<title>ast.Name object at 0x7f8b59d909d0</title>
<path fill="#66cdaa" stroke="black" d="M533,-108C533,-108 498,-108 498,-108 492,-108 486,-102 486,-96 486,-96 486,-84 486,-84 486,-78 492,-72 498,-72 498,-72 533,-72 533,-72 539,-72 545,-78 545,-84 545,-84 545,-96 545,-96 545,-102 539,-108 533,-108"/>
<text text-anchor="middle" x="515.5" y="-86.3" font-family="Times,serif" font-size="14.00">Name</text>
</g>
<!-- ast.Call object at 0x7f8b59d91840&#45;&gt;ast.Name object at 0x7f8b59d909d0 -->
<g id="edge36" class="edge">
<title>ast.Call object at 0x7f8b59d91840&#45;&gt;ast.Name object at 0x7f8b59d909d0</title>
<path fill="none" stroke="black" d="M446.24,-143.7C457.94,-134.8 472.36,-123.82 485.01,-114.2"/>
<polygon fill="black" stroke="black" points="487.18,-116.94 493.02,-108.1 482.94,-111.37 487.18,-116.94"/>
</g>
<!-- ast.Name object at 0x7f8b59d92890 -->
<g id="node32" class="node">
<title>ast.Name object at 0x7f8b59d92890</title>
<path fill="#66cdaa" stroke="black" d="M456,-108C456,-108 421,-108 421,-108 415,-108 409,-102 409,-96 409,-96 409,-84 409,-84 409,-78 415,-72 421,-72 421,-72 456,-72 456,-72 462,-72 468,-78 468,-84 468,-84 468,-96 468,-96 468,-102 462,-108 456,-108"/>
<text text-anchor="middle" x="438.5" y="-86.3" font-family="Times,serif" font-size="14.00">Name</text>
</g>
<!-- ast.Call object at 0x7f8b59d91840&#45;&gt;ast.Name object at 0x7f8b59d92890 -->
<g id="edge38" class="edge">
<title>ast.Call object at 0x7f8b59d91840&#45;&gt;ast.Name object at 0x7f8b59d92890</title>
<path fill="none" stroke="black" d="M427.21,-143.7C428.86,-135.98 430.85,-126.71 432.69,-118.11"/>
<polygon fill="black" stroke="black" points="436.16,-118.62 434.83,-108.1 429.32,-117.15 436.16,-118.62"/>
</g>
<!-- ast.Name object at 0x7f8b59d909d0&#45;&gt;ast.Load object at 0x7f8b74db16c0 -->
<g id="edge37" class="edge">
<title>ast.Name object at 0x7f8b59d909d0&#45;&gt;ast.Load object at 0x7f8b74db16c0</title>
<path fill="none" stroke="black" d="M505.86,-71.7C501.37,-63.64 495.94,-53.89 490.98,-44.98"/>
<polygon fill="black" stroke="black" points="493.95,-43.14 486.03,-36.1 487.84,-46.54 493.95,-43.14"/>
</g>
<!-- ast.Name object at 0x7f8b59d92890&#45;&gt;ast.Load object at 0x7f8b74db16c0 -->
<g id="edge39" class="edge">
<title>ast.Name object at 0x7f8b59d92890&#45;&gt;ast.Load object at 0x7f8b74db16c0</title>
<path fill="none" stroke="black" d="M447.89,-71.7C452.26,-63.64 457.56,-53.89 462.4,-44.98"/>
<polygon fill="black" stroke="black" points="465.52,-46.56 467.21,-36.1 459.37,-43.22 465.52,-46.56"/>
</g>
<!-- ast.Call object at 0x7f8b59d93370 -->
<g id="node36" class="node">
<title>ast.Call object at 0x7f8b59d93370</title>
<path fill="#66cdaa" stroke="black" d="M351.5,-252C351.5,-252 321.5,-252 321.5,-252 315.5,-252 309.5,-246 309.5,-240 309.5,-240 309.5,-228 309.5,-228 309.5,-222 315.5,-216 321.5,-216 321.5,-216 351.5,-216 351.5,-216 357.5,-216 363.5,-222 363.5,-228 363.5,-228 363.5,-240 363.5,-240 363.5,-246 357.5,-252 351.5,-252"/>
<text text-anchor="middle" x="336.5" y="-230.3" font-family="Times,serif" font-size="14.00">Call</text>
</g>
<!-- ast.Expr object at 0x7f8b59d908b0&#45;&gt;ast.Call object at 0x7f8b59d93370 -->
<g id="edge43" class="edge">
<title>ast.Expr object at 0x7f8b59d908b0&#45;&gt;ast.Call object at 0x7f8b59d93370</title>
<path fill="none" stroke="black" d="M365.86,-287.7C361.37,-279.64 355.94,-269.89 350.98,-260.98"/>
<polygon fill="black" stroke="black" points="353.95,-259.14 346.03,-252.1 347.84,-262.54 353.95,-259.14"/>
</g>
<!-- ast.Attribute object at 0x7f8b59d92260 -->
<g id="node37" class="node">
<title>ast.Attribute object at 0x7f8b59d92260</title>
<path fill="#66cdaa" stroke="black" d="M365.5,-180C365.5,-180 307.5,-180 307.5,-180 301.5,-180 295.5,-174 295.5,-168 295.5,-168 295.5,-156 295.5,-156 295.5,-150 301.5,-144 307.5,-144 307.5,-144 365.5,-144 365.5,-144 371.5,-144 377.5,-150 377.5,-156 377.5,-156 377.5,-168 377.5,-168 377.5,-174 371.5,-180 365.5,-180"/>
<text text-anchor="middle" x="336.5" y="-158.3" font-family="Times,serif" font-size="14.00">Attribute</text>
</g>
<!-- ast.Call object at 0x7f8b59d93370&#45;&gt;ast.Attribute object at 0x7f8b59d92260 -->
<g id="edge44" class="edge">
<title>ast.Call object at 0x7f8b59d93370&#45;&gt;ast.Attribute object at 0x7f8b59d92260</title>
<path fill="none" stroke="black" d="M336.5,-215.7C336.5,-207.98 336.5,-198.71 336.5,-190.11"/>
<polygon fill="black" stroke="black" points="340,-190.1 336.5,-180.1 333,-190.1 340,-190.1"/>
</g>
<!-- ast.Call object at 0x7f8b57352770 -->
<g id="node39" class="node">
<title>ast.Call object at 0x7f8b57352770</title>
<path fill="#66cdaa" stroke="black" d="M261.5,-180C261.5,-180 231.5,-180 231.5,-180 225.5,-180 219.5,-174 219.5,-168 219.5,-168 219.5,-156 219.5,-156 219.5,-150 225.5,-144 231.5,-144 231.5,-144 261.5,-144 261.5,-144 267.5,-144 273.5,-150 273.5,-156 273.5,-156 273.5,-168 273.5,-168 273.5,-174 267.5,-180 261.5,-180"/>
<text text-anchor="middle" x="246.5" y="-158.3" font-family="Times,serif" font-size="14.00">Call</text>
</g>
<!-- ast.Call object at 0x7f8b59d93370&#45;&gt;ast.Call object at 0x7f8b57352770 -->
<g id="edge48" class="edge">
<title>ast.Call object at 0x7f8b59d93370&#45;&gt;ast.Call object at 0x7f8b57352770</title>
<path fill="none" stroke="black" d="M314.25,-215.7C302.92,-206.88 288.97,-196.03 276.68,-186.47"/>
<polygon fill="black" stroke="black" points="278.53,-183.48 268.49,-180.1 274.24,-189.01 278.53,-183.48"/>
</g>
<!-- ast.Attribute object at 0x7f8b59d92260&#45;&gt;ast.Load object at 0x7f8b74db16c0 -->
<g id="edge47" class="edge">
<title>ast.Attribute object at 0x7f8b59d92260&#45;&gt;ast.Load object at 0x7f8b74db16c0</title>
<path fill="none" stroke="black" d="M346.09,-143.92C357.28,-124.94 377.13,-94.07 399.5,-72 411.72,-59.94 427,-48.79 440.71,-39.86"/>
<polygon fill="black" stroke="black" points="442.88,-42.64 449.45,-34.33 439.13,-36.72 442.88,-42.64"/>
</g>
<!-- ast.Name object at 0x7f8b57351a80 -->
<g id="node38" class="node">
<title>ast.Name object at 0x7f8b57351a80</title>
<path fill="#66cdaa" stroke="black" d="M340,-108C340,-108 305,-108 305,-108 299,-108 293,-102 293,-96 293,-96 293,-84 293,-84 293,-78 299,-72 305,-72 305,-72 340,-72 340,-72 346,-72 352,-78 352,-84 352,-84 352,-96 352,-96 352,-102 346,-108 340,-108"/>
<text text-anchor="middle" x="322.5" y="-86.3" font-family="Times,serif" font-size="14.00">Name</text>
</g>
<!-- ast.Attribute object at 0x7f8b59d92260&#45;&gt;ast.Name object at 0x7f8b57351a80 -->
<g id="edge45" class="edge">
<title>ast.Attribute object at 0x7f8b59d92260&#45;&gt;ast.Name object at 0x7f8b57351a80</title>
<path fill="none" stroke="black" d="M333.04,-143.7C331.5,-135.98 329.64,-126.71 327.92,-118.11"/>
<polygon fill="black" stroke="black" points="331.31,-117.22 325.92,-108.1 324.45,-118.6 331.31,-117.22"/>
</g>
<!-- ast.Name object at 0x7f8b57351a80&#45;&gt;ast.Load object at 0x7f8b74db16c0 -->
<g id="edge46" class="edge">
<title>ast.Name object at 0x7f8b57351a80&#45;&gt;ast.Load object at 0x7f8b74db16c0</title>
<path fill="none" stroke="black" d="M352.19,-75.5C377.26,-64.11 413.24,-47.75 440.05,-35.57"/>
<polygon fill="black" stroke="black" points="441.82,-38.61 449.48,-31.28 438.92,-32.23 441.82,-38.61"/>
</g>
<!-- ast.Attribute object at 0x7f8b573501f0 -->
<g id="node40" class="node">
<title>ast.Attribute object at 0x7f8b573501f0</title>
<path fill="#66cdaa" stroke="black" d="M185.5,-108C185.5,-108 127.5,-108 127.5,-108 121.5,-108 115.5,-102 115.5,-96 115.5,-96 115.5,-84 115.5,-84 115.5,-78 121.5,-72 127.5,-72 127.5,-72 185.5,-72 185.5,-72 191.5,-72 197.5,-78 197.5,-84 197.5,-84 197.5,-96 197.5,-96 197.5,-102 191.5,-108 185.5,-108"/>
<text text-anchor="middle" x="156.5" y="-86.3" font-family="Times,serif" font-size="14.00">Attribute</text>
</g>
<!-- ast.Call object at 0x7f8b57352770&#45;&gt;ast.Attribute object at 0x7f8b573501f0 -->
<g id="edge49" class="edge">
<title>ast.Call object at 0x7f8b57352770&#45;&gt;ast.Attribute object at 0x7f8b573501f0</title>
<path fill="none" stroke="black" d="M224.25,-143.7C212.92,-134.88 198.97,-124.03 186.68,-114.47"/>
<polygon fill="black" stroke="black" points="188.53,-111.48 178.49,-108.1 184.24,-117.01 188.53,-111.48"/>
</g>
<!-- ast.Name object at 0x7f8b57353790 -->
<g id="node42" class="node">
<title>ast.Name object at 0x7f8b57353790</title>
<path fill="#66cdaa" stroke="black" d="M263,-108C263,-108 228,-108 228,-108 222,-108 216,-102 216,-96 216,-96 216,-84 216,-84 216,-78 222,-72 228,-72 228,-72 263,-72 263,-72 269,-72 275,-78 275,-84 275,-84 275,-96 275,-96 275,-102 269,-108 263,-108"/>
<text text-anchor="middle" x="245.5" y="-86.3" font-family="Times,serif" font-size="14.00">Name</text>
</g>
<!-- ast.Call object at 0x7f8b57352770&#45;&gt;ast.Name object at 0x7f8b57353790 -->
<g id="edge52" class="edge">
<title>ast.Call object at 0x7f8b57352770&#45;&gt;ast.Name object at 0x7f8b57353790</title>
<path fill="none" stroke="black" d="M246.25,-143.7C246.14,-135.98 246.01,-126.71 245.89,-118.11"/>
<polygon fill="black" stroke="black" points="249.39,-118.05 245.74,-108.1 242.39,-118.15 249.39,-118.05"/>
</g>
<!-- ast.Attribute object at 0x7f8b573501f0&#45;&gt;ast.Load object at 0x7f8b74db16c0 -->
<g id="edge51" class="edge">
<title>ast.Attribute object at 0x7f8b573501f0&#45;&gt;ast.Load object at 0x7f8b74db16c0</title>
<path fill="none" stroke="black" d="M197.57,-74.55C200.58,-73.64 203.58,-72.78 206.5,-72 288.54,-50.11 386.82,-33.06 439.24,-24.69"/>
<polygon fill="black" stroke="black" points="440.07,-28.1 449.4,-23.09 438.98,-21.19 440.07,-28.1"/>
</g>
<!-- ast.Constant object at 0x7f8b573515d0 -->
<g id="node41" class="node">
<title>ast.Constant object at 0x7f8b573515d0</title>
<path fill="#66cdaa" stroke="black" d="M185,-36C185,-36 128,-36 128,-36 122,-36 116,-30 116,-24 116,-24 116,-12 116,-12 116,-6 122,0 128,0 128,0 185,0 185,0 191,0 197,-6 197,-12 197,-12 197,-24 197,-24 197,-30 191,-36 185,-36"/>
<text text-anchor="middle" x="156.5" y="-14.3" font-family="Times,serif" font-size="14.00">Constant</text>
</g>
<!-- ast.Attribute object at 0x7f8b573501f0&#45;&gt;ast.Constant object at 0x7f8b573515d0 -->
<g id="edge50" class="edge">
<title>ast.Attribute object at 0x7f8b573501f0&#45;&gt;ast.Constant object at 0x7f8b573515d0</title>
<path fill="none" stroke="black" d="M156.5,-71.7C156.5,-63.98 156.5,-54.71 156.5,-46.11"/>
<polygon fill="black" stroke="black" points="160,-46.1 156.5,-36.1 153,-46.1 160,-46.1"/>
</g>
<!-- ast.Name object at 0x7f8b57353790&#45;&gt;ast.Load object at 0x7f8b74db16c0 -->
<g id="edge53" class="edge">
<title>ast.Name object at 0x7f8b57353790&#45;&gt;ast.Load object at 0x7f8b74db16c0</title>
<path fill="none" stroke="black" d="M275.19,-75.2C277.98,-74.06 280.78,-72.98 283.5,-72 336.64,-52.94 400.07,-36.73 439.33,-27.42"/>
<polygon fill="black" stroke="black" points="440.31,-30.79 449.24,-25.1 438.71,-23.97 440.31,-30.79"/>
</g>
<!-- ast.Call object at 0x7f8b573519f0 -->
<g id="node44" class="node">
<title>ast.Call object at 0x7f8b573519f0</title>
<path fill="#66cdaa" stroke="black" d="M682.5,-180C682.5,-180 652.5,-180 652.5,-180 646.5,-180 640.5,-174 640.5,-168 640.5,-168 640.5,-156 640.5,-156 640.5,-150 646.5,-144 652.5,-144 652.5,-144 682.5,-144 682.5,-144 688.5,-144 694.5,-150 694.5,-156 694.5,-156 694.5,-168 694.5,-168 694.5,-174 688.5,-180 682.5,-180"/>
<text text-anchor="middle" x="667.5" y="-158.3" font-family="Times,serif" font-size="14.00">Call</text>
</g>
<!-- ast.Return object at 0x7f8b57353970&#45;&gt;ast.Call object at 0x7f8b573519f0 -->
<g id="edge55" class="edge">
<title>ast.Return object at 0x7f8b57353970&#45;&gt;ast.Call object at 0x7f8b573519f0</title>
<path fill="none" stroke="black" d="M603.68,-431.8C602.69,-402.05 602.42,-339.25 614.5,-288 622.9,-252.35 640.63,-213.93 653.27,-189.23"/>
<polygon fill="black" stroke="black" points="656.48,-190.65 658,-180.16 650.27,-187.41 656.48,-190.65"/>
</g>
<!-- ast.Name object at 0x7f8b57353460 -->
<g id="node45" class="node">
<title>ast.Name object at 0x7f8b57353460</title>
<path fill="#66cdaa" stroke="black" d="M687,-108C687,-108 652,-108 652,-108 646,-108 640,-102 640,-96 640,-96 640,-84 640,-84 640,-78 646,-72 652,-72 652,-72 687,-72 687,-72 693,-72 699,-78 699,-84 699,-84 699,-96 699,-96 699,-102 693,-108 687,-108"/>
<text text-anchor="middle" x="669.5" y="-86.3" font-family="Times,serif" font-size="14.00">Name</text>
</g>
<!-- ast.Call object at 0x7f8b573519f0&#45;&gt;ast.Name object at 0x7f8b57353460 -->
<g id="edge56" class="edge">
<title>ast.Call object at 0x7f8b573519f0&#45;&gt;ast.Name object at 0x7f8b57353460</title>
<path fill="none" stroke="black" d="M667.99,-143.7C668.21,-135.98 668.48,-126.71 668.73,-118.11"/>
<polygon fill="black" stroke="black" points="672.22,-118.2 669.01,-108.1 665.23,-118 672.22,-118.2"/>
</g>
<!-- ast.Name object at 0x7f8b57352170 -->
<g id="node46" class="node">
<title>ast.Name object at 0x7f8b57352170</title>
<path fill="#66cdaa" stroke="black" d="M610,-108C610,-108 575,-108 575,-108 569,-108 563,-102 563,-96 563,-96 563,-84 563,-84 563,-78 569,-72 575,-72 575,-72 610,-72 610,-72 616,-72 622,-78 622,-84 622,-84 622,-96 622,-96 622,-102 616,-108 610,-108"/>
<text text-anchor="middle" x="592.5" y="-86.3" font-family="Times,serif" font-size="14.00">Name</text>
</g>
<!-- ast.Call object at 0x7f8b573519f0&#45;&gt;ast.Name object at 0x7f8b57352170 -->
<g id="edge58" class="edge">
<title>ast.Call object at 0x7f8b573519f0&#45;&gt;ast.Name object at 0x7f8b57352170</title>
<path fill="none" stroke="black" d="M648.96,-143.7C639.7,-135.05 628.34,-124.45 618.24,-115.03"/>
<polygon fill="black" stroke="black" points="620.52,-112.37 610.83,-108.1 615.75,-117.49 620.52,-112.37"/>
</g>
<!-- ast.Name object at 0x7f8b57353460&#45;&gt;ast.Load object at 0x7f8b74db16c0 -->
<g id="edge57" class="edge">
<title>ast.Name object at 0x7f8b57353460&#45;&gt;ast.Load object at 0x7f8b74db16c0</title>
<path fill="none" stroke="black" d="M639.74,-75.38C636.97,-74.2 634.19,-73.06 631.5,-72 591.62,-56.3 544.99,-40.72 513.36,-30.56"/>
<polygon fill="black" stroke="black" points="514.24,-27.16 503.65,-27.45 512.11,-33.83 514.24,-27.16"/>
</g>
<!-- ast.Name object at 0x7f8b57352170&#45;&gt;ast.Load object at 0x7f8b74db16c0 -->
<g id="edge59" class="edge">
<title>ast.Name object at 0x7f8b57352170&#45;&gt;ast.Load object at 0x7f8b74db16c0</title>
<path fill="none" stroke="black" d="M564.12,-71.88C548.62,-62.52 529.25,-50.83 512.67,-40.83"/>
<polygon fill="black" stroke="black" points="514.16,-37.64 503.79,-35.47 510.54,-43.63 514.16,-37.64"/>
</g>
</g>
</svg>
