<?xml version="1.0" encoding="UTF-8" standalone="no"?>
<!DOCTYPE svg PUBLIC "-//W3C//DTD SVG 1.1//EN"
 "http://www.w3.org/Graphics/SVG/1.1/DTD/svg11.dtd">
<!-- Generated by graphviz version 2.43.0 (0)
 -->
<!-- Title: %3 Pages: 1 -->
<svg width="886pt" height="548pt"
 viewBox="0.00 0.00 885.50 548.00" xmlns="http://www.w3.org/2000/svg" xmlns:xlink="http://www.w3.org/1999/xlink">
<g id="graph0" class="graph" transform="scale(1 1) rotate(0) translate(4 544)">
<title>%3</title>
<polygon fill="white" stroke="transparent" points="-4,4 -4,-544 881.5,-544 881.5,4 -4,4"/>
<!-- ast.Module object at 0x7f77bff2c160 -->
<g id="node1" class="node">
<title>ast.Module object at 0x7f77bff2c160</title>
<path fill="#66cdaa" stroke="black" d="M549,-540C549,-540 514,-540 514,-540 508,-540 502,-534 502,-528 502,-528 502,-516 502,-516 502,-510 508,-504 514,-504 514,-504 549,-504 549,-504 555,-504 561,-510 561,-516 561,-516 561,-528 561,-528 561,-534 555,-540 549,-540"/>
<text text-anchor="middle" x="531.5" y="-518.3" font-family="Times,serif" font-size="14.00">Module</text>
</g>
<!-- ast.FunctionDef object at 0x7f77bff2c130 -->
<g id="node2" class="node">
<title>ast.FunctionDef object at 0x7f77bff2c130</title>
<path fill="#66cdaa" stroke="black" d="M562,-468C562,-468 501,-468 501,-468 495,-468 489,-462 489,-456 489,-456 489,-444 489,-444 489,-438 495,-432 501,-432 501,-432 562,-432 562,-432 568,-432 574,-438 574,-444 574,-444 574,-456 574,-456 574,-462 568,-468 562,-468"/>
<text text-anchor="middle" x="531.5" y="-446.3" font-family="Times,serif" font-size="14.00">FunctionDef</text>
</g>
<!-- ast.Module object at 0x7f77bff2c160&#45;&gt;ast.FunctionDef object at 0x7f77bff2c130 -->
<g id="edge1" class="edge">
<title>ast.Module object at 0x7f77bff2c160&#45;&gt;ast.FunctionDef object at 0x7f77bff2c130</title>
<path fill="none" stroke="black" d="M531.5,-503.7C531.5,-495.98 531.5,-486.71 531.5,-478.11"/>
<polygon fill="black" stroke="black" points="535,-478.1 531.5,-468.1 528,-478.1 535,-478.1"/>
</g>
<!-- ast.arguments object at 0x7f77bff2c040 -->
<g id="node3" class="node">
<title>ast.arguments object at 0x7f77bff2c040</title>
<path fill="#66cdaa" stroke="black" d="M355.5,-396C355.5,-396 305.5,-396 305.5,-396 299.5,-396 293.5,-390 293.5,-384 293.5,-384 293.5,-372 293.5,-372 293.5,-366 299.5,-360 305.5,-360 305.5,-360 355.5,-360 355.5,-360 361.5,-360 367.5,-366 367.5,-372 367.5,-372 367.5,-384 367.5,-384 367.5,-390 361.5,-396 355.5,-396"/>
<text text-anchor="middle" x="330.5" y="-374.3" font-family="Times,serif" font-size="14.00">arguments</text>
</g>
<!-- ast.FunctionDef object at 0x7f77bff2c130&#45;&gt;ast.arguments object at 0x7f77bff2c040 -->
<g id="edge2" class="edge">
<title>ast.FunctionDef object at 0x7f77bff2c130&#45;&gt;ast.arguments object at 0x7f77bff2c040</title>
<path fill="none" stroke="black" d="M488.87,-434.15C456.15,-422.76 411.01,-407.04 377.29,-395.29"/>
<polygon fill="black" stroke="black" points="378.25,-391.92 367.66,-391.94 375.95,-398.54 378.25,-391.92"/>
</g>
<!-- ast.If object at 0x7f77bff2c0a0 -->
<g id="node5" class="node">
<title>ast.If object at 0x7f77bff2c0a0</title>
<path fill="#66cdaa" stroke="black" d="M286.5,-324C286.5,-324 256.5,-324 256.5,-324 250.5,-324 244.5,-318 244.5,-312 244.5,-312 244.5,-300 244.5,-300 244.5,-294 250.5,-288 256.5,-288 256.5,-288 286.5,-288 286.5,-288 292.5,-288 298.5,-294 298.5,-300 298.5,-300 298.5,-312 298.5,-312 298.5,-318 292.5,-324 286.5,-324"/>
<text text-anchor="middle" x="271.5" y="-302.3" font-family="Times,serif" font-size="14.00">If</text>
</g>
<!-- ast.FunctionDef object at 0x7f77bff2c130&#45;&gt;ast.If object at 0x7f77bff2c0a0 -->
<g id="edge4" class="edge">
<title>ast.FunctionDef object at 0x7f77bff2c130&#45;&gt;ast.If object at 0x7f77bff2c0a0</title>
<path fill="none" stroke="black" d="M502.91,-431.97C472,-413.7 421.16,-384.07 376.5,-360 354,-347.87 328.4,-334.93 308.11,-324.88"/>
<polygon fill="black" stroke="black" points="309.42,-321.62 298.9,-320.33 306.32,-327.9 309.42,-321.62"/>
</g>
<!-- ast.Assign object at 0x7f77bff2c2b0 -->
<g id="node15" class="node">
<title>ast.Assign object at 0x7f77bff2c2b0</title>
<path fill="#66cdaa" stroke="black" d="M711.5,-396C711.5,-396 681.5,-396 681.5,-396 675.5,-396 669.5,-390 669.5,-384 669.5,-384 669.5,-372 669.5,-372 669.5,-366 675.5,-360 681.5,-360 681.5,-360 711.5,-360 711.5,-360 717.5,-360 723.5,-366 723.5,-372 723.5,-372 723.5,-384 723.5,-384 723.5,-390 717.5,-396 711.5,-396"/>
<text text-anchor="middle" x="696.5" y="-374.3" font-family="Times,serif" font-size="14.00">Assign</text>
</g>
<!-- ast.FunctionDef object at 0x7f77bff2c130&#45;&gt;ast.Assign object at 0x7f77bff2c2b0 -->
<g id="edge15" class="edge">
<title>ast.FunctionDef object at 0x7f77bff2c130&#45;&gt;ast.Assign object at 0x7f77bff2c2b0</title>
<path fill="none" stroke="black" d="M571.86,-431.88C598.77,-420.46 633.84,-405.58 659.92,-394.52"/>
<polygon fill="black" stroke="black" points="661.61,-397.61 669.45,-390.48 658.87,-391.16 661.61,-397.61"/>
</g>
<!-- ast.For object at 0x7f77bff2c670 -->
<g id="node19" class="node">
<title>ast.For object at 0x7f77bff2c670</title>
<path fill="#66cdaa" stroke="black" d="M546.5,-396C546.5,-396 516.5,-396 516.5,-396 510.5,-396 504.5,-390 504.5,-384 504.5,-384 504.5,-372 504.5,-372 504.5,-366 510.5,-360 516.5,-360 516.5,-360 546.5,-360 546.5,-360 552.5,-360 558.5,-366 558.5,-372 558.5,-372 558.5,-384 558.5,-384 558.5,-390 552.5,-396 546.5,-396"/>
<text text-anchor="middle" x="531.5" y="-374.3" font-family="Times,serif" font-size="14.00">For</text>
</g>
<!-- ast.FunctionDef object at 0x7f77bff2c130&#45;&gt;ast.For object at 0x7f77bff2c670 -->
<g id="edge19" class="edge">
<title>ast.FunctionDef object at 0x7f77bff2c130&#45;&gt;ast.For object at 0x7f77bff2c670</title>
<path fill="none" stroke="black" d="M531.5,-431.7C531.5,-423.98 531.5,-414.71 531.5,-406.11"/>
<polygon fill="black" stroke="black" points="535,-406.1 531.5,-396.1 528,-406.1 535,-406.1"/>
</g>
<!-- ast.Return object at 0x7f77bff86200 -->
<g id="node37" class="node">
<title>ast.Return object at 0x7f77bff86200</title>
<path fill="#66cdaa" stroke="black" d="M857.5,-396C857.5,-396 827.5,-396 827.5,-396 821.5,-396 815.5,-390 815.5,-384 815.5,-384 815.5,-372 815.5,-372 815.5,-366 821.5,-360 827.5,-360 827.5,-360 857.5,-360 857.5,-360 863.5,-360 869.5,-366 869.5,-372 869.5,-372 869.5,-384 869.5,-384 869.5,-390 863.5,-396 857.5,-396"/>
<text text-anchor="middle" x="842.5" y="-374.3" font-family="Times,serif" font-size="14.00">Return</text>
</g>
<!-- ast.FunctionDef object at 0x7f77bff2c130&#45;&gt;ast.Return object at 0x7f77bff86200 -->
<g id="edge43" class="edge">
<title>ast.FunctionDef object at 0x7f77bff2c130&#45;&gt;ast.Return object at 0x7f77bff86200</title>
<path fill="none" stroke="black" d="M574.09,-439.41C635.3,-425.64 747.13,-400.47 805.23,-387.39"/>
<polygon fill="black" stroke="black" points="806.11,-390.78 815.09,-385.17 804.57,-383.95 806.11,-390.78"/>
</g>
<!-- ast.arg object at 0x7f77bff2c0d0 -->
<g id="node4" class="node">
<title>ast.arg object at 0x7f77bff2c0d0</title>
<path fill="#66cdaa" stroke="black" d="M214.5,-324C214.5,-324 184.5,-324 184.5,-324 178.5,-324 172.5,-318 172.5,-312 172.5,-312 172.5,-300 172.5,-300 172.5,-294 178.5,-288 184.5,-288 184.5,-288 214.5,-288 214.5,-288 220.5,-288 226.5,-294 226.5,-300 226.5,-300 226.5,-312 226.5,-312 226.5,-318 220.5,-324 214.5,-324"/>
<text text-anchor="middle" x="199.5" y="-302.3" font-family="Times,serif" font-size="14.00">arg</text>
</g>
<!-- ast.arguments object at 0x7f77bff2c040&#45;&gt;ast.arg object at 0x7f77bff2c0d0 -->
<g id="edge3" class="edge">
<title>ast.arguments object at 0x7f77bff2c040&#45;&gt;ast.arg object at 0x7f77bff2c0d0</title>
<path fill="none" stroke="black" d="M298.45,-359.88C279.49,-349.74 255.41,-336.88 235.76,-326.37"/>
<polygon fill="black" stroke="black" points="237.26,-323.21 226.79,-321.58 233.96,-329.38 237.26,-323.21"/>
</g>
<!-- ast.Compare object at 0x7f77bff2c070 -->
<g id="node6" class="node">
<title>ast.Compare object at 0x7f77bff2c070</title>
<path fill="#66cdaa" stroke="black" d="M167,-252C167,-252 124,-252 124,-252 118,-252 112,-246 112,-240 112,-240 112,-228 112,-228 112,-222 118,-216 124,-216 124,-216 167,-216 167,-216 173,-216 179,-222 179,-228 179,-228 179,-240 179,-240 179,-246 173,-252 167,-252"/>
<text text-anchor="middle" x="145.5" y="-230.3" font-family="Times,serif" font-size="14.00">Compare</text>
</g>
<!-- ast.If object at 0x7f77bff2c0a0&#45;&gt;ast.Compare object at 0x7f77bff2c070 -->
<g id="edge5" class="edge">
<title>ast.If object at 0x7f77bff2c0a0&#45;&gt;ast.Compare object at 0x7f77bff2c070</title>
<path fill="none" stroke="black" d="M244.47,-289.98C227.24,-280.41 204.61,-267.84 185.34,-257.14"/>
<polygon fill="black" stroke="black" points="186.92,-254.01 176.48,-252.21 183.52,-260.13 186.92,-254.01"/>
</g>
<!-- ast.Raise object at 0x7f77bff2c310 -->
<g id="node11" class="node">
<title>ast.Raise object at 0x7f77bff2c310</title>
<path fill="#66cdaa" stroke="black" d="M254.5,-252C254.5,-252 224.5,-252 224.5,-252 218.5,-252 212.5,-246 212.5,-240 212.5,-240 212.5,-228 212.5,-228 212.5,-222 218.5,-216 224.5,-216 224.5,-216 254.5,-216 254.5,-216 260.5,-216 266.5,-222 266.5,-228 266.5,-228 266.5,-240 266.5,-240 266.5,-246 260.5,-252 254.5,-252"/>
<text text-anchor="middle" x="239.5" y="-230.3" font-family="Times,serif" font-size="14.00">Raise</text>
</g>
<!-- ast.If object at 0x7f77bff2c0a0&#45;&gt;ast.Raise object at 0x7f77bff2c310 -->
<g id="edge10" class="edge">
<title>ast.If object at 0x7f77bff2c0a0&#45;&gt;ast.Raise object at 0x7f77bff2c310</title>
<path fill="none" stroke="black" d="M263.59,-287.7C259.95,-279.73 255.55,-270.1 251.51,-261.26"/>
<polygon fill="black" stroke="black" points="254.66,-259.74 247.32,-252.1 248.29,-262.65 254.66,-259.74"/>
</g>
<!-- ast.Name object at 0x7f77bff2c430 -->
<g id="node7" class="node">
<title>ast.Name object at 0x7f77bff2c430</title>
<path fill="#66cdaa" stroke="black" d="M148.5,-108C148.5,-108 118.5,-108 118.5,-108 112.5,-108 106.5,-102 106.5,-96 106.5,-96 106.5,-84 106.5,-84 106.5,-78 112.5,-72 118.5,-72 118.5,-72 148.5,-72 148.5,-72 154.5,-72 160.5,-78 160.5,-84 160.5,-84 160.5,-96 160.5,-96 160.5,-102 154.5,-108 148.5,-108"/>
<text text-anchor="middle" x="133.5" y="-86.3" font-family="Times,serif" font-size="14.00">Name</text>
</g>
<!-- ast.Compare object at 0x7f77bff2c070&#45;&gt;ast.Name object at 0x7f77bff2c430 -->
<g id="edge6" class="edge">
<title>ast.Compare object at 0x7f77bff2c070&#45;&gt;ast.Name object at 0x7f77bff2c430</title>
<path fill="none" stroke="black" d="M147.02,-215.87C148.31,-197.89 149.5,-168.85 146.5,-144 145.48,-135.53 143.57,-126.47 141.52,-118.28"/>
<polygon fill="black" stroke="black" points="144.86,-117.23 138.91,-108.47 138.1,-119.03 144.86,-117.23"/>
</g>
<!-- ast.Lt object at 0x7f77c6af29e0 -->
<g id="node9" class="node">
<title>ast.Lt object at 0x7f77c6af29e0</title>
<path fill="#66cdaa" stroke="black" d="M125.5,-180C125.5,-180 95.5,-180 95.5,-180 89.5,-180 83.5,-174 83.5,-168 83.5,-168 83.5,-156 83.5,-156 83.5,-150 89.5,-144 95.5,-144 95.5,-144 125.5,-144 125.5,-144 131.5,-144 137.5,-150 137.5,-156 137.5,-156 137.5,-168 137.5,-168 137.5,-174 131.5,-180 125.5,-180"/>
<text text-anchor="middle" x="110.5" y="-158.3" font-family="Times,serif" font-size="14.00">Lt</text>
</g>
<!-- ast.Compare object at 0x7f77bff2c070&#45;&gt;ast.Lt object at 0x7f77c6af29e0 -->
<g id="edge8" class="edge">
<title>ast.Compare object at 0x7f77bff2c070&#45;&gt;ast.Lt object at 0x7f77c6af29e0</title>
<path fill="none" stroke="black" d="M136.85,-215.7C132.86,-207.73 128.05,-198.1 123.63,-189.26"/>
<polygon fill="black" stroke="black" points="126.65,-187.48 119.05,-180.1 120.39,-190.61 126.65,-187.48"/>
</g>
<!-- ast.Constant object at 0x7f77bff2c3d0 -->
<g id="node10" class="node">
<title>ast.Constant object at 0x7f77bff2c3d0</title>
<path fill="#66cdaa" stroke="black" d="M53,-180C53,-180 12,-180 12,-180 6,-180 0,-174 0,-168 0,-168 0,-156 0,-156 0,-150 6,-144 12,-144 12,-144 53,-144 53,-144 59,-144 65,-150 65,-156 65,-156 65,-168 65,-168 65,-174 59,-180 53,-180"/>
<text text-anchor="middle" x="32.5" y="-158.3" font-family="Times,serif" font-size="14.00">Constant</text>
</g>
<!-- ast.Compare object at 0x7f77bff2c070&#45;&gt;ast.Constant object at 0x7f77bff2c3d0 -->
<g id="edge9" class="edge">
<title>ast.Compare object at 0x7f77bff2c070&#45;&gt;ast.Constant object at 0x7f77bff2c3d0</title>
<path fill="none" stroke="black" d="M117.86,-215.88C103.08,-206.72 84.71,-195.34 68.8,-185.48"/>
<polygon fill="black" stroke="black" points="70.59,-182.48 60.25,-180.19 66.91,-188.43 70.59,-182.48"/>
</g>
<!-- ast.Load object at 0x7f77c6af1ff0 -->
<g id="node8" class="node">
<title>ast.Load object at 0x7f77c6af1ff0</title>
<path fill="#66cdaa" stroke="black" d="M448.5,-36C448.5,-36 418.5,-36 418.5,-36 412.5,-36 406.5,-30 406.5,-24 406.5,-24 406.5,-12 406.5,-12 406.5,-6 412.5,0 418.5,0 418.5,0 448.5,0 448.5,0 454.5,0 460.5,-6 460.5,-12 460.5,-12 460.5,-24 460.5,-24 460.5,-30 454.5,-36 448.5,-36"/>
<text text-anchor="middle" x="433.5" y="-14.3" font-family="Times,serif" font-size="14.00">Load</text>
</g>
<!-- ast.Name object at 0x7f77bff2c430&#45;&gt;ast.Load object at 0x7f77c6af1ff0 -->
<g id="edge7" class="edge">
<title>ast.Name object at 0x7f77bff2c430&#45;&gt;ast.Load object at 0x7f77c6af1ff0</title>
<path fill="none" stroke="black" d="M160.74,-75.3C163.65,-74.08 166.61,-72.96 169.5,-72 248.18,-45.96 344.5,-30.57 396.29,-23.56"/>
<polygon fill="black" stroke="black" points="396.88,-27.02 406.34,-22.24 395.96,-20.08 396.88,-27.02"/>
</g>
<!-- ast.Call object at 0x7f77bff2c3a0 -->
<g id="node12" class="node">
<title>ast.Call object at 0x7f77bff2c3a0</title>
<path fill="#66cdaa" stroke="black" d="M254.5,-180C254.5,-180 224.5,-180 224.5,-180 218.5,-180 212.5,-174 212.5,-168 212.5,-168 212.5,-156 212.5,-156 212.5,-150 218.5,-144 224.5,-144 224.5,-144 254.5,-144 254.5,-144 260.5,-144 266.5,-150 266.5,-156 266.5,-156 266.5,-168 266.5,-168 266.5,-174 260.5,-180 254.5,-180"/>
<text text-anchor="middle" x="239.5" y="-158.3" font-family="Times,serif" font-size="14.00">Call</text>
</g>
<!-- ast.Raise object at 0x7f77bff2c310&#45;&gt;ast.Call object at 0x7f77bff2c3a0 -->
<g id="edge11" class="edge">
<title>ast.Raise object at 0x7f77bff2c310&#45;&gt;ast.Call object at 0x7f77bff2c3a0</title>
<path fill="none" stroke="black" d="M239.5,-215.7C239.5,-207.98 239.5,-198.71 239.5,-190.11"/>
<polygon fill="black" stroke="black" points="243,-190.1 239.5,-180.1 236,-190.1 243,-190.1"/>
</g>
<!-- ast.Name object at 0x7f77bff2c370 -->
<g id="node13" class="node">
<title>ast.Name object at 0x7f77bff2c370</title>
<path fill="#66cdaa" stroke="black" d="M304.5,-108C304.5,-108 274.5,-108 274.5,-108 268.5,-108 262.5,-102 262.5,-96 262.5,-96 262.5,-84 262.5,-84 262.5,-78 268.5,-72 274.5,-72 274.5,-72 304.5,-72 304.5,-72 310.5,-72 316.5,-78 316.5,-84 316.5,-84 316.5,-96 316.5,-96 316.5,-102 310.5,-108 304.5,-108"/>
<text text-anchor="middle" x="289.5" y="-86.3" font-family="Times,serif" font-size="14.00">Name</text>
</g>
<!-- ast.Call object at 0x7f77bff2c3a0&#45;&gt;ast.Name object at 0x7f77bff2c370 -->
<g id="edge12" class="edge">
<title>ast.Call object at 0x7f77bff2c3a0&#45;&gt;ast.Name object at 0x7f77bff2c370</title>
<path fill="none" stroke="black" d="M251.86,-143.7C257.73,-135.47 264.87,-125.48 271.34,-116.42"/>
<polygon fill="black" stroke="black" points="274.32,-118.28 277.28,-108.1 268.62,-114.21 274.32,-118.28"/>
</g>
<!-- ast.Constant object at 0x7f77bff2c340 -->
<g id="node14" class="node">
<title>ast.Constant object at 0x7f77bff2c340</title>
<path fill="#66cdaa" stroke="black" d="M232,-108C232,-108 191,-108 191,-108 185,-108 179,-102 179,-96 179,-96 179,-84 179,-84 179,-78 185,-72 191,-72 191,-72 232,-72 232,-72 238,-72 244,-78 244,-84 244,-84 244,-96 244,-96 244,-102 238,-108 232,-108"/>
<text text-anchor="middle" x="211.5" y="-86.3" font-family="Times,serif" font-size="14.00">Constant</text>
</g>
<!-- ast.Call object at 0x7f77bff2c3a0&#45;&gt;ast.Constant object at 0x7f77bff2c340 -->
<g id="edge14" class="edge">
<title>ast.Call object at 0x7f77bff2c3a0&#45;&gt;ast.Constant object at 0x7f77bff2c340</title>
<path fill="none" stroke="black" d="M232.58,-143.7C229.43,-135.81 225.62,-126.3 222.12,-117.55"/>
<polygon fill="black" stroke="black" points="225.31,-116.09 218.34,-108.1 218.81,-118.69 225.31,-116.09"/>
</g>
<!-- ast.Name object at 0x7f77bff2c370&#45;&gt;ast.Load object at 0x7f77c6af1ff0 -->
<g id="edge13" class="edge">
<title>ast.Name object at 0x7f77bff2c370&#45;&gt;ast.Load object at 0x7f77c6af1ff0</title>
<path fill="none" stroke="black" d="M316.59,-75.83C339.27,-64.81 371.86,-48.97 396.87,-36.81"/>
<polygon fill="black" stroke="black" points="398.58,-39.87 406.05,-32.35 395.52,-33.57 398.58,-39.87"/>
</g>
<!-- ast.Name object at 0x7f77bff2c190 -->
<g id="node16" class="node">
<title>ast.Name object at 0x7f77bff2c190</title>
<path fill="#66cdaa" stroke="black" d="M711.5,-324C711.5,-324 681.5,-324 681.5,-324 675.5,-324 669.5,-318 669.5,-312 669.5,-312 669.5,-300 669.5,-300 669.5,-294 675.5,-288 681.5,-288 681.5,-288 711.5,-288 711.5,-288 717.5,-288 723.5,-294 723.5,-300 723.5,-300 723.5,-312 723.5,-312 723.5,-318 717.5,-324 711.5,-324"/>
<text text-anchor="middle" x="696.5" y="-302.3" font-family="Times,serif" font-size="14.00">Name</text>
</g>
<!-- ast.Assign object at 0x7f77bff2c2b0&#45;&gt;ast.Name object at 0x7f77bff2c190 -->
<g id="edge16" class="edge">
<title>ast.Assign object at 0x7f77bff2c2b0&#45;&gt;ast.Name object at 0x7f77bff2c190</title>
<path fill="none" stroke="black" d="M696.5,-359.7C696.5,-351.98 696.5,-342.71 696.5,-334.11"/>
<polygon fill="black" stroke="black" points="700,-334.1 696.5,-324.1 693,-334.1 700,-334.1"/>
</g>
<!-- ast.Constant object at 0x7f77bff2c460 -->
<g id="node18" class="node">
<title>ast.Constant object at 0x7f77bff2c460</title>
<path fill="#66cdaa" stroke="black" d="M795,-324C795,-324 754,-324 754,-324 748,-324 742,-318 742,-312 742,-312 742,-300 742,-300 742,-294 748,-288 754,-288 754,-288 795,-288 795,-288 801,-288 807,-294 807,-300 807,-300 807,-312 807,-312 807,-318 801,-324 795,-324"/>
<text text-anchor="middle" x="774.5" y="-302.3" font-family="Times,serif" font-size="14.00">Constant</text>
</g>
<!-- ast.Assign object at 0x7f77bff2c2b0&#45;&gt;ast.Constant object at 0x7f77bff2c460 -->
<g id="edge18" class="edge">
<title>ast.Assign object at 0x7f77bff2c2b0&#45;&gt;ast.Constant object at 0x7f77bff2c460</title>
<path fill="none" stroke="black" d="M715.78,-359.7C725.42,-351.05 737.23,-340.45 747.73,-331.03"/>
<polygon fill="black" stroke="black" points="750.34,-333.39 755.44,-324.1 745.66,-328.18 750.34,-333.39"/>
</g>
<!-- ast.Store object at 0x7f77c6af2050 -->
<g id="node17" class="node">
<title>ast.Store object at 0x7f77c6af2050</title>
<path fill="#66cdaa" stroke="black" d="M791.5,-108C791.5,-108 761.5,-108 761.5,-108 755.5,-108 749.5,-102 749.5,-96 749.5,-96 749.5,-84 749.5,-84 749.5,-78 755.5,-72 761.5,-72 761.5,-72 791.5,-72 791.5,-72 797.5,-72 803.5,-78 803.5,-84 803.5,-84 803.5,-96 803.5,-96 803.5,-102 797.5,-108 791.5,-108"/>
<text text-anchor="middle" x="776.5" y="-86.3" font-family="Times,serif" font-size="14.00">Store</text>
</g>
<!-- ast.Name object at 0x7f77bff2c190&#45;&gt;ast.Store object at 0x7f77c6af2050 -->
<g id="edge17" class="edge">
<title>ast.Name object at 0x7f77bff2c190&#45;&gt;ast.Store object at 0x7f77c6af2050</title>
<path fill="none" stroke="black" d="M723.76,-289.8C743.53,-278.15 767.77,-262.37 773.5,-252 796.68,-210.05 790.16,-152.08 783.32,-118.36"/>
<polygon fill="black" stroke="black" points="786.68,-117.34 781.13,-108.32 779.84,-118.83 786.68,-117.34"/>
</g>
<!-- ast.Name object at 0x7f77bff2c640 -->
<g id="node20" class="node">
<title>ast.Name object at 0x7f77bff2c640</title>
<path fill="#66cdaa" stroke="black" d="M752.5,-252C752.5,-252 722.5,-252 722.5,-252 716.5,-252 710.5,-246 710.5,-240 710.5,-240 710.5,-228 710.5,-228 710.5,-222 716.5,-216 722.5,-216 722.5,-216 752.5,-216 752.5,-216 758.5,-216 764.5,-222 764.5,-228 764.5,-228 764.5,-240 764.5,-240 764.5,-246 758.5,-252 752.5,-252"/>
<text text-anchor="middle" x="737.5" y="-230.3" font-family="Times,serif" font-size="14.00">Name</text>
</g>
<!-- ast.For object at 0x7f77bff2c670&#45;&gt;ast.Name object at 0x7f77bff2c640 -->
<g id="edge20" class="edge">
<title>ast.For object at 0x7f77bff2c670&#45;&gt;ast.Name object at 0x7f77bff2c640</title>
<path fill="none" stroke="black" d="M556.22,-359.93C582.19,-342.01 624.21,-313.01 660.5,-288 674.75,-278.18 690.49,-267.34 704.01,-258.04"/>
<polygon fill="black" stroke="black" points="706.27,-260.73 712.53,-252.18 702.31,-254.96 706.27,-260.73"/>
</g>
<!-- ast.Call object at 0x7f77bff2c5b0 -->
<g id="node21" class="node">
<title>ast.Call object at 0x7f77bff2c5b0</title>
<path fill="#66cdaa" stroke="black" d="M421.5,-324C421.5,-324 391.5,-324 391.5,-324 385.5,-324 379.5,-318 379.5,-312 379.5,-312 379.5,-300 379.5,-300 379.5,-294 385.5,-288 391.5,-288 391.5,-288 421.5,-288 421.5,-288 427.5,-288 433.5,-294 433.5,-300 433.5,-300 433.5,-312 433.5,-312 433.5,-318 427.5,-324 421.5,-324"/>
<text text-anchor="middle" x="406.5" y="-302.3" font-family="Times,serif" font-size="14.00">Call</text>
</g>
<!-- ast.For object at 0x7f77bff2c670&#45;&gt;ast.Call object at 0x7f77bff2c5b0 -->
<g id="edge22" class="edge">
<title>ast.For object at 0x7f77bff2c670&#45;&gt;ast.Call object at 0x7f77bff2c5b0</title>
<path fill="none" stroke="black" d="M504.38,-361.81C486.19,-351.63 462.06,-338.11 442.3,-327.05"/>
<polygon fill="black" stroke="black" points="444.01,-323.99 433.57,-322.16 440.59,-330.1 444.01,-323.99"/>
</g>
<!-- ast.If object at 0x7f77bff2c4f0 -->
<g id="node25" class="node">
<title>ast.If object at 0x7f77bff2c4f0</title>
<path fill="#66cdaa" stroke="black" d="M546.5,-324C546.5,-324 516.5,-324 516.5,-324 510.5,-324 504.5,-318 504.5,-312 504.5,-312 504.5,-300 504.5,-300 504.5,-294 510.5,-288 516.5,-288 516.5,-288 546.5,-288 546.5,-288 552.5,-288 558.5,-294 558.5,-300 558.5,-300 558.5,-312 558.5,-312 558.5,-318 552.5,-324 546.5,-324"/>
<text text-anchor="middle" x="531.5" y="-302.3" font-family="Times,serif" font-size="14.00">If</text>
</g>
<!-- ast.For object at 0x7f77bff2c670&#45;&gt;ast.If object at 0x7f77bff2c4f0 -->
<g id="edge27" class="edge">
<title>ast.For object at 0x7f77bff2c670&#45;&gt;ast.If object at 0x7f77bff2c4f0</title>
<path fill="none" stroke="black" d="M531.5,-359.7C531.5,-351.98 531.5,-342.71 531.5,-334.11"/>
<polygon fill="black" stroke="black" points="535,-334.1 531.5,-324.1 528,-334.1 535,-334.1"/>
</g>
<!-- ast.Name object at 0x7f77bff2c640&#45;&gt;ast.Store object at 0x7f77c6af2050 -->
<g id="edge21" class="edge">
<title>ast.Name object at 0x7f77bff2c640&#45;&gt;ast.Store object at 0x7f77c6af2050</title>
<path fill="none" stroke="black" d="M744.84,-215.56C748.95,-205.33 753.95,-192.08 757.5,-180 763.5,-159.57 768.45,-135.98 771.79,-118.22"/>
<polygon fill="black" stroke="black" points="775.26,-118.72 773.61,-108.25 768.37,-117.46 775.26,-118.72"/>
</g>
<!-- ast.Name object at 0x7f77bff2c5e0 -->
<g id="node22" class="node">
<title>ast.Name object at 0x7f77bff2c5e0</title>
<path fill="#66cdaa" stroke="black" d="M376.5,-108C376.5,-108 346.5,-108 346.5,-108 340.5,-108 334.5,-102 334.5,-96 334.5,-96 334.5,-84 334.5,-84 334.5,-78 340.5,-72 346.5,-72 346.5,-72 376.5,-72 376.5,-72 382.5,-72 388.5,-78 388.5,-84 388.5,-84 388.5,-96 388.5,-96 388.5,-102 382.5,-108 376.5,-108"/>
<text text-anchor="middle" x="361.5" y="-86.3" font-family="Times,serif" font-size="14.00">Name</text>
</g>
<!-- ast.Call object at 0x7f77bff2c5b0&#45;&gt;ast.Name object at 0x7f77bff2c5e0 -->
<g id="edge23" class="edge">
<title>ast.Call object at 0x7f77bff2c5b0&#45;&gt;ast.Name object at 0x7f77bff2c5e0</title>
<path fill="none" stroke="black" d="M379.07,-297.66C357.03,-290.16 327.51,-276.1 313.5,-252 289.38,-210.5 296.23,-188.79 313.5,-144 317.6,-133.36 324.94,-123.53 332.67,-115.3"/>
<polygon fill="black" stroke="black" points="335.17,-117.75 339.79,-108.21 330.23,-112.78 335.17,-117.75"/>
</g>
<!-- ast.Constant object at 0x7f77bff2c580 -->
<g id="node23" class="node">
<title>ast.Constant object at 0x7f77bff2c580</title>
<path fill="#66cdaa" stroke="black" d="M376,-252C376,-252 335,-252 335,-252 329,-252 323,-246 323,-240 323,-240 323,-228 323,-228 323,-222 329,-216 335,-216 335,-216 376,-216 376,-216 382,-216 388,-222 388,-228 388,-228 388,-240 388,-240 388,-246 382,-252 376,-252"/>
<text text-anchor="middle" x="355.5" y="-230.3" font-family="Times,serif" font-size="14.00">Constant</text>
</g>
<!-- ast.Call object at 0x7f77bff2c5b0&#45;&gt;ast.Constant object at 0x7f77bff2c580 -->
<g id="edge25" class="edge">
<title>ast.Call object at 0x7f77bff2c5b0&#45;&gt;ast.Constant object at 0x7f77bff2c580</title>
<path fill="none" stroke="black" d="M393.89,-287.7C387.9,-279.47 380.62,-269.48 374.02,-260.42"/>
<polygon fill="black" stroke="black" points="376.68,-258.13 367.96,-252.1 371.02,-262.25 376.68,-258.13"/>
</g>
<!-- ast.Constant object at 0x7f77bff2c550 -->
<g id="node24" class="node">
<title>ast.Constant object at 0x7f77bff2c550</title>
<path fill="#66cdaa" stroke="black" d="M459,-252C459,-252 418,-252 418,-252 412,-252 406,-246 406,-240 406,-240 406,-228 406,-228 406,-222 412,-216 418,-216 418,-216 459,-216 459,-216 465,-216 471,-222 471,-228 471,-228 471,-240 471,-240 471,-246 465,-252 459,-252"/>
<text text-anchor="middle" x="438.5" y="-230.3" font-family="Times,serif" font-size="14.00">Constant</text>
</g>
<!-- ast.Call object at 0x7f77bff2c5b0&#45;&gt;ast.Constant object at 0x7f77bff2c550 -->
<g id="edge26" class="edge">
<title>ast.Call object at 0x7f77bff2c5b0&#45;&gt;ast.Constant object at 0x7f77bff2c550</title>
<path fill="none" stroke="black" d="M414.41,-287.7C418.05,-279.73 422.45,-270.1 426.49,-261.26"/>
<polygon fill="black" stroke="black" points="429.71,-262.65 430.68,-252.1 423.34,-259.74 429.71,-262.65"/>
</g>
<!-- ast.Name object at 0x7f77bff2c5e0&#45;&gt;ast.Load object at 0x7f77c6af1ff0 -->
<g id="edge24" class="edge">
<title>ast.Name object at 0x7f77bff2c5e0&#45;&gt;ast.Load object at 0x7f77c6af1ff0</title>
<path fill="none" stroke="black" d="M379.3,-71.7C388.1,-63.14 398.88,-52.66 408.5,-43.3"/>
<polygon fill="black" stroke="black" points="411.18,-45.58 415.91,-36.1 406.3,-40.57 411.18,-45.58"/>
</g>
<!-- ast.Compare object at 0x7f77bff2c520 -->
<g id="node26" class="node">
<title>ast.Compare object at 0x7f77bff2c520</title>
<path fill="#66cdaa" stroke="black" d="M544,-252C544,-252 501,-252 501,-252 495,-252 489,-246 489,-240 489,-240 489,-228 489,-228 489,-222 495,-216 501,-216 501,-216 544,-216 544,-216 550,-216 556,-222 556,-228 556,-228 556,-240 556,-240 556,-246 550,-252 544,-252"/>
<text text-anchor="middle" x="522.5" y="-230.3" font-family="Times,serif" font-size="14.00">Compare</text>
</g>
<!-- ast.If object at 0x7f77bff2c4f0&#45;&gt;ast.Compare object at 0x7f77bff2c520 -->
<g id="edge28" class="edge">
<title>ast.If object at 0x7f77bff2c4f0&#45;&gt;ast.Compare object at 0x7f77bff2c520</title>
<path fill="none" stroke="black" d="M529.28,-287.7C528.28,-279.98 527.09,-270.71 525.99,-262.11"/>
<polygon fill="black" stroke="black" points="529.45,-261.58 524.7,-252.1 522.5,-262.47 529.45,-261.58"/>
</g>
<!-- ast.AugAssign object at 0x7f77c2224fa0 -->
<g id="node33" class="node">
<title>ast.AugAssign object at 0x7f77c2224fa0</title>
<path fill="#66cdaa" stroke="black" d="M657,-252C657,-252 604,-252 604,-252 598,-252 592,-246 592,-240 592,-240 592,-228 592,-228 592,-222 598,-216 604,-216 604,-216 657,-216 657,-216 663,-216 669,-222 669,-228 669,-228 669,-240 669,-240 669,-246 663,-252 657,-252"/>
<text text-anchor="middle" x="630.5" y="-230.3" font-family="Times,serif" font-size="14.00">AugAssign</text>
</g>
<!-- ast.If object at 0x7f77bff2c4f0&#45;&gt;ast.AugAssign object at 0x7f77c2224fa0 -->
<g id="edge37" class="edge">
<title>ast.If object at 0x7f77bff2c4f0&#45;&gt;ast.AugAssign object at 0x7f77c2224fa0</title>
<path fill="none" stroke="black" d="M555.72,-287.88C568.42,-278.89 584.16,-267.76 597.92,-258.03"/>
<polygon fill="black" stroke="black" points="600.04,-260.82 606.19,-252.19 596,-255.11 600.04,-260.82"/>
</g>
<!-- ast.BinOp object at 0x7f77bff2c4c0 -->
<g id="node27" class="node">
<title>ast.BinOp object at 0x7f77bff2c4c0</title>
<path fill="#66cdaa" stroke="black" d="M520.5,-180C520.5,-180 490.5,-180 490.5,-180 484.5,-180 478.5,-174 478.5,-168 478.5,-168 478.5,-156 478.5,-156 478.5,-150 484.5,-144 490.5,-144 490.5,-144 520.5,-144 520.5,-144 526.5,-144 532.5,-150 532.5,-156 532.5,-156 532.5,-168 532.5,-168 532.5,-174 526.5,-180 520.5,-180"/>
<text text-anchor="middle" x="505.5" y="-158.3" font-family="Times,serif" font-size="14.00">BinOp</text>
</g>
<!-- ast.Compare object at 0x7f77bff2c520&#45;&gt;ast.BinOp object at 0x7f77bff2c4c0 -->
<g id="edge29" class="edge">
<title>ast.Compare object at 0x7f77bff2c520&#45;&gt;ast.BinOp object at 0x7f77bff2c4c0</title>
<path fill="none" stroke="black" d="M518.3,-215.7C516.4,-207.9 514.12,-198.51 512.02,-189.83"/>
<polygon fill="black" stroke="black" points="515.42,-189 509.65,-180.1 508.61,-190.65 515.42,-189"/>
</g>
<!-- ast.Eq object at 0x7f77c6af2920 -->
<g id="node31" class="node">
<title>ast.Eq object at 0x7f77c6af2920</title>
<path fill="#66cdaa" stroke="black" d="M364.5,-180C364.5,-180 334.5,-180 334.5,-180 328.5,-180 322.5,-174 322.5,-168 322.5,-168 322.5,-156 322.5,-156 322.5,-150 328.5,-144 334.5,-144 334.5,-144 364.5,-144 364.5,-144 370.5,-144 376.5,-150 376.5,-156 376.5,-156 376.5,-168 376.5,-168 376.5,-174 370.5,-180 364.5,-180"/>
<text text-anchor="middle" x="349.5" y="-158.3" font-family="Times,serif" font-size="14.00">Eq</text>
</g>
<!-- ast.Compare object at 0x7f77bff2c520&#45;&gt;ast.Eq object at 0x7f77c6af2920 -->
<g id="edge35" class="edge">
<title>ast.Compare object at 0x7f77bff2c520&#45;&gt;ast.Eq object at 0x7f77c6af2920</title>
<path fill="none" stroke="black" d="M488.71,-219.6C485.6,-218.38 482.49,-217.16 479.5,-216 440.5,-200.82 428.21,-197.91 385.75,-179.96"/>
<polygon fill="black" stroke="black" points="387.1,-176.73 376.53,-176.03 384.35,-183.17 387.1,-176.73"/>
</g>
<!-- ast.Constant object at 0x7f77c19f3bb0 -->
<g id="node32" class="node">
<title>ast.Constant object at 0x7f77c19f3bb0</title>
<path fill="#66cdaa" stroke="black" d="M448,-180C448,-180 407,-180 407,-180 401,-180 395,-174 395,-168 395,-168 395,-156 395,-156 395,-150 401,-144 407,-144 407,-144 448,-144 448,-144 454,-144 460,-150 460,-156 460,-156 460,-168 460,-168 460,-174 454,-180 448,-180"/>
<text text-anchor="middle" x="427.5" y="-158.3" font-family="Times,serif" font-size="14.00">Constant</text>
</g>
<!-- ast.Compare object at 0x7f77bff2c520&#45;&gt;ast.Constant object at 0x7f77c19f3bb0 -->
<g id="edge36" class="edge">
<title>ast.Compare object at 0x7f77bff2c520&#45;&gt;ast.Constant object at 0x7f77c19f3bb0</title>
<path fill="none" stroke="black" d="M499.02,-215.7C486.94,-206.8 472.05,-195.82 458.98,-186.2"/>
<polygon fill="black" stroke="black" points="460.84,-183.22 450.71,-180.1 456.69,-188.85 460.84,-183.22"/>
</g>
<!-- ast.Name object at 0x7f77c27c2bf0 -->
<g id="node28" class="node">
<title>ast.Name object at 0x7f77c27c2bf0</title>
<path fill="#66cdaa" stroke="black" d="M592.5,-108C592.5,-108 562.5,-108 562.5,-108 556.5,-108 550.5,-102 550.5,-96 550.5,-96 550.5,-84 550.5,-84 550.5,-78 556.5,-72 562.5,-72 562.5,-72 592.5,-72 592.5,-72 598.5,-72 604.5,-78 604.5,-84 604.5,-84 604.5,-96 604.5,-96 604.5,-102 598.5,-108 592.5,-108"/>
<text text-anchor="middle" x="577.5" y="-86.3" font-family="Times,serif" font-size="14.00">Name</text>
</g>
<!-- ast.BinOp object at 0x7f77bff2c4c0&#45;&gt;ast.Name object at 0x7f77c27c2bf0 -->
<g id="edge30" class="edge">
<title>ast.BinOp object at 0x7f77bff2c4c0&#45;&gt;ast.Name object at 0x7f77c27c2bf0</title>
<path fill="none" stroke="black" d="M523.3,-143.7C532.1,-135.14 542.88,-124.66 552.5,-115.3"/>
<polygon fill="black" stroke="black" points="555.18,-117.58 559.91,-108.1 550.3,-112.57 555.18,-117.58"/>
</g>
<!-- ast.Mod object at 0x7f77c6af2410 -->
<g id="node29" class="node">
<title>ast.Mod object at 0x7f77c6af2410</title>
<path fill="#66cdaa" stroke="black" d="M520.5,-108C520.5,-108 490.5,-108 490.5,-108 484.5,-108 478.5,-102 478.5,-96 478.5,-96 478.5,-84 478.5,-84 478.5,-78 484.5,-72 490.5,-72 490.5,-72 520.5,-72 520.5,-72 526.5,-72 532.5,-78 532.5,-84 532.5,-84 532.5,-96 532.5,-96 532.5,-102 526.5,-108 520.5,-108"/>
<text text-anchor="middle" x="505.5" y="-86.3" font-family="Times,serif" font-size="14.00">Mod</text>
</g>
<!-- ast.BinOp object at 0x7f77bff2c4c0&#45;&gt;ast.Mod object at 0x7f77c6af2410 -->
<g id="edge32" class="edge">
<title>ast.BinOp object at 0x7f77bff2c4c0&#45;&gt;ast.Mod object at 0x7f77c6af2410</title>
<path fill="none" stroke="black" d="M505.5,-143.7C505.5,-135.98 505.5,-126.71 505.5,-118.11"/>
<polygon fill="black" stroke="black" points="509,-118.1 505.5,-108.1 502,-118.1 509,-118.1"/>
</g>
<!-- ast.Name object at 0x7f77c19f3dc0 -->
<g id="node30" class="node">
<title>ast.Name object at 0x7f77c19f3dc0</title>
<path fill="#66cdaa" stroke="black" d="M448.5,-108C448.5,-108 418.5,-108 418.5,-108 412.5,-108 406.5,-102 406.5,-96 406.5,-96 406.5,-84 406.5,-84 406.5,-78 412.5,-72 418.5,-72 418.5,-72 448.5,-72 448.5,-72 454.5,-72 460.5,-78 460.5,-84 460.5,-84 460.5,-96 460.5,-96 460.5,-102 454.5,-108 448.5,-108"/>
<text text-anchor="middle" x="433.5" y="-86.3" font-family="Times,serif" font-size="14.00">Name</text>
</g>
<!-- ast.BinOp object at 0x7f77bff2c4c0&#45;&gt;ast.Name object at 0x7f77c19f3dc0 -->
<g id="edge33" class="edge">
<title>ast.BinOp object at 0x7f77bff2c4c0&#45;&gt;ast.Name object at 0x7f77c19f3dc0</title>
<path fill="none" stroke="black" d="M487.7,-143.7C478.9,-135.14 468.12,-124.66 458.5,-115.3"/>
<polygon fill="black" stroke="black" points="460.7,-112.57 451.09,-108.1 455.82,-117.58 460.7,-112.57"/>
</g>
<!-- ast.Name object at 0x7f77c27c2bf0&#45;&gt;ast.Load object at 0x7f77c6af1ff0 -->
<g id="edge31" class="edge">
<title>ast.Name object at 0x7f77c27c2bf0&#45;&gt;ast.Load object at 0x7f77c6af1ff0</title>
<path fill="none" stroke="black" d="M550.41,-75.83C527.73,-64.81 495.14,-48.97 470.13,-36.81"/>
<polygon fill="black" stroke="black" points="471.48,-33.57 460.95,-32.35 468.42,-39.87 471.48,-33.57"/>
</g>
<!-- ast.Name object at 0x7f77c19f3dc0&#45;&gt;ast.Load object at 0x7f77c6af1ff0 -->
<g id="edge34" class="edge">
<title>ast.Name object at 0x7f77c19f3dc0&#45;&gt;ast.Load object at 0x7f77c6af1ff0</title>
<path fill="none" stroke="black" d="M433.5,-71.7C433.5,-63.98 433.5,-54.71 433.5,-46.11"/>
<polygon fill="black" stroke="black" points="437,-46.1 433.5,-36.1 430,-46.1 437,-46.1"/>
</g>
<!-- ast.Name object at 0x7f77c22279d0 -->
<g id="node34" class="node">
<title>ast.Name object at 0x7f77c22279d0</title>
<path fill="#66cdaa" stroke="black" d="M736.5,-180C736.5,-180 706.5,-180 706.5,-180 700.5,-180 694.5,-174 694.5,-168 694.5,-168 694.5,-156 694.5,-156 694.5,-150 700.5,-144 706.5,-144 706.5,-144 736.5,-144 736.5,-144 742.5,-144 748.5,-150 748.5,-156 748.5,-156 748.5,-168 748.5,-168 748.5,-174 742.5,-180 736.5,-180"/>
<text text-anchor="middle" x="721.5" y="-158.3" font-family="Times,serif" font-size="14.00">Name</text>
</g>
<!-- ast.AugAssign object at 0x7f77c2224fa0&#45;&gt;ast.Name object at 0x7f77c22279d0 -->
<g id="edge38" class="edge">
<title>ast.AugAssign object at 0x7f77c2224fa0&#45;&gt;ast.Name object at 0x7f77c22279d0</title>
<path fill="none" stroke="black" d="M652.99,-215.7C664.46,-206.88 678.56,-196.03 690.98,-186.47"/>
<polygon fill="black" stroke="black" points="693.47,-188.98 699.26,-180.1 689.2,-183.43 693.47,-188.98"/>
</g>
<!-- ast.Add object at 0x7f77c6af2230 -->
<g id="node35" class="node">
<title>ast.Add object at 0x7f77c6af2230</title>
<path fill="#66cdaa" stroke="black" d="M664.5,-180C664.5,-180 634.5,-180 634.5,-180 628.5,-180 622.5,-174 622.5,-168 622.5,-168 622.5,-156 622.5,-156 622.5,-150 628.5,-144 634.5,-144 634.5,-144 664.5,-144 664.5,-144 670.5,-144 676.5,-150 676.5,-156 676.5,-156 676.5,-168 676.5,-168 676.5,-174 670.5,-180 664.5,-180"/>
<text text-anchor="middle" x="649.5" y="-158.3" font-family="Times,serif" font-size="14.00">Add</text>
</g>
<!-- ast.AugAssign object at 0x7f77c2224fa0&#45;&gt;ast.Add object at 0x7f77c6af2230 -->
<g id="edge40" class="edge">
<title>ast.AugAssign object at 0x7f77c2224fa0&#45;&gt;ast.Add object at 0x7f77c6af2230</title>
<path fill="none" stroke="black" d="M635.2,-215.7C637.31,-207.9 639.86,-198.51 642.22,-189.83"/>
<polygon fill="black" stroke="black" points="645.62,-190.67 644.86,-180.1 638.86,-188.84 645.62,-190.67"/>
</g>
<!-- ast.Name object at 0x7f77bff85f00 -->
<g id="node36" class="node">
<title>ast.Name object at 0x7f77bff85f00</title>
<path fill="#66cdaa" stroke="black" d="M592.5,-180C592.5,-180 562.5,-180 562.5,-180 556.5,-180 550.5,-174 550.5,-168 550.5,-168 550.5,-156 550.5,-156 550.5,-150 556.5,-144 562.5,-144 562.5,-144 592.5,-144 592.5,-144 598.5,-144 604.5,-150 604.5,-156 604.5,-156 604.5,-168 604.5,-168 604.5,-174 598.5,-180 592.5,-180"/>
<text text-anchor="middle" x="577.5" y="-158.3" font-family="Times,serif" font-size="14.00">Name</text>
</g>
<!-- ast.AugAssign object at 0x7f77c2224fa0&#45;&gt;ast.Name object at 0x7f77bff85f00 -->
<g id="edge41" class="edge">
<title>ast.AugAssign object at 0x7f77c2224fa0&#45;&gt;ast.Name object at 0x7f77bff85f00</title>
<path fill="none" stroke="black" d="M617.4,-215.7C611.11,-207.39 603.45,-197.28 596.54,-188.14"/>
<polygon fill="black" stroke="black" points="599.28,-185.96 590.45,-180.1 593.7,-190.19 599.28,-185.96"/>
</g>
<!-- ast.Name object at 0x7f77c22279d0&#45;&gt;ast.Store object at 0x7f77c6af2050 -->
<g id="edge39" class="edge">
<title>ast.Name object at 0x7f77c22279d0&#45;&gt;ast.Store object at 0x7f77c6af2050</title>
<path fill="none" stroke="black" d="M735.1,-143.7C741.62,-135.39 749.57,-125.28 756.75,-116.14"/>
<polygon fill="black" stroke="black" points="759.63,-118.13 763.06,-108.1 754.13,-113.81 759.63,-118.13"/>
</g>
<!-- ast.Name object at 0x7f77bff85f00&#45;&gt;ast.Load object at 0x7f77c6af1ff0 -->
<g id="edge42" class="edge">
<title>ast.Name object at 0x7f77bff85f00&#45;&gt;ast.Load object at 0x7f77c6af1ff0</title>
<path fill="none" stroke="black" d="M593.86,-143.95C610.02,-125 630.07,-94.16 613.5,-72 596.37,-49.09 518.03,-32.67 470.53,-24.62"/>
<polygon fill="black" stroke="black" points="471.04,-21.16 460.61,-22.98 469.9,-28.06 471.04,-21.16"/>
</g>
<!-- ast.Name object at 0x7f77bff84340 -->
<g id="node38" class="node">
<title>ast.Name object at 0x7f77bff84340</title>
<path fill="#66cdaa" stroke="black" d="M865.5,-108C865.5,-108 835.5,-108 835.5,-108 829.5,-108 823.5,-102 823.5,-96 823.5,-96 823.5,-84 823.5,-84 823.5,-78 829.5,-72 835.5,-72 835.5,-72 865.5,-72 865.5,-72 871.5,-72 877.5,-78 877.5,-84 877.5,-84 877.5,-96 877.5,-96 877.5,-102 871.5,-108 865.5,-108"/>
<text text-anchor="middle" x="850.5" y="-86.3" font-family="Times,serif" font-size="14.00">Name</text>
</g>
<!-- ast.Return object at 0x7f77bff86200&#45;&gt;ast.Name object at 0x7f77bff84340 -->
<g id="edge44" class="edge">
<title>ast.Return object at 0x7f77bff86200&#45;&gt;ast.Name object at 0x7f77bff84340</title>
<path fill="none" stroke="black" d="M842.98,-359.97C844.31,-312.29 848.09,-177.18 849.73,-118.63"/>
<polygon fill="black" stroke="black" points="853.23,-118.4 850.02,-108.31 846.24,-118.2 853.23,-118.4"/>
</g>
<!-- ast.Name object at 0x7f77bff84340&#45;&gt;ast.Load object at 0x7f77c6af1ff0 -->
<g id="edge45" class="edge">
<title>ast.Name object at 0x7f77bff84340&#45;&gt;ast.Load object at 0x7f77c6af1ff0</title>
<path fill="none" stroke="black" d="M823.45,-75.8C819.82,-74.36 816.11,-73.04 812.5,-72 690.67,-36.99 539.92,-24.73 471.03,-20.75"/>
<polygon fill="black" stroke="black" points="470.87,-17.24 460.69,-20.18 470.48,-24.23 470.87,-17.24"/>
</g>
</g>
</svg>
