<?xml version="1.0" encoding="UTF-8" standalone="no"?>
<!DOCTYPE svg PUBLIC "-//W3C//DTD SVG 1.1//EN"
 "http://www.w3.org/Graphics/SVG/1.1/DTD/svg11.dtd">
<!-- Generated by graphviz version 2.43.0 (0)
 -->
<!-- Title: %3 Pages: 1 -->
<svg width="864pt" height="548pt"
 viewBox="0.00 0.00 863.50 548.00" xmlns="http://www.w3.org/2000/svg" xmlns:xlink="http://www.w3.org/1999/xlink">
<g id="graph0" class="graph" transform="scale(1 1) rotate(0) translate(4 544)">
<title>%3</title>
<polygon fill="white" stroke="transparent" points="-4,4 -4,-544 859.5,-544 859.5,4 -4,4"/>
<!-- ast.Module object at 0x7efd0f8634f0 -->
<g id="node1" class="node">
<title>ast.Module object at 0x7efd0f8634f0</title>
<path fill="#66cdaa" stroke="black" d="M320,-540C320,-540 285,-540 285,-540 279,-540 273,-534 273,-528 273,-528 273,-516 273,-516 273,-510 279,-504 285,-504 285,-504 320,-504 320,-504 326,-504 332,-510 332,-516 332,-516 332,-528 332,-528 332,-534 326,-540 320,-540"/>
<text text-anchor="middle" x="302.5" y="-518.3" font-family="Times,serif" font-size="14.00">Module</text>
</g>
<!-- ast.FunctionDef object at 0x7efd0f602920 -->
<g id="node2" class="node">
<title>ast.FunctionDef object at 0x7efd0f602920</title>
<path fill="#66cdaa" stroke="black" d="M333,-468C333,-468 272,-468 272,-468 266,-468 260,-462 260,-456 260,-456 260,-444 260,-444 260,-438 266,-432 272,-432 272,-432 333,-432 333,-432 339,-432 345,-438 345,-444 345,-444 345,-456 345,-456 345,-462 339,-468 333,-468"/>
<text text-anchor="middle" x="302.5" y="-446.3" font-family="Times,serif" font-size="14.00">FunctionDef</text>
</g>
<!-- ast.Module object at 0x7efd0f8634f0&#45;&gt;ast.FunctionDef object at 0x7efd0f602920 -->
<g id="edge1" class="edge">
<title>ast.Module object at 0x7efd0f8634f0&#45;&gt;ast.FunctionDef object at 0x7efd0f602920</title>
<path fill="none" stroke="black" d="M302.5,-503.7C302.5,-495.98 302.5,-486.71 302.5,-478.11"/>
<polygon fill="black" stroke="black" points="306,-478.1 302.5,-468.1 299,-478.1 306,-478.1"/>
</g>
<!-- ast.arguments object at 0x7efd0f603a00 -->
<g id="node3" class="node">
<title>ast.arguments object at 0x7efd0f603a00</title>
<path fill="#66cdaa" stroke="black" d="M117.5,-396C117.5,-396 67.5,-396 67.5,-396 61.5,-396 55.5,-390 55.5,-384 55.5,-384 55.5,-372 55.5,-372 55.5,-366 61.5,-360 67.5,-360 67.5,-360 117.5,-360 117.5,-360 123.5,-360 129.5,-366 129.5,-372 129.5,-372 129.5,-384 129.5,-384 129.5,-390 123.5,-396 117.5,-396"/>
<text text-anchor="middle" x="92.5" y="-374.3" font-family="Times,serif" font-size="14.00">arguments</text>
</g>
<!-- ast.FunctionDef object at 0x7efd0f602920&#45;&gt;ast.arguments object at 0x7efd0f603a00 -->
<g id="edge2" class="edge">
<title>ast.FunctionDef object at 0x7efd0f602920&#45;&gt;ast.arguments object at 0x7efd0f603a00</title>
<path fill="none" stroke="black" d="M259.75,-434.75C224.78,-423.09 175.4,-406.63 139.36,-394.62"/>
<polygon fill="black" stroke="black" points="140.16,-391.2 129.57,-391.36 137.95,-397.84 140.16,-391.2"/>
</g>
<!-- ast.If object at 0x7efd0f602cb0 -->
<g id="node5" class="node">
<title>ast.If object at 0x7efd0f602cb0</title>
<path fill="#66cdaa" stroke="black" d="M223.5,-396C223.5,-396 193.5,-396 193.5,-396 187.5,-396 181.5,-390 181.5,-384 181.5,-384 181.5,-372 181.5,-372 181.5,-366 187.5,-360 193.5,-360 193.5,-360 223.5,-360 223.5,-360 229.5,-360 235.5,-366 235.5,-372 235.5,-372 235.5,-384 235.5,-384 235.5,-390 229.5,-396 223.5,-396"/>
<text text-anchor="middle" x="208.5" y="-374.3" font-family="Times,serif" font-size="14.00">If</text>
</g>
<!-- ast.FunctionDef object at 0x7efd0f602920&#45;&gt;ast.If object at 0x7efd0f602cb0 -->
<g id="edge4" class="edge">
<title>ast.FunctionDef object at 0x7efd0f602920&#45;&gt;ast.If object at 0x7efd0f602cb0</title>
<path fill="none" stroke="black" d="M279.26,-431.7C267.31,-422.8 252.58,-411.82 239.65,-402.2"/>
<polygon fill="black" stroke="black" points="241.58,-399.27 231.47,-396.1 237.4,-404.88 241.58,-399.27"/>
</g>
<!-- ast.Assign object at 0x7efd0f6038b0 -->
<g id="node13" class="node">
<title>ast.Assign object at 0x7efd0f6038b0</title>
<path fill="#66cdaa" stroke="black" d="M317.5,-396C317.5,-396 287.5,-396 287.5,-396 281.5,-396 275.5,-390 275.5,-384 275.5,-384 275.5,-372 275.5,-372 275.5,-366 281.5,-360 287.5,-360 287.5,-360 317.5,-360 317.5,-360 323.5,-360 329.5,-366 329.5,-372 329.5,-372 329.5,-384 329.5,-384 329.5,-390 323.5,-396 317.5,-396"/>
<text text-anchor="middle" x="302.5" y="-374.3" font-family="Times,serif" font-size="14.00">Assign</text>
</g>
<!-- ast.FunctionDef object at 0x7efd0f602920&#45;&gt;ast.Assign object at 0x7efd0f6038b0 -->
<g id="edge12" class="edge">
<title>ast.FunctionDef object at 0x7efd0f602920&#45;&gt;ast.Assign object at 0x7efd0f6038b0</title>
<path fill="none" stroke="black" d="M302.5,-431.7C302.5,-423.98 302.5,-414.71 302.5,-406.11"/>
<polygon fill="black" stroke="black" points="306,-406.1 302.5,-396.1 299,-406.1 306,-406.1"/>
</g>
<!-- ast.For object at 0x7efd0f600ac0 -->
<g id="node17" class="node">
<title>ast.For object at 0x7efd0f600ac0</title>
<path fill="#66cdaa" stroke="black" d="M464.5,-396C464.5,-396 434.5,-396 434.5,-396 428.5,-396 422.5,-390 422.5,-384 422.5,-384 422.5,-372 422.5,-372 422.5,-366 428.5,-360 434.5,-360 434.5,-360 464.5,-360 464.5,-360 470.5,-360 476.5,-366 476.5,-372 476.5,-372 476.5,-384 476.5,-384 476.5,-390 470.5,-396 464.5,-396"/>
<text text-anchor="middle" x="449.5" y="-374.3" font-family="Times,serif" font-size="14.00">For</text>
</g>
<!-- ast.FunctionDef object at 0x7efd0f602920&#45;&gt;ast.For object at 0x7efd0f600ac0 -->
<g id="edge17" class="edge">
<title>ast.FunctionDef object at 0x7efd0f602920&#45;&gt;ast.For object at 0x7efd0f600ac0</title>
<path fill="none" stroke="black" d="M338.46,-431.88C361.07,-421.11 390.16,-407.26 412.89,-396.43"/>
<polygon fill="black" stroke="black" points="414.68,-399.46 422.21,-392 411.67,-393.14 414.68,-399.46"/>
</g>
<!-- ast.Return object at 0x7efd0f600490 -->
<g id="node31" class="node">
<title>ast.Return object at 0x7efd0f600490</title>
<path fill="#66cdaa" stroke="black" d="M668.5,-396C668.5,-396 638.5,-396 638.5,-396 632.5,-396 626.5,-390 626.5,-384 626.5,-384 626.5,-372 626.5,-372 626.5,-366 632.5,-360 638.5,-360 638.5,-360 668.5,-360 668.5,-360 674.5,-360 680.5,-366 680.5,-372 680.5,-372 680.5,-384 680.5,-384 680.5,-390 674.5,-396 668.5,-396"/>
<text text-anchor="middle" x="653.5" y="-374.3" font-family="Times,serif" font-size="14.00">Return</text>
</g>
<!-- ast.FunctionDef object at 0x7efd0f602920&#45;&gt;ast.Return object at 0x7efd0f600490 -->
<g id="edge37" class="edge">
<title>ast.FunctionDef object at 0x7efd0f602920&#45;&gt;ast.Return object at 0x7efd0f600490</title>
<path fill="none" stroke="black" d="M345.19,-440.49C414.56,-426.65 550.59,-399.52 616.27,-386.42"/>
<polygon fill="black" stroke="black" points="617.06,-389.84 626.19,-384.45 615.69,-382.97 617.06,-389.84"/>
</g>
<!-- ast.arg object at 0x7efd0f602fb0 -->
<g id="node4" class="node">
<title>ast.arg object at 0x7efd0f602fb0</title>
<path fill="#66cdaa" stroke="black" d="M72.5,-324C72.5,-324 42.5,-324 42.5,-324 36.5,-324 30.5,-318 30.5,-312 30.5,-312 30.5,-300 30.5,-300 30.5,-294 36.5,-288 42.5,-288 42.5,-288 72.5,-288 72.5,-288 78.5,-288 84.5,-294 84.5,-300 84.5,-300 84.5,-312 84.5,-312 84.5,-318 78.5,-324 72.5,-324"/>
<text text-anchor="middle" x="57.5" y="-302.3" font-family="Times,serif" font-size="14.00">arg</text>
</g>
<!-- ast.arguments object at 0x7efd0f603a00&#45;&gt;ast.arg object at 0x7efd0f602fb0 -->
<g id="edge3" class="edge">
<title>ast.arguments object at 0x7efd0f603a00&#45;&gt;ast.arg object at 0x7efd0f602fb0</title>
<path fill="none" stroke="black" d="M83.85,-359.7C79.86,-351.73 75.05,-342.1 70.63,-333.26"/>
<polygon fill="black" stroke="black" points="73.65,-331.48 66.05,-324.1 67.39,-334.61 73.65,-331.48"/>
</g>
<!-- ast.Compare object at 0x7efd0f6010f0 -->
<g id="node6" class="node">
<title>ast.Compare object at 0x7efd0f6010f0</title>
<path fill="#66cdaa" stroke="black" d="M230,-324C230,-324 187,-324 187,-324 181,-324 175,-318 175,-312 175,-312 175,-300 175,-300 175,-294 181,-288 187,-288 187,-288 230,-288 230,-288 236,-288 242,-294 242,-300 242,-300 242,-312 242,-312 242,-318 236,-324 230,-324"/>
<text text-anchor="middle" x="208.5" y="-302.3" font-family="Times,serif" font-size="14.00">Compare</text>
</g>
<!-- ast.If object at 0x7efd0f602cb0&#45;&gt;ast.Compare object at 0x7efd0f6010f0 -->
<g id="edge5" class="edge">
<title>ast.If object at 0x7efd0f602cb0&#45;&gt;ast.Compare object at 0x7efd0f6010f0</title>
<path fill="none" stroke="black" d="M208.5,-359.7C208.5,-351.98 208.5,-342.71 208.5,-334.11"/>
<polygon fill="black" stroke="black" points="212,-334.1 208.5,-324.1 205,-334.1 212,-334.1"/>
</g>
<!-- ast.Return object at 0x7efd0f602c50 -->
<g id="node11" class="node">
<title>ast.Return object at 0x7efd0f602c50</title>
<path fill="#66cdaa" stroke="black" d="M144.5,-324C144.5,-324 114.5,-324 114.5,-324 108.5,-324 102.5,-318 102.5,-312 102.5,-312 102.5,-300 102.5,-300 102.5,-294 108.5,-288 114.5,-288 114.5,-288 144.5,-288 144.5,-288 150.5,-288 156.5,-294 156.5,-300 156.5,-300 156.5,-312 156.5,-312 156.5,-318 150.5,-324 144.5,-324"/>
<text text-anchor="middle" x="129.5" y="-302.3" font-family="Times,serif" font-size="14.00">Return</text>
</g>
<!-- ast.If object at 0x7efd0f602cb0&#45;&gt;ast.Return object at 0x7efd0f602c50 -->
<g id="edge10" class="edge">
<title>ast.If object at 0x7efd0f602cb0&#45;&gt;ast.Return object at 0x7efd0f602c50</title>
<path fill="none" stroke="black" d="M188.97,-359.7C179.12,-350.97 167.01,-340.24 156.3,-330.75"/>
<polygon fill="black" stroke="black" points="158.61,-328.12 148.8,-324.1 153.97,-333.36 158.61,-328.12"/>
</g>
<!-- ast.Name object at 0x7efd0f602950 -->
<g id="node7" class="node">
<title>ast.Name object at 0x7efd0f602950</title>
<path fill="#66cdaa" stroke="black" d="M216.5,-180C216.5,-180 186.5,-180 186.5,-180 180.5,-180 174.5,-174 174.5,-168 174.5,-168 174.5,-156 174.5,-156 174.5,-150 180.5,-144 186.5,-144 186.5,-144 216.5,-144 216.5,-144 222.5,-144 228.5,-150 228.5,-156 228.5,-156 228.5,-168 228.5,-168 228.5,-174 222.5,-180 216.5,-180"/>
<text text-anchor="middle" x="201.5" y="-158.3" font-family="Times,serif" font-size="14.00">Name</text>
</g>
<!-- ast.Compare object at 0x7efd0f6010f0&#45;&gt;ast.Name object at 0x7efd0f602950 -->
<g id="edge6" class="edge">
<title>ast.Compare object at 0x7efd0f6010f0&#45;&gt;ast.Name object at 0x7efd0f602950</title>
<path fill="none" stroke="black" d="M203.09,-287.53C200.2,-277.29 196.95,-264.04 195.5,-252 193.01,-231.37 194.77,-207.92 197.02,-190.27"/>
<polygon fill="black" stroke="black" points="200.52,-190.5 198.45,-180.11 193.59,-189.53 200.52,-190.5"/>
</g>
<!-- ast.LtE object at 0x7efd153eea70 -->
<g id="node9" class="node">
<title>ast.LtE object at 0x7efd153eea70</title>
<path fill="#66cdaa" stroke="black" d="M246.5,-252C246.5,-252 216.5,-252 216.5,-252 210.5,-252 204.5,-246 204.5,-240 204.5,-240 204.5,-228 204.5,-228 204.5,-222 210.5,-216 216.5,-216 216.5,-216 246.5,-216 246.5,-216 252.5,-216 258.5,-222 258.5,-228 258.5,-228 258.5,-240 258.5,-240 258.5,-246 252.5,-252 246.5,-252"/>
<text text-anchor="middle" x="231.5" y="-230.3" font-family="Times,serif" font-size="14.00">LtE</text>
</g>
<!-- ast.Compare object at 0x7efd0f6010f0&#45;&gt;ast.LtE object at 0x7efd153eea70 -->
<g id="edge8" class="edge">
<title>ast.Compare object at 0x7efd0f6010f0&#45;&gt;ast.LtE object at 0x7efd153eea70</title>
<path fill="none" stroke="black" d="M214.19,-287.7C216.75,-279.9 219.83,-270.51 222.68,-261.83"/>
<polygon fill="black" stroke="black" points="226.08,-262.7 225.88,-252.1 219.43,-260.51 226.08,-262.7"/>
</g>
<!-- ast.Constant object at 0x7efd0f600520 -->
<g id="node10" class="node">
<title>ast.Constant object at 0x7efd0f600520</title>
<path fill="#66cdaa" stroke="black" d="M136,-252C136,-252 95,-252 95,-252 89,-252 83,-246 83,-240 83,-240 83,-228 83,-228 83,-222 89,-216 95,-216 95,-216 136,-216 136,-216 142,-216 148,-222 148,-228 148,-228 148,-240 148,-240 148,-246 142,-252 136,-252"/>
<text text-anchor="middle" x="115.5" y="-230.3" font-family="Times,serif" font-size="14.00">Constant</text>
</g>
<!-- ast.Compare object at 0x7efd0f6010f0&#45;&gt;ast.Constant object at 0x7efd0f600520 -->
<g id="edge9" class="edge">
<title>ast.Compare object at 0x7efd0f6010f0&#45;&gt;ast.Constant object at 0x7efd0f600520</title>
<path fill="none" stroke="black" d="M185.51,-287.7C173.69,-278.8 159.11,-267.82 146.32,-258.2"/>
<polygon fill="black" stroke="black" points="148.32,-255.32 138.22,-252.1 144.11,-260.91 148.32,-255.32"/>
</g>
<!-- ast.Load object at 0x7efd153ee020 -->
<g id="node8" class="node">
<title>ast.Load object at 0x7efd153ee020</title>
<path fill="#66cdaa" stroke="black" d="M483.5,-36C483.5,-36 453.5,-36 453.5,-36 447.5,-36 441.5,-30 441.5,-24 441.5,-24 441.5,-12 441.5,-12 441.5,-6 447.5,0 453.5,0 453.5,0 483.5,0 483.5,0 489.5,0 495.5,-6 495.5,-12 495.5,-12 495.5,-24 495.5,-24 495.5,-30 489.5,-36 483.5,-36"/>
<text text-anchor="middle" x="468.5" y="-14.3" font-family="Times,serif" font-size="14.00">Load</text>
</g>
<!-- ast.Name object at 0x7efd0f602950&#45;&gt;ast.Load object at 0x7efd153ee020 -->
<g id="edge7" class="edge">
<title>ast.Name object at 0x7efd0f602950&#45;&gt;ast.Load object at 0x7efd153ee020</title>
<path fill="none" stroke="black" d="M228.71,-144.15C258.98,-125.65 309.55,-95.46 354.5,-72 380.07,-58.66 409.61,-44.97 432.21,-34.85"/>
<polygon fill="black" stroke="black" points="433.73,-38 441.44,-30.74 430.88,-31.61 433.73,-38"/>
</g>
<!-- ast.Constant object at 0x7efd0f6026e0 -->
<g id="node12" class="node">
<title>ast.Constant object at 0x7efd0f6026e0</title>
<path fill="#66cdaa" stroke="black" d="M53,-252C53,-252 12,-252 12,-252 6,-252 0,-246 0,-240 0,-240 0,-228 0,-228 0,-222 6,-216 12,-216 12,-216 53,-216 53,-216 59,-216 65,-222 65,-228 65,-228 65,-240 65,-240 65,-246 59,-252 53,-252"/>
<text text-anchor="middle" x="32.5" y="-230.3" font-family="Times,serif" font-size="14.00">Constant</text>
</g>
<!-- ast.Return object at 0x7efd0f602c50&#45;&gt;ast.Constant object at 0x7efd0f6026e0 -->
<g id="edge11" class="edge">
<title>ast.Return object at 0x7efd0f602c50&#45;&gt;ast.Constant object at 0x7efd0f6026e0</title>
<path fill="none" stroke="black" d="M105.52,-287.7C93.19,-278.8 77.98,-267.82 64.65,-258.2"/>
<polygon fill="black" stroke="black" points="66.36,-255.12 56.2,-252.1 62.26,-260.79 66.36,-255.12"/>
</g>
<!-- ast.Name object at 0x7efd0f602ce0 -->
<g id="node14" class="node">
<title>ast.Name object at 0x7efd0f602ce0</title>
<path fill="#66cdaa" stroke="black" d="M356.5,-324C356.5,-324 326.5,-324 326.5,-324 320.5,-324 314.5,-318 314.5,-312 314.5,-312 314.5,-300 314.5,-300 314.5,-294 320.5,-288 326.5,-288 326.5,-288 356.5,-288 356.5,-288 362.5,-288 368.5,-294 368.5,-300 368.5,-300 368.5,-312 368.5,-312 368.5,-318 362.5,-324 356.5,-324"/>
<text text-anchor="middle" x="341.5" y="-302.3" font-family="Times,serif" font-size="14.00">Name</text>
</g>
<!-- ast.Assign object at 0x7efd0f6038b0&#45;&gt;ast.Name object at 0x7efd0f602ce0 -->
<g id="edge13" class="edge">
<title>ast.Assign object at 0x7efd0f6038b0&#45;&gt;ast.Name object at 0x7efd0f602ce0</title>
<path fill="none" stroke="black" d="M312.14,-359.7C316.63,-351.64 322.06,-341.89 327.02,-332.98"/>
<polygon fill="black" stroke="black" points="330.16,-334.54 331.97,-324.1 324.05,-331.14 330.16,-334.54"/>
</g>
<!-- ast.List object at 0x7efd0f600c40 -->
<g id="node16" class="node">
<title>ast.List object at 0x7efd0f600c40</title>
<path fill="#66cdaa" stroke="black" d="M307.5,-180C307.5,-180 277.5,-180 277.5,-180 271.5,-180 265.5,-174 265.5,-168 265.5,-168 265.5,-156 265.5,-156 265.5,-150 271.5,-144 277.5,-144 277.5,-144 307.5,-144 307.5,-144 313.5,-144 319.5,-150 319.5,-156 319.5,-156 319.5,-168 319.5,-168 319.5,-174 313.5,-180 307.5,-180"/>
<text text-anchor="middle" x="292.5" y="-158.3" font-family="Times,serif" font-size="14.00">List</text>
</g>
<!-- ast.Assign object at 0x7efd0f6038b0&#45;&gt;ast.List object at 0x7efd0f600c40 -->
<g id="edge15" class="edge">
<title>ast.Assign object at 0x7efd0f6038b0&#45;&gt;ast.List object at 0x7efd0f600c40</title>
<path fill="none" stroke="black" d="M301.7,-359.85C299.97,-322.83 295.87,-235.18 293.78,-190.39"/>
<polygon fill="black" stroke="black" points="297.27,-190.06 293.31,-180.23 290.28,-190.38 297.27,-190.06"/>
</g>
<!-- ast.Store object at 0x7efd153ee080 -->
<g id="node15" class="node">
<title>ast.Store object at 0x7efd153ee080</title>
<path fill="#66cdaa" stroke="black" d="M356.5,-252C356.5,-252 326.5,-252 326.5,-252 320.5,-252 314.5,-246 314.5,-240 314.5,-240 314.5,-228 314.5,-228 314.5,-222 320.5,-216 326.5,-216 326.5,-216 356.5,-216 356.5,-216 362.5,-216 368.5,-222 368.5,-228 368.5,-228 368.5,-240 368.5,-240 368.5,-246 362.5,-252 356.5,-252"/>
<text text-anchor="middle" x="341.5" y="-230.3" font-family="Times,serif" font-size="14.00">Store</text>
</g>
<!-- ast.Name object at 0x7efd0f602ce0&#45;&gt;ast.Store object at 0x7efd153ee080 -->
<g id="edge14" class="edge">
<title>ast.Name object at 0x7efd0f602ce0&#45;&gt;ast.Store object at 0x7efd153ee080</title>
<path fill="none" stroke="black" d="M341.5,-287.7C341.5,-279.98 341.5,-270.71 341.5,-262.11"/>
<polygon fill="black" stroke="black" points="345,-262.1 341.5,-252.1 338,-262.1 345,-262.1"/>
</g>
<!-- ast.List object at 0x7efd0f600c40&#45;&gt;ast.Load object at 0x7efd153ee020 -->
<g id="edge16" class="edge">
<title>ast.List object at 0x7efd0f600c40&#45;&gt;ast.Load object at 0x7efd153ee020</title>
<path fill="none" stroke="black" d="M313.07,-143.77C334.7,-125.72 369.79,-96.62 400.5,-72 412.72,-62.21 426.3,-51.57 438.1,-42.41"/>
<polygon fill="black" stroke="black" points="440.57,-44.93 446.33,-36.03 436.28,-39.39 440.57,-44.93"/>
</g>
<!-- ast.Name object at 0x7efd0f600940 -->
<g id="node18" class="node">
<title>ast.Name object at 0x7efd0f600940</title>
<path fill="#66cdaa" stroke="black" d="M428.5,-324C428.5,-324 398.5,-324 398.5,-324 392.5,-324 386.5,-318 386.5,-312 386.5,-312 386.5,-300 386.5,-300 386.5,-294 392.5,-288 398.5,-288 398.5,-288 428.5,-288 428.5,-288 434.5,-288 440.5,-294 440.5,-300 440.5,-300 440.5,-312 440.5,-312 440.5,-318 434.5,-324 428.5,-324"/>
<text text-anchor="middle" x="413.5" y="-302.3" font-family="Times,serif" font-size="14.00">Name</text>
</g>
<!-- ast.For object at 0x7efd0f600ac0&#45;&gt;ast.Name object at 0x7efd0f600940 -->
<g id="edge18" class="edge">
<title>ast.For object at 0x7efd0f600ac0&#45;&gt;ast.Name object at 0x7efd0f600940</title>
<path fill="none" stroke="black" d="M440.6,-359.7C436.5,-351.73 431.55,-342.1 427.01,-333.26"/>
<polygon fill="black" stroke="black" points="429.98,-331.4 422.3,-324.1 423.76,-334.6 429.98,-331.4"/>
</g>
<!-- ast.Call object at 0x7efd0f6004c0 -->
<g id="node19" class="node">
<title>ast.Call object at 0x7efd0f6004c0</title>
<path fill="#66cdaa" stroke="black" d="M500.5,-324C500.5,-324 470.5,-324 470.5,-324 464.5,-324 458.5,-318 458.5,-312 458.5,-312 458.5,-300 458.5,-300 458.5,-294 464.5,-288 470.5,-288 470.5,-288 500.5,-288 500.5,-288 506.5,-288 512.5,-294 512.5,-300 512.5,-300 512.5,-312 512.5,-312 512.5,-318 506.5,-324 500.5,-324"/>
<text text-anchor="middle" x="485.5" y="-302.3" font-family="Times,serif" font-size="14.00">Call</text>
</g>
<!-- ast.For object at 0x7efd0f600ac0&#45;&gt;ast.Call object at 0x7efd0f6004c0 -->
<g id="edge20" class="edge">
<title>ast.For object at 0x7efd0f600ac0&#45;&gt;ast.Call object at 0x7efd0f6004c0</title>
<path fill="none" stroke="black" d="M458.4,-359.7C462.5,-351.73 467.45,-342.1 471.99,-333.26"/>
<polygon fill="black" stroke="black" points="475.24,-334.6 476.7,-324.1 469.02,-331.4 475.24,-334.6"/>
</g>
<!-- ast.Expr object at 0x7efd0f600250 -->
<g id="node23" class="node">
<title>ast.Expr object at 0x7efd0f600250</title>
<path fill="#66cdaa" stroke="black" d="M603.5,-324C603.5,-324 573.5,-324 573.5,-324 567.5,-324 561.5,-318 561.5,-312 561.5,-312 561.5,-300 561.5,-300 561.5,-294 567.5,-288 573.5,-288 573.5,-288 603.5,-288 603.5,-288 609.5,-288 615.5,-294 615.5,-300 615.5,-300 615.5,-312 615.5,-312 615.5,-318 609.5,-324 603.5,-324"/>
<text text-anchor="middle" x="588.5" y="-302.3" font-family="Times,serif" font-size="14.00">Expr</text>
</g>
<!-- ast.For object at 0x7efd0f600ac0&#45;&gt;ast.Expr object at 0x7efd0f600250 -->
<g id="edge25" class="edge">
<title>ast.For object at 0x7efd0f600ac0&#45;&gt;ast.Expr object at 0x7efd0f600250</title>
<path fill="none" stroke="black" d="M476.63,-363.34C498.25,-352.45 528.72,-337.1 552.4,-325.18"/>
<polygon fill="black" stroke="black" points="554.08,-328.25 561.44,-320.63 550.93,-322 554.08,-328.25"/>
</g>
<!-- ast.Name object at 0x7efd0f600940&#45;&gt;ast.Store object at 0x7efd153ee080 -->
<g id="edge19" class="edge">
<title>ast.Name object at 0x7efd0f600940&#45;&gt;ast.Store object at 0x7efd153ee080</title>
<path fill="none" stroke="black" d="M395.7,-287.7C386.9,-279.14 376.12,-268.66 366.5,-259.3"/>
<polygon fill="black" stroke="black" points="368.7,-256.57 359.09,-252.1 363.82,-261.58 368.7,-256.57"/>
</g>
<!-- ast.Name object at 0x7efd0f602e60 -->
<g id="node20" class="node">
<title>ast.Name object at 0x7efd0f602e60</title>
<path fill="#66cdaa" stroke="black" d="M398.5,-180C398.5,-180 368.5,-180 368.5,-180 362.5,-180 356.5,-174 356.5,-168 356.5,-168 356.5,-156 356.5,-156 356.5,-150 362.5,-144 368.5,-144 368.5,-144 398.5,-144 398.5,-144 404.5,-144 410.5,-150 410.5,-156 410.5,-156 410.5,-168 410.5,-168 410.5,-174 404.5,-180 398.5,-180"/>
<text text-anchor="middle" x="383.5" y="-158.3" font-family="Times,serif" font-size="14.00">Name</text>
</g>
<!-- ast.Call object at 0x7efd0f6004c0&#45;&gt;ast.Name object at 0x7efd0f602e60 -->
<g id="edge21" class="edge">
<title>ast.Call object at 0x7efd0f6004c0&#45;&gt;ast.Name object at 0x7efd0f602e60</title>
<path fill="none" stroke="black" d="M484.4,-287.76C482.42,-268.64 476.91,-237.64 461.5,-216 450.88,-201.09 434.67,-189.09 419.76,-180.31"/>
<polygon fill="black" stroke="black" points="421.15,-177.08 410.71,-175.26 417.74,-183.19 421.15,-177.08"/>
</g>
<!-- ast.Constant object at 0x7efd0f603130 -->
<g id="node21" class="node">
<title>ast.Constant object at 0x7efd0f603130</title>
<path fill="#66cdaa" stroke="black" d="M562,-252C562,-252 521,-252 521,-252 515,-252 509,-246 509,-240 509,-240 509,-228 509,-228 509,-222 515,-216 521,-216 521,-216 562,-216 562,-216 568,-216 574,-222 574,-228 574,-228 574,-240 574,-240 574,-246 568,-252 562,-252"/>
<text text-anchor="middle" x="541.5" y="-230.3" font-family="Times,serif" font-size="14.00">Constant</text>
</g>
<!-- ast.Call object at 0x7efd0f6004c0&#45;&gt;ast.Constant object at 0x7efd0f603130 -->
<g id="edge23" class="edge">
<title>ast.Call object at 0x7efd0f6004c0&#45;&gt;ast.Constant object at 0x7efd0f603130</title>
<path fill="none" stroke="black" d="M499.34,-287.7C505.99,-279.39 514.08,-269.28 521.39,-260.14"/>
<polygon fill="black" stroke="black" points="524.3,-262.1 527.82,-252.1 518.84,-257.73 524.3,-262.1"/>
</g>
<!-- ast.Constant object at 0x7efd0f602e00 -->
<g id="node22" class="node">
<title>ast.Constant object at 0x7efd0f602e00</title>
<path fill="#66cdaa" stroke="black" d="M440,-252C440,-252 399,-252 399,-252 393,-252 387,-246 387,-240 387,-240 387,-228 387,-228 387,-222 393,-216 399,-216 399,-216 440,-216 440,-216 446,-216 452,-222 452,-228 452,-228 452,-240 452,-240 452,-246 446,-252 440,-252"/>
<text text-anchor="middle" x="419.5" y="-230.3" font-family="Times,serif" font-size="14.00">Constant</text>
</g>
<!-- ast.Call object at 0x7efd0f6004c0&#45;&gt;ast.Constant object at 0x7efd0f602e00 -->
<g id="edge24" class="edge">
<title>ast.Call object at 0x7efd0f6004c0&#45;&gt;ast.Constant object at 0x7efd0f602e00</title>
<path fill="none" stroke="black" d="M469.19,-287.7C461.19,-279.22 451.43,-268.86 442.68,-259.58"/>
<polygon fill="black" stroke="black" points="445.03,-256.98 435.63,-252.1 439.94,-261.78 445.03,-256.98"/>
</g>
<!-- ast.Name object at 0x7efd0f602e60&#45;&gt;ast.Load object at 0x7efd153ee020 -->
<g id="edge22" class="edge">
<title>ast.Name object at 0x7efd0f602e60&#45;&gt;ast.Load object at 0x7efd153ee020</title>
<path fill="none" stroke="black" d="M389.82,-143.92C396.98,-125.49 409.63,-95.6 424.5,-72 430.59,-62.34 438.26,-52.51 445.48,-43.99"/>
<polygon fill="black" stroke="black" points="448.28,-46.1 452.2,-36.26 443,-41.51 448.28,-46.1"/>
</g>
<!-- ast.Call object at 0x7efd0f602050 -->
<g id="node24" class="node">
<title>ast.Call object at 0x7efd0f602050</title>
<path fill="#66cdaa" stroke="black" d="M634.5,-252C634.5,-252 604.5,-252 604.5,-252 598.5,-252 592.5,-246 592.5,-240 592.5,-240 592.5,-228 592.5,-228 592.5,-222 598.5,-216 604.5,-216 604.5,-216 634.5,-216 634.5,-216 640.5,-216 646.5,-222 646.5,-228 646.5,-228 646.5,-240 646.5,-240 646.5,-246 640.5,-252 634.5,-252"/>
<text text-anchor="middle" x="619.5" y="-230.3" font-family="Times,serif" font-size="14.00">Call</text>
</g>
<!-- ast.Expr object at 0x7efd0f600250&#45;&gt;ast.Call object at 0x7efd0f602050 -->
<g id="edge26" class="edge">
<title>ast.Expr object at 0x7efd0f600250&#45;&gt;ast.Call object at 0x7efd0f602050</title>
<path fill="none" stroke="black" d="M596.16,-287.7C599.69,-279.73 603.96,-270.1 607.87,-261.26"/>
<polygon fill="black" stroke="black" points="611.08,-262.67 611.93,-252.1 604.68,-259.83 611.08,-262.67"/>
</g>
<!-- ast.Attribute object at 0x7efd0f600b20 -->
<g id="node25" class="node">
<title>ast.Attribute object at 0x7efd0f600b20</title>
<path fill="#66cdaa" stroke="black" d="M489,-180C489,-180 448,-180 448,-180 442,-180 436,-174 436,-168 436,-168 436,-156 436,-156 436,-150 442,-144 448,-144 448,-144 489,-144 489,-144 495,-144 501,-150 501,-156 501,-156 501,-168 501,-168 501,-174 495,-180 489,-180"/>
<text text-anchor="middle" x="468.5" y="-158.3" font-family="Times,serif" font-size="14.00">Attribute</text>
</g>
<!-- ast.Call object at 0x7efd0f602050&#45;&gt;ast.Attribute object at 0x7efd0f600b20 -->
<g id="edge27" class="edge">
<title>ast.Call object at 0x7efd0f602050&#45;&gt;ast.Attribute object at 0x7efd0f600b20</title>
<path fill="none" stroke="black" d="M592.39,-220.16C589.39,-218.75 586.38,-217.34 583.5,-216 559.38,-204.75 532.35,-192.28 510.56,-182.27"/>
<polygon fill="black" stroke="black" points="511.8,-178.99 501.25,-178 508.88,-185.35 511.8,-178.99"/>
</g>
<!-- ast.BinOp object at 0x7efd0f601cf0 -->
<g id="node27" class="node">
<title>ast.BinOp object at 0x7efd0f601cf0</title>
<path fill="#66cdaa" stroke="black" d="M630.5,-180C630.5,-180 600.5,-180 600.5,-180 594.5,-180 588.5,-174 588.5,-168 588.5,-168 588.5,-156 588.5,-156 588.5,-150 594.5,-144 600.5,-144 600.5,-144 630.5,-144 630.5,-144 636.5,-144 642.5,-150 642.5,-156 642.5,-156 642.5,-168 642.5,-168 642.5,-174 636.5,-180 630.5,-180"/>
<text text-anchor="middle" x="615.5" y="-158.3" font-family="Times,serif" font-size="14.00">BinOp</text>
</g>
<!-- ast.Call object at 0x7efd0f602050&#45;&gt;ast.BinOp object at 0x7efd0f601cf0 -->
<g id="edge31" class="edge">
<title>ast.Call object at 0x7efd0f602050&#45;&gt;ast.BinOp object at 0x7efd0f601cf0</title>
<path fill="none" stroke="black" d="M618.51,-215.7C618.07,-207.98 617.54,-198.71 617.05,-190.11"/>
<polygon fill="black" stroke="black" points="620.54,-189.89 616.48,-180.1 613.55,-190.29 620.54,-189.89"/>
</g>
<!-- ast.Attribute object at 0x7efd0f600b20&#45;&gt;ast.Load object at 0x7efd153ee020 -->
<g id="edge30" class="edge">
<title>ast.Attribute object at 0x7efd0f600b20&#45;&gt;ast.Load object at 0x7efd153ee020</title>
<path fill="none" stroke="black" d="M452.89,-143.77C445.13,-134.03 436.55,-121.18 432.5,-108 427.8,-92.71 427.8,-87.29 432.5,-72 435.51,-62.22 441.01,-52.62 446.82,-44.33"/>
<polygon fill="black" stroke="black" points="449.69,-46.33 452.89,-36.23 444.09,-42.13 449.69,-46.33"/>
</g>
<!-- ast.Name object at 0x7efd0f600be0 -->
<g id="node26" class="node">
<title>ast.Name object at 0x7efd0f600be0</title>
<path fill="#66cdaa" stroke="black" d="M483.5,-108C483.5,-108 453.5,-108 453.5,-108 447.5,-108 441.5,-102 441.5,-96 441.5,-96 441.5,-84 441.5,-84 441.5,-78 447.5,-72 453.5,-72 453.5,-72 483.5,-72 483.5,-72 489.5,-72 495.5,-78 495.5,-84 495.5,-84 495.5,-96 495.5,-96 495.5,-102 489.5,-108 483.5,-108"/>
<text text-anchor="middle" x="468.5" y="-86.3" font-family="Times,serif" font-size="14.00">Name</text>
</g>
<!-- ast.Attribute object at 0x7efd0f600b20&#45;&gt;ast.Name object at 0x7efd0f600be0 -->
<g id="edge28" class="edge">
<title>ast.Attribute object at 0x7efd0f600b20&#45;&gt;ast.Name object at 0x7efd0f600be0</title>
<path fill="none" stroke="black" d="M468.5,-143.7C468.5,-135.98 468.5,-126.71 468.5,-118.11"/>
<polygon fill="black" stroke="black" points="472,-118.1 468.5,-108.1 465,-118.1 472,-118.1"/>
</g>
<!-- ast.Name object at 0x7efd0f600be0&#45;&gt;ast.Load object at 0x7efd153ee020 -->
<g id="edge29" class="edge">
<title>ast.Name object at 0x7efd0f600be0&#45;&gt;ast.Load object at 0x7efd153ee020</title>
<path fill="none" stroke="black" d="M468.5,-71.7C468.5,-63.98 468.5,-54.71 468.5,-46.11"/>
<polygon fill="black" stroke="black" points="472,-46.1 468.5,-36.1 465,-46.1 472,-46.1"/>
</g>
<!-- ast.Name object at 0x7efd0f603fd0 -->
<g id="node28" class="node">
<title>ast.Name object at 0x7efd0f603fd0</title>
<path fill="#66cdaa" stroke="black" d="M699.5,-108C699.5,-108 669.5,-108 669.5,-108 663.5,-108 657.5,-102 657.5,-96 657.5,-96 657.5,-84 657.5,-84 657.5,-78 663.5,-72 669.5,-72 669.5,-72 699.5,-72 699.5,-72 705.5,-72 711.5,-78 711.5,-84 711.5,-84 711.5,-96 711.5,-96 711.5,-102 705.5,-108 699.5,-108"/>
<text text-anchor="middle" x="684.5" y="-86.3" font-family="Times,serif" font-size="14.00">Name</text>
</g>
<!-- ast.BinOp object at 0x7efd0f601cf0&#45;&gt;ast.Name object at 0x7efd0f603fd0 -->
<g id="edge32" class="edge">
<title>ast.BinOp object at 0x7efd0f601cf0&#45;&gt;ast.Name object at 0x7efd0f603fd0</title>
<path fill="none" stroke="black" d="M632.56,-143.7C641,-135.14 651.32,-124.66 660.54,-115.3"/>
<polygon fill="black" stroke="black" points="663.11,-117.68 667.64,-108.1 658.13,-112.77 663.11,-117.68"/>
</g>
<!-- ast.Mult object at 0x7efd153ee320 -->
<g id="node29" class="node">
<title>ast.Mult object at 0x7efd153ee320</title>
<path fill="#66cdaa" stroke="black" d="M555.5,-108C555.5,-108 525.5,-108 525.5,-108 519.5,-108 513.5,-102 513.5,-96 513.5,-96 513.5,-84 513.5,-84 513.5,-78 519.5,-72 525.5,-72 525.5,-72 555.5,-72 555.5,-72 561.5,-72 567.5,-78 567.5,-84 567.5,-84 567.5,-96 567.5,-96 567.5,-102 561.5,-108 555.5,-108"/>
<text text-anchor="middle" x="540.5" y="-86.3" font-family="Times,serif" font-size="14.00">Mult</text>
</g>
<!-- ast.BinOp object at 0x7efd0f601cf0&#45;&gt;ast.Mult object at 0x7efd153ee320 -->
<g id="edge34" class="edge">
<title>ast.BinOp object at 0x7efd0f601cf0&#45;&gt;ast.Mult object at 0x7efd153ee320</title>
<path fill="none" stroke="black" d="M596.96,-143.7C587.7,-135.05 576.34,-124.45 566.24,-115.03"/>
<polygon fill="black" stroke="black" points="568.52,-112.37 558.83,-108.1 563.75,-117.49 568.52,-112.37"/>
</g>
<!-- ast.Name object at 0x7efd0f601d20 -->
<g id="node30" class="node">
<title>ast.Name object at 0x7efd0f601d20</title>
<path fill="#66cdaa" stroke="black" d="M627.5,-108C627.5,-108 597.5,-108 597.5,-108 591.5,-108 585.5,-102 585.5,-96 585.5,-96 585.5,-84 585.5,-84 585.5,-78 591.5,-72 597.5,-72 597.5,-72 627.5,-72 627.5,-72 633.5,-72 639.5,-78 639.5,-84 639.5,-84 639.5,-96 639.5,-96 639.5,-102 633.5,-108 627.5,-108"/>
<text text-anchor="middle" x="612.5" y="-86.3" font-family="Times,serif" font-size="14.00">Name</text>
</g>
<!-- ast.BinOp object at 0x7efd0f601cf0&#45;&gt;ast.Name object at 0x7efd0f601d20 -->
<g id="edge35" class="edge">
<title>ast.BinOp object at 0x7efd0f601cf0&#45;&gt;ast.Name object at 0x7efd0f601d20</title>
<path fill="none" stroke="black" d="M614.76,-143.7C614.43,-135.98 614.03,-126.71 613.66,-118.11"/>
<polygon fill="black" stroke="black" points="617.16,-117.95 613.23,-108.1 610.16,-118.25 617.16,-117.95"/>
</g>
<!-- ast.Name object at 0x7efd0f603fd0&#45;&gt;ast.Load object at 0x7efd153ee020 -->
<g id="edge33" class="edge">
<title>ast.Name object at 0x7efd0f603fd0&#45;&gt;ast.Load object at 0x7efd153ee020</title>
<path fill="none" stroke="black" d="M657.17,-75.56C654.27,-74.29 651.34,-73.08 648.5,-72 600.08,-53.57 542.35,-37.58 505.56,-28.12"/>
<polygon fill="black" stroke="black" points="506.32,-24.7 495.77,-25.62 504.6,-31.48 506.32,-24.7"/>
</g>
<!-- ast.Name object at 0x7efd0f601d20&#45;&gt;ast.Load object at 0x7efd153ee020 -->
<g id="edge36" class="edge">
<title>ast.Name object at 0x7efd0f601d20&#45;&gt;ast.Load object at 0x7efd153ee020</title>
<path fill="none" stroke="black" d="M585.41,-75.83C562.73,-64.81 530.14,-48.97 505.13,-36.81"/>
<polygon fill="black" stroke="black" points="506.48,-33.57 495.95,-32.35 503.42,-39.87 506.48,-33.57"/>
</g>
<!-- ast.Call object at 0x7efd0f603370 -->
<g id="node32" class="node">
<title>ast.Call object at 0x7efd0f603370</title>
<path fill="#66cdaa" stroke="black" d="M771.5,-180C771.5,-180 741.5,-180 741.5,-180 735.5,-180 729.5,-174 729.5,-168 729.5,-168 729.5,-156 729.5,-156 729.5,-150 735.5,-144 741.5,-144 741.5,-144 771.5,-144 771.5,-144 777.5,-144 783.5,-150 783.5,-156 783.5,-156 783.5,-168 783.5,-168 783.5,-174 777.5,-180 771.5,-180"/>
<text text-anchor="middle" x="756.5" y="-158.3" font-family="Times,serif" font-size="14.00">Call</text>
</g>
<!-- ast.Return object at 0x7efd0f600490&#45;&gt;ast.Call object at 0x7efd0f603370 -->
<g id="edge38" class="edge">
<title>ast.Return object at 0x7efd0f600490&#45;&gt;ast.Call object at 0x7efd0f603370</title>
<path fill="none" stroke="black" d="M661.75,-359.85C679.72,-322.52 722.47,-233.69 743.86,-189.26"/>
<polygon fill="black" stroke="black" points="747.02,-190.76 748.21,-180.23 740.72,-187.73 747.02,-190.76"/>
</g>
<!-- ast.Name object at 0x7efd0f6004f0 -->
<g id="node33" class="node">
<title>ast.Name object at 0x7efd0f6004f0</title>
<path fill="#66cdaa" stroke="black" d="M771.5,-108C771.5,-108 741.5,-108 741.5,-108 735.5,-108 729.5,-102 729.5,-96 729.5,-96 729.5,-84 729.5,-84 729.5,-78 735.5,-72 741.5,-72 741.5,-72 771.5,-72 771.5,-72 777.5,-72 783.5,-78 783.5,-84 783.5,-84 783.5,-96 783.5,-96 783.5,-102 777.5,-108 771.5,-108"/>
<text text-anchor="middle" x="756.5" y="-86.3" font-family="Times,serif" font-size="14.00">Name</text>
</g>
<!-- ast.Call object at 0x7efd0f603370&#45;&gt;ast.Name object at 0x7efd0f6004f0 -->
<g id="edge39" class="edge">
<title>ast.Call object at 0x7efd0f603370&#45;&gt;ast.Name object at 0x7efd0f6004f0</title>
<path fill="none" stroke="black" d="M756.5,-143.7C756.5,-135.98 756.5,-126.71 756.5,-118.11"/>
<polygon fill="black" stroke="black" points="760,-118.1 756.5,-108.1 753,-118.1 760,-118.1"/>
</g>
<!-- ast.Name object at 0x7efd0f600d90 -->
<g id="node34" class="node">
<title>ast.Name object at 0x7efd0f600d90</title>
<path fill="#66cdaa" stroke="black" d="M843.5,-108C843.5,-108 813.5,-108 813.5,-108 807.5,-108 801.5,-102 801.5,-96 801.5,-96 801.5,-84 801.5,-84 801.5,-78 807.5,-72 813.5,-72 813.5,-72 843.5,-72 843.5,-72 849.5,-72 855.5,-78 855.5,-84 855.5,-84 855.5,-96 855.5,-96 855.5,-102 849.5,-108 843.5,-108"/>
<text text-anchor="middle" x="828.5" y="-86.3" font-family="Times,serif" font-size="14.00">Name</text>
</g>
<!-- ast.Call object at 0x7efd0f603370&#45;&gt;ast.Name object at 0x7efd0f600d90 -->
<g id="edge41" class="edge">
<title>ast.Call object at 0x7efd0f603370&#45;&gt;ast.Name object at 0x7efd0f600d90</title>
<path fill="none" stroke="black" d="M774.3,-143.7C783.1,-135.14 793.88,-124.66 803.5,-115.3"/>
<polygon fill="black" stroke="black" points="806.18,-117.58 810.91,-108.1 801.3,-112.57 806.18,-117.58"/>
</g>
<!-- ast.Name object at 0x7efd0f6004f0&#45;&gt;ast.Load object at 0x7efd153ee020 -->
<g id="edge40" class="edge">
<title>ast.Name object at 0x7efd0f6004f0&#45;&gt;ast.Load object at 0x7efd153ee020</title>
<path fill="none" stroke="black" d="M729.26,-75.33C726.34,-74.11 723.38,-72.97 720.5,-72 646.12,-47 555.28,-31.37 505.51,-24.01"/>
<polygon fill="black" stroke="black" points="505.93,-20.53 495.53,-22.56 504.93,-27.46 505.93,-20.53"/>
</g>
<!-- ast.Name object at 0x7efd0f600d90&#45;&gt;ast.Load object at 0x7efd153ee020 -->
<g id="edge42" class="edge">
<title>ast.Name object at 0x7efd0f600d90&#45;&gt;ast.Load object at 0x7efd153ee020</title>
<path fill="none" stroke="black" d="M801.3,-75.19C798.37,-74 795.4,-72.9 792.5,-72 691.61,-40.61 566.95,-26.89 505.84,-21.71"/>
<polygon fill="black" stroke="black" points="505.79,-18.19 495.54,-20.87 505.22,-25.17 505.79,-18.19"/>
</g>
</g>
</svg>
