<?xml version="1.0" encoding="UTF-8" standalone="no"?>
<!DOCTYPE svg PUBLIC "-//W3C//DTD SVG 1.1//EN"
 "http://www.w3.org/Graphics/SVG/1.1/DTD/svg11.dtd">
<!-- Generated by graphviz version 2.43.0 (0)
 -->
<!-- Title: %3 Pages: 1 -->
<svg width="1908pt" height="692pt"
 viewBox="0.00 0.00 1908.00 692.00" xmlns="http://www.w3.org/2000/svg" xmlns:xlink="http://www.w3.org/1999/xlink">
<g id="graph0" class="graph" transform="scale(1 1) rotate(0) translate(4 688)">
<title>%3</title>
<polygon fill="white" stroke="transparent" points="-4,4 -4,-688 1904,-688 1904,4 -4,4"/>
<!-- ast.Module object at 0x7f9a952d5630 -->
<g id="node1" class="node">
<title>ast.Module object at 0x7f9a952d5630</title>
<path fill="#66cdaa" stroke="black" d="M526,-684C526,-684 491,-684 491,-684 485,-684 479,-678 479,-672 479,-672 479,-660 479,-660 479,-654 485,-648 491,-648 491,-648 526,-648 526,-648 532,-648 538,-654 538,-660 538,-660 538,-672 538,-672 538,-678 532,-684 526,-684"/>
<text text-anchor="middle" x="508.5" y="-662.3" font-family="Times,serif" font-size="14.00">Module</text>
</g>
<!-- ast.FunctionDef object at 0x7f9a952d56f0 -->
<g id="node2" class="node">
<title>ast.FunctionDef object at 0x7f9a952d56f0</title>
<path fill="#66cdaa" stroke="black" d="M539,-612C539,-612 478,-612 478,-612 472,-612 466,-606 466,-600 466,-600 466,-588 466,-588 466,-582 472,-576 478,-576 478,-576 539,-576 539,-576 545,-576 551,-582 551,-588 551,-588 551,-600 551,-600 551,-606 545,-612 539,-612"/>
<text text-anchor="middle" x="508.5" y="-590.3" font-family="Times,serif" font-size="14.00">FunctionDef</text>
</g>
<!-- ast.Module object at 0x7f9a952d5630&#45;&gt;ast.FunctionDef object at 0x7f9a952d56f0 -->
<g id="edge1" class="edge">
<title>ast.Module object at 0x7f9a952d5630&#45;&gt;ast.FunctionDef object at 0x7f9a952d56f0</title>
<path fill="none" stroke="black" d="M508.5,-647.7C508.5,-639.98 508.5,-630.71 508.5,-622.11"/>
<polygon fill="black" stroke="black" points="512,-622.1 508.5,-612.1 505,-622.1 512,-622.1"/>
</g>
<!-- ast.arguments object at 0x7f9a952d6890 -->
<g id="node3" class="node">
<title>ast.arguments object at 0x7f9a952d6890</title>
<path fill="#66cdaa" stroke="black" d="M350.5,-540C350.5,-540 300.5,-540 300.5,-540 294.5,-540 288.5,-534 288.5,-528 288.5,-528 288.5,-516 288.5,-516 288.5,-510 294.5,-504 300.5,-504 300.5,-504 350.5,-504 350.5,-504 356.5,-504 362.5,-510 362.5,-516 362.5,-516 362.5,-528 362.5,-528 362.5,-534 356.5,-540 350.5,-540"/>
<text text-anchor="middle" x="325.5" y="-518.3" font-family="Times,serif" font-size="14.00">arguments</text>
</g>
<!-- ast.FunctionDef object at 0x7f9a952d56f0&#45;&gt;ast.arguments object at 0x7f9a952d6890 -->
<g id="edge2" class="edge">
<title>ast.FunctionDef object at 0x7f9a952d56f0&#45;&gt;ast.arguments object at 0x7f9a952d6890</title>
<path fill="none" stroke="black" d="M465.59,-576.59C437.5,-565.84 400.8,-551.8 372,-540.79"/>
<polygon fill="black" stroke="black" points="373.16,-537.48 362.57,-537.18 370.66,-544.02 373.16,-537.48"/>
</g>
<!-- ast.If object at 0x7f9a952d5360 -->
<g id="node5" class="node">
<title>ast.If object at 0x7f9a952d5360</title>
<path fill="#66cdaa" stroke="black" d="M203.5,-324C203.5,-324 173.5,-324 173.5,-324 167.5,-324 161.5,-318 161.5,-312 161.5,-312 161.5,-300 161.5,-300 161.5,-294 167.5,-288 173.5,-288 173.5,-288 203.5,-288 203.5,-288 209.5,-288 215.5,-294 215.5,-300 215.5,-300 215.5,-312 215.5,-312 215.5,-318 209.5,-324 203.5,-324"/>
<text text-anchor="middle" x="188.5" y="-302.3" font-family="Times,serif" font-size="14.00">If</text>
</g>
<!-- ast.FunctionDef object at 0x7f9a952d56f0&#45;&gt;ast.If object at 0x7f9a952d5360 -->
<g id="edge4" class="edge">
<title>ast.FunctionDef object at 0x7f9a952d56f0&#45;&gt;ast.If object at 0x7f9a952d5360</title>
<path fill="none" stroke="black" d="M494.93,-575.96C470.15,-545.37 415.17,-479.86 361.5,-432 317.14,-392.44 260.45,-353.38 224.3,-329.72"/>
<polygon fill="black" stroke="black" points="225.86,-326.57 215.57,-324.05 222.04,-332.43 225.86,-326.57"/>
</g>
<!-- ast.If object at 0x7f9a94111930 -->
<g id="node15" class="node">
<title>ast.If object at 0x7f9a94111930</title>
<path fill="#66cdaa" stroke="black" d="M473.5,-468C473.5,-468 443.5,-468 443.5,-468 437.5,-468 431.5,-462 431.5,-456 431.5,-456 431.5,-444 431.5,-444 431.5,-438 437.5,-432 443.5,-432 443.5,-432 473.5,-432 473.5,-432 479.5,-432 485.5,-438 485.5,-444 485.5,-444 485.5,-456 485.5,-456 485.5,-462 479.5,-468 473.5,-468"/>
<text text-anchor="middle" x="458.5" y="-446.3" font-family="Times,serif" font-size="14.00">If</text>
</g>
<!-- ast.FunctionDef object at 0x7f9a952d56f0&#45;&gt;ast.If object at 0x7f9a94111930 -->
<g id="edge15" class="edge">
<title>ast.FunctionDef object at 0x7f9a952d56f0&#45;&gt;ast.If object at 0x7f9a94111930</title>
<path fill="none" stroke="black" d="M502.47,-575.87C493.87,-551.46 478.02,-506.43 467.88,-477.64"/>
<polygon fill="black" stroke="black" points="471.18,-476.46 464.55,-468.19 464.57,-478.78 471.18,-476.46"/>
</g>
<!-- ast.Assign object at 0x7f9a94113430 -->
<g id="node35" class="node">
<title>ast.Assign object at 0x7f9a94113430</title>
<path fill="#66cdaa" stroke="black" d="M551.5,-540C551.5,-540 521.5,-540 521.5,-540 515.5,-540 509.5,-534 509.5,-528 509.5,-528 509.5,-516 509.5,-516 509.5,-510 515.5,-504 521.5,-504 521.5,-504 551.5,-504 551.5,-504 557.5,-504 563.5,-510 563.5,-516 563.5,-516 563.5,-528 563.5,-528 563.5,-534 557.5,-540 551.5,-540"/>
<text text-anchor="middle" x="536.5" y="-518.3" font-family="Times,serif" font-size="14.00">Assign</text>
</g>
<!-- ast.FunctionDef object at 0x7f9a952d56f0&#45;&gt;ast.Assign object at 0x7f9a94113430 -->
<g id="edge39" class="edge">
<title>ast.FunctionDef object at 0x7f9a952d56f0&#45;&gt;ast.Assign object at 0x7f9a94113430</title>
<path fill="none" stroke="black" d="M515.42,-575.7C518.57,-567.81 522.38,-558.3 525.88,-549.55"/>
<polygon fill="black" stroke="black" points="529.19,-550.69 529.66,-540.1 522.69,-548.09 529.19,-550.69"/>
</g>
<!-- ast.For object at 0x7f9a94110e20 -->
<g id="node39" class="node">
<title>ast.For object at 0x7f9a94110e20</title>
<path fill="#66cdaa" stroke="black" d="M752.5,-540C752.5,-540 722.5,-540 722.5,-540 716.5,-540 710.5,-534 710.5,-528 710.5,-528 710.5,-516 710.5,-516 710.5,-510 716.5,-504 722.5,-504 722.5,-504 752.5,-504 752.5,-504 758.5,-504 764.5,-510 764.5,-516 764.5,-516 764.5,-528 764.5,-528 764.5,-534 758.5,-540 752.5,-540"/>
<text text-anchor="middle" x="737.5" y="-518.3" font-family="Times,serif" font-size="14.00">For</text>
</g>
<!-- ast.FunctionDef object at 0x7f9a952d56f0&#45;&gt;ast.For object at 0x7f9a94110e20 -->
<g id="edge43" class="edge">
<title>ast.FunctionDef object at 0x7f9a952d56f0&#45;&gt;ast.For object at 0x7f9a94110e20</title>
<path fill="none" stroke="black" d="M551.04,-580C594.05,-566.85 659.86,-546.73 700.7,-534.25"/>
<polygon fill="black" stroke="black" points="701.73,-537.59 710.27,-531.32 699.68,-530.9 701.73,-537.59"/>
</g>
<!-- ast.If object at 0x7f9a83ded3f0 -->
<g id="node73" class="node">
<title>ast.If object at 0x7f9a83ded3f0</title>
<path fill="#66cdaa" stroke="black" d="M1734.5,-324C1734.5,-324 1704.5,-324 1704.5,-324 1698.5,-324 1692.5,-318 1692.5,-312 1692.5,-312 1692.5,-300 1692.5,-300 1692.5,-294 1698.5,-288 1704.5,-288 1704.5,-288 1734.5,-288 1734.5,-288 1740.5,-288 1746.5,-294 1746.5,-300 1746.5,-300 1746.5,-312 1746.5,-312 1746.5,-318 1740.5,-324 1734.5,-324"/>
<text text-anchor="middle" x="1719.5" y="-302.3" font-family="Times,serif" font-size="14.00">If</text>
</g>
<!-- ast.FunctionDef object at 0x7f9a952d56f0&#45;&gt;ast.If object at 0x7f9a83ded3f0 -->
<g id="edge94" class="edge">
<title>ast.FunctionDef object at 0x7f9a952d56f0&#45;&gt;ast.If object at 0x7f9a83ded3f0</title>
<path fill="none" stroke="black" d="M551.24,-587.37C661.42,-572.42 963.78,-528.71 1210.5,-468 1390.38,-423.73 1599.66,-350.45 1682.77,-320.44"/>
<polygon fill="black" stroke="black" points="1684.06,-323.7 1692.27,-317 1681.68,-317.11 1684.06,-323.7"/>
</g>
<!-- ast.arg object at 0x7f9a952d6e30 -->
<g id="node4" class="node">
<title>ast.arg object at 0x7f9a952d6e30</title>
<path fill="#66cdaa" stroke="black" d="M340.5,-468C340.5,-468 310.5,-468 310.5,-468 304.5,-468 298.5,-462 298.5,-456 298.5,-456 298.5,-444 298.5,-444 298.5,-438 304.5,-432 310.5,-432 310.5,-432 340.5,-432 340.5,-432 346.5,-432 352.5,-438 352.5,-444 352.5,-444 352.5,-456 352.5,-456 352.5,-462 346.5,-468 340.5,-468"/>
<text text-anchor="middle" x="325.5" y="-446.3" font-family="Times,serif" font-size="14.00">arg</text>
</g>
<!-- ast.arguments object at 0x7f9a952d6890&#45;&gt;ast.arg object at 0x7f9a952d6e30 -->
<g id="edge3" class="edge">
<title>ast.arguments object at 0x7f9a952d6890&#45;&gt;ast.arg object at 0x7f9a952d6e30</title>
<path fill="none" stroke="black" d="M325.5,-503.7C325.5,-495.98 325.5,-486.71 325.5,-478.11"/>
<polygon fill="black" stroke="black" points="329,-478.1 325.5,-468.1 322,-478.1 329,-478.1"/>
</g>
<!-- ast.Compare object at 0x7f9a952d41c0 -->
<g id="node6" class="node">
<title>ast.Compare object at 0x7f9a952d41c0</title>
<path fill="#66cdaa" stroke="black" d="M210,-252C210,-252 167,-252 167,-252 161,-252 155,-246 155,-240 155,-240 155,-228 155,-228 155,-222 161,-216 167,-216 167,-216 210,-216 210,-216 216,-216 222,-222 222,-228 222,-228 222,-240 222,-240 222,-246 216,-252 210,-252"/>
<text text-anchor="middle" x="188.5" y="-230.3" font-family="Times,serif" font-size="14.00">Compare</text>
</g>
<!-- ast.If object at 0x7f9a952d5360&#45;&gt;ast.Compare object at 0x7f9a952d41c0 -->
<g id="edge5" class="edge">
<title>ast.If object at 0x7f9a952d5360&#45;&gt;ast.Compare object at 0x7f9a952d41c0</title>
<path fill="none" stroke="black" d="M188.5,-287.7C188.5,-279.98 188.5,-270.71 188.5,-262.11"/>
<polygon fill="black" stroke="black" points="192,-262.1 188.5,-252.1 185,-262.1 192,-262.1"/>
</g>
<!-- ast.Return object at 0x7f9a952d7820 -->
<g id="node13" class="node">
<title>ast.Return object at 0x7f9a952d7820</title>
<path fill="#66cdaa" stroke="black" d="M86.5,-252C86.5,-252 56.5,-252 56.5,-252 50.5,-252 44.5,-246 44.5,-240 44.5,-240 44.5,-228 44.5,-228 44.5,-222 50.5,-216 56.5,-216 56.5,-216 86.5,-216 86.5,-216 92.5,-216 98.5,-222 98.5,-228 98.5,-228 98.5,-240 98.5,-240 98.5,-246 92.5,-252 86.5,-252"/>
<text text-anchor="middle" x="71.5" y="-230.3" font-family="Times,serif" font-size="14.00">Return</text>
</g>
<!-- ast.If object at 0x7f9a952d5360&#45;&gt;ast.Return object at 0x7f9a952d7820 -->
<g id="edge13" class="edge">
<title>ast.If object at 0x7f9a952d5360&#45;&gt;ast.Return object at 0x7f9a952d7820</title>
<path fill="none" stroke="black" d="M161.36,-288.76C145.38,-279.2 124.97,-266.99 107.64,-256.62"/>
<polygon fill="black" stroke="black" points="109.27,-253.52 98.89,-251.39 105.68,-259.53 109.27,-253.52"/>
</g>
<!-- ast.Call object at 0x7f9a952d6da0 -->
<g id="node7" class="node">
<title>ast.Call object at 0x7f9a952d6da0</title>
<path fill="#66cdaa" stroke="black" d="M281.5,-180C281.5,-180 251.5,-180 251.5,-180 245.5,-180 239.5,-174 239.5,-168 239.5,-168 239.5,-156 239.5,-156 239.5,-150 245.5,-144 251.5,-144 251.5,-144 281.5,-144 281.5,-144 287.5,-144 293.5,-150 293.5,-156 293.5,-156 293.5,-168 293.5,-168 293.5,-174 287.5,-180 281.5,-180"/>
<text text-anchor="middle" x="266.5" y="-158.3" font-family="Times,serif" font-size="14.00">Call</text>
</g>
<!-- ast.Compare object at 0x7f9a952d41c0&#45;&gt;ast.Call object at 0x7f9a952d6da0 -->
<g id="edge6" class="edge">
<title>ast.Compare object at 0x7f9a952d41c0&#45;&gt;ast.Call object at 0x7f9a952d6da0</title>
<path fill="none" stroke="black" d="M207.78,-215.7C217.42,-207.05 229.23,-196.45 239.73,-187.03"/>
<polygon fill="black" stroke="black" points="242.34,-189.39 247.44,-180.1 237.66,-184.18 242.34,-189.39"/>
</g>
<!-- ast.Lt object at 0x7f9a9abee9e0 -->
<g id="node11" class="node">
<title>ast.Lt object at 0x7f9a9abee9e0</title>
<path fill="#66cdaa" stroke="black" d="M125.5,-180C125.5,-180 95.5,-180 95.5,-180 89.5,-180 83.5,-174 83.5,-168 83.5,-168 83.5,-156 83.5,-156 83.5,-150 89.5,-144 95.5,-144 95.5,-144 125.5,-144 125.5,-144 131.5,-144 137.5,-150 137.5,-156 137.5,-156 137.5,-168 137.5,-168 137.5,-174 131.5,-180 125.5,-180"/>
<text text-anchor="middle" x="110.5" y="-158.3" font-family="Times,serif" font-size="14.00">Lt</text>
</g>
<!-- ast.Compare object at 0x7f9a952d41c0&#45;&gt;ast.Lt object at 0x7f9a9abee9e0 -->
<g id="edge11" class="edge">
<title>ast.Compare object at 0x7f9a952d41c0&#45;&gt;ast.Lt object at 0x7f9a9abee9e0</title>
<path fill="none" stroke="black" d="M169.22,-215.7C159.58,-207.05 147.77,-196.45 137.27,-187.03"/>
<polygon fill="black" stroke="black" points="139.34,-184.18 129.56,-180.1 134.66,-189.39 139.34,-184.18"/>
</g>
<!-- ast.Constant object at 0x7f9a952d7760 -->
<g id="node12" class="node">
<title>ast.Constant object at 0x7f9a952d7760</title>
<path fill="#66cdaa" stroke="black" d="M209,-180C209,-180 168,-180 168,-180 162,-180 156,-174 156,-168 156,-168 156,-156 156,-156 156,-150 162,-144 168,-144 168,-144 209,-144 209,-144 215,-144 221,-150 221,-156 221,-156 221,-168 221,-168 221,-174 215,-180 209,-180"/>
<text text-anchor="middle" x="188.5" y="-158.3" font-family="Times,serif" font-size="14.00">Constant</text>
</g>
<!-- ast.Compare object at 0x7f9a952d41c0&#45;&gt;ast.Constant object at 0x7f9a952d7760 -->
<g id="edge12" class="edge">
<title>ast.Compare object at 0x7f9a952d41c0&#45;&gt;ast.Constant object at 0x7f9a952d7760</title>
<path fill="none" stroke="black" d="M188.5,-215.7C188.5,-207.98 188.5,-198.71 188.5,-190.11"/>
<polygon fill="black" stroke="black" points="192,-190.1 188.5,-180.1 185,-190.1 192,-190.1"/>
</g>
<!-- ast.Name object at 0x7f9a952d4c40 -->
<g id="node8" class="node">
<title>ast.Name object at 0x7f9a952d4c40</title>
<path fill="#66cdaa" stroke="black" d="M209.5,-108C209.5,-108 179.5,-108 179.5,-108 173.5,-108 167.5,-102 167.5,-96 167.5,-96 167.5,-84 167.5,-84 167.5,-78 173.5,-72 179.5,-72 179.5,-72 209.5,-72 209.5,-72 215.5,-72 221.5,-78 221.5,-84 221.5,-84 221.5,-96 221.5,-96 221.5,-102 215.5,-108 209.5,-108"/>
<text text-anchor="middle" x="194.5" y="-86.3" font-family="Times,serif" font-size="14.00">Name</text>
</g>
<!-- ast.Call object at 0x7f9a952d6da0&#45;&gt;ast.Name object at 0x7f9a952d4c40 -->
<g id="edge7" class="edge">
<title>ast.Call object at 0x7f9a952d6da0&#45;&gt;ast.Name object at 0x7f9a952d4c40</title>
<path fill="none" stroke="black" d="M248.7,-143.7C239.9,-135.14 229.12,-124.66 219.5,-115.3"/>
<polygon fill="black" stroke="black" points="221.7,-112.57 212.09,-108.1 216.82,-117.58 221.7,-112.57"/>
</g>
<!-- ast.Name object at 0x7f9a952d5240 -->
<g id="node10" class="node">
<title>ast.Name object at 0x7f9a952d5240</title>
<path fill="#66cdaa" stroke="black" d="M281.5,-108C281.5,-108 251.5,-108 251.5,-108 245.5,-108 239.5,-102 239.5,-96 239.5,-96 239.5,-84 239.5,-84 239.5,-78 245.5,-72 251.5,-72 251.5,-72 281.5,-72 281.5,-72 287.5,-72 293.5,-78 293.5,-84 293.5,-84 293.5,-96 293.5,-96 293.5,-102 287.5,-108 281.5,-108"/>
<text text-anchor="middle" x="266.5" y="-86.3" font-family="Times,serif" font-size="14.00">Name</text>
</g>
<!-- ast.Call object at 0x7f9a952d6da0&#45;&gt;ast.Name object at 0x7f9a952d5240 -->
<g id="edge9" class="edge">
<title>ast.Call object at 0x7f9a952d6da0&#45;&gt;ast.Name object at 0x7f9a952d5240</title>
<path fill="none" stroke="black" d="M266.5,-143.7C266.5,-135.98 266.5,-126.71 266.5,-118.11"/>
<polygon fill="black" stroke="black" points="270,-118.1 266.5,-108.1 263,-118.1 270,-118.1"/>
</g>
<!-- ast.Load object at 0x7f9a9abedff0 -->
<g id="node9" class="node">
<title>ast.Load object at 0x7f9a9abedff0</title>
<path fill="#66cdaa" stroke="black" d="M975.5,-36C975.5,-36 945.5,-36 945.5,-36 939.5,-36 933.5,-30 933.5,-24 933.5,-24 933.5,-12 933.5,-12 933.5,-6 939.5,0 945.5,0 945.5,0 975.5,0 975.5,0 981.5,0 987.5,-6 987.5,-12 987.5,-12 987.5,-24 987.5,-24 987.5,-30 981.5,-36 975.5,-36"/>
<text text-anchor="middle" x="960.5" y="-14.3" font-family="Times,serif" font-size="14.00">Load</text>
</g>
<!-- ast.Name object at 0x7f9a952d4c40&#45;&gt;ast.Load object at 0x7f9a9abedff0 -->
<g id="edge8" class="edge">
<title>ast.Name object at 0x7f9a952d4c40&#45;&gt;ast.Load object at 0x7f9a9abedff0</title>
<path fill="none" stroke="black" d="M221.62,-74.92C224.56,-73.78 227.56,-72.77 230.5,-72 363.49,-37.07 793.33,-23.32 923.08,-19.9"/>
<polygon fill="black" stroke="black" points="923.39,-23.4 933.29,-19.64 923.21,-16.4 923.39,-23.4"/>
</g>
<!-- ast.Name object at 0x7f9a952d5240&#45;&gt;ast.Load object at 0x7f9a9abedff0 -->
<g id="edge10" class="edge">
<title>ast.Name object at 0x7f9a952d5240&#45;&gt;ast.Load object at 0x7f9a9abedff0</title>
<path fill="none" stroke="black" d="M293.58,-75.27C296.86,-73.99 300.22,-72.86 303.5,-72 421.99,-41.04 801.62,-24.8 922.88,-20.31"/>
<polygon fill="black" stroke="black" points="923.28,-23.8 933.14,-19.93 923.02,-16.8 923.28,-23.8"/>
</g>
<!-- ast.Constant object at 0x7f9a952d4550 -->
<g id="node14" class="node">
<title>ast.Constant object at 0x7f9a952d4550</title>
<path fill="#66cdaa" stroke="black" d="M53,-180C53,-180 12,-180 12,-180 6,-180 0,-174 0,-168 0,-168 0,-156 0,-156 0,-150 6,-144 12,-144 12,-144 53,-144 53,-144 59,-144 65,-150 65,-156 65,-156 65,-168 65,-168 65,-174 59,-180 53,-180"/>
<text text-anchor="middle" x="32.5" y="-158.3" font-family="Times,serif" font-size="14.00">Constant</text>
</g>
<!-- ast.Return object at 0x7f9a952d7820&#45;&gt;ast.Constant object at 0x7f9a952d4550 -->
<g id="edge14" class="edge">
<title>ast.Return object at 0x7f9a952d7820&#45;&gt;ast.Constant object at 0x7f9a952d4550</title>
<path fill="none" stroke="black" d="M61.86,-215.7C57.37,-207.64 51.94,-197.89 46.98,-188.98"/>
<polygon fill="black" stroke="black" points="49.95,-187.14 42.03,-180.1 43.84,-190.54 49.95,-187.14"/>
</g>
<!-- ast.BoolOp object at 0x7f9a941130a0 -->
<g id="node16" class="node">
<title>ast.BoolOp object at 0x7f9a941130a0</title>
<path fill="#66cdaa" stroke="black" d="M538,-396C538,-396 503,-396 503,-396 497,-396 491,-390 491,-384 491,-384 491,-372 491,-372 491,-366 497,-360 503,-360 503,-360 538,-360 538,-360 544,-360 550,-366 550,-372 550,-372 550,-384 550,-384 550,-390 544,-396 538,-396"/>
<text text-anchor="middle" x="520.5" y="-374.3" font-family="Times,serif" font-size="14.00">BoolOp</text>
</g>
<!-- ast.If object at 0x7f9a94111930&#45;&gt;ast.BoolOp object at 0x7f9a941130a0 -->
<g id="edge16" class="edge">
<title>ast.If object at 0x7f9a94111930&#45;&gt;ast.BoolOp object at 0x7f9a941130a0</title>
<path fill="none" stroke="black" d="M473.83,-431.7C481.26,-423.3 490.32,-413.07 498.48,-403.86"/>
<polygon fill="black" stroke="black" points="501.34,-405.91 505.35,-396.1 496.1,-401.27 501.34,-405.91"/>
</g>
<!-- ast.Return object at 0x7f9a94110e80 -->
<g id="node33" class="node">
<title>ast.Return object at 0x7f9a94110e80</title>
<path fill="#66cdaa" stroke="black" d="M460.5,-396C460.5,-396 430.5,-396 430.5,-396 424.5,-396 418.5,-390 418.5,-384 418.5,-384 418.5,-372 418.5,-372 418.5,-366 424.5,-360 430.5,-360 430.5,-360 460.5,-360 460.5,-360 466.5,-360 472.5,-366 472.5,-372 472.5,-372 472.5,-384 472.5,-384 472.5,-390 466.5,-396 460.5,-396"/>
<text text-anchor="middle" x="445.5" y="-374.3" font-family="Times,serif" font-size="14.00">Return</text>
</g>
<!-- ast.If object at 0x7f9a94111930&#45;&gt;ast.Return object at 0x7f9a94110e80 -->
<g id="edge37" class="edge">
<title>ast.If object at 0x7f9a94111930&#45;&gt;ast.Return object at 0x7f9a94110e80</title>
<path fill="none" stroke="black" d="M455.29,-431.7C453.85,-423.98 452.13,-414.71 450.54,-406.11"/>
<polygon fill="black" stroke="black" points="453.94,-405.3 448.68,-396.1 447.06,-406.58 453.94,-405.3"/>
</g>
<!-- ast.Or object at 0x7f9a9abee1a0 -->
<g id="node17" class="node">
<title>ast.Or object at 0x7f9a9abee1a0</title>
<path fill="#66cdaa" stroke="black" d="M535.5,-324C535.5,-324 505.5,-324 505.5,-324 499.5,-324 493.5,-318 493.5,-312 493.5,-312 493.5,-300 493.5,-300 493.5,-294 499.5,-288 505.5,-288 505.5,-288 535.5,-288 535.5,-288 541.5,-288 547.5,-294 547.5,-300 547.5,-300 547.5,-312 547.5,-312 547.5,-318 541.5,-324 535.5,-324"/>
<text text-anchor="middle" x="520.5" y="-302.3" font-family="Times,serif" font-size="14.00">Or</text>
</g>
<!-- ast.BoolOp object at 0x7f9a941130a0&#45;&gt;ast.Or object at 0x7f9a9abee1a0 -->
<g id="edge17" class="edge">
<title>ast.BoolOp object at 0x7f9a941130a0&#45;&gt;ast.Or object at 0x7f9a9abee1a0</title>
<path fill="none" stroke="black" d="M520.5,-359.7C520.5,-351.98 520.5,-342.71 520.5,-334.11"/>
<polygon fill="black" stroke="black" points="524,-334.1 520.5,-324.1 517,-334.1 524,-334.1"/>
</g>
<!-- ast.Compare object at 0x7f9a941110c0 -->
<g id="node18" class="node">
<title>ast.Compare object at 0x7f9a941110c0</title>
<path fill="#66cdaa" stroke="black" d="M597,-252C597,-252 554,-252 554,-252 548,-252 542,-246 542,-240 542,-240 542,-228 542,-228 542,-222 548,-216 554,-216 554,-216 597,-216 597,-216 603,-216 609,-222 609,-228 609,-228 609,-240 609,-240 609,-246 603,-252 597,-252"/>
<text text-anchor="middle" x="575.5" y="-230.3" font-family="Times,serif" font-size="14.00">Compare</text>
</g>
<!-- ast.BoolOp object at 0x7f9a941130a0&#45;&gt;ast.Compare object at 0x7f9a941110c0 -->
<g id="edge18" class="edge">
<title>ast.BoolOp object at 0x7f9a941130a0&#45;&gt;ast.Compare object at 0x7f9a941110c0</title>
<path fill="none" stroke="black" d="M534.66,-359.85C542.19,-349.93 551,-336.89 556.5,-324 564.91,-304.29 569.74,-280.49 572.43,-262.46"/>
<polygon fill="black" stroke="black" points="575.93,-262.71 573.8,-252.33 568.99,-261.76 575.93,-262.71"/>
</g>
<!-- ast.Compare object at 0x7f9a94113a90 -->
<g id="node24" class="node">
<title>ast.Compare object at 0x7f9a94113a90</title>
<path fill="#66cdaa" stroke="black" d="M463,-324C463,-324 420,-324 420,-324 414,-324 408,-318 408,-312 408,-312 408,-300 408,-300 408,-294 414,-288 420,-288 420,-288 463,-288 463,-288 469,-288 475,-294 475,-300 475,-300 475,-312 475,-312 475,-318 469,-324 463,-324"/>
<text text-anchor="middle" x="441.5" y="-302.3" font-family="Times,serif" font-size="14.00">Compare</text>
</g>
<!-- ast.BoolOp object at 0x7f9a941130a0&#45;&gt;ast.Compare object at 0x7f9a94113a90 -->
<g id="edge26" class="edge">
<title>ast.BoolOp object at 0x7f9a941130a0&#45;&gt;ast.Compare object at 0x7f9a94113a90</title>
<path fill="none" stroke="black" d="M500.97,-359.7C491.12,-350.97 479.01,-340.24 468.3,-330.75"/>
<polygon fill="black" stroke="black" points="470.61,-328.12 460.8,-324.1 465.97,-333.36 470.61,-328.12"/>
</g>
<!-- ast.Subscript object at 0x7f9a94112380 -->
<g id="node19" class="node">
<title>ast.Subscript object at 0x7f9a94112380</title>
<path fill="#66cdaa" stroke="black" d="M637.5,-180C637.5,-180 593.5,-180 593.5,-180 587.5,-180 581.5,-174 581.5,-168 581.5,-168 581.5,-156 581.5,-156 581.5,-150 587.5,-144 593.5,-144 593.5,-144 637.5,-144 637.5,-144 643.5,-144 649.5,-150 649.5,-156 649.5,-156 649.5,-168 649.5,-168 649.5,-174 643.5,-180 637.5,-180"/>
<text text-anchor="middle" x="615.5" y="-158.3" font-family="Times,serif" font-size="14.00">Subscript</text>
</g>
<!-- ast.Compare object at 0x7f9a941110c0&#45;&gt;ast.Subscript object at 0x7f9a94112380 -->
<g id="edge19" class="edge">
<title>ast.Compare object at 0x7f9a941110c0&#45;&gt;ast.Subscript object at 0x7f9a94112380</title>
<path fill="none" stroke="black" d="M585.39,-215.7C589.99,-207.64 595.56,-197.89 600.65,-188.98"/>
<polygon fill="black" stroke="black" points="603.8,-190.52 605.73,-180.1 597.73,-187.05 603.8,-190.52"/>
</g>
<!-- ast.Eq object at 0x7f9a9abee920 -->
<g id="node22" class="node">
<title>ast.Eq object at 0x7f9a9abee920</title>
<path fill="#66cdaa" stroke="black" d="M1275.5,-180C1275.5,-180 1245.5,-180 1245.5,-180 1239.5,-180 1233.5,-174 1233.5,-168 1233.5,-168 1233.5,-156 1233.5,-156 1233.5,-150 1239.5,-144 1245.5,-144 1245.5,-144 1275.5,-144 1275.5,-144 1281.5,-144 1287.5,-150 1287.5,-156 1287.5,-156 1287.5,-168 1287.5,-168 1287.5,-174 1281.5,-180 1275.5,-180"/>
<text text-anchor="middle" x="1260.5" y="-158.3" font-family="Times,serif" font-size="14.00">Eq</text>
</g>
<!-- ast.Compare object at 0x7f9a941110c0&#45;&gt;ast.Eq object at 0x7f9a9abee920 -->
<g id="edge24" class="edge">
<title>ast.Compare object at 0x7f9a941110c0&#45;&gt;ast.Eq object at 0x7f9a9abee920</title>
<path fill="none" stroke="black" d="M609.46,-218.45C612.48,-217.5 615.52,-216.66 618.5,-216 878.71,-158.38 961.09,-244.66 1223.57,-179.6"/>
<polygon fill="black" stroke="black" points="1224.55,-182.96 1233.39,-177.12 1222.83,-176.18 1224.55,-182.96"/>
</g>
<!-- ast.Constant object at 0x7f9a94110130 -->
<g id="node23" class="node">
<title>ast.Constant object at 0x7f9a94110130</title>
<path fill="#66cdaa" stroke="black" d="M551,-180C551,-180 510,-180 510,-180 504,-180 498,-174 498,-168 498,-168 498,-156 498,-156 498,-150 504,-144 510,-144 510,-144 551,-144 551,-144 557,-144 563,-150 563,-156 563,-156 563,-168 563,-168 563,-174 557,-180 551,-180"/>
<text text-anchor="middle" x="530.5" y="-158.3" font-family="Times,serif" font-size="14.00">Constant</text>
</g>
<!-- ast.Compare object at 0x7f9a941110c0&#45;&gt;ast.Constant object at 0x7f9a94110130 -->
<g id="edge25" class="edge">
<title>ast.Compare object at 0x7f9a941110c0&#45;&gt;ast.Constant object at 0x7f9a94110130</title>
<path fill="none" stroke="black" d="M564.38,-215.7C559.14,-207.56 552.8,-197.69 547.02,-188.7"/>
<polygon fill="black" stroke="black" points="549.85,-186.62 541.5,-180.1 543.96,-190.41 549.85,-186.62"/>
</g>
<!-- ast.Subscript object at 0x7f9a94112380&#45;&gt;ast.Load object at 0x7f9a9abedff0 -->
<g id="edge23" class="edge">
<title>ast.Subscript object at 0x7f9a94112380&#45;&gt;ast.Load object at 0x7f9a9abedff0</title>
<path fill="none" stroke="black" d="M610.3,-143.92C605.41,-124.07 601.17,-91.55 618.5,-72 658.17,-27.25 842.94,-20.05 923.16,-19.06"/>
<polygon fill="black" stroke="black" points="923.35,-22.56 933.31,-18.96 923.28,-15.56 923.35,-22.56"/>
</g>
<!-- ast.Name object at 0x7f9a94110a90 -->
<g id="node20" class="node">
<title>ast.Name object at 0x7f9a94110a90</title>
<path fill="#66cdaa" stroke="black" d="M669.5,-108C669.5,-108 639.5,-108 639.5,-108 633.5,-108 627.5,-102 627.5,-96 627.5,-96 627.5,-84 627.5,-84 627.5,-78 633.5,-72 639.5,-72 639.5,-72 669.5,-72 669.5,-72 675.5,-72 681.5,-78 681.5,-84 681.5,-84 681.5,-96 681.5,-96 681.5,-102 675.5,-108 669.5,-108"/>
<text text-anchor="middle" x="654.5" y="-86.3" font-family="Times,serif" font-size="14.00">Name</text>
</g>
<!-- ast.Subscript object at 0x7f9a94112380&#45;&gt;ast.Name object at 0x7f9a94110a90 -->
<g id="edge20" class="edge">
<title>ast.Subscript object at 0x7f9a94112380&#45;&gt;ast.Name object at 0x7f9a94110a90</title>
<path fill="none" stroke="black" d="M625.14,-143.7C629.63,-135.64 635.06,-125.89 640.02,-116.98"/>
<polygon fill="black" stroke="black" points="643.16,-118.54 644.97,-108.1 637.05,-115.14 643.16,-118.54"/>
</g>
<!-- ast.Constant object at 0x7f9a941138e0 -->
<g id="node21" class="node">
<title>ast.Constant object at 0x7f9a941138e0</title>
<path fill="#66cdaa" stroke="black" d="M559,-108C559,-108 518,-108 518,-108 512,-108 506,-102 506,-96 506,-96 506,-84 506,-84 506,-78 512,-72 518,-72 518,-72 559,-72 559,-72 565,-72 571,-78 571,-84 571,-84 571,-96 571,-96 571,-102 565,-108 559,-108"/>
<text text-anchor="middle" x="538.5" y="-86.3" font-family="Times,serif" font-size="14.00">Constant</text>
</g>
<!-- ast.Subscript object at 0x7f9a94112380&#45;&gt;ast.Constant object at 0x7f9a941138e0 -->
<g id="edge22" class="edge">
<title>ast.Subscript object at 0x7f9a94112380&#45;&gt;ast.Constant object at 0x7f9a941138e0</title>
<path fill="none" stroke="black" d="M596.47,-143.7C586.96,-135.05 575.29,-124.45 564.93,-115.03"/>
<polygon fill="black" stroke="black" points="567.07,-112.24 557.31,-108.1 562.36,-117.42 567.07,-112.24"/>
</g>
<!-- ast.Name object at 0x7f9a94110a90&#45;&gt;ast.Load object at 0x7f9a9abedff0 -->
<g id="edge21" class="edge">
<title>ast.Name object at 0x7f9a94110a90&#45;&gt;ast.Load object at 0x7f9a9abedff0</title>
<path fill="none" stroke="black" d="M681.58,-76.9C686.17,-75.1 690.93,-73.39 695.5,-72 775.08,-47.8 871.53,-31.7 923.32,-24.09"/>
<polygon fill="black" stroke="black" points="923.97,-27.53 933.36,-22.63 922.97,-20.6 923.97,-27.53"/>
</g>
<!-- ast.BinOp object at 0x7f9a94113ee0 -->
<g id="node25" class="node">
<title>ast.BinOp object at 0x7f9a94113ee0</title>
<path fill="#66cdaa" stroke="black" d="M493.5,-252C493.5,-252 463.5,-252 463.5,-252 457.5,-252 451.5,-246 451.5,-240 451.5,-240 451.5,-228 451.5,-228 451.5,-222 457.5,-216 463.5,-216 463.5,-216 493.5,-216 493.5,-216 499.5,-216 505.5,-222 505.5,-228 505.5,-228 505.5,-240 505.5,-240 505.5,-246 499.5,-252 493.5,-252"/>
<text text-anchor="middle" x="478.5" y="-230.3" font-family="Times,serif" font-size="14.00">BinOp</text>
</g>
<!-- ast.Compare object at 0x7f9a94113a90&#45;&gt;ast.BinOp object at 0x7f9a94113ee0 -->
<g id="edge27" class="edge">
<title>ast.Compare object at 0x7f9a94113a90&#45;&gt;ast.BinOp object at 0x7f9a94113ee0</title>
<path fill="none" stroke="black" d="M450.65,-287.7C454.9,-279.64 460.06,-269.89 464.77,-260.98"/>
<polygon fill="black" stroke="black" points="467.88,-262.58 469.46,-252.1 461.69,-259.31 467.88,-262.58"/>
</g>
<!-- ast.NotEq object at 0x7f9a9abee980 -->
<g id="node31" class="node">
<title>ast.NotEq object at 0x7f9a9abee980</title>
<path fill="#66cdaa" stroke="black" d="M337.5,-252C337.5,-252 307.5,-252 307.5,-252 301.5,-252 295.5,-246 295.5,-240 295.5,-240 295.5,-228 295.5,-228 295.5,-222 301.5,-216 307.5,-216 307.5,-216 337.5,-216 337.5,-216 343.5,-216 349.5,-222 349.5,-228 349.5,-228 349.5,-240 349.5,-240 349.5,-246 343.5,-252 337.5,-252"/>
<text text-anchor="middle" x="322.5" y="-230.3" font-family="Times,serif" font-size="14.00">NotEq</text>
</g>
<!-- ast.Compare object at 0x7f9a94113a90&#45;&gt;ast.NotEq object at 0x7f9a9abee980 -->
<g id="edge35" class="edge">
<title>ast.Compare object at 0x7f9a94113a90&#45;&gt;ast.NotEq object at 0x7f9a9abee980</title>
<path fill="none" stroke="black" d="M412.39,-287.88C396.1,-278.29 375.66,-266.27 358.38,-256.11"/>
<polygon fill="black" stroke="black" points="360.07,-253.04 349.68,-250.99 356.52,-259.07 360.07,-253.04"/>
</g>
<!-- ast.Constant object at 0x7f9a94113b80 -->
<g id="node32" class="node">
<title>ast.Constant object at 0x7f9a94113b80</title>
<path fill="#66cdaa" stroke="black" d="M421,-252C421,-252 380,-252 380,-252 374,-252 368,-246 368,-240 368,-240 368,-228 368,-228 368,-222 374,-216 380,-216 380,-216 421,-216 421,-216 427,-216 433,-222 433,-228 433,-228 433,-240 433,-240 433,-246 427,-252 421,-252"/>
<text text-anchor="middle" x="400.5" y="-230.3" font-family="Times,serif" font-size="14.00">Constant</text>
</g>
<!-- ast.Compare object at 0x7f9a94113a90&#45;&gt;ast.Constant object at 0x7f9a94113b80 -->
<g id="edge36" class="edge">
<title>ast.Compare object at 0x7f9a94113a90&#45;&gt;ast.Constant object at 0x7f9a94113b80</title>
<path fill="none" stroke="black" d="M431.37,-287.7C426.65,-279.64 420.94,-269.89 415.72,-260.98"/>
<polygon fill="black" stroke="black" points="418.59,-258.96 410.52,-252.1 412.55,-262.5 418.59,-258.96"/>
</g>
<!-- ast.Subscript object at 0x7f9a94110a30 -->
<g id="node26" class="node">
<title>ast.Subscript object at 0x7f9a94110a30</title>
<path fill="#66cdaa" stroke="black" d="M467.5,-180C467.5,-180 423.5,-180 423.5,-180 417.5,-180 411.5,-174 411.5,-168 411.5,-168 411.5,-156 411.5,-156 411.5,-150 417.5,-144 423.5,-144 423.5,-144 467.5,-144 467.5,-144 473.5,-144 479.5,-150 479.5,-156 479.5,-156 479.5,-168 479.5,-168 479.5,-174 473.5,-180 467.5,-180"/>
<text text-anchor="middle" x="445.5" y="-158.3" font-family="Times,serif" font-size="14.00">Subscript</text>
</g>
<!-- ast.BinOp object at 0x7f9a94113ee0&#45;&gt;ast.Subscript object at 0x7f9a94110a30 -->
<g id="edge28" class="edge">
<title>ast.BinOp object at 0x7f9a94113ee0&#45;&gt;ast.Subscript object at 0x7f9a94110a30</title>
<path fill="none" stroke="black" d="M470.34,-215.7C466.59,-207.73 462.05,-198.1 457.88,-189.26"/>
<polygon fill="black" stroke="black" points="460.99,-187.66 453.56,-180.1 454.66,-190.64 460.99,-187.66"/>
</g>
<!-- ast.Mod object at 0x7f9a9abee410 -->
<g id="node29" class="node">
<title>ast.Mod object at 0x7f9a9abee410</title>
<path fill="#66cdaa" stroke="black" d="M1007.5,-180C1007.5,-180 977.5,-180 977.5,-180 971.5,-180 965.5,-174 965.5,-168 965.5,-168 965.5,-156 965.5,-156 965.5,-150 971.5,-144 977.5,-144 977.5,-144 1007.5,-144 1007.5,-144 1013.5,-144 1019.5,-150 1019.5,-156 1019.5,-156 1019.5,-168 1019.5,-168 1019.5,-174 1013.5,-180 1007.5,-180"/>
<text text-anchor="middle" x="992.5" y="-158.3" font-family="Times,serif" font-size="14.00">Mod</text>
</g>
<!-- ast.BinOp object at 0x7f9a94113ee0&#45;&gt;ast.Mod object at 0x7f9a9abee410 -->
<g id="edge33" class="edge">
<title>ast.BinOp object at 0x7f9a94113ee0&#45;&gt;ast.Mod object at 0x7f9a9abee410</title>
<path fill="none" stroke="black" d="M505.62,-223.35C514.41,-220.56 524.28,-217.8 533.5,-216 715.54,-180.55 772.37,-227.41 955.69,-179.62"/>
<polygon fill="black" stroke="black" points="956.61,-183 965.37,-177.04 954.8,-176.23 956.61,-183"/>
</g>
<!-- ast.Constant object at 0x7f9a941135e0 -->
<g id="node30" class="node">
<title>ast.Constant object at 0x7f9a941135e0</title>
<path fill="#66cdaa" stroke="black" d="M381,-180C381,-180 340,-180 340,-180 334,-180 328,-174 328,-168 328,-168 328,-156 328,-156 328,-150 334,-144 340,-144 340,-144 381,-144 381,-144 387,-144 393,-150 393,-156 393,-156 393,-168 393,-168 393,-174 387,-180 381,-180"/>
<text text-anchor="middle" x="360.5" y="-158.3" font-family="Times,serif" font-size="14.00">Constant</text>
</g>
<!-- ast.BinOp object at 0x7f9a94113ee0&#45;&gt;ast.Constant object at 0x7f9a941135e0 -->
<g id="edge34" class="edge">
<title>ast.BinOp object at 0x7f9a94113ee0&#45;&gt;ast.Constant object at 0x7f9a941135e0</title>
<path fill="none" stroke="black" d="M451.43,-216.94C435.67,-207.59 415.56,-195.66 398.26,-185.4"/>
<polygon fill="black" stroke="black" points="399.89,-182.3 389.51,-180.21 396.32,-188.32 399.89,-182.3"/>
</g>
<!-- ast.Subscript object at 0x7f9a94110a30&#45;&gt;ast.Load object at 0x7f9a9abedff0 -->
<g id="edge32" class="edge">
<title>ast.Subscript object at 0x7f9a94110a30&#45;&gt;ast.Load object at 0x7f9a9abedff0</title>
<path fill="none" stroke="black" d="M433.41,-143.69C421.23,-123.92 406.59,-91.77 424.5,-72 457.95,-35.08 807.11,-22.9 923.2,-19.86"/>
<polygon fill="black" stroke="black" points="923.47,-23.35 933.38,-19.6 923.29,-16.35 923.47,-23.35"/>
</g>
<!-- ast.Name object at 0x7f9a94112d40 -->
<g id="node27" class="node">
<title>ast.Name object at 0x7f9a94112d40</title>
<path fill="#66cdaa" stroke="black" d="M475.5,-108C475.5,-108 445.5,-108 445.5,-108 439.5,-108 433.5,-102 433.5,-96 433.5,-96 433.5,-84 433.5,-84 433.5,-78 439.5,-72 445.5,-72 445.5,-72 475.5,-72 475.5,-72 481.5,-72 487.5,-78 487.5,-84 487.5,-84 487.5,-96 487.5,-96 487.5,-102 481.5,-108 475.5,-108"/>
<text text-anchor="middle" x="460.5" y="-86.3" font-family="Times,serif" font-size="14.00">Name</text>
</g>
<!-- ast.Subscript object at 0x7f9a94110a30&#45;&gt;ast.Name object at 0x7f9a94112d40 -->
<g id="edge29" class="edge">
<title>ast.Subscript object at 0x7f9a94110a30&#45;&gt;ast.Name object at 0x7f9a94112d40</title>
<path fill="none" stroke="black" d="M449.21,-143.7C450.86,-135.98 452.85,-126.71 454.69,-118.11"/>
<polygon fill="black" stroke="black" points="458.16,-118.62 456.83,-108.1 451.32,-117.15 458.16,-118.62"/>
</g>
<!-- ast.Constant object at 0x7f9a94112a10 -->
<g id="node28" class="node">
<title>ast.Constant object at 0x7f9a94112a10</title>
<path fill="#66cdaa" stroke="black" d="M365,-108C365,-108 324,-108 324,-108 318,-108 312,-102 312,-96 312,-96 312,-84 312,-84 312,-78 318,-72 324,-72 324,-72 365,-72 365,-72 371,-72 377,-78 377,-84 377,-84 377,-96 377,-96 377,-102 371,-108 365,-108"/>
<text text-anchor="middle" x="344.5" y="-86.3" font-family="Times,serif" font-size="14.00">Constant</text>
</g>
<!-- ast.Subscript object at 0x7f9a94110a30&#45;&gt;ast.Constant object at 0x7f9a94112a10 -->
<g id="edge31" class="edge">
<title>ast.Subscript object at 0x7f9a94110a30&#45;&gt;ast.Constant object at 0x7f9a94112a10</title>
<path fill="none" stroke="black" d="M420.79,-143.88C407.83,-134.89 391.77,-123.76 377.73,-114.03"/>
<polygon fill="black" stroke="black" points="379.52,-111.01 369.3,-108.19 375.53,-116.76 379.52,-111.01"/>
</g>
<!-- ast.Name object at 0x7f9a94112d40&#45;&gt;ast.Load object at 0x7f9a9abedff0 -->
<g id="edge30" class="edge">
<title>ast.Name object at 0x7f9a94112d40&#45;&gt;ast.Load object at 0x7f9a9abedff0</title>
<path fill="none" stroke="black" d="M487.61,-75.38C490.89,-74.08 494.23,-72.91 497.5,-72 651.5,-28.99 843.66,-20.8 923.28,-19.3"/>
<polygon fill="black" stroke="black" points="923.37,-22.8 933.31,-19.14 923.26,-15.8 923.37,-22.8"/>
</g>
<!-- ast.Constant object at 0x7f9a94110820 -->
<g id="node34" class="node">
<title>ast.Constant object at 0x7f9a94110820</title>
<path fill="#66cdaa" stroke="black" d="M378,-324C378,-324 337,-324 337,-324 331,-324 325,-318 325,-312 325,-312 325,-300 325,-300 325,-294 331,-288 337,-288 337,-288 378,-288 378,-288 384,-288 390,-294 390,-300 390,-300 390,-312 390,-312 390,-318 384,-324 378,-324"/>
<text text-anchor="middle" x="357.5" y="-302.3" font-family="Times,serif" font-size="14.00">Constant</text>
</g>
<!-- ast.Return object at 0x7f9a94110e80&#45;&gt;ast.Constant object at 0x7f9a94110820 -->
<g id="edge38" class="edge">
<title>ast.Return object at 0x7f9a94110e80&#45;&gt;ast.Constant object at 0x7f9a94110820</title>
<path fill="none" stroke="black" d="M423.75,-359.7C412.66,-350.88 399.03,-340.03 387.01,-330.47"/>
<polygon fill="black" stroke="black" points="389.01,-327.59 379,-324.1 384.65,-333.07 389.01,-327.59"/>
</g>
<!-- ast.Name object at 0x7f9a94113b20 -->
<g id="node36" class="node">
<title>ast.Name object at 0x7f9a94113b20</title>
<path fill="#66cdaa" stroke="black" d="M629.5,-468C629.5,-468 599.5,-468 599.5,-468 593.5,-468 587.5,-462 587.5,-456 587.5,-456 587.5,-444 587.5,-444 587.5,-438 593.5,-432 599.5,-432 599.5,-432 629.5,-432 629.5,-432 635.5,-432 641.5,-438 641.5,-444 641.5,-444 641.5,-456 641.5,-456 641.5,-462 635.5,-468 629.5,-468"/>
<text text-anchor="middle" x="614.5" y="-446.3" font-family="Times,serif" font-size="14.00">Name</text>
</g>
<!-- ast.Assign object at 0x7f9a94113430&#45;&gt;ast.Name object at 0x7f9a94113b20 -->
<g id="edge40" class="edge">
<title>ast.Assign object at 0x7f9a94113430&#45;&gt;ast.Name object at 0x7f9a94113b20</title>
<path fill="none" stroke="black" d="M555.78,-503.7C565.42,-495.05 577.23,-484.45 587.73,-475.03"/>
<polygon fill="black" stroke="black" points="590.34,-477.39 595.44,-468.1 585.66,-472.18 590.34,-477.39"/>
</g>
<!-- ast.Constant object at 0x7f9a94113cd0 -->
<g id="node38" class="node">
<title>ast.Constant object at 0x7f9a94113cd0</title>
<path fill="#66cdaa" stroke="black" d="M557,-468C557,-468 516,-468 516,-468 510,-468 504,-462 504,-456 504,-456 504,-444 504,-444 504,-438 510,-432 516,-432 516,-432 557,-432 557,-432 563,-432 569,-438 569,-444 569,-444 569,-456 569,-456 569,-462 563,-468 557,-468"/>
<text text-anchor="middle" x="536.5" y="-446.3" font-family="Times,serif" font-size="14.00">Constant</text>
</g>
<!-- ast.Assign object at 0x7f9a94113430&#45;&gt;ast.Constant object at 0x7f9a94113cd0 -->
<g id="edge42" class="edge">
<title>ast.Assign object at 0x7f9a94113430&#45;&gt;ast.Constant object at 0x7f9a94113cd0</title>
<path fill="none" stroke="black" d="M536.5,-503.7C536.5,-495.98 536.5,-486.71 536.5,-478.11"/>
<polygon fill="black" stroke="black" points="540,-478.1 536.5,-468.1 533,-478.1 540,-478.1"/>
</g>
<!-- ast.Store object at 0x7f9a9abee050 -->
<g id="node37" class="node">
<title>ast.Store object at 0x7f9a9abee050</title>
<path fill="#66cdaa" stroke="black" d="M669.5,-252C669.5,-252 639.5,-252 639.5,-252 633.5,-252 627.5,-246 627.5,-240 627.5,-240 627.5,-228 627.5,-228 627.5,-222 633.5,-216 639.5,-216 639.5,-216 669.5,-216 669.5,-216 675.5,-216 681.5,-222 681.5,-228 681.5,-228 681.5,-240 681.5,-240 681.5,-246 675.5,-252 669.5,-252"/>
<text text-anchor="middle" x="654.5" y="-230.3" font-family="Times,serif" font-size="14.00">Store</text>
</g>
<!-- ast.Name object at 0x7f9a94113b20&#45;&gt;ast.Store object at 0x7f9a9abee050 -->
<g id="edge41" class="edge">
<title>ast.Name object at 0x7f9a94113b20&#45;&gt;ast.Store object at 0x7f9a9abee050</title>
<path fill="none" stroke="black" d="M617.71,-431.85C624.64,-394.75 641.08,-306.81 649.43,-262.1"/>
<polygon fill="black" stroke="black" points="652.88,-262.71 651.28,-252.23 646,-261.42 652.88,-262.71"/>
</g>
<!-- ast.Name object at 0x7f9a94112e00 -->
<g id="node40" class="node">
<title>ast.Name object at 0x7f9a94112e00</title>
<path fill="#66cdaa" stroke="black" d="M684.5,-396C684.5,-396 654.5,-396 654.5,-396 648.5,-396 642.5,-390 642.5,-384 642.5,-384 642.5,-372 642.5,-372 642.5,-366 648.5,-360 654.5,-360 654.5,-360 684.5,-360 684.5,-360 690.5,-360 696.5,-366 696.5,-372 696.5,-372 696.5,-384 696.5,-384 696.5,-390 690.5,-396 684.5,-396"/>
<text text-anchor="middle" x="669.5" y="-374.3" font-family="Times,serif" font-size="14.00">Name</text>
</g>
<!-- ast.For object at 0x7f9a94110e20&#45;&gt;ast.Name object at 0x7f9a94112e00 -->
<g id="edge44" class="edge">
<title>ast.For object at 0x7f9a94110e20&#45;&gt;ast.Name object at 0x7f9a94112e00</title>
<path fill="none" stroke="black" d="M729.3,-503.87C717.56,-479.35 695.85,-434.03 682.07,-405.26"/>
<polygon fill="black" stroke="black" points="685.21,-403.7 677.73,-396.19 678.89,-406.72 685.21,-403.7"/>
</g>
<!-- ast.Call object at 0x7f9a941125c0 -->
<g id="node41" class="node">
<title>ast.Call object at 0x7f9a941125c0</title>
<path fill="#66cdaa" stroke="black" d="M792.5,-468C792.5,-468 762.5,-468 762.5,-468 756.5,-468 750.5,-462 750.5,-456 750.5,-456 750.5,-444 750.5,-444 750.5,-438 756.5,-432 762.5,-432 762.5,-432 792.5,-432 792.5,-432 798.5,-432 804.5,-438 804.5,-444 804.5,-444 804.5,-456 804.5,-456 804.5,-462 798.5,-468 792.5,-468"/>
<text text-anchor="middle" x="777.5" y="-446.3" font-family="Times,serif" font-size="14.00">Call</text>
</g>
<!-- ast.For object at 0x7f9a94110e20&#45;&gt;ast.Call object at 0x7f9a941125c0 -->
<g id="edge46" class="edge">
<title>ast.For object at 0x7f9a94110e20&#45;&gt;ast.Call object at 0x7f9a941125c0</title>
<path fill="none" stroke="black" d="M747.39,-503.7C751.99,-495.64 757.56,-485.89 762.65,-476.98"/>
<polygon fill="black" stroke="black" points="765.8,-478.52 767.73,-468.1 759.73,-475.05 765.8,-478.52"/>
</g>
<!-- ast.If object at 0x7f9a83ded1b0 -->
<g id="node55" class="node">
<title>ast.If object at 0x7f9a83ded1b0</title>
<path fill="#66cdaa" stroke="black" d="M1189.5,-468C1189.5,-468 1159.5,-468 1159.5,-468 1153.5,-468 1147.5,-462 1147.5,-456 1147.5,-456 1147.5,-444 1147.5,-444 1147.5,-438 1153.5,-432 1159.5,-432 1159.5,-432 1189.5,-432 1189.5,-432 1195.5,-432 1201.5,-438 1201.5,-444 1201.5,-444 1201.5,-456 1201.5,-456 1201.5,-462 1195.5,-468 1189.5,-468"/>
<text text-anchor="middle" x="1174.5" y="-446.3" font-family="Times,serif" font-size="14.00">If</text>
</g>
<!-- ast.For object at 0x7f9a94110e20&#45;&gt;ast.If object at 0x7f9a83ded1b0 -->
<g id="edge64" class="edge">
<title>ast.For object at 0x7f9a94110e20&#45;&gt;ast.If object at 0x7f9a83ded1b0</title>
<path fill="none" stroke="black" d="M764.51,-516.67C839.62,-504.64 1051.14,-470.76 1137.29,-456.96"/>
<polygon fill="black" stroke="black" points="1138.07,-460.38 1147.39,-455.34 1136.97,-453.47 1138.07,-460.38"/>
</g>
<!-- ast.Name object at 0x7f9a94112e00&#45;&gt;ast.Store object at 0x7f9a9abee050 -->
<g id="edge45" class="edge">
<title>ast.Name object at 0x7f9a94112e00&#45;&gt;ast.Store object at 0x7f9a9abee050</title>
<path fill="none" stroke="black" d="M667.69,-359.87C665.13,-335.67 660.44,-291.21 657.39,-262.39"/>
<polygon fill="black" stroke="black" points="660.85,-261.77 656.32,-252.19 653.89,-262.5 660.85,-261.77"/>
</g>
<!-- ast.Name object at 0x7f9a94110a60 -->
<g id="node42" class="node">
<title>ast.Name object at 0x7f9a94110a60</title>
<path fill="#66cdaa" stroke="black" d="M756.5,-396C756.5,-396 726.5,-396 726.5,-396 720.5,-396 714.5,-390 714.5,-384 714.5,-384 714.5,-372 714.5,-372 714.5,-366 720.5,-360 726.5,-360 726.5,-360 756.5,-360 756.5,-360 762.5,-360 768.5,-366 768.5,-372 768.5,-372 768.5,-384 768.5,-384 768.5,-390 762.5,-396 756.5,-396"/>
<text text-anchor="middle" x="741.5" y="-374.3" font-family="Times,serif" font-size="14.00">Name</text>
</g>
<!-- ast.Call object at 0x7f9a941125c0&#45;&gt;ast.Name object at 0x7f9a94110a60 -->
<g id="edge47" class="edge">
<title>ast.Call object at 0x7f9a941125c0&#45;&gt;ast.Name object at 0x7f9a94110a60</title>
<path fill="none" stroke="black" d="M768.6,-431.7C764.5,-423.73 759.55,-414.1 755.01,-405.26"/>
<polygon fill="black" stroke="black" points="757.98,-403.4 750.3,-396.1 751.76,-406.6 757.98,-403.4"/>
</g>
<!-- ast.Constant object at 0x7f9a94113670 -->
<g id="node43" class="node">
<title>ast.Constant object at 0x7f9a94113670</title>
<path fill="#66cdaa" stroke="black" d="M912,-396C912,-396 871,-396 871,-396 865,-396 859,-390 859,-384 859,-384 859,-372 859,-372 859,-366 865,-360 871,-360 871,-360 912,-360 912,-360 918,-360 924,-366 924,-372 924,-372 924,-384 924,-384 924,-390 918,-396 912,-396"/>
<text text-anchor="middle" x="891.5" y="-374.3" font-family="Times,serif" font-size="14.00">Constant</text>
</g>
<!-- ast.Call object at 0x7f9a941125c0&#45;&gt;ast.Constant object at 0x7f9a94113670 -->
<g id="edge49" class="edge">
<title>ast.Call object at 0x7f9a941125c0&#45;&gt;ast.Constant object at 0x7f9a94113670</title>
<path fill="none" stroke="black" d="M804.52,-432.41C819.52,-423.2 838.39,-411.61 854.72,-401.59"/>
<polygon fill="black" stroke="black" points="856.8,-404.42 863.49,-396.2 853.13,-398.45 856.8,-404.42"/>
</g>
<!-- ast.BinOp object at 0x7f9a941139d0 -->
<g id="node44" class="node">
<title>ast.BinOp object at 0x7f9a941139d0</title>
<path fill="#66cdaa" stroke="black" d="M828.5,-396C828.5,-396 798.5,-396 798.5,-396 792.5,-396 786.5,-390 786.5,-384 786.5,-384 786.5,-372 786.5,-372 786.5,-366 792.5,-360 798.5,-360 798.5,-360 828.5,-360 828.5,-360 834.5,-360 840.5,-366 840.5,-372 840.5,-372 840.5,-384 840.5,-384 840.5,-390 834.5,-396 828.5,-396"/>
<text text-anchor="middle" x="813.5" y="-374.3" font-family="Times,serif" font-size="14.00">BinOp</text>
</g>
<!-- ast.Call object at 0x7f9a941125c0&#45;&gt;ast.BinOp object at 0x7f9a941139d0 -->
<g id="edge50" class="edge">
<title>ast.Call object at 0x7f9a941125c0&#45;&gt;ast.BinOp object at 0x7f9a941139d0</title>
<path fill="none" stroke="black" d="M786.4,-431.7C790.5,-423.73 795.45,-414.1 799.99,-405.26"/>
<polygon fill="black" stroke="black" points="803.24,-406.6 804.7,-396.1 797.02,-403.4 803.24,-406.6"/>
</g>
<!-- ast.Name object at 0x7f9a94110a60&#45;&gt;ast.Load object at 0x7f9a9abedff0 -->
<g id="edge48" class="edge">
<title>ast.Name object at 0x7f9a94110a60&#45;&gt;ast.Load object at 0x7f9a9abedff0</title>
<path fill="none" stroke="black" d="M735.02,-359.79C725.67,-333.36 709.5,-280.99 709.5,-235 709.5,-235 709.5,-235 709.5,-161 709.5,-120.55 700.1,-100.8 728.5,-72 755.33,-44.79 864.52,-29.23 923.04,-22.69"/>
<polygon fill="black" stroke="black" points="923.78,-26.13 933.35,-21.57 923.03,-19.17 923.78,-26.13"/>
</g>
<!-- ast.Call object at 0x7f9a94113520 -->
<g id="node45" class="node">
<title>ast.Call object at 0x7f9a94113520</title>
<path fill="#66cdaa" stroke="black" d="M935.5,-324C935.5,-324 905.5,-324 905.5,-324 899.5,-324 893.5,-318 893.5,-312 893.5,-312 893.5,-300 893.5,-300 893.5,-294 899.5,-288 905.5,-288 905.5,-288 935.5,-288 935.5,-288 941.5,-288 947.5,-294 947.5,-300 947.5,-300 947.5,-312 947.5,-312 947.5,-318 941.5,-324 935.5,-324"/>
<text text-anchor="middle" x="920.5" y="-302.3" font-family="Times,serif" font-size="14.00">Call</text>
</g>
<!-- ast.BinOp object at 0x7f9a941139d0&#45;&gt;ast.Call object at 0x7f9a94113520 -->
<g id="edge51" class="edge">
<title>ast.BinOp object at 0x7f9a941139d0&#45;&gt;ast.Call object at 0x7f9a94113520</title>
<path fill="none" stroke="black" d="M839.68,-359.88C853.54,-350.81 870.74,-339.55 885.71,-329.76"/>
<polygon fill="black" stroke="black" points="887.77,-332.59 894.22,-324.19 883.94,-326.74 887.77,-332.59"/>
</g>
<!-- ast.Add object at 0x7f9a9abee230 -->
<g id="node53" class="node">
<title>ast.Add object at 0x7f9a9abee230</title>
<path fill="#66cdaa" stroke="black" d="M1328.5,-252C1328.5,-252 1298.5,-252 1298.5,-252 1292.5,-252 1286.5,-246 1286.5,-240 1286.5,-240 1286.5,-228 1286.5,-228 1286.5,-222 1292.5,-216 1298.5,-216 1298.5,-216 1328.5,-216 1328.5,-216 1334.5,-216 1340.5,-222 1340.5,-228 1340.5,-228 1340.5,-240 1340.5,-240 1340.5,-246 1334.5,-252 1328.5,-252"/>
<text text-anchor="middle" x="1313.5" y="-230.3" font-family="Times,serif" font-size="14.00">Add</text>
</g>
<!-- ast.BinOp object at 0x7f9a941139d0&#45;&gt;ast.Add object at 0x7f9a9abee230 -->
<g id="edge62" class="edge">
<title>ast.BinOp object at 0x7f9a941139d0&#45;&gt;ast.Add object at 0x7f9a9abee230</title>
<path fill="none" stroke="black" d="M840.6,-363.32C843.88,-362.04 847.22,-360.89 850.5,-360 1008.71,-317.2 1068.03,-391.23 1217.5,-324 1248.97,-309.84 1276.88,-281.17 1294.39,-260.18"/>
<polygon fill="black" stroke="black" points="1297.21,-262.25 1300.79,-252.28 1291.77,-257.84 1297.21,-262.25"/>
</g>
<!-- ast.Constant object at 0x7f9a83dedfc0 -->
<g id="node54" class="node">
<title>ast.Constant object at 0x7f9a83dedfc0</title>
<path fill="#66cdaa" stroke="black" d="M791,-324C791,-324 750,-324 750,-324 744,-324 738,-318 738,-312 738,-312 738,-300 738,-300 738,-294 744,-288 750,-288 750,-288 791,-288 791,-288 797,-288 803,-294 803,-300 803,-300 803,-312 803,-312 803,-318 797,-324 791,-324"/>
<text text-anchor="middle" x="770.5" y="-302.3" font-family="Times,serif" font-size="14.00">Constant</text>
</g>
<!-- ast.BinOp object at 0x7f9a941139d0&#45;&gt;ast.Constant object at 0x7f9a83dedfc0 -->
<g id="edge63" class="edge">
<title>ast.BinOp object at 0x7f9a941139d0&#45;&gt;ast.Constant object at 0x7f9a83dedfc0</title>
<path fill="none" stroke="black" d="M802.87,-359.7C797.87,-351.56 791.81,-341.69 786.29,-332.7"/>
<polygon fill="black" stroke="black" points="789.22,-330.79 781.01,-324.1 783.26,-334.46 789.22,-330.79"/>
</g>
<!-- ast.Name object at 0x7f9a94110fd0 -->
<g id="node46" class="node">
<title>ast.Name object at 0x7f9a94110fd0</title>
<path fill="#66cdaa" stroke="black" d="M779.5,-108C779.5,-108 749.5,-108 749.5,-108 743.5,-108 737.5,-102 737.5,-96 737.5,-96 737.5,-84 737.5,-84 737.5,-78 743.5,-72 749.5,-72 749.5,-72 779.5,-72 779.5,-72 785.5,-72 791.5,-78 791.5,-84 791.5,-84 791.5,-96 791.5,-96 791.5,-102 785.5,-108 779.5,-108"/>
<text text-anchor="middle" x="764.5" y="-86.3" font-family="Times,serif" font-size="14.00">Name</text>
</g>
<!-- ast.Call object at 0x7f9a94113520&#45;&gt;ast.Name object at 0x7f9a94110fd0 -->
<g id="edge52" class="edge">
<title>ast.Call object at 0x7f9a94113520&#45;&gt;ast.Name object at 0x7f9a94110fd0</title>
<path fill="none" stroke="black" d="M894.57,-287.95C864,-266.45 813.9,-226.63 786.5,-180 775.38,-161.07 769.85,-136.7 767.13,-118.25"/>
<polygon fill="black" stroke="black" points="770.57,-117.63 765.82,-108.16 763.63,-118.53 770.57,-117.63"/>
</g>
<!-- ast.BinOp object at 0x7f9a94110760 -->
<g id="node47" class="node">
<title>ast.BinOp object at 0x7f9a94110760</title>
<path fill="#66cdaa" stroke="black" d="M933.5,-252C933.5,-252 903.5,-252 903.5,-252 897.5,-252 891.5,-246 891.5,-240 891.5,-240 891.5,-228 891.5,-228 891.5,-222 897.5,-216 903.5,-216 903.5,-216 933.5,-216 933.5,-216 939.5,-216 945.5,-222 945.5,-228 945.5,-228 945.5,-240 945.5,-240 945.5,-246 939.5,-252 933.5,-252"/>
<text text-anchor="middle" x="918.5" y="-230.3" font-family="Times,serif" font-size="14.00">BinOp</text>
</g>
<!-- ast.Call object at 0x7f9a94113520&#45;&gt;ast.BinOp object at 0x7f9a94110760 -->
<g id="edge54" class="edge">
<title>ast.Call object at 0x7f9a94113520&#45;&gt;ast.BinOp object at 0x7f9a94110760</title>
<path fill="none" stroke="black" d="M920.01,-287.7C919.79,-279.98 919.52,-270.71 919.27,-262.11"/>
<polygon fill="black" stroke="black" points="922.77,-262 918.99,-252.1 915.78,-262.2 922.77,-262"/>
</g>
<!-- ast.Name object at 0x7f9a94110fd0&#45;&gt;ast.Load object at 0x7f9a9abedff0 -->
<g id="edge53" class="edge">
<title>ast.Name object at 0x7f9a94110fd0&#45;&gt;ast.Load object at 0x7f9a9abedff0</title>
<path fill="none" stroke="black" d="M791.87,-75.66C794.76,-74.37 797.68,-73.13 800.5,-72 841.99,-55.4 890.91,-39.75 923.64,-29.82"/>
<polygon fill="black" stroke="black" points="924.68,-33.16 933.25,-26.92 922.66,-26.46 924.68,-33.16"/>
</g>
<!-- ast.Subscript object at 0x7f9a94113010 -->
<g id="node48" class="node">
<title>ast.Subscript object at 0x7f9a94113010</title>
<path fill="#66cdaa" stroke="black" d="M851.5,-180C851.5,-180 807.5,-180 807.5,-180 801.5,-180 795.5,-174 795.5,-168 795.5,-168 795.5,-156 795.5,-156 795.5,-150 801.5,-144 807.5,-144 807.5,-144 851.5,-144 851.5,-144 857.5,-144 863.5,-150 863.5,-156 863.5,-156 863.5,-168 863.5,-168 863.5,-174 857.5,-180 851.5,-180"/>
<text text-anchor="middle" x="829.5" y="-158.3" font-family="Times,serif" font-size="14.00">Subscript</text>
</g>
<!-- ast.BinOp object at 0x7f9a94110760&#45;&gt;ast.Subscript object at 0x7f9a94113010 -->
<g id="edge55" class="edge">
<title>ast.BinOp object at 0x7f9a94110760&#45;&gt;ast.Subscript object at 0x7f9a94113010</title>
<path fill="none" stroke="black" d="M896.5,-215.7C885.29,-206.88 871.5,-196.03 859.35,-186.47"/>
<polygon fill="black" stroke="black" points="861.27,-183.54 851.25,-180.1 856.94,-189.04 861.27,-183.54"/>
</g>
<!-- ast.Pow object at 0x7f9a9abee470 -->
<g id="node51" class="node">
<title>ast.Pow object at 0x7f9a9abee470</title>
<path fill="#66cdaa" stroke="black" d="M1079.5,-180C1079.5,-180 1049.5,-180 1049.5,-180 1043.5,-180 1037.5,-174 1037.5,-168 1037.5,-168 1037.5,-156 1037.5,-156 1037.5,-150 1043.5,-144 1049.5,-144 1049.5,-144 1079.5,-144 1079.5,-144 1085.5,-144 1091.5,-150 1091.5,-156 1091.5,-156 1091.5,-168 1091.5,-168 1091.5,-174 1085.5,-180 1079.5,-180"/>
<text text-anchor="middle" x="1064.5" y="-158.3" font-family="Times,serif" font-size="14.00">Pow</text>
</g>
<!-- ast.BinOp object at 0x7f9a94110760&#45;&gt;ast.Pow object at 0x7f9a9abee470 -->
<g id="edge60" class="edge">
<title>ast.BinOp object at 0x7f9a94110760&#45;&gt;ast.Pow object at 0x7f9a9abee470</title>
<path fill="none" stroke="black" d="M945.62,-220C968.83,-208.87 1002.44,-192.75 1028.01,-180.5"/>
<polygon fill="black" stroke="black" points="1029.53,-183.65 1037.03,-176.17 1026.5,-177.34 1029.53,-183.65"/>
</g>
<!-- ast.Constant object at 0x7f9a83defcd0 -->
<g id="node52" class="node">
<title>ast.Constant object at 0x7f9a83defcd0</title>
<path fill="#66cdaa" stroke="black" d="M935,-180C935,-180 894,-180 894,-180 888,-180 882,-174 882,-168 882,-168 882,-156 882,-156 882,-150 888,-144 894,-144 894,-144 935,-144 935,-144 941,-144 947,-150 947,-156 947,-156 947,-168 947,-168 947,-174 941,-180 935,-180"/>
<text text-anchor="middle" x="914.5" y="-158.3" font-family="Times,serif" font-size="14.00">Constant</text>
</g>
<!-- ast.BinOp object at 0x7f9a94110760&#45;&gt;ast.Constant object at 0x7f9a83defcd0 -->
<g id="edge61" class="edge">
<title>ast.BinOp object at 0x7f9a94110760&#45;&gt;ast.Constant object at 0x7f9a83defcd0</title>
<path fill="none" stroke="black" d="M917.51,-215.7C917.07,-207.98 916.54,-198.71 916.05,-190.11"/>
<polygon fill="black" stroke="black" points="919.54,-189.89 915.48,-180.1 912.55,-190.29 919.54,-189.89"/>
</g>
<!-- ast.Subscript object at 0x7f9a94113010&#45;&gt;ast.Load object at 0x7f9a9abedff0 -->
<g id="edge59" class="edge">
<title>ast.Subscript object at 0x7f9a94113010&#45;&gt;ast.Load object at 0x7f9a9abedff0</title>
<path fill="none" stroke="black" d="M845.21,-143.93C861.71,-126.01 888.42,-97.01 911.5,-72 920.05,-62.74 929.44,-52.58 937.69,-43.65"/>
<polygon fill="black" stroke="black" points="940.38,-45.9 944.6,-36.18 935.24,-41.14 940.38,-45.9"/>
</g>
<!-- ast.Name object at 0x7f9a9451b1c0 -->
<g id="node49" class="node">
<title>ast.Name object at 0x7f9a9451b1c0</title>
<path fill="#66cdaa" stroke="black" d="M851.5,-108C851.5,-108 821.5,-108 821.5,-108 815.5,-108 809.5,-102 809.5,-96 809.5,-96 809.5,-84 809.5,-84 809.5,-78 815.5,-72 821.5,-72 821.5,-72 851.5,-72 851.5,-72 857.5,-72 863.5,-78 863.5,-84 863.5,-84 863.5,-96 863.5,-96 863.5,-102 857.5,-108 851.5,-108"/>
<text text-anchor="middle" x="836.5" y="-86.3" font-family="Times,serif" font-size="14.00">Name</text>
</g>
<!-- ast.Subscript object at 0x7f9a94113010&#45;&gt;ast.Name object at 0x7f9a9451b1c0 -->
<g id="edge56" class="edge">
<title>ast.Subscript object at 0x7f9a94113010&#45;&gt;ast.Name object at 0x7f9a9451b1c0</title>
<path fill="none" stroke="black" d="M831.23,-143.7C832,-135.98 832.93,-126.71 833.79,-118.11"/>
<polygon fill="black" stroke="black" points="837.28,-118.4 834.79,-108.1 830.31,-117.71 837.28,-118.4"/>
</g>
<!-- ast.Constant object at 0x7f9a83def370 -->
<g id="node50" class="node">
<title>ast.Constant object at 0x7f9a83def370</title>
<path fill="#66cdaa" stroke="black" d="M973,-108C973,-108 932,-108 932,-108 926,-108 920,-102 920,-96 920,-96 920,-84 920,-84 920,-78 926,-72 932,-72 932,-72 973,-72 973,-72 979,-72 985,-78 985,-84 985,-84 985,-96 985,-96 985,-102 979,-108 973,-108"/>
<text text-anchor="middle" x="952.5" y="-86.3" font-family="Times,serif" font-size="14.00">Constant</text>
</g>
<!-- ast.Subscript object at 0x7f9a94113010&#45;&gt;ast.Constant object at 0x7f9a83def370 -->
<g id="edge58" class="edge">
<title>ast.Subscript object at 0x7f9a94113010&#45;&gt;ast.Constant object at 0x7f9a83def370</title>
<path fill="none" stroke="black" d="M859.59,-143.88C875.82,-134.64 896.04,-123.13 913.47,-113.21"/>
<polygon fill="black" stroke="black" points="915.34,-116.18 922.3,-108.19 911.87,-110.09 915.34,-116.18"/>
</g>
<!-- ast.Name object at 0x7f9a9451b1c0&#45;&gt;ast.Load object at 0x7f9a9abedff0 -->
<g id="edge57" class="edge">
<title>ast.Name object at 0x7f9a9451b1c0&#45;&gt;ast.Load object at 0x7f9a9abedff0</title>
<path fill="none" stroke="black" d="M863.71,-73.64C881.56,-63.56 905.1,-50.28 924.49,-39.33"/>
<polygon fill="black" stroke="black" points="926.36,-42.29 933.35,-34.33 922.92,-36.19 926.36,-42.29"/>
</g>
<!-- ast.Compare object at 0x7f9a83deee90 -->
<g id="node56" class="node">
<title>ast.Compare object at 0x7f9a83deee90</title>
<path fill="#66cdaa" stroke="black" d="M1196,-324C1196,-324 1153,-324 1153,-324 1147,-324 1141,-318 1141,-312 1141,-312 1141,-300 1141,-300 1141,-294 1147,-288 1153,-288 1153,-288 1196,-288 1196,-288 1202,-288 1208,-294 1208,-300 1208,-300 1208,-312 1208,-312 1208,-318 1202,-324 1196,-324"/>
<text text-anchor="middle" x="1174.5" y="-302.3" font-family="Times,serif" font-size="14.00">Compare</text>
</g>
<!-- ast.If object at 0x7f9a83ded1b0&#45;&gt;ast.Compare object at 0x7f9a83deee90 -->
<g id="edge65" class="edge">
<title>ast.If object at 0x7f9a83ded1b0&#45;&gt;ast.Compare object at 0x7f9a83deee90</title>
<path fill="none" stroke="black" d="M1174.5,-431.87C1174.5,-407.67 1174.5,-363.21 1174.5,-334.39"/>
<polygon fill="black" stroke="black" points="1178,-334.19 1174.5,-324.19 1171,-334.19 1178,-334.19"/>
</g>
<!-- ast.AugAssign object at 0x7f9a83def310 -->
<g id="node63" class="node">
<title>ast.AugAssign object at 0x7f9a83def310</title>
<path fill="#66cdaa" stroke="black" d="M1304,-396C1304,-396 1251,-396 1251,-396 1245,-396 1239,-390 1239,-384 1239,-384 1239,-372 1239,-372 1239,-366 1245,-360 1251,-360 1251,-360 1304,-360 1304,-360 1310,-360 1316,-366 1316,-372 1316,-372 1316,-384 1316,-384 1316,-390 1310,-396 1304,-396"/>
<text text-anchor="middle" x="1277.5" y="-374.3" font-family="Times,serif" font-size="14.00">AugAssign</text>
</g>
<!-- ast.If object at 0x7f9a83ded1b0&#45;&gt;ast.AugAssign object at 0x7f9a83def310 -->
<g id="edge77" class="edge">
<title>ast.If object at 0x7f9a83ded1b0&#45;&gt;ast.AugAssign object at 0x7f9a83def310</title>
<path fill="none" stroke="black" d="M1199.7,-431.88C1212.91,-422.89 1229.29,-411.76 1243.61,-402.03"/>
<polygon fill="black" stroke="black" points="1245.9,-404.71 1252.21,-396.19 1241.97,-398.92 1245.9,-404.71"/>
</g>
<!-- ast.Compare object at 0x7f9a83deee90&#45;&gt;ast.Eq object at 0x7f9a9abee920 -->
<g id="edge75" class="edge">
<title>ast.Compare object at 0x7f9a83deee90&#45;&gt;ast.Eq object at 0x7f9a9abee920</title>
<path fill="none" stroke="black" d="M1175.04,-287.66C1176.36,-268.74 1180.67,-238.17 1194.5,-216 1202.2,-203.66 1213.81,-192.94 1225.16,-184.43"/>
<polygon fill="black" stroke="black" points="1227.19,-187.28 1233.31,-178.63 1223.13,-181.57 1227.19,-187.28"/>
</g>
<!-- ast.BinOp object at 0x7f9a83dec130 -->
<g id="node57" class="node">
<title>ast.BinOp object at 0x7f9a83dec130</title>
<path fill="#66cdaa" stroke="black" d="M1134.5,-252C1134.5,-252 1104.5,-252 1104.5,-252 1098.5,-252 1092.5,-246 1092.5,-240 1092.5,-240 1092.5,-228 1092.5,-228 1092.5,-222 1098.5,-216 1104.5,-216 1104.5,-216 1134.5,-216 1134.5,-216 1140.5,-216 1146.5,-222 1146.5,-228 1146.5,-228 1146.5,-240 1146.5,-240 1146.5,-246 1140.5,-252 1134.5,-252"/>
<text text-anchor="middle" x="1119.5" y="-230.3" font-family="Times,serif" font-size="14.00">BinOp</text>
</g>
<!-- ast.Compare object at 0x7f9a83deee90&#45;&gt;ast.BinOp object at 0x7f9a83dec130 -->
<g id="edge66" class="edge">
<title>ast.Compare object at 0x7f9a83deee90&#45;&gt;ast.BinOp object at 0x7f9a83dec130</title>
<path fill="none" stroke="black" d="M1160.9,-287.7C1154.38,-279.39 1146.43,-269.28 1139.25,-260.14"/>
<polygon fill="black" stroke="black" points="1141.87,-257.81 1132.94,-252.1 1136.37,-262.13 1141.87,-257.81"/>
</g>
<!-- ast.Constant object at 0x7f9a83ded6c0 -->
<g id="node62" class="node">
<title>ast.Constant object at 0x7f9a83ded6c0</title>
<path fill="#66cdaa" stroke="black" d="M1256,-252C1256,-252 1215,-252 1215,-252 1209,-252 1203,-246 1203,-240 1203,-240 1203,-228 1203,-228 1203,-222 1209,-216 1215,-216 1215,-216 1256,-216 1256,-216 1262,-216 1268,-222 1268,-228 1268,-228 1268,-240 1268,-240 1268,-246 1262,-252 1256,-252"/>
<text text-anchor="middle" x="1235.5" y="-230.3" font-family="Times,serif" font-size="14.00">Constant</text>
</g>
<!-- ast.Compare object at 0x7f9a83deee90&#45;&gt;ast.Constant object at 0x7f9a83ded6c0 -->
<g id="edge76" class="edge">
<title>ast.Compare object at 0x7f9a83deee90&#45;&gt;ast.Constant object at 0x7f9a83ded6c0</title>
<path fill="none" stroke="black" d="M1189.58,-287.7C1196.89,-279.3 1205.81,-269.07 1213.84,-259.86"/>
<polygon fill="black" stroke="black" points="1216.66,-261.94 1220.59,-252.1 1211.39,-257.34 1216.66,-261.94"/>
</g>
<!-- ast.BinOp object at 0x7f9a83dec130&#45;&gt;ast.Mod object at 0x7f9a9abee410 -->
<g id="edge72" class="edge">
<title>ast.BinOp object at 0x7f9a83dec130&#45;&gt;ast.Mod object at 0x7f9a9abee410</title>
<path fill="none" stroke="black" d="M1092.26,-217.98C1073.67,-207.74 1048.86,-194.07 1028.63,-182.92"/>
<polygon fill="black" stroke="black" points="1030.15,-179.75 1019.7,-177.99 1026.77,-185.88 1030.15,-179.75"/>
</g>
<!-- ast.Subscript object at 0x7f9a83deee30 -->
<g id="node58" class="node">
<title>ast.Subscript object at 0x7f9a83deee30</title>
<path fill="#66cdaa" stroke="black" d="M1203.5,-180C1203.5,-180 1159.5,-180 1159.5,-180 1153.5,-180 1147.5,-174 1147.5,-168 1147.5,-168 1147.5,-156 1147.5,-156 1147.5,-150 1153.5,-144 1159.5,-144 1159.5,-144 1203.5,-144 1203.5,-144 1209.5,-144 1215.5,-150 1215.5,-156 1215.5,-156 1215.5,-168 1215.5,-168 1215.5,-174 1209.5,-180 1203.5,-180"/>
<text text-anchor="middle" x="1181.5" y="-158.3" font-family="Times,serif" font-size="14.00">Subscript</text>
</g>
<!-- ast.BinOp object at 0x7f9a83dec130&#45;&gt;ast.Subscript object at 0x7f9a83deee30 -->
<g id="edge67" class="edge">
<title>ast.BinOp object at 0x7f9a83dec130&#45;&gt;ast.Subscript object at 0x7f9a83deee30</title>
<path fill="none" stroke="black" d="M1134.83,-215.7C1142.26,-207.3 1151.32,-197.07 1159.48,-187.86"/>
<polygon fill="black" stroke="black" points="1162.34,-189.91 1166.35,-180.1 1157.1,-185.27 1162.34,-189.91"/>
</g>
<!-- ast.Name object at 0x7f9a83def070 -->
<g id="node61" class="node">
<title>ast.Name object at 0x7f9a83def070</title>
<path fill="#66cdaa" stroke="black" d="M1045.5,-108C1045.5,-108 1015.5,-108 1015.5,-108 1009.5,-108 1003.5,-102 1003.5,-96 1003.5,-96 1003.5,-84 1003.5,-84 1003.5,-78 1009.5,-72 1015.5,-72 1015.5,-72 1045.5,-72 1045.5,-72 1051.5,-72 1057.5,-78 1057.5,-84 1057.5,-84 1057.5,-96 1057.5,-96 1057.5,-102 1051.5,-108 1045.5,-108"/>
<text text-anchor="middle" x="1030.5" y="-86.3" font-family="Times,serif" font-size="14.00">Name</text>
</g>
<!-- ast.BinOp object at 0x7f9a83dec130&#45;&gt;ast.Name object at 0x7f9a83def070 -->
<g id="edge73" class="edge">
<title>ast.BinOp object at 0x7f9a83dec130&#45;&gt;ast.Name object at 0x7f9a83def070</title>
<path fill="none" stroke="black" d="M1119.33,-215.94C1118.39,-196.98 1114.58,-166.13 1100.5,-144 1091.99,-130.62 1078.84,-119.37 1066.23,-110.72"/>
<polygon fill="black" stroke="black" points="1067.94,-107.66 1057.65,-105.15 1064.13,-113.53 1067.94,-107.66"/>
</g>
<!-- ast.Subscript object at 0x7f9a83deee30&#45;&gt;ast.Load object at 0x7f9a9abedff0 -->
<g id="edge71" class="edge">
<title>ast.Subscript object at 0x7f9a83deee30&#45;&gt;ast.Load object at 0x7f9a9abedff0</title>
<path fill="none" stroke="black" d="M1154.39,-143.83C1139.29,-133.91 1120.39,-120.87 1104.5,-108 1086.42,-93.36 1085.56,-85.35 1066.5,-72 1044.87,-56.85 1018.29,-43.57 997.15,-34.09"/>
<polygon fill="black" stroke="black" points="998.43,-30.83 987.86,-30.01 995.61,-37.24 998.43,-30.83"/>
</g>
<!-- ast.Name object at 0x7f9a83deeb30 -->
<g id="node59" class="node">
<title>ast.Name object at 0x7f9a83deeb30</title>
<path fill="#66cdaa" stroke="black" d="M1155.5,-108C1155.5,-108 1125.5,-108 1125.5,-108 1119.5,-108 1113.5,-102 1113.5,-96 1113.5,-96 1113.5,-84 1113.5,-84 1113.5,-78 1119.5,-72 1125.5,-72 1125.5,-72 1155.5,-72 1155.5,-72 1161.5,-72 1167.5,-78 1167.5,-84 1167.5,-84 1167.5,-96 1167.5,-96 1167.5,-102 1161.5,-108 1155.5,-108"/>
<text text-anchor="middle" x="1140.5" y="-86.3" font-family="Times,serif" font-size="14.00">Name</text>
</g>
<!-- ast.Subscript object at 0x7f9a83deee30&#45;&gt;ast.Name object at 0x7f9a83deeb30 -->
<g id="edge68" class="edge">
<title>ast.Subscript object at 0x7f9a83deee30&#45;&gt;ast.Name object at 0x7f9a83deeb30</title>
<path fill="none" stroke="black" d="M1171.37,-143.7C1166.65,-135.64 1160.94,-125.89 1155.72,-116.98"/>
<polygon fill="black" stroke="black" points="1158.59,-114.96 1150.52,-108.1 1152.55,-118.5 1158.59,-114.96"/>
</g>
<!-- ast.Constant object at 0x7f9a83deed70 -->
<g id="node60" class="node">
<title>ast.Constant object at 0x7f9a83deed70</title>
<path fill="#66cdaa" stroke="black" d="M1239,-108C1239,-108 1198,-108 1198,-108 1192,-108 1186,-102 1186,-96 1186,-96 1186,-84 1186,-84 1186,-78 1192,-72 1198,-72 1198,-72 1239,-72 1239,-72 1245,-72 1251,-78 1251,-84 1251,-84 1251,-96 1251,-96 1251,-102 1245,-108 1239,-108"/>
<text text-anchor="middle" x="1218.5" y="-86.3" font-family="Times,serif" font-size="14.00">Constant</text>
</g>
<!-- ast.Subscript object at 0x7f9a83deee30&#45;&gt;ast.Constant object at 0x7f9a83deed70 -->
<g id="edge70" class="edge">
<title>ast.Subscript object at 0x7f9a83deee30&#45;&gt;ast.Constant object at 0x7f9a83deed70</title>
<path fill="none" stroke="black" d="M1190.65,-143.7C1194.9,-135.64 1200.06,-125.89 1204.77,-116.98"/>
<polygon fill="black" stroke="black" points="1207.88,-118.58 1209.46,-108.1 1201.69,-115.31 1207.88,-118.58"/>
</g>
<!-- ast.Name object at 0x7f9a83deeb30&#45;&gt;ast.Load object at 0x7f9a9abedff0 -->
<g id="edge69" class="edge">
<title>ast.Name object at 0x7f9a83deeb30&#45;&gt;ast.Load object at 0x7f9a9abedff0</title>
<path fill="none" stroke="black" d="M1113.2,-77.55C1108.63,-75.67 1103.94,-73.77 1099.5,-72 1064.94,-58.25 1025.27,-43.2 997.18,-32.66"/>
<polygon fill="black" stroke="black" points="998.35,-29.36 987.76,-29.13 995.89,-35.91 998.35,-29.36"/>
</g>
<!-- ast.Name object at 0x7f9a83def070&#45;&gt;ast.Load object at 0x7f9a9abedff0 -->
<g id="edge74" class="edge">
<title>ast.Name object at 0x7f9a83def070&#45;&gt;ast.Load object at 0x7f9a9abedff0</title>
<path fill="none" stroke="black" d="M1013.2,-71.7C1004.64,-63.14 994.16,-52.66 984.8,-43.3"/>
<polygon fill="black" stroke="black" points="987.15,-40.7 977.6,-36.1 982.2,-45.65 987.15,-40.7"/>
</g>
<!-- ast.AugAssign object at 0x7f9a83def310&#45;&gt;ast.Add object at 0x7f9a9abee230 -->
<g id="edge80" class="edge">
<title>ast.AugAssign object at 0x7f9a83def310&#45;&gt;ast.Add object at 0x7f9a9abee230</title>
<path fill="none" stroke="black" d="M1281.84,-359.87C1288,-335.56 1299.35,-290.82 1306.65,-262.01"/>
<polygon fill="black" stroke="black" points="1310.08,-262.74 1309.14,-252.19 1303.29,-261.02 1310.08,-262.74"/>
</g>
<!-- ast.Name object at 0x7f9a83dec220 -->
<g id="node64" class="node">
<title>ast.Name object at 0x7f9a83dec220</title>
<path fill="#66cdaa" stroke="black" d="M863.5,-324C863.5,-324 833.5,-324 833.5,-324 827.5,-324 821.5,-318 821.5,-312 821.5,-312 821.5,-300 821.5,-300 821.5,-294 827.5,-288 833.5,-288 833.5,-288 863.5,-288 863.5,-288 869.5,-288 875.5,-294 875.5,-300 875.5,-300 875.5,-312 875.5,-312 875.5,-318 869.5,-324 863.5,-324"/>
<text text-anchor="middle" x="848.5" y="-302.3" font-family="Times,serif" font-size="14.00">Name</text>
</g>
<!-- ast.AugAssign object at 0x7f9a83def310&#45;&gt;ast.Name object at 0x7f9a83dec220 -->
<g id="edge78" class="edge">
<title>ast.AugAssign object at 0x7f9a83def310&#45;&gt;ast.Name object at 0x7f9a83dec220</title>
<path fill="none" stroke="black" d="M1238.75,-375.7C1169.04,-372.52 1018.2,-361.84 885.59,-323.8"/>
<polygon fill="black" stroke="black" points="886.26,-320.35 875.68,-320.89 884.29,-327.06 886.26,-320.35"/>
</g>
<!-- ast.BinOp object at 0x7f9a83ded060 -->
<g id="node65" class="node">
<title>ast.BinOp object at 0x7f9a83ded060</title>
<path fill="#66cdaa" stroke="black" d="M1403.5,-324C1403.5,-324 1373.5,-324 1373.5,-324 1367.5,-324 1361.5,-318 1361.5,-312 1361.5,-312 1361.5,-300 1361.5,-300 1361.5,-294 1367.5,-288 1373.5,-288 1373.5,-288 1403.5,-288 1403.5,-288 1409.5,-288 1415.5,-294 1415.5,-300 1415.5,-300 1415.5,-312 1415.5,-312 1415.5,-318 1409.5,-324 1403.5,-324"/>
<text text-anchor="middle" x="1388.5" y="-302.3" font-family="Times,serif" font-size="14.00">BinOp</text>
</g>
<!-- ast.AugAssign object at 0x7f9a83def310&#45;&gt;ast.BinOp object at 0x7f9a83ded060 -->
<g id="edge81" class="edge">
<title>ast.AugAssign object at 0x7f9a83def310&#45;&gt;ast.BinOp object at 0x7f9a83ded060</title>
<path fill="none" stroke="black" d="M1304.65,-359.88C1319.03,-350.81 1336.88,-339.55 1352.41,-329.76"/>
<polygon fill="black" stroke="black" points="1354.65,-332.48 1361.24,-324.19 1350.92,-326.56 1354.65,-332.48"/>
</g>
<!-- ast.Name object at 0x7f9a83dec220&#45;&gt;ast.Store object at 0x7f9a9abee050 -->
<g id="edge79" class="edge">
<title>ast.Name object at 0x7f9a83dec220&#45;&gt;ast.Store object at 0x7f9a9abee050</title>
<path fill="none" stroke="black" d="M821.13,-291.67C818.24,-290.38 815.32,-289.13 812.5,-288 771.81,-271.63 723.9,-256.07 691.6,-246.09"/>
<polygon fill="black" stroke="black" points="692.27,-242.64 681.69,-243.05 690.22,-249.33 692.27,-242.64"/>
</g>
<!-- ast.BinOp object at 0x7f9a83ded060&#45;&gt;ast.Add object at 0x7f9a9abee230 -->
<g id="edge84" class="edge">
<title>ast.BinOp object at 0x7f9a83ded060&#45;&gt;ast.Add object at 0x7f9a9abee230</title>
<path fill="none" stroke="black" d="M1369.96,-287.7C1360.7,-279.05 1349.34,-268.45 1339.24,-259.03"/>
<polygon fill="black" stroke="black" points="1341.52,-256.37 1331.83,-252.1 1336.75,-261.49 1341.52,-256.37"/>
</g>
<!-- ast.Name object at 0x7f9a83def580 -->
<g id="node66" class="node">
<title>ast.Name object at 0x7f9a83def580</title>
<path fill="#66cdaa" stroke="black" d="M1577.5,-108C1577.5,-108 1547.5,-108 1547.5,-108 1541.5,-108 1535.5,-102 1535.5,-96 1535.5,-96 1535.5,-84 1535.5,-84 1535.5,-78 1541.5,-72 1547.5,-72 1547.5,-72 1577.5,-72 1577.5,-72 1583.5,-72 1589.5,-78 1589.5,-84 1589.5,-84 1589.5,-96 1589.5,-96 1589.5,-102 1583.5,-108 1577.5,-108"/>
<text text-anchor="middle" x="1562.5" y="-86.3" font-family="Times,serif" font-size="14.00">Name</text>
</g>
<!-- ast.BinOp object at 0x7f9a83ded060&#45;&gt;ast.Name object at 0x7f9a83def580 -->
<g id="edge82" class="edge">
<title>ast.BinOp object at 0x7f9a83ded060&#45;&gt;ast.Name object at 0x7f9a83def580</title>
<path fill="none" stroke="black" d="M1406.42,-287.64C1430.12,-264.26 1472.62,-220.84 1504.5,-180 1520.25,-159.82 1535.97,-135.36 1547.07,-117.19"/>
<polygon fill="black" stroke="black" points="1550.25,-118.69 1552.42,-108.32 1544.26,-115.07 1550.25,-118.69"/>
</g>
<!-- ast.BinOp object at 0x7f9a83dee9e0 -->
<g id="node67" class="node">
<title>ast.BinOp object at 0x7f9a83dee9e0</title>
<path fill="#66cdaa" stroke="black" d="M1411.5,-252C1411.5,-252 1381.5,-252 1381.5,-252 1375.5,-252 1369.5,-246 1369.5,-240 1369.5,-240 1369.5,-228 1369.5,-228 1369.5,-222 1375.5,-216 1381.5,-216 1381.5,-216 1411.5,-216 1411.5,-216 1417.5,-216 1423.5,-222 1423.5,-228 1423.5,-228 1423.5,-240 1423.5,-240 1423.5,-246 1417.5,-252 1411.5,-252"/>
<text text-anchor="middle" x="1396.5" y="-230.3" font-family="Times,serif" font-size="14.00">BinOp</text>
</g>
<!-- ast.BinOp object at 0x7f9a83ded060&#45;&gt;ast.BinOp object at 0x7f9a83dee9e0 -->
<g id="edge85" class="edge">
<title>ast.BinOp object at 0x7f9a83ded060&#45;&gt;ast.BinOp object at 0x7f9a83dee9e0</title>
<path fill="none" stroke="black" d="M1390.48,-287.7C1391.36,-279.98 1392.42,-270.71 1393.4,-262.11"/>
<polygon fill="black" stroke="black" points="1396.89,-262.44 1394.55,-252.1 1389.93,-261.64 1396.89,-262.44"/>
</g>
<!-- ast.Name object at 0x7f9a83def580&#45;&gt;ast.Load object at 0x7f9a9abedff0 -->
<g id="edge83" class="edge">
<title>ast.Name object at 0x7f9a83def580&#45;&gt;ast.Load object at 0x7f9a9abedff0</title>
<path fill="none" stroke="black" d="M1535.36,-74.99C1532.42,-73.83 1529.43,-72.8 1526.5,-72 1426.2,-44.54 1107.5,-26.37 997.93,-20.81"/>
<polygon fill="black" stroke="black" points="997.85,-17.3 987.69,-20.3 997.5,-24.29 997.85,-17.3"/>
</g>
<!-- ast.Subscript object at 0x7f9a83dece80 -->
<g id="node68" class="node">
<title>ast.Subscript object at 0x7f9a83dece80</title>
<path fill="#66cdaa" stroke="black" d="M1373.5,-180C1373.5,-180 1329.5,-180 1329.5,-180 1323.5,-180 1317.5,-174 1317.5,-168 1317.5,-168 1317.5,-156 1317.5,-156 1317.5,-150 1323.5,-144 1329.5,-144 1329.5,-144 1373.5,-144 1373.5,-144 1379.5,-144 1385.5,-150 1385.5,-156 1385.5,-156 1385.5,-168 1385.5,-168 1385.5,-174 1379.5,-180 1373.5,-180"/>
<text text-anchor="middle" x="1351.5" y="-158.3" font-family="Times,serif" font-size="14.00">Subscript</text>
</g>
<!-- ast.BinOp object at 0x7f9a83dee9e0&#45;&gt;ast.Subscript object at 0x7f9a83dece80 -->
<g id="edge86" class="edge">
<title>ast.BinOp object at 0x7f9a83dee9e0&#45;&gt;ast.Subscript object at 0x7f9a83dece80</title>
<path fill="none" stroke="black" d="M1385.38,-215.7C1380.14,-207.56 1373.8,-197.69 1368.02,-188.7"/>
<polygon fill="black" stroke="black" points="1370.85,-186.62 1362.5,-180.1 1364.96,-190.41 1370.85,-186.62"/>
</g>
<!-- ast.Div object at 0x7f9a9abee3b0 -->
<g id="node71" class="node">
<title>ast.Div object at 0x7f9a9abee3b0</title>
<path fill="#66cdaa" stroke="black" d="M1483.5,-180C1483.5,-180 1453.5,-180 1453.5,-180 1447.5,-180 1441.5,-174 1441.5,-168 1441.5,-168 1441.5,-156 1441.5,-156 1441.5,-150 1447.5,-144 1453.5,-144 1453.5,-144 1483.5,-144 1483.5,-144 1489.5,-144 1495.5,-150 1495.5,-156 1495.5,-156 1495.5,-168 1495.5,-168 1495.5,-174 1489.5,-180 1483.5,-180"/>
<text text-anchor="middle" x="1468.5" y="-158.3" font-family="Times,serif" font-size="14.00">Div</text>
</g>
<!-- ast.BinOp object at 0x7f9a83dee9e0&#45;&gt;ast.Div object at 0x7f9a9abee3b0 -->
<g id="edge91" class="edge">
<title>ast.BinOp object at 0x7f9a83dee9e0&#45;&gt;ast.Div object at 0x7f9a9abee3b0</title>
<path fill="none" stroke="black" d="M1414.3,-215.7C1423.1,-207.14 1433.88,-196.66 1443.5,-187.3"/>
<polygon fill="black" stroke="black" points="1446.18,-189.58 1450.91,-180.1 1441.3,-184.57 1446.18,-189.58"/>
</g>
<!-- ast.Name object at 0x7f9a83dec190 -->
<g id="node72" class="node">
<title>ast.Name object at 0x7f9a83dec190</title>
<path fill="#66cdaa" stroke="black" d="M1505.5,-108C1505.5,-108 1475.5,-108 1475.5,-108 1469.5,-108 1463.5,-102 1463.5,-96 1463.5,-96 1463.5,-84 1463.5,-84 1463.5,-78 1469.5,-72 1475.5,-72 1475.5,-72 1505.5,-72 1505.5,-72 1511.5,-72 1517.5,-78 1517.5,-84 1517.5,-84 1517.5,-96 1517.5,-96 1517.5,-102 1511.5,-108 1505.5,-108"/>
<text text-anchor="middle" x="1490.5" y="-86.3" font-family="Times,serif" font-size="14.00">Name</text>
</g>
<!-- ast.BinOp object at 0x7f9a83dee9e0&#45;&gt;ast.Name object at 0x7f9a83dec190 -->
<g id="edge92" class="edge">
<title>ast.BinOp object at 0x7f9a83dee9e0&#45;&gt;ast.Name object at 0x7f9a83dec190</title>
<path fill="none" stroke="black" d="M1400.96,-215.82C1406.39,-197.03 1416.8,-166.58 1432.5,-144 1439.92,-133.32 1449.85,-123.25 1459.4,-114.81"/>
<polygon fill="black" stroke="black" points="1461.91,-117.27 1467.27,-108.13 1457.38,-111.94 1461.91,-117.27"/>
</g>
<!-- ast.Subscript object at 0x7f9a83dece80&#45;&gt;ast.Load object at 0x7f9a9abedff0 -->
<g id="edge90" class="edge">
<title>ast.Subscript object at 0x7f9a83dece80&#45;&gt;ast.Load object at 0x7f9a9abedff0</title>
<path fill="none" stroke="black" d="M1353.16,-143.82C1354.07,-123.56 1352.13,-90.33 1332.5,-72 1284.54,-27.23 1082.28,-20.09 997.81,-19.09"/>
<polygon fill="black" stroke="black" points="997.67,-15.59 987.64,-18.99 997.61,-22.59 997.67,-15.59"/>
</g>
<!-- ast.Name object at 0x7f9a83deec80 -->
<g id="node69" class="node">
<title>ast.Name object at 0x7f9a83deec80</title>
<path fill="#66cdaa" stroke="black" d="M1311.5,-108C1311.5,-108 1281.5,-108 1281.5,-108 1275.5,-108 1269.5,-102 1269.5,-96 1269.5,-96 1269.5,-84 1269.5,-84 1269.5,-78 1275.5,-72 1281.5,-72 1281.5,-72 1311.5,-72 1311.5,-72 1317.5,-72 1323.5,-78 1323.5,-84 1323.5,-84 1323.5,-96 1323.5,-96 1323.5,-102 1317.5,-108 1311.5,-108"/>
<text text-anchor="middle" x="1296.5" y="-86.3" font-family="Times,serif" font-size="14.00">Name</text>
</g>
<!-- ast.Subscript object at 0x7f9a83dece80&#45;&gt;ast.Name object at 0x7f9a83deec80 -->
<g id="edge87" class="edge">
<title>ast.Subscript object at 0x7f9a83dece80&#45;&gt;ast.Name object at 0x7f9a83deec80</title>
<path fill="none" stroke="black" d="M1337.9,-143.7C1331.38,-135.39 1323.43,-125.28 1316.25,-116.14"/>
<polygon fill="black" stroke="black" points="1318.87,-113.81 1309.94,-108.1 1313.37,-118.13 1318.87,-113.81"/>
</g>
<!-- ast.Constant object at 0x7f9a83dee170 -->
<g id="node70" class="node">
<title>ast.Constant object at 0x7f9a83dee170</title>
<path fill="#66cdaa" stroke="black" d="M1433,-108C1433,-108 1392,-108 1392,-108 1386,-108 1380,-102 1380,-96 1380,-96 1380,-84 1380,-84 1380,-78 1386,-72 1392,-72 1392,-72 1433,-72 1433,-72 1439,-72 1445,-78 1445,-84 1445,-84 1445,-96 1445,-96 1445,-102 1439,-108 1433,-108"/>
<text text-anchor="middle" x="1412.5" y="-86.3" font-family="Times,serif" font-size="14.00">Constant</text>
</g>
<!-- ast.Subscript object at 0x7f9a83dece80&#45;&gt;ast.Constant object at 0x7f9a83dee170 -->
<g id="edge89" class="edge">
<title>ast.Subscript object at 0x7f9a83dece80&#45;&gt;ast.Constant object at 0x7f9a83dee170</title>
<path fill="none" stroke="black" d="M1366.58,-143.7C1373.89,-135.3 1382.81,-125.07 1390.84,-115.86"/>
<polygon fill="black" stroke="black" points="1393.66,-117.94 1397.59,-108.1 1388.39,-113.34 1393.66,-117.94"/>
</g>
<!-- ast.Name object at 0x7f9a83deec80&#45;&gt;ast.Load object at 0x7f9a9abedff0 -->
<g id="edge88" class="edge">
<title>ast.Name object at 0x7f9a83deec80&#45;&gt;ast.Load object at 0x7f9a9abedff0</title>
<path fill="none" stroke="black" d="M1269.29,-75.23C1266.36,-74.03 1263.4,-72.92 1260.5,-72 1168.45,-42.72 1055.05,-28.24 997.62,-22.35"/>
<polygon fill="black" stroke="black" points="997.86,-18.86 987.56,-21.35 997.16,-25.82 997.86,-18.86"/>
</g>
<!-- ast.Name object at 0x7f9a83dec190&#45;&gt;ast.Load object at 0x7f9a9abedff0 -->
<g id="edge93" class="edge">
<title>ast.Name object at 0x7f9a83dec190&#45;&gt;ast.Load object at 0x7f9a9abedff0</title>
<path fill="none" stroke="black" d="M1463.35,-75.03C1460.41,-73.87 1457.43,-72.82 1454.5,-72 1288.84,-25.43 1081.36,-19.26 997.85,-18.8"/>
<polygon fill="black" stroke="black" points="997.61,-15.3 987.6,-18.77 997.59,-22.3 997.61,-15.3"/>
</g>
<!-- ast.Compare object at 0x7f9a83deccd0 -->
<g id="node74" class="node">
<title>ast.Compare object at 0x7f9a83deccd0</title>
<path fill="#66cdaa" stroke="black" d="M1691,-252C1691,-252 1648,-252 1648,-252 1642,-252 1636,-246 1636,-240 1636,-240 1636,-228 1636,-228 1636,-222 1642,-216 1648,-216 1648,-216 1691,-216 1691,-216 1697,-216 1703,-222 1703,-228 1703,-228 1703,-240 1703,-240 1703,-246 1697,-252 1691,-252"/>
<text text-anchor="middle" x="1669.5" y="-230.3" font-family="Times,serif" font-size="14.00">Compare</text>
</g>
<!-- ast.If object at 0x7f9a83ded3f0&#45;&gt;ast.Compare object at 0x7f9a83deccd0 -->
<g id="edge95" class="edge">
<title>ast.If object at 0x7f9a83ded3f0&#45;&gt;ast.Compare object at 0x7f9a83deccd0</title>
<path fill="none" stroke="black" d="M1707.14,-287.7C1701.27,-279.47 1694.13,-269.48 1687.66,-260.42"/>
<polygon fill="black" stroke="black" points="1690.38,-258.21 1681.72,-252.1 1684.68,-262.28 1690.38,-258.21"/>
</g>
<!-- ast.Return object at 0x7f9a83decf70 -->
<g id="node79" class="node">
<title>ast.Return object at 0x7f9a83decf70</title>
<path fill="#66cdaa" stroke="black" d="M1785.5,-252C1785.5,-252 1755.5,-252 1755.5,-252 1749.5,-252 1743.5,-246 1743.5,-240 1743.5,-240 1743.5,-228 1743.5,-228 1743.5,-222 1749.5,-216 1755.5,-216 1755.5,-216 1785.5,-216 1785.5,-216 1791.5,-216 1797.5,-222 1797.5,-228 1797.5,-228 1797.5,-240 1797.5,-240 1797.5,-246 1791.5,-252 1785.5,-252"/>
<text text-anchor="middle" x="1770.5" y="-230.3" font-family="Times,serif" font-size="14.00">Return</text>
</g>
<!-- ast.If object at 0x7f9a83ded3f0&#45;&gt;ast.Return object at 0x7f9a83decf70 -->
<g id="edge104" class="edge">
<title>ast.If object at 0x7f9a83ded3f0&#45;&gt;ast.Return object at 0x7f9a83decf70</title>
<path fill="none" stroke="black" d="M1732.11,-287.7C1738.1,-279.47 1745.38,-269.48 1751.98,-260.42"/>
<polygon fill="black" stroke="black" points="1754.98,-262.25 1758.04,-252.1 1749.32,-258.13 1754.98,-262.25"/>
</g>
<!-- ast.Return object at 0x7f9a83deca00 -->
<g id="node81" class="node">
<title>ast.Return object at 0x7f9a83deca00</title>
<path fill="#66cdaa" stroke="black" d="M1873.5,-252C1873.5,-252 1843.5,-252 1843.5,-252 1837.5,-252 1831.5,-246 1831.5,-240 1831.5,-240 1831.5,-228 1831.5,-228 1831.5,-222 1837.5,-216 1843.5,-216 1843.5,-216 1873.5,-216 1873.5,-216 1879.5,-216 1885.5,-222 1885.5,-228 1885.5,-228 1885.5,-240 1885.5,-240 1885.5,-246 1879.5,-252 1873.5,-252"/>
<text text-anchor="middle" x="1858.5" y="-230.3" font-family="Times,serif" font-size="14.00">Return</text>
</g>
<!-- ast.If object at 0x7f9a83ded3f0&#45;&gt;ast.Return object at 0x7f9a83deca00 -->
<g id="edge106" class="edge">
<title>ast.If object at 0x7f9a83ded3f0&#45;&gt;ast.Return object at 0x7f9a83deca00</title>
<path fill="none" stroke="black" d="M1746.63,-291.34C1768.25,-280.45 1798.72,-265.1 1822.4,-253.18"/>
<polygon fill="black" stroke="black" points="1824.08,-256.25 1831.44,-248.63 1820.93,-250 1824.08,-256.25"/>
</g>
<!-- ast.Compare object at 0x7f9a83deccd0&#45;&gt;ast.Eq object at 0x7f9a9abee920 -->
<g id="edge98" class="edge">
<title>ast.Compare object at 0x7f9a83deccd0&#45;&gt;ast.Eq object at 0x7f9a9abee920</title>
<path fill="none" stroke="black" d="M1635.98,-230.27C1571.71,-224.57 1427.01,-209.39 1308.5,-180 1304.85,-179.1 1301.09,-178.02 1297.36,-176.86"/>
<polygon fill="black" stroke="black" points="1298.23,-173.46 1287.63,-173.64 1296.03,-180.11 1298.23,-173.46"/>
</g>
<!-- ast.Name object at 0x7f9a83dec0d0 -->
<g id="node75" class="node">
<title>ast.Name object at 0x7f9a83dec0d0</title>
<path fill="#66cdaa" stroke="black" d="M1843.5,-108C1843.5,-108 1813.5,-108 1813.5,-108 1807.5,-108 1801.5,-102 1801.5,-96 1801.5,-96 1801.5,-84 1801.5,-84 1801.5,-78 1807.5,-72 1813.5,-72 1813.5,-72 1843.5,-72 1843.5,-72 1849.5,-72 1855.5,-78 1855.5,-84 1855.5,-84 1855.5,-96 1855.5,-96 1855.5,-102 1849.5,-108 1843.5,-108"/>
<text text-anchor="middle" x="1828.5" y="-86.3" font-family="Times,serif" font-size="14.00">Name</text>
</g>
<!-- ast.Compare object at 0x7f9a83deccd0&#45;&gt;ast.Name object at 0x7f9a83dec0d0 -->
<g id="edge96" class="edge">
<title>ast.Compare object at 0x7f9a83deccd0&#45;&gt;ast.Name object at 0x7f9a83dec0d0</title>
<path fill="none" stroke="black" d="M1681.19,-215.87C1694.71,-196.84 1718.36,-165.93 1743.5,-144 1758.29,-131.1 1776.56,-119.27 1792.36,-110.08"/>
<polygon fill="black" stroke="black" points="1794.37,-112.96 1801.34,-104.98 1790.92,-106.88 1794.37,-112.96"/>
</g>
<!-- ast.Subscript object at 0x7f9a83dee1d0 -->
<g id="node76" class="node">
<title>ast.Subscript object at 0x7f9a83dee1d0</title>
<path fill="#66cdaa" stroke="black" d="M1683.5,-180C1683.5,-180 1639.5,-180 1639.5,-180 1633.5,-180 1627.5,-174 1627.5,-168 1627.5,-168 1627.5,-156 1627.5,-156 1627.5,-150 1633.5,-144 1639.5,-144 1639.5,-144 1683.5,-144 1683.5,-144 1689.5,-144 1695.5,-150 1695.5,-156 1695.5,-156 1695.5,-168 1695.5,-168 1695.5,-174 1689.5,-180 1683.5,-180"/>
<text text-anchor="middle" x="1661.5" y="-158.3" font-family="Times,serif" font-size="14.00">Subscript</text>
</g>
<!-- ast.Compare object at 0x7f9a83deccd0&#45;&gt;ast.Subscript object at 0x7f9a83dee1d0 -->
<g id="edge99" class="edge">
<title>ast.Compare object at 0x7f9a83deccd0&#45;&gt;ast.Subscript object at 0x7f9a83dee1d0</title>
<path fill="none" stroke="black" d="M1667.52,-215.7C1666.64,-207.98 1665.58,-198.71 1664.6,-190.11"/>
<polygon fill="black" stroke="black" points="1668.07,-189.64 1663.45,-180.1 1661.11,-190.44 1668.07,-189.64"/>
</g>
<!-- ast.Name object at 0x7f9a83dec0d0&#45;&gt;ast.Load object at 0x7f9a9abedff0 -->
<g id="edge97" class="edge">
<title>ast.Name object at 0x7f9a83dec0d0&#45;&gt;ast.Load object at 0x7f9a9abedff0</title>
<path fill="none" stroke="black" d="M1801.38,-74.9C1798.44,-73.76 1795.44,-72.76 1792.5,-72 1639,-32.41 1139.06,-21.77 997.91,-19.52"/>
<polygon fill="black" stroke="black" points="997.68,-16.02 987.63,-19.36 997.57,-23.01 997.68,-16.02"/>
</g>
<!-- ast.Subscript object at 0x7f9a83dee1d0&#45;&gt;ast.Load object at 0x7f9a9abedff0 -->
<g id="edge103" class="edge">
<title>ast.Subscript object at 0x7f9a83dee1d0&#45;&gt;ast.Load object at 0x7f9a9abedff0</title>
<path fill="none" stroke="black" d="M1670.1,-143.81C1678.71,-123.86 1688.35,-91.24 1670.5,-72 1624.45,-22.39 1137.4,-18.87 997.74,-18.89"/>
<polygon fill="black" stroke="black" points="997.54,-15.39 987.54,-18.9 997.55,-22.39 997.54,-15.39"/>
</g>
<!-- ast.Name object at 0x7f9a83dec400 -->
<g id="node77" class="node">
<title>ast.Name object at 0x7f9a83dec400</title>
<path fill="#66cdaa" stroke="black" d="M1649.5,-108C1649.5,-108 1619.5,-108 1619.5,-108 1613.5,-108 1607.5,-102 1607.5,-96 1607.5,-96 1607.5,-84 1607.5,-84 1607.5,-78 1613.5,-72 1619.5,-72 1619.5,-72 1649.5,-72 1649.5,-72 1655.5,-72 1661.5,-78 1661.5,-84 1661.5,-84 1661.5,-96 1661.5,-96 1661.5,-102 1655.5,-108 1649.5,-108"/>
<text text-anchor="middle" x="1634.5" y="-86.3" font-family="Times,serif" font-size="14.00">Name</text>
</g>
<!-- ast.Subscript object at 0x7f9a83dee1d0&#45;&gt;ast.Name object at 0x7f9a83dec400 -->
<g id="edge100" class="edge">
<title>ast.Subscript object at 0x7f9a83dee1d0&#45;&gt;ast.Name object at 0x7f9a83dec400</title>
<path fill="none" stroke="black" d="M1654.83,-143.7C1651.79,-135.81 1648.12,-126.3 1644.74,-117.55"/>
<polygon fill="black" stroke="black" points="1647.96,-116.17 1641.1,-108.1 1641.43,-118.69 1647.96,-116.17"/>
</g>
<!-- ast.Constant object at 0x7f9a83dec4c0 -->
<g id="node78" class="node">
<title>ast.Constant object at 0x7f9a83dec4c0</title>
<path fill="#66cdaa" stroke="black" d="M1771,-108C1771,-108 1730,-108 1730,-108 1724,-108 1718,-102 1718,-96 1718,-96 1718,-84 1718,-84 1718,-78 1724,-72 1730,-72 1730,-72 1771,-72 1771,-72 1777,-72 1783,-78 1783,-84 1783,-84 1783,-96 1783,-96 1783,-102 1777,-108 1771,-108"/>
<text text-anchor="middle" x="1750.5" y="-86.3" font-family="Times,serif" font-size="14.00">Constant</text>
</g>
<!-- ast.Subscript object at 0x7f9a83dee1d0&#45;&gt;ast.Constant object at 0x7f9a83dec4c0 -->
<g id="edge102" class="edge">
<title>ast.Subscript object at 0x7f9a83dee1d0&#45;&gt;ast.Constant object at 0x7f9a83dec4c0</title>
<path fill="none" stroke="black" d="M1683.5,-143.7C1694.71,-134.88 1708.5,-124.03 1720.65,-114.47"/>
<polygon fill="black" stroke="black" points="1723.06,-117.04 1728.75,-108.1 1718.73,-111.54 1723.06,-117.04"/>
</g>
<!-- ast.Name object at 0x7f9a83dec400&#45;&gt;ast.Load object at 0x7f9a9abedff0 -->
<g id="edge101" class="edge">
<title>ast.Name object at 0x7f9a83dec400&#45;&gt;ast.Load object at 0x7f9a9abedff0</title>
<path fill="none" stroke="black" d="M1607.37,-74.95C1604.43,-73.81 1601.44,-72.79 1598.5,-72 1483.87,-41.26 1116.51,-24.92 997.85,-20.35"/>
<polygon fill="black" stroke="black" points="997.92,-16.85 987.8,-19.97 997.66,-23.85 997.92,-16.85"/>
</g>
<!-- ast.Constant object at 0x7f9a83deec50 -->
<g id="node80" class="node">
<title>ast.Constant object at 0x7f9a83deec50</title>
<path fill="#66cdaa" stroke="black" d="M1805,-180C1805,-180 1764,-180 1764,-180 1758,-180 1752,-174 1752,-168 1752,-168 1752,-156 1752,-156 1752,-150 1758,-144 1764,-144 1764,-144 1805,-144 1805,-144 1811,-144 1817,-150 1817,-156 1817,-156 1817,-168 1817,-168 1817,-174 1811,-180 1805,-180"/>
<text text-anchor="middle" x="1784.5" y="-158.3" font-family="Times,serif" font-size="14.00">Constant</text>
</g>
<!-- ast.Return object at 0x7f9a83decf70&#45;&gt;ast.Constant object at 0x7f9a83deec50 -->
<g id="edge105" class="edge">
<title>ast.Return object at 0x7f9a83decf70&#45;&gt;ast.Constant object at 0x7f9a83deec50</title>
<path fill="none" stroke="black" d="M1773.96,-215.7C1775.5,-207.98 1777.36,-198.71 1779.08,-190.11"/>
<polygon fill="black" stroke="black" points="1782.55,-190.6 1781.08,-180.1 1775.69,-189.22 1782.55,-190.6"/>
</g>
<!-- ast.Constant object at 0x7f9a83dee770 -->
<g id="node82" class="node">
<title>ast.Constant object at 0x7f9a83dee770</title>
<path fill="#66cdaa" stroke="black" d="M1888,-180C1888,-180 1847,-180 1847,-180 1841,-180 1835,-174 1835,-168 1835,-168 1835,-156 1835,-156 1835,-150 1841,-144 1847,-144 1847,-144 1888,-144 1888,-144 1894,-144 1900,-150 1900,-156 1900,-156 1900,-168 1900,-168 1900,-174 1894,-180 1888,-180"/>
<text text-anchor="middle" x="1867.5" y="-158.3" font-family="Times,serif" font-size="14.00">Constant</text>
</g>
<!-- ast.Return object at 0x7f9a83deca00&#45;&gt;ast.Constant object at 0x7f9a83dee770 -->
<g id="edge107" class="edge">
<title>ast.Return object at 0x7f9a83deca00&#45;&gt;ast.Constant object at 0x7f9a83dee770</title>
<path fill="none" stroke="black" d="M1860.72,-215.7C1861.72,-207.98 1862.91,-198.71 1864.01,-190.11"/>
<polygon fill="black" stroke="black" points="1867.5,-190.47 1865.3,-180.1 1860.55,-189.58 1867.5,-190.47"/>
</g>
</g>
</svg>
