<?xml version="1.0" encoding="UTF-8" standalone="no"?>
<!DOCTYPE svg PUBLIC "-//W3C//DTD SVG 1.1//EN"
 "http://www.w3.org/Graphics/SVG/1.1/DTD/svg11.dtd">
<!-- Generated by graphviz version 2.43.0 (0)
 -->
<!-- Title: %3 Pages: 1 -->
<svg width="1201pt" height="620pt"
 viewBox="0.00 0.00 1201.00 620.00" xmlns="http://www.w3.org/2000/svg" xmlns:xlink="http://www.w3.org/1999/xlink">
<g id="graph0" class="graph" transform="scale(1 1) rotate(0) translate(4 616)">
<title>%3</title>
<polygon fill="white" stroke="transparent" points="-4,4 -4,-616 1197,-616 1197,4 -4,4"/>
<!-- ast.Module object at 0x7f8b701f64a0 -->
<g id="node1" class="node">
<title>ast.Module object at 0x7f8b701f64a0</title>
<path fill="#66cdaa" stroke="black" d="M585.5,-612C585.5,-612 539.5,-612 539.5,-612 533.5,-612 527.5,-606 527.5,-600 527.5,-600 527.5,-588 527.5,-588 527.5,-582 533.5,-576 539.5,-576 539.5,-576 585.5,-576 585.5,-576 591.5,-576 597.5,-582 597.5,-588 597.5,-588 597.5,-600 597.5,-600 597.5,-606 591.5,-612 585.5,-612"/>
<text text-anchor="middle" x="562.5" y="-590.3" font-family="Times,serif" font-size="14.00">Module</text>
</g>
<!-- ast.Import object at 0x7f8b701f6410 -->
<g id="node2" class="node">
<title>ast.Import object at 0x7f8b701f6410</title>
<path fill="#66cdaa" stroke="black" d="M532,-540C532,-540 491,-540 491,-540 485,-540 479,-534 479,-528 479,-528 479,-516 479,-516 479,-510 485,-504 491,-504 491,-504 532,-504 532,-504 538,-504 544,-510 544,-516 544,-516 544,-528 544,-528 544,-534 538,-540 532,-540"/>
<text text-anchor="middle" x="511.5" y="-518.3" font-family="Times,serif" font-size="14.00">Import</text>
</g>
<!-- ast.Module object at 0x7f8b701f64a0&#45;&gt;ast.Import object at 0x7f8b701f6410 -->
<g id="edge1" class="edge">
<title>ast.Module object at 0x7f8b701f64a0&#45;&gt;ast.Import object at 0x7f8b701f6410</title>
<path fill="none" stroke="black" d="M549.89,-575.7C543.9,-567.47 536.62,-557.48 530.02,-548.42"/>
<polygon fill="black" stroke="black" points="532.68,-546.13 523.96,-540.1 527.02,-550.25 532.68,-546.13"/>
</g>
<!-- ast.FunctionDef object at 0x7f8b701f7a60 -->
<g id="node4" class="node">
<title>ast.FunctionDef object at 0x7f8b701f7a60</title>
<path fill="#66cdaa" stroke="black" d="M686.5,-540C686.5,-540 606.5,-540 606.5,-540 600.5,-540 594.5,-534 594.5,-528 594.5,-528 594.5,-516 594.5,-516 594.5,-510 600.5,-504 606.5,-504 606.5,-504 686.5,-504 686.5,-504 692.5,-504 698.5,-510 698.5,-516 698.5,-516 698.5,-528 698.5,-528 698.5,-534 692.5,-540 686.5,-540"/>
<text text-anchor="middle" x="646.5" y="-518.3" font-family="Times,serif" font-size="14.00">FunctionDef</text>
</g>
<!-- ast.Module object at 0x7f8b701f64a0&#45;&gt;ast.FunctionDef object at 0x7f8b701f7a60 -->
<g id="edge3" class="edge">
<title>ast.Module object at 0x7f8b701f64a0&#45;&gt;ast.FunctionDef object at 0x7f8b701f7a60</title>
<path fill="none" stroke="black" d="M583.26,-575.7C593.74,-566.97 606.61,-556.24 618,-546.75"/>
<polygon fill="black" stroke="black" points="620.53,-549.19 625.97,-540.1 616.05,-543.82 620.53,-549.19"/>
</g>
<!-- ast.alias object at 0x7f8b701f5b10 -->
<g id="node3" class="node">
<title>ast.alias object at 0x7f8b701f5b10</title>
<path fill="#66cdaa" stroke="black" d="M475.5,-468C475.5,-468 445.5,-468 445.5,-468 439.5,-468 433.5,-462 433.5,-456 433.5,-456 433.5,-444 433.5,-444 433.5,-438 439.5,-432 445.5,-432 445.5,-432 475.5,-432 475.5,-432 481.5,-432 487.5,-438 487.5,-444 487.5,-444 487.5,-456 487.5,-456 487.5,-462 481.5,-468 475.5,-468"/>
<text text-anchor="middle" x="460.5" y="-446.3" font-family="Times,serif" font-size="14.00">alias</text>
</g>
<!-- ast.Import object at 0x7f8b701f6410&#45;&gt;ast.alias object at 0x7f8b701f5b10 -->
<g id="edge2" class="edge">
<title>ast.Import object at 0x7f8b701f6410&#45;&gt;ast.alias object at 0x7f8b701f5b10</title>
<path fill="none" stroke="black" d="M498.89,-503.7C492.9,-495.47 485.62,-485.48 479.02,-476.42"/>
<polygon fill="black" stroke="black" points="481.68,-474.13 472.96,-468.1 476.02,-478.25 481.68,-474.13"/>
</g>
<!-- ast.arguments object at 0x7f8b701f60b0 -->
<g id="node5" class="node">
<title>ast.arguments object at 0x7f8b701f60b0</title>
<path fill="#66cdaa" stroke="black" d="M587.5,-468C587.5,-468 517.5,-468 517.5,-468 511.5,-468 505.5,-462 505.5,-456 505.5,-456 505.5,-444 505.5,-444 505.5,-438 511.5,-432 517.5,-432 517.5,-432 587.5,-432 587.5,-432 593.5,-432 599.5,-438 599.5,-444 599.5,-444 599.5,-456 599.5,-456 599.5,-462 593.5,-468 587.5,-468"/>
<text text-anchor="middle" x="552.5" y="-446.3" font-family="Times,serif" font-size="14.00">arguments</text>
</g>
<!-- ast.FunctionDef object at 0x7f8b701f7a60&#45;&gt;ast.arguments object at 0x7f8b701f60b0 -->
<g id="edge4" class="edge">
<title>ast.FunctionDef object at 0x7f8b701f7a60&#45;&gt;ast.arguments object at 0x7f8b701f60b0</title>
<path fill="none" stroke="black" d="M623.26,-503.7C611.31,-494.8 596.58,-483.82 583.65,-474.2"/>
<polygon fill="black" stroke="black" points="585.58,-471.27 575.47,-468.1 581.4,-476.88 585.58,-471.27"/>
</g>
<!-- ast.If object at 0x7f8b701f6350 -->
<g id="node7" class="node">
<title>ast.If object at 0x7f8b701f6350</title>
<path fill="#66cdaa" stroke="black" d="M397.5,-324C397.5,-324 367.5,-324 367.5,-324 361.5,-324 355.5,-318 355.5,-312 355.5,-312 355.5,-300 355.5,-300 355.5,-294 361.5,-288 367.5,-288 367.5,-288 397.5,-288 397.5,-288 403.5,-288 409.5,-294 409.5,-300 409.5,-300 409.5,-312 409.5,-312 409.5,-318 403.5,-324 397.5,-324"/>
<text text-anchor="middle" x="382.5" y="-302.3" font-family="Times,serif" font-size="14.00">If</text>
</g>
<!-- ast.FunctionDef object at 0x7f8b701f7a60&#45;&gt;ast.If object at 0x7f8b701f6350 -->
<g id="edge6" class="edge">
<title>ast.FunctionDef object at 0x7f8b701f7a60&#45;&gt;ast.If object at 0x7f8b701f6350</title>
<path fill="none" stroke="black" d="M645.42,-503.82C642.4,-470.88 631.01,-398.7 588.5,-360 541.63,-317.34 465.01,-308.06 419.6,-306.57"/>
<polygon fill="black" stroke="black" points="419.66,-303.07 409.59,-306.36 419.51,-310.07 419.66,-303.07"/>
</g>
<!-- ast.Assign object at 0x7f8b701f6980 -->
<g id="node20" class="node">
<title>ast.Assign object at 0x7f8b701f6980</title>
<path fill="#66cdaa" stroke="black" d="M645.5,-324C645.5,-324 605.5,-324 605.5,-324 599.5,-324 593.5,-318 593.5,-312 593.5,-312 593.5,-300 593.5,-300 593.5,-294 599.5,-288 605.5,-288 605.5,-288 645.5,-288 645.5,-288 651.5,-288 657.5,-294 657.5,-300 657.5,-300 657.5,-312 657.5,-312 657.5,-318 651.5,-324 645.5,-324"/>
<text text-anchor="middle" x="625.5" y="-302.3" font-family="Times,serif" font-size="14.00">Assign</text>
</g>
<!-- ast.FunctionDef object at 0x7f8b701f7a60&#45;&gt;ast.Assign object at 0x7f8b701f6980 -->
<g id="edge21" class="edge">
<title>ast.FunctionDef object at 0x7f8b701f7a60&#45;&gt;ast.Assign object at 0x7f8b701f6980</title>
<path fill="none" stroke="black" d="M647.43,-503.94C648.7,-474.39 649.99,-411.88 641.5,-360 640.09,-351.37 637.66,-342.18 635.11,-333.91"/>
<polygon fill="black" stroke="black" points="638.44,-332.82 632.01,-324.39 631.78,-334.99 638.44,-332.82"/>
</g>
<!-- ast.If object at 0x7f8b701f5c60 -->
<g id="node28" class="node">
<title>ast.If object at 0x7f8b701f5c60</title>
<path fill="#66cdaa" stroke="black" d="M816.5,-252C816.5,-252 786.5,-252 786.5,-252 780.5,-252 774.5,-246 774.5,-240 774.5,-240 774.5,-228 774.5,-228 774.5,-222 780.5,-216 786.5,-216 786.5,-216 816.5,-216 816.5,-216 822.5,-216 828.5,-222 828.5,-228 828.5,-228 828.5,-240 828.5,-240 828.5,-246 822.5,-252 816.5,-252"/>
<text text-anchor="middle" x="801.5" y="-230.3" font-family="Times,serif" font-size="14.00">If</text>
</g>
<!-- ast.FunctionDef object at 0x7f8b701f7a60&#45;&gt;ast.If object at 0x7f8b701f5c60 -->
<g id="edge32" class="edge">
<title>ast.FunctionDef object at 0x7f8b701f7a60&#45;&gt;ast.If object at 0x7f8b701f5c60</title>
<path fill="none" stroke="black" d="M655.73,-503.97C681.78,-455.89 756.01,-318.93 787.31,-261.19"/>
<polygon fill="black" stroke="black" points="790.43,-262.77 792.12,-252.31 784.28,-259.43 790.43,-262.77"/>
</g>
<!-- ast.Return object at 0x7f8b701f4280 -->
<g id="node35" class="node">
<title>ast.Return object at 0x7f8b701f4280</title>
<path fill="#66cdaa" stroke="black" d="M914.5,-468C914.5,-468 872.5,-468 872.5,-468 866.5,-468 860.5,-462 860.5,-456 860.5,-456 860.5,-444 860.5,-444 860.5,-438 866.5,-432 872.5,-432 872.5,-432 914.5,-432 914.5,-432 920.5,-432 926.5,-438 926.5,-444 926.5,-444 926.5,-456 926.5,-456 926.5,-462 920.5,-468 914.5,-468"/>
<text text-anchor="middle" x="893.5" y="-446.3" font-family="Times,serif" font-size="14.00">Return</text>
</g>
<!-- ast.FunctionDef object at 0x7f8b701f7a60&#45;&gt;ast.Return object at 0x7f8b701f4280 -->
<g id="edge41" class="edge">
<title>ast.FunctionDef object at 0x7f8b701f7a60&#45;&gt;ast.Return object at 0x7f8b701f4280</title>
<path fill="none" stroke="black" d="M698.58,-506.24C743.79,-493.43 808.44,-475.1 850.69,-463.13"/>
<polygon fill="black" stroke="black" points="851.73,-466.47 860.4,-460.38 849.83,-459.74 851.73,-466.47"/>
</g>
<!-- ast.arg object at 0x7f8b701f6440 -->
<g id="node6" class="node">
<title>ast.arg object at 0x7f8b701f6440</title>
<path fill="#66cdaa" stroke="black" d="M567.5,-396C567.5,-396 537.5,-396 537.5,-396 531.5,-396 525.5,-390 525.5,-384 525.5,-384 525.5,-372 525.5,-372 525.5,-366 531.5,-360 537.5,-360 537.5,-360 567.5,-360 567.5,-360 573.5,-360 579.5,-366 579.5,-372 579.5,-372 579.5,-384 579.5,-384 579.5,-390 573.5,-396 567.5,-396"/>
<text text-anchor="middle" x="552.5" y="-374.3" font-family="Times,serif" font-size="14.00">arg</text>
</g>
<!-- ast.arguments object at 0x7f8b701f60b0&#45;&gt;ast.arg object at 0x7f8b701f6440 -->
<g id="edge5" class="edge">
<title>ast.arguments object at 0x7f8b701f60b0&#45;&gt;ast.arg object at 0x7f8b701f6440</title>
<path fill="none" stroke="black" d="M552.5,-431.7C552.5,-423.98 552.5,-414.71 552.5,-406.11"/>
<polygon fill="black" stroke="black" points="556,-406.1 552.5,-396.1 549,-406.1 556,-406.1"/>
</g>
<!-- ast.Compare object at 0x7f8b701f55d0 -->
<g id="node8" class="node">
<title>ast.Compare object at 0x7f8b701f55d0</title>
<path fill="#66cdaa" stroke="black" d="M271,-252C271,-252 214,-252 214,-252 208,-252 202,-246 202,-240 202,-240 202,-228 202,-228 202,-222 208,-216 214,-216 214,-216 271,-216 271,-216 277,-216 283,-222 283,-228 283,-228 283,-240 283,-240 283,-246 277,-252 271,-252"/>
<text text-anchor="middle" x="242.5" y="-230.3" font-family="Times,serif" font-size="14.00">Compare</text>
</g>
<!-- ast.If object at 0x7f8b701f6350&#45;&gt;ast.Compare object at 0x7f8b701f55d0 -->
<g id="edge7" class="edge">
<title>ast.If object at 0x7f8b701f6350&#45;&gt;ast.Compare object at 0x7f8b701f55d0</title>
<path fill="none" stroke="black" d="M355.17,-291.34C335.45,-281.48 308.42,-267.96 285.78,-256.64"/>
<polygon fill="black" stroke="black" points="287.21,-253.44 276.7,-252.1 284.08,-259.7 287.21,-253.44"/>
</g>
<!-- ast.Return object at 0x7f8b701f6e90 -->
<g id="node18" class="node">
<title>ast.Return object at 0x7f8b701f6e90</title>
<path fill="#66cdaa" stroke="black" d="M403.5,-252C403.5,-252 361.5,-252 361.5,-252 355.5,-252 349.5,-246 349.5,-240 349.5,-240 349.5,-228 349.5,-228 349.5,-222 355.5,-216 361.5,-216 361.5,-216 403.5,-216 403.5,-216 409.5,-216 415.5,-222 415.5,-228 415.5,-228 415.5,-240 415.5,-240 415.5,-246 409.5,-252 403.5,-252"/>
<text text-anchor="middle" x="382.5" y="-230.3" font-family="Times,serif" font-size="14.00">Return</text>
</g>
<!-- ast.If object at 0x7f8b701f6350&#45;&gt;ast.Return object at 0x7f8b701f6e90 -->
<g id="edge18" class="edge">
<title>ast.If object at 0x7f8b701f6350&#45;&gt;ast.Return object at 0x7f8b701f6e90</title>
<path fill="none" stroke="black" d="M382.5,-287.7C382.5,-279.98 382.5,-270.71 382.5,-262.11"/>
<polygon fill="black" stroke="black" points="386,-262.1 382.5,-252.1 379,-262.1 386,-262.1"/>
</g>
<!-- ast.Call object at 0x7f8b701f5600 -->
<g id="node9" class="node">
<title>ast.Call object at 0x7f8b701f5600</title>
<path fill="#66cdaa" stroke="black" d="M121.5,-180C121.5,-180 91.5,-180 91.5,-180 85.5,-180 79.5,-174 79.5,-168 79.5,-168 79.5,-156 79.5,-156 79.5,-150 85.5,-144 91.5,-144 91.5,-144 121.5,-144 121.5,-144 127.5,-144 133.5,-150 133.5,-156 133.5,-156 133.5,-168 133.5,-168 133.5,-174 127.5,-180 121.5,-180"/>
<text text-anchor="middle" x="106.5" y="-158.3" font-family="Times,serif" font-size="14.00">Call</text>
</g>
<!-- ast.Compare object at 0x7f8b701f55d0&#45;&gt;ast.Call object at 0x7f8b701f5600 -->
<g id="edge8" class="edge">
<title>ast.Compare object at 0x7f8b701f55d0&#45;&gt;ast.Call object at 0x7f8b701f5600</title>
<path fill="none" stroke="black" d="M209.23,-215.88C189.18,-205.56 163.63,-192.4 143.02,-181.8"/>
<polygon fill="black" stroke="black" points="144.43,-178.59 133.94,-177.12 141.23,-184.81 144.43,-178.59"/>
</g>
<!-- ast.Lt object at 0x7f8b74db20b0 -->
<g id="node13" class="node">
<title>ast.Lt object at 0x7f8b74db20b0</title>
<path fill="#66cdaa" stroke="black" d="M219.5,-180C219.5,-180 189.5,-180 189.5,-180 183.5,-180 177.5,-174 177.5,-168 177.5,-168 177.5,-156 177.5,-156 177.5,-150 183.5,-144 189.5,-144 189.5,-144 219.5,-144 219.5,-144 225.5,-144 231.5,-150 231.5,-156 231.5,-156 231.5,-168 231.5,-168 231.5,-174 225.5,-180 219.5,-180"/>
<text text-anchor="middle" x="204.5" y="-158.3" font-family="Times,serif" font-size="14.00">Lt</text>
</g>
<!-- ast.Compare object at 0x7f8b701f55d0&#45;&gt;ast.Lt object at 0x7f8b74db20b0 -->
<g id="edge13" class="edge">
<title>ast.Compare object at 0x7f8b701f55d0&#45;&gt;ast.Lt object at 0x7f8b74db20b0</title>
<path fill="none" stroke="black" d="M233.11,-215.7C228.74,-207.64 223.44,-197.89 218.6,-188.98"/>
<polygon fill="black" stroke="black" points="221.63,-187.22 213.79,-180.1 215.48,-190.56 221.63,-187.22"/>
</g>
<!-- ast.BinOp object at 0x7f8b701f79d0 -->
<g id="node14" class="node">
<title>ast.BinOp object at 0x7f8b701f79d0</title>
<path fill="#66cdaa" stroke="black" d="M299,-180C299,-180 262,-180 262,-180 256,-180 250,-174 250,-168 250,-168 250,-156 250,-156 250,-150 256,-144 262,-144 262,-144 299,-144 299,-144 305,-144 311,-150 311,-156 311,-156 311,-168 311,-168 311,-174 305,-180 299,-180"/>
<text text-anchor="middle" x="280.5" y="-158.3" font-family="Times,serif" font-size="14.00">BinOp</text>
</g>
<!-- ast.Compare object at 0x7f8b701f55d0&#45;&gt;ast.BinOp object at 0x7f8b701f79d0 -->
<g id="edge14" class="edge">
<title>ast.Compare object at 0x7f8b701f55d0&#45;&gt;ast.BinOp object at 0x7f8b701f79d0</title>
<path fill="none" stroke="black" d="M251.89,-215.7C256.26,-207.64 261.56,-197.89 266.4,-188.98"/>
<polygon fill="black" stroke="black" points="269.52,-190.56 271.21,-180.1 263.37,-187.22 269.52,-190.56"/>
</g>
<!-- ast.Name object at 0x7f8b701f4e80 -->
<g id="node10" class="node">
<title>ast.Name object at 0x7f8b701f4e80</title>
<path fill="#66cdaa" stroke="black" d="M47,-108C47,-108 12,-108 12,-108 6,-108 0,-102 0,-96 0,-96 0,-84 0,-84 0,-78 6,-72 12,-72 12,-72 47,-72 47,-72 53,-72 59,-78 59,-84 59,-84 59,-96 59,-96 59,-102 53,-108 47,-108"/>
<text text-anchor="middle" x="29.5" y="-86.3" font-family="Times,serif" font-size="14.00">Name</text>
</g>
<!-- ast.Call object at 0x7f8b701f5600&#45;&gt;ast.Name object at 0x7f8b701f4e80 -->
<g id="edge9" class="edge">
<title>ast.Call object at 0x7f8b701f5600&#45;&gt;ast.Name object at 0x7f8b701f4e80</title>
<path fill="none" stroke="black" d="M87.47,-143.7C77.96,-135.05 66.29,-124.45 55.93,-115.03"/>
<polygon fill="black" stroke="black" points="58.07,-112.24 48.31,-108.1 53.36,-117.42 58.07,-112.24"/>
</g>
<!-- ast.Name object at 0x7f8b701f63b0 -->
<g id="node12" class="node">
<title>ast.Name object at 0x7f8b701f63b0</title>
<path fill="#66cdaa" stroke="black" d="M124,-108C124,-108 89,-108 89,-108 83,-108 77,-102 77,-96 77,-96 77,-84 77,-84 77,-78 83,-72 89,-72 89,-72 124,-72 124,-72 130,-72 136,-78 136,-84 136,-84 136,-96 136,-96 136,-102 130,-108 124,-108"/>
<text text-anchor="middle" x="106.5" y="-86.3" font-family="Times,serif" font-size="14.00">Name</text>
</g>
<!-- ast.Call object at 0x7f8b701f5600&#45;&gt;ast.Name object at 0x7f8b701f63b0 -->
<g id="edge11" class="edge">
<title>ast.Call object at 0x7f8b701f5600&#45;&gt;ast.Name object at 0x7f8b701f63b0</title>
<path fill="none" stroke="black" d="M106.5,-143.7C106.5,-135.98 106.5,-126.71 106.5,-118.11"/>
<polygon fill="black" stroke="black" points="110,-118.1 106.5,-108.1 103,-118.1 110,-118.1"/>
</g>
<!-- ast.Load object at 0x7f8b74db16c0 -->
<g id="node11" class="node">
<title>ast.Load object at 0x7f8b74db16c0</title>
<path fill="#66cdaa" stroke="black" d="M638.5,-36C638.5,-36 608.5,-36 608.5,-36 602.5,-36 596.5,-30 596.5,-24 596.5,-24 596.5,-12 596.5,-12 596.5,-6 602.5,0 608.5,0 608.5,0 638.5,0 638.5,0 644.5,0 650.5,-6 650.5,-12 650.5,-12 650.5,-24 650.5,-24 650.5,-30 644.5,-36 638.5,-36"/>
<text text-anchor="middle" x="623.5" y="-14.3" font-family="Times,serif" font-size="14.00">Load</text>
</g>
<!-- ast.Name object at 0x7f8b701f4e80&#45;&gt;ast.Load object at 0x7f8b74db16c0 -->
<g id="edge10" class="edge">
<title>ast.Name object at 0x7f8b701f4e80&#45;&gt;ast.Load object at 0x7f8b74db16c0</title>
<path fill="none" stroke="black" d="M59.04,-74.69C61.86,-73.66 64.7,-72.74 67.5,-72 257.8,-21.81 495.84,-17.89 586.3,-18.42"/>
<polygon fill="black" stroke="black" points="586.31,-21.92 596.34,-18.5 586.37,-14.92 586.31,-21.92"/>
</g>
<!-- ast.Name object at 0x7f8b701f63b0&#45;&gt;ast.Load object at 0x7f8b74db16c0 -->
<g id="edge12" class="edge">
<title>ast.Name object at 0x7f8b701f63b0&#45;&gt;ast.Load object at 0x7f8b74db16c0</title>
<path fill="none" stroke="black" d="M136.05,-74.74C138.86,-73.69 141.71,-72.76 144.5,-72 304.83,-28.41 504.65,-20.56 586.22,-19.22"/>
<polygon fill="black" stroke="black" points="586.53,-22.72 596.48,-19.08 586.43,-15.72 586.53,-22.72"/>
</g>
<!-- ast.Constant object at 0x7f8b701f6080 -->
<g id="node15" class="node">
<title>ast.Constant object at 0x7f8b701f6080</title>
<path fill="#66cdaa" stroke="black" d="M223,-108C223,-108 166,-108 166,-108 160,-108 154,-102 154,-96 154,-96 154,-84 154,-84 154,-78 160,-72 166,-72 166,-72 223,-72 223,-72 229,-72 235,-78 235,-84 235,-84 235,-96 235,-96 235,-102 229,-108 223,-108"/>
<text text-anchor="middle" x="194.5" y="-86.3" font-family="Times,serif" font-size="14.00">Constant</text>
</g>
<!-- ast.BinOp object at 0x7f8b701f79d0&#45;&gt;ast.Constant object at 0x7f8b701f6080 -->
<g id="edge15" class="edge">
<title>ast.BinOp object at 0x7f8b701f79d0&#45;&gt;ast.Constant object at 0x7f8b701f6080</title>
<path fill="none" stroke="black" d="M259.24,-143.7C248.41,-134.88 235.08,-124.03 223.34,-114.47"/>
<polygon fill="black" stroke="black" points="225.48,-111.7 215.51,-108.1 221.06,-117.13 225.48,-111.7"/>
</g>
<!-- ast.Pow object at 0x7f8b74db1b40 -->
<g id="node16" class="node">
<title>ast.Pow object at 0x7f8b74db1b40</title>
<path fill="#66cdaa" stroke="black" d="M295.5,-108C295.5,-108 265.5,-108 265.5,-108 259.5,-108 253.5,-102 253.5,-96 253.5,-96 253.5,-84 253.5,-84 253.5,-78 259.5,-72 265.5,-72 265.5,-72 295.5,-72 295.5,-72 301.5,-72 307.5,-78 307.5,-84 307.5,-84 307.5,-96 307.5,-96 307.5,-102 301.5,-108 295.5,-108"/>
<text text-anchor="middle" x="280.5" y="-86.3" font-family="Times,serif" font-size="14.00">Pow</text>
</g>
<!-- ast.BinOp object at 0x7f8b701f79d0&#45;&gt;ast.Pow object at 0x7f8b74db1b40 -->
<g id="edge16" class="edge">
<title>ast.BinOp object at 0x7f8b701f79d0&#45;&gt;ast.Pow object at 0x7f8b74db1b40</title>
<path fill="none" stroke="black" d="M280.5,-143.7C280.5,-135.98 280.5,-126.71 280.5,-118.11"/>
<polygon fill="black" stroke="black" points="284,-118.1 280.5,-108.1 277,-118.1 284,-118.1"/>
</g>
<!-- ast.Constant object at 0x7f8b701f7100 -->
<g id="node17" class="node">
<title>ast.Constant object at 0x7f8b701f7100</title>
<path fill="#66cdaa" stroke="black" d="M395,-108C395,-108 338,-108 338,-108 332,-108 326,-102 326,-96 326,-96 326,-84 326,-84 326,-78 332,-72 338,-72 338,-72 395,-72 395,-72 401,-72 407,-78 407,-84 407,-84 407,-96 407,-96 407,-102 401,-108 395,-108"/>
<text text-anchor="middle" x="366.5" y="-86.3" font-family="Times,serif" font-size="14.00">Constant</text>
</g>
<!-- ast.BinOp object at 0x7f8b701f79d0&#45;&gt;ast.Constant object at 0x7f8b701f7100 -->
<g id="edge17" class="edge">
<title>ast.BinOp object at 0x7f8b701f79d0&#45;&gt;ast.Constant object at 0x7f8b701f7100</title>
<path fill="none" stroke="black" d="M301.76,-143.7C312.59,-134.88 325.92,-124.03 337.66,-114.47"/>
<polygon fill="black" stroke="black" points="339.94,-117.13 345.49,-108.1 335.52,-111.7 339.94,-117.13"/>
</g>
<!-- ast.List object at 0x7f8b701f53c0 -->
<g id="node19" class="node">
<title>ast.List object at 0x7f8b701f53c0</title>
<path fill="#66cdaa" stroke="black" d="M467.5,-108C467.5,-108 437.5,-108 437.5,-108 431.5,-108 425.5,-102 425.5,-96 425.5,-96 425.5,-84 425.5,-84 425.5,-78 431.5,-72 437.5,-72 437.5,-72 467.5,-72 467.5,-72 473.5,-72 479.5,-78 479.5,-84 479.5,-84 479.5,-96 479.5,-96 479.5,-102 473.5,-108 467.5,-108"/>
<text text-anchor="middle" x="452.5" y="-86.3" font-family="Times,serif" font-size="14.00">List</text>
</g>
<!-- ast.Return object at 0x7f8b701f6e90&#45;&gt;ast.List object at 0x7f8b701f53c0 -->
<g id="edge19" class="edge">
<title>ast.Return object at 0x7f8b701f6e90&#45;&gt;ast.List object at 0x7f8b701f53c0</title>
<path fill="none" stroke="black" d="M383.36,-215.99C384.91,-197.34 389.27,-167.02 401.5,-144 407.15,-133.36 415.57,-123.36 423.94,-114.98"/>
<polygon fill="black" stroke="black" points="426.38,-117.48 431.22,-108.05 421.56,-112.41 426.38,-117.48"/>
</g>
<!-- ast.List object at 0x7f8b701f53c0&#45;&gt;ast.Load object at 0x7f8b74db16c0 -->
<g id="edge20" class="edge">
<title>ast.List object at 0x7f8b701f53c0&#45;&gt;ast.Load object at 0x7f8b74db16c0</title>
<path fill="none" stroke="black" d="M479.84,-77.64C484.4,-75.75 489.08,-73.82 493.5,-72 524.98,-59.06 560.8,-44.46 586.86,-33.87"/>
<polygon fill="black" stroke="black" points="588.39,-37.02 596.34,-30.02 585.76,-30.54 588.39,-37.02"/>
</g>
<!-- ast.Name object at 0x7f8b701f6f80 -->
<g id="node21" class="node">
<title>ast.Name object at 0x7f8b701f6f80</title>
<path fill="#66cdaa" stroke="black" d="M525,-252C525,-252 490,-252 490,-252 484,-252 478,-246 478,-240 478,-240 478,-228 478,-228 478,-222 484,-216 490,-216 490,-216 525,-216 525,-216 531,-216 537,-222 537,-228 537,-228 537,-240 537,-240 537,-246 531,-252 525,-252"/>
<text text-anchor="middle" x="507.5" y="-230.3" font-family="Times,serif" font-size="14.00">Name</text>
</g>
<!-- ast.Assign object at 0x7f8b701f6980&#45;&gt;ast.Name object at 0x7f8b701f6f80 -->
<g id="edge22" class="edge">
<title>ast.Assign object at 0x7f8b701f6980&#45;&gt;ast.Name object at 0x7f8b701f6f80</title>
<path fill="none" stroke="black" d="M596.63,-287.88C581.21,-278.72 562.02,-267.34 545.4,-257.48"/>
<polygon fill="black" stroke="black" points="546.86,-254.28 536.48,-252.19 543.29,-260.3 546.86,-254.28"/>
</g>
<!-- ast.Call object at 0x7f8b701f5a20 -->
<g id="node23" class="node">
<title>ast.Call object at 0x7f8b701f5a20</title>
<path fill="#66cdaa" stroke="black" d="M640.5,-252C640.5,-252 610.5,-252 610.5,-252 604.5,-252 598.5,-246 598.5,-240 598.5,-240 598.5,-228 598.5,-228 598.5,-222 604.5,-216 610.5,-216 610.5,-216 640.5,-216 640.5,-216 646.5,-216 652.5,-222 652.5,-228 652.5,-228 652.5,-240 652.5,-240 652.5,-246 646.5,-252 640.5,-252"/>
<text text-anchor="middle" x="625.5" y="-230.3" font-family="Times,serif" font-size="14.00">Call</text>
</g>
<!-- ast.Assign object at 0x7f8b701f6980&#45;&gt;ast.Call object at 0x7f8b701f5a20 -->
<g id="edge24" class="edge">
<title>ast.Assign object at 0x7f8b701f6980&#45;&gt;ast.Call object at 0x7f8b701f5a20</title>
<path fill="none" stroke="black" d="M625.5,-287.7C625.5,-279.98 625.5,-270.71 625.5,-262.11"/>
<polygon fill="black" stroke="black" points="629,-262.1 625.5,-252.1 622,-262.1 629,-262.1"/>
</g>
<!-- ast.Store object at 0x7f8b74db1720 -->
<g id="node22" class="node">
<title>ast.Store object at 0x7f8b74db1720</title>
<path fill="#66cdaa" stroke="black" d="M454.5,-180C454.5,-180 422.5,-180 422.5,-180 416.5,-180 410.5,-174 410.5,-168 410.5,-168 410.5,-156 410.5,-156 410.5,-150 416.5,-144 422.5,-144 422.5,-144 454.5,-144 454.5,-144 460.5,-144 466.5,-150 466.5,-156 466.5,-156 466.5,-168 466.5,-168 466.5,-174 460.5,-180 454.5,-180"/>
<text text-anchor="middle" x="438.5" y="-158.3" font-family="Times,serif" font-size="14.00">Store</text>
</g>
<!-- ast.Name object at 0x7f8b701f6f80&#45;&gt;ast.Store object at 0x7f8b74db1720 -->
<g id="edge23" class="edge">
<title>ast.Name object at 0x7f8b701f6f80&#45;&gt;ast.Store object at 0x7f8b74db1720</title>
<path fill="none" stroke="black" d="M490.44,-215.7C482,-207.14 471.68,-196.66 462.46,-187.3"/>
<polygon fill="black" stroke="black" points="464.87,-184.77 455.36,-180.1 459.89,-189.68 464.87,-184.77"/>
</g>
<!-- ast.Attribute object at 0x7f8b701f5a50 -->
<g id="node24" class="node">
<title>ast.Attribute object at 0x7f8b701f5a50</title>
<path fill="#66cdaa" stroke="black" d="M554.5,-180C554.5,-180 496.5,-180 496.5,-180 490.5,-180 484.5,-174 484.5,-168 484.5,-168 484.5,-156 484.5,-156 484.5,-150 490.5,-144 496.5,-144 496.5,-144 554.5,-144 554.5,-144 560.5,-144 566.5,-150 566.5,-156 566.5,-156 566.5,-168 566.5,-168 566.5,-174 560.5,-180 554.5,-180"/>
<text text-anchor="middle" x="525.5" y="-158.3" font-family="Times,serif" font-size="14.00">Attribute</text>
</g>
<!-- ast.Call object at 0x7f8b701f5a20&#45;&gt;ast.Attribute object at 0x7f8b701f5a50 -->
<g id="edge25" class="edge">
<title>ast.Call object at 0x7f8b701f5a20&#45;&gt;ast.Attribute object at 0x7f8b701f5a50</title>
<path fill="none" stroke="black" d="M601.04,-215.88C588.2,-206.89 572.3,-195.76 558.41,-186.03"/>
<polygon fill="black" stroke="black" points="560.26,-183.06 550.06,-180.19 556.24,-188.79 560.26,-183.06"/>
</g>
<!-- ast.Constant object at 0x7f8b701f59c0 -->
<g id="node26" class="node">
<title>ast.Constant object at 0x7f8b701f59c0</title>
<path fill="#66cdaa" stroke="black" d="M654,-180C654,-180 597,-180 597,-180 591,-180 585,-174 585,-168 585,-168 585,-156 585,-156 585,-150 591,-144 597,-144 597,-144 654,-144 654,-144 660,-144 666,-150 666,-156 666,-156 666,-168 666,-168 666,-174 660,-180 654,-180"/>
<text text-anchor="middle" x="625.5" y="-158.3" font-family="Times,serif" font-size="14.00">Constant</text>
</g>
<!-- ast.Call object at 0x7f8b701f5a20&#45;&gt;ast.Constant object at 0x7f8b701f59c0 -->
<g id="edge29" class="edge">
<title>ast.Call object at 0x7f8b701f5a20&#45;&gt;ast.Constant object at 0x7f8b701f59c0</title>
<path fill="none" stroke="black" d="M625.5,-215.7C625.5,-207.98 625.5,-198.71 625.5,-190.11"/>
<polygon fill="black" stroke="black" points="629,-190.1 625.5,-180.1 622,-190.1 629,-190.1"/>
</g>
<!-- ast.Name object at 0x7f8b701f47f0 -->
<g id="node27" class="node">
<title>ast.Name object at 0x7f8b701f47f0</title>
<path fill="#66cdaa" stroke="black" d="M731,-180C731,-180 696,-180 696,-180 690,-180 684,-174 684,-168 684,-168 684,-156 684,-156 684,-150 690,-144 696,-144 696,-144 731,-144 731,-144 737,-144 743,-150 743,-156 743,-156 743,-168 743,-168 743,-174 737,-180 731,-180"/>
<text text-anchor="middle" x="713.5" y="-158.3" font-family="Times,serif" font-size="14.00">Name</text>
</g>
<!-- ast.Call object at 0x7f8b701f5a20&#45;&gt;ast.Name object at 0x7f8b701f47f0 -->
<g id="edge30" class="edge">
<title>ast.Call object at 0x7f8b701f5a20&#45;&gt;ast.Name object at 0x7f8b701f47f0</title>
<path fill="none" stroke="black" d="M647.25,-215.7C658.34,-206.88 671.97,-196.03 683.99,-186.47"/>
<polygon fill="black" stroke="black" points="686.35,-189.07 692,-180.1 681.99,-183.59 686.35,-189.07"/>
</g>
<!-- ast.Attribute object at 0x7f8b701f5a50&#45;&gt;ast.Load object at 0x7f8b74db16c0 -->
<g id="edge28" class="edge">
<title>ast.Attribute object at 0x7f8b701f5a50&#45;&gt;ast.Load object at 0x7f8b74db16c0</title>
<path fill="none" stroke="black" d="M521.14,-143.87C517.32,-124.85 514.21,-93.95 527.5,-72 540.44,-50.63 565.34,-37.24 586.53,-29.27"/>
<polygon fill="black" stroke="black" points="587.97,-32.47 596.26,-25.88 585.67,-25.86 587.97,-32.47"/>
</g>
<!-- ast.Name object at 0x7f8b701f5450 -->
<g id="node25" class="node">
<title>ast.Name object at 0x7f8b701f5450</title>
<path fill="#66cdaa" stroke="black" d="M583,-108C583,-108 548,-108 548,-108 542,-108 536,-102 536,-96 536,-96 536,-84 536,-84 536,-78 542,-72 548,-72 548,-72 583,-72 583,-72 589,-72 595,-78 595,-84 595,-84 595,-96 595,-96 595,-102 589,-108 583,-108"/>
<text text-anchor="middle" x="565.5" y="-86.3" font-family="Times,serif" font-size="14.00">Name</text>
</g>
<!-- ast.Attribute object at 0x7f8b701f5a50&#45;&gt;ast.Name object at 0x7f8b701f5450 -->
<g id="edge26" class="edge">
<title>ast.Attribute object at 0x7f8b701f5a50&#45;&gt;ast.Name object at 0x7f8b701f5450</title>
<path fill="none" stroke="black" d="M535.39,-143.7C539.99,-135.64 545.56,-125.89 550.65,-116.98"/>
<polygon fill="black" stroke="black" points="553.8,-118.52 555.73,-108.1 547.73,-115.05 553.8,-118.52"/>
</g>
<!-- ast.Name object at 0x7f8b701f5450&#45;&gt;ast.Load object at 0x7f8b74db16c0 -->
<g id="edge27" class="edge">
<title>ast.Name object at 0x7f8b701f5450&#45;&gt;ast.Load object at 0x7f8b74db16c0</title>
<path fill="none" stroke="black" d="M579.84,-71.7C586.79,-63.3 595.27,-53.07 602.9,-43.86"/>
<polygon fill="black" stroke="black" points="605.64,-46.04 609.33,-36.1 600.25,-41.57 605.64,-46.04"/>
</g>
<!-- ast.Name object at 0x7f8b701f47f0&#45;&gt;ast.Load object at 0x7f8b74db16c0 -->
<g id="edge31" class="edge">
<title>ast.Name object at 0x7f8b701f47f0&#45;&gt;ast.Load object at 0x7f8b74db16c0</title>
<path fill="none" stroke="black" d="M683.96,-145.27C669.67,-136.2 653.48,-123.51 643.5,-108 631.61,-89.52 626.73,-64.93 624.76,-46.27"/>
<polygon fill="black" stroke="black" points="628.23,-45.74 623.9,-36.07 621.25,-46.33 628.23,-45.74"/>
</g>
<!-- ast.Compare object at 0x7f8b701f6ad0 -->
<g id="node29" class="node">
<title>ast.Compare object at 0x7f8b701f6ad0</title>
<path fill="#66cdaa" stroke="black" d="M830,-180C830,-180 773,-180 773,-180 767,-180 761,-174 761,-168 761,-168 761,-156 761,-156 761,-150 767,-144 773,-144 773,-144 830,-144 830,-144 836,-144 842,-150 842,-156 842,-156 842,-168 842,-168 842,-174 836,-180 830,-180"/>
<text text-anchor="middle" x="801.5" y="-158.3" font-family="Times,serif" font-size="14.00">Compare</text>
</g>
<!-- ast.If object at 0x7f8b701f5c60&#45;&gt;ast.Compare object at 0x7f8b701f6ad0 -->
<g id="edge33" class="edge">
<title>ast.If object at 0x7f8b701f5c60&#45;&gt;ast.Compare object at 0x7f8b701f6ad0</title>
<path fill="none" stroke="black" d="M801.5,-215.7C801.5,-207.98 801.5,-198.71 801.5,-190.11"/>
<polygon fill="black" stroke="black" points="805,-190.1 801.5,-180.1 798,-190.1 805,-190.1"/>
</g>
<!-- ast.Return object at 0x7f8b701f7d60 -->
<g id="node33" class="node">
<title>ast.Return object at 0x7f8b701f7d60</title>
<path fill="#66cdaa" stroke="black" d="M933.5,-180C933.5,-180 891.5,-180 891.5,-180 885.5,-180 879.5,-174 879.5,-168 879.5,-168 879.5,-156 879.5,-156 879.5,-150 885.5,-144 891.5,-144 891.5,-144 933.5,-144 933.5,-144 939.5,-144 945.5,-150 945.5,-156 945.5,-156 945.5,-168 945.5,-168 945.5,-174 939.5,-180 933.5,-180"/>
<text text-anchor="middle" x="912.5" y="-158.3" font-family="Times,serif" font-size="14.00">Return</text>
</g>
<!-- ast.If object at 0x7f8b701f5c60&#45;&gt;ast.Return object at 0x7f8b701f7d60 -->
<g id="edge38" class="edge">
<title>ast.If object at 0x7f8b701f5c60&#45;&gt;ast.Return object at 0x7f8b701f7d60</title>
<path fill="none" stroke="black" d="M828.65,-215.88C843.03,-206.81 860.88,-195.55 876.41,-185.76"/>
<polygon fill="black" stroke="black" points="878.65,-188.48 885.24,-180.19 874.92,-182.56 878.65,-188.48"/>
</g>
<!-- ast.Name object at 0x7f8b701f7b20 -->
<g id="node30" class="node">
<title>ast.Name object at 0x7f8b701f7b20</title>
<path fill="#66cdaa" stroke="black" d="M699,-108C699,-108 664,-108 664,-108 658,-108 652,-102 652,-96 652,-96 652,-84 652,-84 652,-78 658,-72 664,-72 664,-72 699,-72 699,-72 705,-72 711,-78 711,-84 711,-84 711,-96 711,-96 711,-102 705,-108 699,-108"/>
<text text-anchor="middle" x="681.5" y="-86.3" font-family="Times,serif" font-size="14.00">Name</text>
</g>
<!-- ast.Compare object at 0x7f8b701f6ad0&#45;&gt;ast.Name object at 0x7f8b701f7b20 -->
<g id="edge34" class="edge">
<title>ast.Compare object at 0x7f8b701f6ad0&#45;&gt;ast.Name object at 0x7f8b701f7b20</title>
<path fill="none" stroke="black" d="M772.14,-143.88C756.45,-134.72 736.94,-123.34 720.05,-113.48"/>
<polygon fill="black" stroke="black" points="721.37,-110.21 710.97,-108.19 717.84,-116.25 721.37,-110.21"/>
</g>
<!-- ast.Is object at 0x7f8b74db2230 -->
<g id="node31" class="node">
<title>ast.Is object at 0x7f8b74db2230</title>
<path fill="#66cdaa" stroke="black" d="M771.5,-108C771.5,-108 741.5,-108 741.5,-108 735.5,-108 729.5,-102 729.5,-96 729.5,-96 729.5,-84 729.5,-84 729.5,-78 735.5,-72 741.5,-72 741.5,-72 771.5,-72 771.5,-72 777.5,-72 783.5,-78 783.5,-84 783.5,-84 783.5,-96 783.5,-96 783.5,-102 777.5,-108 771.5,-108"/>
<text text-anchor="middle" x="756.5" y="-86.3" font-family="Times,serif" font-size="14.00">Is</text>
</g>
<!-- ast.Compare object at 0x7f8b701f6ad0&#45;&gt;ast.Is object at 0x7f8b74db2230 -->
<g id="edge36" class="edge">
<title>ast.Compare object at 0x7f8b701f6ad0&#45;&gt;ast.Is object at 0x7f8b74db2230</title>
<path fill="none" stroke="black" d="M790.38,-143.7C785.14,-135.56 778.8,-125.69 773.02,-116.7"/>
<polygon fill="black" stroke="black" points="775.85,-114.62 767.5,-108.1 769.96,-118.41 775.85,-114.62"/>
</g>
<!-- ast.Constant object at 0x7f8b701f6aa0 -->
<g id="node32" class="node">
<title>ast.Constant object at 0x7f8b701f6aa0</title>
<path fill="#66cdaa" stroke="black" d="M871,-108C871,-108 814,-108 814,-108 808,-108 802,-102 802,-96 802,-96 802,-84 802,-84 802,-78 808,-72 814,-72 814,-72 871,-72 871,-72 877,-72 883,-78 883,-84 883,-84 883,-96 883,-96 883,-102 877,-108 871,-108"/>
<text text-anchor="middle" x="842.5" y="-86.3" font-family="Times,serif" font-size="14.00">Constant</text>
</g>
<!-- ast.Compare object at 0x7f8b701f6ad0&#45;&gt;ast.Constant object at 0x7f8b701f6aa0 -->
<g id="edge37" class="edge">
<title>ast.Compare object at 0x7f8b701f6ad0&#45;&gt;ast.Constant object at 0x7f8b701f6aa0</title>
<path fill="none" stroke="black" d="M811.63,-143.7C816.35,-135.64 822.06,-125.89 827.28,-116.98"/>
<polygon fill="black" stroke="black" points="830.45,-118.5 832.48,-108.1 824.41,-114.96 830.45,-118.5"/>
</g>
<!-- ast.Name object at 0x7f8b701f7b20&#45;&gt;ast.Load object at 0x7f8b74db16c0 -->
<g id="edge35" class="edge">
<title>ast.Name object at 0x7f8b701f7b20&#45;&gt;ast.Load object at 0x7f8b74db16c0</title>
<path fill="none" stroke="black" d="M667.16,-71.7C660.21,-63.3 651.73,-53.07 644.1,-43.86"/>
<polygon fill="black" stroke="black" points="646.75,-41.57 637.67,-36.1 641.36,-46.04 646.75,-41.57"/>
</g>
<!-- ast.List object at 0x7f8b701f5b40 -->
<g id="node34" class="node">
<title>ast.List object at 0x7f8b701f5b40</title>
<path fill="#66cdaa" stroke="black" d="M943.5,-108C943.5,-108 913.5,-108 913.5,-108 907.5,-108 901.5,-102 901.5,-96 901.5,-96 901.5,-84 901.5,-84 901.5,-78 907.5,-72 913.5,-72 913.5,-72 943.5,-72 943.5,-72 949.5,-72 955.5,-78 955.5,-84 955.5,-84 955.5,-96 955.5,-96 955.5,-102 949.5,-108 943.5,-108"/>
<text text-anchor="middle" x="928.5" y="-86.3" font-family="Times,serif" font-size="14.00">List</text>
</g>
<!-- ast.Return object at 0x7f8b701f7d60&#45;&gt;ast.List object at 0x7f8b701f5b40 -->
<g id="edge39" class="edge">
<title>ast.Return object at 0x7f8b701f7d60&#45;&gt;ast.List object at 0x7f8b701f5b40</title>
<path fill="none" stroke="black" d="M916.46,-143.7C918.22,-135.98 920.34,-126.71 922.3,-118.11"/>
<polygon fill="black" stroke="black" points="925.77,-118.63 924.59,-108.1 918.95,-117.07 925.77,-118.63"/>
</g>
<!-- ast.List object at 0x7f8b701f5b40&#45;&gt;ast.Load object at 0x7f8b74db16c0 -->
<g id="edge40" class="edge">
<title>ast.List object at 0x7f8b701f5b40&#45;&gt;ast.Load object at 0x7f8b74db16c0</title>
<path fill="none" stroke="black" d="M901.27,-75.29C898.35,-74.08 895.39,-72.95 892.5,-72 812.13,-45.56 713.68,-30.28 661,-23.42"/>
<polygon fill="black" stroke="black" points="661.15,-19.91 650.79,-22.12 660.27,-26.85 661.15,-19.91"/>
</g>
<!-- ast.Call object at 0x7f8b701f7910 -->
<g id="node36" class="node">
<title>ast.Call object at 0x7f8b701f7910</title>
<path fill="#66cdaa" stroke="black" d="M953.5,-396C953.5,-396 923.5,-396 923.5,-396 917.5,-396 911.5,-390 911.5,-384 911.5,-384 911.5,-372 911.5,-372 911.5,-366 917.5,-360 923.5,-360 923.5,-360 953.5,-360 953.5,-360 959.5,-360 965.5,-366 965.5,-372 965.5,-372 965.5,-384 965.5,-384 965.5,-390 959.5,-396 953.5,-396"/>
<text text-anchor="middle" x="938.5" y="-374.3" font-family="Times,serif" font-size="14.00">Call</text>
</g>
<!-- ast.Return object at 0x7f8b701f4280&#45;&gt;ast.Call object at 0x7f8b701f7910 -->
<g id="edge42" class="edge">
<title>ast.Return object at 0x7f8b701f4280&#45;&gt;ast.Call object at 0x7f8b701f7910</title>
<path fill="none" stroke="black" d="M904.62,-431.7C909.86,-423.56 916.2,-413.69 921.98,-404.7"/>
<polygon fill="black" stroke="black" points="925.04,-406.41 927.5,-396.1 919.15,-402.62 925.04,-406.41"/>
</g>
<!-- ast.Attribute object at 0x7f8b701f4df0 -->
<g id="node37" class="node">
<title>ast.Attribute object at 0x7f8b701f4df0</title>
<path fill="#66cdaa" stroke="black" d="M1012.5,-324C1012.5,-324 954.5,-324 954.5,-324 948.5,-324 942.5,-318 942.5,-312 942.5,-312 942.5,-300 942.5,-300 942.5,-294 948.5,-288 954.5,-288 954.5,-288 1012.5,-288 1012.5,-288 1018.5,-288 1024.5,-294 1024.5,-300 1024.5,-300 1024.5,-312 1024.5,-312 1024.5,-318 1018.5,-324 1012.5,-324"/>
<text text-anchor="middle" x="983.5" y="-302.3" font-family="Times,serif" font-size="14.00">Attribute</text>
</g>
<!-- ast.Call object at 0x7f8b701f7910&#45;&gt;ast.Attribute object at 0x7f8b701f4df0 -->
<g id="edge43" class="edge">
<title>ast.Call object at 0x7f8b701f7910&#45;&gt;ast.Attribute object at 0x7f8b701f4df0</title>
<path fill="none" stroke="black" d="M949.62,-359.7C954.86,-351.56 961.2,-341.69 966.98,-332.7"/>
<polygon fill="black" stroke="black" points="970.04,-334.41 972.5,-324.1 964.15,-330.62 970.04,-334.41"/>
</g>
<!-- ast.Attribute object at 0x7f8b701f4df0&#45;&gt;ast.Load object at 0x7f8b74db16c0 -->
<g id="edge50" class="edge">
<title>ast.Attribute object at 0x7f8b701f4df0&#45;&gt;ast.Load object at 0x7f8b74db16c0</title>
<path fill="none" stroke="black" d="M988.36,-287.89C999.36,-245.14 1021.01,-132.79 964.5,-72 923.95,-28.38 740.7,-20.55 660.86,-19.22"/>
<polygon fill="black" stroke="black" points="660.81,-15.72 650.76,-19.08 660.71,-22.72 660.81,-15.72"/>
</g>
<!-- ast.Call object at 0x7f8b701f4220 -->
<g id="node38" class="node">
<title>ast.Call object at 0x7f8b701f4220</title>
<path fill="#66cdaa" stroke="black" d="M1067.5,-252C1067.5,-252 1037.5,-252 1037.5,-252 1031.5,-252 1025.5,-246 1025.5,-240 1025.5,-240 1025.5,-228 1025.5,-228 1025.5,-222 1031.5,-216 1037.5,-216 1037.5,-216 1067.5,-216 1067.5,-216 1073.5,-216 1079.5,-222 1079.5,-228 1079.5,-228 1079.5,-240 1079.5,-240 1079.5,-246 1073.5,-252 1067.5,-252"/>
<text text-anchor="middle" x="1052.5" y="-230.3" font-family="Times,serif" font-size="14.00">Call</text>
</g>
<!-- ast.Attribute object at 0x7f8b701f4df0&#45;&gt;ast.Call object at 0x7f8b701f4220 -->
<g id="edge44" class="edge">
<title>ast.Attribute object at 0x7f8b701f4df0&#45;&gt;ast.Call object at 0x7f8b701f4220</title>
<path fill="none" stroke="black" d="M1000.56,-287.7C1009,-279.14 1019.32,-268.66 1028.54,-259.3"/>
<polygon fill="black" stroke="black" points="1031.11,-261.68 1035.64,-252.1 1026.13,-256.77 1031.11,-261.68"/>
</g>
<!-- ast.Attribute object at 0x7f8b701f40d0 -->
<g id="node39" class="node">
<title>ast.Attribute object at 0x7f8b701f40d0</title>
<path fill="#66cdaa" stroke="black" d="M1081.5,-180C1081.5,-180 1023.5,-180 1023.5,-180 1017.5,-180 1011.5,-174 1011.5,-168 1011.5,-168 1011.5,-156 1011.5,-156 1011.5,-150 1017.5,-144 1023.5,-144 1023.5,-144 1081.5,-144 1081.5,-144 1087.5,-144 1093.5,-150 1093.5,-156 1093.5,-156 1093.5,-168 1093.5,-168 1093.5,-174 1087.5,-180 1081.5,-180"/>
<text text-anchor="middle" x="1052.5" y="-158.3" font-family="Times,serif" font-size="14.00">Attribute</text>
</g>
<!-- ast.Call object at 0x7f8b701f4220&#45;&gt;ast.Attribute object at 0x7f8b701f40d0 -->
<g id="edge45" class="edge">
<title>ast.Call object at 0x7f8b701f4220&#45;&gt;ast.Attribute object at 0x7f8b701f40d0</title>
<path fill="none" stroke="black" d="M1052.5,-215.7C1052.5,-207.98 1052.5,-198.71 1052.5,-190.11"/>
<polygon fill="black" stroke="black" points="1056,-190.1 1052.5,-180.1 1049,-190.1 1056,-190.1"/>
</g>
<!-- ast.Constant object at 0x7f8b701f42b0 -->
<g id="node41" class="node">
<title>ast.Constant object at 0x7f8b701f42b0</title>
<path fill="#66cdaa" stroke="black" d="M1181,-180C1181,-180 1124,-180 1124,-180 1118,-180 1112,-174 1112,-168 1112,-168 1112,-156 1112,-156 1112,-150 1118,-144 1124,-144 1124,-144 1181,-144 1181,-144 1187,-144 1193,-150 1193,-156 1193,-156 1193,-168 1193,-168 1193,-174 1187,-180 1181,-180"/>
<text text-anchor="middle" x="1152.5" y="-158.3" font-family="Times,serif" font-size="14.00">Constant</text>
</g>
<!-- ast.Call object at 0x7f8b701f4220&#45;&gt;ast.Constant object at 0x7f8b701f42b0 -->
<g id="edge49" class="edge">
<title>ast.Call object at 0x7f8b701f4220&#45;&gt;ast.Constant object at 0x7f8b701f42b0</title>
<path fill="none" stroke="black" d="M1076.96,-215.88C1089.8,-206.89 1105.7,-195.76 1119.59,-186.03"/>
<polygon fill="black" stroke="black" points="1121.76,-188.79 1127.94,-180.19 1117.74,-183.06 1121.76,-188.79"/>
</g>
<!-- ast.Attribute object at 0x7f8b701f40d0&#45;&gt;ast.Load object at 0x7f8b74db16c0 -->
<g id="edge48" class="edge">
<title>ast.Attribute object at 0x7f8b701f40d0&#45;&gt;ast.Load object at 0x7f8b74db16c0</title>
<path fill="none" stroke="black" d="M1046.93,-143.7C1039.3,-123 1023.5,-89 997.5,-72 942.43,-36 743.9,-23.87 660.65,-20.31"/>
<polygon fill="black" stroke="black" points="660.75,-16.81 650.62,-19.9 660.46,-23.81 660.75,-16.81"/>
</g>
<!-- ast.Name object at 0x7f8b701f5120 -->
<g id="node40" class="node">
<title>ast.Name object at 0x7f8b701f5120</title>
<path fill="#66cdaa" stroke="black" d="M1097,-108C1097,-108 1062,-108 1062,-108 1056,-108 1050,-102 1050,-96 1050,-96 1050,-84 1050,-84 1050,-78 1056,-72 1062,-72 1062,-72 1097,-72 1097,-72 1103,-72 1109,-78 1109,-84 1109,-84 1109,-96 1109,-96 1109,-102 1103,-108 1097,-108"/>
<text text-anchor="middle" x="1079.5" y="-86.3" font-family="Times,serif" font-size="14.00">Name</text>
</g>
<!-- ast.Attribute object at 0x7f8b701f40d0&#45;&gt;ast.Name object at 0x7f8b701f5120 -->
<g id="edge46" class="edge">
<title>ast.Attribute object at 0x7f8b701f40d0&#45;&gt;ast.Name object at 0x7f8b701f5120</title>
<path fill="none" stroke="black" d="M1059.17,-143.7C1062.21,-135.81 1065.88,-126.3 1069.26,-117.55"/>
<polygon fill="black" stroke="black" points="1072.57,-118.69 1072.9,-108.1 1066.04,-116.17 1072.57,-118.69"/>
</g>
<!-- ast.Name object at 0x7f8b701f5120&#45;&gt;ast.Load object at 0x7f8b74db16c0 -->
<g id="edge47" class="edge">
<title>ast.Name object at 0x7f8b701f5120&#45;&gt;ast.Load object at 0x7f8b74db16c0</title>
<path fill="none" stroke="black" d="M1049.99,-76.49C1045.21,-74.78 1040.26,-73.21 1035.5,-72 900.24,-37.71 734.09,-24.98 661.01,-20.8"/>
<polygon fill="black" stroke="black" points="661.1,-17.3 650.92,-20.25 660.71,-24.29 661.1,-17.3"/>
</g>
</g>
</svg>
