<?xml version="1.0" encoding="UTF-8" standalone="no"?>
<!DOCTYPE svg PUBLIC "-//W3C//DTD SVG 1.1//EN"
 "http://www.w3.org/Graphics/SVG/1.1/DTD/svg11.dtd">
<!-- Generated by graphviz version 2.43.0 (0)
 -->
<!-- Title: %3 Pages: 1 -->
<svg width="2002pt" height="548pt"
 viewBox="0.00 0.00 2002.00 548.00" xmlns="http://www.w3.org/2000/svg" xmlns:xlink="http://www.w3.org/1999/xlink">
<g id="graph0" class="graph" transform="scale(1 1) rotate(0) translate(4 544)">
<title>%3</title>
<polygon fill="white" stroke="transparent" points="-4,4 -4,-544 1998,-544 1998,4 -4,4"/>
<!-- ast.Module object at 0x7f5f77cd9d80 -->
<g id="node1" class="node">
<title>ast.Module object at 0x7f5f77cd9d80</title>
<path fill="#66cdaa" stroke="black" d="M1340,-540C1340,-540 1305,-540 1305,-540 1299,-540 1293,-534 1293,-528 1293,-528 1293,-516 1293,-516 1293,-510 1299,-504 1305,-504 1305,-504 1340,-504 1340,-504 1346,-504 1352,-510 1352,-516 1352,-516 1352,-528 1352,-528 1352,-534 1346,-540 1340,-540"/>
<text text-anchor="middle" x="1322.5" y="-518.3" font-family="Times,serif" font-size="14.00">Module</text>
</g>
<!-- ast.FunctionDef object at 0x7f5f77cdb520 -->
<g id="node2" class="node">
<title>ast.FunctionDef object at 0x7f5f77cdb520</title>
<path fill="#66cdaa" stroke="black" d="M273,-324C273,-324 212,-324 212,-324 206,-324 200,-318 200,-312 200,-312 200,-300 200,-300 200,-294 206,-288 212,-288 212,-288 273,-288 273,-288 279,-288 285,-294 285,-300 285,-300 285,-312 285,-312 285,-318 279,-324 273,-324"/>
<text text-anchor="middle" x="242.5" y="-302.3" font-family="Times,serif" font-size="14.00">FunctionDef</text>
</g>
<!-- ast.Module object at 0x7f5f77cd9d80&#45;&gt;ast.FunctionDef object at 0x7f5f77cdb520 -->
<g id="edge1" class="edge">
<title>ast.Module object at 0x7f5f77cd9d80&#45;&gt;ast.FunctionDef object at 0x7f5f77cdb520</title>
<path fill="none" stroke="black" d="M1292.77,-515.11C1144.74,-485.78 486.64,-355.38 295.02,-317.41"/>
<polygon fill="black" stroke="black" points="295.67,-313.97 285.18,-315.46 294.31,-320.83 295.67,-313.97"/>
</g>
<!-- ast.FunctionDef object at 0x7f5f77cdbac0 -->
<g id="node13" class="node">
<title>ast.FunctionDef object at 0x7f5f77cdbac0</title>
<path fill="#66cdaa" stroke="black" d="M1353,-468C1353,-468 1292,-468 1292,-468 1286,-468 1280,-462 1280,-456 1280,-456 1280,-444 1280,-444 1280,-438 1286,-432 1292,-432 1292,-432 1353,-432 1353,-432 1359,-432 1365,-438 1365,-444 1365,-444 1365,-456 1365,-456 1365,-462 1359,-468 1353,-468"/>
<text text-anchor="middle" x="1322.5" y="-446.3" font-family="Times,serif" font-size="14.00">FunctionDef</text>
</g>
<!-- ast.Module object at 0x7f5f77cd9d80&#45;&gt;ast.FunctionDef object at 0x7f5f77cdbac0 -->
<g id="edge13" class="edge">
<title>ast.Module object at 0x7f5f77cd9d80&#45;&gt;ast.FunctionDef object at 0x7f5f77cdbac0</title>
<path fill="none" stroke="black" d="M1322.5,-503.7C1322.5,-495.98 1322.5,-486.71 1322.5,-478.11"/>
<polygon fill="black" stroke="black" points="1326,-478.1 1322.5,-468.1 1319,-478.1 1326,-478.1"/>
</g>
<!-- ast.FunctionDef object at 0x7f5f658438b0 -->
<g id="node55" class="node">
<title>ast.FunctionDef object at 0x7f5f658438b0</title>
<path fill="#66cdaa" stroke="black" d="M1766,-468C1766,-468 1705,-468 1705,-468 1699,-468 1693,-462 1693,-456 1693,-456 1693,-444 1693,-444 1693,-438 1699,-432 1705,-432 1705,-432 1766,-432 1766,-432 1772,-432 1778,-438 1778,-444 1778,-444 1778,-456 1778,-456 1778,-462 1772,-468 1766,-468"/>
<text text-anchor="middle" x="1735.5" y="-446.3" font-family="Times,serif" font-size="14.00">FunctionDef</text>
</g>
<!-- ast.Module object at 0x7f5f77cd9d80&#45;&gt;ast.FunctionDef object at 0x7f5f658438b0 -->
<g id="edge77" class="edge">
<title>ast.Module object at 0x7f5f77cd9d80&#45;&gt;ast.FunctionDef object at 0x7f5f658438b0</title>
<path fill="none" stroke="black" d="M1352.2,-515.97C1421.59,-504.21 1595.07,-474.8 1682.86,-459.92"/>
<polygon fill="black" stroke="black" points="1683.59,-463.35 1692.87,-458.23 1682.43,-456.45 1683.59,-463.35"/>
</g>
<!-- ast.arguments object at 0x7f5f77cd8bb0 -->
<g id="node3" class="node">
<title>ast.arguments object at 0x7f5f77cd8bb0</title>
<path fill="#66cdaa" stroke="black" d="M185.5,-252C185.5,-252 135.5,-252 135.5,-252 129.5,-252 123.5,-246 123.5,-240 123.5,-240 123.5,-228 123.5,-228 123.5,-222 129.5,-216 135.5,-216 135.5,-216 185.5,-216 185.5,-216 191.5,-216 197.5,-222 197.5,-228 197.5,-228 197.5,-240 197.5,-240 197.5,-246 191.5,-252 185.5,-252"/>
<text text-anchor="middle" x="160.5" y="-230.3" font-family="Times,serif" font-size="14.00">arguments</text>
</g>
<!-- ast.FunctionDef object at 0x7f5f77cdb520&#45;&gt;ast.arguments object at 0x7f5f77cd8bb0 -->
<g id="edge2" class="edge">
<title>ast.FunctionDef object at 0x7f5f77cdb520&#45;&gt;ast.arguments object at 0x7f5f77cd8bb0</title>
<path fill="none" stroke="black" d="M222.23,-287.7C212,-278.97 199.44,-268.24 188.32,-258.75"/>
<polygon fill="black" stroke="black" points="190.41,-255.94 180.54,-252.1 185.87,-261.26 190.41,-255.94"/>
</g>
<!-- ast.Return object at 0x7f5f77cd93f0 -->
<g id="node5" class="node">
<title>ast.Return object at 0x7f5f77cd93f0</title>
<path fill="#66cdaa" stroke="black" d="M257.5,-252C257.5,-252 227.5,-252 227.5,-252 221.5,-252 215.5,-246 215.5,-240 215.5,-240 215.5,-228 215.5,-228 215.5,-222 221.5,-216 227.5,-216 227.5,-216 257.5,-216 257.5,-216 263.5,-216 269.5,-222 269.5,-228 269.5,-228 269.5,-240 269.5,-240 269.5,-246 263.5,-252 257.5,-252"/>
<text text-anchor="middle" x="242.5" y="-230.3" font-family="Times,serif" font-size="14.00">Return</text>
</g>
<!-- ast.FunctionDef object at 0x7f5f77cdb520&#45;&gt;ast.Return object at 0x7f5f77cd93f0 -->
<g id="edge4" class="edge">
<title>ast.FunctionDef object at 0x7f5f77cdb520&#45;&gt;ast.Return object at 0x7f5f77cd93f0</title>
<path fill="none" stroke="black" d="M242.5,-287.7C242.5,-279.98 242.5,-270.71 242.5,-262.11"/>
<polygon fill="black" stroke="black" points="246,-262.1 242.5,-252.1 239,-262.1 246,-262.1"/>
</g>
<!-- ast.arg object at 0x7f5f77cd9960 -->
<g id="node4" class="node">
<title>ast.arg object at 0x7f5f77cd9960</title>
<path fill="#66cdaa" stroke="black" d="M175.5,-180C175.5,-180 145.5,-180 145.5,-180 139.5,-180 133.5,-174 133.5,-168 133.5,-168 133.5,-156 133.5,-156 133.5,-150 139.5,-144 145.5,-144 145.5,-144 175.5,-144 175.5,-144 181.5,-144 187.5,-150 187.5,-156 187.5,-156 187.5,-168 187.5,-168 187.5,-174 181.5,-180 175.5,-180"/>
<text text-anchor="middle" x="160.5" y="-158.3" font-family="Times,serif" font-size="14.00">arg</text>
</g>
<!-- ast.arguments object at 0x7f5f77cd8bb0&#45;&gt;ast.arg object at 0x7f5f77cd9960 -->
<g id="edge3" class="edge">
<title>ast.arguments object at 0x7f5f77cd8bb0&#45;&gt;ast.arg object at 0x7f5f77cd9960</title>
<path fill="none" stroke="black" d="M160.5,-215.7C160.5,-207.98 160.5,-198.71 160.5,-190.11"/>
<polygon fill="black" stroke="black" points="164,-190.1 160.5,-180.1 157,-190.1 164,-190.1"/>
</g>
<!-- ast.Call object at 0x7f5f77cd97b0 -->
<g id="node6" class="node">
<title>ast.Call object at 0x7f5f77cd97b0</title>
<path fill="#66cdaa" stroke="black" d="M252.5,-180C252.5,-180 222.5,-180 222.5,-180 216.5,-180 210.5,-174 210.5,-168 210.5,-168 210.5,-156 210.5,-156 210.5,-150 216.5,-144 222.5,-144 222.5,-144 252.5,-144 252.5,-144 258.5,-144 264.5,-150 264.5,-156 264.5,-156 264.5,-168 264.5,-168 264.5,-174 258.5,-180 252.5,-180"/>
<text text-anchor="middle" x="237.5" y="-158.3" font-family="Times,serif" font-size="14.00">Call</text>
</g>
<!-- ast.Return object at 0x7f5f77cd93f0&#45;&gt;ast.Call object at 0x7f5f77cd97b0 -->
<g id="edge5" class="edge">
<title>ast.Return object at 0x7f5f77cd93f0&#45;&gt;ast.Call object at 0x7f5f77cd97b0</title>
<path fill="none" stroke="black" d="M241.26,-215.7C240.71,-207.98 240.05,-198.71 239.44,-190.11"/>
<polygon fill="black" stroke="black" points="242.93,-189.83 238.72,-180.1 235.94,-190.33 242.93,-189.83"/>
</g>
<!-- ast.Name object at 0x7f5f77cd8d00 -->
<g id="node7" class="node">
<title>ast.Name object at 0x7f5f77cd8d00</title>
<path fill="#66cdaa" stroke="black" d="M291.5,-108C291.5,-108 261.5,-108 261.5,-108 255.5,-108 249.5,-102 249.5,-96 249.5,-96 249.5,-84 249.5,-84 249.5,-78 255.5,-72 261.5,-72 261.5,-72 291.5,-72 291.5,-72 297.5,-72 303.5,-78 303.5,-84 303.5,-84 303.5,-96 303.5,-96 303.5,-102 297.5,-108 291.5,-108"/>
<text text-anchor="middle" x="276.5" y="-86.3" font-family="Times,serif" font-size="14.00">Name</text>
</g>
<!-- ast.Call object at 0x7f5f77cd97b0&#45;&gt;ast.Name object at 0x7f5f77cd8d00 -->
<g id="edge6" class="edge">
<title>ast.Call object at 0x7f5f77cd97b0&#45;&gt;ast.Name object at 0x7f5f77cd8d00</title>
<path fill="none" stroke="black" d="M247.14,-143.7C251.63,-135.64 257.06,-125.89 262.02,-116.98"/>
<polygon fill="black" stroke="black" points="265.16,-118.54 266.97,-108.1 259.05,-115.14 265.16,-118.54"/>
</g>
<!-- ast.Name object at 0x7f5f77cd8a90 -->
<g id="node9" class="node">
<title>ast.Name object at 0x7f5f77cd8a90</title>
<path fill="#66cdaa" stroke="black" d="M363.5,-108C363.5,-108 333.5,-108 333.5,-108 327.5,-108 321.5,-102 321.5,-96 321.5,-96 321.5,-84 321.5,-84 321.5,-78 327.5,-72 333.5,-72 333.5,-72 363.5,-72 363.5,-72 369.5,-72 375.5,-78 375.5,-84 375.5,-84 375.5,-96 375.5,-96 375.5,-102 369.5,-108 363.5,-108"/>
<text text-anchor="middle" x="348.5" y="-86.3" font-family="Times,serif" font-size="14.00">Name</text>
</g>
<!-- ast.Call object at 0x7f5f77cd97b0&#45;&gt;ast.Name object at 0x7f5f77cd8a90 -->
<g id="edge8" class="edge">
<title>ast.Call object at 0x7f5f77cd97b0&#45;&gt;ast.Name object at 0x7f5f77cd8a90</title>
<path fill="none" stroke="black" d="M264.65,-143.88C279.03,-134.81 296.88,-123.55 312.41,-113.76"/>
<polygon fill="black" stroke="black" points="314.65,-116.48 321.24,-108.19 310.92,-110.56 314.65,-116.48"/>
</g>
<!-- ast.Constant object at 0x7f5f77cdb4c0 -->
<g id="node10" class="node">
<title>ast.Constant object at 0x7f5f77cdb4c0</title>
<path fill="#66cdaa" stroke="black" d="M53,-108C53,-108 12,-108 12,-108 6,-108 0,-102 0,-96 0,-96 0,-84 0,-84 0,-78 6,-72 12,-72 12,-72 53,-72 53,-72 59,-72 65,-78 65,-84 65,-84 65,-96 65,-96 65,-102 59,-108 53,-108"/>
<text text-anchor="middle" x="32.5" y="-86.3" font-family="Times,serif" font-size="14.00">Constant</text>
</g>
<!-- ast.Call object at 0x7f5f77cd97b0&#45;&gt;ast.Constant object at 0x7f5f77cdb4c0 -->
<g id="edge10" class="edge">
<title>ast.Call object at 0x7f5f77cd97b0&#45;&gt;ast.Constant object at 0x7f5f77cdb4c0</title>
<path fill="none" stroke="black" d="M210.31,-149.24C205.73,-147.4 201.01,-145.59 196.5,-144 145.61,-126.06 128.97,-126.8 74.51,-108.17"/>
<polygon fill="black" stroke="black" points="75.65,-104.86 65.05,-104.87 73.34,-111.47 75.65,-104.86"/>
</g>
<!-- ast.Constant object at 0x7f5f77cd89a0 -->
<g id="node11" class="node">
<title>ast.Constant object at 0x7f5f77cd89a0</title>
<path fill="#66cdaa" stroke="black" d="M136,-108C136,-108 95,-108 95,-108 89,-108 83,-102 83,-96 83,-96 83,-84 83,-84 83,-78 89,-72 95,-72 95,-72 136,-72 136,-72 142,-72 148,-78 148,-84 148,-84 148,-96 148,-96 148,-102 142,-108 136,-108"/>
<text text-anchor="middle" x="115.5" y="-86.3" font-family="Times,serif" font-size="14.00">Constant</text>
</g>
<!-- ast.Call object at 0x7f5f77cd97b0&#45;&gt;ast.Constant object at 0x7f5f77cd89a0 -->
<g id="edge11" class="edge">
<title>ast.Call object at 0x7f5f77cd97b0&#45;&gt;ast.Constant object at 0x7f5f77cd89a0</title>
<path fill="none" stroke="black" d="M210.42,-145.46C193.89,-135.98 172.49,-123.7 154.19,-113.2"/>
<polygon fill="black" stroke="black" points="155.91,-110.15 145.5,-108.21 152.43,-116.22 155.91,-110.15"/>
</g>
<!-- ast.Constant object at 0x7f5f77cd8c40 -->
<g id="node12" class="node">
<title>ast.Constant object at 0x7f5f77cd8c40</title>
<path fill="#66cdaa" stroke="black" d="M219,-108C219,-108 178,-108 178,-108 172,-108 166,-102 166,-96 166,-96 166,-84 166,-84 166,-78 172,-72 178,-72 178,-72 219,-72 219,-72 225,-72 231,-78 231,-84 231,-84 231,-96 231,-96 231,-102 225,-108 219,-108"/>
<text text-anchor="middle" x="198.5" y="-86.3" font-family="Times,serif" font-size="14.00">Constant</text>
</g>
<!-- ast.Call object at 0x7f5f77cd97b0&#45;&gt;ast.Constant object at 0x7f5f77cd8c40 -->
<g id="edge12" class="edge">
<title>ast.Call object at 0x7f5f77cd97b0&#45;&gt;ast.Constant object at 0x7f5f77cd8c40</title>
<path fill="none" stroke="black" d="M227.86,-143.7C223.37,-135.64 217.94,-125.89 212.98,-116.98"/>
<polygon fill="black" stroke="black" points="215.95,-115.14 208.03,-108.1 209.84,-118.54 215.95,-115.14"/>
</g>
<!-- ast.Load object at 0x7f5faeaf1f60 -->
<g id="node8" class="node">
<title>ast.Load object at 0x7f5faeaf1f60</title>
<path fill="#66cdaa" stroke="black" d="M1163.5,-36C1163.5,-36 1133.5,-36 1133.5,-36 1127.5,-36 1121.5,-30 1121.5,-24 1121.5,-24 1121.5,-12 1121.5,-12 1121.5,-6 1127.5,0 1133.5,0 1133.5,0 1163.5,0 1163.5,0 1169.5,0 1175.5,-6 1175.5,-12 1175.5,-12 1175.5,-24 1175.5,-24 1175.5,-30 1169.5,-36 1163.5,-36"/>
<text text-anchor="middle" x="1148.5" y="-14.3" font-family="Times,serif" font-size="14.00">Load</text>
</g>
<!-- ast.Name object at 0x7f5f77cd8d00&#45;&gt;ast.Load object at 0x7f5faeaf1f60 -->
<g id="edge7" class="edge">
<title>ast.Name object at 0x7f5f77cd8d00&#45;&gt;ast.Load object at 0x7f5faeaf1f60</title>
<path fill="none" stroke="black" d="M303.62,-74.9C306.56,-73.76 309.56,-72.76 312.5,-72 466.74,-32.25 969.08,-21.72 1110.91,-19.51"/>
<polygon fill="black" stroke="black" points="1111.3,-23 1121.24,-19.35 1111.19,-16 1111.3,-23"/>
</g>
<!-- ast.Name object at 0x7f5f77cd8a90&#45;&gt;ast.Load object at 0x7f5faeaf1f60 -->
<g id="edge9" class="edge">
<title>ast.Name object at 0x7f5f77cd8a90&#45;&gt;ast.Load object at 0x7f5faeaf1f60</title>
<path fill="none" stroke="black" d="M375.89,-76.23C380.36,-74.56 385,-73.06 389.5,-72 529.23,-39.08 978.86,-23.85 1111.4,-20.01"/>
<polygon fill="black" stroke="black" points="1111.56,-23.5 1121.46,-19.72 1111.36,-16.51 1111.56,-23.5"/>
</g>
<!-- ast.arguments object at 0x7f5f77cdbf40 -->
<g id="node14" class="node">
<title>ast.arguments object at 0x7f5f77cdbf40</title>
<path fill="#66cdaa" stroke="black" d="M1472.5,-396C1472.5,-396 1422.5,-396 1422.5,-396 1416.5,-396 1410.5,-390 1410.5,-384 1410.5,-384 1410.5,-372 1410.5,-372 1410.5,-366 1416.5,-360 1422.5,-360 1422.5,-360 1472.5,-360 1472.5,-360 1478.5,-360 1484.5,-366 1484.5,-372 1484.5,-372 1484.5,-384 1484.5,-384 1484.5,-390 1478.5,-396 1472.5,-396"/>
<text text-anchor="middle" x="1447.5" y="-374.3" font-family="Times,serif" font-size="14.00">arguments</text>
</g>
<!-- ast.FunctionDef object at 0x7f5f77cdbac0&#45;&gt;ast.arguments object at 0x7f5f77cdbf40 -->
<g id="edge14" class="edge">
<title>ast.FunctionDef object at 0x7f5f77cdbac0&#45;&gt;ast.arguments object at 0x7f5f77cdbf40</title>
<path fill="none" stroke="black" d="M1353.08,-431.88C1369.57,-422.64 1390.12,-411.13 1407.84,-401.21"/>
<polygon fill="black" stroke="black" points="1409.79,-404.13 1416.8,-396.19 1406.37,-398.02 1409.79,-404.13"/>
</g>
<!-- ast.Assign object at 0x7f5f77cdb310 -->
<g id="node17" class="node">
<title>ast.Assign object at 0x7f5f77cdb310</title>
<path fill="#66cdaa" stroke="black" d="M1337.5,-396C1337.5,-396 1307.5,-396 1307.5,-396 1301.5,-396 1295.5,-390 1295.5,-384 1295.5,-384 1295.5,-372 1295.5,-372 1295.5,-366 1301.5,-360 1307.5,-360 1307.5,-360 1337.5,-360 1337.5,-360 1343.5,-360 1349.5,-366 1349.5,-372 1349.5,-372 1349.5,-384 1349.5,-384 1349.5,-390 1343.5,-396 1337.5,-396"/>
<text text-anchor="middle" x="1322.5" y="-374.3" font-family="Times,serif" font-size="14.00">Assign</text>
</g>
<!-- ast.FunctionDef object at 0x7f5f77cdbac0&#45;&gt;ast.Assign object at 0x7f5f77cdb310 -->
<g id="edge17" class="edge">
<title>ast.FunctionDef object at 0x7f5f77cdbac0&#45;&gt;ast.Assign object at 0x7f5f77cdb310</title>
<path fill="none" stroke="black" d="M1322.5,-431.7C1322.5,-423.98 1322.5,-414.71 1322.5,-406.11"/>
<polygon fill="black" stroke="black" points="1326,-406.1 1322.5,-396.1 1319,-406.1 1326,-406.1"/>
</g>
<!-- ast.Assign object at 0x7f5f77cdb880 -->
<g id="node27" class="node">
<title>ast.Assign object at 0x7f5f77cdb880</title>
<path fill="#66cdaa" stroke="black" d="M1080.5,-324C1080.5,-324 1050.5,-324 1050.5,-324 1044.5,-324 1038.5,-318 1038.5,-312 1038.5,-312 1038.5,-300 1038.5,-300 1038.5,-294 1044.5,-288 1050.5,-288 1050.5,-288 1080.5,-288 1080.5,-288 1086.5,-288 1092.5,-294 1092.5,-300 1092.5,-300 1092.5,-312 1092.5,-312 1092.5,-318 1086.5,-324 1080.5,-324"/>
<text text-anchor="middle" x="1065.5" y="-302.3" font-family="Times,serif" font-size="14.00">Assign</text>
</g>
<!-- ast.FunctionDef object at 0x7f5f77cdbac0&#45;&gt;ast.Assign object at 0x7f5f77cdb880 -->
<g id="edge32" class="edge">
<title>ast.FunctionDef object at 0x7f5f77cdbac0&#45;&gt;ast.Assign object at 0x7f5f77cdb880</title>
<path fill="none" stroke="black" d="M1279.78,-434.56C1253.61,-425.02 1219.82,-411.46 1191.5,-396 1156.23,-376.75 1119.02,-349.49 1094.26,-330.22"/>
<polygon fill="black" stroke="black" points="1096.39,-327.44 1086.36,-324.02 1092.07,-332.95 1096.39,-327.44"/>
</g>
<!-- ast.For object at 0x7f5f77cda2f0 -->
<g id="node37" class="node">
<title>ast.For object at 0x7f5f77cda2f0</title>
<path fill="#66cdaa" stroke="black" d="M1242.5,-396C1242.5,-396 1212.5,-396 1212.5,-396 1206.5,-396 1200.5,-390 1200.5,-384 1200.5,-384 1200.5,-372 1200.5,-372 1200.5,-366 1206.5,-360 1212.5,-360 1212.5,-360 1242.5,-360 1242.5,-360 1248.5,-360 1254.5,-366 1254.5,-372 1254.5,-372 1254.5,-384 1254.5,-384 1254.5,-390 1248.5,-396 1242.5,-396"/>
<text text-anchor="middle" x="1227.5" y="-374.3" font-family="Times,serif" font-size="14.00">For</text>
</g>
<!-- ast.FunctionDef object at 0x7f5f77cdbac0&#45;&gt;ast.For object at 0x7f5f77cda2f0 -->
<g id="edge48" class="edge">
<title>ast.FunctionDef object at 0x7f5f77cdbac0&#45;&gt;ast.For object at 0x7f5f77cda2f0</title>
<path fill="none" stroke="black" d="M1299.02,-431.7C1286.94,-422.8 1272.05,-411.82 1258.98,-402.2"/>
<polygon fill="black" stroke="black" points="1260.84,-399.22 1250.71,-396.1 1256.69,-404.85 1260.84,-399.22"/>
</g>
<!-- ast.Return object at 0x7f5f65843c70 -->
<g id="node53" class="node">
<title>ast.Return object at 0x7f5f65843c70</title>
<path fill="#66cdaa" stroke="black" d="M1575.5,-396C1575.5,-396 1545.5,-396 1545.5,-396 1539.5,-396 1533.5,-390 1533.5,-384 1533.5,-384 1533.5,-372 1533.5,-372 1533.5,-366 1539.5,-360 1545.5,-360 1545.5,-360 1575.5,-360 1575.5,-360 1581.5,-360 1587.5,-366 1587.5,-372 1587.5,-372 1587.5,-384 1587.5,-384 1587.5,-390 1581.5,-396 1575.5,-396"/>
<text text-anchor="middle" x="1560.5" y="-374.3" font-family="Times,serif" font-size="14.00">Return</text>
</g>
<!-- ast.FunctionDef object at 0x7f5f77cdbac0&#45;&gt;ast.Return object at 0x7f5f65843c70 -->
<g id="edge74" class="edge">
<title>ast.FunctionDef object at 0x7f5f77cdbac0&#45;&gt;ast.Return object at 0x7f5f65843c70</title>
<path fill="none" stroke="black" d="M1365.05,-436.49C1410.23,-423.2 1480.91,-402.41 1523.75,-389.81"/>
<polygon fill="black" stroke="black" points="1524.88,-393.12 1533.49,-386.95 1522.9,-386.41 1524.88,-393.12"/>
</g>
<!-- ast.arg object at 0x7f5f77cd9690 -->
<g id="node15" class="node">
<title>ast.arg object at 0x7f5f77cd9690</title>
<path fill="#66cdaa" stroke="black" d="M1534.5,-324C1534.5,-324 1504.5,-324 1504.5,-324 1498.5,-324 1492.5,-318 1492.5,-312 1492.5,-312 1492.5,-300 1492.5,-300 1492.5,-294 1498.5,-288 1504.5,-288 1504.5,-288 1534.5,-288 1534.5,-288 1540.5,-288 1546.5,-294 1546.5,-300 1546.5,-300 1546.5,-312 1546.5,-312 1546.5,-318 1540.5,-324 1534.5,-324"/>
<text text-anchor="middle" x="1519.5" y="-302.3" font-family="Times,serif" font-size="14.00">arg</text>
</g>
<!-- ast.arguments object at 0x7f5f77cdbf40&#45;&gt;ast.arg object at 0x7f5f77cd9690 -->
<g id="edge15" class="edge">
<title>ast.arguments object at 0x7f5f77cdbf40&#45;&gt;ast.arg object at 0x7f5f77cd9690</title>
<path fill="none" stroke="black" d="M1465.3,-359.7C1474.1,-351.14 1484.88,-340.66 1494.5,-331.3"/>
<polygon fill="black" stroke="black" points="1497.18,-333.58 1501.91,-324.1 1492.3,-328.57 1497.18,-333.58"/>
</g>
<!-- ast.arg object at 0x7f5f77cd9d20 -->
<g id="node16" class="node">
<title>ast.arg object at 0x7f5f77cd9d20</title>
<path fill="#66cdaa" stroke="black" d="M1462.5,-324C1462.5,-324 1432.5,-324 1432.5,-324 1426.5,-324 1420.5,-318 1420.5,-312 1420.5,-312 1420.5,-300 1420.5,-300 1420.5,-294 1426.5,-288 1432.5,-288 1432.5,-288 1462.5,-288 1462.5,-288 1468.5,-288 1474.5,-294 1474.5,-300 1474.5,-300 1474.5,-312 1474.5,-312 1474.5,-318 1468.5,-324 1462.5,-324"/>
<text text-anchor="middle" x="1447.5" y="-302.3" font-family="Times,serif" font-size="14.00">arg</text>
</g>
<!-- ast.arguments object at 0x7f5f77cdbf40&#45;&gt;ast.arg object at 0x7f5f77cd9d20 -->
<g id="edge16" class="edge">
<title>ast.arguments object at 0x7f5f77cdbf40&#45;&gt;ast.arg object at 0x7f5f77cd9d20</title>
<path fill="none" stroke="black" d="M1447.5,-359.7C1447.5,-351.98 1447.5,-342.71 1447.5,-334.11"/>
<polygon fill="black" stroke="black" points="1451,-334.1 1447.5,-324.1 1444,-334.1 1451,-334.1"/>
</g>
<!-- ast.Name object at 0x7f5f77cdbdf0 -->
<g id="node18" class="node">
<title>ast.Name object at 0x7f5f77cdbdf0</title>
<path fill="#66cdaa" stroke="black" d="M1320.5,-252C1320.5,-252 1290.5,-252 1290.5,-252 1284.5,-252 1278.5,-246 1278.5,-240 1278.5,-240 1278.5,-228 1278.5,-228 1278.5,-222 1284.5,-216 1290.5,-216 1290.5,-216 1320.5,-216 1320.5,-216 1326.5,-216 1332.5,-222 1332.5,-228 1332.5,-228 1332.5,-240 1332.5,-240 1332.5,-246 1326.5,-252 1320.5,-252"/>
<text text-anchor="middle" x="1305.5" y="-230.3" font-family="Times,serif" font-size="14.00">Name</text>
</g>
<!-- ast.Assign object at 0x7f5f77cdb310&#45;&gt;ast.Name object at 0x7f5f77cdbdf0 -->
<g id="edge18" class="edge">
<title>ast.Assign object at 0x7f5f77cdb310&#45;&gt;ast.Name object at 0x7f5f77cdbdf0</title>
<path fill="none" stroke="black" d="M1320.45,-359.87C1317.55,-335.67 1312.23,-291.21 1308.78,-262.39"/>
<polygon fill="black" stroke="black" points="1312.22,-261.7 1307.56,-252.19 1305.27,-262.53 1312.22,-261.7"/>
</g>
<!-- ast.ListComp object at 0x7f5f77cdb5b0 -->
<g id="node20" class="node">
<title>ast.ListComp object at 0x7f5f77cdb5b0</title>
<path fill="#66cdaa" stroke="black" d="M1390,-324C1390,-324 1343,-324 1343,-324 1337,-324 1331,-318 1331,-312 1331,-312 1331,-300 1331,-300 1331,-294 1337,-288 1343,-288 1343,-288 1390,-288 1390,-288 1396,-288 1402,-294 1402,-300 1402,-300 1402,-312 1402,-312 1402,-318 1396,-324 1390,-324"/>
<text text-anchor="middle" x="1366.5" y="-302.3" font-family="Times,serif" font-size="14.00">ListComp</text>
</g>
<!-- ast.Assign object at 0x7f5f77cdb310&#45;&gt;ast.ListComp object at 0x7f5f77cdb5b0 -->
<g id="edge20" class="edge">
<title>ast.Assign object at 0x7f5f77cdb310&#45;&gt;ast.ListComp object at 0x7f5f77cdb5b0</title>
<path fill="none" stroke="black" d="M1333.38,-359.7C1338.49,-351.56 1344.7,-341.69 1350.34,-332.7"/>
<polygon fill="black" stroke="black" points="1353.39,-334.43 1355.75,-324.1 1347.46,-330.71 1353.39,-334.43"/>
</g>
<!-- ast.Store object at 0x7f5faeaf1fc0 -->
<g id="node19" class="node">
<title>ast.Store object at 0x7f5faeaf1fc0</title>
<path fill="#66cdaa" stroke="black" d="M1301.5,-108C1301.5,-108 1271.5,-108 1271.5,-108 1265.5,-108 1259.5,-102 1259.5,-96 1259.5,-96 1259.5,-84 1259.5,-84 1259.5,-78 1265.5,-72 1271.5,-72 1271.5,-72 1301.5,-72 1301.5,-72 1307.5,-72 1313.5,-78 1313.5,-84 1313.5,-84 1313.5,-96 1313.5,-96 1313.5,-102 1307.5,-108 1301.5,-108"/>
<text text-anchor="middle" x="1286.5" y="-86.3" font-family="Times,serif" font-size="14.00">Store</text>
</g>
<!-- ast.Name object at 0x7f5f77cdbdf0&#45;&gt;ast.Store object at 0x7f5faeaf1fc0 -->
<g id="edge19" class="edge">
<title>ast.Name object at 0x7f5f77cdbdf0&#45;&gt;ast.Store object at 0x7f5faeaf1fc0</title>
<path fill="none" stroke="black" d="M1303.21,-215.87C1299.97,-191.67 1294.02,-147.21 1290.17,-118.39"/>
<polygon fill="black" stroke="black" points="1293.6,-117.64 1288.8,-108.19 1286.66,-118.57 1293.6,-117.64"/>
</g>
<!-- ast.Subscript object at 0x7f5f77cdb670 -->
<g id="node21" class="node">
<title>ast.Subscript object at 0x7f5f77cdb670</title>
<path fill="#66cdaa" stroke="black" d="M1521.5,-180C1521.5,-180 1477.5,-180 1477.5,-180 1471.5,-180 1465.5,-174 1465.5,-168 1465.5,-168 1465.5,-156 1465.5,-156 1465.5,-150 1471.5,-144 1477.5,-144 1477.5,-144 1521.5,-144 1521.5,-144 1527.5,-144 1533.5,-150 1533.5,-156 1533.5,-156 1533.5,-168 1533.5,-168 1533.5,-174 1527.5,-180 1521.5,-180"/>
<text text-anchor="middle" x="1499.5" y="-158.3" font-family="Times,serif" font-size="14.00">Subscript</text>
</g>
<!-- ast.ListComp object at 0x7f5f77cdb5b0&#45;&gt;ast.Subscript object at 0x7f5f77cdb670 -->
<g id="edge21" class="edge">
<title>ast.ListComp object at 0x7f5f77cdb5b0&#45;&gt;ast.Subscript object at 0x7f5f77cdb670</title>
<path fill="none" stroke="black" d="M1402.36,-291.07C1421.34,-282.23 1443.88,-269.19 1459.5,-252 1475.63,-234.25 1486.15,-208.92 1492.33,-189.82"/>
<polygon fill="black" stroke="black" points="1495.7,-190.79 1495.26,-180.2 1489,-188.75 1495.7,-190.79"/>
</g>
<!-- ast.comprehension object at 0x7f5f77cdbb20 -->
<g id="node24" class="node">
<title>ast.comprehension object at 0x7f5f77cdbb20</title>
<path fill="#66cdaa" stroke="black" d="M1438.5,-252C1438.5,-252 1362.5,-252 1362.5,-252 1356.5,-252 1350.5,-246 1350.5,-240 1350.5,-240 1350.5,-228 1350.5,-228 1350.5,-222 1356.5,-216 1362.5,-216 1362.5,-216 1438.5,-216 1438.5,-216 1444.5,-216 1450.5,-222 1450.5,-228 1450.5,-228 1450.5,-240 1450.5,-240 1450.5,-246 1444.5,-252 1438.5,-252"/>
<text text-anchor="middle" x="1400.5" y="-230.3" font-family="Times,serif" font-size="14.00">comprehension</text>
</g>
<!-- ast.ListComp object at 0x7f5f77cdb5b0&#45;&gt;ast.comprehension object at 0x7f5f77cdbb20 -->
<g id="edge27" class="edge">
<title>ast.ListComp object at 0x7f5f77cdb5b0&#45;&gt;ast.comprehension object at 0x7f5f77cdbb20</title>
<path fill="none" stroke="black" d="M1374.9,-287.7C1378.77,-279.73 1383.45,-270.1 1387.74,-261.26"/>
<polygon fill="black" stroke="black" points="1390.97,-262.63 1392.19,-252.1 1384.67,-259.57 1390.97,-262.63"/>
</g>
<!-- ast.Subscript object at 0x7f5f77cdb670&#45;&gt;ast.Load object at 0x7f5faeaf1f60 -->
<g id="edge26" class="edge">
<title>ast.Subscript object at 0x7f5f77cdb670&#45;&gt;ast.Load object at 0x7f5faeaf1f60</title>
<path fill="none" stroke="black" d="M1491.54,-143.84C1481.06,-123.28 1460.61,-89.43 1432.5,-72 1391.73,-46.72 1253.35,-29.63 1185.97,-22.6"/>
<polygon fill="black" stroke="black" points="1186.1,-19.1 1175.79,-21.56 1185.39,-26.06 1186.1,-19.1"/>
</g>
<!-- ast.Name object at 0x7f5f77cdbf70 -->
<g id="node22" class="node">
<title>ast.Name object at 0x7f5f77cdbf70</title>
<path fill="#66cdaa" stroke="black" d="M1521.5,-108C1521.5,-108 1491.5,-108 1491.5,-108 1485.5,-108 1479.5,-102 1479.5,-96 1479.5,-96 1479.5,-84 1479.5,-84 1479.5,-78 1485.5,-72 1491.5,-72 1491.5,-72 1521.5,-72 1521.5,-72 1527.5,-72 1533.5,-78 1533.5,-84 1533.5,-84 1533.5,-96 1533.5,-96 1533.5,-102 1527.5,-108 1521.5,-108"/>
<text text-anchor="middle" x="1506.5" y="-86.3" font-family="Times,serif" font-size="14.00">Name</text>
</g>
<!-- ast.Subscript object at 0x7f5f77cdb670&#45;&gt;ast.Name object at 0x7f5f77cdbf70 -->
<g id="edge22" class="edge">
<title>ast.Subscript object at 0x7f5f77cdb670&#45;&gt;ast.Name object at 0x7f5f77cdbf70</title>
<path fill="none" stroke="black" d="M1501.23,-143.7C1502,-135.98 1502.93,-126.71 1503.79,-118.11"/>
<polygon fill="black" stroke="black" points="1507.28,-118.4 1504.79,-108.1 1500.31,-117.71 1507.28,-118.4"/>
</g>
<!-- ast.Name object at 0x7f5f77cdacb0 -->
<g id="node23" class="node">
<title>ast.Name object at 0x7f5f77cdacb0</title>
<path fill="#66cdaa" stroke="black" d="M1411.5,-108C1411.5,-108 1381.5,-108 1381.5,-108 1375.5,-108 1369.5,-102 1369.5,-96 1369.5,-96 1369.5,-84 1369.5,-84 1369.5,-78 1375.5,-72 1381.5,-72 1381.5,-72 1411.5,-72 1411.5,-72 1417.5,-72 1423.5,-78 1423.5,-84 1423.5,-84 1423.5,-96 1423.5,-96 1423.5,-102 1417.5,-108 1411.5,-108"/>
<text text-anchor="middle" x="1396.5" y="-86.3" font-family="Times,serif" font-size="14.00">Name</text>
</g>
<!-- ast.Subscript object at 0x7f5f77cdb670&#45;&gt;ast.Name object at 0x7f5f77cdacb0 -->
<g id="edge24" class="edge">
<title>ast.Subscript object at 0x7f5f77cdb670&#45;&gt;ast.Name object at 0x7f5f77cdacb0</title>
<path fill="none" stroke="black" d="M1474.3,-143.88C1461.09,-134.89 1444.71,-123.76 1430.39,-114.03"/>
<polygon fill="black" stroke="black" points="1432.03,-110.92 1421.79,-108.19 1428.1,-116.71 1432.03,-110.92"/>
</g>
<!-- ast.Name object at 0x7f5f77cdbf70&#45;&gt;ast.Load object at 0x7f5faeaf1f60 -->
<g id="edge23" class="edge">
<title>ast.Name object at 0x7f5f77cdbf70&#45;&gt;ast.Load object at 0x7f5faeaf1f60</title>
<path fill="none" stroke="black" d="M1479.46,-76.78C1474.87,-74.99 1470.09,-73.32 1465.5,-72 1366.58,-43.62 1245.67,-28.63 1185.78,-22.46"/>
<polygon fill="black" stroke="black" points="1185.98,-18.96 1175.68,-21.44 1185.28,-25.92 1185.98,-18.96"/>
</g>
<!-- ast.Name object at 0x7f5f77cdacb0&#45;&gt;ast.Load object at 0x7f5faeaf1f60 -->
<g id="edge25" class="edge">
<title>ast.Name object at 0x7f5f77cdacb0&#45;&gt;ast.Load object at 0x7f5faeaf1f60</title>
<path fill="none" stroke="black" d="M1369.36,-77.11C1364.77,-75.29 1360.03,-73.51 1355.5,-72 1297.1,-52.53 1227.44,-36.03 1185.65,-26.83"/>
<polygon fill="black" stroke="black" points="1186.17,-23.36 1175.65,-24.66 1184.68,-30.2 1186.17,-23.36"/>
</g>
<!-- ast.Name object at 0x7f5f77cd8940 -->
<g id="node25" class="node">
<title>ast.Name object at 0x7f5f77cd8940</title>
<path fill="#66cdaa" stroke="black" d="M1363.5,-180C1363.5,-180 1333.5,-180 1333.5,-180 1327.5,-180 1321.5,-174 1321.5,-168 1321.5,-168 1321.5,-156 1321.5,-156 1321.5,-150 1327.5,-144 1333.5,-144 1333.5,-144 1363.5,-144 1363.5,-144 1369.5,-144 1375.5,-150 1375.5,-156 1375.5,-156 1375.5,-168 1375.5,-168 1375.5,-174 1369.5,-180 1363.5,-180"/>
<text text-anchor="middle" x="1348.5" y="-158.3" font-family="Times,serif" font-size="14.00">Name</text>
</g>
<!-- ast.comprehension object at 0x7f5f77cdbb20&#45;&gt;ast.Name object at 0x7f5f77cd8940 -->
<g id="edge28" class="edge">
<title>ast.comprehension object at 0x7f5f77cdbb20&#45;&gt;ast.Name object at 0x7f5f77cd8940</title>
<path fill="none" stroke="black" d="M1387.65,-215.7C1381.47,-207.39 1373.96,-197.28 1367.18,-188.14"/>
<polygon fill="black" stroke="black" points="1369.98,-186.04 1361.21,-180.1 1364.36,-190.22 1369.98,-186.04"/>
</g>
<!-- ast.Name object at 0x7f5f77cd9c90 -->
<g id="node26" class="node">
<title>ast.Name object at 0x7f5f77cd9c90</title>
<path fill="#66cdaa" stroke="black" d="M1435.5,-180C1435.5,-180 1405.5,-180 1405.5,-180 1399.5,-180 1393.5,-174 1393.5,-168 1393.5,-168 1393.5,-156 1393.5,-156 1393.5,-150 1399.5,-144 1405.5,-144 1405.5,-144 1435.5,-144 1435.5,-144 1441.5,-144 1447.5,-150 1447.5,-156 1447.5,-156 1447.5,-168 1447.5,-168 1447.5,-174 1441.5,-180 1435.5,-180"/>
<text text-anchor="middle" x="1420.5" y="-158.3" font-family="Times,serif" font-size="14.00">Name</text>
</g>
<!-- ast.comprehension object at 0x7f5f77cdbb20&#45;&gt;ast.Name object at 0x7f5f77cd9c90 -->
<g id="edge30" class="edge">
<title>ast.comprehension object at 0x7f5f77cdbb20&#45;&gt;ast.Name object at 0x7f5f77cd9c90</title>
<path fill="none" stroke="black" d="M1405.44,-215.7C1407.67,-207.9 1410.35,-198.51 1412.83,-189.83"/>
<polygon fill="black" stroke="black" points="1416.23,-190.68 1415.61,-180.1 1409.5,-188.76 1416.23,-190.68"/>
</g>
<!-- ast.Name object at 0x7f5f77cd8940&#45;&gt;ast.Store object at 0x7f5faeaf1fc0 -->
<g id="edge29" class="edge">
<title>ast.Name object at 0x7f5f77cd8940&#45;&gt;ast.Store object at 0x7f5faeaf1fc0</title>
<path fill="none" stroke="black" d="M1333.17,-143.7C1325.74,-135.3 1316.68,-125.07 1308.52,-115.86"/>
<polygon fill="black" stroke="black" points="1310.9,-113.27 1301.65,-108.1 1305.66,-117.91 1310.9,-113.27"/>
</g>
<!-- ast.Name object at 0x7f5f77cd9c90&#45;&gt;ast.Load object at 0x7f5faeaf1f60 -->
<g id="edge31" class="edge">
<title>ast.Name object at 0x7f5f77cd9c90&#45;&gt;ast.Load object at 0x7f5faeaf1f60</title>
<path fill="none" stroke="black" d="M1400.89,-143.98C1389.1,-133.67 1373.83,-120.2 1360.5,-108 1343.33,-92.3 1342.61,-83.7 1322.5,-72 1279.15,-46.77 1222.62,-32.45 1185.94,-25.21"/>
<polygon fill="black" stroke="black" points="1186.17,-21.69 1175.7,-23.27 1184.87,-28.57 1186.17,-21.69"/>
</g>
<!-- ast.Name object at 0x7f5f77cdb850 -->
<g id="node28" class="node">
<title>ast.Name object at 0x7f5f77cdb850</title>
<path fill="#66cdaa" stroke="black" d="M1134.5,-252C1134.5,-252 1104.5,-252 1104.5,-252 1098.5,-252 1092.5,-246 1092.5,-240 1092.5,-240 1092.5,-228 1092.5,-228 1092.5,-222 1098.5,-216 1104.5,-216 1104.5,-216 1134.5,-216 1134.5,-216 1140.5,-216 1146.5,-222 1146.5,-228 1146.5,-228 1146.5,-240 1146.5,-240 1146.5,-246 1140.5,-252 1134.5,-252"/>
<text text-anchor="middle" x="1119.5" y="-230.3" font-family="Times,serif" font-size="14.00">Name</text>
</g>
<!-- ast.Assign object at 0x7f5f77cdb880&#45;&gt;ast.Name object at 0x7f5f77cdb850 -->
<g id="edge33" class="edge">
<title>ast.Assign object at 0x7f5f77cdb880&#45;&gt;ast.Name object at 0x7f5f77cdb850</title>
<path fill="none" stroke="black" d="M1078.85,-287.7C1085.26,-279.39 1093.06,-269.28 1100.11,-260.14"/>
<polygon fill="black" stroke="black" points="1102.97,-262.16 1106.31,-252.1 1097.43,-257.88 1102.97,-262.16"/>
</g>
<!-- ast.Call object at 0x7f5f77cd8e80 -->
<g id="node29" class="node">
<title>ast.Call object at 0x7f5f77cd8e80</title>
<path fill="#66cdaa" stroke="black" d="M609.5,-252C609.5,-252 579.5,-252 579.5,-252 573.5,-252 567.5,-246 567.5,-240 567.5,-240 567.5,-228 567.5,-228 567.5,-222 573.5,-216 579.5,-216 579.5,-216 609.5,-216 609.5,-216 615.5,-216 621.5,-222 621.5,-228 621.5,-228 621.5,-240 621.5,-240 621.5,-246 615.5,-252 609.5,-252"/>
<text text-anchor="middle" x="594.5" y="-230.3" font-family="Times,serif" font-size="14.00">Call</text>
</g>
<!-- ast.Assign object at 0x7f5f77cdb880&#45;&gt;ast.Call object at 0x7f5f77cd8e80 -->
<g id="edge35" class="edge">
<title>ast.Assign object at 0x7f5f77cdb880&#45;&gt;ast.Call object at 0x7f5f77cd8e80</title>
<path fill="none" stroke="black" d="M1038.49,-300.99C958.59,-289.11 723.29,-254.14 631.64,-240.52"/>
<polygon fill="black" stroke="black" points="632.1,-237.05 621.7,-239.04 631.08,-243.97 632.1,-237.05"/>
</g>
<!-- ast.Name object at 0x7f5f77cdb850&#45;&gt;ast.Store object at 0x7f5faeaf1fc0 -->
<g id="edge34" class="edge">
<title>ast.Name object at 0x7f5f77cdb850&#45;&gt;ast.Store object at 0x7f5faeaf1fc0</title>
<path fill="none" stroke="black" d="M1137.28,-215.74C1156.39,-197.42 1187.89,-167.86 1216.5,-144 1228.67,-133.85 1242.51,-123.19 1254.65,-114.13"/>
<polygon fill="black" stroke="black" points="1256.79,-116.89 1262.74,-108.13 1252.62,-111.27 1256.79,-116.89"/>
</g>
<!-- ast.Name object at 0x7f5f77cdbfd0 -->
<g id="node30" class="node">
<title>ast.Name object at 0x7f5f77cdbfd0</title>
<path fill="#66cdaa" stroke="black" d="M430.5,-180C430.5,-180 400.5,-180 400.5,-180 394.5,-180 388.5,-174 388.5,-168 388.5,-168 388.5,-156 388.5,-156 388.5,-150 394.5,-144 400.5,-144 400.5,-144 430.5,-144 430.5,-144 436.5,-144 442.5,-150 442.5,-156 442.5,-156 442.5,-168 442.5,-168 442.5,-174 436.5,-180 430.5,-180"/>
<text text-anchor="middle" x="415.5" y="-158.3" font-family="Times,serif" font-size="14.00">Name</text>
</g>
<!-- ast.Call object at 0x7f5f77cd8e80&#45;&gt;ast.Name object at 0x7f5f77cdbfd0 -->
<g id="edge36" class="edge">
<title>ast.Call object at 0x7f5f77cd8e80&#45;&gt;ast.Name object at 0x7f5f77cdbfd0</title>
<path fill="none" stroke="black" d="M567.31,-222.37C536.6,-210.36 486.46,-190.75 452.27,-177.38"/>
<polygon fill="black" stroke="black" points="453.24,-174 442.65,-173.62 450.69,-180.52 453.24,-174"/>
</g>
<!-- ast.Subscript object at 0x7f5f77cdba60 -->
<g id="node31" class="node">
<title>ast.Subscript object at 0x7f5f77cdba60</title>
<path fill="#66cdaa" stroke="black" d="M561.5,-180C561.5,-180 517.5,-180 517.5,-180 511.5,-180 505.5,-174 505.5,-168 505.5,-168 505.5,-156 505.5,-156 505.5,-150 511.5,-144 517.5,-144 517.5,-144 561.5,-144 561.5,-144 567.5,-144 573.5,-150 573.5,-156 573.5,-156 573.5,-168 573.5,-168 573.5,-174 567.5,-180 561.5,-180"/>
<text text-anchor="middle" x="539.5" y="-158.3" font-family="Times,serif" font-size="14.00">Subscript</text>
</g>
<!-- ast.Call object at 0x7f5f77cd8e80&#45;&gt;ast.Subscript object at 0x7f5f77cdba60 -->
<g id="edge38" class="edge">
<title>ast.Call object at 0x7f5f77cd8e80&#45;&gt;ast.Subscript object at 0x7f5f77cdba60</title>
<path fill="none" stroke="black" d="M580.9,-215.7C574.38,-207.39 566.43,-197.28 559.25,-188.14"/>
<polygon fill="black" stroke="black" points="561.87,-185.81 552.94,-180.1 556.37,-190.13 561.87,-185.81"/>
</g>
<!-- ast.Subscript object at 0x7f5f77cdbfa0 -->
<g id="node34" class="node">
<title>ast.Subscript object at 0x7f5f77cdbfa0</title>
<path fill="#66cdaa" stroke="black" d="M670.5,-180C670.5,-180 626.5,-180 626.5,-180 620.5,-180 614.5,-174 614.5,-168 614.5,-168 614.5,-156 614.5,-156 614.5,-150 620.5,-144 626.5,-144 626.5,-144 670.5,-144 670.5,-144 676.5,-144 682.5,-150 682.5,-156 682.5,-156 682.5,-168 682.5,-168 682.5,-174 676.5,-180 670.5,-180"/>
<text text-anchor="middle" x="648.5" y="-158.3" font-family="Times,serif" font-size="14.00">Subscript</text>
</g>
<!-- ast.Call object at 0x7f5f77cd8e80&#45;&gt;ast.Subscript object at 0x7f5f77cdbfa0 -->
<g id="edge43" class="edge">
<title>ast.Call object at 0x7f5f77cd8e80&#45;&gt;ast.Subscript object at 0x7f5f77cdbfa0</title>
<path fill="none" stroke="black" d="M607.85,-215.7C614.26,-207.39 622.06,-197.28 629.11,-188.14"/>
<polygon fill="black" stroke="black" points="631.97,-190.16 635.31,-180.1 626.43,-185.88 631.97,-190.16"/>
</g>
<!-- ast.Name object at 0x7f5f77cdbfd0&#45;&gt;ast.Load object at 0x7f5faeaf1f60 -->
<g id="edge37" class="edge">
<title>ast.Name object at 0x7f5f77cdbfd0&#45;&gt;ast.Load object at 0x7f5faeaf1f60</title>
<path fill="none" stroke="black" d="M416.96,-143.66C419.72,-122.91 427.66,-88.86 450.5,-72 503.87,-32.6 973.93,-21.85 1111.09,-19.55"/>
<polygon fill="black" stroke="black" points="1111.54,-23.04 1121.48,-19.38 1111.43,-16.04 1111.54,-23.04"/>
</g>
<!-- ast.Subscript object at 0x7f5f77cdba60&#45;&gt;ast.Load object at 0x7f5faeaf1f60 -->
<g id="edge42" class="edge">
<title>ast.Subscript object at 0x7f5f77cdba60&#45;&gt;ast.Load object at 0x7f5faeaf1f60</title>
<path fill="none" stroke="black" d="M505.43,-147.46C488.67,-138.86 470.06,-125.92 460.5,-108 452.97,-93.88 449.63,-83.74 460.5,-72 504.93,-24.02 974.03,-19.33 1111.09,-18.99"/>
<polygon fill="black" stroke="black" points="1111.49,-22.49 1121.48,-18.97 1111.48,-15.49 1111.49,-22.49"/>
</g>
<!-- ast.Name object at 0x7f5f77cd9b70 -->
<g id="node32" class="node">
<title>ast.Name object at 0x7f5f77cd9b70</title>
<path fill="#66cdaa" stroke="black" d="M511.5,-108C511.5,-108 481.5,-108 481.5,-108 475.5,-108 469.5,-102 469.5,-96 469.5,-96 469.5,-84 469.5,-84 469.5,-78 475.5,-72 481.5,-72 481.5,-72 511.5,-72 511.5,-72 517.5,-72 523.5,-78 523.5,-84 523.5,-84 523.5,-96 523.5,-96 523.5,-102 517.5,-108 511.5,-108"/>
<text text-anchor="middle" x="496.5" y="-86.3" font-family="Times,serif" font-size="14.00">Name</text>
</g>
<!-- ast.Subscript object at 0x7f5f77cdba60&#45;&gt;ast.Name object at 0x7f5f77cd9b70 -->
<g id="edge39" class="edge">
<title>ast.Subscript object at 0x7f5f77cdba60&#45;&gt;ast.Name object at 0x7f5f77cd9b70</title>
<path fill="none" stroke="black" d="M528.87,-143.7C523.87,-135.56 517.81,-125.69 512.29,-116.7"/>
<polygon fill="black" stroke="black" points="515.22,-114.79 507.01,-108.1 509.26,-118.46 515.22,-114.79"/>
</g>
<!-- ast.Constant object at 0x7f5f77cd9a20 -->
<g id="node33" class="node">
<title>ast.Constant object at 0x7f5f77cd9a20</title>
<path fill="#66cdaa" stroke="black" d="M595,-108C595,-108 554,-108 554,-108 548,-108 542,-102 542,-96 542,-96 542,-84 542,-84 542,-78 548,-72 554,-72 554,-72 595,-72 595,-72 601,-72 607,-78 607,-84 607,-84 607,-96 607,-96 607,-102 601,-108 595,-108"/>
<text text-anchor="middle" x="574.5" y="-86.3" font-family="Times,serif" font-size="14.00">Constant</text>
</g>
<!-- ast.Subscript object at 0x7f5f77cdba60&#45;&gt;ast.Constant object at 0x7f5f77cd9a20 -->
<g id="edge41" class="edge">
<title>ast.Subscript object at 0x7f5f77cdba60&#45;&gt;ast.Constant object at 0x7f5f77cd9a20</title>
<path fill="none" stroke="black" d="M548.15,-143.7C552.14,-135.73 556.95,-126.1 561.37,-117.26"/>
<polygon fill="black" stroke="black" points="564.61,-118.61 565.95,-108.1 558.35,-115.48 564.61,-118.61"/>
</g>
<!-- ast.Name object at 0x7f5f77cd9b70&#45;&gt;ast.Load object at 0x7f5faeaf1f60 -->
<g id="edge40" class="edge">
<title>ast.Name object at 0x7f5f77cd9b70&#45;&gt;ast.Load object at 0x7f5faeaf1f60</title>
<path fill="none" stroke="black" d="M523.63,-74.96C526.57,-73.81 529.56,-72.79 532.5,-72 642.8,-42.24 995.54,-25.33 1111.31,-20.47"/>
<polygon fill="black" stroke="black" points="1111.59,-23.96 1121.44,-20.05 1111.3,-16.97 1111.59,-23.96"/>
</g>
<!-- ast.Subscript object at 0x7f5f77cdbfa0&#45;&gt;ast.Load object at 0x7f5faeaf1f60 -->
<g id="edge47" class="edge">
<title>ast.Subscript object at 0x7f5f77cdbfa0&#45;&gt;ast.Load object at 0x7f5faeaf1f60</title>
<path fill="none" stroke="black" d="M643.82,-143.69C639.56,-123.61 636.36,-90.87 654.5,-72 686.03,-39.2 1001.1,-24.47 1110.96,-20.3"/>
<polygon fill="black" stroke="black" points="1111.37,-23.79 1121.23,-19.92 1111.11,-16.79 1111.37,-23.79"/>
</g>
<!-- ast.Name object at 0x7f5f77cd9a80 -->
<g id="node35" class="node">
<title>ast.Name object at 0x7f5f77cd9a80</title>
<path fill="#66cdaa" stroke="black" d="M705.5,-108C705.5,-108 675.5,-108 675.5,-108 669.5,-108 663.5,-102 663.5,-96 663.5,-96 663.5,-84 663.5,-84 663.5,-78 669.5,-72 675.5,-72 675.5,-72 705.5,-72 705.5,-72 711.5,-72 717.5,-78 717.5,-84 717.5,-84 717.5,-96 717.5,-96 717.5,-102 711.5,-108 705.5,-108"/>
<text text-anchor="middle" x="690.5" y="-86.3" font-family="Times,serif" font-size="14.00">Name</text>
</g>
<!-- ast.Subscript object at 0x7f5f77cdbfa0&#45;&gt;ast.Name object at 0x7f5f77cd9a80 -->
<g id="edge44" class="edge">
<title>ast.Subscript object at 0x7f5f77cdbfa0&#45;&gt;ast.Name object at 0x7f5f77cd9a80</title>
<path fill="none" stroke="black" d="M658.88,-143.7C663.76,-135.56 669.69,-125.69 675.08,-116.7"/>
<polygon fill="black" stroke="black" points="678.09,-118.48 680.24,-108.1 672.09,-114.88 678.09,-118.48"/>
</g>
<!-- ast.Constant object at 0x7f5f77cd9420 -->
<g id="node36" class="node">
<title>ast.Constant object at 0x7f5f77cd9420</title>
<path fill="#66cdaa" stroke="black" d="M789,-108C789,-108 748,-108 748,-108 742,-108 736,-102 736,-96 736,-96 736,-84 736,-84 736,-78 742,-72 748,-72 748,-72 789,-72 789,-72 795,-72 801,-78 801,-84 801,-84 801,-96 801,-96 801,-102 795,-108 789,-108"/>
<text text-anchor="middle" x="768.5" y="-86.3" font-family="Times,serif" font-size="14.00">Constant</text>
</g>
<!-- ast.Subscript object at 0x7f5f77cdbfa0&#45;&gt;ast.Constant object at 0x7f5f77cd9420 -->
<g id="edge46" class="edge">
<title>ast.Subscript object at 0x7f5f77cdbfa0&#45;&gt;ast.Constant object at 0x7f5f77cd9420</title>
<path fill="none" stroke="black" d="M677.86,-143.88C693.55,-134.72 713.06,-123.34 729.95,-113.48"/>
<polygon fill="black" stroke="black" points="732.16,-116.25 739.03,-108.19 728.63,-110.21 732.16,-116.25"/>
</g>
<!-- ast.Name object at 0x7f5f77cd9a80&#45;&gt;ast.Load object at 0x7f5faeaf1f60 -->
<g id="edge45" class="edge">
<title>ast.Name object at 0x7f5f77cd9a80&#45;&gt;ast.Load object at 0x7f5faeaf1f60</title>
<path fill="none" stroke="black" d="M717.67,-75.08C720.6,-73.91 723.58,-72.85 726.5,-72 864.36,-31.9 1036.24,-22.14 1110.94,-19.76"/>
<polygon fill="black" stroke="black" points="1111.35,-23.25 1121.24,-19.46 1111.14,-16.26 1111.35,-23.25"/>
</g>
<!-- ast.Name object at 0x7f5f77cd8160 -->
<g id="node38" class="node">
<title>ast.Name object at 0x7f5f77cd8160</title>
<path fill="#66cdaa" stroke="black" d="M1262.5,-324C1262.5,-324 1232.5,-324 1232.5,-324 1226.5,-324 1220.5,-318 1220.5,-312 1220.5,-312 1220.5,-300 1220.5,-300 1220.5,-294 1226.5,-288 1232.5,-288 1232.5,-288 1262.5,-288 1262.5,-288 1268.5,-288 1274.5,-294 1274.5,-300 1274.5,-300 1274.5,-312 1274.5,-312 1274.5,-318 1268.5,-324 1262.5,-324"/>
<text text-anchor="middle" x="1247.5" y="-302.3" font-family="Times,serif" font-size="14.00">Name</text>
</g>
<!-- ast.For object at 0x7f5f77cda2f0&#45;&gt;ast.Name object at 0x7f5f77cd8160 -->
<g id="edge49" class="edge">
<title>ast.For object at 0x7f5f77cda2f0&#45;&gt;ast.Name object at 0x7f5f77cd8160</title>
<path fill="none" stroke="black" d="M1232.44,-359.7C1234.67,-351.9 1237.35,-342.51 1239.83,-333.83"/>
<polygon fill="black" stroke="black" points="1243.23,-334.68 1242.61,-324.1 1236.5,-332.76 1243.23,-334.68"/>
</g>
<!-- ast.Call object at 0x7f5f77cdb460 -->
<g id="node39" class="node">
<title>ast.Call object at 0x7f5f77cdb460</title>
<path fill="#66cdaa" stroke="black" d="M864.5,-252C864.5,-252 834.5,-252 834.5,-252 828.5,-252 822.5,-246 822.5,-240 822.5,-240 822.5,-228 822.5,-228 822.5,-222 828.5,-216 834.5,-216 834.5,-216 864.5,-216 864.5,-216 870.5,-216 876.5,-222 876.5,-228 876.5,-228 876.5,-240 876.5,-240 876.5,-246 870.5,-252 864.5,-252"/>
<text text-anchor="middle" x="849.5" y="-230.3" font-family="Times,serif" font-size="14.00">Call</text>
</g>
<!-- ast.For object at 0x7f5f77cda2f0&#45;&gt;ast.Call object at 0x7f5f77cdb460 -->
<g id="edge51" class="edge">
<title>ast.For object at 0x7f5f77cda2f0&#45;&gt;ast.Call object at 0x7f5f77cdb460</title>
<path fill="none" stroke="black" d="M1200.35,-362.66C1182.44,-352.72 1158.81,-338.68 1139.5,-324 1120.98,-309.92 1122.1,-298.8 1101.5,-288 1031.63,-251.37 938.36,-240.06 887.14,-236.56"/>
<polygon fill="black" stroke="black" points="887.07,-233.05 876.87,-235.93 886.64,-240.04 887.07,-233.05"/>
</g>
<!-- ast.Assign object at 0x7f5f77cd86a0 -->
<g id="node45" class="node">
<title>ast.Assign object at 0x7f5f77cd86a0</title>
<path fill="#66cdaa" stroke="black" d="M1190.5,-324C1190.5,-324 1160.5,-324 1160.5,-324 1154.5,-324 1148.5,-318 1148.5,-312 1148.5,-312 1148.5,-300 1148.5,-300 1148.5,-294 1154.5,-288 1160.5,-288 1160.5,-288 1190.5,-288 1190.5,-288 1196.5,-288 1202.5,-294 1202.5,-300 1202.5,-300 1202.5,-312 1202.5,-312 1202.5,-318 1196.5,-324 1190.5,-324"/>
<text text-anchor="middle" x="1175.5" y="-302.3" font-family="Times,serif" font-size="14.00">Assign</text>
</g>
<!-- ast.For object at 0x7f5f77cda2f0&#45;&gt;ast.Assign object at 0x7f5f77cd86a0 -->
<g id="edge60" class="edge">
<title>ast.For object at 0x7f5f77cda2f0&#45;&gt;ast.Assign object at 0x7f5f77cd86a0</title>
<path fill="none" stroke="black" d="M1214.65,-359.7C1208.47,-351.39 1200.96,-341.28 1194.18,-332.14"/>
<polygon fill="black" stroke="black" points="1196.98,-330.04 1188.21,-324.1 1191.36,-334.22 1196.98,-330.04"/>
</g>
<!-- ast.Name object at 0x7f5f77cd8160&#45;&gt;ast.Store object at 0x7f5faeaf1fc0 -->
<g id="edge50" class="edge">
<title>ast.Name object at 0x7f5f77cd8160&#45;&gt;ast.Store object at 0x7f5faeaf1fc0</title>
<path fill="none" stroke="black" d="M1250.63,-287.85C1257.39,-250.75 1273.41,-162.81 1281.56,-118.1"/>
<polygon fill="black" stroke="black" points="1285.01,-118.7 1283.36,-108.23 1278.12,-117.44 1285.01,-118.7"/>
</g>
<!-- ast.Name object at 0x7f5f77cd87c0 -->
<g id="node40" class="node">
<title>ast.Name object at 0x7f5f77cd87c0</title>
<path fill="#66cdaa" stroke="black" d="M753.5,-180C753.5,-180 723.5,-180 723.5,-180 717.5,-180 711.5,-174 711.5,-168 711.5,-168 711.5,-156 711.5,-156 711.5,-150 717.5,-144 723.5,-144 723.5,-144 753.5,-144 753.5,-144 759.5,-144 765.5,-150 765.5,-156 765.5,-156 765.5,-168 765.5,-168 765.5,-174 759.5,-180 753.5,-180"/>
<text text-anchor="middle" x="738.5" y="-158.3" font-family="Times,serif" font-size="14.00">Name</text>
</g>
<!-- ast.Call object at 0x7f5f77cdb460&#45;&gt;ast.Name object at 0x7f5f77cd87c0 -->
<g id="edge52" class="edge">
<title>ast.Call object at 0x7f5f77cdb460&#45;&gt;ast.Name object at 0x7f5f77cd87c0</title>
<path fill="none" stroke="black" d="M822.35,-215.88C807.97,-206.81 790.12,-195.55 774.59,-185.76"/>
<polygon fill="black" stroke="black" points="776.08,-182.56 765.76,-180.19 772.35,-188.48 776.08,-182.56"/>
</g>
<!-- ast.Constant object at 0x7f5f77cda0e0 -->
<g id="node41" class="node">
<title>ast.Constant object at 0x7f5f77cda0e0</title>
<path fill="#66cdaa" stroke="black" d="M909,-180C909,-180 868,-180 868,-180 862,-180 856,-174 856,-168 856,-168 856,-156 856,-156 856,-150 862,-144 868,-144 868,-144 909,-144 909,-144 915,-144 921,-150 921,-156 921,-156 921,-168 921,-168 921,-174 915,-180 909,-180"/>
<text text-anchor="middle" x="888.5" y="-158.3" font-family="Times,serif" font-size="14.00">Constant</text>
</g>
<!-- ast.Call object at 0x7f5f77cdb460&#45;&gt;ast.Constant object at 0x7f5f77cda0e0 -->
<g id="edge54" class="edge">
<title>ast.Call object at 0x7f5f77cdb460&#45;&gt;ast.Constant object at 0x7f5f77cda0e0</title>
<path fill="none" stroke="black" d="M859.14,-215.7C863.63,-207.64 869.06,-197.89 874.02,-188.98"/>
<polygon fill="black" stroke="black" points="877.16,-190.54 878.97,-180.1 871.05,-187.14 877.16,-190.54"/>
</g>
<!-- ast.Call object at 0x7f5f77cdbe20 -->
<g id="node42" class="node">
<title>ast.Call object at 0x7f5f77cdbe20</title>
<path fill="#66cdaa" stroke="black" d="M825.5,-180C825.5,-180 795.5,-180 795.5,-180 789.5,-180 783.5,-174 783.5,-168 783.5,-168 783.5,-156 783.5,-156 783.5,-150 789.5,-144 795.5,-144 795.5,-144 825.5,-144 825.5,-144 831.5,-144 837.5,-150 837.5,-156 837.5,-156 837.5,-168 837.5,-168 837.5,-174 831.5,-180 825.5,-180"/>
<text text-anchor="middle" x="810.5" y="-158.3" font-family="Times,serif" font-size="14.00">Call</text>
</g>
<!-- ast.Call object at 0x7f5f77cdb460&#45;&gt;ast.Call object at 0x7f5f77cdbe20 -->
<g id="edge55" class="edge">
<title>ast.Call object at 0x7f5f77cdb460&#45;&gt;ast.Call object at 0x7f5f77cdbe20</title>
<path fill="none" stroke="black" d="M839.86,-215.7C835.37,-207.64 829.94,-197.89 824.98,-188.98"/>
<polygon fill="black" stroke="black" points="827.95,-187.14 820.03,-180.1 821.84,-190.54 827.95,-187.14"/>
</g>
<!-- ast.Name object at 0x7f5f77cd87c0&#45;&gt;ast.Load object at 0x7f5faeaf1f60 -->
<g id="edge53" class="edge">
<title>ast.Name object at 0x7f5f77cd87c0&#45;&gt;ast.Load object at 0x7f5faeaf1f60</title>
<path fill="none" stroke="black" d="M762.64,-143.94C776.61,-133.83 794.36,-120.58 809.5,-108 827.64,-92.92 827.36,-82.48 848.5,-72 935.49,-28.88 1051.99,-20.35 1110.94,-18.97"/>
<polygon fill="black" stroke="black" points="1111.32,-22.47 1121.26,-18.79 1111.2,-15.47 1111.32,-22.47"/>
</g>
<!-- ast.Name object at 0x7f5f77cd9c00 -->
<g id="node43" class="node">
<title>ast.Name object at 0x7f5f77cd9c00</title>
<path fill="#66cdaa" stroke="black" d="M899.5,-108C899.5,-108 869.5,-108 869.5,-108 863.5,-108 857.5,-102 857.5,-96 857.5,-96 857.5,-84 857.5,-84 857.5,-78 863.5,-72 869.5,-72 869.5,-72 899.5,-72 899.5,-72 905.5,-72 911.5,-78 911.5,-84 911.5,-84 911.5,-96 911.5,-96 911.5,-102 905.5,-108 899.5,-108"/>
<text text-anchor="middle" x="884.5" y="-86.3" font-family="Times,serif" font-size="14.00">Name</text>
</g>
<!-- ast.Call object at 0x7f5f77cdbe20&#45;&gt;ast.Name object at 0x7f5f77cd9c00 -->
<g id="edge56" class="edge">
<title>ast.Call object at 0x7f5f77cdbe20&#45;&gt;ast.Name object at 0x7f5f77cd9c00</title>
<path fill="none" stroke="black" d="M828.79,-143.7C837.93,-135.05 849.14,-124.45 859.1,-115.03"/>
<polygon fill="black" stroke="black" points="861.56,-117.52 866.42,-108.1 856.75,-112.43 861.56,-117.52"/>
</g>
<!-- ast.Name object at 0x7f5f77cd89d0 -->
<g id="node44" class="node">
<title>ast.Name object at 0x7f5f77cd89d0</title>
<path fill="#66cdaa" stroke="black" d="M971.5,-108C971.5,-108 941.5,-108 941.5,-108 935.5,-108 929.5,-102 929.5,-96 929.5,-96 929.5,-84 929.5,-84 929.5,-78 935.5,-72 941.5,-72 941.5,-72 971.5,-72 971.5,-72 977.5,-72 983.5,-78 983.5,-84 983.5,-84 983.5,-96 983.5,-96 983.5,-102 977.5,-108 971.5,-108"/>
<text text-anchor="middle" x="956.5" y="-86.3" font-family="Times,serif" font-size="14.00">Name</text>
</g>
<!-- ast.Call object at 0x7f5f77cdbe20&#45;&gt;ast.Name object at 0x7f5f77cd89d0 -->
<g id="edge58" class="edge">
<title>ast.Call object at 0x7f5f77cdbe20&#45;&gt;ast.Name object at 0x7f5f77cd89d0</title>
<path fill="none" stroke="black" d="M837.62,-148C860.83,-136.87 894.44,-120.75 920.01,-108.5"/>
<polygon fill="black" stroke="black" points="921.53,-111.65 929.03,-104.17 918.5,-105.34 921.53,-111.65"/>
</g>
<!-- ast.Name object at 0x7f5f77cd9c00&#45;&gt;ast.Load object at 0x7f5faeaf1f60 -->
<g id="edge57" class="edge">
<title>ast.Name object at 0x7f5f77cd9c00&#45;&gt;ast.Load object at 0x7f5faeaf1f60</title>
<path fill="none" stroke="black" d="M911.77,-75.39C914.68,-74.16 917.63,-73 920.5,-72 986.02,-49.21 1065.54,-33.25 1111.25,-25.14"/>
<polygon fill="black" stroke="black" points="1112.05,-28.55 1121.3,-23.39 1110.85,-21.66 1112.05,-28.55"/>
</g>
<!-- ast.Name object at 0x7f5f77cd89d0&#45;&gt;ast.Load object at 0x7f5faeaf1f60 -->
<g id="edge59" class="edge">
<title>ast.Name object at 0x7f5f77cd89d0&#45;&gt;ast.Load object at 0x7f5faeaf1f60</title>
<path fill="none" stroke="black" d="M983.76,-77.45C988.33,-75.58 993.04,-73.71 997.5,-72 1036.09,-57.24 1080.79,-41.75 1111.49,-31.35"/>
<polygon fill="black" stroke="black" points="1112.98,-34.54 1121.33,-28.03 1110.74,-27.91 1112.98,-34.54"/>
</g>
<!-- ast.Name object at 0x7f5f77cd9510 -->
<g id="node46" class="node">
<title>ast.Name object at 0x7f5f77cd9510</title>
<path fill="#66cdaa" stroke="black" d="M1209.5,-252C1209.5,-252 1179.5,-252 1179.5,-252 1173.5,-252 1167.5,-246 1167.5,-240 1167.5,-240 1167.5,-228 1167.5,-228 1167.5,-222 1173.5,-216 1179.5,-216 1179.5,-216 1209.5,-216 1209.5,-216 1215.5,-216 1221.5,-222 1221.5,-228 1221.5,-228 1221.5,-240 1221.5,-240 1221.5,-246 1215.5,-252 1209.5,-252"/>
<text text-anchor="middle" x="1194.5" y="-230.3" font-family="Times,serif" font-size="14.00">Name</text>
</g>
<!-- ast.Assign object at 0x7f5f77cd86a0&#45;&gt;ast.Name object at 0x7f5f77cd9510 -->
<g id="edge61" class="edge">
<title>ast.Assign object at 0x7f5f77cd86a0&#45;&gt;ast.Name object at 0x7f5f77cd9510</title>
<path fill="none" stroke="black" d="M1180.2,-287.7C1182.31,-279.9 1184.86,-270.51 1187.22,-261.83"/>
<polygon fill="black" stroke="black" points="1190.62,-262.67 1189.86,-252.1 1183.86,-260.84 1190.62,-262.67"/>
</g>
<!-- ast.Call object at 0x7f5f77cdbee0 -->
<g id="node47" class="node">
<title>ast.Call object at 0x7f5f77cdbee0</title>
<path fill="#66cdaa" stroke="black" d="M1061.5,-252C1061.5,-252 1031.5,-252 1031.5,-252 1025.5,-252 1019.5,-246 1019.5,-240 1019.5,-240 1019.5,-228 1019.5,-228 1019.5,-222 1025.5,-216 1031.5,-216 1031.5,-216 1061.5,-216 1061.5,-216 1067.5,-216 1073.5,-222 1073.5,-228 1073.5,-228 1073.5,-240 1073.5,-240 1073.5,-246 1067.5,-252 1061.5,-252"/>
<text text-anchor="middle" x="1046.5" y="-230.3" font-family="Times,serif" font-size="14.00">Call</text>
</g>
<!-- ast.Assign object at 0x7f5f77cd86a0&#45;&gt;ast.Call object at 0x7f5f77cdbee0 -->
<g id="edge63" class="edge">
<title>ast.Assign object at 0x7f5f77cd86a0&#45;&gt;ast.Call object at 0x7f5f77cdbee0</title>
<path fill="none" stroke="black" d="M1148.46,-290.33C1129.28,-279.92 1103.34,-265.84 1082.42,-254.49"/>
<polygon fill="black" stroke="black" points="1083.97,-251.35 1073.51,-249.65 1080.63,-257.5 1083.97,-251.35"/>
</g>
<!-- ast.Name object at 0x7f5f77cd9510&#45;&gt;ast.Store object at 0x7f5faeaf1fc0 -->
<g id="edge62" class="edge">
<title>ast.Name object at 0x7f5f77cd9510&#45;&gt;ast.Store object at 0x7f5faeaf1fc0</title>
<path fill="none" stroke="black" d="M1202.12,-215.97C1210.67,-197.58 1225.44,-167.73 1241.5,-144 1247.96,-134.45 1255.86,-124.66 1263.23,-116.12"/>
<polygon fill="black" stroke="black" points="1266.07,-118.19 1270.07,-108.38 1260.82,-113.56 1266.07,-118.19"/>
</g>
<!-- ast.Name object at 0x7f5f77cdb7f0 -->
<g id="node48" class="node">
<title>ast.Name object at 0x7f5f77cdb7f0</title>
<path fill="#66cdaa" stroke="black" d="M1139.5,-180C1139.5,-180 1109.5,-180 1109.5,-180 1103.5,-180 1097.5,-174 1097.5,-168 1097.5,-168 1097.5,-156 1097.5,-156 1097.5,-150 1103.5,-144 1109.5,-144 1109.5,-144 1139.5,-144 1139.5,-144 1145.5,-144 1151.5,-150 1151.5,-156 1151.5,-156 1151.5,-168 1151.5,-168 1151.5,-174 1145.5,-180 1139.5,-180"/>
<text text-anchor="middle" x="1124.5" y="-158.3" font-family="Times,serif" font-size="14.00">Name</text>
</g>
<!-- ast.Call object at 0x7f5f77cdbee0&#45;&gt;ast.Name object at 0x7f5f77cdb7f0 -->
<g id="edge64" class="edge">
<title>ast.Call object at 0x7f5f77cdbee0&#45;&gt;ast.Name object at 0x7f5f77cdb7f0</title>
<path fill="none" stroke="black" d="M1065.78,-215.7C1075.42,-207.05 1087.23,-196.45 1097.73,-187.03"/>
<polygon fill="black" stroke="black" points="1100.34,-189.39 1105.44,-180.1 1095.66,-184.18 1100.34,-189.39"/>
</g>
<!-- ast.Name object at 0x7f5f77cdb970 -->
<g id="node49" class="node">
<title>ast.Name object at 0x7f5f77cdb970</title>
<path fill="#66cdaa" stroke="black" d="M981.5,-180C981.5,-180 951.5,-180 951.5,-180 945.5,-180 939.5,-174 939.5,-168 939.5,-168 939.5,-156 939.5,-156 939.5,-150 945.5,-144 951.5,-144 951.5,-144 981.5,-144 981.5,-144 987.5,-144 993.5,-150 993.5,-156 993.5,-156 993.5,-168 993.5,-168 993.5,-174 987.5,-180 981.5,-180"/>
<text text-anchor="middle" x="966.5" y="-158.3" font-family="Times,serif" font-size="14.00">Name</text>
</g>
<!-- ast.Call object at 0x7f5f77cdbee0&#45;&gt;ast.Name object at 0x7f5f77cdb970 -->
<g id="edge66" class="edge">
<title>ast.Call object at 0x7f5f77cdbee0&#45;&gt;ast.Name object at 0x7f5f77cdb970</title>
<path fill="none" stroke="black" d="M1026.72,-215.7C1016.75,-206.97 1004.49,-196.24 993.64,-186.75"/>
<polygon fill="black" stroke="black" points="995.88,-184.06 986.05,-180.1 991.27,-189.32 995.88,-184.06"/>
</g>
<!-- ast.Subscript object at 0x7f5f77cd8ac0 -->
<g id="node50" class="node">
<title>ast.Subscript object at 0x7f5f77cd8ac0</title>
<path fill="#66cdaa" stroke="black" d="M1067.5,-180C1067.5,-180 1023.5,-180 1023.5,-180 1017.5,-180 1011.5,-174 1011.5,-168 1011.5,-168 1011.5,-156 1011.5,-156 1011.5,-150 1017.5,-144 1023.5,-144 1023.5,-144 1067.5,-144 1067.5,-144 1073.5,-144 1079.5,-150 1079.5,-156 1079.5,-156 1079.5,-168 1079.5,-168 1079.5,-174 1073.5,-180 1067.5,-180"/>
<text text-anchor="middle" x="1045.5" y="-158.3" font-family="Times,serif" font-size="14.00">Subscript</text>
</g>
<!-- ast.Call object at 0x7f5f77cdbee0&#45;&gt;ast.Subscript object at 0x7f5f77cd8ac0 -->
<g id="edge68" class="edge">
<title>ast.Call object at 0x7f5f77cdbee0&#45;&gt;ast.Subscript object at 0x7f5f77cd8ac0</title>
<path fill="none" stroke="black" d="M1046.25,-215.7C1046.14,-207.98 1046.01,-198.71 1045.89,-190.11"/>
<polygon fill="black" stroke="black" points="1049.39,-190.05 1045.74,-180.1 1042.39,-190.15 1049.39,-190.05"/>
</g>
<!-- ast.Name object at 0x7f5f77cdb7f0&#45;&gt;ast.Load object at 0x7f5faeaf1f60 -->
<g id="edge65" class="edge">
<title>ast.Name object at 0x7f5f77cdb7f0&#45;&gt;ast.Load object at 0x7f5faeaf1f60</title>
<path fill="none" stroke="black" d="M1151.61,-148.38C1174.87,-136.92 1205.7,-120.03 1212.5,-108 1220.37,-94.07 1219.31,-86.48 1212.5,-72 1206.32,-58.87 1195.12,-47.87 1183.8,-39.36"/>
<polygon fill="black" stroke="black" points="1185.79,-36.49 1175.6,-33.61 1181.77,-42.22 1185.79,-36.49"/>
</g>
<!-- ast.Name object at 0x7f5f77cdb970&#45;&gt;ast.Load object at 0x7f5faeaf1f60 -->
<g id="edge67" class="edge">
<title>ast.Name object at 0x7f5f77cdb970&#45;&gt;ast.Load object at 0x7f5faeaf1f60</title>
<path fill="none" stroke="black" d="M975.21,-143.85C985.91,-124.23 1005.73,-92.22 1030.5,-72 1054.5,-52.4 1086.91,-38.53 1111.69,-29.91"/>
<polygon fill="black" stroke="black" points="1113.09,-33.13 1121.46,-26.64 1110.87,-26.5 1113.09,-33.13"/>
</g>
<!-- ast.Subscript object at 0x7f5f77cd8ac0&#45;&gt;ast.Load object at 0x7f5faeaf1f60 -->
<g id="edge73" class="edge">
<title>ast.Subscript object at 0x7f5f77cd8ac0&#45;&gt;ast.Load object at 0x7f5faeaf1f60</title>
<path fill="none" stroke="black" d="M1067.25,-143.9C1078.68,-134.2 1092.37,-121.35 1102.5,-108 1117.21,-88.62 1129.58,-63.86 1137.77,-45.37"/>
<polygon fill="black" stroke="black" points="1141.03,-46.65 1141.77,-36.08 1134.6,-43.88 1141.03,-46.65"/>
</g>
<!-- ast.Name object at 0x7f5f77cdb430 -->
<g id="node51" class="node">
<title>ast.Name object at 0x7f5f77cdb430</title>
<path fill="#66cdaa" stroke="black" d="M1191.5,-108C1191.5,-108 1161.5,-108 1161.5,-108 1155.5,-108 1149.5,-102 1149.5,-96 1149.5,-96 1149.5,-84 1149.5,-84 1149.5,-78 1155.5,-72 1161.5,-72 1161.5,-72 1191.5,-72 1191.5,-72 1197.5,-72 1203.5,-78 1203.5,-84 1203.5,-84 1203.5,-96 1203.5,-96 1203.5,-102 1197.5,-108 1191.5,-108"/>
<text text-anchor="middle" x="1176.5" y="-86.3" font-family="Times,serif" font-size="14.00">Name</text>
</g>
<!-- ast.Subscript object at 0x7f5f77cd8ac0&#45;&gt;ast.Name object at 0x7f5f77cdb430 -->
<g id="edge69" class="edge">
<title>ast.Subscript object at 0x7f5f77cd8ac0&#45;&gt;ast.Name object at 0x7f5f77cdb430</title>
<path fill="none" stroke="black" d="M1077.55,-143.88C1096.51,-133.74 1120.59,-120.88 1140.24,-110.37"/>
<polygon fill="black" stroke="black" points="1142.04,-113.38 1149.21,-105.58 1138.74,-107.21 1142.04,-113.38"/>
</g>
<!-- ast.Name object at 0x7f5f77cdb5e0 -->
<g id="node52" class="node">
<title>ast.Name object at 0x7f5f77cdb5e0</title>
<path fill="#66cdaa" stroke="black" d="M1081.5,-108C1081.5,-108 1051.5,-108 1051.5,-108 1045.5,-108 1039.5,-102 1039.5,-96 1039.5,-96 1039.5,-84 1039.5,-84 1039.5,-78 1045.5,-72 1051.5,-72 1051.5,-72 1081.5,-72 1081.5,-72 1087.5,-72 1093.5,-78 1093.5,-84 1093.5,-84 1093.5,-96 1093.5,-96 1093.5,-102 1087.5,-108 1081.5,-108"/>
<text text-anchor="middle" x="1066.5" y="-86.3" font-family="Times,serif" font-size="14.00">Name</text>
</g>
<!-- ast.Subscript object at 0x7f5f77cd8ac0&#45;&gt;ast.Name object at 0x7f5f77cdb5e0 -->
<g id="edge71" class="edge">
<title>ast.Subscript object at 0x7f5f77cd8ac0&#45;&gt;ast.Name object at 0x7f5f77cdb5e0</title>
<path fill="none" stroke="black" d="M1050.69,-143.7C1053.03,-135.9 1055.85,-126.51 1058.45,-117.83"/>
<polygon fill="black" stroke="black" points="1061.85,-118.69 1061.37,-108.1 1055.14,-116.68 1061.85,-118.69"/>
</g>
<!-- ast.Name object at 0x7f5f77cdb430&#45;&gt;ast.Load object at 0x7f5faeaf1f60 -->
<g id="edge70" class="edge">
<title>ast.Name object at 0x7f5f77cdb430&#45;&gt;ast.Load object at 0x7f5faeaf1f60</title>
<path fill="none" stroke="black" d="M1169.58,-71.7C1166.43,-63.81 1162.62,-54.3 1159.12,-45.55"/>
<polygon fill="black" stroke="black" points="1162.31,-44.09 1155.34,-36.1 1155.81,-46.69 1162.31,-44.09"/>
</g>
<!-- ast.Name object at 0x7f5f77cdb5e0&#45;&gt;ast.Load object at 0x7f5faeaf1f60 -->
<g id="edge72" class="edge">
<title>ast.Name object at 0x7f5f77cdb5e0&#45;&gt;ast.Load object at 0x7f5faeaf1f60</title>
<path fill="none" stroke="black" d="M1086.77,-71.7C1097,-62.97 1109.56,-52.24 1120.68,-42.75"/>
<polygon fill="black" stroke="black" points="1123.13,-45.26 1128.46,-36.1 1118.59,-39.94 1123.13,-45.26"/>
</g>
<!-- ast.Name object at 0x7f5f65843790 -->
<g id="node54" class="node">
<title>ast.Name object at 0x7f5f65843790</title>
<path fill="#66cdaa" stroke="black" d="M1606.5,-324C1606.5,-324 1576.5,-324 1576.5,-324 1570.5,-324 1564.5,-318 1564.5,-312 1564.5,-312 1564.5,-300 1564.5,-300 1564.5,-294 1570.5,-288 1576.5,-288 1576.5,-288 1606.5,-288 1606.5,-288 1612.5,-288 1618.5,-294 1618.5,-300 1618.5,-300 1618.5,-312 1618.5,-312 1618.5,-318 1612.5,-324 1606.5,-324"/>
<text text-anchor="middle" x="1591.5" y="-302.3" font-family="Times,serif" font-size="14.00">Name</text>
</g>
<!-- ast.Return object at 0x7f5f65843c70&#45;&gt;ast.Name object at 0x7f5f65843790 -->
<g id="edge75" class="edge">
<title>ast.Return object at 0x7f5f65843c70&#45;&gt;ast.Name object at 0x7f5f65843790</title>
<path fill="none" stroke="black" d="M1568.16,-359.7C1571.69,-351.73 1575.96,-342.1 1579.87,-333.26"/>
<polygon fill="black" stroke="black" points="1583.08,-334.67 1583.93,-324.1 1576.68,-331.83 1583.08,-334.67"/>
</g>
<!-- ast.Name object at 0x7f5f65843790&#45;&gt;ast.Load object at 0x7f5faeaf1f60 -->
<g id="edge76" class="edge">
<title>ast.Name object at 0x7f5f65843790&#45;&gt;ast.Load object at 0x7f5faeaf1f60</title>
<path fill="none" stroke="black" d="M1593.83,-287.81C1598.66,-244.39 1604.58,-129.68 1542.5,-72 1491.18,-24.32 1273.51,-18.93 1185.57,-18.74"/>
<polygon fill="black" stroke="black" points="1185.51,-15.24 1175.51,-18.74 1185.51,-22.24 1185.51,-15.24"/>
</g>
<!-- ast.arguments object at 0x7f5f65843f10 -->
<g id="node56" class="node">
<title>ast.arguments object at 0x7f5f65843f10</title>
<path fill="#66cdaa" stroke="black" d="M1918.5,-396C1918.5,-396 1868.5,-396 1868.5,-396 1862.5,-396 1856.5,-390 1856.5,-384 1856.5,-384 1856.5,-372 1856.5,-372 1856.5,-366 1862.5,-360 1868.5,-360 1868.5,-360 1918.5,-360 1918.5,-360 1924.5,-360 1930.5,-366 1930.5,-372 1930.5,-372 1930.5,-384 1930.5,-384 1930.5,-390 1924.5,-396 1918.5,-396"/>
<text text-anchor="middle" x="1893.5" y="-374.3" font-family="Times,serif" font-size="14.00">arguments</text>
</g>
<!-- ast.FunctionDef object at 0x7f5f658438b0&#45;&gt;ast.arguments object at 0x7f5f65843f10 -->
<g id="edge78" class="edge">
<title>ast.FunctionDef object at 0x7f5f658438b0&#45;&gt;ast.arguments object at 0x7f5f65843f10</title>
<path fill="none" stroke="black" d="M1774.15,-431.88C1796.15,-422.13 1823.86,-409.85 1847.04,-399.58"/>
<polygon fill="black" stroke="black" points="1848.61,-402.72 1856.34,-395.47 1845.78,-396.32 1848.61,-402.72"/>
</g>
<!-- ast.If object at 0x7f5f658400a0 -->
<g id="node59" class="node">
<title>ast.If object at 0x7f5f658400a0</title>
<path fill="#66cdaa" stroke="black" d="M1750.5,-396C1750.5,-396 1720.5,-396 1720.5,-396 1714.5,-396 1708.5,-390 1708.5,-384 1708.5,-384 1708.5,-372 1708.5,-372 1708.5,-366 1714.5,-360 1720.5,-360 1720.5,-360 1750.5,-360 1750.5,-360 1756.5,-360 1762.5,-366 1762.5,-372 1762.5,-372 1762.5,-384 1762.5,-384 1762.5,-390 1756.5,-396 1750.5,-396"/>
<text text-anchor="middle" x="1735.5" y="-374.3" font-family="Times,serif" font-size="14.00">If</text>
</g>
<!-- ast.FunctionDef object at 0x7f5f658438b0&#45;&gt;ast.If object at 0x7f5f658400a0 -->
<g id="edge81" class="edge">
<title>ast.FunctionDef object at 0x7f5f658438b0&#45;&gt;ast.If object at 0x7f5f658400a0</title>
<path fill="none" stroke="black" d="M1735.5,-431.7C1735.5,-423.98 1735.5,-414.71 1735.5,-406.11"/>
<polygon fill="black" stroke="black" points="1739,-406.1 1735.5,-396.1 1732,-406.1 1739,-406.1"/>
</g>
<!-- ast.arg object at 0x7f5f658438e0 -->
<g id="node57" class="node">
<title>ast.arg object at 0x7f5f658438e0</title>
<path fill="#66cdaa" stroke="black" d="M1908.5,-324C1908.5,-324 1878.5,-324 1878.5,-324 1872.5,-324 1866.5,-318 1866.5,-312 1866.5,-312 1866.5,-300 1866.5,-300 1866.5,-294 1872.5,-288 1878.5,-288 1878.5,-288 1908.5,-288 1908.5,-288 1914.5,-288 1920.5,-294 1920.5,-300 1920.5,-300 1920.5,-312 1920.5,-312 1920.5,-318 1914.5,-324 1908.5,-324"/>
<text text-anchor="middle" x="1893.5" y="-302.3" font-family="Times,serif" font-size="14.00">arg</text>
</g>
<!-- ast.arguments object at 0x7f5f65843f10&#45;&gt;ast.arg object at 0x7f5f658438e0 -->
<g id="edge79" class="edge">
<title>ast.arguments object at 0x7f5f65843f10&#45;&gt;ast.arg object at 0x7f5f658438e0</title>
<path fill="none" stroke="black" d="M1893.5,-359.7C1893.5,-351.98 1893.5,-342.71 1893.5,-334.11"/>
<polygon fill="black" stroke="black" points="1897,-334.1 1893.5,-324.1 1890,-334.1 1897,-334.1"/>
</g>
<!-- ast.arg object at 0x7f5f658407f0 -->
<g id="node58" class="node">
<title>ast.arg object at 0x7f5f658407f0</title>
<path fill="#66cdaa" stroke="black" d="M1980.5,-324C1980.5,-324 1950.5,-324 1950.5,-324 1944.5,-324 1938.5,-318 1938.5,-312 1938.5,-312 1938.5,-300 1938.5,-300 1938.5,-294 1944.5,-288 1950.5,-288 1950.5,-288 1980.5,-288 1980.5,-288 1986.5,-288 1992.5,-294 1992.5,-300 1992.5,-300 1992.5,-312 1992.5,-312 1992.5,-318 1986.5,-324 1980.5,-324"/>
<text text-anchor="middle" x="1965.5" y="-302.3" font-family="Times,serif" font-size="14.00">arg</text>
</g>
<!-- ast.arguments object at 0x7f5f65843f10&#45;&gt;ast.arg object at 0x7f5f658407f0 -->
<g id="edge80" class="edge">
<title>ast.arguments object at 0x7f5f65843f10&#45;&gt;ast.arg object at 0x7f5f658407f0</title>
<path fill="none" stroke="black" d="M1911.3,-359.7C1920.1,-351.14 1930.88,-340.66 1940.5,-331.3"/>
<polygon fill="black" stroke="black" points="1943.18,-333.58 1947.91,-324.1 1938.3,-328.57 1943.18,-333.58"/>
</g>
<!-- ast.Compare object at 0x7f5f65841060 -->
<g id="node60" class="node">
<title>ast.Compare object at 0x7f5f65841060</title>
<path fill="#66cdaa" stroke="black" d="M1836,-324C1836,-324 1793,-324 1793,-324 1787,-324 1781,-318 1781,-312 1781,-312 1781,-300 1781,-300 1781,-294 1787,-288 1793,-288 1793,-288 1836,-288 1836,-288 1842,-288 1848,-294 1848,-300 1848,-300 1848,-312 1848,-312 1848,-318 1842,-324 1836,-324"/>
<text text-anchor="middle" x="1814.5" y="-302.3" font-family="Times,serif" font-size="14.00">Compare</text>
</g>
<!-- ast.If object at 0x7f5f658400a0&#45;&gt;ast.Compare object at 0x7f5f65841060 -->
<g id="edge82" class="edge">
<title>ast.If object at 0x7f5f658400a0&#45;&gt;ast.Compare object at 0x7f5f65841060</title>
<path fill="none" stroke="black" d="M1755.03,-359.7C1764.88,-350.97 1776.99,-340.24 1787.7,-330.75"/>
<polygon fill="black" stroke="black" points="1790.03,-333.36 1795.2,-324.1 1785.39,-328.12 1790.03,-333.36"/>
</g>
<!-- ast.Return object at 0x7f5f65841d20 -->
<g id="node64" class="node">
<title>ast.Return object at 0x7f5f65841d20</title>
<path fill="#66cdaa" stroke="black" d="M1678.5,-324C1678.5,-324 1648.5,-324 1648.5,-324 1642.5,-324 1636.5,-318 1636.5,-312 1636.5,-312 1636.5,-300 1636.5,-300 1636.5,-294 1642.5,-288 1648.5,-288 1648.5,-288 1678.5,-288 1678.5,-288 1684.5,-288 1690.5,-294 1690.5,-300 1690.5,-300 1690.5,-312 1690.5,-312 1690.5,-318 1684.5,-324 1678.5,-324"/>
<text text-anchor="middle" x="1663.5" y="-302.3" font-family="Times,serif" font-size="14.00">Return</text>
</g>
<!-- ast.If object at 0x7f5f658400a0&#45;&gt;ast.Return object at 0x7f5f65841d20 -->
<g id="edge87" class="edge">
<title>ast.If object at 0x7f5f658400a0&#45;&gt;ast.Return object at 0x7f5f65841d20</title>
<path fill="none" stroke="black" d="M1717.7,-359.7C1708.9,-351.14 1698.12,-340.66 1688.5,-331.3"/>
<polygon fill="black" stroke="black" points="1690.7,-328.57 1681.09,-324.1 1685.82,-333.58 1690.7,-328.57"/>
</g>
<!-- ast.Return object at 0x7f5f658421d0 -->
<g id="node66" class="node">
<title>ast.Return object at 0x7f5f658421d0</title>
<path fill="#66cdaa" stroke="black" d="M1750.5,-324C1750.5,-324 1720.5,-324 1720.5,-324 1714.5,-324 1708.5,-318 1708.5,-312 1708.5,-312 1708.5,-300 1708.5,-300 1708.5,-294 1714.5,-288 1720.5,-288 1720.5,-288 1750.5,-288 1750.5,-288 1756.5,-288 1762.5,-294 1762.5,-300 1762.5,-300 1762.5,-312 1762.5,-312 1762.5,-318 1756.5,-324 1750.5,-324"/>
<text text-anchor="middle" x="1735.5" y="-302.3" font-family="Times,serif" font-size="14.00">Return</text>
</g>
<!-- ast.If object at 0x7f5f658400a0&#45;&gt;ast.Return object at 0x7f5f658421d0 -->
<g id="edge90" class="edge">
<title>ast.If object at 0x7f5f658400a0&#45;&gt;ast.Return object at 0x7f5f658421d0</title>
<path fill="none" stroke="black" d="M1735.5,-359.7C1735.5,-351.98 1735.5,-342.71 1735.5,-334.11"/>
<polygon fill="black" stroke="black" points="1739,-334.1 1735.5,-324.1 1732,-334.1 1739,-334.1"/>
</g>
<!-- ast.Name object at 0x7f5f65842710 -->
<g id="node61" class="node">
<title>ast.Name object at 0x7f5f65842710</title>
<path fill="#66cdaa" stroke="black" d="M1826.5,-252C1826.5,-252 1796.5,-252 1796.5,-252 1790.5,-252 1784.5,-246 1784.5,-240 1784.5,-240 1784.5,-228 1784.5,-228 1784.5,-222 1790.5,-216 1796.5,-216 1796.5,-216 1826.5,-216 1826.5,-216 1832.5,-216 1838.5,-222 1838.5,-228 1838.5,-228 1838.5,-240 1838.5,-240 1838.5,-246 1832.5,-252 1826.5,-252"/>
<text text-anchor="middle" x="1811.5" y="-230.3" font-family="Times,serif" font-size="14.00">Name</text>
</g>
<!-- ast.Compare object at 0x7f5f65841060&#45;&gt;ast.Name object at 0x7f5f65842710 -->
<g id="edge83" class="edge">
<title>ast.Compare object at 0x7f5f65841060&#45;&gt;ast.Name object at 0x7f5f65842710</title>
<path fill="none" stroke="black" d="M1813.76,-287.7C1813.43,-279.98 1813.03,-270.71 1812.66,-262.11"/>
<polygon fill="black" stroke="black" points="1816.16,-261.95 1812.23,-252.1 1809.16,-262.25 1816.16,-261.95"/>
</g>
<!-- ast.Eq object at 0x7f5faeaf2890 -->
<g id="node62" class="node">
<title>ast.Eq object at 0x7f5faeaf2890</title>
<path fill="#66cdaa" stroke="black" d="M1898.5,-252C1898.5,-252 1868.5,-252 1868.5,-252 1862.5,-252 1856.5,-246 1856.5,-240 1856.5,-240 1856.5,-228 1856.5,-228 1856.5,-222 1862.5,-216 1868.5,-216 1868.5,-216 1898.5,-216 1898.5,-216 1904.5,-216 1910.5,-222 1910.5,-228 1910.5,-228 1910.5,-240 1910.5,-240 1910.5,-246 1904.5,-252 1898.5,-252"/>
<text text-anchor="middle" x="1883.5" y="-230.3" font-family="Times,serif" font-size="14.00">Eq</text>
</g>
<!-- ast.Compare object at 0x7f5f65841060&#45;&gt;ast.Eq object at 0x7f5faeaf2890 -->
<g id="edge85" class="edge">
<title>ast.Compare object at 0x7f5f65841060&#45;&gt;ast.Eq object at 0x7f5faeaf2890</title>
<path fill="none" stroke="black" d="M1831.56,-287.7C1840,-279.14 1850.32,-268.66 1859.54,-259.3"/>
<polygon fill="black" stroke="black" points="1862.11,-261.68 1866.64,-252.1 1857.13,-256.77 1862.11,-261.68"/>
</g>
<!-- ast.Constant object at 0x7f5f658414e0 -->
<g id="node63" class="node">
<title>ast.Constant object at 0x7f5f658414e0</title>
<path fill="#66cdaa" stroke="black" d="M1982,-252C1982,-252 1941,-252 1941,-252 1935,-252 1929,-246 1929,-240 1929,-240 1929,-228 1929,-228 1929,-222 1935,-216 1941,-216 1941,-216 1982,-216 1982,-216 1988,-216 1994,-222 1994,-228 1994,-228 1994,-240 1994,-240 1994,-246 1988,-252 1982,-252"/>
<text text-anchor="middle" x="1961.5" y="-230.3" font-family="Times,serif" font-size="14.00">Constant</text>
</g>
<!-- ast.Compare object at 0x7f5f65841060&#45;&gt;ast.Constant object at 0x7f5f658414e0 -->
<g id="edge86" class="edge">
<title>ast.Compare object at 0x7f5f65841060&#45;&gt;ast.Constant object at 0x7f5f658414e0</title>
<path fill="none" stroke="black" d="M1848.22,-288.94C1869.53,-278.79 1897.22,-265.61 1919.89,-254.81"/>
<polygon fill="black" stroke="black" points="1921.42,-257.96 1928.94,-250.5 1918.41,-251.64 1921.42,-257.96"/>
</g>
<!-- ast.Name object at 0x7f5f65842710&#45;&gt;ast.Load object at 0x7f5faeaf1f60 -->
<g id="edge84" class="edge">
<title>ast.Name object at 0x7f5f65842710&#45;&gt;ast.Load object at 0x7f5faeaf1f60</title>
<path fill="none" stroke="black" d="M1835.67,-216C1877.1,-184.89 1953.25,-117.83 1910.5,-72 1860.69,-18.61 1332.61,-17.86 1186.04,-18.69"/>
<polygon fill="black" stroke="black" points="1185.74,-15.19 1175.77,-18.75 1185.79,-22.19 1185.74,-15.19"/>
</g>
<!-- ast.Name object at 0x7f5f65841f30 -->
<g id="node65" class="node">
<title>ast.Name object at 0x7f5f65841f30</title>
<path fill="#66cdaa" stroke="black" d="M1655.5,-252C1655.5,-252 1625.5,-252 1625.5,-252 1619.5,-252 1613.5,-246 1613.5,-240 1613.5,-240 1613.5,-228 1613.5,-228 1613.5,-222 1619.5,-216 1625.5,-216 1625.5,-216 1655.5,-216 1655.5,-216 1661.5,-216 1667.5,-222 1667.5,-228 1667.5,-228 1667.5,-240 1667.5,-240 1667.5,-246 1661.5,-252 1655.5,-252"/>
<text text-anchor="middle" x="1640.5" y="-230.3" font-family="Times,serif" font-size="14.00">Name</text>
</g>
<!-- ast.Return object at 0x7f5f65841d20&#45;&gt;ast.Name object at 0x7f5f65841f30 -->
<g id="edge88" class="edge">
<title>ast.Return object at 0x7f5f65841d20&#45;&gt;ast.Name object at 0x7f5f65841f30</title>
<path fill="none" stroke="black" d="M1657.81,-287.7C1655.25,-279.9 1652.17,-270.51 1649.32,-261.83"/>
<polygon fill="black" stroke="black" points="1652.57,-260.51 1646.12,-252.1 1645.92,-262.7 1652.57,-260.51"/>
</g>
<!-- ast.Name object at 0x7f5f65841f30&#45;&gt;ast.Load object at 0x7f5faeaf1f60 -->
<g id="edge89" class="edge">
<title>ast.Name object at 0x7f5f65841f30&#45;&gt;ast.Load object at 0x7f5faeaf1f60</title>
<path fill="none" stroke="black" d="M1633.8,-215.76C1617.82,-174.69 1578.54,-74.34 1575.5,-72 1514.83,-25.37 1277.83,-19.43 1185.56,-18.92"/>
<polygon fill="black" stroke="black" points="1185.56,-15.42 1175.55,-18.88 1185.54,-22.42 1185.56,-15.42"/>
</g>
<!-- ast.Call object at 0x7f5f65842230 -->
<g id="node67" class="node">
<title>ast.Call object at 0x7f5f65842230</title>
<path fill="#66cdaa" stroke="black" d="M1746.5,-252C1746.5,-252 1716.5,-252 1716.5,-252 1710.5,-252 1704.5,-246 1704.5,-240 1704.5,-240 1704.5,-228 1704.5,-228 1704.5,-222 1710.5,-216 1716.5,-216 1716.5,-216 1746.5,-216 1746.5,-216 1752.5,-216 1758.5,-222 1758.5,-228 1758.5,-228 1758.5,-240 1758.5,-240 1758.5,-246 1752.5,-252 1746.5,-252"/>
<text text-anchor="middle" x="1731.5" y="-230.3" font-family="Times,serif" font-size="14.00">Call</text>
</g>
<!-- ast.Return object at 0x7f5f658421d0&#45;&gt;ast.Call object at 0x7f5f65842230 -->
<g id="edge91" class="edge">
<title>ast.Return object at 0x7f5f658421d0&#45;&gt;ast.Call object at 0x7f5f65842230</title>
<path fill="none" stroke="black" d="M1734.51,-287.7C1734.07,-279.98 1733.54,-270.71 1733.05,-262.11"/>
<polygon fill="black" stroke="black" points="1736.54,-261.89 1732.48,-252.1 1729.55,-262.29 1736.54,-261.89"/>
</g>
<!-- ast.Name object at 0x7f5f658422f0 -->
<g id="node68" class="node">
<title>ast.Name object at 0x7f5f658422f0</title>
<path fill="#66cdaa" stroke="black" d="M1744.5,-180C1744.5,-180 1714.5,-180 1714.5,-180 1708.5,-180 1702.5,-174 1702.5,-168 1702.5,-168 1702.5,-156 1702.5,-156 1702.5,-150 1708.5,-144 1714.5,-144 1714.5,-144 1744.5,-144 1744.5,-144 1750.5,-144 1756.5,-150 1756.5,-156 1756.5,-156 1756.5,-168 1756.5,-168 1756.5,-174 1750.5,-180 1744.5,-180"/>
<text text-anchor="middle" x="1729.5" y="-158.3" font-family="Times,serif" font-size="14.00">Name</text>
</g>
<!-- ast.Call object at 0x7f5f65842230&#45;&gt;ast.Name object at 0x7f5f658422f0 -->
<g id="edge92" class="edge">
<title>ast.Call object at 0x7f5f65842230&#45;&gt;ast.Name object at 0x7f5f658422f0</title>
<path fill="none" stroke="black" d="M1731.01,-215.7C1730.79,-207.98 1730.52,-198.71 1730.27,-190.11"/>
<polygon fill="black" stroke="black" points="1733.77,-190 1729.99,-180.1 1726.78,-190.2 1733.77,-190"/>
</g>
<!-- ast.BinOp object at 0x7f5f65842140 -->
<g id="node69" class="node">
<title>ast.BinOp object at 0x7f5f65842140</title>
<path fill="#66cdaa" stroke="black" d="M1816.5,-180C1816.5,-180 1786.5,-180 1786.5,-180 1780.5,-180 1774.5,-174 1774.5,-168 1774.5,-168 1774.5,-156 1774.5,-156 1774.5,-150 1780.5,-144 1786.5,-144 1786.5,-144 1816.5,-144 1816.5,-144 1822.5,-144 1828.5,-150 1828.5,-156 1828.5,-156 1828.5,-168 1828.5,-168 1828.5,-174 1822.5,-180 1816.5,-180"/>
<text text-anchor="middle" x="1801.5" y="-158.3" font-family="Times,serif" font-size="14.00">BinOp</text>
</g>
<!-- ast.Call object at 0x7f5f65842230&#45;&gt;ast.BinOp object at 0x7f5f65842140 -->
<g id="edge94" class="edge">
<title>ast.Call object at 0x7f5f65842230&#45;&gt;ast.BinOp object at 0x7f5f65842140</title>
<path fill="none" stroke="black" d="M1748.8,-215.7C1757.36,-207.14 1767.84,-196.66 1777.2,-187.3"/>
<polygon fill="black" stroke="black" points="1779.8,-189.65 1784.4,-180.1 1774.85,-184.7 1779.8,-189.65"/>
</g>
<!-- ast.Name object at 0x7f5f6e662b90 -->
<g id="node73" class="node">
<title>ast.Name object at 0x7f5f6e662b90</title>
<path fill="#66cdaa" stroke="black" d="M1671.5,-180C1671.5,-180 1641.5,-180 1641.5,-180 1635.5,-180 1629.5,-174 1629.5,-168 1629.5,-168 1629.5,-156 1629.5,-156 1629.5,-150 1635.5,-144 1641.5,-144 1641.5,-144 1671.5,-144 1671.5,-144 1677.5,-144 1683.5,-150 1683.5,-156 1683.5,-156 1683.5,-168 1683.5,-168 1683.5,-174 1677.5,-180 1671.5,-180"/>
<text text-anchor="middle" x="1656.5" y="-158.3" font-family="Times,serif" font-size="14.00">Name</text>
</g>
<!-- ast.Call object at 0x7f5f65842230&#45;&gt;ast.Name object at 0x7f5f6e662b90 -->
<g id="edge100" class="edge">
<title>ast.Call object at 0x7f5f65842230&#45;&gt;ast.Name object at 0x7f5f6e662b90</title>
<path fill="none" stroke="black" d="M1712.96,-215.7C1703.7,-207.05 1692.34,-196.45 1682.24,-187.03"/>
<polygon fill="black" stroke="black" points="1684.52,-184.37 1674.83,-180.1 1679.75,-189.49 1684.52,-184.37"/>
</g>
<!-- ast.Name object at 0x7f5f658422f0&#45;&gt;ast.Load object at 0x7f5faeaf1f60 -->
<g id="edge93" class="edge">
<title>ast.Name object at 0x7f5f658422f0&#45;&gt;ast.Load object at 0x7f5faeaf1f60</title>
<path fill="none" stroke="black" d="M1718.17,-143.78C1703.32,-122.82 1675.17,-88.23 1641.5,-72 1560.97,-33.19 1286.64,-22.47 1185.95,-19.8"/>
<polygon fill="black" stroke="black" points="1185.74,-16.3 1175.65,-19.54 1185.56,-23.3 1185.74,-16.3"/>
</g>
<!-- ast.Name object at 0x7f5f65840940 -->
<g id="node70" class="node">
<title>ast.Name object at 0x7f5f65840940</title>
<path fill="#66cdaa" stroke="black" d="M1745.5,-108C1745.5,-108 1715.5,-108 1715.5,-108 1709.5,-108 1703.5,-102 1703.5,-96 1703.5,-96 1703.5,-84 1703.5,-84 1703.5,-78 1709.5,-72 1715.5,-72 1715.5,-72 1745.5,-72 1745.5,-72 1751.5,-72 1757.5,-78 1757.5,-84 1757.5,-84 1757.5,-96 1757.5,-96 1757.5,-102 1751.5,-108 1745.5,-108"/>
<text text-anchor="middle" x="1730.5" y="-86.3" font-family="Times,serif" font-size="14.00">Name</text>
</g>
<!-- ast.BinOp object at 0x7f5f65842140&#45;&gt;ast.Name object at 0x7f5f65840940 -->
<g id="edge95" class="edge">
<title>ast.BinOp object at 0x7f5f65842140&#45;&gt;ast.Name object at 0x7f5f65840940</title>
<path fill="none" stroke="black" d="M1783.95,-143.7C1775.27,-135.14 1764.64,-124.66 1755.15,-115.3"/>
<polygon fill="black" stroke="black" points="1757.43,-112.63 1747.85,-108.1 1752.51,-117.62 1757.43,-112.63"/>
</g>
<!-- ast.Mod object at 0x7f5faeaf2380 -->
<g id="node71" class="node">
<title>ast.Mod object at 0x7f5faeaf2380</title>
<path fill="#66cdaa" stroke="black" d="M1889.5,-108C1889.5,-108 1859.5,-108 1859.5,-108 1853.5,-108 1847.5,-102 1847.5,-96 1847.5,-96 1847.5,-84 1847.5,-84 1847.5,-78 1853.5,-72 1859.5,-72 1859.5,-72 1889.5,-72 1889.5,-72 1895.5,-72 1901.5,-78 1901.5,-84 1901.5,-84 1901.5,-96 1901.5,-96 1901.5,-102 1895.5,-108 1889.5,-108"/>
<text text-anchor="middle" x="1874.5" y="-86.3" font-family="Times,serif" font-size="14.00">Mod</text>
</g>
<!-- ast.BinOp object at 0x7f5f65842140&#45;&gt;ast.Mod object at 0x7f5faeaf2380 -->
<g id="edge97" class="edge">
<title>ast.BinOp object at 0x7f5f65842140&#45;&gt;ast.Mod object at 0x7f5faeaf2380</title>
<path fill="none" stroke="black" d="M1819.54,-143.7C1828.56,-135.05 1839.62,-124.45 1849.44,-115.03"/>
<polygon fill="black" stroke="black" points="1851.87,-117.55 1856.66,-108.1 1847.02,-112.5 1851.87,-117.55"/>
</g>
<!-- ast.Name object at 0x7f5f7761f520 -->
<g id="node72" class="node">
<title>ast.Name object at 0x7f5f7761f520</title>
<path fill="#66cdaa" stroke="black" d="M1817.5,-108C1817.5,-108 1787.5,-108 1787.5,-108 1781.5,-108 1775.5,-102 1775.5,-96 1775.5,-96 1775.5,-84 1775.5,-84 1775.5,-78 1781.5,-72 1787.5,-72 1787.5,-72 1817.5,-72 1817.5,-72 1823.5,-72 1829.5,-78 1829.5,-84 1829.5,-84 1829.5,-96 1829.5,-96 1829.5,-102 1823.5,-108 1817.5,-108"/>
<text text-anchor="middle" x="1802.5" y="-86.3" font-family="Times,serif" font-size="14.00">Name</text>
</g>
<!-- ast.BinOp object at 0x7f5f65842140&#45;&gt;ast.Name object at 0x7f5f7761f520 -->
<g id="edge98" class="edge">
<title>ast.BinOp object at 0x7f5f65842140&#45;&gt;ast.Name object at 0x7f5f7761f520</title>
<path fill="none" stroke="black" d="M1801.75,-143.7C1801.86,-135.98 1801.99,-126.71 1802.11,-118.11"/>
<polygon fill="black" stroke="black" points="1805.61,-118.15 1802.26,-108.1 1798.61,-118.05 1805.61,-118.15"/>
</g>
<!-- ast.Name object at 0x7f5f65840940&#45;&gt;ast.Load object at 0x7f5faeaf1f60 -->
<g id="edge96" class="edge">
<title>ast.Name object at 0x7f5f65840940&#45;&gt;ast.Load object at 0x7f5faeaf1f60</title>
<path fill="none" stroke="black" d="M1703.09,-76.34C1698.62,-74.65 1693.98,-73.12 1689.5,-72 1504.54,-25.69 1274.56,-19.46 1185.83,-18.9"/>
<polygon fill="black" stroke="black" points="1185.73,-15.4 1175.72,-18.86 1185.7,-22.4 1185.73,-15.4"/>
</g>
<!-- ast.Name object at 0x7f5f7761f520&#45;&gt;ast.Load object at 0x7f5faeaf1f60 -->
<g id="edge99" class="edge">
<title>ast.Name object at 0x7f5f7761f520&#45;&gt;ast.Load object at 0x7f5faeaf1f60</title>
<path fill="none" stroke="black" d="M1775.37,-74.96C1772.43,-73.81 1769.44,-72.79 1766.5,-72 1655.84,-42.16 1301.96,-25.3 1185.82,-20.47"/>
<polygon fill="black" stroke="black" points="1185.78,-16.96 1175.65,-20.05 1185.5,-23.96 1185.78,-16.96"/>
</g>
<!-- ast.Name object at 0x7f5f6e662b90&#45;&gt;ast.Load object at 0x7f5faeaf1f60 -->
<g id="edge101" class="edge">
<title>ast.Name object at 0x7f5f6e662b90&#45;&gt;ast.Load object at 0x7f5faeaf1f60</title>
<path fill="none" stroke="black" d="M1653.34,-143.7C1648.58,-122.99 1637.43,-88.98 1613.5,-72 1544.93,-23.35 1283.32,-18.72 1185.61,-18.73"/>
<polygon fill="black" stroke="black" points="1185.59,-15.23 1175.59,-18.75 1185.6,-22.23 1185.59,-15.23"/>
</g>
</g>
</svg>
