<?xml version="1.0" encoding="UTF-8" standalone="no"?>
<!DOCTYPE svg PUBLIC "-//W3C//DTD SVG 1.1//EN"
 "http://www.w3.org/Graphics/SVG/1.1/DTD/svg11.dtd">
<!-- Generated by graphviz version 2.43.0 (0)
 -->
<!-- Title: %3 Pages: 1 -->
<svg width="859pt" height="548pt"
 viewBox="0.00 0.00 859.33 548.00" xmlns="http://www.w3.org/2000/svg" xmlns:xlink="http://www.w3.org/1999/xlink">
<g id="graph0" class="graph" transform="scale(1 1) rotate(0) translate(4 544)">
<title>%3</title>
<polygon fill="white" stroke="transparent" points="-4,4 -4,-544 855.33,-544 855.33,4 -4,4"/>
<!-- ast.Module object at 0x7f622c813010 -->
<g id="node1" class="node">
<title>ast.Module object at 0x7f622c813010</title>
<path fill="#66cdaa" stroke="black" d="M259.83,-540C259.83,-540 224.83,-540 224.83,-540 218.83,-540 212.83,-534 212.83,-528 212.83,-528 212.83,-516 212.83,-516 212.83,-510 218.83,-504 224.83,-504 224.83,-504 259.83,-504 259.83,-504 265.83,-504 271.83,-510 271.83,-516 271.83,-516 271.83,-528 271.83,-528 271.83,-534 265.83,-540 259.83,-540"/>
<text text-anchor="middle" x="242.33" y="-518.3" font-family="Times,serif" font-size="14.00">Module</text>
</g>
<!-- ast.FunctionDef object at 0x7f622c810400 -->
<g id="node2" class="node">
<title>ast.FunctionDef object at 0x7f622c810400</title>
<path fill="#66cdaa" stroke="black" d="M272.83,-468C272.83,-468 211.83,-468 211.83,-468 205.83,-468 199.83,-462 199.83,-456 199.83,-456 199.83,-444 199.83,-444 199.83,-438 205.83,-432 211.83,-432 211.83,-432 272.83,-432 272.83,-432 278.83,-432 284.83,-438 284.83,-444 284.83,-444 284.83,-456 284.83,-456 284.83,-462 278.83,-468 272.83,-468"/>
<text text-anchor="middle" x="242.33" y="-446.3" font-family="Times,serif" font-size="14.00">FunctionDef</text>
</g>
<!-- ast.Module object at 0x7f622c813010&#45;&gt;ast.FunctionDef object at 0x7f622c810400 -->
<g id="edge1" class="edge">
<title>ast.Module object at 0x7f622c813010&#45;&gt;ast.FunctionDef object at 0x7f622c810400</title>
<path fill="none" stroke="black" d="M242.33,-503.7C242.33,-495.98 242.33,-486.71 242.33,-478.11"/>
<polygon fill="black" stroke="black" points="245.83,-478.1 242.33,-468.1 238.83,-478.1 245.83,-478.1"/>
</g>
<!-- ast.arguments object at 0x7f622c8125c0 -->
<g id="node3" class="node">
<title>ast.arguments object at 0x7f622c8125c0</title>
<path fill="#66cdaa" stroke="black" d="M139.33,-396C139.33,-396 89.33,-396 89.33,-396 83.33,-396 77.33,-390 77.33,-384 77.33,-384 77.33,-372 77.33,-372 77.33,-366 83.33,-360 89.33,-360 89.33,-360 139.33,-360 139.33,-360 145.33,-360 151.33,-366 151.33,-372 151.33,-372 151.33,-384 151.33,-384 151.33,-390 145.33,-396 139.33,-396"/>
<text text-anchor="middle" x="114.33" y="-374.3" font-family="Times,serif" font-size="14.00">arguments</text>
</g>
<!-- ast.FunctionDef object at 0x7f622c810400&#45;&gt;ast.arguments object at 0x7f622c8125c0 -->
<g id="edge2" class="edge">
<title>ast.FunctionDef object at 0x7f622c810400&#45;&gt;ast.arguments object at 0x7f622c8125c0</title>
<path fill="none" stroke="black" d="M211.02,-431.88C194.13,-422.64 173.09,-411.13 154.95,-401.21"/>
<polygon fill="black" stroke="black" points="156.22,-397.92 145.77,-396.19 152.86,-404.06 156.22,-397.92"/>
</g>
<!-- ast.Assign object at 0x7f622c8135e0 -->
<g id="node5" class="node">
<title>ast.Assign object at 0x7f622c8135e0</title>
<path fill="#66cdaa" stroke="black" d="M700.33,-396C700.33,-396 670.33,-396 670.33,-396 664.33,-396 658.33,-390 658.33,-384 658.33,-384 658.33,-372 658.33,-372 658.33,-366 664.33,-360 670.33,-360 670.33,-360 700.33,-360 700.33,-360 706.33,-360 712.33,-366 712.33,-372 712.33,-372 712.33,-384 712.33,-384 712.33,-390 706.33,-396 700.33,-396"/>
<text text-anchor="middle" x="685.33" y="-374.3" font-family="Times,serif" font-size="14.00">Assign</text>
</g>
<!-- ast.FunctionDef object at 0x7f622c810400&#45;&gt;ast.Assign object at 0x7f622c8135e0 -->
<g id="edge4" class="edge">
<title>ast.FunctionDef object at 0x7f622c810400&#45;&gt;ast.Assign object at 0x7f622c8135e0</title>
<path fill="none" stroke="black" d="M285.21,-442.22C371.77,-428.55 566.06,-397.85 647.88,-384.92"/>
<polygon fill="black" stroke="black" points="648.87,-388.3 658.2,-383.29 647.78,-381.39 648.87,-388.3"/>
</g>
<!-- ast.For object at 0x7f622c812440 -->
<g id="node9" class="node">
<title>ast.For object at 0x7f622c812440</title>
<path fill="#66cdaa" stroke="black" d="M298.33,-396C298.33,-396 268.33,-396 268.33,-396 262.33,-396 256.33,-390 256.33,-384 256.33,-384 256.33,-372 256.33,-372 256.33,-366 262.33,-360 268.33,-360 268.33,-360 298.33,-360 298.33,-360 304.33,-360 310.33,-366 310.33,-372 310.33,-372 310.33,-384 310.33,-384 310.33,-390 304.33,-396 298.33,-396"/>
<text text-anchor="middle" x="283.33" y="-374.3" font-family="Times,serif" font-size="14.00">For</text>
</g>
<!-- ast.FunctionDef object at 0x7f622c810400&#45;&gt;ast.For object at 0x7f622c812440 -->
<g id="edge8" class="edge">
<title>ast.FunctionDef object at 0x7f622c810400&#45;&gt;ast.For object at 0x7f622c812440</title>
<path fill="none" stroke="black" d="M252.47,-431.7C257.19,-423.64 262.9,-413.89 268.12,-404.98"/>
<polygon fill="black" stroke="black" points="271.28,-406.5 273.32,-396.1 265.24,-402.96 271.28,-406.5"/>
</g>
<!-- ast.Return object at 0x7f62d28d3100 -->
<g id="node31" class="node">
<title>ast.Return object at 0x7f62d28d3100</title>
<path fill="#66cdaa" stroke="black" d="M221.33,-396C221.33,-396 191.33,-396 191.33,-396 185.33,-396 179.33,-390 179.33,-384 179.33,-384 179.33,-372 179.33,-372 179.33,-366 185.33,-360 191.33,-360 191.33,-360 221.33,-360 221.33,-360 227.33,-360 233.33,-366 233.33,-372 233.33,-372 233.33,-384 233.33,-384 233.33,-390 227.33,-396 221.33,-396"/>
<text text-anchor="middle" x="206.33" y="-374.3" font-family="Times,serif" font-size="14.00">Return</text>
</g>
<!-- ast.FunctionDef object at 0x7f622c810400&#45;&gt;ast.Return object at 0x7f62d28d3100 -->
<g id="edge41" class="edge">
<title>ast.FunctionDef object at 0x7f622c810400&#45;&gt;ast.Return object at 0x7f62d28d3100</title>
<path fill="none" stroke="black" d="M233.43,-431.7C229.34,-423.73 224.38,-414.1 219.84,-405.26"/>
<polygon fill="black" stroke="black" points="222.82,-403.4 215.13,-396.1 216.59,-406.6 222.82,-403.4"/>
</g>
<!-- ast.arg object at 0x7f622c810490 -->
<g id="node4" class="node">
<title>ast.arg object at 0x7f622c810490</title>
<path fill="#66cdaa" stroke="black" d="M90.33,-324C90.33,-324 60.33,-324 60.33,-324 54.33,-324 48.33,-318 48.33,-312 48.33,-312 48.33,-300 48.33,-300 48.33,-294 54.33,-288 60.33,-288 60.33,-288 90.33,-288 90.33,-288 96.33,-288 102.33,-294 102.33,-300 102.33,-300 102.33,-312 102.33,-312 102.33,-318 96.33,-324 90.33,-324"/>
<text text-anchor="middle" x="75.33" y="-302.3" font-family="Times,serif" font-size="14.00">arg</text>
</g>
<!-- ast.arguments object at 0x7f622c8125c0&#45;&gt;ast.arg object at 0x7f622c810490 -->
<g id="edge3" class="edge">
<title>ast.arguments object at 0x7f622c8125c0&#45;&gt;ast.arg object at 0x7f622c810490</title>
<path fill="none" stroke="black" d="M104.69,-359.7C100.21,-351.64 94.77,-341.89 89.81,-332.98"/>
<polygon fill="black" stroke="black" points="92.79,-331.14 84.86,-324.1 86.67,-334.54 92.79,-331.14"/>
</g>
<!-- ast.Name object at 0x7f622c811870 -->
<g id="node6" class="node">
<title>ast.Name object at 0x7f622c811870</title>
<path fill="#66cdaa" stroke="black" d="M839.33,-252C839.33,-252 809.33,-252 809.33,-252 803.33,-252 797.33,-246 797.33,-240 797.33,-240 797.33,-228 797.33,-228 797.33,-222 803.33,-216 809.33,-216 809.33,-216 839.33,-216 839.33,-216 845.33,-216 851.33,-222 851.33,-228 851.33,-228 851.33,-240 851.33,-240 851.33,-246 845.33,-252 839.33,-252"/>
<text text-anchor="middle" x="824.33" y="-230.3" font-family="Times,serif" font-size="14.00">Name</text>
</g>
<!-- ast.Assign object at 0x7f622c8135e0&#45;&gt;ast.Name object at 0x7f622c811870 -->
<g id="edge5" class="edge">
<title>ast.Assign object at 0x7f622c8135e0&#45;&gt;ast.Name object at 0x7f622c811870</title>
<path fill="none" stroke="black" d="M702.1,-359.87C726.63,-334.82 772.4,-288.05 800.44,-259.41"/>
<polygon fill="black" stroke="black" points="803.01,-261.78 807.51,-252.19 798.01,-256.89 803.01,-261.78"/>
</g>
<!-- ast.Constant object at 0x7f622c812e60 -->
<g id="node8" class="node">
<title>ast.Constant object at 0x7f622c812e60</title>
<path fill="#66cdaa" stroke="black" d="M705.83,-324C705.83,-324 664.83,-324 664.83,-324 658.83,-324 652.83,-318 652.83,-312 652.83,-312 652.83,-300 652.83,-300 652.83,-294 658.83,-288 664.83,-288 664.83,-288 705.83,-288 705.83,-288 711.83,-288 717.83,-294 717.83,-300 717.83,-300 717.83,-312 717.83,-312 717.83,-318 711.83,-324 705.83,-324"/>
<text text-anchor="middle" x="685.33" y="-302.3" font-family="Times,serif" font-size="14.00">Constant</text>
</g>
<!-- ast.Assign object at 0x7f622c8135e0&#45;&gt;ast.Constant object at 0x7f622c812e60 -->
<g id="edge7" class="edge">
<title>ast.Assign object at 0x7f622c8135e0&#45;&gt;ast.Constant object at 0x7f622c812e60</title>
<path fill="none" stroke="black" d="M685.33,-359.7C685.33,-351.98 685.33,-342.71 685.33,-334.11"/>
<polygon fill="black" stroke="black" points="688.83,-334.1 685.33,-324.1 681.83,-334.1 688.83,-334.1"/>
</g>
<!-- ast.Store object at 0x7f62d61ee050 -->
<g id="node7" class="node">
<title>ast.Store object at 0x7f62d61ee050</title>
<path fill="#66cdaa" stroke="black" d="M734.33,-108C734.33,-108 704.33,-108 704.33,-108 698.33,-108 692.33,-102 692.33,-96 692.33,-96 692.33,-84 692.33,-84 692.33,-78 698.33,-72 704.33,-72 704.33,-72 734.33,-72 734.33,-72 740.33,-72 746.33,-78 746.33,-84 746.33,-84 746.33,-96 746.33,-96 746.33,-102 740.33,-108 734.33,-108"/>
<text text-anchor="middle" x="719.33" y="-86.3" font-family="Times,serif" font-size="14.00">Store</text>
</g>
<!-- ast.Name object at 0x7f622c811870&#45;&gt;ast.Store object at 0x7f62d61ee050 -->
<g id="edge6" class="edge">
<title>ast.Name object at 0x7f622c811870&#45;&gt;ast.Store object at 0x7f62d61ee050</title>
<path fill="none" stroke="black" d="M825.04,-215.68C824.98,-196.48 822.27,-165.42 807.33,-144 794.83,-126.06 774.11,-113.14 755.92,-104.56"/>
<polygon fill="black" stroke="black" points="757.25,-101.32 746.69,-100.46 754.41,-107.72 757.25,-101.32"/>
</g>
<!-- ast.Tuple object at 0x7f622c8133d0 -->
<g id="node10" class="node">
<title>ast.Tuple object at 0x7f622c8133d0</title>
<path fill="#66cdaa" stroke="black" d="M721.33,-252C721.33,-252 691.33,-252 691.33,-252 685.33,-252 679.33,-246 679.33,-240 679.33,-240 679.33,-228 679.33,-228 679.33,-222 685.33,-216 691.33,-216 691.33,-216 721.33,-216 721.33,-216 727.33,-216 733.33,-222 733.33,-228 733.33,-228 733.33,-240 733.33,-240 733.33,-246 727.33,-252 721.33,-252"/>
<text text-anchor="middle" x="706.33" y="-230.3" font-family="Times,serif" font-size="14.00">Tuple</text>
</g>
<!-- ast.For object at 0x7f622c812440&#45;&gt;ast.Tuple object at 0x7f622c8133d0 -->
<g id="edge9" class="edge">
<title>ast.For object at 0x7f622c812440&#45;&gt;ast.Tuple object at 0x7f622c8133d0</title>
<path fill="none" stroke="black" d="M310.44,-367.9C383.77,-343.28 586.15,-275.35 669.61,-247.33"/>
<polygon fill="black" stroke="black" points="670.82,-250.62 679.18,-244.11 668.59,-243.98 670.82,-250.62"/>
</g>
<!-- ast.Call object at 0x7f622c812650 -->
<g id="node13" class="node">
<title>ast.Call object at 0x7f622c812650</title>
<path fill="#66cdaa" stroke="black" d="M102.33,-180C102.33,-180 72.33,-180 72.33,-180 66.33,-180 60.33,-174 60.33,-168 60.33,-168 60.33,-156 60.33,-156 60.33,-150 66.33,-144 72.33,-144 72.33,-144 102.33,-144 102.33,-144 108.33,-144 114.33,-150 114.33,-156 114.33,-156 114.33,-168 114.33,-168 114.33,-174 108.33,-180 102.33,-180"/>
<text text-anchor="middle" x="87.33" y="-158.3" font-family="Times,serif" font-size="14.00">Call</text>
</g>
<!-- ast.For object at 0x7f622c812440&#45;&gt;ast.Call object at 0x7f622c812650 -->
<g id="edge15" class="edge">
<title>ast.For object at 0x7f622c812440&#45;&gt;ast.Call object at 0x7f622c812650</title>
<path fill="none" stroke="black" d="M267.63,-359.85C233.08,-322.13 150.37,-231.83 110.12,-187.88"/>
<polygon fill="black" stroke="black" points="112.45,-185.24 103.12,-180.23 107.29,-189.97 112.45,-185.24"/>
</g>
<!-- ast.If object at 0x7f622c811b10 -->
<g id="node17" class="node">
<title>ast.If object at 0x7f622c811b10</title>
<path fill="#66cdaa" stroke="black" d="M318.33,-324C318.33,-324 288.33,-324 288.33,-324 282.33,-324 276.33,-318 276.33,-312 276.33,-312 276.33,-300 276.33,-300 276.33,-294 282.33,-288 288.33,-288 288.33,-288 318.33,-288 318.33,-288 324.33,-288 330.33,-294 330.33,-300 330.33,-300 330.33,-312 330.33,-312 330.33,-318 324.33,-324 318.33,-324"/>
<text text-anchor="middle" x="303.33" y="-302.3" font-family="Times,serif" font-size="14.00">If</text>
</g>
<!-- ast.For object at 0x7f622c812440&#45;&gt;ast.If object at 0x7f622c811b10 -->
<g id="edge20" class="edge">
<title>ast.For object at 0x7f622c812440&#45;&gt;ast.If object at 0x7f622c811b10</title>
<path fill="none" stroke="black" d="M288.28,-359.7C290.51,-351.9 293.19,-342.51 295.67,-333.83"/>
<polygon fill="black" stroke="black" points="299.06,-334.68 298.45,-324.1 292.33,-332.76 299.06,-334.68"/>
</g>
<!-- ast.Tuple object at 0x7f622c8133d0&#45;&gt;ast.Store object at 0x7f62d61ee050 -->
<g id="edge14" class="edge">
<title>ast.Tuple object at 0x7f622c8133d0&#45;&gt;ast.Store object at 0x7f62d61ee050</title>
<path fill="none" stroke="black" d="M733.52,-224.18C753.45,-216.12 779.1,-202.05 791.33,-180 799.1,-166.01 798.55,-158.28 791.33,-144 783.64,-128.77 769.27,-116.85 755.39,-108.2"/>
<polygon fill="black" stroke="black" points="756.82,-104.98 746.41,-102.99 753.3,-111.04 756.82,-104.98"/>
</g>
<!-- ast.Name object at 0x7f622c811cf0 -->
<g id="node11" class="node">
<title>ast.Name object at 0x7f622c811cf0</title>
<path fill="#66cdaa" stroke="black" d="M698.33,-180C698.33,-180 668.33,-180 668.33,-180 662.33,-180 656.33,-174 656.33,-168 656.33,-168 656.33,-156 656.33,-156 656.33,-150 662.33,-144 668.33,-144 668.33,-144 698.33,-144 698.33,-144 704.33,-144 710.33,-150 710.33,-156 710.33,-156 710.33,-168 710.33,-168 710.33,-174 704.33,-180 698.33,-180"/>
<text text-anchor="middle" x="683.33" y="-158.3" font-family="Times,serif" font-size="14.00">Name</text>
</g>
<!-- ast.Tuple object at 0x7f622c8133d0&#45;&gt;ast.Name object at 0x7f622c811cf0 -->
<g id="edge10" class="edge">
<title>ast.Tuple object at 0x7f622c8133d0&#45;&gt;ast.Name object at 0x7f622c811cf0</title>
<path fill="none" stroke="black" d="M700.65,-215.7C698.09,-207.9 695,-198.51 692.15,-189.83"/>
<polygon fill="black" stroke="black" points="695.4,-188.51 688.95,-180.1 688.75,-190.7 695.4,-188.51"/>
</g>
<!-- ast.Name object at 0x7f622c8136d0 -->
<g id="node12" class="node">
<title>ast.Name object at 0x7f622c8136d0</title>
<path fill="#66cdaa" stroke="black" d="M770.33,-180C770.33,-180 740.33,-180 740.33,-180 734.33,-180 728.33,-174 728.33,-168 728.33,-168 728.33,-156 728.33,-156 728.33,-150 734.33,-144 740.33,-144 740.33,-144 770.33,-144 770.33,-144 776.33,-144 782.33,-150 782.33,-156 782.33,-156 782.33,-168 782.33,-168 782.33,-174 776.33,-180 770.33,-180"/>
<text text-anchor="middle" x="755.33" y="-158.3" font-family="Times,serif" font-size="14.00">Name</text>
</g>
<!-- ast.Tuple object at 0x7f622c8133d0&#45;&gt;ast.Name object at 0x7f622c8136d0 -->
<g id="edge12" class="edge">
<title>ast.Tuple object at 0x7f622c8133d0&#45;&gt;ast.Name object at 0x7f622c8136d0</title>
<path fill="none" stroke="black" d="M718.45,-215.7C724.2,-207.47 731.2,-197.48 737.54,-188.42"/>
<polygon fill="black" stroke="black" points="740.49,-190.3 743.36,-180.1 734.76,-186.29 740.49,-190.3"/>
</g>
<!-- ast.Name object at 0x7f622c811cf0&#45;&gt;ast.Store object at 0x7f62d61ee050 -->
<g id="edge11" class="edge">
<title>ast.Name object at 0x7f622c811cf0&#45;&gt;ast.Store object at 0x7f62d61ee050</title>
<path fill="none" stroke="black" d="M692.23,-143.7C696.33,-135.73 701.28,-126.1 705.83,-117.26"/>
<polygon fill="black" stroke="black" points="709.08,-118.6 710.54,-108.1 702.85,-115.4 709.08,-118.6"/>
</g>
<!-- ast.Name object at 0x7f622c8136d0&#45;&gt;ast.Store object at 0x7f62d61ee050 -->
<g id="edge13" class="edge">
<title>ast.Name object at 0x7f622c8136d0&#45;&gt;ast.Store object at 0x7f62d61ee050</title>
<path fill="none" stroke="black" d="M746.43,-143.7C742.34,-135.73 737.38,-126.1 732.84,-117.26"/>
<polygon fill="black" stroke="black" points="735.82,-115.4 728.13,-108.1 729.59,-118.6 735.82,-115.4"/>
</g>
<!-- ast.Name object at 0x7f622c812bf0 -->
<g id="node14" class="node">
<title>ast.Name object at 0x7f622c812bf0</title>
<path fill="#66cdaa" stroke="black" d="M66.33,-108C66.33,-108 36.33,-108 36.33,-108 30.33,-108 24.33,-102 24.33,-96 24.33,-96 24.33,-84 24.33,-84 24.33,-78 30.33,-72 36.33,-72 36.33,-72 66.33,-72 66.33,-72 72.33,-72 78.33,-78 78.33,-84 78.33,-84 78.33,-96 78.33,-96 78.33,-102 72.33,-108 66.33,-108"/>
<text text-anchor="middle" x="51.33" y="-86.3" font-family="Times,serif" font-size="14.00">Name</text>
</g>
<!-- ast.Call object at 0x7f622c812650&#45;&gt;ast.Name object at 0x7f622c812bf0 -->
<g id="edge16" class="edge">
<title>ast.Call object at 0x7f622c812650&#45;&gt;ast.Name object at 0x7f622c812bf0</title>
<path fill="none" stroke="black" d="M78.43,-143.7C74.34,-135.73 69.38,-126.1 64.84,-117.26"/>
<polygon fill="black" stroke="black" points="67.82,-115.4 60.13,-108.1 61.59,-118.6 67.82,-115.4"/>
</g>
<!-- ast.Name object at 0x7f622c813430 -->
<g id="node16" class="node">
<title>ast.Name object at 0x7f622c813430</title>
<path fill="#66cdaa" stroke="black" d="M138.33,-108C138.33,-108 108.33,-108 108.33,-108 102.33,-108 96.33,-102 96.33,-96 96.33,-96 96.33,-84 96.33,-84 96.33,-78 102.33,-72 108.33,-72 108.33,-72 138.33,-72 138.33,-72 144.33,-72 150.33,-78 150.33,-84 150.33,-84 150.33,-96 150.33,-96 150.33,-102 144.33,-108 138.33,-108"/>
<text text-anchor="middle" x="123.33" y="-86.3" font-family="Times,serif" font-size="14.00">Name</text>
</g>
<!-- ast.Call object at 0x7f622c812650&#45;&gt;ast.Name object at 0x7f622c813430 -->
<g id="edge18" class="edge">
<title>ast.Call object at 0x7f622c812650&#45;&gt;ast.Name object at 0x7f622c813430</title>
<path fill="none" stroke="black" d="M96.23,-143.7C100.33,-135.73 105.28,-126.1 109.83,-117.26"/>
<polygon fill="black" stroke="black" points="113.08,-118.6 114.54,-108.1 106.85,-115.4 113.08,-118.6"/>
</g>
<!-- ast.Load object at 0x7f62d61edff0 -->
<g id="node15" class="node">
<title>ast.Load object at 0x7f62d61edff0</title>
<path fill="#66cdaa" stroke="black" d="M216.33,-36C216.33,-36 186.33,-36 186.33,-36 180.33,-36 174.33,-30 174.33,-24 174.33,-24 174.33,-12 174.33,-12 174.33,-6 180.33,0 186.33,0 186.33,0 216.33,0 216.33,0 222.33,0 228.33,-6 228.33,-12 228.33,-12 228.33,-24 228.33,-24 228.33,-30 222.33,-36 216.33,-36"/>
<text text-anchor="middle" x="201.33" y="-14.3" font-family="Times,serif" font-size="14.00">Load</text>
</g>
<!-- ast.Name object at 0x7f622c812bf0&#45;&gt;ast.Load object at 0x7f62d61edff0 -->
<g id="edge17" class="edge">
<title>ast.Name object at 0x7f622c812bf0&#45;&gt;ast.Load object at 0x7f62d61edff0</title>
<path fill="none" stroke="black" d="M78.45,-76.17C81.45,-74.76 84.45,-73.35 87.33,-72 113.27,-59.85 142.58,-46.22 164.98,-35.83"/>
<polygon fill="black" stroke="black" points="166.53,-38.97 174.13,-31.59 163.59,-32.62 166.53,-38.97"/>
</g>
<!-- ast.Name object at 0x7f622c813430&#45;&gt;ast.Load object at 0x7f62d61edff0 -->
<g id="edge19" class="edge">
<title>ast.Name object at 0x7f622c813430&#45;&gt;ast.Load object at 0x7f62d61edff0</title>
<path fill="none" stroke="black" d="M142.61,-71.7C152.25,-63.05 164.06,-52.45 174.56,-43.03"/>
<polygon fill="black" stroke="black" points="177.17,-45.39 182.27,-36.1 172.49,-40.18 177.17,-45.39"/>
</g>
<!-- ast.Compare object at 0x7f622c8121d0 -->
<g id="node18" class="node">
<title>ast.Compare object at 0x7f622c8121d0</title>
<path fill="#66cdaa" stroke="black" d="M395.83,-252C395.83,-252 352.83,-252 352.83,-252 346.83,-252 340.83,-246 340.83,-240 340.83,-240 340.83,-228 340.83,-228 340.83,-222 346.83,-216 352.83,-216 352.83,-216 395.83,-216 395.83,-216 401.83,-216 407.83,-222 407.83,-228 407.83,-228 407.83,-240 407.83,-240 407.83,-246 401.83,-252 395.83,-252"/>
<text text-anchor="middle" x="374.33" y="-230.3" font-family="Times,serif" font-size="14.00">Compare</text>
</g>
<!-- ast.If object at 0x7f622c811b10&#45;&gt;ast.Compare object at 0x7f622c8121d0 -->
<g id="edge21" class="edge">
<title>ast.If object at 0x7f622c811b10&#45;&gt;ast.Compare object at 0x7f622c8121d0</title>
<path fill="none" stroke="black" d="M320.88,-287.7C329.57,-279.14 340.2,-268.66 349.68,-259.3"/>
<polygon fill="black" stroke="black" points="352.32,-261.62 356.99,-252.1 347.41,-256.63 352.32,-261.62"/>
</g>
<!-- ast.AugAssign object at 0x7f62d2603250 -->
<g id="node22" class="node">
<title>ast.AugAssign object at 0x7f62d2603250</title>
<path fill="#66cdaa" stroke="black" d="M295.83,-252C295.83,-252 242.83,-252 242.83,-252 236.83,-252 230.83,-246 230.83,-240 230.83,-240 230.83,-228 230.83,-228 230.83,-222 236.83,-216 242.83,-216 242.83,-216 295.83,-216 295.83,-216 301.83,-216 307.83,-222 307.83,-228 307.83,-228 307.83,-240 307.83,-240 307.83,-246 301.83,-252 295.83,-252"/>
<text text-anchor="middle" x="269.33" y="-230.3" font-family="Times,serif" font-size="14.00">AugAssign</text>
</g>
<!-- ast.If object at 0x7f622c811b10&#45;&gt;ast.AugAssign object at 0x7f62d2603250 -->
<g id="edge26" class="edge">
<title>ast.If object at 0x7f622c811b10&#45;&gt;ast.AugAssign object at 0x7f62d2603250</title>
<path fill="none" stroke="black" d="M294.93,-287.7C291.06,-279.73 286.38,-270.1 282.09,-261.26"/>
<polygon fill="black" stroke="black" points="285.16,-259.57 277.64,-252.1 278.86,-262.63 285.16,-259.57"/>
</g>
<!-- ast.AugAssign object at 0x7f62d2602ad0 -->
<g id="node28" class="node">
<title>ast.AugAssign object at 0x7f62d2602ad0</title>
<path fill="#66cdaa" stroke="black" d="M544.83,-252C544.83,-252 491.83,-252 491.83,-252 485.83,-252 479.83,-246 479.83,-240 479.83,-240 479.83,-228 479.83,-228 479.83,-222 485.83,-216 491.83,-216 491.83,-216 544.83,-216 544.83,-216 550.83,-216 556.83,-222 556.83,-228 556.83,-228 556.83,-240 556.83,-240 556.83,-246 550.83,-252 544.83,-252"/>
<text text-anchor="middle" x="518.33" y="-230.3" font-family="Times,serif" font-size="14.00">AugAssign</text>
</g>
<!-- ast.If object at 0x7f622c811b10&#45;&gt;ast.AugAssign object at 0x7f62d2602ad0 -->
<g id="edge35" class="edge">
<title>ast.If object at 0x7f622c811b10&#45;&gt;ast.AugAssign object at 0x7f62d2602ad0</title>
<path fill="none" stroke="black" d="M330.56,-296.13C365.58,-284.73 426.98,-264.74 470.01,-250.73"/>
<polygon fill="black" stroke="black" points="471.29,-254 479.71,-247.57 469.12,-247.34 471.29,-254"/>
</g>
<!-- ast.Name object at 0x7f622c810760 -->
<g id="node19" class="node">
<title>ast.Name object at 0x7f622c810760</title>
<path fill="#66cdaa" stroke="black" d="M463.33,-108C463.33,-108 433.33,-108 433.33,-108 427.33,-108 421.33,-102 421.33,-96 421.33,-96 421.33,-84 421.33,-84 421.33,-78 427.33,-72 433.33,-72 433.33,-72 463.33,-72 463.33,-72 469.33,-72 475.33,-78 475.33,-84 475.33,-84 475.33,-96 475.33,-96 475.33,-102 469.33,-108 463.33,-108"/>
<text text-anchor="middle" x="448.33" y="-86.3" font-family="Times,serif" font-size="14.00">Name</text>
</g>
<!-- ast.Compare object at 0x7f622c8121d0&#45;&gt;ast.Name object at 0x7f622c810760 -->
<g id="edge22" class="edge">
<title>ast.Compare object at 0x7f622c8121d0&#45;&gt;ast.Name object at 0x7f622c810760</title>
<path fill="none" stroke="black" d="M408.19,-221.88C427.47,-213.6 449.99,-200.2 461.33,-180 472.03,-160.96 467.16,-136.16 460.54,-117.57"/>
<polygon fill="black" stroke="black" points="463.78,-116.26 456.88,-108.23 457.26,-118.81 463.78,-116.26"/>
</g>
<!-- ast.Eq object at 0x7f62d61ee920 -->
<g id="node20" class="node">
<title>ast.Eq object at 0x7f62d61ee920</title>
<path fill="#66cdaa" stroke="black" d="M356.33,-180C356.33,-180 326.33,-180 326.33,-180 320.33,-180 314.33,-174 314.33,-168 314.33,-168 314.33,-156 314.33,-156 314.33,-150 320.33,-144 326.33,-144 326.33,-144 356.33,-144 356.33,-144 362.33,-144 368.33,-150 368.33,-156 368.33,-156 368.33,-168 368.33,-168 368.33,-174 362.33,-180 356.33,-180"/>
<text text-anchor="middle" x="341.33" y="-158.3" font-family="Times,serif" font-size="14.00">Eq</text>
</g>
<!-- ast.Compare object at 0x7f622c8121d0&#45;&gt;ast.Eq object at 0x7f62d61ee920 -->
<g id="edge24" class="edge">
<title>ast.Compare object at 0x7f622c8121d0&#45;&gt;ast.Eq object at 0x7f62d61ee920</title>
<path fill="none" stroke="black" d="M366.18,-215.7C362.42,-207.73 357.88,-198.1 353.72,-189.26"/>
<polygon fill="black" stroke="black" points="356.83,-187.66 349.4,-180.1 350.5,-190.64 356.83,-187.66"/>
</g>
<!-- ast.Constant object at 0x7f622c811e40 -->
<g id="node21" class="node">
<title>ast.Constant object at 0x7f622c811e40</title>
<path fill="#66cdaa" stroke="black" d="M439.83,-180C439.83,-180 398.83,-180 398.83,-180 392.83,-180 386.83,-174 386.83,-168 386.83,-168 386.83,-156 386.83,-156 386.83,-150 392.83,-144 398.83,-144 398.83,-144 439.83,-144 439.83,-144 445.83,-144 451.83,-150 451.83,-156 451.83,-156 451.83,-168 451.83,-168 451.83,-174 445.83,-180 439.83,-180"/>
<text text-anchor="middle" x="419.33" y="-158.3" font-family="Times,serif" font-size="14.00">Constant</text>
</g>
<!-- ast.Compare object at 0x7f622c8121d0&#45;&gt;ast.Constant object at 0x7f622c811e40 -->
<g id="edge25" class="edge">
<title>ast.Compare object at 0x7f622c8121d0&#45;&gt;ast.Constant object at 0x7f622c811e40</title>
<path fill="none" stroke="black" d="M385.46,-215.7C390.69,-207.56 397.03,-197.69 402.81,-188.7"/>
<polygon fill="black" stroke="black" points="405.87,-190.41 408.34,-180.1 399.99,-186.62 405.87,-190.41"/>
</g>
<!-- ast.Name object at 0x7f622c810760&#45;&gt;ast.Load object at 0x7f62d61edff0 -->
<g id="edge23" class="edge">
<title>ast.Name object at 0x7f622c810760&#45;&gt;ast.Load object at 0x7f62d61edff0</title>
<path fill="none" stroke="black" d="M420.96,-81.24C376.42,-68.62 288.24,-43.63 238.22,-29.45"/>
<polygon fill="black" stroke="black" points="239.03,-26.05 228.46,-26.69 237.12,-32.78 239.03,-26.05"/>
</g>
<!-- ast.Name object at 0x7f62d2600790 -->
<g id="node23" class="node">
<title>ast.Name object at 0x7f62d2600790</title>
<path fill="#66cdaa" stroke="black" d="M284.33,-180C284.33,-180 254.33,-180 254.33,-180 248.33,-180 242.33,-174 242.33,-168 242.33,-168 242.33,-156 242.33,-156 242.33,-150 248.33,-144 254.33,-144 254.33,-144 284.33,-144 284.33,-144 290.33,-144 296.33,-150 296.33,-156 296.33,-156 296.33,-168 296.33,-168 296.33,-174 290.33,-180 284.33,-180"/>
<text text-anchor="middle" x="269.33" y="-158.3" font-family="Times,serif" font-size="14.00">Name</text>
</g>
<!-- ast.AugAssign object at 0x7f62d2603250&#45;&gt;ast.Name object at 0x7f62d2600790 -->
<g id="edge27" class="edge">
<title>ast.AugAssign object at 0x7f62d2603250&#45;&gt;ast.Name object at 0x7f62d2600790</title>
<path fill="none" stroke="black" d="M269.33,-215.7C269.33,-207.98 269.33,-198.71 269.33,-190.11"/>
<polygon fill="black" stroke="black" points="272.83,-190.1 269.33,-180.1 265.83,-190.1 272.83,-190.1"/>
</g>
<!-- ast.Add object at 0x7f62d61ee230 -->
<g id="node24" class="node">
<title>ast.Add object at 0x7f62d61ee230</title>
<path fill="#66cdaa" stroke="black" d="M366.33,-108C366.33,-108 336.33,-108 336.33,-108 330.33,-108 324.33,-102 324.33,-96 324.33,-96 324.33,-84 324.33,-84 324.33,-78 330.33,-72 336.33,-72 336.33,-72 366.33,-72 366.33,-72 372.33,-72 378.33,-78 378.33,-84 378.33,-84 378.33,-96 378.33,-96 378.33,-102 372.33,-108 366.33,-108"/>
<text text-anchor="middle" x="351.33" y="-86.3" font-family="Times,serif" font-size="14.00">Add</text>
</g>
<!-- ast.AugAssign object at 0x7f62d2603250&#45;&gt;ast.Add object at 0x7f62d61ee230 -->
<g id="edge29" class="edge">
<title>ast.AugAssign object at 0x7f62d2603250&#45;&gt;ast.Add object at 0x7f62d61ee230</title>
<path fill="none" stroke="black" d="M253.22,-215.99C237.6,-197.34 218.3,-167.03 233.33,-144 253.48,-113.15 275.56,-122.71 314.54,-107.94"/>
<polygon fill="black" stroke="black" points="316.36,-110.97 324.24,-103.89 313.67,-104.51 316.36,-110.97"/>
</g>
<!-- ast.BinOp object at 0x7f62d2602620 -->
<g id="node25" class="node">
<title>ast.BinOp object at 0x7f62d2602620</title>
<path fill="#66cdaa" stroke="black" d="M174.33,-180C174.33,-180 144.33,-180 144.33,-180 138.33,-180 132.33,-174 132.33,-168 132.33,-168 132.33,-156 132.33,-156 132.33,-150 138.33,-144 144.33,-144 144.33,-144 174.33,-144 174.33,-144 180.33,-144 186.33,-150 186.33,-156 186.33,-156 186.33,-168 186.33,-168 186.33,-174 180.33,-180 174.33,-180"/>
<text text-anchor="middle" x="159.33" y="-158.3" font-family="Times,serif" font-size="14.00">BinOp</text>
</g>
<!-- ast.AugAssign object at 0x7f62d2603250&#45;&gt;ast.BinOp object at 0x7f62d2602620 -->
<g id="edge30" class="edge">
<title>ast.AugAssign object at 0x7f62d2603250&#45;&gt;ast.BinOp object at 0x7f62d2602620</title>
<path fill="none" stroke="black" d="M242.42,-215.88C228.18,-206.81 210.49,-195.55 195.1,-185.76"/>
<polygon fill="black" stroke="black" points="196.66,-182.61 186.35,-180.19 192.9,-188.51 196.66,-182.61"/>
</g>
<!-- ast.Name object at 0x7f62d2600790&#45;&gt;ast.Store object at 0x7f62d61ee050 -->
<g id="edge28" class="edge">
<title>ast.Name object at 0x7f62d2600790&#45;&gt;ast.Store object at 0x7f62d61ee050</title>
<path fill="none" stroke="black" d="M296.5,-147.09C299.44,-145.91 302.41,-144.85 305.33,-144 341.16,-133.53 587.46,-105.59 682.26,-95.07"/>
<polygon fill="black" stroke="black" points="682.71,-98.55 692.26,-93.97 681.94,-91.59 682.71,-98.55"/>
</g>
<!-- ast.BinOp object at 0x7f62d2602620&#45;&gt;ast.Add object at 0x7f62d61ee230 -->
<g id="edge33" class="edge">
<title>ast.BinOp object at 0x7f62d2602620&#45;&gt;ast.Add object at 0x7f62d61ee230</title>
<path fill="none" stroke="black" d="M186.55,-149.32C191.12,-147.47 195.84,-145.63 200.33,-144 247.82,-126.76 263.66,-127.35 314.45,-108.08"/>
<polygon fill="black" stroke="black" points="315.92,-111.26 323.99,-104.39 313.4,-104.74 315.92,-111.26"/>
</g>
<!-- ast.Name object at 0x7f62d26039a0 -->
<g id="node26" class="node">
<title>ast.Name object at 0x7f62d26039a0</title>
<path fill="#66cdaa" stroke="black" d="M294.33,-108C294.33,-108 264.33,-108 264.33,-108 258.33,-108 252.33,-102 252.33,-96 252.33,-96 252.33,-84 252.33,-84 252.33,-78 258.33,-72 264.33,-72 264.33,-72 294.33,-72 294.33,-72 300.33,-72 306.33,-78 306.33,-84 306.33,-84 306.33,-96 306.33,-96 306.33,-102 300.33,-108 294.33,-108"/>
<text text-anchor="middle" x="279.33" y="-86.3" font-family="Times,serif" font-size="14.00">Name</text>
</g>
<!-- ast.BinOp object at 0x7f62d2602620&#45;&gt;ast.Name object at 0x7f62d26039a0 -->
<g id="edge31" class="edge">
<title>ast.BinOp object at 0x7f62d2602620&#45;&gt;ast.Name object at 0x7f62d26039a0</title>
<path fill="none" stroke="black" d="M186.56,-145.12C203.44,-135.27 225.31,-122.52 243.57,-111.86"/>
<polygon fill="black" stroke="black" points="245.34,-114.88 252.21,-106.82 241.81,-108.84 245.34,-114.88"/>
</g>
<!-- ast.Constant object at 0x7f62d2603ee0 -->
<g id="node27" class="node">
<title>ast.Constant object at 0x7f62d2603ee0</title>
<path fill="#66cdaa" stroke="black" d="M221.83,-108C221.83,-108 180.83,-108 180.83,-108 174.83,-108 168.83,-102 168.83,-96 168.83,-96 168.83,-84 168.83,-84 168.83,-78 174.83,-72 180.83,-72 180.83,-72 221.83,-72 221.83,-72 227.83,-72 233.83,-78 233.83,-84 233.83,-84 233.83,-96 233.83,-96 233.83,-102 227.83,-108 221.83,-108"/>
<text text-anchor="middle" x="201.33" y="-86.3" font-family="Times,serif" font-size="14.00">Constant</text>
</g>
<!-- ast.BinOp object at 0x7f62d2602620&#45;&gt;ast.Constant object at 0x7f62d2603ee0 -->
<g id="edge34" class="edge">
<title>ast.BinOp object at 0x7f62d2602620&#45;&gt;ast.Constant object at 0x7f62d2603ee0</title>
<path fill="none" stroke="black" d="M169.72,-143.7C174.6,-135.56 180.52,-125.69 185.91,-116.7"/>
<polygon fill="black" stroke="black" points="188.93,-118.48 191.07,-108.1 182.92,-114.88 188.93,-118.48"/>
</g>
<!-- ast.Name object at 0x7f62d26039a0&#45;&gt;ast.Load object at 0x7f62d61edff0 -->
<g id="edge32" class="edge">
<title>ast.Name object at 0x7f62d26039a0&#45;&gt;ast.Load object at 0x7f62d61edff0</title>
<path fill="none" stroke="black" d="M260.05,-71.7C250.42,-63.05 238.61,-52.45 228.11,-43.03"/>
<polygon fill="black" stroke="black" points="230.17,-40.18 220.39,-36.1 225.5,-45.39 230.17,-40.18"/>
</g>
<!-- ast.AugAssign object at 0x7f62d2602ad0&#45;&gt;ast.Add object at 0x7f62d61ee230 -->
<g id="edge38" class="edge">
<title>ast.AugAssign object at 0x7f62d2602ad0&#45;&gt;ast.Add object at 0x7f62d61ee230</title>
<path fill="none" stroke="black" d="M510.94,-215.93C501.74,-196.38 484.41,-164.44 461.33,-144 440.09,-125.18 410.99,-111.55 388.05,-102.83"/>
<polygon fill="black" stroke="black" points="389.23,-99.53 378.64,-99.39 386.83,-106.11 389.23,-99.53"/>
</g>
<!-- ast.Name object at 0x7f62d1914c40 -->
<g id="node29" class="node">
<title>ast.Name object at 0x7f62d1914c40</title>
<path fill="#66cdaa" stroke="black" d="M626.33,-180C626.33,-180 596.33,-180 596.33,-180 590.33,-180 584.33,-174 584.33,-168 584.33,-168 584.33,-156 584.33,-156 584.33,-150 590.33,-144 596.33,-144 596.33,-144 626.33,-144 626.33,-144 632.33,-144 638.33,-150 638.33,-156 638.33,-156 638.33,-168 638.33,-168 638.33,-174 632.33,-180 626.33,-180"/>
<text text-anchor="middle" x="611.33" y="-158.3" font-family="Times,serif" font-size="14.00">Name</text>
</g>
<!-- ast.AugAssign object at 0x7f62d2602ad0&#45;&gt;ast.Name object at 0x7f62d1914c40 -->
<g id="edge36" class="edge">
<title>ast.AugAssign object at 0x7f62d2602ad0&#45;&gt;ast.Name object at 0x7f62d1914c40</title>
<path fill="none" stroke="black" d="M541.32,-215.7C553.15,-206.8 567.73,-195.82 580.51,-186.2"/>
<polygon fill="black" stroke="black" points="582.72,-188.91 588.61,-180.1 578.51,-183.32 582.72,-188.91"/>
</g>
<!-- ast.Name object at 0x7f62d28d1e70 -->
<g id="node30" class="node">
<title>ast.Name object at 0x7f62d28d1e70</title>
<path fill="#66cdaa" stroke="black" d="M547.33,-108C547.33,-108 517.33,-108 517.33,-108 511.33,-108 505.33,-102 505.33,-96 505.33,-96 505.33,-84 505.33,-84 505.33,-78 511.33,-72 517.33,-72 517.33,-72 547.33,-72 547.33,-72 553.33,-72 559.33,-78 559.33,-84 559.33,-84 559.33,-96 559.33,-96 559.33,-102 553.33,-108 547.33,-108"/>
<text text-anchor="middle" x="532.33" y="-86.3" font-family="Times,serif" font-size="14.00">Name</text>
</g>
<!-- ast.AugAssign object at 0x7f62d2602ad0&#45;&gt;ast.Name object at 0x7f62d28d1e70 -->
<g id="edge39" class="edge">
<title>ast.AugAssign object at 0x7f62d2602ad0&#45;&gt;ast.Name object at 0x7f62d28d1e70</title>
<path fill="none" stroke="black" d="M524.16,-215.56C527.27,-205.33 530.77,-192.08 532.33,-180 535,-159.44 534.87,-135.99 534.15,-118.32"/>
<polygon fill="black" stroke="black" points="537.63,-117.96 533.64,-108.15 530.64,-118.31 537.63,-117.96"/>
</g>
<!-- ast.Name object at 0x7f62d1914c40&#45;&gt;ast.Store object at 0x7f62d61ee050 -->
<g id="edge37" class="edge">
<title>ast.Name object at 0x7f62d1914c40&#45;&gt;ast.Store object at 0x7f62d61ee050</title>
<path fill="none" stroke="black" d="M637.75,-143.88C651.74,-134.81 669.11,-123.55 684.22,-113.76"/>
<polygon fill="black" stroke="black" points="686.32,-116.57 692.81,-108.19 682.52,-110.69 686.32,-116.57"/>
</g>
<!-- ast.Name object at 0x7f62d28d1e70&#45;&gt;ast.Load object at 0x7f62d61edff0 -->
<g id="edge40" class="edge">
<title>ast.Name object at 0x7f62d28d1e70&#45;&gt;ast.Load object at 0x7f62d61edff0</title>
<path fill="none" stroke="black" d="M505.15,-78.55C498.41,-76.19 491.16,-73.84 484.33,-72 397.67,-48.69 293.38,-32.01 238.8,-24.12"/>
<polygon fill="black" stroke="black" points="238.97,-20.61 228.57,-22.66 237.98,-27.54 238.97,-20.61"/>
</g>
<!-- ast.Name object at 0x7f62d28d2590 -->
<g id="node32" class="node">
<title>ast.Name object at 0x7f62d28d2590</title>
<path fill="#66cdaa" stroke="black" d="M162.33,-324C162.33,-324 132.33,-324 132.33,-324 126.33,-324 120.33,-318 120.33,-312 120.33,-312 120.33,-300 120.33,-300 120.33,-294 126.33,-288 132.33,-288 132.33,-288 162.33,-288 162.33,-288 168.33,-288 174.33,-294 174.33,-300 174.33,-300 174.33,-312 174.33,-312 174.33,-318 168.33,-324 162.33,-324"/>
<text text-anchor="middle" x="147.33" y="-302.3" font-family="Times,serif" font-size="14.00">Name</text>
</g>
<!-- ast.Return object at 0x7f62d28d3100&#45;&gt;ast.Name object at 0x7f62d28d2590 -->
<g id="edge42" class="edge">
<title>ast.Return object at 0x7f62d28d3100&#45;&gt;ast.Name object at 0x7f62d28d2590</title>
<path fill="none" stroke="black" d="M191.75,-359.7C184.68,-351.3 176.05,-341.07 168.29,-331.86"/>
<polygon fill="black" stroke="black" points="170.87,-329.49 161.75,-324.1 165.52,-334.01 170.87,-329.49"/>
</g>
<!-- ast.Name object at 0x7f62d28d2590&#45;&gt;ast.Load object at 0x7f62d61edff0 -->
<g id="edge43" class="edge">
<title>ast.Name object at 0x7f62d28d2590&#45;&gt;ast.Load object at 0x7f62d61edff0</title>
<path fill="none" stroke="black" d="M124.26,-287.98C73.08,-248.19 -41.11,-146.77 15.33,-72 33.23,-48.29 115.22,-32.04 164.17,-24.26"/>
<polygon fill="black" stroke="black" points="164.73,-27.72 174.08,-22.73 163.66,-20.8 164.73,-27.72"/>
</g>
</g>
</svg>
