<?xml version="1.0" encoding="UTF-8" standalone="no"?>
<!DOCTYPE svg PUBLIC "-//W3C//DTD SVG 1.1//EN"
 "http://www.w3.org/Graphics/SVG/1.1/DTD/svg11.dtd">
<!-- Generated by graphviz version 2.43.0 (0)
 -->
<!-- Title: %3 Pages: 1 -->
<svg width="1146pt" height="620pt"
 viewBox="0.00 0.00 1146.00 620.00" xmlns="http://www.w3.org/2000/svg" xmlns:xlink="http://www.w3.org/1999/xlink">
<g id="graph0" class="graph" transform="scale(1 1) rotate(0) translate(4 616)">
<title>%3</title>
<polygon fill="white" stroke="transparent" points="-4,4 -4,-616 1142,-616 1142,4 -4,4"/>
<!-- ast.Module object at 0x7f6448b847f0 -->
<g id="node1" class="node">
<title>ast.Module object at 0x7f6448b847f0</title>
<path fill="#66cdaa" stroke="black" d="M813.5,-612C813.5,-612 778.5,-612 778.5,-612 772.5,-612 766.5,-606 766.5,-600 766.5,-600 766.5,-588 766.5,-588 766.5,-582 772.5,-576 778.5,-576 778.5,-576 813.5,-576 813.5,-576 819.5,-576 825.5,-582 825.5,-588 825.5,-588 825.5,-600 825.5,-600 825.5,-606 819.5,-612 813.5,-612"/>
<text text-anchor="middle" x="796" y="-590.3" font-family="Times,serif" font-size="14.00">Module</text>
</g>
<!-- ast.FunctionDef object at 0x7f6448b86fb0 -->
<g id="node2" class="node">
<title>ast.FunctionDef object at 0x7f6448b86fb0</title>
<path fill="#66cdaa" stroke="black" d="M826.5,-540C826.5,-540 765.5,-540 765.5,-540 759.5,-540 753.5,-534 753.5,-528 753.5,-528 753.5,-516 753.5,-516 753.5,-510 759.5,-504 765.5,-504 765.5,-504 826.5,-504 826.5,-504 832.5,-504 838.5,-510 838.5,-516 838.5,-516 838.5,-528 838.5,-528 838.5,-534 832.5,-540 826.5,-540"/>
<text text-anchor="middle" x="796" y="-518.3" font-family="Times,serif" font-size="14.00">FunctionDef</text>
</g>
<!-- ast.Module object at 0x7f6448b847f0&#45;&gt;ast.FunctionDef object at 0x7f6448b86fb0 -->
<g id="edge1" class="edge">
<title>ast.Module object at 0x7f6448b847f0&#45;&gt;ast.FunctionDef object at 0x7f6448b86fb0</title>
<path fill="none" stroke="black" d="M796,-575.7C796,-567.98 796,-558.71 796,-550.11"/>
<polygon fill="black" stroke="black" points="799.5,-550.1 796,-540.1 792.5,-550.1 799.5,-550.1"/>
</g>
<!-- ast.arguments object at 0x7f6448b869e0 -->
<g id="node3" class="node">
<title>ast.arguments object at 0x7f6448b869e0</title>
<path fill="#66cdaa" stroke="black" d="M621,-468C621,-468 571,-468 571,-468 565,-468 559,-462 559,-456 559,-456 559,-444 559,-444 559,-438 565,-432 571,-432 571,-432 621,-432 621,-432 627,-432 633,-438 633,-444 633,-444 633,-456 633,-456 633,-462 627,-468 621,-468"/>
<text text-anchor="middle" x="596" y="-446.3" font-family="Times,serif" font-size="14.00">arguments</text>
</g>
<!-- ast.FunctionDef object at 0x7f6448b86fb0&#45;&gt;ast.arguments object at 0x7f6448b869e0 -->
<g id="edge2" class="edge">
<title>ast.FunctionDef object at 0x7f6448b86fb0&#45;&gt;ast.arguments object at 0x7f6448b869e0</title>
<path fill="none" stroke="black" d="M753.09,-505.98C720.61,-494.61 676.03,-479.01 642.65,-467.33"/>
<polygon fill="black" stroke="black" points="643.71,-463.99 633.12,-463.99 641.4,-470.6 643.71,-463.99"/>
</g>
<!-- ast.Assign object at 0x7f6448b86620 -->
<g id="node5" class="node">
<title>ast.Assign object at 0x7f6448b86620</title>
<path fill="#66cdaa" stroke="black" d="M1054,-252C1054,-252 1024,-252 1024,-252 1018,-252 1012,-246 1012,-240 1012,-240 1012,-228 1012,-228 1012,-222 1018,-216 1024,-216 1024,-216 1054,-216 1054,-216 1060,-216 1066,-222 1066,-228 1066,-228 1066,-240 1066,-240 1066,-246 1060,-252 1054,-252"/>
<text text-anchor="middle" x="1039" y="-230.3" font-family="Times,serif" font-size="14.00">Assign</text>
</g>
<!-- ast.FunctionDef object at 0x7f6448b86fb0&#45;&gt;ast.Assign object at 0x7f6448b86620 -->
<g id="edge4" class="edge">
<title>ast.FunctionDef object at 0x7f6448b86fb0&#45;&gt;ast.Assign object at 0x7f6448b86620</title>
<path fill="none" stroke="black" d="M823.5,-503.87C837.85,-494.25 855.24,-481.49 869,-468 936.58,-401.76 997.02,-306.34 1024.04,-260.93"/>
<polygon fill="black" stroke="black" points="1027.08,-262.67 1029.14,-252.28 1021.05,-259.11 1027.08,-262.67"/>
</g>
<!-- ast.Assign object at 0x7f643e247370 -->
<g id="node12" class="node">
<title>ast.Assign object at 0x7f643e247370</title>
<path fill="#66cdaa" stroke="black" d="M771,-468C771,-468 741,-468 741,-468 735,-468 729,-462 729,-456 729,-456 729,-444 729,-444 729,-438 735,-432 741,-432 741,-432 771,-432 771,-432 777,-432 783,-438 783,-444 783,-444 783,-456 783,-456 783,-462 777,-468 771,-468"/>
<text text-anchor="middle" x="756" y="-446.3" font-family="Times,serif" font-size="14.00">Assign</text>
</g>
<!-- ast.FunctionDef object at 0x7f6448b86fb0&#45;&gt;ast.Assign object at 0x7f643e247370 -->
<g id="edge12" class="edge">
<title>ast.FunctionDef object at 0x7f6448b86fb0&#45;&gt;ast.Assign object at 0x7f643e247370</title>
<path fill="none" stroke="black" d="M786.11,-503.7C781.51,-495.64 775.94,-485.89 770.85,-476.98"/>
<polygon fill="black" stroke="black" points="773.77,-475.05 765.77,-468.1 767.7,-478.52 773.77,-475.05"/>
</g>
<!-- ast.Return object at 0x7f643e434910 -->
<g id="node32" class="node">
<title>ast.Return object at 0x7f643e434910</title>
<path fill="#66cdaa" stroke="black" d="M848,-468C848,-468 818,-468 818,-468 812,-468 806,-462 806,-456 806,-456 806,-444 806,-444 806,-438 812,-432 818,-432 818,-432 848,-432 848,-432 854,-432 860,-438 860,-444 860,-444 860,-456 860,-456 860,-462 854,-468 848,-468"/>
<text text-anchor="middle" x="833" y="-446.3" font-family="Times,serif" font-size="14.00">Return</text>
</g>
<!-- ast.FunctionDef object at 0x7f6448b86fb0&#45;&gt;ast.Return object at 0x7f643e434910 -->
<g id="edge42" class="edge">
<title>ast.FunctionDef object at 0x7f6448b86fb0&#45;&gt;ast.Return object at 0x7f643e434910</title>
<path fill="none" stroke="black" d="M805.15,-503.7C809.4,-495.64 814.56,-485.89 819.27,-476.98"/>
<polygon fill="black" stroke="black" points="822.38,-478.58 823.96,-468.1 816.19,-475.31 822.38,-478.58"/>
</g>
<!-- ast.arg object at 0x7f6448b861d0 -->
<g id="node4" class="node">
<title>ast.arg object at 0x7f6448b861d0</title>
<path fill="#66cdaa" stroke="black" d="M522,-396C522,-396 492,-396 492,-396 486,-396 480,-390 480,-384 480,-384 480,-372 480,-372 480,-366 486,-360 492,-360 492,-360 522,-360 522,-360 528,-360 534,-366 534,-372 534,-372 534,-384 534,-384 534,-390 528,-396 522,-396"/>
<text text-anchor="middle" x="507" y="-374.3" font-family="Times,serif" font-size="14.00">arg</text>
</g>
<!-- ast.arguments object at 0x7f6448b869e0&#45;&gt;ast.arg object at 0x7f6448b861d0 -->
<g id="edge3" class="edge">
<title>ast.arguments object at 0x7f6448b869e0&#45;&gt;ast.arg object at 0x7f6448b861d0</title>
<path fill="none" stroke="black" d="M574,-431.7C562.79,-422.88 549,-412.03 536.85,-402.47"/>
<polygon fill="black" stroke="black" points="538.77,-399.54 528.75,-396.1 534.44,-405.04 538.77,-399.54"/>
</g>
<!-- ast.Name object at 0x7f643e245480 -->
<g id="node6" class="node">
<title>ast.Name object at 0x7f643e245480</title>
<path fill="#66cdaa" stroke="black" d="M1054,-180C1054,-180 1024,-180 1024,-180 1018,-180 1012,-174 1012,-168 1012,-168 1012,-156 1012,-156 1012,-150 1018,-144 1024,-144 1024,-144 1054,-144 1054,-144 1060,-144 1066,-150 1066,-156 1066,-156 1066,-168 1066,-168 1066,-174 1060,-180 1054,-180"/>
<text text-anchor="middle" x="1039" y="-158.3" font-family="Times,serif" font-size="14.00">Name</text>
</g>
<!-- ast.Assign object at 0x7f6448b86620&#45;&gt;ast.Name object at 0x7f643e245480 -->
<g id="edge5" class="edge">
<title>ast.Assign object at 0x7f6448b86620&#45;&gt;ast.Name object at 0x7f643e245480</title>
<path fill="none" stroke="black" d="M1039,-215.7C1039,-207.98 1039,-198.71 1039,-190.11"/>
<polygon fill="black" stroke="black" points="1042.5,-190.1 1039,-180.1 1035.5,-190.1 1042.5,-190.1"/>
</g>
<!-- ast.Call object at 0x7f643e246260 -->
<g id="node8" class="node">
<title>ast.Call object at 0x7f643e246260</title>
<path fill="#66cdaa" stroke="black" d="M1126,-180C1126,-180 1096,-180 1096,-180 1090,-180 1084,-174 1084,-168 1084,-168 1084,-156 1084,-156 1084,-150 1090,-144 1096,-144 1096,-144 1126,-144 1126,-144 1132,-144 1138,-150 1138,-156 1138,-156 1138,-168 1138,-168 1138,-174 1132,-180 1126,-180"/>
<text text-anchor="middle" x="1111" y="-158.3" font-family="Times,serif" font-size="14.00">Call</text>
</g>
<!-- ast.Assign object at 0x7f6448b86620&#45;&gt;ast.Call object at 0x7f643e246260 -->
<g id="edge7" class="edge">
<title>ast.Assign object at 0x7f6448b86620&#45;&gt;ast.Call object at 0x7f643e246260</title>
<path fill="none" stroke="black" d="M1056.8,-215.7C1065.6,-207.14 1076.38,-196.66 1086,-187.3"/>
<polygon fill="black" stroke="black" points="1088.68,-189.58 1093.41,-180.1 1083.8,-184.57 1088.68,-189.58"/>
</g>
<!-- ast.Store object at 0x7f64909edfc0 -->
<g id="node7" class="node">
<title>ast.Store object at 0x7f64909edfc0</title>
<path fill="#66cdaa" stroke="black" d="M884,-108C884,-108 854,-108 854,-108 848,-108 842,-102 842,-96 842,-96 842,-84 842,-84 842,-78 848,-72 854,-72 854,-72 884,-72 884,-72 890,-72 896,-78 896,-84 896,-84 896,-96 896,-96 896,-102 890,-108 884,-108"/>
<text text-anchor="middle" x="869" y="-86.3" font-family="Times,serif" font-size="14.00">Store</text>
</g>
<!-- ast.Name object at 0x7f643e245480&#45;&gt;ast.Store object at 0x7f64909edfc0 -->
<g id="edge6" class="edge">
<title>ast.Name object at 0x7f643e245480&#45;&gt;ast.Store object at 0x7f64909edfc0</title>
<path fill="none" stroke="black" d="M1011.96,-148C1008.95,-146.62 1005.92,-145.26 1003,-144 970.39,-129.87 932.71,-115.1 905.63,-104.75"/>
<polygon fill="black" stroke="black" points="906.75,-101.44 896.16,-101.15 904.26,-107.98 906.75,-101.44"/>
</g>
<!-- ast.Name object at 0x7f643e247f40 -->
<g id="node9" class="node">
<title>ast.Name object at 0x7f643e247f40</title>
<path fill="#66cdaa" stroke="black" d="M1108,-108C1108,-108 1078,-108 1078,-108 1072,-108 1066,-102 1066,-96 1066,-96 1066,-84 1066,-84 1066,-78 1072,-72 1078,-72 1078,-72 1108,-72 1108,-72 1114,-72 1120,-78 1120,-84 1120,-84 1120,-96 1120,-96 1120,-102 1114,-108 1108,-108"/>
<text text-anchor="middle" x="1093" y="-86.3" font-family="Times,serif" font-size="14.00">Name</text>
</g>
<!-- ast.Call object at 0x7f643e246260&#45;&gt;ast.Name object at 0x7f643e247f40 -->
<g id="edge8" class="edge">
<title>ast.Call object at 0x7f643e246260&#45;&gt;ast.Name object at 0x7f643e247f40</title>
<path fill="none" stroke="black" d="M1106.55,-143.7C1104.55,-135.9 1102.13,-126.51 1099.9,-117.83"/>
<polygon fill="black" stroke="black" points="1103.28,-116.92 1097.4,-108.1 1096.5,-118.66 1103.28,-116.92"/>
</g>
<!-- ast.Name object at 0x7f643e2472e0 -->
<g id="node11" class="node">
<title>ast.Name object at 0x7f643e2472e0</title>
<path fill="#66cdaa" stroke="black" d="M1000,-108C1000,-108 970,-108 970,-108 964,-108 958,-102 958,-96 958,-96 958,-84 958,-84 958,-78 964,-72 970,-72 970,-72 1000,-72 1000,-72 1006,-72 1012,-78 1012,-84 1012,-84 1012,-96 1012,-96 1012,-102 1006,-108 1000,-108"/>
<text text-anchor="middle" x="985" y="-86.3" font-family="Times,serif" font-size="14.00">Name</text>
</g>
<!-- ast.Call object at 0x7f643e246260&#45;&gt;ast.Name object at 0x7f643e2472e0 -->
<g id="edge10" class="edge">
<title>ast.Call object at 0x7f643e246260&#45;&gt;ast.Name object at 0x7f643e2472e0</title>
<path fill="none" stroke="black" d="M1083.97,-145.98C1065.66,-135.81 1041.25,-122.25 1021.26,-111.14"/>
<polygon fill="black" stroke="black" points="1022.86,-108.03 1012.42,-106.23 1019.46,-114.15 1022.86,-108.03"/>
</g>
<!-- ast.Load object at 0x7f64909edf60 -->
<g id="node10" class="node">
<title>ast.Load object at 0x7f64909edf60</title>
<path fill="#66cdaa" stroke="black" d="M545,-36C545,-36 515,-36 515,-36 509,-36 503,-30 503,-24 503,-24 503,-12 503,-12 503,-6 509,0 515,0 515,0 545,0 545,0 551,0 557,-6 557,-12 557,-12 557,-24 557,-24 557,-30 551,-36 545,-36"/>
<text text-anchor="middle" x="530" y="-14.3" font-family="Times,serif" font-size="14.00">Load</text>
</g>
<!-- ast.Name object at 0x7f643e247f40&#45;&gt;ast.Load object at 0x7f64909edf60 -->
<g id="edge9" class="edge">
<title>ast.Name object at 0x7f643e247f40&#45;&gt;ast.Load object at 0x7f64909edf60</title>
<path fill="none" stroke="black" d="M1065.81,-81.74C1052.4,-78.37 1035.94,-74.56 1021,-72 933.45,-57 665.97,-31.56 567.18,-22.41"/>
<polygon fill="black" stroke="black" points="567.35,-18.91 557.07,-21.47 566.7,-25.88 567.35,-18.91"/>
</g>
<!-- ast.Name object at 0x7f643e2472e0&#45;&gt;ast.Load object at 0x7f64909edf60 -->
<g id="edge11" class="edge">
<title>ast.Name object at 0x7f643e2472e0&#45;&gt;ast.Load object at 0x7f64909edf60</title>
<path fill="none" stroke="black" d="M957.69,-82.71C942.27,-79.28 922.62,-75.11 905,-72 782.08,-50.28 635.24,-31.63 567.56,-23.44"/>
<polygon fill="black" stroke="black" points="567.74,-19.93 557.39,-22.21 566.9,-26.88 567.74,-19.93"/>
</g>
<!-- ast.Name object at 0x7f643e2477f0 -->
<g id="node13" class="node">
<title>ast.Name object at 0x7f643e2477f0</title>
<path fill="#66cdaa" stroke="black" d="M771,-396C771,-396 741,-396 741,-396 735,-396 729,-390 729,-384 729,-384 729,-372 729,-372 729,-366 735,-360 741,-360 741,-360 771,-360 771,-360 777,-360 783,-366 783,-372 783,-372 783,-384 783,-384 783,-390 777,-396 771,-396"/>
<text text-anchor="middle" x="756" y="-374.3" font-family="Times,serif" font-size="14.00">Name</text>
</g>
<!-- ast.Assign object at 0x7f643e247370&#45;&gt;ast.Name object at 0x7f643e2477f0 -->
<g id="edge13" class="edge">
<title>ast.Assign object at 0x7f643e247370&#45;&gt;ast.Name object at 0x7f643e2477f0</title>
<path fill="none" stroke="black" d="M756,-431.7C756,-423.98 756,-414.71 756,-406.11"/>
<polygon fill="black" stroke="black" points="759.5,-406.1 756,-396.1 752.5,-406.1 759.5,-406.1"/>
</g>
<!-- ast.Call object at 0x7f643e2453c0 -->
<g id="node14" class="node">
<title>ast.Call object at 0x7f643e2453c0</title>
<path fill="#66cdaa" stroke="black" d="M594,-396C594,-396 564,-396 564,-396 558,-396 552,-390 552,-384 552,-384 552,-372 552,-372 552,-366 558,-360 564,-360 564,-360 594,-360 594,-360 600,-360 606,-366 606,-372 606,-372 606,-384 606,-384 606,-390 600,-396 594,-396"/>
<text text-anchor="middle" x="579" y="-374.3" font-family="Times,serif" font-size="14.00">Call</text>
</g>
<!-- ast.Assign object at 0x7f643e247370&#45;&gt;ast.Call object at 0x7f643e2453c0 -->
<g id="edge15" class="edge">
<title>ast.Assign object at 0x7f643e247370&#45;&gt;ast.Call object at 0x7f643e2453c0</title>
<path fill="none" stroke="black" d="M728.73,-438.22C698.37,-426.21 649.15,-406.74 615.49,-393.43"/>
<polygon fill="black" stroke="black" points="616.6,-390.1 606.01,-389.68 614.02,-396.61 616.6,-390.1"/>
</g>
<!-- ast.Name object at 0x7f643e2477f0&#45;&gt;ast.Store object at 0x7f64909edfc0 -->
<g id="edge14" class="edge">
<title>ast.Name object at 0x7f643e2477f0&#45;&gt;ast.Store object at 0x7f64909edfc0</title>
<path fill="none" stroke="black" d="M761.91,-359.85C768.16,-341.87 778.44,-312.82 788,-288 811.73,-226.39 841.76,-154.89 857.76,-117.27"/>
<polygon fill="black" stroke="black" points="861,-118.6 861.7,-108.02 854.56,-115.85 861,-118.6"/>
</g>
<!-- ast.Name object at 0x7f643e244b50 -->
<g id="node15" class="node">
<title>ast.Name object at 0x7f643e244b50</title>
<path fill="#66cdaa" stroke="black" d="M594,-324C594,-324 564,-324 564,-324 558,-324 552,-318 552,-312 552,-312 552,-300 552,-300 552,-294 558,-288 564,-288 564,-288 594,-288 594,-288 600,-288 606,-294 606,-300 606,-300 606,-312 606,-312 606,-318 600,-324 594,-324"/>
<text text-anchor="middle" x="579" y="-302.3" font-family="Times,serif" font-size="14.00">Name</text>
</g>
<!-- ast.Call object at 0x7f643e2453c0&#45;&gt;ast.Name object at 0x7f643e244b50 -->
<g id="edge16" class="edge">
<title>ast.Call object at 0x7f643e2453c0&#45;&gt;ast.Name object at 0x7f643e244b50</title>
<path fill="none" stroke="black" d="M579,-359.7C579,-351.98 579,-342.71 579,-334.11"/>
<polygon fill="black" stroke="black" points="582.5,-334.1 579,-324.1 575.5,-334.1 582.5,-334.1"/>
</g>
<!-- ast.ListComp object at 0x7f643e244af0 -->
<g id="node16" class="node">
<title>ast.ListComp object at 0x7f643e244af0</title>
<path fill="#66cdaa" stroke="black" d="M521.5,-324C521.5,-324 474.5,-324 474.5,-324 468.5,-324 462.5,-318 462.5,-312 462.5,-312 462.5,-300 462.5,-300 462.5,-294 468.5,-288 474.5,-288 474.5,-288 521.5,-288 521.5,-288 527.5,-288 533.5,-294 533.5,-300 533.5,-300 533.5,-312 533.5,-312 533.5,-318 527.5,-324 521.5,-324"/>
<text text-anchor="middle" x="498" y="-302.3" font-family="Times,serif" font-size="14.00">ListComp</text>
</g>
<!-- ast.Call object at 0x7f643e2453c0&#45;&gt;ast.ListComp object at 0x7f643e244af0 -->
<g id="edge18" class="edge">
<title>ast.Call object at 0x7f643e2453c0&#45;&gt;ast.ListComp object at 0x7f643e244af0</title>
<path fill="none" stroke="black" d="M558.98,-359.7C548.87,-350.97 536.46,-340.24 525.48,-330.75"/>
<polygon fill="black" stroke="black" points="527.65,-327.99 517.79,-324.1 523.07,-333.29 527.65,-327.99"/>
</g>
<!-- ast.keyword object at 0x7f643e435330 -->
<g id="node25" class="node">
<title>ast.keyword object at 0x7f643e435330</title>
<path fill="#66cdaa" stroke="black" d="M277,-324C277,-324 237,-324 237,-324 231,-324 225,-318 225,-312 225,-312 225,-300 225,-300 225,-294 231,-288 237,-288 237,-288 277,-288 277,-288 283,-288 289,-294 289,-300 289,-300 289,-312 289,-312 289,-318 283,-324 277,-324"/>
<text text-anchor="middle" x="257" y="-302.3" font-family="Times,serif" font-size="14.00">keyword</text>
</g>
<!-- ast.Call object at 0x7f643e2453c0&#45;&gt;ast.keyword object at 0x7f643e435330 -->
<g id="edge33" class="edge">
<title>ast.Call object at 0x7f643e2453c0&#45;&gt;ast.keyword object at 0x7f643e435330</title>
<path fill="none" stroke="black" d="M551.78,-363.26C548.86,-362.05 545.89,-360.93 543,-360 458.85,-332.84 356.01,-318.04 299.42,-311.4"/>
<polygon fill="black" stroke="black" points="299.74,-307.91 289.41,-310.25 298.94,-314.86 299.74,-307.91"/>
</g>
<!-- ast.Name object at 0x7f643e244b50&#45;&gt;ast.Load object at 0x7f64909edf60 -->
<g id="edge17" class="edge">
<title>ast.Name object at 0x7f643e244b50&#45;&gt;ast.Load object at 0x7f64909edf60</title>
<path fill="none" stroke="black" d="M551.9,-290.39C538.11,-281.34 522.67,-268.32 515,-252 498.18,-216.22 515.7,-99.69 524.99,-46.24"/>
<polygon fill="black" stroke="black" points="528.49,-46.6 526.79,-36.14 521.59,-45.37 528.49,-46.6"/>
</g>
<!-- ast.Tuple object at 0x7f643e246470 -->
<g id="node17" class="node">
<title>ast.Tuple object at 0x7f643e246470</title>
<path fill="#66cdaa" stroke="black" d="M437,-252C437,-252 407,-252 407,-252 401,-252 395,-246 395,-240 395,-240 395,-228 395,-228 395,-222 401,-216 407,-216 407,-216 437,-216 437,-216 443,-216 449,-222 449,-228 449,-228 449,-240 449,-240 449,-246 443,-252 437,-252"/>
<text text-anchor="middle" x="422" y="-230.3" font-family="Times,serif" font-size="14.00">Tuple</text>
</g>
<!-- ast.ListComp object at 0x7f643e244af0&#45;&gt;ast.Tuple object at 0x7f643e246470 -->
<g id="edge19" class="edge">
<title>ast.ListComp object at 0x7f643e244af0&#45;&gt;ast.Tuple object at 0x7f643e246470</title>
<path fill="none" stroke="black" d="M479.21,-287.7C469.83,-279.05 458.32,-268.45 448.09,-259.03"/>
<polygon fill="black" stroke="black" points="450.3,-256.3 440.57,-252.1 445.55,-261.45 450.3,-256.3"/>
</g>
<!-- ast.comprehension object at 0x7f644899b3d0 -->
<g id="node22" class="node">
<title>ast.comprehension object at 0x7f644899b3d0</title>
<path fill="#66cdaa" stroke="black" d="M612,-252C612,-252 536,-252 536,-252 530,-252 524,-246 524,-240 524,-240 524,-228 524,-228 524,-222 530,-216 536,-216 536,-216 612,-216 612,-216 618,-216 624,-222 624,-228 624,-228 624,-240 624,-240 624,-246 618,-252 612,-252"/>
<text text-anchor="middle" x="574" y="-230.3" font-family="Times,serif" font-size="14.00">comprehension</text>
</g>
<!-- ast.ListComp object at 0x7f643e244af0&#45;&gt;ast.comprehension object at 0x7f644899b3d0 -->
<g id="edge28" class="edge">
<title>ast.ListComp object at 0x7f643e244af0&#45;&gt;ast.comprehension object at 0x7f644899b3d0</title>
<path fill="none" stroke="black" d="M516.79,-287.7C526.17,-279.05 537.68,-268.45 547.91,-259.03"/>
<polygon fill="black" stroke="black" points="550.45,-261.45 555.43,-252.1 545.7,-256.3 550.45,-261.45"/>
</g>
<!-- ast.Tuple object at 0x7f643e246470&#45;&gt;ast.Load object at 0x7f64909edf60 -->
<g id="edge27" class="edge">
<title>ast.Tuple object at 0x7f643e246470&#45;&gt;ast.Load object at 0x7f64909edf60</title>
<path fill="none" stroke="black" d="M394.92,-218.3C346.06,-189.92 252.09,-125.66 295,-72 319.33,-41.57 432.72,-27.36 492.65,-21.88"/>
<polygon fill="black" stroke="black" points="493.18,-25.35 502.83,-20.98 492.57,-18.37 493.18,-25.35"/>
</g>
<!-- ast.Name object at 0x7f643e244fa0 -->
<g id="node18" class="node">
<title>ast.Name object at 0x7f643e244fa0</title>
<path fill="#66cdaa" stroke="black" d="M490,-108C490,-108 460,-108 460,-108 454,-108 448,-102 448,-96 448,-96 448,-84 448,-84 448,-78 454,-72 460,-72 460,-72 490,-72 490,-72 496,-72 502,-78 502,-84 502,-84 502,-96 502,-96 502,-102 496,-108 490,-108"/>
<text text-anchor="middle" x="475" y="-86.3" font-family="Times,serif" font-size="14.00">Name</text>
</g>
<!-- ast.Tuple object at 0x7f643e246470&#45;&gt;ast.Name object at 0x7f643e244fa0 -->
<g id="edge20" class="edge">
<title>ast.Tuple object at 0x7f643e246470&#45;&gt;ast.Name object at 0x7f643e244fa0</title>
<path fill="none" stroke="black" d="M428.39,-215.87C437.51,-191.46 454.31,-146.43 465.06,-117.64"/>
<polygon fill="black" stroke="black" points="468.37,-118.78 468.58,-108.19 461.81,-116.33 468.37,-118.78"/>
</g>
<!-- ast.Call object at 0x7f644899bc10 -->
<g id="node19" class="node">
<title>ast.Call object at 0x7f644899bc10</title>
<path fill="#66cdaa" stroke="black" d="M418,-180C418,-180 388,-180 388,-180 382,-180 376,-174 376,-168 376,-168 376,-156 376,-156 376,-150 382,-144 388,-144 388,-144 418,-144 418,-144 424,-144 430,-150 430,-156 430,-156 430,-168 430,-168 430,-174 424,-180 418,-180"/>
<text text-anchor="middle" x="403" y="-158.3" font-family="Times,serif" font-size="14.00">Call</text>
</g>
<!-- ast.Tuple object at 0x7f643e246470&#45;&gt;ast.Call object at 0x7f644899bc10 -->
<g id="edge22" class="edge">
<title>ast.Tuple object at 0x7f643e246470&#45;&gt;ast.Call object at 0x7f644899bc10</title>
<path fill="none" stroke="black" d="M417.3,-215.7C415.19,-207.9 412.64,-198.51 410.28,-189.83"/>
<polygon fill="black" stroke="black" points="413.64,-188.84 407.64,-180.1 406.88,-190.67 413.64,-188.84"/>
</g>
<!-- ast.Name object at 0x7f643e244fa0&#45;&gt;ast.Load object at 0x7f64909edf60 -->
<g id="edge21" class="edge">
<title>ast.Name object at 0x7f643e244fa0&#45;&gt;ast.Load object at 0x7f64909edf60</title>
<path fill="none" stroke="black" d="M488.6,-71.7C495.12,-63.39 503.07,-53.28 510.25,-44.14"/>
<polygon fill="black" stroke="black" points="513.13,-46.13 516.56,-36.1 507.63,-41.81 513.13,-46.13"/>
</g>
<!-- ast.Name object at 0x7f644899a320 -->
<g id="node20" class="node">
<title>ast.Name object at 0x7f644899a320</title>
<path fill="#66cdaa" stroke="black" d="M418,-108C418,-108 388,-108 388,-108 382,-108 376,-102 376,-96 376,-96 376,-84 376,-84 376,-78 382,-72 388,-72 388,-72 418,-72 418,-72 424,-72 430,-78 430,-84 430,-84 430,-96 430,-96 430,-102 424,-108 418,-108"/>
<text text-anchor="middle" x="403" y="-86.3" font-family="Times,serif" font-size="14.00">Name</text>
</g>
<!-- ast.Call object at 0x7f644899bc10&#45;&gt;ast.Name object at 0x7f644899a320 -->
<g id="edge23" class="edge">
<title>ast.Call object at 0x7f644899bc10&#45;&gt;ast.Name object at 0x7f644899a320</title>
<path fill="none" stroke="black" d="M403,-143.7C403,-135.98 403,-126.71 403,-118.11"/>
<polygon fill="black" stroke="black" points="406.5,-118.1 403,-108.1 399.5,-118.1 406.5,-118.1"/>
</g>
<!-- ast.Name object at 0x7f6448999b10 -->
<g id="node21" class="node">
<title>ast.Name object at 0x7f6448999b10</title>
<path fill="#66cdaa" stroke="black" d="M346,-108C346,-108 316,-108 316,-108 310,-108 304,-102 304,-96 304,-96 304,-84 304,-84 304,-78 310,-72 316,-72 316,-72 346,-72 346,-72 352,-72 358,-78 358,-84 358,-84 358,-96 358,-96 358,-102 352,-108 346,-108"/>
<text text-anchor="middle" x="331" y="-86.3" font-family="Times,serif" font-size="14.00">Name</text>
</g>
<!-- ast.Call object at 0x7f644899bc10&#45;&gt;ast.Name object at 0x7f6448999b10 -->
<g id="edge25" class="edge">
<title>ast.Call object at 0x7f644899bc10&#45;&gt;ast.Name object at 0x7f6448999b10</title>
<path fill="none" stroke="black" d="M385.2,-143.7C376.4,-135.14 365.62,-124.66 356,-115.3"/>
<polygon fill="black" stroke="black" points="358.2,-112.57 348.59,-108.1 353.32,-117.58 358.2,-112.57"/>
</g>
<!-- ast.Name object at 0x7f644899a320&#45;&gt;ast.Load object at 0x7f64909edf60 -->
<g id="edge24" class="edge">
<title>ast.Name object at 0x7f644899a320&#45;&gt;ast.Load object at 0x7f64909edf60</title>
<path fill="none" stroke="black" d="M430.24,-73.98C448.83,-63.74 473.64,-50.07 493.87,-38.92"/>
<polygon fill="black" stroke="black" points="495.73,-41.88 502.8,-33.99 492.35,-35.75 495.73,-41.88"/>
</g>
<!-- ast.Name object at 0x7f6448999b10&#45;&gt;ast.Load object at 0x7f64909edf60 -->
<g id="edge26" class="edge">
<title>ast.Name object at 0x7f6448999b10&#45;&gt;ast.Load object at 0x7f64909edf60</title>
<path fill="none" stroke="black" d="M358.36,-75.64C361.25,-74.36 364.17,-73.12 367,-72 409.49,-55.14 459.67,-39.43 493.02,-29.56"/>
<polygon fill="black" stroke="black" points="494.19,-32.87 502.8,-26.69 492.22,-26.15 494.19,-32.87"/>
</g>
<!-- ast.Name object at 0x7f644899a230 -->
<g id="node23" class="node">
<title>ast.Name object at 0x7f644899a230</title>
<path fill="#66cdaa" stroke="black" d="M762,-180C762,-180 732,-180 732,-180 726,-180 720,-174 720,-168 720,-168 720,-156 720,-156 720,-150 726,-144 732,-144 732,-144 762,-144 762,-144 768,-144 774,-150 774,-156 774,-156 774,-168 774,-168 774,-174 768,-180 762,-180"/>
<text text-anchor="middle" x="747" y="-158.3" font-family="Times,serif" font-size="14.00">Name</text>
</g>
<!-- ast.comprehension object at 0x7f644899b3d0&#45;&gt;ast.Name object at 0x7f644899a230 -->
<g id="edge29" class="edge">
<title>ast.comprehension object at 0x7f644899b3d0&#45;&gt;ast.Name object at 0x7f644899a230</title>
<path fill="none" stroke="black" d="M620.63,-215.91C645.1,-206.73 675.71,-194.9 710.53,-180.07"/>
<polygon fill="black" stroke="black" points="712.16,-183.18 719.97,-176.02 709.4,-176.75 712.16,-183.18"/>
</g>
<!-- ast.Name object at 0x7f644899b910 -->
<g id="node24" class="node">
<title>ast.Name object at 0x7f644899b910</title>
<path fill="#66cdaa" stroke="black" d="M566,-180C566,-180 536,-180 536,-180 530,-180 524,-174 524,-168 524,-168 524,-156 524,-156 524,-150 530,-144 536,-144 536,-144 566,-144 566,-144 572,-144 578,-150 578,-156 578,-156 578,-168 578,-168 578,-174 572,-180 566,-180"/>
<text text-anchor="middle" x="551" y="-158.3" font-family="Times,serif" font-size="14.00">Name</text>
</g>
<!-- ast.comprehension object at 0x7f644899b3d0&#45;&gt;ast.Name object at 0x7f644899b910 -->
<g id="edge31" class="edge">
<title>ast.comprehension object at 0x7f644899b3d0&#45;&gt;ast.Name object at 0x7f644899b910</title>
<path fill="none" stroke="black" d="M568.31,-215.7C565.75,-207.9 562.67,-198.51 559.82,-189.83"/>
<polygon fill="black" stroke="black" points="563.07,-188.51 556.62,-180.1 556.42,-190.7 563.07,-188.51"/>
</g>
<!-- ast.Name object at 0x7f644899a230&#45;&gt;ast.Store object at 0x7f64909edfc0 -->
<g id="edge30" class="edge">
<title>ast.Name object at 0x7f644899a230&#45;&gt;ast.Store object at 0x7f64909edfc0</title>
<path fill="none" stroke="black" d="M774.08,-145.46C791.45,-135.5 814.21,-122.44 833.09,-111.61"/>
<polygon fill="black" stroke="black" points="835.07,-114.5 842,-106.49 831.58,-108.43 835.07,-114.5"/>
</g>
<!-- ast.Name object at 0x7f644899b910&#45;&gt;ast.Load object at 0x7f64909edf60 -->
<g id="edge32" class="edge">
<title>ast.Name object at 0x7f644899b910&#45;&gt;ast.Load object at 0x7f64909edf60</title>
<path fill="none" stroke="black" d="M550.56,-143.83C549.89,-125.82 548.21,-96.75 544,-72 542.53,-63.33 540.29,-54.01 538.04,-45.64"/>
<polygon fill="black" stroke="black" points="541.41,-44.69 535.33,-36.01 534.67,-46.59 541.41,-44.69"/>
</g>
<!-- ast.Lambda object at 0x7f643e437400 -->
<g id="node26" class="node">
<title>ast.Lambda object at 0x7f643e437400</title>
<path fill="#66cdaa" stroke="black" d="M196,-252C196,-252 158,-252 158,-252 152,-252 146,-246 146,-240 146,-240 146,-228 146,-228 146,-222 152,-216 158,-216 158,-216 196,-216 196,-216 202,-216 208,-222 208,-228 208,-228 208,-240 208,-240 208,-246 202,-252 196,-252"/>
<text text-anchor="middle" x="177" y="-230.3" font-family="Times,serif" font-size="14.00">Lambda</text>
</g>
<!-- ast.keyword object at 0x7f643e435330&#45;&gt;ast.Lambda object at 0x7f643e437400 -->
<g id="edge34" class="edge">
<title>ast.keyword object at 0x7f643e435330&#45;&gt;ast.Lambda object at 0x7f643e437400</title>
<path fill="none" stroke="black" d="M237.22,-287.7C227.25,-278.97 214.99,-268.24 204.14,-258.75"/>
<polygon fill="black" stroke="black" points="206.38,-256.06 196.55,-252.1 201.77,-261.32 206.38,-256.06"/>
</g>
<!-- ast.arguments object at 0x7f643e4352a0 -->
<g id="node27" class="node">
<title>ast.arguments object at 0x7f643e4352a0</title>
<path fill="#66cdaa" stroke="black" d="M83,-180C83,-180 33,-180 33,-180 27,-180 21,-174 21,-168 21,-168 21,-156 21,-156 21,-150 27,-144 33,-144 33,-144 83,-144 83,-144 89,-144 95,-150 95,-156 95,-156 95,-168 95,-168 95,-174 89,-180 83,-180"/>
<text text-anchor="middle" x="58" y="-158.3" font-family="Times,serif" font-size="14.00">arguments</text>
</g>
<!-- ast.Lambda object at 0x7f643e437400&#45;&gt;ast.arguments object at 0x7f643e4352a0 -->
<g id="edge35" class="edge">
<title>ast.Lambda object at 0x7f643e437400&#45;&gt;ast.arguments object at 0x7f643e4352a0</title>
<path fill="none" stroke="black" d="M147.89,-215.88C132.33,-206.72 112.98,-195.34 96.22,-185.48"/>
<polygon fill="black" stroke="black" points="97.62,-182.24 87.22,-180.19 94.07,-188.28 97.62,-182.24"/>
</g>
<!-- ast.Subscript object at 0x7f643e434ca0 -->
<g id="node29" class="node">
<title>ast.Subscript object at 0x7f643e434ca0</title>
<path fill="#66cdaa" stroke="black" d="M199,-180C199,-180 155,-180 155,-180 149,-180 143,-174 143,-168 143,-168 143,-156 143,-156 143,-150 149,-144 155,-144 155,-144 199,-144 199,-144 205,-144 211,-150 211,-156 211,-156 211,-168 211,-168 211,-174 205,-180 199,-180"/>
<text text-anchor="middle" x="177" y="-158.3" font-family="Times,serif" font-size="14.00">Subscript</text>
</g>
<!-- ast.Lambda object at 0x7f643e437400&#45;&gt;ast.Subscript object at 0x7f643e434ca0 -->
<g id="edge37" class="edge">
<title>ast.Lambda object at 0x7f643e437400&#45;&gt;ast.Subscript object at 0x7f643e434ca0</title>
<path fill="none" stroke="black" d="M177,-215.7C177,-207.98 177,-198.71 177,-190.11"/>
<polygon fill="black" stroke="black" points="180.5,-190.1 177,-180.1 173.5,-190.1 180.5,-190.1"/>
</g>
<!-- ast.arg object at 0x7f643e434bb0 -->
<g id="node28" class="node">
<title>ast.arg object at 0x7f643e434bb0</title>
<path fill="#66cdaa" stroke="black" d="M42,-108C42,-108 12,-108 12,-108 6,-108 0,-102 0,-96 0,-96 0,-84 0,-84 0,-78 6,-72 12,-72 12,-72 42,-72 42,-72 48,-72 54,-78 54,-84 54,-84 54,-96 54,-96 54,-102 48,-108 42,-108"/>
<text text-anchor="middle" x="27" y="-86.3" font-family="Times,serif" font-size="14.00">arg</text>
</g>
<!-- ast.arguments object at 0x7f643e4352a0&#45;&gt;ast.arg object at 0x7f643e434bb0 -->
<g id="edge36" class="edge">
<title>ast.arguments object at 0x7f643e4352a0&#45;&gt;ast.arg object at 0x7f643e434bb0</title>
<path fill="none" stroke="black" d="M50.34,-143.7C46.81,-135.73 42.54,-126.1 38.63,-117.26"/>
<polygon fill="black" stroke="black" points="41.82,-115.83 34.57,-108.1 35.42,-118.67 41.82,-115.83"/>
</g>
<!-- ast.Subscript object at 0x7f643e434ca0&#45;&gt;ast.Load object at 0x7f64909edf60 -->
<g id="edge41" class="edge">
<title>ast.Subscript object at 0x7f643e434ca0&#45;&gt;ast.Load object at 0x7f64909edf60</title>
<path fill="none" stroke="black" d="M191.22,-143.8C210.75,-120.6 245.33,-81.15 262,-72 336.65,-31.04 438.4,-21.46 492.53,-19.4"/>
<polygon fill="black" stroke="black" points="492.81,-22.89 502.7,-19.08 492.59,-15.89 492.81,-22.89"/>
</g>
<!-- ast.Name object at 0x7f643e436200 -->
<g id="node30" class="node">
<title>ast.Name object at 0x7f643e436200</title>
<path fill="#66cdaa" stroke="black" d="M114,-108C114,-108 84,-108 84,-108 78,-108 72,-102 72,-96 72,-96 72,-84 72,-84 72,-78 78,-72 84,-72 84,-72 114,-72 114,-72 120,-72 126,-78 126,-84 126,-84 126,-96 126,-96 126,-102 120,-108 114,-108"/>
<text text-anchor="middle" x="99" y="-86.3" font-family="Times,serif" font-size="14.00">Name</text>
</g>
<!-- ast.Subscript object at 0x7f643e434ca0&#45;&gt;ast.Name object at 0x7f643e436200 -->
<g id="edge38" class="edge">
<title>ast.Subscript object at 0x7f643e434ca0&#45;&gt;ast.Name object at 0x7f643e436200</title>
<path fill="none" stroke="black" d="M157.72,-143.7C148.08,-135.05 136.27,-124.45 125.77,-115.03"/>
<polygon fill="black" stroke="black" points="127.84,-112.18 118.06,-108.1 123.16,-117.39 127.84,-112.18"/>
</g>
<!-- ast.Constant object at 0x7f643e4364a0 -->
<g id="node31" class="node">
<title>ast.Constant object at 0x7f643e4364a0</title>
<path fill="#66cdaa" stroke="black" d="M197.5,-108C197.5,-108 156.5,-108 156.5,-108 150.5,-108 144.5,-102 144.5,-96 144.5,-96 144.5,-84 144.5,-84 144.5,-78 150.5,-72 156.5,-72 156.5,-72 197.5,-72 197.5,-72 203.5,-72 209.5,-78 209.5,-84 209.5,-84 209.5,-96 209.5,-96 209.5,-102 203.5,-108 197.5,-108"/>
<text text-anchor="middle" x="177" y="-86.3" font-family="Times,serif" font-size="14.00">Constant</text>
</g>
<!-- ast.Subscript object at 0x7f643e434ca0&#45;&gt;ast.Constant object at 0x7f643e4364a0 -->
<g id="edge40" class="edge">
<title>ast.Subscript object at 0x7f643e434ca0&#45;&gt;ast.Constant object at 0x7f643e4364a0</title>
<path fill="none" stroke="black" d="M177,-143.7C177,-135.98 177,-126.71 177,-118.11"/>
<polygon fill="black" stroke="black" points="180.5,-118.1 177,-108.1 173.5,-118.1 180.5,-118.1"/>
</g>
<!-- ast.Name object at 0x7f643e436200&#45;&gt;ast.Load object at 0x7f64909edf60 -->
<g id="edge39" class="edge">
<title>ast.Name object at 0x7f643e436200&#45;&gt;ast.Load object at 0x7f64909edf60</title>
<path fill="none" stroke="black" d="M126.17,-75.11C129.11,-73.93 132.08,-72.86 135,-72 262.49,-34.33 421.11,-23.35 492.32,-20.22"/>
<polygon fill="black" stroke="black" points="492.73,-23.7 502.58,-19.79 492.44,-16.71 492.73,-23.7"/>
</g>
<!-- ast.ListComp object at 0x7f643e4363b0 -->
<g id="node33" class="node">
<title>ast.ListComp object at 0x7f643e4363b0</title>
<path fill="#66cdaa" stroke="black" d="M860.5,-396C860.5,-396 813.5,-396 813.5,-396 807.5,-396 801.5,-390 801.5,-384 801.5,-384 801.5,-372 801.5,-372 801.5,-366 807.5,-360 813.5,-360 813.5,-360 860.5,-360 860.5,-360 866.5,-360 872.5,-366 872.5,-372 872.5,-372 872.5,-384 872.5,-384 872.5,-390 866.5,-396 860.5,-396"/>
<text text-anchor="middle" x="837" y="-374.3" font-family="Times,serif" font-size="14.00">ListComp</text>
</g>
<!-- ast.Return object at 0x7f643e434910&#45;&gt;ast.ListComp object at 0x7f643e4363b0 -->
<g id="edge43" class="edge">
<title>ast.Return object at 0x7f643e434910&#45;&gt;ast.ListComp object at 0x7f643e4363b0</title>
<path fill="none" stroke="black" d="M833.99,-431.7C834.43,-423.98 834.96,-414.71 835.45,-406.11"/>
<polygon fill="black" stroke="black" points="838.95,-406.29 836.02,-396.1 831.96,-405.89 838.95,-406.29"/>
</g>
<!-- ast.Name object at 0x7f643e4341c0 -->
<g id="node34" class="node">
<title>ast.Name object at 0x7f643e4341c0</title>
<path fill="#66cdaa" stroke="black" d="M839,-324C839,-324 809,-324 809,-324 803,-324 797,-318 797,-312 797,-312 797,-300 797,-300 797,-294 803,-288 809,-288 809,-288 839,-288 839,-288 845,-288 851,-294 851,-300 851,-300 851,-312 851,-312 851,-318 845,-324 839,-324"/>
<text text-anchor="middle" x="824" y="-302.3" font-family="Times,serif" font-size="14.00">Name</text>
</g>
<!-- ast.ListComp object at 0x7f643e4363b0&#45;&gt;ast.Name object at 0x7f643e4341c0 -->
<g id="edge44" class="edge">
<title>ast.ListComp object at 0x7f643e4363b0&#45;&gt;ast.Name object at 0x7f643e4341c0</title>
<path fill="none" stroke="black" d="M833.79,-359.7C832.35,-351.98 830.63,-342.71 829.04,-334.11"/>
<polygon fill="black" stroke="black" points="832.44,-333.3 827.18,-324.1 825.56,-334.58 832.44,-333.3"/>
</g>
<!-- ast.comprehension object at 0x7f643e4374f0 -->
<g id="node35" class="node">
<title>ast.comprehension object at 0x7f643e4374f0</title>
<path fill="#66cdaa" stroke="black" d="M957,-324C957,-324 881,-324 881,-324 875,-324 869,-318 869,-312 869,-312 869,-300 869,-300 869,-294 875,-288 881,-288 881,-288 957,-288 957,-288 963,-288 969,-294 969,-300 969,-300 969,-312 969,-312 969,-318 963,-324 957,-324"/>
<text text-anchor="middle" x="919" y="-302.3" font-family="Times,serif" font-size="14.00">comprehension</text>
</g>
<!-- ast.ListComp object at 0x7f643e4363b0&#45;&gt;ast.comprehension object at 0x7f643e4374f0 -->
<g id="edge46" class="edge">
<title>ast.ListComp object at 0x7f643e4363b0&#45;&gt;ast.comprehension object at 0x7f643e4374f0</title>
<path fill="none" stroke="black" d="M857.27,-359.7C867.5,-350.97 880.06,-340.24 891.18,-330.75"/>
<polygon fill="black" stroke="black" points="893.63,-333.26 898.96,-324.1 889.09,-327.94 893.63,-333.26"/>
</g>
<!-- ast.Name object at 0x7f643e4341c0&#45;&gt;ast.Load object at 0x7f64909edf60 -->
<g id="edge45" class="edge">
<title>ast.Name object at 0x7f643e4341c0&#45;&gt;ast.Load object at 0x7f64909edf60</title>
<path fill="none" stroke="black" d="M796.71,-293.05C755.51,-273.95 676.77,-233.23 625,-180 623.65,-178.61 571.51,-89.81 545.06,-44.7"/>
<polygon fill="black" stroke="black" points="548.07,-42.9 539.99,-36.05 542.03,-46.44 548.07,-42.9"/>
</g>
<!-- ast.Tuple object at 0x7f643e4346d0 -->
<g id="node36" class="node">
<title>ast.Tuple object at 0x7f643e4346d0</title>
<path fill="#66cdaa" stroke="black" d="M918,-252C918,-252 888,-252 888,-252 882,-252 876,-246 876,-240 876,-240 876,-228 876,-228 876,-222 882,-216 888,-216 888,-216 918,-216 918,-216 924,-216 930,-222 930,-228 930,-228 930,-240 930,-240 930,-246 924,-252 918,-252"/>
<text text-anchor="middle" x="903" y="-230.3" font-family="Times,serif" font-size="14.00">Tuple</text>
</g>
<!-- ast.comprehension object at 0x7f643e4374f0&#45;&gt;ast.Tuple object at 0x7f643e4346d0 -->
<g id="edge47" class="edge">
<title>ast.comprehension object at 0x7f643e4374f0&#45;&gt;ast.Tuple object at 0x7f643e4346d0</title>
<path fill="none" stroke="black" d="M915.04,-287.7C913.28,-279.98 911.16,-270.71 909.2,-262.11"/>
<polygon fill="black" stroke="black" points="912.55,-261.07 906.91,-252.1 905.73,-262.63 912.55,-261.07"/>
</g>
<!-- ast.Subscript object at 0x7f643e435150 -->
<g id="node39" class="node">
<title>ast.Subscript object at 0x7f643e435150</title>
<path fill="#66cdaa" stroke="black" d="M690,-180C690,-180 646,-180 646,-180 640,-180 634,-174 634,-168 634,-168 634,-156 634,-156 634,-150 640,-144 646,-144 646,-144 690,-144 690,-144 696,-144 702,-150 702,-156 702,-156 702,-168 702,-168 702,-174 696,-180 690,-180"/>
<text text-anchor="middle" x="668" y="-158.3" font-family="Times,serif" font-size="14.00">Subscript</text>
</g>
<!-- ast.comprehension object at 0x7f643e4374f0&#45;&gt;ast.Subscript object at 0x7f643e435150 -->
<g id="edge53" class="edge">
<title>ast.comprehension object at 0x7f643e4374f0&#45;&gt;ast.Subscript object at 0x7f643e435150</title>
<path fill="none" stroke="black" d="M888.72,-287.87C843.31,-262.18 757.53,-213.65 707.33,-185.25"/>
<polygon fill="black" stroke="black" points="708.81,-182.07 698.38,-180.19 705.36,-188.16 708.81,-182.07"/>
</g>
<!-- ast.Tuple object at 0x7f643e4346d0&#45;&gt;ast.Store object at 0x7f64909edfc0 -->
<g id="edge52" class="edge">
<title>ast.Tuple object at 0x7f643e4346d0&#45;&gt;ast.Store object at 0x7f64909edfc0</title>
<path fill="none" stroke="black" d="M883.53,-215.92C874.18,-206.4 863.95,-193.72 859,-180 851.81,-160.07 855.1,-136.14 859.76,-118.12"/>
<polygon fill="black" stroke="black" points="863.2,-118.84 862.59,-108.26 856.47,-116.91 863.2,-118.84"/>
</g>
<!-- ast.Name object at 0x7f643e434df0 -->
<g id="node37" class="node">
<title>ast.Name object at 0x7f643e434df0</title>
<path fill="#66cdaa" stroke="black" d="M910,-180C910,-180 880,-180 880,-180 874,-180 868,-174 868,-168 868,-168 868,-156 868,-156 868,-150 874,-144 880,-144 880,-144 910,-144 910,-144 916,-144 922,-150 922,-156 922,-156 922,-168 922,-168 922,-174 916,-180 910,-180"/>
<text text-anchor="middle" x="895" y="-158.3" font-family="Times,serif" font-size="14.00">Name</text>
</g>
<!-- ast.Tuple object at 0x7f643e4346d0&#45;&gt;ast.Name object at 0x7f643e434df0 -->
<g id="edge48" class="edge">
<title>ast.Tuple object at 0x7f643e4346d0&#45;&gt;ast.Name object at 0x7f643e434df0</title>
<path fill="none" stroke="black" d="M901.02,-215.7C900.14,-207.98 899.08,-198.71 898.1,-190.11"/>
<polygon fill="black" stroke="black" points="901.57,-189.64 896.95,-180.1 894.61,-190.44 901.57,-189.64"/>
</g>
<!-- ast.Name object at 0x7f643e435c60 -->
<g id="node38" class="node">
<title>ast.Name object at 0x7f643e435c60</title>
<path fill="#66cdaa" stroke="black" d="M982,-180C982,-180 952,-180 952,-180 946,-180 940,-174 940,-168 940,-168 940,-156 940,-156 940,-150 946,-144 952,-144 952,-144 982,-144 982,-144 988,-144 994,-150 994,-156 994,-156 994,-168 994,-168 994,-174 988,-180 982,-180"/>
<text text-anchor="middle" x="967" y="-158.3" font-family="Times,serif" font-size="14.00">Name</text>
</g>
<!-- ast.Tuple object at 0x7f643e4346d0&#45;&gt;ast.Name object at 0x7f643e435c60 -->
<g id="edge50" class="edge">
<title>ast.Tuple object at 0x7f643e4346d0&#45;&gt;ast.Name object at 0x7f643e435c60</title>
<path fill="none" stroke="black" d="M918.82,-215.7C926.57,-207.22 936.04,-196.86 944.52,-187.58"/>
<polygon fill="black" stroke="black" points="947.2,-189.85 951.36,-180.1 942.03,-185.12 947.2,-189.85"/>
</g>
<!-- ast.Name object at 0x7f643e434df0&#45;&gt;ast.Store object at 0x7f64909edfc0 -->
<g id="edge49" class="edge">
<title>ast.Name object at 0x7f643e434df0&#45;&gt;ast.Store object at 0x7f64909edfc0</title>
<path fill="none" stroke="black" d="M888.57,-143.7C885.64,-135.81 882.11,-126.3 878.86,-117.55"/>
<polygon fill="black" stroke="black" points="882.12,-116.26 875.35,-108.1 875.55,-118.7 882.12,-116.26"/>
</g>
<!-- ast.Name object at 0x7f643e435c60&#45;&gt;ast.Store object at 0x7f64909edfc0 -->
<g id="edge51" class="edge">
<title>ast.Name object at 0x7f643e435c60&#45;&gt;ast.Store object at 0x7f64909edfc0</title>
<path fill="none" stroke="black" d="M943.03,-143.88C930.45,-134.89 914.87,-123.76 901.25,-114.03"/>
<polygon fill="black" stroke="black" points="903.24,-111.15 893.07,-108.19 899.17,-116.85 903.24,-111.15"/>
</g>
<!-- ast.Subscript object at 0x7f643e435150&#45;&gt;ast.Load object at 0x7f64909edf60 -->
<g id="edge58" class="edge">
<title>ast.Subscript object at 0x7f643e435150&#45;&gt;ast.Load object at 0x7f64909edf60</title>
<path fill="none" stroke="black" d="M682.14,-143.81C696.01,-124.73 712.93,-93.77 697,-72 667.4,-31.55 606.72,-21.22 567.23,-18.99"/>
<polygon fill="black" stroke="black" points="567.32,-15.49 557.19,-18.57 567.03,-22.48 567.32,-15.49"/>
</g>
<!-- ast.Name object at 0x7f643e4350f0 -->
<g id="node40" class="node">
<title>ast.Name object at 0x7f643e4350f0</title>
<path fill="#66cdaa" stroke="black" d="M676,-108C676,-108 646,-108 646,-108 640,-108 634,-102 634,-96 634,-96 634,-84 634,-84 634,-78 640,-72 646,-72 646,-72 676,-72 676,-72 682,-72 688,-78 688,-84 688,-84 688,-96 688,-96 688,-102 682,-108 676,-108"/>
<text text-anchor="middle" x="661" y="-86.3" font-family="Times,serif" font-size="14.00">Name</text>
</g>
<!-- ast.Subscript object at 0x7f643e435150&#45;&gt;ast.Name object at 0x7f643e4350f0 -->
<g id="edge54" class="edge">
<title>ast.Subscript object at 0x7f643e435150&#45;&gt;ast.Name object at 0x7f643e4350f0</title>
<path fill="none" stroke="black" d="M666.27,-143.7C665.5,-135.98 664.57,-126.71 663.71,-118.11"/>
<polygon fill="black" stroke="black" points="667.19,-117.71 662.71,-108.1 660.22,-118.4 667.19,-117.71"/>
</g>
<!-- ast.Slice object at 0x7f64475dffa0 -->
<g id="node41" class="node">
<title>ast.Slice object at 0x7f64475dffa0</title>
<path fill="#66cdaa" stroke="black" d="M786,-108C786,-108 756,-108 756,-108 750,-108 744,-102 744,-96 744,-96 744,-84 744,-84 744,-78 750,-72 756,-72 756,-72 786,-72 786,-72 792,-72 798,-78 798,-84 798,-84 798,-96 798,-96 798,-102 792,-108 786,-108"/>
<text text-anchor="middle" x="771" y="-86.3" font-family="Times,serif" font-size="14.00">Slice</text>
</g>
<!-- ast.Subscript object at 0x7f643e435150&#45;&gt;ast.Slice object at 0x7f64475dffa0 -->
<g id="edge56" class="edge">
<title>ast.Subscript object at 0x7f643e435150&#45;&gt;ast.Slice object at 0x7f64475dffa0</title>
<path fill="none" stroke="black" d="M693.2,-143.88C706.41,-134.89 722.79,-123.76 737.11,-114.03"/>
<polygon fill="black" stroke="black" points="739.4,-116.71 745.71,-108.19 735.47,-110.92 739.4,-116.71"/>
</g>
<!-- ast.Name object at 0x7f643e4350f0&#45;&gt;ast.Load object at 0x7f64909edf60 -->
<g id="edge55" class="edge">
<title>ast.Name object at 0x7f643e4350f0&#45;&gt;ast.Load object at 0x7f64909edf60</title>
<path fill="none" stroke="black" d="M633.86,-74.5C614.18,-63.98 587.38,-49.66 565.94,-38.2"/>
<polygon fill="black" stroke="black" points="567.58,-35.11 557.11,-33.49 564.28,-41.29 567.58,-35.11"/>
</g>
<!-- ast.Constant object at 0x7f64475dc310 -->
<g id="node42" class="node">
<title>ast.Constant object at 0x7f64475dc310</title>
<path fill="#66cdaa" stroke="black" d="M791.5,-36C791.5,-36 750.5,-36 750.5,-36 744.5,-36 738.5,-30 738.5,-24 738.5,-24 738.5,-12 738.5,-12 738.5,-6 744.5,0 750.5,0 750.5,0 791.5,0 791.5,0 797.5,0 803.5,-6 803.5,-12 803.5,-12 803.5,-24 803.5,-24 803.5,-30 797.5,-36 791.5,-36"/>
<text text-anchor="middle" x="771" y="-14.3" font-family="Times,serif" font-size="14.00">Constant</text>
</g>
<!-- ast.Slice object at 0x7f64475dffa0&#45;&gt;ast.Constant object at 0x7f64475dc310 -->
<g id="edge57" class="edge">
<title>ast.Slice object at 0x7f64475dffa0&#45;&gt;ast.Constant object at 0x7f64475dc310</title>
<path fill="none" stroke="black" d="M771,-71.7C771,-63.98 771,-54.71 771,-46.11"/>
<polygon fill="black" stroke="black" points="774.5,-46.1 771,-36.1 767.5,-46.1 774.5,-46.1"/>
</g>
</g>
</svg>
