<?xml version="1.0" encoding="UTF-8" standalone="no"?>
<!DOCTYPE svg PUBLIC "-//W3C//DTD SVG 1.1//EN"
 "http://www.w3.org/Graphics/SVG/1.1/DTD/svg11.dtd">
<!-- Generated by graphviz version 2.43.0 (0)
 -->
<!-- Title: %3 Pages: 1 -->
<svg width="1237pt" height="620pt"
 viewBox="0.00 0.00 1236.94 620.00" xmlns="http://www.w3.org/2000/svg" xmlns:xlink="http://www.w3.org/1999/xlink">
<g id="graph0" class="graph" transform="scale(1 1) rotate(0) translate(4 616)">
<title>%3</title>
<polygon fill="white" stroke="transparent" points="-4,4 -4,-616 1232.94,-616 1232.94,4 -4,4"/>
<!-- ast.Module object at 0x7fe3a1a03130 -->
<g id="node1" class="node">
<title>ast.Module object at 0x7fe3a1a03130</title>
<path fill="#66cdaa" stroke="black" d="M516.44,-612C516.44,-612 481.44,-612 481.44,-612 475.44,-612 469.44,-606 469.44,-600 469.44,-600 469.44,-588 469.44,-588 469.44,-582 475.44,-576 481.44,-576 481.44,-576 516.44,-576 516.44,-576 522.44,-576 528.44,-582 528.44,-588 528.44,-588 528.44,-600 528.44,-600 528.44,-606 522.44,-612 516.44,-612"/>
<text text-anchor="middle" x="498.94" y="-590.3" font-family="Times,serif" font-size="14.00">Module</text>
</g>
<!-- ast.FunctionDef object at 0x7fe3a1a033a0 -->
<g id="node2" class="node">
<title>ast.FunctionDef object at 0x7fe3a1a033a0</title>
<path fill="#66cdaa" stroke="black" d="M529.44,-540C529.44,-540 468.44,-540 468.44,-540 462.44,-540 456.44,-534 456.44,-528 456.44,-528 456.44,-516 456.44,-516 456.44,-510 462.44,-504 468.44,-504 468.44,-504 529.44,-504 529.44,-504 535.44,-504 541.44,-510 541.44,-516 541.44,-516 541.44,-528 541.44,-528 541.44,-534 535.44,-540 529.44,-540"/>
<text text-anchor="middle" x="498.94" y="-518.3" font-family="Times,serif" font-size="14.00">FunctionDef</text>
</g>
<!-- ast.Module object at 0x7fe3a1a03130&#45;&gt;ast.FunctionDef object at 0x7fe3a1a033a0 -->
<g id="edge1" class="edge">
<title>ast.Module object at 0x7fe3a1a03130&#45;&gt;ast.FunctionDef object at 0x7fe3a1a033a0</title>
<path fill="none" stroke="black" d="M498.94,-575.7C498.94,-567.98 498.94,-558.71 498.94,-550.11"/>
<polygon fill="black" stroke="black" points="502.44,-550.1 498.94,-540.1 495.44,-550.1 502.44,-550.1"/>
</g>
<!-- ast.arguments object at 0x7fe3a1a00970 -->
<g id="node3" class="node">
<title>ast.arguments object at 0x7fe3a1a00970</title>
<path fill="#66cdaa" stroke="black" d="M143.94,-468C143.94,-468 93.94,-468 93.94,-468 87.94,-468 81.94,-462 81.94,-456 81.94,-456 81.94,-444 81.94,-444 81.94,-438 87.94,-432 93.94,-432 93.94,-432 143.94,-432 143.94,-432 149.94,-432 155.94,-438 155.94,-444 155.94,-444 155.94,-456 155.94,-456 155.94,-462 149.94,-468 143.94,-468"/>
<text text-anchor="middle" x="118.94" y="-446.3" font-family="Times,serif" font-size="14.00">arguments</text>
</g>
<!-- ast.FunctionDef object at 0x7fe3a1a033a0&#45;&gt;ast.arguments object at 0x7fe3a1a00970 -->
<g id="edge2" class="edge">
<title>ast.FunctionDef object at 0x7fe3a1a033a0&#45;&gt;ast.arguments object at 0x7fe3a1a00970</title>
<path fill="none" stroke="black" d="M456.17,-514.13C397.4,-504.55 288.4,-486.28 195.94,-468 186.27,-466.09 175.95,-463.91 166.11,-461.76"/>
<polygon fill="black" stroke="black" points="166.59,-458.28 156.07,-459.55 165.08,-465.12 166.59,-458.28"/>
</g>
<!-- ast.Assign object at 0x7fe3a1a03010 -->
<g id="node5" class="node">
<title>ast.Assign object at 0x7fe3a1a03010</title>
<path fill="#66cdaa" stroke="black" d="M246.94,-468C246.94,-468 216.94,-468 216.94,-468 210.94,-468 204.94,-462 204.94,-456 204.94,-456 204.94,-444 204.94,-444 204.94,-438 210.94,-432 216.94,-432 216.94,-432 246.94,-432 246.94,-432 252.94,-432 258.94,-438 258.94,-444 258.94,-444 258.94,-456 258.94,-456 258.94,-462 252.94,-468 246.94,-468"/>
<text text-anchor="middle" x="231.94" y="-446.3" font-family="Times,serif" font-size="14.00">Assign</text>
</g>
<!-- ast.FunctionDef object at 0x7fe3a1a033a0&#45;&gt;ast.Assign object at 0x7fe3a1a03010 -->
<g id="edge4" class="edge">
<title>ast.FunctionDef object at 0x7fe3a1a033a0&#45;&gt;ast.Assign object at 0x7fe3a1a03010</title>
<path fill="none" stroke="black" d="M456.33,-509.83C404.65,-496.28 318.36,-473.66 269.2,-460.77"/>
<polygon fill="black" stroke="black" points="269.87,-457.33 259.31,-458.18 268.09,-464.1 269.87,-457.33"/>
</g>
<!-- ast.Assign object at 0x7fe3a1a01f60 -->
<g id="node15" class="node">
<title>ast.Assign object at 0x7fe3a1a01f60</title>
<path fill="#66cdaa" stroke="black" d="M396.94,-468C396.94,-468 366.94,-468 366.94,-468 360.94,-468 354.94,-462 354.94,-456 354.94,-456 354.94,-444 354.94,-444 354.94,-438 360.94,-432 366.94,-432 366.94,-432 396.94,-432 396.94,-432 402.94,-432 408.94,-438 408.94,-444 408.94,-444 408.94,-456 408.94,-456 408.94,-462 402.94,-468 396.94,-468"/>
<text text-anchor="middle" x="381.94" y="-446.3" font-family="Times,serif" font-size="14.00">Assign</text>
</g>
<!-- ast.FunctionDef object at 0x7fe3a1a033a0&#45;&gt;ast.Assign object at 0x7fe3a1a01f60 -->
<g id="edge14" class="edge">
<title>ast.FunctionDef object at 0x7fe3a1a033a0&#45;&gt;ast.Assign object at 0x7fe3a1a01f60</title>
<path fill="none" stroke="black" d="M470.31,-503.88C454.56,-494.45 434.85,-482.66 418.05,-472.61"/>
<polygon fill="black" stroke="black" points="419.43,-469.36 409.06,-467.23 415.84,-475.36 419.43,-469.36"/>
</g>
<!-- ast.Assign object at 0x7fe3a1a00700 -->
<g id="node18" class="node">
<title>ast.Assign object at 0x7fe3a1a00700</title>
<path fill="#66cdaa" stroke="black" d="M513.94,-468C513.94,-468 483.94,-468 483.94,-468 477.94,-468 471.94,-462 471.94,-456 471.94,-456 471.94,-444 471.94,-444 471.94,-438 477.94,-432 483.94,-432 483.94,-432 513.94,-432 513.94,-432 519.94,-432 525.94,-438 525.94,-444 525.94,-444 525.94,-456 525.94,-456 525.94,-462 519.94,-468 513.94,-468"/>
<text text-anchor="middle" x="498.94" y="-446.3" font-family="Times,serif" font-size="14.00">Assign</text>
</g>
<!-- ast.FunctionDef object at 0x7fe3a1a033a0&#45;&gt;ast.Assign object at 0x7fe3a1a00700 -->
<g id="edge18" class="edge">
<title>ast.FunctionDef object at 0x7fe3a1a033a0&#45;&gt;ast.Assign object at 0x7fe3a1a00700</title>
<path fill="none" stroke="black" d="M498.94,-503.7C498.94,-495.98 498.94,-486.71 498.94,-478.11"/>
<polygon fill="black" stroke="black" points="502.44,-478.1 498.94,-468.1 495.44,-478.1 502.44,-478.1"/>
</g>
<!-- ast.Assign object at 0x7fe3a1a03f40 -->
<g id="node21" class="node">
<title>ast.Assign object at 0x7fe3a1a03f40</title>
<path fill="#66cdaa" stroke="black" d="M630.94,-468C630.94,-468 600.94,-468 600.94,-468 594.94,-468 588.94,-462 588.94,-456 588.94,-456 588.94,-444 588.94,-444 588.94,-438 594.94,-432 600.94,-432 600.94,-432 630.94,-432 630.94,-432 636.94,-432 642.94,-438 642.94,-444 642.94,-444 642.94,-456 642.94,-456 642.94,-462 636.94,-468 630.94,-468"/>
<text text-anchor="middle" x="615.94" y="-446.3" font-family="Times,serif" font-size="14.00">Assign</text>
</g>
<!-- ast.FunctionDef object at 0x7fe3a1a033a0&#45;&gt;ast.Assign object at 0x7fe3a1a03f40 -->
<g id="edge22" class="edge">
<title>ast.FunctionDef object at 0x7fe3a1a033a0&#45;&gt;ast.Assign object at 0x7fe3a1a03f40</title>
<path fill="none" stroke="black" d="M527.56,-503.88C543.31,-494.45 563.02,-482.66 579.82,-472.61"/>
<polygon fill="black" stroke="black" points="582.03,-475.36 588.82,-467.23 578.44,-469.36 582.03,-475.36"/>
</g>
<!-- ast.For object at 0x7fe3a1a00ac0 -->
<g id="node24" class="node">
<title>ast.For object at 0x7fe3a1a00ac0</title>
<path fill="#66cdaa" stroke="black" d="M767.94,-468C767.94,-468 737.94,-468 737.94,-468 731.94,-468 725.94,-462 725.94,-456 725.94,-456 725.94,-444 725.94,-444 725.94,-438 731.94,-432 737.94,-432 737.94,-432 767.94,-432 767.94,-432 773.94,-432 779.94,-438 779.94,-444 779.94,-444 779.94,-456 779.94,-456 779.94,-462 773.94,-468 767.94,-468"/>
<text text-anchor="middle" x="752.94" y="-446.3" font-family="Times,serif" font-size="14.00">For</text>
</g>
<!-- ast.FunctionDef object at 0x7fe3a1a033a0&#45;&gt;ast.For object at 0x7fe3a1a00ac0 -->
<g id="edge27" class="edge">
<title>ast.FunctionDef object at 0x7fe3a1a033a0&#45;&gt;ast.For object at 0x7fe3a1a00ac0</title>
<path fill="none" stroke="black" d="M541.45,-509.28C590.29,-495.82 669.65,-473.95 716.01,-461.18"/>
<polygon fill="black" stroke="black" points="717.22,-464.47 725.93,-458.44 715.36,-457.73 717.22,-464.47"/>
</g>
<!-- ast.Return object at 0x7fe3a0ec08e0 -->
<g id="node51" class="node">
<title>ast.Return object at 0x7fe3a0ec08e0</title>
<path fill="#66cdaa" stroke="black" d="M940.94,-468C940.94,-468 910.94,-468 910.94,-468 904.94,-468 898.94,-462 898.94,-456 898.94,-456 898.94,-444 898.94,-444 898.94,-438 904.94,-432 910.94,-432 910.94,-432 940.94,-432 940.94,-432 946.94,-432 952.94,-438 952.94,-444 952.94,-444 952.94,-456 952.94,-456 952.94,-462 946.94,-468 940.94,-468"/>
<text text-anchor="middle" x="925.94" y="-446.3" font-family="Times,serif" font-size="14.00">Return</text>
</g>
<!-- ast.FunctionDef object at 0x7fe3a1a033a0&#45;&gt;ast.Return object at 0x7fe3a0ec08e0 -->
<g id="edge66" class="edge">
<title>ast.FunctionDef object at 0x7fe3a1a033a0&#45;&gt;ast.Return object at 0x7fe3a0ec08e0</title>
<path fill="none" stroke="black" d="M541.44,-514.03C625.12,-500.31 809.94,-470.02 888.95,-457.06"/>
<polygon fill="black" stroke="black" points="889.63,-460.5 898.93,-455.43 888.49,-453.59 889.63,-460.5"/>
</g>
<!-- ast.arg object at 0x7fe3a1a02b90 -->
<g id="node4" class="node">
<title>ast.arg object at 0x7fe3a1a02b90</title>
<path fill="#66cdaa" stroke="black" d="M102.94,-396C102.94,-396 72.94,-396 72.94,-396 66.94,-396 60.94,-390 60.94,-384 60.94,-384 60.94,-372 60.94,-372 60.94,-366 66.94,-360 72.94,-360 72.94,-360 102.94,-360 102.94,-360 108.94,-360 114.94,-366 114.94,-372 114.94,-372 114.94,-384 114.94,-384 114.94,-390 108.94,-396 102.94,-396"/>
<text text-anchor="middle" x="87.94" y="-374.3" font-family="Times,serif" font-size="14.00">arg</text>
</g>
<!-- ast.arguments object at 0x7fe3a1a00970&#45;&gt;ast.arg object at 0x7fe3a1a02b90 -->
<g id="edge3" class="edge">
<title>ast.arguments object at 0x7fe3a1a00970&#45;&gt;ast.arg object at 0x7fe3a1a02b90</title>
<path fill="none" stroke="black" d="M111.27,-431.7C107.74,-423.73 103.48,-414.1 99.57,-405.26"/>
<polygon fill="black" stroke="black" points="102.76,-403.83 95.51,-396.1 96.36,-406.67 102.76,-403.83"/>
</g>
<!-- ast.Name object at 0x7fe3a1a030d0 -->
<g id="node6" class="node">
<title>ast.Name object at 0x7fe3a1a030d0</title>
<path fill="#66cdaa" stroke="black" d="M246.94,-396C246.94,-396 216.94,-396 216.94,-396 210.94,-396 204.94,-390 204.94,-384 204.94,-384 204.94,-372 204.94,-372 204.94,-366 210.94,-360 216.94,-360 216.94,-360 246.94,-360 246.94,-360 252.94,-360 258.94,-366 258.94,-372 258.94,-372 258.94,-384 258.94,-384 258.94,-390 252.94,-396 246.94,-396"/>
<text text-anchor="middle" x="231.94" y="-374.3" font-family="Times,serif" font-size="14.00">Name</text>
</g>
<!-- ast.Assign object at 0x7fe3a1a03010&#45;&gt;ast.Name object at 0x7fe3a1a030d0 -->
<g id="edge5" class="edge">
<title>ast.Assign object at 0x7fe3a1a03010&#45;&gt;ast.Name object at 0x7fe3a1a030d0</title>
<path fill="none" stroke="black" d="M231.94,-431.7C231.94,-423.98 231.94,-414.71 231.94,-406.11"/>
<polygon fill="black" stroke="black" points="235.44,-406.1 231.94,-396.1 228.44,-406.1 235.44,-406.1"/>
</g>
<!-- ast.List object at 0x7fe3a1a00310 -->
<g id="node8" class="node">
<title>ast.List object at 0x7fe3a1a00310</title>
<path fill="#66cdaa" stroke="black" d="M174.94,-396C174.94,-396 144.94,-396 144.94,-396 138.94,-396 132.94,-390 132.94,-384 132.94,-384 132.94,-372 132.94,-372 132.94,-366 138.94,-360 144.94,-360 144.94,-360 174.94,-360 174.94,-360 180.94,-360 186.94,-366 186.94,-372 186.94,-372 186.94,-384 186.94,-384 186.94,-390 180.94,-396 174.94,-396"/>
<text text-anchor="middle" x="159.94" y="-374.3" font-family="Times,serif" font-size="14.00">List</text>
</g>
<!-- ast.Assign object at 0x7fe3a1a03010&#45;&gt;ast.List object at 0x7fe3a1a00310 -->
<g id="edge7" class="edge">
<title>ast.Assign object at 0x7fe3a1a03010&#45;&gt;ast.List object at 0x7fe3a1a00310</title>
<path fill="none" stroke="black" d="M214.14,-431.7C205.33,-423.14 194.55,-412.66 184.93,-403.3"/>
<polygon fill="black" stroke="black" points="187.14,-400.57 177.53,-396.1 182.26,-405.58 187.14,-400.57"/>
</g>
<!-- ast.Store object at 0x7fe3a55ee050 -->
<g id="node7" class="node">
<title>ast.Store object at 0x7fe3a55ee050</title>
<path fill="#66cdaa" stroke="black" d="M487.94,-324C487.94,-324 457.94,-324 457.94,-324 451.94,-324 445.94,-318 445.94,-312 445.94,-312 445.94,-300 445.94,-300 445.94,-294 451.94,-288 457.94,-288 457.94,-288 487.94,-288 487.94,-288 493.94,-288 499.94,-294 499.94,-300 499.94,-300 499.94,-312 499.94,-312 499.94,-318 493.94,-324 487.94,-324"/>
<text text-anchor="middle" x="472.94" y="-302.3" font-family="Times,serif" font-size="14.00">Store</text>
</g>
<!-- ast.Name object at 0x7fe3a1a030d0&#45;&gt;ast.Store object at 0x7fe3a55ee050 -->
<g id="edge6" class="edge">
<title>ast.Name object at 0x7fe3a1a030d0&#45;&gt;ast.Store object at 0x7fe3a55ee050</title>
<path fill="none" stroke="black" d="M259.18,-363.34C262.1,-362.12 265.06,-360.97 267.94,-360 340.27,-335.53 363.47,-348.09 435.94,-324 436.04,-323.97 436.14,-323.93 436.24,-323.9"/>
<polygon fill="black" stroke="black" points="437.61,-327.12 445.73,-320.31 435.14,-320.57 437.61,-327.12"/>
</g>
<!-- ast.Constant object at 0x7fe3a1a007c0 -->
<g id="node9" class="node">
<title>ast.Constant object at 0x7fe3a1a007c0</title>
<path fill="#66cdaa" stroke="black" d="M83.44,-324C83.44,-324 42.44,-324 42.44,-324 36.44,-324 30.44,-318 30.44,-312 30.44,-312 30.44,-300 30.44,-300 30.44,-294 36.44,-288 42.44,-288 42.44,-288 83.44,-288 83.44,-288 89.44,-288 95.44,-294 95.44,-300 95.44,-300 95.44,-312 95.44,-312 95.44,-318 89.44,-324 83.44,-324"/>
<text text-anchor="middle" x="62.94" y="-302.3" font-family="Times,serif" font-size="14.00">Constant</text>
</g>
<!-- ast.List object at 0x7fe3a1a00310&#45;&gt;ast.Constant object at 0x7fe3a1a007c0 -->
<g id="edge8" class="edge">
<title>ast.List object at 0x7fe3a1a00310&#45;&gt;ast.Constant object at 0x7fe3a1a007c0</title>
<path fill="none" stroke="black" d="M135.96,-359.7C123.62,-350.8 108.42,-339.82 95.08,-330.2"/>
<polygon fill="black" stroke="black" points="96.79,-327.12 86.64,-324.1 92.7,-332.79 96.79,-327.12"/>
</g>
<!-- ast.Constant object at 0x7fe3a1a01210 -->
<g id="node10" class="node">
<title>ast.Constant object at 0x7fe3a1a01210</title>
<path fill="#66cdaa" stroke="black" d="M166.44,-324C166.44,-324 125.44,-324 125.44,-324 119.44,-324 113.44,-318 113.44,-312 113.44,-312 113.44,-300 113.44,-300 113.44,-294 119.44,-288 125.44,-288 125.44,-288 166.44,-288 166.44,-288 172.44,-288 178.44,-294 178.44,-300 178.44,-300 178.44,-312 178.44,-312 178.44,-318 172.44,-324 166.44,-324"/>
<text text-anchor="middle" x="145.94" y="-302.3" font-family="Times,serif" font-size="14.00">Constant</text>
</g>
<!-- ast.List object at 0x7fe3a1a00310&#45;&gt;ast.Constant object at 0x7fe3a1a01210 -->
<g id="edge9" class="edge">
<title>ast.List object at 0x7fe3a1a00310&#45;&gt;ast.Constant object at 0x7fe3a1a01210</title>
<path fill="none" stroke="black" d="M156.48,-359.7C154.93,-351.98 153.08,-342.71 151.36,-334.11"/>
<polygon fill="black" stroke="black" points="154.75,-333.22 149.36,-324.1 147.89,-334.6 154.75,-333.22"/>
</g>
<!-- ast.Constant object at 0x7fe3a1a00f40 -->
<g id="node11" class="node">
<title>ast.Constant object at 0x7fe3a1a00f40</title>
<path fill="#66cdaa" stroke="black" d="M249.44,-324C249.44,-324 208.44,-324 208.44,-324 202.44,-324 196.44,-318 196.44,-312 196.44,-312 196.44,-300 196.44,-300 196.44,-294 202.44,-288 208.44,-288 208.44,-288 249.44,-288 249.44,-288 255.44,-288 261.44,-294 261.44,-300 261.44,-300 261.44,-312 261.44,-312 261.44,-318 255.44,-324 249.44,-324"/>
<text text-anchor="middle" x="228.94" y="-302.3" font-family="Times,serif" font-size="14.00">Constant</text>
</g>
<!-- ast.List object at 0x7fe3a1a00310&#45;&gt;ast.Constant object at 0x7fe3a1a00f40 -->
<g id="edge10" class="edge">
<title>ast.List object at 0x7fe3a1a00310&#45;&gt;ast.Constant object at 0x7fe3a1a00f40</title>
<path fill="none" stroke="black" d="M176.99,-359.7C185.43,-351.14 195.76,-340.66 204.98,-331.3"/>
<polygon fill="black" stroke="black" points="207.55,-333.68 212.08,-324.1 202.56,-328.77 207.55,-333.68"/>
</g>
<!-- ast.Constant object at 0x7fe3a1a001c0 -->
<g id="node12" class="node">
<title>ast.Constant object at 0x7fe3a1a001c0</title>
<path fill="#66cdaa" stroke="black" d="M332.44,-324C332.44,-324 291.44,-324 291.44,-324 285.44,-324 279.44,-318 279.44,-312 279.44,-312 279.44,-300 279.44,-300 279.44,-294 285.44,-288 291.44,-288 291.44,-288 332.44,-288 332.44,-288 338.44,-288 344.44,-294 344.44,-300 344.44,-300 344.44,-312 344.44,-312 344.44,-318 338.44,-324 332.44,-324"/>
<text text-anchor="middle" x="311.94" y="-302.3" font-family="Times,serif" font-size="14.00">Constant</text>
</g>
<!-- ast.List object at 0x7fe3a1a00310&#45;&gt;ast.Constant object at 0x7fe3a1a001c0 -->
<g id="edge11" class="edge">
<title>ast.List object at 0x7fe3a1a00310&#45;&gt;ast.Constant object at 0x7fe3a1a001c0</title>
<path fill="none" stroke="black" d="M187.05,-364.15C190.04,-362.75 193.05,-361.34 195.94,-360 220.53,-348.57 248.15,-335.95 270.27,-325.88"/>
<polygon fill="black" stroke="black" points="271.73,-329.06 279.38,-321.74 268.83,-322.69 271.73,-329.06"/>
</g>
<!-- ast.Constant object at 0x7fe3a1a00d60 -->
<g id="node13" class="node">
<title>ast.Constant object at 0x7fe3a1a00d60</title>
<path fill="#66cdaa" stroke="black" d="M415.44,-324C415.44,-324 374.44,-324 374.44,-324 368.44,-324 362.44,-318 362.44,-312 362.44,-312 362.44,-300 362.44,-300 362.44,-294 368.44,-288 374.44,-288 374.44,-288 415.44,-288 415.44,-288 421.44,-288 427.44,-294 427.44,-300 427.44,-300 427.44,-312 427.44,-312 427.44,-318 421.44,-324 415.44,-324"/>
<text text-anchor="middle" x="394.94" y="-302.3" font-family="Times,serif" font-size="14.00">Constant</text>
</g>
<!-- ast.List object at 0x7fe3a1a00310&#45;&gt;ast.Constant object at 0x7fe3a1a00d60 -->
<g id="edge12" class="edge">
<title>ast.List object at 0x7fe3a1a00310&#45;&gt;ast.Constant object at 0x7fe3a1a00d60</title>
<path fill="none" stroke="black" d="M187.2,-363.38C190.11,-362.15 193.06,-360.99 195.94,-360 260.68,-337.59 282.76,-344.79 352.42,-323.86"/>
<polygon fill="black" stroke="black" points="353.58,-327.17 362.1,-320.87 351.51,-320.48 353.58,-327.17"/>
</g>
<!-- ast.Load object at 0x7fe3a55edff0 -->
<g id="node14" class="node">
<title>ast.Load object at 0x7fe3a55edff0</title>
<path fill="#66cdaa" stroke="black" d="M555.94,-36C555.94,-36 525.94,-36 525.94,-36 519.94,-36 513.94,-30 513.94,-24 513.94,-24 513.94,-12 513.94,-12 513.94,-6 519.94,0 525.94,0 525.94,0 555.94,0 555.94,0 561.94,0 567.94,-6 567.94,-12 567.94,-12 567.94,-24 567.94,-24 567.94,-30 561.94,-36 555.94,-36"/>
<text text-anchor="middle" x="540.94" y="-14.3" font-family="Times,serif" font-size="14.00">Load</text>
</g>
<!-- ast.List object at 0x7fe3a1a00310&#45;&gt;ast.Load object at 0x7fe3a55edff0 -->
<g id="edge13" class="edge">
<title>ast.List object at 0x7fe3a1a00310&#45;&gt;ast.Load object at 0x7fe3a55edff0</title>
<path fill="none" stroke="black" d="M132.55,-363.71C129.66,-362.41 126.75,-361.15 123.94,-360 79.06,-341.62 53,-360.38 20.94,-324 -5.81,-293.66 1.94,-275.45 1.94,-235 1.94,-235 1.94,-235 1.94,-161 1.94,-57.09 381.29,-27.58 503.49,-20.78"/>
<polygon fill="black" stroke="black" points="504.04,-24.25 513.84,-20.22 503.66,-17.26 504.04,-24.25"/>
</g>
<!-- ast.Name object at 0x7fe3a1a00ee0 -->
<g id="node16" class="node">
<title>ast.Name object at 0x7fe3a1a00ee0</title>
<path fill="#66cdaa" stroke="black" d="M318.94,-396C318.94,-396 288.94,-396 288.94,-396 282.94,-396 276.94,-390 276.94,-384 276.94,-384 276.94,-372 276.94,-372 276.94,-366 282.94,-360 288.94,-360 288.94,-360 318.94,-360 318.94,-360 324.94,-360 330.94,-366 330.94,-372 330.94,-372 330.94,-384 330.94,-384 330.94,-390 324.94,-396 318.94,-396"/>
<text text-anchor="middle" x="303.94" y="-374.3" font-family="Times,serif" font-size="14.00">Name</text>
</g>
<!-- ast.Assign object at 0x7fe3a1a01f60&#45;&gt;ast.Name object at 0x7fe3a1a00ee0 -->
<g id="edge15" class="edge">
<title>ast.Assign object at 0x7fe3a1a01f60&#45;&gt;ast.Name object at 0x7fe3a1a00ee0</title>
<path fill="none" stroke="black" d="M362.66,-431.7C353.02,-423.05 341.21,-412.45 330.71,-403.03"/>
<polygon fill="black" stroke="black" points="332.78,-400.18 323,-396.1 328.1,-405.39 332.78,-400.18"/>
</g>
<!-- ast.Constant object at 0x7fe3a1a014e0 -->
<g id="node17" class="node">
<title>ast.Constant object at 0x7fe3a1a014e0</title>
<path fill="#66cdaa" stroke="black" d="M402.44,-396C402.44,-396 361.44,-396 361.44,-396 355.44,-396 349.44,-390 349.44,-384 349.44,-384 349.44,-372 349.44,-372 349.44,-366 355.44,-360 361.44,-360 361.44,-360 402.44,-360 402.44,-360 408.44,-360 414.44,-366 414.44,-372 414.44,-372 414.44,-384 414.44,-384 414.44,-390 408.44,-396 402.44,-396"/>
<text text-anchor="middle" x="381.94" y="-374.3" font-family="Times,serif" font-size="14.00">Constant</text>
</g>
<!-- ast.Assign object at 0x7fe3a1a01f60&#45;&gt;ast.Constant object at 0x7fe3a1a014e0 -->
<g id="edge17" class="edge">
<title>ast.Assign object at 0x7fe3a1a01f60&#45;&gt;ast.Constant object at 0x7fe3a1a014e0</title>
<path fill="none" stroke="black" d="M381.94,-431.7C381.94,-423.98 381.94,-414.71 381.94,-406.11"/>
<polygon fill="black" stroke="black" points="385.44,-406.1 381.94,-396.1 378.44,-406.1 385.44,-406.1"/>
</g>
<!-- ast.Name object at 0x7fe3a1a00ee0&#45;&gt;ast.Store object at 0x7fe3a55ee050 -->
<g id="edge16" class="edge">
<title>ast.Name object at 0x7fe3a1a00ee0&#45;&gt;ast.Store object at 0x7fe3a55ee050</title>
<path fill="none" stroke="black" d="M330.95,-363.95C333.97,-362.58 337.01,-361.24 339.94,-360 381.91,-342.26 393.87,-341.52 435.94,-324 436.03,-323.96 436.13,-323.92 436.23,-323.88"/>
<polygon fill="black" stroke="black" points="437.76,-327.03 445.55,-319.85 434.99,-320.6 437.76,-327.03"/>
</g>
<!-- ast.Name object at 0x7fe3a1a01450 -->
<g id="node19" class="node">
<title>ast.Name object at 0x7fe3a1a01450</title>
<path fill="#66cdaa" stroke="black" d="M474.94,-396C474.94,-396 444.94,-396 444.94,-396 438.94,-396 432.94,-390 432.94,-384 432.94,-384 432.94,-372 432.94,-372 432.94,-366 438.94,-360 444.94,-360 444.94,-360 474.94,-360 474.94,-360 480.94,-360 486.94,-366 486.94,-372 486.94,-372 486.94,-384 486.94,-384 486.94,-390 480.94,-396 474.94,-396"/>
<text text-anchor="middle" x="459.94" y="-374.3" font-family="Times,serif" font-size="14.00">Name</text>
</g>
<!-- ast.Assign object at 0x7fe3a1a00700&#45;&gt;ast.Name object at 0x7fe3a1a01450 -->
<g id="edge19" class="edge">
<title>ast.Assign object at 0x7fe3a1a00700&#45;&gt;ast.Name object at 0x7fe3a1a01450</title>
<path fill="none" stroke="black" d="M489.3,-431.7C484.81,-423.64 479.38,-413.89 474.41,-404.98"/>
<polygon fill="black" stroke="black" points="477.39,-403.14 469.47,-396.1 471.28,-406.54 477.39,-403.14"/>
</g>
<!-- ast.Constant object at 0x7fe3a1a02320 -->
<g id="node20" class="node">
<title>ast.Constant object at 0x7fe3a1a02320</title>
<path fill="#66cdaa" stroke="black" d="M558.44,-396C558.44,-396 517.44,-396 517.44,-396 511.44,-396 505.44,-390 505.44,-384 505.44,-384 505.44,-372 505.44,-372 505.44,-366 511.44,-360 517.44,-360 517.44,-360 558.44,-360 558.44,-360 564.44,-360 570.44,-366 570.44,-372 570.44,-372 570.44,-384 570.44,-384 570.44,-390 564.44,-396 558.44,-396"/>
<text text-anchor="middle" x="537.94" y="-374.3" font-family="Times,serif" font-size="14.00">Constant</text>
</g>
<!-- ast.Assign object at 0x7fe3a1a00700&#45;&gt;ast.Constant object at 0x7fe3a1a02320 -->
<g id="edge21" class="edge">
<title>ast.Assign object at 0x7fe3a1a00700&#45;&gt;ast.Constant object at 0x7fe3a1a02320</title>
<path fill="none" stroke="black" d="M508.58,-431.7C513.06,-423.64 518.49,-413.89 523.46,-404.98"/>
<polygon fill="black" stroke="black" points="526.6,-406.54 528.41,-396.1 520.48,-403.14 526.6,-406.54"/>
</g>
<!-- ast.Name object at 0x7fe3a1a01450&#45;&gt;ast.Store object at 0x7fe3a55ee050 -->
<g id="edge20" class="edge">
<title>ast.Name object at 0x7fe3a1a01450&#45;&gt;ast.Store object at 0x7fe3a55ee050</title>
<path fill="none" stroke="black" d="M463.15,-359.7C464.58,-351.98 466.3,-342.71 467.9,-334.11"/>
<polygon fill="black" stroke="black" points="471.37,-334.58 469.76,-324.1 464.49,-333.3 471.37,-334.58"/>
</g>
<!-- ast.Name object at 0x7fe3a1a01b70 -->
<g id="node22" class="node">
<title>ast.Name object at 0x7fe3a1a01b70</title>
<path fill="#66cdaa" stroke="black" d="M630.94,-396C630.94,-396 600.94,-396 600.94,-396 594.94,-396 588.94,-390 588.94,-384 588.94,-384 588.94,-372 588.94,-372 588.94,-366 594.94,-360 600.94,-360 600.94,-360 630.94,-360 630.94,-360 636.94,-360 642.94,-366 642.94,-372 642.94,-372 642.94,-384 642.94,-384 642.94,-390 636.94,-396 630.94,-396"/>
<text text-anchor="middle" x="615.94" y="-374.3" font-family="Times,serif" font-size="14.00">Name</text>
</g>
<!-- ast.Assign object at 0x7fe3a1a03f40&#45;&gt;ast.Name object at 0x7fe3a1a01b70 -->
<g id="edge23" class="edge">
<title>ast.Assign object at 0x7fe3a1a03f40&#45;&gt;ast.Name object at 0x7fe3a1a01b70</title>
<path fill="none" stroke="black" d="M615.94,-431.7C615.94,-423.98 615.94,-414.71 615.94,-406.11"/>
<polygon fill="black" stroke="black" points="619.44,-406.1 615.94,-396.1 612.44,-406.1 619.44,-406.1"/>
</g>
<!-- ast.List object at 0x7fe3a1a01990 -->
<g id="node23" class="node">
<title>ast.List object at 0x7fe3a1a01990</title>
<path fill="#66cdaa" stroke="black" d="M207.94,-252C207.94,-252 177.94,-252 177.94,-252 171.94,-252 165.94,-246 165.94,-240 165.94,-240 165.94,-228 165.94,-228 165.94,-222 171.94,-216 177.94,-216 177.94,-216 207.94,-216 207.94,-216 213.94,-216 219.94,-222 219.94,-228 219.94,-228 219.94,-240 219.94,-240 219.94,-246 213.94,-252 207.94,-252"/>
<text text-anchor="middle" x="192.94" y="-230.3" font-family="Times,serif" font-size="14.00">List</text>
</g>
<!-- ast.Assign object at 0x7fe3a1a03f40&#45;&gt;ast.List object at 0x7fe3a1a01990 -->
<g id="edge25" class="edge">
<title>ast.Assign object at 0x7fe3a1a03f40&#45;&gt;ast.List object at 0x7fe3a1a01990</title>
<path fill="none" stroke="black" d="M632.1,-431.8C647.47,-413.25 666.27,-383.27 651.94,-360 614.61,-299.42 576.79,-309.43 508.94,-288 403.57,-254.73 371.41,-273.06 262.94,-252 252.14,-249.9 240.51,-247.24 229.88,-244.65"/>
<polygon fill="black" stroke="black" points="230.62,-241.23 220.07,-242.21 228.93,-248.02 230.62,-241.23"/>
</g>
<!-- ast.Name object at 0x7fe3a1a01b70&#45;&gt;ast.Store object at 0x7fe3a55ee050 -->
<g id="edge24" class="edge">
<title>ast.Name object at 0x7fe3a1a01b70&#45;&gt;ast.Store object at 0x7fe3a55ee050</title>
<path fill="none" stroke="black" d="M588.7,-363.67C566.14,-352.62 533.88,-336.83 509.14,-324.72"/>
<polygon fill="black" stroke="black" points="510.59,-321.53 500.07,-320.28 507.51,-327.82 510.59,-321.53"/>
</g>
<!-- ast.List object at 0x7fe3a1a01990&#45;&gt;ast.Load object at 0x7fe3a55edff0 -->
<g id="edge26" class="edge">
<title>ast.List object at 0x7fe3a1a01990&#45;&gt;ast.Load object at 0x7fe3a55edff0</title>
<path fill="none" stroke="black" d="M188.07,-215.75C179.99,-183.01 168.11,-111.63 204.94,-72 244.77,-29.13 424.29,-20.87 503.35,-19.33"/>
<polygon fill="black" stroke="black" points="503.88,-22.82 513.82,-19.15 503.76,-15.82 503.88,-22.82"/>
</g>
<!-- ast.Name object at 0x7fe3a1164730 -->
<g id="node25" class="node">
<title>ast.Name object at 0x7fe3a1164730</title>
<path fill="#66cdaa" stroke="black" d="M740.94,-396C740.94,-396 710.94,-396 710.94,-396 704.94,-396 698.94,-390 698.94,-384 698.94,-384 698.94,-372 698.94,-372 698.94,-366 704.94,-360 710.94,-360 710.94,-360 740.94,-360 740.94,-360 746.94,-360 752.94,-366 752.94,-372 752.94,-372 752.94,-384 752.94,-384 752.94,-390 746.94,-396 740.94,-396"/>
<text text-anchor="middle" x="725.94" y="-374.3" font-family="Times,serif" font-size="14.00">Name</text>
</g>
<!-- ast.For object at 0x7fe3a1a00ac0&#45;&gt;ast.Name object at 0x7fe3a1164730 -->
<g id="edge28" class="edge">
<title>ast.For object at 0x7fe3a1a00ac0&#45;&gt;ast.Name object at 0x7fe3a1164730</title>
<path fill="none" stroke="black" d="M746.26,-431.7C743.22,-423.81 739.55,-414.3 736.18,-405.55"/>
<polygon fill="black" stroke="black" points="739.4,-404.17 732.53,-396.1 732.87,-406.69 739.4,-404.17"/>
</g>
<!-- ast.Subscript object at 0x7fe3a1167fd0 -->
<g id="node26" class="node">
<title>ast.Subscript object at 0x7fe3a1167fd0</title>
<path fill="#66cdaa" stroke="black" d="M327.94,-252C327.94,-252 283.94,-252 283.94,-252 277.94,-252 271.94,-246 271.94,-240 271.94,-240 271.94,-228 271.94,-228 271.94,-222 277.94,-216 283.94,-216 283.94,-216 327.94,-216 327.94,-216 333.94,-216 339.94,-222 339.94,-228 339.94,-228 339.94,-240 339.94,-240 339.94,-246 333.94,-252 327.94,-252"/>
<text text-anchor="middle" x="305.94" y="-230.3" font-family="Times,serif" font-size="14.00">Subscript</text>
</g>
<!-- ast.For object at 0x7fe3a1a00ac0&#45;&gt;ast.Subscript object at 0x7fe3a1167fd0 -->
<g id="edge30" class="edge">
<title>ast.For object at 0x7fe3a1a00ac0&#45;&gt;ast.Subscript object at 0x7fe3a1167fd0</title>
<path fill="none" stroke="black" d="M760.74,-431.98C768.26,-412.78 776.54,-381.43 761.94,-360 714.98,-291.06 455.19,-252.8 350.09,-239.96"/>
<polygon fill="black" stroke="black" points="350.46,-236.48 340.11,-238.76 349.62,-243.43 350.46,-236.48"/>
</g>
<!-- ast.If object at 0x7fe3a1063ca0 -->
<g id="node31" class="node">
<title>ast.If object at 0x7fe3a1063ca0</title>
<path fill="#66cdaa" stroke="black" d="M850.94,-396C850.94,-396 820.94,-396 820.94,-396 814.94,-396 808.94,-390 808.94,-384 808.94,-384 808.94,-372 808.94,-372 808.94,-366 814.94,-360 820.94,-360 820.94,-360 850.94,-360 850.94,-360 856.94,-360 862.94,-366 862.94,-372 862.94,-372 862.94,-384 862.94,-384 862.94,-390 856.94,-396 850.94,-396"/>
<text text-anchor="middle" x="835.94" y="-374.3" font-family="Times,serif" font-size="14.00">If</text>
</g>
<!-- ast.For object at 0x7fe3a1a00ac0&#45;&gt;ast.If object at 0x7fe3a1063ca0 -->
<g id="edge39" class="edge">
<title>ast.For object at 0x7fe3a1a00ac0&#45;&gt;ast.If object at 0x7fe3a1063ca0</title>
<path fill="none" stroke="black" d="M773.45,-431.7C783.81,-422.97 796.52,-412.24 807.77,-402.75"/>
<polygon fill="black" stroke="black" points="810.27,-405.23 815.66,-396.1 805.75,-399.88 810.27,-405.23"/>
</g>
<!-- ast.Name object at 0x7fe3a1164730&#45;&gt;ast.Store object at 0x7fe3a55ee050 -->
<g id="edge29" class="edge">
<title>ast.Name object at 0x7fe3a1164730&#45;&gt;ast.Store object at 0x7fe3a55ee050</title>
<path fill="none" stroke="black" d="M698.86,-369.51C653.33,-356.91 561.37,-331.47 509.92,-317.23"/>
<polygon fill="black" stroke="black" points="510.77,-313.84 500.2,-314.54 508.9,-320.58 510.77,-313.84"/>
</g>
<!-- ast.Subscript object at 0x7fe3a1167fd0&#45;&gt;ast.Load object at 0x7fe3a55edff0 -->
<g id="edge38" class="edge">
<title>ast.Subscript object at 0x7fe3a1167fd0&#45;&gt;ast.Load object at 0x7fe3a55edff0</title>
<path fill="none" stroke="black" d="M271.49,-222.65C251.14,-214.56 227.05,-201.08 214.94,-180 190.48,-137.45 200.96,-104.26 237.94,-72 277.06,-37.87 431.54,-25.01 503.58,-20.8"/>
<polygon fill="black" stroke="black" points="503.8,-24.29 513.59,-20.24 503.41,-17.3 503.8,-24.29"/>
</g>
<!-- ast.Name object at 0x7fe3a1164370 -->
<g id="node27" class="node">
<title>ast.Name object at 0x7fe3a1164370</title>
<path fill="#66cdaa" stroke="black" d="M265.94,-180C265.94,-180 235.94,-180 235.94,-180 229.94,-180 223.94,-174 223.94,-168 223.94,-168 223.94,-156 223.94,-156 223.94,-150 229.94,-144 235.94,-144 235.94,-144 265.94,-144 265.94,-144 271.94,-144 277.94,-150 277.94,-156 277.94,-156 277.94,-168 277.94,-168 277.94,-174 271.94,-180 265.94,-180"/>
<text text-anchor="middle" x="250.94" y="-158.3" font-family="Times,serif" font-size="14.00">Name</text>
</g>
<!-- ast.Subscript object at 0x7fe3a1167fd0&#45;&gt;ast.Name object at 0x7fe3a1164370 -->
<g id="edge31" class="edge">
<title>ast.Subscript object at 0x7fe3a1167fd0&#45;&gt;ast.Name object at 0x7fe3a1164370</title>
<path fill="none" stroke="black" d="M292.34,-215.7C285.81,-207.39 277.87,-197.28 270.69,-188.14"/>
<polygon fill="black" stroke="black" points="273.31,-185.81 264.38,-180.1 267.8,-190.13 273.31,-185.81"/>
</g>
<!-- ast.Slice object at 0x7fe3a1164b20 -->
<g id="node28" class="node">
<title>ast.Slice object at 0x7fe3a1164b20</title>
<path fill="#66cdaa" stroke="black" d="M337.94,-180C337.94,-180 307.94,-180 307.94,-180 301.94,-180 295.94,-174 295.94,-168 295.94,-168 295.94,-156 295.94,-156 295.94,-150 301.94,-144 307.94,-144 307.94,-144 337.94,-144 337.94,-144 343.94,-144 349.94,-150 349.94,-156 349.94,-156 349.94,-168 349.94,-168 349.94,-174 343.94,-180 337.94,-180"/>
<text text-anchor="middle" x="322.94" y="-158.3" font-family="Times,serif" font-size="14.00">Slice</text>
</g>
<!-- ast.Subscript object at 0x7fe3a1167fd0&#45;&gt;ast.Slice object at 0x7fe3a1164b20 -->
<g id="edge33" class="edge">
<title>ast.Subscript object at 0x7fe3a1167fd0&#45;&gt;ast.Slice object at 0x7fe3a1164b20</title>
<path fill="none" stroke="black" d="M310.14,-215.7C312.03,-207.9 314.31,-198.51 316.42,-189.83"/>
<polygon fill="black" stroke="black" points="319.82,-190.65 318.78,-180.1 313.02,-189 319.82,-190.65"/>
</g>
<!-- ast.Name object at 0x7fe3a1164370&#45;&gt;ast.Load object at 0x7fe3a55edff0 -->
<g id="edge32" class="edge">
<title>ast.Name object at 0x7fe3a1164370&#45;&gt;ast.Load object at 0x7fe3a55edff0</title>
<path fill="none" stroke="black" d="M245.51,-143.69C240.5,-123.92 236.1,-91.76 252.94,-72 284.85,-34.55 433.15,-23.43 503.59,-20.24"/>
<polygon fill="black" stroke="black" points="503.96,-23.72 513.8,-19.8 503.66,-16.73 503.96,-23.72"/>
</g>
<!-- ast.Name object at 0x7fe3a1167820 -->
<g id="node29" class="node">
<title>ast.Name object at 0x7fe3a1167820</title>
<path fill="#66cdaa" stroke="black" d="M303.94,-108C303.94,-108 273.94,-108 273.94,-108 267.94,-108 261.94,-102 261.94,-96 261.94,-96 261.94,-84 261.94,-84 261.94,-78 267.94,-72 273.94,-72 273.94,-72 303.94,-72 303.94,-72 309.94,-72 315.94,-78 315.94,-84 315.94,-84 315.94,-96 315.94,-96 315.94,-102 309.94,-108 303.94,-108"/>
<text text-anchor="middle" x="288.94" y="-86.3" font-family="Times,serif" font-size="14.00">Name</text>
</g>
<!-- ast.Slice object at 0x7fe3a1164b20&#45;&gt;ast.Name object at 0x7fe3a1167820 -->
<g id="edge34" class="edge">
<title>ast.Slice object at 0x7fe3a1164b20&#45;&gt;ast.Name object at 0x7fe3a1167820</title>
<path fill="none" stroke="black" d="M314.53,-143.7C310.66,-135.73 305.98,-126.1 301.69,-117.26"/>
<polygon fill="black" stroke="black" points="304.76,-115.57 297.24,-108.1 298.46,-118.63 304.76,-115.57"/>
</g>
<!-- ast.Name object at 0x7fe3a11645b0 -->
<g id="node30" class="node">
<title>ast.Name object at 0x7fe3a11645b0</title>
<path fill="#66cdaa" stroke="black" d="M375.94,-108C375.94,-108 345.94,-108 345.94,-108 339.94,-108 333.94,-102 333.94,-96 333.94,-96 333.94,-84 333.94,-84 333.94,-78 339.94,-72 345.94,-72 345.94,-72 375.94,-72 375.94,-72 381.94,-72 387.94,-78 387.94,-84 387.94,-84 387.94,-96 387.94,-96 387.94,-102 381.94,-108 375.94,-108"/>
<text text-anchor="middle" x="360.94" y="-86.3" font-family="Times,serif" font-size="14.00">Name</text>
</g>
<!-- ast.Slice object at 0x7fe3a1164b20&#45;&gt;ast.Name object at 0x7fe3a11645b0 -->
<g id="edge36" class="edge">
<title>ast.Slice object at 0x7fe3a1164b20&#45;&gt;ast.Name object at 0x7fe3a11645b0</title>
<path fill="none" stroke="black" d="M332.33,-143.7C336.7,-135.64 341.99,-125.89 346.83,-116.98"/>
<polygon fill="black" stroke="black" points="349.96,-118.56 351.65,-108.1 343.8,-115.22 349.96,-118.56"/>
</g>
<!-- ast.Name object at 0x7fe3a1167820&#45;&gt;ast.Load object at 0x7fe3a55edff0 -->
<g id="edge35" class="edge">
<title>ast.Name object at 0x7fe3a1167820&#45;&gt;ast.Load object at 0x7fe3a55edff0</title>
<path fill="none" stroke="black" d="M316.21,-75.43C319.13,-74.19 322.07,-73.02 324.94,-72 386.25,-50.25 460.42,-34.17 503.97,-25.72"/>
<polygon fill="black" stroke="black" points="504.66,-29.15 513.83,-23.84 503.35,-22.28 504.66,-29.15"/>
</g>
<!-- ast.Name object at 0x7fe3a11645b0&#45;&gt;ast.Load object at 0x7fe3a55edff0 -->
<g id="edge37" class="edge">
<title>ast.Name object at 0x7fe3a11645b0&#45;&gt;ast.Load object at 0x7fe3a55edff0</title>
<path fill="none" stroke="black" d="M387.95,-75.93C390.96,-74.57 394,-73.23 396.94,-72 432.87,-56.94 474.75,-41.79 504.05,-31.57"/>
<polygon fill="black" stroke="black" points="505.55,-34.75 513.85,-28.16 503.26,-28.13 505.55,-34.75"/>
</g>
<!-- ast.BoolOp object at 0x7fe3a10bf3d0 -->
<g id="node32" class="node">
<title>ast.BoolOp object at 0x7fe3a10bf3d0</title>
<path fill="#66cdaa" stroke="black" d="M738.44,-252C738.44,-252 703.44,-252 703.44,-252 697.44,-252 691.44,-246 691.44,-240 691.44,-240 691.44,-228 691.44,-228 691.44,-222 697.44,-216 703.44,-216 703.44,-216 738.44,-216 738.44,-216 744.44,-216 750.44,-222 750.44,-228 750.44,-228 750.44,-240 750.44,-240 750.44,-246 744.44,-252 738.44,-252"/>
<text text-anchor="middle" x="720.94" y="-230.3" font-family="Times,serif" font-size="14.00">BoolOp</text>
</g>
<!-- ast.If object at 0x7fe3a1063ca0&#45;&gt;ast.BoolOp object at 0x7fe3a10bf3d0 -->
<g id="edge40" class="edge">
<title>ast.If object at 0x7fe3a1063ca0&#45;&gt;ast.BoolOp object at 0x7fe3a10bf3d0</title>
<path fill="none" stroke="black" d="M830.97,-359.81C824.82,-340.73 812.92,-309.77 794.94,-288 784.96,-275.92 771.61,-265.25 759,-256.71"/>
<polygon fill="black" stroke="black" points="760.73,-253.66 750.44,-251.15 756.92,-259.53 760.73,-253.66"/>
</g>
<!-- ast.Expr object at 0x7fe3a0ec0070 -->
<g id="node46" class="node">
<title>ast.Expr object at 0x7fe3a0ec0070</title>
<path fill="#66cdaa" stroke="black" d="M933.94,-324C933.94,-324 903.94,-324 903.94,-324 897.94,-324 891.94,-318 891.94,-312 891.94,-312 891.94,-300 891.94,-300 891.94,-294 897.94,-288 903.94,-288 903.94,-288 933.94,-288 933.94,-288 939.94,-288 945.94,-294 945.94,-300 945.94,-300 945.94,-312 945.94,-312 945.94,-318 939.94,-324 933.94,-324"/>
<text text-anchor="middle" x="918.94" y="-302.3" font-family="Times,serif" font-size="14.00">Expr</text>
</g>
<!-- ast.If object at 0x7fe3a1063ca0&#45;&gt;ast.Expr object at 0x7fe3a0ec0070 -->
<g id="edge58" class="edge">
<title>ast.If object at 0x7fe3a1063ca0&#45;&gt;ast.Expr object at 0x7fe3a0ec0070</title>
<path fill="none" stroke="black" d="M856.45,-359.7C866.81,-350.97 879.52,-340.24 890.77,-330.75"/>
<polygon fill="black" stroke="black" points="893.27,-333.23 898.66,-324.1 888.75,-327.88 893.27,-333.23"/>
</g>
<!-- ast.And object at 0x7fe3a55ee140 -->
<g id="node33" class="node">
<title>ast.And object at 0x7fe3a55ee140</title>
<path fill="#66cdaa" stroke="black" d="M512.94,-180C512.94,-180 482.94,-180 482.94,-180 476.94,-180 470.94,-174 470.94,-168 470.94,-168 470.94,-156 470.94,-156 470.94,-150 476.94,-144 482.94,-144 482.94,-144 512.94,-144 512.94,-144 518.94,-144 524.94,-150 524.94,-156 524.94,-156 524.94,-168 524.94,-168 524.94,-174 518.94,-180 512.94,-180"/>
<text text-anchor="middle" x="497.94" y="-158.3" font-family="Times,serif" font-size="14.00">And</text>
</g>
<!-- ast.BoolOp object at 0x7fe3a10bf3d0&#45;&gt;ast.And object at 0x7fe3a55ee140 -->
<g id="edge41" class="edge">
<title>ast.BoolOp object at 0x7fe3a10bf3d0&#45;&gt;ast.And object at 0x7fe3a55ee140</title>
<path fill="none" stroke="black" d="M691.3,-226.21C655.91,-217.75 594.88,-202.07 534.87,-180.06"/>
<polygon fill="black" stroke="black" points="535.85,-176.68 525.25,-176.47 533.4,-183.24 535.85,-176.68"/>
</g>
<!-- ast.Compare object at 0x7fe3a0e500a0 -->
<g id="node34" class="node">
<title>ast.Compare object at 0x7fe3a0e500a0</title>
<path fill="#66cdaa" stroke="black" d="M598.44,-180C598.44,-180 555.44,-180 555.44,-180 549.44,-180 543.44,-174 543.44,-168 543.44,-168 543.44,-156 543.44,-156 543.44,-150 549.44,-144 555.44,-144 555.44,-144 598.44,-144 598.44,-144 604.44,-144 610.44,-150 610.44,-156 610.44,-156 610.44,-168 610.44,-168 610.44,-174 604.44,-180 598.44,-180"/>
<text text-anchor="middle" x="576.94" y="-158.3" font-family="Times,serif" font-size="14.00">Compare</text>
</g>
<!-- ast.BoolOp object at 0x7fe3a10bf3d0&#45;&gt;ast.Compare object at 0x7fe3a0e500a0 -->
<g id="edge42" class="edge">
<title>ast.BoolOp object at 0x7fe3a10bf3d0&#45;&gt;ast.Compare object at 0x7fe3a0e500a0</title>
<path fill="none" stroke="black" d="M691.1,-218.5C670.46,-208.46 642.69,-194.97 619.71,-183.79"/>
<polygon fill="black" stroke="black" points="621.04,-180.55 610.51,-179.32 617.98,-186.84 621.04,-180.55"/>
</g>
<!-- ast.Compare object at 0x7fe3a0ec19c0 -->
<g id="node38" class="node">
<title>ast.Compare object at 0x7fe3a0ec19c0</title>
<path fill="#66cdaa" stroke="black" d="M742.44,-180C742.44,-180 699.44,-180 699.44,-180 693.44,-180 687.44,-174 687.44,-168 687.44,-168 687.44,-156 687.44,-156 687.44,-150 693.44,-144 699.44,-144 699.44,-144 742.44,-144 742.44,-144 748.44,-144 754.44,-150 754.44,-156 754.44,-156 754.44,-168 754.44,-168 754.44,-174 748.44,-180 742.44,-180"/>
<text text-anchor="middle" x="720.94" y="-158.3" font-family="Times,serif" font-size="14.00">Compare</text>
</g>
<!-- ast.BoolOp object at 0x7fe3a10bf3d0&#45;&gt;ast.Compare object at 0x7fe3a0ec19c0 -->
<g id="edge48" class="edge">
<title>ast.BoolOp object at 0x7fe3a10bf3d0&#45;&gt;ast.Compare object at 0x7fe3a0ec19c0</title>
<path fill="none" stroke="black" d="M720.94,-215.7C720.94,-207.98 720.94,-198.71 720.94,-190.11"/>
<polygon fill="black" stroke="black" points="724.44,-190.1 720.94,-180.1 717.44,-190.1 724.44,-190.1"/>
</g>
<!-- ast.Compare object at 0x7fe3a0ec16f0 -->
<g id="node42" class="node">
<title>ast.Compare object at 0x7fe3a0ec16f0</title>
<path fill="#66cdaa" stroke="black" d="M934.44,-180C934.44,-180 891.44,-180 891.44,-180 885.44,-180 879.44,-174 879.44,-168 879.44,-168 879.44,-156 879.44,-156 879.44,-150 885.44,-144 891.44,-144 891.44,-144 934.44,-144 934.44,-144 940.44,-144 946.44,-150 946.44,-156 946.44,-156 946.44,-168 946.44,-168 946.44,-174 940.44,-180 934.44,-180"/>
<text text-anchor="middle" x="912.94" y="-158.3" font-family="Times,serif" font-size="14.00">Compare</text>
</g>
<!-- ast.BoolOp object at 0x7fe3a10bf3d0&#45;&gt;ast.Compare object at 0x7fe3a0ec16f0 -->
<g id="edge53" class="edge">
<title>ast.BoolOp object at 0x7fe3a10bf3d0&#45;&gt;ast.Compare object at 0x7fe3a0ec16f0</title>
<path fill="none" stroke="black" d="M750.52,-222.22C782.25,-210.65 832.96,-192.16 869.28,-178.92"/>
<polygon fill="black" stroke="black" points="870.92,-182.04 879.12,-175.33 868.52,-175.47 870.92,-182.04"/>
</g>
<!-- ast.Name object at 0x7fe3a0ec02b0 -->
<g id="node35" class="node">
<title>ast.Name object at 0x7fe3a0ec02b0</title>
<path fill="#66cdaa" stroke="black" d="M519.94,-108C519.94,-108 489.94,-108 489.94,-108 483.94,-108 477.94,-102 477.94,-96 477.94,-96 477.94,-84 477.94,-84 477.94,-78 483.94,-72 489.94,-72 489.94,-72 519.94,-72 519.94,-72 525.94,-72 531.94,-78 531.94,-84 531.94,-84 531.94,-96 531.94,-96 531.94,-102 525.94,-108 519.94,-108"/>
<text text-anchor="middle" x="504.94" y="-86.3" font-family="Times,serif" font-size="14.00">Name</text>
</g>
<!-- ast.Compare object at 0x7fe3a0e500a0&#45;&gt;ast.Name object at 0x7fe3a0ec02b0 -->
<g id="edge43" class="edge">
<title>ast.Compare object at 0x7fe3a0e500a0&#45;&gt;ast.Name object at 0x7fe3a0ec02b0</title>
<path fill="none" stroke="black" d="M559.14,-143.7C550.33,-135.14 539.55,-124.66 529.93,-115.3"/>
<polygon fill="black" stroke="black" points="532.14,-112.57 522.53,-108.1 527.26,-117.58 532.14,-112.57"/>
</g>
<!-- ast.In object at 0x7fe3a55eec20 -->
<g id="node36" class="node">
<title>ast.In object at 0x7fe3a55eec20</title>
<path fill="#66cdaa" stroke="black" d="M447.94,-108C447.94,-108 417.94,-108 417.94,-108 411.94,-108 405.94,-102 405.94,-96 405.94,-96 405.94,-84 405.94,-84 405.94,-78 411.94,-72 417.94,-72 417.94,-72 447.94,-72 447.94,-72 453.94,-72 459.94,-78 459.94,-84 459.94,-84 459.94,-96 459.94,-96 459.94,-102 453.94,-108 447.94,-108"/>
<text text-anchor="middle" x="432.94" y="-86.3" font-family="Times,serif" font-size="14.00">In</text>
</g>
<!-- ast.Compare object at 0x7fe3a0e500a0&#45;&gt;ast.In object at 0x7fe3a55eec20 -->
<g id="edge45" class="edge">
<title>ast.Compare object at 0x7fe3a0e500a0&#45;&gt;ast.In object at 0x7fe3a55eec20</title>
<path fill="none" stroke="black" d="M543.17,-144.59C521.06,-133.84 492.17,-119.79 469.51,-108.78"/>
<polygon fill="black" stroke="black" points="470.75,-105.49 460.22,-104.26 467.69,-111.78 470.75,-105.49"/>
</g>
<!-- ast.Name object at 0x7fe3a0ec0670 -->
<g id="node37" class="node">
<title>ast.Name object at 0x7fe3a0ec0670</title>
<path fill="#66cdaa" stroke="black" d="M591.94,-108C591.94,-108 561.94,-108 561.94,-108 555.94,-108 549.94,-102 549.94,-96 549.94,-96 549.94,-84 549.94,-84 549.94,-78 555.94,-72 561.94,-72 561.94,-72 591.94,-72 591.94,-72 597.94,-72 603.94,-78 603.94,-84 603.94,-84 603.94,-96 603.94,-96 603.94,-102 597.94,-108 591.94,-108"/>
<text text-anchor="middle" x="576.94" y="-86.3" font-family="Times,serif" font-size="14.00">Name</text>
</g>
<!-- ast.Compare object at 0x7fe3a0e500a0&#45;&gt;ast.Name object at 0x7fe3a0ec0670 -->
<g id="edge46" class="edge">
<title>ast.Compare object at 0x7fe3a0e500a0&#45;&gt;ast.Name object at 0x7fe3a0ec0670</title>
<path fill="none" stroke="black" d="M576.94,-143.7C576.94,-135.98 576.94,-126.71 576.94,-118.11"/>
<polygon fill="black" stroke="black" points="580.44,-118.1 576.94,-108.1 573.44,-118.1 580.44,-118.1"/>
</g>
<!-- ast.Name object at 0x7fe3a0ec02b0&#45;&gt;ast.Load object at 0x7fe3a55edff0 -->
<g id="edge44" class="edge">
<title>ast.Name object at 0x7fe3a0ec02b0&#45;&gt;ast.Load object at 0x7fe3a55edff0</title>
<path fill="none" stroke="black" d="M513.83,-71.7C517.93,-63.73 522.88,-54.1 527.43,-45.26"/>
<polygon fill="black" stroke="black" points="530.68,-46.6 532.14,-36.1 524.45,-43.4 530.68,-46.6"/>
</g>
<!-- ast.Name object at 0x7fe3a0ec0670&#45;&gt;ast.Load object at 0x7fe3a55edff0 -->
<g id="edge47" class="edge">
<title>ast.Name object at 0x7fe3a0ec0670&#45;&gt;ast.Load object at 0x7fe3a55edff0</title>
<path fill="none" stroke="black" d="M568.04,-71.7C563.94,-63.73 558.99,-54.1 554.44,-45.26"/>
<polygon fill="black" stroke="black" points="557.42,-43.4 549.73,-36.1 551.19,-46.6 557.42,-43.4"/>
</g>
<!-- ast.Name object at 0x7fe3a0ec0bb0 -->
<g id="node39" class="node">
<title>ast.Name object at 0x7fe3a0ec0bb0</title>
<path fill="#66cdaa" stroke="black" d="M663.94,-108C663.94,-108 633.94,-108 633.94,-108 627.94,-108 621.94,-102 621.94,-96 621.94,-96 621.94,-84 621.94,-84 621.94,-78 627.94,-72 633.94,-72 633.94,-72 663.94,-72 663.94,-72 669.94,-72 675.94,-78 675.94,-84 675.94,-84 675.94,-96 675.94,-96 675.94,-102 669.94,-108 663.94,-108"/>
<text text-anchor="middle" x="648.94" y="-86.3" font-family="Times,serif" font-size="14.00">Name</text>
</g>
<!-- ast.Compare object at 0x7fe3a0ec19c0&#45;&gt;ast.Name object at 0x7fe3a0ec0bb0 -->
<g id="edge49" class="edge">
<title>ast.Compare object at 0x7fe3a0ec19c0&#45;&gt;ast.Name object at 0x7fe3a0ec0bb0</title>
<path fill="none" stroke="black" d="M703.14,-143.7C694.33,-135.14 683.55,-124.66 673.93,-115.3"/>
<polygon fill="black" stroke="black" points="676.14,-112.57 666.53,-108.1 671.26,-117.58 676.14,-112.57"/>
</g>
<!-- ast.Gt object at 0x7fe3a55eeaa0 -->
<g id="node40" class="node">
<title>ast.Gt object at 0x7fe3a55eeaa0</title>
<path fill="#66cdaa" stroke="black" d="M735.94,-108C735.94,-108 705.94,-108 705.94,-108 699.94,-108 693.94,-102 693.94,-96 693.94,-96 693.94,-84 693.94,-84 693.94,-78 699.94,-72 705.94,-72 705.94,-72 735.94,-72 735.94,-72 741.94,-72 747.94,-78 747.94,-84 747.94,-84 747.94,-96 747.94,-96 747.94,-102 741.94,-108 735.94,-108"/>
<text text-anchor="middle" x="720.94" y="-86.3" font-family="Times,serif" font-size="14.00">Gt</text>
</g>
<!-- ast.Compare object at 0x7fe3a0ec19c0&#45;&gt;ast.Gt object at 0x7fe3a55eeaa0 -->
<g id="edge51" class="edge">
<title>ast.Compare object at 0x7fe3a0ec19c0&#45;&gt;ast.Gt object at 0x7fe3a55eeaa0</title>
<path fill="none" stroke="black" d="M720.94,-143.7C720.94,-135.98 720.94,-126.71 720.94,-118.11"/>
<polygon fill="black" stroke="black" points="724.44,-118.1 720.94,-108.1 717.44,-118.1 724.44,-118.1"/>
</g>
<!-- ast.Constant object at 0x7fe3a0ec1c90 -->
<g id="node41" class="node">
<title>ast.Constant object at 0x7fe3a0ec1c90</title>
<path fill="#66cdaa" stroke="black" d="M819.44,-108C819.44,-108 778.44,-108 778.44,-108 772.44,-108 766.44,-102 766.44,-96 766.44,-96 766.44,-84 766.44,-84 766.44,-78 772.44,-72 778.44,-72 778.44,-72 819.44,-72 819.44,-72 825.44,-72 831.44,-78 831.44,-84 831.44,-84 831.44,-96 831.44,-96 831.44,-102 825.44,-108 819.44,-108"/>
<text text-anchor="middle" x="798.94" y="-86.3" font-family="Times,serif" font-size="14.00">Constant</text>
</g>
<!-- ast.Compare object at 0x7fe3a0ec19c0&#45;&gt;ast.Constant object at 0x7fe3a0ec1c90 -->
<g id="edge52" class="edge">
<title>ast.Compare object at 0x7fe3a0ec19c0&#45;&gt;ast.Constant object at 0x7fe3a0ec1c90</title>
<path fill="none" stroke="black" d="M740.22,-143.7C749.85,-135.05 761.66,-124.45 772.16,-115.03"/>
<polygon fill="black" stroke="black" points="774.77,-117.39 779.88,-108.1 770.1,-112.18 774.77,-117.39"/>
</g>
<!-- ast.Name object at 0x7fe3a0ec0bb0&#45;&gt;ast.Load object at 0x7fe3a55edff0 -->
<g id="edge50" class="edge">
<title>ast.Name object at 0x7fe3a0ec0bb0&#45;&gt;ast.Load object at 0x7fe3a55edff0</title>
<path fill="none" stroke="black" d="M622.52,-71.88C608.53,-62.81 591.16,-51.55 576.05,-41.76"/>
<polygon fill="black" stroke="black" points="577.75,-38.69 567.46,-36.19 573.95,-44.57 577.75,-38.69"/>
</g>
<!-- ast.Name object at 0x7fe3a0ec1480 -->
<g id="node43" class="node">
<title>ast.Name object at 0x7fe3a0ec1480</title>
<path fill="#66cdaa" stroke="black" d="M891.94,-108C891.94,-108 861.94,-108 861.94,-108 855.94,-108 849.94,-102 849.94,-96 849.94,-96 849.94,-84 849.94,-84 849.94,-78 855.94,-72 861.94,-72 861.94,-72 891.94,-72 891.94,-72 897.94,-72 903.94,-78 903.94,-84 903.94,-84 903.94,-96 903.94,-96 903.94,-102 897.94,-108 891.94,-108"/>
<text text-anchor="middle" x="876.94" y="-86.3" font-family="Times,serif" font-size="14.00">Name</text>
</g>
<!-- ast.Compare object at 0x7fe3a0ec16f0&#45;&gt;ast.Name object at 0x7fe3a0ec1480 -->
<g id="edge54" class="edge">
<title>ast.Compare object at 0x7fe3a0ec16f0&#45;&gt;ast.Name object at 0x7fe3a0ec1480</title>
<path fill="none" stroke="black" d="M904.04,-143.7C899.94,-135.73 894.99,-126.1 890.44,-117.26"/>
<polygon fill="black" stroke="black" points="893.42,-115.4 885.73,-108.1 887.19,-118.6 893.42,-115.4"/>
</g>
<!-- ast.LtE object at 0x7fe3a55eea40 -->
<g id="node44" class="node">
<title>ast.LtE object at 0x7fe3a55eea40</title>
<path fill="#66cdaa" stroke="black" d="M963.94,-108C963.94,-108 933.94,-108 933.94,-108 927.94,-108 921.94,-102 921.94,-96 921.94,-96 921.94,-84 921.94,-84 921.94,-78 927.94,-72 933.94,-72 933.94,-72 963.94,-72 963.94,-72 969.94,-72 975.94,-78 975.94,-84 975.94,-84 975.94,-96 975.94,-96 975.94,-102 969.94,-108 963.94,-108"/>
<text text-anchor="middle" x="948.94" y="-86.3" font-family="Times,serif" font-size="14.00">LtE</text>
</g>
<!-- ast.Compare object at 0x7fe3a0ec16f0&#45;&gt;ast.LtE object at 0x7fe3a55eea40 -->
<g id="edge56" class="edge">
<title>ast.Compare object at 0x7fe3a0ec16f0&#45;&gt;ast.LtE object at 0x7fe3a55eea40</title>
<path fill="none" stroke="black" d="M921.83,-143.7C925.93,-135.73 930.88,-126.1 935.43,-117.26"/>
<polygon fill="black" stroke="black" points="938.68,-118.6 940.14,-108.1 932.45,-115.4 938.68,-118.6"/>
</g>
<!-- ast.Constant object at 0x7fe3a0ec07f0 -->
<g id="node45" class="node">
<title>ast.Constant object at 0x7fe3a0ec07f0</title>
<path fill="#66cdaa" stroke="black" d="M1047.44,-108C1047.44,-108 1006.44,-108 1006.44,-108 1000.44,-108 994.44,-102 994.44,-96 994.44,-96 994.44,-84 994.44,-84 994.44,-78 1000.44,-72 1006.44,-72 1006.44,-72 1047.44,-72 1047.44,-72 1053.44,-72 1059.44,-78 1059.44,-84 1059.44,-84 1059.44,-96 1059.44,-96 1059.44,-102 1053.44,-108 1047.44,-108"/>
<text text-anchor="middle" x="1026.94" y="-86.3" font-family="Times,serif" font-size="14.00">Constant</text>
</g>
<!-- ast.Compare object at 0x7fe3a0ec16f0&#45;&gt;ast.Constant object at 0x7fe3a0ec07f0 -->
<g id="edge57" class="edge">
<title>ast.Compare object at 0x7fe3a0ec16f0&#45;&gt;ast.Constant object at 0x7fe3a0ec07f0</title>
<path fill="none" stroke="black" d="M940.82,-143.88C955.73,-134.72 974.27,-123.34 990.32,-113.48"/>
<polygon fill="black" stroke="black" points="992.25,-116.41 998.94,-108.19 988.59,-110.44 992.25,-116.41"/>
</g>
<!-- ast.Name object at 0x7fe3a0ec1480&#45;&gt;ast.Load object at 0x7fe3a55edff0 -->
<g id="edge55" class="edge">
<title>ast.Name object at 0x7fe3a0ec1480&#45;&gt;ast.Load object at 0x7fe3a55edff0</title>
<path fill="none" stroke="black" d="M849.76,-75.57C846.5,-74.24 843.17,-73.01 839.94,-72 748.28,-43.34 635.67,-28.63 578.33,-22.53"/>
<polygon fill="black" stroke="black" points="578.6,-19.04 568.29,-21.49 577.88,-26 578.6,-19.04"/>
</g>
<!-- ast.Call object at 0x7fe3a0ec0e50 -->
<g id="node47" class="node">
<title>ast.Call object at 0x7fe3a0ec0e50</title>
<path fill="#66cdaa" stroke="black" d="M1106.94,-252C1106.94,-252 1076.94,-252 1076.94,-252 1070.94,-252 1064.94,-246 1064.94,-240 1064.94,-240 1064.94,-228 1064.94,-228 1064.94,-222 1070.94,-216 1076.94,-216 1076.94,-216 1106.94,-216 1106.94,-216 1112.94,-216 1118.94,-222 1118.94,-228 1118.94,-228 1118.94,-240 1118.94,-240 1118.94,-246 1112.94,-252 1106.94,-252"/>
<text text-anchor="middle" x="1091.94" y="-230.3" font-family="Times,serif" font-size="14.00">Call</text>
</g>
<!-- ast.Expr object at 0x7fe3a0ec0070&#45;&gt;ast.Call object at 0x7fe3a0ec0e50 -->
<g id="edge59" class="edge">
<title>ast.Expr object at 0x7fe3a0ec0070&#45;&gt;ast.Call object at 0x7fe3a0ec0e50</title>
<path fill="none" stroke="black" d="M945.97,-294.06C975.34,-282.18 1022.43,-263.12 1055.15,-249.88"/>
<polygon fill="black" stroke="black" points="1056.85,-252.97 1064.81,-245.98 1054.23,-246.48 1056.85,-252.97"/>
</g>
<!-- ast.Attribute object at 0x7fe3a0ec1d50 -->
<g id="node48" class="node">
<title>ast.Attribute object at 0x7fe3a0ec1d50</title>
<path fill="#66cdaa" stroke="black" d="M1112.44,-180C1112.44,-180 1071.44,-180 1071.44,-180 1065.44,-180 1059.44,-174 1059.44,-168 1059.44,-168 1059.44,-156 1059.44,-156 1059.44,-150 1065.44,-144 1071.44,-144 1071.44,-144 1112.44,-144 1112.44,-144 1118.44,-144 1124.44,-150 1124.44,-156 1124.44,-156 1124.44,-168 1124.44,-168 1124.44,-174 1118.44,-180 1112.44,-180"/>
<text text-anchor="middle" x="1091.94" y="-158.3" font-family="Times,serif" font-size="14.00">Attribute</text>
</g>
<!-- ast.Call object at 0x7fe3a0ec0e50&#45;&gt;ast.Attribute object at 0x7fe3a0ec1d50 -->
<g id="edge60" class="edge">
<title>ast.Call object at 0x7fe3a0ec0e50&#45;&gt;ast.Attribute object at 0x7fe3a0ec1d50</title>
<path fill="none" stroke="black" d="M1091.94,-215.7C1091.94,-207.98 1091.94,-198.71 1091.94,-190.11"/>
<polygon fill="black" stroke="black" points="1095.44,-190.1 1091.94,-180.1 1088.44,-190.1 1095.44,-190.1"/>
</g>
<!-- ast.Name object at 0x7fe3a0ec1e10 -->
<g id="node50" class="node">
<title>ast.Name object at 0x7fe3a0ec1e10</title>
<path fill="#66cdaa" stroke="black" d="M1188.94,-180C1188.94,-180 1158.94,-180 1158.94,-180 1152.94,-180 1146.94,-174 1146.94,-168 1146.94,-168 1146.94,-156 1146.94,-156 1146.94,-150 1152.94,-144 1158.94,-144 1158.94,-144 1188.94,-144 1188.94,-144 1194.94,-144 1200.94,-150 1200.94,-156 1200.94,-156 1200.94,-168 1200.94,-168 1200.94,-174 1194.94,-180 1188.94,-180"/>
<text text-anchor="middle" x="1173.94" y="-158.3" font-family="Times,serif" font-size="14.00">Name</text>
</g>
<!-- ast.Call object at 0x7fe3a0ec0e50&#45;&gt;ast.Name object at 0x7fe3a0ec1e10 -->
<g id="edge64" class="edge">
<title>ast.Call object at 0x7fe3a0ec0e50&#45;&gt;ast.Name object at 0x7fe3a0ec1e10</title>
<path fill="none" stroke="black" d="M1112.21,-215.7C1122.43,-206.97 1135,-196.24 1146.11,-186.75"/>
<polygon fill="black" stroke="black" points="1148.57,-189.26 1153.9,-180.1 1144.02,-183.94 1148.57,-189.26"/>
</g>
<!-- ast.Attribute object at 0x7fe3a0ec1d50&#45;&gt;ast.Load object at 0x7fe3a55edff0 -->
<g id="edge63" class="edge">
<title>ast.Attribute object at 0x7fe3a0ec1d50&#45;&gt;ast.Load object at 0x7fe3a55edff0</title>
<path fill="none" stroke="black" d="M1092.66,-143.94C1092.5,-123.47 1088.8,-89.71 1067.94,-72 1030.71,-40.4 692.48,-24.75 578.35,-20.34"/>
<polygon fill="black" stroke="black" points="578.15,-16.83 568.02,-19.95 577.88,-23.82 578.15,-16.83"/>
</g>
<!-- ast.Name object at 0x7fe3a0ec1b70 -->
<g id="node49" class="node">
<title>ast.Name object at 0x7fe3a0ec1b70</title>
<path fill="#66cdaa" stroke="black" d="M1157.94,-108C1157.94,-108 1127.94,-108 1127.94,-108 1121.94,-108 1115.94,-102 1115.94,-96 1115.94,-96 1115.94,-84 1115.94,-84 1115.94,-78 1121.94,-72 1127.94,-72 1127.94,-72 1157.94,-72 1157.94,-72 1163.94,-72 1169.94,-78 1169.94,-84 1169.94,-84 1169.94,-96 1169.94,-96 1169.94,-102 1163.94,-108 1157.94,-108"/>
<text text-anchor="middle" x="1142.94" y="-86.3" font-family="Times,serif" font-size="14.00">Name</text>
</g>
<!-- ast.Attribute object at 0x7fe3a0ec1d50&#45;&gt;ast.Name object at 0x7fe3a0ec1b70 -->
<g id="edge61" class="edge">
<title>ast.Attribute object at 0x7fe3a0ec1d50&#45;&gt;ast.Name object at 0x7fe3a0ec1b70</title>
<path fill="none" stroke="black" d="M1104.54,-143.7C1110.53,-135.47 1117.81,-125.48 1124.42,-116.42"/>
<polygon fill="black" stroke="black" points="1127.41,-118.25 1130.47,-108.1 1121.76,-114.13 1127.41,-118.25"/>
</g>
<!-- ast.Name object at 0x7fe3a0ec1b70&#45;&gt;ast.Load object at 0x7fe3a55edff0 -->
<g id="edge62" class="edge">
<title>ast.Name object at 0x7fe3a0ec1b70&#45;&gt;ast.Load object at 0x7fe3a55edff0</title>
<path fill="none" stroke="black" d="M1115.53,-76.33C1111.06,-74.64 1106.42,-73.12 1101.94,-72 909.01,-24.05 668.89,-18.83 578.06,-18.71"/>
<polygon fill="black" stroke="black" points="577.98,-15.21 567.98,-18.72 577.99,-22.21 577.98,-15.21"/>
</g>
<!-- ast.Name object at 0x7fe3a0ec1e10&#45;&gt;ast.Load object at 0x7fe3a55edff0 -->
<g id="edge65" class="edge">
<title>ast.Name object at 0x7fe3a0ec1e10&#45;&gt;ast.Load object at 0x7fe3a55edff0</title>
<path fill="none" stroke="black" d="M1181.41,-143.82C1188.8,-123.87 1196.65,-91.24 1178.94,-72 1138.17,-27.7 709.43,-20.42 578.62,-19.23"/>
<polygon fill="black" stroke="black" points="578.34,-15.73 568.31,-19.15 578.28,-22.73 578.34,-15.73"/>
</g>
<!-- ast.Name object at 0x7fe3a0ec0df0 -->
<g id="node52" class="node">
<title>ast.Name object at 0x7fe3a0ec0df0</title>
<path fill="#66cdaa" stroke="black" d="M1216.94,-252C1216.94,-252 1186.94,-252 1186.94,-252 1180.94,-252 1174.94,-246 1174.94,-240 1174.94,-240 1174.94,-228 1174.94,-228 1174.94,-222 1180.94,-216 1186.94,-216 1186.94,-216 1216.94,-216 1216.94,-216 1222.94,-216 1228.94,-222 1228.94,-228 1228.94,-228 1228.94,-240 1228.94,-240 1228.94,-246 1222.94,-252 1216.94,-252"/>
<text text-anchor="middle" x="1201.94" y="-230.3" font-family="Times,serif" font-size="14.00">Name</text>
</g>
<!-- ast.Return object at 0x7fe3a0ec08e0&#45;&gt;ast.Name object at 0x7fe3a0ec0df0 -->
<g id="edge67" class="edge">
<title>ast.Return object at 0x7fe3a0ec08e0&#45;&gt;ast.Name object at 0x7fe3a0ec0df0</title>
<path fill="none" stroke="black" d="M948.06,-431.85C997.21,-393.74 1115.59,-301.95 1171.6,-258.52"/>
<polygon fill="black" stroke="black" points="1173.95,-261.13 1179.71,-252.23 1169.66,-255.59 1173.95,-261.13"/>
</g>
<!-- ast.Name object at 0x7fe3a0ec0df0&#45;&gt;ast.Load object at 0x7fe3a55edff0 -->
<g id="edge68" class="edge">
<title>ast.Name object at 0x7fe3a0ec0df0&#45;&gt;ast.Load object at 0x7fe3a55edff0</title>
<path fill="none" stroke="black" d="M1208.48,-215.75C1219.88,-182.36 1238.63,-108.96 1198.94,-72 1153.36,-29.56 710.81,-20.98 578.26,-19.36"/>
<polygon fill="black" stroke="black" points="578.23,-15.86 568.19,-19.24 578.15,-22.86 578.23,-15.86"/>
</g>
</g>
</svg>
