<?xml version="1.0" encoding="UTF-8" standalone="no"?>
<!DOCTYPE svg PUBLIC "-//W3C//DTD SVG 1.1//EN"
 "http://www.w3.org/Graphics/SVG/1.1/DTD/svg11.dtd">
<!-- Generated by graphviz version 2.43.0 (0)
 -->
<!-- Title: %3 Pages: 1 -->
<svg width="855pt" height="548pt"
 viewBox="0.00 0.00 855.17 548.00" xmlns="http://www.w3.org/2000/svg" xmlns:xlink="http://www.w3.org/1999/xlink">
<g id="graph0" class="graph" transform="scale(1 1) rotate(0) translate(4 544)">
<title>%3</title>
<polygon fill="white" stroke="transparent" points="-4,4 -4,-544 851.17,-544 851.17,4 -4,4"/>
<!-- ast.Module object at 0x7fae3282d540 -->
<g id="node1" class="node">
<title>ast.Module object at 0x7fae3282d540</title>
<path fill="#66cdaa" stroke="black" d="M250,-540C250,-540 204,-540 204,-540 198,-540 192,-534 192,-528 192,-528 192,-516 192,-516 192,-510 198,-504 204,-504 204,-504 250,-504 250,-504 256,-504 262,-510 262,-516 262,-516 262,-528 262,-528 262,-534 256,-540 250,-540"/>
<text text-anchor="middle" x="227" y="-518.3" font-family="Times,serif" font-size="14.00">Module</text>
</g>
<!-- ast.FunctionDef object at 0x7fae3282d510 -->
<g id="node2" class="node">
<title>ast.FunctionDef object at 0x7fae3282d510</title>
<path fill="#66cdaa" stroke="black" d="M267,-468C267,-468 187,-468 187,-468 181,-468 175,-462 175,-456 175,-456 175,-444 175,-444 175,-438 181,-432 187,-432 187,-432 267,-432 267,-432 273,-432 279,-438 279,-444 279,-444 279,-456 279,-456 279,-462 273,-468 267,-468"/>
<text text-anchor="middle" x="227" y="-446.3" font-family="Times,serif" font-size="14.00">FunctionDef</text>
</g>
<!-- ast.Module object at 0x7fae3282d540&#45;&gt;ast.FunctionDef object at 0x7fae3282d510 -->
<g id="edge1" class="edge">
<title>ast.Module object at 0x7fae3282d540&#45;&gt;ast.FunctionDef object at 0x7fae3282d510</title>
<path fill="none" stroke="black" d="M227,-503.7C227,-495.98 227,-486.71 227,-478.11"/>
<polygon fill="black" stroke="black" points="230.5,-478.1 227,-468.1 223.5,-478.1 230.5,-478.1"/>
</g>
<!-- ast.arguments object at 0x7fae3282d4e0 -->
<g id="node3" class="node">
<title>ast.arguments object at 0x7fae3282d4e0</title>
<path fill="#66cdaa" stroke="black" d="M98,-396C98,-396 28,-396 28,-396 22,-396 16,-390 16,-384 16,-384 16,-372 16,-372 16,-366 22,-360 28,-360 28,-360 98,-360 98,-360 104,-360 110,-366 110,-372 110,-372 110,-384 110,-384 110,-390 104,-396 98,-396"/>
<text text-anchor="middle" x="63" y="-374.3" font-family="Times,serif" font-size="14.00">arguments</text>
</g>
<!-- ast.FunctionDef object at 0x7fae3282d510&#45;&gt;ast.arguments object at 0x7fae3282d4e0 -->
<g id="edge2" class="edge">
<title>ast.FunctionDef object at 0x7fae3282d510&#45;&gt;ast.arguments object at 0x7fae3282d4e0</title>
<path fill="none" stroke="black" d="M186.88,-431.88C164.36,-422.26 136.08,-410.19 112.23,-400.01"/>
<polygon fill="black" stroke="black" points="113.56,-396.77 102.99,-396.07 110.81,-403.21 113.56,-396.77"/>
</g>
<!-- ast.Assign object at 0x7fae3282d480 -->
<g id="node5" class="node">
<title>ast.Assign object at 0x7fae3282d480</title>
<path fill="#66cdaa" stroke="black" d="M209,-396C209,-396 169,-396 169,-396 163,-396 157,-390 157,-384 157,-384 157,-372 157,-372 157,-366 163,-360 169,-360 169,-360 209,-360 209,-360 215,-360 221,-366 221,-372 221,-372 221,-384 221,-384 221,-390 215,-396 209,-396"/>
<text text-anchor="middle" x="189" y="-374.3" font-family="Times,serif" font-size="14.00">Assign</text>
</g>
<!-- ast.FunctionDef object at 0x7fae3282d510&#45;&gt;ast.Assign object at 0x7fae3282d480 -->
<g id="edge4" class="edge">
<title>ast.FunctionDef object at 0x7fae3282d510&#45;&gt;ast.Assign object at 0x7fae3282d480</title>
<path fill="none" stroke="black" d="M217.61,-431.7C213.24,-423.64 207.94,-413.89 203.1,-404.98"/>
<polygon fill="black" stroke="black" points="206.13,-403.22 198.29,-396.1 199.98,-406.56 206.13,-403.22"/>
</g>
<!-- ast.For object at 0x7fae3282d3f0 -->
<g id="node9" class="node">
<title>ast.For object at 0x7fae3282d3f0</title>
<path fill="#66cdaa" stroke="black" d="M289,-396C289,-396 259,-396 259,-396 253,-396 247,-390 247,-384 247,-384 247,-372 247,-372 247,-366 253,-360 259,-360 259,-360 289,-360 289,-360 295,-360 301,-366 301,-372 301,-372 301,-384 301,-384 301,-390 295,-396 289,-396"/>
<text text-anchor="middle" x="274" y="-374.3" font-family="Times,serif" font-size="14.00">For</text>
</g>
<!-- ast.FunctionDef object at 0x7fae3282d510&#45;&gt;ast.For object at 0x7fae3282d3f0 -->
<g id="edge8" class="edge">
<title>ast.FunctionDef object at 0x7fae3282d510&#45;&gt;ast.For object at 0x7fae3282d3f0</title>
<path fill="none" stroke="black" d="M238.62,-431.7C244.14,-423.47 250.85,-413.48 256.93,-404.42"/>
<polygon fill="black" stroke="black" points="259.85,-406.36 262.52,-396.1 254.04,-402.46 259.85,-406.36"/>
</g>
<!-- ast.Return object at 0x7fae35ea95d0 -->
<g id="node31" class="node">
<title>ast.Return object at 0x7fae35ea95d0</title>
<path fill="#66cdaa" stroke="black" d="M394,-396C394,-396 352,-396 352,-396 346,-396 340,-390 340,-384 340,-384 340,-372 340,-372 340,-366 346,-360 352,-360 352,-360 394,-360 394,-360 400,-360 406,-366 406,-372 406,-372 406,-384 406,-384 406,-390 400,-396 394,-396"/>
<text text-anchor="middle" x="373" y="-374.3" font-family="Times,serif" font-size="14.00">Return</text>
</g>
<!-- ast.FunctionDef object at 0x7fae3282d510&#45;&gt;ast.Return object at 0x7fae35ea95d0 -->
<g id="edge41" class="edge">
<title>ast.FunctionDef object at 0x7fae3282d510&#45;&gt;ast.Return object at 0x7fae35ea95d0</title>
<path fill="none" stroke="black" d="M262.72,-431.88C283.16,-422.07 308.94,-409.72 330.43,-399.41"/>
<polygon fill="black" stroke="black" points="332.15,-402.47 339.65,-394.99 329.12,-396.15 332.15,-402.47"/>
</g>
<!-- ast.arg object at 0x7fae3282d4b0 -->
<g id="node4" class="node">
<title>ast.arg object at 0x7fae3282d4b0</title>
<path fill="#66cdaa" stroke="black" d="M49,-324C49,-324 19,-324 19,-324 13,-324 7,-318 7,-312 7,-312 7,-300 7,-300 7,-294 13,-288 19,-288 19,-288 49,-288 49,-288 55,-288 61,-294 61,-300 61,-300 61,-312 61,-312 61,-318 55,-324 49,-324"/>
<text text-anchor="middle" x="34" y="-302.3" font-family="Times,serif" font-size="14.00">arg</text>
</g>
<!-- ast.arguments object at 0x7fae3282d4e0&#45;&gt;ast.arg object at 0x7fae3282d4b0 -->
<g id="edge3" class="edge">
<title>ast.arguments object at 0x7fae3282d4e0&#45;&gt;ast.arg object at 0x7fae3282d4b0</title>
<path fill="none" stroke="black" d="M55.83,-359.7C52.57,-351.81 48.63,-342.3 45,-333.55"/>
<polygon fill="black" stroke="black" points="48.15,-332 41.09,-324.1 41.68,-334.68 48.15,-332"/>
</g>
<!-- ast.Name object at 0x7fae3282d450 -->
<g id="node6" class="node">
<title>ast.Name object at 0x7fae3282d450</title>
<path fill="#66cdaa" stroke="black" d="M47.5,-252C47.5,-252 12.5,-252 12.5,-252 6.5,-252 0.5,-246 0.5,-240 0.5,-240 0.5,-228 0.5,-228 0.5,-222 6.5,-216 12.5,-216 12.5,-216 47.5,-216 47.5,-216 53.5,-216 59.5,-222 59.5,-228 59.5,-228 59.5,-240 59.5,-240 59.5,-246 53.5,-252 47.5,-252"/>
<text text-anchor="middle" x="30" y="-230.3" font-family="Times,serif" font-size="14.00">Name</text>
</g>
<!-- ast.Assign object at 0x7fae3282d480&#45;&gt;ast.Name object at 0x7fae3282d450 -->
<g id="edge5" class="edge">
<title>ast.Assign object at 0x7fae3282d480&#45;&gt;ast.Name object at 0x7fae3282d450</title>
<path fill="none" stroke="black" d="M189.79,-359.74C189.74,-340.02 186.64,-307.92 169,-288 139.38,-254.55 115.4,-267.77 69.3,-252.12"/>
<polygon fill="black" stroke="black" points="70.37,-248.79 59.78,-248.59 67.93,-255.35 70.37,-248.79"/>
</g>
<!-- ast.Constant object at 0x7fae3282d420 -->
<g id="node8" class="node">
<title>ast.Constant object at 0x7fae3282d420</title>
<path fill="#66cdaa" stroke="black" d="M148.5,-324C148.5,-324 91.5,-324 91.5,-324 85.5,-324 79.5,-318 79.5,-312 79.5,-312 79.5,-300 79.5,-300 79.5,-294 85.5,-288 91.5,-288 91.5,-288 148.5,-288 148.5,-288 154.5,-288 160.5,-294 160.5,-300 160.5,-300 160.5,-312 160.5,-312 160.5,-318 154.5,-324 148.5,-324"/>
<text text-anchor="middle" x="120" y="-302.3" font-family="Times,serif" font-size="14.00">Constant</text>
</g>
<!-- ast.Assign object at 0x7fae3282d480&#45;&gt;ast.Constant object at 0x7fae3282d420 -->
<g id="edge7" class="edge">
<title>ast.Assign object at 0x7fae3282d480&#45;&gt;ast.Constant object at 0x7fae3282d420</title>
<path fill="none" stroke="black" d="M171.94,-359.7C163.5,-351.14 153.18,-340.66 143.96,-331.3"/>
<polygon fill="black" stroke="black" points="146.37,-328.77 136.86,-324.1 141.39,-333.68 146.37,-328.77"/>
</g>
<!-- ast.Store object at 0x7fae3acf5780 -->
<g id="node7" class="node">
<title>ast.Store object at 0x7fae3acf5780</title>
<path fill="#66cdaa" stroke="black" d="M44,-108C44,-108 12,-108 12,-108 6,-108 0,-102 0,-96 0,-96 0,-84 0,-84 0,-78 6,-72 12,-72 12,-72 44,-72 44,-72 50,-72 56,-78 56,-84 56,-84 56,-96 56,-96 56,-102 50,-108 44,-108"/>
<text text-anchor="middle" x="28" y="-86.3" font-family="Times,serif" font-size="14.00">Store</text>
</g>
<!-- ast.Name object at 0x7fae3282d450&#45;&gt;ast.Store object at 0x7fae3acf5780 -->
<g id="edge6" class="edge">
<title>ast.Name object at 0x7fae3282d450&#45;&gt;ast.Store object at 0x7fae3acf5780</title>
<path fill="none" stroke="black" d="M23.35,-215.63C19.8,-205.42 15.8,-192.17 14,-180 11.66,-164.17 11.94,-159.87 14,-144 15.1,-135.51 17.16,-126.43 19.37,-118.24"/>
<polygon fill="black" stroke="black" points="22.78,-119.02 22.18,-108.44 16.05,-117.09 22.78,-119.02"/>
</g>
<!-- ast.Name object at 0x7fae3282d3c0 -->
<g id="node10" class="node">
<title>ast.Name object at 0x7fae3282d3c0</title>
<path fill="#66cdaa" stroke="black" d="M124.5,-252C124.5,-252 89.5,-252 89.5,-252 83.5,-252 77.5,-246 77.5,-240 77.5,-240 77.5,-228 77.5,-228 77.5,-222 83.5,-216 89.5,-216 89.5,-216 124.5,-216 124.5,-216 130.5,-216 136.5,-222 136.5,-228 136.5,-228 136.5,-240 136.5,-240 136.5,-246 130.5,-252 124.5,-252"/>
<text text-anchor="middle" x="107" y="-230.3" font-family="Times,serif" font-size="14.00">Name</text>
</g>
<!-- ast.For object at 0x7fae3282d3f0&#45;&gt;ast.Name object at 0x7fae3282d3c0 -->
<g id="edge9" class="edge">
<title>ast.For object at 0x7fae3282d3f0&#45;&gt;ast.Name object at 0x7fae3282d3c0</title>
<path fill="none" stroke="black" d="M260.68,-359.98C245.36,-341.07 218.86,-310.25 192,-288 177.67,-276.13 160.47,-264.92 145.3,-255.9"/>
<polygon fill="black" stroke="black" points="147.05,-252.86 136.64,-250.85 143.52,-258.91 147.05,-252.86"/>
</g>
<!-- ast.Call object at 0x7fae3282d390 -->
<g id="node11" class="node">
<title>ast.Call object at 0x7fae3282d390</title>
<path fill="#66cdaa" stroke="black" d="M728,-252C728,-252 698,-252 698,-252 692,-252 686,-246 686,-240 686,-240 686,-228 686,-228 686,-222 692,-216 698,-216 698,-216 728,-216 728,-216 734,-216 740,-222 740,-228 740,-228 740,-240 740,-240 740,-246 734,-252 728,-252"/>
<text text-anchor="middle" x="713" y="-230.3" font-family="Times,serif" font-size="14.00">Call</text>
</g>
<!-- ast.For object at 0x7fae3282d3f0&#45;&gt;ast.Call object at 0x7fae3282d390 -->
<g id="edge11" class="edge">
<title>ast.For object at 0x7fae3282d3f0&#45;&gt;ast.Call object at 0x7fae3282d390</title>
<path fill="none" stroke="black" d="M301.13,-368.22C376.74,-343.77 589.94,-274.81 676.14,-246.92"/>
<polygon fill="black" stroke="black" points="677.33,-250.22 685.77,-243.81 675.18,-243.56 677.33,-250.22"/>
</g>
<!-- ast.If object at 0x7fae3282d2a0 -->
<g id="node17" class="node">
<title>ast.If object at 0x7fae3282d2a0</title>
<path fill="#66cdaa" stroke="black" d="M297,-324C297,-324 267,-324 267,-324 261,-324 255,-318 255,-312 255,-312 255,-300 255,-300 255,-294 261,-288 267,-288 267,-288 297,-288 297,-288 303,-288 309,-294 309,-300 309,-300 309,-312 309,-312 309,-318 303,-324 297,-324"/>
<text text-anchor="middle" x="282" y="-302.3" font-family="Times,serif" font-size="14.00">If</text>
</g>
<!-- ast.For object at 0x7fae3282d3f0&#45;&gt;ast.If object at 0x7fae3282d2a0 -->
<g id="edge19" class="edge">
<title>ast.For object at 0x7fae3282d3f0&#45;&gt;ast.If object at 0x7fae3282d2a0</title>
<path fill="none" stroke="black" d="M275.98,-359.7C276.86,-351.98 277.92,-342.71 278.9,-334.11"/>
<polygon fill="black" stroke="black" points="282.39,-334.44 280.05,-324.1 275.43,-333.64 282.39,-334.44"/>
</g>
<!-- ast.Name object at 0x7fae3282d3c0&#45;&gt;ast.Store object at 0x7fae3acf5780 -->
<g id="edge10" class="edge">
<title>ast.Name object at 0x7fae3282d3c0&#45;&gt;ast.Store object at 0x7fae3acf5780</title>
<path fill="none" stroke="black" d="M81.01,-215.98C68.9,-206.74 55.34,-194.28 47,-180 36.01,-161.18 31.34,-136.81 29.38,-118.32"/>
<polygon fill="black" stroke="black" points="32.86,-117.87 28.51,-108.21 25.88,-118.47 32.86,-117.87"/>
</g>
<!-- ast.Name object at 0x7fae3282d360 -->
<g id="node12" class="node">
<title>ast.Name object at 0x7fae3282d360</title>
<path fill="#66cdaa" stroke="black" d="M800.5,-108C800.5,-108 765.5,-108 765.5,-108 759.5,-108 753.5,-102 753.5,-96 753.5,-96 753.5,-84 753.5,-84 753.5,-78 759.5,-72 765.5,-72 765.5,-72 800.5,-72 800.5,-72 806.5,-72 812.5,-78 812.5,-84 812.5,-84 812.5,-96 812.5,-96 812.5,-102 806.5,-108 800.5,-108"/>
<text text-anchor="middle" x="783" y="-86.3" font-family="Times,serif" font-size="14.00">Name</text>
</g>
<!-- ast.Call object at 0x7fae3282d390&#45;&gt;ast.Name object at 0x7fae3282d360 -->
<g id="edge12" class="edge">
<title>ast.Call object at 0x7fae3282d390&#45;&gt;ast.Name object at 0x7fae3282d360</title>
<path fill="none" stroke="black" d="M726.06,-215.97C733.42,-205.87 742.42,-192.62 749,-180 759.47,-159.92 768.47,-135.87 774.57,-117.83"/>
<polygon fill="black" stroke="black" points="777.93,-118.83 777.74,-108.24 771.28,-116.64 777.93,-118.83"/>
</g>
<!-- ast.Call object at 0x7fae3282d330 -->
<g id="node14" class="node">
<title>ast.Call object at 0x7fae3282d330</title>
<path fill="#66cdaa" stroke="black" d="M728,-180C728,-180 698,-180 698,-180 692,-180 686,-174 686,-168 686,-168 686,-156 686,-156 686,-150 692,-144 698,-144 698,-144 728,-144 728,-144 734,-144 740,-150 740,-156 740,-156 740,-168 740,-168 740,-174 734,-180 728,-180"/>
<text text-anchor="middle" x="713" y="-158.3" font-family="Times,serif" font-size="14.00">Call</text>
</g>
<!-- ast.Call object at 0x7fae3282d390&#45;&gt;ast.Call object at 0x7fae3282d330 -->
<g id="edge14" class="edge">
<title>ast.Call object at 0x7fae3282d390&#45;&gt;ast.Call object at 0x7fae3282d330</title>
<path fill="none" stroke="black" d="M713,-215.7C713,-207.98 713,-198.71 713,-190.11"/>
<polygon fill="black" stroke="black" points="716.5,-190.1 713,-180.1 709.5,-190.1 716.5,-190.1"/>
</g>
<!-- ast.Load object at 0x7fae3acf5720 -->
<g id="node13" class="node">
<title>ast.Load object at 0x7fae3acf5720</title>
<path fill="#66cdaa" stroke="black" d="M538,-36C538,-36 508,-36 508,-36 502,-36 496,-30 496,-24 496,-24 496,-12 496,-12 496,-6 502,0 508,0 508,0 538,0 538,0 544,0 550,-6 550,-12 550,-12 550,-24 550,-24 550,-30 544,-36 538,-36"/>
<text text-anchor="middle" x="523" y="-14.3" font-family="Times,serif" font-size="14.00">Load</text>
</g>
<!-- ast.Name object at 0x7fae3282d360&#45;&gt;ast.Load object at 0x7fae3acf5720 -->
<g id="edge13" class="edge">
<title>ast.Name object at 0x7fae3282d360&#45;&gt;ast.Load object at 0x7fae3acf5720</title>
<path fill="none" stroke="black" d="M753.34,-75.1C750.55,-73.98 747.74,-72.93 745,-72 681.44,-50.4 604.78,-34.18 560.19,-25.68"/>
<polygon fill="black" stroke="black" points="560.59,-22.19 550.11,-23.78 559.29,-29.07 560.59,-22.19"/>
</g>
<!-- ast.Name object at 0x7fae3282d300 -->
<g id="node15" class="node">
<title>ast.Name object at 0x7fae3282d300</title>
<path fill="#66cdaa" stroke="black" d="M646.5,-108C646.5,-108 611.5,-108 611.5,-108 605.5,-108 599.5,-102 599.5,-96 599.5,-96 599.5,-84 599.5,-84 599.5,-78 605.5,-72 611.5,-72 611.5,-72 646.5,-72 646.5,-72 652.5,-72 658.5,-78 658.5,-84 658.5,-84 658.5,-96 658.5,-96 658.5,-102 652.5,-108 646.5,-108"/>
<text text-anchor="middle" x="629" y="-86.3" font-family="Times,serif" font-size="14.00">Name</text>
</g>
<!-- ast.Call object at 0x7fae3282d330&#45;&gt;ast.Name object at 0x7fae3282d300 -->
<g id="edge15" class="edge">
<title>ast.Call object at 0x7fae3282d330&#45;&gt;ast.Name object at 0x7fae3282d300</title>
<path fill="none" stroke="black" d="M692.24,-143.7C681.76,-134.97 668.89,-124.24 657.5,-114.75"/>
<polygon fill="black" stroke="black" points="659.45,-111.82 649.53,-108.1 654.97,-117.19 659.45,-111.82"/>
</g>
<!-- ast.Name object at 0x7fae3282d2d0 -->
<g id="node16" class="node">
<title>ast.Name object at 0x7fae3282d2d0</title>
<path fill="#66cdaa" stroke="black" d="M723.5,-108C723.5,-108 688.5,-108 688.5,-108 682.5,-108 676.5,-102 676.5,-96 676.5,-96 676.5,-84 676.5,-84 676.5,-78 682.5,-72 688.5,-72 688.5,-72 723.5,-72 723.5,-72 729.5,-72 735.5,-78 735.5,-84 735.5,-84 735.5,-96 735.5,-96 735.5,-102 729.5,-108 723.5,-108"/>
<text text-anchor="middle" x="706" y="-86.3" font-family="Times,serif" font-size="14.00">Name</text>
</g>
<!-- ast.Call object at 0x7fae3282d330&#45;&gt;ast.Name object at 0x7fae3282d2d0 -->
<g id="edge17" class="edge">
<title>ast.Call object at 0x7fae3282d330&#45;&gt;ast.Name object at 0x7fae3282d2d0</title>
<path fill="none" stroke="black" d="M711.27,-143.7C710.5,-135.98 709.57,-126.71 708.71,-118.11"/>
<polygon fill="black" stroke="black" points="712.19,-117.71 707.71,-108.1 705.22,-118.4 712.19,-117.71"/>
</g>
<!-- ast.Name object at 0x7fae3282d300&#45;&gt;ast.Load object at 0x7fae3acf5720 -->
<g id="edge16" class="edge">
<title>ast.Name object at 0x7fae3282d300&#45;&gt;ast.Load object at 0x7fae3acf5720</title>
<path fill="none" stroke="black" d="M603.07,-71.88C589.34,-62.81 572.29,-51.55 557.46,-41.76"/>
<polygon fill="black" stroke="black" points="559.3,-38.78 549.03,-36.19 555.45,-44.62 559.3,-38.78"/>
</g>
<!-- ast.Name object at 0x7fae3282d2d0&#45;&gt;ast.Load object at 0x7fae3acf5720 -->
<g id="edge18" class="edge">
<title>ast.Name object at 0x7fae3282d2d0&#45;&gt;ast.Load object at 0x7fae3acf5720</title>
<path fill="none" stroke="black" d="M676.21,-75.44C673.45,-74.25 670.68,-73.09 668,-72 631.52,-57.19 589.16,-41.93 559.68,-31.61"/>
<polygon fill="black" stroke="black" points="560.8,-28.29 550.21,-28.3 558.5,-34.9 560.8,-28.29"/>
</g>
<!-- ast.Compare object at 0x7fae3282d270 -->
<g id="node18" class="node">
<title>ast.Compare object at 0x7fae3282d270</title>
<path fill="#66cdaa" stroke="black" d="M408.5,-252C408.5,-252 351.5,-252 351.5,-252 345.5,-252 339.5,-246 339.5,-240 339.5,-240 339.5,-228 339.5,-228 339.5,-222 345.5,-216 351.5,-216 351.5,-216 408.5,-216 408.5,-216 414.5,-216 420.5,-222 420.5,-228 420.5,-228 420.5,-240 420.5,-240 420.5,-246 414.5,-252 408.5,-252"/>
<text text-anchor="middle" x="380" y="-230.3" font-family="Times,serif" font-size="14.00">Compare</text>
</g>
<!-- ast.If object at 0x7fae3282d2a0&#45;&gt;ast.Compare object at 0x7fae3282d270 -->
<g id="edge20" class="edge">
<title>ast.If object at 0x7fae3282d2a0&#45;&gt;ast.Compare object at 0x7fae3282d270</title>
<path fill="none" stroke="black" d="M305.97,-287.88C318.55,-278.89 334.13,-267.76 347.75,-258.03"/>
<polygon fill="black" stroke="black" points="349.83,-260.85 355.93,-252.19 345.76,-255.15 349.83,-260.85"/>
</g>
<!-- ast.AugAssign object at 0x7fae3282d150 -->
<g id="node25" class="node">
<title>ast.AugAssign object at 0x7fae3282d150</title>
<path fill="#66cdaa" stroke="black" d="M235,-252C235,-252 167,-252 167,-252 161,-252 155,-246 155,-240 155,-240 155,-228 155,-228 155,-222 161,-216 167,-216 167,-216 235,-216 235,-216 241,-216 247,-222 247,-228 247,-228 247,-240 247,-240 247,-246 241,-252 235,-252"/>
<text text-anchor="middle" x="201" y="-230.3" font-family="Times,serif" font-size="14.00">AugAssign</text>
</g>
<!-- ast.If object at 0x7fae3282d2a0&#45;&gt;ast.AugAssign object at 0x7fae3282d150 -->
<g id="edge31" class="edge">
<title>ast.If object at 0x7fae3282d2a0&#45;&gt;ast.AugAssign object at 0x7fae3282d150</title>
<path fill="none" stroke="black" d="M261.98,-287.7C251.87,-278.97 239.46,-268.24 228.48,-258.75"/>
<polygon fill="black" stroke="black" points="230.65,-255.99 220.79,-252.1 226.07,-261.29 230.65,-255.99"/>
</g>
<!-- ast.Constant object at 0x7fae3282d240 -->
<g id="node19" class="node">
<title>ast.Constant object at 0x7fae3282d240</title>
<path fill="#66cdaa" stroke="black" d="M655.5,-180C655.5,-180 598.5,-180 598.5,-180 592.5,-180 586.5,-174 586.5,-168 586.5,-168 586.5,-156 586.5,-156 586.5,-150 592.5,-144 598.5,-144 598.5,-144 655.5,-144 655.5,-144 661.5,-144 667.5,-150 667.5,-156 667.5,-156 667.5,-168 667.5,-168 667.5,-174 661.5,-180 655.5,-180"/>
<text text-anchor="middle" x="627" y="-158.3" font-family="Times,serif" font-size="14.00">Constant</text>
</g>
<!-- ast.Compare object at 0x7fae3282d270&#45;&gt;ast.Constant object at 0x7fae3282d240 -->
<g id="edge21" class="edge">
<title>ast.Compare object at 0x7fae3282d270&#45;&gt;ast.Constant object at 0x7fae3282d240</title>
<path fill="none" stroke="black" d="M420.59,-222.9C458.54,-213.28 516.98,-197.99 576.8,-179.96"/>
<polygon fill="black" stroke="black" points="577.86,-183.3 586.41,-177.05 575.83,-176.6 577.86,-183.3"/>
</g>
<!-- ast.LtE object at 0x7fae3acf6170 -->
<g id="node20" class="node">
<title>ast.LtE object at 0x7fae3acf6170</title>
<path fill="#66cdaa" stroke="black" d="M352,-180C352,-180 322,-180 322,-180 316,-180 310,-174 310,-168 310,-168 310,-156 310,-156 310,-150 316,-144 322,-144 322,-144 352,-144 352,-144 358,-144 364,-150 364,-156 364,-156 364,-168 364,-168 364,-174 358,-180 352,-180"/>
<text text-anchor="middle" x="337" y="-158.3" font-family="Times,serif" font-size="14.00">LtE</text>
</g>
<!-- ast.Compare object at 0x7fae3282d270&#45;&gt;ast.LtE object at 0x7fae3acf6170 -->
<g id="edge22" class="edge">
<title>ast.Compare object at 0x7fae3282d270&#45;&gt;ast.LtE object at 0x7fae3acf6170</title>
<path fill="none" stroke="black" d="M363.46,-215.7C357.68,-207.64 351.48,-197.89 346.41,-188.98"/>
<polygon fill="black" stroke="black" points="349.45,-187.24 341.61,-180.1 343.29,-190.57 349.45,-187.24"/>
</g>
<!-- ast.Compare object at 0x7fae3282d270&#45;&gt;ast.LtE object at 0x7fae3acf6170 -->
<g id="edge23" class="edge">
<title>ast.Compare object at 0x7fae3282d270&#45;&gt;ast.LtE object at 0x7fae3acf6170</title>
<path fill="none" stroke="black" d="M375.29,-215.7C371.08,-207.47 365.15,-197.48 359.14,-188.42"/>
<polygon fill="black" stroke="black" points="361.96,-186.35 353.4,-180.1 356.2,-190.32 361.96,-186.35"/>
</g>
<!-- ast.Subscript object at 0x7fae3282d210 -->
<g id="node21" class="node">
<title>ast.Subscript object at 0x7fae3282d210</title>
<path fill="#66cdaa" stroke="black" d="M556,-180C556,-180 494,-180 494,-180 488,-180 482,-174 482,-168 482,-168 482,-156 482,-156 482,-150 488,-144 494,-144 494,-144 556,-144 556,-144 562,-144 568,-150 568,-156 568,-156 568,-168 568,-168 568,-174 562,-180 556,-180"/>
<text text-anchor="middle" x="525" y="-158.3" font-family="Times,serif" font-size="14.00">Subscript</text>
</g>
<!-- ast.Compare object at 0x7fae3282d270&#45;&gt;ast.Subscript object at 0x7fae3282d210 -->
<g id="edge24" class="edge">
<title>ast.Compare object at 0x7fae3282d270&#45;&gt;ast.Subscript object at 0x7fae3282d210</title>
<path fill="none" stroke="black" d="M415.47,-215.88C435.12,-206.39 459.72,-194.51 480.63,-184.42"/>
<polygon fill="black" stroke="black" points="482.16,-187.57 489.64,-180.07 479.12,-181.26 482.16,-187.57"/>
</g>
<!-- ast.Constant object at 0x7fae3282d180 -->
<g id="node24" class="node">
<title>ast.Constant object at 0x7fae3282d180</title>
<path fill="#66cdaa" stroke="black" d="M451.5,-180C451.5,-180 394.5,-180 394.5,-180 388.5,-180 382.5,-174 382.5,-168 382.5,-168 382.5,-156 382.5,-156 382.5,-150 388.5,-144 394.5,-144 394.5,-144 451.5,-144 451.5,-144 457.5,-144 463.5,-150 463.5,-156 463.5,-156 463.5,-168 463.5,-168 463.5,-174 457.5,-180 451.5,-180"/>
<text text-anchor="middle" x="423" y="-158.3" font-family="Times,serif" font-size="14.00">Constant</text>
</g>
<!-- ast.Compare object at 0x7fae3282d270&#45;&gt;ast.Constant object at 0x7fae3282d180 -->
<g id="edge30" class="edge">
<title>ast.Compare object at 0x7fae3282d270&#45;&gt;ast.Constant object at 0x7fae3282d180</title>
<path fill="none" stroke="black" d="M390.63,-215.7C395.63,-207.56 401.69,-197.69 407.21,-188.7"/>
<polygon fill="black" stroke="black" points="410.24,-190.46 412.49,-180.1 404.28,-186.79 410.24,-190.46"/>
</g>
<!-- ast.Subscript object at 0x7fae3282d210&#45;&gt;ast.Load object at 0x7fae3acf5720 -->
<g id="edge29" class="edge">
<title>ast.Subscript object at 0x7fae3282d210&#45;&gt;ast.Load object at 0x7fae3acf5720</title>
<path fill="none" stroke="black" d="M520.54,-143.95C518.06,-133.63 515.25,-120.15 514,-108 512.37,-92.08 512.66,-87.94 514,-72 514.72,-63.5 516.07,-54.31 517.51,-46.01"/>
<polygon fill="black" stroke="black" points="520.97,-46.56 519.35,-36.09 514.09,-45.29 520.97,-46.56"/>
</g>
<!-- ast.Name object at 0x7fae3282d1e0 -->
<g id="node22" class="node">
<title>ast.Name object at 0x7fae3282d1e0</title>
<path fill="#66cdaa" stroke="black" d="M569.5,-108C569.5,-108 534.5,-108 534.5,-108 528.5,-108 522.5,-102 522.5,-96 522.5,-96 522.5,-84 522.5,-84 522.5,-78 528.5,-72 534.5,-72 534.5,-72 569.5,-72 569.5,-72 575.5,-72 581.5,-78 581.5,-84 581.5,-84 581.5,-96 581.5,-96 581.5,-102 575.5,-108 569.5,-108"/>
<text text-anchor="middle" x="552" y="-86.3" font-family="Times,serif" font-size="14.00">Name</text>
</g>
<!-- ast.Subscript object at 0x7fae3282d210&#45;&gt;ast.Name object at 0x7fae3282d1e0 -->
<g id="edge25" class="edge">
<title>ast.Subscript object at 0x7fae3282d210&#45;&gt;ast.Name object at 0x7fae3282d1e0</title>
<path fill="none" stroke="black" d="M531.67,-143.7C534.71,-135.81 538.38,-126.3 541.76,-117.55"/>
<polygon fill="black" stroke="black" points="545.07,-118.69 545.4,-108.1 538.54,-116.17 545.07,-118.69"/>
</g>
<!-- ast.Name object at 0x7fae3282d1b0 -->
<g id="node23" class="node">
<title>ast.Name object at 0x7fae3282d1b0</title>
<path fill="#66cdaa" stroke="black" d="M453.5,-108C453.5,-108 418.5,-108 418.5,-108 412.5,-108 406.5,-102 406.5,-96 406.5,-96 406.5,-84 406.5,-84 406.5,-78 412.5,-72 418.5,-72 418.5,-72 453.5,-72 453.5,-72 459.5,-72 465.5,-78 465.5,-84 465.5,-84 465.5,-96 465.5,-96 465.5,-102 459.5,-108 453.5,-108"/>
<text text-anchor="middle" x="436" y="-86.3" font-family="Times,serif" font-size="14.00">Name</text>
</g>
<!-- ast.Subscript object at 0x7fae3282d210&#45;&gt;ast.Name object at 0x7fae3282d1b0 -->
<g id="edge27" class="edge">
<title>ast.Subscript object at 0x7fae3282d210&#45;&gt;ast.Name object at 0x7fae3282d1b0</title>
<path fill="none" stroke="black" d="M503,-143.7C491.79,-134.88 478,-124.03 465.85,-114.47"/>
<polygon fill="black" stroke="black" points="467.77,-111.54 457.75,-108.1 463.44,-117.04 467.77,-111.54"/>
</g>
<!-- ast.Name object at 0x7fae3282d1e0&#45;&gt;ast.Load object at 0x7fae3acf5720 -->
<g id="edge26" class="edge">
<title>ast.Name object at 0x7fae3282d1e0&#45;&gt;ast.Load object at 0x7fae3acf5720</title>
<path fill="none" stroke="black" d="M544.83,-71.7C541.57,-63.81 537.63,-54.3 534,-45.55"/>
<polygon fill="black" stroke="black" points="537.15,-44 530.09,-36.1 530.68,-46.68 537.15,-44"/>
</g>
<!-- ast.Name object at 0x7fae3282d1b0&#45;&gt;ast.Load object at 0x7fae3acf5720 -->
<g id="edge28" class="edge">
<title>ast.Name object at 0x7fae3282d1b0&#45;&gt;ast.Load object at 0x7fae3acf5720</title>
<path fill="none" stroke="black" d="M457.51,-71.7C468.46,-62.88 481.95,-52.03 493.82,-42.47"/>
<polygon fill="black" stroke="black" points="496.14,-45.1 501.74,-36.1 491.76,-39.65 496.14,-45.1"/>
</g>
<!-- ast.Name object at 0x7fae361b6530 -->
<g id="node26" class="node">
<title>ast.Name object at 0x7fae361b6530</title>
<path fill="#66cdaa" stroke="black" d="M103.5,-180C103.5,-180 68.5,-180 68.5,-180 62.5,-180 56.5,-174 56.5,-168 56.5,-168 56.5,-156 56.5,-156 56.5,-150 62.5,-144 68.5,-144 68.5,-144 103.5,-144 103.5,-144 109.5,-144 115.5,-150 115.5,-156 115.5,-156 115.5,-168 115.5,-168 115.5,-174 109.5,-180 103.5,-180"/>
<text text-anchor="middle" x="86" y="-158.3" font-family="Times,serif" font-size="14.00">Name</text>
</g>
<!-- ast.AugAssign object at 0x7fae3282d150&#45;&gt;ast.Name object at 0x7fae361b6530 -->
<g id="edge32" class="edge">
<title>ast.AugAssign object at 0x7fae3282d150&#45;&gt;ast.Name object at 0x7fae361b6530</title>
<path fill="none" stroke="black" d="M172.87,-215.88C157.83,-206.72 139.13,-195.34 122.94,-185.48"/>
<polygon fill="black" stroke="black" points="124.6,-182.4 114.24,-180.19 120.96,-188.38 124.6,-182.4"/>
</g>
<!-- ast.Add object at 0x7fae3acf5960 -->
<g id="node27" class="node">
<title>ast.Add object at 0x7fae3acf5960</title>
<path fill="#66cdaa" stroke="black" d="M176,-180C176,-180 146,-180 146,-180 140,-180 134,-174 134,-168 134,-168 134,-156 134,-156 134,-150 140,-144 146,-144 146,-144 176,-144 176,-144 182,-144 188,-150 188,-156 188,-156 188,-168 188,-168 188,-174 182,-180 176,-180"/>
<text text-anchor="middle" x="161" y="-158.3" font-family="Times,serif" font-size="14.00">Add</text>
</g>
<!-- ast.AugAssign object at 0x7fae3282d150&#45;&gt;ast.Add object at 0x7fae3acf5960 -->
<g id="edge34" class="edge">
<title>ast.AugAssign object at 0x7fae3282d150&#45;&gt;ast.Add object at 0x7fae3acf5960</title>
<path fill="none" stroke="black" d="M191.11,-215.7C186.51,-207.64 180.94,-197.89 175.85,-188.98"/>
<polygon fill="black" stroke="black" points="178.77,-187.05 170.77,-180.1 172.7,-190.52 178.77,-187.05"/>
</g>
<!-- ast.Subscript object at 0x7fae35ea9870 -->
<g id="node28" class="node">
<title>ast.Subscript object at 0x7fae35ea9870</title>
<path fill="#66cdaa" stroke="black" d="M280,-180C280,-180 218,-180 218,-180 212,-180 206,-174 206,-168 206,-168 206,-156 206,-156 206,-150 212,-144 218,-144 218,-144 280,-144 280,-144 286,-144 292,-150 292,-156 292,-156 292,-168 292,-168 292,-174 286,-180 280,-180"/>
<text text-anchor="middle" x="249" y="-158.3" font-family="Times,serif" font-size="14.00">Subscript</text>
</g>
<!-- ast.AugAssign object at 0x7fae3282d150&#45;&gt;ast.Subscript object at 0x7fae35ea9870 -->
<g id="edge35" class="edge">
<title>ast.AugAssign object at 0x7fae3282d150&#45;&gt;ast.Subscript object at 0x7fae35ea9870</title>
<path fill="none" stroke="black" d="M212.87,-215.7C218.5,-207.47 225.35,-197.48 231.57,-188.42"/>
<polygon fill="black" stroke="black" points="234.5,-190.33 237.27,-180.1 228.73,-186.37 234.5,-190.33"/>
</g>
<!-- ast.Name object at 0x7fae361b6530&#45;&gt;ast.Store object at 0x7fae3acf5780 -->
<g id="edge33" class="edge">
<title>ast.Name object at 0x7fae361b6530&#45;&gt;ast.Store object at 0x7fae3acf5780</title>
<path fill="none" stroke="black" d="M71.66,-143.7C64.71,-135.3 56.23,-125.07 48.6,-115.86"/>
<polygon fill="black" stroke="black" points="51.25,-113.57 42.17,-108.1 45.86,-118.04 51.25,-113.57"/>
</g>
<!-- ast.Subscript object at 0x7fae35ea9870&#45;&gt;ast.Load object at 0x7fae3acf5720 -->
<g id="edge40" class="edge">
<title>ast.Subscript object at 0x7fae35ea9870&#45;&gt;ast.Load object at 0x7fae3acf5720</title>
<path fill="none" stroke="black" d="M291.21,-143.96C312.1,-134.67 337.23,-122.18 358,-108 377.48,-94.7 377.16,-84.77 397,-72 425.05,-53.95 460.28,-39.75 486.35,-30.6"/>
<polygon fill="black" stroke="black" points="487.53,-33.9 495.86,-27.35 485.26,-27.28 487.53,-33.9"/>
</g>
<!-- ast.Name object at 0x7fae35ea98a0 -->
<g id="node29" class="node">
<title>ast.Name object at 0x7fae35ea98a0</title>
<path fill="#66cdaa" stroke="black" d="M260.5,-108C260.5,-108 225.5,-108 225.5,-108 219.5,-108 213.5,-102 213.5,-96 213.5,-96 213.5,-84 213.5,-84 213.5,-78 219.5,-72 225.5,-72 225.5,-72 260.5,-72 260.5,-72 266.5,-72 272.5,-78 272.5,-84 272.5,-84 272.5,-96 272.5,-96 272.5,-102 266.5,-108 260.5,-108"/>
<text text-anchor="middle" x="243" y="-86.3" font-family="Times,serif" font-size="14.00">Name</text>
</g>
<!-- ast.Subscript object at 0x7fae35ea9870&#45;&gt;ast.Name object at 0x7fae35ea98a0 -->
<g id="edge36" class="edge">
<title>ast.Subscript object at 0x7fae35ea9870&#45;&gt;ast.Name object at 0x7fae35ea98a0</title>
<path fill="none" stroke="black" d="M247.52,-143.7C246.86,-135.98 246.06,-126.71 245.32,-118.11"/>
<polygon fill="black" stroke="black" points="248.81,-117.77 244.47,-108.1 241.83,-118.37 248.81,-117.77"/>
</g>
<!-- ast.Name object at 0x7fae35ea95a0 -->
<g id="node30" class="node">
<title>ast.Name object at 0x7fae35ea95a0</title>
<path fill="#66cdaa" stroke="black" d="M337.5,-108C337.5,-108 302.5,-108 302.5,-108 296.5,-108 290.5,-102 290.5,-96 290.5,-96 290.5,-84 290.5,-84 290.5,-78 296.5,-72 302.5,-72 302.5,-72 337.5,-72 337.5,-72 343.5,-72 349.5,-78 349.5,-84 349.5,-84 349.5,-96 349.5,-96 349.5,-102 343.5,-108 337.5,-108"/>
<text text-anchor="middle" x="320" y="-86.3" font-family="Times,serif" font-size="14.00">Name</text>
</g>
<!-- ast.Subscript object at 0x7fae35ea9870&#45;&gt;ast.Name object at 0x7fae35ea95a0 -->
<g id="edge38" class="edge">
<title>ast.Subscript object at 0x7fae35ea9870&#45;&gt;ast.Name object at 0x7fae35ea95a0</title>
<path fill="none" stroke="black" d="M266.55,-143.7C275.23,-135.14 285.86,-124.66 295.35,-115.3"/>
<polygon fill="black" stroke="black" points="297.99,-117.62 302.65,-108.1 293.07,-112.63 297.99,-117.62"/>
</g>
<!-- ast.Name object at 0x7fae35ea98a0&#45;&gt;ast.Load object at 0x7fae3acf5720 -->
<g id="edge37" class="edge">
<title>ast.Name object at 0x7fae35ea98a0&#45;&gt;ast.Load object at 0x7fae3acf5720</title>
<path fill="none" stroke="black" d="M272.64,-75.05C275.44,-73.94 278.25,-72.9 281,-72 351.79,-48.69 437.63,-32.65 485.7,-24.72"/>
<polygon fill="black" stroke="black" points="486.35,-28.16 495.66,-23.11 485.23,-21.25 486.35,-28.16"/>
</g>
<!-- ast.Name object at 0x7fae35ea95a0&#45;&gt;ast.Load object at 0x7fae3acf5720 -->
<g id="edge39" class="edge">
<title>ast.Name object at 0x7fae35ea95a0&#45;&gt;ast.Load object at 0x7fae3acf5720</title>
<path fill="none" stroke="black" d="M349.75,-77.29C354.5,-75.48 359.38,-73.66 364,-72 405.51,-57.07 453.61,-41.24 485.94,-30.81"/>
<polygon fill="black" stroke="black" points="487.41,-34.01 495.86,-27.62 485.27,-27.35 487.41,-34.01"/>
</g>
<!-- ast.Name object at 0x7fae35ea89d0 -->
<g id="node32" class="node">
<title>ast.Name object at 0x7fae35ea89d0</title>
<path fill="#66cdaa" stroke="black" d="M817.5,-324C817.5,-324 782.5,-324 782.5,-324 776.5,-324 770.5,-318 770.5,-312 770.5,-312 770.5,-300 770.5,-300 770.5,-294 776.5,-288 782.5,-288 782.5,-288 817.5,-288 817.5,-288 823.5,-288 829.5,-294 829.5,-300 829.5,-300 829.5,-312 829.5,-312 829.5,-318 823.5,-324 817.5,-324"/>
<text text-anchor="middle" x="800" y="-302.3" font-family="Times,serif" font-size="14.00">Name</text>
</g>
<!-- ast.Return object at 0x7fae35ea95d0&#45;&gt;ast.Name object at 0x7fae35ea89d0 -->
<g id="edge42" class="edge">
<title>ast.Return object at 0x7fae35ea95d0&#45;&gt;ast.Name object at 0x7fae35ea89d0</title>
<path fill="none" stroke="black" d="M406.15,-371.57C483.66,-358.86 676.51,-327.25 760.19,-313.53"/>
<polygon fill="black" stroke="black" points="761.01,-316.94 770.32,-311.87 759.88,-310.03 761.01,-316.94"/>
</g>
<!-- ast.Name object at 0x7fae35ea89d0&#45;&gt;ast.Load object at 0x7fae3acf5720 -->
<g id="edge43" class="edge">
<title>ast.Name object at 0x7fae35ea89d0&#45;&gt;ast.Load object at 0x7fae3acf5720</title>
<path fill="none" stroke="black" d="M808.95,-287.93C829.66,-245.76 875.25,-135.52 822,-72 788.99,-32.63 632.92,-22.49 560.31,-19.89"/>
<polygon fill="black" stroke="black" points="560.34,-16.39 550.23,-19.56 560.11,-23.38 560.34,-16.39"/>
</g>
</g>
</svg>
