<?xml version="1.0" encoding="UTF-8" standalone="no"?>
<!DOCTYPE svg PUBLIC "-//W3C//DTD SVG 1.1//EN"
 "http://www.w3.org/Graphics/SVG/1.1/DTD/svg11.dtd">
<!-- Generated by graphviz version 2.43.0 (0)
 -->
<!-- Title: %3 Pages: 1 -->
<svg width="873pt" height="620pt"
 viewBox="0.00 0.00 872.50 620.00" xmlns="http://www.w3.org/2000/svg" xmlns:xlink="http://www.w3.org/1999/xlink">
<g id="graph0" class="graph" transform="scale(1 1) rotate(0) translate(4 616)">
<title>%3</title>
<polygon fill="white" stroke="transparent" points="-4,4 -4,-616 868.5,-616 868.5,4 -4,4"/>
<!-- ast.Module object at 0x7f58e88b28c0 -->
<g id="node1" class="node">
<title>ast.Module object at 0x7f58e88b28c0</title>
<path fill="#66cdaa" stroke="black" d="M442.5,-612C442.5,-612 407.5,-612 407.5,-612 401.5,-612 395.5,-606 395.5,-600 395.5,-600 395.5,-588 395.5,-588 395.5,-582 401.5,-576 407.5,-576 407.5,-576 442.5,-576 442.5,-576 448.5,-576 454.5,-582 454.5,-588 454.5,-588 454.5,-600 454.5,-600 454.5,-606 448.5,-612 442.5,-612"/>
<text text-anchor="middle" x="425" y="-590.3" font-family="Times,serif" font-size="14.00">Module</text>
</g>
<!-- ast.FunctionDef object at 0x7f58e88b06d0 -->
<g id="node2" class="node">
<title>ast.FunctionDef object at 0x7f58e88b06d0</title>
<path fill="#66cdaa" stroke="black" d="M455.5,-540C455.5,-540 394.5,-540 394.5,-540 388.5,-540 382.5,-534 382.5,-528 382.5,-528 382.5,-516 382.5,-516 382.5,-510 388.5,-504 394.5,-504 394.5,-504 455.5,-504 455.5,-504 461.5,-504 467.5,-510 467.5,-516 467.5,-516 467.5,-528 467.5,-528 467.5,-534 461.5,-540 455.5,-540"/>
<text text-anchor="middle" x="425" y="-518.3" font-family="Times,serif" font-size="14.00">FunctionDef</text>
</g>
<!-- ast.Module object at 0x7f58e88b28c0&#45;&gt;ast.FunctionDef object at 0x7f58e88b06d0 -->
<g id="edge1" class="edge">
<title>ast.Module object at 0x7f58e88b28c0&#45;&gt;ast.FunctionDef object at 0x7f58e88b06d0</title>
<path fill="none" stroke="black" d="M425,-575.7C425,-567.98 425,-558.71 425,-550.11"/>
<polygon fill="black" stroke="black" points="428.5,-550.1 425,-540.1 421.5,-550.1 428.5,-550.1"/>
</g>
<!-- ast.arguments object at 0x7f58e88b0940 -->
<g id="node3" class="node">
<title>ast.arguments object at 0x7f58e88b0940</title>
<path fill="#66cdaa" stroke="black" d="M274,-468C274,-468 224,-468 224,-468 218,-468 212,-462 212,-456 212,-456 212,-444 212,-444 212,-438 218,-432 224,-432 224,-432 274,-432 274,-432 280,-432 286,-438 286,-444 286,-444 286,-456 286,-456 286,-462 280,-468 274,-468"/>
<text text-anchor="middle" x="249" y="-446.3" font-family="Times,serif" font-size="14.00">arguments</text>
</g>
<!-- ast.FunctionDef object at 0x7f58e88b06d0&#45;&gt;ast.arguments object at 0x7f58e88b0940 -->
<g id="edge2" class="edge">
<title>ast.FunctionDef object at 0x7f58e88b06d0&#45;&gt;ast.arguments object at 0x7f58e88b0940</title>
<path fill="none" stroke="black" d="M382.4,-504.05C356.21,-493.64 322.64,-480.29 295.73,-469.58"/>
<polygon fill="black" stroke="black" points="296.73,-466.22 286.14,-465.77 294.14,-472.72 296.73,-466.22"/>
</g>
<!-- ast.Assign object at 0x7f58e88b2020 -->
<g id="node5" class="node">
<title>ast.Assign object at 0x7f58e88b2020</title>
<path fill="#66cdaa" stroke="black" d="M676,-396C676,-396 646,-396 646,-396 640,-396 634,-390 634,-384 634,-384 634,-372 634,-372 634,-366 640,-360 646,-360 646,-360 676,-360 676,-360 682,-360 688,-366 688,-372 688,-372 688,-384 688,-384 688,-390 682,-396 676,-396"/>
<text text-anchor="middle" x="661" y="-374.3" font-family="Times,serif" font-size="14.00">Assign</text>
</g>
<!-- ast.FunctionDef object at 0x7f58e88b06d0&#45;&gt;ast.Assign object at 0x7f58e88b2020 -->
<g id="edge4" class="edge">
<title>ast.FunctionDef object at 0x7f58e88b06d0&#45;&gt;ast.Assign object at 0x7f58e88b2020</title>
<path fill="none" stroke="black" d="M453.47,-503.87C496.54,-477.95 578.23,-428.8 625.25,-400.51"/>
<polygon fill="black" stroke="black" points="627.13,-403.47 633.89,-395.31 623.52,-397.47 627.13,-403.47"/>
</g>
<!-- ast.For object at 0x7f58e88b3490 -->
<g id="node10" class="node">
<title>ast.For object at 0x7f58e88b3490</title>
<path fill="#66cdaa" stroke="black" d="M413,-468C413,-468 383,-468 383,-468 377,-468 371,-462 371,-456 371,-456 371,-444 371,-444 371,-438 377,-432 383,-432 383,-432 413,-432 413,-432 419,-432 425,-438 425,-444 425,-444 425,-456 425,-456 425,-462 419,-468 413,-468"/>
<text text-anchor="middle" x="398" y="-446.3" font-family="Times,serif" font-size="14.00">For</text>
</g>
<!-- ast.FunctionDef object at 0x7f58e88b06d0&#45;&gt;ast.For object at 0x7f58e88b3490 -->
<g id="edge9" class="edge">
<title>ast.FunctionDef object at 0x7f58e88b06d0&#45;&gt;ast.For object at 0x7f58e88b3490</title>
<path fill="none" stroke="black" d="M418.33,-503.7C415.29,-495.81 411.62,-486.3 408.24,-477.55"/>
<polygon fill="black" stroke="black" points="411.46,-476.17 404.6,-468.1 404.93,-478.69 411.46,-476.17"/>
</g>
<!-- ast.Return object at 0x7f58e6c6d6f0 -->
<g id="node34" class="node">
<title>ast.Return object at 0x7f58e6c6d6f0</title>
<path fill="#66cdaa" stroke="black" d="M751,-468C751,-468 721,-468 721,-468 715,-468 709,-462 709,-456 709,-456 709,-444 709,-444 709,-438 715,-432 721,-432 721,-432 751,-432 751,-432 757,-432 763,-438 763,-444 763,-444 763,-456 763,-456 763,-462 757,-468 751,-468"/>
<text text-anchor="middle" x="736" y="-446.3" font-family="Times,serif" font-size="14.00">Return</text>
</g>
<!-- ast.FunctionDef object at 0x7f58e88b06d0&#45;&gt;ast.Return object at 0x7f58e6c6d6f0 -->
<g id="edge46" class="edge">
<title>ast.FunctionDef object at 0x7f58e88b06d0&#45;&gt;ast.Return object at 0x7f58e6c6d6f0</title>
<path fill="none" stroke="black" d="M467.59,-511.41C528.8,-497.64 640.63,-472.47 698.73,-459.39"/>
<polygon fill="black" stroke="black" points="699.61,-462.78 708.59,-457.17 698.07,-455.95 699.61,-462.78"/>
</g>
<!-- ast.arg object at 0x7f58e88b32b0 -->
<g id="node4" class="node">
<title>ast.arg object at 0x7f58e88b32b0</title>
<path fill="#66cdaa" stroke="black" d="M120,-396C120,-396 90,-396 90,-396 84,-396 78,-390 78,-384 78,-384 78,-372 78,-372 78,-366 84,-360 90,-360 90,-360 120,-360 120,-360 126,-360 132,-366 132,-372 132,-372 132,-384 132,-384 132,-390 126,-396 120,-396"/>
<text text-anchor="middle" x="105" y="-374.3" font-family="Times,serif" font-size="14.00">arg</text>
</g>
<!-- ast.arguments object at 0x7f58e88b0940&#45;&gt;ast.arg object at 0x7f58e88b32b0 -->
<g id="edge3" class="edge">
<title>ast.arguments object at 0x7f58e88b0940&#45;&gt;ast.arg object at 0x7f58e88b32b0</title>
<path fill="none" stroke="black" d="M213.77,-431.88C191.77,-421.18 163.51,-407.44 141.3,-396.65"/>
<polygon fill="black" stroke="black" points="142.72,-393.44 132.2,-392.22 139.66,-399.74 142.72,-393.44"/>
</g>
<!-- ast.Name object at 0x7f58e88b3a30 -->
<g id="node6" class="node">
<title>ast.Name object at 0x7f58e88b3a30</title>
<path fill="#66cdaa" stroke="black" d="M676,-324C676,-324 646,-324 646,-324 640,-324 634,-318 634,-312 634,-312 634,-300 634,-300 634,-294 640,-288 646,-288 646,-288 676,-288 676,-288 682,-288 688,-294 688,-300 688,-300 688,-312 688,-312 688,-318 682,-324 676,-324"/>
<text text-anchor="middle" x="661" y="-302.3" font-family="Times,serif" font-size="14.00">Name</text>
</g>
<!-- ast.Assign object at 0x7f58e88b2020&#45;&gt;ast.Name object at 0x7f58e88b3a30 -->
<g id="edge5" class="edge">
<title>ast.Assign object at 0x7f58e88b2020&#45;&gt;ast.Name object at 0x7f58e88b3a30</title>
<path fill="none" stroke="black" d="M661,-359.7C661,-351.98 661,-342.71 661,-334.11"/>
<polygon fill="black" stroke="black" points="664.5,-334.1 661,-324.1 657.5,-334.1 664.5,-334.1"/>
</g>
<!-- ast.List object at 0x7f58e88b1ab0 -->
<g id="node8" class="node">
<title>ast.List object at 0x7f58e88b1ab0</title>
<path fill="#66cdaa" stroke="black" d="M626,-180C626,-180 596,-180 596,-180 590,-180 584,-174 584,-168 584,-168 584,-156 584,-156 584,-150 590,-144 596,-144 596,-144 626,-144 626,-144 632,-144 638,-150 638,-156 638,-156 638,-168 638,-168 638,-174 632,-180 626,-180"/>
<text text-anchor="middle" x="611" y="-158.3" font-family="Times,serif" font-size="14.00">List</text>
</g>
<!-- ast.Assign object at 0x7f58e88b2020&#45;&gt;ast.List object at 0x7f58e88b1ab0 -->
<g id="edge7" class="edge">
<title>ast.Assign object at 0x7f58e88b2020&#45;&gt;ast.List object at 0x7f58e88b1ab0</title>
<path fill="none" stroke="black" d="M676.61,-359.77C684.37,-350.03 692.95,-337.18 697,-324 711.11,-278.12 720.4,-257.91 697,-216 694.05,-210.72 669.29,-195.73 647.1,-183.04"/>
<polygon fill="black" stroke="black" points="648.56,-179.84 638.13,-177.95 645.1,-185.93 648.56,-179.84"/>
</g>
<!-- ast.Store object at 0x7f58ed2f1fc0 -->
<g id="node7" class="node">
<title>ast.Store object at 0x7f58ed2f1fc0</title>
<path fill="#66cdaa" stroke="black" d="M676,-252C676,-252 646,-252 646,-252 640,-252 634,-246 634,-240 634,-240 634,-228 634,-228 634,-222 640,-216 646,-216 646,-216 676,-216 676,-216 682,-216 688,-222 688,-228 688,-228 688,-240 688,-240 688,-246 682,-252 676,-252"/>
<text text-anchor="middle" x="661" y="-230.3" font-family="Times,serif" font-size="14.00">Store</text>
</g>
<!-- ast.Name object at 0x7f58e88b3a30&#45;&gt;ast.Store object at 0x7f58ed2f1fc0 -->
<g id="edge6" class="edge">
<title>ast.Name object at 0x7f58e88b3a30&#45;&gt;ast.Store object at 0x7f58ed2f1fc0</title>
<path fill="none" stroke="black" d="M661,-287.7C661,-279.98 661,-270.71 661,-262.11"/>
<polygon fill="black" stroke="black" points="664.5,-262.1 661,-252.1 657.5,-262.1 664.5,-262.1"/>
</g>
<!-- ast.Load object at 0x7f58ed2f1f60 -->
<g id="node9" class="node">
<title>ast.Load object at 0x7f58ed2f1f60</title>
<path fill="#66cdaa" stroke="black" d="M406,-108C406,-108 376,-108 376,-108 370,-108 364,-102 364,-96 364,-96 364,-84 364,-84 364,-78 370,-72 376,-72 376,-72 406,-72 406,-72 412,-72 418,-78 418,-84 418,-84 418,-96 418,-96 418,-102 412,-108 406,-108"/>
<text text-anchor="middle" x="391" y="-86.3" font-family="Times,serif" font-size="14.00">Load</text>
</g>
<!-- ast.List object at 0x7f58e88b1ab0&#45;&gt;ast.Load object at 0x7f58ed2f1f60 -->
<g id="edge8" class="edge">
<title>ast.List object at 0x7f58e88b1ab0&#45;&gt;ast.Load object at 0x7f58ed2f1f60</title>
<path fill="none" stroke="black" d="M583.68,-147.54C580.78,-146.28 577.85,-145.07 575,-144 525.25,-125.23 465.83,-109.22 428.25,-99.85"/>
<polygon fill="black" stroke="black" points="428.81,-96.39 418.26,-97.39 427.13,-103.18 428.81,-96.39"/>
</g>
<!-- ast.Name object at 0x7f58e6c6eaa0 -->
<g id="node11" class="node">
<title>ast.Name object at 0x7f58e6c6eaa0</title>
<path fill="#66cdaa" stroke="black" d="M549,-396C549,-396 519,-396 519,-396 513,-396 507,-390 507,-384 507,-384 507,-372 507,-372 507,-366 513,-360 519,-360 519,-360 549,-360 549,-360 555,-360 561,-366 561,-372 561,-372 561,-384 561,-384 561,-390 555,-396 549,-396"/>
<text text-anchor="middle" x="534" y="-374.3" font-family="Times,serif" font-size="14.00">Name</text>
</g>
<!-- ast.For object at 0x7f58e88b3490&#45;&gt;ast.Name object at 0x7f58e6c6eaa0 -->
<g id="edge10" class="edge">
<title>ast.For object at 0x7f58e88b3490&#45;&gt;ast.Name object at 0x7f58e6c6eaa0</title>
<path fill="none" stroke="black" d="M425.19,-435C446.04,-424.27 475.01,-409.36 497.81,-397.62"/>
<polygon fill="black" stroke="black" points="499.56,-400.66 506.85,-392.97 496.36,-394.44 499.56,-400.66"/>
</g>
<!-- ast.Call object at 0x7f58e6c6dba0 -->
<g id="node12" class="node">
<title>ast.Call object at 0x7f58e6c6dba0</title>
<path fill="#66cdaa" stroke="black" d="M192,-396C192,-396 162,-396 162,-396 156,-396 150,-390 150,-384 150,-384 150,-372 150,-372 150,-366 156,-360 162,-360 162,-360 192,-360 192,-360 198,-360 204,-366 204,-372 204,-372 204,-384 204,-384 204,-390 198,-396 192,-396"/>
<text text-anchor="middle" x="177" y="-374.3" font-family="Times,serif" font-size="14.00">Call</text>
</g>
<!-- ast.For object at 0x7f58e88b3490&#45;&gt;ast.Call object at 0x7f58e6c6dba0 -->
<g id="edge12" class="edge">
<title>ast.For object at 0x7f58e88b3490&#45;&gt;ast.Call object at 0x7f58e6c6dba0</title>
<path fill="none" stroke="black" d="M370.9,-440.42C331.55,-427.95 258.46,-404.8 214.13,-390.76"/>
<polygon fill="black" stroke="black" points="214.91,-387.34 204.32,-387.65 212.8,-394.01 214.91,-387.34"/>
</g>
<!-- ast.Assign object at 0x7f58e6c6d000 -->
<g id="node15" class="node">
<title>ast.Assign object at 0x7f58e6c6d000</title>
<path fill="#66cdaa" stroke="black" d="M377,-396C377,-396 347,-396 347,-396 341,-396 335,-390 335,-384 335,-384 335,-372 335,-372 335,-366 341,-360 347,-360 347,-360 377,-360 377,-360 383,-360 389,-366 389,-372 389,-372 389,-384 389,-384 389,-390 383,-396 377,-396"/>
<text text-anchor="middle" x="362" y="-374.3" font-family="Times,serif" font-size="14.00">Assign</text>
</g>
<!-- ast.For object at 0x7f58e88b3490&#45;&gt;ast.Assign object at 0x7f58e6c6d000 -->
<g id="edge16" class="edge">
<title>ast.For object at 0x7f58e88b3490&#45;&gt;ast.Assign object at 0x7f58e6c6d000</title>
<path fill="none" stroke="black" d="M389.1,-431.7C385,-423.73 380.05,-414.1 375.51,-405.26"/>
<polygon fill="black" stroke="black" points="378.48,-403.4 370.8,-396.1 372.26,-406.6 378.48,-403.4"/>
</g>
<!-- ast.Expr object at 0x7f58e6c6d3c0 -->
<g id="node22" class="node">
<title>ast.Expr object at 0x7f58e6c6d3c0</title>
<path fill="#66cdaa" stroke="black" d="M291,-396C291,-396 261,-396 261,-396 255,-396 249,-390 249,-384 249,-384 249,-372 249,-372 249,-366 255,-360 261,-360 261,-360 291,-360 291,-360 297,-360 303,-366 303,-372 303,-372 303,-384 303,-384 303,-390 297,-396 291,-396"/>
<text text-anchor="middle" x="276" y="-374.3" font-family="Times,serif" font-size="14.00">Expr</text>
</g>
<!-- ast.For object at 0x7f58e88b3490&#45;&gt;ast.Expr object at 0x7f58e6c6d3c0 -->
<g id="edge27" class="edge">
<title>ast.For object at 0x7f58e88b3490&#45;&gt;ast.Expr object at 0x7f58e6c6d3c0</title>
<path fill="none" stroke="black" d="M370.92,-433.46C353.55,-423.5 330.79,-410.44 311.91,-399.61"/>
<polygon fill="black" stroke="black" points="313.42,-396.43 303,-394.49 309.93,-402.5 313.42,-396.43"/>
</g>
<!-- ast.Assign object at 0x7f58e6c6f850 -->
<g id="node27" class="node">
<title>ast.Assign object at 0x7f58e6c6f850</title>
<path fill="#66cdaa" stroke="black" d="M449,-396C449,-396 419,-396 419,-396 413,-396 407,-390 407,-384 407,-384 407,-372 407,-372 407,-366 413,-360 419,-360 419,-360 449,-360 449,-360 455,-360 461,-366 461,-372 461,-372 461,-384 461,-384 461,-390 455,-396 449,-396"/>
<text text-anchor="middle" x="434" y="-374.3" font-family="Times,serif" font-size="14.00">Assign</text>
</g>
<!-- ast.For object at 0x7f58e88b3490&#45;&gt;ast.Assign object at 0x7f58e6c6f850 -->
<g id="edge35" class="edge">
<title>ast.For object at 0x7f58e88b3490&#45;&gt;ast.Assign object at 0x7f58e6c6f850</title>
<path fill="none" stroke="black" d="M406.9,-431.7C411,-423.73 415.95,-414.1 420.49,-405.26"/>
<polygon fill="black" stroke="black" points="423.74,-406.6 425.2,-396.1 417.52,-403.4 423.74,-406.6"/>
</g>
<!-- ast.Name object at 0x7f58e6c6eaa0&#45;&gt;ast.Store object at 0x7f58ed2f1fc0 -->
<g id="edge11" class="edge">
<title>ast.Name object at 0x7f58e6c6eaa0&#45;&gt;ast.Store object at 0x7f58ed2f1fc0</title>
<path fill="none" stroke="black" d="M552.08,-359.73C562.52,-349.56 575.77,-336.31 587,-324 606.14,-303.02 626.71,-278.07 641.29,-259.94"/>
<polygon fill="black" stroke="black" points="644.02,-262.12 647.54,-252.12 638.56,-257.74 644.02,-262.12"/>
</g>
<!-- ast.Name object at 0x7f58e6c6cfa0 -->
<g id="node13" class="node">
<title>ast.Name object at 0x7f58e6c6cfa0</title>
<path fill="#66cdaa" stroke="black" d="M42,-180C42,-180 12,-180 12,-180 6,-180 0,-174 0,-168 0,-168 0,-156 0,-156 0,-150 6,-144 12,-144 12,-144 42,-144 42,-144 48,-144 54,-150 54,-156 54,-156 54,-168 54,-168 54,-174 48,-180 42,-180"/>
<text text-anchor="middle" x="27" y="-158.3" font-family="Times,serif" font-size="14.00">Name</text>
</g>
<!-- ast.Call object at 0x7f58e6c6dba0&#45;&gt;ast.Name object at 0x7f58e6c6cfa0 -->
<g id="edge13" class="edge">
<title>ast.Call object at 0x7f58e6c6dba0&#45;&gt;ast.Name object at 0x7f58e6c6cfa0</title>
<path fill="none" stroke="black" d="M149.91,-362.08C128.96,-350.11 102.19,-333.75 94,-324 60.3,-283.87 41.54,-224.4 32.93,-190.09"/>
<polygon fill="black" stroke="black" points="36.31,-189.21 30.57,-180.3 29.51,-190.84 36.31,-189.21"/>
</g>
<!-- ast.Constant object at 0x7f58e6c6cee0 -->
<g id="node14" class="node">
<title>ast.Constant object at 0x7f58e6c6cee0</title>
<path fill="#66cdaa" stroke="black" d="M156.5,-324C156.5,-324 115.5,-324 115.5,-324 109.5,-324 103.5,-318 103.5,-312 103.5,-312 103.5,-300 103.5,-300 103.5,-294 109.5,-288 115.5,-288 115.5,-288 156.5,-288 156.5,-288 162.5,-288 168.5,-294 168.5,-300 168.5,-300 168.5,-312 168.5,-312 168.5,-318 162.5,-324 156.5,-324"/>
<text text-anchor="middle" x="136" y="-302.3" font-family="Times,serif" font-size="14.00">Constant</text>
</g>
<!-- ast.Call object at 0x7f58e6c6dba0&#45;&gt;ast.Constant object at 0x7f58e6c6cee0 -->
<g id="edge15" class="edge">
<title>ast.Call object at 0x7f58e6c6dba0&#45;&gt;ast.Constant object at 0x7f58e6c6cee0</title>
<path fill="none" stroke="black" d="M166.87,-359.7C162.15,-351.64 156.44,-341.89 151.22,-332.98"/>
<polygon fill="black" stroke="black" points="154.09,-330.96 146.02,-324.1 148.05,-334.5 154.09,-330.96"/>
</g>
<!-- ast.Name object at 0x7f58e6c6cfa0&#45;&gt;ast.Load object at 0x7f58ed2f1f60 -->
<g id="edge14" class="edge">
<title>ast.Name object at 0x7f58e6c6cfa0&#45;&gt;ast.Load object at 0x7f58ed2f1f60</title>
<path fill="none" stroke="black" d="M54.2,-147.19C57.13,-145.99 60.1,-144.9 63,-144 165.34,-112.26 291.86,-98.68 353.58,-93.61"/>
<polygon fill="black" stroke="black" points="353.93,-97.1 363.63,-92.82 353.38,-90.12 353.93,-97.1"/>
</g>
<!-- ast.Name object at 0x7f58e6c6c6a0 -->
<g id="node16" class="node">
<title>ast.Name object at 0x7f58e6c6c6a0</title>
<path fill="#66cdaa" stroke="black" d="M494,-324C494,-324 464,-324 464,-324 458,-324 452,-318 452,-312 452,-312 452,-300 452,-300 452,-294 458,-288 464,-288 464,-288 494,-288 494,-288 500,-288 506,-294 506,-300 506,-300 506,-312 506,-312 506,-318 500,-324 494,-324"/>
<text text-anchor="middle" x="479" y="-302.3" font-family="Times,serif" font-size="14.00">Name</text>
</g>
<!-- ast.Assign object at 0x7f58e6c6d000&#45;&gt;ast.Name object at 0x7f58e6c6c6a0 -->
<g id="edge17" class="edge">
<title>ast.Assign object at 0x7f58e6c6d000&#45;&gt;ast.Name object at 0x7f58e6c6c6a0</title>
<path fill="none" stroke="black" d="M389.14,-360.76C405.12,-351.2 425.53,-338.99 442.86,-328.62"/>
<polygon fill="black" stroke="black" points="444.82,-331.53 451.61,-323.39 441.23,-325.52 444.82,-331.53"/>
</g>
<!-- ast.Call object at 0x7f58e6c6ce80 -->
<g id="node17" class="node">
<title>ast.Call object at 0x7f58e6c6ce80</title>
<path fill="#66cdaa" stroke="black" d="M336,-324C336,-324 306,-324 306,-324 300,-324 294,-318 294,-312 294,-312 294,-300 294,-300 294,-294 300,-288 306,-288 306,-288 336,-288 336,-288 342,-288 348,-294 348,-300 348,-300 348,-312 348,-312 348,-318 342,-324 336,-324"/>
<text text-anchor="middle" x="321" y="-302.3" font-family="Times,serif" font-size="14.00">Call</text>
</g>
<!-- ast.Assign object at 0x7f58e6c6d000&#45;&gt;ast.Call object at 0x7f58e6c6ce80 -->
<g id="edge19" class="edge">
<title>ast.Assign object at 0x7f58e6c6d000&#45;&gt;ast.Call object at 0x7f58e6c6ce80</title>
<path fill="none" stroke="black" d="M351.87,-359.7C347.15,-351.64 341.44,-341.89 336.22,-332.98"/>
<polygon fill="black" stroke="black" points="339.09,-330.96 331.02,-324.1 333.05,-334.5 339.09,-330.96"/>
</g>
<!-- ast.Name object at 0x7f58e6c6c6a0&#45;&gt;ast.Store object at 0x7f58ed2f1fc0 -->
<g id="edge18" class="edge">
<title>ast.Name object at 0x7f58e6c6c6a0&#45;&gt;ast.Store object at 0x7f58ed2f1fc0</title>
<path fill="none" stroke="black" d="M506.36,-291.66C509.26,-290.37 512.18,-289.13 515,-288 562.38,-269.07 576.52,-270.68 624,-252 624.1,-251.96 624.2,-251.92 624.3,-251.88"/>
<polygon fill="black" stroke="black" points="625.79,-255.05 633.67,-247.97 623.09,-248.59 625.79,-255.05"/>
</g>
<!-- ast.Name object at 0x7f58e6c6f3d0 -->
<g id="node18" class="node">
<title>ast.Name object at 0x7f58e6c6f3d0</title>
<path fill="#66cdaa" stroke="black" d="M406,-180C406,-180 376,-180 376,-180 370,-180 364,-174 364,-168 364,-168 364,-156 364,-156 364,-150 370,-144 376,-144 376,-144 406,-144 406,-144 412,-144 418,-150 418,-156 418,-156 418,-168 418,-168 418,-174 412,-180 406,-180"/>
<text text-anchor="middle" x="391" y="-158.3" font-family="Times,serif" font-size="14.00">Name</text>
</g>
<!-- ast.Call object at 0x7f58e6c6ce80&#45;&gt;ast.Name object at 0x7f58e6c6f3d0 -->
<g id="edge20" class="edge">
<title>ast.Call object at 0x7f58e6c6ce80&#45;&gt;ast.Name object at 0x7f58e6c6f3d0</title>
<path fill="none" stroke="black" d="M329.85,-287.86C335.16,-277.5 342.03,-264.03 348,-252 358.43,-230.99 369.98,-207.04 378.48,-189.28"/>
<polygon fill="black" stroke="black" points="381.71,-190.65 382.86,-180.11 375.39,-187.63 381.71,-190.65"/>
</g>
<!-- ast.Name object at 0x7f58e6c6d5a0 -->
<g id="node19" class="node">
<title>ast.Name object at 0x7f58e6c6d5a0</title>
<path fill="#66cdaa" stroke="black" d="M262,-180C262,-180 232,-180 232,-180 226,-180 220,-174 220,-168 220,-168 220,-156 220,-156 220,-150 226,-144 232,-144 232,-144 262,-144 262,-144 268,-144 274,-150 274,-156 274,-156 274,-168 274,-168 274,-174 268,-180 262,-180"/>
<text text-anchor="middle" x="247" y="-158.3" font-family="Times,serif" font-size="14.00">Name</text>
</g>
<!-- ast.Call object at 0x7f58e6c6ce80&#45;&gt;ast.Name object at 0x7f58e6c6d5a0 -->
<g id="edge22" class="edge">
<title>ast.Call object at 0x7f58e6c6ce80&#45;&gt;ast.Name object at 0x7f58e6c6d5a0</title>
<path fill="none" stroke="black" d="M297.47,-287.8C286.3,-278.42 273.73,-265.91 266,-252 255.42,-232.95 250.72,-208.59 248.64,-190.18"/>
<polygon fill="black" stroke="black" points="252.12,-189.73 247.7,-180.1 245.15,-190.39 252.12,-189.73"/>
</g>
<!-- ast.keyword object at 0x7f58e6c6f3a0 -->
<g id="node20" class="node">
<title>ast.keyword object at 0x7f58e6c6f3a0</title>
<path fill="#66cdaa" stroke="black" d="M327,-252C327,-252 287,-252 287,-252 281,-252 275,-246 275,-240 275,-240 275,-228 275,-228 275,-222 281,-216 287,-216 287,-216 327,-216 327,-216 333,-216 339,-222 339,-228 339,-228 339,-240 339,-240 339,-246 333,-252 327,-252"/>
<text text-anchor="middle" x="307" y="-230.3" font-family="Times,serif" font-size="14.00">keyword</text>
</g>
<!-- ast.Call object at 0x7f58e6c6ce80&#45;&gt;ast.keyword object at 0x7f58e6c6f3a0 -->
<g id="edge24" class="edge">
<title>ast.Call object at 0x7f58e6c6ce80&#45;&gt;ast.keyword object at 0x7f58e6c6f3a0</title>
<path fill="none" stroke="black" d="M317.54,-287.7C316,-279.98 314.14,-270.71 312.42,-262.11"/>
<polygon fill="black" stroke="black" points="315.81,-261.22 310.42,-252.1 308.95,-262.6 315.81,-261.22"/>
</g>
<!-- ast.Name object at 0x7f58e6c6f3d0&#45;&gt;ast.Load object at 0x7f58ed2f1f60 -->
<g id="edge21" class="edge">
<title>ast.Name object at 0x7f58e6c6f3d0&#45;&gt;ast.Load object at 0x7f58ed2f1f60</title>
<path fill="none" stroke="black" d="M391,-143.7C391,-135.98 391,-126.71 391,-118.11"/>
<polygon fill="black" stroke="black" points="394.5,-118.1 391,-108.1 387.5,-118.1 394.5,-118.1"/>
</g>
<!-- ast.Name object at 0x7f58e6c6d5a0&#45;&gt;ast.Load object at 0x7f58ed2f1f60 -->
<g id="edge23" class="edge">
<title>ast.Name object at 0x7f58e6c6d5a0&#45;&gt;ast.Load object at 0x7f58ed2f1f60</title>
<path fill="none" stroke="black" d="M274.09,-147.83C296.77,-136.81 329.36,-120.97 354.37,-108.81"/>
<polygon fill="black" stroke="black" points="356.08,-111.87 363.55,-104.35 353.02,-105.57 356.08,-111.87"/>
</g>
<!-- ast.Name object at 0x7f58e6c6c430 -->
<g id="node21" class="node">
<title>ast.Name object at 0x7f58e6c6c430</title>
<path fill="#66cdaa" stroke="black" d="M334,-180C334,-180 304,-180 304,-180 298,-180 292,-174 292,-168 292,-168 292,-156 292,-156 292,-150 298,-144 304,-144 304,-144 334,-144 334,-144 340,-144 346,-150 346,-156 346,-156 346,-168 346,-168 346,-174 340,-180 334,-180"/>
<text text-anchor="middle" x="319" y="-158.3" font-family="Times,serif" font-size="14.00">Name</text>
</g>
<!-- ast.keyword object at 0x7f58e6c6f3a0&#45;&gt;ast.Name object at 0x7f58e6c6c430 -->
<g id="edge25" class="edge">
<title>ast.keyword object at 0x7f58e6c6f3a0&#45;&gt;ast.Name object at 0x7f58e6c6c430</title>
<path fill="none" stroke="black" d="M309.97,-215.7C311.29,-207.98 312.88,-198.71 314.35,-190.11"/>
<polygon fill="black" stroke="black" points="317.83,-190.55 316.07,-180.1 310.93,-189.37 317.83,-190.55"/>
</g>
<!-- ast.Name object at 0x7f58e6c6c430&#45;&gt;ast.Load object at 0x7f58ed2f1f60 -->
<g id="edge26" class="edge">
<title>ast.Name object at 0x7f58e6c6c430&#45;&gt;ast.Load object at 0x7f58ed2f1f60</title>
<path fill="none" stroke="black" d="M336.8,-143.7C345.6,-135.14 356.38,-124.66 366,-115.3"/>
<polygon fill="black" stroke="black" points="368.68,-117.58 373.41,-108.1 363.8,-112.57 368.68,-117.58"/>
</g>
<!-- ast.Call object at 0x7f58e6c6f400 -->
<g id="node23" class="node">
<title>ast.Call object at 0x7f58e6c6f400</title>
<path fill="#66cdaa" stroke="black" d="M229,-324C229,-324 199,-324 199,-324 193,-324 187,-318 187,-312 187,-312 187,-300 187,-300 187,-294 193,-288 199,-288 199,-288 229,-288 229,-288 235,-288 241,-294 241,-300 241,-300 241,-312 241,-312 241,-318 235,-324 229,-324"/>
<text text-anchor="middle" x="214" y="-302.3" font-family="Times,serif" font-size="14.00">Call</text>
</g>
<!-- ast.Expr object at 0x7f58e6c6d3c0&#45;&gt;ast.Call object at 0x7f58e6c6f400 -->
<g id="edge28" class="edge">
<title>ast.Expr object at 0x7f58e6c6d3c0&#45;&gt;ast.Call object at 0x7f58e6c6f400</title>
<path fill="none" stroke="black" d="M260.67,-359.7C253.24,-351.3 244.18,-341.07 236.02,-331.86"/>
<polygon fill="black" stroke="black" points="238.4,-329.27 229.15,-324.1 233.16,-333.91 238.4,-329.27"/>
</g>
<!-- ast.Attribute object at 0x7f58e6c6e7a0 -->
<g id="node24" class="node">
<title>ast.Attribute object at 0x7f58e6c6e7a0</title>
<path fill="#66cdaa" stroke="black" d="M134.5,-252C134.5,-252 93.5,-252 93.5,-252 87.5,-252 81.5,-246 81.5,-240 81.5,-240 81.5,-228 81.5,-228 81.5,-222 87.5,-216 93.5,-216 93.5,-216 134.5,-216 134.5,-216 140.5,-216 146.5,-222 146.5,-228 146.5,-228 146.5,-240 146.5,-240 146.5,-246 140.5,-252 134.5,-252"/>
<text text-anchor="middle" x="114" y="-230.3" font-family="Times,serif" font-size="14.00">Attribute</text>
</g>
<!-- ast.Call object at 0x7f58e6c6f400&#45;&gt;ast.Attribute object at 0x7f58e6c6e7a0 -->
<g id="edge29" class="edge">
<title>ast.Call object at 0x7f58e6c6f400&#45;&gt;ast.Attribute object at 0x7f58e6c6e7a0</title>
<path fill="none" stroke="black" d="M189.54,-287.88C176.7,-278.89 160.8,-267.76 146.91,-258.03"/>
<polygon fill="black" stroke="black" points="148.76,-255.06 138.56,-252.19 144.74,-260.79 148.76,-255.06"/>
</g>
<!-- ast.Name object at 0x7f58e6c6fe80 -->
<g id="node26" class="node">
<title>ast.Name object at 0x7f58e6c6fe80</title>
<path fill="#66cdaa" stroke="black" d="M207,-252C207,-252 177,-252 177,-252 171,-252 165,-246 165,-240 165,-240 165,-228 165,-228 165,-222 171,-216 177,-216 177,-216 207,-216 207,-216 213,-216 219,-222 219,-228 219,-228 219,-240 219,-240 219,-246 213,-252 207,-252"/>
<text text-anchor="middle" x="192" y="-230.3" font-family="Times,serif" font-size="14.00">Name</text>
</g>
<!-- ast.Call object at 0x7f58e6c6f400&#45;&gt;ast.Name object at 0x7f58e6c6fe80 -->
<g id="edge33" class="edge">
<title>ast.Call object at 0x7f58e6c6f400&#45;&gt;ast.Name object at 0x7f58e6c6fe80</title>
<path fill="none" stroke="black" d="M208.56,-287.7C206.11,-279.9 203.16,-270.51 200.43,-261.83"/>
<polygon fill="black" stroke="black" points="203.71,-260.59 197.38,-252.1 197.04,-262.69 203.71,-260.59"/>
</g>
<!-- ast.Attribute object at 0x7f58e6c6e7a0&#45;&gt;ast.Load object at 0x7f58ed2f1f60 -->
<g id="edge32" class="edge">
<title>ast.Attribute object at 0x7f58e6c6e7a0&#45;&gt;ast.Load object at 0x7f58ed2f1f60</title>
<path fill="none" stroke="black" d="M124.26,-215.85C137.25,-195.61 161.54,-162.4 191,-144 241.84,-112.25 311.37,-99.37 353.63,-94.25"/>
<polygon fill="black" stroke="black" points="354.21,-97.71 363.76,-93.11 353.43,-90.75 354.21,-97.71"/>
</g>
<!-- ast.Name object at 0x7f58e6c6e530 -->
<g id="node25" class="node">
<title>ast.Name object at 0x7f58e6c6e530</title>
<path fill="#66cdaa" stroke="black" d="M114,-180C114,-180 84,-180 84,-180 78,-180 72,-174 72,-168 72,-168 72,-156 72,-156 72,-150 78,-144 84,-144 84,-144 114,-144 114,-144 120,-144 126,-150 126,-156 126,-156 126,-168 126,-168 126,-174 120,-180 114,-180"/>
<text text-anchor="middle" x="99" y="-158.3" font-family="Times,serif" font-size="14.00">Name</text>
</g>
<!-- ast.Attribute object at 0x7f58e6c6e7a0&#45;&gt;ast.Name object at 0x7f58e6c6e530 -->
<g id="edge30" class="edge">
<title>ast.Attribute object at 0x7f58e6c6e7a0&#45;&gt;ast.Name object at 0x7f58e6c6e530</title>
<path fill="none" stroke="black" d="M110.29,-215.7C108.64,-207.98 106.65,-198.71 104.81,-190.11"/>
<polygon fill="black" stroke="black" points="108.18,-189.15 102.67,-180.1 101.34,-190.62 108.18,-189.15"/>
</g>
<!-- ast.Name object at 0x7f58e6c6e530&#45;&gt;ast.Load object at 0x7f58ed2f1f60 -->
<g id="edge31" class="edge">
<title>ast.Name object at 0x7f58e6c6e530&#45;&gt;ast.Load object at 0x7f58ed2f1f60</title>
<path fill="none" stroke="black" d="M126.09,-148.95C130.68,-147.14 135.44,-145.41 140,-144 214.47,-120.92 304.45,-104.62 353.92,-96.62"/>
<polygon fill="black" stroke="black" points="354.51,-100.07 363.84,-95.04 353.41,-93.16 354.51,-100.07"/>
</g>
<!-- ast.Name object at 0x7f58e6c6fe80&#45;&gt;ast.Load object at 0x7f58ed2f1f60 -->
<g id="edge34" class="edge">
<title>ast.Name object at 0x7f58e6c6fe80&#45;&gt;ast.Load object at 0x7f58ed2f1f60</title>
<path fill="none" stroke="black" d="M190.8,-215.94C190.38,-196.1 192.85,-163.58 211,-144 247.77,-104.33 312.57,-93.82 353.56,-91.34"/>
<polygon fill="black" stroke="black" points="353.87,-94.83 363.7,-90.86 353.54,-87.83 353.87,-94.83"/>
</g>
<!-- ast.Name object at 0x7f58e6c6e650 -->
<g id="node28" class="node">
<title>ast.Name object at 0x7f58e6c6e650</title>
<path fill="#66cdaa" stroke="black" d="M566,-324C566,-324 536,-324 536,-324 530,-324 524,-318 524,-312 524,-312 524,-300 524,-300 524,-294 530,-288 536,-288 536,-288 566,-288 566,-288 572,-288 578,-294 578,-300 578,-300 578,-312 578,-312 578,-318 572,-324 566,-324"/>
<text text-anchor="middle" x="551" y="-302.3" font-family="Times,serif" font-size="14.00">Name</text>
</g>
<!-- ast.Assign object at 0x7f58e6c6f850&#45;&gt;ast.Name object at 0x7f58e6c6e650 -->
<g id="edge36" class="edge">
<title>ast.Assign object at 0x7f58e6c6f850&#45;&gt;ast.Name object at 0x7f58e6c6e650</title>
<path fill="none" stroke="black" d="M461.14,-360.76C477.12,-351.2 497.53,-338.99 514.86,-328.62"/>
<polygon fill="black" stroke="black" points="516.82,-331.53 523.61,-323.39 513.23,-325.52 516.82,-331.53"/>
</g>
<!-- ast.Call object at 0x7f58e6c6ccd0 -->
<g id="node29" class="node">
<title>ast.Call object at 0x7f58e6c6ccd0</title>
<path fill="#66cdaa" stroke="black" d="M422,-324C422,-324 392,-324 392,-324 386,-324 380,-318 380,-312 380,-312 380,-300 380,-300 380,-294 386,-288 392,-288 392,-288 422,-288 422,-288 428,-288 434,-294 434,-300 434,-300 434,-312 434,-312 434,-318 428,-324 422,-324"/>
<text text-anchor="middle" x="407" y="-302.3" font-family="Times,serif" font-size="14.00">Call</text>
</g>
<!-- ast.Assign object at 0x7f58e6c6f850&#45;&gt;ast.Call object at 0x7f58e6c6ccd0 -->
<g id="edge38" class="edge">
<title>ast.Assign object at 0x7f58e6c6f850&#45;&gt;ast.Call object at 0x7f58e6c6ccd0</title>
<path fill="none" stroke="black" d="M427.33,-359.7C424.29,-351.81 420.62,-342.3 417.24,-333.55"/>
<polygon fill="black" stroke="black" points="420.46,-332.17 413.6,-324.1 413.93,-334.69 420.46,-332.17"/>
</g>
<!-- ast.Name object at 0x7f58e6c6e650&#45;&gt;ast.Store object at 0x7f58ed2f1fc0 -->
<g id="edge37" class="edge">
<title>ast.Name object at 0x7f58e6c6e650&#45;&gt;ast.Store object at 0x7f58ed2f1fc0</title>
<path fill="none" stroke="black" d="M577.91,-287.88C592.16,-278.81 609.85,-267.55 625.24,-257.76"/>
<polygon fill="black" stroke="black" points="627.43,-260.51 633.99,-252.19 623.67,-254.61 627.43,-260.51"/>
</g>
<!-- ast.Attribute object at 0x7f58e6c6eb30 -->
<g id="node30" class="node">
<title>ast.Attribute object at 0x7f58e6c6eb30</title>
<path fill="#66cdaa" stroke="black" d="M520.5,-252C520.5,-252 479.5,-252 479.5,-252 473.5,-252 467.5,-246 467.5,-240 467.5,-240 467.5,-228 467.5,-228 467.5,-222 473.5,-216 479.5,-216 479.5,-216 520.5,-216 520.5,-216 526.5,-216 532.5,-222 532.5,-228 532.5,-228 532.5,-240 532.5,-240 532.5,-246 526.5,-252 520.5,-252"/>
<text text-anchor="middle" x="500" y="-230.3" font-family="Times,serif" font-size="14.00">Attribute</text>
</g>
<!-- ast.Call object at 0x7f58e6c6ccd0&#45;&gt;ast.Attribute object at 0x7f58e6c6eb30 -->
<g id="edge39" class="edge">
<title>ast.Call object at 0x7f58e6c6ccd0&#45;&gt;ast.Attribute object at 0x7f58e6c6eb30</title>
<path fill="none" stroke="black" d="M429.99,-287.7C441.81,-278.8 456.39,-267.82 469.18,-258.2"/>
<polygon fill="black" stroke="black" points="471.39,-260.91 477.28,-252.1 467.18,-255.32 471.39,-260.91"/>
</g>
<!-- ast.Name object at 0x7f58e6c6cdf0 -->
<g id="node32" class="node">
<title>ast.Name object at 0x7f58e6c6cdf0</title>
<path fill="#66cdaa" stroke="black" d="M437,-252C437,-252 407,-252 407,-252 401,-252 395,-246 395,-240 395,-240 395,-228 395,-228 395,-222 401,-216 407,-216 407,-216 437,-216 437,-216 443,-216 449,-222 449,-228 449,-228 449,-240 449,-240 449,-246 443,-252 437,-252"/>
<text text-anchor="middle" x="422" y="-230.3" font-family="Times,serif" font-size="14.00">Name</text>
</g>
<!-- ast.Call object at 0x7f58e6c6ccd0&#45;&gt;ast.Name object at 0x7f58e6c6cdf0 -->
<g id="edge43" class="edge">
<title>ast.Call object at 0x7f58e6c6ccd0&#45;&gt;ast.Name object at 0x7f58e6c6cdf0</title>
<path fill="none" stroke="black" d="M410.71,-287.7C412.36,-279.98 414.35,-270.71 416.19,-262.11"/>
<polygon fill="black" stroke="black" points="419.66,-262.62 418.33,-252.1 412.82,-261.15 419.66,-262.62"/>
</g>
<!-- ast.Constant object at 0x7f58e6c6fe20 -->
<g id="node33" class="node">
<title>ast.Constant object at 0x7f58e6c6fe20</title>
<path fill="#66cdaa" stroke="black" d="M603.5,-252C603.5,-252 562.5,-252 562.5,-252 556.5,-252 550.5,-246 550.5,-240 550.5,-240 550.5,-228 550.5,-228 550.5,-222 556.5,-216 562.5,-216 562.5,-216 603.5,-216 603.5,-216 609.5,-216 615.5,-222 615.5,-228 615.5,-228 615.5,-240 615.5,-240 615.5,-246 609.5,-252 603.5,-252"/>
<text text-anchor="middle" x="583" y="-230.3" font-family="Times,serif" font-size="14.00">Constant</text>
</g>
<!-- ast.Call object at 0x7f58e6c6ccd0&#45;&gt;ast.Constant object at 0x7f58e6c6fe20 -->
<g id="edge45" class="edge">
<title>ast.Call object at 0x7f58e6c6ccd0&#45;&gt;ast.Constant object at 0x7f58e6c6fe20</title>
<path fill="none" stroke="black" d="M434.01,-291.93C437.03,-290.56 440.07,-289.23 443,-288 485.8,-270.08 497.71,-268.71 541,-252 541.1,-251.96 541.19,-251.93 541.29,-251.89"/>
<polygon fill="black" stroke="black" points="542.45,-255.19 550.48,-248.28 539.89,-248.68 542.45,-255.19"/>
</g>
<!-- ast.Attribute object at 0x7f58e6c6eb30&#45;&gt;ast.Load object at 0x7f58ed2f1f60 -->
<g id="edge42" class="edge">
<title>ast.Attribute object at 0x7f58e6c6eb30&#45;&gt;ast.Load object at 0x7f58ed2f1f60</title>
<path fill="none" stroke="black" d="M490.74,-215.85C480.4,-197.35 462.67,-167.4 444,-144 436.01,-133.99 426.33,-123.84 417.44,-115.14"/>
<polygon fill="black" stroke="black" points="419.85,-112.6 410.21,-108.21 415,-117.65 419.85,-112.6"/>
</g>
<!-- ast.Name object at 0x7f58e6c6c790 -->
<g id="node31" class="node">
<title>ast.Name object at 0x7f58e6c6c790</title>
<path fill="#66cdaa" stroke="black" d="M554,-180C554,-180 524,-180 524,-180 518,-180 512,-174 512,-168 512,-168 512,-156 512,-156 512,-150 518,-144 524,-144 524,-144 554,-144 554,-144 560,-144 566,-150 566,-156 566,-156 566,-168 566,-168 566,-174 560,-180 554,-180"/>
<text text-anchor="middle" x="539" y="-158.3" font-family="Times,serif" font-size="14.00">Name</text>
</g>
<!-- ast.Attribute object at 0x7f58e6c6eb30&#45;&gt;ast.Name object at 0x7f58e6c6c790 -->
<g id="edge40" class="edge">
<title>ast.Attribute object at 0x7f58e6c6eb30&#45;&gt;ast.Name object at 0x7f58e6c6c790</title>
<path fill="none" stroke="black" d="M509.64,-215.7C514.13,-207.64 519.56,-197.89 524.52,-188.98"/>
<polygon fill="black" stroke="black" points="527.66,-190.54 529.47,-180.1 521.55,-187.14 527.66,-190.54"/>
</g>
<!-- ast.Name object at 0x7f58e6c6c790&#45;&gt;ast.Load object at 0x7f58ed2f1f60 -->
<g id="edge41" class="edge">
<title>ast.Name object at 0x7f58e6c6c790&#45;&gt;ast.Load object at 0x7f58ed2f1f60</title>
<path fill="none" stroke="black" d="M511.85,-148.16C488.15,-136.95 453.54,-120.58 427.42,-108.23"/>
<polygon fill="black" stroke="black" points="428.76,-104.99 418.22,-103.88 425.77,-111.32 428.76,-104.99"/>
</g>
<!-- ast.Name object at 0x7f58e6c6cdf0&#45;&gt;ast.Load object at 0x7f58ed2f1f60 -->
<g id="edge44" class="edge">
<title>ast.Name object at 0x7f58e6c6cdf0&#45;&gt;ast.Load object at 0x7f58ed2f1f60</title>
<path fill="none" stroke="black" d="M426.44,-215.84C430.36,-197.6 434.41,-168.11 427,-144 423.99,-134.22 418.49,-124.62 412.68,-116.33"/>
<polygon fill="black" stroke="black" points="415.41,-114.13 406.61,-108.23 409.81,-118.33 415.41,-114.13"/>
</g>
<!-- ast.Subscript object at 0x7f58e6c6dc30 -->
<g id="node35" class="node">
<title>ast.Subscript object at 0x7f58e6c6dc30</title>
<path fill="#66cdaa" stroke="black" d="M800,-252C800,-252 756,-252 756,-252 750,-252 744,-246 744,-240 744,-240 744,-228 744,-228 744,-222 750,-216 756,-216 756,-216 800,-216 800,-216 806,-216 812,-222 812,-228 812,-228 812,-240 812,-240 812,-246 806,-252 800,-252"/>
<text text-anchor="middle" x="778" y="-230.3" font-family="Times,serif" font-size="14.00">Subscript</text>
</g>
<!-- ast.Return object at 0x7f58e6c6d6f0&#45;&gt;ast.Subscript object at 0x7f58e6c6dc30 -->
<g id="edge47" class="edge">
<title>ast.Return object at 0x7f58e6c6d6f0&#45;&gt;ast.Subscript object at 0x7f58e6c6dc30</title>
<path fill="none" stroke="black" d="M739.37,-431.85C746.65,-394.75 763.91,-306.81 772.68,-262.1"/>
<polygon fill="black" stroke="black" points="776.13,-262.72 774.62,-252.23 769.26,-261.37 776.13,-262.72"/>
</g>
<!-- ast.Subscript object at 0x7f58e6c6dc30&#45;&gt;ast.Load object at 0x7f58ed2f1f60 -->
<g id="edge54" class="edge">
<title>ast.Subscript object at 0x7f58e6c6dc30&#45;&gt;ast.Load object at 0x7f58ed2f1f60</title>
<path fill="none" stroke="black" d="M743.64,-215.97C725.55,-206.38 703.36,-193.62 685,-180 666.31,-166.14 667.62,-154.77 647,-144 575.49,-106.65 479.86,-95.62 428.09,-92.36"/>
<polygon fill="black" stroke="black" points="428.21,-88.86 418.03,-91.79 427.82,-95.85 428.21,-88.86"/>
</g>
<!-- ast.Name object at 0x7f58e6c6f2b0 -->
<g id="node36" class="node">
<title>ast.Name object at 0x7f58e6c6f2b0</title>
<path fill="#66cdaa" stroke="black" d="M736,-180C736,-180 706,-180 706,-180 700,-180 694,-174 694,-168 694,-168 694,-156 694,-156 694,-150 700,-144 706,-144 706,-144 736,-144 736,-144 742,-144 748,-150 748,-156 748,-156 748,-168 748,-168 748,-174 742,-180 736,-180"/>
<text text-anchor="middle" x="721" y="-158.3" font-family="Times,serif" font-size="14.00">Name</text>
</g>
<!-- ast.Subscript object at 0x7f58e6c6dc30&#45;&gt;ast.Name object at 0x7f58e6c6f2b0 -->
<g id="edge48" class="edge">
<title>ast.Subscript object at 0x7f58e6c6dc30&#45;&gt;ast.Name object at 0x7f58e6c6f2b0</title>
<path fill="none" stroke="black" d="M763.91,-215.7C757.08,-207.3 748.74,-197.07 741.24,-187.86"/>
<polygon fill="black" stroke="black" points="743.96,-185.65 734.93,-180.1 738.53,-190.07 743.96,-185.65"/>
</g>
<!-- ast.Slice object at 0x7f58e6c6cf10 -->
<g id="node37" class="node">
<title>ast.Slice object at 0x7f58e6c6cf10</title>
<path fill="#66cdaa" stroke="black" d="M808,-180C808,-180 778,-180 778,-180 772,-180 766,-174 766,-168 766,-168 766,-156 766,-156 766,-150 772,-144 778,-144 778,-144 808,-144 808,-144 814,-144 820,-150 820,-156 820,-156 820,-168 820,-168 820,-174 814,-180 808,-180"/>
<text text-anchor="middle" x="793" y="-158.3" font-family="Times,serif" font-size="14.00">Slice</text>
</g>
<!-- ast.Subscript object at 0x7f58e6c6dc30&#45;&gt;ast.Slice object at 0x7f58e6c6cf10 -->
<g id="edge50" class="edge">
<title>ast.Subscript object at 0x7f58e6c6dc30&#45;&gt;ast.Slice object at 0x7f58e6c6cf10</title>
<path fill="none" stroke="black" d="M781.71,-215.7C783.36,-207.98 785.35,-198.71 787.19,-190.11"/>
<polygon fill="black" stroke="black" points="790.66,-190.62 789.33,-180.1 783.82,-189.15 790.66,-190.62"/>
</g>
<!-- ast.Name object at 0x7f58e6c6f2b0&#45;&gt;ast.Load object at 0x7f58ed2f1f60 -->
<g id="edge49" class="edge">
<title>ast.Name object at 0x7f58e6c6f2b0&#45;&gt;ast.Load object at 0x7f58ed2f1f60</title>
<path fill="none" stroke="black" d="M693.94,-148.84C689.35,-147.05 684.58,-145.35 680,-144 591.53,-117.87 483.83,-102.21 428.22,-95.26"/>
<polygon fill="black" stroke="black" points="428.49,-91.77 418.14,-94.03 427.64,-98.72 428.49,-91.77"/>
</g>
<!-- ast.UnaryOp object at 0x7f58e6c6d120 -->
<g id="node38" class="node">
<title>ast.UnaryOp object at 0x7f58e6c6d120</title>
<path fill="#66cdaa" stroke="black" d="M814.5,-108C814.5,-108 771.5,-108 771.5,-108 765.5,-108 759.5,-102 759.5,-96 759.5,-96 759.5,-84 759.5,-84 759.5,-78 765.5,-72 771.5,-72 771.5,-72 814.5,-72 814.5,-72 820.5,-72 826.5,-78 826.5,-84 826.5,-84 826.5,-96 826.5,-96 826.5,-102 820.5,-108 814.5,-108"/>
<text text-anchor="middle" x="793" y="-86.3" font-family="Times,serif" font-size="14.00">UnaryOp</text>
</g>
<!-- ast.Slice object at 0x7f58e6c6cf10&#45;&gt;ast.UnaryOp object at 0x7f58e6c6d120 -->
<g id="edge51" class="edge">
<title>ast.Slice object at 0x7f58e6c6cf10&#45;&gt;ast.UnaryOp object at 0x7f58e6c6d120</title>
<path fill="none" stroke="black" d="M793,-143.7C793,-135.98 793,-126.71 793,-118.11"/>
<polygon fill="black" stroke="black" points="796.5,-118.1 793,-108.1 789.5,-118.1 796.5,-118.1"/>
</g>
<!-- ast.USub object at 0x7f58ed2f2800 -->
<g id="node39" class="node">
<title>ast.USub object at 0x7f58ed2f2800</title>
<path fill="#66cdaa" stroke="black" d="M769,-36C769,-36 739,-36 739,-36 733,-36 727,-30 727,-24 727,-24 727,-12 727,-12 727,-6 733,0 739,0 739,0 769,0 769,0 775,0 781,-6 781,-12 781,-12 781,-24 781,-24 781,-30 775,-36 769,-36"/>
<text text-anchor="middle" x="754" y="-14.3" font-family="Times,serif" font-size="14.00">USub</text>
</g>
<!-- ast.UnaryOp object at 0x7f58e6c6d120&#45;&gt;ast.USub object at 0x7f58ed2f2800 -->
<g id="edge52" class="edge">
<title>ast.UnaryOp object at 0x7f58e6c6d120&#45;&gt;ast.USub object at 0x7f58ed2f2800</title>
<path fill="none" stroke="black" d="M783.36,-71.7C778.87,-63.64 773.44,-53.89 768.48,-44.98"/>
<polygon fill="black" stroke="black" points="771.45,-43.14 763.53,-36.1 765.34,-46.54 771.45,-43.14"/>
</g>
<!-- ast.Constant object at 0x7f58e6c6ee90 -->
<g id="node40" class="node">
<title>ast.Constant object at 0x7f58e6c6ee90</title>
<path fill="#66cdaa" stroke="black" d="M852.5,-36C852.5,-36 811.5,-36 811.5,-36 805.5,-36 799.5,-30 799.5,-24 799.5,-24 799.5,-12 799.5,-12 799.5,-6 805.5,0 811.5,0 811.5,0 852.5,0 852.5,0 858.5,0 864.5,-6 864.5,-12 864.5,-12 864.5,-24 864.5,-24 864.5,-30 858.5,-36 852.5,-36"/>
<text text-anchor="middle" x="832" y="-14.3" font-family="Times,serif" font-size="14.00">Constant</text>
</g>
<!-- ast.UnaryOp object at 0x7f58e6c6d120&#45;&gt;ast.Constant object at 0x7f58e6c6ee90 -->
<g id="edge53" class="edge">
<title>ast.UnaryOp object at 0x7f58e6c6d120&#45;&gt;ast.Constant object at 0x7f58e6c6ee90</title>
<path fill="none" stroke="black" d="M802.64,-71.7C807.13,-63.64 812.56,-53.89 817.52,-44.98"/>
<polygon fill="black" stroke="black" points="820.66,-46.54 822.47,-36.1 814.55,-43.14 820.66,-46.54"/>
</g>
</g>
</svg>
