<?xml version="1.0" encoding="UTF-8" standalone="no"?>
<!DOCTYPE svg PUBLIC "-//W3C//DTD SVG 1.1//EN"
 "http://www.w3.org/Graphics/SVG/1.1/DTD/svg11.dtd">
<!-- Generated by graphviz version 2.43.0 (0)
 -->
<!-- Title: %3 Pages: 1 -->
<svg width="533pt" height="692pt"
 viewBox="0.00 0.00 532.50 692.00" xmlns="http://www.w3.org/2000/svg" xmlns:xlink="http://www.w3.org/1999/xlink">
<g id="graph0" class="graph" transform="scale(1 1) rotate(0) translate(4 688)">
<title>%3</title>
<polygon fill="white" stroke="transparent" points="-4,4 -4,-688 528.5,-688 528.5,4 -4,4"/>
<!-- ast.Module object at 0x7f839f5b8760 -->
<g id="node1" class="node">
<title>ast.Module object at 0x7f839f5b8760</title>
<path fill="#66cdaa" stroke="black" d="M95.5,-684C95.5,-684 60.5,-684 60.5,-684 54.5,-684 48.5,-678 48.5,-672 48.5,-672 48.5,-660 48.5,-660 48.5,-654 54.5,-648 60.5,-648 60.5,-648 95.5,-648 95.5,-648 101.5,-648 107.5,-654 107.5,-660 107.5,-660 107.5,-672 107.5,-672 107.5,-678 101.5,-684 95.5,-684"/>
<text text-anchor="middle" x="78" y="-662.3" font-family="Times,serif" font-size="14.00">Module</text>
</g>
<!-- ast.FunctionDef object at 0x7f839f5b84c0 -->
<g id="node2" class="node">
<title>ast.FunctionDef object at 0x7f839f5b84c0</title>
<path fill="#66cdaa" stroke="black" d="M108.5,-612C108.5,-612 47.5,-612 47.5,-612 41.5,-612 35.5,-606 35.5,-600 35.5,-600 35.5,-588 35.5,-588 35.5,-582 41.5,-576 47.5,-576 47.5,-576 108.5,-576 108.5,-576 114.5,-576 120.5,-582 120.5,-588 120.5,-588 120.5,-600 120.5,-600 120.5,-606 114.5,-612 108.5,-612"/>
<text text-anchor="middle" x="78" y="-590.3" font-family="Times,serif" font-size="14.00">FunctionDef</text>
</g>
<!-- ast.Module object at 0x7f839f5b8760&#45;&gt;ast.FunctionDef object at 0x7f839f5b84c0 -->
<g id="edge1" class="edge">
<title>ast.Module object at 0x7f839f5b8760&#45;&gt;ast.FunctionDef object at 0x7f839f5b84c0</title>
<path fill="none" stroke="black" d="M78,-647.7C78,-639.98 78,-630.71 78,-622.11"/>
<polygon fill="black" stroke="black" points="81.5,-622.1 78,-612.1 74.5,-622.1 81.5,-622.1"/>
</g>
<!-- ast.arguments object at 0x7f839f5b8880 -->
<g id="node3" class="node">
<title>ast.arguments object at 0x7f839f5b8880</title>
<path fill="#66cdaa" stroke="black" d="M62,-540C62,-540 12,-540 12,-540 6,-540 0,-534 0,-528 0,-528 0,-516 0,-516 0,-510 6,-504 12,-504 12,-504 62,-504 62,-504 68,-504 74,-510 74,-516 74,-516 74,-528 74,-528 74,-534 68,-540 62,-540"/>
<text text-anchor="middle" x="37" y="-518.3" font-family="Times,serif" font-size="14.00">arguments</text>
</g>
<!-- ast.FunctionDef object at 0x7f839f5b84c0&#45;&gt;ast.arguments object at 0x7f839f5b8880 -->
<g id="edge2" class="edge">
<title>ast.FunctionDef object at 0x7f839f5b84c0&#45;&gt;ast.arguments object at 0x7f839f5b8880</title>
<path fill="none" stroke="black" d="M67.87,-575.7C63.15,-567.64 57.44,-557.89 52.22,-548.98"/>
<polygon fill="black" stroke="black" points="55.09,-546.96 47.02,-540.1 49.05,-550.5 55.09,-546.96"/>
</g>
<!-- ast.Return object at 0x7f839f5b8550 -->
<g id="node5" class="node">
<title>ast.Return object at 0x7f839f5b8550</title>
<path fill="#66cdaa" stroke="black" d="M134,-540C134,-540 104,-540 104,-540 98,-540 92,-534 92,-528 92,-528 92,-516 92,-516 92,-510 98,-504 104,-504 104,-504 134,-504 134,-504 140,-504 146,-510 146,-516 146,-516 146,-528 146,-528 146,-534 140,-540 134,-540"/>
<text text-anchor="middle" x="119" y="-518.3" font-family="Times,serif" font-size="14.00">Return</text>
</g>
<!-- ast.FunctionDef object at 0x7f839f5b84c0&#45;&gt;ast.Return object at 0x7f839f5b8550 -->
<g id="edge4" class="edge">
<title>ast.FunctionDef object at 0x7f839f5b84c0&#45;&gt;ast.Return object at 0x7f839f5b8550</title>
<path fill="none" stroke="black" d="M88.13,-575.7C92.85,-567.64 98.56,-557.89 103.78,-548.98"/>
<polygon fill="black" stroke="black" points="106.95,-550.5 108.98,-540.1 100.91,-546.96 106.95,-550.5"/>
</g>
<!-- ast.arg object at 0x7f839f5b84f0 -->
<g id="node4" class="node">
<title>ast.arg object at 0x7f839f5b84f0</title>
<path fill="#66cdaa" stroke="black" d="M52,-468C52,-468 22,-468 22,-468 16,-468 10,-462 10,-456 10,-456 10,-444 10,-444 10,-438 16,-432 22,-432 22,-432 52,-432 52,-432 58,-432 64,-438 64,-444 64,-444 64,-456 64,-456 64,-462 58,-468 52,-468"/>
<text text-anchor="middle" x="37" y="-446.3" font-family="Times,serif" font-size="14.00">arg</text>
</g>
<!-- ast.arguments object at 0x7f839f5b8880&#45;&gt;ast.arg object at 0x7f839f5b84f0 -->
<g id="edge3" class="edge">
<title>ast.arguments object at 0x7f839f5b8880&#45;&gt;ast.arg object at 0x7f839f5b84f0</title>
<path fill="none" stroke="black" d="M37,-503.7C37,-495.98 37,-486.71 37,-478.11"/>
<polygon fill="black" stroke="black" points="40.5,-478.1 37,-468.1 33.5,-478.1 40.5,-478.1"/>
</g>
<!-- ast.ListComp object at 0x7f839f5b88e0 -->
<g id="node6" class="node">
<title>ast.ListComp object at 0x7f839f5b88e0</title>
<path fill="#66cdaa" stroke="black" d="M142.5,-468C142.5,-468 95.5,-468 95.5,-468 89.5,-468 83.5,-462 83.5,-456 83.5,-456 83.5,-444 83.5,-444 83.5,-438 89.5,-432 95.5,-432 95.5,-432 142.5,-432 142.5,-432 148.5,-432 154.5,-438 154.5,-444 154.5,-444 154.5,-456 154.5,-456 154.5,-462 148.5,-468 142.5,-468"/>
<text text-anchor="middle" x="119" y="-446.3" font-family="Times,serif" font-size="14.00">ListComp</text>
</g>
<!-- ast.Return object at 0x7f839f5b8550&#45;&gt;ast.ListComp object at 0x7f839f5b88e0 -->
<g id="edge5" class="edge">
<title>ast.Return object at 0x7f839f5b8550&#45;&gt;ast.ListComp object at 0x7f839f5b88e0</title>
<path fill="none" stroke="black" d="M119,-503.7C119,-495.98 119,-486.71 119,-478.11"/>
<polygon fill="black" stroke="black" points="122.5,-478.1 119,-468.1 115.5,-478.1 122.5,-478.1"/>
</g>
<!-- ast.Name object at 0x7f839f5b8910 -->
<g id="node7" class="node">
<title>ast.Name object at 0x7f839f5b8910</title>
<path fill="#66cdaa" stroke="black" d="M82,-396C82,-396 52,-396 52,-396 46,-396 40,-390 40,-384 40,-384 40,-372 40,-372 40,-366 46,-360 52,-360 52,-360 82,-360 82,-360 88,-360 94,-366 94,-372 94,-372 94,-384 94,-384 94,-390 88,-396 82,-396"/>
<text text-anchor="middle" x="67" y="-374.3" font-family="Times,serif" font-size="14.00">Name</text>
</g>
<!-- ast.ListComp object at 0x7f839f5b88e0&#45;&gt;ast.Name object at 0x7f839f5b8910 -->
<g id="edge6" class="edge">
<title>ast.ListComp object at 0x7f839f5b88e0&#45;&gt;ast.Name object at 0x7f839f5b8910</title>
<path fill="none" stroke="black" d="M106.15,-431.7C99.97,-423.39 92.46,-413.28 85.68,-404.14"/>
<polygon fill="black" stroke="black" points="88.48,-402.04 79.71,-396.1 82.86,-406.22 88.48,-402.04"/>
</g>
<!-- ast.comprehension object at 0x7f839f5b86a0 -->
<g id="node9" class="node">
<title>ast.comprehension object at 0x7f839f5b86a0</title>
<path fill="#66cdaa" stroke="black" d="M210,-396C210,-396 134,-396 134,-396 128,-396 122,-390 122,-384 122,-384 122,-372 122,-372 122,-366 128,-360 134,-360 134,-360 210,-360 210,-360 216,-360 222,-366 222,-372 222,-372 222,-384 222,-384 222,-390 216,-396 210,-396"/>
<text text-anchor="middle" x="172" y="-374.3" font-family="Times,serif" font-size="14.00">comprehension</text>
</g>
<!-- ast.ListComp object at 0x7f839f5b88e0&#45;&gt;ast.comprehension object at 0x7f839f5b86a0 -->
<g id="edge8" class="edge">
<title>ast.ListComp object at 0x7f839f5b88e0&#45;&gt;ast.comprehension object at 0x7f839f5b86a0</title>
<path fill="none" stroke="black" d="M132.1,-431.7C138.39,-423.39 146.05,-413.28 152.96,-404.14"/>
<polygon fill="black" stroke="black" points="155.8,-406.19 159.05,-396.1 150.22,-401.96 155.8,-406.19"/>
</g>
<!-- ast.Load object at 0x7f84471edf90 -->
<g id="node8" class="node">
<title>ast.Load object at 0x7f84471edf90</title>
<path fill="#66cdaa" stroke="black" d="M141,-108C141,-108 111,-108 111,-108 105,-108 99,-102 99,-96 99,-96 99,-84 99,-84 99,-78 105,-72 111,-72 111,-72 141,-72 141,-72 147,-72 153,-78 153,-84 153,-84 153,-96 153,-96 153,-102 147,-108 141,-108"/>
<text text-anchor="middle" x="126" y="-86.3" font-family="Times,serif" font-size="14.00">Load</text>
</g>
<!-- ast.Name object at 0x7f839f5b8910&#45;&gt;ast.Load object at 0x7f84471edf90 -->
<g id="edge7" class="edge">
<title>ast.Name object at 0x7f839f5b8910&#45;&gt;ast.Load object at 0x7f84471edf90</title>
<path fill="none" stroke="black" d="M64.88,-359.88C61.69,-330.23 57,-267.59 67,-216 74.09,-179.44 94.26,-141.28 109.05,-116.88"/>
<polygon fill="black" stroke="black" points="112.12,-118.58 114.42,-108.24 106.17,-114.89 112.12,-118.58"/>
</g>
<!-- ast.Name object at 0x7f839f5b88b0 -->
<g id="node10" class="node">
<title>ast.Name object at 0x7f839f5b88b0</title>
<path fill="#66cdaa" stroke="black" d="M127,-324C127,-324 97,-324 97,-324 91,-324 85,-318 85,-312 85,-312 85,-300 85,-300 85,-294 91,-288 97,-288 97,-288 127,-288 127,-288 133,-288 139,-294 139,-300 139,-300 139,-312 139,-312 139,-318 133,-324 127,-324"/>
<text text-anchor="middle" x="112" y="-302.3" font-family="Times,serif" font-size="14.00">Name</text>
</g>
<!-- ast.comprehension object at 0x7f839f5b86a0&#45;&gt;ast.Name object at 0x7f839f5b88b0 -->
<g id="edge9" class="edge">
<title>ast.comprehension object at 0x7f839f5b86a0&#45;&gt;ast.Name object at 0x7f839f5b88b0</title>
<path fill="none" stroke="black" d="M157.17,-359.7C149.98,-351.3 141.2,-341.07 133.31,-331.86"/>
<polygon fill="black" stroke="black" points="135.83,-329.42 126.66,-324.1 130.51,-333.97 135.83,-329.42"/>
</g>
<!-- ast.Subscript object at 0x7f839f573580 -->
<g id="node12" class="node">
<title>ast.Subscript object at 0x7f839f573580</title>
<path fill="#66cdaa" stroke="black" d="M204,-252C204,-252 160,-252 160,-252 154,-252 148,-246 148,-240 148,-240 148,-228 148,-228 148,-222 154,-216 160,-216 160,-216 204,-216 204,-216 210,-216 216,-222 216,-228 216,-228 216,-240 216,-240 216,-246 210,-252 204,-252"/>
<text text-anchor="middle" x="182" y="-230.3" font-family="Times,serif" font-size="14.00">Subscript</text>
</g>
<!-- ast.comprehension object at 0x7f839f5b86a0&#45;&gt;ast.Subscript object at 0x7f839f573580 -->
<g id="edge11" class="edge">
<title>ast.comprehension object at 0x7f839f5b86a0&#45;&gt;ast.Subscript object at 0x7f839f573580</title>
<path fill="none" stroke="black" d="M173.21,-359.87C174.91,-335.67 178.04,-291.21 180.07,-262.39"/>
<polygon fill="black" stroke="black" points="183.58,-262.41 180.79,-252.19 176.6,-261.92 183.58,-262.41"/>
</g>
<!-- ast.Compare object at 0x7f83a0eb5f30 -->
<g id="node20" class="node">
<title>ast.Compare object at 0x7f83a0eb5f30</title>
<path fill="#66cdaa" stroke="black" d="M366.5,-324C366.5,-324 323.5,-324 323.5,-324 317.5,-324 311.5,-318 311.5,-312 311.5,-312 311.5,-300 311.5,-300 311.5,-294 317.5,-288 323.5,-288 323.5,-288 366.5,-288 366.5,-288 372.5,-288 378.5,-294 378.5,-300 378.5,-300 378.5,-312 378.5,-312 378.5,-318 372.5,-324 366.5,-324"/>
<text text-anchor="middle" x="345" y="-302.3" font-family="Times,serif" font-size="14.00">Compare</text>
</g>
<!-- ast.comprehension object at 0x7f839f5b86a0&#45;&gt;ast.Compare object at 0x7f83a0eb5f30 -->
<g id="edge21" class="edge">
<title>ast.comprehension object at 0x7f839f5b86a0&#45;&gt;ast.Compare object at 0x7f83a0eb5f30</title>
<path fill="none" stroke="black" d="M214.32,-359.88C240.96,-349.1 275.24,-335.23 302,-324.4"/>
<polygon fill="black" stroke="black" points="303.54,-327.55 311.5,-320.56 300.91,-321.06 303.54,-327.55"/>
</g>
<!-- ast.Store object at 0x7f84471edff0 -->
<g id="node11" class="node">
<title>ast.Store object at 0x7f84471edff0</title>
<path fill="#66cdaa" stroke="black" d="M118,-252C118,-252 88,-252 88,-252 82,-252 76,-246 76,-240 76,-240 76,-228 76,-228 76,-222 82,-216 88,-216 88,-216 118,-216 118,-216 124,-216 130,-222 130,-228 130,-228 130,-240 130,-240 130,-246 124,-252 118,-252"/>
<text text-anchor="middle" x="103" y="-230.3" font-family="Times,serif" font-size="14.00">Store</text>
</g>
<!-- ast.Name object at 0x7f839f5b88b0&#45;&gt;ast.Store object at 0x7f84471edff0 -->
<g id="edge10" class="edge">
<title>ast.Name object at 0x7f839f5b88b0&#45;&gt;ast.Store object at 0x7f84471edff0</title>
<path fill="none" stroke="black" d="M109.78,-287.7C108.78,-279.98 107.59,-270.71 106.49,-262.11"/>
<polygon fill="black" stroke="black" points="109.95,-261.58 105.2,-252.1 103,-262.47 109.95,-261.58"/>
</g>
<!-- ast.Subscript object at 0x7f839f573580&#45;&gt;ast.Load object at 0x7f84471edf90 -->
<g id="edge20" class="edge">
<title>ast.Subscript object at 0x7f839f573580&#45;&gt;ast.Load object at 0x7f84471edf90</title>
<path fill="none" stroke="black" d="M147.97,-218.83C131.84,-210.17 114.14,-197.38 105,-180 94.68,-160.37 101.87,-135.68 110.54,-117.28"/>
<polygon fill="black" stroke="black" points="113.7,-118.79 115.12,-108.29 107.46,-115.61 113.7,-118.79"/>
</g>
<!-- ast.Name object at 0x7f839f571a20 -->
<g id="node13" class="node">
<title>ast.Name object at 0x7f839f571a20</title>
<path fill="#66cdaa" stroke="black" d="M156,-180C156,-180 126,-180 126,-180 120,-180 114,-174 114,-168 114,-168 114,-156 114,-156 114,-150 120,-144 126,-144 126,-144 156,-144 156,-144 162,-144 168,-150 168,-156 168,-156 168,-168 168,-168 168,-174 162,-180 156,-180"/>
<text text-anchor="middle" x="141" y="-158.3" font-family="Times,serif" font-size="14.00">Name</text>
</g>
<!-- ast.Subscript object at 0x7f839f573580&#45;&gt;ast.Name object at 0x7f839f571a20 -->
<g id="edge12" class="edge">
<title>ast.Subscript object at 0x7f839f573580&#45;&gt;ast.Name object at 0x7f839f571a20</title>
<path fill="none" stroke="black" d="M171.87,-215.7C167.15,-207.64 161.44,-197.89 156.22,-188.98"/>
<polygon fill="black" stroke="black" points="159.09,-186.96 151.02,-180.1 153.05,-190.5 159.09,-186.96"/>
</g>
<!-- ast.Slice object at 0x7f839f5715a0 -->
<g id="node14" class="node">
<title>ast.Slice object at 0x7f839f5715a0</title>
<path fill="#66cdaa" stroke="black" d="M300,-180C300,-180 270,-180 270,-180 264,-180 258,-174 258,-168 258,-168 258,-156 258,-156 258,-150 264,-144 270,-144 270,-144 300,-144 300,-144 306,-144 312,-150 312,-156 312,-156 312,-168 312,-168 312,-174 306,-180 300,-180"/>
<text text-anchor="middle" x="285" y="-158.3" font-family="Times,serif" font-size="14.00">Slice</text>
</g>
<!-- ast.Subscript object at 0x7f839f573580&#45;&gt;ast.Slice object at 0x7f839f5715a0 -->
<g id="edge14" class="edge">
<title>ast.Subscript object at 0x7f839f573580&#45;&gt;ast.Slice object at 0x7f839f5715a0</title>
<path fill="none" stroke="black" d="M207.2,-215.88C220.41,-206.89 236.79,-195.76 251.11,-186.03"/>
<polygon fill="black" stroke="black" points="253.4,-188.71 259.71,-180.19 249.47,-182.92 253.4,-188.71"/>
</g>
<!-- ast.Name object at 0x7f839f571a20&#45;&gt;ast.Load object at 0x7f84471edf90 -->
<g id="edge13" class="edge">
<title>ast.Name object at 0x7f839f571a20&#45;&gt;ast.Load object at 0x7f84471edf90</title>
<path fill="none" stroke="black" d="M137.29,-143.7C135.64,-135.98 133.65,-126.71 131.81,-118.11"/>
<polygon fill="black" stroke="black" points="135.18,-117.15 129.67,-108.1 128.34,-118.62 135.18,-117.15"/>
</g>
<!-- ast.Constant object at 0x7f839f9b4b50 -->
<g id="node15" class="node">
<title>ast.Constant object at 0x7f839f9b4b50</title>
<path fill="#66cdaa" stroke="black" d="M320.5,-108C320.5,-108 279.5,-108 279.5,-108 273.5,-108 267.5,-102 267.5,-96 267.5,-96 267.5,-84 267.5,-84 267.5,-78 273.5,-72 279.5,-72 279.5,-72 320.5,-72 320.5,-72 326.5,-72 332.5,-78 332.5,-84 332.5,-84 332.5,-96 332.5,-96 332.5,-102 326.5,-108 320.5,-108"/>
<text text-anchor="middle" x="300" y="-86.3" font-family="Times,serif" font-size="14.00">Constant</text>
</g>
<!-- ast.Slice object at 0x7f839f5715a0&#45;&gt;ast.Constant object at 0x7f839f9b4b50 -->
<g id="edge15" class="edge">
<title>ast.Slice object at 0x7f839f5715a0&#45;&gt;ast.Constant object at 0x7f839f9b4b50</title>
<path fill="none" stroke="black" d="M288.71,-143.7C290.36,-135.98 292.35,-126.71 294.19,-118.11"/>
<polygon fill="black" stroke="black" points="297.66,-118.62 296.33,-108.1 290.82,-117.15 297.66,-118.62"/>
</g>
<!-- ast.BinOp object at 0x7f839f9b4be0 -->
<g id="node16" class="node">
<title>ast.BinOp object at 0x7f839f9b4be0</title>
<path fill="#66cdaa" stroke="black" d="M237,-108C237,-108 207,-108 207,-108 201,-108 195,-102 195,-96 195,-96 195,-84 195,-84 195,-78 201,-72 207,-72 207,-72 237,-72 237,-72 243,-72 249,-78 249,-84 249,-84 249,-96 249,-96 249,-102 243,-108 237,-108"/>
<text text-anchor="middle" x="222" y="-86.3" font-family="Times,serif" font-size="14.00">BinOp</text>
</g>
<!-- ast.Slice object at 0x7f839f5715a0&#45;&gt;ast.BinOp object at 0x7f839f9b4be0 -->
<g id="edge16" class="edge">
<title>ast.Slice object at 0x7f839f5715a0&#45;&gt;ast.BinOp object at 0x7f839f9b4be0</title>
<path fill="none" stroke="black" d="M269.43,-143.7C261.8,-135.22 252.48,-124.86 244.12,-115.58"/>
<polygon fill="black" stroke="black" points="246.69,-113.2 237.39,-108.1 241.48,-117.88 246.69,-113.2"/>
</g>
<!-- ast.Constant object at 0x7f839f9b6ce0 -->
<g id="node17" class="node">
<title>ast.Constant object at 0x7f839f9b6ce0</title>
<path fill="#66cdaa" stroke="black" d="M164.5,-36C164.5,-36 123.5,-36 123.5,-36 117.5,-36 111.5,-30 111.5,-24 111.5,-24 111.5,-12 111.5,-12 111.5,-6 117.5,0 123.5,0 123.5,0 164.5,0 164.5,0 170.5,0 176.5,-6 176.5,-12 176.5,-12 176.5,-24 176.5,-24 176.5,-30 170.5,-36 164.5,-36"/>
<text text-anchor="middle" x="144" y="-14.3" font-family="Times,serif" font-size="14.00">Constant</text>
</g>
<!-- ast.BinOp object at 0x7f839f9b4be0&#45;&gt;ast.Constant object at 0x7f839f9b6ce0 -->
<g id="edge17" class="edge">
<title>ast.BinOp object at 0x7f839f9b4be0&#45;&gt;ast.Constant object at 0x7f839f9b6ce0</title>
<path fill="none" stroke="black" d="M202.72,-71.7C193.08,-63.05 181.27,-52.45 170.77,-43.03"/>
<polygon fill="black" stroke="black" points="172.84,-40.18 163.06,-36.1 168.16,-45.39 172.84,-40.18"/>
</g>
<!-- ast.Add object at 0x7f84471ee1d0 -->
<g id="node18" class="node">
<title>ast.Add object at 0x7f84471ee1d0</title>
<path fill="#66cdaa" stroke="black" d="M237,-36C237,-36 207,-36 207,-36 201,-36 195,-30 195,-24 195,-24 195,-12 195,-12 195,-6 201,0 207,0 207,0 237,0 237,0 243,0 249,-6 249,-12 249,-12 249,-24 249,-24 249,-30 243,-36 237,-36"/>
<text text-anchor="middle" x="222" y="-14.3" font-family="Times,serif" font-size="14.00">Add</text>
</g>
<!-- ast.BinOp object at 0x7f839f9b4be0&#45;&gt;ast.Add object at 0x7f84471ee1d0 -->
<g id="edge18" class="edge">
<title>ast.BinOp object at 0x7f839f9b4be0&#45;&gt;ast.Add object at 0x7f84471ee1d0</title>
<path fill="none" stroke="black" d="M222,-71.7C222,-63.98 222,-54.71 222,-46.11"/>
<polygon fill="black" stroke="black" points="225.5,-46.1 222,-36.1 218.5,-46.1 225.5,-46.1"/>
</g>
<!-- ast.Constant object at 0x7f839f9b6e00 -->
<g id="node19" class="node">
<title>ast.Constant object at 0x7f839f9b6e00</title>
<path fill="#66cdaa" stroke="black" d="M320.5,-36C320.5,-36 279.5,-36 279.5,-36 273.5,-36 267.5,-30 267.5,-24 267.5,-24 267.5,-12 267.5,-12 267.5,-6 273.5,0 279.5,0 279.5,0 320.5,0 320.5,0 326.5,0 332.5,-6 332.5,-12 332.5,-12 332.5,-24 332.5,-24 332.5,-30 326.5,-36 320.5,-36"/>
<text text-anchor="middle" x="300" y="-14.3" font-family="Times,serif" font-size="14.00">Constant</text>
</g>
<!-- ast.BinOp object at 0x7f839f9b4be0&#45;&gt;ast.Constant object at 0x7f839f9b6e00 -->
<g id="edge19" class="edge">
<title>ast.BinOp object at 0x7f839f9b4be0&#45;&gt;ast.Constant object at 0x7f839f9b6e00</title>
<path fill="none" stroke="black" d="M241.28,-71.7C250.92,-63.05 262.73,-52.45 273.23,-43.03"/>
<polygon fill="black" stroke="black" points="275.84,-45.39 280.94,-36.1 271.16,-40.18 275.84,-45.39"/>
</g>
<!-- ast.BinOp object at 0x7f83a0eb5300 -->
<g id="node21" class="node">
<title>ast.BinOp object at 0x7f83a0eb5300</title>
<path fill="#66cdaa" stroke="black" d="M324,-252C324,-252 294,-252 294,-252 288,-252 282,-246 282,-240 282,-240 282,-228 282,-228 282,-222 288,-216 294,-216 294,-216 324,-216 324,-216 330,-216 336,-222 336,-228 336,-228 336,-240 336,-240 336,-246 330,-252 324,-252"/>
<text text-anchor="middle" x="309" y="-230.3" font-family="Times,serif" font-size="14.00">BinOp</text>
</g>
<!-- ast.Compare object at 0x7f83a0eb5f30&#45;&gt;ast.BinOp object at 0x7f83a0eb5300 -->
<g id="edge22" class="edge">
<title>ast.Compare object at 0x7f83a0eb5f30&#45;&gt;ast.BinOp object at 0x7f83a0eb5300</title>
<path fill="none" stroke="black" d="M336.1,-287.7C332,-279.73 327.05,-270.1 322.51,-261.26"/>
<polygon fill="black" stroke="black" points="325.48,-259.4 317.8,-252.1 319.26,-262.6 325.48,-259.4"/>
</g>
<!-- ast.Eq object at 0x7f84471ee8c0 -->
<g id="node27" class="node">
<title>ast.Eq object at 0x7f84471ee8c0</title>
<path fill="#66cdaa" stroke="black" d="M396,-252C396,-252 366,-252 366,-252 360,-252 354,-246 354,-240 354,-240 354,-228 354,-228 354,-222 360,-216 366,-216 366,-216 396,-216 396,-216 402,-216 408,-222 408,-228 408,-228 408,-240 408,-240 408,-246 402,-252 396,-252"/>
<text text-anchor="middle" x="381" y="-230.3" font-family="Times,serif" font-size="14.00">Eq</text>
</g>
<!-- ast.Compare object at 0x7f83a0eb5f30&#45;&gt;ast.Eq object at 0x7f84471ee8c0 -->
<g id="edge29" class="edge">
<title>ast.Compare object at 0x7f83a0eb5f30&#45;&gt;ast.Eq object at 0x7f84471ee8c0</title>
<path fill="none" stroke="black" d="M353.9,-287.7C358,-279.73 362.95,-270.1 367.49,-261.26"/>
<polygon fill="black" stroke="black" points="370.74,-262.6 372.2,-252.1 364.52,-259.4 370.74,-262.6"/>
</g>
<!-- ast.Constant object at 0x7f839f522560 -->
<g id="node28" class="node">
<title>ast.Constant object at 0x7f839f522560</title>
<path fill="#66cdaa" stroke="black" d="M479.5,-252C479.5,-252 438.5,-252 438.5,-252 432.5,-252 426.5,-246 426.5,-240 426.5,-240 426.5,-228 426.5,-228 426.5,-222 432.5,-216 438.5,-216 438.5,-216 479.5,-216 479.5,-216 485.5,-216 491.5,-222 491.5,-228 491.5,-228 491.5,-240 491.5,-240 491.5,-246 485.5,-252 479.5,-252"/>
<text text-anchor="middle" x="459" y="-230.3" font-family="Times,serif" font-size="14.00">Constant</text>
</g>
<!-- ast.Compare object at 0x7f83a0eb5f30&#45;&gt;ast.Constant object at 0x7f839f522560 -->
<g id="edge30" class="edge">
<title>ast.Compare object at 0x7f83a0eb5f30&#45;&gt;ast.Constant object at 0x7f839f522560</title>
<path fill="none" stroke="black" d="M372.89,-287.88C387.79,-278.72 406.33,-267.34 422.38,-257.48"/>
<polygon fill="black" stroke="black" points="424.31,-260.41 431.01,-252.19 420.65,-254.44 424.31,-260.41"/>
</g>
<!-- ast.Name object at 0x7f83a0eb5f60 -->
<g id="node22" class="node">
<title>ast.Name object at 0x7f83a0eb5f60</title>
<path fill="#66cdaa" stroke="black" d="M228,-180C228,-180 198,-180 198,-180 192,-180 186,-174 186,-168 186,-168 186,-156 186,-156 186,-150 192,-144 198,-144 198,-144 228,-144 228,-144 234,-144 240,-150 240,-156 240,-156 240,-168 240,-168 240,-174 234,-180 228,-180"/>
<text text-anchor="middle" x="213" y="-158.3" font-family="Times,serif" font-size="14.00">Name</text>
</g>
<!-- ast.BinOp object at 0x7f83a0eb5300&#45;&gt;ast.Name object at 0x7f83a0eb5f60 -->
<g id="edge23" class="edge">
<title>ast.BinOp object at 0x7f83a0eb5300&#45;&gt;ast.Name object at 0x7f83a0eb5f60</title>
<path fill="none" stroke="black" d="M285.27,-215.7C273.06,-206.8 258.01,-195.82 244.82,-186.2"/>
<polygon fill="black" stroke="black" points="246.6,-183.17 236.46,-180.1 242.48,-188.82 246.6,-183.17"/>
</g>
<!-- ast.Mod object at 0x7f84471ee3b0 -->
<g id="node23" class="node">
<title>ast.Mod object at 0x7f84471ee3b0</title>
<path fill="#66cdaa" stroke="black" d="M372,-180C372,-180 342,-180 342,-180 336,-180 330,-174 330,-168 330,-168 330,-156 330,-156 330,-150 336,-144 342,-144 342,-144 372,-144 372,-144 378,-144 384,-150 384,-156 384,-156 384,-168 384,-168 384,-174 378,-180 372,-180"/>
<text text-anchor="middle" x="357" y="-158.3" font-family="Times,serif" font-size="14.00">Mod</text>
</g>
<!-- ast.BinOp object at 0x7f83a0eb5300&#45;&gt;ast.Mod object at 0x7f84471ee3b0 -->
<g id="edge25" class="edge">
<title>ast.BinOp object at 0x7f83a0eb5300&#45;&gt;ast.Mod object at 0x7f84471ee3b0</title>
<path fill="none" stroke="black" d="M320.87,-215.7C326.5,-207.47 333.35,-197.48 339.57,-188.42"/>
<polygon fill="black" stroke="black" points="342.5,-190.33 345.27,-180.1 336.73,-186.37 342.5,-190.33"/>
</g>
<!-- ast.UnaryOp object at 0x7f83a0eb7c40 -->
<g id="node24" class="node">
<title>ast.UnaryOp object at 0x7f83a0eb7c40</title>
<path fill="#66cdaa" stroke="black" d="M457.5,-180C457.5,-180 414.5,-180 414.5,-180 408.5,-180 402.5,-174 402.5,-168 402.5,-168 402.5,-156 402.5,-156 402.5,-150 408.5,-144 414.5,-144 414.5,-144 457.5,-144 457.5,-144 463.5,-144 469.5,-150 469.5,-156 469.5,-156 469.5,-168 469.5,-168 469.5,-174 463.5,-180 457.5,-180"/>
<text text-anchor="middle" x="436" y="-158.3" font-family="Times,serif" font-size="14.00">UnaryOp</text>
</g>
<!-- ast.BinOp object at 0x7f83a0eb5300&#45;&gt;ast.UnaryOp object at 0x7f83a0eb7c40 -->
<g id="edge26" class="edge">
<title>ast.BinOp object at 0x7f83a0eb5300&#45;&gt;ast.UnaryOp object at 0x7f83a0eb7c40</title>
<path fill="none" stroke="black" d="M336.24,-217.98C353.61,-208.41 376.42,-195.84 395.84,-185.14"/>
<polygon fill="black" stroke="black" points="397.71,-188.1 404.78,-180.21 394.33,-181.97 397.71,-188.1"/>
</g>
<!-- ast.Name object at 0x7f83a0eb5f60&#45;&gt;ast.Load object at 0x7f84471edf90 -->
<g id="edge24" class="edge">
<title>ast.Name object at 0x7f83a0eb5f60&#45;&gt;ast.Load object at 0x7f84471edf90</title>
<path fill="none" stroke="black" d="M191.49,-143.7C180.54,-134.88 167.05,-124.03 155.18,-114.47"/>
<polygon fill="black" stroke="black" points="157.24,-111.65 147.26,-108.1 152.86,-117.1 157.24,-111.65"/>
</g>
<!-- ast.USub object at 0x7f84471ee830 -->
<g id="node25" class="node">
<title>ast.USub object at 0x7f84471ee830</title>
<path fill="#66cdaa" stroke="black" d="M429,-108C429,-108 399,-108 399,-108 393,-108 387,-102 387,-96 387,-96 387,-84 387,-84 387,-78 393,-72 399,-72 399,-72 429,-72 429,-72 435,-72 441,-78 441,-84 441,-84 441,-96 441,-96 441,-102 435,-108 429,-108"/>
<text text-anchor="middle" x="414" y="-86.3" font-family="Times,serif" font-size="14.00">USub</text>
</g>
<!-- ast.UnaryOp object at 0x7f83a0eb7c40&#45;&gt;ast.USub object at 0x7f84471ee830 -->
<g id="edge27" class="edge">
<title>ast.UnaryOp object at 0x7f83a0eb7c40&#45;&gt;ast.USub object at 0x7f84471ee830</title>
<path fill="none" stroke="black" d="M430.56,-143.7C428.11,-135.9 425.16,-126.51 422.43,-117.83"/>
<polygon fill="black" stroke="black" points="425.71,-116.59 419.38,-108.1 419.04,-118.69 425.71,-116.59"/>
</g>
<!-- ast.Constant object at 0x7f83a0eb5db0 -->
<g id="node26" class="node">
<title>ast.Constant object at 0x7f83a0eb5db0</title>
<path fill="#66cdaa" stroke="black" d="M512.5,-108C512.5,-108 471.5,-108 471.5,-108 465.5,-108 459.5,-102 459.5,-96 459.5,-96 459.5,-84 459.5,-84 459.5,-78 465.5,-72 471.5,-72 471.5,-72 512.5,-72 512.5,-72 518.5,-72 524.5,-78 524.5,-84 524.5,-84 524.5,-96 524.5,-96 524.5,-102 518.5,-108 512.5,-108"/>
<text text-anchor="middle" x="492" y="-86.3" font-family="Times,serif" font-size="14.00">Constant</text>
</g>
<!-- ast.UnaryOp object at 0x7f83a0eb7c40&#45;&gt;ast.Constant object at 0x7f83a0eb5db0 -->
<g id="edge28" class="edge">
<title>ast.UnaryOp object at 0x7f83a0eb7c40&#45;&gt;ast.Constant object at 0x7f83a0eb5db0</title>
<path fill="none" stroke="black" d="M449.84,-143.7C456.49,-135.39 464.58,-125.28 471.89,-116.14"/>
<polygon fill="black" stroke="black" points="474.8,-118.1 478.32,-108.1 469.34,-113.73 474.8,-118.1"/>
</g>
</g>
</svg>
