<?xml version="1.0" encoding="UTF-8" standalone="no"?>
<!DOCTYPE svg PUBLIC "-//W3C//DTD SVG 1.1//EN"
 "http://www.w3.org/Graphics/SVG/1.1/DTD/svg11.dtd">
<!-- Generated by graphviz version 2.43.0 (0)
 -->
<!-- Title: %3 Pages: 1 -->
<svg width="643pt" height="620pt"
 viewBox="0.00 0.00 643.00 620.00" xmlns="http://www.w3.org/2000/svg" xmlns:xlink="http://www.w3.org/1999/xlink">
<g id="graph0" class="graph" transform="scale(1 1) rotate(0) translate(4 616)">
<title>%3</title>
<polygon fill="white" stroke="transparent" points="-4,4 -4,-616 639,-616 639,4 -4,4"/>
<!-- ast.Module object at 0x7f7aa52ad150 -->
<g id="node1" class="node">
<title>ast.Module object at 0x7f7aa52ad150</title>
<path fill="#66cdaa" stroke="black" d="M473.5,-612C473.5,-612 438.5,-612 438.5,-612 432.5,-612 426.5,-606 426.5,-600 426.5,-600 426.5,-588 426.5,-588 426.5,-582 432.5,-576 438.5,-576 438.5,-576 473.5,-576 473.5,-576 479.5,-576 485.5,-582 485.5,-588 485.5,-588 485.5,-600 485.5,-600 485.5,-606 479.5,-612 473.5,-612"/>
<text text-anchor="middle" x="456" y="-590.3" font-family="Times,serif" font-size="14.00">Module</text>
</g>
<!-- ast.FunctionDef object at 0x7f7aa52ad7b0 -->
<g id="node2" class="node">
<title>ast.FunctionDef object at 0x7f7aa52ad7b0</title>
<path fill="#66cdaa" stroke="black" d="M486.5,-540C486.5,-540 425.5,-540 425.5,-540 419.5,-540 413.5,-534 413.5,-528 413.5,-528 413.5,-516 413.5,-516 413.5,-510 419.5,-504 425.5,-504 425.5,-504 486.5,-504 486.5,-504 492.5,-504 498.5,-510 498.5,-516 498.5,-516 498.5,-528 498.5,-528 498.5,-534 492.5,-540 486.5,-540"/>
<text text-anchor="middle" x="456" y="-518.3" font-family="Times,serif" font-size="14.00">FunctionDef</text>
</g>
<!-- ast.Module object at 0x7f7aa52ad150&#45;&gt;ast.FunctionDef object at 0x7f7aa52ad7b0 -->
<g id="edge1" class="edge">
<title>ast.Module object at 0x7f7aa52ad150&#45;&gt;ast.FunctionDef object at 0x7f7aa52ad7b0</title>
<path fill="none" stroke="black" d="M456,-575.7C456,-567.98 456,-558.71 456,-550.11"/>
<polygon fill="black" stroke="black" points="459.5,-550.1 456,-540.1 452.5,-550.1 459.5,-550.1"/>
</g>
<!-- ast.arguments object at 0x7f7aa52ad270 -->
<g id="node3" class="node">
<title>ast.arguments object at 0x7f7aa52ad270</title>
<path fill="#66cdaa" stroke="black" d="M279,-468C279,-468 229,-468 229,-468 223,-468 217,-462 217,-456 217,-456 217,-444 217,-444 217,-438 223,-432 229,-432 229,-432 279,-432 279,-432 285,-432 291,-438 291,-444 291,-444 291,-456 291,-456 291,-462 285,-468 279,-468"/>
<text text-anchor="middle" x="254" y="-446.3" font-family="Times,serif" font-size="14.00">arguments</text>
</g>
<!-- ast.FunctionDef object at 0x7f7aa52ad7b0&#45;&gt;ast.arguments object at 0x7f7aa52ad270 -->
<g id="edge2" class="edge">
<title>ast.FunctionDef object at 0x7f7aa52ad7b0&#45;&gt;ast.arguments object at 0x7f7aa52ad270</title>
<path fill="none" stroke="black" d="M413.16,-506.15C380.17,-494.72 334.62,-478.94 300.7,-467.18"/>
<polygon fill="black" stroke="black" points="301.61,-463.79 291.01,-463.83 299.32,-470.41 301.61,-463.79"/>
</g>
<!-- ast.Assign object at 0x7f7aa52aec20 -->
<g id="node5" class="node">
<title>ast.Assign object at 0x7f7aa52aec20</title>
<path fill="#66cdaa" stroke="black" d="M507,-468C507,-468 477,-468 477,-468 471,-468 465,-462 465,-456 465,-456 465,-444 465,-444 465,-438 471,-432 477,-432 477,-432 507,-432 507,-432 513,-432 519,-438 519,-444 519,-444 519,-456 519,-456 519,-462 513,-468 507,-468"/>
<text text-anchor="middle" x="492" y="-446.3" font-family="Times,serif" font-size="14.00">Assign</text>
</g>
<!-- ast.FunctionDef object at 0x7f7aa52ad7b0&#45;&gt;ast.Assign object at 0x7f7aa52aec20 -->
<g id="edge4" class="edge">
<title>ast.FunctionDef object at 0x7f7aa52ad7b0&#45;&gt;ast.Assign object at 0x7f7aa52aec20</title>
<path fill="none" stroke="black" d="M464.9,-503.7C469,-495.73 473.95,-486.1 478.49,-477.26"/>
<polygon fill="black" stroke="black" points="481.74,-478.6 483.2,-468.1 475.52,-475.4 481.74,-478.6"/>
</g>
<!-- ast.For object at 0x7f7aa52ad360 -->
<g id="node10" class="node">
<title>ast.For object at 0x7f7aa52ad360</title>
<path fill="#66cdaa" stroke="black" d="M399,-468C399,-468 369,-468 369,-468 363,-468 357,-462 357,-456 357,-456 357,-444 357,-444 357,-438 363,-432 369,-432 369,-432 399,-432 399,-432 405,-432 411,-438 411,-444 411,-444 411,-456 411,-456 411,-462 405,-468 399,-468"/>
<text text-anchor="middle" x="384" y="-446.3" font-family="Times,serif" font-size="14.00">For</text>
</g>
<!-- ast.FunctionDef object at 0x7f7aa52ad7b0&#45;&gt;ast.For object at 0x7f7aa52ad360 -->
<g id="edge9" class="edge">
<title>ast.FunctionDef object at 0x7f7aa52ad7b0&#45;&gt;ast.For object at 0x7f7aa52ad360</title>
<path fill="none" stroke="black" d="M438.2,-503.7C429.4,-495.14 418.62,-484.66 409,-475.3"/>
<polygon fill="black" stroke="black" points="411.2,-472.57 401.59,-468.1 406.32,-477.58 411.2,-472.57"/>
</g>
<!-- ast.Return object at 0x7f7aa514a770 -->
<g id="node32" class="node">
<title>ast.Return object at 0x7f7aa514a770</title>
<path fill="#66cdaa" stroke="black" d="M589,-468C589,-468 559,-468 559,-468 553,-468 547,-462 547,-456 547,-456 547,-444 547,-444 547,-438 553,-432 559,-432 559,-432 589,-432 589,-432 595,-432 601,-438 601,-444 601,-444 601,-456 601,-456 601,-462 595,-468 589,-468"/>
<text text-anchor="middle" x="574" y="-446.3" font-family="Times,serif" font-size="14.00">Return</text>
</g>
<!-- ast.FunctionDef object at 0x7f7aa52ad7b0&#45;&gt;ast.Return object at 0x7f7aa514a770 -->
<g id="edge38" class="edge">
<title>ast.FunctionDef object at 0x7f7aa52ad7b0&#45;&gt;ast.Return object at 0x7f7aa514a770</title>
<path fill="none" stroke="black" d="M484.87,-503.88C500.76,-494.45 520.63,-482.66 537.58,-472.61"/>
<polygon fill="black" stroke="black" points="539.83,-475.34 546.65,-467.23 536.26,-469.32 539.83,-475.34"/>
</g>
<!-- ast.arg object at 0x7f7aa52af640 -->
<g id="node4" class="node">
<title>ast.arg object at 0x7f7aa52af640</title>
<path fill="#66cdaa" stroke="black" d="M180,-396C180,-396 150,-396 150,-396 144,-396 138,-390 138,-384 138,-384 138,-372 138,-372 138,-366 144,-360 150,-360 150,-360 180,-360 180,-360 186,-360 192,-366 192,-372 192,-372 192,-384 192,-384 192,-390 186,-396 180,-396"/>
<text text-anchor="middle" x="165" y="-374.3" font-family="Times,serif" font-size="14.00">arg</text>
</g>
<!-- ast.arguments object at 0x7f7aa52ad270&#45;&gt;ast.arg object at 0x7f7aa52af640 -->
<g id="edge3" class="edge">
<title>ast.arguments object at 0x7f7aa52ad270&#45;&gt;ast.arg object at 0x7f7aa52af640</title>
<path fill="none" stroke="black" d="M232,-431.7C220.79,-422.88 207,-412.03 194.85,-402.47"/>
<polygon fill="black" stroke="black" points="196.77,-399.54 186.75,-396.1 192.44,-405.04 196.77,-399.54"/>
</g>
<!-- ast.Name object at 0x7f7aa52af460 -->
<g id="node6" class="node">
<title>ast.Name object at 0x7f7aa52af460</title>
<path fill="#66cdaa" stroke="black" d="M507,-396C507,-396 477,-396 477,-396 471,-396 465,-390 465,-384 465,-384 465,-372 465,-372 465,-366 471,-360 477,-360 477,-360 507,-360 507,-360 513,-360 519,-366 519,-372 519,-372 519,-384 519,-384 519,-390 513,-396 507,-396"/>
<text text-anchor="middle" x="492" y="-374.3" font-family="Times,serif" font-size="14.00">Name</text>
</g>
<!-- ast.Assign object at 0x7f7aa52aec20&#45;&gt;ast.Name object at 0x7f7aa52af460 -->
<g id="edge5" class="edge">
<title>ast.Assign object at 0x7f7aa52aec20&#45;&gt;ast.Name object at 0x7f7aa52af460</title>
<path fill="none" stroke="black" d="M492,-431.7C492,-423.98 492,-414.71 492,-406.11"/>
<polygon fill="black" stroke="black" points="495.5,-406.1 492,-396.1 488.5,-406.1 495.5,-406.1"/>
</g>
<!-- ast.List object at 0x7f7aa52af670 -->
<g id="node8" class="node">
<title>ast.List object at 0x7f7aa52af670</title>
<path fill="#66cdaa" stroke="black" d="M568,-108C568,-108 538,-108 538,-108 532,-108 526,-102 526,-96 526,-96 526,-84 526,-84 526,-78 532,-72 538,-72 538,-72 568,-72 568,-72 574,-72 580,-78 580,-84 580,-84 580,-96 580,-96 580,-102 574,-108 568,-108"/>
<text text-anchor="middle" x="553" y="-86.3" font-family="Times,serif" font-size="14.00">List</text>
</g>
<!-- ast.Assign object at 0x7f7aa52aec20&#45;&gt;ast.List object at 0x7f7aa52af670 -->
<g id="edge7" class="edge">
<title>ast.Assign object at 0x7f7aa52aec20&#45;&gt;ast.List object at 0x7f7aa52af670</title>
<path fill="none" stroke="black" d="M505.85,-431.71C513.28,-421.75 522.09,-408.71 528,-396 545.32,-358.74 553,-348.09 553,-307 553,-307 553,-307 553,-233 553,-193 553,-146.65 553,-118.08"/>
<polygon fill="black" stroke="black" points="556.5,-118.05 553,-108.05 549.5,-118.05 556.5,-118.05"/>
</g>
<!-- ast.Store object at 0x7f7abbdee080 -->
<g id="node7" class="node">
<title>ast.Store object at 0x7f7abbdee080</title>
<path fill="#66cdaa" stroke="black" d="M503,-324C503,-324 473,-324 473,-324 467,-324 461,-318 461,-312 461,-312 461,-300 461,-300 461,-294 467,-288 473,-288 473,-288 503,-288 503,-288 509,-288 515,-294 515,-300 515,-300 515,-312 515,-312 515,-318 509,-324 503,-324"/>
<text text-anchor="middle" x="488" y="-302.3" font-family="Times,serif" font-size="14.00">Store</text>
</g>
<!-- ast.Name object at 0x7f7aa52af460&#45;&gt;ast.Store object at 0x7f7abbdee080 -->
<g id="edge6" class="edge">
<title>ast.Name object at 0x7f7aa52af460&#45;&gt;ast.Store object at 0x7f7abbdee080</title>
<path fill="none" stroke="black" d="M491.01,-359.7C490.57,-351.98 490.04,-342.71 489.55,-334.11"/>
<polygon fill="black" stroke="black" points="493.04,-333.89 488.98,-324.1 486.05,-334.29 493.04,-333.89"/>
</g>
<!-- ast.Load object at 0x7f7abbdee020 -->
<g id="node9" class="node">
<title>ast.Load object at 0x7f7abbdee020</title>
<path fill="#66cdaa" stroke="black" d="M445,-36C445,-36 415,-36 415,-36 409,-36 403,-30 403,-24 403,-24 403,-12 403,-12 403,-6 409,0 415,0 415,0 445,0 445,0 451,0 457,-6 457,-12 457,-12 457,-24 457,-24 457,-30 451,-36 445,-36"/>
<text text-anchor="middle" x="430" y="-14.3" font-family="Times,serif" font-size="14.00">Load</text>
</g>
<!-- ast.List object at 0x7f7aa52af670&#45;&gt;ast.Load object at 0x7f7abbdee020 -->
<g id="edge8" class="edge">
<title>ast.List object at 0x7f7aa52af670&#45;&gt;ast.Load object at 0x7f7abbdee020</title>
<path fill="none" stroke="black" d="M525.7,-73.46C508.11,-63.45 485.03,-50.32 465.95,-39.46"/>
<polygon fill="black" stroke="black" points="467.64,-36.4 457.22,-34.49 464.18,-42.48 467.64,-36.4"/>
</g>
<!-- ast.Name object at 0x7f7aa52ad120 -->
<g id="node11" class="node">
<title>ast.Name object at 0x7f7aa52ad120</title>
<path fill="#66cdaa" stroke="black" d="M435,-396C435,-396 405,-396 405,-396 399,-396 393,-390 393,-384 393,-384 393,-372 393,-372 393,-366 399,-360 405,-360 405,-360 435,-360 435,-360 441,-360 447,-366 447,-372 447,-372 447,-384 447,-384 447,-390 441,-396 435,-396"/>
<text text-anchor="middle" x="420" y="-374.3" font-family="Times,serif" font-size="14.00">Name</text>
</g>
<!-- ast.For object at 0x7f7aa52ad360&#45;&gt;ast.Name object at 0x7f7aa52ad120 -->
<g id="edge10" class="edge">
<title>ast.For object at 0x7f7aa52ad360&#45;&gt;ast.Name object at 0x7f7aa52ad120</title>
<path fill="none" stroke="black" d="M392.9,-431.7C397,-423.73 401.95,-414.1 406.49,-405.26"/>
<polygon fill="black" stroke="black" points="409.74,-406.6 411.2,-396.1 403.52,-403.4 409.74,-406.6"/>
</g>
<!-- ast.Call object at 0x7f7aa52ac040 -->
<g id="node12" class="node">
<title>ast.Call object at 0x7f7aa52ac040</title>
<path fill="#66cdaa" stroke="black" d="M252,-396C252,-396 222,-396 222,-396 216,-396 210,-390 210,-384 210,-384 210,-372 210,-372 210,-366 216,-360 222,-360 222,-360 252,-360 252,-360 258,-360 264,-366 264,-372 264,-372 264,-384 264,-384 264,-390 258,-396 252,-396"/>
<text text-anchor="middle" x="237" y="-374.3" font-family="Times,serif" font-size="14.00">Call</text>
</g>
<!-- ast.For object at 0x7f7aa52ad360&#45;&gt;ast.Call object at 0x7f7aa52ac040 -->
<g id="edge12" class="edge">
<title>ast.For object at 0x7f7aa52ad360&#45;&gt;ast.Call object at 0x7f7aa52ac040</title>
<path fill="none" stroke="black" d="M356.69,-436C333.18,-424.8 299.05,-408.55 273.25,-396.26"/>
<polygon fill="black" stroke="black" points="274.69,-393.07 264.16,-391.93 271.68,-399.39 274.69,-393.07"/>
</g>
<!-- ast.If object at 0x7f7aa52ace50 -->
<g id="node19" class="node">
<title>ast.If object at 0x7f7aa52ace50</title>
<path fill="#66cdaa" stroke="black" d="M363,-396C363,-396 333,-396 333,-396 327,-396 321,-390 321,-384 321,-384 321,-372 321,-372 321,-366 327,-360 333,-360 333,-360 363,-360 363,-360 369,-360 375,-366 375,-372 375,-372 375,-384 375,-384 375,-390 369,-396 363,-396"/>
<text text-anchor="middle" x="348" y="-374.3" font-family="Times,serif" font-size="14.00">If</text>
</g>
<!-- ast.For object at 0x7f7aa52ad360&#45;&gt;ast.If object at 0x7f7aa52ace50 -->
<g id="edge20" class="edge">
<title>ast.For object at 0x7f7aa52ad360&#45;&gt;ast.If object at 0x7f7aa52ace50</title>
<path fill="none" stroke="black" d="M375.1,-431.7C371,-423.73 366.05,-414.1 361.51,-405.26"/>
<polygon fill="black" stroke="black" points="364.48,-403.4 356.8,-396.1 358.26,-406.6 364.48,-403.4"/>
</g>
<!-- ast.Name object at 0x7f7aa52ad120&#45;&gt;ast.Store object at 0x7f7abbdee080 -->
<g id="edge11" class="edge">
<title>ast.Name object at 0x7f7aa52ad120&#45;&gt;ast.Store object at 0x7f7abbdee080</title>
<path fill="none" stroke="black" d="M436.81,-359.7C445.13,-351.14 455.31,-340.66 464.39,-331.3"/>
<polygon fill="black" stroke="black" points="466.93,-333.72 471.38,-324.1 461.91,-328.84 466.93,-333.72"/>
</g>
<!-- ast.Name object at 0x7f7aa52ad0c0 -->
<g id="node13" class="node">
<title>ast.Name object at 0x7f7aa52ad0c0</title>
<path fill="#66cdaa" stroke="black" d="M42,-252C42,-252 12,-252 12,-252 6,-252 0,-246 0,-240 0,-240 0,-228 0,-228 0,-222 6,-216 12,-216 12,-216 42,-216 42,-216 48,-216 54,-222 54,-228 54,-228 54,-240 54,-240 54,-246 48,-252 42,-252"/>
<text text-anchor="middle" x="27" y="-230.3" font-family="Times,serif" font-size="14.00">Name</text>
</g>
<!-- ast.Call object at 0x7f7aa52ac040&#45;&gt;ast.Name object at 0x7f7aa52ad0c0 -->
<g id="edge13" class="edge">
<title>ast.Call object at 0x7f7aa52ac040&#45;&gt;ast.Name object at 0x7f7aa52ad0c0</title>
<path fill="none" stroke="black" d="M209.92,-364.1C206.91,-362.7 203.9,-361.31 201,-360 164.37,-343.41 151.37,-346.43 118,-324 91.08,-305.91 65.11,-279.3 47.86,-259.9"/>
<polygon fill="black" stroke="black" points="50.46,-257.55 41.24,-252.33 45.19,-262.16 50.46,-257.55"/>
</g>
<!-- ast.Constant object at 0x7f7aa52ad4e0 -->
<g id="node14" class="node">
<title>ast.Constant object at 0x7f7aa52ad4e0</title>
<path fill="#66cdaa" stroke="black" d="M179.5,-324C179.5,-324 138.5,-324 138.5,-324 132.5,-324 126.5,-318 126.5,-312 126.5,-312 126.5,-300 126.5,-300 126.5,-294 132.5,-288 138.5,-288 138.5,-288 179.5,-288 179.5,-288 185.5,-288 191.5,-294 191.5,-300 191.5,-300 191.5,-312 191.5,-312 191.5,-318 185.5,-324 179.5,-324"/>
<text text-anchor="middle" x="159" y="-302.3" font-family="Times,serif" font-size="14.00">Constant</text>
</g>
<!-- ast.Call object at 0x7f7aa52ac040&#45;&gt;ast.Constant object at 0x7f7aa52ad4e0 -->
<g id="edge15" class="edge">
<title>ast.Call object at 0x7f7aa52ac040&#45;&gt;ast.Constant object at 0x7f7aa52ad4e0</title>
<path fill="none" stroke="black" d="M217.72,-359.7C208.08,-351.05 196.27,-340.45 185.77,-331.03"/>
<polygon fill="black" stroke="black" points="187.84,-328.18 178.06,-324.1 183.16,-333.39 187.84,-328.18"/>
</g>
<!-- ast.BinOp object at 0x7f7aa52ad330 -->
<g id="node15" class="node">
<title>ast.BinOp object at 0x7f7aa52ad330</title>
<path fill="#66cdaa" stroke="black" d="M252,-324C252,-324 222,-324 222,-324 216,-324 210,-318 210,-312 210,-312 210,-300 210,-300 210,-294 216,-288 222,-288 222,-288 252,-288 252,-288 258,-288 264,-294 264,-300 264,-300 264,-312 264,-312 264,-318 258,-324 252,-324"/>
<text text-anchor="middle" x="237" y="-302.3" font-family="Times,serif" font-size="14.00">BinOp</text>
</g>
<!-- ast.Call object at 0x7f7aa52ac040&#45;&gt;ast.BinOp object at 0x7f7aa52ad330 -->
<g id="edge16" class="edge">
<title>ast.Call object at 0x7f7aa52ac040&#45;&gt;ast.BinOp object at 0x7f7aa52ad330</title>
<path fill="none" stroke="black" d="M237,-359.7C237,-351.98 237,-342.71 237,-334.11"/>
<polygon fill="black" stroke="black" points="240.5,-334.1 237,-324.1 233.5,-334.1 240.5,-334.1"/>
</g>
<!-- ast.Name object at 0x7f7aa52ad0c0&#45;&gt;ast.Load object at 0x7f7abbdee020 -->
<g id="edge14" class="edge">
<title>ast.Name object at 0x7f7aa52ad0c0&#45;&gt;ast.Load object at 0x7f7abbdee020</title>
<path fill="none" stroke="black" d="M34.8,-215.81C51.02,-182.19 91.77,-107.92 150,-72 190.17,-47.22 325.99,-29.94 392.57,-22.74"/>
<polygon fill="black" stroke="black" points="393.07,-26.21 402.64,-21.67 392.33,-19.25 393.07,-26.21"/>
</g>
<!-- ast.Constant object at 0x7f7aa52ad2d0 -->
<g id="node16" class="node">
<title>ast.Constant object at 0x7f7aa52ad2d0</title>
<path fill="#66cdaa" stroke="black" d="M280.5,-252C280.5,-252 239.5,-252 239.5,-252 233.5,-252 227.5,-246 227.5,-240 227.5,-240 227.5,-228 227.5,-228 227.5,-222 233.5,-216 239.5,-216 239.5,-216 280.5,-216 280.5,-216 286.5,-216 292.5,-222 292.5,-228 292.5,-228 292.5,-240 292.5,-240 292.5,-246 286.5,-252 280.5,-252"/>
<text text-anchor="middle" x="260" y="-230.3" font-family="Times,serif" font-size="14.00">Constant</text>
</g>
<!-- ast.BinOp object at 0x7f7aa52ad330&#45;&gt;ast.Constant object at 0x7f7aa52ad2d0 -->
<g id="edge17" class="edge">
<title>ast.BinOp object at 0x7f7aa52ad330&#45;&gt;ast.Constant object at 0x7f7aa52ad2d0</title>
<path fill="none" stroke="black" d="M242.69,-287.7C245.25,-279.9 248.33,-270.51 251.18,-261.83"/>
<polygon fill="black" stroke="black" points="254.58,-262.7 254.38,-252.1 247.93,-260.51 254.58,-262.7"/>
</g>
<!-- ast.Add object at 0x7f7abbdee260 -->
<g id="node17" class="node">
<title>ast.Add object at 0x7f7abbdee260</title>
<path fill="#66cdaa" stroke="black" d="M114,-252C114,-252 84,-252 84,-252 78,-252 72,-246 72,-240 72,-240 72,-228 72,-228 72,-222 78,-216 84,-216 84,-216 114,-216 114,-216 120,-216 126,-222 126,-228 126,-228 126,-240 126,-240 126,-246 120,-252 114,-252"/>
<text text-anchor="middle" x="99" y="-230.3" font-family="Times,serif" font-size="14.00">Add</text>
</g>
<!-- ast.BinOp object at 0x7f7aa52ad330&#45;&gt;ast.Add object at 0x7f7abbdee260 -->
<g id="edge18" class="edge">
<title>ast.BinOp object at 0x7f7aa52ad330&#45;&gt;ast.Add object at 0x7f7abbdee260</title>
<path fill="none" stroke="black" d="M209.74,-291.17C188.47,-280.38 158.74,-265.3 135.43,-253.48"/>
<polygon fill="black" stroke="black" points="136.71,-250.2 126.21,-248.8 133.54,-256.45 136.71,-250.2"/>
</g>
<!-- ast.Constant object at 0x7f7aa52aeb90 -->
<g id="node18" class="node">
<title>ast.Constant object at 0x7f7aa52aeb90</title>
<path fill="#66cdaa" stroke="black" d="M197.5,-252C197.5,-252 156.5,-252 156.5,-252 150.5,-252 144.5,-246 144.5,-240 144.5,-240 144.5,-228 144.5,-228 144.5,-222 150.5,-216 156.5,-216 156.5,-216 197.5,-216 197.5,-216 203.5,-216 209.5,-222 209.5,-228 209.5,-228 209.5,-240 209.5,-240 209.5,-246 203.5,-252 197.5,-252"/>
<text text-anchor="middle" x="177" y="-230.3" font-family="Times,serif" font-size="14.00">Constant</text>
</g>
<!-- ast.BinOp object at 0x7f7aa52ad330&#45;&gt;ast.Constant object at 0x7f7aa52aeb90 -->
<g id="edge19" class="edge">
<title>ast.BinOp object at 0x7f7aa52ad330&#45;&gt;ast.Constant object at 0x7f7aa52aeb90</title>
<path fill="none" stroke="black" d="M222.17,-287.7C214.98,-279.3 206.2,-269.07 198.31,-259.86"/>
<polygon fill="black" stroke="black" points="200.83,-257.42 191.66,-252.1 195.51,-261.97 200.83,-257.42"/>
</g>
<!-- ast.Compare object at 0x7f7aa52ad060 -->
<g id="node20" class="node">
<title>ast.Compare object at 0x7f7aa52ad060</title>
<path fill="#66cdaa" stroke="black" d="M365.5,-252C365.5,-252 322.5,-252 322.5,-252 316.5,-252 310.5,-246 310.5,-240 310.5,-240 310.5,-228 310.5,-228 310.5,-222 316.5,-216 322.5,-216 322.5,-216 365.5,-216 365.5,-216 371.5,-216 377.5,-222 377.5,-228 377.5,-228 377.5,-240 377.5,-240 377.5,-246 371.5,-252 365.5,-252"/>
<text text-anchor="middle" x="344" y="-230.3" font-family="Times,serif" font-size="14.00">Compare</text>
</g>
<!-- ast.If object at 0x7f7aa52ace50&#45;&gt;ast.Compare object at 0x7f7aa52ad060 -->
<g id="edge21" class="edge">
<title>ast.If object at 0x7f7aa52ace50&#45;&gt;ast.Compare object at 0x7f7aa52ad060</title>
<path fill="none" stroke="black" d="M347.52,-359.87C346.84,-335.67 345.58,-291.21 344.77,-262.39"/>
<polygon fill="black" stroke="black" points="348.26,-262.09 344.48,-252.19 341.27,-262.28 348.26,-262.09"/>
</g>
<!-- ast.Expr object at 0x7f7aa5148d60 -->
<g id="node27" class="node">
<title>ast.Expr object at 0x7f7aa5148d60</title>
<path fill="#66cdaa" stroke="black" d="M423,-324C423,-324 393,-324 393,-324 387,-324 381,-318 381,-312 381,-312 381,-300 381,-300 381,-294 387,-288 393,-288 393,-288 423,-288 423,-288 429,-288 435,-294 435,-300 435,-300 435,-312 435,-312 435,-318 429,-324 423,-324"/>
<text text-anchor="middle" x="408" y="-302.3" font-family="Times,serif" font-size="14.00">Expr</text>
</g>
<!-- ast.If object at 0x7f7aa52ace50&#45;&gt;ast.Expr object at 0x7f7aa5148d60 -->
<g id="edge30" class="edge">
<title>ast.If object at 0x7f7aa52ace50&#45;&gt;ast.Expr object at 0x7f7aa5148d60</title>
<path fill="none" stroke="black" d="M362.83,-359.7C370.02,-351.3 378.8,-341.07 386.69,-331.86"/>
<polygon fill="black" stroke="black" points="389.49,-333.97 393.34,-324.1 384.17,-329.42 389.49,-333.97"/>
</g>
<!-- ast.BinOp object at 0x7f7aae491e10 -->
<g id="node21" class="node">
<title>ast.BinOp object at 0x7f7aae491e10</title>
<path fill="#66cdaa" stroke="black" d="M201,-180C201,-180 171,-180 171,-180 165,-180 159,-174 159,-168 159,-168 159,-156 159,-156 159,-150 165,-144 171,-144 171,-144 201,-144 201,-144 207,-144 213,-150 213,-156 213,-156 213,-168 213,-168 213,-174 207,-180 201,-180"/>
<text text-anchor="middle" x="186" y="-158.3" font-family="Times,serif" font-size="14.00">BinOp</text>
</g>
<!-- ast.Compare object at 0x7f7aa52ad060&#45;&gt;ast.BinOp object at 0x7f7aae491e10 -->
<g id="edge22" class="edge">
<title>ast.Compare object at 0x7f7aa52ad060&#45;&gt;ast.BinOp object at 0x7f7aae491e10</title>
<path fill="none" stroke="black" d="M310.29,-218.42C285.97,-207.87 252.4,-193.19 223,-180 222.8,-179.91 222.6,-179.82 222.39,-179.73"/>
<polygon fill="black" stroke="black" points="223.61,-176.43 213.05,-175.5 220.72,-182.81 223.61,-176.43"/>
</g>
<!-- ast.Eq object at 0x7f7abbdee950 -->
<g id="node25" class="node">
<title>ast.Eq object at 0x7f7abbdee950</title>
<path fill="#66cdaa" stroke="black" d="M357,-180C357,-180 327,-180 327,-180 321,-180 315,-174 315,-168 315,-168 315,-156 315,-156 315,-150 321,-144 327,-144 327,-144 357,-144 357,-144 363,-144 369,-150 369,-156 369,-156 369,-168 369,-168 369,-174 363,-180 357,-180"/>
<text text-anchor="middle" x="342" y="-158.3" font-family="Times,serif" font-size="14.00">Eq</text>
</g>
<!-- ast.Compare object at 0x7f7aa52ad060&#45;&gt;ast.Eq object at 0x7f7abbdee950 -->
<g id="edge28" class="edge">
<title>ast.Compare object at 0x7f7aa52ad060&#45;&gt;ast.Eq object at 0x7f7abbdee950</title>
<path fill="none" stroke="black" d="M343.51,-215.7C343.29,-207.98 343.02,-198.71 342.77,-190.11"/>
<polygon fill="black" stroke="black" points="346.27,-190 342.49,-180.1 339.28,-190.2 346.27,-190"/>
</g>
<!-- ast.Constant object at 0x7f7aa51496f0 -->
<g id="node26" class="node">
<title>ast.Constant object at 0x7f7aa51496f0</title>
<path fill="#66cdaa" stroke="black" d="M284.5,-180C284.5,-180 243.5,-180 243.5,-180 237.5,-180 231.5,-174 231.5,-168 231.5,-168 231.5,-156 231.5,-156 231.5,-150 237.5,-144 243.5,-144 243.5,-144 284.5,-144 284.5,-144 290.5,-144 296.5,-150 296.5,-156 296.5,-156 296.5,-168 296.5,-168 296.5,-174 290.5,-180 284.5,-180"/>
<text text-anchor="middle" x="264" y="-158.3" font-family="Times,serif" font-size="14.00">Constant</text>
</g>
<!-- ast.Compare object at 0x7f7aa52ad060&#45;&gt;ast.Constant object at 0x7f7aa51496f0 -->
<g id="edge29" class="edge">
<title>ast.Compare object at 0x7f7aa52ad060&#45;&gt;ast.Constant object at 0x7f7aa51496f0</title>
<path fill="none" stroke="black" d="M324.22,-215.7C314.25,-206.97 301.99,-196.24 291.14,-186.75"/>
<polygon fill="black" stroke="black" points="293.38,-184.06 283.55,-180.1 288.77,-189.32 293.38,-184.06"/>
</g>
<!-- ast.Name object at 0x7f7aadc6e860 -->
<g id="node22" class="node">
<title>ast.Name object at 0x7f7aadc6e860</title>
<path fill="#66cdaa" stroke="black" d="M201,-108C201,-108 171,-108 171,-108 165,-108 159,-102 159,-96 159,-96 159,-84 159,-84 159,-78 165,-72 171,-72 171,-72 201,-72 201,-72 207,-72 213,-78 213,-84 213,-84 213,-96 213,-96 213,-102 207,-108 201,-108"/>
<text text-anchor="middle" x="186" y="-86.3" font-family="Times,serif" font-size="14.00">Name</text>
</g>
<!-- ast.BinOp object at 0x7f7aae491e10&#45;&gt;ast.Name object at 0x7f7aadc6e860 -->
<g id="edge23" class="edge">
<title>ast.BinOp object at 0x7f7aae491e10&#45;&gt;ast.Name object at 0x7f7aadc6e860</title>
<path fill="none" stroke="black" d="M186,-143.7C186,-135.98 186,-126.71 186,-118.11"/>
<polygon fill="black" stroke="black" points="189.5,-118.1 186,-108.1 182.5,-118.1 189.5,-118.1"/>
</g>
<!-- ast.Mod object at 0x7f7abbdee440 -->
<g id="node23" class="node">
<title>ast.Mod object at 0x7f7abbdee440</title>
<path fill="#66cdaa" stroke="black" d="M345,-108C345,-108 315,-108 315,-108 309,-108 303,-102 303,-96 303,-96 303,-84 303,-84 303,-78 309,-72 315,-72 315,-72 345,-72 345,-72 351,-72 357,-78 357,-84 357,-84 357,-96 357,-96 357,-102 351,-108 345,-108"/>
<text text-anchor="middle" x="330" y="-86.3" font-family="Times,serif" font-size="14.00">Mod</text>
</g>
<!-- ast.BinOp object at 0x7f7aae491e10&#45;&gt;ast.Mod object at 0x7f7abbdee440 -->
<g id="edge25" class="edge">
<title>ast.BinOp object at 0x7f7aae491e10&#45;&gt;ast.Mod object at 0x7f7abbdee440</title>
<path fill="none" stroke="black" d="M213.09,-147.83C235.77,-136.81 268.36,-120.97 293.37,-108.81"/>
<polygon fill="black" stroke="black" points="295.08,-111.87 302.55,-104.35 292.02,-105.57 295.08,-111.87"/>
</g>
<!-- ast.Name object at 0x7f7aa5148130 -->
<g id="node24" class="node">
<title>ast.Name object at 0x7f7aa5148130</title>
<path fill="#66cdaa" stroke="black" d="M273,-108C273,-108 243,-108 243,-108 237,-108 231,-102 231,-96 231,-96 231,-84 231,-84 231,-78 237,-72 243,-72 243,-72 273,-72 273,-72 279,-72 285,-78 285,-84 285,-84 285,-96 285,-96 285,-102 279,-108 273,-108"/>
<text text-anchor="middle" x="258" y="-86.3" font-family="Times,serif" font-size="14.00">Name</text>
</g>
<!-- ast.BinOp object at 0x7f7aae491e10&#45;&gt;ast.Name object at 0x7f7aa5148130 -->
<g id="edge26" class="edge">
<title>ast.BinOp object at 0x7f7aae491e10&#45;&gt;ast.Name object at 0x7f7aa5148130</title>
<path fill="none" stroke="black" d="M203.8,-143.7C212.6,-135.14 223.38,-124.66 233,-115.3"/>
<polygon fill="black" stroke="black" points="235.68,-117.58 240.41,-108.1 230.8,-112.57 235.68,-117.58"/>
</g>
<!-- ast.Name object at 0x7f7aadc6e860&#45;&gt;ast.Load object at 0x7f7abbdee020 -->
<g id="edge24" class="edge">
<title>ast.Name object at 0x7f7aadc6e860&#45;&gt;ast.Load object at 0x7f7abbdee020</title>
<path fill="none" stroke="black" d="M213.29,-75.45C216.2,-74.21 219.14,-73.03 222,-72 280.47,-50.96 351.02,-34.85 393.1,-26.16"/>
<polygon fill="black" stroke="black" points="393.81,-29.59 402.91,-24.17 392.41,-22.73 393.81,-29.59"/>
</g>
<!-- ast.Name object at 0x7f7aa5148130&#45;&gt;ast.Load object at 0x7f7abbdee020 -->
<g id="edge27" class="edge">
<title>ast.Name object at 0x7f7aa5148130&#45;&gt;ast.Load object at 0x7f7abbdee020</title>
<path fill="none" stroke="black" d="M285.03,-75.99C288.05,-74.61 291.08,-73.26 294,-72 327.27,-57.68 365.79,-42.83 393.32,-32.5"/>
<polygon fill="black" stroke="black" points="394.79,-35.69 402.94,-28.91 392.35,-29.13 394.79,-35.69"/>
</g>
<!-- ast.Call object at 0x7f7aa5149f30 -->
<g id="node28" class="node">
<title>ast.Call object at 0x7f7aa5149f30</title>
<path fill="#66cdaa" stroke="black" d="M438,-252C438,-252 408,-252 408,-252 402,-252 396,-246 396,-240 396,-240 396,-228 396,-228 396,-222 402,-216 408,-216 408,-216 438,-216 438,-216 444,-216 450,-222 450,-228 450,-228 450,-240 450,-240 450,-246 444,-252 438,-252"/>
<text text-anchor="middle" x="423" y="-230.3" font-family="Times,serif" font-size="14.00">Call</text>
</g>
<!-- ast.Expr object at 0x7f7aa5148d60&#45;&gt;ast.Call object at 0x7f7aa5149f30 -->
<g id="edge31" class="edge">
<title>ast.Expr object at 0x7f7aa5148d60&#45;&gt;ast.Call object at 0x7f7aa5149f30</title>
<path fill="none" stroke="black" d="M411.71,-287.7C413.36,-279.98 415.35,-270.71 417.19,-262.11"/>
<polygon fill="black" stroke="black" points="420.66,-262.62 419.33,-252.1 413.82,-261.15 420.66,-262.62"/>
</g>
<!-- ast.Attribute object at 0x7f7aa5148730 -->
<g id="node29" class="node">
<title>ast.Attribute object at 0x7f7aa5148730</title>
<path fill="#66cdaa" stroke="black" d="M440.5,-180C440.5,-180 399.5,-180 399.5,-180 393.5,-180 387.5,-174 387.5,-168 387.5,-168 387.5,-156 387.5,-156 387.5,-150 393.5,-144 399.5,-144 399.5,-144 440.5,-144 440.5,-144 446.5,-144 452.5,-150 452.5,-156 452.5,-156 452.5,-168 452.5,-168 452.5,-174 446.5,-180 440.5,-180"/>
<text text-anchor="middle" x="420" y="-158.3" font-family="Times,serif" font-size="14.00">Attribute</text>
</g>
<!-- ast.Call object at 0x7f7aa5149f30&#45;&gt;ast.Attribute object at 0x7f7aa5148730 -->
<g id="edge32" class="edge">
<title>ast.Call object at 0x7f7aa5149f30&#45;&gt;ast.Attribute object at 0x7f7aa5148730</title>
<path fill="none" stroke="black" d="M422.26,-215.7C421.93,-207.98 421.53,-198.71 421.16,-190.11"/>
<polygon fill="black" stroke="black" points="424.66,-189.95 420.73,-180.1 417.66,-190.25 424.66,-189.95"/>
</g>
<!-- ast.Name object at 0x7f7aa5148550 -->
<g id="node31" class="node">
<title>ast.Name object at 0x7f7aa5148550</title>
<path fill="#66cdaa" stroke="black" d="M513,-180C513,-180 483,-180 483,-180 477,-180 471,-174 471,-168 471,-168 471,-156 471,-156 471,-150 477,-144 483,-144 483,-144 513,-144 513,-144 519,-144 525,-150 525,-156 525,-156 525,-168 525,-168 525,-174 519,-180 513,-180"/>
<text text-anchor="middle" x="498" y="-158.3" font-family="Times,serif" font-size="14.00">Name</text>
</g>
<!-- ast.Call object at 0x7f7aa5149f30&#45;&gt;ast.Name object at 0x7f7aa5148550 -->
<g id="edge36" class="edge">
<title>ast.Call object at 0x7f7aa5149f30&#45;&gt;ast.Name object at 0x7f7aa5148550</title>
<path fill="none" stroke="black" d="M441.54,-215.7C450.8,-207.05 462.16,-196.45 472.26,-187.03"/>
<polygon fill="black" stroke="black" points="474.75,-189.49 479.67,-180.1 469.98,-184.37 474.75,-189.49"/>
</g>
<!-- ast.Attribute object at 0x7f7aa5148730&#45;&gt;ast.Load object at 0x7f7abbdee020 -->
<g id="edge35" class="edge">
<title>ast.Attribute object at 0x7f7aa5148730&#45;&gt;ast.Load object at 0x7f7abbdee020</title>
<path fill="none" stroke="black" d="M427.89,-143.75C432.11,-133.58 436.86,-120.33 439,-108 442.57,-87.47 439.92,-64.02 436.6,-46.34"/>
<polygon fill="black" stroke="black" points="439.95,-45.24 434.49,-36.16 433.09,-46.66 439.95,-45.24"/>
</g>
<!-- ast.Name object at 0x7f7aa5148070 -->
<g id="node30" class="node">
<title>ast.Name object at 0x7f7aa5148070</title>
<path fill="#66cdaa" stroke="black" d="M418,-108C418,-108 388,-108 388,-108 382,-108 376,-102 376,-96 376,-96 376,-84 376,-84 376,-78 382,-72 388,-72 388,-72 418,-72 418,-72 424,-72 430,-78 430,-84 430,-84 430,-96 430,-96 430,-102 424,-108 418,-108"/>
<text text-anchor="middle" x="403" y="-86.3" font-family="Times,serif" font-size="14.00">Name</text>
</g>
<!-- ast.Attribute object at 0x7f7aa5148730&#45;&gt;ast.Name object at 0x7f7aa5148070 -->
<g id="edge33" class="edge">
<title>ast.Attribute object at 0x7f7aa5148730&#45;&gt;ast.Name object at 0x7f7aa5148070</title>
<path fill="none" stroke="black" d="M415.8,-143.7C413.9,-135.9 411.62,-126.51 409.52,-117.83"/>
<polygon fill="black" stroke="black" points="412.92,-117 407.15,-108.1 406.11,-118.65 412.92,-117"/>
</g>
<!-- ast.Name object at 0x7f7aa5148070&#45;&gt;ast.Load object at 0x7f7abbdee020 -->
<g id="edge34" class="edge">
<title>ast.Name object at 0x7f7aa5148070&#45;&gt;ast.Load object at 0x7f7abbdee020</title>
<path fill="none" stroke="black" d="M409.67,-71.7C412.71,-63.81 416.38,-54.3 419.76,-45.55"/>
<polygon fill="black" stroke="black" points="423.07,-46.69 423.4,-36.1 416.54,-44.17 423.07,-46.69"/>
</g>
<!-- ast.Name object at 0x7f7aa5148550&#45;&gt;ast.Load object at 0x7f7abbdee020 -->
<g id="edge37" class="edge">
<title>ast.Name object at 0x7f7aa5148550&#45;&gt;ast.Load object at 0x7f7abbdee020</title>
<path fill="none" stroke="black" d="M489.8,-143.87C478.06,-119.35 456.35,-74.03 442.57,-45.26"/>
<polygon fill="black" stroke="black" points="445.71,-43.7 438.23,-36.19 439.39,-46.72 445.71,-43.7"/>
</g>
<!-- ast.Name object at 0x7f7aa5148250 -->
<g id="node33" class="node">
<title>ast.Name object at 0x7f7aa5148250</title>
<path fill="#66cdaa" stroke="black" d="M623,-324C623,-324 593,-324 593,-324 587,-324 581,-318 581,-312 581,-312 581,-300 581,-300 581,-294 587,-288 593,-288 593,-288 623,-288 623,-288 629,-288 635,-294 635,-300 635,-300 635,-312 635,-312 635,-318 629,-324 623,-324"/>
<text text-anchor="middle" x="608" y="-302.3" font-family="Times,serif" font-size="14.00">Name</text>
</g>
<!-- ast.Return object at 0x7f7aa514a770&#45;&gt;ast.Name object at 0x7f7aa5148250 -->
<g id="edge39" class="edge">
<title>ast.Return object at 0x7f7aa514a770&#45;&gt;ast.Name object at 0x7f7aa5148250</title>
<path fill="none" stroke="black" d="M578.1,-431.87C583.92,-407.56 594.63,-362.82 601.53,-334.01"/>
<polygon fill="black" stroke="black" points="604.96,-334.73 603.88,-324.19 598.15,-333.1 604.96,-334.73"/>
</g>
<!-- ast.Name object at 0x7f7aa5148250&#45;&gt;ast.Load object at 0x7f7abbdee020 -->
<g id="edge40" class="edge">
<title>ast.Name object at 0x7f7aa5148250&#45;&gt;ast.Load object at 0x7f7abbdee020</title>
<path fill="none" stroke="black" d="M612.36,-287.82C621.91,-245.89 639.98,-136.98 589,-72 560.15,-35.22 504.9,-23.73 467.74,-20.27"/>
<polygon fill="black" stroke="black" points="467.55,-16.75 457.31,-19.47 467.01,-23.73 467.55,-16.75"/>
</g>
</g>
</svg>
