<?xml version="1.0" encoding="UTF-8" standalone="no"?>
<!DOCTYPE svg PUBLIC "-//W3C//DTD SVG 1.1//EN"
 "http://www.w3.org/Graphics/SVG/1.1/DTD/svg11.dtd">
<!-- Generated by graphviz version 2.43.0 (0)
 -->
<!-- Title: %3 Pages: 1 -->
<svg width="612pt" height="548pt"
 viewBox="0.00 0.00 611.67 548.00" xmlns="http://www.w3.org/2000/svg" xmlns:xlink="http://www.w3.org/1999/xlink">
<g id="graph0" class="graph" transform="scale(1 1) rotate(0) translate(4 544)">
<title>%3</title>
<polygon fill="white" stroke="transparent" points="-4,4 -4,-544 607.67,-544 607.67,4 -4,4"/>
<!-- ast.Module object at 0x7fdea0305360 -->
<g id="node1" class="node">
<title>ast.Module object at 0x7fdea0305360</title>
<path fill="#66cdaa" stroke="black" d="M305.5,-540C305.5,-540 270.5,-540 270.5,-540 264.5,-540 258.5,-534 258.5,-528 258.5,-528 258.5,-516 258.5,-516 258.5,-510 264.5,-504 270.5,-504 270.5,-504 305.5,-504 305.5,-504 311.5,-504 317.5,-510 317.5,-516 317.5,-516 317.5,-528 317.5,-528 317.5,-534 311.5,-540 305.5,-540"/>
<text text-anchor="middle" x="288" y="-518.3" font-family="Times,serif" font-size="14.00">Module</text>
</g>
<!-- ast.FunctionDef object at 0x7fdea0307520 -->
<g id="node2" class="node">
<title>ast.FunctionDef object at 0x7fdea0307520</title>
<path fill="#66cdaa" stroke="black" d="M318.5,-468C318.5,-468 257.5,-468 257.5,-468 251.5,-468 245.5,-462 245.5,-456 245.5,-456 245.5,-444 245.5,-444 245.5,-438 251.5,-432 257.5,-432 257.5,-432 318.5,-432 318.5,-432 324.5,-432 330.5,-438 330.5,-444 330.5,-444 330.5,-456 330.5,-456 330.5,-462 324.5,-468 318.5,-468"/>
<text text-anchor="middle" x="288" y="-446.3" font-family="Times,serif" font-size="14.00">FunctionDef</text>
</g>
<!-- ast.Module object at 0x7fdea0305360&#45;&gt;ast.FunctionDef object at 0x7fdea0307520 -->
<g id="edge1" class="edge">
<title>ast.Module object at 0x7fdea0305360&#45;&gt;ast.FunctionDef object at 0x7fdea0307520</title>
<path fill="none" stroke="black" d="M288,-503.7C288,-495.98 288,-486.71 288,-478.11"/>
<polygon fill="black" stroke="black" points="291.5,-478.1 288,-468.1 284.5,-478.1 291.5,-478.1"/>
</g>
<!-- ast.arguments object at 0x7fdea03066b0 -->
<g id="node3" class="node">
<title>ast.arguments object at 0x7fdea03066b0</title>
<path fill="#66cdaa" stroke="black" d="M86,-396C86,-396 36,-396 36,-396 30,-396 24,-390 24,-384 24,-384 24,-372 24,-372 24,-366 30,-360 36,-360 36,-360 86,-360 86,-360 92,-360 98,-366 98,-372 98,-372 98,-384 98,-384 98,-390 92,-396 86,-396"/>
<text text-anchor="middle" x="61" y="-374.3" font-family="Times,serif" font-size="14.00">arguments</text>
</g>
<!-- ast.FunctionDef object at 0x7fdea0307520&#45;&gt;ast.arguments object at 0x7fdea03066b0 -->
<g id="edge2" class="edge">
<title>ast.FunctionDef object at 0x7fdea0307520&#45;&gt;ast.arguments object at 0x7fdea03066b0</title>
<path fill="none" stroke="black" d="M245.3,-435.83C206.15,-423.76 148.28,-405.91 107.86,-393.45"/>
<polygon fill="black" stroke="black" points="108.83,-390.09 98.24,-390.48 106.77,-396.78 108.83,-390.09"/>
</g>
<!-- ast.Assign object at 0x7fddfa7917b0 -->
<g id="node5" class="node">
<title>ast.Assign object at 0x7fddfa7917b0</title>
<path fill="#66cdaa" stroke="black" d="M192,-396C192,-396 162,-396 162,-396 156,-396 150,-390 150,-384 150,-384 150,-372 150,-372 150,-366 156,-360 162,-360 162,-360 192,-360 192,-360 198,-360 204,-366 204,-372 204,-372 204,-384 204,-384 204,-390 198,-396 192,-396"/>
<text text-anchor="middle" x="177" y="-374.3" font-family="Times,serif" font-size="14.00">Assign</text>
</g>
<!-- ast.FunctionDef object at 0x7fdea0307520&#45;&gt;ast.Assign object at 0x7fddfa7917b0 -->
<g id="edge4" class="edge">
<title>ast.FunctionDef object at 0x7fdea0307520&#45;&gt;ast.Assign object at 0x7fddfa7917b0</title>
<path fill="none" stroke="black" d="M260.85,-431.88C246.47,-422.81 228.62,-411.55 213.09,-401.76"/>
<polygon fill="black" stroke="black" points="214.58,-398.56 204.26,-396.19 210.85,-404.48 214.58,-398.56"/>
</g>
<!-- ast.Assign object at 0x7fddfa7938e0 -->
<g id="node9" class="node">
<title>ast.Assign object at 0x7fddfa7938e0</title>
<path fill="#66cdaa" stroke="black" d="M303,-396C303,-396 273,-396 273,-396 267,-396 261,-390 261,-384 261,-384 261,-372 261,-372 261,-366 267,-360 273,-360 273,-360 303,-360 303,-360 309,-360 315,-366 315,-372 315,-372 315,-384 315,-384 315,-390 309,-396 303,-396"/>
<text text-anchor="middle" x="288" y="-374.3" font-family="Times,serif" font-size="14.00">Assign</text>
</g>
<!-- ast.FunctionDef object at 0x7fdea0307520&#45;&gt;ast.Assign object at 0x7fddfa7938e0 -->
<g id="edge8" class="edge">
<title>ast.FunctionDef object at 0x7fdea0307520&#45;&gt;ast.Assign object at 0x7fddfa7938e0</title>
<path fill="none" stroke="black" d="M288,-431.7C288,-423.98 288,-414.71 288,-406.11"/>
<polygon fill="black" stroke="black" points="291.5,-406.1 288,-396.1 284.5,-406.1 291.5,-406.1"/>
</g>
<!-- ast.If object at 0x7fdea0208730 -->
<g id="node12" class="node">
<title>ast.If object at 0x7fdea0208730</title>
<path fill="#66cdaa" stroke="black" d="M409,-396C409,-396 379,-396 379,-396 373,-396 367,-390 367,-384 367,-384 367,-372 367,-372 367,-366 373,-360 379,-360 379,-360 409,-360 409,-360 415,-360 421,-366 421,-372 421,-372 421,-384 421,-384 421,-390 415,-396 409,-396"/>
<text text-anchor="middle" x="394" y="-374.3" font-family="Times,serif" font-size="14.00">If</text>
</g>
<!-- ast.FunctionDef object at 0x7fdea0307520&#45;&gt;ast.If object at 0x7fdea0208730 -->
<g id="edge12" class="edge">
<title>ast.FunctionDef object at 0x7fdea0307520&#45;&gt;ast.If object at 0x7fdea0208730</title>
<path fill="none" stroke="black" d="M313.93,-431.88C327.66,-422.81 344.71,-411.55 359.54,-401.76"/>
<polygon fill="black" stroke="black" points="361.55,-404.62 367.97,-396.19 357.7,-398.78 361.55,-404.62"/>
</g>
<!-- ast.Return object at 0x7fdea03b1570 -->
<g id="node29" class="node">
<title>ast.Return object at 0x7fdea03b1570</title>
<path fill="#66cdaa" stroke="black" d="M534,-396C534,-396 504,-396 504,-396 498,-396 492,-390 492,-384 492,-384 492,-372 492,-372 492,-366 498,-360 504,-360 504,-360 534,-360 534,-360 540,-360 546,-366 546,-372 546,-372 546,-384 546,-384 546,-390 540,-396 534,-396"/>
<text text-anchor="middle" x="519" y="-374.3" font-family="Times,serif" font-size="14.00">Return</text>
</g>
<!-- ast.FunctionDef object at 0x7fdea0307520&#45;&gt;ast.Return object at 0x7fdea03b1570 -->
<g id="edge35" class="edge">
<title>ast.FunctionDef object at 0x7fdea0307520&#45;&gt;ast.Return object at 0x7fdea03b1570</title>
<path fill="none" stroke="black" d="M330.64,-436.08C374.11,-422.9 440.87,-402.68 482.13,-390.17"/>
<polygon fill="black" stroke="black" points="483.24,-393.49 491.79,-387.24 481.21,-386.8 483.24,-393.49"/>
</g>
<!-- ast.arg object at 0x7fdea03058a0 -->
<g id="node4" class="node">
<title>ast.arg object at 0x7fdea03058a0</title>
<path fill="#66cdaa" stroke="black" d="M42,-324C42,-324 12,-324 12,-324 6,-324 0,-318 0,-312 0,-312 0,-300 0,-300 0,-294 6,-288 12,-288 12,-288 42,-288 42,-288 48,-288 54,-294 54,-300 54,-300 54,-312 54,-312 54,-318 48,-324 42,-324"/>
<text text-anchor="middle" x="27" y="-302.3" font-family="Times,serif" font-size="14.00">arg</text>
</g>
<!-- ast.arguments object at 0x7fdea03066b0&#45;&gt;ast.arg object at 0x7fdea03058a0 -->
<g id="edge3" class="edge">
<title>ast.arguments object at 0x7fdea03066b0&#45;&gt;ast.arg object at 0x7fdea03058a0</title>
<path fill="none" stroke="black" d="M52.6,-359.7C48.73,-351.73 44.05,-342.1 39.76,-333.26"/>
<polygon fill="black" stroke="black" points="42.83,-331.57 35.31,-324.1 36.53,-334.63 42.83,-331.57"/>
</g>
<!-- ast.Name object at 0x7fddfa792f80 -->
<g id="node6" class="node">
<title>ast.Name object at 0x7fddfa792f80</title>
<path fill="#66cdaa" stroke="black" d="M114,-324C114,-324 84,-324 84,-324 78,-324 72,-318 72,-312 72,-312 72,-300 72,-300 72,-294 78,-288 84,-288 84,-288 114,-288 114,-288 120,-288 126,-294 126,-300 126,-300 126,-312 126,-312 126,-318 120,-324 114,-324"/>
<text text-anchor="middle" x="99" y="-302.3" font-family="Times,serif" font-size="14.00">Name</text>
</g>
<!-- ast.Assign object at 0x7fddfa7917b0&#45;&gt;ast.Name object at 0x7fddfa792f80 -->
<g id="edge5" class="edge">
<title>ast.Assign object at 0x7fddfa7917b0&#45;&gt;ast.Name object at 0x7fddfa792f80</title>
<path fill="none" stroke="black" d="M157.72,-359.7C148.08,-351.05 136.27,-340.45 125.77,-331.03"/>
<polygon fill="black" stroke="black" points="127.84,-328.18 118.06,-324.1 123.16,-333.39 127.84,-328.18"/>
</g>
<!-- ast.Constant object at 0x7fddfa790df0 -->
<g id="node8" class="node">
<title>ast.Constant object at 0x7fddfa790df0</title>
<path fill="#66cdaa" stroke="black" d="M197.5,-324C197.5,-324 156.5,-324 156.5,-324 150.5,-324 144.5,-318 144.5,-312 144.5,-312 144.5,-300 144.5,-300 144.5,-294 150.5,-288 156.5,-288 156.5,-288 197.5,-288 197.5,-288 203.5,-288 209.5,-294 209.5,-300 209.5,-300 209.5,-312 209.5,-312 209.5,-318 203.5,-324 197.5,-324"/>
<text text-anchor="middle" x="177" y="-302.3" font-family="Times,serif" font-size="14.00">Constant</text>
</g>
<!-- ast.Assign object at 0x7fddfa7917b0&#45;&gt;ast.Constant object at 0x7fddfa790df0 -->
<g id="edge7" class="edge">
<title>ast.Assign object at 0x7fddfa7917b0&#45;&gt;ast.Constant object at 0x7fddfa790df0</title>
<path fill="none" stroke="black" d="M177,-359.7C177,-351.98 177,-342.71 177,-334.11"/>
<polygon fill="black" stroke="black" points="180.5,-334.1 177,-324.1 173.5,-334.1 180.5,-334.1"/>
</g>
<!-- ast.Store object at 0x7fdea37edfc0 -->
<g id="node7" class="node">
<title>ast.Store object at 0x7fdea37edfc0</title>
<path fill="#66cdaa" stroke="black" d="M125,-252C125,-252 95,-252 95,-252 89,-252 83,-246 83,-240 83,-240 83,-228 83,-228 83,-222 89,-216 95,-216 95,-216 125,-216 125,-216 131,-216 137,-222 137,-228 137,-228 137,-240 137,-240 137,-246 131,-252 125,-252"/>
<text text-anchor="middle" x="110" y="-230.3" font-family="Times,serif" font-size="14.00">Store</text>
</g>
<!-- ast.Name object at 0x7fddfa792f80&#45;&gt;ast.Store object at 0x7fdea37edfc0 -->
<g id="edge6" class="edge">
<title>ast.Name object at 0x7fddfa792f80&#45;&gt;ast.Store object at 0x7fdea37edfc0</title>
<path fill="none" stroke="black" d="M101.72,-287.7C102.93,-279.98 104.39,-270.71 105.74,-262.11"/>
<polygon fill="black" stroke="black" points="109.22,-262.53 107.31,-252.1 102.3,-261.44 109.22,-262.53"/>
</g>
<!-- ast.Name object at 0x7fddfa791a80 -->
<g id="node10" class="node">
<title>ast.Name object at 0x7fddfa791a80</title>
<path fill="#66cdaa" stroke="black" d="M270,-324C270,-324 240,-324 240,-324 234,-324 228,-318 228,-312 228,-312 228,-300 228,-300 228,-294 234,-288 240,-288 240,-288 270,-288 270,-288 276,-288 282,-294 282,-300 282,-300 282,-312 282,-312 282,-318 276,-324 270,-324"/>
<text text-anchor="middle" x="255" y="-302.3" font-family="Times,serif" font-size="14.00">Name</text>
</g>
<!-- ast.Assign object at 0x7fddfa7938e0&#45;&gt;ast.Name object at 0x7fddfa791a80 -->
<g id="edge9" class="edge">
<title>ast.Assign object at 0x7fddfa7938e0&#45;&gt;ast.Name object at 0x7fddfa791a80</title>
<path fill="none" stroke="black" d="M279.84,-359.7C276.09,-351.73 271.55,-342.1 267.38,-333.26"/>
<polygon fill="black" stroke="black" points="270.49,-331.66 263.06,-324.1 264.16,-334.64 270.49,-331.66"/>
</g>
<!-- ast.Constant object at 0x7fddfa7934c0 -->
<g id="node11" class="node">
<title>ast.Constant object at 0x7fddfa7934c0</title>
<path fill="#66cdaa" stroke="black" d="M353.5,-324C353.5,-324 312.5,-324 312.5,-324 306.5,-324 300.5,-318 300.5,-312 300.5,-312 300.5,-300 300.5,-300 300.5,-294 306.5,-288 312.5,-288 312.5,-288 353.5,-288 353.5,-288 359.5,-288 365.5,-294 365.5,-300 365.5,-300 365.5,-312 365.5,-312 365.5,-318 359.5,-324 353.5,-324"/>
<text text-anchor="middle" x="333" y="-302.3" font-family="Times,serif" font-size="14.00">Constant</text>
</g>
<!-- ast.Assign object at 0x7fddfa7938e0&#45;&gt;ast.Constant object at 0x7fddfa7934c0 -->
<g id="edge11" class="edge">
<title>ast.Assign object at 0x7fddfa7938e0&#45;&gt;ast.Constant object at 0x7fddfa7934c0</title>
<path fill="none" stroke="black" d="M299.12,-359.7C304.36,-351.56 310.7,-341.69 316.48,-332.7"/>
<polygon fill="black" stroke="black" points="319.54,-334.41 322,-324.1 313.65,-330.62 319.54,-334.41"/>
</g>
<!-- ast.Name object at 0x7fddfa791a80&#45;&gt;ast.Store object at 0x7fdea37edfc0 -->
<g id="edge10" class="edge">
<title>ast.Name object at 0x7fddfa791a80&#45;&gt;ast.Store object at 0x7fdea37edfc0</title>
<path fill="none" stroke="black" d="M227.73,-291.83C204.74,-280.74 171.65,-264.76 146.41,-252.58"/>
<polygon fill="black" stroke="black" points="147.68,-249.3 137.15,-248.11 144.63,-255.61 147.68,-249.3"/>
</g>
<!-- ast.Compare object at 0x7fdea0208e50 -->
<g id="node13" class="node">
<title>ast.Compare object at 0x7fdea0208e50</title>
<path fill="#66cdaa" stroke="black" d="M215.5,-252C215.5,-252 172.5,-252 172.5,-252 166.5,-252 160.5,-246 160.5,-240 160.5,-240 160.5,-228 160.5,-228 160.5,-222 166.5,-216 172.5,-216 172.5,-216 215.5,-216 215.5,-216 221.5,-216 227.5,-222 227.5,-228 227.5,-228 227.5,-240 227.5,-240 227.5,-246 221.5,-252 215.5,-252"/>
<text text-anchor="middle" x="194" y="-230.3" font-family="Times,serif" font-size="14.00">Compare</text>
</g>
<!-- ast.If object at 0x7fdea0208730&#45;&gt;ast.Compare object at 0x7fdea0208e50 -->
<g id="edge13" class="edge">
<title>ast.If object at 0x7fdea0208730&#45;&gt;ast.Compare object at 0x7fdea0208e50</title>
<path fill="none" stroke="black" d="M394.98,-359.92C395.15,-340.06 392.3,-307.53 374,-288 338.89,-250.52 278.77,-239.1 237.75,-235.86"/>
<polygon fill="black" stroke="black" points="237.97,-232.37 227.76,-235.2 237.51,-239.35 237.97,-232.37"/>
</g>
<!-- ast.Expr object at 0x7fdea03b1ba0 -->
<g id="node20" class="node">
<title>ast.Expr object at 0x7fdea03b1ba0</title>
<path fill="#66cdaa" stroke="black" d="M464,-324C464,-324 434,-324 434,-324 428,-324 422,-318 422,-312 422,-312 422,-300 422,-300 422,-294 428,-288 434,-288 434,-288 464,-288 464,-288 470,-288 476,-294 476,-300 476,-300 476,-312 476,-312 476,-318 470,-324 464,-324"/>
<text text-anchor="middle" x="449" y="-302.3" font-family="Times,serif" font-size="14.00">Expr</text>
</g>
<!-- ast.If object at 0x7fdea0208730&#45;&gt;ast.Expr object at 0x7fdea03b1ba0 -->
<g id="edge22" class="edge">
<title>ast.If object at 0x7fdea0208730&#45;&gt;ast.Expr object at 0x7fdea03b1ba0</title>
<path fill="none" stroke="black" d="M407.6,-359.7C414.12,-351.39 422.07,-341.28 429.25,-332.14"/>
<polygon fill="black" stroke="black" points="432.13,-334.13 435.56,-324.1 426.63,-329.81 432.13,-334.13"/>
</g>
<!-- ast.Name object at 0x7fdea02089d0 -->
<g id="node14" class="node">
<title>ast.Name object at 0x7fdea02089d0</title>
<path fill="#66cdaa" stroke="black" d="M71,-180C71,-180 41,-180 41,-180 35,-180 29,-174 29,-168 29,-168 29,-156 29,-156 29,-150 35,-144 41,-144 41,-144 71,-144 71,-144 77,-144 83,-150 83,-156 83,-156 83,-168 83,-168 83,-174 77,-180 71,-180"/>
<text text-anchor="middle" x="56" y="-158.3" font-family="Times,serif" font-size="14.00">Name</text>
</g>
<!-- ast.Compare object at 0x7fdea0208e50&#45;&gt;ast.Name object at 0x7fdea02089d0 -->
<g id="edge14" class="edge">
<title>ast.Compare object at 0x7fdea0208e50&#45;&gt;ast.Name object at 0x7fdea02089d0</title>
<path fill="none" stroke="black" d="M160.24,-215.88C139.67,-205.44 113.38,-192.1 92.35,-181.44"/>
<polygon fill="black" stroke="black" points="93.89,-178.3 83.39,-176.9 90.73,-184.54 93.89,-178.3"/>
</g>
<!-- ast.Lt object at 0x7fdea37ee950 -->
<g id="node16" class="node">
<title>ast.Lt object at 0x7fdea37ee950</title>
<path fill="#66cdaa" stroke="black" d="M143,-180C143,-180 113,-180 113,-180 107,-180 101,-174 101,-168 101,-168 101,-156 101,-156 101,-150 107,-144 113,-144 113,-144 143,-144 143,-144 149,-144 155,-150 155,-156 155,-156 155,-168 155,-168 155,-174 149,-180 143,-180"/>
<text text-anchor="middle" x="128" y="-158.3" font-family="Times,serif" font-size="14.00">Lt</text>
</g>
<!-- ast.Compare object at 0x7fdea0208e50&#45;&gt;ast.Lt object at 0x7fdea37ee950 -->
<g id="edge16" class="edge">
<title>ast.Compare object at 0x7fdea0208e50&#45;&gt;ast.Lt object at 0x7fdea37ee950</title>
<path fill="none" stroke="black" d="M177.69,-215.7C169.69,-207.22 159.93,-196.86 151.18,-187.58"/>
<polygon fill="black" stroke="black" points="153.53,-184.98 144.13,-180.1 148.44,-189.78 153.53,-184.98"/>
</g>
<!-- ast.Call object at 0x7fdea0208430 -->
<g id="node17" class="node">
<title>ast.Call object at 0x7fdea0208430</title>
<path fill="#66cdaa" stroke="black" d="M215,-180C215,-180 185,-180 185,-180 179,-180 173,-174 173,-168 173,-168 173,-156 173,-156 173,-150 179,-144 185,-144 185,-144 215,-144 215,-144 221,-144 227,-150 227,-156 227,-156 227,-168 227,-168 227,-174 221,-180 215,-180"/>
<text text-anchor="middle" x="200" y="-158.3" font-family="Times,serif" font-size="14.00">Call</text>
</g>
<!-- ast.Compare object at 0x7fdea0208e50&#45;&gt;ast.Call object at 0x7fdea0208430 -->
<g id="edge17" class="edge">
<title>ast.Compare object at 0x7fdea0208e50&#45;&gt;ast.Call object at 0x7fdea0208430</title>
<path fill="none" stroke="black" d="M195.48,-215.7C196.14,-207.98 196.94,-198.71 197.68,-190.11"/>
<polygon fill="black" stroke="black" points="201.17,-190.37 198.53,-180.1 194.19,-189.77 201.17,-190.37"/>
</g>
<!-- ast.Load object at 0x7fdea37edf60 -->
<g id="node15" class="node">
<title>ast.Load object at 0x7fdea37edf60</title>
<path fill="#66cdaa" stroke="black" d="M292,-36C292,-36 262,-36 262,-36 256,-36 250,-30 250,-24 250,-24 250,-12 250,-12 250,-6 256,0 262,0 262,0 292,0 292,0 298,0 304,-6 304,-12 304,-12 304,-24 304,-24 304,-30 298,-36 292,-36"/>
<text text-anchor="middle" x="277" y="-14.3" font-family="Times,serif" font-size="14.00">Load</text>
</g>
<!-- ast.Name object at 0x7fdea02089d0&#45;&gt;ast.Load object at 0x7fdea37edf60 -->
<g id="edge15" class="edge">
<title>ast.Name object at 0x7fdea02089d0&#45;&gt;ast.Load object at 0x7fdea37edf60</title>
<path fill="none" stroke="black" d="M57.32,-143.71C59.79,-123.65 66.84,-90.93 87,-72 128.89,-32.67 197.48,-22.13 239.79,-19.53"/>
<polygon fill="black" stroke="black" points="240.13,-23.02 249.94,-19.03 239.78,-16.03 240.13,-23.02"/>
</g>
<!-- ast.Name object at 0x7fdea020afb0 -->
<g id="node18" class="node">
<title>ast.Name object at 0x7fdea020afb0</title>
<path fill="#66cdaa" stroke="black" d="M138,-108C138,-108 108,-108 108,-108 102,-108 96,-102 96,-96 96,-96 96,-84 96,-84 96,-78 102,-72 108,-72 108,-72 138,-72 138,-72 144,-72 150,-78 150,-84 150,-84 150,-96 150,-96 150,-102 144,-108 138,-108"/>
<text text-anchor="middle" x="123" y="-86.3" font-family="Times,serif" font-size="14.00">Name</text>
</g>
<!-- ast.Call object at 0x7fdea0208430&#45;&gt;ast.Name object at 0x7fdea020afb0 -->
<g id="edge18" class="edge">
<title>ast.Call object at 0x7fdea0208430&#45;&gt;ast.Name object at 0x7fdea020afb0</title>
<path fill="none" stroke="black" d="M180.97,-143.7C171.46,-135.05 159.79,-124.45 149.43,-115.03"/>
<polygon fill="black" stroke="black" points="151.57,-112.24 141.81,-108.1 146.86,-117.42 151.57,-112.24"/>
</g>
<!-- ast.Name object at 0x7fdea02082e0 -->
<g id="node19" class="node">
<title>ast.Name object at 0x7fdea02082e0</title>
<path fill="#66cdaa" stroke="black" d="M210,-108C210,-108 180,-108 180,-108 174,-108 168,-102 168,-96 168,-96 168,-84 168,-84 168,-78 174,-72 180,-72 180,-72 210,-72 210,-72 216,-72 222,-78 222,-84 222,-84 222,-96 222,-96 222,-102 216,-108 210,-108"/>
<text text-anchor="middle" x="195" y="-86.3" font-family="Times,serif" font-size="14.00">Name</text>
</g>
<!-- ast.Call object at 0x7fdea0208430&#45;&gt;ast.Name object at 0x7fdea02082e0 -->
<g id="edge20" class="edge">
<title>ast.Call object at 0x7fdea0208430&#45;&gt;ast.Name object at 0x7fdea02082e0</title>
<path fill="none" stroke="black" d="M198.76,-143.7C198.21,-135.98 197.55,-126.71 196.94,-118.11"/>
<polygon fill="black" stroke="black" points="200.43,-117.83 196.22,-108.1 193.44,-118.33 200.43,-117.83"/>
</g>
<!-- ast.Name object at 0x7fdea020afb0&#45;&gt;ast.Load object at 0x7fdea37edf60 -->
<g id="edge19" class="edge">
<title>ast.Name object at 0x7fdea020afb0&#45;&gt;ast.Load object at 0x7fdea37edf60</title>
<path fill="none" stroke="black" d="M150.1,-76.13C153.1,-74.73 156.11,-73.33 159,-72 186.25,-59.45 217.19,-45.56 240.56,-35.15"/>
<polygon fill="black" stroke="black" points="242.04,-38.33 249.75,-31.06 239.19,-31.93 242.04,-38.33"/>
</g>
<!-- ast.Name object at 0x7fdea02082e0&#45;&gt;ast.Load object at 0x7fdea37edf60 -->
<g id="edge21" class="edge">
<title>ast.Name object at 0x7fdea02082e0&#45;&gt;ast.Load object at 0x7fdea37edf60</title>
<path fill="none" stroke="black" d="M215.27,-71.7C225.5,-62.97 238.06,-52.24 249.18,-42.75"/>
<polygon fill="black" stroke="black" points="251.63,-45.26 256.96,-36.1 247.09,-39.94 251.63,-45.26"/>
</g>
<!-- ast.Call object at 0x7fdea03b3760 -->
<g id="node21" class="node">
<title>ast.Call object at 0x7fdea03b3760</title>
<path fill="#66cdaa" stroke="black" d="M464,-252C464,-252 434,-252 434,-252 428,-252 422,-246 422,-240 422,-240 422,-228 422,-228 422,-222 428,-216 434,-216 434,-216 464,-216 464,-216 470,-216 476,-222 476,-228 476,-228 476,-240 476,-240 476,-246 470,-252 464,-252"/>
<text text-anchor="middle" x="449" y="-230.3" font-family="Times,serif" font-size="14.00">Call</text>
</g>
<!-- ast.Expr object at 0x7fdea03b1ba0&#45;&gt;ast.Call object at 0x7fdea03b3760 -->
<g id="edge23" class="edge">
<title>ast.Expr object at 0x7fdea03b1ba0&#45;&gt;ast.Call object at 0x7fdea03b3760</title>
<path fill="none" stroke="black" d="M449,-287.7C449,-279.98 449,-270.71 449,-262.11"/>
<polygon fill="black" stroke="black" points="452.5,-262.1 449,-252.1 445.5,-262.1 452.5,-262.1"/>
</g>
<!-- ast.Attribute object at 0x7fdea03b2b60 -->
<g id="node22" class="node">
<title>ast.Attribute object at 0x7fdea03b2b60</title>
<path fill="#66cdaa" stroke="black" d="M325.5,-180C325.5,-180 284.5,-180 284.5,-180 278.5,-180 272.5,-174 272.5,-168 272.5,-168 272.5,-156 272.5,-156 272.5,-150 278.5,-144 284.5,-144 284.5,-144 325.5,-144 325.5,-144 331.5,-144 337.5,-150 337.5,-156 337.5,-156 337.5,-168 337.5,-168 337.5,-174 331.5,-180 325.5,-180"/>
<text text-anchor="middle" x="305" y="-158.3" font-family="Times,serif" font-size="14.00">Attribute</text>
</g>
<!-- ast.Call object at 0x7fdea03b3760&#45;&gt;ast.Attribute object at 0x7fdea03b2b60 -->
<g id="edge24" class="edge">
<title>ast.Call object at 0x7fdea03b3760&#45;&gt;ast.Attribute object at 0x7fdea03b2b60</title>
<path fill="none" stroke="black" d="M421.91,-219.83C400.77,-209.55 371.02,-195.09 346.82,-183.33"/>
<polygon fill="black" stroke="black" points="348.03,-180.03 337.51,-178.8 344.97,-186.32 348.03,-180.03"/>
</g>
<!-- ast.BinOp object at 0x7fdea03b1a50 -->
<g id="node24" class="node">
<title>ast.BinOp object at 0x7fdea03b1a50</title>
<path fill="#66cdaa" stroke="black" d="M464,-180C464,-180 434,-180 434,-180 428,-180 422,-174 422,-168 422,-168 422,-156 422,-156 422,-150 428,-144 434,-144 434,-144 464,-144 464,-144 470,-144 476,-150 476,-156 476,-156 476,-168 476,-168 476,-174 470,-180 464,-180"/>
<text text-anchor="middle" x="449" y="-158.3" font-family="Times,serif" font-size="14.00">BinOp</text>
</g>
<!-- ast.Call object at 0x7fdea03b3760&#45;&gt;ast.BinOp object at 0x7fdea03b1a50 -->
<g id="edge28" class="edge">
<title>ast.Call object at 0x7fdea03b3760&#45;&gt;ast.BinOp object at 0x7fdea03b1a50</title>
<path fill="none" stroke="black" d="M449,-215.7C449,-207.98 449,-198.71 449,-190.11"/>
<polygon fill="black" stroke="black" points="452.5,-190.1 449,-180.1 445.5,-190.1 452.5,-190.1"/>
</g>
<!-- ast.Name object at 0x7fdea03b3e80 -->
<g id="node28" class="node">
<title>ast.Name object at 0x7fdea03b3e80</title>
<path fill="#66cdaa" stroke="black" d="M561,-180C561,-180 531,-180 531,-180 525,-180 519,-174 519,-168 519,-168 519,-156 519,-156 519,-150 525,-144 531,-144 531,-144 561,-144 561,-144 567,-144 573,-150 573,-156 573,-156 573,-168 573,-168 573,-174 567,-180 561,-180"/>
<text text-anchor="middle" x="546" y="-158.3" font-family="Times,serif" font-size="14.00">Name</text>
</g>
<!-- ast.Call object at 0x7fdea03b3760&#45;&gt;ast.Name object at 0x7fdea03b3e80 -->
<g id="edge33" class="edge">
<title>ast.Call object at 0x7fdea03b3760&#45;&gt;ast.Name object at 0x7fdea03b3e80</title>
<path fill="none" stroke="black" d="M472.98,-215.7C485.31,-206.8 500.52,-195.82 513.85,-186.2"/>
<polygon fill="black" stroke="black" points="516.24,-188.79 522.3,-180.1 512.14,-183.12 516.24,-188.79"/>
</g>
<!-- ast.Attribute object at 0x7fdea03b2b60&#45;&gt;ast.Load object at 0x7fdea37edf60 -->
<g id="edge27" class="edge">
<title>ast.Attribute object at 0x7fdea03b2b60&#45;&gt;ast.Load object at 0x7fdea37edf60</title>
<path fill="none" stroke="black" d="M289.39,-143.77C281.63,-134.03 273.05,-121.18 269,-108 262.79,-87.8 265.45,-63.89 269.31,-45.94"/>
<polygon fill="black" stroke="black" points="272.73,-46.67 271.66,-36.13 265.92,-45.04 272.73,-46.67"/>
</g>
<!-- ast.Name object at 0x7fdea03b3fa0 -->
<g id="node23" class="node">
<title>ast.Name object at 0x7fdea03b3fa0</title>
<path fill="#66cdaa" stroke="black" d="M320,-108C320,-108 290,-108 290,-108 284,-108 278,-102 278,-96 278,-96 278,-84 278,-84 278,-78 284,-72 290,-72 290,-72 320,-72 320,-72 326,-72 332,-78 332,-84 332,-84 332,-96 332,-96 332,-102 326,-108 320,-108"/>
<text text-anchor="middle" x="305" y="-86.3" font-family="Times,serif" font-size="14.00">Name</text>
</g>
<!-- ast.Attribute object at 0x7fdea03b2b60&#45;&gt;ast.Name object at 0x7fdea03b3fa0 -->
<g id="edge25" class="edge">
<title>ast.Attribute object at 0x7fdea03b2b60&#45;&gt;ast.Name object at 0x7fdea03b3fa0</title>
<path fill="none" stroke="black" d="M305,-143.7C305,-135.98 305,-126.71 305,-118.11"/>
<polygon fill="black" stroke="black" points="308.5,-118.1 305,-108.1 301.5,-118.1 308.5,-118.1"/>
</g>
<!-- ast.Name object at 0x7fdea03b3fa0&#45;&gt;ast.Load object at 0x7fdea37edf60 -->
<g id="edge26" class="edge">
<title>ast.Name object at 0x7fdea03b3fa0&#45;&gt;ast.Load object at 0x7fdea37edf60</title>
<path fill="none" stroke="black" d="M298.08,-71.7C294.93,-63.81 291.12,-54.3 287.62,-45.55"/>
<polygon fill="black" stroke="black" points="290.81,-44.09 283.84,-36.1 284.31,-46.69 290.81,-44.09"/>
</g>
<!-- ast.Name object at 0x7fdea03b1bd0 -->
<g id="node25" class="node">
<title>ast.Name object at 0x7fdea03b1bd0</title>
<path fill="#66cdaa" stroke="black" d="M392,-108C392,-108 362,-108 362,-108 356,-108 350,-102 350,-96 350,-96 350,-84 350,-84 350,-78 356,-72 362,-72 362,-72 392,-72 392,-72 398,-72 404,-78 404,-84 404,-84 404,-96 404,-96 404,-102 398,-108 392,-108"/>
<text text-anchor="middle" x="377" y="-86.3" font-family="Times,serif" font-size="14.00">Name</text>
</g>
<!-- ast.BinOp object at 0x7fdea03b1a50&#45;&gt;ast.Name object at 0x7fdea03b1bd0 -->
<g id="edge29" class="edge">
<title>ast.BinOp object at 0x7fdea03b1a50&#45;&gt;ast.Name object at 0x7fdea03b1bd0</title>
<path fill="none" stroke="black" d="M431.2,-143.7C422.4,-135.14 411.62,-124.66 402,-115.3"/>
<polygon fill="black" stroke="black" points="404.2,-112.57 394.59,-108.1 399.32,-117.58 404.2,-112.57"/>
</g>
<!-- ast.Add object at 0x7fdea37ee1a0 -->
<g id="node26" class="node">
<title>ast.Add object at 0x7fdea37ee1a0</title>
<path fill="#66cdaa" stroke="black" d="M464,-108C464,-108 434,-108 434,-108 428,-108 422,-102 422,-96 422,-96 422,-84 422,-84 422,-78 428,-72 434,-72 434,-72 464,-72 464,-72 470,-72 476,-78 476,-84 476,-84 476,-96 476,-96 476,-102 470,-108 464,-108"/>
<text text-anchor="middle" x="449" y="-86.3" font-family="Times,serif" font-size="14.00">Add</text>
</g>
<!-- ast.BinOp object at 0x7fdea03b1a50&#45;&gt;ast.Add object at 0x7fdea37ee1a0 -->
<g id="edge31" class="edge">
<title>ast.BinOp object at 0x7fdea03b1a50&#45;&gt;ast.Add object at 0x7fdea37ee1a0</title>
<path fill="none" stroke="black" d="M449,-143.7C449,-135.98 449,-126.71 449,-118.11"/>
<polygon fill="black" stroke="black" points="452.5,-118.1 449,-108.1 445.5,-118.1 452.5,-118.1"/>
</g>
<!-- ast.Constant object at 0x7fdea03b2c20 -->
<g id="node27" class="node">
<title>ast.Constant object at 0x7fdea03b2c20</title>
<path fill="#66cdaa" stroke="black" d="M547.5,-108C547.5,-108 506.5,-108 506.5,-108 500.5,-108 494.5,-102 494.5,-96 494.5,-96 494.5,-84 494.5,-84 494.5,-78 500.5,-72 506.5,-72 506.5,-72 547.5,-72 547.5,-72 553.5,-72 559.5,-78 559.5,-84 559.5,-84 559.5,-96 559.5,-96 559.5,-102 553.5,-108 547.5,-108"/>
<text text-anchor="middle" x="527" y="-86.3" font-family="Times,serif" font-size="14.00">Constant</text>
</g>
<!-- ast.BinOp object at 0x7fdea03b1a50&#45;&gt;ast.Constant object at 0x7fdea03b2c20 -->
<g id="edge32" class="edge">
<title>ast.BinOp object at 0x7fdea03b1a50&#45;&gt;ast.Constant object at 0x7fdea03b2c20</title>
<path fill="none" stroke="black" d="M468.28,-143.7C477.92,-135.05 489.73,-124.45 500.23,-115.03"/>
<polygon fill="black" stroke="black" points="502.84,-117.39 507.94,-108.1 498.16,-112.18 502.84,-117.39"/>
</g>
<!-- ast.Name object at 0x7fdea03b1bd0&#45;&gt;ast.Load object at 0x7fdea37edf60 -->
<g id="edge30" class="edge">
<title>ast.Name object at 0x7fdea03b1bd0&#45;&gt;ast.Load object at 0x7fdea37edf60</title>
<path fill="none" stroke="black" d="M352.54,-71.88C339.7,-62.89 323.8,-51.76 309.91,-42.03"/>
<polygon fill="black" stroke="black" points="311.76,-39.06 301.56,-36.19 307.74,-44.79 311.76,-39.06"/>
</g>
<!-- ast.Name object at 0x7fdea03b3e80&#45;&gt;ast.Load object at 0x7fdea37edf60 -->
<g id="edge34" class="edge">
<title>ast.Name object at 0x7fdea03b3e80&#45;&gt;ast.Load object at 0x7fdea37edf60</title>
<path fill="none" stroke="black" d="M558.38,-143.98C570.91,-124.48 586.18,-92.58 569,-72 536.97,-33.63 385.74,-22.98 314.41,-20.07"/>
<polygon fill="black" stroke="black" points="314.21,-16.56 304.08,-19.68 313.94,-23.55 314.21,-16.56"/>
</g>
<!-- ast.Name object at 0x7fdea03b3970 -->
<g id="node30" class="node">
<title>ast.Name object at 0x7fdea03b3970</title>
<path fill="#66cdaa" stroke="black" d="M588,-252C588,-252 558,-252 558,-252 552,-252 546,-246 546,-240 546,-240 546,-228 546,-228 546,-222 552,-216 558,-216 558,-216 588,-216 588,-216 594,-216 600,-222 600,-228 600,-228 600,-240 600,-240 600,-246 594,-252 588,-252"/>
<text text-anchor="middle" x="573" y="-230.3" font-family="Times,serif" font-size="14.00">Name</text>
</g>
<!-- ast.Return object at 0x7fdea03b1570&#45;&gt;ast.Name object at 0x7fdea03b3970 -->
<g id="edge36" class="edge">
<title>ast.Return object at 0x7fdea03b1570&#45;&gt;ast.Name object at 0x7fdea03b3970</title>
<path fill="none" stroke="black" d="M525.51,-359.87C534.8,-335.46 551.92,-290.43 562.87,-261.64"/>
<polygon fill="black" stroke="black" points="566.18,-262.78 566.46,-252.19 559.64,-260.29 566.18,-262.78"/>
</g>
<!-- ast.Name object at 0x7fdea03b3970&#45;&gt;ast.Load object at 0x7fdea37edf60 -->
<g id="edge37" class="edge">
<title>ast.Name object at 0x7fdea03b3970&#45;&gt;ast.Load object at 0x7fdea37edf60</title>
<path fill="none" stroke="black" d="M581.54,-215.56C596.04,-183.14 620.7,-113.16 586,-72 551.64,-31.25 388.97,-21.83 314.45,-19.65"/>
<polygon fill="black" stroke="black" points="314.21,-16.15 304.12,-19.38 314.03,-23.14 314.21,-16.15"/>
</g>
</g>
</svg>
